# SignFlow 3D Hand Mesh - Frame 58
v 0.000000 0.011300 0.016502
v -0.012835 0.003090 0.015024
v -0.018151 -0.006930 0.004745
v -0.012835 -0.012890 -0.008313
v -0.000000 -0.011300 -0.016502
v 0.012835 -0.003090 -0.015024
v 0.018151 0.006930 -0.004745
v 0.012835 0.012890 0.008313
v 0.003857 0.004423 0.021211
v -0.008978 -0.003787 0.019733
v -0.014294 -0.013807 0.009455
v -0.008978 -0.019767 -0.003604
v 0.003857 -0.018177 -0.011793
v 0.016691 -0.009967 -0.010315
v 0.022008 0.000053 -0.000036
v 0.016691 0.006013 0.013022
v 0.003857 0.006459 0.019614
v -0.004354 -0.006028 0.022926
v -0.007755 -0.019012 0.015568
v -0.004354 -0.024888 0.001849
v 0.003857 -0.020214 -0.010195
v 0.012067 -0.007727 -0.013508
v 0.015468 0.005258 -0.006149
v 0.012067 0.011134 0.007570
v 0.013995 0.001072 0.024434
v 0.005784 -0.011415 0.027747
v 0.002383 -0.024399 0.020388
v 0.005784 -0.030275 0.006669
v 0.013995 -0.025601 -0.005375
v 0.022205 -0.013114 -0.008687
v 0.025606 -0.000129 -0.001329
v 0.022205 0.005747 0.012390
v 0.013995 -0.016866 -0.009934
v 0.004539 -0.005284 -0.006653
v 0.000623 0.002209 0.006108
v 0.004539 0.001224 0.020873
v 0.013995 -0.007662 0.028993
v 0.023450 -0.019245 0.025712
v 0.027367 -0.026738 0.012952
v 0.023450 -0.025752 -0.001813
v 0.024430 -0.007735 -0.012092
v 0.014975 0.003847 -0.008811
v 0.011058 0.011340 0.003949
v 0.014975 0.010355 0.018714
v 0.024430 0.001468 0.026834
v 0.033886 -0.010114 0.023553
v 0.037802 -0.017607 0.010793
v 0.033886 -0.016622 -0.003972
v 0.024430 0.008573 -0.008845
v 0.011145 0.009075 -0.001258
v 0.005642 0.002425 0.011384
v 0.011145 -0.007481 0.021675
v 0.024430 -0.014841 0.023587
v 0.037715 -0.015342 0.016000
v 0.043218 -0.008692 0.003358
v 0.037715 0.001214 -0.006933
v 0.031132 0.023464 0.001906
v 0.017847 0.023966 0.009493
v 0.012344 0.017316 0.022135
v 0.017847 0.007410 0.032425
v 0.031132 0.000050 0.034337
v 0.044417 -0.000451 0.026750
v 0.049920 0.006199 0.014109
v 0.044417 0.016105 0.003818
v -0.003051 0.000000 0.019766
v -0.005869 -0.013634 0.013404
v -0.005249 -0.019282 -0.000810
v -0.001554 -0.013634 -0.014550
v 0.003051 -0.000000 -0.019766
v 0.005869 0.013634 -0.013404
v 0.005249 0.019282 0.000810
v 0.001554 0.013634 0.014550
v 0.055222 -0.016241 0.028762
v 0.052404 -0.029876 0.022400
v 0.053025 -0.035523 0.008186
v 0.056720 -0.029876 -0.005553
v 0.061325 -0.016241 -0.010769
v 0.064143 -0.002607 -0.004407
v 0.063523 0.003041 0.009807
v 0.059828 -0.002607 0.023546
v 0.060547 -0.016241 0.028867
v 0.060293 -0.030377 0.023000
v 0.058857 -0.036233 0.008930
v 0.057079 -0.030377 -0.005101
v 0.056001 -0.016241 -0.010874
v 0.056254 -0.002105 -0.005007
v 0.057691 0.003750 0.009063
v 0.059469 -0.002105 0.023094
v 0.081614 -0.015619 0.026457
v 0.081361 -0.029755 0.020590
v 0.079924 -0.035610 0.006520
v 0.078146 -0.029755 -0.007511
v 0.077068 -0.015619 -0.013284
v 0.077322 -0.001483 -0.007417
v 0.078758 0.004372 0.006653
v 0.080536 -0.001483 0.020684
v 0.074843 -0.015619 0.026074
v 0.077629 -0.029681 0.020705
v 0.081417 -0.035505 0.007066
v 0.083990 -0.029681 -0.006855
v 0.083839 -0.015619 -0.012901
v 0.081054 -0.001557 -0.007532
v 0.077265 0.004267 0.006107
v 0.074692 -0.001557 0.020027
v 0.094215 -0.013489 0.030545
v 0.097001 -0.027550 0.025176
v 0.100790 -0.033375 0.011537
v 0.103362 -0.027550 -0.002383
v 0.103211 -0.013489 -0.008430
v 0.100426 0.000573 -0.003061
v 0.096637 0.006398 0.010578
v 0.094065 0.000573 0.024499
v 0.101161 -0.013489 0.030907
v 0.100878 -0.027624 0.025040
v 0.099327 -0.033479 0.010982
v 0.097416 -0.027624 -0.003032
v 0.096265 -0.013489 -0.008792
v 0.096548 0.000647 -0.002925
v 0.098100 0.006502 0.011133
v 0.100010 0.000647 0.025147
v 0.126328 -0.012704 0.027804
v 0.126045 -0.026840 0.021936
v 0.124494 -0.032695 0.007878
v 0.122584 -0.026840 -0.006135
v 0.121433 -0.012704 -0.011896
v 0.121715 0.001431 -0.006028
v 0.123267 0.007286 0.008030
v 0.125177 0.001431 0.022043
v -0.001613 0.000000 0.019935
v -0.003587 -0.013927 0.013898
v -0.003460 -0.019696 -0.000280
v -0.001306 -0.013927 -0.014294
v 0.001613 -0.000000 -0.019935
v 0.003587 0.013927 -0.013898
v 0.003460 0.019696 0.000280
v 0.001306 0.013927 0.014294
v 0.063368 -0.011489 0.025191
v 0.061394 -0.025417 0.019154
v 0.061520 -0.031186 0.004976
v 0.063674 -0.025417 -0.009038
v 0.066593 -0.011489 -0.014679
v 0.068567 0.002438 -0.008642
v 0.068440 0.008207 0.005536
v 0.066287 0.002438 0.019550
v 0.066470 -0.011489 0.025201
v 0.063943 -0.025475 0.019515
v 0.062023 -0.031268 0.005477
v 0.061836 -0.025475 -0.008690
v 0.063491 -0.011489 -0.014688
v 0.066018 0.002496 -0.009003
v 0.067938 0.008289 0.005035
v 0.068125 0.002496 0.019203
v 0.092576 -0.015414 0.023251
v 0.090049 -0.029400 0.017565
v 0.088129 -0.035193 0.003527
v 0.087942 -0.029400 -0.010640
v 0.089596 -0.015414 -0.016638
v 0.092124 -0.001429 -0.010953
v 0.094044 0.004364 0.003085
v 0.094231 -0.001429 0.017253
v 0.088252 -0.015414 0.023104
v 0.086893 -0.029383 0.016992
v 0.087990 -0.035168 0.002863
v 0.090901 -0.029383 -0.011007
v 0.093920 -0.015414 -0.016492
v 0.095280 -0.001446 -0.010380
v 0.094182 0.004339 0.003749
v 0.091272 -0.001446 0.017619
v 0.112659 -0.019318 0.026598
v 0.111299 -0.033286 0.020486
v 0.112397 -0.039072 0.006357
v 0.115307 -0.033286 -0.007513
v 0.118327 -0.019318 -0.012998
v 0.119686 -0.005350 -0.006886
v 0.118589 0.000436 0.007243
v 0.115678 -0.005350 0.021113
v 0.111013 -0.019318 0.026292
v 0.110796 -0.033373 0.020231
v 0.113331 -0.039195 0.006303
v 0.117132 -0.033373 -0.007334
v 0.119973 -0.019318 -0.012692
v 0.120189 -0.005263 -0.006632
v 0.117655 0.000558 0.007297
v 0.113854 -0.005263 0.020934
v 0.140161 -0.022656 0.032991
v 0.139944 -0.036711 0.026931
v 0.142479 -0.042533 0.013002
v 0.146280 -0.036711 -0.000635
v 0.149121 -0.022656 -0.005993
v 0.149337 -0.008601 0.000068
v 0.146802 -0.002779 0.013996
v 0.143001 -0.008601 0.027633
v 0.002186 0.000000 0.019880
v 0.000046 -0.014061 0.014222
v -0.002121 -0.019886 0.000233
v -0.003045 -0.014061 -0.013893
v -0.002186 -0.000000 -0.019880
v -0.000046 0.014061 -0.014222
v 0.002121 0.019886 -0.000233
v 0.003045 0.014061 0.013893
v 0.070372 -0.007361 0.012384
v 0.068232 -0.021422 0.006726
v 0.066065 -0.027247 -0.007263
v 0.065141 -0.021422 -0.021389
v 0.066000 -0.007361 -0.027377
v 0.068140 0.006700 -0.021719
v 0.070307 0.012525 -0.007730
v 0.071231 0.006700 0.006396
v 0.067816 -0.007361 0.012500
v 0.065218 -0.021242 0.006593
v 0.064358 -0.026991 -0.007567
v 0.065741 -0.021242 -0.021686
v 0.068556 -0.007361 -0.027493
v 0.071154 0.006520 -0.021586
v 0.072014 0.012269 -0.007426
v 0.070631 0.006520 0.006693
v 0.086985 -0.011100 0.012855
v 0.084387 -0.024981 0.006948
v 0.083527 -0.030730 -0.007213
v 0.084910 -0.024981 -0.021332
v 0.087725 -0.011100 -0.027138
v 0.090323 0.002781 -0.021231
v 0.091183 0.008530 -0.007071
v 0.089800 0.002781 0.007048
v 0.086063 -0.011100 0.012816
v 0.085240 -0.025191 0.006893
v 0.085656 -0.031027 -0.007252
v 0.087067 -0.025191 -0.021332
v 0.088647 -0.011100 -0.027100
v 0.089470 0.002991 -0.021177
v 0.089054 0.008827 -0.007032
v 0.087643 0.002991 0.007049
v 0.109369 -0.013096 0.014325
v 0.108546 -0.027187 0.008401
v 0.108962 -0.033023 -0.005743
v 0.110373 -0.027187 -0.019824
v 0.111953 -0.013096 -0.025592
v 0.112776 0.000995 -0.019668
v 0.112360 0.006832 -0.005523
v 0.110949 0.000995 0.008557
v 0.108055 -0.013096 0.014196
v 0.106326 -0.027013 0.008061
v 0.107137 -0.032777 -0.006096
v 0.110011 -0.027013 -0.019982
v 0.113266 -0.013096 -0.025463
v 0.114995 0.000821 -0.019328
v 0.114185 0.006586 -0.005170
v 0.111311 0.000821 0.008716
v 0.133066 -0.017652 0.017482
v 0.131337 -0.031569 0.011347
v 0.132147 -0.037333 -0.002810
v 0.135022 -0.031569 -0.016696
v 0.138277 -0.017652 -0.022177
v 0.140006 -0.003735 -0.016041
v 0.139196 0.002030 -0.001884
v 0.136321 -0.003735 0.012002
v 0.004516 0.000000 0.019483
v 0.001661 -0.014054 0.014132
v -0.002168 -0.019876 0.000502
v -0.004726 -0.014054 -0.013422
v -0.004516 -0.000000 -0.019483
v -0.001661 0.014054 -0.014132
v 0.002168 0.019876 -0.000502
v 0.004726 0.014054 0.013422
v 0.066550 -0.007128 0.005105
v 0.063694 -0.021183 -0.000247
v 0.059866 -0.027004 -0.013876
v 0.057307 -0.021183 -0.027800
v 0.057517 -0.007128 -0.033862
v 0.060373 0.006926 -0.028511
v 0.064201 0.012747 -0.014881
v 0.066759 0.006926 -0.000957
v 0.063783 -0.007128 0.005545
v 0.063368 -0.021270 -0.000299
v 0.062171 -0.027128 -0.014391
v 0.060894 -0.021270 -0.028475
v 0.060284 -0.007128 -0.034302
v 0.060699 0.007013 -0.028458
v 0.061896 0.012871 -0.014367
v 0.063173 0.007013 -0.000282
v 0.079915 -0.007016 0.004128
v 0.079500 -0.021158 -0.001716
v 0.078304 -0.027016 -0.015807
v 0.077026 -0.021158 -0.029892
v 0.076416 -0.007016 -0.035718
v 0.076831 0.007125 -0.029874
v 0.078028 0.012983 -0.015783
v 0.079305 0.007125 -0.001699
v 0.077975 -0.007016 0.004204
v 0.076653 -0.021091 -0.001667
v 0.076217 -0.026921 -0.015814
v 0.076923 -0.021091 -0.029950
v 0.078356 -0.007016 -0.035794
v 0.079678 0.007058 -0.029923
v 0.080114 0.012888 -0.015776
v 0.079408 0.007058 -0.001640
v 0.094459 -0.008630 0.004361
v 0.093137 -0.022705 -0.001509
v 0.092701 -0.028535 -0.015656
v 0.093407 -0.022705 -0.029792
v 0.094840 -0.008630 -0.035637
v 0.096162 0.005445 -0.029766
v 0.096598 0.011275 -0.015619
v 0.095892 0.005445 -0.001483
v 0.095800 -0.008630 0.004329
v 0.091283 -0.022138 -0.001278
v 0.088738 -0.027733 -0.015297
v 0.089656 -0.022138 -0.029516
v 0.093500 -0.008630 -0.035605
v 0.098017 0.004878 -0.029997
v 0.100561 0.010473 -0.015978
v 0.099643 0.004878 -0.001760
v 0.117322 -0.015312 0.003089
v 0.112805 -0.028820 -0.002518
v 0.110261 -0.034416 -0.016537
v 0.111179 -0.028820 -0.030755
v 0.115022 -0.015312 -0.036844
v 0.119539 -0.001804 -0.031237
v 0.122084 0.003791 -0.017218
v 0.121165 -0.001804 -0.002999
v -0.015000 -0.015000 -0.015000
v 0.015000 -0.015000 -0.015000
v 0.015000 0.015000 -0.015000
v -0.015000 0.015000 -0.015000
v -0.015000 -0.015000 0.015000
v 0.015000 -0.015000 0.015000
v 0.015000 0.015000 0.015000
v -0.015000 0.015000 0.015000
v -0.011143 -0.021877 -0.010291
v 0.018857 -0.021877 -0.010291
v 0.018857 0.008123 -0.010291
v -0.011143 0.008123 -0.010291
v -0.011143 -0.021877 0.019709
v 0.018857 -0.021877 0.019709
v 0.018857 0.008123 0.019709
v -0.011143 0.008123 0.019709
v -0.001005 -0.027264 -0.005470
v 0.028995 -0.027264 -0.005470
v 0.028995 0.002736 -0.005470
v -0.001005 0.002736 -0.005470
v -0.001005 -0.027264 0.024530
v 0.028995 -0.027264 0.024530
v 0.028995 0.002736 0.024530
v -0.001005 0.002736 0.024530
v 0.009430 -0.018134 -0.007629
v 0.039430 -0.018134 -0.007629
v 0.039430 0.011866 -0.007629
v 0.009430 0.011866 -0.007629
v 0.009430 -0.018134 0.022371
v 0.039430 -0.018134 0.022371
v 0.039430 0.011866 0.022371
v 0.009430 0.011866 0.022371
v 0.016132 -0.003243 0.003122
v 0.046132 -0.003243 0.003122
v 0.046132 0.026757 0.003122
v 0.016132 0.026757 0.003122
v 0.016132 -0.003243 0.033122
v 0.046132 -0.003243 0.033122
v 0.046132 0.026757 0.033122
v 0.016132 0.026757 0.033122
v 0.043274 -0.031241 -0.006004
v 0.073274 -0.031241 -0.006004
v 0.073274 -0.001241 -0.006004
v 0.043274 -0.001241 -0.006004
v 0.043274 -0.031241 0.023996
v 0.073274 -0.031241 0.023996
v 0.073274 -0.001241 0.023996
v 0.043274 -0.001241 0.023996
v 0.064341 -0.030619 -0.008414
v 0.094341 -0.030619 -0.008414
v 0.094341 -0.000619 -0.008414
v 0.064341 -0.000619 -0.008414
v 0.064341 -0.030619 0.021586
v 0.094341 -0.030619 0.021586
v 0.094341 -0.000619 0.021586
v 0.064341 -0.000619 0.021586
v 0.083713 -0.028489 -0.003942
v 0.113713 -0.028489 -0.003942
v 0.113713 0.001511 -0.003942
v 0.083713 0.001511 -0.003942
v 0.083713 -0.028489 0.026058
v 0.113713 -0.028489 0.026058
v 0.113713 0.001511 0.026058
v 0.083713 0.001511 0.026058
v 0.108880 -0.027704 -0.007046
v 0.138880 -0.027704 -0.007046
v 0.138880 0.002296 -0.007046
v 0.108880 0.002296 -0.007046
v 0.108880 -0.027704 0.022954
v 0.138880 -0.027704 0.022954
v 0.138880 0.002296 0.022954
v 0.108880 0.002296 0.022954
v 0.049980 -0.026489 -0.009744
v 0.079980 -0.026489 -0.009744
v 0.079980 0.003511 -0.009744
v 0.049980 0.003511 -0.009744
v 0.049980 -0.026489 0.020256
v 0.079980 -0.026489 0.020256
v 0.079980 0.003511 0.020256
v 0.049980 0.003511 0.020256
v 0.076086 -0.030414 -0.011694
v 0.106086 -0.030414 -0.011694
v 0.106086 -0.000414 -0.011694
v 0.076086 -0.000414 -0.011694
v 0.076086 -0.030414 0.018306
v 0.106086 -0.030414 0.018306
v 0.106086 -0.000414 0.018306
v 0.076086 -0.000414 0.018306
v 0.100493 -0.034318 -0.008200
v 0.130493 -0.034318 -0.008200
v 0.130493 -0.004318 -0.008200
v 0.100493 -0.004318 -0.008200
v 0.100493 -0.034318 0.021800
v 0.130493 -0.034318 0.021800
v 0.130493 -0.004318 0.021800
v 0.100493 -0.004318 0.021800
v 0.129641 -0.037656 -0.001501
v 0.159641 -0.037656 -0.001501
v 0.159641 -0.007656 -0.001501
v 0.129641 -0.007656 -0.001501
v 0.129641 -0.037656 0.028499
v 0.159641 -0.037656 0.028499
v 0.159641 -0.007656 0.028499
v 0.129641 -0.007656 0.028499
v 0.053186 -0.022361 -0.022497
v 0.083186 -0.022361 -0.022497
v 0.083186 0.007639 -0.022497
v 0.053186 0.007639 -0.022497
v 0.053186 -0.022361 0.007503
v 0.083186 -0.022361 0.007503
v 0.083186 0.007639 0.007503
v 0.053186 0.007639 0.007503
v 0.072355 -0.026100 -0.022142
v 0.102355 -0.026100 -0.022142
v 0.102355 0.003900 -0.022142
v 0.072355 0.003900 -0.022142
v 0.072355 -0.026100 0.007858
v 0.102355 -0.026100 0.007858
v 0.102355 0.003900 0.007858
v 0.072355 0.003900 0.007858
v 0.095661 -0.028096 -0.020633
v 0.125661 -0.028096 -0.020633
v 0.125661 0.001904 -0.020633
v 0.095661 0.001904 -0.020633
v 0.095661 -0.028096 0.009367
v 0.125661 -0.028096 0.009367
v 0.125661 0.001904 0.009367
v 0.095661 0.001904 0.009367
v 0.120671 -0.032652 -0.017347
v 0.150671 -0.032652 -0.017347
v 0.150671 -0.002652 -0.017347
v 0.120671 -0.002652 -0.017347
v 0.120671 -0.032652 0.012653
v 0.150671 -0.032652 0.012653
v 0.150671 -0.002652 0.012653
v 0.120671 -0.002652 0.012653
v 0.047033 -0.022128 -0.029379
v 0.077033 -0.022128 -0.029379
v 0.077033 0.007872 -0.029379
v 0.047033 0.007872 -0.029379
v 0.047033 -0.022128 0.000621
v 0.077033 -0.022128 0.000621
v 0.077033 0.007872 0.000621
v 0.047033 0.007872 0.000621
v 0.063166 -0.022016 -0.030795
v 0.093166 -0.022016 -0.030795
v 0.093166 0.007984 -0.030795
v 0.063166 0.007984 -0.030795
v 0.063166 -0.022016 -0.000795
v 0.093166 -0.022016 -0.000795
v 0.093166 0.007984 -0.000795
v 0.063166 0.007984 -0.000795
v 0.079650 -0.023630 -0.030638
v 0.109650 -0.023630 -0.030638
v 0.109650 0.006370 -0.030638
v 0.079650 0.006370 -0.030638
v 0.079650 -0.023630 -0.000638
v 0.109650 -0.023630 -0.000638
v 0.109650 0.006370 -0.000638
v 0.079650 0.006370 -0.000638
v 0.101172 -0.030312 -0.031877
v 0.131172 -0.030312 -0.031877
v 0.131172 -0.000312 -0.031877
v 0.101172 -0.000312 -0.031877
v 0.101172 -0.030312 -0.001877
v 0.131172 -0.030312 -0.001877
v 0.131172 -0.000312 -0.001877
v 0.101172 -0.000312 -0.001877
f 1 2 9
f 2 10 9
f 2 3 10
f 3 11 10
f 3 4 11
f 4 12 11
f 4 5 12
f 5 13 12
f 5 6 13
f 6 14 13
f 6 7 14
f 7 15 14
f 7 8 15
f 8 16 15
f 8 1 16
f 1 9 16
f 17 18 25
f 18 26 25
f 18 19 26
f 19 27 26
f 19 20 27
f 20 28 27
f 20 21 28
f 21 29 28
f 21 22 29
f 22 30 29
f 22 23 30
f 23 31 30
f 23 24 31
f 24 32 31
f 24 17 32
f 17 25 32
f 33 34 41
f 34 42 41
f 34 35 42
f 35 43 42
f 35 36 43
f 36 44 43
f 36 37 44
f 37 45 44
f 37 38 45
f 38 46 45
f 38 39 46
f 39 47 46
f 39 40 47
f 40 48 47
f 40 33 48
f 33 41 48
f 49 50 57
f 50 58 57
f 50 51 58
f 51 59 58
f 51 52 59
f 52 60 59
f 52 53 60
f 53 61 60
f 53 54 61
f 54 62 61
f 54 55 62
f 55 63 62
f 55 56 63
f 56 64 63
f 56 49 64
f 49 57 64
f 65 66 73
f 66 74 73
f 66 67 74
f 67 75 74
f 67 68 75
f 68 76 75
f 68 69 76
f 69 77 76
f 69 70 77
f 70 78 77
f 70 71 78
f 71 79 78
f 71 72 79
f 72 80 79
f 72 65 80
f 65 73 80
f 81 82 89
f 82 90 89
f 82 83 90
f 83 91 90
f 83 84 91
f 84 92 91
f 84 85 92
f 85 93 92
f 85 86 93
f 86 94 93
f 86 87 94
f 87 95 94
f 87 88 95
f 88 96 95
f 88 81 96
f 81 89 96
f 97 98 105
f 98 106 105
f 98 99 106
f 99 107 106
f 99 100 107
f 100 108 107
f 100 101 108
f 101 109 108
f 101 102 109
f 102 110 109
f 102 103 110
f 103 111 110
f 103 104 111
f 104 112 111
f 104 97 112
f 97 105 112
f 113 114 121
f 114 122 121
f 114 115 122
f 115 123 122
f 115 116 123
f 116 124 123
f 116 117 124
f 117 125 124
f 117 118 125
f 118 126 125
f 118 119 126
f 119 127 126
f 119 120 127
f 120 128 127
f 120 113 128
f 113 121 128
f 129 130 137
f 130 138 137
f 130 131 138
f 131 139 138
f 131 132 139
f 132 140 139
f 132 133 140
f 133 141 140
f 133 134 141
f 134 142 141
f 134 135 142
f 135 143 142
f 135 136 143
f 136 144 143
f 136 129 144
f 129 137 144
f 145 146 153
f 146 154 153
f 146 147 154
f 147 155 154
f 147 148 155
f 148 156 155
f 148 149 156
f 149 157 156
f 149 150 157
f 150 158 157
f 150 151 158
f 151 159 158
f 151 152 159
f 152 160 159
f 152 145 160
f 145 153 160
f 161 162 169
f 162 170 169
f 162 163 170
f 163 171 170
f 163 164 171
f 164 172 171
f 164 165 172
f 165 173 172
f 165 166 173
f 166 174 173
f 166 167 174
f 167 175 174
f 167 168 175
f 168 176 175
f 168 161 176
f 161 169 176
f 177 178 185
f 178 186 185
f 178 179 186
f 179 187 186
f 179 180 187
f 180 188 187
f 180 181 188
f 181 189 188
f 181 182 189
f 182 190 189
f 182 183 190
f 183 191 190
f 183 184 191
f 184 192 191
f 184 177 192
f 177 185 192
f 193 194 201
f 194 202 201
f 194 195 202
f 195 203 202
f 195 196 203
f 196 204 203
f 196 197 204
f 197 205 204
f 197 198 205
f 198 206 205
f 198 199 206
f 199 207 206
f 199 200 207
f 200 208 207
f 200 193 208
f 193 201 208
f 209 210 217
f 210 218 217
f 210 211 218
f 211 219 218
f 211 212 219
f 212 220 219
f 212 213 220
f 213 221 220
f 213 214 221
f 214 222 221
f 214 215 222
f 215 223 222
f 215 216 223
f 216 224 223
f 216 209 224
f 209 217 224
f 225 226 233
f 226 234 233
f 226 227 234
f 227 235 234
f 227 228 235
f 228 236 235
f 228 229 236
f 229 237 236
f 229 230 237
f 230 238 237
f 230 231 238
f 231 239 238
f 231 232 239
f 232 240 239
f 232 225 240
f 225 233 240
f 241 242 249
f 242 250 249
f 242 243 250
f 243 251 250
f 243 244 251
f 244 252 251
f 244 245 252
f 245 253 252
f 245 246 253
f 246 254 253
f 246 247 254
f 247 255 254
f 247 248 255
f 248 256 255
f 248 241 256
f 241 249 256
f 257 258 265
f 258 266 265
f 258 259 266
f 259 267 266
f 259 260 267
f 260 268 267
f 260 261 268
f 261 269 268
f 261 262 269
f 262 270 269
f 262 263 270
f 263 271 270
f 263 264 271
f 264 272 271
f 264 257 272
f 257 265 272
f 273 274 281
f 274 282 281
f 274 275 282
f 275 283 282
f 275 276 283
f 276 284 283
f 276 277 284
f 277 285 284
f 277 278 285
f 278 286 285
f 278 279 286
f 279 287 286
f 279 280 287
f 280 288 287
f 280 273 288
f 273 281 288
f 289 290 297
f 290 298 297
f 290 291 298
f 291 299 298
f 291 292 299
f 292 300 299
f 292 293 300
f 293 301 300
f 293 294 301
f 294 302 301
f 294 295 302
f 295 303 302
f 295 296 303
f 296 304 303
f 296 289 304
f 289 297 304
f 305 306 313
f 306 314 313
f 306 307 314
f 307 315 314
f 307 308 315
f 308 316 315
f 308 309 316
f 309 317 316
f 309 310 317
f 310 318 317
f 310 311 318
f 311 319 318
f 311 312 319
f 312 320 319
f 312 305 320
f 305 313 320
f 321 322 323
f 321 323 324
f 325 326 327
f 325 327 328
f 321 325 326
f 321 326 322
f 322 326 327
f 322 327 323
f 323 327 328
f 323 328 324
f 324 328 325
f 324 325 321
f 329 330 331
f 329 331 332
f 333 334 335
f 333 335 336
f 329 333 334
f 329 334 330
f 330 334 335
f 330 335 331
f 331 335 336
f 331 336 332
f 332 336 333
f 332 333 329
f 337 338 339
f 337 339 340
f 341 342 343
f 341 343 344
f 337 341 342
f 337 342 338
f 338 342 343
f 338 343 339
f 339 343 344
f 339 344 340
f 340 344 341
f 340 341 337
f 345 346 347
f 345 347 348
f 349 350 351
f 349 351 352
f 345 349 350
f 345 350 346
f 346 350 351
f 346 351 347
f 347 351 352
f 347 352 348
f 348 352 349
f 348 349 345
f 353 354 355
f 353 355 356
f 357 358 359
f 357 359 360
f 353 357 358
f 353 358 354
f 354 358 359
f 354 359 355
f 355 359 360
f 355 360 356
f 356 360 357
f 356 357 353
f 361 362 363
f 361 363 364
f 365 366 367
f 365 367 368
f 361 365 366
f 361 366 362
f 362 366 367
f 362 367 363
f 363 367 368
f 363 368 364
f 364 368 365
f 364 365 361
f 369 370 371
f 369 371 372
f 373 374 375
f 373 375 376
f 369 373 374
f 369 374 370
f 370 374 375
f 370 375 371
f 371 375 376
f 371 376 372
f 372 376 373
f 372 373 369
f 377 378 379
f 377 379 380
f 381 382 383
f 381 383 384
f 377 381 382
f 377 382 378
f 378 382 383
f 378 383 379
f 379 383 384
f 379 384 380
f 380 384 381
f 380 381 377
f 385 386 387
f 385 387 388
f 389 390 391
f 389 391 392
f 385 389 390
f 385 390 386
f 386 390 391
f 386 391 387
f 387 391 392
f 387 392 388
f 388 392 389
f 388 389 385
f 393 394 395
f 393 395 396
f 397 398 399
f 397 399 400
f 393 397 398
f 393 398 394
f 394 398 399
f 394 399 395
f 395 399 400
f 395 400 396
f 396 400 397
f 396 397 393
f 401 402 403
f 401 403 404
f 405 406 407
f 405 407 408
f 401 405 406
f 401 406 402
f 402 406 407
f 402 407 403
f 403 407 408
f 403 408 404
f 404 408 405
f 404 405 401
f 409 410 411
f 409 411 412
f 413 414 415
f 413 415 416
f 409 413 414
f 409 414 410
f 410 414 415
f 410 415 411
f 411 415 416
f 411 416 412
f 412 416 413
f 412 413 409
f 417 418 419
f 417 419 420
f 421 422 423
f 421 423 424
f 417 421 422
f 417 422 418
f 418 422 423
f 418 423 419
f 419 423 424
f 419 424 420
f 420 424 421
f 420 421 417
f 425 426 427
f 425 427 428
f 429 430 431
f 429 431 432
f 425 429 430
f 425 430 426
f 426 430 431
f 426 431 427
f 427 431 432
f 427 432 428
f 428 432 429
f 428 429 425
f 433 434 435
f 433 435 436
f 437 438 439
f 437 439 440
f 433 437 438
f 433 438 434
f 434 438 439
f 434 439 435
f 435 439 440
f 435 440 436
f 436 440 437
f 436 437 433
f 441 442 443
f 441 443 444
f 445 446 447
f 445 447 448
f 441 445 446
f 441 446 442
f 442 446 447
f 442 447 443
f 443 447 448
f 443 448 444
f 444 448 445
f 444 445 441
f 449 450 451
f 449 451 452
f 453 454 455
f 453 455 456
f 449 453 454
f 449 454 450
f 450 454 455
f 450 455 451
f 451 455 456
f 451 456 452
f 452 456 453
f 452 453 449
f 457 458 459
f 457 459 460
f 461 462 463
f 461 463 464
f 457 461 462
f 457 462 458
f 458 462 463
f 458 463 459
f 459 463 464
f 459 464 460
f 460 464 461
f 460 461 457
f 465 466 467
f 465 467 468
f 469 470 471
f 469 471 472
f 465 469 470
f 465 470 466
f 466 470 471
f 466 471 467
f 467 471 472
f 467 472 468
f 468 472 469
f 468 469 465
f 473 474 475
f 473 475 476
f 477 478 479
f 477 479 480
f 473 477 478
f 473 478 474
f 474 478 479
f 474 479 475
f 475 479 480
f 475 480 476
f 476 480 477
f 476 477 473
f 481 482 483
f 481 483 484
f 485 486 487
f 485 487 488
f 481 485 486
f 481 486 482
f 482 486 487
f 482 487 483
f 483 487 488
f 483 488 484
f 484 488 485
f 484 485 481
