# SignFlow 3D Hand Mesh - Frame 312
v 0.002109 0.000000 0.019889
v -0.002865 -0.013446 0.014525
v -0.006161 -0.019016 0.000653
v -0.005847 -0.013446 -0.013601
v -0.002109 -0.000000 -0.019889
v 0.002865 0.013446 -0.014525
v 0.006161 0.019016 -0.000653
v 0.005847 0.013446 0.013601
v 0.041352 -0.012857 0.015728
v 0.036378 -0.026304 0.010365
v 0.033082 -0.031873 -0.003507
v 0.033396 -0.026304 -0.017762
v 0.037134 -0.012857 -0.024049
v 0.042109 0.000589 -0.018686
v 0.045404 0.006159 -0.004814
v 0.045091 0.000589 0.009441
v 0.039243 -0.006868 0.014922
v 0.029563 -0.018460 0.012420
v 0.025554 -0.026769 0.000205
v 0.029563 -0.026929 -0.014567
v 0.039243 -0.018846 -0.023243
v 0.048923 -0.007255 -0.020741
v 0.052932 0.001055 -0.008527
v 0.048923 0.001215 0.006245
v 0.067138 -0.031856 0.022764
v 0.057458 -0.043447 0.020262
v 0.053449 -0.051757 0.008048
v 0.057458 -0.051917 -0.006724
v 0.067138 -0.043833 -0.015401
v 0.076818 -0.032242 -0.012899
v 0.080827 -0.023933 -0.000685
v 0.076818 -0.023773 0.014087
v 0.067138 -0.029304 0.021766
v 0.055174 -0.038625 0.019690
v 0.050219 -0.047488 0.008236
v 0.055174 -0.050703 -0.005886
v 0.067138 -0.046385 -0.014403
v 0.079102 -0.037065 -0.012327
v 0.084057 -0.028201 -0.000873
v 0.079102 -0.024987 0.013249
v 0.087890 -0.059073 0.035825
v 0.075927 -0.068394 0.033748
v 0.070971 -0.077258 0.022294
v 0.075927 -0.080472 0.008172
v 0.087890 -0.076154 -0.000345
v 0.099854 -0.066834 0.001732
v 0.104809 -0.057970 0.013186
v 0.099854 -0.054756 0.027307
v 0.087890 -0.056112 0.034101
v 0.075210 -0.064604 0.032911
v 0.069958 -0.074859 0.022833
v 0.075210 -0.080870 0.009772
v 0.087890 -0.079116 0.001378
v 0.100570 -0.070624 0.002569
v 0.105822 -0.060368 0.012646
v 0.100570 -0.054357 0.025707
v 0.104635 -0.083846 0.053599
v 0.091955 -0.092338 0.052408
v 0.086703 -0.102594 0.042331
v 0.091955 -0.108605 0.029269
v 0.104635 -0.106850 0.020875
v 0.117315 -0.098358 0.022066
v 0.122567 -0.088103 0.032143
v 0.117315 -0.082092 0.045205
v 0.000000 0.007650 0.018479
v -0.010597 -0.003243 0.016649
v -0.014987 -0.012237 0.005066
v -0.010597 -0.014062 -0.009485
v -0.000000 -0.007650 -0.018479
v 0.010597 0.003243 -0.016649
v 0.014987 0.012237 -0.005066
v 0.010597 0.014062 0.009485
v 0.064829 -0.060133 0.046541
v 0.054232 -0.071026 0.044711
v 0.049843 -0.080019 0.033128
v 0.054232 -0.081845 0.018577
v 0.064829 -0.075433 0.009583
v 0.075427 -0.064540 0.011413
v 0.079816 -0.055546 0.022996
v 0.075427 -0.053721 0.037546
v 0.064829 -0.085363 0.037597
v 0.051332 -0.082227 0.031094
v 0.045741 -0.070629 0.022815
v 0.051332 -0.057364 0.017609
v 0.064829 -0.050202 0.018526
v 0.078327 -0.053339 0.025029
v 0.083918 -0.064937 0.033309
v 0.078327 -0.078202 0.038515
v 0.073275 -0.098240 0.013857
v 0.059777 -0.095103 0.007354
v 0.054186 -0.083505 -0.000925
v 0.059777 -0.070241 -0.006131
v 0.073275 -0.063079 -0.005214
v 0.086772 -0.066216 0.001289
v 0.092363 -0.077814 0.009568
v 0.086772 -0.091078 0.014774
v 0.073275 -0.092358 -0.011900
v 0.060266 -0.093431 -0.003904
v 0.054878 -0.087022 0.008910
v 0.060266 -0.076886 0.019037
v 0.073275 -0.068961 0.020543
v 0.086284 -0.067888 0.012547
v 0.091672 -0.074297 -0.000267
v 0.086284 -0.084432 -0.010394
v 0.066773 -0.079991 -0.020819
v 0.053764 -0.081064 -0.012823
v 0.048376 -0.074655 -0.000008
v 0.053764 -0.064520 0.010118
v 0.066773 -0.056594 0.011625
v 0.079782 -0.055521 0.003629
v 0.085171 -0.061930 -0.009186
v 0.079782 -0.072066 -0.019312
v 0.066773 -0.059127 -0.022373
v 0.054950 -0.068708 -0.020723
v 0.050052 -0.078046 -0.009626
v 0.054950 -0.081670 0.004416
v 0.066773 -0.077459 0.013179
v 0.078597 -0.067878 0.011528
v 0.083494 -0.058540 0.000432
v 0.078597 -0.054915 -0.013611
v 0.052684 -0.040046 -0.012534
v 0.040861 -0.049627 -0.010884
v 0.035963 -0.058965 0.000213
v 0.040861 -0.062589 0.014255
v 0.052684 -0.058377 0.023018
v 0.064508 -0.048796 0.021367
v 0.069405 -0.039458 0.010271
v 0.064508 -0.035834 -0.003772
v 0.000000 0.007711 0.018454
v -0.012789 -0.000118 0.015376
v -0.018086 -0.007878 0.003292
v -0.012789 -0.011023 -0.010721
v -0.000000 -0.007711 -0.018454
v 0.012789 0.000118 -0.015376
v 0.018086 0.007878 -0.003292
v 0.012789 0.011023 0.010721
v 0.039451 -0.069394 0.050673
v 0.026662 -0.077223 0.047596
v 0.021365 -0.084983 0.035512
v 0.026662 -0.088129 0.021499
v 0.039451 -0.084816 0.013766
v 0.052240 -0.076987 0.016843
v 0.057537 -0.069227 0.028928
v 0.052240 -0.066082 0.042941
v 0.039451 -0.095211 0.040716
v 0.026149 -0.091948 0.033881
v 0.020639 -0.079990 0.026072
v 0.026149 -0.066343 0.021865
v 0.039451 -0.059000 0.023723
v 0.052753 -0.062263 0.030558
v 0.058263 -0.074221 0.038367
v 0.052753 -0.087868 0.042574
v 0.053059 -0.111227 0.006587
v 0.039757 -0.107963 -0.000248
v 0.034247 -0.096006 -0.008057
v 0.039757 -0.082358 -0.012264
v 0.053059 -0.075016 -0.010406
v 0.066361 -0.078279 -0.003571
v 0.071871 -0.090236 0.004238
v 0.066361 -0.103884 0.008445
v 0.053059 -0.102657 -0.019490
v 0.039418 -0.103145 -0.012561
v 0.033768 -0.097762 0.000608
v 0.039418 -0.089660 0.012302
v 0.053059 -0.083585 0.015671
v 0.066699 -0.083097 0.008742
v 0.072350 -0.088480 -0.004427
v 0.066699 -0.096582 -0.016121
v 0.045788 -0.079303 -0.032157
v 0.032147 -0.079792 -0.025228
v 0.026497 -0.074408 -0.012059
v 0.032147 -0.066306 -0.000366
v 0.045788 -0.060232 0.003004
v 0.059428 -0.059743 -0.003925
v 0.065078 -0.065127 -0.017094
v 0.059428 -0.073229 -0.028788
v 0.045788 -0.056148 -0.029223
v 0.032645 -0.063962 -0.028490
v 0.027202 -0.075176 -0.019606
v 0.032645 -0.083223 -0.007777
v 0.045788 -0.083387 0.000069
v 0.058930 -0.075573 -0.000664
v 0.064374 -0.064359 -0.009547
v 0.058930 -0.056312 -0.021376
v 0.036181 -0.038446 -0.012762
v 0.023039 -0.046260 -0.012029
v 0.017595 -0.057475 -0.003145
v 0.023039 -0.065521 0.008684
v 0.036181 -0.065685 0.016530
v 0.049324 -0.057872 0.015797
v 0.054768 -0.046657 0.006914
v 0.049324 -0.038611 -0.004915
v 0.000000 0.005487 0.019233
v -0.013824 0.001013 0.014417
v -0.019551 -0.004055 0.001157
v -0.013824 -0.006747 -0.012781
v -0.000000 -0.005487 -0.019233
v 0.013824 -0.001013 -0.014417
v 0.019551 0.004055 -0.001157
v 0.013824 0.006747 0.012781
v 0.018503 -0.077018 0.042772
v 0.004679 -0.081492 0.037957
v -0.001047 -0.086560 0.024696
v 0.004679 -0.089253 0.010758
v 0.018503 -0.087993 0.004307
v 0.032328 -0.083519 0.009122
v 0.038054 -0.078451 0.022383
v 0.032328 -0.075759 0.036321
v 0.018503 -0.101703 0.029146
v 0.005168 -0.097401 0.022984
v -0.000355 -0.084373 0.017147
v 0.005168 -0.070251 0.015054
v 0.018503 -0.063308 0.017932
v 0.031838 -0.067610 0.024095
v 0.037362 -0.080638 0.029932
v 0.031838 -0.094760 0.032024
v 0.030114 -0.110921 -0.002415
v 0.016779 -0.106619 -0.008577
v 0.011256 -0.093590 -0.014414
v 0.016779 -0.079469 -0.016507
v 0.030114 -0.072525 -0.013629
v 0.043449 -0.076828 -0.007466
v 0.048973 -0.089856 -0.001629
v 0.043449 -0.103978 0.000463
v 0.030114 -0.100486 -0.026000
v 0.015992 -0.098597 -0.020404
v 0.010143 -0.092682 -0.007555
v 0.015992 -0.086205 0.005021
v 0.030114 -0.082961 0.009956
v 0.044236 -0.084850 0.004360
v 0.050086 -0.090765 -0.008489
v 0.044236 -0.097242 -0.021065
v 0.028735 -0.077248 -0.037326
v 0.014613 -0.075359 -0.031730
v 0.008763 -0.069444 -0.018881
v 0.014613 -0.062967 -0.006305
v 0.028735 -0.059723 -0.001370
v 0.042857 -0.061612 -0.006966
v 0.048706 -0.067528 -0.019815
v 0.042857 -0.074004 -0.032391
v 0.028735 -0.059540 -0.037236
v 0.015053 -0.065362 -0.033598
v 0.009386 -0.073014 -0.021612
v 0.015053 -0.078013 -0.008301
v 0.028735 -0.077432 -0.001460
v 0.042416 -0.071610 -0.005098
v 0.048083 -0.063958 -0.017083
v 0.042416 -0.058958 -0.030395
v 0.022631 -0.038677 -0.026802
v 0.008950 -0.044499 -0.023164
v 0.003282 -0.052151 -0.011179
v 0.008950 -0.057151 0.002133
v 0.022631 -0.056569 0.008974
v 0.036313 -0.050747 0.005336
v 0.041980 -0.043095 -0.006649
v 0.036313 -0.038096 -0.019961
v 0.000000 0.003173 0.019747
v -0.014107 0.003225 0.013805
v -0.019950 0.001389 -0.000223
v -0.014107 -0.001262 -0.014121
v -0.000000 -0.003173 -0.019747
v 0.014107 -0.003225 -0.013805
v 0.019950 -0.001389 0.000223
v 0.014107 0.001262 0.014121
v -0.005521 -0.074150 0.032170
v -0.019628 -0.074097 0.026229
v -0.025471 -0.075934 0.012200
v -0.019628 -0.078584 -0.001697
v -0.005521 -0.080495 -0.007323
v 0.008586 -0.080548 -0.001382
v 0.014430 -0.078711 0.012647
v 0.008586 -0.076061 0.026544
v -0.005521 -0.094826 0.022100
v -0.018000 -0.092919 0.013443
v -0.023169 -0.081875 0.004188
v -0.018000 -0.068165 -0.000242
v -0.005521 -0.059819 0.002747
v 0.006958 -0.061727 0.011404
v 0.012127 -0.072770 0.020659
v 0.006958 -0.086480 0.025089
v 0.007182 -0.106352 0.001251
v -0.005297 -0.104445 -0.007407
v -0.010466 -0.093402 -0.016661
v -0.005297 -0.079692 -0.021092
v 0.007182 -0.071346 -0.018103
v 0.019661 -0.073253 -0.009445
v 0.024830 -0.084296 -0.000191
v 0.019661 -0.098006 0.004240
v 0.007182 -0.102702 -0.022851
v -0.006657 -0.096544 -0.020644
v -0.012389 -0.085878 -0.011279
v -0.006657 -0.076953 -0.000243
v 0.007182 -0.074996 0.006000
v 0.021021 -0.081154 0.003792
v 0.026753 -0.091820 -0.005573
v 0.021021 -0.100746 -0.016609
v 0.012066 -0.085965 -0.038925
v -0.001773 -0.079806 -0.036717
v -0.007505 -0.069140 -0.027353
v -0.001773 -0.060215 -0.016316
v 0.012066 -0.058259 -0.010074
v 0.025905 -0.064417 -0.012281
v 0.031637 -0.075083 -0.021646
v 0.025905 -0.084008 -0.032682
v 0.012066 -0.062605 -0.042095
v -0.001268 -0.069534 -0.039181
v -0.006792 -0.077973 -0.027666
v -0.001268 -0.082978 -0.014296
v 0.012066 -0.081618 -0.006903
v 0.025400 -0.074689 -0.009818
v 0.030924 -0.066250 -0.021332
v 0.025400 -0.061245 -0.034702
v 0.005592 -0.046483 -0.033385
v -0.007742 -0.053412 -0.030471
v -0.013266 -0.061851 -0.018956
v -0.007742 -0.066856 -0.005586
v 0.005592 -0.065496 0.001807
v 0.018926 -0.058567 -0.001107
v 0.024450 -0.050128 -0.012622
v 0.018926 -0.045122 -0.025992
v -0.015000 -0.015000 -0.015000
v 0.015000 -0.015000 -0.015000
v 0.015000 0.015000 -0.015000
v -0.015000 0.015000 -0.015000
v -0.015000 -0.015000 0.015000
v 0.015000 -0.015000 0.015000
v 0.015000 0.015000 0.015000
v -0.015000 0.015000 0.015000
v 0.024243 -0.027857 -0.019161
v 0.054243 -0.027857 -0.019161
v 0.054243 0.002143 -0.019161
v 0.024243 0.002143 -0.019161
v 0.024243 -0.027857 0.010839
v 0.054243 -0.027857 0.010839
v 0.054243 0.002143 0.010839
v 0.024243 0.002143 0.010839
v 0.052138 -0.052845 -0.011319
v 0.082138 -0.052845 -0.011319
v 0.082138 -0.022845 -0.011319
v 0.052138 -0.022845 -0.011319
v 0.052138 -0.052845 0.018681
v 0.082138 -0.052845 0.018681
v 0.082138 -0.022845 0.018681
v 0.052138 -0.022845 0.018681
v 0.072890 -0.082614 0.002740
v 0.102890 -0.082614 0.002740
v 0.102890 -0.052614 0.002740
v 0.072890 -0.052614 0.002740
v 0.072890 -0.082614 0.032740
v 0.102890 -0.082614 0.032740
v 0.102890 -0.052614 0.032740
v 0.072890 -0.052614 0.032740
v 0.089635 -0.110348 0.022237
v 0.119635 -0.110348 0.022237
v 0.119635 -0.080348 0.022237
v 0.089635 -0.080348 0.022237
v 0.089635 -0.110348 0.052237
v 0.119635 -0.110348 0.052237
v 0.119635 -0.080348 0.052237
v 0.089635 -0.080348 0.052237
v 0.049829 -0.082783 0.013062
v 0.079829 -0.082783 0.013062
v 0.079829 -0.052783 0.013062
v 0.049829 -0.052783 0.013062
v 0.049829 -0.082783 0.043062
v 0.079829 -0.082783 0.043062
v 0.079829 -0.052783 0.043062
v 0.049829 -0.052783 0.043062
v 0.058275 -0.095659 -0.010679
v 0.088275 -0.095659 -0.010679
v 0.088275 -0.065659 -0.010679
v 0.058275 -0.065659 -0.010679
v 0.058275 -0.095659 0.019321
v 0.088275 -0.095659 0.019321
v 0.088275 -0.065659 0.019321
v 0.058275 -0.065659 0.019321
v 0.051773 -0.083293 -0.019597
v 0.081773 -0.083293 -0.019597
v 0.081773 -0.053293 -0.019597
v 0.051773 -0.053293 -0.019597
v 0.051773 -0.083293 0.010403
v 0.081773 -0.083293 0.010403
v 0.081773 -0.053293 0.010403
v 0.051773 -0.053293 0.010403
v 0.037684 -0.064211 -0.009758
v 0.067684 -0.064211 -0.009758
v 0.067684 -0.034211 -0.009758
v 0.037684 -0.034211 -0.009758
v 0.037684 -0.064211 0.020242
v 0.067684 -0.064211 0.020242
v 0.067684 -0.034211 0.020242
v 0.037684 -0.034211 0.020242
v 0.024451 -0.092105 0.017220
v 0.054451 -0.092105 0.017220
v 0.054451 -0.062105 0.017220
v 0.024451 -0.062105 0.017220
v 0.024451 -0.092105 0.047220
v 0.054451 -0.092105 0.047220
v 0.054451 -0.062105 0.047220
v 0.024451 -0.062105 0.047220
v 0.038059 -0.108121 -0.016910
v 0.068059 -0.108121 -0.016910
v 0.068059 -0.078121 -0.016910
v 0.038059 -0.078121 -0.016910
v 0.038059 -0.108121 0.013090
v 0.068059 -0.108121 0.013090
v 0.068059 -0.078121 0.013090
v 0.038059 -0.078121 0.013090
v 0.030788 -0.084768 -0.029577
v 0.060788 -0.084768 -0.029577
v 0.060788 -0.054768 -0.029577
v 0.030788 -0.054768 -0.029577
v 0.030788 -0.084768 0.000423
v 0.060788 -0.084768 0.000423
v 0.060788 -0.054768 0.000423
v 0.030788 -0.054768 0.000423
v 0.021181 -0.067066 -0.013116
v 0.051181 -0.067066 -0.013116
v 0.051181 -0.037066 -0.013116
v 0.021181 -0.037066 -0.013116
v 0.021181 -0.067066 0.016884
v 0.051181 -0.067066 0.016884
v 0.051181 -0.037066 0.016884
v 0.021181 -0.037066 0.016884
v 0.003503 -0.097506 0.008539
v 0.033503 -0.097506 0.008539
v 0.033503 -0.067506 0.008539
v 0.003503 -0.067506 0.008539
v 0.003503 -0.097506 0.038539
v 0.033503 -0.097506 0.038539
v 0.033503 -0.067506 0.038539
v 0.003503 -0.067506 0.038539
v 0.015114 -0.106723 -0.023022
v 0.045114 -0.106723 -0.023022
v 0.045114 -0.076723 -0.023022
v 0.015114 -0.076723 -0.023022
v 0.015114 -0.106723 0.006978
v 0.045114 -0.106723 0.006978
v 0.045114 -0.076723 0.006978
v 0.015114 -0.076723 0.006978
v 0.013735 -0.083486 -0.034348
v 0.043735 -0.083486 -0.034348
v 0.043735 -0.053486 -0.034348
v 0.013735 -0.053486 -0.034348
v 0.013735 -0.083486 -0.004348
v 0.043735 -0.083486 -0.004348
v 0.043735 -0.053486 -0.004348
v 0.013735 -0.053486 -0.004348
v 0.007631 -0.062623 -0.023914
v 0.037631 -0.062623 -0.023914
v 0.037631 -0.032623 -0.023914
v 0.007631 -0.032623 -0.023914
v 0.007631 -0.062623 0.006086
v 0.037631 -0.062623 0.006086
v 0.037631 -0.032623 0.006086
v 0.007631 -0.032623 0.006086
v -0.020521 -0.092323 -0.002577
v 0.009479 -0.092323 -0.002577
v 0.009479 -0.062323 -0.002577
v -0.020521 -0.062323 -0.002577
v -0.020521 -0.092323 0.027423
v 0.009479 -0.092323 0.027423
v 0.009479 -0.062323 0.027423
v -0.020521 -0.062323 0.027423
v -0.007818 -0.103849 -0.023426
v 0.022182 -0.103849 -0.023426
v 0.022182 -0.073849 -0.023426
v -0.007818 -0.073849 -0.023426
v -0.007818 -0.103849 0.006574
v 0.022182 -0.103849 0.006574
v 0.022182 -0.073849 0.006574
v -0.007818 -0.073849 0.006574
v -0.002934 -0.087112 -0.039499
v 0.027066 -0.087112 -0.039499
v 0.027066 -0.057112 -0.039499
v -0.002934 -0.057112 -0.039499
v -0.002934 -0.087112 -0.009499
v 0.027066 -0.087112 -0.009499
v 0.027066 -0.057112 -0.009499
v -0.002934 -0.057112 -0.009499
v -0.009408 -0.070989 -0.030789
v 0.020592 -0.070989 -0.030789
v 0.020592 -0.040989 -0.030789
v -0.009408 -0.040989 -0.030789
v -0.009408 -0.070989 -0.000789
v 0.020592 -0.070989 -0.000789
v 0.020592 -0.040989 -0.000789
v -0.009408 -0.040989 -0.000789
f 1 2 9
f 2 10 9
f 2 3 10
f 3 11 10
f 3 4 11
f 4 12 11
f 4 5 12
f 5 13 12
f 5 6 13
f 6 14 13
f 6 7 14
f 7 15 14
f 7 8 15
f 8 16 15
f 8 1 16
f 1 9 16
f 17 18 25
f 18 26 25
f 18 19 26
f 19 27 26
f 19 20 27
f 20 28 27
f 20 21 28
f 21 29 28
f 21 22 29
f 22 30 29
f 22 23 30
f 23 31 30
f 23 24 31
f 24 32 31
f 24 17 32
f 17 25 32
f 33 34 41
f 34 42 41
f 34 35 42
f 35 43 42
f 35 36 43
f 36 44 43
f 36 37 44
f 37 45 44
f 37 38 45
f 38 46 45
f 38 39 46
f 39 47 46
f 39 40 47
f 40 48 47
f 40 33 48
f 33 41 48
f 49 50 57
f 50 58 57
f 50 51 58
f 51 59 58
f 51 52 59
f 52 60 59
f 52 53 60
f 53 61 60
f 53 54 61
f 54 62 61
f 54 55 62
f 55 63 62
f 55 56 63
f 56 64 63
f 56 49 64
f 49 57 64
f 65 66 73
f 66 74 73
f 66 67 74
f 67 75 74
f 67 68 75
f 68 76 75
f 68 69 76
f 69 77 76
f 69 70 77
f 70 78 77
f 70 71 78
f 71 79 78
f 71 72 79
f 72 80 79
f 72 65 80
f 65 73 80
f 81 82 89
f 82 90 89
f 82 83 90
f 83 91 90
f 83 84 91
f 84 92 91
f 84 85 92
f 85 93 92
f 85 86 93
f 86 94 93
f 86 87 94
f 87 95 94
f 87 88 95
f 88 96 95
f 88 81 96
f 81 89 96
f 97 98 105
f 98 106 105
f 98 99 106
f 99 107 106
f 99 100 107
f 100 108 107
f 100 101 108
f 101 109 108
f 101 102 109
f 102 110 109
f 102 103 110
f 103 111 110
f 103 104 111
f 104 112 111
f 104 97 112
f 97 105 112
f 113 114 121
f 114 122 121
f 114 115 122
f 115 123 122
f 115 116 123
f 116 124 123
f 116 117 124
f 117 125 124
f 117 118 125
f 118 126 125
f 118 119 126
f 119 127 126
f 119 120 127
f 120 128 127
f 120 113 128
f 113 121 128
f 129 130 137
f 130 138 137
f 130 131 138
f 131 139 138
f 131 132 139
f 132 140 139
f 132 133 140
f 133 141 140
f 133 134 141
f 134 142 141
f 134 135 142
f 135 143 142
f 135 136 143
f 136 144 143
f 136 129 144
f 129 137 144
f 145 146 153
f 146 154 153
f 146 147 154
f 147 155 154
f 147 148 155
f 148 156 155
f 148 149 156
f 149 157 156
f 149 150 157
f 150 158 157
f 150 151 158
f 151 159 158
f 151 152 159
f 152 160 159
f 152 145 160
f 145 153 160
f 161 162 169
f 162 170 169
f 162 163 170
f 163 171 170
f 163 164 171
f 164 172 171
f 164 165 172
f 165 173 172
f 165 166 173
f 166 174 173
f 166 167 174
f 167 175 174
f 167 168 175
f 168 176 175
f 168 161 176
f 161 169 176
f 177 178 185
f 178 186 185
f 178 179 186
f 179 187 186
f 179 180 187
f 180 188 187
f 180 181 188
f 181 189 188
f 181 182 189
f 182 190 189
f 182 183 190
f 183 191 190
f 183 184 191
f 184 192 191
f 184 177 192
f 177 185 192
f 193 194 201
f 194 202 201
f 194 195 202
f 195 203 202
f 195 196 203
f 196 204 203
f 196 197 204
f 197 205 204
f 197 198 205
f 198 206 205
f 198 199 206
f 199 207 206
f 199 200 207
f 200 208 207
f 200 193 208
f 193 201 208
f 209 210 217
f 210 218 217
f 210 211 218
f 211 219 218
f 211 212 219
f 212 220 219
f 212 213 220
f 213 221 220
f 213 214 221
f 214 222 221
f 214 215 222
f 215 223 222
f 215 216 223
f 216 224 223
f 216 209 224
f 209 217 224
f 225 226 233
f 226 234 233
f 226 227 234
f 227 235 234
f 227 228 235
f 228 236 235
f 228 229 236
f 229 237 236
f 229 230 237
f 230 238 237
f 230 231 238
f 231 239 238
f 231 232 239
f 232 240 239
f 232 225 240
f 225 233 240
f 241 242 249
f 242 250 249
f 242 243 250
f 243 251 250
f 243 244 251
f 244 252 251
f 244 245 252
f 245 253 252
f 245 246 253
f 246 254 253
f 246 247 254
f 247 255 254
f 247 248 255
f 248 256 255
f 248 241 256
f 241 249 256
f 257 258 265
f 258 266 265
f 258 259 266
f 259 267 266
f 259 260 267
f 260 268 267
f 260 261 268
f 261 269 268
f 261 262 269
f 262 270 269
f 262 263 270
f 263 271 270
f 263 264 271
f 264 272 271
f 264 257 272
f 257 265 272
f 273 274 281
f 274 282 281
f 274 275 282
f 275 283 282
f 275 276 283
f 276 284 283
f 276 277 284
f 277 285 284
f 277 278 285
f 278 286 285
f 278 279 286
f 279 287 286
f 279 280 287
f 280 288 287
f 280 273 288
f 273 281 288
f 289 290 297
f 290 298 297
f 290 291 298
f 291 299 298
f 291 292 299
f 292 300 299
f 292 293 300
f 293 301 300
f 293 294 301
f 294 302 301
f 294 295 302
f 295 303 302
f 295 296 303
f 296 304 303
f 296 289 304
f 289 297 304
f 305 306 313
f 306 314 313
f 306 307 314
f 307 315 314
f 307 308 315
f 308 316 315
f 308 309 316
f 309 317 316
f 309 310 317
f 310 318 317
f 310 311 318
f 311 319 318
f 311 312 319
f 312 320 319
f 312 305 320
f 305 313 320
f 321 322 323
f 321 323 324
f 325 326 327
f 325 327 328
f 321 325 326
f 321 326 322
f 322 326 327
f 322 327 323
f 323 327 328
f 323 328 324
f 324 328 325
f 324 325 321
f 329 330 331
f 329 331 332
f 333 334 335
f 333 335 336
f 329 333 334
f 329 334 330
f 330 334 335
f 330 335 331
f 331 335 336
f 331 336 332
f 332 336 333
f 332 333 329
f 337 338 339
f 337 339 340
f 341 342 343
f 341 343 344
f 337 341 342
f 337 342 338
f 338 342 343
f 338 343 339
f 339 343 344
f 339 344 340
f 340 344 341
f 340 341 337
f 345 346 347
f 345 347 348
f 349 350 351
f 349 351 352
f 345 349 350
f 345 350 346
f 346 350 351
f 346 351 347
f 347 351 352
f 347 352 348
f 348 352 349
f 348 349 345
f 353 354 355
f 353 355 356
f 357 358 359
f 357 359 360
f 353 357 358
f 353 358 354
f 354 358 359
f 354 359 355
f 355 359 360
f 355 360 356
f 356 360 357
f 356 357 353
f 361 362 363
f 361 363 364
f 365 366 367
f 365 367 368
f 361 365 366
f 361 366 362
f 362 366 367
f 362 367 363
f 363 367 368
f 363 368 364
f 364 368 365
f 364 365 361
f 369 370 371
f 369 371 372
f 373 374 375
f 373 375 376
f 369 373 374
f 369 374 370
f 370 374 375
f 370 375 371
f 371 375 376
f 371 376 372
f 372 376 373
f 372 373 369
f 377 378 379
f 377 379 380
f 381 382 383
f 381 383 384
f 377 381 382
f 377 382 378
f 378 382 383
f 378 383 379
f 379 383 384
f 379 384 380
f 380 384 381
f 380 381 377
f 385 386 387
f 385 387 388
f 389 390 391
f 389 391 392
f 385 389 390
f 385 390 386
f 386 390 391
f 386 391 387
f 387 391 392
f 387 392 388
f 388 392 389
f 388 389 385
f 393 394 395
f 393 395 396
f 397 398 399
f 397 399 400
f 393 397 398
f 393 398 394
f 394 398 399
f 394 399 395
f 395 399 400
f 395 400 396
f 396 400 397
f 396 397 393
f 401 402 403
f 401 403 404
f 405 406 407
f 405 407 408
f 401 405 406
f 401 406 402
f 402 406 407
f 402 407 403
f 403 407 408
f 403 408 404
f 404 408 405
f 404 405 401
f 409 410 411
f 409 411 412
f 413 414 415
f 413 415 416
f 409 413 414
f 409 414 410
f 410 414 415
f 410 415 411
f 411 415 416
f 411 416 412
f 412 416 413
f 412 413 409
f 417 418 419
f 417 419 420
f 421 422 423
f 421 423 424
f 417 421 422
f 417 422 418
f 418 422 423
f 418 423 419
f 419 423 424
f 419 424 420
f 420 424 421
f 420 421 417
f 425 426 427
f 425 427 428
f 429 430 431
f 429 431 432
f 425 429 430
f 425 430 426
f 426 430 431
f 426 431 427
f 427 431 432
f 427 432 428
f 428 432 429
f 428 429 425
f 433 434 435
f 433 435 436
f 437 438 439
f 437 439 440
f 433 437 438
f 433 438 434
f 434 438 439
f 434 439 435
f 435 439 440
f 435 440 436
f 436 440 437
f 436 437 433
f 441 442 443
f 441 443 444
f 445 446 447
f 445 447 448
f 441 445 446
f 441 446 442
f 442 446 447
f 442 447 443
f 443 447 448
f 443 448 444
f 444 448 445
f 444 445 441
f 449 450 451
f 449 451 452
f 453 454 455
f 453 455 456
f 449 453 454
f 449 454 450
f 450 454 455
f 450 455 451
f 451 455 456
f 451 456 452
f 452 456 453
f 452 453 449
f 457 458 459
f 457 459 460
f 461 462 463
f 461 463 464
f 457 461 462
f 457 462 458
f 458 462 463
f 458 463 459
f 459 463 464
f 459 464 460
f 460 464 461
f 460 461 457
f 465 466 467
f 465 467 468
f 469 470 471
f 469 471 472
f 465 469 470
f 465 470 466
f 466 470 471
f 466 471 467
f 467 471 472
f 467 472 468
f 468 472 469
f 468 469 465
f 473 474 475
f 473 475 476
f 477 478 479
f 477 479 480
f 473 477 478
f 473 478 474
f 474 478 479
f 474 479 475
f 475 479 480
f 475 480 476
f 476 480 477
f 476 477 473
f 481 482 483
f 481 483 484
f 485 486 487
f 485 487 488
f 481 485 486
f 481 486 482
f 482 486 487
f 482 487 483
f 483 487 488
f 483 488 484
f 484 488 485
f 484 485 481
