# SignFlow 3D Hand Mesh - Frame 181
v 0.008383 0.000000 0.018158
v 0.005254 -0.014123 0.013151
v -0.000953 -0.019972 0.000440
v -0.006602 -0.014123 -0.012529
v -0.008383 -0.000000 -0.018158
v -0.005254 0.014123 -0.013151
v 0.000953 0.019972 -0.000440
v 0.006602 0.014123 0.012529
v 0.037666 -0.001695 0.004639
v 0.034536 -0.015818 -0.000368
v 0.028330 -0.021668 -0.013079
v 0.022681 -0.015818 -0.026048
v 0.020899 -0.001695 -0.031677
v 0.024029 0.012427 -0.026670
v 0.030236 0.018277 -0.013959
v 0.035884 0.012427 -0.000990
v 0.034979 -0.001695 0.005653
v 0.032082 -0.015779 0.000403
v 0.027545 -0.021613 -0.013002
v 0.024025 -0.015779 -0.026710
v 0.023586 -0.001695 -0.032690
v 0.026483 0.012389 -0.027440
v 0.031021 0.018222 -0.014035
v 0.034540 0.012389 -0.000328
v 0.060186 -0.004089 -0.001838
v 0.057288 -0.018173 -0.007088
v 0.052751 -0.024007 -0.020493
v 0.049232 -0.018173 -0.034200
v 0.048792 -0.004089 -0.040181
v 0.051690 0.009995 -0.034931
v 0.056227 0.015829 -0.021525
v 0.059746 0.009995 -0.007818
v 0.054489 -0.016697 -0.005484
v 0.045381 -0.021402 -0.016851
v 0.041608 -0.015965 -0.030654
v 0.045381 -0.003571 -0.038807
v 0.054489 0.008519 -0.036534
v 0.063598 0.013224 -0.025167
v 0.067370 0.007787 -0.011364
v 0.063598 -0.004606 -0.003211
v 0.079092 -0.032777 -0.018542
v 0.069983 -0.037482 -0.029909
v 0.066210 -0.032045 -0.043712
v 0.069983 -0.019651 -0.051865
v 0.079092 -0.007560 -0.049593
v 0.088200 -0.002855 -0.038226
v 0.091973 -0.008292 -0.024423
v 0.088200 -0.020686 -0.016270
v 0.079092 -0.025262 -0.014727
v 0.068054 -0.032321 -0.022644
v 0.063483 -0.032261 -0.037252
v 0.068054 -0.025117 -0.049995
v 0.079092 -0.015075 -0.053408
v 0.090129 -0.008016 -0.045491
v 0.094701 -0.008076 -0.030883
v 0.090129 -0.015220 -0.018140
v 0.093878 -0.043111 -0.019428
v 0.082840 -0.050169 -0.027344
v 0.078269 -0.050109 -0.041953
v 0.082840 -0.042966 -0.054696
v 0.093878 -0.032923 -0.058109
v 0.104915 -0.025865 -0.050192
v 0.109487 -0.025925 -0.035584
v 0.104915 -0.033069 -0.022841
v 0.000000 -0.017209 0.010190
v -0.010125 -0.017199 -0.001290
v -0.014319 -0.007114 -0.012015
v -0.010125 0.007138 -0.015701
v -0.000000 0.017209 -0.010190
v 0.010125 0.017199 0.001290
v 0.014319 0.007114 0.012015
v 0.010125 -0.007138 0.015701
v 0.059347 -0.048218 -0.042177
v 0.049222 -0.048209 -0.053658
v 0.045028 -0.038124 -0.064382
v 0.049222 -0.023871 -0.068069
v 0.059347 -0.013800 -0.062558
v 0.069472 -0.013810 -0.051078
v 0.073666 -0.023895 -0.040353
v 0.069472 -0.038147 -0.036666
v 0.059347 -0.037356 -0.033402
v 0.046517 -0.041139 -0.040845
v 0.041203 -0.038988 -0.055038
v 0.046517 -0.032163 -0.067667
v 0.059347 -0.024662 -0.071334
v 0.072176 -0.020879 -0.063891
v 0.077491 -0.023030 -0.049697
v 0.072176 -0.029855 -0.037068
v 0.067528 -0.054087 -0.039001
v 0.054699 -0.057870 -0.046444
v 0.049384 -0.055719 -0.060637
v 0.054699 -0.048894 -0.073266
v 0.067528 -0.041392 -0.076933
v 0.080358 -0.037609 -0.069490
v 0.085672 -0.039761 -0.055297
v 0.080358 -0.046586 -0.042668
v 0.067528 -0.052954 -0.038659
v 0.053424 -0.052425 -0.044584
v 0.047582 -0.049152 -0.058348
v 0.053424 -0.045051 -0.071890
v 0.067528 -0.042525 -0.077275
v 0.081633 -0.043054 -0.071350
v 0.087475 -0.046327 -0.057585
v 0.081633 -0.050428 -0.044044
v 0.068634 -0.067507 -0.042589
v 0.054530 -0.066978 -0.048514
v 0.048687 -0.063705 -0.062278
v 0.054530 -0.059604 -0.075820
v 0.068634 -0.057078 -0.081205
v 0.082738 -0.057607 -0.075280
v 0.088580 -0.060880 -0.061516
v 0.082738 -0.064981 -0.047974
v 0.068634 -0.078907 -0.050763
v 0.054494 -0.073906 -0.053823
v 0.048637 -0.062102 -0.061613
v 0.054494 -0.050410 -0.069569
v 0.068634 -0.045678 -0.073031
v 0.082774 -0.050679 -0.069971
v 0.088631 -0.062483 -0.062181
v 0.082774 -0.074175 -0.054225
v 0.068128 -0.095386 -0.075353
v 0.053988 -0.090385 -0.078414
v 0.048131 -0.078582 -0.086204
v 0.053988 -0.066889 -0.094160
v 0.068128 -0.062158 -0.097622
v 0.082268 -0.067158 -0.094561
v 0.088125 -0.078962 -0.086771
v 0.082268 -0.090654 -0.078815
v 0.000000 -0.016923 0.010659
v -0.011598 -0.016279 0.000689
v -0.016402 -0.006100 -0.009684
v -0.011598 0.007653 -0.014385
v -0.000000 0.016923 -0.010659
v 0.011598 0.016279 -0.000689
v 0.016402 0.006100 0.009684
v 0.011598 -0.007653 0.014385
v 0.044859 -0.051185 -0.043737
v 0.033262 -0.050541 -0.053707
v 0.028458 -0.040362 -0.064080
v 0.033262 -0.026609 -0.068781
v 0.044859 -0.017339 -0.065055
v 0.056457 -0.017983 -0.055085
v 0.061261 -0.028162 -0.044712
v 0.056457 -0.041915 -0.040011
v 0.044859 -0.040187 -0.035294
v 0.033984 -0.047087 -0.043567
v 0.029480 -0.046473 -0.058184
v 0.033984 -0.038707 -0.070582
v 0.044859 -0.028336 -0.073498
v 0.055735 -0.021437 -0.065225
v 0.060239 -0.022051 -0.050608
v 0.055735 -0.029817 -0.038210
v 0.065346 -0.063725 -0.042595
v 0.054471 -0.070624 -0.050869
v 0.049967 -0.070011 -0.065485
v 0.054471 -0.062244 -0.077883
v 0.065346 -0.051874 -0.080799
v 0.076221 -0.044975 -0.072526
v 0.080726 -0.045589 -0.057909
v 0.076221 -0.053355 -0.045512
v 0.065346 -0.075493 -0.052372
v 0.052601 -0.073168 -0.060526
v 0.047322 -0.061842 -0.069366
v 0.052601 -0.048147 -0.073714
v 0.065346 -0.040107 -0.071023
v 0.078091 -0.042431 -0.062869
v 0.083370 -0.053758 -0.054029
v 0.078091 -0.067453 -0.049681
v 0.077335 -0.087116 -0.074425
v 0.064590 -0.084792 -0.082578
v 0.059311 -0.073465 -0.091418
v 0.064590 -0.059771 -0.095767
v 0.077335 -0.051731 -0.093076
v 0.090080 -0.054055 -0.084922
v 0.095359 -0.065382 -0.076082
v 0.090080 -0.079076 -0.071734
v 0.081457 -0.069423 -0.064180
v 0.075989 -0.082879 -0.069014
v 0.071310 -0.088452 -0.082481
v 0.070160 -0.082879 -0.096691
v 0.073213 -0.069423 -0.103321
v 0.078681 -0.055968 -0.098486
v 0.083361 -0.050395 -0.085019
v 0.084511 -0.055968 -0.070809
v 0.102922 -0.076522 -0.068701
v 0.097454 -0.089977 -0.073535
v 0.092774 -0.095550 -0.087002
v 0.091624 -0.089977 -0.101212
v 0.094677 -0.076522 -0.107842
v 0.100145 -0.063067 -0.103007
v 0.104825 -0.057493 -0.089541
v 0.105975 -0.063067 -0.075330
v 0.000000 -0.017217 0.010177
v -0.012697 -0.015343 0.001836
v -0.017957 -0.004481 -0.007581
v -0.012697 0.009005 -0.012557
v -0.000000 0.017217 -0.010177
v 0.012697 0.015343 -0.001836
v 0.017957 0.004481 0.007581
v 0.012697 -0.009005 0.012557
v 0.032057 -0.050481 -0.046093
v 0.019360 -0.048607 -0.054435
v 0.014100 -0.037745 -0.063852
v 0.019360 -0.024258 -0.068828
v 0.032057 -0.016047 -0.066448
v 0.044755 -0.017921 -0.058107
v 0.050014 -0.028782 -0.048690
v 0.044755 -0.042269 -0.043714
v 0.032057 -0.042804 -0.038693
v 0.019530 -0.045777 -0.046971
v 0.014340 -0.041420 -0.060697
v 0.019530 -0.032285 -0.071830
v 0.032057 -0.023724 -0.073849
v 0.044585 -0.020751 -0.065570
v 0.049774 -0.025108 -0.051844
v 0.044585 -0.034242 -0.040711
v 0.042893 -0.060986 -0.048561
v 0.030365 -0.063959 -0.056839
v 0.025176 -0.059602 -0.070565
v 0.030365 -0.050468 -0.081699
v 0.042893 -0.041906 -0.083717
v 0.055421 -0.038933 -0.075439
v 0.060610 -0.043290 -0.061713
v 0.055421 -0.052425 -0.050579
v 0.042893 -0.071442 -0.066531
v 0.031312 -0.065427 -0.074531
v 0.026515 -0.051221 -0.077615
v 0.031312 -0.037148 -0.073976
v 0.042893 -0.031450 -0.065747
v 0.054474 -0.037466 -0.057747
v 0.059271 -0.051671 -0.054663
v 0.054474 -0.065745 -0.058302
v 0.054341 -0.071122 -0.082862
v 0.042759 -0.065106 -0.090862
v 0.037962 -0.050901 -0.093946
v 0.042759 -0.036827 -0.090307
v 0.054341 -0.031130 -0.082078
v 0.065922 -0.037146 -0.074078
v 0.070719 -0.051351 -0.070994
v 0.065922 -0.065425 -0.074633
v 0.054341 -0.066056 -0.069163
v 0.046631 -0.069572 -0.081911
v 0.043438 -0.062282 -0.094987
v 0.046631 -0.048457 -0.100731
v 0.054341 -0.036196 -0.095777
v 0.062050 -0.032680 -0.083029
v 0.065243 -0.039970 -0.069953
v 0.062050 -0.053795 -0.064210
v 0.073382 -0.074294 -0.078406
v 0.065672 -0.077810 -0.091154
v 0.062479 -0.070520 -0.104230
v 0.065672 -0.056695 -0.109973
v 0.073382 -0.044433 -0.105020
v 0.081091 -0.040918 -0.092272
v 0.084284 -0.048208 -0.079196
v 0.081091 -0.062033 -0.073452
v 0.000000 -0.017206 0.010196
v -0.013965 -0.013305 0.005289
v -0.019749 -0.001610 -0.002716
v -0.013965 0.011028 -0.009130
v -0.000000 0.017206 -0.010196
v 0.013965 0.013305 -0.005289
v 0.019749 0.001610 0.002716
v 0.013965 -0.011028 0.009130
v 0.010218 -0.049787 -0.044785
v -0.003747 -0.045886 -0.049692
v -0.009531 -0.034191 -0.057698
v -0.003747 -0.021553 -0.064112
v 0.010218 -0.015375 -0.065177
v 0.024183 -0.019277 -0.060270
v 0.029967 -0.030971 -0.052265
v 0.024183 -0.043609 -0.045851
v 0.010218 -0.036451 -0.035359
v -0.003816 -0.037031 -0.041444
v -0.009629 -0.035005 -0.055459
v -0.003816 -0.031559 -0.069194
v 0.010218 -0.028712 -0.074603
v 0.024252 -0.028131 -0.068518
v 0.030065 -0.030158 -0.054503
v 0.024252 -0.033604 -0.040768
v 0.012293 -0.052806 -0.038584
v -0.001741 -0.053386 -0.044669
v -0.007554 -0.051360 -0.058684
v -0.001741 -0.047914 -0.072419
v 0.012293 -0.045067 -0.077829
v 0.026327 -0.044486 -0.071743
v 0.032140 -0.046512 -0.057728
v 0.026327 -0.049958 -0.043994
v 0.012293 -0.065519 -0.047026
v -0.001090 -0.063216 -0.054089
v -0.006634 -0.052549 -0.063564
v -0.001090 -0.039765 -0.069901
v 0.012293 -0.032353 -0.069387
v 0.025677 -0.034656 -0.062324
v 0.031220 -0.045324 -0.052848
v 0.025677 -0.058108 -0.046512
v 0.016703 -0.072740 -0.057736
v 0.003319 -0.070437 -0.064799
v -0.002224 -0.059769 -0.074274
v 0.003319 -0.046985 -0.080611
v 0.016703 -0.039574 -0.080097
v 0.030087 -0.041877 -0.073033
v 0.035630 -0.052544 -0.063558
v 0.030087 -0.065328 -0.057222
v 0.016703 -0.076118 -0.067664
v 0.004670 -0.070736 -0.075446
v -0.000315 -0.056815 -0.079402
v 0.004670 -0.042508 -0.077217
v 0.016703 -0.036196 -0.070168
v 0.028736 -0.041577 -0.062387
v 0.033721 -0.055499 -0.058430
v 0.028736 -0.069806 -0.060616
v 0.025732 -0.077033 -0.082260
v 0.013699 -0.071652 -0.090041
v 0.008715 -0.057730 -0.093998
v 0.013699 -0.043423 -0.091812
v 0.025732 -0.037112 -0.084764
v 0.037766 -0.042493 -0.076983
v 0.042750 -0.056415 -0.073026
v 0.037766 -0.070722 -0.075212
v -0.015000 -0.015000 -0.015000
v 0.015000 -0.015000 -0.015000
v 0.015000 0.015000 -0.015000
v -0.015000 0.015000 -0.015000
v -0.015000 -0.015000 0.015000
v 0.015000 -0.015000 0.015000
v 0.015000 0.015000 0.015000
v -0.015000 0.015000 0.015000
v 0.014283 -0.016695 -0.028519
v 0.044283 -0.016695 -0.028519
v 0.044283 0.013305 -0.028519
v 0.014283 0.013305 -0.028519
v 0.014283 -0.016695 0.001481
v 0.044283 -0.016695 0.001481
v 0.044283 0.013305 0.001481
v 0.014283 0.013305 0.001481
v 0.039489 -0.019089 -0.036009
v 0.069489 -0.019089 -0.036009
v 0.069489 0.010911 -0.036009
v 0.039489 0.010911 -0.036009
v 0.039489 -0.019089 -0.006009
v 0.069489 -0.019089 -0.006009
v 0.069489 0.010911 -0.006009
v 0.039489 0.010911 -0.006009
v 0.064092 -0.035168 -0.049067
v 0.094092 -0.035168 -0.049067
v 0.094092 -0.005168 -0.049067
v 0.064092 -0.005168 -0.049067
v 0.064092 -0.035168 -0.019067
v 0.094092 -0.035168 -0.019067
v 0.094092 -0.005168 -0.019067
v 0.064092 -0.005168 -0.019067
v 0.078878 -0.053017 -0.053768
v 0.108878 -0.053017 -0.053768
v 0.108878 -0.023017 -0.053768
v 0.078878 -0.023017 -0.053768
v 0.078878 -0.053017 -0.023768
v 0.108878 -0.053017 -0.023768
v 0.108878 -0.023017 -0.023768
v 0.078878 -0.023017 -0.023768
v 0.044347 -0.046009 -0.067368
v 0.074347 -0.046009 -0.067368
v 0.074347 -0.016009 -0.067368
v 0.044347 -0.016009 -0.067368
v 0.044347 -0.046009 -0.037368
v 0.074347 -0.046009 -0.037368
v 0.074347 -0.016009 -0.037368
v 0.044347 -0.016009 -0.037368
v 0.052528 -0.062740 -0.072967
v 0.082528 -0.062740 -0.072967
v 0.082528 -0.032740 -0.072967
v 0.052528 -0.032740 -0.072967
v 0.052528 -0.062740 -0.042967
v 0.082528 -0.062740 -0.042967
v 0.082528 -0.032740 -0.042967
v 0.052528 -0.032740 -0.042967
v 0.053634 -0.077292 -0.076897
v 0.083634 -0.077292 -0.076897
v 0.083634 -0.047292 -0.076897
v 0.053634 -0.047292 -0.076897
v 0.053634 -0.077292 -0.046897
v 0.083634 -0.077292 -0.046897
v 0.083634 -0.047292 -0.046897
v 0.053634 -0.047292 -0.046897
v 0.053128 -0.093772 -0.101487
v 0.083128 -0.093772 -0.101487
v 0.083128 -0.063772 -0.101487
v 0.053128 -0.063772 -0.101487
v 0.053128 -0.093772 -0.071487
v 0.083128 -0.093772 -0.071487
v 0.083128 -0.063772 -0.071487
v 0.053128 -0.063772 -0.071487
v 0.029859 -0.049262 -0.069396
v 0.059859 -0.049262 -0.069396
v 0.059859 -0.019262 -0.069396
v 0.029859 -0.019262 -0.069396
v 0.029859 -0.049262 -0.039396
v 0.059859 -0.049262 -0.039396
v 0.059859 -0.019262 -0.039396
v 0.029859 -0.019262 -0.039396
v 0.050346 -0.072800 -0.076697
v 0.080346 -0.072800 -0.076697
v 0.080346 -0.042800 -0.076697
v 0.050346 -0.042800 -0.076697
v 0.050346 -0.072800 -0.046697
v 0.080346 -0.072800 -0.046697
v 0.080346 -0.042800 -0.046697
v 0.050346 -0.042800 -0.046697
v 0.062335 -0.084423 -0.098750
v 0.092335 -0.084423 -0.098750
v 0.092335 -0.054423 -0.098750
v 0.062335 -0.054423 -0.098750
v 0.062335 -0.084423 -0.068750
v 0.092335 -0.084423 -0.068750
v 0.092335 -0.054423 -0.068750
v 0.062335 -0.054423 -0.068750
v 0.083800 -0.091522 -0.103271
v 0.113800 -0.091522 -0.103271
v 0.113800 -0.061522 -0.103271
v 0.083800 -0.061522 -0.103271
v 0.083800 -0.091522 -0.073271
v 0.113800 -0.091522 -0.073271
v 0.113800 -0.061522 -0.073271
v 0.083800 -0.061522 -0.073271
v 0.017057 -0.048264 -0.071271
v 0.047057 -0.048264 -0.071271
v 0.047057 -0.018264 -0.071271
v 0.017057 -0.018264 -0.071271
v 0.017057 -0.048264 -0.041271
v 0.047057 -0.048264 -0.041271
v 0.047057 -0.018264 -0.041271
v 0.017057 -0.018264 -0.041271
v 0.027893 -0.066446 -0.081139
v 0.057893 -0.066446 -0.081139
v 0.057893 -0.036446 -0.081139
v 0.027893 -0.036446 -0.081139
v 0.027893 -0.066446 -0.051139
v 0.057893 -0.066446 -0.051139
v 0.057893 -0.036446 -0.051139
v 0.027893 -0.036446 -0.051139
v 0.039341 -0.066126 -0.097470
v 0.069341 -0.066126 -0.097470
v 0.069341 -0.036126 -0.097470
v 0.039341 -0.036126 -0.097470
v 0.039341 -0.066126 -0.067470
v 0.069341 -0.066126 -0.067470
v 0.069341 -0.036126 -0.067470
v 0.039341 -0.036126 -0.067470
v 0.058382 -0.074364 -0.106713
v 0.088382 -0.074364 -0.106713
v 0.088382 -0.044364 -0.106713
v 0.058382 -0.044364 -0.106713
v 0.058382 -0.074364 -0.076713
v 0.088382 -0.074364 -0.076713
v 0.088382 -0.044364 -0.076713
v 0.058382 -0.044364 -0.076713
v -0.004782 -0.047581 -0.069981
v 0.025218 -0.047581 -0.069981
v 0.025218 -0.017581 -0.069981
v -0.004782 -0.017581 -0.069981
v -0.004782 -0.047581 -0.039981
v 0.025218 -0.047581 -0.039981
v 0.025218 -0.017581 -0.039981
v -0.004782 -0.017581 -0.039981
v -0.002707 -0.063936 -0.073206
v 0.027293 -0.063936 -0.073206
v 0.027293 -0.033936 -0.073206
v -0.002707 -0.033936 -0.073206
v -0.002707 -0.063936 -0.043206
v 0.027293 -0.063936 -0.043206
v 0.027293 -0.033936 -0.043206
v -0.002707 -0.033936 -0.043206
v 0.001703 -0.071157 -0.083916
v 0.031703 -0.071157 -0.083916
v 0.031703 -0.041157 -0.083916
v 0.001703 -0.041157 -0.083916
v 0.001703 -0.071157 -0.053916
v 0.031703 -0.071157 -0.053916
v 0.031703 -0.041157 -0.053916
v 0.001703 -0.041157 -0.053916
v 0.010732 -0.072073 -0.098512
v 0.040732 -0.072073 -0.098512
v 0.040732 -0.042073 -0.098512
v 0.010732 -0.042073 -0.098512
v 0.010732 -0.072073 -0.068512
v 0.040732 -0.072073 -0.068512
v 0.040732 -0.042073 -0.068512
v 0.010732 -0.042073 -0.068512
v 0.000000 -0.013299 -0.014938
v -0.006628 -0.000073 -0.018870
v -0.009373 0.013196 -0.011748
v -0.006628 0.018735 0.002256
v -0.000000 0.013299 0.014938
v 0.006628 0.000073 0.018870
v 0.009373 -0.013196 0.011748
v 0.006628 -0.018735 -0.002256
v 0.028504 -0.002004 -0.024993
v 0.021876 0.011222 -0.028925
v 0.019131 0.024491 -0.021803
v 0.021876 0.030029 -0.007799
v 0.028504 0.024593 0.004883
v 0.035132 0.011367 0.008815
v 0.037877 -0.001901 0.001693
v 0.035132 -0.007440 -0.012311
v 0.033836 0.011295 0.009221
v 0.036070 -0.002288 0.002525
v 0.033873 -0.007914 -0.011540
v 0.028530 -0.002288 -0.024736
v 0.023173 0.011295 -0.029332
v 0.020938 0.024877 -0.022636
v 0.023136 0.030503 -0.008570
v 0.028478 0.024877 0.004625
v 0.063026 0.020077 0.001147
v 0.065261 0.006494 -0.005548
v 0.063063 0.000868 -0.019614
v 0.057721 0.006494 -0.032809
v 0.052363 0.020077 -0.037405
v 0.050129 0.033659 -0.030709
v 0.052326 0.039286 -0.016644
v 0.057669 0.033659 -0.003449
v 0.064096 0.020077 0.000819
v 0.061700 0.005945 -0.004555
v 0.056958 0.000092 -0.017880
v 0.052647 0.005945 -0.031351
v 0.051293 0.020077 -0.037077
v 0.053689 0.034208 -0.031703
v 0.058431 0.040062 -0.018378
v 0.062742 0.034208 -0.004907
v 0.088801 0.019062 -0.007527
v 0.086406 0.004931 -0.012901
v 0.081664 -0.000923 -0.026226
v 0.077353 0.004931 -0.039698
v 0.075999 0.019062 -0.045423
v 0.078395 0.033194 -0.040049
v 0.083137 0.039047 -0.026724
v 0.087447 0.033194 -0.013253
v 0.082400 0.000338 -0.019447
v 0.073359 0.002001 -0.031686
v 0.069613 0.013658 -0.040873
v 0.073359 0.028481 -0.041626
v 0.082400 0.037787 -0.033504
v 0.091442 0.036124 -0.021264
v 0.095187 0.024467 -0.012078
v 0.091442 0.009644 -0.011325
v 0.107125 -0.006886 -0.038693
v 0.098083 -0.005224 -0.050933
v 0.094338 0.006434 -0.060120
v 0.098083 0.021257 -0.060872
v 0.107125 0.030562 -0.052750
v 0.116167 0.028899 -0.040511
v 0.119912 0.017242 -0.031324
v 0.116167 0.002419 -0.030571
v 0.000000 -0.019955 -0.001344
v -0.010941 -0.013508 -0.009890
v -0.015473 0.000851 -0.012643
v -0.010941 0.014712 -0.007990
v -0.000000 0.019955 0.001344
v 0.010941 0.013508 0.009890
v 0.015473 -0.000851 0.012643
v 0.010941 -0.014712 0.007990
v 0.052758 -0.015627 -0.065618
v 0.041817 -0.009181 -0.074165
v 0.037285 0.005179 -0.076918
v 0.041817 0.019040 -0.072265
v 0.052758 0.024282 -0.062931
v 0.063699 0.017836 -0.054384
v 0.068231 0.003476 -0.051631
v 0.063699 -0.010385 -0.056284
v 0.052758 -0.015391 -0.060932
v 0.041662 -0.011081 -0.070555
v 0.037065 0.002255 -0.076499
v 0.041662 0.016805 -0.075283
v 0.052758 0.024046 -0.067617
v 0.063854 0.019736 -0.057994
v 0.068450 0.006400 -0.052049
v 0.063854 -0.008150 -0.053266
v 0.065289 -0.018042 -0.076567
v 0.054192 -0.013732 -0.086191
v 0.049596 -0.000396 -0.092135
v 0.054192 0.014155 -0.090918
v 0.065289 0.021396 -0.083253
v 0.076385 0.017086 -0.073629
v 0.080981 0.003749 -0.067685
v 0.076385 -0.010801 -0.068902
v 0.073366 0.001677 -0.061614
v 0.070589 -0.012458 -0.066791
v 0.064707 -0.018313 -0.079653
v 0.059165 -0.012458 -0.092666
v 0.057211 0.001677 -0.098206
v 0.059988 0.015812 -0.093029
v 0.065870 0.021667 -0.080167
v 0.071412 0.015812 -0.067154
v 0.086127 0.001233 -0.067247
v 0.083349 -0.012902 -0.072425
v 0.077467 -0.018757 -0.085287
v 0.071926 -0.012902 -0.098299
v 0.069971 0.001233 -0.103840
v 0.072748 0.015368 -0.098662
v 0.078631 0.021223 -0.085800
v 0.084172 0.015368 -0.072788
v 0.078049 -0.014681 -0.073429
v 0.065380 -0.013826 -0.081978
v 0.060132 -0.004150 -0.092615
v 0.065380 0.008680 -0.099110
v 0.078049 0.017147 -0.097658
v 0.090718 0.016292 -0.089109
v 0.095966 0.006616 -0.078472
v 0.090718 -0.006213 -0.071977
v 0.088290 -0.027187 -0.089859
v 0.075621 -0.026332 -0.098407
v 0.070373 -0.016656 -0.109044
v 0.075621 -0.003827 -0.115539
v 0.088290 0.004641 -0.114087
v 0.100959 0.003786 -0.105538
v 0.106207 -0.005890 -0.094901
v 0.100959 -0.018720 -0.088407
v 0.000000 -0.019960 0.001257
v -0.011992 -0.014585 -0.006592
v -0.016960 -0.000666 -0.010580
v -0.011992 0.013643 -0.008370
v -0.000000 0.019960 -0.001257
v 0.011992 0.014585 0.006592
v 0.016960 0.000666 0.010580
v 0.011992 -0.013643 0.008370
v 0.042571 -0.024241 -0.066717
v 0.030579 -0.018865 -0.074566
v 0.025612 -0.004946 -0.078553
v 0.030579 0.009363 -0.076343
v 0.042571 0.015680 -0.069230
v 0.054564 0.010305 -0.061381
v 0.059531 -0.003614 -0.057394
v 0.054564 -0.017923 -0.059604
v 0.042571 -0.023774 -0.063504
v 0.029995 -0.019510 -0.071117
v 0.024785 -0.006324 -0.076888
v 0.029995 0.008059 -0.077438
v 0.042571 0.015214 -0.072443
v 0.055148 0.010950 -0.064830
v 0.060357 -0.002236 -0.059058
v 0.055148 -0.016619 -0.058509
v 0.054440 -0.028932 -0.086000
v 0.041863 -0.024668 -0.093613
v 0.036654 -0.011482 -0.099385
v 0.041863 0.002901 -0.099934
v 0.054440 0.010056 -0.094939
v 0.067017 0.005792 -0.087326
v 0.072226 -0.007394 -0.081555
v 0.067017 -0.021777 -0.081006
v 0.054440 -0.029085 -0.086728
v 0.040885 -0.024085 -0.091787
v 0.035271 -0.010505 -0.096074
v 0.040885 0.003700 -0.097078
v 0.054440 0.010209 -0.094211
v 0.067995 0.005209 -0.089153
v 0.073609 -0.008371 -0.084866
v 0.067995 -0.022576 -0.083862
v 0.060862 -0.033121 -0.107925
v 0.047307 -0.028121 -0.112984
v 0.041692 -0.014541 -0.117271
v 0.047307 -0.000336 -0.118275
v 0.060862 0.006173 -0.115408
v 0.074416 0.001173 -0.110349
v 0.080031 -0.012407 -0.106063
v 0.074416 -0.026612 -0.105058
v 0.060862 -0.031856 -0.103786
v 0.050051 -0.030065 -0.114474
v 0.045572 -0.018554 -0.123517
v 0.050051 -0.004068 -0.125618
v 0.060862 0.004908 -0.119547
v 0.071673 0.003116 -0.108859
v 0.076151 -0.008394 -0.099816
v 0.071673 -0.022880 -0.097715
v 0.070047 -0.036148 -0.113797
v 0.059236 -0.034356 -0.124485
v 0.054757 -0.022846 -0.133528
v 0.059236 -0.008360 -0.135629
v 0.070047 0.000617 -0.129557
v 0.080858 -0.001175 -0.118870
v 0.085336 -0.012686 -0.109827
v 0.080858 -0.027172 -0.107726
v 0.000000 -0.019881 0.002181
v -0.012921 -0.014685 -0.004172
v -0.018273 -0.000887 -0.008082
v -0.012921 0.013431 -0.007257
v -0.000000 0.019881 -0.002181
v 0.012921 0.014685 0.004172
v 0.018273 0.000887 0.008082
v 0.012921 -0.013431 0.007257
v 0.032070 -0.027742 -0.069462
v 0.019149 -0.022546 -0.075816
v 0.013797 -0.008748 -0.079726
v 0.019149 0.005569 -0.078901
v 0.032070 0.012019 -0.073825
v 0.044991 0.006824 -0.067471
v 0.050343 -0.006974 -0.063561
v 0.044991 -0.021292 -0.064386
v 0.032070 -0.025674 -0.062549
v 0.019300 -0.023220 -0.070626
v 0.014011 -0.011769 -0.079298
v 0.019300 0.001971 -0.083487
v 0.032070 0.009952 -0.080738
v 0.044840 0.007498 -0.072662
v 0.050129 -0.003953 -0.063989
v 0.044840 -0.017693 -0.059800
v 0.043257 -0.036363 -0.083487
v 0.030487 -0.033909 -0.091563
v 0.025198 -0.022458 -0.100235
v 0.030487 -0.008718 -0.104424
v 0.043257 -0.000738 -0.101675
v 0.056027 -0.003192 -0.093599
v 0.061317 -0.014643 -0.084926
v 0.056027 -0.028383 -0.080738
v 0.043257 -0.038225 -0.088985
v 0.030206 -0.033442 -0.095397
v 0.024801 -0.019936 -0.100159
v 0.030206 -0.005618 -0.100483
v 0.043257 0.001124 -0.096177
v 0.056308 -0.003659 -0.089765
v 0.061714 -0.017165 -0.085002
v 0.056308 -0.031483 -0.084679
v 0.052966 -0.042407 -0.111865
v 0.039916 -0.037624 -0.118277
v 0.034510 -0.024118 -0.123040
v 0.039916 -0.009801 -0.123363
v 0.052966 -0.003059 -0.119057
v 0.066017 -0.007842 -0.112645
v 0.071423 -0.021348 -0.107882
v 0.066017 -0.035665 -0.107559
v 0.052966 -0.041460 -0.108441
v 0.044629 -0.039985 -0.121193
v 0.041175 -0.028403 -0.130588
v 0.044629 -0.013500 -0.131121
v 0.052966 -0.004005 -0.122481
v 0.061304 -0.005481 -0.109729
v 0.064758 -0.017062 -0.100335
v 0.061304 -0.031966 -0.099801
v 0.071933 -0.046320 -0.121405
v 0.063596 -0.044844 -0.134157
v 0.060142 -0.033263 -0.143551
v 0.063596 -0.018360 -0.144085
v 0.071933 -0.008865 -0.135445
v 0.080271 -0.010341 -0.122693
v 0.083725 -0.021922 -0.113298
v 0.080271 -0.036825 -0.112765
v 0.000000 -0.019359 0.005024
v -0.013613 -0.014652 -0.000158
v -0.019251 -0.001362 -0.005248
v -0.013613 0.012726 -0.007263
v -0.000000 0.019359 -0.005024
v 0.013613 0.014652 0.000158
v 0.019251 0.001362 0.005248
v 0.013613 -0.012726 0.007263
v 0.018969 -0.036278 -0.060171
v 0.005357 -0.031571 -0.065353
v -0.000282 -0.018282 -0.070443
v 0.005357 -0.004194 -0.072458
v 0.018969 0.002439 -0.070219
v 0.032582 -0.002268 -0.065036
v 0.038220 -0.015558 -0.059947
v 0.032582 -0.029645 -0.057931
v 0.018969 -0.033632 -0.054208
v 0.005537 -0.031167 -0.061123
v -0.000027 -0.020356 -0.070423
v 0.005537 -0.007532 -0.076660
v 0.018969 -0.000207 -0.076181
v 0.032402 -0.002672 -0.069267
v 0.037966 -0.013483 -0.059967
v 0.032402 -0.026307 -0.053729
v 0.024586 -0.043000 -0.068458
v 0.011153 -0.040535 -0.075373
v 0.005590 -0.029724 -0.084672
v 0.011153 -0.016900 -0.090910
v 0.024586 -0.009575 -0.090431
v 0.038018 -0.012040 -0.083517
v 0.043582 -0.022851 -0.074217
v 0.038018 -0.035675 -0.067979
v 0.024586 -0.041335 -0.066270
v 0.010493 -0.037708 -0.071020
v 0.004656 -0.027390 -0.080705
v 0.010493 -0.016427 -0.089651
v 0.024586 -0.011239 -0.092619
v 0.038678 -0.014867 -0.087869
v 0.044516 -0.025184 -0.078185
v 0.038678 -0.036148 -0.069238
v 0.026132 -0.053458 -0.080118
v 0.012040 -0.049831 -0.084867
v 0.006203 -0.039513 -0.094552
v 0.012040 -0.028550 -0.103498
v 0.026132 -0.023362 -0.106466
v 0.040225 -0.026990 -0.101716
v 0.046062 -0.037307 -0.092032
v 0.040225 -0.048271 -0.083085
v 0.026132 -0.057041 -0.086018
v 0.013499 -0.053896 -0.094070
v 0.008266 -0.041679 -0.101665
v 0.013499 -0.027548 -0.104356
v 0.026132 -0.019780 -0.100565
v 0.038765 -0.022925 -0.092514
v 0.043998 -0.035141 -0.084918
v 0.038765 -0.049272 -0.082228
v 0.035608 -0.063890 -0.103563
v 0.022975 -0.060745 -0.111614
v 0.017742 -0.048528 -0.119209
v 0.022975 -0.034397 -0.121900
v 0.035608 -0.026629 -0.118109
v 0.048241 -0.029774 -0.110058
v 0.053474 -0.041990 -0.102462
v 0.048241 -0.056121 -0.099772
v -0.015000 -0.015000 -0.015000
v 0.015000 -0.015000 -0.015000
v 0.015000 0.015000 -0.015000
v -0.015000 0.015000 -0.015000
v -0.015000 -0.015000 0.015000
v 0.015000 -0.015000 0.015000
v 0.015000 0.015000 0.015000
v -0.015000 0.015000 0.015000
v 0.013504 -0.003705 -0.025055
v 0.043504 -0.003705 -0.025055
v 0.043504 0.026295 -0.025055
v 0.013504 0.026295 -0.025055
v 0.013504 -0.003705 0.004945
v 0.043504 -0.003705 0.004945
v 0.043504 0.026295 0.004945
v 0.013504 0.026295 0.004945
v 0.042695 0.005077 -0.033129
v 0.072695 0.005077 -0.033129
v 0.072695 0.035077 -0.033129
v 0.042695 0.035077 -0.033129
v 0.042695 0.005077 -0.003129
v 0.072695 0.005077 -0.003129
v 0.072695 0.035077 -0.003129
v 0.042695 0.035077 -0.003129
v 0.067400 0.004062 -0.041475
v 0.097400 0.004062 -0.041475
v 0.097400 0.034062 -0.041475
v 0.067400 0.034062 -0.041475
v 0.067400 0.004062 -0.011475
v 0.097400 0.004062 -0.011475
v 0.097400 0.034062 -0.011475
v 0.067400 0.034062 -0.011475
v 0.092125 -0.003162 -0.060722
v 0.122125 -0.003162 -0.060722
v 0.122125 0.026838 -0.060722
v 0.092125 0.026838 -0.060722
v 0.092125 -0.003162 -0.030722
v 0.122125 -0.003162 -0.030722
v 0.122125 0.026838 -0.030722
v 0.092125 0.026838 -0.030722
v 0.037758 -0.010673 -0.079274
v 0.067758 -0.010673 -0.079274
v 0.067758 0.019327 -0.079274
v 0.037758 0.019327 -0.079274
v 0.037758 -0.010673 -0.049274
v 0.067758 -0.010673 -0.049274
v 0.067758 0.019327 -0.049274
v 0.037758 0.019327 -0.049274
v 0.050289 -0.013323 -0.094910
v 0.080289 -0.013323 -0.094910
v 0.080289 0.016677 -0.094910
v 0.050289 0.016677 -0.094910
v 0.050289 -0.013323 -0.064910
v 0.080289 -0.013323 -0.064910
v 0.080289 0.016677 -0.064910
v 0.050289 0.016677 -0.064910
v 0.063049 -0.013767 -0.100544
v 0.093049 -0.013767 -0.100544
v 0.093049 0.016233 -0.100544
v 0.063049 0.016233 -0.100544
v 0.063049 -0.013767 -0.070544
v 0.093049 -0.013767 -0.070544
v 0.093049 0.016233 -0.070544
v 0.063049 0.016233 -0.070544
v 0.073290 -0.026273 -0.116973
v 0.103290 -0.026273 -0.116973
v 0.103290 0.003727 -0.116973
v 0.073290 0.003727 -0.116973
v 0.073290 -0.026273 -0.086973
v 0.103290 -0.026273 -0.086973
v 0.103290 0.003727 -0.086973
v 0.073290 0.003727 -0.086973
v 0.027571 -0.019280 -0.082973
v 0.057571 -0.019280 -0.082973
v 0.057571 0.010720 -0.082973
v 0.027571 0.010720 -0.082973
v 0.027571 -0.019280 -0.052973
v 0.057571 -0.019280 -0.052973
v 0.057571 0.010720 -0.052973
v 0.027571 0.010720 -0.052973
v 0.039440 -0.024438 -0.105470
v 0.069440 -0.024438 -0.105470
v 0.069440 0.005562 -0.105470
v 0.039440 0.005562 -0.105470
v 0.039440 -0.024438 -0.075470
v 0.069440 -0.024438 -0.075470
v 0.069440 0.005562 -0.075470
v 0.039440 0.005562 -0.075470
v 0.045862 -0.028474 -0.126667
v 0.075862 -0.028474 -0.126667
v 0.075862 0.001526 -0.126667
v 0.045862 0.001526 -0.126667
v 0.045862 -0.028474 -0.096667
v 0.075862 -0.028474 -0.096667
v 0.075862 0.001526 -0.096667
v 0.045862 0.001526 -0.096667
v 0.055047 -0.032766 -0.136677
v 0.085047 -0.032766 -0.136677
v 0.085047 -0.002766 -0.136677
v 0.055047 -0.002766 -0.136677
v 0.055047 -0.032766 -0.106677
v 0.085047 -0.032766 -0.106677
v 0.085047 -0.002766 -0.106677
v 0.055047 -0.002766 -0.106677
v 0.017070 -0.022861 -0.086644
v 0.047070 -0.022861 -0.086644
v 0.047070 0.007139 -0.086644
v 0.017070 0.007139 -0.086644
v 0.017070 -0.022861 -0.056644
v 0.047070 -0.022861 -0.056644
v 0.047070 0.007139 -0.056644
v 0.017070 0.007139 -0.056644
v 0.028257 -0.033551 -0.107581
v 0.058257 -0.033551 -0.107581
v 0.058257 -0.003551 -0.107581
v 0.028257 -0.003551 -0.107581
v 0.028257 -0.033551 -0.077581
v 0.058257 -0.033551 -0.077581
v 0.058257 -0.003551 -0.077581
v 0.028257 -0.003551 -0.077581
v 0.037966 -0.037733 -0.130461
v 0.067966 -0.037733 -0.130461
v 0.067966 -0.007733 -0.130461
v 0.037966 -0.007733 -0.130461
v 0.037966 -0.037733 -0.100461
v 0.067966 -0.037733 -0.100461
v 0.067966 -0.007733 -0.100461
v 0.037966 -0.007733 -0.100461
v 0.056933 -0.042592 -0.143425
v 0.086933 -0.042592 -0.143425
v 0.086933 -0.012592 -0.143425
v 0.056933 -0.012592 -0.143425
v 0.056933 -0.042592 -0.113425
v 0.086933 -0.042592 -0.113425
v 0.086933 -0.012592 -0.113425
v 0.056933 -0.012592 -0.113425
v 0.003969 -0.031920 -0.080195
v 0.033969 -0.031920 -0.080195
v 0.033969 -0.001920 -0.080195
v 0.003969 -0.001920 -0.080195
v 0.003969 -0.031920 -0.050195
v 0.033969 -0.031920 -0.050195
v 0.033969 -0.001920 -0.050195
v 0.003969 -0.001920 -0.050195
v 0.009586 -0.041287 -0.094445
v 0.039586 -0.041287 -0.094445
v 0.039586 -0.011287 -0.094445
v 0.009586 -0.011287 -0.094445
v 0.009586 -0.041287 -0.064445
v 0.039586 -0.041287 -0.064445
v 0.039586 -0.011287 -0.064445
v 0.009586 -0.011287 -0.064445
v 0.011132 -0.053410 -0.108292
v 0.041132 -0.053410 -0.108292
v 0.041132 -0.023410 -0.108292
v 0.011132 -0.023410 -0.108292
v 0.011132 -0.053410 -0.078292
v 0.041132 -0.053410 -0.078292
v 0.041132 -0.023410 -0.078292
v 0.011132 -0.023410 -0.078292
v 0.020608 -0.060259 -0.125836
v 0.050608 -0.060259 -0.125836
v 0.050608 -0.030259 -0.125836
v 0.020608 -0.030259 -0.125836
v 0.020608 -0.060259 -0.095836
v 0.050608 -0.060259 -0.095836
v 0.050608 -0.030259 -0.095836
v 0.020608 -0.030259 -0.095836
f 1 2 9
f 2 10 9
f 2 3 10
f 3 11 10
f 3 4 11
f 4 12 11
f 4 5 12
f 5 13 12
f 5 6 13
f 6 14 13
f 6 7 14
f 7 15 14
f 7 8 15
f 8 16 15
f 8 1 16
f 1 9 16
f 17 18 25
f 18 26 25
f 18 19 26
f 19 27 26
f 19 20 27
f 20 28 27
f 20 21 28
f 21 29 28
f 21 22 29
f 22 30 29
f 22 23 30
f 23 31 30
f 23 24 31
f 24 32 31
f 24 17 32
f 17 25 32
f 33 34 41
f 34 42 41
f 34 35 42
f 35 43 42
f 35 36 43
f 36 44 43
f 36 37 44
f 37 45 44
f 37 38 45
f 38 46 45
f 38 39 46
f 39 47 46
f 39 40 47
f 40 48 47
f 40 33 48
f 33 41 48
f 49 50 57
f 50 58 57
f 50 51 58
f 51 59 58
f 51 52 59
f 52 60 59
f 52 53 60
f 53 61 60
f 53 54 61
f 54 62 61
f 54 55 62
f 55 63 62
f 55 56 63
f 56 64 63
f 56 49 64
f 49 57 64
f 65 66 73
f 66 74 73
f 66 67 74
f 67 75 74
f 67 68 75
f 68 76 75
f 68 69 76
f 69 77 76
f 69 70 77
f 70 78 77
f 70 71 78
f 71 79 78
f 71 72 79
f 72 80 79
f 72 65 80
f 65 73 80
f 81 82 89
f 82 90 89
f 82 83 90
f 83 91 90
f 83 84 91
f 84 92 91
f 84 85 92
f 85 93 92
f 85 86 93
f 86 94 93
f 86 87 94
f 87 95 94
f 87 88 95
f 88 96 95
f 88 81 96
f 81 89 96
f 97 98 105
f 98 106 105
f 98 99 106
f 99 107 106
f 99 100 107
f 100 108 107
f 100 101 108
f 101 109 108
f 101 102 109
f 102 110 109
f 102 103 110
f 103 111 110
f 103 104 111
f 104 112 111
f 104 97 112
f 97 105 112
f 113 114 121
f 114 122 121
f 114 115 122
f 115 123 122
f 115 116 123
f 116 124 123
f 116 117 124
f 117 125 124
f 117 118 125
f 118 126 125
f 118 119 126
f 119 127 126
f 119 120 127
f 120 128 127
f 120 113 128
f 113 121 128
f 129 130 137
f 130 138 137
f 130 131 138
f 131 139 138
f 131 132 139
f 132 140 139
f 132 133 140
f 133 141 140
f 133 134 141
f 134 142 141
f 134 135 142
f 135 143 142
f 135 136 143
f 136 144 143
f 136 129 144
f 129 137 144
f 145 146 153
f 146 154 153
f 146 147 154
f 147 155 154
f 147 148 155
f 148 156 155
f 148 149 156
f 149 157 156
f 149 150 157
f 150 158 157
f 150 151 158
f 151 159 158
f 151 152 159
f 152 160 159
f 152 145 160
f 145 153 160
f 161 162 169
f 162 170 169
f 162 163 170
f 163 171 170
f 163 164 171
f 164 172 171
f 164 165 172
f 165 173 172
f 165 166 173
f 166 174 173
f 166 167 174
f 167 175 174
f 167 168 175
f 168 176 175
f 168 161 176
f 161 169 176
f 177 178 185
f 178 186 185
f 178 179 186
f 179 187 186
f 179 180 187
f 180 188 187
f 180 181 188
f 181 189 188
f 181 182 189
f 182 190 189
f 182 183 190
f 183 191 190
f 183 184 191
f 184 192 191
f 184 177 192
f 177 185 192
f 193 194 201
f 194 202 201
f 194 195 202
f 195 203 202
f 195 196 203
f 196 204 203
f 196 197 204
f 197 205 204
f 197 198 205
f 198 206 205
f 198 199 206
f 199 207 206
f 199 200 207
f 200 208 207
f 200 193 208
f 193 201 208
f 209 210 217
f 210 218 217
f 210 211 218
f 211 219 218
f 211 212 219
f 212 220 219
f 212 213 220
f 213 221 220
f 213 214 221
f 214 222 221
f 214 215 222
f 215 223 222
f 215 216 223
f 216 224 223
f 216 209 224
f 209 217 224
f 225 226 233
f 226 234 233
f 226 227 234
f 227 235 234
f 227 228 235
f 228 236 235
f 228 229 236
f 229 237 236
f 229 230 237
f 230 238 237
f 230 231 238
f 231 239 238
f 231 232 239
f 232 240 239
f 232 225 240
f 225 233 240
f 241 242 249
f 242 250 249
f 242 243 250
f 243 251 250
f 243 244 251
f 244 252 251
f 244 245 252
f 245 253 252
f 245 246 253
f 246 254 253
f 246 247 254
f 247 255 254
f 247 248 255
f 248 256 255
f 248 241 256
f 241 249 256
f 257 258 265
f 258 266 265
f 258 259 266
f 259 267 266
f 259 260 267
f 260 268 267
f 260 261 268
f 261 269 268
f 261 262 269
f 262 270 269
f 262 263 270
f 263 271 270
f 263 264 271
f 264 272 271
f 264 257 272
f 257 265 272
f 273 274 281
f 274 282 281
f 274 275 282
f 275 283 282
f 275 276 283
f 276 284 283
f 276 277 284
f 277 285 284
f 277 278 285
f 278 286 285
f 278 279 286
f 279 287 286
f 279 280 287
f 280 288 287
f 280 273 288
f 273 281 288
f 289 290 297
f 290 298 297
f 290 291 298
f 291 299 298
f 291 292 299
f 292 300 299
f 292 293 300
f 293 301 300
f 293 294 301
f 294 302 301
f 294 295 302
f 295 303 302
f 295 296 303
f 296 304 303
f 296 289 304
f 289 297 304
f 305 306 313
f 306 314 313
f 306 307 314
f 307 315 314
f 307 308 315
f 308 316 315
f 308 309 316
f 309 317 316
f 309 310 317
f 310 318 317
f 310 311 318
f 311 319 318
f 311 312 319
f 312 320 319
f 312 305 320
f 305 313 320
f 321 322 323
f 321 323 324
f 325 326 327
f 325 327 328
f 321 325 326
f 321 326 322
f 322 326 327
f 322 327 323
f 323 327 328
f 323 328 324
f 324 328 325
f 324 325 321
f 329 330 331
f 329 331 332
f 333 334 335
f 333 335 336
f 329 333 334
f 329 334 330
f 330 334 335
f 330 335 331
f 331 335 336
f 331 336 332
f 332 336 333
f 332 333 329
f 337 338 339
f 337 339 340
f 341 342 343
f 341 343 344
f 337 341 342
f 337 342 338
f 338 342 343
f 338 343 339
f 339 343 344
f 339 344 340
f 340 344 341
f 340 341 337
f 345 346 347
f 345 347 348
f 349 350 351
f 349 351 352
f 345 349 350
f 345 350 346
f 346 350 351
f 346 351 347
f 347 351 352
f 347 352 348
f 348 352 349
f 348 349 345
f 353 354 355
f 353 355 356
f 357 358 359
f 357 359 360
f 353 357 358
f 353 358 354
f 354 358 359
f 354 359 355
f 355 359 360
f 355 360 356
f 356 360 357
f 356 357 353
f 361 362 363
f 361 363 364
f 365 366 367
f 365 367 368
f 361 365 366
f 361 366 362
f 362 366 367
f 362 367 363
f 363 367 368
f 363 368 364
f 364 368 365
f 364 365 361
f 369 370 371
f 369 371 372
f 373 374 375
f 373 375 376
f 369 373 374
f 369 374 370
f 370 374 375
f 370 375 371
f 371 375 376
f 371 376 372
f 372 376 373
f 372 373 369
f 377 378 379
f 377 379 380
f 381 382 383
f 381 383 384
f 377 381 382
f 377 382 378
f 378 382 383
f 378 383 379
f 379 383 384
f 379 384 380
f 380 384 381
f 380 381 377
f 385 386 387
f 385 387 388
f 389 390 391
f 389 391 392
f 385 389 390
f 385 390 386
f 386 390 391
f 386 391 387
f 387 391 392
f 387 392 388
f 388 392 389
f 388 389 385
f 393 394 395
f 393 395 396
f 397 398 399
f 397 399 400
f 393 397 398
f 393 398 394
f 394 398 399
f 394 399 395
f 395 399 400
f 395 400 396
f 396 400 397
f 396 397 393
f 401 402 403
f 401 403 404
f 405 406 407
f 405 407 408
f 401 405 406
f 401 406 402
f 402 406 407
f 402 407 403
f 403 407 408
f 403 408 404
f 404 408 405
f 404 405 401
f 409 410 411
f 409 411 412
f 413 414 415
f 413 415 416
f 409 413 414
f 409 414 410
f 410 414 415
f 410 415 411
f 411 415 416
f 411 416 412
f 412 416 413
f 412 413 409
f 417 418 419
f 417 419 420
f 421 422 423
f 421 423 424
f 417 421 422
f 417 422 418
f 418 422 423
f 418 423 419
f 419 423 424
f 419 424 420
f 420 424 421
f 420 421 417
f 425 426 427
f 425 427 428
f 429 430 431
f 429 431 432
f 425 429 430
f 425 430 426
f 426 430 431
f 426 431 427
f 427 431 432
f 427 432 428
f 428 432 429
f 428 429 425
f 433 434 435
f 433 435 436
f 437 438 439
f 437 439 440
f 433 437 438
f 433 438 434
f 434 438 439
f 434 439 435
f 435 439 440
f 435 440 436
f 436 440 437
f 436 437 433
f 441 442 443
f 441 443 444
f 445 446 447
f 445 447 448
f 441 445 446
f 441 446 442
f 442 446 447
f 442 447 443
f 443 447 448
f 443 448 444
f 444 448 445
f 444 445 441
f 449 450 451
f 449 451 452
f 453 454 455
f 453 455 456
f 449 453 454
f 449 454 450
f 450 454 455
f 450 455 451
f 451 455 456
f 451 456 452
f 452 456 453
f 452 453 449
f 457 458 459
f 457 459 460
f 461 462 463
f 461 463 464
f 457 461 462
f 457 462 458
f 458 462 463
f 458 463 459
f 459 463 464
f 459 464 460
f 460 464 461
f 460 461 457
f 465 466 467
f 465 467 468
f 469 470 471
f 469 471 472
f 465 469 470
f 465 470 466
f 466 470 471
f 466 471 467
f 467 471 472
f 467 472 468
f 468 472 469
f 468 469 465
f 473 474 475
f 473 475 476
f 477 478 479
f 477 479 480
f 473 477 478
f 473 478 474
f 474 478 479
f 474 479 475
f 475 479 480
f 475 480 476
f 476 480 477
f 476 477 473
f 481 482 483
f 481 483 484
f 485 486 487
f 485 487 488
f 481 485 486
f 481 486 482
f 482 486 487
f 482 487 483
f 483 487 488
f 483 488 484
f 484 488 485
f 484 485 481
f 489 490 497
f 490 498 497
f 490 491 498
f 491 499 498
f 491 492 499
f 492 500 499
f 492 493 500
f 493 501 500
f 493 494 501
f 494 502 501
f 494 495 502
f 495 503 502
f 495 496 503
f 496 504 503
f 496 489 504
f 489 497 504
f 505 506 513
f 506 514 513
f 506 507 514
f 507 515 514
f 507 508 515
f 508 516 515
f 508 509 516
f 509 517 516
f 509 510 517
f 510 518 517
f 510 511 518
f 511 519 518
f 511 512 519
f 512 520 519
f 512 505 520
f 505 513 520
f 521 522 529
f 522 530 529
f 522 523 530
f 523 531 530
f 523 524 531
f 524 532 531
f 524 525 532
f 525 533 532
f 525 526 533
f 526 534 533
f 526 527 534
f 527 535 534
f 527 528 535
f 528 536 535
f 528 521 536
f 521 529 536
f 537 538 545
f 538 546 545
f 538 539 546
f 539 547 546
f 539 540 547
f 540 548 547
f 540 541 548
f 541 549 548
f 541 542 549
f 542 550 549
f 542 543 550
f 543 551 550
f 543 544 551
f 544 552 551
f 544 537 552
f 537 545 552
f 553 554 561
f 554 562 561
f 554 555 562
f 555 563 562
f 555 556 563
f 556 564 563
f 556 557 564
f 557 565 564
f 557 558 565
f 558 566 565
f 558 559 566
f 559 567 566
f 559 560 567
f 560 568 567
f 560 553 568
f 553 561 568
f 569 570 577
f 570 578 577
f 570 571 578
f 571 579 578
f 571 572 579
f 572 580 579
f 572 573 580
f 573 581 580
f 573 574 581
f 574 582 581
f 574 575 582
f 575 583 582
f 575 576 583
f 576 584 583
f 576 569 584
f 569 577 584
f 585 586 593
f 586 594 593
f 586 587 594
f 587 595 594
f 587 588 595
f 588 596 595
f 588 589 596
f 589 597 596
f 589 590 597
f 590 598 597
f 590 591 598
f 591 599 598
f 591 592 599
f 592 600 599
f 592 585 600
f 585 593 600
f 601 602 609
f 602 610 609
f 602 603 610
f 603 611 610
f 603 604 611
f 604 612 611
f 604 605 612
f 605 613 612
f 605 606 613
f 606 614 613
f 606 607 614
f 607 615 614
f 607 608 615
f 608 616 615
f 608 601 616
f 601 609 616
f 617 618 625
f 618 626 625
f 618 619 626
f 619 627 626
f 619 620 627
f 620 628 627
f 620 621 628
f 621 629 628
f 621 622 629
f 622 630 629
f 622 623 630
f 623 631 630
f 623 624 631
f 624 632 631
f 624 617 632
f 617 625 632
f 633 634 641
f 634 642 641
f 634 635 642
f 635 643 642
f 635 636 643
f 636 644 643
f 636 637 644
f 637 645 644
f 637 638 645
f 638 646 645
f 638 639 646
f 639 647 646
f 639 640 647
f 640 648 647
f 640 633 648
f 633 641 648
f 649 650 657
f 650 658 657
f 650 651 658
f 651 659 658
f 651 652 659
f 652 660 659
f 652 653 660
f 653 661 660
f 653 654 661
f 654 662 661
f 654 655 662
f 655 663 662
f 655 656 663
f 656 664 663
f 656 649 664
f 649 657 664
f 665 666 673
f 666 674 673
f 666 667 674
f 667 675 674
f 667 668 675
f 668 676 675
f 668 669 676
f 669 677 676
f 669 670 677
f 670 678 677
f 670 671 678
f 671 679 678
f 671 672 679
f 672 680 679
f 672 665 680
f 665 673 680
f 681 682 689
f 682 690 689
f 682 683 690
f 683 691 690
f 683 684 691
f 684 692 691
f 684 685 692
f 685 693 692
f 685 686 693
f 686 694 693
f 686 687 694
f 687 695 694
f 687 688 695
f 688 696 695
f 688 681 696
f 681 689 696
f 697 698 705
f 698 706 705
f 698 699 706
f 699 707 706
f 699 700 707
f 700 708 707
f 700 701 708
f 701 709 708
f 701 702 709
f 702 710 709
f 702 703 710
f 703 711 710
f 703 704 711
f 704 712 711
f 704 697 712
f 697 705 712
f 713 714 721
f 714 722 721
f 714 715 722
f 715 723 722
f 715 716 723
f 716 724 723
f 716 717 724
f 717 725 724
f 717 718 725
f 718 726 725
f 718 719 726
f 719 727 726
f 719 720 727
f 720 728 727
f 720 713 728
f 713 721 728
f 729 730 737
f 730 738 737
f 730 731 738
f 731 739 738
f 731 732 739
f 732 740 739
f 732 733 740
f 733 741 740
f 733 734 741
f 734 742 741
f 734 735 742
f 735 743 742
f 735 736 743
f 736 744 743
f 736 729 744
f 729 737 744
f 745 746 753
f 746 754 753
f 746 747 754
f 747 755 754
f 747 748 755
f 748 756 755
f 748 749 756
f 749 757 756
f 749 750 757
f 750 758 757
f 750 751 758
f 751 759 758
f 751 752 759
f 752 760 759
f 752 745 760
f 745 753 760
f 761 762 769
f 762 770 769
f 762 763 770
f 763 771 770
f 763 764 771
f 764 772 771
f 764 765 772
f 765 773 772
f 765 766 773
f 766 774 773
f 766 767 774
f 767 775 774
f 767 768 775
f 768 776 775
f 768 761 776
f 761 769 776
f 777 778 785
f 778 786 785
f 778 779 786
f 779 787 786
f 779 780 787
f 780 788 787
f 780 781 788
f 781 789 788
f 781 782 789
f 782 790 789
f 782 783 790
f 783 791 790
f 783 784 791
f 784 792 791
f 784 777 792
f 777 785 792
f 793 794 801
f 794 802 801
f 794 795 802
f 795 803 802
f 795 796 803
f 796 804 803
f 796 797 804
f 797 805 804
f 797 798 805
f 798 806 805
f 798 799 806
f 799 807 806
f 799 800 807
f 800 808 807
f 800 793 808
f 793 801 808
f 809 810 811
f 809 811 812
f 813 814 815
f 813 815 816
f 809 813 814
f 809 814 810
f 810 814 815
f 810 815 811
f 811 815 816
f 811 816 812
f 812 816 813
f 812 813 809
f 817 818 819
f 817 819 820
f 821 822 823
f 821 823 824
f 817 821 822
f 817 822 818
f 818 822 823
f 818 823 819
f 819 823 824
f 819 824 820
f 820 824 821
f 820 821 817
f 825 826 827
f 825 827 828
f 829 830 831
f 829 831 832
f 825 829 830
f 825 830 826
f 826 830 831
f 826 831 827
f 827 831 832
f 827 832 828
f 828 832 829
f 828 829 825
f 833 834 835
f 833 835 836
f 837 838 839
f 837 839 840
f 833 837 838
f 833 838 834
f 834 838 839
f 834 839 835
f 835 839 840
f 835 840 836
f 836 840 837
f 836 837 833
f 841 842 843
f 841 843 844
f 845 846 847
f 845 847 848
f 841 845 846
f 841 846 842
f 842 846 847
f 842 847 843
f 843 847 848
f 843 848 844
f 844 848 845
f 844 845 841
f 849 850 851
f 849 851 852
f 853 854 855
f 853 855 856
f 849 853 854
f 849 854 850
f 850 854 855
f 850 855 851
f 851 855 856
f 851 856 852
f 852 856 853
f 852 853 849
f 857 858 859
f 857 859 860
f 861 862 863
f 861 863 864
f 857 861 862
f 857 862 858
f 858 862 863
f 858 863 859
f 859 863 864
f 859 864 860
f 860 864 861
f 860 861 857
f 865 866 867
f 865 867 868
f 869 870 871
f 869 871 872
f 865 869 870
f 865 870 866
f 866 870 871
f 866 871 867
f 867 871 872
f 867 872 868
f 868 872 869
f 868 869 865
f 873 874 875
f 873 875 876
f 877 878 879
f 877 879 880
f 873 877 878
f 873 878 874
f 874 878 879
f 874 879 875
f 875 879 880
f 875 880 876
f 876 880 877
f 876 877 873
f 881 882 883
f 881 883 884
f 885 886 887
f 885 887 888
f 881 885 886
f 881 886 882
f 882 886 887
f 882 887 883
f 883 887 888
f 883 888 884
f 884 888 885
f 884 885 881
f 889 890 891
f 889 891 892
f 893 894 895
f 893 895 896
f 889 893 894
f 889 894 890
f 890 894 895
f 890 895 891
f 891 895 896
f 891 896 892
f 892 896 893
f 892 893 889
f 897 898 899
f 897 899 900
f 901 902 903
f 901 903 904
f 897 901 902
f 897 902 898
f 898 902 903
f 898 903 899
f 899 903 904
f 899 904 900
f 900 904 901
f 900 901 897
f 905 906 907
f 905 907 908
f 909 910 911
f 909 911 912
f 905 909 910
f 905 910 906
f 906 910 911
f 906 911 907
f 907 911 912
f 907 912 908
f 908 912 909
f 908 909 905
f 913 914 915
f 913 915 916
f 917 918 919
f 917 919 920
f 913 917 918
f 913 918 914
f 914 918 919
f 914 919 915
f 915 919 920
f 915 920 916
f 916 920 917
f 916 917 913
f 921 922 923
f 921 923 924
f 925 926 927
f 925 927 928
f 921 925 926
f 921 926 922
f 922 926 927
f 922 927 923
f 923 927 928
f 923 928 924
f 924 928 925
f 924 925 921
f 929 930 931
f 929 931 932
f 933 934 935
f 933 935 936
f 929 933 934
f 929 934 930
f 930 934 935
f 930 935 931
f 931 935 936
f 931 936 932
f 932 936 933
f 932 933 929
f 937 938 939
f 937 939 940
f 941 942 943
f 941 943 944
f 937 941 942
f 937 942 938
f 938 942 943
f 938 943 939
f 939 943 944
f 939 944 940
f 940 944 941
f 940 941 937
f 945 946 947
f 945 947 948
f 949 950 951
f 949 951 952
f 945 949 950
f 945 950 946
f 946 950 951
f 946 951 947
f 947 951 952
f 947 952 948
f 948 952 949
f 948 949 945
f 953 954 955
f 953 955 956
f 957 958 959
f 957 959 960
f 953 957 958
f 953 958 954
f 954 958 959
f 954 959 955
f 955 959 960
f 955 960 956
f 956 960 957
f 956 957 953
f 961 962 963
f 961 963 964
f 965 966 967
f 965 967 968
f 961 965 966
f 961 966 962
f 962 966 967
f 962 967 963
f 963 967 968
f 963 968 964
f 964 968 965
f 964 965 961
f 969 970 971
f 969 971 972
f 973 974 975
f 973 975 976
f 969 973 974
f 969 974 970
f 970 974 975
f 970 975 971
f 971 975 976
f 971 976 972
f 972 976 973
f 972 973 969
