# SignFlow 3D Hand Mesh - Frame 22
v 0.000000 -0.018922 0.006478
v -0.013976 -0.012679 0.006627
v -0.019765 0.000991 0.002894
v -0.013976 0.014080 -0.002534
v -0.000000 0.018922 -0.006478
v 0.013976 0.012679 -0.006627
v 0.019765 -0.000991 -0.002894
v 0.013976 -0.014080 0.002534
v -0.004121 -0.027547 -0.018718
v -0.018097 -0.021305 -0.018569
v -0.023886 -0.007635 -0.022302
v -0.018097 0.005455 -0.027730
v -0.004121 0.010297 -0.031673
v 0.009855 0.004054 -0.031822
v 0.015644 -0.009616 -0.028089
v 0.009855 -0.022706 -0.022661
v -0.004121 -0.028562 -0.026791
v -0.017573 -0.023071 -0.021973
v -0.023145 -0.009118 -0.019042
v -0.017573 0.005124 -0.019716
v -0.004121 0.011311 -0.023600
v 0.009331 0.005820 -0.028418
v 0.014902 -0.008133 -0.031349
v 0.009331 -0.022374 -0.030675
v -0.010333 -0.027034 -0.045873
v -0.023785 -0.021543 -0.041055
v -0.029356 -0.007591 -0.038124
v -0.023785 0.006651 -0.038798
v -0.010333 0.012838 -0.042682
v 0.003119 0.007347 -0.047501
v 0.008690 -0.006606 -0.050431
v 0.003119 -0.020847 -0.049757
v -0.010333 -0.026919 -0.041610
v -0.023412 -0.020396 -0.037060
v -0.028830 -0.006083 -0.036738
v -0.023412 0.007635 -0.040832
v -0.010333 0.012723 -0.046945
v 0.002746 0.006200 -0.051495
v 0.008164 -0.008113 -0.051817
v 0.002746 -0.021831 -0.047723
v -0.021518 -0.030546 -0.068562
v -0.034597 -0.024023 -0.064012
v -0.040015 -0.009710 -0.063689
v -0.034597 0.004008 -0.067784
v -0.021518 0.009096 -0.073897
v -0.008439 0.002573 -0.078447
v -0.003022 -0.011740 -0.078769
v -0.008439 -0.025458 -0.074674
v -0.021518 -0.030661 -0.072829
v -0.034880 -0.025193 -0.067741
v -0.040414 -0.011249 -0.064697
v -0.034880 0.003001 -0.065479
v -0.021518 0.009211 -0.069630
v -0.008157 0.003742 -0.074717
v -0.002622 -0.010201 -0.077761
v -0.008157 -0.024451 -0.076979
v -0.030051 -0.028693 -0.097353
v -0.043412 -0.023225 -0.092266
v -0.048947 -0.009281 -0.089222
v -0.043412 0.004969 -0.090004
v -0.030051 0.011179 -0.094154
v -0.016689 0.005710 -0.099242
v -0.011155 -0.008233 -0.102286
v -0.016689 -0.022483 -0.101504
v 0.000000 -0.019949 -0.001422
v -0.013775 -0.013879 -0.004198
v -0.019481 0.000322 -0.004515
v -0.013775 0.014334 -0.002187
v -0.000000 0.019949 0.001422
v 0.013775 0.013879 0.004198
v 0.019481 -0.000322 0.004515
v 0.013775 -0.014334 0.002187
v 0.018573 -0.014265 -0.081164
v 0.004798 -0.008194 -0.083940
v -0.000908 0.006006 -0.084256
v 0.004798 0.020018 -0.081928
v 0.018573 0.025634 -0.078320
v 0.032349 0.019563 -0.075544
v 0.038054 0.005363 -0.075227
v 0.032349 -0.008649 -0.077555
v 0.018573 -0.004361 -0.062447
v 0.006375 -0.007606 -0.071106
v 0.001322 -0.003065 -0.084824
v 0.006375 0.006600 -0.095564
v 0.018573 0.015730 -0.097036
v 0.030772 0.018975 -0.088377
v 0.035825 0.014435 -0.074659
v 0.030772 0.004769 -0.063919
v 0.030093 -0.021343 -0.072311
v 0.017894 -0.024588 -0.080970
v 0.012841 -0.020048 -0.094688
v 0.017894 -0.010382 -0.105428
v 0.030093 -0.001252 -0.106900
v 0.042291 0.001993 -0.098241
v 0.047344 -0.002548 -0.084523
v 0.042291 -0.012213 -0.073783
v 0.030093 0.007649 -0.083201
v 0.015989 0.002432 -0.086059
v 0.010146 -0.010828 -0.090994
v 0.015989 -0.024363 -0.095116
v 0.030093 -0.030244 -0.096010
v 0.044197 -0.025027 -0.093152
v 0.050039 -0.011767 -0.088217
v 0.044197 0.001768 -0.084095
v 0.028561 0.000978 -0.063463
v 0.014457 -0.004240 -0.066320
v 0.008615 -0.017500 -0.071256
v 0.014457 -0.031035 -0.075377
v 0.028561 -0.036916 -0.076271
v 0.042666 -0.031699 -0.073413
v 0.048508 -0.018439 -0.068478
v 0.042666 -0.004904 -0.064356
v 0.028561 0.000579 -0.077348
v 0.014694 -0.005891 -0.077728
v 0.008950 -0.019436 -0.073504
v 0.014694 -0.032122 -0.067149
v 0.028561 -0.036517 -0.062386
v 0.042429 -0.030048 -0.062005
v 0.048173 -0.016502 -0.066230
v 0.042429 -0.003816 -0.072585
v 0.023129 0.010740 -0.052155
v 0.009262 0.004270 -0.052536
v 0.003518 -0.009275 -0.048311
v 0.009262 -0.021961 -0.041956
v 0.023129 -0.026357 -0.037193
v 0.036997 -0.019887 -0.036813
v 0.042741 -0.006342 -0.041037
v 0.036997 0.006344 -0.047392
v 0.000000 -0.019836 -0.002555
v -0.013469 -0.013475 -0.006082
v -0.019048 0.000779 -0.006047
v -0.013469 0.014577 -0.002469
v -0.000000 0.019836 0.002555
v 0.013469 0.013475 0.006082
v 0.019048 -0.000779 0.006047
v 0.013469 -0.014577 0.002469
v 0.024872 -0.009908 -0.079627
v 0.011403 -0.003547 -0.083154
v 0.005824 0.010707 -0.083118
v 0.011403 0.024505 -0.079540
v 0.024872 0.029764 -0.074516
v 0.038341 0.023404 -0.070989
v 0.043920 0.009149 -0.071025
v 0.038341 -0.004649 -0.074603
v 0.024872 0.001034 -0.059158
v 0.016173 -0.006348 -0.069364
v 0.012570 -0.004196 -0.084084
v 0.016173 0.006230 -0.094697
v 0.024872 0.018822 -0.094985
v 0.033571 0.026204 -0.084780
v 0.037174 0.024052 -0.070059
v 0.033571 0.013626 -0.059446
v 0.039888 -0.009458 -0.064368
v 0.031189 -0.016840 -0.074573
v 0.027586 -0.014688 -0.089294
v 0.031189 -0.004262 -0.099907
v 0.039888 0.008330 -0.100195
v 0.048587 0.015712 -0.089989
v 0.052190 0.013560 -0.075268
v 0.048587 0.003134 -0.064656
v 0.039888 0.015532 -0.070410
v 0.026420 0.013379 -0.077361
v 0.020842 0.003059 -0.087194
v 0.026420 -0.009384 -0.094149
v 0.039888 -0.016660 -0.094152
v 0.053355 -0.014508 -0.087201
v 0.058934 -0.004187 -0.077369
v 0.053355 0.008256 -0.070414
v 0.032748 0.002309 -0.052481
v 0.019280 0.000157 -0.059432
v 0.013702 -0.010164 -0.069264
v 0.019280 -0.022607 -0.076219
v 0.032748 -0.029883 -0.076223
v 0.046215 -0.027730 -0.069272
v 0.051794 -0.017410 -0.059439
v 0.046215 -0.004967 -0.052484
v 0.032748 0.001409 -0.077356
v 0.018637 -0.003653 -0.074261
v 0.012792 -0.014651 -0.065362
v 0.018637 -0.025143 -0.055871
v 0.032748 -0.028982 -0.051348
v 0.046859 -0.023920 -0.054443
v 0.052704 -0.012923 -0.063342
v 0.046859 -0.002431 -0.072833
v 0.030639 0.021989 -0.053307
v 0.016529 0.016927 -0.050213
v 0.010684 0.005929 -0.041313
v 0.016529 -0.004562 -0.031822
v 0.030639 -0.008402 -0.027299
v 0.044750 -0.003340 -0.030394
v 0.050595 0.007658 -0.039293
v 0.044750 0.018149 -0.048784
v 0.000000 -0.019554 -0.004198
v -0.013214 -0.012769 -0.007896
v -0.018687 0.001496 -0.006968
v -0.013214 0.014885 -0.001959
v -0.000000 0.019554 0.004198
v 0.013214 0.012769 0.007896
v 0.018687 -0.001496 0.006968
v 0.013214 -0.014885 0.001959
v 0.028867 -0.003667 -0.078199
v 0.015654 0.003118 -0.081897
v 0.010180 0.017383 -0.080969
v 0.015654 0.030772 -0.075960
v 0.028867 0.035442 -0.069803
v 0.042081 0.028657 -0.066105
v 0.047554 0.014391 -0.067032
v 0.042081 0.001002 -0.072042
v 0.028867 0.011062 -0.054592
v 0.015664 0.007559 -0.061499
v 0.010195 0.008934 -0.075729
v 0.015664 0.014383 -0.088948
v 0.028867 0.020713 -0.093410
v 0.042071 0.024216 -0.086503
v 0.047540 0.022840 -0.072272
v 0.042071 0.017392 -0.059054
v 0.036966 -0.009423 -0.059684
v 0.023763 -0.012926 -0.066592
v 0.018294 -0.011550 -0.080822
v 0.023763 -0.006102 -0.094040
v 0.036966 0.000228 -0.098503
v 0.050170 0.003731 -0.091596
v 0.055639 0.002356 -0.077365
v 0.050170 -0.003093 -0.064147
v 0.036966 0.013058 -0.069697
v 0.023245 0.009495 -0.075470
v 0.017561 -0.002324 -0.083366
v 0.023245 -0.015474 -0.088759
v 0.036966 -0.022253 -0.088490
v 0.050688 -0.018689 -0.082717
v 0.056372 -0.006871 -0.074821
v 0.050688 0.006279 -0.069429
v 0.031565 0.002882 -0.050578
v 0.017843 -0.000681 -0.056351
v 0.012160 -0.012499 -0.064246
v 0.017843 -0.025649 -0.069639
v 0.031565 -0.032428 -0.069371
v 0.045287 -0.028865 -0.063598
v 0.050971 -0.017047 -0.055702
v 0.045287 -0.003896 -0.050309
v 0.031565 0.002189 -0.070572
v 0.017765 -0.004418 -0.070090
v 0.012049 -0.017090 -0.063682
v 0.017765 -0.028405 -0.055102
v 0.031565 -0.031734 -0.049377
v 0.045365 -0.025128 -0.049859
v 0.051081 -0.012456 -0.056266
v 0.045365 -0.001141 -0.064846
v 0.025600 0.016297 -0.047992
v 0.011800 0.009691 -0.047509
v 0.006084 -0.002981 -0.041102
v 0.011800 -0.014296 -0.032522
v 0.025600 -0.017625 -0.026796
v 0.039400 -0.011019 -0.027278
v 0.045117 0.001653 -0.033686
v 0.039400 0.012968 -0.042266
v 0.000000 -0.019634 -0.003810
v -0.012836 -0.012753 -0.008520
v -0.018153 0.001599 -0.008240
v -0.012836 0.015014 -0.003133
v -0.000000 0.019634 0.003810
v 0.012836 0.012753 0.008520
v 0.018153 -0.001599 0.008240
v 0.012836 -0.015014 0.003133
v 0.029094 -0.007649 -0.065579
v 0.016257 -0.000768 -0.070289
v 0.010940 0.013584 -0.070009
v 0.016257 0.026999 -0.064902
v 0.029094 0.031619 -0.057960
v 0.041930 0.024738 -0.053249
v 0.047247 0.010386 -0.053529
v 0.041930 -0.003029 -0.058636
v 0.034115 0.011985 -0.042410
v 0.032220 -0.002150 -0.047970
v 0.028495 -0.008005 -0.061614
v 0.025120 -0.002150 -0.075348
v 0.024072 0.011985 -0.081129
v 0.025967 0.026120 -0.075568
v 0.029692 0.031975 -0.061924
v 0.033068 0.026120 -0.048190
v 0.054081 0.011347 -0.047588
v 0.052186 -0.002789 -0.053148
v 0.048461 -0.008644 -0.066792
v 0.045086 -0.002789 -0.080527
v 0.044038 0.011347 -0.086307
v 0.045933 0.025482 -0.080747
v 0.049658 0.031337 -0.067103
v 0.053033 0.025482 -0.053368
v 0.045926 0.011347 -0.047195
v 0.048482 -0.002698 -0.052720
v 0.051377 -0.008515 -0.066580
v 0.052914 -0.002698 -0.080655
v 0.052193 0.011347 -0.086700
v 0.049637 0.025391 -0.081175
v 0.046742 0.031208 -0.067315
v 0.045205 0.025391 -0.053240
v 0.066826 0.013847 -0.043879
v 0.069383 -0.000197 -0.049404
v 0.072278 -0.006015 -0.063264
v 0.073815 -0.000197 -0.077339
v 0.073094 0.013847 -0.083385
v 0.070537 0.027891 -0.077859
v 0.067642 0.033709 -0.063999
v 0.066105 0.027891 -0.049924
v 0.075843 0.013847 -0.044516
v 0.074124 -0.000295 -0.050117
v 0.069967 -0.006153 -0.063634
v 0.065805 -0.000295 -0.077150
v 0.064077 0.013847 -0.082747
v 0.065795 0.027989 -0.077147
v 0.069953 0.033847 -0.063630
v 0.074115 0.027989 -0.050114
v 0.092843 0.013853 -0.049748
v 0.091125 -0.000289 -0.055348
v 0.086967 -0.006147 -0.068866
v 0.082805 -0.000289 -0.082381
v 0.081077 0.013853 -0.087979
v 0.082796 0.027995 -0.082379
v 0.086953 0.033853 -0.068861
v 0.091115 0.027995 -0.055346
v -0.015000 -0.015000 -0.015000
v 0.015000 -0.015000 -0.015000
v 0.015000 0.015000 -0.015000
v -0.015000 0.015000 -0.015000
v -0.015000 -0.015000 0.015000
v 0.015000 -0.015000 0.015000
v 0.015000 0.015000 0.015000
v -0.015000 0.015000 0.015000
v -0.019121 -0.023625 -0.040196
v 0.010879 -0.023625 -0.040196
v 0.010879 0.006375 -0.040196
v -0.019121 0.006375 -0.040196
v -0.019121 -0.023625 -0.010196
v 0.010879 -0.023625 -0.010196
v 0.010879 0.006375 -0.010196
v -0.019121 0.006375 -0.010196
v -0.025333 -0.022098 -0.059278
v 0.004667 -0.022098 -0.059278
v 0.004667 0.007902 -0.059278
v -0.025333 0.007902 -0.059278
v -0.025333 -0.022098 -0.029278
v 0.004667 -0.022098 -0.029278
v 0.004667 0.007902 -0.029278
v -0.025333 0.007902 -0.029278
v -0.036518 -0.025725 -0.086229
v -0.006518 -0.025725 -0.086229
v -0.006518 0.004275 -0.086229
v -0.036518 0.004275 -0.086229
v -0.036518 -0.025725 -0.056229
v -0.006518 -0.025725 -0.056229
v -0.006518 0.004275 -0.056229
v -0.036518 0.004275 -0.056229
v -0.045051 -0.023757 -0.110754
v -0.015051 -0.023757 -0.110754
v -0.015051 0.006243 -0.110754
v -0.045051 0.006243 -0.110754
v -0.045051 -0.023757 -0.080754
v -0.015051 -0.023757 -0.080754
v -0.015051 0.006243 -0.080754
v -0.045051 0.006243 -0.080754
v 0.003573 -0.009315 -0.094742
v 0.033573 -0.009315 -0.094742
v 0.033573 0.020685 -0.094742
v 0.003573 0.020685 -0.094742
v 0.003573 -0.009315 -0.064742
v 0.033573 -0.009315 -0.064742
v 0.033573 0.020685 -0.064742
v 0.003573 0.020685 -0.064742
v 0.015093 -0.026298 -0.104606
v 0.045093 -0.026298 -0.104606
v 0.045093 0.003702 -0.104606
v 0.015093 0.003702 -0.104606
v 0.015093 -0.026298 -0.074606
v 0.045093 -0.026298 -0.074606
v 0.045093 0.003702 -0.074606
v 0.015093 0.003702 -0.074606
v 0.013561 -0.032969 -0.084867
v 0.043561 -0.032969 -0.084867
v 0.043561 -0.002969 -0.084867
v 0.013561 -0.002969 -0.084867
v 0.013561 -0.032969 -0.054867
v 0.043561 -0.032969 -0.054867
v 0.043561 -0.002969 -0.054867
v 0.013561 -0.002969 -0.054867
v 0.008129 -0.022809 -0.059674
v 0.038129 -0.022809 -0.059674
v 0.038129 0.007191 -0.059674
v 0.008129 0.007191 -0.059674
v 0.008129 -0.022809 -0.029674
v 0.038129 -0.022809 -0.029674
v 0.038129 0.007191 -0.029674
v 0.008129 0.007191 -0.029674
v 0.009872 -0.005072 -0.092072
v 0.039872 -0.005072 -0.092072
v 0.039872 0.024928 -0.092072
v 0.009872 0.024928 -0.092072
v 0.009872 -0.005072 -0.062072
v 0.039872 -0.005072 -0.062072
v 0.039872 0.024928 -0.062072
v 0.009872 0.024928 -0.062072
v 0.024888 -0.015564 -0.097281
v 0.054888 -0.015564 -0.097281
v 0.054888 0.014436 -0.097281
v 0.024888 0.014436 -0.097281
v 0.024888 -0.015564 -0.067281
v 0.054888 -0.015564 -0.067281
v 0.054888 0.014436 -0.067281
v 0.024888 0.014436 -0.067281
v 0.017748 -0.028787 -0.079352
v 0.047748 -0.028787 -0.079352
v 0.047748 0.001213 -0.079352
v 0.017748 0.001213 -0.079352
v 0.017748 -0.028787 -0.049352
v 0.047748 -0.028787 -0.049352
v 0.047748 0.001213 -0.049352
v 0.017748 0.001213 -0.049352
v 0.015639 -0.008207 -0.055303
v 0.045639 -0.008207 -0.055303
v 0.045639 0.021793 -0.055303
v 0.015639 0.021793 -0.055303
v 0.015639 -0.008207 -0.025303
v 0.045639 -0.008207 -0.025303
v 0.045639 0.021793 -0.025303
v 0.015639 0.021793 -0.025303
v 0.013867 0.000887 -0.089001
v 0.043867 0.000887 -0.089001
v 0.043867 0.030887 -0.089001
v 0.013867 0.030887 -0.089001
v 0.013867 0.000887 -0.059001
v 0.043867 0.000887 -0.059001
v 0.043867 0.030887 -0.059001
v 0.013867 0.030887 -0.059001
v 0.021966 -0.019597 -0.094094
v 0.051966 -0.019597 -0.094094
v 0.051966 0.010403 -0.094094
v 0.021966 0.010403 -0.094094
v 0.021966 -0.019597 -0.064094
v 0.051966 -0.019597 -0.064094
v 0.051966 0.010403 -0.064094
v 0.021966 0.010403 -0.064094
v 0.016565 -0.029773 -0.074974
v 0.046565 -0.029773 -0.074974
v 0.046565 0.000227 -0.074974
v 0.016565 0.000227 -0.074974
v 0.016565 -0.029773 -0.044974
v 0.046565 -0.029773 -0.044974
v 0.046565 0.000227 -0.044974
v 0.016565 0.000227 -0.044974
v 0.010600 -0.015664 -0.052394
v 0.040600 -0.015664 -0.052394
v 0.040600 0.014336 -0.052394
v 0.010600 0.014336 -0.052394
v 0.010600 -0.015664 -0.022394
v 0.040600 -0.015664 -0.022394
v 0.040600 0.014336 -0.022394
v 0.010600 0.014336 -0.022394
v 0.014094 -0.003015 -0.076769
v 0.044094 -0.003015 -0.076769
v 0.044094 0.026985 -0.076769
v 0.014094 0.026985 -0.076769
v 0.014094 -0.003015 -0.046769
v 0.044094 -0.003015 -0.046769
v 0.044094 0.026985 -0.046769
v 0.014094 0.026985 -0.046769
v 0.034059 -0.003653 -0.081948
v 0.064059 -0.003653 -0.081948
v 0.064059 0.026347 -0.081948
v 0.034059 0.026347 -0.081948
v 0.034059 -0.003653 -0.051948
v 0.064059 -0.003653 -0.051948
v 0.064059 0.026347 -0.051948
v 0.034059 0.026347 -0.051948
v 0.054960 -0.001153 -0.078632
v 0.084960 -0.001153 -0.078632
v 0.084960 0.028847 -0.078632
v 0.054960 0.028847 -0.078632
v 0.054960 -0.001153 -0.048632
v 0.084960 -0.001153 -0.048632
v 0.084960 0.028847 -0.048632
v 0.054960 0.028847 -0.048632
v 0.071960 -0.001147 -0.083863
v 0.101960 -0.001147 -0.083863
v 0.101960 0.028853 -0.083863
v 0.071960 0.028853 -0.083863
v 0.071960 -0.001147 -0.053863
v 0.101960 -0.001147 -0.053863
v 0.101960 0.028853 -0.053863
v 0.071960 0.028853 -0.053863
v 0.000000 -0.019088 0.005969
v -0.011849 -0.015802 -0.003147
v -0.016757 -0.003258 -0.010420
v -0.011849 0.011194 -0.011589
v -0.000000 0.019088 -0.005969
v 0.011849 0.015802 0.003147
v 0.016757 0.003258 0.010420
v 0.011849 -0.011194 0.011589
v 0.018780 -0.027692 -0.021544
v 0.006931 -0.024405 -0.030660
v 0.002023 -0.011862 -0.037933
v 0.006931 0.002590 -0.039101
v 0.018780 0.010485 -0.033482
v 0.030630 0.007198 -0.024366
v 0.035538 -0.005345 -0.017093
v 0.030630 -0.019797 -0.015924
v 0.018780 -0.028461 -0.025130
v 0.006785 -0.023537 -0.033265
v 0.001816 -0.009865 -0.038030
v 0.006785 0.004546 -0.036634
v 0.018780 0.011254 -0.029895
v 0.030776 0.006330 -0.021761
v 0.035745 -0.007341 -0.016996
v 0.030776 -0.021753 -0.018391
v 0.035864 -0.031721 -0.052296
v 0.023869 -0.026797 -0.060431
v 0.018900 -0.013125 -0.065196
v 0.023869 0.001286 -0.063800
v 0.035864 0.007995 -0.057061
v 0.047860 0.003071 -0.048927
v 0.052829 -0.010601 -0.044161
v 0.047860 -0.025012 -0.045557
v 0.035864 -0.031684 -0.052010
v 0.023480 -0.026790 -0.059559
v 0.018350 -0.013152 -0.064249
v 0.023480 0.001242 -0.063333
v 0.035864 0.007958 -0.057347
v 0.048249 0.003064 -0.049798
v 0.053378 -0.010575 -0.045108
v 0.048249 -0.024968 -0.046024
v 0.056722 -0.036731 -0.089499
v 0.044337 -0.031837 -0.097048
v 0.039208 -0.018199 -0.101738
v 0.044337 -0.003806 -0.100822
v 0.056722 0.002911 -0.094836
v 0.069106 -0.001983 -0.087287
v 0.074236 -0.015622 -0.082597
v 0.069106 -0.030015 -0.083513
v 0.056722 -0.036742 -0.094754
v 0.045711 -0.029786 -0.102798
v 0.041151 -0.015287 -0.104614
v 0.045711 -0.001739 -0.099140
v 0.056722 0.002922 -0.089581
v 0.067732 -0.004035 -0.081538
v 0.072292 -0.018533 -0.079721
v 0.067732 -0.032081 -0.085196
v 0.074569 -0.033879 -0.116709
v 0.063559 -0.026923 -0.124752
v 0.058998 -0.012424 -0.126569
v 0.063559 0.001124 -0.121094
v 0.074569 0.005785 -0.111536
v 0.085579 -0.001171 -0.103492
v 0.090140 -0.015670 -0.101676
v 0.085579 -0.029218 -0.107150
v 0.000000 -0.019806 -0.002782
v -0.013865 -0.013617 -0.004726
v -0.019608 0.000548 -0.003902
v -0.013865 0.014392 -0.000792
v -0.000000 0.019806 0.002782
v 0.013865 0.013617 0.004726
v 0.019608 -0.000548 0.003902
v 0.013865 -0.014392 0.000792
v 0.019358 -0.006408 -0.098170
v 0.005493 -0.000220 -0.100115
v -0.000250 0.013945 -0.099291
v 0.005493 0.027789 -0.096181
v 0.019358 0.033203 -0.092607
v 0.033223 0.027014 -0.090662
v 0.038966 0.012849 -0.091486
v 0.033223 -0.000995 -0.094596
v 0.019358 -0.000833 -0.081335
v 0.006903 0.008043 -0.080684
v 0.001744 0.020054 -0.088648
v 0.006903 0.028167 -0.100560
v 0.019358 0.027627 -0.109442
v 0.031813 0.018752 -0.110092
v 0.036972 0.006740 -0.102129
v 0.031813 -0.001372 -0.090217
v 0.014929 -0.006619 -0.087194
v 0.002474 0.002256 -0.086544
v -0.002685 0.014268 -0.094507
v 0.002474 0.022380 -0.106419
v 0.014929 0.021841 -0.115301
v 0.027383 0.012966 -0.115951
v 0.032542 0.000954 -0.107988
v 0.027383 -0.007159 -0.096076
v 0.014929 0.022501 -0.087895
v 0.000959 0.019609 -0.093445
v -0.004828 0.009689 -0.103565
v 0.000959 -0.001449 -0.112327
v 0.014929 -0.007280 -0.114599
v 0.028898 -0.004388 -0.109050
v 0.034685 0.005533 -0.098930
v 0.028898 0.016670 -0.090167
v 0.011736 0.008976 -0.072812
v -0.002233 0.006084 -0.078361
v -0.008020 -0.003836 -0.088481
v -0.002233 -0.014974 -0.097244
v 0.011736 -0.020805 -0.099516
v 0.025706 -0.017913 -0.093966
v 0.031493 -0.007993 -0.083846
v 0.025706 0.003145 -0.075084
v 0.011736 0.011515 -0.076354
v -0.001966 0.008125 -0.082275
v -0.007642 -0.003489 -0.090474
v -0.001966 -0.016523 -0.096148
v 0.011736 -0.023344 -0.095973
v 0.025439 -0.019954 -0.090052
v 0.031115 -0.008341 -0.081853
v 0.025439 0.004694 -0.076179
v 0.006304 0.001076 -0.057807
v -0.007399 -0.002313 -0.063728
v -0.013075 -0.013927 -0.071927
v -0.007399 -0.026962 -0.077600
v 0.006304 -0.033782 -0.077425
v 0.020007 -0.030393 -0.071504
v 0.025683 -0.018779 -0.063306
v 0.020007 -0.005744 -0.057632
v 0.000000 -0.019774 -0.003001
v -0.014055 -0.013747 -0.003669
v -0.019877 0.000332 -0.002188
v -0.014055 0.014217 0.000575
v -0.000000 0.019774 0.003001
v 0.014055 0.013747 0.003669
v 0.019877 -0.000332 0.002188
v 0.014055 -0.014217 -0.000575
v 0.010366 -0.005800 -0.095064
v -0.003689 0.000226 -0.095732
v -0.009511 0.014306 -0.094251
v -0.003689 0.028190 -0.091488
v 0.010366 0.033747 -0.089062
v 0.024421 0.027721 -0.088394
v 0.030243 0.013641 -0.089875
v 0.024421 -0.000243 -0.092638
v 0.010366 0.002004 -0.076040
v -0.003499 0.003280 -0.082399
v -0.009243 0.010820 -0.094419
v -0.003499 0.020207 -0.105059
v 0.010366 0.025943 -0.108086
v 0.024231 0.024667 -0.101727
v 0.029975 0.017127 -0.089707
v 0.024231 0.007740 -0.079067
v 0.013212 -0.009351 -0.084523
v -0.000654 -0.008075 -0.090882
v -0.006397 -0.000535 -0.102902
v -0.000654 0.008852 -0.113541
v 0.013212 0.014588 -0.116568
v 0.027077 0.013313 -0.110209
v 0.032820 0.005773 -0.098189
v 0.027077 -0.003615 -0.087550
v 0.013212 0.016774 -0.086416
v -0.000444 0.015225 -0.093157
v -0.006101 0.006292 -0.104225
v -0.000444 -0.004793 -0.113138
v 0.013212 -0.011536 -0.114675
v 0.026867 -0.009988 -0.107935
v 0.032524 -0.001054 -0.096866
v 0.026867 0.010031 -0.087953
v 0.006185 -0.001666 -0.067943
v -0.007471 -0.003214 -0.074684
v -0.013128 -0.012148 -0.085752
v -0.007471 -0.023232 -0.094666
v 0.006185 -0.029976 -0.096202
v 0.019841 -0.028427 -0.089462
v 0.025497 -0.019494 -0.078393
v 0.019841 -0.008409 -0.069480
v 0.006185 0.001652 -0.072341
v -0.007957 -0.003399 -0.075312
v -0.013814 -0.015726 -0.082243
v -0.007957 -0.028109 -0.089074
v 0.006185 -0.033293 -0.091804
v 0.020326 -0.028243 -0.088834
v 0.026184 -0.015915 -0.081903
v 0.020326 -0.003533 -0.075071
v 0.005843 -0.015408 -0.041711
v -0.008298 -0.020459 -0.044682
v -0.014156 -0.032786 -0.051613
v -0.008298 -0.045169 -0.058444
v 0.005843 -0.050353 -0.061174
v 0.019985 -0.045303 -0.058204
v 0.025843 -0.032975 -0.051273
v 0.019985 -0.020593 -0.044441
v 0.000000 -0.019864 -0.002328
v -0.014064 -0.013873 -0.003125
v -0.019889 0.000245 -0.002092
v -0.014064 0.014219 0.000168
v -0.000000 0.019864 0.002328
v 0.014064 0.013873 0.003125
v 0.019889 -0.000245 0.002092
v 0.014064 -0.014219 -0.000168
v 0.009207 -0.009741 -0.088690
v -0.004857 -0.003749 -0.089486
v -0.010682 0.010368 -0.088453
v -0.004857 0.024343 -0.086194
v 0.009207 0.029987 -0.084033
v 0.023270 0.023996 -0.083236
v 0.029095 0.009878 -0.084270
v 0.023270 -0.004096 -0.086529
v 0.009207 0.004733 -0.067101
v -0.002189 0.014377 -0.070485
v -0.006909 0.021529 -0.083169
v -0.002189 0.022000 -0.097723
v 0.009207 0.015514 -0.105621
v 0.020602 0.005870 -0.102237
v 0.025323 -0.001282 -0.089553
v 0.020602 -0.001753 -0.075000
v 0.002406 -0.004178 -0.069595
v -0.008990 0.005465 -0.072979
v -0.013710 0.012618 -0.085663
v -0.008990 0.013089 -0.100217
v 0.002406 0.006603 -0.108115
v 0.013802 -0.003041 -0.104731
v 0.018522 -0.010193 -0.092047
v 0.013802 -0.010664 -0.077494
v 0.002406 0.017950 -0.077907
v -0.011701 0.013590 -0.081944
v -0.017545 0.001980 -0.090029
v -0.011701 -0.010080 -0.097427
v 0.002406 -0.015525 -0.099803
v 0.016513 -0.011166 -0.095766
v 0.022357 0.000444 -0.087681
v 0.016513 0.012504 -0.080284
v 0.001168 0.008310 -0.063170
v -0.012940 0.003951 -0.067207
v -0.018783 -0.007659 -0.075292
v -0.012940 -0.019719 -0.082690
v 0.001168 -0.025165 -0.085066
v 0.015275 -0.020805 -0.081029
v 0.021118 -0.009195 -0.072944
v 0.015275 0.002865 -0.065547
v 0.001168 0.007387 -0.061874
v -0.012171 -0.000122 -0.061745
v -0.017696 -0.012495 -0.068864
v -0.012171 -0.022486 -0.079061
v 0.001168 -0.024241 -0.086362
v 0.014506 -0.016732 -0.086492
v 0.020031 -0.004359 -0.079373
v 0.014506 0.005632 -0.069176
v 0.007307 -0.003283 -0.048094
v -0.006031 -0.010792 -0.047964
v -0.011556 -0.023165 -0.055083
v -0.006031 -0.033156 -0.065280
v 0.007307 -0.034911 -0.072582
v 0.020646 -0.027402 -0.072711
v 0.026171 -0.015029 -0.065592
v 0.020646 -0.005038 -0.055395
v 0.000000 -0.019890 -0.002092
v -0.014141 -0.014082 -0.001309
v -0.019999 -0.000025 0.000241
v -0.014141 0.014047 0.001649
v -0.000000 0.019890 0.002092
v 0.014141 0.014082 0.001309
v 0.019999 0.000025 -0.000241
v 0.014141 -0.014047 -0.001649
v -0.000928 -0.011865 -0.078403
v -0.015069 -0.006057 -0.077621
v -0.020926 0.008000 -0.076071
v -0.015069 0.022072 -0.074663
v -0.000928 0.027915 -0.074220
v 0.013213 0.022108 -0.075003
v 0.019071 0.008050 -0.076552
v 0.013213 -0.006022 -0.077961
v -0.000928 -0.008657 -0.065279
v -0.008407 0.002850 -0.058499
v -0.011505 0.017389 -0.062154
v -0.008407 0.026442 -0.074102
v -0.000928 0.024707 -0.087344
v 0.006551 0.013200 -0.094124
v 0.009649 -0.001338 -0.090470
v 0.006551 -0.010392 -0.078521
v -0.019351 -0.014989 -0.074854
v -0.026830 -0.003482 -0.068075
v -0.029928 0.011056 -0.071729
v -0.026830 0.020109 -0.083677
v -0.019351 0.018374 -0.096920
v -0.011872 0.006867 -0.103699
v -0.008774 -0.007671 -0.100045
v -0.011872 -0.016724 -0.088097
v -0.014680 0.001692 -0.105334
v -0.014114 -0.012309 -0.099174
v -0.016615 -0.018109 -0.085230
v -0.020719 -0.012309 -0.071671
v -0.024021 0.001692 -0.066440
v -0.024588 0.015694 -0.072600
v -0.022086 0.021493 -0.086544
v -0.017983 0.015694 -0.100103
v -0.033201 -0.001014 -0.109782
v -0.032635 -0.015015 -0.103622
v -0.035136 -0.020815 -0.089678
v -0.039240 -0.015015 -0.076119
v -0.042542 -0.001014 -0.070888
v -0.043108 0.012988 -0.077049
v -0.040607 0.018787 -0.090992
v -0.036503 0.012988 -0.104551
v -0.037439 -0.001014 -0.110330
v -0.040097 -0.014928 -0.104529
v -0.041451 -0.020691 -0.090413
v -0.040709 -0.014928 -0.076251
v -0.038304 -0.001014 -0.070340
v -0.035646 0.012900 -0.076141
v -0.034292 0.018663 -0.090258
v -0.035034 0.012900 -0.104419
v -0.050574 0.001377 -0.110615
v -0.053232 -0.012537 -0.104813
v -0.054587 -0.018300 -0.090697
v -0.053844 -0.012537 -0.076535
v -0.051440 0.001377 -0.070624
v -0.048782 0.015291 -0.076426
v -0.047427 0.021054 -0.090542
v -0.048170 0.015291 -0.104703
v -0.015000 -0.015000 -0.015000
v 0.015000 -0.015000 -0.015000
v 0.015000 0.015000 -0.015000
v -0.015000 0.015000 -0.015000
v -0.015000 -0.015000 0.015000
v 0.015000 -0.015000 0.015000
v 0.015000 0.015000 0.015000
v -0.015000 0.015000 0.015000
v 0.003780 -0.023603 -0.042513
v 0.033780 -0.023603 -0.042513
v 0.033780 0.006397 -0.042513
v 0.003780 0.006397 -0.042513
v 0.003780 -0.023603 -0.012513
v 0.033780 -0.023603 -0.012513
v 0.033780 0.006397 -0.012513
v 0.003780 0.006397 -0.012513
v 0.020864 -0.026863 -0.069679
v 0.050864 -0.026863 -0.069679
v 0.050864 0.003137 -0.069679
v 0.020864 0.003137 -0.069679
v 0.020864 -0.026863 -0.039679
v 0.050864 -0.026863 -0.039679
v 0.050864 0.003137 -0.039679
v 0.020864 0.003137 -0.039679
v 0.041722 -0.031910 -0.107168
v 0.071722 -0.031910 -0.107168
v 0.071722 -0.001910 -0.107168
v 0.041722 -0.001910 -0.107168
v 0.041722 -0.031910 -0.077168
v 0.071722 -0.031910 -0.077168
v 0.071722 -0.001910 -0.077168
v 0.041722 -0.001910 -0.077168
v 0.059569 -0.029047 -0.129122
v 0.089569 -0.029047 -0.129122
v 0.089569 0.000953 -0.129122
v 0.059569 0.000953 -0.129122
v 0.059569 -0.029047 -0.099122
v 0.089569 -0.029047 -0.099122
v 0.089569 0.000953 -0.099122
v 0.059569 0.000953 -0.099122
v 0.004358 -0.001603 -0.110388
v 0.034358 -0.001603 -0.110388
v 0.034358 0.028397 -0.110388
v 0.004358 0.028397 -0.110388
v 0.004358 -0.001603 -0.080388
v 0.034358 -0.001603 -0.080388
v 0.034358 0.028397 -0.080388
v 0.004358 0.028397 -0.080388
v -0.000071 -0.007389 -0.116247
v 0.029929 -0.007389 -0.116247
v 0.029929 0.022611 -0.116247
v -0.000071 0.022611 -0.116247
v -0.000071 -0.007389 -0.086247
v 0.029929 -0.007389 -0.086247
v 0.029929 0.022611 -0.086247
v -0.000071 0.022611 -0.086247
v -0.003264 -0.020915 -0.101164
v 0.026736 -0.020915 -0.101164
v 0.026736 0.009085 -0.101164
v -0.003264 0.009085 -0.101164
v -0.003264 -0.020915 -0.071164
v 0.026736 -0.020915 -0.071164
v 0.026736 0.009085 -0.071164
v -0.003264 0.009085 -0.071164
v -0.008696 -0.031353 -0.082616
v 0.021304 -0.031353 -0.082616
v 0.021304 -0.001353 -0.082616
v -0.008696 -0.001353 -0.082616
v -0.008696 -0.031353 -0.052616
v 0.021304 -0.031353 -0.052616
v 0.021304 -0.001353 -0.052616
v -0.008696 -0.001353 -0.052616
v -0.004634 -0.001026 -0.107063
v 0.025366 -0.001026 -0.107063
v 0.025366 0.028974 -0.107063
v -0.004634 0.028974 -0.107063
v -0.004634 -0.001026 -0.077063
v 0.025366 -0.001026 -0.077063
v 0.025366 0.028974 -0.077063
v -0.004634 0.028974 -0.077063
v -0.001788 -0.012381 -0.115546
v 0.028212 -0.012381 -0.115546
v 0.028212 0.017619 -0.115546
v -0.001788 0.017619 -0.115546
v -0.001788 -0.012381 -0.085546
v 0.028212 -0.012381 -0.085546
v 0.028212 0.017619 -0.085546
v -0.001788 0.017619 -0.085546
v -0.008815 -0.030821 -0.097073
v 0.021185 -0.030821 -0.097073
v 0.021185 -0.000821 -0.097073
v -0.008815 -0.000821 -0.097073
v -0.008815 -0.030821 -0.067073
v 0.021185 -0.030821 -0.067073
v 0.021185 -0.000821 -0.067073
v -0.008815 -0.000821 -0.067073
v -0.009157 -0.047881 -0.066443
v 0.020843 -0.047881 -0.066443
v 0.020843 -0.017881 -0.066443
v -0.009157 -0.017881 -0.066443
v -0.009157 -0.047881 -0.036443
v 0.020843 -0.047881 -0.036443
v 0.020843 -0.017881 -0.036443
v -0.009157 -0.017881 -0.036443
v -0.005793 -0.004877 -0.101361
v 0.024207 -0.004877 -0.101361
v 0.024207 0.025123 -0.101361
v -0.005793 0.025123 -0.101361
v -0.005793 -0.004877 -0.071361
v 0.024207 -0.004877 -0.071361
v 0.024207 0.025123 -0.071361
v -0.005793 0.025123 -0.071361
v -0.012594 -0.013788 -0.103855
v 0.017406 -0.013788 -0.103855
v 0.017406 0.016212 -0.103855
v -0.012594 0.016212 -0.103855
v -0.012594 -0.013788 -0.073855
v 0.017406 -0.013788 -0.073855
v 0.017406 0.016212 -0.073855
v -0.012594 0.016212 -0.073855
v -0.013832 -0.023427 -0.089118
v 0.016168 -0.023427 -0.089118
v 0.016168 0.006573 -0.089118
v -0.013832 0.006573 -0.089118
v -0.013832 -0.023427 -0.059118
v 0.016168 -0.023427 -0.059118
v 0.016168 0.006573 -0.059118
v -0.013832 0.006573 -0.059118
v -0.007693 -0.034097 -0.075338
v 0.022307 -0.034097 -0.075338
v 0.022307 -0.004097 -0.075338
v -0.007693 -0.004097 -0.075338
v -0.007693 -0.034097 -0.045338
v 0.022307 -0.034097 -0.045338
v 0.022307 -0.004097 -0.045338
v -0.007693 -0.004097 -0.045338
v -0.015928 -0.006975 -0.091312
v 0.014072 -0.006975 -0.091312
v 0.014072 0.023025 -0.091312
v -0.015928 0.023025 -0.091312
v -0.015928 -0.006975 -0.061312
v 0.014072 -0.006975 -0.061312
v 0.014072 0.023025 -0.061312
v -0.015928 0.023025 -0.061312
v -0.034351 -0.013308 -0.100887
v -0.004351 -0.013308 -0.100887
v -0.004351 0.016692 -0.100887
v -0.034351 0.016692 -0.100887
v -0.034351 -0.013308 -0.070887
v -0.004351 -0.013308 -0.070887
v -0.004351 0.016692 -0.070887
v -0.034351 0.016692 -0.070887
v -0.052871 -0.016014 -0.105335
v -0.022871 -0.016014 -0.105335
v -0.022871 0.013986 -0.105335
v -0.052871 0.013986 -0.105335
v -0.052871 -0.016014 -0.075335
v -0.022871 -0.016014 -0.075335
v -0.022871 0.013986 -0.075335
v -0.052871 0.013986 -0.075335
v -0.066007 -0.013623 -0.105619
v -0.036007 -0.013623 -0.105619
v -0.036007 0.016377 -0.105619
v -0.066007 0.016377 -0.105619
v -0.066007 -0.013623 -0.075619
v -0.036007 -0.013623 -0.075619
v -0.036007 0.016377 -0.075619
v -0.066007 0.016377 -0.075619
f 1 2 9
f 2 10 9
f 2 3 10
f 3 11 10
f 3 4 11
f 4 12 11
f 4 5 12
f 5 13 12
f 5 6 13
f 6 14 13
f 6 7 14
f 7 15 14
f 7 8 15
f 8 16 15
f 8 1 16
f 1 9 16
f 17 18 25
f 18 26 25
f 18 19 26
f 19 27 26
f 19 20 27
f 20 28 27
f 20 21 28
f 21 29 28
f 21 22 29
f 22 30 29
f 22 23 30
f 23 31 30
f 23 24 31
f 24 32 31
f 24 17 32
f 17 25 32
f 33 34 41
f 34 42 41
f 34 35 42
f 35 43 42
f 35 36 43
f 36 44 43
f 36 37 44
f 37 45 44
f 37 38 45
f 38 46 45
f 38 39 46
f 39 47 46
f 39 40 47
f 40 48 47
f 40 33 48
f 33 41 48
f 49 50 57
f 50 58 57
f 50 51 58
f 51 59 58
f 51 52 59
f 52 60 59
f 52 53 60
f 53 61 60
f 53 54 61
f 54 62 61
f 54 55 62
f 55 63 62
f 55 56 63
f 56 64 63
f 56 49 64
f 49 57 64
f 65 66 73
f 66 74 73
f 66 67 74
f 67 75 74
f 67 68 75
f 68 76 75
f 68 69 76
f 69 77 76
f 69 70 77
f 70 78 77
f 70 71 78
f 71 79 78
f 71 72 79
f 72 80 79
f 72 65 80
f 65 73 80
f 81 82 89
f 82 90 89
f 82 83 90
f 83 91 90
f 83 84 91
f 84 92 91
f 84 85 92
f 85 93 92
f 85 86 93
f 86 94 93
f 86 87 94
f 87 95 94
f 87 88 95
f 88 96 95
f 88 81 96
f 81 89 96
f 97 98 105
f 98 106 105
f 98 99 106
f 99 107 106
f 99 100 107
f 100 108 107
f 100 101 108
f 101 109 108
f 101 102 109
f 102 110 109
f 102 103 110
f 103 111 110
f 103 104 111
f 104 112 111
f 104 97 112
f 97 105 112
f 113 114 121
f 114 122 121
f 114 115 122
f 115 123 122
f 115 116 123
f 116 124 123
f 116 117 124
f 117 125 124
f 117 118 125
f 118 126 125
f 118 119 126
f 119 127 126
f 119 120 127
f 120 128 127
f 120 113 128
f 113 121 128
f 129 130 137
f 130 138 137
f 130 131 138
f 131 139 138
f 131 132 139
f 132 140 139
f 132 133 140
f 133 141 140
f 133 134 141
f 134 142 141
f 134 135 142
f 135 143 142
f 135 136 143
f 136 144 143
f 136 129 144
f 129 137 144
f 145 146 153
f 146 154 153
f 146 147 154
f 147 155 154
f 147 148 155
f 148 156 155
f 148 149 156
f 149 157 156
f 149 150 157
f 150 158 157
f 150 151 158
f 151 159 158
f 151 152 159
f 152 160 159
f 152 145 160
f 145 153 160
f 161 162 169
f 162 170 169
f 162 163 170
f 163 171 170
f 163 164 171
f 164 172 171
f 164 165 172
f 165 173 172
f 165 166 173
f 166 174 173
f 166 167 174
f 167 175 174
f 167 168 175
f 168 176 175
f 168 161 176
f 161 169 176
f 177 178 185
f 178 186 185
f 178 179 186
f 179 187 186
f 179 180 187
f 180 188 187
f 180 181 188
f 181 189 188
f 181 182 189
f 182 190 189
f 182 183 190
f 183 191 190
f 183 184 191
f 184 192 191
f 184 177 192
f 177 185 192
f 193 194 201
f 194 202 201
f 194 195 202
f 195 203 202
f 195 196 203
f 196 204 203
f 196 197 204
f 197 205 204
f 197 198 205
f 198 206 205
f 198 199 206
f 199 207 206
f 199 200 207
f 200 208 207
f 200 193 208
f 193 201 208
f 209 210 217
f 210 218 217
f 210 211 218
f 211 219 218
f 211 212 219
f 212 220 219
f 212 213 220
f 213 221 220
f 213 214 221
f 214 222 221
f 214 215 222
f 215 223 222
f 215 216 223
f 216 224 223
f 216 209 224
f 209 217 224
f 225 226 233
f 226 234 233
f 226 227 234
f 227 235 234
f 227 228 235
f 228 236 235
f 228 229 236
f 229 237 236
f 229 230 237
f 230 238 237
f 230 231 238
f 231 239 238
f 231 232 239
f 232 240 239
f 232 225 240
f 225 233 240
f 241 242 249
f 242 250 249
f 242 243 250
f 243 251 250
f 243 244 251
f 244 252 251
f 244 245 252
f 245 253 252
f 245 246 253
f 246 254 253
f 246 247 254
f 247 255 254
f 247 248 255
f 248 256 255
f 248 241 256
f 241 249 256
f 257 258 265
f 258 266 265
f 258 259 266
f 259 267 266
f 259 260 267
f 260 268 267
f 260 261 268
f 261 269 268
f 261 262 269
f 262 270 269
f 262 263 270
f 263 271 270
f 263 264 271
f 264 272 271
f 264 257 272
f 257 265 272
f 273 274 281
f 274 282 281
f 274 275 282
f 275 283 282
f 275 276 283
f 276 284 283
f 276 277 284
f 277 285 284
f 277 278 285
f 278 286 285
f 278 279 286
f 279 287 286
f 279 280 287
f 280 288 287
f 280 273 288
f 273 281 288
f 289 290 297
f 290 298 297
f 290 291 298
f 291 299 298
f 291 292 299
f 292 300 299
f 292 293 300
f 293 301 300
f 293 294 301
f 294 302 301
f 294 295 302
f 295 303 302
f 295 296 303
f 296 304 303
f 296 289 304
f 289 297 304
f 305 306 313
f 306 314 313
f 306 307 314
f 307 315 314
f 307 308 315
f 308 316 315
f 308 309 316
f 309 317 316
f 309 310 317
f 310 318 317
f 310 311 318
f 311 319 318
f 311 312 319
f 312 320 319
f 312 305 320
f 305 313 320
f 321 322 323
f 321 323 324
f 325 326 327
f 325 327 328
f 321 325 326
f 321 326 322
f 322 326 327
f 322 327 323
f 323 327 328
f 323 328 324
f 324 328 325
f 324 325 321
f 329 330 331
f 329 331 332
f 333 334 335
f 333 335 336
f 329 333 334
f 329 334 330
f 330 334 335
f 330 335 331
f 331 335 336
f 331 336 332
f 332 336 333
f 332 333 329
f 337 338 339
f 337 339 340
f 341 342 343
f 341 343 344
f 337 341 342
f 337 342 338
f 338 342 343
f 338 343 339
f 339 343 344
f 339 344 340
f 340 344 341
f 340 341 337
f 345 346 347
f 345 347 348
f 349 350 351
f 349 351 352
f 345 349 350
f 345 350 346
f 346 350 351
f 346 351 347
f 347 351 352
f 347 352 348
f 348 352 349
f 348 349 345
f 353 354 355
f 353 355 356
f 357 358 359
f 357 359 360
f 353 357 358
f 353 358 354
f 354 358 359
f 354 359 355
f 355 359 360
f 355 360 356
f 356 360 357
f 356 357 353
f 361 362 363
f 361 363 364
f 365 366 367
f 365 367 368
f 361 365 366
f 361 366 362
f 362 366 367
f 362 367 363
f 363 367 368
f 363 368 364
f 364 368 365
f 364 365 361
f 369 370 371
f 369 371 372
f 373 374 375
f 373 375 376
f 369 373 374
f 369 374 370
f 370 374 375
f 370 375 371
f 371 375 376
f 371 376 372
f 372 376 373
f 372 373 369
f 377 378 379
f 377 379 380
f 381 382 383
f 381 383 384
f 377 381 382
f 377 382 378
f 378 382 383
f 378 383 379
f 379 383 384
f 379 384 380
f 380 384 381
f 380 381 377
f 385 386 387
f 385 387 388
f 389 390 391
f 389 391 392
f 385 389 390
f 385 390 386
f 386 390 391
f 386 391 387
f 387 391 392
f 387 392 388
f 388 392 389
f 388 389 385
f 393 394 395
f 393 395 396
f 397 398 399
f 397 399 400
f 393 397 398
f 393 398 394
f 394 398 399
f 394 399 395
f 395 399 400
f 395 400 396
f 396 400 397
f 396 397 393
f 401 402 403
f 401 403 404
f 405 406 407
f 405 407 408
f 401 405 406
f 401 406 402
f 402 406 407
f 402 407 403
f 403 407 408
f 403 408 404
f 404 408 405
f 404 405 401
f 409 410 411
f 409 411 412
f 413 414 415
f 413 415 416
f 409 413 414
f 409 414 410
f 410 414 415
f 410 415 411
f 411 415 416
f 411 416 412
f 412 416 413
f 412 413 409
f 417 418 419
f 417 419 420
f 421 422 423
f 421 423 424
f 417 421 422
f 417 422 418
f 418 422 423
f 418 423 419
f 419 423 424
f 419 424 420
f 420 424 421
f 420 421 417
f 425 426 427
f 425 427 428
f 429 430 431
f 429 431 432
f 425 429 430
f 425 430 426
f 426 430 431
f 426 431 427
f 427 431 432
f 427 432 428
f 428 432 429
f 428 429 425
f 433 434 435
f 433 435 436
f 437 438 439
f 437 439 440
f 433 437 438
f 433 438 434
f 434 438 439
f 434 439 435
f 435 439 440
f 435 440 436
f 436 440 437
f 436 437 433
f 441 442 443
f 441 443 444
f 445 446 447
f 445 447 448
f 441 445 446
f 441 446 442
f 442 446 447
f 442 447 443
f 443 447 448
f 443 448 444
f 444 448 445
f 444 445 441
f 449 450 451
f 449 451 452
f 453 454 455
f 453 455 456
f 449 453 454
f 449 454 450
f 450 454 455
f 450 455 451
f 451 455 456
f 451 456 452
f 452 456 453
f 452 453 449
f 457 458 459
f 457 459 460
f 461 462 463
f 461 463 464
f 457 461 462
f 457 462 458
f 458 462 463
f 458 463 459
f 459 463 464
f 459 464 460
f 460 464 461
f 460 461 457
f 465 466 467
f 465 467 468
f 469 470 471
f 469 471 472
f 465 469 470
f 465 470 466
f 466 470 471
f 466 471 467
f 467 471 472
f 467 472 468
f 468 472 469
f 468 469 465
f 473 474 475
f 473 475 476
f 477 478 479
f 477 479 480
f 473 477 478
f 473 478 474
f 474 478 479
f 474 479 475
f 475 479 480
f 475 480 476
f 476 480 477
f 476 477 473
f 481 482 483
f 481 483 484
f 485 486 487
f 485 487 488
f 481 485 486
f 481 486 482
f 482 486 487
f 482 487 483
f 483 487 488
f 483 488 484
f 484 488 485
f 484 485 481
f 489 490 497
f 490 498 497
f 490 491 498
f 491 499 498
f 491 492 499
f 492 500 499
f 492 493 500
f 493 501 500
f 493 494 501
f 494 502 501
f 494 495 502
f 495 503 502
f 495 496 503
f 496 504 503
f 496 489 504
f 489 497 504
f 505 506 513
f 506 514 513
f 506 507 514
f 507 515 514
f 507 508 515
f 508 516 515
f 508 509 516
f 509 517 516
f 509 510 517
f 510 518 517
f 510 511 518
f 511 519 518
f 511 512 519
f 512 520 519
f 512 505 520
f 505 513 520
f 521 522 529
f 522 530 529
f 522 523 530
f 523 531 530
f 523 524 531
f 524 532 531
f 524 525 532
f 525 533 532
f 525 526 533
f 526 534 533
f 526 527 534
f 527 535 534
f 527 528 535
f 528 536 535
f 528 521 536
f 521 529 536
f 537 538 545
f 538 546 545
f 538 539 546
f 539 547 546
f 539 540 547
f 540 548 547
f 540 541 548
f 541 549 548
f 541 542 549
f 542 550 549
f 542 543 550
f 543 551 550
f 543 544 551
f 544 552 551
f 544 537 552
f 537 545 552
f 553 554 561
f 554 562 561
f 554 555 562
f 555 563 562
f 555 556 563
f 556 564 563
f 556 557 564
f 557 565 564
f 557 558 565
f 558 566 565
f 558 559 566
f 559 567 566
f 559 560 567
f 560 568 567
f 560 553 568
f 553 561 568
f 569 570 577
f 570 578 577
f 570 571 578
f 571 579 578
f 571 572 579
f 572 580 579
f 572 573 580
f 573 581 580
f 573 574 581
f 574 582 581
f 574 575 582
f 575 583 582
f 575 576 583
f 576 584 583
f 576 569 584
f 569 577 584
f 585 586 593
f 586 594 593
f 586 587 594
f 587 595 594
f 587 588 595
f 588 596 595
f 588 589 596
f 589 597 596
f 589 590 597
f 590 598 597
f 590 591 598
f 591 599 598
f 591 592 599
f 592 600 599
f 592 585 600
f 585 593 600
f 601 602 609
f 602 610 609
f 602 603 610
f 603 611 610
f 603 604 611
f 604 612 611
f 604 605 612
f 605 613 612
f 605 606 613
f 606 614 613
f 606 607 614
f 607 615 614
f 607 608 615
f 608 616 615
f 608 601 616
f 601 609 616
f 617 618 625
f 618 626 625
f 618 619 626
f 619 627 626
f 619 620 627
f 620 628 627
f 620 621 628
f 621 629 628
f 621 622 629
f 622 630 629
f 622 623 630
f 623 631 630
f 623 624 631
f 624 632 631
f 624 617 632
f 617 625 632
f 633 634 641
f 634 642 641
f 634 635 642
f 635 643 642
f 635 636 643
f 636 644 643
f 636 637 644
f 637 645 644
f 637 638 645
f 638 646 645
f 638 639 646
f 639 647 646
f 639 640 647
f 640 648 647
f 640 633 648
f 633 641 648
f 649 650 657
f 650 658 657
f 650 651 658
f 651 659 658
f 651 652 659
f 652 660 659
f 652 653 660
f 653 661 660
f 653 654 661
f 654 662 661
f 654 655 662
f 655 663 662
f 655 656 663
f 656 664 663
f 656 649 664
f 649 657 664
f 665 666 673
f 666 674 673
f 666 667 674
f 667 675 674
f 667 668 675
f 668 676 675
f 668 669 676
f 669 677 676
f 669 670 677
f 670 678 677
f 670 671 678
f 671 679 678
f 671 672 679
f 672 680 679
f 672 665 680
f 665 673 680
f 681 682 689
f 682 690 689
f 682 683 690
f 683 691 690
f 683 684 691
f 684 692 691
f 684 685 692
f 685 693 692
f 685 686 693
f 686 694 693
f 686 687 694
f 687 695 694
f 687 688 695
f 688 696 695
f 688 681 696
f 681 689 696
f 697 698 705
f 698 706 705
f 698 699 706
f 699 707 706
f 699 700 707
f 700 708 707
f 700 701 708
f 701 709 708
f 701 702 709
f 702 710 709
f 702 703 710
f 703 711 710
f 703 704 711
f 704 712 711
f 704 697 712
f 697 705 712
f 713 714 721
f 714 722 721
f 714 715 722
f 715 723 722
f 715 716 723
f 716 724 723
f 716 717 724
f 717 725 724
f 717 718 725
f 718 726 725
f 718 719 726
f 719 727 726
f 719 720 727
f 720 728 727
f 720 713 728
f 713 721 728
f 729 730 737
f 730 738 737
f 730 731 738
f 731 739 738
f 731 732 739
f 732 740 739
f 732 733 740
f 733 741 740
f 733 734 741
f 734 742 741
f 734 735 742
f 735 743 742
f 735 736 743
f 736 744 743
f 736 729 744
f 729 737 744
f 745 746 753
f 746 754 753
f 746 747 754
f 747 755 754
f 747 748 755
f 748 756 755
f 748 749 756
f 749 757 756
f 749 750 757
f 750 758 757
f 750 751 758
f 751 759 758
f 751 752 759
f 752 760 759
f 752 745 760
f 745 753 760
f 761 762 769
f 762 770 769
f 762 763 770
f 763 771 770
f 763 764 771
f 764 772 771
f 764 765 772
f 765 773 772
f 765 766 773
f 766 774 773
f 766 767 774
f 767 775 774
f 767 768 775
f 768 776 775
f 768 761 776
f 761 769 776
f 777 778 785
f 778 786 785
f 778 779 786
f 779 787 786
f 779 780 787
f 780 788 787
f 780 781 788
f 781 789 788
f 781 782 789
f 782 790 789
f 782 783 790
f 783 791 790
f 783 784 791
f 784 792 791
f 784 777 792
f 777 785 792
f 793 794 801
f 794 802 801
f 794 795 802
f 795 803 802
f 795 796 803
f 796 804 803
f 796 797 804
f 797 805 804
f 797 798 805
f 798 806 805
f 798 799 806
f 799 807 806
f 799 800 807
f 800 808 807
f 800 793 808
f 793 801 808
f 809 810 811
f 809 811 812
f 813 814 815
f 813 815 816
f 809 813 814
f 809 814 810
f 810 814 815
f 810 815 811
f 811 815 816
f 811 816 812
f 812 816 813
f 812 813 809
f 817 818 819
f 817 819 820
f 821 822 823
f 821 823 824
f 817 821 822
f 817 822 818
f 818 822 823
f 818 823 819
f 819 823 824
f 819 824 820
f 820 824 821
f 820 821 817
f 825 826 827
f 825 827 828
f 829 830 831
f 829 831 832
f 825 829 830
f 825 830 826
f 826 830 831
f 826 831 827
f 827 831 832
f 827 832 828
f 828 832 829
f 828 829 825
f 833 834 835
f 833 835 836
f 837 838 839
f 837 839 840
f 833 837 838
f 833 838 834
f 834 838 839
f 834 839 835
f 835 839 840
f 835 840 836
f 836 840 837
f 836 837 833
f 841 842 843
f 841 843 844
f 845 846 847
f 845 847 848
f 841 845 846
f 841 846 842
f 842 846 847
f 842 847 843
f 843 847 848
f 843 848 844
f 844 848 845
f 844 845 841
f 849 850 851
f 849 851 852
f 853 854 855
f 853 855 856
f 849 853 854
f 849 854 850
f 850 854 855
f 850 855 851
f 851 855 856
f 851 856 852
f 852 856 853
f 852 853 849
f 857 858 859
f 857 859 860
f 861 862 863
f 861 863 864
f 857 861 862
f 857 862 858
f 858 862 863
f 858 863 859
f 859 863 864
f 859 864 860
f 860 864 861
f 860 861 857
f 865 866 867
f 865 867 868
f 869 870 871
f 869 871 872
f 865 869 870
f 865 870 866
f 866 870 871
f 866 871 867
f 867 871 872
f 867 872 868
f 868 872 869
f 868 869 865
f 873 874 875
f 873 875 876
f 877 878 879
f 877 879 880
f 873 877 878
f 873 878 874
f 874 878 879
f 874 879 875
f 875 879 880
f 875 880 876
f 876 880 877
f 876 877 873
f 881 882 883
f 881 883 884
f 885 886 887
f 885 887 888
f 881 885 886
f 881 886 882
f 882 886 887
f 882 887 883
f 883 887 888
f 883 888 884
f 884 888 885
f 884 885 881
f 889 890 891
f 889 891 892
f 893 894 895
f 893 895 896
f 889 893 894
f 889 894 890
f 890 894 895
f 890 895 891
f 891 895 896
f 891 896 892
f 892 896 893
f 892 893 889
f 897 898 899
f 897 899 900
f 901 902 903
f 901 903 904
f 897 901 902
f 897 902 898
f 898 902 903
f 898 903 899
f 899 903 904
f 899 904 900
f 900 904 901
f 900 901 897
f 905 906 907
f 905 907 908
f 909 910 911
f 909 911 912
f 905 909 910
f 905 910 906
f 906 910 911
f 906 911 907
f 907 911 912
f 907 912 908
f 908 912 909
f 908 909 905
f 913 914 915
f 913 915 916
f 917 918 919
f 917 919 920
f 913 917 918
f 913 918 914
f 914 918 919
f 914 919 915
f 915 919 920
f 915 920 916
f 916 920 917
f 916 917 913
f 921 922 923
f 921 923 924
f 925 926 927
f 925 927 928
f 921 925 926
f 921 926 922
f 922 926 927
f 922 927 923
f 923 927 928
f 923 928 924
f 924 928 925
f 924 925 921
f 929 930 931
f 929 931 932
f 933 934 935
f 933 935 936
f 929 933 934
f 929 934 930
f 930 934 935
f 930 935 931
f 931 935 936
f 931 936 932
f 932 936 933
f 932 933 929
f 937 938 939
f 937 939 940
f 941 942 943
f 941 943 944
f 937 941 942
f 937 942 938
f 938 942 943
f 938 943 939
f 939 943 944
f 939 944 940
f 940 944 941
f 940 941 937
f 945 946 947
f 945 947 948
f 949 950 951
f 949 951 952
f 945 949 950
f 945 950 946
f 946 950 951
f 946 951 947
f 947 951 952
f 947 952 948
f 948 952 949
f 948 949 945
f 953 954 955
f 953 955 956
f 957 958 959
f 957 959 960
f 953 957 958
f 953 958 954
f 954 958 959
f 954 959 955
f 955 959 960
f 955 960 956
f 956 960 957
f 956 957 953
f 961 962 963
f 961 963 964
f 965 966 967
f 965 967 968
f 961 965 966
f 961 966 962
f 962 966 967
f 962 967 963
f 963 967 968
f 963 968 964
f 964 968 965
f 964 965 961
f 969 970 971
f 969 971 972
f 973 974 975
f 973 975 976
f 969 973 974
f 969 974 970
f 970 974 975
f 970 975 971
f 971 975 976
f 971 976 972
f 972 976 973
f 972 973 969
