# SignFlow 3D Hand Mesh - Frame 306
v 0.000000 -0.016452 0.011372
v -0.006592 -0.018748 -0.002251
v -0.009322 -0.010061 -0.014556
v -0.006592 0.004519 -0.018334
v -0.000000 0.016452 -0.011372
v 0.006592 0.018748 0.002251
v 0.009322 0.010061 0.014556
v 0.006592 -0.004519 0.018334
v 0.037442 -0.027669 -0.004855
v 0.030850 -0.029964 -0.018478
v 0.028120 -0.021278 -0.030783
v 0.030850 -0.006697 -0.034561
v 0.037442 0.005236 -0.027599
v 0.044034 0.007531 -0.013976
v 0.046764 -0.001155 -0.001671
v 0.044034 -0.015736 0.002107
v 0.037807 -0.011216 0.003770
v 0.032618 -0.024414 -0.001994
v 0.030256 -0.029880 -0.016096
v 0.032102 -0.024414 -0.030274
v 0.037077 -0.011216 -0.036224
v 0.042266 0.001981 -0.030459
v 0.044629 0.007447 -0.016358
v 0.042782 0.001981 -0.002180
v 0.070687 -0.023881 0.003170
v 0.065499 -0.037079 -0.002594
v 0.063136 -0.042545 -0.016696
v 0.064983 -0.037079 -0.030874
v 0.069958 -0.023881 -0.036823
v 0.075146 -0.010684 -0.031059
v 0.077509 -0.005218 -0.016958
v 0.075662 -0.010684 -0.002780
v 0.070857 -0.023881 0.003166
v 0.065322 -0.036960 -0.002546
v 0.062716 -0.042377 -0.016623
v 0.064566 -0.036960 -0.030820
v 0.069788 -0.023881 -0.036820
v 0.075323 -0.010803 -0.031108
v 0.077929 -0.005385 -0.017030
v 0.076079 -0.010803 -0.002834
v 0.101611 -0.036538 0.002344
v 0.096075 -0.049617 -0.003368
v 0.093469 -0.055034 -0.017446
v 0.095319 -0.049617 -0.031642
v 0.100541 -0.036538 -0.037642
v 0.106077 -0.023460 -0.031930
v 0.108683 -0.018042 -0.017853
v 0.106833 -0.023460 -0.003656
v 0.101076 -0.023298 -0.002659
v 0.094536 -0.036574 0.001251
v 0.091828 -0.049829 -0.005910
v 0.094536 -0.055299 -0.019948
v 0.101076 -0.049778 -0.032639
v 0.107616 -0.036502 -0.036550
v 0.110324 -0.023247 -0.029389
v 0.107616 -0.017778 -0.015351
v 0.124809 -0.032575 0.005535
v 0.118270 -0.045851 0.009445
v 0.115561 -0.059106 0.002284
v 0.118270 -0.064576 -0.011754
v 0.124809 -0.059055 -0.024445
v 0.131349 -0.045779 -0.028356
v 0.134058 -0.032524 -0.021195
v 0.131349 -0.027055 -0.007157
v 0.000000 -0.004512 0.019484
v -0.011370 -0.011383 0.011880
v -0.016080 -0.011586 -0.002683
v -0.011370 -0.005002 -0.015675
v -0.000000 0.004512 -0.019484
v 0.011370 0.011383 -0.011880
v 0.016080 0.011586 0.002683
v 0.011370 0.005002 0.015675
v 0.058359 -0.081384 0.001681
v 0.046989 -0.088255 -0.005923
v 0.042279 -0.088458 -0.020486
v 0.046989 -0.081873 -0.033478
v 0.058359 -0.072359 -0.037287
v 0.069729 -0.065488 -0.029683
v 0.074439 -0.065285 -0.015120
v 0.069729 -0.071870 -0.002128
v 0.058359 -0.078189 0.002154
v 0.044765 -0.081695 -0.003948
v 0.039134 -0.082375 -0.018166
v 0.044765 -0.079832 -0.032171
v 0.058359 -0.075554 -0.037759
v 0.071952 -0.072048 -0.031657
v 0.077583 -0.071368 -0.017440
v 0.071952 -0.073911 -0.003435
v 0.066598 -0.106843 0.000263
v 0.053004 -0.110348 -0.005839
v 0.047373 -0.111029 -0.020057
v 0.053004 -0.108486 -0.034062
v 0.066598 -0.104208 -0.039651
v 0.080192 -0.100702 -0.033549
v 0.085822 -0.100022 -0.019331
v 0.080192 -0.102565 -0.005326
v 0.066598 -0.111596 -0.000638
v 0.052599 -0.111734 -0.006829
v 0.046801 -0.108235 -0.020557
v 0.052599 -0.103149 -0.033779
v 0.066598 -0.099455 -0.038751
v 0.080596 -0.099317 -0.032559
v 0.086395 -0.102816 -0.018831
v 0.080596 -0.107902 -0.005609
v 0.070245 -0.135787 -0.008344
v 0.056247 -0.135925 -0.014535
v 0.050448 -0.132426 -0.028263
v 0.056247 -0.127340 -0.041485
v 0.070245 -0.123646 -0.046457
v 0.084243 -0.123508 -0.040265
v 0.090042 -0.127007 -0.026537
v 0.084243 -0.132093 -0.013315
v 0.070245 -0.146220 -0.016103
v 0.056173 -0.142181 -0.020572
v 0.050344 -0.130839 -0.029041
v 0.056173 -0.118841 -0.036548
v 0.070245 -0.113213 -0.038697
v 0.084317 -0.117252 -0.034228
v 0.090146 -0.128593 -0.025759
v 0.084317 -0.140592 -0.018252
v 0.072833 -0.160849 -0.037475
v 0.058760 -0.156810 -0.041944
v 0.052932 -0.145469 -0.050413
v 0.058760 -0.133470 -0.057920
v 0.072833 -0.127842 -0.060069
v 0.086905 -0.131881 -0.055600
v 0.092733 -0.143222 -0.047131
v 0.086905 -0.155221 -0.039624
v 0.000000 -0.003929 0.019610
v -0.013105 -0.007992 0.012822
v -0.018533 -0.007373 -0.001477
v -0.013105 -0.002435 -0.014911
v -0.000000 0.003929 -0.019610
v 0.013105 0.007992 -0.012822
v 0.018533 0.007373 0.001477
v 0.013105 0.002435 0.014911
v 0.035044 -0.088621 0.002640
v 0.021940 -0.092684 -0.004149
v 0.016512 -0.092064 -0.018448
v 0.021940 -0.087126 -0.031882
v 0.035044 -0.080762 -0.036581
v 0.048149 -0.076700 -0.029792
v 0.053577 -0.077319 -0.015493
v 0.048149 -0.082257 -0.002059
v 0.035044 -0.099682 -0.003731
v 0.021267 -0.097405 -0.010002
v 0.015561 -0.087681 -0.020355
v 0.021267 -0.076206 -0.028725
v 0.035044 -0.069701 -0.030210
v 0.048821 -0.071978 -0.023939
v 0.054528 -0.081703 -0.013586
v 0.048821 -0.093178 -0.005215
v 0.044311 -0.126152 -0.033701
v 0.030535 -0.123875 -0.039972
v 0.024828 -0.114151 -0.050325
v 0.030535 -0.102675 -0.058696
v 0.044311 -0.096171 -0.060180
v 0.058088 -0.098448 -0.053909
v 0.063795 -0.108172 -0.043556
v 0.058088 -0.119648 -0.035185
v 0.044311 -0.126500 -0.059775
v 0.030182 -0.122394 -0.055554
v 0.024330 -0.111708 -0.046287
v 0.030182 -0.100702 -0.037403
v 0.044311 -0.095823 -0.034106
v 0.058441 -0.099929 -0.038327
v 0.064293 -0.110615 -0.047594
v 0.058441 -0.121621 -0.056478
v 0.043155 -0.109090 -0.080582
v 0.029026 -0.104984 -0.076361
v 0.023173 -0.094298 -0.067094
v 0.029026 -0.083292 -0.058210
v 0.043155 -0.078413 -0.054913
v 0.057285 -0.082519 -0.059134
v 0.063137 -0.093205 -0.068401
v 0.057285 -0.104211 -0.077285
v 0.043155 -0.094128 -0.087744
v 0.029023 -0.094547 -0.081877
v 0.023169 -0.094499 -0.067733
v 0.029023 -0.094014 -0.053598
v 0.043155 -0.093374 -0.047751
v 0.057287 -0.092956 -0.053618
v 0.063141 -0.093003 -0.067762
v 0.057287 -0.093489 -0.081897
v 0.042518 -0.077116 -0.088065
v 0.028386 -0.077534 -0.082198
v 0.022532 -0.077487 -0.068054
v 0.028386 -0.077001 -0.053919
v 0.042518 -0.076362 -0.048072
v 0.056651 -0.075943 -0.053939
v 0.062504 -0.075991 -0.068082
v 0.056651 -0.076477 -0.082218
v 0.000000 -0.005564 0.019210
v -0.013943 -0.006207 0.012925
v -0.019718 -0.003214 -0.000931
v -0.013943 0.001662 -0.014242
v -0.000000 0.005564 -0.019210
v 0.013943 0.006207 -0.012925
v 0.019718 0.003214 0.000931
v 0.013943 -0.001662 0.014242
v 0.014946 -0.090162 -0.005294
v 0.001003 -0.090805 -0.011579
v -0.004772 -0.087811 -0.025435
v 0.001003 -0.082935 -0.038747
v 0.014946 -0.079033 -0.043715
v 0.028889 -0.078390 -0.037430
v 0.034664 -0.081383 -0.023574
v 0.028889 -0.086259 -0.010262
v 0.014946 -0.102263 -0.015128
v 0.000998 -0.098184 -0.019937
v -0.004779 -0.086146 -0.027422
v 0.000998 -0.073201 -0.033198
v 0.014946 -0.066932 -0.033881
v 0.028894 -0.071011 -0.029072
v 0.034671 -0.083049 -0.021587
v 0.028894 -0.095994 -0.015811
v 0.020654 -0.118245 -0.045238
v 0.006706 -0.114166 -0.050047
v 0.000929 -0.102128 -0.057532
v 0.006706 -0.089183 -0.063308
v 0.020654 -0.082914 -0.063991
v 0.034602 -0.086993 -0.059182
v 0.040380 -0.099031 -0.051697
v 0.034602 -0.111976 -0.045921
v 0.020654 -0.110704 -0.071863
v 0.006905 -0.104885 -0.068486
v 0.001209 -0.096544 -0.056983
v 0.006905 -0.090567 -0.044093
v 0.020654 -0.090456 -0.037366
v 0.034404 -0.096274 -0.040743
v 0.040099 -0.104615 -0.052246
v 0.034404 -0.110592 -0.065136
v 0.026148 -0.091014 -0.083420
v 0.012399 -0.085195 -0.080043
v 0.006703 -0.076854 -0.068540
v 0.012399 -0.070877 -0.055650
v 0.026148 -0.070766 -0.048923
v 0.039898 -0.076585 -0.052300
v 0.045593 -0.084925 -0.063803
v 0.039898 -0.090902 -0.076693
v 0.026148 -0.074544 -0.085138
v 0.012023 -0.075752 -0.079365
v 0.006172 -0.079970 -0.065864
v 0.012023 -0.084726 -0.052542
v 0.026148 -0.087235 -0.047205
v 0.040274 -0.086027 -0.052978
v 0.046125 -0.081810 -0.066479
v 0.040274 -0.077053 -0.079801
v 0.027213 -0.053747 -0.078180
v 0.013088 -0.054955 -0.072407
v 0.007237 -0.059172 -0.058906
v 0.013088 -0.063928 -0.045584
v 0.027213 -0.066437 -0.040247
v 0.041339 -0.065229 -0.046020
v 0.047190 -0.061012 -0.059521
v 0.041339 -0.056256 -0.072843
v 0.000000 -0.007963 0.018346
v -0.014109 -0.004740 0.013359
v -0.019953 0.001259 0.000547
v -0.014109 0.006521 -0.012586
v -0.000000 0.007963 -0.018346
v 0.014109 0.004740 -0.013359
v 0.019953 -0.001259 -0.000547
v 0.014109 -0.006521 0.012586
v -0.005427 -0.080319 -0.013059
v -0.019536 -0.077097 -0.018047
v -0.025380 -0.071097 -0.030859
v -0.019536 -0.065835 -0.043992
v -0.005427 -0.064393 -0.049752
v 0.008682 -0.067616 -0.044765
v 0.014526 -0.073616 -0.031952
v 0.008682 -0.078878 -0.018820
v -0.005427 -0.087268 -0.018078
v -0.018973 -0.085607 -0.025010
v -0.024584 -0.076184 -0.035689
v -0.018973 -0.064519 -0.043859
v -0.005427 -0.057444 -0.044734
v 0.008119 -0.059105 -0.037801
v 0.013730 -0.068528 -0.027123
v 0.008119 -0.080194 -0.018953
v 0.001298 -0.102215 -0.034802
v -0.012248 -0.100555 -0.041734
v -0.017859 -0.091131 -0.052413
v -0.012248 -0.079466 -0.060582
v 0.001298 -0.072391 -0.061458
v 0.014845 -0.074052 -0.054525
v 0.020456 -0.083475 -0.043847
v 0.014845 -0.095141 -0.035677
v 0.001298 -0.104014 -0.059118
v -0.011755 -0.096130 -0.060446
v -0.017162 -0.083075 -0.054560
v -0.011755 -0.072497 -0.044907
v 0.001298 -0.070592 -0.037142
v 0.014352 -0.078476 -0.035813
v 0.019759 -0.091531 -0.041700
v 0.014352 -0.102110 -0.051353
v 0.009654 -0.093003 -0.075865
v -0.003399 -0.085118 -0.077194
v -0.008806 -0.072064 -0.071307
v -0.003399 -0.061485 -0.061654
v 0.009654 -0.059580 -0.053889
v 0.022707 -0.067465 -0.052561
v 0.028114 -0.080519 -0.058447
v 0.022707 -0.091098 -0.068100
v 0.009654 -0.072324 -0.084480
v -0.004436 -0.072294 -0.078497
v -0.010272 -0.074606 -0.064536
v -0.004436 -0.077905 -0.050775
v 0.009654 -0.080258 -0.045274
v 0.023744 -0.080289 -0.051257
v 0.029580 -0.077977 -0.065218
v 0.023744 -0.074678 -0.078979
v 0.011174 -0.055069 -0.080988
v -0.002916 -0.055039 -0.075005
v -0.008752 -0.057350 -0.061044
v -0.002916 -0.060649 -0.047283
v 0.011174 -0.063003 -0.041782
v 0.025263 -0.063033 -0.047765
v 0.031099 -0.060722 -0.061726
v 0.025263 -0.057423 -0.075487
v -0.015000 -0.015000 -0.015000
v 0.015000 -0.015000 -0.015000
v 0.015000 0.015000 -0.015000
v -0.015000 0.015000 -0.015000
v -0.015000 -0.015000 0.015000
v 0.015000 -0.015000 0.015000
v 0.015000 0.015000 0.015000
v -0.015000 0.015000 0.015000
v 0.022442 -0.026216 -0.031227
v 0.052442 -0.026216 -0.031227
v 0.052442 0.003784 -0.031227
v 0.022442 0.003784 -0.031227
v 0.022442 -0.026216 -0.001227
v 0.052442 -0.026216 -0.001227
v 0.052442 0.003784 -0.001227
v 0.022442 0.003784 -0.001227
v 0.055323 -0.038881 -0.031827
v 0.085323 -0.038881 -0.031827
v 0.085323 -0.008881 -0.031827
v 0.055323 -0.008881 -0.031827
v 0.055323 -0.038881 -0.001827
v 0.085323 -0.038881 -0.001827
v 0.085323 -0.008881 -0.001827
v 0.055323 -0.008881 -0.001827
v 0.086076 -0.051538 -0.032649
v 0.116076 -0.051538 -0.032649
v 0.116076 -0.021538 -0.032649
v 0.086076 -0.021538 -0.032649
v 0.086076 -0.051538 -0.002649
v 0.116076 -0.051538 -0.002649
v 0.116076 -0.021538 -0.002649
v 0.086076 -0.021538 -0.002649
v 0.109809 -0.060815 -0.024455
v 0.139809 -0.060815 -0.024455
v 0.139809 -0.030815 -0.024455
v 0.109809 -0.030815 -0.024455
v 0.109809 -0.060815 0.005545
v 0.139809 -0.060815 0.005545
v 0.139809 -0.030815 0.005545
v 0.109809 -0.030815 0.005545
v 0.043359 -0.091871 -0.032803
v 0.073359 -0.091871 -0.032803
v 0.073359 -0.061871 -0.032803
v 0.043359 -0.061871 -0.032803
v 0.043359 -0.091871 -0.002803
v 0.073359 -0.091871 -0.002803
v 0.073359 -0.061871 -0.002803
v 0.043359 -0.061871 -0.002803
v 0.051598 -0.120525 -0.034694
v 0.081598 -0.120525 -0.034694
v 0.081598 -0.090525 -0.034694
v 0.051598 -0.090525 -0.034694
v 0.051598 -0.120525 -0.004694
v 0.081598 -0.120525 -0.004694
v 0.081598 -0.090525 -0.004694
v 0.051598 -0.090525 -0.004694
v 0.055245 -0.144716 -0.042400
v 0.085245 -0.144716 -0.042400
v 0.085245 -0.114716 -0.042400
v 0.055245 -0.114716 -0.042400
v 0.055245 -0.144716 -0.012400
v 0.085245 -0.144716 -0.012400
v 0.085245 -0.114716 -0.012400
v 0.055245 -0.114716 -0.012400
v 0.057833 -0.159346 -0.063772
v 0.087833 -0.159346 -0.063772
v 0.087833 -0.129346 -0.063772
v 0.057833 -0.129346 -0.063772
v 0.057833 -0.159346 -0.033772
v 0.087833 -0.159346 -0.033772
v 0.087833 -0.129346 -0.033772
v 0.057833 -0.129346 -0.033772
v 0.020044 -0.099692 -0.031970
v 0.050044 -0.099692 -0.031970
v 0.050044 -0.069692 -0.031970
v 0.020044 -0.069692 -0.031970
v 0.020044 -0.099692 -0.001970
v 0.050044 -0.099692 -0.001970
v 0.050044 -0.069692 -0.001970
v 0.020044 -0.069692 -0.001970
v 0.029311 -0.126161 -0.061940
v 0.059311 -0.126161 -0.061940
v 0.059311 -0.096161 -0.061940
v 0.029311 -0.096161 -0.061940
v 0.029311 -0.126161 -0.031940
v 0.059311 -0.126161 -0.031940
v 0.059311 -0.096161 -0.031940
v 0.029311 -0.096161 -0.031940
v 0.028155 -0.108751 -0.082748
v 0.058155 -0.108751 -0.082748
v 0.058155 -0.078751 -0.082748
v 0.028155 -0.078751 -0.082748
v 0.028155 -0.108751 -0.052748
v 0.058155 -0.108751 -0.052748
v 0.058155 -0.078751 -0.052748
v 0.028155 -0.078751 -0.052748
v 0.027518 -0.091739 -0.083068
v 0.057518 -0.091739 -0.083068
v 0.057518 -0.061739 -0.083068
v 0.027518 -0.061739 -0.083068
v 0.027518 -0.091739 -0.053068
v 0.057518 -0.091739 -0.053068
v 0.057518 -0.061739 -0.053068
v 0.027518 -0.061739 -0.053068
v -0.000054 -0.099597 -0.039504
v 0.029946 -0.099597 -0.039504
v 0.029946 -0.069597 -0.039504
v -0.000054 -0.069597 -0.039504
v -0.000054 -0.099597 -0.009504
v 0.029946 -0.099597 -0.009504
v 0.029946 -0.069597 -0.009504
v -0.000054 -0.069597 -0.009504
v 0.005654 -0.115580 -0.069614
v 0.035654 -0.115580 -0.069614
v 0.035654 -0.085580 -0.069614
v 0.005654 -0.085580 -0.069614
v 0.005654 -0.115580 -0.039614
v 0.035654 -0.115580 -0.039614
v 0.035654 -0.085580 -0.039614
v 0.005654 -0.085580 -0.039614
v 0.011148 -0.095890 -0.081171
v 0.041148 -0.095890 -0.081171
v 0.041148 -0.065890 -0.081171
v 0.011148 -0.065890 -0.081171
v 0.011148 -0.095890 -0.051171
v 0.041148 -0.095890 -0.051171
v 0.041148 -0.065890 -0.051171
v 0.011148 -0.065890 -0.051171
v 0.012213 -0.075092 -0.074214
v 0.042213 -0.075092 -0.074214
v 0.042213 -0.045092 -0.074214
v 0.012213 -0.045092 -0.074214
v 0.012213 -0.075092 -0.044214
v 0.042213 -0.075092 -0.044214
v 0.042213 -0.045092 -0.044214
v 0.012213 -0.045092 -0.044214
v -0.020427 -0.087356 -0.046406
v 0.009573 -0.087356 -0.046406
v 0.009573 -0.057356 -0.046406
v -0.020427 -0.057356 -0.046406
v -0.020427 -0.087356 -0.016406
v 0.009573 -0.087356 -0.016406
v 0.009573 -0.057356 -0.016406
v -0.020427 -0.057356 -0.016406
v -0.013702 -0.102303 -0.063130
v 0.016298 -0.102303 -0.063130
v 0.016298 -0.072303 -0.063130
v -0.013702 -0.072303 -0.063130
v -0.013702 -0.102303 -0.033130
v 0.016298 -0.102303 -0.033130
v 0.016298 -0.072303 -0.033130
v -0.013702 -0.072303 -0.033130
v -0.005346 -0.091291 -0.079877
v 0.024654 -0.091291 -0.079877
v 0.024654 -0.061291 -0.079877
v -0.005346 -0.061291 -0.079877
v -0.005346 -0.091291 -0.049877
v 0.024654 -0.091291 -0.049877
v 0.024654 -0.061291 -0.049877
v -0.005346 -0.061291 -0.049877
v -0.003826 -0.074036 -0.076385
v 0.026174 -0.074036 -0.076385
v 0.026174 -0.044036 -0.076385
v -0.003826 -0.044036 -0.076385
v -0.003826 -0.074036 -0.046385
v 0.026174 -0.074036 -0.046385
v 0.026174 -0.044036 -0.046385
v -0.003826 -0.044036 -0.046385
f 1 2 9
f 2 10 9
f 2 3 10
f 3 11 10
f 3 4 11
f 4 12 11
f 4 5 12
f 5 13 12
f 5 6 13
f 6 14 13
f 6 7 14
f 7 15 14
f 7 8 15
f 8 16 15
f 8 1 16
f 1 9 16
f 17 18 25
f 18 26 25
f 18 19 26
f 19 27 26
f 19 20 27
f 20 28 27
f 20 21 28
f 21 29 28
f 21 22 29
f 22 30 29
f 22 23 30
f 23 31 30
f 23 24 31
f 24 32 31
f 24 17 32
f 17 25 32
f 33 34 41
f 34 42 41
f 34 35 42
f 35 43 42
f 35 36 43
f 36 44 43
f 36 37 44
f 37 45 44
f 37 38 45
f 38 46 45
f 38 39 46
f 39 47 46
f 39 40 47
f 40 48 47
f 40 33 48
f 33 41 48
f 49 50 57
f 50 58 57
f 50 51 58
f 51 59 58
f 51 52 59
f 52 60 59
f 52 53 60
f 53 61 60
f 53 54 61
f 54 62 61
f 54 55 62
f 55 63 62
f 55 56 63
f 56 64 63
f 56 49 64
f 49 57 64
f 65 66 73
f 66 74 73
f 66 67 74
f 67 75 74
f 67 68 75
f 68 76 75
f 68 69 76
f 69 77 76
f 69 70 77
f 70 78 77
f 70 71 78
f 71 79 78
f 71 72 79
f 72 80 79
f 72 65 80
f 65 73 80
f 81 82 89
f 82 90 89
f 82 83 90
f 83 91 90
f 83 84 91
f 84 92 91
f 84 85 92
f 85 93 92
f 85 86 93
f 86 94 93
f 86 87 94
f 87 95 94
f 87 88 95
f 88 96 95
f 88 81 96
f 81 89 96
f 97 98 105
f 98 106 105
f 98 99 106
f 99 107 106
f 99 100 107
f 100 108 107
f 100 101 108
f 101 109 108
f 101 102 109
f 102 110 109
f 102 103 110
f 103 111 110
f 103 104 111
f 104 112 111
f 104 97 112
f 97 105 112
f 113 114 121
f 114 122 121
f 114 115 122
f 115 123 122
f 115 116 123
f 116 124 123
f 116 117 124
f 117 125 124
f 117 118 125
f 118 126 125
f 118 119 126
f 119 127 126
f 119 120 127
f 120 128 127
f 120 113 128
f 113 121 128
f 129 130 137
f 130 138 137
f 130 131 138
f 131 139 138
f 131 132 139
f 132 140 139
f 132 133 140
f 133 141 140
f 133 134 141
f 134 142 141
f 134 135 142
f 135 143 142
f 135 136 143
f 136 144 143
f 136 129 144
f 129 137 144
f 145 146 153
f 146 154 153
f 146 147 154
f 147 155 154
f 147 148 155
f 148 156 155
f 148 149 156
f 149 157 156
f 149 150 157
f 150 158 157
f 150 151 158
f 151 159 158
f 151 152 159
f 152 160 159
f 152 145 160
f 145 153 160
f 161 162 169
f 162 170 169
f 162 163 170
f 163 171 170
f 163 164 171
f 164 172 171
f 164 165 172
f 165 173 172
f 165 166 173
f 166 174 173
f 166 167 174
f 167 175 174
f 167 168 175
f 168 176 175
f 168 161 176
f 161 169 176
f 177 178 185
f 178 186 185
f 178 179 186
f 179 187 186
f 179 180 187
f 180 188 187
f 180 181 188
f 181 189 188
f 181 182 189
f 182 190 189
f 182 183 190
f 183 191 190
f 183 184 191
f 184 192 191
f 184 177 192
f 177 185 192
f 193 194 201
f 194 202 201
f 194 195 202
f 195 203 202
f 195 196 203
f 196 204 203
f 196 197 204
f 197 205 204
f 197 198 205
f 198 206 205
f 198 199 206
f 199 207 206
f 199 200 207
f 200 208 207
f 200 193 208
f 193 201 208
f 209 210 217
f 210 218 217
f 210 211 218
f 211 219 218
f 211 212 219
f 212 220 219
f 212 213 220
f 213 221 220
f 213 214 221
f 214 222 221
f 214 215 222
f 215 223 222
f 215 216 223
f 216 224 223
f 216 209 224
f 209 217 224
f 225 226 233
f 226 234 233
f 226 227 234
f 227 235 234
f 227 228 235
f 228 236 235
f 228 229 236
f 229 237 236
f 229 230 237
f 230 238 237
f 230 231 238
f 231 239 238
f 231 232 239
f 232 240 239
f 232 225 240
f 225 233 240
f 241 242 249
f 242 250 249
f 242 243 250
f 243 251 250
f 243 244 251
f 244 252 251
f 244 245 252
f 245 253 252
f 245 246 253
f 246 254 253
f 246 247 254
f 247 255 254
f 247 248 255
f 248 256 255
f 248 241 256
f 241 249 256
f 257 258 265
f 258 266 265
f 258 259 266
f 259 267 266
f 259 260 267
f 260 268 267
f 260 261 268
f 261 269 268
f 261 262 269
f 262 270 269
f 262 263 270
f 263 271 270
f 263 264 271
f 264 272 271
f 264 257 272
f 257 265 272
f 273 274 281
f 274 282 281
f 274 275 282
f 275 283 282
f 275 276 283
f 276 284 283
f 276 277 284
f 277 285 284
f 277 278 285
f 278 286 285
f 278 279 286
f 279 287 286
f 279 280 287
f 280 288 287
f 280 273 288
f 273 281 288
f 289 290 297
f 290 298 297
f 290 291 298
f 291 299 298
f 291 292 299
f 292 300 299
f 292 293 300
f 293 301 300
f 293 294 301
f 294 302 301
f 294 295 302
f 295 303 302
f 295 296 303
f 296 304 303
f 296 289 304
f 289 297 304
f 305 306 313
f 306 314 313
f 306 307 314
f 307 315 314
f 307 308 315
f 308 316 315
f 308 309 316
f 309 317 316
f 309 310 317
f 310 318 317
f 310 311 318
f 311 319 318
f 311 312 319
f 312 320 319
f 312 305 320
f 305 313 320
f 321 322 323
f 321 323 324
f 325 326 327
f 325 327 328
f 321 325 326
f 321 326 322
f 322 326 327
f 322 327 323
f 323 327 328
f 323 328 324
f 324 328 325
f 324 325 321
f 329 330 331
f 329 331 332
f 333 334 335
f 333 335 336
f 329 333 334
f 329 334 330
f 330 334 335
f 330 335 331
f 331 335 336
f 331 336 332
f 332 336 333
f 332 333 329
f 337 338 339
f 337 339 340
f 341 342 343
f 341 343 344
f 337 341 342
f 337 342 338
f 338 342 343
f 338 343 339
f 339 343 344
f 339 344 340
f 340 344 341
f 340 341 337
f 345 346 347
f 345 347 348
f 349 350 351
f 349 351 352
f 345 349 350
f 345 350 346
f 346 350 351
f 346 351 347
f 347 351 352
f 347 352 348
f 348 352 349
f 348 349 345
f 353 354 355
f 353 355 356
f 357 358 359
f 357 359 360
f 353 357 358
f 353 358 354
f 354 358 359
f 354 359 355
f 355 359 360
f 355 360 356
f 356 360 357
f 356 357 353
f 361 362 363
f 361 363 364
f 365 366 367
f 365 367 368
f 361 365 366
f 361 366 362
f 362 366 367
f 362 367 363
f 363 367 368
f 363 368 364
f 364 368 365
f 364 365 361
f 369 370 371
f 369 371 372
f 373 374 375
f 373 375 376
f 369 373 374
f 369 374 370
f 370 374 375
f 370 375 371
f 371 375 376
f 371 376 372
f 372 376 373
f 372 373 369
f 377 378 379
f 377 379 380
f 381 382 383
f 381 383 384
f 377 381 382
f 377 382 378
f 378 382 383
f 378 383 379
f 379 383 384
f 379 384 380
f 380 384 381
f 380 381 377
f 385 386 387
f 385 387 388
f 389 390 391
f 389 391 392
f 385 389 390
f 385 390 386
f 386 390 391
f 386 391 387
f 387 391 392
f 387 392 388
f 388 392 389
f 388 389 385
f 393 394 395
f 393 395 396
f 397 398 399
f 397 399 400
f 393 397 398
f 393 398 394
f 394 398 399
f 394 399 395
f 395 399 400
f 395 400 396
f 396 400 397
f 396 397 393
f 401 402 403
f 401 403 404
f 405 406 407
f 405 407 408
f 401 405 406
f 401 406 402
f 402 406 407
f 402 407 403
f 403 407 408
f 403 408 404
f 404 408 405
f 404 405 401
f 409 410 411
f 409 411 412
f 413 414 415
f 413 415 416
f 409 413 414
f 409 414 410
f 410 414 415
f 410 415 411
f 411 415 416
f 411 416 412
f 412 416 413
f 412 413 409
f 417 418 419
f 417 419 420
f 421 422 423
f 421 423 424
f 417 421 422
f 417 422 418
f 418 422 423
f 418 423 419
f 419 423 424
f 419 424 420
f 420 424 421
f 420 421 417
f 425 426 427
f 425 427 428
f 429 430 431
f 429 431 432
f 425 429 430
f 425 430 426
f 426 430 431
f 426 431 427
f 427 431 432
f 427 432 428
f 428 432 429
f 428 429 425
f 433 434 435
f 433 435 436
f 437 438 439
f 437 439 440
f 433 437 438
f 433 438 434
f 434 438 439
f 434 439 435
f 435 439 440
f 435 440 436
f 436 440 437
f 436 437 433
f 441 442 443
f 441 443 444
f 445 446 447
f 445 447 448
f 441 445 446
f 441 446 442
f 442 446 447
f 442 447 443
f 443 447 448
f 443 448 444
f 444 448 445
f 444 445 441
f 449 450 451
f 449 451 452
f 453 454 455
f 453 455 456
f 449 453 454
f 449 454 450
f 450 454 455
f 450 455 451
f 451 455 456
f 451 456 452
f 452 456 453
f 452 453 449
f 457 458 459
f 457 459 460
f 461 462 463
f 461 463 464
f 457 461 462
f 457 462 458
f 458 462 463
f 458 463 459
f 459 463 464
f 459 464 460
f 460 464 461
f 460 461 457
f 465 466 467
f 465 467 468
f 469 470 471
f 469 471 472
f 465 469 470
f 465 470 466
f 466 470 471
f 466 471 467
f 467 471 472
f 467 472 468
f 468 472 469
f 468 469 465
f 473 474 475
f 473 475 476
f 477 478 479
f 477 479 480
f 473 477 478
f 473 478 474
f 474 478 479
f 474 479 475
f 475 479 480
f 475 480 476
f 476 480 477
f 476 477 473
f 481 482 483
f 481 483 484
f 485 486 487
f 485 487 488
f 481 485 486
f 481 486 482
f 482 486 487
f 482 487 483
f 483 487 488
f 483 488 484
f 484 488 485
f 484 485 481
