# SignFlow 3D Hand Mesh - Frame 108
v 0.000000 0.001599 0.019936
v -0.009057 -0.009696 0.014965
v -0.012808 -0.015312 0.001228
v -0.009057 -0.011958 -0.013228
v -0.000000 -0.001599 -0.019936
v 0.009057 0.009696 -0.014965
v 0.012808 0.015312 -0.001228
v 0.009057 0.011958 0.013228
v 0.032236 -0.025193 0.022085
v 0.023179 -0.036489 0.017114
v 0.019428 -0.042104 0.003377
v 0.023179 -0.038750 -0.011080
v 0.032236 -0.028391 -0.017787
v 0.041292 -0.017096 -0.012816
v 0.045044 -0.011481 0.000921
v 0.041292 -0.014835 0.015377
v 0.032236 -0.021574 0.021456
v 0.020918 -0.031289 0.018014
v 0.016230 -0.038370 0.005278
v 0.020918 -0.038669 -0.009291
v 0.032236 -0.032011 -0.017158
v 0.043553 -0.022296 -0.013716
v 0.048241 -0.015215 -0.000980
v 0.043553 -0.014916 0.013589
v 0.054207 -0.049882 0.029107
v 0.042889 -0.059597 0.025664
v 0.038201 -0.066677 0.012929
v 0.042889 -0.066976 -0.001640
v 0.054207 -0.060318 -0.009508
v 0.065524 -0.050604 -0.006065
v 0.070212 -0.043523 0.006671
v 0.065524 -0.043224 0.021239
v 0.054207 -0.048127 0.028545
v 0.040196 -0.051970 0.023724
v 0.034392 -0.057647 0.010747
v 0.040196 -0.061832 -0.002785
v 0.054207 -0.062073 -0.008946
v 0.068218 -0.058230 -0.004125
v 0.074021 -0.052553 0.008852
v 0.068218 -0.048369 0.022384
v 0.058693 -0.078783 0.039948
v 0.044682 -0.082627 0.035128
v 0.038878 -0.088303 0.022151
v 0.044682 -0.092488 0.008618
v 0.058693 -0.092729 0.002458
v 0.072704 -0.088886 0.007279
v 0.078507 -0.083209 0.020256
v 0.072704 -0.079025 0.033788
v 0.058693 -0.086026 0.041201
v 0.044597 -0.087090 0.035329
v 0.038758 -0.087372 0.021181
v 0.044597 -0.086708 0.007047
v 0.058693 -0.085486 0.001205
v 0.072789 -0.084423 0.007078
v 0.078627 -0.084141 0.021225
v 0.072789 -0.084805 0.035360
v 0.061018 -0.114719 0.040814
v 0.046922 -0.115782 0.034941
v 0.041084 -0.116065 0.020794
v 0.046922 -0.115400 0.006660
v 0.061018 -0.114179 0.000818
v 0.075114 -0.113116 0.006690
v 0.080953 -0.112834 0.020838
v 0.075114 -0.113498 0.034972
v 0.000000 0.008595 0.018059
v -0.012949 0.000945 0.015212
v -0.018313 -0.007258 0.003455
v -0.012949 -0.011210 -0.010326
v -0.000000 -0.008595 -0.018059
v 0.012949 -0.000945 -0.015212
v 0.018313 0.007258 -0.003455
v 0.012949 0.011210 0.010326
v 0.038664 -0.070937 0.055914
v 0.025715 -0.078587 0.053068
v 0.020351 -0.086791 0.041310
v 0.025715 -0.090743 0.027529
v 0.038664 -0.088128 0.019797
v 0.051613 -0.080478 0.022643
v 0.056977 -0.072274 0.034400
v 0.051613 -0.068322 0.048182
v 0.038664 -0.080396 0.057837
v 0.025111 -0.084179 0.051810
v 0.019497 -0.085240 0.037608
v 0.025111 -0.082957 0.023552
v 0.038664 -0.078668 0.017874
v 0.052217 -0.074885 0.023901
v 0.057831 -0.073825 0.038102
v 0.052217 -0.076107 0.052159
v 0.047166 -0.108894 0.056604
v 0.033613 -0.112677 0.050577
v 0.027999 -0.113737 0.036376
v 0.033613 -0.111455 0.022319
v 0.047166 -0.107166 0.016642
v 0.060719 -0.103383 0.022669
v 0.066333 -0.102323 0.036870
v 0.060719 -0.104605 0.050926
v 0.047166 -0.110947 0.056409
v 0.033579 -0.113976 0.050041
v 0.027952 -0.113521 0.035813
v 0.033579 -0.109850 0.022060
v 0.047166 -0.105113 0.016837
v 0.060753 -0.102084 0.023205
v 0.066380 -0.102539 0.037433
v 0.060753 -0.106210 0.051186
v 0.053831 -0.133774 0.053043
v 0.040245 -0.136802 0.046676
v 0.034617 -0.136348 0.032448
v 0.040245 -0.132676 0.018694
v 0.053831 -0.127939 0.013471
v 0.067418 -0.124911 0.019839
v 0.073046 -0.125365 0.034067
v 0.067418 -0.129037 0.047821
v 0.053831 -0.146603 0.045587
v 0.039761 -0.142867 0.040858
v 0.033932 -0.132094 0.031676
v 0.039761 -0.120597 0.023421
v 0.053831 -0.115109 0.020927
v 0.067902 -0.118846 0.025656
v 0.073730 -0.129618 0.034838
v 0.067902 -0.141116 0.043094
v 0.056474 -0.162752 0.024964
v 0.042404 -0.159015 0.020235
v 0.036575 -0.148242 0.011053
v 0.042404 -0.136745 0.002798
v 0.056474 -0.131258 0.000304
v 0.070545 -0.134994 0.005033
v 0.076373 -0.145767 0.014215
v 0.070545 -0.157264 0.022471
v 0.000000 0.006653 0.018861
v -0.013852 0.002019 0.014284
v -0.019590 -0.003798 0.001340
v -0.013852 -0.007390 -0.012389
v -0.000000 -0.006653 -0.018861
v 0.013852 -0.002019 -0.014284
v 0.019590 0.003798 -0.001340
v 0.013852 0.007390 0.012389
v 0.019692 -0.083686 0.050729
v 0.005840 -0.088320 0.046152
v 0.000102 -0.094137 0.033208
v 0.005840 -0.097729 0.019479
v 0.019692 -0.096992 0.013007
v 0.033545 -0.092358 0.017584
v 0.039282 -0.086541 0.030529
v 0.033545 -0.082949 0.044258
v 0.019692 -0.093537 0.051611
v 0.006750 -0.098229 0.044917
v 0.001390 -0.098299 0.030579
v 0.006750 -0.093706 0.016996
v 0.019692 -0.087141 0.012126
v 0.032634 -0.082449 0.018820
v 0.037994 -0.082379 0.033158
v 0.032634 -0.086972 0.046740
v 0.032622 -0.122506 0.046918
v 0.019680 -0.127198 0.040224
v 0.014319 -0.127268 0.025886
v 0.019680 -0.122675 0.012304
v 0.032622 -0.116110 0.007433
v 0.045563 -0.111418 0.014127
v 0.050924 -0.111348 0.028465
v 0.045563 -0.115941 0.042048
v 0.032622 -0.132624 0.042098
v 0.018689 -0.130532 0.036114
v 0.012917 -0.121865 0.024894
v 0.018689 -0.111700 0.015010
v 0.032622 -0.105992 0.012253
v 0.046555 -0.108084 0.018237
v 0.052326 -0.116751 0.029457
v 0.046555 -0.126915 0.039341
v 0.036758 -0.150368 0.026265
v 0.022825 -0.148276 0.020281
v 0.017054 -0.139609 0.009060
v 0.022825 -0.129444 -0.000823
v 0.036758 -0.123736 -0.003581
v 0.050691 -0.125828 0.002404
v 0.056462 -0.134495 0.013624
v 0.050691 -0.144659 0.023507
v 0.036758 -0.140358 0.031067
v 0.024342 -0.146067 0.024170
v 0.019199 -0.146495 0.009759
v 0.024342 -0.141391 -0.003725
v 0.036758 -0.133745 -0.008383
v 0.049174 -0.128036 -0.001486
v 0.054317 -0.127609 0.012925
v 0.049174 -0.132712 0.026409
v 0.048933 -0.162379 0.027376
v 0.036517 -0.168087 0.020479
v 0.031374 -0.168515 0.006068
v 0.036517 -0.163411 -0.007416
v 0.048933 -0.155766 -0.012074
v 0.061349 -0.150057 -0.005177
v 0.066492 -0.149629 0.009234
v 0.061349 -0.154733 0.022718
v 0.000000 0.002688 0.019819
v -0.014064 0.000433 0.014213
v -0.019890 -0.002075 0.000281
v -0.014064 -0.003368 -0.013815
v -0.000000 -0.002688 -0.019819
v 0.014064 -0.000433 -0.014213
v 0.019890 0.002075 -0.000281
v 0.014064 0.003368 0.013815
v 0.009745 -0.089044 0.032260
v -0.004319 -0.091299 0.026654
v -0.010145 -0.093807 0.012722
v -0.004319 -0.095100 -0.001374
v 0.009745 -0.094420 -0.007377
v 0.023810 -0.092165 -0.001772
v 0.029635 -0.089657 0.012160
v 0.023810 -0.088364 0.026256
v 0.009745 -0.093820 0.032332
v -0.003151 -0.098980 0.025900
v -0.008493 -0.099894 0.011584
v -0.003151 -0.096027 -0.002230
v 0.009745 -0.089644 -0.007450
v 0.022642 -0.084484 -0.001018
v 0.027984 -0.083570 0.013298
v 0.022642 -0.087437 0.027112
v 0.021164 -0.119056 0.029683
v 0.008267 -0.124216 0.023251
v 0.002926 -0.125131 0.008935
v 0.008267 -0.121263 -0.004879
v 0.021164 -0.114880 -0.010099
v 0.034060 -0.109720 -0.003667
v 0.039402 -0.108806 0.010649
v 0.034060 -0.112673 0.024463
v 0.021164 -0.124582 0.028286
v 0.007593 -0.126030 0.021355
v 0.001971 -0.122169 0.007651
v 0.007593 -0.115262 -0.004800
v 0.021164 -0.109355 -0.008702
v 0.034735 -0.107907 -0.001771
v 0.040357 -0.111767 0.011933
v 0.034735 -0.118674 0.024383
v 0.028242 -0.146914 0.019092
v 0.014670 -0.148362 0.012161
v 0.009049 -0.144502 -0.001543
v 0.014670 -0.137595 -0.013993
v 0.028242 -0.131687 -0.017896
v 0.041813 -0.130239 -0.010965
v 0.047435 -0.134100 0.002739
v 0.041813 -0.141007 0.015189
v 0.028242 -0.142510 0.020339
v 0.015378 -0.147369 0.013614
v 0.010049 -0.147501 -0.000735
v 0.015378 -0.142830 -0.014304
v 0.028242 -0.136092 -0.019143
v 0.041106 -0.131233 -0.012418
v 0.046434 -0.131100 0.001931
v 0.041106 -0.135771 0.015500
v 0.036812 -0.161034 0.017328
v 0.023948 -0.165893 0.010603
v 0.018619 -0.166025 -0.003746
v 0.023948 -0.161354 -0.017315
v 0.036812 -0.154616 -0.022154
v 0.049676 -0.149757 -0.015430
v 0.055005 -0.149624 -0.001080
v 0.049676 -0.154295 0.012488
v 0.000000 -0.001780 0.019921
v -0.014114 -0.000372 0.014165
v -0.019960 0.001254 0.000112
v -0.014114 0.002146 -0.014007
v -0.000000 0.001780 -0.019921
v 0.014114 0.000372 -0.014165
v 0.019960 -0.001254 -0.000112
v 0.014114 -0.002146 0.014007
v -0.005364 -0.086463 0.012354
v -0.019478 -0.085055 0.006599
v -0.025324 -0.083429 -0.007454
v -0.019478 -0.082537 -0.021573
v -0.005364 -0.082903 -0.027487
v 0.008750 -0.084311 -0.021732
v 0.014596 -0.085937 -0.007678
v 0.008750 -0.086828 0.006441
v -0.005364 -0.082867 0.012351
v -0.018620 -0.088306 0.006965
v -0.024111 -0.091623 -0.006933
v -0.018620 -0.090875 -0.021202
v -0.005364 -0.086499 -0.027484
v 0.007892 -0.081060 -0.022097
v 0.013382 -0.077743 -0.008199
v 0.007892 -0.078491 0.006070
v 0.000831 -0.099463 0.013864
v -0.012425 -0.104902 0.008478
v -0.017916 -0.108219 -0.005420
v -0.012425 -0.107471 -0.019689
v 0.000831 -0.103095 -0.025970
v 0.014087 -0.097656 -0.020584
v 0.019578 -0.094339 -0.006686
v 0.014087 -0.095088 0.007583
v 0.000831 -0.103280 0.013847
v -0.012670 -0.106882 0.007597
v -0.018263 -0.107202 -0.006649
v -0.012670 -0.104052 -0.020545
v 0.000831 -0.099278 -0.025953
v 0.014332 -0.095676 -0.019703
v 0.019925 -0.095356 -0.005457
v 0.014332 -0.098506 0.008439
v 0.007591 -0.124854 0.011677
v -0.005910 -0.128456 0.005428
v -0.011503 -0.128776 -0.008818
v -0.005910 -0.125626 -0.022715
v 0.007591 -0.120852 -0.028122
v 0.021092 -0.117250 -0.021872
v 0.026684 -0.116930 -0.007627
v 0.021092 -0.120080 0.006270
v 0.007591 -0.123928 0.011749
v -0.002736 -0.133261 0.005380
v -0.007013 -0.136497 -0.008957
v -0.002736 -0.131741 -0.022863
v 0.007591 -0.121777 -0.028193
v 0.017918 -0.112444 -0.021824
v 0.022195 -0.109208 -0.007487
v 0.017918 -0.113965 0.006419
v 0.026920 -0.144558 0.010638
v 0.016594 -0.153891 0.004269
v 0.012316 -0.157127 -0.010068
v 0.016594 -0.152370 -0.023974
v 0.026920 -0.142407 -0.029304
v 0.037247 -0.133074 -0.022935
v 0.041525 -0.129838 -0.008598
v 0.037247 -0.134594 0.005308
v -0.015000 -0.015000 -0.015000
v 0.015000 -0.015000 -0.015000
v 0.015000 0.015000 -0.015000
v -0.015000 0.015000 -0.015000
v -0.015000 -0.015000 0.015000
v 0.015000 -0.015000 0.015000
v 0.015000 0.015000 0.015000
v -0.015000 0.015000 0.015000
v 0.017236 -0.041792 -0.012851
v 0.047236 -0.041792 -0.012851
v 0.047236 -0.011792 -0.012851
v 0.017236 -0.011792 -0.012851
v 0.017236 -0.041792 0.017149
v 0.047236 -0.041792 0.017149
v 0.047236 -0.011792 0.017149
v 0.017236 -0.011792 0.017149
v 0.039207 -0.070100 -0.005200
v 0.069207 -0.070100 -0.005200
v 0.069207 -0.040100 -0.005200
v 0.039207 -0.040100 -0.005200
v 0.039207 -0.070100 0.024800
v 0.069207 -0.070100 0.024800
v 0.069207 -0.040100 0.024800
v 0.039207 -0.040100 0.024800
v 0.043693 -0.100756 0.006203
v 0.073693 -0.100756 0.006203
v 0.073693 -0.070756 0.006203
v 0.043693 -0.070756 0.006203
v 0.043693 -0.100756 0.036203
v 0.073693 -0.100756 0.036203
v 0.073693 -0.070756 0.036203
v 0.043693 -0.070756 0.036203
v 0.046018 -0.129449 0.005816
v 0.076018 -0.129449 0.005816
v 0.076018 -0.099449 0.005816
v 0.046018 -0.099449 0.005816
v 0.046018 -0.129449 0.035816
v 0.076018 -0.129449 0.035816
v 0.076018 -0.099449 0.035816
v 0.046018 -0.099449 0.035816
v 0.023664 -0.094532 0.022855
v 0.053664 -0.094532 0.022855
v 0.053664 -0.064532 0.022855
v 0.023664 -0.064532 0.022855
v 0.023664 -0.094532 0.052855
v 0.053664 -0.094532 0.052855
v 0.053664 -0.064532 0.052855
v 0.023664 -0.064532 0.052855
v 0.032166 -0.123030 0.021623
v 0.062166 -0.123030 0.021623
v 0.062166 -0.093030 0.021623
v 0.032166 -0.093030 0.021623
v 0.032166 -0.123030 0.051623
v 0.062166 -0.123030 0.051623
v 0.062166 -0.093030 0.051623
v 0.032166 -0.093030 0.051623
v 0.038831 -0.145856 0.018257
v 0.068831 -0.145856 0.018257
v 0.068831 -0.115856 0.018257
v 0.038831 -0.115856 0.018257
v 0.038831 -0.145856 0.048257
v 0.068831 -0.145856 0.048257
v 0.068831 -0.115856 0.048257
v 0.038831 -0.115856 0.048257
v 0.041474 -0.162005 -0.002366
v 0.071474 -0.162005 -0.002366
v 0.071474 -0.132005 -0.002366
v 0.041474 -0.132005 -0.002366
v 0.041474 -0.162005 0.027634
v 0.071474 -0.162005 0.027634
v 0.071474 -0.132005 0.027634
v 0.041474 -0.132005 0.027634
v 0.004692 -0.105339 0.016868
v 0.034692 -0.105339 0.016868
v 0.034692 -0.075339 0.016868
v 0.004692 -0.075339 0.016868
v 0.004692 -0.105339 0.046868
v 0.034692 -0.105339 0.046868
v 0.034692 -0.075339 0.046868
v 0.004692 -0.075339 0.046868
v 0.017622 -0.134308 0.012176
v 0.047622 -0.134308 0.012176
v 0.047622 -0.104308 0.012176
v 0.017622 -0.104308 0.012176
v 0.017622 -0.134308 0.042176
v 0.047622 -0.134308 0.042176
v 0.047622 -0.104308 0.042176
v 0.017622 -0.104308 0.042176
v 0.021758 -0.152052 -0.003658
v 0.051758 -0.152052 -0.003658
v 0.051758 -0.122052 -0.003658
v 0.021758 -0.122052 -0.003658
v 0.021758 -0.152052 0.026342
v 0.051758 -0.152052 0.026342
v 0.051758 -0.122052 0.026342
v 0.021758 -0.122052 0.026342
v 0.033933 -0.174072 -0.007349
v 0.063933 -0.174072 -0.007349
v 0.063933 -0.144072 -0.007349
v 0.033933 -0.144072 -0.007349
v 0.033933 -0.174072 0.022651
v 0.063933 -0.174072 0.022651
v 0.063933 -0.144072 0.022651
v 0.033933 -0.144072 0.022651
v -0.005255 -0.106732 -0.002559
v 0.024745 -0.106732 -0.002559
v 0.024745 -0.076732 -0.002559
v -0.005255 -0.076732 -0.002559
v -0.005255 -0.106732 0.027441
v 0.024745 -0.106732 0.027441
v 0.024745 -0.076732 0.027441
v -0.005255 -0.076732 0.027441
v 0.006164 -0.131968 -0.005208
v 0.036164 -0.131968 -0.005208
v 0.036164 -0.101968 -0.005208
v 0.006164 -0.101968 -0.005208
v 0.006164 -0.131968 0.024792
v 0.036164 -0.131968 0.024792
v 0.036164 -0.101968 0.024792
v 0.006164 -0.101968 0.024792
v 0.013242 -0.154301 -0.014402
v 0.043242 -0.154301 -0.014402
v 0.043242 -0.124301 -0.014402
v 0.013242 -0.124301 -0.014402
v 0.013242 -0.154301 0.015598
v 0.043242 -0.154301 0.015598
v 0.043242 -0.124301 0.015598
v 0.013242 -0.124301 0.015598
v 0.021812 -0.172825 -0.017413
v 0.051812 -0.172825 -0.017413
v 0.051812 -0.142825 -0.017413
v 0.021812 -0.142825 -0.017413
v 0.021812 -0.172825 0.012587
v 0.051812 -0.172825 0.012587
v 0.051812 -0.142825 0.012587
v 0.021812 -0.142825 0.012587
v -0.020364 -0.099683 -0.022566
v 0.009636 -0.099683 -0.022566
v 0.009636 -0.069683 -0.022566
v -0.020364 -0.069683 -0.022566
v -0.020364 -0.099683 0.007434
v 0.009636 -0.099683 0.007434
v 0.009636 -0.069683 0.007434
v -0.020364 -0.069683 0.007434
v -0.014169 -0.116279 -0.021053
v 0.015831 -0.116279 -0.021053
v 0.015831 -0.086279 -0.021053
v -0.014169 -0.086279 -0.021053
v -0.014169 -0.116279 0.008947
v 0.015831 -0.116279 0.008947
v 0.015831 -0.086279 0.008947
v -0.014169 -0.086279 0.008947
v -0.007409 -0.137853 -0.023222
v 0.022591 -0.137853 -0.023222
v 0.022591 -0.107853 -0.023222
v -0.007409 -0.107853 -0.023222
v -0.007409 -0.137853 0.006778
v 0.022591 -0.137853 0.006778
v 0.022591 -0.107853 0.006778
v -0.007409 -0.107853 0.006778
v 0.011920 -0.158482 -0.024333
v 0.041920 -0.158482 -0.024333
v 0.041920 -0.128482 -0.024333
v 0.011920 -0.128482 -0.024333
v 0.011920 -0.158482 0.005667
v 0.041920 -0.158482 0.005667
v 0.041920 -0.128482 0.005667
v 0.011920 -0.128482 0.005667
v 0.000000 0.007689 0.018463
v -0.007475 -0.005645 0.017671
v -0.010571 -0.015673 0.006528
v -0.007475 -0.016520 -0.008439
v -0.000000 -0.007689 -0.018463
v 0.007475 0.005645 -0.017671
v 0.010571 0.015673 -0.006528
v 0.007475 0.016520 0.008439
v 0.034724 -0.012269 0.026775
v 0.027249 -0.025604 0.025983
v 0.024153 -0.035631 0.014840
v 0.027249 -0.036478 -0.000127
v 0.034724 -0.027648 -0.010150
v 0.042199 -0.014313 -0.009359
v 0.045295 -0.004285 0.001785
v 0.042199 -0.003438 0.016752
v 0.034724 -0.021906 0.028217
v 0.025062 -0.031613 0.021381
v 0.021060 -0.034493 0.006890
v 0.025062 -0.028859 -0.006768
v 0.034724 -0.018010 -0.011593
v 0.044386 -0.008303 -0.004757
v 0.048388 -0.005423 0.009735
v 0.044386 -0.011058 0.023393
v 0.058811 -0.044335 0.026022
v 0.049149 -0.054042 0.019187
v 0.045146 -0.056922 0.004695
v 0.049149 -0.051288 -0.008963
v 0.058811 -0.040439 -0.013787
v 0.068473 -0.030732 -0.006952
v 0.072475 -0.027852 0.007540
v 0.068473 -0.033487 0.021198
v 0.058811 -0.042763 0.026114
v 0.045555 -0.047581 0.020165
v 0.040064 -0.049356 0.005987
v 0.045555 -0.047049 -0.008115
v 0.058811 -0.042011 -0.013879
v 0.072066 -0.037194 -0.007930
v 0.077557 -0.035418 0.006248
v 0.072066 -0.037725 0.020350
v 0.071869 -0.077879 0.025454
v 0.058614 -0.082697 0.019504
v 0.053123 -0.084472 0.005326
v 0.058614 -0.082165 -0.008775
v 0.071869 -0.077127 -0.014539
v 0.085125 -0.072310 -0.008590
v 0.090616 -0.070534 0.005588
v 0.085125 -0.072841 0.019690
v 0.071869 -0.081363 0.025081
v 0.057899 -0.082390 0.018909
v 0.052113 -0.080555 0.004857
v 0.057899 -0.076931 -0.008843
v 0.071869 -0.073643 -0.014167
v 0.085840 -0.072616 -0.007994
v 0.091626 -0.074452 0.006058
v 0.085840 -0.078075 0.019758
v 0.076375 -0.109450 0.019557
v 0.062405 -0.110477 0.013385
v 0.056618 -0.108641 -0.000667
v 0.062405 -0.105018 -0.014368
v 0.076375 -0.101730 -0.019691
v 0.090345 -0.100703 -0.013519
v 0.096132 -0.102538 0.000533
v 0.090345 -0.106161 0.014234
v 0.000000 0.007522 0.018532
v -0.012543 -0.000734 0.015560
v -0.017739 -0.008559 0.003474
v -0.012543 -0.011371 -0.010647
v -0.000000 -0.007522 -0.018532
v 0.012543 0.000734 -0.015560
v 0.017739 0.008559 -0.003474
v 0.012543 0.011371 0.010647
v 0.051825 -0.084689 0.055960
v 0.039282 -0.092945 0.052989
v 0.034086 -0.100771 0.040903
v 0.039282 -0.103583 0.026781
v 0.051825 -0.099733 0.018897
v 0.064368 -0.091478 0.021868
v 0.069564 -0.083652 0.033954
v 0.064368 -0.080840 0.048076
v 0.051825 -0.095754 0.057112
v 0.038272 -0.098691 0.050632
v 0.032658 -0.097832 0.036417
v 0.038272 -0.093680 0.022795
v 0.051825 -0.088668 0.017745
v 0.065378 -0.085732 0.024225
v 0.070993 -0.086591 0.038440
v 0.065378 -0.090743 0.052062
v 0.060489 -0.124375 0.051961
v 0.046935 -0.127311 0.045480
v 0.041321 -0.126452 0.031265
v 0.046935 -0.122300 0.017643
v 0.060489 -0.117289 0.012593
v 0.074042 -0.114352 0.019074
v 0.079656 -0.115212 0.033289
v 0.074042 -0.119363 0.046911
v 0.060489 -0.124663 0.051907
v 0.046761 -0.126874 0.045507
v 0.041074 -0.125546 0.031357
v 0.046761 -0.121457 0.017746
v 0.060489 -0.117001 0.012647
v 0.074217 -0.114789 0.019047
v 0.079903 -0.116117 0.033197
v 0.074217 -0.120207 0.046808
v 0.067287 -0.151628 0.046644
v 0.053558 -0.153840 0.040244
v 0.047872 -0.152512 0.026094
v 0.053558 -0.148422 0.012483
v 0.067287 -0.143967 0.007385
v 0.081015 -0.141755 0.013785
v 0.086701 -0.143083 0.027934
v 0.081015 -0.147173 0.041545
v 0.067287 -0.158172 0.044113
v 0.053187 -0.156067 0.038539
v 0.047346 -0.149118 0.026213
v 0.053187 -0.141395 0.014357
v 0.067287 -0.137423 0.009915
v 0.081387 -0.139528 0.015490
v 0.087227 -0.146477 0.027815
v 0.081387 -0.154200 0.039672
v 0.069091 -0.178095 0.032025
v 0.054991 -0.175990 0.026451
v 0.049151 -0.169041 0.014125
v 0.054991 -0.161319 0.002269
v 0.069091 -0.157347 -0.002173
v 0.083191 -0.159452 0.003402
v 0.089032 -0.166401 0.015727
v 0.083191 -0.174123 0.027584
v 0.000000 0.005983 0.019084
v -0.013551 0.000369 0.014705
v -0.019163 -0.005462 0.001712
v -0.013551 -0.008093 -0.012284
v -0.000000 -0.005983 -0.019084
v 0.013551 -0.000369 -0.014705
v 0.019163 0.005462 -0.001712
v 0.013551 0.008093 0.012284
v 0.031117 -0.093421 0.050248
v 0.017566 -0.099036 0.045870
v 0.011953 -0.104866 0.032877
v 0.017566 -0.107497 0.018881
v 0.031117 -0.105387 0.012080
v 0.044667 -0.099773 0.016459
v 0.050280 -0.093942 0.029452
v 0.044667 -0.091311 0.043448
v 0.031117 -0.102176 0.050971
v 0.017867 -0.106261 0.044485
v 0.012379 -0.106330 0.030195
v 0.017867 -0.102341 0.016473
v 0.031117 -0.096632 0.011357
v 0.044366 -0.092547 0.017844
v 0.049854 -0.092478 0.032133
v 0.044366 -0.096467 0.045855
v 0.045119 -0.139331 0.045772
v 0.031869 -0.143417 0.039285
v 0.026381 -0.143485 0.024995
v 0.031869 -0.139497 0.011274
v 0.045119 -0.133788 0.006158
v 0.058368 -0.129702 0.012644
v 0.063856 -0.129634 0.026934
v 0.058368 -0.133622 0.040656
v 0.045119 -0.141264 0.045403
v 0.031435 -0.143356 0.038870
v 0.025766 -0.141467 0.024777
v 0.031435 -0.136703 0.011379
v 0.045119 -0.131855 0.006526
v 0.058803 -0.129763 0.013059
v 0.064471 -0.131652 0.027152
v 0.058803 -0.136416 0.040550
v 0.052177 -0.167559 0.039039
v 0.038492 -0.169651 0.032506
v 0.032824 -0.167761 0.018413
v 0.038492 -0.162997 0.005015
v 0.052177 -0.158149 0.000162
v 0.065861 -0.156058 0.006695
v 0.071529 -0.157947 0.020788
v 0.065861 -0.162711 0.034186
v 0.052177 -0.168288 0.038848
v 0.038666 -0.170718 0.032075
v 0.033070 -0.168542 0.017995
v 0.038666 -0.163034 0.004855
v 0.052177 -0.157421 0.000353
v 0.065687 -0.154990 0.007126
v 0.071283 -0.157166 0.021206
v 0.065687 -0.162674 0.034346
v 0.060237 -0.193367 0.031769
v 0.046727 -0.195797 0.024996
v 0.041130 -0.193621 0.010915
v 0.046727 -0.188113 -0.002225
v 0.060237 -0.182500 -0.006727
v 0.073748 -0.180069 0.000046
v 0.079344 -0.182245 0.014127
v 0.073748 -0.187753 0.027267
v 0.000000 0.002862 0.019794
v -0.013980 -0.000092 0.014302
v -0.019770 -0.002991 0.000432
v -0.013980 -0.004139 -0.013691
v -0.000000 -0.002862 -0.019794
v 0.013980 0.000092 -0.014302
v 0.019770 0.002991 -0.000432
v 0.013980 0.004139 0.013691
v 0.014859 -0.093339 0.033701
v 0.000880 -0.096292 0.028209
v -0.004911 -0.099192 0.014339
v 0.000880 -0.100339 0.000216
v 0.014859 -0.099062 -0.005887
v 0.028839 -0.096109 -0.000395
v 0.034630 -0.093209 0.013475
v 0.028839 -0.092062 0.027598
v 0.014859 -0.098746 0.033744
v 0.001687 -0.103105 0.027279
v -0.003769 -0.103420 0.012981
v 0.001687 -0.099506 -0.000775
v 0.014859 -0.093655 -0.005930
v 0.028032 -0.089295 0.000535
v 0.033488 -0.088980 0.014833
v 0.028032 -0.092895 0.028589
v 0.028084 -0.132314 0.029437
v 0.014911 -0.136674 0.022972
v 0.009455 -0.136989 0.008674
v 0.014911 -0.133074 -0.005082
v 0.028084 -0.127224 -0.010237
v 0.041256 -0.122864 -0.003772
v 0.046712 -0.122549 0.010526
v 0.041256 -0.126464 0.024282
v 0.028084 -0.132369 0.029430
v 0.014970 -0.136856 0.022934
v 0.009538 -0.137192 0.008627
v 0.014970 -0.133180 -0.005110
v 0.028084 -0.127169 -0.010230
v 0.041197 -0.122682 -0.003734
v 0.046629 -0.122345 0.010573
v 0.041197 -0.126358 0.024310
v 0.037256 -0.154897 0.026477
v 0.024143 -0.159385 0.019981
v 0.018711 -0.159721 0.005673
v 0.024143 -0.155709 -0.008064
v 0.037256 -0.149698 -0.013184
v 0.050370 -0.145210 -0.006687
v 0.055802 -0.144874 0.007620
v 0.050370 -0.148887 0.021357
v 0.037256 -0.159444 0.025326
v 0.023848 -0.161549 0.018249
v 0.018293 -0.158234 0.004375
v 0.023848 -0.151442 -0.008168
v 0.037256 -0.145151 -0.012033
v 0.050665 -0.143047 -0.004956
v 0.056220 -0.146361 0.008918
v 0.050665 -0.153153 0.021461
v 0.045548 -0.182550 0.016486
v 0.032140 -0.184654 0.009409
v 0.026585 -0.181340 -0.004464
v 0.032140 -0.174548 -0.017008
v 0.045548 -0.168257 -0.020873
v 0.058957 -0.166152 -0.013796
v 0.064512 -0.169467 0.000078
v 0.058957 -0.176259 0.012621
v 0.000000 -0.000749 0.019986
v -0.014140 -0.000260 0.014142
v -0.019996 0.000382 0.000014
v -0.014140 0.000800 -0.014122
v -0.000000 0.000749 -0.019986
v 0.014140 0.000260 -0.014142
v 0.019996 -0.000382 -0.000014
v 0.014140 -0.000800 0.014122
v -0.001618 -0.085335 0.016814
v -0.015757 -0.084845 0.010970
v -0.021614 -0.084204 -0.003158
v -0.015757 -0.083785 -0.017294
v -0.001618 -0.083836 -0.023158
v 0.012522 -0.084325 -0.017314
v 0.018379 -0.084967 -0.003186
v 0.012522 -0.085385 0.010950
v -0.001618 -0.086276 0.016756
v -0.015103 -0.090025 0.010560
v -0.020689 -0.090588 -0.003681
v -0.015103 -0.087635 -0.017624
v -0.001618 -0.082895 -0.023100
v 0.011868 -0.079146 -0.016904
v 0.017454 -0.078583 -0.002663
v 0.011868 -0.081536 0.011280
v 0.006749 -0.112667 0.014518
v -0.006737 -0.116416 0.008321
v -0.012322 -0.116979 -0.005919
v -0.006737 -0.114026 -0.019862
v 0.006749 -0.109286 -0.025339
v 0.020234 -0.105537 -0.019142
v 0.025820 -0.104974 -0.004901
v 0.020234 -0.107927 0.009041
v 0.006749 -0.114769 0.014227
v -0.006022 -0.119622 0.007324
v -0.011312 -0.119412 -0.007039
v -0.006022 -0.114260 -0.020448
v 0.006749 -0.107184 -0.025048
v 0.019520 -0.102331 -0.018144
v 0.024810 -0.102541 -0.003781
v 0.019520 -0.107693 0.009627
v 0.016943 -0.135810 0.010164
v 0.004172 -0.140664 0.003260
v -0.001118 -0.140453 -0.011102
v 0.004172 -0.135301 -0.024511
v 0.016943 -0.128226 -0.029111
v 0.029714 -0.123372 -0.022207
v 0.035003 -0.123583 -0.007845
v 0.029714 -0.128735 0.005564
v 0.016943 -0.138428 0.009472
v 0.003442 -0.140540 0.002573
v -0.002150 -0.137661 -0.011383
v 0.003442 -0.131476 -0.024220
v 0.016943 -0.125609 -0.028419
v 0.030443 -0.123496 -0.021520
v 0.036035 -0.126376 -0.007564
v 0.030443 -0.132560 0.005273
v 0.023486 -0.158295 0.002750
v 0.009986 -0.160408 -0.004149
v 0.004394 -0.157528 -0.018104
v 0.009986 -0.151343 -0.030941
v 0.023486 -0.145476 -0.035140
v 0.036987 -0.143363 -0.028241
v 0.042579 -0.146243 -0.014286
v 0.036987 -0.152428 -0.001449
v -0.015000 -0.015000 -0.015000
v 0.015000 -0.015000 -0.015000
v 0.015000 0.015000 -0.015000
v -0.015000 0.015000 -0.015000
v -0.015000 -0.015000 0.015000
v 0.015000 -0.015000 0.015000
v 0.015000 0.015000 0.015000
v -0.015000 0.015000 0.015000
v 0.019724 -0.034958 -0.006688
v 0.049724 -0.034958 -0.006688
v 0.049724 -0.004958 -0.006688
v 0.019724 -0.004958 -0.006688
v 0.019724 -0.034958 0.023312
v 0.049724 -0.034958 0.023312
v 0.049724 -0.004958 0.023312
v 0.019724 -0.004958 0.023312
v 0.043811 -0.057387 -0.008882
v 0.073811 -0.057387 -0.008882
v 0.073811 -0.027387 -0.008882
v 0.043811 -0.027387 -0.008882
v 0.043811 -0.057387 0.021118
v 0.073811 -0.057387 0.021118
v 0.073811 -0.027387 0.021118
v 0.043811 -0.027387 0.021118
v 0.056869 -0.092503 -0.009543
v 0.086869 -0.092503 -0.009543
v 0.086869 -0.062503 -0.009543
v 0.056869 -0.062503 -0.009543
v 0.056869 -0.092503 0.020457
v 0.086869 -0.092503 0.020457
v 0.086869 -0.062503 0.020457
v 0.056869 -0.062503 0.020457
v 0.061375 -0.120590 -0.015067
v 0.091375 -0.120590 -0.015067
v 0.091375 -0.090590 -0.015067
v 0.061375 -0.090590 -0.015067
v 0.061375 -0.120590 0.014933
v 0.091375 -0.120590 0.014933
v 0.091375 -0.090590 0.014933
v 0.061375 -0.090590 0.014933
v 0.036825 -0.107211 0.022429
v 0.066825 -0.107211 0.022429
v 0.066825 -0.077211 0.022429
v 0.036825 -0.077211 0.022429
v 0.036825 -0.107211 0.052429
v 0.066825 -0.107211 0.052429
v 0.066825 -0.077211 0.052429
v 0.036825 -0.077211 0.052429
v 0.045489 -0.135832 0.017277
v 0.075489 -0.135832 0.017277
v 0.075489 -0.105832 0.017277
v 0.045489 -0.105832 0.017277
v 0.045489 -0.135832 0.047277
v 0.075489 -0.135832 0.047277
v 0.075489 -0.105832 0.047277
v 0.045489 -0.105832 0.047277
v 0.052287 -0.162797 0.012014
v 0.082287 -0.162797 0.012014
v 0.082287 -0.132797 0.012014
v 0.052287 -0.132797 0.012014
v 0.052287 -0.162797 0.042014
v 0.082287 -0.162797 0.042014
v 0.082287 -0.132797 0.042014
v 0.052287 -0.132797 0.042014
v 0.054091 -0.182721 -0.000074
v 0.084091 -0.182721 -0.000074
v 0.084091 -0.152721 -0.000074
v 0.054091 -0.152721 -0.000074
v 0.054091 -0.182721 0.029926
v 0.084091 -0.182721 0.029926
v 0.084091 -0.152721 0.029926
v 0.054091 -0.152721 0.029926
v 0.016117 -0.114404 0.016164
v 0.046117 -0.114404 0.016164
v 0.046117 -0.084404 0.016164
v 0.016117 -0.084404 0.016164
v 0.016117 -0.114404 0.046164
v 0.046117 -0.114404 0.046164
v 0.046117 -0.084404 0.046164
v 0.016117 -0.084404 0.046164
v 0.030119 -0.151560 0.010965
v 0.060119 -0.151560 0.010965
v 0.060119 -0.121560 0.010965
v 0.030119 -0.121560 0.010965
v 0.030119 -0.151560 0.040965
v 0.060119 -0.151560 0.040965
v 0.060119 -0.121560 0.040965
v 0.030119 -0.121560 0.040965
v 0.037177 -0.177854 0.004601
v 0.067177 -0.177854 0.004601
v 0.067177 -0.147854 0.004601
v 0.037177 -0.147854 0.004601
v 0.037177 -0.177854 0.034601
v 0.067177 -0.177854 0.034601
v 0.067177 -0.147854 0.034601
v 0.037177 -0.147854 0.034601
v 0.045237 -0.202933 -0.002479
v 0.075237 -0.202933 -0.002479
v 0.075237 -0.172933 -0.002479
v 0.045237 -0.172933 -0.002479
v 0.045237 -0.202933 0.027521
v 0.075237 -0.202933 0.027521
v 0.075237 -0.172933 0.027521
v 0.045237 -0.172933 0.027521
v -0.000141 -0.111200 -0.001093
v 0.029859 -0.111200 -0.001093
v 0.029859 -0.081200 -0.001093
v -0.000141 -0.081200 -0.001093
v -0.000141 -0.111200 0.028907
v 0.029859 -0.111200 0.028907
v 0.029859 -0.081200 0.028907
v -0.000141 -0.081200 0.028907
v 0.013084 -0.144769 -0.005400
v 0.043084 -0.144769 -0.005400
v 0.043084 -0.114769 -0.005400
v 0.013084 -0.114769 -0.005400
v 0.013084 -0.144769 0.024600
v 0.043084 -0.144769 0.024600
v 0.043084 -0.114769 0.024600
v 0.013084 -0.114769 0.024600
v 0.022256 -0.167298 -0.008353
v 0.052256 -0.167298 -0.008353
v 0.052256 -0.137298 -0.008353
v 0.022256 -0.137298 -0.008353
v 0.022256 -0.167298 0.021647
v 0.052256 -0.167298 0.021647
v 0.052256 -0.137298 0.021647
v 0.022256 -0.137298 0.021647
v 0.030548 -0.190403 -0.017193
v 0.060548 -0.190403 -0.017193
v 0.060548 -0.160403 -0.017193
v 0.030548 -0.160403 -0.017193
v 0.030548 -0.190403 0.012807
v 0.060548 -0.190403 0.012807
v 0.060548 -0.160403 0.012807
v 0.030548 -0.160403 0.012807
v -0.016618 -0.099585 -0.018172
v 0.013382 -0.099585 -0.018172
v 0.013382 -0.069585 -0.018172
v -0.016618 -0.069585 -0.018172
v -0.016618 -0.099585 0.011828
v 0.013382 -0.099585 0.011828
v 0.013382 -0.069585 0.011828
v -0.016618 -0.069585 0.011828
v -0.008251 -0.125977 -0.020410
v 0.021749 -0.125977 -0.020410
v 0.021749 -0.095977 -0.020410
v -0.008251 -0.095977 -0.020410
v -0.008251 -0.125977 0.009590
v 0.021749 -0.125977 0.009590
v 0.021749 -0.095977 0.009590
v -0.008251 -0.095977 0.009590
v 0.001943 -0.147018 -0.024474
v 0.031943 -0.147018 -0.024474
v 0.031943 -0.117018 -0.024474
v 0.001943 -0.117018 -0.024474
v 0.001943 -0.147018 0.005526
v 0.031943 -0.147018 0.005526
v 0.031943 -0.117018 0.005526
v 0.001943 -0.117018 0.005526
v 0.008486 -0.166885 -0.031195
v 0.038486 -0.166885 -0.031195
v 0.038486 -0.136885 -0.031195
v 0.008486 -0.136885 -0.031195
v 0.008486 -0.166885 -0.001195
v 0.038486 -0.166885 -0.001195
v 0.038486 -0.136885 -0.001195
v 0.008486 -0.136885 -0.001195
f 1 2 9
f 2 10 9
f 2 3 10
f 3 11 10
f 3 4 11
f 4 12 11
f 4 5 12
f 5 13 12
f 5 6 13
f 6 14 13
f 6 7 14
f 7 15 14
f 7 8 15
f 8 16 15
f 8 1 16
f 1 9 16
f 17 18 25
f 18 26 25
f 18 19 26
f 19 27 26
f 19 20 27
f 20 28 27
f 20 21 28
f 21 29 28
f 21 22 29
f 22 30 29
f 22 23 30
f 23 31 30
f 23 24 31
f 24 32 31
f 24 17 32
f 17 25 32
f 33 34 41
f 34 42 41
f 34 35 42
f 35 43 42
f 35 36 43
f 36 44 43
f 36 37 44
f 37 45 44
f 37 38 45
f 38 46 45
f 38 39 46
f 39 47 46
f 39 40 47
f 40 48 47
f 40 33 48
f 33 41 48
f 49 50 57
f 50 58 57
f 50 51 58
f 51 59 58
f 51 52 59
f 52 60 59
f 52 53 60
f 53 61 60
f 53 54 61
f 54 62 61
f 54 55 62
f 55 63 62
f 55 56 63
f 56 64 63
f 56 49 64
f 49 57 64
f 65 66 73
f 66 74 73
f 66 67 74
f 67 75 74
f 67 68 75
f 68 76 75
f 68 69 76
f 69 77 76
f 69 70 77
f 70 78 77
f 70 71 78
f 71 79 78
f 71 72 79
f 72 80 79
f 72 65 80
f 65 73 80
f 81 82 89
f 82 90 89
f 82 83 90
f 83 91 90
f 83 84 91
f 84 92 91
f 84 85 92
f 85 93 92
f 85 86 93
f 86 94 93
f 86 87 94
f 87 95 94
f 87 88 95
f 88 96 95
f 88 81 96
f 81 89 96
f 97 98 105
f 98 106 105
f 98 99 106
f 99 107 106
f 99 100 107
f 100 108 107
f 100 101 108
f 101 109 108
f 101 102 109
f 102 110 109
f 102 103 110
f 103 111 110
f 103 104 111
f 104 112 111
f 104 97 112
f 97 105 112
f 113 114 121
f 114 122 121
f 114 115 122
f 115 123 122
f 115 116 123
f 116 124 123
f 116 117 124
f 117 125 124
f 117 118 125
f 118 126 125
f 118 119 126
f 119 127 126
f 119 120 127
f 120 128 127
f 120 113 128
f 113 121 128
f 129 130 137
f 130 138 137
f 130 131 138
f 131 139 138
f 131 132 139
f 132 140 139
f 132 133 140
f 133 141 140
f 133 134 141
f 134 142 141
f 134 135 142
f 135 143 142
f 135 136 143
f 136 144 143
f 136 129 144
f 129 137 144
f 145 146 153
f 146 154 153
f 146 147 154
f 147 155 154
f 147 148 155
f 148 156 155
f 148 149 156
f 149 157 156
f 149 150 157
f 150 158 157
f 150 151 158
f 151 159 158
f 151 152 159
f 152 160 159
f 152 145 160
f 145 153 160
f 161 162 169
f 162 170 169
f 162 163 170
f 163 171 170
f 163 164 171
f 164 172 171
f 164 165 172
f 165 173 172
f 165 166 173
f 166 174 173
f 166 167 174
f 167 175 174
f 167 168 175
f 168 176 175
f 168 161 176
f 161 169 176
f 177 178 185
f 178 186 185
f 178 179 186
f 179 187 186
f 179 180 187
f 180 188 187
f 180 181 188
f 181 189 188
f 181 182 189
f 182 190 189
f 182 183 190
f 183 191 190
f 183 184 191
f 184 192 191
f 184 177 192
f 177 185 192
f 193 194 201
f 194 202 201
f 194 195 202
f 195 203 202
f 195 196 203
f 196 204 203
f 196 197 204
f 197 205 204
f 197 198 205
f 198 206 205
f 198 199 206
f 199 207 206
f 199 200 207
f 200 208 207
f 200 193 208
f 193 201 208
f 209 210 217
f 210 218 217
f 210 211 218
f 211 219 218
f 211 212 219
f 212 220 219
f 212 213 220
f 213 221 220
f 213 214 221
f 214 222 221
f 214 215 222
f 215 223 222
f 215 216 223
f 216 224 223
f 216 209 224
f 209 217 224
f 225 226 233
f 226 234 233
f 226 227 234
f 227 235 234
f 227 228 235
f 228 236 235
f 228 229 236
f 229 237 236
f 229 230 237
f 230 238 237
f 230 231 238
f 231 239 238
f 231 232 239
f 232 240 239
f 232 225 240
f 225 233 240
f 241 242 249
f 242 250 249
f 242 243 250
f 243 251 250
f 243 244 251
f 244 252 251
f 244 245 252
f 245 253 252
f 245 246 253
f 246 254 253
f 246 247 254
f 247 255 254
f 247 248 255
f 248 256 255
f 248 241 256
f 241 249 256
f 257 258 265
f 258 266 265
f 258 259 266
f 259 267 266
f 259 260 267
f 260 268 267
f 260 261 268
f 261 269 268
f 261 262 269
f 262 270 269
f 262 263 270
f 263 271 270
f 263 264 271
f 264 272 271
f 264 257 272
f 257 265 272
f 273 274 281
f 274 282 281
f 274 275 282
f 275 283 282
f 275 276 283
f 276 284 283
f 276 277 284
f 277 285 284
f 277 278 285
f 278 286 285
f 278 279 286
f 279 287 286
f 279 280 287
f 280 288 287
f 280 273 288
f 273 281 288
f 289 290 297
f 290 298 297
f 290 291 298
f 291 299 298
f 291 292 299
f 292 300 299
f 292 293 300
f 293 301 300
f 293 294 301
f 294 302 301
f 294 295 302
f 295 303 302
f 295 296 303
f 296 304 303
f 296 289 304
f 289 297 304
f 305 306 313
f 306 314 313
f 306 307 314
f 307 315 314
f 307 308 315
f 308 316 315
f 308 309 316
f 309 317 316
f 309 310 317
f 310 318 317
f 310 311 318
f 311 319 318
f 311 312 319
f 312 320 319
f 312 305 320
f 305 313 320
f 321 322 323
f 321 323 324
f 325 326 327
f 325 327 328
f 321 325 326
f 321 326 322
f 322 326 327
f 322 327 323
f 323 327 328
f 323 328 324
f 324 328 325
f 324 325 321
f 329 330 331
f 329 331 332
f 333 334 335
f 333 335 336
f 329 333 334
f 329 334 330
f 330 334 335
f 330 335 331
f 331 335 336
f 331 336 332
f 332 336 333
f 332 333 329
f 337 338 339
f 337 339 340
f 341 342 343
f 341 343 344
f 337 341 342
f 337 342 338
f 338 342 343
f 338 343 339
f 339 343 344
f 339 344 340
f 340 344 341
f 340 341 337
f 345 346 347
f 345 347 348
f 349 350 351
f 349 351 352
f 345 349 350
f 345 350 346
f 346 350 351
f 346 351 347
f 347 351 352
f 347 352 348
f 348 352 349
f 348 349 345
f 353 354 355
f 353 355 356
f 357 358 359
f 357 359 360
f 353 357 358
f 353 358 354
f 354 358 359
f 354 359 355
f 355 359 360
f 355 360 356
f 356 360 357
f 356 357 353
f 361 362 363
f 361 363 364
f 365 366 367
f 365 367 368
f 361 365 366
f 361 366 362
f 362 366 367
f 362 367 363
f 363 367 368
f 363 368 364
f 364 368 365
f 364 365 361
f 369 370 371
f 369 371 372
f 373 374 375
f 373 375 376
f 369 373 374
f 369 374 370
f 370 374 375
f 370 375 371
f 371 375 376
f 371 376 372
f 372 376 373
f 372 373 369
f 377 378 379
f 377 379 380
f 381 382 383
f 381 383 384
f 377 381 382
f 377 382 378
f 378 382 383
f 378 383 379
f 379 383 384
f 379 384 380
f 380 384 381
f 380 381 377
f 385 386 387
f 385 387 388
f 389 390 391
f 389 391 392
f 385 389 390
f 385 390 386
f 386 390 391
f 386 391 387
f 387 391 392
f 387 392 388
f 388 392 389
f 388 389 385
f 393 394 395
f 393 395 396
f 397 398 399
f 397 399 400
f 393 397 398
f 393 398 394
f 394 398 399
f 394 399 395
f 395 399 400
f 395 400 396
f 396 400 397
f 396 397 393
f 401 402 403
f 401 403 404
f 405 406 407
f 405 407 408
f 401 405 406
f 401 406 402
f 402 406 407
f 402 407 403
f 403 407 408
f 403 408 404
f 404 408 405
f 404 405 401
f 409 410 411
f 409 411 412
f 413 414 415
f 413 415 416
f 409 413 414
f 409 414 410
f 410 414 415
f 410 415 411
f 411 415 416
f 411 416 412
f 412 416 413
f 412 413 409
f 417 418 419
f 417 419 420
f 421 422 423
f 421 423 424
f 417 421 422
f 417 422 418
f 418 422 423
f 418 423 419
f 419 423 424
f 419 424 420
f 420 424 421
f 420 421 417
f 425 426 427
f 425 427 428
f 429 430 431
f 429 431 432
f 425 429 430
f 425 430 426
f 426 430 431
f 426 431 427
f 427 431 432
f 427 432 428
f 428 432 429
f 428 429 425
f 433 434 435
f 433 435 436
f 437 438 439
f 437 439 440
f 433 437 438
f 433 438 434
f 434 438 439
f 434 439 435
f 435 439 440
f 435 440 436
f 436 440 437
f 436 437 433
f 441 442 443
f 441 443 444
f 445 446 447
f 445 447 448
f 441 445 446
f 441 446 442
f 442 446 447
f 442 447 443
f 443 447 448
f 443 448 444
f 444 448 445
f 444 445 441
f 449 450 451
f 449 451 452
f 453 454 455
f 453 455 456
f 449 453 454
f 449 454 450
f 450 454 455
f 450 455 451
f 451 455 456
f 451 456 452
f 452 456 453
f 452 453 449
f 457 458 459
f 457 459 460
f 461 462 463
f 461 463 464
f 457 461 462
f 457 462 458
f 458 462 463
f 458 463 459
f 459 463 464
f 459 464 460
f 460 464 461
f 460 461 457
f 465 466 467
f 465 467 468
f 469 470 471
f 469 471 472
f 465 469 470
f 465 470 466
f 466 470 471
f 466 471 467
f 467 471 472
f 467 472 468
f 468 472 469
f 468 469 465
f 473 474 475
f 473 475 476
f 477 478 479
f 477 479 480
f 473 477 478
f 473 478 474
f 474 478 479
f 474 479 475
f 475 479 480
f 475 480 476
f 476 480 477
f 476 477 473
f 481 482 483
f 481 483 484
f 485 486 487
f 485 487 488
f 481 485 486
f 481 486 482
f 482 486 487
f 482 487 483
f 483 487 488
f 483 488 484
f 484 488 485
f 484 485 481
f 489 490 497
f 490 498 497
f 490 491 498
f 491 499 498
f 491 492 499
f 492 500 499
f 492 493 500
f 493 501 500
f 493 494 501
f 494 502 501
f 494 495 502
f 495 503 502
f 495 496 503
f 496 504 503
f 496 489 504
f 489 497 504
f 505 506 513
f 506 514 513
f 506 507 514
f 507 515 514
f 507 508 515
f 508 516 515
f 508 509 516
f 509 517 516
f 509 510 517
f 510 518 517
f 510 511 518
f 511 519 518
f 511 512 519
f 512 520 519
f 512 505 520
f 505 513 520
f 521 522 529
f 522 530 529
f 522 523 530
f 523 531 530
f 523 524 531
f 524 532 531
f 524 525 532
f 525 533 532
f 525 526 533
f 526 534 533
f 526 527 534
f 527 535 534
f 527 528 535
f 528 536 535
f 528 521 536
f 521 529 536
f 537 538 545
f 538 546 545
f 538 539 546
f 539 547 546
f 539 540 547
f 540 548 547
f 540 541 548
f 541 549 548
f 541 542 549
f 542 550 549
f 542 543 550
f 543 551 550
f 543 544 551
f 544 552 551
f 544 537 552
f 537 545 552
f 553 554 561
f 554 562 561
f 554 555 562
f 555 563 562
f 555 556 563
f 556 564 563
f 556 557 564
f 557 565 564
f 557 558 565
f 558 566 565
f 558 559 566
f 559 567 566
f 559 560 567
f 560 568 567
f 560 553 568
f 553 561 568
f 569 570 577
f 570 578 577
f 570 571 578
f 571 579 578
f 571 572 579
f 572 580 579
f 572 573 580
f 573 581 580
f 573 574 581
f 574 582 581
f 574 575 582
f 575 583 582
f 575 576 583
f 576 584 583
f 576 569 584
f 569 577 584
f 585 586 593
f 586 594 593
f 586 587 594
f 587 595 594
f 587 588 595
f 588 596 595
f 588 589 596
f 589 597 596
f 589 590 597
f 590 598 597
f 590 591 598
f 591 599 598
f 591 592 599
f 592 600 599
f 592 585 600
f 585 593 600
f 601 602 609
f 602 610 609
f 602 603 610
f 603 611 610
f 603 604 611
f 604 612 611
f 604 605 612
f 605 613 612
f 605 606 613
f 606 614 613
f 606 607 614
f 607 615 614
f 607 608 615
f 608 616 615
f 608 601 616
f 601 609 616
f 617 618 625
f 618 626 625
f 618 619 626
f 619 627 626
f 619 620 627
f 620 628 627
f 620 621 628
f 621 629 628
f 621 622 629
f 622 630 629
f 622 623 630
f 623 631 630
f 623 624 631
f 624 632 631
f 624 617 632
f 617 625 632
f 633 634 641
f 634 642 641
f 634 635 642
f 635 643 642
f 635 636 643
f 636 644 643
f 636 637 644
f 637 645 644
f 637 638 645
f 638 646 645
f 638 639 646
f 639 647 646
f 639 640 647
f 640 648 647
f 640 633 648
f 633 641 648
f 649 650 657
f 650 658 657
f 650 651 658
f 651 659 658
f 651 652 659
f 652 660 659
f 652 653 660
f 653 661 660
f 653 654 661
f 654 662 661
f 654 655 662
f 655 663 662
f 655 656 663
f 656 664 663
f 656 649 664
f 649 657 664
f 665 666 673
f 666 674 673
f 666 667 674
f 667 675 674
f 667 668 675
f 668 676 675
f 668 669 676
f 669 677 676
f 669 670 677
f 670 678 677
f 670 671 678
f 671 679 678
f 671 672 679
f 672 680 679
f 672 665 680
f 665 673 680
f 681 682 689
f 682 690 689
f 682 683 690
f 683 691 690
f 683 684 691
f 684 692 691
f 684 685 692
f 685 693 692
f 685 686 693
f 686 694 693
f 686 687 694
f 687 695 694
f 687 688 695
f 688 696 695
f 688 681 696
f 681 689 696
f 697 698 705
f 698 706 705
f 698 699 706
f 699 707 706
f 699 700 707
f 700 708 707
f 700 701 708
f 701 709 708
f 701 702 709
f 702 710 709
f 702 703 710
f 703 711 710
f 703 704 711
f 704 712 711
f 704 697 712
f 697 705 712
f 713 714 721
f 714 722 721
f 714 715 722
f 715 723 722
f 715 716 723
f 716 724 723
f 716 717 724
f 717 725 724
f 717 718 725
f 718 726 725
f 718 719 726
f 719 727 726
f 719 720 727
f 720 728 727
f 720 713 728
f 713 721 728
f 729 730 737
f 730 738 737
f 730 731 738
f 731 739 738
f 731 732 739
f 732 740 739
f 732 733 740
f 733 741 740
f 733 734 741
f 734 742 741
f 734 735 742
f 735 743 742
f 735 736 743
f 736 744 743
f 736 729 744
f 729 737 744
f 745 746 753
f 746 754 753
f 746 747 754
f 747 755 754
f 747 748 755
f 748 756 755
f 748 749 756
f 749 757 756
f 749 750 757
f 750 758 757
f 750 751 758
f 751 759 758
f 751 752 759
f 752 760 759
f 752 745 760
f 745 753 760
f 761 762 769
f 762 770 769
f 762 763 770
f 763 771 770
f 763 764 771
f 764 772 771
f 764 765 772
f 765 773 772
f 765 766 773
f 766 774 773
f 766 767 774
f 767 775 774
f 767 768 775
f 768 776 775
f 768 761 776
f 761 769 776
f 777 778 785
f 778 786 785
f 778 779 786
f 779 787 786
f 779 780 787
f 780 788 787
f 780 781 788
f 781 789 788
f 781 782 789
f 782 790 789
f 782 783 790
f 783 791 790
f 783 784 791
f 784 792 791
f 784 777 792
f 777 785 792
f 793 794 801
f 794 802 801
f 794 795 802
f 795 803 802
f 795 796 803
f 796 804 803
f 796 797 804
f 797 805 804
f 797 798 805
f 798 806 805
f 798 799 806
f 799 807 806
f 799 800 807
f 800 808 807
f 800 793 808
f 793 801 808
f 809 810 811
f 809 811 812
f 813 814 815
f 813 815 816
f 809 813 814
f 809 814 810
f 810 814 815
f 810 815 811
f 811 815 816
f 811 816 812
f 812 816 813
f 812 813 809
f 817 818 819
f 817 819 820
f 821 822 823
f 821 823 824
f 817 821 822
f 817 822 818
f 818 822 823
f 818 823 819
f 819 823 824
f 819 824 820
f 820 824 821
f 820 821 817
f 825 826 827
f 825 827 828
f 829 830 831
f 829 831 832
f 825 829 830
f 825 830 826
f 826 830 831
f 826 831 827
f 827 831 832
f 827 832 828
f 828 832 829
f 828 829 825
f 833 834 835
f 833 835 836
f 837 838 839
f 837 839 840
f 833 837 838
f 833 838 834
f 834 838 839
f 834 839 835
f 835 839 840
f 835 840 836
f 836 840 837
f 836 837 833
f 841 842 843
f 841 843 844
f 845 846 847
f 845 847 848
f 841 845 846
f 841 846 842
f 842 846 847
f 842 847 843
f 843 847 848
f 843 848 844
f 844 848 845
f 844 845 841
f 849 850 851
f 849 851 852
f 853 854 855
f 853 855 856
f 849 853 854
f 849 854 850
f 850 854 855
f 850 855 851
f 851 855 856
f 851 856 852
f 852 856 853
f 852 853 849
f 857 858 859
f 857 859 860
f 861 862 863
f 861 863 864
f 857 861 862
f 857 862 858
f 858 862 863
f 858 863 859
f 859 863 864
f 859 864 860
f 860 864 861
f 860 861 857
f 865 866 867
f 865 867 868
f 869 870 871
f 869 871 872
f 865 869 870
f 865 870 866
f 866 870 871
f 866 871 867
f 867 871 872
f 867 872 868
f 868 872 869
f 868 869 865
f 873 874 875
f 873 875 876
f 877 878 879
f 877 879 880
f 873 877 878
f 873 878 874
f 874 878 879
f 874 879 875
f 875 879 880
f 875 880 876
f 876 880 877
f 876 877 873
f 881 882 883
f 881 883 884
f 885 886 887
f 885 887 888
f 881 885 886
f 881 886 882
f 882 886 887
f 882 887 883
f 883 887 888
f 883 888 884
f 884 888 885
f 884 885 881
f 889 890 891
f 889 891 892
f 893 894 895
f 893 895 896
f 889 893 894
f 889 894 890
f 890 894 895
f 890 895 891
f 891 895 896
f 891 896 892
f 892 896 893
f 892 893 889
f 897 898 899
f 897 899 900
f 901 902 903
f 901 903 904
f 897 901 902
f 897 902 898
f 898 902 903
f 898 903 899
f 899 903 904
f 899 904 900
f 900 904 901
f 900 901 897
f 905 906 907
f 905 907 908
f 909 910 911
f 909 911 912
f 905 909 910
f 905 910 906
f 906 910 911
f 906 911 907
f 907 911 912
f 907 912 908
f 908 912 909
f 908 909 905
f 913 914 915
f 913 915 916
f 917 918 919
f 917 919 920
f 913 917 918
f 913 918 914
f 914 918 919
f 914 919 915
f 915 919 920
f 915 920 916
f 916 920 917
f 916 917 913
f 921 922 923
f 921 923 924
f 925 926 927
f 925 927 928
f 921 925 926
f 921 926 922
f 922 926 927
f 922 927 923
f 923 927 928
f 923 928 924
f 924 928 925
f 924 925 921
f 929 930 931
f 929 931 932
f 933 934 935
f 933 935 936
f 929 933 934
f 929 934 930
f 930 934 935
f 930 935 931
f 931 935 936
f 931 936 932
f 932 936 933
f 932 933 929
f 937 938 939
f 937 939 940
f 941 942 943
f 941 943 944
f 937 941 942
f 937 942 938
f 938 942 943
f 938 943 939
f 939 943 944
f 939 944 940
f 940 944 941
f 940 941 937
f 945 946 947
f 945 947 948
f 949 950 951
f 949 951 952
f 945 949 950
f 945 950 946
f 946 950 951
f 946 951 947
f 947 951 952
f 947 952 948
f 948 952 949
f 948 949 945
f 953 954 955
f 953 955 956
f 957 958 959
f 957 959 960
f 953 957 958
f 953 958 954
f 954 958 959
f 954 959 955
f 955 959 960
f 955 960 956
f 956 960 957
f 956 957 953
f 961 962 963
f 961 963 964
f 965 966 967
f 965 967 968
f 961 965 966
f 961 966 962
f 962 966 967
f 962 967 963
f 963 967 968
f 963 968 964
f 964 968 965
f 964 965 961
f 969 970 971
f 969 971 972
f 973 974 975
f 973 975 976
f 969 973 974
f 969 974 970
f 970 974 975
f 970 975 971
f 971 975 976
f 971 976 972
f 972 976 973
f 972 973 969
