# SignFlow 3D Hand Mesh - Frame 304
v 0.000000 -0.017419 0.009828
v -0.007026 -0.018348 -0.003740
v -0.009936 -0.008529 -0.015117
v -0.007026 0.006286 -0.017639
v -0.000000 0.017419 -0.009828
v 0.007026 0.018348 0.003740
v 0.009936 0.008529 0.015117
v 0.007026 -0.006286 0.017639
v 0.037581 -0.027990 -0.008909
v 0.030555 -0.028919 -0.022477
v 0.027645 -0.019100 -0.033854
v 0.030555 -0.004285 -0.036376
v 0.037581 0.006848 -0.028565
v 0.044607 0.007777 -0.014997
v 0.047517 -0.002042 -0.003620
v 0.044607 -0.016857 -0.001098
v 0.036557 -0.010571 0.001237
v 0.032927 -0.024155 -0.004815
v 0.032024 -0.029782 -0.019022
v 0.034376 -0.024155 -0.033062
v 0.038605 -0.010571 -0.038711
v 0.042235 0.003013 -0.032659
v 0.043138 0.008639 -0.018452
v 0.040786 0.003013 -0.004412
v 0.069539 -0.020137 0.002928
v 0.065909 -0.033721 -0.003123
v 0.065006 -0.039348 -0.017330
v 0.067358 -0.033721 -0.031370
v 0.071587 -0.020137 -0.037019
v 0.075217 -0.006554 -0.030967
v 0.076120 -0.000927 -0.016760
v 0.073768 -0.006554 -0.002720
v 0.067751 -0.020137 0.002756
v 0.064654 -0.033714 -0.003601
v 0.065019 -0.039337 -0.017833
v 0.068632 -0.033714 -0.031604
v 0.073375 -0.020137 -0.036847
v 0.076472 -0.006561 -0.030490
v 0.076107 -0.000937 -0.016258
v 0.072494 -0.006561 -0.002487
v 0.101112 -0.029965 0.007494
v 0.098016 -0.043541 0.001138
v 0.098381 -0.049165 -0.013094
v 0.101993 -0.043541 -0.026865
v 0.106737 -0.029965 -0.032108
v 0.109834 -0.016388 -0.025752
v 0.109469 -0.010765 -0.011520
v 0.105856 -0.016388 0.002251
v 0.096534 -0.029965 0.006278
v 0.095715 -0.043737 -0.000352
v 0.099705 -0.049442 -0.013985
v 0.106166 -0.043737 -0.026635
v 0.111315 -0.029965 -0.030891
v 0.112134 -0.016192 -0.024262
v 0.108145 -0.010487 -0.010629
v 0.101683 -0.016192 0.002021
v 0.119649 -0.035765 0.015469
v 0.118830 -0.049538 0.008840
v 0.122820 -0.055242 -0.004793
v 0.129281 -0.049538 -0.017443
v 0.134430 -0.035765 -0.021699
v 0.135249 -0.021992 -0.015070
v 0.131260 -0.016287 -0.001437
v 0.124798 -0.021992 0.011213
v 0.000000 -0.005569 0.019209
v -0.011480 -0.011870 0.011283
v -0.016235 -0.011218 -0.003252
v -0.011480 -0.003994 -0.015883
v -0.000000 0.005569 -0.019209
v 0.011480 0.011870 -0.011283
v 0.016235 0.011218 0.003252
v 0.011480 0.003994 0.015883
v 0.056415 -0.080882 -0.002626
v 0.044935 -0.087184 -0.010552
v 0.040180 -0.086531 -0.025087
v 0.044935 -0.079308 -0.037718
v 0.056415 -0.069744 -0.041044
v 0.067895 -0.063443 -0.033118
v 0.072650 -0.064095 -0.018583
v 0.067895 -0.071319 -0.005952
v 0.056415 -0.076284 -0.001859
v 0.042437 -0.078146 -0.007814
v 0.036647 -0.078348 -0.021983
v 0.042437 -0.076773 -0.036065
v 0.056415 -0.074342 -0.041811
v 0.070393 -0.072480 -0.035856
v 0.076183 -0.072278 -0.021688
v 0.070393 -0.073854 -0.007605
v 0.061007 -0.106121 -0.003309
v 0.047029 -0.107983 -0.009264
v 0.041239 -0.108186 -0.023433
v 0.047029 -0.106610 -0.037515
v 0.061007 -0.104180 -0.043262
v 0.074985 -0.102318 -0.037306
v 0.080775 -0.102115 -0.023138
v 0.074985 -0.103691 -0.009055
v 0.061007 -0.111298 -0.004254
v 0.046874 -0.109987 -0.009986
v 0.041020 -0.105843 -0.023509
v 0.046874 -0.101293 -0.036901
v 0.061007 -0.099003 -0.042317
v 0.075140 -0.100313 -0.036584
v 0.080994 -0.104458 -0.023061
v 0.075140 -0.109008 -0.009670
v 0.061991 -0.137016 -0.012561
v 0.047858 -0.135705 -0.018294
v 0.042004 -0.131561 -0.031817
v 0.047858 -0.127011 -0.045209
v 0.061991 -0.124721 -0.050625
v 0.076124 -0.126031 -0.044892
v 0.081978 -0.130176 -0.031369
v 0.076124 -0.134726 -0.017977
v 0.061991 -0.146978 -0.019741
v 0.047849 -0.142255 -0.023206
v 0.041991 -0.130862 -0.031584
v 0.047849 -0.119472 -0.039967
v 0.061991 -0.114758 -0.043445
v 0.076133 -0.119482 -0.039980
v 0.081991 -0.130875 -0.031602
v 0.076133 -0.142265 -0.023219
v 0.061977 -0.162171 -0.040393
v 0.047834 -0.157448 -0.043858
v 0.041977 -0.146054 -0.052235
v 0.047834 -0.134665 -0.060619
v 0.061977 -0.129951 -0.064096
v 0.076119 -0.134674 -0.060632
v 0.081977 -0.146068 -0.052254
v 0.076119 -0.157458 -0.043871
v 0.000000 -0.004876 0.019397
v -0.013157 -0.008477 0.012451
v -0.018607 -0.007113 -0.001788
v -0.013157 -0.001582 -0.014980
v -0.000000 0.004876 -0.019397
v 0.013157 0.008477 -0.012451
v 0.018607 0.007113 0.001788
v 0.013157 0.001582 0.014980
v 0.034293 -0.089253 -0.001814
v 0.021136 -0.092854 -0.008760
v 0.015686 -0.091490 -0.022999
v 0.021136 -0.085959 -0.036190
v 0.034293 -0.079501 -0.040607
v 0.047450 -0.075900 -0.033662
v 0.052899 -0.077264 -0.019423
v 0.047450 -0.082795 -0.006231
v 0.034293 -0.099799 -0.008476
v 0.020543 -0.097388 -0.014757
v 0.014848 -0.087356 -0.024818
v 0.020543 -0.075579 -0.032766
v 0.034293 -0.068955 -0.033945
v 0.048042 -0.071366 -0.027665
v 0.053738 -0.081398 -0.017603
v 0.048042 -0.093175 -0.009655
v 0.043267 -0.123549 -0.037237
v 0.029518 -0.121139 -0.043518
v 0.023822 -0.111107 -0.053580
v 0.029518 -0.099329 -0.061528
v 0.043267 -0.092706 -0.062707
v 0.057017 -0.095116 -0.056426
v 0.062712 -0.105149 -0.046364
v 0.057017 -0.116926 -0.038416
v 0.043267 -0.122695 -0.063676
v 0.029189 -0.119349 -0.058683
v 0.023358 -0.109430 -0.048587
v 0.029189 -0.098748 -0.039303
v 0.043267 -0.093561 -0.036268
v 0.057345 -0.096906 -0.041261
v 0.063177 -0.106825 -0.051357
v 0.057345 -0.117507 -0.060641
v 0.040750 -0.104628 -0.082881
v 0.026672 -0.101282 -0.077888
v 0.020840 -0.091363 -0.067792
v 0.026672 -0.080681 -0.058508
v 0.040750 -0.075493 -0.055473
v 0.054828 -0.078839 -0.060466
v 0.060659 -0.088758 -0.070561
v 0.054828 -0.099440 -0.079846
v 0.040750 -0.082664 -0.087759
v 0.026699 -0.086326 -0.082912
v 0.020880 -0.092176 -0.070019
v 0.026699 -0.096786 -0.056633
v 0.040750 -0.097457 -0.050595
v 0.054800 -0.093795 -0.055442
v 0.060620 -0.087945 -0.068335
v 0.054800 -0.083335 -0.081721
v 0.038836 -0.067144 -0.081581
v 0.024785 -0.070807 -0.076734
v 0.018966 -0.076656 -0.063841
v 0.024785 -0.081267 -0.050455
v 0.038836 -0.081937 -0.044417
v 0.052886 -0.078275 -0.049265
v 0.058706 -0.072425 -0.062157
v 0.052886 -0.067815 -0.075544
v 0.000000 -0.006130 0.019037
v -0.013911 -0.006759 0.012681
v -0.019673 -0.003428 -0.001104
v -0.013911 0.001910 -0.014242
v -0.000000 0.006130 -0.019037
v 0.013911 0.006759 -0.012681
v 0.019673 0.003428 0.001104
v 0.013911 -0.001910 0.014242
v 0.016307 -0.090911 -0.008261
v 0.002396 -0.091540 -0.014618
v -0.003366 -0.088210 -0.028403
v 0.002396 -0.082871 -0.041541
v 0.016307 -0.078652 -0.046336
v 0.030218 -0.078023 -0.039980
v 0.035980 -0.081353 -0.026195
v 0.030218 -0.086692 -0.013057
v 0.016307 -0.102836 -0.018694
v 0.002295 -0.098372 -0.022944
v -0.003509 -0.085948 -0.029745
v 0.002295 -0.072840 -0.035113
v 0.016307 -0.066727 -0.035904
v 0.030319 -0.071191 -0.031653
v 0.036122 -0.083615 -0.024852
v 0.030319 -0.096723 -0.019484
v 0.020855 -0.117141 -0.048708
v 0.006843 -0.112678 -0.052958
v 0.001039 -0.100253 -0.059760
v 0.006843 -0.087145 -0.065128
v 0.020855 -0.081033 -0.065918
v 0.034866 -0.085496 -0.061668
v 0.040670 -0.097921 -0.054866
v 0.034866 -0.111029 -0.049498
v 0.020855 -0.107916 -0.075259
v 0.007053 -0.102562 -0.071365
v 0.001336 -0.095172 -0.059239
v 0.007053 -0.090076 -0.045985
v 0.020855 -0.090258 -0.039367
v 0.034656 -0.095613 -0.043261
v 0.040373 -0.103002 -0.055387
v 0.034656 -0.108098 -0.068641
v 0.025639 -0.088712 -0.084707
v 0.011837 -0.083358 -0.080812
v 0.006121 -0.075968 -0.068687
v 0.011837 -0.070872 -0.055433
v 0.025639 -0.071054 -0.048815
v 0.039440 -0.076409 -0.052709
v 0.045157 -0.083798 -0.064835
v 0.039440 -0.088894 -0.078088
v 0.025639 -0.073436 -0.085693
v 0.011500 -0.075030 -0.080048
v 0.005644 -0.079467 -0.066619
v 0.011500 -0.084148 -0.053273
v 0.025639 -0.086330 -0.047828
v 0.039778 -0.084736 -0.053474
v 0.045634 -0.080299 -0.066902
v 0.039778 -0.075619 -0.080248
v 0.026088 -0.054096 -0.079107
v 0.011949 -0.055690 -0.073462
v 0.006093 -0.060127 -0.060033
v 0.011949 -0.064808 -0.046687
v 0.026088 -0.066991 -0.041242
v 0.040227 -0.065397 -0.046888
v 0.046083 -0.060960 -0.060317
v 0.040227 -0.056279 -0.073662
v 0.000000 -0.008270 0.018210
v -0.014125 -0.005218 0.013163
v -0.019976 0.000891 0.000405
v -0.014125 0.006478 -0.012590
v -0.000000 0.008270 -0.018210
v 0.014125 0.005218 -0.013163
v 0.019976 -0.000891 -0.000405
v 0.014125 -0.006478 0.012590
v -0.003917 -0.081046 -0.014842
v -0.018042 -0.077993 -0.019889
v -0.023893 -0.071884 -0.032647
v -0.018042 -0.066297 -0.045642
v -0.003917 -0.064505 -0.051262
v 0.010208 -0.067558 -0.046215
v 0.016059 -0.073667 -0.033457
v 0.010208 -0.079254 -0.020462
v -0.003917 -0.087237 -0.019237
v -0.017345 -0.086068 -0.026493
v -0.022906 -0.077112 -0.037591
v -0.017345 -0.065615 -0.046030
v -0.003917 -0.058313 -0.046867
v 0.009510 -0.059483 -0.039610
v 0.015072 -0.068439 -0.028512
v 0.009510 -0.079935 -0.020073
v 0.003246 -0.102203 -0.034904
v -0.010182 -0.101033 -0.042160
v -0.015744 -0.092077 -0.053258
v -0.010182 -0.080581 -0.061697
v 0.003246 -0.073279 -0.062533
v 0.016673 -0.074448 -0.055277
v 0.022235 -0.083404 -0.044179
v 0.016673 -0.094901 -0.035740
v 0.003246 -0.104675 -0.059359
v -0.010116 -0.097250 -0.060166
v -0.015651 -0.084255 -0.054267
v -0.010116 -0.073301 -0.045118
v 0.003246 -0.070806 -0.038078
v 0.016607 -0.078231 -0.037271
v 0.022142 -0.091227 -0.043170
v 0.016607 -0.102180 -0.052319
v 0.010206 -0.093997 -0.076354
v -0.003156 -0.086572 -0.077160
v -0.008691 -0.073576 -0.071262
v -0.003156 -0.062623 -0.062113
v 0.010206 -0.060128 -0.055073
v 0.023567 -0.067553 -0.054266
v 0.029102 -0.080549 -0.060165
v 0.023567 -0.091502 -0.069314
v 0.010206 -0.074729 -0.085577
v -0.003738 -0.073067 -0.079483
v -0.009514 -0.073745 -0.065324
v -0.003738 -0.076367 -0.051392
v 0.010206 -0.079396 -0.045850
v 0.024149 -0.081058 -0.051943
v 0.029925 -0.080380 -0.066103
v 0.024149 -0.077758 -0.080035
v 0.012916 -0.058835 -0.083710
v -0.001027 -0.057173 -0.077616
v -0.006803 -0.057851 -0.063456
v -0.001027 -0.060473 -0.049525
v 0.012916 -0.063502 -0.043983
v 0.026860 -0.065165 -0.050076
v 0.032636 -0.064486 -0.064236
v 0.026860 -0.061865 -0.078167
v -0.015000 -0.015000 -0.015000
v 0.015000 -0.015000 -0.015000
v 0.015000 0.015000 -0.015000
v -0.015000 0.015000 -0.015000
v -0.015000 -0.015000 0.015000
v 0.015000 -0.015000 0.015000
v 0.015000 0.015000 0.015000
v -0.015000 0.015000 0.015000
v 0.022581 -0.025571 -0.033737
v 0.052581 -0.025571 -0.033737
v 0.052581 0.004429 -0.033737
v 0.022581 0.004429 -0.033737
v 0.022581 -0.025571 -0.003737
v 0.052581 -0.025571 -0.003737
v 0.052581 0.004429 -0.003737
v 0.022581 0.004429 -0.003737
v 0.055563 -0.035137 -0.032045
v 0.085563 -0.035137 -0.032045
v 0.085563 -0.005137 -0.032045
v 0.055563 -0.005137 -0.032045
v 0.055563 -0.035137 -0.002045
v 0.085563 -0.035137 -0.002045
v 0.085563 -0.005137 -0.002045
v 0.055563 -0.005137 -0.002045
v 0.088925 -0.044965 -0.027307
v 0.118925 -0.044965 -0.027307
v 0.118925 -0.014965 -0.027307
v 0.088925 -0.014965 -0.027307
v 0.088925 -0.044965 0.002693
v 0.118925 -0.044965 0.002693
v 0.118925 -0.014965 0.002693
v 0.088925 -0.014965 0.002693
v 0.112040 -0.050765 -0.018115
v 0.142040 -0.050765 -0.018115
v 0.142040 -0.020765 -0.018115
v 0.112040 -0.020765 -0.018115
v 0.112040 -0.050765 0.011885
v 0.142040 -0.050765 0.011885
v 0.142040 -0.020765 0.011885
v 0.112040 -0.020765 0.011885
v 0.041415 -0.090313 -0.036835
v 0.071415 -0.090313 -0.036835
v 0.071415 -0.060313 -0.036835
v 0.041415 -0.060313 -0.036835
v 0.041415 -0.090313 -0.006835
v 0.071415 -0.090313 -0.006835
v 0.071415 -0.060313 -0.006835
v 0.041415 -0.060313 -0.006835
v 0.046007 -0.120150 -0.038285
v 0.076007 -0.120150 -0.038285
v 0.076007 -0.090150 -0.038285
v 0.046007 -0.090150 -0.038285
v 0.046007 -0.120150 -0.008285
v 0.076007 -0.120150 -0.008285
v 0.076007 -0.090150 -0.008285
v 0.046007 -0.090150 -0.008285
v 0.046991 -0.145868 -0.046593
v 0.076991 -0.145868 -0.046593
v 0.076991 -0.115868 -0.046593
v 0.046991 -0.115868 -0.046593
v 0.046991 -0.145868 -0.016593
v 0.076991 -0.145868 -0.016593
v 0.076991 -0.115868 -0.016593
v 0.046991 -0.115868 -0.016593
v 0.046977 -0.161061 -0.067245
v 0.076977 -0.161061 -0.067245
v 0.076977 -0.131061 -0.067245
v 0.046977 -0.131061 -0.067245
v 0.046977 -0.161061 -0.037245
v 0.076977 -0.161061 -0.037245
v 0.076977 -0.131061 -0.037245
v 0.046977 -0.131061 -0.037245
v 0.019293 -0.099377 -0.036211
v 0.049293 -0.099377 -0.036211
v 0.049293 -0.069377 -0.036211
v 0.019293 -0.069377 -0.036211
v 0.019293 -0.099377 -0.006211
v 0.049293 -0.099377 -0.006211
v 0.049293 -0.069377 -0.006211
v 0.019293 -0.069377 -0.006211
v 0.028267 -0.123128 -0.064972
v 0.058267 -0.123128 -0.064972
v 0.058267 -0.093128 -0.064972
v 0.028267 -0.093128 -0.064972
v 0.028267 -0.123128 -0.034972
v 0.058267 -0.123128 -0.034972
v 0.058267 -0.093128 -0.034972
v 0.028267 -0.093128 -0.034972
v 0.025750 -0.105060 -0.084177
v 0.055750 -0.105060 -0.084177
v 0.055750 -0.075060 -0.084177
v 0.025750 -0.075060 -0.084177
v 0.025750 -0.105060 -0.054177
v 0.055750 -0.105060 -0.054177
v 0.055750 -0.075060 -0.054177
v 0.025750 -0.075060 -0.054177
v 0.023836 -0.089541 -0.077999
v 0.053836 -0.089541 -0.077999
v 0.053836 -0.059541 -0.077999
v 0.023836 -0.059541 -0.077999
v 0.023836 -0.089541 -0.047999
v 0.053836 -0.089541 -0.047999
v 0.053836 -0.059541 -0.047999
v 0.023836 -0.059541 -0.047999
v 0.001307 -0.099781 -0.042299
v 0.031307 -0.099781 -0.042299
v 0.031307 -0.069781 -0.042299
v 0.001307 -0.069781 -0.042299
v 0.001307 -0.099781 -0.012299
v 0.031307 -0.099781 -0.012299
v 0.031307 -0.069781 -0.012299
v 0.001307 -0.069781 -0.012299
v 0.005855 -0.114087 -0.072313
v 0.035855 -0.114087 -0.072313
v 0.035855 -0.084087 -0.072313
v 0.005855 -0.084087 -0.072313
v 0.005855 -0.114087 -0.042313
v 0.035855 -0.114087 -0.042313
v 0.035855 -0.084087 -0.042313
v 0.005855 -0.084087 -0.042313
v 0.010639 -0.094883 -0.081761
v 0.040639 -0.094883 -0.081761
v 0.040639 -0.064883 -0.081761
v 0.010639 -0.064883 -0.081761
v 0.010639 -0.094883 -0.051761
v 0.040639 -0.094883 -0.051761
v 0.040639 -0.064883 -0.051761
v 0.010639 -0.064883 -0.051761
v 0.011088 -0.075543 -0.075175
v 0.041088 -0.075543 -0.075175
v 0.041088 -0.045543 -0.075175
v 0.011088 -0.045543 -0.075175
v 0.011088 -0.075543 -0.045175
v 0.041088 -0.075543 -0.045175
v 0.041088 -0.045543 -0.045175
v 0.011088 -0.045543 -0.045175
v -0.018917 -0.087775 -0.048052
v 0.011083 -0.087775 -0.048052
v 0.011083 -0.057775 -0.048052
v -0.018917 -0.057775 -0.048052
v -0.018917 -0.087775 -0.018052
v 0.011083 -0.087775 -0.018052
v 0.011083 -0.057775 -0.018052
v -0.018917 -0.057775 -0.018052
v -0.011754 -0.102741 -0.063718
v 0.018246 -0.102741 -0.063718
v 0.018246 -0.072741 -0.063718
v -0.011754 -0.072741 -0.063718
v -0.011754 -0.102741 -0.033718
v 0.018246 -0.102741 -0.033718
v 0.018246 -0.072741 -0.033718
v -0.011754 -0.072741 -0.033718
v -0.004794 -0.092062 -0.080713
v 0.025206 -0.092062 -0.080713
v 0.025206 -0.062062 -0.080713
v -0.004794 -0.062062 -0.080713
v -0.004794 -0.092062 -0.050713
v 0.025206 -0.092062 -0.050713
v 0.025206 -0.062062 -0.050713
v -0.004794 -0.062062 -0.050713
v -0.002084 -0.076169 -0.078846
v 0.027916 -0.076169 -0.078846
v 0.027916 -0.046169 -0.078846
v -0.002084 -0.046169 -0.078846
v -0.002084 -0.076169 -0.048846
v 0.027916 -0.076169 -0.048846
v 0.027916 -0.046169 -0.048846
v -0.002084 -0.046169 -0.048846
f 1 2 9
f 2 10 9
f 2 3 10
f 3 11 10
f 3 4 11
f 4 12 11
f 4 5 12
f 5 13 12
f 5 6 13
f 6 14 13
f 6 7 14
f 7 15 14
f 7 8 15
f 8 16 15
f 8 1 16
f 1 9 16
f 17 18 25
f 18 26 25
f 18 19 26
f 19 27 26
f 19 20 27
f 20 28 27
f 20 21 28
f 21 29 28
f 21 22 29
f 22 30 29
f 22 23 30
f 23 31 30
f 23 24 31
f 24 32 31
f 24 17 32
f 17 25 32
f 33 34 41
f 34 42 41
f 34 35 42
f 35 43 42
f 35 36 43
f 36 44 43
f 36 37 44
f 37 45 44
f 37 38 45
f 38 46 45
f 38 39 46
f 39 47 46
f 39 40 47
f 40 48 47
f 40 33 48
f 33 41 48
f 49 50 57
f 50 58 57
f 50 51 58
f 51 59 58
f 51 52 59
f 52 60 59
f 52 53 60
f 53 61 60
f 53 54 61
f 54 62 61
f 54 55 62
f 55 63 62
f 55 56 63
f 56 64 63
f 56 49 64
f 49 57 64
f 65 66 73
f 66 74 73
f 66 67 74
f 67 75 74
f 67 68 75
f 68 76 75
f 68 69 76
f 69 77 76
f 69 70 77
f 70 78 77
f 70 71 78
f 71 79 78
f 71 72 79
f 72 80 79
f 72 65 80
f 65 73 80
f 81 82 89
f 82 90 89
f 82 83 90
f 83 91 90
f 83 84 91
f 84 92 91
f 84 85 92
f 85 93 92
f 85 86 93
f 86 94 93
f 86 87 94
f 87 95 94
f 87 88 95
f 88 96 95
f 88 81 96
f 81 89 96
f 97 98 105
f 98 106 105
f 98 99 106
f 99 107 106
f 99 100 107
f 100 108 107
f 100 101 108
f 101 109 108
f 101 102 109
f 102 110 109
f 102 103 110
f 103 111 110
f 103 104 111
f 104 112 111
f 104 97 112
f 97 105 112
f 113 114 121
f 114 122 121
f 114 115 122
f 115 123 122
f 115 116 123
f 116 124 123
f 116 117 124
f 117 125 124
f 117 118 125
f 118 126 125
f 118 119 126
f 119 127 126
f 119 120 127
f 120 128 127
f 120 113 128
f 113 121 128
f 129 130 137
f 130 138 137
f 130 131 138
f 131 139 138
f 131 132 139
f 132 140 139
f 132 133 140
f 133 141 140
f 133 134 141
f 134 142 141
f 134 135 142
f 135 143 142
f 135 136 143
f 136 144 143
f 136 129 144
f 129 137 144
f 145 146 153
f 146 154 153
f 146 147 154
f 147 155 154
f 147 148 155
f 148 156 155
f 148 149 156
f 149 157 156
f 149 150 157
f 150 158 157
f 150 151 158
f 151 159 158
f 151 152 159
f 152 160 159
f 152 145 160
f 145 153 160
f 161 162 169
f 162 170 169
f 162 163 170
f 163 171 170
f 163 164 171
f 164 172 171
f 164 165 172
f 165 173 172
f 165 166 173
f 166 174 173
f 166 167 174
f 167 175 174
f 167 168 175
f 168 176 175
f 168 161 176
f 161 169 176
f 177 178 185
f 178 186 185
f 178 179 186
f 179 187 186
f 179 180 187
f 180 188 187
f 180 181 188
f 181 189 188
f 181 182 189
f 182 190 189
f 182 183 190
f 183 191 190
f 183 184 191
f 184 192 191
f 184 177 192
f 177 185 192
f 193 194 201
f 194 202 201
f 194 195 202
f 195 203 202
f 195 196 203
f 196 204 203
f 196 197 204
f 197 205 204
f 197 198 205
f 198 206 205
f 198 199 206
f 199 207 206
f 199 200 207
f 200 208 207
f 200 193 208
f 193 201 208
f 209 210 217
f 210 218 217
f 210 211 218
f 211 219 218
f 211 212 219
f 212 220 219
f 212 213 220
f 213 221 220
f 213 214 221
f 214 222 221
f 214 215 222
f 215 223 222
f 215 216 223
f 216 224 223
f 216 209 224
f 209 217 224
f 225 226 233
f 226 234 233
f 226 227 234
f 227 235 234
f 227 228 235
f 228 236 235
f 228 229 236
f 229 237 236
f 229 230 237
f 230 238 237
f 230 231 238
f 231 239 238
f 231 232 239
f 232 240 239
f 232 225 240
f 225 233 240
f 241 242 249
f 242 250 249
f 242 243 250
f 243 251 250
f 243 244 251
f 244 252 251
f 244 245 252
f 245 253 252
f 245 246 253
f 246 254 253
f 246 247 254
f 247 255 254
f 247 248 255
f 248 256 255
f 248 241 256
f 241 249 256
f 257 258 265
f 258 266 265
f 258 259 266
f 259 267 266
f 259 260 267
f 260 268 267
f 260 261 268
f 261 269 268
f 261 262 269
f 262 270 269
f 262 263 270
f 263 271 270
f 263 264 271
f 264 272 271
f 264 257 272
f 257 265 272
f 273 274 281
f 274 282 281
f 274 275 282
f 275 283 282
f 275 276 283
f 276 284 283
f 276 277 284
f 277 285 284
f 277 278 285
f 278 286 285
f 278 279 286
f 279 287 286
f 279 280 287
f 280 288 287
f 280 273 288
f 273 281 288
f 289 290 297
f 290 298 297
f 290 291 298
f 291 299 298
f 291 292 299
f 292 300 299
f 292 293 300
f 293 301 300
f 293 294 301
f 294 302 301
f 294 295 302
f 295 303 302
f 295 296 303
f 296 304 303
f 296 289 304
f 289 297 304
f 305 306 313
f 306 314 313
f 306 307 314
f 307 315 314
f 307 308 315
f 308 316 315
f 308 309 316
f 309 317 316
f 309 310 317
f 310 318 317
f 310 311 318
f 311 319 318
f 311 312 319
f 312 320 319
f 312 305 320
f 305 313 320
f 321 322 323
f 321 323 324
f 325 326 327
f 325 327 328
f 321 325 326
f 321 326 322
f 322 326 327
f 322 327 323
f 323 327 328
f 323 328 324
f 324 328 325
f 324 325 321
f 329 330 331
f 329 331 332
f 333 334 335
f 333 335 336
f 329 333 334
f 329 334 330
f 330 334 335
f 330 335 331
f 331 335 336
f 331 336 332
f 332 336 333
f 332 333 329
f 337 338 339
f 337 339 340
f 341 342 343
f 341 343 344
f 337 341 342
f 337 342 338
f 338 342 343
f 338 343 339
f 339 343 344
f 339 344 340
f 340 344 341
f 340 341 337
f 345 346 347
f 345 347 348
f 349 350 351
f 349 351 352
f 345 349 350
f 345 350 346
f 346 350 351
f 346 351 347
f 347 351 352
f 347 352 348
f 348 352 349
f 348 349 345
f 353 354 355
f 353 355 356
f 357 358 359
f 357 359 360
f 353 357 358
f 353 358 354
f 354 358 359
f 354 359 355
f 355 359 360
f 355 360 356
f 356 360 357
f 356 357 353
f 361 362 363
f 361 363 364
f 365 366 367
f 365 367 368
f 361 365 366
f 361 366 362
f 362 366 367
f 362 367 363
f 363 367 368
f 363 368 364
f 364 368 365
f 364 365 361
f 369 370 371
f 369 371 372
f 373 374 375
f 373 375 376
f 369 373 374
f 369 374 370
f 370 374 375
f 370 375 371
f 371 375 376
f 371 376 372
f 372 376 373
f 372 373 369
f 377 378 379
f 377 379 380
f 381 382 383
f 381 383 384
f 377 381 382
f 377 382 378
f 378 382 383
f 378 383 379
f 379 383 384
f 379 384 380
f 380 384 381
f 380 381 377
f 385 386 387
f 385 387 388
f 389 390 391
f 389 391 392
f 385 389 390
f 385 390 386
f 386 390 391
f 386 391 387
f 387 391 392
f 387 392 388
f 388 392 389
f 388 389 385
f 393 394 395
f 393 395 396
f 397 398 399
f 397 399 400
f 393 397 398
f 393 398 394
f 394 398 399
f 394 399 395
f 395 399 400
f 395 400 396
f 396 400 397
f 396 397 393
f 401 402 403
f 401 403 404
f 405 406 407
f 405 407 408
f 401 405 406
f 401 406 402
f 402 406 407
f 402 407 403
f 403 407 408
f 403 408 404
f 404 408 405
f 404 405 401
f 409 410 411
f 409 411 412
f 413 414 415
f 413 415 416
f 409 413 414
f 409 414 410
f 410 414 415
f 410 415 411
f 411 415 416
f 411 416 412
f 412 416 413
f 412 413 409
f 417 418 419
f 417 419 420
f 421 422 423
f 421 423 424
f 417 421 422
f 417 422 418
f 418 422 423
f 418 423 419
f 419 423 424
f 419 424 420
f 420 424 421
f 420 421 417
f 425 426 427
f 425 427 428
f 429 430 431
f 429 431 432
f 425 429 430
f 425 430 426
f 426 430 431
f 426 431 427
f 427 431 432
f 427 432 428
f 428 432 429
f 428 429 425
f 433 434 435
f 433 435 436
f 437 438 439
f 437 439 440
f 433 437 438
f 433 438 434
f 434 438 439
f 434 439 435
f 435 439 440
f 435 440 436
f 436 440 437
f 436 437 433
f 441 442 443
f 441 443 444
f 445 446 447
f 445 447 448
f 441 445 446
f 441 446 442
f 442 446 447
f 442 447 443
f 443 447 448
f 443 448 444
f 444 448 445
f 444 445 441
f 449 450 451
f 449 451 452
f 453 454 455
f 453 455 456
f 449 453 454
f 449 454 450
f 450 454 455
f 450 455 451
f 451 455 456
f 451 456 452
f 452 456 453
f 452 453 449
f 457 458 459
f 457 459 460
f 461 462 463
f 461 463 464
f 457 461 462
f 457 462 458
f 458 462 463
f 458 463 459
f 459 463 464
f 459 464 460
f 460 464 461
f 460 461 457
f 465 466 467
f 465 467 468
f 469 470 471
f 469 471 472
f 465 469 470
f 465 470 466
f 466 470 471
f 466 471 467
f 467 471 472
f 467 472 468
f 468 472 469
f 468 469 465
f 473 474 475
f 473 475 476
f 477 478 479
f 477 479 480
f 473 477 478
f 473 478 474
f 474 478 479
f 474 479 475
f 475 479 480
f 475 480 476
f 476 480 477
f 476 477 473
f 481 482 483
f 481 483 484
f 485 486 487
f 485 487 488
f 481 485 486
f 481 486 482
f 482 486 487
f 482 487 483
f 483 487 488
f 483 488 484
f 484 488 485
f 484 485 481
