# SignFlow 3D Hand Mesh - Frame 57
v 0.000000 0.019510 0.004401
v -0.006605 0.016547 -0.009087
v -0.009341 0.003891 -0.017251
v -0.006605 -0.011044 -0.015310
v -0.000000 -0.019510 -0.004401
v 0.006605 -0.016547 0.009087
v 0.009341 -0.003891 0.017251
v 0.006605 0.011044 0.015310
v -0.024601 0.016651 0.017076
v -0.031206 0.013688 0.003588
v -0.033942 0.001032 -0.004576
v -0.031206 -0.013903 -0.002635
v -0.024601 -0.022369 0.008274
v -0.017996 -0.019406 0.021762
v -0.015260 -0.006750 0.029926
v -0.017996 0.008185 0.027985
v -0.027831 -0.002859 -0.007063
v -0.026755 -0.017000 -0.001303
v -0.024418 -0.022858 0.012645
v -0.022188 -0.017000 0.026610
v -0.021371 -0.002859 0.032412
v -0.022447 0.011283 0.026653
v -0.024784 0.017140 0.012705
v -0.027014 0.011283 -0.001260
v -0.058662 -0.003149 -0.002017
v -0.057587 -0.017291 0.003742
v -0.055249 -0.023148 0.017690
v -0.053019 -0.017291 0.031655
v -0.052202 -0.003149 0.037458
v -0.053278 0.010992 0.031698
v -0.055616 0.016850 0.017750
v -0.057846 0.010992 0.003785
v -0.052292 -0.003149 -0.002032
v -0.056391 -0.016920 0.003248
v -0.059928 -0.022624 0.017005
v -0.060832 -0.016920 0.031181
v -0.058573 -0.003149 0.037472
v -0.054474 0.010622 0.032192
v -0.050936 0.016326 0.018435
v -0.050033 0.010622 0.004259
v -0.078727 0.003108 -0.006235
v -0.082826 -0.010663 -0.000955
v -0.086363 -0.016367 0.012802
v -0.087267 -0.010663 0.026978
v -0.085008 0.003108 0.033269
v -0.080909 0.016879 0.027989
v -0.077371 0.022583 0.014232
v -0.076468 0.016879 0.000056
v -0.078260 0.003108 -0.006155
v -0.083802 -0.010279 -0.001216
v -0.088211 -0.015824 0.012354
v -0.088904 -0.010279 0.026605
v -0.085475 0.003108 0.033189
v -0.079933 0.016495 0.028250
v -0.075524 0.022039 0.014680
v -0.074831 0.016495 0.000430
v -0.092332 0.007981 -0.008735
v -0.097874 -0.005405 -0.003796
v -0.102283 -0.010950 0.009773
v -0.102976 -0.005405 0.024024
v -0.099547 0.007981 0.030608
v -0.094005 0.021368 0.025669
v -0.089597 0.026913 0.012100
v -0.088904 0.021368 -0.002151
v 0.000000 -0.000276 0.019998
v -0.006380 0.012424 0.014315
v -0.009023 0.017847 0.000247
v -0.006380 0.012815 -0.013966
v -0.000000 0.000276 -0.019998
v 0.006380 -0.012424 -0.014315
v 0.009023 -0.017847 -0.000247
v 0.006380 -0.012815 0.013966
v -0.077881 -0.039643 0.019454
v -0.084261 -0.026943 0.013771
v -0.086904 -0.021520 -0.000297
v -0.084261 -0.026552 -0.014510
v -0.077881 -0.039091 -0.020542
v -0.071500 -0.051792 -0.014859
v -0.068858 -0.057214 -0.000791
v -0.071500 -0.052182 0.013422
v -0.077881 -0.044154 -0.019963
v -0.088990 -0.051249 -0.012181
v -0.093591 -0.051384 0.002418
v -0.088990 -0.044479 0.015282
v -0.077881 -0.034580 0.018875
v -0.066771 -0.027485 0.011093
v -0.062170 -0.027351 -0.003506
v -0.066771 -0.034255 -0.016370
v -0.093162 -0.025319 -0.024606
v -0.104271 -0.032414 -0.016823
v -0.108873 -0.032549 -0.002225
v -0.104271 -0.025644 0.010639
v -0.093162 -0.015745 0.014232
v -0.082053 -0.008650 0.006450
v -0.077451 -0.008516 -0.008149
v -0.082053 -0.015420 -0.021013
v -0.093162 -0.015733 -0.024603
v -0.105301 -0.024183 -0.020657
v -0.110329 -0.030495 -0.007649
v -0.105301 -0.030970 0.006801
v -0.093162 -0.025331 0.014229
v -0.081024 -0.016881 0.010283
v -0.075996 -0.010570 -0.002724
v -0.081024 -0.010094 -0.017174
v -0.104560 0.002775 -0.020028
v -0.116698 -0.005675 -0.016082
v -0.121726 -0.011986 -0.003075
v -0.116698 -0.012462 0.011376
v -0.104560 -0.006823 0.018804
v -0.092421 0.001627 0.014858
v -0.087393 0.007938 0.001851
v -0.092421 0.008414 -0.012600
v -0.104560 -0.002410 -0.020608
v -0.117824 -0.007200 -0.014657
v -0.123318 -0.008959 -0.000478
v -0.117824 -0.006655 0.013622
v -0.104560 -0.001638 0.019384
v -0.091295 0.003152 0.013433
v -0.085801 0.004911 -0.000746
v -0.091295 0.002607 -0.014846
v -0.113474 0.021695 -0.021073
v -0.126739 0.016905 -0.015122
v -0.132233 0.015146 -0.000943
v -0.126739 0.017450 0.013157
v -0.113474 0.022467 0.018919
v -0.100210 0.027257 0.012968
v -0.094715 0.029016 -0.001211
v -0.100210 0.026712 -0.015311
v 0.003357 0.000000 -0.019716
v 0.007959 -0.012958 -0.012990
v 0.007898 -0.018325 0.001345
v 0.003211 -0.012958 0.014892
v -0.003357 -0.000000 0.019716
v -0.007959 0.012958 0.012990
v -0.007898 0.018325 -0.001345
v -0.003211 0.012958 -0.014892
v -0.073720 -0.034185 -0.032841
v -0.069118 -0.047143 -0.026115
v -0.069179 -0.052510 -0.011780
v -0.073866 -0.047143 0.001767
v -0.080435 -0.034185 0.006591
v -0.085036 -0.021227 -0.000135
v -0.084976 -0.015860 -0.014470
v -0.080288 -0.021227 -0.028018
v -0.077077 -0.044217 -0.030427
v -0.086113 -0.050691 -0.019902
v -0.089855 -0.047495 -0.005407
v -0.086113 -0.036503 0.004567
v -0.077077 -0.024153 0.004177
v -0.068042 -0.017679 -0.006348
v -0.064300 -0.020875 -0.020843
v -0.068042 -0.031867 -0.030817
v -0.096673 -0.030139 -0.038590
v -0.105708 -0.036613 -0.028065
v -0.109450 -0.033417 -0.013570
v -0.105708 -0.022425 -0.003596
v -0.096673 -0.010075 -0.003986
v -0.087637 -0.003601 -0.014511
v -0.083895 -0.006797 -0.029006
v -0.087637 -0.017789 -0.038980
v -0.096673 -0.018285 -0.041205
v -0.109726 -0.024237 -0.035867
v -0.115134 -0.027769 -0.021989
v -0.109726 -0.026813 -0.007700
v -0.096673 -0.021929 -0.001371
v -0.083619 -0.015977 -0.006709
v -0.078212 -0.012445 -0.020587
v -0.083619 -0.013401 -0.034876
v -0.106912 0.006181 -0.038967
v -0.119966 0.000230 -0.033629
v -0.125373 -0.003303 -0.019751
v -0.119966 -0.002347 -0.005462
v -0.106912 0.002537 0.000867
v -0.093858 0.008489 -0.004471
v -0.088451 0.012021 -0.018349
v -0.093858 0.011065 -0.032638
v -0.106912 0.012804 -0.037180
v -0.118739 0.003301 -0.035144
v -0.123638 -0.005581 -0.023680
v -0.118739 -0.008641 -0.009504
v -0.106912 -0.004085 -0.000920
v -0.095085 0.005417 -0.002957
v -0.090186 0.014299 -0.014420
v -0.095085 0.017359 -0.028596
v -0.121012 0.032299 -0.028100
v -0.132839 0.022797 -0.026063
v -0.137738 0.013914 -0.014600
v -0.132839 0.010854 -0.000424
v -0.121012 0.015410 0.008160
v -0.109185 0.024912 0.006124
v -0.104286 0.033795 -0.005340
v -0.109185 0.036854 -0.019516
v 0.000000 -0.014467 0.013810
v -0.007019 -0.001752 0.018646
v -0.009926 0.011989 0.012560
v -0.007019 0.018707 -0.000884
v -0.000000 0.014467 -0.013810
v 0.007019 0.001752 -0.018646
v 0.009926 -0.011989 -0.012560
v 0.007019 -0.018707 0.000884
v -0.073048 -0.043300 -0.016397
v -0.080067 -0.030586 -0.011560
v -0.082974 -0.016844 -0.017647
v -0.080067 -0.010126 -0.031090
v -0.073048 -0.014366 -0.044016
v -0.066030 -0.027081 -0.048852
v -0.063122 -0.040822 -0.042766
v -0.066030 -0.047541 -0.029322
v -0.073048 -0.035126 -0.049191
v -0.082658 -0.043131 -0.040366
v -0.086639 -0.042761 -0.025590
v -0.082658 -0.034232 -0.013518
v -0.073048 -0.022541 -0.011222
v -0.063438 -0.014536 -0.020047
v -0.059457 -0.014906 -0.034823
v -0.063438 -0.023435 -0.046895
v -0.087795 -0.022160 -0.053488
v -0.097405 -0.030166 -0.044663
v -0.101386 -0.029795 -0.029887
v -0.097405 -0.021266 -0.017816
v -0.087795 -0.009575 -0.015520
v -0.078184 -0.001570 -0.024344
v -0.074204 -0.001940 -0.039120
v -0.078184 -0.010469 -0.051192
v -0.087795 -0.009415 -0.053434
v -0.099152 -0.019281 -0.050609
v -0.103856 -0.027148 -0.038349
v -0.099152 -0.028407 -0.023837
v -0.087795 -0.022321 -0.015574
v -0.076437 -0.012455 -0.018399
v -0.071733 -0.004588 -0.030659
v -0.076437 -0.003329 -0.045171
v -0.102564 0.009427 -0.047011
v -0.113922 -0.000439 -0.044186
v -0.118626 -0.008306 -0.031926
v -0.113922 -0.009565 -0.017414
v -0.102564 -0.003479 -0.009151
v -0.091207 0.006387 -0.011976
v -0.086503 0.014254 -0.024236
v -0.091207 0.015513 -0.038748
v -0.102564 0.012323 -0.045761
v -0.114625 0.003056 -0.044035
v -0.119621 -0.006259 -0.032963
v -0.114625 -0.010166 -0.019031
v -0.102564 -0.006375 -0.010401
v -0.090504 0.002892 -0.012127
v -0.085508 0.012207 -0.023199
v -0.090504 0.016113 -0.037131
v -0.115925 0.031611 -0.035562
v -0.127986 0.022344 -0.033836
v -0.132982 0.013029 -0.022764
v -0.127986 0.009123 -0.008832
v -0.115925 0.012913 -0.000201
v -0.103865 0.022180 -0.001927
v -0.098869 0.031495 -0.012999
v -0.103865 0.035402 -0.026931
v 0.000000 -0.018616 0.007310
v -0.007643 -0.008815 0.016244
v -0.010809 0.006150 0.015663
v -0.007643 0.017513 0.005907
v -0.000000 0.018616 -0.007310
v 0.007643 0.008815 -0.016244
v 0.010809 -0.006150 -0.015663
v 0.007643 -0.017513 -0.005907
v -0.062320 -0.033248 -0.029952
v -0.069963 -0.023446 -0.021017
v -0.073129 -0.008481 -0.021599
v -0.069963 0.002881 -0.031355
v -0.062320 0.003985 -0.044572
v -0.054677 -0.005817 -0.053506
v -0.051511 -0.020782 -0.052925
v -0.054677 -0.032144 -0.043168
v -0.062320 -0.017434 -0.057064
v -0.070110 -0.028300 -0.049610
v -0.073337 -0.031159 -0.034923
v -0.070110 -0.024336 -0.021605
v -0.062320 -0.011829 -0.017459
v -0.054530 -0.000963 -0.024913
v -0.051303 0.001896 -0.039601
v -0.054530 -0.004927 -0.052918
v -0.076428 -0.008214 -0.058369
v -0.084218 -0.019080 -0.050915
v -0.087445 -0.021939 -0.036228
v -0.084218 -0.015116 -0.022910
v -0.076428 -0.002609 -0.018764
v -0.068638 0.008257 -0.026218
v -0.065411 0.011116 -0.040906
v -0.068638 0.004293 -0.054223
v -0.076428 0.004135 -0.056141
v -0.086342 -0.007523 -0.055808
v -0.090448 -0.017945 -0.045375
v -0.086342 -0.021024 -0.030954
v -0.076428 -0.014958 -0.020992
v -0.066514 -0.003300 -0.021326
v -0.062408 0.007122 -0.031759
v -0.066514 0.010201 -0.046180
v -0.090257 0.016080 -0.049653
v -0.100170 0.004422 -0.049319
v -0.104277 -0.006000 -0.038886
v -0.100170 -0.009079 -0.024465
v -0.090257 -0.003013 -0.014504
v -0.080343 0.008645 -0.014837
v -0.076236 0.019067 -0.025270
v -0.080343 0.022146 -0.039691
v -0.090257 0.016116 -0.049633
v -0.101918 0.006287 -0.048325
v -0.106748 -0.003398 -0.037499
v -0.101918 -0.007265 -0.023498
v -0.090257 -0.003049 -0.014523
v -0.078595 0.006780 -0.015832
v -0.073765 0.016465 -0.026657
v -0.078595 0.020332 -0.040658
v -0.100086 0.028691 -0.042769
v -0.111747 0.018862 -0.041460
v -0.116578 0.009178 -0.030635
v -0.111747 0.005311 -0.016634
v -0.100086 0.009527 -0.007659
v -0.088424 0.019356 -0.008967
v -0.083594 0.029041 -0.019793
v -0.088424 0.032907 -0.033794
v -0.015000 -0.015000 -0.015000
v 0.015000 -0.015000 -0.015000
v 0.015000 0.015000 -0.015000
v -0.015000 0.015000 -0.015000
v -0.015000 -0.015000 0.015000
v 0.015000 -0.015000 0.015000
v 0.015000 0.015000 0.015000
v -0.015000 0.015000 0.015000
v -0.039601 -0.017859 -0.002325
v -0.009601 -0.017859 -0.002325
v -0.009601 0.012141 -0.002325
v -0.039601 0.012141 -0.002325
v -0.039601 -0.017859 0.027675
v -0.009601 -0.017859 0.027675
v -0.009601 0.012141 0.027675
v -0.039601 0.012141 0.027675
v -0.070432 -0.018149 0.002720
v -0.040432 -0.018149 0.002720
v -0.040432 0.011851 0.002720
v -0.070432 0.011851 0.002720
v -0.070432 -0.018149 0.032720
v -0.040432 -0.018149 0.032720
v -0.040432 0.011851 0.032720
v -0.070432 0.011851 0.032720
v -0.096867 -0.011892 -0.001483
v -0.066867 -0.011892 -0.001483
v -0.066867 0.018108 -0.001483
v -0.096867 0.018108 -0.001483
v -0.096867 -0.011892 0.028517
v -0.066867 -0.011892 0.028517
v -0.066867 0.018108 0.028517
v -0.096867 0.018108 0.028517
v -0.110940 -0.007019 -0.004064
v -0.080940 -0.007019 -0.004064
v -0.080940 0.022981 -0.004064
v -0.110940 0.022981 -0.004064
v -0.110940 -0.007019 0.025936
v -0.080940 -0.007019 0.025936
v -0.080940 0.022981 0.025936
v -0.110940 0.022981 0.025936
v -0.092881 -0.054367 -0.015544
v -0.062881 -0.054367 -0.015544
v -0.062881 -0.024367 -0.015544
v -0.092881 -0.024367 -0.015544
v -0.092881 -0.054367 0.014456
v -0.062881 -0.054367 0.014456
v -0.062881 -0.024367 0.014456
v -0.092881 -0.024367 0.014456
v -0.108162 -0.035532 -0.020187
v -0.078162 -0.035532 -0.020187
v -0.078162 -0.005532 -0.020187
v -0.108162 -0.005532 -0.020187
v -0.108162 -0.035532 0.009813
v -0.078162 -0.035532 0.009813
v -0.078162 -0.005532 0.009813
v -0.108162 -0.005532 0.009813
v -0.119560 -0.017024 -0.015612
v -0.089560 -0.017024 -0.015612
v -0.089560 0.012976 -0.015612
v -0.119560 0.012976 -0.015612
v -0.119560 -0.017024 0.014388
v -0.089560 -0.017024 0.014388
v -0.089560 0.012976 0.014388
v -0.119560 0.012976 0.014388
v -0.128474 0.007081 -0.016077
v -0.098474 0.007081 -0.016077
v -0.098474 0.037081 -0.016077
v -0.128474 0.037081 -0.016077
v -0.128474 0.007081 0.013923
v -0.098474 0.007081 0.013923
v -0.098474 0.037081 0.013923
v -0.128474 0.037081 0.013923
v -0.092077 -0.049185 -0.028125
v -0.062077 -0.049185 -0.028125
v -0.062077 -0.019185 -0.028125
v -0.092077 -0.019185 -0.028125
v -0.092077 -0.049185 0.001875
v -0.062077 -0.049185 0.001875
v -0.062077 -0.019185 0.001875
v -0.092077 -0.019185 0.001875
v -0.111673 -0.035107 -0.036288
v -0.081673 -0.035107 -0.036288
v -0.081673 -0.005107 -0.036288
v -0.111673 -0.005107 -0.036288
v -0.111673 -0.035107 -0.006288
v -0.081673 -0.035107 -0.006288
v -0.081673 -0.005107 -0.006288
v -0.111673 -0.005107 -0.006288
v -0.121912 -0.010641 -0.034050
v -0.091912 -0.010641 -0.034050
v -0.091912 0.019359 -0.034050
v -0.121912 0.019359 -0.034050
v -0.121912 -0.010641 -0.004050
v -0.091912 -0.010641 -0.004050
v -0.091912 0.019359 -0.004050
v -0.121912 0.019359 -0.004050
v -0.136012 0.008854 -0.024970
v -0.106012 0.008854 -0.024970
v -0.106012 0.038854 -0.024970
v -0.136012 0.038854 -0.024970
v -0.136012 0.008854 0.005030
v -0.106012 0.008854 0.005030
v -0.106012 0.038854 0.005030
v -0.136012 0.038854 0.005030
v -0.088048 -0.043833 -0.045206
v -0.058048 -0.043833 -0.045206
v -0.058048 -0.013833 -0.045206
v -0.088048 -0.013833 -0.045206
v -0.088048 -0.043833 -0.015206
v -0.058048 -0.043833 -0.015206
v -0.058048 -0.013833 -0.015206
v -0.088048 -0.013833 -0.015206
v -0.102795 -0.030868 -0.049504
v -0.072795 -0.030868 -0.049504
v -0.072795 -0.000868 -0.049504
v -0.102795 -0.000868 -0.049504
v -0.102795 -0.030868 -0.019504
v -0.072795 -0.030868 -0.019504
v -0.072795 -0.000868 -0.019504
v -0.102795 -0.000868 -0.019504
v -0.117564 -0.012026 -0.043081
v -0.087564 -0.012026 -0.043081
v -0.087564 0.017974 -0.043081
v -0.117564 0.017974 -0.043081
v -0.117564 -0.012026 -0.013081
v -0.087564 -0.012026 -0.013081
v -0.087564 0.017974 -0.013081
v -0.117564 0.017974 -0.013081
v -0.130925 0.007262 -0.032882
v -0.100925 0.007262 -0.032882
v -0.100925 0.037262 -0.032882
v -0.130925 0.037262 -0.032882
v -0.130925 0.007262 -0.002882
v -0.100925 0.007262 -0.002882
v -0.100925 0.037262 -0.002882
v -0.130925 0.037262 -0.002882
v -0.077320 -0.029631 -0.052262
v -0.047320 -0.029631 -0.052262
v -0.047320 0.000369 -0.052262
v -0.077320 0.000369 -0.052262
v -0.077320 -0.029631 -0.022262
v -0.047320 -0.029631 -0.022262
v -0.047320 0.000369 -0.022262
v -0.077320 0.000369 -0.022262
v -0.091428 -0.020411 -0.053567
v -0.061428 -0.020411 -0.053567
v -0.061428 0.009589 -0.053567
v -0.091428 0.009589 -0.053567
v -0.091428 -0.020411 -0.023567
v -0.061428 -0.020411 -0.023567
v -0.061428 0.009589 -0.023567
v -0.091428 0.009589 -0.023567
v -0.105257 -0.008466 -0.047078
v -0.075257 -0.008466 -0.047078
v -0.075257 0.021534 -0.047078
v -0.105257 0.021534 -0.047078
v -0.105257 -0.008466 -0.017078
v -0.075257 -0.008466 -0.017078
v -0.075257 0.021534 -0.017078
v -0.105257 0.021534 -0.017078
v -0.115086 0.004109 -0.040214
v -0.085086 0.004109 -0.040214
v -0.085086 0.034109 -0.040214
v -0.115086 0.034109 -0.040214
v -0.115086 0.004109 -0.010214
v -0.085086 0.004109 -0.010214
v -0.085086 0.034109 -0.010214
v -0.115086 0.034109 -0.010214
v 0.000000 0.018297 0.008076
v -0.013482 0.011214 0.009616
v -0.019067 -0.002438 0.005523
v -0.013482 -0.014662 -0.001806
v -0.000000 -0.018297 -0.008076
v 0.013482 -0.011214 -0.009616
v 0.019067 0.002438 -0.005523
v 0.013482 0.014662 0.001806
v 0.002453 0.015168 0.015164
v -0.011029 0.008085 0.016704
v -0.016614 -0.005567 0.012611
v -0.011029 -0.017790 0.005282
v 0.002453 -0.021426 -0.000988
v 0.015936 -0.014343 -0.002528
v 0.021520 -0.000691 0.001565
v 0.015936 0.011533 0.008894
v 0.002453 0.011493 0.020734
v -0.008748 0.001320 0.023049
v -0.013388 -0.011459 0.016014
v -0.008748 -0.019358 0.003750
v 0.002453 -0.017750 -0.006558
v 0.013655 -0.007577 -0.008872
v 0.018294 0.005201 -0.001838
v 0.013655 0.013100 0.010426
v 0.010381 0.004475 0.028254
v -0.000821 -0.005698 0.030568
v -0.005460 -0.018477 0.023534
v -0.000821 -0.026376 0.011270
v 0.010381 -0.024768 0.000962
v 0.021582 -0.014596 -0.001353
v 0.026222 -0.001817 0.005682
v 0.021582 0.006082 0.017946
v 0.010381 0.002090 -0.001212
v 0.002422 0.007752 0.010574
v -0.000875 0.002929 0.024723
v 0.002422 -0.009553 0.032946
v 0.010381 -0.022384 0.030427
v 0.018340 -0.028046 0.018641
v 0.021636 -0.023223 0.004493
v 0.018340 -0.010740 -0.003731
v 0.019085 0.006778 0.002415
v 0.011126 0.012440 0.014200
v 0.007830 0.007617 0.028349
v 0.011126 -0.004866 0.036573
v 0.019085 -0.017696 0.034053
v 0.027044 -0.023359 0.022268
v 0.030341 -0.018536 0.008119
v 0.027044 -0.006053 -0.000105
v 0.019085 0.009619 0.005094
v 0.006336 0.009223 0.013557
v 0.001055 0.000227 0.024759
v 0.006336 -0.012100 0.032139
v 0.019085 -0.020537 0.031374
v 0.031835 -0.020142 0.022911
v 0.037116 -0.011146 0.011709
v 0.031835 0.001182 0.004329
v 0.029096 0.023319 0.020816
v 0.016346 0.022924 0.029278
v 0.011065 0.013928 0.040480
v 0.016346 0.001600 0.047861
v 0.029096 -0.006837 0.047095
v 0.041845 -0.006441 0.038633
v 0.047126 0.002555 0.027430
v 0.041845 0.014882 0.020050
v -0.004731 0.000000 0.019432
v -0.006527 -0.013758 0.012966
v -0.004500 -0.019456 -0.001096
v 0.000163 -0.013758 -0.014515
v 0.004731 -0.000000 -0.019432
v 0.006527 0.013758 -0.012966
v 0.004500 0.019456 0.001096
v -0.000163 0.013758 0.014515
v 0.049462 -0.013277 0.032626
v 0.047666 -0.027035 0.026160
v 0.049693 -0.032733 0.012098
v 0.054357 -0.027035 -0.001322
v 0.058924 -0.013277 -0.006239
v 0.060720 0.000481 0.000227
v 0.058693 0.006179 0.014289
v 0.054030 0.000481 0.027709
v 0.054447 -0.013277 0.033192
v 0.054929 -0.027408 0.027327
v 0.054980 -0.033261 0.013184
v 0.054570 -0.027408 -0.000955
v 0.053940 -0.013277 -0.006805
v 0.053458 0.000854 -0.000940
v 0.053407 0.006708 0.013203
v 0.053816 0.000854 0.027342
v 0.075569 -0.012445 0.032924
v 0.076052 -0.026576 0.027060
v 0.076103 -0.032430 0.012916
v 0.075693 -0.026576 -0.001222
v 0.075063 -0.012445 -0.007072
v 0.074581 0.001686 -0.001208
v 0.074529 0.007539 0.012936
v 0.074939 0.001686 0.027074
v 0.070801 -0.012445 0.032410
v 0.072698 -0.026575 0.026836
v 0.076129 -0.032428 0.013114
v 0.079083 -0.026575 -0.000718
v 0.079831 -0.012445 -0.006558
v 0.077934 0.001685 -0.000984
v 0.074504 0.007537 0.012738
v 0.071549 0.001685 0.026570
v 0.091595 -0.011554 0.037228
v 0.093492 -0.025684 0.031655
v 0.096922 -0.031537 0.017933
v 0.099877 -0.025684 0.004101
v 0.100625 -0.011554 -0.001739
v 0.098728 0.002576 0.003835
v 0.095297 0.008428 0.017556
v 0.092343 0.002576 0.031389
v 0.100291 -0.011554 0.037303
v 0.099467 -0.025691 0.031489
v 0.096677 -0.031546 0.017623
v 0.093554 -0.025691 0.003829
v 0.091928 -0.011554 -0.001813
v 0.092752 0.002582 0.004001
v 0.095543 0.008437 0.017866
v 0.098666 0.002582 0.031660
v 0.125669 -0.010802 0.031877
v 0.124846 -0.024938 0.026063
v 0.122055 -0.030793 0.012198
v 0.118932 -0.024938 -0.001596
v 0.117306 -0.010802 -0.007239
v 0.118130 0.003335 -0.001425
v 0.120921 0.009190 0.012440
v 0.124044 0.003335 0.026234
v -0.003328 0.000000 0.019721
v -0.004827 -0.013918 0.013527
v -0.003498 -0.019683 -0.000590
v -0.000120 -0.013918 -0.014362
v 0.003328 -0.000000 -0.019721
v 0.004827 0.013918 -0.013527
v 0.003498 0.019683 0.000590
v 0.000120 0.013918 0.014362
v 0.057973 -0.011205 0.030067
v 0.056474 -0.025123 0.023873
v 0.057803 -0.030888 0.009755
v 0.061181 -0.025123 -0.004017
v 0.064630 -0.011205 -0.009375
v 0.066128 0.002713 -0.003182
v 0.064799 0.008478 0.010936
v 0.061421 0.002713 0.024708
v 0.063397 -0.011205 0.030236
v 0.061144 -0.025251 0.024583
v 0.058983 -0.031069 0.010590
v 0.058180 -0.025251 -0.003546
v 0.059205 -0.011205 -0.009544
v 0.061459 0.002840 -0.003891
v 0.063620 0.008658 0.010101
v 0.064423 0.002840 0.024237
v 0.089197 -0.014250 0.027517
v 0.086943 -0.028296 0.021864
v 0.084782 -0.034114 0.007872
v 0.083979 -0.028296 -0.006264
v 0.085005 -0.014250 -0.012263
v 0.087258 -0.000205 -0.006610
v 0.089419 0.005613 0.007383
v 0.090222 -0.000205 0.021519
v 0.084544 -0.014250 0.027463
v 0.082947 -0.028193 0.021351
v 0.083783 -0.033969 0.007200
v 0.086562 -0.028193 -0.006701
v 0.089657 -0.014250 -0.012209
v 0.091255 -0.000307 -0.006096
v 0.090419 0.005468 0.008055
v 0.087639 -0.000307 0.021956
v 0.109817 -0.018574 0.030721
v 0.108220 -0.032517 0.024609
v 0.109056 -0.038292 0.010457
v 0.111835 -0.032517 -0.003444
v 0.114930 -0.018574 -0.008951
v 0.116528 -0.004631 -0.002839
v 0.115692 0.001144 0.011313
v 0.112912 -0.004631 0.025213
v 0.107938 -0.018574 0.030387
v 0.108127 -0.032670 0.024422
v 0.110804 -0.038509 0.010528
v 0.114400 -0.032670 -0.003158
v 0.116810 -0.018574 -0.008617
v 0.116620 -0.004478 -0.002653
v 0.113944 0.001361 0.011242
v 0.110347 -0.004478 0.024927
v 0.137132 -0.020992 0.037027
v 0.137322 -0.035088 0.031063
v 0.139998 -0.040927 0.017168
v 0.143595 -0.035088 0.003483
v 0.146004 -0.020992 -0.001976
v 0.145815 -0.006896 0.003988
v 0.143138 -0.001057 0.017883
v 0.139542 -0.006896 0.031568
v 0.001015 0.000000 0.019974
v -0.001039 -0.014032 0.014213
v -0.002484 -0.019845 0.000126
v -0.002475 -0.014032 -0.014035
v -0.001015 -0.000000 -0.019974
v 0.001039 0.014032 -0.014213
v 0.002484 0.019845 -0.000126
v 0.002475 0.014032 0.014035
v 0.066928 -0.008273 0.016624
v 0.064874 -0.022305 0.010863
v 0.063428 -0.028118 -0.003224
v 0.063438 -0.022305 -0.017385
v 0.064897 -0.008273 -0.023325
v 0.066951 0.005759 -0.017564
v 0.068397 0.011572 -0.003477
v 0.068387 0.005759 0.010684
v 0.065883 -0.008273 0.016649
v 0.063596 -0.022227 0.010788
v 0.062666 -0.028008 -0.003355
v 0.063637 -0.022227 -0.017496
v 0.065941 -0.008273 -0.023351
v 0.068228 0.005682 -0.017489
v 0.069159 0.011462 -0.003346
v 0.068187 0.005682 0.010795
v 0.085319 -0.011470 0.016678
v 0.083032 -0.025425 0.010816
v 0.082101 -0.031205 -0.003327
v 0.083073 -0.025425 -0.017468
v 0.085377 -0.011470 -0.023322
v 0.087664 0.002484 -0.017461
v 0.088594 0.008265 -0.003318
v 0.087623 0.002484 0.010823
v 0.082870 -0.011470 0.016524
v 0.083088 -0.025603 0.010648
v 0.084630 -0.031457 -0.003412
v 0.086593 -0.025603 -0.017419
v 0.087826 -0.011470 -0.023168
v 0.087607 0.002663 -0.017292
v 0.086065 0.008517 -0.003233
v 0.084103 0.002663 0.010774
v 0.105224 -0.012285 0.019315
v 0.105442 -0.026418 0.013438
v 0.106984 -0.032272 -0.000621
v 0.108946 -0.026418 -0.014628
v 0.110179 -0.012285 -0.020377
v 0.109961 0.001848 -0.014501
v 0.108419 0.007702 -0.000442
v 0.106457 0.001848 0.013565
v 0.104131 -0.012285 0.019147
v 0.102379 -0.026138 0.012876
v 0.103746 -0.031877 -0.001249
v 0.107429 -0.026138 -0.014954
v 0.111272 -0.012285 -0.020210
v 0.113023 0.001569 -0.013939
v 0.111657 0.007307 0.000186
v 0.107973 0.001569 0.013891
v 0.129506 -0.017577 0.023752
v 0.127755 -0.031430 0.017481
v 0.129121 -0.037169 0.003355
v 0.132805 -0.031430 -0.010349
v 0.136648 -0.017577 -0.015605
v 0.138399 -0.003723 -0.009334
v 0.137033 0.002015 0.004791
v 0.133349 -0.003723 0.018496
v 0.003687 0.000000 0.019657
v 0.000544 -0.013986 0.014287
v -0.002917 -0.019779 0.000547
v -0.004669 -0.013986 -0.013513
v -0.003687 -0.000000 -0.019657
v -0.000544 0.013986 -0.014287
v 0.002917 0.019779 -0.000547
v 0.004669 0.013986 0.013513
v 0.064781 -0.009327 0.008199
v 0.061638 -0.023313 0.002829
v 0.058177 -0.029106 -0.010911
v 0.056424 -0.023313 -0.024971
v 0.057407 -0.009327 -0.031115
v 0.060550 0.004658 -0.025745
v 0.064011 0.010451 -0.012005
v 0.065763 0.004658 0.002055
v 0.062594 -0.009327 0.008486
v 0.060473 -0.023368 0.002771
v 0.058716 -0.029184 -0.011279
v 0.058352 -0.023368 -0.025434
v 0.059594 -0.009327 -0.031402
v 0.061715 0.004714 -0.025687
v 0.063472 0.010530 -0.011637
v 0.063836 0.004714 0.002518
v 0.077004 -0.011063 0.007402
v 0.074883 -0.025104 0.001687
v 0.073125 -0.030920 -0.012363
v 0.072762 -0.025104 -0.026518
v 0.074004 -0.011063 -0.032485
v 0.076125 0.002978 -0.026770
v 0.077882 0.008795 -0.012721
v 0.078246 0.002978 0.001434
v 0.075998 -0.011063 0.007452
v 0.076094 -0.025203 0.001590
v 0.075844 -0.031060 -0.012550
v 0.075395 -0.025203 -0.026685
v 0.075009 -0.011063 -0.032536
v 0.074913 0.003077 -0.026674
v 0.075164 0.008934 -0.012533
v 0.075613 0.003077 0.001602
v 0.092538 -0.010781 0.007043
v 0.092634 -0.024921 0.001181
v 0.092384 -0.030778 -0.012959
v 0.091934 -0.024921 -0.027095
v 0.091549 -0.010781 -0.032945
v 0.091453 0.003359 -0.027083
v 0.091703 0.009216 -0.012942
v 0.092152 0.003359 0.001193
v 0.092675 -0.010781 0.007039
v 0.088779 -0.024427 0.001302
v 0.086795 -0.030080 -0.012785
v 0.087885 -0.024427 -0.026969
v 0.091411 -0.010781 -0.032941
v 0.095307 0.002865 -0.027203
v 0.097292 0.008517 -0.013117
v 0.096201 0.002865 0.001067
v 0.113789 -0.016529 0.006372
v 0.109893 -0.030175 0.000634
v 0.107909 -0.035827 -0.013453
v 0.108999 -0.030175 -0.027636
v 0.112525 -0.016529 -0.033608
v 0.116422 -0.002883 -0.027871
v 0.118406 0.002769 -0.013784
v 0.117315 -0.002883 0.000399
v -0.015000 -0.015000 -0.015000
v 0.015000 -0.015000 -0.015000
v 0.015000 0.015000 -0.015000
v -0.015000 0.015000 -0.015000
v -0.015000 -0.015000 0.015000
v 0.015000 -0.015000 0.015000
v 0.015000 0.015000 0.015000
v -0.015000 0.015000 0.015000
v -0.012547 -0.018129 -0.007912
v 0.017453 -0.018129 -0.007912
v 0.017453 0.011871 -0.007912
v -0.012547 0.011871 -0.007912
v -0.012547 -0.018129 0.022088
v 0.017453 -0.018129 0.022088
v 0.017453 0.011871 0.022088
v -0.012547 0.011871 0.022088
v -0.004619 -0.025147 -0.000392
v 0.025381 -0.025147 -0.000392
v 0.025381 0.004853 -0.000392
v -0.004619 0.004853 -0.000392
v -0.004619 -0.025147 0.029608
v 0.025381 -0.025147 0.029608
v 0.025381 0.004853 0.029608
v -0.004619 0.004853 0.029608
v 0.004085 -0.020459 0.003234
v 0.034085 -0.020459 0.003234
v 0.034085 0.009541 0.003234
v 0.004085 0.009541 0.003234
v 0.004085 -0.020459 0.033234
v 0.034085 -0.020459 0.033234
v 0.034085 0.009541 0.033234
v 0.004085 0.009541 0.033234
v 0.014096 -0.006759 0.018955
v 0.044096 -0.006759 0.018955
v 0.044096 0.023241 0.018955
v 0.014096 0.023241 0.018955
v 0.014096 -0.006759 0.048955
v 0.044096 -0.006759 0.048955
v 0.044096 0.023241 0.048955
v 0.014096 0.023241 0.048955
v 0.039193 -0.028277 -0.001806
v 0.069193 -0.028277 -0.001806
v 0.069193 0.001723 -0.001806
v 0.039193 0.001723 -0.001806
v 0.039193 -0.028277 0.028194
v 0.069193 -0.028277 0.028194
v 0.069193 0.001723 0.028194
v 0.039193 0.001723 0.028194
v 0.060316 -0.027445 -0.002074
v 0.090316 -0.027445 -0.002074
v 0.090316 0.002555 -0.002074
v 0.060316 0.002555 -0.002074
v 0.060316 -0.027445 0.027926
v 0.090316 -0.027445 0.027926
v 0.090316 0.002555 0.027926
v 0.060316 0.002555 0.027926
v 0.081110 -0.026554 0.002745
v 0.111110 -0.026554 0.002745
v 0.111110 0.003446 0.002745
v 0.081110 0.003446 0.002745
v 0.081110 -0.026554 0.032745
v 0.111110 -0.026554 0.032745
v 0.111110 0.003446 0.032745
v 0.081110 0.003446 0.032745
v 0.106488 -0.025802 -0.002681
v 0.136488 -0.025802 -0.002681
v 0.136488 0.004198 -0.002681
v 0.106488 0.004198 -0.002681
v 0.106488 -0.025802 0.027319
v 0.136488 -0.025802 0.027319
v 0.136488 0.004198 0.027319
v 0.106488 0.004198 0.027319
v 0.046301 -0.026205 -0.004654
v 0.076301 -0.026205 -0.004654
v 0.076301 0.003795 -0.004654
v 0.046301 0.003795 -0.004654
v 0.046301 -0.026205 0.025346
v 0.076301 -0.026205 0.025346
v 0.076301 0.003795 0.025346
v 0.046301 0.003795 0.025346
v 0.072101 -0.029250 -0.007373
v 0.102101 -0.029250 -0.007373
v 0.102101 0.000750 -0.007373
v 0.072101 0.000750 -0.007373
v 0.072101 -0.029250 0.022627
v 0.102101 -0.029250 0.022627
v 0.102101 0.000750 0.022627
v 0.072101 0.000750 0.022627
v 0.097374 -0.033574 -0.004115
v 0.127374 -0.033574 -0.004115
v 0.127374 -0.003574 -0.004115
v 0.097374 -0.003574 -0.004115
v 0.097374 -0.033574 0.025885
v 0.127374 -0.033574 0.025885
v 0.127374 -0.003574 0.025885
v 0.097374 -0.003574 0.025885
v 0.126568 -0.035992 0.002525
v 0.156568 -0.035992 0.002525
v 0.156568 -0.005992 0.002525
v 0.126568 -0.005992 0.002525
v 0.126568 -0.035992 0.032525
v 0.156568 -0.035992 0.032525
v 0.156568 -0.005992 0.032525
v 0.126568 -0.005992 0.032525
v 0.050912 -0.023273 -0.018351
v 0.080912 -0.023273 -0.018351
v 0.080912 0.006727 -0.018351
v 0.050912 0.006727 -0.018351
v 0.050912 -0.023273 0.011649
v 0.080912 -0.023273 0.011649
v 0.080912 0.006727 0.011649
v 0.050912 0.006727 0.011649
v 0.070348 -0.026470 -0.018322
v 0.100348 -0.026470 -0.018322
v 0.100348 0.003530 -0.018322
v 0.070348 0.003530 -0.018322
v 0.070348 -0.026470 0.011678
v 0.100348 -0.026470 0.011678
v 0.100348 0.003530 0.011678
v 0.070348 0.003530 0.011678
v 0.092701 -0.027285 -0.015531
v 0.122701 -0.027285 -0.015531
v 0.122701 0.002715 -0.015531
v 0.092701 0.002715 -0.015531
v 0.092701 -0.027285 0.014469
v 0.122701 -0.027285 0.014469
v 0.122701 0.002715 0.014469
v 0.092701 0.002715 0.014469
v 0.118077 -0.032577 -0.010927
v 0.148077 -0.032577 -0.010927
v 0.148077 -0.002577 -0.010927
v 0.118077 -0.002577 -0.010927
v 0.118077 -0.032577 0.019073
v 0.148077 -0.032577 0.019073
v 0.148077 -0.002577 0.019073
v 0.118077 -0.002577 0.019073
v 0.046094 -0.024327 -0.026458
v 0.076094 -0.024327 -0.026458
v 0.076094 0.005673 -0.026458
v 0.046094 0.005673 -0.026458
v 0.046094 -0.024327 0.003542
v 0.076094 -0.024327 0.003542
v 0.076094 0.005673 0.003542
v 0.046094 0.005673 0.003542
v 0.060504 -0.026063 -0.027542
v 0.090504 -0.026063 -0.027542
v 0.090504 0.003937 -0.027542
v 0.060504 0.003937 -0.027542
v 0.060504 -0.026063 0.002458
v 0.090504 -0.026063 0.002458
v 0.090504 0.003937 0.002458
v 0.060504 0.003937 0.002458
v 0.077043 -0.025781 -0.027951
v 0.107043 -0.025781 -0.027951
v 0.107043 0.004219 -0.027951
v 0.077043 0.004219 -0.027951
v 0.077043 -0.025781 0.002049
v 0.107043 -0.025781 0.002049
v 0.107043 0.004219 0.002049
v 0.077043 0.004219 0.002049
v 0.098157 -0.031529 -0.028618
v 0.128157 -0.031529 -0.028618
v 0.128157 -0.001529 -0.028618
v 0.098157 -0.001529 -0.028618
v 0.098157 -0.031529 0.001382
v 0.128157 -0.031529 0.001382
v 0.128157 -0.001529 0.001382
v 0.098157 -0.001529 0.001382
f 1 2 9
f 2 10 9
f 2 3 10
f 3 11 10
f 3 4 11
f 4 12 11
f 4 5 12
f 5 13 12
f 5 6 13
f 6 14 13
f 6 7 14
f 7 15 14
f 7 8 15
f 8 16 15
f 8 1 16
f 1 9 16
f 17 18 25
f 18 26 25
f 18 19 26
f 19 27 26
f 19 20 27
f 20 28 27
f 20 21 28
f 21 29 28
f 21 22 29
f 22 30 29
f 22 23 30
f 23 31 30
f 23 24 31
f 24 32 31
f 24 17 32
f 17 25 32
f 33 34 41
f 34 42 41
f 34 35 42
f 35 43 42
f 35 36 43
f 36 44 43
f 36 37 44
f 37 45 44
f 37 38 45
f 38 46 45
f 38 39 46
f 39 47 46
f 39 40 47
f 40 48 47
f 40 33 48
f 33 41 48
f 49 50 57
f 50 58 57
f 50 51 58
f 51 59 58
f 51 52 59
f 52 60 59
f 52 53 60
f 53 61 60
f 53 54 61
f 54 62 61
f 54 55 62
f 55 63 62
f 55 56 63
f 56 64 63
f 56 49 64
f 49 57 64
f 65 66 73
f 66 74 73
f 66 67 74
f 67 75 74
f 67 68 75
f 68 76 75
f 68 69 76
f 69 77 76
f 69 70 77
f 70 78 77
f 70 71 78
f 71 79 78
f 71 72 79
f 72 80 79
f 72 65 80
f 65 73 80
f 81 82 89
f 82 90 89
f 82 83 90
f 83 91 90
f 83 84 91
f 84 92 91
f 84 85 92
f 85 93 92
f 85 86 93
f 86 94 93
f 86 87 94
f 87 95 94
f 87 88 95
f 88 96 95
f 88 81 96
f 81 89 96
f 97 98 105
f 98 106 105
f 98 99 106
f 99 107 106
f 99 100 107
f 100 108 107
f 100 101 108
f 101 109 108
f 101 102 109
f 102 110 109
f 102 103 110
f 103 111 110
f 103 104 111
f 104 112 111
f 104 97 112
f 97 105 112
f 113 114 121
f 114 122 121
f 114 115 122
f 115 123 122
f 115 116 123
f 116 124 123
f 116 117 124
f 117 125 124
f 117 118 125
f 118 126 125
f 118 119 126
f 119 127 126
f 119 120 127
f 120 128 127
f 120 113 128
f 113 121 128
f 129 130 137
f 130 138 137
f 130 131 138
f 131 139 138
f 131 132 139
f 132 140 139
f 132 133 140
f 133 141 140
f 133 134 141
f 134 142 141
f 134 135 142
f 135 143 142
f 135 136 143
f 136 144 143
f 136 129 144
f 129 137 144
f 145 146 153
f 146 154 153
f 146 147 154
f 147 155 154
f 147 148 155
f 148 156 155
f 148 149 156
f 149 157 156
f 149 150 157
f 150 158 157
f 150 151 158
f 151 159 158
f 151 152 159
f 152 160 159
f 152 145 160
f 145 153 160
f 161 162 169
f 162 170 169
f 162 163 170
f 163 171 170
f 163 164 171
f 164 172 171
f 164 165 172
f 165 173 172
f 165 166 173
f 166 174 173
f 166 167 174
f 167 175 174
f 167 168 175
f 168 176 175
f 168 161 176
f 161 169 176
f 177 178 185
f 178 186 185
f 178 179 186
f 179 187 186
f 179 180 187
f 180 188 187
f 180 181 188
f 181 189 188
f 181 182 189
f 182 190 189
f 182 183 190
f 183 191 190
f 183 184 191
f 184 192 191
f 184 177 192
f 177 185 192
f 193 194 201
f 194 202 201
f 194 195 202
f 195 203 202
f 195 196 203
f 196 204 203
f 196 197 204
f 197 205 204
f 197 198 205
f 198 206 205
f 198 199 206
f 199 207 206
f 199 200 207
f 200 208 207
f 200 193 208
f 193 201 208
f 209 210 217
f 210 218 217
f 210 211 218
f 211 219 218
f 211 212 219
f 212 220 219
f 212 213 220
f 213 221 220
f 213 214 221
f 214 222 221
f 214 215 222
f 215 223 222
f 215 216 223
f 216 224 223
f 216 209 224
f 209 217 224
f 225 226 233
f 226 234 233
f 226 227 234
f 227 235 234
f 227 228 235
f 228 236 235
f 228 229 236
f 229 237 236
f 229 230 237
f 230 238 237
f 230 231 238
f 231 239 238
f 231 232 239
f 232 240 239
f 232 225 240
f 225 233 240
f 241 242 249
f 242 250 249
f 242 243 250
f 243 251 250
f 243 244 251
f 244 252 251
f 244 245 252
f 245 253 252
f 245 246 253
f 246 254 253
f 246 247 254
f 247 255 254
f 247 248 255
f 248 256 255
f 248 241 256
f 241 249 256
f 257 258 265
f 258 266 265
f 258 259 266
f 259 267 266
f 259 260 267
f 260 268 267
f 260 261 268
f 261 269 268
f 261 262 269
f 262 270 269
f 262 263 270
f 263 271 270
f 263 264 271
f 264 272 271
f 264 257 272
f 257 265 272
f 273 274 281
f 274 282 281
f 274 275 282
f 275 283 282
f 275 276 283
f 276 284 283
f 276 277 284
f 277 285 284
f 277 278 285
f 278 286 285
f 278 279 286
f 279 287 286
f 279 280 287
f 280 288 287
f 280 273 288
f 273 281 288
f 289 290 297
f 290 298 297
f 290 291 298
f 291 299 298
f 291 292 299
f 292 300 299
f 292 293 300
f 293 301 300
f 293 294 301
f 294 302 301
f 294 295 302
f 295 303 302
f 295 296 303
f 296 304 303
f 296 289 304
f 289 297 304
f 305 306 313
f 306 314 313
f 306 307 314
f 307 315 314
f 307 308 315
f 308 316 315
f 308 309 316
f 309 317 316
f 309 310 317
f 310 318 317
f 310 311 318
f 311 319 318
f 311 312 319
f 312 320 319
f 312 305 320
f 305 313 320
f 321 322 323
f 321 323 324
f 325 326 327
f 325 327 328
f 321 325 326
f 321 326 322
f 322 326 327
f 322 327 323
f 323 327 328
f 323 328 324
f 324 328 325
f 324 325 321
f 329 330 331
f 329 331 332
f 333 334 335
f 333 335 336
f 329 333 334
f 329 334 330
f 330 334 335
f 330 335 331
f 331 335 336
f 331 336 332
f 332 336 333
f 332 333 329
f 337 338 339
f 337 339 340
f 341 342 343
f 341 343 344
f 337 341 342
f 337 342 338
f 338 342 343
f 338 343 339
f 339 343 344
f 339 344 340
f 340 344 341
f 340 341 337
f 345 346 347
f 345 347 348
f 349 350 351
f 349 351 352
f 345 349 350
f 345 350 346
f 346 350 351
f 346 351 347
f 347 351 352
f 347 352 348
f 348 352 349
f 348 349 345
f 353 354 355
f 353 355 356
f 357 358 359
f 357 359 360
f 353 357 358
f 353 358 354
f 354 358 359
f 354 359 355
f 355 359 360
f 355 360 356
f 356 360 357
f 356 357 353
f 361 362 363
f 361 363 364
f 365 366 367
f 365 367 368
f 361 365 366
f 361 366 362
f 362 366 367
f 362 367 363
f 363 367 368
f 363 368 364
f 364 368 365
f 364 365 361
f 369 370 371
f 369 371 372
f 373 374 375
f 373 375 376
f 369 373 374
f 369 374 370
f 370 374 375
f 370 375 371
f 371 375 376
f 371 376 372
f 372 376 373
f 372 373 369
f 377 378 379
f 377 379 380
f 381 382 383
f 381 383 384
f 377 381 382
f 377 382 378
f 378 382 383
f 378 383 379
f 379 383 384
f 379 384 380
f 380 384 381
f 380 381 377
f 385 386 387
f 385 387 388
f 389 390 391
f 389 391 392
f 385 389 390
f 385 390 386
f 386 390 391
f 386 391 387
f 387 391 392
f 387 392 388
f 388 392 389
f 388 389 385
f 393 394 395
f 393 395 396
f 397 398 399
f 397 399 400
f 393 397 398
f 393 398 394
f 394 398 399
f 394 399 395
f 395 399 400
f 395 400 396
f 396 400 397
f 396 397 393
f 401 402 403
f 401 403 404
f 405 406 407
f 405 407 408
f 401 405 406
f 401 406 402
f 402 406 407
f 402 407 403
f 403 407 408
f 403 408 404
f 404 408 405
f 404 405 401
f 409 410 411
f 409 411 412
f 413 414 415
f 413 415 416
f 409 413 414
f 409 414 410
f 410 414 415
f 410 415 411
f 411 415 416
f 411 416 412
f 412 416 413
f 412 413 409
f 417 418 419
f 417 419 420
f 421 422 423
f 421 423 424
f 417 421 422
f 417 422 418
f 418 422 423
f 418 423 419
f 419 423 424
f 419 424 420
f 420 424 421
f 420 421 417
f 425 426 427
f 425 427 428
f 429 430 431
f 429 431 432
f 425 429 430
f 425 430 426
f 426 430 431
f 426 431 427
f 427 431 432
f 427 432 428
f 428 432 429
f 428 429 425
f 433 434 435
f 433 435 436
f 437 438 439
f 437 439 440
f 433 437 438
f 433 438 434
f 434 438 439
f 434 439 435
f 435 439 440
f 435 440 436
f 436 440 437
f 436 437 433
f 441 442 443
f 441 443 444
f 445 446 447
f 445 447 448
f 441 445 446
f 441 446 442
f 442 446 447
f 442 447 443
f 443 447 448
f 443 448 444
f 444 448 445
f 444 445 441
f 449 450 451
f 449 451 452
f 453 454 455
f 453 455 456
f 449 453 454
f 449 454 450
f 450 454 455
f 450 455 451
f 451 455 456
f 451 456 452
f 452 456 453
f 452 453 449
f 457 458 459
f 457 459 460
f 461 462 463
f 461 463 464
f 457 461 462
f 457 462 458
f 458 462 463
f 458 463 459
f 459 463 464
f 459 464 460
f 460 464 461
f 460 461 457
f 465 466 467
f 465 467 468
f 469 470 471
f 469 471 472
f 465 469 470
f 465 470 466
f 466 470 471
f 466 471 467
f 467 471 472
f 467 472 468
f 468 472 469
f 468 469 465
f 473 474 475
f 473 475 476
f 477 478 479
f 477 479 480
f 473 477 478
f 473 478 474
f 474 478 479
f 474 479 475
f 475 479 480
f 475 480 476
f 476 480 477
f 476 477 473
f 481 482 483
f 481 483 484
f 485 486 487
f 485 487 488
f 481 485 486
f 481 486 482
f 482 486 487
f 482 487 483
f 483 487 488
f 483 488 484
f 484 488 485
f 484 485 481
f 489 490 497
f 490 498 497
f 490 491 498
f 491 499 498
f 491 492 499
f 492 500 499
f 492 493 500
f 493 501 500
f 493 494 501
f 494 502 501
f 494 495 502
f 495 503 502
f 495 496 503
f 496 504 503
f 496 489 504
f 489 497 504
f 505 506 513
f 506 514 513
f 506 507 514
f 507 515 514
f 507 508 515
f 508 516 515
f 508 509 516
f 509 517 516
f 509 510 517
f 510 518 517
f 510 511 518
f 511 519 518
f 511 512 519
f 512 520 519
f 512 505 520
f 505 513 520
f 521 522 529
f 522 530 529
f 522 523 530
f 523 531 530
f 523 524 531
f 524 532 531
f 524 525 532
f 525 533 532
f 525 526 533
f 526 534 533
f 526 527 534
f 527 535 534
f 527 528 535
f 528 536 535
f 528 521 536
f 521 529 536
f 537 538 545
f 538 546 545
f 538 539 546
f 539 547 546
f 539 540 547
f 540 548 547
f 540 541 548
f 541 549 548
f 541 542 549
f 542 550 549
f 542 543 550
f 543 551 550
f 543 544 551
f 544 552 551
f 544 537 552
f 537 545 552
f 553 554 561
f 554 562 561
f 554 555 562
f 555 563 562
f 555 556 563
f 556 564 563
f 556 557 564
f 557 565 564
f 557 558 565
f 558 566 565
f 558 559 566
f 559 567 566
f 559 560 567
f 560 568 567
f 560 553 568
f 553 561 568
f 569 570 577
f 570 578 577
f 570 571 578
f 571 579 578
f 571 572 579
f 572 580 579
f 572 573 580
f 573 581 580
f 573 574 581
f 574 582 581
f 574 575 582
f 575 583 582
f 575 576 583
f 576 584 583
f 576 569 584
f 569 577 584
f 585 586 593
f 586 594 593
f 586 587 594
f 587 595 594
f 587 588 595
f 588 596 595
f 588 589 596
f 589 597 596
f 589 590 597
f 590 598 597
f 590 591 598
f 591 599 598
f 591 592 599
f 592 600 599
f 592 585 600
f 585 593 600
f 601 602 609
f 602 610 609
f 602 603 610
f 603 611 610
f 603 604 611
f 604 612 611
f 604 605 612
f 605 613 612
f 605 606 613
f 606 614 613
f 606 607 614
f 607 615 614
f 607 608 615
f 608 616 615
f 608 601 616
f 601 609 616
f 617 618 625
f 618 626 625
f 618 619 626
f 619 627 626
f 619 620 627
f 620 628 627
f 620 621 628
f 621 629 628
f 621 622 629
f 622 630 629
f 622 623 630
f 623 631 630
f 623 624 631
f 624 632 631
f 624 617 632
f 617 625 632
f 633 634 641
f 634 642 641
f 634 635 642
f 635 643 642
f 635 636 643
f 636 644 643
f 636 637 644
f 637 645 644
f 637 638 645
f 638 646 645
f 638 639 646
f 639 647 646
f 639 640 647
f 640 648 647
f 640 633 648
f 633 641 648
f 649 650 657
f 650 658 657
f 650 651 658
f 651 659 658
f 651 652 659
f 652 660 659
f 652 653 660
f 653 661 660
f 653 654 661
f 654 662 661
f 654 655 662
f 655 663 662
f 655 656 663
f 656 664 663
f 656 649 664
f 649 657 664
f 665 666 673
f 666 674 673
f 666 667 674
f 667 675 674
f 667 668 675
f 668 676 675
f 668 669 676
f 669 677 676
f 669 670 677
f 670 678 677
f 670 671 678
f 671 679 678
f 671 672 679
f 672 680 679
f 672 665 680
f 665 673 680
f 681 682 689
f 682 690 689
f 682 683 690
f 683 691 690
f 683 684 691
f 684 692 691
f 684 685 692
f 685 693 692
f 685 686 693
f 686 694 693
f 686 687 694
f 687 695 694
f 687 688 695
f 688 696 695
f 688 681 696
f 681 689 696
f 697 698 705
f 698 706 705
f 698 699 706
f 699 707 706
f 699 700 707
f 700 708 707
f 700 701 708
f 701 709 708
f 701 702 709
f 702 710 709
f 702 703 710
f 703 711 710
f 703 704 711
f 704 712 711
f 704 697 712
f 697 705 712
f 713 714 721
f 714 722 721
f 714 715 722
f 715 723 722
f 715 716 723
f 716 724 723
f 716 717 724
f 717 725 724
f 717 718 725
f 718 726 725
f 718 719 726
f 719 727 726
f 719 720 727
f 720 728 727
f 720 713 728
f 713 721 728
f 729 730 737
f 730 738 737
f 730 731 738
f 731 739 738
f 731 732 739
f 732 740 739
f 732 733 740
f 733 741 740
f 733 734 741
f 734 742 741
f 734 735 742
f 735 743 742
f 735 736 743
f 736 744 743
f 736 729 744
f 729 737 744
f 745 746 753
f 746 754 753
f 746 747 754
f 747 755 754
f 747 748 755
f 748 756 755
f 748 749 756
f 749 757 756
f 749 750 757
f 750 758 757
f 750 751 758
f 751 759 758
f 751 752 759
f 752 760 759
f 752 745 760
f 745 753 760
f 761 762 769
f 762 770 769
f 762 763 770
f 763 771 770
f 763 764 771
f 764 772 771
f 764 765 772
f 765 773 772
f 765 766 773
f 766 774 773
f 766 767 774
f 767 775 774
f 767 768 775
f 768 776 775
f 768 761 776
f 761 769 776
f 777 778 785
f 778 786 785
f 778 779 786
f 779 787 786
f 779 780 787
f 780 788 787
f 780 781 788
f 781 789 788
f 781 782 789
f 782 790 789
f 782 783 790
f 783 791 790
f 783 784 791
f 784 792 791
f 784 777 792
f 777 785 792
f 793 794 801
f 794 802 801
f 794 795 802
f 795 803 802
f 795 796 803
f 796 804 803
f 796 797 804
f 797 805 804
f 797 798 805
f 798 806 805
f 798 799 806
f 799 807 806
f 799 800 807
f 800 808 807
f 800 793 808
f 793 801 808
f 809 810 811
f 809 811 812
f 813 814 815
f 813 815 816
f 809 813 814
f 809 814 810
f 810 814 815
f 810 815 811
f 811 815 816
f 811 816 812
f 812 816 813
f 812 813 809
f 817 818 819
f 817 819 820
f 821 822 823
f 821 823 824
f 817 821 822
f 817 822 818
f 818 822 823
f 818 823 819
f 819 823 824
f 819 824 820
f 820 824 821
f 820 821 817
f 825 826 827
f 825 827 828
f 829 830 831
f 829 831 832
f 825 829 830
f 825 830 826
f 826 830 831
f 826 831 827
f 827 831 832
f 827 832 828
f 828 832 829
f 828 829 825
f 833 834 835
f 833 835 836
f 837 838 839
f 837 839 840
f 833 837 838
f 833 838 834
f 834 838 839
f 834 839 835
f 835 839 840
f 835 840 836
f 836 840 837
f 836 837 833
f 841 842 843
f 841 843 844
f 845 846 847
f 845 847 848
f 841 845 846
f 841 846 842
f 842 846 847
f 842 847 843
f 843 847 848
f 843 848 844
f 844 848 845
f 844 845 841
f 849 850 851
f 849 851 852
f 853 854 855
f 853 855 856
f 849 853 854
f 849 854 850
f 850 854 855
f 850 855 851
f 851 855 856
f 851 856 852
f 852 856 853
f 852 853 849
f 857 858 859
f 857 859 860
f 861 862 863
f 861 863 864
f 857 861 862
f 857 862 858
f 858 862 863
f 858 863 859
f 859 863 864
f 859 864 860
f 860 864 861
f 860 861 857
f 865 866 867
f 865 867 868
f 869 870 871
f 869 871 872
f 865 869 870
f 865 870 866
f 866 870 871
f 866 871 867
f 867 871 872
f 867 872 868
f 868 872 869
f 868 869 865
f 873 874 875
f 873 875 876
f 877 878 879
f 877 879 880
f 873 877 878
f 873 878 874
f 874 878 879
f 874 879 875
f 875 879 880
f 875 880 876
f 876 880 877
f 876 877 873
f 881 882 883
f 881 883 884
f 885 886 887
f 885 887 888
f 881 885 886
f 881 886 882
f 882 886 887
f 882 887 883
f 883 887 888
f 883 888 884
f 884 888 885
f 884 885 881
f 889 890 891
f 889 891 892
f 893 894 895
f 893 895 896
f 889 893 894
f 889 894 890
f 890 894 895
f 890 895 891
f 891 895 896
f 891 896 892
f 892 896 893
f 892 893 889
f 897 898 899
f 897 899 900
f 901 902 903
f 901 903 904
f 897 901 902
f 897 902 898
f 898 902 903
f 898 903 899
f 899 903 904
f 899 904 900
f 900 904 901
f 900 901 897
f 905 906 907
f 905 907 908
f 909 910 911
f 909 911 912
f 905 909 910
f 905 910 906
f 906 910 911
f 906 911 907
f 907 911 912
f 907 912 908
f 908 912 909
f 908 909 905
f 913 914 915
f 913 915 916
f 917 918 919
f 917 919 920
f 913 917 918
f 913 918 914
f 914 918 919
f 914 919 915
f 915 919 920
f 915 920 916
f 916 920 917
f 916 917 913
f 921 922 923
f 921 923 924
f 925 926 927
f 925 927 928
f 921 925 926
f 921 926 922
f 922 926 927
f 922 927 923
f 923 927 928
f 923 928 924
f 924 928 925
f 924 925 921
f 929 930 931
f 929 931 932
f 933 934 935
f 933 935 936
f 929 933 934
f 929 934 930
f 930 934 935
f 930 935 931
f 931 935 936
f 931 936 932
f 932 936 933
f 932 933 929
f 937 938 939
f 937 939 940
f 941 942 943
f 941 943 944
f 937 941 942
f 937 942 938
f 938 942 943
f 938 943 939
f 939 943 944
f 939 944 940
f 940 944 941
f 940 941 937
f 945 946 947
f 945 947 948
f 949 950 951
f 949 951 952
f 945 949 950
f 945 950 946
f 946 950 951
f 946 951 947
f 947 951 952
f 947 952 948
f 948 952 949
f 948 949 945
f 953 954 955
f 953 955 956
f 957 958 959
f 957 959 960
f 953 957 958
f 953 958 954
f 954 958 959
f 954 959 955
f 955 959 960
f 955 960 956
f 956 960 957
f 956 957 953
f 961 962 963
f 961 963 964
f 965 966 967
f 965 967 968
f 961 965 966
f 961 966 962
f 962 966 967
f 962 967 963
f 963 967 968
f 963 968 964
f 964 968 965
f 964 965 961
f 969 970 971
f 969 971 972
f 973 974 975
f 973 975 976
f 969 973 974
f 969 974 970
f 970 974 975
f 970 975 971
f 971 975 976
f 971 976 972
f 972 976 973
f 972 973 969
