# SignFlow 3D Hand Mesh - Frame 35
v 0.000000 -0.018860 0.006657
v -0.013881 -0.014236 0.002156
v -0.019631 -0.001273 -0.003608
v -0.013881 0.012435 -0.007258
v -0.000000 0.018860 -0.006657
v 0.013881 0.014236 -0.002156
v 0.019631 0.001273 0.003608
v 0.013881 -0.012435 0.007258
v 0.007619 -0.031873 -0.030211
v -0.006262 -0.027249 -0.034712
v -0.012011 -0.014287 -0.040475
v -0.006262 -0.000578 -0.044126
v 0.007619 0.005846 -0.043525
v 0.021500 0.001223 -0.039024
v 0.027250 -0.011740 -0.033260
v 0.021500 -0.025449 -0.029610
v 0.007619 -0.032737 -0.033555
v -0.005796 -0.026219 -0.030112
v -0.011353 -0.011965 -0.030626
v -0.005796 0.001675 -0.034797
v 0.007619 0.006711 -0.040180
v 0.021035 0.000192 -0.043623
v 0.026592 -0.014061 -0.043109
v 0.021035 -0.027701 -0.038939
v -0.002039 -0.037533 -0.062110
v -0.015455 -0.031014 -0.058667
v -0.021011 -0.016761 -0.059181
v -0.015455 -0.003121 -0.063352
v -0.002039 0.001915 -0.068735
v 0.011376 -0.004603 -0.072178
v 0.016933 -0.018857 -0.071664
v 0.011376 -0.032497 -0.067494
v -0.002039 -0.037596 -0.062516
v -0.015345 -0.031105 -0.058628
v -0.020857 -0.016824 -0.058720
v -0.015345 -0.003121 -0.062739
v -0.002039 0.001979 -0.068330
v 0.011267 -0.004513 -0.072217
v 0.016779 -0.018793 -0.072125
v 0.011267 -0.032497 -0.068106
v -0.013991 -0.042422 -0.095365
v -0.027297 -0.035930 -0.091477
v -0.032809 -0.021650 -0.091569
v -0.027297 -0.007946 -0.095588
v -0.013991 -0.002847 -0.101178
v -0.000685 -0.009339 -0.105066
v 0.004827 -0.023619 -0.104974
v -0.000685 -0.037323 -0.100955
v -0.013991 -0.042255 -0.102149
v -0.026453 -0.037805 -0.094455
v -0.031615 -0.024468 -0.088996
v -0.026453 -0.010057 -0.088971
v -0.013991 -0.003014 -0.094394
v -0.001529 -0.007464 -0.102088
v 0.003633 -0.020801 -0.107547
v -0.001529 -0.035212 -0.107572
v -0.027155 -0.037498 -0.126220
v -0.039617 -0.033047 -0.118526
v -0.044779 -0.019710 -0.113067
v -0.039617 -0.005300 -0.113042
v -0.027155 0.001743 -0.118465
v -0.014693 -0.002707 -0.126160
v -0.009531 -0.016044 -0.131618
v -0.014693 -0.030455 -0.131644
v 0.000000 -0.019694 -0.003483
v -0.014142 -0.013930 -0.002440
v -0.020000 -0.000006 0.000032
v -0.014142 0.013922 0.002485
v -0.000000 0.019694 0.003483
v 0.014142 0.013930 0.002440
v 0.020000 0.000006 -0.000032
v 0.014142 -0.013922 -0.002485
v -0.000167 -0.001904 -0.104089
v -0.014309 0.003860 -0.103046
v -0.020167 0.017784 -0.100574
v -0.014309 0.031712 -0.098121
v -0.000167 0.037485 -0.097124
v 0.013975 0.031720 -0.098167
v 0.019833 0.017796 -0.100639
v 0.013975 0.003868 -0.103092
v -0.000167 0.007824 -0.083266
v -0.010726 0.018899 -0.083657
v -0.015100 0.029325 -0.093976
v -0.010726 0.032994 -0.108179
v -0.000167 0.027757 -0.117946
v 0.010392 0.016681 -0.117556
v 0.014766 0.006255 -0.107236
v 0.010392 0.002586 -0.093033
v -0.014602 -0.006223 -0.091340
v -0.025161 0.004853 -0.091730
v -0.029535 0.015279 -0.102050
v -0.025161 0.018948 -0.116253
v -0.014602 0.013710 -0.126020
v -0.004043 0.002635 -0.125629
v 0.000330 -0.007791 -0.115310
v -0.004043 -0.011460 -0.101107
v -0.014602 0.022004 -0.100522
v -0.028735 0.016864 -0.103377
v -0.034589 0.004038 -0.109339
v -0.028735 -0.008960 -0.114914
v -0.014602 -0.014517 -0.116837
v -0.000469 -0.009377 -0.113982
v 0.005385 0.003449 -0.108021
v -0.000469 0.016448 -0.102445
v -0.015223 0.014988 -0.084817
v -0.029356 0.009848 -0.087672
v -0.035210 -0.002978 -0.093633
v -0.029356 -0.015976 -0.099209
v -0.015223 -0.021533 -0.101132
v -0.001090 -0.016393 -0.098277
v 0.004764 -0.003567 -0.092315
v -0.001090 0.009432 -0.086740
v -0.015223 0.016700 -0.094018
v -0.028788 0.011059 -0.089717
v -0.034406 -0.002977 -0.087324
v -0.028788 -0.017186 -0.088241
v -0.015223 -0.023245 -0.091931
v -0.001659 -0.017604 -0.096231
v 0.003960 -0.003568 -0.098624
v -0.001659 0.010642 -0.097708
v -0.009495 0.017714 -0.074623
v -0.023060 0.012073 -0.070322
v -0.028678 -0.001964 -0.067929
v -0.023060 -0.016173 -0.068846
v -0.009495 -0.022232 -0.072536
v 0.004069 -0.016590 -0.076837
v 0.009688 -0.002554 -0.079229
v 0.004069 0.011655 -0.078313
v 0.000000 -0.019216 -0.005543
v -0.014108 -0.013859 -0.002979
v -0.019952 -0.000384 0.001330
v -0.014108 0.013317 0.004860
v -0.000000 0.019216 0.005543
v 0.014108 0.013859 0.002979
v 0.019952 0.000384 -0.001330
v 0.014108 -0.013317 -0.004860
v -0.006554 0.006968 -0.096315
v -0.020662 0.012325 -0.093751
v -0.026506 0.025801 -0.089442
v -0.020662 0.039501 -0.085912
v -0.006554 0.045401 -0.085229
v 0.007555 0.040044 -0.087793
v 0.013398 0.026568 -0.092102
v 0.007555 0.012867 -0.095632
v -0.006554 0.006786 -0.085903
v -0.015310 0.015171 -0.076558
v -0.018937 0.030008 -0.075540
v -0.015310 0.042604 -0.083444
v -0.006554 0.045582 -0.095641
v 0.002203 0.037197 -0.104986
v 0.005830 0.022361 -0.106005
v 0.002203 0.009764 -0.098100
v -0.024568 0.003328 -0.099680
v -0.033324 0.011713 -0.090335
v -0.036951 0.026550 -0.089316
v -0.033324 0.039146 -0.097221
v -0.024568 0.042124 -0.109418
v -0.015812 0.033739 -0.118763
v -0.012185 0.018903 -0.119782
v -0.015812 0.006306 -0.111877
v -0.024568 0.038064 -0.091714
v -0.038586 0.032371 -0.094038
v -0.044392 0.021028 -0.102520
v -0.038586 0.010680 -0.112190
v -0.024568 0.007388 -0.117384
v -0.010550 0.013081 -0.115059
v -0.004744 0.024424 -0.106578
v -0.010550 0.034773 -0.096908
v -0.020838 0.020129 -0.070281
v -0.034856 0.014436 -0.072606
v -0.040663 0.003093 -0.081087
v -0.034856 -0.007255 -0.090757
v -0.020838 -0.010547 -0.095951
v -0.006820 -0.004854 -0.093627
v -0.001014 0.006489 -0.085145
v -0.006820 0.016838 -0.075475
v -0.020838 0.022490 -0.092431
v -0.034234 0.019417 -0.085692
v -0.039783 0.007776 -0.077444
v -0.034234 -0.005613 -0.072519
v -0.020838 -0.012907 -0.073801
v -0.007442 -0.009834 -0.080540
v -0.001893 0.001806 -0.088788
v -0.007442 0.015195 -0.093714
v -0.012519 0.033942 -0.070671
v -0.025915 0.030870 -0.063932
v -0.031464 0.019229 -0.055684
v -0.025915 0.005840 -0.050758
v -0.012519 -0.001454 -0.052041
v 0.000878 0.001618 -0.058780
v 0.006427 0.013259 -0.067028
v 0.000878 0.026648 -0.071953
v 0.000000 -0.018605 -0.007338
v -0.013907 -0.014098 -0.002800
v -0.019668 -0.001332 0.003378
v -0.013907 0.012214 0.007577
v -0.000000 0.018605 0.007338
v 0.013907 0.014098 0.002800
v 0.019668 0.001332 -0.003378
v 0.013907 -0.012214 -0.007577
v -0.016685 0.014555 -0.091412
v -0.030593 0.019063 -0.086874
v -0.036353 0.031828 -0.080696
v -0.030593 0.045374 -0.076496
v -0.016685 0.051766 -0.076735
v -0.002778 0.047258 -0.081273
v 0.002982 0.034493 -0.087451
v -0.002778 0.020947 -0.091651
v -0.016685 0.022684 -0.067037
v -0.027283 0.033729 -0.067122
v -0.031673 0.044441 -0.077136
v -0.027283 0.048545 -0.091214
v -0.016685 0.043637 -0.101110
v -0.006088 0.032592 -0.101025
v -0.001698 0.021880 -0.091011
v -0.006088 0.017776 -0.076932
v -0.034260 0.005741 -0.077457
v -0.044858 0.016786 -0.077541
v -0.049248 0.027499 -0.087555
v -0.044858 0.031603 -0.101634
v -0.034260 0.026695 -0.111529
v -0.023662 0.015650 -0.111445
v -0.019273 0.004938 -0.101430
v -0.023662 0.000833 -0.087352
v -0.034260 0.033891 -0.085129
v -0.048399 0.028857 -0.088140
v -0.054255 0.016419 -0.094872
v -0.048399 0.003864 -0.101382
v -0.034260 -0.001455 -0.103856
v -0.020121 0.003579 -0.100845
v -0.014265 0.016017 -0.094113
v -0.020121 0.028572 -0.087603
v -0.034800 0.022129 -0.062929
v -0.048939 0.017095 -0.065940
v -0.054795 0.004657 -0.072672
v -0.048939 -0.007898 -0.079182
v -0.034800 -0.013217 -0.081656
v -0.020661 -0.008183 -0.078646
v -0.014804 0.004255 -0.071913
v -0.020661 0.016810 -0.065404
v -0.034800 0.024240 -0.075223
v -0.048301 0.019062 -0.070203
v -0.053894 0.005328 -0.066407
v -0.048301 -0.008917 -0.066059
v -0.034800 -0.015328 -0.069363
v -0.021298 -0.010150 -0.074383
v -0.015705 0.003584 -0.078179
v -0.021298 0.017829 -0.078527
v -0.027452 0.027695 -0.051899
v -0.040954 0.022517 -0.046879
v -0.046547 0.008782 -0.043083
v -0.040954 -0.005463 -0.042735
v -0.027452 -0.011874 -0.046039
v -0.013950 -0.006695 -0.051059
v -0.008358 0.007039 -0.054855
v -0.013950 0.021284 -0.055203
v 0.000000 -0.018446 -0.007729
v -0.013492 -0.014682 -0.001556
v -0.019080 -0.002317 0.005529
v -0.013492 0.011405 0.009375
v -0.000000 0.018446 0.007729
v 0.013492 0.014682 0.001556
v 0.019080 0.002317 -0.005529
v 0.013492 -0.011405 -0.009375
v -0.024361 0.011517 -0.079241
v -0.037853 0.015282 -0.073067
v -0.043442 0.027647 -0.065982
v -0.037853 0.041369 -0.062137
v -0.024361 0.048410 -0.063783
v -0.010869 0.044645 -0.069956
v -0.005281 0.032280 -0.077041
v -0.010869 0.018558 -0.080887
v -0.024361 0.021334 -0.053469
v -0.034912 0.032357 -0.054690
v -0.039282 0.041978 -0.065765
v -0.034912 0.044561 -0.080206
v -0.024361 0.038593 -0.089554
v -0.013810 0.027570 -0.088333
v -0.009440 0.017949 -0.077258
v -0.013810 0.015366 -0.062817
v -0.039920 0.005608 -0.060991
v -0.050471 0.016631 -0.062212
v -0.054841 0.026252 -0.073287
v -0.050471 0.028835 -0.087728
v -0.039920 0.022868 -0.097076
v -0.029369 0.011845 -0.095855
v -0.024999 0.002224 -0.084780
v -0.029369 -0.000360 -0.070339
v -0.039920 0.028736 -0.065257
v -0.053950 0.023262 -0.067999
v -0.059761 0.012501 -0.077206
v -0.053950 0.002758 -0.087483
v -0.039920 -0.000260 -0.092810
v -0.025891 0.005214 -0.090067
v -0.020080 0.015974 -0.080861
v -0.025891 0.025718 -0.070584
v -0.037675 0.016566 -0.052450
v -0.051705 0.011092 -0.055193
v -0.057516 0.000332 -0.064399
v -0.051705 -0.009411 -0.074676
v -0.037675 -0.012430 -0.080004
v -0.023646 -0.006956 -0.077261
v -0.017835 0.003805 -0.068054
v -0.023646 0.013548 -0.057777
v -0.037675 0.021167 -0.072164
v -0.048904 0.018125 -0.062215
v -0.053555 0.005678 -0.054616
v -0.048904 -0.008884 -0.053818
v -0.037675 -0.017030 -0.060290
v -0.026447 -0.013989 -0.070239
v -0.021796 -0.001541 -0.077838
v -0.026447 0.013021 -0.078635
v -0.024688 0.026202 -0.055967
v -0.035916 0.023160 -0.046018
v -0.040567 0.010713 -0.038419
v -0.035916 -0.003849 -0.037622
v -0.024688 -0.011995 -0.044093
v -0.013459 -0.008954 -0.054042
v -0.008808 0.003494 -0.061641
v -0.013459 0.018056 -0.062438
v -0.015000 -0.015000 -0.015000
v 0.015000 -0.015000 -0.015000
v 0.015000 0.015000 -0.015000
v -0.015000 0.015000 -0.015000
v -0.015000 -0.015000 0.015000
v 0.015000 -0.015000 0.015000
v 0.015000 0.015000 0.015000
v -0.015000 0.015000 0.015000
v -0.007381 -0.028013 -0.051868
v 0.022619 -0.028013 -0.051868
v 0.022619 0.001987 -0.051868
v -0.007381 0.001987 -0.051868
v -0.007381 -0.028013 -0.021868
v 0.022619 -0.028013 -0.021868
v 0.022619 0.001987 -0.021868
v -0.007381 0.001987 -0.021868
v -0.017039 -0.032809 -0.080423
v 0.012961 -0.032809 -0.080423
v 0.012961 -0.002809 -0.080423
v -0.017039 -0.002809 -0.080423
v -0.017039 -0.032809 -0.050423
v 0.012961 -0.032809 -0.050423
v 0.012961 -0.002809 -0.050423
v -0.017039 -0.002809 -0.050423
v -0.028991 -0.037635 -0.113272
v 0.001009 -0.037635 -0.113272
v 0.001009 -0.007635 -0.113272
v -0.028991 -0.007635 -0.113272
v -0.028991 -0.037635 -0.083272
v 0.001009 -0.037635 -0.083272
v 0.001009 -0.007635 -0.083272
v -0.028991 -0.007635 -0.083272
v -0.042155 -0.032877 -0.137343
v -0.012155 -0.032877 -0.137343
v -0.012155 -0.002877 -0.137343
v -0.042155 -0.002877 -0.137343
v -0.042155 -0.032877 -0.107343
v -0.012155 -0.032877 -0.107343
v -0.012155 -0.002877 -0.107343
v -0.042155 -0.002877 -0.107343
v -0.015167 0.002790 -0.115606
v 0.014833 0.002790 -0.115606
v 0.014833 0.032790 -0.115606
v -0.015167 0.032790 -0.115606
v -0.015167 0.002790 -0.085606
v 0.014833 0.002790 -0.085606
v 0.014833 0.032790 -0.085606
v -0.015167 0.032790 -0.085606
v -0.029602 -0.011256 -0.123680
v 0.000398 -0.011256 -0.123680
v 0.000398 0.018744 -0.123680
v -0.029602 0.018744 -0.123680
v -0.029602 -0.011256 -0.093680
v 0.000398 -0.011256 -0.093680
v 0.000398 0.018744 -0.093680
v -0.029602 0.018744 -0.093680
v -0.030223 -0.018272 -0.107974
v -0.000223 -0.018272 -0.107974
v -0.000223 0.011728 -0.107974
v -0.030223 0.011728 -0.107974
v -0.030223 -0.018272 -0.077974
v -0.000223 -0.018272 -0.077974
v -0.000223 0.011728 -0.077974
v -0.030223 0.011728 -0.077974
v -0.024495 -0.017259 -0.088579
v 0.005505 -0.017259 -0.088579
v 0.005505 0.012741 -0.088579
v -0.024495 0.012741 -0.088579
v -0.024495 -0.017259 -0.058579
v 0.005505 -0.017259 -0.058579
v 0.005505 0.012741 -0.058579
v -0.024495 0.012741 -0.058579
v -0.021554 0.011184 -0.105772
v 0.008446 0.011184 -0.105772
v 0.008446 0.041184 -0.105772
v -0.021554 0.041184 -0.105772
v -0.021554 0.011184 -0.075772
v 0.008446 0.011184 -0.075772
v 0.008446 0.041184 -0.075772
v -0.021554 0.041184 -0.075772
v -0.039568 0.007726 -0.119549
v -0.009568 0.007726 -0.119549
v -0.009568 0.037726 -0.119549
v -0.039568 0.037726 -0.119549
v -0.039568 0.007726 -0.089549
v -0.009568 0.007726 -0.089549
v -0.009568 0.037726 -0.089549
v -0.039568 0.037726 -0.089549
v -0.035838 -0.010209 -0.098116
v -0.005838 -0.010209 -0.098116
v -0.005838 0.019791 -0.098116
v -0.035838 0.019791 -0.098116
v -0.035838 -0.010209 -0.068116
v -0.005838 -0.010209 -0.068116
v -0.005838 0.019791 -0.068116
v -0.035838 0.019791 -0.068116
v -0.027519 0.001244 -0.076356
v 0.002481 0.001244 -0.076356
v 0.002481 0.031244 -0.076356
v -0.027519 0.031244 -0.076356
v -0.027519 0.001244 -0.046356
v 0.002481 0.001244 -0.046356
v 0.002481 0.031244 -0.046356
v -0.027519 0.031244 -0.046356
v -0.031685 0.018160 -0.099073
v -0.001685 0.018160 -0.099073
v -0.001685 0.048160 -0.099073
v -0.031685 0.048160 -0.099073
v -0.031685 0.018160 -0.069073
v -0.001685 0.018160 -0.069073
v -0.001685 0.048160 -0.069073
v -0.031685 0.048160 -0.069073
v -0.049260 0.001218 -0.109493
v -0.019260 0.001218 -0.109493
v -0.019260 0.031218 -0.109493
v -0.049260 0.031218 -0.109493
v -0.049260 0.001218 -0.079493
v -0.019260 0.001218 -0.079493
v -0.019260 0.031218 -0.079493
v -0.049260 0.031218 -0.079493
v -0.049800 -0.010544 -0.087293
v -0.019800 -0.010544 -0.087293
v -0.019800 0.019456 -0.087293
v -0.049800 0.019456 -0.087293
v -0.049800 -0.010544 -0.057293
v -0.019800 -0.010544 -0.057293
v -0.019800 0.019456 -0.057293
v -0.049800 0.019456 -0.057293
v -0.042452 -0.007089 -0.063969
v -0.012452 -0.007089 -0.063969
v -0.012452 0.022911 -0.063969
v -0.042452 0.022911 -0.063969
v -0.042452 -0.007089 -0.033969
v -0.012452 -0.007089 -0.033969
v -0.012452 0.022911 -0.033969
v -0.042452 0.022911 -0.033969
v -0.039361 0.014964 -0.086512
v -0.009361 0.014964 -0.086512
v -0.009361 0.044964 -0.086512
v -0.039361 0.044964 -0.086512
v -0.039361 0.014964 -0.056512
v -0.009361 0.014964 -0.056512
v -0.009361 0.044964 -0.056512
v -0.039361 0.044964 -0.056512
v -0.054920 -0.000762 -0.094033
v -0.024920 -0.000762 -0.094033
v -0.024920 0.029238 -0.094033
v -0.054920 0.029238 -0.094033
v -0.054920 -0.000762 -0.064033
v -0.024920 -0.000762 -0.064033
v -0.024920 0.029238 -0.064033
v -0.054920 0.029238 -0.064033
v -0.052675 -0.012932 -0.081227
v -0.022675 -0.012932 -0.081227
v -0.022675 0.017068 -0.081227
v -0.052675 0.017068 -0.081227
v -0.052675 -0.012932 -0.051227
v -0.022675 -0.012932 -0.051227
v -0.022675 0.017068 -0.051227
v -0.052675 0.017068 -0.051227
v -0.039688 -0.007897 -0.065030
v -0.009688 -0.007897 -0.065030
v -0.009688 0.022103 -0.065030
v -0.039688 0.022103 -0.065030
v -0.039688 -0.007897 -0.035030
v -0.009688 -0.007897 -0.035030
v -0.009688 0.022103 -0.035030
v -0.039688 0.022103 -0.035030
v 0.000000 -0.011040 0.016677
v -0.013886 -0.005571 0.013272
v -0.019637 0.003161 0.002092
v -0.013886 0.010041 -0.010313
v -0.000000 0.011040 -0.016677
v 0.013886 0.005571 -0.013272
v 0.019637 -0.003161 -0.002092
v 0.013886 -0.010041 0.010313
v -0.006280 -0.038170 -0.001282
v -0.020166 -0.032702 -0.004687
v -0.025918 -0.023970 -0.015867
v -0.020166 -0.017089 -0.028272
v -0.006280 -0.016091 -0.034636
v 0.007605 -0.021559 -0.031231
v 0.013357 -0.030291 -0.020052
v 0.007605 -0.037172 -0.007646
v -0.006280 -0.044322 -0.007740
v -0.019675 -0.036968 -0.006832
v -0.025223 -0.023851 -0.012442
v -0.019675 -0.012655 -0.021285
v -0.006280 -0.009939 -0.028179
v 0.007114 -0.017293 -0.029087
v 0.012662 -0.030410 -0.023476
v 0.007114 -0.041606 -0.014634
v -0.015910 -0.058845 -0.032171
v -0.029305 -0.051491 -0.031264
v -0.034853 -0.038374 -0.036874
v -0.029305 -0.027178 -0.045716
v -0.015910 -0.024462 -0.052610
v -0.002516 -0.031816 -0.053518
v 0.003032 -0.044933 -0.047908
v -0.002516 -0.056129 -0.039066
v -0.015910 -0.061000 -0.037320
v -0.027660 -0.053338 -0.031191
v -0.032527 -0.038831 -0.031624
v -0.027660 -0.025978 -0.038363
v -0.015910 -0.022307 -0.047462
v -0.004161 -0.029969 -0.053590
v 0.000706 -0.044476 -0.053158
v -0.004161 -0.057329 -0.046419
v -0.035454 -0.068397 -0.065541
v -0.047204 -0.060735 -0.059412
v -0.052070 -0.046228 -0.059844
v -0.047204 -0.033375 -0.066584
v -0.035454 -0.029704 -0.075683
v -0.023705 -0.037366 -0.081811
v -0.018838 -0.051873 -0.081379
v -0.023705 -0.064726 -0.074640
v -0.035454 -0.068948 -0.072636
v -0.047122 -0.063929 -0.064094
v -0.051955 -0.050195 -0.059369
v -0.047122 -0.035790 -0.061231
v -0.035454 -0.029154 -0.068587
v -0.023786 -0.034172 -0.077130
v -0.018953 -0.047907 -0.081854
v -0.023786 -0.062311 -0.079993
v -0.053562 -0.066272 -0.098941
v -0.065230 -0.061253 -0.090399
v -0.070063 -0.047518 -0.085674
v -0.065230 -0.033114 -0.087536
v -0.053562 -0.026477 -0.094892
v -0.041893 -0.031496 -0.103435
v -0.037060 -0.045231 -0.108159
v -0.041893 -0.059635 -0.106298
v 0.000000 -0.019409 0.004827
v -0.013779 -0.012955 0.006504
v -0.019486 0.001087 0.004371
v -0.013779 0.014493 -0.000323
v -0.000000 0.019409 -0.004827
v 0.013779 0.012955 -0.006504
v 0.019486 -0.001087 -0.004371
v 0.013779 -0.014493 0.000323
v -0.021670 -0.042040 -0.086161
v -0.035449 -0.035587 -0.084485
v -0.041156 -0.021544 -0.086618
v -0.035449 -0.008139 -0.091312
v -0.021670 -0.003223 -0.095816
v -0.007891 -0.009676 -0.097493
v -0.002184 -0.023719 -0.095359
v -0.007891 -0.037124 -0.090666
v -0.021670 -0.018604 -0.071398
v -0.031204 -0.009553 -0.079240
v -0.035154 -0.008163 -0.093963
v -0.031204 -0.015248 -0.106944
v -0.021670 -0.026659 -0.110579
v -0.012136 -0.035710 -0.102738
v -0.008187 -0.037100 -0.088014
v -0.012136 -0.030015 -0.075033
v -0.039810 -0.034823 -0.068064
v -0.049344 -0.025771 -0.075905
v -0.053293 -0.024381 -0.090629
v -0.049344 -0.031467 -0.103610
v -0.039810 -0.042877 -0.107245
v -0.030275 -0.051929 -0.099404
v -0.026326 -0.053319 -0.084680
v -0.030275 -0.046233 -0.071699
v -0.039810 -0.022669 -0.075900
v -0.053743 -0.025986 -0.081300
v -0.059515 -0.036839 -0.090423
v -0.053743 -0.048869 -0.097924
v -0.039810 -0.055031 -0.099409
v -0.025876 -0.051714 -0.094009
v -0.020105 -0.040861 -0.084886
v -0.025876 -0.028831 -0.077385
v -0.043637 -0.035623 -0.058068
v -0.057571 -0.038940 -0.063469
v -0.063342 -0.049792 -0.072592
v -0.057571 -0.061823 -0.080093
v -0.043637 -0.067985 -0.081578
v -0.029704 -0.064668 -0.076177
v -0.023932 -0.053815 -0.067055
v -0.029704 -0.041784 -0.059554
v -0.043637 -0.032818 -0.063536
v -0.057778 -0.038448 -0.065168
v -0.063635 -0.051902 -0.069528
v -0.057778 -0.065298 -0.074060
v -0.043637 -0.070790 -0.076111
v -0.029497 -0.065160 -0.074478
v -0.023640 -0.051706 -0.070119
v -0.029497 -0.038309 -0.065586
v -0.043247 -0.040703 -0.039726
v -0.057387 -0.046333 -0.041359
v -0.063244 -0.059786 -0.045718
v -0.057387 -0.073183 -0.050250
v -0.043247 -0.078675 -0.052301
v -0.029106 -0.073045 -0.050668
v -0.023249 -0.059591 -0.046309
v -0.029106 -0.046194 -0.041777
v 0.000000 -0.019762 0.003075
v -0.013618 -0.013388 0.005942
v -0.019259 0.000829 0.005329
v -0.013618 0.014560 0.001593
v -0.000000 0.019762 -0.003075
v 0.013618 0.013388 -0.005942
v 0.019259 -0.000829 -0.005329
v 0.013618 -0.014560 -0.001593
v -0.025094 -0.033542 -0.085479
v -0.038713 -0.027167 -0.082611
v -0.044354 -0.012950 -0.083225
v -0.038713 0.000781 -0.086960
v -0.025094 0.005983 -0.091629
v -0.011476 -0.000392 -0.094496
v -0.005835 -0.014609 -0.093882
v -0.011476 -0.028340 -0.090147
v -0.025094 -0.016147 -0.068694
v -0.038160 -0.010080 -0.073871
v -0.043572 -0.006180 -0.087648
v -0.038160 -0.006732 -0.101956
v -0.025094 -0.011412 -0.108413
v -0.012029 -0.017480 -0.103237
v -0.006617 -0.021379 -0.089460
v -0.012029 -0.020827 -0.075152
v -0.031252 -0.030910 -0.070454
v -0.044318 -0.024843 -0.075630
v -0.049730 -0.020943 -0.089408
v -0.044318 -0.021495 -0.103716
v -0.031252 -0.026176 -0.110173
v -0.018187 -0.032243 -0.104997
v -0.012775 -0.036142 -0.091219
v -0.018187 -0.035590 -0.076911
v -0.031252 -0.009987 -0.082851
v -0.045100 -0.014351 -0.087699
v -0.050836 -0.027028 -0.094079
v -0.045100 -0.040592 -0.098253
v -0.031252 -0.047098 -0.097776
v -0.017405 -0.042734 -0.092928
v -0.011669 -0.030057 -0.086548
v -0.017405 -0.016493 -0.082374
v -0.036281 -0.019041 -0.060339
v -0.050129 -0.023405 -0.065188
v -0.055865 -0.036082 -0.071568
v -0.050129 -0.049646 -0.075742
v -0.036281 -0.056152 -0.075265
v -0.022433 -0.051788 -0.070417
v -0.016697 -0.039111 -0.064037
v -0.022433 -0.025547 -0.059863
v -0.036281 -0.017720 -0.070021
v -0.048918 -0.022837 -0.063062
v -0.054152 -0.036600 -0.058879
v -0.048918 -0.050947 -0.059924
v -0.036281 -0.057473 -0.065584
v -0.023644 -0.052356 -0.072543
v -0.018410 -0.038593 -0.076726
v -0.023644 -0.024246 -0.075681
v -0.022446 -0.014665 -0.042654
v -0.035082 -0.019782 -0.035694
v -0.040317 -0.033545 -0.031511
v -0.035082 -0.047892 -0.032556
v -0.022446 -0.054418 -0.038216
v -0.009809 -0.049301 -0.045176
v -0.004574 -0.035538 -0.049358
v -0.009809 -0.021191 -0.048314
v 0.000000 -0.019971 0.001081
v -0.013588 -0.013910 0.004678
v -0.019217 0.000300 0.005535
v -0.013588 0.014333 0.003149
v -0.000000 0.019971 -0.001081
v 0.013588 0.013910 -0.004678
v 0.019217 -0.000300 -0.005535
v 0.013588 -0.014333 -0.003149
v -0.025097 -0.024675 -0.085802
v -0.038685 -0.018614 -0.082205
v -0.044314 -0.004404 -0.081349
v -0.038685 0.009629 -0.083734
v -0.025097 0.015267 -0.087965
v -0.011509 0.009206 -0.091562
v -0.005880 -0.005004 -0.092418
v -0.011509 -0.019037 -0.090032
v -0.025097 0.001508 -0.067873
v -0.035845 0.008426 -0.076296
v -0.040297 0.007652 -0.090921
v -0.035845 -0.000360 -0.103181
v -0.025097 -0.010917 -0.105894
v -0.014349 -0.017834 -0.097471
v -0.009897 -0.017060 -0.082846
v -0.014349 -0.009048 -0.070586
v -0.039881 -0.014923 -0.062503
v -0.050628 -0.008006 -0.070926
v -0.055080 -0.008779 -0.085552
v -0.050628 -0.016791 -0.097811
v -0.039881 -0.027348 -0.100524
v -0.029133 -0.034265 -0.092101
v -0.024681 -0.033491 -0.077476
v -0.029133 -0.025479 -0.065216
v -0.039881 -0.001971 -0.075794
v -0.053892 -0.008134 -0.075627
v -0.059695 -0.021913 -0.078909
v -0.053892 -0.035236 -0.083717
v -0.039881 -0.040300 -0.087234
v -0.025870 -0.034137 -0.087400
v -0.020066 -0.020358 -0.084118
v -0.025870 -0.007034 -0.079311
v -0.037376 -0.007193 -0.058298
v -0.051387 -0.013356 -0.058131
v -0.057190 -0.027135 -0.061413
v -0.051387 -0.040458 -0.066221
v -0.037376 -0.045522 -0.069738
v -0.023365 -0.039359 -0.069904
v -0.017562 -0.025580 -0.066622
v -0.023365 -0.012256 -0.061815
v -0.037376 -0.007260 -0.069958
v -0.051186 -0.011948 -0.065307
v -0.056906 -0.025076 -0.059900
v -0.051186 -0.038956 -0.056906
v -0.037376 -0.045455 -0.058077
v -0.023566 -0.040767 -0.062729
v -0.017846 -0.027638 -0.068135
v -0.023566 -0.013759 -0.071130
v -0.032888 -0.001223 -0.050550
v -0.046698 -0.005911 -0.045899
v -0.052418 -0.019039 -0.040492
v -0.046698 -0.032918 -0.037498
v -0.032888 -0.039418 -0.038669
v -0.019079 -0.034730 -0.043321
v -0.013359 -0.021601 -0.048727
v -0.019079 -0.007722 -0.051722
v 0.000000 -0.019986 -0.000740
v -0.012899 -0.014347 0.005270
v -0.018242 -0.000303 0.008193
v -0.012899 0.013918 0.006317
v -0.000000 0.019986 0.000740
v 0.012899 0.014347 -0.005270
v 0.018242 0.000303 -0.008193
v 0.012899 -0.013918 -0.006317
v -0.030402 -0.017484 -0.068335
v -0.043301 -0.011845 -0.062325
v -0.048644 0.002199 -0.059402
v -0.043301 0.016420 -0.061279
v -0.030402 0.022489 -0.066856
v -0.017503 0.016849 -0.072866
v -0.012160 0.002806 -0.075789
v -0.017503 -0.011416 -0.073912
v -0.030402 0.003061 -0.047603
v -0.040812 0.012467 -0.053726
v -0.045123 0.016035 -0.067974
v -0.040812 0.011676 -0.082000
v -0.030402 0.001943 -0.087588
v -0.019993 -0.007462 -0.081464
v -0.015681 -0.011031 -0.067217
v -0.019993 -0.006672 -0.053191
v -0.040961 -0.008415 -0.047282
v -0.051370 0.000990 -0.053406
v -0.055682 0.004559 -0.067653
v -0.051370 0.000200 -0.081679
v -0.040961 -0.009533 -0.087267
v -0.030552 -0.018939 -0.081144
v -0.026240 -0.022507 -0.066896
v -0.030552 -0.018148 -0.052870
v -0.040961 0.009001 -0.058506
v -0.055012 0.003033 -0.059633
v -0.060832 -0.009969 -0.065236
v -0.055012 -0.022388 -0.072033
v -0.040961 -0.026950 -0.076043
v -0.026910 -0.020982 -0.074916
v -0.021090 -0.007980 -0.069313
v -0.026910 0.004439 -0.062516
v -0.038610 -0.000028 -0.039997
v -0.052661 -0.005996 -0.041124
v -0.058481 -0.018997 -0.046727
v -0.052661 -0.031417 -0.053525
v -0.038610 -0.035978 -0.057534
v -0.024559 -0.030010 -0.056408
v -0.018739 -0.017009 -0.050805
v -0.024559 -0.004589 -0.044007
v -0.038610 0.001965 -0.049894
v -0.052589 -0.003763 -0.047426
v -0.058380 -0.017832 -0.045743
v -0.052589 -0.032002 -0.045830
v -0.038610 -0.037971 -0.047638
v -0.024631 -0.032243 -0.050106
v -0.018841 -0.018174 -0.051789
v -0.024631 -0.004004 -0.051701
v -0.035947 0.002946 -0.032535
v -0.049926 -0.002782 -0.030067
v -0.055717 -0.016851 -0.028383
v -0.049926 -0.031021 -0.028471
v -0.035947 -0.036990 -0.030278
v -0.021968 -0.031263 -0.032747
v -0.016178 -0.017193 -0.034430
v -0.021968 -0.003023 -0.034342
v -0.015000 -0.015000 -0.015000
v 0.015000 -0.015000 -0.015000
v 0.015000 0.015000 -0.015000
v -0.015000 0.015000 -0.015000
v -0.015000 -0.015000 0.015000
v 0.015000 -0.015000 0.015000
v 0.015000 0.015000 0.015000
v -0.015000 0.015000 0.015000
v -0.021280 -0.042130 -0.032959
v 0.008720 -0.042130 -0.032959
v 0.008720 -0.012130 -0.032959
v -0.021280 -0.012130 -0.032959
v -0.021280 -0.042130 -0.002959
v 0.008720 -0.042130 -0.002959
v 0.008720 -0.012130 -0.002959
v -0.021280 -0.012130 -0.002959
v -0.030910 -0.056653 -0.057391
v -0.000910 -0.056653 -0.057391
v -0.000910 -0.026653 -0.057391
v -0.030910 -0.026653 -0.057391
v -0.030910 -0.056653 -0.027391
v -0.000910 -0.056653 -0.027391
v -0.000910 -0.026653 -0.027391
v -0.030910 -0.026653 -0.027391
v -0.050454 -0.064051 -0.085612
v -0.020454 -0.064051 -0.085612
v -0.020454 -0.034051 -0.085612
v -0.050454 -0.034051 -0.085612
v -0.050454 -0.064051 -0.055612
v -0.020454 -0.064051 -0.055612
v -0.020454 -0.034051 -0.055612
v -0.050454 -0.034051 -0.055612
v -0.068562 -0.061374 -0.111917
v -0.038562 -0.061374 -0.111917
v -0.038562 -0.031374 -0.111917
v -0.068562 -0.031374 -0.111917
v -0.068562 -0.061374 -0.081917
v -0.038562 -0.061374 -0.081917
v -0.038562 -0.031374 -0.081917
v -0.068562 -0.031374 -0.081917
v -0.036670 -0.037631 -0.105989
v -0.006670 -0.037631 -0.105989
v -0.006670 -0.007631 -0.105989
v -0.036670 -0.007631 -0.105989
v -0.036670 -0.037631 -0.075989
v -0.006670 -0.037631 -0.075989
v -0.006670 -0.007631 -0.075989
v -0.036670 -0.007631 -0.075989
v -0.054810 -0.053850 -0.102655
v -0.024810 -0.053850 -0.102655
v -0.024810 -0.023850 -0.102655
v -0.054810 -0.023850 -0.102655
v -0.054810 -0.053850 -0.072655
v -0.024810 -0.053850 -0.072655
v -0.024810 -0.023850 -0.072655
v -0.054810 -0.023850 -0.072655
v -0.058637 -0.066804 -0.084823
v -0.028637 -0.066804 -0.084823
v -0.028637 -0.036804 -0.084823
v -0.058637 -0.036804 -0.084823
v -0.058637 -0.066804 -0.054823
v -0.028637 -0.066804 -0.054823
v -0.028637 -0.036804 -0.054823
v -0.058637 -0.036804 -0.054823
v -0.058247 -0.074689 -0.061013
v -0.028247 -0.074689 -0.061013
v -0.028247 -0.044689 -0.061013
v -0.058247 -0.044689 -0.061013
v -0.058247 -0.074689 -0.031013
v -0.028247 -0.074689 -0.031013
v -0.028247 -0.044689 -0.031013
v -0.058247 -0.044689 -0.031013
v -0.040094 -0.028780 -0.103554
v -0.010094 -0.028780 -0.103554
v -0.010094 0.001220 -0.103554
v -0.040094 0.001220 -0.103554
v -0.040094 -0.028780 -0.073554
v -0.010094 -0.028780 -0.073554
v -0.010094 0.001220 -0.073554
v -0.040094 0.001220 -0.073554
v -0.046253 -0.043543 -0.105314
v -0.016252 -0.043543 -0.105314
v -0.016252 -0.013543 -0.105314
v -0.046253 -0.013543 -0.105314
v -0.046253 -0.043543 -0.075314
v -0.016252 -0.043543 -0.075314
v -0.016252 -0.013543 -0.075314
v -0.046253 -0.013543 -0.075314
v -0.051281 -0.052597 -0.082802
v -0.021281 -0.052597 -0.082802
v -0.021281 -0.022597 -0.082802
v -0.051281 -0.022597 -0.082802
v -0.051281 -0.052597 -0.052802
v -0.021281 -0.052597 -0.052802
v -0.021281 -0.022597 -0.052802
v -0.051281 -0.022597 -0.052802
v -0.037446 -0.049541 -0.055435
v -0.007446 -0.049541 -0.055435
v -0.007446 -0.019541 -0.055435
v -0.037446 -0.019541 -0.055435
v -0.037446 -0.049541 -0.025435
v -0.007446 -0.049541 -0.025435
v -0.007446 -0.019541 -0.025435
v -0.037446 -0.019541 -0.025435
v -0.040097 -0.019704 -0.101883
v -0.010097 -0.019704 -0.101883
v -0.010097 0.010296 -0.101883
v -0.040097 0.010296 -0.101883
v -0.040097 -0.019704 -0.071883
v -0.010097 -0.019704 -0.071883
v -0.010097 0.010296 -0.071883
v -0.040097 0.010296 -0.071883
v -0.054881 -0.036135 -0.096514
v -0.024881 -0.036135 -0.096514
v -0.024881 -0.006135 -0.096514
v -0.054881 -0.006135 -0.096514
v -0.054881 -0.036135 -0.066514
v -0.024881 -0.036135 -0.066514
v -0.024881 -0.006135 -0.066514
v -0.054881 -0.006135 -0.066514
v -0.052376 -0.041357 -0.079018
v -0.022376 -0.041357 -0.079018
v -0.022376 -0.011357 -0.079018
v -0.052376 -0.011357 -0.079018
v -0.052376 -0.041357 -0.049018
v -0.022376 -0.041357 -0.049018
v -0.022376 -0.011357 -0.049018
v -0.052376 -0.011357 -0.049018
v -0.047888 -0.035320 -0.059610
v -0.017888 -0.035320 -0.059610
v -0.017888 -0.005320 -0.059610
v -0.047888 -0.005320 -0.059610
v -0.047888 -0.035320 -0.029610
v -0.017888 -0.035320 -0.029610
v -0.017888 -0.005320 -0.029610
v -0.047888 -0.005320 -0.029610
v -0.045402 -0.012498 -0.082595
v -0.015402 -0.012498 -0.082595
v -0.015402 0.017502 -0.082595
v -0.045402 0.017502 -0.082595
v -0.045402 -0.012498 -0.052595
v -0.015402 -0.012498 -0.052595
v -0.015402 0.017502 -0.052595
v -0.045402 0.017502 -0.052595
v -0.055961 -0.023974 -0.082275
v -0.025961 -0.023974 -0.082275
v -0.025961 0.006026 -0.082275
v -0.055961 0.006026 -0.082275
v -0.055961 -0.023974 -0.052275
v -0.025961 -0.023974 -0.052275
v -0.025961 0.006026 -0.052275
v -0.055961 0.006026 -0.052275
v -0.053610 -0.033003 -0.063766
v -0.023610 -0.033003 -0.063766
v -0.023610 -0.003003 -0.063766
v -0.053610 -0.003003 -0.063766
v -0.053610 -0.033003 -0.033766
v -0.023610 -0.033003 -0.033766
v -0.023610 -0.003003 -0.033766
v -0.053610 -0.003003 -0.033766
v -0.050947 -0.032022 -0.046407
v -0.020947 -0.032022 -0.046407
v -0.020947 -0.002022 -0.046407
v -0.050947 -0.002022 -0.046407
v -0.050947 -0.032022 -0.016407
v -0.020947 -0.032022 -0.016407
v -0.020947 -0.002022 -0.016407
v -0.050947 -0.002022 -0.016407
f 1 2 9
f 2 10 9
f 2 3 10
f 3 11 10
f 3 4 11
f 4 12 11
f 4 5 12
f 5 13 12
f 5 6 13
f 6 14 13
f 6 7 14
f 7 15 14
f 7 8 15
f 8 16 15
f 8 1 16
f 1 9 16
f 17 18 25
f 18 26 25
f 18 19 26
f 19 27 26
f 19 20 27
f 20 28 27
f 20 21 28
f 21 29 28
f 21 22 29
f 22 30 29
f 22 23 30
f 23 31 30
f 23 24 31
f 24 32 31
f 24 17 32
f 17 25 32
f 33 34 41
f 34 42 41
f 34 35 42
f 35 43 42
f 35 36 43
f 36 44 43
f 36 37 44
f 37 45 44
f 37 38 45
f 38 46 45
f 38 39 46
f 39 47 46
f 39 40 47
f 40 48 47
f 40 33 48
f 33 41 48
f 49 50 57
f 50 58 57
f 50 51 58
f 51 59 58
f 51 52 59
f 52 60 59
f 52 53 60
f 53 61 60
f 53 54 61
f 54 62 61
f 54 55 62
f 55 63 62
f 55 56 63
f 56 64 63
f 56 49 64
f 49 57 64
f 65 66 73
f 66 74 73
f 66 67 74
f 67 75 74
f 67 68 75
f 68 76 75
f 68 69 76
f 69 77 76
f 69 70 77
f 70 78 77
f 70 71 78
f 71 79 78
f 71 72 79
f 72 80 79
f 72 65 80
f 65 73 80
f 81 82 89
f 82 90 89
f 82 83 90
f 83 91 90
f 83 84 91
f 84 92 91
f 84 85 92
f 85 93 92
f 85 86 93
f 86 94 93
f 86 87 94
f 87 95 94
f 87 88 95
f 88 96 95
f 88 81 96
f 81 89 96
f 97 98 105
f 98 106 105
f 98 99 106
f 99 107 106
f 99 100 107
f 100 108 107
f 100 101 108
f 101 109 108
f 101 102 109
f 102 110 109
f 102 103 110
f 103 111 110
f 103 104 111
f 104 112 111
f 104 97 112
f 97 105 112
f 113 114 121
f 114 122 121
f 114 115 122
f 115 123 122
f 115 116 123
f 116 124 123
f 116 117 124
f 117 125 124
f 117 118 125
f 118 126 125
f 118 119 126
f 119 127 126
f 119 120 127
f 120 128 127
f 120 113 128
f 113 121 128
f 129 130 137
f 130 138 137
f 130 131 138
f 131 139 138
f 131 132 139
f 132 140 139
f 132 133 140
f 133 141 140
f 133 134 141
f 134 142 141
f 134 135 142
f 135 143 142
f 135 136 143
f 136 144 143
f 136 129 144
f 129 137 144
f 145 146 153
f 146 154 153
f 146 147 154
f 147 155 154
f 147 148 155
f 148 156 155
f 148 149 156
f 149 157 156
f 149 150 157
f 150 158 157
f 150 151 158
f 151 159 158
f 151 152 159
f 152 160 159
f 152 145 160
f 145 153 160
f 161 162 169
f 162 170 169
f 162 163 170
f 163 171 170
f 163 164 171
f 164 172 171
f 164 165 172
f 165 173 172
f 165 166 173
f 166 174 173
f 166 167 174
f 167 175 174
f 167 168 175
f 168 176 175
f 168 161 176
f 161 169 176
f 177 178 185
f 178 186 185
f 178 179 186
f 179 187 186
f 179 180 187
f 180 188 187
f 180 181 188
f 181 189 188
f 181 182 189
f 182 190 189
f 182 183 190
f 183 191 190
f 183 184 191
f 184 192 191
f 184 177 192
f 177 185 192
f 193 194 201
f 194 202 201
f 194 195 202
f 195 203 202
f 195 196 203
f 196 204 203
f 196 197 204
f 197 205 204
f 197 198 205
f 198 206 205
f 198 199 206
f 199 207 206
f 199 200 207
f 200 208 207
f 200 193 208
f 193 201 208
f 209 210 217
f 210 218 217
f 210 211 218
f 211 219 218
f 211 212 219
f 212 220 219
f 212 213 220
f 213 221 220
f 213 214 221
f 214 222 221
f 214 215 222
f 215 223 222
f 215 216 223
f 216 224 223
f 216 209 224
f 209 217 224
f 225 226 233
f 226 234 233
f 226 227 234
f 227 235 234
f 227 228 235
f 228 236 235
f 228 229 236
f 229 237 236
f 229 230 237
f 230 238 237
f 230 231 238
f 231 239 238
f 231 232 239
f 232 240 239
f 232 225 240
f 225 233 240
f 241 242 249
f 242 250 249
f 242 243 250
f 243 251 250
f 243 244 251
f 244 252 251
f 244 245 252
f 245 253 252
f 245 246 253
f 246 254 253
f 246 247 254
f 247 255 254
f 247 248 255
f 248 256 255
f 248 241 256
f 241 249 256
f 257 258 265
f 258 266 265
f 258 259 266
f 259 267 266
f 259 260 267
f 260 268 267
f 260 261 268
f 261 269 268
f 261 262 269
f 262 270 269
f 262 263 270
f 263 271 270
f 263 264 271
f 264 272 271
f 264 257 272
f 257 265 272
f 273 274 281
f 274 282 281
f 274 275 282
f 275 283 282
f 275 276 283
f 276 284 283
f 276 277 284
f 277 285 284
f 277 278 285
f 278 286 285
f 278 279 286
f 279 287 286
f 279 280 287
f 280 288 287
f 280 273 288
f 273 281 288
f 289 290 297
f 290 298 297
f 290 291 298
f 291 299 298
f 291 292 299
f 292 300 299
f 292 293 300
f 293 301 300
f 293 294 301
f 294 302 301
f 294 295 302
f 295 303 302
f 295 296 303
f 296 304 303
f 296 289 304
f 289 297 304
f 305 306 313
f 306 314 313
f 306 307 314
f 307 315 314
f 307 308 315
f 308 316 315
f 308 309 316
f 309 317 316
f 309 310 317
f 310 318 317
f 310 311 318
f 311 319 318
f 311 312 319
f 312 320 319
f 312 305 320
f 305 313 320
f 321 322 323
f 321 323 324
f 325 326 327
f 325 327 328
f 321 325 326
f 321 326 322
f 322 326 327
f 322 327 323
f 323 327 328
f 323 328 324
f 324 328 325
f 324 325 321
f 329 330 331
f 329 331 332
f 333 334 335
f 333 335 336
f 329 333 334
f 329 334 330
f 330 334 335
f 330 335 331
f 331 335 336
f 331 336 332
f 332 336 333
f 332 333 329
f 337 338 339
f 337 339 340
f 341 342 343
f 341 343 344
f 337 341 342
f 337 342 338
f 338 342 343
f 338 343 339
f 339 343 344
f 339 344 340
f 340 344 341
f 340 341 337
f 345 346 347
f 345 347 348
f 349 350 351
f 349 351 352
f 345 349 350
f 345 350 346
f 346 350 351
f 346 351 347
f 347 351 352
f 347 352 348
f 348 352 349
f 348 349 345
f 353 354 355
f 353 355 356
f 357 358 359
f 357 359 360
f 353 357 358
f 353 358 354
f 354 358 359
f 354 359 355
f 355 359 360
f 355 360 356
f 356 360 357
f 356 357 353
f 361 362 363
f 361 363 364
f 365 366 367
f 365 367 368
f 361 365 366
f 361 366 362
f 362 366 367
f 362 367 363
f 363 367 368
f 363 368 364
f 364 368 365
f 364 365 361
f 369 370 371
f 369 371 372
f 373 374 375
f 373 375 376
f 369 373 374
f 369 374 370
f 370 374 375
f 370 375 371
f 371 375 376
f 371 376 372
f 372 376 373
f 372 373 369
f 377 378 379
f 377 379 380
f 381 382 383
f 381 383 384
f 377 381 382
f 377 382 378
f 378 382 383
f 378 383 379
f 379 383 384
f 379 384 380
f 380 384 381
f 380 381 377
f 385 386 387
f 385 387 388
f 389 390 391
f 389 391 392
f 385 389 390
f 385 390 386
f 386 390 391
f 386 391 387
f 387 391 392
f 387 392 388
f 388 392 389
f 388 389 385
f 393 394 395
f 393 395 396
f 397 398 399
f 397 399 400
f 393 397 398
f 393 398 394
f 394 398 399
f 394 399 395
f 395 399 400
f 395 400 396
f 396 400 397
f 396 397 393
f 401 402 403
f 401 403 404
f 405 406 407
f 405 407 408
f 401 405 406
f 401 406 402
f 402 406 407
f 402 407 403
f 403 407 408
f 403 408 404
f 404 408 405
f 404 405 401
f 409 410 411
f 409 411 412
f 413 414 415
f 413 415 416
f 409 413 414
f 409 414 410
f 410 414 415
f 410 415 411
f 411 415 416
f 411 416 412
f 412 416 413
f 412 413 409
f 417 418 419
f 417 419 420
f 421 422 423
f 421 423 424
f 417 421 422
f 417 422 418
f 418 422 423
f 418 423 419
f 419 423 424
f 419 424 420
f 420 424 421
f 420 421 417
f 425 426 427
f 425 427 428
f 429 430 431
f 429 431 432
f 425 429 430
f 425 430 426
f 426 430 431
f 426 431 427
f 427 431 432
f 427 432 428
f 428 432 429
f 428 429 425
f 433 434 435
f 433 435 436
f 437 438 439
f 437 439 440
f 433 437 438
f 433 438 434
f 434 438 439
f 434 439 435
f 435 439 440
f 435 440 436
f 436 440 437
f 436 437 433
f 441 442 443
f 441 443 444
f 445 446 447
f 445 447 448
f 441 445 446
f 441 446 442
f 442 446 447
f 442 447 443
f 443 447 448
f 443 448 444
f 444 448 445
f 444 445 441
f 449 450 451
f 449 451 452
f 453 454 455
f 453 455 456
f 449 453 454
f 449 454 450
f 450 454 455
f 450 455 451
f 451 455 456
f 451 456 452
f 452 456 453
f 452 453 449
f 457 458 459
f 457 459 460
f 461 462 463
f 461 463 464
f 457 461 462
f 457 462 458
f 458 462 463
f 458 463 459
f 459 463 464
f 459 464 460
f 460 464 461
f 460 461 457
f 465 466 467
f 465 467 468
f 469 470 471
f 469 471 472
f 465 469 470
f 465 470 466
f 466 470 471
f 466 471 467
f 467 471 472
f 467 472 468
f 468 472 469
f 468 469 465
f 473 474 475
f 473 475 476
f 477 478 479
f 477 479 480
f 473 477 478
f 473 478 474
f 474 478 479
f 474 479 475
f 475 479 480
f 475 480 476
f 476 480 477
f 476 477 473
f 481 482 483
f 481 483 484
f 485 486 487
f 485 487 488
f 481 485 486
f 481 486 482
f 482 486 487
f 482 487 483
f 483 487 488
f 483 488 484
f 484 488 485
f 484 485 481
f 489 490 497
f 490 498 497
f 490 491 498
f 491 499 498
f 491 492 499
f 492 500 499
f 492 493 500
f 493 501 500
f 493 494 501
f 494 502 501
f 494 495 502
f 495 503 502
f 495 496 503
f 496 504 503
f 496 489 504
f 489 497 504
f 505 506 513
f 506 514 513
f 506 507 514
f 507 515 514
f 507 508 515
f 508 516 515
f 508 509 516
f 509 517 516
f 509 510 517
f 510 518 517
f 510 511 518
f 511 519 518
f 511 512 519
f 512 520 519
f 512 505 520
f 505 513 520
f 521 522 529
f 522 530 529
f 522 523 530
f 523 531 530
f 523 524 531
f 524 532 531
f 524 525 532
f 525 533 532
f 525 526 533
f 526 534 533
f 526 527 534
f 527 535 534
f 527 528 535
f 528 536 535
f 528 521 536
f 521 529 536
f 537 538 545
f 538 546 545
f 538 539 546
f 539 547 546
f 539 540 547
f 540 548 547
f 540 541 548
f 541 549 548
f 541 542 549
f 542 550 549
f 542 543 550
f 543 551 550
f 543 544 551
f 544 552 551
f 544 537 552
f 537 545 552
f 553 554 561
f 554 562 561
f 554 555 562
f 555 563 562
f 555 556 563
f 556 564 563
f 556 557 564
f 557 565 564
f 557 558 565
f 558 566 565
f 558 559 566
f 559 567 566
f 559 560 567
f 560 568 567
f 560 553 568
f 553 561 568
f 569 570 577
f 570 578 577
f 570 571 578
f 571 579 578
f 571 572 579
f 572 580 579
f 572 573 580
f 573 581 580
f 573 574 581
f 574 582 581
f 574 575 582
f 575 583 582
f 575 576 583
f 576 584 583
f 576 569 584
f 569 577 584
f 585 586 593
f 586 594 593
f 586 587 594
f 587 595 594
f 587 588 595
f 588 596 595
f 588 589 596
f 589 597 596
f 589 590 597
f 590 598 597
f 590 591 598
f 591 599 598
f 591 592 599
f 592 600 599
f 592 585 600
f 585 593 600
f 601 602 609
f 602 610 609
f 602 603 610
f 603 611 610
f 603 604 611
f 604 612 611
f 604 605 612
f 605 613 612
f 605 606 613
f 606 614 613
f 606 607 614
f 607 615 614
f 607 608 615
f 608 616 615
f 608 601 616
f 601 609 616
f 617 618 625
f 618 626 625
f 618 619 626
f 619 627 626
f 619 620 627
f 620 628 627
f 620 621 628
f 621 629 628
f 621 622 629
f 622 630 629
f 622 623 630
f 623 631 630
f 623 624 631
f 624 632 631
f 624 617 632
f 617 625 632
f 633 634 641
f 634 642 641
f 634 635 642
f 635 643 642
f 635 636 643
f 636 644 643
f 636 637 644
f 637 645 644
f 637 638 645
f 638 646 645
f 638 639 646
f 639 647 646
f 639 640 647
f 640 648 647
f 640 633 648
f 633 641 648
f 649 650 657
f 650 658 657
f 650 651 658
f 651 659 658
f 651 652 659
f 652 660 659
f 652 653 660
f 653 661 660
f 653 654 661
f 654 662 661
f 654 655 662
f 655 663 662
f 655 656 663
f 656 664 663
f 656 649 664
f 649 657 664
f 665 666 673
f 666 674 673
f 666 667 674
f 667 675 674
f 667 668 675
f 668 676 675
f 668 669 676
f 669 677 676
f 669 670 677
f 670 678 677
f 670 671 678
f 671 679 678
f 671 672 679
f 672 680 679
f 672 665 680
f 665 673 680
f 681 682 689
f 682 690 689
f 682 683 690
f 683 691 690
f 683 684 691
f 684 692 691
f 684 685 692
f 685 693 692
f 685 686 693
f 686 694 693
f 686 687 694
f 687 695 694
f 687 688 695
f 688 696 695
f 688 681 696
f 681 689 696
f 697 698 705
f 698 706 705
f 698 699 706
f 699 707 706
f 699 700 707
f 700 708 707
f 700 701 708
f 701 709 708
f 701 702 709
f 702 710 709
f 702 703 710
f 703 711 710
f 703 704 711
f 704 712 711
f 704 697 712
f 697 705 712
f 713 714 721
f 714 722 721
f 714 715 722
f 715 723 722
f 715 716 723
f 716 724 723
f 716 717 724
f 717 725 724
f 717 718 725
f 718 726 725
f 718 719 726
f 719 727 726
f 719 720 727
f 720 728 727
f 720 713 728
f 713 721 728
f 729 730 737
f 730 738 737
f 730 731 738
f 731 739 738
f 731 732 739
f 732 740 739
f 732 733 740
f 733 741 740
f 733 734 741
f 734 742 741
f 734 735 742
f 735 743 742
f 735 736 743
f 736 744 743
f 736 729 744
f 729 737 744
f 745 746 753
f 746 754 753
f 746 747 754
f 747 755 754
f 747 748 755
f 748 756 755
f 748 749 756
f 749 757 756
f 749 750 757
f 750 758 757
f 750 751 758
f 751 759 758
f 751 752 759
f 752 760 759
f 752 745 760
f 745 753 760
f 761 762 769
f 762 770 769
f 762 763 770
f 763 771 770
f 763 764 771
f 764 772 771
f 764 765 772
f 765 773 772
f 765 766 773
f 766 774 773
f 766 767 774
f 767 775 774
f 767 768 775
f 768 776 775
f 768 761 776
f 761 769 776
f 777 778 785
f 778 786 785
f 778 779 786
f 779 787 786
f 779 780 787
f 780 788 787
f 780 781 788
f 781 789 788
f 781 782 789
f 782 790 789
f 782 783 790
f 783 791 790
f 783 784 791
f 784 792 791
f 784 777 792
f 777 785 792
f 793 794 801
f 794 802 801
f 794 795 802
f 795 803 802
f 795 796 803
f 796 804 803
f 796 797 804
f 797 805 804
f 797 798 805
f 798 806 805
f 798 799 806
f 799 807 806
f 799 800 807
f 800 808 807
f 800 793 808
f 793 801 808
f 809 810 811
f 809 811 812
f 813 814 815
f 813 815 816
f 809 813 814
f 809 814 810
f 810 814 815
f 810 815 811
f 811 815 816
f 811 816 812
f 812 816 813
f 812 813 809
f 817 818 819
f 817 819 820
f 821 822 823
f 821 823 824
f 817 821 822
f 817 822 818
f 818 822 823
f 818 823 819
f 819 823 824
f 819 824 820
f 820 824 821
f 820 821 817
f 825 826 827
f 825 827 828
f 829 830 831
f 829 831 832
f 825 829 830
f 825 830 826
f 826 830 831
f 826 831 827
f 827 831 832
f 827 832 828
f 828 832 829
f 828 829 825
f 833 834 835
f 833 835 836
f 837 838 839
f 837 839 840
f 833 837 838
f 833 838 834
f 834 838 839
f 834 839 835
f 835 839 840
f 835 840 836
f 836 840 837
f 836 837 833
f 841 842 843
f 841 843 844
f 845 846 847
f 845 847 848
f 841 845 846
f 841 846 842
f 842 846 847
f 842 847 843
f 843 847 848
f 843 848 844
f 844 848 845
f 844 845 841
f 849 850 851
f 849 851 852
f 853 854 855
f 853 855 856
f 849 853 854
f 849 854 850
f 850 854 855
f 850 855 851
f 851 855 856
f 851 856 852
f 852 856 853
f 852 853 849
f 857 858 859
f 857 859 860
f 861 862 863
f 861 863 864
f 857 861 862
f 857 862 858
f 858 862 863
f 858 863 859
f 859 863 864
f 859 864 860
f 860 864 861
f 860 861 857
f 865 866 867
f 865 867 868
f 869 870 871
f 869 871 872
f 865 869 870
f 865 870 866
f 866 870 871
f 866 871 867
f 867 871 872
f 867 872 868
f 868 872 869
f 868 869 865
f 873 874 875
f 873 875 876
f 877 878 879
f 877 879 880
f 873 877 878
f 873 878 874
f 874 878 879
f 874 879 875
f 875 879 880
f 875 880 876
f 876 880 877
f 876 877 873
f 881 882 883
f 881 883 884
f 885 886 887
f 885 887 888
f 881 885 886
f 881 886 882
f 882 886 887
f 882 887 883
f 883 887 888
f 883 888 884
f 884 888 885
f 884 885 881
f 889 890 891
f 889 891 892
f 893 894 895
f 893 895 896
f 889 893 894
f 889 894 890
f 890 894 895
f 890 895 891
f 891 895 896
f 891 896 892
f 892 896 893
f 892 893 889
f 897 898 899
f 897 899 900
f 901 902 903
f 901 903 904
f 897 901 902
f 897 902 898
f 898 902 903
f 898 903 899
f 899 903 904
f 899 904 900
f 900 904 901
f 900 901 897
f 905 906 907
f 905 907 908
f 909 910 911
f 909 911 912
f 905 909 910
f 905 910 906
f 906 910 911
f 906 911 907
f 907 911 912
f 907 912 908
f 908 912 909
f 908 909 905
f 913 914 915
f 913 915 916
f 917 918 919
f 917 919 920
f 913 917 918
f 913 918 914
f 914 918 919
f 914 919 915
f 915 919 920
f 915 920 916
f 916 920 917
f 916 917 913
f 921 922 923
f 921 923 924
f 925 926 927
f 925 927 928
f 921 925 926
f 921 926 922
f 922 926 927
f 922 927 923
f 923 927 928
f 923 928 924
f 924 928 925
f 924 925 921
f 929 930 931
f 929 931 932
f 933 934 935
f 933 935 936
f 929 933 934
f 929 934 930
f 930 934 935
f 930 935 931
f 931 935 936
f 931 936 932
f 932 936 933
f 932 933 929
f 937 938 939
f 937 939 940
f 941 942 943
f 941 943 944
f 937 941 942
f 937 942 938
f 938 942 943
f 938 943 939
f 939 943 944
f 939 944 940
f 940 944 941
f 940 941 937
f 945 946 947
f 945 947 948
f 949 950 951
f 949 951 952
f 945 949 950
f 945 950 946
f 946 950 951
f 946 951 947
f 947 951 952
f 947 952 948
f 948 952 949
f 948 949 945
f 953 954 955
f 953 955 956
f 957 958 959
f 957 959 960
f 953 957 958
f 953 958 954
f 954 958 959
f 954 959 955
f 955 959 960
f 955 960 956
f 956 960 957
f 956 957 953
f 961 962 963
f 961 963 964
f 965 966 967
f 965 967 968
f 961 965 966
f 961 966 962
f 962 966 967
f 962 967 963
f 963 967 968
f 963 968 964
f 964 968 965
f 964 965 961
f 969 970 971
f 969 971 972
f 973 974 975
f 973 975 976
f 969 973 974
f 969 974 970
f 970 974 975
f 970 975 971
f 971 975 976
f 971 976 972
f 972 976 973
f 972 973 969
