# SignFlow 3D Hand Mesh - Frame 13
v 0.000000 -0.009147 0.017786
v -0.013704 -0.003363 0.014173
v -0.019381 0.004391 0.002258
v -0.013704 0.009573 -0.010980
v -0.000000 0.009147 -0.017786
v 0.013704 0.003363 -0.014173
v 0.019381 -0.004391 -0.002258
v 0.013704 -0.009573 0.010980
v -0.010136 -0.044523 -0.000407
v -0.023840 -0.038739 -0.004020
v -0.029517 -0.030985 -0.015935
v -0.023840 -0.025803 -0.029173
v -0.010136 -0.026229 -0.035979
v 0.003568 -0.032014 -0.032367
v 0.009245 -0.039768 -0.020452
v 0.003568 -0.044949 -0.007214
v -0.010136 -0.045309 -0.000834
v -0.024246 -0.041568 -0.005443
v -0.030090 -0.034200 -0.017520
v -0.024246 -0.027521 -0.029992
v -0.010136 -0.025443 -0.035552
v 0.003974 -0.029184 -0.030944
v 0.009818 -0.036552 -0.018866
v 0.003974 -0.043232 -0.006395
v -0.012202 -0.071714 -0.015944
v -0.026312 -0.067973 -0.020552
v -0.032156 -0.060605 -0.032630
v -0.026312 -0.053926 -0.045102
v -0.012202 -0.051848 -0.050662
v 0.001907 -0.055589 -0.046054
v 0.007752 -0.062957 -0.033976
v 0.001907 -0.069637 -0.021504
v -0.012202 -0.075706 -0.018947
v -0.025674 -0.068539 -0.020156
v -0.031254 -0.057414 -0.029068
v -0.025674 -0.048847 -0.040460
v -0.012202 -0.047857 -0.047659
v 0.001270 -0.055023 -0.046449
v 0.006850 -0.066148 -0.037538
v 0.001270 -0.074715 -0.026146
v -0.024986 -0.104444 -0.046820
v -0.038458 -0.097278 -0.048030
v -0.044038 -0.086153 -0.056941
v -0.038458 -0.077586 -0.068334
v -0.024986 -0.076595 -0.075533
v -0.011514 -0.083762 -0.074323
v -0.005933 -0.094887 -0.065412
v -0.011514 -0.103454 -0.054020
v -0.024986 -0.105272 -0.047672
v -0.035646 -0.094676 -0.044773
v -0.040062 -0.081646 -0.051483
v -0.035646 -0.073814 -0.063872
v -0.024986 -0.075768 -0.074682
v -0.014325 -0.086363 -0.077581
v -0.009910 -0.099394 -0.070871
v -0.014325 -0.107226 -0.058482
v -0.043846 -0.119881 -0.063631
v -0.054506 -0.109285 -0.060732
v -0.058922 -0.096255 -0.067442
v -0.054506 -0.088423 -0.079830
v -0.043846 -0.090377 -0.090640
v -0.033186 -0.100973 -0.093539
v -0.028770 -0.114003 -0.086829
v -0.033186 -0.121835 -0.074440
v 0.000000 -0.014844 0.013403
v -0.014142 -0.010556 0.009412
v -0.020000 -0.000084 -0.000093
v -0.014142 0.010437 -0.009543
v -0.000000 0.014844 -0.013403
v 0.014142 0.010556 -0.009412
v 0.020000 0.000084 0.000093
v 0.014142 -0.010437 0.009543
v 0.000640 -0.083595 -0.062739
v -0.013502 -0.079306 -0.066730
v -0.019360 -0.068834 -0.076235
v -0.013502 -0.058313 -0.085685
v 0.000640 -0.053906 -0.089545
v 0.014782 -0.058195 -0.085554
v 0.020639 -0.068667 -0.076050
v 0.014782 -0.079188 -0.066599
v 0.000640 -0.071320 -0.056308
v -0.013476 -0.071419 -0.062228
v -0.019323 -0.069955 -0.076298
v -0.013476 -0.067785 -0.090278
v 0.000640 -0.066181 -0.095976
v 0.014756 -0.066082 -0.090057
v 0.020603 -0.067546 -0.075986
v 0.014756 -0.069716 -0.062007
v 0.002208 -0.096877 -0.059619
v -0.011908 -0.096976 -0.065539
v -0.017755 -0.095511 -0.079609
v -0.011908 -0.093342 -0.093589
v 0.002208 -0.091737 -0.099288
v 0.016324 -0.091638 -0.093368
v 0.022171 -0.093102 -0.079297
v 0.016324 -0.095272 -0.065318
v 0.002208 -0.085556 -0.061469
v -0.011655 -0.090636 -0.065512
v -0.017397 -0.097866 -0.077722
v -0.011655 -0.103011 -0.090945
v 0.002208 -0.103058 -0.097437
v 0.016070 -0.097978 -0.093394
v 0.021812 -0.090748 -0.081185
v 0.016070 -0.085603 -0.067961
v 0.006530 -0.104808 -0.052101
v -0.007333 -0.109888 -0.056144
v -0.013075 -0.117118 -0.068354
v -0.007333 -0.122263 -0.081577
v 0.006530 -0.122310 -0.088069
v 0.020392 -0.117231 -0.084026
v 0.026134 -0.110001 -0.071817
v 0.020392 -0.104855 -0.058593
v 0.006530 -0.108886 -0.050639
v -0.007381 -0.112731 -0.055740
v -0.013143 -0.117061 -0.069244
v -0.007381 -0.119340 -0.083241
v 0.006530 -0.118232 -0.089532
v 0.020441 -0.114387 -0.084431
v 0.026203 -0.110057 -0.070927
v 0.020441 -0.107779 -0.056930
v 0.009453 -0.124409 -0.046909
v -0.004458 -0.128254 -0.052009
v -0.010221 -0.132584 -0.065514
v -0.004458 -0.134863 -0.079511
v 0.009453 -0.133755 -0.085802
v 0.023363 -0.129910 -0.080701
v 0.029126 -0.125580 -0.067197
v 0.023363 -0.123302 -0.053199
v 0.000000 -0.015863 0.012181
v -0.013973 -0.012546 0.006882
v -0.019760 -0.001880 -0.002449
v -0.013973 0.009887 -0.010345
v -0.000000 0.015863 -0.012181
v 0.013973 0.012546 -0.006882
v 0.019760 0.001880 0.002449
v 0.013973 -0.009887 0.010345
v 0.015570 -0.076556 -0.066857
v 0.001598 -0.073240 -0.072156
v -0.004190 -0.062574 -0.081487
v 0.001598 -0.050806 -0.089383
v 0.015570 -0.044831 -0.091219
v 0.029543 -0.048147 -0.085920
v 0.035331 -0.058813 -0.076589
v 0.029543 -0.070580 -0.068693
v 0.015570 -0.055621 -0.059692
v 0.003051 -0.063468 -0.063690
v -0.002135 -0.069690 -0.076679
v 0.003051 -0.070642 -0.091050
v 0.015570 -0.065766 -0.098384
v 0.028090 -0.057918 -0.094386
v 0.033276 -0.051696 -0.081397
v 0.028090 -0.050745 -0.067026
v 0.031751 -0.085416 -0.051880
v 0.019231 -0.093263 -0.055879
v 0.014045 -0.099485 -0.068867
v 0.019231 -0.100436 -0.083238
v 0.031751 -0.095560 -0.090572
v 0.044271 -0.087713 -0.086574
v 0.049457 -0.081491 -0.073585
v 0.044271 -0.080539 -0.059215
v 0.031751 -0.070601 -0.073346
v 0.018392 -0.076917 -0.077340
v 0.012859 -0.091184 -0.077753
v 0.018392 -0.105042 -0.074342
v 0.031751 -0.110375 -0.069106
v 0.045110 -0.104058 -0.065113
v 0.050643 -0.089792 -0.064700
v 0.045110 -0.075933 -0.068111
v 0.024044 -0.068249 -0.051286
v 0.010685 -0.074566 -0.055280
v 0.005151 -0.088832 -0.055692
v 0.010685 -0.102691 -0.052282
v 0.024044 -0.108024 -0.047046
v 0.037403 -0.101707 -0.043052
v 0.042936 -0.087441 -0.042640
v 0.037403 -0.073582 -0.046050
v 0.024044 -0.070305 -0.058223
v 0.011142 -0.078150 -0.060733
v 0.005797 -0.091845 -0.056467
v 0.011142 -0.103368 -0.047924
v 0.024044 -0.105968 -0.040108
v 0.036946 -0.098122 -0.037598
v 0.042290 -0.084427 -0.041864
v 0.036946 -0.072905 -0.050407
v 0.010397 -0.056535 -0.031116
v -0.002505 -0.064381 -0.033626
v -0.007849 -0.078076 -0.029360
v -0.002505 -0.089598 -0.020816
v 0.010397 -0.092198 -0.013000
v 0.023299 -0.084353 -0.010490
v 0.028644 -0.070658 -0.014756
v 0.023299 -0.059135 -0.023300
v 0.000000 -0.016286 0.011609
v -0.013454 -0.014045 0.004661
v -0.019027 -0.003577 -0.005018
v -0.013454 0.008987 -0.011757
v -0.000000 0.016286 -0.011609
v 0.013454 0.014045 -0.004661
v 0.019027 0.003577 0.005018
v 0.013454 -0.008987 0.011757
v 0.030379 -0.070735 -0.064775
v 0.016925 -0.068494 -0.071723
v 0.011352 -0.058026 -0.081401
v 0.016925 -0.045462 -0.088141
v 0.030379 -0.038163 -0.087993
v 0.043833 -0.040404 -0.081045
v 0.049406 -0.050872 -0.071366
v 0.043833 -0.063435 -0.064627
v 0.030379 -0.048737 -0.057217
v 0.017834 -0.056668 -0.060966
v 0.012638 -0.063299 -0.073746
v 0.017834 -0.064746 -0.088072
v 0.030379 -0.060161 -0.095551
v 0.042923 -0.052230 -0.091802
v 0.048119 -0.045599 -0.079021
v 0.042923 -0.044152 -0.064696
v 0.041593 -0.069383 -0.051064
v 0.029048 -0.077314 -0.054813
v 0.023852 -0.083945 -0.067593
v 0.029048 -0.085392 -0.081919
v 0.041593 -0.080807 -0.089398
v 0.054137 -0.072876 -0.085649
v 0.059333 -0.066245 -0.072868
v 0.054137 -0.064798 -0.058543
v 0.041593 -0.055478 -0.074127
v 0.028180 -0.062097 -0.077384
v 0.022625 -0.076330 -0.076451
v 0.028180 -0.089840 -0.071874
v 0.041593 -0.094712 -0.066335
v 0.055005 -0.088093 -0.063078
v 0.060561 -0.073860 -0.064011
v 0.055005 -0.060350 -0.068588
v 0.035335 -0.051832 -0.055766
v 0.021922 -0.058451 -0.059023
v 0.016366 -0.072684 -0.058090
v 0.021922 -0.086193 -0.053513
v 0.035335 -0.091065 -0.047974
v 0.048747 -0.084446 -0.044717
v 0.054303 -0.070213 -0.045650
v 0.048747 -0.056704 -0.050227
v 0.035335 -0.052448 -0.058114
v 0.021887 -0.059380 -0.060443
v 0.016317 -0.073381 -0.057751
v 0.021887 -0.086250 -0.051613
v 0.035335 -0.090449 -0.045626
v 0.048782 -0.083517 -0.043297
v 0.054352 -0.069516 -0.045989
v 0.048782 -0.056647 -0.052127
v 0.026546 -0.044018 -0.032462
v 0.013098 -0.050950 -0.034791
v 0.007528 -0.064951 -0.032099
v 0.013098 -0.077821 -0.025961
v 0.026546 -0.082019 -0.019974
v 0.039993 -0.075088 -0.017644
v 0.045563 -0.061086 -0.020337
v 0.039993 -0.048217 -0.026474
v 0.000000 -0.016782 0.010880
v -0.012749 -0.015197 0.002556
v -0.018029 -0.004709 -0.007264
v -0.012749 0.008536 -0.012830
v -0.000000 0.016782 -0.010880
v 0.012749 0.015197 -0.002556
v 0.018029 0.004709 0.007264
v 0.012749 -0.008536 0.012830
v 0.036559 -0.058198 -0.053004
v 0.023810 -0.056613 -0.061328
v 0.018530 -0.046126 -0.071148
v 0.023810 -0.032880 -0.076714
v 0.036559 -0.024635 -0.074764
v 0.049307 -0.026220 -0.066441
v 0.054588 -0.036707 -0.056620
v 0.049307 -0.049953 -0.051054
v 0.036559 -0.044159 -0.044073
v 0.028787 -0.055059 -0.051496
v 0.025567 -0.057967 -0.066176
v 0.028787 -0.051180 -0.079513
v 0.036559 -0.038673 -0.083695
v 0.044331 -0.027773 -0.076272
v 0.047550 -0.024865 -0.061592
v 0.044331 -0.031653 -0.048255
v 0.056270 -0.057003 -0.045851
v 0.048498 -0.067903 -0.053274
v 0.045278 -0.070811 -0.067954
v 0.048498 -0.064024 -0.081291
v 0.056270 -0.051517 -0.085473
v 0.064042 -0.040617 -0.078051
v 0.067261 -0.037709 -0.063371
v 0.064042 -0.044496 -0.050034
v 0.056270 -0.043430 -0.048848
v 0.048449 -0.056508 -0.047393
v 0.045210 -0.068269 -0.056640
v 0.048449 -0.071824 -0.071172
v 0.056270 -0.065089 -0.082477
v 0.064090 -0.052011 -0.083932
v 0.067330 -0.040250 -0.074685
v 0.064090 -0.036696 -0.060153
v 0.076558 -0.054751 -0.041557
v 0.068737 -0.067829 -0.040102
v 0.065498 -0.079590 -0.049348
v 0.068737 -0.083144 -0.063881
v 0.076558 -0.076410 -0.075186
v 0.084378 -0.063332 -0.076641
v 0.087618 -0.051571 -0.067394
v 0.084378 -0.048017 -0.052862
v 0.076558 -0.061599 -0.038772
v 0.069773 -0.074925 -0.042042
v 0.066963 -0.082778 -0.054878
v 0.069773 -0.080556 -0.069760
v 0.076558 -0.069562 -0.077971
v 0.083343 -0.056236 -0.074701
v 0.086153 -0.048384 -0.061865
v 0.083343 -0.050605 -0.046982
v 0.094779 -0.071363 -0.036788
v 0.087995 -0.084689 -0.040058
v 0.085184 -0.092541 -0.052894
v 0.087995 -0.090320 -0.067777
v 0.094779 -0.079326 -0.075987
v 0.101564 -0.066000 -0.072717
v 0.104374 -0.058148 -0.059881
v 0.101564 -0.060369 -0.044999
v -0.015000 -0.015000 -0.015000
v 0.015000 -0.015000 -0.015000
v 0.015000 0.015000 -0.015000
v -0.015000 0.015000 -0.015000
v -0.015000 -0.015000 0.015000
v 0.015000 -0.015000 0.015000
v 0.015000 0.015000 0.015000
v -0.015000 0.015000 0.015000
v -0.025136 -0.050376 -0.033193
v 0.004864 -0.050376 -0.033193
v 0.004864 -0.020376 -0.033193
v -0.025136 -0.020376 -0.033193
v -0.025136 -0.050376 -0.003193
v 0.004864 -0.050376 -0.003193
v 0.004864 -0.020376 -0.003193
v -0.025136 -0.020376 -0.003193
v -0.027202 -0.076781 -0.048303
v 0.002798 -0.076781 -0.048303
v 0.002798 -0.046781 -0.048303
v -0.027202 -0.046781 -0.048303
v -0.027202 -0.076781 -0.018303
v 0.002798 -0.076781 -0.018303
v 0.002798 -0.046781 -0.018303
v -0.027202 -0.046781 -0.018303
v -0.039986 -0.105520 -0.076177
v -0.009986 -0.105520 -0.076177
v -0.009986 -0.075520 -0.076177
v -0.039986 -0.075520 -0.076177
v -0.039986 -0.105520 -0.046177
v -0.009986 -0.105520 -0.046177
v -0.009986 -0.075520 -0.046177
v -0.039986 -0.075520 -0.046177
v -0.058846 -0.120129 -0.092135
v -0.028846 -0.120129 -0.092135
v -0.028846 -0.090129 -0.092135
v -0.058846 -0.090129 -0.092135
v -0.058846 -0.120129 -0.062135
v -0.028846 -0.120129 -0.062135
v -0.028846 -0.090129 -0.062135
v -0.058846 -0.090129 -0.062135
v -0.014360 -0.083750 -0.091142
v 0.015640 -0.083750 -0.091142
v 0.015640 -0.053750 -0.091142
v -0.014360 -0.053750 -0.091142
v -0.014360 -0.083750 -0.061142
v 0.015640 -0.083750 -0.061142
v 0.015640 -0.053750 -0.061142
v -0.014360 -0.053750 -0.061142
v -0.012792 -0.109307 -0.094453
v 0.017208 -0.109307 -0.094453
v 0.017208 -0.079307 -0.094453
v -0.012792 -0.079307 -0.094453
v -0.012792 -0.109307 -0.064453
v 0.017208 -0.109307 -0.064453
v 0.017208 -0.079307 -0.064453
v -0.012792 -0.079307 -0.064453
v -0.008470 -0.128559 -0.085085
v 0.021530 -0.128559 -0.085085
v 0.021530 -0.098559 -0.085085
v -0.008470 -0.098559 -0.085085
v -0.008470 -0.128559 -0.055085
v 0.021530 -0.128559 -0.055085
v 0.021530 -0.098559 -0.055085
v -0.008470 -0.098559 -0.055085
v -0.005547 -0.144082 -0.081355
v 0.024453 -0.144082 -0.081355
v 0.024453 -0.114082 -0.081355
v -0.005547 -0.114082 -0.081355
v -0.005547 -0.144082 -0.051355
v 0.024453 -0.144082 -0.051355
v 0.024453 -0.114082 -0.051355
v -0.005547 -0.114082 -0.051355
v 0.000570 -0.075693 -0.094038
v 0.030570 -0.075693 -0.094038
v 0.030570 -0.045693 -0.094038
v 0.000570 -0.045693 -0.094038
v 0.000570 -0.075693 -0.064038
v 0.030570 -0.075693 -0.064038
v 0.030570 -0.045693 -0.064038
v 0.000570 -0.045693 -0.064038
v 0.016751 -0.105488 -0.086226
v 0.046751 -0.105488 -0.086226
v 0.046751 -0.075488 -0.086226
v 0.016751 -0.075488 -0.086226
v 0.016751 -0.105488 -0.056226
v 0.046751 -0.105488 -0.056226
v 0.046751 -0.075488 -0.056226
v 0.016751 -0.075488 -0.056226
v 0.009044 -0.103136 -0.064166
v 0.039044 -0.103136 -0.064166
v 0.039044 -0.073136 -0.064166
v 0.009044 -0.073136 -0.064166
v 0.009044 -0.103136 -0.034166
v 0.039044 -0.103136 -0.034166
v 0.039044 -0.073136 -0.034166
v 0.009044 -0.073136 -0.034166
v -0.004603 -0.089367 -0.037058
v 0.025397 -0.089367 -0.037058
v 0.025397 -0.059367 -0.037058
v -0.004603 -0.059367 -0.037058
v -0.004603 -0.089367 -0.007058
v 0.025397 -0.089367 -0.007058
v 0.025397 -0.059367 -0.007058
v -0.004603 -0.059367 -0.007058
v 0.015379 -0.069449 -0.091384
v 0.045379 -0.069449 -0.091384
v 0.045379 -0.039449 -0.091384
v 0.015379 -0.039449 -0.091384
v 0.015379 -0.069449 -0.061384
v 0.045379 -0.069449 -0.061384
v 0.045379 -0.039449 -0.061384
v 0.015379 -0.039449 -0.061384
v 0.026593 -0.090095 -0.085231
v 0.056593 -0.090095 -0.085231
v 0.056593 -0.060095 -0.085231
v 0.026593 -0.060095 -0.085231
v 0.026593 -0.090095 -0.055231
v 0.056593 -0.090095 -0.055231
v 0.056593 -0.060095 -0.055231
v 0.026593 -0.060095 -0.055231
v 0.020335 -0.086448 -0.066870
v 0.050335 -0.086448 -0.066870
v 0.050335 -0.056448 -0.066870
v 0.020335 -0.056448 -0.066870
v 0.020335 -0.086448 -0.036870
v 0.050335 -0.086448 -0.036870
v 0.050335 -0.056448 -0.036870
v 0.020335 -0.056448 -0.036870
v 0.011546 -0.078019 -0.041218
v 0.041546 -0.078019 -0.041218
v 0.041546 -0.048019 -0.041218
v 0.011546 -0.048019 -0.041218
v 0.011546 -0.078019 -0.011218
v 0.041546 -0.078019 -0.011218
v 0.041546 -0.048019 -0.011218
v 0.011546 -0.048019 -0.011218
v 0.021559 -0.056416 -0.078884
v 0.051559 -0.056416 -0.078884
v 0.051559 -0.026416 -0.078884
v 0.021559 -0.026416 -0.078884
v 0.021559 -0.056416 -0.048884
v 0.051559 -0.056416 -0.048884
v 0.051559 -0.026416 -0.048884
v 0.021559 -0.026416 -0.048884
v 0.041270 -0.069260 -0.080662
v 0.071270 -0.069260 -0.080662
v 0.071270 -0.039260 -0.080662
v 0.041270 -0.039260 -0.080662
v 0.041270 -0.069260 -0.050662
v 0.071270 -0.069260 -0.050662
v 0.071270 -0.039260 -0.050662
v 0.041270 -0.039260 -0.050662
v 0.061558 -0.080581 -0.073371
v 0.091558 -0.080581 -0.073371
v 0.091558 -0.050581 -0.073371
v 0.061558 -0.050581 -0.073371
v 0.061558 -0.080581 -0.043371
v 0.091558 -0.080581 -0.043371
v 0.091558 -0.050581 -0.043371
v 0.061558 -0.050581 -0.043371
v 0.079779 -0.090344 -0.071388
v 0.109779 -0.090344 -0.071388
v 0.109779 -0.060344 -0.071388
v 0.079779 -0.060344 -0.071388
v 0.079779 -0.090344 -0.041388
v 0.109779 -0.090344 -0.041388
v 0.109779 -0.060344 -0.041388
v 0.079779 -0.060344 -0.041388
v 0.000000 -0.012837 0.015337
v -0.013842 -0.011300 0.008984
v -0.019575 -0.003143 -0.002631
v -0.013842 0.006855 -0.012705
v -0.000000 0.012837 -0.015337
v 0.013842 0.011300 -0.008984
v 0.019575 0.003143 0.002631
v 0.013842 -0.006855 0.012705
v 0.009124 -0.046252 -0.012633
v -0.004718 -0.044715 -0.018985
v -0.010451 -0.036559 -0.030600
v -0.004718 -0.026561 -0.040674
v 0.009124 -0.020578 -0.043306
v 0.022966 -0.022116 -0.036954
v 0.028700 -0.030272 -0.025338
v 0.022966 -0.040270 -0.015264
v 0.009124 -0.045520 -0.012048
v -0.004205 -0.045736 -0.019571
v -0.009726 -0.038735 -0.032014
v -0.004205 -0.028618 -0.042087
v 0.009124 -0.021311 -0.043890
v 0.022454 -0.021095 -0.036367
v 0.027975 -0.028096 -0.023925
v 0.022454 -0.038213 -0.013852
v 0.018192 -0.065882 -0.027529
v 0.004862 -0.066098 -0.035052
v -0.000659 -0.059097 -0.047494
v 0.004862 -0.048979 -0.057568
v 0.018192 -0.041672 -0.059371
v 0.031521 -0.041456 -0.051848
v 0.037042 -0.048457 -0.039406
v 0.031521 -0.058575 -0.029332
v 0.018192 -0.070424 -0.032365
v 0.004156 -0.066506 -0.037050
v -0.001658 -0.055131 -0.045484
v 0.004156 -0.042963 -0.052727
v 0.018192 -0.037130 -0.054535
v 0.032228 -0.041048 -0.049850
v 0.038042 -0.052422 -0.041416
v 0.032228 -0.064590 -0.034173
v 0.023020 -0.092160 -0.065007
v 0.008984 -0.088242 -0.069692
v 0.003170 -0.076867 -0.078126
v 0.008984 -0.064699 -0.085369
v 0.023020 -0.058866 -0.087177
v 0.037056 -0.062784 -0.082492
v 0.042870 -0.074158 -0.074058
v 0.037056 -0.086326 -0.066816
v 0.023020 -0.091434 -0.063988
v 0.011418 -0.091665 -0.073970
v 0.006612 -0.082434 -0.085196
v 0.011418 -0.069149 -0.091089
v 0.023020 -0.059592 -0.088197
v 0.034622 -0.059361 -0.078214
v 0.039428 -0.068591 -0.066988
v 0.034622 -0.081876 -0.061096
v 0.040392 -0.106519 -0.083829
v 0.028790 -0.106750 -0.093812
v 0.023984 -0.097519 -0.105037
v 0.028790 -0.084234 -0.110930
v 0.040392 -0.074677 -0.108038
v 0.051994 -0.074446 -0.098056
v 0.056800 -0.083676 -0.086830
v 0.051994 -0.096961 -0.080937
v 0.000000 -0.017892 0.008937
v -0.014142 -0.012605 0.006414
v -0.019999 0.000067 0.000133
v -0.014142 0.012699 -0.006225
v -0.000000 0.017892 -0.008937
v 0.014142 0.012605 -0.006414
v 0.019999 -0.000067 -0.000133
v 0.014142 -0.012699 0.006225
v -0.000766 -0.063888 -0.083149
v -0.014908 -0.058600 -0.085673
v -0.020766 -0.045929 -0.091953
v -0.014908 -0.033297 -0.098311
v -0.000766 -0.028103 -0.101023
v 0.013376 -0.033391 -0.098500
v 0.019233 -0.046062 -0.092219
v 0.013376 -0.058694 -0.085861
v -0.000766 -0.043193 -0.072283
v -0.010848 -0.034194 -0.079473
v -0.015024 -0.032109 -0.094052
v -0.010848 -0.038158 -0.107478
v -0.000766 -0.048799 -0.111889
v 0.009316 -0.057797 -0.104699
v 0.013492 -0.059882 -0.090121
v 0.009316 -0.053833 -0.076694
v -0.017764 -0.060303 -0.069862
v -0.027846 -0.051305 -0.077052
v -0.032023 -0.049219 -0.091630
v -0.027846 -0.055268 -0.105057
v -0.017764 -0.065909 -0.109467
v -0.007682 -0.074907 -0.102277
v -0.003506 -0.076993 -0.087699
v -0.007682 -0.070943 -0.074272
v -0.017764 -0.043399 -0.086254
v -0.031751 -0.048815 -0.089310
v -0.037545 -0.062602 -0.092574
v -0.031751 -0.076685 -0.094133
v -0.017764 -0.082813 -0.093075
v -0.003777 -0.077397 -0.090018
v 0.002016 -0.063609 -0.086754
v -0.003777 -0.049527 -0.085195
v -0.021679 -0.047870 -0.060415
v -0.035666 -0.053286 -0.063472
v -0.041460 -0.067074 -0.066735
v -0.035666 -0.081156 -0.068294
v -0.021679 -0.087284 -0.067236
v -0.007692 -0.081868 -0.064179
v -0.001898 -0.068081 -0.060916
v -0.007692 -0.053998 -0.059356
v -0.021679 -0.050256 -0.073825
v -0.035566 -0.053991 -0.068577
v -0.041317 -0.065684 -0.060546
v -0.035566 -0.078487 -0.054436
v -0.021679 -0.084898 -0.053826
v -0.007793 -0.081164 -0.059074
v -0.002041 -0.069470 -0.067104
v -0.007793 -0.056668 -0.073215
v -0.015363 -0.033877 -0.045452
v -0.029249 -0.037612 -0.040205
v -0.035001 -0.049305 -0.032174
v -0.029249 -0.062108 -0.026064
v -0.015363 -0.068519 -0.025454
v -0.001477 -0.064785 -0.030701
v 0.004275 -0.053091 -0.038732
v -0.001477 -0.040289 -0.044842
v 0.000000 -0.018438 0.007748
v -0.013995 -0.012249 0.007356
v -0.019792 0.001116 0.002655
v -0.013995 0.013826 -0.003602
v -0.000000 0.018438 -0.007748
v 0.013995 0.012249 -0.007356
v 0.019792 -0.001116 -0.002655
v 0.013995 -0.013826 0.003602
v -0.014530 -0.057131 -0.084324
v -0.028525 -0.050941 -0.084716
v -0.034321 -0.037577 -0.089418
v -0.028525 -0.024866 -0.095674
v -0.014530 -0.020255 -0.099821
v -0.000535 -0.026444 -0.099428
v 0.005262 -0.039808 -0.094727
v -0.000535 -0.052519 -0.088470
v -0.014530 -0.033888 -0.072658
v -0.026230 -0.027585 -0.080252
v -0.031077 -0.027788 -0.094771
v -0.026230 -0.034379 -0.107708
v -0.014530 -0.043497 -0.111486
v -0.002829 -0.049801 -0.103892
v 0.002017 -0.049597 -0.089373
v -0.002829 -0.043006 -0.076436
v -0.030946 -0.057361 -0.066849
v -0.042647 -0.051058 -0.074443
v -0.047493 -0.051261 -0.088962
v -0.042647 -0.057852 -0.101899
v -0.030946 -0.066970 -0.105677
v -0.019245 -0.073274 -0.098083
v -0.014399 -0.073070 -0.083565
v -0.019245 -0.066479 -0.070627
v -0.030946 -0.042190 -0.085271
v -0.044995 -0.047961 -0.087180
v -0.050814 -0.062052 -0.088552
v -0.044995 -0.076210 -0.088583
v -0.030946 -0.082141 -0.087255
v -0.016897 -0.076371 -0.085346
v -0.011078 -0.062280 -0.083974
v -0.016897 -0.048122 -0.083943
v -0.034035 -0.043519 -0.058520
v -0.048084 -0.049290 -0.060429
v -0.053904 -0.063381 -0.061801
v -0.048084 -0.077539 -0.061833
v -0.034035 -0.083470 -0.060505
v -0.019986 -0.077700 -0.058596
v -0.014167 -0.063608 -0.057224
v -0.019986 -0.049450 -0.057192
v -0.034035 -0.043700 -0.062373
v -0.047287 -0.048792 -0.056648
v -0.052776 -0.062496 -0.052600
v -0.047287 -0.076785 -0.052602
v -0.034035 -0.083289 -0.056652
v -0.020783 -0.078198 -0.062377
v -0.015294 -0.064494 -0.066425
v -0.020783 -0.050204 -0.066423
v -0.021683 -0.038959 -0.029567
v -0.034935 -0.044051 -0.023842
v -0.040424 -0.057755 -0.019794
v -0.034935 -0.072044 -0.019796
v -0.021683 -0.078548 -0.023846
v -0.008431 -0.073457 -0.029571
v -0.002942 -0.059753 -0.033618
v -0.008431 -0.045463 -0.033617
v 0.000000 -0.018619 0.007303
v -0.013760 -0.011973 0.008205
v -0.019459 0.001687 0.004300
v -0.013760 0.014358 -0.002123
v -0.000000 0.018619 -0.007303
v 0.013760 0.011973 -0.008205
v 0.019459 -0.001687 -0.004300
v 0.013760 -0.014358 0.002123
v -0.021759 -0.052088 -0.078028
v -0.035518 -0.045442 -0.077126
v -0.041218 -0.031782 -0.081030
v -0.035518 -0.019110 -0.087454
v -0.021759 -0.014850 -0.092634
v -0.007999 -0.021496 -0.093535
v -0.002299 -0.035155 -0.089631
v -0.007999 -0.047827 -0.083208
v -0.021759 -0.025668 -0.066915
v -0.032358 -0.019331 -0.075960
v -0.036748 -0.021276 -0.090495
v -0.032358 -0.030363 -0.102005
v -0.021759 -0.041269 -0.103747
v -0.011160 -0.047606 -0.094701
v -0.006770 -0.045661 -0.080166
v -0.011160 -0.036574 -0.068657
v -0.041849 -0.046609 -0.058045
v -0.052448 -0.040272 -0.067091
v -0.056838 -0.042217 -0.081625
v -0.052448 -0.051303 -0.093135
v -0.041849 -0.062210 -0.094877
v -0.031250 -0.068546 -0.085831
v -0.026860 -0.066602 -0.071297
v -0.031250 -0.057515 -0.059787
v -0.041849 -0.034442 -0.077611
v -0.055845 -0.040174 -0.075248
v -0.061642 -0.054244 -0.073596
v -0.055845 -0.068411 -0.073622
v -0.041849 -0.074376 -0.075311
v -0.027853 -0.068645 -0.077674
v -0.022056 -0.054574 -0.079326
v -0.027853 -0.040407 -0.079300
v -0.038509 -0.033118 -0.054616
v -0.052505 -0.038849 -0.052253
v -0.058302 -0.052920 -0.050601
v -0.052505 -0.067087 -0.050627
v -0.038509 -0.073052 -0.052316
v -0.024513 -0.067320 -0.054679
v -0.018716 -0.053250 -0.056331
v -0.024513 -0.039083 -0.056305
v -0.038509 -0.036266 -0.064289
v -0.049157 -0.036156 -0.053293
v -0.053568 -0.045962 -0.042398
v -0.049157 -0.059941 -0.037987
v -0.038509 -0.069903 -0.042643
v -0.027861 -0.070014 -0.053639
v -0.023450 -0.060207 -0.064534
v -0.027861 -0.046229 -0.068945
v -0.025320 -0.028100 -0.051599
v -0.035968 -0.027990 -0.040602
v -0.040379 -0.037796 -0.029708
v -0.035968 -0.051775 -0.025296
v -0.025320 -0.061737 -0.029953
v -0.014671 -0.061847 -0.040949
v -0.010261 -0.052041 -0.051843
v -0.014671 -0.038062 -0.056255
v 0.000000 -0.018936 0.006436
v -0.012787 -0.011446 0.010270
v -0.018084 0.002749 0.008088
v -0.012787 0.015334 0.001168
v -0.000000 0.018936 -0.006436
v 0.012787 0.011446 -0.010270
v 0.018084 -0.002749 -0.008088
v 0.012787 -0.015334 -0.001168
v -0.035387 -0.043043 -0.064497
v -0.048174 -0.035553 -0.060663
v -0.053471 -0.021358 -0.062845
v -0.048174 -0.008773 -0.069764
v -0.035387 -0.005171 -0.077368
v -0.022600 -0.012661 -0.081202
v -0.017303 -0.026856 -0.079020
v -0.022600 -0.039441 -0.072101
v -0.035387 -0.019516 -0.051467
v -0.043413 -0.009527 -0.059841
v -0.046737 -0.008079 -0.074713
v -0.043413 -0.016020 -0.087370
v -0.035387 -0.028698 -0.090399
v -0.027361 -0.038686 -0.082024
v -0.024037 -0.040135 -0.067153
v -0.027361 -0.032194 -0.054495
v -0.056243 -0.033507 -0.048167
v -0.064269 -0.023518 -0.056541
v -0.067593 -0.022070 -0.071413
v -0.064269 -0.030011 -0.084070
v -0.056243 -0.042689 -0.087099
v -0.048217 -0.052677 -0.078725
v -0.044893 -0.054126 -0.063853
v -0.048217 -0.046185 -0.051196
v -0.056243 -0.027745 -0.050521
v -0.066036 -0.022048 -0.060814
v -0.070093 -0.025753 -0.075102
v -0.066036 -0.036689 -0.085014
v -0.056243 -0.048451 -0.084745
v -0.046449 -0.054148 -0.074452
v -0.042393 -0.050443 -0.060164
v -0.046449 -0.039507 -0.050252
v -0.073653 -0.042044 -0.041870
v -0.083447 -0.036347 -0.052163
v -0.087503 -0.040052 -0.066451
v -0.083447 -0.050989 -0.076363
v -0.073653 -0.062750 -0.076094
v -0.063860 -0.068447 -0.065800
v -0.059804 -0.064742 -0.051513
v -0.063860 -0.053806 -0.041601
v -0.073653 -0.047083 -0.039701
v -0.081730 -0.037448 -0.048432
v -0.085076 -0.036570 -0.063344
v -0.081730 -0.044963 -0.075700
v -0.073653 -0.057711 -0.078263
v -0.065577 -0.067346 -0.069531
v -0.062231 -0.068224 -0.054620
v -0.065577 -0.059831 -0.042264
v -0.087574 -0.056420 -0.037127
v -0.095650 -0.046785 -0.045859
v -0.098996 -0.045907 -0.060771
v -0.095650 -0.054300 -0.073127
v -0.087574 -0.067048 -0.075690
v -0.079497 -0.076683 -0.066958
v -0.076151 -0.077561 -0.052047
v -0.079497 -0.069168 -0.039690
v -0.015000 -0.015000 -0.015000
v 0.015000 -0.015000 -0.015000
v 0.015000 0.015000 -0.015000
v -0.015000 0.015000 -0.015000
v -0.015000 -0.015000 0.015000
v 0.015000 -0.015000 0.015000
v 0.015000 0.015000 0.015000
v -0.015000 0.015000 0.015000
v -0.005876 -0.048415 -0.042969
v 0.024124 -0.048415 -0.042969
v 0.024124 -0.018415 -0.042969
v -0.005876 -0.018415 -0.042969
v -0.005876 -0.048415 -0.012969
v 0.024124 -0.048415 -0.012969
v 0.024124 -0.018415 -0.012969
v -0.005876 -0.018415 -0.012969
v 0.003192 -0.068777 -0.058450
v 0.033192 -0.068777 -0.058450
v 0.033192 -0.038777 -0.058450
v 0.003192 -0.038777 -0.058450
v 0.003192 -0.068777 -0.028450
v 0.033192 -0.068777 -0.028450
v 0.033192 -0.038777 -0.028450
v 0.003192 -0.038777 -0.028450
v 0.008020 -0.090513 -0.091092
v 0.038020 -0.090513 -0.091092
v 0.038020 -0.060513 -0.091092
v 0.008020 -0.060513 -0.091092
v 0.008020 -0.090513 -0.061092
v 0.038020 -0.090513 -0.061092
v 0.038020 -0.060513 -0.061092
v 0.008020 -0.060513 -0.061092
v 0.025392 -0.105598 -0.110934
v 0.055392 -0.105598 -0.110934
v 0.055392 -0.075598 -0.110934
v 0.025392 -0.075598 -0.110934
v 0.025392 -0.105598 -0.080934
v 0.055392 -0.105598 -0.080934
v 0.055392 -0.075598 -0.080934
v 0.025392 -0.075598 -0.080934
v -0.015766 -0.060996 -0.107086
v 0.014234 -0.060996 -0.107086
v 0.014234 -0.030996 -0.107086
v -0.015766 -0.030996 -0.107086
v -0.015766 -0.060996 -0.077086
v 0.014234 -0.060996 -0.077086
v 0.014234 -0.030996 -0.077086
v -0.015766 -0.030996 -0.077086
v -0.032764 -0.078106 -0.104664
v -0.002764 -0.078106 -0.104664
v -0.002764 -0.048106 -0.104664
v -0.032764 -0.048106 -0.104664
v -0.032764 -0.078106 -0.074664
v -0.002764 -0.078106 -0.074664
v -0.002764 -0.048106 -0.074664
v -0.032764 -0.048106 -0.074664
v -0.036679 -0.082577 -0.078825
v -0.006679 -0.082577 -0.078825
v -0.006679 -0.052577 -0.078825
v -0.036679 -0.052577 -0.078825
v -0.036679 -0.082577 -0.048825
v -0.006679 -0.082577 -0.048825
v -0.006679 -0.052577 -0.048825
v -0.036679 -0.052577 -0.048825
v -0.030363 -0.066198 -0.050453
v -0.000363 -0.066198 -0.050453
v -0.000363 -0.036198 -0.050453
v -0.030363 -0.036198 -0.050453
v -0.030363 -0.066198 -0.020453
v -0.000363 -0.066198 -0.020453
v -0.000363 -0.036198 -0.020453
v -0.030363 -0.036198 -0.020453
v -0.029530 -0.053693 -0.107072
v 0.000470 -0.053693 -0.107072
v 0.000470 -0.023693 -0.107072
v -0.029530 -0.023693 -0.107072
v -0.029530 -0.053693 -0.077072
v 0.000470 -0.053693 -0.077072
v 0.000470 -0.023693 -0.077072
v -0.029530 -0.023693 -0.077072
v -0.045946 -0.077166 -0.101263
v -0.015946 -0.077166 -0.101263
v -0.015946 -0.047166 -0.101263
v -0.045946 -0.047166 -0.101263
v -0.045946 -0.077166 -0.071263
v -0.015946 -0.077166 -0.071263
v -0.015946 -0.047166 -0.071263
v -0.045946 -0.047166 -0.071263
v -0.049035 -0.078495 -0.074512
v -0.019035 -0.078495 -0.074512
v -0.019035 -0.048495 -0.074512
v -0.049035 -0.048495 -0.074512
v -0.049035 -0.078495 -0.044512
v -0.019035 -0.078495 -0.044512
v -0.019035 -0.048495 -0.044512
v -0.049035 -0.048495 -0.044512
v -0.036683 -0.073754 -0.041706
v -0.006683 -0.073754 -0.041706
v -0.006683 -0.043754 -0.041706
v -0.036683 -0.043754 -0.041706
v -0.036683 -0.073754 -0.011706
v -0.006683 -0.073754 -0.011706
v -0.006683 -0.043754 -0.011706
v -0.036683 -0.043754 -0.011706
v -0.036759 -0.048469 -0.100331
v -0.006759 -0.048469 -0.100331
v -0.006759 -0.018469 -0.100331
v -0.036759 -0.018469 -0.100331
v -0.036759 -0.048469 -0.070331
v -0.006759 -0.048469 -0.070331
v -0.006759 -0.018469 -0.070331
v -0.036759 -0.018469 -0.070331
v -0.056849 -0.069409 -0.091461
v -0.026849 -0.069409 -0.091461
v -0.026849 -0.039409 -0.091461
v -0.056849 -0.039409 -0.091461
v -0.056849 -0.069409 -0.061461
v -0.026849 -0.069409 -0.061461
v -0.026849 -0.039409 -0.061461
v -0.056849 -0.039409 -0.061461
v -0.053509 -0.068085 -0.068466
v -0.023509 -0.068085 -0.068466
v -0.023509 -0.038085 -0.068466
v -0.053509 -0.038085 -0.068466
v -0.053509 -0.068085 -0.038466
v -0.023509 -0.068085 -0.038466
v -0.023509 -0.038085 -0.038466
v -0.053509 -0.038085 -0.038466
v -0.040320 -0.059918 -0.055776
v -0.010320 -0.059918 -0.055776
v -0.010320 -0.029918 -0.055776
v -0.040320 -0.029918 -0.055776
v -0.040320 -0.059918 -0.025776
v -0.010320 -0.059918 -0.025776
v -0.010320 -0.029918 -0.025776
v -0.040320 -0.029918 -0.025776
v -0.050387 -0.039107 -0.085933
v -0.020387 -0.039107 -0.085933
v -0.020387 -0.009107 -0.085933
v -0.050387 -0.009107 -0.085933
v -0.050387 -0.039107 -0.055933
v -0.020387 -0.039107 -0.055933
v -0.020387 -0.009107 -0.055933
v -0.050387 -0.009107 -0.055933
v -0.071243 -0.053098 -0.082633
v -0.041243 -0.053098 -0.082633
v -0.041243 -0.023098 -0.082633
v -0.071243 -0.023098 -0.082633
v -0.071243 -0.053098 -0.052633
v -0.041243 -0.053098 -0.052633
v -0.041243 -0.023098 -0.052633
v -0.071243 -0.023098 -0.052633
v -0.088653 -0.067397 -0.073982
v -0.058653 -0.067397 -0.073982
v -0.058653 -0.037397 -0.073982
v -0.088653 -0.037397 -0.073982
v -0.088653 -0.067397 -0.043982
v -0.058653 -0.067397 -0.043982
v -0.058653 -0.037397 -0.043982
v -0.088653 -0.037397 -0.043982
v -0.102574 -0.076734 -0.071409
v -0.072574 -0.076734 -0.071409
v -0.072574 -0.046734 -0.071409
v -0.102574 -0.046734 -0.071409
v -0.102574 -0.076734 -0.041409
v -0.072574 -0.076734 -0.041409
v -0.072574 -0.046734 -0.041409
v -0.102574 -0.046734 -0.041409
f 1 2 9
f 2 10 9
f 2 3 10
f 3 11 10
f 3 4 11
f 4 12 11
f 4 5 12
f 5 13 12
f 5 6 13
f 6 14 13
f 6 7 14
f 7 15 14
f 7 8 15
f 8 16 15
f 8 1 16
f 1 9 16
f 17 18 25
f 18 26 25
f 18 19 26
f 19 27 26
f 19 20 27
f 20 28 27
f 20 21 28
f 21 29 28
f 21 22 29
f 22 30 29
f 22 23 30
f 23 31 30
f 23 24 31
f 24 32 31
f 24 17 32
f 17 25 32
f 33 34 41
f 34 42 41
f 34 35 42
f 35 43 42
f 35 36 43
f 36 44 43
f 36 37 44
f 37 45 44
f 37 38 45
f 38 46 45
f 38 39 46
f 39 47 46
f 39 40 47
f 40 48 47
f 40 33 48
f 33 41 48
f 49 50 57
f 50 58 57
f 50 51 58
f 51 59 58
f 51 52 59
f 52 60 59
f 52 53 60
f 53 61 60
f 53 54 61
f 54 62 61
f 54 55 62
f 55 63 62
f 55 56 63
f 56 64 63
f 56 49 64
f 49 57 64
f 65 66 73
f 66 74 73
f 66 67 74
f 67 75 74
f 67 68 75
f 68 76 75
f 68 69 76
f 69 77 76
f 69 70 77
f 70 78 77
f 70 71 78
f 71 79 78
f 71 72 79
f 72 80 79
f 72 65 80
f 65 73 80
f 81 82 89
f 82 90 89
f 82 83 90
f 83 91 90
f 83 84 91
f 84 92 91
f 84 85 92
f 85 93 92
f 85 86 93
f 86 94 93
f 86 87 94
f 87 95 94
f 87 88 95
f 88 96 95
f 88 81 96
f 81 89 96
f 97 98 105
f 98 106 105
f 98 99 106
f 99 107 106
f 99 100 107
f 100 108 107
f 100 101 108
f 101 109 108
f 101 102 109
f 102 110 109
f 102 103 110
f 103 111 110
f 103 104 111
f 104 112 111
f 104 97 112
f 97 105 112
f 113 114 121
f 114 122 121
f 114 115 122
f 115 123 122
f 115 116 123
f 116 124 123
f 116 117 124
f 117 125 124
f 117 118 125
f 118 126 125
f 118 119 126
f 119 127 126
f 119 120 127
f 120 128 127
f 120 113 128
f 113 121 128
f 129 130 137
f 130 138 137
f 130 131 138
f 131 139 138
f 131 132 139
f 132 140 139
f 132 133 140
f 133 141 140
f 133 134 141
f 134 142 141
f 134 135 142
f 135 143 142
f 135 136 143
f 136 144 143
f 136 129 144
f 129 137 144
f 145 146 153
f 146 154 153
f 146 147 154
f 147 155 154
f 147 148 155
f 148 156 155
f 148 149 156
f 149 157 156
f 149 150 157
f 150 158 157
f 150 151 158
f 151 159 158
f 151 152 159
f 152 160 159
f 152 145 160
f 145 153 160
f 161 162 169
f 162 170 169
f 162 163 170
f 163 171 170
f 163 164 171
f 164 172 171
f 164 165 172
f 165 173 172
f 165 166 173
f 166 174 173
f 166 167 174
f 167 175 174
f 167 168 175
f 168 176 175
f 168 161 176
f 161 169 176
f 177 178 185
f 178 186 185
f 178 179 186
f 179 187 186
f 179 180 187
f 180 188 187
f 180 181 188
f 181 189 188
f 181 182 189
f 182 190 189
f 182 183 190
f 183 191 190
f 183 184 191
f 184 192 191
f 184 177 192
f 177 185 192
f 193 194 201
f 194 202 201
f 194 195 202
f 195 203 202
f 195 196 203
f 196 204 203
f 196 197 204
f 197 205 204
f 197 198 205
f 198 206 205
f 198 199 206
f 199 207 206
f 199 200 207
f 200 208 207
f 200 193 208
f 193 201 208
f 209 210 217
f 210 218 217
f 210 211 218
f 211 219 218
f 211 212 219
f 212 220 219
f 212 213 220
f 213 221 220
f 213 214 221
f 214 222 221
f 214 215 222
f 215 223 222
f 215 216 223
f 216 224 223
f 216 209 224
f 209 217 224
f 225 226 233
f 226 234 233
f 226 227 234
f 227 235 234
f 227 228 235
f 228 236 235
f 228 229 236
f 229 237 236
f 229 230 237
f 230 238 237
f 230 231 238
f 231 239 238
f 231 232 239
f 232 240 239
f 232 225 240
f 225 233 240
f 241 242 249
f 242 250 249
f 242 243 250
f 243 251 250
f 243 244 251
f 244 252 251
f 244 245 252
f 245 253 252
f 245 246 253
f 246 254 253
f 246 247 254
f 247 255 254
f 247 248 255
f 248 256 255
f 248 241 256
f 241 249 256
f 257 258 265
f 258 266 265
f 258 259 266
f 259 267 266
f 259 260 267
f 260 268 267
f 260 261 268
f 261 269 268
f 261 262 269
f 262 270 269
f 262 263 270
f 263 271 270
f 263 264 271
f 264 272 271
f 264 257 272
f 257 265 272
f 273 274 281
f 274 282 281
f 274 275 282
f 275 283 282
f 275 276 283
f 276 284 283
f 276 277 284
f 277 285 284
f 277 278 285
f 278 286 285
f 278 279 286
f 279 287 286
f 279 280 287
f 280 288 287
f 280 273 288
f 273 281 288
f 289 290 297
f 290 298 297
f 290 291 298
f 291 299 298
f 291 292 299
f 292 300 299
f 292 293 300
f 293 301 300
f 293 294 301
f 294 302 301
f 294 295 302
f 295 303 302
f 295 296 303
f 296 304 303
f 296 289 304
f 289 297 304
f 305 306 313
f 306 314 313
f 306 307 314
f 307 315 314
f 307 308 315
f 308 316 315
f 308 309 316
f 309 317 316
f 309 310 317
f 310 318 317
f 310 311 318
f 311 319 318
f 311 312 319
f 312 320 319
f 312 305 320
f 305 313 320
f 321 322 323
f 321 323 324
f 325 326 327
f 325 327 328
f 321 325 326
f 321 326 322
f 322 326 327
f 322 327 323
f 323 327 328
f 323 328 324
f 324 328 325
f 324 325 321
f 329 330 331
f 329 331 332
f 333 334 335
f 333 335 336
f 329 333 334
f 329 334 330
f 330 334 335
f 330 335 331
f 331 335 336
f 331 336 332
f 332 336 333
f 332 333 329
f 337 338 339
f 337 339 340
f 341 342 343
f 341 343 344
f 337 341 342
f 337 342 338
f 338 342 343
f 338 343 339
f 339 343 344
f 339 344 340
f 340 344 341
f 340 341 337
f 345 346 347
f 345 347 348
f 349 350 351
f 349 351 352
f 345 349 350
f 345 350 346
f 346 350 351
f 346 351 347
f 347 351 352
f 347 352 348
f 348 352 349
f 348 349 345
f 353 354 355
f 353 355 356
f 357 358 359
f 357 359 360
f 353 357 358
f 353 358 354
f 354 358 359
f 354 359 355
f 355 359 360
f 355 360 356
f 356 360 357
f 356 357 353
f 361 362 363
f 361 363 364
f 365 366 367
f 365 367 368
f 361 365 366
f 361 366 362
f 362 366 367
f 362 367 363
f 363 367 368
f 363 368 364
f 364 368 365
f 364 365 361
f 369 370 371
f 369 371 372
f 373 374 375
f 373 375 376
f 369 373 374
f 369 374 370
f 370 374 375
f 370 375 371
f 371 375 376
f 371 376 372
f 372 376 373
f 372 373 369
f 377 378 379
f 377 379 380
f 381 382 383
f 381 383 384
f 377 381 382
f 377 382 378
f 378 382 383
f 378 383 379
f 379 383 384
f 379 384 380
f 380 384 381
f 380 381 377
f 385 386 387
f 385 387 388
f 389 390 391
f 389 391 392
f 385 389 390
f 385 390 386
f 386 390 391
f 386 391 387
f 387 391 392
f 387 392 388
f 388 392 389
f 388 389 385
f 393 394 395
f 393 395 396
f 397 398 399
f 397 399 400
f 393 397 398
f 393 398 394
f 394 398 399
f 394 399 395
f 395 399 400
f 395 400 396
f 396 400 397
f 396 397 393
f 401 402 403
f 401 403 404
f 405 406 407
f 405 407 408
f 401 405 406
f 401 406 402
f 402 406 407
f 402 407 403
f 403 407 408
f 403 408 404
f 404 408 405
f 404 405 401
f 409 410 411
f 409 411 412
f 413 414 415
f 413 415 416
f 409 413 414
f 409 414 410
f 410 414 415
f 410 415 411
f 411 415 416
f 411 416 412
f 412 416 413
f 412 413 409
f 417 418 419
f 417 419 420
f 421 422 423
f 421 423 424
f 417 421 422
f 417 422 418
f 418 422 423
f 418 423 419
f 419 423 424
f 419 424 420
f 420 424 421
f 420 421 417
f 425 426 427
f 425 427 428
f 429 430 431
f 429 431 432
f 425 429 430
f 425 430 426
f 426 430 431
f 426 431 427
f 427 431 432
f 427 432 428
f 428 432 429
f 428 429 425
f 433 434 435
f 433 435 436
f 437 438 439
f 437 439 440
f 433 437 438
f 433 438 434
f 434 438 439
f 434 439 435
f 435 439 440
f 435 440 436
f 436 440 437
f 436 437 433
f 441 442 443
f 441 443 444
f 445 446 447
f 445 447 448
f 441 445 446
f 441 446 442
f 442 446 447
f 442 447 443
f 443 447 448
f 443 448 444
f 444 448 445
f 444 445 441
f 449 450 451
f 449 451 452
f 453 454 455
f 453 455 456
f 449 453 454
f 449 454 450
f 450 454 455
f 450 455 451
f 451 455 456
f 451 456 452
f 452 456 453
f 452 453 449
f 457 458 459
f 457 459 460
f 461 462 463
f 461 463 464
f 457 461 462
f 457 462 458
f 458 462 463
f 458 463 459
f 459 463 464
f 459 464 460
f 460 464 461
f 460 461 457
f 465 466 467
f 465 467 468
f 469 470 471
f 469 471 472
f 465 469 470
f 465 470 466
f 466 470 471
f 466 471 467
f 467 471 472
f 467 472 468
f 468 472 469
f 468 469 465
f 473 474 475
f 473 475 476
f 477 478 479
f 477 479 480
f 473 477 478
f 473 478 474
f 474 478 479
f 474 479 475
f 475 479 480
f 475 480 476
f 476 480 477
f 476 477 473
f 481 482 483
f 481 483 484
f 485 486 487
f 485 487 488
f 481 485 486
f 481 486 482
f 482 486 487
f 482 487 483
f 483 487 488
f 483 488 484
f 484 488 485
f 484 485 481
f 489 490 497
f 490 498 497
f 490 491 498
f 491 499 498
f 491 492 499
f 492 500 499
f 492 493 500
f 493 501 500
f 493 494 501
f 494 502 501
f 494 495 502
f 495 503 502
f 495 496 503
f 496 504 503
f 496 489 504
f 489 497 504
f 505 506 513
f 506 514 513
f 506 507 514
f 507 515 514
f 507 508 515
f 508 516 515
f 508 509 516
f 509 517 516
f 509 510 517
f 510 518 517
f 510 511 518
f 511 519 518
f 511 512 519
f 512 520 519
f 512 505 520
f 505 513 520
f 521 522 529
f 522 530 529
f 522 523 530
f 523 531 530
f 523 524 531
f 524 532 531
f 524 525 532
f 525 533 532
f 525 526 533
f 526 534 533
f 526 527 534
f 527 535 534
f 527 528 535
f 528 536 535
f 528 521 536
f 521 529 536
f 537 538 545
f 538 546 545
f 538 539 546
f 539 547 546
f 539 540 547
f 540 548 547
f 540 541 548
f 541 549 548
f 541 542 549
f 542 550 549
f 542 543 550
f 543 551 550
f 543 544 551
f 544 552 551
f 544 537 552
f 537 545 552
f 553 554 561
f 554 562 561
f 554 555 562
f 555 563 562
f 555 556 563
f 556 564 563
f 556 557 564
f 557 565 564
f 557 558 565
f 558 566 565
f 558 559 566
f 559 567 566
f 559 560 567
f 560 568 567
f 560 553 568
f 553 561 568
f 569 570 577
f 570 578 577
f 570 571 578
f 571 579 578
f 571 572 579
f 572 580 579
f 572 573 580
f 573 581 580
f 573 574 581
f 574 582 581
f 574 575 582
f 575 583 582
f 575 576 583
f 576 584 583
f 576 569 584
f 569 577 584
f 585 586 593
f 586 594 593
f 586 587 594
f 587 595 594
f 587 588 595
f 588 596 595
f 588 589 596
f 589 597 596
f 589 590 597
f 590 598 597
f 590 591 598
f 591 599 598
f 591 592 599
f 592 600 599
f 592 585 600
f 585 593 600
f 601 602 609
f 602 610 609
f 602 603 610
f 603 611 610
f 603 604 611
f 604 612 611
f 604 605 612
f 605 613 612
f 605 606 613
f 606 614 613
f 606 607 614
f 607 615 614
f 607 608 615
f 608 616 615
f 608 601 616
f 601 609 616
f 617 618 625
f 618 626 625
f 618 619 626
f 619 627 626
f 619 620 627
f 620 628 627
f 620 621 628
f 621 629 628
f 621 622 629
f 622 630 629
f 622 623 630
f 623 631 630
f 623 624 631
f 624 632 631
f 624 617 632
f 617 625 632
f 633 634 641
f 634 642 641
f 634 635 642
f 635 643 642
f 635 636 643
f 636 644 643
f 636 637 644
f 637 645 644
f 637 638 645
f 638 646 645
f 638 639 646
f 639 647 646
f 639 640 647
f 640 648 647
f 640 633 648
f 633 641 648
f 649 650 657
f 650 658 657
f 650 651 658
f 651 659 658
f 651 652 659
f 652 660 659
f 652 653 660
f 653 661 660
f 653 654 661
f 654 662 661
f 654 655 662
f 655 663 662
f 655 656 663
f 656 664 663
f 656 649 664
f 649 657 664
f 665 666 673
f 666 674 673
f 666 667 674
f 667 675 674
f 667 668 675
f 668 676 675
f 668 669 676
f 669 677 676
f 669 670 677
f 670 678 677
f 670 671 678
f 671 679 678
f 671 672 679
f 672 680 679
f 672 665 680
f 665 673 680
f 681 682 689
f 682 690 689
f 682 683 690
f 683 691 690
f 683 684 691
f 684 692 691
f 684 685 692
f 685 693 692
f 685 686 693
f 686 694 693
f 686 687 694
f 687 695 694
f 687 688 695
f 688 696 695
f 688 681 696
f 681 689 696
f 697 698 705
f 698 706 705
f 698 699 706
f 699 707 706
f 699 700 707
f 700 708 707
f 700 701 708
f 701 709 708
f 701 702 709
f 702 710 709
f 702 703 710
f 703 711 710
f 703 704 711
f 704 712 711
f 704 697 712
f 697 705 712
f 713 714 721
f 714 722 721
f 714 715 722
f 715 723 722
f 715 716 723
f 716 724 723
f 716 717 724
f 717 725 724
f 717 718 725
f 718 726 725
f 718 719 726
f 719 727 726
f 719 720 727
f 720 728 727
f 720 713 728
f 713 721 728
f 729 730 737
f 730 738 737
f 730 731 738
f 731 739 738
f 731 732 739
f 732 740 739
f 732 733 740
f 733 741 740
f 733 734 741
f 734 742 741
f 734 735 742
f 735 743 742
f 735 736 743
f 736 744 743
f 736 729 744
f 729 737 744
f 745 746 753
f 746 754 753
f 746 747 754
f 747 755 754
f 747 748 755
f 748 756 755
f 748 749 756
f 749 757 756
f 749 750 757
f 750 758 757
f 750 751 758
f 751 759 758
f 751 752 759
f 752 760 759
f 752 745 760
f 745 753 760
f 761 762 769
f 762 770 769
f 762 763 770
f 763 771 770
f 763 764 771
f 764 772 771
f 764 765 772
f 765 773 772
f 765 766 773
f 766 774 773
f 766 767 774
f 767 775 774
f 767 768 775
f 768 776 775
f 768 761 776
f 761 769 776
f 777 778 785
f 778 786 785
f 778 779 786
f 779 787 786
f 779 780 787
f 780 788 787
f 780 781 788
f 781 789 788
f 781 782 789
f 782 790 789
f 782 783 790
f 783 791 790
f 783 784 791
f 784 792 791
f 784 777 792
f 777 785 792
f 793 794 801
f 794 802 801
f 794 795 802
f 795 803 802
f 795 796 803
f 796 804 803
f 796 797 804
f 797 805 804
f 797 798 805
f 798 806 805
f 798 799 806
f 799 807 806
f 799 800 807
f 800 808 807
f 800 793 808
f 793 801 808
f 809 810 811
f 809 811 812
f 813 814 815
f 813 815 816
f 809 813 814
f 809 814 810
f 810 814 815
f 810 815 811
f 811 815 816
f 811 816 812
f 812 816 813
f 812 813 809
f 817 818 819
f 817 819 820
f 821 822 823
f 821 823 824
f 817 821 822
f 817 822 818
f 818 822 823
f 818 823 819
f 819 823 824
f 819 824 820
f 820 824 821
f 820 821 817
f 825 826 827
f 825 827 828
f 829 830 831
f 829 831 832
f 825 829 830
f 825 830 826
f 826 830 831
f 826 831 827
f 827 831 832
f 827 832 828
f 828 832 829
f 828 829 825
f 833 834 835
f 833 835 836
f 837 838 839
f 837 839 840
f 833 837 838
f 833 838 834
f 834 838 839
f 834 839 835
f 835 839 840
f 835 840 836
f 836 840 837
f 836 837 833
f 841 842 843
f 841 843 844
f 845 846 847
f 845 847 848
f 841 845 846
f 841 846 842
f 842 846 847
f 842 847 843
f 843 847 848
f 843 848 844
f 844 848 845
f 844 845 841
f 849 850 851
f 849 851 852
f 853 854 855
f 853 855 856
f 849 853 854
f 849 854 850
f 850 854 855
f 850 855 851
f 851 855 856
f 851 856 852
f 852 856 853
f 852 853 849
f 857 858 859
f 857 859 860
f 861 862 863
f 861 863 864
f 857 861 862
f 857 862 858
f 858 862 863
f 858 863 859
f 859 863 864
f 859 864 860
f 860 864 861
f 860 861 857
f 865 866 867
f 865 867 868
f 869 870 871
f 869 871 872
f 865 869 870
f 865 870 866
f 866 870 871
f 866 871 867
f 867 871 872
f 867 872 868
f 868 872 869
f 868 869 865
f 873 874 875
f 873 875 876
f 877 878 879
f 877 879 880
f 873 877 878
f 873 878 874
f 874 878 879
f 874 879 875
f 875 879 880
f 875 880 876
f 876 880 877
f 876 877 873
f 881 882 883
f 881 883 884
f 885 886 887
f 885 887 888
f 881 885 886
f 881 886 882
f 882 886 887
f 882 887 883
f 883 887 888
f 883 888 884
f 884 888 885
f 884 885 881
f 889 890 891
f 889 891 892
f 893 894 895
f 893 895 896
f 889 893 894
f 889 894 890
f 890 894 895
f 890 895 891
f 891 895 896
f 891 896 892
f 892 896 893
f 892 893 889
f 897 898 899
f 897 899 900
f 901 902 903
f 901 903 904
f 897 901 902
f 897 902 898
f 898 902 903
f 898 903 899
f 899 903 904
f 899 904 900
f 900 904 901
f 900 901 897
f 905 906 907
f 905 907 908
f 909 910 911
f 909 911 912
f 905 909 910
f 905 910 906
f 906 910 911
f 906 911 907
f 907 911 912
f 907 912 908
f 908 912 909
f 908 909 905
f 913 914 915
f 913 915 916
f 917 918 919
f 917 919 920
f 913 917 918
f 913 918 914
f 914 918 919
f 914 919 915
f 915 919 920
f 915 920 916
f 916 920 917
f 916 917 913
f 921 922 923
f 921 923 924
f 925 926 927
f 925 927 928
f 921 925 926
f 921 926 922
f 922 926 927
f 922 927 923
f 923 927 928
f 923 928 924
f 924 928 925
f 924 925 921
f 929 930 931
f 929 931 932
f 933 934 935
f 933 935 936
f 929 933 934
f 929 934 930
f 930 934 935
f 930 935 931
f 931 935 936
f 931 936 932
f 932 936 933
f 932 933 929
f 937 938 939
f 937 939 940
f 941 942 943
f 941 943 944
f 937 941 942
f 937 942 938
f 938 942 943
f 938 943 939
f 939 943 944
f 939 944 940
f 940 944 941
f 940 941 937
f 945 946 947
f 945 947 948
f 949 950 951
f 949 951 952
f 945 949 950
f 945 950 946
f 946 950 951
f 946 951 947
f 947 951 952
f 947 952 948
f 948 952 949
f 948 949 945
f 953 954 955
f 953 955 956
f 957 958 959
f 957 959 960
f 953 957 958
f 953 958 954
f 954 958 959
f 954 959 955
f 955 959 960
f 955 960 956
f 956 960 957
f 956 957 953
f 961 962 963
f 961 963 964
f 965 966 967
f 965 967 968
f 961 965 966
f 961 966 962
f 962 966 967
f 962 967 963
f 963 967 968
f 963 968 964
f 964 968 965
f 964 965 961
f 969 970 971
f 969 971 972
f 973 974 975
f 973 975 976
f 969 973 974
f 969 974 970
f 970 974 975
f 970 975 971
f 971 975 976
f 971 976 972
f 972 976 973
f 972 973 969
