# SignFlow 3D Hand Mesh - Frame 289
v 0.000000 0.013171 0.015051
v -0.009857 0.001682 0.017321
v -0.013940 -0.010792 0.009444
v -0.009857 -0.016945 -0.003964
v -0.000000 -0.013171 -0.015051
v 0.009857 -0.001682 -0.017321
v 0.013940 0.010792 -0.009444
v 0.009857 0.016945 0.003964
v 0.027418 -0.006885 0.032602
v 0.017561 -0.018374 0.034872
v 0.013478 -0.030849 0.026996
v 0.017561 -0.037001 0.013587
v 0.027418 -0.033227 0.002501
v 0.037275 -0.021739 0.000231
v 0.041358 -0.009264 0.008107
v 0.037275 -0.003112 0.021516
v 0.027418 -0.008149 0.033621
v 0.017449 -0.019696 0.034886
v 0.013320 -0.031454 0.025997
v 0.017449 -0.036535 0.012161
v 0.027418 -0.031964 0.001483
v 0.037387 -0.020417 0.000217
v 0.041516 -0.008659 0.009106
v 0.037387 -0.003577 0.022942
v 0.053539 -0.029008 0.049077
v 0.043570 -0.040555 0.050342
v 0.039441 -0.052312 0.041453
v 0.043570 -0.057394 0.027617
v 0.053539 -0.052822 0.016939
v 0.063508 -0.041275 0.015673
v 0.067638 -0.029517 0.024562
v 0.063508 -0.024436 0.038398
v 0.053539 -0.030131 0.049851
v 0.042398 -0.040625 0.049614
v 0.037782 -0.051288 0.039649
v 0.042398 -0.055875 0.025794
v 0.053539 -0.051699 0.016164
v 0.064681 -0.041205 0.016401
v 0.069296 -0.030541 0.026366
v 0.064681 -0.025954 0.040222
v 0.074528 -0.052743 0.064328
v 0.063386 -0.063237 0.064091
v 0.058771 -0.073900 0.054126
v 0.063386 -0.078487 0.040271
v 0.074528 -0.074311 0.030641
v 0.085670 -0.063817 0.030878
v 0.090285 -0.053153 0.040843
v 0.085670 -0.048566 0.054699
v 0.074528 -0.055459 0.065785
v 0.060521 -0.059604 0.061211
v 0.054719 -0.066047 0.048596
v 0.060521 -0.071013 0.035330
v 0.074528 -0.071594 0.029184
v 0.088535 -0.067450 0.033759
v 0.094338 -0.061007 0.046374
v 0.088535 -0.056040 0.059640
v 0.078322 -0.080432 0.076794
v 0.064315 -0.084577 0.072219
v 0.058513 -0.091019 0.059604
v 0.064315 -0.095986 0.046338
v 0.078322 -0.096567 0.040193
v 0.092329 -0.092422 0.044767
v 0.098132 -0.085979 0.057382
v 0.092329 -0.081013 0.070648
v 0.000000 0.008232 0.018227
v -0.013739 0.002766 0.014268
v -0.019430 -0.004320 0.001951
v -0.013739 -0.008876 -0.011509
v -0.000000 -0.008232 -0.018227
v 0.013739 -0.002766 -0.014268
v 0.019430 0.004320 -0.001951
v 0.013739 0.008876 0.011509
v 0.023441 -0.079333 0.057773
v 0.009702 -0.084799 0.053814
v 0.004011 -0.091885 0.041497
v 0.009702 -0.096441 0.028037
v 0.023441 -0.095797 0.021318
v 0.037180 -0.090331 0.025277
v 0.042871 -0.083245 0.037595
v 0.037180 -0.078689 0.051055
v 0.023441 -0.090994 0.059250
v 0.012792 -0.099157 0.051883
v 0.008381 -0.100530 0.037290
v 0.012792 -0.094309 0.024018
v 0.023441 -0.084137 0.019842
v 0.034090 -0.075973 0.027208
v 0.038501 -0.074600 0.041802
v 0.034090 -0.080821 0.055074
v 0.043228 -0.113302 0.055368
v 0.032579 -0.121466 0.048002
v 0.028168 -0.122839 0.033408
v 0.032579 -0.116617 0.020136
v 0.043228 -0.106445 0.015960
v 0.053877 -0.098281 0.023326
v 0.058288 -0.096908 0.037920
v 0.053877 -0.103130 0.051192
v 0.047183 -0.109874 0.055269
v 0.046570 -0.124005 0.049417
v 0.043999 -0.129858 0.035508
v 0.040977 -0.124005 0.021691
v 0.039273 -0.109874 0.016059
v 0.039886 -0.095742 0.021911
v 0.042457 -0.089889 0.035820
v 0.045479 -0.095742 0.049637
v 0.064408 -0.109182 0.051794
v 0.063795 -0.123313 0.045942
v 0.061225 -0.129166 0.032034
v 0.058203 -0.123313 0.018216
v 0.056499 -0.109182 0.012584
v 0.057112 -0.095051 0.018436
v 0.059682 -0.089197 0.032345
v 0.062705 -0.095051 0.046162
v 0.060454 -0.121190 0.016196
v 0.047235 -0.113654 0.017862
v 0.041759 -0.103498 0.027922
v 0.047235 -0.096671 0.040481
v 0.060454 -0.097173 0.048183
v 0.073673 -0.104710 0.046516
v 0.079148 -0.114866 0.036457
v 0.073673 -0.121692 0.023898
v 0.069593 -0.101968 0.001763
v 0.056374 -0.094432 0.003430
v 0.050898 -0.084276 0.013489
v 0.056374 -0.077450 0.026049
v 0.069593 -0.077951 0.033751
v 0.082812 -0.085488 0.032084
v 0.088287 -0.095644 0.022025
v 0.082812 -0.102470 0.009465
v 0.000000 0.004458 0.019497
v -0.014071 0.001771 0.014102
v -0.019899 -0.001954 0.000447
v -0.014071 -0.004534 -0.013470
v -0.000000 -0.004458 -0.019497
v 0.014071 -0.001771 -0.014102
v 0.019899 0.001954 -0.000447
v 0.014071 0.004534 0.013470
v 0.009761 -0.089999 0.041095
v -0.004310 -0.092687 0.035701
v -0.010138 -0.096411 0.022045
v -0.004310 -0.098991 0.008128
v 0.009761 -0.098915 0.002102
v 0.023832 -0.096228 0.007496
v 0.029660 -0.092503 0.021152
v 0.023832 -0.089923 0.035069
v 0.009761 -0.098850 0.041110
v -0.000048 -0.107502 0.033158
v -0.004111 -0.108512 0.018434
v -0.000048 -0.101289 0.005564
v 0.009761 -0.090064 0.002087
v 0.019571 -0.081412 0.010040
v 0.023634 -0.080402 0.024763
v 0.019571 -0.087625 0.037633
v 0.038035 -0.125412 0.035130
v 0.028226 -0.134063 0.027177
v 0.024163 -0.135073 0.012453
v 0.028226 -0.127850 -0.000416
v 0.038035 -0.116625 -0.003894
v 0.047845 -0.107974 0.004059
v 0.051908 -0.106964 0.018783
v 0.047845 -0.114187 0.031652
v 0.038035 -0.135521 0.001846
v 0.029080 -0.123735 -0.002058
v 0.025371 -0.110358 0.004393
v 0.029080 -0.103226 0.017420
v 0.038035 -0.106516 0.029390
v 0.046990 -0.118301 0.033294
v 0.050699 -0.131678 0.026843
v 0.046990 -0.138811 0.013816
v 0.058989 -0.123716 -0.010584
v 0.050034 -0.111931 -0.014488
v 0.046325 -0.098554 -0.008037
v 0.050034 -0.091422 0.004990
v 0.058989 -0.094712 0.016961
v 0.067943 -0.106497 0.020864
v 0.071653 -0.119874 0.014413
v 0.067943 -0.127006 0.001387
v 0.058989 -0.108754 -0.016807
v 0.046093 -0.103085 -0.010817
v 0.040752 -0.101005 0.003377
v 0.046093 -0.103735 0.017460
v 0.058989 -0.109674 0.023183
v 0.071884 -0.115343 0.017193
v 0.077225 -0.117422 0.002999
v 0.071884 -0.114693 -0.011084
v 0.067486 -0.089885 -0.016373
v 0.054590 -0.084216 -0.010383
v 0.049249 -0.082137 0.003811
v 0.054590 -0.084866 0.017894
v 0.067486 -0.090805 0.023617
v 0.080381 -0.096474 0.017627
v 0.085723 -0.098554 0.003433
v 0.080381 -0.095824 -0.010650
v 0.000000 -0.000496 0.019994
v -0.014125 -0.001052 0.014120
v -0.019975 -0.000992 -0.000025
v -0.014125 -0.000351 -0.014155
v -0.000000 0.000496 -0.019994
v 0.014125 0.001052 -0.014120
v 0.019975 0.000992 0.000025
v 0.014125 0.000351 0.014155
v 0.004625 -0.093554 0.017687
v -0.009500 -0.094110 0.011813
v -0.015350 -0.094050 -0.002332
v -0.009500 -0.093409 -0.016462
v 0.004625 -0.092563 -0.022301
v 0.018750 -0.092006 -0.016428
v 0.024600 -0.092066 -0.002283
v 0.018750 -0.092707 0.011848
v 0.004625 -0.099840 0.016508
v -0.004841 -0.107738 0.007435
v -0.008762 -0.107037 -0.007345
v -0.004841 -0.098148 -0.019174
v 0.004625 -0.086277 -0.021122
v 0.014091 -0.078378 -0.012049
v 0.018012 -0.079079 0.002731
v 0.014091 -0.087969 0.014560
v 0.030458 -0.121734 0.008617
v 0.020992 -0.129632 -0.000456
v 0.017071 -0.128931 -0.015236
v 0.020992 -0.120042 -0.027065
v 0.030458 -0.108171 -0.029013
v 0.039924 -0.100273 -0.019940
v 0.043844 -0.100973 -0.005160
v 0.039924 -0.109863 0.006669
v 0.030458 -0.121509 -0.029093
v 0.022462 -0.108568 -0.027383
v 0.019150 -0.099367 -0.015606
v 0.022462 -0.099296 -0.000662
v 0.030458 -0.108396 0.008697
v 0.038453 -0.121336 0.006987
v 0.041765 -0.130537 -0.004790
v 0.038453 -0.130609 -0.019735
v 0.052947 -0.106946 -0.034146
v 0.044951 -0.094005 -0.032436
v 0.041639 -0.084804 -0.020660
v 0.044951 -0.084733 -0.005715
v 0.052947 -0.093833 0.003643
v 0.060942 -0.106773 0.001933
v 0.064254 -0.115974 -0.009843
v 0.060942 -0.116046 -0.024788
v 0.052947 -0.097597 -0.035056
v 0.039844 -0.093144 -0.028512
v 0.034417 -0.092936 -0.014201
v 0.039844 -0.097093 -0.000505
v 0.052947 -0.103182 0.004553
v 0.066049 -0.107634 -0.001991
v 0.071476 -0.107843 -0.016303
v 0.066049 -0.103685 -0.029998
v 0.061426 -0.076929 -0.032141
v 0.048324 -0.072476 -0.025598
v 0.042897 -0.072268 -0.011286
v 0.048324 -0.076426 0.002409
v 0.061426 -0.082514 0.007467
v 0.074528 -0.086967 0.000923
v 0.079955 -0.087175 -0.013388
v 0.074528 -0.083018 -0.027084
v 0.000000 -0.005662 0.019182
v -0.014142 -0.003935 0.013584
v -0.020000 0.000097 0.000029
v -0.014142 0.004072 -0.013543
v -0.000000 0.005662 -0.019182
v 0.014142 0.003935 -0.013584
v 0.020000 -0.000097 -0.000029
v 0.014142 -0.004072 0.013543
v -0.000439 -0.088634 -0.005308
v -0.014581 -0.086907 -0.010906
v -0.020438 -0.082875 -0.024461
v -0.014581 -0.078900 -0.038033
v -0.000439 -0.077310 -0.043672
v 0.013703 -0.079037 -0.038074
v 0.019561 -0.083069 -0.024519
v 0.013703 -0.087044 -0.010947
v -0.000439 -0.084494 -0.004548
v -0.007765 -0.096110 -0.011309
v -0.010799 -0.100029 -0.025792
v -0.007765 -0.093957 -0.039512
v -0.000439 -0.081450 -0.044432
v 0.006888 -0.069834 -0.037671
v 0.009922 -0.065914 -0.023188
v 0.006888 -0.071987 -0.009468
v 0.021355 -0.097654 -0.005552
v 0.014028 -0.109270 -0.012314
v 0.010994 -0.113190 -0.026796
v 0.014028 -0.107118 -0.040516
v 0.021355 -0.094611 -0.045436
v 0.028681 -0.082995 -0.038675
v 0.031715 -0.079075 -0.024193
v 0.028681 -0.085147 -0.010473
v 0.022563 -0.096133 -0.005531
v 0.025508 -0.109883 -0.011578
v 0.026020 -0.115579 -0.025777
v 0.023799 -0.109883 -0.039810
v 0.020146 -0.096133 -0.045458
v 0.017201 -0.082382 -0.039411
v 0.016690 -0.076686 -0.025212
v 0.018911 -0.082382 -0.011178
v 0.045868 -0.090521 -0.006942
v 0.048813 -0.104272 -0.012989
v 0.049324 -0.109968 -0.027188
v 0.047104 -0.104272 -0.041221
v 0.043451 -0.090521 -0.046869
v 0.040506 -0.076771 -0.040822
v 0.039995 -0.071075 -0.026623
v 0.042215 -0.076771 -0.012589
v 0.044659 -0.088019 -0.046748
v 0.032466 -0.081644 -0.040040
v 0.027416 -0.080469 -0.025638
v 0.032466 -0.085183 -0.011978
v 0.044659 -0.093024 -0.007063
v 0.056853 -0.099399 -0.013771
v 0.061903 -0.100574 -0.028173
v 0.056853 -0.095860 -0.041833
v 0.053294 -0.073440 -0.044910
v 0.041101 -0.067065 -0.038201
v 0.036050 -0.065890 -0.023799
v 0.041101 -0.070604 -0.010139
v 0.053294 -0.078445 -0.005224
v 0.065487 -0.084820 -0.011932
v 0.070537 -0.085995 -0.026335
v 0.065487 -0.081281 -0.039994
v -0.015000 -0.015000 -0.015000
v 0.015000 -0.015000 -0.015000
v 0.015000 0.015000 -0.015000
v -0.015000 0.015000 -0.015000
v -0.015000 -0.015000 0.015000
v 0.015000 -0.015000 0.015000
v 0.015000 0.015000 0.015000
v -0.015000 0.015000 0.015000
v 0.012418 -0.035056 0.002552
v 0.042418 -0.035056 0.002552
v 0.042418 -0.005056 0.002552
v 0.012418 -0.005056 0.002552
v 0.012418 -0.035056 0.032552
v 0.042418 -0.035056 0.032552
v 0.042418 -0.005056 0.032552
v 0.012418 -0.005056 0.032552
v 0.038539 -0.055915 0.018008
v 0.068539 -0.055915 0.018008
v 0.068539 -0.025915 0.018008
v 0.038539 -0.025915 0.018008
v 0.038539 -0.055915 0.048008
v 0.068539 -0.055915 0.048008
v 0.068539 -0.025915 0.048008
v 0.038539 -0.025915 0.048008
v 0.059528 -0.078527 0.032485
v 0.089528 -0.078527 0.032485
v 0.089528 -0.048527 0.032485
v 0.059528 -0.048527 0.032485
v 0.059528 -0.078527 0.062485
v 0.089528 -0.078527 0.062485
v 0.089528 -0.048527 0.062485
v 0.059528 -0.048527 0.062485
v 0.063322 -0.103499 0.043493
v 0.093322 -0.103499 0.043493
v 0.093322 -0.073499 0.043493
v 0.063322 -0.073499 0.043493
v 0.063322 -0.103499 0.073493
v 0.093322 -0.103499 0.073493
v 0.093322 -0.073499 0.073493
v 0.063322 -0.073499 0.073493
v 0.008441 -0.102565 0.024546
v 0.038441 -0.102565 0.024546
v 0.038441 -0.072565 0.024546
v 0.008441 -0.072565 0.024546
v 0.008441 -0.102565 0.054546
v 0.038441 -0.102565 0.054546
v 0.038441 -0.072565 0.054546
v 0.008441 -0.072565 0.054546
v 0.028228 -0.124874 0.020664
v 0.058228 -0.124874 0.020664
v 0.058228 -0.094874 0.020664
v 0.028228 -0.094874 0.020664
v 0.028228 -0.124874 0.050664
v 0.058228 -0.124874 0.050664
v 0.058228 -0.094874 0.050664
v 0.028228 -0.094874 0.050664
v 0.045454 -0.124182 0.017189
v 0.075454 -0.124182 0.017189
v 0.075454 -0.094182 0.017189
v 0.045454 -0.094182 0.017189
v 0.045454 -0.124182 0.047189
v 0.075454 -0.124182 0.047189
v 0.075454 -0.094182 0.047189
v 0.045454 -0.094182 0.047189
v 0.054593 -0.104960 0.002757
v 0.084593 -0.104960 0.002757
v 0.084593 -0.074960 0.002757
v 0.054593 -0.074960 0.002757
v 0.054593 -0.104960 0.032757
v 0.084593 -0.104960 0.032757
v 0.084593 -0.074960 0.032757
v 0.054593 -0.074960 0.032757
v -0.005239 -0.109457 0.006599
v 0.024761 -0.109457 0.006599
v 0.024761 -0.079457 0.006599
v -0.005239 -0.079457 0.006599
v -0.005239 -0.109457 0.036599
v 0.024761 -0.109457 0.036599
v 0.024761 -0.079457 0.036599
v -0.005239 -0.079457 0.036599
v 0.023035 -0.136018 0.000618
v 0.053035 -0.136018 0.000618
v 0.053035 -0.106018 0.000618
v 0.023035 -0.106018 0.000618
v 0.023035 -0.136018 0.030618
v 0.053035 -0.136018 0.030618
v 0.053035 -0.106018 0.030618
v 0.023035 -0.106018 0.030618
v 0.043989 -0.124214 -0.011812
v 0.073989 -0.124214 -0.011812
v 0.073989 -0.094214 -0.011812
v 0.043989 -0.094214 -0.011812
v 0.043989 -0.124214 0.018188
v 0.073989 -0.124214 0.018188
v 0.073989 -0.094214 0.018188
v 0.043989 -0.094214 0.018188
v 0.052486 -0.105345 -0.011378
v 0.082486 -0.105345 -0.011378
v 0.082486 -0.075345 -0.011378
v 0.052486 -0.075345 -0.011378
v 0.052486 -0.105345 0.018622
v 0.082486 -0.105345 0.018622
v 0.082486 -0.075345 0.018622
v 0.052486 -0.075345 0.018622
v -0.010375 -0.108058 -0.017307
v 0.019625 -0.108058 -0.017307
v 0.019625 -0.078058 -0.017307
v -0.010375 -0.078058 -0.017307
v -0.010375 -0.108058 0.012693
v 0.019625 -0.108058 0.012693
v 0.019625 -0.078058 0.012693
v -0.010375 -0.078058 0.012693
v 0.015458 -0.129952 -0.025198
v 0.045458 -0.129952 -0.025198
v 0.045458 -0.099952 -0.025198
v 0.015458 -0.099952 -0.025198
v 0.015458 -0.129952 0.004802
v 0.045458 -0.129952 0.004802
v 0.045458 -0.099952 0.004802
v 0.015458 -0.099952 0.004802
v 0.037947 -0.115389 -0.030252
v 0.067947 -0.115389 -0.030252
v 0.067947 -0.085389 -0.030252
v 0.037947 -0.085389 -0.030252
v 0.037947 -0.115389 -0.000252
v 0.067947 -0.115389 -0.000252
v 0.067947 -0.085389 -0.000252
v 0.037947 -0.085389 -0.000252
v 0.046426 -0.094722 -0.027337
v 0.076426 -0.094722 -0.027337
v 0.076426 -0.064722 -0.027337
v 0.046426 -0.064722 -0.027337
v 0.046426 -0.094722 0.002663
v 0.076426 -0.094722 0.002663
v 0.076426 -0.064722 0.002663
v 0.046426 -0.064722 0.002663
v -0.015439 -0.097972 -0.039490
v 0.014561 -0.097972 -0.039490
v 0.014561 -0.067972 -0.039490
v -0.015439 -0.067972 -0.039490
v -0.015439 -0.097972 -0.009490
v 0.014561 -0.097972 -0.009490
v 0.014561 -0.067972 -0.009490
v -0.015439 -0.067972 -0.009490
v 0.006355 -0.111133 -0.040494
v 0.036355 -0.111133 -0.040494
v 0.036355 -0.081133 -0.040494
v 0.006355 -0.081133 -0.040494
v 0.006355 -0.111133 -0.010494
v 0.036355 -0.111133 -0.010494
v 0.036355 -0.081133 -0.010494
v 0.006355 -0.081133 -0.010494
v 0.029659 -0.105521 -0.041905
v 0.059659 -0.105521 -0.041905
v 0.059659 -0.075521 -0.041905
v 0.029659 -0.075521 -0.041905
v 0.029659 -0.105521 -0.011905
v 0.059659 -0.105521 -0.011905
v 0.059659 -0.075521 -0.011905
v 0.029659 -0.075521 -0.011905
v 0.038294 -0.090942 -0.040067
v 0.068294 -0.090942 -0.040067
v 0.068294 -0.060942 -0.040067
v 0.038294 -0.060942 -0.040067
v 0.038294 -0.090942 -0.010067
v 0.068294 -0.090942 -0.010067
v 0.068294 -0.060942 -0.010067
v 0.038294 -0.060942 -0.010067
f 1 2 9
f 2 10 9
f 2 3 10
f 3 11 10
f 3 4 11
f 4 12 11
f 4 5 12
f 5 13 12
f 5 6 13
f 6 14 13
f 6 7 14
f 7 15 14
f 7 8 15
f 8 16 15
f 8 1 16
f 1 9 16
f 17 18 25
f 18 26 25
f 18 19 26
f 19 27 26
f 19 20 27
f 20 28 27
f 20 21 28
f 21 29 28
f 21 22 29
f 22 30 29
f 22 23 30
f 23 31 30
f 23 24 31
f 24 32 31
f 24 17 32
f 17 25 32
f 33 34 41
f 34 42 41
f 34 35 42
f 35 43 42
f 35 36 43
f 36 44 43
f 36 37 44
f 37 45 44
f 37 38 45
f 38 46 45
f 38 39 46
f 39 47 46
f 39 40 47
f 40 48 47
f 40 33 48
f 33 41 48
f 49 50 57
f 50 58 57
f 50 51 58
f 51 59 58
f 51 52 59
f 52 60 59
f 52 53 60
f 53 61 60
f 53 54 61
f 54 62 61
f 54 55 62
f 55 63 62
f 55 56 63
f 56 64 63
f 56 49 64
f 49 57 64
f 65 66 73
f 66 74 73
f 66 67 74
f 67 75 74
f 67 68 75
f 68 76 75
f 68 69 76
f 69 77 76
f 69 70 77
f 70 78 77
f 70 71 78
f 71 79 78
f 71 72 79
f 72 80 79
f 72 65 80
f 65 73 80
f 81 82 89
f 82 90 89
f 82 83 90
f 83 91 90
f 83 84 91
f 84 92 91
f 84 85 92
f 85 93 92
f 85 86 93
f 86 94 93
f 86 87 94
f 87 95 94
f 87 88 95
f 88 96 95
f 88 81 96
f 81 89 96
f 97 98 105
f 98 106 105
f 98 99 106
f 99 107 106
f 99 100 107
f 100 108 107
f 100 101 108
f 101 109 108
f 101 102 109
f 102 110 109
f 102 103 110
f 103 111 110
f 103 104 111
f 104 112 111
f 104 97 112
f 97 105 112
f 113 114 121
f 114 122 121
f 114 115 122
f 115 123 122
f 115 116 123
f 116 124 123
f 116 117 124
f 117 125 124
f 117 118 125
f 118 126 125
f 118 119 126
f 119 127 126
f 119 120 127
f 120 128 127
f 120 113 128
f 113 121 128
f 129 130 137
f 130 138 137
f 130 131 138
f 131 139 138
f 131 132 139
f 132 140 139
f 132 133 140
f 133 141 140
f 133 134 141
f 134 142 141
f 134 135 142
f 135 143 142
f 135 136 143
f 136 144 143
f 136 129 144
f 129 137 144
f 145 146 153
f 146 154 153
f 146 147 154
f 147 155 154
f 147 148 155
f 148 156 155
f 148 149 156
f 149 157 156
f 149 150 157
f 150 158 157
f 150 151 158
f 151 159 158
f 151 152 159
f 152 160 159
f 152 145 160
f 145 153 160
f 161 162 169
f 162 170 169
f 162 163 170
f 163 171 170
f 163 164 171
f 164 172 171
f 164 165 172
f 165 173 172
f 165 166 173
f 166 174 173
f 166 167 174
f 167 175 174
f 167 168 175
f 168 176 175
f 168 161 176
f 161 169 176
f 177 178 185
f 178 186 185
f 178 179 186
f 179 187 186
f 179 180 187
f 180 188 187
f 180 181 188
f 181 189 188
f 181 182 189
f 182 190 189
f 182 183 190
f 183 191 190
f 183 184 191
f 184 192 191
f 184 177 192
f 177 185 192
f 193 194 201
f 194 202 201
f 194 195 202
f 195 203 202
f 195 196 203
f 196 204 203
f 196 197 204
f 197 205 204
f 197 198 205
f 198 206 205
f 198 199 206
f 199 207 206
f 199 200 207
f 200 208 207
f 200 193 208
f 193 201 208
f 209 210 217
f 210 218 217
f 210 211 218
f 211 219 218
f 211 212 219
f 212 220 219
f 212 213 220
f 213 221 220
f 213 214 221
f 214 222 221
f 214 215 222
f 215 223 222
f 215 216 223
f 216 224 223
f 216 209 224
f 209 217 224
f 225 226 233
f 226 234 233
f 226 227 234
f 227 235 234
f 227 228 235
f 228 236 235
f 228 229 236
f 229 237 236
f 229 230 237
f 230 238 237
f 230 231 238
f 231 239 238
f 231 232 239
f 232 240 239
f 232 225 240
f 225 233 240
f 241 242 249
f 242 250 249
f 242 243 250
f 243 251 250
f 243 244 251
f 244 252 251
f 244 245 252
f 245 253 252
f 245 246 253
f 246 254 253
f 246 247 254
f 247 255 254
f 247 248 255
f 248 256 255
f 248 241 256
f 241 249 256
f 257 258 265
f 258 266 265
f 258 259 266
f 259 267 266
f 259 260 267
f 260 268 267
f 260 261 268
f 261 269 268
f 261 262 269
f 262 270 269
f 262 263 270
f 263 271 270
f 263 264 271
f 264 272 271
f 264 257 272
f 257 265 272
f 273 274 281
f 274 282 281
f 274 275 282
f 275 283 282
f 275 276 283
f 276 284 283
f 276 277 284
f 277 285 284
f 277 278 285
f 278 286 285
f 278 279 286
f 279 287 286
f 279 280 287
f 280 288 287
f 280 273 288
f 273 281 288
f 289 290 297
f 290 298 297
f 290 291 298
f 291 299 298
f 291 292 299
f 292 300 299
f 292 293 300
f 293 301 300
f 293 294 301
f 294 302 301
f 294 295 302
f 295 303 302
f 295 296 303
f 296 304 303
f 296 289 304
f 289 297 304
f 305 306 313
f 306 314 313
f 306 307 314
f 307 315 314
f 307 308 315
f 308 316 315
f 308 309 316
f 309 317 316
f 309 310 317
f 310 318 317
f 310 311 318
f 311 319 318
f 311 312 319
f 312 320 319
f 312 305 320
f 305 313 320
f 321 322 323
f 321 323 324
f 325 326 327
f 325 327 328
f 321 325 326
f 321 326 322
f 322 326 327
f 322 327 323
f 323 327 328
f 323 328 324
f 324 328 325
f 324 325 321
f 329 330 331
f 329 331 332
f 333 334 335
f 333 335 336
f 329 333 334
f 329 334 330
f 330 334 335
f 330 335 331
f 331 335 336
f 331 336 332
f 332 336 333
f 332 333 329
f 337 338 339
f 337 339 340
f 341 342 343
f 341 343 344
f 337 341 342
f 337 342 338
f 338 342 343
f 338 343 339
f 339 343 344
f 339 344 340
f 340 344 341
f 340 341 337
f 345 346 347
f 345 347 348
f 349 350 351
f 349 351 352
f 345 349 350
f 345 350 346
f 346 350 351
f 346 351 347
f 347 351 352
f 347 352 348
f 348 352 349
f 348 349 345
f 353 354 355
f 353 355 356
f 357 358 359
f 357 359 360
f 353 357 358
f 353 358 354
f 354 358 359
f 354 359 355
f 355 359 360
f 355 360 356
f 356 360 357
f 356 357 353
f 361 362 363
f 361 363 364
f 365 366 367
f 365 367 368
f 361 365 366
f 361 366 362
f 362 366 367
f 362 367 363
f 363 367 368
f 363 368 364
f 364 368 365
f 364 365 361
f 369 370 371
f 369 371 372
f 373 374 375
f 373 375 376
f 369 373 374
f 369 374 370
f 370 374 375
f 370 375 371
f 371 375 376
f 371 376 372
f 372 376 373
f 372 373 369
f 377 378 379
f 377 379 380
f 381 382 383
f 381 383 384
f 377 381 382
f 377 382 378
f 378 382 383
f 378 383 379
f 379 383 384
f 379 384 380
f 380 384 381
f 380 381 377
f 385 386 387
f 385 387 388
f 389 390 391
f 389 391 392
f 385 389 390
f 385 390 386
f 386 390 391
f 386 391 387
f 387 391 392
f 387 392 388
f 388 392 389
f 388 389 385
f 393 394 395
f 393 395 396
f 397 398 399
f 397 399 400
f 393 397 398
f 393 398 394
f 394 398 399
f 394 399 395
f 395 399 400
f 395 400 396
f 396 400 397
f 396 397 393
f 401 402 403
f 401 403 404
f 405 406 407
f 405 407 408
f 401 405 406
f 401 406 402
f 402 406 407
f 402 407 403
f 403 407 408
f 403 408 404
f 404 408 405
f 404 405 401
f 409 410 411
f 409 411 412
f 413 414 415
f 413 415 416
f 409 413 414
f 409 414 410
f 410 414 415
f 410 415 411
f 411 415 416
f 411 416 412
f 412 416 413
f 412 413 409
f 417 418 419
f 417 419 420
f 421 422 423
f 421 423 424
f 417 421 422
f 417 422 418
f 418 422 423
f 418 423 419
f 419 423 424
f 419 424 420
f 420 424 421
f 420 421 417
f 425 426 427
f 425 427 428
f 429 430 431
f 429 431 432
f 425 429 430
f 425 430 426
f 426 430 431
f 426 431 427
f 427 431 432
f 427 432 428
f 428 432 429
f 428 429 425
f 433 434 435
f 433 435 436
f 437 438 439
f 437 439 440
f 433 437 438
f 433 438 434
f 434 438 439
f 434 439 435
f 435 439 440
f 435 440 436
f 436 440 437
f 436 437 433
f 441 442 443
f 441 443 444
f 445 446 447
f 445 447 448
f 441 445 446
f 441 446 442
f 442 446 447
f 442 447 443
f 443 447 448
f 443 448 444
f 444 448 445
f 444 445 441
f 449 450 451
f 449 451 452
f 453 454 455
f 453 455 456
f 449 453 454
f 449 454 450
f 450 454 455
f 450 455 451
f 451 455 456
f 451 456 452
f 452 456 453
f 452 453 449
f 457 458 459
f 457 459 460
f 461 462 463
f 461 463 464
f 457 461 462
f 457 462 458
f 458 462 463
f 458 463 459
f 459 463 464
f 459 464 460
f 460 464 461
f 460 461 457
f 465 466 467
f 465 467 468
f 469 470 471
f 469 471 472
f 465 469 470
f 465 470 466
f 466 470 471
f 466 471 467
f 467 471 472
f 467 472 468
f 468 472 469
f 468 469 465
f 473 474 475
f 473 475 476
f 477 478 479
f 477 479 480
f 473 477 478
f 473 478 474
f 474 478 479
f 474 479 475
f 475 479 480
f 475 480 476
f 476 480 477
f 476 477 473
f 481 482 483
f 481 483 484
f 485 486 487
f 485 487 488
f 481 485 486
f 481 486 482
f 482 486 487
f 482 487 483
f 483 487 488
f 483 488 484
f 484 488 485
f 484 485 481
