# SignFlow 3D Hand Mesh - Frame 52
v 0.000000 0.019927 -0.001709
v -0.007841 0.013085 -0.012935
v -0.011089 -0.001422 -0.016584
v -0.007841 -0.015096 -0.010518
v -0.000000 -0.019927 0.001709
v 0.007841 -0.013085 0.012935
v 0.011089 0.001422 0.016584
v 0.007841 0.015096 0.010518
v -0.025196 0.021361 0.015015
v -0.033037 0.014519 0.003789
v -0.036285 0.000012 0.000141
v -0.033037 -0.013662 0.006206
v -0.025196 -0.018493 0.018433
v -0.017355 -0.011651 0.029659
v -0.014108 0.002856 0.033308
v -0.017355 0.016530 0.027242
v -0.025196 0.019847 0.008916
v -0.034369 0.010252 0.001294
v -0.038169 -0.004509 0.002710
v -0.034369 -0.015788 0.012336
v -0.025196 -0.016979 0.024532
v -0.016023 -0.007384 0.032155
v -0.012224 0.007377 0.030738
v -0.016023 0.018656 0.021113
v -0.044752 0.026354 0.024260
v -0.053925 0.016758 0.016637
v -0.057725 0.001998 0.018054
v -0.053925 -0.009281 0.027680
v -0.044752 -0.010472 0.039876
v -0.035579 -0.000877 0.047498
v -0.031780 0.013883 0.046082
v -0.035579 0.025163 0.036456
v -0.044752 0.023824 0.019913
v -0.055248 0.013411 0.015946
v -0.059596 -0.000206 0.021423
v -0.055248 -0.009051 0.033135
v -0.044752 -0.007942 0.044222
v -0.034257 0.002470 0.048190
v -0.029909 0.016087 0.042713
v -0.034257 0.024932 0.031001
v -0.065378 0.037703 0.038051
v -0.075873 0.027291 0.034084
v -0.080221 0.013674 0.039560
v -0.075873 0.004829 0.051273
v -0.065378 0.005938 0.062360
v -0.054882 0.016350 0.066327
v -0.050534 0.029967 0.060850
v -0.054882 0.038812 0.049138
v -0.065378 0.041111 0.044924
v -0.077361 0.033478 0.039227
v -0.082325 0.019016 0.039961
v -0.077361 0.006197 0.046696
v -0.065378 0.002530 0.055486
v -0.053394 0.010163 0.061183
v -0.048431 0.024625 0.060449
v -0.053394 0.037444 0.053715
v -0.080377 0.047430 0.068008
v -0.092360 0.039797 0.062312
v -0.097324 0.025336 0.063045
v -0.092360 0.012517 0.069780
v -0.080377 0.008850 0.078570
v -0.068394 0.016483 0.084267
v -0.063430 0.030945 0.083533
v -0.068394 0.043763 0.076799
v -0.006172 0.000000 -0.019024
v -0.001050 -0.013706 -0.014527
v 0.004686 -0.019384 -0.001520
v 0.007677 -0.013706 0.012377
v 0.006172 -0.000000 0.019024
v 0.001050 0.013706 0.014527
v -0.004686 0.019384 0.001520
v -0.007677 0.013706 -0.012377
v -0.086600 -0.021490 0.007068
v -0.081479 -0.035196 0.011565
v -0.075743 -0.040874 0.024572
v -0.072751 -0.035196 0.038469
v -0.074257 -0.021490 0.045116
v -0.079378 -0.007784 0.040619
v -0.085115 -0.002106 0.027612
v -0.088106 -0.007784 0.013715
v -0.080429 -0.018537 0.006311
v -0.087662 -0.031421 0.010310
v -0.090658 -0.038488 0.023554
v -0.087662 -0.035597 0.038285
v -0.080429 -0.024443 0.045873
v -0.073195 -0.011559 0.041873
v -0.070199 -0.004492 0.028629
v -0.073195 -0.007383 0.013899
v -0.100090 -0.006963 0.008039
v -0.107323 -0.019847 0.012038
v -0.110319 -0.026913 0.025282
v -0.107323 -0.024023 0.040013
v -0.100090 -0.012869 0.047601
v -0.092857 0.000015 0.043601
v -0.089861 0.007082 0.030357
v -0.092857 0.004192 0.015627
v -0.100090 -0.004556 0.008551
v -0.109090 -0.016636 0.011271
v -0.112817 -0.024779 0.023685
v -0.109090 -0.024215 0.038521
v -0.100090 -0.015275 0.047088
v -0.091090 -0.003195 0.044368
v -0.087363 0.004948 0.031954
v -0.091090 0.004384 0.017118
v -0.119399 0.010791 0.012820
v -0.128399 -0.001289 0.015540
v -0.132126 -0.009432 0.027954
v -0.128399 -0.008868 0.042790
v -0.119399 0.000072 0.051357
v -0.110399 0.012151 0.048637
v -0.106672 0.020295 0.036223
v -0.110399 0.019731 0.021387
v -0.119399 0.000097 0.012813
v -0.130643 -0.006607 0.020746
v -0.135301 -0.006259 0.035323
v -0.130643 0.000937 0.048006
v -0.119399 0.010765 0.051364
v -0.108155 0.017469 0.043431
v -0.103497 0.017121 0.028853
v -0.108155 0.009926 0.016171
v -0.135181 0.020038 0.007295
v -0.146425 0.013334 0.015228
v -0.151083 0.013682 0.029805
v -0.146425 0.020878 0.042488
v -0.135181 0.030706 0.045846
v -0.123936 0.037410 0.037913
v -0.119279 0.037062 0.023335
v -0.123936 0.029866 0.010653
v -0.001509 0.000000 -0.019943
v 0.002723 -0.013622 -0.014389
v 0.005359 -0.019264 -0.000405
v 0.004856 -0.013622 0.013815
v 0.001509 -0.000000 0.019943
v -0.002723 0.013622 0.014389
v -0.005359 0.019264 0.000405
v -0.004856 0.013622 -0.013815
v -0.084423 -0.023198 -0.013671
v -0.080191 -0.036820 -0.008117
v -0.077555 -0.042463 0.005866
v -0.078058 -0.036820 0.020087
v -0.081406 -0.023198 0.026215
v -0.085637 -0.009576 0.020660
v -0.088273 -0.003934 0.006677
v -0.087770 -0.009576 -0.007543
v -0.082914 -0.020144 -0.013493
v -0.090119 -0.033065 -0.009563
v -0.093103 -0.040207 0.003643
v -0.090119 -0.037385 0.018389
v -0.082914 -0.026253 0.026037
v -0.075710 -0.013332 0.022107
v -0.072725 -0.006190 0.008900
v -0.075710 -0.009012 -0.005846
v -0.105608 -0.006866 -0.011442
v -0.112813 -0.019787 -0.007511
v -0.115797 -0.026929 0.005695
v -0.112813 -0.024107 0.020441
v -0.105608 -0.012975 0.028089
v -0.098403 -0.000054 0.024159
v -0.095419 0.007088 0.010952
v -0.098403 0.004266 -0.003794
v -0.105608 -0.009249 -0.011665
v -0.116986 -0.017840 -0.006092
v -0.121699 -0.021791 0.007925
v -0.116986 -0.018789 0.022176
v -0.105608 -0.010592 0.028313
v -0.094230 -0.002002 0.022740
v -0.089517 0.001950 0.008723
v -0.094230 -0.001052 -0.005528
v -0.120390 0.010765 -0.010993
v -0.131768 0.002175 -0.005420
v -0.136481 -0.001777 0.008597
v -0.131768 0.001225 0.022848
v -0.120390 0.009423 0.028985
v -0.109011 0.018013 0.023412
v -0.104298 0.021965 0.009395
v -0.109011 0.018962 -0.004856
v -0.120390 0.020379 -0.008156
v -0.129212 0.007888 -0.008817
v -0.132867 -0.003311 0.000957
v -0.129212 -0.006658 0.015440
v -0.120390 -0.000192 0.026148
v -0.111567 0.012300 0.026809
v -0.107913 0.023499 0.017035
v -0.111567 0.026846 0.002552
v -0.143124 0.035943 0.001177
v -0.151947 0.023452 0.000516
v -0.155602 0.012253 0.010291
v -0.151947 0.008906 0.024774
v -0.143124 0.015372 0.035482
v -0.134302 0.027864 0.036142
v -0.130647 0.039063 0.026368
v -0.134302 0.042410 0.011885
v 0.003999 0.000000 -0.019596
v 0.006028 -0.013760 -0.013203
v 0.004526 -0.019459 0.000924
v 0.000373 -0.013760 0.014510
v -0.003999 -0.000000 0.019596
v -0.006028 0.013760 0.013203
v -0.004526 0.019459 -0.000924
v -0.000373 0.013760 -0.014510
v -0.075785 -0.019330 -0.035877
v -0.073756 -0.033090 -0.029485
v -0.075258 -0.038789 -0.015357
v -0.079411 -0.033090 -0.001771
v -0.083783 -0.019330 0.003315
v -0.085812 -0.005570 -0.003078
v -0.084310 0.000129 -0.017205
v -0.080157 -0.005570 -0.030791
v -0.079784 -0.014746 -0.035749
v -0.087424 -0.027673 -0.032774
v -0.090588 -0.035713 -0.020138
v -0.087424 -0.034156 -0.005243
v -0.079784 -0.023914 0.003187
v -0.072145 -0.010987 0.000212
v -0.068980 -0.002947 -0.012424
v -0.072145 -0.004504 -0.027319
v -0.098726 -0.002911 -0.032962
v -0.106366 -0.015838 -0.029988
v -0.109530 -0.023877 -0.017352
v -0.106366 -0.022320 -0.002456
v -0.098726 -0.012078 0.005973
v -0.091087 0.000849 0.002999
v -0.087922 0.008888 -0.009637
v -0.091087 0.007331 -0.024532
v -0.098726 0.001551 -0.031332
v -0.107790 -0.010780 -0.031017
v -0.111545 -0.021186 -0.020438
v -0.107790 -0.023573 -0.005791
v -0.098726 -0.016540 0.004343
v -0.089662 -0.004209 0.004028
v -0.085907 0.006197 -0.006551
v -0.089662 0.008583 -0.021198
v -0.117838 0.015784 -0.024114
v -0.126903 0.003453 -0.023799
v -0.130657 -0.006953 -0.013220
v -0.126903 -0.009339 0.001427
v -0.117838 -0.002307 0.011561
v -0.108774 0.010024 0.011246
v -0.105019 0.020430 0.000667
v -0.108774 0.022816 -0.013980
v -0.117838 0.016465 -0.023752
v -0.125875 0.003448 -0.024293
v -0.129203 -0.007641 -0.014280
v -0.125875 -0.010307 0.000421
v -0.117838 -0.002988 0.011199
v -0.109802 0.010029 0.011740
v -0.106473 0.021118 0.001727
v -0.109802 0.023784 -0.012974
v -0.139629 0.029614 -0.016433
v -0.147665 0.016597 -0.016974
v -0.150994 0.005508 -0.006961
v -0.147665 0.002842 0.007740
v -0.139629 0.010161 0.018518
v -0.131593 0.023178 0.019058
v -0.128264 0.034267 0.009046
v -0.131593 0.036933 -0.005656
v 0.008347 0.000000 -0.018175
v 0.007067 -0.014084 -0.012316
v 0.001648 -0.019918 0.000757
v -0.004737 -0.014084 0.013387
v -0.008347 -0.000000 0.018175
v -0.007067 0.014084 0.012316
v -0.001648 0.019918 -0.000757
v 0.004737 0.014084 -0.013387
v -0.061582 -0.007005 -0.050292
v -0.062862 -0.021089 -0.044433
v -0.068282 -0.026923 -0.031360
v -0.074667 -0.021089 -0.018730
v -0.078276 -0.007005 -0.013942
v -0.076997 0.007079 -0.019800
v -0.071577 0.012913 -0.032873
v -0.065192 0.007079 -0.045503
v -0.073899 -0.007005 -0.051719
v -0.078181 -0.020010 -0.044875
v -0.077629 -0.025397 -0.030557
v -0.072567 -0.020010 -0.017153
v -0.065960 -0.007005 -0.012515
v -0.061678 0.006000 -0.019359
v -0.062229 0.011387 -0.033676
v -0.067291 0.006000 -0.047080
v -0.089333 -0.000278 -0.048593
v -0.093615 -0.013284 -0.041749
v -0.093063 -0.018671 -0.027432
v -0.088001 -0.013284 -0.014028
v -0.081394 -0.000278 -0.009389
v -0.077112 0.012727 -0.016233
v -0.077663 0.018114 -0.030550
v -0.082726 0.012727 -0.043954
v -0.088732 -0.000278 -0.048705
v -0.093247 -0.013272 -0.041991
v -0.093144 -0.018655 -0.027662
v -0.088483 -0.013272 -0.014111
v -0.081995 -0.000278 -0.009277
v -0.077480 0.012716 -0.015991
v -0.077583 0.018098 -0.030321
v -0.082244 0.012716 -0.043871
v -0.111161 0.009496 -0.044873
v -0.115677 -0.003498 -0.038158
v -0.115574 -0.008881 -0.023829
v -0.110913 -0.003498 -0.010278
v -0.104424 0.009496 -0.005444
v -0.099909 0.022490 -0.012159
v -0.100012 0.027872 -0.026488
v -0.104673 0.022490 -0.040039
v -0.110381 0.009496 -0.044990
v -0.114933 -0.003593 -0.038489
v -0.115302 -0.009015 -0.024178
v -0.111272 -0.003593 -0.010442
v -0.105204 0.009496 -0.005327
v -0.100652 0.022585 -0.011828
v -0.100283 0.028007 -0.026139
v -0.104313 0.022585 -0.039875
v -0.129487 0.017379 -0.042497
v -0.134039 0.004290 -0.035995
v -0.134408 -0.001132 -0.021685
v -0.130378 0.004290 -0.007948
v -0.124310 0.017379 -0.002833
v -0.119758 0.030468 -0.009335
v -0.119389 0.035889 -0.023645
v -0.123418 0.030468 -0.037381
v -0.015000 -0.015000 -0.015000
v 0.015000 -0.015000 -0.015000
v 0.015000 0.015000 -0.015000
v -0.015000 0.015000 -0.015000
v -0.015000 -0.015000 0.015000
v 0.015000 -0.015000 0.015000
v 0.015000 0.015000 0.015000
v -0.015000 0.015000 0.015000
v -0.040196 -0.013566 0.001724
v -0.010196 -0.013566 0.001724
v -0.010196 0.016434 0.001724
v -0.040196 0.016434 0.001724
v -0.040196 -0.013566 0.031724
v -0.010196 -0.013566 0.031724
v -0.010196 0.016434 0.031724
v -0.040196 0.016434 0.031724
v -0.059752 -0.007059 0.017068
v -0.029752 -0.007059 0.017068
v -0.029752 0.022941 0.017068
v -0.059752 0.022941 0.017068
v -0.059752 -0.007059 0.047068
v -0.029752 -0.007059 0.047068
v -0.029752 0.022941 0.047068
v -0.059752 0.022941 0.047068
v -0.080378 0.006820 0.035205
v -0.050378 0.006820 0.035205
v -0.050378 0.036820 0.035205
v -0.080378 0.036820 0.035205
v -0.080378 0.006820 0.065205
v -0.050378 0.006820 0.065205
v -0.050378 0.036820 0.065205
v -0.080378 0.036820 0.065205
v -0.095377 0.013140 0.058289
v -0.065377 0.013140 0.058289
v -0.065377 0.043140 0.058289
v -0.095377 0.043140 0.058289
v -0.095377 0.013140 0.088289
v -0.065377 0.013140 0.088289
v -0.065377 0.043140 0.088289
v -0.095377 0.043140 0.088289
v -0.095429 -0.036490 0.011092
v -0.065429 -0.036490 0.011092
v -0.065429 -0.006490 0.011092
v -0.095429 -0.006490 0.011092
v -0.095429 -0.036490 0.041092
v -0.065429 -0.036490 0.041092
v -0.065429 -0.006490 0.041092
v -0.095429 -0.006490 0.041092
v -0.115090 -0.024916 0.012820
v -0.085090 -0.024916 0.012820
v -0.085090 0.005084 0.012820
v -0.115090 0.005084 0.012820
v -0.115090 -0.024916 0.042820
v -0.085090 -0.024916 0.042820
v -0.085090 0.005084 0.042820
v -0.115090 0.005084 0.042820
v -0.134399 -0.009569 0.017088
v -0.104399 -0.009569 0.017088
v -0.104399 0.020431 0.017088
v -0.134399 0.020431 0.017088
v -0.134399 -0.009569 0.047088
v -0.104399 -0.009569 0.047088
v -0.104399 0.020431 0.047088
v -0.134399 0.020431 0.047088
v -0.150181 0.010372 0.011570
v -0.120181 0.010372 0.011570
v -0.120181 0.040372 0.011570
v -0.150181 0.040372 0.011570
v -0.150181 0.010372 0.041570
v -0.120181 0.010372 0.041570
v -0.120181 0.040372 0.041570
v -0.150181 0.040372 0.041570
v -0.097914 -0.038198 -0.008728
v -0.067914 -0.038198 -0.008728
v -0.067914 -0.008198 -0.008728
v -0.097914 -0.008198 -0.008728
v -0.097914 -0.038198 0.021272
v -0.067914 -0.038198 0.021272
v -0.067914 -0.008198 0.021272
v -0.097914 -0.008198 0.021272
v -0.120608 -0.024921 -0.006676
v -0.090608 -0.024921 -0.006676
v -0.090608 0.005079 -0.006676
v -0.120608 0.005079 -0.006676
v -0.120608 -0.024921 0.023324
v -0.090608 -0.024921 0.023324
v -0.090608 0.005079 0.023324
v -0.120608 0.005079 0.023324
v -0.135390 -0.004906 -0.006004
v -0.105390 -0.004906 -0.006004
v -0.105390 0.025094 -0.006004
v -0.135390 0.025094 -0.006004
v -0.135390 -0.004906 0.023996
v -0.105390 -0.004906 0.023996
v -0.105390 0.025094 0.023996
v -0.135390 0.025094 0.023996
v -0.158124 0.010658 0.003329
v -0.128124 0.010658 0.003329
v -0.128124 0.040658 0.003329
v -0.158124 0.040658 0.003329
v -0.158124 0.010658 0.033329
v -0.128124 0.010658 0.033329
v -0.128124 0.040658 0.033329
v -0.158124 0.040658 0.033329
v -0.094784 -0.034330 -0.031281
v -0.064784 -0.034330 -0.031281
v -0.064784 -0.004330 -0.031281
v -0.094784 -0.004330 -0.031281
v -0.094784 -0.034330 -0.001281
v -0.064784 -0.034330 -0.001281
v -0.064784 -0.004330 -0.001281
v -0.094784 -0.004330 -0.001281
v -0.113726 -0.022495 -0.028494
v -0.083726 -0.022495 -0.028494
v -0.083726 0.007505 -0.028494
v -0.113726 0.007505 -0.028494
v -0.113726 -0.022495 0.001506
v -0.083726 -0.022495 0.001506
v -0.083726 0.007505 0.001506
v -0.113726 0.007505 0.001506
v -0.132838 -0.008262 -0.021276
v -0.102838 -0.008262 -0.021276
v -0.102838 0.021738 -0.021276
v -0.132838 0.021738 -0.021276
v -0.132838 -0.008262 0.008724
v -0.102838 -0.008262 0.008724
v -0.102838 0.021738 0.008724
v -0.132838 0.021738 0.008724
v -0.154629 0.004887 -0.013958
v -0.124629 0.004887 -0.013958
v -0.124629 0.034887 -0.013958
v -0.154629 0.034887 -0.013958
v -0.154629 0.004887 0.016042
v -0.124629 0.004887 0.016042
v -0.124629 0.034887 0.016042
v -0.154629 0.034887 0.016042
v -0.084929 -0.022005 -0.047117
v -0.054929 -0.022005 -0.047117
v -0.054929 0.007995 -0.047117
v -0.084929 0.007995 -0.047117
v -0.084929 -0.022005 -0.017117
v -0.054929 -0.022005 -0.017117
v -0.054929 0.007995 -0.017117
v -0.084929 0.007995 -0.017117
v -0.100363 -0.015278 -0.043991
v -0.070363 -0.015278 -0.043991
v -0.070363 0.014722 -0.043991
v -0.100363 0.014722 -0.043991
v -0.100363 -0.015278 -0.013991
v -0.070363 -0.015278 -0.013991
v -0.070363 0.014722 -0.013991
v -0.100363 0.014722 -0.013991
v -0.122793 -0.005504 -0.040158
v -0.092793 -0.005504 -0.040158
v -0.092793 0.024496 -0.040158
v -0.122793 0.024496 -0.040158
v -0.122793 -0.005504 -0.010158
v -0.092793 -0.005504 -0.010158
v -0.092793 0.024496 -0.010158
v -0.122793 0.024496 -0.010158
v -0.141898 0.002379 -0.037665
v -0.111898 0.002379 -0.037665
v -0.111898 0.032379 -0.037665
v -0.141898 0.032379 -0.037665
v -0.141898 0.002379 -0.007665
v -0.111898 0.002379 -0.007665
v -0.111898 0.032379 -0.007665
v -0.141898 0.032379 -0.007665
f 1 2 9
f 2 10 9
f 2 3 10
f 3 11 10
f 3 4 11
f 4 12 11
f 4 5 12
f 5 13 12
f 5 6 13
f 6 14 13
f 6 7 14
f 7 15 14
f 7 8 15
f 8 16 15
f 8 1 16
f 1 9 16
f 17 18 25
f 18 26 25
f 18 19 26
f 19 27 26
f 19 20 27
f 20 28 27
f 20 21 28
f 21 29 28
f 21 22 29
f 22 30 29
f 22 23 30
f 23 31 30
f 23 24 31
f 24 32 31
f 24 17 32
f 17 25 32
f 33 34 41
f 34 42 41
f 34 35 42
f 35 43 42
f 35 36 43
f 36 44 43
f 36 37 44
f 37 45 44
f 37 38 45
f 38 46 45
f 38 39 46
f 39 47 46
f 39 40 47
f 40 48 47
f 40 33 48
f 33 41 48
f 49 50 57
f 50 58 57
f 50 51 58
f 51 59 58
f 51 52 59
f 52 60 59
f 52 53 60
f 53 61 60
f 53 54 61
f 54 62 61
f 54 55 62
f 55 63 62
f 55 56 63
f 56 64 63
f 56 49 64
f 49 57 64
f 65 66 73
f 66 74 73
f 66 67 74
f 67 75 74
f 67 68 75
f 68 76 75
f 68 69 76
f 69 77 76
f 69 70 77
f 70 78 77
f 70 71 78
f 71 79 78
f 71 72 79
f 72 80 79
f 72 65 80
f 65 73 80
f 81 82 89
f 82 90 89
f 82 83 90
f 83 91 90
f 83 84 91
f 84 92 91
f 84 85 92
f 85 93 92
f 85 86 93
f 86 94 93
f 86 87 94
f 87 95 94
f 87 88 95
f 88 96 95
f 88 81 96
f 81 89 96
f 97 98 105
f 98 106 105
f 98 99 106
f 99 107 106
f 99 100 107
f 100 108 107
f 100 101 108
f 101 109 108
f 101 102 109
f 102 110 109
f 102 103 110
f 103 111 110
f 103 104 111
f 104 112 111
f 104 97 112
f 97 105 112
f 113 114 121
f 114 122 121
f 114 115 122
f 115 123 122
f 115 116 123
f 116 124 123
f 116 117 124
f 117 125 124
f 117 118 125
f 118 126 125
f 118 119 126
f 119 127 126
f 119 120 127
f 120 128 127
f 120 113 128
f 113 121 128
f 129 130 137
f 130 138 137
f 130 131 138
f 131 139 138
f 131 132 139
f 132 140 139
f 132 133 140
f 133 141 140
f 133 134 141
f 134 142 141
f 134 135 142
f 135 143 142
f 135 136 143
f 136 144 143
f 136 129 144
f 129 137 144
f 145 146 153
f 146 154 153
f 146 147 154
f 147 155 154
f 147 148 155
f 148 156 155
f 148 149 156
f 149 157 156
f 149 150 157
f 150 158 157
f 150 151 158
f 151 159 158
f 151 152 159
f 152 160 159
f 152 145 160
f 145 153 160
f 161 162 169
f 162 170 169
f 162 163 170
f 163 171 170
f 163 164 171
f 164 172 171
f 164 165 172
f 165 173 172
f 165 166 173
f 166 174 173
f 166 167 174
f 167 175 174
f 167 168 175
f 168 176 175
f 168 161 176
f 161 169 176
f 177 178 185
f 178 186 185
f 178 179 186
f 179 187 186
f 179 180 187
f 180 188 187
f 180 181 188
f 181 189 188
f 181 182 189
f 182 190 189
f 182 183 190
f 183 191 190
f 183 184 191
f 184 192 191
f 184 177 192
f 177 185 192
f 193 194 201
f 194 202 201
f 194 195 202
f 195 203 202
f 195 196 203
f 196 204 203
f 196 197 204
f 197 205 204
f 197 198 205
f 198 206 205
f 198 199 206
f 199 207 206
f 199 200 207
f 200 208 207
f 200 193 208
f 193 201 208
f 209 210 217
f 210 218 217
f 210 211 218
f 211 219 218
f 211 212 219
f 212 220 219
f 212 213 220
f 213 221 220
f 213 214 221
f 214 222 221
f 214 215 222
f 215 223 222
f 215 216 223
f 216 224 223
f 216 209 224
f 209 217 224
f 225 226 233
f 226 234 233
f 226 227 234
f 227 235 234
f 227 228 235
f 228 236 235
f 228 229 236
f 229 237 236
f 229 230 237
f 230 238 237
f 230 231 238
f 231 239 238
f 231 232 239
f 232 240 239
f 232 225 240
f 225 233 240
f 241 242 249
f 242 250 249
f 242 243 250
f 243 251 250
f 243 244 251
f 244 252 251
f 244 245 252
f 245 253 252
f 245 246 253
f 246 254 253
f 246 247 254
f 247 255 254
f 247 248 255
f 248 256 255
f 248 241 256
f 241 249 256
f 257 258 265
f 258 266 265
f 258 259 266
f 259 267 266
f 259 260 267
f 260 268 267
f 260 261 268
f 261 269 268
f 261 262 269
f 262 270 269
f 262 263 270
f 263 271 270
f 263 264 271
f 264 272 271
f 264 257 272
f 257 265 272
f 273 274 281
f 274 282 281
f 274 275 282
f 275 283 282
f 275 276 283
f 276 284 283
f 276 277 284
f 277 285 284
f 277 278 285
f 278 286 285
f 278 279 286
f 279 287 286
f 279 280 287
f 280 288 287
f 280 273 288
f 273 281 288
f 289 290 297
f 290 298 297
f 290 291 298
f 291 299 298
f 291 292 299
f 292 300 299
f 292 293 300
f 293 301 300
f 293 294 301
f 294 302 301
f 294 295 302
f 295 303 302
f 295 296 303
f 296 304 303
f 296 289 304
f 289 297 304
f 305 306 313
f 306 314 313
f 306 307 314
f 307 315 314
f 307 308 315
f 308 316 315
f 308 309 316
f 309 317 316
f 309 310 317
f 310 318 317
f 310 311 318
f 311 319 318
f 311 312 319
f 312 320 319
f 312 305 320
f 305 313 320
f 321 322 323
f 321 323 324
f 325 326 327
f 325 327 328
f 321 325 326
f 321 326 322
f 322 326 327
f 322 327 323
f 323 327 328
f 323 328 324
f 324 328 325
f 324 325 321
f 329 330 331
f 329 331 332
f 333 334 335
f 333 335 336
f 329 333 334
f 329 334 330
f 330 334 335
f 330 335 331
f 331 335 336
f 331 336 332
f 332 336 333
f 332 333 329
f 337 338 339
f 337 339 340
f 341 342 343
f 341 343 344
f 337 341 342
f 337 342 338
f 338 342 343
f 338 343 339
f 339 343 344
f 339 344 340
f 340 344 341
f 340 341 337
f 345 346 347
f 345 347 348
f 349 350 351
f 349 351 352
f 345 349 350
f 345 350 346
f 346 350 351
f 346 351 347
f 347 351 352
f 347 352 348
f 348 352 349
f 348 349 345
f 353 354 355
f 353 355 356
f 357 358 359
f 357 359 360
f 353 357 358
f 353 358 354
f 354 358 359
f 354 359 355
f 355 359 360
f 355 360 356
f 356 360 357
f 356 357 353
f 361 362 363
f 361 363 364
f 365 366 367
f 365 367 368
f 361 365 366
f 361 366 362
f 362 366 367
f 362 367 363
f 363 367 368
f 363 368 364
f 364 368 365
f 364 365 361
f 369 370 371
f 369 371 372
f 373 374 375
f 373 375 376
f 369 373 374
f 369 374 370
f 370 374 375
f 370 375 371
f 371 375 376
f 371 376 372
f 372 376 373
f 372 373 369
f 377 378 379
f 377 379 380
f 381 382 383
f 381 383 384
f 377 381 382
f 377 382 378
f 378 382 383
f 378 383 379
f 379 383 384
f 379 384 380
f 380 384 381
f 380 381 377
f 385 386 387
f 385 387 388
f 389 390 391
f 389 391 392
f 385 389 390
f 385 390 386
f 386 390 391
f 386 391 387
f 387 391 392
f 387 392 388
f 388 392 389
f 388 389 385
f 393 394 395
f 393 395 396
f 397 398 399
f 397 399 400
f 393 397 398
f 393 398 394
f 394 398 399
f 394 399 395
f 395 399 400
f 395 400 396
f 396 400 397
f 396 397 393
f 401 402 403
f 401 403 404
f 405 406 407
f 405 407 408
f 401 405 406
f 401 406 402
f 402 406 407
f 402 407 403
f 403 407 408
f 403 408 404
f 404 408 405
f 404 405 401
f 409 410 411
f 409 411 412
f 413 414 415
f 413 415 416
f 409 413 414
f 409 414 410
f 410 414 415
f 410 415 411
f 411 415 416
f 411 416 412
f 412 416 413
f 412 413 409
f 417 418 419
f 417 419 420
f 421 422 423
f 421 423 424
f 417 421 422
f 417 422 418
f 418 422 423
f 418 423 419
f 419 423 424
f 419 424 420
f 420 424 421
f 420 421 417
f 425 426 427
f 425 427 428
f 429 430 431
f 429 431 432
f 425 429 430
f 425 430 426
f 426 430 431
f 426 431 427
f 427 431 432
f 427 432 428
f 428 432 429
f 428 429 425
f 433 434 435
f 433 435 436
f 437 438 439
f 437 439 440
f 433 437 438
f 433 438 434
f 434 438 439
f 434 439 435
f 435 439 440
f 435 440 436
f 436 440 437
f 436 437 433
f 441 442 443
f 441 443 444
f 445 446 447
f 445 447 448
f 441 445 446
f 441 446 442
f 442 446 447
f 442 447 443
f 443 447 448
f 443 448 444
f 444 448 445
f 444 445 441
f 449 450 451
f 449 451 452
f 453 454 455
f 453 455 456
f 449 453 454
f 449 454 450
f 450 454 455
f 450 455 451
f 451 455 456
f 451 456 452
f 452 456 453
f 452 453 449
f 457 458 459
f 457 459 460
f 461 462 463
f 461 463 464
f 457 461 462
f 457 462 458
f 458 462 463
f 458 463 459
f 459 463 464
f 459 464 460
f 460 464 461
f 460 461 457
f 465 466 467
f 465 467 468
f 469 470 471
f 469 471 472
f 465 469 470
f 465 470 466
f 466 470 471
f 466 471 467
f 467 471 472
f 467 472 468
f 468 472 469
f 468 469 465
f 473 474 475
f 473 475 476
f 477 478 479
f 477 479 480
f 473 477 478
f 473 478 474
f 474 478 479
f 474 479 475
f 475 479 480
f 475 480 476
f 476 480 477
f 476 477 473
f 481 482 483
f 481 483 484
f 485 486 487
f 485 487 488
f 481 485 486
f 481 486 482
f 482 486 487
f 482 487 483
f 483 487 488
f 483 488 484
f 484 488 485
f 484 485 481
