# SignFlow 3D Hand Mesh - Frame 69
v 0.000000 0.017404 0.009854
v -0.012537 0.009082 0.012663
v -0.017730 -0.004560 0.008053
v -0.012537 -0.015531 -0.001274
v -0.000000 -0.017404 -0.009854
v 0.012537 -0.009082 -0.012663
v 0.017730 0.004560 -0.008053
v 0.012537 0.015531 0.001274
v 0.006849 0.010939 0.021272
v -0.005688 0.002617 0.024080
v -0.010881 -0.011025 0.019471
v -0.005688 -0.021996 0.010144
v 0.006849 -0.023869 0.001563
v 0.019386 -0.015547 -0.001245
v 0.024579 -0.001905 0.003364
v 0.019386 0.009066 0.012691
v 0.006849 0.013258 0.014737
v -0.002696 0.005749 0.024055
v -0.006649 -0.008914 0.025971
v -0.002696 -0.022143 0.019362
v 0.006849 -0.026188 0.008099
v 0.016393 -0.018679 -0.001220
v 0.020347 -0.004016 -0.003136
v 0.016393 0.009213 0.003474
v 0.023763 0.010691 0.029992
v 0.014218 0.003182 0.039311
v 0.010265 -0.011481 0.041226
v 0.014218 -0.024710 0.034617
v 0.023763 -0.028755 0.023354
v 0.033307 -0.021246 0.014035
v 0.037261 -0.006583 0.012119
v 0.033307 0.006646 0.018729
v 0.023763 0.009035 0.018096
v 0.015074 0.008529 0.030689
v 0.011476 -0.002265 0.040929
v 0.015074 -0.017023 0.042818
v 0.023763 -0.027100 0.035250
v 0.032451 -0.026593 0.022657
v 0.036050 -0.015799 0.012417
v 0.032451 -0.001042 0.010528
v 0.036077 0.013147 0.026758
v 0.027389 0.012641 0.039350
v 0.023790 0.001847 0.049591
v 0.027389 -0.012911 0.051480
v 0.036077 -0.022988 0.043911
v 0.044765 -0.022481 0.031319
v 0.048364 -0.011688 0.021079
v 0.044765 0.003070 0.019190
v 0.036077 0.012681 0.025839
v 0.023153 0.010253 0.033674
v 0.017800 -0.001064 0.042483
v 0.023153 -0.014640 0.047104
v 0.036077 -0.022522 0.044831
v 0.049000 -0.020094 0.036995
v 0.054353 -0.008777 0.028186
v 0.049000 0.004799 0.023565
v 0.045734 0.022999 0.044964
v 0.032811 0.020571 0.052800
v 0.027458 0.009254 0.061608
v 0.032811 -0.004322 0.066229
v 0.045734 -0.012204 0.063956
v 0.058658 -0.009776 0.056120
v 0.064011 0.001541 0.047312
v 0.058658 0.015117 0.042691
v -0.007820 0.000000 0.018408
v -0.007441 -0.013989 0.012204
v -0.002704 -0.019783 -0.001149
v 0.003618 -0.013989 -0.013829
v 0.007820 -0.000000 -0.018408
v 0.007441 0.013989 -0.012204
v 0.002704 0.019783 0.001149
v -0.003618 0.013989 0.013829
v 0.059983 -0.010939 0.047212
v 0.060362 -0.024928 0.041008
v 0.065099 -0.030723 0.027655
v 0.071421 -0.024928 0.014975
v 0.075623 -0.010939 0.010396
v 0.075245 0.003049 0.016600
v 0.070507 0.008844 0.029953
v 0.064185 0.003049 0.042632
v 0.067747 -0.010939 0.048804
v 0.068686 -0.025051 0.042949
v 0.069108 -0.030897 0.028808
v 0.068766 -0.025051 0.014664
v 0.067859 -0.010939 0.008804
v 0.066920 0.003173 0.014659
v 0.066498 0.009018 0.028800
v 0.066840 0.003173 0.042943
v 0.090502 -0.009451 0.048868
v 0.091442 -0.023563 0.043013
v 0.091864 -0.029409 0.028872
v 0.091521 -0.023563 0.014728
v 0.090615 -0.009451 0.008868
v 0.089675 0.004661 0.014723
v 0.089253 0.010506 0.028864
v 0.089596 0.004661 0.043007
v 0.084198 -0.009451 0.047829
v 0.085520 -0.023582 0.042094
v 0.089794 -0.029435 0.028611
v 0.094515 -0.023582 0.015279
v 0.096919 -0.009451 0.009906
v 0.095597 0.004679 0.015641
v 0.091323 0.010532 0.029124
v 0.086601 0.004679 0.042457
v 0.106903 -0.010418 0.055446
v 0.108226 -0.024549 0.049711
v 0.112499 -0.030402 0.036228
v 0.117221 -0.024549 0.022895
v 0.119625 -0.010418 0.017523
v 0.118303 0.003713 0.023258
v 0.114029 0.009566 0.036741
v 0.109307 0.003713 0.050074
v 0.114840 -0.010418 0.056423
v 0.113782 -0.024548 0.050630
v 0.112421 -0.030400 0.036551
v 0.111554 -0.024548 0.022434
v 0.111689 -0.010418 0.016547
v 0.112746 0.003711 0.022339
v 0.114107 0.009564 0.036418
v 0.114974 0.003711 0.050536
v 0.145334 -0.011712 0.054013
v 0.144276 -0.025841 0.048220
v 0.142916 -0.031694 0.034142
v 0.142048 -0.025841 0.020024
v 0.142183 -0.011712 0.014137
v 0.143240 0.002418 0.019930
v 0.144601 0.008270 0.034008
v 0.145468 0.002418 0.048126
v -0.005235 0.000000 0.019303
v -0.005101 -0.014068 0.013270
v -0.001979 -0.019895 -0.000537
v 0.002302 -0.014068 -0.014029
v 0.005235 -0.000000 -0.019303
v 0.005101 0.014068 -0.013270
v 0.001979 0.019895 0.000537
v -0.002302 0.014068 0.014029
v 0.068705 -0.007896 0.039354
v 0.068839 -0.021964 0.033321
v 0.071961 -0.027791 0.019514
v 0.076242 -0.021964 0.006022
v 0.079174 -0.007896 0.000748
v 0.079041 0.006172 0.006781
v 0.075919 0.011999 0.020588
v 0.071638 0.006172 0.034080
v 0.072655 -0.007896 0.040010
v 0.070796 -0.021860 0.034020
v 0.070778 -0.027643 0.019847
v 0.072612 -0.021860 0.005794
v 0.075224 -0.007896 0.000092
v 0.077084 0.006068 0.006082
v 0.077102 0.011851 0.020254
v 0.075267 0.006068 0.034308
v 0.100342 -0.012347 0.041792
v 0.098483 -0.026311 0.035802
v 0.098465 -0.032095 0.021629
v 0.100299 -0.026311 0.007576
v 0.102911 -0.012347 0.001874
v 0.104771 0.001616 0.007864
v 0.104788 0.007400 0.022036
v 0.102954 0.001616 0.036090
v 0.096752 -0.012347 0.041230
v 0.096285 -0.026354 0.035072
v 0.098947 -0.032156 0.021159
v 0.103179 -0.026354 0.007641
v 0.106502 -0.012347 0.002436
v 0.106969 0.001659 0.008593
v 0.104307 0.007461 0.022506
v 0.100075 0.001659 0.036025
v 0.122322 -0.016025 0.047656
v 0.121855 -0.030032 0.041499
v 0.124517 -0.035834 0.027586
v 0.128749 -0.030032 0.014067
v 0.132072 -0.016025 0.008862
v 0.132539 -0.002019 0.015020
v 0.129877 0.003783 0.028933
v 0.125645 -0.002019 0.042451
v 0.120987 -0.016025 0.047271
v 0.120924 -0.030028 0.041088
v 0.124536 -0.035829 0.027390
v 0.129707 -0.030028 0.014202
v 0.133407 -0.016025 0.009248
v 0.133469 -0.002022 0.015431
v 0.129857 0.003778 0.029128
v 0.124687 -0.002022 0.042317
v 0.156061 -0.021240 0.058728
v 0.155999 -0.035243 0.052545
v 0.159611 -0.041043 0.038847
v 0.164782 -0.035243 0.025659
v 0.168482 -0.021240 0.020705
v 0.168544 -0.007237 0.026888
v 0.164932 -0.001437 0.040585
v 0.159761 -0.007237 0.053774
v -0.000929 0.000000 0.019978
v -0.001760 -0.014099 0.014076
v -0.001560 -0.019939 -0.000073
v -0.000446 -0.014099 -0.014178
v 0.000929 -0.000000 -0.019978
v 0.001760 0.014099 -0.014076
v 0.001560 0.019939 0.000073
v 0.000446 0.014099 0.014178
v 0.074973 -0.005950 0.023508
v 0.074143 -0.020049 0.017605
v 0.074343 -0.025889 0.003457
v 0.075456 -0.020049 -0.010648
v 0.076831 -0.005950 -0.016449
v 0.077662 0.008149 -0.010546
v 0.077462 0.013988 0.003602
v 0.076348 0.008149 0.017708
v 0.074395 -0.005950 0.023473
v 0.072752 -0.019937 0.017474
v 0.072954 -0.025731 0.003307
v 0.074884 -0.019937 -0.010730
v 0.077410 -0.005950 -0.016413
v 0.079053 0.008036 -0.010415
v 0.078851 0.013830 0.003753
v 0.076921 0.008036 0.017789
v 0.094725 -0.008998 0.025010
v 0.093081 -0.022985 0.019011
v 0.093284 -0.028778 0.004844
v 0.095213 -0.022985 -0.009193
v 0.097740 -0.008998 -0.014877
v 0.099383 0.004989 -0.008878
v 0.099180 0.010782 0.005289
v 0.097251 0.004989 0.019326
v 0.090517 -0.008998 0.024232
v 0.091728 -0.023132 0.018481
v 0.095578 -0.028986 0.004871
v 0.099811 -0.023132 -0.008624
v 0.101948 -0.008998 -0.014100
v 0.100736 0.005136 -0.008348
v 0.096887 0.010990 0.005262
v 0.092654 0.005136 0.018757
v 0.112741 -0.009791 0.030860
v 0.113952 -0.023924 0.025108
v 0.117802 -0.029779 0.011499
v 0.122035 -0.023924 -0.001996
v 0.124172 -0.009791 -0.007472
v 0.122961 0.004343 -0.001720
v 0.119111 0.010198 0.011889
v 0.114878 0.004343 0.025384
v 0.110811 -0.009791 0.030175
v 0.110308 -0.023618 0.023628
v 0.114578 -0.029345 0.010090
v 0.121120 -0.023618 -0.002509
v 0.126102 -0.009791 -0.006787
v 0.126605 0.004037 -0.000240
v 0.122335 0.009764 0.013298
v 0.115793 0.004037 0.025897
v 0.138725 -0.016274 0.041722
v 0.138221 -0.030101 0.035174
v 0.142491 -0.035829 0.021636
v 0.149033 -0.030101 0.009038
v 0.154015 -0.016274 0.004760
v 0.154518 -0.002447 0.011307
v 0.150248 0.003281 0.024845
v 0.143706 -0.002447 0.037443
v 0.002380 0.000000 0.019858
v 0.000252 -0.014068 0.014213
v -0.002024 -0.019896 0.000243
v -0.003115 -0.014068 -0.013870
v -0.002380 -0.000000 -0.019858
v -0.000252 0.014068 -0.014213
v 0.002024 0.019896 -0.000243
v 0.003115 0.014068 0.013870
v 0.070602 -0.007041 0.011680
v 0.068474 -0.021110 0.006035
v 0.066198 -0.026937 -0.007935
v 0.065107 -0.021110 -0.022048
v 0.065842 -0.007041 -0.028036
v 0.067970 0.007027 -0.022391
v 0.070246 0.012855 -0.008421
v 0.071337 0.007027 0.005692
v 0.067917 -0.007041 0.011820
v 0.068949 -0.021152 0.005977
v 0.069554 -0.026997 -0.008158
v 0.069380 -0.021152 -0.022304
v 0.068527 -0.007041 -0.028176
v 0.067495 0.007069 -0.022333
v 0.066890 0.012914 -0.008198
v 0.067064 0.007069 0.005948
v 0.083626 -0.005992 0.012059
v 0.084658 -0.020103 0.006216
v 0.085263 -0.025948 -0.007918
v 0.085089 -0.020103 -0.022065
v 0.084236 -0.005992 -0.027936
v 0.083204 0.008119 -0.022093
v 0.082599 0.013963 -0.007959
v 0.082773 0.008119 0.006188
v 0.081310 -0.005992 0.011889
v 0.081514 -0.020123 0.006007
v 0.083134 -0.025976 -0.008044
v 0.085221 -0.020123 -0.022033
v 0.086552 -0.005992 -0.027766
v 0.086348 0.008139 -0.021884
v 0.084728 0.013992 -0.007833
v 0.082641 0.008139 0.006156
v 0.100339 -0.006764 0.014405
v 0.100543 -0.020895 0.008523
v 0.102163 -0.026748 -0.005528
v 0.104250 -0.020895 -0.019517
v 0.105582 -0.006764 -0.025250
v 0.105377 0.007367 -0.019368
v 0.103757 0.013220 -0.005317
v 0.101670 0.007367 0.008672
v 0.099258 -0.006764 0.014232
v 0.096764 -0.020429 0.007801
v 0.097899 -0.026090 -0.006376
v 0.101999 -0.020429 -0.019994
v 0.106662 -0.006764 -0.025077
v 0.109157 0.006901 -0.018646
v 0.108021 0.012561 -0.004469
v 0.103921 0.006901 0.009149
v 0.121934 -0.012913 0.018503
v 0.119440 -0.026579 0.012072
v 0.120575 -0.032239 -0.002105
v 0.124676 -0.026579 -0.015723
v 0.129339 -0.012913 -0.020806
v 0.131833 0.000752 -0.014375
v 0.130697 0.006412 -0.000198
v 0.126597 0.000752 0.013421
v -0.015000 -0.015000 -0.015000
v 0.015000 -0.015000 -0.015000
v 0.015000 0.015000 -0.015000
v -0.015000 0.015000 -0.015000
v -0.015000 -0.015000 0.015000
v 0.015000 -0.015000 0.015000
v 0.015000 0.015000 0.015000
v -0.015000 0.015000 0.015000
v -0.008151 -0.021465 -0.003582
v 0.021849 -0.021465 -0.003582
v 0.021849 0.008535 -0.003582
v -0.008151 0.008535 -0.003582
v -0.008151 -0.021465 0.026418
v 0.021849 -0.021465 0.026418
v 0.021849 0.008535 0.026418
v -0.008151 0.008535 0.026418
v 0.008763 -0.024032 0.011673
v 0.038763 -0.024032 0.011673
v 0.038763 0.005968 0.011673
v 0.008763 0.005968 0.011673
v 0.008763 -0.024032 0.041673
v 0.038763 -0.024032 0.041673
v 0.038763 0.005968 0.041673
v 0.008763 0.005968 0.041673
v 0.021077 -0.019920 0.020335
v 0.051077 -0.019920 0.020335
v 0.051077 0.010080 0.020335
v 0.021077 0.010080 0.020335
v 0.021077 -0.019920 0.050335
v 0.051077 -0.019920 0.050335
v 0.051077 0.010080 0.050335
v 0.021077 0.010080 0.050335
v 0.030734 -0.009602 0.039460
v 0.060734 -0.009602 0.039460
v 0.060734 0.020398 0.039460
v 0.030734 0.020398 0.039460
v 0.030734 -0.009602 0.069460
v 0.060734 -0.009602 0.069460
v 0.060734 0.020398 0.069460
v 0.030734 0.020398 0.069460
v 0.052803 -0.025939 0.013804
v 0.082803 -0.025939 0.013804
v 0.082803 0.004061 0.013804
v 0.052803 0.004061 0.013804
v 0.052803 -0.025939 0.043804
v 0.082803 -0.025939 0.043804
v 0.082803 0.004061 0.043804
v 0.052803 0.004061 0.043804
v 0.075558 -0.024451 0.013868
v 0.105558 -0.024451 0.013868
v 0.105558 0.005549 0.013868
v 0.075558 0.005549 0.013868
v 0.075558 -0.024451 0.043868
v 0.105558 -0.024451 0.043868
v 0.105558 0.005549 0.043868
v 0.075558 0.005549 0.043868
v 0.098264 -0.025418 0.021485
v 0.128264 -0.025418 0.021485
v 0.128264 0.004582 0.021485
v 0.098264 0.004582 0.021485
v 0.098264 -0.025418 0.051485
v 0.128264 -0.025418 0.051485
v 0.128264 0.004582 0.051485
v 0.098264 0.004582 0.051485
v 0.128758 -0.026712 0.019075
v 0.158758 -0.026712 0.019075
v 0.158758 0.003288 0.019075
v 0.128758 0.003288 0.019075
v 0.128758 -0.026712 0.049075
v 0.158758 -0.026712 0.049075
v 0.158758 0.003288 0.049075
v 0.128758 0.003288 0.049075
v 0.058940 -0.022896 0.005051
v 0.088940 -0.022896 0.005051
v 0.088940 0.007104 0.005051
v 0.058940 0.007104 0.005051
v 0.058940 -0.022896 0.035051
v 0.088940 -0.022896 0.035051
v 0.088940 0.007104 0.035051
v 0.058940 0.007104 0.035051
v 0.086627 -0.027347 0.006833
v 0.116627 -0.027347 0.006833
v 0.116627 0.002653 0.006833
v 0.086627 0.002653 0.006833
v 0.086627 -0.027347 0.036833
v 0.116627 -0.027347 0.036833
v 0.116627 0.002653 0.036833
v 0.086627 0.002653 0.036833
v 0.112197 -0.031025 0.013259
v 0.142197 -0.031025 0.013259
v 0.142197 -0.001025 0.013259
v 0.112197 -0.001025 0.013259
v 0.112197 -0.031025 0.043259
v 0.142197 -0.031025 0.043259
v 0.142197 -0.001025 0.043259
v 0.112197 -0.001025 0.043259
v 0.147271 -0.036240 0.024716
v 0.177271 -0.036240 0.024716
v 0.177271 -0.006240 0.024716
v 0.147271 -0.006240 0.024716
v 0.147271 -0.036240 0.054716
v 0.177271 -0.036240 0.054716
v 0.177271 -0.006240 0.054716
v 0.147271 -0.006240 0.054716
v 0.060902 -0.020950 -0.011470
v 0.090902 -0.020950 -0.011470
v 0.090902 0.009050 -0.011470
v 0.060902 0.009050 -0.011470
v 0.060902 -0.020950 0.018530
v 0.090902 -0.020950 0.018530
v 0.090902 0.009050 0.018530
v 0.060902 0.009050 0.018530
v 0.081232 -0.023998 -0.009934
v 0.111232 -0.023998 -0.009934
v 0.111232 0.006002 -0.009934
v 0.081232 0.006002 -0.009934
v 0.081232 -0.023998 0.020066
v 0.111232 -0.023998 0.020066
v 0.111232 0.006002 0.020066
v 0.081232 0.006002 0.020066
v 0.103457 -0.024791 -0.003306
v 0.133457 -0.024791 -0.003306
v 0.133457 0.005209 -0.003306
v 0.103457 0.005209 -0.003306
v 0.103457 -0.024791 0.026694
v 0.133457 -0.024791 0.026694
v 0.133457 0.005209 0.026694
v 0.103457 0.005209 0.026694
v 0.131370 -0.031274 0.008241
v 0.161370 -0.031274 0.008241
v 0.161370 -0.001274 0.008241
v 0.131370 -0.001274 0.008241
v 0.131370 -0.031274 0.038241
v 0.161370 -0.031274 0.038241
v 0.161370 -0.001274 0.038241
v 0.131370 -0.001274 0.038241
v 0.053222 -0.022041 -0.023178
v 0.083222 -0.022041 -0.023178
v 0.083222 0.007959 -0.023178
v 0.053222 0.007959 -0.023178
v 0.053222 -0.022041 0.006822
v 0.083222 -0.022041 0.006822
v 0.083222 0.007959 0.006822
v 0.053222 0.007959 0.006822
v 0.068931 -0.020992 -0.022939
v 0.098931 -0.020992 -0.022939
v 0.098931 0.009008 -0.022939
v 0.068931 0.009008 -0.022939
v 0.068931 -0.020992 0.007061
v 0.098931 -0.020992 0.007061
v 0.098931 0.009008 0.007061
v 0.068931 0.009008 0.007061
v 0.087960 -0.021764 -0.020423
v 0.117960 -0.021764 -0.020423
v 0.117960 0.008236 -0.020423
v 0.087960 0.008236 -0.020423
v 0.087960 -0.021764 0.009577
v 0.117960 -0.021764 0.009577
v 0.117960 0.008236 0.009577
v 0.087960 0.008236 0.009577
v 0.110636 -0.027913 -0.016151
v 0.140636 -0.027913 -0.016151
v 0.140636 0.002087 -0.016151
v 0.110636 0.002087 -0.016151
v 0.110636 -0.027913 0.013849
v 0.140636 -0.027913 0.013849
v 0.140636 0.002087 0.013849
v 0.110636 0.002087 0.013849
v 0.000000 0.019305 0.005225
v -0.011662 0.015741 -0.004027
v -0.016493 0.002956 -0.010920
v -0.011662 -0.011561 -0.011417
v -0.000000 -0.019305 -0.005225
v 0.011662 -0.015741 0.004027
v 0.016493 -0.002956 0.010920
v 0.011662 0.011561 0.011417
v -0.017870 0.012499 0.030372
v -0.029532 0.008934 0.021120
v -0.034363 -0.003851 0.014227
v -0.029532 -0.018367 0.013730
v -0.017870 -0.026112 0.019921
v -0.006207 -0.022548 0.029174
v -0.001377 -0.009762 0.036067
v -0.006207 0.004754 0.036563
v -0.017870 0.011272 0.033700
v -0.027017 0.010590 0.021446
v -0.030806 -0.000283 0.011359
v -0.027017 -0.014977 0.009349
v -0.017870 -0.024885 0.016593
v -0.008722 -0.024203 0.028848
v -0.004933 -0.013330 0.038935
v -0.008722 0.001364 0.040945
v -0.041675 0.002638 0.051950
v -0.050822 0.001955 0.039695
v -0.054611 -0.008918 0.029609
v -0.050822 -0.023612 0.027599
v -0.041675 -0.033520 0.034843
v -0.032527 -0.032837 0.047098
v -0.028738 -0.021964 0.057184
v -0.032527 -0.007270 0.059194
v -0.041675 0.004408 0.045850
v -0.050154 -0.000017 0.033899
v -0.053667 -0.013477 0.027512
v -0.050154 -0.028088 0.030429
v -0.041675 -0.035290 0.040943
v -0.033195 -0.030865 0.052894
v -0.029682 -0.017405 0.059281
v -0.033195 -0.002794 0.056364
v -0.067713 0.002014 0.065212
v -0.076193 -0.002411 0.053261
v -0.079705 -0.015871 0.046874
v -0.076193 -0.030481 0.049791
v -0.067713 -0.037684 0.060305
v -0.059233 -0.033259 0.072256
v -0.055721 -0.019798 0.078643
v -0.059233 -0.005188 0.075726
v -0.067713 0.002157 0.063347
v -0.079111 -0.003452 0.054807
v -0.083833 -0.017486 0.050925
v -0.079111 -0.031724 0.053975
v -0.067713 -0.037826 0.062170
v -0.056315 -0.032217 0.070710
v -0.051593 -0.018183 0.074592
v -0.056315 -0.003945 0.071542
v -0.085913 0.001428 0.088117
v -0.097311 -0.004181 0.079577
v -0.102033 -0.018215 0.075695
v -0.097311 -0.032453 0.078745
v -0.085913 -0.038555 0.086941
v -0.074515 -0.032946 0.095481
v -0.069794 -0.018912 0.099362
v -0.074515 -0.004674 0.096312
v 0.000000 0.011900 0.016074
v -0.012337 0.013972 0.007252
v -0.017447 0.007859 -0.005818
v -0.012337 -0.002858 -0.015480
v -0.000000 -0.011900 -0.016074
v 0.012337 -0.013972 -0.007252
v 0.017447 -0.007859 0.005818
v 0.012337 0.002858 0.015480
v -0.047305 -0.055939 0.066298
v -0.059642 -0.053868 0.057476
v -0.064752 -0.059981 0.044405
v -0.059642 -0.070697 0.034743
v -0.047305 -0.079740 0.034149
v -0.034968 -0.081811 0.042971
v -0.029858 -0.075698 0.056041
v -0.034968 -0.064981 0.065703
v -0.047305 -0.075851 0.031898
v -0.053777 -0.085026 0.042302
v -0.056458 -0.084133 0.057347
v -0.053777 -0.073696 0.068218
v -0.047305 -0.059828 0.068549
v -0.040832 -0.050653 0.058144
v -0.038152 -0.051546 0.043100
v -0.040832 -0.061983 0.032228
v -0.071258 -0.064554 0.026959
v -0.077730 -0.073729 0.037363
v -0.080411 -0.072836 0.052408
v -0.077730 -0.062399 0.063279
v -0.071258 -0.048531 0.063610
v -0.064786 -0.039356 0.053205
v -0.062105 -0.040249 0.038161
v -0.064786 -0.050686 0.027290
v -0.071258 -0.052270 0.025746
v -0.080866 -0.063660 0.029252
v -0.084846 -0.070879 0.042150
v -0.080866 -0.069701 0.056884
v -0.071258 -0.060814 0.064823
v -0.061650 -0.049425 0.061317
v -0.057671 -0.042205 0.048419
v -0.061650 -0.043384 0.033685
v -0.088927 -0.036289 0.029240
v -0.098535 -0.047678 0.032746
v -0.102514 -0.054898 0.045644
v -0.098535 -0.053720 0.060378
v -0.088927 -0.044833 0.068317
v -0.079319 -0.033444 0.064811
v -0.075339 -0.026224 0.051913
v -0.079319 -0.027403 0.037179
v -0.088927 -0.046600 0.029712
v -0.101160 -0.051596 0.037439
v -0.106228 -0.050127 0.051808
v -0.101160 -0.043055 0.064403
v -0.088927 -0.034522 0.067845
v -0.076694 -0.029527 0.060118
v -0.071626 -0.030995 0.045749
v -0.076694 -0.038067 0.033154
v -0.104447 -0.021090 0.021632
v -0.116681 -0.026086 0.029359
v -0.121748 -0.024618 0.043729
v -0.116681 -0.017546 0.056323
v -0.104447 -0.009013 0.059765
v -0.092214 -0.004017 0.052039
v -0.087147 -0.005485 0.037669
v -0.092214 -0.012557 0.025074
v 0.000000 0.007388 0.018585
v -0.012101 0.012025 0.010439
v -0.017114 0.009617 -0.003823
v -0.012101 0.001576 -0.015845
v -0.000000 -0.007388 -0.018585
v 0.012101 -0.012025 -0.010439
v 0.017114 -0.009617 0.003823
v 0.012101 -0.001576 0.015845
v -0.048217 -0.066704 0.048038
v -0.060318 -0.062067 0.039891
v -0.065331 -0.064475 0.025630
v -0.060318 -0.072516 0.013608
v -0.048217 -0.081480 0.010867
v -0.036115 -0.086117 0.019014
v -0.031103 -0.083710 0.033276
v -0.036115 -0.075669 0.045298
v -0.048647 -0.074092 0.009457
v -0.051716 -0.087868 0.015383
v -0.052735 -0.093575 0.029550
v -0.051107 -0.087868 0.043660
v -0.047786 -0.074092 0.049448
v -0.044717 -0.060316 0.043523
v -0.043698 -0.054609 0.029356
v -0.045326 -0.060316 0.015245
v -0.079965 -0.066825 0.010132
v -0.083034 -0.080602 0.016057
v -0.084053 -0.086308 0.030224
v -0.082425 -0.080602 0.044335
v -0.079104 -0.066825 0.050122
v -0.076035 -0.053049 0.044197
v -0.075016 -0.047343 0.030030
v -0.076644 -0.053049 0.015919
v -0.079534 -0.067451 0.010137
v -0.091448 -0.074884 0.016230
v -0.096383 -0.077596 0.030464
v -0.091448 -0.073999 0.044500
v -0.079534 -0.066200 0.050117
v -0.067621 -0.058767 0.044024
v -0.062686 -0.056055 0.029790
v -0.067621 -0.059652 0.015753
v -0.095583 -0.042371 0.009352
v -0.107496 -0.049804 0.015445
v -0.112431 -0.052516 0.029679
v -0.107496 -0.048919 0.043716
v -0.095583 -0.041120 0.049332
v -0.083669 -0.033687 0.043239
v -0.078734 -0.030975 0.029005
v -0.083669 -0.034572 0.014968
v -0.095583 -0.042020 0.009344
v -0.107251 -0.049930 0.015311
v -0.112084 -0.053045 0.029497
v -0.107251 -0.049541 0.043593
v -0.095583 -0.041470 0.049340
v -0.083914 -0.033561 0.043373
v -0.079081 -0.030446 0.029187
v -0.083914 -0.033950 0.015091
v -0.111365 -0.018976 0.009027
v -0.123033 -0.026886 0.014994
v -0.127866 -0.030001 0.029180
v -0.123033 -0.026497 0.043276
v -0.111365 -0.018426 0.049023
v -0.099697 -0.010517 0.043056
v -0.094863 -0.007402 0.028870
v -0.099697 -0.010906 0.014774
v 0.000000 0.000371 0.019997
v -0.011745 0.008138 0.013994
v -0.016610 0.011138 -0.000207
v -0.011745 0.007614 -0.014286
v -0.000000 -0.000371 -0.019997
v 0.011745 -0.008138 -0.013994
v 0.016610 -0.011138 0.000207
v 0.011745 -0.007614 0.014286
v -0.049014 -0.072695 0.021353
v -0.060759 -0.064928 0.015349
v -0.065624 -0.061928 0.001149
v -0.060759 -0.065453 -0.012930
v -0.049014 -0.073438 -0.018641
v -0.037269 -0.081205 -0.012638
v -0.032404 -0.084205 0.001563
v -0.037269 -0.080680 0.015642
v -0.049014 -0.066844 -0.017652
v -0.056180 -0.080254 -0.015878
v -0.059148 -0.089454 -0.004008
v -0.056180 -0.089054 0.011003
v -0.049014 -0.079289 0.020363
v -0.041849 -0.065879 0.018589
v -0.038881 -0.056679 0.006720
v -0.041849 -0.057079 -0.008291
v -0.074108 -0.052829 -0.013064
v -0.081273 -0.066239 -0.011290
v -0.084241 -0.075438 0.000580
v -0.081273 -0.075038 0.015591
v -0.074108 -0.065273 0.024951
v -0.066942 -0.051863 0.023177
v -0.063974 -0.042664 0.011308
v -0.066942 -0.043064 -0.003703
v -0.074108 -0.054322 -0.013489
v -0.084718 -0.064792 -0.010008
v -0.089112 -0.071900 0.002817
v -0.084718 -0.071481 0.017474
v -0.074108 -0.063780 0.025377
v -0.063498 -0.053310 0.021896
v -0.059103 -0.046203 0.009071
v -0.063498 -0.046622 -0.005586
v -0.092019 -0.034575 -0.008683
v -0.102628 -0.045046 -0.005203
v -0.107023 -0.052153 0.007623
v -0.102628 -0.051734 0.022280
v -0.092019 -0.044034 0.030182
v -0.081409 -0.033564 0.026702
v -0.077014 -0.026456 0.013877
v -0.081409 -0.026875 -0.000780
v -0.092019 -0.031848 -0.007808
v -0.104072 -0.040895 -0.005131
v -0.109065 -0.049011 0.006849
v -0.104072 -0.051441 0.021114
v -0.092019 -0.046762 0.029307
v -0.079965 -0.037715 0.026630
v -0.074972 -0.029599 0.014650
v -0.079965 -0.027169 0.000385
v -0.105451 -0.011536 0.000354
v -0.117505 -0.020583 0.003031
v -0.122497 -0.028699 0.015011
v -0.117505 -0.031129 0.029276
v -0.105451 -0.026450 0.037469
v -0.093397 -0.017403 0.034792
v -0.088404 -0.009287 0.022812
v -0.093397 -0.006857 0.008547
v 0.000000 -0.005617 0.019195
v -0.011088 0.004453 0.016038
v -0.015681 0.011914 0.003486
v -0.011088 0.012396 -0.011108
v -0.000000 0.005617 -0.019195
v 0.011088 -0.004453 -0.016038
v 0.015681 -0.011914 -0.003486
v 0.011088 -0.012396 0.011108
v -0.048600 -0.064540 0.001952
v -0.059689 -0.054470 -0.001205
v -0.064282 -0.047009 -0.013756
v -0.059689 -0.046526 -0.028350
v -0.048600 -0.053305 -0.036438
v -0.037512 -0.063375 -0.033281
v -0.032919 -0.070836 -0.020729
v -0.037512 -0.071319 -0.006135
v -0.048600 -0.051262 -0.035717
v -0.056640 -0.064253 -0.034763
v -0.059970 -0.074121 -0.023545
v -0.056640 -0.075087 -0.008635
v -0.048600 -0.066583 0.001232
v -0.040561 -0.053592 0.000277
v -0.037230 -0.043724 -0.010941
v -0.040561 -0.042758 -0.025850
v -0.068829 -0.038350 -0.030363
v -0.076869 -0.051341 -0.029409
v -0.080199 -0.061209 -0.018191
v -0.076869 -0.062174 -0.003281
v -0.068829 -0.053671 0.006586
v -0.060789 -0.040680 0.005631
v -0.057459 -0.030811 -0.005587
v -0.060789 -0.029846 -0.020496
v -0.068829 -0.034401 -0.028175
v -0.077273 -0.047039 -0.029990
v -0.080770 -0.059075 -0.021201
v -0.077273 -0.063457 -0.006958
v -0.068829 -0.057619 0.004397
v -0.060385 -0.044981 0.006212
v -0.056888 -0.032946 -0.002576
v -0.060385 -0.028563 -0.016820
v -0.089953 -0.021599 -0.019049
v -0.098397 -0.034237 -0.020864
v -0.101894 -0.046272 -0.012075
v -0.098397 -0.050654 0.002168
v -0.089953 -0.044816 0.013523
v -0.081509 -0.032178 0.015338
v -0.078012 -0.020143 0.006550
v -0.081509 -0.015761 -0.007694
v -0.089953 -0.027636 -0.021971
v -0.102755 -0.035039 -0.018019
v -0.108058 -0.041369 -0.005130
v -0.102755 -0.042918 0.009146
v -0.089953 -0.038779 0.016446
v -0.077151 -0.031376 0.012493
v -0.071848 -0.025046 -0.000396
v -0.077151 -0.023497 -0.014671
v -0.097497 -0.012201 -0.017494
v -0.110299 -0.019604 -0.013542
v -0.115601 -0.025934 -0.000653
v -0.110299 -0.027483 0.013622
v -0.097497 -0.023344 0.020922
v -0.084694 -0.015941 0.016970
v -0.079392 -0.009611 0.004081
v -0.084694 -0.008062 -0.010195
v -0.015000 -0.015000 -0.015000
v 0.015000 -0.015000 -0.015000
v 0.015000 0.015000 -0.015000
v -0.015000 0.015000 -0.015000
v -0.015000 -0.015000 0.015000
v 0.015000 -0.015000 0.015000
v 0.015000 0.015000 0.015000
v -0.015000 0.015000 0.015000
v -0.032870 -0.021807 0.010147
v -0.002870 -0.021807 0.010147
v -0.002870 0.008193 0.010147
v -0.032870 0.008193 0.010147
v -0.032870 -0.021807 0.040147
v -0.002870 -0.021807 0.040147
v -0.002870 0.008193 0.040147
v -0.032870 0.008193 0.040147
v -0.056675 -0.030441 0.028396
v -0.026675 -0.030441 0.028396
v -0.026675 -0.000441 0.028396
v -0.056675 -0.000441 0.028396
v -0.056675 -0.030441 0.058396
v -0.026675 -0.030441 0.058396
v -0.026675 -0.000441 0.058396
v -0.056675 -0.000441 0.058396
v -0.082713 -0.032835 0.047759
v -0.052713 -0.032835 0.047759
v -0.052713 -0.002835 0.047759
v -0.082713 -0.002835 0.047759
v -0.082713 -0.032835 0.077759
v -0.052713 -0.032835 0.077759
v -0.052713 -0.002835 0.077759
v -0.082713 -0.002835 0.077759
v -0.100913 -0.033563 0.072529
v -0.070913 -0.033563 0.072529
v -0.070913 -0.003563 0.072529
v -0.100913 -0.003563 0.072529
v -0.100913 -0.033563 0.102529
v -0.070913 -0.033563 0.102529
v -0.070913 -0.003563 0.102529
v -0.100913 -0.003563 0.102529
v -0.062305 -0.082839 0.035223
v -0.032305 -0.082839 0.035223
v -0.032305 -0.052839 0.035223
v -0.062305 -0.052839 0.035223
v -0.062305 -0.082839 0.065223
v -0.032305 -0.082839 0.065223
v -0.032305 -0.052839 0.065223
v -0.062305 -0.052839 0.065223
v -0.086258 -0.071542 0.030284
v -0.056258 -0.071542 0.030284
v -0.056258 -0.041542 0.030284
v -0.086258 -0.041542 0.030284
v -0.086258 -0.071542 0.060284
v -0.056258 -0.071542 0.060284
v -0.056258 -0.041542 0.060284
v -0.086258 -0.041542 0.060284
v -0.103927 -0.055561 0.033778
v -0.073927 -0.055561 0.033778
v -0.073927 -0.025561 0.033778
v -0.103927 -0.025561 0.033778
v -0.103927 -0.055561 0.063778
v -0.073927 -0.055561 0.063778
v -0.073927 -0.025561 0.063778
v -0.103927 -0.025561 0.063778
v -0.119447 -0.030051 0.025699
v -0.089447 -0.030051 0.025699
v -0.089447 -0.000051 0.025699
v -0.119447 -0.000051 0.025699
v -0.119447 -0.030051 0.055699
v -0.089447 -0.030051 0.055699
v -0.089447 -0.000051 0.055699
v -0.119447 -0.000051 0.055699
v -0.063217 -0.089092 0.014453
v -0.033217 -0.089092 0.014453
v -0.033217 -0.059092 0.014453
v -0.063217 -0.059092 0.014453
v -0.063217 -0.089092 0.044453
v -0.033217 -0.089092 0.044453
v -0.033217 -0.059092 0.044453
v -0.063217 -0.059092 0.044453
v -0.094534 -0.081825 0.015127
v -0.064534 -0.081825 0.015127
v -0.064534 -0.051825 0.015127
v -0.094534 -0.051825 0.015127
v -0.094534 -0.081825 0.045127
v -0.064534 -0.081825 0.045127
v -0.064534 -0.051825 0.045127
v -0.094534 -0.051825 0.045127
v -0.110583 -0.056745 0.014342
v -0.080582 -0.056745 0.014342
v -0.080582 -0.026745 0.014342
v -0.110583 -0.026745 0.014342
v -0.110583 -0.056745 0.044342
v -0.080582 -0.056745 0.044342
v -0.080582 -0.026745 0.044342
v -0.110583 -0.026745 0.044342
v -0.126365 -0.033701 0.014025
v -0.096365 -0.033701 0.014025
v -0.096365 -0.003701 0.014025
v -0.126365 -0.003701 0.014025
v -0.126365 -0.033701 0.044025
v -0.096365 -0.033701 0.044025
v -0.096365 -0.003701 0.044025
v -0.126365 -0.003701 0.044025
v -0.064014 -0.088066 -0.013644
v -0.034014 -0.088066 -0.013644
v -0.034014 -0.058066 -0.013644
v -0.064014 -0.058066 -0.013644
v -0.064014 -0.088066 0.016356
v -0.034014 -0.088066 0.016356
v -0.034014 -0.058066 0.016356
v -0.064014 -0.058066 0.016356
v -0.089108 -0.074051 -0.009056
v -0.059108 -0.074051 -0.009056
v -0.059108 -0.044051 -0.009056
v -0.089108 -0.044051 -0.009056
v -0.089108 -0.074051 0.020944
v -0.059108 -0.074051 0.020944
v -0.059108 -0.044051 0.020944
v -0.089108 -0.044051 0.020944
v -0.107019 -0.054305 -0.004250
v -0.077019 -0.054305 -0.004250
v -0.077019 -0.024305 -0.004250
v -0.107019 -0.024305 -0.004250
v -0.107019 -0.054305 0.025750
v -0.077019 -0.054305 0.025750
v -0.077019 -0.024305 0.025750
v -0.107019 -0.024305 0.025750
v -0.120451 -0.033993 0.003911
v -0.090451 -0.033993 0.003911
v -0.090451 -0.003993 0.003911
v -0.120451 -0.003993 0.003911
v -0.120451 -0.033993 0.033911
v -0.090451 -0.033993 0.033911
v -0.090451 -0.003993 0.033911
v -0.120451 -0.003993 0.033911
v -0.063600 -0.073923 -0.032243
v -0.033600 -0.073923 -0.032243
v -0.033600 -0.043923 -0.032243
v -0.063600 -0.043923 -0.032243
v -0.063600 -0.073923 -0.002243
v -0.033600 -0.073923 -0.002243
v -0.033600 -0.043923 -0.002243
v -0.063600 -0.043923 -0.002243
v -0.083829 -0.061010 -0.026889
v -0.053829 -0.061010 -0.026889
v -0.053829 -0.031010 -0.026889
v -0.083829 -0.031010 -0.026889
v -0.083829 -0.061010 0.003111
v -0.053829 -0.061010 0.003111
v -0.053829 -0.031010 0.003111
v -0.083829 -0.031010 0.003111
v -0.104953 -0.048207 -0.017763
v -0.074953 -0.048207 -0.017763
v -0.074953 -0.018207 -0.017763
v -0.104953 -0.018207 -0.017763
v -0.104953 -0.048207 0.012237
v -0.074953 -0.048207 0.012237
v -0.074953 -0.018207 0.012237
v -0.104953 -0.018207 0.012237
v -0.112497 -0.032772 -0.013286
v -0.082497 -0.032772 -0.013286
v -0.082497 -0.002772 -0.013286
v -0.112497 -0.002772 -0.013286
v -0.112497 -0.032772 0.016714
v -0.082497 -0.032772 0.016714
v -0.082497 -0.002772 0.016714
v -0.112497 -0.002772 0.016714
f 1 2 9
f 2 10 9
f 2 3 10
f 3 11 10
f 3 4 11
f 4 12 11
f 4 5 12
f 5 13 12
f 5 6 13
f 6 14 13
f 6 7 14
f 7 15 14
f 7 8 15
f 8 16 15
f 8 1 16
f 1 9 16
f 17 18 25
f 18 26 25
f 18 19 26
f 19 27 26
f 19 20 27
f 20 28 27
f 20 21 28
f 21 29 28
f 21 22 29
f 22 30 29
f 22 23 30
f 23 31 30
f 23 24 31
f 24 32 31
f 24 17 32
f 17 25 32
f 33 34 41
f 34 42 41
f 34 35 42
f 35 43 42
f 35 36 43
f 36 44 43
f 36 37 44
f 37 45 44
f 37 38 45
f 38 46 45
f 38 39 46
f 39 47 46
f 39 40 47
f 40 48 47
f 40 33 48
f 33 41 48
f 49 50 57
f 50 58 57
f 50 51 58
f 51 59 58
f 51 52 59
f 52 60 59
f 52 53 60
f 53 61 60
f 53 54 61
f 54 62 61
f 54 55 62
f 55 63 62
f 55 56 63
f 56 64 63
f 56 49 64
f 49 57 64
f 65 66 73
f 66 74 73
f 66 67 74
f 67 75 74
f 67 68 75
f 68 76 75
f 68 69 76
f 69 77 76
f 69 70 77
f 70 78 77
f 70 71 78
f 71 79 78
f 71 72 79
f 72 80 79
f 72 65 80
f 65 73 80
f 81 82 89
f 82 90 89
f 82 83 90
f 83 91 90
f 83 84 91
f 84 92 91
f 84 85 92
f 85 93 92
f 85 86 93
f 86 94 93
f 86 87 94
f 87 95 94
f 87 88 95
f 88 96 95
f 88 81 96
f 81 89 96
f 97 98 105
f 98 106 105
f 98 99 106
f 99 107 106
f 99 100 107
f 100 108 107
f 100 101 108
f 101 109 108
f 101 102 109
f 102 110 109
f 102 103 110
f 103 111 110
f 103 104 111
f 104 112 111
f 104 97 112
f 97 105 112
f 113 114 121
f 114 122 121
f 114 115 122
f 115 123 122
f 115 116 123
f 116 124 123
f 116 117 124
f 117 125 124
f 117 118 125
f 118 126 125
f 118 119 126
f 119 127 126
f 119 120 127
f 120 128 127
f 120 113 128
f 113 121 128
f 129 130 137
f 130 138 137
f 130 131 138
f 131 139 138
f 131 132 139
f 132 140 139
f 132 133 140
f 133 141 140
f 133 134 141
f 134 142 141
f 134 135 142
f 135 143 142
f 135 136 143
f 136 144 143
f 136 129 144
f 129 137 144
f 145 146 153
f 146 154 153
f 146 147 154
f 147 155 154
f 147 148 155
f 148 156 155
f 148 149 156
f 149 157 156
f 149 150 157
f 150 158 157
f 150 151 158
f 151 159 158
f 151 152 159
f 152 160 159
f 152 145 160
f 145 153 160
f 161 162 169
f 162 170 169
f 162 163 170
f 163 171 170
f 163 164 171
f 164 172 171
f 164 165 172
f 165 173 172
f 165 166 173
f 166 174 173
f 166 167 174
f 167 175 174
f 167 168 175
f 168 176 175
f 168 161 176
f 161 169 176
f 177 178 185
f 178 186 185
f 178 179 186
f 179 187 186
f 179 180 187
f 180 188 187
f 180 181 188
f 181 189 188
f 181 182 189
f 182 190 189
f 182 183 190
f 183 191 190
f 183 184 191
f 184 192 191
f 184 177 192
f 177 185 192
f 193 194 201
f 194 202 201
f 194 195 202
f 195 203 202
f 195 196 203
f 196 204 203
f 196 197 204
f 197 205 204
f 197 198 205
f 198 206 205
f 198 199 206
f 199 207 206
f 199 200 207
f 200 208 207
f 200 193 208
f 193 201 208
f 209 210 217
f 210 218 217
f 210 211 218
f 211 219 218
f 211 212 219
f 212 220 219
f 212 213 220
f 213 221 220
f 213 214 221
f 214 222 221
f 214 215 222
f 215 223 222
f 215 216 223
f 216 224 223
f 216 209 224
f 209 217 224
f 225 226 233
f 226 234 233
f 226 227 234
f 227 235 234
f 227 228 235
f 228 236 235
f 228 229 236
f 229 237 236
f 229 230 237
f 230 238 237
f 230 231 238
f 231 239 238
f 231 232 239
f 232 240 239
f 232 225 240
f 225 233 240
f 241 242 249
f 242 250 249
f 242 243 250
f 243 251 250
f 243 244 251
f 244 252 251
f 244 245 252
f 245 253 252
f 245 246 253
f 246 254 253
f 246 247 254
f 247 255 254
f 247 248 255
f 248 256 255
f 248 241 256
f 241 249 256
f 257 258 265
f 258 266 265
f 258 259 266
f 259 267 266
f 259 260 267
f 260 268 267
f 260 261 268
f 261 269 268
f 261 262 269
f 262 270 269
f 262 263 270
f 263 271 270
f 263 264 271
f 264 272 271
f 264 257 272
f 257 265 272
f 273 274 281
f 274 282 281
f 274 275 282
f 275 283 282
f 275 276 283
f 276 284 283
f 276 277 284
f 277 285 284
f 277 278 285
f 278 286 285
f 278 279 286
f 279 287 286
f 279 280 287
f 280 288 287
f 280 273 288
f 273 281 288
f 289 290 297
f 290 298 297
f 290 291 298
f 291 299 298
f 291 292 299
f 292 300 299
f 292 293 300
f 293 301 300
f 293 294 301
f 294 302 301
f 294 295 302
f 295 303 302
f 295 296 303
f 296 304 303
f 296 289 304
f 289 297 304
f 305 306 313
f 306 314 313
f 306 307 314
f 307 315 314
f 307 308 315
f 308 316 315
f 308 309 316
f 309 317 316
f 309 310 317
f 310 318 317
f 310 311 318
f 311 319 318
f 311 312 319
f 312 320 319
f 312 305 320
f 305 313 320
f 321 322 323
f 321 323 324
f 325 326 327
f 325 327 328
f 321 325 326
f 321 326 322
f 322 326 327
f 322 327 323
f 323 327 328
f 323 328 324
f 324 328 325
f 324 325 321
f 329 330 331
f 329 331 332
f 333 334 335
f 333 335 336
f 329 333 334
f 329 334 330
f 330 334 335
f 330 335 331
f 331 335 336
f 331 336 332
f 332 336 333
f 332 333 329
f 337 338 339
f 337 339 340
f 341 342 343
f 341 343 344
f 337 341 342
f 337 342 338
f 338 342 343
f 338 343 339
f 339 343 344
f 339 344 340
f 340 344 341
f 340 341 337
f 345 346 347
f 345 347 348
f 349 350 351
f 349 351 352
f 345 349 350
f 345 350 346
f 346 350 351
f 346 351 347
f 347 351 352
f 347 352 348
f 348 352 349
f 348 349 345
f 353 354 355
f 353 355 356
f 357 358 359
f 357 359 360
f 353 357 358
f 353 358 354
f 354 358 359
f 354 359 355
f 355 359 360
f 355 360 356
f 356 360 357
f 356 357 353
f 361 362 363
f 361 363 364
f 365 366 367
f 365 367 368
f 361 365 366
f 361 366 362
f 362 366 367
f 362 367 363
f 363 367 368
f 363 368 364
f 364 368 365
f 364 365 361
f 369 370 371
f 369 371 372
f 373 374 375
f 373 375 376
f 369 373 374
f 369 374 370
f 370 374 375
f 370 375 371
f 371 375 376
f 371 376 372
f 372 376 373
f 372 373 369
f 377 378 379
f 377 379 380
f 381 382 383
f 381 383 384
f 377 381 382
f 377 382 378
f 378 382 383
f 378 383 379
f 379 383 384
f 379 384 380
f 380 384 381
f 380 381 377
f 385 386 387
f 385 387 388
f 389 390 391
f 389 391 392
f 385 389 390
f 385 390 386
f 386 390 391
f 386 391 387
f 387 391 392
f 387 392 388
f 388 392 389
f 388 389 385
f 393 394 395
f 393 395 396
f 397 398 399
f 397 399 400
f 393 397 398
f 393 398 394
f 394 398 399
f 394 399 395
f 395 399 400
f 395 400 396
f 396 400 397
f 396 397 393
f 401 402 403
f 401 403 404
f 405 406 407
f 405 407 408
f 401 405 406
f 401 406 402
f 402 406 407
f 402 407 403
f 403 407 408
f 403 408 404
f 404 408 405
f 404 405 401
f 409 410 411
f 409 411 412
f 413 414 415
f 413 415 416
f 409 413 414
f 409 414 410
f 410 414 415
f 410 415 411
f 411 415 416
f 411 416 412
f 412 416 413
f 412 413 409
f 417 418 419
f 417 419 420
f 421 422 423
f 421 423 424
f 417 421 422
f 417 422 418
f 418 422 423
f 418 423 419
f 419 423 424
f 419 424 420
f 420 424 421
f 420 421 417
f 425 426 427
f 425 427 428
f 429 430 431
f 429 431 432
f 425 429 430
f 425 430 426
f 426 430 431
f 426 431 427
f 427 431 432
f 427 432 428
f 428 432 429
f 428 429 425
f 433 434 435
f 433 435 436
f 437 438 439
f 437 439 440
f 433 437 438
f 433 438 434
f 434 438 439
f 434 439 435
f 435 439 440
f 435 440 436
f 436 440 437
f 436 437 433
f 441 442 443
f 441 443 444
f 445 446 447
f 445 447 448
f 441 445 446
f 441 446 442
f 442 446 447
f 442 447 443
f 443 447 448
f 443 448 444
f 444 448 445
f 444 445 441
f 449 450 451
f 449 451 452
f 453 454 455
f 453 455 456
f 449 453 454
f 449 454 450
f 450 454 455
f 450 455 451
f 451 455 456
f 451 456 452
f 452 456 453
f 452 453 449
f 457 458 459
f 457 459 460
f 461 462 463
f 461 463 464
f 457 461 462
f 457 462 458
f 458 462 463
f 458 463 459
f 459 463 464
f 459 464 460
f 460 464 461
f 460 461 457
f 465 466 467
f 465 467 468
f 469 470 471
f 469 471 472
f 465 469 470
f 465 470 466
f 466 470 471
f 466 471 467
f 467 471 472
f 467 472 468
f 468 472 469
f 468 469 465
f 473 474 475
f 473 475 476
f 477 478 479
f 477 479 480
f 473 477 478
f 473 478 474
f 474 478 479
f 474 479 475
f 475 479 480
f 475 480 476
f 476 480 477
f 476 477 473
f 481 482 483
f 481 483 484
f 485 486 487
f 485 487 488
f 481 485 486
f 481 486 482
f 482 486 487
f 482 487 483
f 483 487 488
f 483 488 484
f 484 488 485
f 484 485 481
f 489 490 497
f 490 498 497
f 490 491 498
f 491 499 498
f 491 492 499
f 492 500 499
f 492 493 500
f 493 501 500
f 493 494 501
f 494 502 501
f 494 495 502
f 495 503 502
f 495 496 503
f 496 504 503
f 496 489 504
f 489 497 504
f 505 506 513
f 506 514 513
f 506 507 514
f 507 515 514
f 507 508 515
f 508 516 515
f 508 509 516
f 509 517 516
f 509 510 517
f 510 518 517
f 510 511 518
f 511 519 518
f 511 512 519
f 512 520 519
f 512 505 520
f 505 513 520
f 521 522 529
f 522 530 529
f 522 523 530
f 523 531 530
f 523 524 531
f 524 532 531
f 524 525 532
f 525 533 532
f 525 526 533
f 526 534 533
f 526 527 534
f 527 535 534
f 527 528 535
f 528 536 535
f 528 521 536
f 521 529 536
f 537 538 545
f 538 546 545
f 538 539 546
f 539 547 546
f 539 540 547
f 540 548 547
f 540 541 548
f 541 549 548
f 541 542 549
f 542 550 549
f 542 543 550
f 543 551 550
f 543 544 551
f 544 552 551
f 544 537 552
f 537 545 552
f 553 554 561
f 554 562 561
f 554 555 562
f 555 563 562
f 555 556 563
f 556 564 563
f 556 557 564
f 557 565 564
f 557 558 565
f 558 566 565
f 558 559 566
f 559 567 566
f 559 560 567
f 560 568 567
f 560 553 568
f 553 561 568
f 569 570 577
f 570 578 577
f 570 571 578
f 571 579 578
f 571 572 579
f 572 580 579
f 572 573 580
f 573 581 580
f 573 574 581
f 574 582 581
f 574 575 582
f 575 583 582
f 575 576 583
f 576 584 583
f 576 569 584
f 569 577 584
f 585 586 593
f 586 594 593
f 586 587 594
f 587 595 594
f 587 588 595
f 588 596 595
f 588 589 596
f 589 597 596
f 589 590 597
f 590 598 597
f 590 591 598
f 591 599 598
f 591 592 599
f 592 600 599
f 592 585 600
f 585 593 600
f 601 602 609
f 602 610 609
f 602 603 610
f 603 611 610
f 603 604 611
f 604 612 611
f 604 605 612
f 605 613 612
f 605 606 613
f 606 614 613
f 606 607 614
f 607 615 614
f 607 608 615
f 608 616 615
f 608 601 616
f 601 609 616
f 617 618 625
f 618 626 625
f 618 619 626
f 619 627 626
f 619 620 627
f 620 628 627
f 620 621 628
f 621 629 628
f 621 622 629
f 622 630 629
f 622 623 630
f 623 631 630
f 623 624 631
f 624 632 631
f 624 617 632
f 617 625 632
f 633 634 641
f 634 642 641
f 634 635 642
f 635 643 642
f 635 636 643
f 636 644 643
f 636 637 644
f 637 645 644
f 637 638 645
f 638 646 645
f 638 639 646
f 639 647 646
f 639 640 647
f 640 648 647
f 640 633 648
f 633 641 648
f 649 650 657
f 650 658 657
f 650 651 658
f 651 659 658
f 651 652 659
f 652 660 659
f 652 653 660
f 653 661 660
f 653 654 661
f 654 662 661
f 654 655 662
f 655 663 662
f 655 656 663
f 656 664 663
f 656 649 664
f 649 657 664
f 665 666 673
f 666 674 673
f 666 667 674
f 667 675 674
f 667 668 675
f 668 676 675
f 668 669 676
f 669 677 676
f 669 670 677
f 670 678 677
f 670 671 678
f 671 679 678
f 671 672 679
f 672 680 679
f 672 665 680
f 665 673 680
f 681 682 689
f 682 690 689
f 682 683 690
f 683 691 690
f 683 684 691
f 684 692 691
f 684 685 692
f 685 693 692
f 685 686 693
f 686 694 693
f 686 687 694
f 687 695 694
f 687 688 695
f 688 696 695
f 688 681 696
f 681 689 696
f 697 698 705
f 698 706 705
f 698 699 706
f 699 707 706
f 699 700 707
f 700 708 707
f 700 701 708
f 701 709 708
f 701 702 709
f 702 710 709
f 702 703 710
f 703 711 710
f 703 704 711
f 704 712 711
f 704 697 712
f 697 705 712
f 713 714 721
f 714 722 721
f 714 715 722
f 715 723 722
f 715 716 723
f 716 724 723
f 716 717 724
f 717 725 724
f 717 718 725
f 718 726 725
f 718 719 726
f 719 727 726
f 719 720 727
f 720 728 727
f 720 713 728
f 713 721 728
f 729 730 737
f 730 738 737
f 730 731 738
f 731 739 738
f 731 732 739
f 732 740 739
f 732 733 740
f 733 741 740
f 733 734 741
f 734 742 741
f 734 735 742
f 735 743 742
f 735 736 743
f 736 744 743
f 736 729 744
f 729 737 744
f 745 746 753
f 746 754 753
f 746 747 754
f 747 755 754
f 747 748 755
f 748 756 755
f 748 749 756
f 749 757 756
f 749 750 757
f 750 758 757
f 750 751 758
f 751 759 758
f 751 752 759
f 752 760 759
f 752 745 760
f 745 753 760
f 761 762 769
f 762 770 769
f 762 763 770
f 763 771 770
f 763 764 771
f 764 772 771
f 764 765 772
f 765 773 772
f 765 766 773
f 766 774 773
f 766 767 774
f 767 775 774
f 767 768 775
f 768 776 775
f 768 761 776
f 761 769 776
f 777 778 785
f 778 786 785
f 778 779 786
f 779 787 786
f 779 780 787
f 780 788 787
f 780 781 788
f 781 789 788
f 781 782 789
f 782 790 789
f 782 783 790
f 783 791 790
f 783 784 791
f 784 792 791
f 784 777 792
f 777 785 792
f 793 794 801
f 794 802 801
f 794 795 802
f 795 803 802
f 795 796 803
f 796 804 803
f 796 797 804
f 797 805 804
f 797 798 805
f 798 806 805
f 798 799 806
f 799 807 806
f 799 800 807
f 800 808 807
f 800 793 808
f 793 801 808
f 809 810 811
f 809 811 812
f 813 814 815
f 813 815 816
f 809 813 814
f 809 814 810
f 810 814 815
f 810 815 811
f 811 815 816
f 811 816 812
f 812 816 813
f 812 813 809
f 817 818 819
f 817 819 820
f 821 822 823
f 821 823 824
f 817 821 822
f 817 822 818
f 818 822 823
f 818 823 819
f 819 823 824
f 819 824 820
f 820 824 821
f 820 821 817
f 825 826 827
f 825 827 828
f 829 830 831
f 829 831 832
f 825 829 830
f 825 830 826
f 826 830 831
f 826 831 827
f 827 831 832
f 827 832 828
f 828 832 829
f 828 829 825
f 833 834 835
f 833 835 836
f 837 838 839
f 837 839 840
f 833 837 838
f 833 838 834
f 834 838 839
f 834 839 835
f 835 839 840
f 835 840 836
f 836 840 837
f 836 837 833
f 841 842 843
f 841 843 844
f 845 846 847
f 845 847 848
f 841 845 846
f 841 846 842
f 842 846 847
f 842 847 843
f 843 847 848
f 843 848 844
f 844 848 845
f 844 845 841
f 849 850 851
f 849 851 852
f 853 854 855
f 853 855 856
f 849 853 854
f 849 854 850
f 850 854 855
f 850 855 851
f 851 855 856
f 851 856 852
f 852 856 853
f 852 853 849
f 857 858 859
f 857 859 860
f 861 862 863
f 861 863 864
f 857 861 862
f 857 862 858
f 858 862 863
f 858 863 859
f 859 863 864
f 859 864 860
f 860 864 861
f 860 861 857
f 865 866 867
f 865 867 868
f 869 870 871
f 869 871 872
f 865 869 870
f 865 870 866
f 866 870 871
f 866 871 867
f 867 871 872
f 867 872 868
f 868 872 869
f 868 869 865
f 873 874 875
f 873 875 876
f 877 878 879
f 877 879 880
f 873 877 878
f 873 878 874
f 874 878 879
f 874 879 875
f 875 879 880
f 875 880 876
f 876 880 877
f 876 877 873
f 881 882 883
f 881 883 884
f 885 886 887
f 885 887 888
f 881 885 886
f 881 886 882
f 882 886 887
f 882 887 883
f 883 887 888
f 883 888 884
f 884 888 885
f 884 885 881
f 889 890 891
f 889 891 892
f 893 894 895
f 893 895 896
f 889 893 894
f 889 894 890
f 890 894 895
f 890 895 891
f 891 895 896
f 891 896 892
f 892 896 893
f 892 893 889
f 897 898 899
f 897 899 900
f 901 902 903
f 901 903 904
f 897 901 902
f 897 902 898
f 898 902 903
f 898 903 899
f 899 903 904
f 899 904 900
f 900 904 901
f 900 901 897
f 905 906 907
f 905 907 908
f 909 910 911
f 909 911 912
f 905 909 910
f 905 910 906
f 906 910 911
f 906 911 907
f 907 911 912
f 907 912 908
f 908 912 909
f 908 909 905
f 913 914 915
f 913 915 916
f 917 918 919
f 917 919 920
f 913 917 918
f 913 918 914
f 914 918 919
f 914 919 915
f 915 919 920
f 915 920 916
f 916 920 917
f 916 917 913
f 921 922 923
f 921 923 924
f 925 926 927
f 925 927 928
f 921 925 926
f 921 926 922
f 922 926 927
f 922 927 923
f 923 927 928
f 923 928 924
f 924 928 925
f 924 925 921
f 929 930 931
f 929 931 932
f 933 934 935
f 933 935 936
f 929 933 934
f 929 934 930
f 930 934 935
f 930 935 931
f 931 935 936
f 931 936 932
f 932 936 933
f 932 933 929
f 937 938 939
f 937 939 940
f 941 942 943
f 941 943 944
f 937 941 942
f 937 942 938
f 938 942 943
f 938 943 939
f 939 943 944
f 939 944 940
f 940 944 941
f 940 941 937
f 945 946 947
f 945 947 948
f 949 950 951
f 949 951 952
f 945 949 950
f 945 950 946
f 946 950 951
f 946 951 947
f 947 951 952
f 947 952 948
f 948 952 949
f 948 949 945
f 953 954 955
f 953 955 956
f 957 958 959
f 957 959 960
f 953 957 958
f 953 958 954
f 954 958 959
f 954 959 955
f 955 959 960
f 955 960 956
f 956 960 957
f 956 957 953
f 961 962 963
f 961 963 964
f 965 966 967
f 965 967 968
f 961 965 966
f 961 966 962
f 962 966 967
f 962 967 963
f 963 967 968
f 963 968 964
f 964 968 965
f 964 965 961
f 969 970 971
f 969 971 972
f 973 974 975
f 973 975 976
f 969 973 974
f 969 974 970
f 970 974 975
f 970 975 971
f 971 975 976
f 971 976 972
f 972 976 973
f 972 973 969
