# SignFlow 3D Hand Mesh - Frame 129
v 0.000000 -0.005447 0.019244
v -0.012125 -0.010856 0.011625
v -0.017147 -0.009906 -0.002804
v -0.012125 -0.003153 -0.015590
v -0.000000 0.005447 -0.019244
v 0.012125 0.010856 -0.011625
v 0.017147 0.009906 0.002804
v 0.012125 0.003153 0.015590
v 0.019163 -0.036156 0.010553
v 0.007038 -0.041566 0.002934
v 0.002016 -0.040616 -0.011495
v 0.007038 -0.033863 -0.024282
v 0.019163 -0.025263 -0.027936
v 0.031287 -0.019854 -0.020317
v 0.036309 -0.020804 -0.005888
v 0.031287 -0.027556 0.006899
v 0.019163 -0.034673 0.010912
v 0.009398 -0.043539 0.003143
v 0.005354 -0.044890 -0.011559
v 0.009398 -0.037934 -0.024581
v 0.019163 -0.026746 -0.028295
v 0.028927 -0.017880 -0.020526
v 0.032972 -0.016529 -0.005824
v 0.028927 -0.023485 0.007197
v 0.040207 -0.054361 0.006931
v 0.030442 -0.063227 -0.000838
v 0.026398 -0.064578 -0.015539
v 0.030442 -0.057622 -0.028561
v 0.040207 -0.046434 -0.032275
v 0.049971 -0.037568 -0.024506
v 0.054016 -0.036217 -0.009805
v 0.049971 -0.043173 0.003217
v 0.040207 -0.064073 0.001922
v 0.029797 -0.067053 -0.008898
v 0.025485 -0.060276 -0.021929
v 0.029797 -0.047713 -0.029537
v 0.040207 -0.036722 -0.027266
v 0.050616 -0.033742 -0.016446
v 0.054928 -0.040519 -0.003415
v 0.050616 -0.053082 0.004193
v 0.059591 -0.079454 -0.012491
v 0.049182 -0.082434 -0.023312
v 0.044870 -0.075657 -0.036342
v 0.049182 -0.063094 -0.043950
v 0.059591 -0.052103 -0.041679
v 0.070001 -0.049123 -0.030859
v 0.074313 -0.055900 -0.017828
v 0.070001 -0.068463 -0.010220
v 0.059591 -0.079178 -0.012237
v 0.047554 -0.080765 -0.021560
v 0.042569 -0.073573 -0.034119
v 0.047554 -0.061815 -0.042558
v 0.059591 -0.052379 -0.041933
v 0.071628 -0.050792 -0.032611
v 0.076614 -0.057984 -0.020052
v 0.071628 -0.069742 -0.011612
v 0.074060 -0.096593 -0.027953
v 0.062023 -0.098180 -0.037276
v 0.057037 -0.090989 -0.049835
v 0.062023 -0.079231 -0.058274
v 0.074060 -0.069795 -0.057650
v 0.086097 -0.068208 -0.048327
v 0.091082 -0.075400 -0.035768
v 0.086097 -0.087157 -0.027329
v 0.000000 -0.013599 0.014665
v -0.010142 -0.016843 0.003668
v -0.014342 -0.010221 -0.009478
v -0.010142 0.002389 -0.017072
v -0.000000 0.013599 -0.014665
v 0.010142 0.016843 -0.003668
v 0.014342 0.010221 0.009478
v 0.010142 -0.002389 0.017072
v 0.068185 -0.065043 -0.033040
v 0.058043 -0.068287 -0.044037
v 0.053843 -0.061664 -0.057183
v 0.058043 -0.049054 -0.064777
v 0.068185 -0.037844 -0.062370
v 0.078327 -0.034600 -0.051373
v 0.082527 -0.041223 -0.038227
v 0.078327 -0.053832 -0.030633
v 0.071166 -0.051443 -0.027928
v 0.069635 -0.065570 -0.033622
v 0.067255 -0.071421 -0.047565
v 0.065420 -0.065570 -0.061590
v 0.065204 -0.051443 -0.067482
v 0.066735 -0.037317 -0.061788
v 0.069115 -0.031465 -0.047845
v 0.070950 -0.037317 -0.033820
v 0.099190 -0.052778 -0.032152
v 0.097659 -0.066904 -0.037845
v 0.095279 -0.072756 -0.051788
v 0.093444 -0.066904 -0.065814
v 0.093229 -0.052778 -0.071705
v 0.094760 -0.038651 -0.066012
v 0.097140 -0.032800 -0.052069
v 0.098975 -0.038651 -0.038044
v 0.089583 -0.052778 -0.033058
v 0.088039 -0.066429 -0.039809
v 0.091281 -0.072084 -0.053659
v 0.097410 -0.066429 -0.066496
v 0.102836 -0.052778 -0.070799
v 0.104380 -0.039127 -0.064048
v 0.101138 -0.033472 -0.050198
v 0.095009 -0.039127 -0.037361
v 0.110551 -0.058791 -0.025695
v 0.109007 -0.072442 -0.032446
v 0.112249 -0.078097 -0.046296
v 0.118378 -0.072442 -0.059133
v 0.123804 -0.058791 -0.063436
v 0.125348 -0.045139 -0.056685
v 0.122106 -0.039485 -0.042835
v 0.115977 -0.045139 -0.029999
v 0.117177 -0.044544 -0.030529
v 0.110920 -0.057617 -0.025606
v 0.108328 -0.071378 -0.031789
v 0.110920 -0.077766 -0.045457
v 0.117177 -0.073038 -0.058602
v 0.123435 -0.059964 -0.063525
v 0.126027 -0.046203 -0.057342
v 0.123435 -0.039816 -0.043675
v 0.135400 -0.050854 -0.024124
v 0.129142 -0.063927 -0.019201
v 0.126550 -0.077688 -0.025384
v 0.129142 -0.084076 -0.039052
v 0.135400 -0.079348 -0.052197
v 0.141657 -0.066274 -0.057120
v 0.144249 -0.052513 -0.050937
v 0.141657 -0.046126 -0.037270
v 0.000000 -0.017158 0.010276
v -0.008993 -0.017740 -0.002097
v -0.012719 -0.007930 -0.013242
v -0.008993 0.006525 -0.016630
v -0.000000 0.017158 -0.010276
v 0.008993 0.017740 0.002097
v 0.012719 0.007930 0.013242
v 0.008993 -0.006525 0.016630
v 0.073597 -0.048318 -0.041753
v 0.064604 -0.048900 -0.054126
v 0.060878 -0.039090 -0.065270
v 0.064604 -0.024635 -0.068658
v 0.073597 -0.014002 -0.062305
v 0.082591 -0.013419 -0.049931
v 0.086316 -0.023229 -0.038787
v 0.082591 -0.037685 -0.035399
v 0.075598 -0.031160 -0.032129
v 0.071842 -0.044938 -0.037639
v 0.069115 -0.050646 -0.051578
v 0.069012 -0.044938 -0.065781
v 0.071596 -0.031160 -0.071928
v 0.075352 -0.017381 -0.066418
v 0.078080 -0.011674 -0.052479
v 0.078182 -0.017381 -0.038276
v 0.109661 -0.039075 -0.035554
v 0.105906 -0.052854 -0.041064
v 0.103178 -0.058561 -0.055003
v 0.103076 -0.052854 -0.069206
v 0.105659 -0.039075 -0.075354
v 0.109415 -0.025296 -0.069844
v 0.112143 -0.019589 -0.055905
v 0.112245 -0.025296 -0.041701
v 0.104624 -0.039075 -0.035686
v 0.101279 -0.052553 -0.042126
v 0.101672 -0.058135 -0.056374
v 0.105573 -0.052553 -0.070082
v 0.110696 -0.039075 -0.075222
v 0.114042 -0.025597 -0.068782
v 0.113649 -0.020015 -0.054534
v 0.109748 -0.025597 -0.040825
v 0.127182 -0.046330 -0.032221
v 0.123837 -0.059807 -0.038661
v 0.124230 -0.065390 -0.052909
v 0.128131 -0.059807 -0.066618
v 0.133255 -0.046330 -0.071758
v 0.136600 -0.032852 -0.065317
v 0.136207 -0.027269 -0.051070
v 0.132306 -0.032852 -0.037361
v 0.130218 -0.029341 -0.041435
v 0.121522 -0.040202 -0.035053
v 0.117920 -0.054653 -0.038592
v 0.121522 -0.064228 -0.049979
v 0.130218 -0.063318 -0.062543
v 0.138914 -0.052457 -0.068925
v 0.142516 -0.038007 -0.065387
v 0.138914 -0.028432 -0.054000
v 0.155725 -0.039836 -0.024541
v 0.147029 -0.050698 -0.018159
v 0.143427 -0.065148 -0.021698
v 0.147029 -0.074723 -0.033085
v 0.155725 -0.073813 -0.045650
v 0.164421 -0.062952 -0.052032
v 0.168023 -0.048502 -0.048493
v 0.164421 -0.038927 -0.037106
v 0.000000 -0.019605 0.003958
v -0.008230 -0.016138 -0.008475
v -0.011639 -0.003218 -0.015943
v -0.008230 0.011587 -0.014072
v -0.000000 0.019605 -0.003958
v 0.008230 0.016138 0.008475
v 0.011639 0.003218 0.015943
v 0.008230 -0.011587 0.014072
v 0.076896 -0.030494 -0.049983
v 0.068666 -0.027028 -0.062415
v 0.065257 -0.014108 -0.069883
v 0.068666 0.000697 -0.068012
v 0.076896 0.008715 -0.057898
v 0.085127 0.005249 -0.045466
v 0.088536 -0.007671 -0.037998
v 0.085127 -0.022476 -0.039869
v 0.078762 -0.010889 -0.034028
v 0.073739 -0.024298 -0.039441
v 0.070566 -0.029852 -0.053347
v 0.071101 -0.024298 -0.067602
v 0.075031 -0.010889 -0.073853
v 0.080053 0.002519 -0.068440
v 0.083226 0.008073 -0.054533
v 0.082692 0.002519 -0.040279
v 0.107925 -0.020710 -0.036760
v 0.102902 -0.034118 -0.042173
v 0.099729 -0.039672 -0.056079
v 0.100264 -0.034118 -0.070334
v 0.104194 -0.020710 -0.076585
v 0.109216 -0.007301 -0.071172
v 0.112389 -0.001747 -0.057266
v 0.111854 -0.007301 -0.043011
v 0.102857 -0.020710 -0.036931
v 0.099986 -0.034315 -0.043331
v 0.100673 -0.039951 -0.057546
v 0.104514 -0.034315 -0.071250
v 0.109261 -0.020710 -0.076415
v 0.112132 -0.007104 -0.070014
v 0.111446 -0.001469 -0.055799
v 0.107604 -0.007104 -0.042095
v 0.124579 -0.026951 -0.033407
v 0.121708 -0.040557 -0.039807
v 0.122395 -0.046192 -0.054023
v 0.126236 -0.040557 -0.067727
v 0.130983 -0.026951 -0.072891
v 0.133854 -0.013346 -0.066491
v 0.133168 -0.007710 -0.052276
v 0.129326 -0.013346 -0.038572
v 0.127781 -0.008258 -0.046039
v 0.119871 -0.017900 -0.037165
v 0.116594 -0.032845 -0.037654
v 0.119871 -0.044337 -0.047220
v 0.127781 -0.045645 -0.060259
v 0.135692 -0.036002 -0.069134
v 0.138968 -0.021057 -0.068645
v 0.135692 -0.009565 -0.059079
v 0.149845 -0.013550 -0.032124
v 0.141935 -0.023193 -0.023249
v 0.138658 -0.038138 -0.023738
v 0.141935 -0.049630 -0.033305
v 0.149845 -0.050937 -0.046344
v 0.157755 -0.041295 -0.055219
v 0.161032 -0.026350 -0.054730
v 0.157755 -0.014858 -0.045164
v 0.000000 -0.019893 -0.002070
v -0.007532 -0.012828 -0.013369
v -0.010652 0.001752 -0.016836
v -0.007532 0.015305 -0.010442
v -0.000000 0.019893 0.002070
v 0.007532 0.012828 0.013369
v 0.010652 -0.001752 0.016836
v 0.007532 -0.015305 0.010442
v 0.071485 -0.015237 -0.046812
v 0.063953 -0.008172 -0.058111
v 0.060833 0.006407 -0.061579
v 0.063953 0.019960 -0.055184
v 0.071485 0.024548 -0.042673
v 0.079017 0.017483 -0.031374
v 0.082137 0.002903 -0.027906
v 0.079017 -0.010650 -0.034301
v 0.071706 0.004655 -0.024744
v 0.069253 -0.009284 -0.030575
v 0.068107 -0.015058 -0.044705
v 0.068940 -0.009284 -0.058858
v 0.071264 0.004655 -0.064741
v 0.073717 0.018594 -0.058910
v 0.074863 0.024368 -0.044780
v 0.074030 0.018594 -0.030628
v 0.092016 0.001175 -0.024968
v 0.089562 -0.012764 -0.030799
v 0.088417 -0.018538 -0.044930
v 0.089250 -0.012764 -0.059082
v 0.091573 0.001175 -0.064966
v 0.094027 0.015114 -0.059135
v 0.095172 0.020888 -0.045004
v 0.094339 0.015114 -0.030852
v 0.090013 0.001175 -0.025047
v 0.088683 -0.012844 -0.031047
v 0.089175 -0.018651 -0.045201
v 0.091202 -0.012844 -0.059219
v 0.093576 0.001175 -0.064888
v 0.094906 0.015194 -0.058887
v 0.094414 0.021001 -0.044733
v 0.092387 0.015194 -0.030716
v 0.109318 -0.001396 -0.023320
v 0.107988 -0.015416 -0.029321
v 0.108480 -0.021223 -0.043475
v 0.110507 -0.015416 -0.057492
v 0.112881 -0.001396 -0.063161
v 0.114212 0.012623 -0.057161
v 0.113719 0.018430 -0.043007
v 0.111692 0.012623 -0.028989
v 0.108197 -0.001396 -0.023453
v 0.106608 -0.015322 -0.029606
v 0.107650 -0.021090 -0.043747
v 0.110713 -0.015322 -0.057591
v 0.114002 -0.001396 -0.063029
v 0.115591 0.012529 -0.056875
v 0.114550 0.018298 -0.042735
v 0.111487 0.012529 -0.028891
v 0.123707 -0.004171 -0.021178
v 0.122117 -0.018097 -0.027331
v 0.123159 -0.023865 -0.041472
v 0.126222 -0.018097 -0.055316
v 0.129511 -0.004171 -0.060754
v 0.131101 0.009754 -0.054601
v 0.130059 0.015522 -0.040460
v 0.126996 0.009754 -0.026616
v -0.015000 -0.015000 -0.015000
v 0.015000 -0.015000 -0.015000
v 0.015000 0.015000 -0.015000
v -0.015000 0.015000 -0.015000
v -0.015000 -0.015000 0.015000
v 0.015000 -0.015000 0.015000
v 0.015000 0.015000 0.015000
v -0.015000 0.015000 0.015000
v 0.004163 -0.045710 -0.023692
v 0.034163 -0.045710 -0.023692
v 0.034163 -0.015710 -0.023692
v 0.004163 -0.015710 -0.023692
v 0.004163 -0.045710 0.006308
v 0.034163 -0.045710 0.006308
v 0.034163 -0.015710 0.006308
v 0.004163 -0.015710 0.006308
v 0.025207 -0.065397 -0.027672
v 0.055207 -0.065397 -0.027672
v 0.055207 -0.035397 -0.027672
v 0.025207 -0.035397 -0.027672
v 0.025207 -0.065397 0.002328
v 0.055207 -0.065397 0.002328
v 0.055207 -0.035397 0.002328
v 0.025207 -0.035397 0.002328
v 0.044591 -0.080779 -0.042085
v 0.074591 -0.080779 -0.042085
v 0.074591 -0.050779 -0.042085
v 0.044591 -0.050779 -0.042085
v 0.044591 -0.080779 -0.012085
v 0.074591 -0.080779 -0.012085
v 0.074591 -0.050779 -0.012085
v 0.044591 -0.050779 -0.012085
v 0.059060 -0.098194 -0.057801
v 0.089060 -0.098194 -0.057801
v 0.089060 -0.068194 -0.057801
v 0.059060 -0.068194 -0.057801
v 0.059060 -0.098194 -0.027801
v 0.089060 -0.098194 -0.027801
v 0.089060 -0.068194 -0.027801
v 0.059060 -0.068194 -0.027801
v 0.053185 -0.066443 -0.062705
v 0.083185 -0.066443 -0.062705
v 0.083185 -0.036443 -0.062705
v 0.053185 -0.036443 -0.062705
v 0.053185 -0.066443 -0.032705
v 0.083185 -0.066443 -0.032705
v 0.083185 -0.036443 -0.032705
v 0.053185 -0.036443 -0.032705
v 0.081209 -0.067778 -0.066929
v 0.111209 -0.067778 -0.066929
v 0.111209 -0.037778 -0.066929
v 0.081209 -0.037778 -0.066929
v 0.081209 -0.067778 -0.036929
v 0.111209 -0.067778 -0.036929
v 0.111209 -0.037778 -0.036929
v 0.081209 -0.037778 -0.036929
v 0.102177 -0.073791 -0.059566
v 0.132177 -0.073791 -0.059566
v 0.132177 -0.043791 -0.059566
v 0.102177 -0.043791 -0.059566
v 0.102177 -0.073791 -0.029566
v 0.132177 -0.073791 -0.029566
v 0.132177 -0.043791 -0.029566
v 0.102177 -0.043791 -0.029566
v 0.120400 -0.080101 -0.053161
v 0.150400 -0.080101 -0.053161
v 0.150400 -0.050101 -0.053161
v 0.120400 -0.050101 -0.053161
v 0.120400 -0.080101 -0.023161
v 0.150400 -0.080101 -0.023161
v 0.150400 -0.050101 -0.023161
v 0.120400 -0.050101 -0.023161
v 0.058597 -0.046160 -0.067029
v 0.088597 -0.046160 -0.067029
v 0.088597 -0.016160 -0.067029
v 0.058597 -0.016160 -0.067029
v 0.058597 -0.046160 -0.037029
v 0.088597 -0.046160 -0.037029
v 0.088597 -0.016160 -0.037029
v 0.058597 -0.016160 -0.037029
v 0.092660 -0.054075 -0.070454
v 0.122660 -0.054075 -0.070454
v 0.122660 -0.024075 -0.070454
v 0.092660 -0.024075 -0.070454
v 0.092660 -0.054075 -0.040454
v 0.122660 -0.054075 -0.040454
v 0.122660 -0.024075 -0.040454
v 0.092660 -0.024075 -0.040454
v 0.115218 -0.061330 -0.066989
v 0.145218 -0.061330 -0.066989
v 0.145218 -0.031330 -0.066989
v 0.115218 -0.031330 -0.066989
v 0.115218 -0.061330 -0.036989
v 0.145218 -0.061330 -0.036989
v 0.145218 -0.031330 -0.036989
v 0.115218 -0.031330 -0.036989
v 0.140725 -0.071825 -0.050095
v 0.170725 -0.071825 -0.050095
v 0.170725 -0.041825 -0.050095
v 0.140725 -0.041825 -0.050095
v 0.140725 -0.071825 -0.020095
v 0.170725 -0.071825 -0.020095
v 0.170725 -0.041825 -0.020095
v 0.140725 -0.041825 -0.020095
v 0.061896 -0.025889 -0.068940
v 0.091896 -0.025889 -0.068940
v 0.091896 0.004111 -0.068940
v 0.061896 0.004111 -0.068940
v 0.061896 -0.025889 -0.038940
v 0.091896 -0.025889 -0.038940
v 0.091896 0.004111 -0.038940
v 0.061896 0.004111 -0.038940
v 0.091059 -0.035710 -0.071673
v 0.121059 -0.035710 -0.071673
v 0.121059 -0.005710 -0.071673
v 0.091059 -0.005710 -0.071673
v 0.091059 -0.035710 -0.041673
v 0.121059 -0.035710 -0.041673
v 0.121059 -0.005710 -0.041673
v 0.091059 -0.005710 -0.041673
v 0.112781 -0.041951 -0.068149
v 0.142781 -0.041951 -0.068149
v 0.142781 -0.011951 -0.068149
v 0.112781 -0.011951 -0.068149
v 0.112781 -0.041951 -0.038149
v 0.142781 -0.041951 -0.038149
v 0.142781 -0.011951 -0.038149
v 0.112781 -0.011951 -0.038149
v 0.134845 -0.047244 -0.054234
v 0.164845 -0.047244 -0.054234
v 0.164845 -0.017244 -0.054234
v 0.134845 -0.017244 -0.054234
v 0.134845 -0.047244 -0.024234
v 0.164845 -0.047244 -0.024234
v 0.164845 -0.017244 -0.024234
v 0.134845 -0.017244 -0.024234
v 0.056485 -0.010345 -0.059743
v 0.086485 -0.010345 -0.059743
v 0.086485 0.019655 -0.059743
v 0.056485 0.019655 -0.059743
v 0.056485 -0.010345 -0.029743
v 0.086485 -0.010345 -0.029743
v 0.086485 0.019655 -0.029743
v 0.056485 0.019655 -0.029743
v 0.076794 -0.013825 -0.059967
v 0.106794 -0.013825 -0.059967
v 0.106794 0.016175 -0.059967
v 0.076794 0.016175 -0.059967
v 0.076794 -0.013825 -0.029967
v 0.106794 -0.013825 -0.029967
v 0.106794 0.016175 -0.029967
v 0.076794 0.016175 -0.029967
v 0.096100 -0.016396 -0.058241
v 0.126100 -0.016396 -0.058241
v 0.126100 0.013604 -0.058241
v 0.096100 0.013604 -0.058241
v 0.096100 -0.016396 -0.028241
v 0.126100 -0.016396 -0.028241
v 0.126100 0.013604 -0.028241
v 0.096100 0.013604 -0.028241
v 0.111609 -0.019171 -0.055966
v 0.141609 -0.019171 -0.055966
v 0.141609 0.010829 -0.055966
v 0.111609 0.010829 -0.055966
v 0.111609 -0.019171 -0.025966
v 0.141609 -0.019171 -0.025966
v 0.141609 0.010829 -0.025966
v 0.111609 0.010829 -0.025966
f 1 2 9
f 2 10 9
f 2 3 10
f 3 11 10
f 3 4 11
f 4 12 11
f 4 5 12
f 5 13 12
f 5 6 13
f 6 14 13
f 6 7 14
f 7 15 14
f 7 8 15
f 8 16 15
f 8 1 16
f 1 9 16
f 17 18 25
f 18 26 25
f 18 19 26
f 19 27 26
f 19 20 27
f 20 28 27
f 20 21 28
f 21 29 28
f 21 22 29
f 22 30 29
f 22 23 30
f 23 31 30
f 23 24 31
f 24 32 31
f 24 17 32
f 17 25 32
f 33 34 41
f 34 42 41
f 34 35 42
f 35 43 42
f 35 36 43
f 36 44 43
f 36 37 44
f 37 45 44
f 37 38 45
f 38 46 45
f 38 39 46
f 39 47 46
f 39 40 47
f 40 48 47
f 40 33 48
f 33 41 48
f 49 50 57
f 50 58 57
f 50 51 58
f 51 59 58
f 51 52 59
f 52 60 59
f 52 53 60
f 53 61 60
f 53 54 61
f 54 62 61
f 54 55 62
f 55 63 62
f 55 56 63
f 56 64 63
f 56 49 64
f 49 57 64
f 65 66 73
f 66 74 73
f 66 67 74
f 67 75 74
f 67 68 75
f 68 76 75
f 68 69 76
f 69 77 76
f 69 70 77
f 70 78 77
f 70 71 78
f 71 79 78
f 71 72 79
f 72 80 79
f 72 65 80
f 65 73 80
f 81 82 89
f 82 90 89
f 82 83 90
f 83 91 90
f 83 84 91
f 84 92 91
f 84 85 92
f 85 93 92
f 85 86 93
f 86 94 93
f 86 87 94
f 87 95 94
f 87 88 95
f 88 96 95
f 88 81 96
f 81 89 96
f 97 98 105
f 98 106 105
f 98 99 106
f 99 107 106
f 99 100 107
f 100 108 107
f 100 101 108
f 101 109 108
f 101 102 109
f 102 110 109
f 102 103 110
f 103 111 110
f 103 104 111
f 104 112 111
f 104 97 112
f 97 105 112
f 113 114 121
f 114 122 121
f 114 115 122
f 115 123 122
f 115 116 123
f 116 124 123
f 116 117 124
f 117 125 124
f 117 118 125
f 118 126 125
f 118 119 126
f 119 127 126
f 119 120 127
f 120 128 127
f 120 113 128
f 113 121 128
f 129 130 137
f 130 138 137
f 130 131 138
f 131 139 138
f 131 132 139
f 132 140 139
f 132 133 140
f 133 141 140
f 133 134 141
f 134 142 141
f 134 135 142
f 135 143 142
f 135 136 143
f 136 144 143
f 136 129 144
f 129 137 144
f 145 146 153
f 146 154 153
f 146 147 154
f 147 155 154
f 147 148 155
f 148 156 155
f 148 149 156
f 149 157 156
f 149 150 157
f 150 158 157
f 150 151 158
f 151 159 158
f 151 152 159
f 152 160 159
f 152 145 160
f 145 153 160
f 161 162 169
f 162 170 169
f 162 163 170
f 163 171 170
f 163 164 171
f 164 172 171
f 164 165 172
f 165 173 172
f 165 166 173
f 166 174 173
f 166 167 174
f 167 175 174
f 167 168 175
f 168 176 175
f 168 161 176
f 161 169 176
f 177 178 185
f 178 186 185
f 178 179 186
f 179 187 186
f 179 180 187
f 180 188 187
f 180 181 188
f 181 189 188
f 181 182 189
f 182 190 189
f 182 183 190
f 183 191 190
f 183 184 191
f 184 192 191
f 184 177 192
f 177 185 192
f 193 194 201
f 194 202 201
f 194 195 202
f 195 203 202
f 195 196 203
f 196 204 203
f 196 197 204
f 197 205 204
f 197 198 205
f 198 206 205
f 198 199 206
f 199 207 206
f 199 200 207
f 200 208 207
f 200 193 208
f 193 201 208
f 209 210 217
f 210 218 217
f 210 211 218
f 211 219 218
f 211 212 219
f 212 220 219
f 212 213 220
f 213 221 220
f 213 214 221
f 214 222 221
f 214 215 222
f 215 223 222
f 215 216 223
f 216 224 223
f 216 209 224
f 209 217 224
f 225 226 233
f 226 234 233
f 226 227 234
f 227 235 234
f 227 228 235
f 228 236 235
f 228 229 236
f 229 237 236
f 229 230 237
f 230 238 237
f 230 231 238
f 231 239 238
f 231 232 239
f 232 240 239
f 232 225 240
f 225 233 240
f 241 242 249
f 242 250 249
f 242 243 250
f 243 251 250
f 243 244 251
f 244 252 251
f 244 245 252
f 245 253 252
f 245 246 253
f 246 254 253
f 246 247 254
f 247 255 254
f 247 248 255
f 248 256 255
f 248 241 256
f 241 249 256
f 257 258 265
f 258 266 265
f 258 259 266
f 259 267 266
f 259 260 267
f 260 268 267
f 260 261 268
f 261 269 268
f 261 262 269
f 262 270 269
f 262 263 270
f 263 271 270
f 263 264 271
f 264 272 271
f 264 257 272
f 257 265 272
f 273 274 281
f 274 282 281
f 274 275 282
f 275 283 282
f 275 276 283
f 276 284 283
f 276 277 284
f 277 285 284
f 277 278 285
f 278 286 285
f 278 279 286
f 279 287 286
f 279 280 287
f 280 288 287
f 280 273 288
f 273 281 288
f 289 290 297
f 290 298 297
f 290 291 298
f 291 299 298
f 291 292 299
f 292 300 299
f 292 293 300
f 293 301 300
f 293 294 301
f 294 302 301
f 294 295 302
f 295 303 302
f 295 296 303
f 296 304 303
f 296 289 304
f 289 297 304
f 305 306 313
f 306 314 313
f 306 307 314
f 307 315 314
f 307 308 315
f 308 316 315
f 308 309 316
f 309 317 316
f 309 310 317
f 310 318 317
f 310 311 318
f 311 319 318
f 311 312 319
f 312 320 319
f 312 305 320
f 305 313 320
f 321 322 323
f 321 323 324
f 325 326 327
f 325 327 328
f 321 325 326
f 321 326 322
f 322 326 327
f 322 327 323
f 323 327 328
f 323 328 324
f 324 328 325
f 324 325 321
f 329 330 331
f 329 331 332
f 333 334 335
f 333 335 336
f 329 333 334
f 329 334 330
f 330 334 335
f 330 335 331
f 331 335 336
f 331 336 332
f 332 336 333
f 332 333 329
f 337 338 339
f 337 339 340
f 341 342 343
f 341 343 344
f 337 341 342
f 337 342 338
f 338 342 343
f 338 343 339
f 339 343 344
f 339 344 340
f 340 344 341
f 340 341 337
f 345 346 347
f 345 347 348
f 349 350 351
f 349 351 352
f 345 349 350
f 345 350 346
f 346 350 351
f 346 351 347
f 347 351 352
f 347 352 348
f 348 352 349
f 348 349 345
f 353 354 355
f 353 355 356
f 357 358 359
f 357 359 360
f 353 357 358
f 353 358 354
f 354 358 359
f 354 359 355
f 355 359 360
f 355 360 356
f 356 360 357
f 356 357 353
f 361 362 363
f 361 363 364
f 365 366 367
f 365 367 368
f 361 365 366
f 361 366 362
f 362 366 367
f 362 367 363
f 363 367 368
f 363 368 364
f 364 368 365
f 364 365 361
f 369 370 371
f 369 371 372
f 373 374 375
f 373 375 376
f 369 373 374
f 369 374 370
f 370 374 375
f 370 375 371
f 371 375 376
f 371 376 372
f 372 376 373
f 372 373 369
f 377 378 379
f 377 379 380
f 381 382 383
f 381 383 384
f 377 381 382
f 377 382 378
f 378 382 383
f 378 383 379
f 379 383 384
f 379 384 380
f 380 384 381
f 380 381 377
f 385 386 387
f 385 387 388
f 389 390 391
f 389 391 392
f 385 389 390
f 385 390 386
f 386 390 391
f 386 391 387
f 387 391 392
f 387 392 388
f 388 392 389
f 388 389 385
f 393 394 395
f 393 395 396
f 397 398 399
f 397 399 400
f 393 397 398
f 393 398 394
f 394 398 399
f 394 399 395
f 395 399 400
f 395 400 396
f 396 400 397
f 396 397 393
f 401 402 403
f 401 403 404
f 405 406 407
f 405 407 408
f 401 405 406
f 401 406 402
f 402 406 407
f 402 407 403
f 403 407 408
f 403 408 404
f 404 408 405
f 404 405 401
f 409 410 411
f 409 411 412
f 413 414 415
f 413 415 416
f 409 413 414
f 409 414 410
f 410 414 415
f 410 415 411
f 411 415 416
f 411 416 412
f 412 416 413
f 412 413 409
f 417 418 419
f 417 419 420
f 421 422 423
f 421 423 424
f 417 421 422
f 417 422 418
f 418 422 423
f 418 423 419
f 419 423 424
f 419 424 420
f 420 424 421
f 420 421 417
f 425 426 427
f 425 427 428
f 429 430 431
f 429 431 432
f 425 429 430
f 425 430 426
f 426 430 431
f 426 431 427
f 427 431 432
f 427 432 428
f 428 432 429
f 428 429 425
f 433 434 435
f 433 435 436
f 437 438 439
f 437 439 440
f 433 437 438
f 433 438 434
f 434 438 439
f 434 439 435
f 435 439 440
f 435 440 436
f 436 440 437
f 436 437 433
f 441 442 443
f 441 443 444
f 445 446 447
f 445 447 448
f 441 445 446
f 441 446 442
f 442 446 447
f 442 447 443
f 443 447 448
f 443 448 444
f 444 448 445
f 444 445 441
f 449 450 451
f 449 451 452
f 453 454 455
f 453 455 456
f 449 453 454
f 449 454 450
f 450 454 455
f 450 455 451
f 451 455 456
f 451 456 452
f 452 456 453
f 452 453 449
f 457 458 459
f 457 459 460
f 461 462 463
f 461 463 464
f 457 461 462
f 457 462 458
f 458 462 463
f 458 463 459
f 459 463 464
f 459 464 460
f 460 464 461
f 460 461 457
f 465 466 467
f 465 467 468
f 469 470 471
f 469 471 472
f 465 469 470
f 465 470 466
f 466 470 471
f 466 471 467
f 467 471 472
f 467 472 468
f 468 472 469
f 468 469 465
f 473 474 475
f 473 475 476
f 477 478 479
f 477 479 480
f 473 477 478
f 473 478 474
f 474 478 479
f 474 479 475
f 475 479 480
f 475 480 476
f 476 480 477
f 476 477 473
f 481 482 483
f 481 483 484
f 485 486 487
f 485 487 488
f 481 485 486
f 481 486 482
f 482 486 487
f 482 487 483
f 483 487 488
f 483 488 484
f 484 488 485
f 484 485 481
