# SignFlow 3D Hand Mesh - Frame 180
v 0.000000 -0.019588 -0.004038
v -0.008103 -0.011511 -0.014208
v -0.011459 0.003310 -0.016054
v -0.008103 0.016191 -0.008497
v -0.000000 0.019588 0.004038
v 0.008103 0.011511 0.014208
v 0.011459 -0.003310 0.016054
v 0.008103 -0.016191 0.008497
v 0.029778 -0.015385 -0.024426
v 0.021676 -0.007307 -0.034596
v 0.018320 0.007513 -0.036442
v 0.021676 0.020394 -0.028885
v 0.029778 0.023791 -0.016350
v 0.037881 0.015714 -0.006180
v 0.041237 0.000893 -0.004334
v 0.037881 -0.011988 -0.011891
v 0.029778 -0.012901 -0.010023
v 0.022363 -0.014132 -0.023358
v 0.019292 -0.004623 -0.034953
v 0.022363 0.010057 -0.038016
v 0.029778 0.021308 -0.030753
v 0.037194 0.022539 -0.017418
v 0.040265 0.013029 -0.005823
v 0.037194 -0.001651 -0.002760
v 0.058284 -0.021998 -0.025034
v 0.050869 -0.023229 -0.038369
v 0.047797 -0.013720 -0.049964
v 0.050869 0.000960 -0.053028
v 0.058284 0.012211 -0.045765
v 0.065699 0.013442 -0.032430
v 0.068770 0.003932 -0.020835
v 0.065699 -0.010747 -0.017771
v 0.058284 -0.021506 -0.024262
v 0.046346 -0.020862 -0.033822
v 0.041401 -0.010864 -0.044305
v 0.046346 0.002631 -0.049572
v 0.058284 0.011719 -0.046537
v 0.070222 0.011075 -0.036977
v 0.075167 0.001077 -0.026494
v 0.070222 -0.012418 -0.021227
v 0.078371 -0.039119 -0.050535
v 0.066433 -0.038475 -0.060094
v 0.061488 -0.028478 -0.070578
v 0.066433 -0.014982 -0.075844
v 0.078371 -0.005895 -0.072809
v 0.090309 -0.006539 -0.063250
v 0.095254 -0.016537 -0.052766
v 0.090309 -0.030032 -0.047499
v 0.078371 -0.034337 -0.045546
v 0.068421 -0.038975 -0.056213
v 0.064299 -0.033967 -0.070078
v 0.068421 -0.022245 -0.079019
v 0.078371 -0.010677 -0.077798
v 0.088321 -0.006039 -0.067130
v 0.092443 -0.011048 -0.053265
v 0.088321 -0.022769 -0.044325
v 0.099024 -0.050825 -0.057641
v 0.089074 -0.055463 -0.068309
v 0.084953 -0.050454 -0.082174
v 0.089074 -0.038733 -0.091114
v 0.099024 -0.027165 -0.089893
v 0.108974 -0.022527 -0.079226
v 0.113096 -0.027535 -0.065361
v 0.108974 -0.039257 -0.056420
v 0.000000 -0.018030 0.008656
v -0.010849 -0.016675 -0.002057
v -0.015342 -0.005553 -0.011566
v -0.010849 0.008822 -0.014299
v -0.000000 0.018030 -0.008656
v 0.010849 0.016675 0.002057
v 0.015342 0.005553 0.011566
v 0.010849 -0.008822 0.014299
v 0.059028 -0.048581 -0.054977
v 0.048179 -0.047227 -0.065691
v 0.043685 -0.036104 -0.075199
v 0.048179 -0.021729 -0.077932
v 0.059028 -0.012522 -0.072289
v 0.069876 -0.013876 -0.061576
v 0.074370 -0.024998 -0.052067
v 0.069876 -0.039374 -0.049334
v 0.059028 -0.050551 -0.063746
v 0.048822 -0.044638 -0.073503
v 0.044595 -0.030473 -0.077479
v 0.048822 -0.016354 -0.073344
v 0.059028 -0.010552 -0.063520
v 0.069233 -0.016465 -0.053763
v 0.073460 -0.030629 -0.049788
v 0.069233 -0.044748 -0.053923
v 0.077722 -0.050441 -0.083232
v 0.067517 -0.044528 -0.092989
v 0.063289 -0.030363 -0.096965
v 0.067517 -0.016244 -0.092830
v 0.077722 -0.010442 -0.083006
v 0.087927 -0.016355 -0.073249
v 0.092154 -0.030520 -0.069274
v 0.087927 -0.044639 -0.073409
v 0.077722 -0.047847 -0.092971
v 0.068630 -0.037413 -0.099512
v 0.064864 -0.022896 -0.096451
v 0.068630 -0.012798 -0.085580
v 0.077722 -0.013036 -0.073268
v 0.086814 -0.023470 -0.066726
v 0.090580 -0.037987 -0.069787
v 0.086814 -0.048085 -0.080658
v 0.085691 -0.044552 -0.098791
v 0.076599 -0.034119 -0.105333
v 0.072833 -0.019601 -0.102272
v 0.076599 -0.009504 -0.091401
v 0.085691 -0.009742 -0.079088
v 0.094783 -0.020175 -0.072547
v 0.098548 -0.034693 -0.075608
v 0.094783 -0.044790 -0.086479
v 0.085691 -0.043716 -0.100141
v 0.073338 -0.035007 -0.102564
v 0.068221 -0.021694 -0.097006
v 0.073338 -0.011575 -0.086723
v 0.085691 -0.010578 -0.077739
v 0.098044 -0.019287 -0.075316
v 0.103161 -0.032600 -0.080874
v 0.098044 -0.042719 -0.091157
v 0.097501 -0.031848 -0.117696
v 0.085148 -0.023139 -0.120119
v 0.080031 -0.009826 -0.114561
v 0.085148 0.000293 -0.104278
v 0.097501 0.001290 -0.095294
v 0.109854 -0.007419 -0.092871
v 0.114971 -0.020732 -0.098429
v 0.109854 -0.030851 -0.108712
v 0.000000 -0.017593 0.009513
v -0.012470 -0.015613 0.000858
v -0.017635 -0.004487 -0.008299
v -0.012470 0.009267 -0.012595
v -0.000000 0.017593 -0.009513
v 0.012470 0.015613 -0.000858
v 0.017635 0.004487 0.008299
v 0.012470 -0.009267 0.012595
v 0.041090 -0.054125 -0.058048
v 0.028620 -0.052145 -0.066703
v 0.023455 -0.041020 -0.075860
v 0.028620 -0.027265 -0.080156
v 0.041090 -0.018940 -0.077074
v 0.053559 -0.020919 -0.068420
v 0.058725 -0.032045 -0.059262
v 0.053559 -0.045799 -0.054967
v 0.041090 -0.045019 -0.049451
v 0.030645 -0.051167 -0.058801
v 0.026319 -0.048743 -0.073283
v 0.030645 -0.039166 -0.084413
v 0.041090 -0.028046 -0.085671
v 0.051534 -0.021897 -0.076321
v 0.055860 -0.024322 -0.061839
v 0.051534 -0.033899 -0.050709
v 0.068016 -0.071725 -0.061966
v 0.057572 -0.077874 -0.071316
v 0.053245 -0.075449 -0.085798
v 0.057572 -0.065872 -0.096928
v 0.068016 -0.054752 -0.098186
v 0.078460 -0.048604 -0.088836
v 0.082786 -0.051028 -0.074354
v 0.078460 -0.060606 -0.063224
v 0.068016 -0.082601 -0.075065
v 0.055341 -0.078502 -0.082605
v 0.050091 -0.065461 -0.088664
v 0.055341 -0.051119 -0.089692
v 0.068016 -0.043877 -0.085087
v 0.080691 -0.047976 -0.077547
v 0.085941 -0.061016 -0.071488
v 0.080691 -0.075358 -0.070460
v 0.082043 -0.089702 -0.102505
v 0.069368 -0.085603 -0.110045
v 0.064117 -0.072563 -0.116104
v 0.069368 -0.058221 -0.117132
v 0.082043 -0.050978 -0.112527
v 0.094717 -0.055078 -0.104987
v 0.099968 -0.068118 -0.098928
v 0.094717 -0.082460 -0.097900
v 0.082043 -0.085941 -0.095000
v 0.075247 -0.089133 -0.108340
v 0.072433 -0.081316 -0.121197
v 0.075247 -0.067071 -0.126040
v 0.082043 -0.054740 -0.120031
v 0.088838 -0.051548 -0.106691
v 0.091652 -0.059364 -0.093834
v 0.088838 -0.073610 -0.088992
v 0.111227 -0.095946 -0.107472
v 0.104432 -0.099138 -0.120812
v 0.101617 -0.091322 -0.133669
v 0.104432 -0.077076 -0.138512
v 0.111227 -0.064746 -0.132503
v 0.118022 -0.061554 -0.119163
v 0.120837 -0.069370 -0.106306
v 0.118022 -0.083616 -0.101464
v 0.000000 -0.018123 0.008458
v -0.013633 -0.014406 0.002572
v -0.019279 -0.002250 -0.004821
v -0.013633 0.011224 -0.009390
v -0.000000 0.018123 -0.008458
v 0.013633 0.014406 -0.002572
v 0.019279 0.002250 0.004821
v 0.013633 -0.011224 0.009390
v 0.021397 -0.050916 -0.061804
v 0.007764 -0.047198 -0.067690
v 0.002117 -0.035042 -0.075083
v 0.007764 -0.021568 -0.079652
v 0.021397 -0.014669 -0.078721
v 0.035029 -0.018386 -0.072834
v 0.040676 -0.030542 -0.065441
v 0.035029 -0.044016 -0.060872
v 0.021397 -0.042494 -0.052773
v 0.008012 -0.043647 -0.060111
v 0.002468 -0.038441 -0.073396
v 0.008012 -0.029926 -0.084845
v 0.021397 -0.023090 -0.087751
v 0.034781 -0.021938 -0.080413
v 0.040325 -0.027144 -0.067129
v 0.034781 -0.035658 -0.055680
v 0.033894 -0.074519 -0.070538
v 0.020510 -0.075671 -0.077876
v 0.014966 -0.070465 -0.091161
v 0.020510 -0.061951 -0.102610
v 0.033894 -0.055115 -0.105517
v 0.047279 -0.053962 -0.098179
v 0.052822 -0.059168 -0.084894
v 0.047279 -0.067683 -0.073445
v 0.033894 -0.083331 -0.080462
v 0.020531 -0.079659 -0.086963
v 0.014996 -0.067293 -0.094087
v 0.020531 -0.053476 -0.097662
v 0.033894 -0.046303 -0.095593
v 0.047257 -0.049975 -0.089092
v 0.052793 -0.062341 -0.081968
v 0.047257 -0.076157 -0.078393
v 0.043558 -0.093884 -0.106287
v 0.030194 -0.090212 -0.112788
v 0.024659 -0.077846 -0.119912
v 0.030194 -0.064030 -0.123487
v 0.043558 -0.056856 -0.121418
v 0.056921 -0.060528 -0.114918
v 0.062456 -0.072894 -0.107793
v 0.056921 -0.086710 -0.104219
v 0.043558 -0.092161 -0.102987
v 0.030240 -0.089828 -0.110164
v 0.024724 -0.079026 -0.119503
v 0.030240 -0.066083 -0.125532
v 0.043558 -0.058579 -0.124719
v 0.056875 -0.060912 -0.117541
v 0.062391 -0.071714 -0.108203
v 0.056875 -0.084657 -0.102174
v 0.053096 -0.106664 -0.125397
v 0.039779 -0.104332 -0.132575
v 0.034262 -0.093530 -0.141913
v 0.039779 -0.080586 -0.147942
v 0.053096 -0.073083 -0.147130
v 0.066414 -0.075415 -0.139952
v 0.071930 -0.086217 -0.130614
v 0.066414 -0.099161 -0.124585
v 0.000000 -0.017951 0.008817
v -0.014129 -0.012428 0.006776
v -0.019982 0.000376 0.000765
v -0.014129 0.012959 -0.005694
v -0.000000 0.017951 -0.008817
v 0.014129 0.012428 -0.006776
v 0.019982 -0.000376 -0.000765
v 0.014129 -0.012959 0.005694
v -0.003101 -0.049983 -0.056395
v -0.017230 -0.044459 -0.058437
v -0.023083 -0.031656 -0.064447
v -0.017230 -0.019072 -0.070907
v -0.003101 -0.014080 -0.074030
v 0.011029 -0.019604 -0.071989
v 0.016881 -0.032408 -0.065978
v 0.011029 -0.044991 -0.059519
v -0.003101 -0.041872 -0.047801
v -0.017124 -0.037400 -0.052003
v -0.022933 -0.029783 -0.063942
v -0.017124 -0.023484 -0.076626
v -0.003101 -0.022191 -0.082625
v 0.010923 -0.026663 -0.078423
v 0.016732 -0.034280 -0.066484
v 0.010923 -0.040580 -0.053799
v -0.006410 -0.063996 -0.060305
v -0.020433 -0.059524 -0.064506
v -0.026242 -0.051907 -0.076446
v -0.020433 -0.045608 -0.089130
v -0.006410 -0.044315 -0.095128
v 0.007614 -0.048787 -0.090927
v 0.013423 -0.056404 -0.078987
v 0.007614 -0.062703 -0.066303
v -0.006410 -0.072106 -0.068898
v -0.020443 -0.067619 -0.073049
v -0.026256 -0.055245 -0.079934
v -0.020443 -0.042233 -0.085521
v -0.006410 -0.036205 -0.086535
v 0.007624 -0.040692 -0.082384
v 0.013437 -0.053066 -0.075499
v 0.007624 -0.066078 -0.069913
v -0.003670 -0.081809 -0.088647
v -0.017704 -0.077321 -0.092798
v -0.023517 -0.064947 -0.099683
v -0.017704 -0.051935 -0.105269
v -0.003670 -0.045907 -0.106284
v 0.010363 -0.050394 -0.102133
v 0.016176 -0.062768 -0.095248
v 0.010363 -0.075781 -0.089661
v -0.003670 -0.080227 -0.085975
v -0.017171 -0.077852 -0.092787
v -0.022763 -0.067279 -0.102340
v -0.017171 -0.054702 -0.109037
v -0.003670 -0.047488 -0.108956
v 0.009830 -0.049863 -0.102144
v 0.015422 -0.060436 -0.092591
v 0.009830 -0.073014 -0.085894
v 0.003436 -0.093317 -0.104622
v -0.010065 -0.090942 -0.111434
v -0.015657 -0.080369 -0.120987
v -0.010065 -0.067792 -0.127685
v 0.003436 -0.060578 -0.127604
v 0.016936 -0.062953 -0.120792
v 0.022529 -0.073526 -0.111239
v 0.016936 -0.086103 -0.104541
v -0.015000 -0.015000 -0.015000
v 0.015000 -0.015000 -0.015000
v 0.015000 0.015000 -0.015000
v -0.015000 0.015000 -0.015000
v -0.015000 -0.015000 0.015000
v 0.015000 -0.015000 0.015000
v 0.015000 0.015000 0.015000
v -0.015000 0.015000 0.015000
v 0.014778 -0.010797 -0.035388
v 0.044778 -0.010797 -0.035388
v 0.044778 0.019203 -0.035388
v 0.014778 0.019203 -0.035388
v 0.014778 -0.010797 -0.005388
v 0.044778 -0.010797 -0.005388
v 0.044778 0.019203 -0.005388
v 0.014778 0.019203 -0.005388
v 0.043284 -0.019894 -0.050399
v 0.073284 -0.019894 -0.050399
v 0.073284 0.010106 -0.050399
v 0.043284 0.010106 -0.050399
v 0.043284 -0.019894 -0.020399
v 0.073284 -0.019894 -0.020399
v 0.073284 0.010106 -0.020399
v 0.043284 0.010106 -0.020399
v 0.063371 -0.037507 -0.076672
v 0.093371 -0.037507 -0.076672
v 0.093371 -0.007507 -0.076672
v 0.063371 -0.007507 -0.076672
v 0.063371 -0.037507 -0.046672
v 0.093371 -0.037507 -0.046672
v 0.093371 -0.007507 -0.046672
v 0.063371 -0.007507 -0.046672
v 0.084024 -0.053995 -0.088767
v 0.114024 -0.053995 -0.088767
v 0.114024 -0.023995 -0.088767
v 0.084024 -0.023995 -0.088767
v 0.084024 -0.053995 -0.058767
v 0.114024 -0.053995 -0.058767
v 0.114024 -0.023995 -0.058767
v 0.084024 -0.023995 -0.058767
v 0.044028 -0.045551 -0.078633
v 0.074028 -0.045551 -0.078633
v 0.074028 -0.015551 -0.078633
v 0.044028 -0.015551 -0.078633
v 0.044028 -0.045551 -0.048633
v 0.074028 -0.045551 -0.048633
v 0.074028 -0.015551 -0.048633
v 0.044028 -0.015551 -0.048633
v 0.062722 -0.045442 -0.098119
v 0.092722 -0.045442 -0.098119
v 0.092722 -0.015442 -0.098119
v 0.062722 -0.015442 -0.098119
v 0.062722 -0.045442 -0.068119
v 0.092722 -0.045442 -0.068119
v 0.092722 -0.015442 -0.068119
v 0.062722 -0.015442 -0.068119
v 0.070691 -0.042147 -0.103940
v 0.100691 -0.042147 -0.103940
v 0.100691 -0.012147 -0.103940
v 0.070691 -0.012147 -0.103940
v 0.070691 -0.042147 -0.073940
v 0.100691 -0.042147 -0.073940
v 0.100691 -0.012147 -0.073940
v 0.070691 -0.012147 -0.073940
v 0.082501 -0.030279 -0.121495
v 0.112501 -0.030279 -0.121495
v 0.112501 -0.000279 -0.121495
v 0.082501 -0.000279 -0.121495
v 0.082501 -0.030279 -0.091495
v 0.112501 -0.030279 -0.091495
v 0.112501 -0.000279 -0.091495
v 0.082501 -0.000279 -0.091495
v 0.026090 -0.051532 -0.082561
v 0.056090 -0.051532 -0.082561
v 0.056090 -0.021532 -0.082561
v 0.026090 -0.021532 -0.082561
v 0.026090 -0.051532 -0.052561
v 0.056090 -0.051532 -0.052561
v 0.056090 -0.021532 -0.052561
v 0.026090 -0.021532 -0.052561
v 0.053016 -0.078239 -0.095076
v 0.083016 -0.078239 -0.095076
v 0.083016 -0.048239 -0.095076
v 0.053016 -0.048239 -0.095076
v 0.053016 -0.078239 -0.065076
v 0.083016 -0.078239 -0.065076
v 0.083016 -0.048239 -0.065076
v 0.053016 -0.048239 -0.065076
v 0.067042 -0.085340 -0.122516
v 0.097043 -0.085340 -0.122516
v 0.097043 -0.055340 -0.122516
v 0.067042 -0.055340 -0.122516
v 0.067042 -0.085340 -0.092516
v 0.097043 -0.085340 -0.092516
v 0.097043 -0.055340 -0.092516
v 0.067042 -0.055340 -0.092516
v 0.096227 -0.095346 -0.134988
v 0.126227 -0.095346 -0.134988
v 0.126227 -0.065346 -0.134988
v 0.096227 -0.065346 -0.134988
v 0.096227 -0.095346 -0.104988
v 0.126227 -0.095346 -0.104988
v 0.126227 -0.065346 -0.104988
v 0.096227 -0.065346 -0.104988
v 0.006397 -0.047792 -0.085262
v 0.036397 -0.047792 -0.085262
v 0.036397 -0.017792 -0.085262
v 0.006397 -0.017792 -0.085262
v 0.006397 -0.047792 -0.055262
v 0.036397 -0.047792 -0.055262
v 0.036397 -0.017792 -0.055262
v 0.006397 -0.017792 -0.055262
v 0.018894 -0.079817 -0.103028
v 0.048894 -0.079817 -0.103028
v 0.048894 -0.049817 -0.103028
v 0.018894 -0.049817 -0.103028
v 0.018894 -0.079817 -0.073027
v 0.048894 -0.079817 -0.073027
v 0.048894 -0.049817 -0.073027
v 0.018894 -0.049817 -0.073027
v 0.028558 -0.090370 -0.128853
v 0.058558 -0.090370 -0.128853
v 0.058558 -0.060370 -0.128853
v 0.028558 -0.060370 -0.128853
v 0.028558 -0.090370 -0.098853
v 0.058558 -0.090370 -0.098853
v 0.058558 -0.060370 -0.098853
v 0.028558 -0.060370 -0.098853
v 0.038096 -0.104873 -0.151264
v 0.068096 -0.104873 -0.151264
v 0.068096 -0.074873 -0.151264
v 0.038096 -0.074873 -0.151264
v 0.038096 -0.104873 -0.121264
v 0.068096 -0.104873 -0.121264
v 0.068096 -0.074873 -0.121264
v 0.038096 -0.074873 -0.121264
v -0.018101 -0.047032 -0.080213
v 0.011899 -0.047032 -0.080213
v 0.011899 -0.017032 -0.080213
v -0.018101 -0.017032 -0.080213
v -0.018101 -0.047032 -0.050213
v 0.011899 -0.047032 -0.050213
v 0.011899 -0.017032 -0.050213
v -0.018101 -0.017032 -0.050213
v -0.021410 -0.069155 -0.092717
v 0.008590 -0.069155 -0.092717
v 0.008590 -0.039155 -0.092717
v -0.021410 -0.039155 -0.092717
v -0.021410 -0.069155 -0.062717
v 0.008590 -0.069155 -0.062717
v 0.008590 -0.039155 -0.062717
v -0.021410 -0.039155 -0.062717
v -0.018670 -0.078858 -0.112465
v 0.011330 -0.078858 -0.112465
v 0.011330 -0.048858 -0.112465
v -0.018670 -0.048858 -0.112465
v -0.018670 -0.078858 -0.082465
v 0.011330 -0.078858 -0.082465
v 0.011330 -0.048858 -0.082465
v -0.018670 -0.048858 -0.082465
v -0.011564 -0.091947 -0.131113
v 0.018436 -0.091947 -0.131113
v 0.018436 -0.061947 -0.131113
v -0.011564 -0.061947 -0.131113
v -0.011564 -0.091947 -0.101113
v 0.018436 -0.091947 -0.101113
v 0.018436 -0.061947 -0.101113
v -0.011564 -0.061947 -0.101113
f 1 2 9
f 2 10 9
f 2 3 10
f 3 11 10
f 3 4 11
f 4 12 11
f 4 5 12
f 5 13 12
f 5 6 13
f 6 14 13
f 6 7 14
f 7 15 14
f 7 8 15
f 8 16 15
f 8 1 16
f 1 9 16
f 17 18 25
f 18 26 25
f 18 19 26
f 19 27 26
f 19 20 27
f 20 28 27
f 20 21 28
f 21 29 28
f 21 22 29
f 22 30 29
f 22 23 30
f 23 31 30
f 23 24 31
f 24 32 31
f 24 17 32
f 17 25 32
f 33 34 41
f 34 42 41
f 34 35 42
f 35 43 42
f 35 36 43
f 36 44 43
f 36 37 44
f 37 45 44
f 37 38 45
f 38 46 45
f 38 39 46
f 39 47 46
f 39 40 47
f 40 48 47
f 40 33 48
f 33 41 48
f 49 50 57
f 50 58 57
f 50 51 58
f 51 59 58
f 51 52 59
f 52 60 59
f 52 53 60
f 53 61 60
f 53 54 61
f 54 62 61
f 54 55 62
f 55 63 62
f 55 56 63
f 56 64 63
f 56 49 64
f 49 57 64
f 65 66 73
f 66 74 73
f 66 67 74
f 67 75 74
f 67 68 75
f 68 76 75
f 68 69 76
f 69 77 76
f 69 70 77
f 70 78 77
f 70 71 78
f 71 79 78
f 71 72 79
f 72 80 79
f 72 65 80
f 65 73 80
f 81 82 89
f 82 90 89
f 82 83 90
f 83 91 90
f 83 84 91
f 84 92 91
f 84 85 92
f 85 93 92
f 85 86 93
f 86 94 93
f 86 87 94
f 87 95 94
f 87 88 95
f 88 96 95
f 88 81 96
f 81 89 96
f 97 98 105
f 98 106 105
f 98 99 106
f 99 107 106
f 99 100 107
f 100 108 107
f 100 101 108
f 101 109 108
f 101 102 109
f 102 110 109
f 102 103 110
f 103 111 110
f 103 104 111
f 104 112 111
f 104 97 112
f 97 105 112
f 113 114 121
f 114 122 121
f 114 115 122
f 115 123 122
f 115 116 123
f 116 124 123
f 116 117 124
f 117 125 124
f 117 118 125
f 118 126 125
f 118 119 126
f 119 127 126
f 119 120 127
f 120 128 127
f 120 113 128
f 113 121 128
f 129 130 137
f 130 138 137
f 130 131 138
f 131 139 138
f 131 132 139
f 132 140 139
f 132 133 140
f 133 141 140
f 133 134 141
f 134 142 141
f 134 135 142
f 135 143 142
f 135 136 143
f 136 144 143
f 136 129 144
f 129 137 144
f 145 146 153
f 146 154 153
f 146 147 154
f 147 155 154
f 147 148 155
f 148 156 155
f 148 149 156
f 149 157 156
f 149 150 157
f 150 158 157
f 150 151 158
f 151 159 158
f 151 152 159
f 152 160 159
f 152 145 160
f 145 153 160
f 161 162 169
f 162 170 169
f 162 163 170
f 163 171 170
f 163 164 171
f 164 172 171
f 164 165 172
f 165 173 172
f 165 166 173
f 166 174 173
f 166 167 174
f 167 175 174
f 167 168 175
f 168 176 175
f 168 161 176
f 161 169 176
f 177 178 185
f 178 186 185
f 178 179 186
f 179 187 186
f 179 180 187
f 180 188 187
f 180 181 188
f 181 189 188
f 181 182 189
f 182 190 189
f 182 183 190
f 183 191 190
f 183 184 191
f 184 192 191
f 184 177 192
f 177 185 192
f 193 194 201
f 194 202 201
f 194 195 202
f 195 203 202
f 195 196 203
f 196 204 203
f 196 197 204
f 197 205 204
f 197 198 205
f 198 206 205
f 198 199 206
f 199 207 206
f 199 200 207
f 200 208 207
f 200 193 208
f 193 201 208
f 209 210 217
f 210 218 217
f 210 211 218
f 211 219 218
f 211 212 219
f 212 220 219
f 212 213 220
f 213 221 220
f 213 214 221
f 214 222 221
f 214 215 222
f 215 223 222
f 215 216 223
f 216 224 223
f 216 209 224
f 209 217 224
f 225 226 233
f 226 234 233
f 226 227 234
f 227 235 234
f 227 228 235
f 228 236 235
f 228 229 236
f 229 237 236
f 229 230 237
f 230 238 237
f 230 231 238
f 231 239 238
f 231 232 239
f 232 240 239
f 232 225 240
f 225 233 240
f 241 242 249
f 242 250 249
f 242 243 250
f 243 251 250
f 243 244 251
f 244 252 251
f 244 245 252
f 245 253 252
f 245 246 253
f 246 254 253
f 246 247 254
f 247 255 254
f 247 248 255
f 248 256 255
f 248 241 256
f 241 249 256
f 257 258 265
f 258 266 265
f 258 259 266
f 259 267 266
f 259 260 267
f 260 268 267
f 260 261 268
f 261 269 268
f 261 262 269
f 262 270 269
f 262 263 270
f 263 271 270
f 263 264 271
f 264 272 271
f 264 257 272
f 257 265 272
f 273 274 281
f 274 282 281
f 274 275 282
f 275 283 282
f 275 276 283
f 276 284 283
f 276 277 284
f 277 285 284
f 277 278 285
f 278 286 285
f 278 279 286
f 279 287 286
f 279 280 287
f 280 288 287
f 280 273 288
f 273 281 288
f 289 290 297
f 290 298 297
f 290 291 298
f 291 299 298
f 291 292 299
f 292 300 299
f 292 293 300
f 293 301 300
f 293 294 301
f 294 302 301
f 294 295 302
f 295 303 302
f 295 296 303
f 296 304 303
f 296 289 304
f 289 297 304
f 305 306 313
f 306 314 313
f 306 307 314
f 307 315 314
f 307 308 315
f 308 316 315
f 308 309 316
f 309 317 316
f 309 310 317
f 310 318 317
f 310 311 318
f 311 319 318
f 311 312 319
f 312 320 319
f 312 305 320
f 305 313 320
f 321 322 323
f 321 323 324
f 325 326 327
f 325 327 328
f 321 325 326
f 321 326 322
f 322 326 327
f 322 327 323
f 323 327 328
f 323 328 324
f 324 328 325
f 324 325 321
f 329 330 331
f 329 331 332
f 333 334 335
f 333 335 336
f 329 333 334
f 329 334 330
f 330 334 335
f 330 335 331
f 331 335 336
f 331 336 332
f 332 336 333
f 332 333 329
f 337 338 339
f 337 339 340
f 341 342 343
f 341 343 344
f 337 341 342
f 337 342 338
f 338 342 343
f 338 343 339
f 339 343 344
f 339 344 340
f 340 344 341
f 340 341 337
f 345 346 347
f 345 347 348
f 349 350 351
f 349 351 352
f 345 349 350
f 345 350 346
f 346 350 351
f 346 351 347
f 347 351 352
f 347 352 348
f 348 352 349
f 348 349 345
f 353 354 355
f 353 355 356
f 357 358 359
f 357 359 360
f 353 357 358
f 353 358 354
f 354 358 359
f 354 359 355
f 355 359 360
f 355 360 356
f 356 360 357
f 356 357 353
f 361 362 363
f 361 363 364
f 365 366 367
f 365 367 368
f 361 365 366
f 361 366 362
f 362 366 367
f 362 367 363
f 363 367 368
f 363 368 364
f 364 368 365
f 364 365 361
f 369 370 371
f 369 371 372
f 373 374 375
f 373 375 376
f 369 373 374
f 369 374 370
f 370 374 375
f 370 375 371
f 371 375 376
f 371 376 372
f 372 376 373
f 372 373 369
f 377 378 379
f 377 379 380
f 381 382 383
f 381 383 384
f 377 381 382
f 377 382 378
f 378 382 383
f 378 383 379
f 379 383 384
f 379 384 380
f 380 384 381
f 380 381 377
f 385 386 387
f 385 387 388
f 389 390 391
f 389 391 392
f 385 389 390
f 385 390 386
f 386 390 391
f 386 391 387
f 387 391 392
f 387 392 388
f 388 392 389
f 388 389 385
f 393 394 395
f 393 395 396
f 397 398 399
f 397 399 400
f 393 397 398
f 393 398 394
f 394 398 399
f 394 399 395
f 395 399 400
f 395 400 396
f 396 400 397
f 396 397 393
f 401 402 403
f 401 403 404
f 405 406 407
f 405 407 408
f 401 405 406
f 401 406 402
f 402 406 407
f 402 407 403
f 403 407 408
f 403 408 404
f 404 408 405
f 404 405 401
f 409 410 411
f 409 411 412
f 413 414 415
f 413 415 416
f 409 413 414
f 409 414 410
f 410 414 415
f 410 415 411
f 411 415 416
f 411 416 412
f 412 416 413
f 412 413 409
f 417 418 419
f 417 419 420
f 421 422 423
f 421 423 424
f 417 421 422
f 417 422 418
f 418 422 423
f 418 423 419
f 419 423 424
f 419 424 420
f 420 424 421
f 420 421 417
f 425 426 427
f 425 427 428
f 429 430 431
f 429 431 432
f 425 429 430
f 425 430 426
f 426 430 431
f 426 431 427
f 427 431 432
f 427 432 428
f 428 432 429
f 428 429 425
f 433 434 435
f 433 435 436
f 437 438 439
f 437 439 440
f 433 437 438
f 433 438 434
f 434 438 439
f 434 439 435
f 435 439 440
f 435 440 436
f 436 440 437
f 436 437 433
f 441 442 443
f 441 443 444
f 445 446 447
f 445 447 448
f 441 445 446
f 441 446 442
f 442 446 447
f 442 447 443
f 443 447 448
f 443 448 444
f 444 448 445
f 444 445 441
f 449 450 451
f 449 451 452
f 453 454 455
f 453 455 456
f 449 453 454
f 449 454 450
f 450 454 455
f 450 455 451
f 451 455 456
f 451 456 452
f 452 456 453
f 452 453 449
f 457 458 459
f 457 459 460
f 461 462 463
f 461 463 464
f 457 461 462
f 457 462 458
f 458 462 463
f 458 463 459
f 459 463 464
f 459 464 460
f 460 464 461
f 460 461 457
f 465 466 467
f 465 467 468
f 469 470 471
f 469 471 472
f 465 469 470
f 465 470 466
f 466 470 471
f 466 471 467
f 467 471 472
f 467 472 468
f 468 472 469
f 468 469 465
f 473 474 475
f 473 475 476
f 477 478 479
f 477 479 480
f 473 477 478
f 473 478 474
f 474 478 479
f 474 479 475
f 475 479 480
f 475 480 476
f 476 480 477
f 476 477 473
f 481 482 483
f 481 483 484
f 485 486 487
f 485 487 488
f 481 485 486
f 481 486 482
f 482 486 487
f 482 487 483
f 483 487 488
f 483 488 484
f 484 488 485
f 484 485 481
