# SignFlow 3D Hand Mesh - Frame 176
v 0.006786 0.000000 0.018814
v 0.007658 -0.013811 0.012272
v 0.004044 -0.019532 -0.001459
v -0.001939 -0.013811 -0.014335
v -0.006786 -0.000000 -0.018814
v -0.007658 0.013811 -0.012272
v -0.004044 0.019532 0.001459
v 0.001939 0.013811 0.014335
v 0.042912 0.008454 0.005783
v 0.043784 -0.005358 -0.000759
v 0.040170 -0.011079 -0.014490
v 0.034187 -0.005358 -0.027365
v 0.029340 0.008454 -0.031844
v 0.028468 0.022265 -0.025302
v 0.032081 0.027986 -0.011572
v 0.038065 0.022265 0.001304
v 0.036440 0.008454 0.006967
v 0.037000 -0.005673 0.001099
v 0.037048 -0.011525 -0.013045
v 0.036556 -0.005673 -0.027181
v 0.035812 0.008454 -0.033028
v 0.035252 0.022581 -0.027161
v 0.035204 0.028432 -0.013016
v 0.035696 0.022581 0.001120
v 0.071928 0.010092 0.006410
v 0.072488 -0.004035 0.000542
v 0.072536 -0.009886 -0.013602
v 0.072044 -0.004035 -0.027739
v 0.071300 0.010092 -0.033585
v 0.070739 0.024219 -0.027718
v 0.070691 0.030071 -0.013573
v 0.071183 0.024219 0.000563
v 0.078917 0.010092 0.005031
v 0.076262 -0.004039 -0.000220
v 0.070884 -0.009892 -0.013302
v 0.065934 -0.004039 -0.026551
v 0.064310 0.010092 -0.032207
v 0.066965 0.024224 -0.026956
v 0.072343 0.030077 -0.013874
v 0.077293 0.024224 -0.000625
v 0.111840 0.008706 -0.007883
v 0.109185 -0.005425 -0.013134
v 0.103807 -0.011278 -0.026216
v 0.098857 -0.005425 -0.039465
v 0.097233 0.008706 -0.045121
v 0.099888 0.022837 -0.039870
v 0.105266 0.028691 -0.026788
v 0.110216 0.022837 -0.013539
v 0.106433 0.008706 -0.006592
v 0.101952 -0.004875 -0.012050
v 0.098984 -0.010500 -0.025973
v 0.099269 -0.004875 -0.040206
v 0.102639 0.008706 -0.046412
v 0.107121 0.022287 -0.040955
v 0.110089 0.027913 -0.027031
v 0.109804 0.022287 -0.012798
v 0.132548 0.001088 -0.009080
v 0.128066 -0.012493 -0.014538
v 0.125098 -0.018118 -0.028461
v 0.125383 -0.012493 -0.042695
v 0.128754 0.001088 -0.048900
v 0.133236 0.014669 -0.043443
v 0.136203 0.020294 -0.029519
v 0.135918 0.014669 -0.015286
v 0.000000 -0.019260 0.005390
v -0.008386 -0.016688 -0.007155
v -0.011860 -0.004340 -0.015508
v -0.008386 0.010550 -0.014778
v -0.000000 0.019260 -0.005390
v 0.008386 0.016688 0.007155
v 0.011860 0.004340 0.015508
v 0.008386 -0.010550 0.014778
v 0.072658 -0.033681 -0.046137
v 0.064272 -0.031109 -0.058682
v 0.060799 -0.018761 -0.067036
v 0.064272 -0.003871 -0.066305
v 0.072658 0.004839 -0.056918
v 0.081044 0.002267 -0.044373
v 0.084518 -0.010081 -0.036019
v 0.081044 -0.024971 -0.036750
v 0.072658 -0.030629 -0.039810
v 0.065840 -0.033141 -0.053283
v 0.063016 -0.024686 -0.065727
v 0.065840 -0.010219 -0.069853
v 0.072658 0.001787 -0.063244
v 0.079477 0.004299 -0.049771
v 0.082301 -0.004156 -0.037327
v 0.079477 -0.018624 -0.033201
v 0.095120 -0.037871 -0.049828
v 0.088302 -0.040383 -0.063301
v 0.085477 -0.031928 -0.075745
v 0.088302 -0.017460 -0.079871
v 0.095120 -0.005454 -0.073262
v 0.101938 -0.002943 -0.059789
v 0.104763 -0.011398 -0.047345
v 0.101938 -0.025865 -0.043219
v 0.095120 -0.037039 -0.048755
v 0.087260 -0.040054 -0.061540
v 0.084005 -0.032296 -0.074327
v 0.087260 -0.018309 -0.079627
v 0.095120 -0.006287 -0.074335
v 0.102980 -0.003272 -0.061550
v 0.106235 -0.011030 -0.048763
v 0.102980 -0.025017 -0.043463
v 0.110818 -0.043750 -0.056823
v 0.102959 -0.046765 -0.069608
v 0.099703 -0.039007 -0.082396
v 0.102959 -0.025021 -0.087696
v 0.110818 -0.012999 -0.082403
v 0.118678 -0.009983 -0.069619
v 0.121934 -0.017742 -0.056831
v 0.118678 -0.031728 -0.051531
v 0.110818 -0.047682 -0.064397
v 0.098978 -0.044044 -0.073390
v 0.094073 -0.031227 -0.080171
v 0.098978 -0.016739 -0.080768
v 0.110818 -0.009067 -0.074830
v 0.122659 -0.012705 -0.065837
v 0.127563 -0.025522 -0.059055
v 0.122659 -0.040010 -0.058459
v 0.126396 -0.053903 -0.087422
v 0.114556 -0.050265 -0.096415
v 0.109651 -0.037448 -0.103197
v 0.114556 -0.022960 -0.103793
v 0.126396 -0.015288 -0.097855
v 0.138237 -0.018926 -0.088862
v 0.143141 -0.031743 -0.082081
v 0.138237 -0.046231 -0.081484
v 0.000000 -0.018615 0.007313
v -0.010196 -0.016746 -0.003951
v -0.014419 -0.005067 -0.012900
v -0.010196 0.009580 -0.014292
v -0.000000 0.018615 -0.007313
v 0.010196 0.016746 0.003951
v 0.014419 0.005067 0.012900
v 0.010196 -0.009580 0.014292
v 0.057051 -0.040318 -0.047935
v 0.046855 -0.038449 -0.059198
v 0.042631 -0.026770 -0.068147
v 0.046855 -0.012123 -0.069539
v 0.057051 -0.003087 -0.062560
v 0.067247 -0.004956 -0.051296
v 0.071470 -0.016635 -0.042347
v 0.067247 -0.031282 -0.040955
v 0.057051 -0.040391 -0.048123
v 0.047248 -0.038548 -0.059734
v 0.043188 -0.026838 -0.068717
v 0.047248 -0.012119 -0.069810
v 0.057051 -0.003015 -0.062372
v 0.066854 -0.004857 -0.050760
v 0.070914 -0.016567 -0.041777
v 0.066854 -0.031286 -0.040685
v 0.083332 -0.049394 -0.071739
v 0.073529 -0.047551 -0.083350
v 0.069468 -0.035841 -0.092333
v 0.073529 -0.021123 -0.093426
v 0.083332 -0.012018 -0.085988
v 0.093134 -0.013860 -0.074376
v 0.097195 -0.025571 -0.065393
v 0.093134 -0.040289 -0.064301
v 0.083332 -0.050198 -0.074386
v 0.070658 -0.045894 -0.081814
v 0.065408 -0.032693 -0.087513
v 0.070658 -0.018327 -0.088145
v 0.083332 -0.011213 -0.083340
v 0.096005 -0.015518 -0.075913
v 0.101255 -0.028719 -0.070214
v 0.096005 -0.043084 -0.069581
v 0.096607 -0.056200 -0.100516
v 0.083934 -0.051896 -0.107944
v 0.078684 -0.038694 -0.113643
v 0.083934 -0.024329 -0.114276
v 0.096607 -0.017215 -0.109471
v 0.109281 -0.021520 -0.102043
v 0.114530 -0.034721 -0.096344
v 0.109281 -0.049086 -0.095711
v 0.096607 -0.056657 -0.103564
v 0.085199 -0.051411 -0.112319
v 0.080474 -0.037553 -0.116784
v 0.085199 -0.023199 -0.114341
v 0.096607 -0.016759 -0.106423
v 0.108015 -0.022004 -0.097668
v 0.112741 -0.035863 -0.093204
v 0.108015 -0.050216 -0.095646
v 0.116409 -0.058589 -0.130521
v 0.105001 -0.053343 -0.139277
v 0.100275 -0.039485 -0.143741
v 0.105001 -0.025131 -0.141299
v 0.116409 -0.018691 -0.133381
v 0.127817 -0.023936 -0.124625
v 0.132542 -0.037795 -0.120161
v 0.127817 -0.052148 -0.122603
v 0.000000 -0.018695 0.007106
v -0.012140 -0.015797 -0.001756
v -0.017169 -0.003645 -0.009589
v -0.012140 0.010642 -0.011805
v -0.000000 0.018695 -0.007106
v 0.012140 0.015797 0.001756
v 0.017169 0.003645 0.009589
v 0.012140 -0.010642 0.011805
v 0.039517 -0.042193 -0.054716
v 0.027376 -0.039295 -0.063578
v 0.022348 -0.027143 -0.071411
v 0.027376 -0.012856 -0.073627
v 0.039517 -0.004803 -0.068928
v 0.051657 -0.007701 -0.060066
v 0.056685 -0.019853 -0.052233
v 0.051657 -0.034140 -0.050017
v 0.039517 -0.042114 -0.054512
v 0.027187 -0.039194 -0.063101
v 0.022081 -0.027079 -0.070941
v 0.027187 -0.012866 -0.073439
v 0.039517 -0.004882 -0.069132
v 0.051846 -0.007802 -0.060543
v 0.056953 -0.019917 -0.052703
v 0.051846 -0.034129 -0.050205
v 0.053193 -0.051010 -0.077168
v 0.040864 -0.048090 -0.085757
v 0.035757 -0.035975 -0.093597
v 0.040864 -0.021763 -0.096095
v 0.053193 -0.013778 -0.091788
v 0.065522 -0.016698 -0.083198
v 0.070629 -0.028813 -0.075358
v 0.065522 -0.043026 -0.072860
v 0.053193 -0.052329 -0.082861
v 0.039970 -0.046895 -0.088332
v 0.034492 -0.032967 -0.091546
v 0.039970 -0.018704 -0.090619
v 0.053193 -0.012460 -0.086094
v 0.066416 -0.017893 -0.080623
v 0.071894 -0.031821 -0.077409
v 0.066416 -0.046085 -0.078336
v 0.063950 -0.054622 -0.111134
v 0.050726 -0.049188 -0.116606
v 0.045249 -0.035260 -0.119819
v 0.050726 -0.020997 -0.118892
v 0.063950 -0.014752 -0.114368
v 0.077173 -0.020186 -0.108896
v 0.082650 -0.034114 -0.105683
v 0.077173 -0.048378 -0.106610
v 0.063950 -0.054682 -0.112288
v 0.052260 -0.049010 -0.120381
v 0.047418 -0.034948 -0.124004
v 0.052260 -0.020733 -0.121036
v 0.063950 -0.014692 -0.113214
v 0.075639 -0.020364 -0.105121
v 0.080481 -0.034427 -0.101498
v 0.075639 -0.048641 -0.104466
v 0.081217 -0.055269 -0.137641
v 0.069527 -0.049597 -0.145734
v 0.064685 -0.035535 -0.149357
v 0.069527 -0.021320 -0.146388
v 0.081217 -0.015279 -0.138567
v 0.092907 -0.020951 -0.130474
v 0.097749 -0.035013 -0.126850
v 0.092907 -0.049228 -0.129819
v 0.000000 -0.018775 0.006893
v -0.013495 -0.014733 0.000903
v -0.019085 -0.002061 -0.005615
v -0.013495 0.011818 -0.008844
v -0.000000 0.018775 -0.006893
v 0.013495 0.014733 -0.000903
v 0.019085 0.002061 0.005615
v 0.013495 -0.011818 0.008844
v 0.020076 -0.040849 -0.053235
v 0.006581 -0.036807 -0.059224
v 0.000991 -0.024135 -0.065743
v 0.006581 -0.010256 -0.068972
v 0.020076 -0.003299 -0.067020
v 0.033571 -0.007340 -0.061030
v 0.039160 -0.020012 -0.054512
v 0.033571 -0.033892 -0.051283
v 0.020076 -0.038571 -0.048820
v 0.005985 -0.034422 -0.053128
v 0.000149 -0.023039 -0.061536
v 0.005985 -0.011091 -0.069118
v 0.020076 -0.005577 -0.071434
v 0.034166 -0.009726 -0.067127
v 0.040003 -0.021109 -0.058719
v 0.034166 -0.033057 -0.051136
v 0.021952 -0.050950 -0.066881
v 0.007861 -0.046800 -0.071189
v 0.002025 -0.035418 -0.079597
v 0.007861 -0.023470 -0.087179
v 0.021952 -0.017956 -0.089495
v 0.036042 -0.022105 -0.085188
v 0.041879 -0.033487 -0.076780
v 0.036042 -0.045435 -0.069197
v 0.021952 -0.053990 -0.073913
v 0.007811 -0.048317 -0.075387
v 0.001954 -0.034521 -0.078503
v 0.007811 -0.020686 -0.081434
v 0.021952 -0.014915 -0.082464
v 0.036092 -0.020589 -0.080989
v 0.041949 -0.034384 -0.077874
v 0.036092 -0.048219 -0.074943
v 0.022299 -0.058598 -0.094967
v 0.008158 -0.052924 -0.096442
v 0.002301 -0.039129 -0.099558
v 0.008158 -0.025294 -0.102489
v 0.022299 -0.019523 -0.103519
v 0.036439 -0.025197 -0.102044
v 0.042296 -0.038992 -0.098929
v 0.036439 -0.052827 -0.095997
v 0.022299 -0.058461 -0.094382
v 0.008308 -0.053281 -0.097810
v 0.002513 -0.039771 -0.102078
v 0.008308 -0.025845 -0.104685
v 0.022299 -0.019660 -0.104105
v 0.036289 -0.024840 -0.100677
v 0.042084 -0.038350 -0.096409
v 0.036289 -0.052276 -0.093801
v 0.026080 -0.064683 -0.119214
v 0.012089 -0.059504 -0.122642
v 0.006294 -0.045994 -0.126910
v 0.012089 -0.032068 -0.129517
v 0.026080 -0.025883 -0.128937
v 0.040070 -0.031063 -0.125509
v 0.045865 -0.044573 -0.121241
v 0.040070 -0.058499 -0.118633
v -0.015000 -0.015000 -0.015000
v 0.015000 -0.015000 -0.015000
v 0.015000 0.015000 -0.015000
v -0.015000 0.015000 -0.015000
v -0.015000 -0.015000 0.015000
v 0.015000 -0.015000 0.015000
v 0.015000 0.015000 0.015000
v -0.015000 0.015000 0.015000
v 0.021126 -0.006546 -0.028031
v 0.051126 -0.006546 -0.028031
v 0.051126 0.023454 -0.028031
v 0.021126 0.023454 -0.028031
v 0.021126 -0.006546 0.001969
v 0.051126 -0.006546 0.001969
v 0.051126 0.023454 0.001969
v 0.021126 0.023454 0.001969
v 0.056614 -0.004908 -0.028588
v 0.086614 -0.004908 -0.028588
v 0.086614 0.025092 -0.028588
v 0.056614 0.025092 -0.028588
v 0.056614 -0.004908 0.001412
v 0.086614 -0.004908 0.001412
v 0.086614 0.025092 0.001412
v 0.056614 0.025092 0.001412
v 0.089536 -0.006294 -0.041502
v 0.119536 -0.006294 -0.041502
v 0.119536 0.023706 -0.041502
v 0.089536 0.023706 -0.041502
v 0.089536 -0.006294 -0.011502
v 0.119536 -0.006294 -0.011502
v 0.119536 0.023706 -0.011502
v 0.089536 0.023706 -0.011502
v 0.115651 -0.013912 -0.043990
v 0.145651 -0.013912 -0.043990
v 0.145651 0.016088 -0.043990
v 0.115651 0.016088 -0.043990
v 0.115651 -0.013912 -0.013990
v 0.145651 -0.013912 -0.013990
v 0.145651 0.016088 -0.013990
v 0.115651 0.016088 -0.013990
v 0.057658 -0.029421 -0.066527
v 0.087658 -0.029421 -0.066527
v 0.087658 0.000579 -0.066527
v 0.057658 0.000579 -0.066527
v 0.057658 -0.029421 -0.036527
v 0.087658 -0.029421 -0.036527
v 0.087658 0.000579 -0.036527
v 0.057658 0.000579 -0.036527
v 0.080120 -0.036663 -0.076545
v 0.110120 -0.036663 -0.076545
v 0.110120 -0.006663 -0.076545
v 0.080120 -0.006663 -0.076545
v 0.080120 -0.036663 -0.046545
v 0.110120 -0.036663 -0.046545
v 0.110120 -0.006663 -0.046545
v 0.080120 -0.006663 -0.046545
v 0.095818 -0.043374 -0.084613
v 0.125818 -0.043374 -0.084613
v 0.125818 -0.013374 -0.084613
v 0.095818 -0.013374 -0.084613
v 0.095818 -0.043374 -0.054613
v 0.125818 -0.043374 -0.054613
v 0.125818 -0.013374 -0.054613
v 0.095818 -0.013374 -0.054613
v 0.111396 -0.049596 -0.107639
v 0.141396 -0.049596 -0.107639
v 0.141396 -0.019596 -0.107639
v 0.111396 -0.019596 -0.107639
v 0.111396 -0.049596 -0.077639
v 0.141396 -0.049596 -0.077639
v 0.141396 -0.019596 -0.077639
v 0.111396 -0.019596 -0.077639
v 0.042051 -0.036703 -0.070247
v 0.072051 -0.036703 -0.070247
v 0.072051 -0.006703 -0.070247
v 0.042051 -0.006703 -0.070247
v 0.042051 -0.036703 -0.040247
v 0.072051 -0.036703 -0.040247
v 0.072051 -0.006703 -0.040247
v 0.042051 -0.006703 -0.040247
v 0.068332 -0.045706 -0.093863
v 0.098332 -0.045706 -0.093863
v 0.098332 -0.015706 -0.093863
v 0.068332 -0.015706 -0.093863
v 0.068332 -0.045706 -0.063863
v 0.098332 -0.045706 -0.063863
v 0.098332 -0.015706 -0.063863
v 0.068332 -0.015706 -0.063863
v 0.081607 -0.051708 -0.119994
v 0.111607 -0.051708 -0.119994
v 0.111607 -0.021708 -0.119994
v 0.081607 -0.021708 -0.119994
v 0.081607 -0.051708 -0.089994
v 0.111607 -0.051708 -0.089994
v 0.111607 -0.021708 -0.089994
v 0.081607 -0.021708 -0.089994
v 0.101409 -0.053640 -0.146951
v 0.131409 -0.053640 -0.146951
v 0.131409 -0.023640 -0.146951
v 0.101409 -0.023640 -0.146951
v 0.101409 -0.053640 -0.116951
v 0.131409 -0.053640 -0.116951
v 0.131409 -0.023640 -0.116951
v 0.101409 -0.023640 -0.116951
v 0.024517 -0.038498 -0.076822
v 0.054517 -0.038498 -0.076822
v 0.054517 -0.008498 -0.076822
v 0.024517 -0.008498 -0.076822
v 0.024517 -0.038498 -0.046822
v 0.054517 -0.038498 -0.046822
v 0.054517 -0.008498 -0.046822
v 0.024517 -0.008498 -0.046822
v 0.038193 -0.047394 -0.099478
v 0.068193 -0.047394 -0.099478
v 0.068193 -0.017394 -0.099478
v 0.038193 -0.017394 -0.099478
v 0.038193 -0.047394 -0.069478
v 0.068193 -0.047394 -0.069478
v 0.068193 -0.017394 -0.069478
v 0.038193 -0.017394 -0.069478
v 0.048950 -0.049687 -0.127751
v 0.078950 -0.049687 -0.127751
v 0.078950 -0.019687 -0.127751
v 0.048950 -0.019687 -0.127751
v 0.048950 -0.049687 -0.097751
v 0.078950 -0.049687 -0.097751
v 0.078950 -0.019687 -0.097751
v 0.048950 -0.019687 -0.097751
v 0.066217 -0.050274 -0.153104
v 0.096217 -0.050274 -0.153104
v 0.096217 -0.020274 -0.153104
v 0.066217 -0.020274 -0.153104
v 0.066217 -0.050274 -0.123104
v 0.096217 -0.050274 -0.123104
v 0.096217 -0.020274 -0.123104
v 0.066217 -0.020274 -0.123104
v 0.005076 -0.037074 -0.075127
v 0.035076 -0.037074 -0.075127
v 0.035076 -0.007074 -0.075127
v 0.005076 -0.007074 -0.075127
v 0.005076 -0.037074 -0.045127
v 0.035076 -0.037074 -0.045127
v 0.035076 -0.007074 -0.045127
v 0.005076 -0.007074 -0.045127
v 0.006952 -0.049453 -0.093188
v 0.036952 -0.049453 -0.093188
v 0.036952 -0.019453 -0.093188
v 0.006952 -0.019453 -0.093188
v 0.006952 -0.049453 -0.063188
v 0.036952 -0.049453 -0.063188
v 0.036952 -0.019453 -0.063188
v 0.006952 -0.019453 -0.063188
v 0.007299 -0.054060 -0.114243
v 0.037299 -0.054060 -0.114243
v 0.037299 -0.024060 -0.114243
v 0.007299 -0.024060 -0.114243
v 0.007299 -0.054060 -0.084243
v 0.037299 -0.054060 -0.084243
v 0.037299 -0.024060 -0.084243
v 0.007299 -0.024060 -0.084243
v 0.011080 -0.060283 -0.139075
v 0.041080 -0.060283 -0.139075
v 0.041080 -0.030283 -0.139075
v 0.011080 -0.030283 -0.139075
v 0.011080 -0.060283 -0.109075
v 0.041080 -0.060283 -0.109075
v 0.041080 -0.030283 -0.109075
v 0.011080 -0.030283 -0.109075
f 1 2 9
f 2 10 9
f 2 3 10
f 3 11 10
f 3 4 11
f 4 12 11
f 4 5 12
f 5 13 12
f 5 6 13
f 6 14 13
f 6 7 14
f 7 15 14
f 7 8 15
f 8 16 15
f 8 1 16
f 1 9 16
f 17 18 25
f 18 26 25
f 18 19 26
f 19 27 26
f 19 20 27
f 20 28 27
f 20 21 28
f 21 29 28
f 21 22 29
f 22 30 29
f 22 23 30
f 23 31 30
f 23 24 31
f 24 32 31
f 24 17 32
f 17 25 32
f 33 34 41
f 34 42 41
f 34 35 42
f 35 43 42
f 35 36 43
f 36 44 43
f 36 37 44
f 37 45 44
f 37 38 45
f 38 46 45
f 38 39 46
f 39 47 46
f 39 40 47
f 40 48 47
f 40 33 48
f 33 41 48
f 49 50 57
f 50 58 57
f 50 51 58
f 51 59 58
f 51 52 59
f 52 60 59
f 52 53 60
f 53 61 60
f 53 54 61
f 54 62 61
f 54 55 62
f 55 63 62
f 55 56 63
f 56 64 63
f 56 49 64
f 49 57 64
f 65 66 73
f 66 74 73
f 66 67 74
f 67 75 74
f 67 68 75
f 68 76 75
f 68 69 76
f 69 77 76
f 69 70 77
f 70 78 77
f 70 71 78
f 71 79 78
f 71 72 79
f 72 80 79
f 72 65 80
f 65 73 80
f 81 82 89
f 82 90 89
f 82 83 90
f 83 91 90
f 83 84 91
f 84 92 91
f 84 85 92
f 85 93 92
f 85 86 93
f 86 94 93
f 86 87 94
f 87 95 94
f 87 88 95
f 88 96 95
f 88 81 96
f 81 89 96
f 97 98 105
f 98 106 105
f 98 99 106
f 99 107 106
f 99 100 107
f 100 108 107
f 100 101 108
f 101 109 108
f 101 102 109
f 102 110 109
f 102 103 110
f 103 111 110
f 103 104 111
f 104 112 111
f 104 97 112
f 97 105 112
f 113 114 121
f 114 122 121
f 114 115 122
f 115 123 122
f 115 116 123
f 116 124 123
f 116 117 124
f 117 125 124
f 117 118 125
f 118 126 125
f 118 119 126
f 119 127 126
f 119 120 127
f 120 128 127
f 120 113 128
f 113 121 128
f 129 130 137
f 130 138 137
f 130 131 138
f 131 139 138
f 131 132 139
f 132 140 139
f 132 133 140
f 133 141 140
f 133 134 141
f 134 142 141
f 134 135 142
f 135 143 142
f 135 136 143
f 136 144 143
f 136 129 144
f 129 137 144
f 145 146 153
f 146 154 153
f 146 147 154
f 147 155 154
f 147 148 155
f 148 156 155
f 148 149 156
f 149 157 156
f 149 150 157
f 150 158 157
f 150 151 158
f 151 159 158
f 151 152 159
f 152 160 159
f 152 145 160
f 145 153 160
f 161 162 169
f 162 170 169
f 162 163 170
f 163 171 170
f 163 164 171
f 164 172 171
f 164 165 172
f 165 173 172
f 165 166 173
f 166 174 173
f 166 167 174
f 167 175 174
f 167 168 175
f 168 176 175
f 168 161 176
f 161 169 176
f 177 178 185
f 178 186 185
f 178 179 186
f 179 187 186
f 179 180 187
f 180 188 187
f 180 181 188
f 181 189 188
f 181 182 189
f 182 190 189
f 182 183 190
f 183 191 190
f 183 184 191
f 184 192 191
f 184 177 192
f 177 185 192
f 193 194 201
f 194 202 201
f 194 195 202
f 195 203 202
f 195 196 203
f 196 204 203
f 196 197 204
f 197 205 204
f 197 198 205
f 198 206 205
f 198 199 206
f 199 207 206
f 199 200 207
f 200 208 207
f 200 193 208
f 193 201 208
f 209 210 217
f 210 218 217
f 210 211 218
f 211 219 218
f 211 212 219
f 212 220 219
f 212 213 220
f 213 221 220
f 213 214 221
f 214 222 221
f 214 215 222
f 215 223 222
f 215 216 223
f 216 224 223
f 216 209 224
f 209 217 224
f 225 226 233
f 226 234 233
f 226 227 234
f 227 235 234
f 227 228 235
f 228 236 235
f 228 229 236
f 229 237 236
f 229 230 237
f 230 238 237
f 230 231 238
f 231 239 238
f 231 232 239
f 232 240 239
f 232 225 240
f 225 233 240
f 241 242 249
f 242 250 249
f 242 243 250
f 243 251 250
f 243 244 251
f 244 252 251
f 244 245 252
f 245 253 252
f 245 246 253
f 246 254 253
f 246 247 254
f 247 255 254
f 247 248 255
f 248 256 255
f 248 241 256
f 241 249 256
f 257 258 265
f 258 266 265
f 258 259 266
f 259 267 266
f 259 260 267
f 260 268 267
f 260 261 268
f 261 269 268
f 261 262 269
f 262 270 269
f 262 263 270
f 263 271 270
f 263 264 271
f 264 272 271
f 264 257 272
f 257 265 272
f 273 274 281
f 274 282 281
f 274 275 282
f 275 283 282
f 275 276 283
f 276 284 283
f 276 277 284
f 277 285 284
f 277 278 285
f 278 286 285
f 278 279 286
f 279 287 286
f 279 280 287
f 280 288 287
f 280 273 288
f 273 281 288
f 289 290 297
f 290 298 297
f 290 291 298
f 291 299 298
f 291 292 299
f 292 300 299
f 292 293 300
f 293 301 300
f 293 294 301
f 294 302 301
f 294 295 302
f 295 303 302
f 295 296 303
f 296 304 303
f 296 289 304
f 289 297 304
f 305 306 313
f 306 314 313
f 306 307 314
f 307 315 314
f 307 308 315
f 308 316 315
f 308 309 316
f 309 317 316
f 309 310 317
f 310 318 317
f 310 311 318
f 311 319 318
f 311 312 319
f 312 320 319
f 312 305 320
f 305 313 320
f 321 322 323
f 321 323 324
f 325 326 327
f 325 327 328
f 321 325 326
f 321 326 322
f 322 326 327
f 322 327 323
f 323 327 328
f 323 328 324
f 324 328 325
f 324 325 321
f 329 330 331
f 329 331 332
f 333 334 335
f 333 335 336
f 329 333 334
f 329 334 330
f 330 334 335
f 330 335 331
f 331 335 336
f 331 336 332
f 332 336 333
f 332 333 329
f 337 338 339
f 337 339 340
f 341 342 343
f 341 343 344
f 337 341 342
f 337 342 338
f 338 342 343
f 338 343 339
f 339 343 344
f 339 344 340
f 340 344 341
f 340 341 337
f 345 346 347
f 345 347 348
f 349 350 351
f 349 351 352
f 345 349 350
f 345 350 346
f 346 350 351
f 346 351 347
f 347 351 352
f 347 352 348
f 348 352 349
f 348 349 345
f 353 354 355
f 353 355 356
f 357 358 359
f 357 359 360
f 353 357 358
f 353 358 354
f 354 358 359
f 354 359 355
f 355 359 360
f 355 360 356
f 356 360 357
f 356 357 353
f 361 362 363
f 361 363 364
f 365 366 367
f 365 367 368
f 361 365 366
f 361 366 362
f 362 366 367
f 362 367 363
f 363 367 368
f 363 368 364
f 364 368 365
f 364 365 361
f 369 370 371
f 369 371 372
f 373 374 375
f 373 375 376
f 369 373 374
f 369 374 370
f 370 374 375
f 370 375 371
f 371 375 376
f 371 376 372
f 372 376 373
f 372 373 369
f 377 378 379
f 377 379 380
f 381 382 383
f 381 383 384
f 377 381 382
f 377 382 378
f 378 382 383
f 378 383 379
f 379 383 384
f 379 384 380
f 380 384 381
f 380 381 377
f 385 386 387
f 385 387 388
f 389 390 391
f 389 391 392
f 385 389 390
f 385 390 386
f 386 390 391
f 386 391 387
f 387 391 392
f 387 392 388
f 388 392 389
f 388 389 385
f 393 394 395
f 393 395 396
f 397 398 399
f 397 399 400
f 393 397 398
f 393 398 394
f 394 398 399
f 394 399 395
f 395 399 400
f 395 400 396
f 396 400 397
f 396 397 393
f 401 402 403
f 401 403 404
f 405 406 407
f 405 407 408
f 401 405 406
f 401 406 402
f 402 406 407
f 402 407 403
f 403 407 408
f 403 408 404
f 404 408 405
f 404 405 401
f 409 410 411
f 409 411 412
f 413 414 415
f 413 415 416
f 409 413 414
f 409 414 410
f 410 414 415
f 410 415 411
f 411 415 416
f 411 416 412
f 412 416 413
f 412 413 409
f 417 418 419
f 417 419 420
f 421 422 423
f 421 423 424
f 417 421 422
f 417 422 418
f 418 422 423
f 418 423 419
f 419 423 424
f 419 424 420
f 420 424 421
f 420 421 417
f 425 426 427
f 425 427 428
f 429 430 431
f 429 431 432
f 425 429 430
f 425 430 426
f 426 430 431
f 426 431 427
f 427 431 432
f 427 432 428
f 428 432 429
f 428 429 425
f 433 434 435
f 433 435 436
f 437 438 439
f 437 439 440
f 433 437 438
f 433 438 434
f 434 438 439
f 434 439 435
f 435 439 440
f 435 440 436
f 436 440 437
f 436 437 433
f 441 442 443
f 441 443 444
f 445 446 447
f 445 447 448
f 441 445 446
f 441 446 442
f 442 446 447
f 442 447 443
f 443 447 448
f 443 448 444
f 444 448 445
f 444 445 441
f 449 450 451
f 449 451 452
f 453 454 455
f 453 455 456
f 449 453 454
f 449 454 450
f 450 454 455
f 450 455 451
f 451 455 456
f 451 456 452
f 452 456 453
f 452 453 449
f 457 458 459
f 457 459 460
f 461 462 463
f 461 463 464
f 457 461 462
f 457 462 458
f 458 462 463
f 458 463 459
f 459 463 464
f 459 464 460
f 460 464 461
f 460 461 457
f 465 466 467
f 465 467 468
f 469 470 471
f 469 471 472
f 465 469 470
f 465 470 466
f 466 470 471
f 466 471 467
f 467 471 472
f 467 472 468
f 468 472 469
f 468 469 465
f 473 474 475
f 473 475 476
f 477 478 479
f 477 479 480
f 473 477 478
f 473 478 474
f 474 478 479
f 474 479 475
f 475 479 480
f 475 480 476
f 476 480 477
f 476 477 473
f 481 482 483
f 481 483 484
f 485 486 487
f 485 487 488
f 481 485 486
f 481 486 482
f 482 486 487
f 482 487 483
f 483 487 488
f 483 488 484
f 484 488 485
f 484 485 481
