# SignFlow 3D Hand Mesh - Frame 70
v 0.000000 0.017347 0.009954
v -0.013326 0.009910 0.011145
v -0.018846 -0.003332 0.005807
v -0.013326 -0.014622 -0.002932
v -0.000000 -0.017347 -0.009954
v 0.013326 -0.009910 -0.011145
v 0.018846 0.003332 -0.005807
v 0.013326 0.014622 0.002932
v 0.004158 0.011521 0.020106
v -0.009168 0.004084 0.021297
v -0.014688 -0.009158 0.015959
v -0.009168 -0.020448 0.007219
v 0.004158 -0.023172 0.000197
v 0.017484 -0.015735 -0.000993
v 0.023004 -0.002493 0.004344
v 0.017484 0.008797 0.013084
v 0.004158 0.013262 0.016125
v -0.005823 0.004679 0.023937
v -0.009957 -0.010057 0.023674
v -0.005823 -0.022314 0.015489
v 0.004158 -0.024913 0.004178
v 0.014139 -0.016330 -0.003634
v 0.018274 -0.001594 -0.003370
v 0.014139 0.010664 0.004814
v 0.020054 0.008532 0.031239
v 0.010073 -0.000051 0.039051
v 0.005939 -0.014787 0.038787
v 0.010073 -0.027044 0.030603
v 0.020054 -0.029642 0.019292
v 0.030036 -0.021060 0.011480
v 0.034170 -0.006324 0.011743
v 0.030036 0.005934 0.019928
v 0.020054 0.009339 0.023212
v 0.010835 0.004613 0.034481
v 0.007016 -0.008998 0.040351
v 0.010835 -0.023522 0.037384
v 0.020054 -0.030450 0.027319
v 0.029274 -0.025724 0.016050
v 0.033093 -0.012112 0.010180
v 0.029274 0.002411 0.013147
v 0.033074 0.010488 0.034347
v 0.023854 0.005762 0.045615
v 0.020036 -0.007849 0.051485
v 0.023854 -0.022373 0.048519
v 0.033074 -0.029301 0.038453
v 0.042294 -0.024575 0.027185
v 0.046113 -0.010963 0.021314
v 0.042294 0.003560 0.024281
v 0.033074 0.009200 0.029064
v 0.020751 0.006295 0.037667
v 0.015646 -0.005807 0.045528
v 0.020751 -0.020018 0.048042
v 0.033074 -0.028012 0.043736
v 0.045397 -0.025108 0.035133
v 0.050502 -0.013005 0.027272
v 0.045397 0.001205 0.024758
v 0.044781 0.016827 0.048409
v 0.032458 0.013922 0.057012
v 0.027353 0.001820 0.064873
v 0.032458 -0.012391 0.067387
v 0.044781 -0.020385 0.063081
v 0.057105 -0.017480 0.054478
v 0.062209 -0.005378 0.046617
v 0.057105 0.008833 0.044103
v -0.007488 0.000000 0.018545
v -0.006736 -0.014056 0.012532
v -0.002039 -0.019879 -0.000823
v 0.003853 -0.014056 -0.013696
v 0.007488 -0.000000 -0.018545
v 0.006736 0.014056 -0.012532
v 0.002039 0.019879 0.000823
v -0.003853 0.014056 0.013696
v 0.056292 -0.007608 0.044296
v 0.057043 -0.021664 0.038282
v 0.061740 -0.027487 0.024928
v 0.067632 -0.021664 0.012055
v 0.071267 -0.007608 0.007205
v 0.070516 0.006449 0.013219
v 0.065818 0.012271 0.026574
v 0.059926 0.006449 0.039447
v 0.063431 -0.007608 0.045748
v 0.064577 -0.021711 0.039909
v 0.065257 -0.027553 0.025777
v 0.065071 -0.021711 0.011629
v 0.064128 -0.007608 0.005754
v 0.062981 0.006496 0.011593
v 0.062302 0.012338 0.025725
v 0.062488 0.006496 0.039873
v 0.084822 -0.006023 0.046121
v 0.085968 -0.020126 0.040282
v 0.086648 -0.025968 0.026150
v 0.086462 -0.020126 0.012002
v 0.085519 -0.006023 0.006127
v 0.084372 0.008081 0.011966
v 0.083693 0.013922 0.026098
v 0.083879 0.008081 0.040246
v 0.080079 -0.006023 0.045465
v 0.080047 -0.020077 0.039399
v 0.083016 -0.025899 0.025557
v 0.087248 -0.020077 0.012047
v 0.090262 -0.006023 0.006783
v 0.090294 0.008031 0.012849
v 0.087324 0.013853 0.026691
v 0.083093 0.008031 0.040201
v 0.102725 -0.008647 0.051427
v 0.102694 -0.022702 0.045361
v 0.105663 -0.028523 0.031519
v 0.109894 -0.022702 0.018009
v 0.112909 -0.008647 0.012745
v 0.112941 0.005407 0.018811
v 0.109971 0.011228 0.032653
v 0.105740 0.005407 0.046163
v 0.109624 -0.008647 0.052004
v 0.108022 -0.022748 0.046268
v 0.106299 -0.028589 0.032224
v 0.105466 -0.022748 0.018099
v 0.106010 -0.008647 0.012168
v 0.107612 0.005454 0.017904
v 0.109335 0.011294 0.031948
v 0.110168 0.005454 0.046073
v 0.138804 -0.010886 0.049357
v 0.137201 -0.024987 0.043620
v 0.135479 -0.030828 0.029576
v 0.134645 -0.024987 0.015452
v 0.135189 -0.010886 0.009520
v 0.136792 0.003215 0.015257
v 0.138514 0.009055 0.029301
v 0.139348 0.003215 0.043426
v -0.005175 0.000000 0.019319
v -0.004587 -0.014110 0.013412
v -0.001311 -0.019954 -0.000351
v 0.002732 -0.014110 -0.013909
v 0.005175 -0.000000 -0.019319
v 0.004587 0.014110 -0.013412
v 0.001311 0.019954 0.000351
v -0.002732 0.014110 0.013909
v 0.065784 -0.004998 0.038328
v 0.066373 -0.019108 0.032422
v 0.069648 -0.024952 0.018658
v 0.073692 -0.019108 0.005101
v 0.076135 -0.004998 -0.000309
v 0.075546 0.009111 0.005598
v 0.072271 0.014956 0.019361
v 0.068227 0.009111 0.032918
v 0.069815 -0.004998 0.038977
v 0.068115 -0.018993 0.033012
v 0.068082 -0.024789 0.018845
v 0.069734 -0.018993 0.004774
v 0.072104 -0.004998 -0.000958
v 0.073803 0.008996 0.005007
v 0.073836 0.014793 0.019174
v 0.072184 0.008996 0.033245
v 0.096447 -0.008883 0.040504
v 0.094748 -0.022877 0.034539
v 0.094715 -0.028674 0.020372
v 0.096367 -0.022877 0.006301
v 0.098737 -0.008883 0.000569
v 0.100436 0.005112 0.006534
v 0.100469 0.010909 0.020701
v 0.098817 0.005112 0.034772
v 0.093200 -0.008883 0.040048
v 0.091311 -0.022645 0.033619
v 0.093101 -0.028346 0.019526
v 0.097522 -0.022645 0.006025
v 0.101984 -0.008883 0.001025
v 0.103873 0.004880 0.007454
v 0.102083 0.010580 0.021547
v 0.097662 0.004880 0.035048
v 0.117678 -0.014817 0.045558
v 0.115789 -0.028579 0.039128
v 0.117579 -0.034280 0.025035
v 0.122000 -0.028579 0.011535
v 0.126462 -0.014817 0.006535
v 0.128351 -0.001055 0.012964
v 0.126561 0.004646 0.027057
v 0.122140 -0.001055 0.040558
v 0.116114 -0.014817 0.045139
v 0.115626 -0.028764 0.038851
v 0.118913 -0.034542 0.025062
v 0.124049 -0.028764 0.011849
v 0.128025 -0.014817 0.006954
v 0.128514 -0.000870 0.013242
v 0.125227 0.004908 0.027031
v 0.120091 -0.000870 0.040243
v 0.150855 -0.020919 0.055975
v 0.150366 -0.034866 0.049687
v 0.153653 -0.040643 0.035898
v 0.158789 -0.034866 0.022686
v 0.162766 -0.020919 0.017790
v 0.163254 -0.006971 0.024078
v 0.159967 -0.001194 0.037867
v 0.154831 -0.006971 0.051080
v -0.001045 0.000000 0.019973
v -0.001494 -0.014122 0.014083
v -0.001068 -0.019971 -0.000056
v -0.000016 -0.014122 -0.014162
v 0.001045 -0.000000 -0.019973
v 0.001494 0.014122 -0.014083
v 0.001068 0.019971 0.000056
v 0.000016 0.014122 0.014162
v 0.073411 -0.003991 0.023868
v 0.072962 -0.018113 0.017979
v 0.073388 -0.023962 0.003839
v 0.074440 -0.018113 -0.010267
v 0.075501 -0.003991 -0.016078
v 0.075950 0.010131 -0.010188
v 0.075523 0.015981 0.003951
v 0.074472 0.010131 0.018057
v 0.072887 -0.003991 0.023834
v 0.070584 -0.017859 0.017776
v 0.070550 -0.023603 0.003588
v 0.072803 -0.017859 -0.010421
v 0.076025 -0.003991 -0.016043
v 0.078328 0.009877 -0.009986
v 0.078362 0.015622 0.004203
v 0.076109 0.009877 0.018211
v 0.091648 -0.007751 0.025310
v 0.089345 -0.021619 0.019253
v 0.089311 -0.027363 0.005064
v 0.091564 -0.021619 -0.008944
v 0.094786 -0.007751 -0.014567
v 0.097089 0.006117 -0.008510
v 0.097123 0.011862 0.005679
v 0.094870 0.006117 0.019688
v 0.086391 -0.007751 0.024171
v 0.087244 -0.021840 0.018248
v 0.091596 -0.027676 0.004783
v 0.096897 -0.021840 -0.008338
v 0.100043 -0.007751 -0.013428
v 0.099190 0.006339 -0.007505
v 0.094838 0.012175 0.005960
v 0.089537 0.006339 0.019081
v 0.107825 -0.009725 0.031953
v 0.108678 -0.023814 0.026031
v 0.113030 -0.029650 0.012566
v 0.118331 -0.023814 -0.000555
v 0.121477 -0.009725 -0.005645
v 0.120624 0.004365 0.000278
v 0.116273 0.010201 0.013743
v 0.110971 0.004365 0.026864
v 0.108202 -0.009725 0.032086
v 0.106988 -0.023482 0.025484
v 0.110263 -0.029180 0.011659
v 0.116109 -0.023482 -0.001289
v 0.121101 -0.009725 -0.005777
v 0.122315 0.004032 0.000825
v 0.119039 0.009731 0.014649
v 0.113194 0.004032 0.027598
v 0.135329 -0.016553 0.041327
v 0.134116 -0.030310 0.034725
v 0.137391 -0.036009 0.020901
v 0.143236 -0.030310 0.007952
v 0.148228 -0.016553 0.003464
v 0.149442 -0.002796 0.010066
v 0.146167 0.002902 0.023891
v 0.140321 -0.002796 0.036840
v 0.001844 0.000000 0.019915
v -0.000153 -0.014066 0.014217
v -0.002060 -0.019893 0.000191
v -0.002761 -0.014066 -0.013947
v -0.001844 -0.000000 -0.019915
v 0.000153 0.014066 -0.014217
v 0.002060 0.019893 -0.000191
v 0.002761 0.014066 0.013947
v 0.069657 -0.007083 0.013634
v 0.067660 -0.021150 0.007936
v 0.065753 -0.026976 -0.006090
v 0.065052 -0.021150 -0.020228
v 0.065968 -0.007083 -0.026195
v 0.067965 0.006983 -0.020497
v 0.069873 0.012809 -0.006471
v 0.070574 0.006983 0.007666
v 0.066978 -0.007083 0.013702
v 0.068475 -0.021170 0.007902
v 0.069584 -0.027005 -0.006207
v 0.069656 -0.021170 -0.020358
v 0.068648 -0.007083 -0.026263
v 0.067151 0.007003 -0.020463
v 0.066042 0.012838 -0.006355
v 0.065970 0.007003 0.007797
v 0.081359 -0.005802 0.014303
v 0.082857 -0.019889 0.008503
v 0.083966 -0.025724 -0.005605
v 0.084038 -0.019889 -0.019757
v 0.083030 -0.005802 -0.025662
v 0.081533 0.008284 -0.019862
v 0.080423 0.014119 -0.005753
v 0.080351 0.008284 0.008398
v 0.079281 -0.005802 0.014107
v 0.079026 -0.019900 0.008149
v 0.080627 -0.025739 -0.005910
v 0.083147 -0.019900 -0.019834
v 0.085109 -0.005802 -0.025466
v 0.085363 0.008295 -0.019507
v 0.083762 0.014135 -0.005449
v 0.081242 0.008295 0.008475
v 0.097796 -0.007289 0.016834
v 0.097541 -0.021387 0.010875
v 0.099142 -0.027227 -0.003184
v 0.101662 -0.021387 -0.017107
v 0.103624 -0.007289 -0.022739
v 0.103878 0.006808 -0.016781
v 0.102277 0.012648 -0.002722
v 0.099757 0.006808 0.011202
v 0.097290 -0.007289 0.016753
v 0.094024 -0.020752 0.010241
v 0.094675 -0.026329 -0.004000
v 0.098861 -0.020752 -0.017627
v 0.104130 -0.007289 -0.022658
v 0.107395 0.006173 -0.016146
v 0.106744 0.011750 -0.001905
v 0.102558 0.006173 0.011722
v 0.119588 -0.014570 0.020623
v 0.116323 -0.028032 0.014111
v 0.116974 -0.033609 -0.000130
v 0.121160 -0.028032 -0.013757
v 0.126428 -0.014570 -0.018788
v 0.129693 -0.001107 -0.012276
v 0.129043 0.004469 0.001965
v 0.124857 -0.001107 0.015592
v -0.015000 -0.015000 -0.015000
v 0.015000 -0.015000 -0.015000
v 0.015000 0.015000 -0.015000
v -0.015000 0.015000 -0.015000
v -0.015000 -0.015000 0.015000
v 0.015000 -0.015000 0.015000
v 0.015000 0.015000 0.015000
v -0.015000 0.015000 0.015000
v -0.010842 -0.020825 -0.004848
v 0.019158 -0.020825 -0.004848
v 0.019158 0.009175 -0.004848
v -0.010842 0.009175 -0.004848
v -0.010842 -0.020825 0.025152
v 0.019158 -0.020825 0.025152
v 0.019158 0.009175 0.025152
v -0.010842 0.009175 0.025152
v 0.005054 -0.025555 0.010265
v 0.035054 -0.025555 0.010265
v 0.035054 0.004445 0.010265
v 0.005054 0.004445 0.010265
v 0.005054 -0.025555 0.040265
v 0.035054 -0.025555 0.040265
v 0.035054 0.004445 0.040265
v 0.005054 0.004445 0.040265
v 0.018074 -0.024406 0.021400
v 0.048074 -0.024406 0.021400
v 0.048074 0.005594 0.021400
v 0.018074 0.005594 0.021400
v 0.018074 -0.024406 0.051400
v 0.048074 -0.024406 0.051400
v 0.048074 0.005594 0.051400
v 0.018074 0.005594 0.051400
v 0.029781 -0.016779 0.040745
v 0.059781 -0.016779 0.040745
v 0.059781 0.013221 0.040745
v 0.029781 0.013221 0.040745
v 0.029781 -0.016779 0.070745
v 0.059781 -0.016779 0.070745
v 0.059781 0.013221 0.070745
v 0.029781 0.013221 0.070745
v 0.048779 -0.022608 0.010751
v 0.078779 -0.022608 0.010751
v 0.078779 0.007392 0.010751
v 0.048779 0.007392 0.010751
v 0.048779 -0.022608 0.040751
v 0.078779 -0.022608 0.040751
v 0.078779 0.007392 0.040751
v 0.048779 0.007392 0.040751
v 0.070170 -0.021023 0.011124
v 0.100170 -0.021023 0.011124
v 0.100170 0.008977 0.011124
v 0.070170 0.008977 0.011124
v 0.070170 -0.021023 0.041124
v 0.100170 -0.021023 0.041124
v 0.100170 0.008977 0.041124
v 0.070170 0.008977 0.041124
v 0.092817 -0.023647 0.017086
v 0.122817 -0.023647 0.017086
v 0.122817 0.006353 0.017086
v 0.092817 0.006353 0.017086
v 0.092817 -0.023647 0.047086
v 0.122817 -0.023647 0.047086
v 0.122817 0.006353 0.047086
v 0.092817 0.006353 0.047086
v 0.121996 -0.025886 0.014439
v 0.151996 -0.025886 0.014439
v 0.151996 0.004114 0.014439
v 0.121996 0.004114 0.014439
v 0.121996 -0.025886 0.044439
v 0.151996 -0.025886 0.044439
v 0.151996 0.004114 0.044439
v 0.121996 0.004114 0.044439
v 0.055959 -0.019998 0.004010
v 0.085959 -0.019998 0.004010
v 0.085959 0.010002 0.004010
v 0.055959 0.010002 0.004010
v 0.055959 -0.019998 0.034010
v 0.085959 -0.019998 0.034010
v 0.085959 0.010002 0.034010
v 0.055959 0.010002 0.034010
v 0.082592 -0.023883 0.005536
v 0.112592 -0.023883 0.005536
v 0.112592 0.006117 0.005536
v 0.082592 0.006117 0.005536
v 0.082592 -0.023883 0.035536
v 0.112592 -0.023883 0.035536
v 0.112592 0.006117 0.035536
v 0.082592 0.006117 0.035536
v 0.107070 -0.029817 0.011046
v 0.137070 -0.029817 0.011046
v 0.137070 0.000183 0.011046
v 0.107070 0.000183 0.011046
v 0.107070 -0.029817 0.041046
v 0.137070 -0.029817 0.041046
v 0.137070 0.000183 0.041046
v 0.107070 0.000183 0.041046
v 0.141810 -0.035919 0.021883
v 0.171810 -0.035919 0.021883
v 0.171810 -0.005919 0.021883
v 0.141810 -0.005919 0.021883
v 0.141810 -0.035919 0.051883
v 0.171810 -0.035919 0.051883
v 0.171810 -0.005919 0.051883
v 0.141810 -0.005919 0.051883
v 0.059456 -0.018991 -0.011105
v 0.089456 -0.018991 -0.011105
v 0.089456 0.011009 -0.011105
v 0.059456 0.011009 -0.011105
v 0.059456 -0.018991 0.018895
v 0.089456 -0.018991 0.018895
v 0.089456 0.011009 0.018895
v 0.059456 0.011009 0.018895
v 0.078217 -0.022751 -0.009628
v 0.108217 -0.022751 -0.009628
v 0.108217 0.007249 -0.009628
v 0.078217 0.007249 -0.009628
v 0.078217 -0.022751 0.020372
v 0.108217 -0.022751 0.020372
v 0.108217 0.007249 0.020372
v 0.078217 0.007249 0.020372
v 0.099651 -0.024725 -0.001846
v 0.129651 -0.024725 -0.001846
v 0.129651 0.005275 -0.001846
v 0.099651 0.005275 -0.001846
v 0.099651 -0.024725 0.028154
v 0.129651 -0.024725 0.028154
v 0.129651 0.005275 0.028154
v 0.099651 0.005275 0.028154
v 0.126779 -0.031553 0.007396
v 0.156779 -0.031553 0.007396
v 0.156779 -0.001553 0.007396
v 0.126779 -0.001553 0.007396
v 0.126779 -0.031553 0.037396
v 0.156779 -0.031553 0.037396
v 0.156779 -0.001553 0.037396
v 0.126779 -0.001553 0.037396
v 0.052813 -0.022083 -0.021281
v 0.082813 -0.022083 -0.021281
v 0.082813 0.007917 -0.021281
v 0.052813 0.007917 -0.021281
v 0.052813 -0.022083 0.008719
v 0.082813 -0.022083 0.008719
v 0.082813 0.007917 0.008719
v 0.052813 0.007917 0.008719
v 0.067195 -0.020802 -0.020679
v 0.097195 -0.020802 -0.020679
v 0.097195 0.009198 -0.020679
v 0.067195 0.009198 -0.020679
v 0.067195 -0.020802 0.009321
v 0.097195 -0.020802 0.009321
v 0.097195 0.009198 0.009321
v 0.067195 0.009198 0.009321
v 0.085710 -0.022289 -0.017953
v 0.115710 -0.022289 -0.017953
v 0.115710 0.007711 -0.017953
v 0.085710 0.007711 -0.017953
v 0.085710 -0.022289 0.012047
v 0.115710 -0.022289 0.012047
v 0.115710 0.007711 0.012047
v 0.085710 0.007711 0.012047
v 0.108008 -0.029570 -0.014083
v 0.138008 -0.029570 -0.014083
v 0.138008 0.000430 -0.014083
v 0.108008 0.000430 -0.014083
v 0.108008 -0.029570 0.015917
v 0.138008 -0.029570 0.015917
v 0.138008 0.000430 0.015917
v 0.108008 0.000430 0.015917
v 0.000000 0.018269 0.008139
v -0.012230 0.015808 -0.000731
v -0.017296 0.004087 -0.009174
v -0.012230 -0.010028 -0.012242
v -0.000000 -0.018269 -0.008139
v 0.012230 -0.015808 0.000731
v 0.017296 -0.004087 0.009174
v 0.012230 0.010028 0.012242
v -0.014767 0.007919 0.031370
v -0.026997 0.005458 0.022500
v -0.032063 -0.006263 0.014057
v -0.026997 -0.020378 0.010989
v -0.014767 -0.028619 0.015092
v -0.002537 -0.026158 0.023962
v 0.002528 -0.014437 0.032404
v -0.002537 -0.000322 0.035473
v -0.014767 0.003881 0.037284
v -0.023565 0.007493 0.025289
v -0.027209 0.000653 0.012089
v -0.023565 -0.012632 0.005415
v -0.014767 -0.024581 0.009178
v -0.005970 -0.028193 0.021172
v -0.002326 -0.021353 0.034373
v -0.005970 -0.008068 0.041047
v -0.037826 -0.008992 0.050319
v -0.046623 -0.005380 0.038324
v -0.050267 -0.012219 0.025124
v -0.046623 -0.025505 0.018450
v -0.037826 -0.037453 0.022213
v -0.029028 -0.041065 0.034208
v -0.025384 -0.034226 0.047408
v -0.029028 -0.020940 0.054082
v -0.044535 -0.023223 0.017425
v -0.040430 -0.037181 0.022182
v -0.034800 -0.042963 0.035188
v -0.030941 -0.037181 0.048827
v -0.031116 -0.023223 0.055107
v -0.035221 -0.009264 0.050351
v -0.040852 -0.003482 0.037344
v -0.044710 -0.009264 0.023706
v -0.072662 -0.028081 0.027442
v -0.068557 -0.042040 0.032198
v -0.062926 -0.047821 0.045205
v -0.059068 -0.042040 0.058843
v -0.059243 -0.028081 0.065123
v -0.063348 -0.014122 0.060367
v -0.068978 -0.008341 0.047360
v -0.072836 -0.014122 0.033722
v -0.065952 -0.008120 0.047532
v -0.076292 -0.013364 0.037537
v -0.080575 -0.027228 0.032665
v -0.076292 -0.041593 0.035770
v -0.065952 -0.048042 0.045033
v -0.055612 -0.042798 0.055028
v -0.051329 -0.028933 0.059900
v -0.055612 -0.014569 0.056795
v -0.082696 -0.009241 0.065443
v -0.093036 -0.014485 0.055448
v -0.097319 -0.028350 0.050576
v -0.093036 -0.042714 0.053681
v -0.082696 -0.049163 0.062943
v -0.072356 -0.043920 0.072938
v -0.068073 -0.030055 0.077811
v -0.072356 -0.015691 0.074706
v 0.000000 0.009637 0.017525
v -0.012995 0.011704 0.009703
v -0.018377 0.006915 -0.003803
v -0.012995 -0.001925 -0.015081
v -0.000000 -0.009637 -0.017525
v 0.012995 -0.011704 -0.009703
v 0.018377 -0.006915 0.003803
v 0.012995 0.001925 0.015081
v -0.038466 -0.068856 0.060690
v -0.051461 -0.066790 0.052868
v -0.056843 -0.071579 0.039362
v -0.051461 -0.080419 0.028084
v -0.038466 -0.088131 0.025640
v -0.025471 -0.090198 0.033462
v -0.020088 -0.085408 0.046968
v -0.025471 -0.076569 0.058246
v -0.036070 -0.078494 0.023309
v -0.042481 -0.091414 0.028436
v -0.046540 -0.096766 0.042191
v -0.045869 -0.091414 0.056517
v -0.040861 -0.078494 0.063021
v -0.034450 -0.065574 0.057894
v -0.030392 -0.060222 0.044139
v -0.031063 -0.065574 0.029813
v -0.060353 -0.067607 0.020380
v -0.066764 -0.080528 0.025506
v -0.070822 -0.085879 0.039261
v -0.070151 -0.080528 0.053587
v -0.065144 -0.067607 0.060092
v -0.058733 -0.054687 0.054965
v -0.054674 -0.049336 0.041210
v -0.055345 -0.054687 0.026884
v -0.062748 -0.059439 0.021980
v -0.070918 -0.072368 0.022612
v -0.074302 -0.082509 0.033568
v -0.070918 -0.083921 0.048429
v -0.062748 -0.075776 0.058491
v -0.054579 -0.062847 0.057859
v -0.051195 -0.052706 0.046903
v -0.054579 -0.051294 0.032042
v -0.083619 -0.045957 0.028013
v -0.091789 -0.058886 0.028645
v -0.095173 -0.069027 0.039600
v -0.091789 -0.070439 0.054462
v -0.083619 -0.062294 0.064524
v -0.075449 -0.049365 0.063892
v -0.072066 -0.039224 0.052936
v -0.075449 -0.037812 0.038074
v -0.083619 -0.058655 0.026788
v -0.094214 -0.066452 0.034615
v -0.098603 -0.067028 0.049268
v -0.094214 -0.060046 0.062164
v -0.083619 -0.049596 0.065749
v -0.073024 -0.041799 0.057921
v -0.068635 -0.041223 0.043268
v -0.073024 -0.048205 0.030372
v -0.102484 -0.037870 0.021955
v -0.113080 -0.045667 0.029782
v -0.117468 -0.046243 0.044435
v -0.113080 -0.039261 0.057331
v -0.102484 -0.028811 0.060916
v -0.091889 -0.021014 0.053088
v -0.087500 -0.020438 0.038435
v -0.091889 -0.027420 0.025539
v 0.000000 0.005338 0.019275
v -0.012847 0.009472 0.012051
v -0.018168 0.008058 -0.002231
v -0.012847 0.001923 -0.015207
v -0.000000 -0.005338 -0.019275
v 0.012847 -0.009472 -0.012051
v 0.018168 -0.008058 0.002231
v 0.012847 -0.001923 0.015207
v -0.039191 -0.076735 0.042004
v -0.052038 -0.072601 0.034780
v -0.057359 -0.074015 0.020497
v -0.052038 -0.080150 0.007522
v -0.039191 -0.087411 0.003454
v -0.026344 -0.091545 0.010678
v -0.021023 -0.090131 0.024960
v -0.026344 -0.083996 0.037936
v -0.040614 -0.082073 0.002780
v -0.042666 -0.095997 0.008799
v -0.042683 -0.101764 0.022978
v -0.040654 -0.095997 0.037011
v -0.037768 -0.082073 0.042678
v -0.035716 -0.068149 0.036659
v -0.035699 -0.062382 0.022480
v -0.037728 -0.068149 0.008447
v -0.070705 -0.076710 0.004926
v -0.072757 -0.090634 0.010945
v -0.072773 -0.096401 0.025124
v -0.070745 -0.090634 0.039157
v -0.067859 -0.076710 0.044824
v -0.065807 -0.062786 0.038805
v -0.065790 -0.057019 0.024626
v -0.067819 -0.062786 0.010593
v -0.069282 -0.074075 0.005049
v -0.079311 -0.084730 0.009543
v -0.083466 -0.090687 0.023017
v -0.079311 -0.088457 0.037580
v -0.069282 -0.079345 0.044701
v -0.059252 -0.068690 0.040207
v -0.055098 -0.062733 0.026733
v -0.059252 -0.064964 0.012170
v -0.089864 -0.053551 0.007777
v -0.099893 -0.064207 0.012270
v -0.104048 -0.070163 0.025745
v -0.099893 -0.067933 0.040308
v -0.089864 -0.058821 0.047428
v -0.079834 -0.048166 0.042935
v -0.075680 -0.042209 0.029460
v -0.079834 -0.044440 0.014897
v -0.089864 -0.054218 0.007700
v -0.099093 -0.065458 0.012475
v -0.102916 -0.071267 0.026111
v -0.099093 -0.068242 0.040621
v -0.089864 -0.058155 0.047506
v -0.080635 -0.046915 0.042731
v -0.076812 -0.041106 0.029094
v -0.080635 -0.044131 0.014584
v -0.110560 -0.036479 0.009454
v -0.119790 -0.047719 0.014229
v -0.123612 -0.053528 0.027866
v -0.119790 -0.050502 0.042376
v -0.110560 -0.040415 0.049260
v -0.101331 -0.029175 0.044485
v -0.097508 -0.023367 0.030849
v -0.101331 -0.026392 0.016338
v 0.000000 -0.001029 0.019974
v -0.012620 0.005646 0.014452
v -0.017848 0.009013 0.000464
v -0.012620 0.007100 -0.013795
v -0.000000 0.001029 -0.019974
v 0.012620 -0.005646 -0.014452
v 0.017848 -0.009013 -0.000464
v 0.012620 -0.007100 0.013795
v -0.039970 -0.079971 0.015908
v -0.052590 -0.073297 0.010386
v -0.057818 -0.069930 -0.003601
v -0.052590 -0.071842 -0.017861
v -0.039970 -0.077914 -0.024039
v -0.027349 -0.084588 -0.018517
v -0.022122 -0.087956 -0.004530
v -0.027349 -0.086043 0.009730
v -0.045099 -0.078943 -0.023396
v -0.048011 -0.092327 -0.016563
v -0.046212 -0.097871 -0.002409
v -0.040757 -0.092327 0.010775
v -0.034840 -0.078943 0.015266
v -0.031929 -0.065558 0.008432
v -0.033728 -0.060014 -0.005722
v -0.039183 -0.065558 -0.018906
v -0.072596 -0.069237 -0.016100
v -0.075507 -0.082621 -0.009267
v -0.073709 -0.088165 0.004887
v -0.068253 -0.082621 0.018071
v -0.062337 -0.069237 0.022562
v -0.059425 -0.055852 0.015729
v -0.061224 -0.050308 0.001574
v -0.066680 -0.055852 -0.011610
v -0.067466 -0.059700 -0.014349
v -0.076500 -0.072058 -0.014388
v -0.080242 -0.082763 -0.004106
v -0.076500 -0.085544 0.010474
v -0.067466 -0.078773 0.020811
v -0.058433 -0.066415 0.020850
v -0.054691 -0.055710 0.010568
v -0.058433 -0.052929 -0.004012
v -0.087809 -0.044855 -0.006297
v -0.096843 -0.057213 -0.006336
v -0.100585 -0.067917 0.003946
v -0.096843 -0.070699 0.018526
v -0.087809 -0.063928 0.028864
v -0.078776 -0.051570 0.028903
v -0.075034 -0.040865 0.018621
v -0.078776 -0.038084 0.004041
v -0.087809 -0.046000 -0.006871
v -0.097533 -0.057779 -0.005862
v -0.101561 -0.067573 0.005191
v -0.097533 -0.069646 0.019812
v -0.087809 -0.062782 0.029438
v -0.078086 -0.051003 0.028429
v -0.074058 -0.041209 0.017376
v -0.078086 -0.039137 0.002755
v -0.107708 -0.028896 0.001035
v -0.117432 -0.040675 0.002044
v -0.121460 -0.050469 0.013096
v -0.117432 -0.052542 0.027718
v -0.107708 -0.045678 0.037344
v -0.097984 -0.033899 0.036335
v -0.093956 -0.024105 0.025282
v -0.097984 -0.022033 0.010660
v 0.000000 -0.006342 0.018968
v -0.011965 0.002665 0.015803
v -0.016921 0.010111 0.003381
v -0.011965 0.011634 -0.011022
v -0.000000 0.006342 -0.018968
v 0.011965 -0.002665 -0.015803
v 0.016921 -0.010111 -0.003381
v 0.011965 -0.011634 0.011022
v -0.041530 -0.068856 -0.001934
v -0.053496 -0.059849 -0.005099
v -0.058452 -0.052403 -0.017521
v -0.053496 -0.050880 -0.031924
v -0.041530 -0.056172 -0.039870
v -0.029565 -0.065180 -0.036705
v -0.024609 -0.072626 -0.024282
v -0.029565 -0.074148 -0.009880
v -0.046861 -0.062514 -0.040178
v -0.050054 -0.075768 -0.033217
v -0.048254 -0.081258 -0.019042
v -0.042515 -0.075768 -0.005956
v -0.036199 -0.062514 -0.001625
v -0.033006 -0.049260 -0.008586
v -0.034807 -0.043770 -0.022761
v -0.040546 -0.049260 -0.035847
v -0.068501 -0.054159 -0.034194
v -0.071694 -0.067413 -0.027233
v -0.069893 -0.072903 -0.013058
v -0.064154 -0.067413 0.000028
v -0.057839 -0.054159 0.004359
v -0.054646 -0.040905 -0.002602
v -0.056446 -0.035415 -0.016777
v -0.062185 -0.040905 -0.029862
v -0.063170 -0.037467 -0.025935
v -0.070399 -0.049051 -0.032852
v -0.073393 -0.063628 -0.029263
v -0.070399 -0.072657 -0.017271
v -0.063170 -0.070850 -0.003900
v -0.055941 -0.059266 0.003018
v -0.052946 -0.044689 -0.000571
v -0.055941 -0.035660 -0.012563
v -0.085295 -0.030218 -0.014952
v -0.092524 -0.041803 -0.021870
v -0.095518 -0.056379 -0.018281
v -0.092524 -0.065408 -0.006289
v -0.085295 -0.063601 0.007083
v -0.078066 -0.052017 0.014000
v -0.075071 -0.037440 0.010411
v -0.078066 -0.028411 -0.001581
v -0.085295 -0.039755 -0.022611
v -0.095692 -0.050803 -0.020570
v -0.099999 -0.059569 -0.008784
v -0.095692 -0.060920 0.005843
v -0.085295 -0.054064 0.014742
v -0.074897 -0.043017 0.012701
v -0.070591 -0.034250 0.000915
v -0.074897 -0.032899 -0.013712
v -0.097322 -0.027573 -0.017945
v -0.107720 -0.038620 -0.015904
v -0.112027 -0.047387 -0.004118
v -0.107720 -0.048738 0.010509
v -0.097322 -0.041881 0.019408
v -0.086925 -0.030834 0.017367
v -0.082618 -0.022067 0.005581
v -0.086925 -0.020717 -0.009046
v -0.015000 -0.015000 -0.015000
v 0.015000 -0.015000 -0.015000
v 0.015000 0.015000 -0.015000
v -0.015000 0.015000 -0.015000
v -0.015000 -0.015000 0.015000
v 0.015000 -0.015000 0.015000
v 0.015000 0.015000 0.015000
v -0.015000 0.015000 0.015000
v -0.029767 -0.025350 0.008231
v 0.000233 -0.025350 0.008231
v 0.000233 0.004650 0.008231
v -0.029767 0.004650 0.008231
v -0.029767 -0.025350 0.038231
v 0.000233 -0.025350 0.038231
v 0.000233 0.004650 0.038231
v -0.029767 0.004650 0.038231
v -0.052826 -0.038223 0.021266
v -0.022826 -0.038223 0.021266
v -0.022826 -0.008223 0.021266
v -0.052826 -0.008223 0.021266
v -0.052826 -0.038223 0.051266
v -0.022826 -0.038223 0.051266
v -0.022826 -0.008223 0.051266
v -0.052826 -0.008223 0.051266
v -0.080952 -0.043081 0.031283
v -0.050952 -0.043081 0.031283
v -0.050952 -0.013081 0.031283
v -0.080952 -0.013081 0.031283
v -0.080952 -0.043081 0.061283
v -0.050952 -0.043081 0.061283
v -0.050952 -0.013081 0.061283
v -0.080952 -0.013081 0.061283
v -0.097696 -0.044202 0.049193
v -0.067696 -0.044202 0.049193
v -0.067696 -0.014202 0.049193
v -0.097696 -0.014202 0.049193
v -0.097696 -0.044202 0.079193
v -0.067696 -0.044202 0.079193
v -0.067696 -0.014202 0.079193
v -0.097696 -0.014202 0.079193
v -0.053466 -0.093494 0.028165
v -0.023466 -0.093494 0.028165
v -0.023466 -0.063494 0.028165
v -0.053466 -0.063494 0.028165
v -0.053466 -0.093494 0.058165
v -0.023466 -0.093494 0.058165
v -0.023466 -0.063494 0.058165
v -0.053466 -0.063494 0.058165
v -0.077748 -0.082607 0.025236
v -0.047748 -0.082607 0.025236
v -0.047748 -0.052607 0.025236
v -0.077748 -0.052607 0.025236
v -0.077748 -0.082607 0.055236
v -0.047748 -0.082607 0.055236
v -0.047748 -0.052607 0.055236
v -0.077748 -0.052607 0.055236
v -0.098619 -0.069125 0.031268
v -0.068619 -0.069125 0.031268
v -0.068619 -0.039125 0.031268
v -0.098619 -0.039125 0.031268
v -0.098619 -0.069125 0.061268
v -0.068619 -0.069125 0.061268
v -0.068619 -0.039125 0.061268
v -0.098619 -0.039125 0.061268
v -0.117484 -0.048340 0.026435
v -0.087484 -0.048340 0.026435
v -0.087484 -0.018340 0.026435
v -0.117484 -0.018340 0.026435
v -0.117484 -0.048340 0.056435
v -0.087484 -0.048340 0.056435
v -0.087484 -0.018340 0.056435
v -0.117484 -0.018340 0.056435
v -0.054191 -0.097073 0.007729
v -0.024191 -0.097073 0.007729
v -0.024191 -0.067073 0.007729
v -0.054191 -0.067073 0.007729
v -0.054191 -0.097073 0.037729
v -0.024191 -0.097073 0.037729
v -0.024191 -0.067073 0.037729
v -0.054191 -0.067073 0.037729
v -0.084282 -0.091710 0.009875
v -0.054282 -0.091710 0.009875
v -0.054282 -0.061710 0.009875
v -0.084282 -0.061710 0.009875
v -0.084282 -0.091710 0.039875
v -0.054282 -0.091710 0.039875
v -0.054282 -0.061710 0.039875
v -0.084282 -0.061710 0.039875
v -0.104864 -0.071186 0.012603
v -0.074864 -0.071186 0.012603
v -0.074864 -0.041186 0.012603
v -0.104864 -0.041186 0.012603
v -0.104864 -0.071186 0.042603
v -0.074864 -0.071186 0.042603
v -0.074864 -0.041186 0.042603
v -0.104864 -0.041186 0.042603
v -0.125560 -0.053447 0.014357
v -0.095560 -0.053447 0.014357
v -0.095560 -0.023447 0.014357
v -0.125560 -0.023447 0.014357
v -0.125560 -0.053447 0.044357
v -0.095560 -0.053447 0.044357
v -0.095560 -0.023447 0.044357
v -0.125560 -0.023447 0.044357
v -0.054970 -0.093943 -0.019065
v -0.024970 -0.093943 -0.019065
v -0.024970 -0.063943 -0.019065
v -0.054970 -0.063943 -0.019065
v -0.054970 -0.093943 0.010935
v -0.024970 -0.093943 0.010935
v -0.024970 -0.063943 0.010935
v -0.054970 -0.063943 0.010935
v -0.082466 -0.084237 -0.011769
v -0.052466 -0.084237 -0.011769
v -0.052466 -0.054237 -0.011769
v -0.082466 -0.054237 -0.011769
v -0.082466 -0.084237 0.018231
v -0.052466 -0.084237 0.018231
v -0.052466 -0.054237 0.018231
v -0.082466 -0.054237 0.018231
v -0.102809 -0.069391 -0.003716
v -0.072809 -0.069391 -0.003716
v -0.072809 -0.039391 -0.003716
v -0.102809 -0.039391 -0.003716
v -0.102809 -0.069391 0.026284
v -0.072809 -0.069391 0.026284
v -0.072809 -0.039391 0.026284
v -0.102809 -0.039391 0.026284
v -0.122708 -0.052287 0.004189
v -0.092708 -0.052287 0.004189
v -0.092708 -0.022287 0.004189
v -0.122708 -0.022287 0.004189
v -0.122708 -0.052287 0.034189
v -0.092708 -0.052287 0.034189
v -0.092708 -0.022287 0.034189
v -0.122708 -0.022287 0.034189
v -0.056530 -0.077514 -0.035902
v -0.026530 -0.077514 -0.035902
v -0.026530 -0.047514 -0.035902
v -0.056530 -0.047514 -0.035902
v -0.056530 -0.077514 -0.005902
v -0.026530 -0.077514 -0.005902
v -0.026530 -0.047514 -0.005902
v -0.056530 -0.047514 -0.005902
v -0.078170 -0.069159 -0.029917
v -0.048170 -0.069159 -0.029917
v -0.048170 -0.039159 -0.029917
v -0.078170 -0.039159 -0.029917
v -0.078170 -0.069159 0.000083
v -0.048170 -0.069159 0.000083
v -0.048170 -0.039159 0.000083
v -0.078170 -0.039159 0.000083
v -0.100295 -0.061910 -0.018935
v -0.070295 -0.061910 -0.018935
v -0.070295 -0.031910 -0.018935
v -0.100295 -0.031910 -0.018935
v -0.100295 -0.061910 0.011065
v -0.070295 -0.061910 0.011065
v -0.070295 -0.031910 0.011065
v -0.100295 -0.031910 0.011065
v -0.112322 -0.049727 -0.014268
v -0.082322 -0.049727 -0.014268
v -0.082322 -0.019727 -0.014268
v -0.112322 -0.019727 -0.014268
v -0.112322 -0.049727 0.015732
v -0.082322 -0.049727 0.015732
v -0.082322 -0.019727 0.015732
v -0.112322 -0.019727 0.015732
f 1 2 9
f 2 10 9
f 2 3 10
f 3 11 10
f 3 4 11
f 4 12 11
f 4 5 12
f 5 13 12
f 5 6 13
f 6 14 13
f 6 7 14
f 7 15 14
f 7 8 15
f 8 16 15
f 8 1 16
f 1 9 16
f 17 18 25
f 18 26 25
f 18 19 26
f 19 27 26
f 19 20 27
f 20 28 27
f 20 21 28
f 21 29 28
f 21 22 29
f 22 30 29
f 22 23 30
f 23 31 30
f 23 24 31
f 24 32 31
f 24 17 32
f 17 25 32
f 33 34 41
f 34 42 41
f 34 35 42
f 35 43 42
f 35 36 43
f 36 44 43
f 36 37 44
f 37 45 44
f 37 38 45
f 38 46 45
f 38 39 46
f 39 47 46
f 39 40 47
f 40 48 47
f 40 33 48
f 33 41 48
f 49 50 57
f 50 58 57
f 50 51 58
f 51 59 58
f 51 52 59
f 52 60 59
f 52 53 60
f 53 61 60
f 53 54 61
f 54 62 61
f 54 55 62
f 55 63 62
f 55 56 63
f 56 64 63
f 56 49 64
f 49 57 64
f 65 66 73
f 66 74 73
f 66 67 74
f 67 75 74
f 67 68 75
f 68 76 75
f 68 69 76
f 69 77 76
f 69 70 77
f 70 78 77
f 70 71 78
f 71 79 78
f 71 72 79
f 72 80 79
f 72 65 80
f 65 73 80
f 81 82 89
f 82 90 89
f 82 83 90
f 83 91 90
f 83 84 91
f 84 92 91
f 84 85 92
f 85 93 92
f 85 86 93
f 86 94 93
f 86 87 94
f 87 95 94
f 87 88 95
f 88 96 95
f 88 81 96
f 81 89 96
f 97 98 105
f 98 106 105
f 98 99 106
f 99 107 106
f 99 100 107
f 100 108 107
f 100 101 108
f 101 109 108
f 101 102 109
f 102 110 109
f 102 103 110
f 103 111 110
f 103 104 111
f 104 112 111
f 104 97 112
f 97 105 112
f 113 114 121
f 114 122 121
f 114 115 122
f 115 123 122
f 115 116 123
f 116 124 123
f 116 117 124
f 117 125 124
f 117 118 125
f 118 126 125
f 118 119 126
f 119 127 126
f 119 120 127
f 120 128 127
f 120 113 128
f 113 121 128
f 129 130 137
f 130 138 137
f 130 131 138
f 131 139 138
f 131 132 139
f 132 140 139
f 132 133 140
f 133 141 140
f 133 134 141
f 134 142 141
f 134 135 142
f 135 143 142
f 135 136 143
f 136 144 143
f 136 129 144
f 129 137 144
f 145 146 153
f 146 154 153
f 146 147 154
f 147 155 154
f 147 148 155
f 148 156 155
f 148 149 156
f 149 157 156
f 149 150 157
f 150 158 157
f 150 151 158
f 151 159 158
f 151 152 159
f 152 160 159
f 152 145 160
f 145 153 160
f 161 162 169
f 162 170 169
f 162 163 170
f 163 171 170
f 163 164 171
f 164 172 171
f 164 165 172
f 165 173 172
f 165 166 173
f 166 174 173
f 166 167 174
f 167 175 174
f 167 168 175
f 168 176 175
f 168 161 176
f 161 169 176
f 177 178 185
f 178 186 185
f 178 179 186
f 179 187 186
f 179 180 187
f 180 188 187
f 180 181 188
f 181 189 188
f 181 182 189
f 182 190 189
f 182 183 190
f 183 191 190
f 183 184 191
f 184 192 191
f 184 177 192
f 177 185 192
f 193 194 201
f 194 202 201
f 194 195 202
f 195 203 202
f 195 196 203
f 196 204 203
f 196 197 204
f 197 205 204
f 197 198 205
f 198 206 205
f 198 199 206
f 199 207 206
f 199 200 207
f 200 208 207
f 200 193 208
f 193 201 208
f 209 210 217
f 210 218 217
f 210 211 218
f 211 219 218
f 211 212 219
f 212 220 219
f 212 213 220
f 213 221 220
f 213 214 221
f 214 222 221
f 214 215 222
f 215 223 222
f 215 216 223
f 216 224 223
f 216 209 224
f 209 217 224
f 225 226 233
f 226 234 233
f 226 227 234
f 227 235 234
f 227 228 235
f 228 236 235
f 228 229 236
f 229 237 236
f 229 230 237
f 230 238 237
f 230 231 238
f 231 239 238
f 231 232 239
f 232 240 239
f 232 225 240
f 225 233 240
f 241 242 249
f 242 250 249
f 242 243 250
f 243 251 250
f 243 244 251
f 244 252 251
f 244 245 252
f 245 253 252
f 245 246 253
f 246 254 253
f 246 247 254
f 247 255 254
f 247 248 255
f 248 256 255
f 248 241 256
f 241 249 256
f 257 258 265
f 258 266 265
f 258 259 266
f 259 267 266
f 259 260 267
f 260 268 267
f 260 261 268
f 261 269 268
f 261 262 269
f 262 270 269
f 262 263 270
f 263 271 270
f 263 264 271
f 264 272 271
f 264 257 272
f 257 265 272
f 273 274 281
f 274 282 281
f 274 275 282
f 275 283 282
f 275 276 283
f 276 284 283
f 276 277 284
f 277 285 284
f 277 278 285
f 278 286 285
f 278 279 286
f 279 287 286
f 279 280 287
f 280 288 287
f 280 273 288
f 273 281 288
f 289 290 297
f 290 298 297
f 290 291 298
f 291 299 298
f 291 292 299
f 292 300 299
f 292 293 300
f 293 301 300
f 293 294 301
f 294 302 301
f 294 295 302
f 295 303 302
f 295 296 303
f 296 304 303
f 296 289 304
f 289 297 304
f 305 306 313
f 306 314 313
f 306 307 314
f 307 315 314
f 307 308 315
f 308 316 315
f 308 309 316
f 309 317 316
f 309 310 317
f 310 318 317
f 310 311 318
f 311 319 318
f 311 312 319
f 312 320 319
f 312 305 320
f 305 313 320
f 321 322 323
f 321 323 324
f 325 326 327
f 325 327 328
f 321 325 326
f 321 326 322
f 322 326 327
f 322 327 323
f 323 327 328
f 323 328 324
f 324 328 325
f 324 325 321
f 329 330 331
f 329 331 332
f 333 334 335
f 333 335 336
f 329 333 334
f 329 334 330
f 330 334 335
f 330 335 331
f 331 335 336
f 331 336 332
f 332 336 333
f 332 333 329
f 337 338 339
f 337 339 340
f 341 342 343
f 341 343 344
f 337 341 342
f 337 342 338
f 338 342 343
f 338 343 339
f 339 343 344
f 339 344 340
f 340 344 341
f 340 341 337
f 345 346 347
f 345 347 348
f 349 350 351
f 349 351 352
f 345 349 350
f 345 350 346
f 346 350 351
f 346 351 347
f 347 351 352
f 347 352 348
f 348 352 349
f 348 349 345
f 353 354 355
f 353 355 356
f 357 358 359
f 357 359 360
f 353 357 358
f 353 358 354
f 354 358 359
f 354 359 355
f 355 359 360
f 355 360 356
f 356 360 357
f 356 357 353
f 361 362 363
f 361 363 364
f 365 366 367
f 365 367 368
f 361 365 366
f 361 366 362
f 362 366 367
f 362 367 363
f 363 367 368
f 363 368 364
f 364 368 365
f 364 365 361
f 369 370 371
f 369 371 372
f 373 374 375
f 373 375 376
f 369 373 374
f 369 374 370
f 370 374 375
f 370 375 371
f 371 375 376
f 371 376 372
f 372 376 373
f 372 373 369
f 377 378 379
f 377 379 380
f 381 382 383
f 381 383 384
f 377 381 382
f 377 382 378
f 378 382 383
f 378 383 379
f 379 383 384
f 379 384 380
f 380 384 381
f 380 381 377
f 385 386 387
f 385 387 388
f 389 390 391
f 389 391 392
f 385 389 390
f 385 390 386
f 386 390 391
f 386 391 387
f 387 391 392
f 387 392 388
f 388 392 389
f 388 389 385
f 393 394 395
f 393 395 396
f 397 398 399
f 397 399 400
f 393 397 398
f 393 398 394
f 394 398 399
f 394 399 395
f 395 399 400
f 395 400 396
f 396 400 397
f 396 397 393
f 401 402 403
f 401 403 404
f 405 406 407
f 405 407 408
f 401 405 406
f 401 406 402
f 402 406 407
f 402 407 403
f 403 407 408
f 403 408 404
f 404 408 405
f 404 405 401
f 409 410 411
f 409 411 412
f 413 414 415
f 413 415 416
f 409 413 414
f 409 414 410
f 410 414 415
f 410 415 411
f 411 415 416
f 411 416 412
f 412 416 413
f 412 413 409
f 417 418 419
f 417 419 420
f 421 422 423
f 421 423 424
f 417 421 422
f 417 422 418
f 418 422 423
f 418 423 419
f 419 423 424
f 419 424 420
f 420 424 421
f 420 421 417
f 425 426 427
f 425 427 428
f 429 430 431
f 429 431 432
f 425 429 430
f 425 430 426
f 426 430 431
f 426 431 427
f 427 431 432
f 427 432 428
f 428 432 429
f 428 429 425
f 433 434 435
f 433 435 436
f 437 438 439
f 437 439 440
f 433 437 438
f 433 438 434
f 434 438 439
f 434 439 435
f 435 439 440
f 435 440 436
f 436 440 437
f 436 437 433
f 441 442 443
f 441 443 444
f 445 446 447
f 445 447 448
f 441 445 446
f 441 446 442
f 442 446 447
f 442 447 443
f 443 447 448
f 443 448 444
f 444 448 445
f 444 445 441
f 449 450 451
f 449 451 452
f 453 454 455
f 453 455 456
f 449 453 454
f 449 454 450
f 450 454 455
f 450 455 451
f 451 455 456
f 451 456 452
f 452 456 453
f 452 453 449
f 457 458 459
f 457 459 460
f 461 462 463
f 461 463 464
f 457 461 462
f 457 462 458
f 458 462 463
f 458 463 459
f 459 463 464
f 459 464 460
f 460 464 461
f 460 461 457
f 465 466 467
f 465 467 468
f 469 470 471
f 469 471 472
f 465 469 470
f 465 470 466
f 466 470 471
f 466 471 467
f 467 471 472
f 467 472 468
f 468 472 469
f 468 469 465
f 473 474 475
f 473 475 476
f 477 478 479
f 477 479 480
f 473 477 478
f 473 478 474
f 474 478 479
f 474 479 475
f 475 479 480
f 475 480 476
f 476 480 477
f 476 477 473
f 481 482 483
f 481 483 484
f 485 486 487
f 485 487 488
f 481 485 486
f 481 486 482
f 482 486 487
f 482 487 483
f 483 487 488
f 483 488 484
f 484 488 485
f 484 485 481
f 489 490 497
f 490 498 497
f 490 491 498
f 491 499 498
f 491 492 499
f 492 500 499
f 492 493 500
f 493 501 500
f 493 494 501
f 494 502 501
f 494 495 502
f 495 503 502
f 495 496 503
f 496 504 503
f 496 489 504
f 489 497 504
f 505 506 513
f 506 514 513
f 506 507 514
f 507 515 514
f 507 508 515
f 508 516 515
f 508 509 516
f 509 517 516
f 509 510 517
f 510 518 517
f 510 511 518
f 511 519 518
f 511 512 519
f 512 520 519
f 512 505 520
f 505 513 520
f 521 522 529
f 522 530 529
f 522 523 530
f 523 531 530
f 523 524 531
f 524 532 531
f 524 525 532
f 525 533 532
f 525 526 533
f 526 534 533
f 526 527 534
f 527 535 534
f 527 528 535
f 528 536 535
f 528 521 536
f 521 529 536
f 537 538 545
f 538 546 545
f 538 539 546
f 539 547 546
f 539 540 547
f 540 548 547
f 540 541 548
f 541 549 548
f 541 542 549
f 542 550 549
f 542 543 550
f 543 551 550
f 543 544 551
f 544 552 551
f 544 537 552
f 537 545 552
f 553 554 561
f 554 562 561
f 554 555 562
f 555 563 562
f 555 556 563
f 556 564 563
f 556 557 564
f 557 565 564
f 557 558 565
f 558 566 565
f 558 559 566
f 559 567 566
f 559 560 567
f 560 568 567
f 560 553 568
f 553 561 568
f 569 570 577
f 570 578 577
f 570 571 578
f 571 579 578
f 571 572 579
f 572 580 579
f 572 573 580
f 573 581 580
f 573 574 581
f 574 582 581
f 574 575 582
f 575 583 582
f 575 576 583
f 576 584 583
f 576 569 584
f 569 577 584
f 585 586 593
f 586 594 593
f 586 587 594
f 587 595 594
f 587 588 595
f 588 596 595
f 588 589 596
f 589 597 596
f 589 590 597
f 590 598 597
f 590 591 598
f 591 599 598
f 591 592 599
f 592 600 599
f 592 585 600
f 585 593 600
f 601 602 609
f 602 610 609
f 602 603 610
f 603 611 610
f 603 604 611
f 604 612 611
f 604 605 612
f 605 613 612
f 605 606 613
f 606 614 613
f 606 607 614
f 607 615 614
f 607 608 615
f 608 616 615
f 608 601 616
f 601 609 616
f 617 618 625
f 618 626 625
f 618 619 626
f 619 627 626
f 619 620 627
f 620 628 627
f 620 621 628
f 621 629 628
f 621 622 629
f 622 630 629
f 622 623 630
f 623 631 630
f 623 624 631
f 624 632 631
f 624 617 632
f 617 625 632
f 633 634 641
f 634 642 641
f 634 635 642
f 635 643 642
f 635 636 643
f 636 644 643
f 636 637 644
f 637 645 644
f 637 638 645
f 638 646 645
f 638 639 646
f 639 647 646
f 639 640 647
f 640 648 647
f 640 633 648
f 633 641 648
f 649 650 657
f 650 658 657
f 650 651 658
f 651 659 658
f 651 652 659
f 652 660 659
f 652 653 660
f 653 661 660
f 653 654 661
f 654 662 661
f 654 655 662
f 655 663 662
f 655 656 663
f 656 664 663
f 656 649 664
f 649 657 664
f 665 666 673
f 666 674 673
f 666 667 674
f 667 675 674
f 667 668 675
f 668 676 675
f 668 669 676
f 669 677 676
f 669 670 677
f 670 678 677
f 670 671 678
f 671 679 678
f 671 672 679
f 672 680 679
f 672 665 680
f 665 673 680
f 681 682 689
f 682 690 689
f 682 683 690
f 683 691 690
f 683 684 691
f 684 692 691
f 684 685 692
f 685 693 692
f 685 686 693
f 686 694 693
f 686 687 694
f 687 695 694
f 687 688 695
f 688 696 695
f 688 681 696
f 681 689 696
f 697 698 705
f 698 706 705
f 698 699 706
f 699 707 706
f 699 700 707
f 700 708 707
f 700 701 708
f 701 709 708
f 701 702 709
f 702 710 709
f 702 703 710
f 703 711 710
f 703 704 711
f 704 712 711
f 704 697 712
f 697 705 712
f 713 714 721
f 714 722 721
f 714 715 722
f 715 723 722
f 715 716 723
f 716 724 723
f 716 717 724
f 717 725 724
f 717 718 725
f 718 726 725
f 718 719 726
f 719 727 726
f 719 720 727
f 720 728 727
f 720 713 728
f 713 721 728
f 729 730 737
f 730 738 737
f 730 731 738
f 731 739 738
f 731 732 739
f 732 740 739
f 732 733 740
f 733 741 740
f 733 734 741
f 734 742 741
f 734 735 742
f 735 743 742
f 735 736 743
f 736 744 743
f 736 729 744
f 729 737 744
f 745 746 753
f 746 754 753
f 746 747 754
f 747 755 754
f 747 748 755
f 748 756 755
f 748 749 756
f 749 757 756
f 749 750 757
f 750 758 757
f 750 751 758
f 751 759 758
f 751 752 759
f 752 760 759
f 752 745 760
f 745 753 760
f 761 762 769
f 762 770 769
f 762 763 770
f 763 771 770
f 763 764 771
f 764 772 771
f 764 765 772
f 765 773 772
f 765 766 773
f 766 774 773
f 766 767 774
f 767 775 774
f 767 768 775
f 768 776 775
f 768 761 776
f 761 769 776
f 777 778 785
f 778 786 785
f 778 779 786
f 779 787 786
f 779 780 787
f 780 788 787
f 780 781 788
f 781 789 788
f 781 782 789
f 782 790 789
f 782 783 790
f 783 791 790
f 783 784 791
f 784 792 791
f 784 777 792
f 777 785 792
f 793 794 801
f 794 802 801
f 794 795 802
f 795 803 802
f 795 796 803
f 796 804 803
f 796 797 804
f 797 805 804
f 797 798 805
f 798 806 805
f 798 799 806
f 799 807 806
f 799 800 807
f 800 808 807
f 800 793 808
f 793 801 808
f 809 810 811
f 809 811 812
f 813 814 815
f 813 815 816
f 809 813 814
f 809 814 810
f 810 814 815
f 810 815 811
f 811 815 816
f 811 816 812
f 812 816 813
f 812 813 809
f 817 818 819
f 817 819 820
f 821 822 823
f 821 823 824
f 817 821 822
f 817 822 818
f 818 822 823
f 818 823 819
f 819 823 824
f 819 824 820
f 820 824 821
f 820 821 817
f 825 826 827
f 825 827 828
f 829 830 831
f 829 831 832
f 825 829 830
f 825 830 826
f 826 830 831
f 826 831 827
f 827 831 832
f 827 832 828
f 828 832 829
f 828 829 825
f 833 834 835
f 833 835 836
f 837 838 839
f 837 839 840
f 833 837 838
f 833 838 834
f 834 838 839
f 834 839 835
f 835 839 840
f 835 840 836
f 836 840 837
f 836 837 833
f 841 842 843
f 841 843 844
f 845 846 847
f 845 847 848
f 841 845 846
f 841 846 842
f 842 846 847
f 842 847 843
f 843 847 848
f 843 848 844
f 844 848 845
f 844 845 841
f 849 850 851
f 849 851 852
f 853 854 855
f 853 855 856
f 849 853 854
f 849 854 850
f 850 854 855
f 850 855 851
f 851 855 856
f 851 856 852
f 852 856 853
f 852 853 849
f 857 858 859
f 857 859 860
f 861 862 863
f 861 863 864
f 857 861 862
f 857 862 858
f 858 862 863
f 858 863 859
f 859 863 864
f 859 864 860
f 860 864 861
f 860 861 857
f 865 866 867
f 865 867 868
f 869 870 871
f 869 871 872
f 865 869 870
f 865 870 866
f 866 870 871
f 866 871 867
f 867 871 872
f 867 872 868
f 868 872 869
f 868 869 865
f 873 874 875
f 873 875 876
f 877 878 879
f 877 879 880
f 873 877 878
f 873 878 874
f 874 878 879
f 874 879 875
f 875 879 880
f 875 880 876
f 876 880 877
f 876 877 873
f 881 882 883
f 881 883 884
f 885 886 887
f 885 887 888
f 881 885 886
f 881 886 882
f 882 886 887
f 882 887 883
f 883 887 888
f 883 888 884
f 884 888 885
f 884 885 881
f 889 890 891
f 889 891 892
f 893 894 895
f 893 895 896
f 889 893 894
f 889 894 890
f 890 894 895
f 890 895 891
f 891 895 896
f 891 896 892
f 892 896 893
f 892 893 889
f 897 898 899
f 897 899 900
f 901 902 903
f 901 903 904
f 897 901 902
f 897 902 898
f 898 902 903
f 898 903 899
f 899 903 904
f 899 904 900
f 900 904 901
f 900 901 897
f 905 906 907
f 905 907 908
f 909 910 911
f 909 911 912
f 905 909 910
f 905 910 906
f 906 910 911
f 906 911 907
f 907 911 912
f 907 912 908
f 908 912 909
f 908 909 905
f 913 914 915
f 913 915 916
f 917 918 919
f 917 919 920
f 913 917 918
f 913 918 914
f 914 918 919
f 914 919 915
f 915 919 920
f 915 920 916
f 916 920 917
f 916 917 913
f 921 922 923
f 921 923 924
f 925 926 927
f 925 927 928
f 921 925 926
f 921 926 922
f 922 926 927
f 922 927 923
f 923 927 928
f 923 928 924
f 924 928 925
f 924 925 921
f 929 930 931
f 929 931 932
f 933 934 935
f 933 935 936
f 929 933 934
f 929 934 930
f 930 934 935
f 930 935 931
f 931 935 936
f 931 936 932
f 932 936 933
f 932 933 929
f 937 938 939
f 937 939 940
f 941 942 943
f 941 943 944
f 937 941 942
f 937 942 938
f 938 942 943
f 938 943 939
f 939 943 944
f 939 944 940
f 940 944 941
f 940 941 937
f 945 946 947
f 945 947 948
f 949 950 951
f 949 951 952
f 945 949 950
f 945 950 946
f 946 950 951
f 946 951 947
f 947 951 952
f 947 952 948
f 948 952 949
f 948 949 945
f 953 954 955
f 953 955 956
f 957 958 959
f 957 959 960
f 953 957 958
f 953 958 954
f 954 958 959
f 954 959 955
f 955 959 960
f 955 960 956
f 956 960 957
f 956 957 953
f 961 962 963
f 961 963 964
f 965 966 967
f 965 967 968
f 961 965 966
f 961 966 962
f 962 966 967
f 962 967 963
f 963 967 968
f 963 968 964
f 964 968 965
f 964 965 961
f 969 970 971
f 969 971 972
f 973 974 975
f 973 975 976
f 969 973 974
f 969 974 970
f 970 974 975
f 970 975 971
f 971 975 976
f 971 976 972
f 972 976 973
f 972 973 969
