# SignFlow 3D Hand Mesh - Frame 214
v -0.001606 0.000000 0.019935
v -0.006634 -0.013022 0.013654
v -0.007776 -0.018416 -0.000626
v -0.004363 -0.013022 -0.014539
v 0.001606 -0.000000 -0.019935
v 0.006634 0.013022 -0.013654
v 0.007776 0.018416 0.000626
v 0.004363 0.013022 0.014539
v 0.034175 -0.015206 0.022818
v 0.029147 -0.028228 0.016536
v 0.028006 -0.033622 0.002256
v 0.031419 -0.028228 -0.011657
v 0.037387 -0.015206 -0.017053
v 0.042415 -0.002184 -0.010771
v 0.043557 0.003209 0.003509
v 0.040144 -0.002184 0.017422
v 0.035781 -0.025179 0.020219
v 0.026351 -0.031393 0.009887
v 0.022445 -0.028126 -0.004549
v 0.026351 -0.017291 -0.014631
v 0.035781 -0.005234 -0.014454
v 0.045212 0.000981 -0.004121
v 0.049118 -0.002287 0.010314
v 0.045212 -0.013122 0.020396
v 0.059514 -0.043586 0.009631
v 0.050084 -0.049801 -0.000702
v 0.046178 -0.046533 -0.015137
v 0.050084 -0.035698 -0.025219
v 0.059514 -0.023642 -0.025042
v 0.068944 -0.017427 -0.014709
v 0.072850 -0.020694 -0.000274
v 0.068944 -0.031530 0.009808
v 0.059514 -0.046368 0.007700
v 0.046067 -0.046006 0.000395
v 0.040498 -0.038386 -0.011656
v 0.046067 -0.027970 -0.021393
v 0.059514 -0.020860 -0.023111
v 0.072961 -0.021221 -0.015806
v 0.078530 -0.028842 -0.003755
v 0.072961 -0.039258 0.005982
v 0.069130 -0.069105 -0.011122
v 0.055683 -0.068743 -0.018428
v 0.050114 -0.061123 -0.030479
v 0.055683 -0.050707 -0.040215
v 0.069130 -0.043597 -0.041934
v 0.082577 -0.043958 -0.034629
v 0.088146 -0.051579 -0.022578
v 0.082577 -0.061995 -0.012841
v 0.069130 -0.067858 -0.010170
v 0.055037 -0.063525 -0.014284
v 0.049199 -0.054989 -0.025571
v 0.055037 -0.047252 -0.037418
v 0.069130 -0.044844 -0.042886
v 0.083223 -0.049177 -0.038772
v 0.089061 -0.057712 -0.027486
v 0.083223 -0.065450 -0.015639
v 0.066900 -0.089700 -0.025535
v 0.052807 -0.085367 -0.029649
v 0.046969 -0.076831 -0.040935
v 0.052807 -0.069093 -0.052783
v 0.066900 -0.066686 -0.058251
v 0.080993 -0.071019 -0.054137
v 0.086830 -0.079554 -0.042851
v 0.080993 -0.087292 -0.031003
v 0.000000 0.004074 0.019581
v -0.011384 -0.005335 0.015555
v -0.016099 -0.011618 0.002417
v -0.011384 -0.011096 -0.012136
v -0.000000 -0.004074 -0.019581
v 0.011384 0.005335 -0.015555
v 0.016099 0.011618 -0.002417
v 0.011384 0.011096 0.012136
v 0.063328 -0.080036 0.037080
v 0.051944 -0.089445 0.033054
v 0.047229 -0.095728 0.019917
v 0.051944 -0.095206 0.005363
v 0.063328 -0.088184 -0.002081
v 0.074712 -0.078775 0.001945
v 0.079427 -0.072492 0.015082
v 0.074712 -0.073014 0.029636
v 0.063328 -0.088379 0.037039
v 0.050624 -0.093200 0.029989
v 0.045362 -0.092696 0.015624
v 0.050624 -0.087163 0.002357
v 0.063328 -0.079841 -0.002040
v 0.076032 -0.075020 0.005010
v 0.081294 -0.075524 0.019375
v 0.076032 -0.081057 0.032642
v 0.076171 -0.114028 0.031435
v 0.063468 -0.118849 0.024385
v 0.058206 -0.118345 0.010020
v 0.063468 -0.112812 -0.003247
v 0.076171 -0.105491 -0.007643
v 0.088875 -0.100670 -0.000594
v 0.094137 -0.101173 0.013771
v 0.088875 -0.106707 0.027038
v 0.076171 -0.116635 0.030677
v 0.062830 -0.119028 0.023563
v 0.057304 -0.115991 0.009614
v 0.062830 -0.109305 -0.002998
v 0.076171 -0.102884 -0.006885
v 0.089512 -0.100491 0.000229
v 0.095038 -0.103527 0.014177
v 0.089512 -0.110214 0.026789
v 0.083502 -0.136204 0.023513
v 0.070161 -0.138597 0.016399
v 0.064635 -0.135561 0.002450
v 0.070161 -0.128874 -0.010162
v 0.083502 -0.122454 -0.014050
v 0.096842 -0.120061 -0.006935
v 0.102368 -0.123097 0.007013
v 0.096842 -0.129784 0.019625
v 0.083502 -0.143892 0.018440
v 0.069511 -0.141042 0.012922
v 0.063716 -0.131330 0.002606
v 0.069511 -0.120446 -0.006464
v 0.083502 -0.114766 -0.008976
v 0.097492 -0.117617 -0.003458
v 0.103287 -0.127328 0.006857
v 0.097492 -0.138212 0.015928
v 0.087214 -0.161140 0.000116
v 0.073223 -0.158289 -0.005402
v 0.067428 -0.148577 -0.015717
v 0.073223 -0.137693 -0.024788
v 0.087214 -0.132013 -0.027300
v 0.101205 -0.134864 -0.021782
v 0.107000 -0.144576 -0.011466
v 0.101205 -0.155459 -0.002396
v 0.000000 0.002330 0.019864
v -0.012828 -0.004264 0.014739
v -0.018142 -0.008361 0.000981
v -0.012828 -0.007559 -0.013352
v -0.000000 -0.002330 -0.019864
v 0.012828 0.004264 -0.014739
v 0.018142 0.008361 -0.000981
v 0.012828 0.007559 0.013352
v 0.044622 -0.093184 0.031066
v 0.031794 -0.099778 0.025942
v 0.026480 -0.103874 0.012183
v 0.031794 -0.103073 -0.002150
v 0.044622 -0.097844 -0.008661
v 0.057451 -0.091249 -0.003537
v 0.062764 -0.087153 0.010222
v 0.057451 -0.087954 0.024555
v 0.044622 -0.098704 0.030947
v 0.031971 -0.104008 0.024156
v 0.026730 -0.104337 0.009777
v 0.031971 -0.099497 -0.003767
v 0.044622 -0.092324 -0.008541
v 0.057274 -0.087019 -0.001750
v 0.062514 -0.086691 0.012628
v 0.057274 -0.091531 0.026172
v 0.061260 -0.131585 0.025634
v 0.048609 -0.136890 0.018843
v 0.043368 -0.137218 0.004464
v 0.048609 -0.132378 -0.009079
v 0.061260 -0.125205 -0.013854
v 0.073912 -0.119901 -0.007063
v 0.079152 -0.119572 0.007315
v 0.073912 -0.124412 0.020859
v 0.061260 -0.138544 0.023124
v 0.047978 -0.139756 0.015612
v 0.042476 -0.134313 0.002405
v 0.047978 -0.125404 -0.008761
v 0.061260 -0.118247 -0.011344
v 0.074543 -0.117035 -0.003832
v 0.080044 -0.122478 0.009375
v 0.074543 -0.131387 0.020540
v 0.069149 -0.157138 0.012174
v 0.055867 -0.158350 0.004662
v 0.050366 -0.152907 -0.008544
v 0.055867 -0.143998 -0.019710
v 0.069149 -0.136841 -0.022294
v 0.082432 -0.135629 -0.014782
v 0.087933 -0.141071 -0.001575
v 0.082432 -0.149981 0.009591
v 0.069149 -0.154264 0.013570
v 0.056689 -0.158363 0.005681
v 0.051527 -0.155799 -0.008500
v 0.056689 -0.148075 -0.020666
v 0.069149 -0.139715 -0.023690
v 0.081610 -0.135616 -0.015801
v 0.086772 -0.138179 -0.001620
v 0.081610 -0.145903 0.010546
v 0.081242 -0.175252 0.005375
v 0.068781 -0.179351 -0.002514
v 0.063619 -0.176787 -0.016695
v 0.068781 -0.169063 -0.028861
v 0.081242 -0.160703 -0.031885
v 0.093703 -0.156604 -0.023996
v 0.098864 -0.159167 -0.009815
v 0.093703 -0.166891 0.002351
v 0.000000 -0.001005 0.019975
v -0.013600 -0.004583 0.013929
v -0.019234 -0.005477 -0.000276
v -0.013600 -0.003162 -0.014319
v -0.000000 0.001005 -0.019975
v 0.013600 0.004583 -0.013929
v 0.019234 0.005477 0.000276
v 0.013600 0.003162 0.014319
v 0.027841 -0.098531 0.015068
v 0.014241 -0.102109 0.009023
v 0.008608 -0.103002 -0.005182
v 0.014241 -0.100688 -0.019226
v 0.027841 -0.096521 -0.024882
v 0.041441 -0.092942 -0.018836
v 0.047075 -0.092049 -0.004631
v 0.041441 -0.094364 0.009412
v 0.027841 -0.099307 0.015014
v 0.015492 -0.105649 0.008565
v 0.010376 -0.107233 -0.005775
v 0.015492 -0.103130 -0.019607
v 0.027841 -0.095744 -0.024827
v 0.040190 -0.089402 -0.018379
v 0.045306 -0.087818 -0.004039
v 0.040190 -0.091921 0.009793
v 0.043557 -0.127358 0.012505
v 0.031207 -0.133700 0.006057
v 0.026092 -0.135284 -0.008283
v 0.031207 -0.131181 -0.022115
v 0.043557 -0.123795 -0.027336
v 0.055906 -0.117453 -0.020887
v 0.061022 -0.115869 -0.006547
v 0.055906 -0.119972 0.007285
v 0.043557 -0.130754 0.011903
v 0.031400 -0.136217 0.004374
v 0.026364 -0.135447 -0.010061
v 0.031400 -0.128894 -0.022946
v 0.043557 -0.120399 -0.026733
v 0.055714 -0.114936 -0.019204
v 0.060749 -0.115706 -0.004770
v 0.055714 -0.122259 0.008116
v 0.055348 -0.149917 0.006767
v 0.043192 -0.155380 -0.000762
v 0.038156 -0.154609 -0.015197
v 0.043192 -0.148057 -0.028082
v 0.055348 -0.139561 -0.031869
v 0.067505 -0.134099 -0.024341
v 0.072541 -0.134869 -0.009906
v 0.067505 -0.141421 0.002979
v 0.055348 -0.153006 0.005660
v 0.043298 -0.157324 -0.002733
v 0.038307 -0.154271 -0.016878
v 0.043298 -0.145634 -0.028488
v 0.055348 -0.136473 -0.030763
v 0.067399 -0.132154 -0.022370
v 0.072390 -0.135208 -0.008225
v 0.067399 -0.143844 0.003386
v 0.067582 -0.171141 -0.002571
v 0.055531 -0.175460 -0.010965
v 0.050540 -0.172406 -0.025110
v 0.055531 -0.163769 -0.036720
v 0.067582 -0.154608 -0.038995
v 0.079632 -0.150290 -0.030601
v 0.084624 -0.153343 -0.016457
v 0.079632 -0.161980 -0.004846
v 0.000000 -0.004287 0.019535
v -0.014053 -0.004577 0.013474
v -0.019874 -0.002186 -0.000480
v -0.014053 0.001486 -0.014153
v -0.000000 0.004287 -0.019535
v 0.014053 0.004577 -0.013474
v 0.019874 0.002186 0.000480
v 0.014053 -0.001486 0.014153
v 0.010177 -0.092562 0.000162
v -0.003876 -0.092852 -0.005899
v -0.009697 -0.090461 -0.019853
v -0.003876 -0.086789 -0.033526
v 0.010177 -0.083987 -0.038908
v 0.024231 -0.083697 -0.032847
v 0.030052 -0.086089 -0.018893
v 0.024231 -0.089760 -0.005220
v 0.010177 -0.087336 0.000605
v -0.002846 -0.093117 -0.004988
v -0.008241 -0.096061 -0.019007
v -0.002846 -0.094444 -0.033241
v 0.010177 -0.089213 -0.039351
v 0.023201 -0.083432 -0.033758
v 0.028596 -0.080488 -0.019739
v 0.023201 -0.082105 -0.005505
v 0.019495 -0.109328 0.001638
v 0.006471 -0.115109 -0.003955
v 0.001077 -0.118053 -0.017975
v 0.006471 -0.116436 -0.032208
v 0.019495 -0.111205 -0.038318
v 0.032519 -0.105424 -0.032725
v 0.037914 -0.102480 -0.018706
v 0.032519 -0.104097 -0.004472
v 0.019495 -0.111335 0.001631
v 0.006227 -0.115908 -0.004480
v 0.000730 -0.117177 -0.018710
v 0.006227 -0.114397 -0.032724
v 0.019495 -0.109198 -0.038312
v 0.032764 -0.104625 -0.032201
v 0.038260 -0.103356 -0.017971
v 0.032764 -0.106136 -0.003957
v 0.027754 -0.133698 0.000435
v 0.014485 -0.138272 -0.005676
v 0.008989 -0.139540 -0.019906
v 0.014485 -0.136761 -0.033920
v 0.027754 -0.131561 -0.039508
v 0.041023 -0.126988 -0.033397
v 0.046519 -0.125720 -0.019167
v 0.041023 -0.128499 -0.005153
v 0.027754 -0.139636 -0.000804
v 0.015216 -0.143712 -0.008583
v 0.010023 -0.141296 -0.022778
v 0.015216 -0.133803 -0.035075
v 0.027754 -0.125624 -0.038269
v 0.040292 -0.121548 -0.030491
v 0.045485 -0.123964 -0.016296
v 0.040292 -0.131456 -0.003999
v 0.036988 -0.156212 -0.007003
v 0.024450 -0.160287 -0.014782
v 0.019257 -0.157871 -0.028977
v 0.024450 -0.150379 -0.041274
v 0.036988 -0.142199 -0.044469
v 0.049526 -0.138124 -0.036690
v 0.054719 -0.140540 -0.022495
v 0.049526 -0.148032 -0.010198
v -0.015000 -0.015000 -0.015000
v 0.015000 -0.015000 -0.015000
v 0.015000 0.015000 -0.015000
v -0.015000 0.015000 -0.015000
v -0.015000 -0.015000 0.015000
v 0.015000 -0.015000 0.015000
v 0.015000 0.015000 0.015000
v -0.015000 0.015000 0.015000
v 0.020781 -0.030206 -0.012117
v 0.050781 -0.030206 -0.012117
v 0.050781 -0.000206 -0.012117
v 0.020781 -0.000206 -0.012117
v 0.020781 -0.030206 0.017883
v 0.050781 -0.030206 0.017883
v 0.050781 -0.000206 0.017883
v 0.020781 -0.000206 0.017883
v 0.044514 -0.048614 -0.022705
v 0.074514 -0.048614 -0.022705
v 0.074514 -0.018614 -0.022705
v 0.044514 -0.018614 -0.022705
v 0.044514 -0.048614 0.007295
v 0.074514 -0.048614 0.007295
v 0.074514 -0.018614 0.007295
v 0.044514 -0.018614 0.007295
v 0.054130 -0.071351 -0.041528
v 0.084130 -0.071351 -0.041528
v 0.084130 -0.041351 -0.041528
v 0.054130 -0.041351 -0.041528
v 0.054130 -0.071351 -0.011528
v 0.084130 -0.071351 -0.011528
v 0.084130 -0.041351 -0.011528
v 0.054130 -0.041351 -0.011528
v 0.051900 -0.093193 -0.056893
v 0.081900 -0.093193 -0.056893
v 0.081900 -0.063193 -0.056893
v 0.051900 -0.063193 -0.056893
v 0.051900 -0.093193 -0.026893
v 0.081900 -0.093193 -0.026893
v 0.081900 -0.063193 -0.026893
v 0.051900 -0.063193 -0.026893
v 0.048328 -0.099110 0.002499
v 0.078328 -0.099110 0.002499
v 0.078328 -0.069110 0.002499
v 0.048328 -0.069110 0.002499
v 0.048328 -0.099110 0.032499
v 0.078328 -0.099110 0.032499
v 0.078328 -0.069110 0.032499
v 0.048328 -0.069110 0.032499
v 0.061171 -0.124759 -0.003104
v 0.091171 -0.124759 -0.003104
v 0.091171 -0.094759 -0.003104
v 0.061171 -0.094759 -0.003104
v 0.061171 -0.124759 0.026896
v 0.091171 -0.124759 0.026896
v 0.091171 -0.094759 0.026896
v 0.061171 -0.094759 0.026896
v 0.068502 -0.144329 -0.010268
v 0.098502 -0.144329 -0.010268
v 0.098502 -0.114329 -0.010268
v 0.068502 -0.114329 -0.010268
v 0.068502 -0.144329 0.019732
v 0.098502 -0.144329 0.019732
v 0.098502 -0.114329 0.019732
v 0.068502 -0.114329 0.019732
v 0.072214 -0.161576 -0.028592
v 0.102214 -0.161576 -0.028592
v 0.102214 -0.131576 -0.028592
v 0.072214 -0.131576 -0.028592
v 0.072214 -0.161576 0.001408
v 0.102214 -0.161576 0.001408
v 0.102214 -0.131576 0.001408
v 0.072214 -0.131576 0.001408
v 0.029622 -0.110514 -0.003797
v 0.059622 -0.110514 -0.003797
v 0.059622 -0.080514 -0.003797
v 0.029622 -0.080514 -0.003797
v 0.029622 -0.110514 0.026203
v 0.059622 -0.110514 0.026203
v 0.059622 -0.080514 0.026203
v 0.029622 -0.080514 0.026203
v 0.046260 -0.143395 -0.009110
v 0.076260 -0.143395 -0.009110
v 0.076260 -0.113395 -0.009110
v 0.046260 -0.113395 -0.009110
v 0.046260 -0.143395 0.020890
v 0.076260 -0.143395 0.020890
v 0.076260 -0.113395 0.020890
v 0.046260 -0.113395 0.020890
v 0.054149 -0.161989 -0.020060
v 0.084149 -0.161989 -0.020060
v 0.084149 -0.131989 -0.020060
v 0.054149 -0.131989 -0.020060
v 0.054149 -0.161989 0.009940
v 0.084149 -0.161989 0.009940
v 0.084149 -0.131989 0.009940
v 0.054149 -0.131989 0.009940
v 0.066242 -0.182977 -0.028255
v 0.096242 -0.182977 -0.028255
v 0.096242 -0.152977 -0.028255
v 0.066242 -0.152977 -0.028255
v 0.066242 -0.182977 0.001745
v 0.096242 -0.182977 0.001745
v 0.096242 -0.152977 0.001745
v 0.066242 -0.152977 0.001745
v 0.012841 -0.112526 -0.019907
v 0.042841 -0.112526 -0.019907
v 0.042841 -0.082526 -0.019907
v 0.012841 -0.082526 -0.019907
v 0.012841 -0.112526 0.010093
v 0.042841 -0.112526 0.010093
v 0.042841 -0.082526 0.010093
v 0.012841 -0.082526 0.010093
v 0.028557 -0.140576 -0.022415
v 0.058557 -0.140576 -0.022415
v 0.058557 -0.110576 -0.022415
v 0.028557 -0.110576 -0.022415
v 0.028557 -0.140576 0.007585
v 0.058557 -0.140576 0.007585
v 0.058557 -0.110576 0.007585
v 0.028557 -0.110576 0.007585
v 0.040348 -0.159739 -0.027551
v 0.070348 -0.159739 -0.027551
v 0.070348 -0.129739 -0.027551
v 0.040348 -0.129739 -0.027551
v 0.040348 -0.159739 0.002449
v 0.070348 -0.159739 0.002449
v 0.070348 -0.129739 0.002449
v 0.040348 -0.129739 0.002449
v 0.052582 -0.177875 -0.035783
v 0.082582 -0.177875 -0.035783
v 0.082582 -0.147875 -0.035783
v 0.052582 -0.147875 -0.035783
v 0.052582 -0.177875 -0.005783
v 0.082582 -0.177875 -0.005783
v 0.082582 -0.147875 -0.005783
v 0.052582 -0.147875 -0.005783
v -0.004823 -0.103275 -0.034373
v 0.025177 -0.103275 -0.034373
v 0.025177 -0.073275 -0.034373
v -0.004823 -0.073275 -0.034373
v -0.004823 -0.103275 -0.004373
v 0.025177 -0.103275 -0.004373
v 0.025177 -0.073275 -0.004373
v -0.004823 -0.073275 -0.004373
v 0.004495 -0.125266 -0.033340
v 0.034495 -0.125266 -0.033340
v 0.034495 -0.095266 -0.033340
v 0.004495 -0.095266 -0.033340
v 0.004495 -0.125266 -0.003340
v 0.034495 -0.125266 -0.003340
v 0.034495 -0.095266 -0.003340
v 0.004495 -0.095266 -0.003340
v 0.012754 -0.147630 -0.034537
v 0.042754 -0.147630 -0.034537
v 0.042754 -0.117630 -0.034537
v 0.012754 -0.117630 -0.034537
v 0.012754 -0.147630 -0.004537
v 0.042754 -0.147630 -0.004537
v 0.042754 -0.117630 -0.004537
v 0.012754 -0.117630 -0.004537
v 0.021988 -0.164205 -0.040736
v 0.051988 -0.164205 -0.040736
v 0.051988 -0.134205 -0.040736
v 0.021988 -0.134205 -0.040736
v 0.021988 -0.164205 -0.010736
v 0.051988 -0.164205 -0.010736
v 0.051988 -0.134205 -0.010736
v 0.021988 -0.134205 -0.010736
f 1 2 9
f 2 10 9
f 2 3 10
f 3 11 10
f 3 4 11
f 4 12 11
f 4 5 12
f 5 13 12
f 5 6 13
f 6 14 13
f 6 7 14
f 7 15 14
f 7 8 15
f 8 16 15
f 8 1 16
f 1 9 16
f 17 18 25
f 18 26 25
f 18 19 26
f 19 27 26
f 19 20 27
f 20 28 27
f 20 21 28
f 21 29 28
f 21 22 29
f 22 30 29
f 22 23 30
f 23 31 30
f 23 24 31
f 24 32 31
f 24 17 32
f 17 25 32
f 33 34 41
f 34 42 41
f 34 35 42
f 35 43 42
f 35 36 43
f 36 44 43
f 36 37 44
f 37 45 44
f 37 38 45
f 38 46 45
f 38 39 46
f 39 47 46
f 39 40 47
f 40 48 47
f 40 33 48
f 33 41 48
f 49 50 57
f 50 58 57
f 50 51 58
f 51 59 58
f 51 52 59
f 52 60 59
f 52 53 60
f 53 61 60
f 53 54 61
f 54 62 61
f 54 55 62
f 55 63 62
f 55 56 63
f 56 64 63
f 56 49 64
f 49 57 64
f 65 66 73
f 66 74 73
f 66 67 74
f 67 75 74
f 67 68 75
f 68 76 75
f 68 69 76
f 69 77 76
f 69 70 77
f 70 78 77
f 70 71 78
f 71 79 78
f 71 72 79
f 72 80 79
f 72 65 80
f 65 73 80
f 81 82 89
f 82 90 89
f 82 83 90
f 83 91 90
f 83 84 91
f 84 92 91
f 84 85 92
f 85 93 92
f 85 86 93
f 86 94 93
f 86 87 94
f 87 95 94
f 87 88 95
f 88 96 95
f 88 81 96
f 81 89 96
f 97 98 105
f 98 106 105
f 98 99 106
f 99 107 106
f 99 100 107
f 100 108 107
f 100 101 108
f 101 109 108
f 101 102 109
f 102 110 109
f 102 103 110
f 103 111 110
f 103 104 111
f 104 112 111
f 104 97 112
f 97 105 112
f 113 114 121
f 114 122 121
f 114 115 122
f 115 123 122
f 115 116 123
f 116 124 123
f 116 117 124
f 117 125 124
f 117 118 125
f 118 126 125
f 118 119 126
f 119 127 126
f 119 120 127
f 120 128 127
f 120 113 128
f 113 121 128
f 129 130 137
f 130 138 137
f 130 131 138
f 131 139 138
f 131 132 139
f 132 140 139
f 132 133 140
f 133 141 140
f 133 134 141
f 134 142 141
f 134 135 142
f 135 143 142
f 135 136 143
f 136 144 143
f 136 129 144
f 129 137 144
f 145 146 153
f 146 154 153
f 146 147 154
f 147 155 154
f 147 148 155
f 148 156 155
f 148 149 156
f 149 157 156
f 149 150 157
f 150 158 157
f 150 151 158
f 151 159 158
f 151 152 159
f 152 160 159
f 152 145 160
f 145 153 160
f 161 162 169
f 162 170 169
f 162 163 170
f 163 171 170
f 163 164 171
f 164 172 171
f 164 165 172
f 165 173 172
f 165 166 173
f 166 174 173
f 166 167 174
f 167 175 174
f 167 168 175
f 168 176 175
f 168 161 176
f 161 169 176
f 177 178 185
f 178 186 185
f 178 179 186
f 179 187 186
f 179 180 187
f 180 188 187
f 180 181 188
f 181 189 188
f 181 182 189
f 182 190 189
f 182 183 190
f 183 191 190
f 183 184 191
f 184 192 191
f 184 177 192
f 177 185 192
f 193 194 201
f 194 202 201
f 194 195 202
f 195 203 202
f 195 196 203
f 196 204 203
f 196 197 204
f 197 205 204
f 197 198 205
f 198 206 205
f 198 199 206
f 199 207 206
f 199 200 207
f 200 208 207
f 200 193 208
f 193 201 208
f 209 210 217
f 210 218 217
f 210 211 218
f 211 219 218
f 211 212 219
f 212 220 219
f 212 213 220
f 213 221 220
f 213 214 221
f 214 222 221
f 214 215 222
f 215 223 222
f 215 216 223
f 216 224 223
f 216 209 224
f 209 217 224
f 225 226 233
f 226 234 233
f 226 227 234
f 227 235 234
f 227 228 235
f 228 236 235
f 228 229 236
f 229 237 236
f 229 230 237
f 230 238 237
f 230 231 238
f 231 239 238
f 231 232 239
f 232 240 239
f 232 225 240
f 225 233 240
f 241 242 249
f 242 250 249
f 242 243 250
f 243 251 250
f 243 244 251
f 244 252 251
f 244 245 252
f 245 253 252
f 245 246 253
f 246 254 253
f 246 247 254
f 247 255 254
f 247 248 255
f 248 256 255
f 248 241 256
f 241 249 256
f 257 258 265
f 258 266 265
f 258 259 266
f 259 267 266
f 259 260 267
f 260 268 267
f 260 261 268
f 261 269 268
f 261 262 269
f 262 270 269
f 262 263 270
f 263 271 270
f 263 264 271
f 264 272 271
f 264 257 272
f 257 265 272
f 273 274 281
f 274 282 281
f 274 275 282
f 275 283 282
f 275 276 283
f 276 284 283
f 276 277 284
f 277 285 284
f 277 278 285
f 278 286 285
f 278 279 286
f 279 287 286
f 279 280 287
f 280 288 287
f 280 273 288
f 273 281 288
f 289 290 297
f 290 298 297
f 290 291 298
f 291 299 298
f 291 292 299
f 292 300 299
f 292 293 300
f 293 301 300
f 293 294 301
f 294 302 301
f 294 295 302
f 295 303 302
f 295 296 303
f 296 304 303
f 296 289 304
f 289 297 304
f 305 306 313
f 306 314 313
f 306 307 314
f 307 315 314
f 307 308 315
f 308 316 315
f 308 309 316
f 309 317 316
f 309 310 317
f 310 318 317
f 310 311 318
f 311 319 318
f 311 312 319
f 312 320 319
f 312 305 320
f 305 313 320
f 321 322 323
f 321 323 324
f 325 326 327
f 325 327 328
f 321 325 326
f 321 326 322
f 322 326 327
f 322 327 323
f 323 327 328
f 323 328 324
f 324 328 325
f 324 325 321
f 329 330 331
f 329 331 332
f 333 334 335
f 333 335 336
f 329 333 334
f 329 334 330
f 330 334 335
f 330 335 331
f 331 335 336
f 331 336 332
f 332 336 333
f 332 333 329
f 337 338 339
f 337 339 340
f 341 342 343
f 341 343 344
f 337 341 342
f 337 342 338
f 338 342 343
f 338 343 339
f 339 343 344
f 339 344 340
f 340 344 341
f 340 341 337
f 345 346 347
f 345 347 348
f 349 350 351
f 349 351 352
f 345 349 350
f 345 350 346
f 346 350 351
f 346 351 347
f 347 351 352
f 347 352 348
f 348 352 349
f 348 349 345
f 353 354 355
f 353 355 356
f 357 358 359
f 357 359 360
f 353 357 358
f 353 358 354
f 354 358 359
f 354 359 355
f 355 359 360
f 355 360 356
f 356 360 357
f 356 357 353
f 361 362 363
f 361 363 364
f 365 366 367
f 365 367 368
f 361 365 366
f 361 366 362
f 362 366 367
f 362 367 363
f 363 367 368
f 363 368 364
f 364 368 365
f 364 365 361
f 369 370 371
f 369 371 372
f 373 374 375
f 373 375 376
f 369 373 374
f 369 374 370
f 370 374 375
f 370 375 371
f 371 375 376
f 371 376 372
f 372 376 373
f 372 373 369
f 377 378 379
f 377 379 380
f 381 382 383
f 381 383 384
f 377 381 382
f 377 382 378
f 378 382 383
f 378 383 379
f 379 383 384
f 379 384 380
f 380 384 381
f 380 381 377
f 385 386 387
f 385 387 388
f 389 390 391
f 389 391 392
f 385 389 390
f 385 390 386
f 386 390 391
f 386 391 387
f 387 391 392
f 387 392 388
f 388 392 389
f 388 389 385
f 393 394 395
f 393 395 396
f 397 398 399
f 397 399 400
f 393 397 398
f 393 398 394
f 394 398 399
f 394 399 395
f 395 399 400
f 395 400 396
f 396 400 397
f 396 397 393
f 401 402 403
f 401 403 404
f 405 406 407
f 405 407 408
f 401 405 406
f 401 406 402
f 402 406 407
f 402 407 403
f 403 407 408
f 403 408 404
f 404 408 405
f 404 405 401
f 409 410 411
f 409 411 412
f 413 414 415
f 413 415 416
f 409 413 414
f 409 414 410
f 410 414 415
f 410 415 411
f 411 415 416
f 411 416 412
f 412 416 413
f 412 413 409
f 417 418 419
f 417 419 420
f 421 422 423
f 421 423 424
f 417 421 422
f 417 422 418
f 418 422 423
f 418 423 419
f 419 423 424
f 419 424 420
f 420 424 421
f 420 421 417
f 425 426 427
f 425 427 428
f 429 430 431
f 429 431 432
f 425 429 430
f 425 430 426
f 426 430 431
f 426 431 427
f 427 431 432
f 427 432 428
f 428 432 429
f 428 429 425
f 433 434 435
f 433 435 436
f 437 438 439
f 437 439 440
f 433 437 438
f 433 438 434
f 434 438 439
f 434 439 435
f 435 439 440
f 435 440 436
f 436 440 437
f 436 437 433
f 441 442 443
f 441 443 444
f 445 446 447
f 445 447 448
f 441 445 446
f 441 446 442
f 442 446 447
f 442 447 443
f 443 447 448
f 443 448 444
f 444 448 445
f 444 445 441
f 449 450 451
f 449 451 452
f 453 454 455
f 453 455 456
f 449 453 454
f 449 454 450
f 450 454 455
f 450 455 451
f 451 455 456
f 451 456 452
f 452 456 453
f 452 453 449
f 457 458 459
f 457 459 460
f 461 462 463
f 461 463 464
f 457 461 462
f 457 462 458
f 458 462 463
f 458 463 459
f 459 463 464
f 459 464 460
f 460 464 461
f 460 461 457
f 465 466 467
f 465 467 468
f 469 470 471
f 469 471 472
f 465 469 470
f 465 470 466
f 466 470 471
f 466 471 467
f 467 471 472
f 467 472 468
f 468 472 469
f 468 469 465
f 473 474 475
f 473 475 476
f 477 478 479
f 477 479 480
f 473 477 478
f 473 478 474
f 474 478 479
f 474 479 475
f 475 479 480
f 475 480 476
f 476 480 477
f 476 477 473
f 481 482 483
f 481 483 484
f 485 486 487
f 485 487 488
f 481 485 486
f 481 486 482
f 482 486 487
f 482 487 483
f 483 487 488
f 483 488 484
f 484 488 485
f 484 485 481
