# SignFlow 3D Hand Mesh - Frame 125
v 0.000000 0.007395 0.018583
v -0.009493 -0.004511 0.017016
v -0.013425 -0.013774 0.005481
v -0.009493 -0.014969 -0.009264
v -0.000000 -0.007395 -0.018583
v 0.009493 0.004511 -0.017016
v 0.013425 0.013774 -0.005481
v 0.009493 0.014969 0.009264
v 0.029664 -0.017566 0.028516
v 0.020171 -0.029471 0.026949
v 0.016239 -0.038734 0.015414
v 0.020171 -0.039929 0.000669
v 0.029664 -0.032355 -0.008650
v 0.039157 -0.020450 -0.007083
v 0.043090 -0.011187 0.004452
v 0.039157 -0.009992 0.019197
v 0.029664 -0.018168 0.028744
v 0.018367 -0.028159 0.026124
v 0.013688 -0.036277 0.014019
v 0.018367 -0.037766 -0.000479
v 0.029664 -0.031753 -0.008878
v 0.040961 -0.021762 -0.006258
v 0.045641 -0.013644 0.005847
v 0.040961 -0.012156 0.020345
v 0.049429 -0.042853 0.037658
v 0.038132 -0.052844 0.035037
v 0.033453 -0.060962 0.022933
v 0.038132 -0.062450 0.008434
v 0.049429 -0.056438 0.000035
v 0.060726 -0.046447 0.002656
v 0.065405 -0.038329 0.014760
v 0.060726 -0.036840 0.029259
v 0.049429 -0.048392 0.038807
v 0.037096 -0.055665 0.033395
v 0.031987 -0.059413 0.019460
v 0.037096 -0.057438 0.005166
v 0.049429 -0.050899 -0.001114
v 0.061762 -0.043625 0.004298
v 0.066871 -0.039878 0.018233
v 0.061762 -0.041852 0.032527
v 0.064205 -0.074674 0.040458
v 0.051872 -0.081947 0.035045
v 0.046763 -0.085695 0.021111
v 0.051872 -0.083720 0.006817
v 0.064205 -0.077181 0.000537
v 0.076538 -0.069907 0.005949
v 0.081647 -0.066160 0.019884
v 0.076538 -0.068134 0.034178
v 0.064205 -0.070492 0.039744
v 0.050651 -0.075969 0.035204
v 0.045037 -0.081422 0.022049
v 0.050651 -0.083656 0.007985
v 0.064205 -0.081363 0.001250
v 0.077759 -0.075885 0.005790
v 0.083373 -0.070432 0.018945
v 0.077759 -0.068198 0.033010
v 0.071947 -0.095502 0.046807
v 0.058393 -0.100979 0.042267
v 0.052779 -0.106432 0.029112
v 0.058393 -0.108666 0.015048
v 0.071947 -0.106373 0.008313
v 0.085500 -0.100895 0.012853
v 0.091114 -0.095442 0.026008
v 0.085500 -0.093208 0.040073
v 0.000000 -0.000133 0.020000
v -0.012753 -0.006207 0.014101
v -0.018035 -0.008645 -0.000057
v -0.012753 -0.006019 -0.014182
v -0.000000 0.000133 -0.020000
v 0.012753 0.006207 -0.014101
v 0.018035 0.008645 0.000057
v 0.012753 0.006019 0.014182
v 0.043471 -0.090815 0.019399
v 0.030719 -0.096889 0.013500
v 0.025436 -0.099328 -0.000658
v 0.030719 -0.096702 -0.014783
v 0.043471 -0.090550 -0.020601
v 0.056224 -0.084476 -0.014702
v 0.061506 -0.082037 -0.000544
v 0.056224 -0.084663 0.013581
v 0.043471 -0.095676 0.018766
v 0.030045 -0.098516 0.011984
v 0.024484 -0.096768 -0.002170
v 0.030045 -0.091454 -0.015405
v 0.043471 -0.085689 -0.019968
v 0.056897 -0.082848 -0.013186
v 0.062458 -0.084597 0.000968
v 0.056897 -0.089910 0.014203
v 0.052203 -0.121221 0.012179
v 0.038777 -0.124062 0.005397
v 0.033216 -0.122313 -0.008757
v 0.038777 -0.117000 -0.021992
v 0.052203 -0.111234 -0.026554
v 0.065629 -0.108394 -0.019773
v 0.071190 -0.110142 -0.005619
v 0.065629 -0.115456 0.007616
v 0.052203 -0.120255 0.012402
v 0.038409 -0.122131 0.006036
v 0.032696 -0.120549 -0.008076
v 0.038409 -0.116435 -0.021668
v 0.052203 -0.112200 -0.026778
v 0.065997 -0.110325 -0.020412
v 0.071711 -0.111907 -0.006300
v 0.065997 -0.116020 0.007293
v 0.057176 -0.141795 0.007974
v 0.043382 -0.143671 0.001608
v 0.037669 -0.142089 -0.012504
v 0.043382 -0.137975 -0.026097
v 0.057176 -0.133740 -0.031206
v 0.070970 -0.131865 -0.024840
v 0.076683 -0.133447 -0.010728
v 0.070970 -0.137560 0.002864
v 0.057176 -0.152053 0.002382
v 0.043034 -0.147805 -0.001653
v 0.037176 -0.137677 -0.011524
v 0.043034 -0.127603 -0.021449
v 0.057176 -0.123483 -0.025614
v 0.071318 -0.127731 -0.021579
v 0.077176 -0.137858 -0.011708
v 0.071318 -0.147933 -0.001783
v 0.057001 -0.171044 -0.016999
v 0.042859 -0.166796 -0.021034
v 0.037001 -0.156669 -0.030905
v 0.042859 -0.146595 -0.040830
v 0.057001 -0.142475 -0.044995
v 0.071143 -0.146723 -0.040960
v 0.077000 -0.156850 -0.031089
v 0.071143 -0.166924 -0.021164
v 0.000000 -0.004101 0.019575
v -0.013322 -0.007544 0.012869
v -0.018841 -0.006568 -0.001376
v -0.013322 -0.001744 -0.014815
v -0.000000 0.004101 -0.019575
v 0.013322 0.007544 -0.012869
v 0.018841 0.006568 0.001376
v 0.013322 0.001744 0.014815
v 0.033019 -0.094838 0.000566
v 0.019697 -0.098281 -0.006141
v 0.014179 -0.097305 -0.020385
v 0.019697 -0.092482 -0.033824
v 0.033019 -0.086636 -0.038584
v 0.046342 -0.083193 -0.031878
v 0.051860 -0.084170 -0.017633
v 0.046342 -0.088993 -0.004195
v 0.033019 -0.098761 -0.000689
v 0.019660 -0.100662 -0.007917
v 0.014127 -0.096749 -0.021642
v 0.019660 -0.089315 -0.033825
v 0.033019 -0.082714 -0.037329
v 0.046378 -0.080813 -0.030102
v 0.051912 -0.084725 -0.016376
v 0.046378 -0.092160 -0.004193
v 0.044327 -0.128577 -0.013748
v 0.030968 -0.130478 -0.020975
v 0.025435 -0.126565 -0.034701
v 0.030968 -0.119131 -0.046884
v 0.044327 -0.112530 -0.050388
v 0.057686 -0.110629 -0.043160
v 0.063220 -0.114542 -0.029435
v 0.057686 -0.121976 -0.017252
v 0.044327 -0.131578 -0.015381
v 0.030515 -0.130885 -0.021943
v 0.024794 -0.124140 -0.034437
v 0.030515 -0.115294 -0.045543
v 0.044327 -0.109529 -0.048755
v 0.058139 -0.110222 -0.042192
v 0.063860 -0.116967 -0.029698
v 0.058139 -0.125813 -0.018593
v 0.049725 -0.152045 -0.028902
v 0.035913 -0.151352 -0.035465
v 0.030192 -0.144607 -0.047959
v 0.035913 -0.135761 -0.059064
v 0.049725 -0.129996 -0.062276
v 0.063537 -0.130689 -0.055714
v 0.069258 -0.137434 -0.043220
v 0.063537 -0.146280 -0.032114
v 0.049725 -0.149980 -0.027709
v 0.035655 -0.148632 -0.033585
v 0.029827 -0.142825 -0.046494
v 0.035655 -0.135961 -0.058872
v 0.049725 -0.132061 -0.063470
v 0.063795 -0.133408 -0.057593
v 0.069623 -0.139215 -0.044685
v 0.063795 -0.146080 -0.032306
v 0.052568 -0.175033 -0.040262
v 0.038498 -0.173685 -0.046139
v 0.032671 -0.167878 -0.059047
v 0.038498 -0.161014 -0.071426
v 0.052568 -0.157113 -0.076023
v 0.066638 -0.158461 -0.070147
v 0.072466 -0.164268 -0.057238
v 0.066638 -0.171132 -0.044860
v 0.000000 -0.008767 0.017976
v -0.013670 -0.009457 0.011122
v -0.019332 -0.004607 -0.002247
v -0.013670 0.002942 -0.014300
v -0.000000 0.008767 -0.017976
v 0.013670 0.009457 -0.011122
v 0.019332 0.004607 0.002247
v 0.013670 -0.002942 0.014300
v 0.024292 -0.091119 -0.022188
v 0.010622 -0.091808 -0.029042
v 0.004960 -0.086958 -0.042411
v 0.010622 -0.079410 -0.054464
v 0.024292 -0.073584 -0.058140
v 0.037962 -0.072895 -0.051286
v 0.043624 -0.077745 -0.037917
v 0.037962 -0.085293 -0.025864
v 0.024292 -0.090702 -0.021991
v 0.011363 -0.093464 -0.029707
v 0.006008 -0.089716 -0.043548
v 0.011363 -0.081654 -0.055407
v 0.024292 -0.074001 -0.058337
v 0.037221 -0.071239 -0.050621
v 0.042576 -0.074987 -0.036780
v 0.037221 -0.083049 -0.024921
v 0.035291 -0.113249 -0.032351
v 0.022362 -0.116011 -0.040067
v 0.017007 -0.112263 -0.053909
v 0.022362 -0.104201 -0.065768
v 0.035291 -0.096547 -0.068698
v 0.048220 -0.093786 -0.060982
v 0.053575 -0.097533 -0.047140
v 0.048220 -0.105595 -0.035281
v 0.035291 -0.114088 -0.032761
v 0.021839 -0.115272 -0.039969
v 0.016267 -0.110379 -0.053360
v 0.021839 -0.102276 -0.065090
v 0.035291 -0.095709 -0.068288
v 0.048743 -0.094524 -0.061080
v 0.054315 -0.099417 -0.047689
v 0.048743 -0.107520 -0.035959
v 0.043174 -0.135670 -0.043926
v 0.029721 -0.136855 -0.051134
v 0.024149 -0.131962 -0.064525
v 0.029721 -0.123859 -0.076256
v 0.043174 -0.117291 -0.079453
v 0.056626 -0.116107 -0.072245
v 0.062198 -0.121000 -0.058854
v 0.056626 -0.129103 -0.047124
v 0.043174 -0.134590 -0.043407
v 0.029315 -0.134789 -0.049904
v 0.023574 -0.130122 -0.063304
v 0.029315 -0.123322 -0.075759
v 0.043174 -0.118372 -0.079972
v 0.057032 -0.118173 -0.073475
v 0.062773 -0.122840 -0.060075
v 0.057032 -0.129640 -0.047620
v 0.048602 -0.159008 -0.054237
v 0.034743 -0.159207 -0.060734
v 0.029002 -0.154540 -0.074134
v 0.034743 -0.147740 -0.086589
v 0.048602 -0.142790 -0.090802
v 0.062461 -0.142591 -0.084306
v 0.068201 -0.147258 -0.070905
v 0.062461 -0.154058 -0.058450
v 0.000000 -0.012561 0.015564
v -0.013866 -0.011045 0.009259
v -0.019610 -0.003060 -0.002469
v -0.013866 0.006718 -0.012751
v -0.000000 0.012561 -0.015564
v 0.013866 0.011045 -0.009259
v 0.019610 0.003060 0.002469
v 0.013866 -0.006718 0.012751
v 0.016539 -0.076748 -0.036240
v 0.002673 -0.075233 -0.042545
v -0.003071 -0.067247 -0.054273
v 0.002673 -0.057469 -0.064555
v 0.016539 -0.051626 -0.067367
v 0.030405 -0.053142 -0.061063
v 0.036149 -0.061128 -0.049334
v 0.030405 -0.070906 -0.039053
v 0.016539 -0.074313 -0.034556
v 0.003070 -0.075066 -0.041791
v -0.002508 -0.069446 -0.054891
v 0.003070 -0.060746 -0.066183
v 0.016539 -0.054062 -0.069051
v 0.030008 -0.053309 -0.061817
v 0.035587 -0.058928 -0.048716
v 0.030008 -0.067628 -0.037425
v 0.023735 -0.093694 -0.045935
v 0.010266 -0.094447 -0.053169
v 0.004687 -0.088828 -0.066269
v 0.010266 -0.080128 -0.077561
v 0.023735 -0.073443 -0.080429
v 0.037203 -0.072690 -0.073195
v 0.042782 -0.078310 -0.060095
v 0.037203 -0.087010 -0.048803
v 0.023735 -0.092836 -0.045459
v 0.010275 -0.093967 -0.052660
v 0.004699 -0.089006 -0.066025
v 0.010275 -0.080861 -0.077725
v 0.023735 -0.074302 -0.080905
v 0.037195 -0.073171 -0.073704
v 0.042770 -0.078131 -0.060339
v 0.037195 -0.086276 -0.048639
v 0.029864 -0.109685 -0.054268
v 0.016403 -0.110815 -0.061470
v 0.010828 -0.105855 -0.074835
v 0.016403 -0.097710 -0.086535
v 0.029864 -0.091150 -0.089715
v 0.043324 -0.090020 -0.082514
v 0.048899 -0.094980 -0.069149
v 0.043324 -0.103125 -0.057449
v 0.029864 -0.108889 -0.053875
v 0.015815 -0.107881 -0.059870
v 0.009996 -0.102502 -0.072966
v 0.015815 -0.095901 -0.085492
v 0.029864 -0.091946 -0.090109
v 0.043912 -0.092953 -0.084113
v 0.049731 -0.098333 -0.071017
v 0.043912 -0.104934 -0.058492
v 0.032479 -0.129344 -0.063440
v 0.018430 -0.128337 -0.069435
v 0.012611 -0.122957 -0.082531
v 0.018430 -0.116356 -0.095057
v 0.032479 -0.112401 -0.099674
v 0.046527 -0.113409 -0.093678
v 0.052346 -0.118789 -0.080582
v 0.046527 -0.125389 -0.068057
v -0.015000 -0.015000 -0.015000
v 0.015000 -0.015000 -0.015000
v 0.015000 0.015000 -0.015000
v -0.015000 0.015000 -0.015000
v -0.015000 -0.015000 0.015000
v 0.015000 -0.015000 0.015000
v 0.015000 0.015000 0.015000
v -0.015000 0.015000 0.015000
v 0.014664 -0.039961 -0.005067
v 0.044664 -0.039961 -0.005067
v 0.044664 -0.009961 -0.005067
v 0.014664 -0.009961 -0.005067
v 0.014664 -0.039961 0.024933
v 0.044664 -0.039961 0.024933
v 0.044664 -0.009961 0.024933
v 0.014664 -0.009961 0.024933
v 0.034429 -0.064645 0.003847
v 0.064429 -0.064645 0.003847
v 0.064429 -0.034645 0.003847
v 0.034429 -0.034645 0.003847
v 0.034429 -0.064645 0.033847
v 0.064429 -0.064645 0.033847
v 0.064429 -0.034645 0.033847
v 0.034429 -0.034645 0.033847
v 0.049205 -0.090927 0.005497
v 0.079205 -0.090927 0.005497
v 0.079205 -0.060927 0.005497
v 0.049205 -0.060927 0.005497
v 0.049205 -0.090927 0.035497
v 0.079205 -0.090927 0.035497
v 0.079205 -0.060927 0.035497
v 0.049205 -0.060927 0.035497
v 0.056947 -0.115937 0.012560
v 0.086947 -0.115937 0.012560
v 0.086947 -0.085937 0.012560
v 0.056947 -0.085937 0.012560
v 0.056947 -0.115937 0.042560
v 0.086947 -0.115937 0.042560
v 0.086947 -0.085937 0.042560
v 0.056947 -0.085937 0.042560
v 0.028471 -0.105682 -0.015601
v 0.058471 -0.105682 -0.015601
v 0.058471 -0.075682 -0.015601
v 0.028471 -0.075682 -0.015601
v 0.028471 -0.105682 0.014399
v 0.058471 -0.105682 0.014399
v 0.058471 -0.075682 0.014399
v 0.028471 -0.075682 0.014399
v 0.037203 -0.131228 -0.022188
v 0.067203 -0.131228 -0.022188
v 0.067203 -0.101228 -0.022188
v 0.037203 -0.101228 -0.022188
v 0.037203 -0.131228 0.007812
v 0.067203 -0.131228 0.007812
v 0.067203 -0.101228 0.007812
v 0.037203 -0.101228 0.007812
v 0.042176 -0.152768 -0.026616
v 0.072176 -0.152768 -0.026616
v 0.072176 -0.122768 -0.026616
v 0.042176 -0.122768 -0.026616
v 0.042176 -0.152768 0.003384
v 0.072176 -0.152768 0.003384
v 0.072176 -0.122768 0.003384
v 0.042176 -0.122768 0.003384
v 0.042001 -0.171759 -0.045997
v 0.072001 -0.171759 -0.045997
v 0.072001 -0.141759 -0.045997
v 0.042001 -0.141759 -0.045997
v 0.042001 -0.171759 -0.015997
v 0.072001 -0.171759 -0.015997
v 0.072001 -0.141759 -0.015997
v 0.042001 -0.141759 -0.015997
v 0.018019 -0.105737 -0.034009
v 0.048019 -0.105737 -0.034009
v 0.048019 -0.075737 -0.034009
v 0.018019 -0.075737 -0.034009
v 0.018019 -0.105737 -0.004009
v 0.048019 -0.105737 -0.004009
v 0.048019 -0.075737 -0.004009
v 0.018019 -0.075737 -0.004009
v 0.029327 -0.135553 -0.047068
v 0.059327 -0.135553 -0.047068
v 0.059327 -0.105553 -0.047068
v 0.029327 -0.105553 -0.047068
v 0.029327 -0.135553 -0.017068
v 0.059327 -0.135553 -0.017068
v 0.059327 -0.105553 -0.017068
v 0.029327 -0.105553 -0.017068
v 0.034725 -0.156020 -0.060589
v 0.064725 -0.156020 -0.060589
v 0.064725 -0.126020 -0.060589
v 0.034725 -0.126020 -0.060589
v 0.034725 -0.156020 -0.030589
v 0.064725 -0.156020 -0.030589
v 0.064725 -0.126020 -0.030589
v 0.034725 -0.126020 -0.030589
v 0.037568 -0.181073 -0.073143
v 0.067568 -0.181073 -0.073143
v 0.067568 -0.151073 -0.073143
v 0.037568 -0.151073 -0.073143
v 0.037568 -0.181073 -0.043143
v 0.067568 -0.181073 -0.043143
v 0.067568 -0.151073 -0.043143
v 0.037568 -0.151073 -0.043143
v 0.009292 -0.097352 -0.055164
v 0.039292 -0.097352 -0.055164
v 0.039292 -0.067352 -0.055164
v 0.009292 -0.067352 -0.055164
v 0.009292 -0.097352 -0.025164
v 0.039292 -0.097352 -0.025164
v 0.039292 -0.067352 -0.025164
v 0.009292 -0.067352 -0.025164
v 0.020291 -0.119898 -0.065525
v 0.050291 -0.119898 -0.065525
v 0.050291 -0.089898 -0.065525
v 0.020291 -0.089898 -0.065525
v 0.020291 -0.119898 -0.035525
v 0.050291 -0.119898 -0.035525
v 0.050291 -0.089898 -0.035525
v 0.020291 -0.089898 -0.035525
v 0.028174 -0.141481 -0.076690
v 0.058174 -0.141481 -0.076690
v 0.058174 -0.111481 -0.076690
v 0.028174 -0.111481 -0.076690
v 0.028174 -0.141481 -0.046690
v 0.058174 -0.141481 -0.046690
v 0.058174 -0.111481 -0.046690
v 0.028174 -0.111481 -0.046690
v 0.033602 -0.165899 -0.087520
v 0.063602 -0.165899 -0.087520
v 0.063602 -0.135899 -0.087520
v 0.033602 -0.135899 -0.087520
v 0.033602 -0.165899 -0.057520
v 0.063602 -0.165899 -0.057520
v 0.063602 -0.135899 -0.057520
v 0.033602 -0.135899 -0.057520
v 0.001539 -0.079187 -0.066804
v 0.031539 -0.079187 -0.066804
v 0.031539 -0.049187 -0.066804
v 0.001539 -0.049187 -0.066804
v 0.001539 -0.079187 -0.036804
v 0.031539 -0.079187 -0.036804
v 0.031539 -0.049187 -0.036804
v 0.001539 -0.049187 -0.036804
v 0.008735 -0.098569 -0.078182
v 0.038735 -0.098569 -0.078182
v 0.038735 -0.068569 -0.078182
v 0.008735 -0.068569 -0.078182
v 0.008735 -0.098569 -0.048182
v 0.038735 -0.098569 -0.048182
v 0.038735 -0.068569 -0.048182
v 0.008735 -0.068569 -0.048182
v 0.014864 -0.115417 -0.086992
v 0.044864 -0.115417 -0.086992
v 0.044864 -0.085417 -0.086992
v 0.014864 -0.085417 -0.086992
v 0.014864 -0.115417 -0.056992
v 0.044864 -0.115417 -0.056992
v 0.044864 -0.085417 -0.056992
v 0.014864 -0.085417 -0.056992
v 0.017479 -0.135873 -0.096557
v 0.047479 -0.135873 -0.096557
v 0.047479 -0.105873 -0.096557
v 0.017479 -0.105873 -0.096557
v 0.017479 -0.135873 -0.066557
v 0.047479 -0.135873 -0.066557
v 0.047479 -0.105873 -0.066557
v 0.017479 -0.105873 -0.066557
f 1 2 9
f 2 10 9
f 2 3 10
f 3 11 10
f 3 4 11
f 4 12 11
f 4 5 12
f 5 13 12
f 5 6 13
f 6 14 13
f 6 7 14
f 7 15 14
f 7 8 15
f 8 16 15
f 8 1 16
f 1 9 16
f 17 18 25
f 18 26 25
f 18 19 26
f 19 27 26
f 19 20 27
f 20 28 27
f 20 21 28
f 21 29 28
f 21 22 29
f 22 30 29
f 22 23 30
f 23 31 30
f 23 24 31
f 24 32 31
f 24 17 32
f 17 25 32
f 33 34 41
f 34 42 41
f 34 35 42
f 35 43 42
f 35 36 43
f 36 44 43
f 36 37 44
f 37 45 44
f 37 38 45
f 38 46 45
f 38 39 46
f 39 47 46
f 39 40 47
f 40 48 47
f 40 33 48
f 33 41 48
f 49 50 57
f 50 58 57
f 50 51 58
f 51 59 58
f 51 52 59
f 52 60 59
f 52 53 60
f 53 61 60
f 53 54 61
f 54 62 61
f 54 55 62
f 55 63 62
f 55 56 63
f 56 64 63
f 56 49 64
f 49 57 64
f 65 66 73
f 66 74 73
f 66 67 74
f 67 75 74
f 67 68 75
f 68 76 75
f 68 69 76
f 69 77 76
f 69 70 77
f 70 78 77
f 70 71 78
f 71 79 78
f 71 72 79
f 72 80 79
f 72 65 80
f 65 73 80
f 81 82 89
f 82 90 89
f 82 83 90
f 83 91 90
f 83 84 91
f 84 92 91
f 84 85 92
f 85 93 92
f 85 86 93
f 86 94 93
f 86 87 94
f 87 95 94
f 87 88 95
f 88 96 95
f 88 81 96
f 81 89 96
f 97 98 105
f 98 106 105
f 98 99 106
f 99 107 106
f 99 100 107
f 100 108 107
f 100 101 108
f 101 109 108
f 101 102 109
f 102 110 109
f 102 103 110
f 103 111 110
f 103 104 111
f 104 112 111
f 104 97 112
f 97 105 112
f 113 114 121
f 114 122 121
f 114 115 122
f 115 123 122
f 115 116 123
f 116 124 123
f 116 117 124
f 117 125 124
f 117 118 125
f 118 126 125
f 118 119 126
f 119 127 126
f 119 120 127
f 120 128 127
f 120 113 128
f 113 121 128
f 129 130 137
f 130 138 137
f 130 131 138
f 131 139 138
f 131 132 139
f 132 140 139
f 132 133 140
f 133 141 140
f 133 134 141
f 134 142 141
f 134 135 142
f 135 143 142
f 135 136 143
f 136 144 143
f 136 129 144
f 129 137 144
f 145 146 153
f 146 154 153
f 146 147 154
f 147 155 154
f 147 148 155
f 148 156 155
f 148 149 156
f 149 157 156
f 149 150 157
f 150 158 157
f 150 151 158
f 151 159 158
f 151 152 159
f 152 160 159
f 152 145 160
f 145 153 160
f 161 162 169
f 162 170 169
f 162 163 170
f 163 171 170
f 163 164 171
f 164 172 171
f 164 165 172
f 165 173 172
f 165 166 173
f 166 174 173
f 166 167 174
f 167 175 174
f 167 168 175
f 168 176 175
f 168 161 176
f 161 169 176
f 177 178 185
f 178 186 185
f 178 179 186
f 179 187 186
f 179 180 187
f 180 188 187
f 180 181 188
f 181 189 188
f 181 182 189
f 182 190 189
f 182 183 190
f 183 191 190
f 183 184 191
f 184 192 191
f 184 177 192
f 177 185 192
f 193 194 201
f 194 202 201
f 194 195 202
f 195 203 202
f 195 196 203
f 196 204 203
f 196 197 204
f 197 205 204
f 197 198 205
f 198 206 205
f 198 199 206
f 199 207 206
f 199 200 207
f 200 208 207
f 200 193 208
f 193 201 208
f 209 210 217
f 210 218 217
f 210 211 218
f 211 219 218
f 211 212 219
f 212 220 219
f 212 213 220
f 213 221 220
f 213 214 221
f 214 222 221
f 214 215 222
f 215 223 222
f 215 216 223
f 216 224 223
f 216 209 224
f 209 217 224
f 225 226 233
f 226 234 233
f 226 227 234
f 227 235 234
f 227 228 235
f 228 236 235
f 228 229 236
f 229 237 236
f 229 230 237
f 230 238 237
f 230 231 238
f 231 239 238
f 231 232 239
f 232 240 239
f 232 225 240
f 225 233 240
f 241 242 249
f 242 250 249
f 242 243 250
f 243 251 250
f 243 244 251
f 244 252 251
f 244 245 252
f 245 253 252
f 245 246 253
f 246 254 253
f 246 247 254
f 247 255 254
f 247 248 255
f 248 256 255
f 248 241 256
f 241 249 256
f 257 258 265
f 258 266 265
f 258 259 266
f 259 267 266
f 259 260 267
f 260 268 267
f 260 261 268
f 261 269 268
f 261 262 269
f 262 270 269
f 262 263 270
f 263 271 270
f 263 264 271
f 264 272 271
f 264 257 272
f 257 265 272
f 273 274 281
f 274 282 281
f 274 275 282
f 275 283 282
f 275 276 283
f 276 284 283
f 276 277 284
f 277 285 284
f 277 278 285
f 278 286 285
f 278 279 286
f 279 287 286
f 279 280 287
f 280 288 287
f 280 273 288
f 273 281 288
f 289 290 297
f 290 298 297
f 290 291 298
f 291 299 298
f 291 292 299
f 292 300 299
f 292 293 300
f 293 301 300
f 293 294 301
f 294 302 301
f 294 295 302
f 295 303 302
f 295 296 303
f 296 304 303
f 296 289 304
f 289 297 304
f 305 306 313
f 306 314 313
f 306 307 314
f 307 315 314
f 307 308 315
f 308 316 315
f 308 309 316
f 309 317 316
f 309 310 317
f 310 318 317
f 310 311 318
f 311 319 318
f 311 312 319
f 312 320 319
f 312 305 320
f 305 313 320
f 321 322 323
f 321 323 324
f 325 326 327
f 325 327 328
f 321 325 326
f 321 326 322
f 322 326 327
f 322 327 323
f 323 327 328
f 323 328 324
f 324 328 325
f 324 325 321
f 329 330 331
f 329 331 332
f 333 334 335
f 333 335 336
f 329 333 334
f 329 334 330
f 330 334 335
f 330 335 331
f 331 335 336
f 331 336 332
f 332 336 333
f 332 333 329
f 337 338 339
f 337 339 340
f 341 342 343
f 341 343 344
f 337 341 342
f 337 342 338
f 338 342 343
f 338 343 339
f 339 343 344
f 339 344 340
f 340 344 341
f 340 341 337
f 345 346 347
f 345 347 348
f 349 350 351
f 349 351 352
f 345 349 350
f 345 350 346
f 346 350 351
f 346 351 347
f 347 351 352
f 347 352 348
f 348 352 349
f 348 349 345
f 353 354 355
f 353 355 356
f 357 358 359
f 357 359 360
f 353 357 358
f 353 358 354
f 354 358 359
f 354 359 355
f 355 359 360
f 355 360 356
f 356 360 357
f 356 357 353
f 361 362 363
f 361 363 364
f 365 366 367
f 365 367 368
f 361 365 366
f 361 366 362
f 362 366 367
f 362 367 363
f 363 367 368
f 363 368 364
f 364 368 365
f 364 365 361
f 369 370 371
f 369 371 372
f 373 374 375
f 373 375 376
f 369 373 374
f 369 374 370
f 370 374 375
f 370 375 371
f 371 375 376
f 371 376 372
f 372 376 373
f 372 373 369
f 377 378 379
f 377 379 380
f 381 382 383
f 381 383 384
f 377 381 382
f 377 382 378
f 378 382 383
f 378 383 379
f 379 383 384
f 379 384 380
f 380 384 381
f 380 381 377
f 385 386 387
f 385 387 388
f 389 390 391
f 389 391 392
f 385 389 390
f 385 390 386
f 386 390 391
f 386 391 387
f 387 391 392
f 387 392 388
f 388 392 389
f 388 389 385
f 393 394 395
f 393 395 396
f 397 398 399
f 397 399 400
f 393 397 398
f 393 398 394
f 394 398 399
f 394 399 395
f 395 399 400
f 395 400 396
f 396 400 397
f 396 397 393
f 401 402 403
f 401 403 404
f 405 406 407
f 405 407 408
f 401 405 406
f 401 406 402
f 402 406 407
f 402 407 403
f 403 407 408
f 403 408 404
f 404 408 405
f 404 405 401
f 409 410 411
f 409 411 412
f 413 414 415
f 413 415 416
f 409 413 414
f 409 414 410
f 410 414 415
f 410 415 411
f 411 415 416
f 411 416 412
f 412 416 413
f 412 413 409
f 417 418 419
f 417 419 420
f 421 422 423
f 421 423 424
f 417 421 422
f 417 422 418
f 418 422 423
f 418 423 419
f 419 423 424
f 419 424 420
f 420 424 421
f 420 421 417
f 425 426 427
f 425 427 428
f 429 430 431
f 429 431 432
f 425 429 430
f 425 430 426
f 426 430 431
f 426 431 427
f 427 431 432
f 427 432 428
f 428 432 429
f 428 429 425
f 433 434 435
f 433 435 436
f 437 438 439
f 437 439 440
f 433 437 438
f 433 438 434
f 434 438 439
f 434 439 435
f 435 439 440
f 435 440 436
f 436 440 437
f 436 437 433
f 441 442 443
f 441 443 444
f 445 446 447
f 445 447 448
f 441 445 446
f 441 446 442
f 442 446 447
f 442 447 443
f 443 447 448
f 443 448 444
f 444 448 445
f 444 445 441
f 449 450 451
f 449 451 452
f 453 454 455
f 453 455 456
f 449 453 454
f 449 454 450
f 450 454 455
f 450 455 451
f 451 455 456
f 451 456 452
f 452 456 453
f 452 453 449
f 457 458 459
f 457 459 460
f 461 462 463
f 461 463 464
f 457 461 462
f 457 462 458
f 458 462 463
f 458 463 459
f 459 463 464
f 459 464 460
f 460 464 461
f 460 461 457
f 465 466 467
f 465 467 468
f 469 470 471
f 469 471 472
f 465 469 470
f 465 470 466
f 466 470 471
f 466 471 467
f 467 471 472
f 467 472 468
f 468 472 469
f 468 469 465
f 473 474 475
f 473 475 476
f 477 478 479
f 477 479 480
f 473 477 478
f 473 478 474
f 474 478 479
f 474 479 475
f 475 479 480
f 475 480 476
f 476 480 477
f 476 477 473
f 481 482 483
f 481 483 484
f 485 486 487
f 485 487 488
f 481 485 486
f 481 486 482
f 482 486 487
f 482 487 483
f 483 487 488
f 483 488 484
f 484 488 485
f 484 485 481
