# SignFlow 3D Hand Mesh - Frame 295
v 0.000000 0.012753 0.015406
v -0.007733 -0.000103 0.018444
v -0.010937 -0.012899 0.010677
v -0.007733 -0.018139 -0.003344
v -0.000000 -0.012753 -0.015406
v 0.007733 0.000103 -0.018444
v 0.010937 0.012899 -0.010677
v 0.007733 0.018139 0.003344
v 0.034210 -0.004459 0.029654
v 0.026476 -0.017315 0.032692
v 0.023273 -0.030111 0.024925
v 0.026476 -0.035351 0.010904
v 0.034210 -0.029965 -0.001159
v 0.041943 -0.017109 -0.004196
v 0.045147 -0.004313 0.003570
v 0.041943 0.000927 0.017592
v 0.034210 -0.005475 0.030442
v 0.024905 -0.017536 0.031949
v 0.021051 -0.029407 0.023087
v 0.024905 -0.034135 0.009047
v 0.034210 -0.028949 -0.001946
v 0.043514 -0.016888 -0.003453
v 0.047368 -0.005017 0.005409
v 0.043514 -0.000289 0.019448
v 0.062726 -0.025646 0.045062
v 0.053421 -0.037708 0.046569
v 0.049567 -0.049579 0.037707
v 0.053421 -0.054306 0.023667
v 0.062726 -0.049121 0.012674
v 0.072030 -0.037060 0.011167
v 0.075884 -0.025188 0.020029
v 0.072030 -0.020461 0.034069
v 0.062726 -0.023212 0.042980
v 0.052809 -0.034477 0.045991
v 0.048701 -0.047444 0.038971
v 0.052809 -0.054519 0.026033
v 0.062726 -0.051555 0.014756
v 0.072643 -0.040291 0.011745
v 0.076751 -0.027323 0.018765
v 0.072643 -0.020248 0.031703
v 0.089845 -0.042035 0.061883
v 0.079928 -0.053300 0.064894
v 0.075820 -0.066268 0.057874
v 0.079928 -0.073342 0.044936
v 0.089845 -0.070379 0.033658
v 0.099763 -0.059114 0.030648
v 0.103870 -0.046146 0.037667
v 0.099763 -0.039072 0.050605
v 0.089845 -0.040318 0.059918
v 0.077715 -0.049387 0.062135
v 0.072690 -0.062451 0.055938
v 0.077715 -0.071857 0.044956
v 0.089845 -0.072095 0.035623
v 0.101976 -0.063027 0.033406
v 0.107001 -0.049963 0.039604
v 0.101976 -0.040557 0.050585
v 0.108896 -0.059626 0.085173
v 0.096765 -0.068695 0.087390
v 0.091740 -0.081759 0.081193
v 0.096765 -0.091165 0.070211
v 0.108896 -0.091403 0.060878
v 0.121026 -0.082335 0.058661
v 0.126051 -0.069271 0.064859
v 0.121026 -0.059865 0.075840
v 0.000000 0.008568 0.018072
v -0.012946 0.000914 0.015218
v -0.018308 -0.007275 0.003449
v -0.012946 -0.011202 -0.010340
v -0.000000 -0.008568 -0.018072
v 0.012946 -0.000914 -0.015218
v 0.018308 0.007275 -0.003449
v 0.012946 0.011202 0.010340
v 0.040644 -0.074947 0.057664
v 0.027699 -0.082600 0.054810
v 0.022336 -0.090789 0.043041
v 0.027699 -0.094717 0.029252
v 0.040644 -0.092082 0.021520
v 0.053590 -0.084428 0.024375
v 0.058952 -0.076239 0.036144
v 0.053590 -0.072312 0.049932
v 0.040644 -0.083558 0.059592
v 0.028183 -0.090233 0.053720
v 0.023022 -0.092972 0.039572
v 0.028183 -0.090171 0.025436
v 0.040644 -0.083471 0.019592
v 0.053105 -0.076796 0.025465
v 0.058267 -0.074057 0.039613
v 0.053105 -0.076858 0.053749
v 0.054594 -0.109550 0.059536
v 0.042133 -0.116225 0.053663
v 0.036971 -0.118964 0.039515
v 0.042133 -0.116163 0.025379
v 0.054594 -0.109463 0.019536
v 0.067055 -0.102788 0.025408
v 0.072216 -0.100049 0.039556
v 0.067055 -0.102850 0.053692
v 0.054594 -0.118594 0.057352
v 0.043818 -0.124091 0.047972
v 0.039355 -0.121045 0.033650
v 0.043818 -0.111240 0.022776
v 0.054594 -0.100419 0.021720
v 0.065369 -0.094922 0.031100
v 0.069833 -0.097968 0.045421
v 0.065369 -0.107773 0.056295
v 0.068001 -0.132645 0.050185
v 0.057225 -0.138142 0.040805
v 0.052762 -0.135096 0.026483
v 0.057225 -0.125291 0.015609
v 0.068001 -0.114470 0.014553
v 0.078776 -0.108973 0.023932
v 0.083240 -0.112019 0.038254
v 0.078776 -0.121825 0.049128
v 0.068001 -0.143106 0.036593
v 0.055315 -0.138701 0.029246
v 0.050061 -0.125425 0.023728
v 0.055315 -0.111055 0.023272
v 0.068001 -0.104009 0.028144
v 0.080687 -0.108414 0.035491
v 0.085941 -0.121690 0.041009
v 0.080687 -0.136060 0.041466
v 0.080166 -0.148321 0.012461
v 0.067481 -0.143916 0.005114
v 0.062226 -0.130640 -0.000404
v 0.067481 -0.116270 -0.000861
v 0.080166 -0.109224 0.004012
v 0.092852 -0.113629 0.011359
v 0.098107 -0.126906 0.016877
v 0.092852 -0.141275 0.017333
v 0.000000 0.005732 0.019161
v -0.013805 0.001111 0.014429
v -0.019523 -0.004161 0.001245
v -0.013805 -0.006995 -0.012669
v -0.000000 -0.005732 -0.019161
v 0.013805 -0.001111 -0.014429
v 0.019523 0.004161 -0.001245
v 0.013805 0.006995 0.012669
v 0.021200 -0.085565 0.046471
v 0.007395 -0.090186 0.041739
v 0.001677 -0.095458 0.028555
v 0.007395 -0.098292 0.014641
v 0.021200 -0.097029 0.008149
v 0.035005 -0.092408 0.012881
v 0.040723 -0.087136 0.026065
v 0.035005 -0.084302 0.039979
v 0.021200 -0.100417 0.045109
v 0.009202 -0.104408 0.036482
v 0.004232 -0.100719 0.022482
v 0.009202 -0.091511 0.011310
v 0.021200 -0.082177 0.009510
v 0.033198 -0.078186 0.018137
v 0.038168 -0.081875 0.032138
v 0.033198 -0.091084 0.043310
v 0.042071 -0.130187 0.029856
v 0.030072 -0.134178 0.021229
v 0.025103 -0.130489 0.007229
v 0.030072 -0.121281 -0.003943
v 0.042071 -0.111947 -0.005743
v 0.054069 -0.107956 0.002884
v 0.059039 -0.111645 0.016884
v 0.054069 -0.120853 0.028056
v 0.042071 -0.138850 0.002905
v 0.029774 -0.130446 -0.000625
v 0.024680 -0.116547 0.003274
v 0.029774 -0.105296 0.012317
v 0.042071 -0.103284 0.021208
v 0.054368 -0.111688 0.024738
v 0.059461 -0.125587 0.020839
v 0.054368 -0.136838 0.011796
v 0.055073 -0.128375 -0.017450
v 0.042776 -0.119971 -0.020980
v 0.037683 -0.106072 -0.017082
v 0.042776 -0.094821 -0.008038
v 0.055073 -0.092809 0.000853
v 0.067370 -0.101213 0.004383
v 0.072464 -0.115112 0.000484
v 0.067370 -0.126363 -0.008559
v 0.055073 -0.121346 -0.025161
v 0.041510 -0.114820 -0.022376
v 0.035892 -0.105817 -0.011344
v 0.041510 -0.099611 0.001471
v 0.055073 -0.099838 0.008564
v 0.068637 -0.106364 0.005778
v 0.074255 -0.115367 -0.005253
v 0.068637 -0.121573 -0.018069
v 0.061974 -0.101643 -0.037728
v 0.048410 -0.095116 -0.034942
v 0.042792 -0.086113 -0.023911
v 0.048410 -0.079907 -0.011095
v 0.061974 -0.080134 -0.004003
v 0.075537 -0.086660 -0.006788
v 0.081155 -0.095663 -0.017820
v 0.075537 -0.101869 -0.030635
v 0.000000 0.001324 0.019956
v -0.014062 -0.000562 0.014211
v -0.019887 -0.002120 0.000141
v -0.014062 -0.002435 -0.014012
v -0.000000 -0.001324 -0.019956
v 0.014062 0.000562 -0.014211
v 0.019887 0.002120 -0.000141
v 0.014062 0.002435 0.014012
v 0.009646 -0.088780 0.025935
v -0.004416 -0.090666 0.020189
v -0.010241 -0.092223 0.006119
v -0.004416 -0.092539 -0.008033
v 0.009646 -0.091428 -0.013978
v 0.023708 -0.089541 -0.008232
v 0.029533 -0.087984 0.005838
v 0.023708 -0.087669 0.019990
v 0.009646 -0.100302 0.023183
v -0.002889 -0.102947 0.014806
v -0.008082 -0.098069 0.001257
v -0.002889 -0.088525 -0.009526
v 0.009646 -0.079906 -0.011226
v 0.022181 -0.077260 -0.002848
v 0.027373 -0.082138 0.010700
v 0.022181 -0.091682 0.021483
v 0.024846 -0.125335 0.008345
v 0.012310 -0.127980 -0.000033
v 0.007118 -0.123102 -0.013581
v 0.012310 -0.113558 -0.024364
v 0.024846 -0.104939 -0.026064
v 0.037381 -0.102293 -0.017687
v 0.042573 -0.107171 -0.004138
v 0.037381 -0.116715 0.006645
v 0.024846 -0.128284 -0.023931
v 0.014542 -0.117134 -0.025885
v 0.010274 -0.104813 -0.017865
v 0.014542 -0.098540 -0.004571
v 0.024846 -0.101989 0.006212
v 0.035149 -0.113139 0.008165
v 0.039417 -0.125460 0.000146
v 0.035149 -0.131733 -0.013148
v 0.044393 -0.112617 -0.037599
v 0.034090 -0.101466 -0.039553
v 0.029822 -0.089146 -0.031533
v 0.034090 -0.082872 -0.018239
v 0.044393 -0.086321 -0.007457
v 0.054697 -0.097472 -0.005503
v 0.058965 -0.109792 -0.013522
v 0.054697 -0.116065 -0.026816
v 0.044393 -0.101641 -0.042409
v 0.030948 -0.096647 -0.037062
v 0.025378 -0.093306 -0.023201
v 0.030948 -0.093576 -0.008945
v 0.044393 -0.097297 -0.002646
v 0.057839 -0.102291 -0.007993
v 0.063408 -0.105632 -0.021854
v 0.057839 -0.105362 -0.036110
v 0.051271 -0.080671 -0.044700
v 0.037825 -0.075677 -0.039353
v 0.032256 -0.072336 -0.025491
v 0.037825 -0.072606 -0.011236
v 0.051271 -0.076327 -0.004937
v 0.064716 -0.081321 -0.010284
v 0.070286 -0.084662 -0.024145
v 0.064716 -0.084392 -0.038401
v 0.000000 -0.003573 0.019678
v -0.014137 -0.002165 0.013980
v -0.019993 0.000512 0.000093
v -0.014137 0.002888 -0.013849
v -0.000000 0.003573 -0.019678
v 0.014137 0.002165 -0.013980
v 0.019993 -0.000512 -0.000093
v 0.014137 -0.002888 0.013849
v -0.002116 -0.083651 0.005140
v -0.016254 -0.082243 -0.000558
v -0.022110 -0.079566 -0.014446
v -0.016254 -0.077190 -0.028388
v -0.002116 -0.076505 -0.034217
v 0.012021 -0.077913 -0.028519
v 0.017877 -0.080590 -0.014632
v 0.012021 -0.082966 -0.000690
v -0.002116 -0.089744 0.002970
v -0.012798 -0.095027 -0.006638
v -0.017222 -0.091553 -0.020874
v -0.012798 -0.081357 -0.031399
v -0.002116 -0.070412 -0.032048
v 0.008565 -0.065129 -0.022440
v 0.012989 -0.068603 -0.008203
v 0.008565 -0.078799 0.002322
v 0.013656 -0.105656 -0.005814
v 0.002975 -0.110939 -0.015422
v -0.001450 -0.107466 -0.029658
v 0.002975 -0.097270 -0.040184
v 0.013656 -0.086324 -0.040832
v 0.024337 -0.081041 -0.031224
v 0.028761 -0.084515 -0.016988
v 0.024337 -0.094711 -0.006463
v 0.013656 -0.111849 -0.035510
v 0.006878 -0.099641 -0.041782
v 0.004071 -0.085294 -0.037242
v 0.006878 -0.077213 -0.024548
v 0.013656 -0.080132 -0.011137
v 0.020434 -0.092340 -0.004864
v 0.023241 -0.106686 -0.009405
v 0.020434 -0.114767 -0.022099
v 0.034762 -0.104826 -0.044648
v 0.027984 -0.092618 -0.050921
v 0.025176 -0.078272 -0.046380
v 0.027984 -0.070191 -0.033686
v 0.034762 -0.073109 -0.020275
v 0.041540 -0.085317 -0.014003
v 0.044347 -0.099663 -0.018543
v 0.041540 -0.107744 -0.031237
v 0.034762 -0.090074 -0.052431
v 0.022597 -0.082549 -0.046981
v 0.017558 -0.078784 -0.033026
v 0.022597 -0.080984 -0.018740
v 0.034762 -0.087861 -0.012492
v 0.046927 -0.095386 -0.017942
v 0.051966 -0.099151 -0.031898
v 0.046927 -0.096951 -0.046183
v 0.044526 -0.073628 -0.053342
v 0.032361 -0.066103 -0.047892
v 0.027322 -0.062338 -0.033937
v 0.032361 -0.064539 -0.019651
v 0.044526 -0.071416 -0.013403
v 0.056691 -0.078941 -0.018853
v 0.061730 -0.082706 -0.032809
v 0.056691 -0.080505 -0.047094
v -0.015000 -0.015000 -0.015000
v 0.015000 -0.015000 -0.015000
v 0.015000 0.015000 -0.015000
v -0.015000 0.015000 -0.015000
v -0.015000 -0.015000 0.015000
v 0.015000 -0.015000 0.015000
v 0.015000 0.015000 0.015000
v -0.015000 0.015000 0.015000
v 0.019210 -0.032212 -0.000752
v 0.049210 -0.032212 -0.000752
v 0.049210 -0.002212 -0.000752
v 0.019210 -0.002212 -0.000752
v 0.019210 -0.032212 0.029248
v 0.049210 -0.032212 0.029248
v 0.049210 -0.002212 0.029248
v 0.019210 -0.002212 0.029248
v 0.047726 -0.052384 0.013868
v 0.077726 -0.052384 0.013868
v 0.077726 -0.022384 0.013868
v 0.047726 -0.022384 0.013868
v 0.047726 -0.052384 0.043868
v 0.077726 -0.052384 0.043868
v 0.077726 -0.022384 0.043868
v 0.047726 -0.022384 0.043868
v 0.074845 -0.071207 0.032771
v 0.104845 -0.071207 0.032771
v 0.104845 -0.041207 0.032771
v 0.074845 -0.041207 0.032771
v 0.074845 -0.071207 0.062771
v 0.104845 -0.071207 0.062771
v 0.104845 -0.041207 0.062771
v 0.074845 -0.041207 0.062771
v 0.093896 -0.090515 0.058026
v 0.123896 -0.090515 0.058026
v 0.123896 -0.060515 0.058026
v 0.093896 -0.060515 0.058026
v 0.093896 -0.090515 0.088026
v 0.123896 -0.090515 0.088026
v 0.123896 -0.060515 0.088026
v 0.093896 -0.060515 0.088026
v 0.025644 -0.098514 0.024592
v 0.055644 -0.098514 0.024592
v 0.055644 -0.068514 0.024592
v 0.025644 -0.068514 0.024592
v 0.025644 -0.098514 0.054592
v 0.055644 -0.098514 0.054592
v 0.055644 -0.068514 0.054592
v 0.025644 -0.068514 0.054592
v 0.039594 -0.124507 0.024536
v 0.069594 -0.124507 0.024536
v 0.069594 -0.094507 0.024536
v 0.039594 -0.094507 0.024536
v 0.039594 -0.124507 0.054536
v 0.069594 -0.124507 0.054536
v 0.069594 -0.094507 0.054536
v 0.039594 -0.094507 0.054536
v 0.053001 -0.138558 0.017369
v 0.083001 -0.138558 0.017369
v 0.083001 -0.108558 0.017369
v 0.053001 -0.108558 0.017369
v 0.053001 -0.138558 0.047369
v 0.083001 -0.138558 0.047369
v 0.083001 -0.108558 0.047369
v 0.053001 -0.108558 0.047369
v 0.065166 -0.143773 -0.006764
v 0.095166 -0.143773 -0.006764
v 0.095166 -0.113773 -0.006764
v 0.065166 -0.113773 -0.006764
v 0.065166 -0.143773 0.023236
v 0.095166 -0.143773 0.023236
v 0.095166 -0.113773 0.023236
v 0.065166 -0.113773 0.023236
v 0.006200 -0.106297 0.012310
v 0.036200 -0.106297 0.012310
v 0.036200 -0.076297 0.012310
v 0.006200 -0.076297 0.012310
v 0.006200 -0.106297 0.042310
v 0.036200 -0.106297 0.042310
v 0.036200 -0.076297 0.042310
v 0.006200 -0.076297 0.042310
v 0.027071 -0.136067 -0.002943
v 0.057071 -0.136067 -0.002943
v 0.057071 -0.106067 -0.002943
v 0.027071 -0.106067 -0.002943
v 0.027071 -0.136067 0.027057
v 0.057071 -0.136067 0.027057
v 0.057071 -0.106067 0.027057
v 0.027071 -0.106067 0.027057
v 0.040073 -0.125592 -0.023299
v 0.070073 -0.125592 -0.023299
v 0.070073 -0.095592 -0.023299
v 0.040073 -0.095592 -0.023299
v 0.040073 -0.125592 0.006701
v 0.070073 -0.125592 0.006701
v 0.070073 -0.095592 0.006701
v 0.040073 -0.095592 0.006701
v 0.046974 -0.105888 -0.035865
v 0.076974 -0.105888 -0.035865
v 0.076974 -0.075888 -0.035865
v 0.046974 -0.075888 -0.035865
v 0.046974 -0.105888 -0.005865
v 0.076974 -0.105888 -0.005865
v 0.076974 -0.075888 -0.005865
v 0.046974 -0.075888 -0.005865
v -0.005354 -0.105104 -0.009021
v 0.024646 -0.105104 -0.009021
v 0.024646 -0.075104 -0.009021
v -0.005354 -0.075104 -0.009021
v -0.005354 -0.105104 0.020979
v 0.024646 -0.105104 0.020979
v 0.024646 -0.075104 0.020979
v -0.005354 -0.075104 0.020979
v 0.009846 -0.130137 -0.023860
v 0.039846 -0.130137 -0.023860
v 0.039846 -0.100137 -0.023860
v 0.009846 -0.100137 -0.023860
v 0.009846 -0.130137 0.006140
v 0.039846 -0.130137 0.006140
v 0.039846 -0.100137 0.006140
v 0.009846 -0.100137 0.006140
v 0.029393 -0.114469 -0.037528
v 0.059393 -0.114469 -0.037528
v 0.059393 -0.084469 -0.037528
v 0.029393 -0.084469 -0.037528
v 0.029393 -0.114469 -0.007528
v 0.059393 -0.114469 -0.007528
v 0.059393 -0.084469 -0.007528
v 0.029393 -0.084469 -0.007528
v 0.036271 -0.093499 -0.039818
v 0.066271 -0.093499 -0.039818
v 0.066271 -0.063499 -0.039818
v 0.036271 -0.063499 -0.039818
v 0.036271 -0.093499 -0.009818
v 0.066271 -0.093499 -0.009818
v 0.066271 -0.063499 -0.009818
v 0.036271 -0.063499 -0.009818
v -0.017116 -0.095078 -0.029539
v 0.012884 -0.095078 -0.029539
v 0.012884 -0.065078 -0.029539
v -0.017116 -0.065078 -0.029539
v -0.017116 -0.095078 0.000461
v 0.012884 -0.095078 0.000461
v 0.012884 -0.065078 0.000461
v -0.017116 -0.065078 0.000461
v -0.001344 -0.110990 -0.038323
v 0.028656 -0.110990 -0.038323
v 0.028656 -0.080990 -0.038323
v -0.001344 -0.080990 -0.038323
v -0.001344 -0.110990 -0.008323
v 0.028656 -0.110990 -0.008323
v 0.028656 -0.080990 -0.008323
v -0.001344 -0.080990 -0.008323
v 0.019762 -0.103967 -0.047462
v 0.049762 -0.103967 -0.047462
v 0.049762 -0.073967 -0.047462
v 0.019762 -0.073967 -0.047462
v 0.019762 -0.103967 -0.017462
v 0.049762 -0.103967 -0.017462
v 0.049762 -0.073967 -0.017462
v 0.019762 -0.073967 -0.017462
v 0.029526 -0.087522 -0.048373
v 0.059526 -0.087522 -0.048373
v 0.059526 -0.057522 -0.048373
v 0.029526 -0.057522 -0.048373
v 0.029526 -0.087522 -0.018373
v 0.059526 -0.087522 -0.018373
v 0.059526 -0.057522 -0.018373
v 0.029526 -0.057522 -0.018373
f 1 2 9
f 2 10 9
f 2 3 10
f 3 11 10
f 3 4 11
f 4 12 11
f 4 5 12
f 5 13 12
f 5 6 13
f 6 14 13
f 6 7 14
f 7 15 14
f 7 8 15
f 8 16 15
f 8 1 16
f 1 9 16
f 17 18 25
f 18 26 25
f 18 19 26
f 19 27 26
f 19 20 27
f 20 28 27
f 20 21 28
f 21 29 28
f 21 22 29
f 22 30 29
f 22 23 30
f 23 31 30
f 23 24 31
f 24 32 31
f 24 17 32
f 17 25 32
f 33 34 41
f 34 42 41
f 34 35 42
f 35 43 42
f 35 36 43
f 36 44 43
f 36 37 44
f 37 45 44
f 37 38 45
f 38 46 45
f 38 39 46
f 39 47 46
f 39 40 47
f 40 48 47
f 40 33 48
f 33 41 48
f 49 50 57
f 50 58 57
f 50 51 58
f 51 59 58
f 51 52 59
f 52 60 59
f 52 53 60
f 53 61 60
f 53 54 61
f 54 62 61
f 54 55 62
f 55 63 62
f 55 56 63
f 56 64 63
f 56 49 64
f 49 57 64
f 65 66 73
f 66 74 73
f 66 67 74
f 67 75 74
f 67 68 75
f 68 76 75
f 68 69 76
f 69 77 76
f 69 70 77
f 70 78 77
f 70 71 78
f 71 79 78
f 71 72 79
f 72 80 79
f 72 65 80
f 65 73 80
f 81 82 89
f 82 90 89
f 82 83 90
f 83 91 90
f 83 84 91
f 84 92 91
f 84 85 92
f 85 93 92
f 85 86 93
f 86 94 93
f 86 87 94
f 87 95 94
f 87 88 95
f 88 96 95
f 88 81 96
f 81 89 96
f 97 98 105
f 98 106 105
f 98 99 106
f 99 107 106
f 99 100 107
f 100 108 107
f 100 101 108
f 101 109 108
f 101 102 109
f 102 110 109
f 102 103 110
f 103 111 110
f 103 104 111
f 104 112 111
f 104 97 112
f 97 105 112
f 113 114 121
f 114 122 121
f 114 115 122
f 115 123 122
f 115 116 123
f 116 124 123
f 116 117 124
f 117 125 124
f 117 118 125
f 118 126 125
f 118 119 126
f 119 127 126
f 119 120 127
f 120 128 127
f 120 113 128
f 113 121 128
f 129 130 137
f 130 138 137
f 130 131 138
f 131 139 138
f 131 132 139
f 132 140 139
f 132 133 140
f 133 141 140
f 133 134 141
f 134 142 141
f 134 135 142
f 135 143 142
f 135 136 143
f 136 144 143
f 136 129 144
f 129 137 144
f 145 146 153
f 146 154 153
f 146 147 154
f 147 155 154
f 147 148 155
f 148 156 155
f 148 149 156
f 149 157 156
f 149 150 157
f 150 158 157
f 150 151 158
f 151 159 158
f 151 152 159
f 152 160 159
f 152 145 160
f 145 153 160
f 161 162 169
f 162 170 169
f 162 163 170
f 163 171 170
f 163 164 171
f 164 172 171
f 164 165 172
f 165 173 172
f 165 166 173
f 166 174 173
f 166 167 174
f 167 175 174
f 167 168 175
f 168 176 175
f 168 161 176
f 161 169 176
f 177 178 185
f 178 186 185
f 178 179 186
f 179 187 186
f 179 180 187
f 180 188 187
f 180 181 188
f 181 189 188
f 181 182 189
f 182 190 189
f 182 183 190
f 183 191 190
f 183 184 191
f 184 192 191
f 184 177 192
f 177 185 192
f 193 194 201
f 194 202 201
f 194 195 202
f 195 203 202
f 195 196 203
f 196 204 203
f 196 197 204
f 197 205 204
f 197 198 205
f 198 206 205
f 198 199 206
f 199 207 206
f 199 200 207
f 200 208 207
f 200 193 208
f 193 201 208
f 209 210 217
f 210 218 217
f 210 211 218
f 211 219 218
f 211 212 219
f 212 220 219
f 212 213 220
f 213 221 220
f 213 214 221
f 214 222 221
f 214 215 222
f 215 223 222
f 215 216 223
f 216 224 223
f 216 209 224
f 209 217 224
f 225 226 233
f 226 234 233
f 226 227 234
f 227 235 234
f 227 228 235
f 228 236 235
f 228 229 236
f 229 237 236
f 229 230 237
f 230 238 237
f 230 231 238
f 231 239 238
f 231 232 239
f 232 240 239
f 232 225 240
f 225 233 240
f 241 242 249
f 242 250 249
f 242 243 250
f 243 251 250
f 243 244 251
f 244 252 251
f 244 245 252
f 245 253 252
f 245 246 253
f 246 254 253
f 246 247 254
f 247 255 254
f 247 248 255
f 248 256 255
f 248 241 256
f 241 249 256
f 257 258 265
f 258 266 265
f 258 259 266
f 259 267 266
f 259 260 267
f 260 268 267
f 260 261 268
f 261 269 268
f 261 262 269
f 262 270 269
f 262 263 270
f 263 271 270
f 263 264 271
f 264 272 271
f 264 257 272
f 257 265 272
f 273 274 281
f 274 282 281
f 274 275 282
f 275 283 282
f 275 276 283
f 276 284 283
f 276 277 284
f 277 285 284
f 277 278 285
f 278 286 285
f 278 279 286
f 279 287 286
f 279 280 287
f 280 288 287
f 280 273 288
f 273 281 288
f 289 290 297
f 290 298 297
f 290 291 298
f 291 299 298
f 291 292 299
f 292 300 299
f 292 293 300
f 293 301 300
f 293 294 301
f 294 302 301
f 294 295 302
f 295 303 302
f 295 296 303
f 296 304 303
f 296 289 304
f 289 297 304
f 305 306 313
f 306 314 313
f 306 307 314
f 307 315 314
f 307 308 315
f 308 316 315
f 308 309 316
f 309 317 316
f 309 310 317
f 310 318 317
f 310 311 318
f 311 319 318
f 311 312 319
f 312 320 319
f 312 305 320
f 305 313 320
f 321 322 323
f 321 323 324
f 325 326 327
f 325 327 328
f 321 325 326
f 321 326 322
f 322 326 327
f 322 327 323
f 323 327 328
f 323 328 324
f 324 328 325
f 324 325 321
f 329 330 331
f 329 331 332
f 333 334 335
f 333 335 336
f 329 333 334
f 329 334 330
f 330 334 335
f 330 335 331
f 331 335 336
f 331 336 332
f 332 336 333
f 332 333 329
f 337 338 339
f 337 339 340
f 341 342 343
f 341 343 344
f 337 341 342
f 337 342 338
f 338 342 343
f 338 343 339
f 339 343 344
f 339 344 340
f 340 344 341
f 340 341 337
f 345 346 347
f 345 347 348
f 349 350 351
f 349 351 352
f 345 349 350
f 345 350 346
f 346 350 351
f 346 351 347
f 347 351 352
f 347 352 348
f 348 352 349
f 348 349 345
f 353 354 355
f 353 355 356
f 357 358 359
f 357 359 360
f 353 357 358
f 353 358 354
f 354 358 359
f 354 359 355
f 355 359 360
f 355 360 356
f 356 360 357
f 356 357 353
f 361 362 363
f 361 363 364
f 365 366 367
f 365 367 368
f 361 365 366
f 361 366 362
f 362 366 367
f 362 367 363
f 363 367 368
f 363 368 364
f 364 368 365
f 364 365 361
f 369 370 371
f 369 371 372
f 373 374 375
f 373 375 376
f 369 373 374
f 369 374 370
f 370 374 375
f 370 375 371
f 371 375 376
f 371 376 372
f 372 376 373
f 372 373 369
f 377 378 379
f 377 379 380
f 381 382 383
f 381 383 384
f 377 381 382
f 377 382 378
f 378 382 383
f 378 383 379
f 379 383 384
f 379 384 380
f 380 384 381
f 380 381 377
f 385 386 387
f 385 387 388
f 389 390 391
f 389 391 392
f 385 389 390
f 385 390 386
f 386 390 391
f 386 391 387
f 387 391 392
f 387 392 388
f 388 392 389
f 388 389 385
f 393 394 395
f 393 395 396
f 397 398 399
f 397 399 400
f 393 397 398
f 393 398 394
f 394 398 399
f 394 399 395
f 395 399 400
f 395 400 396
f 396 400 397
f 396 397 393
f 401 402 403
f 401 403 404
f 405 406 407
f 405 407 408
f 401 405 406
f 401 406 402
f 402 406 407
f 402 407 403
f 403 407 408
f 403 408 404
f 404 408 405
f 404 405 401
f 409 410 411
f 409 411 412
f 413 414 415
f 413 415 416
f 409 413 414
f 409 414 410
f 410 414 415
f 410 415 411
f 411 415 416
f 411 416 412
f 412 416 413
f 412 413 409
f 417 418 419
f 417 419 420
f 421 422 423
f 421 423 424
f 417 421 422
f 417 422 418
f 418 422 423
f 418 423 419
f 419 423 424
f 419 424 420
f 420 424 421
f 420 421 417
f 425 426 427
f 425 427 428
f 429 430 431
f 429 431 432
f 425 429 430
f 425 430 426
f 426 430 431
f 426 431 427
f 427 431 432
f 427 432 428
f 428 432 429
f 428 429 425
f 433 434 435
f 433 435 436
f 437 438 439
f 437 439 440
f 433 437 438
f 433 438 434
f 434 438 439
f 434 439 435
f 435 439 440
f 435 440 436
f 436 440 437
f 436 437 433
f 441 442 443
f 441 443 444
f 445 446 447
f 445 447 448
f 441 445 446
f 441 446 442
f 442 446 447
f 442 447 443
f 443 447 448
f 443 448 444
f 444 448 445
f 444 445 441
f 449 450 451
f 449 451 452
f 453 454 455
f 453 455 456
f 449 453 454
f 449 454 450
f 450 454 455
f 450 455 451
f 451 455 456
f 451 456 452
f 452 456 453
f 452 453 449
f 457 458 459
f 457 459 460
f 461 462 463
f 461 463 464
f 457 461 462
f 457 462 458
f 458 462 463
f 458 463 459
f 459 463 464
f 459 464 460
f 460 464 461
f 460 461 457
f 465 466 467
f 465 467 468
f 469 470 471
f 469 471 472
f 465 469 470
f 465 470 466
f 466 470 471
f 466 471 467
f 467 471 472
f 467 472 468
f 468 472 469
f 468 469 465
f 473 474 475
f 473 475 476
f 477 478 479
f 477 479 480
f 473 477 478
f 473 478 474
f 474 478 479
f 474 479 475
f 475 479 480
f 475 480 476
f 476 480 477
f 476 477 473
f 481 482 483
f 481 483 484
f 485 486 487
f 485 487 488
f 481 485 486
f 481 486 482
f 482 486 487
f 482 487 483
f 483 487 488
f 483 488 484
f 484 488 485
f 484 485 481
