# SignFlow 3D Hand Mesh - Frame 144
v 0.000000 0.000956 0.019977
v -0.011873 -0.006998 0.014493
v -0.016792 -0.010852 0.000519
v -0.011873 -0.008349 -0.013759
v -0.000000 -0.000956 -0.019977
v 0.011873 0.006998 -0.014493
v 0.016792 0.010852 -0.000519
v 0.011873 0.008349 0.013759
v 0.019852 -0.029691 0.021443
v 0.007979 -0.037644 0.015959
v 0.003060 -0.041499 0.001985
v 0.007979 -0.038996 -0.012293
v 0.019852 -0.031602 -0.018511
v 0.031725 -0.023648 -0.013027
v 0.036644 -0.019794 0.000947
v 0.031725 -0.022297 0.015225
v 0.019852 -0.040554 0.018839
v 0.011580 -0.047616 0.008068
v 0.008154 -0.044737 -0.006571
v 0.011580 -0.033604 -0.016502
v 0.019852 -0.020738 -0.015907
v 0.028124 -0.013676 -0.005136
v 0.031550 -0.016555 0.009502
v 0.028124 -0.027688 0.019433
v 0.043333 -0.055264 0.010450
v 0.035061 -0.062326 -0.000322
v 0.031635 -0.059447 -0.014960
v 0.035061 -0.048313 -0.024891
v 0.043333 -0.035447 -0.024297
v 0.051605 -0.028385 -0.013525
v 0.055032 -0.031265 0.001113
v 0.051605 -0.042398 0.011044
v 0.043333 -0.065313 -0.005619
v 0.032277 -0.060043 -0.014800
v 0.027697 -0.046169 -0.019367
v 0.032277 -0.031819 -0.016645
v 0.043333 -0.025398 -0.008228
v 0.054390 -0.030669 0.000953
v 0.058970 -0.044542 0.005520
v 0.054390 -0.058893 0.002798
v 0.062214 -0.066857 -0.029243
v 0.051158 -0.061587 -0.038424
v 0.046578 -0.047713 -0.042991
v 0.051158 -0.033363 -0.040269
v 0.062214 -0.026942 -0.031852
v 0.073271 -0.032213 -0.022671
v 0.077850 -0.046086 -0.018104
v 0.073271 -0.060437 -0.020826
v 0.062214 -0.065529 -0.037824
v 0.048935 -0.058302 -0.040225
v 0.043435 -0.044396 -0.036956
v 0.048935 -0.031957 -0.029933
v 0.062214 -0.028271 -0.023270
v 0.075493 -0.035497 -0.020870
v 0.080993 -0.049403 -0.024138
v 0.075493 -0.061843 -0.031161
v 0.071142 -0.056664 -0.060520
v 0.057863 -0.049437 -0.062920
v 0.052362 -0.035531 -0.059652
v 0.057863 -0.023091 -0.052629
v 0.071142 -0.019405 -0.045966
v 0.084420 -0.026632 -0.043565
v 0.089921 -0.040538 -0.046834
v 0.084420 -0.052977 -0.053856
v 0.000000 -0.010189 0.017210
v -0.013238 -0.011487 0.009634
v -0.018721 -0.006056 -0.003585
v -0.013238 0.002923 -0.014705
v -0.000000 0.010189 -0.017210
v 0.013238 0.011487 -0.009634
v 0.018721 0.006056 0.003585
v 0.013238 -0.002923 0.014705
v 0.031425 -0.082120 -0.025377
v 0.018187 -0.083418 -0.032953
v 0.012704 -0.077987 -0.046172
v 0.018187 -0.069008 -0.057291
v 0.031425 -0.061742 -0.059797
v 0.044662 -0.060444 -0.052221
v 0.050146 -0.065875 -0.039001
v 0.044662 -0.074854 -0.027882
v 0.031425 -0.081963 -0.025285
v 0.022774 -0.088703 -0.035964
v 0.019191 -0.085618 -0.050523
v 0.022774 -0.074516 -0.060433
v 0.031425 -0.061899 -0.059889
v 0.040076 -0.055159 -0.049209
v 0.043659 -0.058243 -0.034650
v 0.040076 -0.069346 -0.024740
v 0.052376 -0.095978 -0.033411
v 0.043726 -0.102718 -0.044090
v 0.040142 -0.099634 -0.058649
v 0.043726 -0.088531 -0.068559
v 0.052376 -0.075914 -0.068015
v 0.061027 -0.069174 -0.057335
v 0.064610 -0.072259 -0.042777
v 0.061027 -0.083361 -0.032867
v 0.052376 -0.092493 -0.031815
v 0.044682 -0.101788 -0.041234
v 0.041495 -0.101803 -0.056206
v 0.044682 -0.092529 -0.067960
v 0.052376 -0.079399 -0.069611
v 0.060070 -0.070104 -0.060191
v 0.063257 -0.070090 -0.045219
v 0.060070 -0.079364 -0.033465
v 0.071236 -0.104048 -0.035818
v 0.063542 -0.113343 -0.045238
v 0.060355 -0.113358 -0.060210
v 0.063542 -0.104084 -0.071963
v 0.071236 -0.090954 -0.073614
v 0.078930 -0.081659 -0.064194
v 0.082117 -0.081645 -0.049223
v 0.078930 -0.090919 -0.037469
v 0.071236 -0.111654 -0.040585
v 0.060662 -0.114144 -0.051369
v 0.056282 -0.106885 -0.064114
v 0.060662 -0.094129 -0.071354
v 0.071236 -0.083348 -0.068847
v 0.081810 -0.080858 -0.058063
v 0.086190 -0.088118 -0.045318
v 0.081810 -0.100874 -0.038078
v 0.084780 -0.122430 -0.051377
v 0.074206 -0.124920 -0.062161
v 0.069826 -0.117660 -0.074906
v 0.074206 -0.104904 -0.082146
v 0.084780 -0.094124 -0.079639
v 0.095354 -0.091634 -0.068855
v 0.099734 -0.098893 -0.056110
v 0.095354 -0.111649 -0.048870
v 0.000000 -0.013603 0.014661
v -0.013282 -0.013179 0.007064
v -0.018784 -0.005034 -0.004671
v -0.013282 0.006060 -0.013670
v -0.000000 0.013603 -0.014661
v 0.013282 0.013179 -0.007064
v 0.018784 0.005034 0.004671
v 0.013282 -0.006060 0.013670
v 0.031316 -0.076398 -0.043604
v 0.018033 -0.075973 -0.051200
v 0.012531 -0.067828 -0.062935
v 0.018033 -0.056734 -0.071934
v 0.031316 -0.049191 -0.072926
v 0.044598 -0.049616 -0.065329
v 0.050100 -0.057760 -0.053594
v 0.044598 -0.068854 -0.044595
v 0.031316 -0.075798 -0.043069
v 0.020614 -0.079014 -0.053531
v 0.016182 -0.072728 -0.066766
v 0.020614 -0.060624 -0.075021
v 0.031316 -0.049790 -0.073460
v 0.042017 -0.046575 -0.062998
v 0.046450 -0.052860 -0.049763
v 0.042017 -0.064964 -0.041508
v 0.054359 -0.096063 -0.060411
v 0.043658 -0.099278 -0.070873
v 0.039225 -0.092993 -0.084108
v 0.043658 -0.080889 -0.092362
v 0.054359 -0.070055 -0.090802
v 0.065061 -0.066839 -0.080340
v 0.069493 -0.073125 -0.067105
v 0.065061 -0.085229 -0.058850
v 0.054359 -0.091688 -0.057564
v 0.045239 -0.098911 -0.067512
v 0.041462 -0.096848 -0.082202
v 0.045239 -0.086708 -0.093028
v 0.054359 -0.074429 -0.093649
v 0.063479 -0.067206 -0.083701
v 0.067257 -0.069269 -0.069011
v 0.063479 -0.079410 -0.058185
v 0.070041 -0.103625 -0.063273
v 0.060921 -0.110848 -0.073221
v 0.057143 -0.108785 -0.087911
v 0.060921 -0.098644 -0.098737
v 0.070041 -0.086366 -0.099358
v 0.079161 -0.079143 -0.089410
v 0.082939 -0.081206 -0.074720
v 0.079161 -0.091347 -0.063894
v 0.070041 -0.094636 -0.061319
v 0.062060 -0.106415 -0.066966
v 0.058755 -0.111504 -0.081018
v 0.062060 -0.106923 -0.095245
v 0.070041 -0.095355 -0.101312
v 0.078021 -0.083577 -0.095665
v 0.081327 -0.078487 -0.081612
v 0.078021 -0.083068 -0.067385
v 0.090322 -0.108497 -0.061069
v 0.082341 -0.120275 -0.066716
v 0.079035 -0.125365 -0.080769
v 0.082341 -0.120784 -0.094996
v 0.090322 -0.109216 -0.101063
v 0.098302 -0.097437 -0.095416
v 0.101608 -0.092348 -0.081363
v 0.098302 -0.096929 -0.067136
v 0.000000 -0.016292 0.011601
v -0.013166 -0.014514 0.003998
v -0.018620 -0.004235 -0.005947
v -0.013166 0.008526 -0.012408
v -0.000000 0.016292 -0.011601
v 0.013166 0.014514 -0.003998
v 0.018620 0.004235 0.005947
v 0.013166 -0.008526 0.012408
v 0.035657 -0.069044 -0.062481
v 0.022491 -0.067267 -0.070084
v 0.017037 -0.056987 -0.080028
v 0.022491 -0.044227 -0.086490
v 0.035657 -0.036461 -0.085683
v 0.048823 -0.038238 -0.078080
v 0.054277 -0.048518 -0.068135
v 0.048823 -0.061278 -0.061674
v 0.034145 -0.052752 -0.054139
v 0.036462 -0.066769 -0.059838
v 0.038308 -0.072575 -0.073881
v 0.038601 -0.066769 -0.088041
v 0.037170 -0.052752 -0.094024
v 0.034852 -0.038736 -0.088326
v 0.033006 -0.032930 -0.074283
v 0.032713 -0.038736 -0.060122
v 0.059191 -0.049383 -0.052239
v 0.061509 -0.063400 -0.057938
v 0.063355 -0.069206 -0.071981
v 0.063648 -0.063400 -0.086142
v 0.062216 -0.049383 -0.092125
v 0.059898 -0.035366 -0.086426
v 0.058052 -0.029561 -0.072383
v 0.057759 -0.035366 -0.058223
v 0.060703 -0.030490 -0.078744
v 0.046783 -0.035205 -0.074464
v 0.041017 -0.048225 -0.068848
v 0.046783 -0.061923 -0.065184
v 0.060703 -0.068276 -0.065620
v 0.074623 -0.063561 -0.069900
v 0.080389 -0.050541 -0.075517
v 0.074623 -0.036843 -0.079180
v 0.065106 -0.022434 -0.055550
v 0.051186 -0.027149 -0.051270
v 0.045420 -0.040169 -0.045653
v 0.051186 -0.053868 -0.041990
v 0.065106 -0.060220 -0.042426
v 0.079026 -0.055506 -0.046706
v 0.084792 -0.042485 -0.052322
v 0.079026 -0.028787 -0.055986
v 0.065106 -0.022839 -0.056617
v 0.051378 -0.029551 -0.057524
v 0.045692 -0.043161 -0.053431
v 0.051378 -0.055697 -0.046735
v 0.065106 -0.059815 -0.041359
v 0.078834 -0.053103 -0.040451
v 0.084520 -0.039494 -0.044544
v 0.078834 -0.026958 -0.051240
v 0.059409 -0.014064 -0.035350
v 0.045682 -0.020775 -0.036257
v 0.039995 -0.034385 -0.032164
v 0.045682 -0.046921 -0.025468
v 0.059409 -0.051039 -0.020092
v 0.073137 -0.044328 -0.019184
v 0.078823 -0.030718 -0.023277
v 0.073137 -0.018182 -0.029973
v 0.000000 -0.018463 0.007688
v -0.013269 -0.014937 0.000919
v -0.018765 -0.002660 -0.006389
v -0.013269 0.011175 -0.009953
v -0.000000 0.018463 -0.007688
v 0.013269 0.014937 -0.000919
v 0.018765 0.002660 0.006389
v 0.013269 -0.011175 0.009953
v 0.031106 -0.050885 -0.070179
v 0.017838 -0.047358 -0.076948
v 0.012342 -0.035082 -0.084255
v 0.017838 -0.021247 -0.087820
v 0.031106 -0.013958 -0.085554
v 0.044375 -0.017485 -0.078785
v 0.049871 -0.029761 -0.071478
v 0.044375 -0.043596 -0.067913
v 0.027474 -0.032422 -0.058199
v 0.028145 -0.046558 -0.064032
v 0.030550 -0.052414 -0.077969
v 0.033282 -0.046558 -0.091846
v 0.034739 -0.032422 -0.097534
v 0.034068 -0.018285 -0.091701
v 0.031662 -0.012429 -0.077764
v 0.028931 -0.018285 -0.063887
v 0.050891 -0.033095 -0.053874
v 0.051562 -0.047231 -0.059707
v 0.053968 -0.053087 -0.073644
v 0.056699 -0.047231 -0.087521
v 0.058156 -0.033095 -0.093209
v 0.057485 -0.018958 -0.087376
v 0.055079 -0.013103 -0.073439
v 0.052348 -0.018958 -0.059562
v 0.054523 -0.013332 -0.076614
v 0.040619 -0.018724 -0.073163
v 0.034860 -0.032534 -0.069933
v 0.040619 -0.046672 -0.068817
v 0.054523 -0.052857 -0.070469
v 0.068428 -0.047466 -0.073921
v 0.074187 -0.033656 -0.077150
v 0.068428 -0.019517 -0.078266
v 0.058135 -0.010345 -0.057399
v 0.044231 -0.015736 -0.053947
v 0.038471 -0.029546 -0.050718
v 0.044231 -0.043685 -0.049602
v 0.058135 -0.049870 -0.051254
v 0.072039 -0.044478 -0.054706
v 0.077799 -0.030668 -0.057935
v 0.072039 -0.016530 -0.059051
v 0.058135 -0.010241 -0.056640
v 0.045460 -0.016786 -0.062193
v 0.040210 -0.031133 -0.063138
v 0.045460 -0.044880 -0.058921
v 0.058135 -0.049973 -0.052013
v 0.070810 -0.043429 -0.046460
v 0.076060 -0.029081 -0.045515
v 0.070810 -0.015334 -0.049732
v 0.049603 -0.008247 -0.039516
v 0.036928 -0.014791 -0.045070
v 0.031678 -0.029139 -0.046014
v 0.036928 -0.042886 -0.041798
v 0.049603 -0.047979 -0.034889
v 0.062278 -0.041435 -0.029336
v 0.067528 -0.027087 -0.028391
v 0.062278 -0.013340 -0.032608
v -0.015000 -0.015000 -0.015000
v 0.015000 -0.015000 -0.015000
v 0.015000 0.015000 -0.015000
v -0.015000 0.015000 -0.015000
v -0.015000 -0.015000 0.015000
v 0.015000 -0.015000 0.015000
v 0.015000 0.015000 0.015000
v -0.015000 0.015000 0.015000
v 0.004852 -0.045646 -0.013534
v 0.034852 -0.045646 -0.013534
v 0.034852 -0.015646 -0.013534
v 0.004852 -0.015646 -0.013534
v 0.004852 -0.045646 0.016466
v 0.034852 -0.045646 0.016466
v 0.034852 -0.015646 0.016466
v 0.004852 -0.015646 0.016466
v 0.028333 -0.060356 -0.021923
v 0.058333 -0.060356 -0.021923
v 0.058333 -0.030356 -0.021923
v 0.028333 -0.030356 -0.021923
v 0.028333 -0.060356 0.008077
v 0.058333 -0.060356 0.008077
v 0.058333 -0.030356 0.008077
v 0.028333 -0.030356 0.008077
v 0.047214 -0.061900 -0.045547
v 0.077214 -0.061900 -0.045547
v 0.077214 -0.031900 -0.045547
v 0.047214 -0.031900 -0.045547
v 0.047214 -0.061900 -0.015547
v 0.077214 -0.061900 -0.015547
v 0.077214 -0.031900 -0.015547
v 0.047214 -0.031900 -0.015547
v 0.056142 -0.053034 -0.068243
v 0.086142 -0.053034 -0.068243
v 0.086142 -0.023034 -0.068243
v 0.056142 -0.023034 -0.068243
v 0.056142 -0.053034 -0.038243
v 0.086142 -0.053034 -0.038243
v 0.086142 -0.023034 -0.038243
v 0.056142 -0.023034 -0.038243
v 0.016425 -0.086931 -0.057587
v 0.046425 -0.086931 -0.057587
v 0.046425 -0.056931 -0.057587
v 0.016425 -0.056931 -0.057587
v 0.016425 -0.086931 -0.027587
v 0.046425 -0.086931 -0.027587
v 0.046425 -0.056931 -0.027587
v 0.016425 -0.056931 -0.027587
v 0.037376 -0.100946 -0.065713
v 0.067376 -0.100946 -0.065713
v 0.067376 -0.070946 -0.065713
v 0.037376 -0.070946 -0.065713
v 0.037376 -0.100946 -0.035713
v 0.067376 -0.100946 -0.035713
v 0.067376 -0.070946 -0.035713
v 0.037376 -0.070946 -0.035713
v 0.056236 -0.112501 -0.069716
v 0.086236 -0.112501 -0.069716
v 0.086236 -0.082501 -0.069716
v 0.056236 -0.082501 -0.069716
v 0.056236 -0.112501 -0.039716
v 0.086236 -0.112501 -0.039716
v 0.086236 -0.082501 -0.039716
v 0.056236 -0.082501 -0.039716
v 0.069780 -0.123277 -0.080508
v 0.099780 -0.123277 -0.080508
v 0.099780 -0.093277 -0.080508
v 0.069780 -0.093277 -0.080508
v 0.069780 -0.123277 -0.050508
v 0.099780 -0.123277 -0.050508
v 0.099780 -0.093277 -0.050508
v 0.069780 -0.093277 -0.050508
v 0.016316 -0.077794 -0.073265
v 0.046316 -0.077794 -0.073265
v 0.046316 -0.047794 -0.073265
v 0.016316 -0.047794 -0.073265
v 0.016316 -0.077794 -0.043265
v 0.046316 -0.077794 -0.043265
v 0.046316 -0.047794 -0.043265
v 0.016316 -0.047794 -0.043265
v 0.039359 -0.098059 -0.090606
v 0.069359 -0.098059 -0.090606
v 0.069359 -0.068059 -0.090606
v 0.039359 -0.068059 -0.090606
v 0.039359 -0.098059 -0.060606
v 0.069359 -0.098059 -0.060606
v 0.069359 -0.068059 -0.060606
v 0.039359 -0.068059 -0.060606
v 0.055041 -0.109996 -0.096315
v 0.085041 -0.109996 -0.096315
v 0.085041 -0.079996 -0.096315
v 0.055041 -0.079996 -0.096315
v 0.055041 -0.109996 -0.066315
v 0.085041 -0.109996 -0.066315
v 0.085041 -0.079996 -0.066315
v 0.055041 -0.079996 -0.066315
v 0.075322 -0.123856 -0.096066
v 0.105322 -0.123856 -0.096066
v 0.105322 -0.093856 -0.096066
v 0.075322 -0.093856 -0.096066
v 0.075322 -0.123856 -0.066066
v 0.105322 -0.123856 -0.066066
v 0.105322 -0.093856 -0.066066
v 0.075322 -0.093856 -0.066066
v 0.020657 -0.067752 -0.089082
v 0.050657 -0.067752 -0.089082
v 0.050657 -0.037752 -0.089082
v 0.020657 -0.037752 -0.089082
v 0.020657 -0.067752 -0.059082
v 0.050657 -0.067752 -0.059082
v 0.050657 -0.037752 -0.059082
v 0.020657 -0.037752 -0.059082
v 0.045703 -0.064383 -0.087182
v 0.075703 -0.064383 -0.087182
v 0.075703 -0.034383 -0.087182
v 0.045703 -0.034383 -0.087182
v 0.045703 -0.064383 -0.057182
v 0.075703 -0.064383 -0.057182
v 0.075703 -0.034383 -0.057182
v 0.045703 -0.034383 -0.057182
v 0.050106 -0.056327 -0.063988
v 0.080106 -0.056327 -0.063988
v 0.080106 -0.026327 -0.063988
v 0.050106 -0.026327 -0.063988
v 0.050106 -0.056327 -0.033988
v 0.080106 -0.056327 -0.033988
v 0.080106 -0.026327 -0.033988
v 0.050106 -0.026327 -0.033988
v 0.044409 -0.047551 -0.042721
v 0.074409 -0.047551 -0.042721
v 0.074409 -0.017551 -0.042721
v 0.044409 -0.017551 -0.042721
v 0.044409 -0.047551 -0.012721
v 0.074409 -0.047551 -0.012721
v 0.074409 -0.017551 -0.012721
v 0.044409 -0.017551 -0.012721
v 0.016106 -0.047422 -0.092867
v 0.046106 -0.047422 -0.092867
v 0.046106 -0.017422 -0.092867
v 0.016106 -0.017422 -0.092867
v 0.016106 -0.047422 -0.062867
v 0.046106 -0.047422 -0.062867
v 0.046106 -0.017422 -0.062867
v 0.016106 -0.017422 -0.062867
v 0.039523 -0.048095 -0.088542
v 0.069523 -0.048095 -0.088542
v 0.069523 -0.018095 -0.088542
v 0.039523 -0.018095 -0.088542
v 0.039523 -0.048095 -0.058542
v 0.069523 -0.048095 -0.058542
v 0.069523 -0.018095 -0.058542
v 0.039523 -0.018095 -0.058542
v 0.043135 -0.045107 -0.069326
v 0.073135 -0.045107 -0.069326
v 0.073135 -0.015107 -0.069326
v 0.043135 -0.015107 -0.069326
v 0.043135 -0.045107 -0.039326
v 0.073135 -0.045107 -0.039326
v 0.073135 -0.015107 -0.039326
v 0.043135 -0.015107 -0.039326
v 0.034603 -0.043113 -0.052203
v 0.064603 -0.043113 -0.052203
v 0.064603 -0.013113 -0.052203
v 0.034603 -0.013113 -0.052203
v 0.034603 -0.043113 -0.022203
v 0.064603 -0.043113 -0.022203
v 0.064603 -0.013113 -0.022203
v 0.034603 -0.013113 -0.022203
f 1 2 9
f 2 10 9
f 2 3 10
f 3 11 10
f 3 4 11
f 4 12 11
f 4 5 12
f 5 13 12
f 5 6 13
f 6 14 13
f 6 7 14
f 7 15 14
f 7 8 15
f 8 16 15
f 8 1 16
f 1 9 16
f 17 18 25
f 18 26 25
f 18 19 26
f 19 27 26
f 19 20 27
f 20 28 27
f 20 21 28
f 21 29 28
f 21 22 29
f 22 30 29
f 22 23 30
f 23 31 30
f 23 24 31
f 24 32 31
f 24 17 32
f 17 25 32
f 33 34 41
f 34 42 41
f 34 35 42
f 35 43 42
f 35 36 43
f 36 44 43
f 36 37 44
f 37 45 44
f 37 38 45
f 38 46 45
f 38 39 46
f 39 47 46
f 39 40 47
f 40 48 47
f 40 33 48
f 33 41 48
f 49 50 57
f 50 58 57
f 50 51 58
f 51 59 58
f 51 52 59
f 52 60 59
f 52 53 60
f 53 61 60
f 53 54 61
f 54 62 61
f 54 55 62
f 55 63 62
f 55 56 63
f 56 64 63
f 56 49 64
f 49 57 64
f 65 66 73
f 66 74 73
f 66 67 74
f 67 75 74
f 67 68 75
f 68 76 75
f 68 69 76
f 69 77 76
f 69 70 77
f 70 78 77
f 70 71 78
f 71 79 78
f 71 72 79
f 72 80 79
f 72 65 80
f 65 73 80
f 81 82 89
f 82 90 89
f 82 83 90
f 83 91 90
f 83 84 91
f 84 92 91
f 84 85 92
f 85 93 92
f 85 86 93
f 86 94 93
f 86 87 94
f 87 95 94
f 87 88 95
f 88 96 95
f 88 81 96
f 81 89 96
f 97 98 105
f 98 106 105
f 98 99 106
f 99 107 106
f 99 100 107
f 100 108 107
f 100 101 108
f 101 109 108
f 101 102 109
f 102 110 109
f 102 103 110
f 103 111 110
f 103 104 111
f 104 112 111
f 104 97 112
f 97 105 112
f 113 114 121
f 114 122 121
f 114 115 122
f 115 123 122
f 115 116 123
f 116 124 123
f 116 117 124
f 117 125 124
f 117 118 125
f 118 126 125
f 118 119 126
f 119 127 126
f 119 120 127
f 120 128 127
f 120 113 128
f 113 121 128
f 129 130 137
f 130 138 137
f 130 131 138
f 131 139 138
f 131 132 139
f 132 140 139
f 132 133 140
f 133 141 140
f 133 134 141
f 134 142 141
f 134 135 142
f 135 143 142
f 135 136 143
f 136 144 143
f 136 129 144
f 129 137 144
f 145 146 153
f 146 154 153
f 146 147 154
f 147 155 154
f 147 148 155
f 148 156 155
f 148 149 156
f 149 157 156
f 149 150 157
f 150 158 157
f 150 151 158
f 151 159 158
f 151 152 159
f 152 160 159
f 152 145 160
f 145 153 160
f 161 162 169
f 162 170 169
f 162 163 170
f 163 171 170
f 163 164 171
f 164 172 171
f 164 165 172
f 165 173 172
f 165 166 173
f 166 174 173
f 166 167 174
f 167 175 174
f 167 168 175
f 168 176 175
f 168 161 176
f 161 169 176
f 177 178 185
f 178 186 185
f 178 179 186
f 179 187 186
f 179 180 187
f 180 188 187
f 180 181 188
f 181 189 188
f 181 182 189
f 182 190 189
f 182 183 190
f 183 191 190
f 183 184 191
f 184 192 191
f 184 177 192
f 177 185 192
f 193 194 201
f 194 202 201
f 194 195 202
f 195 203 202
f 195 196 203
f 196 204 203
f 196 197 204
f 197 205 204
f 197 198 205
f 198 206 205
f 198 199 206
f 199 207 206
f 199 200 207
f 200 208 207
f 200 193 208
f 193 201 208
f 209 210 217
f 210 218 217
f 210 211 218
f 211 219 218
f 211 212 219
f 212 220 219
f 212 213 220
f 213 221 220
f 213 214 221
f 214 222 221
f 214 215 222
f 215 223 222
f 215 216 223
f 216 224 223
f 216 209 224
f 209 217 224
f 225 226 233
f 226 234 233
f 226 227 234
f 227 235 234
f 227 228 235
f 228 236 235
f 228 229 236
f 229 237 236
f 229 230 237
f 230 238 237
f 230 231 238
f 231 239 238
f 231 232 239
f 232 240 239
f 232 225 240
f 225 233 240
f 241 242 249
f 242 250 249
f 242 243 250
f 243 251 250
f 243 244 251
f 244 252 251
f 244 245 252
f 245 253 252
f 245 246 253
f 246 254 253
f 246 247 254
f 247 255 254
f 247 248 255
f 248 256 255
f 248 241 256
f 241 249 256
f 257 258 265
f 258 266 265
f 258 259 266
f 259 267 266
f 259 260 267
f 260 268 267
f 260 261 268
f 261 269 268
f 261 262 269
f 262 270 269
f 262 263 270
f 263 271 270
f 263 264 271
f 264 272 271
f 264 257 272
f 257 265 272
f 273 274 281
f 274 282 281
f 274 275 282
f 275 283 282
f 275 276 283
f 276 284 283
f 276 277 284
f 277 285 284
f 277 278 285
f 278 286 285
f 278 279 286
f 279 287 286
f 279 280 287
f 280 288 287
f 280 273 288
f 273 281 288
f 289 290 297
f 290 298 297
f 290 291 298
f 291 299 298
f 291 292 299
f 292 300 299
f 292 293 300
f 293 301 300
f 293 294 301
f 294 302 301
f 294 295 302
f 295 303 302
f 295 296 303
f 296 304 303
f 296 289 304
f 289 297 304
f 305 306 313
f 306 314 313
f 306 307 314
f 307 315 314
f 307 308 315
f 308 316 315
f 308 309 316
f 309 317 316
f 309 310 317
f 310 318 317
f 310 311 318
f 311 319 318
f 311 312 319
f 312 320 319
f 312 305 320
f 305 313 320
f 321 322 323
f 321 323 324
f 325 326 327
f 325 327 328
f 321 325 326
f 321 326 322
f 322 326 327
f 322 327 323
f 323 327 328
f 323 328 324
f 324 328 325
f 324 325 321
f 329 330 331
f 329 331 332
f 333 334 335
f 333 335 336
f 329 333 334
f 329 334 330
f 330 334 335
f 330 335 331
f 331 335 336
f 331 336 332
f 332 336 333
f 332 333 329
f 337 338 339
f 337 339 340
f 341 342 343
f 341 343 344
f 337 341 342
f 337 342 338
f 338 342 343
f 338 343 339
f 339 343 344
f 339 344 340
f 340 344 341
f 340 341 337
f 345 346 347
f 345 347 348
f 349 350 351
f 349 351 352
f 345 349 350
f 345 350 346
f 346 350 351
f 346 351 347
f 347 351 352
f 347 352 348
f 348 352 349
f 348 349 345
f 353 354 355
f 353 355 356
f 357 358 359
f 357 359 360
f 353 357 358
f 353 358 354
f 354 358 359
f 354 359 355
f 355 359 360
f 355 360 356
f 356 360 357
f 356 357 353
f 361 362 363
f 361 363 364
f 365 366 367
f 365 367 368
f 361 365 366
f 361 366 362
f 362 366 367
f 362 367 363
f 363 367 368
f 363 368 364
f 364 368 365
f 364 365 361
f 369 370 371
f 369 371 372
f 373 374 375
f 373 375 376
f 369 373 374
f 369 374 370
f 370 374 375
f 370 375 371
f 371 375 376
f 371 376 372
f 372 376 373
f 372 373 369
f 377 378 379
f 377 379 380
f 381 382 383
f 381 383 384
f 377 381 382
f 377 382 378
f 378 382 383
f 378 383 379
f 379 383 384
f 379 384 380
f 380 384 381
f 380 381 377
f 385 386 387
f 385 387 388
f 389 390 391
f 389 391 392
f 385 389 390
f 385 390 386
f 386 390 391
f 386 391 387
f 387 391 392
f 387 392 388
f 388 392 389
f 388 389 385
f 393 394 395
f 393 395 396
f 397 398 399
f 397 399 400
f 393 397 398
f 393 398 394
f 394 398 399
f 394 399 395
f 395 399 400
f 395 400 396
f 396 400 397
f 396 397 393
f 401 402 403
f 401 403 404
f 405 406 407
f 405 407 408
f 401 405 406
f 401 406 402
f 402 406 407
f 402 407 403
f 403 407 408
f 403 408 404
f 404 408 405
f 404 405 401
f 409 410 411
f 409 411 412
f 413 414 415
f 413 415 416
f 409 413 414
f 409 414 410
f 410 414 415
f 410 415 411
f 411 415 416
f 411 416 412
f 412 416 413
f 412 413 409
f 417 418 419
f 417 419 420
f 421 422 423
f 421 423 424
f 417 421 422
f 417 422 418
f 418 422 423
f 418 423 419
f 419 423 424
f 419 424 420
f 420 424 421
f 420 421 417
f 425 426 427
f 425 427 428
f 429 430 431
f 429 431 432
f 425 429 430
f 425 430 426
f 426 430 431
f 426 431 427
f 427 431 432
f 427 432 428
f 428 432 429
f 428 429 425
f 433 434 435
f 433 435 436
f 437 438 439
f 437 439 440
f 433 437 438
f 433 438 434
f 434 438 439
f 434 439 435
f 435 439 440
f 435 440 436
f 436 440 437
f 436 437 433
f 441 442 443
f 441 443 444
f 445 446 447
f 445 447 448
f 441 445 446
f 441 446 442
f 442 446 447
f 442 447 443
f 443 447 448
f 443 448 444
f 444 448 445
f 444 445 441
f 449 450 451
f 449 451 452
f 453 454 455
f 453 455 456
f 449 453 454
f 449 454 450
f 450 454 455
f 450 455 451
f 451 455 456
f 451 456 452
f 452 456 453
f 452 453 449
f 457 458 459
f 457 459 460
f 461 462 463
f 461 463 464
f 457 461 462
f 457 462 458
f 458 462 463
f 458 463 459
f 459 463 464
f 459 464 460
f 460 464 461
f 460 461 457
f 465 466 467
f 465 467 468
f 469 470 471
f 469 471 472
f 465 469 470
f 465 470 466
f 466 470 471
f 466 471 467
f 467 471 472
f 467 472 468
f 468 472 469
f 468 469 465
f 473 474 475
f 473 475 476
f 477 478 479
f 477 479 480
f 473 477 478
f 473 478 474
f 474 478 479
f 474 479 475
f 475 479 480
f 475 480 476
f 476 480 477
f 476 477 473
f 481 482 483
f 481 483 484
f 485 486 487
f 485 487 488
f 481 485 486
f 481 486 482
f 482 486 487
f 482 487 483
f 483 487 488
f 483 488 484
f 484 488 485
f 484 485 481
