# SignFlow 3D Hand Mesh - Frame 169
v 0.003025 0.000000 0.019770
v 0.003238 -0.014098 0.013811
v 0.001555 -0.019938 -0.000238
v -0.001039 -0.014098 -0.014148
v -0.003025 -0.000000 -0.019770
v -0.003238 0.014098 -0.013811
v -0.001555 0.019938 0.000238
v 0.001039 0.014098 0.014148
v 0.042328 0.003137 0.013757
v 0.042542 -0.010961 0.007798
v 0.040858 -0.016801 -0.006251
v 0.038264 -0.010961 -0.020161
v 0.036279 0.003137 -0.025783
v 0.036065 0.017235 -0.019824
v 0.037748 0.023075 -0.005775
v 0.040343 0.017235 0.008135
v 0.043449 0.003137 0.013553
v 0.040423 -0.010883 0.008206
v 0.036740 -0.016691 -0.005470
v 0.034560 -0.010883 -0.019464
v 0.035158 0.003137 -0.025578
v 0.038184 0.017157 -0.020232
v 0.041867 0.022965 -0.006556
v 0.044047 0.017157 0.007438
v 0.077113 -0.001410 0.006420
v 0.074086 -0.015430 0.001073
v 0.070404 -0.021238 -0.012603
v 0.068223 -0.015430 -0.026597
v 0.068821 -0.001410 -0.032712
v 0.071848 0.012610 -0.027365
v 0.075530 0.018418 -0.013689
v 0.077711 0.012610 0.000305
v 0.072967 -0.018702 -0.003097
v 0.066790 -0.020029 -0.017040
v 0.064232 -0.010449 -0.028702
v 0.066790 0.004426 -0.031251
v 0.072967 0.015882 -0.023195
v 0.079144 0.017210 -0.009252
v 0.081702 0.007630 0.002410
v 0.079144 -0.007245 0.004959
v 0.107247 -0.027065 -0.017488
v 0.101070 -0.028392 -0.031430
v 0.098511 -0.018812 -0.043092
v 0.101070 -0.003937 -0.045641
v 0.107247 0.007520 -0.037585
v 0.113423 0.008847 -0.023642
v 0.115982 -0.000733 -0.011981
v 0.113423 -0.015608 -0.009431
v 0.109843 -0.009772 -0.007706
v 0.103842 -0.022890 -0.012828
v 0.099835 -0.028323 -0.026566
v 0.100170 -0.022890 -0.040873
v 0.104650 -0.009772 -0.047367
v 0.110651 0.003345 -0.042245
v 0.114658 0.008778 -0.028507
v 0.114323 0.003345 -0.014200
v 0.136703 -0.020687 -0.011223
v 0.130702 -0.033805 -0.016345
v 0.126695 -0.039238 -0.030083
v 0.127030 -0.033805 -0.044390
v 0.131510 -0.020687 -0.050884
v 0.137511 -0.007570 -0.045762
v 0.141518 -0.002137 -0.032024
v 0.141183 -0.007570 -0.017717
v 0.004303 0.000000 0.019532
v -0.001532 -0.013344 0.014819
v -0.006469 -0.018871 0.001425
v -0.007617 -0.013344 -0.012803
v -0.004303 -0.000000 -0.019532
v 0.001532 0.013344 -0.014819
v 0.006469 0.018871 -0.001425
v 0.007617 0.013344 0.012803
v 0.095616 -0.032821 -0.000585
v 0.089781 -0.046165 -0.005298
v 0.084844 -0.051692 -0.018691
v 0.083696 -0.046165 -0.032919
v 0.087010 -0.032821 -0.039648
v 0.092845 -0.019477 -0.034935
v 0.097782 -0.013950 -0.021541
v 0.098930 -0.019477 -0.007313
v 0.091313 -0.047320 -0.006340
v 0.084890 -0.051752 -0.019509
v 0.082229 -0.045095 -0.033033
v 0.084890 -0.031248 -0.038991
v 0.091313 -0.018323 -0.033893
v 0.097736 -0.013890 -0.020724
v 0.100396 -0.020548 -0.007199
v 0.097736 -0.034395 -0.001241
v 0.118859 -0.056993 -0.016520
v 0.112436 -0.061425 -0.029688
v 0.109775 -0.054768 -0.043213
v 0.112436 -0.040921 -0.049171
v 0.118859 -0.027995 -0.044073
v 0.125282 -0.023563 -0.030904
v 0.127942 -0.030221 -0.017379
v 0.125282 -0.044067 -0.011421
v 0.118859 -0.051741 -0.012562
v 0.112605 -0.060280 -0.023621
v 0.110015 -0.058400 -0.038590
v 0.112605 -0.047203 -0.048700
v 0.118859 -0.033247 -0.048030
v 0.125112 -0.024708 -0.036972
v 0.127703 -0.026588 -0.022003
v 0.125112 -0.037785 -0.011892
v 0.137289 -0.059798 -0.016763
v 0.131035 -0.068337 -0.027822
v 0.128445 -0.066457 -0.042791
v 0.131035 -0.055260 -0.052902
v 0.137289 -0.041305 -0.052231
v 0.143543 -0.032766 -0.041173
v 0.146133 -0.034645 -0.026204
v 0.143543 -0.045843 -0.016093
v 0.137289 -0.069089 -0.026991
v 0.125212 -0.066421 -0.036010
v 0.120209 -0.054457 -0.044143
v 0.125212 -0.040205 -0.046625
v 0.137289 -0.032013 -0.042004
v 0.149366 -0.034681 -0.032985
v 0.154369 -0.046646 -0.024852
v 0.149366 -0.060898 -0.022369
v 0.152179 -0.078262 -0.049643
v 0.140102 -0.075594 -0.058662
v 0.135099 -0.063629 -0.066795
v 0.140102 -0.049377 -0.069278
v 0.152179 -0.041186 -0.064656
v 0.164256 -0.043854 -0.055637
v 0.169258 -0.055818 -0.047504
v 0.164256 -0.070070 -0.045022
v 0.000000 -0.009845 0.017409
v -0.007905 -0.017169 0.006538
v -0.011180 -0.014435 -0.008163
v -0.007905 -0.003246 -0.018082
v -0.000000 0.009845 -0.017409
v 0.007905 0.017169 -0.006538
v 0.011180 0.014435 0.008163
v 0.007905 0.003246 0.018082
v 0.077321 -0.055218 -0.008249
v 0.069416 -0.062542 -0.019120
v 0.066141 -0.059808 -0.033821
v 0.069416 -0.048619 -0.043740
v 0.077321 -0.035528 -0.043067
v 0.085226 -0.028204 -0.032196
v 0.088501 -0.030938 -0.017495
v 0.085226 -0.042127 -0.007576
v 0.077321 -0.056529 -0.009059
v 0.069638 -0.063116 -0.020543
v 0.066455 -0.059309 -0.035024
v 0.069638 -0.047339 -0.044019
v 0.077321 -0.034217 -0.042258
v 0.085004 -0.027630 -0.030773
v 0.088186 -0.031437 -0.016292
v 0.085004 -0.043407 -0.007298
v 0.109703 -0.073920 -0.020747
v 0.102020 -0.080507 -0.032232
v 0.098837 -0.076701 -0.046712
v 0.102020 -0.064730 -0.055707
v 0.109703 -0.051608 -0.053946
v 0.117386 -0.045022 -0.042461
v 0.120568 -0.048828 -0.027980
v 0.117386 -0.060799 -0.018986
v 0.109703 -0.077474 -0.023795
v 0.100802 -0.080612 -0.035848
v 0.097116 -0.073295 -0.048778
v 0.100802 -0.059810 -0.055011
v 0.109703 -0.048055 -0.050897
v 0.118603 -0.044917 -0.038845
v 0.122290 -0.052234 -0.025915
v 0.118603 -0.065719 -0.019681
v 0.129938 -0.088577 -0.035848
v 0.121037 -0.091715 -0.047900
v 0.117351 -0.084398 -0.060830
v 0.121037 -0.070913 -0.067064
v 0.129938 -0.059158 -0.062950
v 0.138838 -0.056020 -0.050898
v 0.142525 -0.063337 -0.037967
v 0.138838 -0.076822 -0.031734
v 0.129938 -0.091504 -0.039967
v 0.119585 -0.090882 -0.051225
v 0.115297 -0.080293 -0.061414
v 0.119585 -0.065941 -0.064564
v 0.129938 -0.056231 -0.058831
v 0.140290 -0.056853 -0.047572
v 0.144578 -0.067441 -0.037383
v 0.140290 -0.081794 -0.034233
v 0.150381 -0.101863 -0.059336
v 0.140029 -0.101241 -0.070595
v 0.135741 -0.090652 -0.080784
v 0.140029 -0.076300 -0.083934
v 0.150381 -0.066590 -0.078200
v 0.160734 -0.067212 -0.066942
v 0.165022 -0.077801 -0.056753
v 0.160734 -0.092153 -0.053603
v 0.000000 -0.011476 0.016380
v -0.010337 -0.016019 0.006044
v -0.014618 -0.011179 -0.007832
v -0.010337 0.000210 -0.017120
v -0.000000 0.011476 -0.016380
v 0.010337 0.016019 -0.006044
v 0.014618 0.011179 0.007832
v 0.010337 -0.000210 0.017120
v 0.059070 -0.063289 -0.019921
v 0.048734 -0.067832 -0.030257
v 0.044452 -0.062992 -0.044133
v 0.048734 -0.051603 -0.053422
v 0.059070 -0.040337 -0.052681
v 0.069407 -0.035794 -0.042346
v 0.073689 -0.040634 -0.028469
v 0.069407 -0.052023 -0.019181
v 0.059070 -0.063252 -0.019895
v 0.050324 -0.069018 -0.031057
v 0.046702 -0.064706 -0.045290
v 0.050324 -0.052841 -0.054258
v 0.059070 -0.040374 -0.052707
v 0.067816 -0.034608 -0.041546
v 0.071439 -0.038921 -0.027312
v 0.067816 -0.050785 -0.018344
v 0.083676 -0.079136 -0.030970
v 0.074930 -0.084902 -0.042131
v 0.071307 -0.080590 -0.056365
v 0.074930 -0.068725 -0.065333
v 0.083676 -0.056259 -0.063782
v 0.092422 -0.050493 -0.052621
v 0.096045 -0.054805 -0.038387
v 0.092422 -0.066669 -0.029419
v 0.083676 -0.081490 -0.032893
v 0.074906 -0.085484 -0.044786
v 0.071273 -0.079059 -0.058197
v 0.074906 -0.065978 -0.065268
v 0.083676 -0.053904 -0.061859
v 0.092446 -0.049910 -0.049966
v 0.096079 -0.056336 -0.036556
v 0.092446 -0.069417 -0.029484
v 0.103263 -0.092703 -0.043572
v 0.094493 -0.096697 -0.055465
v 0.090860 -0.090272 -0.068875
v 0.094493 -0.077191 -0.075947
v 0.103263 -0.065117 -0.072538
v 0.112034 -0.061123 -0.060644
v 0.115666 -0.067548 -0.047234
v 0.112034 -0.080629 -0.040163
v 0.103263 -0.093945 -0.044866
v 0.093973 -0.096573 -0.056745
v 0.090125 -0.088854 -0.069391
v 0.093973 -0.075310 -0.075397
v 0.103263 -0.063875 -0.071244
v 0.112553 -0.061247 -0.059365
v 0.116401 -0.068966 -0.046719
v 0.112553 -0.082510 -0.040713
v 0.125575 -0.106764 -0.059479
v 0.116285 -0.109392 -0.071358
v 0.112437 -0.101673 -0.084004
v 0.116285 -0.088129 -0.090010
v 0.125575 -0.076694 -0.085857
v 0.134865 -0.074066 -0.073978
v 0.138713 -0.081785 -0.061332
v 0.134865 -0.095329 -0.055326
v 0.000000 -0.013097 0.015115
v -0.012381 -0.014426 0.006213
v -0.017510 -0.007304 -0.006329
v -0.012381 0.004096 -0.015163
v -0.000000 0.013097 -0.015115
v 0.012381 0.014426 -0.006213
v 0.017510 0.007304 0.006329
v 0.012381 -0.004096 0.015163
v 0.036659 -0.063292 -0.028377
v 0.024277 -0.064621 -0.037279
v 0.019149 -0.057499 -0.049821
v 0.024277 -0.046099 -0.058656
v 0.036659 -0.037098 -0.058608
v 0.049040 -0.035770 -0.049705
v 0.054169 -0.042891 -0.037164
v 0.049040 -0.054291 -0.028329
v 0.036659 -0.059404 -0.025739
v 0.024492 -0.063107 -0.034258
v 0.019453 -0.059246 -0.048187
v 0.024492 -0.050083 -0.059366
v 0.036659 -0.040986 -0.061246
v 0.048825 -0.037284 -0.052727
v 0.053865 -0.041145 -0.038798
v 0.048825 -0.050307 -0.027619
v 0.047776 -0.076059 -0.034378
v 0.035609 -0.079761 -0.042897
v 0.030570 -0.075900 -0.056826
v 0.035609 -0.066738 -0.068005
v 0.047776 -0.057641 -0.069885
v 0.059943 -0.053939 -0.061366
v 0.064982 -0.057800 -0.047437
v 0.059943 -0.066962 -0.036258
v 0.047776 -0.080617 -0.037623
v 0.036376 -0.082655 -0.047633
v 0.031653 -0.075435 -0.060278
v 0.036376 -0.063186 -0.068150
v 0.047776 -0.053083 -0.066639
v 0.059176 -0.051045 -0.056630
v 0.063899 -0.058265 -0.043985
v 0.059176 -0.070514 -0.036112
v 0.060356 -0.093049 -0.049421
v 0.048956 -0.095087 -0.059430
v 0.044234 -0.087867 -0.072075
v 0.048956 -0.075618 -0.079947
v 0.060356 -0.065516 -0.078436
v 0.071757 -0.063477 -0.068427
v 0.076479 -0.070697 -0.055782
v 0.071757 -0.082946 -0.047910
v 0.060356 -0.094603 -0.051073
v 0.047969 -0.094502 -0.060065
v 0.042838 -0.085485 -0.071320
v 0.047969 -0.072834 -0.078245
v 0.060356 -0.063961 -0.076784
v 0.072744 -0.064063 -0.067792
v 0.077875 -0.073080 -0.056537
v 0.072744 -0.085730 -0.049611
v 0.071574 -0.107694 -0.066674
v 0.059187 -0.107592 -0.075666
v 0.054056 -0.098575 -0.086922
v 0.059187 -0.085925 -0.093847
v 0.071574 -0.077052 -0.092385
v 0.083961 -0.077153 -0.083393
v 0.089092 -0.086171 -0.072138
v 0.083961 -0.098821 -0.065213
v -0.015000 -0.015000 -0.015000
v 0.015000 -0.015000 -0.015000
v 0.015000 0.015000 -0.015000
v -0.015000 0.015000 -0.015000
v -0.015000 -0.015000 0.015000
v 0.015000 -0.015000 0.015000
v 0.015000 0.015000 0.015000
v -0.015000 0.015000 0.015000
v 0.024303 -0.011863 -0.021013
v 0.054303 -0.011863 -0.021013
v 0.054303 0.018137 -0.021013
v 0.024303 0.018137 -0.021013
v 0.024303 -0.011863 0.008987
v 0.054303 -0.011863 0.008987
v 0.054303 0.018137 0.008987
v 0.024303 0.018137 0.008987
v 0.057967 -0.016410 -0.028146
v 0.087967 -0.016410 -0.028146
v 0.087967 0.013590 -0.028146
v 0.057967 0.013590 -0.028146
v 0.057967 -0.016410 0.001854
v 0.087967 -0.016410 0.001854
v 0.087967 0.013590 0.001854
v 0.057967 0.013590 0.001854
v 0.092247 -0.024772 -0.042536
v 0.122247 -0.024772 -0.042536
v 0.122247 0.005228 -0.042536
v 0.092247 0.005228 -0.042536
v 0.092247 -0.024772 -0.012536
v 0.122247 -0.024772 -0.012536
v 0.122247 0.005228 -0.012536
v 0.092247 0.005228 -0.012536
v 0.119107 -0.035687 -0.046054
v 0.149107 -0.035687 -0.046054
v 0.149107 -0.005687 -0.046054
v 0.119107 -0.005687 -0.046054
v 0.119107 -0.035687 -0.016054
v 0.149107 -0.035687 -0.016054
v 0.149107 -0.005687 -0.016054
v 0.119107 -0.005687 -0.016054
v 0.076313 -0.047821 -0.035116
v 0.106313 -0.047821 -0.035116
v 0.106313 -0.017821 -0.035116
v 0.076313 -0.017821 -0.035116
v 0.076313 -0.047821 -0.005116
v 0.106313 -0.047821 -0.005116
v 0.106313 -0.017821 -0.005116
v 0.076313 -0.017821 -0.005116
v 0.103859 -0.057494 -0.045296
v 0.133859 -0.057494 -0.045296
v 0.133859 -0.027494 -0.045296
v 0.103859 -0.027494 -0.045296
v 0.103859 -0.057494 -0.015296
v 0.133859 -0.057494 -0.015296
v 0.133859 -0.027494 -0.015296
v 0.103859 -0.027494 -0.015296
v 0.122289 -0.065551 -0.049497
v 0.152289 -0.065551 -0.049497
v 0.152289 -0.035551 -0.049497
v 0.122289 -0.035551 -0.049497
v 0.122289 -0.065551 -0.019497
v 0.152289 -0.065551 -0.019497
v 0.152289 -0.035551 -0.019497
v 0.122289 -0.035551 -0.019497
v 0.137179 -0.074724 -0.072150
v 0.167179 -0.074724 -0.072150
v 0.167179 -0.044724 -0.072150
v 0.137179 -0.044724 -0.072150
v 0.137179 -0.074724 -0.042150
v 0.167179 -0.074724 -0.042150
v 0.167179 -0.044724 -0.042150
v 0.137179 -0.044724 -0.042150
v 0.062321 -0.060373 -0.040658
v 0.092321 -0.060373 -0.040658
v 0.092321 -0.030373 -0.040658
v 0.062321 -0.030373 -0.040658
v 0.062321 -0.060373 -0.010658
v 0.092321 -0.060373 -0.010658
v 0.092321 -0.030373 -0.010658
v 0.062321 -0.030373 -0.010658
v 0.094703 -0.077764 -0.052346
v 0.124703 -0.077764 -0.052346
v 0.124703 -0.047764 -0.052346
v 0.094703 -0.047764 -0.052346
v 0.094703 -0.077764 -0.022346
v 0.124703 -0.077764 -0.022346
v 0.124703 -0.047764 -0.022346
v 0.094703 -0.047764 -0.022346
v 0.114938 -0.088867 -0.064399
v 0.144938 -0.088867 -0.064399
v 0.144938 -0.058867 -0.064399
v 0.114938 -0.058867 -0.064399
v 0.114938 -0.088867 -0.034399
v 0.144938 -0.088867 -0.034399
v 0.144938 -0.058867 -0.034399
v 0.114938 -0.058867 -0.034399
v 0.135381 -0.099226 -0.083768
v 0.165381 -0.099226 -0.083768
v 0.165381 -0.069226 -0.083768
v 0.135381 -0.069226 -0.083768
v 0.135381 -0.099226 -0.053768
v 0.165381 -0.099226 -0.053768
v 0.165381 -0.069226 -0.053768
v 0.135381 -0.069226 -0.053768
v 0.044070 -0.066813 -0.051301
v 0.074070 -0.066813 -0.051301
v 0.074070 -0.036813 -0.051301
v 0.044070 -0.036813 -0.051301
v 0.044070 -0.066813 -0.021301
v 0.074070 -0.066813 -0.021301
v 0.074070 -0.036813 -0.021301
v 0.044070 -0.036813 -0.021301
v 0.068676 -0.082697 -0.062376
v 0.098676 -0.082697 -0.062376
v 0.098676 -0.052697 -0.062376
v 0.068676 -0.052697 -0.062376
v 0.068676 -0.082697 -0.032376
v 0.098676 -0.082697 -0.032376
v 0.098676 -0.052697 -0.032376
v 0.068676 -0.052697 -0.032376
v 0.088263 -0.093910 -0.073055
v 0.118263 -0.093910 -0.073055
v 0.118263 -0.063910 -0.073055
v 0.088263 -0.063910 -0.073055
v 0.088263 -0.093910 -0.043055
v 0.118263 -0.093910 -0.043055
v 0.118263 -0.063910 -0.043055
v 0.088263 -0.063910 -0.043055
v 0.110575 -0.106729 -0.087668
v 0.140575 -0.106729 -0.087668
v 0.140575 -0.076729 -0.087668
v 0.110575 -0.076729 -0.087668
v 0.110575 -0.106729 -0.057668
v 0.140575 -0.106729 -0.057668
v 0.140575 -0.076729 -0.057668
v 0.110575 -0.076729 -0.057668
v 0.021659 -0.065195 -0.058492
v 0.051659 -0.065195 -0.058492
v 0.051659 -0.035195 -0.058492
v 0.021659 -0.035195 -0.058492
v 0.021659 -0.065195 -0.028492
v 0.051659 -0.065195 -0.028492
v 0.051659 -0.035195 -0.028492
v 0.021659 -0.035195 -0.028492
v 0.032776 -0.081850 -0.067131
v 0.062776 -0.081850 -0.067131
v 0.062776 -0.051850 -0.067131
v 0.032776 -0.051850 -0.067131
v 0.032776 -0.081850 -0.037131
v 0.062776 -0.081850 -0.037131
v 0.062776 -0.051850 -0.037131
v 0.032776 -0.051850 -0.037131
v 0.045356 -0.094282 -0.078928
v 0.075356 -0.094282 -0.078928
v 0.075356 -0.064282 -0.078928
v 0.045356 -0.064282 -0.078928
v 0.045356 -0.094282 -0.048928
v 0.075356 -0.094282 -0.048928
v 0.075356 -0.064282 -0.048928
v 0.045356 -0.064282 -0.048928
v 0.056574 -0.107373 -0.094530
v 0.086574 -0.107373 -0.094530
v 0.086574 -0.077373 -0.094530
v 0.056574 -0.077373 -0.094530
v 0.056574 -0.107373 -0.064530
v 0.086574 -0.107373 -0.064530
v 0.086574 -0.077373 -0.064530
v 0.056574 -0.077373 -0.064530
f 1 2 9
f 2 10 9
f 2 3 10
f 3 11 10
f 3 4 11
f 4 12 11
f 4 5 12
f 5 13 12
f 5 6 13
f 6 14 13
f 6 7 14
f 7 15 14
f 7 8 15
f 8 16 15
f 8 1 16
f 1 9 16
f 17 18 25
f 18 26 25
f 18 19 26
f 19 27 26
f 19 20 27
f 20 28 27
f 20 21 28
f 21 29 28
f 21 22 29
f 22 30 29
f 22 23 30
f 23 31 30
f 23 24 31
f 24 32 31
f 24 17 32
f 17 25 32
f 33 34 41
f 34 42 41
f 34 35 42
f 35 43 42
f 35 36 43
f 36 44 43
f 36 37 44
f 37 45 44
f 37 38 45
f 38 46 45
f 38 39 46
f 39 47 46
f 39 40 47
f 40 48 47
f 40 33 48
f 33 41 48
f 49 50 57
f 50 58 57
f 50 51 58
f 51 59 58
f 51 52 59
f 52 60 59
f 52 53 60
f 53 61 60
f 53 54 61
f 54 62 61
f 54 55 62
f 55 63 62
f 55 56 63
f 56 64 63
f 56 49 64
f 49 57 64
f 65 66 73
f 66 74 73
f 66 67 74
f 67 75 74
f 67 68 75
f 68 76 75
f 68 69 76
f 69 77 76
f 69 70 77
f 70 78 77
f 70 71 78
f 71 79 78
f 71 72 79
f 72 80 79
f 72 65 80
f 65 73 80
f 81 82 89
f 82 90 89
f 82 83 90
f 83 91 90
f 83 84 91
f 84 92 91
f 84 85 92
f 85 93 92
f 85 86 93
f 86 94 93
f 86 87 94
f 87 95 94
f 87 88 95
f 88 96 95
f 88 81 96
f 81 89 96
f 97 98 105
f 98 106 105
f 98 99 106
f 99 107 106
f 99 100 107
f 100 108 107
f 100 101 108
f 101 109 108
f 101 102 109
f 102 110 109
f 102 103 110
f 103 111 110
f 103 104 111
f 104 112 111
f 104 97 112
f 97 105 112
f 113 114 121
f 114 122 121
f 114 115 122
f 115 123 122
f 115 116 123
f 116 124 123
f 116 117 124
f 117 125 124
f 117 118 125
f 118 126 125
f 118 119 126
f 119 127 126
f 119 120 127
f 120 128 127
f 120 113 128
f 113 121 128
f 129 130 137
f 130 138 137
f 130 131 138
f 131 139 138
f 131 132 139
f 132 140 139
f 132 133 140
f 133 141 140
f 133 134 141
f 134 142 141
f 134 135 142
f 135 143 142
f 135 136 143
f 136 144 143
f 136 129 144
f 129 137 144
f 145 146 153
f 146 154 153
f 146 147 154
f 147 155 154
f 147 148 155
f 148 156 155
f 148 149 156
f 149 157 156
f 149 150 157
f 150 158 157
f 150 151 158
f 151 159 158
f 151 152 159
f 152 160 159
f 152 145 160
f 145 153 160
f 161 162 169
f 162 170 169
f 162 163 170
f 163 171 170
f 163 164 171
f 164 172 171
f 164 165 172
f 165 173 172
f 165 166 173
f 166 174 173
f 166 167 174
f 167 175 174
f 167 168 175
f 168 176 175
f 168 161 176
f 161 169 176
f 177 178 185
f 178 186 185
f 178 179 186
f 179 187 186
f 179 180 187
f 180 188 187
f 180 181 188
f 181 189 188
f 181 182 189
f 182 190 189
f 182 183 190
f 183 191 190
f 183 184 191
f 184 192 191
f 184 177 192
f 177 185 192
f 193 194 201
f 194 202 201
f 194 195 202
f 195 203 202
f 195 196 203
f 196 204 203
f 196 197 204
f 197 205 204
f 197 198 205
f 198 206 205
f 198 199 206
f 199 207 206
f 199 200 207
f 200 208 207
f 200 193 208
f 193 201 208
f 209 210 217
f 210 218 217
f 210 211 218
f 211 219 218
f 211 212 219
f 212 220 219
f 212 213 220
f 213 221 220
f 213 214 221
f 214 222 221
f 214 215 222
f 215 223 222
f 215 216 223
f 216 224 223
f 216 209 224
f 209 217 224
f 225 226 233
f 226 234 233
f 226 227 234
f 227 235 234
f 227 228 235
f 228 236 235
f 228 229 236
f 229 237 236
f 229 230 237
f 230 238 237
f 230 231 238
f 231 239 238
f 231 232 239
f 232 240 239
f 232 225 240
f 225 233 240
f 241 242 249
f 242 250 249
f 242 243 250
f 243 251 250
f 243 244 251
f 244 252 251
f 244 245 252
f 245 253 252
f 245 246 253
f 246 254 253
f 246 247 254
f 247 255 254
f 247 248 255
f 248 256 255
f 248 241 256
f 241 249 256
f 257 258 265
f 258 266 265
f 258 259 266
f 259 267 266
f 259 260 267
f 260 268 267
f 260 261 268
f 261 269 268
f 261 262 269
f 262 270 269
f 262 263 270
f 263 271 270
f 263 264 271
f 264 272 271
f 264 257 272
f 257 265 272
f 273 274 281
f 274 282 281
f 274 275 282
f 275 283 282
f 275 276 283
f 276 284 283
f 276 277 284
f 277 285 284
f 277 278 285
f 278 286 285
f 278 279 286
f 279 287 286
f 279 280 287
f 280 288 287
f 280 273 288
f 273 281 288
f 289 290 297
f 290 298 297
f 290 291 298
f 291 299 298
f 291 292 299
f 292 300 299
f 292 293 300
f 293 301 300
f 293 294 301
f 294 302 301
f 294 295 302
f 295 303 302
f 295 296 303
f 296 304 303
f 296 289 304
f 289 297 304
f 305 306 313
f 306 314 313
f 306 307 314
f 307 315 314
f 307 308 315
f 308 316 315
f 308 309 316
f 309 317 316
f 309 310 317
f 310 318 317
f 310 311 318
f 311 319 318
f 311 312 319
f 312 320 319
f 312 305 320
f 305 313 320
f 321 322 323
f 321 323 324
f 325 326 327
f 325 327 328
f 321 325 326
f 321 326 322
f 322 326 327
f 322 327 323
f 323 327 328
f 323 328 324
f 324 328 325
f 324 325 321
f 329 330 331
f 329 331 332
f 333 334 335
f 333 335 336
f 329 333 334
f 329 334 330
f 330 334 335
f 330 335 331
f 331 335 336
f 331 336 332
f 332 336 333
f 332 333 329
f 337 338 339
f 337 339 340
f 341 342 343
f 341 343 344
f 337 341 342
f 337 342 338
f 338 342 343
f 338 343 339
f 339 343 344
f 339 344 340
f 340 344 341
f 340 341 337
f 345 346 347
f 345 347 348
f 349 350 351
f 349 351 352
f 345 349 350
f 345 350 346
f 346 350 351
f 346 351 347
f 347 351 352
f 347 352 348
f 348 352 349
f 348 349 345
f 353 354 355
f 353 355 356
f 357 358 359
f 357 359 360
f 353 357 358
f 353 358 354
f 354 358 359
f 354 359 355
f 355 359 360
f 355 360 356
f 356 360 357
f 356 357 353
f 361 362 363
f 361 363 364
f 365 366 367
f 365 367 368
f 361 365 366
f 361 366 362
f 362 366 367
f 362 367 363
f 363 367 368
f 363 368 364
f 364 368 365
f 364 365 361
f 369 370 371
f 369 371 372
f 373 374 375
f 373 375 376
f 369 373 374
f 369 374 370
f 370 374 375
f 370 375 371
f 371 375 376
f 371 376 372
f 372 376 373
f 372 373 369
f 377 378 379
f 377 379 380
f 381 382 383
f 381 383 384
f 377 381 382
f 377 382 378
f 378 382 383
f 378 383 379
f 379 383 384
f 379 384 380
f 380 384 381
f 380 381 377
f 385 386 387
f 385 387 388
f 389 390 391
f 389 391 392
f 385 389 390
f 385 390 386
f 386 390 391
f 386 391 387
f 387 391 392
f 387 392 388
f 388 392 389
f 388 389 385
f 393 394 395
f 393 395 396
f 397 398 399
f 397 399 400
f 393 397 398
f 393 398 394
f 394 398 399
f 394 399 395
f 395 399 400
f 395 400 396
f 396 400 397
f 396 397 393
f 401 402 403
f 401 403 404
f 405 406 407
f 405 407 408
f 401 405 406
f 401 406 402
f 402 406 407
f 402 407 403
f 403 407 408
f 403 408 404
f 404 408 405
f 404 405 401
f 409 410 411
f 409 411 412
f 413 414 415
f 413 415 416
f 409 413 414
f 409 414 410
f 410 414 415
f 410 415 411
f 411 415 416
f 411 416 412
f 412 416 413
f 412 413 409
f 417 418 419
f 417 419 420
f 421 422 423
f 421 423 424
f 417 421 422
f 417 422 418
f 418 422 423
f 418 423 419
f 419 423 424
f 419 424 420
f 420 424 421
f 420 421 417
f 425 426 427
f 425 427 428
f 429 430 431
f 429 431 432
f 425 429 430
f 425 430 426
f 426 430 431
f 426 431 427
f 427 431 432
f 427 432 428
f 428 432 429
f 428 429 425
f 433 434 435
f 433 435 436
f 437 438 439
f 437 439 440
f 433 437 438
f 433 438 434
f 434 438 439
f 434 439 435
f 435 439 440
f 435 440 436
f 436 440 437
f 436 437 433
f 441 442 443
f 441 443 444
f 445 446 447
f 445 447 448
f 441 445 446
f 441 446 442
f 442 446 447
f 442 447 443
f 443 447 448
f 443 448 444
f 444 448 445
f 444 445 441
f 449 450 451
f 449 451 452
f 453 454 455
f 453 455 456
f 449 453 454
f 449 454 450
f 450 454 455
f 450 455 451
f 451 455 456
f 451 456 452
f 452 456 453
f 452 453 449
f 457 458 459
f 457 459 460
f 461 462 463
f 461 463 464
f 457 461 462
f 457 462 458
f 458 462 463
f 458 463 459
f 459 463 464
f 459 464 460
f 460 464 461
f 460 461 457
f 465 466 467
f 465 467 468
f 469 470 471
f 469 471 472
f 465 469 470
f 465 470 466
f 466 470 471
f 466 471 467
f 467 471 472
f 467 472 468
f 468 472 469
f 468 469 465
f 473 474 475
f 473 475 476
f 477 478 479
f 477 479 480
f 473 477 478
f 473 478 474
f 474 478 479
f 474 479 475
f 475 479 480
f 475 480 476
f 476 480 477
f 476 477 473
f 481 482 483
f 481 483 484
f 485 486 487
f 485 487 488
f 481 485 486
f 481 486 482
f 482 486 487
f 482 487 483
f 483 487 488
f 483 488 484
f 484 488 485
f 484 485 481
