# SignFlow 3D Hand Mesh - Frame 273
v 0.000000 -0.018370 0.007907
v -0.008037 -0.017590 -0.005097
v -0.011366 -0.006506 -0.015115
v -0.008037 0.008389 -0.016280
v -0.000000 0.018370 -0.007907
v 0.008037 0.017590 0.005097
v 0.011366 0.006506 0.015115
v 0.008037 -0.008389 0.016280
v 0.031587 -0.026996 -0.012132
v 0.023550 -0.026216 -0.025137
v 0.020220 -0.015132 -0.035155
v 0.023550 -0.000237 -0.036319
v 0.031587 0.009745 -0.027947
v 0.039624 0.008965 -0.014943
v 0.042953 -0.002120 -0.004924
v 0.039624 -0.017015 -0.003760
v 0.033119 -0.008626 -0.000098
v 0.026840 -0.021503 -0.005491
v 0.023342 -0.026836 -0.019406
v 0.024674 -0.021503 -0.033692
v 0.030055 -0.008626 -0.039981
v 0.036334 0.004251 -0.034588
v 0.039832 0.009584 -0.020673
v 0.038500 0.004251 -0.006387
v 0.066340 -0.023756 -0.002650
v 0.060061 -0.036633 -0.008043
v 0.056563 -0.041967 -0.021958
v 0.057894 -0.036633 -0.036244
v 0.063276 -0.023756 -0.042533
v 0.069555 -0.010880 -0.037140
v 0.073053 -0.005546 -0.023225
v 0.071721 -0.010880 -0.008939
v 0.064002 -0.023756 -0.002608
v 0.059055 -0.036913 -0.008670
v 0.057478 -0.042362 -0.022887
v 0.060194 -0.036913 -0.036931
v 0.065613 -0.023756 -0.042575
v 0.070560 -0.010600 -0.036513
v 0.072138 -0.005150 -0.022296
v 0.069421 -0.010600 -0.008252
v 0.097030 -0.036789 -0.001277
v 0.092083 -0.049945 -0.007339
v 0.090506 -0.055395 -0.021556
v 0.093222 -0.049945 -0.035600
v 0.098641 -0.036789 -0.041244
v 0.103588 -0.023632 -0.035182
v 0.105165 -0.018183 -0.020965
v 0.102449 -0.023632 -0.006921
v 0.097835 -0.020921 -0.009086
v 0.091233 -0.033182 -0.002729
v 0.088498 -0.047555 -0.007228
v 0.091233 -0.055622 -0.019947
v 0.097835 -0.052656 -0.033435
v 0.104438 -0.040396 -0.039791
v 0.107173 -0.026022 -0.035292
v 0.104438 -0.017956 -0.022574
v 0.121235 -0.028441 0.000715
v 0.114632 -0.040702 0.007071
v 0.111897 -0.055075 0.002572
v 0.114632 -0.063142 -0.010146
v 0.121235 -0.060176 -0.023634
v 0.127837 -0.047916 -0.029991
v 0.130572 -0.033542 -0.025492
v 0.127837 -0.025476 -0.012773
v 0.000000 -0.010086 0.017271
v -0.012129 -0.013412 0.008545
v -0.017153 -0.008881 -0.005187
v -0.012129 0.000852 -0.015880
v -0.000000 0.010086 -0.017271
v 0.012129 0.013412 -0.008545
v 0.017153 0.008881 0.005187
v 0.012129 -0.000852 0.015880
v 0.050254 -0.082459 -0.024995
v 0.038125 -0.085785 -0.033721
v 0.033101 -0.081255 -0.047453
v 0.038125 -0.071522 -0.058146
v 0.050254 -0.062287 -0.059537
v 0.062383 -0.058961 -0.050811
v 0.067407 -0.063492 -0.037079
v 0.062383 -0.073225 -0.026386
v 0.050254 -0.074920 -0.022429
v 0.036238 -0.076043 -0.028479
v 0.030432 -0.075016 -0.042605
v 0.036238 -0.072441 -0.056533
v 0.050254 -0.069826 -0.062103
v 0.064270 -0.068704 -0.056053
v 0.070076 -0.069731 -0.041927
v 0.064270 -0.072306 -0.027999
v 0.054488 -0.106162 -0.026440
v 0.040472 -0.107285 -0.032490
v 0.034666 -0.106258 -0.046617
v 0.040472 -0.103682 -0.060544
v 0.054488 -0.101068 -0.066114
v 0.068504 -0.099945 -0.060064
v 0.074310 -0.100972 -0.045938
v 0.068504 -0.103547 -0.032010
v 0.054488 -0.108955 -0.027003
v 0.040356 -0.107898 -0.032789
v 0.034502 -0.104332 -0.046476
v 0.040356 -0.100346 -0.060046
v 0.054488 -0.098274 -0.065551
v 0.068620 -0.099331 -0.059765
v 0.074474 -0.102898 -0.046079
v 0.068620 -0.106884 -0.032508
v 0.055503 -0.135238 -0.034286
v 0.041371 -0.134181 -0.040072
v 0.035517 -0.130614 -0.053758
v 0.041371 -0.126628 -0.067329
v 0.055503 -0.124557 -0.072833
v 0.069636 -0.125614 -0.067048
v 0.075490 -0.129180 -0.053361
v 0.069636 -0.133166 -0.039791
v 0.055503 -0.145720 -0.041327
v 0.041393 -0.141665 -0.045659
v 0.035548 -0.130716 -0.054619
v 0.041393 -0.119288 -0.062958
v 0.055503 -0.114074 -0.065792
v 0.069614 -0.118129 -0.061460
v 0.075459 -0.129078 -0.052500
v 0.069614 -0.140507 -0.044161
v 0.057562 -0.164477 -0.065590
v 0.043451 -0.160422 -0.069922
v 0.037607 -0.149473 -0.078882
v 0.043451 -0.138044 -0.087221
v 0.057562 -0.132831 -0.090054
v 0.071672 -0.136886 -0.085722
v 0.077517 -0.147834 -0.076762
v 0.071672 -0.159263 -0.068423
v 0.000000 -0.009373 0.017668
v -0.013524 -0.010281 0.010555
v -0.019126 -0.005167 -0.002741
v -0.013524 0.002974 -0.014431
v -0.000000 0.009373 -0.017668
v 0.013524 0.010281 -0.010555
v 0.019126 0.005167 0.002741
v 0.013524 -0.002974 0.014431
v 0.027492 -0.088784 -0.024460
v 0.013968 -0.089693 -0.031573
v 0.008366 -0.084578 -0.044869
v 0.013968 -0.076437 -0.056559
v 0.027492 -0.070039 -0.059796
v 0.041015 -0.069130 -0.052682
v 0.046617 -0.074244 -0.039387
v 0.041015 -0.082385 -0.027696
v 0.027492 -0.099344 -0.040492
v 0.013652 -0.093744 -0.043873
v 0.007920 -0.079748 -0.046231
v 0.013652 -0.065555 -0.046186
v 0.027492 -0.059478 -0.043763
v 0.041331 -0.065079 -0.040383
v 0.047063 -0.079075 -0.038024
v 0.041331 -0.093268 -0.038069
v 0.035916 -0.102620 -0.080404
v 0.022077 -0.097020 -0.083785
v 0.016345 -0.083023 -0.086144
v 0.022077 -0.068830 -0.086098
v 0.035916 -0.062754 -0.083676
v 0.049756 -0.068354 -0.080295
v 0.055488 -0.082350 -0.077937
v 0.049756 -0.096543 -0.077982
v 0.035916 -0.085741 -0.101806
v 0.021792 -0.085546 -0.095908
v 0.015941 -0.083676 -0.081887
v 0.021792 -0.081227 -0.067956
v 0.035916 -0.079633 -0.062275
v 0.050041 -0.079827 -0.068172
v 0.055891 -0.081697 -0.082193
v 0.050041 -0.084146 -0.096125
v 0.034525 -0.058309 -0.106044
v 0.020400 -0.058114 -0.100147
v 0.014550 -0.056245 -0.086126
v 0.020400 -0.053795 -0.072194
v 0.034525 -0.052201 -0.066513
v 0.048649 -0.052396 -0.072410
v 0.054500 -0.054265 -0.086432
v 0.048649 -0.056715 -0.100363
v 0.034525 -0.037628 -0.095729
v 0.020885 -0.044557 -0.096254
v 0.015236 -0.057752 -0.090936
v 0.020885 -0.069485 -0.082890
v 0.034525 -0.072882 -0.076829
v 0.048164 -0.065953 -0.076303
v 0.053814 -0.052758 -0.081621
v 0.048164 -0.041025 -0.089667
v 0.026785 -0.024281 -0.070832
v 0.013146 -0.031210 -0.071358
v 0.007496 -0.044405 -0.066040
v 0.013146 -0.056137 -0.057994
v 0.026785 -0.059534 -0.051933
v 0.040425 -0.052606 -0.051407
v 0.046074 -0.039411 -0.056725
v 0.040425 -0.027678 -0.064771
v 0.000000 -0.010616 0.016950
v -0.014075 -0.008675 0.011254
v -0.019905 -0.001652 -0.001035
v -0.014075 0.006338 -0.012717
v -0.000000 0.010616 -0.016950
v 0.014075 0.008675 -0.011254
v 0.019905 0.001652 0.001035
v 0.014075 -0.006338 0.012717
v 0.008963 -0.088169 -0.031621
v -0.005112 -0.086228 -0.037318
v -0.010942 -0.079206 -0.049606
v -0.005112 -0.071216 -0.061289
v 0.008963 -0.066938 -0.065522
v 0.023038 -0.068879 -0.059825
v 0.028868 -0.075901 -0.047537
v 0.023038 -0.083892 -0.035854
v 0.008963 -0.097435 -0.050751
v -0.004928 -0.091322 -0.052751
v -0.010681 -0.077145 -0.052303
v -0.004928 -0.063206 -0.049669
v 0.008963 -0.057673 -0.046392
v 0.022854 -0.063785 -0.044392
v 0.028608 -0.077963 -0.044840
v 0.022854 -0.091901 -0.047474
v 0.015993 -0.093425 -0.087322
v 0.002102 -0.087313 -0.089322
v -0.003652 -0.073136 -0.088874
v 0.002102 -0.059197 -0.086240
v 0.015993 -0.053664 -0.082964
v 0.029884 -0.059776 -0.080963
v 0.035638 -0.073954 -0.081412
v 0.029884 -0.087892 -0.084046
v 0.015993 -0.071421 -0.105030
v 0.001966 -0.070255 -0.099014
v -0.003845 -0.071016 -0.084873
v 0.001966 -0.073258 -0.070890
v 0.015993 -0.075668 -0.065256
v 0.030020 -0.076834 -0.071272
v 0.035831 -0.076073 -0.085413
v 0.030020 -0.073831 -0.099396
v 0.019306 -0.045720 -0.102286
v 0.005278 -0.044554 -0.096270
v -0.000532 -0.045315 -0.082129
v 0.005278 -0.047557 -0.068146
v 0.019306 -0.049966 -0.062512
v 0.033333 -0.051132 -0.068527
v 0.039143 -0.050371 -0.082669
v 0.033333 -0.048129 -0.096652
v 0.019306 -0.031540 -0.093984
v 0.005378 -0.037735 -0.092588
v -0.000392 -0.049851 -0.085224
v 0.005378 -0.060791 -0.076205
v 0.019306 -0.064146 -0.070814
v 0.033234 -0.057951 -0.072209
v 0.039003 -0.045835 -0.079573
v 0.033234 -0.034895 -0.088593
v 0.014412 -0.015431 -0.071314
v 0.000484 -0.021626 -0.069919
v -0.005285 -0.033742 -0.062555
v 0.000484 -0.044682 -0.053535
v 0.014412 -0.048037 -0.048144
v 0.028340 -0.041842 -0.049540
v 0.034109 -0.029726 -0.056904
v 0.028340 -0.018786 -0.065923
v 0.000000 -0.012646 0.015494
v -0.013993 -0.007353 0.012253
v -0.019788 0.002248 0.001835
v -0.013993 0.010532 -0.009659
v -0.000000 0.012646 -0.015494
v 0.013993 0.007353 -0.012253
v 0.019788 -0.002248 -0.001835
v 0.013993 -0.010532 0.009659
v -0.011723 -0.074581 -0.035056
v -0.025715 -0.069287 -0.038297
v -0.031511 -0.059687 -0.048716
v -0.025715 -0.051403 -0.060209
v -0.011723 -0.049288 -0.066045
v 0.002270 -0.054582 -0.062804
v 0.008066 -0.064183 -0.052385
v 0.002270 -0.072466 -0.040892
v -0.011723 -0.081385 -0.045893
v -0.025491 -0.076440 -0.050398
v -0.031195 -0.062998 -0.054992
v -0.025491 -0.048933 -0.056984
v -0.011723 -0.042484 -0.055208
v 0.002046 -0.047429 -0.050704
v 0.007749 -0.060871 -0.046110
v 0.002046 -0.074936 -0.044117
v -0.005514 -0.087550 -0.071640
v -0.019283 -0.082605 -0.076144
v -0.024986 -0.069163 -0.080738
v -0.019283 -0.055098 -0.082731
v -0.005514 -0.048650 -0.080955
v 0.008255 -0.053595 -0.076451
v 0.013958 -0.067036 -0.071856
v 0.008255 -0.081101 -0.069864
v -0.005514 -0.079606 -0.092657
v -0.018921 -0.072555 -0.090454
v -0.024475 -0.062894 -0.079958
v -0.018921 -0.056283 -0.067319
v -0.005514 -0.056594 -0.059938
v 0.007893 -0.063645 -0.062141
v 0.013447 -0.073305 -0.072636
v 0.007893 -0.079916 -0.085276
v 0.002109 -0.061029 -0.105722
v -0.011298 -0.053978 -0.103519
v -0.016852 -0.044317 -0.093024
v -0.011298 -0.037706 -0.080384
v 0.002109 -0.038017 -0.073004
v 0.015516 -0.045068 -0.075207
v 0.021069 -0.054728 -0.085702
v 0.015516 -0.061339 -0.098342
v 0.002109 -0.035217 -0.103339
v -0.011835 -0.037759 -0.097559
v -0.017611 -0.047192 -0.086977
v -0.011835 -0.057991 -0.077793
v 0.002109 -0.063829 -0.075387
v 0.016053 -0.061287 -0.081168
v 0.021829 -0.051854 -0.091749
v 0.016053 -0.041055 -0.100933
v 0.005187 -0.022497 -0.090319
v -0.008757 -0.025039 -0.084539
v -0.014533 -0.034473 -0.073957
v -0.008757 -0.045271 -0.064774
v 0.005187 -0.051110 -0.062367
v 0.019132 -0.048568 -0.068148
v 0.024907 -0.039134 -0.078729
v 0.019132 -0.028335 -0.087913
v -0.015000 -0.015000 -0.015000
v 0.015000 -0.015000 -0.015000
v 0.015000 0.015000 -0.015000
v -0.015000 0.015000 -0.015000
v -0.015000 -0.015000 0.015000
v 0.015000 -0.015000 0.015000
v 0.015000 0.015000 0.015000
v -0.015000 0.015000 0.015000
v 0.016587 -0.023626 -0.035040
v 0.046587 -0.023626 -0.035040
v 0.046587 0.006374 -0.035040
v 0.016587 0.006374 -0.035040
v 0.016587 -0.023626 -0.005040
v 0.046587 -0.023626 -0.005040
v 0.046587 0.006374 -0.005040
v 0.016587 0.006374 -0.005040
v 0.049808 -0.038756 -0.037592
v 0.079808 -0.038756 -0.037592
v 0.079808 -0.008756 -0.037592
v 0.049808 -0.008756 -0.037592
v 0.049808 -0.038756 -0.007592
v 0.079808 -0.038756 -0.007592
v 0.079808 -0.008756 -0.007592
v 0.049808 -0.008756 -0.007592
v 0.082835 -0.051789 -0.036260
v 0.112835 -0.051789 -0.036260
v 0.112835 -0.021789 -0.036260
v 0.082835 -0.021789 -0.036260
v 0.082835 -0.051789 -0.006260
v 0.112835 -0.051789 -0.006260
v 0.112835 -0.021789 -0.006260
v 0.082835 -0.021789 -0.006260
v 0.106235 -0.059309 -0.026460
v 0.136235 -0.059309 -0.026460
v 0.136235 -0.029309 -0.026460
v 0.106235 -0.029309 -0.026460
v 0.106235 -0.059309 0.003540
v 0.136235 -0.059309 0.003540
v 0.136235 -0.029309 0.003540
v 0.106235 -0.029309 0.003540
v 0.035254 -0.087373 -0.057266
v 0.065254 -0.087373 -0.057266
v 0.065254 -0.057373 -0.057266
v 0.035254 -0.057373 -0.057266
v 0.035254 -0.087373 -0.027266
v 0.065254 -0.087373 -0.027266
v 0.065254 -0.057373 -0.027266
v 0.035254 -0.057373 -0.027266
v 0.039488 -0.118615 -0.061277
v 0.069488 -0.118615 -0.061277
v 0.069488 -0.088615 -0.061277
v 0.039488 -0.088615 -0.061277
v 0.039488 -0.118615 -0.031277
v 0.069488 -0.118615 -0.031277
v 0.069488 -0.088615 -0.031277
v 0.039488 -0.088615 -0.031277
v 0.040503 -0.144897 -0.068560
v 0.070503 -0.144897 -0.068560
v 0.070503 -0.114897 -0.068560
v 0.040503 -0.114897 -0.068560
v 0.040503 -0.144897 -0.038560
v 0.070503 -0.144897 -0.038560
v 0.070503 -0.114897 -0.038560
v 0.040503 -0.114897 -0.038560
v 0.042562 -0.163654 -0.092822
v 0.072562 -0.163654 -0.092822
v 0.072562 -0.133654 -0.092822
v 0.042562 -0.133654 -0.092822
v 0.042562 -0.163654 -0.062822
v 0.072562 -0.163654 -0.062822
v 0.072562 -0.133654 -0.062822
v 0.042562 -0.133654 -0.062822
v 0.012492 -0.094411 -0.057128
v 0.042492 -0.094411 -0.057128
v 0.042492 -0.064411 -0.057128
v 0.012492 -0.064411 -0.057128
v 0.012492 -0.094411 -0.027128
v 0.042492 -0.094411 -0.027128
v 0.042492 -0.064411 -0.027128
v 0.012492 -0.064411 -0.027128
v 0.020916 -0.097687 -0.097040
v 0.050916 -0.097687 -0.097040
v 0.050916 -0.067687 -0.097040
v 0.020916 -0.067687 -0.097040
v 0.020916 -0.097687 -0.067040
v 0.050916 -0.097687 -0.067040
v 0.050916 -0.067687 -0.067040
v 0.020916 -0.067687 -0.067040
v 0.019525 -0.070255 -0.101279
v 0.049525 -0.070255 -0.101279
v 0.049525 -0.040255 -0.101279
v 0.019525 -0.040255 -0.101279
v 0.019525 -0.070255 -0.071279
v 0.049525 -0.070255 -0.071279
v 0.049525 -0.040255 -0.071279
v 0.019525 -0.040255 -0.071279
v 0.011785 -0.056908 -0.076382
v 0.041785 -0.056908 -0.076382
v 0.041785 -0.026908 -0.076382
v 0.011785 -0.026908 -0.076382
v 0.011785 -0.056908 -0.046382
v 0.041785 -0.056908 -0.046382
v 0.041785 -0.026908 -0.046382
v 0.011785 -0.026908 -0.046382
v -0.006037 -0.092554 -0.063571
v 0.023963 -0.092554 -0.063571
v 0.023963 -0.062554 -0.063571
v -0.006037 -0.062554 -0.063571
v -0.006037 -0.092554 -0.033571
v 0.023963 -0.092554 -0.033571
v 0.023963 -0.062554 -0.033571
v -0.006037 -0.062554 -0.033571
v 0.000993 -0.088545 -0.100143
v 0.030993 -0.088545 -0.100143
v 0.030993 -0.058545 -0.100143
v 0.000993 -0.058545 -0.100143
v 0.000993 -0.088545 -0.070143
v 0.030993 -0.088545 -0.070143
v 0.030993 -0.058545 -0.070143
v 0.000993 -0.058545 -0.070143
v 0.004306 -0.062843 -0.097399
v 0.034306 -0.062843 -0.097399
v 0.034306 -0.032843 -0.097399
v 0.004306 -0.032843 -0.097399
v 0.004306 -0.062843 -0.067399
v 0.034306 -0.062843 -0.067399
v 0.034306 -0.032843 -0.067399
v 0.004306 -0.032843 -0.067399
v -0.000588 -0.046734 -0.074729
v 0.029412 -0.046734 -0.074729
v 0.029412 -0.016734 -0.074729
v -0.000588 -0.016734 -0.074729
v -0.000588 -0.046734 -0.044729
v 0.029412 -0.046734 -0.044729
v 0.029412 -0.016734 -0.044729
v -0.000588 -0.016734 -0.044729
v -0.026723 -0.076935 -0.065551
v 0.003277 -0.076935 -0.065551
v 0.003277 -0.046935 -0.065551
v -0.026723 -0.046935 -0.065551
v -0.026723 -0.076935 -0.035551
v 0.003277 -0.076935 -0.035551
v 0.003277 -0.046935 -0.035551
v -0.026723 -0.046935 -0.035551
v -0.020514 -0.083100 -0.091297
v 0.009486 -0.083100 -0.091297
v 0.009486 -0.053100 -0.091297
v -0.020514 -0.053100 -0.091297
v -0.020514 -0.083100 -0.061297
v 0.009486 -0.083100 -0.061297
v 0.009486 -0.053100 -0.061297
v -0.020514 -0.053100 -0.061297
v -0.012891 -0.064523 -0.104363
v 0.017109 -0.064523 -0.104363
v 0.017109 -0.034523 -0.104363
v -0.012891 -0.034523 -0.104363
v -0.012891 -0.064523 -0.074363
v 0.017109 -0.064523 -0.074363
v 0.017109 -0.034523 -0.074363
v -0.012891 -0.034523 -0.074363
v -0.009813 -0.051803 -0.091343
v 0.020187 -0.051803 -0.091343
v 0.020187 -0.021803 -0.091343
v -0.009813 -0.021803 -0.091343
v -0.009813 -0.051803 -0.061343
v 0.020187 -0.051803 -0.061343
v 0.020187 -0.021803 -0.061343
v -0.009813 -0.021803 -0.061343
f 1 2 9
f 2 10 9
f 2 3 10
f 3 11 10
f 3 4 11
f 4 12 11
f 4 5 12
f 5 13 12
f 5 6 13
f 6 14 13
f 6 7 14
f 7 15 14
f 7 8 15
f 8 16 15
f 8 1 16
f 1 9 16
f 17 18 25
f 18 26 25
f 18 19 26
f 19 27 26
f 19 20 27
f 20 28 27
f 20 21 28
f 21 29 28
f 21 22 29
f 22 30 29
f 22 23 30
f 23 31 30
f 23 24 31
f 24 32 31
f 24 17 32
f 17 25 32
f 33 34 41
f 34 42 41
f 34 35 42
f 35 43 42
f 35 36 43
f 36 44 43
f 36 37 44
f 37 45 44
f 37 38 45
f 38 46 45
f 38 39 46
f 39 47 46
f 39 40 47
f 40 48 47
f 40 33 48
f 33 41 48
f 49 50 57
f 50 58 57
f 50 51 58
f 51 59 58
f 51 52 59
f 52 60 59
f 52 53 60
f 53 61 60
f 53 54 61
f 54 62 61
f 54 55 62
f 55 63 62
f 55 56 63
f 56 64 63
f 56 49 64
f 49 57 64
f 65 66 73
f 66 74 73
f 66 67 74
f 67 75 74
f 67 68 75
f 68 76 75
f 68 69 76
f 69 77 76
f 69 70 77
f 70 78 77
f 70 71 78
f 71 79 78
f 71 72 79
f 72 80 79
f 72 65 80
f 65 73 80
f 81 82 89
f 82 90 89
f 82 83 90
f 83 91 90
f 83 84 91
f 84 92 91
f 84 85 92
f 85 93 92
f 85 86 93
f 86 94 93
f 86 87 94
f 87 95 94
f 87 88 95
f 88 96 95
f 88 81 96
f 81 89 96
f 97 98 105
f 98 106 105
f 98 99 106
f 99 107 106
f 99 100 107
f 100 108 107
f 100 101 108
f 101 109 108
f 101 102 109
f 102 110 109
f 102 103 110
f 103 111 110
f 103 104 111
f 104 112 111
f 104 97 112
f 97 105 112
f 113 114 121
f 114 122 121
f 114 115 122
f 115 123 122
f 115 116 123
f 116 124 123
f 116 117 124
f 117 125 124
f 117 118 125
f 118 126 125
f 118 119 126
f 119 127 126
f 119 120 127
f 120 128 127
f 120 113 128
f 113 121 128
f 129 130 137
f 130 138 137
f 130 131 138
f 131 139 138
f 131 132 139
f 132 140 139
f 132 133 140
f 133 141 140
f 133 134 141
f 134 142 141
f 134 135 142
f 135 143 142
f 135 136 143
f 136 144 143
f 136 129 144
f 129 137 144
f 145 146 153
f 146 154 153
f 146 147 154
f 147 155 154
f 147 148 155
f 148 156 155
f 148 149 156
f 149 157 156
f 149 150 157
f 150 158 157
f 150 151 158
f 151 159 158
f 151 152 159
f 152 160 159
f 152 145 160
f 145 153 160
f 161 162 169
f 162 170 169
f 162 163 170
f 163 171 170
f 163 164 171
f 164 172 171
f 164 165 172
f 165 173 172
f 165 166 173
f 166 174 173
f 166 167 174
f 167 175 174
f 167 168 175
f 168 176 175
f 168 161 176
f 161 169 176
f 177 178 185
f 178 186 185
f 178 179 186
f 179 187 186
f 179 180 187
f 180 188 187
f 180 181 188
f 181 189 188
f 181 182 189
f 182 190 189
f 182 183 190
f 183 191 190
f 183 184 191
f 184 192 191
f 184 177 192
f 177 185 192
f 193 194 201
f 194 202 201
f 194 195 202
f 195 203 202
f 195 196 203
f 196 204 203
f 196 197 204
f 197 205 204
f 197 198 205
f 198 206 205
f 198 199 206
f 199 207 206
f 199 200 207
f 200 208 207
f 200 193 208
f 193 201 208
f 209 210 217
f 210 218 217
f 210 211 218
f 211 219 218
f 211 212 219
f 212 220 219
f 212 213 220
f 213 221 220
f 213 214 221
f 214 222 221
f 214 215 222
f 215 223 222
f 215 216 223
f 216 224 223
f 216 209 224
f 209 217 224
f 225 226 233
f 226 234 233
f 226 227 234
f 227 235 234
f 227 228 235
f 228 236 235
f 228 229 236
f 229 237 236
f 229 230 237
f 230 238 237
f 230 231 238
f 231 239 238
f 231 232 239
f 232 240 239
f 232 225 240
f 225 233 240
f 241 242 249
f 242 250 249
f 242 243 250
f 243 251 250
f 243 244 251
f 244 252 251
f 244 245 252
f 245 253 252
f 245 246 253
f 246 254 253
f 246 247 254
f 247 255 254
f 247 248 255
f 248 256 255
f 248 241 256
f 241 249 256
f 257 258 265
f 258 266 265
f 258 259 266
f 259 267 266
f 259 260 267
f 260 268 267
f 260 261 268
f 261 269 268
f 261 262 269
f 262 270 269
f 262 263 270
f 263 271 270
f 263 264 271
f 264 272 271
f 264 257 272
f 257 265 272
f 273 274 281
f 274 282 281
f 274 275 282
f 275 283 282
f 275 276 283
f 276 284 283
f 276 277 284
f 277 285 284
f 277 278 285
f 278 286 285
f 278 279 286
f 279 287 286
f 279 280 287
f 280 288 287
f 280 273 288
f 273 281 288
f 289 290 297
f 290 298 297
f 290 291 298
f 291 299 298
f 291 292 299
f 292 300 299
f 292 293 300
f 293 301 300
f 293 294 301
f 294 302 301
f 294 295 302
f 295 303 302
f 295 296 303
f 296 304 303
f 296 289 304
f 289 297 304
f 305 306 313
f 306 314 313
f 306 307 314
f 307 315 314
f 307 308 315
f 308 316 315
f 308 309 316
f 309 317 316
f 309 310 317
f 310 318 317
f 310 311 318
f 311 319 318
f 311 312 319
f 312 320 319
f 312 305 320
f 305 313 320
f 321 322 323
f 321 323 324
f 325 326 327
f 325 327 328
f 321 325 326
f 321 326 322
f 322 326 327
f 322 327 323
f 323 327 328
f 323 328 324
f 324 328 325
f 324 325 321
f 329 330 331
f 329 331 332
f 333 334 335
f 333 335 336
f 329 333 334
f 329 334 330
f 330 334 335
f 330 335 331
f 331 335 336
f 331 336 332
f 332 336 333
f 332 333 329
f 337 338 339
f 337 339 340
f 341 342 343
f 341 343 344
f 337 341 342
f 337 342 338
f 338 342 343
f 338 343 339
f 339 343 344
f 339 344 340
f 340 344 341
f 340 341 337
f 345 346 347
f 345 347 348
f 349 350 351
f 349 351 352
f 345 349 350
f 345 350 346
f 346 350 351
f 346 351 347
f 347 351 352
f 347 352 348
f 348 352 349
f 348 349 345
f 353 354 355
f 353 355 356
f 357 358 359
f 357 359 360
f 353 357 358
f 353 358 354
f 354 358 359
f 354 359 355
f 355 359 360
f 355 360 356
f 356 360 357
f 356 357 353
f 361 362 363
f 361 363 364
f 365 366 367
f 365 367 368
f 361 365 366
f 361 366 362
f 362 366 367
f 362 367 363
f 363 367 368
f 363 368 364
f 364 368 365
f 364 365 361
f 369 370 371
f 369 371 372
f 373 374 375
f 373 375 376
f 369 373 374
f 369 374 370
f 370 374 375
f 370 375 371
f 371 375 376
f 371 376 372
f 372 376 373
f 372 373 369
f 377 378 379
f 377 379 380
f 381 382 383
f 381 383 384
f 377 381 382
f 377 382 378
f 378 382 383
f 378 383 379
f 379 383 384
f 379 384 380
f 380 384 381
f 380 381 377
f 385 386 387
f 385 387 388
f 389 390 391
f 389 391 392
f 385 389 390
f 385 390 386
f 386 390 391
f 386 391 387
f 387 391 392
f 387 392 388
f 388 392 389
f 388 389 385
f 393 394 395
f 393 395 396
f 397 398 399
f 397 399 400
f 393 397 398
f 393 398 394
f 394 398 399
f 394 399 395
f 395 399 400
f 395 400 396
f 396 400 397
f 396 397 393
f 401 402 403
f 401 403 404
f 405 406 407
f 405 407 408
f 401 405 406
f 401 406 402
f 402 406 407
f 402 407 403
f 403 407 408
f 403 408 404
f 404 408 405
f 404 405 401
f 409 410 411
f 409 411 412
f 413 414 415
f 413 415 416
f 409 413 414
f 409 414 410
f 410 414 415
f 410 415 411
f 411 415 416
f 411 416 412
f 412 416 413
f 412 413 409
f 417 418 419
f 417 419 420
f 421 422 423
f 421 423 424
f 417 421 422
f 417 422 418
f 418 422 423
f 418 423 419
f 419 423 424
f 419 424 420
f 420 424 421
f 420 421 417
f 425 426 427
f 425 427 428
f 429 430 431
f 429 431 432
f 425 429 430
f 425 430 426
f 426 430 431
f 426 431 427
f 427 431 432
f 427 432 428
f 428 432 429
f 428 429 425
f 433 434 435
f 433 435 436
f 437 438 439
f 437 439 440
f 433 437 438
f 433 438 434
f 434 438 439
f 434 439 435
f 435 439 440
f 435 440 436
f 436 440 437
f 436 437 433
f 441 442 443
f 441 443 444
f 445 446 447
f 445 447 448
f 441 445 446
f 441 446 442
f 442 446 447
f 442 447 443
f 443 447 448
f 443 448 444
f 444 448 445
f 444 445 441
f 449 450 451
f 449 451 452
f 453 454 455
f 453 455 456
f 449 453 454
f 449 454 450
f 450 454 455
f 450 455 451
f 451 455 456
f 451 456 452
f 452 456 453
f 452 453 449
f 457 458 459
f 457 459 460
f 461 462 463
f 461 463 464
f 457 461 462
f 457 462 458
f 458 462 463
f 458 463 459
f 459 463 464
f 459 464 460
f 460 464 461
f 460 461 457
f 465 466 467
f 465 467 468
f 469 470 471
f 469 471 472
f 465 469 470
f 465 470 466
f 466 470 471
f 466 471 467
f 467 471 472
f 467 472 468
f 468 472 469
f 468 469 465
f 473 474 475
f 473 475 476
f 477 478 479
f 477 479 480
f 473 477 478
f 473 478 474
f 474 478 479
f 474 479 475
f 475 479 480
f 475 480 476
f 476 480 477
f 476 477 473
f 481 482 483
f 481 483 484
f 485 486 487
f 485 487 488
f 481 485 486
f 481 486 482
f 482 486 487
f 482 487 483
f 483 487 488
f 483 488 484
f 484 488 485
f 484 485 481
