# SignFlow 3D Hand Mesh - Frame 227
v 0.000000 0.004837 0.019406
v -0.009568 -0.006684 0.016241
v -0.013532 -0.014290 0.003562
v -0.009568 -0.013525 -0.011204
v -0.000000 -0.004837 -0.019406
v 0.009568 0.006684 -0.016241
v 0.013532 0.014290 -0.003562
v 0.009568 0.013525 0.011204
v 0.027813 -0.019960 0.025587
v 0.018245 -0.031481 0.022421
v 0.014282 -0.039087 0.009742
v 0.018245 -0.038322 -0.005023
v 0.027813 -0.029634 -0.013226
v 0.037382 -0.018113 -0.010060
v 0.041345 -0.010507 0.002619
v 0.037382 -0.011272 0.017384
v 0.027813 -0.023102 0.026109
v 0.017138 -0.032841 0.021058
v 0.012716 -0.037867 0.007292
v 0.017138 -0.035237 -0.007125
v 0.027813 -0.026492 -0.013747
v 0.038489 -0.016753 -0.008697
v 0.042911 -0.011727 0.005069
v 0.038489 -0.014357 0.019486
v 0.045829 -0.043764 0.027866
v 0.035153 -0.053502 0.022815
v 0.030731 -0.058528 0.009049
v 0.035153 -0.055898 -0.005368
v 0.045829 -0.047153 -0.011991
v 0.056504 -0.037415 -0.006940
v 0.060926 -0.032388 0.006826
v 0.056504 -0.035018 0.021243
v 0.045829 -0.052685 0.026586
v 0.033550 -0.057112 0.018588
v 0.028465 -0.054712 0.004351
v 0.033550 -0.046891 -0.007785
v 0.045829 -0.038231 -0.010711
v 0.058107 -0.033805 -0.002713
v 0.063193 -0.036205 0.011524
v 0.058107 -0.044025 0.023660
v 0.059746 -0.075391 0.017786
v 0.047468 -0.079818 0.009789
v 0.042382 -0.077417 -0.004448
v 0.047468 -0.069597 -0.016584
v 0.059746 -0.060937 -0.019511
v 0.072024 -0.056510 -0.011513
v 0.077110 -0.058911 0.002724
v 0.072024 -0.066731 0.014860
v 0.059746 -0.072262 0.018713
v 0.046282 -0.075296 0.012094
v 0.040705 -0.074152 -0.002116
v 0.046282 -0.069500 -0.015591
v 0.059746 -0.064066 -0.020438
v 0.073211 -0.061032 -0.013818
v 0.078788 -0.062176 0.000391
v 0.073211 -0.066828 0.013866
v 0.066092 -0.091596 0.014666
v 0.052628 -0.094630 0.008046
v 0.047051 -0.093486 -0.006163
v 0.052628 -0.088834 -0.019638
v 0.066092 -0.083400 -0.024485
v 0.079557 -0.080366 -0.017865
v 0.085134 -0.081510 -0.003656
v 0.079557 -0.086162 0.009819
v 0.000000 -0.003138 0.019752
v -0.012444 -0.008855 0.012913
v -0.017599 -0.009384 -0.001491
v -0.012444 -0.004417 -0.015021
v -0.000000 0.003138 -0.019752
v 0.012444 0.008855 -0.012913
v 0.017599 0.009384 0.001491
v 0.012444 0.004417 0.015021
v 0.044243 -0.084064 0.006896
v 0.031798 -0.089781 0.000056
v 0.026644 -0.090310 -0.014347
v 0.031798 -0.085343 -0.027878
v 0.044243 -0.077788 -0.032609
v 0.056687 -0.072071 -0.025769
v 0.061841 -0.071542 -0.011366
v 0.056687 -0.076509 0.002165
v 0.044243 -0.088373 0.005706
v 0.031067 -0.090961 -0.001645
v 0.025610 -0.087672 -0.015563
v 0.031067 -0.080430 -0.027895
v 0.044243 -0.073479 -0.031418
v 0.057418 -0.070891 -0.024068
v 0.062875 -0.074180 -0.010150
v 0.057418 -0.081422 0.002182
v 0.053892 -0.111332 -0.003505
v 0.040717 -0.113921 -0.010855
v 0.035260 -0.110631 -0.024773
v 0.040717 -0.103390 -0.037106
v 0.053892 -0.096439 -0.040629
v 0.067068 -0.093850 -0.033279
v 0.072525 -0.097140 -0.019361
v 0.067068 -0.104381 -0.007028
v 0.053892 -0.108861 -0.002696
v 0.040025 -0.110093 -0.009060
v 0.034282 -0.107689 -0.023044
v 0.040025 -0.103056 -0.036455
v 0.053892 -0.098910 -0.041438
v 0.067759 -0.097678 -0.035074
v 0.073503 -0.100082 -0.021090
v 0.067759 -0.104714 -0.007679
v 0.057559 -0.126594 -0.007251
v 0.043692 -0.127826 -0.013615
v 0.037948 -0.125422 -0.027599
v 0.043692 -0.120789 -0.041010
v 0.057559 -0.116643 -0.045993
v 0.071425 -0.115410 -0.039629
v 0.077169 -0.117815 -0.025645
v 0.071425 -0.122447 -0.012234
v 0.057559 -0.137446 -0.014396
v 0.043416 -0.132778 -0.017935
v 0.037559 -0.121572 -0.026562
v 0.043416 -0.110394 -0.035225
v 0.057559 -0.105790 -0.038848
v 0.071701 -0.110459 -0.035309
v 0.077558 -0.121664 -0.026681
v 0.071701 -0.132843 -0.018019
v 0.057471 -0.151735 -0.032895
v 0.043328 -0.147067 -0.036433
v 0.037471 -0.135861 -0.045061
v 0.043328 -0.124683 -0.053724
v 0.057471 -0.120079 -0.057347
v 0.071613 -0.124748 -0.053808
v 0.077470 -0.135953 -0.045180
v 0.071613 -0.147132 -0.036518
v 0.000000 -0.006748 0.018827
v -0.013161 -0.009644 0.011566
v -0.018612 -0.006891 -0.002470
v -0.013161 -0.000101 -0.015059
v -0.000000 0.006748 -0.018827
v 0.013161 0.009644 -0.011566
v 0.018612 0.006891 0.002470
v 0.013161 0.000101 0.015059
v 0.033487 -0.086901 -0.009903
v 0.020326 -0.089797 -0.017164
v 0.014875 -0.087043 -0.031200
v 0.020326 -0.080253 -0.043789
v 0.033487 -0.073404 -0.047557
v 0.046648 -0.070508 -0.040296
v 0.052099 -0.073262 -0.026260
v 0.046648 -0.080052 -0.013671
v 0.033487 -0.090595 -0.011673
v 0.020688 -0.092668 -0.019810
v 0.015387 -0.087409 -0.033172
v 0.020688 -0.077899 -0.043933
v 0.033487 -0.069710 -0.045787
v 0.046286 -0.067638 -0.037650
v 0.051587 -0.072896 -0.024288
v 0.046286 -0.082406 -0.013528
v 0.048005 -0.116938 -0.027800
v 0.035207 -0.119010 -0.035938
v 0.029905 -0.113751 -0.049300
v 0.035207 -0.104242 -0.060060
v 0.048005 -0.096052 -0.061915
v 0.060804 -0.093980 -0.053778
v 0.066106 -0.099239 -0.040415
v 0.060804 -0.108748 -0.029655
v 0.048005 -0.119829 -0.029952
v 0.034262 -0.118409 -0.036541
v 0.028569 -0.110010 -0.048002
v 0.034262 -0.099551 -0.057621
v 0.048005 -0.093160 -0.059764
v 0.061749 -0.094581 -0.053175
v 0.067442 -0.102980 -0.041714
v 0.061749 -0.113439 -0.032094
v 0.053287 -0.136052 -0.044464
v 0.039543 -0.134632 -0.051053
v 0.033851 -0.126233 -0.062514
v 0.039543 -0.115774 -0.072134
v 0.053287 -0.109383 -0.074276
v 0.067030 -0.110804 -0.067687
v 0.072723 -0.119203 -0.056226
v 0.067030 -0.129662 -0.046607
v 0.053287 -0.130530 -0.040959
v 0.039290 -0.130102 -0.047141
v 0.033492 -0.125349 -0.060487
v 0.039290 -0.119054 -0.073178
v 0.053287 -0.114906 -0.077781
v 0.067284 -0.115334 -0.071599
v 0.073081 -0.120087 -0.058254
v 0.067284 -0.126382 -0.045562
v 0.056726 -0.152462 -0.050265
v 0.042729 -0.152034 -0.056447
v 0.036932 -0.147281 -0.069793
v 0.042729 -0.140986 -0.082484
v 0.056726 -0.136837 -0.087088
v 0.070723 -0.137265 -0.080906
v 0.076521 -0.142019 -0.067560
v 0.070723 -0.148314 -0.054868
v 0.000000 -0.011113 0.016628
v -0.013579 -0.011143 0.009562
v -0.019203 -0.004646 -0.003105
v -0.013579 0.004573 -0.013954
v -0.000000 0.011113 -0.016628
v 0.013579 0.011143 -0.009562
v 0.019203 0.004646 0.003105
v 0.013579 -0.004573 0.013954
v 0.025399 -0.083683 -0.031872
v 0.011820 -0.083713 -0.038938
v 0.006196 -0.077216 -0.051605
v 0.011820 -0.067997 -0.062454
v 0.025399 -0.061457 -0.065128
v 0.038978 -0.061427 -0.058063
v 0.044603 -0.067924 -0.045395
v 0.038978 -0.077143 -0.034547
v 0.025399 -0.084818 -0.032689
v 0.012988 -0.086590 -0.041471
v 0.007847 -0.080149 -0.054371
v 0.012988 -0.069268 -0.063832
v 0.025399 -0.060322 -0.064311
v 0.037811 -0.058551 -0.055529
v 0.042952 -0.064991 -0.042629
v 0.037811 -0.075872 -0.033169
v 0.038308 -0.103504 -0.047164
v 0.025897 -0.105275 -0.055946
v 0.020756 -0.098834 -0.068845
v 0.025897 -0.087954 -0.078306
v 0.038308 -0.079008 -0.078786
v 0.050720 -0.077236 -0.070004
v 0.055861 -0.083677 -0.057104
v 0.050720 -0.094557 -0.047643
v 0.038308 -0.101551 -0.045828
v 0.024684 -0.101785 -0.052801
v 0.019040 -0.095851 -0.065734
v 0.024684 -0.087225 -0.077050
v 0.038308 -0.080960 -0.080121
v 0.051933 -0.080726 -0.073148
v 0.057577 -0.086660 -0.060215
v 0.051933 -0.095286 -0.048899
v 0.044686 -0.121204 -0.057629
v 0.031061 -0.121439 -0.064602
v 0.025417 -0.115505 -0.077535
v 0.031061 -0.106879 -0.088851
v 0.044686 -0.100614 -0.091922
v 0.058310 -0.100380 -0.084949
v 0.063954 -0.106314 -0.072016
v 0.058310 -0.114940 -0.060700
v 0.044686 -0.120622 -0.057292
v 0.030817 -0.120196 -0.063756
v 0.025072 -0.114330 -0.076676
v 0.030817 -0.106460 -0.088482
v 0.044686 -0.101197 -0.092259
v 0.058554 -0.101622 -0.085794
v 0.064299 -0.107488 -0.072875
v 0.058554 -0.115358 -0.061069
v 0.048793 -0.138616 -0.067288
v 0.034924 -0.138190 -0.073752
v 0.029179 -0.132324 -0.086672
v 0.034924 -0.124454 -0.098478
v 0.048793 -0.119191 -0.102255
v 0.062661 -0.119616 -0.095790
v 0.068406 -0.125482 -0.082871
v 0.062661 -0.133352 -0.071065
v 0.000000 -0.014658 0.013606
v -0.013869 -0.012245 0.007595
v -0.019614 -0.002659 -0.002865
v -0.013869 0.008485 -0.011647
v -0.000000 0.014658 -0.013606
v 0.013869 0.012245 -0.007595
v 0.019614 0.002659 0.002865
v 0.013869 -0.008485 0.011647
v 0.015827 -0.068689 -0.044601
v 0.001958 -0.066276 -0.050612
v -0.003787 -0.056690 -0.061073
v 0.001958 -0.045546 -0.069855
v 0.015827 -0.039372 -0.071814
v 0.029697 -0.041785 -0.065803
v 0.035441 -0.051371 -0.055343
v 0.029697 -0.062515 -0.046561
v 0.015827 -0.067238 -0.043189
v 0.002282 -0.066422 -0.050272
v -0.003329 -0.058348 -0.062004
v 0.002282 -0.047744 -0.071512
v 0.015827 -0.040823 -0.073227
v 0.029372 -0.041639 -0.066143
v 0.034983 -0.049714 -0.054411
v 0.029372 -0.060317 -0.044903
v 0.021615 -0.081721 -0.055925
v 0.008070 -0.080906 -0.063009
v 0.002460 -0.072831 -0.074741
v 0.008070 -0.062228 -0.084249
v 0.021615 -0.055306 -0.085963
v 0.035161 -0.056122 -0.078880
v 0.040771 -0.064197 -0.067148
v 0.035161 -0.074800 -0.057640
v 0.021615 -0.080747 -0.055122
v 0.007495 -0.077788 -0.060238
v 0.001647 -0.069396 -0.071626
v 0.007495 -0.060487 -0.082614
v 0.021615 -0.056281 -0.086766
v 0.035736 -0.059240 -0.081650
v 0.041584 -0.067632 -0.070262
v 0.035736 -0.076541 -0.059274
v 0.022794 -0.097449 -0.068035
v 0.008674 -0.094490 -0.073152
v 0.002825 -0.086098 -0.084540
v 0.008674 -0.077189 -0.095528
v 0.022794 -0.072983 -0.099680
v 0.036914 -0.075942 -0.094564
v 0.042763 -0.084334 -0.083176
v 0.036914 -0.093243 -0.072188
v 0.022794 -0.095679 -0.066813
v 0.008777 -0.091013 -0.070822
v 0.002971 -0.082951 -0.082467
v 0.008777 -0.076216 -0.094927
v 0.022794 -0.074753 -0.100903
v 0.036811 -0.079420 -0.096894
v 0.042616 -0.087481 -0.085248
v 0.036811 -0.094216 -0.072788
v 0.020042 -0.113169 -0.077549
v 0.006025 -0.108503 -0.081558
v 0.000220 -0.100441 -0.093203
v 0.006025 -0.093706 -0.105663
v 0.020042 -0.092243 -0.111639
v 0.034059 -0.096909 -0.107629
v 0.039865 -0.104971 -0.095984
v 0.034059 -0.111706 -0.083524
v -0.015000 -0.015000 -0.015000
v 0.015000 -0.015000 -0.015000
v 0.015000 0.015000 -0.015000
v -0.015000 0.015000 -0.015000
v -0.015000 -0.015000 0.015000
v 0.015000 -0.015000 0.015000
v 0.015000 0.015000 0.015000
v -0.015000 0.015000 0.015000
v 0.012813 -0.039797 -0.008819
v 0.042813 -0.039797 -0.008819
v 0.042813 -0.009797 -0.008819
v 0.012813 -0.009797 -0.008819
v 0.012813 -0.039797 0.021181
v 0.042813 -0.039797 0.021181
v 0.042813 -0.009797 0.021181
v 0.012813 -0.009797 0.021181
v 0.030829 -0.060458 -0.007063
v 0.060829 -0.060458 -0.007063
v 0.060829 -0.030458 -0.007063
v 0.030829 -0.030458 -0.007063
v 0.030829 -0.060458 0.022937
v 0.060829 -0.060458 0.022937
v 0.060829 -0.030458 0.022937
v 0.030829 -0.030458 0.022937
v 0.044746 -0.083164 -0.015862
v 0.074746 -0.083164 -0.015862
v 0.074746 -0.053164 -0.015862
v 0.044746 -0.053164 -0.015862
v 0.044746 -0.083164 0.014138
v 0.074746 -0.083164 0.014138
v 0.074746 -0.053164 0.014138
v 0.044746 -0.053164 0.014138
v 0.051092 -0.102498 -0.019910
v 0.081092 -0.102498 -0.019910
v 0.081092 -0.072498 -0.019910
v 0.051092 -0.072498 -0.019910
v 0.051092 -0.102498 0.010090
v 0.081092 -0.102498 0.010090
v 0.081092 -0.072498 0.010090
v 0.051092 -0.072498 0.010090
v 0.029243 -0.095926 -0.027856
v 0.059243 -0.095926 -0.027856
v 0.059243 -0.065926 -0.027856
v 0.029243 -0.065926 -0.027856
v 0.029243 -0.095926 0.002144
v 0.059243 -0.095926 0.002144
v 0.059243 -0.065926 0.002144
v 0.029243 -0.065926 0.002144
v 0.038892 -0.118885 -0.037067
v 0.068892 -0.118885 -0.037067
v 0.068892 -0.088885 -0.037067
v 0.038892 -0.088885 -0.037067
v 0.038892 -0.118885 -0.007067
v 0.068892 -0.118885 -0.007067
v 0.068892 -0.088885 -0.007067
v 0.038892 -0.088885 -0.007067
v 0.042559 -0.136618 -0.041622
v 0.072558 -0.136618 -0.041622
v 0.072558 -0.106618 -0.041622
v 0.042559 -0.106618 -0.041622
v 0.042559 -0.136618 -0.011622
v 0.072558 -0.136618 -0.011622
v 0.072558 -0.106618 -0.011622
v 0.042559 -0.106618 -0.011622
v 0.042470 -0.150907 -0.060121
v 0.072471 -0.150907 -0.060121
v 0.072471 -0.120907 -0.060121
v 0.042470 -0.120907 -0.060121
v 0.042470 -0.150907 -0.030121
v 0.072471 -0.150907 -0.030121
v 0.072471 -0.120907 -0.030121
v 0.042470 -0.120907 -0.030121
v 0.018487 -0.095153 -0.043730
v 0.048487 -0.095153 -0.043730
v 0.048487 -0.065153 -0.043730
v 0.018487 -0.065153 -0.043730
v 0.018487 -0.095153 -0.013730
v 0.048487 -0.095153 -0.013730
v 0.048487 -0.065153 -0.013730
v 0.018487 -0.065153 -0.013730
v 0.033005 -0.121495 -0.059858
v 0.063005 -0.121495 -0.059858
v 0.063005 -0.091495 -0.059858
v 0.033005 -0.091495 -0.059858
v 0.033005 -0.121495 -0.029858
v 0.063005 -0.121495 -0.029858
v 0.063005 -0.091495 -0.029858
v 0.033005 -0.091495 -0.029858
v 0.038287 -0.137718 -0.074370
v 0.068287 -0.137718 -0.074370
v 0.068287 -0.107718 -0.074370
v 0.038287 -0.107718 -0.074370
v 0.038287 -0.137718 -0.044370
v 0.068287 -0.137718 -0.044370
v 0.068287 -0.107718 -0.044370
v 0.038287 -0.107718 -0.044370
v 0.041726 -0.159650 -0.083676
v 0.071726 -0.159650 -0.083676
v 0.071726 -0.129650 -0.083676
v 0.041726 -0.129650 -0.083676
v 0.041726 -0.159650 -0.053676
v 0.071726 -0.159650 -0.053676
v 0.071726 -0.129650 -0.053676
v 0.041726 -0.129650 -0.053676
v 0.010399 -0.087570 -0.063500
v 0.040399 -0.087570 -0.063500
v 0.040399 -0.057570 -0.063500
v 0.010399 -0.057570 -0.063500
v 0.010399 -0.087570 -0.033500
v 0.040399 -0.087570 -0.033500
v 0.040399 -0.057570 -0.033500
v 0.010399 -0.057570 -0.033500
v 0.023308 -0.106256 -0.077975
v 0.053308 -0.106256 -0.077975
v 0.053308 -0.076256 -0.077975
v 0.023308 -0.076256 -0.077975
v 0.023308 -0.106256 -0.047975
v 0.053308 -0.106256 -0.047975
v 0.053308 -0.076256 -0.047975
v 0.023308 -0.076256 -0.047975
v 0.029686 -0.125909 -0.089775
v 0.059686 -0.125909 -0.089775
v 0.059686 -0.095909 -0.089775
v 0.029686 -0.095909 -0.089775
v 0.029686 -0.125909 -0.059775
v 0.059686 -0.125909 -0.059775
v 0.059686 -0.095909 -0.059775
v 0.029686 -0.095909 -0.059775
v 0.033793 -0.143903 -0.099771
v 0.063793 -0.143903 -0.099771
v 0.063793 -0.113903 -0.099771
v 0.033793 -0.113903 -0.099771
v 0.033793 -0.143903 -0.069771
v 0.063793 -0.143903 -0.069771
v 0.063793 -0.113903 -0.069771
v 0.033793 -0.113903 -0.069771
v 0.000827 -0.069031 -0.073208
v 0.030827 -0.069031 -0.073208
v 0.030827 -0.039031 -0.073208
v 0.000827 -0.039031 -0.073208
v 0.000827 -0.069031 -0.043208
v 0.030827 -0.069031 -0.043208
v 0.030827 -0.039031 -0.043208
v 0.000827 -0.039031 -0.043208
v 0.006615 -0.083514 -0.085944
v 0.036615 -0.083514 -0.085944
v 0.036615 -0.053514 -0.085944
v 0.006615 -0.053514 -0.085944
v 0.006615 -0.083514 -0.055944
v 0.036615 -0.083514 -0.055944
v 0.036615 -0.053514 -0.055944
v 0.006615 -0.053514 -0.055944
v 0.007794 -0.100216 -0.098858
v 0.037794 -0.100216 -0.098858
v 0.037794 -0.070216 -0.098858
v 0.007794 -0.070216 -0.098858
v 0.007794 -0.100216 -0.068858
v 0.037794 -0.100216 -0.068858
v 0.037794 -0.070216 -0.068858
v 0.007794 -0.070216 -0.068858
v 0.005042 -0.117706 -0.109594
v 0.035042 -0.117706 -0.109594
v 0.035042 -0.087706 -0.109594
v 0.005042 -0.087706 -0.109594
v 0.005042 -0.117706 -0.079594
v 0.035042 -0.117706 -0.079594
v 0.035042 -0.087706 -0.079594
v 0.005042 -0.087706 -0.079594
f 1 2 9
f 2 10 9
f 2 3 10
f 3 11 10
f 3 4 11
f 4 12 11
f 4 5 12
f 5 13 12
f 5 6 13
f 6 14 13
f 6 7 14
f 7 15 14
f 7 8 15
f 8 16 15
f 8 1 16
f 1 9 16
f 17 18 25
f 18 26 25
f 18 19 26
f 19 27 26
f 19 20 27
f 20 28 27
f 20 21 28
f 21 29 28
f 21 22 29
f 22 30 29
f 22 23 30
f 23 31 30
f 23 24 31
f 24 32 31
f 24 17 32
f 17 25 32
f 33 34 41
f 34 42 41
f 34 35 42
f 35 43 42
f 35 36 43
f 36 44 43
f 36 37 44
f 37 45 44
f 37 38 45
f 38 46 45
f 38 39 46
f 39 47 46
f 39 40 47
f 40 48 47
f 40 33 48
f 33 41 48
f 49 50 57
f 50 58 57
f 50 51 58
f 51 59 58
f 51 52 59
f 52 60 59
f 52 53 60
f 53 61 60
f 53 54 61
f 54 62 61
f 54 55 62
f 55 63 62
f 55 56 63
f 56 64 63
f 56 49 64
f 49 57 64
f 65 66 73
f 66 74 73
f 66 67 74
f 67 75 74
f 67 68 75
f 68 76 75
f 68 69 76
f 69 77 76
f 69 70 77
f 70 78 77
f 70 71 78
f 71 79 78
f 71 72 79
f 72 80 79
f 72 65 80
f 65 73 80
f 81 82 89
f 82 90 89
f 82 83 90
f 83 91 90
f 83 84 91
f 84 92 91
f 84 85 92
f 85 93 92
f 85 86 93
f 86 94 93
f 86 87 94
f 87 95 94
f 87 88 95
f 88 96 95
f 88 81 96
f 81 89 96
f 97 98 105
f 98 106 105
f 98 99 106
f 99 107 106
f 99 100 107
f 100 108 107
f 100 101 108
f 101 109 108
f 101 102 109
f 102 110 109
f 102 103 110
f 103 111 110
f 103 104 111
f 104 112 111
f 104 97 112
f 97 105 112
f 113 114 121
f 114 122 121
f 114 115 122
f 115 123 122
f 115 116 123
f 116 124 123
f 116 117 124
f 117 125 124
f 117 118 125
f 118 126 125
f 118 119 126
f 119 127 126
f 119 120 127
f 120 128 127
f 120 113 128
f 113 121 128
f 129 130 137
f 130 138 137
f 130 131 138
f 131 139 138
f 131 132 139
f 132 140 139
f 132 133 140
f 133 141 140
f 133 134 141
f 134 142 141
f 134 135 142
f 135 143 142
f 135 136 143
f 136 144 143
f 136 129 144
f 129 137 144
f 145 146 153
f 146 154 153
f 146 147 154
f 147 155 154
f 147 148 155
f 148 156 155
f 148 149 156
f 149 157 156
f 149 150 157
f 150 158 157
f 150 151 158
f 151 159 158
f 151 152 159
f 152 160 159
f 152 145 160
f 145 153 160
f 161 162 169
f 162 170 169
f 162 163 170
f 163 171 170
f 163 164 171
f 164 172 171
f 164 165 172
f 165 173 172
f 165 166 173
f 166 174 173
f 166 167 174
f 167 175 174
f 167 168 175
f 168 176 175
f 168 161 176
f 161 169 176
f 177 178 185
f 178 186 185
f 178 179 186
f 179 187 186
f 179 180 187
f 180 188 187
f 180 181 188
f 181 189 188
f 181 182 189
f 182 190 189
f 182 183 190
f 183 191 190
f 183 184 191
f 184 192 191
f 184 177 192
f 177 185 192
f 193 194 201
f 194 202 201
f 194 195 202
f 195 203 202
f 195 196 203
f 196 204 203
f 196 197 204
f 197 205 204
f 197 198 205
f 198 206 205
f 198 199 206
f 199 207 206
f 199 200 207
f 200 208 207
f 200 193 208
f 193 201 208
f 209 210 217
f 210 218 217
f 210 211 218
f 211 219 218
f 211 212 219
f 212 220 219
f 212 213 220
f 213 221 220
f 213 214 221
f 214 222 221
f 214 215 222
f 215 223 222
f 215 216 223
f 216 224 223
f 216 209 224
f 209 217 224
f 225 226 233
f 226 234 233
f 226 227 234
f 227 235 234
f 227 228 235
f 228 236 235
f 228 229 236
f 229 237 236
f 229 230 237
f 230 238 237
f 230 231 238
f 231 239 238
f 231 232 239
f 232 240 239
f 232 225 240
f 225 233 240
f 241 242 249
f 242 250 249
f 242 243 250
f 243 251 250
f 243 244 251
f 244 252 251
f 244 245 252
f 245 253 252
f 245 246 253
f 246 254 253
f 246 247 254
f 247 255 254
f 247 248 255
f 248 256 255
f 248 241 256
f 241 249 256
f 257 258 265
f 258 266 265
f 258 259 266
f 259 267 266
f 259 260 267
f 260 268 267
f 260 261 268
f 261 269 268
f 261 262 269
f 262 270 269
f 262 263 270
f 263 271 270
f 263 264 271
f 264 272 271
f 264 257 272
f 257 265 272
f 273 274 281
f 274 282 281
f 274 275 282
f 275 283 282
f 275 276 283
f 276 284 283
f 276 277 284
f 277 285 284
f 277 278 285
f 278 286 285
f 278 279 286
f 279 287 286
f 279 280 287
f 280 288 287
f 280 273 288
f 273 281 288
f 289 290 297
f 290 298 297
f 290 291 298
f 291 299 298
f 291 292 299
f 292 300 299
f 292 293 300
f 293 301 300
f 293 294 301
f 294 302 301
f 294 295 302
f 295 303 302
f 295 296 303
f 296 304 303
f 296 289 304
f 289 297 304
f 305 306 313
f 306 314 313
f 306 307 314
f 307 315 314
f 307 308 315
f 308 316 315
f 308 309 316
f 309 317 316
f 309 310 317
f 310 318 317
f 310 311 318
f 311 319 318
f 311 312 319
f 312 320 319
f 312 305 320
f 305 313 320
f 321 322 323
f 321 323 324
f 325 326 327
f 325 327 328
f 321 325 326
f 321 326 322
f 322 326 327
f 322 327 323
f 323 327 328
f 323 328 324
f 324 328 325
f 324 325 321
f 329 330 331
f 329 331 332
f 333 334 335
f 333 335 336
f 329 333 334
f 329 334 330
f 330 334 335
f 330 335 331
f 331 335 336
f 331 336 332
f 332 336 333
f 332 333 329
f 337 338 339
f 337 339 340
f 341 342 343
f 341 343 344
f 337 341 342
f 337 342 338
f 338 342 343
f 338 343 339
f 339 343 344
f 339 344 340
f 340 344 341
f 340 341 337
f 345 346 347
f 345 347 348
f 349 350 351
f 349 351 352
f 345 349 350
f 345 350 346
f 346 350 351
f 346 351 347
f 347 351 352
f 347 352 348
f 348 352 349
f 348 349 345
f 353 354 355
f 353 355 356
f 357 358 359
f 357 359 360
f 353 357 358
f 353 358 354
f 354 358 359
f 354 359 355
f 355 359 360
f 355 360 356
f 356 360 357
f 356 357 353
f 361 362 363
f 361 363 364
f 365 366 367
f 365 367 368
f 361 365 366
f 361 366 362
f 362 366 367
f 362 367 363
f 363 367 368
f 363 368 364
f 364 368 365
f 364 365 361
f 369 370 371
f 369 371 372
f 373 374 375
f 373 375 376
f 369 373 374
f 369 374 370
f 370 374 375
f 370 375 371
f 371 375 376
f 371 376 372
f 372 376 373
f 372 373 369
f 377 378 379
f 377 379 380
f 381 382 383
f 381 383 384
f 377 381 382
f 377 382 378
f 378 382 383
f 378 383 379
f 379 383 384
f 379 384 380
f 380 384 381
f 380 381 377
f 385 386 387
f 385 387 388
f 389 390 391
f 389 391 392
f 385 389 390
f 385 390 386
f 386 390 391
f 386 391 387
f 387 391 392
f 387 392 388
f 388 392 389
f 388 389 385
f 393 394 395
f 393 395 396
f 397 398 399
f 397 399 400
f 393 397 398
f 393 398 394
f 394 398 399
f 394 399 395
f 395 399 400
f 395 400 396
f 396 400 397
f 396 397 393
f 401 402 403
f 401 403 404
f 405 406 407
f 405 407 408
f 401 405 406
f 401 406 402
f 402 406 407
f 402 407 403
f 403 407 408
f 403 408 404
f 404 408 405
f 404 405 401
f 409 410 411
f 409 411 412
f 413 414 415
f 413 415 416
f 409 413 414
f 409 414 410
f 410 414 415
f 410 415 411
f 411 415 416
f 411 416 412
f 412 416 413
f 412 413 409
f 417 418 419
f 417 419 420
f 421 422 423
f 421 423 424
f 417 421 422
f 417 422 418
f 418 422 423
f 418 423 419
f 419 423 424
f 419 424 420
f 420 424 421
f 420 421 417
f 425 426 427
f 425 427 428
f 429 430 431
f 429 431 432
f 425 429 430
f 425 430 426
f 426 430 431
f 426 431 427
f 427 431 432
f 427 432 428
f 428 432 429
f 428 429 425
f 433 434 435
f 433 435 436
f 437 438 439
f 437 439 440
f 433 437 438
f 433 438 434
f 434 438 439
f 434 439 435
f 435 439 440
f 435 440 436
f 436 440 437
f 436 437 433
f 441 442 443
f 441 443 444
f 445 446 447
f 445 447 448
f 441 445 446
f 441 446 442
f 442 446 447
f 442 447 443
f 443 447 448
f 443 448 444
f 444 448 445
f 444 445 441
f 449 450 451
f 449 451 452
f 453 454 455
f 453 455 456
f 449 453 454
f 449 454 450
f 450 454 455
f 450 455 451
f 451 455 456
f 451 456 452
f 452 456 453
f 452 453 449
f 457 458 459
f 457 459 460
f 461 462 463
f 461 463 464
f 457 461 462
f 457 462 458
f 458 462 463
f 458 463 459
f 459 463 464
f 459 464 460
f 460 464 461
f 460 461 457
f 465 466 467
f 465 467 468
f 469 470 471
f 469 471 472
f 465 469 470
f 465 470 466
f 466 470 471
f 466 471 467
f 467 471 472
f 467 472 468
f 468 472 469
f 468 469 465
f 473 474 475
f 473 475 476
f 477 478 479
f 477 479 480
f 473 477 478
f 473 478 474
f 474 478 479
f 474 479 475
f 475 479 480
f 475 480 476
f 476 480 477
f 476 477 473
f 481 482 483
f 481 483 484
f 485 486 487
f 485 487 488
f 481 485 486
f 481 486 482
f 482 486 487
f 482 487 483
f 483 487 488
f 483 488 484
f 484 488 485
f 484 485 481
