# SignFlow 3D Hand Mesh - Frame 236
v 0.000000 -0.000305 0.019998
v -0.012087 -0.007557 0.014028
v -0.017093 -0.010383 -0.000158
v -0.012087 -0.007126 -0.014253
v -0.000000 0.000305 -0.019998
v 0.012087 0.007557 -0.014028
v 0.017093 0.010383 0.000158
v 0.012087 0.007126 0.014253
v 0.014142 -0.023581 0.019642
v 0.002055 -0.030833 0.013673
v -0.002951 -0.033659 -0.000514
v 0.002055 -0.030402 -0.014608
v 0.014142 -0.022971 -0.020353
v 0.026228 -0.015719 -0.014384
v 0.031235 -0.012893 -0.000197
v 0.026228 -0.016150 0.013897
v 0.014142 -0.021899 0.019597
v 0.005035 -0.033097 0.014498
v 0.001263 -0.038542 0.000698
v 0.005035 -0.035044 -0.013719
v 0.014142 -0.024653 -0.020308
v 0.023248 -0.013455 -0.015209
v 0.027020 -0.008010 -0.001408
v 0.023248 -0.011508 0.013009
v 0.029002 -0.034376 0.020458
v 0.019895 -0.045574 0.015359
v 0.016123 -0.051018 0.001559
v 0.019895 -0.047520 -0.012858
v 0.029002 -0.037129 -0.019447
v 0.038108 -0.025932 -0.014348
v 0.041880 -0.020487 -0.000548
v 0.038108 -0.023985 0.013869
v 0.029002 -0.031487 0.020045
v 0.019715 -0.043157 0.016597
v 0.015869 -0.050490 0.003723
v 0.019715 -0.049189 -0.011036
v 0.029002 -0.040018 -0.019034
v 0.038288 -0.028348 -0.015586
v 0.042134 -0.021015 -0.002711
v 0.038288 -0.022316 0.012048
v 0.041046 -0.041732 0.022282
v 0.031760 -0.053402 0.018833
v 0.027914 -0.060735 0.005959
v 0.031760 -0.059434 -0.008800
v 0.041046 -0.050263 -0.016798
v 0.050332 -0.038593 -0.013350
v 0.054179 -0.031260 -0.000475
v 0.050332 -0.032561 0.014284
v 0.041046 -0.048522 0.022582
v 0.028443 -0.054147 0.015961
v 0.023223 -0.054998 0.001597
v 0.028443 -0.050576 -0.012097
v 0.041046 -0.043473 -0.017098
v 0.053650 -0.037848 -0.010477
v 0.058870 -0.036997 0.003887
v 0.053650 -0.041419 0.017581
v 0.050778 -0.067489 0.020168
v 0.038175 -0.073113 0.013547
v 0.032955 -0.073964 -0.000817
v 0.038175 -0.069542 -0.014511
v 0.050778 -0.062439 -0.019512
v 0.063382 -0.056814 -0.012891
v 0.068602 -0.055964 0.001474
v 0.063382 -0.060385 0.015167
v 0.000000 -0.011684 0.016232
v -0.008607 -0.017370 0.004922
v -0.012172 -0.012880 -0.009271
v -0.008607 -0.000845 -0.018034
v -0.000000 0.011684 -0.016232
v 0.008607 0.017370 -0.004922
v 0.012172 0.012880 0.009271
v 0.008607 0.000845 0.018034
v 0.054906 -0.045861 -0.008370
v 0.046299 -0.051547 -0.019680
v 0.042734 -0.047057 -0.033873
v 0.046299 -0.035022 -0.042635
v 0.054906 -0.022493 -0.040834
v 0.063513 -0.016807 -0.029524
v 0.067078 -0.021297 -0.015330
v 0.063513 -0.033331 -0.006568
v 0.057733 -0.034177 -0.004802
v 0.055247 -0.048220 -0.010365
v 0.052562 -0.054036 -0.024267
v 0.051249 -0.048220 -0.038365
v 0.052079 -0.034177 -0.044401
v 0.054565 -0.020134 -0.038838
v 0.057250 -0.014318 -0.024936
v 0.058563 -0.020134 -0.010838
v 0.073156 -0.036035 -0.007005
v 0.070670 -0.050077 -0.012567
v 0.067984 -0.055894 -0.026469
v 0.066672 -0.050077 -0.040567
v 0.067501 -0.036035 -0.046603
v 0.069987 -0.021992 -0.041041
v 0.072673 -0.016175 -0.027139
v 0.073985 -0.021992 -0.013040
v 0.070329 -0.023016 -0.011621
v 0.062198 -0.035613 -0.008536
v 0.058830 -0.048457 -0.016152
v 0.062198 -0.054024 -0.030008
v 0.070329 -0.049053 -0.041987
v 0.078459 -0.036456 -0.045072
v 0.081827 -0.023612 -0.037455
v 0.078459 -0.018045 -0.023600
v 0.087880 -0.032379 -0.003593
v 0.079749 -0.044976 -0.000508
v 0.076381 -0.057820 -0.008124
v 0.079749 -0.063387 -0.021980
v 0.087880 -0.058416 -0.033959
v 0.096011 -0.045819 -0.037044
v 0.099379 -0.032975 -0.029428
v 0.096011 -0.027408 -0.015572
v 0.087880 -0.027533 -0.009783
v 0.080038 -0.038057 -0.001905
v 0.076789 -0.052881 -0.003910
v 0.080038 -0.063321 -0.014623
v 0.087880 -0.063261 -0.027769
v 0.095722 -0.052737 -0.035647
v 0.098971 -0.037914 -0.033642
v 0.095722 -0.027474 -0.022929
v 0.106218 -0.033028 0.001132
v 0.098376 -0.043552 0.009010
v 0.095127 -0.058376 0.007005
v 0.098376 -0.068815 -0.003708
v 0.106218 -0.068756 -0.016854
v 0.114060 -0.058232 -0.024732
v 0.117308 -0.043408 -0.022727
v 0.114060 -0.032968 -0.012014
v 0.000000 -0.014797 0.013456
v -0.007601 -0.018487 0.000691
v -0.010749 -0.011347 -0.012478
v -0.007601 0.002439 -0.018338
v -0.000000 0.014797 -0.013456
v 0.007601 0.018487 -0.000691
v 0.010749 0.011347 0.012478
v 0.007601 -0.002439 0.018338
v 0.057334 -0.039380 -0.013577
v 0.049734 -0.043070 -0.026341
v 0.046585 -0.035931 -0.039511
v 0.049734 -0.022144 -0.045371
v 0.057334 -0.009787 -0.040489
v 0.064935 -0.006097 -0.027724
v 0.068083 -0.013236 -0.014555
v 0.064935 -0.027022 -0.008695
v 0.060504 -0.024583 -0.007285
v 0.056423 -0.038360 -0.012563
v 0.052876 -0.044067 -0.026317
v 0.051941 -0.038360 -0.040490
v 0.054165 -0.024583 -0.046780
v 0.058246 -0.010806 -0.041502
v 0.061792 -0.005100 -0.027748
v 0.062728 -0.010806 -0.013575
v 0.080754 -0.029337 -0.010536
v 0.076673 -0.043114 -0.015813
v 0.073127 -0.048820 -0.029567
v 0.072191 -0.043114 -0.043740
v 0.074416 -0.029337 -0.050030
v 0.078496 -0.015560 -0.044752
v 0.082043 -0.009853 -0.030998
v 0.082978 -0.015560 -0.016825
v 0.077585 -0.016668 -0.014807
v 0.071035 -0.030077 -0.011400
v 0.068322 -0.043052 -0.019055
v 0.071035 -0.047993 -0.033286
v 0.077585 -0.042005 -0.045759
v 0.084135 -0.028596 -0.049165
v 0.086848 -0.015621 -0.041511
v 0.084135 -0.010680 -0.027279
v 0.100819 -0.026063 -0.007116
v 0.094269 -0.039472 -0.003709
v 0.091556 -0.052447 -0.011364
v 0.094269 -0.057388 -0.025595
v 0.100819 -0.051400 -0.038068
v 0.107369 -0.037991 -0.041474
v 0.110082 -0.025016 -0.033820
v 0.107369 -0.020075 -0.019588
v 0.100819 -0.023931 -0.009140
v 0.092089 -0.035749 -0.004847
v 0.088473 -0.049314 -0.010948
v 0.092089 -0.056680 -0.023870
v 0.100819 -0.053532 -0.036043
v 0.109549 -0.041714 -0.040337
v 0.113165 -0.028149 -0.034236
v 0.109549 -0.020783 -0.021314
v 0.122802 -0.035532 0.003625
v 0.114072 -0.047350 0.007918
v 0.110456 -0.060915 0.001817
v 0.114072 -0.068282 -0.011105
v 0.122802 -0.065134 -0.023278
v 0.131532 -0.053316 -0.027572
v 0.135148 -0.039750 -0.021471
v 0.131532 -0.032384 -0.008549
v 0.000000 -0.017998 0.008721
v -0.006858 -0.018120 -0.004963
v -0.009699 -0.007627 -0.015740
v -0.006858 0.007333 -0.017297
v -0.000000 0.017998 -0.008721
v 0.006858 0.018120 0.004963
v 0.009699 0.007627 0.015740
v 0.006858 -0.007333 0.017297
v 0.059920 -0.032487 -0.021179
v 0.053062 -0.032609 -0.034863
v 0.050221 -0.022116 -0.045640
v 0.053062 -0.007155 -0.047197
v 0.059920 0.003509 -0.038622
v 0.066778 0.003631 -0.024937
v 0.069618 -0.006861 -0.014160
v 0.066778 -0.021822 -0.012603
v 0.059982 -0.014489 -0.009900
v 0.055916 -0.028039 -0.015745
v 0.054195 -0.033652 -0.029882
v 0.055827 -0.028039 -0.044029
v 0.059857 -0.014489 -0.049900
v 0.063923 -0.000938 -0.044055
v 0.065645 0.004674 -0.029918
v 0.064012 -0.000938 -0.015771
v 0.075139 -0.019017 -0.009948
v 0.071073 -0.032567 -0.015793
v 0.069351 -0.038180 -0.029930
v 0.070984 -0.032567 -0.044077
v 0.075014 -0.019017 -0.049948
v 0.079080 -0.005467 -0.044102
v 0.080802 0.000146 -0.029966
v 0.079169 -0.005467 -0.015818
v 0.070107 -0.019017 -0.010575
v 0.068238 -0.032736 -0.017102
v 0.070375 -0.038419 -0.031154
v 0.075266 -0.032736 -0.044499
v 0.080046 -0.019017 -0.049320
v 0.081916 -0.005298 -0.042793
v 0.079778 0.000385 -0.028741
v 0.074887 -0.005298 -0.015396
v 0.095039 -0.025457 -0.004179
v 0.093170 -0.039176 -0.010706
v 0.095307 -0.044859 -0.024758
v 0.100199 -0.039176 -0.038103
v 0.104979 -0.025457 -0.042924
v 0.106848 -0.011737 -0.036397
v 0.104711 -0.006055 -0.022345
v 0.099819 -0.011737 -0.009000
v 0.100009 -0.012946 -0.007948
v 0.091522 -0.025436 -0.005442
v 0.088006 -0.037938 -0.013544
v 0.091522 -0.043129 -0.027509
v 0.100009 -0.037968 -0.039155
v 0.108496 -0.025478 -0.041661
v 0.112012 -0.012976 -0.033559
v 0.108496 -0.007785 -0.019594
v 0.118811 -0.023952 0.000877
v 0.110323 -0.036442 0.003383
v 0.106808 -0.048944 -0.004720
v 0.110323 -0.054135 -0.018684
v 0.118811 -0.048974 -0.030331
v 0.127298 -0.036484 -0.032837
v 0.130814 -0.023982 -0.024734
v 0.127298 -0.018791 -0.010770
v 0.008272 0.000000 0.018209
v 0.004411 -0.014054 0.013529
v -0.002033 -0.019875 0.000924
v -0.007287 -0.014054 -0.012223
v -0.008272 -0.000000 -0.018209
v -0.004411 0.014054 -0.013529
v 0.002033 0.019875 -0.000924
v 0.007287 0.014054 0.012223
v 0.061163 -0.006528 -0.005817
v 0.057303 -0.020582 -0.010497
v 0.050858 -0.026403 -0.023102
v 0.045605 -0.020582 -0.036249
v 0.044620 -0.006528 -0.042235
v 0.048481 0.007525 -0.037555
v 0.054925 0.013347 -0.024950
v 0.060179 0.007525 -0.011803
v 0.054601 -0.006528 -0.004099
v 0.057745 -0.020189 -0.010248
v 0.058047 -0.025847 -0.024468
v 0.055329 -0.020189 -0.038429
v 0.051183 -0.006528 -0.043953
v 0.048038 0.007132 -0.037804
v 0.047737 0.012791 -0.023584
v 0.050455 0.007132 -0.009623
v 0.070366 -0.002290 -0.005451
v 0.073511 -0.015951 -0.011600
v 0.073812 -0.021610 -0.025820
v 0.071094 -0.015951 -0.039781
v 0.066948 -0.002290 -0.045305
v 0.063804 0.011370 -0.039156
v 0.063502 0.017029 -0.024936
v 0.066220 0.011370 -0.010975
v 0.065871 -0.002290 -0.005573
v 0.067417 -0.016413 -0.011271
v 0.069689 -0.022263 -0.025233
v 0.071357 -0.016413 -0.039279
v 0.071443 -0.002290 -0.045183
v 0.069897 0.011832 -0.039485
v 0.067625 0.017682 -0.025523
v 0.065957 0.011832 -0.011476
v 0.086303 -0.001214 -0.002699
v 0.087848 -0.015337 -0.008397
v 0.090121 -0.021187 -0.022358
v 0.091789 -0.015337 -0.036405
v 0.091875 -0.001214 -0.042309
v 0.090329 0.012909 -0.036611
v 0.088057 0.018759 -0.022649
v 0.086389 0.012909 -0.008602
v 0.081813 -0.001214 -0.003874
v 0.080645 -0.014905 -0.010619
v 0.084423 -0.020576 -0.024326
v 0.090935 -0.014905 -0.036965
v 0.096365 -0.001214 -0.041133
v 0.097533 0.012478 -0.034388
v 0.093754 0.018149 -0.020681
v 0.087243 0.012478 -0.008042
v 0.097932 -0.005690 0.002422
v 0.096764 -0.019382 -0.004323
v 0.100543 -0.025053 -0.018030
v 0.107054 -0.019382 -0.030669
v 0.112484 -0.005690 -0.034837
v 0.113652 0.008001 -0.028092
v 0.109874 0.013672 -0.014386
v 0.103362 0.008001 -0.001746
v -0.015000 -0.015000 -0.015000
v 0.015000 -0.015000 -0.015000
v 0.015000 0.015000 -0.015000
v -0.015000 0.015000 -0.015000
v -0.015000 -0.015000 0.015000
v 0.015000 -0.015000 0.015000
v 0.015000 0.015000 0.015000
v -0.015000 0.015000 0.015000
v -0.000858 -0.038276 -0.015355
v 0.029142 -0.038276 -0.015355
v 0.029142 -0.008276 -0.015355
v -0.000858 -0.008276 -0.015355
v -0.000858 -0.038276 0.014645
v 0.029142 -0.038276 0.014645
v 0.029142 -0.008276 0.014645
v -0.000858 -0.008276 0.014645
v 0.014002 -0.050753 -0.014494
v 0.044002 -0.050753 -0.014494
v 0.044002 -0.020753 -0.014494
v 0.014002 -0.020753 -0.014494
v 0.014002 -0.050753 0.015506
v 0.044002 -0.050753 0.015506
v 0.044002 -0.020753 0.015506
v 0.014002 -0.020753 0.015506
v 0.026046 -0.060998 -0.012258
v 0.056046 -0.060998 -0.012258
v 0.056046 -0.030998 -0.012258
v 0.026046 -0.030998 -0.012258
v 0.026046 -0.060998 0.017742
v 0.056046 -0.060998 0.017742
v 0.056046 -0.030998 0.017742
v 0.026046 -0.030998 0.017742
v 0.035778 -0.079964 -0.014672
v 0.065778 -0.079964 -0.014672
v 0.065778 -0.049964 -0.014672
v 0.035778 -0.049964 -0.014672
v 0.035778 -0.079964 0.015328
v 0.065778 -0.079964 0.015328
v 0.065778 -0.049964 0.015328
v 0.035778 -0.049964 0.015328
v 0.039906 -0.049177 -0.039602
v 0.069906 -0.049177 -0.039602
v 0.069906 -0.019177 -0.039602
v 0.039906 -0.019177 -0.039602
v 0.039906 -0.049177 -0.009602
v 0.069906 -0.049177 -0.009602
v 0.069906 -0.019177 -0.009602
v 0.039906 -0.019177 -0.009602
v 0.055329 -0.051035 -0.041804
v 0.085329 -0.051035 -0.041804
v 0.085329 -0.021035 -0.041804
v 0.055329 -0.021035 -0.041804
v 0.055329 -0.051035 -0.011804
v 0.085329 -0.051035 -0.011804
v 0.085329 -0.021035 -0.011804
v 0.055329 -0.021035 -0.011804
v 0.072880 -0.060397 -0.033776
v 0.102880 -0.060397 -0.033776
v 0.102880 -0.030397 -0.033776
v 0.072880 -0.030397 -0.033776
v 0.072880 -0.060397 -0.003776
v 0.102880 -0.060397 -0.003776
v 0.102880 -0.030397 -0.003776
v 0.072880 -0.030397 -0.003776
v 0.091218 -0.065892 -0.022861
v 0.121218 -0.065892 -0.022861
v 0.121218 -0.035892 -0.022861
v 0.091218 -0.035892 -0.022861
v 0.091218 -0.065892 0.007139
v 0.121218 -0.065892 0.007139
v 0.121218 -0.035892 0.007139
v 0.091218 -0.035892 0.007139
v 0.042334 -0.039583 -0.042033
v 0.072334 -0.039583 -0.042033
v 0.072334 -0.009583 -0.042033
v 0.042334 -0.009583 -0.042033
v 0.042334 -0.039583 -0.012033
v 0.072334 -0.039583 -0.012033
v 0.072334 -0.009583 -0.012033
v 0.042334 -0.009583 -0.012033
v 0.062585 -0.044337 -0.045283
v 0.092585 -0.044337 -0.045283
v 0.092585 -0.014337 -0.045283
v 0.062585 -0.014337 -0.045283
v 0.062585 -0.044337 -0.015283
v 0.092585 -0.044337 -0.015283
v 0.092585 -0.014337 -0.015283
v 0.062585 -0.014337 -0.015283
v 0.085819 -0.053732 -0.037592
v 0.115819 -0.053732 -0.037592
v 0.115819 -0.023732 -0.037592
v 0.085819 -0.023732 -0.037592
v 0.085819 -0.053732 -0.007592
v 0.115819 -0.053732 -0.007592
v 0.115819 -0.023732 -0.007592
v 0.085819 -0.023732 -0.007592
v 0.107802 -0.065333 -0.024827
v 0.137802 -0.065333 -0.024827
v 0.137802 -0.035333 -0.024827
v 0.107802 -0.035333 -0.024827
v 0.107802 -0.065333 0.005173
v 0.137802 -0.065333 0.005173
v 0.137802 -0.035333 0.005173
v 0.107802 -0.035333 0.005173
v 0.044920 -0.029489 -0.044900
v 0.074920 -0.029489 -0.044900
v 0.074920 0.000511 -0.044900
v 0.044920 0.000511 -0.044900
v 0.044920 -0.029489 -0.014900
v 0.074920 -0.029489 -0.014900
v 0.074920 0.000511 -0.014900
v 0.044920 0.000511 -0.014900
v 0.060077 -0.034017 -0.044948
v 0.090077 -0.034017 -0.044948
v 0.090077 -0.004017 -0.044948
v 0.060077 -0.004017 -0.044948
v 0.060077 -0.034017 -0.014948
v 0.090077 -0.034017 -0.014948
v 0.090077 -0.004017 -0.014948
v 0.060077 -0.004017 -0.014948
v 0.085009 -0.040457 -0.038551
v 0.115009 -0.040457 -0.038551
v 0.115009 -0.010457 -0.038551
v 0.085009 -0.010457 -0.038551
v 0.085009 -0.040457 -0.008551
v 0.115009 -0.040457 -0.008551
v 0.115009 -0.010457 -0.008551
v 0.085009 -0.010457 -0.008551
v 0.103811 -0.051463 -0.029727
v 0.133811 -0.051463 -0.029727
v 0.133811 -0.021463 -0.029727
v 0.103811 -0.021463 -0.029727
v 0.103811 -0.051463 0.000273
v 0.133811 -0.051463 0.000273
v 0.133811 -0.021463 0.000273
v 0.103811 -0.021463 0.000273
v 0.037892 -0.021528 -0.039026
v 0.067892 -0.021528 -0.039026
v 0.067892 0.008472 -0.039026
v 0.037892 0.008472 -0.039026
v 0.037892 -0.021528 -0.009026
v 0.067892 -0.021528 -0.009026
v 0.067892 0.008472 -0.009026
v 0.037892 0.008472 -0.009026
v 0.053657 -0.017290 -0.040378
v 0.083657 -0.017290 -0.040378
v 0.083657 0.012710 -0.040378
v 0.053657 0.012710 -0.040378
v 0.053657 -0.017290 -0.010378
v 0.083657 -0.017290 -0.010378
v 0.083657 0.012710 -0.010378
v 0.053657 0.012710 -0.010378
v 0.074089 -0.016214 -0.037504
v 0.104089 -0.016214 -0.037504
v 0.104089 0.013786 -0.037504
v 0.074089 0.013786 -0.037504
v 0.074089 -0.016214 -0.007504
v 0.104089 -0.016214 -0.007504
v 0.104089 0.013786 -0.007504
v 0.074089 0.013786 -0.007504
v 0.090208 -0.020690 -0.031208
v 0.120208 -0.020690 -0.031208
v 0.120208 0.009310 -0.031208
v 0.090208 0.009310 -0.031208
v 0.090208 -0.020690 -0.001208
v 0.120208 -0.020690 -0.001208
v 0.120208 0.009310 -0.001208
v 0.090208 0.009310 -0.001208
f 1 2 9
f 2 10 9
f 2 3 10
f 3 11 10
f 3 4 11
f 4 12 11
f 4 5 12
f 5 13 12
f 5 6 13
f 6 14 13
f 6 7 14
f 7 15 14
f 7 8 15
f 8 16 15
f 8 1 16
f 1 9 16
f 17 18 25
f 18 26 25
f 18 19 26
f 19 27 26
f 19 20 27
f 20 28 27
f 20 21 28
f 21 29 28
f 21 22 29
f 22 30 29
f 22 23 30
f 23 31 30
f 23 24 31
f 24 32 31
f 24 17 32
f 17 25 32
f 33 34 41
f 34 42 41
f 34 35 42
f 35 43 42
f 35 36 43
f 36 44 43
f 36 37 44
f 37 45 44
f 37 38 45
f 38 46 45
f 38 39 46
f 39 47 46
f 39 40 47
f 40 48 47
f 40 33 48
f 33 41 48
f 49 50 57
f 50 58 57
f 50 51 58
f 51 59 58
f 51 52 59
f 52 60 59
f 52 53 60
f 53 61 60
f 53 54 61
f 54 62 61
f 54 55 62
f 55 63 62
f 55 56 63
f 56 64 63
f 56 49 64
f 49 57 64
f 65 66 73
f 66 74 73
f 66 67 74
f 67 75 74
f 67 68 75
f 68 76 75
f 68 69 76
f 69 77 76
f 69 70 77
f 70 78 77
f 70 71 78
f 71 79 78
f 71 72 79
f 72 80 79
f 72 65 80
f 65 73 80
f 81 82 89
f 82 90 89
f 82 83 90
f 83 91 90
f 83 84 91
f 84 92 91
f 84 85 92
f 85 93 92
f 85 86 93
f 86 94 93
f 86 87 94
f 87 95 94
f 87 88 95
f 88 96 95
f 88 81 96
f 81 89 96
f 97 98 105
f 98 106 105
f 98 99 106
f 99 107 106
f 99 100 107
f 100 108 107
f 100 101 108
f 101 109 108
f 101 102 109
f 102 110 109
f 102 103 110
f 103 111 110
f 103 104 111
f 104 112 111
f 104 97 112
f 97 105 112
f 113 114 121
f 114 122 121
f 114 115 122
f 115 123 122
f 115 116 123
f 116 124 123
f 116 117 124
f 117 125 124
f 117 118 125
f 118 126 125
f 118 119 126
f 119 127 126
f 119 120 127
f 120 128 127
f 120 113 128
f 113 121 128
f 129 130 137
f 130 138 137
f 130 131 138
f 131 139 138
f 131 132 139
f 132 140 139
f 132 133 140
f 133 141 140
f 133 134 141
f 134 142 141
f 134 135 142
f 135 143 142
f 135 136 143
f 136 144 143
f 136 129 144
f 129 137 144
f 145 146 153
f 146 154 153
f 146 147 154
f 147 155 154
f 147 148 155
f 148 156 155
f 148 149 156
f 149 157 156
f 149 150 157
f 150 158 157
f 150 151 158
f 151 159 158
f 151 152 159
f 152 160 159
f 152 145 160
f 145 153 160
f 161 162 169
f 162 170 169
f 162 163 170
f 163 171 170
f 163 164 171
f 164 172 171
f 164 165 172
f 165 173 172
f 165 166 173
f 166 174 173
f 166 167 174
f 167 175 174
f 167 168 175
f 168 176 175
f 168 161 176
f 161 169 176
f 177 178 185
f 178 186 185
f 178 179 186
f 179 187 186
f 179 180 187
f 180 188 187
f 180 181 188
f 181 189 188
f 181 182 189
f 182 190 189
f 182 183 190
f 183 191 190
f 183 184 191
f 184 192 191
f 184 177 192
f 177 185 192
f 193 194 201
f 194 202 201
f 194 195 202
f 195 203 202
f 195 196 203
f 196 204 203
f 196 197 204
f 197 205 204
f 197 198 205
f 198 206 205
f 198 199 206
f 199 207 206
f 199 200 207
f 200 208 207
f 200 193 208
f 193 201 208
f 209 210 217
f 210 218 217
f 210 211 218
f 211 219 218
f 211 212 219
f 212 220 219
f 212 213 220
f 213 221 220
f 213 214 221
f 214 222 221
f 214 215 222
f 215 223 222
f 215 216 223
f 216 224 223
f 216 209 224
f 209 217 224
f 225 226 233
f 226 234 233
f 226 227 234
f 227 235 234
f 227 228 235
f 228 236 235
f 228 229 236
f 229 237 236
f 229 230 237
f 230 238 237
f 230 231 238
f 231 239 238
f 231 232 239
f 232 240 239
f 232 225 240
f 225 233 240
f 241 242 249
f 242 250 249
f 242 243 250
f 243 251 250
f 243 244 251
f 244 252 251
f 244 245 252
f 245 253 252
f 245 246 253
f 246 254 253
f 246 247 254
f 247 255 254
f 247 248 255
f 248 256 255
f 248 241 256
f 241 249 256
f 257 258 265
f 258 266 265
f 258 259 266
f 259 267 266
f 259 260 267
f 260 268 267
f 260 261 268
f 261 269 268
f 261 262 269
f 262 270 269
f 262 263 270
f 263 271 270
f 263 264 271
f 264 272 271
f 264 257 272
f 257 265 272
f 273 274 281
f 274 282 281
f 274 275 282
f 275 283 282
f 275 276 283
f 276 284 283
f 276 277 284
f 277 285 284
f 277 278 285
f 278 286 285
f 278 279 286
f 279 287 286
f 279 280 287
f 280 288 287
f 280 273 288
f 273 281 288
f 289 290 297
f 290 298 297
f 290 291 298
f 291 299 298
f 291 292 299
f 292 300 299
f 292 293 300
f 293 301 300
f 293 294 301
f 294 302 301
f 294 295 302
f 295 303 302
f 295 296 303
f 296 304 303
f 296 289 304
f 289 297 304
f 305 306 313
f 306 314 313
f 306 307 314
f 307 315 314
f 307 308 315
f 308 316 315
f 308 309 316
f 309 317 316
f 309 310 317
f 310 318 317
f 310 311 318
f 311 319 318
f 311 312 319
f 312 320 319
f 312 305 320
f 305 313 320
f 321 322 323
f 321 323 324
f 325 326 327
f 325 327 328
f 321 325 326
f 321 326 322
f 322 326 327
f 322 327 323
f 323 327 328
f 323 328 324
f 324 328 325
f 324 325 321
f 329 330 331
f 329 331 332
f 333 334 335
f 333 335 336
f 329 333 334
f 329 334 330
f 330 334 335
f 330 335 331
f 331 335 336
f 331 336 332
f 332 336 333
f 332 333 329
f 337 338 339
f 337 339 340
f 341 342 343
f 341 343 344
f 337 341 342
f 337 342 338
f 338 342 343
f 338 343 339
f 339 343 344
f 339 344 340
f 340 344 341
f 340 341 337
f 345 346 347
f 345 347 348
f 349 350 351
f 349 351 352
f 345 349 350
f 345 350 346
f 346 350 351
f 346 351 347
f 347 351 352
f 347 352 348
f 348 352 349
f 348 349 345
f 353 354 355
f 353 355 356
f 357 358 359
f 357 359 360
f 353 357 358
f 353 358 354
f 354 358 359
f 354 359 355
f 355 359 360
f 355 360 356
f 356 360 357
f 356 357 353
f 361 362 363
f 361 363 364
f 365 366 367
f 365 367 368
f 361 365 366
f 361 366 362
f 362 366 367
f 362 367 363
f 363 367 368
f 363 368 364
f 364 368 365
f 364 365 361
f 369 370 371
f 369 371 372
f 373 374 375
f 373 375 376
f 369 373 374
f 369 374 370
f 370 374 375
f 370 375 371
f 371 375 376
f 371 376 372
f 372 376 373
f 372 373 369
f 377 378 379
f 377 379 380
f 381 382 383
f 381 383 384
f 377 381 382
f 377 382 378
f 378 382 383
f 378 383 379
f 379 383 384
f 379 384 380
f 380 384 381
f 380 381 377
f 385 386 387
f 385 387 388
f 389 390 391
f 389 391 392
f 385 389 390
f 385 390 386
f 386 390 391
f 386 391 387
f 387 391 392
f 387 392 388
f 388 392 389
f 388 389 385
f 393 394 395
f 393 395 396
f 397 398 399
f 397 399 400
f 393 397 398
f 393 398 394
f 394 398 399
f 394 399 395
f 395 399 400
f 395 400 396
f 396 400 397
f 396 397 393
f 401 402 403
f 401 403 404
f 405 406 407
f 405 407 408
f 401 405 406
f 401 406 402
f 402 406 407
f 402 407 403
f 403 407 408
f 403 408 404
f 404 408 405
f 404 405 401
f 409 410 411
f 409 411 412
f 413 414 415
f 413 415 416
f 409 413 414
f 409 414 410
f 410 414 415
f 410 415 411
f 411 415 416
f 411 416 412
f 412 416 413
f 412 413 409
f 417 418 419
f 417 419 420
f 421 422 423
f 421 423 424
f 417 421 422
f 417 422 418
f 418 422 423
f 418 423 419
f 419 423 424
f 419 424 420
f 420 424 421
f 420 421 417
f 425 426 427
f 425 427 428
f 429 430 431
f 429 431 432
f 425 429 430
f 425 430 426
f 426 430 431
f 426 431 427
f 427 431 432
f 427 432 428
f 428 432 429
f 428 429 425
f 433 434 435
f 433 435 436
f 437 438 439
f 437 439 440
f 433 437 438
f 433 438 434
f 434 438 439
f 434 439 435
f 435 439 440
f 435 440 436
f 436 440 437
f 436 437 433
f 441 442 443
f 441 443 444
f 445 446 447
f 445 447 448
f 441 445 446
f 441 446 442
f 442 446 447
f 442 447 443
f 443 447 448
f 443 448 444
f 444 448 445
f 444 445 441
f 449 450 451
f 449 451 452
f 453 454 455
f 453 455 456
f 449 453 454
f 449 454 450
f 450 454 455
f 450 455 451
f 451 455 456
f 451 456 452
f 452 456 453
f 452 453 449
f 457 458 459
f 457 459 460
f 461 462 463
f 461 463 464
f 457 461 462
f 457 462 458
f 458 462 463
f 458 463 459
f 459 463 464
f 459 464 460
f 460 464 461
f 460 461 457
f 465 466 467
f 465 467 468
f 469 470 471
f 469 471 472
f 465 469 470
f 465 470 466
f 466 470 471
f 466 471 467
f 467 471 472
f 467 472 468
f 468 472 469
f 468 469 465
f 473 474 475
f 473 475 476
f 477 478 479
f 477 479 480
f 473 477 478
f 473 478 474
f 474 478 479
f 474 479 475
f 475 479 480
f 475 480 476
f 476 480 477
f 476 477 473
f 481 482 483
f 481 483 484
f 485 486 487
f 485 487 488
f 481 485 486
f 481 486 482
f 482 486 487
f 482 487 483
f 483 487 488
f 483 488 484
f 484 488 485
f 484 485 481
