# SignFlow 3D Hand Mesh - Frame 235
v 0.000000 -0.003733 0.019649
v -0.011512 -0.010710 0.012361
v -0.016280 -0.011413 -0.002168
v -0.011512 -0.005431 -0.015427
v -0.000000 0.003733 -0.019649
v 0.011512 0.010710 -0.012361
v 0.016280 0.011413 0.002168
v 0.011512 0.005431 0.015427
v 0.015732 -0.025391 0.015534
v 0.004220 -0.032368 0.008246
v -0.000548 -0.033072 -0.006283
v 0.004220 -0.027090 -0.019541
v 0.015732 -0.017926 -0.023763
v 0.027243 -0.010949 -0.016475
v 0.032012 -0.010246 -0.001946
v 0.027243 -0.016228 0.011312
v 0.015732 -0.021860 0.015884
v 0.006226 -0.032272 0.009922
v 0.002289 -0.036467 -0.004263
v 0.006226 -0.031988 -0.018361
v 0.015732 -0.021458 -0.024114
v 0.025237 -0.011046 -0.018151
v 0.029174 -0.006851 -0.003966
v 0.025237 -0.011330 0.010132
v 0.029780 -0.034611 0.015756
v 0.020275 -0.045023 0.009794
v 0.016337 -0.049218 -0.004391
v 0.020275 -0.044739 -0.018489
v 0.029780 -0.034209 -0.024242
v 0.039285 -0.023797 -0.018279
v 0.043222 -0.019602 -0.004094
v 0.039285 -0.024081 0.010004
v 0.029780 -0.036991 0.015590
v 0.020850 -0.047110 0.008366
v 0.017152 -0.049790 -0.006244
v 0.020850 -0.043460 -0.019682
v 0.029780 -0.031829 -0.024075
v 0.038709 -0.021710 -0.016851
v 0.042408 -0.019030 -0.002241
v 0.038709 -0.025360 0.011196
v 0.041854 -0.046740 0.014322
v 0.032925 -0.056859 0.007098
v 0.029226 -0.059539 -0.007512
v 0.032925 -0.053209 -0.020950
v 0.041854 -0.041579 -0.025344
v 0.050784 -0.031459 -0.018120
v 0.054482 -0.028780 -0.003510
v 0.050784 -0.035109 0.009928
v 0.041854 -0.046699 0.014327
v 0.029185 -0.052188 0.007718
v 0.023937 -0.052974 -0.006640
v 0.029185 -0.048596 -0.020337
v 0.041854 -0.041619 -0.025349
v 0.054524 -0.036130 -0.018741
v 0.059771 -0.035344 -0.004382
v 0.054524 -0.039722 0.009315
v 0.051401 -0.065790 0.011883
v 0.038732 -0.071279 0.005274
v 0.033484 -0.072065 -0.009084
v 0.038732 -0.067687 -0.022781
v 0.051401 -0.060710 -0.027794
v 0.064070 -0.055221 -0.021185
v 0.069318 -0.054435 -0.006827
v 0.064070 -0.058813 0.006870
v 0.000000 -0.014657 0.013608
v -0.008925 -0.017828 0.001582
v -0.012621 -0.010556 -0.011370
v -0.008925 0.002900 -0.017662
v -0.000000 0.014657 -0.013608
v 0.008925 0.017828 -0.001582
v 0.012621 0.010556 0.011370
v 0.008925 -0.002900 0.017662
v 0.054727 -0.044949 -0.019019
v 0.045803 -0.048120 -0.031045
v 0.042106 -0.040848 -0.043997
v 0.045803 -0.027392 -0.050289
v 0.054727 -0.015635 -0.046235
v 0.063652 -0.012463 -0.034209
v 0.067349 -0.019736 -0.021257
v 0.063652 -0.033191 -0.014965
v 0.057406 -0.030292 -0.012807
v 0.055380 -0.044378 -0.018444
v 0.052972 -0.050213 -0.032390
v 0.051592 -0.044378 -0.046474
v 0.052049 -0.030292 -0.052447
v 0.054075 -0.016205 -0.046809
v 0.056483 -0.010370 -0.032864
v 0.057863 -0.016205 -0.018780
v 0.071665 -0.031571 -0.014734
v 0.069639 -0.045658 -0.020372
v 0.067230 -0.051493 -0.034317
v 0.065851 -0.045658 -0.048401
v 0.066308 -0.031571 -0.054374
v 0.068334 -0.017485 -0.048737
v 0.070742 -0.011650 -0.034791
v 0.072122 -0.017485 -0.020707
v 0.068986 -0.016104 -0.021875
v 0.060367 -0.027742 -0.016918
v 0.056797 -0.041623 -0.022291
v 0.060367 -0.049616 -0.034848
v 0.068986 -0.047039 -0.047233
v 0.077605 -0.035401 -0.052191
v 0.081176 -0.021519 -0.046817
v 0.077605 -0.013526 -0.034260
v 0.086719 -0.024746 -0.011332
v 0.078100 -0.036384 -0.006375
v 0.074530 -0.050265 -0.011748
v 0.078100 -0.058258 -0.024305
v 0.086719 -0.055681 -0.036690
v 0.095338 -0.044043 -0.041648
v 0.098909 -0.030161 -0.036274
v 0.095338 -0.022168 -0.023717
v 0.086719 -0.022623 -0.014495
v 0.078012 -0.033077 -0.007480
v 0.074406 -0.047712 -0.010149
v 0.078012 -0.057955 -0.020939
v 0.086719 -0.057804 -0.033528
v 0.095426 -0.047350 -0.040542
v 0.099033 -0.032715 -0.037873
v 0.095426 -0.022472 -0.027084
v 0.104934 -0.029394 -0.001978
v 0.096227 -0.039849 0.005036
v 0.092620 -0.054484 0.002367
v 0.096227 -0.064726 -0.008422
v 0.104934 -0.064576 -0.021011
v 0.113640 -0.054121 -0.028025
v 0.117247 -0.039486 -0.025356
v 0.113640 -0.029244 -0.014567
v 0.000000 -0.016815 0.010828
v -0.008061 -0.018181 -0.002113
v -0.011399 -0.008897 -0.013817
v -0.008061 0.005599 -0.017426
v -0.000000 0.016815 -0.010828
v 0.008061 0.018181 0.002113
v 0.011399 0.008897 0.013817
v 0.008061 -0.005599 0.017426
v 0.056924 -0.038194 -0.022372
v 0.048864 -0.039560 -0.035313
v 0.045525 -0.030275 -0.047016
v 0.048864 -0.015779 -0.050626
v 0.056924 -0.004563 -0.044027
v 0.064985 -0.003197 -0.031086
v 0.068324 -0.012481 -0.019383
v 0.064985 -0.026977 -0.015773
v 0.059402 -0.021378 -0.013354
v 0.055682 -0.035195 -0.018792
v 0.052690 -0.040918 -0.032671
v 0.052178 -0.035195 -0.046859
v 0.054446 -0.021378 -0.053045
v 0.058166 -0.007562 -0.047606
v 0.061158 -0.001839 -0.033728
v 0.061670 -0.007562 -0.019540
v 0.077666 -0.025398 -0.015634
v 0.073947 -0.039214 -0.021073
v 0.070954 -0.044937 -0.034951
v 0.070442 -0.039214 -0.049139
v 0.072710 -0.025398 -0.055326
v 0.076430 -0.011581 -0.049887
v 0.079423 -0.005858 -0.036009
v 0.079935 -0.011581 -0.021821
v 0.075188 -0.012170 -0.020479
v 0.068641 -0.025446 -0.016582
v 0.065929 -0.038694 -0.023756
v 0.068641 -0.044153 -0.037797
v 0.075188 -0.038625 -0.050481
v 0.081736 -0.025349 -0.054378
v 0.084448 -0.012101 -0.047204
v 0.081736 -0.006642 -0.033163
v 0.099308 -0.021620 -0.012146
v 0.092760 -0.034896 -0.008250
v 0.090048 -0.048144 -0.015423
v 0.092760 -0.053603 -0.029465
v 0.099308 -0.048075 -0.042149
v 0.105856 -0.034799 -0.046045
v 0.108568 -0.021551 -0.038872
v 0.105856 -0.016092 -0.024830
v 0.099308 -0.018247 -0.015993
v 0.090314 -0.029196 -0.010201
v 0.086589 -0.043456 -0.014336
v 0.090314 -0.052673 -0.025976
v 0.099308 -0.051448 -0.038302
v 0.108301 -0.040499 -0.044094
v 0.112026 -0.026239 -0.039959
v 0.108301 -0.017022 -0.028319
v 0.120922 -0.028180 -0.001210
v 0.111928 -0.039129 0.004582
v 0.108203 -0.053389 0.000447
v 0.111928 -0.062606 -0.011193
v 0.120922 -0.061381 -0.023519
v 0.129915 -0.050432 -0.029311
v 0.133640 -0.036172 -0.025176
v 0.129915 -0.026955 -0.013536
v 0.000000 -0.018630 0.007276
v -0.007342 -0.017570 -0.006114
v -0.010384 -0.006218 -0.015922
v -0.007342 0.008776 -0.016403
v -0.000000 0.018630 -0.007276
v 0.007342 0.017570 0.006114
v 0.010384 0.006218 0.015922
v 0.007342 -0.008776 0.016403
v 0.059090 -0.031688 -0.026160
v 0.051748 -0.030629 -0.039549
v 0.048707 -0.019277 -0.049358
v 0.051748 -0.004282 -0.049839
v 0.059090 0.005571 -0.040711
v 0.066432 0.004512 -0.027322
v 0.069474 -0.006840 -0.017513
v 0.066432 -0.021834 -0.017032
v 0.057953 -0.013058 -0.013468
v 0.054588 -0.026707 -0.019527
v 0.053861 -0.032360 -0.033733
v 0.056197 -0.026707 -0.047765
v 0.060228 -0.013058 -0.053403
v 0.063592 0.000590 -0.047344
v 0.064319 0.006244 -0.033138
v 0.061983 0.000590 -0.019106
v 0.071262 -0.016676 -0.012710
v 0.067897 -0.030324 -0.018769
v 0.067170 -0.035978 -0.032975
v 0.069506 -0.030324 -0.047007
v 0.073537 -0.016676 -0.052645
v 0.076902 -0.003027 -0.046586
v 0.077629 0.002626 -0.032379
v 0.075293 -0.003027 -0.018347
v 0.068481 -0.016676 -0.013065
v 0.066520 -0.030458 -0.019430
v 0.068004 -0.036167 -0.033555
v 0.072062 -0.030458 -0.047166
v 0.076318 -0.016676 -0.052289
v 0.078279 -0.002893 -0.045924
v 0.076795 0.002815 -0.031799
v 0.072737 -0.002893 -0.018188
v 0.093427 -0.022526 -0.008080
v 0.091467 -0.036309 -0.014445
v 0.092951 -0.042018 -0.028571
v 0.097009 -0.036309 -0.042181
v 0.101265 -0.022526 -0.047305
v 0.103225 -0.008744 -0.040939
v 0.101742 -0.003035 -0.026814
v 0.097683 -0.008744 -0.013203
v 0.097346 -0.006686 -0.015483
v 0.088275 -0.017949 -0.010466
v 0.084518 -0.031893 -0.015540
v 0.088275 -0.040351 -0.027733
v 0.097346 -0.038367 -0.039902
v 0.106417 -0.027104 -0.044919
v 0.110175 -0.013159 -0.039845
v 0.106417 -0.004702 -0.027652
v 0.116490 -0.016457 -0.002806
v 0.107419 -0.027720 0.002211
v 0.103661 -0.041665 -0.002863
v 0.107419 -0.050122 -0.015056
v 0.116490 -0.048138 -0.027225
v 0.125561 -0.036875 -0.032242
v 0.129319 -0.022931 -0.027168
v 0.125561 -0.014473 -0.014975
v 0.008428 0.000000 0.018137
v 0.004533 -0.014054 0.013488
v -0.002018 -0.019876 0.000938
v -0.007387 -0.014054 -0.012162
v -0.008428 -0.000000 -0.018137
v -0.004533 0.014054 -0.013488
v 0.002018 0.019876 -0.000938
v 0.007387 0.014054 0.012162
v 0.061436 -0.006544 -0.006496
v 0.057541 -0.020598 -0.011145
v 0.050990 -0.026420 -0.023695
v 0.045621 -0.020598 -0.036795
v 0.044579 -0.006544 -0.042770
v 0.048475 0.007511 -0.038121
v 0.055026 0.013332 -0.025571
v 0.060394 0.007511 -0.012471
v 0.055520 -0.006544 -0.004791
v 0.060085 -0.019638 -0.011274
v 0.060504 -0.025061 -0.025582
v 0.056532 -0.019638 -0.039334
v 0.050496 -0.006544 -0.044475
v 0.045931 0.006550 -0.037992
v 0.045512 0.011974 -0.023684
v 0.049484 0.006550 -0.009932
v 0.068969 -0.001012 -0.006494
v 0.073533 -0.014106 -0.012977
v 0.073953 -0.019530 -0.027285
v 0.069981 -0.014106 -0.041037
v 0.063944 -0.001012 -0.046177
v 0.059379 0.012082 -0.039695
v 0.058960 0.017505 -0.025387
v 0.062932 0.012082 -0.011634
v 0.063718 -0.001012 -0.006524
v 0.065214 -0.015137 -0.012231
v 0.067437 -0.020988 -0.026200
v 0.069086 -0.015137 -0.040249
v 0.069194 -0.001012 -0.046147
v 0.067699 0.013112 -0.040441
v 0.065475 0.018963 -0.026471
v 0.063827 0.013112 -0.012423
v 0.083953 0.000000 -0.003728
v 0.085449 -0.014124 -0.009434
v 0.087672 -0.019975 -0.023404
v 0.089321 -0.014124 -0.037452
v 0.089429 0.000000 -0.043351
v 0.087934 0.014125 -0.037644
v 0.085710 0.019976 -0.023675
v 0.084062 0.014125 -0.009626
v 0.080543 0.000000 -0.004508
v 0.079375 -0.013793 -0.011041
v 0.082493 -0.019507 -0.024896
v 0.088070 -0.013793 -0.037956
v 0.092840 0.000000 -0.042571
v 0.094008 0.013794 -0.036037
v 0.090890 0.019508 -0.022183
v 0.085312 0.013794 -0.009123
v 0.097655 -0.004067 0.001021
v 0.096487 -0.017860 -0.005513
v 0.099605 -0.023574 -0.019367
v 0.105182 -0.017860 -0.032427
v 0.109952 -0.004067 -0.037042
v 0.111120 0.009727 -0.030509
v 0.108002 0.015441 -0.016654
v 0.102424 0.009727 -0.003594
v -0.015000 -0.015000 -0.015000
v 0.015000 -0.015000 -0.015000
v 0.015000 0.015000 -0.015000
v -0.015000 0.015000 -0.015000
v -0.015000 -0.015000 0.015000
v 0.015000 -0.015000 0.015000
v 0.015000 0.015000 0.015000
v -0.015000 0.015000 0.015000
v 0.000732 -0.036659 -0.019115
v 0.030732 -0.036659 -0.019115
v 0.030732 -0.006659 -0.019115
v 0.000732 -0.006659 -0.019115
v 0.000732 -0.036659 0.010885
v 0.030732 -0.036659 0.010885
v 0.030732 -0.006659 0.010885
v 0.000732 -0.006659 0.010885
v 0.014780 -0.049410 -0.019243
v 0.044780 -0.049410 -0.019243
v 0.044780 -0.019410 -0.019243
v 0.014780 -0.019410 -0.019243
v 0.014780 -0.049410 0.010757
v 0.044780 -0.049410 0.010757
v 0.044780 -0.019410 0.010757
v 0.014780 -0.019410 0.010757
v 0.026854 -0.059159 -0.020511
v 0.056854 -0.059159 -0.020511
v 0.056854 -0.029159 -0.020511
v 0.026854 -0.029159 -0.020511
v 0.026854 -0.059159 0.009489
v 0.056854 -0.059159 0.009489
v 0.056854 -0.029159 0.009489
v 0.026854 -0.029159 0.009489
v 0.036401 -0.078250 -0.022956
v 0.066401 -0.078250 -0.022956
v 0.066401 -0.048250 -0.022956
v 0.036401 -0.048250 -0.022956
v 0.036401 -0.078250 0.007044
v 0.066401 -0.078250 0.007044
v 0.066401 -0.048250 0.007044
v 0.036401 -0.048250 0.007044
v 0.039727 -0.045292 -0.047627
v 0.069727 -0.045292 -0.047627
v 0.069727 -0.015292 -0.047627
v 0.039727 -0.015292 -0.047627
v 0.039727 -0.045292 -0.017627
v 0.069727 -0.045292 -0.017627
v 0.069727 -0.015292 -0.017627
v 0.039727 -0.015292 -0.017627
v 0.053986 -0.046571 -0.049554
v 0.083986 -0.046571 -0.049554
v 0.083986 -0.016571 -0.049554
v 0.053986 -0.016571 -0.049554
v 0.053986 -0.046571 -0.019554
v 0.083986 -0.046571 -0.019554
v 0.083986 -0.016571 -0.019554
v 0.053986 -0.016571 -0.019554
v 0.071719 -0.055213 -0.039011
v 0.101719 -0.055213 -0.039011
v 0.101719 -0.025213 -0.039011
v 0.071719 -0.025213 -0.039011
v 0.071719 -0.055213 -0.009011
v 0.101719 -0.055213 -0.009011
v 0.101719 -0.025213 -0.009011
v 0.071719 -0.025213 -0.009011
v 0.089934 -0.061985 -0.026495
v 0.119934 -0.061985 -0.026495
v 0.119934 -0.031985 -0.026495
v 0.089934 -0.031985 -0.026495
v 0.089934 -0.061985 0.003505
v 0.119934 -0.061985 0.003505
v 0.119934 -0.031985 0.003505
v 0.089934 -0.031985 0.003505
v 0.041924 -0.036378 -0.048199
v 0.071924 -0.036378 -0.048199
v 0.071924 -0.006378 -0.048199
v 0.041924 -0.006378 -0.048199
v 0.041924 -0.036378 -0.018199
v 0.071924 -0.036378 -0.018199
v 0.071924 -0.006378 -0.018199
v 0.041924 -0.006378 -0.018199
v 0.060188 -0.040398 -0.050480
v 0.090188 -0.040398 -0.050480
v 0.090188 -0.010398 -0.050480
v 0.060188 -0.010398 -0.050480
v 0.060188 -0.040398 -0.020480
v 0.090188 -0.040398 -0.020480
v 0.090188 -0.010398 -0.020480
v 0.060188 -0.010398 -0.020480
v 0.084308 -0.049848 -0.042147
v 0.114308 -0.049848 -0.042147
v 0.114308 -0.019848 -0.042147
v 0.084308 -0.019848 -0.042147
v 0.084308 -0.049848 -0.012147
v 0.114308 -0.049848 -0.012147
v 0.114308 -0.019848 -0.012147
v 0.084308 -0.019848 -0.012147
v 0.105922 -0.059780 -0.027365
v 0.135922 -0.059780 -0.027365
v 0.135922 -0.029780 -0.027365
v 0.105922 -0.029780 -0.027365
v 0.105922 -0.059780 0.002635
v 0.135922 -0.059780 0.002635
v 0.135922 -0.029780 0.002635
v 0.105922 -0.029780 0.002635
v 0.044090 -0.028058 -0.048435
v 0.074090 -0.028058 -0.048435
v 0.074090 0.001942 -0.048435
v 0.044090 0.001942 -0.048435
v 0.044090 -0.028058 -0.018435
v 0.074090 -0.028058 -0.018435
v 0.074090 0.001942 -0.018435
v 0.044090 0.001942 -0.018435
v 0.057399 -0.031676 -0.047677
v 0.087399 -0.031676 -0.047677
v 0.087399 -0.001676 -0.047677
v 0.057399 -0.001676 -0.047677
v 0.057399 -0.031676 -0.017677
v 0.087399 -0.031676 -0.017677
v 0.087399 -0.001676 -0.017677
v 0.057399 -0.001676 -0.017677
v 0.082346 -0.037526 -0.042692
v 0.112346 -0.037526 -0.042692
v 0.112346 -0.007526 -0.042692
v 0.082346 -0.007526 -0.042692
v 0.082346 -0.037526 -0.012692
v 0.112346 -0.037526 -0.012692
v 0.112346 -0.007526 -0.012692
v 0.082346 -0.007526 -0.012692
v 0.101490 -0.047298 -0.030015
v 0.131490 -0.047298 -0.030015
v 0.131490 -0.017298 -0.030015
v 0.101490 -0.017298 -0.030015
v 0.101490 -0.047298 -0.000015
v 0.131490 -0.047298 -0.000015
v 0.131490 -0.017298 -0.000015
v 0.101490 -0.017298 -0.000015
v 0.038008 -0.021544 -0.039633
v 0.068008 -0.021544 -0.039633
v 0.068008 0.008456 -0.039633
v 0.038008 0.008456 -0.039633
v 0.038008 -0.021544 -0.009633
v 0.068008 -0.021544 -0.009633
v 0.068008 0.008456 -0.009633
v 0.038008 0.008456 -0.009633
v 0.051456 -0.016012 -0.041336
v 0.081456 -0.016012 -0.041336
v 0.081456 0.013988 -0.041336
v 0.051456 0.013988 -0.041336
v 0.051456 -0.016012 -0.011336
v 0.081456 -0.016012 -0.011336
v 0.081456 0.013988 -0.011336
v 0.051456 0.013988 -0.011336
v 0.071691 -0.015000 -0.038539
v 0.101691 -0.015000 -0.038539
v 0.101691 0.015000 -0.038539
v 0.071691 0.015000 -0.038539
v 0.071691 -0.015000 -0.008539
v 0.101691 -0.015000 -0.008539
v 0.101691 0.015000 -0.008539
v 0.071691 0.015000 -0.008539
v 0.088803 -0.019067 -0.033011
v 0.118803 -0.019067 -0.033011
v 0.118803 0.010933 -0.033011
v 0.088803 0.010933 -0.033011
v 0.088803 -0.019067 -0.003011
v 0.118803 -0.019067 -0.003011
v 0.118803 0.010933 -0.003011
v 0.088803 0.010933 -0.003011
f 1 2 9
f 2 10 9
f 2 3 10
f 3 11 10
f 3 4 11
f 4 12 11
f 4 5 12
f 5 13 12
f 5 6 13
f 6 14 13
f 6 7 14
f 7 15 14
f 7 8 15
f 8 16 15
f 8 1 16
f 1 9 16
f 17 18 25
f 18 26 25
f 18 19 26
f 19 27 26
f 19 20 27
f 20 28 27
f 20 21 28
f 21 29 28
f 21 22 29
f 22 30 29
f 22 23 30
f 23 31 30
f 23 24 31
f 24 32 31
f 24 17 32
f 17 25 32
f 33 34 41
f 34 42 41
f 34 35 42
f 35 43 42
f 35 36 43
f 36 44 43
f 36 37 44
f 37 45 44
f 37 38 45
f 38 46 45
f 38 39 46
f 39 47 46
f 39 40 47
f 40 48 47
f 40 33 48
f 33 41 48
f 49 50 57
f 50 58 57
f 50 51 58
f 51 59 58
f 51 52 59
f 52 60 59
f 52 53 60
f 53 61 60
f 53 54 61
f 54 62 61
f 54 55 62
f 55 63 62
f 55 56 63
f 56 64 63
f 56 49 64
f 49 57 64
f 65 66 73
f 66 74 73
f 66 67 74
f 67 75 74
f 67 68 75
f 68 76 75
f 68 69 76
f 69 77 76
f 69 70 77
f 70 78 77
f 70 71 78
f 71 79 78
f 71 72 79
f 72 80 79
f 72 65 80
f 65 73 80
f 81 82 89
f 82 90 89
f 82 83 90
f 83 91 90
f 83 84 91
f 84 92 91
f 84 85 92
f 85 93 92
f 85 86 93
f 86 94 93
f 86 87 94
f 87 95 94
f 87 88 95
f 88 96 95
f 88 81 96
f 81 89 96
f 97 98 105
f 98 106 105
f 98 99 106
f 99 107 106
f 99 100 107
f 100 108 107
f 100 101 108
f 101 109 108
f 101 102 109
f 102 110 109
f 102 103 110
f 103 111 110
f 103 104 111
f 104 112 111
f 104 97 112
f 97 105 112
f 113 114 121
f 114 122 121
f 114 115 122
f 115 123 122
f 115 116 123
f 116 124 123
f 116 117 124
f 117 125 124
f 117 118 125
f 118 126 125
f 118 119 126
f 119 127 126
f 119 120 127
f 120 128 127
f 120 113 128
f 113 121 128
f 129 130 137
f 130 138 137
f 130 131 138
f 131 139 138
f 131 132 139
f 132 140 139
f 132 133 140
f 133 141 140
f 133 134 141
f 134 142 141
f 134 135 142
f 135 143 142
f 135 136 143
f 136 144 143
f 136 129 144
f 129 137 144
f 145 146 153
f 146 154 153
f 146 147 154
f 147 155 154
f 147 148 155
f 148 156 155
f 148 149 156
f 149 157 156
f 149 150 157
f 150 158 157
f 150 151 158
f 151 159 158
f 151 152 159
f 152 160 159
f 152 145 160
f 145 153 160
f 161 162 169
f 162 170 169
f 162 163 170
f 163 171 170
f 163 164 171
f 164 172 171
f 164 165 172
f 165 173 172
f 165 166 173
f 166 174 173
f 166 167 174
f 167 175 174
f 167 168 175
f 168 176 175
f 168 161 176
f 161 169 176
f 177 178 185
f 178 186 185
f 178 179 186
f 179 187 186
f 179 180 187
f 180 188 187
f 180 181 188
f 181 189 188
f 181 182 189
f 182 190 189
f 182 183 190
f 183 191 190
f 183 184 191
f 184 192 191
f 184 177 192
f 177 185 192
f 193 194 201
f 194 202 201
f 194 195 202
f 195 203 202
f 195 196 203
f 196 204 203
f 196 197 204
f 197 205 204
f 197 198 205
f 198 206 205
f 198 199 206
f 199 207 206
f 199 200 207
f 200 208 207
f 200 193 208
f 193 201 208
f 209 210 217
f 210 218 217
f 210 211 218
f 211 219 218
f 211 212 219
f 212 220 219
f 212 213 220
f 213 221 220
f 213 214 221
f 214 222 221
f 214 215 222
f 215 223 222
f 215 216 223
f 216 224 223
f 216 209 224
f 209 217 224
f 225 226 233
f 226 234 233
f 226 227 234
f 227 235 234
f 227 228 235
f 228 236 235
f 228 229 236
f 229 237 236
f 229 230 237
f 230 238 237
f 230 231 238
f 231 239 238
f 231 232 239
f 232 240 239
f 232 225 240
f 225 233 240
f 241 242 249
f 242 250 249
f 242 243 250
f 243 251 250
f 243 244 251
f 244 252 251
f 244 245 252
f 245 253 252
f 245 246 253
f 246 254 253
f 246 247 254
f 247 255 254
f 247 248 255
f 248 256 255
f 248 241 256
f 241 249 256
f 257 258 265
f 258 266 265
f 258 259 266
f 259 267 266
f 259 260 267
f 260 268 267
f 260 261 268
f 261 269 268
f 261 262 269
f 262 270 269
f 262 263 270
f 263 271 270
f 263 264 271
f 264 272 271
f 264 257 272
f 257 265 272
f 273 274 281
f 274 282 281
f 274 275 282
f 275 283 282
f 275 276 283
f 276 284 283
f 276 277 284
f 277 285 284
f 277 278 285
f 278 286 285
f 278 279 286
f 279 287 286
f 279 280 287
f 280 288 287
f 280 273 288
f 273 281 288
f 289 290 297
f 290 298 297
f 290 291 298
f 291 299 298
f 291 292 299
f 292 300 299
f 292 293 300
f 293 301 300
f 293 294 301
f 294 302 301
f 294 295 302
f 295 303 302
f 295 296 303
f 296 304 303
f 296 289 304
f 289 297 304
f 305 306 313
f 306 314 313
f 306 307 314
f 307 315 314
f 307 308 315
f 308 316 315
f 308 309 316
f 309 317 316
f 309 310 317
f 310 318 317
f 310 311 318
f 311 319 318
f 311 312 319
f 312 320 319
f 312 305 320
f 305 313 320
f 321 322 323
f 321 323 324
f 325 326 327
f 325 327 328
f 321 325 326
f 321 326 322
f 322 326 327
f 322 327 323
f 323 327 328
f 323 328 324
f 324 328 325
f 324 325 321
f 329 330 331
f 329 331 332
f 333 334 335
f 333 335 336
f 329 333 334
f 329 334 330
f 330 334 335
f 330 335 331
f 331 335 336
f 331 336 332
f 332 336 333
f 332 333 329
f 337 338 339
f 337 339 340
f 341 342 343
f 341 343 344
f 337 341 342
f 337 342 338
f 338 342 343
f 338 343 339
f 339 343 344
f 339 344 340
f 340 344 341
f 340 341 337
f 345 346 347
f 345 347 348
f 349 350 351
f 349 351 352
f 345 349 350
f 345 350 346
f 346 350 351
f 346 351 347
f 347 351 352
f 347 352 348
f 348 352 349
f 348 349 345
f 353 354 355
f 353 355 356
f 357 358 359
f 357 359 360
f 353 357 358
f 353 358 354
f 354 358 359
f 354 359 355
f 355 359 360
f 355 360 356
f 356 360 357
f 356 357 353
f 361 362 363
f 361 363 364
f 365 366 367
f 365 367 368
f 361 365 366
f 361 366 362
f 362 366 367
f 362 367 363
f 363 367 368
f 363 368 364
f 364 368 365
f 364 365 361
f 369 370 371
f 369 371 372
f 373 374 375
f 373 375 376
f 369 373 374
f 369 374 370
f 370 374 375
f 370 375 371
f 371 375 376
f 371 376 372
f 372 376 373
f 372 373 369
f 377 378 379
f 377 379 380
f 381 382 383
f 381 383 384
f 377 381 382
f 377 382 378
f 378 382 383
f 378 383 379
f 379 383 384
f 379 384 380
f 380 384 381
f 380 381 377
f 385 386 387
f 385 387 388
f 389 390 391
f 389 391 392
f 385 389 390
f 385 390 386
f 386 390 391
f 386 391 387
f 387 391 392
f 387 392 388
f 388 392 389
f 388 389 385
f 393 394 395
f 393 395 396
f 397 398 399
f 397 399 400
f 393 397 398
f 393 398 394
f 394 398 399
f 394 399 395
f 395 399 400
f 395 400 396
f 396 400 397
f 396 397 393
f 401 402 403
f 401 403 404
f 405 406 407
f 405 407 408
f 401 405 406
f 401 406 402
f 402 406 407
f 402 407 403
f 403 407 408
f 403 408 404
f 404 408 405
f 404 405 401
f 409 410 411
f 409 411 412
f 413 414 415
f 413 415 416
f 409 413 414
f 409 414 410
f 410 414 415
f 410 415 411
f 411 415 416
f 411 416 412
f 412 416 413
f 412 413 409
f 417 418 419
f 417 419 420
f 421 422 423
f 421 423 424
f 417 421 422
f 417 422 418
f 418 422 423
f 418 423 419
f 419 423 424
f 419 424 420
f 420 424 421
f 420 421 417
f 425 426 427
f 425 427 428
f 429 430 431
f 429 431 432
f 425 429 430
f 425 430 426
f 426 430 431
f 426 431 427
f 427 431 432
f 427 432 428
f 428 432 429
f 428 429 425
f 433 434 435
f 433 435 436
f 437 438 439
f 437 439 440
f 433 437 438
f 433 438 434
f 434 438 439
f 434 439 435
f 435 439 440
f 435 440 436
f 436 440 437
f 436 437 433
f 441 442 443
f 441 443 444
f 445 446 447
f 445 447 448
f 441 445 446
f 441 446 442
f 442 446 447
f 442 447 443
f 443 447 448
f 443 448 444
f 444 448 445
f 444 445 441
f 449 450 451
f 449 451 452
f 453 454 455
f 453 455 456
f 449 453 454
f 449 454 450
f 450 454 455
f 450 455 451
f 451 455 456
f 451 456 452
f 452 456 453
f 452 453 449
f 457 458 459
f 457 459 460
f 461 462 463
f 461 463 464
f 457 461 462
f 457 462 458
f 458 462 463
f 458 463 459
f 459 463 464
f 459 464 460
f 460 464 461
f 460 461 457
f 465 466 467
f 465 467 468
f 469 470 471
f 469 471 472
f 465 469 470
f 465 470 466
f 466 470 471
f 466 471 467
f 467 471 472
f 467 472 468
f 468 472 469
f 468 469 465
f 473 474 475
f 473 475 476
f 477 478 479
f 477 479 480
f 473 477 478
f 473 478 474
f 474 478 479
f 474 479 475
f 475 479 480
f 475 480 476
f 476 480 477
f 476 477 473
f 481 482 483
f 481 483 484
f 485 486 487
f 485 487 488
f 481 485 486
f 481 486 482
f 482 486 487
f 482 487 483
f 483 487 488
f 483 488 484
f 484 488 485
f 484 485 481
