# SignFlow 3D Hand Mesh - Frame 47
v 0.000000 0.007518 0.018533
v -0.010491 0.014104 0.009540
v -0.014837 0.012428 -0.005042
v -0.010491 0.003472 -0.016670
v -0.000000 -0.007518 -0.018533
v 0.010491 -0.014104 -0.009540
v 0.014837 -0.012428 0.005042
v 0.010491 -0.003472 0.016670
v -0.021864 -0.014894 0.027625
v -0.032355 -0.008308 0.018632
v -0.036700 -0.009985 0.004050
v -0.032355 -0.018941 -0.007578
v -0.021864 -0.029931 -0.009441
v -0.011372 -0.036517 -0.000448
v -0.007027 -0.034841 0.014134
v -0.011372 -0.025884 0.025762
v -0.027150 -0.022413 -0.010197
v -0.021251 -0.035816 -0.005740
v -0.015711 -0.041368 0.007406
v -0.013775 -0.035816 0.021539
v -0.016577 -0.022413 0.028381
v -0.022477 -0.009009 0.023924
v -0.028017 -0.003457 0.010778
v -0.029952 -0.009009 -0.003355
v -0.053706 -0.031680 -0.002919
v -0.047807 -0.045084 0.001538
v -0.042267 -0.050636 0.014684
v -0.040331 -0.045084 0.028817
v -0.043134 -0.031680 0.035659
v -0.049033 -0.018277 0.031201
v -0.054573 -0.012725 0.018056
v -0.056508 -0.018277 0.003923
v -0.052972 -0.031680 -0.003105
v -0.055469 -0.045264 0.003494
v -0.053837 -0.050891 0.017636
v -0.049032 -0.045264 0.031036
v -0.043868 -0.031680 0.035845
v -0.041370 -0.018097 0.029245
v -0.043002 -0.012470 0.015103
v -0.047807 -0.018097 0.001703
v -0.069755 -0.026689 0.000817
v -0.072253 -0.040272 0.007417
v -0.070621 -0.045899 0.021559
v -0.065815 -0.040272 0.034959
v -0.060651 -0.026689 0.039768
v -0.058153 -0.013105 0.033168
v -0.059785 -0.007478 0.019026
v -0.064591 -0.013105 0.005626
v -0.065203 -0.032958 0.001301
v -0.074933 -0.040868 0.010081
v -0.078963 -0.040472 0.024843
v -0.074933 -0.032001 0.036939
v -0.065203 -0.020419 0.039284
v -0.055474 -0.012509 0.030504
v -0.051444 -0.012906 0.015742
v -0.055474 -0.021376 0.003646
v -0.076059 -0.023186 -0.001925
v -0.085788 -0.031096 0.006855
v -0.089818 -0.030700 0.021617
v -0.085788 -0.022229 0.033713
v -0.076059 -0.010647 0.036058
v -0.066329 -0.002737 0.027278
v -0.062299 -0.003134 0.012516
v -0.066329 -0.011604 0.000420
v 0.000000 -0.009845 0.017409
v -0.007823 0.003293 0.018109
v -0.011064 0.014503 0.008201
v -0.007823 0.017216 -0.006511
v -0.000000 0.009845 -0.017409
v 0.007823 -0.003293 -0.018109
v 0.011064 -0.014503 -0.008201
v 0.007823 -0.017216 0.006511
v -0.068648 -0.049526 -0.005031
v -0.076471 -0.036388 -0.004331
v -0.079712 -0.025179 -0.014239
v -0.076471 -0.022465 -0.028951
v -0.068648 -0.029836 -0.039849
v -0.060824 -0.042975 -0.040550
v -0.057584 -0.054184 -0.030642
v -0.060824 -0.056898 -0.015929
v -0.074655 -0.039681 -0.041517
v -0.072290 -0.053809 -0.036120
v -0.067792 -0.059661 -0.022710
v -0.063794 -0.053809 -0.009142
v -0.062640 -0.039681 -0.003364
v -0.065005 -0.025554 -0.008761
v -0.069504 -0.019702 -0.022171
v -0.073501 -0.025554 -0.035739
v -0.092521 -0.040523 -0.035890
v -0.090156 -0.054651 -0.030494
v -0.085658 -0.060503 -0.017084
v -0.081660 -0.054651 -0.003515
v -0.080506 -0.040523 0.002263
v -0.082871 -0.026395 -0.003134
v -0.087370 -0.020543 -0.016544
v -0.091367 -0.026395 -0.030112
v -0.086514 -0.021539 -0.023108
v -0.100313 -0.028073 -0.024202
v -0.106029 -0.041900 -0.020967
v -0.100313 -0.054920 -0.015300
v -0.086514 -0.059507 -0.010519
v -0.072714 -0.052973 -0.009426
v -0.066998 -0.039146 -0.012660
v -0.072714 -0.026126 -0.018328
v -0.090781 -0.015551 -0.005048
v -0.104580 -0.022085 -0.006141
v -0.110296 -0.035912 -0.002907
v -0.104580 -0.048932 0.002761
v -0.090781 -0.053518 0.007542
v -0.076981 -0.046984 0.008635
v -0.071265 -0.033157 0.005401
v -0.076981 -0.020137 -0.000267
v -0.090781 -0.015334 -0.004350
v -0.104676 -0.020222 -0.000189
v -0.110432 -0.033495 0.004814
v -0.104676 -0.047376 0.007727
v -0.090781 -0.053735 0.006844
v -0.076885 -0.048847 0.002683
v -0.071129 -0.035574 -0.002320
v -0.076885 -0.021693 -0.005233
v -0.087573 -0.010586 0.011935
v -0.101469 -0.015475 0.016097
v -0.107225 -0.028747 0.021100
v -0.101469 -0.042629 0.024013
v -0.087573 -0.048988 0.023130
v -0.073677 -0.044099 0.018968
v -0.067922 -0.030827 0.013966
v -0.073677 -0.016945 0.011053
v 0.000000 -0.014977 0.013255
v -0.007450 -0.002623 0.018374
v -0.010536 0.011267 0.012730
v -0.007450 0.018557 -0.000372
v -0.000000 0.014977 -0.013255
v 0.007450 0.002623 -0.018374
v 0.010536 -0.011267 -0.012730
v 0.007450 -0.018557 0.000372
v -0.072293 -0.044674 -0.020298
v -0.079743 -0.032320 -0.015179
v -0.082829 -0.018430 -0.020824
v -0.079743 -0.011140 -0.033925
v -0.072293 -0.014720 -0.046809
v -0.064842 -0.027074 -0.051927
v -0.061756 -0.040964 -0.046283
v -0.064842 -0.048254 -0.033182
v -0.074909 -0.029697 -0.053381
v -0.073087 -0.043799 -0.047713
v -0.070799 -0.049640 -0.033750
v -0.069386 -0.043799 -0.019672
v -0.069676 -0.029697 -0.013725
v -0.071498 -0.015595 -0.019393
v -0.073786 -0.009754 -0.033356
v -0.075199 -0.015595 -0.047435
v -0.099078 -0.031539 -0.050192
v -0.097256 -0.045640 -0.044524
v -0.094968 -0.051482 -0.030561
v -0.093555 -0.045640 -0.016482
v -0.093845 -0.031539 -0.010536
v -0.095667 -0.017437 -0.016204
v -0.097955 -0.011595 -0.030167
v -0.099368 -0.017437 -0.044245
v -0.096462 -0.013950 -0.039885
v -0.110600 -0.018947 -0.036810
v -0.116456 -0.031319 -0.029958
v -0.110600 -0.043820 -0.023344
v -0.096462 -0.049127 -0.020842
v -0.082323 -0.044130 -0.023918
v -0.076467 -0.031758 -0.030769
v -0.082323 -0.019257 -0.037383
v -0.095883 -0.002000 -0.017811
v -0.110021 -0.006996 -0.014735
v -0.115877 -0.019369 -0.007883
v -0.110021 -0.031869 -0.001270
v -0.095883 -0.037176 0.001232
v -0.081744 -0.032180 -0.001843
v -0.075888 -0.019808 -0.008695
v -0.081744 -0.007307 -0.015309
v -0.095883 0.000406 -0.008774
v -0.109432 -0.005352 -0.004582
v -0.115044 -0.019449 -0.002561
v -0.109432 -0.033628 -0.003896
v -0.095883 -0.039582 -0.007804
v -0.082333 -0.033824 -0.011996
v -0.076721 -0.019727 -0.014017
v -0.082333 -0.005548 -0.012683
v -0.089246 0.000945 0.013413
v -0.102796 -0.004813 0.017605
v -0.108408 -0.018911 0.019626
v -0.102796 -0.033089 0.018292
v -0.089246 -0.039044 0.014383
v -0.075697 -0.033286 0.010191
v -0.070085 -0.019189 0.008170
v -0.075697 -0.005010 0.009505
v 0.000000 -0.018179 0.008337
v -0.007506 -0.007858 0.016790
v -0.010615 0.007066 0.015407
v -0.007506 0.017851 0.004999
v -0.000000 0.018179 -0.008337
v 0.007506 0.007858 -0.016790
v 0.010615 -0.007066 -0.015407
v 0.007506 -0.017851 -0.004999
v -0.072856 -0.037199 -0.033134
v -0.080362 -0.026878 -0.024682
v -0.083471 -0.011954 -0.026064
v -0.080362 -0.001169 -0.036473
v -0.072856 -0.000841 -0.049809
v -0.065350 -0.011162 -0.058262
v -0.062241 -0.026086 -0.056879
v -0.065350 -0.036871 -0.046471
v -0.079688 -0.019020 -0.060269
v -0.080506 -0.032841 -0.053739
v -0.076842 -0.038565 -0.040023
v -0.070844 -0.032841 -0.027156
v -0.066024 -0.019020 -0.022675
v -0.065207 -0.005199 -0.029205
v -0.068870 0.000525 -0.042920
v -0.074869 -0.005199 -0.055788
v -0.100108 -0.014305 -0.052847
v -0.100926 -0.028126 -0.046317
v -0.097262 -0.033851 -0.032601
v -0.091264 -0.028126 -0.019734
v -0.086444 -0.014305 -0.015253
v -0.085627 -0.000485 -0.021783
v -0.089290 0.005240 -0.035499
v -0.095289 -0.000485 -0.048366
v -0.093276 0.004931 -0.039524
v -0.107399 -0.000499 -0.037204
v -0.113249 -0.014017 -0.033036
v -0.107399 -0.027704 -0.029462
v -0.093276 -0.033542 -0.028576
v -0.079154 -0.028111 -0.030896
v -0.073304 -0.014594 -0.035063
v -0.079154 -0.000907 -0.038637
v -0.092049 0.011299 -0.017148
v -0.106171 0.005868 -0.014828
v -0.112021 -0.007649 -0.010660
v -0.106171 -0.021336 -0.007086
v -0.092049 -0.027174 -0.006199
v -0.077926 -0.021744 -0.008519
v -0.072077 -0.008226 -0.012687
v -0.077926 0.005461 -0.016261
v -0.092049 0.012054 -0.012241
v -0.105350 0.006335 -0.007273
v -0.110860 -0.007745 -0.004883
v -0.105350 -0.021938 -0.006470
v -0.092049 -0.027930 -0.011106
v -0.078748 -0.022210 -0.016074
v -0.073238 -0.008130 -0.018464
v -0.078748 0.006063 -0.016876
v -0.084504 0.012647 0.008643
v -0.097805 0.006928 0.013610
v -0.103315 -0.007152 0.016001
v -0.097805 -0.021345 0.014413
v -0.084504 -0.027337 0.009778
v -0.071203 -0.021618 0.004810
v -0.065693 -0.007538 0.002419
v -0.071203 0.006655 0.004007
v 0.000000 -0.019997 -0.000338
v -0.007180 -0.014346 0.011943
v -0.010154 -0.000292 0.017228
v -0.007180 0.013934 0.012422
v -0.000000 0.019997 0.000338
v 0.007180 0.014346 -0.011943
v 0.010154 0.000292 -0.017228
v 0.007180 -0.013934 -0.012422
v -0.067528 -0.019324 -0.040126
v -0.074708 -0.013673 -0.027845
v -0.077682 0.000382 -0.022559
v -0.074708 0.014607 -0.027366
v -0.067528 0.020671 -0.039449
v -0.060348 0.015020 -0.051731
v -0.057374 0.000965 -0.057016
v -0.060348 -0.013260 -0.052209
v -0.074573 0.000673 -0.058506
v -0.074375 -0.013328 -0.052321
v -0.070166 -0.019127 -0.038795
v -0.064412 -0.013328 -0.025850
v -0.060483 0.000673 -0.021070
v -0.060682 0.014674 -0.027254
v -0.064891 0.020474 -0.040780
v -0.070645 0.014674 -0.053725
v -0.089734 0.002979 -0.052800
v -0.089536 -0.011022 -0.046615
v -0.085326 -0.016821 -0.033089
v -0.079572 -0.011022 -0.020144
v -0.075644 0.002979 -0.015363
v -0.075842 0.016980 -0.021548
v -0.080051 0.022779 -0.035074
v -0.085806 0.016980 -0.048019
v -0.082689 0.021750 -0.040985
v -0.096823 0.016421 -0.038503
v -0.102677 0.003218 -0.033431
v -0.096823 -0.010125 -0.028740
v -0.082689 -0.015792 -0.027178
v -0.068555 -0.010463 -0.029660
v -0.062701 0.002740 -0.034732
v -0.068555 0.016083 -0.039423
v -0.082046 0.028155 -0.023569
v -0.096179 0.022827 -0.021087
v -0.102034 0.009624 -0.016015
v -0.096179 -0.003719 -0.011323
v -0.082046 -0.009386 -0.009761
v -0.067912 -0.004057 -0.012243
v -0.062058 0.009146 -0.017315
v -0.067912 0.022489 -0.022007
v -0.082046 0.029383 -0.016407
v -0.094380 0.023437 -0.009565
v -0.099489 0.009259 -0.006881
v -0.094380 -0.004845 -0.009929
v -0.082046 -0.010613 -0.016922
v -0.069711 -0.004667 -0.023765
v -0.064602 0.009511 -0.026449
v -0.069711 0.023615 -0.023401
v -0.073623 0.029190 -0.001394
v -0.085957 0.023243 0.005449
v -0.091066 0.009066 0.008132
v -0.085957 -0.005038 0.005085
v -0.073623 -0.010807 -0.001909
v -0.061289 -0.004860 -0.008751
v -0.056180 0.009318 -0.011435
v -0.061289 0.023422 -0.008387
v -0.015000 -0.015000 -0.015000
v 0.015000 -0.015000 -0.015000
v 0.015000 0.015000 -0.015000
v -0.015000 0.015000 -0.015000
v -0.015000 -0.015000 0.015000
v 0.015000 -0.015000 0.015000
v 0.015000 0.015000 0.015000
v -0.015000 0.015000 0.015000
v -0.036864 -0.037413 -0.005908
v -0.006864 -0.037413 -0.005908
v -0.006864 -0.007413 -0.005908
v -0.036864 -0.007413 -0.005908
v -0.036864 -0.037413 0.024092
v -0.006864 -0.037413 0.024092
v -0.006864 -0.007413 0.024092
v -0.036864 -0.007413 0.024092
v -0.063420 -0.046680 0.001370
v -0.033420 -0.046680 0.001370
v -0.033420 -0.016680 0.001370
v -0.063420 -0.016680 0.001370
v -0.063420 -0.046680 0.031370
v -0.033420 -0.046680 0.031370
v -0.033420 -0.016680 0.031370
v -0.063420 -0.016680 0.031370
v -0.080203 -0.041689 0.005293
v -0.050203 -0.041689 0.005293
v -0.050203 -0.011689 0.005293
v -0.080203 -0.011689 0.005293
v -0.080203 -0.041689 0.035293
v -0.050203 -0.041689 0.035293
v -0.050203 -0.011689 0.035293
v -0.080203 -0.011689 0.035293
v -0.091059 -0.031917 0.002066
v -0.061059 -0.031917 0.002066
v -0.061059 -0.001917 0.002066
v -0.091059 -0.001917 0.002066
v -0.091059 -0.031917 0.032066
v -0.061059 -0.031917 0.032066
v -0.061059 -0.001917 0.032066
v -0.091059 -0.001917 0.032066
v -0.083648 -0.054681 -0.037440
v -0.053648 -0.054681 -0.037440
v -0.053648 -0.024681 -0.037440
v -0.083648 -0.024681 -0.037440
v -0.083648 -0.054681 -0.007440
v -0.053648 -0.054681 -0.007440
v -0.053648 -0.024681 -0.007440
v -0.083648 -0.024681 -0.007440
v -0.101514 -0.055523 -0.031814
v -0.071514 -0.055523 -0.031814
v -0.071514 -0.025523 -0.031814
v -0.101514 -0.025523 -0.031814
v -0.101514 -0.055523 -0.001814
v -0.071514 -0.055523 -0.001814
v -0.071514 -0.025523 -0.001814
v -0.101514 -0.025523 -0.001814
v -0.105781 -0.049534 -0.013753
v -0.075781 -0.049534 -0.013753
v -0.075781 -0.019534 -0.013753
v -0.105781 -0.019534 -0.013753
v -0.105781 -0.049534 0.016247
v -0.075781 -0.049534 0.016247
v -0.075781 -0.019534 0.016247
v -0.105781 -0.019534 0.016247
v -0.102573 -0.044787 0.002533
v -0.072573 -0.044787 0.002533
v -0.072573 -0.014787 0.002533
v -0.102573 -0.014787 0.002533
v -0.102573 -0.044787 0.032533
v -0.072573 -0.044787 0.032533
v -0.072573 -0.014787 0.032533
v -0.102573 -0.014787 0.032533
v -0.087293 -0.044697 -0.048553
v -0.057293 -0.044697 -0.048553
v -0.057293 -0.014697 -0.048553
v -0.087293 -0.014697 -0.048553
v -0.087293 -0.044697 -0.018553
v -0.057293 -0.044697 -0.018553
v -0.057293 -0.014697 -0.018553
v -0.087293 -0.014697 -0.018553
v -0.111462 -0.046539 -0.045364
v -0.081462 -0.046539 -0.045364
v -0.081462 -0.016539 -0.045364
v -0.111462 -0.016539 -0.045364
v -0.111462 -0.046539 -0.015364
v -0.081462 -0.046539 -0.015364
v -0.081462 -0.016539 -0.015364
v -0.111462 -0.016539 -0.015364
v -0.110883 -0.034588 -0.023289
v -0.080883 -0.034588 -0.023289
v -0.080883 -0.004588 -0.023289
v -0.110883 -0.004588 -0.023289
v -0.110883 -0.034588 0.006711
v -0.080883 -0.034588 0.006711
v -0.080883 -0.004588 0.006711
v -0.110883 -0.004588 0.006711
v -0.104246 -0.034050 -0.001102
v -0.074246 -0.034050 -0.001102
v -0.074246 -0.004050 -0.001102
v -0.104246 -0.004050 -0.001102
v -0.104246 -0.034050 0.028898
v -0.074246 -0.034050 0.028898
v -0.074246 -0.004050 0.028898
v -0.104246 -0.004050 0.028898
v -0.087856 -0.034020 -0.056472
v -0.057856 -0.034020 -0.056472
v -0.057856 -0.004020 -0.056472
v -0.087856 -0.004020 -0.056472
v -0.087856 -0.034020 -0.026472
v -0.057856 -0.034020 -0.026472
v -0.057856 -0.004020 -0.026472
v -0.087856 -0.004020 -0.026472
v -0.108276 -0.029305 -0.049050
v -0.078276 -0.029305 -0.049050
v -0.078276 0.000695 -0.049050
v -0.108276 0.000695 -0.049050
v -0.108276 -0.029305 -0.019050
v -0.078276 -0.029305 -0.019050
v -0.078276 0.000695 -0.019050
v -0.108276 0.000695 -0.019050
v -0.107049 -0.022938 -0.026673
v -0.077049 -0.022938 -0.026673
v -0.077049 0.007062 -0.026673
v -0.107049 0.007062 -0.026673
v -0.107049 -0.022938 0.003327
v -0.077049 -0.022938 0.003327
v -0.077049 0.007062 0.003327
v -0.107049 0.007062 0.003327
v -0.099504 -0.022345 -0.005790
v -0.069504 -0.022345 -0.005790
v -0.069504 0.007655 -0.005790
v -0.099504 0.007655 -0.005790
v -0.099504 -0.022345 0.024210
v -0.069504 -0.022345 0.024210
v -0.069504 0.007655 0.024210
v -0.099504 0.007655 0.024210
v -0.082528 -0.014327 -0.054788
v -0.052528 -0.014327 -0.054788
v -0.052528 0.015673 -0.054788
v -0.082528 0.015673 -0.054788
v -0.082528 -0.014327 -0.024788
v -0.052528 -0.014327 -0.024788
v -0.052528 0.015673 -0.024788
v -0.082528 0.015673 -0.024788
v -0.097689 -0.012021 -0.049081
v -0.067689 -0.012021 -0.049081
v -0.067689 0.017979 -0.049081
v -0.097689 0.017979 -0.049081
v -0.097689 -0.012021 -0.019081
v -0.067689 -0.012021 -0.019081
v -0.067689 0.017979 -0.019081
v -0.097689 0.017979 -0.019081
v -0.097046 -0.005615 -0.031665
v -0.067046 -0.005615 -0.031665
v -0.067046 0.024385 -0.031665
v -0.097046 0.024385 -0.031665
v -0.097046 -0.005615 -0.001665
v -0.067046 -0.005615 -0.001665
v -0.067046 0.024385 -0.001665
v -0.097046 0.024385 -0.001665
v -0.088623 -0.005808 -0.016651
v -0.058623 -0.005808 -0.016651
v -0.058623 0.024192 -0.016651
v -0.088623 0.024192 -0.016651
v -0.088623 -0.005808 0.013349
v -0.058623 -0.005808 0.013349
v -0.058623 0.024192 0.013349
v -0.088623 0.024192 0.013349
f 1 2 9
f 2 10 9
f 2 3 10
f 3 11 10
f 3 4 11
f 4 12 11
f 4 5 12
f 5 13 12
f 5 6 13
f 6 14 13
f 6 7 14
f 7 15 14
f 7 8 15
f 8 16 15
f 8 1 16
f 1 9 16
f 17 18 25
f 18 26 25
f 18 19 26
f 19 27 26
f 19 20 27
f 20 28 27
f 20 21 28
f 21 29 28
f 21 22 29
f 22 30 29
f 22 23 30
f 23 31 30
f 23 24 31
f 24 32 31
f 24 17 32
f 17 25 32
f 33 34 41
f 34 42 41
f 34 35 42
f 35 43 42
f 35 36 43
f 36 44 43
f 36 37 44
f 37 45 44
f 37 38 45
f 38 46 45
f 38 39 46
f 39 47 46
f 39 40 47
f 40 48 47
f 40 33 48
f 33 41 48
f 49 50 57
f 50 58 57
f 50 51 58
f 51 59 58
f 51 52 59
f 52 60 59
f 52 53 60
f 53 61 60
f 53 54 61
f 54 62 61
f 54 55 62
f 55 63 62
f 55 56 63
f 56 64 63
f 56 49 64
f 49 57 64
f 65 66 73
f 66 74 73
f 66 67 74
f 67 75 74
f 67 68 75
f 68 76 75
f 68 69 76
f 69 77 76
f 69 70 77
f 70 78 77
f 70 71 78
f 71 79 78
f 71 72 79
f 72 80 79
f 72 65 80
f 65 73 80
f 81 82 89
f 82 90 89
f 82 83 90
f 83 91 90
f 83 84 91
f 84 92 91
f 84 85 92
f 85 93 92
f 85 86 93
f 86 94 93
f 86 87 94
f 87 95 94
f 87 88 95
f 88 96 95
f 88 81 96
f 81 89 96
f 97 98 105
f 98 106 105
f 98 99 106
f 99 107 106
f 99 100 107
f 100 108 107
f 100 101 108
f 101 109 108
f 101 102 109
f 102 110 109
f 102 103 110
f 103 111 110
f 103 104 111
f 104 112 111
f 104 97 112
f 97 105 112
f 113 114 121
f 114 122 121
f 114 115 122
f 115 123 122
f 115 116 123
f 116 124 123
f 116 117 124
f 117 125 124
f 117 118 125
f 118 126 125
f 118 119 126
f 119 127 126
f 119 120 127
f 120 128 127
f 120 113 128
f 113 121 128
f 129 130 137
f 130 138 137
f 130 131 138
f 131 139 138
f 131 132 139
f 132 140 139
f 132 133 140
f 133 141 140
f 133 134 141
f 134 142 141
f 134 135 142
f 135 143 142
f 135 136 143
f 136 144 143
f 136 129 144
f 129 137 144
f 145 146 153
f 146 154 153
f 146 147 154
f 147 155 154
f 147 148 155
f 148 156 155
f 148 149 156
f 149 157 156
f 149 150 157
f 150 158 157
f 150 151 158
f 151 159 158
f 151 152 159
f 152 160 159
f 152 145 160
f 145 153 160
f 161 162 169
f 162 170 169
f 162 163 170
f 163 171 170
f 163 164 171
f 164 172 171
f 164 165 172
f 165 173 172
f 165 166 173
f 166 174 173
f 166 167 174
f 167 175 174
f 167 168 175
f 168 176 175
f 168 161 176
f 161 169 176
f 177 178 185
f 178 186 185
f 178 179 186
f 179 187 186
f 179 180 187
f 180 188 187
f 180 181 188
f 181 189 188
f 181 182 189
f 182 190 189
f 182 183 190
f 183 191 190
f 183 184 191
f 184 192 191
f 184 177 192
f 177 185 192
f 193 194 201
f 194 202 201
f 194 195 202
f 195 203 202
f 195 196 203
f 196 204 203
f 196 197 204
f 197 205 204
f 197 198 205
f 198 206 205
f 198 199 206
f 199 207 206
f 199 200 207
f 200 208 207
f 200 193 208
f 193 201 208
f 209 210 217
f 210 218 217
f 210 211 218
f 211 219 218
f 211 212 219
f 212 220 219
f 212 213 220
f 213 221 220
f 213 214 221
f 214 222 221
f 214 215 222
f 215 223 222
f 215 216 223
f 216 224 223
f 216 209 224
f 209 217 224
f 225 226 233
f 226 234 233
f 226 227 234
f 227 235 234
f 227 228 235
f 228 236 235
f 228 229 236
f 229 237 236
f 229 230 237
f 230 238 237
f 230 231 238
f 231 239 238
f 231 232 239
f 232 240 239
f 232 225 240
f 225 233 240
f 241 242 249
f 242 250 249
f 242 243 250
f 243 251 250
f 243 244 251
f 244 252 251
f 244 245 252
f 245 253 252
f 245 246 253
f 246 254 253
f 246 247 254
f 247 255 254
f 247 248 255
f 248 256 255
f 248 241 256
f 241 249 256
f 257 258 265
f 258 266 265
f 258 259 266
f 259 267 266
f 259 260 267
f 260 268 267
f 260 261 268
f 261 269 268
f 261 262 269
f 262 270 269
f 262 263 270
f 263 271 270
f 263 264 271
f 264 272 271
f 264 257 272
f 257 265 272
f 273 274 281
f 274 282 281
f 274 275 282
f 275 283 282
f 275 276 283
f 276 284 283
f 276 277 284
f 277 285 284
f 277 278 285
f 278 286 285
f 278 279 286
f 279 287 286
f 279 280 287
f 280 288 287
f 280 273 288
f 273 281 288
f 289 290 297
f 290 298 297
f 290 291 298
f 291 299 298
f 291 292 299
f 292 300 299
f 292 293 300
f 293 301 300
f 293 294 301
f 294 302 301
f 294 295 302
f 295 303 302
f 295 296 303
f 296 304 303
f 296 289 304
f 289 297 304
f 305 306 313
f 306 314 313
f 306 307 314
f 307 315 314
f 307 308 315
f 308 316 315
f 308 309 316
f 309 317 316
f 309 310 317
f 310 318 317
f 310 311 318
f 311 319 318
f 311 312 319
f 312 320 319
f 312 305 320
f 305 313 320
f 321 322 323
f 321 323 324
f 325 326 327
f 325 327 328
f 321 325 326
f 321 326 322
f 322 326 327
f 322 327 323
f 323 327 328
f 323 328 324
f 324 328 325
f 324 325 321
f 329 330 331
f 329 331 332
f 333 334 335
f 333 335 336
f 329 333 334
f 329 334 330
f 330 334 335
f 330 335 331
f 331 335 336
f 331 336 332
f 332 336 333
f 332 333 329
f 337 338 339
f 337 339 340
f 341 342 343
f 341 343 344
f 337 341 342
f 337 342 338
f 338 342 343
f 338 343 339
f 339 343 344
f 339 344 340
f 340 344 341
f 340 341 337
f 345 346 347
f 345 347 348
f 349 350 351
f 349 351 352
f 345 349 350
f 345 350 346
f 346 350 351
f 346 351 347
f 347 351 352
f 347 352 348
f 348 352 349
f 348 349 345
f 353 354 355
f 353 355 356
f 357 358 359
f 357 359 360
f 353 357 358
f 353 358 354
f 354 358 359
f 354 359 355
f 355 359 360
f 355 360 356
f 356 360 357
f 356 357 353
f 361 362 363
f 361 363 364
f 365 366 367
f 365 367 368
f 361 365 366
f 361 366 362
f 362 366 367
f 362 367 363
f 363 367 368
f 363 368 364
f 364 368 365
f 364 365 361
f 369 370 371
f 369 371 372
f 373 374 375
f 373 375 376
f 369 373 374
f 369 374 370
f 370 374 375
f 370 375 371
f 371 375 376
f 371 376 372
f 372 376 373
f 372 373 369
f 377 378 379
f 377 379 380
f 381 382 383
f 381 383 384
f 377 381 382
f 377 382 378
f 378 382 383
f 378 383 379
f 379 383 384
f 379 384 380
f 380 384 381
f 380 381 377
f 385 386 387
f 385 387 388
f 389 390 391
f 389 391 392
f 385 389 390
f 385 390 386
f 386 390 391
f 386 391 387
f 387 391 392
f 387 392 388
f 388 392 389
f 388 389 385
f 393 394 395
f 393 395 396
f 397 398 399
f 397 399 400
f 393 397 398
f 393 398 394
f 394 398 399
f 394 399 395
f 395 399 400
f 395 400 396
f 396 400 397
f 396 397 393
f 401 402 403
f 401 403 404
f 405 406 407
f 405 407 408
f 401 405 406
f 401 406 402
f 402 406 407
f 402 407 403
f 403 407 408
f 403 408 404
f 404 408 405
f 404 405 401
f 409 410 411
f 409 411 412
f 413 414 415
f 413 415 416
f 409 413 414
f 409 414 410
f 410 414 415
f 410 415 411
f 411 415 416
f 411 416 412
f 412 416 413
f 412 413 409
f 417 418 419
f 417 419 420
f 421 422 423
f 421 423 424
f 417 421 422
f 417 422 418
f 418 422 423
f 418 423 419
f 419 423 424
f 419 424 420
f 420 424 421
f 420 421 417
f 425 426 427
f 425 427 428
f 429 430 431
f 429 431 432
f 425 429 430
f 425 430 426
f 426 430 431
f 426 431 427
f 427 431 432
f 427 432 428
f 428 432 429
f 428 429 425
f 433 434 435
f 433 435 436
f 437 438 439
f 437 439 440
f 433 437 438
f 433 438 434
f 434 438 439
f 434 439 435
f 435 439 440
f 435 440 436
f 436 440 437
f 436 437 433
f 441 442 443
f 441 443 444
f 445 446 447
f 445 447 448
f 441 445 446
f 441 446 442
f 442 446 447
f 442 447 443
f 443 447 448
f 443 448 444
f 444 448 445
f 444 445 441
f 449 450 451
f 449 451 452
f 453 454 455
f 453 455 456
f 449 453 454
f 449 454 450
f 450 454 455
f 450 455 451
f 451 455 456
f 451 456 452
f 452 456 453
f 452 453 449
f 457 458 459
f 457 459 460
f 461 462 463
f 461 463 464
f 457 461 462
f 457 462 458
f 458 462 463
f 458 463 459
f 459 463 464
f 459 464 460
f 460 464 461
f 460 461 457
f 465 466 467
f 465 467 468
f 469 470 471
f 469 471 472
f 465 469 470
f 465 470 466
f 466 470 471
f 466 471 467
f 467 471 472
f 467 472 468
f 468 472 469
f 468 469 465
f 473 474 475
f 473 475 476
f 477 478 479
f 477 479 480
f 473 477 478
f 473 478 474
f 474 478 479
f 474 479 475
f 475 479 480
f 475 480 476
f 476 480 477
f 476 477 473
f 481 482 483
f 481 483 484
f 485 486 487
f 485 487 488
f 481 485 486
f 481 486 482
f 482 486 487
f 482 487 483
f 483 487 488
f 483 488 484
f 484 488 485
f 484 485 481
