# SignFlow 3D Hand Mesh - Frame 231
v 0.000000 -0.001165 0.019966
v -0.011150 -0.009509 0.013611
v -0.015768 -0.012282 -0.000717
v -0.011150 -0.007861 -0.014625
v -0.000000 0.001165 -0.019966
v 0.011150 0.009509 -0.013611
v 0.015768 0.012282 0.000717
v 0.011150 0.007861 0.014625
v 0.020089 -0.026869 0.018466
v 0.008939 -0.035212 0.012111
v 0.004321 -0.037985 -0.002217
v 0.008939 -0.033564 -0.016125
v 0.020089 -0.024538 -0.021466
v 0.031239 -0.016194 -0.015111
v 0.035857 -0.013421 -0.000783
v 0.031239 -0.017842 0.013125
v 0.020089 -0.023098 0.018329
v 0.010635 -0.034289 0.013892
v 0.006720 -0.040451 0.000438
v 0.010635 -0.037974 -0.014151
v 0.020089 -0.028309 -0.021330
v 0.029543 -0.017117 -0.016892
v 0.033459 -0.010955 -0.003438
v 0.029543 -0.013433 0.011151
v 0.039535 -0.040427 0.020607
v 0.030081 -0.051619 0.016169
v 0.026165 -0.057780 0.002715
v 0.030081 -0.055303 -0.011874
v 0.039535 -0.045638 -0.019053
v 0.048989 -0.034447 -0.014615
v 0.052905 -0.028285 -0.001161
v 0.048989 -0.030762 0.013428
v 0.039535 -0.043264 0.020776
v 0.029954 -0.053598 0.014798
v 0.025986 -0.057743 0.000607
v 0.029954 -0.053270 -0.013485
v 0.039535 -0.042801 -0.019222
v 0.049116 -0.032467 -0.013244
v 0.053084 -0.028323 0.000947
v 0.049116 -0.032795 0.015039
v 0.055914 -0.058349 0.020601
v 0.046333 -0.068682 0.014623
v 0.042364 -0.072827 0.000432
v 0.046333 -0.068355 -0.013659
v 0.055914 -0.057885 -0.019396
v 0.065495 -0.047552 -0.013418
v 0.069463 -0.043407 0.000773
v 0.065495 -0.047879 0.014864
v 0.055914 -0.059157 0.020575
v 0.043444 -0.065515 0.014378
v 0.038279 -0.067540 0.000112
v 0.043444 -0.064044 -0.013868
v 0.055914 -0.057077 -0.019371
v 0.068383 -0.050719 -0.013174
v 0.073548 -0.048694 0.001093
v 0.068383 -0.052190 0.015072
v 0.066794 -0.079464 0.019518
v 0.054324 -0.085822 0.013321
v 0.049159 -0.087846 -0.000946
v 0.054324 -0.084351 -0.014925
v 0.066794 -0.077383 -0.020428
v 0.079263 -0.071025 -0.014231
v 0.084428 -0.069001 0.000036
v 0.079263 -0.072496 0.014015
v 0.000000 -0.012163 0.015876
v -0.008959 -0.017287 0.004571
v -0.012670 -0.012284 -0.009411
v -0.008959 -0.000085 -0.017881
v -0.000000 0.012163 -0.015876
v 0.008959 0.017287 -0.004571
v 0.012670 0.012284 0.009411
v 0.008959 0.000085 0.017881
v 0.065691 -0.054859 -0.016835
v 0.056732 -0.059983 -0.028140
v 0.053021 -0.054980 -0.042123
v 0.056732 -0.042781 -0.050592
v 0.065691 -0.030532 -0.048587
v 0.074650 -0.025409 -0.037283
v 0.078361 -0.030412 -0.023300
v 0.074650 -0.042611 -0.014830
v 0.067622 -0.042696 -0.012805
v 0.066391 -0.056822 -0.018571
v 0.064749 -0.062673 -0.032620
v 0.063659 -0.056822 -0.046723
v 0.063759 -0.042696 -0.052618
v 0.064991 -0.028570 -0.046852
v 0.066632 -0.022718 -0.032803
v 0.067722 -0.028570 -0.018700
v 0.091524 -0.043833 -0.015124
v 0.090292 -0.057959 -0.020890
v 0.088651 -0.063811 -0.034939
v 0.087561 -0.057959 -0.049042
v 0.087661 -0.043833 -0.054937
v 0.088892 -0.029707 -0.049171
v 0.090534 -0.023855 -0.035122
v 0.091624 -0.029707 -0.021019
v 0.081562 -0.043833 -0.016713
v 0.081670 -0.057761 -0.023062
v 0.086420 -0.063531 -0.036421
v 0.093027 -0.057761 -0.048966
v 0.097623 -0.043833 -0.053347
v 0.097514 -0.029905 -0.046999
v 0.092765 -0.024135 -0.033639
v 0.086157 -0.029905 -0.021095
v 0.102934 -0.047937 -0.007343
v 0.103043 -0.061866 -0.013692
v 0.107792 -0.067635 -0.027051
v 0.114399 -0.061866 -0.039596
v 0.118995 -0.047937 -0.043977
v 0.118886 -0.034009 -0.037629
v 0.114137 -0.028239 -0.024269
v 0.107529 -0.034009 -0.011725
v 0.110964 -0.028715 -0.020139
v 0.103602 -0.037678 -0.010151
v 0.100552 -0.052652 -0.009248
v 0.103602 -0.064863 -0.017960
v 0.110964 -0.067160 -0.031182
v 0.118327 -0.058196 -0.041170
v 0.121377 -0.043223 -0.042073
v 0.118327 -0.031011 -0.033361
v 0.131462 -0.032165 -0.008126
v 0.124099 -0.041129 0.001862
v 0.121050 -0.056102 0.002764
v 0.124099 -0.068314 -0.005947
v 0.131462 -0.070610 -0.019170
v 0.138824 -0.061647 -0.029158
v 0.141874 -0.046673 -0.030060
v 0.138824 -0.034462 -0.021349
v 0.000000 -0.015700 0.012390
v -0.007846 -0.018391 -0.000476
v -0.011096 -0.010308 -0.013062
v -0.007846 0.003813 -0.017997
v -0.000000 0.015700 -0.012390
v 0.007846 0.018391 0.000476
v 0.011096 0.010308 0.013062
v 0.007846 -0.003813 0.017997
v 0.070690 -0.044901 -0.024613
v 0.062844 -0.047592 -0.037479
v 0.059594 -0.039509 -0.050065
v 0.062844 -0.025389 -0.055000
v 0.070690 -0.013501 -0.049393
v 0.078536 -0.010811 -0.036528
v 0.081786 -0.018893 -0.023941
v 0.078536 -0.033014 -0.019006
v 0.072223 -0.029201 -0.017062
v 0.070182 -0.043253 -0.022780
v 0.068438 -0.049073 -0.036830
v 0.068013 -0.043253 -0.050981
v 0.069157 -0.029201 -0.056944
v 0.071199 -0.015150 -0.051226
v 0.072943 -0.009329 -0.037176
v 0.073367 -0.015150 -0.023025
v 0.099898 -0.032357 -0.019190
v 0.097857 -0.046408 -0.024908
v 0.096113 -0.052229 -0.038958
v 0.095688 -0.046408 -0.053109
v 0.096832 -0.032357 -0.059072
v 0.098874 -0.018305 -0.053354
v 0.100618 -0.012485 -0.039304
v 0.101042 -0.018305 -0.025153
v 0.092201 -0.032357 -0.020104
v 0.089970 -0.045847 -0.026985
v 0.092656 -0.051435 -0.040980
v 0.098687 -0.045847 -0.053892
v 0.104529 -0.032357 -0.058157
v 0.106760 -0.018866 -0.051277
v 0.104074 -0.013278 -0.037281
v 0.098043 -0.018866 -0.024369
v 0.115355 -0.040012 -0.012603
v 0.113123 -0.053503 -0.019484
v 0.115810 -0.059091 -0.033479
v 0.121840 -0.053503 -0.046391
v 0.127682 -0.040012 -0.050656
v 0.129914 -0.026522 -0.043776
v 0.127228 -0.020934 -0.029780
v 0.121197 -0.026522 -0.016868
v 0.121519 -0.020600 -0.026818
v 0.113032 -0.029007 -0.017247
v 0.109517 -0.043861 -0.016101
v 0.113032 -0.056460 -0.024052
v 0.121519 -0.059425 -0.036442
v 0.130005 -0.051017 -0.046013
v 0.133521 -0.036163 -0.047158
v 0.130005 -0.023564 -0.039208
v 0.146370 -0.025085 -0.008722
v 0.137883 -0.033492 0.000849
v 0.134368 -0.048347 0.001995
v 0.137883 -0.060946 -0.005956
v 0.146370 -0.063910 -0.018346
v 0.154857 -0.055503 -0.027917
v 0.158372 -0.040648 -0.029063
v 0.154857 -0.028049 -0.021112
v 0.000000 -0.019102 0.005926
v -0.007087 -0.017133 -0.007499
v -0.010022 -0.005128 -0.016530
v -0.007087 0.009881 -0.015879
v -0.000000 0.019102 -0.005926
v 0.007087 0.017133 0.007499
v 0.010022 0.005128 0.016530
v 0.007087 -0.009881 0.015879
v 0.073141 -0.031651 -0.034527
v 0.066054 -0.029682 -0.047952
v 0.063118 -0.017677 -0.056983
v 0.066054 -0.002668 -0.056332
v 0.073141 0.006553 -0.046378
v 0.080228 0.004584 -0.032954
v 0.083163 -0.007421 -0.023922
v 0.080228 -0.022430 -0.024574
v 0.073450 -0.012549 -0.020455
v 0.070137 -0.026319 -0.026263
v 0.068585 -0.032023 -0.040382
v 0.069701 -0.026319 -0.054543
v 0.072832 -0.012549 -0.060450
v 0.076144 0.001221 -0.054643
v 0.077697 0.006925 -0.040523
v 0.076581 0.001221 -0.026362
v 0.095331 -0.017670 -0.020793
v 0.092019 -0.031440 -0.026600
v 0.090466 -0.037143 -0.040720
v 0.091582 -0.031440 -0.054881
v 0.094713 -0.017670 -0.060788
v 0.098026 -0.003899 -0.054981
v 0.099578 0.001804 -0.040861
v 0.098462 -0.003899 -0.026700
v 0.087928 -0.017670 -0.022091
v 0.087722 -0.031599 -0.028434
v 0.091793 -0.037369 -0.042016
v 0.097755 -0.031599 -0.054879
v 0.102116 -0.017670 -0.059490
v 0.102322 -0.003740 -0.053147
v 0.098251 0.002030 -0.039565
v 0.092289 -0.003740 -0.026702
v 0.111013 -0.021998 -0.013333
v 0.110807 -0.035928 -0.019676
v 0.114878 -0.041698 -0.033257
v 0.120840 -0.035928 -0.046121
v 0.125202 -0.021998 -0.050732
v 0.125407 -0.008069 -0.044388
v 0.121337 -0.002299 -0.030807
v 0.115374 -0.008069 -0.017943
v 0.118107 -0.003505 -0.024416
v 0.110484 -0.013458 -0.015633
v 0.107327 -0.028413 -0.016455
v 0.110484 -0.039611 -0.026403
v 0.118107 -0.040492 -0.039648
v 0.125730 -0.030539 -0.048432
v 0.128888 -0.015584 -0.047609
v 0.125730 -0.004386 -0.037662
v 0.141634 -0.009238 -0.010495
v 0.134011 -0.019191 -0.001711
v 0.130853 -0.034146 -0.002534
v 0.134011 -0.045344 -0.012482
v 0.141634 -0.046225 -0.025727
v 0.149257 -0.036272 -0.034511
v 0.152414 -0.021317 -0.033688
v 0.149257 -0.010119 -0.023740
v 0.000000 -0.019993 0.000521
v -0.006591 -0.014464 -0.012139
v -0.009322 -0.000461 -0.017689
v -0.006591 0.013811 -0.012877
v -0.000000 0.019993 -0.000521
v 0.006591 0.014464 0.012139
v 0.009322 0.000461 0.017689
v 0.006591 -0.013811 0.012877
v 0.065144 -0.020888 -0.033785
v 0.058553 -0.015358 -0.046446
v 0.055822 -0.001356 -0.051995
v 0.058553 0.012916 -0.047183
v 0.065144 0.019098 -0.034828
v 0.071735 0.013569 -0.022168
v 0.074466 -0.000433 -0.016618
v 0.071735 -0.014706 -0.021430
v 0.064900 -0.000895 -0.014308
v 0.065013 -0.015037 -0.020165
v 0.065202 -0.020895 -0.034306
v 0.065358 -0.015037 -0.048447
v 0.065388 -0.000895 -0.054305
v 0.065275 0.013247 -0.048448
v 0.065086 0.019105 -0.034307
v 0.064930 0.013247 -0.020166
v 0.083359 -0.000841 -0.014083
v 0.083472 -0.014983 -0.019940
v 0.083661 -0.020841 -0.034081
v 0.083816 -0.014983 -0.048222
v 0.083847 -0.000841 -0.054080
v 0.083734 0.013301 -0.048223
v 0.083545 0.019159 -0.034082
v 0.083389 0.013301 -0.019941
v 0.078219 -0.000841 -0.014820
v 0.079072 -0.014963 -0.020664
v 0.082579 -0.020813 -0.034368
v 0.086686 -0.014963 -0.047904
v 0.088987 -0.000841 -0.053343
v 0.088134 0.013281 -0.047499
v 0.084627 0.019131 -0.033795
v 0.080520 0.013281 -0.020259
v 0.098449 -0.001960 -0.009165
v 0.099301 -0.016082 -0.015009
v 0.102809 -0.021931 -0.028713
v 0.106916 -0.016082 -0.042249
v 0.109217 -0.001960 -0.047688
v 0.108364 0.012163 -0.041844
v 0.104857 0.018012 -0.028140
v 0.100750 0.012163 -0.014604
v 0.097329 -0.001960 -0.009514
v 0.096515 -0.015806 -0.015988
v 0.099989 -0.021542 -0.029749
v 0.105714 -0.015806 -0.042735
v 0.110337 -0.001960 -0.047339
v 0.111150 0.011887 -0.040865
v 0.107677 0.017623 -0.027105
v 0.101952 0.011887 -0.014118
v 0.114931 -0.005824 -0.003460
v 0.114118 -0.019671 -0.009934
v 0.117592 -0.025406 -0.023695
v 0.123317 -0.019671 -0.036681
v 0.127940 -0.005824 -0.041286
v 0.128753 0.008023 -0.034811
v 0.125280 0.013759 -0.021051
v 0.119555 0.008023 -0.008065
v -0.015000 -0.015000 -0.015000
v 0.015000 -0.015000 -0.015000
v 0.015000 0.015000 -0.015000
v -0.015000 0.015000 -0.015000
v -0.015000 -0.015000 0.015000
v 0.015000 -0.015000 0.015000
v 0.015000 0.015000 0.015000
v -0.015000 0.015000 0.015000
v 0.005089 -0.040703 -0.016500
v 0.035089 -0.040703 -0.016500
v 0.035089 -0.010703 -0.016500
v 0.005089 -0.010703 -0.016500
v 0.005089 -0.040703 0.013500
v 0.035089 -0.040703 0.013500
v 0.035089 -0.010703 0.013500
v 0.005089 -0.010703 0.013500
v 0.024535 -0.058033 -0.014223
v 0.054535 -0.058033 -0.014223
v 0.054535 -0.028033 -0.014223
v 0.024535 -0.028033 -0.014223
v 0.024535 -0.058033 0.015777
v 0.054535 -0.058033 0.015777
v 0.054535 -0.028033 0.015777
v 0.024535 -0.028033 0.015777
v 0.040914 -0.073117 -0.014398
v 0.070914 -0.073117 -0.014398
v 0.070914 -0.043117 -0.014398
v 0.040914 -0.043117 -0.014398
v 0.040914 -0.073117 0.015602
v 0.070914 -0.073117 0.015602
v 0.070914 -0.043117 0.015602
v 0.040914 -0.043117 0.015602
v 0.051794 -0.093424 -0.015455
v 0.081794 -0.093424 -0.015455
v 0.081794 -0.063424 -0.015455
v 0.051794 -0.063424 -0.015455
v 0.051794 -0.093424 0.014545
v 0.081794 -0.093424 0.014545
v 0.081794 -0.063424 0.014545
v 0.051794 -0.063424 0.014545
v 0.050691 -0.057696 -0.047711
v 0.080691 -0.057696 -0.047711
v 0.080691 -0.027696 -0.047711
v 0.050691 -0.027696 -0.047711
v 0.050691 -0.057696 -0.017711
v 0.080691 -0.057696 -0.017711
v 0.080691 -0.027696 -0.017711
v 0.050691 -0.027696 -0.017711
v 0.074592 -0.058833 -0.050030
v 0.104592 -0.058833 -0.050030
v 0.104592 -0.028833 -0.050030
v 0.074592 -0.028833 -0.050030
v 0.074592 -0.058833 -0.020030
v 0.104592 -0.058833 -0.020030
v 0.104592 -0.028833 -0.020030
v 0.074592 -0.028833 -0.020030
v 0.095964 -0.062937 -0.040660
v 0.125964 -0.062937 -0.040660
v 0.125964 -0.032937 -0.040660
v 0.095964 -0.032937 -0.040660
v 0.095964 -0.062937 -0.010660
v 0.125964 -0.062937 -0.010660
v 0.125964 -0.032937 -0.010660
v 0.095964 -0.032937 -0.010660
v 0.116462 -0.066388 -0.028648
v 0.146462 -0.066388 -0.028648
v 0.146462 -0.036388 -0.028648
v 0.116462 -0.036388 -0.028648
v 0.116462 -0.066388 0.001352
v 0.146462 -0.066388 0.001352
v 0.146462 -0.036388 0.001352
v 0.116462 -0.036388 0.001352
v 0.055690 -0.044201 -0.052003
v 0.085690 -0.044201 -0.052003
v 0.085690 -0.014201 -0.052003
v 0.055690 -0.014201 -0.052003
v 0.055690 -0.044201 -0.022003
v 0.085690 -0.044201 -0.022003
v 0.085690 -0.014201 -0.022003
v 0.055690 -0.014201 -0.022003
v 0.083365 -0.047357 -0.054131
v 0.113365 -0.047357 -0.054131
v 0.113365 -0.017357 -0.054131
v 0.083365 -0.017357 -0.054131
v 0.083365 -0.047357 -0.024131
v 0.113365 -0.047357 -0.024131
v 0.113365 -0.017357 -0.024131
v 0.083365 -0.017357 -0.024131
v 0.106519 -0.055012 -0.046630
v 0.136519 -0.055012 -0.046630
v 0.136519 -0.025012 -0.046630
v 0.106519 -0.025012 -0.046630
v 0.106519 -0.055012 -0.016630
v 0.136519 -0.055012 -0.016630
v 0.136519 -0.025012 -0.016630
v 0.106519 -0.025012 -0.016630
v 0.131370 -0.059497 -0.028534
v 0.161370 -0.059497 -0.028534
v 0.161370 -0.029497 -0.028534
v 0.131370 -0.029497 -0.028534
v 0.131370 -0.059497 0.001466
v 0.161370 -0.059497 0.001466
v 0.161370 -0.029497 0.001466
v 0.131370 -0.029497 0.001466
v 0.058141 -0.027549 -0.055453
v 0.088141 -0.027549 -0.055453
v 0.088141 0.002451 -0.055453
v 0.058141 0.002451 -0.055453
v 0.058141 -0.027549 -0.025453
v 0.088141 -0.027549 -0.025453
v 0.088141 0.002451 -0.025453
v 0.058141 0.002451 -0.025453
v 0.080022 -0.032670 -0.055791
v 0.110022 -0.032670 -0.055791
v 0.110022 -0.002670 -0.055791
v 0.080022 -0.002670 -0.055791
v 0.080022 -0.032670 -0.025791
v 0.110022 -0.032670 -0.025791
v 0.110022 -0.002670 -0.025791
v 0.080022 -0.002670 -0.025791
v 0.103107 -0.036998 -0.047032
v 0.133107 -0.036998 -0.047032
v 0.133107 -0.006998 -0.047032
v 0.103107 -0.006998 -0.047032
v 0.103107 -0.036998 -0.017032
v 0.133107 -0.036998 -0.017032
v 0.133107 -0.006998 -0.017032
v 0.103107 -0.006998 -0.017032
v 0.126634 -0.042731 -0.033111
v 0.156634 -0.042731 -0.033111
v 0.156634 -0.012731 -0.033111
v 0.126634 -0.012731 -0.033111
v 0.126634 -0.042731 -0.003111
v 0.156634 -0.042731 -0.003111
v 0.156634 -0.012731 -0.003111
v 0.126634 -0.012731 -0.003111
v 0.050144 -0.015895 -0.049307
v 0.080144 -0.015895 -0.049307
v 0.080144 0.014105 -0.049307
v 0.050144 0.014105 -0.049307
v 0.050144 -0.015895 -0.019307
v 0.080144 -0.015895 -0.019307
v 0.080144 0.014105 -0.019307
v 0.050144 0.014105 -0.019307
v 0.068603 -0.015841 -0.049082
v 0.098603 -0.015841 -0.049082
v 0.098603 0.014159 -0.049082
v 0.068603 0.014159 -0.049082
v 0.068603 -0.015841 -0.019082
v 0.098603 -0.015841 -0.019082
v 0.098603 0.014159 -0.019082
v 0.068603 0.014159 -0.019082
v 0.088833 -0.016960 -0.043427
v 0.118833 -0.016960 -0.043427
v 0.118833 0.013040 -0.043427
v 0.088833 0.013040 -0.043427
v 0.088833 -0.016960 -0.013427
v 0.118833 -0.016960 -0.013427
v 0.118833 0.013040 -0.013427
v 0.088833 0.013040 -0.013427
v 0.106436 -0.020824 -0.037373
v 0.136436 -0.020824 -0.037373
v 0.136436 0.009176 -0.037373
v 0.106436 0.009176 -0.037373
v 0.106436 -0.020824 -0.007373
v 0.136436 -0.020824 -0.007373
v 0.136436 0.009176 -0.007373
v 0.106436 0.009176 -0.007373
f 1 2 9
f 2 10 9
f 2 3 10
f 3 11 10
f 3 4 11
f 4 12 11
f 4 5 12
f 5 13 12
f 5 6 13
f 6 14 13
f 6 7 14
f 7 15 14
f 7 8 15
f 8 16 15
f 8 1 16
f 1 9 16
f 17 18 25
f 18 26 25
f 18 19 26
f 19 27 26
f 19 20 27
f 20 28 27
f 20 21 28
f 21 29 28
f 21 22 29
f 22 30 29
f 22 23 30
f 23 31 30
f 23 24 31
f 24 32 31
f 24 17 32
f 17 25 32
f 33 34 41
f 34 42 41
f 34 35 42
f 35 43 42
f 35 36 43
f 36 44 43
f 36 37 44
f 37 45 44
f 37 38 45
f 38 46 45
f 38 39 46
f 39 47 46
f 39 40 47
f 40 48 47
f 40 33 48
f 33 41 48
f 49 50 57
f 50 58 57
f 50 51 58
f 51 59 58
f 51 52 59
f 52 60 59
f 52 53 60
f 53 61 60
f 53 54 61
f 54 62 61
f 54 55 62
f 55 63 62
f 55 56 63
f 56 64 63
f 56 49 64
f 49 57 64
f 65 66 73
f 66 74 73
f 66 67 74
f 67 75 74
f 67 68 75
f 68 76 75
f 68 69 76
f 69 77 76
f 69 70 77
f 70 78 77
f 70 71 78
f 71 79 78
f 71 72 79
f 72 80 79
f 72 65 80
f 65 73 80
f 81 82 89
f 82 90 89
f 82 83 90
f 83 91 90
f 83 84 91
f 84 92 91
f 84 85 92
f 85 93 92
f 85 86 93
f 86 94 93
f 86 87 94
f 87 95 94
f 87 88 95
f 88 96 95
f 88 81 96
f 81 89 96
f 97 98 105
f 98 106 105
f 98 99 106
f 99 107 106
f 99 100 107
f 100 108 107
f 100 101 108
f 101 109 108
f 101 102 109
f 102 110 109
f 102 103 110
f 103 111 110
f 103 104 111
f 104 112 111
f 104 97 112
f 97 105 112
f 113 114 121
f 114 122 121
f 114 115 122
f 115 123 122
f 115 116 123
f 116 124 123
f 116 117 124
f 117 125 124
f 117 118 125
f 118 126 125
f 118 119 126
f 119 127 126
f 119 120 127
f 120 128 127
f 120 113 128
f 113 121 128
f 129 130 137
f 130 138 137
f 130 131 138
f 131 139 138
f 131 132 139
f 132 140 139
f 132 133 140
f 133 141 140
f 133 134 141
f 134 142 141
f 134 135 142
f 135 143 142
f 135 136 143
f 136 144 143
f 136 129 144
f 129 137 144
f 145 146 153
f 146 154 153
f 146 147 154
f 147 155 154
f 147 148 155
f 148 156 155
f 148 149 156
f 149 157 156
f 149 150 157
f 150 158 157
f 150 151 158
f 151 159 158
f 151 152 159
f 152 160 159
f 152 145 160
f 145 153 160
f 161 162 169
f 162 170 169
f 162 163 170
f 163 171 170
f 163 164 171
f 164 172 171
f 164 165 172
f 165 173 172
f 165 166 173
f 166 174 173
f 166 167 174
f 167 175 174
f 167 168 175
f 168 176 175
f 168 161 176
f 161 169 176
f 177 178 185
f 178 186 185
f 178 179 186
f 179 187 186
f 179 180 187
f 180 188 187
f 180 181 188
f 181 189 188
f 181 182 189
f 182 190 189
f 182 183 190
f 183 191 190
f 183 184 191
f 184 192 191
f 184 177 192
f 177 185 192
f 193 194 201
f 194 202 201
f 194 195 202
f 195 203 202
f 195 196 203
f 196 204 203
f 196 197 204
f 197 205 204
f 197 198 205
f 198 206 205
f 198 199 206
f 199 207 206
f 199 200 207
f 200 208 207
f 200 193 208
f 193 201 208
f 209 210 217
f 210 218 217
f 210 211 218
f 211 219 218
f 211 212 219
f 212 220 219
f 212 213 220
f 213 221 220
f 213 214 221
f 214 222 221
f 214 215 222
f 215 223 222
f 215 216 223
f 216 224 223
f 216 209 224
f 209 217 224
f 225 226 233
f 226 234 233
f 226 227 234
f 227 235 234
f 227 228 235
f 228 236 235
f 228 229 236
f 229 237 236
f 229 230 237
f 230 238 237
f 230 231 238
f 231 239 238
f 231 232 239
f 232 240 239
f 232 225 240
f 225 233 240
f 241 242 249
f 242 250 249
f 242 243 250
f 243 251 250
f 243 244 251
f 244 252 251
f 244 245 252
f 245 253 252
f 245 246 253
f 246 254 253
f 246 247 254
f 247 255 254
f 247 248 255
f 248 256 255
f 248 241 256
f 241 249 256
f 257 258 265
f 258 266 265
f 258 259 266
f 259 267 266
f 259 260 267
f 260 268 267
f 260 261 268
f 261 269 268
f 261 262 269
f 262 270 269
f 262 263 270
f 263 271 270
f 263 264 271
f 264 272 271
f 264 257 272
f 257 265 272
f 273 274 281
f 274 282 281
f 274 275 282
f 275 283 282
f 275 276 283
f 276 284 283
f 276 277 284
f 277 285 284
f 277 278 285
f 278 286 285
f 278 279 286
f 279 287 286
f 279 280 287
f 280 288 287
f 280 273 288
f 273 281 288
f 289 290 297
f 290 298 297
f 290 291 298
f 291 299 298
f 291 292 299
f 292 300 299
f 292 293 300
f 293 301 300
f 293 294 301
f 294 302 301
f 294 295 302
f 295 303 302
f 295 296 303
f 296 304 303
f 296 289 304
f 289 297 304
f 305 306 313
f 306 314 313
f 306 307 314
f 307 315 314
f 307 308 315
f 308 316 315
f 308 309 316
f 309 317 316
f 309 310 317
f 310 318 317
f 310 311 318
f 311 319 318
f 311 312 319
f 312 320 319
f 312 305 320
f 305 313 320
f 321 322 323
f 321 323 324
f 325 326 327
f 325 327 328
f 321 325 326
f 321 326 322
f 322 326 327
f 322 327 323
f 323 327 328
f 323 328 324
f 324 328 325
f 324 325 321
f 329 330 331
f 329 331 332
f 333 334 335
f 333 335 336
f 329 333 334
f 329 334 330
f 330 334 335
f 330 335 331
f 331 335 336
f 331 336 332
f 332 336 333
f 332 333 329
f 337 338 339
f 337 339 340
f 341 342 343
f 341 343 344
f 337 341 342
f 337 342 338
f 338 342 343
f 338 343 339
f 339 343 344
f 339 344 340
f 340 344 341
f 340 341 337
f 345 346 347
f 345 347 348
f 349 350 351
f 349 351 352
f 345 349 350
f 345 350 346
f 346 350 351
f 346 351 347
f 347 351 352
f 347 352 348
f 348 352 349
f 348 349 345
f 353 354 355
f 353 355 356
f 357 358 359
f 357 359 360
f 353 357 358
f 353 358 354
f 354 358 359
f 354 359 355
f 355 359 360
f 355 360 356
f 356 360 357
f 356 357 353
f 361 362 363
f 361 363 364
f 365 366 367
f 365 367 368
f 361 365 366
f 361 366 362
f 362 366 367
f 362 367 363
f 363 367 368
f 363 368 364
f 364 368 365
f 364 365 361
f 369 370 371
f 369 371 372
f 373 374 375
f 373 375 376
f 369 373 374
f 369 374 370
f 370 374 375
f 370 375 371
f 371 375 376
f 371 376 372
f 372 376 373
f 372 373 369
f 377 378 379
f 377 379 380
f 381 382 383
f 381 383 384
f 377 381 382
f 377 382 378
f 378 382 383
f 378 383 379
f 379 383 384
f 379 384 380
f 380 384 381
f 380 381 377
f 385 386 387
f 385 387 388
f 389 390 391
f 389 391 392
f 385 389 390
f 385 390 386
f 386 390 391
f 386 391 387
f 387 391 392
f 387 392 388
f 388 392 389
f 388 389 385
f 393 394 395
f 393 395 396
f 397 398 399
f 397 399 400
f 393 397 398
f 393 398 394
f 394 398 399
f 394 399 395
f 395 399 400
f 395 400 396
f 396 400 397
f 396 397 393
f 401 402 403
f 401 403 404
f 405 406 407
f 405 407 408
f 401 405 406
f 401 406 402
f 402 406 407
f 402 407 403
f 403 407 408
f 403 408 404
f 404 408 405
f 404 405 401
f 409 410 411
f 409 411 412
f 413 414 415
f 413 415 416
f 409 413 414
f 409 414 410
f 410 414 415
f 410 415 411
f 411 415 416
f 411 416 412
f 412 416 413
f 412 413 409
f 417 418 419
f 417 419 420
f 421 422 423
f 421 423 424
f 417 421 422
f 417 422 418
f 418 422 423
f 418 423 419
f 419 423 424
f 419 424 420
f 420 424 421
f 420 421 417
f 425 426 427
f 425 427 428
f 429 430 431
f 429 431 432
f 425 429 430
f 425 430 426
f 426 430 431
f 426 431 427
f 427 431 432
f 427 432 428
f 428 432 429
f 428 429 425
f 433 434 435
f 433 435 436
f 437 438 439
f 437 439 440
f 433 437 438
f 433 438 434
f 434 438 439
f 434 439 435
f 435 439 440
f 435 440 436
f 436 440 437
f 436 437 433
f 441 442 443
f 441 443 444
f 445 446 447
f 445 447 448
f 441 445 446
f 441 446 442
f 442 446 447
f 442 447 443
f 443 447 448
f 443 448 444
f 444 448 445
f 444 445 441
f 449 450 451
f 449 451 452
f 453 454 455
f 453 455 456
f 449 453 454
f 449 454 450
f 450 454 455
f 450 455 451
f 451 455 456
f 451 456 452
f 452 456 453
f 452 453 449
f 457 458 459
f 457 459 460
f 461 462 463
f 461 463 464
f 457 461 462
f 457 462 458
f 458 462 463
f 458 463 459
f 459 463 464
f 459 464 460
f 460 464 461
f 460 461 457
f 465 466 467
f 465 467 468
f 469 470 471
f 469 471 472
f 465 469 470
f 465 470 466
f 466 470 471
f 466 471 467
f 467 471 472
f 467 472 468
f 468 472 469
f 468 469 465
f 473 474 475
f 473 475 476
f 477 478 479
f 477 479 480
f 473 477 478
f 473 478 474
f 474 478 479
f 474 479 475
f 475 479 480
f 475 480 476
f 476 480 477
f 476 477 473
f 481 482 483
f 481 483 484
f 485 486 487
f 485 487 488
f 481 485 486
f 481 486 482
f 482 486 487
f 482 487 483
f 483 487 488
f 483 488 484
f 484 488 485
f 484 485 481
