# SignFlow 3D Hand Mesh - Frame 258
v 0.000000 -0.004227 0.019548
v -0.010796 -0.011917 0.011892
v -0.015268 -0.012626 -0.002730
v -0.010796 -0.005939 -0.015753
v -0.000000 0.004227 -0.019548
v 0.010796 0.011917 -0.011892
v 0.015268 0.012626 0.002730
v 0.010796 0.005939 0.015753
v 0.024135 -0.032109 0.013519
v 0.013339 -0.039799 0.005863
v 0.008867 -0.040508 -0.008759
v 0.013339 -0.033821 -0.021782
v 0.024135 -0.023655 -0.025577
v 0.034932 -0.015964 -0.017921
v 0.039404 -0.015255 -0.003299
v 0.034932 -0.021942 0.009724
v 0.031127 -0.027882 0.012709
v 0.025856 -0.041599 0.008424
v 0.019577 -0.047281 -0.004328
v 0.015969 -0.041599 -0.018076
v 0.017144 -0.027882 -0.024767
v 0.022414 -0.014164 -0.020481
v 0.028693 -0.008482 -0.007730
v 0.032302 -0.014164 0.006018
v 0.058564 -0.035225 0.002472
v 0.053293 -0.048943 -0.001814
v 0.047014 -0.054625 -0.014565
v 0.043405 -0.048943 -0.028313
v 0.044581 -0.035225 -0.035004
v 0.049851 -0.021508 -0.030719
v 0.056130 -0.015826 -0.017967
v 0.059739 -0.021508 -0.004219
v 0.051572 -0.054842 -0.020165
v 0.040421 -0.047400 -0.027554
v 0.035802 -0.032827 -0.028330
v 0.040421 -0.019659 -0.022039
v 0.051572 -0.015609 -0.012367
v 0.062724 -0.023050 -0.004978
v 0.067343 -0.037624 -0.004202
v 0.062724 -0.050792 -0.010493
v 0.069848 -0.050273 -0.043149
v 0.058697 -0.042832 -0.050537
v 0.054078 -0.028259 -0.051314
v 0.058697 -0.015090 -0.045023
v 0.069848 -0.011040 -0.035350
v 0.081000 -0.018482 -0.027962
v 0.085619 -0.033055 -0.027186
v 0.081000 -0.046223 -0.033476
v 0.069848 -0.049974 -0.044430
v 0.057717 -0.042433 -0.049934
v 0.052692 -0.027994 -0.049178
v 0.057717 -0.015114 -0.042607
v 0.069848 -0.011339 -0.034069
v 0.081980 -0.018880 -0.028566
v 0.087004 -0.033319 -0.029321
v 0.081980 -0.046199 -0.035892
v 0.082711 -0.044414 -0.065164
v 0.070580 -0.036873 -0.070667
v 0.065555 -0.022433 -0.069912
v 0.070580 -0.009554 -0.063341
v 0.082711 -0.005779 -0.054803
v 0.094842 -0.013320 -0.049299
v 0.099867 -0.027759 -0.050054
v 0.094842 -0.040639 -0.056626
v 0.000000 -0.015489 0.012652
v -0.011777 -0.015906 0.002883
v -0.016655 -0.007005 -0.008575
v -0.011777 0.006000 -0.015010
v -0.000000 0.015489 -0.012652
v 0.011777 0.015906 -0.002883
v 0.016655 0.007005 0.008575
v 0.011777 -0.006000 0.015010
v 0.053846 -0.066729 -0.050077
v 0.042069 -0.067146 -0.059846
v 0.037191 -0.058245 -0.071305
v 0.042069 -0.045241 -0.077740
v 0.053846 -0.035751 -0.075382
v 0.065623 -0.035335 -0.065612
v 0.070501 -0.044236 -0.054154
v 0.065623 -0.057240 -0.047719
v 0.056701 -0.051240 -0.042934
v 0.054805 -0.065342 -0.048579
v 0.052347 -0.071183 -0.062513
v 0.050768 -0.065342 -0.076574
v 0.050991 -0.051240 -0.082525
v 0.052887 -0.037139 -0.076880
v 0.055345 -0.031298 -0.062946
v 0.056924 -0.037139 -0.048885
v 0.081277 -0.053125 -0.046478
v 0.079381 -0.067227 -0.052123
v 0.076924 -0.073068 -0.066058
v 0.075344 -0.067227 -0.080118
v 0.075568 -0.053125 -0.086069
v 0.077463 -0.039024 -0.080424
v 0.079921 -0.033183 -0.066490
v 0.081501 -0.039024 -0.052429
v 0.078422 -0.034165 -0.059909
v 0.069821 -0.043291 -0.051131
v 0.066259 -0.058178 -0.051223
v 0.069821 -0.070105 -0.060132
v 0.078422 -0.072086 -0.072638
v 0.087023 -0.062960 -0.081417
v 0.090586 -0.048073 -0.081324
v 0.087023 -0.036146 -0.072415
v 0.099355 -0.039269 -0.044704
v 0.090754 -0.048395 -0.035926
v 0.087192 -0.063282 -0.036019
v 0.090754 -0.075209 -0.044927
v 0.099355 -0.077190 -0.057434
v 0.107956 -0.068064 -0.066212
v 0.111519 -0.053177 -0.066120
v 0.107956 -0.041250 -0.057211
v 0.099355 -0.038509 -0.047735
v 0.089881 -0.046035 -0.038359
v 0.085956 -0.060705 -0.036429
v 0.089881 -0.073924 -0.043074
v 0.099355 -0.077950 -0.054403
v 0.108830 -0.070423 -0.063779
v 0.112754 -0.055754 -0.065710
v 0.108830 -0.042535 -0.059064
v 0.115708 -0.040969 -0.033185
v 0.106234 -0.048496 -0.023809
v 0.102310 -0.063165 -0.021878
v 0.106234 -0.076384 -0.028524
v 0.115708 -0.080410 -0.039853
v 0.125183 -0.072883 -0.049229
v 0.129107 -0.058214 -0.051159
v 0.125183 -0.044995 -0.044514
v 0.000000 -0.018154 0.008392
v -0.011717 -0.016160 -0.001255
v -0.016570 -0.004700 -0.010166
v -0.011717 0.009514 -0.013123
v -0.000000 0.018154 -0.008392
v 0.011717 0.016160 0.001255
v 0.016570 0.004700 0.010166
v 0.011717 -0.009514 0.013123
v 0.053802 -0.051553 -0.063857
v 0.042086 -0.049559 -0.073504
v 0.037233 -0.038099 -0.082416
v 0.042086 -0.023886 -0.085372
v 0.053802 -0.015245 -0.080641
v 0.065519 -0.017239 -0.070995
v 0.070372 -0.028700 -0.062083
v 0.065519 -0.042913 -0.059126
v 0.057491 -0.033399 -0.052592
v 0.052777 -0.047050 -0.057668
v 0.048664 -0.052704 -0.071285
v 0.047561 -0.047050 -0.085467
v 0.050114 -0.033399 -0.091906
v 0.054828 -0.019749 -0.086830
v 0.058941 -0.014095 -0.073213
v 0.060044 -0.019749 -0.059031
v 0.088957 -0.042070 -0.058496
v 0.084243 -0.055720 -0.063572
v 0.080130 -0.061374 -0.077189
v 0.079027 -0.055720 -0.091371
v 0.081581 -0.042070 -0.097810
v 0.086294 -0.028419 -0.092734
v 0.090407 -0.022765 -0.079117
v 0.091510 -0.028419 -0.064935
v 0.085269 -0.024988 -0.067751
v 0.077019 -0.035965 -0.060987
v 0.073602 -0.050519 -0.064279
v 0.077019 -0.060123 -0.075698
v 0.085269 -0.059151 -0.088556
v 0.093518 -0.048174 -0.095319
v 0.096936 -0.033620 -0.092028
v 0.093518 -0.024016 -0.080608
v 0.107031 -0.033117 -0.054402
v 0.098782 -0.044095 -0.047638
v 0.095364 -0.058648 -0.050930
v 0.098782 -0.068252 -0.062349
v 0.107031 -0.067281 -0.075207
v 0.115281 -0.056303 -0.081971
v 0.118698 -0.041750 -0.078679
v 0.115281 -0.032146 -0.067259
v 0.107031 -0.031830 -0.056893
v 0.098220 -0.041586 -0.049050
v 0.094570 -0.056387 -0.050436
v 0.098220 -0.067563 -0.060239
v 0.107031 -0.068568 -0.072716
v 0.115842 -0.058812 -0.080558
v 0.119492 -0.044011 -0.079172
v 0.115842 -0.032834 -0.069370
v 0.130249 -0.039145 -0.039908
v 0.121438 -0.048901 -0.032065
v 0.117788 -0.063702 -0.033451
v 0.121438 -0.074879 -0.043254
v 0.130249 -0.075883 -0.055731
v 0.139060 -0.066127 -0.063573
v 0.142709 -0.051326 -0.062187
v 0.139060 -0.040150 -0.052385
v 0.000000 -0.019551 0.004216
v -0.011339 -0.015606 -0.005280
v -0.016036 -0.002520 -0.011684
v -0.011339 0.012043 -0.011243
v -0.000000 0.019551 -0.004216
v 0.011339 0.015606 0.005280
v 0.016036 0.002520 0.011684
v 0.011339 -0.012043 0.011243
v 0.057605 -0.035843 -0.071334
v 0.046266 -0.031898 -0.080830
v 0.041570 -0.018812 -0.087234
v 0.046266 -0.004250 -0.086793
v 0.057605 0.003258 -0.079766
v 0.068944 -0.000686 -0.070270
v 0.073641 -0.013773 -0.063867
v 0.068944 -0.028335 -0.064307
v 0.050996 -0.016292 -0.056674
v 0.052663 -0.030432 -0.062297
v 0.057224 -0.036288 -0.075684
v 0.062009 -0.030432 -0.088992
v 0.064215 -0.016292 -0.094427
v 0.062548 -0.002153 -0.088803
v 0.057986 0.003704 -0.075417
v 0.053202 -0.002153 -0.062108
v 0.075360 -0.016814 -0.048143
v 0.077027 -0.030953 -0.053766
v 0.081588 -0.036809 -0.067153
v 0.086373 -0.030953 -0.080462
v 0.088578 -0.016814 -0.085896
v 0.086912 -0.002674 -0.080273
v 0.082350 0.003182 -0.066886
v 0.077565 -0.002674 -0.053578
v 0.081969 0.003133 -0.065557
v 0.067949 -0.002574 -0.067830
v 0.062141 -0.016622 -0.069628
v 0.067949 -0.030783 -0.069899
v 0.081969 -0.036760 -0.068482
v 0.095990 -0.031053 -0.066210
v 0.101798 -0.017005 -0.064411
v 0.095990 -0.002845 -0.064141
v 0.078422 0.001166 -0.038735
v 0.064401 -0.004541 -0.041008
v 0.058594 -0.018589 -0.042806
v 0.064401 -0.032749 -0.043076
v 0.078422 -0.038727 -0.041660
v 0.092442 -0.033020 -0.039387
v 0.098250 -0.018972 -0.037589
v 0.092442 -0.004811 -0.037319
v 0.078422 0.001212 -0.039664
v 0.065602 -0.004484 -0.045788
v 0.060291 -0.018555 -0.048638
v 0.065602 -0.032758 -0.046543
v 0.078422 -0.038773 -0.040731
v 0.091242 -0.033077 -0.034607
v 0.096552 -0.019006 -0.031757
v 0.091242 -0.004803 -0.033852
v 0.066267 0.000516 -0.013573
v 0.053447 -0.005180 -0.019697
v 0.048137 -0.019252 -0.022547
v 0.053447 -0.033455 -0.020452
v 0.066267 -0.039470 -0.014640
v 0.079087 -0.033773 -0.008516
v 0.084397 -0.019702 -0.005666
v 0.079087 -0.005499 -0.007761
v 0.000000 -0.019995 -0.000448
v -0.011191 -0.013945 -0.008961
v -0.015826 0.000274 -0.012225
v -0.011191 0.014332 -0.008327
v -0.000000 0.019995 0.000448
v 0.011191 0.013945 0.008961
v 0.015826 -0.000274 0.012225
v 0.011191 -0.014332 0.008327
v 0.053067 -0.018456 -0.069114
v 0.041876 -0.012406 -0.077627
v 0.037241 0.001813 -0.080891
v 0.041876 0.015871 -0.076994
v 0.053067 0.021534 -0.068218
v 0.064258 0.015484 -0.059705
v 0.068893 0.001265 -0.056441
v 0.064258 -0.012793 -0.060339
v 0.045664 0.001539 -0.050087
v 0.046467 -0.012527 -0.056072
v 0.051137 -0.018353 -0.069435
v 0.056937 -0.012527 -0.082347
v 0.060470 0.001539 -0.087245
v 0.059666 0.015604 -0.081260
v 0.054997 0.021431 -0.067897
v 0.049197 0.015604 -0.054985
v 0.065249 -0.000663 -0.042282
v 0.066053 -0.014729 -0.048268
v 0.070723 -0.020555 -0.061631
v 0.076523 -0.014729 -0.074543
v 0.080056 -0.000663 -0.079441
v 0.079252 0.013403 -0.073456
v 0.074583 0.019229 -0.060093
v 0.068782 0.013403 -0.047180
v 0.072653 0.019089 -0.057722
v 0.058728 0.012916 -0.056202
v 0.052960 -0.001211 -0.057412
v 0.058728 -0.015018 -0.060643
v 0.072653 -0.020415 -0.064002
v 0.086577 -0.014242 -0.065522
v 0.092345 -0.000115 -0.064312
v 0.086577 0.013692 -0.061081
v 0.076517 0.015668 -0.036206
v 0.062592 0.009495 -0.034686
v 0.056825 -0.004632 -0.035896
v 0.062592 -0.018438 -0.039127
v 0.076517 -0.023835 -0.042486
v 0.090442 -0.017662 -0.044006
v 0.096210 -0.003535 -0.042796
v 0.090442 0.010271 -0.039565
v 0.076517 0.015740 -0.036692
v 0.065309 0.011078 -0.046017
v 0.060666 -0.002465 -0.051434
v 0.065309 -0.016956 -0.049771
v 0.076517 -0.023907 -0.042000
v 0.087726 -0.019245 -0.032675
v 0.092368 -0.005702 -0.027258
v 0.087726 0.008789 -0.028922
v 0.064365 0.013644 -0.021038
v 0.053157 0.008982 -0.030363
v 0.048514 -0.004561 -0.035780
v 0.053157 -0.019052 -0.034116
v 0.064365 -0.026002 -0.026346
v 0.075573 -0.021341 -0.017021
v 0.080216 -0.007798 -0.011604
v 0.075573 0.006693 -0.013268
v -0.015000 -0.015000 -0.015000
v 0.015000 -0.015000 -0.015000
v 0.015000 0.015000 -0.015000
v -0.015000 0.015000 -0.015000
v -0.015000 -0.015000 0.015000
v 0.015000 -0.015000 0.015000
v 0.015000 0.015000 0.015000
v -0.015000 0.015000 0.015000
v 0.009135 -0.042882 -0.021029
v 0.039135 -0.042882 -0.021029
v 0.039135 -0.012882 -0.021029
v 0.009135 -0.012882 -0.021029
v 0.009135 -0.042882 0.008971
v 0.039135 -0.042882 0.008971
v 0.039135 -0.012882 0.008971
v 0.009135 -0.012882 0.008971
v 0.036572 -0.050225 -0.031266
v 0.066572 -0.050225 -0.031266
v 0.066572 -0.020225 -0.031266
v 0.036572 -0.020225 -0.031266
v 0.036572 -0.050225 -0.001266
v 0.066572 -0.050225 -0.001266
v 0.066572 -0.020225 -0.001266
v 0.036572 -0.020225 -0.001266
v 0.054848 -0.045657 -0.054250
v 0.084848 -0.045657 -0.054250
v 0.084848 -0.015657 -0.054250
v 0.054848 -0.015657 -0.054250
v 0.054848 -0.045657 -0.024250
v 0.084848 -0.045657 -0.024250
v 0.084848 -0.015657 -0.024250
v 0.054848 -0.015657 -0.024250
v 0.067711 -0.040096 -0.074983
v 0.097711 -0.040096 -0.074983
v 0.097711 -0.010096 -0.074983
v 0.067711 -0.010096 -0.074983
v 0.067711 -0.040096 -0.044983
v 0.097711 -0.040096 -0.044983
v 0.097711 -0.010096 -0.044983
v 0.067711 -0.010096 -0.044983
v 0.038846 -0.066240 -0.077729
v 0.068846 -0.066240 -0.077729
v 0.068846 -0.036240 -0.077729
v 0.038846 -0.036240 -0.077729
v 0.038846 -0.066240 -0.047729
v 0.068846 -0.066240 -0.047729
v 0.068846 -0.036240 -0.047729
v 0.038846 -0.036240 -0.047729
v 0.063422 -0.068125 -0.081274
v 0.093422 -0.068125 -0.081274
v 0.093422 -0.038125 -0.081274
v 0.063422 -0.038125 -0.081274
v 0.063422 -0.068125 -0.051274
v 0.093422 -0.068125 -0.051274
v 0.093422 -0.038125 -0.051274
v 0.063422 -0.038125 -0.051274
v 0.084355 -0.073229 -0.066069
v 0.114355 -0.073229 -0.066069
v 0.114355 -0.043229 -0.066069
v 0.084355 -0.043229 -0.066069
v 0.084355 -0.073229 -0.036069
v 0.114355 -0.073229 -0.036069
v 0.114355 -0.043229 -0.036069
v 0.084355 -0.043229 -0.036069
v 0.100708 -0.075689 -0.051519
v 0.130708 -0.075689 -0.051519
v 0.130708 -0.045689 -0.051519
v 0.100708 -0.045689 -0.051519
v 0.100708 -0.075689 -0.021519
v 0.130708 -0.075689 -0.021519
v 0.130708 -0.045689 -0.021519
v 0.100708 -0.045689 -0.021519
v 0.038802 -0.048399 -0.087249
v 0.068802 -0.048399 -0.087249
v 0.068802 -0.018399 -0.087249
v 0.038802 -0.018399 -0.087249
v 0.038802 -0.048399 -0.057249
v 0.068802 -0.048399 -0.057249
v 0.068802 -0.018399 -0.057249
v 0.038802 -0.018399 -0.057249
v 0.070269 -0.057070 -0.093153
v 0.100269 -0.057070 -0.093153
v 0.100269 -0.027070 -0.093153
v 0.070269 -0.027070 -0.093153
v 0.070269 -0.057070 -0.063153
v 0.100269 -0.057070 -0.063153
v 0.100269 -0.027070 -0.063153
v 0.070269 -0.027070 -0.063153
v 0.092031 -0.065199 -0.079804
v 0.122031 -0.065199 -0.079804
v 0.122031 -0.035199 -0.079804
v 0.092031 -0.035199 -0.079804
v 0.092031 -0.065199 -0.049804
v 0.122031 -0.065199 -0.049804
v 0.122031 -0.035199 -0.049804
v 0.092031 -0.035199 -0.049804
v 0.115249 -0.072514 -0.062819
v 0.145249 -0.072514 -0.062819
v 0.145249 -0.042514 -0.062819
v 0.115249 -0.042514 -0.062819
v 0.115249 -0.072514 -0.032819
v 0.145249 -0.072514 -0.032819
v 0.145249 -0.042514 -0.032819
v 0.115249 -0.042514 -0.032819
v 0.042605 -0.031292 -0.090550
v 0.072605 -0.031292 -0.090550
v 0.072605 -0.001292 -0.090550
v 0.042605 -0.001292 -0.090550
v 0.042605 -0.031292 -0.060550
v 0.072605 -0.031292 -0.060550
v 0.072605 -0.001292 -0.060550
v 0.042605 -0.001292 -0.060550
v 0.066969 -0.031814 -0.082020
v 0.096969 -0.031814 -0.082020
v 0.096969 -0.001814 -0.082020
v 0.066969 -0.001814 -0.082020
v 0.066969 -0.031814 -0.052020
v 0.096969 -0.031814 -0.052020
v 0.096969 -0.001814 -0.052020
v 0.066969 -0.001814 -0.052020
v 0.063422 -0.033780 -0.055198
v 0.093422 -0.033780 -0.055198
v 0.093422 -0.003780 -0.055198
v 0.063422 -0.003780 -0.055198
v 0.063422 -0.033780 -0.025198
v 0.093422 -0.033780 -0.025198
v 0.093422 -0.003780 -0.025198
v 0.063422 -0.003780 -0.025198
v 0.051267 -0.034477 -0.029107
v 0.081267 -0.034477 -0.029107
v 0.081267 -0.004477 -0.029107
v 0.051267 -0.004477 -0.029107
v 0.051267 -0.034477 0.000893
v 0.081267 -0.034477 0.000893
v 0.081267 -0.004477 0.000893
v 0.051267 -0.004477 0.000893
v 0.038067 -0.013461 -0.083666
v 0.068067 -0.013461 -0.083666
v 0.068067 0.016539 -0.083666
v 0.038067 0.016539 -0.083666
v 0.038067 -0.013461 -0.053666
v 0.068067 -0.013461 -0.053666
v 0.068067 0.016539 -0.053666
v 0.038067 0.016539 -0.053666
v 0.057653 -0.015663 -0.075862
v 0.087653 -0.015663 -0.075862
v 0.087653 0.014337 -0.075862
v 0.057653 0.014337 -0.075862
v 0.057653 -0.015663 -0.045862
v 0.087653 -0.015663 -0.045862
v 0.087653 0.014337 -0.045862
v 0.057653 0.014337 -0.045862
v 0.061517 -0.019083 -0.054346
v 0.091517 -0.019083 -0.054346
v 0.091517 0.010917 -0.054346
v 0.061517 0.010917 -0.054346
v 0.061517 -0.019083 -0.024346
v 0.091517 -0.019083 -0.024346
v 0.091517 0.010917 -0.024346
v 0.061517 0.010917 -0.024346
v 0.049365 -0.021179 -0.038692
v 0.079365 -0.021179 -0.038692
v 0.079365 0.008821 -0.038692
v 0.049365 0.008821 -0.038692
v 0.049365 -0.021179 -0.008692
v 0.079365 -0.021179 -0.008692
v 0.079365 0.008821 -0.008692
v 0.049365 0.008821 -0.008692
v 0.000000 -0.008157 0.018261
v -0.010948 0.002406 0.016564
v -0.015482 0.011560 0.005164
v -0.010948 0.013942 -0.009261
v -0.000000 0.008157 -0.018261
v 0.010948 -0.002406 -0.016564
v 0.015482 -0.011560 -0.005164
v 0.010948 -0.013942 0.009261
v -0.024741 -0.035780 0.005922
v -0.035688 -0.025217 0.004225
v -0.040223 -0.016063 -0.007175
v -0.035688 -0.013681 -0.021600
v -0.024741 -0.019466 -0.030600
v -0.013793 -0.030029 -0.028903
v -0.009259 -0.039183 -0.017503
v -0.013793 -0.041565 -0.003078
v -0.024741 -0.046055 -0.004576
v -0.032891 -0.036170 0.003802
v -0.036267 -0.021278 0.002724
v -0.032891 -0.010104 -0.007178
v -0.024741 -0.009192 -0.020103
v -0.016590 -0.019076 -0.028480
v -0.013214 -0.033968 -0.027402
v -0.016590 -0.045143 -0.017501
v -0.045785 -0.051816 -0.018252
v -0.053935 -0.041931 -0.009875
v -0.057311 -0.027039 -0.010953
v -0.053935 -0.015864 -0.020855
v -0.045785 -0.014952 -0.033779
v -0.037634 -0.024837 -0.042157
v -0.034258 -0.039729 -0.041079
v -0.037634 -0.050903 -0.031177
v -0.045785 -0.052026 -0.033261
v -0.057928 -0.049191 -0.024382
v -0.062957 -0.037097 -0.016460
v -0.057928 -0.022828 -0.014136
v -0.045785 -0.014742 -0.018771
v -0.033642 -0.017576 -0.027650
v -0.028612 -0.029670 -0.035571
v -0.033642 -0.043940 -0.037895
v -0.063198 -0.041460 -0.060448
v -0.075341 -0.038626 -0.051569
v -0.080370 -0.026532 -0.043648
v -0.075341 -0.012262 -0.041324
v -0.063198 -0.004176 -0.045959
v -0.051055 -0.007011 -0.054837
v -0.046025 -0.019105 -0.062759
v -0.051055 -0.033374 -0.065083
v -0.063198 -0.040058 -0.063342
v -0.075351 -0.038675 -0.054138
v -0.080385 -0.028003 -0.044387
v -0.075351 -0.014294 -0.039801
v -0.063198 -0.005578 -0.043065
v -0.051044 -0.006962 -0.052268
v -0.046010 -0.017634 -0.062019
v -0.051044 -0.031343 -0.066606
v -0.078791 -0.026774 -0.085931
v -0.090945 -0.025390 -0.076728
v -0.095979 -0.014718 -0.066977
v -0.090945 -0.001010 -0.062390
v -0.078791 0.007706 -0.065654
v -0.066638 0.006322 -0.074858
v -0.061604 -0.004350 -0.084609
v -0.066638 -0.018059 -0.089195
v 0.000000 -0.017725 0.009263
v -0.012319 -0.009316 0.012706
v -0.017421 0.004550 0.008706
v -0.012319 0.015751 -0.000394
v -0.000000 0.017725 -0.009263
v 0.012319 0.009316 -0.012706
v 0.017421 -0.004550 -0.008706
v 0.012319 -0.015751 0.000394
v -0.047564 -0.056795 -0.065495
v -0.059882 -0.048386 -0.062052
v -0.064985 -0.034520 -0.066052
v -0.059882 -0.023319 -0.075153
v -0.047564 -0.021344 -0.084022
v -0.035245 -0.029753 -0.087465
v -0.030142 -0.043619 -0.083465
v -0.035245 -0.054821 -0.074365
v -0.043009 -0.039070 -0.094233
v -0.043480 -0.053184 -0.088327
v -0.046343 -0.059030 -0.074473
v -0.049921 -0.053184 -0.060786
v -0.052118 -0.039070 -0.055284
v -0.051648 -0.024955 -0.061190
v -0.048785 -0.019109 -0.075044
v -0.045207 -0.024955 -0.088731
v -0.063963 -0.040422 -0.099134
v -0.064434 -0.054536 -0.093228
v -0.067296 -0.060382 -0.079374
v -0.070875 -0.054536 -0.065687
v -0.073072 -0.040422 -0.060185
v -0.072602 -0.026307 -0.066091
v -0.069739 -0.020461 -0.079945
v -0.066160 -0.026307 -0.093632
v -0.068518 -0.020553 -0.081944
v -0.077813 -0.027590 -0.091863
v -0.081663 -0.042144 -0.094634
v -0.077813 -0.055689 -0.088632
v -0.068518 -0.060291 -0.077374
v -0.059222 -0.053253 -0.067455
v -0.055372 -0.038699 -0.064685
v -0.059222 -0.025154 -0.070686
v -0.090365 -0.018376 -0.063016
v -0.099660 -0.025413 -0.072935
v -0.103511 -0.039967 -0.075705
v -0.099660 -0.053512 -0.069703
v -0.090365 -0.058114 -0.058446
v -0.081070 -0.051077 -0.048526
v -0.077220 -0.036523 -0.045756
v -0.081070 -0.022977 -0.051758
v -0.090365 -0.021325 -0.071395
v -0.102702 -0.029967 -0.074120
v -0.107812 -0.043458 -0.069002
v -0.102702 -0.053895 -0.059039
v -0.090365 -0.055164 -0.050066
v -0.078028 -0.046522 -0.047341
v -0.072918 -0.033031 -0.052459
v -0.078028 -0.022594 -0.062422
v -0.103626 -0.008709 -0.051378
v -0.115963 -0.017351 -0.054104
v -0.121073 -0.030842 -0.048985
v -0.115963 -0.041279 -0.039022
v -0.103626 -0.042548 -0.030049
v -0.091289 -0.033905 -0.027324
v -0.086179 -0.020414 -0.032442
v -0.091289 -0.009978 -0.042405
v 0.000000 -0.019001 0.006243
v -0.012445 -0.011339 0.010795
v -0.017600 0.002965 0.009025
v -0.012445 0.015532 0.001967
v -0.000000 0.019001 -0.006243
v 0.012445 0.011339 -0.010795
v 0.017600 -0.002965 -0.009025
v 0.012445 -0.015532 -0.001967
v -0.045534 -0.045334 -0.073910
v -0.057980 -0.037672 -0.069357
v -0.063135 -0.023368 -0.071128
v -0.057980 -0.010801 -0.078186
v -0.045534 -0.007332 -0.086395
v -0.033089 -0.014994 -0.090948
v -0.027934 -0.029298 -0.089177
v -0.033089 -0.041865 -0.082120
v -0.043634 -0.026333 -0.100062
v -0.044445 -0.040473 -0.094255
v -0.045894 -0.046330 -0.080187
v -0.047133 -0.040473 -0.066099
v -0.047435 -0.026333 -0.060243
v -0.046624 -0.012193 -0.066050
v -0.045175 -0.006337 -0.080118
v -0.043936 -0.012193 -0.094207
v -0.071974 -0.025819 -0.102768
v -0.072785 -0.039959 -0.096961
v -0.074235 -0.045816 -0.082893
v -0.075474 -0.039959 -0.068805
v -0.075776 -0.025819 -0.062949
v -0.074965 -0.011679 -0.068756
v -0.073515 -0.005822 -0.082824
v -0.072277 -0.011679 -0.096912
v -0.073875 -0.008036 -0.092012
v -0.082917 -0.018222 -0.099000
v -0.086662 -0.032857 -0.096532
v -0.082917 -0.043370 -0.086055
v -0.073875 -0.043601 -0.073705
v -0.064834 -0.033416 -0.066718
v -0.061089 -0.018781 -0.069185
v -0.064834 -0.008268 -0.079662
v -0.097773 0.001057 -0.074345
v -0.106814 -0.009128 -0.081333
v -0.110559 -0.023763 -0.078865
v -0.106814 -0.034276 -0.068388
v -0.097773 -0.034508 -0.056039
v -0.088731 -0.024322 -0.049051
v -0.084986 -0.009687 -0.051518
v -0.088731 0.000826 -0.061996
v -0.097773 0.003068 -0.068064
v -0.109506 -0.003863 -0.075035
v -0.114366 -0.018328 -0.076241
v -0.109506 -0.031854 -0.070974
v -0.097773 -0.036518 -0.062320
v -0.086039 -0.029587 -0.055348
v -0.081179 -0.015122 -0.054143
v -0.086039 -0.001596 -0.059410
v -0.115348 0.006818 -0.042213
v -0.127082 -0.000112 -0.049185
v -0.131942 -0.014578 -0.050391
v -0.127082 -0.028104 -0.045124
v -0.115348 -0.032767 -0.036470
v -0.103615 -0.025836 -0.029498
v -0.098755 -0.011371 -0.028292
v -0.103615 0.002155 -0.033559
v 0.000000 -0.019658 0.003682
v -0.012410 -0.012652 0.009269
v -0.017551 0.001765 0.009426
v -0.012410 0.015149 0.004062
v -0.000000 0.019658 -0.003682
v 0.012410 0.012652 -0.009269
v 0.017551 -0.001765 -0.009426
v 0.012410 -0.015149 -0.004062
v -0.045007 -0.034822 -0.077280
v -0.057417 -0.027816 -0.071694
v -0.062558 -0.013399 -0.071536
v -0.057417 -0.000015 -0.076901
v -0.045007 0.004494 -0.084644
v -0.032596 -0.002512 -0.090231
v -0.027456 -0.016930 -0.090388
v -0.032596 -0.030313 -0.085024
v -0.049898 -0.015164 -0.100355
v -0.050383 -0.029167 -0.094191
v -0.047718 -0.034968 -0.080278
v -0.043465 -0.029167 -0.066766
v -0.040115 -0.015164 -0.061570
v -0.039631 -0.001161 -0.067733
v -0.042296 0.004640 -0.081646
v -0.046549 -0.001161 -0.095158
v -0.076729 -0.011258 -0.093587
v -0.077213 -0.025261 -0.087424
v -0.074548 -0.031061 -0.073511
v -0.070295 -0.025261 -0.059998
v -0.066946 -0.011258 -0.054802
v -0.066462 0.002746 -0.060965
v -0.069126 0.008546 -0.074878
v -0.073379 0.002746 -0.088391
v -0.071837 0.008734 -0.073610
v -0.085957 0.002902 -0.074573
v -0.091806 -0.011225 -0.075315
v -0.085957 -0.025371 -0.075400
v -0.071837 -0.031249 -0.074779
v -0.057717 -0.025417 -0.073815
v -0.051869 -0.011290 -0.073074
v -0.057717 0.002855 -0.072989
v -0.073165 0.008043 -0.049970
v -0.087285 0.002211 -0.050934
v -0.093133 -0.011916 -0.051675
v -0.087285 -0.026061 -0.051760
v -0.073165 -0.031940 -0.051139
v -0.059045 -0.026108 -0.050176
v -0.053196 -0.011981 -0.049434
v -0.059045 0.002165 -0.049350
v -0.073165 0.007967 -0.048721
v -0.086958 0.001848 -0.046148
v -0.092671 -0.012353 -0.046157
v -0.086958 -0.026317 -0.048741
v -0.073165 -0.031864 -0.052388
v -0.059372 -0.025745 -0.054961
v -0.053658 -0.011543 -0.054953
v -0.059372 0.002421 -0.052368
v -0.067475 0.005663 -0.023697
v -0.081268 -0.000456 -0.021124
v -0.086981 -0.014658 -0.021133
v -0.081268 -0.028621 -0.023718
v -0.067475 -0.034168 -0.027364
v -0.053682 -0.028049 -0.029937
v -0.047968 -0.013848 -0.029929
v -0.053682 0.000116 -0.027344
v 0.000000 -0.019993 -0.000537
v -0.012091 -0.014334 0.006953
v -0.017099 -0.000278 0.010370
v -0.012091 0.013940 0.007712
v -0.000000 0.019993 0.000537
v 0.012091 0.014334 -0.006953
v 0.017099 0.000278 -0.010370
v 0.012091 -0.013940 -0.007712
v -0.041872 -0.018141 -0.069530
v -0.053963 -0.012482 -0.062040
v -0.058971 0.001574 -0.058624
v -0.053963 0.015792 -0.061281
v -0.041872 0.021845 -0.068457
v -0.029781 0.016186 -0.075947
v -0.024773 0.002130 -0.079364
v -0.029781 -0.012088 -0.076706
v -0.045457 0.001852 -0.088670
v -0.043685 -0.012271 -0.083038
v -0.040851 -0.018121 -0.069180
v -0.038615 -0.012271 -0.055212
v -0.038288 0.001852 -0.049317
v -0.040059 0.015975 -0.054949
v -0.042893 0.021825 -0.068808
v -0.045129 0.015975 -0.082775
v -0.066517 0.000740 -0.084833
v -0.064745 -0.013383 -0.079201
v -0.061912 -0.019233 -0.065343
v -0.059676 -0.013383 -0.051375
v -0.059348 0.000740 -0.045481
v -0.061120 0.014863 -0.051112
v -0.063954 0.020713 -0.064971
v -0.066189 0.014863 -0.078938
v -0.062933 0.020502 -0.062082
v -0.076867 0.015085 -0.065368
v -0.082639 0.001264 -0.068530
v -0.076867 -0.012863 -0.069716
v -0.062933 -0.019023 -0.068231
v -0.048998 -0.013605 -0.064946
v -0.043226 0.000215 -0.061784
v -0.048998 0.014343 -0.060598
v -0.066474 0.017359 -0.041881
v -0.080409 0.011942 -0.045166
v -0.086181 -0.001879 -0.048328
v -0.080409 -0.016006 -0.049514
v -0.066474 -0.022166 -0.048030
v -0.052539 -0.016748 -0.044744
v -0.046767 -0.002928 -0.041582
v -0.052539 0.011200 -0.040396
v -0.066474 0.017561 -0.043752
v -0.077870 0.011210 -0.035745
v -0.082590 -0.003116 -0.033133
v -0.077870 -0.017023 -0.037447
v -0.066474 -0.022367 -0.046158
v -0.055078 -0.016016 -0.054165
v -0.050358 -0.001691 -0.056777
v -0.055078 0.012217 -0.052464
v -0.054304 0.016564 -0.027221
v -0.065700 0.010213 -0.019215
v -0.070421 -0.004112 -0.016603
v -0.065700 -0.018020 -0.020916
v -0.054304 -0.023363 -0.029628
v -0.042908 -0.017012 -0.037634
v -0.038188 -0.002687 -0.040246
v -0.042908 0.011221 -0.035933
v -0.015000 -0.015000 -0.015000
v 0.015000 -0.015000 -0.015000
v 0.015000 0.015000 -0.015000
v -0.015000 0.015000 -0.015000
v -0.015000 -0.015000 0.015000
v 0.015000 -0.015000 0.015000
v 0.015000 0.015000 0.015000
v -0.015000 0.015000 0.015000
v -0.039741 -0.042623 -0.027339
v -0.009741 -0.042623 -0.027339
v -0.009741 -0.012623 -0.027339
v -0.039741 -0.012623 -0.027339
v -0.039741 -0.042623 0.002661
v -0.009741 -0.042623 0.002661
v -0.009741 -0.012623 0.002661
v -0.039741 -0.012623 0.002661
v -0.060785 -0.048384 -0.041016
v -0.030785 -0.048384 -0.041016
v -0.030785 -0.018384 -0.041016
v -0.060785 -0.018384 -0.041016
v -0.060785 -0.048384 -0.011016
v -0.030785 -0.048384 -0.011016
v -0.030785 -0.018384 -0.011016
v -0.060785 -0.018384 -0.011016
v -0.078198 -0.037818 -0.068203
v -0.048198 -0.037818 -0.068203
v -0.048198 -0.007818 -0.068203
v -0.078198 -0.007818 -0.068203
v -0.078198 -0.037818 -0.038203
v -0.048198 -0.037818 -0.038203
v -0.048198 -0.007818 -0.038203
v -0.078198 -0.007818 -0.038203
v -0.093791 -0.024534 -0.090793
v -0.063791 -0.024534 -0.090793
v -0.063791 0.005466 -0.090793
v -0.093791 0.005466 -0.090793
v -0.093791 -0.024534 -0.060793
v -0.063791 -0.024534 -0.060793
v -0.063791 0.005466 -0.060793
v -0.093791 0.005466 -0.060793
v -0.062564 -0.054070 -0.089759
v -0.032564 -0.054070 -0.089759
v -0.032564 -0.024070 -0.089759
v -0.062564 -0.024070 -0.089759
v -0.062564 -0.054070 -0.059759
v -0.032564 -0.054070 -0.059759
v -0.032564 -0.024070 -0.059759
v -0.062564 -0.024070 -0.059759
v -0.083518 -0.055422 -0.094659
v -0.053518 -0.055422 -0.094659
v -0.053518 -0.025422 -0.094659
v -0.083518 -0.025422 -0.094659
v -0.083518 -0.055422 -0.064659
v -0.053518 -0.055422 -0.064659
v -0.053518 -0.025422 -0.064659
v -0.083518 -0.025422 -0.064659
v -0.105365 -0.053245 -0.075731
v -0.075365 -0.053245 -0.075731
v -0.075365 -0.023245 -0.075731
v -0.105365 -0.023245 -0.075731
v -0.105365 -0.053245 -0.045731
v -0.075365 -0.053245 -0.045731
v -0.075365 -0.023245 -0.045731
v -0.105365 -0.023245 -0.045731
v -0.118626 -0.040628 -0.055714
v -0.088626 -0.040628 -0.055714
v -0.088626 -0.010628 -0.055714
v -0.118626 -0.010628 -0.055714
v -0.118626 -0.040628 -0.025714
v -0.088626 -0.040628 -0.025714
v -0.088626 -0.010628 -0.025714
v -0.118626 -0.010628 -0.025714
v -0.060534 -0.041333 -0.095153
v -0.030534 -0.041333 -0.095153
v -0.030534 -0.011333 -0.095153
v -0.060534 -0.011333 -0.095153
v -0.060534 -0.041333 -0.065153
v -0.030534 -0.041333 -0.065153
v -0.030534 -0.011333 -0.065153
v -0.060534 -0.011333 -0.065153
v -0.088875 -0.040819 -0.097859
v -0.058875 -0.040819 -0.097859
v -0.058875 -0.010819 -0.097859
v -0.088875 -0.010819 -0.097859
v -0.088875 -0.040819 -0.067859
v -0.058875 -0.040819 -0.067859
v -0.058875 -0.010819 -0.067859
v -0.088875 -0.010819 -0.067859
v -0.112773 -0.031725 -0.080192
v -0.082773 -0.031725 -0.080192
v -0.082773 -0.001725 -0.080192
v -0.112773 -0.001725 -0.080192
v -0.112773 -0.031725 -0.050192
v -0.082773 -0.031725 -0.050192
v -0.082773 -0.001725 -0.050192
v -0.112773 -0.001725 -0.050192
v -0.130348 -0.027974 -0.054341
v -0.100348 -0.027974 -0.054341
v -0.100348 0.002026 -0.054341
v -0.130348 0.002026 -0.054341
v -0.130348 -0.027974 -0.024341
v -0.100348 -0.027974 -0.024341
v -0.100348 0.002026 -0.024341
v -0.130348 0.002026 -0.024341
v -0.060007 -0.030164 -0.095962
v -0.030007 -0.030164 -0.095962
v -0.030007 -0.000164 -0.095962
v -0.060007 -0.000164 -0.095962
v -0.060007 -0.030164 -0.065962
v -0.030007 -0.030164 -0.065962
v -0.030007 -0.000164 -0.065962
v -0.060007 -0.000164 -0.065962
v -0.086837 -0.026258 -0.089194
v -0.056837 -0.026258 -0.089194
v -0.056837 0.003742 -0.089194
v -0.086837 0.003742 -0.089194
v -0.086837 -0.026258 -0.059194
v -0.056837 -0.026258 -0.059194
v -0.056837 0.003742 -0.059194
v -0.086837 0.003742 -0.059194
v -0.088165 -0.026948 -0.065555
v -0.058165 -0.026948 -0.065555
v -0.058165 0.003052 -0.065555
v -0.088165 0.003052 -0.065555
v -0.088165 -0.026948 -0.035555
v -0.058165 -0.026948 -0.035555
v -0.058165 0.003052 -0.035555
v -0.088165 0.003052 -0.035555
v -0.082475 -0.029253 -0.040531
v -0.052475 -0.029253 -0.040531
v -0.052475 0.000747 -0.040531
v -0.082475 0.000747 -0.040531
v -0.082475 -0.029253 -0.010531
v -0.052475 -0.029253 -0.010531
v -0.052475 0.000747 -0.010531
v -0.082475 0.000747 -0.010531
v -0.056872 -0.013148 -0.083994
v -0.026872 -0.013148 -0.083994
v -0.026872 0.016852 -0.083994
v -0.056872 0.016852 -0.083994
v -0.056872 -0.013148 -0.053994
v -0.026872 -0.013148 -0.053994
v -0.026872 0.016852 -0.053994
v -0.056872 0.016852 -0.053994
v -0.077933 -0.014260 -0.080157
v -0.047933 -0.014260 -0.080157
v -0.047933 0.015740 -0.080157
v -0.077933 0.015740 -0.080157
v -0.077933 -0.014260 -0.050157
v -0.047933 -0.014260 -0.050157
v -0.047933 0.015740 -0.050157
v -0.077933 0.015740 -0.050157
v -0.081474 -0.017403 -0.059955
v -0.051474 -0.017403 -0.059955
v -0.051474 0.012597 -0.059955
v -0.081474 0.012597 -0.059955
v -0.081474 -0.017403 -0.029955
v -0.051474 -0.017403 -0.029955
v -0.051474 0.012597 -0.029955
v -0.081474 0.012597 -0.029955
v -0.069304 -0.018399 -0.043425
v -0.039304 -0.018399 -0.043425
v -0.039304 0.011601 -0.043425
v -0.069304 0.011601 -0.043425
v -0.069304 -0.018399 -0.013425
v -0.039304 -0.018399 -0.013425
v -0.039304 0.011601 -0.013425
v -0.069304 0.011601 -0.013425
f 1 2 9
f 2 10 9
f 2 3 10
f 3 11 10
f 3 4 11
f 4 12 11
f 4 5 12
f 5 13 12
f 5 6 13
f 6 14 13
f 6 7 14
f 7 15 14
f 7 8 15
f 8 16 15
f 8 1 16
f 1 9 16
f 17 18 25
f 18 26 25
f 18 19 26
f 19 27 26
f 19 20 27
f 20 28 27
f 20 21 28
f 21 29 28
f 21 22 29
f 22 30 29
f 22 23 30
f 23 31 30
f 23 24 31
f 24 32 31
f 24 17 32
f 17 25 32
f 33 34 41
f 34 42 41
f 34 35 42
f 35 43 42
f 35 36 43
f 36 44 43
f 36 37 44
f 37 45 44
f 37 38 45
f 38 46 45
f 38 39 46
f 39 47 46
f 39 40 47
f 40 48 47
f 40 33 48
f 33 41 48
f 49 50 57
f 50 58 57
f 50 51 58
f 51 59 58
f 51 52 59
f 52 60 59
f 52 53 60
f 53 61 60
f 53 54 61
f 54 62 61
f 54 55 62
f 55 63 62
f 55 56 63
f 56 64 63
f 56 49 64
f 49 57 64
f 65 66 73
f 66 74 73
f 66 67 74
f 67 75 74
f 67 68 75
f 68 76 75
f 68 69 76
f 69 77 76
f 69 70 77
f 70 78 77
f 70 71 78
f 71 79 78
f 71 72 79
f 72 80 79
f 72 65 80
f 65 73 80
f 81 82 89
f 82 90 89
f 82 83 90
f 83 91 90
f 83 84 91
f 84 92 91
f 84 85 92
f 85 93 92
f 85 86 93
f 86 94 93
f 86 87 94
f 87 95 94
f 87 88 95
f 88 96 95
f 88 81 96
f 81 89 96
f 97 98 105
f 98 106 105
f 98 99 106
f 99 107 106
f 99 100 107
f 100 108 107
f 100 101 108
f 101 109 108
f 101 102 109
f 102 110 109
f 102 103 110
f 103 111 110
f 103 104 111
f 104 112 111
f 104 97 112
f 97 105 112
f 113 114 121
f 114 122 121
f 114 115 122
f 115 123 122
f 115 116 123
f 116 124 123
f 116 117 124
f 117 125 124
f 117 118 125
f 118 126 125
f 118 119 126
f 119 127 126
f 119 120 127
f 120 128 127
f 120 113 128
f 113 121 128
f 129 130 137
f 130 138 137
f 130 131 138
f 131 139 138
f 131 132 139
f 132 140 139
f 132 133 140
f 133 141 140
f 133 134 141
f 134 142 141
f 134 135 142
f 135 143 142
f 135 136 143
f 136 144 143
f 136 129 144
f 129 137 144
f 145 146 153
f 146 154 153
f 146 147 154
f 147 155 154
f 147 148 155
f 148 156 155
f 148 149 156
f 149 157 156
f 149 150 157
f 150 158 157
f 150 151 158
f 151 159 158
f 151 152 159
f 152 160 159
f 152 145 160
f 145 153 160
f 161 162 169
f 162 170 169
f 162 163 170
f 163 171 170
f 163 164 171
f 164 172 171
f 164 165 172
f 165 173 172
f 165 166 173
f 166 174 173
f 166 167 174
f 167 175 174
f 167 168 175
f 168 176 175
f 168 161 176
f 161 169 176
f 177 178 185
f 178 186 185
f 178 179 186
f 179 187 186
f 179 180 187
f 180 188 187
f 180 181 188
f 181 189 188
f 181 182 189
f 182 190 189
f 182 183 190
f 183 191 190
f 183 184 191
f 184 192 191
f 184 177 192
f 177 185 192
f 193 194 201
f 194 202 201
f 194 195 202
f 195 203 202
f 195 196 203
f 196 204 203
f 196 197 204
f 197 205 204
f 197 198 205
f 198 206 205
f 198 199 206
f 199 207 206
f 199 200 207
f 200 208 207
f 200 193 208
f 193 201 208
f 209 210 217
f 210 218 217
f 210 211 218
f 211 219 218
f 211 212 219
f 212 220 219
f 212 213 220
f 213 221 220
f 213 214 221
f 214 222 221
f 214 215 222
f 215 223 222
f 215 216 223
f 216 224 223
f 216 209 224
f 209 217 224
f 225 226 233
f 226 234 233
f 226 227 234
f 227 235 234
f 227 228 235
f 228 236 235
f 228 229 236
f 229 237 236
f 229 230 237
f 230 238 237
f 230 231 238
f 231 239 238
f 231 232 239
f 232 240 239
f 232 225 240
f 225 233 240
f 241 242 249
f 242 250 249
f 242 243 250
f 243 251 250
f 243 244 251
f 244 252 251
f 244 245 252
f 245 253 252
f 245 246 253
f 246 254 253
f 246 247 254
f 247 255 254
f 247 248 255
f 248 256 255
f 248 241 256
f 241 249 256
f 257 258 265
f 258 266 265
f 258 259 266
f 259 267 266
f 259 260 267
f 260 268 267
f 260 261 268
f 261 269 268
f 261 262 269
f 262 270 269
f 262 263 270
f 263 271 270
f 263 264 271
f 264 272 271
f 264 257 272
f 257 265 272
f 273 274 281
f 274 282 281
f 274 275 282
f 275 283 282
f 275 276 283
f 276 284 283
f 276 277 284
f 277 285 284
f 277 278 285
f 278 286 285
f 278 279 286
f 279 287 286
f 279 280 287
f 280 288 287
f 280 273 288
f 273 281 288
f 289 290 297
f 290 298 297
f 290 291 298
f 291 299 298
f 291 292 299
f 292 300 299
f 292 293 300
f 293 301 300
f 293 294 301
f 294 302 301
f 294 295 302
f 295 303 302
f 295 296 303
f 296 304 303
f 296 289 304
f 289 297 304
f 305 306 313
f 306 314 313
f 306 307 314
f 307 315 314
f 307 308 315
f 308 316 315
f 308 309 316
f 309 317 316
f 309 310 317
f 310 318 317
f 310 311 318
f 311 319 318
f 311 312 319
f 312 320 319
f 312 305 320
f 305 313 320
f 321 322 323
f 321 323 324
f 325 326 327
f 325 327 328
f 321 325 326
f 321 326 322
f 322 326 327
f 322 327 323
f 323 327 328
f 323 328 324
f 324 328 325
f 324 325 321
f 329 330 331
f 329 331 332
f 333 334 335
f 333 335 336
f 329 333 334
f 329 334 330
f 330 334 335
f 330 335 331
f 331 335 336
f 331 336 332
f 332 336 333
f 332 333 329
f 337 338 339
f 337 339 340
f 341 342 343
f 341 343 344
f 337 341 342
f 337 342 338
f 338 342 343
f 338 343 339
f 339 343 344
f 339 344 340
f 340 344 341
f 340 341 337
f 345 346 347
f 345 347 348
f 349 350 351
f 349 351 352
f 345 349 350
f 345 350 346
f 346 350 351
f 346 351 347
f 347 351 352
f 347 352 348
f 348 352 349
f 348 349 345
f 353 354 355
f 353 355 356
f 357 358 359
f 357 359 360
f 353 357 358
f 353 358 354
f 354 358 359
f 354 359 355
f 355 359 360
f 355 360 356
f 356 360 357
f 356 357 353
f 361 362 363
f 361 363 364
f 365 366 367
f 365 367 368
f 361 365 366
f 361 366 362
f 362 366 367
f 362 367 363
f 363 367 368
f 363 368 364
f 364 368 365
f 364 365 361
f 369 370 371
f 369 371 372
f 373 374 375
f 373 375 376
f 369 373 374
f 369 374 370
f 370 374 375
f 370 375 371
f 371 375 376
f 371 376 372
f 372 376 373
f 372 373 369
f 377 378 379
f 377 379 380
f 381 382 383
f 381 383 384
f 377 381 382
f 377 382 378
f 378 382 383
f 378 383 379
f 379 383 384
f 379 384 380
f 380 384 381
f 380 381 377
f 385 386 387
f 385 387 388
f 389 390 391
f 389 391 392
f 385 389 390
f 385 390 386
f 386 390 391
f 386 391 387
f 387 391 392
f 387 392 388
f 388 392 389
f 388 389 385
f 393 394 395
f 393 395 396
f 397 398 399
f 397 399 400
f 393 397 398
f 393 398 394
f 394 398 399
f 394 399 395
f 395 399 400
f 395 400 396
f 396 400 397
f 396 397 393
f 401 402 403
f 401 403 404
f 405 406 407
f 405 407 408
f 401 405 406
f 401 406 402
f 402 406 407
f 402 407 403
f 403 407 408
f 403 408 404
f 404 408 405
f 404 405 401
f 409 410 411
f 409 411 412
f 413 414 415
f 413 415 416
f 409 413 414
f 409 414 410
f 410 414 415
f 410 415 411
f 411 415 416
f 411 416 412
f 412 416 413
f 412 413 409
f 417 418 419
f 417 419 420
f 421 422 423
f 421 423 424
f 417 421 422
f 417 422 418
f 418 422 423
f 418 423 419
f 419 423 424
f 419 424 420
f 420 424 421
f 420 421 417
f 425 426 427
f 425 427 428
f 429 430 431
f 429 431 432
f 425 429 430
f 425 430 426
f 426 430 431
f 426 431 427
f 427 431 432
f 427 432 428
f 428 432 429
f 428 429 425
f 433 434 435
f 433 435 436
f 437 438 439
f 437 439 440
f 433 437 438
f 433 438 434
f 434 438 439
f 434 439 435
f 435 439 440
f 435 440 436
f 436 440 437
f 436 437 433
f 441 442 443
f 441 443 444
f 445 446 447
f 445 447 448
f 441 445 446
f 441 446 442
f 442 446 447
f 442 447 443
f 443 447 448
f 443 448 444
f 444 448 445
f 444 445 441
f 449 450 451
f 449 451 452
f 453 454 455
f 453 455 456
f 449 453 454
f 449 454 450
f 450 454 455
f 450 455 451
f 451 455 456
f 451 456 452
f 452 456 453
f 452 453 449
f 457 458 459
f 457 459 460
f 461 462 463
f 461 463 464
f 457 461 462
f 457 462 458
f 458 462 463
f 458 463 459
f 459 463 464
f 459 464 460
f 460 464 461
f 460 461 457
f 465 466 467
f 465 467 468
f 469 470 471
f 469 471 472
f 465 469 470
f 465 470 466
f 466 470 471
f 466 471 467
f 467 471 472
f 467 472 468
f 468 472 469
f 468 469 465
f 473 474 475
f 473 475 476
f 477 478 479
f 477 479 480
f 473 477 478
f 473 478 474
f 474 478 479
f 474 479 475
f 475 479 480
f 475 480 476
f 476 480 477
f 476 477 473
f 481 482 483
f 481 483 484
f 485 486 487
f 485 487 488
f 481 485 486
f 481 486 482
f 482 486 487
f 482 487 483
f 483 487 488
f 483 488 484
f 484 488 485
f 484 485 481
f 489 490 497
f 490 498 497
f 490 491 498
f 491 499 498
f 491 492 499
f 492 500 499
f 492 493 500
f 493 501 500
f 493 494 501
f 494 502 501
f 494 495 502
f 495 503 502
f 495 496 503
f 496 504 503
f 496 489 504
f 489 497 504
f 505 506 513
f 506 514 513
f 506 507 514
f 507 515 514
f 507 508 515
f 508 516 515
f 508 509 516
f 509 517 516
f 509 510 517
f 510 518 517
f 510 511 518
f 511 519 518
f 511 512 519
f 512 520 519
f 512 505 520
f 505 513 520
f 521 522 529
f 522 530 529
f 522 523 530
f 523 531 530
f 523 524 531
f 524 532 531
f 524 525 532
f 525 533 532
f 525 526 533
f 526 534 533
f 526 527 534
f 527 535 534
f 527 528 535
f 528 536 535
f 528 521 536
f 521 529 536
f 537 538 545
f 538 546 545
f 538 539 546
f 539 547 546
f 539 540 547
f 540 548 547
f 540 541 548
f 541 549 548
f 541 542 549
f 542 550 549
f 542 543 550
f 543 551 550
f 543 544 551
f 544 552 551
f 544 537 552
f 537 545 552
f 553 554 561
f 554 562 561
f 554 555 562
f 555 563 562
f 555 556 563
f 556 564 563
f 556 557 564
f 557 565 564
f 557 558 565
f 558 566 565
f 558 559 566
f 559 567 566
f 559 560 567
f 560 568 567
f 560 553 568
f 553 561 568
f 569 570 577
f 570 578 577
f 570 571 578
f 571 579 578
f 571 572 579
f 572 580 579
f 572 573 580
f 573 581 580
f 573 574 581
f 574 582 581
f 574 575 582
f 575 583 582
f 575 576 583
f 576 584 583
f 576 569 584
f 569 577 584
f 585 586 593
f 586 594 593
f 586 587 594
f 587 595 594
f 587 588 595
f 588 596 595
f 588 589 596
f 589 597 596
f 589 590 597
f 590 598 597
f 590 591 598
f 591 599 598
f 591 592 599
f 592 600 599
f 592 585 600
f 585 593 600
f 601 602 609
f 602 610 609
f 602 603 610
f 603 611 610
f 603 604 611
f 604 612 611
f 604 605 612
f 605 613 612
f 605 606 613
f 606 614 613
f 606 607 614
f 607 615 614
f 607 608 615
f 608 616 615
f 608 601 616
f 601 609 616
f 617 618 625
f 618 626 625
f 618 619 626
f 619 627 626
f 619 620 627
f 620 628 627
f 620 621 628
f 621 629 628
f 621 622 629
f 622 630 629
f 622 623 630
f 623 631 630
f 623 624 631
f 624 632 631
f 624 617 632
f 617 625 632
f 633 634 641
f 634 642 641
f 634 635 642
f 635 643 642
f 635 636 643
f 636 644 643
f 636 637 644
f 637 645 644
f 637 638 645
f 638 646 645
f 638 639 646
f 639 647 646
f 639 640 647
f 640 648 647
f 640 633 648
f 633 641 648
f 649 650 657
f 650 658 657
f 650 651 658
f 651 659 658
f 651 652 659
f 652 660 659
f 652 653 660
f 653 661 660
f 653 654 661
f 654 662 661
f 654 655 662
f 655 663 662
f 655 656 663
f 656 664 663
f 656 649 664
f 649 657 664
f 665 666 673
f 666 674 673
f 666 667 674
f 667 675 674
f 667 668 675
f 668 676 675
f 668 669 676
f 669 677 676
f 669 670 677
f 670 678 677
f 670 671 678
f 671 679 678
f 671 672 679
f 672 680 679
f 672 665 680
f 665 673 680
f 681 682 689
f 682 690 689
f 682 683 690
f 683 691 690
f 683 684 691
f 684 692 691
f 684 685 692
f 685 693 692
f 685 686 693
f 686 694 693
f 686 687 694
f 687 695 694
f 687 688 695
f 688 696 695
f 688 681 696
f 681 689 696
f 697 698 705
f 698 706 705
f 698 699 706
f 699 707 706
f 699 700 707
f 700 708 707
f 700 701 708
f 701 709 708
f 701 702 709
f 702 710 709
f 702 703 710
f 703 711 710
f 703 704 711
f 704 712 711
f 704 697 712
f 697 705 712
f 713 714 721
f 714 722 721
f 714 715 722
f 715 723 722
f 715 716 723
f 716 724 723
f 716 717 724
f 717 725 724
f 717 718 725
f 718 726 725
f 718 719 726
f 719 727 726
f 719 720 727
f 720 728 727
f 720 713 728
f 713 721 728
f 729 730 737
f 730 738 737
f 730 731 738
f 731 739 738
f 731 732 739
f 732 740 739
f 732 733 740
f 733 741 740
f 733 734 741
f 734 742 741
f 734 735 742
f 735 743 742
f 735 736 743
f 736 744 743
f 736 729 744
f 729 737 744
f 745 746 753
f 746 754 753
f 746 747 754
f 747 755 754
f 747 748 755
f 748 756 755
f 748 749 756
f 749 757 756
f 749 750 757
f 750 758 757
f 750 751 758
f 751 759 758
f 751 752 759
f 752 760 759
f 752 745 760
f 745 753 760
f 761 762 769
f 762 770 769
f 762 763 770
f 763 771 770
f 763 764 771
f 764 772 771
f 764 765 772
f 765 773 772
f 765 766 773
f 766 774 773
f 766 767 774
f 767 775 774
f 767 768 775
f 768 776 775
f 768 761 776
f 761 769 776
f 777 778 785
f 778 786 785
f 778 779 786
f 779 787 786
f 779 780 787
f 780 788 787
f 780 781 788
f 781 789 788
f 781 782 789
f 782 790 789
f 782 783 790
f 783 791 790
f 783 784 791
f 784 792 791
f 784 777 792
f 777 785 792
f 793 794 801
f 794 802 801
f 794 795 802
f 795 803 802
f 795 796 803
f 796 804 803
f 796 797 804
f 797 805 804
f 797 798 805
f 798 806 805
f 798 799 806
f 799 807 806
f 799 800 807
f 800 808 807
f 800 793 808
f 793 801 808
f 809 810 811
f 809 811 812
f 813 814 815
f 813 815 816
f 809 813 814
f 809 814 810
f 810 814 815
f 810 815 811
f 811 815 816
f 811 816 812
f 812 816 813
f 812 813 809
f 817 818 819
f 817 819 820
f 821 822 823
f 821 823 824
f 817 821 822
f 817 822 818
f 818 822 823
f 818 823 819
f 819 823 824
f 819 824 820
f 820 824 821
f 820 821 817
f 825 826 827
f 825 827 828
f 829 830 831
f 829 831 832
f 825 829 830
f 825 830 826
f 826 830 831
f 826 831 827
f 827 831 832
f 827 832 828
f 828 832 829
f 828 829 825
f 833 834 835
f 833 835 836
f 837 838 839
f 837 839 840
f 833 837 838
f 833 838 834
f 834 838 839
f 834 839 835
f 835 839 840
f 835 840 836
f 836 840 837
f 836 837 833
f 841 842 843
f 841 843 844
f 845 846 847
f 845 847 848
f 841 845 846
f 841 846 842
f 842 846 847
f 842 847 843
f 843 847 848
f 843 848 844
f 844 848 845
f 844 845 841
f 849 850 851
f 849 851 852
f 853 854 855
f 853 855 856
f 849 853 854
f 849 854 850
f 850 854 855
f 850 855 851
f 851 855 856
f 851 856 852
f 852 856 853
f 852 853 849
f 857 858 859
f 857 859 860
f 861 862 863
f 861 863 864
f 857 861 862
f 857 862 858
f 858 862 863
f 858 863 859
f 859 863 864
f 859 864 860
f 860 864 861
f 860 861 857
f 865 866 867
f 865 867 868
f 869 870 871
f 869 871 872
f 865 869 870
f 865 870 866
f 866 870 871
f 866 871 867
f 867 871 872
f 867 872 868
f 868 872 869
f 868 869 865
f 873 874 875
f 873 875 876
f 877 878 879
f 877 879 880
f 873 877 878
f 873 878 874
f 874 878 879
f 874 879 875
f 875 879 880
f 875 880 876
f 876 880 877
f 876 877 873
f 881 882 883
f 881 883 884
f 885 886 887
f 885 887 888
f 881 885 886
f 881 886 882
f 882 886 887
f 882 887 883
f 883 887 888
f 883 888 884
f 884 888 885
f 884 885 881
f 889 890 891
f 889 891 892
f 893 894 895
f 893 895 896
f 889 893 894
f 889 894 890
f 890 894 895
f 890 895 891
f 891 895 896
f 891 896 892
f 892 896 893
f 892 893 889
f 897 898 899
f 897 899 900
f 901 902 903
f 901 903 904
f 897 901 902
f 897 902 898
f 898 902 903
f 898 903 899
f 899 903 904
f 899 904 900
f 900 904 901
f 900 901 897
f 905 906 907
f 905 907 908
f 909 910 911
f 909 911 912
f 905 909 910
f 905 910 906
f 906 910 911
f 906 911 907
f 907 911 912
f 907 912 908
f 908 912 909
f 908 909 905
f 913 914 915
f 913 915 916
f 917 918 919
f 917 919 920
f 913 917 918
f 913 918 914
f 914 918 919
f 914 919 915
f 915 919 920
f 915 920 916
f 916 920 917
f 916 917 913
f 921 922 923
f 921 923 924
f 925 926 927
f 925 927 928
f 921 925 926
f 921 926 922
f 922 926 927
f 922 927 923
f 923 927 928
f 923 928 924
f 924 928 925
f 924 925 921
f 929 930 931
f 929 931 932
f 933 934 935
f 933 935 936
f 929 933 934
f 929 934 930
f 930 934 935
f 930 935 931
f 931 935 936
f 931 936 932
f 932 936 933
f 932 933 929
f 937 938 939
f 937 939 940
f 941 942 943
f 941 943 944
f 937 941 942
f 937 942 938
f 938 942 943
f 938 943 939
f 939 943 944
f 939 944 940
f 940 944 941
f 940 941 937
f 945 946 947
f 945 947 948
f 949 950 951
f 949 951 952
f 945 949 950
f 945 950 946
f 946 950 951
f 946 951 947
f 947 951 952
f 947 952 948
f 948 952 949
f 948 949 945
f 953 954 955
f 953 955 956
f 957 958 959
f 957 959 960
f 953 957 958
f 953 958 954
f 954 958 959
f 954 959 955
f 955 959 960
f 955 960 956
f 956 960 957
f 956 957 953
f 961 962 963
f 961 963 964
f 965 966 967
f 965 967 968
f 961 965 966
f 961 966 962
f 962 966 967
f 962 967 963
f 963 967 968
f 963 968 964
f 964 968 965
f 964 965 961
f 969 970 971
f 969 971 972
f 973 974 975
f 973 975 976
f 969 973 974
f 969 974 970
f 970 974 975
f 970 975 971
f 971 975 976
f 971 976 972
f 972 976 973
f 972 973 969
