# SignFlow 3D Hand Mesh - Frame 136
v 0.000000 -0.001483 0.019945
v -0.012144 -0.008275 0.013566
v -0.017175 -0.010220 -0.000760
v -0.012144 -0.006178 -0.014640
v -0.000000 0.001483 -0.019945
v 0.012144 0.008275 -0.013566
v 0.017175 0.010220 0.000760
v 0.012144 0.006178 0.014640
v 0.013329 -0.023759 0.018289
v 0.001184 -0.030551 0.011910
v -0.003846 -0.032496 -0.002416
v 0.001184 -0.028454 -0.016296
v 0.013329 -0.020793 -0.021601
v 0.025473 -0.014001 -0.015222
v 0.030504 -0.012056 -0.000896
v 0.025473 -0.016098 0.012985
v 0.013329 -0.022494 0.018343
v 0.003666 -0.032756 0.012373
v -0.000336 -0.036879 -0.001816
v 0.003666 -0.032447 -0.015910
v 0.013329 -0.022057 -0.021655
v 0.022991 -0.011796 -0.015684
v 0.026994 -0.007673 -0.001496
v 0.022991 -0.012105 0.012598
v 0.028237 -0.036444 0.018190
v 0.018574 -0.046706 0.012220
v 0.014572 -0.050828 -0.001968
v 0.018574 -0.046396 -0.016063
v 0.028237 -0.036007 -0.021807
v 0.037900 -0.025745 -0.015837
v 0.041902 -0.021623 -0.001649
v 0.037900 -0.026054 0.012446
v 0.028237 -0.038990 0.018000
v 0.017457 -0.047246 0.010933
v 0.012991 -0.049046 -0.003598
v 0.017457 -0.043336 -0.017080
v 0.028237 -0.033461 -0.021616
v 0.039017 -0.025205 -0.014550
v 0.043483 -0.023405 -0.000019
v 0.039017 -0.029115 0.013463
v 0.036211 -0.048291 0.016701
v 0.025431 -0.056547 0.009635
v 0.020966 -0.058348 -0.004896
v 0.025431 -0.052638 -0.018378
v 0.036211 -0.042762 -0.022915
v 0.046992 -0.034507 -0.015848
v 0.051457 -0.032706 -0.001317
v 0.046992 -0.038416 0.012165
v 0.036211 -0.050857 0.016170
v 0.022503 -0.052645 0.009598
v 0.016825 -0.050264 -0.004416
v 0.022503 -0.045107 -0.017663
v 0.036211 -0.040197 -0.022383
v 0.049920 -0.038409 -0.015811
v 0.055598 -0.040790 -0.001797
v 0.049920 -0.045947 0.011450
v 0.041795 -0.072087 0.010300
v 0.028086 -0.073875 0.003728
v 0.022408 -0.071493 -0.010287
v 0.028086 -0.066337 -0.023534
v 0.041795 -0.061427 -0.028254
v 0.055503 -0.059638 -0.021681
v 0.061182 -0.062020 -0.007667
v 0.055503 -0.067177 0.005580
v 0.000000 -0.013476 0.014778
v -0.009792 -0.017069 0.003574
v -0.013848 -0.010663 -0.009723
v -0.009792 0.001989 -0.017325
v -0.000000 0.013476 -0.014778
v 0.009792 0.017069 -0.003574
v 0.013848 0.010663 0.009723
v 0.009792 -0.001989 0.017325
v 0.049690 -0.048710 -0.017351
v 0.039899 -0.052303 -0.028555
v 0.035843 -0.045897 -0.041852
v 0.039899 -0.033245 -0.049454
v 0.049690 -0.021758 -0.046907
v 0.059482 -0.018165 -0.035704
v 0.063538 -0.024571 -0.022406
v 0.059482 -0.037223 -0.014804
v 0.052929 -0.035234 -0.012393
v 0.050871 -0.049331 -0.017992
v 0.048121 -0.055171 -0.031872
v 0.046291 -0.049331 -0.045903
v 0.046452 -0.035234 -0.051865
v 0.048510 -0.021137 -0.046267
v 0.051260 -0.015297 -0.032387
v 0.053090 -0.021137 -0.018356
v 0.065550 -0.036254 -0.014464
v 0.063492 -0.050352 -0.020063
v 0.060742 -0.056191 -0.033943
v 0.058912 -0.050352 -0.047974
v 0.059073 -0.036254 -0.053936
v 0.061131 -0.022157 -0.048338
v 0.063881 -0.016318 -0.034458
v 0.065711 -0.022157 -0.020427
v 0.062311 -0.019746 -0.022909
v 0.054098 -0.031080 -0.016714
v 0.050695 -0.045445 -0.020762
v 0.054098 -0.054426 -0.032681
v 0.062311 -0.052762 -0.045491
v 0.070525 -0.041428 -0.051686
v 0.073927 -0.027063 -0.047639
v 0.070525 -0.018082 -0.035719
v 0.079843 -0.026807 -0.012585
v 0.071629 -0.038142 -0.006390
v 0.068227 -0.052507 -0.010437
v 0.071629 -0.061488 -0.022357
v 0.079843 -0.059824 -0.035166
v 0.088057 -0.048489 -0.041362
v 0.091459 -0.034124 -0.037314
v 0.088057 -0.025143 -0.025394
v 0.079843 -0.025276 -0.015240
v 0.071421 -0.035465 -0.007522
v 0.067932 -0.050253 -0.009385
v 0.071421 -0.060977 -0.019735
v 0.079843 -0.061355 -0.032512
v 0.088266 -0.051166 -0.040229
v 0.091755 -0.036378 -0.038367
v 0.088266 -0.025654 -0.028016
v 0.097920 -0.031063 -0.003151
v 0.089498 -0.041252 0.004566
v 0.086009 -0.056040 0.002704
v 0.089498 -0.066764 -0.007647
v 0.097920 -0.067142 -0.020423
v 0.106343 -0.056953 -0.028140
v 0.109832 -0.042165 -0.026278
v 0.106343 -0.031441 -0.015927
v 0.000000 -0.015632 0.012475
v -0.009205 -0.017750 0.000430
v -0.013018 -0.009471 -0.011868
v -0.009205 0.004357 -0.017213
v -0.000000 0.015632 -0.012475
v 0.009205 0.017750 -0.000430
v 0.013018 0.009471 0.011868
v 0.009205 -0.004357 0.017213
v 0.050321 -0.042545 -0.021249
v 0.041116 -0.044663 -0.033294
v 0.037303 -0.036383 -0.045591
v 0.041116 -0.022555 -0.050936
v 0.050321 -0.011280 -0.046199
v 0.059526 -0.009162 -0.034153
v 0.063339 -0.017442 -0.021856
v 0.059526 -0.031269 -0.016511
v 0.054182 -0.026912 -0.014100
v 0.049528 -0.040591 -0.019154
v 0.045339 -0.046257 -0.032743
v 0.044069 -0.040591 -0.046907
v 0.046461 -0.026912 -0.053347
v 0.051114 -0.013233 -0.048293
v 0.055303 -0.007567 -0.034704
v 0.056574 -0.013233 -0.020540
v 0.073379 -0.032047 -0.017877
v 0.068726 -0.045726 -0.022931
v 0.064537 -0.051392 -0.036520
v 0.063266 -0.045726 -0.050683
v 0.065658 -0.032047 -0.057124
v 0.070312 -0.018369 -0.052070
v 0.074501 -0.012703 -0.038480
v 0.075771 -0.018369 -0.024317
v 0.069519 -0.017865 -0.023399
v 0.062467 -0.030662 -0.018836
v 0.059546 -0.044271 -0.025207
v 0.062467 -0.050719 -0.038779
v 0.069519 -0.046230 -0.051602
v 0.076571 -0.033433 -0.056165
v 0.079492 -0.019824 -0.049794
v 0.076571 -0.013376 -0.036222
v 0.091969 -0.026971 -0.014241
v 0.084917 -0.039768 -0.009678
v 0.081996 -0.053377 -0.016049
v 0.084917 -0.059825 -0.029621
v 0.091969 -0.055336 -0.042444
v 0.099021 -0.042539 -0.047006
v 0.101942 -0.028930 -0.040636
v 0.099021 -0.022481 -0.027064
v 0.091969 -0.025003 -0.016545
v 0.083711 -0.036505 -0.010730
v 0.080291 -0.050730 -0.015231
v 0.083711 -0.059345 -0.027413
v 0.091969 -0.057304 -0.040139
v 0.100227 -0.045801 -0.045955
v 0.103647 -0.031576 -0.041453
v 0.100227 -0.022961 -0.029271
v 0.115243 -0.034877 -0.003027
v 0.106986 -0.046379 0.002789
v 0.103565 -0.060604 -0.001713
v 0.106986 -0.069219 -0.013895
v 0.115243 -0.067178 -0.026621
v 0.123501 -0.055676 -0.032437
v 0.126922 -0.041451 -0.027935
v 0.123501 -0.032836 -0.015753
v 0.000000 -0.017703 0.009306
v -0.008504 -0.017776 -0.003421
v -0.012027 -0.007436 -0.014145
v -0.008504 0.007260 -0.016582
v -0.000000 0.017703 -0.009306
v 0.008504 0.017776 0.003421
v 0.012027 0.007436 0.014145
v 0.008504 -0.007260 0.016582
v 0.053535 -0.036451 -0.026357
v 0.045031 -0.036523 -0.039084
v 0.041508 -0.026183 -0.049808
v 0.045031 -0.011488 -0.052245
v 0.053535 -0.001045 -0.044969
v 0.062039 -0.000972 -0.032242
v 0.065561 -0.011312 -0.021519
v 0.062039 -0.026008 -0.019081
v 0.055294 -0.018748 -0.015741
v 0.051077 -0.032393 -0.021249
v 0.048299 -0.038045 -0.035201
v 0.048588 -0.032393 -0.049423
v 0.051775 -0.018748 -0.055586
v 0.055993 -0.005103 -0.050077
v 0.058771 0.000549 -0.036126
v 0.058481 -0.005103 -0.021903
v 0.068071 -0.022242 -0.016869
v 0.063854 -0.035887 -0.022377
v 0.061076 -0.041539 -0.036329
v 0.061365 -0.035887 -0.050552
v 0.064552 -0.022242 -0.056714
v 0.068770 -0.008597 -0.051206
v 0.071548 -0.002945 -0.037254
v 0.071258 -0.008597 -0.023031
v 0.061541 -0.022242 -0.017369
v 0.059012 -0.035794 -0.024022
v 0.060760 -0.041407 -0.038155
v 0.065760 -0.035794 -0.051490
v 0.071083 -0.022242 -0.056214
v 0.073611 -0.008690 -0.049561
v 0.071864 -0.003076 -0.035428
v 0.066864 -0.008690 -0.022094
v 0.086915 -0.030036 -0.011136
v 0.084387 -0.043588 -0.017789
v 0.086134 -0.049201 -0.031922
v 0.091134 -0.043588 -0.045257
v 0.096457 -0.030036 -0.049981
v 0.098985 -0.016483 -0.043328
v 0.097238 -0.010870 -0.029195
v 0.092238 -0.016483 -0.015860
v 0.091686 -0.013046 -0.020005
v 0.082524 -0.023707 -0.013945
v 0.078729 -0.038074 -0.017617
v 0.082524 -0.047733 -0.028870
v 0.091686 -0.047025 -0.041112
v 0.100848 -0.036364 -0.047172
v 0.104643 -0.021997 -0.043500
v 0.100848 -0.012338 -0.032247
v 0.111544 -0.021958 -0.005659
v 0.102381 -0.032618 0.000401
v 0.098586 -0.046986 -0.003271
v 0.102381 -0.056645 -0.014523
v 0.111544 -0.055936 -0.026765
v 0.120706 -0.045276 -0.032825
v 0.124501 -0.030908 -0.029154
v 0.120706 -0.021250 -0.017901
v 0.000000 -0.018699 0.007095
v -0.007612 -0.017450 -0.006127
v -0.010765 -0.005979 -0.015759
v -0.007612 0.008994 -0.016160
v -0.000000 0.018699 -0.007095
v 0.007612 0.017450 0.006127
v 0.010765 0.005979 0.015759
v 0.007612 -0.008994 0.016160
v 0.047431 -0.029445 -0.021228
v 0.039819 -0.028196 -0.034449
v 0.036666 -0.016725 -0.044082
v 0.039819 -0.001751 -0.044483
v 0.047431 0.007953 -0.035417
v 0.055043 0.006705 -0.022196
v 0.058196 -0.004767 -0.012563
v 0.055043 -0.019740 -0.012162
v 0.050583 -0.010746 -0.008573
v 0.053678 -0.024290 -0.014999
v 0.053113 -0.029900 -0.029230
v 0.049220 -0.024290 -0.042929
v 0.044279 -0.010746 -0.048073
v 0.041184 0.002798 -0.041647
v 0.041748 0.008408 -0.027416
v 0.045642 0.002798 -0.013716
v 0.064226 -0.006595 -0.010750
v 0.067321 -0.020139 -0.017176
v 0.066757 -0.025750 -0.031407
v 0.062863 -0.020139 -0.045107
v 0.057922 -0.006595 -0.050250
v 0.054827 0.006949 -0.043824
v 0.055391 0.012559 -0.029593
v 0.059285 0.006949 -0.015893
v 0.057791 -0.006595 -0.010771
v 0.058548 -0.020736 -0.016584
v 0.060785 -0.026593 -0.030548
v 0.063191 -0.020736 -0.044484
v 0.064357 -0.006595 -0.050229
v 0.063600 0.007545 -0.044416
v 0.061363 0.013403 -0.030452
v 0.058957 0.007545 -0.016516
v 0.078114 -0.006898 -0.007389
v 0.078871 -0.021038 -0.013202
v 0.081108 -0.026895 -0.027166
v 0.083515 -0.021038 -0.041102
v 0.084681 -0.006898 -0.046846
v 0.083924 0.007243 -0.041034
v 0.081687 0.013100 -0.027070
v 0.079281 0.007243 -0.013133
v 0.081398 0.010397 -0.017073
v 0.074769 -0.000942 -0.009212
v 0.072024 -0.015771 -0.011840
v 0.074769 -0.025401 -0.023418
v 0.081398 -0.024192 -0.037162
v 0.088026 -0.012853 -0.045023
v 0.090772 0.001975 -0.042395
v 0.088026 0.011606 -0.030818
v 0.095825 0.006553 -0.010454
v 0.089197 -0.004787 -0.002593
v 0.086451 -0.019615 -0.005221
v 0.089197 -0.029245 -0.016798
v 0.095825 -0.028037 -0.030543
v 0.102454 -0.016697 -0.038403
v 0.105199 -0.001869 -0.035776
v 0.102454 0.007761 -0.024198
v -0.015000 -0.015000 -0.015000
v 0.015000 -0.015000 -0.015000
v 0.015000 0.015000 -0.015000
v -0.015000 0.015000 -0.015000
v -0.015000 -0.015000 0.015000
v 0.015000 -0.015000 0.015000
v 0.015000 0.015000 0.015000
v -0.015000 0.015000 0.015000
v -0.001671 -0.037276 -0.016656
v 0.028329 -0.037276 -0.016656
v 0.028329 -0.007276 -0.016656
v -0.001671 -0.007276 -0.016656
v -0.001671 -0.037276 0.013344
v 0.028329 -0.037276 0.013344
v 0.028329 -0.007276 0.013344
v -0.001671 -0.007276 0.013344
v 0.013237 -0.051225 -0.016808
v 0.043237 -0.051225 -0.016808
v 0.043237 -0.021225 -0.016808
v 0.013237 -0.021225 -0.016808
v 0.013237 -0.051225 0.013192
v 0.043237 -0.051225 0.013192
v 0.043237 -0.021225 0.013192
v 0.013237 -0.021225 0.013192
v 0.021211 -0.060527 -0.018107
v 0.051211 -0.060527 -0.018107
v 0.051211 -0.030527 -0.018107
v 0.021211 -0.030527 -0.018107
v 0.021211 -0.060527 0.011893
v 0.051211 -0.060527 0.011893
v 0.051211 -0.030527 0.011893
v 0.021211 -0.030527 0.011893
v 0.026795 -0.081757 -0.023977
v 0.056795 -0.081757 -0.023977
v 0.056795 -0.051757 -0.023977
v 0.026795 -0.051757 -0.023977
v 0.026795 -0.081757 0.006023
v 0.056795 -0.081757 0.006023
v 0.056795 -0.051757 0.006023
v 0.026795 -0.051757 0.006023
v 0.034690 -0.050234 -0.047129
v 0.064690 -0.050234 -0.047129
v 0.064690 -0.020234 -0.047129
v 0.034690 -0.020234 -0.047129
v 0.034690 -0.050234 -0.017129
v 0.064690 -0.050234 -0.017129
v 0.064690 -0.020234 -0.017129
v 0.034690 -0.020234 -0.017129
v 0.047311 -0.051254 -0.049200
v 0.077311 -0.051254 -0.049200
v 0.077311 -0.021254 -0.049200
v 0.047311 -0.021254 -0.049200
v 0.047311 -0.051254 -0.019200
v 0.077311 -0.051254 -0.019200
v 0.077311 -0.021254 -0.019200
v 0.047311 -0.021254 -0.019200
v 0.064843 -0.058316 -0.038876
v 0.094843 -0.058316 -0.038876
v 0.094843 -0.028316 -0.038876
v 0.064843 -0.028316 -0.038876
v 0.064843 -0.058316 -0.008876
v 0.094843 -0.058316 -0.008876
v 0.094843 -0.028316 -0.008876
v 0.064843 -0.028316 -0.008876
v 0.082920 -0.064103 -0.026787
v 0.112920 -0.064103 -0.026787
v 0.112920 -0.034103 -0.026787
v 0.082920 -0.034103 -0.026787
v 0.082920 -0.064103 0.003213
v 0.112920 -0.064103 0.003213
v 0.112920 -0.034103 0.003213
v 0.082920 -0.034103 0.003213
v 0.035321 -0.041912 -0.048724
v 0.065321 -0.041912 -0.048724
v 0.065321 -0.011912 -0.048724
v 0.035321 -0.011912 -0.048724
v 0.035321 -0.041912 -0.018724
v 0.065321 -0.041912 -0.018724
v 0.065321 -0.011912 -0.018724
v 0.035321 -0.011912 -0.018724
v 0.054519 -0.047047 -0.052500
v 0.084519 -0.047047 -0.052500
v 0.084519 -0.017047 -0.052500
v 0.054519 -0.017047 -0.052500
v 0.054519 -0.047047 -0.022500
v 0.084519 -0.047047 -0.022500
v 0.084519 -0.017047 -0.022500
v 0.054519 -0.017047 -0.022500
v 0.076969 -0.056153 -0.043342
v 0.106969 -0.056153 -0.043342
v 0.106969 -0.026153 -0.043342
v 0.076969 -0.026153 -0.043342
v 0.076969 -0.056153 -0.013342
v 0.106969 -0.056153 -0.013342
v 0.106969 -0.026153 -0.013342
v 0.076969 -0.026153 -0.013342
v 0.100243 -0.066027 -0.029824
v 0.130243 -0.066027 -0.029824
v 0.130243 -0.036027 -0.029824
v 0.100243 -0.036027 -0.029824
v 0.100243 -0.066027 0.000176
v 0.130243 -0.066027 0.000176
v 0.130243 -0.036027 0.000176
v 0.100243 -0.036027 0.000176
v 0.038535 -0.033748 -0.050663
v 0.068535 -0.033748 -0.050663
v 0.068535 -0.003748 -0.050663
v 0.038535 -0.003748 -0.050663
v 0.038535 -0.033748 -0.020663
v 0.068535 -0.033748 -0.020663
v 0.068535 -0.003748 -0.020663
v 0.038535 -0.003748 -0.020663
v 0.051312 -0.037242 -0.051792
v 0.081312 -0.037242 -0.051792
v 0.081312 -0.007242 -0.051792
v 0.051312 -0.007242 -0.051792
v 0.051312 -0.037242 -0.021792
v 0.081312 -0.037242 -0.021792
v 0.081312 -0.007242 -0.021792
v 0.051312 -0.007242 -0.021792
v 0.076686 -0.045036 -0.045559
v 0.106686 -0.045036 -0.045559
v 0.106686 -0.015036 -0.045559
v 0.076686 -0.015036 -0.045559
v 0.076686 -0.045036 -0.015559
v 0.106686 -0.045036 -0.015559
v 0.106686 -0.015036 -0.015559
v 0.076686 -0.015036 -0.015559
v 0.096544 -0.053947 -0.031212
v 0.126544 -0.053947 -0.031212
v 0.126544 -0.023947 -0.031212
v 0.096544 -0.023947 -0.031212
v 0.096544 -0.053947 -0.001212
v 0.126544 -0.053947 -0.001212
v 0.126544 -0.023947 -0.001212
v 0.096544 -0.023947 -0.001212
v 0.032431 -0.025746 -0.043323
v 0.062431 -0.025746 -0.043323
v 0.062431 0.004254 -0.043323
v 0.032431 0.004254 -0.043323
v 0.032431 -0.025746 -0.013323
v 0.062431 -0.025746 -0.013323
v 0.062431 0.004254 -0.013323
v 0.032431 0.004254 -0.013323
v 0.046074 -0.021595 -0.045500
v 0.076074 -0.021595 -0.045500
v 0.076074 0.008405 -0.045500
v 0.046074 0.008405 -0.045500
v 0.046074 -0.021595 -0.015500
v 0.076074 -0.021595 -0.015500
v 0.076074 0.008405 -0.015500
v 0.046074 0.008405 -0.015500
v 0.066398 -0.021898 -0.042118
v 0.096398 -0.021898 -0.042118
v 0.096398 0.008102 -0.042118
v 0.066398 0.008102 -0.042118
v 0.066398 -0.021898 -0.012118
v 0.096398 -0.021898 -0.012118
v 0.096398 0.008102 -0.012118
v 0.066398 0.008102 -0.012118
v 0.080825 -0.025742 -0.035498
v 0.110825 -0.025742 -0.035498
v 0.110825 0.004258 -0.035498
v 0.080825 0.004258 -0.035498
v 0.080825 -0.025742 -0.005498
v 0.110825 -0.025742 -0.005498
v 0.110825 0.004258 -0.005498
v 0.080825 0.004258 -0.005498
f 1 2 9
f 2 10 9
f 2 3 10
f 3 11 10
f 3 4 11
f 4 12 11
f 4 5 12
f 5 13 12
f 5 6 13
f 6 14 13
f 6 7 14
f 7 15 14
f 7 8 15
f 8 16 15
f 8 1 16
f 1 9 16
f 17 18 25
f 18 26 25
f 18 19 26
f 19 27 26
f 19 20 27
f 20 28 27
f 20 21 28
f 21 29 28
f 21 22 29
f 22 30 29
f 22 23 30
f 23 31 30
f 23 24 31
f 24 32 31
f 24 17 32
f 17 25 32
f 33 34 41
f 34 42 41
f 34 35 42
f 35 43 42
f 35 36 43
f 36 44 43
f 36 37 44
f 37 45 44
f 37 38 45
f 38 46 45
f 38 39 46
f 39 47 46
f 39 40 47
f 40 48 47
f 40 33 48
f 33 41 48
f 49 50 57
f 50 58 57
f 50 51 58
f 51 59 58
f 51 52 59
f 52 60 59
f 52 53 60
f 53 61 60
f 53 54 61
f 54 62 61
f 54 55 62
f 55 63 62
f 55 56 63
f 56 64 63
f 56 49 64
f 49 57 64
f 65 66 73
f 66 74 73
f 66 67 74
f 67 75 74
f 67 68 75
f 68 76 75
f 68 69 76
f 69 77 76
f 69 70 77
f 70 78 77
f 70 71 78
f 71 79 78
f 71 72 79
f 72 80 79
f 72 65 80
f 65 73 80
f 81 82 89
f 82 90 89
f 82 83 90
f 83 91 90
f 83 84 91
f 84 92 91
f 84 85 92
f 85 93 92
f 85 86 93
f 86 94 93
f 86 87 94
f 87 95 94
f 87 88 95
f 88 96 95
f 88 81 96
f 81 89 96
f 97 98 105
f 98 106 105
f 98 99 106
f 99 107 106
f 99 100 107
f 100 108 107
f 100 101 108
f 101 109 108
f 101 102 109
f 102 110 109
f 102 103 110
f 103 111 110
f 103 104 111
f 104 112 111
f 104 97 112
f 97 105 112
f 113 114 121
f 114 122 121
f 114 115 122
f 115 123 122
f 115 116 123
f 116 124 123
f 116 117 124
f 117 125 124
f 117 118 125
f 118 126 125
f 118 119 126
f 119 127 126
f 119 120 127
f 120 128 127
f 120 113 128
f 113 121 128
f 129 130 137
f 130 138 137
f 130 131 138
f 131 139 138
f 131 132 139
f 132 140 139
f 132 133 140
f 133 141 140
f 133 134 141
f 134 142 141
f 134 135 142
f 135 143 142
f 135 136 143
f 136 144 143
f 136 129 144
f 129 137 144
f 145 146 153
f 146 154 153
f 146 147 154
f 147 155 154
f 147 148 155
f 148 156 155
f 148 149 156
f 149 157 156
f 149 150 157
f 150 158 157
f 150 151 158
f 151 159 158
f 151 152 159
f 152 160 159
f 152 145 160
f 145 153 160
f 161 162 169
f 162 170 169
f 162 163 170
f 163 171 170
f 163 164 171
f 164 172 171
f 164 165 172
f 165 173 172
f 165 166 173
f 166 174 173
f 166 167 174
f 167 175 174
f 167 168 175
f 168 176 175
f 168 161 176
f 161 169 176
f 177 178 185
f 178 186 185
f 178 179 186
f 179 187 186
f 179 180 187
f 180 188 187
f 180 181 188
f 181 189 188
f 181 182 189
f 182 190 189
f 182 183 190
f 183 191 190
f 183 184 191
f 184 192 191
f 184 177 192
f 177 185 192
f 193 194 201
f 194 202 201
f 194 195 202
f 195 203 202
f 195 196 203
f 196 204 203
f 196 197 204
f 197 205 204
f 197 198 205
f 198 206 205
f 198 199 206
f 199 207 206
f 199 200 207
f 200 208 207
f 200 193 208
f 193 201 208
f 209 210 217
f 210 218 217
f 210 211 218
f 211 219 218
f 211 212 219
f 212 220 219
f 212 213 220
f 213 221 220
f 213 214 221
f 214 222 221
f 214 215 222
f 215 223 222
f 215 216 223
f 216 224 223
f 216 209 224
f 209 217 224
f 225 226 233
f 226 234 233
f 226 227 234
f 227 235 234
f 227 228 235
f 228 236 235
f 228 229 236
f 229 237 236
f 229 230 237
f 230 238 237
f 230 231 238
f 231 239 238
f 231 232 239
f 232 240 239
f 232 225 240
f 225 233 240
f 241 242 249
f 242 250 249
f 242 243 250
f 243 251 250
f 243 244 251
f 244 252 251
f 244 245 252
f 245 253 252
f 245 246 253
f 246 254 253
f 246 247 254
f 247 255 254
f 247 248 255
f 248 256 255
f 248 241 256
f 241 249 256
f 257 258 265
f 258 266 265
f 258 259 266
f 259 267 266
f 259 260 267
f 260 268 267
f 260 261 268
f 261 269 268
f 261 262 269
f 262 270 269
f 262 263 270
f 263 271 270
f 263 264 271
f 264 272 271
f 264 257 272
f 257 265 272
f 273 274 281
f 274 282 281
f 274 275 282
f 275 283 282
f 275 276 283
f 276 284 283
f 276 277 284
f 277 285 284
f 277 278 285
f 278 286 285
f 278 279 286
f 279 287 286
f 279 280 287
f 280 288 287
f 280 273 288
f 273 281 288
f 289 290 297
f 290 298 297
f 290 291 298
f 291 299 298
f 291 292 299
f 292 300 299
f 292 293 300
f 293 301 300
f 293 294 301
f 294 302 301
f 294 295 302
f 295 303 302
f 295 296 303
f 296 304 303
f 296 289 304
f 289 297 304
f 305 306 313
f 306 314 313
f 306 307 314
f 307 315 314
f 307 308 315
f 308 316 315
f 308 309 316
f 309 317 316
f 309 310 317
f 310 318 317
f 310 311 318
f 311 319 318
f 311 312 319
f 312 320 319
f 312 305 320
f 305 313 320
f 321 322 323
f 321 323 324
f 325 326 327
f 325 327 328
f 321 325 326
f 321 326 322
f 322 326 327
f 322 327 323
f 323 327 328
f 323 328 324
f 324 328 325
f 324 325 321
f 329 330 331
f 329 331 332
f 333 334 335
f 333 335 336
f 329 333 334
f 329 334 330
f 330 334 335
f 330 335 331
f 331 335 336
f 331 336 332
f 332 336 333
f 332 333 329
f 337 338 339
f 337 339 340
f 341 342 343
f 341 343 344
f 337 341 342
f 337 342 338
f 338 342 343
f 338 343 339
f 339 343 344
f 339 344 340
f 340 344 341
f 340 341 337
f 345 346 347
f 345 347 348
f 349 350 351
f 349 351 352
f 345 349 350
f 345 350 346
f 346 350 351
f 346 351 347
f 347 351 352
f 347 352 348
f 348 352 349
f 348 349 345
f 353 354 355
f 353 355 356
f 357 358 359
f 357 359 360
f 353 357 358
f 353 358 354
f 354 358 359
f 354 359 355
f 355 359 360
f 355 360 356
f 356 360 357
f 356 357 353
f 361 362 363
f 361 363 364
f 365 366 367
f 365 367 368
f 361 365 366
f 361 366 362
f 362 366 367
f 362 367 363
f 363 367 368
f 363 368 364
f 364 368 365
f 364 365 361
f 369 370 371
f 369 371 372
f 373 374 375
f 373 375 376
f 369 373 374
f 369 374 370
f 370 374 375
f 370 375 371
f 371 375 376
f 371 376 372
f 372 376 373
f 372 373 369
f 377 378 379
f 377 379 380
f 381 382 383
f 381 383 384
f 377 381 382
f 377 382 378
f 378 382 383
f 378 383 379
f 379 383 384
f 379 384 380
f 380 384 381
f 380 381 377
f 385 386 387
f 385 387 388
f 389 390 391
f 389 391 392
f 385 389 390
f 385 390 386
f 386 390 391
f 386 391 387
f 387 391 392
f 387 392 388
f 388 392 389
f 388 389 385
f 393 394 395
f 393 395 396
f 397 398 399
f 397 399 400
f 393 397 398
f 393 398 394
f 394 398 399
f 394 399 395
f 395 399 400
f 395 400 396
f 396 400 397
f 396 397 393
f 401 402 403
f 401 403 404
f 405 406 407
f 405 407 408
f 401 405 406
f 401 406 402
f 402 406 407
f 402 407 403
f 403 407 408
f 403 408 404
f 404 408 405
f 404 405 401
f 409 410 411
f 409 411 412
f 413 414 415
f 413 415 416
f 409 413 414
f 409 414 410
f 410 414 415
f 410 415 411
f 411 415 416
f 411 416 412
f 412 416 413
f 412 413 409
f 417 418 419
f 417 419 420
f 421 422 423
f 421 423 424
f 417 421 422
f 417 422 418
f 418 422 423
f 418 423 419
f 419 423 424
f 419 424 420
f 420 424 421
f 420 421 417
f 425 426 427
f 425 427 428
f 429 430 431
f 429 431 432
f 425 429 430
f 425 430 426
f 426 430 431
f 426 431 427
f 427 431 432
f 427 432 428
f 428 432 429
f 428 429 425
f 433 434 435
f 433 435 436
f 437 438 439
f 437 439 440
f 433 437 438
f 433 438 434
f 434 438 439
f 434 439 435
f 435 439 440
f 435 440 436
f 436 440 437
f 436 437 433
f 441 442 443
f 441 443 444
f 445 446 447
f 445 447 448
f 441 445 446
f 441 446 442
f 442 446 447
f 442 447 443
f 443 447 448
f 443 448 444
f 444 448 445
f 444 445 441
f 449 450 451
f 449 451 452
f 453 454 455
f 453 455 456
f 449 453 454
f 449 454 450
f 450 454 455
f 450 455 451
f 451 455 456
f 451 456 452
f 452 456 453
f 452 453 449
f 457 458 459
f 457 459 460
f 461 462 463
f 461 463 464
f 457 461 462
f 457 462 458
f 458 462 463
f 458 463 459
f 459 463 464
f 459 464 460
f 460 464 461
f 460 461 457
f 465 466 467
f 465 467 468
f 469 470 471
f 469 471 472
f 465 469 470
f 465 470 466
f 466 470 471
f 466 471 467
f 467 471 472
f 467 472 468
f 468 472 469
f 468 469 465
f 473 474 475
f 473 475 476
f 477 478 479
f 477 479 480
f 473 477 478
f 473 478 474
f 474 478 479
f 474 479 475
f 475 479 480
f 475 480 476
f 476 480 477
f 476 477 473
f 481 482 483
f 481 483 484
f 485 486 487
f 485 487 488
f 481 485 486
f 481 486 482
f 482 486 487
f 482 487 483
f 483 487 488
f 483 488 484
f 484 488 485
f 484 485 481
