# SignFlow 3D Hand Mesh - Frame 212
v 0.000000 0.000976 0.019976
v -0.006884 -0.011649 0.014728
v -0.009735 -0.017450 0.000853
v -0.006884 -0.013029 -0.013522
v -0.000000 -0.000976 -0.019976
v 0.006884 0.011649 -0.014728
v 0.009735 0.017450 -0.000853
v 0.006884 0.013029 0.013522
v 0.038969 -0.020713 0.021036
v 0.032085 -0.033337 0.015788
v 0.029233 -0.039139 0.001912
v 0.032085 -0.034718 -0.012463
v 0.038969 -0.022665 -0.018916
v 0.045852 -0.010040 -0.013668
v 0.048704 -0.004239 0.000207
v 0.045852 -0.008660 0.014582
v 0.038969 -0.026361 0.020506
v 0.028546 -0.034287 0.012577
v 0.024229 -0.034833 -0.002099
v 0.028546 -0.027679 -0.014924
v 0.038969 -0.017016 -0.018387
v 0.049391 -0.009090 -0.010458
v 0.053708 -0.008544 0.004218
v 0.049391 -0.015698 0.017044
v 0.061440 -0.050184 0.014782
v 0.051018 -0.058110 0.006853
v 0.046700 -0.058656 -0.007823
v 0.051018 -0.051502 -0.020648
v 0.061440 -0.040839 -0.024111
v 0.071862 -0.032913 -0.016182
v 0.076179 -0.032367 -0.001506
v 0.071862 -0.039521 0.011320
v 0.061440 -0.054216 0.013342
v 0.047555 -0.054085 0.006899
v 0.041804 -0.048932 -0.006318
v 0.047555 -0.041775 -0.018566
v 0.061440 -0.036807 -0.022671
v 0.075325 -0.036939 -0.016228
v 0.081076 -0.042092 -0.003011
v 0.075325 -0.049249 0.009237
v 0.067664 -0.083187 -0.000663
v 0.053780 -0.083055 -0.007106
v 0.048029 -0.077902 -0.020322
v 0.053780 -0.070745 -0.032570
v 0.067664 -0.065778 -0.036675
v 0.081549 -0.065909 -0.030232
v 0.087300 -0.071062 -0.017016
v 0.081549 -0.078219 -0.004768
v 0.067664 -0.082188 -0.000213
v 0.053820 -0.082595 -0.006731
v 0.048085 -0.078249 -0.020242
v 0.053820 -0.071696 -0.032831
v 0.067664 -0.066776 -0.037125
v 0.081509 -0.066370 -0.030607
v 0.087244 -0.070715 -0.017096
v 0.081509 -0.077268 -0.004507
v 0.073432 -0.107717 -0.010873
v 0.059588 -0.108123 -0.017390
v 0.053853 -0.103777 -0.030901
v 0.059588 -0.097225 -0.043491
v 0.073432 -0.092305 -0.047784
v 0.087277 -0.091898 -0.041267
v 0.093011 -0.096244 -0.027756
v 0.087277 -0.102796 -0.015166
v 0.000000 0.005861 0.019122
v -0.011917 -0.003137 0.015753
v -0.016853 -0.010297 0.003156
v -0.011917 -0.011425 -0.011290
v -0.000000 -0.005861 -0.019122
v 0.011917 0.003137 -0.015753
v 0.016853 0.010297 -0.003156
v 0.011917 0.011425 0.011290
v 0.056463 -0.078614 0.045013
v 0.044546 -0.087611 0.041644
v 0.039610 -0.094772 0.029047
v 0.044546 -0.095900 0.014602
v 0.056463 -0.090335 0.006769
v 0.068380 -0.081338 0.010138
v 0.073316 -0.074178 0.022735
v 0.068380 -0.073049 0.037181
v 0.056463 -0.086815 0.045754
v 0.043206 -0.091021 0.039360
v 0.037715 -0.091391 0.025076
v 0.043206 -0.087710 0.011270
v 0.056463 -0.082134 0.006029
v 0.069720 -0.077929 0.012423
v 0.075211 -0.077558 0.026706
v 0.069720 -0.081239 0.040513
v 0.067287 -0.115752 0.042344
v 0.054030 -0.119958 0.035950
v 0.048539 -0.120328 0.021666
v 0.054030 -0.116647 0.007860
v 0.067287 -0.111071 0.002619
v 0.080544 -0.106866 0.009013
v 0.086035 -0.106495 0.023296
v 0.080544 -0.110176 0.037103
v 0.067287 -0.118926 0.041706
v 0.053900 -0.121692 0.034819
v 0.048354 -0.119608 0.020704
v 0.053900 -0.113894 0.007631
v 0.067287 -0.107897 0.003256
v 0.080674 -0.105131 0.010144
v 0.086220 -0.107215 0.024259
v 0.080674 -0.112929 0.037332
v 0.074110 -0.138189 0.036181
v 0.060723 -0.140955 0.029294
v 0.055177 -0.138871 0.015179
v 0.060723 -0.133157 0.002106
v 0.074110 -0.127161 -0.002269
v 0.087497 -0.124394 0.004619
v 0.093043 -0.126478 0.018734
v 0.087497 -0.132192 0.031807
v 0.074110 -0.147012 0.030901
v 0.060212 -0.144637 0.024941
v 0.054455 -0.135254 0.014304
v 0.060212 -0.124361 0.005221
v 0.074110 -0.118337 0.003012
v 0.088008 -0.120713 0.008971
v 0.093765 -0.130095 0.019608
v 0.088008 -0.140989 0.028692
v 0.079550 -0.167163 0.010182
v 0.065652 -0.164788 0.004222
v 0.059896 -0.155405 -0.006415
v 0.065652 -0.144512 -0.015498
v 0.079550 -0.138489 -0.017707
v 0.093448 -0.140864 -0.011747
v 0.099205 -0.150246 -0.001110
v 0.093448 -0.161140 0.007973
v 0.000000 0.004012 0.019593
v -0.013276 -0.001937 0.014832
v -0.018775 -0.006752 0.001383
v -0.013276 -0.007611 -0.012877
v -0.000000 -0.004012 -0.019593
v 0.013276 0.001937 -0.014832
v 0.018775 0.006752 -0.001383
v 0.013276 0.007611 0.012877
v 0.036789 -0.094177 0.039700
v 0.023513 -0.100126 0.034939
v 0.018014 -0.104941 0.021489
v 0.023513 -0.105800 0.007229
v 0.036789 -0.102201 0.000513
v 0.050065 -0.096252 0.005274
v 0.055564 -0.091437 0.018724
v 0.050065 -0.090578 0.032984
v 0.036789 -0.101864 0.039766
v 0.024127 -0.106979 0.032850
v 0.018883 -0.106945 0.018470
v 0.024127 -0.101782 0.005048
v 0.036789 -0.094514 0.000447
v 0.049451 -0.089399 0.007362
v 0.054696 -0.089433 0.021743
v 0.049451 -0.094596 0.035165
v 0.052102 -0.132122 0.034110
v 0.039440 -0.137237 0.027194
v 0.034195 -0.137203 0.012814
v 0.039440 -0.132040 -0.000608
v 0.052102 -0.124772 -0.005209
v 0.064764 -0.119657 0.001706
v 0.070009 -0.119691 0.016087
v 0.064764 -0.124854 0.029509
v 0.052102 -0.141240 0.029824
v 0.038502 -0.140474 0.022840
v 0.032869 -0.132663 0.010942
v 0.038502 -0.122382 0.001099
v 0.052102 -0.115654 -0.000923
v 0.065702 -0.116420 0.006060
v 0.071335 -0.124231 0.017958
v 0.065702 -0.134512 0.027802
v 0.058830 -0.159376 0.014732
v 0.045230 -0.158610 0.007748
v 0.039596 -0.150799 -0.004150
v 0.045230 -0.140518 -0.013993
v 0.058830 -0.133790 -0.016015
v 0.072430 -0.134556 -0.009032
v 0.078063 -0.142367 0.002866
v 0.072430 -0.152648 0.012710
v 0.058830 -0.151307 0.018793
v 0.046209 -0.156124 0.011593
v 0.040982 -0.155352 -0.002773
v 0.046209 -0.149444 -0.015891
v 0.058830 -0.141859 -0.020076
v 0.071450 -0.137042 -0.012876
v 0.076678 -0.137814 0.001490
v 0.071450 -0.143722 0.014608
v 0.071174 -0.175030 0.013026
v 0.058554 -0.179847 0.005827
v 0.053326 -0.179076 -0.008539
v 0.058554 -0.173167 -0.021657
v 0.071174 -0.165583 -0.025842
v 0.083795 -0.160765 -0.018643
v 0.089023 -0.161537 -0.004276
v 0.083795 -0.167446 0.008841
v 0.000000 0.000426 0.019995
v -0.013794 -0.002818 0.014205
v -0.019507 -0.004412 0.000094
v -0.013794 -0.003421 -0.014072
v -0.000000 -0.000426 -0.019995
v 0.013794 0.002818 -0.014205
v 0.019507 0.004412 -0.000094
v 0.013794 0.003421 0.014072
v 0.022675 -0.099784 0.022132
v 0.008882 -0.103028 0.016342
v 0.003168 -0.104622 0.002231
v 0.008882 -0.103631 -0.011935
v 0.022675 -0.100636 -0.017859
v 0.036469 -0.097392 -0.012069
v 0.042182 -0.095798 0.002043
v 0.036469 -0.096789 0.016209
v 0.022675 -0.103844 0.021804
v 0.009830 -0.108596 0.014969
v 0.004509 -0.108436 0.000617
v 0.009830 -0.103457 -0.012845
v 0.022675 -0.096576 -0.017530
v 0.035521 -0.091824 -0.010695
v 0.040842 -0.091984 0.003657
v 0.035521 -0.096963 0.017118
v 0.034978 -0.130115 0.016950
v 0.022132 -0.134868 0.010115
v 0.016811 -0.134708 -0.004237
v 0.022132 -0.129729 -0.017699
v 0.034978 -0.122848 -0.022384
v 0.047823 -0.118095 -0.015549
v 0.053144 -0.118256 -0.001197
v 0.047823 -0.123234 0.012264
v 0.034978 -0.132686 0.016296
v 0.022206 -0.136642 0.008843
v 0.016915 -0.134646 -0.005381
v 0.022206 -0.127867 -0.018045
v 0.034978 -0.120277 -0.021730
v 0.047750 -0.116322 -0.014278
v 0.053040 -0.118318 -0.000053
v 0.047750 -0.125096 0.012611
v 0.045485 -0.153696 0.009440
v 0.032713 -0.157652 0.001987
v 0.027423 -0.155656 -0.012237
v 0.032713 -0.148877 -0.024902
v 0.045485 -0.141287 -0.028587
v 0.058257 -0.137332 -0.021134
v 0.063548 -0.139328 -0.006909
v 0.058257 -0.146106 0.005755
v 0.045485 -0.152102 0.009888
v 0.033277 -0.157697 0.002543
v 0.028220 -0.157315 -0.011900
v 0.033277 -0.151178 -0.024980
v 0.045485 -0.142882 -0.029035
v 0.057694 -0.137286 -0.021689
v 0.062750 -0.137669 -0.007246
v 0.057694 -0.143806 0.005833
v 0.058086 -0.173072 0.004921
v 0.045877 -0.178668 -0.002425
v 0.040820 -0.178285 -0.016868
v 0.045877 -0.172148 -0.029948
v 0.058086 -0.163852 -0.034002
v 0.070294 -0.158257 -0.026657
v 0.075351 -0.158639 -0.012214
v 0.070294 -0.164776 0.000866
v 0.000000 -0.003721 0.019651
v -0.014116 -0.003482 0.013734
v -0.019963 -0.001202 -0.000228
v -0.014116 0.001781 -0.014056
v -0.000000 0.003721 -0.019651
v 0.014116 0.003482 -0.013734
v 0.019963 0.001202 0.000228
v 0.014116 -0.001781 0.014056
v 0.005792 -0.096551 0.002072
v -0.008324 -0.096312 -0.003845
v -0.014171 -0.094032 -0.017807
v -0.008324 -0.091049 -0.031635
v 0.005792 -0.089109 -0.037230
v 0.019907 -0.089348 -0.031313
v 0.025754 -0.091628 -0.017351
v 0.019907 -0.094611 -0.003523
v 0.005792 -0.091313 0.002363
v -0.007607 -0.096267 -0.003135
v -0.013158 -0.099208 -0.017094
v -0.007607 -0.098413 -0.031337
v 0.005792 -0.094347 -0.037522
v 0.019191 -0.089393 -0.032024
v 0.024741 -0.086452 -0.018064
v 0.019191 -0.087247 -0.003821
v 0.012001 -0.109654 0.003759
v -0.001398 -0.114609 -0.001739
v -0.006948 -0.117550 -0.015698
v -0.001398 -0.116755 -0.029942
v 0.012001 -0.112689 -0.036126
v 0.025400 -0.107734 -0.030628
v 0.030951 -0.104793 -0.016669
v 0.025400 -0.105588 -0.002425
v 0.012001 -0.110709 0.003811
v -0.001131 -0.116091 -0.001924
v -0.006571 -0.118591 -0.016012
v -0.001131 -0.116745 -0.030201
v 0.012001 -0.111633 -0.036178
v 0.025134 -0.106252 -0.030443
v 0.030573 -0.103752 -0.016355
v 0.025134 -0.105598 -0.002166
v 0.021040 -0.133322 0.004334
v 0.007908 -0.138704 -0.001401
v 0.002468 -0.141204 -0.015490
v 0.007908 -0.139357 -0.029678
v 0.021040 -0.134246 -0.035656
v 0.034172 -0.128864 -0.029921
v 0.039612 -0.126364 -0.015832
v 0.034172 -0.128211 -0.001644
v 0.021040 -0.137379 0.004013
v 0.009072 -0.143738 -0.003104
v 0.004115 -0.144266 -0.017577
v 0.009072 -0.138654 -0.030927
v 0.021040 -0.130189 -0.035335
v 0.033008 -0.123830 -0.028218
v 0.037965 -0.123302 -0.013745
v 0.033008 -0.128914 -0.000395
v 0.036652 -0.161772 -0.000444
v 0.024684 -0.168131 -0.007561
v 0.019727 -0.168659 -0.022034
v 0.024684 -0.163046 -0.035385
v 0.036652 -0.154581 -0.039793
v 0.048619 -0.148222 -0.032676
v 0.053577 -0.147694 -0.018203
v 0.048619 -0.153307 -0.004852
v -0.015000 -0.015000 -0.015000
v 0.015000 -0.015000 -0.015000
v 0.015000 0.015000 -0.015000
v -0.015000 0.015000 -0.015000
v -0.015000 -0.015000 0.015000
v 0.015000 -0.015000 0.015000
v 0.015000 0.015000 0.015000
v -0.015000 0.015000 0.015000
v 0.023969 -0.036689 -0.013940
v 0.053969 -0.036689 -0.013940
v 0.053969 -0.006689 -0.013940
v 0.023969 -0.006689 -0.013940
v 0.023969 -0.036689 0.016060
v 0.053969 -0.036689 0.016060
v 0.053969 -0.006689 0.016060
v 0.023969 -0.006689 0.016060
v 0.046440 -0.060512 -0.019664
v 0.076440 -0.060512 -0.019664
v 0.076440 -0.030512 -0.019664
v 0.046440 -0.030512 -0.019664
v 0.046440 -0.060512 0.010336
v 0.076440 -0.060512 0.010336
v 0.076440 -0.030512 0.010336
v 0.046440 -0.030512 0.010336
v 0.052664 -0.089482 -0.033669
v 0.082664 -0.089482 -0.033669
v 0.082664 -0.059482 -0.033669
v 0.052664 -0.059482 -0.033669
v 0.052664 -0.089482 -0.003669
v 0.082664 -0.089482 -0.003669
v 0.082664 -0.059482 -0.003669
v 0.052664 -0.059482 -0.003669
v 0.058432 -0.115011 -0.044329
v 0.088432 -0.115011 -0.044329
v 0.088432 -0.085011 -0.044329
v 0.058432 -0.085011 -0.044329
v 0.058432 -0.115011 -0.014329
v 0.088432 -0.115011 -0.014329
v 0.088432 -0.085011 -0.014329
v 0.058432 -0.085011 -0.014329
v 0.041463 -0.099475 0.010891
v 0.071463 -0.099475 0.010891
v 0.071463 -0.069475 0.010891
v 0.041463 -0.069475 0.010891
v 0.041463 -0.099475 0.040891
v 0.071463 -0.099475 0.040891
v 0.071463 -0.069475 0.040891
v 0.041463 -0.069475 0.040891
v 0.052287 -0.128412 0.007481
v 0.082287 -0.128412 0.007481
v 0.082287 -0.098412 0.007481
v 0.052287 -0.098412 0.007481
v 0.052287 -0.128412 0.037481
v 0.082287 -0.128412 0.037481
v 0.082287 -0.098412 0.037481
v 0.052287 -0.098412 0.037481
v 0.059110 -0.147675 0.001956
v 0.089110 -0.147675 0.001956
v 0.089110 -0.117675 0.001956
v 0.059110 -0.117675 0.001956
v 0.059110 -0.147675 0.031956
v 0.089110 -0.147675 0.031956
v 0.089110 -0.117675 0.031956
v 0.059110 -0.117675 0.031956
v 0.064550 -0.167826 -0.018762
v 0.094550 -0.167826 -0.018762
v 0.094550 -0.137826 -0.018762
v 0.064550 -0.137826 -0.018762
v 0.064550 -0.167826 0.011238
v 0.094550 -0.167826 0.011238
v 0.094550 -0.137826 0.011238
v 0.064550 -0.137826 0.011238
v 0.021789 -0.113189 0.005106
v 0.051789 -0.113189 0.005106
v 0.051789 -0.083189 0.005106
v 0.021789 -0.083189 0.005106
v 0.021789 -0.113189 0.035106
v 0.051789 -0.113189 0.035106
v 0.051789 -0.083189 0.035106
v 0.021789 -0.083189 0.035106
v 0.037102 -0.143447 -0.000550
v 0.067102 -0.143447 -0.000550
v 0.067102 -0.113447 -0.000550
v 0.037102 -0.113447 -0.000550
v 0.037102 -0.143447 0.029450
v 0.067102 -0.143447 0.029450
v 0.067102 -0.113447 0.029450
v 0.037102 -0.113447 0.029450
v 0.043830 -0.161583 -0.015642
v 0.073830 -0.161583 -0.015642
v 0.073830 -0.131583 -0.015642
v 0.043830 -0.131583 -0.015642
v 0.043830 -0.161583 0.014358
v 0.073830 -0.161583 0.014358
v 0.073830 -0.131583 0.014358
v 0.043830 -0.131583 0.014358
v 0.056174 -0.185306 -0.021408
v 0.086174 -0.185306 -0.021408
v 0.086174 -0.155306 -0.021408
v 0.056174 -0.155306 -0.021408
v 0.056174 -0.185306 0.008592
v 0.086174 -0.185306 0.008592
v 0.086174 -0.155306 0.008592
v 0.056174 -0.155306 0.008592
v 0.007675 -0.115210 -0.012863
v 0.037675 -0.115210 -0.012863
v 0.037675 -0.085210 -0.012863
v 0.007675 -0.085210 -0.012863
v 0.007675 -0.115210 0.017137
v 0.037675 -0.115210 0.017137
v 0.037675 -0.085210 0.017137
v 0.007675 -0.085210 0.017137
v 0.019978 -0.141482 -0.017717
v 0.049978 -0.141482 -0.017717
v 0.049978 -0.111482 -0.017717
v 0.019978 -0.111482 -0.017717
v 0.019978 -0.141482 0.012283
v 0.049978 -0.141482 0.012283
v 0.049978 -0.111482 0.012283
v 0.019978 -0.111482 0.012283
v 0.030485 -0.162492 -0.024573
v 0.060485 -0.162492 -0.024573
v 0.060485 -0.132492 -0.024573
v 0.030485 -0.132492 -0.024573
v 0.030485 -0.162492 0.005427
v 0.060485 -0.162492 0.005427
v 0.060485 -0.132492 0.005427
v 0.030485 -0.132492 0.005427
v 0.043086 -0.183462 -0.029541
v 0.073086 -0.183462 -0.029541
v 0.073086 -0.153462 -0.029541
v 0.043086 -0.153462 -0.029541
v 0.043086 -0.183462 0.000459
v 0.073086 -0.183462 0.000459
v 0.073086 -0.153462 0.000459
v 0.043086 -0.153462 0.000459
v -0.009208 -0.107830 -0.032579
v 0.020792 -0.107830 -0.032579
v 0.020792 -0.077830 -0.032579
v -0.009208 -0.077830 -0.032579
v -0.009208 -0.107830 -0.002579
v 0.020792 -0.107830 -0.002579
v 0.020792 -0.077830 -0.002579
v -0.009208 -0.077830 -0.002579
v -0.002999 -0.126171 -0.031184
v 0.027001 -0.126171 -0.031184
v 0.027001 -0.096171 -0.031184
v -0.002999 -0.096171 -0.031184
v -0.002999 -0.126171 -0.001184
v 0.027001 -0.126171 -0.001184
v 0.027001 -0.096171 -0.001184
v -0.002999 -0.096171 -0.001184
v 0.006040 -0.148784 -0.030661
v 0.036040 -0.148784 -0.030661
v 0.036040 -0.118784 -0.030661
v 0.006040 -0.118784 -0.030661
v 0.006040 -0.148784 -0.000661
v 0.036040 -0.148784 -0.000661
v 0.036040 -0.118784 -0.000661
v 0.006040 -0.118784 -0.000661
v 0.021652 -0.173176 -0.035119
v 0.051652 -0.173176 -0.035119
v 0.051652 -0.143176 -0.035119
v 0.021652 -0.143176 -0.035119
v 0.021652 -0.173176 -0.005119
v 0.051652 -0.173176 -0.005119
v 0.051652 -0.143176 -0.005119
v 0.021652 -0.143176 -0.005119
f 1 2 9
f 2 10 9
f 2 3 10
f 3 11 10
f 3 4 11
f 4 12 11
f 4 5 12
f 5 13 12
f 5 6 13
f 6 14 13
f 6 7 14
f 7 15 14
f 7 8 15
f 8 16 15
f 8 1 16
f 1 9 16
f 17 18 25
f 18 26 25
f 18 19 26
f 19 27 26
f 19 20 27
f 20 28 27
f 20 21 28
f 21 29 28
f 21 22 29
f 22 30 29
f 22 23 30
f 23 31 30
f 23 24 31
f 24 32 31
f 24 17 32
f 17 25 32
f 33 34 41
f 34 42 41
f 34 35 42
f 35 43 42
f 35 36 43
f 36 44 43
f 36 37 44
f 37 45 44
f 37 38 45
f 38 46 45
f 38 39 46
f 39 47 46
f 39 40 47
f 40 48 47
f 40 33 48
f 33 41 48
f 49 50 57
f 50 58 57
f 50 51 58
f 51 59 58
f 51 52 59
f 52 60 59
f 52 53 60
f 53 61 60
f 53 54 61
f 54 62 61
f 54 55 62
f 55 63 62
f 55 56 63
f 56 64 63
f 56 49 64
f 49 57 64
f 65 66 73
f 66 74 73
f 66 67 74
f 67 75 74
f 67 68 75
f 68 76 75
f 68 69 76
f 69 77 76
f 69 70 77
f 70 78 77
f 70 71 78
f 71 79 78
f 71 72 79
f 72 80 79
f 72 65 80
f 65 73 80
f 81 82 89
f 82 90 89
f 82 83 90
f 83 91 90
f 83 84 91
f 84 92 91
f 84 85 92
f 85 93 92
f 85 86 93
f 86 94 93
f 86 87 94
f 87 95 94
f 87 88 95
f 88 96 95
f 88 81 96
f 81 89 96
f 97 98 105
f 98 106 105
f 98 99 106
f 99 107 106
f 99 100 107
f 100 108 107
f 100 101 108
f 101 109 108
f 101 102 109
f 102 110 109
f 102 103 110
f 103 111 110
f 103 104 111
f 104 112 111
f 104 97 112
f 97 105 112
f 113 114 121
f 114 122 121
f 114 115 122
f 115 123 122
f 115 116 123
f 116 124 123
f 116 117 124
f 117 125 124
f 117 118 125
f 118 126 125
f 118 119 126
f 119 127 126
f 119 120 127
f 120 128 127
f 120 113 128
f 113 121 128
f 129 130 137
f 130 138 137
f 130 131 138
f 131 139 138
f 131 132 139
f 132 140 139
f 132 133 140
f 133 141 140
f 133 134 141
f 134 142 141
f 134 135 142
f 135 143 142
f 135 136 143
f 136 144 143
f 136 129 144
f 129 137 144
f 145 146 153
f 146 154 153
f 146 147 154
f 147 155 154
f 147 148 155
f 148 156 155
f 148 149 156
f 149 157 156
f 149 150 157
f 150 158 157
f 150 151 158
f 151 159 158
f 151 152 159
f 152 160 159
f 152 145 160
f 145 153 160
f 161 162 169
f 162 170 169
f 162 163 170
f 163 171 170
f 163 164 171
f 164 172 171
f 164 165 172
f 165 173 172
f 165 166 173
f 166 174 173
f 166 167 174
f 167 175 174
f 167 168 175
f 168 176 175
f 168 161 176
f 161 169 176
f 177 178 185
f 178 186 185
f 178 179 186
f 179 187 186
f 179 180 187
f 180 188 187
f 180 181 188
f 181 189 188
f 181 182 189
f 182 190 189
f 182 183 190
f 183 191 190
f 183 184 191
f 184 192 191
f 184 177 192
f 177 185 192
f 193 194 201
f 194 202 201
f 194 195 202
f 195 203 202
f 195 196 203
f 196 204 203
f 196 197 204
f 197 205 204
f 197 198 205
f 198 206 205
f 198 199 206
f 199 207 206
f 199 200 207
f 200 208 207
f 200 193 208
f 193 201 208
f 209 210 217
f 210 218 217
f 210 211 218
f 211 219 218
f 211 212 219
f 212 220 219
f 212 213 220
f 213 221 220
f 213 214 221
f 214 222 221
f 214 215 222
f 215 223 222
f 215 216 223
f 216 224 223
f 216 209 224
f 209 217 224
f 225 226 233
f 226 234 233
f 226 227 234
f 227 235 234
f 227 228 235
f 228 236 235
f 228 229 236
f 229 237 236
f 229 230 237
f 230 238 237
f 230 231 238
f 231 239 238
f 231 232 239
f 232 240 239
f 232 225 240
f 225 233 240
f 241 242 249
f 242 250 249
f 242 243 250
f 243 251 250
f 243 244 251
f 244 252 251
f 244 245 252
f 245 253 252
f 245 246 253
f 246 254 253
f 246 247 254
f 247 255 254
f 247 248 255
f 248 256 255
f 248 241 256
f 241 249 256
f 257 258 265
f 258 266 265
f 258 259 266
f 259 267 266
f 259 260 267
f 260 268 267
f 260 261 268
f 261 269 268
f 261 262 269
f 262 270 269
f 262 263 270
f 263 271 270
f 263 264 271
f 264 272 271
f 264 257 272
f 257 265 272
f 273 274 281
f 274 282 281
f 274 275 282
f 275 283 282
f 275 276 283
f 276 284 283
f 276 277 284
f 277 285 284
f 277 278 285
f 278 286 285
f 278 279 286
f 279 287 286
f 279 280 287
f 280 288 287
f 280 273 288
f 273 281 288
f 289 290 297
f 290 298 297
f 290 291 298
f 291 299 298
f 291 292 299
f 292 300 299
f 292 293 300
f 293 301 300
f 293 294 301
f 294 302 301
f 294 295 302
f 295 303 302
f 295 296 303
f 296 304 303
f 296 289 304
f 289 297 304
f 305 306 313
f 306 314 313
f 306 307 314
f 307 315 314
f 307 308 315
f 308 316 315
f 308 309 316
f 309 317 316
f 309 310 317
f 310 318 317
f 310 311 318
f 311 319 318
f 311 312 319
f 312 320 319
f 312 305 320
f 305 313 320
f 321 322 323
f 321 323 324
f 325 326 327
f 325 327 328
f 321 325 326
f 321 326 322
f 322 326 327
f 322 327 323
f 323 327 328
f 323 328 324
f 324 328 325
f 324 325 321
f 329 330 331
f 329 331 332
f 333 334 335
f 333 335 336
f 329 333 334
f 329 334 330
f 330 334 335
f 330 335 331
f 331 335 336
f 331 336 332
f 332 336 333
f 332 333 329
f 337 338 339
f 337 339 340
f 341 342 343
f 341 343 344
f 337 341 342
f 337 342 338
f 338 342 343
f 338 343 339
f 339 343 344
f 339 344 340
f 340 344 341
f 340 341 337
f 345 346 347
f 345 347 348
f 349 350 351
f 349 351 352
f 345 349 350
f 345 350 346
f 346 350 351
f 346 351 347
f 347 351 352
f 347 352 348
f 348 352 349
f 348 349 345
f 353 354 355
f 353 355 356
f 357 358 359
f 357 359 360
f 353 357 358
f 353 358 354
f 354 358 359
f 354 359 355
f 355 359 360
f 355 360 356
f 356 360 357
f 356 357 353
f 361 362 363
f 361 363 364
f 365 366 367
f 365 367 368
f 361 365 366
f 361 366 362
f 362 366 367
f 362 367 363
f 363 367 368
f 363 368 364
f 364 368 365
f 364 365 361
f 369 370 371
f 369 371 372
f 373 374 375
f 373 375 376
f 369 373 374
f 369 374 370
f 370 374 375
f 370 375 371
f 371 375 376
f 371 376 372
f 372 376 373
f 372 373 369
f 377 378 379
f 377 379 380
f 381 382 383
f 381 383 384
f 377 381 382
f 377 382 378
f 378 382 383
f 378 383 379
f 379 383 384
f 379 384 380
f 380 384 381
f 380 381 377
f 385 386 387
f 385 387 388
f 389 390 391
f 389 391 392
f 385 389 390
f 385 390 386
f 386 390 391
f 386 391 387
f 387 391 392
f 387 392 388
f 388 392 389
f 388 389 385
f 393 394 395
f 393 395 396
f 397 398 399
f 397 399 400
f 393 397 398
f 393 398 394
f 394 398 399
f 394 399 395
f 395 399 400
f 395 400 396
f 396 400 397
f 396 397 393
f 401 402 403
f 401 403 404
f 405 406 407
f 405 407 408
f 401 405 406
f 401 406 402
f 402 406 407
f 402 407 403
f 403 407 408
f 403 408 404
f 404 408 405
f 404 405 401
f 409 410 411
f 409 411 412
f 413 414 415
f 413 415 416
f 409 413 414
f 409 414 410
f 410 414 415
f 410 415 411
f 411 415 416
f 411 416 412
f 412 416 413
f 412 413 409
f 417 418 419
f 417 419 420
f 421 422 423
f 421 423 424
f 417 421 422
f 417 422 418
f 418 422 423
f 418 423 419
f 419 423 424
f 419 424 420
f 420 424 421
f 420 421 417
f 425 426 427
f 425 427 428
f 429 430 431
f 429 431 432
f 425 429 430
f 425 430 426
f 426 430 431
f 426 431 427
f 427 431 432
f 427 432 428
f 428 432 429
f 428 429 425
f 433 434 435
f 433 435 436
f 437 438 439
f 437 439 440
f 433 437 438
f 433 438 434
f 434 438 439
f 434 439 435
f 435 439 440
f 435 440 436
f 436 440 437
f 436 437 433
f 441 442 443
f 441 443 444
f 445 446 447
f 445 447 448
f 441 445 446
f 441 446 442
f 442 446 447
f 442 447 443
f 443 447 448
f 443 448 444
f 444 448 445
f 444 445 441
f 449 450 451
f 449 451 452
f 453 454 455
f 453 455 456
f 449 453 454
f 449 454 450
f 450 454 455
f 450 455 451
f 451 455 456
f 451 456 452
f 452 456 453
f 452 453 449
f 457 458 459
f 457 459 460
f 461 462 463
f 461 463 464
f 457 461 462
f 457 462 458
f 458 462 463
f 458 463 459
f 459 463 464
f 459 464 460
f 460 464 461
f 460 461 457
f 465 466 467
f 465 467 468
f 469 470 471
f 469 471 472
f 465 469 470
f 465 470 466
f 466 470 471
f 466 471 467
f 467 471 472
f 467 472 468
f 468 472 469
f 468 469 465
f 473 474 475
f 473 475 476
f 477 478 479
f 477 479 480
f 473 477 478
f 473 478 474
f 474 478 479
f 474 479 475
f 475 479 480
f 475 480 476
f 476 480 477
f 476 477 473
f 481 482 483
f 481 483 484
f 485 486 487
f 485 487 488
f 481 485 486
f 481 486 482
f 482 486 487
f 482 487 483
f 483 487 488
f 483 488 484
f 484 488 485
f 484 485 481
