# SignFlow 3D Hand Mesh - Frame 141
v 0.000000 0.002845 0.019797
v -0.010976 -0.006815 0.015267
v -0.015523 -0.012483 0.001794
v -0.010976 -0.010838 -0.012730
v -0.000000 -0.002845 -0.019797
v 0.010976 0.006815 -0.015267
v 0.015523 0.012483 -0.001794
v 0.010976 0.010838 0.012730
v 0.023054 -0.025243 0.023834
v 0.012077 -0.034903 0.019304
v 0.007531 -0.040571 0.005831
v 0.012077 -0.038927 -0.008693
v 0.023054 -0.030934 -0.015760
v 0.034030 -0.021274 -0.011230
v 0.038577 -0.015606 0.002243
v 0.034030 -0.017250 0.016767
v 0.023054 -0.039925 0.020159
v 0.014519 -0.045548 0.008763
v 0.010984 -0.040944 -0.005401
v 0.014519 -0.028809 -0.014036
v 0.023054 -0.016253 -0.012085
v 0.031588 -0.010629 -0.000689
v 0.035123 -0.015234 0.013475
v 0.031588 -0.027368 0.022110
v 0.047207 -0.054659 0.009341
v 0.038672 -0.060283 -0.002055
v 0.035137 -0.055678 -0.016219
v 0.038672 -0.043544 -0.024854
v 0.047207 -0.030987 -0.022903
v 0.055741 -0.025364 -0.011507
v 0.059276 -0.029968 0.002657
v 0.055741 -0.042103 0.011292
v 0.047207 -0.062334 -0.002383
v 0.036276 -0.058593 -0.012425
v 0.031749 -0.045614 -0.019161
v 0.036276 -0.031001 -0.018645
v 0.047207 -0.023313 -0.011179
v 0.058137 -0.027054 -0.001136
v 0.062664 -0.040033 0.005600
v 0.058137 -0.054646 0.005083
v 0.066426 -0.067481 -0.025218
v 0.055495 -0.063740 -0.035261
v 0.050968 -0.050762 -0.041997
v 0.055495 -0.036148 -0.041480
v 0.066426 -0.028460 -0.034014
v 0.077356 -0.032201 -0.023972
v 0.081883 -0.045180 -0.017236
v 0.077356 -0.059793 -0.017752
v 0.066426 -0.067967 -0.029243
v 0.054213 -0.062244 -0.036482
v 0.049154 -0.048159 -0.039699
v 0.054213 -0.033964 -0.037010
v 0.066426 -0.027974 -0.029989
v 0.078638 -0.033698 -0.022751
v 0.083697 -0.047783 -0.019534
v 0.078638 -0.061977 -0.022223
v 0.079842 -0.068396 -0.052217
v 0.067629 -0.062672 -0.059456
v 0.062570 -0.048588 -0.062673
v 0.067629 -0.034393 -0.059984
v 0.079842 -0.028403 -0.052963
v 0.092055 -0.034127 -0.045725
v 0.097113 -0.048211 -0.042507
v 0.092055 -0.062406 -0.045197
v 0.000000 -0.009043 0.017839
v -0.013065 -0.011222 0.010166
v -0.018477 -0.006828 -0.003461
v -0.013065 0.001566 -0.015062
v -0.000000 0.009043 -0.017839
v 0.013065 0.011222 -0.010166
v 0.018477 0.006828 0.003461
v 0.013065 -0.001566 0.015062
v 0.034525 -0.083369 -0.019838
v 0.021460 -0.085548 -0.027511
v 0.016048 -0.081154 -0.041139
v 0.021460 -0.072760 -0.052739
v 0.034525 -0.065283 -0.055516
v 0.047590 -0.063103 -0.047844
v 0.053002 -0.067498 -0.034216
v 0.047590 -0.075892 -0.022616
v 0.034525 -0.089107 -0.024204
v 0.026725 -0.092724 -0.036869
v 0.023495 -0.085564 -0.050007
v 0.026725 -0.071821 -0.055923
v 0.034525 -0.059545 -0.051150
v 0.042324 -0.055927 -0.038486
v 0.045555 -0.063087 -0.025348
v 0.042324 -0.076830 -0.019432
v 0.057987 -0.099556 -0.035669
v 0.050188 -0.103174 -0.048333
v 0.046957 -0.096014 -0.061471
v 0.050188 -0.082271 -0.067387
v 0.057987 -0.069995 -0.062615
v 0.065787 -0.066377 -0.049950
v 0.069017 -0.073537 -0.036812
v 0.065787 -0.087280 -0.030896
v 0.062894 -0.084776 -0.029753
v 0.056582 -0.097993 -0.034198
v 0.051093 -0.103468 -0.047397
v 0.049642 -0.097993 -0.061618
v 0.053080 -0.084776 -0.068530
v 0.059393 -0.071558 -0.064085
v 0.064882 -0.066083 -0.050887
v 0.066332 -0.071558 -0.036666
v 0.082346 -0.092410 -0.034676
v 0.076034 -0.105627 -0.039121
v 0.070544 -0.111102 -0.052320
v 0.069094 -0.105627 -0.066541
v 0.072532 -0.092410 -0.073453
v 0.078844 -0.079192 -0.069008
v 0.084334 -0.073717 -0.055810
v 0.085784 -0.079192 -0.041589
v 0.077439 -0.109921 -0.044403
v 0.066972 -0.109386 -0.055560
v 0.062636 -0.098907 -0.065841
v 0.066972 -0.084621 -0.069223
v 0.077439 -0.074898 -0.063726
v 0.087906 -0.075433 -0.052570
v 0.092242 -0.085913 -0.042289
v 0.087906 -0.100198 -0.038906
v 0.092286 -0.117815 -0.058711
v 0.081819 -0.117280 -0.069868
v 0.077483 -0.106800 -0.080148
v 0.081819 -0.092515 -0.083531
v 0.092286 -0.082792 -0.078034
v 0.102753 -0.083327 -0.066877
v 0.107089 -0.093807 -0.056597
v 0.102753 -0.108092 -0.053214
v 0.000000 -0.012955 0.015237
v -0.013207 -0.013013 0.007499
v -0.018678 -0.005449 -0.004633
v -0.013207 0.005307 -0.014050
v -0.000000 0.012955 -0.015237
v 0.013207 0.013013 -0.007499
v 0.018678 0.005449 0.004633
v 0.013207 -0.005307 0.014050
v 0.031995 -0.076613 -0.038885
v 0.018788 -0.076671 -0.046624
v 0.013317 -0.069107 -0.058755
v 0.018788 -0.058351 -0.068172
v 0.031995 -0.050703 -0.069359
v 0.045202 -0.050645 -0.061621
v 0.050672 -0.058209 -0.049490
v 0.045202 -0.068966 -0.040072
v 0.031995 -0.079309 -0.041670
v 0.023180 -0.081610 -0.053971
v 0.019529 -0.073396 -0.066361
v 0.023180 -0.059477 -0.071581
v 0.031995 -0.048008 -0.066574
v 0.040810 -0.045706 -0.054273
v 0.044461 -0.053921 -0.041884
v 0.040810 -0.067839 -0.036663
v 0.061246 -0.093825 -0.059915
v 0.052432 -0.096127 -0.072216
v 0.048780 -0.087912 -0.084606
v 0.052432 -0.073993 -0.089826
v 0.061246 -0.062524 -0.084819
v 0.070061 -0.060222 -0.072518
v 0.073712 -0.068437 -0.060128
v 0.070061 -0.082356 -0.054908
v 0.061246 -0.087731 -0.054798
v 0.054193 -0.095700 -0.065801
v 0.051272 -0.093403 -0.080650
v 0.054193 -0.082185 -0.090647
v 0.061246 -0.068618 -0.089936
v 0.068299 -0.060649 -0.078934
v 0.071221 -0.062946 -0.064084
v 0.068299 -0.074164 -0.054087
v 0.082046 -0.098244 -0.060516
v 0.074993 -0.106213 -0.071519
v 0.072071 -0.103916 -0.086368
v 0.074993 -0.092698 -0.096366
v 0.082046 -0.079131 -0.095655
v 0.089099 -0.071162 -0.084652
v 0.092020 -0.073459 -0.069802
v 0.089099 -0.084677 -0.059805
v 0.084403 -0.088688 -0.058225
v 0.078855 -0.101957 -0.063465
v 0.075176 -0.107453 -0.077270
v 0.075521 -0.101957 -0.091552
v 0.079688 -0.088688 -0.097946
v 0.085237 -0.075418 -0.092705
v 0.088916 -0.069922 -0.078901
v 0.088570 -0.075418 -0.064618
v 0.104263 -0.096060 -0.060582
v 0.098714 -0.109330 -0.065822
v 0.095035 -0.114826 -0.079627
v 0.095381 -0.109330 -0.093909
v 0.099548 -0.096060 -0.100303
v 0.105096 -0.082791 -0.095063
v 0.108775 -0.077295 -0.081258
v 0.108430 -0.082791 -0.066975
v 0.000000 -0.016121 0.011837
v -0.013121 -0.014523 0.004116
v -0.018555 -0.004417 -0.006016
v -0.013121 0.008276 -0.012624
v -0.000000 0.016121 -0.011837
v 0.013121 0.014523 -0.004116
v 0.018555 0.004417 0.006016
v 0.013121 -0.008276 0.012624
v 0.034999 -0.067617 -0.058299
v 0.021878 -0.066019 -0.066020
v 0.016443 -0.055913 -0.076152
v 0.021878 -0.043220 -0.082760
v 0.034999 -0.035375 -0.081973
v 0.048119 -0.036973 -0.074252
v 0.053554 -0.047079 -0.064120
v 0.048119 -0.059772 -0.057512
v 0.035548 -0.051496 -0.050144
v 0.036551 -0.065590 -0.056031
v 0.036644 -0.071428 -0.070181
v 0.035773 -0.065590 -0.084305
v 0.034449 -0.051496 -0.090129
v 0.033446 -0.037402 -0.084241
v 0.033353 -0.031564 -0.070091
v 0.034224 -0.037402 -0.055967
v 0.064764 -0.049082 -0.050947
v 0.065767 -0.063176 -0.056835
v 0.065860 -0.069014 -0.070985
v 0.064989 -0.063176 -0.085109
v 0.063664 -0.049082 -0.090932
v 0.062662 -0.034988 -0.085044
v 0.062569 -0.029150 -0.070894
v 0.063439 -0.034988 -0.056771
v 0.064214 -0.032123 -0.081541
v 0.051715 -0.033583 -0.072826
v 0.046538 -0.044122 -0.063005
v 0.051715 -0.057567 -0.057833
v 0.064214 -0.066041 -0.060338
v 0.076713 -0.064581 -0.069054
v 0.081890 -0.054042 -0.078874
v 0.076713 -0.040597 -0.084046
v 0.074926 -0.021397 -0.064383
v 0.062427 -0.022857 -0.055668
v 0.057249 -0.033396 -0.045847
v 0.062427 -0.046841 -0.040675
v 0.074926 -0.055315 -0.043180
v 0.087425 -0.053855 -0.051896
v 0.092602 -0.043316 -0.061716
v 0.087425 -0.029872 -0.066888
v 0.074926 -0.021042 -0.063792
v 0.060811 -0.026552 -0.061619
v 0.054964 -0.038977 -0.054856
v 0.060811 -0.051039 -0.047463
v 0.074926 -0.055671 -0.043772
v 0.089041 -0.050161 -0.045944
v 0.094887 -0.037735 -0.052708
v 0.089041 -0.025674 -0.060100
v 0.073276 -0.007757 -0.040812
v 0.059161 -0.013267 -0.038640
v 0.053315 -0.025692 -0.031876
v 0.059161 -0.037754 -0.024483
v 0.073276 -0.042386 -0.020792
v 0.087391 -0.036876 -0.022965
v 0.093238 -0.024451 -0.029728
v 0.087391 -0.012389 -0.037121
v 0.000000 -0.018283 0.008108
v -0.013193 -0.014993 0.001077
v -0.018658 -0.002920 -0.006584
v -0.013193 0.010863 -0.010389
v -0.000000 0.018283 -0.008108
v 0.013193 0.014993 -0.001077
v 0.018658 0.002920 0.006584
v 0.013193 -0.010863 0.010389
v 0.031410 -0.051267 -0.066271
v 0.018217 -0.047977 -0.073301
v 0.012753 -0.035904 -0.080963
v 0.018217 -0.022121 -0.084768
v 0.031410 -0.014702 -0.082486
v 0.044604 -0.017992 -0.075456
v 0.050068 -0.030065 -0.067794
v 0.044604 -0.043848 -0.063990
v 0.029330 -0.032985 -0.054487
v 0.029850 -0.047126 -0.060323
v 0.031284 -0.052984 -0.074392
v 0.032792 -0.047126 -0.088453
v 0.033491 -0.032985 -0.094270
v 0.032971 -0.018843 -0.088435
v 0.031537 -0.012985 -0.074365
v 0.030029 -0.018843 -0.060304
v 0.054951 -0.033149 -0.051807
v 0.055470 -0.047290 -0.057643
v 0.056904 -0.053148 -0.071712
v 0.058413 -0.047290 -0.085773
v 0.059112 -0.033149 -0.091590
v 0.058592 -0.019007 -0.085755
v 0.057158 -0.013149 -0.071685
v 0.055650 -0.019007 -0.057624
v 0.057031 -0.014151 -0.077949
v 0.046385 -0.016805 -0.067275
v 0.041976 -0.029034 -0.059193
v 0.046385 -0.043673 -0.058436
v 0.057031 -0.052147 -0.065448
v 0.067677 -0.049492 -0.076122
v 0.072087 -0.037263 -0.084205
v 0.067677 -0.022625 -0.084962
v 0.068661 -0.009994 -0.065317
v 0.058015 -0.012649 -0.054643
v 0.053606 -0.024877 -0.046560
v 0.058015 -0.039516 -0.045803
v 0.068661 -0.047990 -0.052815
v 0.079307 -0.045335 -0.063489
v 0.083716 -0.033107 -0.071572
v 0.079307 -0.018468 -0.072329
v 0.068661 -0.010048 -0.065478
v 0.054558 -0.015936 -0.064602
v 0.048717 -0.029472 -0.060483
v 0.054558 -0.042727 -0.055534
v 0.068661 -0.047936 -0.052654
v 0.082763 -0.042049 -0.053530
v 0.088605 -0.028513 -0.057649
v 0.082763 -0.015257 -0.062598
v 0.067257 -0.004049 -0.047754
v 0.053155 -0.009937 -0.046878
v 0.047313 -0.023473 -0.042759
v 0.053155 -0.036728 -0.037810
v 0.067257 -0.041938 -0.034930
v 0.081360 -0.036050 -0.035806
v 0.087201 -0.022514 -0.039925
v 0.081360 -0.009258 -0.044874
v -0.015000 -0.015000 -0.015000
v 0.015000 -0.015000 -0.015000
v 0.015000 0.015000 -0.015000
v -0.015000 0.015000 -0.015000
v -0.015000 -0.015000 0.015000
v 0.015000 -0.015000 0.015000
v 0.015000 0.015000 0.015000
v -0.015000 0.015000 0.015000
v 0.008054 -0.043089 -0.010963
v 0.038054 -0.043089 -0.010963
v 0.038054 -0.013089 -0.010963
v 0.008054 -0.013089 -0.010963
v 0.008054 -0.043089 0.019037
v 0.038054 -0.043089 0.019037
v 0.038054 -0.013089 0.019037
v 0.008054 -0.013089 0.019037
v 0.032207 -0.057823 -0.021781
v 0.062207 -0.057823 -0.021781
v 0.062207 -0.027823 -0.021781
v 0.032207 -0.027823 -0.021781
v 0.032207 -0.057823 0.008219
v 0.062207 -0.057823 0.008219
v 0.062207 -0.027823 0.008219
v 0.032207 -0.027823 0.008219
v 0.051426 -0.062971 -0.044616
v 0.081426 -0.062971 -0.044616
v 0.081426 -0.032971 -0.044616
v 0.051426 -0.032971 -0.044616
v 0.051426 -0.062971 -0.014616
v 0.081426 -0.062971 -0.014616
v 0.081426 -0.032971 -0.014616
v 0.051426 -0.032971 -0.014616
v 0.064842 -0.063400 -0.067590
v 0.094842 -0.063400 -0.067590
v 0.094842 -0.033400 -0.067590
v 0.064842 -0.033400 -0.067590
v 0.064842 -0.063400 -0.037590
v 0.094842 -0.063400 -0.037590
v 0.094842 -0.033400 -0.037590
v 0.064842 -0.033400 -0.037590
v 0.019525 -0.089326 -0.052677
v 0.049525 -0.089326 -0.052677
v 0.049525 -0.059326 -0.052677
v 0.019525 -0.059326 -0.052677
v 0.019525 -0.089326 -0.022677
v 0.049525 -0.089326 -0.022677
v 0.049525 -0.059326 -0.022677
v 0.019525 -0.059326 -0.022677
v 0.042987 -0.099776 -0.064142
v 0.072987 -0.099776 -0.064142
v 0.072987 -0.069776 -0.064142
v 0.042987 -0.069776 -0.064142
v 0.042987 -0.099776 -0.034142
v 0.072987 -0.099776 -0.034142
v 0.072987 -0.069776 -0.034142
v 0.042987 -0.069776 -0.034142
v 0.062439 -0.107410 -0.069065
v 0.092439 -0.107410 -0.069065
v 0.092439 -0.077410 -0.069065
v 0.062439 -0.077410 -0.069065
v 0.062439 -0.107410 -0.039065
v 0.092439 -0.107410 -0.039065
v 0.092439 -0.077410 -0.039065
v 0.062439 -0.077410 -0.039065
v 0.077286 -0.115304 -0.083372
v 0.107286 -0.115304 -0.083372
v 0.107286 -0.085304 -0.083372
v 0.077286 -0.085304 -0.083372
v 0.077286 -0.115304 -0.053372
v 0.107286 -0.115304 -0.053372
v 0.107286 -0.085304 -0.053372
v 0.077286 -0.085304 -0.053372
v 0.016995 -0.078658 -0.069122
v 0.046995 -0.078658 -0.069122
v 0.046995 -0.048658 -0.069122
v 0.016995 -0.048658 -0.069122
v 0.016995 -0.078658 -0.039122
v 0.046995 -0.078658 -0.039122
v 0.046995 -0.048658 -0.039122
v 0.016995 -0.048658 -0.039122
v 0.046246 -0.093174 -0.087367
v 0.076246 -0.093174 -0.087367
v 0.076246 -0.063174 -0.087367
v 0.046246 -0.063174 -0.087367
v 0.046246 -0.093174 -0.057367
v 0.076246 -0.093174 -0.057367
v 0.076246 -0.063174 -0.057367
v 0.046246 -0.063174 -0.057367
v 0.067046 -0.103688 -0.093085
v 0.097046 -0.103688 -0.093085
v 0.097046 -0.073688 -0.093085
v 0.067046 -0.073688 -0.093085
v 0.067046 -0.103688 -0.063085
v 0.097046 -0.103688 -0.063085
v 0.097046 -0.073688 -0.063085
v 0.067046 -0.073688 -0.063085
v 0.086905 -0.111060 -0.095442
v 0.116905 -0.111060 -0.095442
v 0.116905 -0.081060 -0.095442
v 0.086905 -0.081060 -0.095442
v 0.086905 -0.111060 -0.065442
v 0.116905 -0.111060 -0.065442
v 0.116905 -0.081060 -0.065442
v 0.086905 -0.081060 -0.065442
v 0.019999 -0.066496 -0.085136
v 0.049999 -0.066496 -0.085136
v 0.049999 -0.036496 -0.085136
v 0.019999 -0.036496 -0.085136
v 0.019999 -0.066496 -0.055136
v 0.049999 -0.066496 -0.055136
v 0.049999 -0.036496 -0.055136
v 0.019999 -0.036496 -0.055136
v 0.049214 -0.064082 -0.085940
v 0.079214 -0.064082 -0.085940
v 0.079214 -0.034082 -0.085940
v 0.049214 -0.034082 -0.085940
v 0.049214 -0.064082 -0.055940
v 0.079214 -0.064082 -0.055940
v 0.079214 -0.034082 -0.055940
v 0.049214 -0.034082 -0.055940
v 0.059926 -0.053356 -0.068782
v 0.089926 -0.053356 -0.068782
v 0.089926 -0.023356 -0.068782
v 0.059926 -0.023356 -0.068782
v 0.059926 -0.053356 -0.038782
v 0.089926 -0.053356 -0.038782
v 0.089926 -0.023356 -0.038782
v 0.059926 -0.023356 -0.038782
v 0.058276 -0.040071 -0.045802
v 0.088276 -0.040071 -0.045802
v 0.088276 -0.010071 -0.045802
v 0.058276 -0.010071 -0.045802
v 0.058276 -0.040071 -0.015802
v 0.088276 -0.040071 -0.015802
v 0.088276 -0.010071 -0.015802
v 0.058276 -0.010071 -0.015802
v 0.016410 -0.047985 -0.089379
v 0.046410 -0.047985 -0.089379
v 0.046410 -0.017985 -0.089379
v 0.016410 -0.017985 -0.089379
v 0.016410 -0.047985 -0.059379
v 0.046410 -0.047985 -0.059379
v 0.046410 -0.017985 -0.059379
v 0.016410 -0.017985 -0.059379
v 0.042031 -0.048149 -0.086699
v 0.072031 -0.048149 -0.086699
v 0.072031 -0.018149 -0.086699
v 0.042031 -0.018149 -0.086699
v 0.042031 -0.048149 -0.056699
v 0.072031 -0.048149 -0.056699
v 0.072031 -0.018149 -0.056699
v 0.042031 -0.018149 -0.056699
v 0.053661 -0.043992 -0.074066
v 0.083661 -0.043992 -0.074066
v 0.083661 -0.013992 -0.074066
v 0.053661 -0.013992 -0.074066
v 0.053661 -0.043992 -0.044066
v 0.083661 -0.043992 -0.044066
v 0.083661 -0.013992 -0.044066
v 0.053661 -0.013992 -0.044066
v 0.052257 -0.037993 -0.056342
v 0.082257 -0.037993 -0.056342
v 0.082257 -0.007993 -0.056342
v 0.052257 -0.007993 -0.056342
v 0.052257 -0.037993 -0.026342
v 0.082257 -0.037993 -0.026342
v 0.082257 -0.007993 -0.026342
v 0.052257 -0.007993 -0.026342
f 1 2 9
f 2 10 9
f 2 3 10
f 3 11 10
f 3 4 11
f 4 12 11
f 4 5 12
f 5 13 12
f 5 6 13
f 6 14 13
f 6 7 14
f 7 15 14
f 7 8 15
f 8 16 15
f 8 1 16
f 1 9 16
f 17 18 25
f 18 26 25
f 18 19 26
f 19 27 26
f 19 20 27
f 20 28 27
f 20 21 28
f 21 29 28
f 21 22 29
f 22 30 29
f 22 23 30
f 23 31 30
f 23 24 31
f 24 32 31
f 24 17 32
f 17 25 32
f 33 34 41
f 34 42 41
f 34 35 42
f 35 43 42
f 35 36 43
f 36 44 43
f 36 37 44
f 37 45 44
f 37 38 45
f 38 46 45
f 38 39 46
f 39 47 46
f 39 40 47
f 40 48 47
f 40 33 48
f 33 41 48
f 49 50 57
f 50 58 57
f 50 51 58
f 51 59 58
f 51 52 59
f 52 60 59
f 52 53 60
f 53 61 60
f 53 54 61
f 54 62 61
f 54 55 62
f 55 63 62
f 55 56 63
f 56 64 63
f 56 49 64
f 49 57 64
f 65 66 73
f 66 74 73
f 66 67 74
f 67 75 74
f 67 68 75
f 68 76 75
f 68 69 76
f 69 77 76
f 69 70 77
f 70 78 77
f 70 71 78
f 71 79 78
f 71 72 79
f 72 80 79
f 72 65 80
f 65 73 80
f 81 82 89
f 82 90 89
f 82 83 90
f 83 91 90
f 83 84 91
f 84 92 91
f 84 85 92
f 85 93 92
f 85 86 93
f 86 94 93
f 86 87 94
f 87 95 94
f 87 88 95
f 88 96 95
f 88 81 96
f 81 89 96
f 97 98 105
f 98 106 105
f 98 99 106
f 99 107 106
f 99 100 107
f 100 108 107
f 100 101 108
f 101 109 108
f 101 102 109
f 102 110 109
f 102 103 110
f 103 111 110
f 103 104 111
f 104 112 111
f 104 97 112
f 97 105 112
f 113 114 121
f 114 122 121
f 114 115 122
f 115 123 122
f 115 116 123
f 116 124 123
f 116 117 124
f 117 125 124
f 117 118 125
f 118 126 125
f 118 119 126
f 119 127 126
f 119 120 127
f 120 128 127
f 120 113 128
f 113 121 128
f 129 130 137
f 130 138 137
f 130 131 138
f 131 139 138
f 131 132 139
f 132 140 139
f 132 133 140
f 133 141 140
f 133 134 141
f 134 142 141
f 134 135 142
f 135 143 142
f 135 136 143
f 136 144 143
f 136 129 144
f 129 137 144
f 145 146 153
f 146 154 153
f 146 147 154
f 147 155 154
f 147 148 155
f 148 156 155
f 148 149 156
f 149 157 156
f 149 150 157
f 150 158 157
f 150 151 158
f 151 159 158
f 151 152 159
f 152 160 159
f 152 145 160
f 145 153 160
f 161 162 169
f 162 170 169
f 162 163 170
f 163 171 170
f 163 164 171
f 164 172 171
f 164 165 172
f 165 173 172
f 165 166 173
f 166 174 173
f 166 167 174
f 167 175 174
f 167 168 175
f 168 176 175
f 168 161 176
f 161 169 176
f 177 178 185
f 178 186 185
f 178 179 186
f 179 187 186
f 179 180 187
f 180 188 187
f 180 181 188
f 181 189 188
f 181 182 189
f 182 190 189
f 182 183 190
f 183 191 190
f 183 184 191
f 184 192 191
f 184 177 192
f 177 185 192
f 193 194 201
f 194 202 201
f 194 195 202
f 195 203 202
f 195 196 203
f 196 204 203
f 196 197 204
f 197 205 204
f 197 198 205
f 198 206 205
f 198 199 206
f 199 207 206
f 199 200 207
f 200 208 207
f 200 193 208
f 193 201 208
f 209 210 217
f 210 218 217
f 210 211 218
f 211 219 218
f 211 212 219
f 212 220 219
f 212 213 220
f 213 221 220
f 213 214 221
f 214 222 221
f 214 215 222
f 215 223 222
f 215 216 223
f 216 224 223
f 216 209 224
f 209 217 224
f 225 226 233
f 226 234 233
f 226 227 234
f 227 235 234
f 227 228 235
f 228 236 235
f 228 229 236
f 229 237 236
f 229 230 237
f 230 238 237
f 230 231 238
f 231 239 238
f 231 232 239
f 232 240 239
f 232 225 240
f 225 233 240
f 241 242 249
f 242 250 249
f 242 243 250
f 243 251 250
f 243 244 251
f 244 252 251
f 244 245 252
f 245 253 252
f 245 246 253
f 246 254 253
f 246 247 254
f 247 255 254
f 247 248 255
f 248 256 255
f 248 241 256
f 241 249 256
f 257 258 265
f 258 266 265
f 258 259 266
f 259 267 266
f 259 260 267
f 260 268 267
f 260 261 268
f 261 269 268
f 261 262 269
f 262 270 269
f 262 263 270
f 263 271 270
f 263 264 271
f 264 272 271
f 264 257 272
f 257 265 272
f 273 274 281
f 274 282 281
f 274 275 282
f 275 283 282
f 275 276 283
f 276 284 283
f 276 277 284
f 277 285 284
f 277 278 285
f 278 286 285
f 278 279 286
f 279 287 286
f 279 280 287
f 280 288 287
f 280 273 288
f 273 281 288
f 289 290 297
f 290 298 297
f 290 291 298
f 291 299 298
f 291 292 299
f 292 300 299
f 292 293 300
f 293 301 300
f 293 294 301
f 294 302 301
f 294 295 302
f 295 303 302
f 295 296 303
f 296 304 303
f 296 289 304
f 289 297 304
f 305 306 313
f 306 314 313
f 306 307 314
f 307 315 314
f 307 308 315
f 308 316 315
f 308 309 316
f 309 317 316
f 309 310 317
f 310 318 317
f 310 311 318
f 311 319 318
f 311 312 319
f 312 320 319
f 312 305 320
f 305 313 320
f 321 322 323
f 321 323 324
f 325 326 327
f 325 327 328
f 321 325 326
f 321 326 322
f 322 326 327
f 322 327 323
f 323 327 328
f 323 328 324
f 324 328 325
f 324 325 321
f 329 330 331
f 329 331 332
f 333 334 335
f 333 335 336
f 329 333 334
f 329 334 330
f 330 334 335
f 330 335 331
f 331 335 336
f 331 336 332
f 332 336 333
f 332 333 329
f 337 338 339
f 337 339 340
f 341 342 343
f 341 343 344
f 337 341 342
f 337 342 338
f 338 342 343
f 338 343 339
f 339 343 344
f 339 344 340
f 340 344 341
f 340 341 337
f 345 346 347
f 345 347 348
f 349 350 351
f 349 351 352
f 345 349 350
f 345 350 346
f 346 350 351
f 346 351 347
f 347 351 352
f 347 352 348
f 348 352 349
f 348 349 345
f 353 354 355
f 353 355 356
f 357 358 359
f 357 359 360
f 353 357 358
f 353 358 354
f 354 358 359
f 354 359 355
f 355 359 360
f 355 360 356
f 356 360 357
f 356 357 353
f 361 362 363
f 361 363 364
f 365 366 367
f 365 367 368
f 361 365 366
f 361 366 362
f 362 366 367
f 362 367 363
f 363 367 368
f 363 368 364
f 364 368 365
f 364 365 361
f 369 370 371
f 369 371 372
f 373 374 375
f 373 375 376
f 369 373 374
f 369 374 370
f 370 374 375
f 370 375 371
f 371 375 376
f 371 376 372
f 372 376 373
f 372 373 369
f 377 378 379
f 377 379 380
f 381 382 383
f 381 383 384
f 377 381 382
f 377 382 378
f 378 382 383
f 378 383 379
f 379 383 384
f 379 384 380
f 380 384 381
f 380 381 377
f 385 386 387
f 385 387 388
f 389 390 391
f 389 391 392
f 385 389 390
f 385 390 386
f 386 390 391
f 386 391 387
f 387 391 392
f 387 392 388
f 388 392 389
f 388 389 385
f 393 394 395
f 393 395 396
f 397 398 399
f 397 399 400
f 393 397 398
f 393 398 394
f 394 398 399
f 394 399 395
f 395 399 400
f 395 400 396
f 396 400 397
f 396 397 393
f 401 402 403
f 401 403 404
f 405 406 407
f 405 407 408
f 401 405 406
f 401 406 402
f 402 406 407
f 402 407 403
f 403 407 408
f 403 408 404
f 404 408 405
f 404 405 401
f 409 410 411
f 409 411 412
f 413 414 415
f 413 415 416
f 409 413 414
f 409 414 410
f 410 414 415
f 410 415 411
f 411 415 416
f 411 416 412
f 412 416 413
f 412 413 409
f 417 418 419
f 417 419 420
f 421 422 423
f 421 423 424
f 417 421 422
f 417 422 418
f 418 422 423
f 418 423 419
f 419 423 424
f 419 424 420
f 420 424 421
f 420 421 417
f 425 426 427
f 425 427 428
f 429 430 431
f 429 431 432
f 425 429 430
f 425 430 426
f 426 430 431
f 426 431 427
f 427 431 432
f 427 432 428
f 428 432 429
f 428 429 425
f 433 434 435
f 433 435 436
f 437 438 439
f 437 439 440
f 433 437 438
f 433 438 434
f 434 438 439
f 434 439 435
f 435 439 440
f 435 440 436
f 436 440 437
f 436 437 433
f 441 442 443
f 441 443 444
f 445 446 447
f 445 447 448
f 441 445 446
f 441 446 442
f 442 446 447
f 442 447 443
f 443 447 448
f 443 448 444
f 444 448 445
f 444 445 441
f 449 450 451
f 449 451 452
f 453 454 455
f 453 455 456
f 449 453 454
f 449 454 450
f 450 454 455
f 450 455 451
f 451 455 456
f 451 456 452
f 452 456 453
f 452 453 449
f 457 458 459
f 457 459 460
f 461 462 463
f 461 463 464
f 457 461 462
f 457 462 458
f 458 462 463
f 458 463 459
f 459 463 464
f 459 464 460
f 460 464 461
f 460 461 457
f 465 466 467
f 465 467 468
f 469 470 471
f 469 471 472
f 465 469 470
f 465 470 466
f 466 470 471
f 466 471 467
f 467 471 472
f 467 472 468
f 468 472 469
f 468 469 465
f 473 474 475
f 473 475 476
f 477 478 479
f 477 479 480
f 473 477 478
f 473 478 474
f 474 478 479
f 474 479 475
f 475 479 480
f 475 480 476
f 476 480 477
f 476 477 473
f 481 482 483
f 481 483 484
f 485 486 487
f 485 487 488
f 481 485 486
f 481 486 482
f 482 486 487
f 482 487 483
f 483 487 488
f 483 488 484
f 484 488 485
f 484 485 481
