# SignFlow 3D Hand Mesh - Frame 49
v 0.000000 0.016896 0.010702
v -0.007903 0.018223 -0.002341
v -0.011176 0.008875 -0.014012
v -0.007903 -0.005672 -0.017475
v -0.000000 -0.016896 -0.010702
v 0.007903 -0.018223 0.002341
v 0.011176 -0.008875 0.014012
v 0.007903 0.005672 0.017475
v -0.029321 0.006325 0.027392
v -0.037224 0.007651 0.014350
v -0.040497 -0.001697 0.002679
v -0.037224 -0.016243 -0.000784
v -0.029321 -0.027468 0.005989
v -0.021419 -0.028794 0.019032
v -0.018146 -0.019446 0.030703
v -0.021419 -0.004900 0.034166
v -0.034689 -0.010572 -0.002576
v -0.035061 -0.024569 0.003609
v -0.032071 -0.030367 0.017457
v -0.027471 -0.024569 0.030856
v -0.023954 -0.010572 0.035957
v -0.023582 0.003426 0.029772
v -0.026572 0.009224 0.015925
v -0.031172 0.003426 0.002526
v -0.058094 -0.007068 0.003945
v -0.058466 -0.021065 0.010129
v -0.055477 -0.026863 0.023977
v -0.050876 -0.021065 0.037376
v -0.047360 -0.007068 0.042477
v -0.046987 0.006929 0.036293
v -0.049977 0.012727 0.022445
v -0.054578 0.006929 0.009046
v -0.052727 0.002573 0.005688
v -0.059291 -0.011226 0.004782
v -0.062011 -0.022589 0.014672
v -0.059291 -0.024860 0.029564
v -0.052727 -0.016708 0.040734
v -0.046162 -0.002910 0.041640
v -0.043443 0.008453 0.031750
v -0.046162 0.010724 0.016858
v -0.073213 0.011979 0.010863
v -0.079778 -0.001820 0.009957
v -0.082497 -0.013182 0.019847
v -0.079778 -0.015453 0.034739
v -0.073213 -0.007302 0.045909
v -0.066649 0.006497 0.046815
v -0.063929 0.017860 0.036925
v -0.066649 0.020130 0.022033
v -0.073159 0.002339 0.008386
v -0.075275 -0.011647 0.014238
v -0.076184 -0.017439 0.028378
v -0.075353 -0.011647 0.042522
v -0.073268 0.002339 0.048386
v -0.071151 0.016324 0.042534
v -0.070242 0.022117 0.028394
v -0.071074 0.016324 0.014250
v -0.089873 0.004849 0.008340
v -0.091989 -0.009136 0.014193
v -0.092898 -0.014929 0.028332
v -0.092067 -0.009136 0.042477
v -0.089982 0.004849 0.048340
v -0.087865 0.018835 0.042488
v -0.086956 0.024627 0.028348
v -0.087788 0.018835 0.014204
v 0.000000 0.003122 0.019755
v -0.006552 0.014586 0.012013
v -0.009266 0.017507 -0.002766
v -0.006552 0.010172 -0.015925
v -0.000000 -0.003122 -0.019755
v 0.006552 -0.014586 -0.012013
v 0.009266 -0.017507 0.002766
v 0.006552 -0.010172 0.015925
v -0.078759 -0.037550 0.026181
v -0.085311 -0.026085 0.018439
v -0.088025 -0.023164 0.003660
v -0.085311 -0.030499 -0.009498
v -0.078759 -0.043793 -0.013328
v -0.072207 -0.055258 -0.005586
v -0.069493 -0.058178 0.009193
v -0.072207 -0.050843 0.022351
v -0.075525 -0.040671 -0.013310
v -0.077158 -0.054796 -0.007642
v -0.079729 -0.060647 0.006268
v -0.081732 -0.054796 0.020270
v -0.081993 -0.040671 0.026163
v -0.080360 -0.026546 0.020495
v -0.077789 -0.020695 0.006586
v -0.075786 -0.026546 -0.007417
v -0.098988 -0.039501 -0.017155
v -0.100621 -0.053626 -0.011486
v -0.103192 -0.059477 0.002423
v -0.105195 -0.053626 0.016426
v -0.105456 -0.039501 0.022319
v -0.103823 -0.025376 0.016650
v -0.101252 -0.019525 0.002741
v -0.099249 -0.025376 -0.011262
v -0.103956 -0.039501 -0.017343
v -0.106287 -0.053353 -0.011260
v -0.106237 -0.059091 0.002931
v -0.103835 -0.053353 0.016918
v -0.100488 -0.039501 0.022507
v -0.098157 -0.025649 0.016424
v -0.098207 -0.019911 0.002233
v -0.100609 -0.025649 -0.011754
v -0.126569 -0.034831 -0.015375
v -0.128901 -0.048683 -0.009292
v -0.128850 -0.054420 0.004899
v -0.126448 -0.048683 0.018886
v -0.123101 -0.034831 0.024475
v -0.120770 -0.020979 0.018392
v -0.120820 -0.015241 0.004200
v -0.123222 -0.020979 -0.009786
v -0.124835 -0.044117 -0.013164
v -0.132982 -0.051635 -0.002608
v -0.136357 -0.049310 0.012140
v -0.132982 -0.038503 0.022442
v -0.124835 -0.025545 0.022263
v -0.116688 -0.018027 0.011708
v -0.113313 -0.020352 -0.003040
v -0.116688 -0.031159 -0.013343
v -0.149568 -0.028678 -0.021257
v -0.157715 -0.036196 -0.010702
v -0.161090 -0.033870 0.004047
v -0.157715 -0.023064 0.014349
v -0.149568 -0.010106 0.014170
v -0.141421 -0.002587 0.003615
v -0.138046 -0.004913 -0.011134
v -0.141421 -0.015720 -0.021436
v 0.000000 -0.006654 0.018861
v -0.006354 0.007209 0.017540
v -0.008985 0.016850 0.005945
v -0.006354 0.016620 -0.009133
v -0.000000 0.006654 -0.018861
v 0.006354 -0.007209 -0.017540
v 0.008985 -0.016850 -0.005945
v 0.006354 -0.016620 0.009133
v -0.078918 -0.044080 0.005656
v -0.085272 -0.030216 0.004336
v -0.087904 -0.020576 -0.007259
v -0.085272 -0.020806 -0.022337
v -0.078918 -0.030771 -0.032065
v -0.072565 -0.044635 -0.030744
v -0.069933 -0.054275 -0.019149
v -0.072565 -0.054046 -0.004072
v -0.077798 -0.037426 -0.033173
v -0.077163 -0.051535 -0.027270
v -0.077557 -0.057379 -0.013128
v -0.078748 -0.051535 0.000970
v -0.080039 -0.037426 0.006764
v -0.080674 -0.023316 0.000862
v -0.080280 -0.017472 -0.013281
v -0.079089 -0.023316 -0.027378
v -0.105642 -0.039331 -0.034736
v -0.105008 -0.053441 -0.028833
v -0.105402 -0.059285 -0.014691
v -0.106593 -0.053441 -0.000593
v -0.107884 -0.039331 0.005202
v -0.108518 -0.025222 -0.000701
v -0.108125 -0.019378 -0.014843
v -0.106933 -0.025222 -0.028941
v -0.104117 -0.039331 -0.034591
v -0.110449 -0.052315 -0.029527
v -0.114622 -0.057693 -0.015816
v -0.114191 -0.052315 -0.001491
v -0.109409 -0.039331 0.005057
v -0.103077 -0.026348 -0.000008
v -0.098904 -0.020970 -0.013718
v -0.099335 -0.026348 -0.028043
v -0.130598 -0.027796 -0.038126
v -0.136930 -0.040779 -0.033061
v -0.141103 -0.046157 -0.019351
v -0.140672 -0.040779 -0.005026
v -0.135891 -0.027796 0.001522
v -0.129559 -0.014812 -0.003542
v -0.125386 -0.009434 -0.017253
v -0.125816 -0.014812 -0.031578
v -0.137100 -0.027796 -0.037927
v -0.140110 -0.041294 -0.031365
v -0.139098 -0.046885 -0.017152
v -0.134657 -0.041294 -0.003612
v -0.129388 -0.027796 0.001323
v -0.126379 -0.014297 -0.005238
v -0.127391 -0.008706 -0.019452
v -0.131832 -0.014297 -0.032992
v -0.164116 -0.019192 -0.032618
v -0.167126 -0.032691 -0.026057
v -0.166114 -0.038282 -0.011843
v -0.161673 -0.032691 0.001697
v -0.156404 -0.019192 0.006631
v -0.153395 -0.005694 0.000070
v -0.154407 -0.000102 -0.014144
v -0.158848 -0.005694 -0.027684
v 0.000000 -0.015066 0.013154
v -0.006901 -0.002534 0.018600
v -0.009759 0.011482 0.013150
v -0.006901 0.018772 -0.000002
v -0.000000 0.015066 -0.013154
v 0.006901 0.002534 -0.018600
v 0.009759 -0.011482 -0.013150
v 0.006901 -0.018772 0.000002
v -0.075990 -0.043004 -0.018845
v -0.082891 -0.030473 -0.013399
v -0.085749 -0.016457 -0.018848
v -0.082891 -0.009167 -0.032001
v -0.075990 -0.012873 -0.045153
v -0.069090 -0.025404 -0.050599
v -0.066232 -0.039420 -0.045149
v -0.069090 -0.046710 -0.031996
v -0.074535 -0.027938 -0.051946
v -0.074417 -0.042070 -0.046064
v -0.075220 -0.047924 -0.031943
v -0.076475 -0.042070 -0.017854
v -0.077446 -0.027938 -0.012052
v -0.077564 -0.013807 -0.017934
v -0.076761 -0.007953 -0.032055
v -0.075506 -0.013807 -0.046143
v -0.100697 -0.028952 -0.053854
v -0.100578 -0.043084 -0.047972
v -0.101382 -0.048937 -0.033851
v -0.102636 -0.043084 -0.019763
v -0.103607 -0.028952 -0.013960
v -0.103725 -0.014820 -0.019842
v -0.102922 -0.008967 -0.033963
v -0.101668 -0.014820 -0.048052
v -0.104871 -0.028952 -0.053721
v -0.107961 -0.042539 -0.047385
v -0.107648 -0.048167 -0.033153
v -0.104115 -0.042539 -0.019363
v -0.099432 -0.028952 -0.014093
v -0.096343 -0.015365 -0.020430
v -0.096656 -0.009737 -0.034662
v -0.100189 -0.015365 -0.048451
v -0.130322 -0.021536 -0.050228
v -0.133411 -0.035123 -0.043891
v -0.133098 -0.040751 -0.029660
v -0.129565 -0.035123 -0.015870
v -0.124882 -0.021536 -0.010600
v -0.121793 -0.007948 -0.016937
v -0.122106 -0.002320 -0.031168
v -0.125639 -0.007948 -0.044958
v -0.132002 -0.021536 -0.049924
v -0.133136 -0.035458 -0.043663
v -0.131029 -0.041225 -0.029641
v -0.126914 -0.035458 -0.016072
v -0.123202 -0.021536 -0.010904
v -0.122068 -0.007613 -0.017165
v -0.124176 -0.001847 -0.031187
v -0.128291 -0.007613 -0.044756
v -0.158536 -0.016683 -0.043940
v -0.159671 -0.030605 -0.037679
v -0.157563 -0.036372 -0.023657
v -0.153448 -0.030605 -0.010088
v -0.149736 -0.016683 -0.004920
v -0.148602 -0.002761 -0.011180
v -0.150710 0.003006 -0.025202
v -0.154825 -0.002761 -0.038772
v 0.000000 -0.019229 0.005498
v -0.007608 -0.010320 0.015350
v -0.010760 0.004635 0.016210
v -0.007608 0.016875 0.007574
v -0.000000 0.019229 -0.005498
v 0.007608 0.010320 -0.015350
v 0.010760 -0.004635 -0.016210
v 0.007608 -0.016875 -0.007574
v -0.068797 -0.031300 -0.036716
v -0.076405 -0.022391 -0.026865
v -0.079557 -0.007436 -0.026005
v -0.076405 0.004804 -0.034641
v -0.068797 0.007159 -0.047713
v -0.061189 -0.001751 -0.057564
v -0.058038 -0.016706 -0.058424
v -0.061189 -0.028945 -0.049788
v -0.068124 -0.012071 -0.062203
v -0.069590 -0.026156 -0.056391
v -0.070591 -0.031990 -0.042275
v -0.070541 -0.026156 -0.028123
v -0.069470 -0.012071 -0.022226
v -0.068004 0.002014 -0.028038
v -0.067003 0.007848 -0.042154
v -0.067053 0.002014 -0.056306
v -0.084782 -0.010569 -0.062764
v -0.086247 -0.024654 -0.056952
v -0.087249 -0.030488 -0.042836
v -0.087199 -0.024654 -0.028684
v -0.086128 -0.010569 -0.022787
v -0.084662 0.003516 -0.028598
v -0.083661 0.009350 -0.042715
v -0.083710 0.003516 -0.056867
v -0.088019 -0.010569 -0.062610
v -0.089034 -0.024598 -0.056572
v -0.087952 -0.030410 -0.042452
v -0.085407 -0.024598 -0.028522
v -0.082890 -0.010569 -0.022940
v -0.081876 0.003461 -0.028978
v -0.082958 0.009272 -0.043098
v -0.085503 0.003461 -0.057029
v -0.113026 -0.007369 -0.059377
v -0.114041 -0.021399 -0.053339
v -0.112959 -0.027210 -0.039219
v -0.110414 -0.021399 -0.025288
v -0.107897 -0.007369 -0.019707
v -0.106883 0.006660 -0.025745
v -0.107965 0.012472 -0.039865
v -0.110509 0.006660 -0.053796
v -0.112700 -0.007369 -0.059417
v -0.114832 -0.021230 -0.053282
v -0.114404 -0.026972 -0.039098
v -0.111667 -0.021230 -0.025175
v -0.108224 -0.007369 -0.019668
v -0.106092 0.006492 -0.025803
v -0.106519 0.012233 -0.039986
v -0.109256 0.006492 -0.053909
v -0.133444 -0.003144 -0.057081
v -0.135577 -0.017005 -0.050946
v -0.135149 -0.022747 -0.036762
v -0.132412 -0.017005 -0.022839
v -0.128968 -0.003144 -0.017332
v -0.126836 0.010717 -0.023467
v -0.127264 0.016458 -0.037650
v -0.130001 0.010717 -0.051573
v -0.015000 -0.015000 -0.015000
v 0.015000 -0.015000 -0.015000
v 0.015000 0.015000 -0.015000
v -0.015000 0.015000 -0.015000
v -0.015000 -0.015000 0.015000
v 0.015000 -0.015000 0.015000
v 0.015000 0.015000 0.015000
v -0.015000 0.015000 0.015000
v -0.044321 -0.025572 0.001691
v -0.014321 -0.025572 0.001691
v -0.014321 0.004428 0.001691
v -0.044321 0.004428 0.001691
v -0.044321 -0.025572 0.031691
v -0.014321 -0.025572 0.031691
v -0.014321 0.004428 0.031691
v -0.044321 0.004428 0.031691
v -0.067727 -0.022068 0.008211
v -0.037727 -0.022068 0.008211
v -0.037727 0.007932 0.008211
v -0.067727 0.007932 0.008211
v -0.067727 -0.022068 0.038211
v -0.037727 -0.022068 0.038211
v -0.037727 0.007932 0.038211
v -0.067727 0.007932 0.038211
v -0.088213 -0.012661 0.013386
v -0.058213 -0.012661 0.013386
v -0.058213 0.017339 0.013386
v -0.088213 0.017339 0.013386
v -0.088213 -0.012661 0.043386
v -0.058213 -0.012661 0.043386
v -0.058213 0.017339 0.043386
v -0.088213 0.017339 0.043386
v -0.104927 -0.010151 0.013340
v -0.074927 -0.010151 0.013340
v -0.074927 0.019849 0.013340
v -0.104927 0.019849 0.013340
v -0.104927 -0.010151 0.043340
v -0.074927 -0.010151 0.043340
v -0.074927 0.019849 0.043340
v -0.104927 0.019849 0.043340
v -0.093759 -0.055671 -0.008573
v -0.063759 -0.055671 -0.008573
v -0.063759 -0.025671 -0.008573
v -0.093759 -0.025671 -0.008573
v -0.093759 -0.055671 0.021427
v -0.063759 -0.055671 0.021427
v -0.063759 -0.025671 0.021427
v -0.093759 -0.025671 0.021427
v -0.117222 -0.054501 -0.012418
v -0.087222 -0.054501 -0.012418
v -0.087222 -0.024501 -0.012418
v -0.117222 -0.024501 -0.012418
v -0.117222 -0.054501 0.017582
v -0.087222 -0.054501 0.017582
v -0.087222 -0.024501 0.017582
v -0.117222 -0.024501 0.017582
v -0.139835 -0.049831 -0.010450
v -0.109835 -0.049831 -0.010450
v -0.109835 -0.019831 -0.010450
v -0.139835 -0.019831 -0.010450
v -0.139835 -0.049831 0.019550
v -0.109835 -0.049831 0.019550
v -0.109835 -0.019831 0.019550
v -0.139835 -0.019831 0.019550
v -0.164568 -0.034392 -0.018544
v -0.134568 -0.034392 -0.018544
v -0.134568 -0.004392 -0.018544
v -0.164568 -0.004392 -0.018544
v -0.164568 -0.034392 0.011456
v -0.134568 -0.034392 0.011456
v -0.134568 -0.004392 0.011456
v -0.164568 -0.004392 0.011456
v -0.093918 -0.052426 -0.028204
v -0.063918 -0.052426 -0.028204
v -0.063918 -0.022426 -0.028204
v -0.093918 -0.022426 -0.028204
v -0.093918 -0.052426 0.001796
v -0.063918 -0.052426 0.001796
v -0.063918 -0.022426 0.001796
v -0.093918 -0.022426 0.001796
v -0.121763 -0.054331 -0.029767
v -0.091763 -0.054331 -0.029767
v -0.091763 -0.024331 -0.029767
v -0.121763 -0.024331 -0.029767
v -0.121763 -0.054331 0.000233
v -0.091763 -0.054331 0.000233
v -0.091763 -0.024331 0.000233
v -0.121763 -0.024331 0.000233
v -0.148244 -0.042796 -0.033302
v -0.118244 -0.042796 -0.033302
v -0.118244 -0.012796 -0.033302
v -0.148244 -0.012796 -0.033302
v -0.148244 -0.042796 -0.003302
v -0.118244 -0.042796 -0.003302
v -0.118244 -0.012796 -0.003302
v -0.148244 -0.012796 -0.003302
v -0.175260 -0.034192 -0.027993
v -0.145260 -0.034192 -0.027993
v -0.145260 -0.004192 -0.027993
v -0.175260 -0.004192 -0.027993
v -0.175260 -0.034192 0.002007
v -0.145260 -0.034192 0.002007
v -0.145260 -0.004192 0.002007
v -0.175260 -0.004192 0.002007
v -0.090990 -0.042938 -0.046999
v -0.060990 -0.042938 -0.046999
v -0.060990 -0.012938 -0.046999
v -0.090990 -0.012938 -0.046999
v -0.090990 -0.042938 -0.016999
v -0.060990 -0.042938 -0.016999
v -0.060990 -0.012938 -0.016999
v -0.090990 -0.012938 -0.016999
v -0.117152 -0.043952 -0.048907
v -0.087152 -0.043952 -0.048907
v -0.087152 -0.013952 -0.048907
v -0.117152 -0.013952 -0.048907
v -0.117152 -0.043952 -0.018907
v -0.087152 -0.043952 -0.018907
v -0.087152 -0.013952 -0.018907
v -0.117152 -0.013952 -0.018907
v -0.142602 -0.036536 -0.045414
v -0.112602 -0.036536 -0.045414
v -0.112602 -0.006536 -0.045414
v -0.142602 -0.006536 -0.045414
v -0.142602 -0.036536 -0.015414
v -0.112602 -0.036536 -0.015414
v -0.112602 -0.006536 -0.015414
v -0.142602 -0.006536 -0.015414
v -0.169136 -0.031683 -0.039430
v -0.139136 -0.031683 -0.039430
v -0.139136 -0.001683 -0.039430
v -0.169136 -0.001683 -0.039430
v -0.169136 -0.031683 -0.009430
v -0.139136 -0.031683 -0.009430
v -0.139136 -0.001683 -0.009430
v -0.169136 -0.001683 -0.009430
v -0.083797 -0.027071 -0.057214
v -0.053797 -0.027071 -0.057214
v -0.053797 0.002929 -0.057214
v -0.083797 0.002929 -0.057214
v -0.083797 -0.027071 -0.027214
v -0.053797 -0.027071 -0.027214
v -0.053797 0.002929 -0.027214
v -0.083797 0.002929 -0.027214
v -0.100455 -0.025569 -0.057775
v -0.070455 -0.025569 -0.057775
v -0.070455 0.004431 -0.057775
v -0.100455 0.004431 -0.057775
v -0.100455 -0.025569 -0.027775
v -0.070455 -0.025569 -0.027775
v -0.070455 0.004431 -0.027775
v -0.100455 0.004431 -0.027775
v -0.125462 -0.022369 -0.054542
v -0.095462 -0.022369 -0.054542
v -0.095462 0.007631 -0.054542
v -0.125462 0.007631 -0.054542
v -0.125462 -0.022369 -0.024542
v -0.095462 -0.022369 -0.024542
v -0.095462 0.007631 -0.024542
v -0.125462 0.007631 -0.024542
v -0.146206 -0.018144 -0.052206
v -0.116206 -0.018144 -0.052206
v -0.116206 0.011856 -0.052206
v -0.146206 0.011856 -0.052206
v -0.146206 -0.018144 -0.022206
v -0.116206 -0.018144 -0.022206
v -0.116206 0.011856 -0.022206
v -0.146206 0.011856 -0.022206
f 1 2 9
f 2 10 9
f 2 3 10
f 3 11 10
f 3 4 11
f 4 12 11
f 4 5 12
f 5 13 12
f 5 6 13
f 6 14 13
f 6 7 14
f 7 15 14
f 7 8 15
f 8 16 15
f 8 1 16
f 1 9 16
f 17 18 25
f 18 26 25
f 18 19 26
f 19 27 26
f 19 20 27
f 20 28 27
f 20 21 28
f 21 29 28
f 21 22 29
f 22 30 29
f 22 23 30
f 23 31 30
f 23 24 31
f 24 32 31
f 24 17 32
f 17 25 32
f 33 34 41
f 34 42 41
f 34 35 42
f 35 43 42
f 35 36 43
f 36 44 43
f 36 37 44
f 37 45 44
f 37 38 45
f 38 46 45
f 38 39 46
f 39 47 46
f 39 40 47
f 40 48 47
f 40 33 48
f 33 41 48
f 49 50 57
f 50 58 57
f 50 51 58
f 51 59 58
f 51 52 59
f 52 60 59
f 52 53 60
f 53 61 60
f 53 54 61
f 54 62 61
f 54 55 62
f 55 63 62
f 55 56 63
f 56 64 63
f 56 49 64
f 49 57 64
f 65 66 73
f 66 74 73
f 66 67 74
f 67 75 74
f 67 68 75
f 68 76 75
f 68 69 76
f 69 77 76
f 69 70 77
f 70 78 77
f 70 71 78
f 71 79 78
f 71 72 79
f 72 80 79
f 72 65 80
f 65 73 80
f 81 82 89
f 82 90 89
f 82 83 90
f 83 91 90
f 83 84 91
f 84 92 91
f 84 85 92
f 85 93 92
f 85 86 93
f 86 94 93
f 86 87 94
f 87 95 94
f 87 88 95
f 88 96 95
f 88 81 96
f 81 89 96
f 97 98 105
f 98 106 105
f 98 99 106
f 99 107 106
f 99 100 107
f 100 108 107
f 100 101 108
f 101 109 108
f 101 102 109
f 102 110 109
f 102 103 110
f 103 111 110
f 103 104 111
f 104 112 111
f 104 97 112
f 97 105 112
f 113 114 121
f 114 122 121
f 114 115 122
f 115 123 122
f 115 116 123
f 116 124 123
f 116 117 124
f 117 125 124
f 117 118 125
f 118 126 125
f 118 119 126
f 119 127 126
f 119 120 127
f 120 128 127
f 120 113 128
f 113 121 128
f 129 130 137
f 130 138 137
f 130 131 138
f 131 139 138
f 131 132 139
f 132 140 139
f 132 133 140
f 133 141 140
f 133 134 141
f 134 142 141
f 134 135 142
f 135 143 142
f 135 136 143
f 136 144 143
f 136 129 144
f 129 137 144
f 145 146 153
f 146 154 153
f 146 147 154
f 147 155 154
f 147 148 155
f 148 156 155
f 148 149 156
f 149 157 156
f 149 150 157
f 150 158 157
f 150 151 158
f 151 159 158
f 151 152 159
f 152 160 159
f 152 145 160
f 145 153 160
f 161 162 169
f 162 170 169
f 162 163 170
f 163 171 170
f 163 164 171
f 164 172 171
f 164 165 172
f 165 173 172
f 165 166 173
f 166 174 173
f 166 167 174
f 167 175 174
f 167 168 175
f 168 176 175
f 168 161 176
f 161 169 176
f 177 178 185
f 178 186 185
f 178 179 186
f 179 187 186
f 179 180 187
f 180 188 187
f 180 181 188
f 181 189 188
f 181 182 189
f 182 190 189
f 182 183 190
f 183 191 190
f 183 184 191
f 184 192 191
f 184 177 192
f 177 185 192
f 193 194 201
f 194 202 201
f 194 195 202
f 195 203 202
f 195 196 203
f 196 204 203
f 196 197 204
f 197 205 204
f 197 198 205
f 198 206 205
f 198 199 206
f 199 207 206
f 199 200 207
f 200 208 207
f 200 193 208
f 193 201 208
f 209 210 217
f 210 218 217
f 210 211 218
f 211 219 218
f 211 212 219
f 212 220 219
f 212 213 220
f 213 221 220
f 213 214 221
f 214 222 221
f 214 215 222
f 215 223 222
f 215 216 223
f 216 224 223
f 216 209 224
f 209 217 224
f 225 226 233
f 226 234 233
f 226 227 234
f 227 235 234
f 227 228 235
f 228 236 235
f 228 229 236
f 229 237 236
f 229 230 237
f 230 238 237
f 230 231 238
f 231 239 238
f 231 232 239
f 232 240 239
f 232 225 240
f 225 233 240
f 241 242 249
f 242 250 249
f 242 243 250
f 243 251 250
f 243 244 251
f 244 252 251
f 244 245 252
f 245 253 252
f 245 246 253
f 246 254 253
f 246 247 254
f 247 255 254
f 247 248 255
f 248 256 255
f 248 241 256
f 241 249 256
f 257 258 265
f 258 266 265
f 258 259 266
f 259 267 266
f 259 260 267
f 260 268 267
f 260 261 268
f 261 269 268
f 261 262 269
f 262 270 269
f 262 263 270
f 263 271 270
f 263 264 271
f 264 272 271
f 264 257 272
f 257 265 272
f 273 274 281
f 274 282 281
f 274 275 282
f 275 283 282
f 275 276 283
f 276 284 283
f 276 277 284
f 277 285 284
f 277 278 285
f 278 286 285
f 278 279 286
f 279 287 286
f 279 280 287
f 280 288 287
f 280 273 288
f 273 281 288
f 289 290 297
f 290 298 297
f 290 291 298
f 291 299 298
f 291 292 299
f 292 300 299
f 292 293 300
f 293 301 300
f 293 294 301
f 294 302 301
f 294 295 302
f 295 303 302
f 295 296 303
f 296 304 303
f 296 289 304
f 289 297 304
f 305 306 313
f 306 314 313
f 306 307 314
f 307 315 314
f 307 308 315
f 308 316 315
f 308 309 316
f 309 317 316
f 309 310 317
f 310 318 317
f 310 311 318
f 311 319 318
f 311 312 319
f 312 320 319
f 312 305 320
f 305 313 320
f 321 322 323
f 321 323 324
f 325 326 327
f 325 327 328
f 321 325 326
f 321 326 322
f 322 326 327
f 322 327 323
f 323 327 328
f 323 328 324
f 324 328 325
f 324 325 321
f 329 330 331
f 329 331 332
f 333 334 335
f 333 335 336
f 329 333 334
f 329 334 330
f 330 334 335
f 330 335 331
f 331 335 336
f 331 336 332
f 332 336 333
f 332 333 329
f 337 338 339
f 337 339 340
f 341 342 343
f 341 343 344
f 337 341 342
f 337 342 338
f 338 342 343
f 338 343 339
f 339 343 344
f 339 344 340
f 340 344 341
f 340 341 337
f 345 346 347
f 345 347 348
f 349 350 351
f 349 351 352
f 345 349 350
f 345 350 346
f 346 350 351
f 346 351 347
f 347 351 352
f 347 352 348
f 348 352 349
f 348 349 345
f 353 354 355
f 353 355 356
f 357 358 359
f 357 359 360
f 353 357 358
f 353 358 354
f 354 358 359
f 354 359 355
f 355 359 360
f 355 360 356
f 356 360 357
f 356 357 353
f 361 362 363
f 361 363 364
f 365 366 367
f 365 367 368
f 361 365 366
f 361 366 362
f 362 366 367
f 362 367 363
f 363 367 368
f 363 368 364
f 364 368 365
f 364 365 361
f 369 370 371
f 369 371 372
f 373 374 375
f 373 375 376
f 369 373 374
f 369 374 370
f 370 374 375
f 370 375 371
f 371 375 376
f 371 376 372
f 372 376 373
f 372 373 369
f 377 378 379
f 377 379 380
f 381 382 383
f 381 383 384
f 377 381 382
f 377 382 378
f 378 382 383
f 378 383 379
f 379 383 384
f 379 384 380
f 380 384 381
f 380 381 377
f 385 386 387
f 385 387 388
f 389 390 391
f 389 391 392
f 385 389 390
f 385 390 386
f 386 390 391
f 386 391 387
f 387 391 392
f 387 392 388
f 388 392 389
f 388 389 385
f 393 394 395
f 393 395 396
f 397 398 399
f 397 399 400
f 393 397 398
f 393 398 394
f 394 398 399
f 394 399 395
f 395 399 400
f 395 400 396
f 396 400 397
f 396 397 393
f 401 402 403
f 401 403 404
f 405 406 407
f 405 407 408
f 401 405 406
f 401 406 402
f 402 406 407
f 402 407 403
f 403 407 408
f 403 408 404
f 404 408 405
f 404 405 401
f 409 410 411
f 409 411 412
f 413 414 415
f 413 415 416
f 409 413 414
f 409 414 410
f 410 414 415
f 410 415 411
f 411 415 416
f 411 416 412
f 412 416 413
f 412 413 409
f 417 418 419
f 417 419 420
f 421 422 423
f 421 423 424
f 417 421 422
f 417 422 418
f 418 422 423
f 418 423 419
f 419 423 424
f 419 424 420
f 420 424 421
f 420 421 417
f 425 426 427
f 425 427 428
f 429 430 431
f 429 431 432
f 425 429 430
f 425 430 426
f 426 430 431
f 426 431 427
f 427 431 432
f 427 432 428
f 428 432 429
f 428 429 425
f 433 434 435
f 433 435 436
f 437 438 439
f 437 439 440
f 433 437 438
f 433 438 434
f 434 438 439
f 434 439 435
f 435 439 440
f 435 440 436
f 436 440 437
f 436 437 433
f 441 442 443
f 441 443 444
f 445 446 447
f 445 447 448
f 441 445 446
f 441 446 442
f 442 446 447
f 442 447 443
f 443 447 448
f 443 448 444
f 444 448 445
f 444 445 441
f 449 450 451
f 449 451 452
f 453 454 455
f 453 455 456
f 449 453 454
f 449 454 450
f 450 454 455
f 450 455 451
f 451 455 456
f 451 456 452
f 452 456 453
f 452 453 449
f 457 458 459
f 457 459 460
f 461 462 463
f 461 463 464
f 457 461 462
f 457 462 458
f 458 462 463
f 458 463 459
f 459 463 464
f 459 464 460
f 460 464 461
f 460 461 457
f 465 466 467
f 465 467 468
f 469 470 471
f 469 471 472
f 465 469 470
f 465 470 466
f 466 470 471
f 466 471 467
f 467 471 472
f 467 472 468
f 468 472 469
f 468 469 465
f 473 474 475
f 473 475 476
f 477 478 479
f 477 479 480
f 473 477 478
f 473 478 474
f 474 478 479
f 474 479 475
f 475 479 480
f 475 480 476
f 476 480 477
f 476 477 473
f 481 482 483
f 481 483 484
f 485 486 487
f 485 487 488
f 481 485 486
f 481 486 482
f 482 486 487
f 482 487 483
f 483 487 488
f 483 488 484
f 484 488 485
f 484 485 481
