# SignFlow 3D Hand Mesh - Frame 135
v 0.000000 -0.001392 0.019952
v -0.012279 -0.007984 0.013620
v -0.017365 -0.009899 -0.000690
v -0.012279 -0.006016 -0.014596
v -0.000000 0.001392 -0.019952
v 0.012279 0.007984 -0.013620
v 0.017365 0.009899 0.000690
v 0.012279 0.006016 0.014596
v 0.012692 -0.023548 0.018406
v 0.000413 -0.030140 0.012074
v -0.004673 -0.032055 -0.002236
v 0.000413 -0.028172 -0.016141
v 0.012692 -0.020765 -0.021497
v 0.024970 -0.014173 -0.015165
v 0.030056 -0.012257 -0.000855
v 0.024970 -0.016141 0.013051
v 0.012692 -0.023882 0.018380
v 0.003143 -0.033770 0.011644
v -0.000812 -0.036854 -0.002819
v 0.003143 -0.031329 -0.016535
v 0.012692 -0.020430 -0.021471
v 0.022240 -0.010542 -0.014734
v 0.026195 -0.007458 -0.000272
v 0.022240 -0.012984 0.013444
v 0.027254 -0.037162 0.017230
v 0.017706 -0.047049 0.010493
v 0.013751 -0.050134 -0.003969
v 0.017706 -0.044608 -0.017686
v 0.027254 -0.033709 -0.022621
v 0.036803 -0.023822 -0.015885
v 0.040758 -0.020737 -0.001422
v 0.036803 -0.026263 0.012294
v 0.027254 -0.039589 0.016868
v 0.016217 -0.047022 0.009302
v 0.011645 -0.047667 -0.005293
v 0.016217 -0.041148 -0.018366
v 0.027254 -0.031282 -0.022260
v 0.038291 -0.023849 -0.014693
v 0.042863 -0.023203 -0.000099
v 0.038291 -0.029723 0.012974
v 0.034804 -0.048807 0.014911
v 0.023766 -0.056240 0.007345
v 0.019195 -0.056885 -0.007250
v 0.023766 -0.050366 -0.020323
v 0.034804 -0.040500 -0.024217
v 0.045841 -0.033067 -0.016650
v 0.050412 -0.032421 -0.002056
v 0.045841 -0.038941 0.011017
v 0.034804 -0.050133 0.014582
v 0.021201 -0.052250 0.007888
v 0.015567 -0.049917 -0.006152
v 0.021201 -0.044501 -0.019314
v 0.034804 -0.039174 -0.023888
v 0.048406 -0.037057 -0.017194
v 0.054040 -0.039390 -0.003153
v 0.048406 -0.044806 0.010008
v 0.040802 -0.070410 0.008806
v 0.027200 -0.072527 0.002112
v 0.021565 -0.070194 -0.011929
v 0.027200 -0.064778 -0.025091
v 0.040802 -0.059451 -0.029664
v 0.054404 -0.057334 -0.022970
v 0.060039 -0.059667 -0.008930
v 0.054404 -0.065083 0.004232
v 0.000000 -0.013783 0.014492
v -0.009919 -0.017050 0.003301
v -0.014028 -0.010330 -0.009824
v -0.009919 0.002442 -0.017194
v -0.000000 0.013783 -0.014492
v 0.009919 0.017050 -0.003301
v 0.014028 0.010330 0.009824
v 0.009919 -0.002442 0.017194
v 0.047979 -0.047995 -0.018046
v 0.038060 -0.051262 -0.029237
v 0.033951 -0.044542 -0.042362
v 0.038060 -0.031770 -0.049732
v 0.047979 -0.020429 -0.047030
v 0.057899 -0.017162 -0.035839
v 0.062007 -0.023882 -0.022714
v 0.057899 -0.036654 -0.015344
v 0.051257 -0.034212 -0.012808
v 0.048880 -0.048281 -0.018351
v 0.045974 -0.054108 -0.032205
v 0.044244 -0.048281 -0.046253
v 0.044701 -0.034212 -0.052267
v 0.047079 -0.020143 -0.046724
v 0.049984 -0.014315 -0.032871
v 0.051715 -0.020143 -0.018823
v 0.063547 -0.035485 -0.014850
v 0.061169 -0.049553 -0.020393
v 0.058264 -0.055381 -0.034247
v 0.056534 -0.049553 -0.048295
v 0.056991 -0.035485 -0.054309
v 0.059369 -0.021416 -0.048766
v 0.062274 -0.015588 -0.034913
v 0.064005 -0.021416 -0.020864
v 0.060269 -0.018990 -0.023269
v 0.052010 -0.030313 -0.017114
v 0.048589 -0.044666 -0.021190
v 0.052010 -0.053640 -0.033109
v 0.060269 -0.051979 -0.045890
v 0.068528 -0.040656 -0.052045
v 0.071949 -0.026303 -0.047969
v 0.068528 -0.017329 -0.036050
v 0.077608 -0.026044 -0.012982
v 0.069349 -0.037367 -0.006826
v 0.065928 -0.051720 -0.010902
v 0.069349 -0.060694 -0.022821
v 0.077608 -0.059034 -0.035602
v 0.085867 -0.047710 -0.041757
v 0.089288 -0.033358 -0.037681
v 0.085867 -0.024383 -0.025762
v 0.077608 -0.024553 -0.015545
v 0.069195 -0.034792 -0.007884
v 0.065710 -0.049570 -0.009834
v 0.069195 -0.060228 -0.020254
v 0.077608 -0.060525 -0.033039
v 0.086021 -0.050285 -0.040700
v 0.089505 -0.035508 -0.038749
v 0.086021 -0.024849 -0.028330
v 0.095875 -0.030465 -0.003388
v 0.087462 -0.040705 0.004273
v 0.083977 -0.055482 0.002323
v 0.087462 -0.066141 -0.008097
v 0.095875 -0.066437 -0.020882
v 0.104287 -0.056197 -0.028543
v 0.107772 -0.041420 -0.026592
v 0.104287 -0.030761 -0.016173
v 0.000000 -0.015872 0.012168
v -0.009369 -0.017669 0.000197
v -0.013250 -0.009115 -0.011889
v -0.009369 0.004778 -0.017011
v -0.000000 0.015872 -0.012168
v 0.009369 0.017669 -0.000197
v 0.013250 0.009115 0.011889
v 0.009369 -0.004778 0.017011
v 0.048610 -0.042029 -0.021950
v 0.039241 -0.043826 -0.033921
v 0.035360 -0.035272 -0.046008
v 0.039241 -0.021379 -0.051130
v 0.048610 -0.010285 -0.046287
v 0.057979 -0.008488 -0.034316
v 0.061860 -0.017042 -0.022229
v 0.057979 -0.030935 -0.017107
v 0.052595 -0.026157 -0.014520
v 0.048056 -0.039874 -0.019575
v 0.043840 -0.045556 -0.033149
v 0.042419 -0.039874 -0.047291
v 0.044624 -0.026157 -0.053718
v 0.049164 -0.012440 -0.048663
v 0.053379 -0.006758 -0.035089
v 0.054801 -0.012440 -0.020946
v 0.071074 -0.030888 -0.018278
v 0.066534 -0.044605 -0.023332
v 0.062319 -0.050287 -0.036907
v 0.060898 -0.044605 -0.051049
v 0.063103 -0.030888 -0.057476
v 0.067643 -0.017171 -0.052421
v 0.071858 -0.011489 -0.038847
v 0.073279 -0.017171 -0.024704
v 0.067088 -0.016703 -0.023778
v 0.060139 -0.029540 -0.019172
v 0.057260 -0.043167 -0.025522
v 0.060139 -0.049601 -0.039110
v 0.067088 -0.045074 -0.051975
v 0.074038 -0.032237 -0.056582
v 0.076917 -0.018609 -0.050231
v 0.074038 -0.012175 -0.036644
v 0.090096 -0.025854 -0.014570
v 0.083146 -0.038692 -0.009964
v 0.080268 -0.052319 -0.016314
v 0.083146 -0.058753 -0.029902
v 0.090096 -0.054225 -0.042767
v 0.097046 -0.041388 -0.047374
v 0.099925 -0.027761 -0.041023
v 0.097046 -0.021327 -0.027436
v 0.090096 -0.024093 -0.016598
v 0.081768 -0.035663 -0.011020
v 0.078319 -0.049796 -0.015780
v 0.081768 -0.058214 -0.028091
v 0.090096 -0.055986 -0.040740
v 0.098424 -0.044417 -0.046318
v 0.101873 -0.030284 -0.041557
v 0.098424 -0.021865 -0.029247
v 0.112772 -0.034065 -0.003425
v 0.104444 -0.045634 0.002153
v 0.100995 -0.059767 -0.002608
v 0.104444 -0.068186 -0.014918
v 0.112772 -0.065958 -0.027567
v 0.121100 -0.054388 -0.033145
v 0.124549 -0.040255 -0.028385
v 0.121100 -0.031837 -0.016074
v 0.000000 -0.017805 0.009109
v -0.008624 -0.017695 -0.003538
v -0.012196 -0.007219 -0.014112
v -0.008624 0.007485 -0.016419
v -0.000000 0.017805 -0.009109
v 0.008624 0.017695 0.003538
v 0.012196 0.007219 0.014112
v 0.008624 -0.007485 0.016419
v 0.051768 -0.035945 -0.026350
v 0.043144 -0.035835 -0.038997
v 0.039572 -0.025359 -0.049571
v 0.043144 -0.010654 -0.051879
v 0.051768 -0.000335 -0.044568
v 0.060392 -0.000445 -0.031921
v 0.063964 -0.010921 -0.021347
v 0.060392 -0.025625 -0.019040
v 0.053883 -0.018140 -0.015571
v 0.049702 -0.031821 -0.021017
v 0.046731 -0.037488 -0.034923
v 0.046711 -0.031821 -0.049143
v 0.049653 -0.018140 -0.055347
v 0.053834 -0.004459 -0.049901
v 0.056805 0.001208 -0.035995
v 0.056825 -0.004459 -0.021775
v 0.066439 -0.021446 -0.016906
v 0.062258 -0.035127 -0.022353
v 0.059287 -0.040794 -0.036259
v 0.059267 -0.035127 -0.050478
v 0.062209 -0.021446 -0.056682
v 0.066390 -0.007765 -0.051236
v 0.069361 -0.002098 -0.037330
v 0.069381 -0.007765 -0.023110
v 0.059549 -0.021446 -0.017372
v 0.057110 -0.035024 -0.024004
v 0.058896 -0.040649 -0.038129
v 0.063862 -0.035024 -0.051471
v 0.069098 -0.021446 -0.056216
v 0.071538 -0.007867 -0.049584
v 0.069752 -0.002243 -0.035460
v 0.064786 -0.007867 -0.022117
v 0.084812 -0.029018 -0.011162
v 0.082372 -0.042596 -0.017794
v 0.084158 -0.048221 -0.031919
v 0.089124 -0.042596 -0.045261
v 0.094360 -0.029018 -0.050006
v 0.096800 -0.015439 -0.043374
v 0.095014 -0.009815 -0.029250
v 0.090048 -0.015439 -0.015907
v 0.089586 -0.012285 -0.019628
v 0.080345 -0.023050 -0.013881
v 0.076517 -0.037311 -0.017919
v 0.080345 -0.046713 -0.029375
v 0.089586 -0.045750 -0.041540
v 0.098827 -0.034985 -0.047287
v 0.102655 -0.020725 -0.043250
v 0.098827 -0.011322 -0.031793
v 0.109198 -0.021560 -0.005464
v 0.099956 -0.032325 0.000283
v 0.096128 -0.046585 -0.003755
v 0.099956 -0.055988 -0.015211
v 0.109198 -0.055024 -0.027376
v 0.118439 -0.044259 -0.033123
v 0.122267 -0.029999 -0.029086
v 0.118439 -0.020596 -0.017629
v 0.000000 -0.018651 0.007220
v -0.007711 -0.017468 -0.005951
v -0.010905 -0.006052 -0.015635
v -0.007711 0.008909 -0.016161
v -0.000000 0.018651 -0.007220
v 0.007711 0.017468 0.005951
v 0.010905 0.006052 0.015635
v 0.007711 -0.008909 0.016161
v 0.045814 -0.029409 -0.020571
v 0.038103 -0.028225 -0.033741
v 0.034909 -0.016809 -0.043425
v 0.038103 -0.001848 -0.043951
v 0.045814 0.007894 -0.035010
v 0.053525 0.006711 -0.021840
v 0.056719 -0.004705 -0.012155
v 0.053525 -0.019666 -0.011630
v 0.049041 -0.010757 -0.008052
v 0.052305 -0.024241 -0.014521
v 0.051768 -0.029826 -0.028763
v 0.047743 -0.024241 -0.042435
v 0.042588 -0.010757 -0.047528
v 0.039323 0.002726 -0.041059
v 0.039861 0.008311 -0.026817
v 0.043886 0.002726 -0.013145
v 0.062441 -0.006462 -0.010242
v 0.065705 -0.019945 -0.016712
v 0.065168 -0.025530 -0.030954
v 0.061143 -0.019945 -0.044626
v 0.055988 -0.006462 -0.049719
v 0.052723 0.007022 -0.043249
v 0.053261 0.012607 -0.029007
v 0.057286 0.007022 -0.015335
v 0.055915 -0.006462 -0.010255
v 0.056941 -0.020604 -0.016022
v 0.059298 -0.026461 -0.029966
v 0.061607 -0.020604 -0.043919
v 0.062514 -0.006462 -0.049707
v 0.061488 0.007680 -0.043939
v 0.059130 0.013538 -0.029995
v 0.056822 0.007680 -0.016042
v 0.075672 -0.006376 -0.006950
v 0.076698 -0.020518 -0.012718
v 0.079055 -0.026376 -0.026662
v 0.081363 -0.020518 -0.040615
v 0.082270 -0.006376 -0.046402
v 0.081245 0.007766 -0.040634
v 0.078887 0.013624 -0.026690
v 0.076579 0.007766 -0.012738
v 0.078971 0.010715 -0.016289
v 0.071972 -0.000674 -0.008830
v 0.069073 -0.015402 -0.011825
v 0.071972 -0.024844 -0.023520
v 0.078971 -0.023467 -0.037064
v 0.085970 -0.012079 -0.044523
v 0.088869 0.002650 -0.041527
v 0.085970 0.012091 -0.029832
v 0.093585 0.006392 -0.009176
v 0.086586 -0.004996 -0.001717
v 0.083687 -0.019725 -0.004712
v 0.086586 -0.029167 -0.016407
v 0.093585 -0.027790 -0.029951
v 0.100584 -0.016402 -0.037410
v 0.103483 -0.001673 -0.034415
v 0.100584 0.007769 -0.022720
v -0.015000 -0.015000 -0.015000
v 0.015000 -0.015000 -0.015000
v 0.015000 0.015000 -0.015000
v -0.015000 0.015000 -0.015000
v -0.015000 -0.015000 0.015000
v 0.015000 -0.015000 0.015000
v 0.015000 0.015000 0.015000
v -0.015000 0.015000 0.015000
v -0.002308 -0.037156 -0.016545
v 0.027692 -0.037156 -0.016545
v 0.027692 -0.007156 -0.016545
v -0.002308 -0.007156 -0.016545
v -0.002308 -0.037156 0.013455
v 0.027692 -0.037156 0.013455
v 0.027692 -0.007156 0.013455
v -0.002308 -0.007156 0.013455
v 0.012254 -0.050435 -0.017696
v 0.042254 -0.050435 -0.017696
v 0.042254 -0.020435 -0.017696
v 0.012254 -0.020435 -0.017696
v 0.012254 -0.050435 0.012304
v 0.042254 -0.050435 0.012304
v 0.042254 -0.020435 0.012304
v 0.012254 -0.020435 0.012304
v 0.019804 -0.059653 -0.019653
v 0.049804 -0.059653 -0.019653
v 0.049804 -0.029653 -0.019653
v 0.019804 -0.029653 -0.019653
v 0.019804 -0.059653 0.010347
v 0.049804 -0.059653 0.010347
v 0.049804 -0.029653 0.010347
v 0.019804 -0.029653 0.010347
v 0.025802 -0.079930 -0.025429
v 0.055802 -0.079930 -0.025429
v 0.055802 -0.049930 -0.025429
v 0.025802 -0.049930 -0.025429
v 0.025802 -0.079930 0.004571
v 0.055802 -0.079930 0.004571
v 0.055802 -0.049930 0.004571
v 0.025802 -0.049930 0.004571
v 0.032979 -0.049212 -0.047538
v 0.062979 -0.049212 -0.047538
v 0.062979 -0.019212 -0.047538
v 0.032979 -0.019212 -0.047538
v 0.032979 -0.049212 -0.017538
v 0.062979 -0.049212 -0.017538
v 0.062979 -0.019212 -0.017538
v 0.032979 -0.019212 -0.017538
v 0.045269 -0.050485 -0.049580
v 0.075269 -0.050485 -0.049580
v 0.075269 -0.020485 -0.049580
v 0.045269 -0.020485 -0.049580
v 0.045269 -0.050485 -0.019580
v 0.075269 -0.050485 -0.019580
v 0.075269 -0.020485 -0.019580
v 0.045269 -0.020485 -0.019580
v 0.062608 -0.057539 -0.039292
v 0.092608 -0.057539 -0.039292
v 0.092608 -0.027539 -0.039292
v 0.062608 -0.027539 -0.039292
v 0.062608 -0.057539 -0.009292
v 0.092608 -0.057539 -0.009292
v 0.092608 -0.027539 -0.009292
v 0.062608 -0.027539 -0.009292
v 0.080875 -0.063451 -0.027135
v 0.110875 -0.063451 -0.027135
v 0.110875 -0.033451 -0.027135
v 0.080875 -0.033451 -0.027135
v 0.080875 -0.063451 0.002865
v 0.110875 -0.063451 0.002865
v 0.110875 -0.033451 0.002865
v 0.080875 -0.033451 0.002865
v 0.033610 -0.041157 -0.049119
v 0.063610 -0.041157 -0.049119
v 0.063610 -0.011157 -0.049119
v 0.033610 -0.011157 -0.049119
v 0.033610 -0.041157 -0.019119
v 0.063610 -0.041157 -0.019119
v 0.063610 -0.011157 -0.019119
v 0.033610 -0.011157 -0.019119
v 0.052088 -0.045888 -0.052877
v 0.082088 -0.045888 -0.052877
v 0.082088 -0.015888 -0.052877
v 0.052088 -0.015888 -0.052877
v 0.052088 -0.045888 -0.022877
v 0.082088 -0.045888 -0.022877
v 0.082088 -0.015888 -0.022877
v 0.052088 -0.015888 -0.022877
v 0.075096 -0.055040 -0.043669
v 0.105096 -0.055040 -0.043669
v 0.105096 -0.025040 -0.043669
v 0.075096 -0.025040 -0.043669
v 0.075096 -0.055040 -0.013669
v 0.105096 -0.055040 -0.013669
v 0.105096 -0.025040 -0.013669
v 0.075096 -0.025040 -0.013669
v 0.097772 -0.065011 -0.030496
v 0.127772 -0.065011 -0.030496
v 0.127772 -0.035011 -0.030496
v 0.097772 -0.035011 -0.030496
v 0.097772 -0.065011 -0.000496
v 0.127772 -0.065011 -0.000496
v 0.127772 -0.035011 -0.000496
v 0.097772 -0.035011 -0.000496
v 0.036768 -0.033140 -0.050459
v 0.066768 -0.033140 -0.050459
v 0.066768 -0.003140 -0.050459
v 0.036768 -0.003140 -0.050459
v 0.036768 -0.033140 -0.020459
v 0.066768 -0.033140 -0.020459
v 0.066768 -0.003140 -0.020459
v 0.036768 -0.003140 -0.020459
v 0.049324 -0.036446 -0.051794
v 0.079324 -0.036446 -0.051794
v 0.079324 -0.006446 -0.051794
v 0.049324 -0.006446 -0.051794
v 0.049324 -0.036446 -0.021794
v 0.079324 -0.036446 -0.021794
v 0.079324 -0.006446 -0.021794
v 0.049324 -0.006446 -0.021794
v 0.074586 -0.044018 -0.045584
v 0.104586 -0.044018 -0.045584
v 0.104586 -0.014018 -0.045584
v 0.074586 -0.014018 -0.045584
v 0.074586 -0.044018 -0.015584
v 0.104586 -0.044018 -0.015584
v 0.104586 -0.014018 -0.015584
v 0.074586 -0.014018 -0.015584
v 0.094198 -0.053292 -0.031420
v 0.124198 -0.053292 -0.031420
v 0.124198 -0.023292 -0.031420
v 0.094198 -0.023292 -0.031420
v 0.094198 -0.053292 -0.001420
v 0.124198 -0.053292 -0.001420
v 0.124198 -0.023292 -0.001420
v 0.094198 -0.023292 -0.001420
v 0.030814 -0.025757 -0.042790
v 0.060814 -0.025757 -0.042790
v 0.060814 0.004243 -0.042790
v 0.030814 0.004243 -0.042790
v 0.030814 -0.025757 -0.012790
v 0.060814 -0.025757 -0.012790
v 0.060814 0.004243 -0.012790
v 0.030814 0.004243 -0.012790
v 0.044214 -0.021462 -0.044981
v 0.074214 -0.021462 -0.044981
v 0.074214 0.008538 -0.044981
v 0.044214 0.008538 -0.044981
v 0.044214 -0.021462 -0.014981
v 0.074214 -0.021462 -0.014981
v 0.074214 0.008538 -0.014981
v 0.044214 0.008538 -0.014981
v 0.063971 -0.021376 -0.041676
v 0.093971 -0.021376 -0.041676
v 0.093971 0.008624 -0.041676
v 0.063971 0.008624 -0.041676
v 0.063971 -0.021376 -0.011676
v 0.093971 -0.021376 -0.011676
v 0.093971 0.008624 -0.011676
v 0.063971 0.008624 -0.011676
v 0.078585 -0.025699 -0.034564
v 0.108585 -0.025699 -0.034564
v 0.108585 0.004301 -0.034564
v 0.078585 0.004301 -0.034564
v 0.078585 -0.025699 -0.004564
v 0.108585 -0.025699 -0.004564
v 0.108585 0.004301 -0.004564
v 0.078585 0.004301 -0.004564
f 1 2 9
f 2 10 9
f 2 3 10
f 3 11 10
f 3 4 11
f 4 12 11
f 4 5 12
f 5 13 12
f 5 6 13
f 6 14 13
f 6 7 14
f 7 15 14
f 7 8 15
f 8 16 15
f 8 1 16
f 1 9 16
f 17 18 25
f 18 26 25
f 18 19 26
f 19 27 26
f 19 20 27
f 20 28 27
f 20 21 28
f 21 29 28
f 21 22 29
f 22 30 29
f 22 23 30
f 23 31 30
f 23 24 31
f 24 32 31
f 24 17 32
f 17 25 32
f 33 34 41
f 34 42 41
f 34 35 42
f 35 43 42
f 35 36 43
f 36 44 43
f 36 37 44
f 37 45 44
f 37 38 45
f 38 46 45
f 38 39 46
f 39 47 46
f 39 40 47
f 40 48 47
f 40 33 48
f 33 41 48
f 49 50 57
f 50 58 57
f 50 51 58
f 51 59 58
f 51 52 59
f 52 60 59
f 52 53 60
f 53 61 60
f 53 54 61
f 54 62 61
f 54 55 62
f 55 63 62
f 55 56 63
f 56 64 63
f 56 49 64
f 49 57 64
f 65 66 73
f 66 74 73
f 66 67 74
f 67 75 74
f 67 68 75
f 68 76 75
f 68 69 76
f 69 77 76
f 69 70 77
f 70 78 77
f 70 71 78
f 71 79 78
f 71 72 79
f 72 80 79
f 72 65 80
f 65 73 80
f 81 82 89
f 82 90 89
f 82 83 90
f 83 91 90
f 83 84 91
f 84 92 91
f 84 85 92
f 85 93 92
f 85 86 93
f 86 94 93
f 86 87 94
f 87 95 94
f 87 88 95
f 88 96 95
f 88 81 96
f 81 89 96
f 97 98 105
f 98 106 105
f 98 99 106
f 99 107 106
f 99 100 107
f 100 108 107
f 100 101 108
f 101 109 108
f 101 102 109
f 102 110 109
f 102 103 110
f 103 111 110
f 103 104 111
f 104 112 111
f 104 97 112
f 97 105 112
f 113 114 121
f 114 122 121
f 114 115 122
f 115 123 122
f 115 116 123
f 116 124 123
f 116 117 124
f 117 125 124
f 117 118 125
f 118 126 125
f 118 119 126
f 119 127 126
f 119 120 127
f 120 128 127
f 120 113 128
f 113 121 128
f 129 130 137
f 130 138 137
f 130 131 138
f 131 139 138
f 131 132 139
f 132 140 139
f 132 133 140
f 133 141 140
f 133 134 141
f 134 142 141
f 134 135 142
f 135 143 142
f 135 136 143
f 136 144 143
f 136 129 144
f 129 137 144
f 145 146 153
f 146 154 153
f 146 147 154
f 147 155 154
f 147 148 155
f 148 156 155
f 148 149 156
f 149 157 156
f 149 150 157
f 150 158 157
f 150 151 158
f 151 159 158
f 151 152 159
f 152 160 159
f 152 145 160
f 145 153 160
f 161 162 169
f 162 170 169
f 162 163 170
f 163 171 170
f 163 164 171
f 164 172 171
f 164 165 172
f 165 173 172
f 165 166 173
f 166 174 173
f 166 167 174
f 167 175 174
f 167 168 175
f 168 176 175
f 168 161 176
f 161 169 176
f 177 178 185
f 178 186 185
f 178 179 186
f 179 187 186
f 179 180 187
f 180 188 187
f 180 181 188
f 181 189 188
f 181 182 189
f 182 190 189
f 182 183 190
f 183 191 190
f 183 184 191
f 184 192 191
f 184 177 192
f 177 185 192
f 193 194 201
f 194 202 201
f 194 195 202
f 195 203 202
f 195 196 203
f 196 204 203
f 196 197 204
f 197 205 204
f 197 198 205
f 198 206 205
f 198 199 206
f 199 207 206
f 199 200 207
f 200 208 207
f 200 193 208
f 193 201 208
f 209 210 217
f 210 218 217
f 210 211 218
f 211 219 218
f 211 212 219
f 212 220 219
f 212 213 220
f 213 221 220
f 213 214 221
f 214 222 221
f 214 215 222
f 215 223 222
f 215 216 223
f 216 224 223
f 216 209 224
f 209 217 224
f 225 226 233
f 226 234 233
f 226 227 234
f 227 235 234
f 227 228 235
f 228 236 235
f 228 229 236
f 229 237 236
f 229 230 237
f 230 238 237
f 230 231 238
f 231 239 238
f 231 232 239
f 232 240 239
f 232 225 240
f 225 233 240
f 241 242 249
f 242 250 249
f 242 243 250
f 243 251 250
f 243 244 251
f 244 252 251
f 244 245 252
f 245 253 252
f 245 246 253
f 246 254 253
f 246 247 254
f 247 255 254
f 247 248 255
f 248 256 255
f 248 241 256
f 241 249 256
f 257 258 265
f 258 266 265
f 258 259 266
f 259 267 266
f 259 260 267
f 260 268 267
f 260 261 268
f 261 269 268
f 261 262 269
f 262 270 269
f 262 263 270
f 263 271 270
f 263 264 271
f 264 272 271
f 264 257 272
f 257 265 272
f 273 274 281
f 274 282 281
f 274 275 282
f 275 283 282
f 275 276 283
f 276 284 283
f 276 277 284
f 277 285 284
f 277 278 285
f 278 286 285
f 278 279 286
f 279 287 286
f 279 280 287
f 280 288 287
f 280 273 288
f 273 281 288
f 289 290 297
f 290 298 297
f 290 291 298
f 291 299 298
f 291 292 299
f 292 300 299
f 292 293 300
f 293 301 300
f 293 294 301
f 294 302 301
f 294 295 302
f 295 303 302
f 295 296 303
f 296 304 303
f 296 289 304
f 289 297 304
f 305 306 313
f 306 314 313
f 306 307 314
f 307 315 314
f 307 308 315
f 308 316 315
f 308 309 316
f 309 317 316
f 309 310 317
f 310 318 317
f 310 311 318
f 311 319 318
f 311 312 319
f 312 320 319
f 312 305 320
f 305 313 320
f 321 322 323
f 321 323 324
f 325 326 327
f 325 327 328
f 321 325 326
f 321 326 322
f 322 326 327
f 322 327 323
f 323 327 328
f 323 328 324
f 324 328 325
f 324 325 321
f 329 330 331
f 329 331 332
f 333 334 335
f 333 335 336
f 329 333 334
f 329 334 330
f 330 334 335
f 330 335 331
f 331 335 336
f 331 336 332
f 332 336 333
f 332 333 329
f 337 338 339
f 337 339 340
f 341 342 343
f 341 343 344
f 337 341 342
f 337 342 338
f 338 342 343
f 338 343 339
f 339 343 344
f 339 344 340
f 340 344 341
f 340 341 337
f 345 346 347
f 345 347 348
f 349 350 351
f 349 351 352
f 345 349 350
f 345 350 346
f 346 350 351
f 346 351 347
f 347 351 352
f 347 352 348
f 348 352 349
f 348 349 345
f 353 354 355
f 353 355 356
f 357 358 359
f 357 359 360
f 353 357 358
f 353 358 354
f 354 358 359
f 354 359 355
f 355 359 360
f 355 360 356
f 356 360 357
f 356 357 353
f 361 362 363
f 361 363 364
f 365 366 367
f 365 367 368
f 361 365 366
f 361 366 362
f 362 366 367
f 362 367 363
f 363 367 368
f 363 368 364
f 364 368 365
f 364 365 361
f 369 370 371
f 369 371 372
f 373 374 375
f 373 375 376
f 369 373 374
f 369 374 370
f 370 374 375
f 370 375 371
f 371 375 376
f 371 376 372
f 372 376 373
f 372 373 369
f 377 378 379
f 377 379 380
f 381 382 383
f 381 383 384
f 377 381 382
f 377 382 378
f 378 382 383
f 378 383 379
f 379 383 384
f 379 384 380
f 380 384 381
f 380 381 377
f 385 386 387
f 385 387 388
f 389 390 391
f 389 391 392
f 385 389 390
f 385 390 386
f 386 390 391
f 386 391 387
f 387 391 392
f 387 392 388
f 388 392 389
f 388 389 385
f 393 394 395
f 393 395 396
f 397 398 399
f 397 399 400
f 393 397 398
f 393 398 394
f 394 398 399
f 394 399 395
f 395 399 400
f 395 400 396
f 396 400 397
f 396 397 393
f 401 402 403
f 401 403 404
f 405 406 407
f 405 407 408
f 401 405 406
f 401 406 402
f 402 406 407
f 402 407 403
f 403 407 408
f 403 408 404
f 404 408 405
f 404 405 401
f 409 410 411
f 409 411 412
f 413 414 415
f 413 415 416
f 409 413 414
f 409 414 410
f 410 414 415
f 410 415 411
f 411 415 416
f 411 416 412
f 412 416 413
f 412 413 409
f 417 418 419
f 417 419 420
f 421 422 423
f 421 423 424
f 417 421 422
f 417 422 418
f 418 422 423
f 418 423 419
f 419 423 424
f 419 424 420
f 420 424 421
f 420 421 417
f 425 426 427
f 425 427 428
f 429 430 431
f 429 431 432
f 425 429 430
f 425 430 426
f 426 430 431
f 426 431 427
f 427 431 432
f 427 432 428
f 428 432 429
f 428 429 425
f 433 434 435
f 433 435 436
f 437 438 439
f 437 439 440
f 433 437 438
f 433 438 434
f 434 438 439
f 434 439 435
f 435 439 440
f 435 440 436
f 436 440 437
f 436 437 433
f 441 442 443
f 441 443 444
f 445 446 447
f 445 447 448
f 441 445 446
f 441 446 442
f 442 446 447
f 442 447 443
f 443 447 448
f 443 448 444
f 444 448 445
f 444 445 441
f 449 450 451
f 449 451 452
f 453 454 455
f 453 455 456
f 449 453 454
f 449 454 450
f 450 454 455
f 450 455 451
f 451 455 456
f 451 456 452
f 452 456 453
f 452 453 449
f 457 458 459
f 457 459 460
f 461 462 463
f 461 463 464
f 457 461 462
f 457 462 458
f 458 462 463
f 458 463 459
f 459 463 464
f 459 464 460
f 460 464 461
f 460 461 457
f 465 466 467
f 465 467 468
f 469 470 471
f 469 471 472
f 465 469 470
f 465 470 466
f 466 470 471
f 466 471 467
f 467 471 472
f 467 472 468
f 468 472 469
f 468 469 465
f 473 474 475
f 473 475 476
f 477 478 479
f 477 479 480
f 473 477 478
f 473 478 474
f 474 478 479
f 474 479 475
f 475 479 480
f 475 480 476
f 476 480 477
f 476 477 473
f 481 482 483
f 481 483 484
f 485 486 487
f 485 487 488
f 481 485 486
f 481 486 482
f 482 486 487
f 482 487 483
f 483 487 488
f 483 488 484
f 484 488 485
f 484 485 481
