# SignFlow 3D Hand Mesh - Frame 263
v 0.000000 -0.002094 0.019890
v -0.008342 -0.012838 0.012869
v -0.011797 -0.016061 -0.001691
v -0.008342 -0.009876 -0.015260
v -0.000000 0.002094 -0.019890
v 0.008342 0.012838 -0.012869
v 0.011797 0.016061 0.001691
v 0.008342 0.009876 0.015260
v 0.031299 -0.024831 0.017496
v 0.022957 -0.035575 0.010475
v 0.019502 -0.038799 -0.004085
v 0.022957 -0.032613 -0.017654
v 0.031299 -0.020643 -0.022284
v 0.039641 -0.009899 -0.015263
v 0.043096 -0.006676 -0.000703
v 0.039641 -0.012861 0.012866
v 0.031299 -0.033739 0.014308
v 0.022424 -0.039712 0.003359
v 0.018748 -0.035741 -0.010960
v 0.022424 -0.024153 -0.020261
v 0.031299 -0.011735 -0.019096
v 0.040174 -0.005762 -0.008147
v 0.043850 -0.009733 0.006172
v 0.040174 -0.021322 0.015473
v 0.056750 -0.050870 0.003023
v 0.047875 -0.056843 -0.007926
v 0.044199 -0.052872 -0.022245
v 0.047875 -0.041284 -0.031546
v 0.056750 -0.028866 -0.030381
v 0.065625 -0.022893 -0.019432
v 0.069301 -0.026864 -0.005113
v 0.065625 -0.038453 0.004188
v 0.056750 -0.058928 -0.007618
v 0.045415 -0.055908 -0.017452
v 0.040720 -0.043492 -0.025076
v 0.045415 -0.028954 -0.026023
v 0.056750 -0.020809 -0.019739
v 0.068085 -0.023828 -0.009905
v 0.072780 -0.036244 -0.002281
v 0.068085 -0.050783 -0.001334
v 0.076890 -0.067108 -0.033344
v 0.065555 -0.064089 -0.043178
v 0.060860 -0.051673 -0.050802
v 0.065555 -0.037134 -0.051749
v 0.076890 -0.028989 -0.045465
v 0.088226 -0.032009 -0.035631
v 0.092921 -0.044424 -0.028007
v 0.088226 -0.058963 -0.027060
v 0.076890 -0.065106 -0.028961
v 0.064364 -0.063537 -0.037618
v 0.059175 -0.052895 -0.047321
v 0.064364 -0.039415 -0.052386
v 0.076890 -0.030992 -0.049848
v 0.089417 -0.032560 -0.041191
v 0.094606 -0.043202 -0.031488
v 0.089417 -0.056683 -0.026423
v 0.091310 -0.079476 -0.052433
v 0.078783 -0.077907 -0.061089
v 0.073594 -0.067266 -0.070792
v 0.078783 -0.053785 -0.075858
v 0.091310 -0.045362 -0.073319
v 0.103837 -0.046931 -0.064663
v 0.109025 -0.057572 -0.054960
v 0.103837 -0.071053 -0.049894
v 0.000000 -0.008291 0.018200
v -0.012559 -0.011779 0.010175
v -0.017762 -0.008366 -0.003811
v -0.012559 -0.000053 -0.015565
v -0.000000 0.008291 -0.018200
v 0.012559 0.011779 -0.010175
v 0.017762 0.008366 0.003811
v 0.012559 0.000053 0.015565
v 0.045935 -0.089052 -0.018589
v 0.033376 -0.092539 -0.026615
v 0.028173 -0.089127 -0.040601
v 0.033376 -0.080814 -0.052354
v 0.045935 -0.072469 -0.054990
v 0.058495 -0.068982 -0.046964
v 0.063697 -0.072394 -0.032978
v 0.058495 -0.080707 -0.021225
v 0.045935 -0.100177 -0.031995
v 0.034375 -0.096443 -0.041309
v 0.029587 -0.083523 -0.047975
v 0.034375 -0.068984 -0.048089
v 0.045935 -0.061344 -0.041584
v 0.057495 -0.065078 -0.032271
v 0.062283 -0.077998 -0.025604
v 0.057495 -0.092537 -0.025490
v 0.062284 -0.105739 -0.054516
v 0.050725 -0.102005 -0.063830
v 0.045936 -0.089084 -0.070497
v 0.050725 -0.074545 -0.070611
v 0.062284 -0.066905 -0.064106
v 0.073844 -0.070639 -0.054792
v 0.078632 -0.083560 -0.048126
v 0.073844 -0.098098 -0.048011
v 0.062284 -0.104511 -0.050994
v 0.050781 -0.102604 -0.060912
v 0.046016 -0.091160 -0.069892
v 0.050781 -0.076881 -0.072673
v 0.062284 -0.068133 -0.067628
v 0.073787 -0.070040 -0.057710
v 0.078552 -0.081484 -0.048730
v 0.073787 -0.095762 -0.045949
v 0.074248 -0.111467 -0.066209
v 0.062745 -0.109561 -0.076126
v 0.057980 -0.098116 -0.085106
v 0.062745 -0.083838 -0.087888
v 0.074248 -0.075090 -0.082842
v 0.085752 -0.076996 -0.072925
v 0.090516 -0.088441 -0.063945
v 0.085752 -0.102719 -0.061163
v 0.074248 -0.112839 -0.070354
v 0.060660 -0.107927 -0.075409
v 0.055032 -0.094434 -0.079946
v 0.060660 -0.080265 -0.081308
v 0.074248 -0.073718 -0.078697
v 0.087837 -0.078630 -0.073642
v 0.093465 -0.092122 -0.069105
v 0.087837 -0.106292 -0.067743
v 0.083407 -0.119462 -0.101411
v 0.069819 -0.114550 -0.106466
v 0.064191 -0.101058 -0.111003
v 0.069819 -0.086888 -0.112365
v 0.083407 -0.080342 -0.109754
v 0.096996 -0.085253 -0.104699
v 0.102624 -0.098746 -0.100162
v 0.096996 -0.112915 -0.098800
v 0.000000 -0.011625 0.016274
v -0.013216 -0.012317 0.008581
v -0.018690 -0.005794 -0.004138
v -0.013216 0.004123 -0.014434
v -0.000000 0.011625 -0.016274
v 0.013216 0.012317 -0.008581
v 0.018690 0.005794 0.004138
v 0.013216 -0.004123 0.014434
v 0.034207 -0.084693 -0.035918
v 0.020992 -0.085384 -0.043611
v 0.015518 -0.078861 -0.056331
v 0.020992 -0.068944 -0.066627
v 0.034207 -0.061443 -0.068467
v 0.047423 -0.060751 -0.060774
v 0.052897 -0.067274 -0.048054
v 0.047423 -0.077191 -0.037759
v 0.040374 -0.073068 -0.033167
v 0.039866 -0.087144 -0.039161
v 0.036044 -0.092974 -0.052788
v 0.031145 -0.087144 -0.066067
v 0.028041 -0.073068 -0.071218
v 0.028548 -0.058991 -0.065225
v 0.032371 -0.053161 -0.051598
v 0.037270 -0.058991 -0.038319
v 0.074930 -0.069545 -0.044368
v 0.074422 -0.083622 -0.050361
v 0.070599 -0.089452 -0.063989
v 0.065700 -0.083622 -0.077267
v 0.062596 -0.069545 -0.082419
v 0.063104 -0.055469 -0.076426
v 0.066927 -0.049639 -0.062798
v 0.071825 -0.055469 -0.049520
v 0.068763 -0.068193 -0.083348
v 0.059570 -0.057867 -0.076777
v 0.055762 -0.054382 -0.062366
v 0.059570 -0.059779 -0.048557
v 0.068763 -0.070897 -0.043439
v 0.077956 -0.081223 -0.050010
v 0.081764 -0.084709 -0.064421
v 0.077956 -0.079311 -0.078230
v 0.086795 -0.052803 -0.082305
v 0.077602 -0.042477 -0.075734
v 0.073795 -0.038992 -0.061323
v 0.077602 -0.044389 -0.047514
v 0.086795 -0.055507 -0.042396
v 0.095988 -0.065833 -0.048967
v 0.099796 -0.069318 -0.063378
v 0.095988 -0.063921 -0.077187
v 0.086795 -0.045891 -0.080563
v 0.074670 -0.041683 -0.072221
v 0.069648 -0.044781 -0.058097
v 0.074670 -0.053370 -0.046465
v 0.086795 -0.062419 -0.044138
v 0.098920 -0.066627 -0.052480
v 0.103943 -0.063529 -0.066604
v 0.098920 -0.054940 -0.078237
v 0.099855 -0.026081 -0.071575
v 0.087730 -0.021873 -0.063233
v 0.082707 -0.024971 -0.049108
v 0.087730 -0.033561 -0.037476
v 0.099855 -0.042610 -0.035149
v 0.111980 -0.046818 -0.043491
v 0.117002 -0.043720 -0.057615
v 0.111980 -0.035130 -0.069248
v 0.000000 -0.015052 0.013170
v -0.013465 -0.013491 0.006058
v -0.019042 -0.004028 -0.004603
v -0.013465 0.007795 -0.012567
v -0.000000 0.015052 -0.013170
v 0.013465 0.013491 -0.006058
v 0.019042 0.004028 0.004603
v 0.013465 -0.007795 0.012567
v 0.028797 -0.074088 -0.054302
v 0.015332 -0.072527 -0.061414
v 0.009755 -0.063064 -0.072075
v 0.015332 -0.051241 -0.080039
v 0.028797 -0.043985 -0.080642
v 0.042262 -0.045545 -0.073529
v 0.047839 -0.055009 -0.062869
v 0.042262 -0.066831 -0.054904
v 0.033224 -0.059036 -0.047968
v 0.035150 -0.072787 -0.054412
v 0.033355 -0.078483 -0.068506
v 0.028889 -0.072787 -0.081995
v 0.024370 -0.059036 -0.086976
v 0.022444 -0.045286 -0.080531
v 0.024239 -0.039590 -0.066437
v 0.028705 -0.045286 -0.052949
v 0.058950 -0.052696 -0.053807
v 0.060876 -0.066447 -0.060251
v 0.059080 -0.072143 -0.074346
v 0.054615 -0.066447 -0.087834
v 0.050095 -0.052696 -0.092815
v 0.048169 -0.038946 -0.086371
v 0.049965 -0.033250 -0.072277
v 0.054430 -0.038946 -0.058788
v 0.054523 -0.043316 -0.090975
v 0.041613 -0.040963 -0.083093
v 0.036266 -0.045482 -0.069481
v 0.041613 -0.054228 -0.058112
v 0.054523 -0.062076 -0.055647
v 0.067432 -0.064430 -0.063530
v 0.072779 -0.059910 -0.077142
v 0.067432 -0.051165 -0.088510
v 0.065146 -0.022345 -0.079839
v 0.052237 -0.019991 -0.071957
v 0.046890 -0.024511 -0.058344
v 0.052237 -0.033256 -0.046976
v 0.065146 -0.041104 -0.044511
v 0.078055 -0.043458 -0.052393
v 0.083402 -0.038938 -0.066005
v 0.078055 -0.030193 -0.077374
v 0.065146 -0.015979 -0.074507
v 0.051008 -0.020372 -0.070615
v 0.045152 -0.031414 -0.061779
v 0.051008 -0.042639 -0.053174
v 0.065146 -0.047469 -0.049842
v 0.079284 -0.043077 -0.053734
v 0.085140 -0.032034 -0.062571
v 0.079284 -0.020810 -0.071175
v 0.065779 -0.000463 -0.054698
v 0.051641 -0.004856 -0.050806
v 0.045785 -0.015898 -0.041970
v 0.051641 -0.027123 -0.033365
v 0.065779 -0.031954 -0.030033
v 0.079917 -0.027561 -0.033925
v 0.085773 -0.016519 -0.042762
v 0.079917 -0.005294 -0.051366
v 0.000000 -0.017431 0.009807
v -0.013855 -0.013715 0.004465
v -0.019595 -0.001965 -0.003492
v -0.013855 0.010936 -0.009404
v -0.000000 0.017431 -0.009807
v 0.013855 0.013715 -0.004465
v 0.019595 0.001965 0.003492
v 0.013855 -0.010936 0.009404
v 0.017659 -0.059776 -0.065460
v 0.003804 -0.056059 -0.070801
v -0.001935 -0.044310 -0.078758
v 0.003804 -0.031409 -0.084670
v 0.017659 -0.024914 -0.085073
v 0.031515 -0.028630 -0.079731
v 0.037254 -0.040380 -0.071774
v 0.031515 -0.053281 -0.065863
v 0.018935 -0.042345 -0.055307
v 0.020974 -0.056279 -0.061307
v 0.021071 -0.062051 -0.075484
v 0.019169 -0.056279 -0.089534
v 0.016383 -0.042345 -0.095225
v 0.014345 -0.028411 -0.089225
v 0.014248 -0.022639 -0.075048
v 0.016149 -0.028411 -0.060999
v 0.041480 -0.038426 -0.056748
v 0.043519 -0.052360 -0.062748
v 0.043616 -0.058132 -0.076926
v 0.041714 -0.052360 -0.090975
v 0.038928 -0.038426 -0.096667
v 0.036889 -0.024492 -0.090667
v 0.036793 -0.018720 -0.076489
v 0.038694 -0.024492 -0.062440
v 0.040204 -0.025709 -0.092144
v 0.030783 -0.021293 -0.080916
v 0.026880 -0.026914 -0.067223
v 0.030783 -0.039278 -0.059086
v 0.040204 -0.051143 -0.061271
v 0.049625 -0.055558 -0.072499
v 0.053528 -0.049938 -0.086192
v 0.049625 -0.037574 -0.094329
v 0.055971 -0.014839 -0.083189
v 0.046550 -0.010423 -0.071961
v 0.042647 -0.016043 -0.058268
v 0.046550 -0.028407 -0.050131
v 0.055971 -0.040272 -0.052316
v 0.065392 -0.044688 -0.063543
v 0.069295 -0.039068 -0.077236
v 0.065392 -0.026704 -0.085374
v 0.055971 -0.014204 -0.082643
v 0.042096 -0.016079 -0.076457
v 0.036348 -0.024678 -0.065172
v 0.042096 -0.034962 -0.055398
v 0.055971 -0.040907 -0.052861
v 0.069847 -0.039032 -0.059048
v 0.075594 -0.030434 -0.070333
v 0.069847 -0.020150 -0.080106
v 0.059601 -0.000483 -0.070340
v 0.045726 -0.002358 -0.064154
v 0.039978 -0.010956 -0.052869
v 0.045726 -0.021240 -0.043095
v 0.059601 -0.027186 -0.040558
v 0.073477 -0.025310 -0.046745
v 0.079224 -0.016712 -0.058030
v 0.073477 -0.006428 -0.067803
v -0.015000 -0.015000 -0.015000
v 0.015000 -0.015000 -0.015000
v 0.015000 0.015000 -0.015000
v -0.015000 0.015000 -0.015000
v -0.015000 -0.015000 0.015000
v 0.015000 -0.015000 0.015000
v 0.015000 0.015000 0.015000
v -0.015000 0.015000 0.015000
v 0.016299 -0.037737 -0.017394
v 0.046299 -0.037737 -0.017394
v 0.046299 -0.007737 -0.017394
v 0.016299 -0.007737 -0.017394
v 0.016299 -0.037737 0.012606
v 0.046299 -0.037737 0.012606
v 0.046299 -0.007737 0.012606
v 0.016299 -0.007737 0.012606
v 0.041750 -0.054868 -0.028679
v 0.071750 -0.054868 -0.028679
v 0.071750 -0.024868 -0.028679
v 0.041750 -0.024868 -0.028679
v 0.041750 -0.054868 0.001321
v 0.071750 -0.054868 0.001321
v 0.071750 -0.024868 0.001321
v 0.041750 -0.024868 0.001321
v 0.061890 -0.063049 -0.054404
v 0.091890 -0.063049 -0.054404
v 0.091890 -0.033049 -0.054404
v 0.061890 -0.033049 -0.054404
v 0.061890 -0.063049 -0.024404
v 0.091890 -0.063049 -0.024404
v 0.091890 -0.033049 -0.024404
v 0.061890 -0.033049 -0.024404
v 0.076310 -0.077419 -0.077876
v 0.106310 -0.077419 -0.077876
v 0.106310 -0.047419 -0.077876
v 0.076310 -0.047419 -0.077876
v 0.076310 -0.077419 -0.047876
v 0.106310 -0.077419 -0.047876
v 0.106310 -0.047419 -0.047876
v 0.076310 -0.047419 -0.047876
v 0.030935 -0.095760 -0.051790
v 0.060935 -0.095760 -0.051790
v 0.060935 -0.065760 -0.051790
v 0.030935 -0.065760 -0.051790
v 0.030935 -0.095760 -0.021790
v 0.060935 -0.095760 -0.021790
v 0.060935 -0.065760 -0.021790
v 0.030935 -0.065760 -0.021790
v 0.047284 -0.101322 -0.074311
v 0.077284 -0.101322 -0.074311
v 0.077284 -0.071322 -0.074311
v 0.047284 -0.071322 -0.074311
v 0.047284 -0.101322 -0.044311
v 0.077284 -0.101322 -0.044311
v 0.077284 -0.071322 -0.044311
v 0.047284 -0.071322 -0.044311
v 0.059248 -0.108278 -0.089526
v 0.089248 -0.108278 -0.089526
v 0.089248 -0.078278 -0.089526
v 0.059248 -0.078278 -0.089526
v 0.059248 -0.108278 -0.059526
v 0.089248 -0.108278 -0.059526
v 0.089248 -0.078278 -0.059526
v 0.059248 -0.078278 -0.059526
v 0.068407 -0.114902 -0.120583
v 0.098407 -0.114902 -0.120583
v 0.098407 -0.084902 -0.120583
v 0.068407 -0.084902 -0.120583
v 0.068407 -0.114902 -0.090583
v 0.098407 -0.114902 -0.090583
v 0.098407 -0.084902 -0.090583
v 0.068407 -0.084902 -0.090583
v 0.019207 -0.088068 -0.067193
v 0.049207 -0.088068 -0.067193
v 0.049207 -0.058068 -0.067193
v 0.019207 -0.058068 -0.067193
v 0.019207 -0.088068 -0.037193
v 0.049207 -0.088068 -0.037193
v 0.049207 -0.058068 -0.037193
v 0.019207 -0.058068 -0.037193
v 0.053763 -0.084545 -0.078393
v 0.083763 -0.084545 -0.078393
v 0.083763 -0.054545 -0.078393
v 0.053763 -0.054545 -0.078393
v 0.053763 -0.084545 -0.048393
v 0.083763 -0.084545 -0.048393
v 0.083763 -0.054545 -0.048393
v 0.053763 -0.054545 -0.048393
v 0.071795 -0.069155 -0.077351
v 0.101795 -0.069155 -0.077351
v 0.101795 -0.039155 -0.077351
v 0.071795 -0.039155 -0.077351
v 0.071795 -0.069155 -0.047351
v 0.101795 -0.069155 -0.047351
v 0.101795 -0.039155 -0.047351
v 0.071795 -0.039155 -0.047351
v 0.084855 -0.049345 -0.068362
v 0.114855 -0.049345 -0.068362
v 0.114855 -0.019345 -0.068362
v 0.084855 -0.019345 -0.068362
v 0.084855 -0.049345 -0.038362
v 0.114855 -0.049345 -0.038362
v 0.114855 -0.019345 -0.038362
v 0.084855 -0.019345 -0.038362
v 0.013797 -0.074036 -0.082472
v 0.043797 -0.074036 -0.082472
v 0.043797 -0.044036 -0.082472
v 0.013797 -0.044036 -0.082472
v 0.013797 -0.074036 -0.052472
v 0.043797 -0.074036 -0.052472
v 0.043797 -0.044036 -0.052472
v 0.013797 -0.044036 -0.052472
v 0.039523 -0.067696 -0.088311
v 0.069523 -0.067696 -0.088311
v 0.069523 -0.037696 -0.088311
v 0.039523 -0.037696 -0.088311
v 0.039523 -0.067696 -0.058311
v 0.069523 -0.067696 -0.058311
v 0.069523 -0.037696 -0.058311
v 0.039523 -0.037696 -0.058311
v 0.050146 -0.046724 -0.077175
v 0.080146 -0.046724 -0.077175
v 0.080146 -0.016724 -0.077175
v 0.050146 -0.016724 -0.077175
v 0.050146 -0.046724 -0.047175
v 0.080146 -0.046724 -0.047175
v 0.080146 -0.016724 -0.047175
v 0.050146 -0.016724 -0.047175
v 0.050779 -0.031209 -0.057366
v 0.080779 -0.031209 -0.057366
v 0.080779 -0.001209 -0.057366
v 0.050779 -0.001209 -0.057366
v 0.050779 -0.031209 -0.027366
v 0.080779 -0.031209 -0.027366
v 0.080779 -0.001209 -0.027366
v 0.050779 -0.001209 -0.027366
v 0.002659 -0.057345 -0.090266
v 0.032659 -0.057345 -0.090266
v 0.032659 -0.027345 -0.090266
v 0.002659 -0.027345 -0.090266
v 0.002659 -0.057345 -0.060266
v 0.032659 -0.057345 -0.060266
v 0.032659 -0.027345 -0.060266
v 0.002659 -0.027345 -0.060266
v 0.025204 -0.053426 -0.091708
v 0.055204 -0.053426 -0.091708
v 0.055204 -0.023426 -0.091708
v 0.025204 -0.023426 -0.091708
v 0.025204 -0.053426 -0.061708
v 0.055204 -0.053426 -0.061708
v 0.055204 -0.023426 -0.061708
v 0.025204 -0.023426 -0.061708
v 0.040971 -0.042556 -0.082752
v 0.070971 -0.042556 -0.082752
v 0.070971 -0.012556 -0.082752
v 0.040971 -0.012556 -0.082752
v 0.040971 -0.042556 -0.052752
v 0.070971 -0.042556 -0.052752
v 0.070971 -0.012556 -0.052752
v 0.040971 -0.012556 -0.052752
v 0.044601 -0.028834 -0.070449
v 0.074601 -0.028834 -0.070449
v 0.074601 0.001166 -0.070449
v 0.044601 0.001166 -0.070449
v 0.044601 -0.028834 -0.040449
v 0.074601 -0.028834 -0.040449
v 0.074601 0.001166 -0.040449
v 0.044601 0.001166 -0.040449
f 1 2 9
f 2 10 9
f 2 3 10
f 3 11 10
f 3 4 11
f 4 12 11
f 4 5 12
f 5 13 12
f 5 6 13
f 6 14 13
f 6 7 14
f 7 15 14
f 7 8 15
f 8 16 15
f 8 1 16
f 1 9 16
f 17 18 25
f 18 26 25
f 18 19 26
f 19 27 26
f 19 20 27
f 20 28 27
f 20 21 28
f 21 29 28
f 21 22 29
f 22 30 29
f 22 23 30
f 23 31 30
f 23 24 31
f 24 32 31
f 24 17 32
f 17 25 32
f 33 34 41
f 34 42 41
f 34 35 42
f 35 43 42
f 35 36 43
f 36 44 43
f 36 37 44
f 37 45 44
f 37 38 45
f 38 46 45
f 38 39 46
f 39 47 46
f 39 40 47
f 40 48 47
f 40 33 48
f 33 41 48
f 49 50 57
f 50 58 57
f 50 51 58
f 51 59 58
f 51 52 59
f 52 60 59
f 52 53 60
f 53 61 60
f 53 54 61
f 54 62 61
f 54 55 62
f 55 63 62
f 55 56 63
f 56 64 63
f 56 49 64
f 49 57 64
f 65 66 73
f 66 74 73
f 66 67 74
f 67 75 74
f 67 68 75
f 68 76 75
f 68 69 76
f 69 77 76
f 69 70 77
f 70 78 77
f 70 71 78
f 71 79 78
f 71 72 79
f 72 80 79
f 72 65 80
f 65 73 80
f 81 82 89
f 82 90 89
f 82 83 90
f 83 91 90
f 83 84 91
f 84 92 91
f 84 85 92
f 85 93 92
f 85 86 93
f 86 94 93
f 86 87 94
f 87 95 94
f 87 88 95
f 88 96 95
f 88 81 96
f 81 89 96
f 97 98 105
f 98 106 105
f 98 99 106
f 99 107 106
f 99 100 107
f 100 108 107
f 100 101 108
f 101 109 108
f 101 102 109
f 102 110 109
f 102 103 110
f 103 111 110
f 103 104 111
f 104 112 111
f 104 97 112
f 97 105 112
f 113 114 121
f 114 122 121
f 114 115 122
f 115 123 122
f 115 116 123
f 116 124 123
f 116 117 124
f 117 125 124
f 117 118 125
f 118 126 125
f 118 119 126
f 119 127 126
f 119 120 127
f 120 128 127
f 120 113 128
f 113 121 128
f 129 130 137
f 130 138 137
f 130 131 138
f 131 139 138
f 131 132 139
f 132 140 139
f 132 133 140
f 133 141 140
f 133 134 141
f 134 142 141
f 134 135 142
f 135 143 142
f 135 136 143
f 136 144 143
f 136 129 144
f 129 137 144
f 145 146 153
f 146 154 153
f 146 147 154
f 147 155 154
f 147 148 155
f 148 156 155
f 148 149 156
f 149 157 156
f 149 150 157
f 150 158 157
f 150 151 158
f 151 159 158
f 151 152 159
f 152 160 159
f 152 145 160
f 145 153 160
f 161 162 169
f 162 170 169
f 162 163 170
f 163 171 170
f 163 164 171
f 164 172 171
f 164 165 172
f 165 173 172
f 165 166 173
f 166 174 173
f 166 167 174
f 167 175 174
f 167 168 175
f 168 176 175
f 168 161 176
f 161 169 176
f 177 178 185
f 178 186 185
f 178 179 186
f 179 187 186
f 179 180 187
f 180 188 187
f 180 181 188
f 181 189 188
f 181 182 189
f 182 190 189
f 182 183 190
f 183 191 190
f 183 184 191
f 184 192 191
f 184 177 192
f 177 185 192
f 193 194 201
f 194 202 201
f 194 195 202
f 195 203 202
f 195 196 203
f 196 204 203
f 196 197 204
f 197 205 204
f 197 198 205
f 198 206 205
f 198 199 206
f 199 207 206
f 199 200 207
f 200 208 207
f 200 193 208
f 193 201 208
f 209 210 217
f 210 218 217
f 210 211 218
f 211 219 218
f 211 212 219
f 212 220 219
f 212 213 220
f 213 221 220
f 213 214 221
f 214 222 221
f 214 215 222
f 215 223 222
f 215 216 223
f 216 224 223
f 216 209 224
f 209 217 224
f 225 226 233
f 226 234 233
f 226 227 234
f 227 235 234
f 227 228 235
f 228 236 235
f 228 229 236
f 229 237 236
f 229 230 237
f 230 238 237
f 230 231 238
f 231 239 238
f 231 232 239
f 232 240 239
f 232 225 240
f 225 233 240
f 241 242 249
f 242 250 249
f 242 243 250
f 243 251 250
f 243 244 251
f 244 252 251
f 244 245 252
f 245 253 252
f 245 246 253
f 246 254 253
f 246 247 254
f 247 255 254
f 247 248 255
f 248 256 255
f 248 241 256
f 241 249 256
f 257 258 265
f 258 266 265
f 258 259 266
f 259 267 266
f 259 260 267
f 260 268 267
f 260 261 268
f 261 269 268
f 261 262 269
f 262 270 269
f 262 263 270
f 263 271 270
f 263 264 271
f 264 272 271
f 264 257 272
f 257 265 272
f 273 274 281
f 274 282 281
f 274 275 282
f 275 283 282
f 275 276 283
f 276 284 283
f 276 277 284
f 277 285 284
f 277 278 285
f 278 286 285
f 278 279 286
f 279 287 286
f 279 280 287
f 280 288 287
f 280 273 288
f 273 281 288
f 289 290 297
f 290 298 297
f 290 291 298
f 291 299 298
f 291 292 299
f 292 300 299
f 292 293 300
f 293 301 300
f 293 294 301
f 294 302 301
f 294 295 302
f 295 303 302
f 295 296 303
f 296 304 303
f 296 289 304
f 289 297 304
f 305 306 313
f 306 314 313
f 306 307 314
f 307 315 314
f 307 308 315
f 308 316 315
f 308 309 316
f 309 317 316
f 309 310 317
f 310 318 317
f 310 311 318
f 311 319 318
f 311 312 319
f 312 320 319
f 312 305 320
f 305 313 320
f 321 322 323
f 321 323 324
f 325 326 327
f 325 327 328
f 321 325 326
f 321 326 322
f 322 326 327
f 322 327 323
f 323 327 328
f 323 328 324
f 324 328 325
f 324 325 321
f 329 330 331
f 329 331 332
f 333 334 335
f 333 335 336
f 329 333 334
f 329 334 330
f 330 334 335
f 330 335 331
f 331 335 336
f 331 336 332
f 332 336 333
f 332 333 329
f 337 338 339
f 337 339 340
f 341 342 343
f 341 343 344
f 337 341 342
f 337 342 338
f 338 342 343
f 338 343 339
f 339 343 344
f 339 344 340
f 340 344 341
f 340 341 337
f 345 346 347
f 345 347 348
f 349 350 351
f 349 351 352
f 345 349 350
f 345 350 346
f 346 350 351
f 346 351 347
f 347 351 352
f 347 352 348
f 348 352 349
f 348 349 345
f 353 354 355
f 353 355 356
f 357 358 359
f 357 359 360
f 353 357 358
f 353 358 354
f 354 358 359
f 354 359 355
f 355 359 360
f 355 360 356
f 356 360 357
f 356 357 353
f 361 362 363
f 361 363 364
f 365 366 367
f 365 367 368
f 361 365 366
f 361 366 362
f 362 366 367
f 362 367 363
f 363 367 368
f 363 368 364
f 364 368 365
f 364 365 361
f 369 370 371
f 369 371 372
f 373 374 375
f 373 375 376
f 369 373 374
f 369 374 370
f 370 374 375
f 370 375 371
f 371 375 376
f 371 376 372
f 372 376 373
f 372 373 369
f 377 378 379
f 377 379 380
f 381 382 383
f 381 383 384
f 377 381 382
f 377 382 378
f 378 382 383
f 378 383 379
f 379 383 384
f 379 384 380
f 380 384 381
f 380 381 377
f 385 386 387
f 385 387 388
f 389 390 391
f 389 391 392
f 385 389 390
f 385 390 386
f 386 390 391
f 386 391 387
f 387 391 392
f 387 392 388
f 388 392 389
f 388 389 385
f 393 394 395
f 393 395 396
f 397 398 399
f 397 399 400
f 393 397 398
f 393 398 394
f 394 398 399
f 394 399 395
f 395 399 400
f 395 400 396
f 396 400 397
f 396 397 393
f 401 402 403
f 401 403 404
f 405 406 407
f 405 407 408
f 401 405 406
f 401 406 402
f 402 406 407
f 402 407 403
f 403 407 408
f 403 408 404
f 404 408 405
f 404 405 401
f 409 410 411
f 409 411 412
f 413 414 415
f 413 415 416
f 409 413 414
f 409 414 410
f 410 414 415
f 410 415 411
f 411 415 416
f 411 416 412
f 412 416 413
f 412 413 409
f 417 418 419
f 417 419 420
f 421 422 423
f 421 423 424
f 417 421 422
f 417 422 418
f 418 422 423
f 418 423 419
f 419 423 424
f 419 424 420
f 420 424 421
f 420 421 417
f 425 426 427
f 425 427 428
f 429 430 431
f 429 431 432
f 425 429 430
f 425 430 426
f 426 430 431
f 426 431 427
f 427 431 432
f 427 432 428
f 428 432 429
f 428 429 425
f 433 434 435
f 433 435 436
f 437 438 439
f 437 439 440
f 433 437 438
f 433 438 434
f 434 438 439
f 434 439 435
f 435 439 440
f 435 440 436
f 436 440 437
f 436 437 433
f 441 442 443
f 441 443 444
f 445 446 447
f 445 447 448
f 441 445 446
f 441 446 442
f 442 446 447
f 442 447 443
f 443 447 448
f 443 448 444
f 444 448 445
f 444 445 441
f 449 450 451
f 449 451 452
f 453 454 455
f 453 455 456
f 449 453 454
f 449 454 450
f 450 454 455
f 450 455 451
f 451 455 456
f 451 456 452
f 452 456 453
f 452 453 449
f 457 458 459
f 457 459 460
f 461 462 463
f 461 463 464
f 457 461 462
f 457 462 458
f 458 462 463
f 458 463 459
f 459 463 464
f 459 464 460
f 460 464 461
f 460 461 457
f 465 466 467
f 465 467 468
f 469 470 471
f 469 471 472
f 465 469 470
f 465 470 466
f 466 470 471
f 466 471 467
f 467 471 472
f 467 472 468
f 468 472 469
f 468 469 465
f 473 474 475
f 473 475 476
f 477 478 479
f 477 479 480
f 473 477 478
f 473 478 474
f 474 478 479
f 474 479 475
f 475 479 480
f 475 480 476
f 476 480 477
f 476 477 473
f 481 482 483
f 481 483 484
f 485 486 487
f 485 487 488
f 481 485 486
f 481 486 482
f 482 486 487
f 482 487 483
f 483 487 488
f 483 488 484
f 484 488 485
f 484 485 481
