# SignFlow 3D Hand Mesh - Frame 159
v 0.000000 -0.001749 0.019923
v -0.011327 -0.009672 0.013347
v -0.016019 -0.011928 -0.001047
v -0.011327 -0.007198 -0.014828
v -0.000000 0.001749 -0.019923
v 0.011327 0.009672 -0.013347
v 0.016019 0.011928 0.001047
v 0.011327 0.007198 0.014828
v 0.023561 -0.033149 0.017166
v 0.012234 -0.041071 0.010590
v 0.007542 -0.043328 -0.003804
v 0.012234 -0.038598 -0.017585
v 0.023561 -0.029651 -0.022680
v 0.034889 -0.021728 -0.016104
v 0.039581 -0.019472 -0.001710
v 0.034889 -0.024202 0.012072
v 0.023561 -0.045894 0.011025
v 0.016120 -0.049935 -0.001727
v 0.013038 -0.043120 -0.015082
v 0.016120 -0.029438 -0.021217
v 0.023561 -0.016906 -0.016539
v 0.031002 -0.012864 -0.003787
v 0.034085 -0.019680 0.009568
v 0.031002 -0.033361 0.015703
v 0.049394 -0.056908 -0.000558
v 0.041953 -0.060950 -0.013310
v 0.038871 -0.054134 -0.026665
v 0.041953 -0.040452 -0.032800
v 0.049394 -0.027920 -0.028122
v 0.056835 -0.023878 -0.015370
v 0.059917 -0.030694 -0.002015
v 0.056835 -0.044376 0.004120
v 0.049394 -0.062385 -0.015408
v 0.039476 -0.055998 -0.025162
v 0.035368 -0.041653 -0.028577
v 0.039476 -0.027754 -0.023652
v 0.049394 -0.022442 -0.013272
v 0.059312 -0.028830 -0.003518
v 0.063421 -0.043175 -0.000103
v 0.059312 -0.057074 -0.005028
v 0.069994 -0.061304 -0.035646
v 0.060076 -0.054916 -0.045400
v 0.055968 -0.040571 -0.048815
v 0.060076 -0.026672 -0.043890
v 0.069994 -0.021361 -0.033511
v 0.079913 -0.027748 -0.023756
v 0.084021 -0.042093 -0.020342
v 0.079913 -0.055992 -0.025266
v 0.069994 -0.060355 -0.040753
v 0.058394 -0.052286 -0.046639
v 0.053589 -0.037800 -0.045459
v 0.058394 -0.025383 -0.037906
v 0.069994 -0.022309 -0.028403
v 0.081595 -0.030378 -0.022518
v 0.086399 -0.044864 -0.023697
v 0.081595 -0.057281 -0.031250
v 0.083927 -0.054186 -0.059757
v 0.072327 -0.046117 -0.065642
v 0.067522 -0.031631 -0.064463
v 0.072327 -0.019215 -0.056910
v 0.083927 -0.016141 -0.047407
v 0.095528 -0.024210 -0.041522
v 0.100332 -0.038695 -0.042701
v 0.095528 -0.051112 -0.050254
v 0.000000 -0.014313 0.013969
v -0.012087 -0.015249 0.004623
v -0.017094 -0.007252 -0.007431
v -0.012087 0.004993 -0.015132
v -0.000000 0.014313 -0.013969
v 0.012087 0.015249 -0.004623
v 0.017094 0.007252 0.007431
v 0.012087 -0.004993 0.015132
v 0.050037 -0.071851 -0.044986
v 0.037950 -0.072787 -0.054332
v 0.032944 -0.064790 -0.066386
v 0.037950 -0.052545 -0.074087
v 0.050037 -0.043225 -0.072924
v 0.062124 -0.042289 -0.063578
v 0.067131 -0.050286 -0.051525
v 0.062124 -0.062531 -0.043823
v 0.050037 -0.068040 -0.041935
v 0.043812 -0.075770 -0.053588
v 0.041233 -0.072820 -0.068385
v 0.043812 -0.060918 -0.077658
v 0.050037 -0.047035 -0.075976
v 0.056263 -0.039305 -0.064322
v 0.058842 -0.042255 -0.049525
v 0.056263 -0.054158 -0.040252
v 0.074528 -0.078259 -0.048240
v 0.068302 -0.085989 -0.059893
v 0.065723 -0.083039 -0.074690
v 0.068302 -0.071136 -0.083964
v 0.074528 -0.057254 -0.082281
v 0.080754 -0.049523 -0.070628
v 0.083332 -0.052474 -0.055830
v 0.080754 -0.064376 -0.046557
v 0.074528 -0.050995 -0.054348
v 0.067717 -0.062667 -0.047157
v 0.064896 -0.077320 -0.050571
v 0.067717 -0.086370 -0.062590
v 0.074528 -0.084517 -0.076173
v 0.081338 -0.072846 -0.083363
v 0.084159 -0.058193 -0.079950
v 0.081338 -0.049142 -0.067931
v 0.095329 -0.057232 -0.044769
v 0.088519 -0.068903 -0.037578
v 0.085698 -0.083556 -0.040992
v 0.088519 -0.092607 -0.053010
v 0.095329 -0.090754 -0.066593
v 0.102140 -0.079082 -0.073784
v 0.104961 -0.064429 -0.070370
v 0.102140 -0.055379 -0.058352
v 0.095329 -0.057656 -0.044144
v 0.087927 -0.069393 -0.037680
v 0.084861 -0.083824 -0.041761
v 0.087927 -0.092496 -0.053997
v 0.095329 -0.090329 -0.067219
v 0.102732 -0.078593 -0.073683
v 0.105798 -0.064162 -0.069601
v 0.102732 -0.055489 -0.057366
v 0.112723 -0.063820 -0.035416
v 0.105321 -0.075556 -0.028953
v 0.102255 -0.089988 -0.033034
v 0.105321 -0.098660 -0.045269
v 0.112723 -0.096493 -0.058492
v 0.120125 -0.084756 -0.064955
v 0.123191 -0.070325 -0.060874
v 0.120125 -0.061653 -0.048639
v 0.000000 -0.017044 0.010464
v -0.011971 -0.015991 0.000983
v -0.016930 -0.005571 -0.009074
v -0.011971 0.008113 -0.013816
v -0.000000 0.017044 -0.010464
v 0.011971 0.015991 -0.000983
v 0.016930 0.005571 0.009074
v 0.011971 -0.008113 0.013816
v 0.051227 -0.059659 -0.058946
v 0.039256 -0.058606 -0.068428
v 0.034297 -0.048186 -0.078485
v 0.039256 -0.034502 -0.083226
v 0.051227 -0.025571 -0.079875
v 0.063198 -0.026624 -0.070393
v 0.068157 -0.037044 -0.060336
v 0.063198 -0.050728 -0.055595
v 0.051227 -0.053303 -0.052506
v 0.044330 -0.060608 -0.064055
v 0.041473 -0.057373 -0.078741
v 0.044330 -0.045493 -0.087962
v 0.051227 -0.031927 -0.086315
v 0.058124 -0.024622 -0.074766
v 0.060980 -0.027857 -0.060080
v 0.058124 -0.039737 -0.050859
v 0.082127 -0.067892 -0.061730
v 0.075230 -0.075197 -0.073279
v 0.072373 -0.071963 -0.087965
v 0.075230 -0.060082 -0.097186
v 0.082127 -0.046516 -0.095539
v 0.089024 -0.039211 -0.083990
v 0.091880 -0.042446 -0.069304
v 0.089024 -0.054326 -0.060083
v 0.082127 -0.046518 -0.061729
v 0.074151 -0.059519 -0.060440
v 0.070848 -0.071165 -0.069809
v 0.074151 -0.074633 -0.084348
v 0.082127 -0.067891 -0.095540
v 0.090102 -0.054889 -0.096829
v 0.093406 -0.043244 -0.087460
v 0.090102 -0.039776 -0.072921
v 0.102574 -0.058321 -0.054268
v 0.094599 -0.071322 -0.052979
v 0.091295 -0.082968 -0.062348
v 0.094599 -0.086436 -0.076887
v 0.102574 -0.079694 -0.088079
v 0.110549 -0.066692 -0.089368
v 0.113853 -0.055046 -0.079999
v 0.110549 -0.051579 -0.065460
v 0.102574 -0.051685 -0.061176
v 0.093348 -0.062116 -0.054821
v 0.089526 -0.076584 -0.058046
v 0.093348 -0.086613 -0.068960
v 0.102574 -0.086329 -0.081171
v 0.111801 -0.075898 -0.087525
v 0.115622 -0.061431 -0.084301
v 0.111801 -0.051401 -0.073387
v 0.123642 -0.060751 -0.045468
v 0.114415 -0.071182 -0.039114
v 0.110594 -0.085650 -0.042338
v 0.114415 -0.095679 -0.053252
v 0.123642 -0.095395 -0.065463
v 0.132868 -0.084964 -0.071817
v 0.136690 -0.070496 -0.068593
v 0.132868 -0.060467 -0.057679
v 0.000000 -0.018595 0.007363
v -0.011447 -0.016206 -0.002516
v -0.016188 -0.004324 -0.010920
v -0.011447 0.010092 -0.012928
v -0.000000 0.018595 -0.007363
v 0.011447 0.016206 0.002516
v 0.016188 0.004324 0.010920
v 0.011447 -0.010092 0.012928
v 0.057192 -0.047613 -0.065927
v 0.045746 -0.045224 -0.075805
v 0.041004 -0.033342 -0.084210
v 0.045746 -0.018926 -0.086217
v 0.057192 -0.010423 -0.080652
v 0.068639 -0.012812 -0.070774
v 0.073380 -0.024694 -0.062369
v 0.068639 -0.039110 -0.060361
v 0.051482 -0.029018 -0.054122
v 0.051668 -0.043075 -0.060179
v 0.055090 -0.048897 -0.073915
v 0.059744 -0.043075 -0.087286
v 0.062902 -0.029018 -0.092457
v 0.062716 -0.014961 -0.086400
v 0.059294 -0.009139 -0.072663
v 0.054641 -0.014961 -0.059293
v 0.076828 -0.031936 -0.046571
v 0.077014 -0.045993 -0.052628
v 0.080436 -0.051815 -0.066365
v 0.085089 -0.045993 -0.079735
v 0.088248 -0.031936 -0.084907
v 0.088061 -0.017879 -0.078850
v 0.084640 -0.012056 -0.065113
v 0.079986 -0.017879 -0.051743
v 0.082538 -0.012045 -0.067824
v 0.068456 -0.017735 -0.065919
v 0.062623 -0.031744 -0.063908
v 0.068456 -0.045865 -0.062970
v 0.082538 -0.051827 -0.063654
v 0.096620 -0.046137 -0.065559
v 0.102453 -0.032128 -0.067570
v 0.096620 -0.018006 -0.068508
v 0.084788 -0.009506 -0.043612
v 0.070706 -0.015197 -0.041707
v 0.064873 -0.029205 -0.039696
v 0.070706 -0.043327 -0.038757
v 0.084788 -0.049288 -0.039441
v 0.098870 -0.043598 -0.041347
v 0.104703 -0.029589 -0.043357
v 0.098870 -0.015468 -0.044296
v 0.084788 -0.009411 -0.042268
v 0.071208 -0.015411 -0.045996
v 0.065583 -0.029604 -0.047106
v 0.071208 -0.043676 -0.044948
v 0.084788 -0.049384 -0.040785
v 0.098368 -0.043383 -0.037057
v 0.103993 -0.029190 -0.035947
v 0.098368 -0.015119 -0.038105
v 0.077558 -0.008490 -0.017418
v 0.063978 -0.014490 -0.021147
v 0.058353 -0.028683 -0.022257
v 0.063978 -0.042755 -0.020099
v 0.077558 -0.048462 -0.015936
v 0.091138 -0.042462 -0.012208
v 0.096763 -0.028269 -0.011097
v 0.091138 -0.014197 -0.013256
v 0.000000 -0.019632 0.003819
v -0.011078 -0.015561 -0.005929
v -0.015666 -0.002374 -0.012204
v -0.011078 0.012203 -0.011330
v -0.000000 0.019632 -0.003819
v 0.011078 0.015561 0.005929
v 0.015666 0.002374 0.012204
v 0.011078 -0.012203 0.011330
v 0.053945 -0.032611 -0.062905
v 0.042867 -0.028539 -0.072653
v 0.038279 -0.015353 -0.078928
v 0.042867 -0.000775 -0.078054
v 0.053945 0.006653 -0.070542
v 0.065023 0.002582 -0.060794
v 0.069611 -0.010605 -0.054520
v 0.065023 -0.025182 -0.055394
v 0.047434 -0.012979 -0.047813
v 0.048894 -0.027113 -0.053506
v 0.053313 -0.032968 -0.066941
v 0.058102 -0.027113 -0.080249
v 0.060456 -0.012979 -0.085634
v 0.058996 0.001156 -0.079942
v 0.054577 0.007010 -0.066506
v 0.049788 0.001156 -0.053198
v 0.067907 -0.013703 -0.040764
v 0.069367 -0.027837 -0.046457
v 0.073786 -0.033691 -0.059892
v 0.078575 -0.027837 -0.073200
v 0.080929 -0.013703 -0.078585
v 0.079469 0.000432 -0.072892
v 0.075050 0.006286 -0.059457
v 0.070261 0.000432 -0.046149
v 0.074418 0.006212 -0.057828
v 0.060432 0.000186 -0.056281
v 0.054639 -0.013976 -0.056722
v 0.060432 -0.027978 -0.058893
v 0.074418 -0.033617 -0.061521
v 0.088404 -0.027591 -0.063068
v 0.094197 -0.013429 -0.062627
v 0.088404 0.000573 -0.060456
v 0.077304 0.004434 -0.038658
v 0.063318 -0.001592 -0.037111
v 0.057525 -0.015754 -0.037552
v 0.063318 -0.029755 -0.039723
v 0.077304 -0.035395 -0.042351
v 0.091290 -0.029368 -0.043898
v 0.097083 -0.015206 -0.043457
v 0.091290 -0.001205 -0.041286
v 0.077304 0.004499 -0.039597
v 0.066785 -0.000924 -0.049306
v 0.062429 -0.014873 -0.053860
v 0.066785 -0.029179 -0.050590
v 0.077304 -0.035460 -0.041412
v 0.087822 -0.030037 -0.031703
v 0.092179 -0.016087 -0.027149
v 0.087822 -0.001782 -0.030419
v 0.064330 0.003844 -0.025176
v 0.053812 -0.001579 -0.034886
v 0.049455 -0.015529 -0.039439
v 0.053812 -0.029834 -0.036170
v 0.064330 -0.036115 -0.026992
v 0.074849 -0.030692 -0.017283
v 0.079205 -0.016742 -0.012729
v 0.074849 -0.002437 -0.015999
v -0.015000 -0.015000 -0.015000
v 0.015000 -0.015000 -0.015000
v 0.015000 0.015000 -0.015000
v -0.015000 0.015000 -0.015000
v -0.015000 -0.015000 0.015000
v 0.015000 -0.015000 0.015000
v 0.015000 0.015000 0.015000
v -0.015000 0.015000 0.015000
v 0.008561 -0.046400 -0.017757
v 0.038561 -0.046400 -0.017757
v 0.038561 -0.016400 -0.017757
v 0.008561 -0.016400 -0.017757
v 0.008561 -0.046400 0.012243
v 0.038561 -0.046400 0.012243
v 0.038561 -0.016400 0.012243
v 0.008561 -0.016400 0.012243
v 0.034394 -0.057414 -0.029340
v 0.064394 -0.057414 -0.029340
v 0.064394 -0.027414 -0.029340
v 0.034394 -0.027414 -0.029340
v 0.034394 -0.057414 0.000660
v 0.064394 -0.057414 0.000660
v 0.064394 -0.027414 0.000660
v 0.034394 -0.027414 0.000660
v 0.054994 -0.056332 -0.049578
v 0.084994 -0.056332 -0.049578
v 0.084994 -0.026332 -0.049578
v 0.054994 -0.026332 -0.049578
v 0.054994 -0.056332 -0.019578
v 0.084994 -0.056332 -0.019578
v 0.084994 -0.026332 -0.019578
v 0.054994 -0.026332 -0.019578
v 0.068927 -0.050163 -0.068582
v 0.098927 -0.050163 -0.068582
v 0.098927 -0.020163 -0.068582
v 0.068927 -0.020163 -0.068582
v 0.068927 -0.050163 -0.038582
v 0.098927 -0.050163 -0.038582
v 0.098927 -0.020163 -0.038582
v 0.068927 -0.020163 -0.038582
v 0.035037 -0.072538 -0.073955
v 0.065037 -0.072538 -0.073955
v 0.065037 -0.042538 -0.073955
v 0.035037 -0.042538 -0.073955
v 0.035037 -0.072538 -0.043955
v 0.065037 -0.072538 -0.043955
v 0.065037 -0.042538 -0.043955
v 0.035037 -0.042538 -0.043955
v 0.059528 -0.082756 -0.080260
v 0.089528 -0.082756 -0.080260
v 0.089528 -0.052756 -0.080260
v 0.059528 -0.052756 -0.080260
v 0.059528 -0.082756 -0.050260
v 0.089528 -0.082756 -0.050260
v 0.089528 -0.052756 -0.050260
v 0.059528 -0.052756 -0.050260
v 0.080329 -0.088993 -0.070681
v 0.110329 -0.088993 -0.070681
v 0.110329 -0.058993 -0.070681
v 0.080329 -0.058993 -0.070681
v 0.080329 -0.088993 -0.040681
v 0.110329 -0.088993 -0.040681
v 0.110329 -0.058993 -0.040681
v 0.080329 -0.058993 -0.040681
v 0.097723 -0.095156 -0.061954
v 0.127723 -0.095156 -0.061954
v 0.127723 -0.065156 -0.061954
v 0.097723 -0.065156 -0.061954
v 0.097723 -0.095156 -0.031954
v 0.127723 -0.095156 -0.031954
v 0.127723 -0.065156 -0.031954
v 0.097723 -0.065156 -0.031954
v 0.036227 -0.057615 -0.084410
v 0.066227 -0.057615 -0.084410
v 0.066227 -0.027615 -0.084410
v 0.036227 -0.027615 -0.084410
v 0.036227 -0.057615 -0.054410
v 0.066227 -0.057615 -0.054410
v 0.066227 -0.027615 -0.054410
v 0.036227 -0.027615 -0.054410
v 0.067127 -0.072204 -0.093635
v 0.097127 -0.072204 -0.093635
v 0.097127 -0.042204 -0.093635
v 0.067127 -0.042204 -0.093635
v 0.067127 -0.072204 -0.063635
v 0.097127 -0.072204 -0.063635
v 0.097127 -0.042204 -0.063635
v 0.067127 -0.042204 -0.063635
v 0.087574 -0.084007 -0.086173
v 0.117574 -0.084007 -0.086173
v 0.117574 -0.054007 -0.086173
v 0.087574 -0.054007 -0.086173
v 0.087574 -0.084007 -0.056173
v 0.117574 -0.084007 -0.056173
v 0.117574 -0.054007 -0.056173
v 0.087574 -0.054007 -0.056173
v 0.108642 -0.093073 -0.070465
v 0.138642 -0.093073 -0.070465
v 0.138642 -0.063073 -0.070465
v 0.108642 -0.063073 -0.070465
v 0.108642 -0.093073 -0.040465
v 0.138642 -0.093073 -0.040465
v 0.138642 -0.063073 -0.040465
v 0.108642 -0.063073 -0.040465
v 0.042192 -0.044018 -0.088289
v 0.072192 -0.044018 -0.088289
v 0.072192 -0.014018 -0.088289
v 0.042192 -0.014018 -0.088289
v 0.042192 -0.044018 -0.058289
v 0.072192 -0.044018 -0.058289
v 0.072192 -0.014018 -0.058289
v 0.042192 -0.014018 -0.058289
v 0.067538 -0.046936 -0.080739
v 0.097538 -0.046936 -0.080739
v 0.097538 -0.016936 -0.080739
v 0.067538 -0.016936 -0.080739
v 0.067538 -0.046936 -0.050739
v 0.097538 -0.046936 -0.050739
v 0.097538 -0.016936 -0.050739
v 0.067538 -0.016936 -0.050739
v 0.069788 -0.044397 -0.056527
v 0.099788 -0.044397 -0.056527
v 0.099788 -0.014397 -0.056527
v 0.069788 -0.014397 -0.056527
v 0.069788 -0.044397 -0.026527
v 0.099788 -0.044397 -0.026527
v 0.099788 -0.014397 -0.026527
v 0.069788 -0.014397 -0.026527
v 0.062558 -0.043476 -0.031677
v 0.092558 -0.043476 -0.031677
v 0.092558 -0.013476 -0.031677
v 0.062558 -0.013476 -0.031677
v 0.062558 -0.043476 -0.001677
v 0.092558 -0.043476 -0.001677
v 0.092558 -0.013476 -0.001677
v 0.062558 -0.013476 -0.001677
v 0.038945 -0.027979 -0.081724
v 0.068945 -0.027979 -0.081724
v 0.068945 0.002021 -0.081724
v 0.038945 0.002021 -0.081724
v 0.038945 -0.027979 -0.051724
v 0.068945 -0.027979 -0.051724
v 0.068945 0.002021 -0.051724
v 0.038945 0.002021 -0.051724
v 0.059418 -0.028703 -0.074674
v 0.089418 -0.028703 -0.074674
v 0.089418 0.001297 -0.074674
v 0.059418 0.001297 -0.074674
v 0.059418 -0.028703 -0.044674
v 0.089418 -0.028703 -0.044674
v 0.089418 0.001297 -0.044674
v 0.059418 0.001297 -0.044674
v 0.062304 -0.030480 -0.055504
v 0.092304 -0.030480 -0.055504
v 0.092304 -0.000480 -0.055504
v 0.062304 -0.000480 -0.055504
v 0.062304 -0.030480 -0.025504
v 0.092304 -0.030480 -0.025504
v 0.092304 -0.000480 -0.025504
v 0.062304 -0.000480 -0.025504
v 0.049330 -0.031135 -0.041084
v 0.079330 -0.031135 -0.041084
v 0.079330 -0.001135 -0.041084
v 0.049330 -0.001135 -0.041084
v 0.049330 -0.031135 -0.011084
v 0.079330 -0.031135 -0.011084
v 0.079330 -0.001135 -0.011084
v 0.049330 -0.001135 -0.011084
v 0.000000 -0.006497 0.018915
v -0.011113 0.003678 0.016216
v -0.015717 0.011698 0.004018
v -0.011113 0.012866 -0.010534
v -0.000000 0.006497 -0.018915
v 0.011113 -0.003678 -0.016216
v 0.015717 -0.011698 -0.004018
v 0.011113 -0.012866 0.010534
v -0.023876 -0.035189 0.009060
v -0.034989 -0.025015 0.006361
v -0.039592 -0.016994 -0.005837
v -0.034989 -0.015826 -0.020389
v -0.023876 -0.022195 -0.028771
v -0.012762 -0.032370 -0.026072
v -0.008159 -0.040390 -0.013874
v -0.012762 -0.041558 0.000678
v -0.023876 -0.045063 0.001634
v -0.032101 -0.033660 0.007685
v -0.035508 -0.019346 0.003461
v -0.032101 -0.010508 -0.008563
v -0.023876 -0.012322 -0.021345
v -0.015650 -0.023725 -0.027396
v -0.012243 -0.038038 -0.023172
v -0.015650 -0.046877 -0.011148
v -0.047034 -0.054575 -0.011920
v -0.055260 -0.043172 -0.005869
v -0.058667 -0.028859 -0.010093
v -0.055260 -0.020020 -0.022117
v -0.047034 -0.021834 -0.034898
v -0.038808 -0.033237 -0.040950
v -0.035401 -0.047550 -0.036726
v -0.038808 -0.056389 -0.024702
v -0.047034 -0.057021 -0.030188
v -0.058648 -0.054244 -0.020610
v -0.063459 -0.042072 -0.012673
v -0.058648 -0.027634 -0.011025
v -0.047034 -0.019388 -0.016631
v -0.035420 -0.022165 -0.026208
v -0.030609 -0.034337 -0.034146
v -0.035420 -0.048775 -0.035794
v -0.068545 -0.046528 -0.059316
v -0.080159 -0.043752 -0.049739
v -0.084970 -0.031579 -0.041801
v -0.080159 -0.017141 -0.040153
v -0.068545 -0.008895 -0.045759
v -0.056931 -0.011672 -0.055337
v -0.052121 -0.023844 -0.063274
v -0.056931 -0.038282 -0.064922
v -0.068545 -0.045219 -0.062207
v -0.081460 -0.042878 -0.054329
v -0.086809 -0.031652 -0.045403
v -0.081460 -0.018119 -0.040655
v -0.068545 -0.010204 -0.042868
v -0.055631 -0.012546 -0.050746
v -0.050282 -0.023771 -0.059672
v -0.055631 -0.037305 -0.064420
v -0.079564 -0.033282 -0.083820
v -0.092479 -0.030941 -0.075943
v -0.097828 -0.019716 -0.067016
v -0.092479 -0.006182 -0.062268
v -0.079564 0.001732 -0.064482
v -0.066650 -0.000609 -0.072359
v -0.061300 -0.011834 -0.081286
v -0.066650 -0.025368 -0.086033
v 0.000000 -0.016383 0.011472
v -0.012250 -0.007531 0.013901
v -0.017324 0.005732 0.008187
v -0.012250 0.015638 -0.002323
v -0.000000 0.016383 -0.011472
v 0.012250 0.007531 -0.013901
v 0.017324 -0.005732 -0.008187
v 0.012250 -0.015638 0.002323
v -0.049901 -0.065997 -0.059383
v -0.062150 -0.057145 -0.056954
v -0.067224 -0.043882 -0.062668
v -0.062150 -0.033976 -0.073177
v -0.049901 -0.033231 -0.082326
v -0.037651 -0.042083 -0.084755
v -0.032577 -0.055347 -0.079041
v -0.037651 -0.065252 -0.068532
v -0.042707 -0.049614 -0.089516
v -0.043206 -0.063651 -0.083430
v -0.047626 -0.069465 -0.069978
v -0.053379 -0.063651 -0.057039
v -0.057094 -0.049614 -0.052193
v -0.056595 -0.035578 -0.058279
v -0.052175 -0.029763 -0.071731
v -0.046422 -0.035578 -0.084670
v -0.066540 -0.052750 -0.098703
v -0.067039 -0.066787 -0.092618
v -0.071460 -0.072601 -0.079165
v -0.077212 -0.066787 -0.066226
v -0.080928 -0.052750 -0.061381
v -0.080429 -0.038714 -0.067466
v -0.076008 -0.032900 -0.080919
v -0.070255 -0.038714 -0.093858
v -0.080945 -0.052750 -0.098697
v -0.078642 -0.066891 -0.093306
v -0.073464 -0.072748 -0.080146
v -0.068444 -0.066891 -0.066925
v -0.066522 -0.052750 -0.061387
v -0.068825 -0.038610 -0.066777
v -0.074003 -0.032753 -0.079938
v -0.079024 -0.038610 -0.093159
v -0.101143 -0.053063 -0.090889
v -0.098840 -0.067204 -0.085499
v -0.093662 -0.073061 -0.072338
v -0.088641 -0.067204 -0.059117
v -0.086720 -0.053063 -0.053580
v -0.089022 -0.038923 -0.058970
v -0.094201 -0.033065 -0.072130
v -0.099221 -0.038923 -0.085351
v -0.098264 -0.053063 -0.091759
v -0.099329 -0.067002 -0.085523
v -0.097232 -0.072776 -0.071502
v -0.093202 -0.067002 -0.057910
v -0.089598 -0.053063 -0.052709
v -0.088533 -0.039125 -0.058946
v -0.090630 -0.033351 -0.072967
v -0.094661 -0.039125 -0.086558
v -0.118563 -0.049497 -0.087255
v -0.119628 -0.063435 -0.081018
v -0.117531 -0.069209 -0.066997
v -0.113501 -0.063435 -0.053406
v -0.109898 -0.049497 -0.048205
v -0.108833 -0.035558 -0.054441
v -0.110929 -0.029785 -0.068462
v -0.114960 -0.035558 -0.082054
v 0.000000 -0.018297 0.008077
v -0.012312 -0.010128 0.012076
v -0.017412 0.003973 0.009001
v -0.012312 0.015747 0.000654
v -0.000000 0.018297 -0.008077
v 0.012312 0.010128 -0.012076
v 0.017412 -0.003973 -0.009001
v 0.012312 -0.015747 -0.000654
v -0.048579 -0.053015 -0.070573
v -0.060891 -0.044846 -0.066574
v -0.065991 -0.030745 -0.069649
v -0.060891 -0.018971 -0.077996
v -0.048579 -0.016421 -0.086727
v -0.036267 -0.024590 -0.090726
v -0.031167 -0.038691 -0.087651
v -0.036267 -0.050465 -0.079304
v -0.042511 -0.034718 -0.097707
v -0.042418 -0.048723 -0.091530
v -0.045933 -0.054524 -0.077808
v -0.050999 -0.048723 -0.064579
v -0.054647 -0.034718 -0.059593
v -0.054740 -0.020713 -0.065770
v -0.051225 -0.014912 -0.079492
v -0.046159 -0.020713 -0.092721
v -0.072155 -0.039079 -0.107146
v -0.072062 -0.053084 -0.100968
v -0.075577 -0.058885 -0.087246
v -0.080643 -0.053084 -0.074017
v -0.084291 -0.039079 -0.069031
v -0.084384 -0.025074 -0.075209
v -0.080868 -0.019273 -0.088931
v -0.075803 -0.025074 -0.102160
v -0.085291 -0.039079 -0.106798
v -0.084497 -0.053155 -0.100836
v -0.080027 -0.058986 -0.087407
v -0.074500 -0.053155 -0.074377
v -0.071154 -0.039079 -0.069379
v -0.071949 -0.025003 -0.075341
v -0.076419 -0.019172 -0.088770
v -0.081945 -0.025003 -0.101800
v -0.110806 -0.036437 -0.097158
v -0.110011 -0.050513 -0.091197
v -0.105541 -0.056344 -0.077767
v -0.100015 -0.050513 -0.064738
v -0.096669 -0.036437 -0.059740
v -0.097464 -0.022360 -0.065701
v -0.101933 -0.016530 -0.079131
v -0.107460 -0.022360 -0.092160
v -0.103737 -0.016495 -0.076922
v -0.112887 -0.021512 -0.088121
v -0.116676 -0.035272 -0.093655
v -0.112887 -0.049714 -0.090281
v -0.103737 -0.056378 -0.079976
v -0.094588 -0.051361 -0.068777
v -0.090798 -0.037601 -0.063243
v -0.094588 -0.023159 -0.066617
v -0.127691 -0.018047 -0.056658
v -0.136840 -0.023064 -0.067858
v -0.140630 -0.036824 -0.073391
v -0.136840 -0.051266 -0.070017
v -0.127691 -0.057930 -0.059712
v -0.118542 -0.052913 -0.048513
v -0.114752 -0.039153 -0.042979
v -0.118542 -0.024711 -0.046353
v 0.000000 -0.019499 0.004447
v -0.012279 -0.012228 0.009984
v -0.017366 0.002206 0.009673
v -0.012279 0.015348 0.003696
v -0.000000 0.019499 -0.004447
v 0.012279 0.012228 -0.009984
v 0.017366 -0.002206 -0.009673
v 0.012279 -0.015348 -0.003696
v -0.047467 -0.037971 -0.076556
v -0.059746 -0.030700 -0.071019
v -0.064833 -0.016266 -0.071329
v -0.059746 -0.003123 -0.077307
v -0.047467 0.001028 -0.085449
v -0.035188 -0.006243 -0.090987
v -0.030102 -0.020677 -0.090676
v -0.035188 -0.033819 -0.084698
v -0.051284 -0.018471 -0.100635
v -0.051379 -0.032559 -0.094649
v -0.049183 -0.038395 -0.080669
v -0.045982 -0.032559 -0.066885
v -0.043651 -0.018471 -0.061370
v -0.043555 -0.004383 -0.067356
v -0.045751 0.001452 -0.081336
v -0.048952 -0.004383 -0.095121
v -0.084637 -0.015490 -0.094151
v -0.084733 -0.029578 -0.088165
v -0.082537 -0.035414 -0.074185
v -0.079336 -0.029578 -0.060401
v -0.077005 -0.015490 -0.054886
v -0.076909 -0.001402 -0.060872
v -0.079105 0.004433 -0.074852
v -0.082306 -0.001402 -0.088637
v -0.080821 0.004509 -0.074399
v -0.094960 -0.001346 -0.074743
v -0.100816 -0.015488 -0.074957
v -0.094960 -0.029630 -0.074913
v -0.080821 -0.035490 -0.074639
v -0.066682 -0.029634 -0.074294
v -0.060826 -0.015493 -0.074081
v -0.066682 -0.001350 -0.074124
v -0.081341 0.004367 -0.050646
v -0.095480 -0.001489 -0.050990
v -0.101336 -0.015630 -0.051204
v -0.095480 -0.029773 -0.051160
v -0.081341 -0.035632 -0.050886
v -0.067202 -0.029777 -0.050541
v -0.061346 -0.015635 -0.050328
v -0.067202 -0.001493 -0.050371
v -0.081341 0.004296 -0.049078
v -0.094830 -0.001900 -0.045338
v -0.100417 -0.016140 -0.044778
v -0.094830 -0.030083 -0.047725
v -0.081341 -0.035561 -0.052454
v -0.067852 -0.029366 -0.056193
v -0.062265 -0.015126 -0.056754
v -0.067852 -0.001182 -0.053806
v -0.072774 0.002001 -0.021980
v -0.086263 -0.004195 -0.018241
v -0.091850 -0.018435 -0.017680
v -0.086263 -0.032378 -0.020628
v -0.072774 -0.037856 -0.025356
v -0.059285 -0.031661 -0.029096
v -0.053698 -0.017421 -0.029656
v -0.059285 -0.003477 -0.026709
v 0.000000 -0.019990 -0.000637
v -0.011922 -0.014377 0.007153
v -0.016860 -0.000343 0.010753
v -0.011922 0.013893 0.008054
v -0.000000 0.019990 0.000637
v 0.011922 0.014377 -0.007153
v 0.016860 0.000343 -0.010753
v 0.011922 -0.013893 -0.008054
v -0.046144 -0.017686 -0.072913
v -0.058066 -0.012074 -0.065122
v -0.063004 0.001961 -0.061522
v -0.058066 0.016196 -0.064221
v -0.046144 0.022293 -0.071639
v -0.034223 0.016681 -0.079429
v -0.029284 0.002646 -0.083029
v -0.034223 -0.011589 -0.080330
v -0.050951 0.002303 -0.091689
v -0.047095 -0.011612 -0.086609
v -0.042682 -0.017376 -0.073133
v -0.040297 -0.011612 -0.059154
v -0.041338 0.002303 -0.052862
v -0.045194 0.016219 -0.057942
v -0.049607 0.021983 -0.071418
v -0.051992 0.016219 -0.085397
v -0.071558 -0.001545 -0.086587
v -0.067701 -0.015460 -0.081507
v -0.063288 -0.021224 -0.068031
v -0.060904 -0.015460 -0.054052
v -0.061944 -0.001545 -0.047760
v -0.065801 0.012371 -0.052840
v -0.070214 0.018135 -0.066316
v -0.072598 0.012371 -0.080295
v -0.066751 0.018013 -0.062992
v -0.080140 0.013237 -0.068670
v -0.085686 -0.000199 -0.073471
v -0.080140 -0.014422 -0.074583
v -0.066751 -0.021103 -0.071355
v -0.053362 -0.016326 -0.065677
v -0.047816 -0.002891 -0.060877
v -0.053362 0.011333 -0.059764
v -0.073737 0.013718 -0.042902
v -0.087127 0.008942 -0.048580
v -0.092672 -0.004493 -0.053380
v -0.087127 -0.018717 -0.054493
v -0.073737 -0.025398 -0.051265
v -0.060348 -0.020621 -0.045587
v -0.054802 -0.007186 -0.040786
v -0.060348 0.007038 -0.039674
v -0.073737 0.013546 -0.042165
v -0.086000 0.006136 -0.036777
v -0.091079 -0.008290 -0.037425
v -0.086000 -0.021280 -0.043732
v -0.073737 -0.025225 -0.052001
v -0.061475 -0.017815 -0.057390
v -0.056396 -0.003389 -0.056741
v -0.061475 0.009601 -0.050435
v -0.064925 0.009775 -0.027300
v -0.077187 0.002364 -0.021911
v -0.082267 -0.012061 -0.022560
v -0.077187 -0.025051 -0.028866
v -0.064925 -0.028997 -0.037136
v -0.052663 -0.021586 -0.042525
v -0.047584 -0.007161 -0.041876
v -0.052663 0.005830 -0.035569
v -0.015000 -0.015000 -0.015000
v 0.015000 -0.015000 -0.015000
v 0.015000 0.015000 -0.015000
v -0.015000 0.015000 -0.015000
v -0.015000 -0.015000 0.015000
v 0.015000 -0.015000 0.015000
v 0.015000 0.015000 0.015000
v -0.015000 0.015000 0.015000
v -0.038876 -0.043692 -0.024856
v -0.008876 -0.043692 -0.024856
v -0.008876 -0.013692 -0.024856
v -0.038876 -0.013692 -0.024856
v -0.038876 -0.043692 0.005144
v -0.008876 -0.043692 0.005144
v -0.008876 -0.013692 0.005144
v -0.038876 -0.013692 0.005144
v -0.062034 -0.053204 -0.038409
v -0.032034 -0.053204 -0.038409
v -0.032034 -0.023204 -0.038409
v -0.062034 -0.023204 -0.038409
v -0.062034 -0.053204 -0.008409
v -0.032034 -0.053204 -0.008409
v -0.032034 -0.023204 -0.008409
v -0.062034 -0.023204 -0.008409
v -0.083545 -0.042712 -0.067538
v -0.053545 -0.042712 -0.067538
v -0.053545 -0.012712 -0.067538
v -0.083545 -0.012712 -0.067538
v -0.083545 -0.042712 -0.037538
v -0.053545 -0.042712 -0.037538
v -0.053545 -0.012712 -0.037538
v -0.083545 -0.012712 -0.037538
v -0.094564 -0.030775 -0.089151
v -0.064564 -0.030775 -0.089151
v -0.064564 -0.000775 -0.089151
v -0.094564 -0.000775 -0.089151
v -0.094564 -0.030775 -0.059151
v -0.064564 -0.030775 -0.059151
v -0.064564 -0.000775 -0.059151
v -0.094564 -0.000775 -0.059151
v -0.064901 -0.064614 -0.085854
v -0.034901 -0.064614 -0.085854
v -0.034901 -0.034614 -0.085854
v -0.064901 -0.034614 -0.085854
v -0.064901 -0.064614 -0.055854
v -0.034901 -0.064614 -0.055854
v -0.034901 -0.034614 -0.055854
v -0.064901 -0.034614 -0.055854
v -0.088734 -0.067750 -0.095042
v -0.058734 -0.067750 -0.095042
v -0.058734 -0.037750 -0.095042
v -0.088734 -0.037750 -0.095042
v -0.088734 -0.067750 -0.065042
v -0.058734 -0.067750 -0.065042
v -0.058734 -0.037750 -0.065042
v -0.088734 -0.037750 -0.065042
v -0.108931 -0.068063 -0.087234
v -0.078931 -0.068063 -0.087234
v -0.078931 -0.038063 -0.087234
v -0.108931 -0.038063 -0.087234
v -0.108931 -0.068063 -0.057234
v -0.078931 -0.068063 -0.057234
v -0.078931 -0.038063 -0.057234
v -0.108931 -0.038063 -0.057234
v -0.129230 -0.064497 -0.082730
v -0.099230 -0.064497 -0.082730
v -0.099230 -0.034497 -0.082730
v -0.129230 -0.034497 -0.082730
v -0.129230 -0.064497 -0.052730
v -0.099230 -0.064497 -0.052730
v -0.099230 -0.034497 -0.052730
v -0.129230 -0.034497 -0.052730
v -0.063579 -0.049718 -0.093650
v -0.033579 -0.049718 -0.093650
v -0.033579 -0.019718 -0.093650
v -0.063579 -0.019718 -0.093650
v -0.063579 -0.049718 -0.063650
v -0.033579 -0.049718 -0.063650
v -0.033579 -0.019718 -0.063650
v -0.063579 -0.019718 -0.063650
v -0.093223 -0.054079 -0.103088
v -0.063223 -0.054079 -0.103088
v -0.063223 -0.024079 -0.103088
v -0.093223 -0.024079 -0.103088
v -0.093223 -0.054079 -0.073088
v -0.063223 -0.054079 -0.073088
v -0.063223 -0.024079 -0.073088
v -0.093223 -0.024079 -0.073088
v -0.118737 -0.051437 -0.093449
v -0.088737 -0.051437 -0.093449
v -0.088737 -0.021437 -0.093449
v -0.118737 -0.021437 -0.093449
v -0.118737 -0.051437 -0.063449
v -0.088737 -0.051437 -0.063449
v -0.088737 -0.021437 -0.063449
v -0.118737 -0.021437 -0.063449
v -0.142691 -0.052989 -0.073185
v -0.112691 -0.052989 -0.073185
v -0.112691 -0.022989 -0.073185
v -0.142691 -0.022989 -0.073185
v -0.142691 -0.052989 -0.043185
v -0.112691 -0.052989 -0.043185
v -0.112691 -0.022989 -0.043185
v -0.142691 -0.022989 -0.043185
v -0.062467 -0.033471 -0.096003
v -0.032467 -0.033471 -0.096003
v -0.032467 -0.003471 -0.096003
v -0.062467 -0.003471 -0.096003
v -0.062467 -0.033471 -0.066003
v -0.032467 -0.033471 -0.066003
v -0.032467 -0.003471 -0.066003
v -0.062467 -0.003471 -0.066003
v -0.095821 -0.030490 -0.089519
v -0.065821 -0.030490 -0.089519
v -0.065821 -0.000490 -0.089519
v -0.095821 -0.000490 -0.089519
v -0.095821 -0.030490 -0.059519
v -0.065821 -0.030490 -0.059519
v -0.065821 -0.000490 -0.059519
v -0.095821 -0.000490 -0.059519
v -0.096341 -0.030633 -0.065766
v -0.066341 -0.030633 -0.065766
v -0.066341 -0.000633 -0.065766
v -0.096341 -0.000633 -0.065766
v -0.096341 -0.030633 -0.035766
v -0.066341 -0.030633 -0.035766
v -0.066341 -0.000633 -0.035766
v -0.096341 -0.000633 -0.035766
v -0.087774 -0.032928 -0.038668
v -0.057774 -0.032928 -0.038668
v -0.057774 -0.002928 -0.038668
v -0.087774 -0.002928 -0.038668
v -0.087774 -0.032928 -0.008668
v -0.057774 -0.032928 -0.008668
v -0.057774 -0.002928 -0.008668
v -0.087774 -0.002928 -0.008668
v -0.061144 -0.012697 -0.087276
v -0.031144 -0.012697 -0.087276
v -0.031144 0.017303 -0.087276
v -0.061144 0.017303 -0.087276
v -0.061144 -0.012697 -0.057276
v -0.031144 -0.012697 -0.057276
v -0.031144 0.017303 -0.057276
v -0.061144 0.017303 -0.057276
v -0.081751 -0.016545 -0.082174
v -0.051751 -0.016545 -0.082174
v -0.051751 0.013455 -0.082174
v -0.081751 0.013455 -0.082174
v -0.081751 -0.016545 -0.052174
v -0.051751 -0.016545 -0.052174
v -0.051751 0.013455 -0.052174
v -0.081751 0.013455 -0.052174
v -0.088737 -0.020840 -0.062083
v -0.058737 -0.020840 -0.062083
v -0.058737 0.009160 -0.062083
v -0.088737 0.009160 -0.062083
v -0.088737 -0.020840 -0.032083
v -0.058737 -0.020840 -0.032083
v -0.058737 0.009160 -0.032083
v -0.088737 0.009160 -0.032083
v -0.079925 -0.024611 -0.047218
v -0.049925 -0.024611 -0.047218
v -0.049925 0.005389 -0.047218
v -0.079925 0.005389 -0.047218
v -0.079925 -0.024611 -0.017218
v -0.049925 -0.024611 -0.017218
v -0.049925 0.005389 -0.017218
v -0.079925 0.005389 -0.017218
f 1 2 9
f 2 10 9
f 2 3 10
f 3 11 10
f 3 4 11
f 4 12 11
f 4 5 12
f 5 13 12
f 5 6 13
f 6 14 13
f 6 7 14
f 7 15 14
f 7 8 15
f 8 16 15
f 8 1 16
f 1 9 16
f 17 18 25
f 18 26 25
f 18 19 26
f 19 27 26
f 19 20 27
f 20 28 27
f 20 21 28
f 21 29 28
f 21 22 29
f 22 30 29
f 22 23 30
f 23 31 30
f 23 24 31
f 24 32 31
f 24 17 32
f 17 25 32
f 33 34 41
f 34 42 41
f 34 35 42
f 35 43 42
f 35 36 43
f 36 44 43
f 36 37 44
f 37 45 44
f 37 38 45
f 38 46 45
f 38 39 46
f 39 47 46
f 39 40 47
f 40 48 47
f 40 33 48
f 33 41 48
f 49 50 57
f 50 58 57
f 50 51 58
f 51 59 58
f 51 52 59
f 52 60 59
f 52 53 60
f 53 61 60
f 53 54 61
f 54 62 61
f 54 55 62
f 55 63 62
f 55 56 63
f 56 64 63
f 56 49 64
f 49 57 64
f 65 66 73
f 66 74 73
f 66 67 74
f 67 75 74
f 67 68 75
f 68 76 75
f 68 69 76
f 69 77 76
f 69 70 77
f 70 78 77
f 70 71 78
f 71 79 78
f 71 72 79
f 72 80 79
f 72 65 80
f 65 73 80
f 81 82 89
f 82 90 89
f 82 83 90
f 83 91 90
f 83 84 91
f 84 92 91
f 84 85 92
f 85 93 92
f 85 86 93
f 86 94 93
f 86 87 94
f 87 95 94
f 87 88 95
f 88 96 95
f 88 81 96
f 81 89 96
f 97 98 105
f 98 106 105
f 98 99 106
f 99 107 106
f 99 100 107
f 100 108 107
f 100 101 108
f 101 109 108
f 101 102 109
f 102 110 109
f 102 103 110
f 103 111 110
f 103 104 111
f 104 112 111
f 104 97 112
f 97 105 112
f 113 114 121
f 114 122 121
f 114 115 122
f 115 123 122
f 115 116 123
f 116 124 123
f 116 117 124
f 117 125 124
f 117 118 125
f 118 126 125
f 118 119 126
f 119 127 126
f 119 120 127
f 120 128 127
f 120 113 128
f 113 121 128
f 129 130 137
f 130 138 137
f 130 131 138
f 131 139 138
f 131 132 139
f 132 140 139
f 132 133 140
f 133 141 140
f 133 134 141
f 134 142 141
f 134 135 142
f 135 143 142
f 135 136 143
f 136 144 143
f 136 129 144
f 129 137 144
f 145 146 153
f 146 154 153
f 146 147 154
f 147 155 154
f 147 148 155
f 148 156 155
f 148 149 156
f 149 157 156
f 149 150 157
f 150 158 157
f 150 151 158
f 151 159 158
f 151 152 159
f 152 160 159
f 152 145 160
f 145 153 160
f 161 162 169
f 162 170 169
f 162 163 170
f 163 171 170
f 163 164 171
f 164 172 171
f 164 165 172
f 165 173 172
f 165 166 173
f 166 174 173
f 166 167 174
f 167 175 174
f 167 168 175
f 168 176 175
f 168 161 176
f 161 169 176
f 177 178 185
f 178 186 185
f 178 179 186
f 179 187 186
f 179 180 187
f 180 188 187
f 180 181 188
f 181 189 188
f 181 182 189
f 182 190 189
f 182 183 190
f 183 191 190
f 183 184 191
f 184 192 191
f 184 177 192
f 177 185 192
f 193 194 201
f 194 202 201
f 194 195 202
f 195 203 202
f 195 196 203
f 196 204 203
f 196 197 204
f 197 205 204
f 197 198 205
f 198 206 205
f 198 199 206
f 199 207 206
f 199 200 207
f 200 208 207
f 200 193 208
f 193 201 208
f 209 210 217
f 210 218 217
f 210 211 218
f 211 219 218
f 211 212 219
f 212 220 219
f 212 213 220
f 213 221 220
f 213 214 221
f 214 222 221
f 214 215 222
f 215 223 222
f 215 216 223
f 216 224 223
f 216 209 224
f 209 217 224
f 225 226 233
f 226 234 233
f 226 227 234
f 227 235 234
f 227 228 235
f 228 236 235
f 228 229 236
f 229 237 236
f 229 230 237
f 230 238 237
f 230 231 238
f 231 239 238
f 231 232 239
f 232 240 239
f 232 225 240
f 225 233 240
f 241 242 249
f 242 250 249
f 242 243 250
f 243 251 250
f 243 244 251
f 244 252 251
f 244 245 252
f 245 253 252
f 245 246 253
f 246 254 253
f 246 247 254
f 247 255 254
f 247 248 255
f 248 256 255
f 248 241 256
f 241 249 256
f 257 258 265
f 258 266 265
f 258 259 266
f 259 267 266
f 259 260 267
f 260 268 267
f 260 261 268
f 261 269 268
f 261 262 269
f 262 270 269
f 262 263 270
f 263 271 270
f 263 264 271
f 264 272 271
f 264 257 272
f 257 265 272
f 273 274 281
f 274 282 281
f 274 275 282
f 275 283 282
f 275 276 283
f 276 284 283
f 276 277 284
f 277 285 284
f 277 278 285
f 278 286 285
f 278 279 286
f 279 287 286
f 279 280 287
f 280 288 287
f 280 273 288
f 273 281 288
f 289 290 297
f 290 298 297
f 290 291 298
f 291 299 298
f 291 292 299
f 292 300 299
f 292 293 300
f 293 301 300
f 293 294 301
f 294 302 301
f 294 295 302
f 295 303 302
f 295 296 303
f 296 304 303
f 296 289 304
f 289 297 304
f 305 306 313
f 306 314 313
f 306 307 314
f 307 315 314
f 307 308 315
f 308 316 315
f 308 309 316
f 309 317 316
f 309 310 317
f 310 318 317
f 310 311 318
f 311 319 318
f 311 312 319
f 312 320 319
f 312 305 320
f 305 313 320
f 321 322 323
f 321 323 324
f 325 326 327
f 325 327 328
f 321 325 326
f 321 326 322
f 322 326 327
f 322 327 323
f 323 327 328
f 323 328 324
f 324 328 325
f 324 325 321
f 329 330 331
f 329 331 332
f 333 334 335
f 333 335 336
f 329 333 334
f 329 334 330
f 330 334 335
f 330 335 331
f 331 335 336
f 331 336 332
f 332 336 333
f 332 333 329
f 337 338 339
f 337 339 340
f 341 342 343
f 341 343 344
f 337 341 342
f 337 342 338
f 338 342 343
f 338 343 339
f 339 343 344
f 339 344 340
f 340 344 341
f 340 341 337
f 345 346 347
f 345 347 348
f 349 350 351
f 349 351 352
f 345 349 350
f 345 350 346
f 346 350 351
f 346 351 347
f 347 351 352
f 347 352 348
f 348 352 349
f 348 349 345
f 353 354 355
f 353 355 356
f 357 358 359
f 357 359 360
f 353 357 358
f 353 358 354
f 354 358 359
f 354 359 355
f 355 359 360
f 355 360 356
f 356 360 357
f 356 357 353
f 361 362 363
f 361 363 364
f 365 366 367
f 365 367 368
f 361 365 366
f 361 366 362
f 362 366 367
f 362 367 363
f 363 367 368
f 363 368 364
f 364 368 365
f 364 365 361
f 369 370 371
f 369 371 372
f 373 374 375
f 373 375 376
f 369 373 374
f 369 374 370
f 370 374 375
f 370 375 371
f 371 375 376
f 371 376 372
f 372 376 373
f 372 373 369
f 377 378 379
f 377 379 380
f 381 382 383
f 381 383 384
f 377 381 382
f 377 382 378
f 378 382 383
f 378 383 379
f 379 383 384
f 379 384 380
f 380 384 381
f 380 381 377
f 385 386 387
f 385 387 388
f 389 390 391
f 389 391 392
f 385 389 390
f 385 390 386
f 386 390 391
f 386 391 387
f 387 391 392
f 387 392 388
f 388 392 389
f 388 389 385
f 393 394 395
f 393 395 396
f 397 398 399
f 397 399 400
f 393 397 398
f 393 398 394
f 394 398 399
f 394 399 395
f 395 399 400
f 395 400 396
f 396 400 397
f 396 397 393
f 401 402 403
f 401 403 404
f 405 406 407
f 405 407 408
f 401 405 406
f 401 406 402
f 402 406 407
f 402 407 403
f 403 407 408
f 403 408 404
f 404 408 405
f 404 405 401
f 409 410 411
f 409 411 412
f 413 414 415
f 413 415 416
f 409 413 414
f 409 414 410
f 410 414 415
f 410 415 411
f 411 415 416
f 411 416 412
f 412 416 413
f 412 413 409
f 417 418 419
f 417 419 420
f 421 422 423
f 421 423 424
f 417 421 422
f 417 422 418
f 418 422 423
f 418 423 419
f 419 423 424
f 419 424 420
f 420 424 421
f 420 421 417
f 425 426 427
f 425 427 428
f 429 430 431
f 429 431 432
f 425 429 430
f 425 430 426
f 426 430 431
f 426 431 427
f 427 431 432
f 427 432 428
f 428 432 429
f 428 429 425
f 433 434 435
f 433 435 436
f 437 438 439
f 437 439 440
f 433 437 438
f 433 438 434
f 434 438 439
f 434 439 435
f 435 439 440
f 435 440 436
f 436 440 437
f 436 437 433
f 441 442 443
f 441 443 444
f 445 446 447
f 445 447 448
f 441 445 446
f 441 446 442
f 442 446 447
f 442 447 443
f 443 447 448
f 443 448 444
f 444 448 445
f 444 445 441
f 449 450 451
f 449 451 452
f 453 454 455
f 453 455 456
f 449 453 454
f 449 454 450
f 450 454 455
f 450 455 451
f 451 455 456
f 451 456 452
f 452 456 453
f 452 453 449
f 457 458 459
f 457 459 460
f 461 462 463
f 461 463 464
f 457 461 462
f 457 462 458
f 458 462 463
f 458 463 459
f 459 463 464
f 459 464 460
f 460 464 461
f 460 461 457
f 465 466 467
f 465 467 468
f 469 470 471
f 469 471 472
f 465 469 470
f 465 470 466
f 466 470 471
f 466 471 467
f 467 471 472
f 467 472 468
f 468 472 469
f 468 469 465
f 473 474 475
f 473 475 476
f 477 478 479
f 477 479 480
f 473 477 478
f 473 478 474
f 474 478 479
f 474 479 475
f 475 479 480
f 475 480 476
f 476 480 477
f 476 477 473
f 481 482 483
f 481 483 484
f 485 486 487
f 485 487 488
f 481 485 486
f 481 486 482
f 482 486 487
f 482 487 483
f 483 487 488
f 483 488 484
f 484 488 485
f 484 485 481
f 489 490 497
f 490 498 497
f 490 491 498
f 491 499 498
f 491 492 499
f 492 500 499
f 492 493 500
f 493 501 500
f 493 494 501
f 494 502 501
f 494 495 502
f 495 503 502
f 495 496 503
f 496 504 503
f 496 489 504
f 489 497 504
f 505 506 513
f 506 514 513
f 506 507 514
f 507 515 514
f 507 508 515
f 508 516 515
f 508 509 516
f 509 517 516
f 509 510 517
f 510 518 517
f 510 511 518
f 511 519 518
f 511 512 519
f 512 520 519
f 512 505 520
f 505 513 520
f 521 522 529
f 522 530 529
f 522 523 530
f 523 531 530
f 523 524 531
f 524 532 531
f 524 525 532
f 525 533 532
f 525 526 533
f 526 534 533
f 526 527 534
f 527 535 534
f 527 528 535
f 528 536 535
f 528 521 536
f 521 529 536
f 537 538 545
f 538 546 545
f 538 539 546
f 539 547 546
f 539 540 547
f 540 548 547
f 540 541 548
f 541 549 548
f 541 542 549
f 542 550 549
f 542 543 550
f 543 551 550
f 543 544 551
f 544 552 551
f 544 537 552
f 537 545 552
f 553 554 561
f 554 562 561
f 554 555 562
f 555 563 562
f 555 556 563
f 556 564 563
f 556 557 564
f 557 565 564
f 557 558 565
f 558 566 565
f 558 559 566
f 559 567 566
f 559 560 567
f 560 568 567
f 560 553 568
f 553 561 568
f 569 570 577
f 570 578 577
f 570 571 578
f 571 579 578
f 571 572 579
f 572 580 579
f 572 573 580
f 573 581 580
f 573 574 581
f 574 582 581
f 574 575 582
f 575 583 582
f 575 576 583
f 576 584 583
f 576 569 584
f 569 577 584
f 585 586 593
f 586 594 593
f 586 587 594
f 587 595 594
f 587 588 595
f 588 596 595
f 588 589 596
f 589 597 596
f 589 590 597
f 590 598 597
f 590 591 598
f 591 599 598
f 591 592 599
f 592 600 599
f 592 585 600
f 585 593 600
f 601 602 609
f 602 610 609
f 602 603 610
f 603 611 610
f 603 604 611
f 604 612 611
f 604 605 612
f 605 613 612
f 605 606 613
f 606 614 613
f 606 607 614
f 607 615 614
f 607 608 615
f 608 616 615
f 608 601 616
f 601 609 616
f 617 618 625
f 618 626 625
f 618 619 626
f 619 627 626
f 619 620 627
f 620 628 627
f 620 621 628
f 621 629 628
f 621 622 629
f 622 630 629
f 622 623 630
f 623 631 630
f 623 624 631
f 624 632 631
f 624 617 632
f 617 625 632
f 633 634 641
f 634 642 641
f 634 635 642
f 635 643 642
f 635 636 643
f 636 644 643
f 636 637 644
f 637 645 644
f 637 638 645
f 638 646 645
f 638 639 646
f 639 647 646
f 639 640 647
f 640 648 647
f 640 633 648
f 633 641 648
f 649 650 657
f 650 658 657
f 650 651 658
f 651 659 658
f 651 652 659
f 652 660 659
f 652 653 660
f 653 661 660
f 653 654 661
f 654 662 661
f 654 655 662
f 655 663 662
f 655 656 663
f 656 664 663
f 656 649 664
f 649 657 664
f 665 666 673
f 666 674 673
f 666 667 674
f 667 675 674
f 667 668 675
f 668 676 675
f 668 669 676
f 669 677 676
f 669 670 677
f 670 678 677
f 670 671 678
f 671 679 678
f 671 672 679
f 672 680 679
f 672 665 680
f 665 673 680
f 681 682 689
f 682 690 689
f 682 683 690
f 683 691 690
f 683 684 691
f 684 692 691
f 684 685 692
f 685 693 692
f 685 686 693
f 686 694 693
f 686 687 694
f 687 695 694
f 687 688 695
f 688 696 695
f 688 681 696
f 681 689 696
f 697 698 705
f 698 706 705
f 698 699 706
f 699 707 706
f 699 700 707
f 700 708 707
f 700 701 708
f 701 709 708
f 701 702 709
f 702 710 709
f 702 703 710
f 703 711 710
f 703 704 711
f 704 712 711
f 704 697 712
f 697 705 712
f 713 714 721
f 714 722 721
f 714 715 722
f 715 723 722
f 715 716 723
f 716 724 723
f 716 717 724
f 717 725 724
f 717 718 725
f 718 726 725
f 718 719 726
f 719 727 726
f 719 720 727
f 720 728 727
f 720 713 728
f 713 721 728
f 729 730 737
f 730 738 737
f 730 731 738
f 731 739 738
f 731 732 739
f 732 740 739
f 732 733 740
f 733 741 740
f 733 734 741
f 734 742 741
f 734 735 742
f 735 743 742
f 735 736 743
f 736 744 743
f 736 729 744
f 729 737 744
f 745 746 753
f 746 754 753
f 746 747 754
f 747 755 754
f 747 748 755
f 748 756 755
f 748 749 756
f 749 757 756
f 749 750 757
f 750 758 757
f 750 751 758
f 751 759 758
f 751 752 759
f 752 760 759
f 752 745 760
f 745 753 760
f 761 762 769
f 762 770 769
f 762 763 770
f 763 771 770
f 763 764 771
f 764 772 771
f 764 765 772
f 765 773 772
f 765 766 773
f 766 774 773
f 766 767 774
f 767 775 774
f 767 768 775
f 768 776 775
f 768 761 776
f 761 769 776
f 777 778 785
f 778 786 785
f 778 779 786
f 779 787 786
f 779 780 787
f 780 788 787
f 780 781 788
f 781 789 788
f 781 782 789
f 782 790 789
f 782 783 790
f 783 791 790
f 783 784 791
f 784 792 791
f 784 777 792
f 777 785 792
f 793 794 801
f 794 802 801
f 794 795 802
f 795 803 802
f 795 796 803
f 796 804 803
f 796 797 804
f 797 805 804
f 797 798 805
f 798 806 805
f 798 799 806
f 799 807 806
f 799 800 807
f 800 808 807
f 800 793 808
f 793 801 808
f 809 810 811
f 809 811 812
f 813 814 815
f 813 815 816
f 809 813 814
f 809 814 810
f 810 814 815
f 810 815 811
f 811 815 816
f 811 816 812
f 812 816 813
f 812 813 809
f 817 818 819
f 817 819 820
f 821 822 823
f 821 823 824
f 817 821 822
f 817 822 818
f 818 822 823
f 818 823 819
f 819 823 824
f 819 824 820
f 820 824 821
f 820 821 817
f 825 826 827
f 825 827 828
f 829 830 831
f 829 831 832
f 825 829 830
f 825 830 826
f 826 830 831
f 826 831 827
f 827 831 832
f 827 832 828
f 828 832 829
f 828 829 825
f 833 834 835
f 833 835 836
f 837 838 839
f 837 839 840
f 833 837 838
f 833 838 834
f 834 838 839
f 834 839 835
f 835 839 840
f 835 840 836
f 836 840 837
f 836 837 833
f 841 842 843
f 841 843 844
f 845 846 847
f 845 847 848
f 841 845 846
f 841 846 842
f 842 846 847
f 842 847 843
f 843 847 848
f 843 848 844
f 844 848 845
f 844 845 841
f 849 850 851
f 849 851 852
f 853 854 855
f 853 855 856
f 849 853 854
f 849 854 850
f 850 854 855
f 850 855 851
f 851 855 856
f 851 856 852
f 852 856 853
f 852 853 849
f 857 858 859
f 857 859 860
f 861 862 863
f 861 863 864
f 857 861 862
f 857 862 858
f 858 862 863
f 858 863 859
f 859 863 864
f 859 864 860
f 860 864 861
f 860 861 857
f 865 866 867
f 865 867 868
f 869 870 871
f 869 871 872
f 865 869 870
f 865 870 866
f 866 870 871
f 866 871 867
f 867 871 872
f 867 872 868
f 868 872 869
f 868 869 865
f 873 874 875
f 873 875 876
f 877 878 879
f 877 879 880
f 873 877 878
f 873 878 874
f 874 878 879
f 874 879 875
f 875 879 880
f 875 880 876
f 876 880 877
f 876 877 873
f 881 882 883
f 881 883 884
f 885 886 887
f 885 887 888
f 881 885 886
f 881 886 882
f 882 886 887
f 882 887 883
f 883 887 888
f 883 888 884
f 884 888 885
f 884 885 881
f 889 890 891
f 889 891 892
f 893 894 895
f 893 895 896
f 889 893 894
f 889 894 890
f 890 894 895
f 890 895 891
f 891 895 896
f 891 896 892
f 892 896 893
f 892 893 889
f 897 898 899
f 897 899 900
f 901 902 903
f 901 903 904
f 897 901 902
f 897 902 898
f 898 902 903
f 898 903 899
f 899 903 904
f 899 904 900
f 900 904 901
f 900 901 897
f 905 906 907
f 905 907 908
f 909 910 911
f 909 911 912
f 905 909 910
f 905 910 906
f 906 910 911
f 906 911 907
f 907 911 912
f 907 912 908
f 908 912 909
f 908 909 905
f 913 914 915
f 913 915 916
f 917 918 919
f 917 919 920
f 913 917 918
f 913 918 914
f 914 918 919
f 914 919 915
f 915 919 920
f 915 920 916
f 916 920 917
f 916 917 913
f 921 922 923
f 921 923 924
f 925 926 927
f 925 927 928
f 921 925 926
f 921 926 922
f 922 926 927
f 922 927 923
f 923 927 928
f 923 928 924
f 924 928 925
f 924 925 921
f 929 930 931
f 929 931 932
f 933 934 935
f 933 935 936
f 929 933 934
f 929 934 930
f 930 934 935
f 930 935 931
f 931 935 936
f 931 936 932
f 932 936 933
f 932 933 929
f 937 938 939
f 937 939 940
f 941 942 943
f 941 943 944
f 937 941 942
f 937 942 938
f 938 942 943
f 938 943 939
f 939 943 944
f 939 944 940
f 940 944 941
f 940 941 937
f 945 946 947
f 945 947 948
f 949 950 951
f 949 951 952
f 945 949 950
f 945 950 946
f 946 950 951
f 946 951 947
f 947 951 952
f 947 952 948
f 948 952 949
f 948 949 945
f 953 954 955
f 953 955 956
f 957 958 959
f 957 959 960
f 953 957 958
f 953 958 954
f 954 958 959
f 954 959 955
f 955 959 960
f 955 960 956
f 956 960 957
f 956 957 953
f 961 962 963
f 961 963 964
f 965 966 967
f 965 967 968
f 961 965 966
f 961 966 962
f 962 966 967
f 962 967 963
f 963 967 968
f 963 968 964
f 964 968 965
f 964 965 961
f 969 970 971
f 969 971 972
f 973 974 975
f 973 975 976
f 969 973 974
f 969 974 970
f 970 974 975
f 970 975 971
f 971 975 976
f 971 976 972
f 972 976 973
f 972 973 969
