# SignFlow 3D Hand Mesh - Frame 221
v 0.000000 -0.006157 0.019029
v -0.006674 -0.016216 0.009617
v -0.009439 -0.016776 -0.005429
v -0.006674 -0.007508 -0.017294
v -0.000000 0.006157 -0.019029
v 0.006674 0.016216 -0.009617
v 0.009439 0.016776 0.005429
v 0.006674 0.007508 0.017294
v 0.035251 -0.024111 0.013219
v 0.028576 -0.034170 0.003807
v 0.025812 -0.034730 -0.011238
v 0.028576 -0.025462 -0.023103
v 0.035251 -0.011796 -0.024838
v 0.041925 -0.001737 -0.015426
v 0.044689 -0.001178 -0.000381
v 0.041925 -0.010445 0.011484
v 0.035251 -0.025692 0.012632
v 0.024642 -0.032050 0.003612
v 0.020248 -0.030150 -0.010927
v 0.024642 -0.021105 -0.022469
v 0.035251 -0.010215 -0.024252
v 0.045859 -0.003858 -0.015231
v 0.050253 -0.005758 -0.000692
v 0.045859 -0.014802 0.010850
v 0.056132 -0.047533 0.003468
v 0.045524 -0.053890 -0.005553
v 0.041130 -0.051990 -0.020092
v 0.045524 -0.042946 -0.031634
v 0.056132 -0.032055 -0.033417
v 0.066740 -0.025698 -0.024396
v 0.071134 -0.027598 -0.009857
v 0.066740 -0.036642 0.001685
v 0.056132 -0.051424 0.001297
v 0.042010 -0.048630 -0.003907
v 0.036161 -0.040660 -0.015593
v 0.042010 -0.032183 -0.026917
v 0.056132 -0.028164 -0.031245
v 0.070254 -0.030958 -0.026042
v 0.076104 -0.038928 -0.014356
v 0.070254 -0.047405 -0.003031
v 0.058021 -0.080255 -0.019310
v 0.043899 -0.077461 -0.024514
v 0.038049 -0.069491 -0.036200
v 0.043899 -0.061014 -0.047524
v 0.058021 -0.056995 -0.051852
v 0.072143 -0.059789 -0.046649
v 0.077992 -0.067759 -0.034963
v 0.072143 -0.076236 -0.023639
v 0.058021 -0.077567 -0.017692
v 0.045156 -0.069694 -0.020305
v 0.039828 -0.061194 -0.031867
v 0.045156 -0.057047 -0.045605
v 0.058021 -0.059682 -0.053471
v 0.070885 -0.067556 -0.050858
v 0.076214 -0.076055 -0.039296
v 0.070885 -0.080202 -0.025558
v 0.045851 -0.101408 -0.029609
v 0.032986 -0.093535 -0.032222
v 0.027657 -0.085035 -0.043784
v 0.032986 -0.080888 -0.057522
v 0.045851 -0.083523 -0.065388
v 0.058715 -0.091397 -0.062775
v 0.064044 -0.099896 -0.051213
v 0.058715 -0.104043 -0.037475
v 0.000000 0.001114 0.019969
v -0.012418 -0.005968 0.014497
v -0.017562 -0.009555 0.000533
v -0.012418 -0.007544 -0.013743
v -0.000000 -0.001114 -0.019969
v 0.012418 0.005968 -0.014497
v 0.017562 0.009555 -0.000533
v 0.012418 0.007544 0.013743
v 0.049281 -0.089184 0.025008
v 0.036863 -0.096266 0.019537
v 0.031719 -0.099853 0.005573
v 0.036863 -0.097842 -0.008704
v 0.049281 -0.091413 -0.014929
v 0.061699 -0.084330 -0.009458
v 0.066843 -0.080743 0.004506
v 0.061699 -0.082754 0.018783
v 0.049281 -0.095295 0.024405
v 0.035812 -0.098007 0.017656
v 0.030234 -0.096204 0.003516
v 0.035812 -0.090941 -0.009732
v 0.049281 -0.085301 -0.014326
v 0.062749 -0.082589 -0.007577
v 0.068328 -0.084392 0.006563
v 0.062749 -0.089655 0.019811
v 0.058368 -0.122772 0.017315
v 0.044899 -0.125485 0.010566
v 0.039320 -0.123681 -0.003574
v 0.044899 -0.118418 -0.016822
v 0.058368 -0.112779 -0.021416
v 0.071836 -0.110066 -0.014667
v 0.077415 -0.111870 -0.000527
v 0.071836 -0.117133 0.012721
v 0.058368 -0.121532 0.017594
v 0.044399 -0.122603 0.011425
v 0.038614 -0.120847 -0.002638
v 0.044399 -0.117291 -0.016356
v 0.058368 -0.114019 -0.021694
v 0.072336 -0.112948 -0.015526
v 0.078122 -0.114705 -0.001463
v 0.072336 -0.118260 0.012255
v 0.061805 -0.142860 0.013515
v 0.047836 -0.143931 0.007346
v 0.042051 -0.142174 -0.006716
v 0.047836 -0.138618 -0.020435
v 0.061805 -0.135346 -0.025773
v 0.075773 -0.134275 -0.019604
v 0.081559 -0.136032 -0.005542
v 0.075773 -0.139588 0.008177
v 0.061805 -0.153850 0.007382
v 0.047669 -0.149245 0.003736
v 0.041814 -0.138700 -0.005689
v 0.047669 -0.128390 -0.015371
v 0.061805 -0.124357 -0.019640
v 0.075940 -0.128961 -0.015994
v 0.081796 -0.139507 -0.006570
v 0.075940 -0.149816 0.003113
v 0.060953 -0.173100 -0.013629
v 0.046817 -0.168495 -0.017275
v 0.040962 -0.157950 -0.026699
v 0.046817 -0.147641 -0.036382
v 0.060953 -0.143607 -0.040651
v 0.075089 -0.148212 -0.037005
v 0.080944 -0.158757 -0.027580
v 0.075089 -0.169066 -0.017898
v 0.000000 0.000636 0.019990
v -0.013593 -0.003450 0.014259
v -0.019224 -0.005515 0.000175
v -0.013593 -0.004349 -0.014011
v -0.000000 -0.000636 -0.019990
v 0.013593 0.003450 -0.014259
v 0.019224 0.005515 -0.000175
v 0.013593 0.004349 0.014011
v 0.028155 -0.097411 0.023109
v 0.014562 -0.101497 0.017378
v 0.008931 -0.103561 0.003294
v 0.014562 -0.102396 -0.010892
v 0.028155 -0.098683 -0.016871
v 0.041748 -0.094597 -0.011140
v 0.047379 -0.092532 0.002944
v 0.041748 -0.093698 0.017130
v 0.028155 -0.101588 0.022803
v 0.014762 -0.105020 0.016234
v 0.009214 -0.104368 0.001982
v 0.014762 -0.100013 -0.011604
v 0.028155 -0.094506 -0.016565
v 0.041548 -0.091073 -0.009996
v 0.047096 -0.091725 0.004256
v 0.041548 -0.096081 0.017842
v 0.040550 -0.137564 0.016331
v 0.027157 -0.140997 0.009762
v 0.021610 -0.140344 -0.004490
v 0.027157 -0.135989 -0.018075
v 0.040550 -0.130482 -0.023037
v 0.053943 -0.127050 -0.016467
v 0.059491 -0.127702 -0.002216
v 0.053943 -0.132057 0.011370
v 0.040550 -0.143492 0.014264
v 0.026579 -0.142646 0.008068
v 0.020791 -0.136749 -0.004818
v 0.026579 -0.129255 -0.016845
v 0.040550 -0.124554 -0.020969
v 0.054522 -0.125401 -0.014774
v 0.060310 -0.131298 -0.001888
v 0.054522 -0.138792 0.010140
v 0.044276 -0.164447 0.003001
v 0.030304 -0.163601 -0.003195
v 0.024516 -0.157703 -0.016081
v 0.030304 -0.150210 -0.028108
v 0.044276 -0.145509 -0.032232
v 0.058248 -0.146355 -0.026037
v 0.064035 -0.152253 -0.013151
v 0.058248 -0.159746 -0.001123
v 0.044276 -0.162663 0.003849
v 0.030720 -0.164133 -0.003108
v 0.025105 -0.160239 -0.016806
v 0.030720 -0.153264 -0.029221
v 0.044276 -0.147293 -0.033080
v 0.057831 -0.145823 -0.026124
v 0.063446 -0.149717 -0.012426
v 0.057831 -0.156692 -0.000011
v 0.052147 -0.187109 -0.006326
v 0.038591 -0.188578 -0.013283
v 0.032976 -0.184685 -0.026981
v 0.038591 -0.177710 -0.039395
v 0.052147 -0.171739 -0.043255
v 0.065703 -0.170269 -0.036299
v 0.071318 -0.174162 -0.022601
v 0.065703 -0.181138 -0.010186
v 0.000000 -0.001641 0.019933
v -0.014067 -0.002615 0.013975
v -0.019893 -0.002058 -0.000169
v -0.014067 -0.000295 -0.014214
v -0.000000 0.001641 -0.019933
v 0.014067 0.002615 -0.013975
v 0.019893 0.002058 0.000169
v 0.014067 0.000295 0.014214
v 0.010255 -0.100106 0.011827
v -0.003812 -0.101080 0.005870
v -0.009638 -0.100523 -0.008275
v -0.003812 -0.098760 -0.022319
v 0.010255 -0.096824 -0.028038
v 0.024322 -0.095850 -0.022080
v 0.030148 -0.096407 -0.007936
v 0.024322 -0.098170 0.006109
v 0.010255 -0.100181 0.011821
v -0.002915 -0.104812 0.005543
v -0.008371 -0.105724 -0.008730
v -0.002915 -0.102385 -0.022637
v 0.010255 -0.096749 -0.028031
v 0.023425 -0.092118 -0.021753
v 0.028880 -0.091205 -0.007480
v 0.023425 -0.094545 0.006427
v 0.021912 -0.129870 0.009264
v 0.008742 -0.134501 0.002986
v 0.003287 -0.135414 -0.011287
v 0.008742 -0.132074 -0.025194
v 0.021912 -0.126438 -0.030588
v 0.035083 -0.121807 -0.024310
v 0.040538 -0.120895 -0.010037
v 0.035083 -0.124234 0.003870
v 0.021912 -0.134957 0.008145
v 0.008466 -0.137084 0.001147
v 0.002896 -0.133980 -0.012769
v 0.008466 -0.127463 -0.025451
v 0.021912 -0.121351 -0.029470
v 0.035359 -0.119224 -0.022471
v 0.040929 -0.122328 -0.008555
v 0.035359 -0.128845 0.004127
v 0.029112 -0.155737 0.000629
v 0.015665 -0.157864 -0.006369
v 0.010096 -0.154760 -0.020286
v 0.015665 -0.148244 -0.032967
v 0.029112 -0.142132 -0.036986
v 0.042558 -0.140004 -0.029987
v 0.048128 -0.143108 -0.016071
v 0.042558 -0.149625 -0.003389
v 0.029112 -0.154480 0.001037
v 0.016054 -0.158074 -0.006097
v 0.010646 -0.156315 -0.020308
v 0.016054 -0.150232 -0.033272
v 0.029112 -0.143389 -0.037394
v 0.042169 -0.139794 -0.030260
v 0.047578 -0.141554 -0.016048
v 0.042169 -0.147637 -0.003085
v 0.038585 -0.176358 -0.005277
v 0.025527 -0.179953 -0.012411
v 0.020119 -0.178193 -0.026622
v 0.025527 -0.172110 -0.039586
v 0.038585 -0.165267 -0.043708
v 0.051642 -0.161673 -0.036574
v 0.057051 -0.163432 -0.022362
v 0.051642 -0.169515 -0.009399
v 0.000000 -0.004206 0.019553
v -0.014098 -0.001877 0.014062
v -0.019937 0.001552 0.000334
v -0.014098 0.004072 -0.013590
v -0.000000 0.004206 -0.019553
v 0.014098 0.001877 -0.014062
v 0.019937 -0.001552 -0.000334
v 0.014098 -0.004072 0.013590
v -0.007037 -0.090617 0.000963
v -0.021134 -0.088288 -0.004528
v -0.026974 -0.084859 -0.018256
v -0.021134 -0.082339 -0.032179
v -0.007037 -0.082205 -0.038142
v 0.007061 -0.084534 -0.032651
v 0.012900 -0.087963 -0.018923
v 0.007061 -0.090483 -0.005000
v -0.007037 -0.086719 0.001408
v -0.021137 -0.087725 -0.004466
v -0.026977 -0.087961 -0.018613
v -0.021137 -0.087289 -0.032747
v -0.007037 -0.086103 -0.038587
v 0.007063 -0.085097 -0.032713
v 0.012903 -0.084860 -0.018566
v 0.007063 -0.085532 -0.004432
v -0.005079 -0.111896 0.001020
v -0.019178 -0.112902 -0.004854
v -0.025019 -0.113138 -0.019001
v -0.019178 -0.112466 -0.033135
v -0.005079 -0.111280 -0.038975
v 0.009021 -0.110274 -0.033101
v 0.014861 -0.110037 -0.018953
v 0.009021 -0.110709 -0.004820
v -0.005079 -0.113874 0.000892
v -0.018567 -0.117426 -0.005414
v -0.024154 -0.117558 -0.019664
v -0.018567 -0.114194 -0.033513
v -0.005079 -0.109302 -0.038846
v 0.008410 -0.105750 -0.032541
v 0.013997 -0.105617 -0.018291
v 0.008410 -0.108982 -0.004442
v 0.002210 -0.136855 -0.001752
v -0.011279 -0.140408 -0.008057
v -0.016866 -0.140540 -0.022308
v -0.011279 -0.137175 -0.036156
v 0.002210 -0.132284 -0.041490
v 0.015698 -0.128731 -0.035185
v 0.021285 -0.128599 -0.020934
v 0.015698 -0.131964 -0.007086
v 0.002210 -0.144369 -0.004186
v -0.011041 -0.145806 -0.011714
v -0.016530 -0.140661 -0.025045
v -0.011041 -0.131947 -0.036370
v 0.002210 -0.124770 -0.039056
v 0.015460 -0.123333 -0.031528
v 0.020949 -0.128478 -0.018197
v 0.015460 -0.137192 -0.006872
v 0.009620 -0.161694 -0.013924
v -0.003631 -0.163130 -0.021452
v -0.009120 -0.157985 -0.034782
v -0.003631 -0.149272 -0.046108
v 0.009620 -0.142094 -0.048793
v 0.022871 -0.140657 -0.041266
v 0.028360 -0.145803 -0.027935
v 0.022871 -0.154516 -0.016610
v -0.015000 -0.015000 -0.015000
v 0.015000 -0.015000 -0.015000
v 0.015000 0.015000 -0.015000
v -0.015000 0.015000 -0.015000
v -0.015000 -0.015000 0.015000
v 0.015000 -0.015000 0.015000
v 0.015000 0.015000 0.015000
v -0.015000 0.015000 0.015000
v 0.020251 -0.032954 -0.020810
v 0.050251 -0.032954 -0.020810
v 0.050251 -0.002954 -0.020810
v 0.020251 -0.002954 -0.020810
v 0.020251 -0.032954 0.009190
v 0.050251 -0.032954 0.009190
v 0.050251 -0.002954 0.009190
v 0.020251 -0.002954 0.009190
v 0.041132 -0.054794 -0.029974
v 0.071132 -0.054794 -0.029974
v 0.071132 -0.024794 -0.029974
v 0.041132 -0.024794 -0.029974
v 0.041132 -0.054794 0.000026
v 0.071132 -0.054794 0.000026
v 0.071132 -0.024794 0.000026
v 0.041132 -0.024794 0.000026
v 0.043021 -0.083625 -0.050581
v 0.073021 -0.083625 -0.050581
v 0.073021 -0.053625 -0.050581
v 0.043021 -0.053625 -0.050581
v 0.043021 -0.083625 -0.020581
v 0.073021 -0.083625 -0.020581
v 0.073021 -0.053625 -0.020581
v 0.043021 -0.053625 -0.020581
v 0.030851 -0.107466 -0.062499
v 0.060851 -0.107466 -0.062499
v 0.060851 -0.077466 -0.062499
v 0.030851 -0.077466 -0.062499
v 0.030851 -0.107466 -0.032499
v 0.060851 -0.107466 -0.032499
v 0.060851 -0.077466 -0.032499
v 0.030851 -0.077466 -0.032499
v 0.034281 -0.105298 -0.009960
v 0.064281 -0.105298 -0.009960
v 0.064281 -0.075298 -0.009960
v 0.034281 -0.075298 -0.009960
v 0.034281 -0.105298 0.020040
v 0.064281 -0.105298 0.020040
v 0.064281 -0.075298 0.020040
v 0.034281 -0.075298 0.020040
v 0.043368 -0.132776 -0.017050
v 0.073368 -0.132776 -0.017050
v 0.073368 -0.102776 -0.017050
v 0.043368 -0.102776 -0.017050
v 0.043368 -0.132776 0.012950
v 0.073368 -0.132776 0.012950
v 0.073368 -0.102776 0.012950
v 0.043368 -0.102776 0.012950
v 0.046805 -0.154103 -0.021129
v 0.076805 -0.154103 -0.021129
v 0.076805 -0.124103 -0.021129
v 0.046805 -0.124103 -0.021129
v 0.046805 -0.154103 0.008871
v 0.076805 -0.154103 0.008871
v 0.076805 -0.124103 0.008871
v 0.046805 -0.124103 0.008871
v 0.045953 -0.173353 -0.042140
v 0.075953 -0.173353 -0.042140
v 0.075953 -0.143353 -0.042140
v 0.045953 -0.143353 -0.042140
v 0.045953 -0.173353 -0.012140
v 0.075953 -0.173353 -0.012140
v 0.075953 -0.143353 -0.012140
v 0.045953 -0.143353 -0.012140
v 0.013155 -0.113047 -0.011881
v 0.043155 -0.113047 -0.011881
v 0.043155 -0.083047 -0.011881
v 0.013155 -0.083047 -0.011881
v 0.013155 -0.113047 0.018119
v 0.043155 -0.113047 0.018119
v 0.043155 -0.083047 0.018119
v 0.013155 -0.083047 0.018119
v 0.025550 -0.149023 -0.018353
v 0.055550 -0.149023 -0.018353
v 0.055550 -0.119023 -0.018353
v 0.025550 -0.119023 -0.018353
v 0.025550 -0.149023 0.011647
v 0.055550 -0.149023 0.011647
v 0.055550 -0.119023 0.011647
v 0.025550 -0.119023 0.011647
v 0.029276 -0.169978 -0.029616
v 0.059276 -0.169978 -0.029616
v 0.059276 -0.139978 -0.029616
v 0.029276 -0.139978 -0.029616
v 0.029276 -0.169978 0.000384
v 0.059276 -0.169978 0.000384
v 0.059276 -0.139978 0.000384
v 0.029276 -0.139978 0.000384
v 0.037147 -0.194424 -0.039791
v 0.067147 -0.194424 -0.039791
v 0.067147 -0.164424 -0.039791
v 0.037147 -0.164424 -0.039791
v 0.037147 -0.194424 -0.009791
v 0.067147 -0.194424 -0.009791
v 0.067147 -0.164424 -0.009791
v 0.037147 -0.164424 -0.009791
v -0.004745 -0.113465 -0.023105
v 0.025255 -0.113465 -0.023105
v 0.025255 -0.083465 -0.023105
v -0.004745 -0.083465 -0.023105
v -0.004745 -0.113465 0.006895
v 0.025255 -0.113465 0.006895
v 0.025255 -0.083465 0.006895
v -0.004745 -0.083465 0.006895
v 0.006912 -0.143154 -0.025662
v 0.036912 -0.143154 -0.025662
v 0.036912 -0.113154 -0.025662
v 0.006912 -0.113154 -0.025662
v 0.006912 -0.143154 0.004338
v 0.036912 -0.143154 0.004338
v 0.036912 -0.113154 0.004338
v 0.006912 -0.113154 0.004338
v 0.014112 -0.163934 -0.033178
v 0.044112 -0.163934 -0.033178
v 0.044112 -0.133934 -0.033178
v 0.014112 -0.133934 -0.033178
v 0.014112 -0.163934 -0.003178
v 0.044112 -0.163934 -0.003178
v 0.044112 -0.133934 -0.003178
v 0.014112 -0.133934 -0.003178
v 0.023585 -0.185813 -0.039492
v 0.053585 -0.185813 -0.039492
v 0.053585 -0.155813 -0.039492
v 0.023585 -0.155813 -0.039492
v 0.023585 -0.185813 -0.009492
v 0.053585 -0.185813 -0.009492
v 0.053585 -0.155813 -0.009492
v 0.023585 -0.155813 -0.009492
v -0.022037 -0.101411 -0.033589
v 0.007963 -0.101411 -0.033589
v 0.007963 -0.071411 -0.033589
v -0.022037 -0.071411 -0.033589
v -0.022037 -0.101411 -0.003589
v 0.007963 -0.101411 -0.003589
v 0.007963 -0.071411 -0.003589
v -0.022037 -0.071411 -0.003589
v -0.020079 -0.126588 -0.033977
v 0.009921 -0.126588 -0.033977
v 0.009921 -0.096588 -0.033977
v -0.020079 -0.096588 -0.033977
v -0.020079 -0.126588 -0.003977
v 0.009921 -0.126588 -0.003977
v 0.009921 -0.096588 -0.003977
v -0.020079 -0.096588 -0.003977
v -0.012790 -0.149569 -0.036621
v 0.017210 -0.149569 -0.036621
v 0.017210 -0.119569 -0.036621
v -0.012790 -0.119569 -0.036621
v -0.012790 -0.149569 -0.006621
v 0.017210 -0.149569 -0.006621
v 0.017210 -0.119569 -0.006621
v -0.012790 -0.119569 -0.006621
v -0.005380 -0.166894 -0.046359
v 0.024620 -0.166894 -0.046359
v 0.024620 -0.136894 -0.046359
v -0.005380 -0.136894 -0.046359
v -0.005380 -0.166894 -0.016359
v 0.024620 -0.166894 -0.016359
v 0.024620 -0.136894 -0.016359
v -0.005380 -0.136894 -0.016359
f 1 2 9
f 2 10 9
f 2 3 10
f 3 11 10
f 3 4 11
f 4 12 11
f 4 5 12
f 5 13 12
f 5 6 13
f 6 14 13
f 6 7 14
f 7 15 14
f 7 8 15
f 8 16 15
f 8 1 16
f 1 9 16
f 17 18 25
f 18 26 25
f 18 19 26
f 19 27 26
f 19 20 27
f 20 28 27
f 20 21 28
f 21 29 28
f 21 22 29
f 22 30 29
f 22 23 30
f 23 31 30
f 23 24 31
f 24 32 31
f 24 17 32
f 17 25 32
f 33 34 41
f 34 42 41
f 34 35 42
f 35 43 42
f 35 36 43
f 36 44 43
f 36 37 44
f 37 45 44
f 37 38 45
f 38 46 45
f 38 39 46
f 39 47 46
f 39 40 47
f 40 48 47
f 40 33 48
f 33 41 48
f 49 50 57
f 50 58 57
f 50 51 58
f 51 59 58
f 51 52 59
f 52 60 59
f 52 53 60
f 53 61 60
f 53 54 61
f 54 62 61
f 54 55 62
f 55 63 62
f 55 56 63
f 56 64 63
f 56 49 64
f 49 57 64
f 65 66 73
f 66 74 73
f 66 67 74
f 67 75 74
f 67 68 75
f 68 76 75
f 68 69 76
f 69 77 76
f 69 70 77
f 70 78 77
f 70 71 78
f 71 79 78
f 71 72 79
f 72 80 79
f 72 65 80
f 65 73 80
f 81 82 89
f 82 90 89
f 82 83 90
f 83 91 90
f 83 84 91
f 84 92 91
f 84 85 92
f 85 93 92
f 85 86 93
f 86 94 93
f 86 87 94
f 87 95 94
f 87 88 95
f 88 96 95
f 88 81 96
f 81 89 96
f 97 98 105
f 98 106 105
f 98 99 106
f 99 107 106
f 99 100 107
f 100 108 107
f 100 101 108
f 101 109 108
f 101 102 109
f 102 110 109
f 102 103 110
f 103 111 110
f 103 104 111
f 104 112 111
f 104 97 112
f 97 105 112
f 113 114 121
f 114 122 121
f 114 115 122
f 115 123 122
f 115 116 123
f 116 124 123
f 116 117 124
f 117 125 124
f 117 118 125
f 118 126 125
f 118 119 126
f 119 127 126
f 119 120 127
f 120 128 127
f 120 113 128
f 113 121 128
f 129 130 137
f 130 138 137
f 130 131 138
f 131 139 138
f 131 132 139
f 132 140 139
f 132 133 140
f 133 141 140
f 133 134 141
f 134 142 141
f 134 135 142
f 135 143 142
f 135 136 143
f 136 144 143
f 136 129 144
f 129 137 144
f 145 146 153
f 146 154 153
f 146 147 154
f 147 155 154
f 147 148 155
f 148 156 155
f 148 149 156
f 149 157 156
f 149 150 157
f 150 158 157
f 150 151 158
f 151 159 158
f 151 152 159
f 152 160 159
f 152 145 160
f 145 153 160
f 161 162 169
f 162 170 169
f 162 163 170
f 163 171 170
f 163 164 171
f 164 172 171
f 164 165 172
f 165 173 172
f 165 166 173
f 166 174 173
f 166 167 174
f 167 175 174
f 167 168 175
f 168 176 175
f 168 161 176
f 161 169 176
f 177 178 185
f 178 186 185
f 178 179 186
f 179 187 186
f 179 180 187
f 180 188 187
f 180 181 188
f 181 189 188
f 181 182 189
f 182 190 189
f 182 183 190
f 183 191 190
f 183 184 191
f 184 192 191
f 184 177 192
f 177 185 192
f 193 194 201
f 194 202 201
f 194 195 202
f 195 203 202
f 195 196 203
f 196 204 203
f 196 197 204
f 197 205 204
f 197 198 205
f 198 206 205
f 198 199 206
f 199 207 206
f 199 200 207
f 200 208 207
f 200 193 208
f 193 201 208
f 209 210 217
f 210 218 217
f 210 211 218
f 211 219 218
f 211 212 219
f 212 220 219
f 212 213 220
f 213 221 220
f 213 214 221
f 214 222 221
f 214 215 222
f 215 223 222
f 215 216 223
f 216 224 223
f 216 209 224
f 209 217 224
f 225 226 233
f 226 234 233
f 226 227 234
f 227 235 234
f 227 228 235
f 228 236 235
f 228 229 236
f 229 237 236
f 229 230 237
f 230 238 237
f 230 231 238
f 231 239 238
f 231 232 239
f 232 240 239
f 232 225 240
f 225 233 240
f 241 242 249
f 242 250 249
f 242 243 250
f 243 251 250
f 243 244 251
f 244 252 251
f 244 245 252
f 245 253 252
f 245 246 253
f 246 254 253
f 246 247 254
f 247 255 254
f 247 248 255
f 248 256 255
f 248 241 256
f 241 249 256
f 257 258 265
f 258 266 265
f 258 259 266
f 259 267 266
f 259 260 267
f 260 268 267
f 260 261 268
f 261 269 268
f 261 262 269
f 262 270 269
f 262 263 270
f 263 271 270
f 263 264 271
f 264 272 271
f 264 257 272
f 257 265 272
f 273 274 281
f 274 282 281
f 274 275 282
f 275 283 282
f 275 276 283
f 276 284 283
f 276 277 284
f 277 285 284
f 277 278 285
f 278 286 285
f 278 279 286
f 279 287 286
f 279 280 287
f 280 288 287
f 280 273 288
f 273 281 288
f 289 290 297
f 290 298 297
f 290 291 298
f 291 299 298
f 291 292 299
f 292 300 299
f 292 293 300
f 293 301 300
f 293 294 301
f 294 302 301
f 294 295 302
f 295 303 302
f 295 296 303
f 296 304 303
f 296 289 304
f 289 297 304
f 305 306 313
f 306 314 313
f 306 307 314
f 307 315 314
f 307 308 315
f 308 316 315
f 308 309 316
f 309 317 316
f 309 310 317
f 310 318 317
f 310 311 318
f 311 319 318
f 311 312 319
f 312 320 319
f 312 305 320
f 305 313 320
f 321 322 323
f 321 323 324
f 325 326 327
f 325 327 328
f 321 325 326
f 321 326 322
f 322 326 327
f 322 327 323
f 323 327 328
f 323 328 324
f 324 328 325
f 324 325 321
f 329 330 331
f 329 331 332
f 333 334 335
f 333 335 336
f 329 333 334
f 329 334 330
f 330 334 335
f 330 335 331
f 331 335 336
f 331 336 332
f 332 336 333
f 332 333 329
f 337 338 339
f 337 339 340
f 341 342 343
f 341 343 344
f 337 341 342
f 337 342 338
f 338 342 343
f 338 343 339
f 339 343 344
f 339 344 340
f 340 344 341
f 340 341 337
f 345 346 347
f 345 347 348
f 349 350 351
f 349 351 352
f 345 349 350
f 345 350 346
f 346 350 351
f 346 351 347
f 347 351 352
f 347 352 348
f 348 352 349
f 348 349 345
f 353 354 355
f 353 355 356
f 357 358 359
f 357 359 360
f 353 357 358
f 353 358 354
f 354 358 359
f 354 359 355
f 355 359 360
f 355 360 356
f 356 360 357
f 356 357 353
f 361 362 363
f 361 363 364
f 365 366 367
f 365 367 368
f 361 365 366
f 361 366 362
f 362 366 367
f 362 367 363
f 363 367 368
f 363 368 364
f 364 368 365
f 364 365 361
f 369 370 371
f 369 371 372
f 373 374 375
f 373 375 376
f 369 373 374
f 369 374 370
f 370 374 375
f 370 375 371
f 371 375 376
f 371 376 372
f 372 376 373
f 372 373 369
f 377 378 379
f 377 379 380
f 381 382 383
f 381 383 384
f 377 381 382
f 377 382 378
f 378 382 383
f 378 383 379
f 379 383 384
f 379 384 380
f 380 384 381
f 380 381 377
f 385 386 387
f 385 387 388
f 389 390 391
f 389 391 392
f 385 389 390
f 385 390 386
f 386 390 391
f 386 391 387
f 387 391 392
f 387 392 388
f 388 392 389
f 388 389 385
f 393 394 395
f 393 395 396
f 397 398 399
f 397 399 400
f 393 397 398
f 393 398 394
f 394 398 399
f 394 399 395
f 395 399 400
f 395 400 396
f 396 400 397
f 396 397 393
f 401 402 403
f 401 403 404
f 405 406 407
f 405 407 408
f 401 405 406
f 401 406 402
f 402 406 407
f 402 407 403
f 403 407 408
f 403 408 404
f 404 408 405
f 404 405 401
f 409 410 411
f 409 411 412
f 413 414 415
f 413 415 416
f 409 413 414
f 409 414 410
f 410 414 415
f 410 415 411
f 411 415 416
f 411 416 412
f 412 416 413
f 412 413 409
f 417 418 419
f 417 419 420
f 421 422 423
f 421 423 424
f 417 421 422
f 417 422 418
f 418 422 423
f 418 423 419
f 419 423 424
f 419 424 420
f 420 424 421
f 420 421 417
f 425 426 427
f 425 427 428
f 429 430 431
f 429 431 432
f 425 429 430
f 425 430 426
f 426 430 431
f 426 431 427
f 427 431 432
f 427 432 428
f 428 432 429
f 428 429 425
f 433 434 435
f 433 435 436
f 437 438 439
f 437 439 440
f 433 437 438
f 433 438 434
f 434 438 439
f 434 439 435
f 435 439 440
f 435 440 436
f 436 440 437
f 436 437 433
f 441 442 443
f 441 443 444
f 445 446 447
f 445 447 448
f 441 445 446
f 441 446 442
f 442 446 447
f 442 447 443
f 443 447 448
f 443 448 444
f 444 448 445
f 444 445 441
f 449 450 451
f 449 451 452
f 453 454 455
f 453 455 456
f 449 453 454
f 449 454 450
f 450 454 455
f 450 455 451
f 451 455 456
f 451 456 452
f 452 456 453
f 452 453 449
f 457 458 459
f 457 459 460
f 461 462 463
f 461 463 464
f 457 461 462
f 457 462 458
f 458 462 463
f 458 463 459
f 459 463 464
f 459 464 460
f 460 464 461
f 460 461 457
f 465 466 467
f 465 467 468
f 469 470 471
f 469 471 472
f 465 469 470
f 465 470 466
f 466 470 471
f 466 471 467
f 467 471 472
f 467 472 468
f 468 472 469
f 468 469 465
f 473 474 475
f 473 475 476
f 477 478 479
f 477 479 480
f 473 477 478
f 473 478 474
f 474 478 479
f 474 479 475
f 475 479 480
f 475 480 476
f 476 480 477
f 476 477 473
f 481 482 483
f 481 483 484
f 485 486 487
f 485 487 488
f 481 485 486
f 481 486 482
f 482 486 487
f 482 487 483
f 483 487 488
f 483 488 484
f 484 488 485
f 484 485 481
