# SignFlow 3D Hand Mesh - Frame 266
v 0.000000 -0.012443 0.015658
v -0.007364 -0.018251 0.003560
v -0.010414 -0.013368 -0.010623
v -0.007364 -0.000654 -0.018584
v -0.000000 0.012443 -0.015658
v 0.007364 0.018251 -0.003560
v 0.010414 0.013368 0.010623
v 0.007364 0.000654 0.018584
v 0.035172 -0.029237 0.002313
v 0.027809 -0.035045 -0.009785
v 0.024759 -0.030162 -0.023969
v 0.027809 -0.017448 -0.031929
v 0.035172 -0.004351 -0.029003
v 0.042536 0.001457 -0.016906
v 0.045586 -0.003426 -0.002722
v 0.042536 -0.016139 0.005238
v 0.035172 -0.020828 0.006244
v 0.028145 -0.031666 -0.001969
v 0.025234 -0.033793 -0.016846
v 0.028145 -0.025962 -0.029672
v 0.035172 -0.012760 -0.032934
v 0.042200 -0.001921 -0.024722
v 0.045110 0.000206 -0.009845
v 0.042200 -0.007626 0.002981
v 0.063118 -0.036501 0.003016
v 0.056091 -0.047340 -0.005197
v 0.053180 -0.049466 -0.020073
v 0.056091 -0.041635 -0.032900
v 0.063118 -0.028433 -0.036162
v 0.070146 -0.017594 -0.027949
v 0.073056 -0.015468 -0.013072
v 0.070146 -0.023299 -0.000246
v 0.063118 -0.038289 0.002561
v 0.054602 -0.047386 -0.006330
v 0.051075 -0.047743 -0.021221
v 0.054602 -0.039151 -0.033389
v 0.063118 -0.026644 -0.035707
v 0.071634 -0.017548 -0.026816
v 0.075162 -0.017191 -0.011924
v 0.071634 -0.025782 0.000244
v 0.090103 -0.057761 -0.003364
v 0.081587 -0.066857 -0.012256
v 0.078059 -0.067214 -0.027147
v 0.081587 -0.058623 -0.039315
v 0.090103 -0.046116 -0.041632
v 0.098619 -0.037020 -0.032741
v 0.102146 -0.036663 -0.017850
v 0.098619 -0.045254 -0.005682
v 0.090103 -0.048182 -0.002854
v 0.080905 -0.059833 -0.006590
v 0.077095 -0.066860 -0.019644
v 0.080905 -0.065146 -0.034371
v 0.090103 -0.055695 -0.042142
v 0.099300 -0.044044 -0.038407
v 0.103110 -0.037017 -0.025352
v 0.099300 -0.038730 -0.010626
v 0.110401 -0.065251 0.000410
v 0.101204 -0.076903 -0.003325
v 0.097394 -0.083930 -0.016380
v 0.101204 -0.082216 -0.031106
v 0.110401 -0.072765 -0.038877
v 0.119599 -0.061114 -0.035142
v 0.123409 -0.054086 -0.022087
v 0.119599 -0.055800 -0.007361
v 0.000000 -0.007335 0.018607
v -0.012551 -0.011249 0.010767
v -0.017750 -0.008574 -0.003380
v -0.012551 -0.000877 -0.015547
v -0.000000 0.007335 -0.018607
v 0.012551 0.011249 -0.010767
v 0.017750 0.008574 0.003380
v 0.012551 0.000877 0.015547
v 0.048061 -0.093446 -0.015339
v 0.035510 -0.097361 -0.023178
v 0.030311 -0.094686 -0.037325
v 0.035510 -0.086988 -0.049492
v 0.048061 -0.078777 -0.052552
v 0.060612 -0.074863 -0.044712
v 0.065811 -0.077538 -0.030565
v 0.060612 -0.085235 -0.018398
v 0.048061 -0.091272 -0.014622
v 0.033958 -0.090774 -0.020552
v 0.028116 -0.087544 -0.034328
v 0.033958 -0.083476 -0.047879
v 0.048061 -0.080951 -0.053268
v 0.062164 -0.081450 -0.047338
v 0.068006 -0.084679 -0.033563
v 0.062164 -0.088748 -0.020011
v 0.050274 -0.120041 -0.022306
v 0.036171 -0.119542 -0.028236
v 0.030329 -0.116313 -0.042011
v 0.036171 -0.112244 -0.055562
v 0.050274 -0.109720 -0.060951
v 0.064378 -0.110218 -0.055021
v 0.070219 -0.113448 -0.041246
v 0.064378 -0.117516 -0.027695
v 0.050274 -0.119863 -0.022259
v 0.036133 -0.118236 -0.027889
v 0.030276 -0.114644 -0.041568
v 0.036133 -0.111190 -0.055282
v 0.050274 -0.109898 -0.060998
v 0.064415 -0.111524 -0.055368
v 0.070273 -0.115117 -0.041689
v 0.064415 -0.118570 -0.027975
v 0.049994 -0.142137 -0.027989
v 0.035852 -0.140511 -0.033619
v 0.029995 -0.136918 -0.047297
v 0.035852 -0.133464 -0.061011
v 0.049994 -0.132172 -0.066728
v 0.064135 -0.133799 -0.061097
v 0.069992 -0.137391 -0.047419
v 0.064135 -0.140845 -0.033705
v 0.049994 -0.151703 -0.033634
v 0.035852 -0.147546 -0.037764
v 0.029995 -0.137302 -0.047514
v 0.035852 -0.126972 -0.057173
v 0.049994 -0.122606 -0.061082
v 0.064135 -0.126763 -0.056952
v 0.069992 -0.137008 -0.047202
v 0.064135 -0.147338 -0.037544
v 0.050308 -0.171818 -0.054957
v 0.036167 -0.167661 -0.059087
v 0.030309 -0.157416 -0.068837
v 0.036167 -0.147086 -0.078496
v 0.050308 -0.142721 -0.082405
v 0.064449 -0.146878 -0.078275
v 0.070307 -0.157122 -0.068525
v 0.064449 -0.167452 -0.058866
v 0.000000 -0.008172 0.018254
v -0.013693 -0.009006 0.011463
v -0.019364 -0.004565 -0.002044
v -0.013693 0.002550 -0.014353
v -0.000000 0.008172 -0.018254
v 0.013693 0.009006 -0.011463
v 0.019364 0.004565 0.002044
v 0.013693 -0.002550 0.014353
v 0.025218 -0.097280 -0.021634
v 0.011525 -0.098115 -0.028426
v 0.005853 -0.093674 -0.041933
v 0.011525 -0.086559 -0.054242
v 0.025218 -0.080937 -0.058143
v 0.038911 -0.080102 -0.051352
v 0.044582 -0.084543 -0.037845
v 0.038911 -0.091659 -0.025536
v 0.025218 -0.109049 -0.041438
v 0.012621 -0.102711 -0.047393
v 0.007403 -0.088405 -0.048952
v 0.012621 -0.074511 -0.045202
v 0.025218 -0.069169 -0.038340
v 0.037815 -0.075507 -0.032385
v 0.043033 -0.089813 -0.030826
v 0.037815 -0.103706 -0.034576
v 0.042421 -0.106438 -0.075052
v 0.029824 -0.100100 -0.081007
v 0.024606 -0.085794 -0.082566
v 0.029824 -0.071900 -0.078816
v 0.042421 -0.066558 -0.071954
v 0.055018 -0.072896 -0.066000
v 0.060236 -0.087202 -0.064440
v 0.055018 -0.101095 -0.068190
v 0.042421 -0.085653 -0.093485
v 0.028343 -0.084557 -0.087576
v 0.022512 -0.084598 -0.073423
v 0.028343 -0.085752 -0.059317
v 0.042421 -0.087343 -0.053521
v 0.056499 -0.088439 -0.059431
v 0.062331 -0.088398 -0.073584
v 0.056499 -0.087244 -0.087690
v 0.045178 -0.056824 -0.092266
v 0.031099 -0.055728 -0.086357
v 0.025268 -0.055769 -0.072204
v 0.031099 -0.056923 -0.058098
v 0.045178 -0.058514 -0.052302
v 0.059256 -0.059610 -0.058212
v 0.065087 -0.059570 -0.072365
v 0.059256 -0.058416 -0.086471
v 0.045178 -0.039894 -0.081451
v 0.031263 -0.046258 -0.081011
v 0.025499 -0.059306 -0.075459
v 0.031263 -0.071396 -0.068048
v 0.045178 -0.075445 -0.063118
v 0.059092 -0.069081 -0.063558
v 0.064856 -0.056032 -0.069110
v 0.059092 -0.043942 -0.076521
v 0.039899 -0.026567 -0.055606
v 0.025985 -0.032931 -0.055167
v 0.020221 -0.045980 -0.049615
v 0.025985 -0.058069 -0.042203
v 0.039899 -0.062118 -0.037274
v 0.053814 -0.055754 -0.037714
v 0.059578 -0.042705 -0.043265
v 0.053814 -0.030616 -0.050677
v 0.000000 -0.010518 0.017011
v -0.014101 -0.008350 0.011464
v -0.019942 -0.001290 -0.000798
v -0.014101 0.006525 -0.012593
v -0.000000 0.010518 -0.017011
v 0.014101 0.008350 -0.011464
v 0.019942 0.001290 0.000798
v 0.014101 -0.006525 0.012593
v 0.007481 -0.094151 -0.034700
v -0.006621 -0.091983 -0.040247
v -0.012462 -0.084923 -0.052509
v -0.006621 -0.077108 -0.064304
v 0.007481 -0.073115 -0.068722
v 0.021582 -0.075283 -0.063175
v 0.027423 -0.082343 -0.050913
v 0.021582 -0.090158 -0.039118
v 0.007481 -0.102557 -0.058183
v -0.004909 -0.094808 -0.062740
v -0.010040 -0.080512 -0.060836
v -0.004909 -0.068045 -0.053587
v 0.007481 -0.064709 -0.045239
v 0.019870 -0.072459 -0.040682
v 0.025002 -0.086754 -0.042586
v 0.019870 -0.099221 -0.049835
v 0.022635 -0.093647 -0.084234
v 0.010245 -0.085898 -0.088790
v 0.005114 -0.071603 -0.086887
v 0.010245 -0.059136 -0.079638
v 0.022635 -0.055800 -0.071290
v 0.035024 -0.063549 -0.066733
v 0.040156 -0.077844 -0.068637
v 0.035024 -0.090311 -0.075886
v 0.022635 -0.068256 -0.096687
v 0.008989 -0.066635 -0.089943
v 0.003337 -0.069752 -0.076063
v 0.008989 -0.075781 -0.063178
v 0.022635 -0.081191 -0.058836
v 0.036280 -0.082812 -0.065581
v 0.041932 -0.079696 -0.079461
v 0.036280 -0.073666 -0.092345
v 0.029676 -0.043786 -0.088325
v 0.016030 -0.042164 -0.081581
v 0.010378 -0.045281 -0.067701
v 0.016030 -0.051310 -0.054816
v 0.029676 -0.056720 -0.050474
v 0.043321 -0.058342 -0.057219
v 0.048973 -0.055225 -0.071099
v 0.043321 -0.049196 -0.083983
v 0.029676 -0.033343 -0.080078
v 0.015907 -0.040020 -0.079681
v 0.010204 -0.052692 -0.073261
v 0.015907 -0.063935 -0.064579
v 0.029676 -0.067163 -0.058721
v 0.043444 -0.060486 -0.059118
v 0.049147 -0.047814 -0.065538
v 0.043444 -0.036571 -0.074220
v 0.023668 -0.019667 -0.058422
v 0.009900 -0.026344 -0.058025
v 0.004197 -0.039016 -0.051605
v 0.009900 -0.050259 -0.042923
v 0.023668 -0.053488 -0.037065
v 0.037437 -0.046810 -0.037462
v 0.043140 -0.034139 -0.043882
v 0.037437 -0.022895 -0.052564
v 0.000000 -0.013342 0.014899
v -0.014069 -0.008362 0.011496
v -0.019896 0.001517 0.001358
v -0.014069 0.010507 -0.009575
v -0.000000 0.013342 -0.014899
v 0.014069 0.008362 -0.011496
v 0.019896 -0.001517 -0.001358
v 0.014069 -0.010507 0.009575
v -0.009023 -0.079026 -0.043920
v -0.023091 -0.074046 -0.047324
v -0.028919 -0.064167 -0.057461
v -0.023091 -0.055177 -0.068395
v -0.009023 -0.052342 -0.073719
v 0.005046 -0.057322 -0.070315
v 0.010873 -0.067201 -0.060178
v 0.005046 -0.076191 -0.049245
v -0.009023 -0.085591 -0.060745
v -0.020967 -0.079032 -0.067718
v -0.025914 -0.064653 -0.069479
v -0.020967 -0.050879 -0.064995
v -0.009023 -0.045777 -0.056894
v 0.002921 -0.052337 -0.049921
v 0.007869 -0.066715 -0.048161
v 0.002921 -0.080490 -0.052644
v 0.003078 -0.083754 -0.079744
v -0.008866 -0.077194 -0.086717
v -0.013813 -0.062816 -0.088478
v -0.008866 -0.049041 -0.083994
v 0.003078 -0.043939 -0.075893
v 0.015023 -0.050499 -0.068920
v 0.019970 -0.064877 -0.067160
v 0.015023 -0.078652 -0.071643
v 0.003078 -0.064787 -0.097797
v -0.007852 -0.055547 -0.092367
v -0.012379 -0.051169 -0.078416
v -0.007852 -0.054217 -0.064114
v 0.003078 -0.062906 -0.057841
v 0.014008 -0.072146 -0.063270
v 0.018536 -0.076524 -0.077222
v 0.014008 -0.073476 -0.091523
v 0.015142 -0.050110 -0.098488
v 0.004212 -0.040870 -0.093058
v -0.000315 -0.036492 -0.079107
v 0.004212 -0.039540 -0.064805
v 0.015142 -0.048229 -0.058532
v 0.026072 -0.057468 -0.063961
v 0.030600 -0.061847 -0.077913
v 0.026072 -0.058799 -0.092214
v 0.015142 -0.033324 -0.090713
v 0.001009 -0.038277 -0.087544
v -0.004845 -0.049611 -0.079083
v 0.001009 -0.060686 -0.070286
v 0.015142 -0.065015 -0.066307
v 0.029275 -0.060062 -0.069475
v 0.035129 -0.048728 -0.077936
v 0.029275 -0.037653 -0.086733
v 0.014496 -0.022441 -0.076583
v 0.000363 -0.027395 -0.073414
v -0.005491 -0.038729 -0.064953
v 0.000363 -0.049804 -0.056156
v 0.014496 -0.054132 -0.052176
v 0.028629 -0.049179 -0.055345
v 0.034483 -0.037845 -0.063806
v 0.028629 -0.026770 -0.072603
v -0.015000 -0.015000 -0.015000
v 0.015000 -0.015000 -0.015000
v 0.015000 0.015000 -0.015000
v -0.015000 0.015000 -0.015000
v -0.015000 -0.015000 0.015000
v 0.015000 -0.015000 0.015000
v 0.015000 0.015000 0.015000
v -0.015000 0.015000 0.015000
v 0.020172 -0.031794 -0.028345
v 0.050172 -0.031794 -0.028345
v 0.050172 -0.001794 -0.028345
v 0.020172 -0.001794 -0.028345
v 0.020172 -0.031794 0.001655
v 0.050172 -0.031794 0.001655
v 0.050172 -0.001794 0.001655
v 0.020172 -0.001794 0.001655
v 0.048118 -0.047467 -0.031573
v 0.078118 -0.047467 -0.031573
v 0.078118 -0.017467 -0.031573
v 0.048118 -0.017467 -0.031573
v 0.048118 -0.047467 -0.001573
v 0.078118 -0.047467 -0.001573
v 0.078118 -0.017467 -0.001573
v 0.048118 -0.017467 -0.001573
v 0.075103 -0.066938 -0.037498
v 0.105103 -0.066938 -0.037498
v 0.105103 -0.036938 -0.037498
v 0.075103 -0.036938 -0.037498
v 0.075103 -0.066938 -0.007498
v 0.105103 -0.066938 -0.007498
v 0.105103 -0.036938 -0.007498
v 0.075103 -0.036938 -0.007498
v 0.095401 -0.084008 -0.034233
v 0.125401 -0.084008 -0.034233
v 0.125401 -0.054008 -0.034233
v 0.095401 -0.054008 -0.034233
v 0.095401 -0.084008 -0.004233
v 0.125401 -0.084008 -0.004233
v 0.125401 -0.054008 -0.004233
v 0.095401 -0.054008 -0.004233
v 0.033061 -0.101112 -0.048945
v 0.063061 -0.101112 -0.048945
v 0.063061 -0.071112 -0.048945
v 0.033061 -0.071112 -0.048945
v 0.033061 -0.101112 -0.018945
v 0.063061 -0.101112 -0.018945
v 0.063061 -0.071112 -0.018945
v 0.033061 -0.071112 -0.018945
v 0.035274 -0.129880 -0.056628
v 0.065274 -0.129880 -0.056628
v 0.065274 -0.099880 -0.056628
v 0.035274 -0.099880 -0.056628
v 0.035274 -0.129880 -0.026628
v 0.065274 -0.129880 -0.026628
v 0.065274 -0.099880 -0.026628
v 0.035274 -0.099880 -0.026628
v 0.034994 -0.152155 -0.062358
v 0.064994 -0.152155 -0.062358
v 0.064994 -0.122155 -0.062358
v 0.034994 -0.122155 -0.062358
v 0.034994 -0.152155 -0.032358
v 0.064994 -0.152155 -0.032358
v 0.064994 -0.122155 -0.032358
v 0.034994 -0.122155 -0.032358
v 0.035308 -0.172269 -0.083681
v 0.065308 -0.172269 -0.083681
v 0.065308 -0.142269 -0.083681
v 0.035308 -0.142269 -0.083681
v 0.035308 -0.172269 -0.053681
v 0.065308 -0.172269 -0.053681
v 0.065308 -0.142269 -0.053681
v 0.035308 -0.142269 -0.053681
v 0.010218 -0.104109 -0.054889
v 0.040218 -0.104109 -0.054889
v 0.040218 -0.074109 -0.054889
v 0.010218 -0.074109 -0.054889
v 0.010218 -0.104109 -0.024889
v 0.040218 -0.104109 -0.024889
v 0.040218 -0.074109 -0.024889
v 0.010218 -0.074109 -0.024889
v 0.027421 -0.101498 -0.088503
v 0.057421 -0.101498 -0.088503
v 0.057421 -0.071498 -0.088503
v 0.027421 -0.071498 -0.088503
v 0.027421 -0.101498 -0.058503
v 0.057421 -0.101498 -0.058503
v 0.057421 -0.071498 -0.058503
v 0.027421 -0.071498 -0.058503
v 0.030178 -0.072669 -0.087284
v 0.060178 -0.072669 -0.087284
v 0.060178 -0.042669 -0.087284
v 0.030178 -0.042669 -0.087284
v 0.030178 -0.072669 -0.057284
v 0.060178 -0.072669 -0.057284
v 0.060178 -0.042669 -0.057284
v 0.030178 -0.042669 -0.057284
v 0.024899 -0.059342 -0.061440
v 0.054899 -0.059342 -0.061440
v 0.054899 -0.029342 -0.061440
v 0.024899 -0.029342 -0.061440
v 0.024899 -0.059342 -0.031440
v 0.054899 -0.059342 -0.031440
v 0.054899 -0.029342 -0.031440
v 0.024899 -0.029342 -0.031440
v -0.007519 -0.098633 -0.066711
v 0.022481 -0.098633 -0.066711
v 0.022481 -0.068633 -0.066711
v -0.007519 -0.068633 -0.066711
v -0.007519 -0.098633 -0.036711
v 0.022481 -0.098633 -0.036711
v 0.022481 -0.068633 -0.036711
v -0.007519 -0.068633 -0.036711
v 0.007635 -0.089724 -0.092762
v 0.037635 -0.089724 -0.092762
v 0.037635 -0.059724 -0.092762
v 0.007635 -0.059724 -0.092762
v 0.007635 -0.089724 -0.062762
v 0.037635 -0.089724 -0.062762
v 0.037635 -0.059724 -0.062762
v 0.007635 -0.059724 -0.062762
v 0.014676 -0.065253 -0.084400
v 0.044676 -0.065253 -0.084400
v 0.044676 -0.035253 -0.084400
v 0.014676 -0.035253 -0.084400
v 0.014676 -0.065253 -0.054400
v 0.044676 -0.065253 -0.054400
v 0.044676 -0.035253 -0.054400
v 0.014676 -0.035253 -0.054400
v 0.008668 -0.051577 -0.062744
v 0.038668 -0.051577 -0.062744
v 0.038668 -0.021577 -0.062744
v 0.008668 -0.021577 -0.062744
v 0.008668 -0.051577 -0.032744
v 0.038668 -0.051577 -0.032744
v 0.038668 -0.021577 -0.032744
v 0.008668 -0.021577 -0.032744
v -0.024023 -0.080684 -0.073820
v 0.005977 -0.080684 -0.073820
v 0.005977 -0.050684 -0.073820
v -0.024023 -0.050684 -0.073820
v -0.024023 -0.080684 -0.043820
v 0.005977 -0.080684 -0.043820
v 0.005977 -0.050684 -0.043820
v -0.024023 -0.050684 -0.043820
v -0.011922 -0.078846 -0.092819
v 0.018078 -0.078846 -0.092819
v 0.018078 -0.048846 -0.092819
v -0.011922 -0.048846 -0.092819
v -0.011922 -0.078846 -0.062819
v 0.018078 -0.078846 -0.062819
v 0.018078 -0.048846 -0.062819
v -0.011922 -0.048846 -0.062819
v 0.000142 -0.064169 -0.093510
v 0.030142 -0.064169 -0.093510
v 0.030142 -0.034169 -0.093510
v 0.000142 -0.034169 -0.093510
v 0.000142 -0.064169 -0.063510
v 0.030142 -0.064169 -0.063510
v 0.030142 -0.034169 -0.063510
v 0.000142 -0.034169 -0.063510
v -0.000504 -0.053287 -0.079379
v 0.029496 -0.053287 -0.079379
v 0.029496 -0.023287 -0.079379
v -0.000504 -0.023287 -0.079379
v -0.000504 -0.053287 -0.049379
v 0.029496 -0.053287 -0.049379
v 0.029496 -0.023287 -0.049379
v -0.000504 -0.023287 -0.049379
f 1 2 9
f 2 10 9
f 2 3 10
f 3 11 10
f 3 4 11
f 4 12 11
f 4 5 12
f 5 13 12
f 5 6 13
f 6 14 13
f 6 7 14
f 7 15 14
f 7 8 15
f 8 16 15
f 8 1 16
f 1 9 16
f 17 18 25
f 18 26 25
f 18 19 26
f 19 27 26
f 19 20 27
f 20 28 27
f 20 21 28
f 21 29 28
f 21 22 29
f 22 30 29
f 22 23 30
f 23 31 30
f 23 24 31
f 24 32 31
f 24 17 32
f 17 25 32
f 33 34 41
f 34 42 41
f 34 35 42
f 35 43 42
f 35 36 43
f 36 44 43
f 36 37 44
f 37 45 44
f 37 38 45
f 38 46 45
f 38 39 46
f 39 47 46
f 39 40 47
f 40 48 47
f 40 33 48
f 33 41 48
f 49 50 57
f 50 58 57
f 50 51 58
f 51 59 58
f 51 52 59
f 52 60 59
f 52 53 60
f 53 61 60
f 53 54 61
f 54 62 61
f 54 55 62
f 55 63 62
f 55 56 63
f 56 64 63
f 56 49 64
f 49 57 64
f 65 66 73
f 66 74 73
f 66 67 74
f 67 75 74
f 67 68 75
f 68 76 75
f 68 69 76
f 69 77 76
f 69 70 77
f 70 78 77
f 70 71 78
f 71 79 78
f 71 72 79
f 72 80 79
f 72 65 80
f 65 73 80
f 81 82 89
f 82 90 89
f 82 83 90
f 83 91 90
f 83 84 91
f 84 92 91
f 84 85 92
f 85 93 92
f 85 86 93
f 86 94 93
f 86 87 94
f 87 95 94
f 87 88 95
f 88 96 95
f 88 81 96
f 81 89 96
f 97 98 105
f 98 106 105
f 98 99 106
f 99 107 106
f 99 100 107
f 100 108 107
f 100 101 108
f 101 109 108
f 101 102 109
f 102 110 109
f 102 103 110
f 103 111 110
f 103 104 111
f 104 112 111
f 104 97 112
f 97 105 112
f 113 114 121
f 114 122 121
f 114 115 122
f 115 123 122
f 115 116 123
f 116 124 123
f 116 117 124
f 117 125 124
f 117 118 125
f 118 126 125
f 118 119 126
f 119 127 126
f 119 120 127
f 120 128 127
f 120 113 128
f 113 121 128
f 129 130 137
f 130 138 137
f 130 131 138
f 131 139 138
f 131 132 139
f 132 140 139
f 132 133 140
f 133 141 140
f 133 134 141
f 134 142 141
f 134 135 142
f 135 143 142
f 135 136 143
f 136 144 143
f 136 129 144
f 129 137 144
f 145 146 153
f 146 154 153
f 146 147 154
f 147 155 154
f 147 148 155
f 148 156 155
f 148 149 156
f 149 157 156
f 149 150 157
f 150 158 157
f 150 151 158
f 151 159 158
f 151 152 159
f 152 160 159
f 152 145 160
f 145 153 160
f 161 162 169
f 162 170 169
f 162 163 170
f 163 171 170
f 163 164 171
f 164 172 171
f 164 165 172
f 165 173 172
f 165 166 173
f 166 174 173
f 166 167 174
f 167 175 174
f 167 168 175
f 168 176 175
f 168 161 176
f 161 169 176
f 177 178 185
f 178 186 185
f 178 179 186
f 179 187 186
f 179 180 187
f 180 188 187
f 180 181 188
f 181 189 188
f 181 182 189
f 182 190 189
f 182 183 190
f 183 191 190
f 183 184 191
f 184 192 191
f 184 177 192
f 177 185 192
f 193 194 201
f 194 202 201
f 194 195 202
f 195 203 202
f 195 196 203
f 196 204 203
f 196 197 204
f 197 205 204
f 197 198 205
f 198 206 205
f 198 199 206
f 199 207 206
f 199 200 207
f 200 208 207
f 200 193 208
f 193 201 208
f 209 210 217
f 210 218 217
f 210 211 218
f 211 219 218
f 211 212 219
f 212 220 219
f 212 213 220
f 213 221 220
f 213 214 221
f 214 222 221
f 214 215 222
f 215 223 222
f 215 216 223
f 216 224 223
f 216 209 224
f 209 217 224
f 225 226 233
f 226 234 233
f 226 227 234
f 227 235 234
f 227 228 235
f 228 236 235
f 228 229 236
f 229 237 236
f 229 230 237
f 230 238 237
f 230 231 238
f 231 239 238
f 231 232 239
f 232 240 239
f 232 225 240
f 225 233 240
f 241 242 249
f 242 250 249
f 242 243 250
f 243 251 250
f 243 244 251
f 244 252 251
f 244 245 252
f 245 253 252
f 245 246 253
f 246 254 253
f 246 247 254
f 247 255 254
f 247 248 255
f 248 256 255
f 248 241 256
f 241 249 256
f 257 258 265
f 258 266 265
f 258 259 266
f 259 267 266
f 259 260 267
f 260 268 267
f 260 261 268
f 261 269 268
f 261 262 269
f 262 270 269
f 262 263 270
f 263 271 270
f 263 264 271
f 264 272 271
f 264 257 272
f 257 265 272
f 273 274 281
f 274 282 281
f 274 275 282
f 275 283 282
f 275 276 283
f 276 284 283
f 276 277 284
f 277 285 284
f 277 278 285
f 278 286 285
f 278 279 286
f 279 287 286
f 279 280 287
f 280 288 287
f 280 273 288
f 273 281 288
f 289 290 297
f 290 298 297
f 290 291 298
f 291 299 298
f 291 292 299
f 292 300 299
f 292 293 300
f 293 301 300
f 293 294 301
f 294 302 301
f 294 295 302
f 295 303 302
f 295 296 303
f 296 304 303
f 296 289 304
f 289 297 304
f 305 306 313
f 306 314 313
f 306 307 314
f 307 315 314
f 307 308 315
f 308 316 315
f 308 309 316
f 309 317 316
f 309 310 317
f 310 318 317
f 310 311 318
f 311 319 318
f 311 312 319
f 312 320 319
f 312 305 320
f 305 313 320
f 321 322 323
f 321 323 324
f 325 326 327
f 325 327 328
f 321 325 326
f 321 326 322
f 322 326 327
f 322 327 323
f 323 327 328
f 323 328 324
f 324 328 325
f 324 325 321
f 329 330 331
f 329 331 332
f 333 334 335
f 333 335 336
f 329 333 334
f 329 334 330
f 330 334 335
f 330 335 331
f 331 335 336
f 331 336 332
f 332 336 333
f 332 333 329
f 337 338 339
f 337 339 340
f 341 342 343
f 341 343 344
f 337 341 342
f 337 342 338
f 338 342 343
f 338 343 339
f 339 343 344
f 339 344 340
f 340 344 341
f 340 341 337
f 345 346 347
f 345 347 348
f 349 350 351
f 349 351 352
f 345 349 350
f 345 350 346
f 346 350 351
f 346 351 347
f 347 351 352
f 347 352 348
f 348 352 349
f 348 349 345
f 353 354 355
f 353 355 356
f 357 358 359
f 357 359 360
f 353 357 358
f 353 358 354
f 354 358 359
f 354 359 355
f 355 359 360
f 355 360 356
f 356 360 357
f 356 357 353
f 361 362 363
f 361 363 364
f 365 366 367
f 365 367 368
f 361 365 366
f 361 366 362
f 362 366 367
f 362 367 363
f 363 367 368
f 363 368 364
f 364 368 365
f 364 365 361
f 369 370 371
f 369 371 372
f 373 374 375
f 373 375 376
f 369 373 374
f 369 374 370
f 370 374 375
f 370 375 371
f 371 375 376
f 371 376 372
f 372 376 373
f 372 373 369
f 377 378 379
f 377 379 380
f 381 382 383
f 381 383 384
f 377 381 382
f 377 382 378
f 378 382 383
f 378 383 379
f 379 383 384
f 379 384 380
f 380 384 381
f 380 381 377
f 385 386 387
f 385 387 388
f 389 390 391
f 389 391 392
f 385 389 390
f 385 390 386
f 386 390 391
f 386 391 387
f 387 391 392
f 387 392 388
f 388 392 389
f 388 389 385
f 393 394 395
f 393 395 396
f 397 398 399
f 397 399 400
f 393 397 398
f 393 398 394
f 394 398 399
f 394 399 395
f 395 399 400
f 395 400 396
f 396 400 397
f 396 397 393
f 401 402 403
f 401 403 404
f 405 406 407
f 405 407 408
f 401 405 406
f 401 406 402
f 402 406 407
f 402 407 403
f 403 407 408
f 403 408 404
f 404 408 405
f 404 405 401
f 409 410 411
f 409 411 412
f 413 414 415
f 413 415 416
f 409 413 414
f 409 414 410
f 410 414 415
f 410 415 411
f 411 415 416
f 411 416 412
f 412 416 413
f 412 413 409
f 417 418 419
f 417 419 420
f 421 422 423
f 421 423 424
f 417 421 422
f 417 422 418
f 418 422 423
f 418 423 419
f 419 423 424
f 419 424 420
f 420 424 421
f 420 421 417
f 425 426 427
f 425 427 428
f 429 430 431
f 429 431 432
f 425 429 430
f 425 430 426
f 426 430 431
f 426 431 427
f 427 431 432
f 427 432 428
f 428 432 429
f 428 429 425
f 433 434 435
f 433 435 436
f 437 438 439
f 437 439 440
f 433 437 438
f 433 438 434
f 434 438 439
f 434 439 435
f 435 439 440
f 435 440 436
f 436 440 437
f 436 437 433
f 441 442 443
f 441 443 444
f 445 446 447
f 445 447 448
f 441 445 446
f 441 446 442
f 442 446 447
f 442 447 443
f 443 447 448
f 443 448 444
f 444 448 445
f 444 445 441
f 449 450 451
f 449 451 452
f 453 454 455
f 453 455 456
f 449 453 454
f 449 454 450
f 450 454 455
f 450 455 451
f 451 455 456
f 451 456 452
f 452 456 453
f 452 453 449
f 457 458 459
f 457 459 460
f 461 462 463
f 461 463 464
f 457 461 462
f 457 462 458
f 458 462 463
f 458 463 459
f 459 463 464
f 459 464 460
f 460 464 461
f 460 461 457
f 465 466 467
f 465 467 468
f 469 470 471
f 469 471 472
f 465 469 470
f 465 470 466
f 466 470 471
f 466 471 467
f 467 471 472
f 467 472 468
f 468 472 469
f 468 469 465
f 473 474 475
f 473 475 476
f 477 478 479
f 477 479 480
f 473 477 478
f 473 478 474
f 474 478 479
f 474 479 475
f 475 479 480
f 475 480 476
f 476 480 477
f 476 477 473
f 481 482 483
f 481 483 484
f 485 486 487
f 485 487 488
f 481 485 486
f 481 486 482
f 482 486 487
f 482 487 483
f 483 487 488
f 483 488 484
f 484 488 485
f 484 485 481
