# SignFlow 3D Hand Mesh - Frame 59
v 0.000000 0.010983 0.016714
v -0.012576 0.002360 0.015371
v -0.017785 -0.007645 0.005024
v -0.012576 -0.013172 -0.008267
v -0.000000 -0.010983 -0.016714
v 0.012576 -0.002360 -0.015371
v 0.017785 0.007645 -0.005024
v 0.012576 0.013172 0.008267
v 0.004778 0.003220 0.021816
v -0.007798 -0.005403 0.020472
v -0.013007 -0.015408 0.010125
v -0.007798 -0.020935 -0.003165
v 0.004778 -0.018746 -0.011613
v 0.017354 -0.010124 -0.010270
v 0.022563 -0.000118 0.000078
v 0.017354 0.005409 0.013368
v 0.004778 0.010348 0.013586
v -0.001497 -0.000334 0.022578
v -0.004096 -0.015367 0.021332
v -0.001497 -0.025946 0.010578
v 0.004778 -0.025874 -0.003384
v 0.011052 -0.015192 -0.012376
v 0.013651 -0.000159 -0.011130
v 0.011052 0.010420 -0.000376
v 0.020052 0.007140 0.020434
v 0.013777 -0.003542 0.029425
v 0.011178 -0.018576 0.028179
v 0.013777 -0.029155 0.017425
v 0.020052 -0.029082 0.003463
v 0.026326 -0.018400 -0.005528
v 0.028925 -0.003367 -0.004282
v 0.026326 0.007212 0.006472
v 0.020052 -0.005354 -0.007247
v 0.010407 0.002928 0.001280
v 0.006412 0.003067 0.016057
v 0.010407 -0.005016 0.028426
v 0.020052 -0.016588 0.031143
v 0.029696 -0.024870 0.022616
v 0.033691 -0.025010 0.007840
v 0.029696 -0.016926 -0.004529
v 0.031015 0.004458 -0.004375
v 0.021370 0.012739 0.004152
v 0.017375 0.012879 0.018928
v 0.021370 0.004795 0.031298
v 0.031015 -0.006777 0.034015
v 0.040660 -0.015058 0.025488
v 0.044655 -0.015198 0.010711
v 0.040660 -0.007114 -0.001658
v 0.031015 0.010482 -0.001443
v 0.017650 0.010832 0.006012
v 0.012114 0.004157 0.018626
v 0.017650 -0.005632 0.029010
v 0.031015 -0.012801 0.031082
v 0.044380 -0.013151 0.023628
v 0.049916 -0.006476 0.011014
v 0.044380 0.003313 0.000629
v 0.037434 0.025569 0.009357
v 0.024069 0.025919 0.016812
v 0.018533 0.019244 0.029426
v 0.024069 0.009455 0.039811
v 0.037434 0.002285 0.041882
v 0.050799 0.001936 0.034428
v 0.056335 0.008611 0.021814
v 0.050799 0.018400 0.011429
v -0.003335 0.000000 0.019720
v -0.006002 -0.013651 0.013328
v -0.005153 -0.019305 -0.000871
v -0.001286 -0.013651 -0.014560
v 0.003335 -0.000000 -0.019720
v 0.006002 0.013651 -0.013328
v 0.005153 0.019305 0.000871
v 0.001286 0.013651 0.014560
v 0.061730 -0.017865 0.030724
v 0.059063 -0.031515 0.024332
v 0.059912 -0.037170 0.010132
v 0.063780 -0.031515 -0.003557
v 0.068400 -0.017865 -0.008716
v 0.071067 -0.004214 -0.002324
v 0.070218 0.001440 0.011875
v 0.066351 -0.004214 0.025564
v 0.067086 -0.017865 0.030901
v 0.067126 -0.031993 0.025009
v 0.065958 -0.037844 0.010913
v 0.064268 -0.031993 -0.003130
v 0.063044 -0.017865 -0.008894
v 0.063004 -0.003737 -0.003002
v 0.064172 0.002115 0.011094
v 0.065863 -0.003737 0.025138
v 0.088978 -0.016876 0.028678
v 0.089018 -0.031004 0.022786
v 0.087850 -0.036856 0.008689
v 0.086159 -0.031004 -0.005354
v 0.084936 -0.016876 -0.011118
v 0.084896 -0.002748 -0.005226
v 0.086064 0.003104 0.008871
v 0.087755 -0.002748 0.022914
v 0.080776 -0.016876 0.027801
v 0.084083 -0.030930 0.022716
v 0.089073 -0.036752 0.009468
v 0.092824 -0.030930 -0.004184
v 0.093138 -0.016876 -0.010241
v 0.089831 -0.002821 -0.005156
v 0.084841 0.003000 0.008092
v 0.081090 -0.002821 0.021744
v 0.101651 -0.014419 0.034584
v 0.104957 -0.028473 0.029499
v 0.109948 -0.034295 0.016251
v 0.113699 -0.028473 0.002600
v 0.114013 -0.014419 -0.003458
v 0.110706 -0.000364 0.001627
v 0.105716 0.005457 0.014876
v 0.101965 -0.000364 0.028527
v 0.109151 -0.014419 0.035520
v 0.108072 -0.028544 0.029720
v 0.106851 -0.034395 0.015628
v 0.106205 -0.028544 0.001498
v 0.106512 -0.014419 -0.004393
v 0.107592 -0.000294 0.001406
v 0.108812 0.005557 0.015498
v 0.109458 -0.000294 0.029629
v 0.138897 -0.015885 0.033553
v 0.137817 -0.030010 0.027753
v 0.136597 -0.035861 0.013661
v 0.135951 -0.030010 -0.000469
v 0.136257 -0.015885 -0.006360
v 0.137337 -0.001760 -0.000561
v 0.138557 0.004091 0.013531
v 0.139203 -0.001760 0.027662
v -0.001686 0.000000 0.019929
v -0.003624 -0.013930 0.013886
v -0.003439 -0.019700 -0.000291
v -0.001239 -0.013930 -0.014298
v 0.001686 -0.000000 -0.019929
v 0.003624 0.013930 -0.013886
v 0.003439 0.019700 0.000291
v 0.001239 0.013930 0.014298
v 0.069552 -0.012525 0.025957
v 0.067614 -0.026455 0.019914
v 0.067799 -0.032225 0.005737
v 0.069999 -0.026455 -0.008269
v 0.072925 -0.012525 -0.013901
v 0.074862 0.001405 -0.007858
v 0.074677 0.007175 0.006319
v 0.072477 0.001405 0.020326
v 0.071556 -0.012525 0.026026
v 0.069538 -0.026536 0.020199
v 0.068516 -0.032339 0.006071
v 0.069089 -0.026536 -0.008082
v 0.070921 -0.012525 -0.013969
v 0.072938 0.001485 -0.008143
v 0.073960 0.007288 0.005985
v 0.073387 0.001485 0.020138
v 0.100115 -0.016450 0.025572
v 0.098097 -0.030460 0.019746
v 0.097075 -0.036263 0.005618
v 0.097648 -0.030460 -0.008535
v 0.099479 -0.016450 -0.014423
v 0.101497 -0.002439 -0.008596
v 0.102519 0.003364 0.005532
v 0.101946 -0.002439 0.019685
v 0.096057 -0.016450 0.025222
v 0.094860 -0.030398 0.019031
v 0.096555 -0.036175 0.004958
v 0.100149 -0.030398 -0.008754
v 0.103537 -0.016450 -0.014072
v 0.104734 -0.002501 -0.007881
v 0.103039 0.003276 0.006192
v 0.099445 -0.002501 0.019904
v 0.121508 -0.020784 0.030067
v 0.120311 -0.034732 0.023876
v 0.122006 -0.040510 0.009802
v 0.125600 -0.034732 -0.003910
v 0.128988 -0.020784 -0.009228
v 0.130185 -0.006836 -0.003037
v 0.128490 -0.001058 0.011037
v 0.124895 -0.006836 0.024749
v 0.120039 -0.020784 0.029729
v 0.120005 -0.034834 0.023653
v 0.123042 -0.040653 0.009825
v 0.127371 -0.034834 -0.003655
v 0.130456 -0.020784 -0.008890
v 0.130490 -0.006734 -0.002814
v 0.127454 -0.000915 0.011014
v 0.123125 -0.006734 0.024494
v 0.152414 -0.024640 0.038461
v 0.152379 -0.038689 0.032385
v 0.155416 -0.044509 0.018556
v 0.159745 -0.038689 0.005076
v 0.162830 -0.024640 -0.000159
v 0.162864 -0.010590 0.005918
v 0.159828 -0.004771 0.019746
v 0.155499 -0.010590 0.033226
v 0.002130 0.000000 0.019886
v -0.000103 -0.014049 0.014234
v -0.002276 -0.019869 0.000244
v -0.003116 -0.014049 -0.013889
v -0.002130 -0.000000 -0.019886
v 0.000103 0.014049 -0.014234
v 0.002276 0.019869 -0.000244
v 0.003116 0.014049 0.013889
v 0.076455 -0.008613 0.011925
v 0.074221 -0.022662 0.006272
v 0.072048 -0.028482 -0.007718
v 0.071208 -0.022662 -0.021851
v 0.072194 -0.008613 -0.027848
v 0.074428 0.005436 -0.022196
v 0.076601 0.011255 -0.008206
v 0.077440 0.005436 0.005928
v 0.073354 -0.008613 0.012015
v 0.071390 -0.022575 0.006055
v 0.071146 -0.028358 -0.008116
v 0.072763 -0.022575 -0.022196
v 0.075295 -0.008613 -0.027938
v 0.077258 0.005349 -0.021978
v 0.077503 0.011132 -0.007807
v 0.075886 0.005349 0.006273
v 0.093904 -0.011929 0.013013
v 0.091940 -0.025891 0.007053
v 0.091696 -0.031674 -0.007118
v 0.093313 -0.025891 -0.021198
v 0.095845 -0.011929 -0.026940
v 0.097808 0.002033 -0.020980
v 0.098053 0.007816 -0.006809
v 0.096436 0.002033 0.007271
v 0.093039 -0.011929 0.012952
v 0.092027 -0.025986 0.006976
v 0.092683 -0.031808 -0.007165
v 0.094623 -0.025986 -0.021189
v 0.096710 -0.011929 -0.026879
v 0.097722 0.002127 -0.020903
v 0.097065 0.007949 -0.006761
v 0.095126 0.002127 0.007262
v 0.116223 -0.014506 0.015089
v 0.115212 -0.028563 0.009113
v 0.115868 -0.034385 -0.005028
v 0.117808 -0.028563 -0.019051
v 0.119895 -0.014506 -0.024742
v 0.120906 -0.000450 -0.018766
v 0.120250 0.005372 -0.004624
v 0.118310 -0.000450 0.009399
v 0.113760 -0.014506 0.014706
v 0.113204 -0.028526 0.008586
v 0.115491 -0.034333 -0.005391
v 0.119283 -0.028526 -0.019037
v 0.122357 -0.014506 -0.024359
v 0.122914 -0.000487 -0.018238
v 0.120627 0.005320 -0.004261
v 0.116835 -0.000487 0.009385
v 0.141463 -0.018268 0.020803
v 0.140907 -0.032288 0.014682
v 0.143194 -0.038095 0.000705
v 0.146985 -0.032288 -0.012941
v 0.150060 -0.018268 -0.018262
v 0.150617 -0.004249 -0.012142
v 0.148330 0.001558 0.001835
v 0.144538 -0.004249 0.015481
v 0.004510 0.000000 0.019485
v 0.001587 -0.014046 0.014149
v -0.002266 -0.019864 0.000525
v -0.004791 -0.014046 -0.013407
v -0.004510 -0.000000 -0.019485
v -0.001587 0.014046 -0.014149
v 0.002266 0.019864 -0.000525
v 0.004791 0.014046 0.013407
v 0.070718 -0.007957 0.004160
v 0.067795 -0.022004 -0.001176
v 0.063942 -0.027822 -0.014800
v 0.061416 -0.022004 -0.028732
v 0.061698 -0.007957 -0.034810
v 0.064621 0.006089 -0.029474
v 0.068474 0.011907 -0.015849
v 0.070999 0.006089 -0.001918
v 0.067065 -0.007957 0.004657
v 0.067799 -0.022065 -0.001238
v 0.067601 -0.027909 -0.015385
v 0.066587 -0.022065 -0.029496
v 0.065351 -0.007957 -0.035307
v 0.064617 0.006150 -0.029412
v 0.064815 0.011994 -0.015265
v 0.065829 0.006150 -0.001154
v 0.085028 -0.006701 0.003886
v 0.085762 -0.020809 -0.002008
v 0.085564 -0.026652 -0.016155
v 0.084550 -0.020809 -0.030267
v 0.083315 -0.006701 -0.036077
v 0.082581 0.007407 -0.030182
v 0.082779 0.013250 -0.016035
v 0.083792 0.007407 -0.001924
v 0.083977 -0.006701 0.003904
v 0.082410 -0.020750 -0.001969
v 0.081875 -0.026569 -0.016118
v 0.082685 -0.020750 -0.030252
v 0.084366 -0.006701 -0.036094
v 0.085933 0.007347 -0.030221
v 0.086468 0.013167 -0.016073
v 0.085658 0.007347 -0.001938
v 0.102481 -0.008840 0.004084
v 0.100914 -0.022889 -0.001789
v 0.100379 -0.028708 -0.015937
v 0.101189 -0.022889 -0.030072
v 0.102870 -0.008840 -0.035914
v 0.104437 0.005208 -0.030041
v 0.104972 0.011027 -0.015893
v 0.104162 0.005208 -0.001758
v 0.102759 -0.008840 0.004085
v 0.099215 -0.022538 -0.001758
v 0.097699 -0.028211 -0.015894
v 0.099097 -0.022538 -0.030042
v 0.102592 -0.008840 -0.035915
v 0.106135 0.004857 -0.030072
v 0.107652 0.010530 -0.015936
v 0.106253 0.004857 -0.001788
v 0.124969 -0.014547 0.003992
v 0.121425 -0.028244 -0.001851
v 0.119909 -0.033917 -0.015987
v 0.121307 -0.028244 -0.030135
v 0.124802 -0.014547 -0.036007
v 0.128345 -0.000849 -0.030164
v 0.129862 0.004824 -0.016028
v 0.128463 -0.000849 -0.001880
v -0.015000 -0.015000 -0.015000
v 0.015000 -0.015000 -0.015000
v 0.015000 0.015000 -0.015000
v -0.015000 0.015000 -0.015000
v -0.015000 -0.015000 0.015000
v 0.015000 -0.015000 0.015000
v 0.015000 0.015000 0.015000
v -0.015000 0.015000 0.015000
v -0.010222 -0.022763 -0.009899
v 0.019778 -0.022763 -0.009899
v 0.019778 0.007237 -0.009899
v -0.010222 0.007237 -0.009899
v -0.010222 -0.022763 0.020101
v 0.019778 -0.022763 0.020101
v 0.019778 0.007237 0.020101
v -0.010222 0.007237 0.020101
v 0.005052 -0.025971 -0.003052
v 0.035052 -0.025971 -0.003052
v 0.035052 0.004029 -0.003052
v 0.005052 0.004029 -0.003052
v 0.005052 -0.025971 0.026948
v 0.035052 -0.025971 0.026948
v 0.035052 0.004029 0.026948
v 0.005052 0.004029 0.026948
v 0.016015 -0.016160 -0.000180
v 0.046015 -0.016160 -0.000180
v 0.046015 0.013840 -0.000180
v 0.016015 0.013840 -0.000180
v 0.016015 -0.016160 0.029820
v 0.046015 -0.016160 0.029820
v 0.046015 0.013840 0.029820
v 0.016015 0.013840 0.029820
v 0.022434 -0.001073 0.010620
v 0.052434 -0.001073 0.010620
v 0.052434 0.028927 0.010620
v 0.022434 0.028927 0.010620
v 0.022434 -0.001073 0.040620
v 0.052434 -0.001073 0.040620
v 0.052434 0.028927 0.040620
v 0.022434 0.028927 0.040620
v 0.050065 -0.032865 -0.003996
v 0.080065 -0.032865 -0.003996
v 0.080065 -0.002865 -0.003996
v 0.050065 -0.002865 -0.003996
v 0.050065 -0.032865 0.026004
v 0.080065 -0.032865 0.026004
v 0.080065 -0.002865 0.026004
v 0.050065 -0.002865 0.026004
v 0.071957 -0.031876 -0.006220
v 0.101957 -0.031876 -0.006220
v 0.101957 -0.001876 -0.006220
v 0.071957 -0.001876 -0.006220
v 0.071957 -0.031876 0.023780
v 0.101957 -0.031876 0.023780
v 0.101957 -0.001876 0.023780
v 0.071957 -0.001876 0.023780
v 0.092832 -0.029419 0.000563
v 0.122832 -0.029419 0.000563
v 0.122832 0.000581 0.000563
v 0.092832 0.000581 0.000563
v 0.092832 -0.029419 0.030563
v 0.122832 -0.029419 0.030563
v 0.122832 0.000581 0.030563
v 0.092832 0.000581 0.030563
v 0.122577 -0.030885 -0.001404
v 0.152577 -0.030885 -0.001404
v 0.152577 -0.000885 -0.001404
v 0.122577 -0.000885 -0.001404
v 0.122577 -0.030885 0.028596
v 0.152577 -0.030885 0.028596
v 0.152577 -0.000885 0.028596
v 0.122577 -0.000885 0.028596
v 0.056238 -0.027525 -0.008972
v 0.086238 -0.027525 -0.008972
v 0.086238 0.002475 -0.008972
v 0.056238 0.002475 -0.008972
v 0.056238 -0.027525 0.021028
v 0.086238 -0.027525 0.021028
v 0.086238 0.002475 0.021028
v 0.056238 0.002475 0.021028
v 0.084797 -0.031450 -0.009425
v 0.114797 -0.031450 -0.009425
v 0.114797 -0.001450 -0.009425
v 0.084797 -0.001450 -0.009425
v 0.084797 -0.031450 0.020575
v 0.114797 -0.031450 0.020575
v 0.114797 -0.001450 0.020575
v 0.084797 -0.001450 0.020575
v 0.110248 -0.035784 -0.004580
v 0.140248 -0.035784 -0.004580
v 0.140248 -0.005784 -0.004580
v 0.110248 -0.005784 -0.004580
v 0.110248 -0.035784 0.025420
v 0.140248 -0.035784 0.025420
v 0.140248 -0.005784 0.025420
v 0.110248 -0.005784 0.025420
v 0.142622 -0.039640 0.004151
v 0.172622 -0.039640 0.004151
v 0.172622 -0.009640 0.004151
v 0.142622 -0.009640 0.004151
v 0.142622 -0.039640 0.034151
v 0.172622 -0.039640 0.034151
v 0.172622 -0.009640 0.034151
v 0.142622 -0.009640 0.034151
v 0.059324 -0.023613 -0.022962
v 0.089324 -0.023613 -0.022962
v 0.089324 0.006387 -0.022962
v 0.059324 0.006387 -0.022962
v 0.059324 -0.023613 0.007038
v 0.089324 -0.023613 0.007038
v 0.089324 0.006387 0.007038
v 0.059324 0.006387 0.007038
v 0.079874 -0.026929 -0.021963
v 0.109874 -0.026929 -0.021963
v 0.109874 0.003071 -0.021963
v 0.079874 0.003071 -0.021963
v 0.079874 -0.026929 0.008037
v 0.109874 -0.026929 0.008037
v 0.109874 0.003071 0.008037
v 0.079874 0.003071 0.008037
v 0.103059 -0.029506 -0.019826
v 0.133059 -0.029506 -0.019826
v 0.133059 0.000494 -0.019826
v 0.103059 0.000494 -0.019826
v 0.103059 -0.029506 0.010174
v 0.133059 -0.029506 0.010174
v 0.133059 0.000494 0.010174
v 0.103059 0.000494 0.010174
v 0.130762 -0.033268 -0.013730
v 0.160762 -0.033268 -0.013730
v 0.160762 -0.003268 -0.013730
v 0.130762 -0.003268 -0.013730
v 0.130762 -0.033268 0.016270
v 0.160762 -0.033268 0.016270
v 0.160762 -0.003268 0.016270
v 0.130762 -0.003268 0.016270
v 0.051208 -0.022957 -0.030325
v 0.081208 -0.022957 -0.030325
v 0.081208 0.007043 -0.030325
v 0.051208 0.007043 -0.030325
v 0.051208 -0.022957 -0.000325
v 0.081208 -0.022957 -0.000325
v 0.081208 0.007043 -0.000325
v 0.051208 0.007043 -0.000325
v 0.069171 -0.021701 -0.031095
v 0.099171 -0.021701 -0.031095
v 0.099171 0.008299 -0.031095
v 0.069171 0.008299 -0.031095
v 0.069171 -0.021701 -0.001095
v 0.099171 -0.021701 -0.001095
v 0.099171 0.008299 -0.001095
v 0.069171 0.008299 -0.001095
v 0.087675 -0.023840 -0.030915
v 0.117675 -0.023840 -0.030915
v 0.117675 0.006160 -0.030915
v 0.087675 0.006160 -0.030915
v 0.087675 -0.023840 -0.000915
v 0.117675 -0.023840 -0.000915
v 0.117675 0.006160 -0.000915
v 0.087675 0.006160 -0.000915
v 0.109885 -0.029547 -0.031008
v 0.139885 -0.029547 -0.031008
v 0.139885 0.000453 -0.031008
v 0.109885 0.000453 -0.031008
v 0.109885 -0.029547 -0.001008
v 0.139885 -0.029547 -0.001008
v 0.139885 0.000453 -0.001008
v 0.109885 0.000453 -0.001008
v -0.002175 0.000000 -0.019881
v 0.001984 -0.013691 -0.014444
v 0.004981 -0.019362 -0.000545
v 0.005060 -0.013691 0.013673
v 0.002175 -0.000000 0.019881
v -0.001984 0.013691 0.014444
v -0.004981 0.019362 0.000545
v -0.005060 0.013691 -0.013673
v -0.032934 -0.008007 -0.016517
v -0.028775 -0.021698 -0.011079
v -0.025779 -0.027370 0.002820
v -0.025700 -0.021698 0.017038
v -0.028585 -0.008007 0.023246
v -0.032744 0.005684 0.017808
v -0.035740 0.011355 0.003910
v -0.035819 0.005684 -0.010308
v -0.023817 -0.008007 -0.015392
v -0.022472 -0.021683 -0.008648
v -0.025981 -0.027347 0.005133
v -0.032290 -0.021683 0.017878
v -0.037701 -0.008007 0.022121
v -0.039047 0.005668 0.015377
v -0.035538 0.011333 0.001596
v -0.029229 0.005668 -0.011149
v -0.052570 -0.016084 -0.026033
v -0.051225 -0.029760 -0.019289
v -0.054734 -0.035424 -0.005508
v -0.061042 -0.029760 0.007237
v -0.066454 -0.016084 0.011480
v -0.067800 -0.002408 0.004736
v -0.064290 0.003256 -0.009045
v -0.057982 -0.002408 -0.021790
v -0.059512 -0.035583 -0.011723
v -0.069790 -0.032032 -0.000950
v -0.074047 -0.019138 0.006117
v -0.069790 -0.004455 0.005338
v -0.059512 0.003415 -0.002830
v -0.049234 -0.000136 -0.013604
v -0.044977 -0.013030 -0.020671
v -0.049234 -0.027713 -0.019892
v -0.080194 -0.030719 -0.033057
v -0.090471 -0.027167 -0.022283
v -0.094729 -0.014274 -0.015216
v -0.090471 0.000409 -0.015995
v -0.080194 0.008280 -0.024164
v -0.069916 0.004729 -0.034937
v -0.065659 -0.008165 -0.042005
v -0.069916 -0.022848 -0.041226
v -0.080194 -0.030521 -0.033850
v -0.091883 -0.026953 -0.024634
v -0.096725 -0.014168 -0.017747
v -0.091883 0.000344 -0.017224
v -0.080194 0.008082 -0.023371
v -0.068504 0.004514 -0.032587
v -0.063662 -0.008270 -0.039474
v -0.068504 -0.022782 -0.039997
v -0.096939 -0.024078 -0.057583
v -0.108628 -0.020510 -0.048366
v -0.113470 -0.007726 -0.041479
v -0.108628 0.006786 -0.040956
v -0.096939 0.014525 -0.047103
v -0.085250 0.010957 -0.056320
v -0.080408 -0.001828 -0.063207
v -0.085250 -0.016340 -0.063730
v 0.000000 -0.013924 0.014357
v -0.007964 -0.001457 0.018288
v -0.011263 0.011864 0.011506
v -0.007964 0.018235 -0.002016
v -0.000000 0.013924 -0.014357
v 0.007964 0.001457 -0.018288
v 0.011263 -0.011864 -0.011506
v 0.007964 -0.018235 0.002016
v -0.085114 -0.055564 -0.026028
v -0.093078 -0.043097 -0.022097
v -0.096377 -0.029776 -0.028879
v -0.093078 -0.023405 -0.042401
v -0.085114 -0.027716 -0.054742
v -0.077149 -0.040183 -0.058673
v -0.073850 -0.053504 -0.051891
v -0.077149 -0.059875 -0.038369
v -0.085114 -0.051127 -0.057991
v -0.095782 -0.056521 -0.048430
v -0.100201 -0.053198 -0.034157
v -0.095782 -0.043104 -0.023531
v -0.085114 -0.032152 -0.022778
v -0.074445 -0.026759 -0.032339
v -0.070026 -0.030082 -0.046613
v -0.074445 -0.040176 -0.057238
v -0.102836 -0.033199 -0.067652
v -0.113504 -0.038593 -0.058091
v -0.117923 -0.035270 -0.043817
v -0.113504 -0.025176 -0.033192
v -0.102836 -0.014224 -0.032439
v -0.092167 -0.008830 -0.042000
v -0.087748 -0.012154 -0.056274
v -0.092167 -0.022248 -0.066899
v -0.102836 -0.010200 -0.064791
v -0.114512 -0.020041 -0.065863
v -0.119348 -0.032031 -0.057669
v -0.114512 -0.039149 -0.045009
v -0.102836 -0.037223 -0.035300
v -0.091159 -0.027383 -0.034228
v -0.086323 -0.015392 -0.042422
v -0.091159 -0.008275 -0.055082
v -0.116365 0.004397 -0.051416
v -0.128041 -0.005444 -0.052488
v -0.132877 -0.017435 -0.044294
v -0.128041 -0.024552 -0.031634
v -0.116365 -0.022626 -0.021925
v -0.104688 -0.012786 -0.020853
v -0.099852 -0.000795 -0.029047
v -0.104688 0.006322 -0.041707
v -0.116365 -0.001634 -0.055219
v -0.127203 -0.012251 -0.053184
v -0.131692 -0.021030 -0.041476
v -0.127203 -0.022830 -0.026953
v -0.116365 -0.016595 -0.018122
v -0.105526 -0.005979 -0.020157
v -0.101037 0.002800 -0.031865
v -0.105526 0.004600 -0.046388
v -0.132512 0.016231 -0.048014
v -0.143350 0.005615 -0.045979
v -0.147839 -0.003164 -0.034271
v -0.143350 -0.004964 -0.019748
v -0.132512 0.001271 -0.010917
v -0.121673 0.011887 -0.012952
v -0.117184 0.020666 -0.024660
v -0.121673 0.022466 -0.039183
v 0.000000 -0.017610 0.009482
v -0.009161 -0.007344 0.016191
v -0.012955 0.007224 0.013416
v -0.009161 0.017560 0.002782
v -0.000000 0.017610 -0.009482
v 0.009161 0.007344 -0.016191
v 0.012955 -0.007224 -0.013416
v 0.009161 -0.017560 -0.002782
v -0.071917 -0.046598 -0.044356
v -0.081078 -0.036332 -0.037647
v -0.084872 -0.021764 -0.040422
v -0.081078 -0.011428 -0.051056
v -0.071917 -0.011378 -0.063319
v -0.062757 -0.021644 -0.070029
v -0.058962 -0.036212 -0.067254
v -0.062757 -0.046548 -0.056620
v -0.071917 -0.040632 -0.070098
v -0.078996 -0.047176 -0.058208
v -0.081929 -0.043065 -0.043757
v -0.078996 -0.030708 -0.035212
v -0.071917 -0.017344 -0.037577
v -0.064838 -0.010800 -0.049468
v -0.061906 -0.014911 -0.063918
v -0.064838 -0.027268 -0.072464
v -0.098093 -0.028326 -0.078911
v -0.105172 -0.034870 -0.067020
v -0.108105 -0.030759 -0.052570
v -0.105172 -0.018402 -0.044024
v -0.098093 -0.005038 -0.046389
v -0.091014 0.001505 -0.058280
v -0.088081 -0.002605 -0.072730
v -0.091014 -0.014962 -0.081276
v -0.098093 -0.010683 -0.081729
v -0.110407 -0.019074 -0.078227
v -0.115508 -0.026064 -0.065600
v -0.110407 -0.027558 -0.051245
v -0.098093 -0.022681 -0.043571
v -0.085779 -0.014290 -0.047073
v -0.080678 -0.007300 -0.059700
v -0.085779 -0.005806 -0.074055
v -0.111923 0.012677 -0.074384
v -0.124237 0.004286 -0.070882
v -0.129338 -0.002704 -0.058255
v -0.124237 -0.004198 -0.043900
v -0.111923 0.000679 -0.036226
v -0.099609 0.009071 -0.039728
v -0.094508 0.016061 -0.052355
v -0.099609 0.017555 -0.066710
v -0.111923 0.017534 -0.072103
v -0.124933 0.009698 -0.070192
v -0.130322 0.000093 -0.059560
v -0.124933 -0.005654 -0.046436
v -0.111923 -0.004177 -0.038507
v -0.098913 0.003659 -0.040418
v -0.093524 0.013264 -0.051049
v -0.098913 0.019011 -0.064174
v -0.121432 0.036276 -0.059991
v -0.134442 0.028440 -0.058080
v -0.139831 0.018836 -0.047448
v -0.134442 0.013089 -0.034324
v -0.121432 0.014566 -0.026395
v -0.108422 0.022401 -0.028306
v -0.103033 0.032006 -0.038938
v -0.108422 0.037753 -0.052062
v 0.000000 -0.019315 0.005189
v -0.010827 -0.011297 0.012456
v -0.015311 0.003338 0.012427
v -0.010827 0.016018 0.005118
v -0.000000 0.019315 -0.005189
v 0.010827 0.011297 -0.012456
v 0.015311 -0.003338 -0.012427
v 0.010827 -0.016018 -0.005118
v -0.058982 -0.037524 -0.062592
v -0.069809 -0.029506 -0.055325
v -0.074293 -0.014871 -0.055354
v -0.069809 -0.002191 -0.062663
v -0.058982 0.001106 -0.072970
v -0.048155 -0.006912 -0.080237
v -0.043671 -0.021548 -0.080208
v -0.048155 -0.034228 -0.072899
v -0.058982 -0.014097 -0.087354
v -0.069268 -0.024800 -0.083616
v -0.073529 -0.031641 -0.070603
v -0.069268 -0.030615 -0.055937
v -0.058982 -0.022321 -0.048208
v -0.048696 -0.011619 -0.051945
v -0.044435 -0.004777 -0.064959
v -0.048696 -0.005803 -0.079625
v -0.073458 0.000917 -0.084199
v -0.083744 -0.009785 -0.080462
v -0.088005 -0.016627 -0.067449
v -0.083744 -0.015601 -0.052782
v -0.073458 -0.007307 -0.045054
v -0.063172 0.003395 -0.048791
v -0.058911 0.010237 -0.061804
v -0.063172 0.009211 -0.076471
v -0.073458 0.011885 -0.077764
v -0.087472 0.008713 -0.072487
v -0.093277 -0.001435 -0.062606
v -0.087472 -0.012614 -0.053909
v -0.073458 -0.018276 -0.051489
v -0.059443 -0.015103 -0.056766
v -0.053638 -0.004955 -0.066647
v -0.059443 0.006224 -0.075344
v -0.070049 0.028448 -0.058751
v -0.084063 0.025276 -0.053474
v -0.089869 0.015128 -0.043593
v -0.084063 0.003949 -0.034896
v -0.070049 -0.001713 -0.032477
v -0.056034 0.001460 -0.037753
v -0.050229 0.011608 -0.047634
v -0.056034 0.022787 -0.056332
v -0.070049 0.033131 -0.048682
v -0.083292 0.028103 -0.042881
v -0.088778 0.014444 -0.038682
v -0.083292 0.000154 -0.038543
v -0.070049 -0.006396 -0.042546
v -0.056805 -0.001368 -0.048346
v -0.051319 0.012292 -0.052546
v -0.056805 0.026582 -0.052685
v -0.059789 0.037333 -0.021614
v -0.073033 0.032305 -0.015814
v -0.078519 0.018646 -0.011614
v -0.073033 0.004356 -0.011475
v -0.059789 -0.002194 -0.015478
v -0.046546 0.002834 -0.021278
v -0.041060 0.016493 -0.025478
v -0.046546 0.030783 -0.025617
v 0.000000 -0.019991 0.000584
v -0.011735 -0.013906 0.008302
v -0.016596 0.000326 0.011157
v -0.011735 0.014367 0.007476
v -0.000000 0.019991 -0.000584
v 0.011735 0.013906 -0.008302
v 0.016596 -0.000326 -0.011157
v 0.011735 -0.014367 -0.007476
v -0.043476 -0.021879 -0.064031
v -0.055211 -0.015794 -0.056313
v -0.060072 -0.001562 -0.053459
v -0.055211 0.012479 -0.057139
v -0.043476 0.018104 -0.065200
v -0.031741 0.012018 -0.072918
v -0.026880 -0.002214 -0.075772
v -0.031741 -0.016255 -0.072092
v -0.043476 -0.002906 -0.084590
v -0.053282 -0.012786 -0.078220
v -0.057343 -0.016281 -0.063882
v -0.053282 -0.011345 -0.049973
v -0.043476 -0.000870 -0.044641
v -0.033671 0.009010 -0.051011
v -0.029609 0.012505 -0.065349
v -0.033671 0.007570 -0.079258
v -0.056870 0.009964 -0.085246
v -0.066675 0.000085 -0.078877
v -0.070737 -0.003411 -0.064538
v -0.066675 0.001525 -0.050629
v -0.056870 0.012001 -0.045298
v -0.047064 0.021880 -0.051667
v -0.043003 0.025376 -0.066005
v -0.047064 0.020440 -0.079914
v -0.056870 0.030621 -0.069056
v -0.070740 0.025392 -0.065238
v -0.076485 0.011721 -0.061439
v -0.070740 -0.002382 -0.059886
v -0.056870 -0.008656 -0.061487
v -0.043000 -0.003426 -0.065306
v -0.037254 0.010244 -0.069104
v -0.043000 0.024347 -0.070658
v -0.053269 0.034046 -0.051286
v -0.067139 0.028816 -0.047467
v -0.072884 0.015145 -0.043669
v -0.067139 0.001042 -0.042116
v -0.053269 -0.005232 -0.043717
v -0.039399 -0.000002 -0.047536
v -0.033653 0.013668 -0.051334
v -0.039399 0.027771 -0.052888
v -0.053269 0.033909 -0.051937
v -0.066612 0.029236 -0.046069
v -0.072139 0.015877 -0.041039
v -0.066612 0.001656 -0.039795
v -0.053269 -0.005095 -0.043066
v -0.039926 -0.000422 -0.048934
v -0.034399 0.012937 -0.053964
v -0.039926 0.027157 -0.055208
v -0.045419 0.038866 -0.030143
v -0.058762 0.034193 -0.024274
v -0.064289 0.020834 -0.019245
v -0.058762 0.006614 -0.018001
v -0.045419 -0.000138 -0.021271
v -0.032076 0.004535 -0.027140
v -0.026549 0.017894 -0.032169
v -0.032076 0.032115 -0.033413
v -0.015000 -0.015000 -0.015000
v 0.015000 -0.015000 -0.015000
v 0.015000 0.015000 -0.015000
v -0.015000 0.015000 -0.015000
v -0.015000 -0.015000 0.015000
v 0.015000 -0.015000 0.015000
v 0.015000 0.015000 0.015000
v -0.015000 0.015000 0.015000
v -0.045759 -0.023007 -0.011635
v -0.015759 -0.023007 -0.011635
v -0.015759 0.006993 -0.011635
v -0.045759 0.006993 -0.011635
v -0.045759 -0.023007 0.018365
v -0.015759 -0.023007 0.018365
v -0.015759 0.006993 0.018365
v -0.045759 0.006993 0.018365
v -0.074512 -0.031084 -0.022277
v -0.044512 -0.031084 -0.022277
v -0.044512 -0.001084 -0.022277
v -0.074512 -0.001084 -0.022277
v -0.074512 -0.031084 0.007723
v -0.044512 -0.031084 0.007723
v -0.044512 -0.001084 0.007723
v -0.074512 -0.001084 0.007723
v -0.095194 -0.026219 -0.043610
v -0.065194 -0.026219 -0.043610
v -0.065194 0.003781 -0.043610
v -0.095194 0.003781 -0.043610
v -0.095194 -0.026219 -0.013610
v -0.065194 -0.026219 -0.013610
v -0.065194 0.003781 -0.013610
v -0.095194 0.003781 -0.013610
v -0.111939 -0.019777 -0.067343
v -0.081939 -0.019777 -0.067343
v -0.081939 0.010223 -0.067343
v -0.111939 0.010223 -0.067343
v -0.111939 -0.019777 -0.037343
v -0.081939 -0.019777 -0.037343
v -0.081939 0.010223 -0.037343
v -0.111939 0.010223 -0.037343
v -0.100114 -0.056640 -0.055385
v -0.070114 -0.056640 -0.055385
v -0.070114 -0.026640 -0.055385
v -0.100114 -0.026640 -0.055385
v -0.100114 -0.056640 -0.025385
v -0.070114 -0.056640 -0.025385
v -0.070114 -0.026640 -0.025385
v -0.100114 -0.026640 -0.025385
v -0.117836 -0.038712 -0.065046
v -0.087836 -0.038712 -0.065046
v -0.087836 -0.008712 -0.065046
v -0.117836 -0.008712 -0.065046
v -0.117836 -0.038712 -0.035046
v -0.087836 -0.038712 -0.035046
v -0.087836 -0.008712 -0.035046
v -0.117836 -0.008712 -0.035046
v -0.131365 -0.024115 -0.051671
v -0.101365 -0.024115 -0.051671
v -0.101365 0.005885 -0.051671
v -0.131365 0.005885 -0.051671
v -0.131365 -0.024115 -0.021671
v -0.101365 -0.024115 -0.021671
v -0.101365 0.005885 -0.021671
v -0.131365 0.005885 -0.021671
v -0.147512 -0.006249 -0.044465
v -0.117512 -0.006249 -0.044465
v -0.117512 0.023751 -0.044465
v -0.147512 0.023751 -0.044465
v -0.147512 -0.006249 -0.014465
v -0.117512 -0.006249 -0.014465
v -0.117512 0.023751 -0.014465
v -0.147512 0.023751 -0.014465
v -0.086917 -0.043988 -0.068838
v -0.056917 -0.043988 -0.068838
v -0.056917 -0.013988 -0.068838
v -0.086917 -0.013988 -0.068838
v -0.086917 -0.043988 -0.038838
v -0.056917 -0.043988 -0.038838
v -0.056917 -0.013988 -0.038838
v -0.086917 -0.013988 -0.038838
v -0.113093 -0.031682 -0.077650
v -0.083093 -0.031682 -0.077650
v -0.083093 -0.001682 -0.077650
v -0.113093 -0.001682 -0.077650
v -0.113093 -0.031682 -0.047650
v -0.083093 -0.031682 -0.047650
v -0.083093 -0.001682 -0.047650
v -0.113093 -0.001682 -0.047650
v -0.126923 -0.008322 -0.070305
v -0.096923 -0.008322 -0.070305
v -0.096923 0.021678 -0.070305
v -0.126923 0.021678 -0.070305
v -0.126923 -0.008322 -0.040305
v -0.096923 -0.008322 -0.040305
v -0.096923 0.021678 -0.040305
v -0.126923 0.021678 -0.040305
v -0.136432 0.010421 -0.058193
v -0.106432 0.010421 -0.058193
v -0.106432 0.040421 -0.058193
v -0.136432 0.040421 -0.058193
v -0.136432 0.010421 -0.028193
v -0.106432 0.010421 -0.028193
v -0.106432 0.040421 -0.028193
v -0.136432 0.040421 -0.028193
v -0.073982 -0.033209 -0.082781
v -0.043982 -0.033209 -0.082781
v -0.043982 -0.003209 -0.082781
v -0.073982 -0.003209 -0.082781
v -0.073982 -0.033209 -0.052781
v -0.043982 -0.033209 -0.052781
v -0.043982 -0.003209 -0.052781
v -0.073982 -0.003209 -0.052781
v -0.088458 -0.018195 -0.079627
v -0.058458 -0.018195 -0.079627
v -0.058458 0.011805 -0.079627
v -0.088458 0.011805 -0.079627
v -0.088458 -0.018195 -0.049627
v -0.058458 -0.018195 -0.049627
v -0.058458 0.011805 -0.049627
v -0.088458 0.011805 -0.049627
v -0.085049 -0.001632 -0.060614
v -0.055049 -0.001632 -0.060614
v -0.055049 0.028368 -0.060614
v -0.085049 0.028368 -0.060614
v -0.085049 -0.001632 -0.030614
v -0.055049 -0.001632 -0.030614
v -0.055049 0.028368 -0.030614
v -0.085049 0.028368 -0.030614
v -0.074789 0.002569 -0.033546
v -0.044789 0.002569 -0.033546
v -0.044789 0.032569 -0.033546
v -0.074789 0.032569 -0.033546
v -0.074789 0.002569 -0.003546
v -0.044789 0.002569 -0.003546
v -0.044789 0.032569 -0.003546
v -0.074789 0.032569 -0.003546
v -0.058476 -0.016888 -0.079615
v -0.028476 -0.016888 -0.079615
v -0.028476 0.013112 -0.079615
v -0.058476 0.013112 -0.079615
v -0.058476 -0.016888 -0.049615
v -0.028476 -0.016888 -0.049615
v -0.028476 0.013112 -0.049615
v -0.058476 0.013112 -0.049615
v -0.071870 -0.004017 -0.080272
v -0.041870 -0.004017 -0.080272
v -0.041870 0.025983 -0.080272
v -0.071870 0.025983 -0.080272
v -0.071870 -0.004017 -0.050272
v -0.041870 -0.004017 -0.050272
v -0.041870 0.025983 -0.050272
v -0.071870 0.025983 -0.050272
v -0.068269 -0.000593 -0.062502
v -0.038269 -0.000593 -0.062502
v -0.038269 0.029407 -0.062502
v -0.068269 0.029407 -0.062502
v -0.068269 -0.000593 -0.032502
v -0.038269 -0.000593 -0.032502
v -0.038269 0.029407 -0.032502
v -0.068269 0.029407 -0.032502
v -0.060419 0.004364 -0.040707
v -0.030419 0.004364 -0.040707
v -0.030419 0.034364 -0.040707
v -0.060419 0.034364 -0.040707
v -0.060419 0.004364 -0.010707
v -0.030419 0.004364 -0.010707
v -0.030419 0.034364 -0.010707
v -0.060419 0.034364 -0.010707
f 1 2 9
f 2 10 9
f 2 3 10
f 3 11 10
f 3 4 11
f 4 12 11
f 4 5 12
f 5 13 12
f 5 6 13
f 6 14 13
f 6 7 14
f 7 15 14
f 7 8 15
f 8 16 15
f 8 1 16
f 1 9 16
f 17 18 25
f 18 26 25
f 18 19 26
f 19 27 26
f 19 20 27
f 20 28 27
f 20 21 28
f 21 29 28
f 21 22 29
f 22 30 29
f 22 23 30
f 23 31 30
f 23 24 31
f 24 32 31
f 24 17 32
f 17 25 32
f 33 34 41
f 34 42 41
f 34 35 42
f 35 43 42
f 35 36 43
f 36 44 43
f 36 37 44
f 37 45 44
f 37 38 45
f 38 46 45
f 38 39 46
f 39 47 46
f 39 40 47
f 40 48 47
f 40 33 48
f 33 41 48
f 49 50 57
f 50 58 57
f 50 51 58
f 51 59 58
f 51 52 59
f 52 60 59
f 52 53 60
f 53 61 60
f 53 54 61
f 54 62 61
f 54 55 62
f 55 63 62
f 55 56 63
f 56 64 63
f 56 49 64
f 49 57 64
f 65 66 73
f 66 74 73
f 66 67 74
f 67 75 74
f 67 68 75
f 68 76 75
f 68 69 76
f 69 77 76
f 69 70 77
f 70 78 77
f 70 71 78
f 71 79 78
f 71 72 79
f 72 80 79
f 72 65 80
f 65 73 80
f 81 82 89
f 82 90 89
f 82 83 90
f 83 91 90
f 83 84 91
f 84 92 91
f 84 85 92
f 85 93 92
f 85 86 93
f 86 94 93
f 86 87 94
f 87 95 94
f 87 88 95
f 88 96 95
f 88 81 96
f 81 89 96
f 97 98 105
f 98 106 105
f 98 99 106
f 99 107 106
f 99 100 107
f 100 108 107
f 100 101 108
f 101 109 108
f 101 102 109
f 102 110 109
f 102 103 110
f 103 111 110
f 103 104 111
f 104 112 111
f 104 97 112
f 97 105 112
f 113 114 121
f 114 122 121
f 114 115 122
f 115 123 122
f 115 116 123
f 116 124 123
f 116 117 124
f 117 125 124
f 117 118 125
f 118 126 125
f 118 119 126
f 119 127 126
f 119 120 127
f 120 128 127
f 120 113 128
f 113 121 128
f 129 130 137
f 130 138 137
f 130 131 138
f 131 139 138
f 131 132 139
f 132 140 139
f 132 133 140
f 133 141 140
f 133 134 141
f 134 142 141
f 134 135 142
f 135 143 142
f 135 136 143
f 136 144 143
f 136 129 144
f 129 137 144
f 145 146 153
f 146 154 153
f 146 147 154
f 147 155 154
f 147 148 155
f 148 156 155
f 148 149 156
f 149 157 156
f 149 150 157
f 150 158 157
f 150 151 158
f 151 159 158
f 151 152 159
f 152 160 159
f 152 145 160
f 145 153 160
f 161 162 169
f 162 170 169
f 162 163 170
f 163 171 170
f 163 164 171
f 164 172 171
f 164 165 172
f 165 173 172
f 165 166 173
f 166 174 173
f 166 167 174
f 167 175 174
f 167 168 175
f 168 176 175
f 168 161 176
f 161 169 176
f 177 178 185
f 178 186 185
f 178 179 186
f 179 187 186
f 179 180 187
f 180 188 187
f 180 181 188
f 181 189 188
f 181 182 189
f 182 190 189
f 182 183 190
f 183 191 190
f 183 184 191
f 184 192 191
f 184 177 192
f 177 185 192
f 193 194 201
f 194 202 201
f 194 195 202
f 195 203 202
f 195 196 203
f 196 204 203
f 196 197 204
f 197 205 204
f 197 198 205
f 198 206 205
f 198 199 206
f 199 207 206
f 199 200 207
f 200 208 207
f 200 193 208
f 193 201 208
f 209 210 217
f 210 218 217
f 210 211 218
f 211 219 218
f 211 212 219
f 212 220 219
f 212 213 220
f 213 221 220
f 213 214 221
f 214 222 221
f 214 215 222
f 215 223 222
f 215 216 223
f 216 224 223
f 216 209 224
f 209 217 224
f 225 226 233
f 226 234 233
f 226 227 234
f 227 235 234
f 227 228 235
f 228 236 235
f 228 229 236
f 229 237 236
f 229 230 237
f 230 238 237
f 230 231 238
f 231 239 238
f 231 232 239
f 232 240 239
f 232 225 240
f 225 233 240
f 241 242 249
f 242 250 249
f 242 243 250
f 243 251 250
f 243 244 251
f 244 252 251
f 244 245 252
f 245 253 252
f 245 246 253
f 246 254 253
f 246 247 254
f 247 255 254
f 247 248 255
f 248 256 255
f 248 241 256
f 241 249 256
f 257 258 265
f 258 266 265
f 258 259 266
f 259 267 266
f 259 260 267
f 260 268 267
f 260 261 268
f 261 269 268
f 261 262 269
f 262 270 269
f 262 263 270
f 263 271 270
f 263 264 271
f 264 272 271
f 264 257 272
f 257 265 272
f 273 274 281
f 274 282 281
f 274 275 282
f 275 283 282
f 275 276 283
f 276 284 283
f 276 277 284
f 277 285 284
f 277 278 285
f 278 286 285
f 278 279 286
f 279 287 286
f 279 280 287
f 280 288 287
f 280 273 288
f 273 281 288
f 289 290 297
f 290 298 297
f 290 291 298
f 291 299 298
f 291 292 299
f 292 300 299
f 292 293 300
f 293 301 300
f 293 294 301
f 294 302 301
f 294 295 302
f 295 303 302
f 295 296 303
f 296 304 303
f 296 289 304
f 289 297 304
f 305 306 313
f 306 314 313
f 306 307 314
f 307 315 314
f 307 308 315
f 308 316 315
f 308 309 316
f 309 317 316
f 309 310 317
f 310 318 317
f 310 311 318
f 311 319 318
f 311 312 319
f 312 320 319
f 312 305 320
f 305 313 320
f 321 322 323
f 321 323 324
f 325 326 327
f 325 327 328
f 321 325 326
f 321 326 322
f 322 326 327
f 322 327 323
f 323 327 328
f 323 328 324
f 324 328 325
f 324 325 321
f 329 330 331
f 329 331 332
f 333 334 335
f 333 335 336
f 329 333 334
f 329 334 330
f 330 334 335
f 330 335 331
f 331 335 336
f 331 336 332
f 332 336 333
f 332 333 329
f 337 338 339
f 337 339 340
f 341 342 343
f 341 343 344
f 337 341 342
f 337 342 338
f 338 342 343
f 338 343 339
f 339 343 344
f 339 344 340
f 340 344 341
f 340 341 337
f 345 346 347
f 345 347 348
f 349 350 351
f 349 351 352
f 345 349 350
f 345 350 346
f 346 350 351
f 346 351 347
f 347 351 352
f 347 352 348
f 348 352 349
f 348 349 345
f 353 354 355
f 353 355 356
f 357 358 359
f 357 359 360
f 353 357 358
f 353 358 354
f 354 358 359
f 354 359 355
f 355 359 360
f 355 360 356
f 356 360 357
f 356 357 353
f 361 362 363
f 361 363 364
f 365 366 367
f 365 367 368
f 361 365 366
f 361 366 362
f 362 366 367
f 362 367 363
f 363 367 368
f 363 368 364
f 364 368 365
f 364 365 361
f 369 370 371
f 369 371 372
f 373 374 375
f 373 375 376
f 369 373 374
f 369 374 370
f 370 374 375
f 370 375 371
f 371 375 376
f 371 376 372
f 372 376 373
f 372 373 369
f 377 378 379
f 377 379 380
f 381 382 383
f 381 383 384
f 377 381 382
f 377 382 378
f 378 382 383
f 378 383 379
f 379 383 384
f 379 384 380
f 380 384 381
f 380 381 377
f 385 386 387
f 385 387 388
f 389 390 391
f 389 391 392
f 385 389 390
f 385 390 386
f 386 390 391
f 386 391 387
f 387 391 392
f 387 392 388
f 388 392 389
f 388 389 385
f 393 394 395
f 393 395 396
f 397 398 399
f 397 399 400
f 393 397 398
f 393 398 394
f 394 398 399
f 394 399 395
f 395 399 400
f 395 400 396
f 396 400 397
f 396 397 393
f 401 402 403
f 401 403 404
f 405 406 407
f 405 407 408
f 401 405 406
f 401 406 402
f 402 406 407
f 402 407 403
f 403 407 408
f 403 408 404
f 404 408 405
f 404 405 401
f 409 410 411
f 409 411 412
f 413 414 415
f 413 415 416
f 409 413 414
f 409 414 410
f 410 414 415
f 410 415 411
f 411 415 416
f 411 416 412
f 412 416 413
f 412 413 409
f 417 418 419
f 417 419 420
f 421 422 423
f 421 423 424
f 417 421 422
f 417 422 418
f 418 422 423
f 418 423 419
f 419 423 424
f 419 424 420
f 420 424 421
f 420 421 417
f 425 426 427
f 425 427 428
f 429 430 431
f 429 431 432
f 425 429 430
f 425 430 426
f 426 430 431
f 426 431 427
f 427 431 432
f 427 432 428
f 428 432 429
f 428 429 425
f 433 434 435
f 433 435 436
f 437 438 439
f 437 439 440
f 433 437 438
f 433 438 434
f 434 438 439
f 434 439 435
f 435 439 440
f 435 440 436
f 436 440 437
f 436 437 433
f 441 442 443
f 441 443 444
f 445 446 447
f 445 447 448
f 441 445 446
f 441 446 442
f 442 446 447
f 442 447 443
f 443 447 448
f 443 448 444
f 444 448 445
f 444 445 441
f 449 450 451
f 449 451 452
f 453 454 455
f 453 455 456
f 449 453 454
f 449 454 450
f 450 454 455
f 450 455 451
f 451 455 456
f 451 456 452
f 452 456 453
f 452 453 449
f 457 458 459
f 457 459 460
f 461 462 463
f 461 463 464
f 457 461 462
f 457 462 458
f 458 462 463
f 458 463 459
f 459 463 464
f 459 464 460
f 460 464 461
f 460 461 457
f 465 466 467
f 465 467 468
f 469 470 471
f 469 471 472
f 465 469 470
f 465 470 466
f 466 470 471
f 466 471 467
f 467 471 472
f 467 472 468
f 468 472 469
f 468 469 465
f 473 474 475
f 473 475 476
f 477 478 479
f 477 479 480
f 473 477 478
f 473 478 474
f 474 478 479
f 474 479 475
f 475 479 480
f 475 480 476
f 476 480 477
f 476 477 473
f 481 482 483
f 481 483 484
f 485 486 487
f 485 487 488
f 481 485 486
f 481 486 482
f 482 486 487
f 482 487 483
f 483 487 488
f 483 488 484
f 484 488 485
f 484 485 481
f 489 490 497
f 490 498 497
f 490 491 498
f 491 499 498
f 491 492 499
f 492 500 499
f 492 493 500
f 493 501 500
f 493 494 501
f 494 502 501
f 494 495 502
f 495 503 502
f 495 496 503
f 496 504 503
f 496 489 504
f 489 497 504
f 505 506 513
f 506 514 513
f 506 507 514
f 507 515 514
f 507 508 515
f 508 516 515
f 508 509 516
f 509 517 516
f 509 510 517
f 510 518 517
f 510 511 518
f 511 519 518
f 511 512 519
f 512 520 519
f 512 505 520
f 505 513 520
f 521 522 529
f 522 530 529
f 522 523 530
f 523 531 530
f 523 524 531
f 524 532 531
f 524 525 532
f 525 533 532
f 525 526 533
f 526 534 533
f 526 527 534
f 527 535 534
f 527 528 535
f 528 536 535
f 528 521 536
f 521 529 536
f 537 538 545
f 538 546 545
f 538 539 546
f 539 547 546
f 539 540 547
f 540 548 547
f 540 541 548
f 541 549 548
f 541 542 549
f 542 550 549
f 542 543 550
f 543 551 550
f 543 544 551
f 544 552 551
f 544 537 552
f 537 545 552
f 553 554 561
f 554 562 561
f 554 555 562
f 555 563 562
f 555 556 563
f 556 564 563
f 556 557 564
f 557 565 564
f 557 558 565
f 558 566 565
f 558 559 566
f 559 567 566
f 559 560 567
f 560 568 567
f 560 553 568
f 553 561 568
f 569 570 577
f 570 578 577
f 570 571 578
f 571 579 578
f 571 572 579
f 572 580 579
f 572 573 580
f 573 581 580
f 573 574 581
f 574 582 581
f 574 575 582
f 575 583 582
f 575 576 583
f 576 584 583
f 576 569 584
f 569 577 584
f 585 586 593
f 586 594 593
f 586 587 594
f 587 595 594
f 587 588 595
f 588 596 595
f 588 589 596
f 589 597 596
f 589 590 597
f 590 598 597
f 590 591 598
f 591 599 598
f 591 592 599
f 592 600 599
f 592 585 600
f 585 593 600
f 601 602 609
f 602 610 609
f 602 603 610
f 603 611 610
f 603 604 611
f 604 612 611
f 604 605 612
f 605 613 612
f 605 606 613
f 606 614 613
f 606 607 614
f 607 615 614
f 607 608 615
f 608 616 615
f 608 601 616
f 601 609 616
f 617 618 625
f 618 626 625
f 618 619 626
f 619 627 626
f 619 620 627
f 620 628 627
f 620 621 628
f 621 629 628
f 621 622 629
f 622 630 629
f 622 623 630
f 623 631 630
f 623 624 631
f 624 632 631
f 624 617 632
f 617 625 632
f 633 634 641
f 634 642 641
f 634 635 642
f 635 643 642
f 635 636 643
f 636 644 643
f 636 637 644
f 637 645 644
f 637 638 645
f 638 646 645
f 638 639 646
f 639 647 646
f 639 640 647
f 640 648 647
f 640 633 648
f 633 641 648
f 649 650 657
f 650 658 657
f 650 651 658
f 651 659 658
f 651 652 659
f 652 660 659
f 652 653 660
f 653 661 660
f 653 654 661
f 654 662 661
f 654 655 662
f 655 663 662
f 655 656 663
f 656 664 663
f 656 649 664
f 649 657 664
f 665 666 673
f 666 674 673
f 666 667 674
f 667 675 674
f 667 668 675
f 668 676 675
f 668 669 676
f 669 677 676
f 669 670 677
f 670 678 677
f 670 671 678
f 671 679 678
f 671 672 679
f 672 680 679
f 672 665 680
f 665 673 680
f 681 682 689
f 682 690 689
f 682 683 690
f 683 691 690
f 683 684 691
f 684 692 691
f 684 685 692
f 685 693 692
f 685 686 693
f 686 694 693
f 686 687 694
f 687 695 694
f 687 688 695
f 688 696 695
f 688 681 696
f 681 689 696
f 697 698 705
f 698 706 705
f 698 699 706
f 699 707 706
f 699 700 707
f 700 708 707
f 700 701 708
f 701 709 708
f 701 702 709
f 702 710 709
f 702 703 710
f 703 711 710
f 703 704 711
f 704 712 711
f 704 697 712
f 697 705 712
f 713 714 721
f 714 722 721
f 714 715 722
f 715 723 722
f 715 716 723
f 716 724 723
f 716 717 724
f 717 725 724
f 717 718 725
f 718 726 725
f 718 719 726
f 719 727 726
f 719 720 727
f 720 728 727
f 720 713 728
f 713 721 728
f 729 730 737
f 730 738 737
f 730 731 738
f 731 739 738
f 731 732 739
f 732 740 739
f 732 733 740
f 733 741 740
f 733 734 741
f 734 742 741
f 734 735 742
f 735 743 742
f 735 736 743
f 736 744 743
f 736 729 744
f 729 737 744
f 745 746 753
f 746 754 753
f 746 747 754
f 747 755 754
f 747 748 755
f 748 756 755
f 748 749 756
f 749 757 756
f 749 750 757
f 750 758 757
f 750 751 758
f 751 759 758
f 751 752 759
f 752 760 759
f 752 745 760
f 745 753 760
f 761 762 769
f 762 770 769
f 762 763 770
f 763 771 770
f 763 764 771
f 764 772 771
f 764 765 772
f 765 773 772
f 765 766 773
f 766 774 773
f 766 767 774
f 767 775 774
f 767 768 775
f 768 776 775
f 768 761 776
f 761 769 776
f 777 778 785
f 778 786 785
f 778 779 786
f 779 787 786
f 779 780 787
f 780 788 787
f 780 781 788
f 781 789 788
f 781 782 789
f 782 790 789
f 782 783 790
f 783 791 790
f 783 784 791
f 784 792 791
f 784 777 792
f 777 785 792
f 793 794 801
f 794 802 801
f 794 795 802
f 795 803 802
f 795 796 803
f 796 804 803
f 796 797 804
f 797 805 804
f 797 798 805
f 798 806 805
f 798 799 806
f 799 807 806
f 799 800 807
f 800 808 807
f 800 793 808
f 793 801 808
f 809 810 811
f 809 811 812
f 813 814 815
f 813 815 816
f 809 813 814
f 809 814 810
f 810 814 815
f 810 815 811
f 811 815 816
f 811 816 812
f 812 816 813
f 812 813 809
f 817 818 819
f 817 819 820
f 821 822 823
f 821 823 824
f 817 821 822
f 817 822 818
f 818 822 823
f 818 823 819
f 819 823 824
f 819 824 820
f 820 824 821
f 820 821 817
f 825 826 827
f 825 827 828
f 829 830 831
f 829 831 832
f 825 829 830
f 825 830 826
f 826 830 831
f 826 831 827
f 827 831 832
f 827 832 828
f 828 832 829
f 828 829 825
f 833 834 835
f 833 835 836
f 837 838 839
f 837 839 840
f 833 837 838
f 833 838 834
f 834 838 839
f 834 839 835
f 835 839 840
f 835 840 836
f 836 840 837
f 836 837 833
f 841 842 843
f 841 843 844
f 845 846 847
f 845 847 848
f 841 845 846
f 841 846 842
f 842 846 847
f 842 847 843
f 843 847 848
f 843 848 844
f 844 848 845
f 844 845 841
f 849 850 851
f 849 851 852
f 853 854 855
f 853 855 856
f 849 853 854
f 849 854 850
f 850 854 855
f 850 855 851
f 851 855 856
f 851 856 852
f 852 856 853
f 852 853 849
f 857 858 859
f 857 859 860
f 861 862 863
f 861 863 864
f 857 861 862
f 857 862 858
f 858 862 863
f 858 863 859
f 859 863 864
f 859 864 860
f 860 864 861
f 860 861 857
f 865 866 867
f 865 867 868
f 869 870 871
f 869 871 872
f 865 869 870
f 865 870 866
f 866 870 871
f 866 871 867
f 867 871 872
f 867 872 868
f 868 872 869
f 868 869 865
f 873 874 875
f 873 875 876
f 877 878 879
f 877 879 880
f 873 877 878
f 873 878 874
f 874 878 879
f 874 879 875
f 875 879 880
f 875 880 876
f 876 880 877
f 876 877 873
f 881 882 883
f 881 883 884
f 885 886 887
f 885 887 888
f 881 885 886
f 881 886 882
f 882 886 887
f 882 887 883
f 883 887 888
f 883 888 884
f 884 888 885
f 884 885 881
f 889 890 891
f 889 891 892
f 893 894 895
f 893 895 896
f 889 893 894
f 889 894 890
f 890 894 895
f 890 895 891
f 891 895 896
f 891 896 892
f 892 896 893
f 892 893 889
f 897 898 899
f 897 899 900
f 901 902 903
f 901 903 904
f 897 901 902
f 897 902 898
f 898 902 903
f 898 903 899
f 899 903 904
f 899 904 900
f 900 904 901
f 900 901 897
f 905 906 907
f 905 907 908
f 909 910 911
f 909 911 912
f 905 909 910
f 905 910 906
f 906 910 911
f 906 911 907
f 907 911 912
f 907 912 908
f 908 912 909
f 908 909 905
f 913 914 915
f 913 915 916
f 917 918 919
f 917 919 920
f 913 917 918
f 913 918 914
f 914 918 919
f 914 919 915
f 915 919 920
f 915 920 916
f 916 920 917
f 916 917 913
f 921 922 923
f 921 923 924
f 925 926 927
f 925 927 928
f 921 925 926
f 921 926 922
f 922 926 927
f 922 927 923
f 923 927 928
f 923 928 924
f 924 928 925
f 924 925 921
f 929 930 931
f 929 931 932
f 933 934 935
f 933 935 936
f 929 933 934
f 929 934 930
f 930 934 935
f 930 935 931
f 931 935 936
f 931 936 932
f 932 936 933
f 932 933 929
f 937 938 939
f 937 939 940
f 941 942 943
f 941 943 944
f 937 941 942
f 937 942 938
f 938 942 943
f 938 943 939
f 939 943 944
f 939 944 940
f 940 944 941
f 940 941 937
f 945 946 947
f 945 947 948
f 949 950 951
f 949 951 952
f 945 949 950
f 945 950 946
f 946 950 951
f 946 951 947
f 947 951 952
f 947 952 948
f 948 952 949
f 948 949 945
f 953 954 955
f 953 955 956
f 957 958 959
f 957 959 960
f 953 957 958
f 953 958 954
f 954 958 959
f 954 959 955
f 955 959 960
f 955 960 956
f 956 960 957
f 956 957 953
f 961 962 963
f 961 963 964
f 965 966 967
f 965 967 968
f 961 965 966
f 961 966 962
f 962 966 967
f 962 967 963
f 963 967 968
f 963 968 964
f 964 968 965
f 964 965 961
f 969 970 971
f 969 971 972
f 973 974 975
f 973 975 976
f 969 973 974
f 969 974 970
f 970 974 975
f 970 975 971
f 971 975 976
f 971 976 972
f 972 976 973
f 972 973 969
