# SignFlow 3D Hand Mesh - Frame 239
v 0.000000 0.000772 0.019985
v -0.012644 -0.005785 0.014376
v -0.017881 -0.008953 0.000346
v -0.012644 -0.006877 -0.013887
v -0.000000 -0.000772 -0.019985
v 0.012644 0.005785 -0.014376
v 0.017881 0.008953 -0.000346
v 0.012644 0.006877 0.013887
v 0.012052 -0.023262 0.020913
v -0.000591 -0.029819 0.015304
v -0.005829 -0.032987 0.001274
v -0.000591 -0.030910 -0.012959
v 0.012052 -0.024805 -0.019057
v 0.024696 -0.018248 -0.013448
v 0.029933 -0.015080 0.000582
v 0.024696 -0.017157 0.014815
v 0.012052 -0.022060 0.020830
v 0.002119 -0.032656 0.015994
v -0.001995 -0.038200 0.002332
v 0.002119 -0.035446 -0.012152
v 0.012052 -0.026006 -0.018975
v 0.021985 -0.015411 -0.014138
v 0.026099 -0.009866 -0.000477
v 0.021985 -0.012620 0.014008
v 0.027144 -0.036878 0.022299
v 0.017211 -0.047474 0.017463
v 0.013097 -0.053019 0.003802
v 0.017211 -0.050264 -0.010683
v 0.027144 -0.040825 -0.017505
v 0.037077 -0.030229 -0.012669
v 0.041191 -0.024684 0.000992
v 0.037077 -0.027439 0.015477
v 0.027144 -0.030221 0.020439
v 0.017125 -0.041752 0.019462
v 0.012975 -0.051584 0.008488
v 0.017125 -0.053958 -0.006053
v 0.027144 -0.047482 -0.015645
v 0.037163 -0.035951 -0.014668
v 0.041313 -0.026119 -0.003694
v 0.037163 -0.023745 0.010847
v 0.039232 -0.041167 0.025675
v 0.029213 -0.052698 0.024698
v 0.025063 -0.062531 0.013725
v 0.029213 -0.064904 -0.000817
v 0.039232 -0.058429 -0.010408
v 0.049251 -0.046897 -0.009431
v 0.053401 -0.037065 0.001542
v 0.049251 -0.034691 0.016084
v 0.039232 -0.052222 0.027486
v 0.026598 -0.057820 0.020901
v 0.021365 -0.058719 0.006544
v 0.026598 -0.054392 -0.007175
v 0.039232 -0.047374 -0.012219
v 0.051866 -0.041775 -0.005634
v 0.057099 -0.040876 0.008723
v 0.051866 -0.045204 0.022442
v 0.049056 -0.071609 0.025119
v 0.036423 -0.077207 0.018534
v 0.031190 -0.078106 0.004177
v 0.036423 -0.073779 -0.009542
v 0.049056 -0.066761 -0.014586
v 0.061690 -0.061162 -0.008001
v 0.066923 -0.060263 0.006356
v 0.061690 -0.064591 0.020074
v 0.000000 -0.010157 0.017229
v -0.009113 -0.016498 0.006690
v -0.012888 -0.013175 -0.007767
v -0.009113 -0.002134 -0.017675
v -0.000000 0.010157 -0.017229
v 0.009113 0.016498 -0.006690
v 0.012888 0.013175 0.007767
v 0.009113 0.002134 0.017675
v 0.052513 -0.048278 -0.005246
v 0.043399 -0.054619 -0.015784
v 0.039625 -0.051296 -0.030242
v 0.043399 -0.040254 -0.040149
v 0.052513 -0.027964 -0.039703
v 0.061626 -0.021623 -0.029165
v 0.065401 -0.024946 -0.014707
v 0.061626 -0.035987 -0.004800
v 0.054581 -0.038121 -0.002582
v 0.052775 -0.052212 -0.008283
v 0.050816 -0.058048 -0.022298
v 0.049850 -0.052212 -0.036416
v 0.050445 -0.038121 -0.042367
v 0.052250 -0.024030 -0.036665
v 0.054210 -0.018194 -0.022651
v 0.055175 -0.024030 -0.008533
v 0.069986 -0.039447 -0.004183
v 0.068180 -0.053537 -0.009885
v 0.066221 -0.059374 -0.023900
v 0.065255 -0.053537 -0.038018
v 0.065850 -0.039447 -0.043969
v 0.067655 -0.025356 -0.038267
v 0.069615 -0.019520 -0.024252
v 0.070580 -0.025356 -0.010134
v 0.067918 -0.023684 -0.011767
v 0.060146 -0.035572 -0.006060
v 0.056926 -0.049731 -0.010907
v 0.060146 -0.057865 -0.023468
v 0.067918 -0.055210 -0.036385
v 0.075690 -0.043322 -0.042092
v 0.078909 -0.029163 -0.037245
v 0.075690 -0.021029 -0.024684
v 0.085271 -0.030709 -0.002769
v 0.077499 -0.042598 0.002938
v 0.074280 -0.056756 -0.001909
v 0.077499 -0.064891 -0.014470
v 0.085271 -0.062236 -0.027388
v 0.093044 -0.050347 -0.033095
v 0.096263 -0.036189 -0.028248
v 0.093044 -0.028055 -0.015687
v 0.085271 -0.028864 -0.005596
v 0.077539 -0.039636 0.002052
v 0.074336 -0.054413 -0.000335
v 0.077539 -0.064539 -0.011359
v 0.085271 -0.064082 -0.024562
v 0.093004 -0.053310 -0.032209
v 0.096207 -0.038533 -0.029822
v 0.093004 -0.028407 -0.018798
v 0.103313 -0.034450 0.004777
v 0.095581 -0.045222 0.012425
v 0.092378 -0.059999 0.010038
v 0.095581 -0.070125 -0.000986
v 0.103313 -0.069668 -0.014189
v 0.111046 -0.058896 -0.021836
v 0.114248 -0.044119 -0.019449
v 0.111046 -0.033993 -0.008425
v 0.000000 -0.012984 0.015212
v -0.007842 -0.018133 0.003116
v -0.011090 -0.012659 -0.010806
v -0.007842 0.000230 -0.018397
v -0.000000 0.012984 -0.015212
v 0.007842 0.018133 -0.003116
v 0.011090 0.012659 0.010806
v 0.007842 -0.000230 0.018397
v 0.055105 -0.040910 -0.008625
v 0.047264 -0.046059 -0.020721
v 0.044016 -0.040585 -0.034642
v 0.047264 -0.027696 -0.042234
v 0.055105 -0.014941 -0.039049
v 0.062947 -0.009793 -0.026952
v 0.066195 -0.015266 -0.013031
v 0.062947 -0.028156 -0.005439
v 0.058129 -0.027926 -0.004067
v 0.054668 -0.041826 -0.009463
v 0.051463 -0.047583 -0.023279
v 0.050391 -0.041826 -0.037422
v 0.052081 -0.027926 -0.043607
v 0.055542 -0.014026 -0.038210
v 0.058747 -0.008268 -0.024394
v 0.059819 -0.014026 -0.010251
v 0.078986 -0.031881 -0.007257
v 0.075524 -0.045781 -0.012653
v 0.072319 -0.051538 -0.026470
v 0.071248 -0.045781 -0.040612
v 0.072938 -0.031881 -0.046797
v 0.076399 -0.017980 -0.041400
v 0.079604 -0.012223 -0.027584
v 0.080675 -0.017980 -0.013441
v 0.075962 -0.018211 -0.012427
v 0.068853 -0.031139 -0.008347
v 0.065908 -0.044502 -0.015210
v 0.068853 -0.050471 -0.028994
v 0.075962 -0.045550 -0.041626
v 0.083070 -0.032622 -0.045706
v 0.086015 -0.019259 -0.038844
v 0.083070 -0.013290 -0.025059
v 0.097715 -0.027444 -0.003782
v 0.090606 -0.040372 0.000297
v 0.087662 -0.053735 -0.006565
v 0.090606 -0.059704 -0.020350
v 0.097715 -0.054783 -0.032982
v 0.104823 -0.041855 -0.037061
v 0.107768 -0.028492 -0.030199
v 0.104823 -0.022523 -0.016414
v 0.097715 -0.025869 -0.005436
v 0.089059 -0.037574 -0.000703
v 0.085473 -0.051352 -0.006327
v 0.089059 -0.059132 -0.019012
v 0.097715 -0.056358 -0.031328
v 0.106371 -0.044653 -0.036061
v 0.109956 -0.030875 -0.030437
v 0.106371 -0.023095 -0.017752
v 0.118736 -0.036401 0.006965
v 0.110080 -0.048105 0.011698
v 0.106495 -0.061883 0.006074
v 0.110080 -0.069664 -0.006611
v 0.118736 -0.066890 -0.018927
v 0.127392 -0.055185 -0.023660
v 0.130977 -0.041407 -0.018036
v 0.127392 -0.033626 -0.005351
v 0.000000 -0.016616 0.011131
v -0.006840 -0.018639 -0.002413
v -0.009673 -0.009743 -0.014543
v -0.006840 0.004860 -0.018155
v -0.000000 0.016616 -0.011131
v 0.006840 0.018639 0.002413
v 0.009673 0.009743 0.014543
v 0.006840 -0.004860 0.018155
v 0.058796 -0.034698 -0.015861
v 0.051956 -0.036721 -0.029405
v 0.049123 -0.027825 -0.041536
v 0.051956 -0.013222 -0.045147
v 0.058796 -0.001466 -0.038124
v 0.065636 0.000556 -0.024580
v 0.068469 -0.008340 -0.012449
v 0.065636 -0.022943 -0.008838
v 0.057049 -0.018082 -0.007069
v 0.053877 -0.031733 -0.013227
v 0.053587 -0.037387 -0.027449
v 0.056348 -0.031733 -0.041403
v 0.060543 -0.018082 -0.046916
v 0.063714 -0.004432 -0.040757
v 0.064004 0.001222 -0.026536
v 0.061243 -0.004432 -0.012581
v 0.070781 -0.021816 -0.005865
v 0.067610 -0.035466 -0.012023
v 0.067320 -0.041121 -0.026245
v 0.070081 -0.035466 -0.040199
v 0.074276 -0.021816 -0.045712
v 0.077447 -0.008166 -0.039553
v 0.077737 -0.002512 -0.025331
v 0.074976 -0.008166 -0.011377
v 0.069136 -0.021816 -0.006078
v 0.066207 -0.035386 -0.012526
v 0.066980 -0.041007 -0.026743
v 0.071004 -0.035386 -0.040400
v 0.075921 -0.021816 -0.045498
v 0.078850 -0.008246 -0.039050
v 0.078077 -0.002625 -0.024833
v 0.074053 -0.008246 -0.011176
v 0.094116 -0.029252 -0.001779
v 0.091186 -0.042822 -0.008227
v 0.091960 -0.048443 -0.022444
v 0.095983 -0.042822 -0.036102
v 0.100900 -0.029252 -0.041199
v 0.103830 -0.015681 -0.034751
v 0.103056 -0.010060 -0.020534
v 0.099033 -0.015681 -0.006877
v 0.097508 -0.013677 -0.008942
v 0.088707 -0.025184 -0.003996
v 0.085062 -0.039073 -0.009298
v 0.088707 -0.047209 -0.021741
v 0.097508 -0.044826 -0.034037
v 0.106309 -0.033319 -0.038982
v 0.109954 -0.019430 -0.033680
v 0.106309 -0.011294 -0.021237
v 0.115522 -0.022662 0.002210
v 0.106721 -0.034168 0.007155
v 0.103076 -0.048058 0.001854
v 0.106721 -0.056194 -0.010589
v 0.115522 -0.053810 -0.022885
v 0.124322 -0.042303 -0.027830
v 0.127968 -0.028414 -0.022529
v 0.124322 -0.020278 -0.010086
v 0.007212 0.000000 0.018655
v 0.003012 -0.013964 0.013998
v -0.002952 -0.019748 0.001141
v -0.007187 -0.013964 -0.012384
v -0.007212 -0.000000 -0.018655
v -0.003012 0.013964 -0.013998
v 0.002952 0.019748 -0.001141
v 0.007187 0.013964 0.012384
v 0.059535 -0.008990 -0.001573
v 0.055336 -0.022954 -0.006230
v 0.049372 -0.028738 -0.019086
v 0.045137 -0.022954 -0.032611
v 0.045112 -0.008990 -0.038882
v 0.049312 0.004974 -0.034225
v 0.055276 0.010758 -0.021369
v 0.059511 0.004974 -0.007844
v 0.054150 -0.008990 -0.000311
v 0.056908 -0.022740 -0.006446
v 0.056981 -0.028436 -0.020655
v 0.054325 -0.022740 -0.034612
v 0.050497 -0.008990 -0.040144
v 0.047739 0.004760 -0.034008
v 0.047667 0.010455 -0.019800
v 0.050322 0.004760 -0.005842
v 0.069933 -0.005179 -0.001758
v 0.072691 -0.018929 -0.007894
v 0.072764 -0.024624 -0.022102
v 0.070108 -0.018929 -0.036060
v 0.066280 -0.005179 -0.041591
v 0.063522 0.008571 -0.035456
v 0.063449 0.014267 -0.021248
v 0.066105 0.008571 -0.007290
v 0.065882 -0.005179 -0.001799
v 0.066380 -0.019320 -0.007638
v 0.067888 -0.025178 -0.021699
v 0.069525 -0.019320 -0.035746
v 0.070330 -0.005179 -0.041551
v 0.069833 0.008963 -0.035712
v 0.068325 0.014820 -0.021650
v 0.066688 0.008963 -0.007603
v 0.086056 -0.005402 0.000459
v 0.086554 -0.019543 -0.005380
v 0.088062 -0.025400 -0.019442
v 0.089699 -0.019543 -0.033489
v 0.090504 -0.005402 -0.039293
v 0.090007 0.008740 -0.033455
v 0.088499 0.014597 -0.019393
v 0.086862 0.008740 -0.005346
v 0.082336 -0.005402 -0.000321
v 0.080621 -0.019073 -0.006990
v 0.083393 -0.024735 -0.020939
v 0.089028 -0.019073 -0.033996
v 0.094225 -0.005402 -0.038514
v 0.095940 0.008270 -0.031845
v 0.093168 0.013932 -0.017896
v 0.087533 0.008270 -0.004839
v 0.097175 -0.009516 0.004298
v 0.095461 -0.023188 -0.002371
v 0.098233 -0.028850 -0.016319
v 0.103868 -0.023188 -0.029377
v 0.109065 -0.009516 -0.033894
v 0.110779 0.004155 -0.027225
v 0.108007 0.009817 -0.013276
v 0.102372 0.004155 -0.000219
v -0.015000 -0.015000 -0.015000
v 0.015000 -0.015000 -0.015000
v 0.015000 0.015000 -0.015000
v -0.015000 0.015000 -0.015000
v -0.015000 -0.015000 0.015000
v 0.015000 -0.015000 0.015000
v 0.015000 0.015000 0.015000
v -0.015000 0.015000 0.015000
v -0.002948 -0.039033 -0.014072
v 0.027052 -0.039033 -0.014072
v 0.027052 -0.009033 -0.014072
v -0.002948 -0.009033 -0.014072
v -0.002948 -0.039033 0.015928
v 0.027052 -0.039033 0.015928
v 0.027052 -0.009033 0.015928
v -0.002948 -0.009033 0.015928
v 0.012144 -0.053852 -0.012603
v 0.042144 -0.053852 -0.012603
v 0.042144 -0.023852 -0.012603
v 0.012144 -0.023852 -0.012603
v 0.012144 -0.053852 0.017397
v 0.042144 -0.053852 0.017397
v 0.042144 -0.023852 0.017397
v 0.012144 -0.023852 0.017397
v 0.024232 -0.064798 -0.007366
v 0.054232 -0.064798 -0.007366
v 0.054232 -0.034798 -0.007366
v 0.024232 -0.034798 -0.007366
v 0.024232 -0.064798 0.022634
v 0.054232 -0.064798 0.022634
v 0.054232 -0.034798 0.022634
v 0.024232 -0.034798 0.022634
v 0.034056 -0.084185 -0.009734
v 0.064056 -0.084185 -0.009734
v 0.064056 -0.054185 -0.009734
v 0.034056 -0.054185 -0.009734
v 0.034056 -0.084185 0.020266
v 0.064056 -0.084185 0.020266
v 0.064056 -0.054185 0.020266
v 0.034056 -0.054185 0.020266
v 0.037513 -0.053121 -0.037474
v 0.067513 -0.053121 -0.037474
v 0.067513 -0.023121 -0.037474
v 0.037513 -0.023121 -0.037474
v 0.037513 -0.053121 -0.007474
v 0.067513 -0.053121 -0.007474
v 0.067513 -0.023121 -0.007474
v 0.037513 -0.023121 -0.007474
v 0.052918 -0.054447 -0.039076
v 0.082918 -0.054447 -0.039076
v 0.082918 -0.024447 -0.039076
v 0.052918 -0.024447 -0.039076
v 0.052918 -0.054447 -0.009076
v 0.082918 -0.054447 -0.009076
v 0.082918 -0.024447 -0.009076
v 0.052918 -0.024447 -0.009076
v 0.070271 -0.061473 -0.030079
v 0.100271 -0.061473 -0.030079
v 0.100271 -0.031473 -0.030079
v 0.070271 -0.031473 -0.030079
v 0.070271 -0.061473 -0.000079
v 0.100271 -0.061473 -0.000079
v 0.100271 -0.031473 -0.000079
v 0.070271 -0.031473 -0.000079
v 0.088313 -0.067059 -0.019706
v 0.118313 -0.067059 -0.019706
v 0.118313 -0.037059 -0.019706
v 0.088313 -0.037059 -0.019706
v 0.088313 -0.067059 0.010294
v 0.118313 -0.067059 0.010294
v 0.118313 -0.037059 0.010294
v 0.088313 -0.037059 0.010294
v 0.040105 -0.042926 -0.038837
v 0.070105 -0.042926 -0.038837
v 0.070105 -0.012926 -0.038837
v 0.040105 -0.012926 -0.038837
v 0.040105 -0.042926 -0.008837
v 0.070105 -0.042926 -0.008837
v 0.070105 -0.012926 -0.008837
v 0.040105 -0.012926 -0.008837
v 0.060962 -0.046881 -0.042027
v 0.090962 -0.046881 -0.042027
v 0.090962 -0.016881 -0.042027
v 0.060962 -0.016881 -0.042027
v 0.060962 -0.046881 -0.012027
v 0.090962 -0.046881 -0.012027
v 0.090962 -0.016881 -0.012027
v 0.060962 -0.016881 -0.012027
v 0.082715 -0.056114 -0.033382
v 0.112715 -0.056114 -0.033382
v 0.112715 -0.026114 -0.033382
v 0.082715 -0.026114 -0.033382
v 0.082715 -0.056114 -0.003382
v 0.112715 -0.056114 -0.003382
v 0.112715 -0.026114 -0.003382
v 0.082715 -0.026114 -0.003382
v 0.103736 -0.066645 -0.020981
v 0.133736 -0.066645 -0.020981
v 0.133736 -0.036645 -0.020981
v 0.103736 -0.036645 -0.020981
v 0.103736 -0.066645 0.009019
v 0.133736 -0.066645 0.009019
v 0.133736 -0.036645 0.009019
v 0.103736 -0.036645 0.009019
v 0.043796 -0.033082 -0.041992
v 0.073796 -0.033082 -0.041992
v 0.073796 -0.003082 -0.041992
v 0.043796 -0.003082 -0.041992
v 0.043796 -0.033082 -0.011992
v 0.073796 -0.033082 -0.011992
v 0.073796 -0.003082 -0.011992
v 0.043796 -0.003082 -0.011992
v 0.057529 -0.036816 -0.040788
v 0.087529 -0.036816 -0.040788
v 0.087529 -0.006816 -0.040788
v 0.057529 -0.006816 -0.040788
v 0.057529 -0.036816 -0.010788
v 0.087529 -0.036816 -0.010788
v 0.087529 -0.006816 -0.010788
v 0.057529 -0.006816 -0.010788
v 0.082508 -0.044252 -0.036489
v 0.112508 -0.044252 -0.036489
v 0.112508 -0.014252 -0.036489
v 0.082508 -0.014252 -0.036489
v 0.082508 -0.044252 -0.006489
v 0.112508 -0.044252 -0.006489
v 0.112508 -0.014252 -0.006489
v 0.082508 -0.014252 -0.006489
v 0.100522 -0.053236 -0.025337
v 0.130522 -0.053236 -0.025337
v 0.130522 -0.023236 -0.025337
v 0.100522 -0.023236 -0.025337
v 0.100522 -0.053236 0.004663
v 0.130522 -0.053236 0.004663
v 0.130522 -0.023236 0.004663
v 0.100522 -0.023236 0.004663
v 0.037324 -0.023990 -0.035227
v 0.067324 -0.023990 -0.035227
v 0.067324 0.006010 -0.035227
v 0.037324 0.006010 -0.035227
v 0.037324 -0.023990 -0.005227
v 0.067324 -0.023990 -0.005227
v 0.067324 0.006010 -0.005227
v 0.037324 0.006010 -0.005227
v 0.053106 -0.020179 -0.036675
v 0.083106 -0.020179 -0.036675
v 0.083106 0.009821 -0.036675
v 0.053106 0.009821 -0.036675
v 0.053106 -0.020179 -0.006675
v 0.083106 -0.020179 -0.006675
v 0.083106 0.009821 -0.006675
v 0.053106 0.009821 -0.006675
v 0.073280 -0.020402 -0.034417
v 0.103280 -0.020402 -0.034417
v 0.103280 0.009598 -0.034417
v 0.073280 0.009598 -0.034417
v 0.073280 -0.020402 -0.004417
v 0.103280 -0.020402 -0.004417
v 0.103280 0.009598 -0.004417
v 0.073280 0.009598 -0.004417
v 0.088120 -0.024516 -0.029798
v 0.118120 -0.024516 -0.029798
v 0.118120 0.005484 -0.029798
v 0.088120 0.005484 -0.029798
v 0.088120 -0.024516 0.000202
v 0.118120 -0.024516 0.000202
v 0.118120 0.005484 0.000202
v 0.088120 0.005484 0.000202
f 1 2 9
f 2 10 9
f 2 3 10
f 3 11 10
f 3 4 11
f 4 12 11
f 4 5 12
f 5 13 12
f 5 6 13
f 6 14 13
f 6 7 14
f 7 15 14
f 7 8 15
f 8 16 15
f 8 1 16
f 1 9 16
f 17 18 25
f 18 26 25
f 18 19 26
f 19 27 26
f 19 20 27
f 20 28 27
f 20 21 28
f 21 29 28
f 21 22 29
f 22 30 29
f 22 23 30
f 23 31 30
f 23 24 31
f 24 32 31
f 24 17 32
f 17 25 32
f 33 34 41
f 34 42 41
f 34 35 42
f 35 43 42
f 35 36 43
f 36 44 43
f 36 37 44
f 37 45 44
f 37 38 45
f 38 46 45
f 38 39 46
f 39 47 46
f 39 40 47
f 40 48 47
f 40 33 48
f 33 41 48
f 49 50 57
f 50 58 57
f 50 51 58
f 51 59 58
f 51 52 59
f 52 60 59
f 52 53 60
f 53 61 60
f 53 54 61
f 54 62 61
f 54 55 62
f 55 63 62
f 55 56 63
f 56 64 63
f 56 49 64
f 49 57 64
f 65 66 73
f 66 74 73
f 66 67 74
f 67 75 74
f 67 68 75
f 68 76 75
f 68 69 76
f 69 77 76
f 69 70 77
f 70 78 77
f 70 71 78
f 71 79 78
f 71 72 79
f 72 80 79
f 72 65 80
f 65 73 80
f 81 82 89
f 82 90 89
f 82 83 90
f 83 91 90
f 83 84 91
f 84 92 91
f 84 85 92
f 85 93 92
f 85 86 93
f 86 94 93
f 86 87 94
f 87 95 94
f 87 88 95
f 88 96 95
f 88 81 96
f 81 89 96
f 97 98 105
f 98 106 105
f 98 99 106
f 99 107 106
f 99 100 107
f 100 108 107
f 100 101 108
f 101 109 108
f 101 102 109
f 102 110 109
f 102 103 110
f 103 111 110
f 103 104 111
f 104 112 111
f 104 97 112
f 97 105 112
f 113 114 121
f 114 122 121
f 114 115 122
f 115 123 122
f 115 116 123
f 116 124 123
f 116 117 124
f 117 125 124
f 117 118 125
f 118 126 125
f 118 119 126
f 119 127 126
f 119 120 127
f 120 128 127
f 120 113 128
f 113 121 128
f 129 130 137
f 130 138 137
f 130 131 138
f 131 139 138
f 131 132 139
f 132 140 139
f 132 133 140
f 133 141 140
f 133 134 141
f 134 142 141
f 134 135 142
f 135 143 142
f 135 136 143
f 136 144 143
f 136 129 144
f 129 137 144
f 145 146 153
f 146 154 153
f 146 147 154
f 147 155 154
f 147 148 155
f 148 156 155
f 148 149 156
f 149 157 156
f 149 150 157
f 150 158 157
f 150 151 158
f 151 159 158
f 151 152 159
f 152 160 159
f 152 145 160
f 145 153 160
f 161 162 169
f 162 170 169
f 162 163 170
f 163 171 170
f 163 164 171
f 164 172 171
f 164 165 172
f 165 173 172
f 165 166 173
f 166 174 173
f 166 167 174
f 167 175 174
f 167 168 175
f 168 176 175
f 168 161 176
f 161 169 176
f 177 178 185
f 178 186 185
f 178 179 186
f 179 187 186
f 179 180 187
f 180 188 187
f 180 181 188
f 181 189 188
f 181 182 189
f 182 190 189
f 182 183 190
f 183 191 190
f 183 184 191
f 184 192 191
f 184 177 192
f 177 185 192
f 193 194 201
f 194 202 201
f 194 195 202
f 195 203 202
f 195 196 203
f 196 204 203
f 196 197 204
f 197 205 204
f 197 198 205
f 198 206 205
f 198 199 206
f 199 207 206
f 199 200 207
f 200 208 207
f 200 193 208
f 193 201 208
f 209 210 217
f 210 218 217
f 210 211 218
f 211 219 218
f 211 212 219
f 212 220 219
f 212 213 220
f 213 221 220
f 213 214 221
f 214 222 221
f 214 215 222
f 215 223 222
f 215 216 223
f 216 224 223
f 216 209 224
f 209 217 224
f 225 226 233
f 226 234 233
f 226 227 234
f 227 235 234
f 227 228 235
f 228 236 235
f 228 229 236
f 229 237 236
f 229 230 237
f 230 238 237
f 230 231 238
f 231 239 238
f 231 232 239
f 232 240 239
f 232 225 240
f 225 233 240
f 241 242 249
f 242 250 249
f 242 243 250
f 243 251 250
f 243 244 251
f 244 252 251
f 244 245 252
f 245 253 252
f 245 246 253
f 246 254 253
f 246 247 254
f 247 255 254
f 247 248 255
f 248 256 255
f 248 241 256
f 241 249 256
f 257 258 265
f 258 266 265
f 258 259 266
f 259 267 266
f 259 260 267
f 260 268 267
f 260 261 268
f 261 269 268
f 261 262 269
f 262 270 269
f 262 263 270
f 263 271 270
f 263 264 271
f 264 272 271
f 264 257 272
f 257 265 272
f 273 274 281
f 274 282 281
f 274 275 282
f 275 283 282
f 275 276 283
f 276 284 283
f 276 277 284
f 277 285 284
f 277 278 285
f 278 286 285
f 278 279 286
f 279 287 286
f 279 280 287
f 280 288 287
f 280 273 288
f 273 281 288
f 289 290 297
f 290 298 297
f 290 291 298
f 291 299 298
f 291 292 299
f 292 300 299
f 292 293 300
f 293 301 300
f 293 294 301
f 294 302 301
f 294 295 302
f 295 303 302
f 295 296 303
f 296 304 303
f 296 289 304
f 289 297 304
f 305 306 313
f 306 314 313
f 306 307 314
f 307 315 314
f 307 308 315
f 308 316 315
f 308 309 316
f 309 317 316
f 309 310 317
f 310 318 317
f 310 311 318
f 311 319 318
f 311 312 319
f 312 320 319
f 312 305 320
f 305 313 320
f 321 322 323
f 321 323 324
f 325 326 327
f 325 327 328
f 321 325 326
f 321 326 322
f 322 326 327
f 322 327 323
f 323 327 328
f 323 328 324
f 324 328 325
f 324 325 321
f 329 330 331
f 329 331 332
f 333 334 335
f 333 335 336
f 329 333 334
f 329 334 330
f 330 334 335
f 330 335 331
f 331 335 336
f 331 336 332
f 332 336 333
f 332 333 329
f 337 338 339
f 337 339 340
f 341 342 343
f 341 343 344
f 337 341 342
f 337 342 338
f 338 342 343
f 338 343 339
f 339 343 344
f 339 344 340
f 340 344 341
f 340 341 337
f 345 346 347
f 345 347 348
f 349 350 351
f 349 351 352
f 345 349 350
f 345 350 346
f 346 350 351
f 346 351 347
f 347 351 352
f 347 352 348
f 348 352 349
f 348 349 345
f 353 354 355
f 353 355 356
f 357 358 359
f 357 359 360
f 353 357 358
f 353 358 354
f 354 358 359
f 354 359 355
f 355 359 360
f 355 360 356
f 356 360 357
f 356 357 353
f 361 362 363
f 361 363 364
f 365 366 367
f 365 367 368
f 361 365 366
f 361 366 362
f 362 366 367
f 362 367 363
f 363 367 368
f 363 368 364
f 364 368 365
f 364 365 361
f 369 370 371
f 369 371 372
f 373 374 375
f 373 375 376
f 369 373 374
f 369 374 370
f 370 374 375
f 370 375 371
f 371 375 376
f 371 376 372
f 372 376 373
f 372 373 369
f 377 378 379
f 377 379 380
f 381 382 383
f 381 383 384
f 377 381 382
f 377 382 378
f 378 382 383
f 378 383 379
f 379 383 384
f 379 384 380
f 380 384 381
f 380 381 377
f 385 386 387
f 385 387 388
f 389 390 391
f 389 391 392
f 385 389 390
f 385 390 386
f 386 390 391
f 386 391 387
f 387 391 392
f 387 392 388
f 388 392 389
f 388 389 385
f 393 394 395
f 393 395 396
f 397 398 399
f 397 399 400
f 393 397 398
f 393 398 394
f 394 398 399
f 394 399 395
f 395 399 400
f 395 400 396
f 396 400 397
f 396 397 393
f 401 402 403
f 401 403 404
f 405 406 407
f 405 407 408
f 401 405 406
f 401 406 402
f 402 406 407
f 402 407 403
f 403 407 408
f 403 408 404
f 404 408 405
f 404 405 401
f 409 410 411
f 409 411 412
f 413 414 415
f 413 415 416
f 409 413 414
f 409 414 410
f 410 414 415
f 410 415 411
f 411 415 416
f 411 416 412
f 412 416 413
f 412 413 409
f 417 418 419
f 417 419 420
f 421 422 423
f 421 423 424
f 417 421 422
f 417 422 418
f 418 422 423
f 418 423 419
f 419 423 424
f 419 424 420
f 420 424 421
f 420 421 417
f 425 426 427
f 425 427 428
f 429 430 431
f 429 431 432
f 425 429 430
f 425 430 426
f 426 430 431
f 426 431 427
f 427 431 432
f 427 432 428
f 428 432 429
f 428 429 425
f 433 434 435
f 433 435 436
f 437 438 439
f 437 439 440
f 433 437 438
f 433 438 434
f 434 438 439
f 434 439 435
f 435 439 440
f 435 440 436
f 436 440 437
f 436 437 433
f 441 442 443
f 441 443 444
f 445 446 447
f 445 447 448
f 441 445 446
f 441 446 442
f 442 446 447
f 442 447 443
f 443 447 448
f 443 448 444
f 444 448 445
f 444 445 441
f 449 450 451
f 449 451 452
f 453 454 455
f 453 455 456
f 449 453 454
f 449 454 450
f 450 454 455
f 450 455 451
f 451 455 456
f 451 456 452
f 452 456 453
f 452 453 449
f 457 458 459
f 457 459 460
f 461 462 463
f 461 463 464
f 457 461 462
f 457 462 458
f 458 462 463
f 458 463 459
f 459 463 464
f 459 464 460
f 460 464 461
f 460 461 457
f 465 466 467
f 465 467 468
f 469 470 471
f 469 471 472
f 465 469 470
f 465 470 466
f 466 470 471
f 466 471 467
f 467 471 472
f 467 472 468
f 468 472 469
f 468 469 465
f 473 474 475
f 473 475 476
f 477 478 479
f 477 479 480
f 473 477 478
f 473 478 474
f 474 478 479
f 474 479 475
f 475 479 480
f 475 480 476
f 476 480 477
f 476 477 473
f 481 482 483
f 481 483 484
f 485 486 487
f 485 487 488
f 481 485 486
f 481 486 482
f 482 486 487
f 482 487 483
f 483 487 488
f 483 488 484
f 484 488 485
f 484 485 481
