# SignFlow 3D Hand Mesh - Frame 25
v 0.000000 -0.013800 0.014477
v -0.014139 -0.009555 0.010429
v -0.019996 0.000286 0.000273
v -0.014139 0.009960 -0.010044
v -0.000000 0.013800 -0.014477
v 0.014139 0.009555 -0.010429
v 0.019996 -0.000286 -0.000273
v 0.014139 -0.009960 0.010044
v -0.000648 -0.037521 -0.008135
v -0.014788 -0.033276 -0.012182
v -0.020644 -0.023435 -0.022339
v -0.014788 -0.013761 -0.032655
v -0.000648 -0.009921 -0.037088
v 0.013491 -0.014166 -0.033041
v 0.019348 -0.024007 -0.022885
v 0.013491 -0.033681 -0.012568
v -0.000648 -0.033450 -0.005138
v -0.014789 -0.030755 -0.010342
v -0.020647 -0.023940 -0.022734
v -0.014789 -0.016996 -0.035054
v -0.000648 -0.013992 -0.040086
v 0.013493 -0.016687 -0.034882
v 0.019350 -0.023502 -0.022490
v 0.013493 -0.030446 -0.010169
v -0.000330 -0.055644 -0.017494
v -0.014471 -0.052949 -0.022699
v -0.020328 -0.046134 -0.035091
v -0.014471 -0.039190 -0.047411
v -0.000330 -0.036186 -0.052443
v 0.013811 -0.038880 -0.047238
v 0.019669 -0.045696 -0.034847
v 0.013811 -0.052639 -0.022526
v -0.000330 -0.058185 -0.019175
v -0.014158 -0.052253 -0.021984
v -0.019886 -0.042608 -0.032399
v -0.014158 -0.034900 -0.044320
v -0.000330 -0.033645 -0.050762
v 0.013499 -0.039577 -0.047953
v 0.019227 -0.049222 -0.037538
v 0.013499 -0.056930 -0.025618
v -0.006860 -0.082265 -0.037883
v -0.020688 -0.076333 -0.040692
v -0.026416 -0.066688 -0.051107
v -0.020688 -0.058980 -0.063028
v -0.006860 -0.057725 -0.069470
v 0.006969 -0.063657 -0.066661
v 0.012697 -0.073302 -0.056246
v 0.006969 -0.081010 -0.044325
v -0.006860 -0.081828 -0.037552
v -0.020479 -0.075292 -0.040022
v -0.026121 -0.065653 -0.050490
v -0.020479 -0.058558 -0.062825
v -0.006860 -0.058163 -0.069801
v 0.006760 -0.064699 -0.067331
v 0.012401 -0.074337 -0.056863
v 0.006760 -0.081433 -0.044528
v -0.012746 -0.098798 -0.050006
v -0.026365 -0.092262 -0.052475
v -0.032007 -0.082623 -0.062943
v -0.026365 -0.075528 -0.075278
v -0.012746 -0.075133 -0.082254
v 0.000874 -0.081669 -0.079785
v 0.006515 -0.091308 -0.069316
v 0.000874 -0.098403 -0.056982
v 0.000000 -0.016646 0.011087
v -0.013437 -0.014215 0.004169
v -0.019003 -0.003457 -0.005191
v -0.013437 0.009326 -0.011510
v -0.000000 0.016646 -0.011087
v 0.013437 0.014215 -0.004169
v 0.019003 0.003457 0.005191
v 0.013437 -0.009326 0.011510
v 0.025009 -0.058886 -0.052336
v 0.011572 -0.056456 -0.059254
v 0.006006 -0.045698 -0.068613
v 0.011572 -0.032915 -0.074932
v 0.025009 -0.025594 -0.074509
v 0.038446 -0.028025 -0.067591
v 0.044012 -0.038783 -0.058232
v 0.038446 -0.051566 -0.051913
v 0.025009 -0.039498 -0.043611
v 0.013465 -0.048393 -0.048294
v 0.008683 -0.053684 -0.061838
v 0.013465 -0.052272 -0.076311
v 0.025009 -0.044983 -0.083234
v 0.036553 -0.036088 -0.078551
v 0.041335 -0.030797 -0.065007
v 0.036553 -0.032209 -0.050534
v 0.035314 -0.053923 -0.041615
v 0.023770 -0.062818 -0.046297
v 0.018988 -0.068109 -0.059842
v 0.023770 -0.066696 -0.074314
v 0.035314 -0.059408 -0.081237
v 0.046858 -0.050513 -0.076554
v 0.051640 -0.045222 -0.063010
v 0.046858 -0.046634 -0.048537
v 0.035314 -0.037452 -0.055872
v 0.021290 -0.042573 -0.059249
v 0.015481 -0.055950 -0.063901
v 0.021290 -0.069745 -0.067103
v 0.035314 -0.075879 -0.066979
v 0.049338 -0.070757 -0.063602
v 0.055147 -0.057381 -0.058950
v 0.049338 -0.043585 -0.055748
v 0.032592 -0.043270 -0.035745
v 0.018568 -0.048391 -0.039122
v 0.012759 -0.061767 -0.043774
v 0.018568 -0.075563 -0.046976
v 0.032592 -0.081696 -0.046853
v 0.046616 -0.076575 -0.043476
v 0.052425 -0.063198 -0.038824
v 0.046616 -0.049403 -0.035622
v 0.032592 -0.045328 -0.051580
v 0.020700 -0.054287 -0.055134
v 0.015774 -0.068047 -0.050583
v 0.020700 -0.078548 -0.040594
v 0.032592 -0.079638 -0.031018
v 0.044484 -0.070679 -0.027464
v 0.049410 -0.056919 -0.032015
v 0.044484 -0.046418 -0.042004
v 0.018489 -0.034063 -0.032783
v 0.006597 -0.043022 -0.036337
v 0.001671 -0.056783 -0.031787
v 0.006597 -0.067284 -0.021798
v 0.018489 -0.068374 -0.012222
v 0.030381 -0.059415 -0.008668
v 0.035307 -0.045655 -0.013218
v 0.030381 -0.035154 -0.023207
v 0.000000 -0.017264 0.010097
v -0.012860 -0.015178 0.002062
v -0.018187 -0.004200 -0.007182
v -0.012860 0.009237 -0.012218
v -0.000000 0.017264 -0.010097
v 0.012860 0.015178 -0.002062
v 0.018187 0.004200 0.007182
v 0.012860 -0.009237 0.012218
v 0.031293 -0.051801 -0.048952
v 0.018433 -0.049714 -0.056987
v 0.013106 -0.038737 -0.066231
v 0.018433 -0.025300 -0.071267
v 0.031293 -0.017273 -0.069146
v 0.044153 -0.019359 -0.061111
v 0.049480 -0.030336 -0.051867
v 0.044153 -0.043774 -0.046831
v 0.031293 -0.029977 -0.039576
v 0.021336 -0.041091 -0.042990
v 0.017211 -0.048365 -0.055811
v 0.021336 -0.047539 -0.070529
v 0.031293 -0.039096 -0.078522
v 0.041251 -0.027983 -0.075108
v 0.045375 -0.020709 -0.062287
v 0.041251 -0.021535 -0.047569
v 0.047634 -0.045753 -0.035882
v 0.037676 -0.056866 -0.039296
v 0.033551 -0.064141 -0.052118
v 0.037676 -0.063315 -0.066836
v 0.047634 -0.054872 -0.074829
v 0.057591 -0.043759 -0.071414
v 0.061716 -0.036485 -0.058593
v 0.057591 -0.037311 -0.043875
v 0.047634 -0.030491 -0.052689
v 0.034210 -0.035703 -0.057882
v 0.028650 -0.049473 -0.061595
v 0.034210 -0.063735 -0.061653
v 0.047634 -0.070134 -0.058022
v 0.061057 -0.064922 -0.052829
v 0.066617 -0.051152 -0.049115
v 0.061057 -0.036890 -0.049058
v 0.040134 -0.033506 -0.030278
v 0.026711 -0.038718 -0.035471
v 0.021150 -0.052488 -0.039184
v 0.026711 -0.066750 -0.039242
v 0.040134 -0.073149 -0.035611
v 0.053557 -0.067937 -0.030417
v 0.059117 -0.054167 -0.026704
v 0.053557 -0.039905 -0.026646
v 0.040134 -0.033888 -0.037643
v 0.026215 -0.040170 -0.038701
v 0.020450 -0.054160 -0.036386
v 0.026215 -0.067662 -0.032055
v 0.040134 -0.072768 -0.028245
v 0.054052 -0.066486 -0.027188
v 0.059818 -0.052496 -0.029502
v 0.054052 -0.038993 -0.033833
v 0.035103 -0.027317 -0.010461
v 0.021185 -0.033599 -0.011519
v 0.015419 -0.047589 -0.009204
v 0.021185 -0.061092 -0.004873
v 0.035103 -0.066197 -0.001063
v 0.049022 -0.059915 -0.000006
v 0.054787 -0.045925 -0.002320
v 0.049022 -0.032423 -0.006651
v 0.000000 -0.018231 0.008223
v -0.012185 -0.015843 -0.000728
v -0.017232 -0.004174 -0.009253
v -0.012185 0.009940 -0.012358
v -0.000000 0.018231 -0.008223
v 0.012185 0.015843 0.000728
v 0.017232 0.004174 0.009253
v 0.012185 -0.009940 0.012358
v 0.035865 -0.043265 -0.047276
v 0.023680 -0.040877 -0.056227
v 0.018633 -0.029208 -0.064752
v 0.023680 -0.015094 -0.067857
v 0.035865 -0.006803 -0.063723
v 0.048050 -0.009191 -0.054771
v 0.053098 -0.020860 -0.046246
v 0.048050 -0.034974 -0.043141
v 0.035865 -0.021293 -0.035852
v 0.023115 -0.028399 -0.040462
v 0.017834 -0.033534 -0.053880
v 0.023115 -0.033690 -0.068247
v 0.035865 -0.028775 -0.075146
v 0.048615 -0.021669 -0.070536
v 0.053897 -0.016534 -0.057118
v 0.048615 -0.016378 -0.042751
v 0.044889 -0.039764 -0.032335
v 0.032139 -0.046870 -0.036945
v 0.026858 -0.052006 -0.050363
v 0.032139 -0.052161 -0.064730
v 0.044889 -0.047247 -0.071629
v 0.057639 -0.040140 -0.067019
v 0.062920 -0.035005 -0.053600
v 0.057639 -0.034849 -0.039234
v 0.044889 -0.023565 -0.050433
v 0.031007 -0.029197 -0.053577
v 0.025256 -0.043210 -0.055786
v 0.031007 -0.057396 -0.055767
v 0.044889 -0.063445 -0.053531
v 0.058771 -0.057814 -0.050387
v 0.064521 -0.043801 -0.048177
v 0.058771 -0.029615 -0.048196
v 0.040583 -0.025281 -0.028347
v 0.026701 -0.030912 -0.031491
v 0.020951 -0.044925 -0.033701
v 0.026701 -0.059112 -0.033682
v 0.040583 -0.065161 -0.031445
v 0.054465 -0.059530 -0.028301
v 0.060216 -0.045516 -0.026092
v 0.054465 -0.031330 -0.026111
v 0.040583 -0.026014 -0.035473
v 0.027269 -0.032969 -0.038418
v 0.021754 -0.047101 -0.036371
v 0.027269 -0.060131 -0.030531
v 0.040583 -0.064428 -0.024319
v 0.053897 -0.057473 -0.021375
v 0.059412 -0.043341 -0.023422
v 0.053897 -0.030310 -0.029261
v 0.034189 -0.021035 -0.018325
v 0.020875 -0.027990 -0.021270
v 0.015360 -0.042122 -0.019222
v 0.020875 -0.055152 -0.013383
v 0.034189 -0.059449 -0.007171
v 0.047504 -0.052494 -0.004226
v 0.053019 -0.038362 -0.006273
v 0.047504 -0.025331 -0.012113
v 0.000000 -0.017934 0.008853
v -0.011046 -0.016590 -0.001659
v -0.015621 -0.005528 -0.011199
v -0.011046 0.008772 -0.014179
v -0.000000 0.017934 -0.008853
v 0.011046 0.016590 0.001659
v 0.015621 0.005528 0.011199
v 0.011046 -0.008772 0.014179
v 0.035781 -0.037743 -0.031278
v 0.024735 -0.036399 -0.041790
v 0.020160 -0.025337 -0.051329
v 0.024735 -0.011037 -0.054309
v 0.035781 -0.001875 -0.048983
v 0.046826 -0.003219 -0.038471
v 0.051402 -0.014281 -0.028931
v 0.046826 -0.028581 -0.025951
v 0.042413 -0.019809 -0.021262
v 0.037068 -0.033483 -0.025592
v 0.030968 -0.039148 -0.038439
v 0.027688 -0.033483 -0.052276
v 0.029148 -0.019809 -0.058998
v 0.034493 -0.006135 -0.054668
v 0.040593 -0.000470 -0.041822
v 0.043874 -0.006135 -0.027985
v 0.060040 -0.024737 -0.027458
v 0.054695 -0.038412 -0.031789
v 0.048595 -0.044076 -0.044635
v 0.045314 -0.038412 -0.058472
v 0.046774 -0.024737 -0.065195
v 0.052120 -0.011063 -0.060865
v 0.058219 -0.005399 -0.048018
v 0.061500 -0.011063 -0.034181
v 0.053407 -0.011123 -0.031675
v 0.045571 -0.023735 -0.027953
v 0.042325 -0.036934 -0.034994
v 0.045571 -0.042988 -0.048673
v 0.053407 -0.038351 -0.060978
v 0.061243 -0.025739 -0.064700
v 0.064489 -0.012541 -0.057659
v 0.061243 -0.006487 -0.043980
v 0.075895 -0.022089 -0.021486
v 0.068059 -0.034701 -0.017764
v 0.064813 -0.047899 -0.024805
v 0.068059 -0.053953 -0.038484
v 0.075895 -0.049316 -0.050789
v 0.083731 -0.036705 -0.054511
v 0.086977 -0.023506 -0.047470
v 0.083731 -0.017452 -0.033791
v 0.075895 -0.032987 -0.016323
v 0.068938 -0.045981 -0.020455
v 0.066056 -0.052954 -0.033774
v 0.068938 -0.049821 -0.048477
v 0.075895 -0.038418 -0.055953
v 0.082852 -0.025424 -0.051821
v 0.085733 -0.018451 -0.038502
v 0.082852 -0.021584 -0.023798
v 0.094390 -0.043341 -0.014904
v 0.087433 -0.056335 -0.019036
v 0.084551 -0.063308 -0.032355
v 0.087433 -0.060175 -0.047058
v 0.094390 -0.048771 -0.054534
v 0.101347 -0.035778 -0.050402
v 0.104228 -0.028805 -0.037083
v 0.101347 -0.031937 -0.022379
v -0.015000 -0.015000 -0.015000
v 0.015000 -0.015000 -0.015000
v 0.015000 0.015000 -0.015000
v -0.015000 0.015000 -0.015000
v -0.015000 -0.015000 0.015000
v 0.015000 -0.015000 0.015000
v 0.015000 0.015000 0.015000
v -0.015000 0.015000 0.015000
v -0.015648 -0.038721 -0.037612
v 0.014352 -0.038721 -0.037612
v 0.014352 -0.008721 -0.037612
v -0.015648 -0.008721 -0.037612
v -0.015648 -0.038721 -0.007612
v 0.014352 -0.038721 -0.007612
v 0.014352 -0.008721 -0.007612
v -0.015648 -0.008721 -0.007612
v -0.015330 -0.060915 -0.049969
v 0.014670 -0.060915 -0.049969
v 0.014670 -0.030915 -0.049969
v -0.015330 -0.030915 -0.049969
v -0.015330 -0.060915 -0.019969
v 0.014670 -0.060915 -0.019969
v 0.014670 -0.030915 -0.019969
v -0.015330 -0.030915 -0.019969
v -0.021860 -0.084995 -0.068676
v 0.008140 -0.084995 -0.068676
v 0.008140 -0.054995 -0.068676
v -0.021860 -0.054995 -0.068676
v -0.021860 -0.084995 -0.038676
v 0.008140 -0.084995 -0.038676
v 0.008140 -0.054995 -0.038676
v -0.021860 -0.054995 -0.038676
v -0.027746 -0.101965 -0.081130
v 0.002254 -0.101965 -0.081130
v 0.002254 -0.071965 -0.081130
v -0.027746 -0.071965 -0.081130
v -0.027746 -0.101965 -0.051130
v 0.002254 -0.101965 -0.051130
v 0.002254 -0.071965 -0.051130
v -0.027746 -0.071965 -0.051130
v 0.010009 -0.057240 -0.078423
v 0.040009 -0.057240 -0.078423
v 0.040009 -0.027240 -0.078423
v 0.010009 -0.027240 -0.078423
v 0.010009 -0.057240 -0.048423
v 0.040009 -0.057240 -0.048423
v 0.040009 -0.027240 -0.048423
v 0.010009 -0.027240 -0.048423
v 0.020314 -0.071665 -0.076426
v 0.050314 -0.071665 -0.076426
v 0.050314 -0.041665 -0.076426
v 0.020314 -0.041665 -0.076426
v 0.020314 -0.071665 -0.046426
v 0.050314 -0.071665 -0.046426
v 0.050314 -0.041665 -0.046426
v 0.020314 -0.041665 -0.046426
v 0.017592 -0.077483 -0.056299
v 0.047592 -0.077483 -0.056299
v 0.047592 -0.047483 -0.056299
v 0.017592 -0.047483 -0.056299
v 0.017592 -0.077483 -0.026299
v 0.047592 -0.077483 -0.026299
v 0.047592 -0.047483 -0.026299
v 0.017592 -0.047483 -0.026299
v 0.003489 -0.066219 -0.037503
v 0.033489 -0.066219 -0.037503
v 0.033489 -0.036219 -0.037503
v 0.003489 -0.036219 -0.037503
v 0.003489 -0.066219 -0.007503
v 0.033489 -0.066219 -0.007503
v 0.033489 -0.036219 -0.007503
v 0.003489 -0.036219 -0.007503
v 0.016293 -0.049537 -0.074049
v 0.046293 -0.049537 -0.074049
v 0.046293 -0.019537 -0.074049
v 0.016293 -0.019537 -0.074049
v 0.016293 -0.049537 -0.044049
v 0.046293 -0.049537 -0.044049
v 0.046293 -0.019537 -0.044049
v 0.016293 -0.019537 -0.044049
v 0.032634 -0.065313 -0.070355
v 0.062634 -0.065313 -0.070355
v 0.062634 -0.035313 -0.070355
v 0.032634 -0.035313 -0.070355
v 0.032634 -0.065313 -0.040355
v 0.062634 -0.065313 -0.040355
v 0.062634 -0.035313 -0.040355
v 0.032634 -0.035313 -0.040355
v 0.025134 -0.068328 -0.047944
v 0.055134 -0.068328 -0.047944
v 0.055134 -0.038328 -0.047944
v 0.025134 -0.038328 -0.047944
v 0.025134 -0.068328 -0.017944
v 0.055134 -0.068328 -0.017944
v 0.055134 -0.038328 -0.017944
v 0.025134 -0.038328 -0.017944
v 0.020103 -0.061757 -0.020762
v 0.050103 -0.061757 -0.020762
v 0.050103 -0.031757 -0.020762
v 0.020103 -0.031757 -0.020762
v 0.020103 -0.061757 0.009238
v 0.050103 -0.061757 0.009238
v 0.050103 -0.031757 0.009238
v 0.020103 -0.031757 0.009238
v 0.020865 -0.040034 -0.070499
v 0.050865 -0.040034 -0.070499
v 0.050865 -0.010034 -0.070499
v 0.020865 -0.010034 -0.070499
v 0.020865 -0.040034 -0.040499
v 0.050865 -0.040034 -0.040499
v 0.050865 -0.010034 -0.040499
v 0.020865 -0.010034 -0.040499
v 0.029889 -0.058505 -0.066982
v 0.059889 -0.058505 -0.066982
v 0.059889 -0.028505 -0.066982
v 0.029889 -0.028505 -0.066982
v 0.029889 -0.058505 -0.036982
v 0.059889 -0.058505 -0.036982
v 0.059889 -0.028505 -0.036982
v 0.029889 -0.028505 -0.036982
v 0.025583 -0.060221 -0.044896
v 0.055583 -0.060221 -0.044896
v 0.055583 -0.030221 -0.044896
v 0.025583 -0.030221 -0.044896
v 0.025583 -0.060221 -0.014896
v 0.055583 -0.060221 -0.014896
v 0.055583 -0.030221 -0.014896
v 0.025583 -0.030221 -0.014896
v 0.019189 -0.055242 -0.027748
v 0.049189 -0.055242 -0.027748
v 0.049189 -0.025242 -0.027748
v 0.019189 -0.025242 -0.027748
v 0.019189 -0.055242 0.002252
v 0.049189 -0.055242 0.002252
v 0.049189 -0.025242 0.002252
v 0.019189 -0.025242 0.002252
v 0.020781 -0.034809 -0.055130
v 0.050781 -0.034809 -0.055130
v 0.050781 -0.004809 -0.055130
v 0.020781 -0.004809 -0.055130
v 0.020781 -0.034809 -0.025130
v 0.050781 -0.034809 -0.025130
v 0.050781 -0.004809 -0.025130
v 0.020781 -0.004809 -0.025130
v 0.038407 -0.039737 -0.061327
v 0.068407 -0.039737 -0.061327
v 0.068407 -0.009737 -0.061327
v 0.038407 -0.009737 -0.061327
v 0.038407 -0.039737 -0.031327
v 0.068407 -0.039737 -0.031327
v 0.068407 -0.009737 -0.031327
v 0.038407 -0.009737 -0.031327
v 0.060895 -0.050703 -0.051138
v 0.090895 -0.050703 -0.051138
v 0.090895 -0.020703 -0.051138
v 0.060895 -0.020703 -0.051138
v 0.060895 -0.050703 -0.021138
v 0.090895 -0.050703 -0.021138
v 0.090895 -0.020703 -0.021138
v 0.060895 -0.020703 -0.021138
v 0.079390 -0.061056 -0.049719
v 0.109390 -0.061056 -0.049719
v 0.109390 -0.031056 -0.049719
v 0.079390 -0.031056 -0.049719
v 0.079390 -0.061056 -0.019719
v 0.109390 -0.061056 -0.019719
v 0.109390 -0.031056 -0.019719
v 0.079390 -0.031056 -0.019719
v 0.000000 -0.015215 0.012980
v -0.014133 -0.010423 0.009573
v -0.019987 0.000476 0.000557
v -0.014133 0.011095 -0.008784
v -0.000000 0.015215 -0.012980
v 0.014133 0.010423 -0.009573
v 0.019987 -0.000476 -0.000557
v 0.014133 -0.011095 0.008784
v -0.000913 -0.031382 -0.005970
v -0.015046 -0.026590 -0.009378
v -0.020900 -0.015691 -0.018393
v -0.015046 -0.005072 -0.027735
v -0.000913 -0.000951 -0.031931
v 0.013220 -0.005744 -0.028523
v 0.019073 -0.016642 -0.019508
v 0.013220 -0.027262 -0.010166
v -0.000913 -0.032285 -0.007110
v -0.012306 -0.032525 -0.017331
v -0.017024 -0.023182 -0.028501
v -0.012306 -0.009730 -0.034076
v -0.000913 -0.000048 -0.030791
v 0.010479 0.000191 -0.020570
v 0.015198 -0.009151 -0.009400
v 0.010479 -0.022604 -0.003825
v 0.008894 -0.040179 -0.017856
v -0.002499 -0.040419 -0.028077
v -0.007218 -0.031076 -0.039246
v -0.002499 -0.017624 -0.044822
v 0.008894 -0.007942 -0.041537
v 0.020286 -0.007702 -0.031315
v 0.025005 -0.017045 -0.020146
v 0.020286 -0.030497 -0.014571
v 0.008894 -0.040550 -0.018378
v -0.004193 -0.038754 -0.026113
v -0.009613 -0.028352 -0.035948
v -0.004193 -0.015435 -0.042120
v 0.008894 -0.007571 -0.041014
v 0.021980 -0.009366 -0.033279
v 0.027400 -0.019769 -0.023444
v 0.021980 -0.032686 -0.017272
v 0.024843 -0.062579 -0.050471
v 0.011757 -0.060784 -0.058207
v 0.006336 -0.050381 -0.068041
v 0.011757 -0.037464 -0.074214
v 0.024843 -0.029600 -0.073108
v 0.037929 -0.031396 -0.065372
v 0.043350 -0.041798 -0.055538
v 0.037929 -0.054715 -0.049366
v 0.024843 -0.065021 -0.055339
v 0.015824 -0.062989 -0.067539
v 0.012088 -0.051058 -0.076371
v 0.015824 -0.036217 -0.076662
v 0.024843 -0.027159 -0.068241
v 0.033862 -0.029190 -0.056040
v 0.037598 -0.041121 -0.047208
v 0.033862 -0.055962 -0.046917
v 0.045376 -0.070504 -0.071431
v 0.036357 -0.068473 -0.083631
v 0.032621 -0.056542 -0.092464
v 0.036357 -0.041701 -0.092754
v 0.045376 -0.032642 -0.084333
v 0.054395 -0.034674 -0.072133
v 0.058131 -0.046605 -0.063301
v 0.054395 -0.061446 -0.063010
v 0.000000 -0.018479 0.007650
v -0.013955 -0.012191 0.007525
v -0.019736 0.001239 0.002993
v -0.013955 0.013943 -0.003293
v -0.000000 0.018479 -0.007650
v 0.013955 0.012191 -0.007525
v 0.019736 -0.001239 -0.002993
v 0.013955 -0.013943 0.003293
v -0.014641 -0.052604 -0.074785
v -0.028597 -0.046315 -0.074909
v -0.034377 -0.032886 -0.079442
v -0.028597 -0.020182 -0.085728
v -0.014641 -0.015645 -0.090084
v -0.000686 -0.021933 -0.089960
v 0.005095 -0.035363 -0.085427
v -0.000686 -0.048067 -0.079141
v -0.014641 -0.022507 -0.066154
v -0.028451 -0.023428 -0.072694
v -0.034171 -0.030615 -0.084939
v -0.028451 -0.039857 -0.095717
v -0.014641 -0.045742 -0.098715
v -0.000832 -0.044820 -0.092176
v 0.004889 -0.037634 -0.079930
v -0.000832 -0.028391 -0.069152
v -0.017353 -0.032507 -0.059018
v -0.031163 -0.033429 -0.065558
v -0.036883 -0.040615 -0.077803
v -0.031163 -0.049858 -0.088581
v -0.017353 -0.055742 -0.091579
v -0.003544 -0.054821 -0.085039
v 0.002177 -0.047634 -0.072794
v -0.003544 -0.038392 -0.062016
v -0.017353 -0.026721 -0.085154
v -0.031206 -0.030417 -0.079793
v -0.036945 -0.042143 -0.071799
v -0.031206 -0.055029 -0.065855
v -0.017353 -0.061528 -0.065443
v -0.003500 -0.057832 -0.070804
v 0.002238 -0.046107 -0.078798
v -0.003500 -0.033220 -0.084742
v -0.011691 -0.013131 -0.061155
v -0.025545 -0.016827 -0.055794
v -0.031283 -0.028552 -0.047800
v -0.025545 -0.041439 -0.041856
v -0.011691 -0.047937 -0.041444
v 0.002162 -0.044241 -0.046806
v 0.007900 -0.032516 -0.054800
v 0.002162 -0.019630 -0.060743
v -0.011691 -0.012493 -0.059933
v -0.024702 -0.015384 -0.052404
v -0.030091 -0.027150 -0.044228
v -0.024702 -0.040898 -0.040195
v -0.011691 -0.048575 -0.042667
v 0.001319 -0.045684 -0.050196
v 0.006708 -0.033918 -0.058372
v 0.001319 -0.020170 -0.062405
v -0.003289 -0.003981 -0.042145
v -0.016299 -0.006872 -0.034616
v -0.021688 -0.018638 -0.026440
v -0.016299 -0.032386 -0.022407
v -0.003289 -0.040063 -0.024879
v 0.009721 -0.037172 -0.032408
v 0.015111 -0.025406 -0.040584
v 0.009721 -0.011658 -0.044617
v 0.000000 -0.018810 0.006796
v -0.014111 -0.012980 0.005694
v -0.019955 0.000454 0.001257
v -0.014111 0.013622 -0.003917
v -0.000000 0.018810 -0.006796
v 0.014111 0.012980 -0.005694
v 0.019955 -0.000454 -0.001257
v 0.014111 -0.013622 0.003917
v -0.005785 -0.048170 -0.074465
v -0.019896 -0.042339 -0.075567
v -0.025741 -0.028906 -0.080004
v -0.019896 -0.015738 -0.085178
v -0.005785 -0.010550 -0.088057
v 0.008325 -0.016380 -0.086955
v 0.014170 -0.029814 -0.082517
v 0.008325 -0.042981 -0.077344
v -0.005785 -0.010663 -0.074159
v -0.013675 -0.011972 -0.087211
v -0.016943 -0.023466 -0.096778
v -0.013675 -0.038413 -0.097254
v -0.005785 -0.048057 -0.088362
v 0.002104 -0.046748 -0.075310
v 0.005372 -0.035253 -0.065744
v 0.002104 -0.020306 -0.065267
v -0.012603 -0.012290 -0.069875
v -0.020493 -0.013599 -0.082927
v -0.023761 -0.025094 -0.092493
v -0.020493 -0.040040 -0.092970
v -0.012603 -0.049684 -0.084078
v -0.004713 -0.048375 -0.071026
v -0.001445 -0.036881 -0.061460
v -0.004713 -0.021934 -0.060983
v -0.012603 -0.011598 -0.081883
v -0.026477 -0.016604 -0.077788
v -0.032224 -0.030036 -0.073218
v -0.026477 -0.044024 -0.070849
v -0.012603 -0.050376 -0.072070
v 0.001271 -0.045370 -0.076165
v 0.007018 -0.031938 -0.080735
v 0.001271 -0.017950 -0.083104
v -0.007653 -0.005453 -0.057599
v -0.021527 -0.010459 -0.053504
v -0.027273 -0.023890 -0.048933
v -0.021527 -0.037879 -0.046565
v -0.007653 -0.044230 -0.047785
v 0.006221 -0.039224 -0.051880
v 0.011968 -0.025793 -0.056451
v 0.006221 -0.011804 -0.058819
v -0.007653 -0.010365 -0.066492
v -0.021691 -0.013424 -0.061211
v -0.027506 -0.023172 -0.050940
v -0.021691 -0.033897 -0.041696
v -0.007653 -0.039318 -0.038892
v 0.006386 -0.036259 -0.044173
v 0.012200 -0.026511 -0.054444
v 0.006386 -0.015786 -0.063688
v -0.003672 0.012168 -0.042853
v -0.017710 0.009108 -0.037573
v -0.023525 -0.000639 -0.027302
v -0.017710 -0.011365 -0.018057
v -0.003672 -0.016785 -0.015254
v 0.010366 -0.013726 -0.020534
v 0.016181 -0.003979 -0.030805
v 0.010366 0.006747 -0.040050
v 0.000000 -0.019340 0.005097
v -0.014137 -0.013575 0.003986
v -0.019992 0.000142 0.000539
v -0.014137 0.013776 -0.003223
v -0.000000 0.019340 -0.005097
v 0.014137 0.013575 -0.003986
v 0.019992 -0.000142 -0.000539
v 0.014137 -0.013776 0.003223
v -0.002207 -0.039508 -0.071423
v -0.016344 -0.033743 -0.072535
v -0.022199 -0.020026 -0.075981
v -0.016344 -0.006393 -0.079744
v -0.002207 -0.000829 -0.081618
v 0.011929 -0.006594 -0.080506
v 0.017785 -0.020311 -0.077060
v 0.011929 -0.033944 -0.073298
v -0.002207 -0.020427 -0.056522
v -0.014035 -0.012599 -0.062280
v -0.018934 -0.009206 -0.076379
v -0.014035 -0.012234 -0.090561
v -0.002207 -0.019910 -0.096519
v 0.009621 -0.027738 -0.090762
v 0.014520 -0.031131 -0.076662
v 0.009621 -0.028103 -0.062480
v -0.009230 -0.031141 -0.056661
v -0.021058 -0.023313 -0.062418
v -0.025957 -0.019920 -0.076517
v -0.021058 -0.022948 -0.090700
v -0.009230 -0.030624 -0.096657
v 0.002598 -0.038452 -0.090900
v 0.007497 -0.041845 -0.076801
v 0.002598 -0.038817 -0.062618
v -0.009230 -0.012224 -0.083861
v -0.023360 -0.017476 -0.081198
v -0.029213 -0.030580 -0.075876
v -0.023360 -0.043862 -0.071013
v -0.009230 -0.049541 -0.069457
v 0.004900 -0.044289 -0.072120
v 0.010752 -0.031185 -0.077442
v 0.004900 -0.017903 -0.082305
v -0.008139 -0.002868 -0.059622
v -0.022269 -0.008119 -0.056959
v -0.028122 -0.021224 -0.051637
v -0.022269 -0.034505 -0.046773
v -0.008139 -0.040184 -0.045217
v 0.005990 -0.034933 -0.047880
v 0.011843 -0.021828 -0.053202
v 0.005990 -0.008546 -0.058066
v -0.008139 -0.007543 -0.066719
v -0.019366 -0.005489 -0.056518
v -0.024016 -0.012830 -0.043916
v -0.019366 -0.025264 -0.036295
v -0.008139 -0.035509 -0.038120
v 0.003087 -0.037562 -0.048321
v 0.007737 -0.030222 -0.060923
v 0.003087 -0.017787 -0.068544
v 0.008829 0.008293 -0.051233
v -0.002397 0.010347 -0.041032
v -0.007047 0.003006 -0.028430
v -0.002397 -0.009428 -0.020809
v 0.008829 -0.019673 -0.022634
v 0.020056 -0.021726 -0.032836
v 0.024706 -0.014386 -0.045437
v 0.020056 -0.001951 -0.053058
v 0.000000 -0.019591 0.004023
v -0.014119 -0.014016 0.002052
v -0.019967 -0.000230 -0.001120
v -0.014119 0.013690 -0.003636
v -0.000000 0.019591 -0.004023
v 0.014119 0.014016 -0.002052
v 0.019967 0.000230 0.001120
v 0.014119 -0.013690 0.003636
v 0.003875 -0.033202 -0.062263
v -0.010244 -0.027626 -0.064233
v -0.016092 -0.013841 -0.067405
v -0.010244 0.000080 -0.069922
v 0.003875 0.005981 -0.070308
v 0.017994 0.000405 -0.068338
v 0.023842 -0.013381 -0.065165
v 0.017994 -0.027301 -0.062649
v 0.003875 -0.017703 -0.046709
v -0.004019 -0.005018 -0.050042
v -0.007288 0.002633 -0.062890
v -0.004019 0.000769 -0.077727
v 0.003875 -0.009518 -0.085862
v 0.011769 -0.022203 -0.082529
v 0.015038 -0.029854 -0.069681
v 0.011769 -0.027990 -0.054844
v -0.016668 -0.031230 -0.049536
v -0.024561 -0.018545 -0.052869
v -0.027831 -0.010894 -0.065718
v -0.024561 -0.012758 -0.080555
v -0.016668 -0.023045 -0.088690
v -0.008774 -0.035730 -0.085357
v -0.005505 -0.043381 -0.072509
v -0.008774 -0.041517 -0.057671
v -0.018076 -0.027137 -0.089063
v -0.019419 -0.041170 -0.083096
v -0.019150 -0.046982 -0.068938
v -0.017427 -0.041170 -0.054882
v -0.015260 -0.027137 -0.049163
v -0.013917 -0.013105 -0.055130
v -0.014186 -0.007293 -0.069288
v -0.015908 -0.013105 -0.083344
v -0.043364 -0.023959 -0.087279
v -0.044707 -0.037991 -0.081311
v -0.044438 -0.043803 -0.067153
v -0.042716 -0.037991 -0.053097
v -0.040548 -0.023959 -0.047378
v -0.039205 -0.009926 -0.053345
v -0.039474 -0.004114 -0.067503
v -0.041197 -0.009926 -0.081559
v -0.039669 -0.023959 -0.087197
v -0.035556 -0.037256 -0.080827
v -0.035192 -0.042764 -0.066550
v -0.038790 -0.037256 -0.052728
v -0.044243 -0.023959 -0.047459
v -0.048356 -0.010661 -0.053829
v -0.048720 -0.005153 -0.068107
v -0.045122 -0.010661 -0.081928
v -0.052616 -0.028677 -0.088687
v -0.048503 -0.041974 -0.082317
v -0.048139 -0.047482 -0.068040
v -0.051737 -0.041974 -0.054219
v -0.057190 -0.028677 -0.048950
v -0.061303 -0.015380 -0.055320
v -0.061667 -0.009872 -0.069597
v -0.058068 -0.015380 -0.083418
v -0.015000 -0.015000 -0.015000
v 0.015000 -0.015000 -0.015000
v 0.015000 0.015000 -0.015000
v -0.015000 0.015000 -0.015000
v -0.015000 -0.015000 0.015000
v 0.015000 -0.015000 0.015000
v 0.015000 0.015000 0.015000
v -0.015000 0.015000 0.015000
v -0.015913 -0.031167 -0.033951
v 0.014087 -0.031167 -0.033951
v 0.014087 -0.001167 -0.033951
v -0.015913 -0.001167 -0.033951
v -0.015913 -0.031167 -0.003951
v 0.014087 -0.031167 -0.003951
v 0.014087 -0.001167 -0.003951
v -0.015913 -0.001167 -0.003951
v -0.006106 -0.039060 -0.044696
v 0.023894 -0.039060 -0.044696
v 0.023894 -0.009060 -0.044696
v -0.006106 -0.009060 -0.044696
v -0.006106 -0.039060 -0.014696
v 0.023894 -0.039060 -0.014696
v 0.023894 -0.009060 -0.014696
v -0.006106 -0.009060 -0.014696
v 0.009843 -0.061090 -0.076790
v 0.039843 -0.061090 -0.076790
v 0.039843 -0.031090 -0.076790
v 0.009843 -0.031090 -0.076790
v 0.009843 -0.061090 -0.046790
v 0.039843 -0.061090 -0.046790
v 0.039843 -0.031090 -0.046790
v 0.009843 -0.031090 -0.046790
v 0.030376 -0.066573 -0.092882
v 0.060376 -0.066573 -0.092882
v 0.060376 -0.036573 -0.092882
v 0.030376 -0.036573 -0.092882
v 0.030376 -0.066573 -0.062882
v 0.060376 -0.066573 -0.062882
v 0.060376 -0.036573 -0.062882
v 0.030376 -0.036573 -0.062882
v -0.029641 -0.049124 -0.097435
v 0.000359 -0.049124 -0.097435
v 0.000359 -0.019124 -0.097435
v -0.029641 -0.019124 -0.097435
v -0.029641 -0.049124 -0.067435
v 0.000359 -0.049124 -0.067435
v 0.000359 -0.019124 -0.067435
v -0.029641 -0.019124 -0.067435
v -0.032353 -0.059125 -0.090299
v -0.002353 -0.059125 -0.090299
v -0.002353 -0.029125 -0.090299
v -0.032353 -0.029125 -0.090299
v -0.032353 -0.059125 -0.060299
v -0.002353 -0.059125 -0.060299
v -0.002353 -0.029125 -0.060299
v -0.032353 -0.029125 -0.060299
v -0.026691 -0.045534 -0.066300
v 0.003309 -0.045534 -0.066300
v 0.003309 -0.015534 -0.066300
v -0.026691 -0.015534 -0.066300
v -0.026691 -0.045534 -0.036300
v 0.003309 -0.045534 -0.036300
v 0.003309 -0.015534 -0.036300
v -0.026691 -0.015534 -0.036300
v -0.018289 -0.037022 -0.048512
v 0.011711 -0.037022 -0.048512
v 0.011711 -0.007022 -0.048512
v -0.018289 -0.007022 -0.048512
v -0.018289 -0.037022 -0.018512
v 0.011711 -0.037022 -0.018512
v 0.011711 -0.007022 -0.018512
v -0.018289 -0.007022 -0.018512
v -0.020785 -0.044360 -0.096261
v 0.009215 -0.044360 -0.096261
v 0.009215 -0.014360 -0.096261
v -0.020785 -0.014360 -0.096261
v -0.020785 -0.044360 -0.066261
v 0.009215 -0.044360 -0.066261
v 0.009215 -0.014360 -0.066261
v -0.020785 -0.014360 -0.066261
v -0.027603 -0.045987 -0.091976
v 0.002397 -0.045987 -0.091976
v 0.002397 -0.015987 -0.091976
v -0.027603 -0.015987 -0.091976
v -0.027603 -0.045987 -0.061976
v 0.002397 -0.045987 -0.061976
v 0.002397 -0.015987 -0.061976
v -0.027603 -0.015987 -0.061976
v -0.022653 -0.039842 -0.067692
v 0.007347 -0.039842 -0.067692
v 0.007347 -0.009842 -0.067692
v -0.022653 -0.009842 -0.067692
v -0.022653 -0.039842 -0.037692
v 0.007347 -0.039842 -0.037692
v 0.007347 -0.009842 -0.037692
v -0.022653 -0.009842 -0.037692
v -0.018672 -0.017309 -0.044054
v 0.011328 -0.017309 -0.044054
v 0.011328 0.012691 -0.044054
v -0.018672 0.012691 -0.044054
v -0.018672 -0.017309 -0.014054
v 0.011328 -0.017309 -0.014054
v 0.011328 0.012691 -0.014054
v -0.018672 0.012691 -0.014054
v -0.017207 -0.035169 -0.091521
v 0.012793 -0.035169 -0.091521
v 0.012793 -0.005169 -0.091521
v -0.017207 -0.005169 -0.091521
v -0.017207 -0.035169 -0.061521
v 0.012793 -0.035169 -0.061521
v 0.012793 -0.005169 -0.061521
v -0.017207 -0.005169 -0.061521
v -0.024230 -0.045883 -0.091659
v 0.005770 -0.045883 -0.091659
v 0.005770 -0.015883 -0.091659
v -0.024230 -0.015883 -0.091659
v -0.024230 -0.045883 -0.061659
v 0.005770 -0.045883 -0.061659
v 0.005770 -0.015883 -0.061659
v -0.024230 -0.015883 -0.061659
v -0.023139 -0.036526 -0.067419
v 0.006861 -0.036526 -0.067419
v 0.006861 -0.006526 -0.067419
v -0.023139 -0.006526 -0.067419
v -0.023139 -0.036526 -0.037419
v 0.006861 -0.036526 -0.037419
v 0.006861 -0.006526 -0.037419
v -0.023139 -0.006526 -0.037419
v -0.006171 -0.020690 -0.051934
v 0.023829 -0.020690 -0.051934
v 0.023829 0.009310 -0.051934
v -0.006171 0.009310 -0.051934
v -0.006171 -0.020690 -0.021934
v 0.023829 -0.020690 -0.021934
v 0.023829 0.009310 -0.021934
v -0.006171 0.009310 -0.021934
v -0.011125 -0.028611 -0.081285
v 0.018875 -0.028611 -0.081285
v 0.018875 0.001389 -0.081285
v -0.011125 0.001389 -0.081285
v -0.011125 -0.028611 -0.051285
v 0.018875 -0.028611 -0.051285
v 0.018875 0.001389 -0.051285
v -0.011125 0.001389 -0.051285
v -0.031668 -0.042137 -0.084113
v -0.001668 -0.042137 -0.084113
v -0.001668 -0.012137 -0.084113
v -0.031668 -0.012137 -0.084113
v -0.031668 -0.042137 -0.054113
v -0.001668 -0.042137 -0.054113
v -0.001668 -0.012137 -0.054113
v -0.031668 -0.012137 -0.054113
v -0.056956 -0.038959 -0.082328
v -0.026956 -0.038959 -0.082328
v -0.026956 -0.008959 -0.082328
v -0.056956 -0.008959 -0.082328
v -0.056956 -0.038959 -0.052328
v -0.026956 -0.038959 -0.052328
v -0.026956 -0.008959 -0.052328
v -0.056956 -0.008959 -0.052328
v -0.069903 -0.043677 -0.083818
v -0.039903 -0.043677 -0.083818
v -0.039903 -0.013677 -0.083818
v -0.069903 -0.013677 -0.083818
v -0.069903 -0.043677 -0.053818
v -0.039903 -0.043677 -0.053818
v -0.039903 -0.013677 -0.053818
v -0.069903 -0.013677 -0.053818
f 1 2 9
f 2 10 9
f 2 3 10
f 3 11 10
f 3 4 11
f 4 12 11
f 4 5 12
f 5 13 12
f 5 6 13
f 6 14 13
f 6 7 14
f 7 15 14
f 7 8 15
f 8 16 15
f 8 1 16
f 1 9 16
f 17 18 25
f 18 26 25
f 18 19 26
f 19 27 26
f 19 20 27
f 20 28 27
f 20 21 28
f 21 29 28
f 21 22 29
f 22 30 29
f 22 23 30
f 23 31 30
f 23 24 31
f 24 32 31
f 24 17 32
f 17 25 32
f 33 34 41
f 34 42 41
f 34 35 42
f 35 43 42
f 35 36 43
f 36 44 43
f 36 37 44
f 37 45 44
f 37 38 45
f 38 46 45
f 38 39 46
f 39 47 46
f 39 40 47
f 40 48 47
f 40 33 48
f 33 41 48
f 49 50 57
f 50 58 57
f 50 51 58
f 51 59 58
f 51 52 59
f 52 60 59
f 52 53 60
f 53 61 60
f 53 54 61
f 54 62 61
f 54 55 62
f 55 63 62
f 55 56 63
f 56 64 63
f 56 49 64
f 49 57 64
f 65 66 73
f 66 74 73
f 66 67 74
f 67 75 74
f 67 68 75
f 68 76 75
f 68 69 76
f 69 77 76
f 69 70 77
f 70 78 77
f 70 71 78
f 71 79 78
f 71 72 79
f 72 80 79
f 72 65 80
f 65 73 80
f 81 82 89
f 82 90 89
f 82 83 90
f 83 91 90
f 83 84 91
f 84 92 91
f 84 85 92
f 85 93 92
f 85 86 93
f 86 94 93
f 86 87 94
f 87 95 94
f 87 88 95
f 88 96 95
f 88 81 96
f 81 89 96
f 97 98 105
f 98 106 105
f 98 99 106
f 99 107 106
f 99 100 107
f 100 108 107
f 100 101 108
f 101 109 108
f 101 102 109
f 102 110 109
f 102 103 110
f 103 111 110
f 103 104 111
f 104 112 111
f 104 97 112
f 97 105 112
f 113 114 121
f 114 122 121
f 114 115 122
f 115 123 122
f 115 116 123
f 116 124 123
f 116 117 124
f 117 125 124
f 117 118 125
f 118 126 125
f 118 119 126
f 119 127 126
f 119 120 127
f 120 128 127
f 120 113 128
f 113 121 128
f 129 130 137
f 130 138 137
f 130 131 138
f 131 139 138
f 131 132 139
f 132 140 139
f 132 133 140
f 133 141 140
f 133 134 141
f 134 142 141
f 134 135 142
f 135 143 142
f 135 136 143
f 136 144 143
f 136 129 144
f 129 137 144
f 145 146 153
f 146 154 153
f 146 147 154
f 147 155 154
f 147 148 155
f 148 156 155
f 148 149 156
f 149 157 156
f 149 150 157
f 150 158 157
f 150 151 158
f 151 159 158
f 151 152 159
f 152 160 159
f 152 145 160
f 145 153 160
f 161 162 169
f 162 170 169
f 162 163 170
f 163 171 170
f 163 164 171
f 164 172 171
f 164 165 172
f 165 173 172
f 165 166 173
f 166 174 173
f 166 167 174
f 167 175 174
f 167 168 175
f 168 176 175
f 168 161 176
f 161 169 176
f 177 178 185
f 178 186 185
f 178 179 186
f 179 187 186
f 179 180 187
f 180 188 187
f 180 181 188
f 181 189 188
f 181 182 189
f 182 190 189
f 182 183 190
f 183 191 190
f 183 184 191
f 184 192 191
f 184 177 192
f 177 185 192
f 193 194 201
f 194 202 201
f 194 195 202
f 195 203 202
f 195 196 203
f 196 204 203
f 196 197 204
f 197 205 204
f 197 198 205
f 198 206 205
f 198 199 206
f 199 207 206
f 199 200 207
f 200 208 207
f 200 193 208
f 193 201 208
f 209 210 217
f 210 218 217
f 210 211 218
f 211 219 218
f 211 212 219
f 212 220 219
f 212 213 220
f 213 221 220
f 213 214 221
f 214 222 221
f 214 215 222
f 215 223 222
f 215 216 223
f 216 224 223
f 216 209 224
f 209 217 224
f 225 226 233
f 226 234 233
f 226 227 234
f 227 235 234
f 227 228 235
f 228 236 235
f 228 229 236
f 229 237 236
f 229 230 237
f 230 238 237
f 230 231 238
f 231 239 238
f 231 232 239
f 232 240 239
f 232 225 240
f 225 233 240
f 241 242 249
f 242 250 249
f 242 243 250
f 243 251 250
f 243 244 251
f 244 252 251
f 244 245 252
f 245 253 252
f 245 246 253
f 246 254 253
f 246 247 254
f 247 255 254
f 247 248 255
f 248 256 255
f 248 241 256
f 241 249 256
f 257 258 265
f 258 266 265
f 258 259 266
f 259 267 266
f 259 260 267
f 260 268 267
f 260 261 268
f 261 269 268
f 261 262 269
f 262 270 269
f 262 263 270
f 263 271 270
f 263 264 271
f 264 272 271
f 264 257 272
f 257 265 272
f 273 274 281
f 274 282 281
f 274 275 282
f 275 283 282
f 275 276 283
f 276 284 283
f 276 277 284
f 277 285 284
f 277 278 285
f 278 286 285
f 278 279 286
f 279 287 286
f 279 280 287
f 280 288 287
f 280 273 288
f 273 281 288
f 289 290 297
f 290 298 297
f 290 291 298
f 291 299 298
f 291 292 299
f 292 300 299
f 292 293 300
f 293 301 300
f 293 294 301
f 294 302 301
f 294 295 302
f 295 303 302
f 295 296 303
f 296 304 303
f 296 289 304
f 289 297 304
f 305 306 313
f 306 314 313
f 306 307 314
f 307 315 314
f 307 308 315
f 308 316 315
f 308 309 316
f 309 317 316
f 309 310 317
f 310 318 317
f 310 311 318
f 311 319 318
f 311 312 319
f 312 320 319
f 312 305 320
f 305 313 320
f 321 322 323
f 321 323 324
f 325 326 327
f 325 327 328
f 321 325 326
f 321 326 322
f 322 326 327
f 322 327 323
f 323 327 328
f 323 328 324
f 324 328 325
f 324 325 321
f 329 330 331
f 329 331 332
f 333 334 335
f 333 335 336
f 329 333 334
f 329 334 330
f 330 334 335
f 330 335 331
f 331 335 336
f 331 336 332
f 332 336 333
f 332 333 329
f 337 338 339
f 337 339 340
f 341 342 343
f 341 343 344
f 337 341 342
f 337 342 338
f 338 342 343
f 338 343 339
f 339 343 344
f 339 344 340
f 340 344 341
f 340 341 337
f 345 346 347
f 345 347 348
f 349 350 351
f 349 351 352
f 345 349 350
f 345 350 346
f 346 350 351
f 346 351 347
f 347 351 352
f 347 352 348
f 348 352 349
f 348 349 345
f 353 354 355
f 353 355 356
f 357 358 359
f 357 359 360
f 353 357 358
f 353 358 354
f 354 358 359
f 354 359 355
f 355 359 360
f 355 360 356
f 356 360 357
f 356 357 353
f 361 362 363
f 361 363 364
f 365 366 367
f 365 367 368
f 361 365 366
f 361 366 362
f 362 366 367
f 362 367 363
f 363 367 368
f 363 368 364
f 364 368 365
f 364 365 361
f 369 370 371
f 369 371 372
f 373 374 375
f 373 375 376
f 369 373 374
f 369 374 370
f 370 374 375
f 370 375 371
f 371 375 376
f 371 376 372
f 372 376 373
f 372 373 369
f 377 378 379
f 377 379 380
f 381 382 383
f 381 383 384
f 377 381 382
f 377 382 378
f 378 382 383
f 378 383 379
f 379 383 384
f 379 384 380
f 380 384 381
f 380 381 377
f 385 386 387
f 385 387 388
f 389 390 391
f 389 391 392
f 385 389 390
f 385 390 386
f 386 390 391
f 386 391 387
f 387 391 392
f 387 392 388
f 388 392 389
f 388 389 385
f 393 394 395
f 393 395 396
f 397 398 399
f 397 399 400
f 393 397 398
f 393 398 394
f 394 398 399
f 394 399 395
f 395 399 400
f 395 400 396
f 396 400 397
f 396 397 393
f 401 402 403
f 401 403 404
f 405 406 407
f 405 407 408
f 401 405 406
f 401 406 402
f 402 406 407
f 402 407 403
f 403 407 408
f 403 408 404
f 404 408 405
f 404 405 401
f 409 410 411
f 409 411 412
f 413 414 415
f 413 415 416
f 409 413 414
f 409 414 410
f 410 414 415
f 410 415 411
f 411 415 416
f 411 416 412
f 412 416 413
f 412 413 409
f 417 418 419
f 417 419 420
f 421 422 423
f 421 423 424
f 417 421 422
f 417 422 418
f 418 422 423
f 418 423 419
f 419 423 424
f 419 424 420
f 420 424 421
f 420 421 417
f 425 426 427
f 425 427 428
f 429 430 431
f 429 431 432
f 425 429 430
f 425 430 426
f 426 430 431
f 426 431 427
f 427 431 432
f 427 432 428
f 428 432 429
f 428 429 425
f 433 434 435
f 433 435 436
f 437 438 439
f 437 439 440
f 433 437 438
f 433 438 434
f 434 438 439
f 434 439 435
f 435 439 440
f 435 440 436
f 436 440 437
f 436 437 433
f 441 442 443
f 441 443 444
f 445 446 447
f 445 447 448
f 441 445 446
f 441 446 442
f 442 446 447
f 442 447 443
f 443 447 448
f 443 448 444
f 444 448 445
f 444 445 441
f 449 450 451
f 449 451 452
f 453 454 455
f 453 455 456
f 449 453 454
f 449 454 450
f 450 454 455
f 450 455 451
f 451 455 456
f 451 456 452
f 452 456 453
f 452 453 449
f 457 458 459
f 457 459 460
f 461 462 463
f 461 463 464
f 457 461 462
f 457 462 458
f 458 462 463
f 458 463 459
f 459 463 464
f 459 464 460
f 460 464 461
f 460 461 457
f 465 466 467
f 465 467 468
f 469 470 471
f 469 471 472
f 465 469 470
f 465 470 466
f 466 470 471
f 466 471 467
f 467 471 472
f 467 472 468
f 468 472 469
f 468 469 465
f 473 474 475
f 473 475 476
f 477 478 479
f 477 479 480
f 473 477 478
f 473 478 474
f 474 478 479
f 474 479 475
f 475 479 480
f 475 480 476
f 476 480 477
f 476 477 473
f 481 482 483
f 481 483 484
f 485 486 487
f 485 487 488
f 481 485 486
f 481 486 482
f 482 486 487
f 482 487 483
f 483 487 488
f 483 488 484
f 484 488 485
f 484 485 481
f 489 490 497
f 490 498 497
f 490 491 498
f 491 499 498
f 491 492 499
f 492 500 499
f 492 493 500
f 493 501 500
f 493 494 501
f 494 502 501
f 494 495 502
f 495 503 502
f 495 496 503
f 496 504 503
f 496 489 504
f 489 497 504
f 505 506 513
f 506 514 513
f 506 507 514
f 507 515 514
f 507 508 515
f 508 516 515
f 508 509 516
f 509 517 516
f 509 510 517
f 510 518 517
f 510 511 518
f 511 519 518
f 511 512 519
f 512 520 519
f 512 505 520
f 505 513 520
f 521 522 529
f 522 530 529
f 522 523 530
f 523 531 530
f 523 524 531
f 524 532 531
f 524 525 532
f 525 533 532
f 525 526 533
f 526 534 533
f 526 527 534
f 527 535 534
f 527 528 535
f 528 536 535
f 528 521 536
f 521 529 536
f 537 538 545
f 538 546 545
f 538 539 546
f 539 547 546
f 539 540 547
f 540 548 547
f 540 541 548
f 541 549 548
f 541 542 549
f 542 550 549
f 542 543 550
f 543 551 550
f 543 544 551
f 544 552 551
f 544 537 552
f 537 545 552
f 553 554 561
f 554 562 561
f 554 555 562
f 555 563 562
f 555 556 563
f 556 564 563
f 556 557 564
f 557 565 564
f 557 558 565
f 558 566 565
f 558 559 566
f 559 567 566
f 559 560 567
f 560 568 567
f 560 553 568
f 553 561 568
f 569 570 577
f 570 578 577
f 570 571 578
f 571 579 578
f 571 572 579
f 572 580 579
f 572 573 580
f 573 581 580
f 573 574 581
f 574 582 581
f 574 575 582
f 575 583 582
f 575 576 583
f 576 584 583
f 576 569 584
f 569 577 584
f 585 586 593
f 586 594 593
f 586 587 594
f 587 595 594
f 587 588 595
f 588 596 595
f 588 589 596
f 589 597 596
f 589 590 597
f 590 598 597
f 590 591 598
f 591 599 598
f 591 592 599
f 592 600 599
f 592 585 600
f 585 593 600
f 601 602 609
f 602 610 609
f 602 603 610
f 603 611 610
f 603 604 611
f 604 612 611
f 604 605 612
f 605 613 612
f 605 606 613
f 606 614 613
f 606 607 614
f 607 615 614
f 607 608 615
f 608 616 615
f 608 601 616
f 601 609 616
f 617 618 625
f 618 626 625
f 618 619 626
f 619 627 626
f 619 620 627
f 620 628 627
f 620 621 628
f 621 629 628
f 621 622 629
f 622 630 629
f 622 623 630
f 623 631 630
f 623 624 631
f 624 632 631
f 624 617 632
f 617 625 632
f 633 634 641
f 634 642 641
f 634 635 642
f 635 643 642
f 635 636 643
f 636 644 643
f 636 637 644
f 637 645 644
f 637 638 645
f 638 646 645
f 638 639 646
f 639 647 646
f 639 640 647
f 640 648 647
f 640 633 648
f 633 641 648
f 649 650 657
f 650 658 657
f 650 651 658
f 651 659 658
f 651 652 659
f 652 660 659
f 652 653 660
f 653 661 660
f 653 654 661
f 654 662 661
f 654 655 662
f 655 663 662
f 655 656 663
f 656 664 663
f 656 649 664
f 649 657 664
f 665 666 673
f 666 674 673
f 666 667 674
f 667 675 674
f 667 668 675
f 668 676 675
f 668 669 676
f 669 677 676
f 669 670 677
f 670 678 677
f 670 671 678
f 671 679 678
f 671 672 679
f 672 680 679
f 672 665 680
f 665 673 680
f 681 682 689
f 682 690 689
f 682 683 690
f 683 691 690
f 683 684 691
f 684 692 691
f 684 685 692
f 685 693 692
f 685 686 693
f 686 694 693
f 686 687 694
f 687 695 694
f 687 688 695
f 688 696 695
f 688 681 696
f 681 689 696
f 697 698 705
f 698 706 705
f 698 699 706
f 699 707 706
f 699 700 707
f 700 708 707
f 700 701 708
f 701 709 708
f 701 702 709
f 702 710 709
f 702 703 710
f 703 711 710
f 703 704 711
f 704 712 711
f 704 697 712
f 697 705 712
f 713 714 721
f 714 722 721
f 714 715 722
f 715 723 722
f 715 716 723
f 716 724 723
f 716 717 724
f 717 725 724
f 717 718 725
f 718 726 725
f 718 719 726
f 719 727 726
f 719 720 727
f 720 728 727
f 720 713 728
f 713 721 728
f 729 730 737
f 730 738 737
f 730 731 738
f 731 739 738
f 731 732 739
f 732 740 739
f 732 733 740
f 733 741 740
f 733 734 741
f 734 742 741
f 734 735 742
f 735 743 742
f 735 736 743
f 736 744 743
f 736 729 744
f 729 737 744
f 745 746 753
f 746 754 753
f 746 747 754
f 747 755 754
f 747 748 755
f 748 756 755
f 748 749 756
f 749 757 756
f 749 750 757
f 750 758 757
f 750 751 758
f 751 759 758
f 751 752 759
f 752 760 759
f 752 745 760
f 745 753 760
f 761 762 769
f 762 770 769
f 762 763 770
f 763 771 770
f 763 764 771
f 764 772 771
f 764 765 772
f 765 773 772
f 765 766 773
f 766 774 773
f 766 767 774
f 767 775 774
f 767 768 775
f 768 776 775
f 768 761 776
f 761 769 776
f 777 778 785
f 778 786 785
f 778 779 786
f 779 787 786
f 779 780 787
f 780 788 787
f 780 781 788
f 781 789 788
f 781 782 789
f 782 790 789
f 782 783 790
f 783 791 790
f 783 784 791
f 784 792 791
f 784 777 792
f 777 785 792
f 793 794 801
f 794 802 801
f 794 795 802
f 795 803 802
f 795 796 803
f 796 804 803
f 796 797 804
f 797 805 804
f 797 798 805
f 798 806 805
f 798 799 806
f 799 807 806
f 799 800 807
f 800 808 807
f 800 793 808
f 793 801 808
f 809 810 811
f 809 811 812
f 813 814 815
f 813 815 816
f 809 813 814
f 809 814 810
f 810 814 815
f 810 815 811
f 811 815 816
f 811 816 812
f 812 816 813
f 812 813 809
f 817 818 819
f 817 819 820
f 821 822 823
f 821 823 824
f 817 821 822
f 817 822 818
f 818 822 823
f 818 823 819
f 819 823 824
f 819 824 820
f 820 824 821
f 820 821 817
f 825 826 827
f 825 827 828
f 829 830 831
f 829 831 832
f 825 829 830
f 825 830 826
f 826 830 831
f 826 831 827
f 827 831 832
f 827 832 828
f 828 832 829
f 828 829 825
f 833 834 835
f 833 835 836
f 837 838 839
f 837 839 840
f 833 837 838
f 833 838 834
f 834 838 839
f 834 839 835
f 835 839 840
f 835 840 836
f 836 840 837
f 836 837 833
f 841 842 843
f 841 843 844
f 845 846 847
f 845 847 848
f 841 845 846
f 841 846 842
f 842 846 847
f 842 847 843
f 843 847 848
f 843 848 844
f 844 848 845
f 844 845 841
f 849 850 851
f 849 851 852
f 853 854 855
f 853 855 856
f 849 853 854
f 849 854 850
f 850 854 855
f 850 855 851
f 851 855 856
f 851 856 852
f 852 856 853
f 852 853 849
f 857 858 859
f 857 859 860
f 861 862 863
f 861 863 864
f 857 861 862
f 857 862 858
f 858 862 863
f 858 863 859
f 859 863 864
f 859 864 860
f 860 864 861
f 860 861 857
f 865 866 867
f 865 867 868
f 869 870 871
f 869 871 872
f 865 869 870
f 865 870 866
f 866 870 871
f 866 871 867
f 867 871 872
f 867 872 868
f 868 872 869
f 868 869 865
f 873 874 875
f 873 875 876
f 877 878 879
f 877 879 880
f 873 877 878
f 873 878 874
f 874 878 879
f 874 879 875
f 875 879 880
f 875 880 876
f 876 880 877
f 876 877 873
f 881 882 883
f 881 883 884
f 885 886 887
f 885 887 888
f 881 885 886
f 881 886 882
f 882 886 887
f 882 887 883
f 883 887 888
f 883 888 884
f 884 888 885
f 884 885 881
f 889 890 891
f 889 891 892
f 893 894 895
f 893 895 896
f 889 893 894
f 889 894 890
f 890 894 895
f 890 895 891
f 891 895 896
f 891 896 892
f 892 896 893
f 892 893 889
f 897 898 899
f 897 899 900
f 901 902 903
f 901 903 904
f 897 901 902
f 897 902 898
f 898 902 903
f 898 903 899
f 899 903 904
f 899 904 900
f 900 904 901
f 900 901 897
f 905 906 907
f 905 907 908
f 909 910 911
f 909 911 912
f 905 909 910
f 905 910 906
f 906 910 911
f 906 911 907
f 907 911 912
f 907 912 908
f 908 912 909
f 908 909 905
f 913 914 915
f 913 915 916
f 917 918 919
f 917 919 920
f 913 917 918
f 913 918 914
f 914 918 919
f 914 919 915
f 915 919 920
f 915 920 916
f 916 920 917
f 916 917 913
f 921 922 923
f 921 923 924
f 925 926 927
f 925 927 928
f 921 925 926
f 921 926 922
f 922 926 927
f 922 927 923
f 923 927 928
f 923 928 924
f 924 928 925
f 924 925 921
f 929 930 931
f 929 931 932
f 933 934 935
f 933 935 936
f 929 933 934
f 929 934 930
f 930 934 935
f 930 935 931
f 931 935 936
f 931 936 932
f 932 936 933
f 932 933 929
f 937 938 939
f 937 939 940
f 941 942 943
f 941 943 944
f 937 941 942
f 937 942 938
f 938 942 943
f 938 943 939
f 939 943 944
f 939 944 940
f 940 944 941
f 940 941 937
f 945 946 947
f 945 947 948
f 949 950 951
f 949 951 952
f 945 949 950
f 945 950 946
f 946 950 951
f 946 951 947
f 947 951 952
f 947 952 948
f 948 952 949
f 948 949 945
f 953 954 955
f 953 955 956
f 957 958 959
f 957 959 960
f 953 957 958
f 953 958 954
f 954 958 959
f 954 959 955
f 955 959 960
f 955 960 956
f 956 960 957
f 956 957 953
f 961 962 963
f 961 963 964
f 965 966 967
f 965 967 968
f 961 965 966
f 961 966 962
f 962 966 967
f 962 967 963
f 963 967 968
f 963 968 964
f 964 968 965
f 964 965 961
f 969 970 971
f 969 971 972
f 973 974 975
f 973 975 976
f 969 973 974
f 969 974 970
f 970 974 975
f 970 975 971
f 971 975 976
f 971 976 972
f 972 976 973
f 972 973 969
