# SignFlow 3D Hand Mesh - Frame 21
v 0.000000 -0.019689 0.003513
v -0.014117 -0.013774 0.003315
v -0.019964 0.000210 0.001176
v -0.014117 0.014071 -0.001653
v -0.000000 0.019689 -0.003513
v 0.014117 0.013774 -0.003315
v 0.019964 -0.000210 -0.001176
v 0.014117 -0.014071 0.001653
v -0.001397 -0.023790 -0.019472
v -0.015513 -0.017875 -0.019670
v -0.021361 -0.003892 -0.021810
v -0.015513 0.009969 -0.024638
v -0.001397 0.015588 -0.026499
v 0.012720 0.009673 -0.026301
v 0.018568 -0.004311 -0.024161
v 0.012720 -0.018172 -0.021333
v -0.001397 -0.023837 -0.026227
v -0.015347 -0.018432 -0.022990
v -0.021126 -0.004633 -0.019750
v -0.015347 0.009478 -0.018406
v -0.001397 0.015634 -0.019744
v 0.012554 0.010230 -0.022981
v 0.018333 -0.003570 -0.026221
v 0.012554 -0.017681 -0.027565
v -0.004546 -0.020765 -0.044929
v -0.018497 -0.015361 -0.041693
v -0.024275 -0.001561 -0.038453
v -0.018497 0.012550 -0.037109
v -0.004546 0.018706 -0.038447
v 0.009405 0.013301 -0.041684
v 0.015183 -0.000498 -0.044923
v 0.009405 -0.014609 -0.046268
v -0.004546 -0.021007 -0.040727
v -0.017049 -0.014838 -0.034408
v -0.022228 -0.000581 -0.032354
v -0.017049 0.013414 -0.035767
v -0.004546 0.018947 -0.042649
v 0.007957 0.012779 -0.048968
v 0.013136 -0.001479 -0.051023
v 0.007957 -0.015473 -0.047609
v -0.017112 -0.022149 -0.064477
v -0.029616 -0.015980 -0.058158
v -0.034795 -0.001723 -0.056103
v -0.029616 0.012271 -0.059516
v -0.017112 0.017805 -0.066398
v -0.004609 0.011636 -0.072717
v 0.000570 -0.002621 -0.074772
v -0.004609 -0.016615 -0.071359
v -0.017112 -0.022166 -0.065929
v -0.031253 -0.016305 -0.065994
v -0.037110 -0.002165 -0.065733
v -0.031253 0.011971 -0.065299
v -0.017112 0.017822 -0.064946
v -0.002972 0.011961 -0.064881
v 0.002886 -0.002179 -0.065142
v -0.002972 -0.016315 -0.065576
v -0.016756 -0.021572 -0.090079
v -0.030896 -0.015711 -0.090144
v -0.036753 -0.001571 -0.089883
v -0.030896 0.012565 -0.089449
v -0.016756 0.018416 -0.089096
v -0.002615 0.012555 -0.089031
v 0.003242 -0.001585 -0.089292
v -0.002615 -0.015721 -0.089727
v 0.000000 -0.019752 -0.003139
v -0.013718 -0.013428 -0.005613
v -0.019401 0.000763 -0.004799
v -0.013718 0.014506 -0.001174
v -0.000000 0.019752 0.003139
v 0.013718 0.013428 0.005613
v 0.019401 -0.000763 0.004799
v 0.013718 -0.014506 0.001174
v 0.018087 -0.008420 -0.074456
v 0.004369 -0.002096 -0.076930
v -0.001314 0.012094 -0.076117
v 0.004369 0.025838 -0.072492
v 0.018087 0.031084 -0.068179
v 0.031805 0.024760 -0.065705
v 0.037488 0.010569 -0.066519
v 0.031805 -0.003174 -0.070143
v 0.018087 0.001932 -0.053664
v 0.006787 -0.002821 -0.062832
v 0.002107 0.000717 -0.076970
v 0.006787 0.010473 -0.087797
v 0.018087 0.020732 -0.088971
v 0.029387 0.025485 -0.079804
v 0.034067 0.021947 -0.065665
v 0.029387 0.012191 -0.054838
v 0.030659 -0.012813 -0.061516
v 0.019359 -0.017566 -0.070683
v 0.014679 -0.014028 -0.084821
v 0.019359 -0.004272 -0.095649
v 0.030659 0.005987 -0.096822
v 0.041959 0.010740 -0.087655
v 0.046639 0.007202 -0.073517
v 0.041959 -0.002554 -0.062689
v 0.030659 0.012644 -0.067245
v 0.016986 0.005786 -0.067836
v 0.011323 -0.006460 -0.075066
v 0.016986 -0.016922 -0.084699
v 0.030659 -0.019470 -0.091093
v 0.044331 -0.012612 -0.090502
v 0.049995 -0.000366 -0.083272
v 0.044331 0.010096 -0.073639
v 0.036804 -0.001215 -0.048582
v 0.023131 -0.008073 -0.049173
v 0.017468 -0.020319 -0.056403
v 0.023131 -0.030781 -0.066036
v 0.036804 -0.033329 -0.072430
v 0.050476 -0.026472 -0.071839
v 0.056139 -0.014225 -0.064609
v 0.050476 -0.003764 -0.054976
v 0.036804 0.002697 -0.059404
v 0.023045 -0.002972 -0.062992
v 0.017345 -0.017018 -0.065123
v 0.023045 -0.031213 -0.064550
v 0.036804 -0.037242 -0.061608
v 0.050563 -0.031573 -0.058020
v 0.056262 -0.017527 -0.055889
v 0.050563 -0.003332 -0.056462
v 0.032455 0.001689 -0.041131
v 0.018696 -0.003980 -0.044719
v 0.012997 -0.018026 -0.046850
v 0.018696 -0.032221 -0.046277
v 0.032455 -0.038250 -0.043335
v 0.046214 -0.032581 -0.039748
v 0.051913 -0.018535 -0.037616
v 0.046214 -0.004340 -0.038189
v 0.000000 -0.019521 -0.004352
v -0.013348 -0.012787 -0.007637
v -0.018877 0.001438 -0.006448
v -0.013348 0.014820 -0.001482
v -0.000000 0.019521 0.004352
v 0.013348 0.012787 0.007637
v 0.018877 -0.001438 0.006448
v 0.013348 -0.014820 0.001482
v 0.025081 -0.003924 -0.074305
v 0.011733 0.002810 -0.077589
v 0.006204 0.017034 -0.076400
v 0.011733 0.030416 -0.071434
v 0.025081 0.035117 -0.065600
v 0.038430 0.028383 -0.062315
v 0.043959 0.014159 -0.063504
v 0.038430 0.000777 -0.068470
v 0.025081 0.013739 -0.050039
v 0.016388 0.003177 -0.056907
v 0.012787 -0.000110 -0.071417
v 0.016388 0.005803 -0.085069
v 0.025081 0.017454 -0.089866
v 0.033774 0.028016 -0.082997
v 0.037375 0.031304 -0.068487
v 0.033774 0.025390 -0.054835
v 0.041634 0.000895 -0.051237
v 0.032941 -0.009667 -0.058105
v 0.029340 -0.012955 -0.072615
v 0.032941 -0.007041 -0.086267
v 0.041634 0.004610 -0.091064
v 0.050327 0.015172 -0.084195
v 0.053928 0.018460 -0.069685
v 0.050327 0.012546 -0.056033
v 0.041634 0.014676 -0.055093
v 0.027626 0.009623 -0.058637
v 0.021824 0.000545 -0.069510
v 0.027626 -0.007240 -0.081345
v 0.041634 -0.009171 -0.087207
v 0.055642 -0.004118 -0.083663
v 0.061444 0.004961 -0.072790
v 0.055642 0.012745 -0.060956
v 0.044823 -0.003768 -0.041396
v 0.030816 -0.008821 -0.044940
v 0.025013 -0.017900 -0.055814
v 0.030816 -0.025684 -0.067648
v 0.044823 -0.027616 -0.073510
v 0.058831 -0.022562 -0.069967
v 0.064633 -0.013484 -0.059093
v 0.058831 -0.005699 -0.047259
v 0.044823 0.003219 -0.063964
v 0.030794 -0.002901 -0.063746
v 0.024983 -0.016514 -0.059841
v 0.030794 -0.029645 -0.054538
v 0.044823 -0.034602 -0.050943
v 0.058852 -0.028482 -0.051161
v 0.064663 -0.014870 -0.055065
v 0.058852 -0.001739 -0.060369
v 0.041527 0.011650 -0.039476
v 0.027498 0.005530 -0.039257
v 0.021687 -0.008083 -0.035353
v 0.027498 -0.021214 -0.030050
v 0.041527 -0.026171 -0.026454
v 0.055555 -0.020051 -0.026673
v 0.061366 -0.006438 -0.030577
v 0.055555 0.006693 -0.035880
v 0.000000 -0.019117 -0.005879
v -0.012969 -0.011860 -0.009546
v -0.018342 0.002344 -0.007622
v -0.012969 0.015175 -0.001233
v -0.000000 0.019117 0.005879
v 0.012969 0.011860 0.009546
v 0.018342 -0.002344 0.007622
v 0.012969 -0.015175 0.001233
v 0.029399 0.000759 -0.070512
v 0.016430 0.008016 -0.074180
v 0.011058 0.022220 -0.072256
v 0.016430 0.035051 -0.065867
v 0.029399 0.038992 -0.058755
v 0.042369 0.031736 -0.055087
v 0.047741 0.017532 -0.057012
v 0.042369 0.004701 -0.063401
v 0.029399 0.017695 -0.044753
v 0.017634 0.010534 -0.051432
v 0.012760 0.008845 -0.065844
v 0.017634 0.013618 -0.079547
v 0.029399 0.022057 -0.084514
v 0.041165 0.029218 -0.077836
v 0.046038 0.030907 -0.063424
v 0.041165 0.026134 -0.049720
v 0.042257 -0.001468 -0.046855
v 0.030491 -0.008630 -0.053534
v 0.025618 -0.010318 -0.067946
v 0.030491 -0.005545 -0.081649
v 0.042257 0.002893 -0.086617
v 0.054022 0.010055 -0.079938
v 0.058896 0.011743 -0.065526
v 0.054022 0.006970 -0.051822
v 0.042257 0.015584 -0.053363
v 0.028116 0.011364 -0.057431
v 0.022259 0.000904 -0.066949
v 0.028116 -0.009668 -0.076343
v 0.042257 -0.014159 -0.080109
v 0.056397 -0.009939 -0.076041
v 0.062255 0.000521 -0.066523
v 0.056397 0.011093 -0.057129
v 0.041966 0.002058 -0.038321
v 0.027826 -0.002162 -0.042388
v 0.021969 -0.012622 -0.051907
v 0.027826 -0.023194 -0.061300
v 0.041966 -0.027685 -0.065066
v 0.056107 -0.023465 -0.060999
v 0.061964 -0.013006 -0.051480
v 0.056107 -0.002434 -0.042087
v 0.041966 0.006254 -0.057729
v 0.027825 0.000688 -0.055900
v 0.021967 -0.012786 -0.051607
v 0.027825 -0.026277 -0.047364
v 0.041966 -0.031881 -0.045658
v 0.056108 -0.026316 -0.047487
v 0.061966 -0.012841 -0.051780
v 0.056108 0.000650 -0.056023
v 0.042061 0.012541 -0.037867
v 0.027919 0.006976 -0.036038
v 0.022062 -0.006499 -0.031744
v 0.027919 -0.019990 -0.027502
v 0.042061 -0.025594 -0.025796
v 0.056203 -0.020029 -0.027625
v 0.062061 -0.006554 -0.031918
v 0.056203 0.006937 -0.036160
v 0.000000 -0.019299 -0.005247
v -0.012162 -0.011753 -0.010674
v -0.017200 0.002678 -0.009849
v -0.012162 0.015540 -0.003254
v -0.000000 0.019299 0.005247
v 0.012162 0.011753 0.010674
v 0.017200 -0.002678 0.009849
v 0.012162 -0.015540 0.003254
v 0.032832 -0.004785 -0.058635
v 0.020670 0.002761 -0.064063
v 0.015632 0.017192 -0.063238
v 0.020670 0.030055 -0.056643
v 0.032832 0.033814 -0.048142
v 0.044994 0.026268 -0.042714
v 0.050031 0.011837 -0.043539
v 0.044994 -0.001026 -0.050134
v 0.039540 0.014515 -0.034547
v 0.039584 0.000534 -0.040781
v 0.035673 -0.005257 -0.054400
v 0.030097 0.000534 -0.067426
v 0.026123 0.014515 -0.072230
v 0.026080 0.028495 -0.065996
v 0.029991 0.034286 -0.052377
v 0.035567 0.028495 -0.039350
v 0.056615 0.017279 -0.040627
v 0.056659 0.003298 -0.046860
v 0.052748 -0.002493 -0.060479
v 0.047172 0.003298 -0.073506
v 0.043199 0.017279 -0.078309
v 0.043155 0.031259 -0.072076
v 0.047066 0.037050 -0.058457
v 0.052642 0.031259 -0.045430
v 0.047883 0.017279 -0.039571
v 0.051799 0.003537 -0.045060
v 0.054606 -0.002155 -0.058990
v 0.054661 0.003537 -0.073200
v 0.051931 0.017279 -0.079365
v 0.048015 0.031021 -0.073876
v 0.045208 0.036713 -0.059946
v 0.045153 0.031021 -0.045737
v 0.068805 0.022390 -0.037442
v 0.072721 0.008648 -0.042932
v 0.075528 0.002956 -0.056862
v 0.075583 0.008648 -0.071071
v 0.072853 0.022390 -0.077237
v 0.068937 0.036132 -0.071747
v 0.066130 0.041824 -0.057818
v 0.066075 0.036132 -0.043608
v 0.076121 0.022390 -0.038053
v 0.074732 0.008249 -0.043746
v 0.071056 0.002392 -0.057402
v 0.067248 0.008249 -0.071022
v 0.065537 0.022390 -0.076627
v 0.066926 0.036531 -0.070934
v 0.070602 0.042389 -0.057277
v 0.074410 0.036531 -0.043658
v 0.096317 0.022637 -0.043594
v 0.094928 0.008496 -0.049287
v 0.091252 0.002639 -0.062944
v 0.087444 0.008496 -0.076563
v 0.085733 0.022637 -0.082168
v 0.087122 0.036778 -0.076475
v 0.090798 0.042636 -0.062819
v 0.094606 0.036778 -0.049199
v -0.015000 -0.015000 -0.015000
v 0.015000 -0.015000 -0.015000
v 0.015000 0.015000 -0.015000
v -0.015000 0.015000 -0.015000
v -0.015000 -0.015000 0.015000
v 0.015000 -0.015000 0.015000
v 0.015000 0.015000 0.015000
v -0.015000 0.015000 0.015000
v -0.016397 -0.019101 -0.037985
v 0.013603 -0.019101 -0.037985
v 0.013603 0.010899 -0.037985
v -0.016397 0.010899 -0.037985
v -0.016397 -0.019101 -0.007985
v 0.013603 -0.019101 -0.007985
v 0.013603 0.010899 -0.007985
v -0.016397 0.010899 -0.007985
v -0.019546 -0.016030 -0.056688
v 0.010454 -0.016030 -0.056688
v 0.010454 0.013970 -0.056688
v -0.019546 0.013970 -0.056688
v -0.019546 -0.016030 -0.026688
v 0.010454 -0.016030 -0.026688
v 0.010454 0.013970 -0.026688
v -0.019546 0.013970 -0.026688
v -0.032112 -0.017172 -0.080438
v -0.002112 -0.017172 -0.080438
v -0.002112 0.012828 -0.080438
v -0.032112 0.012828 -0.080438
v -0.032112 -0.017172 -0.050438
v -0.002112 -0.017172 -0.050438
v -0.002112 0.012828 -0.050438
v -0.032112 0.012828 -0.050438
v -0.031756 -0.016578 -0.104588
v -0.001756 -0.016578 -0.104588
v -0.001756 0.013422 -0.104588
v -0.031756 0.013422 -0.104588
v -0.031756 -0.016578 -0.074588
v -0.001756 -0.016578 -0.074588
v -0.001756 0.013422 -0.074588
v -0.031756 0.013422 -0.074588
v 0.003087 -0.003668 -0.086318
v 0.033087 -0.003668 -0.086318
v 0.033087 0.026332 -0.086318
v 0.003087 0.026332 -0.086318
v 0.003087 -0.003668 -0.056318
v 0.033087 -0.003668 -0.056318
v 0.033087 0.026332 -0.056318
v 0.003087 0.026332 -0.056318
v 0.015659 -0.018413 -0.094169
v 0.045659 -0.018413 -0.094169
v 0.045659 0.011587 -0.094169
v 0.015659 0.011587 -0.094169
v 0.015659 -0.018413 -0.064169
v 0.045659 -0.018413 -0.064169
v 0.045659 0.011587 -0.064169
v 0.015659 0.011587 -0.064169
v 0.021804 -0.032272 -0.075506
v 0.051804 -0.032272 -0.075506
v 0.051804 -0.002272 -0.075506
v 0.021804 -0.002272 -0.075506
v 0.021804 -0.032272 -0.045506
v 0.051804 -0.032272 -0.045506
v 0.051804 -0.002272 -0.045506
v 0.021804 -0.002272 -0.045506
v 0.017455 -0.033280 -0.057233
v 0.047455 -0.033280 -0.057233
v 0.047455 -0.003280 -0.057233
v 0.017455 -0.003280 -0.057233
v 0.017455 -0.033280 -0.027233
v 0.047455 -0.033280 -0.027233
v 0.047455 -0.003280 -0.027233
v 0.017455 -0.003280 -0.027233
v 0.010081 0.000597 -0.084952
v 0.040081 0.000597 -0.084952
v 0.040081 0.030597 -0.084952
v 0.010081 0.030597 -0.084952
v 0.010081 0.000597 -0.054952
v 0.040081 0.000597 -0.054952
v 0.040081 0.030597 -0.054952
v 0.010081 0.030597 -0.054952
v 0.026634 -0.012247 -0.086150
v 0.056634 -0.012247 -0.086150
v 0.056634 0.017753 -0.086150
v 0.026634 0.017753 -0.086150
v 0.026634 -0.012247 -0.056150
v 0.056634 -0.012247 -0.056150
v 0.056634 0.017753 -0.056150
v 0.026634 0.017753 -0.056150
v 0.029823 -0.030692 -0.072453
v 0.059823 -0.030692 -0.072453
v 0.059823 -0.000692 -0.072453
v 0.029823 -0.000692 -0.072453
v 0.029823 -0.030692 -0.042453
v 0.059823 -0.030692 -0.042453
v 0.059823 -0.000692 -0.042453
v 0.029823 -0.000692 -0.042453
v 0.026527 -0.022261 -0.047965
v 0.056527 -0.022261 -0.047965
v 0.056527 0.007739 -0.047965
v 0.026527 0.007739 -0.047965
v 0.026527 -0.022261 -0.017965
v 0.056527 -0.022261 -0.017965
v 0.056527 0.007739 -0.017965
v 0.026527 0.007739 -0.017965
v 0.014399 0.004876 -0.079634
v 0.044399 0.004876 -0.079634
v 0.044399 0.034876 -0.079634
v 0.014399 0.034876 -0.079634
v 0.014399 0.004876 -0.049634
v 0.044399 0.004876 -0.049634
v 0.044399 0.034876 -0.049634
v 0.014399 0.034876 -0.049634
v 0.027257 -0.014288 -0.081736
v 0.057257 -0.014288 -0.081736
v 0.057257 0.015712 -0.081736
v 0.027257 0.015712 -0.081736
v 0.027257 -0.014288 -0.051736
v 0.057257 -0.014288 -0.051736
v 0.057257 0.015712 -0.051736
v 0.027257 0.015712 -0.051736
v 0.026966 -0.027814 -0.066694
v 0.056966 -0.027814 -0.066694
v 0.056966 0.002186 -0.066694
v 0.026966 0.002186 -0.066694
v 0.026966 -0.027814 -0.036694
v 0.056966 -0.027814 -0.036694
v 0.056966 0.002186 -0.036694
v 0.026966 0.002186 -0.036694
v 0.027061 -0.021527 -0.046831
v 0.057061 -0.021527 -0.046831
v 0.057061 0.008473 -0.046831
v 0.027061 0.008473 -0.046831
v 0.027061 -0.021527 -0.016831
v 0.057061 -0.021527 -0.016831
v 0.057061 0.008473 -0.016831
v 0.027061 0.008473 -0.016831
v 0.017832 -0.000485 -0.068388
v 0.047832 -0.000485 -0.068388
v 0.047832 0.029515 -0.068388
v 0.017832 0.029515 -0.068388
v 0.017832 -0.000485 -0.038388
v 0.047832 -0.000485 -0.038388
v 0.047832 0.029515 -0.038388
v 0.017832 0.029515 -0.038388
v 0.034907 0.002279 -0.074468
v 0.064907 0.002279 -0.074468
v 0.064907 0.032279 -0.074468
v 0.034907 0.032279 -0.074468
v 0.034907 0.002279 -0.044468
v 0.064907 0.002279 -0.044468
v 0.064907 0.032279 -0.044468
v 0.034907 0.032279 -0.044468
v 0.055829 0.007390 -0.072340
v 0.085829 0.007390 -0.072340
v 0.085829 0.037390 -0.072340
v 0.055829 0.037390 -0.072340
v 0.055829 0.007390 -0.042340
v 0.085829 0.007390 -0.042340
v 0.085829 0.037390 -0.042340
v 0.055829 0.037390 -0.042340
v 0.076025 0.007637 -0.077881
v 0.106025 0.007637 -0.077881
v 0.106025 0.037637 -0.077881
v 0.076025 0.037637 -0.077881
v 0.076025 0.007637 -0.047881
v 0.106025 0.007637 -0.047881
v 0.106025 0.037637 -0.047881
v 0.076025 0.037637 -0.047881
f 1 2 9
f 2 10 9
f 2 3 10
f 3 11 10
f 3 4 11
f 4 12 11
f 4 5 12
f 5 13 12
f 5 6 13
f 6 14 13
f 6 7 14
f 7 15 14
f 7 8 15
f 8 16 15
f 8 1 16
f 1 9 16
f 17 18 25
f 18 26 25
f 18 19 26
f 19 27 26
f 19 20 27
f 20 28 27
f 20 21 28
f 21 29 28
f 21 22 29
f 22 30 29
f 22 23 30
f 23 31 30
f 23 24 31
f 24 32 31
f 24 17 32
f 17 25 32
f 33 34 41
f 34 42 41
f 34 35 42
f 35 43 42
f 35 36 43
f 36 44 43
f 36 37 44
f 37 45 44
f 37 38 45
f 38 46 45
f 38 39 46
f 39 47 46
f 39 40 47
f 40 48 47
f 40 33 48
f 33 41 48
f 49 50 57
f 50 58 57
f 50 51 58
f 51 59 58
f 51 52 59
f 52 60 59
f 52 53 60
f 53 61 60
f 53 54 61
f 54 62 61
f 54 55 62
f 55 63 62
f 55 56 63
f 56 64 63
f 56 49 64
f 49 57 64
f 65 66 73
f 66 74 73
f 66 67 74
f 67 75 74
f 67 68 75
f 68 76 75
f 68 69 76
f 69 77 76
f 69 70 77
f 70 78 77
f 70 71 78
f 71 79 78
f 71 72 79
f 72 80 79
f 72 65 80
f 65 73 80
f 81 82 89
f 82 90 89
f 82 83 90
f 83 91 90
f 83 84 91
f 84 92 91
f 84 85 92
f 85 93 92
f 85 86 93
f 86 94 93
f 86 87 94
f 87 95 94
f 87 88 95
f 88 96 95
f 88 81 96
f 81 89 96
f 97 98 105
f 98 106 105
f 98 99 106
f 99 107 106
f 99 100 107
f 100 108 107
f 100 101 108
f 101 109 108
f 101 102 109
f 102 110 109
f 102 103 110
f 103 111 110
f 103 104 111
f 104 112 111
f 104 97 112
f 97 105 112
f 113 114 121
f 114 122 121
f 114 115 122
f 115 123 122
f 115 116 123
f 116 124 123
f 116 117 124
f 117 125 124
f 117 118 125
f 118 126 125
f 118 119 126
f 119 127 126
f 119 120 127
f 120 128 127
f 120 113 128
f 113 121 128
f 129 130 137
f 130 138 137
f 130 131 138
f 131 139 138
f 131 132 139
f 132 140 139
f 132 133 140
f 133 141 140
f 133 134 141
f 134 142 141
f 134 135 142
f 135 143 142
f 135 136 143
f 136 144 143
f 136 129 144
f 129 137 144
f 145 146 153
f 146 154 153
f 146 147 154
f 147 155 154
f 147 148 155
f 148 156 155
f 148 149 156
f 149 157 156
f 149 150 157
f 150 158 157
f 150 151 158
f 151 159 158
f 151 152 159
f 152 160 159
f 152 145 160
f 145 153 160
f 161 162 169
f 162 170 169
f 162 163 170
f 163 171 170
f 163 164 171
f 164 172 171
f 164 165 172
f 165 173 172
f 165 166 173
f 166 174 173
f 166 167 174
f 167 175 174
f 167 168 175
f 168 176 175
f 168 161 176
f 161 169 176
f 177 178 185
f 178 186 185
f 178 179 186
f 179 187 186
f 179 180 187
f 180 188 187
f 180 181 188
f 181 189 188
f 181 182 189
f 182 190 189
f 182 183 190
f 183 191 190
f 183 184 191
f 184 192 191
f 184 177 192
f 177 185 192
f 193 194 201
f 194 202 201
f 194 195 202
f 195 203 202
f 195 196 203
f 196 204 203
f 196 197 204
f 197 205 204
f 197 198 205
f 198 206 205
f 198 199 206
f 199 207 206
f 199 200 207
f 200 208 207
f 200 193 208
f 193 201 208
f 209 210 217
f 210 218 217
f 210 211 218
f 211 219 218
f 211 212 219
f 212 220 219
f 212 213 220
f 213 221 220
f 213 214 221
f 214 222 221
f 214 215 222
f 215 223 222
f 215 216 223
f 216 224 223
f 216 209 224
f 209 217 224
f 225 226 233
f 226 234 233
f 226 227 234
f 227 235 234
f 227 228 235
f 228 236 235
f 228 229 236
f 229 237 236
f 229 230 237
f 230 238 237
f 230 231 238
f 231 239 238
f 231 232 239
f 232 240 239
f 232 225 240
f 225 233 240
f 241 242 249
f 242 250 249
f 242 243 250
f 243 251 250
f 243 244 251
f 244 252 251
f 244 245 252
f 245 253 252
f 245 246 253
f 246 254 253
f 246 247 254
f 247 255 254
f 247 248 255
f 248 256 255
f 248 241 256
f 241 249 256
f 257 258 265
f 258 266 265
f 258 259 266
f 259 267 266
f 259 260 267
f 260 268 267
f 260 261 268
f 261 269 268
f 261 262 269
f 262 270 269
f 262 263 270
f 263 271 270
f 263 264 271
f 264 272 271
f 264 257 272
f 257 265 272
f 273 274 281
f 274 282 281
f 274 275 282
f 275 283 282
f 275 276 283
f 276 284 283
f 276 277 284
f 277 285 284
f 277 278 285
f 278 286 285
f 278 279 286
f 279 287 286
f 279 280 287
f 280 288 287
f 280 273 288
f 273 281 288
f 289 290 297
f 290 298 297
f 290 291 298
f 291 299 298
f 291 292 299
f 292 300 299
f 292 293 300
f 293 301 300
f 293 294 301
f 294 302 301
f 294 295 302
f 295 303 302
f 295 296 303
f 296 304 303
f 296 289 304
f 289 297 304
f 305 306 313
f 306 314 313
f 306 307 314
f 307 315 314
f 307 308 315
f 308 316 315
f 308 309 316
f 309 317 316
f 309 310 317
f 310 318 317
f 310 311 318
f 311 319 318
f 311 312 319
f 312 320 319
f 312 305 320
f 305 313 320
f 321 322 323
f 321 323 324
f 325 326 327
f 325 327 328
f 321 325 326
f 321 326 322
f 322 326 327
f 322 327 323
f 323 327 328
f 323 328 324
f 324 328 325
f 324 325 321
f 329 330 331
f 329 331 332
f 333 334 335
f 333 335 336
f 329 333 334
f 329 334 330
f 330 334 335
f 330 335 331
f 331 335 336
f 331 336 332
f 332 336 333
f 332 333 329
f 337 338 339
f 337 339 340
f 341 342 343
f 341 343 344
f 337 341 342
f 337 342 338
f 338 342 343
f 338 343 339
f 339 343 344
f 339 344 340
f 340 344 341
f 340 341 337
f 345 346 347
f 345 347 348
f 349 350 351
f 349 351 352
f 345 349 350
f 345 350 346
f 346 350 351
f 346 351 347
f 347 351 352
f 347 352 348
f 348 352 349
f 348 349 345
f 353 354 355
f 353 355 356
f 357 358 359
f 357 359 360
f 353 357 358
f 353 358 354
f 354 358 359
f 354 359 355
f 355 359 360
f 355 360 356
f 356 360 357
f 356 357 353
f 361 362 363
f 361 363 364
f 365 366 367
f 365 367 368
f 361 365 366
f 361 366 362
f 362 366 367
f 362 367 363
f 363 367 368
f 363 368 364
f 364 368 365
f 364 365 361
f 369 370 371
f 369 371 372
f 373 374 375
f 373 375 376
f 369 373 374
f 369 374 370
f 370 374 375
f 370 375 371
f 371 375 376
f 371 376 372
f 372 376 373
f 372 373 369
f 377 378 379
f 377 379 380
f 381 382 383
f 381 383 384
f 377 381 382
f 377 382 378
f 378 382 383
f 378 383 379
f 379 383 384
f 379 384 380
f 380 384 381
f 380 381 377
f 385 386 387
f 385 387 388
f 389 390 391
f 389 391 392
f 385 389 390
f 385 390 386
f 386 390 391
f 386 391 387
f 387 391 392
f 387 392 388
f 388 392 389
f 388 389 385
f 393 394 395
f 393 395 396
f 397 398 399
f 397 399 400
f 393 397 398
f 393 398 394
f 394 398 399
f 394 399 395
f 395 399 400
f 395 400 396
f 396 400 397
f 396 397 393
f 401 402 403
f 401 403 404
f 405 406 407
f 405 407 408
f 401 405 406
f 401 406 402
f 402 406 407
f 402 407 403
f 403 407 408
f 403 408 404
f 404 408 405
f 404 405 401
f 409 410 411
f 409 411 412
f 413 414 415
f 413 415 416
f 409 413 414
f 409 414 410
f 410 414 415
f 410 415 411
f 411 415 416
f 411 416 412
f 412 416 413
f 412 413 409
f 417 418 419
f 417 419 420
f 421 422 423
f 421 423 424
f 417 421 422
f 417 422 418
f 418 422 423
f 418 423 419
f 419 423 424
f 419 424 420
f 420 424 421
f 420 421 417
f 425 426 427
f 425 427 428
f 429 430 431
f 429 431 432
f 425 429 430
f 425 430 426
f 426 430 431
f 426 431 427
f 427 431 432
f 427 432 428
f 428 432 429
f 428 429 425
f 433 434 435
f 433 435 436
f 437 438 439
f 437 439 440
f 433 437 438
f 433 438 434
f 434 438 439
f 434 439 435
f 435 439 440
f 435 440 436
f 436 440 437
f 436 437 433
f 441 442 443
f 441 443 444
f 445 446 447
f 445 447 448
f 441 445 446
f 441 446 442
f 442 446 447
f 442 447 443
f 443 447 448
f 443 448 444
f 444 448 445
f 444 445 441
f 449 450 451
f 449 451 452
f 453 454 455
f 453 455 456
f 449 453 454
f 449 454 450
f 450 454 455
f 450 455 451
f 451 455 456
f 451 456 452
f 452 456 453
f 452 453 449
f 457 458 459
f 457 459 460
f 461 462 463
f 461 463 464
f 457 461 462
f 457 462 458
f 458 462 463
f 458 463 459
f 459 463 464
f 459 464 460
f 460 464 461
f 460 461 457
f 465 466 467
f 465 467 468
f 469 470 471
f 469 471 472
f 465 469 470
f 465 470 466
f 466 470 471
f 466 471 467
f 467 471 472
f 467 472 468
f 468 472 469
f 468 469 465
f 473 474 475
f 473 475 476
f 477 478 479
f 477 479 480
f 473 477 478
f 473 478 474
f 474 478 479
f 474 479 475
f 475 479 480
f 475 480 476
f 476 480 477
f 476 477 473
f 481 482 483
f 481 483 484
f 485 486 487
f 485 487 488
f 481 485 486
f 481 486 482
f 482 486 487
f 482 487 483
f 483 487 488
f 483 488 484
f 484 488 485
f 484 485 481
