# SignFlow 3D Hand Mesh - Frame 192
v 0.000000 -0.004672 -0.019447
v -0.012335 -0.010030 -0.012135
v -0.017444 -0.009512 0.002285
v -0.012335 -0.003422 0.015367
v -0.000000 0.004672 0.019447
v 0.012335 0.010030 0.012135
v 0.017444 0.009512 -0.002285
v 0.012335 0.003422 -0.015367
v -0.019196 0.028612 -0.027444
v -0.031531 0.023255 -0.020132
v -0.036641 0.023773 -0.005712
v -0.031531 0.029863 0.007370
v -0.019196 0.037957 0.011449
v -0.006861 0.043314 0.004138
v -0.001752 0.042796 -0.010282
v -0.006861 0.036707 -0.023364
v -0.019196 0.019976 -0.022926
v -0.033033 0.026057 -0.020500
v -0.038764 0.036372 -0.010749
v -0.033033 0.044879 0.000613
v -0.019196 0.046594 0.006932
v -0.005360 0.040512 0.004505
v 0.000371 0.030197 -0.005245
v -0.005360 0.021691 -0.016607
v -0.015303 0.033724 -0.035182
v -0.029140 0.039805 -0.032756
v -0.034871 0.050120 -0.023006
v -0.029140 0.058627 -0.011643
v -0.015303 0.060342 -0.005324
v -0.001467 0.054260 -0.007751
v 0.004264 0.043945 -0.017501
v -0.001467 0.035439 -0.028863
v -0.015303 0.030716 -0.031819
v -0.029203 0.033988 -0.026306
v -0.034961 0.044902 -0.017248
v -0.029203 0.057064 -0.009950
v -0.015303 0.063349 -0.008688
v -0.001403 0.060077 -0.014200
v 0.004355 0.049163 -0.023259
v -0.001403 0.037001 -0.030557
v -0.023176 0.055010 -0.066094
v -0.037077 0.058283 -0.060582
v -0.042834 0.069197 -0.051523
v -0.037077 0.081359 -0.044226
v -0.023176 0.087644 -0.042963
v -0.009276 0.084371 -0.048476
v -0.003519 0.073457 -0.057534
v -0.009276 0.061296 -0.064832
v -0.023176 0.053382 -0.063359
v -0.034936 0.055169 -0.053724
v -0.039807 0.066422 -0.044560
v -0.034936 0.080548 -0.041236
v -0.023176 0.089272 -0.045699
v -0.011417 0.087485 -0.055334
v -0.006546 0.076232 -0.064497
v -0.011417 0.062106 -0.067821
v -0.029753 0.057728 -0.072192
v -0.041513 0.059516 -0.062557
v -0.046384 0.070768 -0.053393
v -0.041513 0.084894 -0.050069
v -0.029753 0.093619 -0.054532
v -0.017994 0.091831 -0.064167
v -0.013123 0.080579 -0.073331
v -0.017994 0.066453 -0.076655
v 0.000000 -0.016444 -0.011384
v -0.013328 -0.014320 -0.004161
v -0.018848 -0.003807 0.005499
v -0.013328 0.008936 0.011938
v -0.000000 0.016444 0.011384
v 0.013328 0.014320 0.004161
v 0.018848 0.003807 -0.005499
v 0.013328 -0.008936 -0.011938
v -0.029692 0.031182 -0.080180
v -0.043020 0.033306 -0.072957
v -0.048541 0.043819 -0.063297
v -0.043020 0.056562 -0.056858
v -0.029692 0.064070 -0.057412
v -0.016365 0.061946 -0.064635
v -0.010844 0.051433 -0.074295
v -0.016365 0.038690 -0.080734
v -0.029692 0.033582 -0.083036
v -0.043314 0.040403 -0.081535
v -0.048956 0.051455 -0.072572
v -0.043314 0.060264 -0.061397
v -0.029692 0.061670 -0.054557
v -0.016071 0.054849 -0.056057
v -0.010429 0.043797 -0.065020
v -0.016071 0.034988 -0.076195
v -0.024716 0.046274 -0.095553
v -0.038338 0.053095 -0.094053
v -0.043980 0.064147 -0.085090
v -0.038338 0.072956 -0.073915
v -0.024716 0.074362 -0.067074
v -0.011095 0.067541 -0.068575
v -0.005453 0.056489 -0.077538
v -0.011095 0.047680 -0.088713
v -0.024716 0.060842 -0.101307
v -0.035635 0.069673 -0.095216
v -0.040158 0.073024 -0.080981
v -0.035635 0.068932 -0.066941
v -0.024716 0.059794 -0.061321
v -0.013797 0.050963 -0.067412
v -0.009275 0.047612 -0.081647
v -0.013797 0.051704 -0.095687
v -0.014211 0.073599 -0.100973
v -0.025130 0.082430 -0.094882
v -0.029653 0.085782 -0.080647
v -0.025130 0.081690 -0.066607
v -0.014211 0.072552 -0.060987
v -0.003293 0.063720 -0.067078
v 0.001230 0.060369 -0.081313
v -0.003293 0.064461 -0.095352
v -0.014211 0.072427 -0.100969
v -0.025128 0.081603 -0.095406
v -0.029650 0.085783 -0.081392
v -0.025128 0.082519 -0.067136
v -0.014211 0.073723 -0.060990
v -0.003295 0.064548 -0.066554
v 0.001227 0.060368 -0.080568
v -0.003295 0.063631 -0.094823
v 0.003800 0.094287 -0.101678
v -0.007116 0.103462 -0.096114
v -0.011638 0.107642 -0.082100
v -0.007116 0.104378 -0.067845
v 0.003800 0.095582 -0.061699
v 0.014717 0.086407 -0.067262
v 0.019239 0.082227 -0.081276
v 0.014717 0.085490 -0.095532
v 0.000000 -0.017246 -0.010128
v -0.013750 -0.013870 -0.004308
v -0.019445 -0.002370 0.004035
v -0.013750 0.010519 0.010015
v -0.000000 0.017246 0.010128
v 0.013750 0.013870 0.004308
v 0.019445 0.002370 -0.004035
v 0.013750 -0.010519 -0.010015
v -0.020093 0.025035 -0.082123
v -0.033843 0.028410 -0.076304
v -0.039538 0.039911 -0.067960
v -0.033843 0.052800 -0.061980
v -0.020093 0.059527 -0.061867
v -0.006344 0.056151 -0.067687
v -0.000649 0.044651 -0.076031
v -0.006344 0.031762 -0.082010
v -0.020093 0.026330 -0.084060
v -0.027343 0.038327 -0.090211
v -0.030345 0.052640 -0.085691
v -0.027343 0.060885 -0.073149
v -0.020093 0.058232 -0.059930
v -0.012844 0.046235 -0.053780
v -0.009841 0.031921 -0.058299
v -0.012844 0.023676 -0.070842
v 0.015022 0.038976 -0.100780
v 0.007773 0.050973 -0.106931
v 0.004770 0.065286 -0.102411
v 0.007773 0.073531 -0.089868
v 0.015022 0.070878 -0.076650
v 0.022271 0.058881 -0.070499
v 0.025274 0.044568 -0.075019
v 0.022271 0.036323 -0.087562
v 0.015022 0.062100 -0.107385
v 0.004355 0.068666 -0.098587
v -0.000063 0.067185 -0.084006
v 0.004355 0.058523 -0.072184
v 0.015022 0.047755 -0.070045
v 0.025689 0.041188 -0.078844
v 0.030107 0.042669 -0.093424
v 0.025689 0.051331 -0.105246
v 0.032806 0.081171 -0.100058
v 0.022139 0.087738 -0.091260
v 0.017721 0.086256 -0.076679
v 0.022139 0.077594 -0.064857
v 0.032806 0.066826 -0.062719
v 0.043473 0.060259 -0.071517
v 0.047891 0.061740 -0.086097
v 0.043473 0.070402 -0.097920
v 0.032806 0.087180 -0.096430
v 0.022122 0.090288 -0.085917
v 0.017697 0.083854 -0.072752
v 0.022122 0.071646 -0.064645
v 0.032806 0.060817 -0.066347
v 0.043490 0.057709 -0.076859
v 0.047915 0.064143 -0.090025
v 0.043490 0.076350 -0.098131
v 0.050277 0.102330 -0.083153
v 0.039593 0.105438 -0.072641
v 0.035168 0.099004 -0.059475
v 0.039593 0.086796 -0.051369
v 0.050277 0.075967 -0.053070
v 0.060961 0.072859 -0.063583
v 0.065386 0.079293 -0.076748
v 0.060961 0.091500 -0.084855
v 0.000000 -0.018076 -0.008559
v -0.014140 -0.012882 -0.005840
v -0.019997 -0.000142 0.000299
v -0.014140 0.012682 0.006264
v -0.000000 0.018076 0.008559
v 0.014140 0.012882 0.005840
v 0.019997 0.000142 -0.000299
v 0.014140 -0.012682 -0.006264
v -0.001343 0.016598 -0.081793
v -0.015483 0.021792 -0.079074
v -0.021340 0.034533 -0.072935
v -0.015483 0.047356 -0.066971
v -0.001343 0.052751 -0.064676
v 0.012798 0.047556 -0.067394
v 0.018655 0.034816 -0.073534
v 0.012798 0.021993 -0.079498
v -0.001343 0.028850 -0.092367
v -0.009278 0.041755 -0.090172
v -0.012564 0.050512 -0.078055
v -0.009278 0.049992 -0.063114
v -0.001343 0.040499 -0.054101
v 0.006592 0.027594 -0.056296
v 0.009879 0.018837 -0.068413
v 0.006592 0.019357 -0.083354
v 0.022907 0.044575 -0.097154
v 0.014972 0.057480 -0.094959
v 0.011685 0.066237 -0.082842
v 0.014972 0.065716 -0.067901
v 0.022907 0.056223 -0.058888
v 0.030842 0.043318 -0.061083
v 0.034129 0.034561 -0.073200
v 0.030842 0.035082 -0.088141
v 0.022907 0.060002 -0.095565
v 0.013929 0.066774 -0.085180
v 0.010210 0.063954 -0.070602
v 0.013929 0.053194 -0.060369
v 0.022907 0.040797 -0.060477
v 0.031885 0.034024 -0.070862
v 0.035604 0.036844 -0.085440
v 0.031885 0.047604 -0.095672
v 0.044380 0.075479 -0.087093
v 0.035402 0.082251 -0.076709
v 0.031683 0.079432 -0.062130
v 0.035402 0.068671 -0.051898
v 0.044380 0.056274 -0.052005
v 0.053358 0.049501 -0.062390
v 0.057077 0.052321 -0.076969
v 0.053358 0.063082 -0.087201
v 0.044380 0.078659 -0.084931
v 0.035451 0.083349 -0.073417
v 0.031752 0.077804 -0.059637
v 0.035451 0.065272 -0.051664
v 0.044380 0.053094 -0.054168
v 0.053310 0.048403 -0.065682
v 0.057009 0.053949 -0.079462
v 0.053310 0.066481 -0.087435
v 0.059662 0.088229 -0.076979
v 0.050732 0.092919 -0.065464
v 0.047033 0.087374 -0.051684
v 0.050732 0.074842 -0.043711
v 0.059662 0.062663 -0.046215
v 0.068591 0.057973 -0.057729
v 0.072290 0.063518 -0.071509
v 0.068591 0.076051 -0.079482
v 0.000000 -0.018710 -0.007065
v -0.013897 -0.012304 -0.007450
v -0.019653 0.001311 -0.003471
v -0.013897 0.014157 0.002542
v -0.000000 0.018710 0.007065
v 0.013897 0.012304 0.007450
v 0.019653 -0.001311 0.003471
v 0.013897 -0.014157 -0.002542
v 0.012493 0.004669 -0.068978
v -0.001404 0.011076 -0.069362
v -0.007160 0.024690 -0.065383
v -0.001404 0.037536 -0.059370
v 0.012493 0.042090 -0.054847
v 0.026389 0.035683 -0.054462
v 0.032146 0.022069 -0.058441
v 0.026389 0.009222 -0.064454
v 0.012493 0.016591 -0.080725
v 0.004758 0.029716 -0.079233
v 0.001554 0.039129 -0.067595
v 0.004758 0.039316 -0.052628
v 0.012493 0.030167 -0.043099
v 0.020227 0.017042 -0.044591
v 0.023431 0.007629 -0.056230
v 0.020227 0.007443 -0.071197
v 0.029501 0.027044 -0.084496
v 0.021767 0.040169 -0.083004
v 0.018563 0.049581 -0.071366
v 0.021767 0.049768 -0.056399
v 0.029501 0.040619 -0.046870
v 0.037236 0.027494 -0.048362
v 0.040440 0.018082 -0.060001
v 0.037236 0.017895 -0.074968
v 0.029501 0.043365 -0.083265
v 0.020217 0.049950 -0.073031
v 0.016371 0.047094 -0.058492
v 0.020217 0.036468 -0.048166
v 0.029501 0.024298 -0.048102
v 0.038786 0.017713 -0.058336
v 0.042632 0.020570 -0.072875
v 0.038786 0.031195 -0.083200
v 0.048119 0.057609 -0.075541
v 0.038834 0.064195 -0.065307
v 0.034988 0.061338 -0.050768
v 0.038834 0.050712 -0.040443
v 0.048119 0.038542 -0.040378
v 0.057403 0.031957 -0.050612
v 0.061249 0.034814 -0.065151
v 0.057403 0.045439 -0.075477
v 0.048119 0.054362 -0.076946
v 0.034065 0.054020 -0.070889
v 0.028244 0.050196 -0.057258
v 0.034065 0.045130 -0.044038
v 0.048119 0.041790 -0.038973
v 0.062172 0.042132 -0.045030
v 0.067994 0.045956 -0.058661
v 0.062172 0.051022 -0.071881
v 0.049911 0.069502 -0.071933
v 0.035857 0.069160 -0.065876
v 0.030036 0.065336 -0.052245
v 0.035857 0.060271 -0.039025
v 0.049911 0.056931 -0.033960
v 0.063964 0.057273 -0.040018
v 0.069786 0.061097 -0.053649
v 0.063964 0.066162 -0.066869
v -0.015000 -0.015000 -0.015000
v 0.015000 -0.015000 -0.015000
v 0.015000 0.015000 -0.015000
v -0.015000 0.015000 -0.015000
v -0.015000 -0.015000 0.015000
v 0.015000 -0.015000 0.015000
v 0.015000 0.015000 0.015000
v -0.015000 0.015000 0.015000
v -0.034196 0.018285 -0.022997
v -0.004196 0.018285 -0.022997
v -0.004196 0.048285 -0.022997
v -0.034196 0.048285 -0.022997
v -0.034196 0.018285 0.007003
v -0.004196 0.018285 0.007003
v -0.004196 0.048285 0.007003
v -0.034196 0.048285 0.007003
v -0.030303 0.032033 -0.035253
v -0.000303 0.032033 -0.035253
v -0.000303 0.062033 -0.035253
v -0.030303 0.062033 -0.035253
v -0.030303 0.032033 -0.005253
v -0.000303 0.032033 -0.005253
v -0.000303 0.062033 -0.005253
v -0.030303 0.062033 -0.005253
v -0.038176 0.056327 -0.069529
v -0.008176 0.056327 -0.069529
v -0.008176 0.086327 -0.069529
v -0.038176 0.086327 -0.069529
v -0.038176 0.056327 -0.039529
v -0.008176 0.056327 -0.039529
v -0.008176 0.086327 -0.039529
v -0.038176 0.086327 -0.039529
v -0.044753 0.060674 -0.078362
v -0.014753 0.060674 -0.078362
v -0.014753 0.090674 -0.078362
v -0.044753 0.090674 -0.078362
v -0.044753 0.060674 -0.048362
v -0.014753 0.060674 -0.048362
v -0.014753 0.090674 -0.048362
v -0.044753 0.090674 -0.048362
v -0.044692 0.032626 -0.083796
v -0.014692 0.032626 -0.083796
v -0.014692 0.062626 -0.083796
v -0.044692 0.062626 -0.083796
v -0.044692 0.032626 -0.053796
v -0.014692 0.032626 -0.053796
v -0.014692 0.062626 -0.053796
v -0.044692 0.062626 -0.053796
v -0.039716 0.045318 -0.096314
v -0.009716 0.045318 -0.096314
v -0.009716 0.075318 -0.096314
v -0.039716 0.075318 -0.096314
v -0.039716 0.045318 -0.066314
v -0.009716 0.045318 -0.066314
v -0.009716 0.075318 -0.066314
v -0.039716 0.075318 -0.066314
v -0.029211 0.058075 -0.095980
v 0.000789 0.058075 -0.095980
v 0.000789 0.088075 -0.095980
v -0.029211 0.088075 -0.095980
v -0.029211 0.058075 -0.065980
v 0.000789 0.058075 -0.065980
v 0.000789 0.088075 -0.065980
v -0.029211 0.088075 -0.065980
v -0.011200 0.079934 -0.096688
v 0.018800 0.079934 -0.096688
v 0.018800 0.109934 -0.096688
v -0.011200 0.109934 -0.096688
v -0.011200 0.079934 -0.066688
v 0.018800 0.079934 -0.066688
v 0.018800 0.109934 -0.066688
v -0.011200 0.109934 -0.066688
v -0.035093 0.027281 -0.086995
v -0.005093 0.027281 -0.086995
v -0.005093 0.057281 -0.086995
v -0.035093 0.057281 -0.086995
v -0.035093 0.027281 -0.056995
v -0.005093 0.027281 -0.056995
v -0.005093 0.057281 -0.056995
v -0.035093 0.057281 -0.056995
v 0.000022 0.039927 -0.103715
v 0.030022 0.039927 -0.103715
v 0.030022 0.069927 -0.103715
v 0.000022 0.069927 -0.103715
v 0.000022 0.039927 -0.073715
v 0.030022 0.039927 -0.073715
v 0.030022 0.069927 -0.073715
v 0.000022 0.069927 -0.073715
v 0.017806 0.058998 -0.096388
v 0.047806 0.058998 -0.096388
v 0.047806 0.088998 -0.096388
v 0.017806 0.088998 -0.096388
v 0.017806 0.058998 -0.066388
v 0.047806 0.058998 -0.066388
v 0.047806 0.088998 -0.066388
v 0.017806 0.088998 -0.066388
v 0.035277 0.074148 -0.083112
v 0.065277 0.074148 -0.083112
v 0.065277 0.104148 -0.083112
v 0.035277 0.104148 -0.083112
v 0.035277 0.074148 -0.053112
v 0.065277 0.074148 -0.053112
v 0.065277 0.104148 -0.053112
v 0.035277 0.104148 -0.053112
v -0.016343 0.019674 -0.088234
v 0.013657 0.019674 -0.088234
v 0.013657 0.049674 -0.088234
v -0.016343 0.049674 -0.088234
v -0.016343 0.019674 -0.058234
v 0.013657 0.019674 -0.058234
v 0.013657 0.049674 -0.058234
v -0.016343 0.049674 -0.058234
v 0.007907 0.035399 -0.093021
v 0.037907 0.035399 -0.093021
v 0.037907 0.065399 -0.093021
v 0.007907 0.065399 -0.093021
v 0.007907 0.035399 -0.063021
v 0.037907 0.035399 -0.063021
v 0.037907 0.065399 -0.063021
v 0.007907 0.065399 -0.063021
v 0.029380 0.050876 -0.084549
v 0.059380 0.050876 -0.084549
v 0.059380 0.080876 -0.084549
v 0.029380 0.080876 -0.084549
v 0.029380 0.050876 -0.054549
v 0.059380 0.050876 -0.054549
v 0.059380 0.080876 -0.054549
v 0.029380 0.080876 -0.054549
v 0.044661 0.060446 -0.076597
v 0.074662 0.060446 -0.076597
v 0.074662 0.090446 -0.076597
v 0.044661 0.090446 -0.076597
v 0.044661 0.060446 -0.046597
v 0.074662 0.060446 -0.046597
v 0.074662 0.090446 -0.046597
v 0.044661 0.090446 -0.046597
v -0.002507 0.008379 -0.076912
v 0.027493 0.008379 -0.076912
v 0.027493 0.038379 -0.076912
v -0.002507 0.038379 -0.076912
v -0.002507 0.008379 -0.046912
v 0.027493 0.008379 -0.046912
v 0.027493 0.038379 -0.046912
v -0.002507 0.038379 -0.046912
v 0.014501 0.018832 -0.080683
v 0.044501 0.018832 -0.080683
v 0.044501 0.048832 -0.080683
v 0.014501 0.048832 -0.080683
v 0.014501 0.018832 -0.050683
v 0.044501 0.018832 -0.050683
v 0.044501 0.048832 -0.050683
v 0.014501 0.048832 -0.050683
v 0.033119 0.033076 -0.072960
v 0.063119 0.033076 -0.072960
v 0.063119 0.063076 -0.072960
v 0.033119 0.063076 -0.072960
v 0.033119 0.033076 -0.042960
v 0.063119 0.033076 -0.042960
v 0.063119 0.063076 -0.042960
v 0.033119 0.063076 -0.042960
v 0.034911 0.048217 -0.067947
v 0.064911 0.048217 -0.067947
v 0.064911 0.078217 -0.067947
v 0.034911 0.078217 -0.067947
v 0.034911 0.048217 -0.037947
v 0.064911 0.048217 -0.037947
v 0.064911 0.078217 -0.037947
v 0.034911 0.078217 -0.037947
v 0.000000 -0.019985 -0.000766
v -0.011328 -0.013807 -0.009002
v -0.016020 0.000459 -0.011965
v -0.011328 0.014456 -0.007918
v -0.000000 0.019985 0.000766
v 0.011328 0.013807 0.009002
v 0.016020 -0.000459 0.011965
v 0.011328 -0.014456 0.007918
v 0.018433 -0.019040 -0.025411
v 0.007105 -0.012862 -0.033647
v 0.002413 0.001404 -0.036609
v 0.007105 0.015401 -0.032563
v 0.018433 0.020930 -0.023878
v 0.029761 0.014752 -0.015642
v 0.034453 0.000486 -0.012680
v 0.029761 -0.013511 -0.016726
v 0.018433 -0.015465 -0.036078
v 0.009341 -0.004466 -0.041617
v 0.005575 0.009702 -0.037214
v 0.009341 0.018741 -0.025448
v 0.018433 0.017355 -0.013211
v 0.027524 0.006356 -0.007672
v 0.031290 -0.007813 -0.012075
v 0.027524 -0.016851 -0.023841
v 0.032587 -0.008674 -0.045825
v 0.023496 0.002325 -0.051364
v 0.019730 0.016494 -0.046961
v 0.023496 0.025532 -0.035195
v 0.032587 0.024146 -0.022958
v 0.041679 0.013147 -0.017419
v 0.045445 -0.001021 -0.021822
v 0.041679 -0.010060 -0.033588
v 0.032587 -0.011729 -0.038985
v 0.018790 -0.005315 -0.040660
v 0.013075 0.008744 -0.038663
v 0.018790 0.022213 -0.034164
v 0.032587 0.027202 -0.029798
v 0.046385 0.020787 -0.028123
v 0.052100 0.006728 -0.030120
v 0.046385 -0.006741 -0.034619
v 0.039034 -0.005146 -0.066882
v 0.025237 0.001268 -0.068557
v 0.019522 0.015327 -0.066560
v 0.025237 0.028796 -0.062061
v 0.039034 0.033785 -0.057695
v 0.052832 0.027371 -0.056020
v 0.058547 0.013311 -0.058017
v 0.052832 -0.000157 -0.062516
v 0.039034 -0.004226 -0.069775
v 0.025851 0.003122 -0.072329
v 0.020390 0.017029 -0.069001
v 0.025851 0.029349 -0.061740
v 0.039034 0.032865 -0.054801
v 0.052218 0.025517 -0.052247
v 0.057678 0.011609 -0.055576
v 0.052218 -0.000711 -0.062836
v 0.047340 0.003781 -0.089610
v 0.034156 0.011130 -0.092164
v 0.028696 0.025037 -0.088836
v 0.034156 0.037357 -0.081575
v 0.047340 0.040873 -0.074636
v 0.060523 0.033525 -0.072082
v 0.065984 0.019617 -0.075410
v 0.060523 0.007297 -0.082671
v 0.000000 -0.019881 -0.002175
v -0.013278 -0.013529 -0.006376
v -0.018778 0.000748 -0.006842
v -0.013278 0.014587 -0.003301
v -0.000000 0.019881 0.002175
v 0.013278 0.013529 0.006376
v 0.018778 -0.000748 0.006842
v 0.013278 -0.014587 0.003301
v 0.030786 -0.010749 -0.085666
v 0.017507 -0.004397 -0.089867
v 0.012007 0.009881 -0.090333
v 0.017507 0.023720 -0.086791
v 0.030786 0.029014 -0.081316
v 0.044064 0.022661 -0.077115
v 0.049564 0.008384 -0.076649
v 0.044064 -0.005455 -0.080190
v 0.030786 -0.006273 -0.096246
v 0.016765 -0.000582 -0.093934
v 0.010957 0.010799 -0.085504
v 0.016765 0.021204 -0.075895
v 0.030786 0.024537 -0.070736
v 0.044806 0.018846 -0.073048
v 0.050614 0.007465 -0.081478
v 0.044806 -0.002939 -0.091086
v 0.032802 0.003481 -0.108026
v 0.018781 0.009171 -0.105713
v 0.012973 0.020553 -0.097284
v 0.018781 0.030957 -0.087675
v 0.032802 0.034291 -0.082516
v 0.046822 0.028600 -0.084828
v 0.052630 0.017219 -0.093257
v 0.046822 0.006814 -0.102866
v 0.032802 0.027579 -0.113283
v 0.020804 0.031775 -0.104753
v 0.015834 0.028421 -0.090669
v 0.020804 0.019481 -0.079280
v 0.032802 0.010192 -0.077259
v 0.044800 0.005996 -0.085789
v 0.049769 0.009350 -0.099873
v 0.044800 0.018290 -0.111261
v 0.041546 0.040200 -0.107191
v 0.029548 0.044396 -0.098662
v 0.024579 0.041042 -0.084577
v 0.029548 0.032102 -0.073189
v 0.041546 0.022814 -0.071167
v 0.053544 0.018617 -0.079697
v 0.058514 0.021971 -0.093781
v 0.053544 0.030911 -0.105170
v 0.041546 0.046363 -0.102569
v 0.027803 0.044245 -0.096169
v 0.022111 0.034665 -0.085675
v 0.027803 0.023235 -0.077233
v 0.041546 0.016650 -0.075789
v 0.055289 0.018768 -0.082189
v 0.060982 0.028348 -0.092684
v 0.055289 0.039778 -0.101126
v 0.046563 0.060198 -0.087219
v 0.032820 0.058080 -0.080819
v 0.027127 0.048500 -0.070325
v 0.032820 0.037070 -0.061883
v 0.046563 0.030485 -0.060439
v 0.060306 0.032603 -0.066839
v 0.065998 0.042183 -0.077334
v 0.060306 0.053613 -0.085775
v 0.000000 -0.019780 -0.002955
v -0.013760 -0.013504 -0.005319
v -0.019460 0.000682 -0.004567
v -0.013760 0.014469 -0.001139
v -0.000000 0.019780 0.002955
v 0.013760 0.013504 0.005319
v 0.019460 -0.000682 0.004567
v 0.013760 -0.014469 0.001139
v 0.019813 -0.007442 -0.085535
v 0.006053 -0.001166 -0.087899
v 0.000353 0.013021 -0.087147
v 0.006053 0.026808 -0.083719
v 0.019813 0.032119 -0.079624
v 0.033573 0.025843 -0.077261
v 0.039273 0.011656 -0.078013
v 0.033573 -0.002131 -0.081440
v 0.019813 -0.004196 -0.093831
v 0.006706 0.003635 -0.094927
v 0.001277 0.016565 -0.088790
v 0.006706 0.027019 -0.079015
v 0.019813 0.028873 -0.071328
v 0.032920 0.021042 -0.070232
v 0.038349 0.008112 -0.076369
v 0.032920 -0.002342 -0.086144
v 0.028628 0.008041 -0.111815
v 0.015522 0.015873 -0.112911
v 0.010093 0.028802 -0.106773
v 0.015522 0.039256 -0.096998
v 0.028628 0.041111 -0.089311
v 0.041735 0.033280 -0.088215
v 0.047164 0.020350 -0.094353
v 0.041735 0.009896 -0.104128
v 0.028628 0.019554 -0.119922
v 0.019446 0.031436 -0.116953
v 0.015642 0.039299 -0.104383
v 0.019446 0.038538 -0.089575
v 0.028628 0.029598 -0.081204
v 0.037811 0.017716 -0.084173
v 0.041614 0.009853 -0.096743
v 0.037811 0.010614 -0.111551
v 0.044499 0.032669 -0.123324
v 0.035316 0.044551 -0.120355
v 0.031513 0.052414 -0.107785
v 0.035316 0.051653 -0.092977
v 0.044499 0.042713 -0.084606
v 0.053681 0.030831 -0.087575
v 0.057485 0.022967 -0.100146
v 0.053681 0.023729 -0.114953
v 0.044499 0.045776 -0.122258
v 0.033133 0.051105 -0.113499
v 0.028425 0.048577 -0.099154
v 0.033133 0.039672 -0.087628
v 0.044499 0.029606 -0.085672
v 0.055864 0.024277 -0.094432
v 0.060572 0.026805 -0.108776
v 0.055864 0.035710 -0.120302
v 0.061630 0.066937 -0.112906
v 0.050264 0.072267 -0.104146
v 0.045556 0.069738 -0.089802
v 0.050264 0.060833 -0.078276
v 0.061630 0.050768 -0.076320
v 0.072995 0.045439 -0.085079
v 0.077703 0.047967 -0.099424
v 0.072995 0.056872 -0.110950
v 0.000000 -0.019714 -0.003373
v -0.014068 -0.013695 -0.003814
v -0.019895 0.000346 -0.002021
v -0.014068 0.014184 0.000956
v -0.000000 0.019714 0.003373
v 0.014068 0.013695 0.003814
v 0.019895 -0.000346 0.002021
v 0.014068 -0.014184 -0.000956
v 0.008259 -0.006200 -0.082365
v -0.005808 -0.000182 -0.082806
v -0.011635 0.013859 -0.081013
v -0.005808 0.027698 -0.078037
v 0.008259 0.033227 -0.075620
v 0.022327 0.027209 -0.075179
v 0.028154 0.013168 -0.076971
v 0.022327 -0.000670 -0.079948
v 0.008259 -0.004309 -0.088068
v -0.005144 0.002958 -0.089429
v -0.010696 0.016408 -0.084677
v -0.005144 0.028163 -0.076595
v 0.008259 0.031336 -0.069917
v 0.021663 0.024069 -0.068555
v 0.027215 0.010619 -0.073308
v 0.021663 -0.001136 -0.081390
v 0.015354 0.005257 -0.106853
v 0.001950 0.012524 -0.108214
v -0.003602 0.025974 -0.103462
v 0.001950 0.037729 -0.095380
v 0.015354 0.040902 -0.088702
v 0.028757 0.033635 -0.087340
v 0.034309 0.020185 -0.092093
v 0.028757 0.008430 -0.100175
v 0.015354 0.018062 -0.117138
v 0.005097 0.028956 -0.113910
v 0.000848 0.036408 -0.101232
v 0.005097 0.036052 -0.086530
v 0.015354 0.028097 -0.078417
v 0.025611 0.017202 -0.081645
v 0.029859 0.009751 -0.094323
v 0.025611 0.010106 -0.109025
v 0.033581 0.036650 -0.121955
v 0.023324 0.047544 -0.118727
v 0.019076 0.054996 -0.106049
v 0.023324 0.054640 -0.091348
v 0.033581 0.046685 -0.083235
v 0.043838 0.035791 -0.086462
v 0.048087 0.028339 -0.099141
v 0.043838 0.028695 -0.113842
v 0.033581 0.052511 -0.119400
v 0.022278 0.056476 -0.109871
v 0.017596 0.051767 -0.096079
v 0.022278 0.041142 -0.086104
v 0.033581 0.030824 -0.085789
v 0.044885 0.026859 -0.095319
v 0.049567 0.031568 -0.109111
v 0.044885 0.042193 -0.119086
v 0.048323 0.068985 -0.108771
v 0.037019 0.072951 -0.099241
v 0.032337 0.068242 -0.085449
v 0.037019 0.057616 -0.075474
v 0.048323 0.047299 -0.075160
v 0.059626 0.043333 -0.084690
v 0.064308 0.048043 -0.098482
v 0.059626 0.058668 -0.108456
v 0.000000 -0.019597 -0.003996
v -0.014132 -0.013963 -0.002305
v -0.019986 -0.000150 0.000736
v -0.014132 0.013751 0.003346
v -0.000000 0.019597 0.003996
v 0.014132 0.013963 0.002305
v 0.019986 0.000150 -0.000736
v 0.014132 -0.013751 -0.003346
v -0.002614 -0.005699 -0.072150
v -0.016746 -0.000065 -0.070459
v -0.022600 0.013748 -0.067418
v -0.016746 0.027649 -0.064807
v -0.002614 0.033495 -0.064157
v 0.011518 0.027861 -0.065848
v 0.017372 0.014048 -0.068889
v 0.011518 0.000147 -0.071500
v -0.002614 0.001425 -0.083788
v -0.015433 0.000410 -0.075484
v -0.020743 0.007296 -0.062887
v -0.015433 0.018049 -0.053374
v -0.002614 0.026371 -0.052519
v 0.010205 0.027386 -0.060823
v 0.015515 0.020500 -0.073421
v 0.010205 0.009747 -0.082933
v -0.011468 0.016282 -0.095640
v -0.024287 0.015267 -0.087336
v -0.029597 0.022152 -0.074739
v -0.024287 0.032906 -0.065226
v -0.011468 0.041227 -0.064371
v 0.001352 0.042242 -0.072675
v 0.006662 0.035357 -0.085273
v 0.001352 0.024604 -0.094785
v -0.011468 0.015695 -0.095153
v -0.024959 0.022732 -0.093485
v -0.030547 0.033296 -0.083921
v -0.024959 0.041200 -0.072063
v -0.011468 0.041814 -0.064858
v 0.002024 0.034777 -0.066526
v 0.007612 0.024213 -0.076090
v 0.002024 0.016309 -0.087948
v -0.007138 0.026128 -0.104148
v -0.020630 0.033165 -0.102480
v -0.026218 0.043729 -0.092915
v -0.020630 0.051633 -0.081057
v -0.007138 0.052247 -0.073852
v 0.006353 0.045210 -0.075520
v 0.011942 0.034646 -0.085084
v 0.006353 0.026742 -0.096942
v -0.007138 0.032245 -0.107756
v -0.019809 0.040170 -0.104443
v -0.025057 0.047519 -0.092084
v -0.019809 0.049988 -0.077918
v -0.007138 0.046130 -0.070244
v 0.005532 0.038205 -0.073556
v 0.010780 0.030856 -0.085916
v 0.005532 0.028387 -0.100082
v -0.000606 0.044601 -0.112330
v -0.013276 0.052526 -0.109017
v -0.018524 0.059875 -0.096658
v -0.013276 0.062344 -0.082492
v -0.000606 0.058486 -0.074817
v 0.012065 0.050562 -0.078130
v 0.017313 0.043212 -0.090490
v 0.012065 0.040743 -0.104656
v -0.015000 -0.015000 -0.015000
v 0.015000 -0.015000 -0.015000
v 0.015000 0.015000 -0.015000
v -0.015000 0.015000 -0.015000
v -0.015000 -0.015000 0.015000
v 0.015000 -0.015000 0.015000
v 0.015000 0.015000 0.015000
v -0.015000 0.015000 0.015000
v 0.003433 -0.014055 -0.039644
v 0.033433 -0.014055 -0.039644
v 0.033433 0.015945 -0.039644
v 0.003433 0.015945 -0.039644
v 0.003433 -0.014055 -0.009644
v 0.033433 -0.014055 -0.009644
v 0.033433 0.015945 -0.009644
v 0.003433 0.015945 -0.009644
v 0.017587 -0.007264 -0.049392
v 0.047587 -0.007264 -0.049392
v 0.047587 0.022736 -0.049392
v 0.017587 0.022736 -0.049392
v 0.017587 -0.007264 -0.019392
v 0.047587 -0.007264 -0.019392
v 0.047587 0.022736 -0.019392
v 0.017587 0.022736 -0.019392
v 0.024034 -0.000681 -0.077288
v 0.054034 -0.000681 -0.077288
v 0.054034 0.029319 -0.077288
v 0.024034 0.029319 -0.077288
v 0.024034 -0.000681 -0.047288
v 0.054034 -0.000681 -0.047288
v 0.054034 0.029319 -0.047288
v 0.024034 0.029319 -0.047288
v 0.032340 0.007327 -0.097123
v 0.062340 0.007327 -0.097123
v 0.062340 0.037327 -0.097123
v 0.032340 0.037327 -0.097123
v 0.032340 0.007327 -0.067123
v 0.062340 0.007327 -0.067123
v 0.062340 0.037327 -0.067123
v 0.032340 0.037327 -0.067123
v 0.015786 -0.005868 -0.098491
v 0.045786 -0.005868 -0.098491
v 0.045786 0.024132 -0.098491
v 0.015786 0.024132 -0.098491
v 0.015786 -0.005868 -0.068491
v 0.045786 -0.005868 -0.068491
v 0.045786 0.024132 -0.068491
v 0.015786 0.024132 -0.068491
v 0.017802 0.003886 -0.110271
v 0.047802 0.003886 -0.110271
v 0.047802 0.033886 -0.110271
v 0.017802 0.033886 -0.110271
v 0.017802 0.003886 -0.080271
v 0.047802 0.003886 -0.080271
v 0.047802 0.033886 -0.080271
v 0.017802 0.033886 -0.080271
v 0.026546 0.016507 -0.104179
v 0.056546 0.016507 -0.104179
v 0.056546 0.046507 -0.104179
v 0.026546 0.046507 -0.104179
v 0.026546 0.016507 -0.074179
v 0.056546 0.016507 -0.074179
v 0.056546 0.046507 -0.074179
v 0.026546 0.046507 -0.074179
v 0.031563 0.030342 -0.088829
v 0.061563 0.030342 -0.088829
v 0.061563 0.060342 -0.088829
v 0.031563 0.060342 -0.088829
v 0.031563 0.030342 -0.058829
v 0.061563 0.030342 -0.058829
v 0.061563 0.060342 -0.058829
v 0.031563 0.060342 -0.058829
v 0.004813 -0.002661 -0.097580
v 0.034813 -0.002661 -0.097580
v 0.034813 0.027339 -0.097580
v 0.004813 0.027339 -0.097580
v 0.004813 -0.002661 -0.067580
v 0.034813 -0.002661 -0.067580
v 0.034813 0.027339 -0.067580
v 0.004813 0.027339 -0.067580
v 0.013628 0.009576 -0.115563
v 0.043628 0.009576 -0.115563
v 0.043628 0.039576 -0.115563
v 0.013628 0.039576 -0.115563
v 0.013628 0.009576 -0.085563
v 0.043628 0.009576 -0.085563
v 0.043628 0.039576 -0.085563
v 0.013628 0.039576 -0.085563
v 0.029499 0.022691 -0.118965
v 0.059499 0.022691 -0.118965
v 0.059499 0.052691 -0.118965
v 0.029499 0.052691 -0.118965
v 0.029499 0.022691 -0.088965
v 0.059499 0.022691 -0.088965
v 0.059499 0.052691 -0.088965
v 0.029499 0.052691 -0.088965
v 0.046630 0.043853 -0.109613
v 0.076630 0.043853 -0.109613
v 0.076630 0.073853 -0.109613
v 0.046630 0.073853 -0.109613
v 0.046630 0.043853 -0.079613
v 0.076630 0.043853 -0.079613
v 0.076630 0.073853 -0.079613
v 0.046630 0.073853 -0.079613
v -0.006741 -0.001486 -0.093992
v 0.023259 -0.001486 -0.093992
v 0.023259 0.028514 -0.093992
v -0.006741 0.028514 -0.093992
v -0.006741 -0.001486 -0.063992
v 0.023259 -0.001486 -0.063992
v 0.023259 0.028514 -0.063992
v -0.006741 0.028514 -0.063992
v 0.000354 0.008079 -0.112777
v 0.030354 0.008079 -0.112777
v 0.030354 0.038079 -0.112777
v 0.000354 0.038079 -0.112777
v 0.000354 0.008079 -0.082777
v 0.030354 0.008079 -0.082777
v 0.030354 0.038079 -0.082777
v 0.000354 0.038079 -0.082777
v 0.018581 0.026668 -0.117595
v 0.048581 0.026668 -0.117595
v 0.048581 0.056668 -0.117595
v 0.018581 0.056668 -0.117595
v 0.018581 0.026668 -0.087595
v 0.048581 0.026668 -0.087595
v 0.048581 0.056668 -0.087595
v 0.018581 0.056668 -0.087595
v 0.033323 0.043142 -0.106965
v 0.063323 0.043142 -0.106965
v 0.063323 0.073142 -0.106965
v 0.033323 0.073142 -0.106965
v 0.033323 0.043142 -0.076965
v 0.063323 0.043142 -0.076965
v 0.063323 0.073142 -0.076965
v 0.033323 0.073142 -0.076965
v -0.017614 -0.001102 -0.083154
v 0.012386 -0.001102 -0.083154
v 0.012386 0.028898 -0.083154
v -0.017614 0.028898 -0.083154
v -0.017614 -0.001102 -0.053154
v 0.012386 -0.001102 -0.053154
v 0.012386 0.028898 -0.053154
v -0.017614 0.028898 -0.053154
v -0.026468 0.013755 -0.095006
v 0.003532 0.013755 -0.095006
v 0.003532 0.043755 -0.095006
v -0.026468 0.043755 -0.095006
v -0.026468 0.013755 -0.065006
v 0.003532 0.013755 -0.065006
v 0.003532 0.043755 -0.065006
v -0.026468 0.043755 -0.065006
v -0.022138 0.024187 -0.104000
v 0.007862 0.024187 -0.104000
v 0.007862 0.054187 -0.104000
v -0.022138 0.054187 -0.104000
v -0.022138 0.024187 -0.074000
v 0.007862 0.024187 -0.074000
v 0.007862 0.054187 -0.074000
v -0.022138 0.054187 -0.074000
v -0.015606 0.036544 -0.108574
v 0.014394 0.036544 -0.108574
v 0.014394 0.066544 -0.108574
v -0.015606 0.066544 -0.108574
v -0.015606 0.036544 -0.078574
v 0.014394 0.036544 -0.078574
v 0.014394 0.066544 -0.078574
v -0.015606 0.066544 -0.078574
f 1 2 9
f 2 10 9
f 2 3 10
f 3 11 10
f 3 4 11
f 4 12 11
f 4 5 12
f 5 13 12
f 5 6 13
f 6 14 13
f 6 7 14
f 7 15 14
f 7 8 15
f 8 16 15
f 8 1 16
f 1 9 16
f 17 18 25
f 18 26 25
f 18 19 26
f 19 27 26
f 19 20 27
f 20 28 27
f 20 21 28
f 21 29 28
f 21 22 29
f 22 30 29
f 22 23 30
f 23 31 30
f 23 24 31
f 24 32 31
f 24 17 32
f 17 25 32
f 33 34 41
f 34 42 41
f 34 35 42
f 35 43 42
f 35 36 43
f 36 44 43
f 36 37 44
f 37 45 44
f 37 38 45
f 38 46 45
f 38 39 46
f 39 47 46
f 39 40 47
f 40 48 47
f 40 33 48
f 33 41 48
f 49 50 57
f 50 58 57
f 50 51 58
f 51 59 58
f 51 52 59
f 52 60 59
f 52 53 60
f 53 61 60
f 53 54 61
f 54 62 61
f 54 55 62
f 55 63 62
f 55 56 63
f 56 64 63
f 56 49 64
f 49 57 64
f 65 66 73
f 66 74 73
f 66 67 74
f 67 75 74
f 67 68 75
f 68 76 75
f 68 69 76
f 69 77 76
f 69 70 77
f 70 78 77
f 70 71 78
f 71 79 78
f 71 72 79
f 72 80 79
f 72 65 80
f 65 73 80
f 81 82 89
f 82 90 89
f 82 83 90
f 83 91 90
f 83 84 91
f 84 92 91
f 84 85 92
f 85 93 92
f 85 86 93
f 86 94 93
f 86 87 94
f 87 95 94
f 87 88 95
f 88 96 95
f 88 81 96
f 81 89 96
f 97 98 105
f 98 106 105
f 98 99 106
f 99 107 106
f 99 100 107
f 100 108 107
f 100 101 108
f 101 109 108
f 101 102 109
f 102 110 109
f 102 103 110
f 103 111 110
f 103 104 111
f 104 112 111
f 104 97 112
f 97 105 112
f 113 114 121
f 114 122 121
f 114 115 122
f 115 123 122
f 115 116 123
f 116 124 123
f 116 117 124
f 117 125 124
f 117 118 125
f 118 126 125
f 118 119 126
f 119 127 126
f 119 120 127
f 120 128 127
f 120 113 128
f 113 121 128
f 129 130 137
f 130 138 137
f 130 131 138
f 131 139 138
f 131 132 139
f 132 140 139
f 132 133 140
f 133 141 140
f 133 134 141
f 134 142 141
f 134 135 142
f 135 143 142
f 135 136 143
f 136 144 143
f 136 129 144
f 129 137 144
f 145 146 153
f 146 154 153
f 146 147 154
f 147 155 154
f 147 148 155
f 148 156 155
f 148 149 156
f 149 157 156
f 149 150 157
f 150 158 157
f 150 151 158
f 151 159 158
f 151 152 159
f 152 160 159
f 152 145 160
f 145 153 160
f 161 162 169
f 162 170 169
f 162 163 170
f 163 171 170
f 163 164 171
f 164 172 171
f 164 165 172
f 165 173 172
f 165 166 173
f 166 174 173
f 166 167 174
f 167 175 174
f 167 168 175
f 168 176 175
f 168 161 176
f 161 169 176
f 177 178 185
f 178 186 185
f 178 179 186
f 179 187 186
f 179 180 187
f 180 188 187
f 180 181 188
f 181 189 188
f 181 182 189
f 182 190 189
f 182 183 190
f 183 191 190
f 183 184 191
f 184 192 191
f 184 177 192
f 177 185 192
f 193 194 201
f 194 202 201
f 194 195 202
f 195 203 202
f 195 196 203
f 196 204 203
f 196 197 204
f 197 205 204
f 197 198 205
f 198 206 205
f 198 199 206
f 199 207 206
f 199 200 207
f 200 208 207
f 200 193 208
f 193 201 208
f 209 210 217
f 210 218 217
f 210 211 218
f 211 219 218
f 211 212 219
f 212 220 219
f 212 213 220
f 213 221 220
f 213 214 221
f 214 222 221
f 214 215 222
f 215 223 222
f 215 216 223
f 216 224 223
f 216 209 224
f 209 217 224
f 225 226 233
f 226 234 233
f 226 227 234
f 227 235 234
f 227 228 235
f 228 236 235
f 228 229 236
f 229 237 236
f 229 230 237
f 230 238 237
f 230 231 238
f 231 239 238
f 231 232 239
f 232 240 239
f 232 225 240
f 225 233 240
f 241 242 249
f 242 250 249
f 242 243 250
f 243 251 250
f 243 244 251
f 244 252 251
f 244 245 252
f 245 253 252
f 245 246 253
f 246 254 253
f 246 247 254
f 247 255 254
f 247 248 255
f 248 256 255
f 248 241 256
f 241 249 256
f 257 258 265
f 258 266 265
f 258 259 266
f 259 267 266
f 259 260 267
f 260 268 267
f 260 261 268
f 261 269 268
f 261 262 269
f 262 270 269
f 262 263 270
f 263 271 270
f 263 264 271
f 264 272 271
f 264 257 272
f 257 265 272
f 273 274 281
f 274 282 281
f 274 275 282
f 275 283 282
f 275 276 283
f 276 284 283
f 276 277 284
f 277 285 284
f 277 278 285
f 278 286 285
f 278 279 286
f 279 287 286
f 279 280 287
f 280 288 287
f 280 273 288
f 273 281 288
f 289 290 297
f 290 298 297
f 290 291 298
f 291 299 298
f 291 292 299
f 292 300 299
f 292 293 300
f 293 301 300
f 293 294 301
f 294 302 301
f 294 295 302
f 295 303 302
f 295 296 303
f 296 304 303
f 296 289 304
f 289 297 304
f 305 306 313
f 306 314 313
f 306 307 314
f 307 315 314
f 307 308 315
f 308 316 315
f 308 309 316
f 309 317 316
f 309 310 317
f 310 318 317
f 310 311 318
f 311 319 318
f 311 312 319
f 312 320 319
f 312 305 320
f 305 313 320
f 321 322 323
f 321 323 324
f 325 326 327
f 325 327 328
f 321 325 326
f 321 326 322
f 322 326 327
f 322 327 323
f 323 327 328
f 323 328 324
f 324 328 325
f 324 325 321
f 329 330 331
f 329 331 332
f 333 334 335
f 333 335 336
f 329 333 334
f 329 334 330
f 330 334 335
f 330 335 331
f 331 335 336
f 331 336 332
f 332 336 333
f 332 333 329
f 337 338 339
f 337 339 340
f 341 342 343
f 341 343 344
f 337 341 342
f 337 342 338
f 338 342 343
f 338 343 339
f 339 343 344
f 339 344 340
f 340 344 341
f 340 341 337
f 345 346 347
f 345 347 348
f 349 350 351
f 349 351 352
f 345 349 350
f 345 350 346
f 346 350 351
f 346 351 347
f 347 351 352
f 347 352 348
f 348 352 349
f 348 349 345
f 353 354 355
f 353 355 356
f 357 358 359
f 357 359 360
f 353 357 358
f 353 358 354
f 354 358 359
f 354 359 355
f 355 359 360
f 355 360 356
f 356 360 357
f 356 357 353
f 361 362 363
f 361 363 364
f 365 366 367
f 365 367 368
f 361 365 366
f 361 366 362
f 362 366 367
f 362 367 363
f 363 367 368
f 363 368 364
f 364 368 365
f 364 365 361
f 369 370 371
f 369 371 372
f 373 374 375
f 373 375 376
f 369 373 374
f 369 374 370
f 370 374 375
f 370 375 371
f 371 375 376
f 371 376 372
f 372 376 373
f 372 373 369
f 377 378 379
f 377 379 380
f 381 382 383
f 381 383 384
f 377 381 382
f 377 382 378
f 378 382 383
f 378 383 379
f 379 383 384
f 379 384 380
f 380 384 381
f 380 381 377
f 385 386 387
f 385 387 388
f 389 390 391
f 389 391 392
f 385 389 390
f 385 390 386
f 386 390 391
f 386 391 387
f 387 391 392
f 387 392 388
f 388 392 389
f 388 389 385
f 393 394 395
f 393 395 396
f 397 398 399
f 397 399 400
f 393 397 398
f 393 398 394
f 394 398 399
f 394 399 395
f 395 399 400
f 395 400 396
f 396 400 397
f 396 397 393
f 401 402 403
f 401 403 404
f 405 406 407
f 405 407 408
f 401 405 406
f 401 406 402
f 402 406 407
f 402 407 403
f 403 407 408
f 403 408 404
f 404 408 405
f 404 405 401
f 409 410 411
f 409 411 412
f 413 414 415
f 413 415 416
f 409 413 414
f 409 414 410
f 410 414 415
f 410 415 411
f 411 415 416
f 411 416 412
f 412 416 413
f 412 413 409
f 417 418 419
f 417 419 420
f 421 422 423
f 421 423 424
f 417 421 422
f 417 422 418
f 418 422 423
f 418 423 419
f 419 423 424
f 419 424 420
f 420 424 421
f 420 421 417
f 425 426 427
f 425 427 428
f 429 430 431
f 429 431 432
f 425 429 430
f 425 430 426
f 426 430 431
f 426 431 427
f 427 431 432
f 427 432 428
f 428 432 429
f 428 429 425
f 433 434 435
f 433 435 436
f 437 438 439
f 437 439 440
f 433 437 438
f 433 438 434
f 434 438 439
f 434 439 435
f 435 439 440
f 435 440 436
f 436 440 437
f 436 437 433
f 441 442 443
f 441 443 444
f 445 446 447
f 445 447 448
f 441 445 446
f 441 446 442
f 442 446 447
f 442 447 443
f 443 447 448
f 443 448 444
f 444 448 445
f 444 445 441
f 449 450 451
f 449 451 452
f 453 454 455
f 453 455 456
f 449 453 454
f 449 454 450
f 450 454 455
f 450 455 451
f 451 455 456
f 451 456 452
f 452 456 453
f 452 453 449
f 457 458 459
f 457 459 460
f 461 462 463
f 461 463 464
f 457 461 462
f 457 462 458
f 458 462 463
f 458 463 459
f 459 463 464
f 459 464 460
f 460 464 461
f 460 461 457
f 465 466 467
f 465 467 468
f 469 470 471
f 469 471 472
f 465 469 470
f 465 470 466
f 466 470 471
f 466 471 467
f 467 471 472
f 467 472 468
f 468 472 469
f 468 469 465
f 473 474 475
f 473 475 476
f 477 478 479
f 477 479 480
f 473 477 478
f 473 478 474
f 474 478 479
f 474 479 475
f 475 479 480
f 475 480 476
f 476 480 477
f 476 477 473
f 481 482 483
f 481 483 484
f 485 486 487
f 485 487 488
f 481 485 486
f 481 486 482
f 482 486 487
f 482 487 483
f 483 487 488
f 483 488 484
f 484 488 485
f 484 485 481
f 489 490 497
f 490 498 497
f 490 491 498
f 491 499 498
f 491 492 499
f 492 500 499
f 492 493 500
f 493 501 500
f 493 494 501
f 494 502 501
f 494 495 502
f 495 503 502
f 495 496 503
f 496 504 503
f 496 489 504
f 489 497 504
f 505 506 513
f 506 514 513
f 506 507 514
f 507 515 514
f 507 508 515
f 508 516 515
f 508 509 516
f 509 517 516
f 509 510 517
f 510 518 517
f 510 511 518
f 511 519 518
f 511 512 519
f 512 520 519
f 512 505 520
f 505 513 520
f 521 522 529
f 522 530 529
f 522 523 530
f 523 531 530
f 523 524 531
f 524 532 531
f 524 525 532
f 525 533 532
f 525 526 533
f 526 534 533
f 526 527 534
f 527 535 534
f 527 528 535
f 528 536 535
f 528 521 536
f 521 529 536
f 537 538 545
f 538 546 545
f 538 539 546
f 539 547 546
f 539 540 547
f 540 548 547
f 540 541 548
f 541 549 548
f 541 542 549
f 542 550 549
f 542 543 550
f 543 551 550
f 543 544 551
f 544 552 551
f 544 537 552
f 537 545 552
f 553 554 561
f 554 562 561
f 554 555 562
f 555 563 562
f 555 556 563
f 556 564 563
f 556 557 564
f 557 565 564
f 557 558 565
f 558 566 565
f 558 559 566
f 559 567 566
f 559 560 567
f 560 568 567
f 560 553 568
f 553 561 568
f 569 570 577
f 570 578 577
f 570 571 578
f 571 579 578
f 571 572 579
f 572 580 579
f 572 573 580
f 573 581 580
f 573 574 581
f 574 582 581
f 574 575 582
f 575 583 582
f 575 576 583
f 576 584 583
f 576 569 584
f 569 577 584
f 585 586 593
f 586 594 593
f 586 587 594
f 587 595 594
f 587 588 595
f 588 596 595
f 588 589 596
f 589 597 596
f 589 590 597
f 590 598 597
f 590 591 598
f 591 599 598
f 591 592 599
f 592 600 599
f 592 585 600
f 585 593 600
f 601 602 609
f 602 610 609
f 602 603 610
f 603 611 610
f 603 604 611
f 604 612 611
f 604 605 612
f 605 613 612
f 605 606 613
f 606 614 613
f 606 607 614
f 607 615 614
f 607 608 615
f 608 616 615
f 608 601 616
f 601 609 616
f 617 618 625
f 618 626 625
f 618 619 626
f 619 627 626
f 619 620 627
f 620 628 627
f 620 621 628
f 621 629 628
f 621 622 629
f 622 630 629
f 622 623 630
f 623 631 630
f 623 624 631
f 624 632 631
f 624 617 632
f 617 625 632
f 633 634 641
f 634 642 641
f 634 635 642
f 635 643 642
f 635 636 643
f 636 644 643
f 636 637 644
f 637 645 644
f 637 638 645
f 638 646 645
f 638 639 646
f 639 647 646
f 639 640 647
f 640 648 647
f 640 633 648
f 633 641 648
f 649 650 657
f 650 658 657
f 650 651 658
f 651 659 658
f 651 652 659
f 652 660 659
f 652 653 660
f 653 661 660
f 653 654 661
f 654 662 661
f 654 655 662
f 655 663 662
f 655 656 663
f 656 664 663
f 656 649 664
f 649 657 664
f 665 666 673
f 666 674 673
f 666 667 674
f 667 675 674
f 667 668 675
f 668 676 675
f 668 669 676
f 669 677 676
f 669 670 677
f 670 678 677
f 670 671 678
f 671 679 678
f 671 672 679
f 672 680 679
f 672 665 680
f 665 673 680
f 681 682 689
f 682 690 689
f 682 683 690
f 683 691 690
f 683 684 691
f 684 692 691
f 684 685 692
f 685 693 692
f 685 686 693
f 686 694 693
f 686 687 694
f 687 695 694
f 687 688 695
f 688 696 695
f 688 681 696
f 681 689 696
f 697 698 705
f 698 706 705
f 698 699 706
f 699 707 706
f 699 700 707
f 700 708 707
f 700 701 708
f 701 709 708
f 701 702 709
f 702 710 709
f 702 703 710
f 703 711 710
f 703 704 711
f 704 712 711
f 704 697 712
f 697 705 712
f 713 714 721
f 714 722 721
f 714 715 722
f 715 723 722
f 715 716 723
f 716 724 723
f 716 717 724
f 717 725 724
f 717 718 725
f 718 726 725
f 718 719 726
f 719 727 726
f 719 720 727
f 720 728 727
f 720 713 728
f 713 721 728
f 729 730 737
f 730 738 737
f 730 731 738
f 731 739 738
f 731 732 739
f 732 740 739
f 732 733 740
f 733 741 740
f 733 734 741
f 734 742 741
f 734 735 742
f 735 743 742
f 735 736 743
f 736 744 743
f 736 729 744
f 729 737 744
f 745 746 753
f 746 754 753
f 746 747 754
f 747 755 754
f 747 748 755
f 748 756 755
f 748 749 756
f 749 757 756
f 749 750 757
f 750 758 757
f 750 751 758
f 751 759 758
f 751 752 759
f 752 760 759
f 752 745 760
f 745 753 760
f 761 762 769
f 762 770 769
f 762 763 770
f 763 771 770
f 763 764 771
f 764 772 771
f 764 765 772
f 765 773 772
f 765 766 773
f 766 774 773
f 766 767 774
f 767 775 774
f 767 768 775
f 768 776 775
f 768 761 776
f 761 769 776
f 777 778 785
f 778 786 785
f 778 779 786
f 779 787 786
f 779 780 787
f 780 788 787
f 780 781 788
f 781 789 788
f 781 782 789
f 782 790 789
f 782 783 790
f 783 791 790
f 783 784 791
f 784 792 791
f 784 777 792
f 777 785 792
f 793 794 801
f 794 802 801
f 794 795 802
f 795 803 802
f 795 796 803
f 796 804 803
f 796 797 804
f 797 805 804
f 797 798 805
f 798 806 805
f 798 799 806
f 799 807 806
f 799 800 807
f 800 808 807
f 800 793 808
f 793 801 808
f 809 810 811
f 809 811 812
f 813 814 815
f 813 815 816
f 809 813 814
f 809 814 810
f 810 814 815
f 810 815 811
f 811 815 816
f 811 816 812
f 812 816 813
f 812 813 809
f 817 818 819
f 817 819 820
f 821 822 823
f 821 823 824
f 817 821 822
f 817 822 818
f 818 822 823
f 818 823 819
f 819 823 824
f 819 824 820
f 820 824 821
f 820 821 817
f 825 826 827
f 825 827 828
f 829 830 831
f 829 831 832
f 825 829 830
f 825 830 826
f 826 830 831
f 826 831 827
f 827 831 832
f 827 832 828
f 828 832 829
f 828 829 825
f 833 834 835
f 833 835 836
f 837 838 839
f 837 839 840
f 833 837 838
f 833 838 834
f 834 838 839
f 834 839 835
f 835 839 840
f 835 840 836
f 836 840 837
f 836 837 833
f 841 842 843
f 841 843 844
f 845 846 847
f 845 847 848
f 841 845 846
f 841 846 842
f 842 846 847
f 842 847 843
f 843 847 848
f 843 848 844
f 844 848 845
f 844 845 841
f 849 850 851
f 849 851 852
f 853 854 855
f 853 855 856
f 849 853 854
f 849 854 850
f 850 854 855
f 850 855 851
f 851 855 856
f 851 856 852
f 852 856 853
f 852 853 849
f 857 858 859
f 857 859 860
f 861 862 863
f 861 863 864
f 857 861 862
f 857 862 858
f 858 862 863
f 858 863 859
f 859 863 864
f 859 864 860
f 860 864 861
f 860 861 857
f 865 866 867
f 865 867 868
f 869 870 871
f 869 871 872
f 865 869 870
f 865 870 866
f 866 870 871
f 866 871 867
f 867 871 872
f 867 872 868
f 868 872 869
f 868 869 865
f 873 874 875
f 873 875 876
f 877 878 879
f 877 879 880
f 873 877 878
f 873 878 874
f 874 878 879
f 874 879 875
f 875 879 880
f 875 880 876
f 876 880 877
f 876 877 873
f 881 882 883
f 881 883 884
f 885 886 887
f 885 887 888
f 881 885 886
f 881 886 882
f 882 886 887
f 882 887 883
f 883 887 888
f 883 888 884
f 884 888 885
f 884 885 881
f 889 890 891
f 889 891 892
f 893 894 895
f 893 895 896
f 889 893 894
f 889 894 890
f 890 894 895
f 890 895 891
f 891 895 896
f 891 896 892
f 892 896 893
f 892 893 889
f 897 898 899
f 897 899 900
f 901 902 903
f 901 903 904
f 897 901 902
f 897 902 898
f 898 902 903
f 898 903 899
f 899 903 904
f 899 904 900
f 900 904 901
f 900 901 897
f 905 906 907
f 905 907 908
f 909 910 911
f 909 911 912
f 905 909 910
f 905 910 906
f 906 910 911
f 906 911 907
f 907 911 912
f 907 912 908
f 908 912 909
f 908 909 905
f 913 914 915
f 913 915 916
f 917 918 919
f 917 919 920
f 913 917 918
f 913 918 914
f 914 918 919
f 914 919 915
f 915 919 920
f 915 920 916
f 916 920 917
f 916 917 913
f 921 922 923
f 921 923 924
f 925 926 927
f 925 927 928
f 921 925 926
f 921 926 922
f 922 926 927
f 922 927 923
f 923 927 928
f 923 928 924
f 924 928 925
f 924 925 921
f 929 930 931
f 929 931 932
f 933 934 935
f 933 935 936
f 929 933 934
f 929 934 930
f 930 934 935
f 930 935 931
f 931 935 936
f 931 936 932
f 932 936 933
f 932 933 929
f 937 938 939
f 937 939 940
f 941 942 943
f 941 943 944
f 937 941 942
f 937 942 938
f 938 942 943
f 938 943 939
f 939 943 944
f 939 944 940
f 940 944 941
f 940 941 937
f 945 946 947
f 945 947 948
f 949 950 951
f 949 951 952
f 945 949 950
f 945 950 946
f 946 950 951
f 946 951 947
f 947 951 952
f 947 952 948
f 948 952 949
f 948 949 945
f 953 954 955
f 953 955 956
f 957 958 959
f 957 959 960
f 953 957 958
f 953 958 954
f 954 958 959
f 954 959 955
f 955 959 960
f 955 960 956
f 956 960 957
f 956 957 953
f 961 962 963
f 961 963 964
f 965 966 967
f 965 967 968
f 961 965 966
f 961 966 962
f 962 966 967
f 962 967 963
f 963 967 968
f 963 968 964
f 964 968 965
f 964 965 961
f 969 970 971
f 969 971 972
f 973 974 975
f 973 975 976
f 969 973 974
f 969 974 970
f 970 974 975
f 970 975 971
f 971 975 976
f 971 976 972
f 972 976 973
f 972 973 969
