# SignFlow 3D Hand Mesh - Frame 162
v 0.000000 -0.003043 0.019767
v -0.009966 -0.012068 0.012451
v -0.014094 -0.014025 -0.002159
v -0.009966 -0.007765 -0.015504
v -0.000000 0.003043 -0.019767
v 0.009966 0.012068 -0.012451
v 0.014094 0.014025 0.002159
v 0.009966 0.007765 0.015504
v 0.027214 -0.029759 0.015655
v 0.017248 -0.038785 0.008338
v 0.013120 -0.040741 -0.006271
v 0.017248 -0.034482 -0.019617
v 0.027214 -0.023674 -0.023880
v 0.037180 -0.014648 -0.016564
v 0.041309 -0.012692 -0.001954
v 0.037180 -0.018951 0.011391
v 0.032592 -0.026717 0.015151
v 0.028095 -0.040530 0.010324
v 0.023082 -0.046251 -0.002959
v 0.020490 -0.040530 -0.016918
v 0.021837 -0.026717 -0.023376
v 0.026334 -0.012904 -0.018550
v 0.031347 -0.007182 -0.005266
v 0.033939 -0.012904 0.008693
v 0.058409 -0.032604 0.007944
v 0.053912 -0.046417 0.003118
v 0.048900 -0.052138 -0.010166
v 0.046308 -0.046417 -0.024125
v 0.047655 -0.032604 -0.030583
v 0.052152 -0.018791 -0.025757
v 0.057165 -0.013069 -0.012473
v 0.059757 -0.018791 0.001486
v 0.053032 -0.052517 -0.013178
v 0.041448 -0.045931 -0.020711
v 0.036650 -0.031538 -0.022742
v 0.041448 -0.017769 -0.018082
v 0.053032 -0.012690 -0.009461
v 0.064616 -0.019277 -0.001928
v 0.069415 -0.033670 0.000103
v 0.064616 -0.047439 -0.004557
v 0.070478 -0.050202 -0.037983
v 0.058894 -0.043616 -0.045515
v 0.054095 -0.029223 -0.047547
v 0.058894 -0.015454 -0.042887
v 0.070478 -0.010375 -0.034265
v 0.082062 -0.016962 -0.026733
v 0.086860 -0.031355 -0.024701
v 0.082062 -0.045124 -0.029361
v 0.070478 -0.049476 -0.041766
v 0.058537 -0.041719 -0.047382
v 0.053590 -0.027266 -0.046404
v 0.058537 -0.014584 -0.039403
v 0.070478 -0.011101 -0.030482
v 0.082419 -0.018858 -0.024866
v 0.087366 -0.033311 -0.025844
v 0.082419 -0.045994 -0.032845
v 0.081118 -0.044745 -0.057855
v 0.069177 -0.036988 -0.063472
v 0.064231 -0.022535 -0.062493
v 0.069177 -0.009853 -0.055493
v 0.081118 -0.006370 -0.046571
v 0.093060 -0.014127 -0.040955
v 0.098006 -0.028580 -0.041934
v 0.093060 -0.041263 -0.048934
v 0.000000 -0.014476 0.013800
v -0.011483 -0.015932 0.003784
v -0.016240 -0.008055 -0.008449
v -0.011483 0.004540 -0.015733
v -0.000000 0.014476 -0.013800
v 0.011483 0.015932 -0.003784
v 0.016240 0.008055 0.008449
v 0.011483 -0.004540 0.015733
v 0.052871 -0.065226 -0.039433
v 0.041388 -0.066682 -0.049450
v 0.036631 -0.058805 -0.061683
v 0.041388 -0.046210 -0.068967
v 0.052871 -0.036274 -0.067034
v 0.064354 -0.034818 -0.057018
v 0.069110 -0.042695 -0.044784
v 0.064354 -0.055290 -0.037501
v 0.057232 -0.050750 -0.033715
v 0.052561 -0.064458 -0.038674
v 0.048072 -0.070136 -0.052162
v 0.046393 -0.064458 -0.066277
v 0.048509 -0.050750 -0.072752
v 0.053180 -0.037042 -0.067794
v 0.057669 -0.031364 -0.054306
v 0.059348 -0.037042 -0.040190
v 0.081546 -0.057069 -0.039148
v 0.076875 -0.070777 -0.044107
v 0.072386 -0.076455 -0.057594
v 0.070707 -0.070777 -0.071710
v 0.072823 -0.057069 -0.078185
v 0.077493 -0.043361 -0.073227
v 0.081983 -0.037683 -0.059739
v 0.083661 -0.043361 -0.045623
v 0.077184 -0.040129 -0.048035
v 0.069776 -0.051494 -0.040945
v 0.066708 -0.066125 -0.044237
v 0.069776 -0.075451 -0.055981
v 0.077184 -0.074009 -0.069298
v 0.084592 -0.062644 -0.076388
v 0.087661 -0.048013 -0.073097
v 0.084592 -0.038687 -0.061353
v 0.096426 -0.046419 -0.038013
v 0.089018 -0.057784 -0.030923
v 0.085950 -0.072415 -0.034215
v 0.089018 -0.081741 -0.045959
v 0.096426 -0.080299 -0.059277
v 0.103834 -0.068933 -0.066366
v 0.106902 -0.054302 -0.063075
v 0.103834 -0.044977 -0.051331
v 0.092702 -0.063359 -0.028994
v 0.093206 -0.077488 -0.034861
v 0.095595 -0.083341 -0.048802
v 0.098472 -0.077488 -0.062651
v 0.100150 -0.063359 -0.068295
v 0.099646 -0.049229 -0.062428
v 0.097256 -0.043377 -0.048487
v 0.094380 -0.049229 -0.034639
v 0.108465 -0.064037 -0.026007
v 0.108968 -0.078167 -0.031874
v 0.111358 -0.084020 -0.045815
v 0.114234 -0.078167 -0.059664
v 0.115912 -0.064037 -0.065308
v 0.115409 -0.049908 -0.059441
v 0.113019 -0.044055 -0.045500
v 0.110143 -0.049908 -0.031652
v 0.000000 -0.017145 0.010299
v -0.011825 -0.016118 0.000632
v -0.016723 -0.005649 -0.009404
v -0.011825 0.008129 -0.013932
v -0.000000 0.017145 -0.010299
v 0.011825 0.016118 -0.000632
v 0.016723 0.005649 0.009404
v 0.011825 -0.008129 0.013932
v 0.050813 -0.057029 -0.056098
v 0.038989 -0.056002 -0.065765
v 0.034091 -0.045533 -0.075801
v 0.038989 -0.031755 -0.080329
v 0.050813 -0.022739 -0.076696
v 0.062638 -0.023766 -0.067029
v 0.067536 -0.034235 -0.056993
v 0.062638 -0.048013 -0.052465
v 0.057293 -0.039884 -0.047476
v 0.051717 -0.053481 -0.051758
v 0.045611 -0.059113 -0.064615
v 0.042553 -0.053481 -0.078517
v 0.044334 -0.039884 -0.085318
v 0.049910 -0.026287 -0.081036
v 0.056016 -0.020655 -0.068179
v 0.059074 -0.026287 -0.054277
v 0.083936 -0.047937 -0.056600
v 0.078360 -0.061535 -0.060882
v 0.072254 -0.067167 -0.073740
v 0.069196 -0.061535 -0.087641
v 0.070977 -0.047937 -0.094442
v 0.076553 -0.034340 -0.090160
v 0.082659 -0.028708 -0.077303
v 0.085717 -0.034340 -0.063402
v 0.071213 -0.047937 -0.056521
v 0.068839 -0.061370 -0.063467
v 0.071513 -0.066934 -0.077474
v 0.077668 -0.061370 -0.090338
v 0.083700 -0.047937 -0.094522
v 0.086074 -0.034505 -0.087576
v 0.083401 -0.028941 -0.073568
v 0.077245 -0.034505 -0.060705
v 0.093900 -0.055802 -0.049066
v 0.091525 -0.069235 -0.056013
v 0.094199 -0.074799 -0.070020
v 0.100354 -0.069235 -0.082884
v 0.106386 -0.055802 -0.087068
v 0.108760 -0.042370 -0.080121
v 0.106087 -0.036806 -0.066114
v 0.099931 -0.042370 -0.053251
v 0.100143 -0.036388 -0.063265
v 0.092958 -0.044999 -0.052846
v 0.089982 -0.059939 -0.051344
v 0.092958 -0.072456 -0.059638
v 0.100143 -0.075217 -0.072869
v 0.107327 -0.066606 -0.083288
v 0.110303 -0.051666 -0.084790
v 0.107327 -0.039149 -0.076496
v 0.124506 -0.039838 -0.049316
v 0.117321 -0.048449 -0.038898
v 0.114345 -0.063389 -0.037395
v 0.117321 -0.075906 -0.045689
v 0.124506 -0.078668 -0.058921
v 0.131690 -0.070056 -0.069339
v 0.134666 -0.055116 -0.070841
v 0.131690 -0.042599 -0.062547
v 0.000000 -0.018907 0.006520
v -0.011791 -0.015915 -0.002771
v -0.016675 -0.003600 -0.010440
v -0.011791 0.010824 -0.011993
v -0.000000 0.018907 -0.006520
v 0.011791 0.015915 0.002771
v 0.016675 0.003600 0.010440
v 0.011791 -0.010824 0.011993
v 0.053182 -0.045088 -0.069395
v 0.041391 -0.042096 -0.078686
v 0.036507 -0.029781 -0.086355
v 0.041391 -0.015357 -0.087908
v 0.053182 -0.007273 -0.082435
v 0.064973 -0.010265 -0.073144
v 0.069856 -0.022580 -0.065475
v 0.064973 -0.037004 -0.063922
v 0.046843 -0.026180 -0.056946
v 0.051416 -0.040029 -0.061594
v 0.057024 -0.045766 -0.074631
v 0.060381 -0.040029 -0.088420
v 0.059520 -0.026180 -0.094884
v 0.054947 -0.012331 -0.090236
v 0.049339 -0.006595 -0.077199
v 0.045982 -0.012331 -0.063410
v 0.066902 -0.021806 -0.050243
v 0.071476 -0.035655 -0.054891
v 0.077084 -0.041391 -0.067928
v 0.080440 -0.035655 -0.081717
v 0.079580 -0.021806 -0.088181
v 0.075006 -0.007957 -0.083533
v 0.069399 -0.002220 -0.070496
v 0.066042 -0.007957 -0.056707
v 0.073241 -0.001942 -0.071544
v 0.059099 -0.007771 -0.070955
v 0.053242 -0.021821 -0.069344
v 0.059099 -0.035862 -0.067656
v 0.073241 -0.041669 -0.066879
v 0.087383 -0.035840 -0.067469
v 0.093241 -0.021790 -0.069079
v 0.087383 -0.007749 -0.070767
v 0.073081 0.000848 -0.047782
v 0.058940 -0.004981 -0.047192
v 0.053082 -0.019031 -0.045582
v 0.058940 -0.033072 -0.043894
v 0.073081 -0.038879 -0.043117
v 0.087223 -0.033050 -0.043706
v 0.093081 -0.019000 -0.045317
v 0.087223 -0.004959 -0.047005
v 0.073081 0.000978 -0.045979
v 0.059818 -0.005008 -0.050729
v 0.054324 -0.019199 -0.052387
v 0.059818 -0.033282 -0.049980
v 0.073081 -0.039008 -0.044920
v 0.086345 -0.033023 -0.040169
v 0.091839 -0.018831 -0.038512
v 0.086345 -0.004748 -0.040918
v 0.063735 0.001647 -0.020726
v 0.050472 -0.004339 -0.025477
v 0.044978 -0.018530 -0.027134
v 0.050472 -0.032613 -0.024728
v 0.063735 -0.038339 -0.019667
v 0.076999 -0.032353 -0.014917
v 0.082493 -0.018162 -0.013259
v 0.076999 -0.004079 -0.015666
v 0.000000 -0.019785 0.002925
v -0.012096 -0.015061 -0.005180
v -0.017107 -0.001515 -0.010250
v -0.012096 0.012919 -0.009316
v -0.000000 0.019785 -0.002925
v 0.012096 0.015061 0.005180
v 0.017107 0.001515 0.010250
v 0.012096 -0.012919 0.009316
v 0.045976 -0.030885 -0.072170
v 0.033880 -0.026162 -0.080275
v 0.028869 -0.012616 -0.085345
v 0.033880 0.001818 -0.084411
v 0.045976 0.008685 -0.078020
v 0.058073 0.003961 -0.069915
v 0.063083 -0.009585 -0.064845
v 0.058073 -0.024019 -0.065779
v 0.038394 -0.011100 -0.056588
v 0.042945 -0.025017 -0.061054
v 0.049270 -0.030781 -0.073745
v 0.053667 -0.025017 -0.087227
v 0.053558 -0.011100 -0.093602
v 0.049008 0.002816 -0.089136
v 0.042682 0.008580 -0.076445
v 0.038286 0.002816 -0.062963
v 0.057192 -0.007426 -0.048887
v 0.061742 -0.021342 -0.053354
v 0.068068 -0.027107 -0.066045
v 0.072464 -0.021342 -0.079527
v 0.072355 -0.007426 -0.085902
v 0.067805 0.006490 -0.081435
v 0.061479 0.012255 -0.068744
v 0.057083 0.006490 -0.055262
v 0.064773 0.012276 -0.070836
v 0.051352 0.007272 -0.065437
v 0.045793 -0.006341 -0.061185
v 0.051352 -0.020590 -0.060570
v 0.064773 -0.027128 -0.063953
v 0.078195 -0.022124 -0.069352
v 0.083754 -0.008511 -0.073604
v 0.078195 0.005738 -0.074219
v 0.071174 0.015592 -0.051850
v 0.057753 0.010589 -0.046451
v 0.052194 -0.003024 -0.042198
v 0.057753 -0.017273 -0.041584
v 0.071174 -0.023811 -0.044966
v 0.084596 -0.018807 -0.050365
v 0.090155 -0.005194 -0.054618
v 0.084596 0.009055 -0.055232
v 0.071174 0.015890 -0.048556
v 0.057102 0.010022 -0.049917
v 0.051273 -0.004124 -0.050394
v 0.057102 -0.018261 -0.049707
v 0.071174 -0.024109 -0.048260
v 0.085247 -0.018241 -0.046899
v 0.091076 -0.004095 -0.046422
v 0.085247 0.010043 -0.047109
v 0.069916 0.015984 -0.035944
v 0.055844 0.010116 -0.037305
v 0.050015 -0.004030 -0.037781
v 0.055844 -0.018168 -0.037095
v 0.069916 -0.024015 -0.035648
v 0.083988 -0.018147 -0.034287
v 0.089817 -0.004001 -0.033810
v 0.083988 0.010136 -0.034497
v -0.015000 -0.015000 -0.015000
v 0.015000 -0.015000 -0.015000
v 0.015000 0.015000 -0.015000
v -0.015000 0.015000 -0.015000
v -0.015000 -0.015000 0.015000
v 0.015000 -0.015000 0.015000
v 0.015000 0.015000 0.015000
v -0.015000 0.015000 0.015000
v 0.012214 -0.041717 -0.019113
v 0.042214 -0.041717 -0.019113
v 0.042214 -0.011717 -0.019113
v 0.012214 -0.011717 -0.019113
v 0.012214 -0.041717 0.010887
v 0.042214 -0.041717 0.010887
v 0.042214 -0.011717 0.010887
v 0.012214 -0.011717 0.010887
v 0.038032 -0.047604 -0.026319
v 0.068032 -0.047604 -0.026319
v 0.068032 -0.017604 -0.026319
v 0.038032 -0.017604 -0.026319
v 0.038032 -0.047604 0.003681
v 0.068032 -0.047604 0.003681
v 0.068032 -0.017604 0.003681
v 0.038032 -0.017604 0.003681
v 0.055478 -0.045289 -0.051124
v 0.085478 -0.045289 -0.051124
v 0.085478 -0.015289 -0.051124
v 0.055478 -0.015289 -0.051124
v 0.055478 -0.045289 -0.021124
v 0.085478 -0.045289 -0.021124
v 0.085478 -0.015289 -0.021124
v 0.055478 -0.015289 -0.021124
v 0.066118 -0.040558 -0.067213
v 0.096118 -0.040558 -0.067213
v 0.096118 -0.010558 -0.067213
v 0.066118 -0.010558 -0.067213
v 0.066118 -0.040558 -0.037213
v 0.096118 -0.040558 -0.037213
v 0.096118 -0.010558 -0.037213
v 0.066118 -0.010558 -0.037213
v 0.037871 -0.065750 -0.068234
v 0.067871 -0.065750 -0.068234
v 0.067871 -0.035750 -0.068234
v 0.037871 -0.035750 -0.068234
v 0.037871 -0.065750 -0.038234
v 0.067871 -0.065750 -0.038234
v 0.067871 -0.035750 -0.038234
v 0.037871 -0.035750 -0.038234
v 0.062184 -0.072069 -0.073667
v 0.092184 -0.072069 -0.073667
v 0.092184 -0.042069 -0.073667
v 0.062184 -0.042069 -0.073667
v 0.062184 -0.072069 -0.043667
v 0.092184 -0.072069 -0.043667
v 0.092184 -0.042069 -0.043667
v 0.062184 -0.042069 -0.043667
v 0.081426 -0.078359 -0.063645
v 0.111426 -0.078359 -0.063645
v 0.111426 -0.048359 -0.063645
v 0.081426 -0.048359 -0.063645
v 0.081426 -0.078359 -0.033645
v 0.111426 -0.078359 -0.033645
v 0.111426 -0.048359 -0.033645
v 0.081426 -0.048359 -0.033645
v 0.097188 -0.079037 -0.060658
v 0.127188 -0.079037 -0.060658
v 0.127188 -0.049037 -0.060658
v 0.097188 -0.049037 -0.060658
v 0.097188 -0.079037 -0.030658
v 0.127188 -0.079037 -0.030658
v 0.127188 -0.049037 -0.030658
v 0.097188 -0.049037 -0.030658
v 0.035813 -0.054884 -0.081397
v 0.065813 -0.054884 -0.081397
v 0.065813 -0.024884 -0.081397
v 0.035813 -0.024884 -0.081397
v 0.035813 -0.054884 -0.051397
v 0.065813 -0.054884 -0.051397
v 0.065813 -0.024884 -0.051397
v 0.035813 -0.024884 -0.051397
v 0.062457 -0.062937 -0.090521
v 0.092457 -0.062937 -0.090521
v 0.092457 -0.032937 -0.090521
v 0.062457 -0.032937 -0.090521
v 0.062457 -0.062937 -0.060521
v 0.092457 -0.062937 -0.060521
v 0.092457 -0.032937 -0.060521
v 0.062457 -0.032937 -0.060521
v 0.085143 -0.070802 -0.083067
v 0.115143 -0.070802 -0.083067
v 0.115143 -0.040802 -0.083067
v 0.085143 -0.040802 -0.083067
v 0.085143 -0.070802 -0.053067
v 0.115143 -0.070802 -0.053067
v 0.115143 -0.040802 -0.053067
v 0.085143 -0.040802 -0.053067
v 0.109506 -0.074253 -0.069118
v 0.139506 -0.074253 -0.069118
v 0.139506 -0.044253 -0.069118
v 0.109506 -0.044253 -0.069118
v 0.109506 -0.074253 -0.039118
v 0.139506 -0.074253 -0.039118
v 0.139506 -0.044253 -0.039118
v 0.109506 -0.044253 -0.039118
v 0.038182 -0.041180 -0.090915
v 0.068182 -0.041180 -0.090915
v 0.068182 -0.011180 -0.090915
v 0.038182 -0.011180 -0.090915
v 0.038182 -0.041180 -0.060915
v 0.068182 -0.041180 -0.060915
v 0.068182 -0.011180 -0.060915
v 0.038182 -0.011180 -0.060915
v 0.058241 -0.036806 -0.084212
v 0.088241 -0.036806 -0.084212
v 0.088241 -0.006806 -0.084212
v 0.058241 -0.006806 -0.084212
v 0.058241 -0.036806 -0.054212
v 0.088241 -0.036806 -0.054212
v 0.088241 -0.006806 -0.054212
v 0.058241 -0.006806 -0.054212
v 0.058081 -0.034015 -0.060449
v 0.088081 -0.034015 -0.060449
v 0.088081 -0.004015 -0.060449
v 0.058081 -0.004015 -0.060449
v 0.058081 -0.034015 -0.030449
v 0.088081 -0.034015 -0.030449
v 0.088081 -0.004015 -0.030449
v 0.058081 -0.004015 -0.030449
v 0.048735 -0.033346 -0.035197
v 0.078735 -0.033346 -0.035197
v 0.078735 -0.003346 -0.035197
v 0.048735 -0.003346 -0.035197
v 0.048735 -0.033346 -0.005197
v 0.078735 -0.033346 -0.005197
v 0.078735 -0.003346 -0.005197
v 0.048735 -0.003346 -0.005197
v 0.030976 -0.026100 -0.090095
v 0.060976 -0.026100 -0.090095
v 0.060976 0.003900 -0.090095
v 0.030976 0.003900 -0.090095
v 0.030976 -0.026100 -0.060095
v 0.060976 -0.026100 -0.060095
v 0.060976 0.003900 -0.060095
v 0.030976 0.003900 -0.060095
v 0.049773 -0.022426 -0.082395
v 0.079773 -0.022426 -0.082395
v 0.079773 0.007574 -0.082395
v 0.049773 0.007574 -0.082395
v 0.049773 -0.022426 -0.052395
v 0.079773 -0.022426 -0.052395
v 0.079773 0.007574 -0.052395
v 0.049773 0.007574 -0.052395
v 0.056174 -0.019109 -0.063408
v 0.086174 -0.019109 -0.063408
v 0.086174 0.010891 -0.063408
v 0.056174 0.010891 -0.063408
v 0.056174 -0.019109 -0.033408
v 0.086174 -0.019109 -0.033408
v 0.086174 0.010891 -0.033408
v 0.056174 0.010891 -0.033408
v 0.054916 -0.019016 -0.050796
v 0.084916 -0.019016 -0.050796
v 0.084916 0.010984 -0.050796
v 0.054916 0.010984 -0.050796
v 0.054916 -0.019016 -0.020796
v 0.084916 -0.019016 -0.020796
v 0.084916 0.010984 -0.020796
v 0.054916 0.010984 -0.020796
v 0.000000 -0.007767 0.018430
v -0.010859 0.002857 0.016551
v -0.015356 0.011808 0.004976
v -0.010859 0.013842 -0.009513
v -0.000000 0.007767 -0.018430
v 0.010859 -0.002857 -0.016551
v 0.015356 -0.011808 -0.004976
v 0.010859 -0.013842 0.009513
v -0.023847 -0.034103 0.007331
v -0.034705 -0.023479 0.005452
v -0.039203 -0.014528 -0.006123
v -0.034705 -0.012494 -0.020612
v -0.023847 -0.018569 -0.029529
v -0.012988 -0.029193 -0.027650
v -0.008490 -0.038144 -0.016075
v -0.012988 -0.040177 -0.001585
v -0.023847 -0.044877 -0.003600
v -0.032164 -0.035158 0.004807
v -0.035610 -0.020271 0.003896
v -0.032164 -0.008937 -0.005798
v -0.023847 -0.007795 -0.018597
v -0.015529 -0.017513 -0.027004
v -0.012084 -0.032400 -0.026094
v -0.015529 -0.043735 -0.016400
v -0.044167 -0.050417 -0.017300
v -0.052485 -0.040699 -0.008893
v -0.055930 -0.025812 -0.009803
v -0.052485 -0.014478 -0.019497
v -0.044167 -0.013335 -0.032297
v -0.035850 -0.023054 -0.040704
v -0.032404 -0.037941 -0.039794
v -0.035850 -0.049275 -0.030099
v -0.044167 -0.051613 -0.028035
v -0.055252 -0.047253 -0.018420
v -0.059843 -0.033886 -0.012542
v -0.055252 -0.019342 -0.013843
v -0.044167 -0.012140 -0.021562
v -0.033083 -0.016499 -0.031177
v -0.028491 -0.029866 -0.037055
v -0.033083 -0.044411 -0.035754
v -0.064192 -0.047523 -0.052975
v -0.075276 -0.043163 -0.043360
v -0.079868 -0.029796 -0.037481
v -0.075276 -0.015252 -0.038782
v -0.064192 -0.008050 -0.046501
v -0.053107 -0.012409 -0.056116
v -0.048516 -0.025776 -0.061995
v -0.053107 -0.040321 -0.060694
v -0.064192 -0.047781 -0.049260
v -0.076357 -0.041752 -0.042191
v -0.081396 -0.027542 -0.039543
v -0.076357 -0.013476 -0.042867
v -0.064192 -0.007792 -0.050216
v -0.052026 -0.013821 -0.057285
v -0.046987 -0.028030 -0.059933
v -0.052026 -0.042097 -0.056609
v -0.078652 -0.048364 -0.073648
v -0.090818 -0.042335 -0.066579
v -0.095857 -0.028126 -0.063931
v -0.090818 -0.014059 -0.067256
v -0.078652 -0.008375 -0.074605
v -0.066487 -0.014404 -0.081674
v -0.061448 -0.028614 -0.084322
v -0.066487 -0.042680 -0.080997
v 0.000000 -0.016893 0.010706
v -0.012594 -0.008501 0.013005
v -0.017810 0.004871 0.007686
v -0.012594 0.015390 -0.002135
v -0.000000 0.016893 -0.010706
v 0.012594 0.008501 -0.013005
v 0.017810 -0.004871 -0.007686
v 0.012594 -0.015390 0.002135
v -0.043550 -0.062522 -0.061294
v -0.056144 -0.054130 -0.058995
v -0.061360 -0.040758 -0.064314
v -0.056144 -0.030240 -0.074135
v -0.043550 -0.028736 -0.082706
v -0.030956 -0.037128 -0.085005
v -0.025740 -0.050500 -0.079686
v -0.030956 -0.061019 -0.069864
v -0.039207 -0.045629 -0.091523
v -0.040364 -0.059771 -0.085779
v -0.043387 -0.065628 -0.071964
v -0.046506 -0.059771 -0.058170
v -0.047893 -0.045629 -0.052477
v -0.046737 -0.031487 -0.058221
v -0.043713 -0.025630 -0.072036
v -0.040594 -0.031487 -0.085830
v -0.062192 -0.045826 -0.096636
v -0.063349 -0.059967 -0.090893
v -0.066372 -0.065825 -0.077077
v -0.069491 -0.059967 -0.063283
v -0.070879 -0.045826 -0.057591
v -0.069722 -0.031684 -0.063335
v -0.066698 -0.025826 -0.077150
v -0.063579 -0.031684 -0.090944
v -0.066535 -0.025882 -0.075620
v -0.074081 -0.030830 -0.087985
v -0.077207 -0.044562 -0.093981
v -0.074081 -0.059035 -0.090097
v -0.066535 -0.065770 -0.078608
v -0.058990 -0.060822 -0.066243
v -0.055864 -0.047089 -0.060246
v -0.058990 -0.032616 -0.064130
v -0.087259 -0.026858 -0.062582
v -0.094805 -0.031806 -0.074947
v -0.097930 -0.045539 -0.080944
v -0.094805 -0.060011 -0.077060
v -0.087259 -0.066746 -0.065570
v -0.079713 -0.061798 -0.053205
v -0.076587 -0.048066 -0.047208
v -0.079713 -0.033593 -0.051092
v -0.087259 -0.029208 -0.073587
v -0.096205 -0.039570 -0.080436
v -0.099911 -0.054168 -0.077702
v -0.096205 -0.064451 -0.066986
v -0.087259 -0.064396 -0.054565
v -0.078312 -0.054035 -0.047716
v -0.074607 -0.039437 -0.050450
v -0.078312 -0.029153 -0.061166
v -0.108097 -0.021114 -0.058613
v -0.117043 -0.031476 -0.065463
v -0.120749 -0.046074 -0.062729
v -0.117043 -0.056357 -0.052013
v -0.108097 -0.056302 -0.039592
v -0.099150 -0.045941 -0.032743
v -0.095445 -0.031343 -0.035477
v -0.099150 -0.021059 -0.046193
v 0.000000 -0.018418 0.007796
v -0.012873 -0.010741 0.010905
v -0.018205 0.003228 0.007625
v -0.012873 0.015306 -0.000121
v -0.000000 0.018418 -0.007796
v 0.012873 0.010741 -0.010905
v 0.018205 -0.003228 -0.007625
v 0.012873 -0.015306 0.000121
v -0.038586 -0.051487 -0.070327
v -0.051459 -0.043810 -0.067219
v -0.056791 -0.029841 -0.070498
v -0.051459 -0.017763 -0.078244
v -0.038586 -0.014651 -0.085920
v -0.025713 -0.022328 -0.089028
v -0.020381 -0.036297 -0.085749
v -0.025713 -0.048375 -0.078003
v -0.035670 -0.033069 -0.097910
v -0.033248 -0.046818 -0.091632
v -0.033953 -0.052513 -0.077441
v -0.037372 -0.046818 -0.063650
v -0.041502 -0.033069 -0.058337
v -0.043924 -0.019320 -0.064615
v -0.043219 -0.013625 -0.078806
v -0.039800 -0.019320 -0.092597
v -0.066119 -0.040482 -0.102397
v -0.063697 -0.054231 -0.096119
v -0.064402 -0.059926 -0.081928
v -0.067821 -0.054231 -0.068137
v -0.071951 -0.040482 -0.062825
v -0.074374 -0.026734 -0.069103
v -0.073669 -0.021039 -0.083294
v -0.070250 -0.026734 -0.097085
v -0.075737 -0.040482 -0.101455
v -0.076269 -0.054375 -0.095048
v -0.072563 -0.060129 -0.081356
v -0.066791 -0.054375 -0.068399
v -0.062334 -0.040482 -0.063767
v -0.061802 -0.026590 -0.070174
v -0.065507 -0.020836 -0.083866
v -0.071279 -0.026590 -0.096823
v -0.099921 -0.035590 -0.092854
v -0.100453 -0.049482 -0.086448
v -0.096747 -0.055237 -0.072756
v -0.090975 -0.049482 -0.059799
v -0.086518 -0.035590 -0.055167
v -0.085986 -0.021698 -0.061573
v -0.089691 -0.015944 -0.075265
v -0.095463 -0.021698 -0.088222
v -0.093219 -0.015807 -0.076948
v -0.100665 -0.023368 -0.087981
v -0.103749 -0.038088 -0.090830
v -0.100665 -0.051345 -0.083826
v -0.093219 -0.055373 -0.071072
v -0.085774 -0.047813 -0.060040
v -0.082690 -0.033092 -0.057191
v -0.085774 -0.019835 -0.064195
v -0.123401 -0.013062 -0.058461
v -0.130847 -0.020622 -0.069493
v -0.133931 -0.035343 -0.072342
v -0.130847 -0.048600 -0.065338
v -0.123401 -0.052628 -0.052585
v -0.115956 -0.045067 -0.041552
v -0.112872 -0.030347 -0.038703
v -0.115956 -0.017090 -0.045707
v 0.000000 -0.019268 0.005362
v -0.012736 -0.011976 0.009714
v -0.018012 0.002331 0.008376
v -0.012736 0.015273 0.002131
v -0.000000 0.019268 -0.005362
v 0.012736 0.011976 -0.009714
v 0.018012 -0.002331 -0.008376
v 0.012736 -0.015273 -0.002131
v -0.040239 -0.041616 -0.074952
v -0.052975 -0.034325 -0.070599
v -0.058251 -0.020017 -0.071937
v -0.052975 -0.007076 -0.078182
v -0.040239 -0.003080 -0.085675
v -0.027503 -0.010372 -0.090027
v -0.022228 -0.024679 -0.088689
v -0.027503 -0.037621 -0.082444
v -0.044781 -0.022348 -0.099791
v -0.045056 -0.036394 -0.093712
v -0.042509 -0.042212 -0.079784
v -0.038633 -0.036394 -0.066166
v -0.035697 -0.022348 -0.060836
v -0.035423 -0.008302 -0.066915
v -0.037970 -0.002484 -0.080842
v -0.041846 -0.008302 -0.094460
v -0.070318 -0.019272 -0.093836
v -0.070592 -0.033317 -0.087757
v -0.068045 -0.039135 -0.073829
v -0.064169 -0.033317 -0.060211
v -0.061234 -0.019272 -0.054881
v -0.060959 -0.005226 -0.060960
v -0.063506 0.000592 -0.074888
v -0.067382 -0.005226 -0.088505
v -0.065776 0.000653 -0.072625
v -0.079864 -0.005290 -0.071905
v -0.085700 -0.019423 -0.072622
v -0.079864 -0.033467 -0.074357
v -0.065776 -0.039196 -0.076092
v -0.051687 -0.033254 -0.076812
v -0.045852 -0.019121 -0.076094
v -0.051687 -0.005076 -0.074360
v -0.063735 -0.001369 -0.049382
v -0.077824 -0.007312 -0.048662
v -0.083659 -0.021445 -0.049379
v -0.077824 -0.035490 -0.051114
v -0.063735 -0.041219 -0.052849
v -0.049647 -0.035276 -0.053569
v -0.043811 -0.021143 -0.052851
v -0.049647 -0.007098 -0.051117
v -0.063735 -0.001339 -0.049767
v -0.076796 -0.007550 -0.044750
v -0.082206 -0.021811 -0.043463
v -0.076796 -0.035770 -0.046657
v -0.063735 -0.041248 -0.052464
v -0.050674 -0.035038 -0.057480
v -0.045265 -0.020777 -0.058768
v -0.050674 -0.006818 -0.055573
v -0.053410 -0.003016 -0.024960
v -0.066471 -0.009226 -0.019944
v -0.071881 -0.023487 -0.018656
v -0.066471 -0.037446 -0.021851
v -0.053410 -0.042925 -0.027657
v -0.040349 -0.036715 -0.032673
v -0.034940 -0.022453 -0.033961
v -0.040349 -0.008495 -0.030766
v 0.000000 -0.019988 0.000681
v -0.012491 -0.013908 0.007109
v -0.017665 0.000319 0.009373
v -0.012491 0.014360 0.006147
v -0.000000 0.019988 -0.000681
v 0.012491 0.013908 -0.007109
v 0.017665 -0.000319 -0.009373
v 0.012491 -0.014360 -0.006147
v -0.037277 -0.022377 -0.069491
v -0.049768 -0.016297 -0.063063
v -0.054942 -0.002070 -0.060798
v -0.049768 0.011971 -0.064025
v -0.037277 0.017599 -0.070852
v -0.024786 0.011519 -0.077280
v -0.019612 -0.002708 -0.079545
v -0.024786 -0.016749 -0.076318
v -0.043428 -0.002389 -0.089202
v -0.039198 -0.016299 -0.084413
v -0.033843 -0.022061 -0.071281
v -0.030499 -0.016299 -0.057500
v -0.031125 -0.002389 -0.051141
v -0.035355 0.011521 -0.055930
v -0.040710 0.017283 -0.069062
v -0.044054 0.011521 -0.082843
v -0.059694 -0.005525 -0.083944
v -0.055464 -0.019435 -0.079155
v -0.050109 -0.025197 -0.066024
v -0.046765 -0.019435 -0.052242
v -0.047391 -0.005525 -0.045883
v -0.051621 0.008385 -0.050672
v -0.056976 0.014147 -0.063804
v -0.060320 0.008385 -0.077586
v -0.053543 0.014177 -0.061476
v -0.066825 0.009241 -0.067266
v -0.072327 -0.004344 -0.071678
v -0.066825 -0.018622 -0.072128
v -0.053543 -0.025227 -0.068352
v -0.040260 -0.020291 -0.062562
v -0.034758 -0.006705 -0.058150
v -0.040260 0.007572 -0.057700
v -0.061054 0.010645 -0.041233
v -0.074336 0.005709 -0.047023
v -0.079838 -0.007877 -0.051435
v -0.074336 -0.022154 -0.051885
v -0.061054 -0.028760 -0.048109
v -0.047771 -0.023824 -0.042319
v -0.042269 -0.010238 -0.037907
v -0.047771 0.004040 -0.037457
v -0.061054 0.010404 -0.040061
v -0.071025 0.002392 -0.031652
v -0.075155 -0.012327 -0.030870
v -0.071025 -0.025130 -0.038172
v -0.061054 -0.028519 -0.049281
v -0.051083 -0.020507 -0.057690
v -0.046953 -0.005788 -0.058473
v -0.051083 0.007016 -0.051170
v -0.047083 0.007203 -0.026545
v -0.057054 -0.000809 -0.018137
v -0.061184 -0.015528 -0.017354
v -0.057054 -0.028332 -0.024656
v -0.047083 -0.031720 -0.035766
v -0.037112 -0.023708 -0.044174
v -0.032982 -0.008990 -0.044957
v -0.037112 0.003814 -0.037655
v -0.015000 -0.015000 -0.015000
v 0.015000 -0.015000 -0.015000
v 0.015000 0.015000 -0.015000
v -0.015000 0.015000 -0.015000
v -0.015000 -0.015000 0.015000
v 0.015000 -0.015000 0.015000
v 0.015000 0.015000 0.015000
v -0.015000 0.015000 0.015000
v -0.038847 -0.041336 -0.026099
v -0.008847 -0.041336 -0.026099
v -0.008847 -0.011336 -0.026099
v -0.038847 -0.011336 -0.026099
v -0.038847 -0.041336 0.003901
v -0.008847 -0.041336 0.003901
v -0.008847 -0.011336 0.003901
v -0.038847 -0.011336 0.003901
v -0.059167 -0.046876 -0.039798
v -0.029167 -0.046876 -0.039798
v -0.029167 -0.016876 -0.039798
v -0.059167 -0.016876 -0.039798
v -0.059167 -0.046876 -0.009798
v -0.029167 -0.046876 -0.009798
v -0.029167 -0.016876 -0.009798
v -0.059167 -0.016876 -0.009798
v -0.079192 -0.042786 -0.064738
v -0.049192 -0.042786 -0.064738
v -0.049192 -0.012786 -0.064738
v -0.079192 -0.012786 -0.064738
v -0.079192 -0.042786 -0.034738
v -0.049192 -0.042786 -0.034738
v -0.049192 -0.012786 -0.034738
v -0.079192 -0.012786 -0.034738
v -0.093652 -0.043370 -0.089126
v -0.063652 -0.043370 -0.089126
v -0.063652 -0.013370 -0.089126
v -0.093652 -0.013370 -0.089126
v -0.093652 -0.043370 -0.059126
v -0.063652 -0.043370 -0.059126
v -0.063652 -0.013370 -0.059126
v -0.093652 -0.013370 -0.059126
v -0.058550 -0.060629 -0.087000
v -0.028550 -0.060629 -0.087000
v -0.028550 -0.030629 -0.087000
v -0.058550 -0.030629 -0.087000
v -0.058550 -0.060629 -0.057000
v -0.028550 -0.060629 -0.057000
v -0.028550 -0.030629 -0.057000
v -0.058550 -0.030629 -0.057000
v -0.081535 -0.060826 -0.092114
v -0.051535 -0.060826 -0.092114
v -0.051535 -0.030826 -0.092114
v -0.081535 -0.030826 -0.092114
v -0.081535 -0.060826 -0.062114
v -0.051535 -0.060826 -0.062114
v -0.051535 -0.030826 -0.062114
v -0.081535 -0.030826 -0.062114
v -0.102259 -0.061802 -0.079076
v -0.072259 -0.061802 -0.079076
v -0.072259 -0.031802 -0.079076
v -0.102259 -0.031802 -0.079076
v -0.102259 -0.061802 -0.049076
v -0.072259 -0.061802 -0.049076
v -0.072259 -0.031802 -0.049076
v -0.102259 -0.031802 -0.049076
v -0.123097 -0.053708 -0.064103
v -0.093097 -0.053708 -0.064103
v -0.093097 -0.023708 -0.064103
v -0.123097 -0.023708 -0.064103
v -0.123097 -0.053708 -0.034103
v -0.093097 -0.053708 -0.034103
v -0.093097 -0.023708 -0.034103
v -0.123097 -0.023708 -0.034103
v -0.053586 -0.048069 -0.093123
v -0.023586 -0.048069 -0.093123
v -0.023586 -0.018069 -0.093123
v -0.053586 -0.018069 -0.093123
v -0.053586 -0.048069 -0.063123
v -0.023586 -0.048069 -0.063123
v -0.023586 -0.018069 -0.063123
v -0.053586 -0.018069 -0.063123
v -0.084035 -0.055482 -0.097611
v -0.054035 -0.055482 -0.097611
v -0.054035 -0.025482 -0.097611
v -0.084035 -0.025482 -0.097611
v -0.084035 -0.055482 -0.067611
v -0.054035 -0.055482 -0.067611
v -0.054035 -0.025482 -0.067611
v -0.084035 -0.025482 -0.067611
v -0.108219 -0.050590 -0.089010
v -0.078219 -0.050590 -0.089010
v -0.078219 -0.020590 -0.089010
v -0.108219 -0.020590 -0.089010
v -0.108219 -0.050590 -0.059010
v -0.078219 -0.050590 -0.059010
v -0.078219 -0.020590 -0.059010
v -0.108219 -0.020590 -0.059010
v -0.138401 -0.047845 -0.070523
v -0.108401 -0.047845 -0.070523
v -0.108401 -0.017845 -0.070523
v -0.138401 -0.017845 -0.070523
v -0.138401 -0.047845 -0.040523
v -0.108401 -0.047845 -0.040523
v -0.108401 -0.017845 -0.040523
v -0.138401 -0.017845 -0.040523
v -0.055239 -0.037348 -0.095313
v -0.025239 -0.037348 -0.095313
v -0.025239 -0.007348 -0.095313
v -0.055239 -0.007348 -0.095313
v -0.055239 -0.037348 -0.065313
v -0.025239 -0.037348 -0.065313
v -0.025239 -0.007348 -0.065313
v -0.055239 -0.007348 -0.065313
v -0.080776 -0.034272 -0.089358
v -0.050776 -0.034272 -0.089358
v -0.050776 -0.004272 -0.089358
v -0.080776 -0.004272 -0.089358
v -0.080776 -0.034272 -0.059358
v -0.050776 -0.034272 -0.059358
v -0.050776 -0.004272 -0.059358
v -0.080776 -0.004272 -0.059358
v -0.078735 -0.036294 -0.066115
v -0.048735 -0.036294 -0.066115
v -0.048735 -0.006294 -0.066115
v -0.078735 -0.006294 -0.066115
v -0.078735 -0.036294 -0.036115
v -0.048735 -0.036294 -0.036115
v -0.048735 -0.006294 -0.036115
v -0.078735 -0.006294 -0.036115
v -0.068410 -0.037970 -0.041308
v -0.038410 -0.037970 -0.041308
v -0.038410 -0.007970 -0.041308
v -0.068410 -0.007970 -0.041308
v -0.068410 -0.037970 -0.011308
v -0.038410 -0.037970 -0.011308
v -0.038410 -0.007970 -0.011308
v -0.068410 -0.007970 -0.011308
v -0.052277 -0.017389 -0.085172
v -0.022277 -0.017389 -0.085172
v -0.022277 0.012611 -0.085172
v -0.052277 0.012611 -0.085172
v -0.052277 -0.017389 -0.055172
v -0.022277 -0.017389 -0.055172
v -0.022277 0.012611 -0.055172
v -0.052277 0.012611 -0.055172
v -0.068543 -0.020525 -0.079914
v -0.038543 -0.020525 -0.079914
v -0.038543 0.009475 -0.079914
v -0.068543 0.009475 -0.079914
v -0.068543 -0.020525 -0.049914
v -0.038543 -0.020525 -0.049914
v -0.038543 0.009475 -0.049914
v -0.068543 0.009475 -0.049914
v -0.076054 -0.024057 -0.059671
v -0.046054 -0.024057 -0.059671
v -0.046054 0.005943 -0.059671
v -0.076054 0.005943 -0.059671
v -0.076054 -0.024057 -0.029671
v -0.046054 -0.024057 -0.029671
v -0.046054 0.005943 -0.029671
v -0.076054 0.005943 -0.029671
v -0.062083 -0.027259 -0.046156
v -0.032083 -0.027259 -0.046156
v -0.032083 0.002741 -0.046156
v -0.062083 0.002741 -0.046156
v -0.062083 -0.027259 -0.016156
v -0.032083 -0.027259 -0.016156
v -0.032083 0.002741 -0.016156
v -0.062083 0.002741 -0.016156
f 1 2 9
f 2 10 9
f 2 3 10
f 3 11 10
f 3 4 11
f 4 12 11
f 4 5 12
f 5 13 12
f 5 6 13
f 6 14 13
f 6 7 14
f 7 15 14
f 7 8 15
f 8 16 15
f 8 1 16
f 1 9 16
f 17 18 25
f 18 26 25
f 18 19 26
f 19 27 26
f 19 20 27
f 20 28 27
f 20 21 28
f 21 29 28
f 21 22 29
f 22 30 29
f 22 23 30
f 23 31 30
f 23 24 31
f 24 32 31
f 24 17 32
f 17 25 32
f 33 34 41
f 34 42 41
f 34 35 42
f 35 43 42
f 35 36 43
f 36 44 43
f 36 37 44
f 37 45 44
f 37 38 45
f 38 46 45
f 38 39 46
f 39 47 46
f 39 40 47
f 40 48 47
f 40 33 48
f 33 41 48
f 49 50 57
f 50 58 57
f 50 51 58
f 51 59 58
f 51 52 59
f 52 60 59
f 52 53 60
f 53 61 60
f 53 54 61
f 54 62 61
f 54 55 62
f 55 63 62
f 55 56 63
f 56 64 63
f 56 49 64
f 49 57 64
f 65 66 73
f 66 74 73
f 66 67 74
f 67 75 74
f 67 68 75
f 68 76 75
f 68 69 76
f 69 77 76
f 69 70 77
f 70 78 77
f 70 71 78
f 71 79 78
f 71 72 79
f 72 80 79
f 72 65 80
f 65 73 80
f 81 82 89
f 82 90 89
f 82 83 90
f 83 91 90
f 83 84 91
f 84 92 91
f 84 85 92
f 85 93 92
f 85 86 93
f 86 94 93
f 86 87 94
f 87 95 94
f 87 88 95
f 88 96 95
f 88 81 96
f 81 89 96
f 97 98 105
f 98 106 105
f 98 99 106
f 99 107 106
f 99 100 107
f 100 108 107
f 100 101 108
f 101 109 108
f 101 102 109
f 102 110 109
f 102 103 110
f 103 111 110
f 103 104 111
f 104 112 111
f 104 97 112
f 97 105 112
f 113 114 121
f 114 122 121
f 114 115 122
f 115 123 122
f 115 116 123
f 116 124 123
f 116 117 124
f 117 125 124
f 117 118 125
f 118 126 125
f 118 119 126
f 119 127 126
f 119 120 127
f 120 128 127
f 120 113 128
f 113 121 128
f 129 130 137
f 130 138 137
f 130 131 138
f 131 139 138
f 131 132 139
f 132 140 139
f 132 133 140
f 133 141 140
f 133 134 141
f 134 142 141
f 134 135 142
f 135 143 142
f 135 136 143
f 136 144 143
f 136 129 144
f 129 137 144
f 145 146 153
f 146 154 153
f 146 147 154
f 147 155 154
f 147 148 155
f 148 156 155
f 148 149 156
f 149 157 156
f 149 150 157
f 150 158 157
f 150 151 158
f 151 159 158
f 151 152 159
f 152 160 159
f 152 145 160
f 145 153 160
f 161 162 169
f 162 170 169
f 162 163 170
f 163 171 170
f 163 164 171
f 164 172 171
f 164 165 172
f 165 173 172
f 165 166 173
f 166 174 173
f 166 167 174
f 167 175 174
f 167 168 175
f 168 176 175
f 168 161 176
f 161 169 176
f 177 178 185
f 178 186 185
f 178 179 186
f 179 187 186
f 179 180 187
f 180 188 187
f 180 181 188
f 181 189 188
f 181 182 189
f 182 190 189
f 182 183 190
f 183 191 190
f 183 184 191
f 184 192 191
f 184 177 192
f 177 185 192
f 193 194 201
f 194 202 201
f 194 195 202
f 195 203 202
f 195 196 203
f 196 204 203
f 196 197 204
f 197 205 204
f 197 198 205
f 198 206 205
f 198 199 206
f 199 207 206
f 199 200 207
f 200 208 207
f 200 193 208
f 193 201 208
f 209 210 217
f 210 218 217
f 210 211 218
f 211 219 218
f 211 212 219
f 212 220 219
f 212 213 220
f 213 221 220
f 213 214 221
f 214 222 221
f 214 215 222
f 215 223 222
f 215 216 223
f 216 224 223
f 216 209 224
f 209 217 224
f 225 226 233
f 226 234 233
f 226 227 234
f 227 235 234
f 227 228 235
f 228 236 235
f 228 229 236
f 229 237 236
f 229 230 237
f 230 238 237
f 230 231 238
f 231 239 238
f 231 232 239
f 232 240 239
f 232 225 240
f 225 233 240
f 241 242 249
f 242 250 249
f 242 243 250
f 243 251 250
f 243 244 251
f 244 252 251
f 244 245 252
f 245 253 252
f 245 246 253
f 246 254 253
f 246 247 254
f 247 255 254
f 247 248 255
f 248 256 255
f 248 241 256
f 241 249 256
f 257 258 265
f 258 266 265
f 258 259 266
f 259 267 266
f 259 260 267
f 260 268 267
f 260 261 268
f 261 269 268
f 261 262 269
f 262 270 269
f 262 263 270
f 263 271 270
f 263 264 271
f 264 272 271
f 264 257 272
f 257 265 272
f 273 274 281
f 274 282 281
f 274 275 282
f 275 283 282
f 275 276 283
f 276 284 283
f 276 277 284
f 277 285 284
f 277 278 285
f 278 286 285
f 278 279 286
f 279 287 286
f 279 280 287
f 280 288 287
f 280 273 288
f 273 281 288
f 289 290 297
f 290 298 297
f 290 291 298
f 291 299 298
f 291 292 299
f 292 300 299
f 292 293 300
f 293 301 300
f 293 294 301
f 294 302 301
f 294 295 302
f 295 303 302
f 295 296 303
f 296 304 303
f 296 289 304
f 289 297 304
f 305 306 313
f 306 314 313
f 306 307 314
f 307 315 314
f 307 308 315
f 308 316 315
f 308 309 316
f 309 317 316
f 309 310 317
f 310 318 317
f 310 311 318
f 311 319 318
f 311 312 319
f 312 320 319
f 312 305 320
f 305 313 320
f 321 322 323
f 321 323 324
f 325 326 327
f 325 327 328
f 321 325 326
f 321 326 322
f 322 326 327
f 322 327 323
f 323 327 328
f 323 328 324
f 324 328 325
f 324 325 321
f 329 330 331
f 329 331 332
f 333 334 335
f 333 335 336
f 329 333 334
f 329 334 330
f 330 334 335
f 330 335 331
f 331 335 336
f 331 336 332
f 332 336 333
f 332 333 329
f 337 338 339
f 337 339 340
f 341 342 343
f 341 343 344
f 337 341 342
f 337 342 338
f 338 342 343
f 338 343 339
f 339 343 344
f 339 344 340
f 340 344 341
f 340 341 337
f 345 346 347
f 345 347 348
f 349 350 351
f 349 351 352
f 345 349 350
f 345 350 346
f 346 350 351
f 346 351 347
f 347 351 352
f 347 352 348
f 348 352 349
f 348 349 345
f 353 354 355
f 353 355 356
f 357 358 359
f 357 359 360
f 353 357 358
f 353 358 354
f 354 358 359
f 354 359 355
f 355 359 360
f 355 360 356
f 356 360 357
f 356 357 353
f 361 362 363
f 361 363 364
f 365 366 367
f 365 367 368
f 361 365 366
f 361 366 362
f 362 366 367
f 362 367 363
f 363 367 368
f 363 368 364
f 364 368 365
f 364 365 361
f 369 370 371
f 369 371 372
f 373 374 375
f 373 375 376
f 369 373 374
f 369 374 370
f 370 374 375
f 370 375 371
f 371 375 376
f 371 376 372
f 372 376 373
f 372 373 369
f 377 378 379
f 377 379 380
f 381 382 383
f 381 383 384
f 377 381 382
f 377 382 378
f 378 382 383
f 378 383 379
f 379 383 384
f 379 384 380
f 380 384 381
f 380 381 377
f 385 386 387
f 385 387 388
f 389 390 391
f 389 391 392
f 385 389 390
f 385 390 386
f 386 390 391
f 386 391 387
f 387 391 392
f 387 392 388
f 388 392 389
f 388 389 385
f 393 394 395
f 393 395 396
f 397 398 399
f 397 399 400
f 393 397 398
f 393 398 394
f 394 398 399
f 394 399 395
f 395 399 400
f 395 400 396
f 396 400 397
f 396 397 393
f 401 402 403
f 401 403 404
f 405 406 407
f 405 407 408
f 401 405 406
f 401 406 402
f 402 406 407
f 402 407 403
f 403 407 408
f 403 408 404
f 404 408 405
f 404 405 401
f 409 410 411
f 409 411 412
f 413 414 415
f 413 415 416
f 409 413 414
f 409 414 410
f 410 414 415
f 410 415 411
f 411 415 416
f 411 416 412
f 412 416 413
f 412 413 409
f 417 418 419
f 417 419 420
f 421 422 423
f 421 423 424
f 417 421 422
f 417 422 418
f 418 422 423
f 418 423 419
f 419 423 424
f 419 424 420
f 420 424 421
f 420 421 417
f 425 426 427
f 425 427 428
f 429 430 431
f 429 431 432
f 425 429 430
f 425 430 426
f 426 430 431
f 426 431 427
f 427 431 432
f 427 432 428
f 428 432 429
f 428 429 425
f 433 434 435
f 433 435 436
f 437 438 439
f 437 439 440
f 433 437 438
f 433 438 434
f 434 438 439
f 434 439 435
f 435 439 440
f 435 440 436
f 436 440 437
f 436 437 433
f 441 442 443
f 441 443 444
f 445 446 447
f 445 447 448
f 441 445 446
f 441 446 442
f 442 446 447
f 442 447 443
f 443 447 448
f 443 448 444
f 444 448 445
f 444 445 441
f 449 450 451
f 449 451 452
f 453 454 455
f 453 455 456
f 449 453 454
f 449 454 450
f 450 454 455
f 450 455 451
f 451 455 456
f 451 456 452
f 452 456 453
f 452 453 449
f 457 458 459
f 457 459 460
f 461 462 463
f 461 463 464
f 457 461 462
f 457 462 458
f 458 462 463
f 458 463 459
f 459 463 464
f 459 464 460
f 460 464 461
f 460 461 457
f 465 466 467
f 465 467 468
f 469 470 471
f 469 471 472
f 465 469 470
f 465 470 466
f 466 470 471
f 466 471 467
f 467 471 472
f 467 472 468
f 468 472 469
f 468 469 465
f 473 474 475
f 473 475 476
f 477 478 479
f 477 479 480
f 473 477 478
f 473 478 474
f 474 478 479
f 474 479 475
f 475 479 480
f 475 480 476
f 476 480 477
f 476 477 473
f 481 482 483
f 481 483 484
f 485 486 487
f 485 487 488
f 481 485 486
f 481 486 482
f 482 486 487
f 482 487 483
f 483 487 488
f 483 488 484
f 484 488 485
f 484 485 481
f 489 490 497
f 490 498 497
f 490 491 498
f 491 499 498
f 491 492 499
f 492 500 499
f 492 493 500
f 493 501 500
f 493 494 501
f 494 502 501
f 494 495 502
f 495 503 502
f 495 496 503
f 496 504 503
f 496 489 504
f 489 497 504
f 505 506 513
f 506 514 513
f 506 507 514
f 507 515 514
f 507 508 515
f 508 516 515
f 508 509 516
f 509 517 516
f 509 510 517
f 510 518 517
f 510 511 518
f 511 519 518
f 511 512 519
f 512 520 519
f 512 505 520
f 505 513 520
f 521 522 529
f 522 530 529
f 522 523 530
f 523 531 530
f 523 524 531
f 524 532 531
f 524 525 532
f 525 533 532
f 525 526 533
f 526 534 533
f 526 527 534
f 527 535 534
f 527 528 535
f 528 536 535
f 528 521 536
f 521 529 536
f 537 538 545
f 538 546 545
f 538 539 546
f 539 547 546
f 539 540 547
f 540 548 547
f 540 541 548
f 541 549 548
f 541 542 549
f 542 550 549
f 542 543 550
f 543 551 550
f 543 544 551
f 544 552 551
f 544 537 552
f 537 545 552
f 553 554 561
f 554 562 561
f 554 555 562
f 555 563 562
f 555 556 563
f 556 564 563
f 556 557 564
f 557 565 564
f 557 558 565
f 558 566 565
f 558 559 566
f 559 567 566
f 559 560 567
f 560 568 567
f 560 553 568
f 553 561 568
f 569 570 577
f 570 578 577
f 570 571 578
f 571 579 578
f 571 572 579
f 572 580 579
f 572 573 580
f 573 581 580
f 573 574 581
f 574 582 581
f 574 575 582
f 575 583 582
f 575 576 583
f 576 584 583
f 576 569 584
f 569 577 584
f 585 586 593
f 586 594 593
f 586 587 594
f 587 595 594
f 587 588 595
f 588 596 595
f 588 589 596
f 589 597 596
f 589 590 597
f 590 598 597
f 590 591 598
f 591 599 598
f 591 592 599
f 592 600 599
f 592 585 600
f 585 593 600
f 601 602 609
f 602 610 609
f 602 603 610
f 603 611 610
f 603 604 611
f 604 612 611
f 604 605 612
f 605 613 612
f 605 606 613
f 606 614 613
f 606 607 614
f 607 615 614
f 607 608 615
f 608 616 615
f 608 601 616
f 601 609 616
f 617 618 625
f 618 626 625
f 618 619 626
f 619 627 626
f 619 620 627
f 620 628 627
f 620 621 628
f 621 629 628
f 621 622 629
f 622 630 629
f 622 623 630
f 623 631 630
f 623 624 631
f 624 632 631
f 624 617 632
f 617 625 632
f 633 634 641
f 634 642 641
f 634 635 642
f 635 643 642
f 635 636 643
f 636 644 643
f 636 637 644
f 637 645 644
f 637 638 645
f 638 646 645
f 638 639 646
f 639 647 646
f 639 640 647
f 640 648 647
f 640 633 648
f 633 641 648
f 649 650 657
f 650 658 657
f 650 651 658
f 651 659 658
f 651 652 659
f 652 660 659
f 652 653 660
f 653 661 660
f 653 654 661
f 654 662 661
f 654 655 662
f 655 663 662
f 655 656 663
f 656 664 663
f 656 649 664
f 649 657 664
f 665 666 673
f 666 674 673
f 666 667 674
f 667 675 674
f 667 668 675
f 668 676 675
f 668 669 676
f 669 677 676
f 669 670 677
f 670 678 677
f 670 671 678
f 671 679 678
f 671 672 679
f 672 680 679
f 672 665 680
f 665 673 680
f 681 682 689
f 682 690 689
f 682 683 690
f 683 691 690
f 683 684 691
f 684 692 691
f 684 685 692
f 685 693 692
f 685 686 693
f 686 694 693
f 686 687 694
f 687 695 694
f 687 688 695
f 688 696 695
f 688 681 696
f 681 689 696
f 697 698 705
f 698 706 705
f 698 699 706
f 699 707 706
f 699 700 707
f 700 708 707
f 700 701 708
f 701 709 708
f 701 702 709
f 702 710 709
f 702 703 710
f 703 711 710
f 703 704 711
f 704 712 711
f 704 697 712
f 697 705 712
f 713 714 721
f 714 722 721
f 714 715 722
f 715 723 722
f 715 716 723
f 716 724 723
f 716 717 724
f 717 725 724
f 717 718 725
f 718 726 725
f 718 719 726
f 719 727 726
f 719 720 727
f 720 728 727
f 720 713 728
f 713 721 728
f 729 730 737
f 730 738 737
f 730 731 738
f 731 739 738
f 731 732 739
f 732 740 739
f 732 733 740
f 733 741 740
f 733 734 741
f 734 742 741
f 734 735 742
f 735 743 742
f 735 736 743
f 736 744 743
f 736 729 744
f 729 737 744
f 745 746 753
f 746 754 753
f 746 747 754
f 747 755 754
f 747 748 755
f 748 756 755
f 748 749 756
f 749 757 756
f 749 750 757
f 750 758 757
f 750 751 758
f 751 759 758
f 751 752 759
f 752 760 759
f 752 745 760
f 745 753 760
f 761 762 769
f 762 770 769
f 762 763 770
f 763 771 770
f 763 764 771
f 764 772 771
f 764 765 772
f 765 773 772
f 765 766 773
f 766 774 773
f 766 767 774
f 767 775 774
f 767 768 775
f 768 776 775
f 768 761 776
f 761 769 776
f 777 778 785
f 778 786 785
f 778 779 786
f 779 787 786
f 779 780 787
f 780 788 787
f 780 781 788
f 781 789 788
f 781 782 789
f 782 790 789
f 782 783 790
f 783 791 790
f 783 784 791
f 784 792 791
f 784 777 792
f 777 785 792
f 793 794 801
f 794 802 801
f 794 795 802
f 795 803 802
f 795 796 803
f 796 804 803
f 796 797 804
f 797 805 804
f 797 798 805
f 798 806 805
f 798 799 806
f 799 807 806
f 799 800 807
f 800 808 807
f 800 793 808
f 793 801 808
f 809 810 811
f 809 811 812
f 813 814 815
f 813 815 816
f 809 813 814
f 809 814 810
f 810 814 815
f 810 815 811
f 811 815 816
f 811 816 812
f 812 816 813
f 812 813 809
f 817 818 819
f 817 819 820
f 821 822 823
f 821 823 824
f 817 821 822
f 817 822 818
f 818 822 823
f 818 823 819
f 819 823 824
f 819 824 820
f 820 824 821
f 820 821 817
f 825 826 827
f 825 827 828
f 829 830 831
f 829 831 832
f 825 829 830
f 825 830 826
f 826 830 831
f 826 831 827
f 827 831 832
f 827 832 828
f 828 832 829
f 828 829 825
f 833 834 835
f 833 835 836
f 837 838 839
f 837 839 840
f 833 837 838
f 833 838 834
f 834 838 839
f 834 839 835
f 835 839 840
f 835 840 836
f 836 840 837
f 836 837 833
f 841 842 843
f 841 843 844
f 845 846 847
f 845 847 848
f 841 845 846
f 841 846 842
f 842 846 847
f 842 847 843
f 843 847 848
f 843 848 844
f 844 848 845
f 844 845 841
f 849 850 851
f 849 851 852
f 853 854 855
f 853 855 856
f 849 853 854
f 849 854 850
f 850 854 855
f 850 855 851
f 851 855 856
f 851 856 852
f 852 856 853
f 852 853 849
f 857 858 859
f 857 859 860
f 861 862 863
f 861 863 864
f 857 861 862
f 857 862 858
f 858 862 863
f 858 863 859
f 859 863 864
f 859 864 860
f 860 864 861
f 860 861 857
f 865 866 867
f 865 867 868
f 869 870 871
f 869 871 872
f 865 869 870
f 865 870 866
f 866 870 871
f 866 871 867
f 867 871 872
f 867 872 868
f 868 872 869
f 868 869 865
f 873 874 875
f 873 875 876
f 877 878 879
f 877 879 880
f 873 877 878
f 873 878 874
f 874 878 879
f 874 879 875
f 875 879 880
f 875 880 876
f 876 880 877
f 876 877 873
f 881 882 883
f 881 883 884
f 885 886 887
f 885 887 888
f 881 885 886
f 881 886 882
f 882 886 887
f 882 887 883
f 883 887 888
f 883 888 884
f 884 888 885
f 884 885 881
f 889 890 891
f 889 891 892
f 893 894 895
f 893 895 896
f 889 893 894
f 889 894 890
f 890 894 895
f 890 895 891
f 891 895 896
f 891 896 892
f 892 896 893
f 892 893 889
f 897 898 899
f 897 899 900
f 901 902 903
f 901 903 904
f 897 901 902
f 897 902 898
f 898 902 903
f 898 903 899
f 899 903 904
f 899 904 900
f 900 904 901
f 900 901 897
f 905 906 907
f 905 907 908
f 909 910 911
f 909 911 912
f 905 909 910
f 905 910 906
f 906 910 911
f 906 911 907
f 907 911 912
f 907 912 908
f 908 912 909
f 908 909 905
f 913 914 915
f 913 915 916
f 917 918 919
f 917 919 920
f 913 917 918
f 913 918 914
f 914 918 919
f 914 919 915
f 915 919 920
f 915 920 916
f 916 920 917
f 916 917 913
f 921 922 923
f 921 923 924
f 925 926 927
f 925 927 928
f 921 925 926
f 921 926 922
f 922 926 927
f 922 927 923
f 923 927 928
f 923 928 924
f 924 928 925
f 924 925 921
f 929 930 931
f 929 931 932
f 933 934 935
f 933 935 936
f 929 933 934
f 929 934 930
f 930 934 935
f 930 935 931
f 931 935 936
f 931 936 932
f 932 936 933
f 932 933 929
f 937 938 939
f 937 939 940
f 941 942 943
f 941 943 944
f 937 941 942
f 937 942 938
f 938 942 943
f 938 943 939
f 939 943 944
f 939 944 940
f 940 944 941
f 940 941 937
f 945 946 947
f 945 947 948
f 949 950 951
f 949 951 952
f 945 949 950
f 945 950 946
f 946 950 951
f 946 951 947
f 947 951 952
f 947 952 948
f 948 952 949
f 948 949 945
f 953 954 955
f 953 955 956
f 957 958 959
f 957 959 960
f 953 957 958
f 953 958 954
f 954 958 959
f 954 959 955
f 955 959 960
f 955 960 956
f 956 960 957
f 956 957 953
f 961 962 963
f 961 963 964
f 965 966 967
f 965 967 968
f 961 965 966
f 961 966 962
f 962 966 967
f 962 967 963
f 963 967 968
f 963 968 964
f 964 968 965
f 964 965 961
f 969 970 971
f 969 971 972
f 973 974 975
f 973 975 976
f 969 973 974
f 969 974 970
f 970 974 975
f 970 975 971
f 971 975 976
f 971 976 972
f 972 976 973
f 972 973 969
