# SignFlow 3D Hand Mesh - Frame 310
v 0.002049 0.000000 0.019895
v -0.002295 -0.013632 0.014453
v -0.005294 -0.019279 0.000545
v -0.005192 -0.013632 -0.013682
v -0.002049 -0.000000 -0.019895
v 0.002295 0.013632 -0.014453
v 0.005294 0.019279 -0.000545
v 0.005192 0.013632 0.013682
v 0.042890 -0.011334 0.015689
v 0.038547 -0.024966 0.010247
v 0.035547 -0.030613 -0.003661
v 0.035649 -0.024966 -0.017888
v 0.038793 -0.011334 -0.024101
v 0.043136 0.002298 -0.018659
v 0.046136 0.007945 -0.004751
v 0.046034 0.002298 0.009476
v 0.040842 -0.003117 0.014028
v 0.031956 -0.015554 0.013208
v 0.028275 -0.025519 0.002187
v 0.031956 -0.027175 -0.012579
v 0.040842 -0.019552 -0.022440
v 0.049727 -0.007114 -0.021620
v 0.053408 0.002851 -0.010599
v 0.049727 0.004507 0.004167
v 0.072242 -0.026237 0.024448
v 0.063356 -0.038675 0.023628
v 0.059676 -0.048640 0.012607
v 0.063356 -0.050296 -0.002159
v 0.072242 -0.042672 -0.012020
v 0.081128 -0.030235 -0.011200
v 0.084808 -0.020270 -0.000179
v 0.081128 -0.018614 0.014587
v 0.072242 -0.024361 0.023480
v 0.061283 -0.035035 0.022935
v 0.056744 -0.045369 0.012594
v 0.061283 -0.049309 -0.001484
v 0.072242 -0.044548 -0.011052
v 0.083200 -0.033875 -0.010506
v 0.087740 -0.023541 -0.000166
v 0.083200 -0.019600 0.013912
v 0.096164 -0.049678 0.038280
v 0.085205 -0.060352 0.037734
v 0.080666 -0.070686 0.027394
v 0.085205 -0.074626 0.013316
v 0.096164 -0.069865 0.003747
v 0.107122 -0.059191 0.004293
v 0.111661 -0.048857 0.014633
v 0.107122 -0.044917 0.028711
v 0.096164 -0.046939 0.036354
v 0.084645 -0.056991 0.037125
v 0.079874 -0.068672 0.028458
v 0.084645 -0.075139 0.015430
v 0.096164 -0.072604 0.005673
v 0.107682 -0.062552 0.004902
v 0.112453 -0.050871 0.013569
v 0.107682 -0.044404 0.026597
v 0.116853 -0.069218 0.054990
v 0.105335 -0.079270 0.055761
v 0.100563 -0.090951 0.047094
v 0.105335 -0.097418 0.034066
v 0.116853 -0.094883 0.024309
v 0.128372 -0.084831 0.023538
v 0.133143 -0.073150 0.032204
v 0.128372 -0.066683 0.045232
v 0.000000 0.008159 0.018260
v -0.010603 -0.002775 0.016730
v -0.014995 -0.012083 0.005399
v -0.010603 -0.014314 -0.009094
v -0.000000 -0.008159 -0.018260
v 0.010603 0.002775 -0.016730
v 0.014995 0.012083 -0.005399
v 0.010603 0.014314 0.009094
v 0.066266 -0.060387 0.048890
v 0.055663 -0.071321 0.047360
v 0.051271 -0.080629 0.036029
v 0.055663 -0.082860 0.021536
v 0.066266 -0.076705 0.012370
v 0.076869 -0.065771 0.013900
v 0.081261 -0.056463 0.025231
v 0.076869 -0.054232 0.039724
v 0.066266 -0.085723 0.040874
v 0.053304 -0.083589 0.033016
v 0.047935 -0.072643 0.023760
v 0.053304 -0.059297 0.018528
v 0.066266 -0.051369 0.020386
v 0.079228 -0.053503 0.028244
v 0.084597 -0.064449 0.037500
v 0.079228 -0.077795 0.042731
v 0.077532 -0.098948 0.018700
v 0.064570 -0.096814 0.010842
v 0.059201 -0.085868 0.001586
v 0.064570 -0.072522 -0.003645
v 0.077532 -0.064593 -0.001788
v 0.090494 -0.066727 0.006070
v 0.095863 -0.077673 0.015326
v 0.090494 -0.091020 0.020557
v 0.077532 -0.097077 -0.004417
v 0.064295 -0.095799 0.003165
v 0.058813 -0.086303 0.013846
v 0.064295 -0.074152 0.021370
v 0.077532 -0.066464 0.021329
v 0.090768 -0.067742 0.013747
v 0.096251 -0.077238 0.003066
v 0.090768 -0.089389 -0.004458
v 0.072583 -0.088610 -0.014485
v 0.059346 -0.087332 -0.006903
v 0.053864 -0.077836 0.003778
v 0.059346 -0.065685 0.011302
v 0.072583 -0.057997 0.011261
v 0.085819 -0.059275 0.003679
v 0.091302 -0.068770 -0.007002
v 0.085819 -0.080921 -0.014526
v 0.072583 -0.068695 -0.021074
v 0.059987 -0.076303 -0.016855
v 0.054770 -0.082154 -0.003708
v 0.059987 -0.082820 0.010668
v 0.072583 -0.077912 0.017850
v 0.085178 -0.070304 0.013632
v 0.090395 -0.064453 0.000484
v 0.085178 -0.063786 -0.013891
v 0.061708 -0.047971 -0.016166
v 0.049112 -0.055579 -0.011948
v 0.043895 -0.061430 0.001200
v 0.049112 -0.062096 0.015575
v 0.061708 -0.057188 0.022757
v 0.074303 -0.049580 0.018539
v 0.079520 -0.043729 0.005391
v 0.074303 -0.043062 -0.008984
v 0.000000 0.008067 0.018301
v -0.012727 0.000061 0.015428
v -0.017998 -0.007981 0.003518
v -0.012727 -0.011348 -0.010453
v -0.000000 -0.008067 -0.018301
v 0.012727 -0.000061 -0.015428
v 0.017998 0.007981 -0.003518
v 0.012727 0.011348 0.010453
v 0.041489 -0.070274 0.052836
v 0.028762 -0.078281 0.049963
v 0.023491 -0.086323 0.038053
v 0.028762 -0.089690 0.024082
v 0.041489 -0.086409 0.016234
v 0.054216 -0.078403 0.019107
v 0.059487 -0.070361 0.031017
v 0.054216 -0.066994 0.044988
v 0.041489 -0.096274 0.043391
v 0.028298 -0.093280 0.036225
v 0.022834 -0.081535 0.028069
v 0.028298 -0.067919 0.023701
v 0.041489 -0.060409 0.025679
v 0.054680 -0.063404 0.032845
v 0.060144 -0.075149 0.041001
v 0.054680 -0.088764 0.045369
v 0.055949 -0.112838 0.009849
v 0.042758 -0.109843 0.002684
v 0.037295 -0.098098 -0.005472
v 0.042758 -0.084483 -0.009840
v 0.055949 -0.076973 -0.007862
v 0.069140 -0.079967 -0.000696
v 0.074604 -0.091712 0.007460
v 0.069140 -0.105328 0.011828
v 0.055949 -0.105047 -0.016244
v 0.041962 -0.103874 -0.010138
v 0.036168 -0.097447 0.002489
v 0.041962 -0.089531 0.014240
v 0.055949 -0.084763 0.018232
v 0.069937 -0.085937 0.012125
v 0.075731 -0.092364 -0.000501
v 0.069937 -0.100280 -0.012252
v 0.051585 -0.079811 -0.031092
v 0.037597 -0.078637 -0.024986
v 0.031803 -0.072210 -0.012359
v 0.037597 -0.064294 -0.000608
v 0.051585 -0.059526 0.003383
v 0.065573 -0.060700 -0.002723
v 0.071366 -0.067127 -0.015350
v 0.065573 -0.075043 -0.027101
v 0.051585 -0.054539 -0.026935
v 0.038187 -0.061931 -0.026528
v 0.032637 -0.073856 -0.018698
v 0.038187 -0.083328 -0.008030
v 0.051585 -0.084798 -0.000774
v 0.064983 -0.077406 -0.001181
v 0.070533 -0.065482 -0.009012
v 0.064983 -0.056010 -0.019679
v 0.043166 -0.038244 -0.008087
v 0.029768 -0.045636 -0.007680
v 0.024219 -0.057561 0.000150
v 0.029768 -0.067033 0.010818
v 0.043166 -0.068503 0.018074
v 0.056564 -0.061111 0.017667
v 0.062114 -0.049187 0.009837
v 0.056564 -0.039715 -0.000831
v 0.000000 0.005919 0.019104
v -0.013757 0.001055 0.014478
v -0.019456 -0.004427 0.001371
v -0.013757 -0.007315 -0.012539
v -0.000000 -0.005919 -0.019104
v 0.013757 -0.001055 -0.014478
v 0.019456 0.004427 -0.001371
v 0.013757 0.007315 0.012539
v 0.020623 -0.076786 0.044727
v 0.006866 -0.081650 0.040102
v 0.001168 -0.087132 0.026995
v 0.006866 -0.090020 0.013084
v 0.020623 -0.088624 0.006519
v 0.034381 -0.083760 0.011145
v 0.040079 -0.078278 0.024252
v 0.034381 -0.075390 0.038162
v 0.020623 -0.101490 0.032489
v 0.007586 -0.097869 0.025331
v 0.002185 -0.085365 0.018345
v 0.007586 -0.071303 0.015622
v 0.020623 -0.063920 0.018758
v 0.033661 -0.067541 0.025915
v 0.039061 -0.080045 0.032901
v 0.033661 -0.094107 0.035624
v 0.034112 -0.112507 0.002343
v 0.021075 -0.108886 -0.004814
v 0.015674 -0.096382 -0.011800
v 0.021075 -0.082320 -0.014523
v 0.034112 -0.074938 -0.011387
v 0.047150 -0.078559 -0.004230
v 0.052550 -0.091062 0.002756
v 0.047150 -0.105124 0.005479
v 0.034112 -0.103179 -0.022145
v 0.019973 -0.100162 -0.017116
v 0.014116 -0.093372 -0.004710
v 0.019973 -0.086788 0.007807
v 0.034112 -0.084266 0.013101
v 0.048251 -0.087283 0.008072
v 0.054108 -0.094072 -0.004334
v 0.048251 -0.100657 -0.016851
v 0.034662 -0.078782 -0.035237
v 0.020522 -0.075765 -0.030208
v 0.014666 -0.068976 -0.017801
v 0.020522 -0.062391 -0.005285
v 0.034662 -0.059869 0.000009
v 0.048801 -0.062886 -0.005020
v 0.054658 -0.069675 -0.017426
v 0.048801 -0.076260 -0.029942
v 0.034662 -0.060514 -0.035568
v 0.021179 -0.066926 -0.032189
v 0.015594 -0.074743 -0.020273
v 0.021179 -0.079388 -0.006798
v 0.034662 -0.078138 0.000340
v 0.048145 -0.071725 -0.003038
v 0.053729 -0.063908 -0.014954
v 0.048145 -0.059263 -0.028429
v 0.027091 -0.039042 -0.025029
v 0.013608 -0.045454 -0.021651
v 0.008024 -0.053272 -0.009734
v 0.013608 -0.057916 0.003740
v 0.027091 -0.056666 0.010879
v 0.040574 -0.050254 0.007500
v 0.046159 -0.042436 -0.004416
v 0.040574 -0.037792 -0.017890
v 0.000000 0.003357 0.019716
v -0.014136 0.002778 0.013873
v -0.019992 0.000571 -0.000097
v -0.014136 -0.001970 -0.014010
v -0.000000 -0.003357 -0.019716
v 0.014136 -0.002778 -0.013873
v 0.019992 -0.000571 0.000097
v 0.014136 0.001970 0.014010
v -0.002275 -0.073980 0.032885
v -0.016411 -0.074559 0.027042
v -0.022266 -0.076765 0.013072
v -0.016411 -0.079307 -0.000841
v -0.002275 -0.080694 -0.006547
v 0.011861 -0.080115 -0.000703
v 0.017717 -0.077908 0.013267
v 0.011861 -0.075367 0.027179
v -0.002275 -0.093714 0.024649
v -0.014399 -0.093097 0.015324
v -0.019420 -0.083247 0.004737
v -0.014399 -0.069935 -0.000910
v -0.002275 -0.060959 0.001690
v 0.009849 -0.061577 0.011014
v 0.014871 -0.071427 0.021601
v 0.009849 -0.084739 0.027249
v 0.010484 -0.105909 0.007251
v -0.001640 -0.105291 -0.002073
v -0.006662 -0.095441 -0.012660
v -0.001640 -0.082129 -0.018307
v 0.010484 -0.073153 -0.015707
v 0.022608 -0.073771 -0.006383
v 0.027630 -0.083621 0.004204
v 0.022608 -0.096933 0.009851
v 0.010484 -0.105060 -0.016831
v -0.003203 -0.098269 -0.015903
v -0.008872 -0.086360 -0.008135
v -0.003203 -0.076308 0.001921
v 0.010484 -0.074002 0.008375
v 0.024171 -0.080793 0.007447
v 0.029841 -0.092702 -0.000321
v 0.024171 -0.102754 -0.010377
v 0.016404 -0.090712 -0.034511
v 0.002717 -0.083921 -0.033582
v -0.002953 -0.072011 -0.025815
v 0.002717 -0.061959 -0.015759
v 0.016404 -0.059653 -0.009304
v 0.030091 -0.066444 -0.010233
v 0.035760 -0.078354 -0.018000
v 0.030091 -0.088406 -0.028057
v 0.016404 -0.068797 -0.040861
v 0.002896 -0.074636 -0.036647
v -0.002699 -0.080795 -0.023798
v 0.002896 -0.083666 -0.009842
v 0.016404 -0.081568 -0.002954
v 0.029912 -0.075729 -0.007169
v 0.035507 -0.069570 -0.020017
v 0.029912 -0.066699 -0.033973
v 0.010324 -0.050212 -0.034600
v -0.003184 -0.056050 -0.030385
v -0.008779 -0.062209 -0.017537
v -0.003184 -0.065080 -0.003581
v 0.010324 -0.062982 0.003307
v 0.023832 -0.057143 -0.000907
v 0.029427 -0.050985 -0.013756
v 0.023832 -0.048113 -0.027712
v -0.015000 -0.015000 -0.015000
v 0.015000 -0.015000 -0.015000
v 0.015000 0.015000 -0.015000
v -0.015000 0.015000 -0.015000
v -0.015000 -0.015000 0.015000
v 0.015000 -0.015000 0.015000
v 0.015000 0.015000 0.015000
v -0.015000 0.015000 0.015000
v 0.025842 -0.026334 -0.019206
v 0.055842 -0.026334 -0.019206
v 0.055842 0.003666 -0.019206
v 0.025842 0.003666 -0.019206
v 0.025842 -0.026334 0.010794
v 0.055842 -0.026334 0.010794
v 0.055842 0.003666 0.010794
v 0.025842 0.003666 0.010794
v 0.057242 -0.049455 -0.008786
v 0.087242 -0.049455 -0.008786
v 0.087242 -0.019455 -0.008786
v 0.057242 -0.019455 -0.008786
v 0.057242 -0.049455 0.021214
v 0.087242 -0.049455 0.021214
v 0.087242 -0.019455 0.021214
v 0.057242 -0.019455 0.021214
v 0.081164 -0.074771 0.006013
v 0.111164 -0.074771 0.006013
v 0.111164 -0.044771 0.006013
v 0.081164 -0.044771 0.006013
v 0.081164 -0.074771 0.036013
v 0.111164 -0.074771 0.036013
v 0.111164 -0.044771 0.036013
v 0.081164 -0.044771 0.036013
v 0.101853 -0.097050 0.024649
v 0.131853 -0.097050 0.024649
v 0.131853 -0.067050 0.024649
v 0.101853 -0.067050 0.024649
v 0.101853 -0.097050 0.054649
v 0.131853 -0.097050 0.054649
v 0.131853 -0.067050 0.054649
v 0.101853 -0.067050 0.054649
v 0.051266 -0.083546 0.015630
v 0.081266 -0.083546 0.015630
v 0.081266 -0.053546 0.015630
v 0.051266 -0.053546 0.015630
v 0.051266 -0.083546 0.045630
v 0.081266 -0.083546 0.045630
v 0.081266 -0.053546 0.045630
v 0.051266 -0.053546 0.045630
v 0.062532 -0.096771 -0.006544
v 0.092532 -0.096771 -0.006544
v 0.092532 -0.066771 -0.006544
v 0.062532 -0.066771 -0.006544
v 0.062532 -0.096771 0.023456
v 0.092532 -0.096771 0.023456
v 0.092532 -0.066771 0.023456
v 0.062532 -0.066771 0.023456
v 0.057583 -0.088303 -0.016612
v 0.087583 -0.088303 -0.016612
v 0.087583 -0.058303 -0.016612
v 0.057583 -0.058303 -0.016612
v 0.057583 -0.088303 0.013388
v 0.087583 -0.088303 0.013388
v 0.087583 -0.058303 0.013388
v 0.057583 -0.058303 0.013388
v 0.046708 -0.067579 -0.011704
v 0.076708 -0.067579 -0.011704
v 0.076708 -0.037579 -0.011704
v 0.046708 -0.037579 -0.011704
v 0.046708 -0.067579 0.018296
v 0.076708 -0.067579 0.018296
v 0.076708 -0.037579 0.018296
v 0.046708 -0.037579 0.018296
v 0.026489 -0.093342 0.019535
v 0.056489 -0.093342 0.019535
v 0.056489 -0.063342 0.019535
v 0.026489 -0.063342 0.019535
v 0.026489 -0.093342 0.049535
v 0.056489 -0.093342 0.049535
v 0.056489 -0.063342 0.049535
v 0.026489 -0.063342 0.049535
v 0.040949 -0.109905 -0.014006
v 0.070949 -0.109905 -0.014006
v 0.070949 -0.079905 -0.014006
v 0.040949 -0.079905 -0.014006
v 0.040949 -0.109905 0.015994
v 0.070949 -0.109905 0.015994
v 0.070949 -0.079905 0.015994
v 0.040949 -0.079905 0.015994
v 0.036585 -0.084669 -0.028855
v 0.066585 -0.084669 -0.028855
v 0.066585 -0.054669 -0.028855
v 0.036585 -0.054669 -0.028855
v 0.036585 -0.084669 0.001145
v 0.066585 -0.084669 0.001145
v 0.066585 -0.054669 0.001145
v 0.036585 -0.054669 0.001145
v 0.028166 -0.068374 -0.010006
v 0.058166 -0.068374 -0.010006
v 0.058166 -0.038374 -0.010006
v 0.028166 -0.038374 -0.010006
v 0.028166 -0.068374 0.019994
v 0.058166 -0.068374 0.019994
v 0.058166 -0.038374 0.019994
v 0.028166 -0.038374 0.019994
v 0.005623 -0.097705 0.010623
v 0.035623 -0.097705 0.010623
v 0.035623 -0.067705 0.010623
v 0.005623 -0.067705 0.010623
v 0.005623 -0.097705 0.040623
v 0.035623 -0.097705 0.040623
v 0.035623 -0.067705 0.040623
v 0.005623 -0.067705 0.040623
v 0.019112 -0.108722 -0.019522
v 0.049112 -0.108722 -0.019522
v 0.049112 -0.078722 -0.019522
v 0.019112 -0.078722 -0.019522
v 0.019112 -0.108722 0.010478
v 0.049112 -0.108722 0.010478
v 0.049112 -0.078722 0.010478
v 0.019112 -0.078722 0.010478
v 0.019662 -0.084326 -0.032614
v 0.049662 -0.084326 -0.032614
v 0.049662 -0.054326 -0.032614
v 0.019662 -0.054326 -0.032614
v 0.019662 -0.084326 -0.002614
v 0.049662 -0.084326 -0.002614
v 0.049662 -0.054326 -0.002614
v 0.019662 -0.054326 -0.002614
v 0.012091 -0.062854 -0.022075
v 0.042091 -0.062854 -0.022075
v 0.042091 -0.032854 -0.022075
v 0.012091 -0.032854 -0.022075
v 0.012091 -0.062854 0.007925
v 0.042091 -0.062854 0.007925
v 0.042091 -0.032854 0.007925
v 0.012091 -0.032854 0.007925
v -0.017275 -0.092337 -0.001831
v 0.012725 -0.092337 -0.001831
v 0.012725 -0.062337 -0.001831
v -0.017275 -0.062337 -0.001831
v -0.017275 -0.092337 0.028169
v 0.012725 -0.092337 0.028169
v 0.012725 -0.062337 0.028169
v -0.017275 -0.062337 0.028169
v -0.004516 -0.104531 -0.019228
v 0.025484 -0.104531 -0.019228
v 0.025484 -0.074531 -0.019228
v -0.004516 -0.074531 -0.019228
v -0.004516 -0.104531 0.010772
v 0.025484 -0.104531 0.010772
v 0.025484 -0.074531 0.010772
v -0.004516 -0.074531 0.010772
v 0.001404 -0.090182 -0.036908
v 0.031404 -0.090182 -0.036908
v 0.031404 -0.060182 -0.036908
v 0.001404 -0.060182 -0.036908
v 0.001404 -0.090182 -0.006908
v 0.031404 -0.090182 -0.006908
v 0.031404 -0.060182 -0.006908
v 0.001404 -0.060182 -0.006908
v -0.004676 -0.071597 -0.030646
v 0.025324 -0.071597 -0.030646
v 0.025324 -0.041597 -0.030646
v -0.004676 -0.041597 -0.030646
v -0.004676 -0.071597 -0.000646
v 0.025324 -0.071597 -0.000646
v 0.025324 -0.041597 -0.000646
v -0.004676 -0.041597 -0.000646
f 1 2 9
f 2 10 9
f 2 3 10
f 3 11 10
f 3 4 11
f 4 12 11
f 4 5 12
f 5 13 12
f 5 6 13
f 6 14 13
f 6 7 14
f 7 15 14
f 7 8 15
f 8 16 15
f 8 1 16
f 1 9 16
f 17 18 25
f 18 26 25
f 18 19 26
f 19 27 26
f 19 20 27
f 20 28 27
f 20 21 28
f 21 29 28
f 21 22 29
f 22 30 29
f 22 23 30
f 23 31 30
f 23 24 31
f 24 32 31
f 24 17 32
f 17 25 32
f 33 34 41
f 34 42 41
f 34 35 42
f 35 43 42
f 35 36 43
f 36 44 43
f 36 37 44
f 37 45 44
f 37 38 45
f 38 46 45
f 38 39 46
f 39 47 46
f 39 40 47
f 40 48 47
f 40 33 48
f 33 41 48
f 49 50 57
f 50 58 57
f 50 51 58
f 51 59 58
f 51 52 59
f 52 60 59
f 52 53 60
f 53 61 60
f 53 54 61
f 54 62 61
f 54 55 62
f 55 63 62
f 55 56 63
f 56 64 63
f 56 49 64
f 49 57 64
f 65 66 73
f 66 74 73
f 66 67 74
f 67 75 74
f 67 68 75
f 68 76 75
f 68 69 76
f 69 77 76
f 69 70 77
f 70 78 77
f 70 71 78
f 71 79 78
f 71 72 79
f 72 80 79
f 72 65 80
f 65 73 80
f 81 82 89
f 82 90 89
f 82 83 90
f 83 91 90
f 83 84 91
f 84 92 91
f 84 85 92
f 85 93 92
f 85 86 93
f 86 94 93
f 86 87 94
f 87 95 94
f 87 88 95
f 88 96 95
f 88 81 96
f 81 89 96
f 97 98 105
f 98 106 105
f 98 99 106
f 99 107 106
f 99 100 107
f 100 108 107
f 100 101 108
f 101 109 108
f 101 102 109
f 102 110 109
f 102 103 110
f 103 111 110
f 103 104 111
f 104 112 111
f 104 97 112
f 97 105 112
f 113 114 121
f 114 122 121
f 114 115 122
f 115 123 122
f 115 116 123
f 116 124 123
f 116 117 124
f 117 125 124
f 117 118 125
f 118 126 125
f 118 119 126
f 119 127 126
f 119 120 127
f 120 128 127
f 120 113 128
f 113 121 128
f 129 130 137
f 130 138 137
f 130 131 138
f 131 139 138
f 131 132 139
f 132 140 139
f 132 133 140
f 133 141 140
f 133 134 141
f 134 142 141
f 134 135 142
f 135 143 142
f 135 136 143
f 136 144 143
f 136 129 144
f 129 137 144
f 145 146 153
f 146 154 153
f 146 147 154
f 147 155 154
f 147 148 155
f 148 156 155
f 148 149 156
f 149 157 156
f 149 150 157
f 150 158 157
f 150 151 158
f 151 159 158
f 151 152 159
f 152 160 159
f 152 145 160
f 145 153 160
f 161 162 169
f 162 170 169
f 162 163 170
f 163 171 170
f 163 164 171
f 164 172 171
f 164 165 172
f 165 173 172
f 165 166 173
f 166 174 173
f 166 167 174
f 167 175 174
f 167 168 175
f 168 176 175
f 168 161 176
f 161 169 176
f 177 178 185
f 178 186 185
f 178 179 186
f 179 187 186
f 179 180 187
f 180 188 187
f 180 181 188
f 181 189 188
f 181 182 189
f 182 190 189
f 182 183 190
f 183 191 190
f 183 184 191
f 184 192 191
f 184 177 192
f 177 185 192
f 193 194 201
f 194 202 201
f 194 195 202
f 195 203 202
f 195 196 203
f 196 204 203
f 196 197 204
f 197 205 204
f 197 198 205
f 198 206 205
f 198 199 206
f 199 207 206
f 199 200 207
f 200 208 207
f 200 193 208
f 193 201 208
f 209 210 217
f 210 218 217
f 210 211 218
f 211 219 218
f 211 212 219
f 212 220 219
f 212 213 220
f 213 221 220
f 213 214 221
f 214 222 221
f 214 215 222
f 215 223 222
f 215 216 223
f 216 224 223
f 216 209 224
f 209 217 224
f 225 226 233
f 226 234 233
f 226 227 234
f 227 235 234
f 227 228 235
f 228 236 235
f 228 229 236
f 229 237 236
f 229 230 237
f 230 238 237
f 230 231 238
f 231 239 238
f 231 232 239
f 232 240 239
f 232 225 240
f 225 233 240
f 241 242 249
f 242 250 249
f 242 243 250
f 243 251 250
f 243 244 251
f 244 252 251
f 244 245 252
f 245 253 252
f 245 246 253
f 246 254 253
f 246 247 254
f 247 255 254
f 247 248 255
f 248 256 255
f 248 241 256
f 241 249 256
f 257 258 265
f 258 266 265
f 258 259 266
f 259 267 266
f 259 260 267
f 260 268 267
f 260 261 268
f 261 269 268
f 261 262 269
f 262 270 269
f 262 263 270
f 263 271 270
f 263 264 271
f 264 272 271
f 264 257 272
f 257 265 272
f 273 274 281
f 274 282 281
f 274 275 282
f 275 283 282
f 275 276 283
f 276 284 283
f 276 277 284
f 277 285 284
f 277 278 285
f 278 286 285
f 278 279 286
f 279 287 286
f 279 280 287
f 280 288 287
f 280 273 288
f 273 281 288
f 289 290 297
f 290 298 297
f 290 291 298
f 291 299 298
f 291 292 299
f 292 300 299
f 292 293 300
f 293 301 300
f 293 294 301
f 294 302 301
f 294 295 302
f 295 303 302
f 295 296 303
f 296 304 303
f 296 289 304
f 289 297 304
f 305 306 313
f 306 314 313
f 306 307 314
f 307 315 314
f 307 308 315
f 308 316 315
f 308 309 316
f 309 317 316
f 309 310 317
f 310 318 317
f 310 311 318
f 311 319 318
f 311 312 319
f 312 320 319
f 312 305 320
f 305 313 320
f 321 322 323
f 321 323 324
f 325 326 327
f 325 327 328
f 321 325 326
f 321 326 322
f 322 326 327
f 322 327 323
f 323 327 328
f 323 328 324
f 324 328 325
f 324 325 321
f 329 330 331
f 329 331 332
f 333 334 335
f 333 335 336
f 329 333 334
f 329 334 330
f 330 334 335
f 330 335 331
f 331 335 336
f 331 336 332
f 332 336 333
f 332 333 329
f 337 338 339
f 337 339 340
f 341 342 343
f 341 343 344
f 337 341 342
f 337 342 338
f 338 342 343
f 338 343 339
f 339 343 344
f 339 344 340
f 340 344 341
f 340 341 337
f 345 346 347
f 345 347 348
f 349 350 351
f 349 351 352
f 345 349 350
f 345 350 346
f 346 350 351
f 346 351 347
f 347 351 352
f 347 352 348
f 348 352 349
f 348 349 345
f 353 354 355
f 353 355 356
f 357 358 359
f 357 359 360
f 353 357 358
f 353 358 354
f 354 358 359
f 354 359 355
f 355 359 360
f 355 360 356
f 356 360 357
f 356 357 353
f 361 362 363
f 361 363 364
f 365 366 367
f 365 367 368
f 361 365 366
f 361 366 362
f 362 366 367
f 362 367 363
f 363 367 368
f 363 368 364
f 364 368 365
f 364 365 361
f 369 370 371
f 369 371 372
f 373 374 375
f 373 375 376
f 369 373 374
f 369 374 370
f 370 374 375
f 370 375 371
f 371 375 376
f 371 376 372
f 372 376 373
f 372 373 369
f 377 378 379
f 377 379 380
f 381 382 383
f 381 383 384
f 377 381 382
f 377 382 378
f 378 382 383
f 378 383 379
f 379 383 384
f 379 384 380
f 380 384 381
f 380 381 377
f 385 386 387
f 385 387 388
f 389 390 391
f 389 391 392
f 385 389 390
f 385 390 386
f 386 390 391
f 386 391 387
f 387 391 392
f 387 392 388
f 388 392 389
f 388 389 385
f 393 394 395
f 393 395 396
f 397 398 399
f 397 399 400
f 393 397 398
f 393 398 394
f 394 398 399
f 394 399 395
f 395 399 400
f 395 400 396
f 396 400 397
f 396 397 393
f 401 402 403
f 401 403 404
f 405 406 407
f 405 407 408
f 401 405 406
f 401 406 402
f 402 406 407
f 402 407 403
f 403 407 408
f 403 408 404
f 404 408 405
f 404 405 401
f 409 410 411
f 409 411 412
f 413 414 415
f 413 415 416
f 409 413 414
f 409 414 410
f 410 414 415
f 410 415 411
f 411 415 416
f 411 416 412
f 412 416 413
f 412 413 409
f 417 418 419
f 417 419 420
f 421 422 423
f 421 423 424
f 417 421 422
f 417 422 418
f 418 422 423
f 418 423 419
f 419 423 424
f 419 424 420
f 420 424 421
f 420 421 417
f 425 426 427
f 425 427 428
f 429 430 431
f 429 431 432
f 425 429 430
f 425 430 426
f 426 430 431
f 426 431 427
f 427 431 432
f 427 432 428
f 428 432 429
f 428 429 425
f 433 434 435
f 433 435 436
f 437 438 439
f 437 439 440
f 433 437 438
f 433 438 434
f 434 438 439
f 434 439 435
f 435 439 440
f 435 440 436
f 436 440 437
f 436 437 433
f 441 442 443
f 441 443 444
f 445 446 447
f 445 447 448
f 441 445 446
f 441 446 442
f 442 446 447
f 442 447 443
f 443 447 448
f 443 448 444
f 444 448 445
f 444 445 441
f 449 450 451
f 449 451 452
f 453 454 455
f 453 455 456
f 449 453 454
f 449 454 450
f 450 454 455
f 450 455 451
f 451 455 456
f 451 456 452
f 452 456 453
f 452 453 449
f 457 458 459
f 457 459 460
f 461 462 463
f 461 463 464
f 457 461 462
f 457 462 458
f 458 462 463
f 458 463 459
f 459 463 464
f 459 464 460
f 460 464 461
f 460 461 457
f 465 466 467
f 465 467 468
f 469 470 471
f 469 471 472
f 465 469 470
f 465 470 466
f 466 470 471
f 466 471 467
f 467 471 472
f 467 472 468
f 468 472 469
f 468 469 465
f 473 474 475
f 473 475 476
f 477 478 479
f 477 479 480
f 473 477 478
f 473 478 474
f 474 478 479
f 474 479 475
f 475 479 480
f 475 480 476
f 476 480 477
f 476 477 473
f 481 482 483
f 481 483 484
f 485 486 487
f 485 487 488
f 481 485 486
f 481 486 482
f 482 486 487
f 482 487 483
f 483 487 488
f 483 488 484
f 484 488 485
f 484 485 481
