# Full-Body 3D Mesh - Frame 118
v 0.030055 -0.625159 -0.089994
v 0.063863 -0.625159 -0.094855
v 0.094932 -0.625159 -0.109044
v 0.120745 -0.625159 -0.131411
v 0.139211 -0.625159 -0.160145
v 0.148834 -0.625159 -0.192917
v 0.148834 -0.625159 -0.227072
v 0.139211 -0.625159 -0.259844
v 0.120745 -0.625159 -0.288578
v 0.094932 -0.625159 -0.310945
v 0.063863 -0.625159 -0.325134
v 0.030055 -0.625159 -0.329994
v 0.030055 -0.625159 -0.089994
v 0.058496 -0.606881 -0.094855
v 0.084633 -0.590084 -0.109044
v 0.106349 -0.576128 -0.131411
v 0.121883 -0.566145 -0.160145
v 0.129978 -0.560942 -0.192917
v 0.129978 -0.560942 -0.227072
v 0.121883 -0.566145 -0.259844
v 0.106349 -0.576128 -0.288578
v 0.084633 -0.590084 -0.310945
v 0.058496 -0.606881 -0.325134
v 0.030055 -0.625159 -0.329994
v 0.030055 -0.625159 -0.089994
v 0.044100 -0.594406 -0.094855
v 0.057006 -0.566145 -0.109044
v 0.067729 -0.542665 -0.131411
v 0.075400 -0.525867 -0.160145
v 0.079398 -0.517114 -0.192917
v 0.079398 -0.517114 -0.227072
v 0.075400 -0.525867 -0.259844
v 0.067729 -0.542665 -0.288578
v 0.057006 -0.566145 -0.310945
v 0.044100 -0.594406 -0.325134
v 0.030055 -0.625159 -0.329994
v 0.030055 -0.625159 -0.089994
v 0.025244 -0.591695 -0.094855
v 0.020823 -0.560942 -0.109044
v 0.017149 -0.535392 -0.131411
v 0.014521 -0.517114 -0.160145
v 0.013152 -0.507589 -0.192917
v 0.013152 -0.507589 -0.227072
v 0.014521 -0.517114 -0.259844
v 0.017149 -0.535392 -0.288578
v 0.020823 -0.560942 -0.310945
v 0.025244 -0.591695 -0.325134
v 0.030055 -0.625159 -0.329994
v 0.030055 -0.625159 -0.089994
v 0.007916 -0.599609 -0.094855
v -0.012430 -0.576128 -0.109044
v -0.029334 -0.556620 -0.131411
v -0.041426 -0.542665 -0.160145
v -0.047728 -0.535392 -0.192917
v -0.047728 -0.535392 -0.227072
v -0.041426 -0.542665 -0.259844
v -0.029334 -0.556620 -0.288578
v -0.012430 -0.576128 -0.310945
v 0.007916 -0.599609 -0.325134
v 0.030055 -0.625159 -0.329994
v 0.030055 -0.625159 -0.089994
v -0.002383 -0.615634 -0.094855
v -0.032193 -0.606881 -0.109044
v -0.056961 -0.599609 -0.131411
v -0.074679 -0.594406 -0.160145
v -0.083912 -0.591695 -0.192917
v -0.083912 -0.591695 -0.227072
v -0.074679 -0.594406 -0.259844
v -0.056961 -0.599609 -0.288578
v -0.032193 -0.606881 -0.310945
v -0.002383 -0.615634 -0.325134
v 0.030055 -0.625159 -0.329994
v 0.030055 -0.625159 -0.089994
v -0.002383 -0.634684 -0.094855
v -0.032193 -0.643437 -0.109044
v -0.056961 -0.650709 -0.131411
v -0.074679 -0.655912 -0.160145
v -0.083912 -0.658623 -0.192917
v -0.083912 -0.658623 -0.227072
v -0.074679 -0.655912 -0.259844
v -0.056961 -0.650709 -0.288578
v -0.032193 -0.643437 -0.310945
v -0.002383 -0.634684 -0.325134
v 0.030055 -0.625159 -0.329994
v 0.030055 -0.625159 -0.089994
v 0.007916 -0.650709 -0.094855
v -0.012430 -0.674190 -0.109044
v -0.029334 -0.693698 -0.131411
v -0.041426 -0.707654 -0.160145
v -0.047728 -0.714926 -0.192917
v -0.047728 -0.714926 -0.227072
v -0.041426 -0.707654 -0.259844
v -0.029334 -0.693698 -0.288578
v -0.012430 -0.674190 -0.310945
v 0.007916 -0.650709 -0.325134
v 0.030055 -0.625159 -0.329994
v 0.030055 -0.625159 -0.089994
v 0.025244 -0.658623 -0.094855
v 0.020823 -0.689376 -0.109044
v 0.017149 -0.714926 -0.131411
v 0.014521 -0.733204 -0.160145
v 0.013152 -0.742729 -0.192917
v 0.013152 -0.742729 -0.227072
v 0.014521 -0.733204 -0.259844
v 0.017149 -0.714926 -0.288578
v 0.020823 -0.689376 -0.310945
v 0.025244 -0.658623 -0.325134
v 0.030055 -0.625159 -0.329994
v 0.030055 -0.625159 -0.089994
v 0.044100 -0.655912 -0.094855
v 0.057006 -0.684173 -0.109044
v 0.067729 -0.707654 -0.131411
v 0.075400 -0.724451 -0.160145
v 0.079398 -0.733204 -0.192917
v 0.079398 -0.733204 -0.227072
v 0.075400 -0.724451 -0.259844
v 0.067729 -0.707654 -0.288578
v 0.057006 -0.684173 -0.310945
v 0.044100 -0.655912 -0.325134
v 0.030055 -0.625159 -0.329994
v 0.030055 -0.625159 -0.089994
v 0.058496 -0.643437 -0.094855
v 0.084633 -0.660234 -0.109044
v 0.106349 -0.674190 -0.131411
v 0.121883 -0.684173 -0.160145
v 0.129978 -0.689376 -0.192917
v 0.129978 -0.689376 -0.227072
v 0.121883 -0.684173 -0.259844
v 0.106349 -0.674190 -0.288578
v 0.084633 -0.660234 -0.310945
v 0.058496 -0.643437 -0.325134
v 0.030055 -0.625159 -0.329994
v 0.030055 -0.625159 -0.089994
v 0.063863 -0.625159 -0.094855
v 0.094932 -0.625159 -0.109044
v 0.120745 -0.625159 -0.131411
v 0.139211 -0.625159 -0.160145
v 0.148834 -0.625159 -0.192917
v 0.148834 -0.625159 -0.227072
v 0.139211 -0.625159 -0.259844
v 0.120745 -0.625159 -0.288578
v 0.094932 -0.625159 -0.310945
v 0.063863 -0.625159 -0.325134
v 0.030055 -0.625159 -0.329994
v 0.188121 -0.439964 -0.082846
v 0.189080 -0.463430 -0.075129
v 0.188683 -0.477933 -0.055112
v 0.187082 -0.477933 -0.030443
v 0.184889 -0.463430 -0.010543
v 0.182941 -0.439964 -0.003014
v 0.181982 -0.416498 -0.010732
v 0.182379 -0.401995 -0.030748
v 0.183979 -0.401995 -0.055417
v 0.186172 -0.416498 -0.075317
v -0.140638 -0.460414 -0.104177
v -0.139679 -0.483880 -0.096459
v -0.140076 -0.498383 -0.076443
v -0.141677 -0.498383 -0.051773
v -0.143870 -0.483880 -0.031874
v -0.145818 -0.460414 -0.024345
v -0.146777 -0.436948 -0.032062
v -0.146380 -0.422445 -0.052079
v -0.144780 -0.422445 -0.076748
v -0.142586 -0.436948 -0.096648
v 0.185531 -0.439932 -0.082930
v 0.162459 -0.435415 -0.075287
v 0.148199 -0.432635 -0.055285
v 0.148199 -0.432655 -0.030563
v 0.162459 -0.435467 -0.010566
v 0.185531 -0.439996 -0.002930
v 0.208603 -0.444514 -0.010573
v 0.222862 -0.447293 -0.030575
v 0.222862 -0.447273 -0.055297
v 0.208603 -0.444461 -0.075294
v 0.229857 -0.213839 -0.082747
v 0.206785 -0.209322 -0.075104
v 0.192525 -0.206543 -0.055102
v 0.192525 -0.206563 -0.030381
v 0.206785 -0.209374 -0.010383
v 0.229857 -0.213904 -0.002747
v 0.252929 -0.218421 -0.010390
v 0.267188 -0.221200 -0.030393
v 0.267188 -0.221180 -0.055114
v 0.252929 -0.218369 -0.075112
v 0.229857 -0.223767 -0.081504
v 0.206387 -0.220524 -0.074447
v 0.191882 -0.214741 -0.055283
v 0.191882 -0.208625 -0.031330
v 0.206387 -0.204513 -0.011738
v 0.229857 -0.203976 -0.003991
v 0.253327 -0.207218 -0.011047
v 0.267832 -0.213002 -0.030212
v 0.267832 -0.219118 -0.054165
v 0.253327 -0.223230 -0.073757
v 0.240000 -0.058563 -0.123686
v 0.216530 -0.055320 -0.116629
v 0.202025 -0.049536 -0.097464
v 0.202025 -0.043420 -0.073511
v 0.216530 -0.039308 -0.053920
v 0.240000 -0.038771 -0.046172
v 0.263470 -0.042014 -0.053229
v 0.277975 -0.047798 -0.072394
v 0.277975 -0.053914 -0.096347
v 0.263470 -0.058026 -0.115938
v -0.143228 -0.498276 -0.077163
v -0.158689 -0.496758 -0.057933
v -0.168245 -0.481358 -0.041120
v -0.168245 -0.457958 -0.033146
v -0.158689 -0.435496 -0.037057
v -0.143228 -0.422552 -0.051358
v -0.127767 -0.424069 -0.070589
v -0.118212 -0.439469 -0.087402
v -0.118212 -0.462869 -0.095376
v -0.127767 -0.485331 -0.091465
v -0.364210 -0.436058 -0.259743
v -0.379671 -0.434540 -0.240513
v -0.389226 -0.419140 -0.223700
v -0.389226 -0.395740 -0.215726
v -0.379671 -0.373278 -0.219637
v -0.364210 -0.360334 -0.233939
v -0.348749 -0.361852 -0.253169
v -0.339193 -0.377252 -0.269982
v -0.339193 -0.400652 -0.277956
v -0.348749 -0.423114 -0.274045
v -0.364210 -0.429189 -0.221554
v -0.382976 -0.432224 -0.237358
v -0.394574 -0.422262 -0.256785
v -0.394574 -0.403107 -0.272413
v -0.382976 -0.382076 -0.278273
v -0.364210 -0.367203 -0.272128
v -0.345444 -0.364168 -0.256324
v -0.333846 -0.374130 -0.236898
v -0.333846 -0.393285 -0.221269
v -0.345444 -0.414316 -0.215409
v -0.190762 -0.574460 -0.399607
v -0.209528 -0.577496 -0.415411
v -0.221126 -0.567533 -0.434838
v -0.221126 -0.548378 -0.450466
v -0.209528 -0.527348 -0.456326
v -0.190762 -0.512474 -0.450181
v -0.171996 -0.509439 -0.434377
v -0.160398 -0.519402 -0.414950
v -0.160398 -0.538556 -0.399322
v -0.171996 -0.559587 -0.393462
v 0.185531 -0.436125 -0.082745
v 0.162225 -0.439947 -0.075439
v 0.147821 -0.443776 -0.055716
v 0.147821 -0.446149 -0.031108
v 0.162225 -0.446160 -0.011017
v 0.185531 -0.443803 -0.003115
v 0.208836 -0.439981 -0.010421
v 0.223240 -0.436152 -0.030144
v 0.223240 -0.433779 -0.054752
v 0.208836 -0.433769 -0.074843
v 0.125278 0.014220 -0.039319
v 0.101972 0.010398 -0.032013
v 0.087569 0.006569 -0.012290
v 0.087569 0.004196 0.012317
v 0.101972 0.004185 0.032409
v 0.125278 0.006542 0.040311
v 0.148584 0.010364 0.033005
v 0.162987 0.014193 0.013281
v 0.162987 0.016566 -0.011326
v 0.148584 0.016576 -0.031418
v -0.143228 -0.454324 -0.103794
v -0.166718 -0.454492 -0.096091
v -0.181235 -0.456921 -0.076229
v -0.181235 -0.460685 -0.051796
v -0.166718 -0.464345 -0.032124
v -0.143228 -0.466503 -0.024727
v -0.119738 -0.466336 -0.032431
v -0.105221 -0.463906 -0.052292
v -0.105221 -0.460143 -0.076725
v -0.119738 -0.456483 -0.096397
v -0.124239 -0.016592 -0.036368
v -0.147728 -0.016760 -0.028664
v -0.162246 -0.019189 -0.008802
v -0.162246 -0.022953 0.015631
v -0.147728 -0.026613 0.035303
v -0.124239 -0.028771 0.042700
v -0.100749 -0.028604 0.034996
v -0.086231 -0.026174 0.015135
v -0.086231 -0.022411 -0.009298
v -0.100749 -0.018751 -0.028971
v 0.124850 0.010381 -0.039502
v 0.128020 -0.012927 -0.031896
v 0.130142 -0.027332 -0.011918
v 0.130407 -0.027332 0.012802
v 0.128712 -0.012927 0.032822
v 0.125706 0.010381 0.040494
v 0.122536 0.033689 0.032888
v 0.120414 0.048094 0.012909
v 0.120149 0.048094 -0.011811
v 0.121844 0.033689 -0.031830
v -0.124667 -0.022682 -0.036831
v -0.121497 -0.045989 -0.029226
v -0.119374 -0.060394 -0.009247
v -0.119110 -0.060394 0.015473
v -0.120804 -0.045989 0.035492
v -0.123810 -0.022682 0.043164
v -0.126980 0.000626 0.035558
v -0.129103 0.015031 0.015580
v -0.129367 0.015031 -0.009140
v -0.127673 0.000626 -0.029160
v 0.125278 0.003118 -0.038839
v 0.102160 0.000295 -0.030549
v 0.087872 0.001324 -0.010401
v 0.087872 0.005813 0.013909
v 0.102160 0.012046 0.033096
v 0.125278 0.017644 0.039831
v 0.148396 0.020467 0.031541
v 0.162684 0.019438 0.011393
v 0.162684 0.014949 -0.012917
v 0.148396 0.008716 -0.032104
v 0.091990 0.179866 -0.071474
v 0.068871 0.177043 -0.063185
v 0.054584 0.178072 -0.043037
v 0.054584 0.182561 -0.018726
v 0.068871 0.188794 0.000461
v 0.091990 0.194392 0.007196
v 0.115108 0.197215 -0.001094
v 0.129396 0.196186 -0.021242
v 0.129396 0.191697 -0.045552
v 0.115108 0.185464 -0.064740
v 0.091990 0.201737 -0.069376
v 0.068657 0.201643 -0.061207
v 0.054237 0.196004 -0.041935
v 0.054237 0.186976 -0.018922
v 0.068657 0.178006 -0.000956
v 0.091990 0.172521 0.005098
v 0.115322 0.172616 -0.003071
v 0.129742 0.178254 -0.022343
v 0.129742 0.187282 -0.045357
v 0.115322 0.196252 -0.063322
v 0.136769 0.537669 0.062409
v 0.113436 0.537574 0.070578
v 0.099016 0.531936 0.089850
v 0.099016 0.522908 0.112864
v 0.113436 0.513938 0.130829
v 0.136769 0.508453 0.136883
v 0.160101 0.508547 0.128714
v 0.174521 0.514186 0.109442
v 0.174521 0.523214 0.086428
v 0.160101 0.532184 0.068463
v -0.124239 -0.062453 -0.001103
v -0.147750 -0.054872 -0.000154
v -0.162280 -0.034995 0.002063
v -0.162280 -0.010415 0.004702
v -0.147750 0.009480 0.006754
v -0.124239 0.017090 0.007436
v -0.100728 0.009508 0.006487
v -0.086197 -0.010368 0.004269
v -0.086197 -0.034949 0.001630
v -0.100728 -0.054843 -0.000422
v -0.125350 -0.041733 -0.194105
v -0.148861 -0.034152 -0.193156
v -0.163392 -0.014275 -0.190938
v -0.163392 0.010305 -0.188300
v -0.148861 0.030200 -0.186247
v -0.125350 0.037810 -0.185566
v -0.101839 0.030228 -0.186515
v -0.087308 0.010351 -0.188733
v -0.087308 -0.014229 -0.191371
v -0.101839 -0.034123 -0.193424
v -0.125350 -0.011345 -0.228719
v -0.148532 -0.005741 -0.222213
v -0.162859 0.001307 -0.203340
v -0.162859 0.007106 -0.179308
v -0.148532 0.009442 -0.159298
v -0.125350 0.007422 -0.150952
v -0.102168 0.001817 -0.157458
v -0.087841 -0.005231 -0.176331
v -0.087841 -0.011030 -0.200363
v -0.102168 -0.013366 -0.220373
v -0.076334 0.270299 -0.296687
v -0.099516 0.275904 -0.290181
v -0.113843 0.282952 -0.271307
v -0.113843 0.288751 -0.247276
v -0.099516 0.291087 -0.227265
v -0.076334 0.289066 -0.218919
v -0.053152 0.283462 -0.225425
v -0.038824 0.276414 -0.244298
v -0.038824 0.270614 -0.268330
v -0.053152 0.268279 -0.288340
v -0.025344 0.095102 0.011777
v -0.029548 0.087594 0.008328
v -0.032147 0.083391 0.000484
v -0.032147 0.084100 -0.008760
v -0.029548 0.089449 -0.015871
v -0.025344 0.097396 -0.018135
v -0.021140 0.104904 -0.014686
v -0.018542 0.109106 -0.006842
v -0.018542 0.108397 0.002401
v -0.021140 0.103048 0.009513
v 0.009021 0.076515 0.010352
v 0.004817 0.069007 0.006903
v 0.002218 0.064805 -0.000942
v 0.002218 0.065514 -0.010185
v 0.004817 0.070863 -0.017297
v 0.009021 0.078809 -0.019561
v 0.013225 0.086317 -0.016112
v 0.015823 0.090520 -0.008267
v 0.015823 0.089811 0.000976
v 0.013225 0.084462 0.008088
v 0.009021 0.071493 0.009068
v 0.002467 0.067295 0.004031
v -0.001583 0.067057 -0.004305
v -0.001583 0.070869 -0.012755
v 0.002467 0.077277 -0.018092
v 0.009021 0.083831 -0.018277
v 0.015574 0.088030 -0.013240
v 0.019624 0.088268 -0.004904
v 0.019624 0.084455 0.003546
v 0.015574 0.078047 0.008883
v 0.030952 0.049283 -0.000954
v 0.024398 0.045085 -0.005991
v 0.020348 0.044846 -0.014326
v 0.020348 0.048659 -0.022776
v 0.024398 0.055067 -0.028113
v 0.030952 0.061621 -0.028299
v 0.037505 0.065819 -0.023262
v 0.041555 0.066057 -0.014926
v 0.041555 0.062245 -0.006476
v 0.037505 0.055837 -0.001139
v 0.030952 0.046785 -0.002384
v 0.022224 0.047419 -0.005445
v 0.016830 0.051121 -0.012013
v 0.016830 0.056478 -0.019579
v 0.022224 0.061443 -0.025253
v 0.030952 0.064119 -0.026869
v 0.039679 0.063485 -0.023807
v 0.045073 0.059783 -0.017239
v 0.045073 0.054426 -0.009673
v 0.039679 0.049461 -0.003999
v 0.035930 0.018447 -0.022446
v 0.027202 0.019081 -0.025507
v 0.021808 0.022784 -0.032075
v 0.021808 0.028141 -0.039641
v 0.027202 0.033105 -0.045316
v 0.035930 0.035782 -0.046931
v 0.044657 0.035148 -0.043870
v 0.050051 0.031445 -0.037301
v 0.050051 0.026089 -0.029735
v 0.044657 0.021124 -0.024061
v 0.035930 0.019922 -0.021525
v 0.027532 0.023653 -0.022751
v 0.022342 0.028706 -0.028537
v 0.022342 0.033151 -0.036672
v 0.027532 0.035291 -0.044050
v 0.035930 0.034307 -0.047851
v 0.044327 0.030576 -0.046625
v 0.049517 0.025523 -0.040840
v 0.049517 0.021078 -0.032704
v 0.044327 0.018939 -0.025327
v 0.026416 -0.006178 -0.035786
v 0.018019 -0.002447 -0.037012
v 0.012828 0.002606 -0.042797
v 0.012828 0.007051 -0.050933
v 0.018019 0.009190 -0.058310
v 0.026416 0.008207 -0.062112
v 0.034814 0.004476 -0.060886
v 0.040004 -0.000577 -0.055101
v 0.040004 -0.005022 -0.046965
v 0.034814 -0.007162 -0.039588
v -0.025344 0.098741 0.011612
v -0.033164 0.094249 0.009464
v -0.037997 0.090521 0.002487
v -0.037997 0.088980 -0.006655
v -0.033164 0.090216 -0.014469
v -0.025344 0.093756 -0.017971
v -0.017525 0.098249 -0.015822
v -0.012692 0.101977 -0.008845
v -0.012692 0.103517 0.000297
v -0.017525 0.102281 0.008111
v 0.023339 0.006569 0.027143
v 0.015519 0.002077 0.024995
v 0.010686 -0.001651 0.018018
v 0.010686 -0.003191 0.008876
v 0.015519 -0.001955 0.001062
v 0.023339 0.001585 -0.002440
v 0.031159 0.006077 -0.000291
v 0.035992 0.009805 0.006686
v 0.035992 0.011346 0.015828
v 0.031159 0.010110 0.023642
v 0.023339 -0.000051 0.026773
v 0.014666 -0.000787 0.023582
v 0.009306 0.000335 0.016102
v 0.009306 0.002886 0.007190
v 0.014666 0.005892 0.000249
v 0.023339 0.008205 -0.002069
v 0.032012 0.008941 0.001121
v 0.037372 0.007819 0.008601
v 0.037372 0.005268 0.017514
v 0.032012 0.002262 0.024455
v 0.028805 -0.028799 0.018544
v 0.020132 -0.029535 0.015354
v 0.014772 -0.028413 0.007874
v 0.014772 -0.025862 -0.001039
v 0.020132 -0.022856 -0.007980
v 0.028805 -0.020543 -0.010297
v 0.037478 -0.019807 -0.007107
v 0.042839 -0.020929 0.000373
v 0.042839 -0.023480 0.009286
v 0.037478 -0.026486 0.016226
v 0.028805 -0.028528 0.018619
v 0.020012 -0.028407 0.015687
v 0.014577 -0.026858 0.008338
v 0.014577 -0.024474 -0.000621
v 0.020012 -0.022166 -0.007767
v 0.028805 -0.020814 -0.010372
v 0.037599 -0.020935 -0.007440
v 0.043034 -0.022484 -0.000091
v 0.043034 -0.024868 0.008868
v 0.037599 -0.027177 0.016014
v 0.030385 -0.049621 0.013006
v 0.021592 -0.049499 0.010074
v 0.016157 -0.047951 0.002725
v 0.016157 -0.045567 -0.006234
v 0.021592 -0.043258 -0.013380
v 0.030385 -0.041906 -0.015985
v 0.039179 -0.042028 -0.013053
v 0.044614 -0.043576 -0.005704
v 0.044614 -0.045960 0.003255
v 0.039179 -0.048269 0.010401
v 0.030385 -0.056693 0.008784
v 0.021573 -0.054799 0.006617
v 0.016127 -0.049453 0.001354
v 0.016127 -0.042698 -0.004996
v 0.021573 -0.037114 -0.010006
v 0.030385 -0.034834 -0.011763
v 0.039198 -0.036729 -0.009596
v 0.044644 -0.042074 -0.004332
v 0.044644 -0.048829 0.002017
v 0.039198 -0.054413 0.007027
v 0.031294 -0.076177 -0.011944
v 0.022481 -0.074282 -0.014111
v 0.017035 -0.068937 -0.019374
v 0.017035 -0.062182 -0.025724
v 0.022481 -0.056598 -0.030734
v 0.031294 -0.054318 -0.032491
v 0.040106 -0.056213 -0.030324
v 0.045552 -0.061558 -0.025060
v 0.045552 -0.068313 -0.018711
v 0.040106 -0.073897 -0.013701
v -0.025344 0.097844 0.011736
v -0.033881 0.095348 0.009122
v -0.039157 0.093195 0.001809
v -0.039157 0.092209 -0.007409
v -0.033881 0.092766 -0.015011
v -0.025344 0.094653 -0.018094
v -0.016808 0.097150 -0.015480
v -0.011532 0.099303 -0.008168
v -0.011532 0.100289 0.001050
v -0.016808 0.099732 0.008653
v 0.001087 -0.003920 0.022622
v -0.007450 -0.006417 0.020008
v -0.012726 -0.008569 0.012696
v -0.012726 -0.009555 0.003478
v -0.007450 -0.008998 -0.004125
v 0.001087 -0.007111 -0.007208
v 0.009624 -0.004614 -0.004594
v 0.014900 -0.002461 0.002719
v 0.014900 -0.001475 0.011937
v 0.009624 -0.002032 0.019539
v 0.001087 -0.008154 0.022474
v -0.007459 -0.009784 0.019272
v -0.012741 -0.009784 0.011653
v -0.012741 -0.008153 0.002527
v -0.007459 -0.005515 -0.004620
v 0.001087 -0.002877 -0.007059
v 0.009633 -0.001247 -0.003857
v 0.014915 -0.001247 0.003761
v 0.014915 -0.002877 0.012887
v 0.009633 -0.005516 0.020035
v 0.010340 -0.044060 0.016058
v 0.001794 -0.045690 0.012857
v -0.003488 -0.045690 0.005238
v -0.003488 -0.044060 -0.003888
v 0.001794 -0.041422 -0.011035
v 0.010340 -0.038784 -0.013474
v 0.018886 -0.037153 -0.010273
v 0.024168 -0.037153 -0.002654
v 0.024168 -0.038784 0.006472
v 0.018886 -0.041422 0.013619
v 0.010340 -0.048196 0.014675
v 0.001586 -0.047840 0.011644
v -0.003824 -0.045033 0.004660
v -0.003824 -0.040846 -0.003612
v 0.001586 -0.036879 -0.010010
v 0.010340 -0.034647 -0.012091
v 0.019094 -0.035003 -0.009060
v 0.024504 -0.037811 -0.002075
v 0.024504 -0.041998 0.006196
v 0.019094 -0.045965 0.012594
v 0.013321 -0.070348 0.003462
v 0.004568 -0.069992 0.000431
v -0.000843 -0.067184 -0.006554
v -0.000843 -0.062998 -0.014825
v 0.004568 -0.059031 -0.021223
v 0.013321 -0.056799 -0.023304
v 0.022075 -0.057155 -0.020274
v 0.027486 -0.059963 -0.013289
v 0.027486 -0.064150 -0.005018
v 0.022075 -0.068117 0.001380
v 0.013321 -0.069409 0.003897
v 0.004985 -0.070939 0.000141
v -0.000167 -0.069657 -0.007459
v -0.000167 -0.066050 -0.015999
v 0.004985 -0.061498 -0.022218
v 0.013321 -0.057738 -0.023740
v 0.021658 -0.056208 -0.019984
v 0.026810 -0.057491 -0.012384
v 0.026810 -0.061097 -0.003844
v 0.021658 -0.065649 0.002375
v 0.022614 -0.094264 -0.006599
v 0.014278 -0.095794 -0.010355
v 0.009126 -0.094511 -0.017954
v 0.009126 -0.090905 -0.026494
v 0.014278 -0.086352 -0.032713
v 0.022614 -0.082593 -0.034235
v 0.030950 -0.081062 -0.030479
v 0.036102 -0.082345 -0.022880
v 0.036102 -0.085952 -0.014340
v 0.030950 -0.090504 -0.008121
v -0.025344 0.095701 0.011811
v -0.034126 0.095023 0.008919
v -0.039554 0.094813 0.001407
v -0.039554 0.095152 -0.007858
v -0.034126 0.095910 -0.015335
v -0.025344 0.096797 -0.018169
v -0.016562 0.097475 -0.015278
v -0.011135 0.097685 -0.007765
v -0.011135 0.097346 0.001499
v -0.016562 0.096588 0.008977
v -0.016375 -0.004808 0.008136
v -0.025157 -0.005486 0.005244
v -0.030585 -0.005695 -0.002268
v -0.030585 -0.005356 -0.011533
v -0.025157 -0.004599 -0.019010
v -0.016375 -0.003711 -0.021844
v -0.007593 -0.003033 -0.018953
v -0.002166 -0.002824 -0.011440
v -0.002166 -0.003162 -0.002176
v -0.007593 -0.003920 0.005302
v -0.016375 -0.006228 0.008016
v -0.024740 -0.008616 0.004810
v -0.029909 -0.009339 -0.002851
v -0.029909 -0.008123 -0.012041
v -0.024740 -0.005430 -0.019250
v -0.016375 -0.002291 -0.021724
v -0.008011 0.000097 -0.018519
v -0.002841 0.000820 -0.010857
v -0.002841 -0.000396 -0.001667
v -0.008011 -0.003088 0.005542
v -0.006114 -0.036750 0.003976
v -0.014479 -0.039138 0.000770
v -0.019648 -0.039862 -0.006891
v -0.019648 -0.038645 -0.016082
v -0.014479 -0.035953 -0.023291
v -0.006114 -0.032813 -0.025765
v 0.002250 -0.030426 -0.022559
v 0.007420 -0.029702 -0.014898
v 0.007420 -0.030919 -0.005708
v 0.002250 -0.033611 0.001501
v -0.006114 -0.039681 0.003283
v -0.014571 -0.041102 -0.000239
v -0.019797 -0.040110 -0.007832
v -0.019797 -0.037082 -0.016594
v -0.014571 -0.033176 -0.023179
v -0.006114 -0.029883 -0.025072
v 0.002342 -0.028461 -0.021550
v 0.007569 -0.029454 -0.013958
v 0.007569 -0.032481 -0.005196
v 0.002342 -0.036388 0.001390
v 0.000730 -0.061612 -0.004295
v -0.007727 -0.063034 -0.007817
v -0.012954 -0.062041 -0.015410
v -0.012954 -0.059014 -0.024172
v -0.007727 -0.055107 -0.030757
v 0.000730 -0.051814 -0.032650
v 0.009186 -0.050393 -0.029128
v 0.014413 -0.051385 -0.021536
v 0.014413 -0.054413 -0.012774
v 0.009186 -0.058319 -0.006188
v 0.000730 -0.061177 -0.004152
v -0.007301 -0.063798 -0.007970
v -0.012265 -0.063713 -0.015799
v -0.012265 -0.060955 -0.024650
v -0.007301 -0.056576 -0.031141
v 0.000730 -0.052250 -0.032793
v 0.008760 -0.049628 -0.028975
v 0.013724 -0.049713 -0.021146
v 0.013724 -0.052472 -0.012295
v 0.008760 -0.056851 -0.005804
v 0.011314 -0.083480 -0.011104
v 0.003283 -0.086102 -0.014922
v -0.001680 -0.086017 -0.022751
v -0.001680 -0.083258 -0.031602
v 0.003283 -0.078879 -0.038093
v 0.011314 -0.074553 -0.039745
v 0.019345 -0.071932 -0.035927
v 0.024309 -0.072017 -0.028098
v 0.024309 -0.074775 -0.019247
v 0.019345 -0.079154 -0.012756
v -0.025344 0.093254 0.011519
v -0.034133 0.094511 0.008851
v -0.039565 0.096432 0.001589
v -0.039565 0.098282 -0.007495
v -0.034133 0.099356 -0.014931
v -0.025344 0.099243 -0.017877
v -0.016555 0.097986 -0.015210
v -0.011123 0.096066 -0.007947
v -0.011123 0.094215 0.001137
v -0.016555 0.093141 0.008572
v -0.032471 0.005441 -0.006371
v -0.041260 0.006698 -0.009039
v -0.046692 0.008618 -0.016302
v -0.046692 0.010469 -0.025386
v -0.041260 0.011543 -0.032821
v -0.032471 0.011430 -0.035767
v -0.023682 0.010173 -0.033100
v -0.018250 0.008252 -0.025837
v -0.018250 0.006402 -0.016753
v -0.023682 0.005328 -0.009318
v -0.032471 0.008242 -0.006071
v -0.041222 0.007202 -0.008949
v -0.046630 0.006633 -0.016457
v -0.046630 0.006752 -0.025727
v -0.041222 0.007514 -0.033217
v -0.032471 0.008628 -0.036068
v -0.023721 0.009668 -0.033190
v -0.018312 0.010237 -0.025682
v -0.018312 0.010118 -0.016412
v -0.023721 0.009356 -0.008921
v -0.029284 -0.017654 -0.006404
v -0.038034 -0.018694 -0.009282
v -0.043443 -0.019264 -0.016790
v -0.043443 -0.019144 -0.026060
v -0.038034 -0.018382 -0.033551
v -0.029284 -0.017268 -0.036401
v -0.020533 -0.016228 -0.033523
v -0.015125 -0.015659 -0.026015
v -0.015125 -0.015778 -0.016745
v -0.020533 -0.016541 -0.009255
v -0.029284 -0.019688 -0.006569
v -0.037644 -0.022033 -0.009818
v -0.042810 -0.022632 -0.017492
v -0.042810 -0.021256 -0.026659
v -0.037644 -0.018430 -0.033819
v -0.029284 -0.015235 -0.036236
v -0.020924 -0.012890 -0.032988
v -0.015757 -0.012291 -0.025314
v -0.015757 -0.013667 -0.016146
v -0.020924 -0.016492 -0.008986
v -0.021479 -0.042720 -0.010026
v -0.029839 -0.045065 -0.013275
v -0.035006 -0.045664 -0.020949
v -0.035006 -0.044288 -0.030116
v -0.029839 -0.041462 -0.037276
v -0.021479 -0.038267 -0.039694
v -0.013119 -0.035922 -0.036445
v -0.007953 -0.035323 -0.028771
v -0.007953 -0.036699 -0.019603
v -0.013119 -0.039524 -0.012443
v -0.021479 -0.047896 -0.011814
v -0.029674 -0.049313 -0.015912
v -0.034738 -0.047360 -0.023427
v -0.034738 -0.042785 -0.031490
v -0.029674 -0.037334 -0.037020
v -0.021479 -0.033090 -0.037905
v -0.013285 -0.031674 -0.033808
v -0.008221 -0.033626 -0.026292
v -0.008221 -0.038202 -0.018230
v -0.013285 -0.043652 -0.012699
v -0.013489 -0.065394 -0.021744
v -0.021684 -0.066811 -0.025841
v -0.026748 -0.064858 -0.033357
v -0.026748 -0.060283 -0.041420
v -0.021684 -0.054832 -0.046950
v -0.013489 -0.050588 -0.047835
v -0.005295 -0.049172 -0.043738
v -0.000231 -0.051124 -0.036222
v -0.000231 -0.055700 -0.028159
v -0.005295 -0.061150 -0.022629
f 1 2 13
f 2 14 13
f 2 3 14
f 3 15 14
f 3 4 15
f 4 16 15
f 4 5 16
f 5 17 16
f 5 6 17
f 6 18 17
f 6 7 18
f 7 19 18
f 7 8 19
f 8 20 19
f 8 9 20
f 9 21 20
f 9 10 21
f 10 22 21
f 10 11 22
f 11 23 22
f 11 12 23
f 12 24 23
f 13 14 25
f 14 26 25
f 14 15 26
f 15 27 26
f 15 16 27
f 16 28 27
f 16 17 28
f 17 29 28
f 17 18 29
f 18 30 29
f 18 19 30
f 19 31 30
f 19 20 31
f 20 32 31
f 20 21 32
f 21 33 32
f 21 22 33
f 22 34 33
f 22 23 34
f 23 35 34
f 23 24 35
f 24 36 35
f 25 26 37
f 26 38 37
f 26 27 38
f 27 39 38
f 27 28 39
f 28 40 39
f 28 29 40
f 29 41 40
f 29 30 41
f 30 42 41
f 30 31 42
f 31 43 42
f 31 32 43
f 32 44 43
f 32 33 44
f 33 45 44
f 33 34 45
f 34 46 45
f 34 35 46
f 35 47 46
f 35 36 47
f 36 48 47
f 37 38 49
f 38 50 49
f 38 39 50
f 39 51 50
f 39 40 51
f 40 52 51
f 40 41 52
f 41 53 52
f 41 42 53
f 42 54 53
f 42 43 54
f 43 55 54
f 43 44 55
f 44 56 55
f 44 45 56
f 45 57 56
f 45 46 57
f 46 58 57
f 46 47 58
f 47 59 58
f 47 48 59
f 48 60 59
f 49 50 61
f 50 62 61
f 50 51 62
f 51 63 62
f 51 52 63
f 52 64 63
f 52 53 64
f 53 65 64
f 53 54 65
f 54 66 65
f 54 55 66
f 55 67 66
f 55 56 67
f 56 68 67
f 56 57 68
f 57 69 68
f 57 58 69
f 58 70 69
f 58 59 70
f 59 71 70
f 59 60 71
f 60 72 71
f 61 62 73
f 62 74 73
f 62 63 74
f 63 75 74
f 63 64 75
f 64 76 75
f 64 65 76
f 65 77 76
f 65 66 77
f 66 78 77
f 66 67 78
f 67 79 78
f 67 68 79
f 68 80 79
f 68 69 80
f 69 81 80
f 69 70 81
f 70 82 81
f 70 71 82
f 71 83 82
f 71 72 83
f 72 84 83
f 73 74 85
f 74 86 85
f 74 75 86
f 75 87 86
f 75 76 87
f 76 88 87
f 76 77 88
f 77 89 88
f 77 78 89
f 78 90 89
f 78 79 90
f 79 91 90
f 79 80 91
f 80 92 91
f 80 81 92
f 81 93 92
f 81 82 93
f 82 94 93
f 82 83 94
f 83 95 94
f 83 84 95
f 84 96 95
f 85 86 97
f 86 98 97
f 86 87 98
f 87 99 98
f 87 88 99
f 88 100 99
f 88 89 100
f 89 101 100
f 89 90 101
f 90 102 101
f 90 91 102
f 91 103 102
f 91 92 103
f 92 104 103
f 92 93 104
f 93 105 104
f 93 94 105
f 94 106 105
f 94 95 106
f 95 107 106
f 95 96 107
f 96 108 107
f 97 98 109
f 98 110 109
f 98 99 110
f 99 111 110
f 99 100 111
f 100 112 111
f 100 101 112
f 101 113 112
f 101 102 113
f 102 114 113
f 102 103 114
f 103 115 114
f 103 104 115
f 104 116 115
f 104 105 116
f 105 117 116
f 105 106 117
f 106 118 117
f 106 107 118
f 107 119 118
f 107 108 119
f 108 120 119
f 109 110 121
f 110 122 121
f 110 111 122
f 111 123 122
f 111 112 123
f 112 124 123
f 112 113 124
f 113 125 124
f 113 114 125
f 114 126 125
f 114 115 126
f 115 127 126
f 115 116 127
f 116 128 127
f 116 117 128
f 117 129 128
f 117 118 129
f 118 130 129
f 118 119 130
f 119 131 130
f 119 120 131
f 120 132 131
f 121 122 133
f 122 134 133
f 122 123 134
f 123 135 134
f 123 124 135
f 124 136 135
f 124 125 136
f 125 137 136
f 125 126 137
f 126 138 137
f 126 127 138
f 127 139 138
f 127 128 139
f 128 140 139
f 128 129 140
f 129 141 140
f 129 130 141
f 130 142 141
f 130 131 142
f 131 143 142
f 131 132 143
f 132 144 143
f 145 146 155
f 146 156 155
f 146 147 156
f 147 157 156
f 147 148 157
f 148 158 157
f 148 149 158
f 149 159 158
f 149 150 159
f 150 160 159
f 150 151 160
f 151 161 160
f 151 152 161
f 152 162 161
f 152 153 162
f 153 163 162
f 153 154 163
f 154 164 163
f 154 145 164
f 145 155 164
f 165 166 175
f 166 176 175
f 166 167 176
f 167 177 176
f 167 168 177
f 168 178 177
f 168 169 178
f 169 179 178
f 169 170 179
f 170 180 179
f 170 171 180
f 171 181 180
f 171 172 181
f 172 182 181
f 172 173 182
f 173 183 182
f 173 174 183
f 174 184 183
f 174 165 184
f 165 175 184
f 185 186 195
f 186 196 195
f 186 187 196
f 187 197 196
f 187 188 197
f 188 198 197
f 188 189 198
f 189 199 198
f 189 190 199
f 190 200 199
f 190 191 200
f 191 201 200
f 191 192 201
f 192 202 201
f 192 193 202
f 193 203 202
f 193 194 203
f 194 204 203
f 194 185 204
f 185 195 204
f 205 206 215
f 206 216 215
f 206 207 216
f 207 217 216
f 207 208 217
f 208 218 217
f 208 209 218
f 209 219 218
f 209 210 219
f 210 220 219
f 210 211 220
f 211 221 220
f 211 212 221
f 212 222 221
f 212 213 222
f 213 223 222
f 213 214 223
f 214 224 223
f 214 205 224
f 205 215 224
f 225 226 235
f 226 236 235
f 226 227 236
f 227 237 236
f 227 228 237
f 228 238 237
f 228 229 238
f 229 239 238
f 229 230 239
f 230 240 239
f 230 231 240
f 231 241 240
f 231 232 241
f 232 242 241
f 232 233 242
f 233 243 242
f 233 234 243
f 234 244 243
f 234 225 244
f 225 235 244
f 245 246 255
f 246 256 255
f 246 247 256
f 247 257 256
f 247 248 257
f 248 258 257
f 248 249 258
f 249 259 258
f 249 250 259
f 250 260 259
f 250 251 260
f 251 261 260
f 251 252 261
f 252 262 261
f 252 253 262
f 253 263 262
f 253 254 263
f 254 264 263
f 254 245 264
f 245 255 264
f 265 266 275
f 266 276 275
f 266 267 276
f 267 277 276
f 267 268 277
f 268 278 277
f 268 269 278
f 269 279 278
f 269 270 279
f 270 280 279
f 270 271 280
f 271 281 280
f 271 272 281
f 272 282 281
f 272 273 282
f 273 283 282
f 273 274 283
f 274 284 283
f 274 265 284
f 265 275 284
f 285 286 295
f 286 296 295
f 286 287 296
f 287 297 296
f 287 288 297
f 288 298 297
f 288 289 298
f 289 299 298
f 289 290 299
f 290 300 299
f 290 291 300
f 291 301 300
f 291 292 301
f 292 302 301
f 292 293 302
f 293 303 302
f 293 294 303
f 294 304 303
f 294 285 304
f 285 295 304
f 305 306 315
f 306 316 315
f 306 307 316
f 307 317 316
f 307 308 317
f 308 318 317
f 308 309 318
f 309 319 318
f 309 310 319
f 310 320 319
f 310 311 320
f 311 321 320
f 311 312 321
f 312 322 321
f 312 313 322
f 313 323 322
f 313 314 323
f 314 324 323
f 314 305 324
f 305 315 324
f 325 326 335
f 326 336 335
f 326 327 336
f 327 337 336
f 327 328 337
f 328 338 337
f 328 329 338
f 329 339 338
f 329 330 339
f 330 340 339
f 330 331 340
f 331 341 340
f 331 332 341
f 332 342 341
f 332 333 342
f 333 343 342
f 333 334 343
f 334 344 343
f 334 325 344
f 325 335 344
f 345 346 355
f 346 356 355
f 346 347 356
f 347 357 356
f 347 348 357
f 348 358 357
f 348 349 358
f 349 359 358
f 349 350 359
f 350 360 359
f 350 351 360
f 351 361 360
f 351 352 361
f 352 362 361
f 352 353 362
f 353 363 362
f 353 354 363
f 354 364 363
f 354 345 364
f 345 355 364
f 365 366 375
f 366 376 375
f 366 367 376
f 367 377 376
f 367 368 377
f 368 378 377
f 368 369 378
f 369 379 378
f 369 370 379
f 370 380 379
f 370 371 380
f 371 381 380
f 371 372 381
f 372 382 381
f 372 373 382
f 373 383 382
f 373 374 383
f 374 384 383
f 374 365 384
f 365 375 384
f 385 386 395
f 386 396 395
f 386 387 396
f 387 397 396
f 387 388 397
f 388 398 397
f 388 389 398
f 389 399 398
f 389 390 399
f 390 400 399
f 390 391 400
f 391 401 400
f 391 392 401
f 392 402 401
f 392 393 402
f 393 403 402
f 393 394 403
f 394 404 403
f 394 385 404
f 385 395 404
f 405 406 415
f 406 416 415
f 406 407 416
f 407 417 416
f 407 408 417
f 408 418 417
f 408 409 418
f 409 419 418
f 409 410 419
f 410 420 419
f 410 411 420
f 411 421 420
f 411 412 421
f 412 422 421
f 412 413 422
f 413 423 422
f 413 414 423
f 414 424 423
f 414 405 424
f 405 415 424
f 425 426 435
f 426 436 435
f 426 427 436
f 427 437 436
f 427 428 437
f 428 438 437
f 428 429 438
f 429 439 438
f 429 430 439
f 430 440 439
f 430 431 440
f 431 441 440
f 431 432 441
f 432 442 441
f 432 433 442
f 433 443 442
f 433 434 443
f 434 444 443
f 434 425 444
f 425 435 444
f 445 446 455
f 446 456 455
f 446 447 456
f 447 457 456
f 447 448 457
f 448 458 457
f 448 449 458
f 449 459 458
f 449 450 459
f 450 460 459
f 450 451 460
f 451 461 460
f 451 452 461
f 452 462 461
f 452 453 462
f 453 463 462
f 453 454 463
f 454 464 463
f 454 445 464
f 445 455 464
f 465 466 475
f 466 476 475
f 466 467 476
f 467 477 476
f 467 468 477
f 468 478 477
f 468 469 478
f 469 479 478
f 469 470 479
f 470 480 479
f 470 471 480
f 471 481 480
f 471 472 481
f 472 482 481
f 472 473 482
f 473 483 482
f 473 474 483
f 474 484 483
f 474 465 484
f 465 475 484
f 485 486 495
f 486 496 495
f 486 487 496
f 487 497 496
f 487 488 497
f 488 498 497
f 488 489 498
f 489 499 498
f 489 490 499
f 490 500 499
f 490 491 500
f 491 501 500
f 491 492 501
f 492 502 501
f 492 493 502
f 493 503 502
f 493 494 503
f 494 504 503
f 494 485 504
f 485 495 504
f 505 506 515
f 506 516 515
f 506 507 516
f 507 517 516
f 507 508 517
f 508 518 517
f 508 509 518
f 509 519 518
f 509 510 519
f 510 520 519
f 510 511 520
f 511 521 520
f 511 512 521
f 512 522 521
f 512 513 522
f 513 523 522
f 513 514 523
f 514 524 523
f 514 505 524
f 505 515 524
f 525 526 535
f 526 536 535
f 526 527 536
f 527 537 536
f 527 528 537
f 528 538 537
f 528 529 538
f 529 539 538
f 529 530 539
f 530 540 539
f 530 531 540
f 531 541 540
f 531 532 541
f 532 542 541
f 532 533 542
f 533 543 542
f 533 534 543
f 534 544 543
f 534 525 544
f 525 535 544
f 545 546 555
f 546 556 555
f 546 547 556
f 547 557 556
f 547 548 557
f 548 558 557
f 548 549 558
f 549 559 558
f 549 550 559
f 550 560 559
f 550 551 560
f 551 561 560
f 551 552 561
f 552 562 561
f 552 553 562
f 553 563 562
f 553 554 563
f 554 564 563
f 554 545 564
f 545 555 564
f 565 566 575
f 566 576 575
f 566 567 576
f 567 577 576
f 567 568 577
f 568 578 577
f 568 569 578
f 569 579 578
f 569 570 579
f 570 580 579
f 570 571 580
f 571 581 580
f 571 572 581
f 572 582 581
f 572 573 582
f 573 583 582
f 573 574 583
f 574 584 583
f 574 565 584
f 565 575 584
f 585 586 595
f 586 596 595
f 586 587 596
f 587 597 596
f 587 588 597
f 588 598 597
f 588 589 598
f 589 599 598
f 589 590 599
f 590 600 599
f 590 591 600
f 591 601 600
f 591 592 601
f 592 602 601
f 592 593 602
f 593 603 602
f 593 594 603
f 594 604 603
f 594 585 604
f 585 595 604
f 605 606 615
f 606 616 615
f 606 607 616
f 607 617 616
f 607 608 617
f 608 618 617
f 608 609 618
f 609 619 618
f 609 610 619
f 610 620 619
f 610 611 620
f 611 621 620
f 611 612 621
f 612 622 621
f 612 613 622
f 613 623 622
f 613 614 623
f 614 624 623
f 614 605 624
f 605 615 624
f 625 626 635
f 626 636 635
f 626 627 636
f 627 637 636
f 627 628 637
f 628 638 637
f 628 629 638
f 629 639 638
f 629 630 639
f 630 640 639
f 630 631 640
f 631 641 640
f 631 632 641
f 632 642 641
f 632 633 642
f 633 643 642
f 633 634 643
f 634 644 643
f 634 625 644
f 625 635 644
f 645 646 655
f 646 656 655
f 646 647 656
f 647 657 656
f 647 648 657
f 648 658 657
f 648 649 658
f 649 659 658
f 649 650 659
f 650 660 659
f 650 651 660
f 651 661 660
f 651 652 661
f 652 662 661
f 652 653 662
f 653 663 662
f 653 654 663
f 654 664 663
f 654 645 664
f 645 655 664
f 665 666 675
f 666 676 675
f 666 667 676
f 667 677 676
f 667 668 677
f 668 678 677
f 668 669 678
f 669 679 678
f 669 670 679
f 670 680 679
f 670 671 680
f 671 681 680
f 671 672 681
f 672 682 681
f 672 673 682
f 673 683 682
f 673 674 683
f 674 684 683
f 674 665 684
f 665 675 684
f 685 686 695
f 686 696 695
f 686 687 696
f 687 697 696
f 687 688 697
f 688 698 697
f 688 689 698
f 689 699 698
f 689 690 699
f 690 700 699
f 690 691 700
f 691 701 700
f 691 692 701
f 692 702 701
f 692 693 702
f 693 703 702
f 693 694 703
f 694 704 703
f 694 685 704
f 685 695 704
f 705 706 715
f 706 716 715
f 706 707 716
f 707 717 716
f 707 708 717
f 708 718 717
f 708 709 718
f 709 719 718
f 709 710 719
f 710 720 719
f 710 711 720
f 711 721 720
f 711 712 721
f 712 722 721
f 712 713 722
f 713 723 722
f 713 714 723
f 714 724 723
f 714 705 724
f 705 715 724
f 725 726 735
f 726 736 735
f 726 727 736
f 727 737 736
f 727 728 737
f 728 738 737
f 728 729 738
f 729 739 738
f 729 730 739
f 730 740 739
f 730 731 740
f 731 741 740
f 731 732 741
f 732 742 741
f 732 733 742
f 733 743 742
f 733 734 743
f 734 744 743
f 734 725 744
f 725 735 744
f 745 746 755
f 746 756 755
f 746 747 756
f 747 757 756
f 747 748 757
f 748 758 757
f 748 749 758
f 749 759 758
f 749 750 759
f 750 760 759
f 750 751 760
f 751 761 760
f 751 752 761
f 752 762 761
f 752 753 762
f 753 763 762
f 753 754 763
f 754 764 763
f 754 745 764
f 745 755 764
f 765 766 775
f 766 776 775
f 766 767 776
f 767 777 776
f 767 768 777
f 768 778 777
f 768 769 778
f 769 779 778
f 769 770 779
f 770 780 779
f 770 771 780
f 771 781 780
f 771 772 781
f 772 782 781
f 772 773 782
f 773 783 782
f 773 774 783
f 774 784 783
f 774 765 784
f 765 775 784
