# Full-Body 3D Mesh - Frame 175
v 0.014767 -0.623457 -0.107622
v 0.048575 -0.623457 -0.112483
v 0.079644 -0.623457 -0.126672
v 0.105457 -0.623457 -0.149039
v 0.123923 -0.623457 -0.177772
v 0.133546 -0.623457 -0.210544
v 0.133546 -0.623457 -0.244700
v 0.123923 -0.623457 -0.277472
v 0.105457 -0.623457 -0.306206
v 0.079644 -0.623457 -0.328573
v 0.048575 -0.623457 -0.342761
v 0.014767 -0.623457 -0.347622
v 0.014767 -0.623457 -0.107622
v 0.043208 -0.605179 -0.112483
v 0.069345 -0.588381 -0.126672
v 0.091061 -0.574426 -0.149039
v 0.106595 -0.564442 -0.177772
v 0.114690 -0.559240 -0.210544
v 0.114690 -0.559240 -0.244700
v 0.106595 -0.564442 -0.277472
v 0.091061 -0.574426 -0.306206
v 0.069345 -0.588381 -0.328573
v 0.043208 -0.605179 -0.342761
v 0.014767 -0.623457 -0.347622
v 0.014767 -0.623457 -0.107622
v 0.028812 -0.592704 -0.112483
v 0.041718 -0.564442 -0.126672
v 0.052441 -0.540962 -0.149039
v 0.060112 -0.524165 -0.177772
v 0.064110 -0.515412 -0.210544
v 0.064110 -0.515412 -0.244700
v 0.060112 -0.524165 -0.277472
v 0.052441 -0.540962 -0.306206
v 0.041718 -0.564442 -0.328573
v 0.028812 -0.592704 -0.342761
v 0.014767 -0.623457 -0.347622
v 0.014767 -0.623457 -0.107622
v 0.009956 -0.589993 -0.112483
v 0.005534 -0.559240 -0.126672
v 0.001861 -0.533690 -0.149039
v -0.000767 -0.515412 -0.177772
v -0.002137 -0.505887 -0.210544
v -0.002137 -0.505887 -0.244700
v -0.000767 -0.515412 -0.277472
v 0.001861 -0.533690 -0.306206
v 0.005534 -0.559240 -0.328573
v 0.009956 -0.589993 -0.342761
v 0.014767 -0.623457 -0.347622
v 0.014767 -0.623457 -0.107622
v -0.007372 -0.597906 -0.112483
v -0.027718 -0.574426 -0.126672
v -0.044622 -0.554918 -0.149039
v -0.056714 -0.540962 -0.177772
v -0.063016 -0.533690 -0.210544
v -0.063016 -0.533690 -0.244700
v -0.056714 -0.540962 -0.277472
v -0.044622 -0.554918 -0.306206
v -0.027718 -0.574426 -0.328573
v -0.007372 -0.597906 -0.342761
v 0.014767 -0.623457 -0.347622
v 0.014767 -0.623457 -0.107622
v -0.017671 -0.613932 -0.112483
v -0.047481 -0.605179 -0.126672
v -0.072249 -0.597906 -0.149039
v -0.089967 -0.592704 -0.177772
v -0.099200 -0.589993 -0.210544
v -0.099200 -0.589993 -0.244700
v -0.089967 -0.592704 -0.277472
v -0.072249 -0.597906 -0.306206
v -0.047481 -0.605179 -0.328573
v -0.017671 -0.613932 -0.342761
v 0.014767 -0.623457 -0.347622
v 0.014767 -0.623457 -0.107622
v -0.017671 -0.632981 -0.112483
v -0.047481 -0.641734 -0.126672
v -0.072249 -0.649007 -0.149039
v -0.089967 -0.654209 -0.177772
v -0.099200 -0.656920 -0.210544
v -0.099200 -0.656920 -0.244700
v -0.089967 -0.654209 -0.277472
v -0.072249 -0.649007 -0.306206
v -0.047481 -0.641734 -0.328573
v -0.017671 -0.632981 -0.342761
v 0.014767 -0.623457 -0.347622
v 0.014767 -0.623457 -0.107622
v -0.007372 -0.649007 -0.112483
v -0.027718 -0.672487 -0.126672
v -0.044622 -0.691995 -0.149039
v -0.056714 -0.705951 -0.177772
v -0.063016 -0.713223 -0.210544
v -0.063016 -0.713223 -0.244700
v -0.056714 -0.705951 -0.277472
v -0.044622 -0.691995 -0.306206
v -0.027718 -0.672487 -0.328573
v -0.007372 -0.649007 -0.342761
v 0.014767 -0.623457 -0.347622
v 0.014767 -0.623457 -0.107622
v 0.009956 -0.656920 -0.112483
v 0.005534 -0.687673 -0.126672
v 0.001861 -0.713223 -0.149039
v -0.000767 -0.731501 -0.177772
v -0.002137 -0.741026 -0.210544
v -0.002137 -0.741026 -0.244700
v -0.000767 -0.731501 -0.277472
v 0.001861 -0.713223 -0.306206
v 0.005534 -0.687673 -0.328573
v 0.009956 -0.656920 -0.342761
v 0.014767 -0.623457 -0.347622
v 0.014767 -0.623457 -0.107622
v 0.028812 -0.654209 -0.112483
v 0.041718 -0.682471 -0.126672
v 0.052441 -0.705951 -0.149039
v 0.060112 -0.722748 -0.177772
v 0.064110 -0.731501 -0.210544
v 0.064110 -0.731501 -0.244700
v 0.060112 -0.722748 -0.277472
v 0.052441 -0.705951 -0.306206
v 0.041718 -0.682471 -0.328573
v 0.028812 -0.654209 -0.342761
v 0.014767 -0.623457 -0.347622
v 0.014767 -0.623457 -0.107622
v 0.043208 -0.641734 -0.112483
v 0.069345 -0.658532 -0.126672
v 0.091061 -0.672487 -0.149039
v 0.106595 -0.682471 -0.177772
v 0.114690 -0.687673 -0.210544
v 0.114690 -0.687673 -0.244700
v 0.106595 -0.682471 -0.277472
v 0.091061 -0.672487 -0.306206
v 0.069345 -0.658532 -0.328573
v 0.043208 -0.641734 -0.342761
v 0.014767 -0.623457 -0.347622
v 0.014767 -0.623457 -0.107622
v 0.048575 -0.623457 -0.112483
v 0.079644 -0.623457 -0.126672
v 0.105457 -0.623457 -0.149039
v 0.123923 -0.623457 -0.177772
v 0.133546 -0.623457 -0.210544
v 0.133546 -0.623457 -0.244700
v 0.123923 -0.623457 -0.277472
v 0.105457 -0.623457 -0.306206
v 0.079644 -0.623457 -0.328573
v 0.048575 -0.623457 -0.342761
v 0.014767 -0.623457 -0.347622
v 0.165365 -0.432151 -0.079360
v 0.166206 -0.455611 -0.071612
v 0.165332 -0.470111 -0.051608
v 0.163076 -0.470111 -0.026990
v 0.160300 -0.455611 -0.007161
v 0.158065 -0.432151 0.000306
v 0.157224 -0.408690 -0.007443
v 0.158098 -0.394190 -0.027446
v 0.160354 -0.394190 -0.052064
v 0.163130 -0.408690 -0.071894
v -0.172438 -0.454484 -0.110314
v -0.171597 -0.477944 -0.102565
v -0.172471 -0.492444 -0.082562
v -0.174727 -0.492444 -0.057943
v -0.177503 -0.477944 -0.038114
v -0.179738 -0.454484 -0.030647
v -0.180579 -0.431023 -0.038396
v -0.179705 -0.416523 -0.058399
v -0.177449 -0.416523 -0.083018
v -0.174673 -0.431023 -0.102847
v 0.161715 -0.433161 -0.079514
v 0.139102 -0.426533 -0.072040
v 0.125126 -0.422050 -0.052147
v 0.125126 -0.421426 -0.027434
v 0.139102 -0.424897 -0.007340
v 0.161715 -0.431140 0.000460
v 0.184328 -0.437768 -0.007014
v 0.198303 -0.442251 -0.026907
v 0.198303 -0.442876 -0.051621
v 0.184328 -0.439404 -0.071715
v 0.226098 -0.207072 -0.085230
v 0.203485 -0.200443 -0.077756
v 0.189510 -0.195961 -0.057863
v 0.189510 -0.195336 -0.033149
v 0.203485 -0.198808 -0.013055
v 0.226098 -0.205050 -0.005256
v 0.248711 -0.211678 -0.012730
v 0.262687 -0.216161 -0.032623
v 0.262687 -0.216786 -0.057336
v 0.248711 -0.213314 -0.077431
v 0.226098 -0.227724 -0.078869
v 0.202626 -0.224736 -0.071706
v 0.188120 -0.214615 -0.054436
v 0.188120 -0.201226 -0.033654
v 0.202626 -0.189684 -0.017299
v 0.226098 -0.184397 -0.011617
v 0.249570 -0.187385 -0.018780
v 0.264076 -0.197507 -0.036050
v 0.264076 -0.210896 -0.056832
v 0.249570 -0.222438 -0.073187
v 0.215683 -0.077417 -0.175705
v 0.192212 -0.074429 -0.168543
v 0.177705 -0.064307 -0.151272
v 0.177705 -0.050918 -0.130490
v 0.192212 -0.039376 -0.114135
v 0.215683 -0.034090 -0.108454
v 0.239155 -0.037078 -0.115616
v 0.253661 -0.047199 -0.132887
v 0.253661 -0.060588 -0.153668
v 0.239155 -0.072130 -0.170024
v -0.176088 -0.480513 -0.100853
v -0.194835 -0.486316 -0.085819
v -0.206421 -0.479960 -0.064926
v -0.206421 -0.463872 -0.046155
v -0.194835 -0.444199 -0.036676
v -0.176088 -0.428454 -0.040108
v -0.157341 -0.422651 -0.055142
v -0.145754 -0.429008 -0.076035
v -0.145754 -0.445095 -0.094806
v -0.157341 -0.464768 -0.104285
v -0.344065 -0.311996 -0.245275
v -0.362812 -0.317798 -0.230241
v -0.374399 -0.311442 -0.209348
v -0.374399 -0.295355 -0.190577
v -0.362812 -0.275682 -0.181098
v -0.344065 -0.259937 -0.184531
v -0.325318 -0.254134 -0.199565
v -0.313732 -0.260490 -0.220457
v -0.313732 -0.276577 -0.239228
v -0.325318 -0.296250 -0.248708
v -0.344065 -0.324361 -0.203685
v -0.362957 -0.320953 -0.219262
v -0.374633 -0.304181 -0.233173
v -0.374633 -0.280452 -0.240106
v -0.362957 -0.258829 -0.237412
v -0.344065 -0.247571 -0.226120
v -0.325173 -0.250979 -0.210544
v -0.313497 -0.267751 -0.196633
v -0.313497 -0.291480 -0.189700
v -0.325173 -0.313103 -0.192394
v -0.184544 -0.384748 -0.410376
v -0.203436 -0.381340 -0.425952
v -0.215111 -0.364568 -0.439864
v -0.215111 -0.340839 -0.446796
v -0.203436 -0.319216 -0.444102
v -0.184544 -0.307958 -0.432811
v -0.165651 -0.311366 -0.417234
v -0.153976 -0.328138 -0.403323
v -0.153976 -0.351867 -0.396390
v -0.165651 -0.373490 -0.399084
v 0.161715 -0.427891 -0.079300
v 0.138296 -0.430771 -0.071925
v 0.123822 -0.434179 -0.052176
v 0.123822 -0.436811 -0.027595
v 0.138296 -0.437664 -0.007572
v 0.161715 -0.436410 0.000245
v 0.185134 -0.433530 -0.007129
v 0.199608 -0.430123 -0.026879
v 0.199608 -0.427490 -0.051459
v 0.185134 -0.426637 -0.071483
v 0.122572 0.010594 -0.032336
v 0.099152 0.007714 -0.024962
v 0.084678 0.004306 -0.005212
v 0.084678 0.001674 0.019369
v 0.099152 0.000821 0.039392
v 0.122572 0.002075 0.047209
v 0.145991 0.004955 0.039834
v 0.160465 0.008362 0.020085
v 0.160465 0.010995 -0.004496
v 0.145991 0.011848 -0.024519
v -0.176088 -0.448595 -0.110045
v -0.199425 -0.446893 -0.102068
v -0.213848 -0.448090 -0.082026
v -0.213848 -0.451729 -0.057574
v -0.199425 -0.456421 -0.038052
v -0.176088 -0.460372 -0.030916
v -0.152751 -0.462074 -0.038893
v -0.138328 -0.460877 -0.058935
v -0.138328 -0.457238 -0.083387
v -0.152751 -0.452546 -0.102909
v -0.122388 -0.014852 -0.045491
v -0.145725 -0.013150 -0.037514
v -0.160148 -0.014347 -0.017472
v -0.160148 -0.017986 0.006980
v -0.145725 -0.022677 0.026502
v -0.122388 -0.026629 0.033637
v -0.099050 -0.028331 0.025661
v -0.084627 -0.027134 0.005618
v -0.084627 -0.023494 -0.018834
v -0.099050 -0.018803 -0.038356
v 0.124750 0.006334 -0.032504
v 0.126910 -0.017035 -0.024736
v 0.127412 -0.031478 -0.004679
v 0.126065 -0.031478 0.020006
v 0.123384 -0.017035 0.039889
v 0.120393 0.006334 0.047377
v 0.118234 0.029704 0.039609
v 0.117731 0.044147 0.019551
v 0.119078 0.044147 -0.005133
v 0.121759 0.029704 -0.025017
v -0.120209 -0.020740 -0.045867
v -0.118049 -0.044110 -0.038099
v -0.117547 -0.058553 -0.018042
v -0.118894 -0.058553 0.006643
v -0.121575 -0.044110 0.026526
v -0.124566 -0.020740 0.034014
v -0.126726 0.002629 0.026245
v -0.127228 0.017072 0.006188
v -0.125881 0.017072 -0.018497
v -0.123200 0.002629 -0.038380
v 0.122572 -0.007330 -0.030157
v 0.099156 -0.002728 -0.023702
v 0.084684 0.005335 -0.005352
v 0.084684 0.013780 0.017882
v 0.099156 0.019381 0.037126
v 0.122572 0.019999 0.045030
v 0.145987 0.015397 0.038574
v 0.160459 0.007334 0.020225
v 0.160459 -0.001111 -0.003009
v 0.145987 -0.006712 -0.022254
v 0.136606 0.138390 -0.083122
v 0.113191 0.142992 -0.076666
v 0.098719 0.151055 -0.058317
v 0.098719 0.159500 -0.035083
v 0.113191 0.165101 -0.015838
v 0.136606 0.165719 -0.007935
v 0.160022 0.161117 -0.014390
v 0.174494 0.153054 -0.032740
v 0.174494 0.144609 -0.055974
v 0.160022 0.139008 -0.075218
v 0.136606 0.172755 -0.079755
v 0.113245 0.171070 -0.071846
v 0.098807 0.162123 -0.053885
v 0.098807 0.149329 -0.032731
v 0.113245 0.137577 -0.016466
v 0.136606 0.131354 -0.011301
v 0.159968 0.133038 -0.019210
v 0.174406 0.141986 -0.037172
v 0.174406 0.154780 -0.058326
v 0.159968 0.166532 -0.074591
v 0.176739 0.475282 0.103212
v 0.153378 0.473597 0.111121
v 0.138939 0.464649 0.129082
v 0.138939 0.451856 0.150236
v 0.153378 0.440103 0.166501
v 0.176739 0.433881 0.171666
v 0.200100 0.435565 0.163757
v 0.214539 0.444513 0.145795
v 0.214539 0.457307 0.124641
v 0.200100 0.469059 0.108376
v -0.122388 -0.060068 0.001377
v -0.145774 -0.052999 -0.002400
v -0.160227 -0.033609 -0.007525
v -0.160227 -0.009304 -0.012039
v -0.145774 0.010634 -0.014219
v -0.122388 0.018587 -0.013231
v -0.099001 0.011519 -0.009454
v -0.084548 -0.007872 -0.004329
v -0.084548 -0.032177 0.000185
v -0.099001 -0.052114 0.002365
v -0.100156 -0.099248 -0.209571
v -0.123542 -0.092179 -0.213349
v -0.137996 -0.072789 -0.218473
v -0.137996 -0.048483 -0.222988
v -0.123542 -0.028546 -0.225167
v -0.100156 -0.020593 -0.224180
v -0.076770 -0.027661 -0.220402
v -0.062316 -0.047051 -0.215278
v -0.062316 -0.071357 -0.210763
v -0.076770 -0.091294 -0.208584
v -0.100156 -0.065561 -0.256476
v -0.123453 -0.061347 -0.249360
v -0.137851 -0.056588 -0.229836
v -0.137851 -0.053102 -0.205361
v -0.123453 -0.052220 -0.185285
v -0.100156 -0.054280 -0.177275
v -0.076859 -0.058493 -0.184391
v -0.062461 -0.063252 -0.203915
v -0.062461 -0.066738 -0.228390
v -0.076859 -0.067620 -0.248466
v -0.058612 0.236875 -0.299555
v -0.081909 0.241089 -0.292439
v -0.096307 0.245848 -0.272915
v -0.096307 0.249334 -0.248440
v -0.081909 0.250216 -0.228364
v -0.058612 0.248157 -0.220354
v -0.035315 0.243943 -0.227471
v -0.020916 0.239184 -0.246995
v -0.020916 0.235698 -0.271469
v -0.035315 0.234816 -0.291545
v -0.055804 0.022179 0.071147
v -0.054799 0.013562 0.067879
v -0.055756 0.008236 0.060352
v -0.058308 0.008236 0.051439
v -0.061481 0.013562 0.044547
v -0.064063 0.022179 0.042306
v -0.065068 0.030796 0.045574
v -0.064112 0.036122 0.053101
v -0.061559 0.036122 0.062014
v -0.058386 0.030796 0.068906
v -0.019694 0.030311 0.060806
v -0.018689 0.021694 0.057539
v -0.019646 0.016368 0.050011
v -0.022198 0.016368 0.041099
v -0.025371 0.021694 0.034206
v -0.027953 0.030311 0.031965
v -0.028958 0.038928 0.035233
v -0.028001 0.044254 0.042761
v -0.025449 0.044254 0.051673
v -0.022276 0.038928 0.058566
v -0.021840 0.030311 0.061254
v -0.022055 0.021496 0.058393
v -0.022946 0.016047 0.050945
v -0.024172 0.016047 0.041756
v -0.025265 0.021496 0.034335
v -0.025807 0.030311 0.031518
v -0.025592 0.039126 0.034379
v -0.024701 0.044574 0.041827
v -0.023475 0.044574 0.051016
v -0.022382 0.039126 0.058436
v 0.015316 0.031012 0.056297
v 0.015101 0.022197 0.053436
v 0.014210 0.016748 0.045988
v 0.012984 0.016748 0.036799
v 0.011891 0.022197 0.029378
v 0.011349 0.031012 0.026561
v 0.011564 0.039827 0.029422
v 0.012455 0.045275 0.036870
v 0.013681 0.045275 0.046059
v 0.014774 0.039827 0.053479
v 0.013333 0.016307 0.044391
v 0.009246 0.017573 0.036167
v 0.006720 0.023971 0.029953
v 0.006720 0.033059 0.028121
v 0.009246 0.041365 0.031373
v 0.013333 0.045716 0.038466
v 0.017419 0.044451 0.046690
v 0.019945 0.038052 0.052905
v 0.019945 0.028965 0.054736
v 0.017419 0.020659 0.051484
v 0.046737 0.012856 0.027261
v 0.042651 0.014121 0.019037
v 0.040125 0.020520 0.012822
v 0.040125 0.029608 0.010991
v 0.042651 0.037914 0.014243
v 0.046737 0.042265 0.021336
v 0.050824 0.041000 0.029560
v 0.053350 0.034601 0.035775
v 0.053350 0.025513 0.037606
v 0.050824 0.017207 0.034354
v 0.046737 0.013966 0.030639
v 0.042677 0.013254 0.022336
v 0.040167 0.018007 0.014782
v 0.040167 0.026408 0.010864
v 0.042677 0.035250 0.012077
v 0.046737 0.041154 0.017958
v 0.050798 0.041866 0.026261
v 0.053308 0.037114 0.033815
v 0.053308 0.028712 0.037734
v 0.050798 0.019871 0.036521
v 0.074536 0.007869 0.017567
v 0.070476 0.007157 0.009264
v 0.067966 0.011909 0.001710
v 0.067966 0.020311 -0.002209
v 0.070476 0.029152 -0.000996
v 0.074536 0.035057 0.004886
v 0.078597 0.035769 0.013189
v 0.081107 0.031016 0.020743
v 0.081107 0.022615 0.024662
v 0.078597 0.013773 0.023449
v -0.059934 0.007817 0.061056
v -0.064560 0.008394 0.053043
v -0.067420 0.014236 0.046437
v -0.067420 0.023112 0.043762
v -0.064560 0.031632 0.046038
v -0.059934 0.036541 0.052398
v -0.055307 0.035964 0.060410
v -0.052447 0.030122 0.067016
v -0.052447 0.021246 0.069691
v -0.055307 0.012726 0.067415
v 0.021622 -0.006692 0.012919
v 0.016995 -0.006115 0.004906
v 0.014136 -0.000273 -0.001699
v 0.014136 0.008603 -0.004375
v 0.016995 0.017123 -0.002098
v 0.021622 0.022031 0.004261
v 0.026248 0.021455 0.012274
v 0.029108 0.015612 0.018879
v 0.029108 0.006736 0.021555
v 0.026248 -0.001783 0.019278
v 0.021622 -0.007301 0.007656
v 0.016771 -0.003983 0.000486
v 0.013773 0.003785 -0.003589
v 0.013773 0.013038 -0.003011
v 0.016771 0.020240 0.001997
v 0.021622 0.022641 0.009524
v 0.026472 0.019323 0.016694
v 0.029470 0.011554 0.020769
v 0.029470 0.002301 0.020191
v 0.026472 -0.004901 0.015182
v 0.044755 -0.006352 -0.007555
v 0.039905 -0.003034 -0.014725
v 0.036907 0.004735 -0.018799
v 0.036907 0.013987 -0.018222
v 0.039905 0.021189 -0.013213
v 0.044755 0.023590 -0.005686
v 0.049606 0.020272 0.001483
v 0.052603 0.012503 0.005558
v 0.052603 0.003251 0.004980
v 0.049606 -0.003951 -0.000028
v 0.044755 -0.006373 -0.006128
v 0.040515 -0.003764 -0.013948
v 0.037894 0.003576 -0.018969
v 0.037894 0.012841 -0.019274
v 0.040515 0.020494 -0.014745
v 0.044755 0.023611 -0.007113
v 0.048996 0.021001 0.000707
v 0.051617 0.013662 0.005728
v 0.051617 0.004397 0.006032
v 0.048996 -0.003256 0.001504
v 0.061231 -0.006670 -0.015162
v 0.056990 -0.004060 -0.022982
v 0.054370 0.003279 -0.028003
v 0.054370 0.012544 -0.028307
v 0.056990 0.020197 -0.023778
v 0.061231 0.023314 -0.016146
v 0.065471 0.020705 -0.008326
v 0.068092 0.013365 -0.003305
v 0.068092 0.004100 -0.003001
v 0.065471 -0.003553 -0.007530
v 0.061231 -0.006678 -0.015598
v 0.053273 -0.003827 -0.019405
v 0.048355 0.003664 -0.021779
v 0.048355 0.012935 -0.021814
v 0.053273 0.020443 -0.019495
v 0.061231 0.023322 -0.015710
v 0.069189 0.020471 -0.011903
v 0.074107 0.012980 -0.009529
v 0.074107 0.003710 -0.009494
v 0.069189 -0.003799 -0.011813
v 0.072223 -0.006764 -0.038640
v 0.064265 -0.003913 -0.042447
v 0.059347 0.003578 -0.044821
v 0.059347 0.012849 -0.044856
v 0.064265 0.020357 -0.042537
v 0.072223 0.023236 -0.038752
v 0.080181 0.020386 -0.034945
v 0.085099 0.012894 -0.032571
v 0.085099 0.003624 -0.032536
v 0.080181 -0.003885 -0.034855
v -0.059934 0.008578 0.063052
v -0.065853 0.008420 0.055918
v -0.069511 0.013518 0.049094
v -0.069511 0.021924 0.045185
v -0.065853 0.030427 0.045684
v -0.059934 0.035780 0.050402
v -0.054015 0.035938 0.057535
v -0.050356 0.030841 0.064359
v -0.050356 0.022434 0.068268
v -0.054015 0.013931 0.067769
v 0.005501 -0.016415 0.009307
v -0.000418 -0.016573 0.002174
v -0.004077 -0.011475 -0.004650
v -0.004077 -0.003069 -0.008559
v -0.000418 0.005435 -0.008060
v 0.005501 0.010788 -0.003343
v 0.011420 0.010945 0.003791
v 0.015078 0.005848 0.010615
v 0.015078 -0.002558 0.014524
v 0.011420 -0.011062 0.014025
v 0.005501 -0.011683 0.015079
v 0.000561 -0.015879 0.008451
v -0.002493 -0.015084 -0.000266
v -0.002493 -0.009602 -0.007743
v 0.000561 -0.001527 -0.011122
v 0.005501 0.006056 -0.009114
v 0.010441 0.010251 -0.002486
v 0.013494 0.009456 0.006231
v 0.013494 0.003974 0.013708
v 0.010441 -0.004100 0.017087
v 0.036846 -0.028784 0.002541
v 0.031906 -0.032979 -0.004088
v 0.028853 -0.032184 -0.012805
v 0.028853 -0.026702 -0.020281
v 0.031906 -0.018628 -0.023661
v 0.036846 -0.011044 -0.021653
v 0.041786 -0.006849 -0.015024
v 0.044840 -0.007644 -0.006307
v 0.044840 -0.013126 0.001169
v 0.041786 -0.021200 0.004549
v 0.036846 -0.031022 0.000525
v 0.030635 -0.033105 -0.006034
v 0.026796 -0.030150 -0.013938
v 0.026796 -0.023286 -0.020168
v 0.030635 -0.015133 -0.022345
v 0.036846 -0.008806 -0.019637
v 0.043058 -0.006723 -0.013078
v 0.046897 -0.009678 -0.005174
v 0.046897 -0.016542 0.001056
v 0.043058 -0.024695 0.003233
v 0.056605 -0.044204 -0.014000
v 0.050393 -0.046288 -0.020559
v 0.046554 -0.043333 -0.028463
v 0.046554 -0.036468 -0.034693
v 0.050393 -0.028315 -0.036870
v 0.056605 -0.021989 -0.034162
v 0.062817 -0.019905 -0.027603
v 0.066656 -0.022860 -0.019699
v 0.066656 -0.029725 -0.013469
v 0.062817 -0.037877 -0.011292
v 0.056605 -0.046222 -0.016820
v 0.051208 -0.047090 -0.024308
v 0.047873 -0.042613 -0.031709
v 0.047873 -0.034501 -0.036196
v 0.051208 -0.025853 -0.036056
v 0.056605 -0.019971 -0.031342
v 0.062002 -0.019103 -0.023854
v 0.065337 -0.023580 -0.016453
v 0.065337 -0.031692 -0.011966
v 0.062002 -0.040340 -0.012106
v 0.080822 -0.055296 -0.033223
v 0.075425 -0.056164 -0.040710
v 0.072090 -0.051687 -0.048111
v 0.072090 -0.043575 -0.052599
v 0.075425 -0.034927 -0.052459
v 0.080822 -0.029045 -0.047745
v 0.086219 -0.028177 -0.040257
v 0.089554 -0.032654 -0.032856
v 0.089554 -0.040766 -0.028369
v 0.086219 -0.049414 -0.028509
v -0.059934 0.008522 0.062929
v -0.067310 0.009133 0.057347
v -0.071868 0.014727 0.051527
v -0.071868 0.023168 0.047694
v -0.067310 0.031231 0.047311
v -0.059934 0.035837 0.050524
v -0.052558 0.035226 0.056106
v -0.047999 0.029631 0.061926
v -0.047999 0.021190 0.065759
v -0.052558 0.013127 0.066142
v -0.014650 -0.020073 -0.000036
v -0.022026 -0.019462 -0.005618
v -0.026584 -0.013868 -0.011438
v -0.026584 -0.005427 -0.015271
v -0.022026 0.002636 -0.015654
v -0.014650 0.007242 -0.012441
v -0.007274 0.006631 -0.006859
v -0.002715 0.001036 -0.001039
v -0.002715 -0.007405 0.002794
v -0.007274 -0.015468 0.003177
v -0.014650 -0.014552 0.006363
v -0.021497 -0.017664 0.000944
v -0.025730 -0.016479 -0.007218
v -0.025730 -0.011451 -0.015007
v -0.021497 -0.004499 -0.019446
v -0.014650 0.001720 -0.018840
v -0.007802 0.004832 -0.013421
v -0.003570 0.003648 -0.005259
v -0.003570 -0.001381 0.002530
v -0.007802 -0.008332 0.006969
v 0.004910 -0.034813 -0.006718
v -0.001938 -0.037925 -0.012137
v -0.006170 -0.036741 -0.020300
v -0.006170 -0.031712 -0.028088
v -0.001938 -0.024761 -0.032527
v 0.004910 -0.018541 -0.031922
v 0.011757 -0.015429 -0.026503
v 0.015990 -0.016614 -0.018340
v 0.015990 -0.021642 -0.010552
v 0.011757 -0.028594 -0.006113
v 0.004910 -0.035865 -0.007463
v -0.001274 -0.039078 -0.013577
v -0.005096 -0.037554 -0.021885
v -0.005096 -0.031875 -0.029212
v -0.001274 -0.024211 -0.032762
v 0.004910 -0.017489 -0.031176
v 0.011094 -0.014276 -0.025063
v 0.014916 -0.015800 -0.016755
v 0.014916 -0.021479 -0.009428
v 0.011094 -0.029143 -0.005878
v 0.021367 -0.048667 -0.017384
v 0.015183 -0.051879 -0.023498
v 0.011361 -0.050355 -0.031805
v 0.011361 -0.044676 -0.039133
v 0.015183 -0.037012 -0.042682
v 0.021367 -0.030290 -0.041097
v 0.027551 -0.027078 -0.034983
v 0.031373 -0.028602 -0.026675
v 0.031373 -0.034280 -0.019348
v 0.027551 -0.041944 -0.015799
v 0.021367 -0.049408 -0.017997
v 0.014934 -0.052030 -0.024135
v 0.010958 -0.049858 -0.032223
v 0.010958 -0.043721 -0.039172
v 0.014934 -0.035964 -0.042327
v 0.021367 -0.029549 -0.040483
v 0.027801 -0.026926 -0.034345
v 0.031777 -0.029098 -0.026257
v 0.031777 -0.035235 -0.019309
v 0.027801 -0.042993 -0.016154
v 0.042624 -0.066410 -0.033013
v 0.036191 -0.069032 -0.039152
v 0.032214 -0.066860 -0.047239
v 0.032214 -0.060723 -0.054188
v 0.036191 -0.052966 -0.057343
v 0.042624 -0.046550 -0.055499
v 0.049057 -0.043928 -0.049361
v 0.053034 -0.046100 -0.041273
v 0.053034 -0.052237 -0.034325
v 0.049057 -0.059995 -0.031170
v -0.059934 0.008633 0.063170
v -0.068316 0.010047 0.059471
v -0.073497 0.016094 0.054724
v -0.073497 0.024466 0.050742
v -0.068316 0.031964 0.049046
v -0.059934 0.035725 0.050283
v -0.051551 0.034312 0.053982
v -0.046370 0.028264 0.058729
v -0.046370 0.019893 0.062711
v -0.051551 0.012394 0.064407
v -0.036859 -0.021768 -0.000743
v -0.045241 -0.020355 -0.004442
v -0.050422 -0.014307 -0.009189
v -0.050422 -0.005936 -0.013171
v -0.045241 0.001563 -0.014867
v -0.036859 0.005324 -0.013630
v -0.028476 0.003911 -0.009931
v -0.023296 -0.002137 -0.005184
v -0.023296 -0.010508 -0.001202
v -0.028476 -0.018007 0.000494
v -0.036859 -0.017040 0.004948
v -0.045394 -0.017145 0.001330
v -0.050669 -0.013842 -0.005540
v -0.050669 -0.008392 -0.013040
v -0.045394 -0.002878 -0.018304
v -0.036859 0.000596 -0.019321
v -0.028324 0.000701 -0.015704
v -0.023049 -0.002602 -0.008833
v -0.023049 -0.008052 -0.001333
v -0.028324 -0.013567 0.003931
v -0.031179 -0.034771 -0.007937
v -0.039714 -0.034876 -0.011554
v -0.044989 -0.031573 -0.018425
v -0.044989 -0.026123 -0.025925
v -0.039714 -0.020609 -0.031188
v -0.031179 -0.017135 -0.032206
v -0.022644 -0.017030 -0.028588
v -0.017369 -0.020333 -0.021717
v -0.017369 -0.025783 -0.014218
v -0.022644 -0.031298 -0.008954
v -0.031179 -0.034007 -0.007417
v -0.039858 -0.033781 -0.010668
v -0.045221 -0.030565 -0.017512
v -0.045221 -0.025587 -0.025333
v -0.039858 -0.020749 -0.031144
v -0.031179 -0.017899 -0.032726
v -0.022501 -0.018126 -0.029474
v -0.017137 -0.021342 -0.022631
v -0.017137 -0.026319 -0.014810
v -0.022501 -0.031157 -0.008999
v -0.028196 -0.048052 -0.016355
v -0.036875 -0.047825 -0.019607
v -0.042238 -0.044609 -0.026450
v -0.042238 -0.039632 -0.034271
v -0.036875 -0.034794 -0.040082
v -0.028196 -0.031944 -0.041664
v -0.019518 -0.032170 -0.038413
v -0.014154 -0.035386 -0.031569
v -0.014154 -0.040364 -0.023749
v -0.019518 -0.045202 -0.017937
v -0.028196 -0.051704 -0.019631
v -0.036529 -0.051269 -0.023669
v -0.041680 -0.046529 -0.029748
v -0.041680 -0.039294 -0.035545
v -0.036529 -0.032328 -0.038845
v -0.028196 -0.028292 -0.038389
v -0.019863 -0.028727 -0.034351
v -0.014713 -0.033467 -0.028272
v -0.014713 -0.040702 -0.022475
v -0.019863 -0.047667 -0.019175
v -0.021994 -0.062926 -0.033636
v -0.030327 -0.062491 -0.037675
v -0.035478 -0.057751 -0.043754
v -0.035478 -0.050516 -0.049550
v -0.030327 -0.043550 -0.052851
v -0.021994 -0.039514 -0.052395
v -0.013661 -0.039949 -0.048356
v -0.008511 -0.044689 -0.042278
v -0.008511 -0.051924 -0.036481
v -0.013661 -0.058889 -0.033180
f 1 2 13
f 2 14 13
f 2 3 14
f 3 15 14
f 3 4 15
f 4 16 15
f 4 5 16
f 5 17 16
f 5 6 17
f 6 18 17
f 6 7 18
f 7 19 18
f 7 8 19
f 8 20 19
f 8 9 20
f 9 21 20
f 9 10 21
f 10 22 21
f 10 11 22
f 11 23 22
f 11 12 23
f 12 24 23
f 13 14 25
f 14 26 25
f 14 15 26
f 15 27 26
f 15 16 27
f 16 28 27
f 16 17 28
f 17 29 28
f 17 18 29
f 18 30 29
f 18 19 30
f 19 31 30
f 19 20 31
f 20 32 31
f 20 21 32
f 21 33 32
f 21 22 33
f 22 34 33
f 22 23 34
f 23 35 34
f 23 24 35
f 24 36 35
f 25 26 37
f 26 38 37
f 26 27 38
f 27 39 38
f 27 28 39
f 28 40 39
f 28 29 40
f 29 41 40
f 29 30 41
f 30 42 41
f 30 31 42
f 31 43 42
f 31 32 43
f 32 44 43
f 32 33 44
f 33 45 44
f 33 34 45
f 34 46 45
f 34 35 46
f 35 47 46
f 35 36 47
f 36 48 47
f 37 38 49
f 38 50 49
f 38 39 50
f 39 51 50
f 39 40 51
f 40 52 51
f 40 41 52
f 41 53 52
f 41 42 53
f 42 54 53
f 42 43 54
f 43 55 54
f 43 44 55
f 44 56 55
f 44 45 56
f 45 57 56
f 45 46 57
f 46 58 57
f 46 47 58
f 47 59 58
f 47 48 59
f 48 60 59
f 49 50 61
f 50 62 61
f 50 51 62
f 51 63 62
f 51 52 63
f 52 64 63
f 52 53 64
f 53 65 64
f 53 54 65
f 54 66 65
f 54 55 66
f 55 67 66
f 55 56 67
f 56 68 67
f 56 57 68
f 57 69 68
f 57 58 69
f 58 70 69
f 58 59 70
f 59 71 70
f 59 60 71
f 60 72 71
f 61 62 73
f 62 74 73
f 62 63 74
f 63 75 74
f 63 64 75
f 64 76 75
f 64 65 76
f 65 77 76
f 65 66 77
f 66 78 77
f 66 67 78
f 67 79 78
f 67 68 79
f 68 80 79
f 68 69 80
f 69 81 80
f 69 70 81
f 70 82 81
f 70 71 82
f 71 83 82
f 71 72 83
f 72 84 83
f 73 74 85
f 74 86 85
f 74 75 86
f 75 87 86
f 75 76 87
f 76 88 87
f 76 77 88
f 77 89 88
f 77 78 89
f 78 90 89
f 78 79 90
f 79 91 90
f 79 80 91
f 80 92 91
f 80 81 92
f 81 93 92
f 81 82 93
f 82 94 93
f 82 83 94
f 83 95 94
f 83 84 95
f 84 96 95
f 85 86 97
f 86 98 97
f 86 87 98
f 87 99 98
f 87 88 99
f 88 100 99
f 88 89 100
f 89 101 100
f 89 90 101
f 90 102 101
f 90 91 102
f 91 103 102
f 91 92 103
f 92 104 103
f 92 93 104
f 93 105 104
f 93 94 105
f 94 106 105
f 94 95 106
f 95 107 106
f 95 96 107
f 96 108 107
f 97 98 109
f 98 110 109
f 98 99 110
f 99 111 110
f 99 100 111
f 100 112 111
f 100 101 112
f 101 113 112
f 101 102 113
f 102 114 113
f 102 103 114
f 103 115 114
f 103 104 115
f 104 116 115
f 104 105 116
f 105 117 116
f 105 106 117
f 106 118 117
f 106 107 118
f 107 119 118
f 107 108 119
f 108 120 119
f 109 110 121
f 110 122 121
f 110 111 122
f 111 123 122
f 111 112 123
f 112 124 123
f 112 113 124
f 113 125 124
f 113 114 125
f 114 126 125
f 114 115 126
f 115 127 126
f 115 116 127
f 116 128 127
f 116 117 128
f 117 129 128
f 117 118 129
f 118 130 129
f 118 119 130
f 119 131 130
f 119 120 131
f 120 132 131
f 121 122 133
f 122 134 133
f 122 123 134
f 123 135 134
f 123 124 135
f 124 136 135
f 124 125 136
f 125 137 136
f 125 126 137
f 126 138 137
f 126 127 138
f 127 139 138
f 127 128 139
f 128 140 139
f 128 129 140
f 129 141 140
f 129 130 141
f 130 142 141
f 130 131 142
f 131 143 142
f 131 132 143
f 132 144 143
f 145 146 155
f 146 156 155
f 146 147 156
f 147 157 156
f 147 148 157
f 148 158 157
f 148 149 158
f 149 159 158
f 149 150 159
f 150 160 159
f 150 151 160
f 151 161 160
f 151 152 161
f 152 162 161
f 152 153 162
f 153 163 162
f 153 154 163
f 154 164 163
f 154 145 164
f 145 155 164
f 165 166 175
f 166 176 175
f 166 167 176
f 167 177 176
f 167 168 177
f 168 178 177
f 168 169 178
f 169 179 178
f 169 170 179
f 170 180 179
f 170 171 180
f 171 181 180
f 171 172 181
f 172 182 181
f 172 173 182
f 173 183 182
f 173 174 183
f 174 184 183
f 174 165 184
f 165 175 184
f 185 186 195
f 186 196 195
f 186 187 196
f 187 197 196
f 187 188 197
f 188 198 197
f 188 189 198
f 189 199 198
f 189 190 199
f 190 200 199
f 190 191 200
f 191 201 200
f 191 192 201
f 192 202 201
f 192 193 202
f 193 203 202
f 193 194 203
f 194 204 203
f 194 185 204
f 185 195 204
f 205 206 215
f 206 216 215
f 206 207 216
f 207 217 216
f 207 208 217
f 208 218 217
f 208 209 218
f 209 219 218
f 209 210 219
f 210 220 219
f 210 211 220
f 211 221 220
f 211 212 221
f 212 222 221
f 212 213 222
f 213 223 222
f 213 214 223
f 214 224 223
f 214 205 224
f 205 215 224
f 225 226 235
f 226 236 235
f 226 227 236
f 227 237 236
f 227 228 237
f 228 238 237
f 228 229 238
f 229 239 238
f 229 230 239
f 230 240 239
f 230 231 240
f 231 241 240
f 231 232 241
f 232 242 241
f 232 233 242
f 233 243 242
f 233 234 243
f 234 244 243
f 234 225 244
f 225 235 244
f 245 246 255
f 246 256 255
f 246 247 256
f 247 257 256
f 247 248 257
f 248 258 257
f 248 249 258
f 249 259 258
f 249 250 259
f 250 260 259
f 250 251 260
f 251 261 260
f 251 252 261
f 252 262 261
f 252 253 262
f 253 263 262
f 253 254 263
f 254 264 263
f 254 245 264
f 245 255 264
f 265 266 275
f 266 276 275
f 266 267 276
f 267 277 276
f 267 268 277
f 268 278 277
f 268 269 278
f 269 279 278
f 269 270 279
f 270 280 279
f 270 271 280
f 271 281 280
f 271 272 281
f 272 282 281
f 272 273 282
f 273 283 282
f 273 274 283
f 274 284 283
f 274 265 284
f 265 275 284
f 285 286 295
f 286 296 295
f 286 287 296
f 287 297 296
f 287 288 297
f 288 298 297
f 288 289 298
f 289 299 298
f 289 290 299
f 290 300 299
f 290 291 300
f 291 301 300
f 291 292 301
f 292 302 301
f 292 293 302
f 293 303 302
f 293 294 303
f 294 304 303
f 294 285 304
f 285 295 304
f 305 306 315
f 306 316 315
f 306 307 316
f 307 317 316
f 307 308 317
f 308 318 317
f 308 309 318
f 309 319 318
f 309 310 319
f 310 320 319
f 310 311 320
f 311 321 320
f 311 312 321
f 312 322 321
f 312 313 322
f 313 323 322
f 313 314 323
f 314 324 323
f 314 305 324
f 305 315 324
f 325 326 335
f 326 336 335
f 326 327 336
f 327 337 336
f 327 328 337
f 328 338 337
f 328 329 338
f 329 339 338
f 329 330 339
f 330 340 339
f 330 331 340
f 331 341 340
f 331 332 341
f 332 342 341
f 332 333 342
f 333 343 342
f 333 334 343
f 334 344 343
f 334 325 344
f 325 335 344
f 345 346 355
f 346 356 355
f 346 347 356
f 347 357 356
f 347 348 357
f 348 358 357
f 348 349 358
f 349 359 358
f 349 350 359
f 350 360 359
f 350 351 360
f 351 361 360
f 351 352 361
f 352 362 361
f 352 353 362
f 353 363 362
f 353 354 363
f 354 364 363
f 354 345 364
f 345 355 364
f 365 366 375
f 366 376 375
f 366 367 376
f 367 377 376
f 367 368 377
f 368 378 377
f 368 369 378
f 369 379 378
f 369 370 379
f 370 380 379
f 370 371 380
f 371 381 380
f 371 372 381
f 372 382 381
f 372 373 382
f 373 383 382
f 373 374 383
f 374 384 383
f 374 365 384
f 365 375 384
f 385 386 395
f 386 396 395
f 386 387 396
f 387 397 396
f 387 388 397
f 388 398 397
f 388 389 398
f 389 399 398
f 389 390 399
f 390 400 399
f 390 391 400
f 391 401 400
f 391 392 401
f 392 402 401
f 392 393 402
f 393 403 402
f 393 394 403
f 394 404 403
f 394 385 404
f 385 395 404
f 405 406 415
f 406 416 415
f 406 407 416
f 407 417 416
f 407 408 417
f 408 418 417
f 408 409 418
f 409 419 418
f 409 410 419
f 410 420 419
f 410 411 420
f 411 421 420
f 411 412 421
f 412 422 421
f 412 413 422
f 413 423 422
f 413 414 423
f 414 424 423
f 414 405 424
f 405 415 424
f 425 426 435
f 426 436 435
f 426 427 436
f 427 437 436
f 427 428 437
f 428 438 437
f 428 429 438
f 429 439 438
f 429 430 439
f 430 440 439
f 430 431 440
f 431 441 440
f 431 432 441
f 432 442 441
f 432 433 442
f 433 443 442
f 433 434 443
f 434 444 443
f 434 425 444
f 425 435 444
f 445 446 455
f 446 456 455
f 446 447 456
f 447 457 456
f 447 448 457
f 448 458 457
f 448 449 458
f 449 459 458
f 449 450 459
f 450 460 459
f 450 451 460
f 451 461 460
f 451 452 461
f 452 462 461
f 452 453 462
f 453 463 462
f 453 454 463
f 454 464 463
f 454 445 464
f 445 455 464
f 465 466 475
f 466 476 475
f 466 467 476
f 467 477 476
f 467 468 477
f 468 478 477
f 468 469 478
f 469 479 478
f 469 470 479
f 470 480 479
f 470 471 480
f 471 481 480
f 471 472 481
f 472 482 481
f 472 473 482
f 473 483 482
f 473 474 483
f 474 484 483
f 474 465 484
f 465 475 484
f 485 486 495
f 486 496 495
f 486 487 496
f 487 497 496
f 487 488 497
f 488 498 497
f 488 489 498
f 489 499 498
f 489 490 499
f 490 500 499
f 490 491 500
f 491 501 500
f 491 492 501
f 492 502 501
f 492 493 502
f 493 503 502
f 493 494 503
f 494 504 503
f 494 485 504
f 485 495 504
f 505 506 515
f 506 516 515
f 506 507 516
f 507 517 516
f 507 508 517
f 508 518 517
f 508 509 518
f 509 519 518
f 509 510 519
f 510 520 519
f 510 511 520
f 511 521 520
f 511 512 521
f 512 522 521
f 512 513 522
f 513 523 522
f 513 514 523
f 514 524 523
f 514 505 524
f 505 515 524
f 525 526 535
f 526 536 535
f 526 527 536
f 527 537 536
f 527 528 537
f 528 538 537
f 528 529 538
f 529 539 538
f 529 530 539
f 530 540 539
f 530 531 540
f 531 541 540
f 531 532 541
f 532 542 541
f 532 533 542
f 533 543 542
f 533 534 543
f 534 544 543
f 534 525 544
f 525 535 544
f 545 546 555
f 546 556 555
f 546 547 556
f 547 557 556
f 547 548 557
f 548 558 557
f 548 549 558
f 549 559 558
f 549 550 559
f 550 560 559
f 550 551 560
f 551 561 560
f 551 552 561
f 552 562 561
f 552 553 562
f 553 563 562
f 553 554 563
f 554 564 563
f 554 545 564
f 545 555 564
f 565 566 575
f 566 576 575
f 566 567 576
f 567 577 576
f 567 568 577
f 568 578 577
f 568 569 578
f 569 579 578
f 569 570 579
f 570 580 579
f 570 571 580
f 571 581 580
f 571 572 581
f 572 582 581
f 572 573 582
f 573 583 582
f 573 574 583
f 574 584 583
f 574 565 584
f 565 575 584
f 585 586 595
f 586 596 595
f 586 587 596
f 587 597 596
f 587 588 597
f 588 598 597
f 588 589 598
f 589 599 598
f 589 590 599
f 590 600 599
f 590 591 600
f 591 601 600
f 591 592 601
f 592 602 601
f 592 593 602
f 593 603 602
f 593 594 603
f 594 604 603
f 594 585 604
f 585 595 604
f 605 606 615
f 606 616 615
f 606 607 616
f 607 617 616
f 607 608 617
f 608 618 617
f 608 609 618
f 609 619 618
f 609 610 619
f 610 620 619
f 610 611 620
f 611 621 620
f 611 612 621
f 612 622 621
f 612 613 622
f 613 623 622
f 613 614 623
f 614 624 623
f 614 605 624
f 605 615 624
f 625 626 635
f 626 636 635
f 626 627 636
f 627 637 636
f 627 628 637
f 628 638 637
f 628 629 638
f 629 639 638
f 629 630 639
f 630 640 639
f 630 631 640
f 631 641 640
f 631 632 641
f 632 642 641
f 632 633 642
f 633 643 642
f 633 634 643
f 634 644 643
f 634 625 644
f 625 635 644
f 645 646 655
f 646 656 655
f 646 647 656
f 647 657 656
f 647 648 657
f 648 658 657
f 648 649 658
f 649 659 658
f 649 650 659
f 650 660 659
f 650 651 660
f 651 661 660
f 651 652 661
f 652 662 661
f 652 653 662
f 653 663 662
f 653 654 663
f 654 664 663
f 654 645 664
f 645 655 664
f 665 666 675
f 666 676 675
f 666 667 676
f 667 677 676
f 667 668 677
f 668 678 677
f 668 669 678
f 669 679 678
f 669 670 679
f 670 680 679
f 670 671 680
f 671 681 680
f 671 672 681
f 672 682 681
f 672 673 682
f 673 683 682
f 673 674 683
f 674 684 683
f 674 665 684
f 665 675 684
f 685 686 695
f 686 696 695
f 686 687 696
f 687 697 696
f 687 688 697
f 688 698 697
f 688 689 698
f 689 699 698
f 689 690 699
f 690 700 699
f 690 691 700
f 691 701 700
f 691 692 701
f 692 702 701
f 692 693 702
f 693 703 702
f 693 694 703
f 694 704 703
f 694 685 704
f 685 695 704
f 705 706 715
f 706 716 715
f 706 707 716
f 707 717 716
f 707 708 717
f 708 718 717
f 708 709 718
f 709 719 718
f 709 710 719
f 710 720 719
f 710 711 720
f 711 721 720
f 711 712 721
f 712 722 721
f 712 713 722
f 713 723 722
f 713 714 723
f 714 724 723
f 714 705 724
f 705 715 724
f 725 726 735
f 726 736 735
f 726 727 736
f 727 737 736
f 727 728 737
f 728 738 737
f 728 729 738
f 729 739 738
f 729 730 739
f 730 740 739
f 730 731 740
f 731 741 740
f 731 732 741
f 732 742 741
f 732 733 742
f 733 743 742
f 733 734 743
f 734 744 743
f 734 725 744
f 725 735 744
f 745 746 755
f 746 756 755
f 746 747 756
f 747 757 756
f 747 748 757
f 748 758 757
f 748 749 758
f 749 759 758
f 749 750 759
f 750 760 759
f 750 751 760
f 751 761 760
f 751 752 761
f 752 762 761
f 752 753 762
f 753 763 762
f 753 754 763
f 754 764 763
f 754 745 764
f 745 755 764
f 765 766 775
f 766 776 775
f 766 767 776
f 767 777 776
f 767 768 777
f 768 778 777
f 768 769 778
f 769 779 778
f 769 770 779
f 770 780 779
f 770 771 780
f 771 781 780
f 771 772 781
f 772 782 781
f 772 773 782
f 773 783 782
f 773 774 783
f 774 784 783
f 774 765 784
f 765 775 784
