# Full-Body 3D Mesh - Frame 153
v 0.030479 -0.615871 -0.158489
v 0.064287 -0.615871 -0.163350
v 0.095356 -0.615871 -0.177539
v 0.121169 -0.615871 -0.199906
v 0.139635 -0.615871 -0.228639
v 0.149257 -0.615871 -0.261411
v 0.149257 -0.615871 -0.295567
v 0.139635 -0.615871 -0.328339
v 0.121169 -0.615871 -0.357073
v 0.095356 -0.615871 -0.379440
v 0.064287 -0.615871 -0.393628
v 0.030479 -0.615871 -0.398489
v 0.030479 -0.615871 -0.158489
v 0.058920 -0.597593 -0.163350
v 0.085057 -0.580796 -0.177539
v 0.106772 -0.566840 -0.199906
v 0.122307 -0.556857 -0.228639
v 0.130402 -0.551655 -0.261411
v 0.130402 -0.551655 -0.295567
v 0.122307 -0.556857 -0.328339
v 0.106772 -0.566840 -0.357073
v 0.085057 -0.580796 -0.379440
v 0.058920 -0.597593 -0.393628
v 0.030479 -0.615871 -0.398489
v 0.030479 -0.615871 -0.158489
v 0.044523 -0.585118 -0.163350
v 0.057430 -0.556857 -0.177539
v 0.068153 -0.533377 -0.199906
v 0.075824 -0.516579 -0.228639
v 0.079821 -0.507826 -0.261411
v 0.079821 -0.507826 -0.295567
v 0.075824 -0.516579 -0.328339
v 0.068153 -0.533377 -0.357073
v 0.057430 -0.556857 -0.379440
v 0.044523 -0.585118 -0.393628
v 0.030479 -0.615871 -0.398489
v 0.030479 -0.615871 -0.158489
v 0.025668 -0.582407 -0.163350
v 0.021246 -0.551655 -0.177539
v 0.017572 -0.526104 -0.199906
v 0.014944 -0.507826 -0.228639
v 0.013575 -0.498302 -0.261411
v 0.013575 -0.498302 -0.295567
v 0.014944 -0.507826 -0.328339
v 0.017572 -0.526104 -0.357073
v 0.021246 -0.551655 -0.379440
v 0.025668 -0.582407 -0.393628
v 0.030479 -0.615871 -0.398489
v 0.030479 -0.615871 -0.158489
v 0.008339 -0.590321 -0.163350
v -0.012006 -0.566840 -0.177539
v -0.028910 -0.547332 -0.199906
v -0.041003 -0.533377 -0.228639
v -0.047305 -0.526104 -0.261411
v -0.047305 -0.526104 -0.295567
v -0.041003 -0.533377 -0.328339
v -0.028910 -0.547332 -0.357073
v -0.012006 -0.566840 -0.379440
v 0.008339 -0.590321 -0.393628
v 0.030479 -0.615871 -0.398489
v 0.030479 -0.615871 -0.158489
v -0.001960 -0.606346 -0.163350
v -0.031770 -0.597593 -0.177539
v -0.056537 -0.590321 -0.199906
v -0.074255 -0.585118 -0.228639
v -0.083488 -0.582407 -0.261411
v -0.083488 -0.582407 -0.295567
v -0.074255 -0.585118 -0.328339
v -0.056537 -0.590321 -0.357073
v -0.031770 -0.597593 -0.379440
v -0.001960 -0.606346 -0.393628
v 0.030479 -0.615871 -0.398489
v 0.030479 -0.615871 -0.158489
v -0.001960 -0.625396 -0.163350
v -0.031770 -0.634149 -0.177539
v -0.056537 -0.641421 -0.199906
v -0.074255 -0.646624 -0.228639
v -0.083488 -0.649335 -0.261411
v -0.083488 -0.649335 -0.295567
v -0.074255 -0.646624 -0.328339
v -0.056537 -0.641421 -0.357073
v -0.031770 -0.634149 -0.379440
v -0.001960 -0.625396 -0.393628
v 0.030479 -0.615871 -0.398489
v 0.030479 -0.615871 -0.158489
v 0.008339 -0.641421 -0.163350
v -0.012006 -0.664902 -0.177539
v -0.028910 -0.684410 -0.199906
v -0.041003 -0.698366 -0.228639
v -0.047305 -0.705638 -0.261411
v -0.047305 -0.705638 -0.295567
v -0.041003 -0.698366 -0.328339
v -0.028910 -0.684410 -0.357073
v -0.012006 -0.664902 -0.379440
v 0.008339 -0.641421 -0.393628
v 0.030479 -0.615871 -0.398489
v 0.030479 -0.615871 -0.158489
v 0.025668 -0.649335 -0.163350
v 0.021246 -0.680088 -0.177539
v 0.017572 -0.705638 -0.199906
v 0.014944 -0.723916 -0.228639
v 0.013575 -0.733441 -0.261411
v 0.013575 -0.733441 -0.295567
v 0.014944 -0.723916 -0.328339
v 0.017572 -0.705638 -0.357073
v 0.021246 -0.680088 -0.379440
v 0.025668 -0.649335 -0.393628
v 0.030479 -0.615871 -0.398489
v 0.030479 -0.615871 -0.158489
v 0.044523 -0.646624 -0.163350
v 0.057430 -0.674885 -0.177539
v 0.068153 -0.698366 -0.199906
v 0.075824 -0.715163 -0.228639
v 0.079821 -0.723916 -0.261411
v 0.079821 -0.723916 -0.295567
v 0.075824 -0.715163 -0.328339
v 0.068153 -0.698366 -0.357073
v 0.057430 -0.674885 -0.379440
v 0.044523 -0.646624 -0.393628
v 0.030479 -0.615871 -0.398489
v 0.030479 -0.615871 -0.158489
v 0.058920 -0.634149 -0.163350
v 0.085057 -0.650946 -0.177539
v 0.106772 -0.664902 -0.199906
v 0.122307 -0.674885 -0.228639
v 0.130402 -0.680088 -0.261411
v 0.130402 -0.680088 -0.295567
v 0.122307 -0.674885 -0.328339
v 0.106772 -0.664902 -0.357073
v 0.085057 -0.650946 -0.379440
v 0.058920 -0.634149 -0.393628
v 0.030479 -0.615871 -0.398489
v 0.030479 -0.615871 -0.158489
v 0.064287 -0.615871 -0.163350
v 0.095356 -0.615871 -0.177539
v 0.121169 -0.615871 -0.199906
v 0.139635 -0.615871 -0.228639
v 0.149257 -0.615871 -0.261411
v 0.149257 -0.615871 -0.295567
v 0.139635 -0.615871 -0.328339
v 0.121169 -0.615871 -0.357073
v 0.095356 -0.615871 -0.379440
v 0.064287 -0.615871 -0.393628
v 0.030479 -0.615871 -0.398489
v 0.175740 -0.444454 -0.105634
v 0.174413 -0.467961 -0.098098
v 0.171841 -0.482489 -0.078262
v 0.169007 -0.482489 -0.053703
v 0.166994 -0.467961 -0.033803
v 0.166569 -0.444454 -0.026162
v 0.167896 -0.420947 -0.033699
v 0.170468 -0.406419 -0.053535
v 0.173302 -0.406419 -0.078093
v 0.175316 -0.420947 -0.097993
v -0.149632 -0.438123 -0.143182
v -0.150959 -0.461630 -0.135645
v -0.153531 -0.476158 -0.115809
v -0.156365 -0.476158 -0.091251
v -0.158379 -0.461630 -0.071351
v -0.158803 -0.438123 -0.063710
v -0.157476 -0.414616 -0.071247
v -0.154904 -0.400088 -0.091082
v -0.152070 -0.400088 -0.115641
v -0.150057 -0.414616 -0.135541
v 0.171155 -0.463143 -0.101263
v 0.148125 -0.455389 -0.096721
v 0.133892 -0.443457 -0.080406
v 0.133892 -0.431906 -0.058549
v 0.148125 -0.425148 -0.039499
v 0.171155 -0.425764 -0.030533
v 0.194185 -0.433519 -0.035075
v 0.208418 -0.445451 -0.051391
v 0.208418 -0.457001 -0.073248
v 0.194185 -0.463760 -0.092297
v 0.220325 -0.251659 -0.213028
v 0.197295 -0.243904 -0.208486
v 0.183062 -0.231972 -0.192170
v 0.183062 -0.220421 -0.170313
v 0.197295 -0.213663 -0.151264
v 0.220325 -0.214279 -0.142298
v 0.243355 -0.222034 -0.146840
v 0.257588 -0.233966 -0.163155
v 0.257588 -0.245517 -0.185012
v 0.243355 -0.252275 -0.204062
v 0.220325 -0.271500 -0.166923
v 0.198022 -0.262144 -0.161807
v 0.184238 -0.241644 -0.162748
v 0.184238 -0.217830 -0.169386
v 0.198022 -0.199799 -0.179186
v 0.220325 -0.194438 -0.188403
v 0.242628 -0.203794 -0.193518
v 0.256413 -0.224295 -0.192577
v 0.256413 -0.248108 -0.185939
v 0.242628 -0.266139 -0.176140
v 0.134215 -0.340816 -0.415593
v 0.111912 -0.331459 -0.410478
v 0.098127 -0.310959 -0.411419
v 0.098127 -0.287146 -0.418057
v 0.111912 -0.269115 -0.427856
v 0.134215 -0.263754 -0.437073
v 0.156518 -0.273110 -0.442189
v 0.170302 -0.293610 -0.441248
v 0.170302 -0.317424 -0.434610
v 0.156518 -0.335455 -0.424810
v -0.154218 -0.454411 -0.139979
v -0.177642 -0.453143 -0.132181
v -0.192120 -0.446138 -0.113406
v -0.192120 -0.436071 -0.090827
v -0.177642 -0.426788 -0.073068
v -0.154218 -0.421835 -0.066913
v -0.130793 -0.423103 -0.074711
v -0.116316 -0.430108 -0.093486
v -0.116316 -0.440175 -0.116065
v -0.130793 -0.449458 -0.133824
v -0.175478 -0.228978 -0.240488
v -0.198902 -0.227710 -0.232690
v -0.213380 -0.220704 -0.213915
v -0.213380 -0.210638 -0.191336
v -0.198902 -0.201355 -0.173577
v -0.175478 -0.196401 -0.167422
v -0.152053 -0.197669 -0.175220
v -0.137576 -0.204674 -0.193995
v -0.137576 -0.214741 -0.216574
v -0.152053 -0.224024 -0.234333
v -0.175478 -0.247665 -0.184546
v -0.196991 -0.245587 -0.196545
v -0.210288 -0.230943 -0.211375
v -0.210288 -0.209327 -0.223371
v -0.196991 -0.188995 -0.227950
v -0.175478 -0.177714 -0.223364
v -0.153964 -0.179792 -0.211365
v -0.140668 -0.194435 -0.196535
v -0.140668 -0.216051 -0.184539
v -0.153964 -0.236383 -0.179960
v -0.073319 -0.360112 -0.387175
v -0.094833 -0.358034 -0.399175
v -0.108129 -0.343390 -0.414004
v -0.108129 -0.321774 -0.426000
v -0.094833 -0.301442 -0.430579
v -0.073319 -0.290161 -0.425994
v -0.051806 -0.292239 -0.413994
v -0.038509 -0.306882 -0.399164
v -0.038509 -0.328498 -0.387169
v -0.051806 -0.348830 -0.382589
v 0.171155 -0.436606 -0.105121
v 0.147765 -0.440451 -0.098099
v 0.133310 -0.445825 -0.078778
v 0.133310 -0.450675 -0.054537
v 0.147765 -0.453149 -0.034636
v 0.171155 -0.452302 -0.026676
v 0.194544 -0.448457 -0.033697
v 0.209000 -0.443083 -0.053018
v 0.209000 -0.438233 -0.077259
v 0.194544 -0.435759 -0.097161
v 0.125280 0.003140 -0.017134
v 0.101890 -0.000705 -0.010113
v 0.087435 -0.006079 0.009208
v 0.087435 -0.010930 0.033449
v 0.101890 -0.013403 0.053351
v 0.125280 -0.012556 0.061311
v 0.148669 -0.008711 0.054289
v 0.163125 -0.003337 0.034968
v 0.163125 0.001513 0.010727
v 0.148669 0.003987 -0.009174
v -0.154218 -0.430435 -0.142700
v -0.177679 -0.430397 -0.134908
v -0.192179 -0.433310 -0.115099
v -0.192179 -0.438062 -0.090838
v -0.177679 -0.442836 -0.071394
v -0.154218 -0.445811 -0.064192
v -0.130757 -0.445848 -0.071984
v -0.116257 -0.442935 -0.091793
v -0.116257 -0.438184 -0.116053
v -0.130757 -0.433409 -0.135498
v -0.125833 -0.004578 -0.059297
v -0.149294 -0.004540 -0.051505
v -0.163794 -0.007453 -0.031696
v -0.163794 -0.012205 -0.007435
v -0.149294 -0.016979 0.012009
v -0.125833 -0.019954 0.019211
v -0.102372 -0.019991 0.011420
v -0.087872 -0.017078 -0.008390
v -0.087872 -0.012327 -0.032650
v -0.102372 -0.007552 -0.052095
v 0.131898 -0.004708 -0.017360
v 0.131322 -0.028209 -0.009711
v 0.128438 -0.042734 0.010085
v 0.124348 -0.042734 0.034465
v 0.120613 -0.028209 0.054118
v 0.118661 -0.004708 0.061537
v 0.119237 0.018793 0.053887
v 0.122121 0.033317 0.034092
v 0.126212 0.033317 0.009711
v 0.129946 0.018793 -0.009942
v -0.119214 -0.012266 -0.059491
v -0.119790 -0.035767 -0.051842
v -0.122675 -0.050291 -0.032046
v -0.126765 -0.050291 -0.007666
v -0.130500 -0.035767 0.011987
v -0.132451 -0.012266 0.019406
v -0.131875 0.011235 0.011756
v -0.128991 0.025760 -0.008039
v -0.124901 0.025760 -0.032420
v -0.121166 0.011235 -0.052073
v 0.125280 -0.026347 -0.011553
v 0.101808 -0.021070 -0.005865
v 0.087301 -0.009543 0.010501
v 0.087301 0.003831 0.031293
v 0.101808 0.013943 0.048568
v 0.125280 0.016931 0.055730
v 0.148752 0.011653 0.050041
v 0.163258 0.000126 0.033675
v 0.163258 -0.013247 0.012884
v 0.148752 -0.023359 -0.004392
v 0.133538 0.093428 -0.088596
v 0.110066 0.098706 -0.082907
v 0.095560 0.110233 -0.066542
v 0.095560 0.123606 -0.045750
v 0.110066 0.133718 -0.028474
v 0.133538 0.136706 -0.021313
v 0.157010 0.131429 -0.027001
v 0.171517 0.119902 -0.043367
v 0.171517 0.106528 -0.064159
v 0.157010 0.096416 -0.081435
v 0.133538 0.136958 -0.088433
v 0.110068 0.133943 -0.081276
v 0.095563 0.123719 -0.064066
v 0.095563 0.110189 -0.043375
v 0.110068 0.098523 -0.027107
v 0.133538 0.093176 -0.021476
v 0.157008 0.096191 -0.028632
v 0.171514 0.106416 -0.045843
v 0.171514 0.119945 -0.066533
v 0.157008 0.131611 -0.082801
v 0.151017 0.383395 0.072708
v 0.127547 0.380381 0.079864
v 0.113042 0.370156 0.097074
v 0.113042 0.356627 0.117765
v 0.127547 0.344961 0.134033
v 0.151017 0.339614 0.139664
v 0.174488 0.342629 0.132508
v 0.188993 0.352853 0.115298
v 0.188993 0.366382 0.094607
v 0.174488 0.378049 0.078339
v -0.125833 -0.050777 -0.009231
v -0.149083 -0.044367 -0.014663
v -0.163452 -0.025696 -0.022149
v -0.163452 -0.001895 -0.028832
v -0.149083 0.017945 -0.032157
v -0.125833 0.026245 -0.030855
v -0.102583 0.019836 -0.025423
v -0.088214 0.001164 -0.017936
v -0.088214 -0.022637 -0.011254
v -0.102583 -0.042477 -0.007929
v -0.089907 -0.115339 -0.239195
v -0.113157 -0.108929 -0.244626
v -0.127526 -0.090257 -0.252113
v -0.127526 -0.066456 -0.258795
v -0.113157 -0.046617 -0.262120
v -0.089907 -0.038316 -0.260818
v -0.066657 -0.044726 -0.255387
v -0.052288 -0.063397 -0.247900
v -0.052288 -0.087199 -0.241218
v -0.066657 -0.107038 -0.237893
v -0.089907 -0.079047 -0.289945
v -0.113410 -0.078006 -0.282352
v -0.127936 -0.076514 -0.262404
v -0.127936 -0.075142 -0.237720
v -0.113410 -0.074414 -0.217730
v -0.089907 -0.074608 -0.210068
v -0.066403 -0.075649 -0.217661
v -0.051878 -0.077141 -0.237609
v -0.051878 -0.078512 -0.262293
v -0.066403 -0.079241 -0.282283
v -0.082364 0.207180 -0.305851
v -0.105867 0.208221 -0.298258
v -0.120393 0.209713 -0.278310
v -0.120393 0.211084 -0.253627
v -0.105867 0.211812 -0.233636
v -0.082364 0.211619 -0.225974
v -0.058860 0.210577 -0.233568
v -0.044335 0.209086 -0.253516
v -0.044335 0.207714 -0.278199
v -0.058860 0.206986 -0.298189
v -0.048768 0.055174 0.066912
v -0.055959 0.049591 0.065160
v -0.060403 0.044960 0.058470
v -0.060403 0.043050 0.049398
v -0.055959 0.044591 0.041410
v -0.048768 0.048993 0.037555
v -0.041578 0.054577 0.039307
v -0.037134 0.059208 0.045997
v -0.037134 0.061117 0.055068
v -0.041578 0.059577 0.063057
v -0.026924 0.025052 0.073253
v -0.034114 0.019469 0.071501
v -0.038558 0.014838 0.064812
v -0.038558 0.012928 0.055740
v -0.034114 0.014469 0.047751
v -0.026924 0.018871 0.043897
v -0.019734 0.024455 0.045649
v -0.015290 0.029086 0.052338
v -0.015290 0.030995 0.061410
v -0.019734 0.029455 0.069399
v -0.024260 0.021962 0.073337
v -0.028109 0.013824 0.071120
v -0.031505 0.008795 0.064112
v -0.033151 0.008795 0.054989
v -0.032419 0.013824 0.047235
v -0.029588 0.021962 0.043814
v -0.025740 0.030099 0.046030
v -0.022344 0.035128 0.053038
v -0.020697 0.035128 0.062161
v -0.021429 0.030099 0.069915
v 0.004535 0.009759 0.068139
v 0.000687 0.001621 0.065923
v -0.002709 -0.003408 0.058915
v -0.004356 -0.003408 0.049792
v -0.003624 0.001621 0.042038
v -0.000793 0.009759 0.038616
v 0.003055 0.017896 0.040833
v 0.006452 0.022925 0.047841
v 0.008098 0.022925 0.056964
v 0.007366 0.017896 0.064717
v 0.001871 -0.005241 0.053348
v -0.002818 -0.002362 0.045887
v -0.005716 0.005147 0.041288
v -0.005716 0.014418 0.041306
v -0.002818 0.021909 0.045936
v 0.001871 0.024759 0.053408
v 0.006560 0.021879 0.060868
v 0.009459 0.014370 0.065468
v 0.009459 0.005099 0.065449
v 0.006560 -0.002392 0.060820
v 0.028097 -0.005209 0.036876
v 0.023407 -0.002329 0.029416
v 0.020509 0.005180 0.024816
v 0.020509 0.014451 0.024835
v 0.023407 0.021942 0.029464
v 0.028097 0.024791 0.036936
v 0.032786 0.021912 0.044397
v 0.035684 0.014403 0.048996
v 0.035684 0.005132 0.048978
v 0.032786 -0.002359 0.044348
v 0.028097 -0.004318 0.031814
v 0.020240 -0.000265 0.029024
v 0.015384 0.007629 0.029244
v 0.015384 0.016349 0.032391
v 0.020240 0.022564 0.037263
v 0.028097 0.023901 0.041999
v 0.035954 0.019848 0.044789
v 0.040809 0.011954 0.044568
v 0.040809 0.003234 0.041421
v 0.035954 -0.002981 0.036549
v 0.038395 0.002549 0.012789
v 0.030538 0.006602 0.009998
v 0.025683 0.014496 0.010219
v 0.025683 0.023216 0.013366
v 0.030538 0.029431 0.018238
v 0.038395 0.030767 0.022973
v 0.046252 0.026714 0.025764
v 0.051108 0.018821 0.025543
v 0.051108 0.010101 0.022396
v 0.046252 0.003885 0.017524
v -0.048768 0.044883 0.065392
v -0.056305 0.042245 0.060683
v -0.060963 0.043364 0.052746
v -0.060963 0.047814 0.044614
v -0.056305 0.053895 0.039391
v -0.048768 0.059284 0.039074
v -0.041232 0.061922 0.043784
v -0.036574 0.060803 0.051721
v -0.036574 0.056353 0.059853
v -0.041232 0.050272 0.065075
v -0.002689 -0.021706 0.028956
v -0.010226 -0.024345 0.024247
v -0.014884 -0.023225 0.016310
v -0.014884 -0.018775 0.008178
v -0.010226 -0.012695 0.002956
v -0.002689 -0.007306 0.002639
v 0.004847 -0.004667 0.007348
v 0.009505 -0.005787 0.015285
v 0.009505 -0.010237 0.023417
v 0.004847 -0.016318 0.028639
v -0.002689 -0.020902 0.029366
v -0.007767 -0.026200 0.023701
v -0.010905 -0.027032 0.015018
v -0.010905 -0.023079 0.006632
v -0.007767 -0.015852 0.001747
v -0.002689 -0.008111 0.002229
v 0.002388 -0.002812 0.007894
v 0.005526 -0.001981 0.016577
v 0.005526 -0.005933 0.024963
v 0.002388 -0.013160 0.029848
v 0.018878 -0.034645 0.022888
v 0.013800 -0.039944 0.017223
v 0.010662 -0.040775 0.008540
v 0.010662 -0.036823 0.000154
v 0.013800 -0.029596 -0.004731
v 0.018878 -0.021854 -0.004249
v 0.023956 -0.016556 0.001416
v 0.027094 -0.015724 0.010099
v 0.027094 -0.019677 0.018485
v 0.023956 -0.026904 0.023369
v 0.018878 -0.024947 0.023951
v 0.014582 -0.033088 0.022852
v 0.011928 -0.039382 0.016584
v 0.011928 -0.041423 0.007541
v 0.014582 -0.038432 -0.000823
v 0.018878 -0.031553 -0.005313
v 0.023173 -0.023411 -0.004213
v 0.025828 -0.017118 0.002055
v 0.025828 -0.015077 0.011098
v 0.023173 -0.018067 0.019461
v 0.038767 -0.035770 0.026394
v 0.034471 -0.043912 0.025295
v 0.031817 -0.050205 0.019027
v 0.031817 -0.052246 0.009984
v 0.034471 -0.049256 0.001620
v 0.038767 -0.042376 -0.002869
v 0.043062 -0.034235 -0.001770
v 0.045717 -0.027941 0.004498
v 0.045717 -0.025900 0.013541
v 0.043062 -0.028890 0.021905
v 0.038767 -0.042181 0.026437
v 0.033359 -0.048400 0.022192
v 0.030017 -0.051056 0.013963
v 0.030017 -0.049135 0.004893
v 0.033359 -0.043371 -0.001552
v 0.038767 -0.035965 -0.002912
v 0.044175 -0.029746 0.001334
v 0.047517 -0.027090 0.009562
v 0.047517 -0.029011 0.018632
v 0.044175 -0.034775 0.025077
v 0.054112 -0.053839 0.023968
v 0.048704 -0.060058 0.019722
v 0.045362 -0.062714 0.011493
v 0.045362 -0.060793 0.002424
v 0.048704 -0.055029 -0.004021
v 0.054112 -0.047623 -0.005381
v 0.059519 -0.041404 -0.001136
v 0.062862 -0.038748 0.007093
v 0.062862 -0.040669 0.016163
v 0.059519 -0.046433 0.022608
v -0.048768 0.041847 0.063198
v -0.056287 0.040437 0.057962
v -0.060934 0.043475 0.050537
v -0.060934 0.049801 0.043761
v -0.056287 0.056999 0.040221
v -0.048768 0.062320 0.041269
v -0.041250 0.063731 0.046505
v -0.036603 0.060693 0.053929
v -0.036603 0.054366 0.060706
v -0.041250 0.047168 0.064246
v -0.001856 -0.014149 0.010921
v -0.009375 -0.015560 0.005684
v -0.014022 -0.012522 -0.001740
v -0.014022 -0.006195 -0.008516
v -0.009375 0.001003 -0.012056
v -0.001856 0.006324 -0.011008
v 0.005663 0.007735 -0.005772
v 0.010310 0.004697 0.001652
v 0.010310 -0.001630 0.008429
v 0.005663 -0.008828 0.011969
v -0.001856 -0.012772 0.012060
v -0.006902 -0.016914 0.005478
v -0.010021 -0.016090 -0.003213
v -0.010021 -0.010614 -0.010693
v -0.006902 -0.002579 -0.014106
v -0.001856 0.004947 -0.012148
v 0.003191 0.009089 -0.005566
v 0.006310 0.008265 0.003125
v 0.006310 0.002789 0.010606
v 0.003191 -0.005246 0.014019
v 0.026616 -0.028810 0.000321
v 0.021570 -0.032952 -0.006261
v 0.018451 -0.032127 -0.014952
v 0.018451 -0.026652 -0.022432
v 0.021570 -0.018617 -0.025845
v 0.026616 -0.011091 -0.023887
v 0.031663 -0.006949 -0.017305
v 0.034782 -0.007773 -0.008614
v 0.034782 -0.013249 -0.001133
v 0.031663 -0.021284 0.002280
v 0.026616 -0.018650 0.003161
v 0.020889 -0.025576 0.000888
v 0.017349 -0.030353 -0.006225
v 0.017349 -0.031157 -0.015460
v 0.020889 -0.027680 -0.023291
v 0.026616 -0.021251 -0.026726
v 0.032344 -0.014325 -0.024453
v 0.035884 -0.009548 -0.017341
v 0.035884 -0.008744 -0.008105
v 0.032344 -0.012221 -0.000274
v 0.045881 -0.035051 0.004588
v 0.040153 -0.041977 0.002315
v 0.036613 -0.046754 -0.004798
v 0.036613 -0.047557 -0.014033
v 0.040153 -0.044081 -0.021864
v 0.045881 -0.037651 -0.025299
v 0.051609 -0.030726 -0.023026
v 0.055149 -0.025948 -0.015914
v 0.055149 -0.025145 -0.006678
v 0.051609 -0.028622 0.001153
v 0.045881 -0.032952 0.004254
v 0.040048 -0.040041 0.002962
v 0.036443 -0.045720 -0.003417
v 0.036443 -0.047821 -0.012446
v 0.040048 -0.045541 -0.020677
v 0.045881 -0.039750 -0.024965
v 0.051714 -0.032662 -0.023673
v 0.055319 -0.026982 -0.017295
v 0.055319 -0.024881 -0.008265
v 0.051714 -0.027161 -0.000034
v 0.064643 -0.049074 0.008005
v 0.058810 -0.056162 0.006713
v 0.055205 -0.061842 0.000334
v 0.055205 -0.063943 -0.008695
v 0.058810 -0.061662 -0.016926
v 0.064643 -0.055872 -0.021214
v 0.070476 -0.048783 -0.019922
v 0.074081 -0.043104 -0.013544
v 0.074081 -0.041003 -0.004514
v 0.070476 -0.043283 0.003717
v -0.048768 0.039736 0.060751
v -0.056140 0.039348 0.055143
v -0.060697 0.043825 0.048424
v -0.060697 0.051456 0.043160
v -0.056140 0.059326 0.041362
v -0.048768 0.064431 0.043716
v -0.041396 0.064819 0.049324
v -0.036840 0.060342 0.056043
v -0.036840 0.052712 0.061307
v -0.041396 0.044841 0.063105
v 0.002399 -0.004552 -0.003451
v -0.004973 -0.004940 -0.009059
v -0.009529 -0.000464 -0.015778
v -0.009529 0.007167 -0.021042
v -0.004973 0.015038 -0.022840
v 0.002399 0.020142 -0.020486
v 0.009771 0.020530 -0.014878
v 0.014327 0.016054 -0.008159
v 0.014327 0.008423 -0.002895
v 0.009771 0.000552 -0.001097
v -0.001834 0.007795 0.002422
v 0.000083 -0.000946 -0.000000
v 0.002885 -0.006348 -0.006994
v 0.005502 -0.006348 -0.015888
v 0.006933 -0.000946 -0.023284
v 0.006633 0.007795 -0.026359
v 0.004715 0.016536 -0.023937
v 0.001913 0.021938 -0.016943
v -0.000703 0.021938 -0.008050
v -0.002135 0.016536 -0.000653
v 0.024636 0.011444 0.010209
v 0.026554 0.002703 0.007787
v 0.029356 -0.002699 0.000794
v 0.031972 -0.002699 -0.008100
v 0.033404 0.002703 -0.015497
v 0.033103 0.011444 -0.018571
v 0.031186 0.020184 -0.016149
v 0.028384 0.025586 -0.009156
v 0.025767 0.025586 -0.000262
v 0.024336 0.020184 0.007135
v 0.028870 0.026168 -0.007043
v 0.020061 0.023428 -0.006128
v 0.014617 0.016110 -0.004470
v 0.014617 0.007009 -0.002702
v 0.020061 -0.000397 -0.001498
v 0.028870 -0.003281 -0.001319
v 0.037679 -0.000540 -0.002234
v 0.043123 0.006778 -0.003892
v 0.043123 0.015878 -0.005661
v 0.037679 0.023285 -0.006864
v 0.029921 0.030883 0.017218
v 0.021112 0.028143 0.018132
v 0.015668 0.020825 0.019791
v 0.015668 0.011724 0.021559
v 0.021112 0.004318 0.022763
v 0.029921 0.001434 0.022941
v 0.038730 0.004175 0.022027
v 0.044174 0.011493 0.020369
v 0.044174 0.020593 0.018600
v 0.038730 0.028000 0.017397
v 0.029921 0.030801 0.016825
v 0.022010 0.027161 0.013648
v 0.017120 0.019317 0.012927
v 0.017120 0.010268 0.014939
v 0.022010 0.003468 0.018914
v 0.029921 0.001516 0.023334
v 0.037833 0.005157 0.026511
v 0.042722 0.013000 0.027232
v 0.042722 0.022050 0.025221
v 0.037833 0.028849 0.021246
v 0.019447 0.035422 0.037613
v 0.011535 0.031781 0.034435
v 0.006646 0.023938 0.033715
v 0.006646 0.014888 0.035726
v 0.011535 0.008088 0.039701
v 0.019447 0.006136 0.044122
v 0.027358 0.009777 0.047299
v 0.032248 0.017620 0.048019
v 0.032248 0.026670 0.046008
v 0.027358 0.033469 0.042033
v -0.048768 0.038186 0.057877
v -0.056059 0.038974 0.052205
v -0.060564 0.044770 0.046544
v -0.060564 0.053359 0.043055
v -0.056059 0.061461 0.043073
v -0.048768 0.065981 0.046590
v -0.041478 0.065193 0.052262
v -0.036973 0.059397 0.057923
v -0.036973 0.050808 0.061411
v -0.041478 0.042706 0.061394
v -0.001533 0.012058 -0.006462
v -0.008824 0.012846 -0.012135
v -0.013329 0.018642 -0.017796
v -0.013329 0.027231 -0.021284
v -0.008824 0.035333 -0.021266
v -0.001533 0.039853 -0.017750
v 0.005757 0.039065 -0.012078
v 0.010262 0.033269 -0.006416
v 0.010262 0.024680 -0.002928
v 0.005757 0.016578 -0.002946
v -0.005984 0.025956 0.002218
v -0.004806 0.017146 -0.000415
v -0.002377 0.011701 -0.007515
v 0.000373 0.011701 -0.016368
v 0.002396 0.017146 -0.023593
v 0.002917 0.025956 -0.026431
v 0.001739 0.034766 -0.023797
v -0.000689 0.040211 -0.016698
v -0.003440 0.040211 -0.007845
v -0.005462 0.034766 -0.000619
v 0.017988 0.026935 0.009667
v 0.019167 0.018125 0.007033
v 0.021595 0.012680 -0.000066
v 0.024346 0.012680 -0.008919
v 0.026368 0.018125 -0.016145
v 0.026890 0.026935 -0.018982
v 0.025711 0.035745 -0.016349
v 0.023283 0.041190 -0.009249
v 0.020532 0.041190 -0.000396
v 0.018510 0.035745 0.006829
v 0.022439 0.041770 -0.006882
v 0.013641 0.039023 -0.005883
v 0.008204 0.031659 -0.004416
v 0.008204 0.022491 -0.003042
v 0.013641 0.015020 -0.002284
v 0.022439 0.012101 -0.002434
v 0.031237 0.014848 -0.003433
v 0.036674 0.022212 -0.004900
v 0.036674 0.031380 -0.006274
v 0.031237 0.038850 -0.007031
v 0.023908 0.045069 0.015127
v 0.015110 0.042322 0.016126
v 0.009673 0.034958 0.017593
v 0.009673 0.025790 0.018967
v 0.015110 0.018320 0.019724
v 0.023908 0.015401 0.019575
v 0.032705 0.018148 0.018576
v 0.038143 0.025512 0.017109
v 0.038143 0.034680 0.015734
v 0.032705 0.042150 0.014977
v 0.023908 0.045231 0.017007
v 0.016805 0.042247 0.011851
v 0.012415 0.034676 0.008795
v 0.012415 0.025407 0.009008
v 0.016805 0.017983 0.012407
v 0.023908 0.015239 0.017694
v 0.031011 0.018222 0.022850
v 0.035401 0.025794 0.025906
v 0.035401 0.035062 0.025694
v 0.031011 0.042487 0.022295
v 0.015510 0.045492 0.028424
v 0.008407 0.042509 0.023268
v 0.004017 0.034937 0.020212
v 0.004017 0.025669 0.020424
v 0.008407 0.018245 0.023823
v 0.015510 0.015500 0.029111
v 0.022613 0.018484 0.034267
v 0.027003 0.026056 0.037323
v 0.027003 0.035324 0.037111
v 0.022613 0.042748 0.033712
v 0.044805 0.016223 0.097393
v 0.038454 0.022940 0.098093
v 0.034528 0.030046 0.093617
v 0.034528 0.034828 0.085675
v 0.038454 0.035459 0.077301
v 0.044805 0.031697 0.071692
v 0.051157 0.024981 0.070992
v 0.055082 0.017875 0.075468
v 0.055082 0.013093 0.083410
v 0.051157 0.012462 0.091785
v 0.018017 -0.007614 0.083041
v 0.011665 -0.000898 0.083741
v 0.007740 0.006209 0.079265
v 0.007740 0.010990 0.071323
v 0.011665 0.011621 0.062948
v 0.018017 0.007860 0.057340
v 0.024368 0.001144 0.056640
v 0.028294 -0.005963 0.061116
v 0.028294 -0.010745 0.069058
v 0.024368 -0.011375 0.077433
v 0.018017 -0.014558 0.073267
v 0.012850 -0.010289 0.079672
v 0.009657 -0.002043 0.082456
v 0.009657 0.007031 0.080554
v 0.012850 0.013466 0.074694
v 0.018017 0.014804 0.067114
v 0.023183 0.010535 0.060709
v 0.026376 0.002288 0.057925
v 0.026376 -0.006785 0.059827
v 0.023183 -0.013220 0.065687
v -0.004285 -0.017866 0.057484
v -0.009451 -0.013597 0.063889
v -0.012644 -0.005350 0.066673
v -0.012644 0.003723 0.064771
v -0.009451 0.010158 0.058911
v -0.004285 0.011496 0.051331
v 0.000881 0.007227 0.044925
v 0.004074 -0.001019 0.042142
v 0.004074 -0.010093 0.044044
v 0.000881 -0.016527 0.049904
v -0.004285 -0.016934 0.048411
v -0.012166 -0.015888 0.053179
v -0.017037 -0.009990 0.058416
v -0.017037 -0.001492 0.062122
v -0.012166 0.006359 0.062881
v -0.004285 0.010565 0.060403
v 0.003597 0.009519 0.055635
v 0.008467 0.003620 0.050398
v 0.008467 -0.004877 0.046693
v 0.003597 -0.012728 0.045934
v -0.022130 -0.002709 0.015792
v -0.030011 -0.001663 0.020560
v -0.034882 0.004235 0.025797
v -0.034882 0.012733 0.029503
v -0.030011 0.020584 0.030262
v -0.022130 0.024790 0.027784
v -0.014249 0.023744 0.023016
v -0.009378 0.017845 0.017779
v -0.009378 0.009348 0.014073
v -0.014249 0.001496 0.013314
v -0.022130 -0.000264 0.011928
v -0.030946 0.001842 0.013872
v -0.036395 0.007461 0.018840
v -0.036395 0.014447 0.024934
v -0.030946 0.020132 0.029826
v -0.022130 0.022344 0.031648
v -0.013314 0.020239 0.029704
v -0.007865 0.014620 0.024736
v -0.007865 0.007633 0.018642
v -0.013314 0.001948 0.013750
v -0.022383 0.017824 -0.008810
v -0.031200 0.019930 -0.006865
v -0.036649 0.025549 -0.001898
v -0.036649 0.032535 0.004196
v -0.031200 0.038220 0.009088
v -0.022383 0.040432 0.010910
v -0.013567 0.038327 0.008966
v -0.008118 0.032708 0.003998
v -0.008118 0.025721 -0.002096
v -0.013567 0.020036 -0.006988
v 0.044805 0.010483 0.091128
v 0.037086 0.014927 0.093697
v 0.032315 0.022821 0.092769
v 0.032315 0.031151 0.088699
v 0.037086 0.036733 0.083042
v 0.044805 0.037437 0.077957
v 0.052525 0.032994 0.075388
v 0.057296 0.025099 0.076316
v 0.057296 0.016770 0.080386
v 0.052525 0.011187 0.086044
v -0.005523 -0.029566 0.009169
v -0.013243 -0.025122 0.011738
v -0.018014 -0.017228 0.010810
v -0.018014 -0.008898 0.006740
v -0.013243 -0.003316 0.001082
v -0.005523 -0.002612 -0.004002
v 0.002197 -0.007055 -0.006571
v 0.006968 -0.014950 -0.005644
v 0.006968 -0.023279 -0.001574
v 0.002197 -0.028862 0.004084
v -0.002345 -0.016089 -0.012076
v -0.002683 -0.024901 -0.009218
v -0.004106 -0.030347 -0.001853
v -0.006070 -0.030347 0.007207
v -0.007826 -0.024901 0.014501
v -0.008702 -0.016089 0.017242
v -0.008363 -0.007276 0.014384
v -0.006940 -0.001830 0.007019
v -0.004976 -0.001830 -0.002041
v -0.003221 -0.007276 -0.009335
v -0.024757 -0.016805 -0.016936
v -0.025095 -0.025617 -0.014078
v -0.026518 -0.031063 -0.006712
v -0.028482 -0.031063 0.002348
v -0.030238 -0.025617 0.009642
v -0.031114 -0.016805 0.012383
v -0.030775 -0.007992 0.009525
v -0.029352 -0.002546 0.002159
v -0.027388 -0.002546 -0.006901
v -0.025633 -0.007992 -0.014194
v -0.027935 -0.002123 -0.005349
v -0.032696 -0.006447 -0.012026
v -0.035638 -0.014728 -0.014979
v -0.035638 -0.023801 -0.013080
v -0.032696 -0.030203 -0.007054
v -0.027935 -0.031486 0.000797
v -0.023175 -0.027162 0.007474
v -0.020232 -0.018881 0.010426
v -0.020232 -0.009808 0.008527
v -0.023175 -0.003406 0.002501
v -0.047670 0.000471 0.007042
v -0.052431 -0.003853 0.000365
v -0.055373 -0.012134 -0.002587
v -0.055373 -0.021208 -0.000688
v -0.052431 -0.027609 0.005338
v -0.047670 -0.028893 0.013188
v -0.042910 -0.024568 0.019865
v -0.039968 -0.016288 0.022818
v -0.039968 -0.007214 0.020918
v -0.042910 -0.000813 0.014893
v -0.047670 -0.002111 0.001250
v -0.051770 -0.009035 -0.003354
v -0.054304 -0.017936 -0.002812
v -0.054304 -0.025414 0.002667
v -0.051770 -0.028613 0.010991
v -0.047670 -0.026311 0.018980
v -0.043571 -0.019387 0.023584
v -0.041037 -0.010486 0.023042
v -0.041037 -0.003007 0.017563
v -0.043571 0.000191 0.009239
v -0.065521 0.003430 0.008813
v -0.069620 -0.003494 0.004209
v -0.072154 -0.012395 0.004750
v -0.072154 -0.019873 0.010229
v -0.069620 -0.023072 0.018554
v -0.065521 -0.020770 0.026543
v -0.061421 -0.013846 0.031146
v -0.058887 -0.004944 0.030605
v -0.058887 0.002534 0.025126
v -0.061421 0.005732 0.016802
v 0.044805 0.009579 0.088806
v 0.036853 0.013407 0.091641
v 0.031937 0.021266 0.091765
v 0.031937 0.030155 0.089130
v 0.036853 0.036677 0.084743
v 0.044805 0.038342 0.080280
v 0.052758 0.034513 0.077445
v 0.057673 0.026654 0.077321
v 0.057673 0.017766 0.079955
v 0.052758 0.011244 0.084342
v 0.001235 -0.016294 0.001520
v -0.006718 -0.012466 0.004355
v -0.011633 -0.004607 0.004479
v -0.011633 0.004282 0.001845
v -0.006718 0.010804 -0.002542
v 0.001235 0.012469 -0.007006
v 0.009188 0.008640 -0.009841
v 0.014103 0.000781 -0.009965
v 0.014103 -0.008107 -0.007330
v 0.009188 -0.014629 -0.002943
v 0.006049 -0.001913 -0.016949
v 0.005593 -0.010716 -0.014079
v 0.003473 -0.016157 -0.006878
v 0.000497 -0.016157 0.001902
v -0.002197 -0.010716 0.008908
v -0.003580 -0.001913 0.011464
v -0.003123 0.006890 0.008594
v -0.001003 0.012331 0.001393
v 0.001973 0.012331 -0.007387
v 0.004667 0.006890 -0.014393
v -0.024673 -0.003716 -0.027361
v -0.025129 -0.012519 -0.024490
v -0.027250 -0.017960 -0.017290
v -0.030226 -0.017960 -0.008510
v -0.032919 -0.012519 -0.001504
v -0.034302 -0.003716 0.001052
v -0.033846 0.005087 -0.001818
v -0.031725 0.010528 -0.009018
v -0.028750 0.010528 -0.017798
v -0.026056 0.005087 -0.024805
v -0.034712 -0.003716 -0.027215
v -0.035833 -0.012238 -0.023743
v -0.034530 -0.017505 -0.016226
v -0.031302 -0.017505 -0.007536
v -0.027380 -0.012238 -0.000992
v -0.024264 -0.003716 0.000907
v -0.023143 0.004806 -0.002566
v -0.024445 0.010073 -0.010083
v -0.027674 0.010073 -0.018773
v -0.031595 0.004806 -0.025317
v -0.059221 0.003219 -0.018109
v -0.060342 -0.005303 -0.014637
v -0.059040 -0.010570 -0.007120
v -0.055811 -0.010570 0.001570
v -0.051890 -0.005303 0.008114
v -0.048773 0.003219 0.010012
v -0.047652 0.011741 0.006540
v -0.048955 0.017008 -0.000977
v -0.052183 0.017008 -0.009667
v -0.056105 0.011741 -0.016211
v -0.053997 0.018029 -0.006426
v -0.058634 0.014012 -0.013376
v -0.061499 0.005873 -0.016764
v -0.061499 -0.003281 -0.015295
v -0.058634 -0.009951 -0.009530
v -0.053997 -0.011591 -0.001671
v -0.049361 -0.007574 0.005279
v -0.046496 0.000565 0.008667
v -0.046496 0.009719 0.007198
v -0.049361 0.016389 0.001433
v -0.083506 0.020920 0.011586
v -0.088142 0.016903 0.004636
v -0.091007 0.008764 0.001248
v -0.091007 -0.000390 0.002717
v -0.088142 -0.007060 0.008482
v -0.083506 -0.008700 0.016341
v -0.078870 -0.004683 0.023291
v -0.076004 0.003456 0.026679
v -0.076004 0.012610 0.025210
v -0.078870 0.019280 0.019445
v 0.044805 0.009142 0.086872
v 0.036859 0.012565 0.090200
v 0.031948 0.020341 0.091368
v 0.031948 0.029499 0.089928
v 0.036859 0.036542 0.086432
v 0.044805 0.038778 0.082213
v 0.052752 0.035355 0.078885
v 0.057663 0.027580 0.077717
v 0.057663 0.018422 0.079157
v 0.052752 0.011379 0.082654
v 0.001718 -0.004777 -0.001680
v -0.006228 -0.001354 0.001649
v -0.011139 0.006421 0.002816
v -0.011139 0.015579 0.001377
v -0.006228 0.022622 -0.002120
v 0.001718 0.024859 -0.006338
v 0.009665 0.021435 -0.009667
v 0.014576 0.013660 -0.010834
v 0.014576 0.004502 -0.009395
v 0.009665 -0.002541 -0.005898
v -0.001379 0.010041 -0.018686
v -0.002286 0.001358 -0.015567
v -0.001663 -0.004009 -0.008033
v 0.000251 -0.004009 0.001038
v 0.002726 0.001358 0.008181
v 0.004815 0.010041 0.010668
v 0.005722 0.018723 0.007549
v 0.005099 0.024090 0.000015
v 0.003185 0.024090 -0.009056
v 0.000711 0.018723 -0.016199
v -0.031630 0.015492 -0.012302
v -0.032536 0.006810 -0.009183
v -0.031914 0.001443 -0.001649
v -0.030000 0.001443 0.007421
v -0.027525 0.006810 0.014564
v -0.025436 0.015492 0.017051
v -0.024529 0.024175 0.013932
v -0.025152 0.029542 0.006398
v -0.027066 0.029542 -0.002672
v -0.029540 0.024175 -0.009815
v -0.028533 0.030444 0.001172
v -0.037347 0.027574 0.001213
v -0.042795 0.020088 0.001698
v -0.042795 0.010848 0.002441
v -0.037347 0.003381 0.003159
v -0.028533 0.000541 0.003577
v -0.019718 0.003411 0.003535
v -0.014270 0.010897 0.003051
v -0.014270 0.020137 0.002308
v -0.019718 0.027604 0.001590
v -0.029077 0.032477 0.026450
v -0.037891 0.029606 0.026491
v -0.043339 0.022121 0.026976
v -0.043339 0.012880 0.027719
v -0.037891 0.005413 0.028436
v -0.029077 0.002573 0.028855
v -0.020262 0.005444 0.028813
v -0.014814 0.012929 0.028329
v -0.014814 0.022170 0.027586
v -0.020262 0.029636 0.026868
v -0.029077 0.032473 0.028904
v -0.037412 0.029378 0.031528
v -0.042564 0.021756 0.032672
v -0.042564 0.012518 0.031899
v -0.037412 0.005192 0.029503
v -0.029077 0.002577 0.026401
v -0.020741 0.005672 0.023777
v -0.015590 0.013294 0.022633
v -0.015590 0.022532 0.023406
v -0.020741 0.029858 0.025801
v -0.021046 0.030529 0.052117
v -0.029382 0.027435 0.054742
v -0.034533 0.019813 0.055886
v -0.034533 0.010574 0.055113
v -0.029382 0.003249 0.052717
v -0.021046 0.000634 0.049615
v -0.012711 0.003728 0.046990
v -0.007559 0.011350 0.045846
v -0.007559 0.020588 0.046620
v -0.012711 0.027914 0.049015
v 0.044805 0.009011 0.083308
v 0.036899 0.011545 0.087432
v 0.032012 0.018821 0.090452
v 0.032012 0.028060 0.091215
v 0.036899 0.035733 0.089429
v 0.044805 0.038909 0.085777
v 0.052712 0.036375 0.081653
v 0.057599 0.029099 0.078633
v 0.057599 0.019860 0.077870
v 0.052712 0.012187 0.079656
v 0.006059 0.015472 0.005047
v -0.001848 0.018006 0.009171
v -0.006735 0.025283 0.012191
v -0.006735 0.034522 0.012953
v -0.001848 0.042195 0.011168
v 0.006059 0.045371 0.007515
v 0.013965 0.042837 0.003392
v 0.018852 0.035560 0.000372
v 0.018852 0.026321 -0.000391
v 0.013965 0.018648 0.001395
v 0.001028 0.030421 -0.007850
v 0.002200 0.021608 -0.005227
v 0.004846 0.016160 0.001793
v 0.007955 0.016160 0.010526
v 0.010339 0.021608 0.017639
v 0.011089 0.030421 0.020412
v 0.009917 0.039235 0.017789
v 0.007272 0.044683 0.010769
v 0.004163 0.044683 0.002036
v 0.001778 0.039235 -0.005076
v -0.018993 0.029881 -0.000723
v -0.017821 0.021068 0.001900
v -0.015176 0.015620 0.008920
v -0.012067 0.015620 0.017653
v -0.009682 0.021068 0.024765
v -0.008932 0.029881 0.027539
v -0.010104 0.038695 0.024916
v -0.012749 0.044143 0.017896
v -0.015858 0.044143 0.009163
v -0.018243 0.038695 0.002051
v -0.013963 0.044487 0.016827
v -0.022048 0.042499 0.012751
v -0.027045 0.035691 0.008926
v -0.027045 0.026665 0.006812
v -0.022048 0.018867 0.007219
v -0.013963 0.015276 0.009989
v -0.005877 0.017264 0.014065
v -0.000880 0.024071 0.017891
v -0.000880 0.033098 0.020004
v -0.005877 0.040896 0.019598
v -0.023135 0.039679 0.037365
v -0.031220 0.037691 0.033289
v -0.036217 0.030883 0.029463
v -0.036217 0.021857 0.027350
v -0.031220 0.014059 0.027756
v -0.023135 0.010468 0.030527
v -0.015049 0.012456 0.034603
v -0.010052 0.019263 0.038428
v -0.010052 0.028290 0.040542
v -0.015049 0.036088 0.040135
v -0.023135 0.039755 0.037021
v -0.030122 0.035849 0.041696
v -0.034441 0.027827 0.043411
v -0.034441 0.018753 0.041511
v -0.030122 0.012094 0.036721
v -0.023135 0.010392 0.030871
v -0.016147 0.014298 0.026196
v -0.011829 0.022320 0.024481
v -0.011829 0.031394 0.026381
v -0.016147 0.038053 0.031171
v -0.012690 0.036972 0.050307
v -0.019677 0.033066 0.054982
v -0.023996 0.025044 0.056697
v -0.023996 0.015971 0.054797
v -0.019677 0.009311 0.050007
v -0.012690 0.007609 0.044157
v -0.005702 0.011515 0.039482
v -0.001383 0.019537 0.037767
v -0.001383 0.028611 0.039668
v -0.005702 0.035271 0.044457
f 1 2 13
f 2 14 13
f 2 3 14
f 3 15 14
f 3 4 15
f 4 16 15
f 4 5 16
f 5 17 16
f 5 6 17
f 6 18 17
f 6 7 18
f 7 19 18
f 7 8 19
f 8 20 19
f 8 9 20
f 9 21 20
f 9 10 21
f 10 22 21
f 10 11 22
f 11 23 22
f 11 12 23
f 12 24 23
f 13 14 25
f 14 26 25
f 14 15 26
f 15 27 26
f 15 16 27
f 16 28 27
f 16 17 28
f 17 29 28
f 17 18 29
f 18 30 29
f 18 19 30
f 19 31 30
f 19 20 31
f 20 32 31
f 20 21 32
f 21 33 32
f 21 22 33
f 22 34 33
f 22 23 34
f 23 35 34
f 23 24 35
f 24 36 35
f 25 26 37
f 26 38 37
f 26 27 38
f 27 39 38
f 27 28 39
f 28 40 39
f 28 29 40
f 29 41 40
f 29 30 41
f 30 42 41
f 30 31 42
f 31 43 42
f 31 32 43
f 32 44 43
f 32 33 44
f 33 45 44
f 33 34 45
f 34 46 45
f 34 35 46
f 35 47 46
f 35 36 47
f 36 48 47
f 37 38 49
f 38 50 49
f 38 39 50
f 39 51 50
f 39 40 51
f 40 52 51
f 40 41 52
f 41 53 52
f 41 42 53
f 42 54 53
f 42 43 54
f 43 55 54
f 43 44 55
f 44 56 55
f 44 45 56
f 45 57 56
f 45 46 57
f 46 58 57
f 46 47 58
f 47 59 58
f 47 48 59
f 48 60 59
f 49 50 61
f 50 62 61
f 50 51 62
f 51 63 62
f 51 52 63
f 52 64 63
f 52 53 64
f 53 65 64
f 53 54 65
f 54 66 65
f 54 55 66
f 55 67 66
f 55 56 67
f 56 68 67
f 56 57 68
f 57 69 68
f 57 58 69
f 58 70 69
f 58 59 70
f 59 71 70
f 59 60 71
f 60 72 71
f 61 62 73
f 62 74 73
f 62 63 74
f 63 75 74
f 63 64 75
f 64 76 75
f 64 65 76
f 65 77 76
f 65 66 77
f 66 78 77
f 66 67 78
f 67 79 78
f 67 68 79
f 68 80 79
f 68 69 80
f 69 81 80
f 69 70 81
f 70 82 81
f 70 71 82
f 71 83 82
f 71 72 83
f 72 84 83
f 73 74 85
f 74 86 85
f 74 75 86
f 75 87 86
f 75 76 87
f 76 88 87
f 76 77 88
f 77 89 88
f 77 78 89
f 78 90 89
f 78 79 90
f 79 91 90
f 79 80 91
f 80 92 91
f 80 81 92
f 81 93 92
f 81 82 93
f 82 94 93
f 82 83 94
f 83 95 94
f 83 84 95
f 84 96 95
f 85 86 97
f 86 98 97
f 86 87 98
f 87 99 98
f 87 88 99
f 88 100 99
f 88 89 100
f 89 101 100
f 89 90 101
f 90 102 101
f 90 91 102
f 91 103 102
f 91 92 103
f 92 104 103
f 92 93 104
f 93 105 104
f 93 94 105
f 94 106 105
f 94 95 106
f 95 107 106
f 95 96 107
f 96 108 107
f 97 98 109
f 98 110 109
f 98 99 110
f 99 111 110
f 99 100 111
f 100 112 111
f 100 101 112
f 101 113 112
f 101 102 113
f 102 114 113
f 102 103 114
f 103 115 114
f 103 104 115
f 104 116 115
f 104 105 116
f 105 117 116
f 105 106 117
f 106 118 117
f 106 107 118
f 107 119 118
f 107 108 119
f 108 120 119
f 109 110 121
f 110 122 121
f 110 111 122
f 111 123 122
f 111 112 123
f 112 124 123
f 112 113 124
f 113 125 124
f 113 114 125
f 114 126 125
f 114 115 126
f 115 127 126
f 115 116 127
f 116 128 127
f 116 117 128
f 117 129 128
f 117 118 129
f 118 130 129
f 118 119 130
f 119 131 130
f 119 120 131
f 120 132 131
f 121 122 133
f 122 134 133
f 122 123 134
f 123 135 134
f 123 124 135
f 124 136 135
f 124 125 136
f 125 137 136
f 125 126 137
f 126 138 137
f 126 127 138
f 127 139 138
f 127 128 139
f 128 140 139
f 128 129 140
f 129 141 140
f 129 130 141
f 130 142 141
f 130 131 142
f 131 143 142
f 131 132 143
f 132 144 143
f 145 146 155
f 146 156 155
f 146 147 156
f 147 157 156
f 147 148 157
f 148 158 157
f 148 149 158
f 149 159 158
f 149 150 159
f 150 160 159
f 150 151 160
f 151 161 160
f 151 152 161
f 152 162 161
f 152 153 162
f 153 163 162
f 153 154 163
f 154 164 163
f 154 145 164
f 145 155 164
f 165 166 175
f 166 176 175
f 166 167 176
f 167 177 176
f 167 168 177
f 168 178 177
f 168 169 178
f 169 179 178
f 169 170 179
f 170 180 179
f 170 171 180
f 171 181 180
f 171 172 181
f 172 182 181
f 172 173 182
f 173 183 182
f 173 174 183
f 174 184 183
f 174 165 184
f 165 175 184
f 185 186 195
f 186 196 195
f 186 187 196
f 187 197 196
f 187 188 197
f 188 198 197
f 188 189 198
f 189 199 198
f 189 190 199
f 190 200 199
f 190 191 200
f 191 201 200
f 191 192 201
f 192 202 201
f 192 193 202
f 193 203 202
f 193 194 203
f 194 204 203
f 194 185 204
f 185 195 204
f 205 206 215
f 206 216 215
f 206 207 216
f 207 217 216
f 207 208 217
f 208 218 217
f 208 209 218
f 209 219 218
f 209 210 219
f 210 220 219
f 210 211 220
f 211 221 220
f 211 212 221
f 212 222 221
f 212 213 222
f 213 223 222
f 213 214 223
f 214 224 223
f 214 205 224
f 205 215 224
f 225 226 235
f 226 236 235
f 226 227 236
f 227 237 236
f 227 228 237
f 228 238 237
f 228 229 238
f 229 239 238
f 229 230 239
f 230 240 239
f 230 231 240
f 231 241 240
f 231 232 241
f 232 242 241
f 232 233 242
f 233 243 242
f 233 234 243
f 234 244 243
f 234 225 244
f 225 235 244
f 245 246 255
f 246 256 255
f 246 247 256
f 247 257 256
f 247 248 257
f 248 258 257
f 248 249 258
f 249 259 258
f 249 250 259
f 250 260 259
f 250 251 260
f 251 261 260
f 251 252 261
f 252 262 261
f 252 253 262
f 253 263 262
f 253 254 263
f 254 264 263
f 254 245 264
f 245 255 264
f 265 266 275
f 266 276 275
f 266 267 276
f 267 277 276
f 267 268 277
f 268 278 277
f 268 269 278
f 269 279 278
f 269 270 279
f 270 280 279
f 270 271 280
f 271 281 280
f 271 272 281
f 272 282 281
f 272 273 282
f 273 283 282
f 273 274 283
f 274 284 283
f 274 265 284
f 265 275 284
f 285 286 295
f 286 296 295
f 286 287 296
f 287 297 296
f 287 288 297
f 288 298 297
f 288 289 298
f 289 299 298
f 289 290 299
f 290 300 299
f 290 291 300
f 291 301 300
f 291 292 301
f 292 302 301
f 292 293 302
f 293 303 302
f 293 294 303
f 294 304 303
f 294 285 304
f 285 295 304
f 305 306 315
f 306 316 315
f 306 307 316
f 307 317 316
f 307 308 317
f 308 318 317
f 308 309 318
f 309 319 318
f 309 310 319
f 310 320 319
f 310 311 320
f 311 321 320
f 311 312 321
f 312 322 321
f 312 313 322
f 313 323 322
f 313 314 323
f 314 324 323
f 314 305 324
f 305 315 324
f 325 326 335
f 326 336 335
f 326 327 336
f 327 337 336
f 327 328 337
f 328 338 337
f 328 329 338
f 329 339 338
f 329 330 339
f 330 340 339
f 330 331 340
f 331 341 340
f 331 332 341
f 332 342 341
f 332 333 342
f 333 343 342
f 333 334 343
f 334 344 343
f 334 325 344
f 325 335 344
f 345 346 355
f 346 356 355
f 346 347 356
f 347 357 356
f 347 348 357
f 348 358 357
f 348 349 358
f 349 359 358
f 349 350 359
f 350 360 359
f 350 351 360
f 351 361 360
f 351 352 361
f 352 362 361
f 352 353 362
f 353 363 362
f 353 354 363
f 354 364 363
f 354 345 364
f 345 355 364
f 365 366 375
f 366 376 375
f 366 367 376
f 367 377 376
f 367 368 377
f 368 378 377
f 368 369 378
f 369 379 378
f 369 370 379
f 370 380 379
f 370 371 380
f 371 381 380
f 371 372 381
f 372 382 381
f 372 373 382
f 373 383 382
f 373 374 383
f 374 384 383
f 374 365 384
f 365 375 384
f 385 386 395
f 386 396 395
f 386 387 396
f 387 397 396
f 387 388 397
f 388 398 397
f 388 389 398
f 389 399 398
f 389 390 399
f 390 400 399
f 390 391 400
f 391 401 400
f 391 392 401
f 392 402 401
f 392 393 402
f 393 403 402
f 393 394 403
f 394 404 403
f 394 385 404
f 385 395 404
f 405 406 415
f 406 416 415
f 406 407 416
f 407 417 416
f 407 408 417
f 408 418 417
f 408 409 418
f 409 419 418
f 409 410 419
f 410 420 419
f 410 411 420
f 411 421 420
f 411 412 421
f 412 422 421
f 412 413 422
f 413 423 422
f 413 414 423
f 414 424 423
f 414 405 424
f 405 415 424
f 425 426 435
f 426 436 435
f 426 427 436
f 427 437 436
f 427 428 437
f 428 438 437
f 428 429 438
f 429 439 438
f 429 430 439
f 430 440 439
f 430 431 440
f 431 441 440
f 431 432 441
f 432 442 441
f 432 433 442
f 433 443 442
f 433 434 443
f 434 444 443
f 434 425 444
f 425 435 444
f 445 446 455
f 446 456 455
f 446 447 456
f 447 457 456
f 447 448 457
f 448 458 457
f 448 449 458
f 449 459 458
f 449 450 459
f 450 460 459
f 450 451 460
f 451 461 460
f 451 452 461
f 452 462 461
f 452 453 462
f 453 463 462
f 453 454 463
f 454 464 463
f 454 445 464
f 445 455 464
f 465 466 475
f 466 476 475
f 466 467 476
f 467 477 476
f 467 468 477
f 468 478 477
f 468 469 478
f 469 479 478
f 469 470 479
f 470 480 479
f 470 471 480
f 471 481 480
f 471 472 481
f 472 482 481
f 472 473 482
f 473 483 482
f 473 474 483
f 474 484 483
f 474 465 484
f 465 475 484
f 485 486 495
f 486 496 495
f 486 487 496
f 487 497 496
f 487 488 497
f 488 498 497
f 488 489 498
f 489 499 498
f 489 490 499
f 490 500 499
f 490 491 500
f 491 501 500
f 491 492 501
f 492 502 501
f 492 493 502
f 493 503 502
f 493 494 503
f 494 504 503
f 494 485 504
f 485 495 504
f 505 506 515
f 506 516 515
f 506 507 516
f 507 517 516
f 507 508 517
f 508 518 517
f 508 509 518
f 509 519 518
f 509 510 519
f 510 520 519
f 510 511 520
f 511 521 520
f 511 512 521
f 512 522 521
f 512 513 522
f 513 523 522
f 513 514 523
f 514 524 523
f 514 505 524
f 505 515 524
f 525 526 535
f 526 536 535
f 526 527 536
f 527 537 536
f 527 528 537
f 528 538 537
f 528 529 538
f 529 539 538
f 529 530 539
f 530 540 539
f 530 531 540
f 531 541 540
f 531 532 541
f 532 542 541
f 532 533 542
f 533 543 542
f 533 534 543
f 534 544 543
f 534 525 544
f 525 535 544
f 545 546 555
f 546 556 555
f 546 547 556
f 547 557 556
f 547 548 557
f 548 558 557
f 548 549 558
f 549 559 558
f 549 550 559
f 550 560 559
f 550 551 560
f 551 561 560
f 551 552 561
f 552 562 561
f 552 553 562
f 553 563 562
f 553 554 563
f 554 564 563
f 554 545 564
f 545 555 564
f 565 566 575
f 566 576 575
f 566 567 576
f 567 577 576
f 567 568 577
f 568 578 577
f 568 569 578
f 569 579 578
f 569 570 579
f 570 580 579
f 570 571 580
f 571 581 580
f 571 572 581
f 572 582 581
f 572 573 582
f 573 583 582
f 573 574 583
f 574 584 583
f 574 565 584
f 565 575 584
f 585 586 595
f 586 596 595
f 586 587 596
f 587 597 596
f 587 588 597
f 588 598 597
f 588 589 598
f 589 599 598
f 589 590 599
f 590 600 599
f 590 591 600
f 591 601 600
f 591 592 601
f 592 602 601
f 592 593 602
f 593 603 602
f 593 594 603
f 594 604 603
f 594 585 604
f 585 595 604
f 605 606 615
f 606 616 615
f 606 607 616
f 607 617 616
f 607 608 617
f 608 618 617
f 608 609 618
f 609 619 618
f 609 610 619
f 610 620 619
f 610 611 620
f 611 621 620
f 611 612 621
f 612 622 621
f 612 613 622
f 613 623 622
f 613 614 623
f 614 624 623
f 614 605 624
f 605 615 624
f 625 626 635
f 626 636 635
f 626 627 636
f 627 637 636
f 627 628 637
f 628 638 637
f 628 629 638
f 629 639 638
f 629 630 639
f 630 640 639
f 630 631 640
f 631 641 640
f 631 632 641
f 632 642 641
f 632 633 642
f 633 643 642
f 633 634 643
f 634 644 643
f 634 625 644
f 625 635 644
f 645 646 655
f 646 656 655
f 646 647 656
f 647 657 656
f 647 648 657
f 648 658 657
f 648 649 658
f 649 659 658
f 649 650 659
f 650 660 659
f 650 651 660
f 651 661 660
f 651 652 661
f 652 662 661
f 652 653 662
f 653 663 662
f 653 654 663
f 654 664 663
f 654 645 664
f 645 655 664
f 665 666 675
f 666 676 675
f 666 667 676
f 667 677 676
f 667 668 677
f 668 678 677
f 668 669 678
f 669 679 678
f 669 670 679
f 670 680 679
f 670 671 680
f 671 681 680
f 671 672 681
f 672 682 681
f 672 673 682
f 673 683 682
f 673 674 683
f 674 684 683
f 674 665 684
f 665 675 684
f 685 686 695
f 686 696 695
f 686 687 696
f 687 697 696
f 687 688 697
f 688 698 697
f 688 689 698
f 689 699 698
f 689 690 699
f 690 700 699
f 690 691 700
f 691 701 700
f 691 692 701
f 692 702 701
f 692 693 702
f 693 703 702
f 693 694 703
f 694 704 703
f 694 685 704
f 685 695 704
f 705 706 715
f 706 716 715
f 706 707 716
f 707 717 716
f 707 708 717
f 708 718 717
f 708 709 718
f 709 719 718
f 709 710 719
f 710 720 719
f 710 711 720
f 711 721 720
f 711 712 721
f 712 722 721
f 712 713 722
f 713 723 722
f 713 714 723
f 714 724 723
f 714 705 724
f 705 715 724
f 725 726 735
f 726 736 735
f 726 727 736
f 727 737 736
f 727 728 737
f 728 738 737
f 728 729 738
f 729 739 738
f 729 730 739
f 730 740 739
f 730 731 740
f 731 741 740
f 731 732 741
f 732 742 741
f 732 733 742
f 733 743 742
f 733 734 743
f 734 744 743
f 734 725 744
f 725 735 744
f 745 746 755
f 746 756 755
f 746 747 756
f 747 757 756
f 747 748 757
f 748 758 757
f 748 749 758
f 749 759 758
f 749 750 759
f 750 760 759
f 750 751 760
f 751 761 760
f 751 752 761
f 752 762 761
f 752 753 762
f 753 763 762
f 753 754 763
f 754 764 763
f 754 745 764
f 745 755 764
f 765 766 775
f 766 776 775
f 766 767 776
f 767 777 776
f 767 768 777
f 768 778 777
f 768 769 778
f 769 779 778
f 769 770 779
f 770 780 779
f 770 771 780
f 771 781 780
f 771 772 781
f 772 782 781
f 772 773 782
f 773 783 782
f 773 774 783
f 774 784 783
f 774 765 784
f 765 775 784
f 785 786 795
f 786 796 795
f 786 787 796
f 787 797 796
f 787 788 797
f 788 798 797
f 788 789 798
f 789 799 798
f 789 790 799
f 790 800 799
f 790 791 800
f 791 801 800
f 791 792 801
f 792 802 801
f 792 793 802
f 793 803 802
f 793 794 803
f 794 804 803
f 794 785 804
f 785 795 804
f 805 806 815
f 806 816 815
f 806 807 816
f 807 817 816
f 807 808 817
f 808 818 817
f 808 809 818
f 809 819 818
f 809 810 819
f 810 820 819
f 810 811 820
f 811 821 820
f 811 812 821
f 812 822 821
f 812 813 822
f 813 823 822
f 813 814 823
f 814 824 823
f 814 805 824
f 805 815 824
f 825 826 835
f 826 836 835
f 826 827 836
f 827 837 836
f 827 828 837
f 828 838 837
f 828 829 838
f 829 839 838
f 829 830 839
f 830 840 839
f 830 831 840
f 831 841 840
f 831 832 841
f 832 842 841
f 832 833 842
f 833 843 842
f 833 834 843
f 834 844 843
f 834 825 844
f 825 835 844
f 845 846 855
f 846 856 855
f 846 847 856
f 847 857 856
f 847 848 857
f 848 858 857
f 848 849 858
f 849 859 858
f 849 850 859
f 850 860 859
f 850 851 860
f 851 861 860
f 851 852 861
f 852 862 861
f 852 853 862
f 853 863 862
f 853 854 863
f 854 864 863
f 854 845 864
f 845 855 864
f 865 866 875
f 866 876 875
f 866 867 876
f 867 877 876
f 867 868 877
f 868 878 877
f 868 869 878
f 869 879 878
f 869 870 879
f 870 880 879
f 870 871 880
f 871 881 880
f 871 872 881
f 872 882 881
f 872 873 882
f 873 883 882
f 873 874 883
f 874 884 883
f 874 865 884
f 865 875 884
f 885 886 895
f 886 896 895
f 886 887 896
f 887 897 896
f 887 888 897
f 888 898 897
f 888 889 898
f 889 899 898
f 889 890 899
f 890 900 899
f 890 891 900
f 891 901 900
f 891 892 901
f 892 902 901
f 892 893 902
f 893 903 902
f 893 894 903
f 894 904 903
f 894 885 904
f 885 895 904
f 905 906 915
f 906 916 915
f 906 907 916
f 907 917 916
f 907 908 917
f 908 918 917
f 908 909 918
f 909 919 918
f 909 910 919
f 910 920 919
f 910 911 920
f 911 921 920
f 911 912 921
f 912 922 921
f 912 913 922
f 913 923 922
f 913 914 923
f 914 924 923
f 914 905 924
f 905 915 924
f 925 926 935
f 926 936 935
f 926 927 936
f 927 937 936
f 927 928 937
f 928 938 937
f 928 929 938
f 929 939 938
f 929 930 939
f 930 940 939
f 930 931 940
f 931 941 940
f 931 932 941
f 932 942 941
f 932 933 942
f 933 943 942
f 933 934 943
f 934 944 943
f 934 925 944
f 925 935 944
f 945 946 955
f 946 956 955
f 946 947 956
f 947 957 956
f 947 948 957
f 948 958 957
f 948 949 958
f 949 959 958
f 949 950 959
f 950 960 959
f 950 951 960
f 951 961 960
f 951 952 961
f 952 962 961
f 952 953 962
f 953 963 962
f 953 954 963
f 954 964 963
f 954 945 964
f 945 955 964
f 965 966 975
f 966 976 975
f 966 967 976
f 967 977 976
f 967 968 977
f 968 978 977
f 968 969 978
f 969 979 978
f 969 970 979
f 970 980 979
f 970 971 980
f 971 981 980
f 971 972 981
f 972 982 981
f 972 973 982
f 973 983 982
f 973 974 983
f 974 984 983
f 974 965 984
f 965 975 984
f 985 986 995
f 986 996 995
f 986 987 996
f 987 997 996
f 987 988 997
f 988 998 997
f 988 989 998
f 989 999 998
f 989 990 999
f 990 1000 999
f 990 991 1000
f 991 1001 1000
f 991 992 1001
f 992 1002 1001
f 992 993 1002
f 993 1003 1002
f 993 994 1003
f 994 1004 1003
f 994 985 1004
f 985 995 1004
f 1005 1006 1015
f 1006 1016 1015
f 1006 1007 1016
f 1007 1017 1016
f 1007 1008 1017
f 1008 1018 1017
f 1008 1009 1018
f 1009 1019 1018
f 1009 1010 1019
f 1010 1020 1019
f 1010 1011 1020
f 1011 1021 1020
f 1011 1012 1021
f 1012 1022 1021
f 1012 1013 1022
f 1013 1023 1022
f 1013 1014 1023
f 1014 1024 1023
f 1014 1005 1024
f 1005 1015 1024
f 1025 1026 1035
f 1026 1036 1035
f 1026 1027 1036
f 1027 1037 1036
f 1027 1028 1037
f 1028 1038 1037
f 1028 1029 1038
f 1029 1039 1038
f 1029 1030 1039
f 1030 1040 1039
f 1030 1031 1040
f 1031 1041 1040
f 1031 1032 1041
f 1032 1042 1041
f 1032 1033 1042
f 1033 1043 1042
f 1033 1034 1043
f 1034 1044 1043
f 1034 1025 1044
f 1025 1035 1044
f 1045 1046 1055
f 1046 1056 1055
f 1046 1047 1056
f 1047 1057 1056
f 1047 1048 1057
f 1048 1058 1057
f 1048 1049 1058
f 1049 1059 1058
f 1049 1050 1059
f 1050 1060 1059
f 1050 1051 1060
f 1051 1061 1060
f 1051 1052 1061
f 1052 1062 1061
f 1052 1053 1062
f 1053 1063 1062
f 1053 1054 1063
f 1054 1064 1063
f 1054 1045 1064
f 1045 1055 1064
f 1065 1066 1075
f 1066 1076 1075
f 1066 1067 1076
f 1067 1077 1076
f 1067 1068 1077
f 1068 1078 1077
f 1068 1069 1078
f 1069 1079 1078
f 1069 1070 1079
f 1070 1080 1079
f 1070 1071 1080
f 1071 1081 1080
f 1071 1072 1081
f 1072 1082 1081
f 1072 1073 1082
f 1073 1083 1082
f 1073 1074 1083
f 1074 1084 1083
f 1074 1065 1084
f 1065 1075 1084
f 1085 1086 1095
f 1086 1096 1095
f 1086 1087 1096
f 1087 1097 1096
f 1087 1088 1097
f 1088 1098 1097
f 1088 1089 1098
f 1089 1099 1098
f 1089 1090 1099
f 1090 1100 1099
f 1090 1091 1100
f 1091 1101 1100
f 1091 1092 1101
f 1092 1102 1101
f 1092 1093 1102
f 1093 1103 1102
f 1093 1094 1103
f 1094 1104 1103
f 1094 1085 1104
f 1085 1095 1104
f 1105 1106 1115
f 1106 1116 1115
f 1106 1107 1116
f 1107 1117 1116
f 1107 1108 1117
f 1108 1118 1117
f 1108 1109 1118
f 1109 1119 1118
f 1109 1110 1119
f 1110 1120 1119
f 1110 1111 1120
f 1111 1121 1120
f 1111 1112 1121
f 1112 1122 1121
f 1112 1113 1122
f 1113 1123 1122
f 1113 1114 1123
f 1114 1124 1123
f 1114 1105 1124
f 1105 1115 1124
f 1125 1126 1135
f 1126 1136 1135
f 1126 1127 1136
f 1127 1137 1136
f 1127 1128 1137
f 1128 1138 1137
f 1128 1129 1138
f 1129 1139 1138
f 1129 1130 1139
f 1130 1140 1139
f 1130 1131 1140
f 1131 1141 1140
f 1131 1132 1141
f 1132 1142 1141
f 1132 1133 1142
f 1133 1143 1142
f 1133 1134 1143
f 1134 1144 1143
f 1134 1125 1144
f 1125 1135 1144
f 1145 1146 1155
f 1146 1156 1155
f 1146 1147 1156
f 1147 1157 1156
f 1147 1148 1157
f 1148 1158 1157
f 1148 1149 1158
f 1149 1159 1158
f 1149 1150 1159
f 1150 1160 1159
f 1150 1151 1160
f 1151 1161 1160
f 1151 1152 1161
f 1152 1162 1161
f 1152 1153 1162
f 1153 1163 1162
f 1153 1154 1163
f 1154 1164 1163
f 1154 1145 1164
f 1145 1155 1164
f 1165 1166 1175
f 1166 1176 1175
f 1166 1167 1176
f 1167 1177 1176
f 1167 1168 1177
f 1168 1178 1177
f 1168 1169 1178
f 1169 1179 1178
f 1169 1170 1179
f 1170 1180 1179
f 1170 1171 1180
f 1171 1181 1180
f 1171 1172 1181
f 1172 1182 1181
f 1172 1173 1182
f 1173 1183 1182
f 1173 1174 1183
f 1174 1184 1183
f 1174 1165 1184
f 1165 1175 1184
