# Full-Body 3D Mesh - Frame 297
v 0.036932 -0.608640 -0.107438
v 0.070740 -0.608640 -0.112299
v 0.101809 -0.608640 -0.126488
v 0.127622 -0.608640 -0.148855
v 0.146088 -0.608640 -0.177588
v 0.155711 -0.608640 -0.210360
v 0.155711 -0.608640 -0.244516
v 0.146088 -0.608640 -0.277288
v 0.127622 -0.608640 -0.306021
v 0.101809 -0.608640 -0.328388
v 0.070740 -0.608640 -0.342577
v 0.036932 -0.608640 -0.347438
v 0.036932 -0.608640 -0.107438
v 0.065373 -0.590362 -0.112299
v 0.091510 -0.573565 -0.126488
v 0.113226 -0.559609 -0.148855
v 0.128760 -0.549626 -0.177588
v 0.136855 -0.544423 -0.210360
v 0.136855 -0.544423 -0.244516
v 0.128760 -0.549626 -0.277288
v 0.113226 -0.559609 -0.306021
v 0.091510 -0.573565 -0.328388
v 0.065373 -0.590362 -0.342577
v 0.036932 -0.608640 -0.347438
v 0.036932 -0.608640 -0.107438
v 0.050977 -0.577887 -0.112299
v 0.063883 -0.549626 -0.126488
v 0.074606 -0.526146 -0.148855
v 0.082277 -0.509348 -0.177588
v 0.086275 -0.500595 -0.210360
v 0.086275 -0.500595 -0.244516
v 0.082277 -0.509348 -0.277288
v 0.074606 -0.526146 -0.306021
v 0.063883 -0.549626 -0.328388
v 0.050977 -0.577887 -0.342577
v 0.036932 -0.608640 -0.347438
v 0.036932 -0.608640 -0.107438
v 0.032121 -0.575176 -0.112299
v 0.027699 -0.544423 -0.126488
v 0.024026 -0.518873 -0.148855
v 0.021398 -0.500595 -0.177588
v 0.020028 -0.491070 -0.210360
v 0.020028 -0.491070 -0.244516
v 0.021398 -0.500595 -0.277288
v 0.024026 -0.518873 -0.306021
v 0.027699 -0.544423 -0.328388
v 0.032121 -0.575176 -0.342577
v 0.036932 -0.608640 -0.347438
v 0.036932 -0.608640 -0.107438
v 0.014793 -0.583090 -0.112299
v -0.005553 -0.559609 -0.126488
v -0.022457 -0.540101 -0.148855
v -0.034550 -0.526146 -0.177588
v -0.040851 -0.518873 -0.210360
v -0.040851 -0.518873 -0.244516
v -0.034550 -0.526146 -0.277288
v -0.022457 -0.540101 -0.306021
v -0.005553 -0.559609 -0.328388
v 0.014793 -0.583090 -0.342577
v 0.036932 -0.608640 -0.347438
v 0.036932 -0.608640 -0.107438
v 0.004494 -0.599115 -0.112299
v -0.025317 -0.590362 -0.126488
v -0.050084 -0.583090 -0.148855
v -0.067802 -0.577887 -0.177588
v -0.077035 -0.575176 -0.210360
v -0.077035 -0.575176 -0.244516
v -0.067802 -0.577887 -0.277288
v -0.050084 -0.583090 -0.306021
v -0.025317 -0.590362 -0.328388
v 0.004494 -0.599115 -0.342577
v 0.036932 -0.608640 -0.347438
v 0.036932 -0.608640 -0.107438
v 0.004494 -0.618165 -0.112299
v -0.025317 -0.626918 -0.126488
v -0.050084 -0.634190 -0.148855
v -0.067802 -0.639393 -0.177588
v -0.077035 -0.642104 -0.210360
v -0.077035 -0.642104 -0.244516
v -0.067802 -0.639393 -0.277288
v -0.050084 -0.634190 -0.306021
v -0.025317 -0.626918 -0.328388
v 0.004494 -0.618165 -0.342577
v 0.036932 -0.608640 -0.347438
v 0.036932 -0.608640 -0.107438
v 0.014793 -0.634190 -0.112299
v -0.005553 -0.657671 -0.126488
v -0.022457 -0.677179 -0.148855
v -0.034550 -0.691135 -0.177588
v -0.040851 -0.698407 -0.210360
v -0.040851 -0.698407 -0.244516
v -0.034550 -0.691135 -0.277288
v -0.022457 -0.677179 -0.306021
v -0.005553 -0.657671 -0.328388
v 0.014793 -0.634190 -0.342577
v 0.036932 -0.608640 -0.347438
v 0.036932 -0.608640 -0.107438
v 0.032121 -0.642104 -0.112299
v 0.027699 -0.672857 -0.126488
v 0.024026 -0.698407 -0.148855
v 0.021398 -0.716685 -0.177588
v 0.020028 -0.726210 -0.210360
v 0.020028 -0.726210 -0.244516
v 0.021398 -0.716685 -0.277288
v 0.024026 -0.698407 -0.306021
v 0.027699 -0.672857 -0.328388
v 0.032121 -0.642104 -0.342577
v 0.036932 -0.608640 -0.347438
v 0.036932 -0.608640 -0.107438
v 0.050977 -0.639393 -0.112299
v 0.063883 -0.667654 -0.126488
v 0.074606 -0.691135 -0.148855
v 0.082277 -0.707932 -0.177588
v 0.086275 -0.716685 -0.210360
v 0.086275 -0.716685 -0.244516
v 0.082277 -0.707932 -0.277288
v 0.074606 -0.691135 -0.306021
v 0.063883 -0.667654 -0.328388
v 0.050977 -0.639393 -0.342577
v 0.036932 -0.608640 -0.347438
v 0.036932 -0.608640 -0.107438
v 0.065373 -0.626918 -0.112299
v 0.091510 -0.643715 -0.126488
v 0.113226 -0.657671 -0.148855
v 0.128760 -0.667654 -0.177588
v 0.136855 -0.672857 -0.210360
v 0.136855 -0.672857 -0.244516
v 0.128760 -0.667654 -0.277288
v 0.113226 -0.657671 -0.306021
v 0.091510 -0.643715 -0.328388
v 0.065373 -0.626918 -0.342577
v 0.036932 -0.608640 -0.347438
v 0.036932 -0.608640 -0.107438
v 0.070740 -0.608640 -0.112299
v 0.101809 -0.608640 -0.126488
v 0.127622 -0.608640 -0.148855
v 0.146088 -0.608640 -0.177588
v 0.155711 -0.608640 -0.210360
v 0.155711 -0.608640 -0.244516
v 0.146088 -0.608640 -0.277288
v 0.127622 -0.608640 -0.306021
v 0.101809 -0.608640 -0.328388
v 0.070740 -0.608640 -0.342577
v 0.036932 -0.608640 -0.347438
v 0.174799 -0.420613 -0.092599
v 0.176164 -0.444064 -0.084896
v 0.176373 -0.458558 -0.064870
v 0.175345 -0.458558 -0.040170
v 0.173474 -0.444064 -0.020231
v 0.171474 -0.420613 -0.012668
v 0.170109 -0.397162 -0.020371
v 0.169901 -0.382669 -0.040397
v 0.170928 -0.382669 -0.065097
v 0.172799 -0.397162 -0.085036
v -0.148866 -0.443875 -0.106062
v -0.147501 -0.467326 -0.098360
v -0.147293 -0.481820 -0.078334
v -0.148320 -0.481820 -0.053634
v -0.150191 -0.467326 -0.033694
v -0.152191 -0.443875 -0.026132
v -0.153556 -0.420424 -0.033834
v -0.153765 -0.405931 -0.053860
v -0.152737 -0.405931 -0.078560
v -0.150866 -0.420424 -0.098500
v 0.173137 -0.425517 -0.092332
v 0.150351 -0.418826 -0.085461
v 0.136269 -0.412818 -0.066051
v 0.136269 -0.409788 -0.041516
v 0.150351 -0.410892 -0.021228
v 0.173137 -0.415709 -0.012935
v 0.195922 -0.422400 -0.019806
v 0.210004 -0.428408 -0.039216
v 0.210004 -0.431439 -0.063751
v 0.195922 -0.430334 -0.084039
v 0.238073 -0.172238 -0.123618
v 0.215288 -0.165548 -0.116747
v 0.201206 -0.159539 -0.097338
v 0.201206 -0.156509 -0.072803
v 0.215288 -0.157613 -0.052514
v 0.238073 -0.162431 -0.044222
v 0.260859 -0.169121 -0.051093
v 0.274941 -0.175129 -0.070503
v 0.274941 -0.178160 -0.095037
v 0.260859 -0.177056 -0.115326
v 0.238073 -0.177870 -0.122508
v 0.214706 -0.173355 -0.115821
v 0.200263 -0.166540 -0.096950
v 0.200263 -0.160029 -0.073101
v 0.214706 -0.156308 -0.053385
v 0.238073 -0.156799 -0.045332
v 0.261441 -0.161314 -0.052019
v 0.275883 -0.168128 -0.070890
v 0.275883 -0.174639 -0.094739
v 0.261441 -0.178360 -0.114455
v 0.258939 0.003438 -0.172010
v 0.235572 0.007953 -0.165324
v 0.221129 0.014768 -0.146452
v 0.221129 0.021279 -0.122604
v 0.235572 0.025000 -0.102888
v 0.258939 0.024509 -0.094835
v 0.282307 0.019995 -0.101521
v 0.296749 0.013180 -0.120393
v 0.296749 0.006669 -0.144241
v 0.282307 0.002948 -0.163957
v -0.150529 -0.469056 -0.097177
v -0.169380 -0.475164 -0.082396
v -0.181030 -0.469321 -0.061390
v -0.181030 -0.453759 -0.042181
v -0.169380 -0.434421 -0.032108
v -0.150529 -0.418695 -0.035017
v -0.131678 -0.412586 -0.049798
v -0.120027 -0.418429 -0.070805
v -0.120027 -0.433992 -0.090013
v -0.131678 -0.453329 -0.100086
v -0.323109 -0.289150 -0.242935
v -0.341960 -0.295258 -0.228154
v -0.353611 -0.289415 -0.207148
v -0.353611 -0.273853 -0.187939
v -0.341960 -0.254515 -0.177866
v -0.323109 -0.238789 -0.180776
v -0.304258 -0.232681 -0.195556
v -0.292608 -0.238524 -0.216563
v -0.292608 -0.254086 -0.235771
v -0.304258 -0.273424 -0.245844
v -0.323109 -0.296014 -0.187914
v -0.342442 -0.297902 -0.203206
v -0.354390 -0.286830 -0.221801
v -0.354390 -0.267025 -0.236597
v -0.342442 -0.246053 -0.241943
v -0.323109 -0.231925 -0.235796
v -0.303777 -0.230037 -0.220505
v -0.291829 -0.241109 -0.201909
v -0.291829 -0.260914 -0.187113
v -0.303777 -0.281885 -0.181768
v -0.170231 -0.428217 -0.364866
v -0.189564 -0.430106 -0.380158
v -0.201512 -0.419033 -0.398753
v -0.201512 -0.399229 -0.413549
v -0.189564 -0.378257 -0.418895
v -0.170231 -0.364129 -0.412748
v -0.150899 -0.362240 -0.397457
v -0.138951 -0.373313 -0.378861
v -0.138951 -0.393117 -0.364065
v -0.150899 -0.414089 -0.358720
v 0.173137 -0.416200 -0.092389
v 0.149792 -0.419821 -0.085105
v 0.135364 -0.423745 -0.065418
v 0.135364 -0.426473 -0.040847
v 0.149792 -0.426962 -0.020779
v 0.173137 -0.425027 -0.012878
v 0.196481 -0.421405 -0.020162
v 0.210909 -0.417481 -0.039849
v 0.210909 -0.414754 -0.064420
v 0.196481 -0.414264 -0.084488
v 0.120501 0.020657 -0.043893
v 0.097157 0.017035 -0.036608
v 0.082729 0.013111 -0.016921
v 0.082729 0.010384 0.007649
v 0.097157 0.009894 0.027718
v 0.120501 0.011830 0.035619
v 0.143846 0.015451 0.028335
v 0.158274 0.019375 0.008647
v 0.158274 0.022103 -0.015923
v 0.143846 0.022592 -0.035992
v -0.150529 -0.437057 -0.105512
v -0.173977 -0.436670 -0.097692
v -0.188470 -0.439035 -0.077804
v -0.188470 -0.443248 -0.053444
v -0.173977 -0.447702 -0.033918
v -0.150529 -0.450693 -0.026682
v -0.127080 -0.451081 -0.034502
v -0.112588 -0.448716 -0.054390
v -0.112588 -0.444502 -0.078750
v -0.127080 -0.440049 -0.098276
v -0.119542 -0.019487 -0.033277
v -0.142991 -0.019099 -0.025457
v -0.157483 -0.021464 -0.005569
v -0.157483 -0.025678 0.018790
v -0.142991 -0.030131 0.038317
v -0.119542 -0.033123 0.045552
v -0.096093 -0.033510 0.037732
v -0.081601 -0.031145 0.017844
v -0.081601 -0.026931 -0.006515
v -0.096093 -0.022478 -0.026042
v 0.118791 0.016243 -0.044100
v 0.123214 -0.006908 -0.036643
v 0.126600 -0.021216 -0.016770
v 0.127658 -0.021216 0.007929
v 0.125981 -0.006908 0.028019
v 0.122212 0.016243 0.035826
v 0.117789 0.039395 0.028369
v 0.114402 0.053703 0.008496
v 0.113345 0.053703 -0.016203
v 0.115022 0.039395 -0.036293
v -0.121253 -0.026305 -0.033826
v -0.116830 -0.049456 -0.026369
v -0.113443 -0.063764 -0.006496
v -0.112386 -0.063764 0.018203
v -0.114062 -0.049456 0.038293
v -0.117832 -0.026305 0.046101
v -0.122254 -0.003154 0.038644
v -0.125641 0.011155 0.018771
v -0.126698 0.011155 -0.005928
v -0.125022 -0.003154 -0.026018
v 0.120501 0.007455 -0.043159
v 0.097128 0.006654 -0.035148
v 0.082682 0.009515 -0.015292
v 0.082682 0.014947 0.008825
v 0.097128 0.020874 0.027991
v 0.120501 0.025032 0.034886
v 0.143875 0.025833 0.026875
v 0.158321 0.022971 0.007018
v 0.158321 0.017540 -0.017099
v 0.143875 0.011613 -0.036265
v 0.104954 0.146934 -0.074573
v 0.081581 0.146133 -0.066562
v 0.067135 0.148995 -0.046706
v 0.067135 0.154427 -0.022589
v 0.081581 0.160354 -0.003422
v 0.104954 0.164512 0.003472
v 0.128328 0.165313 -0.004539
v 0.142774 0.162451 -0.024396
v 0.142774 0.157019 -0.048513
v 0.128328 0.151092 -0.067679
v 0.104954 0.175137 -0.070524
v 0.081631 0.174021 -0.062406
v 0.067216 0.165916 -0.044030
v 0.067216 0.153918 -0.022415
v 0.081631 0.142609 -0.005818
v 0.104954 0.136309 -0.000578
v 0.128278 0.137425 -0.008696
v 0.142693 0.145530 -0.027072
v 0.142693 0.157528 -0.048686
v 0.128278 0.168837 -0.065283
v 0.151981 0.498614 0.109040
v 0.128657 0.497499 0.117158
v 0.114242 0.489394 0.135533
v 0.114242 0.477396 0.157148
v 0.128657 0.466087 0.173745
v 0.151981 0.459787 0.178986
v 0.175305 0.460903 0.170867
v 0.189720 0.469007 0.152492
v 0.189720 0.481006 0.130877
v 0.175305 0.492314 0.114280
v -0.119542 -0.066303 0.006476
v -0.142927 -0.058644 0.008851
v -0.157379 -0.038632 0.010190
v -0.157379 -0.013911 0.009980
v -0.142927 0.006075 0.008303
v -0.119542 0.013694 0.005799
v -0.096158 0.006034 0.003424
v -0.081705 -0.013978 0.002086
v -0.081705 -0.038698 0.002295
v -0.096158 -0.058685 0.003972
v -0.141119 -0.068055 -0.200330
v -0.164503 -0.060395 -0.197956
v -0.178956 -0.040383 -0.196617
v -0.178956 -0.015662 -0.196827
v -0.164503 0.004324 -0.198504
v -0.141119 0.011942 -0.201008
v -0.117734 0.004283 -0.203383
v -0.103282 -0.015729 -0.204721
v -0.103282 -0.040450 -0.204512
v -0.117734 -0.060436 -0.202835
v -0.141119 -0.033928 -0.240236
v -0.164160 -0.028177 -0.233366
v -0.178400 -0.022380 -0.214008
v -0.178400 -0.018751 -0.189554
v -0.164160 -0.018676 -0.169346
v -0.141119 -0.022185 -0.161102
v -0.118078 -0.027936 -0.167972
v -0.103838 -0.033733 -0.187331
v -0.103838 -0.037361 -0.211784
v -0.118078 -0.037436 -0.231992
v -0.082809 0.250021 -0.282372
v -0.105850 0.255772 -0.275502
v -0.120090 0.261569 -0.256143
v -0.120090 0.265198 -0.231690
v -0.105850 0.265272 -0.211482
v -0.082809 0.261764 -0.203238
v -0.059768 0.256013 -0.210108
v -0.045528 0.250216 -0.229467
v -0.045528 0.246587 -0.253920
v -0.059768 0.246513 -0.274128
v -0.030558 0.083586 0.026480
v -0.034257 0.075361 0.024331
v -0.037725 0.070278 0.017397
v -0.039636 0.070278 0.008326
v -0.039261 0.075361 0.000582
v -0.036744 0.083586 -0.002876
v -0.033045 0.091810 -0.000727
v -0.029577 0.096894 0.006207
v -0.027666 0.096894 0.015278
v -0.028041 0.091810 0.023022
v 0.007649 0.068505 0.018429
v 0.003950 0.060280 0.016281
v 0.000483 0.055197 0.009347
v -0.001429 0.055197 0.000276
v -0.001054 0.060280 -0.007468
v 0.001464 0.068505 -0.010926
v 0.005163 0.076729 -0.008778
v 0.008630 0.081812 -0.001844
v 0.010542 0.081812 0.007227
v 0.010167 0.076729 0.014971
v 0.000510 0.068505 0.018195
v -0.000953 0.059999 0.014810
v -0.000312 0.054742 0.007201
v 0.002189 0.054742 -0.001726
v 0.005594 0.059999 -0.008560
v 0.008603 0.068505 -0.010692
v 0.010067 0.077010 -0.007307
v 0.009425 0.082267 0.000302
v 0.006925 0.082267 0.009229
v 0.003519 0.077010 0.016063
v 0.033394 0.059180 0.027408
v 0.031930 0.050675 0.024023
v 0.032571 0.045418 0.016414
v 0.035072 0.045418 0.007487
v 0.038478 0.050675 0.000652
v 0.041487 0.059180 -0.001480
v 0.042950 0.067686 0.001905
v 0.042309 0.072942 0.009514
v 0.039808 0.072942 0.018441
v 0.036403 0.067686 0.025276
v 0.037440 0.069824 0.023533
v 0.033437 0.062256 0.027089
v 0.030963 0.053513 0.025250
v 0.030963 0.046935 0.018717
v 0.033437 0.045034 0.009988
v 0.037440 0.048536 0.002395
v 0.041443 0.056104 -0.001161
v 0.043917 0.064847 0.000679
v 0.043917 0.071426 0.007211
v 0.041443 0.073327 0.015940
v 0.069091 0.058460 0.034978
v 0.065088 0.050892 0.038533
v 0.062614 0.042149 0.036694
v 0.062614 0.035571 0.030162
v 0.065088 0.033670 0.021432
v 0.069091 0.037172 0.013839
v 0.073094 0.044740 0.010283
v 0.075568 0.053483 0.012123
v 0.075568 0.060061 0.018655
v 0.073094 0.061962 0.027385
v 0.069091 0.061528 0.030491
v 0.063140 0.056271 0.035276
v 0.059462 0.047785 0.035910
v 0.059462 0.039311 0.032151
v 0.063140 0.034085 0.025434
v 0.069091 0.034105 0.018326
v 0.075041 0.039362 0.013541
v 0.078719 0.047848 0.012906
v 0.078719 0.056322 0.016666
v 0.075041 0.061547 0.023382
v 0.092748 0.052753 0.050271
v 0.086798 0.047496 0.055056
v 0.083120 0.039010 0.055690
v 0.083120 0.030536 0.051931
v 0.086798 0.025311 0.045214
v 0.092748 0.025330 0.038106
v 0.098699 0.030587 0.033321
v 0.102377 0.039073 0.032687
v 0.102377 0.047547 0.036446
v 0.098699 0.052772 0.043162
v -0.033651 0.083580 0.026802
v -0.040917 0.078588 0.023935
v -0.045408 0.075505 0.016434
v -0.045408 0.075508 0.007164
v -0.040917 0.078597 -0.000335
v -0.033651 0.083591 -0.003198
v -0.026385 0.088584 -0.000331
v -0.021894 0.091667 0.007170
v -0.021894 0.091664 0.016440
v -0.026385 0.088575 0.023939
v 0.021439 0.003413 0.026773
v 0.014172 -0.001579 0.023907
v 0.009681 -0.004662 0.016406
v 0.009681 -0.004659 0.007135
v 0.014172 -0.001570 -0.000364
v 0.021439 0.003424 -0.003227
v 0.028705 0.008417 -0.000360
v 0.033196 0.011500 0.007141
v 0.033196 0.011497 0.016411
v 0.028705 0.008408 0.023910
v 0.021439 0.003871 0.026766
v 0.012816 0.001945 0.023958
v 0.007487 0.000582 0.016496
v 0.007487 0.000303 0.007230
v 0.012816 0.001214 -0.000301
v 0.021439 0.002967 -0.003220
v 0.030061 0.004892 -0.000412
v 0.035390 0.006255 0.007050
v 0.035390 0.006535 0.016317
v 0.030061 0.005624 0.023847
v 0.027859 -0.026201 0.027673
v 0.019237 -0.028127 0.024865
v 0.013908 -0.029489 0.017403
v 0.013908 -0.029769 0.008137
v 0.019237 -0.028858 0.000606
v 0.027859 -0.027105 -0.002313
v 0.036482 -0.025179 0.000495
v 0.041811 -0.023816 0.007957
v 0.041811 -0.023537 0.017224
v 0.036482 -0.024448 0.024754
v 0.027859 -0.030173 0.027261
v 0.019153 -0.030852 0.024150
v 0.013772 -0.029927 0.016658
v 0.013772 -0.027752 0.007646
v 0.019153 -0.025156 0.000558
v 0.027859 -0.023133 -0.001901
v 0.036566 -0.022454 0.001210
v 0.041947 -0.023379 0.008702
v 0.041947 -0.025554 0.017714
v 0.036566 -0.028150 0.024803
v 0.031741 -0.053806 0.021556
v 0.023035 -0.054485 0.018445
v 0.017654 -0.053560 0.010952
v 0.017654 -0.051385 0.001941
v 0.023035 -0.048789 -0.005148
v 0.031741 -0.046766 -0.007607
v 0.040448 -0.046087 -0.004496
v 0.045829 -0.047012 0.002997
v 0.045829 -0.049187 0.012008
v 0.040448 -0.051783 0.019097
v 0.031741 -0.061728 0.016673
v 0.022933 -0.059791 0.014529
v 0.017489 -0.054223 0.009498
v 0.017489 -0.047151 0.003504
v 0.022933 -0.041277 -0.001165
v 0.031741 -0.038843 -0.002724
v 0.040550 -0.040781 -0.000580
v 0.045994 -0.046349 0.004451
v 0.045994 -0.053421 0.010445
v 0.040550 -0.059295 0.015114
v 0.032882 -0.078663 -0.003306
v 0.024073 -0.076726 -0.005450
v 0.018629 -0.071158 -0.010481
v 0.018629 -0.064086 -0.016475
v 0.024073 -0.058211 -0.021144
v 0.032882 -0.055778 -0.022703
v 0.041690 -0.057715 -0.020559
v 0.047134 -0.063283 -0.015528
v 0.047134 -0.070355 -0.009534
v 0.041690 -0.076230 -0.004865
v -0.033651 0.082559 0.026767
v -0.041866 0.079561 0.023690
v -0.046943 0.078101 0.016072
v -0.046943 0.078736 0.006823
v -0.041866 0.081223 -0.000524
v -0.033651 0.084613 -0.003163
v -0.025436 0.087610 -0.000086
v -0.020359 0.089071 0.007532
v -0.020359 0.088436 0.016781
v -0.025436 0.085948 0.024128
v 0.000646 -0.005254 0.020740
v -0.007569 -0.008252 0.017662
v -0.012646 -0.009712 0.010044
v -0.012646 -0.009077 0.000796
v -0.007569 -0.006590 -0.006551
v 0.000646 -0.003200 -0.009190
v 0.008862 -0.000203 -0.006113
v 0.013939 0.001258 0.001505
v 0.013939 0.000623 0.010754
v 0.008862 -0.001865 0.018101
v 0.000646 -0.013807 0.017317
v -0.007526 -0.014524 0.012999
v -0.012577 -0.011308 0.005922
v -0.012577 -0.005387 -0.001212
v -0.007526 0.000977 -0.005676
v 0.000646 0.005353 -0.005767
v 0.008819 0.006070 -0.001449
v 0.013869 0.002853 0.005628
v 0.013869 -0.003068 0.012761
v 0.008819 -0.009431 0.017226
v 0.014350 -0.039847 -0.004297
v 0.006177 -0.040564 -0.008615
v 0.001127 -0.037347 -0.015692
v 0.001127 -0.031426 -0.022825
v 0.006177 -0.025062 -0.027290
v 0.014350 -0.020686 -0.027381
v 0.022522 -0.019970 -0.023063
v 0.027573 -0.023186 -0.015986
v 0.027573 -0.029107 -0.008853
v 0.022522 -0.035471 -0.004388
v 0.014350 -0.042380 -0.024686
v 0.005568 -0.039600 -0.023636
v 0.000141 -0.033255 -0.019607
v 0.000141 -0.025768 -0.014139
v 0.005568 -0.020000 -0.009320
v 0.014350 -0.018154 -0.006992
v 0.023131 -0.020934 -0.008042
v 0.028558 -0.027279 -0.012071
v 0.028558 -0.034765 -0.017539
v 0.023131 -0.040533 -0.022358
v 0.016802 -0.026328 -0.046663
v 0.008021 -0.023548 -0.045612
v 0.002594 -0.017203 -0.041584
v 0.002594 -0.009717 -0.036116
v 0.008021 -0.003949 -0.031297
v 0.016802 -0.002102 -0.028969
v 0.025583 -0.004882 -0.030019
v 0.031010 -0.011227 -0.034048
v 0.031010 -0.018713 -0.039516
v 0.025583 -0.024481 -0.044335
v 0.016802 -0.017030 -0.052549
v 0.008026 -0.015655 -0.049896
v 0.002603 -0.013729 -0.042628
v 0.002603 -0.011989 -0.033522
v 0.008026 -0.011100 -0.026056
v 0.016802 -0.011400 -0.023082
v 0.025577 -0.012775 -0.025736
v 0.031001 -0.014700 -0.033004
v 0.031001 -0.016440 -0.042110
v 0.025577 -0.017330 -0.049575
v 0.018309 -0.001801 -0.055459
v 0.009533 -0.000425 -0.052806
v 0.004110 0.001500 -0.045538
v 0.004110 0.003240 -0.036432
v 0.009533 0.004130 -0.028966
v 0.018309 0.003830 -0.025993
v 0.027084 0.002454 -0.028646
v 0.032508 0.000529 -0.035914
v 0.032508 -0.001211 -0.045020
v 0.027084 -0.002101 -0.052486
v -0.033651 0.080440 0.026468
v -0.042260 0.079179 0.023268
v -0.047580 0.079601 0.015688
v -0.047580 0.081545 0.006624
v -0.042260 0.084269 -0.000463
v -0.033651 0.086732 -0.002864
v -0.025042 0.087993 0.000336
v -0.019722 0.087570 0.007916
v -0.019722 0.085626 0.016980
v -0.025042 0.082902 0.024067
v -0.013927 -0.006747 0.007767
v -0.022536 -0.008008 0.004566
v -0.027857 -0.007586 -0.003014
v -0.027857 -0.005642 -0.012078
v -0.022536 -0.002918 -0.019164
v -0.013927 -0.000455 -0.021566
v -0.005319 0.000806 -0.018366
v 0.000002 0.000383 -0.010786
v 0.000002 -0.001561 -0.001721
v -0.005319 -0.004285 0.005365
v -0.013927 -0.014624 0.003274
v -0.022539 -0.013802 -0.000059
v -0.027861 -0.009084 -0.006005
v -0.027861 -0.002272 -0.012293
v -0.022539 0.004033 -0.016521
v -0.013927 0.007421 -0.017074
v -0.005316 0.006599 -0.013740
v 0.000006 0.001881 -0.007794
v 0.000006 -0.004931 -0.001506
v -0.005316 -0.011235 0.002721
v -0.007254 -0.035225 -0.019045
v -0.015865 -0.034403 -0.022379
v -0.021187 -0.029685 -0.028325
v -0.021187 -0.022873 -0.034613
v -0.015865 -0.016568 -0.038840
v -0.007254 -0.013180 -0.039393
v 0.001358 -0.014002 -0.036060
v 0.006680 -0.018720 -0.030113
v 0.006680 -0.025532 -0.023826
v 0.001358 -0.031836 -0.019598
v -0.007254 -0.033377 -0.041086
v -0.015231 -0.028654 -0.041117
v -0.020161 -0.022230 -0.036602
v -0.020161 -0.016560 -0.029268
v -0.015231 -0.013809 -0.021915
v -0.007254 -0.015028 -0.017352
v 0.000723 -0.019751 -0.017322
v 0.005653 -0.026174 -0.021836
v 0.005653 -0.031844 -0.029170
v 0.000723 -0.034595 -0.036523
v 0.002915 -0.016287 -0.054298
v -0.005063 -0.011564 -0.054329
v -0.009993 -0.005140 -0.049814
v -0.009993 0.000530 -0.042480
v -0.005063 0.003281 -0.035127
v 0.002915 0.002062 -0.030564
v 0.010892 -0.002661 -0.030533
v 0.015822 -0.009084 -0.035048
v 0.015822 -0.014754 -0.042382
v 0.010892 -0.017505 -0.049735
v 0.002915 -0.007789 -0.057416
v -0.005822 -0.006474 -0.054607
v -0.011221 -0.005402 -0.047148
v -0.011221 -0.004984 -0.037887
v -0.005822 -0.005379 -0.030362
v 0.002915 -0.006436 -0.027446
v 0.011651 -0.007751 -0.030255
v 0.017051 -0.008822 -0.037714
v 0.017051 -0.009240 -0.046975
v 0.011651 -0.008846 -0.054500
v 0.005702 0.012703 -0.058341
v -0.003034 0.014018 -0.055532
v -0.008434 0.015089 -0.048073
v -0.008434 0.015507 -0.038812
v -0.003034 0.015113 -0.031287
v 0.005702 0.014056 -0.028371
v 0.014439 0.012741 -0.031180
v 0.019838 0.011670 -0.038639
v 0.019838 0.011251 -0.047900
v 0.014439 0.011646 -0.055425
v -0.033651 0.077824 0.025651
v -0.042460 0.078593 0.022868
v -0.047905 0.081268 0.015858
v -0.047905 0.084829 0.007299
v -0.042460 0.087915 0.000460
v -0.033651 0.089347 -0.002047
v -0.024842 0.088579 0.000736
v -0.019397 0.085903 0.007746
v -0.019397 0.082342 0.016305
v -0.024842 0.079257 0.023144
v -0.030332 0.002740 -0.005585
v -0.039142 0.003508 -0.008368
v -0.044586 0.006184 -0.015378
v -0.044586 0.009745 -0.023937
v -0.039142 0.012830 -0.030777
v -0.030332 0.014263 -0.033283
v -0.021523 0.013494 -0.030500
v -0.016078 0.010819 -0.023490
v -0.016078 0.007258 -0.014931
v -0.021523 0.004172 -0.008092
v -0.030332 0.000073 -0.007026
v -0.038544 -0.000971 -0.011199
v -0.043620 0.001603 -0.018517
v -0.043620 0.006812 -0.026185
v -0.038544 0.012666 -0.031275
v -0.030332 0.016930 -0.031842
v -0.022120 0.017974 -0.027670
v -0.017044 0.015400 -0.020352
v -0.017044 0.010191 -0.012683
v -0.022120 0.004336 -0.007593
v -0.022261 -0.017017 -0.018635
v -0.030474 -0.018061 -0.022807
v -0.035549 -0.015487 -0.030125
v -0.035549 -0.010278 -0.037794
v -0.030474 -0.004423 -0.042884
v -0.022261 -0.000160 -0.043451
v -0.014049 0.000884 -0.039278
v -0.008973 -0.001690 -0.031960
v -0.008973 -0.006899 -0.024292
v -0.014049 -0.012753 -0.019202
v -0.022261 -0.022193 -0.037362
v -0.029090 -0.017245 -0.041213
v -0.033310 -0.008991 -0.041180
v -0.033310 -0.000583 -0.037275
v -0.029090 0.004767 -0.030989
v -0.022261 0.005016 -0.024724
v -0.015433 0.000068 -0.020873
v -0.011212 -0.008186 -0.020906
v -0.011212 -0.016594 -0.024811
v -0.015433 -0.021944 -0.031097
v -0.008556 -0.015124 -0.052581
v -0.015384 -0.010176 -0.056432
v -0.019605 -0.001922 -0.056399
v -0.019605 0.006486 -0.052494
v -0.015384 0.011836 -0.046209
v -0.008556 0.012085 -0.039944
v -0.001727 0.007137 -0.036092
v 0.002493 -0.001117 -0.036125
v 0.002493 -0.009525 -0.040031
v -0.001727 -0.014875 -0.046316
v -0.008556 -0.004028 -0.061051
v -0.017237 -0.002031 -0.058484
v -0.022603 0.000161 -0.051249
v -0.022603 0.001711 -0.042109
v -0.017237 0.002028 -0.034555
v -0.008556 0.000989 -0.031474
v 0.000126 -0.001007 -0.034041
v 0.005491 -0.003199 -0.041276
v 0.005491 -0.004750 -0.050416
v 0.000126 -0.005066 -0.057969
v -0.005182 0.014734 -0.064233
v -0.013863 0.016730 -0.061666
v -0.019229 0.018922 -0.054431
v -0.019229 0.020473 -0.045291
v -0.013863 0.020789 -0.037738
v -0.005182 0.019750 -0.034656
v 0.003499 0.017754 -0.037223
v 0.008865 0.015562 -0.044458
v 0.008865 0.014012 -0.053598
v 0.003499 0.013695 -0.061152
f 1 2 13
f 2 14 13
f 2 3 14
f 3 15 14
f 3 4 15
f 4 16 15
f 4 5 16
f 5 17 16
f 5 6 17
f 6 18 17
f 6 7 18
f 7 19 18
f 7 8 19
f 8 20 19
f 8 9 20
f 9 21 20
f 9 10 21
f 10 22 21
f 10 11 22
f 11 23 22
f 11 12 23
f 12 24 23
f 13 14 25
f 14 26 25
f 14 15 26
f 15 27 26
f 15 16 27
f 16 28 27
f 16 17 28
f 17 29 28
f 17 18 29
f 18 30 29
f 18 19 30
f 19 31 30
f 19 20 31
f 20 32 31
f 20 21 32
f 21 33 32
f 21 22 33
f 22 34 33
f 22 23 34
f 23 35 34
f 23 24 35
f 24 36 35
f 25 26 37
f 26 38 37
f 26 27 38
f 27 39 38
f 27 28 39
f 28 40 39
f 28 29 40
f 29 41 40
f 29 30 41
f 30 42 41
f 30 31 42
f 31 43 42
f 31 32 43
f 32 44 43
f 32 33 44
f 33 45 44
f 33 34 45
f 34 46 45
f 34 35 46
f 35 47 46
f 35 36 47
f 36 48 47
f 37 38 49
f 38 50 49
f 38 39 50
f 39 51 50
f 39 40 51
f 40 52 51
f 40 41 52
f 41 53 52
f 41 42 53
f 42 54 53
f 42 43 54
f 43 55 54
f 43 44 55
f 44 56 55
f 44 45 56
f 45 57 56
f 45 46 57
f 46 58 57
f 46 47 58
f 47 59 58
f 47 48 59
f 48 60 59
f 49 50 61
f 50 62 61
f 50 51 62
f 51 63 62
f 51 52 63
f 52 64 63
f 52 53 64
f 53 65 64
f 53 54 65
f 54 66 65
f 54 55 66
f 55 67 66
f 55 56 67
f 56 68 67
f 56 57 68
f 57 69 68
f 57 58 69
f 58 70 69
f 58 59 70
f 59 71 70
f 59 60 71
f 60 72 71
f 61 62 73
f 62 74 73
f 62 63 74
f 63 75 74
f 63 64 75
f 64 76 75
f 64 65 76
f 65 77 76
f 65 66 77
f 66 78 77
f 66 67 78
f 67 79 78
f 67 68 79
f 68 80 79
f 68 69 80
f 69 81 80
f 69 70 81
f 70 82 81
f 70 71 82
f 71 83 82
f 71 72 83
f 72 84 83
f 73 74 85
f 74 86 85
f 74 75 86
f 75 87 86
f 75 76 87
f 76 88 87
f 76 77 88
f 77 89 88
f 77 78 89
f 78 90 89
f 78 79 90
f 79 91 90
f 79 80 91
f 80 92 91
f 80 81 92
f 81 93 92
f 81 82 93
f 82 94 93
f 82 83 94
f 83 95 94
f 83 84 95
f 84 96 95
f 85 86 97
f 86 98 97
f 86 87 98
f 87 99 98
f 87 88 99
f 88 100 99
f 88 89 100
f 89 101 100
f 89 90 101
f 90 102 101
f 90 91 102
f 91 103 102
f 91 92 103
f 92 104 103
f 92 93 104
f 93 105 104
f 93 94 105
f 94 106 105
f 94 95 106
f 95 107 106
f 95 96 107
f 96 108 107
f 97 98 109
f 98 110 109
f 98 99 110
f 99 111 110
f 99 100 111
f 100 112 111
f 100 101 112
f 101 113 112
f 101 102 113
f 102 114 113
f 102 103 114
f 103 115 114
f 103 104 115
f 104 116 115
f 104 105 116
f 105 117 116
f 105 106 117
f 106 118 117
f 106 107 118
f 107 119 118
f 107 108 119
f 108 120 119
f 109 110 121
f 110 122 121
f 110 111 122
f 111 123 122
f 111 112 123
f 112 124 123
f 112 113 124
f 113 125 124
f 113 114 125
f 114 126 125
f 114 115 126
f 115 127 126
f 115 116 127
f 116 128 127
f 116 117 128
f 117 129 128
f 117 118 129
f 118 130 129
f 118 119 130
f 119 131 130
f 119 120 131
f 120 132 131
f 121 122 133
f 122 134 133
f 122 123 134
f 123 135 134
f 123 124 135
f 124 136 135
f 124 125 136
f 125 137 136
f 125 126 137
f 126 138 137
f 126 127 138
f 127 139 138
f 127 128 139
f 128 140 139
f 128 129 140
f 129 141 140
f 129 130 141
f 130 142 141
f 130 131 142
f 131 143 142
f 131 132 143
f 132 144 143
f 145 146 155
f 146 156 155
f 146 147 156
f 147 157 156
f 147 148 157
f 148 158 157
f 148 149 158
f 149 159 158
f 149 150 159
f 150 160 159
f 150 151 160
f 151 161 160
f 151 152 161
f 152 162 161
f 152 153 162
f 153 163 162
f 153 154 163
f 154 164 163
f 154 145 164
f 145 155 164
f 165 166 175
f 166 176 175
f 166 167 176
f 167 177 176
f 167 168 177
f 168 178 177
f 168 169 178
f 169 179 178
f 169 170 179
f 170 180 179
f 170 171 180
f 171 181 180
f 171 172 181
f 172 182 181
f 172 173 182
f 173 183 182
f 173 174 183
f 174 184 183
f 174 165 184
f 165 175 184
f 185 186 195
f 186 196 195
f 186 187 196
f 187 197 196
f 187 188 197
f 188 198 197
f 188 189 198
f 189 199 198
f 189 190 199
f 190 200 199
f 190 191 200
f 191 201 200
f 191 192 201
f 192 202 201
f 192 193 202
f 193 203 202
f 193 194 203
f 194 204 203
f 194 185 204
f 185 195 204
f 205 206 215
f 206 216 215
f 206 207 216
f 207 217 216
f 207 208 217
f 208 218 217
f 208 209 218
f 209 219 218
f 209 210 219
f 210 220 219
f 210 211 220
f 211 221 220
f 211 212 221
f 212 222 221
f 212 213 222
f 213 223 222
f 213 214 223
f 214 224 223
f 214 205 224
f 205 215 224
f 225 226 235
f 226 236 235
f 226 227 236
f 227 237 236
f 227 228 237
f 228 238 237
f 228 229 238
f 229 239 238
f 229 230 239
f 230 240 239
f 230 231 240
f 231 241 240
f 231 232 241
f 232 242 241
f 232 233 242
f 233 243 242
f 233 234 243
f 234 244 243
f 234 225 244
f 225 235 244
f 245 246 255
f 246 256 255
f 246 247 256
f 247 257 256
f 247 248 257
f 248 258 257
f 248 249 258
f 249 259 258
f 249 250 259
f 250 260 259
f 250 251 260
f 251 261 260
f 251 252 261
f 252 262 261
f 252 253 262
f 253 263 262
f 253 254 263
f 254 264 263
f 254 245 264
f 245 255 264
f 265 266 275
f 266 276 275
f 266 267 276
f 267 277 276
f 267 268 277
f 268 278 277
f 268 269 278
f 269 279 278
f 269 270 279
f 270 280 279
f 270 271 280
f 271 281 280
f 271 272 281
f 272 282 281
f 272 273 282
f 273 283 282
f 273 274 283
f 274 284 283
f 274 265 284
f 265 275 284
f 285 286 295
f 286 296 295
f 286 287 296
f 287 297 296
f 287 288 297
f 288 298 297
f 288 289 298
f 289 299 298
f 289 290 299
f 290 300 299
f 290 291 300
f 291 301 300
f 291 292 301
f 292 302 301
f 292 293 302
f 293 303 302
f 293 294 303
f 294 304 303
f 294 285 304
f 285 295 304
f 305 306 315
f 306 316 315
f 306 307 316
f 307 317 316
f 307 308 317
f 308 318 317
f 308 309 318
f 309 319 318
f 309 310 319
f 310 320 319
f 310 311 320
f 311 321 320
f 311 312 321
f 312 322 321
f 312 313 322
f 313 323 322
f 313 314 323
f 314 324 323
f 314 305 324
f 305 315 324
f 325 326 335
f 326 336 335
f 326 327 336
f 327 337 336
f 327 328 337
f 328 338 337
f 328 329 338
f 329 339 338
f 329 330 339
f 330 340 339
f 330 331 340
f 331 341 340
f 331 332 341
f 332 342 341
f 332 333 342
f 333 343 342
f 333 334 343
f 334 344 343
f 334 325 344
f 325 335 344
f 345 346 355
f 346 356 355
f 346 347 356
f 347 357 356
f 347 348 357
f 348 358 357
f 348 349 358
f 349 359 358
f 349 350 359
f 350 360 359
f 350 351 360
f 351 361 360
f 351 352 361
f 352 362 361
f 352 353 362
f 353 363 362
f 353 354 363
f 354 364 363
f 354 345 364
f 345 355 364
f 365 366 375
f 366 376 375
f 366 367 376
f 367 377 376
f 367 368 377
f 368 378 377
f 368 369 378
f 369 379 378
f 369 370 379
f 370 380 379
f 370 371 380
f 371 381 380
f 371 372 381
f 372 382 381
f 372 373 382
f 373 383 382
f 373 374 383
f 374 384 383
f 374 365 384
f 365 375 384
f 385 386 395
f 386 396 395
f 386 387 396
f 387 397 396
f 387 388 397
f 388 398 397
f 388 389 398
f 389 399 398
f 389 390 399
f 390 400 399
f 390 391 400
f 391 401 400
f 391 392 401
f 392 402 401
f 392 393 402
f 393 403 402
f 393 394 403
f 394 404 403
f 394 385 404
f 385 395 404
f 405 406 415
f 406 416 415
f 406 407 416
f 407 417 416
f 407 408 417
f 408 418 417
f 408 409 418
f 409 419 418
f 409 410 419
f 410 420 419
f 410 411 420
f 411 421 420
f 411 412 421
f 412 422 421
f 412 413 422
f 413 423 422
f 413 414 423
f 414 424 423
f 414 405 424
f 405 415 424
f 425 426 435
f 426 436 435
f 426 427 436
f 427 437 436
f 427 428 437
f 428 438 437
f 428 429 438
f 429 439 438
f 429 430 439
f 430 440 439
f 430 431 440
f 431 441 440
f 431 432 441
f 432 442 441
f 432 433 442
f 433 443 442
f 433 434 443
f 434 444 443
f 434 425 444
f 425 435 444
f 445 446 455
f 446 456 455
f 446 447 456
f 447 457 456
f 447 448 457
f 448 458 457
f 448 449 458
f 449 459 458
f 449 450 459
f 450 460 459
f 450 451 460
f 451 461 460
f 451 452 461
f 452 462 461
f 452 453 462
f 453 463 462
f 453 454 463
f 454 464 463
f 454 445 464
f 445 455 464
f 465 466 475
f 466 476 475
f 466 467 476
f 467 477 476
f 467 468 477
f 468 478 477
f 468 469 478
f 469 479 478
f 469 470 479
f 470 480 479
f 470 471 480
f 471 481 480
f 471 472 481
f 472 482 481
f 472 473 482
f 473 483 482
f 473 474 483
f 474 484 483
f 474 465 484
f 465 475 484
f 485 486 495
f 486 496 495
f 486 487 496
f 487 497 496
f 487 488 497
f 488 498 497
f 488 489 498
f 489 499 498
f 489 490 499
f 490 500 499
f 490 491 500
f 491 501 500
f 491 492 501
f 492 502 501
f 492 493 502
f 493 503 502
f 493 494 503
f 494 504 503
f 494 485 504
f 485 495 504
f 505 506 515
f 506 516 515
f 506 507 516
f 507 517 516
f 507 508 517
f 508 518 517
f 508 509 518
f 509 519 518
f 509 510 519
f 510 520 519
f 510 511 520
f 511 521 520
f 511 512 521
f 512 522 521
f 512 513 522
f 513 523 522
f 513 514 523
f 514 524 523
f 514 505 524
f 505 515 524
f 525 526 535
f 526 536 535
f 526 527 536
f 527 537 536
f 527 528 537
f 528 538 537
f 528 529 538
f 529 539 538
f 529 530 539
f 530 540 539
f 530 531 540
f 531 541 540
f 531 532 541
f 532 542 541
f 532 533 542
f 533 543 542
f 533 534 543
f 534 544 543
f 534 525 544
f 525 535 544
f 545 546 555
f 546 556 555
f 546 547 556
f 547 557 556
f 547 548 557
f 548 558 557
f 548 549 558
f 549 559 558
f 549 550 559
f 550 560 559
f 550 551 560
f 551 561 560
f 551 552 561
f 552 562 561
f 552 553 562
f 553 563 562
f 553 554 563
f 554 564 563
f 554 545 564
f 545 555 564
f 565 566 575
f 566 576 575
f 566 567 576
f 567 577 576
f 567 568 577
f 568 578 577
f 568 569 578
f 569 579 578
f 569 570 579
f 570 580 579
f 570 571 580
f 571 581 580
f 571 572 581
f 572 582 581
f 572 573 582
f 573 583 582
f 573 574 583
f 574 584 583
f 574 565 584
f 565 575 584
f 585 586 595
f 586 596 595
f 586 587 596
f 587 597 596
f 587 588 597
f 588 598 597
f 588 589 598
f 589 599 598
f 589 590 599
f 590 600 599
f 590 591 600
f 591 601 600
f 591 592 601
f 592 602 601
f 592 593 602
f 593 603 602
f 593 594 603
f 594 604 603
f 594 585 604
f 585 595 604
f 605 606 615
f 606 616 615
f 606 607 616
f 607 617 616
f 607 608 617
f 608 618 617
f 608 609 618
f 609 619 618
f 609 610 619
f 610 620 619
f 610 611 620
f 611 621 620
f 611 612 621
f 612 622 621
f 612 613 622
f 613 623 622
f 613 614 623
f 614 624 623
f 614 605 624
f 605 615 624
f 625 626 635
f 626 636 635
f 626 627 636
f 627 637 636
f 627 628 637
f 628 638 637
f 628 629 638
f 629 639 638
f 629 630 639
f 630 640 639
f 630 631 640
f 631 641 640
f 631 632 641
f 632 642 641
f 632 633 642
f 633 643 642
f 633 634 643
f 634 644 643
f 634 625 644
f 625 635 644
f 645 646 655
f 646 656 655
f 646 647 656
f 647 657 656
f 647 648 657
f 648 658 657
f 648 649 658
f 649 659 658
f 649 650 659
f 650 660 659
f 650 651 660
f 651 661 660
f 651 652 661
f 652 662 661
f 652 653 662
f 653 663 662
f 653 654 663
f 654 664 663
f 654 645 664
f 645 655 664
f 665 666 675
f 666 676 675
f 666 667 676
f 667 677 676
f 667 668 677
f 668 678 677
f 668 669 678
f 669 679 678
f 669 670 679
f 670 680 679
f 670 671 680
f 671 681 680
f 671 672 681
f 672 682 681
f 672 673 682
f 673 683 682
f 673 674 683
f 674 684 683
f 674 665 684
f 665 675 684
f 685 686 695
f 686 696 695
f 686 687 696
f 687 697 696
f 687 688 697
f 688 698 697
f 688 689 698
f 689 699 698
f 689 690 699
f 690 700 699
f 690 691 700
f 691 701 700
f 691 692 701
f 692 702 701
f 692 693 702
f 693 703 702
f 693 694 703
f 694 704 703
f 694 685 704
f 685 695 704
f 705 706 715
f 706 716 715
f 706 707 716
f 707 717 716
f 707 708 717
f 708 718 717
f 708 709 718
f 709 719 718
f 709 710 719
f 710 720 719
f 710 711 720
f 711 721 720
f 711 712 721
f 712 722 721
f 712 713 722
f 713 723 722
f 713 714 723
f 714 724 723
f 714 705 724
f 705 715 724
f 725 726 735
f 726 736 735
f 726 727 736
f 727 737 736
f 727 728 737
f 728 738 737
f 728 729 738
f 729 739 738
f 729 730 739
f 730 740 739
f 730 731 740
f 731 741 740
f 731 732 741
f 732 742 741
f 732 733 742
f 733 743 742
f 733 734 743
f 734 744 743
f 734 725 744
f 725 735 744
f 745 746 755
f 746 756 755
f 746 747 756
f 747 757 756
f 747 748 757
f 748 758 757
f 748 749 758
f 749 759 758
f 749 750 759
f 750 760 759
f 750 751 760
f 751 761 760
f 751 752 761
f 752 762 761
f 752 753 762
f 753 763 762
f 753 754 763
f 754 764 763
f 754 745 764
f 745 755 764
f 765 766 775
f 766 776 775
f 766 767 776
f 767 777 776
f 767 768 777
f 768 778 777
f 768 769 778
f 769 779 778
f 769 770 779
f 770 780 779
f 770 771 780
f 771 781 780
f 771 772 781
f 772 782 781
f 772 773 782
f 773 783 782
f 773 774 783
f 774 784 783
f 774 765 784
f 765 775 784
