# Full-Body 3D Mesh - Frame 310
v 0.032354 -0.614877 -0.106143
v 0.066162 -0.614877 -0.111004
v 0.097231 -0.614877 -0.125193
v 0.123044 -0.614877 -0.147560
v 0.141510 -0.614877 -0.176293
v 0.151133 -0.614877 -0.209065
v 0.151133 -0.614877 -0.243221
v 0.141510 -0.614877 -0.275993
v 0.123044 -0.614877 -0.304726
v 0.097231 -0.614877 -0.327094
v 0.066162 -0.614877 -0.341282
v 0.032354 -0.614877 -0.346143
v 0.032354 -0.614877 -0.106143
v 0.060795 -0.596599 -0.111004
v 0.086932 -0.579802 -0.125193
v 0.108648 -0.565846 -0.147560
v 0.124182 -0.555863 -0.176293
v 0.132277 -0.550660 -0.209065
v 0.132277 -0.550660 -0.243221
v 0.124182 -0.555863 -0.275993
v 0.108648 -0.565846 -0.304726
v 0.086932 -0.579802 -0.327094
v 0.060795 -0.596599 -0.341282
v 0.032354 -0.614877 -0.346143
v 0.032354 -0.614877 -0.106143
v 0.046399 -0.584124 -0.111004
v 0.059305 -0.555863 -0.125193
v 0.070028 -0.532383 -0.147560
v 0.077699 -0.515585 -0.176293
v 0.081697 -0.506832 -0.209065
v 0.081697 -0.506832 -0.243221
v 0.077699 -0.515585 -0.275993
v 0.070028 -0.532383 -0.304726
v 0.059305 -0.555863 -0.327094
v 0.046399 -0.584124 -0.341282
v 0.032354 -0.614877 -0.346143
v 0.032354 -0.614877 -0.106143
v 0.027543 -0.581413 -0.111004
v 0.023121 -0.550660 -0.125193
v 0.019448 -0.525110 -0.147560
v 0.016820 -0.506832 -0.176293
v 0.015450 -0.497307 -0.209065
v 0.015450 -0.497307 -0.243221
v 0.016820 -0.506832 -0.275993
v 0.019448 -0.525110 -0.304726
v 0.023121 -0.550660 -0.327094
v 0.027543 -0.581413 -0.341282
v 0.032354 -0.614877 -0.346143
v 0.032354 -0.614877 -0.106143
v 0.010215 -0.589327 -0.111004
v -0.010131 -0.565846 -0.125193
v -0.027035 -0.546338 -0.147560
v -0.039128 -0.532383 -0.176293
v -0.045429 -0.525110 -0.209065
v -0.045429 -0.525110 -0.243221
v -0.039128 -0.532383 -0.275993
v -0.027035 -0.546338 -0.304726
v -0.010131 -0.565846 -0.327094
v 0.010215 -0.589327 -0.341282
v 0.032354 -0.614877 -0.346143
v 0.032354 -0.614877 -0.106143
v -0.000084 -0.605352 -0.111004
v -0.029895 -0.596599 -0.125193
v -0.054662 -0.589327 -0.147560
v -0.072380 -0.584124 -0.176293
v -0.081613 -0.581413 -0.209065
v -0.081613 -0.581413 -0.243221
v -0.072380 -0.584124 -0.275993
v -0.054662 -0.589327 -0.304726
v -0.029895 -0.596599 -0.327094
v -0.000084 -0.605352 -0.341282
v 0.032354 -0.614877 -0.346143
v 0.032354 -0.614877 -0.106143
v -0.000084 -0.624402 -0.111004
v -0.029895 -0.633155 -0.125193
v -0.054662 -0.640427 -0.147560
v -0.072380 -0.645630 -0.176293
v -0.081613 -0.648341 -0.209065
v -0.081613 -0.648341 -0.243221
v -0.072380 -0.645630 -0.275993
v -0.054662 -0.640427 -0.304726
v -0.029895 -0.633155 -0.327094
v -0.000084 -0.624402 -0.341282
v 0.032354 -0.614877 -0.346143
v 0.032354 -0.614877 -0.106143
v 0.010215 -0.640427 -0.111004
v -0.010131 -0.663908 -0.125193
v -0.027035 -0.683416 -0.147560
v -0.039128 -0.697372 -0.176293
v -0.045429 -0.704644 -0.209065
v -0.045429 -0.704644 -0.243221
v -0.039128 -0.697372 -0.275993
v -0.027035 -0.683416 -0.304726
v -0.010131 -0.663908 -0.327094
v 0.010215 -0.640427 -0.341282
v 0.032354 -0.614877 -0.346143
v 0.032354 -0.614877 -0.106143
v 0.027543 -0.648341 -0.111004
v 0.023121 -0.679094 -0.125193
v 0.019448 -0.704644 -0.147560
v 0.016820 -0.722922 -0.176293
v 0.015450 -0.732447 -0.209065
v 0.015450 -0.732447 -0.243221
v 0.016820 -0.722922 -0.275993
v 0.019448 -0.704644 -0.304726
v 0.023121 -0.679094 -0.327094
v 0.027543 -0.648341 -0.341282
v 0.032354 -0.614877 -0.346143
v 0.032354 -0.614877 -0.106143
v 0.046399 -0.645630 -0.111004
v 0.059305 -0.673891 -0.125193
v 0.070028 -0.697372 -0.147560
v 0.077699 -0.714169 -0.176293
v 0.081697 -0.722922 -0.209065
v 0.081697 -0.722922 -0.243221
v 0.077699 -0.714169 -0.275993
v 0.070028 -0.697372 -0.304726
v 0.059305 -0.673891 -0.327094
v 0.046399 -0.645630 -0.341282
v 0.032354 -0.614877 -0.346143
v 0.032354 -0.614877 -0.106143
v 0.060795 -0.633155 -0.111004
v 0.086932 -0.649952 -0.125193
v 0.108648 -0.663908 -0.147560
v 0.124182 -0.673891 -0.176293
v 0.132277 -0.679094 -0.209065
v 0.132277 -0.679094 -0.243221
v 0.124182 -0.673891 -0.275993
v 0.108648 -0.663908 -0.304726
v 0.086932 -0.649952 -0.327094
v 0.060795 -0.633155 -0.341282
v 0.032354 -0.614877 -0.346143
v 0.032354 -0.614877 -0.106143
v 0.066162 -0.614877 -0.111004
v 0.097231 -0.614877 -0.125193
v 0.123044 -0.614877 -0.147560
v 0.141510 -0.614877 -0.176293
v 0.151133 -0.614877 -0.209065
v 0.151133 -0.614877 -0.243221
v 0.141510 -0.614877 -0.275993
v 0.123044 -0.614877 -0.304726
v 0.097231 -0.614877 -0.327094
v 0.066162 -0.614877 -0.341282
v 0.032354 -0.614877 -0.346143
v 0.173761 -0.423809 -0.095907
v 0.175285 -0.447274 -0.088277
v 0.176329 -0.461776 -0.068284
v 0.176495 -0.461776 -0.043563
v 0.175720 -0.447274 -0.023558
v 0.174298 -0.423809 -0.015908
v 0.172774 -0.400343 -0.023538
v 0.171730 -0.385841 -0.043531
v 0.171564 -0.385841 -0.068252
v 0.172339 -0.400343 -0.088258
v -0.152269 -0.444271 -0.093716
v -0.150745 -0.467736 -0.086087
v -0.149701 -0.482239 -0.066093
v -0.149535 -0.482239 -0.041373
v -0.150310 -0.467736 -0.021367
v -0.151732 -0.444271 -0.013718
v -0.153256 -0.420806 -0.021347
v -0.154300 -0.406303 -0.041341
v -0.154466 -0.406303 -0.066061
v -0.153691 -0.420806 -0.086067
v 0.174029 -0.429164 -0.095547
v 0.151274 -0.422279 -0.088769
v 0.137211 -0.415978 -0.069438
v 0.137211 -0.412668 -0.044940
v 0.151274 -0.413614 -0.024630
v 0.174029 -0.418453 -0.016268
v 0.196785 -0.425338 -0.023046
v 0.210848 -0.431639 -0.042377
v 0.210848 -0.434949 -0.066876
v 0.196785 -0.434003 -0.087185
v 0.240532 -0.175657 -0.129796
v 0.217777 -0.168772 -0.123017
v 0.203713 -0.162471 -0.103686
v 0.203713 -0.159162 -0.079188
v 0.217777 -0.160107 -0.058878
v 0.240532 -0.164947 -0.050516
v 0.263287 -0.171832 -0.057294
v 0.277350 -0.178133 -0.076625
v 0.277350 -0.181442 -0.101124
v 0.263287 -0.180497 -0.121433
v 0.240532 -0.180559 -0.128818
v 0.217150 -0.176217 -0.122066
v 0.202699 -0.169616 -0.103126
v 0.202699 -0.163277 -0.079231
v 0.217150 -0.159621 -0.059509
v 0.240532 -0.160045 -0.051493
v 0.263913 -0.164387 -0.058245
v 0.278364 -0.170988 -0.077185
v 0.278364 -0.177327 -0.101080
v 0.263913 -0.180983 -0.120802
v 0.259879 -0.003203 -0.175871
v 0.236497 0.001138 -0.169119
v 0.222047 0.007740 -0.150179
v 0.222047 0.014079 -0.126284
v 0.236497 0.017735 -0.106562
v 0.259879 0.017311 -0.098546
v 0.283261 0.012969 -0.105298
v 0.297712 0.006368 -0.124238
v 0.297712 0.000028 -0.148133
v 0.283261 -0.003627 -0.167855
v -0.152001 -0.468364 -0.085647
v -0.171072 -0.474739 -0.071267
v -0.182859 -0.469476 -0.050183
v -0.182859 -0.454585 -0.030449
v -0.171072 -0.435755 -0.019603
v -0.152001 -0.420178 -0.021787
v -0.132929 -0.413803 -0.036167
v -0.121142 -0.419066 -0.057251
v -0.121142 -0.433957 -0.076985
v -0.132929 -0.452787 -0.087831
v -0.325995 -0.275722 -0.231009
v -0.345066 -0.282096 -0.216629
v -0.356853 -0.276833 -0.195545
v -0.356853 -0.261943 -0.175811
v -0.345066 -0.243113 -0.164965
v -0.325995 -0.227535 -0.167149
v -0.306923 -0.221161 -0.181529
v -0.295137 -0.226424 -0.202613
v -0.295137 -0.241314 -0.222347
v -0.306923 -0.260144 -0.233193
v -0.325995 -0.284866 -0.176824
v -0.345701 -0.285653 -0.191730
v -0.357880 -0.273444 -0.209443
v -0.357880 -0.252902 -0.223197
v -0.345701 -0.231874 -0.227739
v -0.325995 -0.218391 -0.221334
v -0.306289 -0.217604 -0.206428
v -0.294109 -0.229813 -0.188715
v -0.294109 -0.250355 -0.174961
v -0.306289 -0.271383 -0.170419
v -0.179735 -0.409918 -0.363582
v -0.199442 -0.410705 -0.378488
v -0.211621 -0.398497 -0.396201
v -0.211621 -0.377955 -0.409956
v -0.199442 -0.356927 -0.414498
v -0.179735 -0.343444 -0.408093
v -0.160029 -0.342657 -0.393187
v -0.147850 -0.354866 -0.375474
v -0.147850 -0.375408 -0.361719
v -0.160029 -0.396436 -0.357177
v 0.174029 -0.419298 -0.095652
v 0.150689 -0.422972 -0.088381
v 0.136264 -0.426965 -0.068706
v 0.136264 -0.429753 -0.044142
v 0.150689 -0.430270 -0.024072
v 0.174029 -0.428319 -0.016163
v 0.197370 -0.424645 -0.023434
v 0.211795 -0.420652 -0.043109
v 0.211795 -0.417864 -0.067673
v 0.197370 -0.417347 -0.087743
v 0.120389 0.020240 -0.045771
v 0.097049 0.016566 -0.038500
v 0.082623 0.012573 -0.018825
v 0.082623 0.009785 0.005739
v 0.097049 0.009268 0.025809
v 0.120389 0.011219 0.033718
v 0.143729 0.014893 0.026447
v 0.158155 0.018886 0.006772
v 0.158155 0.021673 -0.017792
v 0.143729 0.022191 -0.037862
v -0.152001 -0.438480 -0.093295
v -0.175443 -0.437807 -0.085476
v -0.189931 -0.439603 -0.065526
v -0.189931 -0.443183 -0.041065
v -0.175443 -0.447178 -0.021437
v -0.152001 -0.450062 -0.014138
v -0.128558 -0.450735 -0.021958
v -0.114070 -0.448939 -0.041908
v -0.114070 -0.445359 -0.066369
v -0.128558 -0.441364 -0.085997
v -0.119580 -0.020138 -0.032081
v -0.143023 -0.019466 -0.024262
v -0.157511 -0.021262 -0.004312
v -0.157511 -0.024841 0.020149
v -0.143023 -0.028836 0.039778
v -0.119580 -0.031721 0.047076
v -0.096137 -0.032394 0.039257
v -0.081649 -0.030597 0.019307
v -0.081649 -0.027018 -0.005154
v -0.096137 -0.023023 -0.024782
v 0.118138 0.015729 -0.045963
v 0.122577 -0.007437 -0.038562
v 0.126180 -0.021754 -0.018733
v 0.127571 -0.021754 0.005949
v 0.126219 -0.007437 0.026057
v 0.122640 0.015729 0.033910
v 0.118201 0.038895 0.026509
v 0.114598 0.053213 0.006680
v 0.113207 0.053213 -0.018002
v 0.114559 0.038895 -0.038110
v -0.121831 -0.025930 -0.032439
v -0.117392 -0.049096 -0.025038
v -0.113789 -0.063413 -0.005209
v -0.112398 -0.063413 0.019473
v -0.113750 -0.049096 0.039581
v -0.117329 -0.025930 0.047434
v -0.121768 -0.002764 0.040033
v -0.125371 0.011554 0.020204
v -0.126762 0.011554 -0.004478
v -0.125410 -0.002764 -0.024586
v 0.120389 0.006450 -0.044935
v 0.096885 0.007651 -0.037368
v 0.082359 0.011938 -0.017830
v 0.082359 0.017673 0.006217
v 0.096885 0.022666 0.025588
v 0.120389 0.025009 0.032882
v 0.143893 0.023807 0.025315
v 0.158419 0.019520 0.005777
v 0.158419 0.013785 -0.018270
v 0.143893 0.008793 -0.037640
v 0.116944 0.140675 -0.076947
v 0.093440 0.141876 -0.069380
v 0.078914 0.146163 -0.049841
v 0.078914 0.151898 -0.025794
v 0.093440 0.156891 -0.006424
v 0.116944 0.159234 0.000871
v 0.140448 0.158032 -0.006696
v 0.154974 0.153745 -0.026235
v 0.154974 0.148010 -0.050282
v 0.140448 0.143018 -0.069652
v 0.116944 0.170488 -0.072366
v 0.093559 0.168654 -0.064561
v 0.079106 0.159678 -0.046625
v 0.079106 0.146987 -0.025410
v 0.093559 0.135430 -0.009018
v 0.116944 0.129421 -0.003711
v 0.140329 0.131255 -0.011516
v 0.154782 0.140231 -0.029451
v 0.154782 0.152921 -0.050667
v 0.140329 0.164478 -0.067059
v 0.156257 0.494769 0.121606
v 0.132871 0.492935 0.129411
v 0.118418 0.483959 0.147347
v 0.118418 0.471269 0.168563
v 0.132871 0.459712 0.184955
v 0.156257 0.453702 0.190262
v 0.179642 0.455536 0.182457
v 0.194095 0.464512 0.164521
v 0.194095 0.477202 0.143305
v 0.179642 0.488759 0.126914
v -0.119580 -0.065824 0.010401
v -0.143025 -0.058077 0.011612
v -0.157514 -0.038050 0.011251
v -0.157514 -0.013394 0.009456
v -0.143025 0.006474 0.006914
v -0.119580 0.013965 0.004594
v -0.096135 0.006217 0.003384
v -0.081646 -0.013809 0.003745
v -0.081646 -0.038466 0.005539
v -0.096135 -0.058333 0.008082
v -0.136922 -0.082502 -0.218764
v -0.160367 -0.074755 -0.217554
v -0.174857 -0.054728 -0.217915
v -0.174857 -0.030072 -0.219709
v -0.160367 -0.010204 -0.222251
v -0.136922 -0.002713 -0.224571
v -0.113478 -0.010461 -0.225781
v -0.098988 -0.030488 -0.225420
v -0.098988 -0.055144 -0.223626
v -0.113478 -0.075012 -0.221083
v -0.136922 -0.048392 -0.261247
v -0.160004 -0.042859 -0.254335
v -0.174269 -0.037230 -0.234945
v -0.174269 -0.033655 -0.210484
v -0.160004 -0.033500 -0.190294
v -0.136922 -0.036824 -0.182088
v -0.113841 -0.042357 -0.189000
v -0.099576 -0.047986 -0.208389
v -0.099576 -0.051561 -0.232851
v -0.113841 -0.051716 -0.253041
v -0.080771 0.238165 -0.303126
v -0.103853 0.243698 -0.296214
v -0.118118 0.249327 -0.276824
v -0.118118 0.252902 -0.252363
v -0.103853 0.253057 -0.232173
v -0.080771 0.249733 -0.223967
v -0.057690 0.244200 -0.230879
v -0.043425 0.238571 -0.250269
v -0.043425 0.234996 -0.274730
v -0.057690 0.234841 -0.294920
v -0.037561 0.076021 -0.011702
v -0.040188 0.067523 -0.014311
v -0.042399 0.062270 -0.021623
v -0.043349 0.062270 -0.030845
v -0.042675 0.067523 -0.038454
v -0.040634 0.076021 -0.041544
v -0.038007 0.084520 -0.038935
v -0.035796 0.089773 -0.031623
v -0.034847 0.089773 -0.022401
v -0.035521 0.084520 -0.014792
v 0.003280 0.064687 -0.015908
v 0.000653 0.056188 -0.018517
v -0.001558 0.050936 -0.025829
v -0.002507 0.050936 -0.035051
v -0.001833 0.056188 -0.042660
v 0.000207 0.064687 -0.045750
v 0.002834 0.073186 -0.043141
v 0.005045 0.078439 -0.035829
v 0.005995 0.078439 -0.026607
v 0.005321 0.073186 -0.018998
v 0.001744 0.070850 -0.017154
v -0.003796 0.063420 -0.016947
v -0.007220 0.056474 -0.022043
v -0.007220 0.052665 -0.030495
v -0.003796 0.053448 -0.039074
v 0.001744 0.058524 -0.044504
v 0.007283 0.065954 -0.044711
v 0.010707 0.072901 -0.039615
v 0.010707 0.076710 -0.031163
v 0.007283 0.075927 -0.022584
v 0.033144 0.047730 -0.006734
v 0.027604 0.040299 -0.006527
v 0.024181 0.033353 -0.011623
v 0.024181 0.029544 -0.020075
v 0.027604 0.030327 -0.028654
v 0.033144 0.035403 -0.034084
v 0.038684 0.042834 -0.034291
v 0.042108 0.049780 -0.029195
v 0.042108 0.053589 -0.020743
v 0.038684 0.052806 -0.012164
v 0.033144 0.049137 -0.007459
v 0.026312 0.042879 -0.007120
v 0.022090 0.036121 -0.011857
v 0.022090 0.031442 -0.019860
v 0.026312 0.030631 -0.028073
v 0.033144 0.033996 -0.033359
v 0.039976 0.040254 -0.033698
v 0.044198 0.047012 -0.028962
v 0.044198 0.051691 -0.020958
v 0.039976 0.052502 -0.012745
v 0.057066 0.023820 0.007340
v 0.050234 0.017563 0.007679
v 0.046011 0.010804 0.002943
v 0.046011 0.006126 -0.005060
v 0.050234 0.005314 -0.013274
v 0.057066 0.008680 -0.018559
v 0.063898 0.014937 -0.018899
v 0.068120 0.021696 -0.014162
v 0.068120 0.026374 -0.006159
v 0.063898 0.027186 0.002054
v 0.057066 0.025874 0.005896
v 0.049885 0.020112 0.006981
v 0.045446 0.012875 0.003256
v 0.045446 0.006927 -0.003855
v 0.049885 0.004540 -0.011636
v 0.057066 0.006626 -0.017115
v 0.064247 0.012387 -0.018200
v 0.068685 0.019624 -0.014475
v 0.068685 0.025572 -0.007365
v 0.064247 0.027960 0.000417
v 0.077756 0.003595 0.024532
v 0.070574 -0.002167 0.025616
v 0.066136 -0.009404 0.021892
v 0.066136 -0.015352 0.014781
v 0.070574 -0.017739 0.007000
v 0.077756 -0.015653 0.001521
v 0.084937 -0.009891 0.000436
v 0.089375 -0.002655 0.004160
v 0.089375 0.003294 0.011271
v 0.084937 0.005681 0.019052
v -0.039098 0.082141 -0.012928
v -0.045708 0.075645 -0.013163
v -0.049793 0.069294 -0.018540
v -0.049793 0.065511 -0.027004
v -0.045708 0.065744 -0.035322
v -0.039098 0.069902 -0.040318
v -0.032487 0.076397 -0.040083
v -0.028402 0.082749 -0.034706
v -0.028402 0.086531 -0.026243
v -0.032487 0.086299 -0.017924
v 0.027168 0.013595 0.017702
v 0.020558 0.007099 0.017467
v 0.016473 0.000748 0.012090
v 0.016473 -0.003035 0.003626
v 0.020558 -0.002802 -0.004692
v 0.027168 0.001356 -0.009688
v 0.033779 0.007851 -0.009453
v 0.037864 0.014203 -0.004076
v 0.037864 0.017985 0.004387
v 0.033779 0.017753 0.012706
v 0.027168 -0.005407 0.011690
v 0.019087 -0.004753 0.007194
v 0.014093 0.000572 0.001481
v 0.014093 0.008534 -0.003268
v 0.019087 0.016092 -0.005238
v 0.027168 0.020358 -0.003676
v 0.035249 0.019704 0.000819
v 0.040244 0.014379 0.006533
v 0.040244 0.006417 0.011281
v 0.035249 -0.001141 0.013251
v 0.038434 -0.018632 -0.010484
v 0.030353 -0.017978 -0.014980
v 0.025359 -0.012653 -0.020693
v 0.025359 -0.004691 -0.025441
v 0.030353 0.002867 -0.027411
v 0.038434 0.007134 -0.025850
v 0.046515 0.006479 -0.021355
v 0.051509 0.001154 -0.015641
v 0.051509 -0.006808 -0.010893
v 0.046515 -0.014365 -0.008923
v 0.038434 -0.017229 -0.027822
v 0.030182 -0.017035 -0.023602
v 0.025082 -0.012530 -0.017306
v 0.025082 -0.005435 -0.011339
v 0.030182 0.001540 -0.007980
v 0.038434 0.005731 -0.008512
v 0.046686 0.005537 -0.012732
v 0.051786 0.001032 -0.019028
v 0.051786 -0.006063 -0.024995
v 0.046686 -0.013038 -0.028354
v 0.033485 -0.008762 -0.037890
v 0.025233 -0.008568 -0.033670
v 0.020133 -0.004063 -0.027374
v 0.020133 0.003032 -0.021407
v 0.025233 0.010007 -0.018048
v 0.033485 0.014198 -0.018580
v 0.041737 0.014004 -0.022800
v 0.046837 0.009499 -0.029096
v 0.046837 0.002404 -0.035063
v 0.041737 -0.004571 -0.038422
v 0.033485 0.006174 -0.042831
v 0.025633 0.001613 -0.040968
v 0.020780 -0.002527 -0.034240
v 0.020780 -0.004663 -0.025219
v 0.025633 -0.003980 -0.017350
v 0.033485 -0.000738 -0.013639
v 0.041337 0.003823 -0.015502
v 0.046190 0.007963 -0.022230
v 0.046190 0.010099 -0.031251
v 0.041337 0.009416 -0.039120
v 0.022610 0.026899 -0.037924
v 0.014758 0.022337 -0.036060
v 0.009905 0.018197 -0.029333
v 0.009905 0.016061 -0.020312
v 0.014758 0.016744 -0.012443
v 0.022610 0.019986 -0.008731
v 0.030462 0.024548 -0.010595
v 0.035315 0.028687 -0.017322
v 0.035315 0.030823 -0.026343
v 0.030462 0.030140 -0.034212
v -0.039098 0.082072 -0.012898
v -0.047032 0.077398 -0.013968
v -0.051936 0.072199 -0.019872
v -0.051936 0.068459 -0.028355
v -0.047032 0.067608 -0.036176
v -0.039098 0.069971 -0.040349
v -0.031163 0.074645 -0.039278
v -0.026260 0.079844 -0.033374
v -0.026260 0.083584 -0.024891
v -0.031163 0.084435 -0.017070
v 0.002391 0.003730 0.021637
v -0.005543 -0.000944 0.020567
v -0.010447 -0.006143 0.014663
v -0.010447 -0.009883 0.006180
v -0.005543 -0.010734 -0.001641
v 0.002391 -0.008371 -0.005814
v 0.010326 -0.003697 -0.004743
v 0.015229 0.001502 0.001161
v 0.015229 0.005242 0.009644
v 0.010326 0.006093 0.017465
v 0.002391 -0.015770 0.014554
v -0.005832 -0.014609 0.010435
v -0.010915 -0.008754 0.005352
v -0.010915 -0.000442 0.001248
v -0.005832 0.007153 -0.000312
v 0.002391 0.011129 0.001270
v 0.010615 0.009968 0.005389
v 0.015698 0.004113 0.010471
v 0.015698 -0.004199 0.014576
v 0.010615 -0.011794 0.016136
v 0.016852 -0.032333 -0.018988
v 0.008628 -0.031172 -0.023106
v 0.003545 -0.025318 -0.028189
v 0.003545 -0.017005 -0.032294
v 0.008628 -0.009411 -0.033853
v 0.016852 -0.005435 -0.032271
v 0.025075 -0.006596 -0.028152
v 0.030158 -0.012450 -0.023070
v 0.030158 -0.020763 -0.018965
v 0.025075 -0.028357 -0.017406
v 0.016852 -0.026491 -0.038558
v 0.008131 -0.026158 -0.035429
v 0.002742 -0.023047 -0.028558
v 0.002742 -0.018346 -0.020568
v 0.008131 -0.013850 -0.014511
v 0.016852 -0.011277 -0.012701
v 0.025572 -0.011610 -0.015829
v 0.030962 -0.014721 -0.022701
v 0.030962 -0.019422 -0.030691
v 0.025572 -0.023918 -0.036748
v 0.012487 -0.001254 -0.053406
v 0.003767 -0.000921 -0.050278
v -0.001623 0.002190 -0.043406
v -0.001623 0.006891 -0.035416
v 0.003767 0.011386 -0.029359
v 0.012487 0.013959 -0.027549
v 0.021208 0.013627 -0.030678
v 0.026597 0.010516 -0.037549
v 0.026597 0.005815 -0.045539
v 0.021208 0.001319 -0.051596
v 0.012487 0.017700 -0.050288
v 0.004134 0.013687 -0.050549
v -0.001028 0.006873 -0.046964
v -0.001028 -0.000140 -0.040901
v 0.004134 -0.004673 -0.034676
v 0.012487 -0.004994 -0.030668
v 0.020840 -0.000981 -0.030406
v 0.026002 0.005833 -0.033992
v 0.026002 0.012846 -0.040055
v 0.020840 0.017379 -0.046279
v 0.004069 0.033995 -0.031440
v -0.004284 0.029982 -0.031701
v -0.009446 0.023168 -0.028116
v -0.009446 0.016155 -0.022053
v -0.004284 0.011622 -0.015828
v 0.004069 0.011301 -0.011819
v 0.012422 0.015313 -0.011558
v 0.017584 0.022128 -0.015144
v 0.017584 0.029141 -0.021207
v 0.012422 0.033674 -0.027431
v -0.039098 0.080460 -0.012295
v -0.047675 0.077661 -0.014427
v -0.052975 0.074236 -0.021217
v -0.052975 0.071492 -0.030073
v -0.047675 0.070479 -0.037610
v -0.039098 0.071582 -0.040951
v -0.030521 0.074382 -0.038819
v -0.025220 0.077807 -0.032029
v -0.025220 0.080551 -0.023174
v -0.030521 0.081564 -0.015636
v -0.018474 -0.002244 0.013328
v -0.027051 -0.005044 0.011196
v -0.032352 -0.008469 0.004406
v -0.032352 -0.011213 -0.004449
v -0.027051 -0.012226 -0.011987
v -0.018474 -0.011123 -0.015328
v -0.009898 -0.008323 -0.013196
v -0.004597 -0.004898 -0.006406
v -0.004597 -0.002154 0.002450
v -0.009898 -0.001141 0.009987
v -0.018474 -0.020772 0.004149
v -0.026603 -0.019254 -0.000043
v -0.031626 -0.012934 -0.004600
v -0.031626 -0.004227 -0.007782
v -0.026603 0.003542 -0.008374
v -0.018474 0.007405 -0.006149
v -0.010346 0.005887 -0.001957
v -0.005323 -0.000433 0.002600
v -0.005323 -0.009140 0.005783
v -0.010346 -0.016909 0.006374
v -0.004986 -0.031789 -0.025996
v -0.013114 -0.030271 -0.030188
v -0.018137 -0.023952 -0.034745
v -0.018137 -0.015245 -0.037928
v -0.013114 -0.007476 -0.038519
v -0.004986 -0.003612 -0.036294
v 0.003142 -0.005130 -0.032102
v 0.008166 -0.011450 -0.027545
v 0.008166 -0.020157 -0.024363
v 0.003142 -0.027926 -0.023771
v -0.004986 -0.024793 -0.044362
v -0.013801 -0.023285 -0.041921
v -0.019249 -0.019643 -0.035363
v -0.019249 -0.015260 -0.027195
v -0.013801 -0.011809 -0.020535
v -0.004986 -0.010608 -0.017928
v 0.003829 -0.012117 -0.020369
v 0.009277 -0.015759 -0.026927
v 0.009277 -0.020142 -0.035096
v 0.003829 -0.023593 -0.041755
v -0.004436 -0.000397 -0.057454
v -0.013251 0.001112 -0.055012
v -0.018699 0.004754 -0.048455
v -0.018699 0.009137 -0.040286
v -0.013251 0.012588 -0.033626
v -0.004436 0.013788 -0.031019
v 0.004379 0.012280 -0.033461
v 0.009827 0.008638 -0.040018
v 0.009827 0.004255 -0.048187
v 0.004379 0.000804 -0.054847
v -0.004436 0.013305 -0.057702
v -0.012842 0.009654 -0.056303
v -0.018037 0.004874 -0.050295
v -0.018037 0.000789 -0.041972
v -0.012842 -0.001039 -0.034515
v -0.004436 0.000087 -0.030771
v 0.003970 0.003738 -0.032171
v 0.009165 0.008518 -0.038179
v 0.009165 0.012603 -0.046501
v 0.003970 0.014431 -0.053958
v -0.012007 0.034776 -0.047164
v -0.020412 0.031126 -0.045765
v -0.025607 0.026345 -0.039756
v -0.025607 0.022260 -0.031434
v -0.020412 0.020432 -0.023977
v -0.012007 0.021558 -0.020233
v -0.003601 0.025209 -0.021632
v 0.001594 0.029990 -0.027641
v 0.001594 0.034074 -0.035963
v -0.003601 0.035902 -0.043420
v -0.039098 0.078539 -0.011836
v -0.047911 0.078310 -0.014703
v -0.053358 0.077207 -0.022123
v -0.053358 0.075651 -0.031262
v -0.047911 0.074236 -0.038629
v -0.039098 0.073503 -0.041410
v -0.030285 0.073732 -0.038543
v -0.024838 0.074836 -0.031123
v -0.024838 0.076392 -0.021984
v -0.030285 0.077807 -0.014617
v -0.041372 0.001202 0.001333
v -0.050186 0.000973 -0.001534
v -0.055632 -0.000130 -0.008954
v -0.055632 -0.001686 -0.018093
v -0.050186 -0.003101 -0.025460
v -0.041372 -0.003834 -0.028241
v -0.032559 -0.003605 -0.025374
v -0.027113 -0.002501 -0.017954
v -0.027113 -0.000945 -0.008815
v -0.032559 0.000470 -0.001448
v -0.041372 -0.013599 -0.004844
v -0.048931 -0.013858 -0.010206
v -0.053602 -0.009327 -0.016808
v -0.053602 -0.001735 -0.022129
v -0.048931 0.006016 -0.024136
v -0.041372 0.010968 -0.022063
v -0.033814 0.011227 -0.016702
v -0.029143 0.006696 -0.010100
v -0.029143 -0.000896 -0.004779
v -0.033814 -0.008647 -0.002772
v -0.028614 -0.025793 -0.022242
v -0.036172 -0.026052 -0.027603
v -0.040844 -0.021521 -0.034205
v -0.040844 -0.013930 -0.039526
v -0.036172 -0.006178 -0.041534
v -0.028614 -0.001226 -0.039461
v -0.021055 -0.000967 -0.034099
v -0.016384 -0.005498 -0.027497
v -0.016384 -0.013090 -0.022176
v -0.021055 -0.020842 -0.020169
v -0.028614 -0.025157 -0.040304
v -0.037147 -0.021534 -0.040221
v -0.042421 -0.014847 -0.036559
v -0.042421 -0.007649 -0.030717
v -0.037147 -0.002689 -0.024926
v -0.028614 -0.001863 -0.021399
v -0.020081 -0.005485 -0.021481
v -0.014807 -0.012173 -0.025143
v -0.014807 -0.019371 -0.030985
v -0.020081 -0.024330 -0.036776
v -0.022694 -0.010808 -0.057983
v -0.031227 -0.007186 -0.057900
v -0.036501 -0.000498 -0.054239
v -0.036501 0.006700 -0.048397
v -0.031227 0.011659 -0.042606
v -0.022694 0.012486 -0.039078
v -0.014161 0.008863 -0.039161
v -0.008887 0.002176 -0.042823
v -0.008887 -0.005022 -0.048665
v -0.014161 -0.009982 -0.054455
v -0.022694 0.005628 -0.062746
v -0.031115 0.002239 -0.060864
v -0.036320 -0.001684 -0.054272
v -0.036320 -0.004644 -0.045487
v -0.031115 -0.005509 -0.037864
v -0.022694 -0.003950 -0.034316
v -0.014273 -0.000561 -0.036197
v -0.009068 0.003362 -0.042789
v -0.009068 0.006322 -0.051575
v -0.014273 0.007187 -0.059197
v -0.028774 0.024213 -0.056485
v -0.037195 0.020825 -0.054603
v -0.042400 0.016901 -0.048011
v -0.042400 0.013941 -0.039225
v -0.037195 0.013076 -0.031603
v -0.028774 0.014636 -0.028054
v -0.020353 0.018024 -0.029936
v -0.015148 0.021948 -0.036528
v -0.015148 0.024908 -0.045314
v -0.020353 0.025773 -0.052936
f 1 2 13
f 2 14 13
f 2 3 14
f 3 15 14
f 3 4 15
f 4 16 15
f 4 5 16
f 5 17 16
f 5 6 17
f 6 18 17
f 6 7 18
f 7 19 18
f 7 8 19
f 8 20 19
f 8 9 20
f 9 21 20
f 9 10 21
f 10 22 21
f 10 11 22
f 11 23 22
f 11 12 23
f 12 24 23
f 13 14 25
f 14 26 25
f 14 15 26
f 15 27 26
f 15 16 27
f 16 28 27
f 16 17 28
f 17 29 28
f 17 18 29
f 18 30 29
f 18 19 30
f 19 31 30
f 19 20 31
f 20 32 31
f 20 21 32
f 21 33 32
f 21 22 33
f 22 34 33
f 22 23 34
f 23 35 34
f 23 24 35
f 24 36 35
f 25 26 37
f 26 38 37
f 26 27 38
f 27 39 38
f 27 28 39
f 28 40 39
f 28 29 40
f 29 41 40
f 29 30 41
f 30 42 41
f 30 31 42
f 31 43 42
f 31 32 43
f 32 44 43
f 32 33 44
f 33 45 44
f 33 34 45
f 34 46 45
f 34 35 46
f 35 47 46
f 35 36 47
f 36 48 47
f 37 38 49
f 38 50 49
f 38 39 50
f 39 51 50
f 39 40 51
f 40 52 51
f 40 41 52
f 41 53 52
f 41 42 53
f 42 54 53
f 42 43 54
f 43 55 54
f 43 44 55
f 44 56 55
f 44 45 56
f 45 57 56
f 45 46 57
f 46 58 57
f 46 47 58
f 47 59 58
f 47 48 59
f 48 60 59
f 49 50 61
f 50 62 61
f 50 51 62
f 51 63 62
f 51 52 63
f 52 64 63
f 52 53 64
f 53 65 64
f 53 54 65
f 54 66 65
f 54 55 66
f 55 67 66
f 55 56 67
f 56 68 67
f 56 57 68
f 57 69 68
f 57 58 69
f 58 70 69
f 58 59 70
f 59 71 70
f 59 60 71
f 60 72 71
f 61 62 73
f 62 74 73
f 62 63 74
f 63 75 74
f 63 64 75
f 64 76 75
f 64 65 76
f 65 77 76
f 65 66 77
f 66 78 77
f 66 67 78
f 67 79 78
f 67 68 79
f 68 80 79
f 68 69 80
f 69 81 80
f 69 70 81
f 70 82 81
f 70 71 82
f 71 83 82
f 71 72 83
f 72 84 83
f 73 74 85
f 74 86 85
f 74 75 86
f 75 87 86
f 75 76 87
f 76 88 87
f 76 77 88
f 77 89 88
f 77 78 89
f 78 90 89
f 78 79 90
f 79 91 90
f 79 80 91
f 80 92 91
f 80 81 92
f 81 93 92
f 81 82 93
f 82 94 93
f 82 83 94
f 83 95 94
f 83 84 95
f 84 96 95
f 85 86 97
f 86 98 97
f 86 87 98
f 87 99 98
f 87 88 99
f 88 100 99
f 88 89 100
f 89 101 100
f 89 90 101
f 90 102 101
f 90 91 102
f 91 103 102
f 91 92 103
f 92 104 103
f 92 93 104
f 93 105 104
f 93 94 105
f 94 106 105
f 94 95 106
f 95 107 106
f 95 96 107
f 96 108 107
f 97 98 109
f 98 110 109
f 98 99 110
f 99 111 110
f 99 100 111
f 100 112 111
f 100 101 112
f 101 113 112
f 101 102 113
f 102 114 113
f 102 103 114
f 103 115 114
f 103 104 115
f 104 116 115
f 104 105 116
f 105 117 116
f 105 106 117
f 106 118 117
f 106 107 118
f 107 119 118
f 107 108 119
f 108 120 119
f 109 110 121
f 110 122 121
f 110 111 122
f 111 123 122
f 111 112 123
f 112 124 123
f 112 113 124
f 113 125 124
f 113 114 125
f 114 126 125
f 114 115 126
f 115 127 126
f 115 116 127
f 116 128 127
f 116 117 128
f 117 129 128
f 117 118 129
f 118 130 129
f 118 119 130
f 119 131 130
f 119 120 131
f 120 132 131
f 121 122 133
f 122 134 133
f 122 123 134
f 123 135 134
f 123 124 135
f 124 136 135
f 124 125 136
f 125 137 136
f 125 126 137
f 126 138 137
f 126 127 138
f 127 139 138
f 127 128 139
f 128 140 139
f 128 129 140
f 129 141 140
f 129 130 141
f 130 142 141
f 130 131 142
f 131 143 142
f 131 132 143
f 132 144 143
f 145 146 155
f 146 156 155
f 146 147 156
f 147 157 156
f 147 148 157
f 148 158 157
f 148 149 158
f 149 159 158
f 149 150 159
f 150 160 159
f 150 151 160
f 151 161 160
f 151 152 161
f 152 162 161
f 152 153 162
f 153 163 162
f 153 154 163
f 154 164 163
f 154 145 164
f 145 155 164
f 165 166 175
f 166 176 175
f 166 167 176
f 167 177 176
f 167 168 177
f 168 178 177
f 168 169 178
f 169 179 178
f 169 170 179
f 170 180 179
f 170 171 180
f 171 181 180
f 171 172 181
f 172 182 181
f 172 173 182
f 173 183 182
f 173 174 183
f 174 184 183
f 174 165 184
f 165 175 184
f 185 186 195
f 186 196 195
f 186 187 196
f 187 197 196
f 187 188 197
f 188 198 197
f 188 189 198
f 189 199 198
f 189 190 199
f 190 200 199
f 190 191 200
f 191 201 200
f 191 192 201
f 192 202 201
f 192 193 202
f 193 203 202
f 193 194 203
f 194 204 203
f 194 185 204
f 185 195 204
f 205 206 215
f 206 216 215
f 206 207 216
f 207 217 216
f 207 208 217
f 208 218 217
f 208 209 218
f 209 219 218
f 209 210 219
f 210 220 219
f 210 211 220
f 211 221 220
f 211 212 221
f 212 222 221
f 212 213 222
f 213 223 222
f 213 214 223
f 214 224 223
f 214 205 224
f 205 215 224
f 225 226 235
f 226 236 235
f 226 227 236
f 227 237 236
f 227 228 237
f 228 238 237
f 228 229 238
f 229 239 238
f 229 230 239
f 230 240 239
f 230 231 240
f 231 241 240
f 231 232 241
f 232 242 241
f 232 233 242
f 233 243 242
f 233 234 243
f 234 244 243
f 234 225 244
f 225 235 244
f 245 246 255
f 246 256 255
f 246 247 256
f 247 257 256
f 247 248 257
f 248 258 257
f 248 249 258
f 249 259 258
f 249 250 259
f 250 260 259
f 250 251 260
f 251 261 260
f 251 252 261
f 252 262 261
f 252 253 262
f 253 263 262
f 253 254 263
f 254 264 263
f 254 245 264
f 245 255 264
f 265 266 275
f 266 276 275
f 266 267 276
f 267 277 276
f 267 268 277
f 268 278 277
f 268 269 278
f 269 279 278
f 269 270 279
f 270 280 279
f 270 271 280
f 271 281 280
f 271 272 281
f 272 282 281
f 272 273 282
f 273 283 282
f 273 274 283
f 274 284 283
f 274 265 284
f 265 275 284
f 285 286 295
f 286 296 295
f 286 287 296
f 287 297 296
f 287 288 297
f 288 298 297
f 288 289 298
f 289 299 298
f 289 290 299
f 290 300 299
f 290 291 300
f 291 301 300
f 291 292 301
f 292 302 301
f 292 293 302
f 293 303 302
f 293 294 303
f 294 304 303
f 294 285 304
f 285 295 304
f 305 306 315
f 306 316 315
f 306 307 316
f 307 317 316
f 307 308 317
f 308 318 317
f 308 309 318
f 309 319 318
f 309 310 319
f 310 320 319
f 310 311 320
f 311 321 320
f 311 312 321
f 312 322 321
f 312 313 322
f 313 323 322
f 313 314 323
f 314 324 323
f 314 305 324
f 305 315 324
f 325 326 335
f 326 336 335
f 326 327 336
f 327 337 336
f 327 328 337
f 328 338 337
f 328 329 338
f 329 339 338
f 329 330 339
f 330 340 339
f 330 331 340
f 331 341 340
f 331 332 341
f 332 342 341
f 332 333 342
f 333 343 342
f 333 334 343
f 334 344 343
f 334 325 344
f 325 335 344
f 345 346 355
f 346 356 355
f 346 347 356
f 347 357 356
f 347 348 357
f 348 358 357
f 348 349 358
f 349 359 358
f 349 350 359
f 350 360 359
f 350 351 360
f 351 361 360
f 351 352 361
f 352 362 361
f 352 353 362
f 353 363 362
f 353 354 363
f 354 364 363
f 354 345 364
f 345 355 364
f 365 366 375
f 366 376 375
f 366 367 376
f 367 377 376
f 367 368 377
f 368 378 377
f 368 369 378
f 369 379 378
f 369 370 379
f 370 380 379
f 370 371 380
f 371 381 380
f 371 372 381
f 372 382 381
f 372 373 382
f 373 383 382
f 373 374 383
f 374 384 383
f 374 365 384
f 365 375 384
f 385 386 395
f 386 396 395
f 386 387 396
f 387 397 396
f 387 388 397
f 388 398 397
f 388 389 398
f 389 399 398
f 389 390 399
f 390 400 399
f 390 391 400
f 391 401 400
f 391 392 401
f 392 402 401
f 392 393 402
f 393 403 402
f 393 394 403
f 394 404 403
f 394 385 404
f 385 395 404
f 405 406 415
f 406 416 415
f 406 407 416
f 407 417 416
f 407 408 417
f 408 418 417
f 408 409 418
f 409 419 418
f 409 410 419
f 410 420 419
f 410 411 420
f 411 421 420
f 411 412 421
f 412 422 421
f 412 413 422
f 413 423 422
f 413 414 423
f 414 424 423
f 414 405 424
f 405 415 424
f 425 426 435
f 426 436 435
f 426 427 436
f 427 437 436
f 427 428 437
f 428 438 437
f 428 429 438
f 429 439 438
f 429 430 439
f 430 440 439
f 430 431 440
f 431 441 440
f 431 432 441
f 432 442 441
f 432 433 442
f 433 443 442
f 433 434 443
f 434 444 443
f 434 425 444
f 425 435 444
f 445 446 455
f 446 456 455
f 446 447 456
f 447 457 456
f 447 448 457
f 448 458 457
f 448 449 458
f 449 459 458
f 449 450 459
f 450 460 459
f 450 451 460
f 451 461 460
f 451 452 461
f 452 462 461
f 452 453 462
f 453 463 462
f 453 454 463
f 454 464 463
f 454 445 464
f 445 455 464
f 465 466 475
f 466 476 475
f 466 467 476
f 467 477 476
f 467 468 477
f 468 478 477
f 468 469 478
f 469 479 478
f 469 470 479
f 470 480 479
f 470 471 480
f 471 481 480
f 471 472 481
f 472 482 481
f 472 473 482
f 473 483 482
f 473 474 483
f 474 484 483
f 474 465 484
f 465 475 484
f 485 486 495
f 486 496 495
f 486 487 496
f 487 497 496
f 487 488 497
f 488 498 497
f 488 489 498
f 489 499 498
f 489 490 499
f 490 500 499
f 490 491 500
f 491 501 500
f 491 492 501
f 492 502 501
f 492 493 502
f 493 503 502
f 493 494 503
f 494 504 503
f 494 485 504
f 485 495 504
f 505 506 515
f 506 516 515
f 506 507 516
f 507 517 516
f 507 508 517
f 508 518 517
f 508 509 518
f 509 519 518
f 509 510 519
f 510 520 519
f 510 511 520
f 511 521 520
f 511 512 521
f 512 522 521
f 512 513 522
f 513 523 522
f 513 514 523
f 514 524 523
f 514 505 524
f 505 515 524
f 525 526 535
f 526 536 535
f 526 527 536
f 527 537 536
f 527 528 537
f 528 538 537
f 528 529 538
f 529 539 538
f 529 530 539
f 530 540 539
f 530 531 540
f 531 541 540
f 531 532 541
f 532 542 541
f 532 533 542
f 533 543 542
f 533 534 543
f 534 544 543
f 534 525 544
f 525 535 544
f 545 546 555
f 546 556 555
f 546 547 556
f 547 557 556
f 547 548 557
f 548 558 557
f 548 549 558
f 549 559 558
f 549 550 559
f 550 560 559
f 550 551 560
f 551 561 560
f 551 552 561
f 552 562 561
f 552 553 562
f 553 563 562
f 553 554 563
f 554 564 563
f 554 545 564
f 545 555 564
f 565 566 575
f 566 576 575
f 566 567 576
f 567 577 576
f 567 568 577
f 568 578 577
f 568 569 578
f 569 579 578
f 569 570 579
f 570 580 579
f 570 571 580
f 571 581 580
f 571 572 581
f 572 582 581
f 572 573 582
f 573 583 582
f 573 574 583
f 574 584 583
f 574 565 584
f 565 575 584
f 585 586 595
f 586 596 595
f 586 587 596
f 587 597 596
f 587 588 597
f 588 598 597
f 588 589 598
f 589 599 598
f 589 590 599
f 590 600 599
f 590 591 600
f 591 601 600
f 591 592 601
f 592 602 601
f 592 593 602
f 593 603 602
f 593 594 603
f 594 604 603
f 594 585 604
f 585 595 604
f 605 606 615
f 606 616 615
f 606 607 616
f 607 617 616
f 607 608 617
f 608 618 617
f 608 609 618
f 609 619 618
f 609 610 619
f 610 620 619
f 610 611 620
f 611 621 620
f 611 612 621
f 612 622 621
f 612 613 622
f 613 623 622
f 613 614 623
f 614 624 623
f 614 605 624
f 605 615 624
f 625 626 635
f 626 636 635
f 626 627 636
f 627 637 636
f 627 628 637
f 628 638 637
f 628 629 638
f 629 639 638
f 629 630 639
f 630 640 639
f 630 631 640
f 631 641 640
f 631 632 641
f 632 642 641
f 632 633 642
f 633 643 642
f 633 634 643
f 634 644 643
f 634 625 644
f 625 635 644
f 645 646 655
f 646 656 655
f 646 647 656
f 647 657 656
f 647 648 657
f 648 658 657
f 648 649 658
f 649 659 658
f 649 650 659
f 650 660 659
f 650 651 660
f 651 661 660
f 651 652 661
f 652 662 661
f 652 653 662
f 653 663 662
f 653 654 663
f 654 664 663
f 654 645 664
f 645 655 664
f 665 666 675
f 666 676 675
f 666 667 676
f 667 677 676
f 667 668 677
f 668 678 677
f 668 669 678
f 669 679 678
f 669 670 679
f 670 680 679
f 670 671 680
f 671 681 680
f 671 672 681
f 672 682 681
f 672 673 682
f 673 683 682
f 673 674 683
f 674 684 683
f 674 665 684
f 665 675 684
f 685 686 695
f 686 696 695
f 686 687 696
f 687 697 696
f 687 688 697
f 688 698 697
f 688 689 698
f 689 699 698
f 689 690 699
f 690 700 699
f 690 691 700
f 691 701 700
f 691 692 701
f 692 702 701
f 692 693 702
f 693 703 702
f 693 694 703
f 694 704 703
f 694 685 704
f 685 695 704
f 705 706 715
f 706 716 715
f 706 707 716
f 707 717 716
f 707 708 717
f 708 718 717
f 708 709 718
f 709 719 718
f 709 710 719
f 710 720 719
f 710 711 720
f 711 721 720
f 711 712 721
f 712 722 721
f 712 713 722
f 713 723 722
f 713 714 723
f 714 724 723
f 714 705 724
f 705 715 724
f 725 726 735
f 726 736 735
f 726 727 736
f 727 737 736
f 727 728 737
f 728 738 737
f 728 729 738
f 729 739 738
f 729 730 739
f 730 740 739
f 730 731 740
f 731 741 740
f 731 732 741
f 732 742 741
f 732 733 742
f 733 743 742
f 733 734 743
f 734 744 743
f 734 725 744
f 725 735 744
f 745 746 755
f 746 756 755
f 746 747 756
f 747 757 756
f 747 748 757
f 748 758 757
f 748 749 758
f 749 759 758
f 749 750 759
f 750 760 759
f 750 751 760
f 751 761 760
f 751 752 761
f 752 762 761
f 752 753 762
f 753 763 762
f 753 754 763
f 754 764 763
f 754 745 764
f 745 755 764
f 765 766 775
f 766 776 775
f 766 767 776
f 767 777 776
f 767 768 777
f 768 778 777
f 768 769 778
f 769 779 778
f 769 770 779
f 770 780 779
f 770 771 780
f 771 781 780
f 771 772 781
f 772 782 781
f 772 773 782
f 773 783 782
f 773 774 783
f 774 784 783
f 774 765 784
f 765 775 784
