# Full-Body 3D Mesh - Frame 183
v 0.021364 -0.609618 -0.108501
v 0.055172 -0.609618 -0.113361
v 0.086241 -0.609618 -0.127550
v 0.112054 -0.609618 -0.149917
v 0.130520 -0.609618 -0.178651
v 0.140143 -0.609618 -0.211423
v 0.140143 -0.609618 -0.245578
v 0.130520 -0.609618 -0.278350
v 0.112054 -0.609618 -0.307084
v 0.086241 -0.609618 -0.329451
v 0.055172 -0.609618 -0.343640
v 0.021364 -0.609618 -0.348501
v 0.021364 -0.609618 -0.108501
v 0.049805 -0.591341 -0.113361
v 0.075942 -0.574543 -0.127550
v 0.097658 -0.560588 -0.149917
v 0.113192 -0.550604 -0.178651
v 0.121287 -0.545402 -0.211423
v 0.121287 -0.545402 -0.245578
v 0.113192 -0.550604 -0.278350
v 0.097658 -0.560588 -0.307084
v 0.075942 -0.574543 -0.329451
v 0.049805 -0.591341 -0.343640
v 0.021364 -0.609618 -0.348501
v 0.021364 -0.609618 -0.108501
v 0.035409 -0.578866 -0.113361
v 0.048315 -0.550604 -0.127550
v 0.059038 -0.527124 -0.149917
v 0.066709 -0.510327 -0.178651
v 0.070707 -0.501574 -0.211423
v 0.070707 -0.501574 -0.245578
v 0.066709 -0.510327 -0.278350
v 0.059038 -0.527124 -0.307084
v 0.048315 -0.550604 -0.329451
v 0.035409 -0.578866 -0.343640
v 0.021364 -0.609618 -0.348501
v 0.021364 -0.609618 -0.108501
v 0.016553 -0.576155 -0.113361
v 0.012131 -0.545402 -0.127550
v 0.008458 -0.519852 -0.149917
v 0.005830 -0.501574 -0.178651
v 0.004460 -0.492049 -0.211423
v 0.004460 -0.492049 -0.245578
v 0.005830 -0.501574 -0.278350
v 0.008458 -0.519852 -0.307084
v 0.012131 -0.545402 -0.329451
v 0.016553 -0.576155 -0.343640
v 0.021364 -0.609618 -0.348501
v 0.021364 -0.609618 -0.108501
v -0.000775 -0.584068 -0.113361
v -0.021121 -0.560588 -0.127550
v -0.038025 -0.541080 -0.149917
v -0.050118 -0.527124 -0.178651
v -0.056419 -0.519852 -0.211423
v -0.056419 -0.519852 -0.245578
v -0.050118 -0.527124 -0.278350
v -0.038025 -0.541080 -0.307084
v -0.021121 -0.560588 -0.329451
v -0.000775 -0.584068 -0.343640
v 0.021364 -0.609618 -0.348501
v 0.021364 -0.609618 -0.108501
v -0.011074 -0.600094 -0.113361
v -0.040885 -0.591341 -0.127550
v -0.065652 -0.584068 -0.149917
v -0.083370 -0.578866 -0.178651
v -0.092603 -0.576155 -0.211423
v -0.092603 -0.576155 -0.245578
v -0.083370 -0.578866 -0.278350
v -0.065652 -0.584068 -0.307084
v -0.040885 -0.591341 -0.329451
v -0.011074 -0.600094 -0.343640
v 0.021364 -0.609618 -0.348501
v 0.021364 -0.609618 -0.108501
v -0.011074 -0.619143 -0.113361
v -0.040885 -0.627896 -0.127550
v -0.065652 -0.635169 -0.149917
v -0.083370 -0.640371 -0.178651
v -0.092603 -0.643082 -0.211423
v -0.092603 -0.643082 -0.245578
v -0.083370 -0.640371 -0.278350
v -0.065652 -0.635169 -0.307084
v -0.040885 -0.627896 -0.329451
v -0.011074 -0.619143 -0.343640
v 0.021364 -0.609618 -0.348501
v 0.021364 -0.609618 -0.108501
v -0.000775 -0.635169 -0.113361
v -0.021121 -0.658649 -0.127550
v -0.038025 -0.678157 -0.149917
v -0.050118 -0.692113 -0.178651
v -0.056419 -0.699385 -0.211423
v -0.056419 -0.699385 -0.245578
v -0.050118 -0.692113 -0.278350
v -0.038025 -0.678157 -0.307084
v -0.021121 -0.658649 -0.329451
v -0.000775 -0.635169 -0.343640
v 0.021364 -0.609618 -0.348501
v 0.021364 -0.609618 -0.108501
v 0.016553 -0.643082 -0.113361
v 0.012131 -0.673835 -0.127550
v 0.008458 -0.699385 -0.149917
v 0.005830 -0.717663 -0.178651
v 0.004460 -0.727188 -0.211423
v 0.004460 -0.727188 -0.245578
v 0.005830 -0.717663 -0.278350
v 0.008458 -0.699385 -0.307084
v 0.012131 -0.673835 -0.329451
v 0.016553 -0.643082 -0.343640
v 0.021364 -0.609618 -0.348501
v 0.021364 -0.609618 -0.108501
v 0.035409 -0.640371 -0.113361
v 0.048315 -0.668633 -0.127550
v 0.059038 -0.692113 -0.149917
v 0.066709 -0.708910 -0.178651
v 0.070707 -0.717663 -0.211423
v 0.070707 -0.717663 -0.245578
v 0.066709 -0.708910 -0.278350
v 0.059038 -0.692113 -0.307084
v 0.048315 -0.668633 -0.329451
v 0.035409 -0.640371 -0.343640
v 0.021364 -0.609618 -0.348501
v 0.021364 -0.609618 -0.108501
v 0.049805 -0.627896 -0.113361
v 0.075942 -0.644694 -0.127550
v 0.097658 -0.658649 -0.149917
v 0.113192 -0.668633 -0.178651
v 0.121287 -0.673835 -0.211423
v 0.121287 -0.673835 -0.245578
v 0.113192 -0.668633 -0.278350
v 0.097658 -0.658649 -0.307084
v 0.075942 -0.644694 -0.329451
v 0.049805 -0.627896 -0.343640
v 0.021364 -0.609618 -0.348501
v 0.021364 -0.609618 -0.108501
v 0.055172 -0.609618 -0.113361
v 0.086241 -0.609618 -0.127550
v 0.112054 -0.609618 -0.149917
v 0.130520 -0.609618 -0.178651
v 0.140143 -0.609618 -0.211423
v 0.140143 -0.609618 -0.245578
v 0.130520 -0.609618 -0.278350
v 0.112054 -0.609618 -0.307084
v 0.086241 -0.609618 -0.329451
v 0.055172 -0.609618 -0.343640
v 0.021364 -0.609618 -0.348501
v 0.165881 -0.432792 -0.089547
v 0.166372 -0.456287 -0.081873
v 0.165904 -0.470808 -0.061871
v 0.164656 -0.470808 -0.037181
v 0.163105 -0.456287 -0.017234
v 0.161843 -0.432792 -0.009649
v 0.161352 -0.409297 -0.017323
v 0.161820 -0.394777 -0.037325
v 0.163068 -0.394777 -0.062015
v 0.164619 -0.409297 -0.081962
v -0.162464 -0.445072 -0.106142
v -0.161973 -0.468567 -0.098468
v -0.162441 -0.483088 -0.078466
v -0.163689 -0.483088 -0.053777
v -0.165240 -0.468567 -0.033830
v -0.166502 -0.445072 -0.026244
v -0.166993 -0.421577 -0.033918
v -0.166525 -0.407056 -0.053920
v -0.165277 -0.407056 -0.078610
v -0.163726 -0.421577 -0.098557
v 0.163862 -0.434726 -0.089551
v 0.141416 -0.427367 -0.082259
v 0.127544 -0.422081 -0.062492
v 0.127544 -0.420885 -0.037799
v 0.141416 -0.424238 -0.017614
v 0.163862 -0.430859 -0.009645
v 0.186308 -0.438218 -0.016937
v 0.200180 -0.443504 -0.036704
v 0.200180 -0.444699 -0.061397
v 0.186308 -0.441346 -0.081583
v 0.235448 -0.205379 -0.100652
v 0.213002 -0.198020 -0.093360
v 0.199129 -0.192733 -0.073593
v 0.199129 -0.191538 -0.048900
v 0.213002 -0.194891 -0.028714
v 0.235448 -0.201511 -0.020746
v 0.257893 -0.208870 -0.028038
v 0.271766 -0.214157 -0.047805
v 0.271766 -0.215352 -0.072498
v 0.257893 -0.211999 -0.092683
v 0.235448 -0.216747 -0.098422
v 0.212302 -0.210308 -0.092592
v 0.197998 -0.201248 -0.074580
v 0.197998 -0.193027 -0.051266
v 0.212302 -0.188785 -0.031555
v 0.235448 -0.190143 -0.022976
v 0.258593 -0.196581 -0.028805
v 0.272897 -0.205642 -0.046818
v 0.272897 -0.213863 -0.070132
v 0.258593 -0.218105 -0.089843
v 0.266475 -0.052894 -0.156201
v 0.243330 -0.046455 -0.150371
v 0.229025 -0.037395 -0.132359
v 0.229025 -0.029174 -0.109045
v 0.243330 -0.024932 -0.089333
v 0.266475 -0.026290 -0.080754
v 0.289620 -0.032728 -0.086584
v 0.303925 -0.041789 -0.104596
v 0.303925 -0.050010 -0.127911
v 0.289620 -0.054252 -0.147622
v -0.164483 -0.470498 -0.097073
v -0.182875 -0.476948 -0.081866
v -0.194242 -0.471224 -0.060672
v -0.194242 -0.455510 -0.041588
v -0.182875 -0.435809 -0.031902
v -0.164483 -0.419647 -0.035314
v -0.146090 -0.413196 -0.050521
v -0.134723 -0.418921 -0.071714
v -0.134723 -0.434634 -0.090799
v -0.146090 -0.454335 -0.100485
v -0.357162 -0.283706 -0.250872
v -0.375554 -0.290156 -0.235665
v -0.386921 -0.284432 -0.214472
v -0.386921 -0.268718 -0.195387
v -0.375554 -0.249017 -0.185701
v -0.357162 -0.232855 -0.189113
v -0.338770 -0.226404 -0.204320
v -0.327403 -0.232129 -0.225514
v -0.327403 -0.247842 -0.244598
v -0.338770 -0.267543 -0.254284
v -0.357162 -0.296468 -0.208090
v -0.377268 -0.292802 -0.221999
v -0.389694 -0.275949 -0.235142
v -0.389694 -0.252347 -0.242498
v -0.377268 -0.231012 -0.241258
v -0.357162 -0.220092 -0.231895
v -0.337056 -0.223759 -0.217986
v -0.324630 -0.240611 -0.204843
v -0.324630 -0.264213 -0.197487
v -0.337056 -0.285548 -0.198727
v -0.214025 -0.366729 -0.433519
v -0.234131 -0.363062 -0.447428
v -0.246557 -0.346209 -0.460570
v -0.246557 -0.322608 -0.467926
v -0.234131 -0.301272 -0.466686
v -0.214025 -0.290352 -0.457323
v -0.193919 -0.294019 -0.443414
v -0.181493 -0.310872 -0.430272
v -0.181493 -0.334473 -0.422916
v -0.193919 -0.355809 -0.424156
v 0.163862 -0.428229 -0.089337
v 0.140432 -0.431039 -0.081970
v 0.125951 -0.434519 -0.062238
v 0.125951 -0.437340 -0.037678
v 0.140432 -0.438423 -0.017671
v 0.163862 -0.437356 -0.009859
v 0.187292 -0.434546 -0.017226
v 0.201773 -0.431065 -0.036958
v 0.201773 -0.428245 -0.061518
v 0.187292 -0.427161 -0.081525
v 0.126689 0.015118 -0.038421
v 0.103259 0.012308 -0.031055
v 0.088778 0.008827 -0.011323
v 0.088778 0.006007 0.013237
v 0.103259 0.004923 0.033244
v 0.126689 0.005991 0.041056
v 0.150119 0.008801 0.033689
v 0.164600 0.012281 0.013958
v 0.164600 0.015102 -0.010602
v 0.150119 0.016185 -0.030609
v -0.164483 -0.438773 -0.105694
v -0.187896 -0.437851 -0.097811
v -0.202365 -0.439687 -0.077851
v -0.202365 -0.443581 -0.053439
v -0.187896 -0.448043 -0.033897
v -0.164483 -0.451371 -0.026692
v -0.141070 -0.452293 -0.034575
v -0.126600 -0.450457 -0.054535
v -0.126600 -0.446564 -0.078948
v -0.141070 -0.442101 -0.098489
v -0.125437 -0.019213 -0.038788
v -0.148850 -0.018291 -0.030905
v -0.163319 -0.020127 -0.010945
v -0.163319 -0.024020 0.013468
v -0.148850 -0.028483 0.033009
v -0.125437 -0.031811 0.040214
v -0.102024 -0.032733 0.032331
v -0.087554 -0.030896 0.012371
v -0.087554 -0.027003 -0.012041
v -0.102024 -0.022541 -0.031583
v 0.126785 0.010554 -0.038682
v 0.130096 -0.012720 -0.031035
v 0.132106 -0.027105 -0.011030
v 0.132047 -0.027105 0.013691
v 0.129941 -0.012720 0.033686
v 0.126593 0.010554 0.041317
v 0.123282 0.033829 0.033670
v 0.121273 0.048213 0.013665
v 0.121332 0.048213 -0.011056
v 0.123437 0.033829 -0.031051
v -0.125341 -0.025512 -0.039287
v -0.122030 -0.048786 -0.031639
v -0.120020 -0.063171 -0.011634
v -0.120080 -0.063171 0.013087
v -0.122185 -0.048786 0.033082
v -0.125533 -0.025512 0.040713
v -0.128844 -0.002237 0.033066
v -0.130854 0.012147 0.013061
v -0.130794 0.012147 -0.011660
v -0.128689 -0.002237 -0.031655
v 0.126689 -0.010174 -0.032893
v 0.103227 -0.004913 -0.027148
v 0.088727 0.006256 -0.010531
v 0.088727 0.019066 0.010613
v 0.103227 0.028626 0.028205
v 0.126689 0.031283 0.035528
v 0.150151 0.026022 0.029783
v 0.164652 0.014853 0.013165
v 0.164652 0.002042 -0.007978
v 0.150151 -0.007517 -0.025570
v 0.132605 0.067805 -0.080141
v 0.109143 0.073066 -0.074396
v 0.094643 0.084234 -0.057779
v 0.094643 0.097045 -0.036636
v 0.109143 0.106605 -0.019043
v 0.132605 0.109261 -0.011720
v 0.156067 0.104001 -0.017465
v 0.170567 0.092832 -0.034083
v 0.170567 0.080021 -0.055226
v 0.156067 0.070462 -0.072818
v 0.132605 0.108350 -0.080677
v 0.109351 0.107579 -0.072322
v 0.094979 0.099533 -0.053887
v 0.094979 0.087286 -0.032412
v 0.109351 0.075515 -0.016102
v 0.132605 0.068716 -0.011185
v 0.155859 0.069487 -0.019539
v 0.170231 0.077533 -0.037975
v 0.170231 0.089781 -0.059449
v 0.155859 0.101552 -0.075760
v 0.188744 0.435199 0.105735
v 0.165490 0.434428 0.114090
v 0.151119 0.426382 0.132525
v 0.151119 0.414135 0.154000
v 0.165490 0.402364 0.170310
v 0.188744 0.395565 0.175227
v 0.211998 0.396336 0.166873
v 0.226370 0.404382 0.148437
v 0.226370 0.416629 0.126963
v 0.211998 0.428400 0.110652
v -0.125437 -0.059900 0.021145
v -0.148921 -0.053908 0.016274
v -0.163435 -0.037070 0.005459
v -0.163435 -0.015817 -0.007169
v -0.148921 0.001733 -0.016786
v -0.125437 0.008876 -0.019719
v -0.101953 0.002884 -0.014847
v -0.087438 -0.013953 -0.004032
v -0.087438 -0.035206 0.008596
v -0.101953 -0.052756 0.018213
v -0.113028 -0.191916 -0.201041
v -0.136513 -0.185925 -0.205913
v -0.151027 -0.169087 -0.216728
v -0.151027 -0.147834 -0.229356
v -0.136513 -0.130284 -0.238973
v -0.113028 -0.123141 -0.241906
v -0.089544 -0.129132 -0.237034
v -0.075030 -0.145970 -0.226219
v -0.075030 -0.167223 -0.213591
v -0.089544 -0.184773 -0.203974
v -0.113028 -0.162131 -0.261208
v -0.136114 -0.156826 -0.254132
v -0.150381 -0.151789 -0.234582
v -0.150381 -0.148945 -0.210024
v -0.136114 -0.149379 -0.189840
v -0.113028 -0.152926 -0.181739
v -0.089943 -0.158231 -0.188815
v -0.075675 -0.163268 -0.208365
v -0.075675 -0.166112 -0.232923
v -0.089943 -0.165678 -0.253107
v -0.055337 0.134793 -0.295599
v -0.078422 0.140098 -0.288523
v -0.092690 0.145135 -0.268972
v -0.092690 0.147979 -0.244415
v -0.078422 0.147545 -0.224231
v -0.055337 0.143998 -0.216130
v -0.032252 0.138693 -0.223206
v -0.017984 0.133656 -0.242756
v -0.017984 0.130812 -0.267313
v -0.032252 0.131246 -0.287497
v -0.013202 -0.007279 0.060893
v -0.021584 -0.003471 0.061979
v -0.026764 0.003954 0.059984
v -0.026764 0.012159 0.055670
v -0.021584 0.018011 0.050684
v -0.013202 0.019275 0.046931
v -0.004820 0.015467 0.045844
v 0.000361 0.008042 0.047839
v 0.000361 -0.000163 0.052154
v -0.004820 -0.006015 0.057140
v -0.021324 -0.018868 0.038851
v -0.029706 -0.015060 0.039938
v -0.034886 -0.007635 0.037943
v -0.034886 0.000570 0.033629
v -0.029706 0.006422 0.028643
v -0.021324 0.007685 0.024890
v -0.012941 0.003877 0.023803
v -0.007761 -0.003547 0.025798
v -0.007761 -0.011753 0.030112
v -0.012941 -0.017605 0.035098
v -0.021324 -0.017472 0.041028
v -0.030136 -0.015368 0.039065
v -0.035583 -0.009530 0.034354
v -0.035583 -0.002187 0.028694
v -0.030136 0.003855 0.024248
v -0.021324 0.006289 0.022713
v -0.012511 0.004185 0.024676
v -0.007065 -0.001653 0.029387
v -0.007065 -0.008995 0.035047
v -0.012511 -0.015037 0.039493
v -0.020930 -0.025295 0.030878
v -0.029743 -0.023191 0.028915
v -0.035189 -0.017353 0.024204
v -0.035189 -0.010011 0.018544
v -0.029743 -0.003969 0.014098
v -0.020930 -0.001535 0.012563
v -0.012118 -0.003638 0.014526
v -0.006671 -0.009476 0.019238
v -0.006671 -0.016819 0.024897
v -0.012118 -0.022861 0.029344
v -0.020930 -0.027273 0.027462
v -0.028223 -0.022730 0.030942
v -0.032731 -0.014629 0.030901
v -0.032731 -0.006065 0.027353
v -0.028223 -0.000307 0.021653
v -0.020930 0.000443 0.015980
v -0.013637 -0.004100 0.012499
v -0.009130 -0.012201 0.012541
v -0.009130 -0.020765 0.016089
v -0.013637 -0.026522 0.021788
v -0.031115 -0.033011 0.013611
v -0.038408 -0.028468 0.017092
v -0.042915 -0.020367 0.017050
v -0.042915 -0.011802 0.013502
v -0.038408 -0.006045 0.007803
v -0.031115 -0.005295 0.002129
v -0.023821 -0.009838 -0.001352
v -0.019314 -0.017939 -0.001310
v -0.019314 -0.026503 0.002238
v -0.023821 -0.032260 0.007937
v -0.031115 -0.027059 0.020617
v -0.037928 -0.020794 0.021132
v -0.042139 -0.013902 0.016581
v -0.042139 -0.009016 0.008703
v -0.037928 -0.008001 0.000507
v -0.031115 -0.011247 -0.004877
v -0.024301 -0.017512 -0.005392
v -0.020090 -0.024404 -0.000841
v -0.020090 -0.029290 0.007037
v -0.024301 -0.030304 0.015233
v -0.042610 -0.038954 0.013240
v -0.049423 -0.032689 0.013754
v -0.053634 -0.025797 0.009204
v -0.053634 -0.020911 0.001325
v -0.049423 -0.019896 -0.006871
v -0.042610 -0.023142 -0.012255
v -0.035796 -0.029407 -0.012770
v -0.031585 -0.036299 -0.008219
v -0.031585 -0.041185 -0.000341
v -0.035796 -0.042199 0.007856
v -0.013202 -0.008899 0.055669
v -0.021979 -0.006152 0.054503
v -0.027403 0.001236 0.053111
v -0.027403 0.010443 0.052026
v -0.021979 0.017952 0.051660
v -0.013202 0.020895 0.052155
v -0.004425 0.018148 0.053320
v 0.001000 0.010760 0.054712
v 0.001000 0.001553 0.055798
v -0.004425 -0.005956 0.056163
v -0.007476 -0.015941 -0.004039
v -0.016253 -0.013193 -0.005204
v -0.021678 -0.005806 -0.006596
v -0.021678 0.003401 -0.007681
v -0.016253 0.010910 -0.008047
v -0.007476 0.013853 -0.007552
v 0.001301 0.011106 -0.006387
v 0.006725 0.003718 -0.004995
v 0.006725 -0.005489 -0.003909
v 0.001301 -0.012998 -0.003544
v -0.007476 -0.013991 0.001779
v -0.016253 -0.011094 0.001057
v -0.021677 -0.004359 -0.002282
v -0.021677 0.003643 -0.006963
v -0.016253 0.009855 -0.011199
v -0.007476 0.011903 -0.013370
v 0.001300 0.009007 -0.012648
v 0.006725 0.002271 -0.009309
v 0.006725 -0.005731 -0.004627
v 0.001300 -0.011942 -0.000392
v -0.008647 -0.020170 -0.008782
v -0.017424 -0.017273 -0.009504
v -0.022848 -0.010537 -0.012844
v -0.022848 -0.002536 -0.017525
v -0.017424 0.003676 -0.021760
v -0.008647 0.005725 -0.023931
v 0.000130 0.002828 -0.023209
v 0.005554 -0.003908 -0.019870
v 0.005554 -0.011909 -0.015189
v 0.000130 -0.018121 -0.010954
v -0.008647 -0.009522 -0.001534
v -0.017447 -0.008541 -0.004281
v -0.022885 -0.007057 -0.011640
v -0.022885 -0.005636 -0.020801
v -0.017447 -0.004820 -0.028265
v -0.008647 -0.004923 -0.031180
v 0.000153 -0.005904 -0.028433
v 0.005591 -0.007388 -0.021073
v 0.005591 -0.008809 -0.011912
v 0.000153 -0.009625 -0.004449
v -0.009477 -0.022690 -0.003577
v -0.018277 -0.021709 -0.006324
v -0.023715 -0.020225 -0.013683
v -0.023715 -0.018804 -0.022844
v -0.018277 -0.017988 -0.030308
v -0.009477 -0.018091 -0.033222
v -0.000677 -0.019072 -0.030476
v 0.004761 -0.020556 -0.023116
v 0.004761 -0.021977 -0.013955
v -0.000677 -0.022793 -0.006492
v -0.009477 -0.009773 -0.007805
v -0.017709 -0.014030 -0.007594
v -0.022797 -0.020717 -0.011511
v -0.022797 -0.027279 -0.018059
v -0.017709 -0.031210 -0.024737
v -0.009477 -0.031008 -0.028995
v -0.001244 -0.026751 -0.029206
v 0.003844 -0.020064 -0.025289
v 0.003844 -0.013502 -0.018741
v -0.001244 -0.009571 -0.012062
v -0.007891 -0.012694 -0.004877
v -0.016123 -0.016952 -0.004666
v -0.021211 -0.023638 -0.008583
v -0.021211 -0.030201 -0.015131
v -0.016123 -0.034132 -0.021809
v -0.007891 -0.033930 -0.026067
v 0.000341 -0.029673 -0.026278
v 0.005429 -0.022986 -0.022361
v 0.005429 -0.016424 -0.015813
v 0.000341 -0.012493 -0.009134
v -0.013202 -0.008894 0.055712
v -0.021830 -0.006267 0.053567
v -0.027162 0.001044 0.051553
v -0.027162 0.010247 0.050440
v -0.021830 0.017828 0.050653
v -0.013202 0.020889 0.052111
v -0.004574 0.018263 0.054257
v 0.000759 0.010952 0.056270
v 0.000759 0.001749 0.057383
v -0.004574 -0.005832 0.057170
v -0.001869 -0.015361 0.002222
v -0.010497 -0.012735 0.000077
v -0.015829 -0.005424 -0.001937
v -0.015829 0.003779 -0.003050
v -0.010497 0.011360 -0.002837
v -0.001869 0.014422 -0.001379
v 0.006759 0.011795 0.000767
v 0.012092 0.004484 0.002780
v 0.012092 -0.004719 0.003893
v 0.006759 -0.012300 0.003680
v -0.001869 -0.014722 0.005098
v -0.009485 -0.013385 -0.000014
v -0.014193 -0.007115 -0.004961
v -0.014193 0.001694 -0.007851
v -0.009485 0.009676 -0.007582
v -0.001869 0.013782 -0.004255
v 0.005748 0.012445 0.000858
v 0.010455 0.006175 0.005804
v 0.010455 -0.002634 0.008694
v 0.005748 -0.010616 0.008425
v 0.009992 -0.021065 -0.014230
v 0.002376 -0.019727 -0.019343
v -0.002332 -0.013457 -0.024289
v -0.002332 -0.004649 -0.027180
v 0.002376 0.003333 -0.026910
v 0.009992 0.007440 -0.023584
v 0.017609 0.006103 -0.018471
v 0.022316 -0.000168 -0.013525
v 0.022316 -0.008976 -0.010634
v 0.017609 -0.016958 -0.010904
v 0.009992 -0.019593 -0.011054
v 0.001344 -0.018049 -0.014014
v -0.004002 -0.012213 -0.018842
v -0.004002 -0.004314 -0.023695
v 0.001344 0.002630 -0.026719
v 0.009992 0.005968 -0.026759
v 0.018641 0.004424 -0.023800
v 0.023986 -0.001412 -0.018972
v 0.023986 -0.009311 -0.014119
v 0.018641 -0.016255 -0.011094
v 0.013757 -0.029541 -0.027245
v 0.005108 -0.027997 -0.030205
v -0.000237 -0.022161 -0.035033
v -0.000237 -0.014263 -0.039886
v 0.005108 -0.007318 -0.042911
v 0.013757 -0.003980 -0.042951
v 0.022405 -0.005524 -0.039991
v 0.027751 -0.011360 -0.035163
v 0.027751 -0.019259 -0.030310
v 0.022405 -0.026203 -0.027285
v 0.013757 -0.011660 -0.020992
v 0.008669 -0.019405 -0.021237
v 0.005524 -0.026141 -0.026777
v 0.005524 -0.029293 -0.035495
v 0.008669 -0.027659 -0.044061
v 0.013757 -0.021862 -0.049204
v 0.018845 -0.014116 -0.048959
v 0.021989 -0.007381 -0.043419
v 0.021989 -0.004228 -0.034701
v 0.018845 -0.005862 -0.026135
v 0.022417 -0.017414 -0.018911
v 0.017329 -0.025160 -0.019156
v 0.014185 -0.031896 -0.024696
v 0.014185 -0.035048 -0.033414
v 0.017329 -0.033414 -0.041980
v 0.022417 -0.027617 -0.047123
v 0.027505 -0.019871 -0.046878
v 0.030650 -0.013136 -0.041338
v 0.030650 -0.009983 -0.032620
v 0.027505 -0.011617 -0.024054
v -0.013202 -0.008879 0.055830
v -0.021546 -0.006402 0.052639
v -0.026702 0.000811 0.049933
v -0.026702 0.010006 0.048747
v -0.021546 0.017669 0.049534
v -0.013202 0.020875 0.051993
v -0.004858 0.018398 0.055185
v 0.000299 0.011185 0.057890
v 0.000299 0.001990 0.059076
v -0.004858 -0.005673 0.058289
v 0.004056 -0.015344 0.005696
v -0.004288 -0.012867 0.002504
v -0.009444 -0.005654 -0.000201
v -0.009444 0.003540 -0.001387
v -0.004288 0.011204 -0.000600
v 0.004056 0.014410 0.001859
v 0.012400 0.011933 0.005050
v 0.017557 0.004719 0.007756
v 0.017557 -0.004475 0.008941
v 0.012400 -0.012139 0.008154
v 0.004056 -0.015168 0.006759
v -0.003023 -0.013405 0.001038
v -0.007398 -0.006701 -0.003636
v -0.007398 0.002385 -0.005479
v -0.003023 0.010381 -0.003786
v 0.004056 0.014233 0.000795
v 0.011135 0.012471 0.006516
v 0.015510 0.005766 0.011190
v 0.015510 -0.003319 0.013033
v 0.011135 -0.011316 0.011340
v 0.016352 -0.018460 -0.009470
v 0.009273 -0.016697 -0.015191
v 0.004898 -0.009992 -0.019865
v 0.004898 -0.000907 -0.021708
v 0.009273 0.007089 -0.020016
v 0.016352 0.010942 -0.015434
v 0.023431 0.009179 -0.009713
v 0.027806 0.002474 -0.005039
v 0.027806 -0.006611 -0.003196
v 0.023431 -0.014607 -0.004889
v 0.016352 -0.016903 -0.005225
v 0.011725 -0.018009 -0.013182
v 0.008865 -0.013672 -0.020860
v 0.008865 -0.005548 -0.025327
v 0.011725 0.003259 -0.024876
v 0.016352 0.009385 -0.019680
v 0.020979 0.010491 -0.011723
v 0.023838 0.006154 -0.004045
v 0.023838 -0.001970 0.000422
v 0.020979 -0.010777 -0.000029
v 0.033737 -0.022067 -0.014617
v 0.029110 -0.023173 -0.022573
v 0.026250 -0.018836 -0.030252
v 0.026250 -0.010712 -0.034718
v 0.029110 -0.001906 -0.034268
v 0.033737 0.004221 -0.029071
v 0.038364 0.005327 -0.021114
v 0.041223 0.000990 -0.013436
v 0.041223 -0.007134 -0.008970
v 0.038364 -0.015941 -0.009420
v 0.033737 -0.017362 -0.009443
v 0.028552 -0.021646 -0.015823
v 0.025347 -0.021070 -0.024503
v 0.025347 -0.015855 -0.032167
v 0.028552 -0.007992 -0.035888
v 0.033737 -0.000485 -0.034245
v 0.038922 0.003799 -0.027865
v 0.042126 0.003224 -0.019185
v 0.042126 -0.001992 -0.011521
v 0.038922 -0.009855 -0.007799
v 0.049341 -0.026742 -0.015826
v 0.044156 -0.031026 -0.022206
v 0.040951 -0.030450 -0.030886
v 0.040951 -0.025235 -0.038550
v 0.044156 -0.017372 -0.042271
v 0.049341 -0.009865 -0.040628
v 0.054526 -0.005581 -0.034248
v 0.057730 -0.006157 -0.025568
v 0.057730 -0.011372 -0.017904
v 0.054526 -0.019235 -0.014182
v -0.013202 -0.008572 0.057476
v -0.021253 -0.006644 0.053304
v -0.026228 0.000113 0.049364
v -0.026228 0.009118 0.047161
v -0.021253 0.016931 0.047536
v -0.013202 0.020568 0.050347
v -0.005151 0.018640 0.054519
v -0.000175 0.011883 0.058459
v -0.000175 0.002878 0.060662
v -0.005151 -0.004935 0.060287
v 0.006438 -0.019027 0.014746
v -0.001613 -0.017098 0.010574
v -0.006588 -0.010341 0.006633
v -0.006588 -0.001336 0.004430
v -0.001613 0.006477 0.004806
v 0.006438 0.010114 0.007616
v 0.014489 0.008185 0.011789
v 0.019465 0.001428 0.015729
v 0.019465 -0.007577 0.017932
v 0.014489 -0.015390 0.017556
v 0.011650 -0.004456 0.025246
v 0.012901 -0.012941 0.021728
v 0.011683 -0.018186 0.014181
v 0.008462 -0.018186 0.005488
v 0.004468 -0.012941 -0.001030
v 0.001226 -0.004456 -0.002884
v -0.000025 0.004029 0.000634
v 0.001193 0.009273 0.008181
v 0.004414 0.009273 0.016874
v 0.008409 0.004029 0.023393
v 0.029208 0.000830 0.018740
v 0.030459 -0.007655 0.015222
v 0.029241 -0.012899 0.007675
v 0.026020 -0.012899 -0.001018
v 0.022026 -0.007655 -0.007537
v 0.018784 0.000830 -0.009390
v 0.017533 0.009315 -0.005872
v 0.018751 0.014559 0.001675
v 0.021972 0.014559 0.010368
v 0.025966 0.009315 0.016886
v 0.027953 0.000830 0.019144
v 0.026836 -0.007979 0.016479
v 0.024634 -0.013423 0.009306
v 0.022188 -0.013423 0.000364
v 0.020433 -0.007979 -0.006931
v 0.020039 0.000830 -0.009794
v 0.021156 0.009639 -0.007129
v 0.023358 0.015083 0.000044
v 0.025804 0.015083 0.008986
v 0.027559 0.009639 0.016281
v 0.049801 -0.000133 0.013168
v 0.048683 -0.008942 0.010504
v 0.046481 -0.014386 0.003330
v 0.044036 -0.014386 -0.005612
v 0.042280 -0.008942 -0.012907
v 0.041886 -0.000133 -0.015769
v 0.043003 0.008675 -0.013105
v 0.045205 0.014120 -0.005931
v 0.047651 0.014120 0.003011
v 0.049406 0.008675 0.010306
v 0.045843 -0.005104 0.012852
v 0.041670 -0.011483 0.007575
v 0.039090 -0.013526 -0.001092
v 0.039090 -0.010453 -0.009838
v 0.041670 -0.003439 -0.015324
v 0.045843 0.004838 -0.015453
v 0.050017 0.011216 -0.010176
v 0.052596 0.013259 -0.001509
v 0.052596 0.010186 0.007237
v 0.050017 0.003172 0.012723
v 0.063398 -0.014005 0.009725
v 0.059224 -0.020383 0.004449
v 0.056645 -0.022427 -0.004218
v 0.056645 -0.019354 -0.012965
v 0.059224 -0.012340 -0.018450
v 0.063398 -0.004063 -0.018579
v 0.067572 0.002315 -0.013303
v 0.070151 0.004358 -0.004636
v 0.070151 0.001286 0.004111
v 0.067572 -0.005729 0.009596
f 1 2 13
f 2 14 13
f 2 3 14
f 3 15 14
f 3 4 15
f 4 16 15
f 4 5 16
f 5 17 16
f 5 6 17
f 6 18 17
f 6 7 18
f 7 19 18
f 7 8 19
f 8 20 19
f 8 9 20
f 9 21 20
f 9 10 21
f 10 22 21
f 10 11 22
f 11 23 22
f 11 12 23
f 12 24 23
f 13 14 25
f 14 26 25
f 14 15 26
f 15 27 26
f 15 16 27
f 16 28 27
f 16 17 28
f 17 29 28
f 17 18 29
f 18 30 29
f 18 19 30
f 19 31 30
f 19 20 31
f 20 32 31
f 20 21 32
f 21 33 32
f 21 22 33
f 22 34 33
f 22 23 34
f 23 35 34
f 23 24 35
f 24 36 35
f 25 26 37
f 26 38 37
f 26 27 38
f 27 39 38
f 27 28 39
f 28 40 39
f 28 29 40
f 29 41 40
f 29 30 41
f 30 42 41
f 30 31 42
f 31 43 42
f 31 32 43
f 32 44 43
f 32 33 44
f 33 45 44
f 33 34 45
f 34 46 45
f 34 35 46
f 35 47 46
f 35 36 47
f 36 48 47
f 37 38 49
f 38 50 49
f 38 39 50
f 39 51 50
f 39 40 51
f 40 52 51
f 40 41 52
f 41 53 52
f 41 42 53
f 42 54 53
f 42 43 54
f 43 55 54
f 43 44 55
f 44 56 55
f 44 45 56
f 45 57 56
f 45 46 57
f 46 58 57
f 46 47 58
f 47 59 58
f 47 48 59
f 48 60 59
f 49 50 61
f 50 62 61
f 50 51 62
f 51 63 62
f 51 52 63
f 52 64 63
f 52 53 64
f 53 65 64
f 53 54 65
f 54 66 65
f 54 55 66
f 55 67 66
f 55 56 67
f 56 68 67
f 56 57 68
f 57 69 68
f 57 58 69
f 58 70 69
f 58 59 70
f 59 71 70
f 59 60 71
f 60 72 71
f 61 62 73
f 62 74 73
f 62 63 74
f 63 75 74
f 63 64 75
f 64 76 75
f 64 65 76
f 65 77 76
f 65 66 77
f 66 78 77
f 66 67 78
f 67 79 78
f 67 68 79
f 68 80 79
f 68 69 80
f 69 81 80
f 69 70 81
f 70 82 81
f 70 71 82
f 71 83 82
f 71 72 83
f 72 84 83
f 73 74 85
f 74 86 85
f 74 75 86
f 75 87 86
f 75 76 87
f 76 88 87
f 76 77 88
f 77 89 88
f 77 78 89
f 78 90 89
f 78 79 90
f 79 91 90
f 79 80 91
f 80 92 91
f 80 81 92
f 81 93 92
f 81 82 93
f 82 94 93
f 82 83 94
f 83 95 94
f 83 84 95
f 84 96 95
f 85 86 97
f 86 98 97
f 86 87 98
f 87 99 98
f 87 88 99
f 88 100 99
f 88 89 100
f 89 101 100
f 89 90 101
f 90 102 101
f 90 91 102
f 91 103 102
f 91 92 103
f 92 104 103
f 92 93 104
f 93 105 104
f 93 94 105
f 94 106 105
f 94 95 106
f 95 107 106
f 95 96 107
f 96 108 107
f 97 98 109
f 98 110 109
f 98 99 110
f 99 111 110
f 99 100 111
f 100 112 111
f 100 101 112
f 101 113 112
f 101 102 113
f 102 114 113
f 102 103 114
f 103 115 114
f 103 104 115
f 104 116 115
f 104 105 116
f 105 117 116
f 105 106 117
f 106 118 117
f 106 107 118
f 107 119 118
f 107 108 119
f 108 120 119
f 109 110 121
f 110 122 121
f 110 111 122
f 111 123 122
f 111 112 123
f 112 124 123
f 112 113 124
f 113 125 124
f 113 114 125
f 114 126 125
f 114 115 126
f 115 127 126
f 115 116 127
f 116 128 127
f 116 117 128
f 117 129 128
f 117 118 129
f 118 130 129
f 118 119 130
f 119 131 130
f 119 120 131
f 120 132 131
f 121 122 133
f 122 134 133
f 122 123 134
f 123 135 134
f 123 124 135
f 124 136 135
f 124 125 136
f 125 137 136
f 125 126 137
f 126 138 137
f 126 127 138
f 127 139 138
f 127 128 139
f 128 140 139
f 128 129 140
f 129 141 140
f 129 130 141
f 130 142 141
f 130 131 142
f 131 143 142
f 131 132 143
f 132 144 143
f 145 146 155
f 146 156 155
f 146 147 156
f 147 157 156
f 147 148 157
f 148 158 157
f 148 149 158
f 149 159 158
f 149 150 159
f 150 160 159
f 150 151 160
f 151 161 160
f 151 152 161
f 152 162 161
f 152 153 162
f 153 163 162
f 153 154 163
f 154 164 163
f 154 145 164
f 145 155 164
f 165 166 175
f 166 176 175
f 166 167 176
f 167 177 176
f 167 168 177
f 168 178 177
f 168 169 178
f 169 179 178
f 169 170 179
f 170 180 179
f 170 171 180
f 171 181 180
f 171 172 181
f 172 182 181
f 172 173 182
f 173 183 182
f 173 174 183
f 174 184 183
f 174 165 184
f 165 175 184
f 185 186 195
f 186 196 195
f 186 187 196
f 187 197 196
f 187 188 197
f 188 198 197
f 188 189 198
f 189 199 198
f 189 190 199
f 190 200 199
f 190 191 200
f 191 201 200
f 191 192 201
f 192 202 201
f 192 193 202
f 193 203 202
f 193 194 203
f 194 204 203
f 194 185 204
f 185 195 204
f 205 206 215
f 206 216 215
f 206 207 216
f 207 217 216
f 207 208 217
f 208 218 217
f 208 209 218
f 209 219 218
f 209 210 219
f 210 220 219
f 210 211 220
f 211 221 220
f 211 212 221
f 212 222 221
f 212 213 222
f 213 223 222
f 213 214 223
f 214 224 223
f 214 205 224
f 205 215 224
f 225 226 235
f 226 236 235
f 226 227 236
f 227 237 236
f 227 228 237
f 228 238 237
f 228 229 238
f 229 239 238
f 229 230 239
f 230 240 239
f 230 231 240
f 231 241 240
f 231 232 241
f 232 242 241
f 232 233 242
f 233 243 242
f 233 234 243
f 234 244 243
f 234 225 244
f 225 235 244
f 245 246 255
f 246 256 255
f 246 247 256
f 247 257 256
f 247 248 257
f 248 258 257
f 248 249 258
f 249 259 258
f 249 250 259
f 250 260 259
f 250 251 260
f 251 261 260
f 251 252 261
f 252 262 261
f 252 253 262
f 253 263 262
f 253 254 263
f 254 264 263
f 254 245 264
f 245 255 264
f 265 266 275
f 266 276 275
f 266 267 276
f 267 277 276
f 267 268 277
f 268 278 277
f 268 269 278
f 269 279 278
f 269 270 279
f 270 280 279
f 270 271 280
f 271 281 280
f 271 272 281
f 272 282 281
f 272 273 282
f 273 283 282
f 273 274 283
f 274 284 283
f 274 265 284
f 265 275 284
f 285 286 295
f 286 296 295
f 286 287 296
f 287 297 296
f 287 288 297
f 288 298 297
f 288 289 298
f 289 299 298
f 289 290 299
f 290 300 299
f 290 291 300
f 291 301 300
f 291 292 301
f 292 302 301
f 292 293 302
f 293 303 302
f 293 294 303
f 294 304 303
f 294 285 304
f 285 295 304
f 305 306 315
f 306 316 315
f 306 307 316
f 307 317 316
f 307 308 317
f 308 318 317
f 308 309 318
f 309 319 318
f 309 310 319
f 310 320 319
f 310 311 320
f 311 321 320
f 311 312 321
f 312 322 321
f 312 313 322
f 313 323 322
f 313 314 323
f 314 324 323
f 314 305 324
f 305 315 324
f 325 326 335
f 326 336 335
f 326 327 336
f 327 337 336
f 327 328 337
f 328 338 337
f 328 329 338
f 329 339 338
f 329 330 339
f 330 340 339
f 330 331 340
f 331 341 340
f 331 332 341
f 332 342 341
f 332 333 342
f 333 343 342
f 333 334 343
f 334 344 343
f 334 325 344
f 325 335 344
f 345 346 355
f 346 356 355
f 346 347 356
f 347 357 356
f 347 348 357
f 348 358 357
f 348 349 358
f 349 359 358
f 349 350 359
f 350 360 359
f 350 351 360
f 351 361 360
f 351 352 361
f 352 362 361
f 352 353 362
f 353 363 362
f 353 354 363
f 354 364 363
f 354 345 364
f 345 355 364
f 365 366 375
f 366 376 375
f 366 367 376
f 367 377 376
f 367 368 377
f 368 378 377
f 368 369 378
f 369 379 378
f 369 370 379
f 370 380 379
f 370 371 380
f 371 381 380
f 371 372 381
f 372 382 381
f 372 373 382
f 373 383 382
f 373 374 383
f 374 384 383
f 374 365 384
f 365 375 384
f 385 386 395
f 386 396 395
f 386 387 396
f 387 397 396
f 387 388 397
f 388 398 397
f 388 389 398
f 389 399 398
f 389 390 399
f 390 400 399
f 390 391 400
f 391 401 400
f 391 392 401
f 392 402 401
f 392 393 402
f 393 403 402
f 393 394 403
f 394 404 403
f 394 385 404
f 385 395 404
f 405 406 415
f 406 416 415
f 406 407 416
f 407 417 416
f 407 408 417
f 408 418 417
f 408 409 418
f 409 419 418
f 409 410 419
f 410 420 419
f 410 411 420
f 411 421 420
f 411 412 421
f 412 422 421
f 412 413 422
f 413 423 422
f 413 414 423
f 414 424 423
f 414 405 424
f 405 415 424
f 425 426 435
f 426 436 435
f 426 427 436
f 427 437 436
f 427 428 437
f 428 438 437
f 428 429 438
f 429 439 438
f 429 430 439
f 430 440 439
f 430 431 440
f 431 441 440
f 431 432 441
f 432 442 441
f 432 433 442
f 433 443 442
f 433 434 443
f 434 444 443
f 434 425 444
f 425 435 444
f 445 446 455
f 446 456 455
f 446 447 456
f 447 457 456
f 447 448 457
f 448 458 457
f 448 449 458
f 449 459 458
f 449 450 459
f 450 460 459
f 450 451 460
f 451 461 460
f 451 452 461
f 452 462 461
f 452 453 462
f 453 463 462
f 453 454 463
f 454 464 463
f 454 445 464
f 445 455 464
f 465 466 475
f 466 476 475
f 466 467 476
f 467 477 476
f 467 468 477
f 468 478 477
f 468 469 478
f 469 479 478
f 469 470 479
f 470 480 479
f 470 471 480
f 471 481 480
f 471 472 481
f 472 482 481
f 472 473 482
f 473 483 482
f 473 474 483
f 474 484 483
f 474 465 484
f 465 475 484
f 485 486 495
f 486 496 495
f 486 487 496
f 487 497 496
f 487 488 497
f 488 498 497
f 488 489 498
f 489 499 498
f 489 490 499
f 490 500 499
f 490 491 500
f 491 501 500
f 491 492 501
f 492 502 501
f 492 493 502
f 493 503 502
f 493 494 503
f 494 504 503
f 494 485 504
f 485 495 504
f 505 506 515
f 506 516 515
f 506 507 516
f 507 517 516
f 507 508 517
f 508 518 517
f 508 509 518
f 509 519 518
f 509 510 519
f 510 520 519
f 510 511 520
f 511 521 520
f 511 512 521
f 512 522 521
f 512 513 522
f 513 523 522
f 513 514 523
f 514 524 523
f 514 505 524
f 505 515 524
f 525 526 535
f 526 536 535
f 526 527 536
f 527 537 536
f 527 528 537
f 528 538 537
f 528 529 538
f 529 539 538
f 529 530 539
f 530 540 539
f 530 531 540
f 531 541 540
f 531 532 541
f 532 542 541
f 532 533 542
f 533 543 542
f 533 534 543
f 534 544 543
f 534 525 544
f 525 535 544
f 545 546 555
f 546 556 555
f 546 547 556
f 547 557 556
f 547 548 557
f 548 558 557
f 548 549 558
f 549 559 558
f 549 550 559
f 550 560 559
f 550 551 560
f 551 561 560
f 551 552 561
f 552 562 561
f 552 553 562
f 553 563 562
f 553 554 563
f 554 564 563
f 554 545 564
f 545 555 564
f 565 566 575
f 566 576 575
f 566 567 576
f 567 577 576
f 567 568 577
f 568 578 577
f 568 569 578
f 569 579 578
f 569 570 579
f 570 580 579
f 570 571 580
f 571 581 580
f 571 572 581
f 572 582 581
f 572 573 582
f 573 583 582
f 573 574 583
f 574 584 583
f 574 565 584
f 565 575 584
f 585 586 595
f 586 596 595
f 586 587 596
f 587 597 596
f 587 588 597
f 588 598 597
f 588 589 598
f 589 599 598
f 589 590 599
f 590 600 599
f 590 591 600
f 591 601 600
f 591 592 601
f 592 602 601
f 592 593 602
f 593 603 602
f 593 594 603
f 594 604 603
f 594 585 604
f 585 595 604
f 605 606 615
f 606 616 615
f 606 607 616
f 607 617 616
f 607 608 617
f 608 618 617
f 608 609 618
f 609 619 618
f 609 610 619
f 610 620 619
f 610 611 620
f 611 621 620
f 611 612 621
f 612 622 621
f 612 613 622
f 613 623 622
f 613 614 623
f 614 624 623
f 614 605 624
f 605 615 624
f 625 626 635
f 626 636 635
f 626 627 636
f 627 637 636
f 627 628 637
f 628 638 637
f 628 629 638
f 629 639 638
f 629 630 639
f 630 640 639
f 630 631 640
f 631 641 640
f 631 632 641
f 632 642 641
f 632 633 642
f 633 643 642
f 633 634 643
f 634 644 643
f 634 625 644
f 625 635 644
f 645 646 655
f 646 656 655
f 646 647 656
f 647 657 656
f 647 648 657
f 648 658 657
f 648 649 658
f 649 659 658
f 649 650 659
f 650 660 659
f 650 651 660
f 651 661 660
f 651 652 661
f 652 662 661
f 652 653 662
f 653 663 662
f 653 654 663
f 654 664 663
f 654 645 664
f 645 655 664
f 665 666 675
f 666 676 675
f 666 667 676
f 667 677 676
f 667 668 677
f 668 678 677
f 668 669 678
f 669 679 678
f 669 670 679
f 670 680 679
f 670 671 680
f 671 681 680
f 671 672 681
f 672 682 681
f 672 673 682
f 673 683 682
f 673 674 683
f 674 684 683
f 674 665 684
f 665 675 684
f 685 686 695
f 686 696 695
f 686 687 696
f 687 697 696
f 687 688 697
f 688 698 697
f 688 689 698
f 689 699 698
f 689 690 699
f 690 700 699
f 690 691 700
f 691 701 700
f 691 692 701
f 692 702 701
f 692 693 702
f 693 703 702
f 693 694 703
f 694 704 703
f 694 685 704
f 685 695 704
f 705 706 715
f 706 716 715
f 706 707 716
f 707 717 716
f 707 708 717
f 708 718 717
f 708 709 718
f 709 719 718
f 709 710 719
f 710 720 719
f 710 711 720
f 711 721 720
f 711 712 721
f 712 722 721
f 712 713 722
f 713 723 722
f 713 714 723
f 714 724 723
f 714 705 724
f 705 715 724
f 725 726 735
f 726 736 735
f 726 727 736
f 727 737 736
f 727 728 737
f 728 738 737
f 728 729 738
f 729 739 738
f 729 730 739
f 730 740 739
f 730 731 740
f 731 741 740
f 731 732 741
f 732 742 741
f 732 733 742
f 733 743 742
f 733 734 743
f 734 744 743
f 734 725 744
f 725 735 744
f 745 746 755
f 746 756 755
f 746 747 756
f 747 757 756
f 747 748 757
f 748 758 757
f 748 749 758
f 749 759 758
f 749 750 759
f 750 760 759
f 750 751 760
f 751 761 760
f 751 752 761
f 752 762 761
f 752 753 762
f 753 763 762
f 753 754 763
f 754 764 763
f 754 745 764
f 745 755 764
f 765 766 775
f 766 776 775
f 766 767 776
f 767 777 776
f 767 768 777
f 768 778 777
f 768 769 778
f 769 779 778
f 769 770 779
f 770 780 779
f 770 771 780
f 771 781 780
f 771 772 781
f 772 782 781
f 772 773 782
f 773 783 782
f 773 774 783
f 774 784 783
f 774 765 784
f 765 775 784
