# Full-Body 3D Mesh - Frame 162
v 0.035302 -0.620675 -0.149333
v 0.069110 -0.620675 -0.154194
v 0.100179 -0.620675 -0.168383
v 0.125992 -0.620675 -0.190750
v 0.144458 -0.620675 -0.219483
v 0.154081 -0.620675 -0.252255
v 0.154081 -0.620675 -0.286411
v 0.144458 -0.620675 -0.319183
v 0.125992 -0.620675 -0.347916
v 0.100179 -0.620675 -0.370284
v 0.069110 -0.620675 -0.384472
v 0.035302 -0.620675 -0.389333
v 0.035302 -0.620675 -0.149333
v 0.063743 -0.602397 -0.154194
v 0.089880 -0.585600 -0.168383
v 0.111595 -0.571644 -0.190750
v 0.127130 -0.561661 -0.219483
v 0.135225 -0.556458 -0.252255
v 0.135225 -0.556458 -0.286411
v 0.127130 -0.561661 -0.319183
v 0.111595 -0.571644 -0.347916
v 0.089880 -0.585600 -0.370284
v 0.063743 -0.602397 -0.384472
v 0.035302 -0.620675 -0.389333
v 0.035302 -0.620675 -0.149333
v 0.049346 -0.589922 -0.154194
v 0.062253 -0.561661 -0.168383
v 0.072976 -0.538180 -0.190750
v 0.080647 -0.521383 -0.219483
v 0.084644 -0.512630 -0.252255
v 0.084644 -0.512630 -0.286411
v 0.080647 -0.521383 -0.319183
v 0.072976 -0.538180 -0.347916
v 0.062253 -0.561661 -0.370284
v 0.049346 -0.589922 -0.384472
v 0.035302 -0.620675 -0.389333
v 0.035302 -0.620675 -0.149333
v 0.030491 -0.587211 -0.154194
v 0.026069 -0.556458 -0.168383
v 0.022395 -0.530908 -0.190750
v 0.019768 -0.512630 -0.219483
v 0.018398 -0.503105 -0.252255
v 0.018398 -0.503105 -0.286411
v 0.019768 -0.512630 -0.319183
v 0.022395 -0.530908 -0.347916
v 0.026069 -0.556458 -0.370284
v 0.030491 -0.587211 -0.384472
v 0.035302 -0.620675 -0.389333
v 0.035302 -0.620675 -0.149333
v 0.013163 -0.595125 -0.154194
v -0.007183 -0.571644 -0.168383
v -0.024087 -0.552136 -0.190750
v -0.036180 -0.538180 -0.219483
v -0.042481 -0.530908 -0.252255
v -0.042481 -0.530908 -0.286411
v -0.036180 -0.538180 -0.319183
v -0.024087 -0.552136 -0.347916
v -0.007183 -0.571644 -0.370284
v 0.013163 -0.595125 -0.384472
v 0.035302 -0.620675 -0.389333
v 0.035302 -0.620675 -0.149333
v 0.002864 -0.611150 -0.154194
v -0.026947 -0.602397 -0.168383
v -0.051714 -0.595125 -0.190750
v -0.069432 -0.589922 -0.219483
v -0.078665 -0.587211 -0.252255
v -0.078665 -0.587211 -0.286411
v -0.069432 -0.589922 -0.319183
v -0.051714 -0.595125 -0.347916
v -0.026947 -0.602397 -0.370284
v 0.002864 -0.611150 -0.384472
v 0.035302 -0.620675 -0.389333
v 0.035302 -0.620675 -0.149333
v 0.002864 -0.630200 -0.154194
v -0.026947 -0.638953 -0.168383
v -0.051714 -0.646225 -0.190750
v -0.069432 -0.651428 -0.219483
v -0.078665 -0.654139 -0.252255
v -0.078665 -0.654139 -0.286411
v -0.069432 -0.651428 -0.319183
v -0.051714 -0.646225 -0.347916
v -0.026947 -0.638953 -0.370284
v 0.002864 -0.630200 -0.384472
v 0.035302 -0.620675 -0.389333
v 0.035302 -0.620675 -0.149333
v 0.013163 -0.646225 -0.154194
v -0.007183 -0.669706 -0.168383
v -0.024087 -0.689214 -0.190750
v -0.036180 -0.703169 -0.219483
v -0.042481 -0.710442 -0.252255
v -0.042481 -0.710442 -0.286411
v -0.036180 -0.703169 -0.319183
v -0.024087 -0.689214 -0.347916
v -0.007183 -0.669706 -0.370284
v 0.013163 -0.646225 -0.384472
v 0.035302 -0.620675 -0.389333
v 0.035302 -0.620675 -0.149333
v 0.030491 -0.654139 -0.154194
v 0.026069 -0.684891 -0.168383
v 0.022395 -0.710442 -0.190750
v 0.019768 -0.728720 -0.219483
v 0.018398 -0.738244 -0.252255
v 0.018398 -0.738244 -0.286411
v 0.019768 -0.728720 -0.319183
v 0.022395 -0.710442 -0.347916
v 0.026069 -0.684891 -0.370284
v 0.030491 -0.654139 -0.384472
v 0.035302 -0.620675 -0.389333
v 0.035302 -0.620675 -0.149333
v 0.049346 -0.651428 -0.154194
v 0.062253 -0.679689 -0.168383
v 0.072976 -0.703169 -0.190750
v 0.080647 -0.719967 -0.219483
v 0.084644 -0.728720 -0.252255
v 0.084644 -0.728720 -0.286411
v 0.080647 -0.719967 -0.319183
v 0.072976 -0.703169 -0.347916
v 0.062253 -0.679689 -0.370284
v 0.049346 -0.651428 -0.384472
v 0.035302 -0.620675 -0.389333
v 0.035302 -0.620675 -0.149333
v 0.063743 -0.638953 -0.154194
v 0.089880 -0.655750 -0.168383
v 0.111595 -0.669706 -0.190750
v 0.127130 -0.679689 -0.219483
v 0.135225 -0.684891 -0.252255
v 0.135225 -0.684891 -0.286411
v 0.127130 -0.679689 -0.319183
v 0.111595 -0.669706 -0.347916
v 0.089880 -0.655750 -0.370284
v 0.063743 -0.638953 -0.384472
v 0.035302 -0.620675 -0.389333
v 0.035302 -0.620675 -0.149333
v 0.069110 -0.620675 -0.154194
v 0.100179 -0.620675 -0.168383
v 0.125992 -0.620675 -0.190750
v 0.144458 -0.620675 -0.219483
v 0.154081 -0.620675 -0.252255
v 0.154081 -0.620675 -0.286411
v 0.144458 -0.620675 -0.319183
v 0.125992 -0.620675 -0.347916
v 0.100179 -0.620675 -0.370284
v 0.069110 -0.620675 -0.384472
v 0.035302 -0.620675 -0.389333
v 0.178385 -0.444287 -0.102298
v 0.177239 -0.467793 -0.094728
v 0.175250 -0.482320 -0.074825
v 0.173177 -0.482320 -0.050190
v 0.171813 -0.467793 -0.030234
v 0.171678 -0.444287 -0.022579
v 0.172824 -0.420781 -0.030149
v 0.174814 -0.406253 -0.050053
v 0.176886 -0.406253 -0.074687
v 0.178250 -0.420781 -0.094643
v -0.149911 -0.437173 -0.129917
v -0.151057 -0.460679 -0.122347
v -0.153046 -0.475207 -0.102444
v -0.155119 -0.475207 -0.077810
v -0.156483 -0.460679 -0.057854
v -0.156618 -0.437173 -0.050199
v -0.155471 -0.413668 -0.057769
v -0.153482 -0.399140 -0.077672
v -0.151410 -0.399140 -0.102306
v -0.150046 -0.413668 -0.122262
v 0.175032 -0.464500 -0.096956
v 0.151787 -0.457592 -0.092148
v 0.137421 -0.445602 -0.075992
v 0.137421 -0.433110 -0.054660
v 0.151787 -0.424886 -0.036298
v 0.175032 -0.424074 -0.027922
v 0.198276 -0.430982 -0.032729
v 0.212642 -0.442972 -0.048885
v 0.212642 -0.455464 -0.070217
v 0.198276 -0.463687 -0.088579
v 0.211454 -0.257632 -0.218098
v 0.188210 -0.250725 -0.213290
v 0.173844 -0.238734 -0.197135
v 0.173844 -0.226242 -0.175802
v 0.188210 -0.218019 -0.157441
v 0.211454 -0.217206 -0.149064
v 0.234699 -0.224114 -0.153871
v 0.249065 -0.236104 -0.170027
v 0.249065 -0.248596 -0.191360
v 0.234699 -0.256820 -0.209721
v 0.211454 -0.275227 -0.170520
v 0.189191 -0.265539 -0.165872
v 0.175431 -0.245110 -0.167988
v 0.175431 -0.221744 -0.176060
v 0.189191 -0.204365 -0.187005
v 0.211454 -0.199612 -0.196642
v 0.233718 -0.209300 -0.201290
v 0.247478 -0.229728 -0.199174
v 0.247478 -0.253095 -0.191102
v 0.233718 -0.270474 -0.180157
v 0.118448 -0.364698 -0.429515
v 0.096184 -0.355010 -0.424867
v 0.082424 -0.334581 -0.426983
v 0.082424 -0.311214 -0.435055
v 0.096184 -0.293836 -0.446000
v 0.118448 -0.289082 -0.455637
v 0.140711 -0.298771 -0.460285
v 0.154471 -0.319199 -0.458169
v 0.154471 -0.342566 -0.450097
v 0.140711 -0.359945 -0.439152
v -0.153264 -0.452649 -0.126943
v -0.176619 -0.452193 -0.118850
v -0.191053 -0.446001 -0.099759
v -0.191053 -0.436437 -0.076962
v -0.176619 -0.427154 -0.059168
v -0.153264 -0.421698 -0.053173
v -0.129910 -0.422154 -0.061266
v -0.115476 -0.428346 -0.080357
v -0.115476 -0.437910 -0.103153
v -0.129910 -0.447193 -0.120948
v -0.181549 -0.227994 -0.221197
v -0.204903 -0.227539 -0.213104
v -0.219337 -0.221347 -0.194013
v -0.219337 -0.211782 -0.171216
v -0.204903 -0.202500 -0.153422
v -0.181549 -0.197044 -0.147427
v -0.158194 -0.197499 -0.155520
v -0.143760 -0.203691 -0.174611
v -0.143760 -0.213256 -0.197407
v -0.158194 -0.222538 -0.215202
v -0.181549 -0.249264 -0.168506
v -0.202827 -0.246198 -0.180710
v -0.215978 -0.230267 -0.194291
v -0.215978 -0.207558 -0.204060
v -0.202827 -0.186744 -0.206286
v -0.181549 -0.175774 -0.200118
v -0.160270 -0.178840 -0.187913
v -0.147119 -0.194770 -0.174333
v -0.147119 -0.217480 -0.164564
v -0.160270 -0.238294 -0.162338
v -0.075930 -0.338072 -0.374957
v -0.097209 -0.335006 -0.387162
v -0.110360 -0.319076 -0.400743
v -0.110360 -0.296367 -0.410512
v -0.097209 -0.275552 -0.412737
v -0.075930 -0.264583 -0.406570
v -0.054651 -0.267649 -0.394365
v -0.041500 -0.283579 -0.380785
v -0.041500 -0.306289 -0.371016
v -0.054651 -0.327103 -0.368790
v 0.175032 -0.436710 -0.101714
v 0.151653 -0.440603 -0.094685
v 0.137203 -0.445902 -0.075339
v 0.137203 -0.450585 -0.051065
v 0.151653 -0.452862 -0.031135
v 0.175032 -0.451863 -0.023163
v 0.198411 -0.447971 -0.030192
v 0.212860 -0.442672 -0.049538
v 0.212860 -0.437989 -0.073812
v 0.198411 -0.435712 -0.093742
v 0.127565 0.000829 -0.017311
v 0.104186 -0.003064 -0.010282
v 0.089736 -0.008363 0.009065
v 0.089736 -0.013046 0.033339
v 0.104186 -0.015323 0.053268
v 0.127565 -0.014325 0.061241
v 0.150944 -0.010432 0.054212
v 0.165393 -0.005133 0.034865
v 0.165393 -0.000450 0.010591
v 0.150944 0.001827 -0.009338
v -0.153264 -0.430659 -0.129524
v -0.176736 -0.430555 -0.121764
v -0.191242 -0.432978 -0.101893
v -0.191242 -0.437004 -0.077502
v -0.176736 -0.441095 -0.057907
v -0.153264 -0.443688 -0.050592
v -0.129793 -0.443792 -0.058352
v -0.115286 -0.441369 -0.078222
v -0.115286 -0.437343 -0.102614
v -0.129793 -0.433252 -0.122209
v -0.128077 -0.004027 -0.059106
v -0.151549 -0.003922 -0.051346
v -0.166055 -0.006345 -0.031476
v -0.166055 -0.010371 -0.007084
v -0.151549 -0.014462 0.012511
v -0.128077 -0.017055 0.019826
v -0.104606 -0.017160 0.012066
v -0.090099 -0.014737 -0.007805
v -0.090099 -0.010711 -0.032196
v -0.104606 -0.006620 -0.051792
v 0.133990 -0.006748 -0.017515
v 0.133103 -0.030257 -0.009920
v 0.130100 -0.044786 0.009854
v 0.126129 -0.044786 0.034255
v 0.122706 -0.030257 0.053961
v 0.121139 -0.006748 0.061446
v 0.122027 0.016761 0.053850
v 0.125029 0.031290 0.034076
v 0.129000 0.031290 0.009675
v 0.132423 0.016761 -0.010031
v -0.121652 -0.010541 -0.059121
v -0.122539 -0.034050 -0.051525
v -0.125542 -0.048579 -0.031751
v -0.129513 -0.048579 -0.007351
v -0.132936 -0.034050 0.012355
v -0.134503 -0.010541 0.019840
v -0.133615 0.012968 0.012245
v -0.130613 0.027497 -0.007530
v -0.126641 0.027497 -0.031930
v -0.123219 0.012968 -0.051636
v 0.127565 -0.026305 -0.012928
v 0.104054 -0.022709 -0.006186
v 0.089523 -0.013016 0.011308
v 0.089523 -0.000929 0.032873
v 0.104054 0.008935 0.050272
v 0.127565 0.012809 0.056858
v 0.151076 0.009213 0.050116
v 0.165606 -0.000480 0.032622
v 0.165606 -0.012567 0.011057
v 0.151076 -0.022431 -0.006342
v 0.126577 0.101059 -0.084313
v 0.103066 0.104655 -0.077571
v 0.088535 0.114348 -0.060077
v 0.088535 0.126435 -0.038512
v 0.103066 0.136299 -0.021113
v 0.126577 0.140173 -0.014527
v 0.150087 0.136577 -0.021269
v 0.164618 0.126884 -0.038764
v 0.164618 0.114797 -0.060329
v 0.150087 0.104933 -0.077727
v 0.126577 0.144999 -0.081129
v 0.103125 0.141672 -0.074051
v 0.088631 0.130302 -0.057564
v 0.088631 0.115233 -0.037967
v 0.103125 0.102219 -0.022745
v 0.126577 0.096233 -0.017711
v 0.150028 0.099560 -0.024789
v 0.164522 0.110930 -0.041276
v 0.164522 0.125999 -0.060873
v 0.150028 0.139013 -0.076096
v 0.148732 0.390554 0.107693
v 0.125280 0.387227 0.114771
v 0.110787 0.375857 0.131257
v 0.110787 0.360788 0.150855
v 0.125280 0.347774 0.166077
v 0.148732 0.341788 0.171111
v 0.172184 0.345115 0.164032
v 0.186677 0.356485 0.147546
v 0.186677 0.371554 0.127949
v 0.172184 0.384567 0.112726
v -0.128077 -0.049421 -0.010243
v -0.151266 -0.042907 -0.015809
v -0.165598 -0.024030 -0.022838
v -0.165598 -0.000001 -0.028646
v -0.151266 0.020003 -0.031014
v -0.128077 0.028340 -0.029037
v -0.104888 0.021825 -0.023472
v -0.090556 0.002949 -0.016442
v -0.090556 -0.021081 -0.010635
v -0.104888 -0.041085 -0.008267
v -0.091337 -0.101012 -0.223697
v -0.114526 -0.094498 -0.229262
v -0.128858 -0.075621 -0.236292
v -0.128858 -0.051591 -0.242099
v -0.114526 -0.031588 -0.244467
v -0.091337 -0.023251 -0.242491
v -0.068148 -0.029765 -0.236925
v -0.053816 -0.048642 -0.229896
v -0.053816 -0.072671 -0.224088
v -0.068148 -0.092675 -0.221720
v -0.091337 -0.062049 -0.273094
v -0.114841 -0.061472 -0.265453
v -0.129367 -0.061147 -0.245452
v -0.129367 -0.061198 -0.220731
v -0.114841 -0.061605 -0.200732
v -0.091337 -0.062214 -0.193094
v -0.067833 -0.062791 -0.200734
v -0.053307 -0.063116 -0.220735
v -0.053307 -0.063065 -0.245456
v -0.067833 -0.062657 -0.265456
v -0.084232 0.219677 -0.272513
v -0.107736 0.220254 -0.264872
v -0.122262 0.220579 -0.244872
v -0.122262 0.220528 -0.220150
v -0.107736 0.220121 -0.200151
v -0.084232 0.219512 -0.192513
v -0.060728 0.218935 -0.200154
v -0.046202 0.218610 -0.220154
v -0.046202 0.218661 -0.244876
v -0.060728 0.219069 -0.264875
v -0.052243 0.033701 0.081130
v -0.058456 0.027954 0.077347
v -0.062296 0.025274 0.069346
v -0.062296 0.026684 0.060184
v -0.058456 0.031646 0.053359
v -0.052243 0.038265 0.051479
v -0.046029 0.044012 0.055262
v -0.042189 0.046692 0.063263
v -0.042189 0.045281 0.072426
v -0.046029 0.040319 0.079250
v -0.025028 0.006984 0.077018
v -0.031242 0.001237 0.073234
v -0.035082 -0.001443 0.065234
v -0.035082 -0.000032 0.056071
v -0.031242 0.004930 0.049246
v -0.025028 0.011548 0.047367
v -0.018815 0.017295 0.051150
v -0.014975 0.019975 0.059151
v -0.014975 0.018565 0.068313
v -0.018815 0.013602 0.075138
v -0.020995 0.009266 0.076640
v -0.023587 0.000655 0.074389
v -0.026730 -0.004668 0.067480
v -0.029222 -0.004668 0.058550
v -0.030113 0.000655 0.051012
v -0.029061 0.009266 0.047744
v -0.026469 0.017878 0.049995
v -0.023327 0.023200 0.056905
v -0.020834 0.023200 0.065834
v -0.019944 0.017878 0.073372
v 0.004823 0.003379 0.069433
v 0.002231 -0.005233 0.067182
v -0.000912 -0.010555 0.060273
v -0.003404 -0.010555 0.051344
v -0.004295 -0.005233 0.043805
v -0.003243 0.003379 0.040538
v -0.000651 0.011990 0.042788
v 0.002491 0.017313 0.049698
v 0.004984 0.017313 0.058627
v 0.005874 0.011990 0.066165
v 0.000790 -0.011556 0.053591
v -0.006432 -0.008234 0.048822
v -0.010896 -0.000476 0.046407
v -0.010896 0.008755 0.047268
v -0.006432 0.015932 0.051077
v 0.000790 0.018314 0.056379
v 0.008012 0.014992 0.061149
v 0.012475 0.007234 0.063564
v 0.012475 -0.001997 0.062702
v 0.008012 -0.009174 0.058893
v 0.018235 -0.009241 0.028787
v 0.011013 -0.005919 0.024017
v 0.006550 0.001839 0.021602
v 0.006550 0.011070 0.022464
v 0.011013 0.018247 0.026273
v 0.018235 0.020629 0.031575
v 0.025457 0.017307 0.036344
v 0.029921 0.009549 0.038759
v 0.029921 0.000318 0.037898
v 0.025457 -0.006859 0.034088
v 0.018235 -0.008697 0.025949
v 0.010791 -0.004616 0.022226
v 0.006190 0.003403 0.021541
v 0.006190 0.012297 0.024156
v 0.010791 0.018669 0.029072
v 0.018235 0.020085 0.034412
v 0.025680 0.016004 0.038136
v 0.030281 0.007985 0.038821
v 0.030281 -0.000909 0.036205
v 0.025680 -0.007281 0.031289
v 0.028876 -0.003966 0.009860
v 0.021431 0.000115 0.006136
v 0.016830 0.008134 0.005451
v 0.016830 0.017028 0.008067
v 0.021431 0.023400 0.012983
v 0.028876 0.024816 0.018323
v 0.036321 0.020735 0.022046
v 0.040922 0.012716 0.022731
v 0.040922 0.003822 0.020116
v 0.036321 -0.002550 0.015200
v -0.052243 0.025126 0.076655
v -0.059402 0.023648 0.070954
v -0.063826 0.026882 0.063476
v -0.063826 0.033592 0.057079
v -0.059402 0.041215 0.054206
v -0.052243 0.046840 0.055954
v -0.045083 0.048317 0.061656
v -0.040659 0.045083 0.069133
v -0.040659 0.038373 0.075530
v -0.045083 0.030750 0.078403
v 0.000628 -0.025624 0.023421
v -0.006531 -0.027102 0.017720
v -0.010955 -0.023868 0.010242
v -0.010955 -0.017158 0.003846
v -0.006531 -0.009535 0.000973
v 0.000628 -0.003911 0.002721
v 0.007787 -0.002433 0.008422
v 0.012212 -0.005667 0.015899
v 0.012212 -0.012377 0.022296
v 0.007787 -0.020000 0.025169
v 0.003899 -0.014767 0.027710
v 0.001159 -0.023314 0.025387
v -0.001784 -0.028595 0.018359
v -0.003806 -0.028595 0.009312
v -0.004134 -0.023314 0.001700
v -0.002643 -0.014767 -0.001568
v 0.000097 -0.006221 0.000755
v 0.003040 -0.000939 0.007782
v 0.005062 -0.000939 0.016830
v 0.005390 -0.006221 0.024441
v 0.028213 -0.021086 0.022277
v 0.025473 -0.029632 0.019954
v 0.022530 -0.034914 0.012927
v 0.020508 -0.034914 0.003879
v 0.020180 -0.029632 -0.003732
v 0.021671 -0.021086 -0.007001
v 0.024411 -0.012540 -0.004678
v 0.027354 -0.007258 0.002350
v 0.029375 -0.007258 0.011397
v 0.029704 -0.012540 0.019009
v 0.024942 -0.008381 0.015612
v 0.020323 -0.014800 0.020450
v 0.017469 -0.023620 0.020395
v 0.017469 -0.031472 0.015467
v 0.020323 -0.035357 0.007548
v 0.024942 -0.033791 -0.000336
v 0.029560 -0.027372 -0.005174
v 0.032414 -0.018552 -0.005119
v 0.032414 -0.010700 -0.000191
v 0.029560 -0.006815 0.007728
v 0.044183 -0.014671 0.025634
v 0.039565 -0.021090 0.030472
v 0.036711 -0.029910 0.030417
v 0.036711 -0.037762 0.025489
v 0.039565 -0.041647 0.017570
v 0.044183 -0.040081 0.009686
v 0.048802 -0.033662 0.004848
v 0.051656 -0.024842 0.004903
v 0.051656 -0.016990 0.009831
v 0.048802 -0.013105 0.017750
v 0.041391 -0.027376 0.032398
v 0.041558 -0.036185 0.029514
v 0.042728 -0.041629 0.022102
v 0.044454 -0.041629 0.012994
v 0.046077 -0.036185 0.005668
v 0.046976 -0.027376 0.002922
v 0.046809 -0.018567 0.005806
v 0.045639 -0.013123 0.013218
v 0.043913 -0.013123 0.022326
v 0.042290 -0.018567 0.029652
v 0.057153 -0.028055 0.035385
v 0.057320 -0.036864 0.032501
v 0.058491 -0.042308 0.025089
v 0.060217 -0.042308 0.015981
v 0.061839 -0.036864 0.008655
v 0.062739 -0.028055 0.005909
v 0.062571 -0.019246 0.008793
v 0.061401 -0.013802 0.016205
v 0.059675 -0.013802 0.025313
v 0.058053 -0.019246 0.032639
v -0.052243 0.023124 0.074029
v -0.059614 0.023090 0.068408
v -0.064171 0.027980 0.061984
v -0.064171 0.035927 0.057210
v -0.059614 0.043895 0.055910
v -0.052243 0.048841 0.058581
v -0.044871 0.048876 0.064202
v -0.040314 0.043986 0.070626
v -0.040314 0.036039 0.075400
v -0.044871 0.028070 0.076699
v -0.001429 -0.016760 0.007632
v -0.008801 -0.016794 0.002011
v -0.013357 -0.011904 -0.004414
v -0.013357 -0.003957 -0.009187
v -0.008801 0.004011 -0.010487
v -0.001429 0.008957 -0.007816
v 0.005943 0.008992 -0.002195
v 0.010499 0.004102 0.004229
v 0.010499 -0.003845 0.009003
v 0.005943 -0.011814 0.010302
v 0.003431 -0.003901 0.014099
v 0.000209 -0.012378 0.012174
v -0.003638 -0.017617 0.005564
v -0.006642 -0.017617 -0.003207
v -0.007654 -0.012378 -0.010788
v -0.006289 -0.003901 -0.014283
v -0.003068 0.004576 -0.012358
v 0.000780 0.009815 -0.005748
v 0.003783 0.009815 0.003022
v 0.004796 0.004576 0.010603
v 0.030074 -0.011955 0.004974
v 0.026852 -0.020432 0.003050
v 0.023005 -0.025671 -0.003560
v 0.020002 -0.025671 -0.012331
v 0.018989 -0.020432 -0.019912
v 0.020354 -0.011955 -0.023407
v 0.023576 -0.003478 -0.021483
v 0.027423 0.001761 -0.014872
v 0.030427 0.001761 -0.006102
v 0.031439 -0.003478 0.001479
v 0.020532 -0.011955 0.005034
v 0.018806 -0.020329 0.001451
v 0.019527 -0.025504 -0.006206
v 0.022421 -0.025504 -0.015013
v 0.026382 -0.020329 -0.021606
v 0.029896 -0.011955 -0.023467
v 0.031623 -0.003580 -0.019884
v 0.030901 0.001595 -0.012227
v 0.028007 0.001595 -0.003420
v 0.024046 -0.003580 0.003173
v 0.043218 -0.019820 0.012488
v 0.041492 -0.028194 0.008906
v 0.042214 -0.033369 0.001248
v 0.045107 -0.033369 -0.007559
v 0.049068 -0.028194 -0.014152
v 0.052583 -0.019820 -0.016013
v 0.054309 -0.011445 -0.012430
v 0.053587 -0.006270 -0.004773
v 0.050693 -0.006270 0.004034
v 0.046733 -0.011445 0.010628
v 0.047900 -0.005258 0.001839
v 0.043421 -0.009863 0.008524
v 0.040653 -0.018271 0.011279
v 0.040653 -0.027270 0.009053
v 0.043421 -0.033423 0.002696
v 0.047900 -0.034381 -0.005364
v 0.052379 -0.029776 -0.012048
v 0.055148 -0.021369 -0.014804
v 0.055148 -0.012369 -0.012578
v 0.052379 -0.006216 -0.006221
v 0.072263 -0.008709 0.015788
v 0.067784 -0.013313 0.022472
v 0.065016 -0.021721 0.025228
v 0.065016 -0.030720 0.023002
v 0.067784 -0.036874 0.016645
v 0.072263 -0.037831 0.008585
v 0.076742 -0.033227 0.001900
v 0.079510 -0.024819 -0.000855
v 0.079510 -0.015820 0.001371
v 0.076742 -0.009666 0.007728
v -0.052243 0.021802 0.071195
v -0.059593 0.022923 0.065659
v -0.064137 0.029033 0.060369
v -0.064137 0.037797 0.057347
v -0.059593 0.045868 0.057746
v -0.052243 0.050163 0.061414
v -0.044892 0.049042 0.066951
v -0.040349 0.042933 0.072240
v -0.040349 0.034169 0.075263
v -0.044892 0.026098 0.074863
v 0.000939 -0.004378 -0.004720
v -0.006412 -0.003257 -0.010256
v -0.010955 0.002852 -0.015546
v -0.010955 0.011616 -0.018568
v -0.006412 0.019687 -0.018169
v 0.000939 0.023983 -0.014501
v 0.008290 0.022862 -0.008964
v 0.012833 0.016752 -0.003675
v 0.012833 0.007988 -0.000652
v 0.008290 -0.000083 -0.001052
v -0.003815 0.009802 0.004616
v -0.001213 0.001168 0.002465
v 0.002211 -0.004168 -0.004298
v 0.005149 -0.004168 -0.013091
v 0.006479 0.001168 -0.020554
v 0.005693 0.009802 -0.023837
v 0.003091 0.018436 -0.021686
v -0.000332 0.023772 -0.014922
v -0.003271 0.023772 -0.006130
v -0.004601 0.018436 0.001333
v 0.016245 0.014177 0.011320
v 0.018846 0.005543 0.009169
v 0.022270 0.000207 0.002405
v 0.025209 0.000207 -0.006387
v 0.026539 0.005543 -0.013851
v 0.025753 0.014177 -0.017134
v 0.023151 0.022811 -0.014983
v 0.019727 0.028147 -0.008219
v 0.016789 0.028147 0.000573
v 0.015459 0.022811 0.008037
v 0.020999 0.029075 -0.004656
v 0.012182 0.026223 -0.004381
v 0.006733 0.018770 -0.003542
v 0.006733 0.009562 -0.002461
v 0.012182 0.002118 -0.001550
v 0.020999 -0.000720 -0.001158
v 0.029815 0.002132 -0.001433
v 0.035264 0.009585 -0.002272
v 0.035264 0.018792 -0.003353
v 0.029815 0.026236 -0.004264
v 0.020839 0.031865 0.019106
v 0.012022 0.029013 0.019382
v 0.006573 0.021560 0.020220
v 0.006573 0.012353 0.021301
v 0.012022 0.004908 0.022212
v 0.020839 0.002070 0.022605
v 0.029655 0.004922 0.022329
v 0.035104 0.012375 0.021491
v 0.035104 0.021582 0.020410
v 0.029655 0.029027 0.019499
v 0.020839 0.031962 0.020458
v 0.012570 0.029017 0.017476
v 0.007459 0.021470 0.015784
v 0.007459 0.012203 0.016030
v 0.012570 0.004755 0.018119
v 0.020839 0.001973 0.021253
v 0.029108 0.004917 0.024235
v 0.034218 0.012465 0.025927
v 0.034218 0.021732 0.025681
v 0.029108 0.029179 0.023592
v 0.011493 0.032631 0.045711
v 0.003224 0.029686 0.042728
v -0.001887 0.022139 0.041037
v -0.001887 0.012872 0.041282
v 0.003224 0.005424 0.043371
v 0.011493 0.002642 0.046505
v 0.019762 0.005586 0.049488
v 0.024872 0.013134 0.051179
v 0.024872 0.022401 0.050934
v 0.019762 0.029848 0.048845
v -0.052243 0.021144 0.068498
v -0.059784 0.023310 0.063561
v -0.064445 0.030317 0.059672
v -0.064445 0.039487 0.058316
v -0.059784 0.047320 0.060012
v -0.052243 0.050821 0.064111
v -0.044701 0.048655 0.069049
v -0.040040 0.041649 0.072938
v -0.040040 0.032478 0.074294
v -0.044701 0.024646 0.072598
v -0.006266 0.010044 -0.006597
v -0.013808 0.012210 -0.011534
v -0.018469 0.019216 -0.015423
v -0.018469 0.028387 -0.016779
v -0.013808 0.036219 -0.015083
v -0.006266 0.039721 -0.010984
v 0.001275 0.037555 -0.006046
v 0.005936 0.030548 -0.002157
v 0.005936 0.021378 -0.000801
v 0.001275 0.013545 -0.002497
v -0.011953 0.024882 0.005090
v -0.009414 0.016206 0.003034
v -0.005674 0.010844 -0.003538
v -0.002159 0.010844 -0.012117
v -0.000214 0.016206 -0.019425
v -0.000580 0.024882 -0.022671
v -0.003118 0.033558 -0.020615
v -0.006859 0.038920 -0.014042
v -0.010373 0.038920 -0.005464
v -0.012319 0.033558 0.001844
v 0.006844 0.028557 0.012791
v 0.009383 0.019881 0.010735
v 0.013123 0.014519 0.004162
v 0.016638 0.014519 -0.004416
v 0.018583 0.019881 -0.011724
v 0.018217 0.028557 -0.014970
v 0.015679 0.037233 -0.012914
v 0.011938 0.042595 -0.006342
v 0.008424 0.042595 0.002237
v 0.006478 0.037233 0.009545
v 0.012531 0.043333 -0.003671
v 0.004163 0.040989 -0.000441
v -0.001008 0.033897 0.002542
v -0.001008 0.024764 0.004137
v 0.004163 0.017081 0.003736
v 0.012531 0.013781 0.001491
v 0.020898 0.016124 -0.001739
v 0.026069 0.023217 -0.004721
v 0.026069 0.032349 -0.006317
v 0.020898 0.040033 -0.005915
v 0.018932 0.046650 0.015316
v 0.010564 0.044306 0.018546
v 0.005393 0.037213 0.021528
v 0.005393 0.028081 0.023124
v 0.010564 0.020397 0.022722
v 0.018932 0.017097 0.020478
v 0.027299 0.019441 0.017248
v 0.032471 0.026534 0.014265
v 0.032471 0.035666 0.012670
v 0.027299 0.043350 0.013071
v 0.018932 0.046873 0.017786
v 0.010159 0.044002 0.016931
v 0.004736 0.036498 0.016446
v 0.004736 0.027228 0.016515
v 0.010159 0.019732 0.017111
v 0.018932 0.016874 0.018008
v 0.027705 0.019745 0.018862
v 0.033127 0.027249 0.019347
v 0.033127 0.036519 0.019279
v 0.027705 0.044015 0.018682
v 0.017673 0.046967 0.030398
v 0.008900 0.044095 0.029544
v 0.003478 0.036592 0.029058
v 0.003478 0.027321 0.029127
v 0.008900 0.019826 0.029724
v 0.017673 0.016967 0.030620
v 0.026447 0.019839 0.031474
v 0.031869 0.027342 0.031960
v 0.031869 0.036613 0.031891
v 0.026447 0.044108 0.031294
v 0.039718 0.025314 0.090085
v 0.032948 0.031631 0.089639
v 0.028764 0.037761 0.084083
v 0.028764 0.041361 0.075540
v 0.032948 0.041057 0.067273
v 0.039718 0.036964 0.062440
v 0.046488 0.030646 0.062886
v 0.050671 0.024517 0.068442
v 0.050671 0.020916 0.076984
v 0.046488 0.021221 0.085252
v 0.015871 -0.001022 0.078986
v 0.009102 0.005296 0.078540
v 0.004918 0.011425 0.072985
v 0.004918 0.015026 0.064442
v 0.009102 0.014721 0.056175
v 0.015871 0.010628 0.051341
v 0.022641 0.004311 0.051787
v 0.026825 -0.001819 0.057343
v 0.026825 -0.005419 0.065886
v 0.022641 -0.005115 0.074153
v 0.015871 -0.009103 0.070788
v 0.010686 -0.003773 0.076324
v 0.007481 0.004832 0.077598
v 0.007481 0.013426 0.074122
v 0.010686 0.018727 0.067224
v 0.015871 0.018709 0.059540
v 0.021057 0.013380 0.054003
v 0.024262 0.004775 0.052730
v 0.024262 -0.003820 0.056206
v 0.021057 -0.009120 0.063103
v -0.004449 -0.014643 0.057088
v -0.009635 -0.009314 0.062624
v -0.012840 -0.000709 0.063898
v -0.012840 0.007885 0.060422
v -0.009635 0.013186 0.053525
v -0.004449 0.013168 0.045840
v 0.000736 0.007839 0.040304
v 0.003941 -0.000766 0.039030
v 0.003941 -0.009360 0.042506
v 0.000736 -0.014661 0.049403
v -0.004449 -0.015540 0.049037
v -0.011360 -0.013599 0.054903
v -0.015631 -0.006745 0.059457
v -0.015631 0.002403 0.060957
v -0.011360 0.010352 0.058831
v -0.004449 0.014065 0.053892
v 0.002461 0.012124 0.048025
v 0.006732 0.005271 0.043472
v 0.006732 -0.003878 0.041971
v 0.002461 -0.011827 0.044097
v -0.024474 -0.011450 0.024097
v -0.031384 -0.009509 0.029964
v -0.035655 -0.002655 0.034517
v -0.035655 0.006493 0.036017
v -0.031384 0.014442 0.033892
v -0.024474 0.018155 0.028952
v -0.017563 0.016214 0.023085
v -0.013292 0.009361 0.018532
v -0.013292 0.000212 0.017032
v -0.017563 -0.007736 0.019157
v -0.024474 -0.011643 0.026883
v -0.032058 -0.008672 0.031309
v -0.036746 -0.001107 0.033907
v -0.036746 0.008161 0.033686
v -0.032058 0.015592 0.030729
v -0.024474 0.018348 0.026166
v -0.016889 0.015377 0.021740
v -0.012202 0.007813 0.019141
v -0.012202 -0.001455 0.019363
v -0.016889 -0.008887 0.022320
v -0.038934 -0.012226 0.002495
v -0.046519 -0.009255 0.006921
v -0.051206 -0.001691 0.009519
v -0.051206 0.007577 0.009297
v -0.046519 0.015009 0.006340
v -0.038934 0.017765 0.001777
v -0.031350 0.014793 -0.002649
v -0.026662 0.007229 -0.005247
v -0.026662 -0.002039 -0.005025
v -0.031350 -0.009470 -0.002068
v 0.039718 0.018469 0.084292
v 0.031867 0.023036 0.086147
v 0.027014 0.030698 0.084226
v 0.027014 0.038528 0.079264
v 0.031867 0.043536 0.073155
v 0.039718 0.043809 0.068233
v 0.047569 0.039242 0.066378
v 0.052422 0.031580 0.068299
v 0.052422 0.023749 0.073261
v 0.047569 0.018741 0.079370
v -0.003832 -0.027160 0.012292
v -0.011683 -0.022593 0.014147
v -0.016536 -0.014931 0.012226
v -0.016536 -0.007101 0.007264
v -0.011683 -0.002093 0.001155
v -0.003832 -0.001820 -0.003767
v 0.004019 -0.006387 -0.005622
v 0.008872 -0.014049 -0.003701
v 0.008872 -0.021880 0.001262
v 0.004019 -0.026888 0.007370
v -0.000575 -0.014490 -0.010379
v -0.001125 -0.023307 -0.007567
v -0.002709 -0.028755 -0.000236
v -0.004722 -0.028755 0.008813
v -0.006396 -0.023307 0.016124
v -0.007090 -0.014490 0.018905
v -0.006539 -0.005674 0.016092
v -0.004955 -0.000225 0.008761
v -0.002942 -0.000225 -0.000288
v -0.001269 -0.005674 -0.007599
v -0.023560 -0.014687 -0.015493
v -0.024110 -0.023503 -0.012681
v -0.025695 -0.028952 -0.005350
v -0.027708 -0.028952 0.003699
v -0.029381 -0.023503 0.011010
v -0.030075 -0.014687 0.013791
v -0.029525 -0.005870 0.010979
v -0.027940 -0.000421 0.003648
v -0.025927 -0.000421 -0.005402
v -0.024254 -0.005870 -0.012713
v -0.026817 0.000271 0.000269
v -0.031522 -0.002028 -0.007381
v -0.034429 -0.009163 -0.012537
v -0.034429 -0.018408 -0.013229
v -0.031522 -0.026231 -0.009194
v -0.026817 -0.029645 -0.001972
v -0.022113 -0.027345 0.005678
v -0.019206 -0.020210 0.010834
v -0.019206 -0.010966 0.011527
v -0.022113 -0.003142 0.007491
v -0.047541 -0.000705 0.013307
v -0.052245 -0.003005 0.005657
v -0.055153 -0.010140 0.000501
v -0.055153 -0.019384 -0.000191
v -0.052245 -0.027208 0.003844
v -0.047541 -0.030621 0.011066
v -0.042837 -0.028322 0.018716
v -0.039929 -0.021187 0.023872
v -0.039929 -0.011942 0.024564
v -0.042837 -0.004119 0.020529
v -0.047541 -0.002468 0.005054
v -0.053119 -0.008235 0.000409
v -0.056566 -0.016840 0.000263
v -0.056566 -0.024995 0.004671
v -0.053119 -0.029586 0.011950
v -0.047541 -0.028859 0.019319
v -0.041963 -0.023092 0.023964
v -0.038516 -0.014487 0.024110
v -0.038516 -0.006332 0.019702
v -0.041963 -0.001741 0.012423
v -0.068379 0.005626 0.020027
v -0.073956 -0.000141 0.015382
v -0.077403 -0.008746 0.015236
v -0.077403 -0.016901 0.019645
v -0.073956 -0.021492 0.026924
v -0.068379 -0.020765 0.034293
v -0.062801 -0.014998 0.038937
v -0.059354 -0.006393 0.039083
v -0.059354 0.001762 0.034675
v -0.062801 0.006353 0.027396
v 0.039718 0.017325 0.082110
v 0.031692 0.021387 0.084354
v 0.026732 0.029173 0.083509
v 0.026732 0.037710 0.079895
v 0.031692 0.043737 0.074894
v 0.039718 0.044952 0.070415
v 0.047744 0.040891 0.068170
v 0.052704 0.033105 0.069016
v 0.052704 0.024568 0.072630
v 0.047744 0.018541 0.077631
v 0.001132 -0.015743 0.003986
v -0.006894 -0.011682 0.006231
v -0.011854 -0.003896 0.005385
v -0.011854 0.004641 0.001771
v -0.006894 0.010668 -0.003230
v 0.001132 0.011883 -0.007708
v 0.009158 0.007822 -0.009953
v 0.014118 0.000036 -0.009107
v 0.014118 -0.008501 -0.005493
v 0.009158 -0.014528 -0.000492
v 0.003319 -0.001930 -0.016701
v 0.004944 -0.010502 -0.013565
v 0.005113 -0.015799 -0.005960
v 0.003761 -0.015799 0.003212
v 0.001405 -0.010502 0.010446
v -0.001055 -0.001930 0.012979
v -0.002680 0.006642 0.009844
v -0.002849 0.011939 0.002238
v -0.001497 0.011939 -0.006934
v 0.000859 0.006642 -0.014168
v -0.027130 -0.009344 -0.021188
v -0.025505 -0.017915 -0.018053
v -0.025337 -0.023213 -0.010447
v -0.026688 -0.023213 -0.001276
v -0.029044 -0.017915 0.005958
v -0.031504 -0.009344 0.008491
v -0.033129 -0.000772 0.005356
v -0.033298 0.004526 -0.002250
v -0.031947 0.004526 -0.011421
v -0.029591 -0.000772 -0.018655
v -0.034344 -0.009344 -0.020481
v -0.034939 -0.018004 -0.017229
v -0.033387 -0.023357 -0.009821
v -0.030281 -0.023357 -0.001086
v -0.026806 -0.018004 0.005638
v -0.024291 -0.009344 0.007784
v -0.023696 -0.000683 0.004532
v -0.025248 0.004670 -0.002876
v -0.028354 0.004670 -0.011611
v -0.031828 -0.000683 -0.018335
v -0.058527 -0.004451 -0.011881
v -0.059123 -0.013112 -0.008628
v -0.057571 -0.018465 -0.001220
v -0.054465 -0.018465 0.007514
v -0.050990 -0.013112 0.014239
v -0.048475 -0.004451 0.016385
v -0.047880 0.004209 0.013133
v -0.049432 0.009562 0.005724
v -0.052538 0.009562 -0.003010
v -0.056012 0.004209 -0.009735
v -0.053501 0.010386 0.000049
v -0.058143 0.006451 -0.006945
v -0.061012 -0.001648 -0.010426
v -0.061012 -0.010818 -0.009064
v -0.058143 -0.017556 -0.003380
v -0.053501 -0.019289 0.004456
v -0.048859 -0.015354 0.011449
v -0.045991 -0.007255 0.014930
v -0.045991 0.001915 0.013568
v -0.048859 0.008653 0.007884
v -0.083684 0.013131 0.018536
v -0.088325 0.009197 0.011542
v -0.091194 0.001097 0.008062
v -0.091194 -0.008072 0.009424
v -0.088325 -0.014811 0.015108
v -0.083684 -0.016543 0.022943
v -0.079042 -0.012608 0.029937
v -0.076173 -0.004509 0.033418
v -0.076173 0.004661 0.032056
v -0.079042 0.011399 0.026372
v 0.039718 0.016688 0.080284
v 0.031778 0.020475 0.083208
v 0.026870 0.028336 0.083479
v 0.026870 0.037267 0.080994
v 0.031778 0.043857 0.076702
v 0.039718 0.045590 0.072241
v 0.047658 0.041803 0.069317
v 0.052565 0.033942 0.069045
v 0.052565 0.025011 0.071531
v 0.047658 0.018420 0.075823
v -0.000521 -0.005660 -0.000029
v -0.008462 -0.001873 0.002895
v -0.013369 0.005988 0.003166
v -0.013369 0.014919 0.000681
v -0.008462 0.021509 -0.003611
v -0.000521 0.023242 -0.008072
v 0.007419 0.019455 -0.010996
v 0.012326 0.011594 -0.011268
v 0.012326 0.002663 -0.008782
v 0.007419 -0.003928 -0.004490
v -0.003928 0.008791 -0.018659
v -0.004278 0.000034 -0.015636
v -0.003193 -0.005378 -0.008187
v -0.001088 -0.005378 0.000841
v 0.001234 0.000034 0.008001
v 0.002885 0.008791 0.010557
v 0.003235 0.017548 0.007534
v 0.002150 0.022960 0.000086
v 0.000045 0.022960 -0.008942
v -0.002277 0.017548 -0.016102
v -0.029464 0.011867 -0.012704
v -0.029814 0.003111 -0.009681
v -0.028729 -0.002301 -0.002233
v -0.026624 -0.002301 0.006796
v -0.024302 0.003111 0.013956
v -0.022651 0.011867 0.016512
v -0.022301 0.020624 0.013489
v -0.023386 0.026036 0.006041
v -0.025491 0.026036 -0.002988
v -0.027813 0.020624 -0.010147
v -0.026058 0.026811 0.003204
v -0.034841 0.023890 0.003721
v -0.040269 0.016377 0.003544
v -0.040269 0.007142 0.002741
v -0.034841 -0.000289 0.001618
v -0.026058 -0.003076 0.000604
v -0.017274 -0.000156 0.000087
v -0.011846 0.007357 0.000264
v -0.011846 0.016593 0.001068
v -0.017274 0.024023 0.002191
v -0.024017 0.024789 0.026447
v -0.032801 0.021868 0.026964
v -0.038229 0.014355 0.026787
v -0.038229 0.005120 0.025984
v -0.032801 -0.002311 0.024861
v -0.024017 -0.005098 0.023847
v -0.015234 -0.002178 0.023330
v -0.009806 0.005335 0.023507
v -0.009806 0.014571 0.024311
v -0.015234 0.022001 0.025434
v -0.024017 0.024811 0.026158
v -0.032160 0.021725 0.029339
v -0.037192 0.014101 0.030918
v -0.037192 0.004851 0.030293
v -0.032160 -0.002491 0.027703
v -0.024017 -0.005121 0.024136
v -0.015875 -0.002035 0.020955
v -0.010842 0.005589 0.019376
v -0.010842 0.014839 0.020001
v -0.015875 0.022181 0.022592
v -0.013692 0.023135 0.050965
v -0.021835 0.020048 0.054146
v -0.026867 0.012424 0.055725
v -0.026867 0.003175 0.055100
v -0.021835 -0.004167 0.052509
v -0.013692 -0.006797 0.048943
v -0.005550 -0.003711 0.045762
v -0.000517 0.003913 0.044183
v -0.000517 0.013162 0.044808
v -0.005550 0.020504 0.047399
v 0.039718 0.016148 0.076773
v 0.031931 0.019151 0.080807
v 0.027118 0.026734 0.083106
v 0.027118 0.035999 0.082790
v 0.031931 0.043408 0.079982
v 0.039718 0.046130 0.075752
v 0.047505 0.043126 0.071718
v 0.052318 0.035544 0.069419
v 0.052318 0.026279 0.069734
v 0.047505 0.018870 0.072543
v 0.002441 0.013759 0.006601
v -0.005346 0.016762 0.010636
v -0.010159 0.024345 0.012934
v -0.010159 0.033610 0.012619
v -0.005346 0.041019 0.009810
v 0.002441 0.043741 0.005581
v 0.010229 0.040738 0.001546
v 0.015041 0.033155 -0.000753
v 0.015041 0.023890 -0.000437
v 0.010229 0.016481 0.002372
v -0.002172 0.028750 -0.008182
v 0.000222 0.020078 -0.005945
v 0.003465 0.014718 0.000889
v 0.006316 0.014718 0.009710
v 0.007687 0.020078 0.017149
v 0.007055 0.028750 0.020364
v 0.004660 0.037422 0.018127
v 0.001418 0.042782 0.011293
v -0.001434 0.042782 0.002472
v -0.002805 0.037422 -0.004967
v -0.018438 0.025614 -0.002924
v -0.016043 0.016942 -0.000688
v -0.012801 0.011582 0.006146
v -0.009950 0.011582 0.014968
v -0.008579 0.016942 0.022406
v -0.009211 0.025614 0.025622
v -0.011606 0.034286 0.023385
v -0.014848 0.039646 0.016551
v -0.017700 0.039646 0.007730
v -0.019071 0.034286 0.000291
v -0.013825 0.040391 0.013927
v -0.022106 0.038089 0.010453
v -0.027224 0.031022 0.007321
v -0.027224 0.021890 0.005727
v -0.022106 0.014180 0.006281
v -0.013825 0.010837 0.008770
v -0.005544 0.013139 0.012244
v -0.000426 0.020206 0.015377
v -0.000426 0.029338 0.016970
v -0.005544 0.037048 0.016417
v -0.021336 0.036858 0.034170
v -0.029617 0.034557 0.030695
v -0.034735 0.027490 0.027563
v -0.034735 0.018357 0.025970
v -0.029617 0.010647 0.026523
v -0.021336 0.007305 0.029013
v -0.013055 0.009607 0.032487
v -0.007937 0.016673 0.035619
v -0.007937 0.025806 0.037213
v -0.013055 0.033516 0.036659
v -0.021336 0.036678 0.035049
v -0.027552 0.032449 0.040473
v -0.031394 0.024260 0.042504
v -0.031394 0.015239 0.040367
v -0.027552 0.008832 0.034878
v -0.021336 0.007486 0.028134
v -0.015120 0.011714 0.022710
v -0.011278 0.019903 0.020678
v -0.011278 0.028924 0.022815
v -0.015120 0.035331 0.028304
v -0.007365 0.033476 0.048565
v -0.013581 0.029247 0.053988
v -0.017423 0.021058 0.056020
v -0.017423 0.012038 0.053883
v -0.013581 0.005630 0.048394
v -0.007365 0.004284 0.041649
v -0.001149 0.008513 0.036226
v 0.002693 0.016702 0.034194
v 0.002693 0.025722 0.036331
v -0.001149 0.032130 0.041820
f 1 2 13
f 2 14 13
f 2 3 14
f 3 15 14
f 3 4 15
f 4 16 15
f 4 5 16
f 5 17 16
f 5 6 17
f 6 18 17
f 6 7 18
f 7 19 18
f 7 8 19
f 8 20 19
f 8 9 20
f 9 21 20
f 9 10 21
f 10 22 21
f 10 11 22
f 11 23 22
f 11 12 23
f 12 24 23
f 13 14 25
f 14 26 25
f 14 15 26
f 15 27 26
f 15 16 27
f 16 28 27
f 16 17 28
f 17 29 28
f 17 18 29
f 18 30 29
f 18 19 30
f 19 31 30
f 19 20 31
f 20 32 31
f 20 21 32
f 21 33 32
f 21 22 33
f 22 34 33
f 22 23 34
f 23 35 34
f 23 24 35
f 24 36 35
f 25 26 37
f 26 38 37
f 26 27 38
f 27 39 38
f 27 28 39
f 28 40 39
f 28 29 40
f 29 41 40
f 29 30 41
f 30 42 41
f 30 31 42
f 31 43 42
f 31 32 43
f 32 44 43
f 32 33 44
f 33 45 44
f 33 34 45
f 34 46 45
f 34 35 46
f 35 47 46
f 35 36 47
f 36 48 47
f 37 38 49
f 38 50 49
f 38 39 50
f 39 51 50
f 39 40 51
f 40 52 51
f 40 41 52
f 41 53 52
f 41 42 53
f 42 54 53
f 42 43 54
f 43 55 54
f 43 44 55
f 44 56 55
f 44 45 56
f 45 57 56
f 45 46 57
f 46 58 57
f 46 47 58
f 47 59 58
f 47 48 59
f 48 60 59
f 49 50 61
f 50 62 61
f 50 51 62
f 51 63 62
f 51 52 63
f 52 64 63
f 52 53 64
f 53 65 64
f 53 54 65
f 54 66 65
f 54 55 66
f 55 67 66
f 55 56 67
f 56 68 67
f 56 57 68
f 57 69 68
f 57 58 69
f 58 70 69
f 58 59 70
f 59 71 70
f 59 60 71
f 60 72 71
f 61 62 73
f 62 74 73
f 62 63 74
f 63 75 74
f 63 64 75
f 64 76 75
f 64 65 76
f 65 77 76
f 65 66 77
f 66 78 77
f 66 67 78
f 67 79 78
f 67 68 79
f 68 80 79
f 68 69 80
f 69 81 80
f 69 70 81
f 70 82 81
f 70 71 82
f 71 83 82
f 71 72 83
f 72 84 83
f 73 74 85
f 74 86 85
f 74 75 86
f 75 87 86
f 75 76 87
f 76 88 87
f 76 77 88
f 77 89 88
f 77 78 89
f 78 90 89
f 78 79 90
f 79 91 90
f 79 80 91
f 80 92 91
f 80 81 92
f 81 93 92
f 81 82 93
f 82 94 93
f 82 83 94
f 83 95 94
f 83 84 95
f 84 96 95
f 85 86 97
f 86 98 97
f 86 87 98
f 87 99 98
f 87 88 99
f 88 100 99
f 88 89 100
f 89 101 100
f 89 90 101
f 90 102 101
f 90 91 102
f 91 103 102
f 91 92 103
f 92 104 103
f 92 93 104
f 93 105 104
f 93 94 105
f 94 106 105
f 94 95 106
f 95 107 106
f 95 96 107
f 96 108 107
f 97 98 109
f 98 110 109
f 98 99 110
f 99 111 110
f 99 100 111
f 100 112 111
f 100 101 112
f 101 113 112
f 101 102 113
f 102 114 113
f 102 103 114
f 103 115 114
f 103 104 115
f 104 116 115
f 104 105 116
f 105 117 116
f 105 106 117
f 106 118 117
f 106 107 118
f 107 119 118
f 107 108 119
f 108 120 119
f 109 110 121
f 110 122 121
f 110 111 122
f 111 123 122
f 111 112 123
f 112 124 123
f 112 113 124
f 113 125 124
f 113 114 125
f 114 126 125
f 114 115 126
f 115 127 126
f 115 116 127
f 116 128 127
f 116 117 128
f 117 129 128
f 117 118 129
f 118 130 129
f 118 119 130
f 119 131 130
f 119 120 131
f 120 132 131
f 121 122 133
f 122 134 133
f 122 123 134
f 123 135 134
f 123 124 135
f 124 136 135
f 124 125 136
f 125 137 136
f 125 126 137
f 126 138 137
f 126 127 138
f 127 139 138
f 127 128 139
f 128 140 139
f 128 129 140
f 129 141 140
f 129 130 141
f 130 142 141
f 130 131 142
f 131 143 142
f 131 132 143
f 132 144 143
f 145 146 155
f 146 156 155
f 146 147 156
f 147 157 156
f 147 148 157
f 148 158 157
f 148 149 158
f 149 159 158
f 149 150 159
f 150 160 159
f 150 151 160
f 151 161 160
f 151 152 161
f 152 162 161
f 152 153 162
f 153 163 162
f 153 154 163
f 154 164 163
f 154 145 164
f 145 155 164
f 165 166 175
f 166 176 175
f 166 167 176
f 167 177 176
f 167 168 177
f 168 178 177
f 168 169 178
f 169 179 178
f 169 170 179
f 170 180 179
f 170 171 180
f 171 181 180
f 171 172 181
f 172 182 181
f 172 173 182
f 173 183 182
f 173 174 183
f 174 184 183
f 174 165 184
f 165 175 184
f 185 186 195
f 186 196 195
f 186 187 196
f 187 197 196
f 187 188 197
f 188 198 197
f 188 189 198
f 189 199 198
f 189 190 199
f 190 200 199
f 190 191 200
f 191 201 200
f 191 192 201
f 192 202 201
f 192 193 202
f 193 203 202
f 193 194 203
f 194 204 203
f 194 185 204
f 185 195 204
f 205 206 215
f 206 216 215
f 206 207 216
f 207 217 216
f 207 208 217
f 208 218 217
f 208 209 218
f 209 219 218
f 209 210 219
f 210 220 219
f 210 211 220
f 211 221 220
f 211 212 221
f 212 222 221
f 212 213 222
f 213 223 222
f 213 214 223
f 214 224 223
f 214 205 224
f 205 215 224
f 225 226 235
f 226 236 235
f 226 227 236
f 227 237 236
f 227 228 237
f 228 238 237
f 228 229 238
f 229 239 238
f 229 230 239
f 230 240 239
f 230 231 240
f 231 241 240
f 231 232 241
f 232 242 241
f 232 233 242
f 233 243 242
f 233 234 243
f 234 244 243
f 234 225 244
f 225 235 244
f 245 246 255
f 246 256 255
f 246 247 256
f 247 257 256
f 247 248 257
f 248 258 257
f 248 249 258
f 249 259 258
f 249 250 259
f 250 260 259
f 250 251 260
f 251 261 260
f 251 252 261
f 252 262 261
f 252 253 262
f 253 263 262
f 253 254 263
f 254 264 263
f 254 245 264
f 245 255 264
f 265 266 275
f 266 276 275
f 266 267 276
f 267 277 276
f 267 268 277
f 268 278 277
f 268 269 278
f 269 279 278
f 269 270 279
f 270 280 279
f 270 271 280
f 271 281 280
f 271 272 281
f 272 282 281
f 272 273 282
f 273 283 282
f 273 274 283
f 274 284 283
f 274 265 284
f 265 275 284
f 285 286 295
f 286 296 295
f 286 287 296
f 287 297 296
f 287 288 297
f 288 298 297
f 288 289 298
f 289 299 298
f 289 290 299
f 290 300 299
f 290 291 300
f 291 301 300
f 291 292 301
f 292 302 301
f 292 293 302
f 293 303 302
f 293 294 303
f 294 304 303
f 294 285 304
f 285 295 304
f 305 306 315
f 306 316 315
f 306 307 316
f 307 317 316
f 307 308 317
f 308 318 317
f 308 309 318
f 309 319 318
f 309 310 319
f 310 320 319
f 310 311 320
f 311 321 320
f 311 312 321
f 312 322 321
f 312 313 322
f 313 323 322
f 313 314 323
f 314 324 323
f 314 305 324
f 305 315 324
f 325 326 335
f 326 336 335
f 326 327 336
f 327 337 336
f 327 328 337
f 328 338 337
f 328 329 338
f 329 339 338
f 329 330 339
f 330 340 339
f 330 331 340
f 331 341 340
f 331 332 341
f 332 342 341
f 332 333 342
f 333 343 342
f 333 334 343
f 334 344 343
f 334 325 344
f 325 335 344
f 345 346 355
f 346 356 355
f 346 347 356
f 347 357 356
f 347 348 357
f 348 358 357
f 348 349 358
f 349 359 358
f 349 350 359
f 350 360 359
f 350 351 360
f 351 361 360
f 351 352 361
f 352 362 361
f 352 353 362
f 353 363 362
f 353 354 363
f 354 364 363
f 354 345 364
f 345 355 364
f 365 366 375
f 366 376 375
f 366 367 376
f 367 377 376
f 367 368 377
f 368 378 377
f 368 369 378
f 369 379 378
f 369 370 379
f 370 380 379
f 370 371 380
f 371 381 380
f 371 372 381
f 372 382 381
f 372 373 382
f 373 383 382
f 373 374 383
f 374 384 383
f 374 365 384
f 365 375 384
f 385 386 395
f 386 396 395
f 386 387 396
f 387 397 396
f 387 388 397
f 388 398 397
f 388 389 398
f 389 399 398
f 389 390 399
f 390 400 399
f 390 391 400
f 391 401 400
f 391 392 401
f 392 402 401
f 392 393 402
f 393 403 402
f 393 394 403
f 394 404 403
f 394 385 404
f 385 395 404
f 405 406 415
f 406 416 415
f 406 407 416
f 407 417 416
f 407 408 417
f 408 418 417
f 408 409 418
f 409 419 418
f 409 410 419
f 410 420 419
f 410 411 420
f 411 421 420
f 411 412 421
f 412 422 421
f 412 413 422
f 413 423 422
f 413 414 423
f 414 424 423
f 414 405 424
f 405 415 424
f 425 426 435
f 426 436 435
f 426 427 436
f 427 437 436
f 427 428 437
f 428 438 437
f 428 429 438
f 429 439 438
f 429 430 439
f 430 440 439
f 430 431 440
f 431 441 440
f 431 432 441
f 432 442 441
f 432 433 442
f 433 443 442
f 433 434 443
f 434 444 443
f 434 425 444
f 425 435 444
f 445 446 455
f 446 456 455
f 446 447 456
f 447 457 456
f 447 448 457
f 448 458 457
f 448 449 458
f 449 459 458
f 449 450 459
f 450 460 459
f 450 451 460
f 451 461 460
f 451 452 461
f 452 462 461
f 452 453 462
f 453 463 462
f 453 454 463
f 454 464 463
f 454 445 464
f 445 455 464
f 465 466 475
f 466 476 475
f 466 467 476
f 467 477 476
f 467 468 477
f 468 478 477
f 468 469 478
f 469 479 478
f 469 470 479
f 470 480 479
f 470 471 480
f 471 481 480
f 471 472 481
f 472 482 481
f 472 473 482
f 473 483 482
f 473 474 483
f 474 484 483
f 474 465 484
f 465 475 484
f 485 486 495
f 486 496 495
f 486 487 496
f 487 497 496
f 487 488 497
f 488 498 497
f 488 489 498
f 489 499 498
f 489 490 499
f 490 500 499
f 490 491 500
f 491 501 500
f 491 492 501
f 492 502 501
f 492 493 502
f 493 503 502
f 493 494 503
f 494 504 503
f 494 485 504
f 485 495 504
f 505 506 515
f 506 516 515
f 506 507 516
f 507 517 516
f 507 508 517
f 508 518 517
f 508 509 518
f 509 519 518
f 509 510 519
f 510 520 519
f 510 511 520
f 511 521 520
f 511 512 521
f 512 522 521
f 512 513 522
f 513 523 522
f 513 514 523
f 514 524 523
f 514 505 524
f 505 515 524
f 525 526 535
f 526 536 535
f 526 527 536
f 527 537 536
f 527 528 537
f 528 538 537
f 528 529 538
f 529 539 538
f 529 530 539
f 530 540 539
f 530 531 540
f 531 541 540
f 531 532 541
f 532 542 541
f 532 533 542
f 533 543 542
f 533 534 543
f 534 544 543
f 534 525 544
f 525 535 544
f 545 546 555
f 546 556 555
f 546 547 556
f 547 557 556
f 547 548 557
f 548 558 557
f 548 549 558
f 549 559 558
f 549 550 559
f 550 560 559
f 550 551 560
f 551 561 560
f 551 552 561
f 552 562 561
f 552 553 562
f 553 563 562
f 553 554 563
f 554 564 563
f 554 545 564
f 545 555 564
f 565 566 575
f 566 576 575
f 566 567 576
f 567 577 576
f 567 568 577
f 568 578 577
f 568 569 578
f 569 579 578
f 569 570 579
f 570 580 579
f 570 571 580
f 571 581 580
f 571 572 581
f 572 582 581
f 572 573 582
f 573 583 582
f 573 574 583
f 574 584 583
f 574 565 584
f 565 575 584
f 585 586 595
f 586 596 595
f 586 587 596
f 587 597 596
f 587 588 597
f 588 598 597
f 588 589 598
f 589 599 598
f 589 590 599
f 590 600 599
f 590 591 600
f 591 601 600
f 591 592 601
f 592 602 601
f 592 593 602
f 593 603 602
f 593 594 603
f 594 604 603
f 594 585 604
f 585 595 604
f 605 606 615
f 606 616 615
f 606 607 616
f 607 617 616
f 607 608 617
f 608 618 617
f 608 609 618
f 609 619 618
f 609 610 619
f 610 620 619
f 610 611 620
f 611 621 620
f 611 612 621
f 612 622 621
f 612 613 622
f 613 623 622
f 613 614 623
f 614 624 623
f 614 605 624
f 605 615 624
f 625 626 635
f 626 636 635
f 626 627 636
f 627 637 636
f 627 628 637
f 628 638 637
f 628 629 638
f 629 639 638
f 629 630 639
f 630 640 639
f 630 631 640
f 631 641 640
f 631 632 641
f 632 642 641
f 632 633 642
f 633 643 642
f 633 634 643
f 634 644 643
f 634 625 644
f 625 635 644
f 645 646 655
f 646 656 655
f 646 647 656
f 647 657 656
f 647 648 657
f 648 658 657
f 648 649 658
f 649 659 658
f 649 650 659
f 650 660 659
f 650 651 660
f 651 661 660
f 651 652 661
f 652 662 661
f 652 653 662
f 653 663 662
f 653 654 663
f 654 664 663
f 654 645 664
f 645 655 664
f 665 666 675
f 666 676 675
f 666 667 676
f 667 677 676
f 667 668 677
f 668 678 677
f 668 669 678
f 669 679 678
f 669 670 679
f 670 680 679
f 670 671 680
f 671 681 680
f 671 672 681
f 672 682 681
f 672 673 682
f 673 683 682
f 673 674 683
f 674 684 683
f 674 665 684
f 665 675 684
f 685 686 695
f 686 696 695
f 686 687 696
f 687 697 696
f 687 688 697
f 688 698 697
f 688 689 698
f 689 699 698
f 689 690 699
f 690 700 699
f 690 691 700
f 691 701 700
f 691 692 701
f 692 702 701
f 692 693 702
f 693 703 702
f 693 694 703
f 694 704 703
f 694 685 704
f 685 695 704
f 705 706 715
f 706 716 715
f 706 707 716
f 707 717 716
f 707 708 717
f 708 718 717
f 708 709 718
f 709 719 718
f 709 710 719
f 710 720 719
f 710 711 720
f 711 721 720
f 711 712 721
f 712 722 721
f 712 713 722
f 713 723 722
f 713 714 723
f 714 724 723
f 714 705 724
f 705 715 724
f 725 726 735
f 726 736 735
f 726 727 736
f 727 737 736
f 727 728 737
f 728 738 737
f 728 729 738
f 729 739 738
f 729 730 739
f 730 740 739
f 730 731 740
f 731 741 740
f 731 732 741
f 732 742 741
f 732 733 742
f 733 743 742
f 733 734 743
f 734 744 743
f 734 725 744
f 725 735 744
f 745 746 755
f 746 756 755
f 746 747 756
f 747 757 756
f 747 748 757
f 748 758 757
f 748 749 758
f 749 759 758
f 749 750 759
f 750 760 759
f 750 751 760
f 751 761 760
f 751 752 761
f 752 762 761
f 752 753 762
f 753 763 762
f 753 754 763
f 754 764 763
f 754 745 764
f 745 755 764
f 765 766 775
f 766 776 775
f 766 767 776
f 767 777 776
f 767 768 777
f 768 778 777
f 768 769 778
f 769 779 778
f 769 770 779
f 770 780 779
f 770 771 780
f 771 781 780
f 771 772 781
f 772 782 781
f 772 773 782
f 773 783 782
f 773 774 783
f 774 784 783
f 774 765 784
f 765 775 784
f 785 786 795
f 786 796 795
f 786 787 796
f 787 797 796
f 787 788 797
f 788 798 797
f 788 789 798
f 789 799 798
f 789 790 799
f 790 800 799
f 790 791 800
f 791 801 800
f 791 792 801
f 792 802 801
f 792 793 802
f 793 803 802
f 793 794 803
f 794 804 803
f 794 785 804
f 785 795 804
f 805 806 815
f 806 816 815
f 806 807 816
f 807 817 816
f 807 808 817
f 808 818 817
f 808 809 818
f 809 819 818
f 809 810 819
f 810 820 819
f 810 811 820
f 811 821 820
f 811 812 821
f 812 822 821
f 812 813 822
f 813 823 822
f 813 814 823
f 814 824 823
f 814 805 824
f 805 815 824
f 825 826 835
f 826 836 835
f 826 827 836
f 827 837 836
f 827 828 837
f 828 838 837
f 828 829 838
f 829 839 838
f 829 830 839
f 830 840 839
f 830 831 840
f 831 841 840
f 831 832 841
f 832 842 841
f 832 833 842
f 833 843 842
f 833 834 843
f 834 844 843
f 834 825 844
f 825 835 844
f 845 846 855
f 846 856 855
f 846 847 856
f 847 857 856
f 847 848 857
f 848 858 857
f 848 849 858
f 849 859 858
f 849 850 859
f 850 860 859
f 850 851 860
f 851 861 860
f 851 852 861
f 852 862 861
f 852 853 862
f 853 863 862
f 853 854 863
f 854 864 863
f 854 845 864
f 845 855 864
f 865 866 875
f 866 876 875
f 866 867 876
f 867 877 876
f 867 868 877
f 868 878 877
f 868 869 878
f 869 879 878
f 869 870 879
f 870 880 879
f 870 871 880
f 871 881 880
f 871 872 881
f 872 882 881
f 872 873 882
f 873 883 882
f 873 874 883
f 874 884 883
f 874 865 884
f 865 875 884
f 885 886 895
f 886 896 895
f 886 887 896
f 887 897 896
f 887 888 897
f 888 898 897
f 888 889 898
f 889 899 898
f 889 890 899
f 890 900 899
f 890 891 900
f 891 901 900
f 891 892 901
f 892 902 901
f 892 893 902
f 893 903 902
f 893 894 903
f 894 904 903
f 894 885 904
f 885 895 904
f 905 906 915
f 906 916 915
f 906 907 916
f 907 917 916
f 907 908 917
f 908 918 917
f 908 909 918
f 909 919 918
f 909 910 919
f 910 920 919
f 910 911 920
f 911 921 920
f 911 912 921
f 912 922 921
f 912 913 922
f 913 923 922
f 913 914 923
f 914 924 923
f 914 905 924
f 905 915 924
f 925 926 935
f 926 936 935
f 926 927 936
f 927 937 936
f 927 928 937
f 928 938 937
f 928 929 938
f 929 939 938
f 929 930 939
f 930 940 939
f 930 931 940
f 931 941 940
f 931 932 941
f 932 942 941
f 932 933 942
f 933 943 942
f 933 934 943
f 934 944 943
f 934 925 944
f 925 935 944
f 945 946 955
f 946 956 955
f 946 947 956
f 947 957 956
f 947 948 957
f 948 958 957
f 948 949 958
f 949 959 958
f 949 950 959
f 950 960 959
f 950 951 960
f 951 961 960
f 951 952 961
f 952 962 961
f 952 953 962
f 953 963 962
f 953 954 963
f 954 964 963
f 954 945 964
f 945 955 964
f 965 966 975
f 966 976 975
f 966 967 976
f 967 977 976
f 967 968 977
f 968 978 977
f 968 969 978
f 969 979 978
f 969 970 979
f 970 980 979
f 970 971 980
f 971 981 980
f 971 972 981
f 972 982 981
f 972 973 982
f 973 983 982
f 973 974 983
f 974 984 983
f 974 965 984
f 965 975 984
f 985 986 995
f 986 996 995
f 986 987 996
f 987 997 996
f 987 988 997
f 988 998 997
f 988 989 998
f 989 999 998
f 989 990 999
f 990 1000 999
f 990 991 1000
f 991 1001 1000
f 991 992 1001
f 992 1002 1001
f 992 993 1002
f 993 1003 1002
f 993 994 1003
f 994 1004 1003
f 994 985 1004
f 985 995 1004
f 1005 1006 1015
f 1006 1016 1015
f 1006 1007 1016
f 1007 1017 1016
f 1007 1008 1017
f 1008 1018 1017
f 1008 1009 1018
f 1009 1019 1018
f 1009 1010 1019
f 1010 1020 1019
f 1010 1011 1020
f 1011 1021 1020
f 1011 1012 1021
f 1012 1022 1021
f 1012 1013 1022
f 1013 1023 1022
f 1013 1014 1023
f 1014 1024 1023
f 1014 1005 1024
f 1005 1015 1024
f 1025 1026 1035
f 1026 1036 1035
f 1026 1027 1036
f 1027 1037 1036
f 1027 1028 1037
f 1028 1038 1037
f 1028 1029 1038
f 1029 1039 1038
f 1029 1030 1039
f 1030 1040 1039
f 1030 1031 1040
f 1031 1041 1040
f 1031 1032 1041
f 1032 1042 1041
f 1032 1033 1042
f 1033 1043 1042
f 1033 1034 1043
f 1034 1044 1043
f 1034 1025 1044
f 1025 1035 1044
f 1045 1046 1055
f 1046 1056 1055
f 1046 1047 1056
f 1047 1057 1056
f 1047 1048 1057
f 1048 1058 1057
f 1048 1049 1058
f 1049 1059 1058
f 1049 1050 1059
f 1050 1060 1059
f 1050 1051 1060
f 1051 1061 1060
f 1051 1052 1061
f 1052 1062 1061
f 1052 1053 1062
f 1053 1063 1062
f 1053 1054 1063
f 1054 1064 1063
f 1054 1045 1064
f 1045 1055 1064
f 1065 1066 1075
f 1066 1076 1075
f 1066 1067 1076
f 1067 1077 1076
f 1067 1068 1077
f 1068 1078 1077
f 1068 1069 1078
f 1069 1079 1078
f 1069 1070 1079
f 1070 1080 1079
f 1070 1071 1080
f 1071 1081 1080
f 1071 1072 1081
f 1072 1082 1081
f 1072 1073 1082
f 1073 1083 1082
f 1073 1074 1083
f 1074 1084 1083
f 1074 1065 1084
f 1065 1075 1084
f 1085 1086 1095
f 1086 1096 1095
f 1086 1087 1096
f 1087 1097 1096
f 1087 1088 1097
f 1088 1098 1097
f 1088 1089 1098
f 1089 1099 1098
f 1089 1090 1099
f 1090 1100 1099
f 1090 1091 1100
f 1091 1101 1100
f 1091 1092 1101
f 1092 1102 1101
f 1092 1093 1102
f 1093 1103 1102
f 1093 1094 1103
f 1094 1104 1103
f 1094 1085 1104
f 1085 1095 1104
f 1105 1106 1115
f 1106 1116 1115
f 1106 1107 1116
f 1107 1117 1116
f 1107 1108 1117
f 1108 1118 1117
f 1108 1109 1118
f 1109 1119 1118
f 1109 1110 1119
f 1110 1120 1119
f 1110 1111 1120
f 1111 1121 1120
f 1111 1112 1121
f 1112 1122 1121
f 1112 1113 1122
f 1113 1123 1122
f 1113 1114 1123
f 1114 1124 1123
f 1114 1105 1124
f 1105 1115 1124
f 1125 1126 1135
f 1126 1136 1135
f 1126 1127 1136
f 1127 1137 1136
f 1127 1128 1137
f 1128 1138 1137
f 1128 1129 1138
f 1129 1139 1138
f 1129 1130 1139
f 1130 1140 1139
f 1130 1131 1140
f 1131 1141 1140
f 1131 1132 1141
f 1132 1142 1141
f 1132 1133 1142
f 1133 1143 1142
f 1133 1134 1143
f 1134 1144 1143
f 1134 1125 1144
f 1125 1135 1144
f 1145 1146 1155
f 1146 1156 1155
f 1146 1147 1156
f 1147 1157 1156
f 1147 1148 1157
f 1148 1158 1157
f 1148 1149 1158
f 1149 1159 1158
f 1149 1150 1159
f 1150 1160 1159
f 1150 1151 1160
f 1151 1161 1160
f 1151 1152 1161
f 1152 1162 1161
f 1152 1153 1162
f 1153 1163 1162
f 1153 1154 1163
f 1154 1164 1163
f 1154 1145 1164
f 1145 1155 1164
f 1165 1166 1175
f 1166 1176 1175
f 1166 1167 1176
f 1167 1177 1176
f 1167 1168 1177
f 1168 1178 1177
f 1168 1169 1178
f 1169 1179 1178
f 1169 1170 1179
f 1170 1180 1179
f 1170 1171 1180
f 1171 1181 1180
f 1171 1172 1181
f 1172 1182 1181
f 1172 1173 1182
f 1173 1183 1182
f 1173 1174 1183
f 1174 1184 1183
f 1174 1165 1184
f 1165 1175 1184
