# Full-Body 3D Mesh - Frame 264
v 0.035599 -0.629490 -0.122129
v 0.069407 -0.629490 -0.126990
v 0.100476 -0.629490 -0.141179
v 0.126289 -0.629490 -0.163546
v 0.144755 -0.629490 -0.192279
v 0.154378 -0.629490 -0.225051
v 0.154378 -0.629490 -0.259207
v 0.144755 -0.629490 -0.291979
v 0.126289 -0.629490 -0.320712
v 0.100476 -0.629490 -0.343080
v 0.069407 -0.629490 -0.357268
v 0.035599 -0.629490 -0.362129
v 0.035599 -0.629490 -0.122129
v 0.064040 -0.611212 -0.126990
v 0.090177 -0.594415 -0.141179
v 0.111892 -0.580460 -0.163546
v 0.127427 -0.570476 -0.192279
v 0.135522 -0.565274 -0.225051
v 0.135522 -0.565274 -0.259207
v 0.127427 -0.570476 -0.291979
v 0.111892 -0.580460 -0.320712
v 0.090177 -0.594415 -0.343080
v 0.064040 -0.611212 -0.357268
v 0.035599 -0.629490 -0.362129
v 0.035599 -0.629490 -0.122129
v 0.049643 -0.598737 -0.126990
v 0.062550 -0.570476 -0.141179
v 0.073273 -0.546996 -0.163546
v 0.080944 -0.530199 -0.192279
v 0.084942 -0.521445 -0.225051
v 0.084942 -0.521445 -0.259207
v 0.080944 -0.530199 -0.291979
v 0.073273 -0.546996 -0.320712
v 0.062550 -0.570476 -0.343080
v 0.049643 -0.598737 -0.357268
v 0.035599 -0.629490 -0.362129
v 0.035599 -0.629490 -0.122129
v 0.030788 -0.596026 -0.126990
v 0.026366 -0.565274 -0.141179
v 0.022693 -0.539723 -0.163546
v 0.020065 -0.521445 -0.192279
v 0.018695 -0.511921 -0.225051
v 0.018695 -0.511921 -0.259207
v 0.020065 -0.521445 -0.291979
v 0.022693 -0.539723 -0.320712
v 0.026366 -0.565274 -0.343080
v 0.030788 -0.596026 -0.357268
v 0.035599 -0.629490 -0.362129
v 0.035599 -0.629490 -0.122129
v 0.013460 -0.603940 -0.126990
v -0.006886 -0.580460 -0.141179
v -0.023790 -0.560951 -0.163546
v -0.035883 -0.546996 -0.192279
v -0.042184 -0.539723 -0.225051
v -0.042184 -0.539723 -0.259207
v -0.035883 -0.546996 -0.291979
v -0.023790 -0.560951 -0.320712
v -0.006886 -0.580460 -0.343080
v 0.013460 -0.603940 -0.357268
v 0.035599 -0.629490 -0.362129
v 0.035599 -0.629490 -0.122129
v 0.003161 -0.619965 -0.126990
v -0.026650 -0.611212 -0.141179
v -0.051417 -0.603940 -0.163546
v -0.069135 -0.598737 -0.192279
v -0.078368 -0.596026 -0.225051
v -0.078368 -0.596026 -0.259207
v -0.069135 -0.598737 -0.291979
v -0.051417 -0.603940 -0.320712
v -0.026650 -0.611212 -0.343080
v 0.003161 -0.619965 -0.357268
v 0.035599 -0.629490 -0.362129
v 0.035599 -0.629490 -0.122129
v 0.003161 -0.639015 -0.126990
v -0.026650 -0.647768 -0.141179
v -0.051417 -0.655041 -0.163546
v -0.069135 -0.660243 -0.192279
v -0.078368 -0.662954 -0.225051
v -0.078368 -0.662954 -0.259207
v -0.069135 -0.660243 -0.291979
v -0.051417 -0.655041 -0.320712
v -0.026650 -0.647768 -0.343080
v 0.003161 -0.639015 -0.357268
v 0.035599 -0.629490 -0.362129
v 0.035599 -0.629490 -0.122129
v 0.013460 -0.655041 -0.126990
v -0.006886 -0.678521 -0.141179
v -0.023790 -0.698029 -0.163546
v -0.035883 -0.711985 -0.192279
v -0.042184 -0.719257 -0.225051
v -0.042184 -0.719257 -0.259207
v -0.035883 -0.711985 -0.291979
v -0.023790 -0.698029 -0.320712
v -0.006886 -0.678521 -0.343080
v 0.013460 -0.655041 -0.357268
v 0.035599 -0.629490 -0.362129
v 0.035599 -0.629490 -0.122129
v 0.030788 -0.662954 -0.126990
v 0.026366 -0.693707 -0.141179
v 0.022693 -0.719257 -0.163546
v 0.020065 -0.737535 -0.192279
v 0.018695 -0.747060 -0.225051
v 0.018695 -0.747060 -0.259207
v 0.020065 -0.737535 -0.291979
v 0.022693 -0.719257 -0.320712
v 0.026366 -0.693707 -0.343080
v 0.030788 -0.662954 -0.357268
v 0.035599 -0.629490 -0.362129
v 0.035599 -0.629490 -0.122129
v 0.049643 -0.660243 -0.126990
v 0.062550 -0.688504 -0.141179
v 0.073273 -0.711985 -0.163546
v 0.080944 -0.728782 -0.192279
v 0.084942 -0.737535 -0.225051
v 0.084942 -0.737535 -0.259207
v 0.080944 -0.728782 -0.291979
v 0.073273 -0.711985 -0.320712
v 0.062550 -0.688504 -0.343080
v 0.049643 -0.660243 -0.357268
v 0.035599 -0.629490 -0.362129
v 0.035599 -0.629490 -0.122129
v 0.064040 -0.647768 -0.126990
v 0.090177 -0.664565 -0.141179
v 0.111892 -0.678521 -0.163546
v 0.127427 -0.688504 -0.192279
v 0.135522 -0.693707 -0.225051
v 0.135522 -0.693707 -0.259207
v 0.127427 -0.688504 -0.291979
v 0.111892 -0.678521 -0.320712
v 0.090177 -0.664565 -0.343080
v 0.064040 -0.647768 -0.357268
v 0.035599 -0.629490 -0.362129
v 0.035599 -0.629490 -0.122129
v 0.069407 -0.629490 -0.126990
v 0.100476 -0.629490 -0.141179
v 0.126289 -0.629490 -0.163546
v 0.144755 -0.629490 -0.192279
v 0.154378 -0.629490 -0.225051
v 0.154378 -0.629490 -0.259207
v 0.144755 -0.629490 -0.291979
v 0.126289 -0.629490 -0.320712
v 0.100476 -0.629490 -0.343080
v 0.069407 -0.629490 -0.357268
v 0.035599 -0.629490 -0.362129
v 0.187892 -0.442604 -0.081966
v 0.187510 -0.466115 -0.074336
v 0.186566 -0.480646 -0.054359
v 0.185420 -0.480646 -0.029664
v 0.184509 -0.466115 -0.009685
v 0.184183 -0.442604 -0.002052
v 0.184565 -0.419092 -0.009682
v 0.185509 -0.404561 -0.029660
v 0.186656 -0.404561 -0.054354
v 0.187566 -0.419092 -0.074334
v -0.151158 -0.442203 -0.097705
v -0.151540 -0.465714 -0.090075
v -0.152484 -0.480245 -0.070098
v -0.153630 -0.480245 -0.045403
v -0.154541 -0.465714 -0.025423
v -0.154867 -0.442203 -0.017791
v -0.154485 -0.418691 -0.025421
v -0.153541 -0.404160 -0.045399
v -0.152394 -0.404160 -0.070093
v -0.151484 -0.418691 -0.090073
v 0.186038 -0.452485 -0.080769
v 0.163031 -0.445901 -0.074564
v 0.148813 -0.438057 -0.055924
v 0.148813 -0.431950 -0.031969
v 0.163031 -0.429912 -0.011849
v 0.186038 -0.432722 -0.003249
v 0.209044 -0.439306 -0.009454
v 0.223263 -0.447150 -0.028094
v 0.223263 -0.453257 -0.052049
v 0.209044 -0.455295 -0.072169
v 0.239000 -0.208901 -0.142868
v 0.215993 -0.202317 -0.136663
v 0.201775 -0.194474 -0.118023
v 0.201775 -0.188367 -0.094068
v 0.215993 -0.186329 -0.073947
v 0.239000 -0.189139 -0.065347
v 0.262006 -0.195723 -0.071553
v 0.276225 -0.203566 -0.090193
v 0.276225 -0.209673 -0.114148
v 0.262006 -0.211711 -0.134268
v 0.239000 -0.238445 -0.110868
v 0.217658 -0.232582 -0.099853
v 0.204469 -0.213901 -0.090463
v 0.204469 -0.189535 -0.086285
v 0.217658 -0.168792 -0.088915
v 0.239000 -0.159595 -0.097348
v 0.260341 -0.165457 -0.108362
v 0.273531 -0.184139 -0.117752
v 0.273531 -0.208505 -0.121930
v 0.260341 -0.229248 -0.119301
v 0.172730 -0.214217 -0.252160
v 0.151389 -0.208355 -0.241145
v 0.138199 -0.189673 -0.231755
v 0.138199 -0.165307 -0.227577
v 0.151389 -0.144565 -0.230207
v 0.172730 -0.135368 -0.238639
v 0.194071 -0.141230 -0.249654
v 0.207261 -0.159912 -0.259044
v 0.207261 -0.184278 -0.263222
v 0.194071 -0.205020 -0.260592
v -0.153012 -0.462243 -0.092366
v -0.174492 -0.466691 -0.080964
v -0.187766 -0.461785 -0.060694
v -0.187766 -0.449400 -0.039299
v -0.174492 -0.434265 -0.024951
v -0.153012 -0.422162 -0.023130
v -0.131533 -0.417714 -0.034532
v -0.118258 -0.422620 -0.054802
v -0.118258 -0.435006 -0.076197
v -0.131533 -0.450140 -0.090545
v -0.272662 -0.229638 -0.227020
v -0.294141 -0.234086 -0.215618
v -0.307416 -0.229181 -0.195349
v -0.307416 -0.216795 -0.173954
v -0.294141 -0.201661 -0.159605
v -0.272662 -0.189558 -0.157785
v -0.251183 -0.185110 -0.169187
v -0.237908 -0.190015 -0.189456
v -0.237908 -0.202401 -0.210851
v -0.251183 -0.217535 -0.225199
v -0.272662 -0.245282 -0.174329
v -0.292773 -0.243970 -0.188646
v -0.305203 -0.229529 -0.204397
v -0.305203 -0.207475 -0.215567
v -0.292773 -0.186232 -0.217889
v -0.272662 -0.173914 -0.210476
v -0.252551 -0.175226 -0.196159
v -0.240121 -0.189667 -0.180408
v -0.240121 -0.211721 -0.169238
v -0.252551 -0.232964 -0.166916
v -0.127888 -0.353301 -0.387606
v -0.147999 -0.351988 -0.401922
v -0.160429 -0.337547 -0.417673
v -0.160429 -0.315493 -0.428843
v -0.147999 -0.294250 -0.431165
v -0.127888 -0.281932 -0.423752
v -0.107777 -0.283245 -0.409435
v -0.095347 -0.297686 -0.393684
v -0.095347 -0.319740 -0.382514
v -0.107777 -0.340983 -0.380192
v 0.186038 -0.437930 -0.081735
v 0.162792 -0.442322 -0.074560
v 0.148425 -0.446822 -0.054951
v 0.148425 -0.449711 -0.030399
v 0.162792 -0.449885 -0.010282
v 0.186038 -0.447277 -0.002283
v 0.209283 -0.442885 -0.009458
v 0.223650 -0.438385 -0.029067
v 0.223650 -0.435496 -0.053619
v 0.209283 -0.435323 -0.073736
v 0.117722 0.009618 -0.029082
v 0.094476 0.005226 -0.021907
v 0.080109 0.000726 -0.002298
v 0.080109 -0.002163 0.022254
v 0.094476 -0.002337 0.042371
v 0.117722 0.000271 0.050370
v 0.140968 0.004663 0.043195
v 0.155334 0.009163 0.023586
v 0.155334 0.012052 -0.000966
v 0.140968 0.012225 -0.021083
v -0.153012 -0.437625 -0.097485
v -0.176443 -0.436571 -0.089674
v -0.190925 -0.437667 -0.069668
v -0.190925 -0.440496 -0.045109
v -0.176443 -0.443977 -0.025378
v -0.153012 -0.446780 -0.018011
v -0.129581 -0.447834 -0.025822
v -0.115100 -0.446738 -0.045828
v -0.115100 -0.443909 -0.070387
v -0.129581 -0.440428 -0.090118
v -0.117380 -0.010430 -0.048278
v -0.140811 -0.009375 -0.040467
v -0.155292 -0.010472 -0.020461
v -0.155292 -0.013301 0.004098
v -0.140811 -0.016781 0.023829
v -0.117380 -0.019584 0.031196
v -0.093949 -0.020639 0.023385
v -0.079468 -0.019543 0.003379
v -0.079468 -0.016714 -0.021180
v -0.093949 -0.013233 -0.040912
v 0.120975 0.004944 -0.029223
v 0.122329 -0.018483 -0.021448
v 0.121923 -0.032963 -0.001415
v 0.119912 -0.032963 0.023225
v 0.117065 -0.018483 0.043059
v 0.114468 0.004944 0.050512
v 0.113115 0.028372 0.042736
v 0.113521 0.042851 0.022703
v 0.115531 0.042851 -0.001936
v 0.118379 0.028372 -0.021771
v -0.114127 -0.015007 -0.048409
v -0.112773 -0.038435 -0.040634
v -0.113179 -0.052914 -0.020600
v -0.115190 -0.052914 0.004039
v -0.118037 -0.038435 0.023873
v -0.120633 -0.015007 0.031326
v -0.121987 0.008420 0.023551
v -0.121581 0.022900 0.003518
v -0.119570 0.022900 -0.021122
v -0.116723 0.008420 -0.040956
v 0.117722 0.001952 -0.029244
v 0.094212 0.002249 -0.021605
v 0.079682 0.003576 -0.001649
v 0.079682 0.005426 0.023003
v 0.094212 0.007091 0.042935
v 0.117722 0.007937 0.050532
v 0.141232 0.007639 0.042894
v 0.155761 0.006313 0.022937
v 0.155761 0.004463 -0.001715
v 0.141232 0.002797 -0.021646
v 0.115052 0.229631 -0.046325
v 0.091543 0.229929 -0.038687
v 0.077013 0.231255 -0.018730
v 0.077013 0.233105 0.005922
v 0.091543 0.234771 0.025853
v 0.115052 0.235616 0.033451
v 0.138562 0.235319 0.025812
v 0.153092 0.233992 0.005856
v 0.153092 0.232142 -0.018797
v 0.138562 0.230477 -0.038728
v 0.115052 0.252223 -0.041306
v 0.091631 0.250270 -0.033641
v 0.077156 0.241577 -0.015584
v 0.077156 0.229464 0.005966
v 0.091631 0.218558 0.022779
v 0.115052 0.213024 0.028432
v 0.138474 0.214977 0.020766
v 0.152949 0.223670 0.002710
v 0.152949 0.235783 -0.018841
v 0.138474 0.246690 -0.035653
v 0.144616 0.546118 0.123887
v 0.121194 0.544165 0.131553
v 0.106719 0.535472 0.149610
v 0.106719 0.523359 0.171160
v 0.121194 0.512452 0.187973
v 0.144616 0.506919 0.193626
v 0.168037 0.508872 0.185960
v 0.182513 0.517565 0.167903
v 0.182513 0.529678 0.146353
v 0.168037 0.540584 0.129540
v -0.117380 -0.047747 -0.031522
v -0.140889 -0.041296 -0.027415
v -0.155418 -0.024804 -0.016099
v -0.155418 -0.004570 -0.001895
v -0.140889 0.011677 0.009769
v -0.117380 0.017732 0.014440
v -0.093871 0.011282 0.010333
v -0.079342 -0.005210 -0.000984
v -0.079342 -0.025444 -0.015187
v -0.093871 -0.041692 -0.026852
v -0.114769 0.054699 -0.177468
v -0.138278 0.061149 -0.173361
v -0.152807 0.077641 -0.162044
v -0.152807 0.097875 -0.147841
v -0.138278 0.114123 -0.136177
v -0.114769 0.120178 -0.131506
v -0.091260 0.113727 -0.135613
v -0.076731 0.097235 -0.146930
v -0.076731 0.077001 -0.161133
v -0.091260 0.060754 -0.172797
v -0.114769 0.080541 -0.193888
v -0.137951 0.085725 -0.187040
v -0.152277 0.091564 -0.167758
v -0.152277 0.095826 -0.143407
v -0.137951 0.096885 -0.123288
v -0.114769 0.094336 -0.115086
v -0.091588 0.089152 -0.121934
v -0.077261 0.083313 -0.141216
v -0.077261 0.079050 -0.165567
v -0.091588 0.077992 -0.185686
v -0.070146 0.340107 -0.239326
v -0.093327 0.345291 -0.232478
v -0.107654 0.351129 -0.213196
v -0.107654 0.355392 -0.188845
v -0.093327 0.356451 -0.168726
v -0.070146 0.353902 -0.160524
v -0.046964 0.348718 -0.167372
v -0.032637 0.342879 -0.186654
v -0.032637 0.338616 -0.211005
v -0.046964 0.337557 -0.231124
v -0.027485 0.074595 0.068570
v -0.032761 0.069054 0.063335
v -0.036021 0.067711 0.054761
v -0.036021 0.071079 0.046124
v -0.032761 0.077871 0.040722
v -0.027485 0.085493 0.040619
v -0.022210 0.091034 0.045854
v -0.018949 0.092378 0.054428
v -0.018949 0.089010 0.063065
v -0.022210 0.082218 0.068467
v 0.004815 0.052122 0.059807
v -0.000461 0.046581 0.054572
v -0.003721 0.045237 0.045999
v -0.003721 0.048605 0.037361
v -0.000461 0.055397 0.031960
v 0.004815 0.063019 0.031857
v 0.010090 0.068561 0.037092
v 0.013351 0.069904 0.045666
v 0.013351 0.066536 0.054303
v 0.010090 0.059744 0.059705
v 0.004815 0.051632 0.059607
v -0.000588 0.046368 0.054218
v -0.003927 0.045383 0.045626
v -0.003927 0.049053 0.037112
v -0.000588 0.055976 0.031930
v 0.004815 0.063509 0.032058
v 0.010217 0.068773 0.037447
v 0.013556 0.069758 0.046039
v 0.013556 0.066088 0.054552
v 0.010217 0.059165 0.059734
v 0.030630 0.033251 0.051683
v 0.025227 0.027987 0.046294
v 0.021888 0.027002 0.037702
v 0.021888 0.030672 0.029188
v 0.025227 0.037595 0.024006
v 0.030630 0.045128 0.024134
v 0.036032 0.050392 0.029523
v 0.039371 0.051377 0.038115
v 0.039371 0.047707 0.046628
v 0.036032 0.040784 0.051810
v 0.030630 0.027051 0.046721
v 0.024116 0.025878 0.040229
v 0.020091 0.029790 0.032851
v 0.020091 0.037292 0.027404
v 0.024116 0.045518 0.025970
v 0.030630 0.051328 0.029095
v 0.037143 0.052501 0.035587
v 0.041169 0.048589 0.042966
v 0.041169 0.041088 0.048412
v 0.037143 0.032861 0.049846
v 0.055387 0.011109 0.024762
v 0.048874 0.009936 0.018270
v 0.044848 0.013847 0.010892
v 0.044848 0.021349 0.005446
v 0.048874 0.029576 0.004011
v 0.055387 0.035386 0.007137
v 0.061900 0.036559 0.013629
v 0.065926 0.032647 0.021007
v 0.065926 0.025145 0.026453
v 0.061900 0.016918 0.027888
v 0.055387 0.014078 0.027821
v 0.048467 0.011506 0.022214
v 0.044190 0.013418 0.014215
v 0.044190 0.019085 0.006878
v 0.048467 0.026342 0.003006
v 0.055387 0.032416 0.004078
v 0.062307 0.034989 0.009685
v 0.066584 0.033077 0.017685
v 0.066584 0.027410 0.025021
v 0.062307 0.020153 0.028893
v 0.072912 -0.003491 0.014251
v 0.065992 -0.006063 0.008644
v 0.061715 -0.004151 0.000645
v 0.061715 0.001516 -0.006692
v 0.065992 0.008773 -0.010564
v 0.072912 0.014847 -0.009492
v 0.079833 0.017420 -0.003885
v 0.084109 0.015508 0.004115
v 0.084109 0.009841 0.011452
v 0.079833 0.002584 0.015323
v -0.027485 0.074136 0.068382
v -0.035469 0.071825 0.064275
v -0.040403 0.072654 0.056470
v -0.040403 0.076306 0.047949
v -0.035469 0.081385 0.041967
v -0.027485 0.085953 0.040807
v -0.019502 0.088263 0.044914
v -0.014568 0.087435 0.052718
v -0.014568 0.083783 0.061240
v -0.019502 0.078703 0.067222
v 0.018407 -0.015871 0.029812
v 0.010423 -0.018182 0.025705
v 0.005489 -0.017353 0.017900
v 0.005489 -0.013702 0.009379
v 0.010423 -0.008622 0.003396
v 0.018407 -0.004054 0.002237
v 0.026390 -0.001744 0.006344
v 0.031325 -0.002572 0.014148
v 0.031325 -0.006224 0.022669
v 0.026390 -0.011304 0.028652
v 0.018407 -0.021364 0.025772
v 0.009850 -0.020568 0.022295
v 0.004562 -0.015721 0.016422
v 0.004562 -0.008675 0.010398
v 0.009850 -0.002120 0.006522
v 0.018407 0.001438 0.006276
v 0.026964 0.000642 0.009754
v 0.032252 -0.004205 0.015626
v 0.032252 -0.011251 0.021650
v 0.026964 -0.017805 0.025526
v 0.024745 -0.037944 0.006380
v 0.016188 -0.037147 0.002903
v 0.010900 -0.032301 -0.002970
v 0.010900 -0.025254 -0.008994
v 0.016188 -0.018700 -0.012869
v 0.024745 -0.015142 -0.013116
v 0.033301 -0.015938 -0.009638
v 0.038590 -0.020785 -0.003766
v 0.038590 -0.027831 0.002258
v 0.033301 -0.034385 0.006134
v 0.024745 -0.033726 0.009800
v 0.016581 -0.035278 0.005691
v 0.011536 -0.033493 -0.001879
v 0.011536 -0.029053 -0.010017
v 0.016581 -0.023655 -0.015616
v 0.024745 -0.019359 -0.016536
v 0.032908 -0.017808 -0.012426
v 0.037954 -0.019592 -0.004856
v 0.037954 -0.024032 0.003282
v 0.032908 -0.029430 0.008880
v 0.031883 -0.049086 0.001421
v 0.023719 -0.050638 -0.002689
v 0.018674 -0.048853 -0.010258
v 0.018674 -0.044414 -0.018397
v 0.023719 -0.039015 -0.023995
v 0.031883 -0.034720 -0.024915
v 0.040046 -0.033168 -0.020805
v 0.045092 -0.034953 -0.013236
v 0.045092 -0.039392 -0.005097
v 0.040046 -0.044791 0.000501
v 0.031883 -0.053902 -0.002745
v 0.023385 -0.053020 -0.006344
v 0.018133 -0.047893 -0.012007
v 0.018133 -0.040477 -0.017570
v 0.023385 -0.033606 -0.020909
v 0.031883 -0.029904 -0.020749
v 0.040381 -0.030786 -0.017150
v 0.045633 -0.035914 -0.011487
v 0.045633 -0.043329 -0.005924
v 0.040381 -0.050200 -0.002585
v 0.039335 -0.070077 -0.024306
v 0.030837 -0.069195 -0.027904
v 0.025585 -0.064067 -0.033567
v 0.025585 -0.056652 -0.039130
v 0.030837 -0.049781 -0.042469
v 0.039335 -0.046079 -0.042309
v 0.047833 -0.046961 -0.038710
v 0.053085 -0.052089 -0.033048
v 0.053085 -0.059504 -0.027484
v 0.047833 -0.066375 -0.024145
v -0.027485 0.072450 0.067530
v -0.035995 0.071910 0.063891
v -0.041254 0.074477 0.056701
v -0.041254 0.079171 0.048707
v -0.035995 0.084198 0.042961
v -0.027485 0.087639 0.041659
v -0.018976 0.088179 0.045298
v -0.013717 0.085611 0.052488
v -0.013717 0.080918 0.060482
v -0.018976 0.075890 0.066228
v -0.000016 -0.014895 0.016249
v -0.008525 -0.015435 0.012610
v -0.013785 -0.012867 0.005420
v -0.013785 -0.008174 -0.002574
v -0.008525 -0.003147 -0.008320
v -0.000016 0.000294 -0.009622
v 0.008493 0.000834 -0.005983
v 0.013752 -0.001734 0.001207
v 0.013752 -0.006427 0.009201
v 0.008493 -0.011454 0.014947
v -0.000016 -0.020310 -0.004152
v -0.005733 -0.014485 -0.008548
v -0.009267 -0.005916 -0.008413
v -0.009267 0.002125 -0.003798
v -0.005733 0.006565 0.003532
v -0.000016 0.005709 0.010779
v 0.005701 -0.000116 0.015175
v 0.009235 -0.008685 0.015040
v 0.009235 -0.016726 0.010425
v 0.005701 -0.021166 0.003095
v 0.027531 -0.008631 -0.024505
v 0.021813 -0.002806 -0.028900
v 0.018280 0.005764 -0.028765
v 0.018280 0.013805 -0.024151
v 0.021813 0.018245 -0.016820
v 0.027531 0.017389 -0.009573
v 0.033248 0.011564 -0.005178
v 0.036782 0.002994 -0.005313
v 0.036782 -0.005046 -0.009927
v 0.033248 -0.009487 -0.017258
v 0.027531 0.006891 -0.031827
v 0.019210 0.009286 -0.028515
v 0.014068 0.009808 -0.020819
v 0.014068 0.008256 -0.011679
v 0.019210 0.005223 -0.004587
v 0.027531 0.001868 -0.002251
v 0.035851 -0.000528 -0.005563
v 0.040994 -0.001049 -0.013259
v 0.040994 0.000503 -0.022399
v 0.035851 0.003535 -0.029491
v 0.036934 0.033336 -0.027336
v 0.028613 0.035732 -0.024024
v 0.023471 0.036253 -0.016328
v 0.023471 0.034701 -0.007188
v 0.028613 0.031668 -0.000096
v 0.036934 0.028313 0.002240
v 0.045254 0.025917 -0.001072
v 0.050396 0.025396 -0.008768
v 0.050396 0.026948 -0.017908
v 0.045254 0.029981 -0.025000
v 0.036934 0.041340 -0.023245
v 0.028208 0.040233 -0.020316
v 0.022815 0.035533 -0.014419
v 0.022815 0.029034 -0.007808
v 0.028208 0.023219 -0.003007
v 0.036934 0.020309 -0.001851
v 0.045659 0.021416 -0.004780
v 0.051052 0.026116 -0.010677
v 0.051052 0.032615 -0.017288
v 0.045659 0.038430 -0.022089
v 0.041170 0.062187 -0.002753
v 0.032445 0.061081 0.000177
v 0.027052 0.056380 0.006073
v 0.027052 0.049882 0.012685
v 0.032445 0.044067 0.017485
v 0.041170 0.041157 0.018642
v 0.049896 0.042263 0.015712
v 0.055289 0.046963 0.009816
v 0.055289 0.053462 0.003205
v 0.049896 0.059277 -0.001596
v -0.027485 0.070216 0.065926
v -0.036206 0.071113 0.062912
v -0.041596 0.075422 0.056721
v -0.041596 0.081496 0.049718
v -0.036206 0.087016 0.044577
v -0.027485 0.089873 0.043263
v -0.018764 0.088976 0.046277
v -0.013375 0.084667 0.052468
v -0.013375 0.078592 0.059471
v -0.018764 0.073073 0.064612
v -0.012754 -0.004612 0.001021
v -0.021475 -0.003715 -0.001993
v -0.026865 0.000594 -0.008184
v -0.026865 0.006668 -0.015187
v -0.021475 0.012188 -0.020328
v -0.012754 0.015045 -0.021642
v -0.004033 0.014147 -0.018628
v 0.001357 0.009839 -0.012437
v 0.001357 0.003764 -0.005434
v -0.004033 -0.001756 -0.000294
v -0.012754 -0.006261 -0.019969
v -0.018807 0.000059 -0.023030
v -0.022547 0.008349 -0.021232
v -0.022547 0.015442 -0.015263
v -0.018807 0.018629 -0.007402
v -0.012754 0.016693 -0.000652
v -0.006701 0.010373 0.002408
v -0.002960 0.002083 0.000611
v -0.002960 -0.005010 -0.005359
v -0.006701 -0.008197 -0.013219
v 0.007823 0.006249 -0.034833
v 0.001770 0.012568 -0.037894
v -0.001971 0.020858 -0.036096
v -0.001971 0.027951 -0.030127
v 0.001770 0.031138 -0.022266
v 0.007823 0.029202 -0.015516
v 0.013876 0.022882 -0.012456
v 0.017616 0.014593 -0.014253
v 0.017616 0.007500 -0.020223
v 0.013876 0.004312 -0.028083
v 0.007823 0.025168 -0.038198
v -0.000522 0.026217 -0.034299
v -0.005680 0.024022 -0.026915
v -0.005680 0.019422 -0.018866
v -0.000522 0.014174 -0.013227
v 0.007823 0.010282 -0.012152
v 0.016168 0.009234 -0.016050
v 0.021326 0.011429 -0.023434
v 0.021326 0.016029 -0.031483
v 0.016168 0.021277 -0.037122
v 0.016547 0.047386 -0.025500
v 0.008202 0.048434 -0.021601
v 0.003044 0.046239 -0.014217
v 0.003044 0.041639 -0.006168
v 0.008202 0.036391 -0.000529
v 0.016547 0.032499 0.000546
v 0.024892 0.031451 -0.003352
v 0.030050 0.033646 -0.010737
v 0.030050 0.038246 -0.018785
v 0.024892 0.043494 -0.024424
v 0.016547 0.052636 -0.020469
v 0.007737 0.050026 -0.019238
v 0.002292 0.043564 -0.015424
v 0.002292 0.035719 -0.010485
v 0.007737 0.029487 -0.006306
v 0.016547 0.027249 -0.004485
v 0.025357 0.029859 -0.005716
v 0.030802 0.036321 -0.009529
v 0.030802 0.044166 -0.014468
v 0.025357 0.050398 -0.018647
v 0.015479 0.066987 0.002325
v 0.006670 0.064377 0.003556
v 0.001225 0.057915 0.007369
v 0.001225 0.050070 0.012308
v 0.006670 0.043838 0.016487
v 0.015479 0.041600 0.018309
v 0.024289 0.044210 0.017078
v 0.029734 0.050672 0.013265
v 0.029734 0.058517 0.008325
v 0.024289 0.064749 0.004147
v -0.027485 0.068230 0.063837
v -0.036301 0.070405 0.061968
v -0.041750 0.076262 0.057283
v -0.041750 0.083564 0.051571
v -0.036301 0.089522 0.047014
v -0.027485 0.091859 0.045352
v -0.018670 0.089683 0.047221
v -0.013221 0.083826 0.051906
v -0.013221 0.076524 0.057618
v -0.018670 0.070567 0.062175
v -0.026112 0.011447 -0.008751
v -0.034928 0.013623 -0.010620
v -0.040376 0.019480 -0.015305
v -0.040376 0.026782 -0.021017
v -0.034928 0.032739 -0.025574
v -0.026112 0.035076 -0.027235
v -0.017296 0.032901 -0.025367
v -0.011848 0.027044 -0.020682
v -0.011848 0.019742 -0.014970
v -0.017296 0.013785 -0.010413
v -0.026112 0.010088 -0.025165
v -0.031435 0.015964 -0.029969
v -0.034725 0.024628 -0.030198
v -0.034725 0.032771 -0.025765
v -0.031435 0.037281 -0.018364
v -0.026112 0.036436 -0.010821
v -0.020789 0.030559 -0.006018
v -0.017499 0.021895 -0.005789
v -0.017499 0.013753 -0.010221
v -0.020789 0.009243 -0.017623
v -0.007892 0.016685 -0.037285
v -0.013215 0.022562 -0.042088
v -0.016505 0.031226 -0.042317
v -0.016505 0.039368 -0.037884
v -0.013215 0.043878 -0.030483
v -0.007892 0.043034 -0.022940
v -0.002569 0.037157 -0.018137
v 0.000721 0.028493 -0.017908
v 0.000721 0.020351 -0.022341
v -0.002569 0.015841 -0.029742
v -0.007892 0.038816 -0.042145
v -0.014820 0.041480 -0.036590
v -0.019101 0.039706 -0.028562
v -0.019101 0.034170 -0.021125
v -0.014820 0.026988 -0.017122
v -0.007892 0.020903 -0.018080
v -0.000964 0.018239 -0.023634
v 0.003317 0.020013 -0.031663
v 0.003317 0.025549 -0.039100
v -0.000964 0.032731 -0.043103
v 0.005437 0.052398 -0.032035
v -0.001490 0.055063 -0.026480
v -0.005772 0.053288 -0.018451
v -0.005772 0.047753 -0.011015
v -0.001490 0.040571 -0.007011
v 0.005437 0.034485 -0.007970
v 0.012365 0.031821 -0.013524
v 0.016647 0.033596 -0.021553
v 0.016647 0.039131 -0.028990
v 0.012365 0.046313 -0.032993
v 0.005437 0.053471 -0.031157
v -0.003297 0.052451 -0.028221
v -0.008695 0.047990 -0.022147
v -0.008695 0.041791 -0.015253
v -0.003297 0.036224 -0.010173
v 0.005437 0.033413 -0.008848
v 0.014172 0.034433 -0.011783
v 0.019570 0.038894 -0.017858
v 0.019570 0.045092 -0.024752
v 0.014172 0.050660 -0.029831
v 0.008311 0.068970 -0.017221
v -0.000423 0.067950 -0.014286
v -0.005821 0.063489 -0.008211
v -0.005821 0.057291 -0.001317
v -0.000423 0.051723 0.003762
v 0.008311 0.048912 0.005087
v 0.017045 0.049932 0.002152
v 0.022443 0.054393 -0.003923
v 0.022443 0.060591 -0.010816
v 0.017045 0.066159 -0.015896
f 1 2 13
f 2 14 13
f 2 3 14
f 3 15 14
f 3 4 15
f 4 16 15
f 4 5 16
f 5 17 16
f 5 6 17
f 6 18 17
f 6 7 18
f 7 19 18
f 7 8 19
f 8 20 19
f 8 9 20
f 9 21 20
f 9 10 21
f 10 22 21
f 10 11 22
f 11 23 22
f 11 12 23
f 12 24 23
f 13 14 25
f 14 26 25
f 14 15 26
f 15 27 26
f 15 16 27
f 16 28 27
f 16 17 28
f 17 29 28
f 17 18 29
f 18 30 29
f 18 19 30
f 19 31 30
f 19 20 31
f 20 32 31
f 20 21 32
f 21 33 32
f 21 22 33
f 22 34 33
f 22 23 34
f 23 35 34
f 23 24 35
f 24 36 35
f 25 26 37
f 26 38 37
f 26 27 38
f 27 39 38
f 27 28 39
f 28 40 39
f 28 29 40
f 29 41 40
f 29 30 41
f 30 42 41
f 30 31 42
f 31 43 42
f 31 32 43
f 32 44 43
f 32 33 44
f 33 45 44
f 33 34 45
f 34 46 45
f 34 35 46
f 35 47 46
f 35 36 47
f 36 48 47
f 37 38 49
f 38 50 49
f 38 39 50
f 39 51 50
f 39 40 51
f 40 52 51
f 40 41 52
f 41 53 52
f 41 42 53
f 42 54 53
f 42 43 54
f 43 55 54
f 43 44 55
f 44 56 55
f 44 45 56
f 45 57 56
f 45 46 57
f 46 58 57
f 46 47 58
f 47 59 58
f 47 48 59
f 48 60 59
f 49 50 61
f 50 62 61
f 50 51 62
f 51 63 62
f 51 52 63
f 52 64 63
f 52 53 64
f 53 65 64
f 53 54 65
f 54 66 65
f 54 55 66
f 55 67 66
f 55 56 67
f 56 68 67
f 56 57 68
f 57 69 68
f 57 58 69
f 58 70 69
f 58 59 70
f 59 71 70
f 59 60 71
f 60 72 71
f 61 62 73
f 62 74 73
f 62 63 74
f 63 75 74
f 63 64 75
f 64 76 75
f 64 65 76
f 65 77 76
f 65 66 77
f 66 78 77
f 66 67 78
f 67 79 78
f 67 68 79
f 68 80 79
f 68 69 80
f 69 81 80
f 69 70 81
f 70 82 81
f 70 71 82
f 71 83 82
f 71 72 83
f 72 84 83
f 73 74 85
f 74 86 85
f 74 75 86
f 75 87 86
f 75 76 87
f 76 88 87
f 76 77 88
f 77 89 88
f 77 78 89
f 78 90 89
f 78 79 90
f 79 91 90
f 79 80 91
f 80 92 91
f 80 81 92
f 81 93 92
f 81 82 93
f 82 94 93
f 82 83 94
f 83 95 94
f 83 84 95
f 84 96 95
f 85 86 97
f 86 98 97
f 86 87 98
f 87 99 98
f 87 88 99
f 88 100 99
f 88 89 100
f 89 101 100
f 89 90 101
f 90 102 101
f 90 91 102
f 91 103 102
f 91 92 103
f 92 104 103
f 92 93 104
f 93 105 104
f 93 94 105
f 94 106 105
f 94 95 106
f 95 107 106
f 95 96 107
f 96 108 107
f 97 98 109
f 98 110 109
f 98 99 110
f 99 111 110
f 99 100 111
f 100 112 111
f 100 101 112
f 101 113 112
f 101 102 113
f 102 114 113
f 102 103 114
f 103 115 114
f 103 104 115
f 104 116 115
f 104 105 116
f 105 117 116
f 105 106 117
f 106 118 117
f 106 107 118
f 107 119 118
f 107 108 119
f 108 120 119
f 109 110 121
f 110 122 121
f 110 111 122
f 111 123 122
f 111 112 123
f 112 124 123
f 112 113 124
f 113 125 124
f 113 114 125
f 114 126 125
f 114 115 126
f 115 127 126
f 115 116 127
f 116 128 127
f 116 117 128
f 117 129 128
f 117 118 129
f 118 130 129
f 118 119 130
f 119 131 130
f 119 120 131
f 120 132 131
f 121 122 133
f 122 134 133
f 122 123 134
f 123 135 134
f 123 124 135
f 124 136 135
f 124 125 136
f 125 137 136
f 125 126 137
f 126 138 137
f 126 127 138
f 127 139 138
f 127 128 139
f 128 140 139
f 128 129 140
f 129 141 140
f 129 130 141
f 130 142 141
f 130 131 142
f 131 143 142
f 131 132 143
f 132 144 143
f 145 146 155
f 146 156 155
f 146 147 156
f 147 157 156
f 147 148 157
f 148 158 157
f 148 149 158
f 149 159 158
f 149 150 159
f 150 160 159
f 150 151 160
f 151 161 160
f 151 152 161
f 152 162 161
f 152 153 162
f 153 163 162
f 153 154 163
f 154 164 163
f 154 145 164
f 145 155 164
f 165 166 175
f 166 176 175
f 166 167 176
f 167 177 176
f 167 168 177
f 168 178 177
f 168 169 178
f 169 179 178
f 169 170 179
f 170 180 179
f 170 171 180
f 171 181 180
f 171 172 181
f 172 182 181
f 172 173 182
f 173 183 182
f 173 174 183
f 174 184 183
f 174 165 184
f 165 175 184
f 185 186 195
f 186 196 195
f 186 187 196
f 187 197 196
f 187 188 197
f 188 198 197
f 188 189 198
f 189 199 198
f 189 190 199
f 190 200 199
f 190 191 200
f 191 201 200
f 191 192 201
f 192 202 201
f 192 193 202
f 193 203 202
f 193 194 203
f 194 204 203
f 194 185 204
f 185 195 204
f 205 206 215
f 206 216 215
f 206 207 216
f 207 217 216
f 207 208 217
f 208 218 217
f 208 209 218
f 209 219 218
f 209 210 219
f 210 220 219
f 210 211 220
f 211 221 220
f 211 212 221
f 212 222 221
f 212 213 222
f 213 223 222
f 213 214 223
f 214 224 223
f 214 205 224
f 205 215 224
f 225 226 235
f 226 236 235
f 226 227 236
f 227 237 236
f 227 228 237
f 228 238 237
f 228 229 238
f 229 239 238
f 229 230 239
f 230 240 239
f 230 231 240
f 231 241 240
f 231 232 241
f 232 242 241
f 232 233 242
f 233 243 242
f 233 234 243
f 234 244 243
f 234 225 244
f 225 235 244
f 245 246 255
f 246 256 255
f 246 247 256
f 247 257 256
f 247 248 257
f 248 258 257
f 248 249 258
f 249 259 258
f 249 250 259
f 250 260 259
f 250 251 260
f 251 261 260
f 251 252 261
f 252 262 261
f 252 253 262
f 253 263 262
f 253 254 263
f 254 264 263
f 254 245 264
f 245 255 264
f 265 266 275
f 266 276 275
f 266 267 276
f 267 277 276
f 267 268 277
f 268 278 277
f 268 269 278
f 269 279 278
f 269 270 279
f 270 280 279
f 270 271 280
f 271 281 280
f 271 272 281
f 272 282 281
f 272 273 282
f 273 283 282
f 273 274 283
f 274 284 283
f 274 265 284
f 265 275 284
f 285 286 295
f 286 296 295
f 286 287 296
f 287 297 296
f 287 288 297
f 288 298 297
f 288 289 298
f 289 299 298
f 289 290 299
f 290 300 299
f 290 291 300
f 291 301 300
f 291 292 301
f 292 302 301
f 292 293 302
f 293 303 302
f 293 294 303
f 294 304 303
f 294 285 304
f 285 295 304
f 305 306 315
f 306 316 315
f 306 307 316
f 307 317 316
f 307 308 317
f 308 318 317
f 308 309 318
f 309 319 318
f 309 310 319
f 310 320 319
f 310 311 320
f 311 321 320
f 311 312 321
f 312 322 321
f 312 313 322
f 313 323 322
f 313 314 323
f 314 324 323
f 314 305 324
f 305 315 324
f 325 326 335
f 326 336 335
f 326 327 336
f 327 337 336
f 327 328 337
f 328 338 337
f 328 329 338
f 329 339 338
f 329 330 339
f 330 340 339
f 330 331 340
f 331 341 340
f 331 332 341
f 332 342 341
f 332 333 342
f 333 343 342
f 333 334 343
f 334 344 343
f 334 325 344
f 325 335 344
f 345 346 355
f 346 356 355
f 346 347 356
f 347 357 356
f 347 348 357
f 348 358 357
f 348 349 358
f 349 359 358
f 349 350 359
f 350 360 359
f 350 351 360
f 351 361 360
f 351 352 361
f 352 362 361
f 352 353 362
f 353 363 362
f 353 354 363
f 354 364 363
f 354 345 364
f 345 355 364
f 365 366 375
f 366 376 375
f 366 367 376
f 367 377 376
f 367 368 377
f 368 378 377
f 368 369 378
f 369 379 378
f 369 370 379
f 370 380 379
f 370 371 380
f 371 381 380
f 371 372 381
f 372 382 381
f 372 373 382
f 373 383 382
f 373 374 383
f 374 384 383
f 374 365 384
f 365 375 384
f 385 386 395
f 386 396 395
f 386 387 396
f 387 397 396
f 387 388 397
f 388 398 397
f 388 389 398
f 389 399 398
f 389 390 399
f 390 400 399
f 390 391 400
f 391 401 400
f 391 392 401
f 392 402 401
f 392 393 402
f 393 403 402
f 393 394 403
f 394 404 403
f 394 385 404
f 385 395 404
f 405 406 415
f 406 416 415
f 406 407 416
f 407 417 416
f 407 408 417
f 408 418 417
f 408 409 418
f 409 419 418
f 409 410 419
f 410 420 419
f 410 411 420
f 411 421 420
f 411 412 421
f 412 422 421
f 412 413 422
f 413 423 422
f 413 414 423
f 414 424 423
f 414 405 424
f 405 415 424
f 425 426 435
f 426 436 435
f 426 427 436
f 427 437 436
f 427 428 437
f 428 438 437
f 428 429 438
f 429 439 438
f 429 430 439
f 430 440 439
f 430 431 440
f 431 441 440
f 431 432 441
f 432 442 441
f 432 433 442
f 433 443 442
f 433 434 443
f 434 444 443
f 434 425 444
f 425 435 444
f 445 446 455
f 446 456 455
f 446 447 456
f 447 457 456
f 447 448 457
f 448 458 457
f 448 449 458
f 449 459 458
f 449 450 459
f 450 460 459
f 450 451 460
f 451 461 460
f 451 452 461
f 452 462 461
f 452 453 462
f 453 463 462
f 453 454 463
f 454 464 463
f 454 445 464
f 445 455 464
f 465 466 475
f 466 476 475
f 466 467 476
f 467 477 476
f 467 468 477
f 468 478 477
f 468 469 478
f 469 479 478
f 469 470 479
f 470 480 479
f 470 471 480
f 471 481 480
f 471 472 481
f 472 482 481
f 472 473 482
f 473 483 482
f 473 474 483
f 474 484 483
f 474 465 484
f 465 475 484
f 485 486 495
f 486 496 495
f 486 487 496
f 487 497 496
f 487 488 497
f 488 498 497
f 488 489 498
f 489 499 498
f 489 490 499
f 490 500 499
f 490 491 500
f 491 501 500
f 491 492 501
f 492 502 501
f 492 493 502
f 493 503 502
f 493 494 503
f 494 504 503
f 494 485 504
f 485 495 504
f 505 506 515
f 506 516 515
f 506 507 516
f 507 517 516
f 507 508 517
f 508 518 517
f 508 509 518
f 509 519 518
f 509 510 519
f 510 520 519
f 510 511 520
f 511 521 520
f 511 512 521
f 512 522 521
f 512 513 522
f 513 523 522
f 513 514 523
f 514 524 523
f 514 505 524
f 505 515 524
f 525 526 535
f 526 536 535
f 526 527 536
f 527 537 536
f 527 528 537
f 528 538 537
f 528 529 538
f 529 539 538
f 529 530 539
f 530 540 539
f 530 531 540
f 531 541 540
f 531 532 541
f 532 542 541
f 532 533 542
f 533 543 542
f 533 534 543
f 534 544 543
f 534 525 544
f 525 535 544
f 545 546 555
f 546 556 555
f 546 547 556
f 547 557 556
f 547 548 557
f 548 558 557
f 548 549 558
f 549 559 558
f 549 550 559
f 550 560 559
f 550 551 560
f 551 561 560
f 551 552 561
f 552 562 561
f 552 553 562
f 553 563 562
f 553 554 563
f 554 564 563
f 554 545 564
f 545 555 564
f 565 566 575
f 566 576 575
f 566 567 576
f 567 577 576
f 567 568 577
f 568 578 577
f 568 569 578
f 569 579 578
f 569 570 579
f 570 580 579
f 570 571 580
f 571 581 580
f 571 572 581
f 572 582 581
f 572 573 582
f 573 583 582
f 573 574 583
f 574 584 583
f 574 565 584
f 565 575 584
f 585 586 595
f 586 596 595
f 586 587 596
f 587 597 596
f 587 588 597
f 588 598 597
f 588 589 598
f 589 599 598
f 589 590 599
f 590 600 599
f 590 591 600
f 591 601 600
f 591 592 601
f 592 602 601
f 592 593 602
f 593 603 602
f 593 594 603
f 594 604 603
f 594 585 604
f 585 595 604
f 605 606 615
f 606 616 615
f 606 607 616
f 607 617 616
f 607 608 617
f 608 618 617
f 608 609 618
f 609 619 618
f 609 610 619
f 610 620 619
f 610 611 620
f 611 621 620
f 611 612 621
f 612 622 621
f 612 613 622
f 613 623 622
f 613 614 623
f 614 624 623
f 614 605 624
f 605 615 624
f 625 626 635
f 626 636 635
f 626 627 636
f 627 637 636
f 627 628 637
f 628 638 637
f 628 629 638
f 629 639 638
f 629 630 639
f 630 640 639
f 630 631 640
f 631 641 640
f 631 632 641
f 632 642 641
f 632 633 642
f 633 643 642
f 633 634 643
f 634 644 643
f 634 625 644
f 625 635 644
f 645 646 655
f 646 656 655
f 646 647 656
f 647 657 656
f 647 648 657
f 648 658 657
f 648 649 658
f 649 659 658
f 649 650 659
f 650 660 659
f 650 651 660
f 651 661 660
f 651 652 661
f 652 662 661
f 652 653 662
f 653 663 662
f 653 654 663
f 654 664 663
f 654 645 664
f 645 655 664
f 665 666 675
f 666 676 675
f 666 667 676
f 667 677 676
f 667 668 677
f 668 678 677
f 668 669 678
f 669 679 678
f 669 670 679
f 670 680 679
f 670 671 680
f 671 681 680
f 671 672 681
f 672 682 681
f 672 673 682
f 673 683 682
f 673 674 683
f 674 684 683
f 674 665 684
f 665 675 684
f 685 686 695
f 686 696 695
f 686 687 696
f 687 697 696
f 687 688 697
f 688 698 697
f 688 689 698
f 689 699 698
f 689 690 699
f 690 700 699
f 690 691 700
f 691 701 700
f 691 692 701
f 692 702 701
f 692 693 702
f 693 703 702
f 693 694 703
f 694 704 703
f 694 685 704
f 685 695 704
f 705 706 715
f 706 716 715
f 706 707 716
f 707 717 716
f 707 708 717
f 708 718 717
f 708 709 718
f 709 719 718
f 709 710 719
f 710 720 719
f 710 711 720
f 711 721 720
f 711 712 721
f 712 722 721
f 712 713 722
f 713 723 722
f 713 714 723
f 714 724 723
f 714 705 724
f 705 715 724
f 725 726 735
f 726 736 735
f 726 727 736
f 727 737 736
f 727 728 737
f 728 738 737
f 728 729 738
f 729 739 738
f 729 730 739
f 730 740 739
f 730 731 740
f 731 741 740
f 731 732 741
f 732 742 741
f 732 733 742
f 733 743 742
f 733 734 743
f 734 744 743
f 734 725 744
f 725 735 744
f 745 746 755
f 746 756 755
f 746 747 756
f 747 757 756
f 747 748 757
f 748 758 757
f 748 749 758
f 749 759 758
f 749 750 759
f 750 760 759
f 750 751 760
f 751 761 760
f 751 752 761
f 752 762 761
f 752 753 762
f 753 763 762
f 753 754 763
f 754 764 763
f 754 745 764
f 745 755 764
f 765 766 775
f 766 776 775
f 766 767 776
f 767 777 776
f 767 768 777
f 768 778 777
f 768 769 778
f 769 779 778
f 769 770 779
f 770 780 779
f 770 771 780
f 771 781 780
f 771 772 781
f 772 782 781
f 772 773 782
f 773 783 782
f 773 774 783
f 774 784 783
f 774 765 784
f 765 775 784
