# Full-Body 3D Mesh - Frame 180
v 0.018910 -0.615858 -0.105999
v 0.052718 -0.615858 -0.110860
v 0.083787 -0.615858 -0.125049
v 0.109600 -0.615858 -0.147416
v 0.128066 -0.615858 -0.176150
v 0.137689 -0.615858 -0.208922
v 0.137689 -0.615858 -0.243077
v 0.128066 -0.615858 -0.275849
v 0.109600 -0.615858 -0.304583
v 0.083787 -0.615858 -0.326950
v 0.052718 -0.615858 -0.341139
v 0.018910 -0.615858 -0.345999
v 0.018910 -0.615858 -0.105999
v 0.047351 -0.597580 -0.110860
v 0.073488 -0.580783 -0.125049
v 0.095203 -0.566827 -0.147416
v 0.110738 -0.556844 -0.176150
v 0.118833 -0.551641 -0.208922
v 0.118833 -0.551641 -0.243077
v 0.110738 -0.556844 -0.275849
v 0.095203 -0.566827 -0.304583
v 0.073488 -0.580783 -0.326950
v 0.047351 -0.597580 -0.341139
v 0.018910 -0.615858 -0.345999
v 0.018910 -0.615858 -0.105999
v 0.032954 -0.585105 -0.110860
v 0.045861 -0.556844 -0.125049
v 0.056584 -0.533363 -0.147416
v 0.064255 -0.516566 -0.176150
v 0.068252 -0.507813 -0.208922
v 0.068252 -0.507813 -0.243077
v 0.064255 -0.516566 -0.275849
v 0.056584 -0.533363 -0.304583
v 0.045861 -0.556844 -0.326950
v 0.032954 -0.585105 -0.341139
v 0.018910 -0.615858 -0.345999
v 0.018910 -0.615858 -0.105999
v 0.014099 -0.582394 -0.110860
v 0.009677 -0.551641 -0.125049
v 0.006003 -0.526091 -0.147416
v 0.003375 -0.507813 -0.176150
v 0.002006 -0.498288 -0.208922
v 0.002006 -0.498288 -0.243077
v 0.003375 -0.507813 -0.275849
v 0.006003 -0.526091 -0.304583
v 0.009677 -0.551641 -0.326950
v 0.014099 -0.582394 -0.341139
v 0.018910 -0.615858 -0.345999
v 0.018910 -0.615858 -0.105999
v -0.003230 -0.590308 -0.110860
v -0.023575 -0.566827 -0.125049
v -0.040479 -0.547319 -0.147416
v -0.052572 -0.533363 -0.176150
v -0.058873 -0.526091 -0.208922
v -0.058873 -0.526091 -0.243077
v -0.052572 -0.533363 -0.275849
v -0.040479 -0.547319 -0.304583
v -0.023575 -0.566827 -0.326950
v -0.003230 -0.590308 -0.341139
v 0.018910 -0.615858 -0.345999
v 0.018910 -0.615858 -0.105999
v -0.013528 -0.606333 -0.110860
v -0.043339 -0.597580 -0.125049
v -0.068106 -0.590308 -0.147416
v -0.085824 -0.585105 -0.176150
v -0.095057 -0.582394 -0.208922
v -0.095057 -0.582394 -0.243077
v -0.085824 -0.585105 -0.275849
v -0.068106 -0.590308 -0.304583
v -0.043339 -0.597580 -0.326950
v -0.013528 -0.606333 -0.341139
v 0.018910 -0.615858 -0.345999
v 0.018910 -0.615858 -0.105999
v -0.013528 -0.625383 -0.110860
v -0.043339 -0.634136 -0.125049
v -0.068106 -0.641408 -0.147416
v -0.085824 -0.646611 -0.176150
v -0.095057 -0.649322 -0.208922
v -0.095057 -0.649322 -0.243077
v -0.085824 -0.646611 -0.275849
v -0.068106 -0.641408 -0.304583
v -0.043339 -0.634136 -0.326950
v -0.013528 -0.625383 -0.341139
v 0.018910 -0.615858 -0.345999
v 0.018910 -0.615858 -0.105999
v -0.003230 -0.641408 -0.110860
v -0.023575 -0.664889 -0.125049
v -0.040479 -0.684397 -0.147416
v -0.052572 -0.698352 -0.176150
v -0.058873 -0.705625 -0.208922
v -0.058873 -0.705625 -0.243077
v -0.052572 -0.698352 -0.275849
v -0.040479 -0.684397 -0.304583
v -0.023575 -0.664889 -0.326950
v -0.003230 -0.641408 -0.341139
v 0.018910 -0.615858 -0.345999
v 0.018910 -0.615858 -0.105999
v 0.014099 -0.649322 -0.110860
v 0.009677 -0.680074 -0.125049
v 0.006003 -0.705625 -0.147416
v 0.003375 -0.723903 -0.176150
v 0.002006 -0.733427 -0.208922
v 0.002006 -0.733427 -0.243077
v 0.003375 -0.723903 -0.275849
v 0.006003 -0.705625 -0.304583
v 0.009677 -0.680074 -0.326950
v 0.014099 -0.649322 -0.341139
v 0.018910 -0.615858 -0.345999
v 0.018910 -0.615858 -0.105999
v 0.032954 -0.646611 -0.110860
v 0.045861 -0.674872 -0.125049
v 0.056584 -0.698352 -0.147416
v 0.064255 -0.715150 -0.176150
v 0.068252 -0.723903 -0.208922
v 0.068252 -0.723903 -0.243077
v 0.064255 -0.715150 -0.275849
v 0.056584 -0.698352 -0.304583
v 0.045861 -0.674872 -0.326950
v 0.032954 -0.646611 -0.341139
v 0.018910 -0.615858 -0.345999
v 0.018910 -0.615858 -0.105999
v 0.047351 -0.634136 -0.110860
v 0.073488 -0.650933 -0.125049
v 0.095203 -0.664889 -0.147416
v 0.110738 -0.674872 -0.176150
v 0.118833 -0.680074 -0.208922
v 0.118833 -0.680074 -0.243077
v 0.110738 -0.674872 -0.275849
v 0.095203 -0.664889 -0.304583
v 0.073488 -0.650933 -0.326950
v 0.047351 -0.634136 -0.341139
v 0.018910 -0.615858 -0.345999
v 0.018910 -0.615858 -0.105999
v 0.052718 -0.615858 -0.110860
v 0.083787 -0.615858 -0.125049
v 0.109600 -0.615858 -0.147416
v 0.128066 -0.615858 -0.176150
v 0.137689 -0.615858 -0.208922
v 0.137689 -0.615858 -0.243077
v 0.128066 -0.615858 -0.275849
v 0.109600 -0.615858 -0.304583
v 0.083787 -0.615858 -0.326950
v 0.052718 -0.615858 -0.341139
v 0.018910 -0.615858 -0.345999
v 0.165189 -0.432780 -0.084423
v 0.166051 -0.456251 -0.076708
v 0.165559 -0.470757 -0.056696
v 0.163900 -0.470757 -0.032031
v 0.161709 -0.456251 -0.012133
v 0.159821 -0.432780 -0.004603
v 0.158959 -0.409309 -0.012318
v 0.159451 -0.394803 -0.032330
v 0.161110 -0.394803 -0.056995
v 0.163301 -0.409309 -0.076893
v -0.167201 -0.452336 -0.106774
v -0.166339 -0.475807 -0.099060
v -0.166831 -0.490313 -0.079048
v -0.168490 -0.490313 -0.054382
v -0.170681 -0.475807 -0.034484
v -0.172569 -0.452336 -0.026955
v -0.173431 -0.428865 -0.034669
v -0.172938 -0.414359 -0.054681
v -0.171280 -0.414359 -0.079347
v -0.169088 -0.428865 -0.099245
v 0.162505 -0.435503 -0.084420
v 0.140013 -0.428151 -0.077265
v 0.126112 -0.422567 -0.057599
v 0.126112 -0.420884 -0.032935
v 0.140013 -0.423745 -0.012694
v 0.162505 -0.430057 -0.004606
v 0.184997 -0.437409 -0.011761
v 0.198898 -0.442993 -0.031427
v 0.198898 -0.444676 -0.056091
v 0.184997 -0.441815 -0.076332
v 0.232123 -0.207383 -0.099986
v 0.209631 -0.200030 -0.092831
v 0.195730 -0.194446 -0.073165
v 0.195730 -0.192763 -0.048501
v 0.209631 -0.195624 -0.028260
v 0.232123 -0.201936 -0.020172
v 0.254615 -0.209289 -0.027327
v 0.268515 -0.214873 -0.046993
v 0.268515 -0.216556 -0.071657
v 0.254615 -0.213695 -0.091898
v 0.232123 -0.219323 -0.097295
v 0.208648 -0.215296 -0.090670
v 0.194140 -0.207206 -0.072361
v 0.194140 -0.198144 -0.049361
v 0.208648 -0.191570 -0.030454
v 0.232123 -0.189997 -0.022863
v 0.255597 -0.194024 -0.029488
v 0.270105 -0.202113 -0.047797
v 0.270105 -0.211175 -0.070797
v 0.255597 -0.217749 -0.089704
v 0.242139 -0.053391 -0.162672
v 0.218665 -0.049364 -0.156048
v 0.204157 -0.041275 -0.137739
v 0.204157 -0.032212 -0.114738
v 0.218665 -0.025639 -0.095832
v 0.242139 -0.024065 -0.088241
v 0.265614 -0.028092 -0.094865
v 0.280122 -0.036182 -0.113174
v 0.280122 -0.045244 -0.136175
v 0.265614 -0.051818 -0.155081
v -0.169885 -0.477643 -0.097841
v -0.188307 -0.484123 -0.082683
v -0.199693 -0.478461 -0.061483
v -0.199693 -0.462820 -0.042338
v -0.188307 -0.443175 -0.032562
v -0.169885 -0.427029 -0.035888
v -0.151462 -0.420550 -0.051046
v -0.140076 -0.426212 -0.072246
v -0.140076 -0.441852 -0.091391
v -0.151462 -0.461498 -0.101167
v -0.354114 -0.297718 -0.244836
v -0.372537 -0.304197 -0.229678
v -0.383922 -0.298535 -0.208478
v -0.383922 -0.282894 -0.189333
v -0.372537 -0.263249 -0.179557
v -0.354114 -0.247103 -0.182883
v -0.335691 -0.240624 -0.198041
v -0.324306 -0.246286 -0.219242
v -0.324306 -0.261927 -0.238386
v -0.335691 -0.281572 -0.248163
v -0.354114 -0.310711 -0.202323
v -0.373799 -0.307104 -0.216836
v -0.385965 -0.290246 -0.230212
v -0.385965 -0.266575 -0.237343
v -0.373799 -0.245133 -0.235503
v -0.354114 -0.234110 -0.225397
v -0.334429 -0.237717 -0.210884
v -0.322263 -0.254575 -0.197507
v -0.322263 -0.278246 -0.190377
v -0.334429 -0.299688 -0.192216
v -0.204250 -0.376896 -0.422039
v -0.223935 -0.373290 -0.436553
v -0.236101 -0.356432 -0.449929
v -0.236101 -0.332761 -0.457060
v -0.223935 -0.311319 -0.455220
v -0.204250 -0.300296 -0.445114
v -0.184565 -0.303903 -0.430601
v -0.172399 -0.320761 -0.417224
v -0.172399 -0.344432 -0.410094
v -0.184565 -0.365874 -0.411933
v 0.162505 -0.428542 -0.084288
v 0.139079 -0.431343 -0.076904
v 0.124601 -0.434692 -0.057147
v 0.124601 -0.437311 -0.032565
v 0.139079 -0.438199 -0.012547
v 0.162505 -0.437017 -0.004738
v 0.185931 -0.434217 -0.012122
v 0.200409 -0.430868 -0.031879
v 0.200409 -0.428249 -0.056461
v 0.185931 -0.427361 -0.076480
v 0.124553 0.013018 -0.037247
v 0.101127 0.010218 -0.029862
v 0.086648 0.006868 -0.010106
v 0.086648 0.004250 0.014476
v 0.101127 0.003361 0.034495
v 0.124553 0.004543 0.042303
v 0.147979 0.007343 0.034919
v 0.162457 0.010692 0.015163
v 0.162457 0.013311 -0.009420
v 0.147979 0.014199 -0.029438
v -0.169885 -0.446282 -0.106404
v -0.193266 -0.444996 -0.098478
v -0.207716 -0.446513 -0.078478
v -0.207716 -0.450255 -0.054041
v -0.193266 -0.454792 -0.034503
v -0.169885 -0.458391 -0.027325
v -0.146504 -0.459677 -0.035251
v -0.132053 -0.458159 -0.055251
v -0.132053 -0.454417 -0.079688
v -0.146504 -0.449881 -0.099226
v -0.123949 -0.016636 -0.040614
v -0.147330 -0.015349 -0.032689
v -0.161781 -0.016867 -0.012688
v -0.161781 -0.020609 0.011748
v -0.147330 -0.025146 0.031287
v -0.123949 -0.028745 0.038464
v -0.100568 -0.030031 0.030539
v -0.086118 -0.028513 0.010538
v -0.086118 -0.024771 -0.013899
v -0.100568 -0.020235 -0.033437
v 0.125132 0.008780 -0.037468
v 0.127975 -0.014545 -0.029786
v 0.129510 -0.028961 -0.009762
v 0.129152 -0.028961 0.014957
v 0.127037 -0.014545 0.034928
v 0.123973 0.008780 0.042524
v 0.121130 0.032105 0.034843
v 0.119595 0.046521 0.014818
v 0.119953 0.046521 -0.009900
v 0.122068 0.032105 -0.029872
v -0.123369 -0.022690 -0.041071
v -0.120527 -0.046015 -0.033390
v -0.118991 -0.060431 -0.013365
v -0.119350 -0.060431 0.011354
v -0.121465 -0.046015 0.031325
v -0.124529 -0.022690 0.038921
v -0.127372 0.000635 0.031239
v -0.128907 0.015051 0.011215
v -0.128549 0.015051 -0.013504
v -0.126433 0.000635 -0.033475
v 0.124553 -0.006250 -0.034540
v 0.101068 -0.004421 -0.027038
v 0.086554 0.002450 -0.008243
v 0.086554 0.011740 0.014666
v 0.101068 0.019899 0.032940
v 0.124553 0.023811 0.039597
v 0.148037 0.021982 0.032095
v 0.162551 0.015110 0.013300
v 0.162551 0.005821 -0.009610
v 0.148037 -0.002338 -0.027883
v 0.118642 0.108211 -0.080953
v 0.095157 0.110040 -0.073451
v 0.080643 0.116912 -0.054656
v 0.080643 0.126201 -0.031746
v 0.095157 0.134360 -0.013473
v 0.118642 0.138273 -0.006816
v 0.142126 0.136443 -0.014317
v 0.156640 0.129572 -0.033113
v 0.156640 0.120282 -0.056022
v 0.142126 0.112123 -0.074296
v 0.118642 0.142646 -0.078862
v 0.095291 0.141343 -0.070849
v 0.080860 0.133126 -0.052536
v 0.080860 0.121133 -0.030918
v 0.095291 0.109946 -0.014253
v 0.118642 0.103837 -0.008906
v 0.141992 0.105140 -0.016919
v 0.156423 0.113357 -0.035232
v 0.156423 0.125350 -0.056850
v 0.141992 0.136537 -0.073515
v 0.163834 0.478446 0.107428
v 0.140484 0.477143 0.115441
v 0.126052 0.468926 0.133754
v 0.126052 0.456933 0.155372
v 0.140484 0.445745 0.172037
v 0.163834 0.439636 0.177384
v 0.187184 0.440939 0.169371
v 0.201616 0.449157 0.151058
v 0.201616 0.461149 0.129440
v 0.187184 0.472337 0.112775
v -0.123949 -0.060313 0.012510
v -0.147456 -0.053289 0.009468
v -0.161984 -0.034577 0.002400
v -0.161984 -0.011325 -0.005996
v -0.147456 0.007586 -0.012513
v -0.123949 0.014932 -0.014660
v -0.100443 0.007908 -0.011619
v -0.085915 -0.010803 -0.004550
v -0.085915 -0.034055 0.003846
v -0.100443 -0.052966 0.010363
v -0.119085 -0.142029 -0.213794
v -0.142591 -0.135005 -0.216836
v -0.157119 -0.116294 -0.223905
v -0.157119 -0.093042 -0.232301
v -0.142591 -0.074131 -0.238817
v -0.119085 -0.066784 -0.240965
v -0.095578 -0.073808 -0.237923
v -0.081050 -0.092520 -0.230854
v -0.081050 -0.115771 -0.222458
v -0.095578 -0.134682 -0.215942
v -0.119085 -0.111500 -0.266746
v -0.142330 -0.106675 -0.259853
v -0.156697 -0.100984 -0.240556
v -0.156697 -0.096601 -0.216226
v -0.142330 -0.095199 -0.196157
v -0.119085 -0.097314 -0.188013
v -0.095839 -0.102138 -0.194906
v -0.081472 -0.107829 -0.214203
v -0.081472 -0.112213 -0.238533
v -0.095839 -0.113615 -0.258602
v -0.072834 0.188612 -0.320819
v -0.096080 0.193436 -0.313926
v -0.110446 0.199127 -0.294629
v -0.110446 0.203511 -0.270300
v -0.096080 0.204913 -0.250230
v -0.072834 0.202798 -0.242087
v -0.049589 0.197974 -0.248980
v -0.035222 0.192283 -0.268277
v -0.035222 0.187899 -0.292606
v -0.049589 0.186497 -0.312676
v -0.036876 0.017302 0.065450
v -0.041927 0.021566 0.058951
v -0.045049 0.029814 0.056091
v -0.045049 0.038893 0.057963
v -0.041927 0.045337 0.063851
v -0.036876 0.046684 0.071507
v -0.031824 0.042419 0.078006
v -0.028702 0.034172 0.080866
v -0.028702 0.025092 0.078994
v -0.031824 0.018648 0.073105
v -0.007097 0.021505 0.045062
v -0.012149 0.025770 0.038563
v -0.015271 0.034017 0.035703
v -0.015271 0.043096 0.037575
v -0.012149 0.049540 0.043463
v -0.007097 0.050887 0.051119
v -0.002046 0.046622 0.057618
v 0.001076 0.038375 0.060478
v 0.001076 0.029295 0.058606
v -0.002046 0.022851 0.052717
v -0.007097 0.023367 0.055864
v -0.011720 0.021927 0.047959
v -0.014577 0.025936 0.040104
v -0.014577 0.033864 0.035299
v -0.011720 0.042683 0.035380
v -0.007097 0.049024 0.040316
v -0.002474 0.050465 0.048222
v 0.000383 0.046455 0.056077
v 0.000383 0.038527 0.060881
v -0.002474 0.029708 0.060800
v 0.021408 0.014271 0.040853
v 0.016785 0.012830 0.032947
v 0.013928 0.016839 0.025092
v 0.013928 0.024768 0.020288
v 0.016785 0.033587 0.020369
v 0.021408 0.039927 0.025305
v 0.026031 0.041368 0.033210
v 0.028888 0.037359 0.041066
v 0.028888 0.029430 0.045870
v 0.026031 0.020612 0.045789
v 0.021408 0.014640 0.041432
v 0.013965 0.014387 0.035910
v 0.009365 0.018990 0.029308
v 0.009365 0.026690 0.024145
v 0.013965 0.034547 0.022395
v 0.021408 0.039558 0.024726
v 0.028851 0.039811 0.030247
v 0.033451 0.035208 0.036850
v 0.033451 0.027508 0.042012
v 0.028851 0.019651 0.043762
v 0.041495 -0.002974 0.015159
v 0.034052 -0.003226 0.009638
v 0.029453 0.001377 0.003035
v 0.029453 0.009077 -0.002127
v 0.034052 0.016933 -0.003877
v 0.041495 0.021945 -0.001546
v 0.048938 0.022197 0.003975
v 0.053538 0.017594 0.010578
v 0.053538 0.009894 0.015740
v 0.048938 0.002038 0.017490
v 0.041495 0.000613 0.018901
v 0.035292 -0.002744 0.012885
v 0.031458 -0.001430 0.004548
v 0.031458 0.004053 -0.002927
v 0.035292 0.011612 -0.006684
v 0.041495 0.018358 -0.005288
v 0.047699 0.021715 0.000728
v 0.051532 0.020401 0.009065
v 0.051532 0.014918 0.016540
v 0.047699 0.007359 0.020297
v 0.062148 -0.015875 0.006806
v 0.055945 -0.019232 0.000790
v 0.052111 -0.017918 -0.007548
v 0.052111 -0.012435 -0.015023
v 0.055945 -0.004876 -0.018780
v 0.062148 0.001870 -0.017383
v 0.068352 0.005228 -0.011368
v 0.072185 0.003913 -0.003030
v 0.072185 -0.001570 0.004445
v 0.068352 -0.009128 0.008202
v -0.036876 0.018470 0.074971
v -0.043639 0.018605 0.068632
v -0.047820 0.023853 0.062235
v -0.047820 0.032210 0.058222
v -0.043639 0.040484 0.058127
v -0.036876 0.045515 0.061986
v -0.030112 0.045380 0.068325
v -0.025932 0.040132 0.074722
v -0.025932 0.031775 0.078734
v -0.030112 0.023501 0.078829
v 0.022152 -0.012081 0.011337
v 0.015388 -0.011947 0.004999
v 0.011208 -0.006698 -0.001399
v 0.011208 0.001659 -0.005411
v 0.015388 0.009933 -0.005506
v 0.022152 0.014963 -0.001647
v 0.028915 0.014829 0.004692
v 0.033096 0.009581 0.011089
v 0.033096 0.001224 0.015101
v 0.028915 -0.007051 0.015196
v 0.022152 -0.013559 0.004761
v 0.015789 -0.010659 -0.001327
v 0.011857 -0.003138 -0.005057
v 0.011857 0.006132 -0.005005
v 0.015789 0.013611 -0.001190
v 0.022152 0.016441 0.004930
v 0.028514 0.013542 0.011017
v 0.032446 0.006021 0.014747
v 0.032446 -0.003250 0.014695
v 0.028514 -0.010728 0.010880
v 0.040846 -0.013449 -0.014725
v 0.034484 -0.010550 -0.020813
v 0.030552 -0.003028 -0.024543
v 0.030552 0.006242 -0.024491
v 0.034484 0.013721 -0.020676
v 0.040846 0.016551 -0.014556
v 0.047208 0.013652 -0.008469
v 0.051141 0.006131 -0.004739
v 0.051141 -0.003140 -0.004791
v 0.047208 -0.010618 -0.008606
v 0.040846 -0.011503 -0.022029
v 0.035178 -0.005683 -0.026496
v 0.031675 0.002900 -0.026434
v 0.031675 0.010967 -0.021867
v 0.035178 0.015439 -0.014541
v 0.040846 0.014605 -0.007252
v 0.046514 0.008786 -0.002786
v 0.050017 0.000203 -0.002848
v 0.050017 -0.007865 -0.007414
v 0.046514 -0.012336 -0.014741
v 0.048815 -0.008208 -0.027850
v 0.043147 -0.002389 -0.032316
v 0.039644 0.006194 -0.032254
v 0.039644 0.014262 -0.027688
v 0.043147 0.018733 -0.020361
v 0.048815 0.017900 -0.013073
v 0.054483 0.012080 -0.008607
v 0.057986 0.003497 -0.008669
v 0.057986 -0.004571 -0.013235
v 0.054483 -0.009042 -0.020562
v 0.048815 -0.007581 -0.028863
v 0.041114 -0.002804 -0.030814
v 0.036354 0.004895 -0.028811
v 0.036354 0.012575 -0.023619
v 0.041114 0.017303 -0.017221
v 0.048815 0.017272 -0.012061
v 0.056516 0.012495 -0.010109
v 0.061276 0.004796 -0.012112
v 0.061276 -0.002884 -0.017304
v 0.056516 -0.007612 -0.023702
v 0.060625 0.004287 -0.046418
v 0.052924 0.009064 -0.048369
v 0.048164 0.016763 -0.046366
v 0.048164 0.024443 -0.041174
v 0.052924 0.029171 -0.034776
v 0.060625 0.029140 -0.029616
v 0.068327 0.024363 -0.027664
v 0.073086 0.016664 -0.029667
v 0.073086 0.008984 -0.034859
v 0.068327 0.004256 -0.041257
v -0.036876 0.018798 0.075613
v -0.044650 0.019340 0.070592
v -0.049455 0.024714 0.064764
v -0.049455 0.032869 0.060354
v -0.044650 0.040689 0.059048
v -0.036876 0.045187 0.061344
v -0.029102 0.044645 0.066365
v -0.024297 0.039271 0.072193
v -0.024297 0.031116 0.076603
v -0.029102 0.023296 0.077909
v 0.004214 -0.017734 0.008052
v -0.003560 -0.017193 0.003031
v -0.008365 -0.011818 -0.002798
v -0.008365 -0.003663 -0.007207
v -0.003560 0.004157 -0.008514
v 0.004214 0.008655 -0.006218
v 0.011988 0.008113 -0.001197
v 0.016793 0.002738 0.004632
v 0.016793 -0.005416 0.009041
v 0.011988 -0.013236 0.010348
v 0.004214 -0.010905 0.014500
v -0.002298 -0.015072 0.009383
v -0.006322 -0.015216 0.001033
v -0.006322 -0.011282 -0.007362
v -0.002298 -0.004773 -0.012594
v 0.004214 0.001825 -0.012666
v 0.010725 0.005992 -0.007549
v 0.014749 0.006137 0.000801
v 0.014749 0.002203 0.009196
v 0.010725 -0.004306 0.014428
v 0.031140 -0.037611 0.001985
v 0.024629 -0.041779 -0.003132
v 0.020604 -0.041923 -0.011482
v 0.020604 -0.037989 -0.019877
v 0.024629 -0.031480 -0.025109
v 0.031140 -0.024881 -0.025181
v 0.037651 -0.020714 -0.020064
v 0.041676 -0.020570 -0.011714
v 0.041676 -0.024504 -0.003319
v 0.037651 -0.031013 0.001913
v 0.031140 -0.045768 -0.007840
v 0.023238 -0.043974 -0.012343
v 0.018354 -0.037319 -0.016562
v 0.018354 -0.028344 -0.018885
v 0.023238 -0.020478 -0.018424
v 0.031140 -0.016725 -0.015356
v 0.039042 -0.018518 -0.010853
v 0.043926 -0.025174 -0.006634
v 0.043926 -0.034148 -0.004311
v 0.039042 -0.042015 -0.004772
v 0.045167 -0.052869 -0.035279
v 0.037265 -0.051076 -0.039783
v 0.032381 -0.044421 -0.044002
v 0.032381 -0.035446 -0.046324
v 0.037265 -0.027579 -0.045864
v 0.045167 -0.023826 -0.042796
v 0.053069 -0.025620 -0.038292
v 0.057953 -0.032275 -0.034073
v 0.057953 -0.041250 -0.031751
v 0.053069 -0.049116 -0.032211
v 0.045167 -0.050048 -0.029651
v 0.040930 -0.052652 -0.037475
v 0.038312 -0.049792 -0.045896
v 0.038312 -0.042561 -0.051697
v 0.040930 -0.033721 -0.052663
v 0.045167 -0.026648 -0.048424
v 0.049403 -0.024044 -0.040600
v 0.052021 -0.026903 -0.032179
v 0.052021 -0.034134 -0.026378
v 0.049403 -0.042975 -0.025412
v 0.074351 -0.060054 -0.042123
v 0.070115 -0.062658 -0.049947
v 0.067497 -0.059798 -0.058368
v 0.067497 -0.052567 -0.064169
v 0.070115 -0.043726 -0.065134
v 0.074351 -0.036653 -0.060896
v 0.078588 -0.034049 -0.053072
v 0.081206 -0.036909 -0.044651
v 0.081206 -0.044140 -0.038850
v 0.078588 -0.052980 -0.037884
v -0.036876 0.018400 0.074822
v -0.045375 0.020004 0.071485
v -0.050628 0.026187 0.067000
v -0.050628 0.034588 0.063079
v -0.045375 0.041997 0.061221
v -0.036876 0.045585 0.062135
v -0.028377 0.043981 0.065471
v -0.023124 0.037798 0.069957
v -0.023124 0.029397 0.073877
v -0.028377 0.021988 0.075736
v -0.015479 -0.014392 0.004560
v -0.023978 -0.012788 0.001223
v -0.029231 -0.006605 -0.003262
v -0.029231 0.001796 -0.007183
v -0.023978 0.009205 -0.009041
v -0.015479 0.012793 -0.008128
v -0.006980 0.011189 -0.004791
v -0.001727 0.005006 -0.000306
v -0.001727 -0.003395 0.003615
v -0.006980 -0.010804 0.005474
v -0.015479 -0.008076 0.011333
v -0.023824 -0.009177 0.007447
v -0.028981 -0.007077 0.000034
v -0.028981 -0.002580 -0.008072
v -0.023824 0.002597 -0.013777
v -0.015479 0.006477 -0.014901
v -0.007135 0.007577 -0.011014
v -0.001978 0.005478 -0.003602
v -0.001978 0.000981 0.004505
v -0.007135 -0.004196 0.010209
v -0.002982 -0.040101 -0.006432
v -0.011326 -0.041201 -0.010319
v -0.016483 -0.039102 -0.017731
v -0.016483 -0.034605 -0.025838
v -0.011326 -0.029428 -0.031542
v -0.002982 -0.025548 -0.032666
v 0.005363 -0.024447 -0.028780
v 0.010520 -0.026547 -0.021367
v 0.010520 -0.031044 -0.013261
v 0.005363 -0.036221 -0.007556
v -0.002982 -0.046710 -0.013875
v -0.011313 -0.045149 -0.017630
v -0.016462 -0.038881 -0.022118
v -0.016462 -0.030300 -0.025625
v -0.011313 -0.022682 -0.026811
v -0.002982 -0.018939 -0.025223
v 0.005350 -0.020499 -0.021468
v 0.010499 -0.026767 -0.016980
v 0.010499 -0.035349 -0.013474
v 0.005350 -0.042966 -0.012287
v 0.006682 -0.057263 -0.039700
v -0.001649 -0.055703 -0.043455
v -0.006798 -0.049435 -0.047943
v -0.006798 -0.040853 -0.051450
v -0.001649 -0.033236 -0.052636
v 0.006682 -0.029492 -0.051049
v 0.015013 -0.031052 -0.047294
v 0.020162 -0.037320 -0.042806
v 0.020162 -0.045902 -0.039299
v 0.015013 -0.053519 -0.038113
v 0.006682 -0.055970 -0.037225
v -0.001621 -0.055177 -0.041272
v -0.006752 -0.049877 -0.046886
v -0.006752 -0.042094 -0.051923
v -0.001621 -0.034801 -0.054459
v 0.006682 -0.030785 -0.053524
v 0.014984 -0.031578 -0.049477
v 0.020116 -0.036878 -0.043863
v 0.020116 -0.044661 -0.038826
v 0.014984 -0.051954 -0.036291
v 0.016220 -0.070474 -0.059636
v 0.007918 -0.069681 -0.063683
v 0.002786 -0.064380 -0.069297
v 0.002786 -0.056597 -0.074334
v 0.007918 -0.049305 -0.076869
v 0.016220 -0.045288 -0.075935
v 0.024523 -0.046081 -0.071888
v 0.029654 -0.051381 -0.066274
v 0.029654 -0.059164 -0.061237
v 0.024523 -0.066457 -0.058701
v -0.036876 0.018529 0.075091
v -0.045685 0.021266 0.074166
v -0.051129 0.028100 0.071068
v -0.051129 0.036421 0.066981
v -0.045685 0.043051 0.063466
v -0.036876 0.045456 0.061865
v -0.028067 0.042719 0.062791
v -0.022623 0.035885 0.065889
v -0.022623 0.027564 0.069976
v -0.028067 0.020935 0.073491
v -0.039977 -0.013503 0.009878
v -0.048785 -0.010766 0.008953
v -0.054229 -0.003931 0.005855
v -0.054229 0.004390 0.001768
v -0.048785 0.011019 -0.001747
v -0.039977 0.013425 -0.003348
v -0.031168 0.010687 -0.002422
v -0.025724 0.003853 0.000676
v -0.025724 -0.004468 0.004763
v -0.031168 -0.011097 0.008278
v -0.039977 -0.007419 0.016324
v -0.048720 -0.005019 0.014390
v -0.054123 -0.000716 0.008207
v -0.054123 0.003845 0.000136
v -0.048720 0.006923 -0.006739
v -0.039977 0.007341 -0.009793
v -0.031234 0.004941 -0.007859
v -0.025830 0.000638 -0.001676
v -0.025830 -0.003923 0.006394
v -0.031234 -0.007001 0.013270
v -0.043285 -0.029543 0.003821
v -0.052028 -0.027143 0.001887
v -0.057432 -0.022840 -0.004297
v -0.057432 -0.018279 -0.012367
v -0.052028 -0.015201 -0.019243
v -0.043285 -0.014783 -0.022297
v -0.034543 -0.017183 -0.020363
v -0.029139 -0.021486 -0.014180
v -0.029139 -0.026047 -0.006109
v -0.034543 -0.029125 0.000766
v -0.043285 -0.035626 -0.002624
v -0.052035 -0.033535 -0.004865
v -0.057442 -0.027100 -0.008776
v -0.057442 -0.018780 -0.012864
v -0.052035 -0.011751 -0.015567
v -0.043285 -0.008700 -0.015852
v -0.034536 -0.010791 -0.013612
v -0.029129 -0.017225 -0.009700
v -0.029129 -0.025546 -0.005613
v -0.034536 -0.032574 -0.002910
v -0.040546 -0.045328 -0.022373
v -0.049295 -0.043237 -0.024614
v -0.054703 -0.036803 -0.028525
v -0.054703 -0.028482 -0.032613
v -0.049295 -0.021454 -0.035316
v -0.040546 -0.018402 -0.035601
v -0.031797 -0.020493 -0.033361
v -0.026390 -0.026928 -0.029449
v -0.026390 -0.035248 -0.025361
v -0.031797 -0.042277 -0.022659
v -0.040546 -0.044142 -0.020369
v -0.048963 -0.043306 -0.024164
v -0.054165 -0.038100 -0.029801
v -0.054165 -0.030512 -0.035127
v -0.048963 -0.023441 -0.038108
v -0.040546 -0.019588 -0.037605
v -0.032129 -0.020424 -0.033811
v -0.026927 -0.025631 -0.028174
v -0.026927 -0.033219 -0.022847
v -0.032129 -0.040289 -0.019866
v -0.033440 -0.057232 -0.039017
v -0.041857 -0.056396 -0.042811
v -0.047059 -0.051189 -0.048448
v -0.047059 -0.043601 -0.053774
v -0.041857 -0.036531 -0.056756
v -0.033440 -0.032678 -0.056253
v -0.025023 -0.033514 -0.052458
v -0.019821 -0.038721 -0.046821
v -0.019821 -0.046308 -0.041495
v -0.025023 -0.053379 -0.038514
f 1 2 13
f 2 14 13
f 2 3 14
f 3 15 14
f 3 4 15
f 4 16 15
f 4 5 16
f 5 17 16
f 5 6 17
f 6 18 17
f 6 7 18
f 7 19 18
f 7 8 19
f 8 20 19
f 8 9 20
f 9 21 20
f 9 10 21
f 10 22 21
f 10 11 22
f 11 23 22
f 11 12 23
f 12 24 23
f 13 14 25
f 14 26 25
f 14 15 26
f 15 27 26
f 15 16 27
f 16 28 27
f 16 17 28
f 17 29 28
f 17 18 29
f 18 30 29
f 18 19 30
f 19 31 30
f 19 20 31
f 20 32 31
f 20 21 32
f 21 33 32
f 21 22 33
f 22 34 33
f 22 23 34
f 23 35 34
f 23 24 35
f 24 36 35
f 25 26 37
f 26 38 37
f 26 27 38
f 27 39 38
f 27 28 39
f 28 40 39
f 28 29 40
f 29 41 40
f 29 30 41
f 30 42 41
f 30 31 42
f 31 43 42
f 31 32 43
f 32 44 43
f 32 33 44
f 33 45 44
f 33 34 45
f 34 46 45
f 34 35 46
f 35 47 46
f 35 36 47
f 36 48 47
f 37 38 49
f 38 50 49
f 38 39 50
f 39 51 50
f 39 40 51
f 40 52 51
f 40 41 52
f 41 53 52
f 41 42 53
f 42 54 53
f 42 43 54
f 43 55 54
f 43 44 55
f 44 56 55
f 44 45 56
f 45 57 56
f 45 46 57
f 46 58 57
f 46 47 58
f 47 59 58
f 47 48 59
f 48 60 59
f 49 50 61
f 50 62 61
f 50 51 62
f 51 63 62
f 51 52 63
f 52 64 63
f 52 53 64
f 53 65 64
f 53 54 65
f 54 66 65
f 54 55 66
f 55 67 66
f 55 56 67
f 56 68 67
f 56 57 68
f 57 69 68
f 57 58 69
f 58 70 69
f 58 59 70
f 59 71 70
f 59 60 71
f 60 72 71
f 61 62 73
f 62 74 73
f 62 63 74
f 63 75 74
f 63 64 75
f 64 76 75
f 64 65 76
f 65 77 76
f 65 66 77
f 66 78 77
f 66 67 78
f 67 79 78
f 67 68 79
f 68 80 79
f 68 69 80
f 69 81 80
f 69 70 81
f 70 82 81
f 70 71 82
f 71 83 82
f 71 72 83
f 72 84 83
f 73 74 85
f 74 86 85
f 74 75 86
f 75 87 86
f 75 76 87
f 76 88 87
f 76 77 88
f 77 89 88
f 77 78 89
f 78 90 89
f 78 79 90
f 79 91 90
f 79 80 91
f 80 92 91
f 80 81 92
f 81 93 92
f 81 82 93
f 82 94 93
f 82 83 94
f 83 95 94
f 83 84 95
f 84 96 95
f 85 86 97
f 86 98 97
f 86 87 98
f 87 99 98
f 87 88 99
f 88 100 99
f 88 89 100
f 89 101 100
f 89 90 101
f 90 102 101
f 90 91 102
f 91 103 102
f 91 92 103
f 92 104 103
f 92 93 104
f 93 105 104
f 93 94 105
f 94 106 105
f 94 95 106
f 95 107 106
f 95 96 107
f 96 108 107
f 97 98 109
f 98 110 109
f 98 99 110
f 99 111 110
f 99 100 111
f 100 112 111
f 100 101 112
f 101 113 112
f 101 102 113
f 102 114 113
f 102 103 114
f 103 115 114
f 103 104 115
f 104 116 115
f 104 105 116
f 105 117 116
f 105 106 117
f 106 118 117
f 106 107 118
f 107 119 118
f 107 108 119
f 108 120 119
f 109 110 121
f 110 122 121
f 110 111 122
f 111 123 122
f 111 112 123
f 112 124 123
f 112 113 124
f 113 125 124
f 113 114 125
f 114 126 125
f 114 115 126
f 115 127 126
f 115 116 127
f 116 128 127
f 116 117 128
f 117 129 128
f 117 118 129
f 118 130 129
f 118 119 130
f 119 131 130
f 119 120 131
f 120 132 131
f 121 122 133
f 122 134 133
f 122 123 134
f 123 135 134
f 123 124 135
f 124 136 135
f 124 125 136
f 125 137 136
f 125 126 137
f 126 138 137
f 126 127 138
f 127 139 138
f 127 128 139
f 128 140 139
f 128 129 140
f 129 141 140
f 129 130 141
f 130 142 141
f 130 131 142
f 131 143 142
f 131 132 143
f 132 144 143
f 145 146 155
f 146 156 155
f 146 147 156
f 147 157 156
f 147 148 157
f 148 158 157
f 148 149 158
f 149 159 158
f 149 150 159
f 150 160 159
f 150 151 160
f 151 161 160
f 151 152 161
f 152 162 161
f 152 153 162
f 153 163 162
f 153 154 163
f 154 164 163
f 154 145 164
f 145 155 164
f 165 166 175
f 166 176 175
f 166 167 176
f 167 177 176
f 167 168 177
f 168 178 177
f 168 169 178
f 169 179 178
f 169 170 179
f 170 180 179
f 170 171 180
f 171 181 180
f 171 172 181
f 172 182 181
f 172 173 182
f 173 183 182
f 173 174 183
f 174 184 183
f 174 165 184
f 165 175 184
f 185 186 195
f 186 196 195
f 186 187 196
f 187 197 196
f 187 188 197
f 188 198 197
f 188 189 198
f 189 199 198
f 189 190 199
f 190 200 199
f 190 191 200
f 191 201 200
f 191 192 201
f 192 202 201
f 192 193 202
f 193 203 202
f 193 194 203
f 194 204 203
f 194 185 204
f 185 195 204
f 205 206 215
f 206 216 215
f 206 207 216
f 207 217 216
f 207 208 217
f 208 218 217
f 208 209 218
f 209 219 218
f 209 210 219
f 210 220 219
f 210 211 220
f 211 221 220
f 211 212 221
f 212 222 221
f 212 213 222
f 213 223 222
f 213 214 223
f 214 224 223
f 214 205 224
f 205 215 224
f 225 226 235
f 226 236 235
f 226 227 236
f 227 237 236
f 227 228 237
f 228 238 237
f 228 229 238
f 229 239 238
f 229 230 239
f 230 240 239
f 230 231 240
f 231 241 240
f 231 232 241
f 232 242 241
f 232 233 242
f 233 243 242
f 233 234 243
f 234 244 243
f 234 225 244
f 225 235 244
f 245 246 255
f 246 256 255
f 246 247 256
f 247 257 256
f 247 248 257
f 248 258 257
f 248 249 258
f 249 259 258
f 249 250 259
f 250 260 259
f 250 251 260
f 251 261 260
f 251 252 261
f 252 262 261
f 252 253 262
f 253 263 262
f 253 254 263
f 254 264 263
f 254 245 264
f 245 255 264
f 265 266 275
f 266 276 275
f 266 267 276
f 267 277 276
f 267 268 277
f 268 278 277
f 268 269 278
f 269 279 278
f 269 270 279
f 270 280 279
f 270 271 280
f 271 281 280
f 271 272 281
f 272 282 281
f 272 273 282
f 273 283 282
f 273 274 283
f 274 284 283
f 274 265 284
f 265 275 284
f 285 286 295
f 286 296 295
f 286 287 296
f 287 297 296
f 287 288 297
f 288 298 297
f 288 289 298
f 289 299 298
f 289 290 299
f 290 300 299
f 290 291 300
f 291 301 300
f 291 292 301
f 292 302 301
f 292 293 302
f 293 303 302
f 293 294 303
f 294 304 303
f 294 285 304
f 285 295 304
f 305 306 315
f 306 316 315
f 306 307 316
f 307 317 316
f 307 308 317
f 308 318 317
f 308 309 318
f 309 319 318
f 309 310 319
f 310 320 319
f 310 311 320
f 311 321 320
f 311 312 321
f 312 322 321
f 312 313 322
f 313 323 322
f 313 314 323
f 314 324 323
f 314 305 324
f 305 315 324
f 325 326 335
f 326 336 335
f 326 327 336
f 327 337 336
f 327 328 337
f 328 338 337
f 328 329 338
f 329 339 338
f 329 330 339
f 330 340 339
f 330 331 340
f 331 341 340
f 331 332 341
f 332 342 341
f 332 333 342
f 333 343 342
f 333 334 343
f 334 344 343
f 334 325 344
f 325 335 344
f 345 346 355
f 346 356 355
f 346 347 356
f 347 357 356
f 347 348 357
f 348 358 357
f 348 349 358
f 349 359 358
f 349 350 359
f 350 360 359
f 350 351 360
f 351 361 360
f 351 352 361
f 352 362 361
f 352 353 362
f 353 363 362
f 353 354 363
f 354 364 363
f 354 345 364
f 345 355 364
f 365 366 375
f 366 376 375
f 366 367 376
f 367 377 376
f 367 368 377
f 368 378 377
f 368 369 378
f 369 379 378
f 369 370 379
f 370 380 379
f 370 371 380
f 371 381 380
f 371 372 381
f 372 382 381
f 372 373 382
f 373 383 382
f 373 374 383
f 374 384 383
f 374 365 384
f 365 375 384
f 385 386 395
f 386 396 395
f 386 387 396
f 387 397 396
f 387 388 397
f 388 398 397
f 388 389 398
f 389 399 398
f 389 390 399
f 390 400 399
f 390 391 400
f 391 401 400
f 391 392 401
f 392 402 401
f 392 393 402
f 393 403 402
f 393 394 403
f 394 404 403
f 394 385 404
f 385 395 404
f 405 406 415
f 406 416 415
f 406 407 416
f 407 417 416
f 407 408 417
f 408 418 417
f 408 409 418
f 409 419 418
f 409 410 419
f 410 420 419
f 410 411 420
f 411 421 420
f 411 412 421
f 412 422 421
f 412 413 422
f 413 423 422
f 413 414 423
f 414 424 423
f 414 405 424
f 405 415 424
f 425 426 435
f 426 436 435
f 426 427 436
f 427 437 436
f 427 428 437
f 428 438 437
f 428 429 438
f 429 439 438
f 429 430 439
f 430 440 439
f 430 431 440
f 431 441 440
f 431 432 441
f 432 442 441
f 432 433 442
f 433 443 442
f 433 434 443
f 434 444 443
f 434 425 444
f 425 435 444
f 445 446 455
f 446 456 455
f 446 447 456
f 447 457 456
f 447 448 457
f 448 458 457
f 448 449 458
f 449 459 458
f 449 450 459
f 450 460 459
f 450 451 460
f 451 461 460
f 451 452 461
f 452 462 461
f 452 453 462
f 453 463 462
f 453 454 463
f 454 464 463
f 454 445 464
f 445 455 464
f 465 466 475
f 466 476 475
f 466 467 476
f 467 477 476
f 467 468 477
f 468 478 477
f 468 469 478
f 469 479 478
f 469 470 479
f 470 480 479
f 470 471 480
f 471 481 480
f 471 472 481
f 472 482 481
f 472 473 482
f 473 483 482
f 473 474 483
f 474 484 483
f 474 465 484
f 465 475 484
f 485 486 495
f 486 496 495
f 486 487 496
f 487 497 496
f 487 488 497
f 488 498 497
f 488 489 498
f 489 499 498
f 489 490 499
f 490 500 499
f 490 491 500
f 491 501 500
f 491 492 501
f 492 502 501
f 492 493 502
f 493 503 502
f 493 494 503
f 494 504 503
f 494 485 504
f 485 495 504
f 505 506 515
f 506 516 515
f 506 507 516
f 507 517 516
f 507 508 517
f 508 518 517
f 508 509 518
f 509 519 518
f 509 510 519
f 510 520 519
f 510 511 520
f 511 521 520
f 511 512 521
f 512 522 521
f 512 513 522
f 513 523 522
f 513 514 523
f 514 524 523
f 514 505 524
f 505 515 524
f 525 526 535
f 526 536 535
f 526 527 536
f 527 537 536
f 527 528 537
f 528 538 537
f 528 529 538
f 529 539 538
f 529 530 539
f 530 540 539
f 530 531 540
f 531 541 540
f 531 532 541
f 532 542 541
f 532 533 542
f 533 543 542
f 533 534 543
f 534 544 543
f 534 525 544
f 525 535 544
f 545 546 555
f 546 556 555
f 546 547 556
f 547 557 556
f 547 548 557
f 548 558 557
f 548 549 558
f 549 559 558
f 549 550 559
f 550 560 559
f 550 551 560
f 551 561 560
f 551 552 561
f 552 562 561
f 552 553 562
f 553 563 562
f 553 554 563
f 554 564 563
f 554 545 564
f 545 555 564
f 565 566 575
f 566 576 575
f 566 567 576
f 567 577 576
f 567 568 577
f 568 578 577
f 568 569 578
f 569 579 578
f 569 570 579
f 570 580 579
f 570 571 580
f 571 581 580
f 571 572 581
f 572 582 581
f 572 573 582
f 573 583 582
f 573 574 583
f 574 584 583
f 574 565 584
f 565 575 584
f 585 586 595
f 586 596 595
f 586 587 596
f 587 597 596
f 587 588 597
f 588 598 597
f 588 589 598
f 589 599 598
f 589 590 599
f 590 600 599
f 590 591 600
f 591 601 600
f 591 592 601
f 592 602 601
f 592 593 602
f 593 603 602
f 593 594 603
f 594 604 603
f 594 585 604
f 585 595 604
f 605 606 615
f 606 616 615
f 606 607 616
f 607 617 616
f 607 608 617
f 608 618 617
f 608 609 618
f 609 619 618
f 609 610 619
f 610 620 619
f 610 611 620
f 611 621 620
f 611 612 621
f 612 622 621
f 612 613 622
f 613 623 622
f 613 614 623
f 614 624 623
f 614 605 624
f 605 615 624
f 625 626 635
f 626 636 635
f 626 627 636
f 627 637 636
f 627 628 637
f 628 638 637
f 628 629 638
f 629 639 638
f 629 630 639
f 630 640 639
f 630 631 640
f 631 641 640
f 631 632 641
f 632 642 641
f 632 633 642
f 633 643 642
f 633 634 643
f 634 644 643
f 634 625 644
f 625 635 644
f 645 646 655
f 646 656 655
f 646 647 656
f 647 657 656
f 647 648 657
f 648 658 657
f 648 649 658
f 649 659 658
f 649 650 659
f 650 660 659
f 650 651 660
f 651 661 660
f 651 652 661
f 652 662 661
f 652 653 662
f 653 663 662
f 653 654 663
f 654 664 663
f 654 645 664
f 645 655 664
f 665 666 675
f 666 676 675
f 666 667 676
f 667 677 676
f 667 668 677
f 668 678 677
f 668 669 678
f 669 679 678
f 669 670 679
f 670 680 679
f 670 671 680
f 671 681 680
f 671 672 681
f 672 682 681
f 672 673 682
f 673 683 682
f 673 674 683
f 674 684 683
f 674 665 684
f 665 675 684
f 685 686 695
f 686 696 695
f 686 687 696
f 687 697 696
f 687 688 697
f 688 698 697
f 688 689 698
f 689 699 698
f 689 690 699
f 690 700 699
f 690 691 700
f 691 701 700
f 691 692 701
f 692 702 701
f 692 693 702
f 693 703 702
f 693 694 703
f 694 704 703
f 694 685 704
f 685 695 704
f 705 706 715
f 706 716 715
f 706 707 716
f 707 717 716
f 707 708 717
f 708 718 717
f 708 709 718
f 709 719 718
f 709 710 719
f 710 720 719
f 710 711 720
f 711 721 720
f 711 712 721
f 712 722 721
f 712 713 722
f 713 723 722
f 713 714 723
f 714 724 723
f 714 705 724
f 705 715 724
f 725 726 735
f 726 736 735
f 726 727 736
f 727 737 736
f 727 728 737
f 728 738 737
f 728 729 738
f 729 739 738
f 729 730 739
f 730 740 739
f 730 731 740
f 731 741 740
f 731 732 741
f 732 742 741
f 732 733 742
f 733 743 742
f 733 734 743
f 734 744 743
f 734 725 744
f 725 735 744
f 745 746 755
f 746 756 755
f 746 747 756
f 747 757 756
f 747 748 757
f 748 758 757
f 748 749 758
f 749 759 758
f 749 750 759
f 750 760 759
f 750 751 760
f 751 761 760
f 751 752 761
f 752 762 761
f 752 753 762
f 753 763 762
f 753 754 763
f 754 764 763
f 754 745 764
f 745 755 764
f 765 766 775
f 766 776 775
f 766 767 776
f 767 777 776
f 767 768 777
f 768 778 777
f 768 769 778
f 769 779 778
f 769 770 779
f 770 780 779
f 770 771 780
f 771 781 780
f 771 772 781
f 772 782 781
f 772 773 782
f 773 783 782
f 773 774 783
f 774 784 783
f 774 765 784
f 765 775 784
