# Full-Body 3D Mesh - Frame 55
v 0.026838 -0.608144 -0.127192
v 0.060646 -0.608144 -0.132053
v 0.091715 -0.608144 -0.146242
v 0.117528 -0.608144 -0.168609
v 0.135994 -0.608144 -0.197343
v 0.145617 -0.608144 -0.230115
v 0.145617 -0.608144 -0.264270
v 0.135994 -0.608144 -0.297042
v 0.117528 -0.608144 -0.325776
v 0.091715 -0.608144 -0.348143
v 0.060646 -0.608144 -0.362332
v 0.026838 -0.608144 -0.367192
v 0.026838 -0.608144 -0.127192
v 0.055279 -0.589866 -0.132053
v 0.081416 -0.573069 -0.146242
v 0.103131 -0.559113 -0.168609
v 0.118666 -0.549130 -0.197343
v 0.126761 -0.543928 -0.230115
v 0.126761 -0.543928 -0.264270
v 0.118666 -0.549130 -0.297042
v 0.103131 -0.559113 -0.325776
v 0.081416 -0.573069 -0.348143
v 0.055279 -0.589866 -0.362332
v 0.026838 -0.608144 -0.367192
v 0.026838 -0.608144 -0.127192
v 0.040882 -0.577391 -0.132053
v 0.053789 -0.549130 -0.146242
v 0.064512 -0.525650 -0.168609
v 0.072183 -0.508852 -0.197343
v 0.076180 -0.500099 -0.230115
v 0.076180 -0.500099 -0.264270
v 0.072183 -0.508852 -0.297042
v 0.064512 -0.525650 -0.325776
v 0.053789 -0.549130 -0.348143
v 0.040882 -0.577391 -0.362332
v 0.026838 -0.608144 -0.367192
v 0.026838 -0.608144 -0.127192
v 0.022027 -0.574680 -0.132053
v 0.017605 -0.543928 -0.146242
v 0.013932 -0.518377 -0.168609
v 0.011304 -0.500099 -0.197343
v 0.009934 -0.490575 -0.230115
v 0.009934 -0.490575 -0.264270
v 0.011304 -0.500099 -0.297042
v 0.013932 -0.518377 -0.325776
v 0.017605 -0.543928 -0.348143
v 0.022027 -0.574680 -0.362332
v 0.026838 -0.608144 -0.367192
v 0.026838 -0.608144 -0.127192
v 0.004699 -0.582594 -0.132053
v -0.015647 -0.559113 -0.146242
v -0.032551 -0.539605 -0.168609
v -0.044644 -0.525650 -0.197343
v -0.050945 -0.518377 -0.230115
v -0.050945 -0.518377 -0.264270
v -0.044644 -0.525650 -0.297042
v -0.032551 -0.539605 -0.325776
v -0.015647 -0.559113 -0.348143
v 0.004699 -0.582594 -0.362332
v 0.026838 -0.608144 -0.367192
v 0.026838 -0.608144 -0.127192
v -0.005600 -0.598619 -0.132053
v -0.035411 -0.589866 -0.146242
v -0.060178 -0.582594 -0.168609
v -0.077896 -0.577391 -0.197343
v -0.087129 -0.574680 -0.230115
v -0.087129 -0.574680 -0.264270
v -0.077896 -0.577391 -0.297042
v -0.060178 -0.582594 -0.325776
v -0.035411 -0.589866 -0.348143
v -0.005600 -0.598619 -0.362332
v 0.026838 -0.608144 -0.367192
v 0.026838 -0.608144 -0.127192
v -0.005600 -0.617669 -0.132053
v -0.035411 -0.626422 -0.146242
v -0.060178 -0.633694 -0.168609
v -0.077896 -0.638897 -0.197343
v -0.087129 -0.641608 -0.230115
v -0.087129 -0.641608 -0.264270
v -0.077896 -0.638897 -0.297042
v -0.060178 -0.633694 -0.325776
v -0.035411 -0.626422 -0.348143
v -0.005600 -0.617669 -0.362332
v 0.026838 -0.608144 -0.367192
v 0.026838 -0.608144 -0.127192
v 0.004699 -0.633694 -0.132053
v -0.015647 -0.657175 -0.146242
v -0.032551 -0.676683 -0.168609
v -0.044644 -0.690639 -0.197343
v -0.050945 -0.697911 -0.230115
v -0.050945 -0.697911 -0.264270
v -0.044644 -0.690639 -0.297042
v -0.032551 -0.676683 -0.325776
v -0.015647 -0.657175 -0.348143
v 0.004699 -0.633694 -0.362332
v 0.026838 -0.608144 -0.367192
v 0.026838 -0.608144 -0.127192
v 0.022027 -0.641608 -0.132053
v 0.017605 -0.672361 -0.146242
v 0.013932 -0.697911 -0.168609
v 0.011304 -0.716189 -0.197343
v 0.009934 -0.725714 -0.230115
v 0.009934 -0.725714 -0.264270
v 0.011304 -0.716189 -0.297042
v 0.013932 -0.697911 -0.325776
v 0.017605 -0.672361 -0.348143
v 0.022027 -0.641608 -0.362332
v 0.026838 -0.608144 -0.367192
v 0.026838 -0.608144 -0.127192
v 0.040882 -0.638897 -0.132053
v 0.053789 -0.667158 -0.146242
v 0.064512 -0.690639 -0.168609
v 0.072183 -0.707436 -0.197343
v 0.076180 -0.716189 -0.230115
v 0.076180 -0.716189 -0.264270
v 0.072183 -0.707436 -0.297042
v 0.064512 -0.690639 -0.325776
v 0.053789 -0.667158 -0.348143
v 0.040882 -0.638897 -0.362332
v 0.026838 -0.608144 -0.367192
v 0.026838 -0.608144 -0.127192
v 0.055279 -0.626422 -0.132053
v 0.081416 -0.643219 -0.146242
v 0.103131 -0.657175 -0.168609
v 0.118666 -0.667158 -0.197343
v 0.126761 -0.672361 -0.230115
v 0.126761 -0.672361 -0.264270
v 0.118666 -0.667158 -0.297042
v 0.103131 -0.657175 -0.325776
v 0.081416 -0.643219 -0.348143
v 0.055279 -0.626422 -0.362332
v 0.026838 -0.608144 -0.367192
v 0.026838 -0.608144 -0.127192
v 0.060646 -0.608144 -0.132053
v 0.091715 -0.608144 -0.146242
v 0.117528 -0.608144 -0.168609
v 0.135994 -0.608144 -0.197343
v 0.145617 -0.608144 -0.230115
v 0.145617 -0.608144 -0.264270
v 0.135994 -0.608144 -0.297042
v 0.117528 -0.608144 -0.325776
v 0.091715 -0.608144 -0.348143
v 0.060646 -0.608144 -0.362332
v 0.026838 -0.608144 -0.367192
v 0.190131 -0.461300 -0.094752
v 0.188954 -0.484785 -0.087123
v 0.188092 -0.499300 -0.067130
v 0.187873 -0.499300 -0.042410
v 0.188382 -0.484785 -0.022404
v 0.189423 -0.461300 -0.014755
v 0.190600 -0.437815 -0.022385
v 0.191462 -0.423300 -0.042378
v 0.191681 -0.423300 -0.067098
v 0.191172 -0.437815 -0.087104
v -0.150200 -0.445228 -0.097761
v -0.151376 -0.468713 -0.090131
v -0.152238 -0.483228 -0.070138
v -0.152457 -0.483228 -0.045418
v -0.151948 -0.468713 -0.025413
v -0.150907 -0.445228 -0.017764
v -0.149730 -0.421743 -0.025393
v -0.148868 -0.407228 -0.045386
v -0.148650 -0.407228 -0.070107
v -0.149158 -0.421743 -0.090112
v 0.189777 -0.482590 -0.088617
v 0.168436 -0.470171 -0.087402
v 0.155247 -0.454363 -0.073716
v 0.155247 -0.441205 -0.052787
v 0.168436 -0.435722 -0.032610
v 0.189777 -0.440009 -0.020891
v 0.211118 -0.452428 -0.022106
v 0.224307 -0.468236 -0.035792
v 0.224307 -0.481395 -0.056720
v 0.211118 -0.486877 -0.076898
v 0.286455 -0.305572 -0.199913
v 0.265114 -0.293153 -0.198698
v 0.251925 -0.277345 -0.185012
v 0.251925 -0.264186 -0.164084
v 0.265114 -0.258704 -0.143906
v 0.286455 -0.262991 -0.132187
v 0.307796 -0.275410 -0.133403
v 0.320985 -0.291218 -0.147088
v 0.320985 -0.304376 -0.168017
v 0.307796 -0.309859 -0.188194
v 0.286455 -0.324232 -0.164062
v 0.269601 -0.315787 -0.148069
v 0.259184 -0.295308 -0.138944
v 0.259184 -0.270617 -0.140173
v 0.269601 -0.251146 -0.151286
v 0.286455 -0.244331 -0.168039
v 0.303309 -0.252775 -0.184032
v 0.313725 -0.273254 -0.193156
v 0.313725 -0.297945 -0.191927
v 0.303309 -0.317417 -0.180814
v 0.087906 -0.334379 -0.367942
v 0.071052 -0.325934 -0.351949
v 0.060636 -0.305455 -0.342825
v 0.060636 -0.280765 -0.344054
v 0.071052 -0.261293 -0.355167
v 0.087906 -0.254478 -0.371919
v 0.104760 -0.262923 -0.387912
v 0.115176 -0.283402 -0.397037
v 0.115176 -0.308092 -0.395808
v 0.104760 -0.327564 -0.384695
v -0.150553 -0.458841 -0.095375
v -0.171899 -0.465509 -0.084837
v -0.185092 -0.464430 -0.063958
v -0.185092 -0.456017 -0.040712
v -0.171899 -0.443483 -0.023979
v -0.150553 -0.431615 -0.020150
v -0.129207 -0.424948 -0.030687
v -0.116015 -0.426027 -0.051566
v -0.116015 -0.434440 -0.074812
v -0.129207 -0.446974 -0.091545
v -0.249198 -0.257945 -0.168084
v -0.270544 -0.264613 -0.157546
v -0.283737 -0.263534 -0.136667
v -0.283737 -0.255121 -0.113421
v -0.270544 -0.242587 -0.096688
v -0.249198 -0.230719 -0.092859
v -0.227852 -0.224052 -0.103396
v -0.214660 -0.225131 -0.124276
v -0.214660 -0.233544 -0.147521
v -0.227852 -0.246078 -0.164255
v -0.249198 -0.283727 -0.137406
v -0.267474 -0.273639 -0.150649
v -0.278769 -0.252357 -0.156184
v -0.278769 -0.228010 -0.151899
v -0.267474 -0.209897 -0.139429
v -0.249198 -0.204938 -0.123537
v -0.230922 -0.215026 -0.110294
v -0.219627 -0.236308 -0.104758
v -0.219627 -0.260655 -0.109044
v -0.230922 -0.278767 -0.121514
v -0.108957 -0.253687 -0.308063
v -0.127233 -0.243600 -0.321306
v -0.138528 -0.222318 -0.326842
v -0.138528 -0.197971 -0.322557
v -0.127233 -0.179858 -0.310087
v -0.108957 -0.174899 -0.294195
v -0.090681 -0.184986 -0.280952
v -0.079386 -0.206268 -0.275416
v -0.079386 -0.230615 -0.279702
v -0.090681 -0.248728 -0.292172
v 0.189777 -0.454955 -0.094248
v 0.166478 -0.459282 -0.087205
v 0.152079 -0.464380 -0.067768
v 0.152079 -0.468302 -0.043360
v 0.166478 -0.469548 -0.023303
v 0.189777 -0.467645 -0.015260
v 0.213076 -0.463317 -0.022302
v 0.227475 -0.458219 -0.041740
v 0.227475 -0.454298 -0.066148
v 0.213076 -0.453051 -0.086204
v 0.126765 0.004396 -0.020451
v 0.103466 0.000069 -0.013409
v 0.089067 -0.005029 0.006028
v 0.089067 -0.008950 0.030436
v 0.103466 -0.010197 0.050493
v 0.126765 -0.008293 0.058536
v 0.150063 -0.003966 0.051494
v 0.164463 0.001132 0.032056
v 0.164463 0.005053 0.007648
v 0.150063 0.006300 -0.012408
v -0.150553 -0.441283 -0.097567
v -0.174023 -0.440645 -0.089827
v -0.188528 -0.441758 -0.069839
v -0.188528 -0.444196 -0.045239
v -0.174023 -0.447029 -0.025421
v -0.150553 -0.449174 -0.017957
v -0.127083 -0.449812 -0.025697
v -0.112578 -0.448699 -0.045685
v -0.112578 -0.446260 -0.070286
v -0.127083 -0.443428 -0.090103
v -0.124741 -0.010129 -0.054830
v -0.148211 -0.009491 -0.047090
v -0.162716 -0.010604 -0.027102
v -0.162716 -0.013042 -0.002501
v -0.148211 -0.015875 0.017316
v -0.124741 -0.018020 0.024780
v -0.101272 -0.018658 0.017040
v -0.086766 -0.017545 -0.002947
v -0.086766 -0.015106 -0.027548
v -0.101272 -0.012274 -0.047365
v 0.132134 -0.001949 -0.020596
v 0.132220 -0.025433 -0.012875
v 0.130223 -0.039947 0.007037
v 0.126905 -0.039947 0.031535
v 0.123533 -0.025433 0.051261
v 0.121396 -0.001949 0.058680
v 0.121309 0.021536 0.050959
v 0.123306 0.036050 0.031047
v 0.126625 0.036050 0.006550
v 0.129996 0.021536 -0.013176
v -0.119372 -0.014074 -0.054663
v -0.119286 -0.037559 -0.046942
v -0.121283 -0.052073 -0.027030
v -0.124601 -0.052073 -0.002532
v -0.127973 -0.037559 0.017194
v -0.130110 -0.014074 0.024613
v -0.130197 0.009410 0.016893
v -0.128200 0.023925 -0.003020
v -0.124881 0.023925 -0.027517
v -0.121510 0.009410 -0.047243
v 0.126765 -0.015346 -0.018648
v 0.103255 -0.012497 -0.011553
v 0.088726 -0.005619 0.007229
v 0.088726 0.002661 0.030522
v 0.103255 0.009180 0.049431
v 0.126765 0.011449 0.056732
v 0.150274 0.008600 0.049637
v 0.164804 0.001722 0.030856
v 0.164804 -0.006558 0.007562
v 0.150274 -0.013077 -0.011346
v 0.129211 0.160632 -0.081200
v 0.105701 0.163481 -0.074105
v 0.091172 0.170359 -0.055324
v 0.091172 0.178639 -0.032031
v 0.105701 0.185158 -0.013122
v 0.129211 0.187426 -0.005821
v 0.152720 0.184578 -0.012916
v 0.167250 0.177700 -0.031697
v 0.167250 0.169420 -0.054991
v 0.152720 0.162901 -0.073899
v 0.129211 0.196241 -0.076777
v 0.105803 0.193834 -0.069198
v 0.091337 0.183863 -0.051807
v 0.091337 0.170136 -0.031247
v 0.105803 0.157896 -0.015372
v 0.129211 0.151818 -0.010244
v 0.152618 0.154224 -0.017823
v 0.167085 0.164195 -0.035214
v 0.167085 0.177923 -0.055774
v 0.152618 0.190163 -0.071650
v 0.161411 0.480212 0.112824
v 0.138004 0.477806 0.120403
v 0.123537 0.467835 0.137794
v 0.123537 0.454108 0.158354
v 0.138004 0.441867 0.174229
v 0.161411 0.435790 0.179357
v 0.184819 0.438196 0.171778
v 0.199286 0.448167 0.154387
v 0.199286 0.461894 0.133827
v 0.184819 0.474134 0.117951
v -0.124741 -0.054032 -0.016872
v -0.146702 -0.046013 -0.024906
v -0.160275 -0.025795 -0.029167
v -0.160275 -0.001100 -0.028025
v -0.146702 0.018639 -0.021918
v -0.124741 0.025883 -0.013178
v -0.102780 0.017864 -0.005143
v -0.089208 -0.002354 -0.000883
v -0.089208 -0.027049 -0.002024
v -0.102780 -0.046788 -0.008131
v -0.064145 -0.046714 -0.175194
v -0.086106 -0.038695 -0.183229
v -0.099679 -0.018476 -0.187489
v -0.099679 0.006219 -0.186348
v -0.086106 0.025958 -0.180240
v -0.064145 0.033201 -0.171500
v -0.042184 0.025182 -0.163465
v -0.028611 0.004964 -0.159205
v -0.028611 -0.019731 -0.160347
v -0.042184 -0.039470 -0.166454
v -0.064145 -0.006465 -0.213346
v -0.087641 -0.005661 -0.205701
v -0.102162 -0.005276 -0.185697
v -0.102162 -0.005457 -0.160977
v -0.087641 -0.006133 -0.140981
v -0.064145 -0.007048 -0.133348
v -0.040649 -0.007851 -0.140994
v -0.026128 -0.008236 -0.160997
v -0.026128 -0.008056 -0.185718
v -0.040649 -0.007379 -0.205713
v -0.054342 0.261693 -0.211390
v -0.077838 0.262496 -0.203745
v -0.092359 0.262881 -0.183742
v -0.092359 0.262700 -0.159021
v -0.077838 0.262024 -0.139025
v -0.054342 0.261109 -0.131393
v -0.030846 0.260306 -0.139038
v -0.016325 0.259921 -0.159041
v -0.016325 0.260101 -0.183762
v -0.030846 0.260778 -0.203758
v 0.069812 0.044752 0.012000
v 0.064662 0.041211 0.005154
v 0.061480 0.033319 0.001475
v 0.061480 0.024092 0.002369
v 0.064662 0.017053 0.007495
v 0.069812 0.014892 0.014894
v 0.074961 0.018434 0.021741
v 0.078144 0.026326 0.025420
v 0.078144 0.035553 0.024526
v 0.074961 0.042591 0.019400
v 0.048626 0.046223 0.027173
v 0.043477 0.042681 0.020326
v 0.040294 0.034789 0.016647
v 0.040294 0.025562 0.017542
v 0.043477 0.018524 0.022667
v 0.048626 0.016363 0.030067
v 0.053776 0.019904 0.036914
v 0.056958 0.027796 0.040593
v 0.056958 0.037023 0.039699
v 0.053776 0.044062 0.034573
v 0.043991 0.031293 0.014354
v 0.043422 0.022610 0.017552
v 0.044840 0.017243 0.024977
v 0.047705 0.017243 0.033793
v 0.050921 0.022610 0.040634
v 0.053261 0.031293 0.042886
v 0.053831 0.039976 0.039689
v 0.052413 0.045342 0.032264
v 0.049548 0.045342 0.023447
v 0.046331 0.039976 0.016606
v 0.023397 0.035107 0.021046
v 0.022827 0.026424 0.024243
v 0.024246 0.021058 0.031668
v 0.027110 0.021058 0.040485
v 0.030327 0.026424 0.047325
v 0.032667 0.035107 0.049577
v 0.033236 0.043791 0.046380
v 0.031818 0.049157 0.038955
v 0.028953 0.049157 0.030138
v 0.025737 0.043791 0.023297
v 0.028032 0.046335 0.025364
v 0.023322 0.039248 0.021685
v 0.020411 0.030580 0.023211
v 0.020411 0.023641 0.029358
v 0.023322 0.021082 0.037780
v 0.028032 0.023880 0.045258
v 0.032742 0.030967 0.048938
v 0.035653 0.039635 0.047412
v 0.035653 0.046574 0.041264
v 0.032742 0.049133 0.032843
v 0.008340 0.054587 0.034679
v 0.003630 0.047500 0.030999
v 0.000719 0.038832 0.032525
v 0.000719 0.031893 0.038673
v 0.003630 0.029333 0.047094
v 0.008340 0.032132 0.054573
v 0.013050 0.039218 0.058252
v 0.015961 0.047887 0.056726
v 0.015961 0.054826 0.050579
v 0.013050 0.057385 0.042157
v 0.008340 0.057929 0.041058
v 0.004465 0.053263 0.034047
v 0.002070 0.044814 0.031077
v 0.002070 0.035810 0.033282
v 0.004465 0.029689 0.039819
v 0.008340 0.028790 0.048193
v 0.012215 0.033455 0.055204
v 0.014610 0.041904 0.058174
v 0.014610 0.050909 0.055970
v 0.012215 0.057030 0.049432
v -0.005527 0.059543 0.047650
v -0.009402 0.054877 0.040639
v -0.011797 0.046428 0.037668
v -0.011797 0.037423 0.039873
v -0.009402 0.031303 0.046410
v -0.005527 0.030403 0.054784
v -0.001652 0.035069 0.061795
v 0.000743 0.043518 0.064765
v 0.000743 0.052522 0.062561
v -0.001652 0.058643 0.056023
v 0.067677 0.029822 -0.001400
v 0.071114 0.021554 0.001000
v 0.074054 0.016443 0.008155
v 0.075373 0.016443 0.017331
v 0.074568 0.021554 0.025024
v 0.071947 0.029822 0.028295
v 0.068510 0.038091 0.025895
v 0.065570 0.043201 0.018740
v 0.064251 0.043201 0.009564
v 0.065056 0.038091 0.001871
v -0.004148 0.002965 0.008928
v -0.000711 -0.005303 0.011328
v 0.002229 -0.010414 0.018482
v 0.003548 -0.010414 0.027658
v 0.002743 -0.005303 0.035351
v 0.000122 0.002965 0.038622
v -0.003315 0.011234 0.036222
v -0.006255 0.016344 0.029068
v -0.007574 0.016344 0.019892
v -0.006769 0.011234 0.012199
v -0.002013 0.000937 0.008913
v -0.010126 -0.002096 0.012218
v -0.015140 -0.003196 0.019937
v -0.015140 -0.001942 0.029123
v -0.010126 0.001186 0.036265
v -0.002013 0.004993 0.038637
v 0.006100 0.008026 0.035332
v 0.011114 0.009126 0.027612
v 0.011114 0.007873 0.018427
v 0.006100 0.004745 0.011284
v -0.008718 0.016551 0.006782
v -0.016831 0.013518 0.010087
v -0.021845 0.012418 0.017807
v -0.021845 0.013671 0.026992
v -0.016831 0.016799 0.034135
v -0.008718 0.020607 0.036507
v -0.000605 0.023640 0.033202
v 0.004409 0.024739 0.025482
v 0.004409 0.023486 0.016297
v -0.000605 0.020358 0.009154
v -0.008718 0.023130 0.007352
v -0.016276 0.017935 0.008704
v -0.020947 0.012985 0.014999
v -0.020947 0.010172 0.023832
v -0.016276 0.010570 0.031830
v -0.008718 0.014027 0.035937
v -0.001160 0.019223 0.034585
v 0.003511 0.024172 0.028290
v 0.003511 0.026985 0.019457
v -0.001160 0.026587 0.011459
v -0.020320 0.041534 0.013212
v -0.027878 0.036339 0.014564
v -0.032549 0.031389 0.020859
v -0.032549 0.028576 0.029693
v -0.027878 0.028974 0.037690
v -0.020320 0.032431 0.041798
v -0.012762 0.037627 0.040446
v -0.008091 0.042576 0.034151
v -0.008091 0.045389 0.025317
v -0.012762 0.044991 0.017319
v -0.020320 0.032210 0.013284
v -0.028285 0.029536 0.017204
v -0.033207 0.029705 0.025058
v -0.033207 0.032655 0.033846
v -0.028285 0.037258 0.040213
v -0.020320 0.041755 0.041725
v -0.012356 0.044430 0.037806
v -0.007434 0.044260 0.029952
v -0.007434 0.041310 0.021163
v -0.012356 0.036708 0.014797
v -0.032416 0.056354 0.005181
v -0.040380 0.053680 0.009101
v -0.045303 0.053850 0.016955
v -0.045303 0.056799 0.025744
v -0.040380 0.061402 0.032110
v -0.032416 0.065899 0.033622
v -0.024452 0.068574 0.029703
v -0.019530 0.068404 0.021849
v -0.019530 0.065454 0.013060
v -0.024452 0.060852 0.006694
v 0.071590 0.029822 -0.001447
v 0.074754 0.021742 0.001816
v 0.076030 0.016748 0.009521
v 0.074931 0.016748 0.018727
v 0.071877 0.021742 0.025915
v 0.068034 0.029822 0.028342
v 0.064870 0.037902 0.025079
v 0.063594 0.042896 0.017373
v 0.064693 0.042896 0.008168
v 0.067747 0.037902 0.000979
v -0.000308 -0.001794 -0.010030
v 0.002856 -0.009874 -0.006767
v 0.004132 -0.014868 0.000938
v 0.003033 -0.014868 0.010144
v -0.000021 -0.009874 0.017332
v -0.003864 -0.001794 0.019759
v -0.007027 0.006286 0.016496
v -0.008303 0.011280 0.008790
v -0.007205 0.011280 -0.000415
v -0.004150 0.006286 -0.007604
v -0.002086 -0.001764 -0.010136
v -0.008788 -0.007498 -0.007282
v -0.012930 -0.011053 0.000210
v -0.012930 -0.011072 0.009481
v -0.008788 -0.007547 0.016988
v -0.002086 -0.001824 0.019864
v 0.004616 0.003910 0.017011
v 0.008759 0.007466 0.009518
v 0.008759 0.007485 0.000248
v 0.004616 0.003959 -0.007259
v -0.012611 0.010551 -0.010111
v -0.019314 0.004817 -0.007258
v -0.023456 0.001261 0.000235
v -0.023456 0.001243 0.009506
v -0.019314 0.004768 0.017013
v -0.012611 0.010491 0.019889
v -0.005909 0.016225 0.017036
v -0.001767 0.019781 0.009543
v -0.001767 0.019799 0.000272
v -0.005909 0.016274 -0.007235
v -0.012611 0.011504 -0.010079
v -0.020456 0.007300 -0.007484
v -0.025304 0.004327 -0.000163
v -0.025304 0.003719 0.009088
v -0.020456 0.005710 0.016735
v -0.012611 0.009538 0.019857
v -0.004767 0.013742 0.017262
v 0.000082 0.016715 0.009941
v 0.000082 0.017322 0.000690
v -0.004767 0.015332 -0.006956
v -0.025789 0.037135 -0.008396
v -0.033634 0.032932 -0.005801
v -0.038482 0.029958 0.001520
v -0.038482 0.029351 0.010771
v -0.033634 0.031341 0.018418
v -0.025789 0.035170 0.021540
v -0.017944 0.039373 0.018945
v -0.013096 0.042346 0.011624
v -0.013096 0.042954 0.002373
v -0.017944 0.040963 -0.005273
v -0.025789 0.040930 -0.007647
v -0.032973 0.035172 -0.006559
v -0.037413 0.029788 -0.000456
v -0.037413 0.026836 0.008332
v -0.032973 0.027442 0.016447
v -0.025789 0.031375 0.020791
v -0.018606 0.037133 0.019703
v -0.014166 0.042517 0.013600
v -0.014166 0.045469 0.004812
v -0.018606 0.044863 -0.003303
v -0.043614 0.064675 0.000331
v -0.050798 0.058917 0.001419
v -0.055238 0.053534 0.007522
v -0.055238 0.050581 0.016310
v -0.050798 0.051187 0.024425
v -0.043614 0.055120 0.028769
v -0.036431 0.060879 0.027681
v -0.031991 0.066262 0.021578
v -0.031991 0.069214 0.012790
v -0.036431 0.068608 0.004675
v 0.069812 0.019331 0.024168
v 0.065288 0.026743 0.027413
v 0.062491 0.035331 0.025324
v 0.062491 0.041815 0.018699
v 0.065288 0.043719 0.010068
v 0.069812 0.040314 0.002727
v 0.074336 0.032902 -0.000519
v 0.077132 0.024314 0.001570
v 0.077132 0.017829 0.008196
v 0.074336 0.015926 0.016827
v -0.001573 -0.011171 -0.005684
v -0.006097 -0.003758 -0.002438
v -0.008893 0.004830 -0.004527
v -0.008893 0.011314 -0.011152
v -0.006097 0.013218 -0.019784
v -0.001573 0.009813 -0.027124
v 0.002951 0.002401 -0.030370
v 0.005747 -0.006187 -0.028281
v 0.005747 -0.012672 -0.021655
v 0.002951 -0.014575 -0.013024
v -0.001573 0.005412 -0.030111
v -0.009472 0.000669 -0.029084
v -0.014353 -0.004589 -0.023214
v -0.014353 -0.008354 -0.014742
v -0.009472 -0.009187 -0.006905
v -0.001573 -0.006770 -0.002696
v 0.006326 -0.002027 -0.003723
v 0.011207 0.003232 -0.009594
v 0.011207 0.006996 -0.018066
v 0.006326 0.007829 -0.025903
v -0.007824 0.016930 -0.024993
v -0.015723 0.012186 -0.023966
v -0.020604 0.006928 -0.018096
v -0.020604 0.003163 -0.009624
v -0.015723 0.002330 -0.001787
v -0.007824 0.004747 0.002422
v 0.000075 0.009491 0.001395
v 0.004956 0.014749 -0.004476
v 0.004956 0.018513 -0.012948
v 0.000075 0.019346 -0.020785
v -0.007824 0.015209 -0.025635
v -0.015138 0.009665 -0.024329
v -0.019659 0.004569 -0.018041
v -0.019659 0.001868 -0.009173
v -0.015138 0.002593 -0.001112
v -0.007824 0.006468 0.003063
v -0.000510 0.012012 0.001757
v 0.004011 0.017108 -0.004531
v 0.004011 0.019809 -0.013399
v -0.000510 0.019084 -0.021460
v -0.025524 0.040366 -0.017972
v -0.032838 0.034821 -0.016666
v -0.037359 0.029725 -0.010378
v -0.037359 0.027024 -0.001510
v -0.032838 0.027749 0.006551
v -0.025524 0.031624 0.010726
v -0.018210 0.037168 0.009420
v -0.013689 0.042264 0.003132
v -0.013689 0.044965 -0.005736
v -0.018210 0.044240 -0.013797
v -0.025524 0.043115 -0.016825
v -0.032652 0.037187 -0.016768
v -0.037057 0.030804 -0.011689
v -0.037057 0.026404 -0.003529
v -0.032652 0.025667 0.004594
v -0.025524 0.028875 0.009579
v -0.018397 0.034802 0.009521
v -0.013992 0.041185 0.004443
v -0.013992 0.045586 -0.003717
v -0.018397 0.046323 -0.011841
v -0.042001 0.063032 -0.006084
v -0.049128 0.057104 -0.006026
v -0.053533 0.050721 -0.000948
v -0.053533 0.046320 0.007212
v -0.049128 0.045583 0.015336
v -0.042001 0.048791 0.020321
v -0.034873 0.054719 0.020263
v -0.030468 0.061102 0.015184
v -0.030468 0.065503 0.007024
v -0.034873 0.066240 -0.001099
v 0.069812 0.016327 0.019996
v 0.064584 0.022004 0.025132
v 0.061353 0.030667 0.025806
v 0.061353 0.039007 0.021759
v 0.064584 0.043840 0.014537
v 0.069812 0.043318 0.006899
v 0.075040 0.037641 0.001762
v 0.078271 0.028978 0.001089
v 0.078271 0.020637 0.005136
v 0.075040 0.015805 0.012358
v 0.008986 -0.003226 -0.020301
v 0.003758 0.002451 -0.015164
v 0.000527 0.011114 -0.014491
v 0.000527 0.019455 -0.018538
v 0.003758 0.024287 -0.025760
v 0.008986 0.023765 -0.033398
v 0.014214 0.018088 -0.038534
v 0.017445 0.009425 -0.039208
v 0.017445 0.001085 -0.035161
v 0.014214 -0.003748 -0.027939
v 0.008986 0.014782 -0.041155
v 0.001968 0.008831 -0.040028
v -0.002370 0.003430 -0.033867
v -0.002370 0.000641 -0.025026
v 0.001968 0.001530 -0.016882
v 0.008986 0.005757 -0.012544
v 0.016005 0.011708 -0.013671
v 0.020342 0.017110 -0.019831
v 0.020342 0.019898 -0.028672
v 0.016005 0.019009 -0.036817
v 0.000463 0.025473 -0.037782
v -0.006556 0.019522 -0.036655
v -0.010894 0.014121 -0.030495
v -0.010894 0.011332 -0.021654
v -0.006556 0.012221 -0.013509
v 0.000463 0.016449 -0.009172
v 0.007481 0.022399 -0.010298
v 0.011819 0.027801 -0.016459
v 0.011819 0.030590 -0.025300
v 0.007481 0.029701 -0.033445
v 0.000463 0.028156 -0.036639
v -0.005321 0.020943 -0.037317
v -0.008896 0.013737 -0.032709
v -0.008896 0.009290 -0.024574
v -0.005321 0.009301 -0.016021
v 0.000463 0.013766 -0.010315
v 0.006247 0.020979 -0.009637
v 0.009822 0.028185 -0.014245
v 0.009822 0.032632 -0.022379
v 0.006247 0.032621 -0.030933
v -0.018572 0.042674 -0.028702
v -0.024356 0.035461 -0.029380
v -0.027931 0.028255 -0.024772
v -0.027931 0.023808 -0.016638
v -0.024356 0.023819 -0.008084
v -0.018572 0.028284 -0.002379
v -0.012788 0.035497 -0.001700
v -0.009213 0.042703 -0.006308
v -0.009213 0.047150 -0.014443
v -0.012788 0.047139 -0.022996
v -0.018572 0.042322 -0.028888
v -0.026070 0.036887 -0.028455
v -0.030704 0.030914 -0.023089
v -0.030704 0.026685 -0.014840
v -0.026070 0.025815 -0.006858
v -0.018572 0.028636 -0.002192
v -0.011075 0.034071 -0.002625
v -0.006441 0.040044 -0.007991
v -0.006441 0.044273 -0.016241
v -0.011075 0.045143 -0.024223
v -0.030066 0.058853 -0.020413
v -0.037564 0.053418 -0.019980
v -0.042198 0.047445 -0.014614
v -0.042198 0.043216 -0.006365
v -0.037564 0.042346 0.001617
v -0.030066 0.045167 0.006283
v -0.022569 0.050602 0.005850
v -0.017935 0.056575 0.000484
v -0.017935 0.060804 -0.007765
v -0.022569 0.061674 -0.015747
v -0.043826 0.031179 0.012848
v -0.051518 0.033077 0.008035
v -0.056272 0.030976 0.000359
v -0.056272 0.025677 -0.007248
v -0.051518 0.019206 -0.011881
v -0.043826 0.014033 -0.011769
v -0.036134 0.012134 -0.006956
v -0.031380 0.014236 0.000721
v -0.031380 0.019534 0.008328
v -0.036134 0.026006 0.012960
v -0.048341 0.024565 0.017455
v -0.056033 0.026464 0.012641
v -0.060787 0.024362 0.004965
v -0.060787 0.019064 -0.002642
v -0.056033 0.012592 -0.007274
v -0.048341 0.007419 -0.007162
v -0.040648 0.005521 -0.002349
v -0.035894 0.007622 0.005327
v -0.035894 0.012921 0.012934
v -0.040648 0.019392 0.017567
v -0.048341 0.022387 0.018715
v -0.057154 0.021382 0.016021
v -0.062601 0.018318 0.009174
v -0.062601 0.014365 0.000789
v -0.057154 0.011034 -0.005933
v -0.048341 0.009597 -0.008422
v -0.039527 0.010602 -0.005729
v -0.034080 0.013666 0.001118
v -0.034080 0.017619 0.009504
v -0.039527 0.020950 0.016225
v -0.048684 0.010919 0.024120
v -0.057498 0.009914 0.021427
v -0.062945 0.006849 0.014580
v -0.062945 0.002897 0.006194
v -0.057498 -0.000434 -0.000527
v -0.048684 -0.001871 -0.003017
v -0.039870 -0.000866 -0.000324
v -0.034423 0.002198 0.006523
v -0.034423 0.006150 0.014909
v -0.039870 0.009482 0.021630
v -0.048684 0.018102 0.016926
v -0.053083 0.012261 0.022626
v -0.055801 0.003465 0.023713
v -0.055801 -0.004926 0.019774
v -0.053083 -0.009708 0.012311
v -0.048684 -0.009054 0.004177
v -0.044285 -0.003214 -0.001522
v -0.041567 0.005582 -0.002610
v -0.041567 0.013974 0.001330
v -0.044285 0.018756 0.008792
v -0.044058 0.016970 0.019337
v -0.048456 0.011130 0.025036
v -0.051175 0.002334 0.026124
v -0.051175 -0.006058 0.022184
v -0.048456 -0.010840 0.014722
v -0.044058 -0.010186 0.006588
v -0.039659 -0.004346 0.000888
v -0.036941 0.004450 -0.000199
v -0.036941 0.012842 0.003740
v -0.039659 0.017624 0.011202
v -0.044058 -0.000400 -0.001551
v -0.049411 0.007102 -0.000550
v -0.052720 0.013187 0.005612
v -0.052720 0.015531 0.014582
v -0.049411 0.013238 0.022932
v -0.044058 0.007184 0.027475
v -0.038704 -0.000318 0.026474
v -0.035396 -0.006403 0.020312
v -0.035396 -0.008747 0.011343
v -0.038704 -0.006454 0.002992
v -0.033317 0.007541 -0.003625
v -0.038671 0.015043 -0.002625
v -0.041980 0.021128 0.003537
v -0.041980 0.023472 0.012507
v -0.038671 0.021179 0.020858
v -0.033317 0.015125 0.025400
v -0.027964 0.007623 0.024399
v -0.024655 0.001538 0.018237
v -0.024655 -0.000805 0.009268
v -0.027964 0.001488 0.000917
v -0.043826 0.025952 0.015162
v -0.049193 0.018495 0.013930
v -0.052510 0.012607 0.007583
v -0.052510 0.010539 -0.001453
v -0.049193 0.013079 -0.009729
v -0.043826 0.019259 -0.014082
v -0.038459 0.026717 -0.012850
v -0.035142 0.032604 -0.006504
v -0.035142 0.034673 0.002533
v -0.038459 0.032132 0.010808
v -0.003715 -0.004049 0.022029
v -0.009082 -0.011506 0.020797
v -0.012400 -0.017394 0.014450
v -0.012400 -0.019462 0.005414
v -0.009082 -0.016922 -0.002862
v -0.003715 -0.010742 -0.007215
v 0.001652 -0.003285 -0.005983
v 0.004969 0.002603 0.000363
v 0.004969 0.004671 0.009400
v 0.001652 0.002131 0.017675
v -0.000315 -0.007395 0.022016
v -0.001784 -0.016172 0.019417
v -0.003991 -0.021596 0.012230
v -0.006093 -0.021596 0.003201
v -0.007286 -0.016172 -0.004222
v -0.007116 -0.007395 -0.007203
v -0.005647 0.001381 -0.004603
v -0.003439 0.006805 0.002583
v -0.001338 0.006805 0.011612
v -0.000144 0.001381 0.019035
v 0.014695 -0.008874 0.018522
v 0.013226 -0.017650 0.015923
v 0.011019 -0.023074 0.008736
v 0.008917 -0.023074 -0.000293
v 0.007723 -0.017650 -0.007715
v 0.007894 -0.008874 -0.010696
v 0.009363 -0.000097 -0.008097
v 0.011570 0.005327 -0.000910
v 0.013672 0.005327 0.008119
v 0.014865 -0.000097 0.015541
v 0.013242 -0.008874 0.018786
v 0.014728 -0.017489 0.015702
v 0.014902 -0.022814 0.008115
v 0.013698 -0.022814 -0.001077
v 0.011576 -0.017489 -0.008363
v 0.009346 -0.008874 -0.010960
v 0.007861 -0.000258 -0.007876
v 0.007687 0.005066 -0.000289
v 0.008891 0.005066 0.008903
v 0.011013 -0.000258 0.016189
v 0.031106 -0.004956 0.016446
v 0.032592 -0.013571 0.013362
v 0.032766 -0.018896 0.005775
v 0.031562 -0.018896 -0.003417
v 0.029439 -0.013571 -0.010703
v 0.027210 -0.004956 -0.013300
v 0.025724 0.003660 -0.010216
v 0.025550 0.008984 -0.002629
v 0.026754 0.008984 0.006563
v 0.028876 0.003660 0.013849
v 0.029158 -0.019827 0.003538
v 0.025287 -0.018024 -0.004690
v 0.022894 -0.011230 -0.010526
v 0.022894 -0.002040 -0.011741
v 0.025287 0.006037 -0.007870
v 0.029158 0.009915 -0.000392
v 0.033029 0.008113 0.007836
v 0.035422 0.001319 0.013672
v 0.035422 -0.007872 0.014887
v 0.033029 -0.015949 0.011016
v 0.047505 -0.021001 -0.005351
v 0.043633 -0.019199 -0.013580
v 0.041241 -0.012405 -0.019416
v 0.041241 -0.003214 -0.020630
v 0.043633 0.004863 -0.016759
v 0.047505 0.008740 -0.009281
v 0.051376 0.006938 -0.001053
v 0.053769 0.000144 0.004783
v 0.053769 -0.009047 0.005998
v 0.051376 -0.017123 0.002127
v -0.043826 0.025694 0.015218
v -0.048148 0.017585 0.013997
v -0.050820 0.011393 0.007636
v -0.050820 0.009484 -0.001436
v -0.048148 0.012587 -0.009753
v -0.043826 0.019517 -0.014139
v -0.039504 0.027627 -0.012918
v -0.036832 0.033819 -0.006557
v -0.036832 0.035728 0.002515
v -0.039504 0.032624 0.010833
v 0.000297 0.001409 0.020329
v -0.004025 -0.006701 0.019108
v -0.006696 -0.012893 0.012746
v -0.006696 -0.014802 0.003675
v -0.004025 -0.011699 -0.004643
v 0.000297 -0.004769 -0.009028
v 0.004620 0.003341 -0.007807
v 0.007291 0.009533 -0.001446
v 0.007291 0.011442 0.007626
v 0.004620 0.008339 0.015943
v 0.003077 -0.001680 0.020390
v 0.000722 -0.010299 0.017919
v -0.001795 -0.015626 0.010762
v -0.003513 -0.015626 0.001652
v -0.003775 -0.010299 -0.005931
v -0.002482 -0.001680 -0.009090
v -0.000127 0.006939 -0.006619
v 0.002390 0.012266 0.000539
v 0.004107 0.012266 0.009649
v 0.004370 0.006939 0.017231
v 0.025127 -0.006512 0.016233
v 0.022773 -0.015131 0.013761
v 0.020256 -0.020458 0.006604
v 0.018538 -0.020458 -0.002506
v 0.018276 -0.015131 -0.010089
v 0.019569 -0.006512 -0.013248
v 0.021923 0.002107 -0.010777
v 0.024440 0.007434 -0.003619
v 0.026158 0.007434 0.005491
v 0.026420 0.002107 0.013074
v 0.022348 -0.018094 0.011025
v 0.017762 -0.020667 0.003390
v 0.014928 -0.017834 -0.004970
v 0.014928 -0.010676 -0.010861
v 0.017762 -0.001928 -0.012034
v 0.022348 0.005070 -0.008040
v 0.026934 0.007643 -0.000405
v 0.029768 0.004810 0.007955
v 0.029768 -0.002348 0.013846
v 0.026934 -0.011096 0.015019
v 0.041451 -0.025486 0.002043
v 0.036865 -0.028060 -0.005592
v 0.034031 -0.025226 -0.013952
v 0.034031 -0.018069 -0.019843
v 0.036865 -0.009320 -0.021015
v 0.041451 -0.002323 -0.017022
v 0.046037 0.000251 -0.009387
v 0.048871 -0.002582 -0.001027
v 0.048871 -0.009740 0.004864
v 0.046037 -0.018489 0.006037
v 0.038649 -0.013904 0.007247
v 0.038664 -0.022705 0.004333
v 0.039744 -0.028145 -0.003096
v 0.041475 -0.028145 -0.012203
v 0.043198 -0.022705 -0.019510
v 0.044253 -0.013904 -0.022225
v 0.044238 -0.005104 -0.019312
v 0.043159 0.000336 -0.011883
v 0.041427 0.000336 -0.002776
v 0.039704 -0.005104 0.004531
v 0.068348 -0.015723 0.012894
v 0.068363 -0.024524 0.009981
v 0.069443 -0.029963 0.002552
v 0.071175 -0.029963 -0.006555
v 0.072897 -0.024524 -0.013862
v 0.073953 -0.015723 -0.016577
v 0.073938 -0.006922 -0.013664
v 0.072858 -0.001483 -0.006235
v 0.071126 -0.001483 0.002872
v 0.069403 -0.006922 0.010179
v -0.041521 0.022606 0.015362
v -0.045096 0.014379 0.013018
v -0.048186 0.009295 0.005909
v -0.049610 0.009295 -0.003252
v -0.048825 0.014379 -0.010964
v -0.046131 0.022606 -0.014282
v -0.042556 0.030832 -0.011939
v -0.039466 0.035916 -0.004829
v -0.038042 0.035916 0.004331
v -0.038827 0.030832 0.012043
v 0.006605 0.003824 0.007878
v 0.003030 -0.004403 0.005535
v -0.000060 -0.009487 -0.001575
v -0.001484 -0.009487 -0.010735
v -0.000699 -0.004403 -0.018447
v 0.001995 0.003824 -0.021766
v 0.005570 0.012050 -0.019422
v 0.008660 0.017134 -0.012313
v 0.010084 0.017134 -0.003152
v 0.009299 0.012050 0.004560
v 0.005581 0.003824 0.008002
v 0.002275 -0.004440 0.005410
v -0.000257 -0.009548 -0.001901
v -0.001049 -0.009548 -0.011138
v 0.000203 -0.004440 -0.018772
v 0.003019 0.003824 -0.021889
v 0.006325 0.012088 -0.019297
v 0.008857 0.017196 -0.011986
v 0.009649 0.017196 -0.002750
v 0.008397 0.012088 0.004885
v 0.022188 -0.002373 0.006578
v 0.018883 -0.010637 0.003986
v 0.016351 -0.015745 -0.003324
v 0.015559 -0.015745 -0.012561
v 0.016811 -0.010637 -0.020195
v 0.019627 -0.002373 -0.023312
v 0.022933 0.005891 -0.020720
v 0.025465 0.010999 -0.013410
v 0.026256 0.010999 -0.004173
v 0.025005 0.005891 0.003462
v 0.025011 -0.002373 0.006061
v 0.023193 -0.011124 0.003600
v 0.020502 -0.016532 -0.003432
v 0.017966 -0.016532 -0.012349
v 0.016554 -0.011124 -0.019745
v 0.016804 -0.002373 -0.022795
v 0.018622 0.006378 -0.020333
v 0.021313 0.011787 -0.013301
v 0.023849 0.011787 -0.004384
v 0.025262 0.006378 0.003011
v 0.044806 -0.004901 0.000431
v 0.042988 -0.013652 -0.002030
v 0.040297 -0.019061 -0.009063
v 0.037761 -0.019061 -0.017979
v 0.036349 -0.013652 -0.025375
v 0.036599 -0.004901 -0.028425
v 0.038417 0.003849 -0.025963
v 0.041108 0.009258 -0.018931
v 0.043644 0.009258 -0.010014
v 0.045057 0.003849 -0.002619
v 0.041975 -0.004901 0.000949
v 0.040662 -0.013653 -0.001814
v 0.039364 -0.019061 -0.009231
v 0.038578 -0.019061 -0.018468
v 0.038603 -0.013653 -0.025997
v 0.039430 -0.004901 -0.028943
v 0.040743 0.003850 -0.026180
v 0.042041 0.009258 -0.018763
v 0.042828 0.009258 -0.009526
v 0.042802 0.003850 -0.001997
v 0.066054 -0.007867 -0.001101
v 0.064741 -0.016619 -0.003865
v 0.063443 -0.022027 -0.011281
v 0.062657 -0.022027 -0.020518
v 0.062682 -0.016619 -0.028048
v 0.063509 -0.007867 -0.030993
v 0.064822 0.000884 -0.028230
v 0.066120 0.006292 -0.020813
v 0.066906 0.006292 -0.011576
v 0.066881 0.000884 -0.004047
v -0.043826 0.013878 0.012740
v -0.047671 0.009092 0.005793
v -0.050047 0.009467 -0.003160
v -0.050047 0.014861 -0.010700
v -0.047671 0.023213 -0.013946
v -0.043826 0.031333 -0.011660
v -0.039981 0.036119 -0.004714
v -0.037605 0.035744 0.004239
v -0.037605 0.030350 0.011779
v -0.039981 0.021998 0.015026
v -0.000014 -0.003388 0.000388
v -0.003859 -0.008174 -0.006558
v -0.006235 -0.007799 -0.015511
v -0.006235 -0.002405 -0.023051
v -0.003859 0.005947 -0.026298
v -0.000014 0.014067 -0.024012
v 0.003830 0.018853 -0.017065
v 0.006207 0.018478 -0.008112
v 0.006207 0.013084 -0.000573
v 0.003830 0.004732 0.002674
v 0.001884 0.005339 0.003068
v -0.000154 -0.003314 0.000439
v -0.002137 -0.008662 -0.006868
v -0.003310 -0.008662 -0.016064
v -0.003224 -0.003314 -0.023636
v -0.001912 0.005339 -0.026691
v 0.000125 0.013993 -0.024063
v 0.002109 0.019341 -0.016756
v 0.003282 0.019341 -0.007560
v 0.003196 0.013993 0.000012
v 0.016611 0.002443 0.001189
v 0.014573 -0.006211 -0.001439
v 0.012590 -0.011559 -0.008747
v 0.011417 -0.011559 -0.017943
v 0.011503 -0.006211 -0.025514
v 0.012815 0.002443 -0.028570
v 0.014852 0.011097 -0.025942
v 0.016836 0.016445 -0.018634
v 0.018009 0.016445 -0.009438
v 0.017923 0.011097 -0.001866
v 0.017088 0.002443 0.001120
v 0.016291 -0.006367 -0.001653
v 0.014891 -0.011812 -0.009024
v 0.013423 -0.011812 -0.018178
v 0.012447 -0.006367 -0.025617
v 0.012338 0.002443 -0.028501
v 0.013135 0.011253 -0.025728
v 0.014535 0.016698 -0.018356
v 0.016003 0.016698 -0.009203
v 0.016978 0.011253 -0.001763
v 0.034169 0.001760 -0.001619
v 0.033372 -0.007050 -0.004392
v 0.031972 -0.012495 -0.011764
v 0.030504 -0.012495 -0.020917
v 0.029529 -0.007050 -0.028357
v 0.029419 0.001760 -0.031240
v 0.030216 0.010570 -0.028467
v 0.031616 0.016014 -0.021096
v 0.033084 0.016014 -0.011942
v 0.034059 0.010570 -0.004503
v 0.031794 -0.010549 -0.007857
v 0.027897 -0.012718 -0.015984
v 0.025489 -0.009358 -0.024282
v 0.025489 -0.001750 -0.029580
v 0.027897 0.007198 -0.029855
v 0.031794 0.014069 -0.025002
v 0.035691 0.016238 -0.016875
v 0.038099 0.012877 -0.008578
v 0.038099 0.005270 -0.003280
v 0.035691 -0.003678 -0.003004
v 0.048794 -0.015336 -0.014730
v 0.044897 -0.017506 -0.022858
v 0.042489 -0.014145 -0.031155
v 0.042489 -0.006537 -0.036453
v 0.044897 0.002411 -0.036729
v 0.048794 0.009281 -0.031876
v 0.052691 0.011451 -0.023749
v 0.055099 0.008090 -0.015451
v 0.055099 0.000482 -0.010153
v 0.052691 -0.008466 -0.009878
f 1 2 13
f 2 14 13
f 2 3 14
f 3 15 14
f 3 4 15
f 4 16 15
f 4 5 16
f 5 17 16
f 5 6 17
f 6 18 17
f 6 7 18
f 7 19 18
f 7 8 19
f 8 20 19
f 8 9 20
f 9 21 20
f 9 10 21
f 10 22 21
f 10 11 22
f 11 23 22
f 11 12 23
f 12 24 23
f 13 14 25
f 14 26 25
f 14 15 26
f 15 27 26
f 15 16 27
f 16 28 27
f 16 17 28
f 17 29 28
f 17 18 29
f 18 30 29
f 18 19 30
f 19 31 30
f 19 20 31
f 20 32 31
f 20 21 32
f 21 33 32
f 21 22 33
f 22 34 33
f 22 23 34
f 23 35 34
f 23 24 35
f 24 36 35
f 25 26 37
f 26 38 37
f 26 27 38
f 27 39 38
f 27 28 39
f 28 40 39
f 28 29 40
f 29 41 40
f 29 30 41
f 30 42 41
f 30 31 42
f 31 43 42
f 31 32 43
f 32 44 43
f 32 33 44
f 33 45 44
f 33 34 45
f 34 46 45
f 34 35 46
f 35 47 46
f 35 36 47
f 36 48 47
f 37 38 49
f 38 50 49
f 38 39 50
f 39 51 50
f 39 40 51
f 40 52 51
f 40 41 52
f 41 53 52
f 41 42 53
f 42 54 53
f 42 43 54
f 43 55 54
f 43 44 55
f 44 56 55
f 44 45 56
f 45 57 56
f 45 46 57
f 46 58 57
f 46 47 58
f 47 59 58
f 47 48 59
f 48 60 59
f 49 50 61
f 50 62 61
f 50 51 62
f 51 63 62
f 51 52 63
f 52 64 63
f 52 53 64
f 53 65 64
f 53 54 65
f 54 66 65
f 54 55 66
f 55 67 66
f 55 56 67
f 56 68 67
f 56 57 68
f 57 69 68
f 57 58 69
f 58 70 69
f 58 59 70
f 59 71 70
f 59 60 71
f 60 72 71
f 61 62 73
f 62 74 73
f 62 63 74
f 63 75 74
f 63 64 75
f 64 76 75
f 64 65 76
f 65 77 76
f 65 66 77
f 66 78 77
f 66 67 78
f 67 79 78
f 67 68 79
f 68 80 79
f 68 69 80
f 69 81 80
f 69 70 81
f 70 82 81
f 70 71 82
f 71 83 82
f 71 72 83
f 72 84 83
f 73 74 85
f 74 86 85
f 74 75 86
f 75 87 86
f 75 76 87
f 76 88 87
f 76 77 88
f 77 89 88
f 77 78 89
f 78 90 89
f 78 79 90
f 79 91 90
f 79 80 91
f 80 92 91
f 80 81 92
f 81 93 92
f 81 82 93
f 82 94 93
f 82 83 94
f 83 95 94
f 83 84 95
f 84 96 95
f 85 86 97
f 86 98 97
f 86 87 98
f 87 99 98
f 87 88 99
f 88 100 99
f 88 89 100
f 89 101 100
f 89 90 101
f 90 102 101
f 90 91 102
f 91 103 102
f 91 92 103
f 92 104 103
f 92 93 104
f 93 105 104
f 93 94 105
f 94 106 105
f 94 95 106
f 95 107 106
f 95 96 107
f 96 108 107
f 97 98 109
f 98 110 109
f 98 99 110
f 99 111 110
f 99 100 111
f 100 112 111
f 100 101 112
f 101 113 112
f 101 102 113
f 102 114 113
f 102 103 114
f 103 115 114
f 103 104 115
f 104 116 115
f 104 105 116
f 105 117 116
f 105 106 117
f 106 118 117
f 106 107 118
f 107 119 118
f 107 108 119
f 108 120 119
f 109 110 121
f 110 122 121
f 110 111 122
f 111 123 122
f 111 112 123
f 112 124 123
f 112 113 124
f 113 125 124
f 113 114 125
f 114 126 125
f 114 115 126
f 115 127 126
f 115 116 127
f 116 128 127
f 116 117 128
f 117 129 128
f 117 118 129
f 118 130 129
f 118 119 130
f 119 131 130
f 119 120 131
f 120 132 131
f 121 122 133
f 122 134 133
f 122 123 134
f 123 135 134
f 123 124 135
f 124 136 135
f 124 125 136
f 125 137 136
f 125 126 137
f 126 138 137
f 126 127 138
f 127 139 138
f 127 128 139
f 128 140 139
f 128 129 140
f 129 141 140
f 129 130 141
f 130 142 141
f 130 131 142
f 131 143 142
f 131 132 143
f 132 144 143
f 145 146 155
f 146 156 155
f 146 147 156
f 147 157 156
f 147 148 157
f 148 158 157
f 148 149 158
f 149 159 158
f 149 150 159
f 150 160 159
f 150 151 160
f 151 161 160
f 151 152 161
f 152 162 161
f 152 153 162
f 153 163 162
f 153 154 163
f 154 164 163
f 154 145 164
f 145 155 164
f 165 166 175
f 166 176 175
f 166 167 176
f 167 177 176
f 167 168 177
f 168 178 177
f 168 169 178
f 169 179 178
f 169 170 179
f 170 180 179
f 170 171 180
f 171 181 180
f 171 172 181
f 172 182 181
f 172 173 182
f 173 183 182
f 173 174 183
f 174 184 183
f 174 165 184
f 165 175 184
f 185 186 195
f 186 196 195
f 186 187 196
f 187 197 196
f 187 188 197
f 188 198 197
f 188 189 198
f 189 199 198
f 189 190 199
f 190 200 199
f 190 191 200
f 191 201 200
f 191 192 201
f 192 202 201
f 192 193 202
f 193 203 202
f 193 194 203
f 194 204 203
f 194 185 204
f 185 195 204
f 205 206 215
f 206 216 215
f 206 207 216
f 207 217 216
f 207 208 217
f 208 218 217
f 208 209 218
f 209 219 218
f 209 210 219
f 210 220 219
f 210 211 220
f 211 221 220
f 211 212 221
f 212 222 221
f 212 213 222
f 213 223 222
f 213 214 223
f 214 224 223
f 214 205 224
f 205 215 224
f 225 226 235
f 226 236 235
f 226 227 236
f 227 237 236
f 227 228 237
f 228 238 237
f 228 229 238
f 229 239 238
f 229 230 239
f 230 240 239
f 230 231 240
f 231 241 240
f 231 232 241
f 232 242 241
f 232 233 242
f 233 243 242
f 233 234 243
f 234 244 243
f 234 225 244
f 225 235 244
f 245 246 255
f 246 256 255
f 246 247 256
f 247 257 256
f 247 248 257
f 248 258 257
f 248 249 258
f 249 259 258
f 249 250 259
f 250 260 259
f 250 251 260
f 251 261 260
f 251 252 261
f 252 262 261
f 252 253 262
f 253 263 262
f 253 254 263
f 254 264 263
f 254 245 264
f 245 255 264
f 265 266 275
f 266 276 275
f 266 267 276
f 267 277 276
f 267 268 277
f 268 278 277
f 268 269 278
f 269 279 278
f 269 270 279
f 270 280 279
f 270 271 280
f 271 281 280
f 271 272 281
f 272 282 281
f 272 273 282
f 273 283 282
f 273 274 283
f 274 284 283
f 274 265 284
f 265 275 284
f 285 286 295
f 286 296 295
f 286 287 296
f 287 297 296
f 287 288 297
f 288 298 297
f 288 289 298
f 289 299 298
f 289 290 299
f 290 300 299
f 290 291 300
f 291 301 300
f 291 292 301
f 292 302 301
f 292 293 302
f 293 303 302
f 293 294 303
f 294 304 303
f 294 285 304
f 285 295 304
f 305 306 315
f 306 316 315
f 306 307 316
f 307 317 316
f 307 308 317
f 308 318 317
f 308 309 318
f 309 319 318
f 309 310 319
f 310 320 319
f 310 311 320
f 311 321 320
f 311 312 321
f 312 322 321
f 312 313 322
f 313 323 322
f 313 314 323
f 314 324 323
f 314 305 324
f 305 315 324
f 325 326 335
f 326 336 335
f 326 327 336
f 327 337 336
f 327 328 337
f 328 338 337
f 328 329 338
f 329 339 338
f 329 330 339
f 330 340 339
f 330 331 340
f 331 341 340
f 331 332 341
f 332 342 341
f 332 333 342
f 333 343 342
f 333 334 343
f 334 344 343
f 334 325 344
f 325 335 344
f 345 346 355
f 346 356 355
f 346 347 356
f 347 357 356
f 347 348 357
f 348 358 357
f 348 349 358
f 349 359 358
f 349 350 359
f 350 360 359
f 350 351 360
f 351 361 360
f 351 352 361
f 352 362 361
f 352 353 362
f 353 363 362
f 353 354 363
f 354 364 363
f 354 345 364
f 345 355 364
f 365 366 375
f 366 376 375
f 366 367 376
f 367 377 376
f 367 368 377
f 368 378 377
f 368 369 378
f 369 379 378
f 369 370 379
f 370 380 379
f 370 371 380
f 371 381 380
f 371 372 381
f 372 382 381
f 372 373 382
f 373 383 382
f 373 374 383
f 374 384 383
f 374 365 384
f 365 375 384
f 385 386 395
f 386 396 395
f 386 387 396
f 387 397 396
f 387 388 397
f 388 398 397
f 388 389 398
f 389 399 398
f 389 390 399
f 390 400 399
f 390 391 400
f 391 401 400
f 391 392 401
f 392 402 401
f 392 393 402
f 393 403 402
f 393 394 403
f 394 404 403
f 394 385 404
f 385 395 404
f 405 406 415
f 406 416 415
f 406 407 416
f 407 417 416
f 407 408 417
f 408 418 417
f 408 409 418
f 409 419 418
f 409 410 419
f 410 420 419
f 410 411 420
f 411 421 420
f 411 412 421
f 412 422 421
f 412 413 422
f 413 423 422
f 413 414 423
f 414 424 423
f 414 405 424
f 405 415 424
f 425 426 435
f 426 436 435
f 426 427 436
f 427 437 436
f 427 428 437
f 428 438 437
f 428 429 438
f 429 439 438
f 429 430 439
f 430 440 439
f 430 431 440
f 431 441 440
f 431 432 441
f 432 442 441
f 432 433 442
f 433 443 442
f 433 434 443
f 434 444 443
f 434 425 444
f 425 435 444
f 445 446 455
f 446 456 455
f 446 447 456
f 447 457 456
f 447 448 457
f 448 458 457
f 448 449 458
f 449 459 458
f 449 450 459
f 450 460 459
f 450 451 460
f 451 461 460
f 451 452 461
f 452 462 461
f 452 453 462
f 453 463 462
f 453 454 463
f 454 464 463
f 454 445 464
f 445 455 464
f 465 466 475
f 466 476 475
f 466 467 476
f 467 477 476
f 467 468 477
f 468 478 477
f 468 469 478
f 469 479 478
f 469 470 479
f 470 480 479
f 470 471 480
f 471 481 480
f 471 472 481
f 472 482 481
f 472 473 482
f 473 483 482
f 473 474 483
f 474 484 483
f 474 465 484
f 465 475 484
f 485 486 495
f 486 496 495
f 486 487 496
f 487 497 496
f 487 488 497
f 488 498 497
f 488 489 498
f 489 499 498
f 489 490 499
f 490 500 499
f 490 491 500
f 491 501 500
f 491 492 501
f 492 502 501
f 492 493 502
f 493 503 502
f 493 494 503
f 494 504 503
f 494 485 504
f 485 495 504
f 505 506 515
f 506 516 515
f 506 507 516
f 507 517 516
f 507 508 517
f 508 518 517
f 508 509 518
f 509 519 518
f 509 510 519
f 510 520 519
f 510 511 520
f 511 521 520
f 511 512 521
f 512 522 521
f 512 513 522
f 513 523 522
f 513 514 523
f 514 524 523
f 514 505 524
f 505 515 524
f 525 526 535
f 526 536 535
f 526 527 536
f 527 537 536
f 527 528 537
f 528 538 537
f 528 529 538
f 529 539 538
f 529 530 539
f 530 540 539
f 530 531 540
f 531 541 540
f 531 532 541
f 532 542 541
f 532 533 542
f 533 543 542
f 533 534 543
f 534 544 543
f 534 525 544
f 525 535 544
f 545 546 555
f 546 556 555
f 546 547 556
f 547 557 556
f 547 548 557
f 548 558 557
f 548 549 558
f 549 559 558
f 549 550 559
f 550 560 559
f 550 551 560
f 551 561 560
f 551 552 561
f 552 562 561
f 552 553 562
f 553 563 562
f 553 554 563
f 554 564 563
f 554 545 564
f 545 555 564
f 565 566 575
f 566 576 575
f 566 567 576
f 567 577 576
f 567 568 577
f 568 578 577
f 568 569 578
f 569 579 578
f 569 570 579
f 570 580 579
f 570 571 580
f 571 581 580
f 571 572 581
f 572 582 581
f 572 573 582
f 573 583 582
f 573 574 583
f 574 584 583
f 574 565 584
f 565 575 584
f 585 586 595
f 586 596 595
f 586 587 596
f 587 597 596
f 587 588 597
f 588 598 597
f 588 589 598
f 589 599 598
f 589 590 599
f 590 600 599
f 590 591 600
f 591 601 600
f 591 592 601
f 592 602 601
f 592 593 602
f 593 603 602
f 593 594 603
f 594 604 603
f 594 585 604
f 585 595 604
f 605 606 615
f 606 616 615
f 606 607 616
f 607 617 616
f 607 608 617
f 608 618 617
f 608 609 618
f 609 619 618
f 609 610 619
f 610 620 619
f 610 611 620
f 611 621 620
f 611 612 621
f 612 622 621
f 612 613 622
f 613 623 622
f 613 614 623
f 614 624 623
f 614 605 624
f 605 615 624
f 625 626 635
f 626 636 635
f 626 627 636
f 627 637 636
f 627 628 637
f 628 638 637
f 628 629 638
f 629 639 638
f 629 630 639
f 630 640 639
f 630 631 640
f 631 641 640
f 631 632 641
f 632 642 641
f 632 633 642
f 633 643 642
f 633 634 643
f 634 644 643
f 634 625 644
f 625 635 644
f 645 646 655
f 646 656 655
f 646 647 656
f 647 657 656
f 647 648 657
f 648 658 657
f 648 649 658
f 649 659 658
f 649 650 659
f 650 660 659
f 650 651 660
f 651 661 660
f 651 652 661
f 652 662 661
f 652 653 662
f 653 663 662
f 653 654 663
f 654 664 663
f 654 645 664
f 645 655 664
f 665 666 675
f 666 676 675
f 666 667 676
f 667 677 676
f 667 668 677
f 668 678 677
f 668 669 678
f 669 679 678
f 669 670 679
f 670 680 679
f 670 671 680
f 671 681 680
f 671 672 681
f 672 682 681
f 672 673 682
f 673 683 682
f 673 674 683
f 674 684 683
f 674 665 684
f 665 675 684
f 685 686 695
f 686 696 695
f 686 687 696
f 687 697 696
f 687 688 697
f 688 698 697
f 688 689 698
f 689 699 698
f 689 690 699
f 690 700 699
f 690 691 700
f 691 701 700
f 691 692 701
f 692 702 701
f 692 693 702
f 693 703 702
f 693 694 703
f 694 704 703
f 694 685 704
f 685 695 704
f 705 706 715
f 706 716 715
f 706 707 716
f 707 717 716
f 707 708 717
f 708 718 717
f 708 709 718
f 709 719 718
f 709 710 719
f 710 720 719
f 710 711 720
f 711 721 720
f 711 712 721
f 712 722 721
f 712 713 722
f 713 723 722
f 713 714 723
f 714 724 723
f 714 705 724
f 705 715 724
f 725 726 735
f 726 736 735
f 726 727 736
f 727 737 736
f 727 728 737
f 728 738 737
f 728 729 738
f 729 739 738
f 729 730 739
f 730 740 739
f 730 731 740
f 731 741 740
f 731 732 741
f 732 742 741
f 732 733 742
f 733 743 742
f 733 734 743
f 734 744 743
f 734 725 744
f 725 735 744
f 745 746 755
f 746 756 755
f 746 747 756
f 747 757 756
f 747 748 757
f 748 758 757
f 748 749 758
f 749 759 758
f 749 750 759
f 750 760 759
f 750 751 760
f 751 761 760
f 751 752 761
f 752 762 761
f 752 753 762
f 753 763 762
f 753 754 763
f 754 764 763
f 754 745 764
f 745 755 764
f 765 766 775
f 766 776 775
f 766 767 776
f 767 777 776
f 767 768 777
f 768 778 777
f 768 769 778
f 769 779 778
f 769 770 779
f 770 780 779
f 770 771 780
f 771 781 780
f 771 772 781
f 772 782 781
f 772 773 782
f 773 783 782
f 773 774 783
f 774 784 783
f 774 765 784
f 765 775 784
f 785 786 795
f 786 796 795
f 786 787 796
f 787 797 796
f 787 788 797
f 788 798 797
f 788 789 798
f 789 799 798
f 789 790 799
f 790 800 799
f 790 791 800
f 791 801 800
f 791 792 801
f 792 802 801
f 792 793 802
f 793 803 802
f 793 794 803
f 794 804 803
f 794 785 804
f 785 795 804
f 805 806 815
f 806 816 815
f 806 807 816
f 807 817 816
f 807 808 817
f 808 818 817
f 808 809 818
f 809 819 818
f 809 810 819
f 810 820 819
f 810 811 820
f 811 821 820
f 811 812 821
f 812 822 821
f 812 813 822
f 813 823 822
f 813 814 823
f 814 824 823
f 814 805 824
f 805 815 824
f 825 826 835
f 826 836 835
f 826 827 836
f 827 837 836
f 827 828 837
f 828 838 837
f 828 829 838
f 829 839 838
f 829 830 839
f 830 840 839
f 830 831 840
f 831 841 840
f 831 832 841
f 832 842 841
f 832 833 842
f 833 843 842
f 833 834 843
f 834 844 843
f 834 825 844
f 825 835 844
f 845 846 855
f 846 856 855
f 846 847 856
f 847 857 856
f 847 848 857
f 848 858 857
f 848 849 858
f 849 859 858
f 849 850 859
f 850 860 859
f 850 851 860
f 851 861 860
f 851 852 861
f 852 862 861
f 852 853 862
f 853 863 862
f 853 854 863
f 854 864 863
f 854 845 864
f 845 855 864
f 865 866 875
f 866 876 875
f 866 867 876
f 867 877 876
f 867 868 877
f 868 878 877
f 868 869 878
f 869 879 878
f 869 870 879
f 870 880 879
f 870 871 880
f 871 881 880
f 871 872 881
f 872 882 881
f 872 873 882
f 873 883 882
f 873 874 883
f 874 884 883
f 874 865 884
f 865 875 884
f 885 886 895
f 886 896 895
f 886 887 896
f 887 897 896
f 887 888 897
f 888 898 897
f 888 889 898
f 889 899 898
f 889 890 899
f 890 900 899
f 890 891 900
f 891 901 900
f 891 892 901
f 892 902 901
f 892 893 902
f 893 903 902
f 893 894 903
f 894 904 903
f 894 885 904
f 885 895 904
f 905 906 915
f 906 916 915
f 906 907 916
f 907 917 916
f 907 908 917
f 908 918 917
f 908 909 918
f 909 919 918
f 909 910 919
f 910 920 919
f 910 911 920
f 911 921 920
f 911 912 921
f 912 922 921
f 912 913 922
f 913 923 922
f 913 914 923
f 914 924 923
f 914 905 924
f 905 915 924
f 925 926 935
f 926 936 935
f 926 927 936
f 927 937 936
f 927 928 937
f 928 938 937
f 928 929 938
f 929 939 938
f 929 930 939
f 930 940 939
f 930 931 940
f 931 941 940
f 931 932 941
f 932 942 941
f 932 933 942
f 933 943 942
f 933 934 943
f 934 944 943
f 934 925 944
f 925 935 944
f 945 946 955
f 946 956 955
f 946 947 956
f 947 957 956
f 947 948 957
f 948 958 957
f 948 949 958
f 949 959 958
f 949 950 959
f 950 960 959
f 950 951 960
f 951 961 960
f 951 952 961
f 952 962 961
f 952 953 962
f 953 963 962
f 953 954 963
f 954 964 963
f 954 945 964
f 945 955 964
f 965 966 975
f 966 976 975
f 966 967 976
f 967 977 976
f 967 968 977
f 968 978 977
f 968 969 978
f 969 979 978
f 969 970 979
f 970 980 979
f 970 971 980
f 971 981 980
f 971 972 981
f 972 982 981
f 972 973 982
f 973 983 982
f 973 974 983
f 974 984 983
f 974 965 984
f 965 975 984
f 985 986 995
f 986 996 995
f 986 987 996
f 987 997 996
f 987 988 997
f 988 998 997
f 988 989 998
f 989 999 998
f 989 990 999
f 990 1000 999
f 990 991 1000
f 991 1001 1000
f 991 992 1001
f 992 1002 1001
f 992 993 1002
f 993 1003 1002
f 993 994 1003
f 994 1004 1003
f 994 985 1004
f 985 995 1004
f 1005 1006 1015
f 1006 1016 1015
f 1006 1007 1016
f 1007 1017 1016
f 1007 1008 1017
f 1008 1018 1017
f 1008 1009 1018
f 1009 1019 1018
f 1009 1010 1019
f 1010 1020 1019
f 1010 1011 1020
f 1011 1021 1020
f 1011 1012 1021
f 1012 1022 1021
f 1012 1013 1022
f 1013 1023 1022
f 1013 1014 1023
f 1014 1024 1023
f 1014 1005 1024
f 1005 1015 1024
f 1025 1026 1035
f 1026 1036 1035
f 1026 1027 1036
f 1027 1037 1036
f 1027 1028 1037
f 1028 1038 1037
f 1028 1029 1038
f 1029 1039 1038
f 1029 1030 1039
f 1030 1040 1039
f 1030 1031 1040
f 1031 1041 1040
f 1031 1032 1041
f 1032 1042 1041
f 1032 1033 1042
f 1033 1043 1042
f 1033 1034 1043
f 1034 1044 1043
f 1034 1025 1044
f 1025 1035 1044
f 1045 1046 1055
f 1046 1056 1055
f 1046 1047 1056
f 1047 1057 1056
f 1047 1048 1057
f 1048 1058 1057
f 1048 1049 1058
f 1049 1059 1058
f 1049 1050 1059
f 1050 1060 1059
f 1050 1051 1060
f 1051 1061 1060
f 1051 1052 1061
f 1052 1062 1061
f 1052 1053 1062
f 1053 1063 1062
f 1053 1054 1063
f 1054 1064 1063
f 1054 1045 1064
f 1045 1055 1064
f 1065 1066 1075
f 1066 1076 1075
f 1066 1067 1076
f 1067 1077 1076
f 1067 1068 1077
f 1068 1078 1077
f 1068 1069 1078
f 1069 1079 1078
f 1069 1070 1079
f 1070 1080 1079
f 1070 1071 1080
f 1071 1081 1080
f 1071 1072 1081
f 1072 1082 1081
f 1072 1073 1082
f 1073 1083 1082
f 1073 1074 1083
f 1074 1084 1083
f 1074 1065 1084
f 1065 1075 1084
f 1085 1086 1095
f 1086 1096 1095
f 1086 1087 1096
f 1087 1097 1096
f 1087 1088 1097
f 1088 1098 1097
f 1088 1089 1098
f 1089 1099 1098
f 1089 1090 1099
f 1090 1100 1099
f 1090 1091 1100
f 1091 1101 1100
f 1091 1092 1101
f 1092 1102 1101
f 1092 1093 1102
f 1093 1103 1102
f 1093 1094 1103
f 1094 1104 1103
f 1094 1085 1104
f 1085 1095 1104
f 1105 1106 1115
f 1106 1116 1115
f 1106 1107 1116
f 1107 1117 1116
f 1107 1108 1117
f 1108 1118 1117
f 1108 1109 1118
f 1109 1119 1118
f 1109 1110 1119
f 1110 1120 1119
f 1110 1111 1120
f 1111 1121 1120
f 1111 1112 1121
f 1112 1122 1121
f 1112 1113 1122
f 1113 1123 1122
f 1113 1114 1123
f 1114 1124 1123
f 1114 1105 1124
f 1105 1115 1124
f 1125 1126 1135
f 1126 1136 1135
f 1126 1127 1136
f 1127 1137 1136
f 1127 1128 1137
f 1128 1138 1137
f 1128 1129 1138
f 1129 1139 1138
f 1129 1130 1139
f 1130 1140 1139
f 1130 1131 1140
f 1131 1141 1140
f 1131 1132 1141
f 1132 1142 1141
f 1132 1133 1142
f 1133 1143 1142
f 1133 1134 1143
f 1134 1144 1143
f 1134 1125 1144
f 1125 1135 1144
f 1145 1146 1155
f 1146 1156 1155
f 1146 1147 1156
f 1147 1157 1156
f 1147 1148 1157
f 1148 1158 1157
f 1148 1149 1158
f 1149 1159 1158
f 1149 1150 1159
f 1150 1160 1159
f 1150 1151 1160
f 1151 1161 1160
f 1151 1152 1161
f 1152 1162 1161
f 1152 1153 1162
f 1153 1163 1162
f 1153 1154 1163
f 1154 1164 1163
f 1154 1145 1164
f 1145 1155 1164
f 1165 1166 1175
f 1166 1176 1175
f 1166 1167 1176
f 1167 1177 1176
f 1167 1168 1177
f 1168 1178 1177
f 1168 1169 1178
f 1169 1179 1178
f 1169 1170 1179
f 1170 1180 1179
f 1170 1171 1180
f 1171 1181 1180
f 1171 1172 1181
f 1172 1182 1181
f 1172 1173 1182
f 1173 1183 1182
f 1173 1174 1183
f 1174 1184 1183
f 1174 1165 1184
f 1165 1175 1184
