# Full-Body 3D Mesh - Frame 120
v 0.030138 -0.626660 -0.090400
v 0.063946 -0.626660 -0.095261
v 0.095015 -0.626660 -0.109449
v 0.120828 -0.626660 -0.131816
v 0.139294 -0.626660 -0.160550
v 0.148917 -0.626660 -0.193322
v 0.148917 -0.626660 -0.227478
v 0.139294 -0.626660 -0.260250
v 0.120828 -0.626660 -0.288983
v 0.095015 -0.626660 -0.311350
v 0.063946 -0.626660 -0.325539
v 0.030138 -0.626660 -0.330400
v 0.030138 -0.626660 -0.090400
v 0.058580 -0.608382 -0.095261
v 0.084716 -0.591585 -0.109449
v 0.106432 -0.577629 -0.131816
v 0.121966 -0.567646 -0.160550
v 0.130061 -0.562443 -0.193322
v 0.130061 -0.562443 -0.227478
v 0.121966 -0.567646 -0.260250
v 0.106432 -0.577629 -0.288983
v 0.084716 -0.591585 -0.311350
v 0.058580 -0.608382 -0.325539
v 0.030138 -0.626660 -0.330400
v 0.030138 -0.626660 -0.090400
v 0.044183 -0.595907 -0.095261
v 0.057089 -0.567646 -0.109449
v 0.067812 -0.544165 -0.131816
v 0.075483 -0.527368 -0.160550
v 0.079481 -0.518615 -0.193322
v 0.079481 -0.518615 -0.227478
v 0.075483 -0.527368 -0.260250
v 0.067812 -0.544165 -0.288983
v 0.057089 -0.567646 -0.311350
v 0.044183 -0.595907 -0.325539
v 0.030138 -0.626660 -0.330400
v 0.030138 -0.626660 -0.090400
v 0.025327 -0.593196 -0.095261
v 0.020906 -0.562443 -0.109449
v 0.017232 -0.536893 -0.131816
v 0.014604 -0.518615 -0.160550
v 0.013235 -0.509090 -0.193322
v 0.013235 -0.509090 -0.227478
v 0.014604 -0.518615 -0.260250
v 0.017232 -0.536893 -0.288983
v 0.020906 -0.562443 -0.311350
v 0.025327 -0.593196 -0.325539
v 0.030138 -0.626660 -0.330400
v 0.030138 -0.626660 -0.090400
v 0.007999 -0.601109 -0.095261
v -0.012347 -0.577629 -0.109449
v -0.029251 -0.558121 -0.131816
v -0.041343 -0.544165 -0.160550
v -0.047645 -0.536893 -0.193322
v -0.047645 -0.536893 -0.227478
v -0.041343 -0.544165 -0.260250
v -0.029251 -0.558121 -0.288983
v -0.012347 -0.577629 -0.311350
v 0.007999 -0.601109 -0.325539
v 0.030138 -0.626660 -0.330400
v 0.030138 -0.626660 -0.090400
v -0.002300 -0.617135 -0.095261
v -0.032110 -0.608382 -0.109449
v -0.056878 -0.601109 -0.131816
v -0.074596 -0.595907 -0.160550
v -0.083829 -0.593196 -0.193322
v -0.083829 -0.593196 -0.227478
v -0.074596 -0.595907 -0.260250
v -0.056878 -0.601109 -0.288983
v -0.032110 -0.608382 -0.311350
v -0.002300 -0.617135 -0.325539
v 0.030138 -0.626660 -0.330400
v 0.030138 -0.626660 -0.090400
v -0.002300 -0.636184 -0.095261
v -0.032110 -0.644938 -0.109449
v -0.056878 -0.652210 -0.131816
v -0.074596 -0.657412 -0.160550
v -0.083829 -0.660123 -0.193322
v -0.083829 -0.660123 -0.227478
v -0.074596 -0.657412 -0.260250
v -0.056878 -0.652210 -0.288983
v -0.032110 -0.644938 -0.311350
v -0.002300 -0.636184 -0.325539
v 0.030138 -0.626660 -0.330400
v 0.030138 -0.626660 -0.090400
v 0.007999 -0.652210 -0.095261
v -0.012347 -0.675690 -0.109449
v -0.029251 -0.695199 -0.131816
v -0.041343 -0.709154 -0.160550
v -0.047645 -0.716427 -0.193322
v -0.047645 -0.716427 -0.227478
v -0.041343 -0.709154 -0.260250
v -0.029251 -0.695199 -0.288983
v -0.012347 -0.675690 -0.311350
v 0.007999 -0.652210 -0.325539
v 0.030138 -0.626660 -0.330400
v 0.030138 -0.626660 -0.090400
v 0.025327 -0.660123 -0.095261
v 0.020906 -0.690876 -0.109449
v 0.017232 -0.716427 -0.131816
v 0.014604 -0.734704 -0.160550
v 0.013235 -0.744229 -0.193322
v 0.013235 -0.744229 -0.227478
v 0.014604 -0.734704 -0.260250
v 0.017232 -0.716427 -0.288983
v 0.020906 -0.690876 -0.311350
v 0.025327 -0.660123 -0.325539
v 0.030138 -0.626660 -0.330400
v 0.030138 -0.626660 -0.090400
v 0.044183 -0.657412 -0.095261
v 0.057089 -0.685674 -0.109449
v 0.067812 -0.709154 -0.131816
v 0.075483 -0.725951 -0.160550
v 0.079481 -0.734704 -0.193322
v 0.079481 -0.734704 -0.227478
v 0.075483 -0.725951 -0.260250
v 0.067812 -0.709154 -0.288983
v 0.057089 -0.685674 -0.311350
v 0.044183 -0.657412 -0.325539
v 0.030138 -0.626660 -0.330400
v 0.030138 -0.626660 -0.090400
v 0.058580 -0.644938 -0.095261
v 0.084716 -0.661735 -0.109449
v 0.106432 -0.675690 -0.131816
v 0.121966 -0.685674 -0.160550
v 0.130061 -0.690876 -0.193322
v 0.130061 -0.690876 -0.227478
v 0.121966 -0.685674 -0.260250
v 0.106432 -0.675690 -0.288983
v 0.084716 -0.661735 -0.311350
v 0.058580 -0.644938 -0.325539
v 0.030138 -0.626660 -0.330400
v 0.030138 -0.626660 -0.090400
v 0.063946 -0.626660 -0.095261
v 0.095015 -0.626660 -0.109449
v 0.120828 -0.626660 -0.131816
v 0.139294 -0.626660 -0.160550
v 0.148917 -0.626660 -0.193322
v 0.148917 -0.626660 -0.227478
v 0.139294 -0.626660 -0.260250
v 0.120828 -0.626660 -0.288983
v 0.095015 -0.626660 -0.311350
v 0.063946 -0.626660 -0.325539
v 0.030138 -0.626660 -0.330400
v 0.187623 -0.435850 -0.087740
v 0.188907 -0.459304 -0.080031
v 0.188973 -0.473799 -0.060005
v 0.187797 -0.473799 -0.035311
v 0.185827 -0.459304 -0.015383
v 0.183817 -0.435850 -0.007830
v 0.182533 -0.412397 -0.015539
v 0.182467 -0.397901 -0.035565
v 0.183643 -0.397901 -0.060259
v 0.185613 -0.412397 -0.080187
v -0.137508 -0.458735 -0.103226
v -0.136224 -0.482189 -0.095517
v -0.136158 -0.496684 -0.075491
v -0.137334 -0.496684 -0.050798
v -0.139304 -0.482189 -0.030869
v -0.141314 -0.458735 -0.023317
v -0.142598 -0.435282 -0.031026
v -0.142664 -0.420787 -0.051052
v -0.141488 -0.420787 -0.075745
v -0.139519 -0.435282 -0.095674
v 0.185720 -0.435420 -0.087783
v 0.162676 -0.430838 -0.080094
v 0.148434 -0.428170 -0.060064
v 0.148434 -0.428436 -0.035344
v 0.162676 -0.431533 -0.015376
v 0.185720 -0.436280 -0.007787
v 0.208764 -0.440862 -0.015476
v 0.223006 -0.443530 -0.035506
v 0.223006 -0.443265 -0.060226
v 0.208764 -0.440167 -0.080194
v 0.231102 -0.211247 -0.085375
v 0.208058 -0.206665 -0.077686
v 0.193816 -0.203997 -0.057656
v 0.193816 -0.204262 -0.032936
v 0.208058 -0.207360 -0.012968
v 0.231102 -0.212106 -0.005379
v 0.254146 -0.216689 -0.013068
v 0.268388 -0.219357 -0.033098
v 0.268388 -0.219091 -0.057818
v 0.254146 -0.215994 -0.077786
v 0.231102 -0.221892 -0.084050
v 0.207648 -0.218347 -0.077086
v 0.193153 -0.212254 -0.058009
v 0.193153 -0.205940 -0.034108
v 0.207648 -0.201818 -0.014511
v 0.231102 -0.201461 -0.006703
v 0.254555 -0.205007 -0.013668
v 0.269050 -0.211100 -0.032745
v 0.269050 -0.217414 -0.056646
v 0.254555 -0.221536 -0.076243
v 0.243108 -0.056812 -0.127656
v 0.219655 -0.053267 -0.120692
v 0.205160 -0.047173 -0.101615
v 0.205160 -0.040860 -0.077714
v 0.219655 -0.036737 -0.058117
v 0.243108 -0.036381 -0.050309
v 0.266562 -0.039926 -0.057274
v 0.281057 -0.046020 -0.076351
v 0.281057 -0.052333 -0.100252
v 0.266562 -0.056456 -0.119849
v -0.139411 -0.495530 -0.078960
v -0.154299 -0.495640 -0.059225
v -0.163500 -0.481654 -0.041035
v -0.163500 -0.458913 -0.031339
v -0.154299 -0.436105 -0.033840
v -0.139411 -0.421940 -0.047583
v -0.124524 -0.421830 -0.067319
v -0.115323 -0.435816 -0.085509
v -0.115323 -0.458557 -0.095205
v -0.124524 -0.481366 -0.092704
v -0.358385 -0.425268 -0.243748
v -0.373272 -0.425378 -0.224013
v -0.382473 -0.411392 -0.205823
v -0.382473 -0.388652 -0.196127
v -0.373272 -0.365843 -0.198628
v -0.358385 -0.351678 -0.212371
v -0.343497 -0.351568 -0.232107
v -0.334297 -0.365555 -0.250297
v -0.334297 -0.388295 -0.259993
v -0.343497 -0.411104 -0.257492
v -0.358385 -0.420161 -0.203648
v -0.377414 -0.422536 -0.219249
v -0.389175 -0.411900 -0.238215
v -0.389175 -0.392317 -0.253303
v -0.377414 -0.371265 -0.258748
v -0.358385 -0.356786 -0.252471
v -0.339356 -0.354411 -0.236870
v -0.327595 -0.365046 -0.217904
v -0.327595 -0.384630 -0.202817
v -0.339356 -0.405682 -0.197372
v -0.195855 -0.556854 -0.381083
v -0.214885 -0.559229 -0.396684
v -0.226645 -0.548594 -0.415650
v -0.226645 -0.529010 -0.430737
v -0.214885 -0.507958 -0.436182
v -0.195855 -0.493479 -0.429906
v -0.176826 -0.491104 -0.414305
v -0.165065 -0.501739 -0.395339
v -0.165065 -0.521323 -0.380252
v -0.176826 -0.542375 -0.374806
v 0.185720 -0.431483 -0.087546
v 0.162417 -0.435420 -0.080293
v 0.148014 -0.439521 -0.060623
v 0.148014 -0.442220 -0.036050
v 0.162417 -0.442486 -0.015959
v 0.185720 -0.440217 -0.008024
v 0.209023 -0.436280 -0.015277
v 0.223425 -0.432179 -0.034947
v 0.223425 -0.429480 -0.059520
v 0.209023 -0.429214 -0.079611
v 0.125507 0.015321 -0.038471
v 0.102204 0.011384 -0.031218
v 0.087801 0.007283 -0.011549
v 0.087801 0.004584 0.013025
v 0.102204 0.004318 0.033116
v 0.125507 0.006587 0.041050
v 0.148810 0.010524 0.033798
v 0.163212 0.014625 0.014128
v 0.163212 0.017324 -0.010446
v 0.148810 0.017590 -0.030537
v -0.139411 -0.452744 -0.102821
v -0.162909 -0.453092 -0.095147
v -0.177431 -0.455595 -0.075298
v -0.177431 -0.459297 -0.050855
v -0.162909 -0.462785 -0.031155
v -0.139411 -0.464726 -0.023723
v -0.115914 -0.464379 -0.031397
v -0.101391 -0.461876 -0.051246
v -0.101391 -0.458173 -0.075688
v -0.115914 -0.454685 -0.095388
v -0.124330 -0.017983 -0.036963
v -0.147828 -0.018331 -0.029289
v -0.162350 -0.020834 -0.009440
v -0.162350 -0.024536 0.015002
v -0.147828 -0.028024 0.034702
v -0.124330 -0.029965 0.042134
v -0.100833 -0.029618 0.034461
v -0.086310 -0.027115 0.014612
v -0.086310 -0.023412 -0.009831
v -0.100833 -0.019924 -0.029531
v 0.125299 0.010954 -0.038710
v 0.128594 -0.012331 -0.031088
v 0.130710 -0.026722 -0.011098
v 0.130838 -0.026722 0.013623
v 0.128930 -0.012331 0.033633
v 0.125714 0.010954 0.041289
v 0.122419 0.034239 0.033667
v 0.120304 0.048630 0.013677
v 0.120176 0.048630 -0.011044
v 0.122084 0.034239 -0.031054
v -0.124538 -0.023974 -0.037414
v -0.121243 -0.047259 -0.029792
v -0.119127 -0.061650 -0.009802
v -0.118999 -0.061650 0.014919
v -0.120907 -0.047259 0.034929
v -0.124123 -0.023974 0.042585
v -0.127418 -0.000689 0.034963
v -0.129533 0.013702 0.014973
v -0.129661 0.013702 -0.009748
v -0.127753 -0.000689 -0.029758
v 0.125507 0.000073 -0.037202
v 0.102393 -0.001992 -0.028680
v 0.088108 0.000888 -0.008710
v 0.088108 0.007613 0.015079
v 0.102393 0.015613 0.033601
v 0.125507 0.021834 0.039781
v 0.148621 0.023899 0.031259
v 0.162906 0.021020 0.011289
v 0.162906 0.014295 -0.012500
v 0.148621 0.006294 -0.031022
v 0.097550 0.144506 -0.078029
v 0.074436 0.142441 -0.069507
v 0.060151 0.145321 -0.049537
v 0.060151 0.152045 -0.025748
v 0.074436 0.160046 -0.007226
v 0.097550 0.166267 -0.001046
v 0.120663 0.168332 -0.009568
v 0.134949 0.165452 -0.029538
v 0.134949 0.158728 -0.053327
v 0.120663 0.150727 -0.071849
v 0.097550 0.171288 -0.076241
v 0.074316 0.171555 -0.067800
v 0.059956 0.165647 -0.048563
v 0.059956 0.155820 -0.025879
v 0.074316 0.145827 -0.008412
v 0.097550 0.139485 -0.002834
v 0.120783 0.139218 -0.011275
v 0.135143 0.145126 -0.030512
v 0.135143 0.154953 -0.053196
v 0.120783 0.164946 -0.070663
v 0.152213 0.494889 0.063954
v 0.128979 0.495157 0.072395
v 0.114619 0.489249 0.091632
v 0.114619 0.479421 0.114316
v 0.128979 0.469428 0.131783
v 0.152213 0.463087 0.137361
v 0.175447 0.462819 0.128919
v 0.189806 0.468728 0.109683
v 0.189806 0.478555 0.086999
v 0.175447 0.488548 0.069532
v -0.124330 -0.063512 0.008647
v -0.147758 -0.056261 0.005536
v -0.162238 -0.036677 0.001297
v -0.162238 -0.012241 -0.002449
v -0.147758 0.007713 -0.004273
v -0.124330 0.015564 -0.003476
v -0.100902 0.008312 -0.000364
v -0.086423 -0.011272 0.003874
v -0.086423 -0.035707 0.007621
v -0.100902 -0.055662 0.009444
v -0.106822 -0.094957 -0.196449
v -0.130250 -0.087706 -0.199561
v -0.144730 -0.068122 -0.203800
v -0.144730 -0.043686 -0.207546
v -0.130250 -0.023732 -0.209369
v -0.106822 -0.015881 -0.208573
v -0.083394 -0.023133 -0.205461
v -0.068914 -0.042716 -0.201223
v -0.068914 -0.067152 -0.197476
v -0.083394 -0.087106 -0.195653
v -0.106822 -0.062279 -0.241919
v -0.129955 -0.056829 -0.235113
v -0.144252 -0.050840 -0.215855
v -0.144252 -0.046601 -0.191500
v -0.129955 -0.045729 -0.171351
v -0.106822 -0.048559 -0.163104
v -0.083689 -0.054009 -0.169909
v -0.069392 -0.059998 -0.189168
v -0.069392 -0.064237 -0.213523
v -0.083689 -0.065109 -0.233672
v -0.055898 0.213905 -0.289997
v -0.079031 0.219355 -0.283191
v -0.093328 0.225344 -0.263933
v -0.093328 0.229583 -0.239578
v -0.079031 0.230455 -0.219429
v -0.055898 0.227625 -0.211182
v -0.032765 0.222175 -0.217988
v -0.018468 0.216186 -0.237246
v -0.018468 0.211947 -0.261601
v -0.032765 0.211075 -0.281750
v -0.010284 0.093975 0.025546
v -0.015674 0.088453 0.020410
v -0.019005 0.087056 0.011872
v -0.019005 0.090319 0.003194
v -0.015674 0.096994 -0.002308
v -0.010284 0.104533 -0.002534
v -0.004893 0.110056 0.002602
v -0.001562 0.111453 0.011140
v -0.001562 0.108190 0.019818
v -0.004893 0.101514 0.025320
v 0.021427 0.071044 0.016925
v 0.016036 0.065521 0.011788
v 0.012705 0.064124 0.003250
v 0.012705 0.067387 -0.005427
v 0.016036 0.074063 -0.010930
v 0.021427 0.081601 -0.011156
v 0.026817 0.087124 -0.006019
v 0.030149 0.088521 0.002519
v 0.030149 0.085258 0.011196
v 0.026817 0.078583 0.016699
v 0.021427 0.068652 0.015775
v 0.013842 0.066255 0.011014
v 0.009154 0.067703 0.003149
v 0.009154 0.072444 -0.004818
v 0.013842 0.078666 -0.009842
v 0.021427 0.083994 -0.010006
v 0.029012 0.086391 -0.005246
v 0.033700 0.084942 0.002620
v 0.033700 0.080201 0.010587
v 0.029012 0.073979 0.015611
v 0.038614 0.043724 0.000940
v 0.031029 0.041327 -0.003820
v 0.026341 0.042776 -0.011685
v 0.026341 0.047517 -0.019652
v 0.031029 0.053739 -0.024677
v 0.038614 0.059066 -0.024840
v 0.046199 0.061463 -0.020080
v 0.050887 0.060015 -0.012214
v 0.050887 0.055274 -0.004248
v 0.046199 0.049052 0.000777
v 0.038614 0.041599 -0.000591
v 0.029823 0.042959 -0.003201
v 0.024390 0.047541 -0.009153
v 0.024390 0.053596 -0.016173
v 0.029823 0.058810 -0.021580
v 0.038614 0.061192 -0.023309
v 0.047405 0.059832 -0.020699
v 0.052838 0.055250 -0.014747
v 0.052838 0.049195 -0.007726
v 0.047405 0.043981 -0.002319
v 0.041508 0.013056 -0.025207
v 0.032717 0.014416 -0.027817
v 0.027284 0.018999 -0.033769
v 0.027284 0.025053 -0.040789
v 0.032717 0.030267 -0.046196
v 0.041508 0.032649 -0.047925
v 0.050299 0.031290 -0.045315
v 0.055732 0.026707 -0.039363
v 0.055732 0.020653 -0.032342
v 0.050299 0.015439 -0.026935
v 0.041508 0.014932 -0.023828
v 0.032845 0.017836 -0.025396
v 0.027490 0.022656 -0.031230
v 0.027490 0.027551 -0.039103
v 0.032845 0.030652 -0.046006
v 0.041508 0.030774 -0.049304
v 0.050171 0.027870 -0.047736
v 0.055526 0.023050 -0.041902
v 0.055526 0.018155 -0.034029
v 0.050171 0.015054 -0.027125
v 0.035589 -0.011653 -0.040359
v 0.026926 -0.008749 -0.041926
v 0.021572 -0.003929 -0.047761
v 0.021572 0.000966 -0.055634
v 0.026926 0.004067 -0.062537
v 0.035589 0.004189 -0.065835
v 0.044253 0.001285 -0.064267
v 0.049607 -0.003535 -0.058432
v 0.049607 -0.008430 -0.050560
v 0.044253 -0.011531 -0.043656
v -0.010284 0.098745 0.026497
v -0.018644 0.096045 0.023539
v -0.023811 0.094571 0.015985
v -0.023811 0.094885 0.006720
v -0.018644 0.096869 -0.000717
v -0.010284 0.099763 -0.003485
v -0.001923 0.102463 -0.000527
v 0.003244 0.103938 0.007027
v 0.003244 0.103623 0.016292
v -0.001923 0.101640 0.023729
v 0.023479 -0.002051 0.023075
v 0.015119 -0.004751 0.020117
v 0.009951 -0.006226 0.012562
v 0.009951 -0.005911 0.003297
v 0.015119 -0.003928 -0.004140
v 0.023479 -0.001033 -0.006908
v 0.031840 0.001667 -0.003950
v 0.037007 0.003141 0.003605
v 0.037007 0.002827 0.012870
v 0.031840 0.000843 0.020307
v 0.023479 -0.005207 0.022629
v 0.014673 -0.004916 0.019748
v 0.009230 -0.003335 0.012412
v 0.009230 -0.001070 0.003422
v 0.014673 0.001015 -0.003787
v 0.023479 0.002123 -0.006462
v 0.032286 0.001831 -0.003581
v 0.037729 0.000251 0.003755
v 0.037729 -0.002014 0.012745
v 0.032286 -0.004099 0.019954
v 0.024911 -0.034253 0.015310
v 0.016105 -0.033962 0.012429
v 0.010662 -0.032381 0.005093
v 0.010662 -0.030116 -0.003897
v 0.016105 -0.028031 -0.011106
v 0.024911 -0.026923 -0.013781
v 0.033718 -0.027215 -0.010900
v 0.039161 -0.028795 -0.003564
v 0.039161 -0.031060 0.005426
v 0.033718 -0.033145 0.012635
v 0.024911 -0.033129 0.015548
v 0.016199 -0.031308 0.012954
v 0.010815 -0.029213 0.005704
v 0.010815 -0.027643 -0.003433
v 0.016199 -0.027198 -0.010966
v 0.024911 -0.028048 -0.014019
v 0.033623 -0.029868 -0.011425
v 0.039008 -0.031964 -0.004175
v 0.039008 -0.033534 0.004961
v 0.033623 -0.033979 0.012495
v 0.021572 -0.054288 0.011912
v 0.012860 -0.052467 0.009318
v 0.007476 -0.050372 0.002068
v 0.007476 -0.048802 -0.007069
v 0.012860 -0.048357 -0.014602
v 0.021572 -0.049207 -0.017655
v 0.030284 -0.051028 -0.015061
v 0.035669 -0.053123 -0.007811
v 0.035669 -0.054693 0.001325
v 0.030284 -0.055138 0.008859
v 0.021572 -0.062196 0.007891
v 0.012895 -0.059081 0.006922
v 0.007531 -0.053166 0.002212
v 0.007531 -0.046709 -0.004440
v 0.012895 -0.042176 -0.010493
v 0.021572 -0.041300 -0.013635
v 0.030250 -0.044414 -0.012665
v 0.035613 -0.050330 -0.007955
v 0.035613 -0.056787 -0.001303
v 0.030250 -0.061319 0.004750
v 0.016107 -0.084016 -0.013290
v 0.007430 -0.080902 -0.014259
v 0.002066 -0.074986 -0.018970
v 0.002066 -0.068529 -0.025622
v 0.007430 -0.063997 -0.031674
v 0.016107 -0.063120 -0.034816
v 0.024785 -0.066234 -0.033847
v 0.030148 -0.072150 -0.029137
v 0.030148 -0.078607 -0.022485
v 0.024785 -0.083140 -0.016432
v -0.010284 0.098501 0.026487
v -0.019052 0.097728 0.023580
v -0.024472 0.097538 0.016061
v -0.024472 0.098003 0.006802
v -0.019052 0.098947 -0.000660
v -0.010284 0.100008 -0.003475
v -0.001515 0.100781 -0.000568
v 0.003905 0.100971 0.006951
v 0.003905 0.100505 0.016210
v -0.001515 0.099562 0.023672
v 0.000642 -0.005717 0.021246
v -0.008127 -0.006490 0.018339
v -0.013547 -0.006680 0.010820
v -0.013547 -0.006215 0.001561
v -0.008127 -0.005271 -0.005901
v 0.000642 -0.004210 -0.008716
v 0.009411 -0.003437 -0.005809
v 0.014830 -0.003247 0.001710
v 0.014830 -0.003713 0.010969
v 0.009411 -0.004656 0.018431
v 0.000642 -0.007109 0.021111
v -0.008162 -0.007176 0.018206
v -0.013603 -0.006398 0.010741
v -0.013603 -0.005072 0.001566
v -0.008162 -0.003705 -0.005815
v 0.000642 -0.002818 -0.008581
v 0.009445 -0.002751 -0.005677
v 0.014886 -0.003530 0.001789
v 0.014886 -0.004856 0.010964
v 0.009445 -0.006223 0.018344
v 0.002781 -0.045822 0.015516
v -0.006022 -0.045889 0.012612
v -0.011463 -0.045111 0.005146
v -0.011463 -0.043785 -0.004029
v -0.006022 -0.042418 -0.011409
v 0.002781 -0.041531 -0.014176
v 0.011585 -0.041464 -0.011272
v 0.017026 -0.042243 -0.003806
v 0.017026 -0.043569 0.005369
v 0.011585 -0.044936 0.012749
v 0.002781 -0.048975 0.014703
v -0.005950 -0.046817 0.012456
v -0.011346 -0.043459 0.005707
v -0.011346 -0.040185 -0.002966
v -0.005950 -0.038244 -0.010250
v 0.002781 -0.038378 -0.013363
v 0.011512 -0.040537 -0.011116
v 0.016909 -0.043894 -0.004367
v 0.016909 -0.047169 0.004306
v 0.011512 -0.049109 0.011590
v -0.000842 -0.073130 0.005583
v -0.009573 -0.070972 0.003336
v -0.014969 -0.067614 -0.003413
v -0.014969 -0.064340 -0.012086
v -0.009573 -0.062399 -0.019370
v -0.000842 -0.062534 -0.022483
v 0.007889 -0.064692 -0.020236
v 0.013286 -0.068049 -0.013486
v 0.013286 -0.071324 -0.004813
v 0.007889 -0.073264 0.002471
v -0.000842 -0.072298 0.005870
v -0.009658 -0.071561 0.003099
v -0.015106 -0.069399 -0.004083
v -0.015106 -0.066638 -0.012933
v -0.009658 -0.064334 -0.020070
v -0.000842 -0.063365 -0.022769
v 0.007974 -0.064103 -0.019998
v 0.013423 -0.066265 -0.012816
v 0.013423 -0.069025 -0.003966
v 0.007974 -0.071330 0.003171
v -0.000457 -0.099114 -0.002494
v -0.009273 -0.098377 -0.005265
v -0.014721 -0.096215 -0.012447
v -0.014721 -0.093455 -0.021297
v -0.009273 -0.091150 -0.028435
v -0.000457 -0.090182 -0.031134
v 0.008359 -0.090919 -0.028363
v 0.013808 -0.093081 -0.021181
v 0.013808 -0.095841 -0.012331
v 0.008359 -0.098146 -0.005193
v -0.010284 0.096878 0.026317
v -0.019081 0.097913 0.023581
v -0.024518 0.099460 0.016234
v -0.024518 0.100929 0.007080
v -0.019081 0.101758 -0.000383
v -0.010284 0.101631 -0.003304
v -0.001486 0.100596 -0.000569
v 0.003950 0.099048 0.006778
v 0.003950 0.097579 0.015932
v -0.001486 0.096750 0.023395
v -0.017099 -0.003683 0.010180
v -0.025896 -0.002648 0.007444
v -0.031333 -0.001101 0.000097
v -0.031333 0.000368 -0.009057
v -0.025896 0.001197 -0.016519
v -0.017099 0.001070 -0.019441
v -0.008302 0.000035 -0.016706
v -0.002865 -0.001513 -0.009358
v -0.002865 -0.002982 -0.000205
v -0.008302 -0.003811 0.007258
v -0.017099 -0.002732 0.010301
v -0.025854 -0.003492 0.007351
v -0.031266 -0.003417 -0.000176
v -0.031266 -0.002536 -0.009404
v -0.025854 -0.001185 -0.016810
v -0.017099 0.000118 -0.019563
v -0.008343 0.000878 -0.016613
v -0.002932 0.000803 -0.009086
v -0.002932 -0.000078 0.000143
v -0.008343 -0.001428 0.007548
v -0.013254 -0.035070 0.007215
v -0.022009 -0.035830 0.004264
v -0.027420 -0.035755 -0.003263
v -0.027420 -0.034874 -0.012491
v -0.022009 -0.033524 -0.019896
v -0.013254 -0.032220 -0.022650
v -0.004498 -0.031460 -0.019699
v 0.000913 -0.031535 -0.012172
v 0.000913 -0.032416 -0.002944
v -0.004498 -0.033766 0.004461
v -0.013254 -0.037618 0.006747
v -0.022068 -0.037044 0.003933
v -0.027516 -0.035173 -0.003330
v -0.027516 -0.032717 -0.012270
v -0.022068 -0.030616 -0.019470
v -0.013254 -0.029672 -0.022182
v -0.004439 -0.030245 -0.019368
v 0.001009 -0.032117 -0.012105
v 0.001009 -0.034573 -0.003165
v -0.004439 -0.036674 0.004035
v -0.012744 -0.060162 0.000555
v -0.021558 -0.059588 -0.002259
v -0.027006 -0.057717 -0.009522
v -0.027006 -0.055261 -0.018462
v -0.021558 -0.053160 -0.025662
v -0.012744 -0.052216 -0.028374
v -0.003929 -0.052789 -0.025561
v 0.001519 -0.054661 -0.018297
v 0.001519 -0.057117 -0.009357
v -0.003929 -0.059218 -0.002157
v -0.012744 -0.060174 0.000551
v -0.021504 -0.060375 -0.002476
v -0.026918 -0.058977 -0.009870
v -0.026918 -0.056514 -0.018807
v -0.021504 -0.053927 -0.025874
v -0.012744 -0.052204 -0.028370
v -0.003983 -0.052003 -0.025344
v 0.001431 -0.053401 -0.017949
v 0.001431 -0.055864 -0.009012
v -0.003983 -0.058451 -0.001945
v -0.009680 -0.086104 -0.006595
v -0.018440 -0.086305 -0.009622
v -0.023854 -0.084907 -0.017016
v -0.023854 -0.082443 -0.025953
v -0.018440 -0.079856 -0.033020
v -0.009680 -0.078133 -0.035517
v -0.000920 -0.077932 -0.032490
v 0.004494 -0.079331 -0.025095
v 0.004494 -0.081794 -0.016158
v -0.000920 -0.084381 -0.009092
v -0.010284 0.094835 0.025840
v -0.018851 0.097668 0.023716
v -0.024147 0.101106 0.016927
v -0.024147 0.103837 0.008068
v -0.018851 0.104817 0.000522
v -0.010284 0.103673 -0.002828
v -0.001716 0.100841 -0.000704
v 0.003579 0.097403 0.006085
v 0.003579 0.094672 0.014944
v -0.001716 0.093691 0.022490
v -0.031587 0.011001 -0.000004
v -0.040155 0.013833 -0.002128
v -0.045450 0.017271 -0.008917
v -0.045450 0.020002 -0.017776
v -0.040155 0.020983 -0.025322
v -0.031587 0.019839 -0.028672
v -0.023019 0.017007 -0.026548
v -0.017724 0.013568 -0.019759
v -0.017724 0.010837 -0.010900
v -0.023019 0.009857 -0.003354
v -0.031587 0.015012 0.000657
v -0.040376 0.015791 -0.002188
v -0.045808 0.016427 -0.009674
v -0.045808 0.016679 -0.018941
v -0.040376 0.016450 -0.026450
v -0.031587 0.015827 -0.029332
v -0.022798 0.015049 -0.026488
v -0.017366 0.014412 -0.019002
v -0.017366 0.014160 -0.009735
v -0.022798 0.014390 -0.002226
v -0.033689 -0.011339 -0.000060
v -0.042478 -0.010561 -0.002904
v -0.047910 -0.009924 -0.010390
v -0.047910 -0.009672 -0.019657
v -0.042478 -0.009901 -0.027166
v -0.033689 -0.010524 -0.030049
v -0.024900 -0.011302 -0.027204
v -0.019468 -0.011939 -0.019719
v -0.019468 -0.012191 -0.010452
v -0.024900 -0.011962 -0.002943
v -0.033689 -0.012295 -0.000116
v -0.042472 -0.012797 -0.003039
v -0.047901 -0.012587 -0.010551
v -0.047901 -0.011744 -0.019783
v -0.042472 -0.010592 -0.027209
v -0.033689 -0.009569 -0.029992
v -0.024905 -0.009066 -0.027070
v -0.019477 -0.009276 -0.019558
v -0.019477 -0.010119 -0.010326
v -0.024905 -0.011272 -0.002900
v -0.031579 -0.036394 -0.002315
v -0.040362 -0.036896 -0.005238
v -0.045791 -0.036686 -0.012750
v -0.045791 -0.035844 -0.021982
v -0.040362 -0.034691 -0.029408
v -0.031579 -0.033668 -0.032191
v -0.022795 -0.033165 -0.029269
v -0.017367 -0.033375 -0.021757
v -0.017367 -0.034218 -0.012525
v -0.022795 -0.035371 -0.005099
v -0.031579 -0.042374 -0.004174
v -0.040394 -0.041122 -0.006756
v -0.045842 -0.037542 -0.013347
v -0.045842 -0.033004 -0.021431
v -0.040394 -0.029239 -0.027919
v -0.031579 -0.027687 -0.030333
v -0.022764 -0.028940 -0.027751
v -0.017316 -0.032519 -0.021159
v -0.017316 -0.037058 -0.013075
v -0.022764 -0.040822 -0.006588
v -0.031156 -0.061301 -0.014801
v -0.039971 -0.060049 -0.017383
v -0.045419 -0.056469 -0.023974
v -0.045419 -0.051931 -0.032058
v -0.039971 -0.048167 -0.038546
v -0.031156 -0.046614 -0.040959
v -0.022341 -0.047867 -0.038377
v -0.016893 -0.051446 -0.031786
v -0.016893 -0.055985 -0.023702
v -0.022341 -0.059749 -0.017214
f 1 2 13
f 2 14 13
f 2 3 14
f 3 15 14
f 3 4 15
f 4 16 15
f 4 5 16
f 5 17 16
f 5 6 17
f 6 18 17
f 6 7 18
f 7 19 18
f 7 8 19
f 8 20 19
f 8 9 20
f 9 21 20
f 9 10 21
f 10 22 21
f 10 11 22
f 11 23 22
f 11 12 23
f 12 24 23
f 13 14 25
f 14 26 25
f 14 15 26
f 15 27 26
f 15 16 27
f 16 28 27
f 16 17 28
f 17 29 28
f 17 18 29
f 18 30 29
f 18 19 30
f 19 31 30
f 19 20 31
f 20 32 31
f 20 21 32
f 21 33 32
f 21 22 33
f 22 34 33
f 22 23 34
f 23 35 34
f 23 24 35
f 24 36 35
f 25 26 37
f 26 38 37
f 26 27 38
f 27 39 38
f 27 28 39
f 28 40 39
f 28 29 40
f 29 41 40
f 29 30 41
f 30 42 41
f 30 31 42
f 31 43 42
f 31 32 43
f 32 44 43
f 32 33 44
f 33 45 44
f 33 34 45
f 34 46 45
f 34 35 46
f 35 47 46
f 35 36 47
f 36 48 47
f 37 38 49
f 38 50 49
f 38 39 50
f 39 51 50
f 39 40 51
f 40 52 51
f 40 41 52
f 41 53 52
f 41 42 53
f 42 54 53
f 42 43 54
f 43 55 54
f 43 44 55
f 44 56 55
f 44 45 56
f 45 57 56
f 45 46 57
f 46 58 57
f 46 47 58
f 47 59 58
f 47 48 59
f 48 60 59
f 49 50 61
f 50 62 61
f 50 51 62
f 51 63 62
f 51 52 63
f 52 64 63
f 52 53 64
f 53 65 64
f 53 54 65
f 54 66 65
f 54 55 66
f 55 67 66
f 55 56 67
f 56 68 67
f 56 57 68
f 57 69 68
f 57 58 69
f 58 70 69
f 58 59 70
f 59 71 70
f 59 60 71
f 60 72 71
f 61 62 73
f 62 74 73
f 62 63 74
f 63 75 74
f 63 64 75
f 64 76 75
f 64 65 76
f 65 77 76
f 65 66 77
f 66 78 77
f 66 67 78
f 67 79 78
f 67 68 79
f 68 80 79
f 68 69 80
f 69 81 80
f 69 70 81
f 70 82 81
f 70 71 82
f 71 83 82
f 71 72 83
f 72 84 83
f 73 74 85
f 74 86 85
f 74 75 86
f 75 87 86
f 75 76 87
f 76 88 87
f 76 77 88
f 77 89 88
f 77 78 89
f 78 90 89
f 78 79 90
f 79 91 90
f 79 80 91
f 80 92 91
f 80 81 92
f 81 93 92
f 81 82 93
f 82 94 93
f 82 83 94
f 83 95 94
f 83 84 95
f 84 96 95
f 85 86 97
f 86 98 97
f 86 87 98
f 87 99 98
f 87 88 99
f 88 100 99
f 88 89 100
f 89 101 100
f 89 90 101
f 90 102 101
f 90 91 102
f 91 103 102
f 91 92 103
f 92 104 103
f 92 93 104
f 93 105 104
f 93 94 105
f 94 106 105
f 94 95 106
f 95 107 106
f 95 96 107
f 96 108 107
f 97 98 109
f 98 110 109
f 98 99 110
f 99 111 110
f 99 100 111
f 100 112 111
f 100 101 112
f 101 113 112
f 101 102 113
f 102 114 113
f 102 103 114
f 103 115 114
f 103 104 115
f 104 116 115
f 104 105 116
f 105 117 116
f 105 106 117
f 106 118 117
f 106 107 118
f 107 119 118
f 107 108 119
f 108 120 119
f 109 110 121
f 110 122 121
f 110 111 122
f 111 123 122
f 111 112 123
f 112 124 123
f 112 113 124
f 113 125 124
f 113 114 125
f 114 126 125
f 114 115 126
f 115 127 126
f 115 116 127
f 116 128 127
f 116 117 128
f 117 129 128
f 117 118 129
f 118 130 129
f 118 119 130
f 119 131 130
f 119 120 131
f 120 132 131
f 121 122 133
f 122 134 133
f 122 123 134
f 123 135 134
f 123 124 135
f 124 136 135
f 124 125 136
f 125 137 136
f 125 126 137
f 126 138 137
f 126 127 138
f 127 139 138
f 127 128 139
f 128 140 139
f 128 129 140
f 129 141 140
f 129 130 141
f 130 142 141
f 130 131 142
f 131 143 142
f 131 132 143
f 132 144 143
f 145 146 155
f 146 156 155
f 146 147 156
f 147 157 156
f 147 148 157
f 148 158 157
f 148 149 158
f 149 159 158
f 149 150 159
f 150 160 159
f 150 151 160
f 151 161 160
f 151 152 161
f 152 162 161
f 152 153 162
f 153 163 162
f 153 154 163
f 154 164 163
f 154 145 164
f 145 155 164
f 165 166 175
f 166 176 175
f 166 167 176
f 167 177 176
f 167 168 177
f 168 178 177
f 168 169 178
f 169 179 178
f 169 170 179
f 170 180 179
f 170 171 180
f 171 181 180
f 171 172 181
f 172 182 181
f 172 173 182
f 173 183 182
f 173 174 183
f 174 184 183
f 174 165 184
f 165 175 184
f 185 186 195
f 186 196 195
f 186 187 196
f 187 197 196
f 187 188 197
f 188 198 197
f 188 189 198
f 189 199 198
f 189 190 199
f 190 200 199
f 190 191 200
f 191 201 200
f 191 192 201
f 192 202 201
f 192 193 202
f 193 203 202
f 193 194 203
f 194 204 203
f 194 185 204
f 185 195 204
f 205 206 215
f 206 216 215
f 206 207 216
f 207 217 216
f 207 208 217
f 208 218 217
f 208 209 218
f 209 219 218
f 209 210 219
f 210 220 219
f 210 211 220
f 211 221 220
f 211 212 221
f 212 222 221
f 212 213 222
f 213 223 222
f 213 214 223
f 214 224 223
f 214 205 224
f 205 215 224
f 225 226 235
f 226 236 235
f 226 227 236
f 227 237 236
f 227 228 237
f 228 238 237
f 228 229 238
f 229 239 238
f 229 230 239
f 230 240 239
f 230 231 240
f 231 241 240
f 231 232 241
f 232 242 241
f 232 233 242
f 233 243 242
f 233 234 243
f 234 244 243
f 234 225 244
f 225 235 244
f 245 246 255
f 246 256 255
f 246 247 256
f 247 257 256
f 247 248 257
f 248 258 257
f 248 249 258
f 249 259 258
f 249 250 259
f 250 260 259
f 250 251 260
f 251 261 260
f 251 252 261
f 252 262 261
f 252 253 262
f 253 263 262
f 253 254 263
f 254 264 263
f 254 245 264
f 245 255 264
f 265 266 275
f 266 276 275
f 266 267 276
f 267 277 276
f 267 268 277
f 268 278 277
f 268 269 278
f 269 279 278
f 269 270 279
f 270 280 279
f 270 271 280
f 271 281 280
f 271 272 281
f 272 282 281
f 272 273 282
f 273 283 282
f 273 274 283
f 274 284 283
f 274 265 284
f 265 275 284
f 285 286 295
f 286 296 295
f 286 287 296
f 287 297 296
f 287 288 297
f 288 298 297
f 288 289 298
f 289 299 298
f 289 290 299
f 290 300 299
f 290 291 300
f 291 301 300
f 291 292 301
f 292 302 301
f 292 293 302
f 293 303 302
f 293 294 303
f 294 304 303
f 294 285 304
f 285 295 304
f 305 306 315
f 306 316 315
f 306 307 316
f 307 317 316
f 307 308 317
f 308 318 317
f 308 309 318
f 309 319 318
f 309 310 319
f 310 320 319
f 310 311 320
f 311 321 320
f 311 312 321
f 312 322 321
f 312 313 322
f 313 323 322
f 313 314 323
f 314 324 323
f 314 305 324
f 305 315 324
f 325 326 335
f 326 336 335
f 326 327 336
f 327 337 336
f 327 328 337
f 328 338 337
f 328 329 338
f 329 339 338
f 329 330 339
f 330 340 339
f 330 331 340
f 331 341 340
f 331 332 341
f 332 342 341
f 332 333 342
f 333 343 342
f 333 334 343
f 334 344 343
f 334 325 344
f 325 335 344
f 345 346 355
f 346 356 355
f 346 347 356
f 347 357 356
f 347 348 357
f 348 358 357
f 348 349 358
f 349 359 358
f 349 350 359
f 350 360 359
f 350 351 360
f 351 361 360
f 351 352 361
f 352 362 361
f 352 353 362
f 353 363 362
f 353 354 363
f 354 364 363
f 354 345 364
f 345 355 364
f 365 366 375
f 366 376 375
f 366 367 376
f 367 377 376
f 367 368 377
f 368 378 377
f 368 369 378
f 369 379 378
f 369 370 379
f 370 380 379
f 370 371 380
f 371 381 380
f 371 372 381
f 372 382 381
f 372 373 382
f 373 383 382
f 373 374 383
f 374 384 383
f 374 365 384
f 365 375 384
f 385 386 395
f 386 396 395
f 386 387 396
f 387 397 396
f 387 388 397
f 388 398 397
f 388 389 398
f 389 399 398
f 389 390 399
f 390 400 399
f 390 391 400
f 391 401 400
f 391 392 401
f 392 402 401
f 392 393 402
f 393 403 402
f 393 394 403
f 394 404 403
f 394 385 404
f 385 395 404
f 405 406 415
f 406 416 415
f 406 407 416
f 407 417 416
f 407 408 417
f 408 418 417
f 408 409 418
f 409 419 418
f 409 410 419
f 410 420 419
f 410 411 420
f 411 421 420
f 411 412 421
f 412 422 421
f 412 413 422
f 413 423 422
f 413 414 423
f 414 424 423
f 414 405 424
f 405 415 424
f 425 426 435
f 426 436 435
f 426 427 436
f 427 437 436
f 427 428 437
f 428 438 437
f 428 429 438
f 429 439 438
f 429 430 439
f 430 440 439
f 430 431 440
f 431 441 440
f 431 432 441
f 432 442 441
f 432 433 442
f 433 443 442
f 433 434 443
f 434 444 443
f 434 425 444
f 425 435 444
f 445 446 455
f 446 456 455
f 446 447 456
f 447 457 456
f 447 448 457
f 448 458 457
f 448 449 458
f 449 459 458
f 449 450 459
f 450 460 459
f 450 451 460
f 451 461 460
f 451 452 461
f 452 462 461
f 452 453 462
f 453 463 462
f 453 454 463
f 454 464 463
f 454 445 464
f 445 455 464
f 465 466 475
f 466 476 475
f 466 467 476
f 467 477 476
f 467 468 477
f 468 478 477
f 468 469 478
f 469 479 478
f 469 470 479
f 470 480 479
f 470 471 480
f 471 481 480
f 471 472 481
f 472 482 481
f 472 473 482
f 473 483 482
f 473 474 483
f 474 484 483
f 474 465 484
f 465 475 484
f 485 486 495
f 486 496 495
f 486 487 496
f 487 497 496
f 487 488 497
f 488 498 497
f 488 489 498
f 489 499 498
f 489 490 499
f 490 500 499
f 490 491 500
f 491 501 500
f 491 492 501
f 492 502 501
f 492 493 502
f 493 503 502
f 493 494 503
f 494 504 503
f 494 485 504
f 485 495 504
f 505 506 515
f 506 516 515
f 506 507 516
f 507 517 516
f 507 508 517
f 508 518 517
f 508 509 518
f 509 519 518
f 509 510 519
f 510 520 519
f 510 511 520
f 511 521 520
f 511 512 521
f 512 522 521
f 512 513 522
f 513 523 522
f 513 514 523
f 514 524 523
f 514 505 524
f 505 515 524
f 525 526 535
f 526 536 535
f 526 527 536
f 527 537 536
f 527 528 537
f 528 538 537
f 528 529 538
f 529 539 538
f 529 530 539
f 530 540 539
f 530 531 540
f 531 541 540
f 531 532 541
f 532 542 541
f 532 533 542
f 533 543 542
f 533 534 543
f 534 544 543
f 534 525 544
f 525 535 544
f 545 546 555
f 546 556 555
f 546 547 556
f 547 557 556
f 547 548 557
f 548 558 557
f 548 549 558
f 549 559 558
f 549 550 559
f 550 560 559
f 550 551 560
f 551 561 560
f 551 552 561
f 552 562 561
f 552 553 562
f 553 563 562
f 553 554 563
f 554 564 563
f 554 545 564
f 545 555 564
f 565 566 575
f 566 576 575
f 566 567 576
f 567 577 576
f 567 568 577
f 568 578 577
f 568 569 578
f 569 579 578
f 569 570 579
f 570 580 579
f 570 571 580
f 571 581 580
f 571 572 581
f 572 582 581
f 572 573 582
f 573 583 582
f 573 574 583
f 574 584 583
f 574 565 584
f 565 575 584
f 585 586 595
f 586 596 595
f 586 587 596
f 587 597 596
f 587 588 597
f 588 598 597
f 588 589 598
f 589 599 598
f 589 590 599
f 590 600 599
f 590 591 600
f 591 601 600
f 591 592 601
f 592 602 601
f 592 593 602
f 593 603 602
f 593 594 603
f 594 604 603
f 594 585 604
f 585 595 604
f 605 606 615
f 606 616 615
f 606 607 616
f 607 617 616
f 607 608 617
f 608 618 617
f 608 609 618
f 609 619 618
f 609 610 619
f 610 620 619
f 610 611 620
f 611 621 620
f 611 612 621
f 612 622 621
f 612 613 622
f 613 623 622
f 613 614 623
f 614 624 623
f 614 605 624
f 605 615 624
f 625 626 635
f 626 636 635
f 626 627 636
f 627 637 636
f 627 628 637
f 628 638 637
f 628 629 638
f 629 639 638
f 629 630 639
f 630 640 639
f 630 631 640
f 631 641 640
f 631 632 641
f 632 642 641
f 632 633 642
f 633 643 642
f 633 634 643
f 634 644 643
f 634 625 644
f 625 635 644
f 645 646 655
f 646 656 655
f 646 647 656
f 647 657 656
f 647 648 657
f 648 658 657
f 648 649 658
f 649 659 658
f 649 650 659
f 650 660 659
f 650 651 660
f 651 661 660
f 651 652 661
f 652 662 661
f 652 653 662
f 653 663 662
f 653 654 663
f 654 664 663
f 654 645 664
f 645 655 664
f 665 666 675
f 666 676 675
f 666 667 676
f 667 677 676
f 667 668 677
f 668 678 677
f 668 669 678
f 669 679 678
f 669 670 679
f 670 680 679
f 670 671 680
f 671 681 680
f 671 672 681
f 672 682 681
f 672 673 682
f 673 683 682
f 673 674 683
f 674 684 683
f 674 665 684
f 665 675 684
f 685 686 695
f 686 696 695
f 686 687 696
f 687 697 696
f 687 688 697
f 688 698 697
f 688 689 698
f 689 699 698
f 689 690 699
f 690 700 699
f 690 691 700
f 691 701 700
f 691 692 701
f 692 702 701
f 692 693 702
f 693 703 702
f 693 694 703
f 694 704 703
f 694 685 704
f 685 695 704
f 705 706 715
f 706 716 715
f 706 707 716
f 707 717 716
f 707 708 717
f 708 718 717
f 708 709 718
f 709 719 718
f 709 710 719
f 710 720 719
f 710 711 720
f 711 721 720
f 711 712 721
f 712 722 721
f 712 713 722
f 713 723 722
f 713 714 723
f 714 724 723
f 714 705 724
f 705 715 724
f 725 726 735
f 726 736 735
f 726 727 736
f 727 737 736
f 727 728 737
f 728 738 737
f 728 729 738
f 729 739 738
f 729 730 739
f 730 740 739
f 730 731 740
f 731 741 740
f 731 732 741
f 732 742 741
f 732 733 742
f 733 743 742
f 733 734 743
f 734 744 743
f 734 725 744
f 725 735 744
f 745 746 755
f 746 756 755
f 746 747 756
f 747 757 756
f 747 748 757
f 748 758 757
f 748 749 758
f 749 759 758
f 749 750 759
f 750 760 759
f 750 751 760
f 751 761 760
f 751 752 761
f 752 762 761
f 752 753 762
f 753 763 762
f 753 754 763
f 754 764 763
f 754 745 764
f 745 755 764
f 765 766 775
f 766 776 775
f 766 767 776
f 767 777 776
f 767 768 777
f 768 778 777
f 768 769 778
f 769 779 778
f 769 770 779
f 770 780 779
f 770 771 780
f 771 781 780
f 771 772 781
f 772 782 781
f 772 773 782
f 773 783 782
f 773 774 783
f 774 784 783
f 774 765 784
f 765 775 784
