# Full-Body 3D Mesh - Frame 213
v 0.008590 -0.646145 -0.076803
v 0.042398 -0.646145 -0.081664
v 0.073467 -0.646145 -0.095852
v 0.099280 -0.646145 -0.118220
v 0.117746 -0.646145 -0.146953
v 0.127369 -0.646145 -0.179725
v 0.127369 -0.646145 -0.213881
v 0.117746 -0.646145 -0.246653
v 0.099280 -0.646145 -0.275386
v 0.073467 -0.646145 -0.297753
v 0.042398 -0.646145 -0.311942
v 0.008590 -0.646145 -0.316803
v 0.008590 -0.646145 -0.076803
v 0.037031 -0.627867 -0.081664
v 0.063168 -0.611070 -0.095852
v 0.084884 -0.597115 -0.118220
v 0.100418 -0.587131 -0.146953
v 0.108513 -0.581929 -0.179725
v 0.108513 -0.581929 -0.213881
v 0.100418 -0.587131 -0.246653
v 0.084884 -0.597115 -0.275386
v 0.063168 -0.611070 -0.297753
v 0.037031 -0.627867 -0.311942
v 0.008590 -0.646145 -0.316803
v 0.008590 -0.646145 -0.076803
v 0.022635 -0.615392 -0.081664
v 0.035541 -0.587131 -0.095852
v 0.046264 -0.563651 -0.118220
v 0.053935 -0.546854 -0.146953
v 0.057933 -0.538100 -0.179725
v 0.057933 -0.538100 -0.213881
v 0.053935 -0.546854 -0.246653
v 0.046264 -0.563651 -0.275386
v 0.035541 -0.587131 -0.297753
v 0.022635 -0.615392 -0.311942
v 0.008590 -0.646145 -0.316803
v 0.008590 -0.646145 -0.076803
v 0.003779 -0.612681 -0.081664
v -0.000643 -0.581929 -0.095852
v -0.004316 -0.556378 -0.118220
v -0.006944 -0.538100 -0.146953
v -0.008314 -0.528576 -0.179725
v -0.008314 -0.528576 -0.213881
v -0.006944 -0.538100 -0.246653
v -0.004316 -0.556378 -0.275386
v -0.000643 -0.581929 -0.297753
v 0.003779 -0.612681 -0.311942
v 0.008590 -0.646145 -0.316803
v 0.008590 -0.646145 -0.076803
v -0.013549 -0.620595 -0.081664
v -0.033895 -0.597115 -0.095852
v -0.050799 -0.577606 -0.118220
v -0.062891 -0.563651 -0.146953
v -0.069193 -0.556378 -0.179725
v -0.069193 -0.556378 -0.213881
v -0.062891 -0.563651 -0.246653
v -0.050799 -0.577606 -0.275386
v -0.033895 -0.597115 -0.297753
v -0.013549 -0.620595 -0.311942
v 0.008590 -0.646145 -0.316803
v 0.008590 -0.646145 -0.076803
v -0.023848 -0.636620 -0.081664
v -0.053659 -0.627867 -0.095852
v -0.078426 -0.620595 -0.118220
v -0.096144 -0.615392 -0.146953
v -0.105377 -0.612681 -0.179725
v -0.105377 -0.612681 -0.213881
v -0.096144 -0.615392 -0.246653
v -0.078426 -0.620595 -0.275386
v -0.053659 -0.627867 -0.297753
v -0.023848 -0.636620 -0.311942
v 0.008590 -0.646145 -0.316803
v 0.008590 -0.646145 -0.076803
v -0.023848 -0.655670 -0.081664
v -0.053659 -0.664423 -0.095852
v -0.078426 -0.671695 -0.118220
v -0.096144 -0.676898 -0.146953
v -0.105377 -0.679609 -0.179725
v -0.105377 -0.679609 -0.213881
v -0.096144 -0.676898 -0.246653
v -0.078426 -0.671695 -0.275386
v -0.053659 -0.664423 -0.297753
v -0.023848 -0.655670 -0.311942
v 0.008590 -0.646145 -0.316803
v 0.008590 -0.646145 -0.076803
v -0.013549 -0.671695 -0.081664
v -0.033895 -0.695176 -0.095852
v -0.050799 -0.714684 -0.118220
v -0.062891 -0.728640 -0.146953
v -0.069193 -0.735912 -0.179725
v -0.069193 -0.735912 -0.213881
v -0.062891 -0.728640 -0.246653
v -0.050799 -0.714684 -0.275386
v -0.033895 -0.695176 -0.297753
v -0.013549 -0.671695 -0.311942
v 0.008590 -0.646145 -0.316803
v 0.008590 -0.646145 -0.076803
v 0.003779 -0.679609 -0.081664
v -0.000643 -0.710362 -0.095852
v -0.004316 -0.735912 -0.118220
v -0.006944 -0.754190 -0.146953
v -0.008314 -0.763715 -0.179725
v -0.008314 -0.763715 -0.213881
v -0.006944 -0.754190 -0.246653
v -0.004316 -0.735912 -0.275386
v -0.000643 -0.710362 -0.297753
v 0.003779 -0.679609 -0.311942
v 0.008590 -0.646145 -0.316803
v 0.008590 -0.646145 -0.076803
v 0.022635 -0.676898 -0.081664
v 0.035541 -0.705159 -0.095852
v 0.046264 -0.728640 -0.118220
v 0.053935 -0.745437 -0.146953
v 0.057933 -0.754190 -0.179725
v 0.057933 -0.754190 -0.213881
v 0.053935 -0.745437 -0.246653
v 0.046264 -0.728640 -0.275386
v 0.035541 -0.705159 -0.297753
v 0.022635 -0.676898 -0.311942
v 0.008590 -0.646145 -0.316803
v 0.008590 -0.646145 -0.076803
v 0.037031 -0.664423 -0.081664
v 0.063168 -0.681220 -0.095852
v 0.084884 -0.695176 -0.118220
v 0.100418 -0.705159 -0.146953
v 0.108513 -0.710362 -0.179725
v 0.108513 -0.710362 -0.213881
v 0.100418 -0.705159 -0.246653
v 0.084884 -0.695176 -0.275386
v 0.063168 -0.681220 -0.297753
v 0.037031 -0.664423 -0.311942
v 0.008590 -0.646145 -0.316803
v 0.008590 -0.646145 -0.076803
v 0.042398 -0.646145 -0.081664
v 0.073467 -0.646145 -0.095852
v 0.099280 -0.646145 -0.118220
v 0.117746 -0.646145 -0.146953
v 0.127369 -0.646145 -0.179725
v 0.127369 -0.646145 -0.213881
v 0.117746 -0.646145 -0.246653
v 0.099280 -0.646145 -0.275386
v 0.073467 -0.646145 -0.297753
v 0.042398 -0.646145 -0.311942
v 0.008590 -0.646145 -0.316803
v 0.167065 -0.444184 -0.064018
v 0.166410 -0.467696 -0.056407
v 0.164682 -0.482226 -0.036482
v 0.162540 -0.482226 -0.011853
v 0.160804 -0.467696 0.008071
v 0.160136 -0.444184 0.015681
v 0.160791 -0.420673 0.008070
v 0.162519 -0.406142 -0.011855
v 0.164661 -0.406142 -0.036484
v 0.166397 -0.420673 -0.056408
v -0.164299 -0.444276 -0.092827
v -0.164954 -0.467787 -0.085216
v -0.166682 -0.482318 -0.065291
v -0.168823 -0.482318 -0.040663
v -0.170560 -0.467787 -0.020738
v -0.171228 -0.444276 -0.013128
v -0.170573 -0.420764 -0.020739
v -0.168844 -0.406234 -0.040664
v -0.166703 -0.406234 -0.065293
v -0.164967 -0.420764 -0.085217
v 0.163600 -0.451559 -0.063483
v 0.140621 -0.445263 -0.056891
v 0.126419 -0.438554 -0.037801
v 0.126419 -0.433996 -0.013503
v 0.140621 -0.433330 0.006720
v 0.163600 -0.436809 0.015146
v 0.186580 -0.443106 0.008554
v 0.200782 -0.449814 -0.010536
v 0.200782 -0.454372 -0.034834
v 0.186580 -0.455039 -0.055058
v 0.214164 -0.221930 -0.106559
v 0.191185 -0.215633 -0.099968
v 0.176983 -0.208925 -0.080878
v 0.176983 -0.204367 -0.056580
v 0.191185 -0.203700 -0.036356
v 0.214164 -0.207180 -0.027931
v 0.237143 -0.213476 -0.034522
v 0.251346 -0.220184 -0.053613
v 0.251346 -0.224742 -0.077910
v 0.237143 -0.225409 -0.098134
v 0.214164 -0.229117 -0.104500
v 0.190653 -0.226314 -0.097394
v 0.176122 -0.219019 -0.078771
v 0.176122 -0.210019 -0.055747
v 0.190653 -0.202752 -0.037114
v 0.214164 -0.199992 -0.029990
v 0.237675 -0.202795 -0.037097
v 0.252206 -0.210090 -0.055719
v 0.252206 -0.219090 -0.078744
v 0.237675 -0.226357 -0.097377
v 0.214340 -0.064478 -0.168854
v 0.190829 -0.061675 -0.161747
v 0.176298 -0.054381 -0.143125
v 0.176298 -0.045381 -0.120100
v 0.190829 -0.038113 -0.101467
v 0.214340 -0.035354 -0.094343
v 0.237851 -0.038157 -0.101450
v 0.252382 -0.045451 -0.120072
v 0.252382 -0.054451 -0.143097
v 0.237851 -0.061719 -0.161730
v -0.167763 -0.478186 -0.074194
v -0.187339 -0.478616 -0.059103
v -0.199438 -0.465930 -0.041672
v -0.199438 -0.444973 -0.028560
v -0.187339 -0.423749 -0.024774
v -0.167763 -0.410366 -0.031762
v -0.148187 -0.409935 -0.046853
v -0.136089 -0.422621 -0.064284
v -0.136089 -0.443579 -0.077396
v -0.148187 -0.464802 -0.081181
v -0.302937 -0.370404 -0.246461
v -0.322513 -0.370834 -0.231370
v -0.334612 -0.358148 -0.213939
v -0.334612 -0.337191 -0.200827
v -0.322513 -0.315967 -0.197041
v -0.302937 -0.302584 -0.204029
v -0.283362 -0.302153 -0.219120
v -0.271263 -0.314839 -0.236551
v -0.271263 -0.335797 -0.249663
v -0.283362 -0.357020 -0.253449
v -0.302937 -0.365377 -0.197573
v -0.324349 -0.366581 -0.209872
v -0.337582 -0.356292 -0.228042
v -0.337582 -0.338441 -0.245145
v -0.324349 -0.319846 -0.254646
v -0.302937 -0.307610 -0.252917
v -0.281526 -0.306407 -0.240618
v -0.268293 -0.316696 -0.222448
v -0.268293 -0.334547 -0.205345
v -0.281526 -0.353141 -0.195844
v -0.188295 -0.540203 -0.380053
v -0.209706 -0.541407 -0.392352
v -0.222939 -0.531118 -0.410523
v -0.222939 -0.513267 -0.427625
v -0.209706 -0.494672 -0.437126
v -0.188295 -0.482436 -0.435397
v -0.166883 -0.481233 -0.423099
v -0.153651 -0.491522 -0.404928
v -0.153651 -0.509373 -0.387826
v -0.166883 -0.527968 -0.378324
v 0.163600 -0.440879 -0.064032
v 0.140183 -0.443598 -0.056592
v 0.125710 -0.446541 -0.036767
v 0.125710 -0.448584 -0.012130
v 0.140183 -0.448946 0.007908
v 0.163600 -0.447490 0.015695
v 0.187018 -0.444771 0.008254
v 0.201491 -0.441828 -0.011570
v 0.201491 -0.439785 -0.036207
v 0.187018 -0.439422 -0.056246
v 0.123313 0.007934 -0.026817
v 0.099895 0.005215 -0.019376
v 0.085422 0.002272 0.000448
v 0.085422 0.000229 0.025085
v 0.099895 -0.000134 0.045124
v 0.123313 0.001323 0.052910
v 0.146731 0.004042 0.045470
v 0.161204 0.006985 0.025645
v 0.161204 0.009028 0.001008
v 0.146731 0.009390 -0.019030
v -0.167763 -0.440308 -0.092781
v -0.191131 -0.438482 -0.084921
v -0.205573 -0.438868 -0.064861
v -0.205573 -0.441320 -0.040261
v -0.191131 -0.444901 -0.020519
v -0.167763 -0.448243 -0.013175
v -0.144396 -0.450070 -0.021034
v -0.129954 -0.449684 -0.041095
v -0.129954 -0.447232 -0.065694
v -0.144396 -0.443651 -0.085437
v -0.120170 -0.014248 -0.050313
v -0.143538 -0.012421 -0.042453
v -0.157979 -0.012807 -0.022393
v -0.157979 -0.015259 0.002207
v -0.143538 -0.018840 0.021949
v -0.120170 -0.022182 0.029293
v -0.096803 -0.024009 0.021434
v -0.082361 -0.023623 0.001373
v -0.082361 -0.021171 -0.023226
v -0.096803 -0.017590 -0.042969
v 0.127165 0.004628 -0.026767
v 0.128605 -0.018781 -0.018953
v 0.128024 -0.033249 0.001084
v 0.125643 -0.033249 0.025691
v 0.122372 -0.018781 0.045467
v 0.119461 0.004628 0.052861
v 0.118021 0.028038 0.045046
v 0.118602 0.042506 0.025009
v 0.120982 0.042506 0.000403
v 0.124253 0.028038 -0.019374
v -0.116318 -0.018215 -0.050324
v -0.114878 -0.041624 -0.042510
v -0.115459 -0.056092 -0.022473
v -0.117840 -0.056092 0.002134
v -0.121110 -0.041624 0.021911
v -0.124022 -0.018215 0.029304
v -0.125462 0.005195 0.021490
v -0.124881 0.019663 0.001453
v -0.122500 0.019663 -0.023154
v -0.119230 0.005195 -0.042931
v 0.123313 -0.008596 -0.024704
v 0.099802 -0.005954 -0.017535
v 0.085271 0.000731 0.001315
v 0.085271 0.008904 0.024646
v 0.099802 0.015443 0.043547
v 0.123313 0.017852 0.050797
v 0.146824 0.015210 0.043629
v 0.161354 0.008526 0.024778
v 0.161354 0.000353 0.001447
v 0.146824 -0.006187 -0.017453
v 0.124286 0.165912 -0.085834
v 0.100775 0.168554 -0.078666
v 0.086244 0.175238 -0.059815
v 0.086244 0.183411 -0.036484
v 0.100775 0.189951 -0.017584
v 0.124286 0.192360 -0.010333
v 0.147797 0.189718 -0.017502
v 0.162327 0.183034 -0.036352
v 0.162327 0.174861 -0.059683
v 0.147797 0.168321 -0.078584
v 0.124286 0.196532 -0.084103
v 0.100812 0.194416 -0.076641
v 0.086305 0.186464 -0.058271
v 0.086305 0.175713 -0.036010
v 0.100812 0.166269 -0.018361
v 0.124286 0.161740 -0.012064
v 0.147759 0.163856 -0.019526
v 0.162266 0.171808 -0.037896
v 0.162266 0.182559 -0.060157
v 0.147759 0.192003 -0.077807
v 0.144271 0.511738 0.068130
v 0.120798 0.509623 0.075592
v 0.106290 0.501671 0.093962
v 0.106290 0.490919 0.116223
v 0.120798 0.481476 0.133872
v 0.144271 0.476946 0.140168
v 0.167744 0.479062 0.132707
v 0.182251 0.487014 0.114337
v 0.182251 0.497765 0.092076
v 0.167744 0.507209 0.074426
v -0.120170 -0.058215 -0.010686
v -0.143647 -0.050570 -0.011926
v -0.158156 -0.030566 -0.012625
v -0.158156 -0.005845 -0.012516
v -0.143647 0.014151 -0.011641
v -0.120170 0.021785 -0.010334
v -0.096693 0.014140 -0.009094
v -0.082184 -0.005863 -0.008395
v -0.082184 -0.030585 -0.008504
v -0.096693 -0.050581 -0.009379
v -0.107505 -0.057186 -0.244139
v -0.130982 -0.049541 -0.245378
v -0.145491 -0.029538 -0.246078
v -0.145491 -0.004817 -0.245969
v -0.130982 0.015179 -0.245093
v -0.107505 0.022813 -0.243786
v -0.084028 0.015168 -0.242546
v -0.069518 -0.004835 -0.241847
v -0.069518 -0.029556 -0.241956
v -0.084028 -0.049552 -0.242831
v -0.107505 -0.027751 -0.282542
v -0.130771 -0.022469 -0.276068
v -0.145151 -0.015169 -0.257331
v -0.145151 -0.008639 -0.233487
v -0.130771 -0.005375 -0.213645
v -0.107505 -0.006622 -0.205383
v -0.084238 -0.011904 -0.211857
v -0.069859 -0.019204 -0.230594
v -0.069859 -0.025734 -0.254438
v -0.084238 -0.028998 -0.274280
v -0.067989 0.234218 -0.354279
v -0.091256 0.239500 -0.347804
v -0.105635 0.246800 -0.329067
v -0.105635 0.253329 -0.305224
v -0.091256 0.256594 -0.285381
v -0.067989 0.255347 -0.277119
v -0.044723 0.250064 -0.283593
v -0.030343 0.242764 -0.302331
v -0.030343 0.236235 -0.326174
v -0.044723 0.232970 -0.346016
v -0.046587 0.100905 -0.004249
v -0.050637 0.092568 -0.004473
v -0.053140 0.085593 -0.010043
v -0.053140 0.082643 -0.018831
v -0.050637 0.084845 -0.027482
v -0.046587 0.091358 -0.032690
v -0.042538 0.099695 -0.032466
v -0.040035 0.106670 -0.026896
v -0.040035 0.109620 -0.018107
v -0.042538 0.107418 -0.009457
v -0.006206 0.081110 0.002395
v -0.010255 0.072773 0.002172
v -0.012758 0.065798 -0.003398
v -0.012758 0.062848 -0.012187
v -0.010255 0.065050 -0.020837
v -0.006206 0.071563 -0.026045
v -0.002156 0.079900 -0.025822
v 0.000347 0.086875 -0.020252
v 0.000347 0.089825 -0.011463
v -0.002156 0.087623 -0.002813
v -0.006206 0.075988 0.003171
v -0.011947 0.069366 0.000152
v -0.015496 0.065405 -0.007442
v -0.015496 0.065621 -0.016710
v -0.011947 0.069929 -0.024112
v -0.006206 0.076684 -0.026821
v -0.000464 0.083307 -0.023802
v 0.003084 0.087267 -0.016208
v 0.003084 0.087052 -0.006940
v -0.000464 0.082744 0.000462
v 0.017189 0.055919 0.002705
v 0.011447 0.049296 -0.000314
v 0.007899 0.045336 -0.007908
v 0.007899 0.045551 -0.017176
v 0.011447 0.049859 -0.024578
v 0.017189 0.056615 -0.027287
v 0.022930 0.063238 -0.024268
v 0.026479 0.067198 -0.016674
v 0.026479 0.066983 -0.007406
v 0.022930 0.062675 -0.000004
v 0.017189 0.049898 0.001290
v 0.008845 0.048535 -0.002513
v 0.003688 0.050126 -0.010051
v 0.003688 0.054062 -0.018445
v 0.008845 0.058841 -0.024487
v 0.017189 0.062636 -0.025871
v 0.025533 0.063999 -0.022068
v 0.030689 0.062408 -0.014530
v 0.030689 0.058472 -0.006137
v 0.025533 0.053693 -0.000094
v 0.027300 0.023084 -0.011286
v 0.018956 0.021721 -0.015089
v 0.013800 0.023312 -0.022627
v 0.013800 0.027249 -0.031020
v 0.018956 0.032027 -0.037063
v 0.027300 0.035823 -0.038447
v 0.035644 0.037186 -0.034644
v 0.040801 0.035595 -0.027106
v 0.040801 0.031658 -0.018713
v 0.035644 0.026880 -0.012670
v 0.027300 0.025091 -0.010515
v 0.018486 0.026124 -0.013195
v 0.013038 0.028429 -0.020333
v 0.013038 0.031125 -0.029203
v 0.018486 0.033183 -0.036416
v 0.027300 0.033816 -0.039218
v 0.036115 0.032783 -0.036538
v 0.041562 0.030478 -0.029400
v 0.041562 0.027782 -0.020530
v 0.036115 0.025724 -0.013317
v 0.026736 0.002320 -0.017436
v 0.017921 0.003353 -0.020117
v 0.012474 0.005658 -0.027255
v 0.012474 0.008354 -0.036125
v 0.017921 0.010411 -0.043338
v 0.026736 0.011044 -0.046140
v 0.035550 0.010011 -0.043460
v 0.040998 0.007707 -0.036321
v 0.040998 0.005010 -0.027452
v 0.035550 0.002953 -0.020238
v -0.046587 0.101986 -0.004659
v -0.053802 0.096202 -0.005319
v -0.058261 0.090391 -0.011001
v -0.058261 0.086772 -0.019536
v -0.053802 0.086729 -0.027664
v -0.046587 0.090277 -0.032280
v -0.039373 0.096061 -0.031620
v -0.034914 0.101872 -0.025938
v -0.034914 0.105491 -0.017403
v -0.039373 0.105534 -0.009275
v 0.019703 0.015105 0.032174
v 0.012488 0.009321 0.031514
v 0.008029 0.003510 0.025832
v 0.008029 -0.000109 0.017297
v 0.012488 -0.000153 0.009169
v 0.019703 0.003395 0.004553
v 0.026917 0.009180 0.005213
v 0.031376 0.014991 0.010895
v 0.031376 0.018609 0.019430
v 0.026917 0.018653 0.027558
v 0.019703 0.006438 0.033097
v 0.011718 0.003303 0.029583
v 0.006782 0.002440 0.021783
v 0.006782 0.004178 0.012676
v 0.011718 0.007854 0.005743
v 0.019703 0.012062 0.003629
v 0.027688 0.015197 0.007144
v 0.032623 0.016060 0.014944
v 0.032623 0.014322 0.024050
v 0.027688 0.010647 0.030984
v 0.033334 -0.022166 0.027638
v 0.025349 -0.025301 0.024123
v 0.020414 -0.026164 0.016323
v 0.020414 -0.024426 0.007217
v 0.025349 -0.020750 0.000283
v 0.033334 -0.016542 -0.001830
v 0.041319 -0.013407 0.001685
v 0.046254 -0.012544 0.009485
v 0.046254 -0.014282 0.018591
v 0.041319 -0.017957 0.025525
v 0.033334 -0.024102 0.027132
v 0.025329 -0.026701 0.023245
v 0.020382 -0.026493 0.015408
v 0.020382 -0.023559 0.006614
v 0.025329 -0.019018 0.000223
v 0.033334 -0.014606 -0.001325
v 0.041339 -0.012007 0.002562
v 0.046286 -0.012215 0.010400
v 0.046286 -0.015149 0.019193
v 0.041339 -0.019690 0.025585
v 0.042538 -0.043015 0.020821
v 0.034534 -0.045613 0.016934
v 0.029586 -0.045406 0.009097
v 0.029586 -0.042471 0.000303
v 0.034534 -0.037931 -0.006088
v 0.042538 -0.033518 -0.007636
v 0.050543 -0.030920 -0.003749
v 0.055491 -0.031127 0.004088
v 0.055491 -0.034062 0.012882
v 0.050543 -0.038602 0.019274
v 0.042538 -0.049744 0.016250
v 0.033903 -0.048696 0.013046
v 0.028565 -0.043665 0.007377
v 0.028565 -0.036571 0.001408
v 0.033903 -0.030125 -0.002581
v 0.042538 -0.026789 -0.003065
v 0.051174 -0.027837 0.000139
v 0.056512 -0.032868 0.005808
v 0.056512 -0.039962 0.011777
v 0.051174 -0.046407 0.015766
v 0.048481 -0.068335 -0.005843
v 0.039845 -0.067287 -0.009047
v 0.034508 -0.062256 -0.014716
v 0.034508 -0.055162 -0.020685
v 0.039845 -0.048717 -0.024674
v 0.048481 -0.045380 -0.025158
v 0.057117 -0.046428 -0.021954
v 0.062454 -0.051459 -0.016285
v 0.062454 -0.058553 -0.010316
v 0.057117 -0.064999 -0.006327
v -0.046587 0.100233 -0.004041
v -0.054598 0.095906 -0.005789
v -0.059548 0.091665 -0.012381
v -0.059548 0.089131 -0.021298
v -0.054598 0.089270 -0.029135
v -0.046587 0.092030 -0.032898
v -0.038577 0.096357 -0.031150
v -0.033627 0.100598 -0.024558
v -0.033627 0.103132 -0.015640
v -0.038577 0.102993 -0.007804
v 0.001315 0.000041 0.024437
v -0.006695 -0.004286 0.022689
v -0.011646 -0.008527 0.016097
v -0.011646 -0.011061 0.007179
v -0.006695 -0.010922 -0.000657
v 0.001315 -0.008161 -0.004420
v 0.009326 -0.003835 -0.002672
v 0.014276 0.000406 0.003920
v 0.014276 0.002940 0.012837
v 0.009326 0.002801 0.020674
v 0.001315 -0.005490 0.024940
v -0.006329 -0.009590 0.021670
v -0.011054 -0.011577 0.013945
v -0.011054 -0.010694 0.004717
v -0.006329 -0.007277 -0.002490
v 0.001315 -0.002631 -0.004923
v 0.008960 0.001469 -0.001653
v 0.013684 0.003457 0.006072
v 0.013684 0.002573 0.015300
v 0.008960 -0.000844 0.022507
v 0.020319 -0.038410 0.021789
v 0.012674 -0.042510 0.018519
v 0.007950 -0.044498 0.010794
v 0.007950 -0.043615 0.001566
v 0.012674 -0.040197 -0.005642
v 0.020319 -0.035552 -0.008075
v 0.027963 -0.031452 -0.004804
v 0.032688 -0.029464 0.002920
v 0.032688 -0.030347 0.012149
v 0.027963 -0.033765 0.019356
v 0.020319 -0.044582 0.019789
v 0.011873 -0.045313 0.016036
v 0.006654 -0.042861 0.008778
v 0.006654 -0.038164 0.000785
v 0.011873 -0.033014 -0.004888
v 0.020319 -0.029380 -0.006075
v 0.028764 -0.028649 -0.002322
v 0.033984 -0.031101 0.004937
v 0.033984 -0.035798 0.012929
v 0.028764 -0.040947 0.018602
v 0.027321 -0.064721 0.007952
v 0.018876 -0.065452 0.004200
v 0.013656 -0.063000 -0.003059
v 0.013656 -0.058303 -0.011051
v 0.018876 -0.053154 -0.016725
v 0.027321 -0.049519 -0.017911
v 0.035767 -0.048789 -0.014159
v 0.040986 -0.051240 -0.006900
v 0.040986 -0.055937 0.001092
v 0.035767 -0.061087 0.006765
v 0.027321 -0.060069 0.009728
v 0.019609 -0.063695 0.006079
v 0.014842 -0.064810 -0.001794
v 0.014842 -0.062988 -0.010884
v 0.019609 -0.058924 -0.017718
v 0.027321 -0.054172 -0.019687
v 0.035033 -0.050545 -0.016038
v 0.039800 -0.049430 -0.008166
v 0.039800 -0.051253 0.000924
v 0.035033 -0.055316 0.007759
v 0.041414 -0.085010 0.004727
v 0.033702 -0.088636 0.001079
v 0.028935 -0.089751 -0.006794
v 0.028935 -0.087929 -0.015884
v 0.033702 -0.083865 -0.022718
v 0.041414 -0.079113 -0.024687
v 0.049126 -0.075486 -0.021039
v 0.053893 -0.074371 -0.013166
v 0.053893 -0.076194 -0.004076
v 0.049126 -0.080257 0.002758
v -0.046587 0.097173 -0.003506
v -0.054999 0.094339 -0.006180
v -0.060198 0.092190 -0.013549
v -0.060198 0.091546 -0.022797
v -0.054999 0.092654 -0.030392
v -0.046587 0.095090 -0.033433
v -0.038176 0.097924 -0.030759
v -0.032977 0.100073 -0.023390
v -0.032977 0.100717 -0.014142
v -0.038176 0.099609 -0.006547
v -0.014083 -0.006086 0.003682
v -0.022495 -0.008920 0.001008
v -0.027693 -0.011069 -0.006361
v -0.027693 -0.011713 -0.015609
v -0.022495 -0.010605 -0.023204
v -0.014083 -0.008169 -0.026246
v -0.005671 -0.005335 -0.023571
v -0.000472 -0.003185 -0.016203
v -0.000472 -0.002541 -0.006955
v -0.005671 -0.003649 0.000641
v -0.014083 -0.007461 0.003714
v -0.021645 -0.011928 0.000750
v -0.026319 -0.014562 -0.006811
v -0.026319 -0.014356 -0.016079
v -0.021645 -0.011389 -0.023515
v -0.014083 -0.006794 -0.026278
v -0.006520 -0.002326 -0.023313
v -0.001847 0.000308 -0.015753
v -0.001847 0.000102 -0.006485
v -0.006520 -0.002865 0.000951
v 0.003077 -0.036084 0.003078
v -0.004486 -0.040552 0.000113
v -0.009160 -0.043186 -0.007447
v -0.009160 -0.042979 -0.016716
v -0.004486 -0.040012 -0.024151
v 0.003077 -0.035417 -0.026915
v 0.010639 -0.030949 -0.023950
v 0.015313 -0.028315 -0.016389
v 0.015313 -0.028521 -0.007121
v 0.010639 -0.031489 0.000315
v 0.003077 -0.039274 0.002662
v -0.004582 -0.042846 -0.001149
v -0.009316 -0.043708 -0.009073
v -0.009316 -0.041531 -0.018084
v -0.004582 -0.037145 -0.024740
v 0.003077 -0.032227 -0.026499
v 0.010736 -0.028654 -0.022688
v 0.015469 -0.027793 -0.014764
v 0.015469 -0.029970 -0.005753
v 0.010736 -0.034356 0.000903
v 0.015661 -0.060724 -0.002522
v 0.008002 -0.064297 -0.006333
v 0.003268 -0.065159 -0.014257
v 0.003268 -0.062981 -0.023268
v 0.008002 -0.058595 -0.029924
v 0.015661 -0.053677 -0.031683
v 0.023320 -0.050105 -0.027872
v 0.028053 -0.049243 -0.019948
v 0.028053 -0.051421 -0.010937
v 0.023320 -0.055806 -0.004281
v 0.015661 -0.060820 -0.002546
v 0.008125 -0.064570 -0.006430
v 0.003467 -0.065505 -0.014391
v 0.003467 -0.063268 -0.023387
v 0.008125 -0.058713 -0.029983
v 0.015661 -0.053581 -0.031659
v 0.023197 -0.049832 -0.027775
v 0.027855 -0.048897 -0.019814
v 0.027855 -0.051134 -0.010817
v 0.023197 -0.055688 -0.004222
v 0.028087 -0.080681 -0.007484
v 0.020551 -0.084430 -0.011368
v 0.015893 -0.085365 -0.019329
v 0.015893 -0.083128 -0.028326
v 0.020551 -0.078574 -0.034921
v 0.028087 -0.073442 -0.036597
v 0.035623 -0.069692 -0.032713
v 0.040281 -0.068757 -0.024752
v 0.040281 -0.070994 -0.015756
v 0.035623 -0.075549 -0.009160
v -0.046587 0.094101 -0.003608
v -0.055289 0.093080 -0.006638
v -0.060667 0.093225 -0.014188
v -0.060667 0.094480 -0.023373
v -0.055289 0.096366 -0.030685
v -0.046587 0.098162 -0.033331
v -0.037886 0.099183 -0.030301
v -0.032508 0.099038 -0.022751
v -0.032508 0.097783 -0.013565
v -0.037886 0.095897 -0.006253
v -0.031003 -0.000422 -0.016523
v -0.039704 -0.001443 -0.019554
v -0.045082 -0.001298 -0.027104
v -0.045082 -0.000043 -0.036289
v -0.039704 0.001843 -0.043601
v -0.031003 0.003639 -0.046247
v -0.022302 0.004660 -0.043216
v -0.016924 0.004515 -0.035666
v -0.016924 0.003260 -0.026481
v -0.022302 0.001374 -0.019169
v -0.031003 0.003022 -0.016452
v -0.039196 -0.000490 -0.018997
v -0.044260 -0.003201 -0.026274
v -0.044260 -0.004075 -0.035503
v -0.039196 -0.002778 -0.043159
v -0.031003 0.000194 -0.046318
v -0.022810 0.003707 -0.043773
v -0.017746 0.006418 -0.036497
v -0.017746 0.007292 -0.027267
v -0.022810 0.005995 -0.019611
v -0.022769 -0.017600 -0.014499
v -0.030962 -0.021112 -0.017044
v -0.036026 -0.023823 -0.024321
v -0.036026 -0.024697 -0.033550
v -0.030962 -0.023400 -0.041207
v -0.022769 -0.020428 -0.044366
v -0.014576 -0.016916 -0.041821
v -0.009512 -0.014205 -0.034544
v -0.009512 -0.013331 -0.025315
v -0.014576 -0.014628 -0.017658
v -0.022769 -0.018793 -0.014434
v -0.030758 -0.022563 -0.017244
v -0.035696 -0.024978 -0.024709
v -0.035696 -0.025115 -0.033978
v -0.030758 -0.022921 -0.041511
v -0.022769 -0.019235 -0.044431
v -0.014779 -0.015464 -0.041621
v -0.009841 -0.013050 -0.034156
v -0.009841 -0.012913 -0.024887
v -0.014779 -0.015107 -0.017353
v -0.012188 -0.041461 -0.014100
v -0.020178 -0.045232 -0.016910
v -0.025115 -0.047647 -0.024375
v -0.025115 -0.047783 -0.033644
v -0.020178 -0.045590 -0.041177
v -0.012188 -0.041904 -0.044097
v -0.004199 -0.038133 -0.041287
v 0.000739 -0.035718 -0.033822
v 0.000739 -0.035582 -0.024553
v -0.004199 -0.037775 -0.017019
v -0.012188 -0.043285 -0.014184
v -0.019614 -0.047705 -0.017540
v -0.024204 -0.049824 -0.025311
v -0.024204 -0.048833 -0.034529
v -0.019614 -0.045111 -0.041672
v -0.012188 -0.040080 -0.044013
v -0.004762 -0.035660 -0.040656
v -0.000172 -0.033541 -0.032885
v -0.000172 -0.034532 -0.023668
v -0.004762 -0.038254 -0.016525
v 0.000720 -0.063339 -0.016339
v -0.006706 -0.067759 -0.019696
v -0.011296 -0.069878 -0.027466
v -0.011296 -0.068887 -0.036684
v -0.006706 -0.065165 -0.043827
v 0.000720 -0.060134 -0.046168
v 0.008146 -0.055715 -0.042811
v 0.012736 -0.053595 -0.035041
v 0.012736 -0.054586 -0.025823
v 0.008146 -0.058308 -0.018680
f 1 2 13
f 2 14 13
f 2 3 14
f 3 15 14
f 3 4 15
f 4 16 15
f 4 5 16
f 5 17 16
f 5 6 17
f 6 18 17
f 6 7 18
f 7 19 18
f 7 8 19
f 8 20 19
f 8 9 20
f 9 21 20
f 9 10 21
f 10 22 21
f 10 11 22
f 11 23 22
f 11 12 23
f 12 24 23
f 13 14 25
f 14 26 25
f 14 15 26
f 15 27 26
f 15 16 27
f 16 28 27
f 16 17 28
f 17 29 28
f 17 18 29
f 18 30 29
f 18 19 30
f 19 31 30
f 19 20 31
f 20 32 31
f 20 21 32
f 21 33 32
f 21 22 33
f 22 34 33
f 22 23 34
f 23 35 34
f 23 24 35
f 24 36 35
f 25 26 37
f 26 38 37
f 26 27 38
f 27 39 38
f 27 28 39
f 28 40 39
f 28 29 40
f 29 41 40
f 29 30 41
f 30 42 41
f 30 31 42
f 31 43 42
f 31 32 43
f 32 44 43
f 32 33 44
f 33 45 44
f 33 34 45
f 34 46 45
f 34 35 46
f 35 47 46
f 35 36 47
f 36 48 47
f 37 38 49
f 38 50 49
f 38 39 50
f 39 51 50
f 39 40 51
f 40 52 51
f 40 41 52
f 41 53 52
f 41 42 53
f 42 54 53
f 42 43 54
f 43 55 54
f 43 44 55
f 44 56 55
f 44 45 56
f 45 57 56
f 45 46 57
f 46 58 57
f 46 47 58
f 47 59 58
f 47 48 59
f 48 60 59
f 49 50 61
f 50 62 61
f 50 51 62
f 51 63 62
f 51 52 63
f 52 64 63
f 52 53 64
f 53 65 64
f 53 54 65
f 54 66 65
f 54 55 66
f 55 67 66
f 55 56 67
f 56 68 67
f 56 57 68
f 57 69 68
f 57 58 69
f 58 70 69
f 58 59 70
f 59 71 70
f 59 60 71
f 60 72 71
f 61 62 73
f 62 74 73
f 62 63 74
f 63 75 74
f 63 64 75
f 64 76 75
f 64 65 76
f 65 77 76
f 65 66 77
f 66 78 77
f 66 67 78
f 67 79 78
f 67 68 79
f 68 80 79
f 68 69 80
f 69 81 80
f 69 70 81
f 70 82 81
f 70 71 82
f 71 83 82
f 71 72 83
f 72 84 83
f 73 74 85
f 74 86 85
f 74 75 86
f 75 87 86
f 75 76 87
f 76 88 87
f 76 77 88
f 77 89 88
f 77 78 89
f 78 90 89
f 78 79 90
f 79 91 90
f 79 80 91
f 80 92 91
f 80 81 92
f 81 93 92
f 81 82 93
f 82 94 93
f 82 83 94
f 83 95 94
f 83 84 95
f 84 96 95
f 85 86 97
f 86 98 97
f 86 87 98
f 87 99 98
f 87 88 99
f 88 100 99
f 88 89 100
f 89 101 100
f 89 90 101
f 90 102 101
f 90 91 102
f 91 103 102
f 91 92 103
f 92 104 103
f 92 93 104
f 93 105 104
f 93 94 105
f 94 106 105
f 94 95 106
f 95 107 106
f 95 96 107
f 96 108 107
f 97 98 109
f 98 110 109
f 98 99 110
f 99 111 110
f 99 100 111
f 100 112 111
f 100 101 112
f 101 113 112
f 101 102 113
f 102 114 113
f 102 103 114
f 103 115 114
f 103 104 115
f 104 116 115
f 104 105 116
f 105 117 116
f 105 106 117
f 106 118 117
f 106 107 118
f 107 119 118
f 107 108 119
f 108 120 119
f 109 110 121
f 110 122 121
f 110 111 122
f 111 123 122
f 111 112 123
f 112 124 123
f 112 113 124
f 113 125 124
f 113 114 125
f 114 126 125
f 114 115 126
f 115 127 126
f 115 116 127
f 116 128 127
f 116 117 128
f 117 129 128
f 117 118 129
f 118 130 129
f 118 119 130
f 119 131 130
f 119 120 131
f 120 132 131
f 121 122 133
f 122 134 133
f 122 123 134
f 123 135 134
f 123 124 135
f 124 136 135
f 124 125 136
f 125 137 136
f 125 126 137
f 126 138 137
f 126 127 138
f 127 139 138
f 127 128 139
f 128 140 139
f 128 129 140
f 129 141 140
f 129 130 141
f 130 142 141
f 130 131 142
f 131 143 142
f 131 132 143
f 132 144 143
f 145 146 155
f 146 156 155
f 146 147 156
f 147 157 156
f 147 148 157
f 148 158 157
f 148 149 158
f 149 159 158
f 149 150 159
f 150 160 159
f 150 151 160
f 151 161 160
f 151 152 161
f 152 162 161
f 152 153 162
f 153 163 162
f 153 154 163
f 154 164 163
f 154 145 164
f 145 155 164
f 165 166 175
f 166 176 175
f 166 167 176
f 167 177 176
f 167 168 177
f 168 178 177
f 168 169 178
f 169 179 178
f 169 170 179
f 170 180 179
f 170 171 180
f 171 181 180
f 171 172 181
f 172 182 181
f 172 173 182
f 173 183 182
f 173 174 183
f 174 184 183
f 174 165 184
f 165 175 184
f 185 186 195
f 186 196 195
f 186 187 196
f 187 197 196
f 187 188 197
f 188 198 197
f 188 189 198
f 189 199 198
f 189 190 199
f 190 200 199
f 190 191 200
f 191 201 200
f 191 192 201
f 192 202 201
f 192 193 202
f 193 203 202
f 193 194 203
f 194 204 203
f 194 185 204
f 185 195 204
f 205 206 215
f 206 216 215
f 206 207 216
f 207 217 216
f 207 208 217
f 208 218 217
f 208 209 218
f 209 219 218
f 209 210 219
f 210 220 219
f 210 211 220
f 211 221 220
f 211 212 221
f 212 222 221
f 212 213 222
f 213 223 222
f 213 214 223
f 214 224 223
f 214 205 224
f 205 215 224
f 225 226 235
f 226 236 235
f 226 227 236
f 227 237 236
f 227 228 237
f 228 238 237
f 228 229 238
f 229 239 238
f 229 230 239
f 230 240 239
f 230 231 240
f 231 241 240
f 231 232 241
f 232 242 241
f 232 233 242
f 233 243 242
f 233 234 243
f 234 244 243
f 234 225 244
f 225 235 244
f 245 246 255
f 246 256 255
f 246 247 256
f 247 257 256
f 247 248 257
f 248 258 257
f 248 249 258
f 249 259 258
f 249 250 259
f 250 260 259
f 250 251 260
f 251 261 260
f 251 252 261
f 252 262 261
f 252 253 262
f 253 263 262
f 253 254 263
f 254 264 263
f 254 245 264
f 245 255 264
f 265 266 275
f 266 276 275
f 266 267 276
f 267 277 276
f 267 268 277
f 268 278 277
f 268 269 278
f 269 279 278
f 269 270 279
f 270 280 279
f 270 271 280
f 271 281 280
f 271 272 281
f 272 282 281
f 272 273 282
f 273 283 282
f 273 274 283
f 274 284 283
f 274 265 284
f 265 275 284
f 285 286 295
f 286 296 295
f 286 287 296
f 287 297 296
f 287 288 297
f 288 298 297
f 288 289 298
f 289 299 298
f 289 290 299
f 290 300 299
f 290 291 300
f 291 301 300
f 291 292 301
f 292 302 301
f 292 293 302
f 293 303 302
f 293 294 303
f 294 304 303
f 294 285 304
f 285 295 304
f 305 306 315
f 306 316 315
f 306 307 316
f 307 317 316
f 307 308 317
f 308 318 317
f 308 309 318
f 309 319 318
f 309 310 319
f 310 320 319
f 310 311 320
f 311 321 320
f 311 312 321
f 312 322 321
f 312 313 322
f 313 323 322
f 313 314 323
f 314 324 323
f 314 305 324
f 305 315 324
f 325 326 335
f 326 336 335
f 326 327 336
f 327 337 336
f 327 328 337
f 328 338 337
f 328 329 338
f 329 339 338
f 329 330 339
f 330 340 339
f 330 331 340
f 331 341 340
f 331 332 341
f 332 342 341
f 332 333 342
f 333 343 342
f 333 334 343
f 334 344 343
f 334 325 344
f 325 335 344
f 345 346 355
f 346 356 355
f 346 347 356
f 347 357 356
f 347 348 357
f 348 358 357
f 348 349 358
f 349 359 358
f 349 350 359
f 350 360 359
f 350 351 360
f 351 361 360
f 351 352 361
f 352 362 361
f 352 353 362
f 353 363 362
f 353 354 363
f 354 364 363
f 354 345 364
f 345 355 364
f 365 366 375
f 366 376 375
f 366 367 376
f 367 377 376
f 367 368 377
f 368 378 377
f 368 369 378
f 369 379 378
f 369 370 379
f 370 380 379
f 370 371 380
f 371 381 380
f 371 372 381
f 372 382 381
f 372 373 382
f 373 383 382
f 373 374 383
f 374 384 383
f 374 365 384
f 365 375 384
f 385 386 395
f 386 396 395
f 386 387 396
f 387 397 396
f 387 388 397
f 388 398 397
f 388 389 398
f 389 399 398
f 389 390 399
f 390 400 399
f 390 391 400
f 391 401 400
f 391 392 401
f 392 402 401
f 392 393 402
f 393 403 402
f 393 394 403
f 394 404 403
f 394 385 404
f 385 395 404
f 405 406 415
f 406 416 415
f 406 407 416
f 407 417 416
f 407 408 417
f 408 418 417
f 408 409 418
f 409 419 418
f 409 410 419
f 410 420 419
f 410 411 420
f 411 421 420
f 411 412 421
f 412 422 421
f 412 413 422
f 413 423 422
f 413 414 423
f 414 424 423
f 414 405 424
f 405 415 424
f 425 426 435
f 426 436 435
f 426 427 436
f 427 437 436
f 427 428 437
f 428 438 437
f 428 429 438
f 429 439 438
f 429 430 439
f 430 440 439
f 430 431 440
f 431 441 440
f 431 432 441
f 432 442 441
f 432 433 442
f 433 443 442
f 433 434 443
f 434 444 443
f 434 425 444
f 425 435 444
f 445 446 455
f 446 456 455
f 446 447 456
f 447 457 456
f 447 448 457
f 448 458 457
f 448 449 458
f 449 459 458
f 449 450 459
f 450 460 459
f 450 451 460
f 451 461 460
f 451 452 461
f 452 462 461
f 452 453 462
f 453 463 462
f 453 454 463
f 454 464 463
f 454 445 464
f 445 455 464
f 465 466 475
f 466 476 475
f 466 467 476
f 467 477 476
f 467 468 477
f 468 478 477
f 468 469 478
f 469 479 478
f 469 470 479
f 470 480 479
f 470 471 480
f 471 481 480
f 471 472 481
f 472 482 481
f 472 473 482
f 473 483 482
f 473 474 483
f 474 484 483
f 474 465 484
f 465 475 484
f 485 486 495
f 486 496 495
f 486 487 496
f 487 497 496
f 487 488 497
f 488 498 497
f 488 489 498
f 489 499 498
f 489 490 499
f 490 500 499
f 490 491 500
f 491 501 500
f 491 492 501
f 492 502 501
f 492 493 502
f 493 503 502
f 493 494 503
f 494 504 503
f 494 485 504
f 485 495 504
f 505 506 515
f 506 516 515
f 506 507 516
f 507 517 516
f 507 508 517
f 508 518 517
f 508 509 518
f 509 519 518
f 509 510 519
f 510 520 519
f 510 511 520
f 511 521 520
f 511 512 521
f 512 522 521
f 512 513 522
f 513 523 522
f 513 514 523
f 514 524 523
f 514 505 524
f 505 515 524
f 525 526 535
f 526 536 535
f 526 527 536
f 527 537 536
f 527 528 537
f 528 538 537
f 528 529 538
f 529 539 538
f 529 530 539
f 530 540 539
f 530 531 540
f 531 541 540
f 531 532 541
f 532 542 541
f 532 533 542
f 533 543 542
f 533 534 543
f 534 544 543
f 534 525 544
f 525 535 544
f 545 546 555
f 546 556 555
f 546 547 556
f 547 557 556
f 547 548 557
f 548 558 557
f 548 549 558
f 549 559 558
f 549 550 559
f 550 560 559
f 550 551 560
f 551 561 560
f 551 552 561
f 552 562 561
f 552 553 562
f 553 563 562
f 553 554 563
f 554 564 563
f 554 545 564
f 545 555 564
f 565 566 575
f 566 576 575
f 566 567 576
f 567 577 576
f 567 568 577
f 568 578 577
f 568 569 578
f 569 579 578
f 569 570 579
f 570 580 579
f 570 571 580
f 571 581 580
f 571 572 581
f 572 582 581
f 572 573 582
f 573 583 582
f 573 574 583
f 574 584 583
f 574 565 584
f 565 575 584
f 585 586 595
f 586 596 595
f 586 587 596
f 587 597 596
f 587 588 597
f 588 598 597
f 588 589 598
f 589 599 598
f 589 590 599
f 590 600 599
f 590 591 600
f 591 601 600
f 591 592 601
f 592 602 601
f 592 593 602
f 593 603 602
f 593 594 603
f 594 604 603
f 594 585 604
f 585 595 604
f 605 606 615
f 606 616 615
f 606 607 616
f 607 617 616
f 607 608 617
f 608 618 617
f 608 609 618
f 609 619 618
f 609 610 619
f 610 620 619
f 610 611 620
f 611 621 620
f 611 612 621
f 612 622 621
f 612 613 622
f 613 623 622
f 613 614 623
f 614 624 623
f 614 605 624
f 605 615 624
f 625 626 635
f 626 636 635
f 626 627 636
f 627 637 636
f 627 628 637
f 628 638 637
f 628 629 638
f 629 639 638
f 629 630 639
f 630 640 639
f 630 631 640
f 631 641 640
f 631 632 641
f 632 642 641
f 632 633 642
f 633 643 642
f 633 634 643
f 634 644 643
f 634 625 644
f 625 635 644
f 645 646 655
f 646 656 655
f 646 647 656
f 647 657 656
f 647 648 657
f 648 658 657
f 648 649 658
f 649 659 658
f 649 650 659
f 650 660 659
f 650 651 660
f 651 661 660
f 651 652 661
f 652 662 661
f 652 653 662
f 653 663 662
f 653 654 663
f 654 664 663
f 654 645 664
f 645 655 664
f 665 666 675
f 666 676 675
f 666 667 676
f 667 677 676
f 667 668 677
f 668 678 677
f 668 669 678
f 669 679 678
f 669 670 679
f 670 680 679
f 670 671 680
f 671 681 680
f 671 672 681
f 672 682 681
f 672 673 682
f 673 683 682
f 673 674 683
f 674 684 683
f 674 665 684
f 665 675 684
f 685 686 695
f 686 696 695
f 686 687 696
f 687 697 696
f 687 688 697
f 688 698 697
f 688 689 698
f 689 699 698
f 689 690 699
f 690 700 699
f 690 691 700
f 691 701 700
f 691 692 701
f 692 702 701
f 692 693 702
f 693 703 702
f 693 694 703
f 694 704 703
f 694 685 704
f 685 695 704
f 705 706 715
f 706 716 715
f 706 707 716
f 707 717 716
f 707 708 717
f 708 718 717
f 708 709 718
f 709 719 718
f 709 710 719
f 710 720 719
f 710 711 720
f 711 721 720
f 711 712 721
f 712 722 721
f 712 713 722
f 713 723 722
f 713 714 723
f 714 724 723
f 714 705 724
f 705 715 724
f 725 726 735
f 726 736 735
f 726 727 736
f 727 737 736
f 727 728 737
f 728 738 737
f 728 729 738
f 729 739 738
f 729 730 739
f 730 740 739
f 730 731 740
f 731 741 740
f 731 732 741
f 732 742 741
f 732 733 742
f 733 743 742
f 733 734 743
f 734 744 743
f 734 725 744
f 725 735 744
f 745 746 755
f 746 756 755
f 746 747 756
f 747 757 756
f 747 748 757
f 748 758 757
f 748 749 758
f 749 759 758
f 749 750 759
f 750 760 759
f 750 751 760
f 751 761 760
f 751 752 761
f 752 762 761
f 752 753 762
f 753 763 762
f 753 754 763
f 754 764 763
f 754 745 764
f 745 755 764
f 765 766 775
f 766 776 775
f 766 767 776
f 767 777 776
f 767 768 777
f 768 778 777
f 768 769 778
f 769 779 778
f 769 770 779
f 770 780 779
f 770 771 780
f 771 781 780
f 771 772 781
f 772 782 781
f 772 773 782
f 773 783 782
f 773 774 783
f 774 784 783
f 774 765 784
f 765 775 784
