# Full-Body 3D Mesh - Frame 82
v 0.001869 -0.653808 -0.137364
v 0.035677 -0.653808 -0.142225
v 0.066746 -0.653808 -0.156414
v 0.092559 -0.653808 -0.178781
v 0.111025 -0.653808 -0.207515
v 0.120647 -0.653808 -0.240287
v 0.120647 -0.653808 -0.274442
v 0.111025 -0.653808 -0.307214
v 0.092559 -0.653808 -0.335948
v 0.066746 -0.653808 -0.358315
v 0.035677 -0.653808 -0.372503
v 0.001869 -0.653808 -0.377364
v 0.001869 -0.653808 -0.137364
v 0.030310 -0.635530 -0.142225
v 0.056447 -0.618733 -0.156414
v 0.078162 -0.604777 -0.178781
v 0.093696 -0.594794 -0.207515
v 0.101792 -0.589591 -0.240287
v 0.101792 -0.589591 -0.274442
v 0.093696 -0.594794 -0.307214
v 0.078162 -0.604777 -0.335948
v 0.056447 -0.618733 -0.358315
v 0.030310 -0.635530 -0.372503
v 0.001869 -0.653808 -0.377364
v 0.001869 -0.653808 -0.137364
v 0.015913 -0.623055 -0.142225
v 0.028820 -0.594794 -0.156414
v 0.039543 -0.571313 -0.178781
v 0.047214 -0.554516 -0.207515
v 0.051211 -0.545763 -0.240287
v 0.051211 -0.545763 -0.274442
v 0.047214 -0.554516 -0.307214
v 0.039543 -0.571313 -0.335948
v 0.028820 -0.594794 -0.358315
v 0.015913 -0.623055 -0.372503
v 0.001869 -0.653808 -0.377364
v 0.001869 -0.653808 -0.137364
v -0.002943 -0.620344 -0.142225
v -0.007364 -0.589591 -0.156414
v -0.011038 -0.564041 -0.178781
v -0.013666 -0.545763 -0.207515
v -0.015035 -0.536238 -0.240287
v -0.015035 -0.536238 -0.274442
v -0.013666 -0.545763 -0.307214
v -0.011038 -0.564041 -0.335948
v -0.007364 -0.589591 -0.358315
v -0.002943 -0.620344 -0.372503
v 0.001869 -0.653808 -0.377364
v 0.001869 -0.653808 -0.137364
v -0.020271 -0.628258 -0.142225
v -0.040617 -0.604777 -0.156414
v -0.057521 -0.585269 -0.178781
v -0.069613 -0.571313 -0.207515
v -0.075915 -0.564041 -0.240287
v -0.075915 -0.564041 -0.274442
v -0.069613 -0.571313 -0.307214
v -0.057521 -0.585269 -0.335948
v -0.040617 -0.604777 -0.358315
v -0.020271 -0.628258 -0.372503
v 0.001869 -0.653808 -0.377364
v 0.001869 -0.653808 -0.137364
v -0.030570 -0.644283 -0.142225
v -0.060380 -0.635530 -0.156414
v -0.085148 -0.628258 -0.178781
v -0.102866 -0.623055 -0.207515
v -0.112099 -0.620344 -0.240287
v -0.112099 -0.620344 -0.274442
v -0.102866 -0.623055 -0.307214
v -0.085148 -0.628258 -0.335948
v -0.060380 -0.635530 -0.358315
v -0.030570 -0.644283 -0.372503
v 0.001869 -0.653808 -0.377364
v 0.001869 -0.653808 -0.137364
v -0.030570 -0.663333 -0.142225
v -0.060380 -0.672086 -0.156414
v -0.085148 -0.679358 -0.178781
v -0.102866 -0.684561 -0.207515
v -0.112099 -0.687272 -0.240287
v -0.112099 -0.687272 -0.274442
v -0.102866 -0.684561 -0.307214
v -0.085148 -0.679358 -0.335948
v -0.060380 -0.672086 -0.358315
v -0.030570 -0.663333 -0.372503
v 0.001869 -0.653808 -0.377364
v 0.001869 -0.653808 -0.137364
v -0.020271 -0.679358 -0.142225
v -0.040617 -0.702838 -0.156414
v -0.057521 -0.722347 -0.178781
v -0.069613 -0.736302 -0.207515
v -0.075915 -0.743575 -0.240287
v -0.075915 -0.743575 -0.274442
v -0.069613 -0.736302 -0.307214
v -0.057521 -0.722347 -0.335948
v -0.040617 -0.702838 -0.358315
v -0.020271 -0.679358 -0.372503
v 0.001869 -0.653808 -0.377364
v 0.001869 -0.653808 -0.137364
v -0.002943 -0.687272 -0.142225
v -0.007364 -0.718024 -0.156414
v -0.011038 -0.743575 -0.178781
v -0.013666 -0.761853 -0.207515
v -0.015035 -0.771377 -0.240287
v -0.015035 -0.771377 -0.274442
v -0.013666 -0.761853 -0.307214
v -0.011038 -0.743575 -0.335948
v -0.007364 -0.718024 -0.358315
v -0.002943 -0.687272 -0.372503
v 0.001869 -0.653808 -0.377364
v 0.001869 -0.653808 -0.137364
v 0.015913 -0.684561 -0.142225
v 0.028820 -0.712822 -0.156414
v 0.039543 -0.736302 -0.178781
v 0.047214 -0.753099 -0.207515
v 0.051211 -0.761853 -0.240287
v 0.051211 -0.761853 -0.274442
v 0.047214 -0.753099 -0.307214
v 0.039543 -0.736302 -0.335948
v 0.028820 -0.712822 -0.358315
v 0.015913 -0.684561 -0.372503
v 0.001869 -0.653808 -0.377364
v 0.001869 -0.653808 -0.137364
v 0.030310 -0.672086 -0.142225
v 0.056447 -0.688883 -0.156414
v 0.078162 -0.702838 -0.178781
v 0.093696 -0.712822 -0.207515
v 0.101792 -0.718024 -0.240287
v 0.101792 -0.718024 -0.274442
v 0.093696 -0.712822 -0.307214
v 0.078162 -0.702838 -0.335948
v 0.056447 -0.688883 -0.358315
v 0.030310 -0.672086 -0.372503
v 0.001869 -0.653808 -0.377364
v 0.001869 -0.653808 -0.137364
v 0.035677 -0.653808 -0.142225
v 0.066746 -0.653808 -0.156414
v 0.092559 -0.653808 -0.178781
v 0.111025 -0.653808 -0.207515
v 0.120647 -0.653808 -0.240287
v 0.120647 -0.653808 -0.274442
v 0.111025 -0.653808 -0.307214
v 0.092559 -0.653808 -0.335948
v 0.066746 -0.653808 -0.358315
v 0.035677 -0.653808 -0.372503
v 0.001869 -0.653808 -0.377364
v 0.167876 -0.455023 -0.093145
v 0.166845 -0.478528 -0.085558
v 0.165189 -0.493055 -0.065624
v 0.163540 -0.493055 -0.040958
v 0.162528 -0.478528 -0.020981
v 0.162539 -0.455023 -0.013324
v 0.163570 -0.431517 -0.020911
v 0.165226 -0.416990 -0.040845
v 0.166875 -0.416990 -0.065511
v 0.167887 -0.431517 -0.085488
v -0.175056 -0.447388 -0.116073
v -0.176087 -0.470893 -0.108485
v -0.177743 -0.485420 -0.088551
v -0.179392 -0.485420 -0.063885
v -0.180404 -0.470893 -0.043908
v -0.180393 -0.447388 -0.036251
v -0.179362 -0.423882 -0.043838
v -0.177706 -0.409355 -0.063772
v -0.176057 -0.409355 -0.088438
v -0.175045 -0.423882 -0.108415
v 0.165208 -0.457775 -0.093140
v 0.142076 -0.453048 -0.085808
v 0.127781 -0.449075 -0.066035
v 0.127781 -0.447374 -0.041372
v 0.142076 -0.448594 -0.021240
v 0.165208 -0.452270 -0.013329
v 0.188339 -0.456998 -0.020661
v 0.202635 -0.460970 -0.040434
v 0.202635 -0.462671 -0.065097
v 0.188339 -0.461451 -0.085229
v 0.207681 -0.225053 -0.109191
v 0.184550 -0.220325 -0.101859
v 0.170255 -0.216352 -0.082086
v 0.170255 -0.214651 -0.057423
v 0.184550 -0.215872 -0.037291
v 0.207681 -0.219548 -0.029380
v 0.230813 -0.224275 -0.036712
v 0.245108 -0.228248 -0.056485
v 0.245108 -0.229949 -0.081148
v 0.230813 -0.228729 -0.101280
v 0.207681 -0.242035 -0.104078
v 0.184177 -0.238753 -0.097157
v 0.169650 -0.229187 -0.079590
v 0.169650 -0.216990 -0.058087
v 0.184177 -0.206822 -0.040861
v 0.207681 -0.202566 -0.034493
v 0.231186 -0.205847 -0.041414
v 0.245713 -0.215414 -0.058981
v 0.245713 -0.227610 -0.080484
v 0.231186 -0.237779 -0.097710
v 0.203287 -0.081657 -0.195047
v 0.179783 -0.078375 -0.188126
v 0.165256 -0.068809 -0.170558
v 0.165256 -0.056612 -0.149055
v 0.179783 -0.046443 -0.131830
v 0.203287 -0.042187 -0.125461
v 0.226792 -0.045469 -0.132383
v 0.241319 -0.055035 -0.149950
v 0.241319 -0.067232 -0.171453
v 0.226792 -0.077401 -0.188678
v -0.177725 -0.462835 -0.113058
v -0.200985 -0.463046 -0.104688
v -0.215361 -0.457277 -0.085422
v -0.215361 -0.447729 -0.062618
v -0.200985 -0.438052 -0.044988
v -0.177725 -0.431940 -0.039265
v -0.154465 -0.431729 -0.047635
v -0.140089 -0.437498 -0.066902
v -0.140089 -0.447046 -0.089705
v -0.154465 -0.456723 -0.107335
v -0.218852 -0.205381 -0.220848
v -0.242112 -0.205592 -0.212477
v -0.256488 -0.199822 -0.193211
v -0.256488 -0.190275 -0.170408
v -0.242112 -0.180597 -0.152777
v -0.218852 -0.174485 -0.147054
v -0.195592 -0.174274 -0.155425
v -0.181216 -0.180044 -0.174691
v -0.181216 -0.189591 -0.197494
v -0.195592 -0.199269 -0.215125
v -0.218852 -0.228913 -0.174974
v -0.242310 -0.221821 -0.178222
v -0.256809 -0.202550 -0.183658
v -0.256809 -0.178459 -0.189206
v -0.242310 -0.158751 -0.192747
v -0.218852 -0.150953 -0.192928
v -0.195393 -0.158045 -0.189680
v -0.180895 -0.177316 -0.184244
v -0.180895 -0.201407 -0.178696
v -0.195393 -0.221115 -0.175155
v -0.202280 -0.284360 -0.415728
v -0.225739 -0.277269 -0.418976
v -0.240237 -0.257997 -0.424413
v -0.240237 -0.233907 -0.429961
v -0.225739 -0.214199 -0.433502
v -0.202280 -0.206401 -0.433683
v -0.178821 -0.213492 -0.430435
v -0.164323 -0.232764 -0.424999
v -0.164323 -0.256855 -0.419450
v -0.178821 -0.276563 -0.415909
v 0.165208 -0.450143 -0.092936
v 0.141773 -0.452956 -0.085585
v 0.127289 -0.456557 -0.065877
v 0.127289 -0.459573 -0.041340
v 0.141773 -0.460850 -0.021347
v 0.165208 -0.459902 -0.013533
v 0.188643 -0.457090 -0.020884
v 0.203126 -0.453488 -0.040592
v 0.203126 -0.450472 -0.065129
v 0.188643 -0.449195 -0.085122
v 0.128024 0.006354 -0.036832
v 0.104589 0.003542 -0.029480
v 0.090106 -0.000060 -0.009773
v 0.090106 -0.003076 0.014764
v 0.104589 -0.004353 0.034758
v 0.128024 -0.003405 0.042571
v 0.151459 -0.000592 0.035220
v 0.165943 0.003010 0.015512
v 0.165943 0.006025 -0.009025
v 0.151459 0.007303 -0.029018
v -0.177725 -0.440564 -0.115575
v -0.201082 -0.439219 -0.107590
v -0.215518 -0.440995 -0.087599
v -0.215518 -0.445213 -0.063241
v -0.201082 -0.450261 -0.043817
v -0.177725 -0.454212 -0.036748
v -0.154367 -0.455556 -0.044734
v -0.139932 -0.453780 -0.064724
v -0.139932 -0.449562 -0.089083
v -0.154367 -0.444514 -0.108506
v -0.127267 -0.008353 -0.040743
v -0.150624 -0.007009 -0.032757
v -0.165060 -0.008784 -0.012767
v -0.165060 -0.013002 0.011592
v -0.150624 -0.018050 0.031015
v -0.127267 -0.022001 0.038084
v -0.103909 -0.023345 0.030098
v -0.089474 -0.021569 0.010108
v -0.089474 -0.017352 -0.014251
v -0.103909 -0.012303 -0.033674
v 0.128682 0.001475 -0.037125
v 0.130086 -0.021987 -0.029461
v 0.130703 -0.036487 -0.009449
v 0.130296 -0.036487 0.015270
v 0.129022 -0.021987 0.035251
v 0.127366 0.001475 0.042864
v 0.125962 0.024936 0.035201
v 0.125345 0.039436 0.015188
v 0.125752 0.039436 -0.009530
v 0.127027 0.024936 -0.029512
v -0.126609 -0.015177 -0.041324
v -0.125205 -0.038638 -0.033661
v -0.124588 -0.053138 -0.013648
v -0.124995 -0.053138 0.011070
v -0.126269 -0.038638 0.031052
v -0.127925 -0.015177 0.038665
v -0.129329 0.008285 0.031002
v -0.129945 0.022785 0.010989
v -0.129539 0.022785 -0.013729
v -0.128264 0.008285 -0.033711
v 0.128024 -0.007992 -0.035994
v 0.104557 -0.007579 -0.028232
v 0.090053 -0.003707 -0.008590
v 0.090053 0.002144 0.015429
v 0.104557 0.007739 0.034651
v 0.128024 0.010942 0.041733
v 0.151492 0.010528 0.033971
v 0.165995 0.006657 0.014330
v 0.165995 0.000806 -0.009689
v 0.151492 -0.004790 -0.028911
v 0.117645 0.156885 -0.076157
v 0.094177 0.157298 -0.068395
v 0.079674 0.161170 -0.048753
v 0.079674 0.167021 -0.024734
v 0.094177 0.172616 -0.005513
v 0.117645 0.175819 0.001570
v 0.141112 0.175405 -0.006192
v 0.155616 0.171534 -0.025834
v 0.155616 0.165683 -0.049853
v 0.141112 0.160087 -0.069075
v 0.117645 0.184675 -0.072850
v 0.094201 0.182763 -0.065241
v 0.079712 0.174582 -0.046958
v 0.079712 0.163258 -0.024983
v 0.094201 0.153115 -0.007710
v 0.117645 0.148028 -0.001737
v 0.141088 0.149940 -0.009346
v 0.155577 0.158121 -0.027629
v 0.155577 0.169446 -0.049604
v 0.141088 0.179588 -0.066877
v 0.141645 0.464777 0.071497
v 0.118201 0.462865 0.079105
v 0.103713 0.454684 0.097389
v 0.103713 0.443360 0.119364
v 0.118201 0.433217 0.136637
v 0.141645 0.428131 0.142609
v 0.165088 0.430043 0.135001
v 0.179577 0.438224 0.116717
v 0.179577 0.449548 0.094742
v 0.165088 0.459691 0.077469
v -0.127267 -0.055175 -0.001691
v -0.150766 -0.047529 -0.002366
v -0.165290 -0.027526 -0.002645
v -0.165290 -0.002806 -0.002421
v -0.150766 0.017189 -0.001781
v -0.127267 0.024822 -0.000968
v -0.103767 0.017176 -0.000293
v -0.089243 -0.002827 -0.000014
v -0.089243 -0.027548 -0.000238
v -0.103767 -0.047543 -0.000878
v -0.120797 -0.053327 -0.206054
v -0.144297 -0.045681 -0.206729
v -0.158821 -0.025677 -0.207007
v -0.158821 -0.000957 -0.206784
v -0.144297 0.019038 -0.206143
v -0.120797 0.026670 -0.205330
v -0.097298 0.019024 -0.204656
v -0.082774 -0.000979 -0.204377
v -0.082774 -0.025699 -0.204600
v -0.097298 -0.045694 -0.205241
v -0.120797 -0.020550 -0.245035
v -0.144253 -0.017581 -0.237813
v -0.158750 -0.012988 -0.218322
v -0.158750 -0.008524 -0.194007
v -0.144253 -0.005895 -0.174155
v -0.120797 -0.006106 -0.166350
v -0.097342 -0.009075 -0.173571
v -0.082845 -0.013669 -0.193062
v -0.082845 -0.018132 -0.217377
v -0.097342 -0.020761 -0.237229
v -0.099148 0.288445 -0.301758
v -0.122604 0.291414 -0.294536
v -0.137101 0.296007 -0.275046
v -0.137101 0.300471 -0.250730
v -0.122604 0.303100 -0.230879
v -0.099148 0.302889 -0.223073
v -0.075693 0.299920 -0.230295
v -0.061196 0.295326 -0.249786
v -0.061196 0.290863 -0.274101
v -0.075693 0.288234 -0.293953
f 1 2 13
f 2 14 13
f 2 3 14
f 3 15 14
f 3 4 15
f 4 16 15
f 4 5 16
f 5 17 16
f 5 6 17
f 6 18 17
f 6 7 18
f 7 19 18
f 7 8 19
f 8 20 19
f 8 9 20
f 9 21 20
f 9 10 21
f 10 22 21
f 10 11 22
f 11 23 22
f 11 12 23
f 12 24 23
f 13 14 25
f 14 26 25
f 14 15 26
f 15 27 26
f 15 16 27
f 16 28 27
f 16 17 28
f 17 29 28
f 17 18 29
f 18 30 29
f 18 19 30
f 19 31 30
f 19 20 31
f 20 32 31
f 20 21 32
f 21 33 32
f 21 22 33
f 22 34 33
f 22 23 34
f 23 35 34
f 23 24 35
f 24 36 35
f 25 26 37
f 26 38 37
f 26 27 38
f 27 39 38
f 27 28 39
f 28 40 39
f 28 29 40
f 29 41 40
f 29 30 41
f 30 42 41
f 30 31 42
f 31 43 42
f 31 32 43
f 32 44 43
f 32 33 44
f 33 45 44
f 33 34 45
f 34 46 45
f 34 35 46
f 35 47 46
f 35 36 47
f 36 48 47
f 37 38 49
f 38 50 49
f 38 39 50
f 39 51 50
f 39 40 51
f 40 52 51
f 40 41 52
f 41 53 52
f 41 42 53
f 42 54 53
f 42 43 54
f 43 55 54
f 43 44 55
f 44 56 55
f 44 45 56
f 45 57 56
f 45 46 57
f 46 58 57
f 46 47 58
f 47 59 58
f 47 48 59
f 48 60 59
f 49 50 61
f 50 62 61
f 50 51 62
f 51 63 62
f 51 52 63
f 52 64 63
f 52 53 64
f 53 65 64
f 53 54 65
f 54 66 65
f 54 55 66
f 55 67 66
f 55 56 67
f 56 68 67
f 56 57 68
f 57 69 68
f 57 58 69
f 58 70 69
f 58 59 70
f 59 71 70
f 59 60 71
f 60 72 71
f 61 62 73
f 62 74 73
f 62 63 74
f 63 75 74
f 63 64 75
f 64 76 75
f 64 65 76
f 65 77 76
f 65 66 77
f 66 78 77
f 66 67 78
f 67 79 78
f 67 68 79
f 68 80 79
f 68 69 80
f 69 81 80
f 69 70 81
f 70 82 81
f 70 71 82
f 71 83 82
f 71 72 83
f 72 84 83
f 73 74 85
f 74 86 85
f 74 75 86
f 75 87 86
f 75 76 87
f 76 88 87
f 76 77 88
f 77 89 88
f 77 78 89
f 78 90 89
f 78 79 90
f 79 91 90
f 79 80 91
f 80 92 91
f 80 81 92
f 81 93 92
f 81 82 93
f 82 94 93
f 82 83 94
f 83 95 94
f 83 84 95
f 84 96 95
f 85 86 97
f 86 98 97
f 86 87 98
f 87 99 98
f 87 88 99
f 88 100 99
f 88 89 100
f 89 101 100
f 89 90 101
f 90 102 101
f 90 91 102
f 91 103 102
f 91 92 103
f 92 104 103
f 92 93 104
f 93 105 104
f 93 94 105
f 94 106 105
f 94 95 106
f 95 107 106
f 95 96 107
f 96 108 107
f 97 98 109
f 98 110 109
f 98 99 110
f 99 111 110
f 99 100 111
f 100 112 111
f 100 101 112
f 101 113 112
f 101 102 113
f 102 114 113
f 102 103 114
f 103 115 114
f 103 104 115
f 104 116 115
f 104 105 116
f 105 117 116
f 105 106 117
f 106 118 117
f 106 107 118
f 107 119 118
f 107 108 119
f 108 120 119
f 109 110 121
f 110 122 121
f 110 111 122
f 111 123 122
f 111 112 123
f 112 124 123
f 112 113 124
f 113 125 124
f 113 114 125
f 114 126 125
f 114 115 126
f 115 127 126
f 115 116 127
f 116 128 127
f 116 117 128
f 117 129 128
f 117 118 129
f 118 130 129
f 118 119 130
f 119 131 130
f 119 120 131
f 120 132 131
f 121 122 133
f 122 134 133
f 122 123 134
f 123 135 134
f 123 124 135
f 124 136 135
f 124 125 136
f 125 137 136
f 125 126 137
f 126 138 137
f 126 127 138
f 127 139 138
f 127 128 139
f 128 140 139
f 128 129 140
f 129 141 140
f 129 130 141
f 130 142 141
f 130 131 142
f 131 143 142
f 131 132 143
f 132 144 143
f 145 146 155
f 146 156 155
f 146 147 156
f 147 157 156
f 147 148 157
f 148 158 157
f 148 149 158
f 149 159 158
f 149 150 159
f 150 160 159
f 150 151 160
f 151 161 160
f 151 152 161
f 152 162 161
f 152 153 162
f 153 163 162
f 153 154 163
f 154 164 163
f 154 145 164
f 145 155 164
f 165 166 175
f 166 176 175
f 166 167 176
f 167 177 176
f 167 168 177
f 168 178 177
f 168 169 178
f 169 179 178
f 169 170 179
f 170 180 179
f 170 171 180
f 171 181 180
f 171 172 181
f 172 182 181
f 172 173 182
f 173 183 182
f 173 174 183
f 174 184 183
f 174 165 184
f 165 175 184
f 185 186 195
f 186 196 195
f 186 187 196
f 187 197 196
f 187 188 197
f 188 198 197
f 188 189 198
f 189 199 198
f 189 190 199
f 190 200 199
f 190 191 200
f 191 201 200
f 191 192 201
f 192 202 201
f 192 193 202
f 193 203 202
f 193 194 203
f 194 204 203
f 194 185 204
f 185 195 204
f 205 206 215
f 206 216 215
f 206 207 216
f 207 217 216
f 207 208 217
f 208 218 217
f 208 209 218
f 209 219 218
f 209 210 219
f 210 220 219
f 210 211 220
f 211 221 220
f 211 212 221
f 212 222 221
f 212 213 222
f 213 223 222
f 213 214 223
f 214 224 223
f 214 205 224
f 205 215 224
f 225 226 235
f 226 236 235
f 226 227 236
f 227 237 236
f 227 228 237
f 228 238 237
f 228 229 238
f 229 239 238
f 229 230 239
f 230 240 239
f 230 231 240
f 231 241 240
f 231 232 241
f 232 242 241
f 232 233 242
f 233 243 242
f 233 234 243
f 234 244 243
f 234 225 244
f 225 235 244
f 245 246 255
f 246 256 255
f 246 247 256
f 247 257 256
f 247 248 257
f 248 258 257
f 248 249 258
f 249 259 258
f 249 250 259
f 250 260 259
f 250 251 260
f 251 261 260
f 251 252 261
f 252 262 261
f 252 253 262
f 253 263 262
f 253 254 263
f 254 264 263
f 254 245 264
f 245 255 264
f 265 266 275
f 266 276 275
f 266 267 276
f 267 277 276
f 267 268 277
f 268 278 277
f 268 269 278
f 269 279 278
f 269 270 279
f 270 280 279
f 270 271 280
f 271 281 280
f 271 272 281
f 272 282 281
f 272 273 282
f 273 283 282
f 273 274 283
f 274 284 283
f 274 265 284
f 265 275 284
f 285 286 295
f 286 296 295
f 286 287 296
f 287 297 296
f 287 288 297
f 288 298 297
f 288 289 298
f 289 299 298
f 289 290 299
f 290 300 299
f 290 291 300
f 291 301 300
f 291 292 301
f 292 302 301
f 292 293 302
f 293 303 302
f 293 294 303
f 294 304 303
f 294 285 304
f 285 295 304
f 305 306 315
f 306 316 315
f 306 307 316
f 307 317 316
f 307 308 317
f 308 318 317
f 308 309 318
f 309 319 318
f 309 310 319
f 310 320 319
f 310 311 320
f 311 321 320
f 311 312 321
f 312 322 321
f 312 313 322
f 313 323 322
f 313 314 323
f 314 324 323
f 314 305 324
f 305 315 324
f 325 326 335
f 326 336 335
f 326 327 336
f 327 337 336
f 327 328 337
f 328 338 337
f 328 329 338
f 329 339 338
f 329 330 339
f 330 340 339
f 330 331 340
f 331 341 340
f 331 332 341
f 332 342 341
f 332 333 342
f 333 343 342
f 333 334 343
f 334 344 343
f 334 325 344
f 325 335 344
f 345 346 355
f 346 356 355
f 346 347 356
f 347 357 356
f 347 348 357
f 348 358 357
f 348 349 358
f 349 359 358
f 349 350 359
f 350 360 359
f 350 351 360
f 351 361 360
f 351 352 361
f 352 362 361
f 352 353 362
f 353 363 362
f 353 354 363
f 354 364 363
f 354 345 364
f 345 355 364
f 365 366 375
f 366 376 375
f 366 367 376
f 367 377 376
f 367 368 377
f 368 378 377
f 368 369 378
f 369 379 378
f 369 370 379
f 370 380 379
f 370 371 380
f 371 381 380
f 371 372 381
f 372 382 381
f 372 373 382
f 373 383 382
f 373 374 383
f 374 384 383
f 374 365 384
f 365 375 384
