# Full-Body 3D Mesh - Frame 98
v 0.003700 -0.646430 -0.124677
v 0.037508 -0.646430 -0.129538
v 0.068577 -0.646430 -0.143727
v 0.094390 -0.646430 -0.166094
v 0.112856 -0.646430 -0.194827
v 0.122479 -0.646430 -0.227599
v 0.122479 -0.646430 -0.261755
v 0.112856 -0.646430 -0.294527
v 0.094390 -0.646430 -0.323261
v 0.068577 -0.646430 -0.345628
v 0.037508 -0.646430 -0.359816
v 0.003700 -0.646430 -0.364677
v 0.003700 -0.646430 -0.124677
v 0.032141 -0.628152 -0.129538
v 0.058278 -0.611355 -0.143727
v 0.079993 -0.597400 -0.166094
v 0.095528 -0.587416 -0.194827
v 0.103623 -0.582214 -0.227599
v 0.103623 -0.582214 -0.261755
v 0.095528 -0.587416 -0.294527
v 0.079993 -0.597400 -0.323261
v 0.058278 -0.611355 -0.345628
v 0.032141 -0.628152 -0.359816
v 0.003700 -0.646430 -0.364677
v 0.003700 -0.646430 -0.124677
v 0.017745 -0.615677 -0.129538
v 0.030651 -0.587416 -0.143727
v 0.041374 -0.563936 -0.166094
v 0.049045 -0.547139 -0.194827
v 0.053043 -0.538385 -0.227599
v 0.053043 -0.538385 -0.261755
v 0.049045 -0.547139 -0.294527
v 0.041374 -0.563936 -0.323261
v 0.030651 -0.587416 -0.345628
v 0.017745 -0.615677 -0.359816
v 0.003700 -0.646430 -0.364677
v 0.003700 -0.646430 -0.124677
v -0.001111 -0.612966 -0.129538
v -0.005533 -0.582214 -0.143727
v -0.009206 -0.556663 -0.166094
v -0.011834 -0.538385 -0.194827
v -0.013204 -0.528861 -0.227599
v -0.013204 -0.528861 -0.261755
v -0.011834 -0.538385 -0.294527
v -0.009206 -0.556663 -0.323261
v -0.005533 -0.582214 -0.345628
v -0.001111 -0.612966 -0.359816
v 0.003700 -0.646430 -0.364677
v 0.003700 -0.646430 -0.124677
v -0.018439 -0.620880 -0.129538
v -0.038785 -0.597400 -0.143727
v -0.055689 -0.577891 -0.166094
v -0.067782 -0.563936 -0.194827
v -0.074083 -0.556663 -0.227599
v -0.074083 -0.556663 -0.261755
v -0.067782 -0.563936 -0.294527
v -0.055689 -0.577891 -0.323261
v -0.038785 -0.597400 -0.345628
v -0.018439 -0.620880 -0.359816
v 0.003700 -0.646430 -0.364677
v 0.003700 -0.646430 -0.124677
v -0.028738 -0.636905 -0.129538
v -0.058549 -0.628152 -0.143727
v -0.083316 -0.620880 -0.166094
v -0.101034 -0.615677 -0.194827
v -0.110267 -0.612966 -0.227599
v -0.110267 -0.612966 -0.261755
v -0.101034 -0.615677 -0.294527
v -0.083316 -0.620880 -0.323261
v -0.058549 -0.628152 -0.345628
v -0.028738 -0.636905 -0.359816
v 0.003700 -0.646430 -0.364677
v 0.003700 -0.646430 -0.124677
v -0.028738 -0.655955 -0.129538
v -0.058549 -0.664708 -0.143727
v -0.083316 -0.671981 -0.166094
v -0.101034 -0.677183 -0.194827
v -0.110267 -0.679894 -0.227599
v -0.110267 -0.679894 -0.261755
v -0.101034 -0.677183 -0.294527
v -0.083316 -0.671981 -0.323261
v -0.058549 -0.664708 -0.345628
v -0.028738 -0.655955 -0.359816
v 0.003700 -0.646430 -0.364677
v 0.003700 -0.646430 -0.124677
v -0.018439 -0.671981 -0.129538
v -0.038785 -0.695461 -0.143727
v -0.055689 -0.714969 -0.166094
v -0.067782 -0.728925 -0.194827
v -0.074083 -0.736197 -0.227599
v -0.074083 -0.736197 -0.261755
v -0.067782 -0.728925 -0.294527
v -0.055689 -0.714969 -0.323261
v -0.038785 -0.695461 -0.345628
v -0.018439 -0.671981 -0.359816
v 0.003700 -0.646430 -0.364677
v 0.003700 -0.646430 -0.124677
v -0.001111 -0.679894 -0.129538
v -0.005533 -0.710647 -0.143727
v -0.009206 -0.736197 -0.166094
v -0.011834 -0.754475 -0.194827
v -0.013204 -0.764000 -0.227599
v -0.013204 -0.764000 -0.261755
v -0.011834 -0.754475 -0.294527
v -0.009206 -0.736197 -0.323261
v -0.005533 -0.710647 -0.345628
v -0.001111 -0.679894 -0.359816
v 0.003700 -0.646430 -0.364677
v 0.003700 -0.646430 -0.124677
v 0.017745 -0.677183 -0.129538
v 0.030651 -0.705444 -0.143727
v 0.041374 -0.728925 -0.166094
v 0.049045 -0.745722 -0.194827
v 0.053043 -0.754475 -0.227599
v 0.053043 -0.754475 -0.261755
v 0.049045 -0.745722 -0.294527
v 0.041374 -0.728925 -0.323261
v 0.030651 -0.705444 -0.345628
v 0.017745 -0.677183 -0.359816
v 0.003700 -0.646430 -0.364677
v 0.003700 -0.646430 -0.124677
v 0.032141 -0.664708 -0.129538
v 0.058278 -0.681505 -0.143727
v 0.079993 -0.695461 -0.166094
v 0.095528 -0.705444 -0.194827
v 0.103623 -0.710647 -0.227599
v 0.103623 -0.710647 -0.261755
v 0.095528 -0.705444 -0.294527
v 0.079993 -0.695461 -0.323261
v 0.058278 -0.681505 -0.345628
v 0.032141 -0.664708 -0.359816
v 0.003700 -0.646430 -0.364677
v 0.003700 -0.646430 -0.124677
v 0.037508 -0.646430 -0.129538
v 0.068577 -0.646430 -0.143727
v 0.094390 -0.646430 -0.166094
v 0.112856 -0.646430 -0.194827
v 0.122479 -0.646430 -0.227599
v 0.122479 -0.646430 -0.261755
v 0.112856 -0.646430 -0.294527
v 0.094390 -0.646430 -0.323261
v 0.068577 -0.646430 -0.345628
v 0.037508 -0.646430 -0.359816
v 0.003700 -0.646430 -0.364677
v 0.167670 -0.457439 -0.100845
v 0.166758 -0.480937 -0.093219
v 0.165945 -0.495460 -0.073230
v 0.165540 -0.495460 -0.048512
v 0.165699 -0.480937 -0.028507
v 0.166361 -0.457439 -0.020855
v 0.167273 -0.433941 -0.028481
v 0.168087 -0.419418 -0.048470
v 0.168491 -0.419418 -0.073188
v 0.168332 -0.433941 -0.093194
v -0.162247 -0.446388 -0.106244
v -0.163159 -0.469886 -0.098618
v -0.163972 -0.484409 -0.078629
v -0.164377 -0.484409 -0.053911
v -0.164218 -0.469886 -0.033905
v -0.163556 -0.446388 -0.026254
v -0.162644 -0.422889 -0.033880
v -0.161830 -0.408367 -0.053869
v -0.161426 -0.408367 -0.078587
v -0.161585 -0.422889 -0.098592
v 0.167016 -0.460463 -0.100736
v 0.143790 -0.456244 -0.093394
v 0.129435 -0.452482 -0.073622
v 0.129435 -0.450612 -0.048972
v 0.143790 -0.451351 -0.028858
v 0.167016 -0.454415 -0.020965
v 0.190242 -0.458634 -0.028306
v 0.204596 -0.462397 -0.048078
v 0.204596 -0.464266 -0.072729
v 0.190242 -0.463527 -0.092842
v 0.204716 -0.221380 -0.118864
v 0.181490 -0.217161 -0.111523
v 0.167135 -0.213398 -0.091751
v 0.167135 -0.211529 -0.067100
v 0.181490 -0.212268 -0.046987
v 0.204716 -0.215331 -0.039093
v 0.227942 -0.219551 -0.046434
v 0.242297 -0.223313 -0.066207
v 0.242297 -0.225182 -0.090857
v 0.227942 -0.224444 -0.110971
v 0.204716 -0.240955 -0.111983
v 0.181246 -0.237787 -0.104894
v 0.166740 -0.227196 -0.087906
v 0.166740 -0.213229 -0.067508
v 0.181246 -0.201220 -0.051492
v 0.204716 -0.195757 -0.045974
v 0.228186 -0.198925 -0.053064
v 0.242692 -0.209515 -0.070051
v 0.242692 -0.223482 -0.090449
v 0.228186 -0.235491 -0.106465
v 0.193290 -0.081880 -0.220908
v 0.169820 -0.078712 -0.213818
v 0.155315 -0.068121 -0.196831
v 0.155315 -0.054154 -0.176433
v 0.169820 -0.042145 -0.160417
v 0.193290 -0.036682 -0.154899
v 0.216761 -0.039850 -0.161988
v 0.231266 -0.050440 -0.178976
v 0.231266 -0.064407 -0.199374
v 0.216761 -0.076416 -0.215390
v -0.162901 -0.459831 -0.103922
v -0.185629 -0.462935 -0.094703
v -0.199675 -0.459718 -0.074616
v -0.199675 -0.451410 -0.051333
v -0.185629 -0.441183 -0.033747
v -0.162901 -0.432944 -0.028576
v -0.140174 -0.429841 -0.037794
v -0.126128 -0.433057 -0.057882
v -0.126128 -0.441366 -0.081165
v -0.140174 -0.451593 -0.098751
v -0.231674 -0.215355 -0.191162
v -0.254402 -0.218459 -0.181943
v -0.268448 -0.215242 -0.161856
v -0.268448 -0.206934 -0.138573
v -0.254402 -0.196707 -0.120987
v -0.231674 -0.188468 -0.115816
v -0.208947 -0.185364 -0.125034
v -0.194901 -0.188581 -0.145122
v -0.194901 -0.196890 -0.168405
v -0.208947 -0.207116 -0.185991
v -0.231674 -0.240067 -0.141482
v -0.254694 -0.234216 -0.148340
v -0.268920 -0.216027 -0.157164
v -0.268920 -0.192445 -0.164585
v -0.254694 -0.172480 -0.167767
v -0.231674 -0.163756 -0.165496
v -0.208655 -0.169607 -0.158638
v -0.194428 -0.187797 -0.149813
v -0.194428 -0.211378 -0.142393
v -0.208655 -0.231344 -0.139210
v -0.179657 -0.315178 -0.380162
v -0.202676 -0.309327 -0.387020
v -0.216903 -0.291137 -0.395845
v -0.216903 -0.267556 -0.403266
v -0.202676 -0.247590 -0.406448
v -0.179657 -0.238867 -0.404177
v -0.156638 -0.244717 -0.397319
v -0.142411 -0.262907 -0.388494
v -0.142411 -0.286489 -0.381073
v -0.156638 -0.306454 -0.377891
v 0.167016 -0.451578 -0.100418
v 0.143581 -0.454580 -0.093140
v 0.129098 -0.458674 -0.073529
v 0.129098 -0.462297 -0.049074
v 0.143581 -0.464064 -0.029118
v 0.167016 -0.463300 -0.021282
v 0.190450 -0.460298 -0.028560
v 0.204933 -0.456204 -0.048172
v 0.204933 -0.452582 -0.072626
v 0.190450 -0.450815 -0.092583
v 0.129327 0.007451 -0.032423
v 0.105893 0.004449 -0.025145
v 0.091410 0.000355 -0.005534
v 0.091410 -0.003267 0.018921
v 0.105893 -0.005034 0.038877
v 0.129327 -0.004271 0.046713
v 0.152761 -0.001269 0.039435
v 0.167244 0.002826 0.019823
v 0.167244 0.006448 -0.004631
v 0.152761 0.008215 -0.024588
v -0.162901 -0.440707 -0.105844
v -0.186338 -0.439940 -0.098016
v -0.200823 -0.441636 -0.078054
v -0.200823 -0.445147 -0.053584
v -0.186338 -0.449132 -0.033951
v -0.162901 -0.452068 -0.026654
v -0.139464 -0.452835 -0.034482
v -0.124980 -0.451139 -0.054443
v -0.124980 -0.447628 -0.078914
v -0.139464 -0.443644 -0.098547
v -0.128422 -0.013084 -0.044493
v -0.151859 -0.012317 -0.036665
v -0.166344 -0.014013 -0.016703
v -0.166344 -0.017524 0.007767
v -0.151859 -0.021509 0.027400
v -0.128422 -0.024445 0.034697
v -0.104985 -0.025212 0.026869
v -0.090500 -0.023516 0.006908
v -0.090500 -0.020005 -0.017563
v -0.104985 -0.016020 -0.037196
v 0.131194 0.001590 -0.032812
v 0.132684 -0.021848 -0.025094
v 0.132892 -0.036334 -0.005063
v 0.131738 -0.036334 0.019632
v 0.129664 -0.021848 0.039557
v 0.127460 0.001590 0.047101
v 0.125970 0.025029 0.039384
v 0.125762 0.039515 0.019352
v 0.126915 0.039515 -0.005342
v 0.128990 0.025029 -0.025267
v -0.126555 -0.018765 -0.044854
v -0.125065 -0.042203 -0.037137
v -0.124857 -0.056689 -0.017106
v -0.126010 -0.056689 0.007589
v -0.128085 -0.042203 0.027514
v -0.130289 -0.018765 0.035058
v -0.131779 0.004674 0.027341
v -0.131987 0.019160 0.007310
v -0.130834 0.019160 -0.017385
v -0.128759 0.004674 -0.037310
v 0.129327 -0.014840 -0.029325
v 0.105856 -0.012952 -0.021797
v 0.091349 -0.005509 -0.003214
v 0.091349 0.004645 0.019326
v 0.105856 0.013633 0.037213
v 0.129327 0.018020 0.043615
v 0.152798 0.016133 0.036086
v 0.167304 0.008690 0.017504
v 0.167304 -0.001464 -0.005036
v 0.152798 -0.010452 -0.022923
v 0.120062 0.129786 -0.094481
v 0.096590 0.131674 -0.086952
v 0.082084 0.139117 -0.068369
v 0.082084 0.149271 -0.045830
v 0.096590 0.158259 -0.027943
v 0.120062 0.162646 -0.021541
v 0.143533 0.160758 -0.029069
v 0.158039 0.153316 -0.047652
v 0.158039 0.143162 -0.070192
v 0.143533 0.134174 -0.088079
v 0.120062 0.166430 -0.092528
v 0.096675 0.164656 -0.084714
v 0.082221 0.155839 -0.066700
v 0.082221 0.143346 -0.045368
v 0.096675 0.131949 -0.028864
v 0.120062 0.126003 -0.023494
v 0.143448 0.127777 -0.031308
v 0.157902 0.136594 -0.049322
v 0.157902 0.149087 -0.070654
v 0.143448 0.160483 -0.087157
v 0.154928 0.457443 0.077896
v 0.131541 0.455669 0.085710
v 0.117087 0.446852 0.103724
v 0.117087 0.434359 0.125056
v 0.131541 0.422962 0.141560
v 0.154928 0.417016 0.146930
v 0.178315 0.418790 0.139116
v 0.192769 0.427607 0.121102
v 0.192769 0.440100 0.099770
v 0.178315 0.451496 0.083267
v -0.128422 -0.058761 -0.005447
v -0.151927 -0.051130 -0.004783
v -0.166454 -0.031137 -0.004163
v -0.166454 -0.006418 -0.003824
v -0.151927 0.013585 -0.003895
v -0.128422 0.021232 -0.004349
v -0.104917 0.013601 -0.005012
v -0.090391 -0.006393 -0.005633
v -0.090391 -0.031112 -0.005972
v -0.104917 -0.051115 -0.005901
v -0.132762 -0.056254 -0.187928
v -0.156267 -0.048623 -0.187264
v -0.170794 -0.028630 -0.186644
v -0.170794 -0.003911 -0.186304
v -0.156267 0.016092 -0.186375
v -0.132762 0.023738 -0.186829
v -0.109258 0.016107 -0.187493
v -0.094731 -0.003886 -0.188113
v -0.094731 -0.028605 -0.188452
v -0.109258 -0.048608 -0.188382
v -0.132762 -0.019700 -0.227230
v -0.156068 -0.015953 -0.219886
v -0.170472 -0.012323 -0.200125
v -0.170472 -0.010195 -0.175495
v -0.156068 -0.010384 -0.155404
v -0.132762 -0.012816 -0.147526
v -0.109456 -0.016563 -0.154871
v -0.095052 -0.020193 -0.174632
v -0.095052 -0.022321 -0.199261
v -0.109456 -0.022132 -0.219352
v -0.093018 0.277889 -0.252931
v -0.116324 0.281636 -0.245587
v -0.130728 0.285266 -0.225826
v -0.130728 0.287393 -0.201196
v -0.116324 0.287205 -0.181106
v -0.093018 0.284773 -0.173228
v -0.069712 0.281026 -0.180572
v -0.055308 0.277395 -0.200333
v -0.055308 0.275268 -0.224963
v -0.069712 0.275457 -0.245053
f 1 2 13
f 2 14 13
f 2 3 14
f 3 15 14
f 3 4 15
f 4 16 15
f 4 5 16
f 5 17 16
f 5 6 17
f 6 18 17
f 6 7 18
f 7 19 18
f 7 8 19
f 8 20 19
f 8 9 20
f 9 21 20
f 9 10 21
f 10 22 21
f 10 11 22
f 11 23 22
f 11 12 23
f 12 24 23
f 13 14 25
f 14 26 25
f 14 15 26
f 15 27 26
f 15 16 27
f 16 28 27
f 16 17 28
f 17 29 28
f 17 18 29
f 18 30 29
f 18 19 30
f 19 31 30
f 19 20 31
f 20 32 31
f 20 21 32
f 21 33 32
f 21 22 33
f 22 34 33
f 22 23 34
f 23 35 34
f 23 24 35
f 24 36 35
f 25 26 37
f 26 38 37
f 26 27 38
f 27 39 38
f 27 28 39
f 28 40 39
f 28 29 40
f 29 41 40
f 29 30 41
f 30 42 41
f 30 31 42
f 31 43 42
f 31 32 43
f 32 44 43
f 32 33 44
f 33 45 44
f 33 34 45
f 34 46 45
f 34 35 46
f 35 47 46
f 35 36 47
f 36 48 47
f 37 38 49
f 38 50 49
f 38 39 50
f 39 51 50
f 39 40 51
f 40 52 51
f 40 41 52
f 41 53 52
f 41 42 53
f 42 54 53
f 42 43 54
f 43 55 54
f 43 44 55
f 44 56 55
f 44 45 56
f 45 57 56
f 45 46 57
f 46 58 57
f 46 47 58
f 47 59 58
f 47 48 59
f 48 60 59
f 49 50 61
f 50 62 61
f 50 51 62
f 51 63 62
f 51 52 63
f 52 64 63
f 52 53 64
f 53 65 64
f 53 54 65
f 54 66 65
f 54 55 66
f 55 67 66
f 55 56 67
f 56 68 67
f 56 57 68
f 57 69 68
f 57 58 69
f 58 70 69
f 58 59 70
f 59 71 70
f 59 60 71
f 60 72 71
f 61 62 73
f 62 74 73
f 62 63 74
f 63 75 74
f 63 64 75
f 64 76 75
f 64 65 76
f 65 77 76
f 65 66 77
f 66 78 77
f 66 67 78
f 67 79 78
f 67 68 79
f 68 80 79
f 68 69 80
f 69 81 80
f 69 70 81
f 70 82 81
f 70 71 82
f 71 83 82
f 71 72 83
f 72 84 83
f 73 74 85
f 74 86 85
f 74 75 86
f 75 87 86
f 75 76 87
f 76 88 87
f 76 77 88
f 77 89 88
f 77 78 89
f 78 90 89
f 78 79 90
f 79 91 90
f 79 80 91
f 80 92 91
f 80 81 92
f 81 93 92
f 81 82 93
f 82 94 93
f 82 83 94
f 83 95 94
f 83 84 95
f 84 96 95
f 85 86 97
f 86 98 97
f 86 87 98
f 87 99 98
f 87 88 99
f 88 100 99
f 88 89 100
f 89 101 100
f 89 90 101
f 90 102 101
f 90 91 102
f 91 103 102
f 91 92 103
f 92 104 103
f 92 93 104
f 93 105 104
f 93 94 105
f 94 106 105
f 94 95 106
f 95 107 106
f 95 96 107
f 96 108 107
f 97 98 109
f 98 110 109
f 98 99 110
f 99 111 110
f 99 100 111
f 100 112 111
f 100 101 112
f 101 113 112
f 101 102 113
f 102 114 113
f 102 103 114
f 103 115 114
f 103 104 115
f 104 116 115
f 104 105 116
f 105 117 116
f 105 106 117
f 106 118 117
f 106 107 118
f 107 119 118
f 107 108 119
f 108 120 119
f 109 110 121
f 110 122 121
f 110 111 122
f 111 123 122
f 111 112 123
f 112 124 123
f 112 113 124
f 113 125 124
f 113 114 125
f 114 126 125
f 114 115 126
f 115 127 126
f 115 116 127
f 116 128 127
f 116 117 128
f 117 129 128
f 117 118 129
f 118 130 129
f 118 119 130
f 119 131 130
f 119 120 131
f 120 132 131
f 121 122 133
f 122 134 133
f 122 123 134
f 123 135 134
f 123 124 135
f 124 136 135
f 124 125 136
f 125 137 136
f 125 126 137
f 126 138 137
f 126 127 138
f 127 139 138
f 127 128 139
f 128 140 139
f 128 129 140
f 129 141 140
f 129 130 141
f 130 142 141
f 130 131 142
f 131 143 142
f 131 132 143
f 132 144 143
f 145 146 155
f 146 156 155
f 146 147 156
f 147 157 156
f 147 148 157
f 148 158 157
f 148 149 158
f 149 159 158
f 149 150 159
f 150 160 159
f 150 151 160
f 151 161 160
f 151 152 161
f 152 162 161
f 152 153 162
f 153 163 162
f 153 154 163
f 154 164 163
f 154 145 164
f 145 155 164
f 165 166 175
f 166 176 175
f 166 167 176
f 167 177 176
f 167 168 177
f 168 178 177
f 168 169 178
f 169 179 178
f 169 170 179
f 170 180 179
f 170 171 180
f 171 181 180
f 171 172 181
f 172 182 181
f 172 173 182
f 173 183 182
f 173 174 183
f 174 184 183
f 174 165 184
f 165 175 184
f 185 186 195
f 186 196 195
f 186 187 196
f 187 197 196
f 187 188 197
f 188 198 197
f 188 189 198
f 189 199 198
f 189 190 199
f 190 200 199
f 190 191 200
f 191 201 200
f 191 192 201
f 192 202 201
f 192 193 202
f 193 203 202
f 193 194 203
f 194 204 203
f 194 185 204
f 185 195 204
f 205 206 215
f 206 216 215
f 206 207 216
f 207 217 216
f 207 208 217
f 208 218 217
f 208 209 218
f 209 219 218
f 209 210 219
f 210 220 219
f 210 211 220
f 211 221 220
f 211 212 221
f 212 222 221
f 212 213 222
f 213 223 222
f 213 214 223
f 214 224 223
f 214 205 224
f 205 215 224
f 225 226 235
f 226 236 235
f 226 227 236
f 227 237 236
f 227 228 237
f 228 238 237
f 228 229 238
f 229 239 238
f 229 230 239
f 230 240 239
f 230 231 240
f 231 241 240
f 231 232 241
f 232 242 241
f 232 233 242
f 233 243 242
f 233 234 243
f 234 244 243
f 234 225 244
f 225 235 244
f 245 246 255
f 246 256 255
f 246 247 256
f 247 257 256
f 247 248 257
f 248 258 257
f 248 249 258
f 249 259 258
f 249 250 259
f 250 260 259
f 250 251 260
f 251 261 260
f 251 252 261
f 252 262 261
f 252 253 262
f 253 263 262
f 253 254 263
f 254 264 263
f 254 245 264
f 245 255 264
f 265 266 275
f 266 276 275
f 266 267 276
f 267 277 276
f 267 268 277
f 268 278 277
f 268 269 278
f 269 279 278
f 269 270 279
f 270 280 279
f 270 271 280
f 271 281 280
f 271 272 281
f 272 282 281
f 272 273 282
f 273 283 282
f 273 274 283
f 274 284 283
f 274 265 284
f 265 275 284
f 285 286 295
f 286 296 295
f 286 287 296
f 287 297 296
f 287 288 297
f 288 298 297
f 288 289 298
f 289 299 298
f 289 290 299
f 290 300 299
f 290 291 300
f 291 301 300
f 291 292 301
f 292 302 301
f 292 293 302
f 293 303 302
f 293 294 303
f 294 304 303
f 294 285 304
f 285 295 304
f 305 306 315
f 306 316 315
f 306 307 316
f 307 317 316
f 307 308 317
f 308 318 317
f 308 309 318
f 309 319 318
f 309 310 319
f 310 320 319
f 310 311 320
f 311 321 320
f 311 312 321
f 312 322 321
f 312 313 322
f 313 323 322
f 313 314 323
f 314 324 323
f 314 305 324
f 305 315 324
f 325 326 335
f 326 336 335
f 326 327 336
f 327 337 336
f 327 328 337
f 328 338 337
f 328 329 338
f 329 339 338
f 329 330 339
f 330 340 339
f 330 331 340
f 331 341 340
f 331 332 341
f 332 342 341
f 332 333 342
f 333 343 342
f 333 334 343
f 334 344 343
f 334 325 344
f 325 335 344
f 345 346 355
f 346 356 355
f 346 347 356
f 347 357 356
f 347 348 357
f 348 358 357
f 348 349 358
f 349 359 358
f 349 350 359
f 350 360 359
f 350 351 360
f 351 361 360
f 351 352 361
f 352 362 361
f 352 353 362
f 353 363 362
f 353 354 363
f 354 364 363
f 354 345 364
f 345 355 364
f 365 366 375
f 366 376 375
f 366 367 376
f 367 377 376
f 367 368 377
f 368 378 377
f 368 369 378
f 369 379 378
f 369 370 379
f 370 380 379
f 370 371 380
f 371 381 380
f 371 372 381
f 372 382 381
f 372 373 382
f 373 383 382
f 373 374 383
f 374 384 383
f 374 365 384
f 365 375 384
