# Full-Body 3D Mesh - Frame 196
v 0.020431 -0.634200 -0.133703
v 0.054239 -0.634200 -0.138564
v 0.085308 -0.634200 -0.152753
v 0.111121 -0.634200 -0.175120
v 0.129587 -0.634200 -0.203853
v 0.139209 -0.634200 -0.236625
v 0.139209 -0.634200 -0.270781
v 0.129587 -0.634200 -0.303553
v 0.111121 -0.634200 -0.332286
v 0.085308 -0.634200 -0.354653
v 0.054239 -0.634200 -0.368842
v 0.020431 -0.634200 -0.373703
v 0.020431 -0.634200 -0.133703
v 0.048872 -0.615922 -0.138564
v 0.075009 -0.599124 -0.152753
v 0.096724 -0.585169 -0.175120
v 0.112259 -0.575185 -0.203853
v 0.120354 -0.569983 -0.236625
v 0.120354 -0.569983 -0.270781
v 0.112259 -0.575185 -0.303553
v 0.096724 -0.585169 -0.332286
v 0.075009 -0.599124 -0.354653
v 0.048872 -0.615922 -0.368842
v 0.020431 -0.634200 -0.373703
v 0.020431 -0.634200 -0.133703
v 0.034475 -0.603447 -0.138564
v 0.047382 -0.575185 -0.152753
v 0.058105 -0.551705 -0.175120
v 0.065776 -0.534908 -0.203853
v 0.069773 -0.526155 -0.236625
v 0.069773 -0.526155 -0.270781
v 0.065776 -0.534908 -0.303553
v 0.058105 -0.551705 -0.332286
v 0.047382 -0.575185 -0.354653
v 0.034475 -0.603447 -0.368842
v 0.020431 -0.634200 -0.373703
v 0.020431 -0.634200 -0.133703
v 0.015619 -0.600736 -0.138564
v 0.011198 -0.569983 -0.152753
v 0.007524 -0.544433 -0.175120
v 0.004896 -0.526155 -0.203853
v 0.003527 -0.516630 -0.236625
v 0.003527 -0.516630 -0.270781
v 0.004896 -0.526155 -0.303553
v 0.007524 -0.544433 -0.332286
v 0.011198 -0.569983 -0.354653
v 0.015619 -0.600736 -0.368842
v 0.020431 -0.634200 -0.373703
v 0.020431 -0.634200 -0.133703
v -0.001709 -0.608649 -0.138564
v -0.022054 -0.585169 -0.152753
v -0.038958 -0.565661 -0.175120
v -0.051051 -0.551705 -0.203853
v -0.057353 -0.544433 -0.236625
v -0.057353 -0.544433 -0.270781
v -0.051051 -0.551705 -0.303553
v -0.038958 -0.565661 -0.332286
v -0.022054 -0.585169 -0.354653
v -0.001709 -0.608649 -0.368842
v 0.020431 -0.634200 -0.373703
v 0.020431 -0.634200 -0.133703
v -0.012008 -0.624675 -0.138564
v -0.041818 -0.615922 -0.152753
v -0.066586 -0.608649 -0.175120
v -0.084303 -0.603447 -0.203853
v -0.093536 -0.600736 -0.236625
v -0.093536 -0.600736 -0.270781
v -0.084303 -0.603447 -0.303553
v -0.066586 -0.608649 -0.332286
v -0.041818 -0.615922 -0.354653
v -0.012008 -0.624675 -0.368842
v 0.020431 -0.634200 -0.373703
v 0.020431 -0.634200 -0.133703
v -0.012008 -0.643724 -0.138564
v -0.041818 -0.652477 -0.152753
v -0.066586 -0.659750 -0.175120
v -0.084303 -0.664952 -0.203853
v -0.093536 -0.667663 -0.236625
v -0.093536 -0.667663 -0.270781
v -0.084303 -0.664952 -0.303553
v -0.066586 -0.659750 -0.332286
v -0.041818 -0.652477 -0.354653
v -0.012008 -0.643724 -0.368842
v 0.020431 -0.634200 -0.373703
v 0.020431 -0.634200 -0.133703
v -0.001709 -0.659750 -0.138564
v -0.022054 -0.683230 -0.152753
v -0.038958 -0.702738 -0.175120
v -0.051051 -0.716694 -0.203853
v -0.057353 -0.723966 -0.236625
v -0.057353 -0.723966 -0.270781
v -0.051051 -0.716694 -0.303553
v -0.038958 -0.702738 -0.332286
v -0.022054 -0.683230 -0.354653
v -0.001709 -0.659750 -0.368842
v 0.020431 -0.634200 -0.373703
v 0.020431 -0.634200 -0.133703
v 0.015619 -0.667663 -0.138564
v 0.011198 -0.698416 -0.152753
v 0.007524 -0.723966 -0.175120
v 0.004896 -0.742244 -0.203853
v 0.003527 -0.751769 -0.236625
v 0.003527 -0.751769 -0.270781
v 0.004896 -0.742244 -0.303553
v 0.007524 -0.723966 -0.332286
v 0.011198 -0.698416 -0.354653
v 0.015619 -0.667663 -0.368842
v 0.020431 -0.634200 -0.373703
v 0.020431 -0.634200 -0.133703
v 0.034475 -0.664952 -0.138564
v 0.047382 -0.693214 -0.152753
v 0.058105 -0.716694 -0.175120
v 0.065776 -0.733491 -0.203853
v 0.069773 -0.742244 -0.236625
v 0.069773 -0.742244 -0.270781
v 0.065776 -0.733491 -0.303553
v 0.058105 -0.716694 -0.332286
v 0.047382 -0.693214 -0.354653
v 0.034475 -0.664952 -0.368842
v 0.020431 -0.634200 -0.373703
v 0.020431 -0.634200 -0.133703
v 0.048872 -0.652477 -0.138564
v 0.075009 -0.669275 -0.152753
v 0.096724 -0.683230 -0.175120
v 0.112259 -0.693214 -0.203853
v 0.120354 -0.698416 -0.236625
v 0.120354 -0.698416 -0.270781
v 0.112259 -0.693214 -0.303553
v 0.096724 -0.683230 -0.332286
v 0.075009 -0.669275 -0.354653
v 0.048872 -0.652477 -0.368842
v 0.020431 -0.634200 -0.373703
v 0.020431 -0.634200 -0.133703
v 0.054239 -0.634200 -0.138564
v 0.085308 -0.634200 -0.152753
v 0.111121 -0.634200 -0.175120
v 0.129587 -0.634200 -0.203853
v 0.139209 -0.634200 -0.236625
v 0.139209 -0.634200 -0.270781
v 0.129587 -0.634200 -0.303553
v 0.111121 -0.634200 -0.332286
v 0.085308 -0.634200 -0.354653
v 0.054239 -0.634200 -0.368842
v 0.020431 -0.634200 -0.373703
v 0.189955 -0.449235 -0.094870
v 0.191350 -0.472678 -0.087150
v 0.191436 -0.487167 -0.067119
v 0.190181 -0.487167 -0.042430
v 0.188063 -0.472678 -0.022512
v 0.185893 -0.449235 -0.014973
v 0.184498 -0.425791 -0.022693
v 0.184412 -0.411302 -0.042723
v 0.185667 -0.411302 -0.067413
v 0.187785 -0.425791 -0.087331
v -0.141027 -0.474467 -0.111698
v -0.139633 -0.497910 -0.103977
v -0.139547 -0.512399 -0.083947
v -0.140802 -0.512399 -0.059258
v -0.142919 -0.497910 -0.039340
v -0.145090 -0.474467 -0.031801
v -0.146484 -0.451023 -0.039521
v -0.146570 -0.436534 -0.059551
v -0.145315 -0.436534 -0.084241
v -0.143198 -0.451023 -0.104159
v 0.187924 -0.448869 -0.094920
v 0.164543 -0.446463 -0.087258
v 0.150093 -0.445116 -0.067245
v 0.150093 -0.445342 -0.042524
v 0.164543 -0.447055 -0.022539
v 0.187924 -0.449601 -0.014923
v 0.211305 -0.452006 -0.022585
v 0.225755 -0.453353 -0.042598
v 0.225755 -0.453127 -0.067318
v 0.211305 -0.451414 -0.087303
v 0.214058 -0.202057 -0.092662
v 0.190678 -0.199651 -0.085000
v 0.176228 -0.198304 -0.064987
v 0.176228 -0.198530 -0.040267
v 0.190678 -0.200243 -0.020281
v 0.214058 -0.202789 -0.012665
v 0.237439 -0.205194 -0.020327
v 0.251889 -0.206541 -0.040340
v 0.251889 -0.206315 -0.065060
v 0.237439 -0.204602 -0.085045
v 0.214058 -0.225637 -0.085238
v 0.190549 -0.220929 -0.079212
v 0.176020 -0.209152 -0.063046
v 0.176020 -0.194805 -0.042914
v 0.190549 -0.183368 -0.026506
v 0.214058 -0.179209 -0.020089
v 0.237567 -0.183917 -0.026114
v 0.252097 -0.195693 -0.042281
v 0.252097 -0.210041 -0.062413
v 0.237567 -0.221478 -0.078821
v 0.217374 -0.037351 -0.219420
v 0.193865 -0.032643 -0.213394
v 0.179335 -0.020866 -0.197228
v 0.179335 -0.006519 -0.177096
v 0.193865 0.004919 -0.160688
v 0.217374 0.009078 -0.154271
v 0.240883 0.004370 -0.160296
v 0.255412 -0.007407 -0.176463
v 0.255412 -0.021754 -0.196595
v 0.240883 -0.033192 -0.213003
v -0.143058 -0.477531 -0.111632
v -0.164157 -0.487289 -0.103220
v -0.177197 -0.492150 -0.082788
v -0.177197 -0.490256 -0.058139
v -0.164157 -0.482331 -0.038689
v -0.143058 -0.471402 -0.031867
v -0.121960 -0.461644 -0.040278
v -0.108920 -0.456783 -0.060711
v -0.108920 -0.458677 -0.085359
v -0.121960 -0.466602 -0.104810
v -0.254791 -0.250960 -0.129040
v -0.275889 -0.260719 -0.120629
v -0.288929 -0.265579 -0.100196
v -0.288929 -0.263685 -0.075548
v -0.275889 -0.255760 -0.056098
v -0.254791 -0.244831 -0.049275
v -0.233692 -0.235073 -0.057687
v -0.220652 -0.230212 -0.078120
v -0.220652 -0.232106 -0.102768
v -0.233692 -0.240031 -0.122218
v -0.254791 -0.276820 -0.116787
v -0.277789 -0.267922 -0.115043
v -0.292002 -0.251374 -0.103412
v -0.292002 -0.233497 -0.086336
v -0.277789 -0.221121 -0.070338
v -0.254791 -0.218971 -0.061529
v -0.231792 -0.227870 -0.063273
v -0.217579 -0.244417 -0.074904
v -0.217579 -0.262294 -0.091980
v -0.231792 -0.274671 -0.107978
v -0.213800 -0.143536 -0.256322
v -0.236798 -0.134638 -0.254578
v -0.251012 -0.118090 -0.242947
v -0.251012 -0.100213 -0.225871
v -0.236798 -0.087836 -0.209874
v -0.213800 -0.085687 -0.201064
v -0.190802 -0.094585 -0.202808
v -0.176588 -0.111133 -0.214439
v -0.176588 -0.129010 -0.231515
v -0.190802 -0.141386 -0.247513
v 0.187924 -0.444310 -0.094617
v 0.164610 -0.448264 -0.087410
v 0.150200 -0.452588 -0.067793
v 0.150200 -0.455632 -0.043259
v 0.164610 -0.456232 -0.023181
v 0.187924 -0.454159 -0.015226
v 0.211239 -0.450206 -0.022433
v 0.225648 -0.445881 -0.042050
v 0.225648 -0.442838 -0.066583
v 0.211239 -0.442238 -0.086662
v 0.127511 0.016061 -0.037503
v 0.104196 0.012107 -0.030296
v 0.089787 0.007782 -0.010679
v 0.089787 0.004739 0.013854
v 0.104196 0.004139 0.033933
v 0.127511 0.006211 0.041888
v 0.150825 0.010165 0.034681
v 0.165234 0.014490 0.015064
v 0.165234 0.017533 -0.009469
v 0.150825 0.018133 -0.029548
v -0.143058 -0.468034 -0.111229
v -0.166555 -0.468433 -0.103554
v -0.181076 -0.471137 -0.083730
v -0.181076 -0.475113 -0.059331
v -0.166555 -0.478841 -0.039675
v -0.143058 -0.480899 -0.032270
v -0.119562 -0.480500 -0.039945
v -0.105040 -0.477796 -0.059768
v -0.105040 -0.473820 -0.084168
v -0.119562 -0.470092 -0.103824
v -0.126848 -0.020480 -0.038307
v -0.150344 -0.020879 -0.030632
v -0.164866 -0.023583 -0.010809
v -0.164866 -0.027559 0.013590
v -0.150344 -0.031287 0.033247
v -0.126848 -0.033345 0.040651
v -0.103352 -0.032945 0.032976
v -0.088830 -0.030241 0.013153
v -0.088830 -0.026266 -0.011246
v -0.103352 -0.022537 -0.030903
v 0.127671 0.011136 -0.037807
v 0.131119 -0.012117 -0.030154
v 0.133188 -0.026488 -0.010146
v 0.133089 -0.026488 0.014576
v 0.130859 -0.012117 0.034567
v 0.127350 0.011136 0.042192
v 0.123903 0.034389 0.034539
v 0.121833 0.048760 0.014530
v 0.121932 0.048760 -0.010191
v 0.124162 0.034389 -0.030182
v -0.126688 -0.026912 -0.038828
v -0.123240 -0.050165 -0.031174
v -0.121171 -0.064536 -0.011166
v -0.121270 -0.064536 0.013555
v -0.123500 -0.050165 0.033546
v -0.127008 -0.026912 0.041172
v -0.130456 -0.003660 0.033518
v -0.132525 0.010711 0.013510
v -0.132426 0.010711 -0.011211
v -0.130196 -0.003660 -0.031202
v 0.127511 -0.006588 -0.033666
v 0.104165 -0.005705 -0.025582
v 0.089737 0.001611 -0.006888
v 0.089737 0.012566 0.015274
v 0.104165 0.022974 0.032439
v 0.127511 0.028860 0.038051
v 0.150856 0.027977 0.029966
v 0.165284 0.020660 0.011273
v 0.165284 0.009706 -0.010889
v 0.150856 -0.000702 -0.028054
v 0.106437 0.151473 -0.111792
v 0.083091 0.152356 -0.103707
v 0.068663 0.159672 -0.085014
v 0.068663 0.170627 -0.062852
v 0.083091 0.181035 -0.045686
v 0.106437 0.186921 -0.040074
v 0.129782 0.186038 -0.048159
v 0.144210 0.178721 -0.066853
v 0.144210 0.167767 -0.089015
v 0.129782 0.157359 -0.106180
v 0.106437 0.188120 -0.111174
v 0.083025 0.186412 -0.103420
v 0.068556 0.178129 -0.085167
v 0.068556 0.166434 -0.063387
v 0.083025 0.155795 -0.046399
v 0.106437 0.150274 -0.040692
v 0.129848 0.151982 -0.048446
v 0.144317 0.160265 -0.066700
v 0.144317 0.171960 -0.088480
v 0.129848 0.182599 -0.105467
v 0.136750 0.477067 0.043977
v 0.113338 0.475359 0.051731
v 0.098869 0.467076 0.069984
v 0.098869 0.455381 0.091765
v 0.113338 0.444742 0.108752
v 0.136750 0.439221 0.114459
v 0.160161 0.440929 0.106705
v 0.174631 0.449212 0.088452
v 0.174631 0.460907 0.066672
v 0.160161 0.471547 0.049684
v -0.126848 -0.063186 -0.015686
v -0.150240 -0.055263 -0.014609
v -0.164698 -0.036510 -0.007505
v -0.164698 -0.014092 0.002914
v -0.150240 0.003430 0.012667
v -0.126848 0.009362 0.018030
v -0.103456 0.001438 0.016953
v -0.088998 -0.017314 0.009849
v -0.088998 -0.039733 -0.000570
v -0.103456 -0.057255 -0.010323
v -0.113377 -0.006986 -0.136617
v -0.136769 0.000938 -0.135540
v -0.151227 0.019691 -0.128436
v -0.151227 0.042109 -0.118017
v -0.136769 0.059631 -0.108264
v -0.113377 0.065563 -0.102901
v -0.089985 0.057639 -0.103978
v -0.075527 0.038886 -0.111082
v -0.075527 0.016468 -0.121501
v -0.089985 -0.001054 -0.131254
v -0.113377 0.034173 -0.159460
v -0.136795 0.035321 -0.151622
v -0.151268 0.034164 -0.131613
v -0.151268 0.031145 -0.107077
v -0.136795 0.027417 -0.087385
v -0.113377 0.024403 -0.080059
v -0.089959 0.023256 -0.087897
v -0.075486 0.024413 -0.107905
v -0.075486 0.027432 -0.132441
v -0.089959 0.031160 -0.152134
v -0.086206 0.335457 -0.122388
v -0.109624 0.336605 -0.114550
v -0.124097 0.335448 -0.094541
v -0.124097 0.332429 -0.070005
v -0.109624 0.328701 -0.050313
v -0.086206 0.325687 -0.042987
v -0.062788 0.324540 -0.050825
v -0.048316 0.325697 -0.070833
v -0.048316 0.328716 -0.095370
v -0.062788 0.332444 -0.115062
f 1 2 13
f 2 14 13
f 2 3 14
f 3 15 14
f 3 4 15
f 4 16 15
f 4 5 16
f 5 17 16
f 5 6 17
f 6 18 17
f 6 7 18
f 7 19 18
f 7 8 19
f 8 20 19
f 8 9 20
f 9 21 20
f 9 10 21
f 10 22 21
f 10 11 22
f 11 23 22
f 11 12 23
f 12 24 23
f 13 14 25
f 14 26 25
f 14 15 26
f 15 27 26
f 15 16 27
f 16 28 27
f 16 17 28
f 17 29 28
f 17 18 29
f 18 30 29
f 18 19 30
f 19 31 30
f 19 20 31
f 20 32 31
f 20 21 32
f 21 33 32
f 21 22 33
f 22 34 33
f 22 23 34
f 23 35 34
f 23 24 35
f 24 36 35
f 25 26 37
f 26 38 37
f 26 27 38
f 27 39 38
f 27 28 39
f 28 40 39
f 28 29 40
f 29 41 40
f 29 30 41
f 30 42 41
f 30 31 42
f 31 43 42
f 31 32 43
f 32 44 43
f 32 33 44
f 33 45 44
f 33 34 45
f 34 46 45
f 34 35 46
f 35 47 46
f 35 36 47
f 36 48 47
f 37 38 49
f 38 50 49
f 38 39 50
f 39 51 50
f 39 40 51
f 40 52 51
f 40 41 52
f 41 53 52
f 41 42 53
f 42 54 53
f 42 43 54
f 43 55 54
f 43 44 55
f 44 56 55
f 44 45 56
f 45 57 56
f 45 46 57
f 46 58 57
f 46 47 58
f 47 59 58
f 47 48 59
f 48 60 59
f 49 50 61
f 50 62 61
f 50 51 62
f 51 63 62
f 51 52 63
f 52 64 63
f 52 53 64
f 53 65 64
f 53 54 65
f 54 66 65
f 54 55 66
f 55 67 66
f 55 56 67
f 56 68 67
f 56 57 68
f 57 69 68
f 57 58 69
f 58 70 69
f 58 59 70
f 59 71 70
f 59 60 71
f 60 72 71
f 61 62 73
f 62 74 73
f 62 63 74
f 63 75 74
f 63 64 75
f 64 76 75
f 64 65 76
f 65 77 76
f 65 66 77
f 66 78 77
f 66 67 78
f 67 79 78
f 67 68 79
f 68 80 79
f 68 69 80
f 69 81 80
f 69 70 81
f 70 82 81
f 70 71 82
f 71 83 82
f 71 72 83
f 72 84 83
f 73 74 85
f 74 86 85
f 74 75 86
f 75 87 86
f 75 76 87
f 76 88 87
f 76 77 88
f 77 89 88
f 77 78 89
f 78 90 89
f 78 79 90
f 79 91 90
f 79 80 91
f 80 92 91
f 80 81 92
f 81 93 92
f 81 82 93
f 82 94 93
f 82 83 94
f 83 95 94
f 83 84 95
f 84 96 95
f 85 86 97
f 86 98 97
f 86 87 98
f 87 99 98
f 87 88 99
f 88 100 99
f 88 89 100
f 89 101 100
f 89 90 101
f 90 102 101
f 90 91 102
f 91 103 102
f 91 92 103
f 92 104 103
f 92 93 104
f 93 105 104
f 93 94 105
f 94 106 105
f 94 95 106
f 95 107 106
f 95 96 107
f 96 108 107
f 97 98 109
f 98 110 109
f 98 99 110
f 99 111 110
f 99 100 111
f 100 112 111
f 100 101 112
f 101 113 112
f 101 102 113
f 102 114 113
f 102 103 114
f 103 115 114
f 103 104 115
f 104 116 115
f 104 105 116
f 105 117 116
f 105 106 117
f 106 118 117
f 106 107 118
f 107 119 118
f 107 108 119
f 108 120 119
f 109 110 121
f 110 122 121
f 110 111 122
f 111 123 122
f 111 112 123
f 112 124 123
f 112 113 124
f 113 125 124
f 113 114 125
f 114 126 125
f 114 115 126
f 115 127 126
f 115 116 127
f 116 128 127
f 116 117 128
f 117 129 128
f 117 118 129
f 118 130 129
f 118 119 130
f 119 131 130
f 119 120 131
f 120 132 131
f 121 122 133
f 122 134 133
f 122 123 134
f 123 135 134
f 123 124 135
f 124 136 135
f 124 125 136
f 125 137 136
f 125 126 137
f 126 138 137
f 126 127 138
f 127 139 138
f 127 128 139
f 128 140 139
f 128 129 140
f 129 141 140
f 129 130 141
f 130 142 141
f 130 131 142
f 131 143 142
f 131 132 143
f 132 144 143
f 145 146 155
f 146 156 155
f 146 147 156
f 147 157 156
f 147 148 157
f 148 158 157
f 148 149 158
f 149 159 158
f 149 150 159
f 150 160 159
f 150 151 160
f 151 161 160
f 151 152 161
f 152 162 161
f 152 153 162
f 153 163 162
f 153 154 163
f 154 164 163
f 154 145 164
f 145 155 164
f 165 166 175
f 166 176 175
f 166 167 176
f 167 177 176
f 167 168 177
f 168 178 177
f 168 169 178
f 169 179 178
f 169 170 179
f 170 180 179
f 170 171 180
f 171 181 180
f 171 172 181
f 172 182 181
f 172 173 182
f 173 183 182
f 173 174 183
f 174 184 183
f 174 165 184
f 165 175 184
f 185 186 195
f 186 196 195
f 186 187 196
f 187 197 196
f 187 188 197
f 188 198 197
f 188 189 198
f 189 199 198
f 189 190 199
f 190 200 199
f 190 191 200
f 191 201 200
f 191 192 201
f 192 202 201
f 192 193 202
f 193 203 202
f 193 194 203
f 194 204 203
f 194 185 204
f 185 195 204
f 205 206 215
f 206 216 215
f 206 207 216
f 207 217 216
f 207 208 217
f 208 218 217
f 208 209 218
f 209 219 218
f 209 210 219
f 210 220 219
f 210 211 220
f 211 221 220
f 211 212 221
f 212 222 221
f 212 213 222
f 213 223 222
f 213 214 223
f 214 224 223
f 214 205 224
f 205 215 224
f 225 226 235
f 226 236 235
f 226 227 236
f 227 237 236
f 227 228 237
f 228 238 237
f 228 229 238
f 229 239 238
f 229 230 239
f 230 240 239
f 230 231 240
f 231 241 240
f 231 232 241
f 232 242 241
f 232 233 242
f 233 243 242
f 233 234 243
f 234 244 243
f 234 225 244
f 225 235 244
f 245 246 255
f 246 256 255
f 246 247 256
f 247 257 256
f 247 248 257
f 248 258 257
f 248 249 258
f 249 259 258
f 249 250 259
f 250 260 259
f 250 251 260
f 251 261 260
f 251 252 261
f 252 262 261
f 252 253 262
f 253 263 262
f 253 254 263
f 254 264 263
f 254 245 264
f 245 255 264
f 265 266 275
f 266 276 275
f 266 267 276
f 267 277 276
f 267 268 277
f 268 278 277
f 268 269 278
f 269 279 278
f 269 270 279
f 270 280 279
f 270 271 280
f 271 281 280
f 271 272 281
f 272 282 281
f 272 273 282
f 273 283 282
f 273 274 283
f 274 284 283
f 274 265 284
f 265 275 284
f 285 286 295
f 286 296 295
f 286 287 296
f 287 297 296
f 287 288 297
f 288 298 297
f 288 289 298
f 289 299 298
f 289 290 299
f 290 300 299
f 290 291 300
f 291 301 300
f 291 292 301
f 292 302 301
f 292 293 302
f 293 303 302
f 293 294 303
f 294 304 303
f 294 285 304
f 285 295 304
f 305 306 315
f 306 316 315
f 306 307 316
f 307 317 316
f 307 308 317
f 308 318 317
f 308 309 318
f 309 319 318
f 309 310 319
f 310 320 319
f 310 311 320
f 311 321 320
f 311 312 321
f 312 322 321
f 312 313 322
f 313 323 322
f 313 314 323
f 314 324 323
f 314 305 324
f 305 315 324
f 325 326 335
f 326 336 335
f 326 327 336
f 327 337 336
f 327 328 337
f 328 338 337
f 328 329 338
f 329 339 338
f 329 330 339
f 330 340 339
f 330 331 340
f 331 341 340
f 331 332 341
f 332 342 341
f 332 333 342
f 333 343 342
f 333 334 343
f 334 344 343
f 334 325 344
f 325 335 344
f 345 346 355
f 346 356 355
f 346 347 356
f 347 357 356
f 347 348 357
f 348 358 357
f 348 349 358
f 349 359 358
f 349 350 359
f 350 360 359
f 350 351 360
f 351 361 360
f 351 352 361
f 352 362 361
f 352 353 362
f 353 363 362
f 353 354 363
f 354 364 363
f 354 345 364
f 345 355 364
f 365 366 375
f 366 376 375
f 366 367 376
f 367 377 376
f 367 368 377
f 368 378 377
f 368 369 378
f 369 379 378
f 369 370 379
f 370 380 379
f 370 371 380
f 371 381 380
f 371 372 381
f 372 382 381
f 372 373 382
f 373 383 382
f 373 374 383
f 374 384 383
f 374 365 384
f 365 375 384
