# Full-Body 3D Mesh - Frame 110
v 0.018174 -0.624105 -0.079905
v 0.051982 -0.624105 -0.084765
v 0.083051 -0.624105 -0.098954
v 0.108864 -0.624105 -0.121321
v 0.127330 -0.624105 -0.150055
v 0.136952 -0.624105 -0.182827
v 0.136952 -0.624105 -0.216982
v 0.127330 -0.624105 -0.249754
v 0.108864 -0.624105 -0.278488
v 0.083051 -0.624105 -0.300855
v 0.051982 -0.624105 -0.315044
v 0.018174 -0.624105 -0.319905
v 0.018174 -0.624105 -0.079905
v 0.046615 -0.605827 -0.084765
v 0.072752 -0.589030 -0.098954
v 0.094467 -0.575074 -0.121321
v 0.110001 -0.565091 -0.150055
v 0.118097 -0.559888 -0.182827
v 0.118097 -0.559888 -0.216982
v 0.110001 -0.565091 -0.249754
v 0.094467 -0.575074 -0.278488
v 0.072752 -0.589030 -0.300855
v 0.046615 -0.605827 -0.315044
v 0.018174 -0.624105 -0.319905
v 0.018174 -0.624105 -0.079905
v 0.032218 -0.593352 -0.084765
v 0.045125 -0.565091 -0.098954
v 0.055848 -0.541610 -0.121321
v 0.063519 -0.524813 -0.150055
v 0.067516 -0.516060 -0.182827
v 0.067516 -0.516060 -0.216982
v 0.063519 -0.524813 -0.249754
v 0.055848 -0.541610 -0.278488
v 0.045125 -0.565091 -0.300855
v 0.032218 -0.593352 -0.315044
v 0.018174 -0.624105 -0.319905
v 0.018174 -0.624105 -0.079905
v 0.013362 -0.590641 -0.084765
v 0.008941 -0.559888 -0.098954
v 0.005267 -0.534338 -0.121321
v 0.002639 -0.516060 -0.150055
v 0.001270 -0.506535 -0.182827
v 0.001270 -0.506535 -0.216982
v 0.002639 -0.516060 -0.249754
v 0.005267 -0.534338 -0.278488
v 0.008941 -0.559888 -0.300855
v 0.013362 -0.590641 -0.315044
v 0.018174 -0.624105 -0.319905
v 0.018174 -0.624105 -0.079905
v -0.003966 -0.598555 -0.084765
v -0.024312 -0.575074 -0.098954
v -0.041216 -0.555566 -0.121321
v -0.053308 -0.541610 -0.150055
v -0.059610 -0.534338 -0.182827
v -0.059610 -0.534338 -0.216982
v -0.053308 -0.541610 -0.249754
v -0.041216 -0.555566 -0.278488
v -0.024312 -0.575074 -0.300855
v -0.003966 -0.598555 -0.315044
v 0.018174 -0.624105 -0.319905
v 0.018174 -0.624105 -0.079905
v -0.014265 -0.614580 -0.084765
v -0.044075 -0.605827 -0.098954
v -0.068843 -0.598555 -0.121321
v -0.086561 -0.593352 -0.150055
v -0.095794 -0.590641 -0.182827
v -0.095794 -0.590641 -0.216982
v -0.086561 -0.593352 -0.249754
v -0.068843 -0.598555 -0.278488
v -0.044075 -0.605827 -0.300855
v -0.014265 -0.614580 -0.315044
v 0.018174 -0.624105 -0.319905
v 0.018174 -0.624105 -0.079905
v -0.014265 -0.633630 -0.084765
v -0.044075 -0.642383 -0.098954
v -0.068843 -0.649655 -0.121321
v -0.086561 -0.654858 -0.150055
v -0.095794 -0.657569 -0.182827
v -0.095794 -0.657569 -0.216982
v -0.086561 -0.654858 -0.249754
v -0.068843 -0.649655 -0.278488
v -0.044075 -0.642383 -0.300855
v -0.014265 -0.633630 -0.315044
v 0.018174 -0.624105 -0.319905
v 0.018174 -0.624105 -0.079905
v -0.003966 -0.649655 -0.084765
v -0.024312 -0.673136 -0.098954
v -0.041216 -0.692644 -0.121321
v -0.053308 -0.706599 -0.150055
v -0.059610 -0.713872 -0.182827
v -0.059610 -0.713872 -0.216982
v -0.053308 -0.706599 -0.249754
v -0.041216 -0.692644 -0.278488
v -0.024312 -0.673136 -0.300855
v -0.003966 -0.649655 -0.315044
v 0.018174 -0.624105 -0.319905
v 0.018174 -0.624105 -0.079905
v 0.013362 -0.657569 -0.084765
v 0.008941 -0.688322 -0.098954
v 0.005267 -0.713872 -0.121321
v 0.002639 -0.732150 -0.150055
v 0.001270 -0.741675 -0.182827
v 0.001270 -0.741675 -0.216982
v 0.002639 -0.732150 -0.249754
v 0.005267 -0.713872 -0.278488
v 0.008941 -0.688322 -0.300855
v 0.013362 -0.657569 -0.315044
v 0.018174 -0.624105 -0.319905
v 0.018174 -0.624105 -0.079905
v 0.032218 -0.654858 -0.084765
v 0.045125 -0.683119 -0.098954
v 0.055848 -0.706599 -0.121321
v 0.063519 -0.723397 -0.150055
v 0.067516 -0.732150 -0.182827
v 0.067516 -0.732150 -0.216982
v 0.063519 -0.723397 -0.249754
v 0.055848 -0.706599 -0.278488
v 0.045125 -0.683119 -0.300855
v 0.032218 -0.654858 -0.315044
v 0.018174 -0.624105 -0.319905
v 0.018174 -0.624105 -0.079905
v 0.046615 -0.642383 -0.084765
v 0.072752 -0.659180 -0.098954
v 0.094467 -0.673136 -0.121321
v 0.110001 -0.683119 -0.150055
v 0.118097 -0.688322 -0.182827
v 0.118097 -0.688322 -0.216982
v 0.110001 -0.683119 -0.249754
v 0.094467 -0.673136 -0.278488
v 0.072752 -0.659180 -0.300855
v 0.046615 -0.642383 -0.315044
v 0.018174 -0.624105 -0.319905
v 0.018174 -0.624105 -0.079905
v 0.051982 -0.624105 -0.084765
v 0.083051 -0.624105 -0.098954
v 0.108864 -0.624105 -0.121321
v 0.127330 -0.624105 -0.150055
v 0.136952 -0.624105 -0.182827
v 0.136952 -0.624105 -0.216982
v 0.127330 -0.624105 -0.249754
v 0.108864 -0.624105 -0.278488
v 0.083051 -0.624105 -0.300855
v 0.051982 -0.624105 -0.315044
v 0.018174 -0.624105 -0.319905
v 0.175948 -0.442170 -0.074851
v 0.176043 -0.465679 -0.067205
v 0.175646 -0.480209 -0.047208
v 0.174909 -0.480209 -0.022498
v 0.174113 -0.465679 -0.002513
v 0.173562 -0.442170 0.005113
v 0.173466 -0.418661 -0.002532
v 0.173863 -0.404131 -0.022529
v 0.174600 -0.404131 -0.047240
v 0.175397 -0.418661 -0.067225
v -0.152245 -0.446686 -0.084643
v -0.152150 -0.470195 -0.076997
v -0.152546 -0.484724 -0.057000
v -0.153284 -0.484724 -0.032290
v -0.154080 -0.470195 -0.012305
v -0.154631 -0.446686 -0.004678
v -0.154726 -0.423177 -0.012324
v -0.154330 -0.408647 -0.032321
v -0.153592 -0.408647 -0.057031
v -0.152796 -0.423177 -0.077016
v 0.174755 -0.448091 -0.074428
v 0.152065 -0.440868 -0.067785
v 0.138042 -0.434141 -0.048569
v 0.138042 -0.430482 -0.024120
v 0.152065 -0.431287 -0.003777
v 0.174755 -0.436249 0.004691
v 0.197445 -0.443472 -0.001953
v 0.211468 -0.450198 -0.021169
v 0.211468 -0.453858 -0.045618
v 0.197445 -0.453053 -0.065961
v 0.241204 -0.206053 -0.110657
v 0.218514 -0.198829 -0.104013
v 0.204491 -0.192103 -0.084797
v 0.204491 -0.188443 -0.060348
v 0.218514 -0.189248 -0.040005
v 0.241204 -0.194210 -0.031538
v 0.263894 -0.201434 -0.038181
v 0.277917 -0.208160 -0.057397
v 0.277917 -0.211819 -0.081846
v 0.263894 -0.211015 -0.102189
v 0.241204 -0.217647 -0.107058
v 0.217715 -0.213381 -0.100639
v 0.203198 -0.204054 -0.082936
v 0.203198 -0.193228 -0.060711
v 0.217715 -0.185040 -0.042453
v 0.241204 -0.182615 -0.035136
v 0.264693 -0.186882 -0.041556
v 0.279210 -0.196209 -0.059259
v 0.279210 -0.207034 -0.081484
v 0.264693 -0.215223 -0.099742
v 0.248615 -0.064880 -0.181469
v 0.225126 -0.060613 -0.175049
v 0.210609 -0.051286 -0.157346
v 0.210609 -0.040461 -0.135121
v 0.225126 -0.032272 -0.116863
v 0.248615 -0.029848 -0.109547
v 0.272104 -0.034114 -0.115966
v 0.286621 -0.043441 -0.133669
v 0.286621 -0.054267 -0.155895
v 0.272104 -0.062455 -0.174152
v -0.153438 -0.475160 -0.072753
v -0.172123 -0.479745 -0.057228
v -0.183670 -0.471703 -0.036903
v -0.183670 -0.454104 -0.019541
v -0.172123 -0.433672 -0.011774
v -0.153438 -0.418211 -0.016568
v -0.134753 -0.413626 -0.032093
v -0.123206 -0.421669 -0.052418
v -0.123206 -0.439267 -0.069780
v -0.134753 -0.459699 -0.077547
v -0.326130 -0.316372 -0.233702
v -0.344815 -0.320957 -0.218177
v -0.356362 -0.312914 -0.197852
v -0.356362 -0.295316 -0.180490
v -0.344815 -0.274884 -0.172722
v -0.326130 -0.259423 -0.177516
v -0.307445 -0.254838 -0.193041
v -0.295898 -0.262881 -0.213366
v -0.295898 -0.280479 -0.230728
v -0.307445 -0.300911 -0.238496
v -0.326130 -0.318069 -0.179347
v -0.346944 -0.319486 -0.192611
v -0.359807 -0.308838 -0.210840
v -0.359807 -0.290191 -0.227071
v -0.346944 -0.270668 -0.235104
v -0.326130 -0.257726 -0.231871
v -0.305317 -0.256309 -0.218607
v -0.292453 -0.266957 -0.200378
v -0.292453 -0.285604 -0.184147
v -0.305317 -0.305127 -0.176114
v -0.195652 -0.481117 -0.366664
v -0.216465 -0.482534 -0.379928
v -0.229328 -0.471886 -0.398157
v -0.229328 -0.453239 -0.414388
v -0.216465 -0.433716 -0.422421
v -0.195652 -0.420774 -0.419188
v -0.174838 -0.419357 -0.405924
v -0.161975 -0.430005 -0.387695
v -0.161975 -0.448652 -0.371465
v -0.174838 -0.468175 -0.363431
v 0.174755 -0.439191 -0.074758
v 0.151367 -0.442159 -0.067319
v 0.136912 -0.445131 -0.047485
v 0.136912 -0.446973 -0.022832
v 0.151367 -0.446979 -0.002777
v 0.174755 -0.445149 0.005020
v 0.198143 -0.442181 -0.002419
v 0.212597 -0.439208 -0.022252
v 0.212597 -0.437367 -0.046905
v 0.198143 -0.437360 -0.066960
v 0.128198 0.012110 -0.041052
v 0.104810 0.009142 -0.033613
v 0.090356 0.006169 -0.013779
v 0.090356 0.004328 0.010874
v 0.104810 0.004321 0.030929
v 0.128198 0.006152 0.038726
v 0.151586 0.009120 0.031287
v 0.166041 0.012092 0.011454
v 0.166041 0.013934 -0.013199
v 0.151586 0.013940 -0.033254
v -0.153438 -0.442147 -0.084402
v -0.176905 -0.441584 -0.076649
v -0.191409 -0.442969 -0.056677
v -0.191409 -0.445775 -0.032115
v -0.176905 -0.448928 -0.012346
v -0.153438 -0.451225 -0.004919
v -0.129971 -0.451788 -0.012672
v -0.115467 -0.450402 -0.032644
v -0.115467 -0.447597 -0.057206
v -0.129971 -0.444444 -0.076976
v -0.127276 -0.018340 -0.036001
v -0.150744 -0.017777 -0.028247
v -0.165247 -0.019163 -0.008276
v -0.165247 -0.021968 0.016286
v -0.150744 -0.025121 0.036056
v -0.127276 -0.027418 0.043483
v -0.103809 -0.027981 0.035729
v -0.089306 -0.026595 0.015758
v -0.089306 -0.023790 -0.008804
v -0.103809 -0.020637 -0.028574
v 0.127431 0.009131 -0.041155
v 0.130499 -0.014198 -0.033574
v 0.132689 -0.028616 -0.013612
v 0.133163 -0.028616 0.011105
v 0.131741 -0.014198 0.031136
v 0.128966 0.009131 0.038830
v 0.125898 0.032460 0.031248
v 0.123708 0.046878 0.011286
v 0.123233 0.046878 -0.013430
v 0.124655 0.032460 -0.033461
v -0.128044 -0.022879 -0.036252
v -0.124976 -0.046208 -0.028670
v -0.122786 -0.060626 -0.008708
v -0.122311 -0.060626 0.016009
v -0.123734 -0.046208 0.036040
v -0.126509 -0.022879 0.043734
v -0.129577 0.000450 0.036152
v -0.131767 0.014868 0.016190
v -0.132242 0.014868 -0.008527
v -0.130819 0.000450 -0.028558
v 0.128198 -0.006936 -0.037794
v 0.104783 -0.005812 -0.029945
v 0.090312 0.001020 -0.011103
v 0.090312 0.010950 0.011537
v 0.104783 0.020185 0.029325
v 0.128198 0.025198 0.035469
v 0.151614 0.024073 0.027620
v 0.166085 0.017242 0.008777
v 0.166085 0.007312 -0.013862
v 0.151614 -0.001923 -0.031651
v 0.116541 0.110813 -0.089440
v 0.093126 0.111937 -0.081592
v 0.078654 0.118769 -0.062749
v 0.078654 0.128699 -0.040110
v 0.093126 0.137934 -0.022321
v 0.116541 0.142947 -0.016178
v 0.139956 0.141822 -0.024026
v 0.154428 0.134991 -0.042869
v 0.154428 0.125061 -0.065508
v 0.139956 0.115826 -0.083297
v 0.116541 0.146401 -0.087722
v 0.093198 0.145126 -0.079683
v 0.078771 0.136881 -0.061379
v 0.078771 0.124816 -0.039801
v 0.093198 0.113539 -0.023192
v 0.116541 0.107358 -0.017896
v 0.139884 0.108634 -0.025935
v 0.154311 0.116879 -0.044239
v 0.154311 0.128944 -0.065817
v 0.139884 0.140220 -0.082425
v 0.161816 0.474650 0.095820
v 0.138473 0.473375 0.103859
v 0.124046 0.465130 0.122163
v 0.124046 0.453065 0.143741
v 0.138473 0.441788 0.160350
v 0.161816 0.435607 0.165646
v 0.185158 0.436883 0.157607
v 0.199585 0.445127 0.139303
v 0.199585 0.457193 0.117725
v 0.185158 0.468469 0.101117
v -0.127276 -0.061720 0.013299
v -0.150784 -0.054408 0.011042
v -0.165312 -0.035054 0.005996
v -0.165312 -0.011048 0.000088
v -0.150784 0.008438 -0.004424
v -0.127276 0.015962 -0.005817
v -0.103769 0.008651 -0.003560
v -0.089241 -0.010704 0.001486
v -0.089241 -0.034710 0.007394
v -0.103769 -0.054196 0.011906
v -0.122664 -0.119960 -0.223368
v -0.146171 -0.112648 -0.225625
v -0.160699 -0.093293 -0.230671
v -0.160699 -0.069288 -0.236579
v -0.146171 -0.049802 -0.241091
v -0.122664 -0.042278 -0.242484
v -0.099157 -0.049589 -0.240227
v -0.084628 -0.068944 -0.235181
v -0.084628 -0.092949 -0.229273
v -0.099157 -0.112436 -0.224761
v -0.122664 -0.090198 -0.271882
v -0.145816 -0.084476 -0.265371
v -0.160125 -0.077472 -0.246468
v -0.160125 -0.071861 -0.222392
v -0.145816 -0.069786 -0.202339
v -0.122664 -0.072040 -0.193970
v -0.099512 -0.077762 -0.200481
v -0.085203 -0.084765 -0.219384
v -0.085203 -0.090376 -0.243460
v -0.099512 -0.092451 -0.263513
v -0.072071 0.188411 -0.336813
v -0.095223 0.194132 -0.330302
v -0.109532 0.201136 -0.311398
v -0.109532 0.206747 -0.287322
v -0.095223 0.208822 -0.267270
v -0.072071 0.206569 -0.258901
v -0.048919 0.200847 -0.265411
v -0.034610 0.193843 -0.284315
v -0.034610 0.188232 -0.308391
v -0.048919 0.186157 -0.328443
v -0.039068 0.072075 0.016152
v -0.043240 0.065316 0.011372
v -0.045818 0.062623 0.002885
v -0.045818 0.065026 -0.006069
v -0.043240 0.071606 -0.012069
v -0.039068 0.079850 -0.012823
v -0.034896 0.086609 -0.008043
v -0.032318 0.089302 0.000445
v -0.032318 0.086900 0.009399
v -0.034896 0.080319 0.015398
v -0.003071 0.053401 0.011141
v -0.007243 0.046641 0.006362
v -0.009821 0.043949 -0.002126
v -0.009821 0.046351 -0.011080
v -0.007243 0.052931 -0.017080
v -0.003071 0.061176 -0.017834
v 0.001101 0.067935 -0.013054
v 0.003679 0.070628 -0.004566
v 0.003679 0.068225 0.004388
v 0.001101 0.061645 0.010388
v -0.003071 0.059035 0.011552
v -0.008808 0.052052 0.009486
v -0.012353 0.047069 0.002519
v -0.012353 0.045989 -0.006688
v -0.008808 0.049226 -0.014619
v -0.003071 0.055541 -0.018244
v 0.002666 0.062524 -0.016178
v 0.006212 0.067507 -0.009211
v 0.006212 0.068587 -0.000004
v 0.002666 0.065351 0.007927
v 0.024253 0.035781 0.014278
v 0.018516 0.028797 0.012213
v 0.014971 0.023814 0.005246
v 0.014971 0.022735 -0.003962
v 0.018516 0.025971 -0.011892
v 0.024253 0.032287 -0.015517
v 0.029990 0.039270 -0.013452
v 0.033536 0.044253 -0.006485
v 0.033536 0.045333 0.002723
v 0.029990 0.042096 0.010654
v 0.024253 0.037113 0.014061
v 0.015633 0.034715 0.011637
v 0.010305 0.032056 0.004532
v 0.010305 0.030153 -0.004541
v 0.015633 0.029732 -0.012116
v 0.024253 0.030954 -0.015300
v 0.032874 0.033353 -0.012876
v 0.038202 0.036011 -0.005770
v 0.038202 0.037915 0.003303
v 0.032874 0.038336 0.010877
v 0.030693 0.007744 0.020222
v 0.022072 0.005346 0.017798
v 0.016744 0.002687 0.010693
v 0.016744 0.000784 0.001620
v 0.022072 0.000363 -0.005955
v 0.030693 0.001585 -0.009139
v 0.039313 0.003984 -0.006715
v 0.044641 0.006643 0.000391
v 0.044641 0.008546 0.009464
v 0.039313 0.008967 0.017039
v 0.030693 -0.000522 0.019616
v 0.022097 -0.001372 0.016250
v 0.016784 0.000084 0.008793
v 0.016784 0.003290 0.000095
v 0.022097 0.007021 -0.006523
v 0.030693 0.009852 -0.008533
v 0.039289 0.010702 -0.005167
v 0.044601 0.009246 0.002290
v 0.044601 0.006040 0.010988
v 0.039289 0.002309 0.017606
v 0.037074 -0.026763 0.009945
v 0.028479 -0.027612 0.006579
v 0.023166 -0.026156 -0.000878
v 0.023166 -0.022950 -0.009576
v 0.028479 -0.019219 -0.016194
v 0.037074 -0.016388 -0.018204
v 0.045670 -0.015538 -0.014838
v 0.050983 -0.016994 -0.007381
v 0.050983 -0.020200 0.001317
v 0.045670 -0.023931 0.007935
v -0.039068 0.078199 0.016497
v -0.045932 0.072300 0.014489
v -0.050174 0.067800 0.007583
v -0.050174 0.066418 -0.001584
v -0.045932 0.068682 -0.009510
v -0.039068 0.073726 -0.013168
v -0.032204 0.079625 -0.011160
v -0.027962 0.084125 -0.004254
v -0.027962 0.085507 0.004913
v -0.032204 0.083244 0.012839
v 0.013696 0.013479 0.026255
v 0.006832 0.007580 0.024248
v 0.002590 0.003081 0.017341
v 0.002590 0.001698 0.008174
v 0.006832 0.003962 0.000248
v 0.013696 0.009007 -0.003409
v 0.020560 0.014905 -0.001402
v 0.024802 0.019405 0.005505
v 0.024802 0.020787 0.014672
v 0.020560 0.018524 0.022598
v 0.013696 0.011918 0.026408
v 0.006099 0.007318 0.023747
v 0.001404 0.004218 0.016379
v 0.001404 0.003801 0.007118
v 0.006099 0.006226 -0.000499
v 0.013696 0.010568 -0.003562
v 0.021292 0.015167 -0.000901
v 0.025987 0.018268 0.006467
v 0.025987 0.018685 0.015728
v 0.021292 0.016260 0.023345
v 0.027842 -0.012070 0.027489
v 0.020245 -0.016670 0.024828
v 0.015550 -0.019770 0.017460
v 0.015550 -0.020188 0.008199
v 0.020245 -0.017762 0.000582
v 0.027842 -0.013420 -0.002481
v 0.035438 -0.008821 0.000179
v 0.040133 -0.005720 0.007547
v 0.040133 -0.005303 0.016808
v 0.035438 -0.007728 0.024425
v 0.027842 -0.017987 0.026558
v 0.020126 -0.020984 0.022383
v 0.015358 -0.020834 0.014434
v 0.015358 -0.017595 0.005748
v 0.020126 -0.012503 -0.000358
v 0.027842 -0.007504 -0.001551
v 0.035557 -0.004507 0.002624
v 0.040326 -0.004657 0.010573
v 0.040326 -0.007896 0.019259
v 0.035557 -0.012988 0.025365
v 0.038542 -0.036115 0.019797
v 0.030827 -0.039112 0.015622
v 0.026059 -0.038963 0.007674
v 0.026059 -0.035723 -0.001013
v 0.030827 -0.030632 -0.007118
v 0.038542 -0.025633 -0.008311
v 0.046258 -0.022635 -0.004136
v 0.051026 -0.022785 0.003812
v 0.051026 -0.026025 0.012499
v 0.046258 -0.031116 0.018604
v 0.038542 -0.044476 0.012066
v 0.029760 -0.042207 0.010152
v 0.024332 -0.035608 0.006554
v 0.024332 -0.027202 0.002647
v 0.029760 -0.020198 -0.000078
v 0.038542 -0.017272 -0.000580
v 0.047325 -0.019541 0.001334
v 0.052753 -0.026139 0.004932
v 0.052753 -0.034546 0.008839
v 0.047325 -0.041550 0.011564
v 0.041079 -0.056535 -0.013877
v 0.032297 -0.054265 -0.015791
v 0.026869 -0.047667 -0.019388
v 0.026869 -0.039260 -0.023296
v 0.032297 -0.032256 -0.026021
v 0.041079 -0.029330 -0.026522
v 0.049861 -0.031599 -0.024608
v 0.055289 -0.038198 -0.021011
v 0.055289 -0.046604 -0.017103
v 0.049861 -0.053609 -0.014378
v -0.039068 0.077406 0.016595
v -0.047017 0.073335 0.014111
v -0.051930 0.070267 0.006872
v -0.051930 0.069375 -0.002355
v -0.047017 0.070999 -0.010047
v -0.039068 0.074519 -0.013266
v -0.031119 0.078590 -0.010781
v -0.026206 0.081658 -0.003543
v -0.026206 0.082550 0.005685
v -0.031119 0.080926 0.013377
v -0.001293 -0.000973 0.024175
v -0.009242 -0.005045 0.021691
v -0.014155 -0.008112 0.014452
v -0.014155 -0.009005 0.005225
v -0.009242 -0.007381 -0.002467
v -0.001293 -0.003861 -0.005686
v 0.006657 0.000211 -0.003201
v 0.011570 0.003278 0.004037
v 0.011570 0.004171 0.013264
v 0.006657 0.002547 0.020956
v -0.001293 -0.007853 0.023225
v -0.008790 -0.011139 0.018874
v -0.013424 -0.011093 0.010844
v -0.013424 -0.007734 0.002204
v -0.008790 -0.002343 -0.003747
v -0.001293 0.003019 -0.004736
v 0.006205 0.006305 -0.000385
v 0.010838 0.006259 0.007645
v 0.010838 0.002900 0.016285
v 0.006205 -0.002491 0.022236
v 0.013474 -0.030095 0.014577
v 0.005977 -0.033381 0.010226
v 0.001343 -0.033335 0.002196
v 0.001343 -0.029976 -0.006444
v 0.005977 -0.024585 -0.012395
v 0.013474 -0.019223 -0.013384
v 0.020972 -0.015937 -0.009033
v 0.025605 -0.015983 -0.001003
v 0.025605 -0.019342 0.007637
v 0.020972 -0.024733 0.013588
v 0.013474 -0.037853 0.007732
v 0.004853 -0.036211 0.004746
v -0.000476 -0.030157 0.000175
v -0.000476 -0.022002 -0.004235
v 0.004853 -0.014863 -0.006800
v 0.013474 -0.011465 -0.006539
v 0.022096 -0.013107 -0.003553
v 0.027424 -0.019161 0.001018
v 0.027424 -0.027316 0.005428
v 0.022096 -0.034455 0.007993
v 0.018702 -0.049473 -0.013753
v 0.010081 -0.047831 -0.016739
v 0.004752 -0.041776 -0.021310
v 0.004752 -0.033622 -0.025720
v 0.010081 -0.026482 -0.028284
v 0.018702 -0.023085 -0.028024
v 0.027324 -0.024727 -0.025038
v 0.032652 -0.030781 -0.020467
v 0.032652 -0.038935 -0.016057
v 0.027324 -0.046075 -0.013492
v 0.018702 -0.040795 -0.006584
v 0.011522 -0.044812 -0.010857
v 0.007085 -0.045569 -0.018961
v 0.007085 -0.042778 -0.027801
v 0.011522 -0.037504 -0.034001
v 0.018702 -0.031762 -0.035192
v 0.025883 -0.027745 -0.030920
v 0.030320 -0.026988 -0.022815
v 0.030320 -0.029780 -0.013975
v 0.025883 -0.035054 -0.007776
v 0.030894 -0.057110 -0.011736
v 0.023714 -0.061126 -0.016009
v 0.019276 -0.061884 -0.024113
v 0.019276 -0.059092 -0.032953
v 0.023714 -0.053818 -0.039153
v 0.030894 -0.048076 -0.040344
v 0.038074 -0.044060 -0.036071
v 0.042512 -0.043303 -0.027967
v 0.042512 -0.046094 -0.019127
v 0.038074 -0.051368 -0.012927
v -0.039068 0.074665 0.016609
v -0.047407 0.072060 0.013507
v -0.052561 0.070946 0.005882
v -0.052561 0.071747 -0.003354
v -0.047407 0.074159 -0.010673
v -0.039068 0.077260 -0.013279
v -0.030729 0.079865 -0.010177
v -0.025576 0.080979 -0.002552
v -0.025576 0.080178 0.006683
v -0.030729 0.077766 0.014002
v -0.010430 -0.008416 0.009397
v -0.018769 -0.011021 0.006296
v -0.023923 -0.012135 -0.001329
v -0.023923 -0.011334 -0.010565
v -0.018769 -0.008922 -0.017884
v -0.010430 -0.005821 -0.020490
v -0.002092 -0.003216 -0.017389
v 0.003062 -0.002102 -0.009764
v 0.003062 -0.002903 -0.000528
v -0.002092 -0.005315 0.006791
v -0.010430 -0.012283 0.008537
v -0.017718 -0.015955 0.004139
v -0.022222 -0.016252 -0.003959
v -0.022222 -0.013060 -0.012662
v -0.017718 -0.007599 -0.018648
v -0.010430 -0.001954 -0.019629
v -0.003142 0.001718 -0.015231
v 0.001362 0.002015 -0.007134
v 0.001362 -0.001176 0.001570
v -0.003142 -0.006638 0.007555
v 0.002377 -0.029943 0.002060
v -0.004911 -0.033616 -0.002337
v -0.009415 -0.033913 -0.010435
v -0.009415 -0.030721 -0.019139
v -0.004911 -0.025260 -0.025124
v 0.002377 -0.019615 -0.026105
v 0.009665 -0.015942 -0.021708
v 0.014169 -0.015645 -0.013610
v 0.014169 -0.018837 -0.004906
v 0.009665 -0.024298 0.001079
v 0.002377 -0.033180 0.000405
v -0.005759 -0.034391 -0.003872
v -0.010787 -0.031931 -0.011262
v -0.010787 -0.026739 -0.018942
v -0.005759 -0.020799 -0.023980
v 0.002377 -0.016378 -0.024450
v 0.010512 -0.015167 -0.020173
v 0.015540 -0.017627 -0.012783
v 0.015540 -0.022819 -0.005103
v 0.010512 -0.028759 -0.000065
v 0.011124 -0.050526 -0.011322
v 0.002989 -0.051738 -0.015599
v -0.002039 -0.049278 -0.022988
v -0.002039 -0.044086 -0.030669
v 0.002989 -0.038145 -0.035706
v 0.011124 -0.033725 -0.036176
v 0.019260 -0.032514 -0.031899
v 0.024288 -0.034974 -0.024509
v 0.024288 -0.040166 -0.016829
v 0.019260 -0.046106 -0.011792
v 0.011124 -0.049557 -0.010719
v 0.003744 -0.052327 -0.015597
v -0.000817 -0.051202 -0.023588
v -0.000817 -0.046609 -0.031641
v 0.003744 -0.040304 -0.036680
v 0.011124 -0.034695 -0.036779
v 0.018505 -0.031924 -0.031901
v 0.023066 -0.033050 -0.023909
v 0.023066 -0.037643 -0.015856
v 0.018505 -0.043947 -0.010818
v 0.019796 -0.061082 -0.017292
v 0.012415 -0.063853 -0.022170
v 0.007854 -0.062727 -0.030161
v 0.007854 -0.058135 -0.038214
v 0.012415 -0.051830 -0.043253
v 0.019796 -0.046221 -0.043352
v 0.027176 -0.043450 -0.038474
v 0.031738 -0.044576 -0.030482
v 0.031738 -0.049168 -0.022429
v 0.027176 -0.055473 -0.017391
v -0.039068 0.071813 0.016079
v -0.047802 0.071444 0.012992
v -0.053199 0.072801 0.005578
v -0.053199 0.075366 -0.003330
v -0.047802 0.078158 -0.010331
v -0.039068 0.080112 -0.012750
v -0.030334 0.080481 -0.009663
v -0.024937 0.079124 -0.002249
v -0.024937 0.076559 0.006660
v -0.030334 0.073767 0.013661
v -0.027364 -0.009469 -0.007318
v -0.036098 -0.009838 -0.010405
v -0.041496 -0.008481 -0.017819
v -0.041496 -0.005917 -0.026728
v -0.036098 -0.003124 -0.033729
v -0.027364 -0.001170 -0.036148
v -0.018631 -0.000802 -0.033060
v -0.013233 -0.002159 -0.025646
v -0.013233 -0.004723 -0.016738
v -0.018631 -0.007515 -0.009737
v -0.027364 -0.002232 -0.007054
v -0.034398 -0.008024 -0.008763
v -0.038744 -0.012784 -0.015426
v -0.038744 -0.014693 -0.024498
v -0.034398 -0.013021 -0.032514
v -0.027364 -0.008408 -0.036412
v -0.020331 -0.002615 -0.034703
v -0.015984 0.002144 -0.028040
v -0.015984 0.004053 -0.018968
v -0.020331 0.002382 -0.010952
v -0.019749 -0.012090 -0.004980
v -0.026782 -0.017882 -0.006689
v -0.031129 -0.022642 -0.013352
v -0.031129 -0.024551 -0.022424
v -0.026782 -0.022879 -0.030439
v -0.019749 -0.018266 -0.034337
v -0.012716 -0.012474 -0.032629
v -0.008369 -0.007714 -0.025966
v -0.008369 -0.005805 -0.016894
v -0.012716 -0.007477 -0.008878
v -0.019749 -0.018443 -0.005018
v -0.028257 -0.020078 -0.008318
v -0.033515 -0.019841 -0.015950
v -0.033515 -0.017823 -0.024998
v -0.028257 -0.014795 -0.032007
v -0.019749 -0.011913 -0.034299
v -0.011241 -0.010278 -0.030999
v -0.005983 -0.010515 -0.023368
v -0.005983 -0.012533 -0.014320
v -0.011241 -0.015561 -0.007311
v -0.013907 -0.039408 -0.009694
v -0.022415 -0.041043 -0.012994
v -0.027673 -0.040806 -0.020625
v -0.027673 -0.038788 -0.029674
v -0.022415 -0.035760 -0.036683
v -0.013907 -0.032878 -0.038975
v -0.005399 -0.031243 -0.035675
v -0.000141 -0.031480 -0.028044
v -0.000141 -0.033498 -0.018995
v -0.005399 -0.036526 -0.011987
v -0.013907 -0.037679 -0.009413
v -0.019001 -0.044544 -0.013000
v -0.022149 -0.048201 -0.020916
v -0.022149 -0.047251 -0.030138
v -0.019001 -0.042059 -0.037143
v -0.013907 -0.034607 -0.039256
v -0.008813 -0.027742 -0.035669
v -0.005665 -0.024086 -0.027753
v -0.005665 -0.025035 -0.018531
v -0.008813 -0.030227 -0.011526
v 0.006663 -0.052162 -0.010904
v 0.001569 -0.059027 -0.014491
v -0.001579 -0.062684 -0.022407
v -0.001579 -0.061735 -0.031628
v 0.001569 -0.056542 -0.038634
v 0.006663 -0.049090 -0.040747
v 0.011757 -0.042225 -0.037160
v 0.014905 -0.038569 -0.029244
v 0.014905 -0.039518 -0.020022
v 0.011757 -0.044710 -0.013017
v -0.042418 0.099170 -0.001591
v -0.046599 0.090896 -0.001624
v -0.049182 0.083820 -0.007028
v -0.049182 0.080645 -0.015738
v -0.046599 0.082584 -0.024427
v -0.042418 0.088897 -0.029777
v -0.038238 0.097171 -0.029744
v -0.035655 0.104247 -0.024341
v -0.035655 0.107422 -0.015631
v -0.038238 0.105483 -0.006941
v -0.003918 0.079692 0.005509
v -0.008098 0.071417 0.005475
v -0.010682 0.064341 0.000072
v -0.010682 0.061167 -0.008638
v -0.008098 0.063106 -0.017328
v -0.003918 0.069418 -0.022678
v 0.000262 0.077693 -0.022644
v 0.002846 0.084769 -0.017241
v 0.002846 0.087944 -0.008531
v 0.000262 0.086004 0.000159
v -0.003918 0.074557 0.006415
v -0.009899 0.068079 0.003552
v -0.013595 0.064074 -0.003948
v -0.013595 0.064073 -0.013218
v -0.009899 0.068075 -0.020719
v -0.003918 0.074553 -0.023585
v 0.002063 0.081031 -0.020721
v 0.005759 0.085036 -0.013221
v 0.005759 0.085038 -0.003951
v 0.002063 0.081035 0.003550
v 0.021522 0.051069 0.006419
v 0.015542 0.044591 0.003555
v 0.011845 0.040586 -0.003944
v 0.011845 0.040585 -0.013215
v 0.015542 0.044587 -0.020715
v 0.021522 0.051065 -0.023581
v 0.027503 0.057543 -0.020717
v 0.031200 0.061548 -0.013218
v 0.031200 0.061549 -0.003947
v 0.027503 0.057547 0.003553
v 0.021522 0.046761 0.005788
v 0.013378 0.044349 0.002074
v 0.008344 0.044503 -0.005709
v 0.008344 0.047164 -0.014590
v 0.013378 0.051316 -0.021175
v 0.021522 0.055373 -0.022950
v 0.029667 0.057785 -0.019236
v 0.034701 0.057631 -0.011453
v 0.034701 0.054970 -0.002572
v 0.029667 0.050818 0.004013
v 0.033073 0.020075 -0.002209
v 0.024928 0.017663 -0.005922
v 0.019895 0.017817 -0.013706
v 0.019895 0.020478 -0.022586
v 0.024928 0.024630 -0.029172
v 0.033073 0.028687 -0.030946
v 0.041217 0.031099 -0.027233
v 0.046251 0.030946 -0.019449
v 0.046251 0.028285 -0.010569
v 0.041217 0.024133 -0.003984
v 0.033073 0.019344 -0.002449
v 0.024503 0.018356 -0.005842
v 0.019206 0.019669 -0.013337
v 0.019206 0.022783 -0.022069
v 0.024503 0.026506 -0.028703
v 0.033073 0.029419 -0.030707
v 0.041643 0.030407 -0.027313
v 0.046940 0.029093 -0.019819
v 0.046940 0.025980 -0.011087
v 0.041643 0.022256 -0.004452
v 0.039481 -0.005642 -0.011357
v 0.030910 -0.006630 -0.014751
v 0.025614 -0.005317 -0.022245
v 0.025614 -0.002203 -0.030977
v 0.030910 0.001521 -0.037612
v 0.039481 0.004433 -0.039615
v 0.048051 0.005421 -0.036221
v 0.053348 0.004107 -0.028727
v 0.053348 0.000994 -0.019995
v 0.048051 -0.002730 -0.013360
v -0.042418 0.099563 -0.001740
v -0.049712 0.093901 -0.002577
v -0.054219 0.088291 -0.008421
v -0.054219 0.084873 -0.017038
v -0.049712 0.084955 -0.025139
v -0.042418 0.088505 -0.029628
v -0.035125 0.094166 -0.028791
v -0.030618 0.099777 -0.022948
v -0.030618 0.103194 -0.014330
v -0.035125 0.103112 -0.006230
v 0.019280 0.015130 0.031739
v 0.011987 0.009469 0.030902
v 0.007480 0.003858 0.025059
v 0.007480 0.000441 0.016441
v 0.011987 0.000522 0.008341
v 0.019280 0.004072 0.003852
v 0.026573 0.009733 0.004689
v 0.031081 0.015344 0.010532
v 0.031081 0.018761 0.019150
v 0.026573 0.018679 0.027250
v 0.019280 0.007776 0.032684
v 0.010987 0.005155 0.029476
v 0.005861 0.004232 0.021807
v 0.005861 0.005360 0.012606
v 0.010987 0.008108 0.005386
v 0.019280 0.011426 0.002907
v 0.027574 0.014047 0.006114
v 0.032700 0.014970 0.013784
v 0.032700 0.013842 0.022985
v 0.027574 0.011094 0.030205
v 0.029767 -0.021076 0.029147
v 0.021473 -0.023698 0.025940
v 0.016348 -0.024621 0.018271
v 0.016348 -0.023493 0.009069
v 0.021473 -0.020745 0.001850
v 0.029767 -0.017426 -0.000630
v 0.038061 -0.014805 0.002578
v 0.043186 -0.013882 0.010247
v 0.043186 -0.015010 0.019449
v 0.038061 -0.017758 0.026668
v 0.029767 -0.024027 0.028478
v 0.021433 -0.025843 0.024846
v 0.016282 -0.025140 0.017171
v 0.016282 -0.022189 0.008383
v 0.021433 -0.018115 0.001839
v 0.029767 -0.014475 0.000039
v 0.038101 -0.012660 0.003671
v 0.043252 -0.013362 0.011347
v 0.043252 -0.016314 0.020135
v 0.038101 -0.020388 0.026679
v 0.036839 -0.043446 0.021956
v 0.028505 -0.045261 0.018324
v 0.023354 -0.044559 0.010649
v 0.023354 -0.041607 0.001860
v 0.028505 -0.037533 -0.004683
v 0.036839 -0.033894 -0.006483
v 0.045173 -0.032078 -0.002851
v 0.050324 -0.032781 0.004825
v 0.050324 -0.035732 0.013613
v 0.045173 -0.039806 0.020157
v 0.036839 -0.047498 0.019864
v 0.028202 -0.047245 0.016505
v 0.022864 -0.043716 0.009797
v 0.022864 -0.038260 0.002302
v 0.028202 -0.032960 -0.003117
v 0.036839 -0.029841 -0.004390
v 0.045476 -0.030095 -0.001031
v 0.050814 -0.033623 0.005677
v 0.050814 -0.039080 0.013172
v 0.045476 -0.044379 0.018591
v 0.042534 -0.069939 0.003527
v 0.033897 -0.069686 0.000168
v 0.028560 -0.066157 -0.006540
v 0.028560 -0.060701 -0.014035
v 0.033897 -0.055401 -0.019454
v 0.042534 -0.052282 -0.020727
v 0.051171 -0.052536 -0.017368
v 0.056509 -0.056064 -0.010660
v 0.056509 -0.061521 -0.003165
v 0.051171 -0.066820 0.002254
v -0.042418 0.097808 -0.001167
v -0.050546 0.093781 -0.003080
v -0.055570 0.089850 -0.009807
v -0.055570 0.087518 -0.018779
v -0.050546 0.087674 -0.026569
v -0.042418 0.090259 -0.030202
v -0.034290 0.094286 -0.028289
v -0.029267 0.098217 -0.021561
v -0.029267 0.100550 -0.012589
v -0.034290 0.100394 -0.004799
v 0.000262 -0.000474 0.024387
v -0.007866 -0.004501 0.022474
v -0.012889 -0.008431 0.015747
v -0.012889 -0.010764 0.006774
v -0.007866 -0.010608 -0.001015
v 0.000262 -0.008023 -0.004648
v 0.008391 -0.003996 -0.002735
v 0.013414 -0.000065 0.003993
v 0.013414 0.002268 0.012965
v 0.008391 0.002112 0.020755
v 0.000262 -0.006335 0.024724
v -0.007429 -0.010204 0.021287
v -0.012183 -0.011798 0.013490
v -0.012183 -0.010509 0.004309
v -0.007429 -0.006827 -0.002747
v 0.000262 -0.002161 -0.004984
v 0.007954 0.001708 -0.001548
v 0.012708 0.003302 0.006250
v 0.012708 0.002012 0.015430
v 0.007954 -0.001669 0.022486
v 0.017591 -0.036963 0.020421
v 0.009900 -0.040832 0.016984
v 0.005146 -0.042426 0.009186
v 0.005146 -0.041136 0.000006
v 0.009900 -0.037455 -0.007050
v 0.017591 -0.032789 -0.009288
v 0.025283 -0.028919 -0.005851
v 0.030037 -0.027325 0.001946
v 0.030037 -0.028615 0.011127
v 0.025283 -0.032296 0.018183
v 0.017591 -0.042757 0.018329
v 0.008974 -0.042839 0.014911
v 0.003649 -0.039880 0.007924
v 0.003649 -0.035009 0.000036
v 0.008974 -0.030088 -0.005739
v 0.017591 -0.026995 -0.007196
v 0.026208 -0.026912 -0.003778
v 0.031534 -0.029871 0.003209
v 0.031534 -0.034742 0.011097
v 0.026208 -0.039664 0.016872
v 0.022625 -0.062532 0.006118
v 0.014008 -0.062615 0.002700
v 0.008682 -0.059655 -0.004287
v 0.008682 -0.054785 -0.012175
v 0.014008 -0.049863 -0.017950
v 0.022625 -0.046770 -0.019407
v 0.031242 -0.046687 -0.015989
v 0.036567 -0.049646 -0.009002
v 0.036567 -0.054517 -0.001114
v 0.031242 -0.059439 0.004661
v 0.022625 -0.056294 0.008265
v 0.014892 -0.060191 0.004954
v 0.010113 -0.061971 -0.002788
v 0.010113 -0.060955 -0.012003
v 0.014892 -0.057531 -0.019171
v 0.022625 -0.053007 -0.021554
v 0.030357 -0.049111 -0.018243
v 0.035136 -0.047331 -0.010501
v 0.035136 -0.048347 -0.001286
v 0.030357 -0.051770 0.005882
v 0.036394 -0.081281 0.005511
v 0.028662 -0.085178 0.002199
v 0.023883 -0.086958 -0.005543
v 0.023883 -0.085942 -0.014757
v 0.028662 -0.082518 -0.021925
v 0.036394 -0.077994 -0.024309
v 0.044127 -0.074098 -0.020997
v 0.048906 -0.072318 -0.013255
v 0.048906 -0.073334 -0.004041
v 0.044127 -0.076757 0.003127
v -0.042418 0.094840 -0.000706
v -0.050888 0.092240 -0.003435
v -0.056122 0.090325 -0.010842
v -0.056122 0.089826 -0.020100
v -0.050888 0.090935 -0.027670
v -0.042418 0.093227 -0.030662
v -0.033949 0.095827 -0.027934
v -0.028714 0.097743 -0.020526
v -0.028714 0.098241 -0.011269
v -0.033949 0.097133 -0.003698
v -0.013310 -0.005643 0.004706
v -0.021779 -0.008244 0.001977
v -0.027014 -0.010159 -0.005431
v -0.027014 -0.010658 -0.014688
v -0.021779 -0.009549 -0.022258
v -0.013310 -0.007257 -0.025251
v -0.004840 -0.004656 -0.022522
v 0.000394 -0.002741 -0.015114
v 0.000394 -0.002242 -0.005857
v -0.004840 -0.003351 0.001714
v -0.013310 -0.008422 0.004598
v -0.020932 -0.012439 0.001175
v -0.025642 -0.014169 -0.006620
v -0.025642 -0.012950 -0.015810
v -0.020932 -0.009249 -0.022885
v -0.013310 -0.004478 -0.025142
v -0.005688 -0.000461 -0.021720
v -0.000978 0.001269 -0.013925
v -0.000978 0.000050 -0.004735
v -0.005688 -0.003651 0.002340
v 0.001810 -0.034194 0.001180
v -0.005812 -0.038212 -0.002242
v -0.010523 -0.039942 -0.010037
v -0.010523 -0.038723 -0.019227
v -0.005812 -0.035022 -0.026302
v 0.001810 -0.030251 -0.028559
v 0.009431 -0.026234 -0.025137
v 0.014142 -0.024504 -0.017342
v 0.014142 -0.025722 -0.008152
v 0.009431 -0.029424 -0.001077
v 0.001810 -0.036491 0.000690
v -0.006027 -0.039549 -0.003206
v -0.010870 -0.039810 -0.011106
v -0.010870 -0.037172 -0.019994
v -0.006027 -0.032644 -0.026473
v 0.001810 -0.027955 -0.028070
v 0.009646 -0.024896 -0.024174
v 0.014489 -0.024636 -0.016273
v 0.014489 -0.027274 -0.007386
v 0.009646 -0.031802 -0.000906
v 0.012769 -0.056866 -0.005357
v 0.004933 -0.059925 -0.009253
v 0.000090 -0.060185 -0.017154
v 0.000090 -0.057547 -0.026041
v 0.004933 -0.053019 -0.032520
v 0.012769 -0.048330 -0.034117
v 0.020606 -0.045271 -0.030221
v 0.025449 -0.045011 -0.022320
v 0.025449 -0.047649 -0.013433
v 0.020606 -0.052177 -0.006954
v 0.012769 -0.056014 -0.005131
v 0.005211 -0.059782 -0.008954
v 0.000540 -0.060806 -0.016896
v 0.000540 -0.058695 -0.025923
v 0.005211 -0.054255 -0.032587
v 0.012769 -0.049182 -0.034343
v 0.020328 -0.045415 -0.030520
v 0.024999 -0.044391 -0.022578
v 0.024999 -0.046501 -0.013551
v 0.020328 -0.050941 -0.006887
v 0.025364 -0.076433 -0.009906
v 0.017806 -0.080201 -0.013729
v 0.013134 -0.081225 -0.021671
v 0.013134 -0.079114 -0.030698
v 0.017806 -0.074675 -0.037362
v 0.025364 -0.069602 -0.039118
v 0.032922 -0.065834 -0.035295
v 0.037594 -0.064810 -0.027353
v 0.037594 -0.066921 -0.018326
v 0.032922 -0.071361 -0.011662
v -0.042418 0.091746 -0.000860
v -0.051155 0.091010 -0.003872
v -0.056554 0.091429 -0.011396
v -0.056554 0.092843 -0.020558
v -0.051155 0.094711 -0.027858
v -0.042418 0.096321 -0.030509
v -0.033682 0.097057 -0.027496
v -0.028282 0.096639 -0.019972
v -0.028282 0.095225 -0.010810
v -0.033682 0.093356 -0.003510
v -0.029699 -0.000783 -0.015138
v -0.038436 -0.001519 -0.018151
v -0.043835 -0.001100 -0.025675
v -0.043835 0.000313 -0.034837
v -0.038436 0.002182 -0.042137
v -0.029699 0.003792 -0.044787
v -0.020963 0.004528 -0.041775
v -0.015563 0.004109 -0.034251
v -0.015563 0.002695 -0.025089
v -0.020963 0.000827 -0.017789
v -0.029699 0.001834 -0.014967
v -0.037800 -0.001708 -0.017754
v -0.042807 -0.004024 -0.025205
v -0.042807 -0.004227 -0.034473
v -0.037800 -0.002242 -0.042019
v -0.029699 0.001175 -0.044959
v -0.021598 0.004717 -0.042172
v -0.016592 0.007032 -0.034721
v -0.016592 0.007236 -0.025453
v -0.021598 0.005251 -0.017907
v -0.020995 -0.018421 -0.014521
v -0.029096 -0.021963 -0.017309
v -0.034103 -0.024278 -0.024760
v -0.034103 -0.024482 -0.034028
v -0.029096 -0.022497 -0.041573
v -0.020995 -0.019080 -0.044514
v -0.012894 -0.015538 -0.041726
v -0.007888 -0.013223 -0.034275
v -0.007888 -0.013019 -0.025007
v -0.012894 -0.015004 -0.017462
v -0.020995 -0.019409 -0.014532
v -0.028907 -0.023171 -0.017565
v -0.033796 -0.025244 -0.025163
v -0.033796 -0.024837 -0.034425
v -0.028907 -0.022106 -0.041812
v -0.020995 -0.018092 -0.044503
v -0.013084 -0.014331 -0.041470
v -0.008194 -0.012257 -0.033872
v -0.008194 -0.012664 -0.024610
v -0.013084 -0.015395 -0.017223
v -0.010942 -0.039829 -0.015429
v -0.018854 -0.043591 -0.018461
v -0.023743 -0.045664 -0.026060
v -0.023743 -0.045257 -0.035321
v -0.018854 -0.042526 -0.042709
v -0.010942 -0.038512 -0.045400
v -0.003030 -0.034751 -0.042367
v 0.001859 -0.032677 -0.034769
v 0.001859 -0.033084 -0.025507
v -0.003030 -0.035815 -0.018120
v -0.010942 -0.042626 -0.015818
v -0.018117 -0.046952 -0.019786
v -0.022552 -0.048306 -0.027814
v -0.022552 -0.046170 -0.036835
v -0.018117 -0.041361 -0.043404
v -0.010942 -0.035715 -0.045011
v -0.003767 -0.031389 -0.041043
v 0.000668 -0.030035 -0.033015
v 0.000668 -0.032171 -0.023994
v -0.003767 -0.036980 -0.017425
v 0.004446 -0.063595 -0.020782
v -0.002730 -0.067921 -0.024750
v -0.007164 -0.069274 -0.032778
v -0.007164 -0.067139 -0.041799
v -0.002730 -0.062329 -0.048368
v 0.004446 -0.056683 -0.049975
v 0.011621 -0.052357 -0.046007
v 0.016055 -0.051004 -0.037979
v 0.016055 -0.053139 -0.028958
v 0.011621 -0.057949 -0.022389
f 1 2 13
f 2 14 13
f 2 3 14
f 3 15 14
f 3 4 15
f 4 16 15
f 4 5 16
f 5 17 16
f 5 6 17
f 6 18 17
f 6 7 18
f 7 19 18
f 7 8 19
f 8 20 19
f 8 9 20
f 9 21 20
f 9 10 21
f 10 22 21
f 10 11 22
f 11 23 22
f 11 12 23
f 12 24 23
f 13 14 25
f 14 26 25
f 14 15 26
f 15 27 26
f 15 16 27
f 16 28 27
f 16 17 28
f 17 29 28
f 17 18 29
f 18 30 29
f 18 19 30
f 19 31 30
f 19 20 31
f 20 32 31
f 20 21 32
f 21 33 32
f 21 22 33
f 22 34 33
f 22 23 34
f 23 35 34
f 23 24 35
f 24 36 35
f 25 26 37
f 26 38 37
f 26 27 38
f 27 39 38
f 27 28 39
f 28 40 39
f 28 29 40
f 29 41 40
f 29 30 41
f 30 42 41
f 30 31 42
f 31 43 42
f 31 32 43
f 32 44 43
f 32 33 44
f 33 45 44
f 33 34 45
f 34 46 45
f 34 35 46
f 35 47 46
f 35 36 47
f 36 48 47
f 37 38 49
f 38 50 49
f 38 39 50
f 39 51 50
f 39 40 51
f 40 52 51
f 40 41 52
f 41 53 52
f 41 42 53
f 42 54 53
f 42 43 54
f 43 55 54
f 43 44 55
f 44 56 55
f 44 45 56
f 45 57 56
f 45 46 57
f 46 58 57
f 46 47 58
f 47 59 58
f 47 48 59
f 48 60 59
f 49 50 61
f 50 62 61
f 50 51 62
f 51 63 62
f 51 52 63
f 52 64 63
f 52 53 64
f 53 65 64
f 53 54 65
f 54 66 65
f 54 55 66
f 55 67 66
f 55 56 67
f 56 68 67
f 56 57 68
f 57 69 68
f 57 58 69
f 58 70 69
f 58 59 70
f 59 71 70
f 59 60 71
f 60 72 71
f 61 62 73
f 62 74 73
f 62 63 74
f 63 75 74
f 63 64 75
f 64 76 75
f 64 65 76
f 65 77 76
f 65 66 77
f 66 78 77
f 66 67 78
f 67 79 78
f 67 68 79
f 68 80 79
f 68 69 80
f 69 81 80
f 69 70 81
f 70 82 81
f 70 71 82
f 71 83 82
f 71 72 83
f 72 84 83
f 73 74 85
f 74 86 85
f 74 75 86
f 75 87 86
f 75 76 87
f 76 88 87
f 76 77 88
f 77 89 88
f 77 78 89
f 78 90 89
f 78 79 90
f 79 91 90
f 79 80 91
f 80 92 91
f 80 81 92
f 81 93 92
f 81 82 93
f 82 94 93
f 82 83 94
f 83 95 94
f 83 84 95
f 84 96 95
f 85 86 97
f 86 98 97
f 86 87 98
f 87 99 98
f 87 88 99
f 88 100 99
f 88 89 100
f 89 101 100
f 89 90 101
f 90 102 101
f 90 91 102
f 91 103 102
f 91 92 103
f 92 104 103
f 92 93 104
f 93 105 104
f 93 94 105
f 94 106 105
f 94 95 106
f 95 107 106
f 95 96 107
f 96 108 107
f 97 98 109
f 98 110 109
f 98 99 110
f 99 111 110
f 99 100 111
f 100 112 111
f 100 101 112
f 101 113 112
f 101 102 113
f 102 114 113
f 102 103 114
f 103 115 114
f 103 104 115
f 104 116 115
f 104 105 116
f 105 117 116
f 105 106 117
f 106 118 117
f 106 107 118
f 107 119 118
f 107 108 119
f 108 120 119
f 109 110 121
f 110 122 121
f 110 111 122
f 111 123 122
f 111 112 123
f 112 124 123
f 112 113 124
f 113 125 124
f 113 114 125
f 114 126 125
f 114 115 126
f 115 127 126
f 115 116 127
f 116 128 127
f 116 117 128
f 117 129 128
f 117 118 129
f 118 130 129
f 118 119 130
f 119 131 130
f 119 120 131
f 120 132 131
f 121 122 133
f 122 134 133
f 122 123 134
f 123 135 134
f 123 124 135
f 124 136 135
f 124 125 136
f 125 137 136
f 125 126 137
f 126 138 137
f 126 127 138
f 127 139 138
f 127 128 139
f 128 140 139
f 128 129 140
f 129 141 140
f 129 130 141
f 130 142 141
f 130 131 142
f 131 143 142
f 131 132 143
f 132 144 143
f 145 146 155
f 146 156 155
f 146 147 156
f 147 157 156
f 147 148 157
f 148 158 157
f 148 149 158
f 149 159 158
f 149 150 159
f 150 160 159
f 150 151 160
f 151 161 160
f 151 152 161
f 152 162 161
f 152 153 162
f 153 163 162
f 153 154 163
f 154 164 163
f 154 145 164
f 145 155 164
f 165 166 175
f 166 176 175
f 166 167 176
f 167 177 176
f 167 168 177
f 168 178 177
f 168 169 178
f 169 179 178
f 169 170 179
f 170 180 179
f 170 171 180
f 171 181 180
f 171 172 181
f 172 182 181
f 172 173 182
f 173 183 182
f 173 174 183
f 174 184 183
f 174 165 184
f 165 175 184
f 185 186 195
f 186 196 195
f 186 187 196
f 187 197 196
f 187 188 197
f 188 198 197
f 188 189 198
f 189 199 198
f 189 190 199
f 190 200 199
f 190 191 200
f 191 201 200
f 191 192 201
f 192 202 201
f 192 193 202
f 193 203 202
f 193 194 203
f 194 204 203
f 194 185 204
f 185 195 204
f 205 206 215
f 206 216 215
f 206 207 216
f 207 217 216
f 207 208 217
f 208 218 217
f 208 209 218
f 209 219 218
f 209 210 219
f 210 220 219
f 210 211 220
f 211 221 220
f 211 212 221
f 212 222 221
f 212 213 222
f 213 223 222
f 213 214 223
f 214 224 223
f 214 205 224
f 205 215 224
f 225 226 235
f 226 236 235
f 226 227 236
f 227 237 236
f 227 228 237
f 228 238 237
f 228 229 238
f 229 239 238
f 229 230 239
f 230 240 239
f 230 231 240
f 231 241 240
f 231 232 241
f 232 242 241
f 232 233 242
f 233 243 242
f 233 234 243
f 234 244 243
f 234 225 244
f 225 235 244
f 245 246 255
f 246 256 255
f 246 247 256
f 247 257 256
f 247 248 257
f 248 258 257
f 248 249 258
f 249 259 258
f 249 250 259
f 250 260 259
f 250 251 260
f 251 261 260
f 251 252 261
f 252 262 261
f 252 253 262
f 253 263 262
f 253 254 263
f 254 264 263
f 254 245 264
f 245 255 264
f 265 266 275
f 266 276 275
f 266 267 276
f 267 277 276
f 267 268 277
f 268 278 277
f 268 269 278
f 269 279 278
f 269 270 279
f 270 280 279
f 270 271 280
f 271 281 280
f 271 272 281
f 272 282 281
f 272 273 282
f 273 283 282
f 273 274 283
f 274 284 283
f 274 265 284
f 265 275 284
f 285 286 295
f 286 296 295
f 286 287 296
f 287 297 296
f 287 288 297
f 288 298 297
f 288 289 298
f 289 299 298
f 289 290 299
f 290 300 299
f 290 291 300
f 291 301 300
f 291 292 301
f 292 302 301
f 292 293 302
f 293 303 302
f 293 294 303
f 294 304 303
f 294 285 304
f 285 295 304
f 305 306 315
f 306 316 315
f 306 307 316
f 307 317 316
f 307 308 317
f 308 318 317
f 308 309 318
f 309 319 318
f 309 310 319
f 310 320 319
f 310 311 320
f 311 321 320
f 311 312 321
f 312 322 321
f 312 313 322
f 313 323 322
f 313 314 323
f 314 324 323
f 314 305 324
f 305 315 324
f 325 326 335
f 326 336 335
f 326 327 336
f 327 337 336
f 327 328 337
f 328 338 337
f 328 329 338
f 329 339 338
f 329 330 339
f 330 340 339
f 330 331 340
f 331 341 340
f 331 332 341
f 332 342 341
f 332 333 342
f 333 343 342
f 333 334 343
f 334 344 343
f 334 325 344
f 325 335 344
f 345 346 355
f 346 356 355
f 346 347 356
f 347 357 356
f 347 348 357
f 348 358 357
f 348 349 358
f 349 359 358
f 349 350 359
f 350 360 359
f 350 351 360
f 351 361 360
f 351 352 361
f 352 362 361
f 352 353 362
f 353 363 362
f 353 354 363
f 354 364 363
f 354 345 364
f 345 355 364
f 365 366 375
f 366 376 375
f 366 367 376
f 367 377 376
f 367 368 377
f 368 378 377
f 368 369 378
f 369 379 378
f 369 370 379
f 370 380 379
f 370 371 380
f 371 381 380
f 371 372 381
f 372 382 381
f 372 373 382
f 373 383 382
f 373 374 383
f 374 384 383
f 374 365 384
f 365 375 384
f 385 386 395
f 386 396 395
f 386 387 396
f 387 397 396
f 387 388 397
f 388 398 397
f 388 389 398
f 389 399 398
f 389 390 399
f 390 400 399
f 390 391 400
f 391 401 400
f 391 392 401
f 392 402 401
f 392 393 402
f 393 403 402
f 393 394 403
f 394 404 403
f 394 385 404
f 385 395 404
f 405 406 415
f 406 416 415
f 406 407 416
f 407 417 416
f 407 408 417
f 408 418 417
f 408 409 418
f 409 419 418
f 409 410 419
f 410 420 419
f 410 411 420
f 411 421 420
f 411 412 421
f 412 422 421
f 412 413 422
f 413 423 422
f 413 414 423
f 414 424 423
f 414 405 424
f 405 415 424
f 425 426 435
f 426 436 435
f 426 427 436
f 427 437 436
f 427 428 437
f 428 438 437
f 428 429 438
f 429 439 438
f 429 430 439
f 430 440 439
f 430 431 440
f 431 441 440
f 431 432 441
f 432 442 441
f 432 433 442
f 433 443 442
f 433 434 443
f 434 444 443
f 434 425 444
f 425 435 444
f 445 446 455
f 446 456 455
f 446 447 456
f 447 457 456
f 447 448 457
f 448 458 457
f 448 449 458
f 449 459 458
f 449 450 459
f 450 460 459
f 450 451 460
f 451 461 460
f 451 452 461
f 452 462 461
f 452 453 462
f 453 463 462
f 453 454 463
f 454 464 463
f 454 445 464
f 445 455 464
f 465 466 475
f 466 476 475
f 466 467 476
f 467 477 476
f 467 468 477
f 468 478 477
f 468 469 478
f 469 479 478
f 469 470 479
f 470 480 479
f 470 471 480
f 471 481 480
f 471 472 481
f 472 482 481
f 472 473 482
f 473 483 482
f 473 474 483
f 474 484 483
f 474 465 484
f 465 475 484
f 485 486 495
f 486 496 495
f 486 487 496
f 487 497 496
f 487 488 497
f 488 498 497
f 488 489 498
f 489 499 498
f 489 490 499
f 490 500 499
f 490 491 500
f 491 501 500
f 491 492 501
f 492 502 501
f 492 493 502
f 493 503 502
f 493 494 503
f 494 504 503
f 494 485 504
f 485 495 504
f 505 506 515
f 506 516 515
f 506 507 516
f 507 517 516
f 507 508 517
f 508 518 517
f 508 509 518
f 509 519 518
f 509 510 519
f 510 520 519
f 510 511 520
f 511 521 520
f 511 512 521
f 512 522 521
f 512 513 522
f 513 523 522
f 513 514 523
f 514 524 523
f 514 505 524
f 505 515 524
f 525 526 535
f 526 536 535
f 526 527 536
f 527 537 536
f 527 528 537
f 528 538 537
f 528 529 538
f 529 539 538
f 529 530 539
f 530 540 539
f 530 531 540
f 531 541 540
f 531 532 541
f 532 542 541
f 532 533 542
f 533 543 542
f 533 534 543
f 534 544 543
f 534 525 544
f 525 535 544
f 545 546 555
f 546 556 555
f 546 547 556
f 547 557 556
f 547 548 557
f 548 558 557
f 548 549 558
f 549 559 558
f 549 550 559
f 550 560 559
f 550 551 560
f 551 561 560
f 551 552 561
f 552 562 561
f 552 553 562
f 553 563 562
f 553 554 563
f 554 564 563
f 554 545 564
f 545 555 564
f 565 566 575
f 566 576 575
f 566 567 576
f 567 577 576
f 567 568 577
f 568 578 577
f 568 569 578
f 569 579 578
f 569 570 579
f 570 580 579
f 570 571 580
f 571 581 580
f 571 572 581
f 572 582 581
f 572 573 582
f 573 583 582
f 573 574 583
f 574 584 583
f 574 565 584
f 565 575 584
f 585 586 595
f 586 596 595
f 586 587 596
f 587 597 596
f 587 588 597
f 588 598 597
f 588 589 598
f 589 599 598
f 589 590 599
f 590 600 599
f 590 591 600
f 591 601 600
f 591 592 601
f 592 602 601
f 592 593 602
f 593 603 602
f 593 594 603
f 594 604 603
f 594 585 604
f 585 595 604
f 605 606 615
f 606 616 615
f 606 607 616
f 607 617 616
f 607 608 617
f 608 618 617
f 608 609 618
f 609 619 618
f 609 610 619
f 610 620 619
f 610 611 620
f 611 621 620
f 611 612 621
f 612 622 621
f 612 613 622
f 613 623 622
f 613 614 623
f 614 624 623
f 614 605 624
f 605 615 624
f 625 626 635
f 626 636 635
f 626 627 636
f 627 637 636
f 627 628 637
f 628 638 637
f 628 629 638
f 629 639 638
f 629 630 639
f 630 640 639
f 630 631 640
f 631 641 640
f 631 632 641
f 632 642 641
f 632 633 642
f 633 643 642
f 633 634 643
f 634 644 643
f 634 625 644
f 625 635 644
f 645 646 655
f 646 656 655
f 646 647 656
f 647 657 656
f 647 648 657
f 648 658 657
f 648 649 658
f 649 659 658
f 649 650 659
f 650 660 659
f 650 651 660
f 651 661 660
f 651 652 661
f 652 662 661
f 652 653 662
f 653 663 662
f 653 654 663
f 654 664 663
f 654 645 664
f 645 655 664
f 665 666 675
f 666 676 675
f 666 667 676
f 667 677 676
f 667 668 677
f 668 678 677
f 668 669 678
f 669 679 678
f 669 670 679
f 670 680 679
f 670 671 680
f 671 681 680
f 671 672 681
f 672 682 681
f 672 673 682
f 673 683 682
f 673 674 683
f 674 684 683
f 674 665 684
f 665 675 684
f 685 686 695
f 686 696 695
f 686 687 696
f 687 697 696
f 687 688 697
f 688 698 697
f 688 689 698
f 689 699 698
f 689 690 699
f 690 700 699
f 690 691 700
f 691 701 700
f 691 692 701
f 692 702 701
f 692 693 702
f 693 703 702
f 693 694 703
f 694 704 703
f 694 685 704
f 685 695 704
f 705 706 715
f 706 716 715
f 706 707 716
f 707 717 716
f 707 708 717
f 708 718 717
f 708 709 718
f 709 719 718
f 709 710 719
f 710 720 719
f 710 711 720
f 711 721 720
f 711 712 721
f 712 722 721
f 712 713 722
f 713 723 722
f 713 714 723
f 714 724 723
f 714 705 724
f 705 715 724
f 725 726 735
f 726 736 735
f 726 727 736
f 727 737 736
f 727 728 737
f 728 738 737
f 728 729 738
f 729 739 738
f 729 730 739
f 730 740 739
f 730 731 740
f 731 741 740
f 731 732 741
f 732 742 741
f 732 733 742
f 733 743 742
f 733 734 743
f 734 744 743
f 734 725 744
f 725 735 744
f 745 746 755
f 746 756 755
f 746 747 756
f 747 757 756
f 747 748 757
f 748 758 757
f 748 749 758
f 749 759 758
f 749 750 759
f 750 760 759
f 750 751 760
f 751 761 760
f 751 752 761
f 752 762 761
f 752 753 762
f 753 763 762
f 753 754 763
f 754 764 763
f 754 745 764
f 745 755 764
f 765 766 775
f 766 776 775
f 766 767 776
f 767 777 776
f 767 768 777
f 768 778 777
f 768 769 778
f 769 779 778
f 769 770 779
f 770 780 779
f 770 771 780
f 771 781 780
f 771 772 781
f 772 782 781
f 772 773 782
f 773 783 782
f 773 774 783
f 774 784 783
f 774 765 784
f 765 775 784
f 785 786 795
f 786 796 795
f 786 787 796
f 787 797 796
f 787 788 797
f 788 798 797
f 788 789 798
f 789 799 798
f 789 790 799
f 790 800 799
f 790 791 800
f 791 801 800
f 791 792 801
f 792 802 801
f 792 793 802
f 793 803 802
f 793 794 803
f 794 804 803
f 794 785 804
f 785 795 804
f 805 806 815
f 806 816 815
f 806 807 816
f 807 817 816
f 807 808 817
f 808 818 817
f 808 809 818
f 809 819 818
f 809 810 819
f 810 820 819
f 810 811 820
f 811 821 820
f 811 812 821
f 812 822 821
f 812 813 822
f 813 823 822
f 813 814 823
f 814 824 823
f 814 805 824
f 805 815 824
f 825 826 835
f 826 836 835
f 826 827 836
f 827 837 836
f 827 828 837
f 828 838 837
f 828 829 838
f 829 839 838
f 829 830 839
f 830 840 839
f 830 831 840
f 831 841 840
f 831 832 841
f 832 842 841
f 832 833 842
f 833 843 842
f 833 834 843
f 834 844 843
f 834 825 844
f 825 835 844
f 845 846 855
f 846 856 855
f 846 847 856
f 847 857 856
f 847 848 857
f 848 858 857
f 848 849 858
f 849 859 858
f 849 850 859
f 850 860 859
f 850 851 860
f 851 861 860
f 851 852 861
f 852 862 861
f 852 853 862
f 853 863 862
f 853 854 863
f 854 864 863
f 854 845 864
f 845 855 864
f 865 866 875
f 866 876 875
f 866 867 876
f 867 877 876
f 867 868 877
f 868 878 877
f 868 869 878
f 869 879 878
f 869 870 879
f 870 880 879
f 870 871 880
f 871 881 880
f 871 872 881
f 872 882 881
f 872 873 882
f 873 883 882
f 873 874 883
f 874 884 883
f 874 865 884
f 865 875 884
f 885 886 895
f 886 896 895
f 886 887 896
f 887 897 896
f 887 888 897
f 888 898 897
f 888 889 898
f 889 899 898
f 889 890 899
f 890 900 899
f 890 891 900
f 891 901 900
f 891 892 901
f 892 902 901
f 892 893 902
f 893 903 902
f 893 894 903
f 894 904 903
f 894 885 904
f 885 895 904
f 905 906 915
f 906 916 915
f 906 907 916
f 907 917 916
f 907 908 917
f 908 918 917
f 908 909 918
f 909 919 918
f 909 910 919
f 910 920 919
f 910 911 920
f 911 921 920
f 911 912 921
f 912 922 921
f 912 913 922
f 913 923 922
f 913 914 923
f 914 924 923
f 914 905 924
f 905 915 924
f 925 926 935
f 926 936 935
f 926 927 936
f 927 937 936
f 927 928 937
f 928 938 937
f 928 929 938
f 929 939 938
f 929 930 939
f 930 940 939
f 930 931 940
f 931 941 940
f 931 932 941
f 932 942 941
f 932 933 942
f 933 943 942
f 933 934 943
f 934 944 943
f 934 925 944
f 925 935 944
f 945 946 955
f 946 956 955
f 946 947 956
f 947 957 956
f 947 948 957
f 948 958 957
f 948 949 958
f 949 959 958
f 949 950 959
f 950 960 959
f 950 951 960
f 951 961 960
f 951 952 961
f 952 962 961
f 952 953 962
f 953 963 962
f 953 954 963
f 954 964 963
f 954 945 964
f 945 955 964
f 965 966 975
f 966 976 975
f 966 967 976
f 967 977 976
f 967 968 977
f 968 978 977
f 968 969 978
f 969 979 978
f 969 970 979
f 970 980 979
f 970 971 980
f 971 981 980
f 971 972 981
f 972 982 981
f 972 973 982
f 973 983 982
f 973 974 983
f 974 984 983
f 974 965 984
f 965 975 984
f 985 986 995
f 986 996 995
f 986 987 996
f 987 997 996
f 987 988 997
f 988 998 997
f 988 989 998
f 989 999 998
f 989 990 999
f 990 1000 999
f 990 991 1000
f 991 1001 1000
f 991 992 1001
f 992 1002 1001
f 992 993 1002
f 993 1003 1002
f 993 994 1003
f 994 1004 1003
f 994 985 1004
f 985 995 1004
f 1005 1006 1015
f 1006 1016 1015
f 1006 1007 1016
f 1007 1017 1016
f 1007 1008 1017
f 1008 1018 1017
f 1008 1009 1018
f 1009 1019 1018
f 1009 1010 1019
f 1010 1020 1019
f 1010 1011 1020
f 1011 1021 1020
f 1011 1012 1021
f 1012 1022 1021
f 1012 1013 1022
f 1013 1023 1022
f 1013 1014 1023
f 1014 1024 1023
f 1014 1005 1024
f 1005 1015 1024
f 1025 1026 1035
f 1026 1036 1035
f 1026 1027 1036
f 1027 1037 1036
f 1027 1028 1037
f 1028 1038 1037
f 1028 1029 1038
f 1029 1039 1038
f 1029 1030 1039
f 1030 1040 1039
f 1030 1031 1040
f 1031 1041 1040
f 1031 1032 1041
f 1032 1042 1041
f 1032 1033 1042
f 1033 1043 1042
f 1033 1034 1043
f 1034 1044 1043
f 1034 1025 1044
f 1025 1035 1044
f 1045 1046 1055
f 1046 1056 1055
f 1046 1047 1056
f 1047 1057 1056
f 1047 1048 1057
f 1048 1058 1057
f 1048 1049 1058
f 1049 1059 1058
f 1049 1050 1059
f 1050 1060 1059
f 1050 1051 1060
f 1051 1061 1060
f 1051 1052 1061
f 1052 1062 1061
f 1052 1053 1062
f 1053 1063 1062
f 1053 1054 1063
f 1054 1064 1063
f 1054 1045 1064
f 1045 1055 1064
f 1065 1066 1075
f 1066 1076 1075
f 1066 1067 1076
f 1067 1077 1076
f 1067 1068 1077
f 1068 1078 1077
f 1068 1069 1078
f 1069 1079 1078
f 1069 1070 1079
f 1070 1080 1079
f 1070 1071 1080
f 1071 1081 1080
f 1071 1072 1081
f 1072 1082 1081
f 1072 1073 1082
f 1073 1083 1082
f 1073 1074 1083
f 1074 1084 1083
f 1074 1065 1084
f 1065 1075 1084
f 1085 1086 1095
f 1086 1096 1095
f 1086 1087 1096
f 1087 1097 1096
f 1087 1088 1097
f 1088 1098 1097
f 1088 1089 1098
f 1089 1099 1098
f 1089 1090 1099
f 1090 1100 1099
f 1090 1091 1100
f 1091 1101 1100
f 1091 1092 1101
f 1092 1102 1101
f 1092 1093 1102
f 1093 1103 1102
f 1093 1094 1103
f 1094 1104 1103
f 1094 1085 1104
f 1085 1095 1104
f 1105 1106 1115
f 1106 1116 1115
f 1106 1107 1116
f 1107 1117 1116
f 1107 1108 1117
f 1108 1118 1117
f 1108 1109 1118
f 1109 1119 1118
f 1109 1110 1119
f 1110 1120 1119
f 1110 1111 1120
f 1111 1121 1120
f 1111 1112 1121
f 1112 1122 1121
f 1112 1113 1122
f 1113 1123 1122
f 1113 1114 1123
f 1114 1124 1123
f 1114 1105 1124
f 1105 1115 1124
f 1125 1126 1135
f 1126 1136 1135
f 1126 1127 1136
f 1127 1137 1136
f 1127 1128 1137
f 1128 1138 1137
f 1128 1129 1138
f 1129 1139 1138
f 1129 1130 1139
f 1130 1140 1139
f 1130 1131 1140
f 1131 1141 1140
f 1131 1132 1141
f 1132 1142 1141
f 1132 1133 1142
f 1133 1143 1142
f 1133 1134 1143
f 1134 1144 1143
f 1134 1125 1144
f 1125 1135 1144
f 1145 1146 1155
f 1146 1156 1155
f 1146 1147 1156
f 1147 1157 1156
f 1147 1148 1157
f 1148 1158 1157
f 1148 1149 1158
f 1149 1159 1158
f 1149 1150 1159
f 1150 1160 1159
f 1150 1151 1160
f 1151 1161 1160
f 1151 1152 1161
f 1152 1162 1161
f 1152 1153 1162
f 1153 1163 1162
f 1153 1154 1163
f 1154 1164 1163
f 1154 1145 1164
f 1145 1155 1164
f 1165 1166 1175
f 1166 1176 1175
f 1166 1167 1176
f 1167 1177 1176
f 1167 1168 1177
f 1168 1178 1177
f 1168 1169 1178
f 1169 1179 1178
f 1169 1170 1179
f 1170 1180 1179
f 1170 1171 1180
f 1171 1181 1180
f 1171 1172 1181
f 1172 1182 1181
f 1172 1173 1182
f 1173 1183 1182
f 1173 1174 1183
f 1174 1184 1183
f 1174 1165 1184
f 1165 1175 1184
