# Full-Body 3D Mesh - Frame 134
v 0.005022 -0.632403 -0.120692
v 0.038830 -0.632403 -0.125553
v 0.069899 -0.632403 -0.139741
v 0.095712 -0.632403 -0.162109
v 0.114178 -0.632403 -0.190842
v 0.123801 -0.632403 -0.223614
v 0.123801 -0.632403 -0.257770
v 0.114178 -0.632403 -0.290542
v 0.095712 -0.632403 -0.319275
v 0.069899 -0.632403 -0.341642
v 0.038830 -0.632403 -0.355831
v 0.005022 -0.632403 -0.360692
v 0.005022 -0.632403 -0.120692
v 0.033463 -0.614125 -0.125553
v 0.059600 -0.597328 -0.139741
v 0.081315 -0.583372 -0.162109
v 0.096850 -0.573389 -0.190842
v 0.104945 -0.568186 -0.223614
v 0.104945 -0.568186 -0.257770
v 0.096850 -0.573389 -0.290542
v 0.081315 -0.583372 -0.319275
v 0.059600 -0.597328 -0.341642
v 0.033463 -0.614125 -0.355831
v 0.005022 -0.632403 -0.360692
v 0.005022 -0.632403 -0.120692
v 0.019066 -0.601650 -0.125553
v 0.031973 -0.573389 -0.139741
v 0.042696 -0.549908 -0.162109
v 0.050367 -0.533111 -0.190842
v 0.054364 -0.524358 -0.223614
v 0.054364 -0.524358 -0.257770
v 0.050367 -0.533111 -0.290542
v 0.042696 -0.549908 -0.319275
v 0.031973 -0.573389 -0.341642
v 0.019066 -0.601650 -0.355831
v 0.005022 -0.632403 -0.360692
v 0.005022 -0.632403 -0.120692
v 0.000211 -0.598939 -0.125553
v -0.004211 -0.568186 -0.139741
v -0.007885 -0.542636 -0.162109
v -0.010513 -0.524358 -0.190842
v -0.011882 -0.514833 -0.223614
v -0.011882 -0.514833 -0.257770
v -0.010513 -0.524358 -0.290542
v -0.007885 -0.542636 -0.319275
v -0.004211 -0.568186 -0.341642
v 0.000211 -0.598939 -0.355831
v 0.005022 -0.632403 -0.360692
v 0.005022 -0.632403 -0.120692
v -0.017118 -0.606853 -0.125553
v -0.037463 -0.583372 -0.139741
v -0.054367 -0.563864 -0.162109
v -0.066460 -0.549908 -0.190842
v -0.072761 -0.542636 -0.223614
v -0.072761 -0.542636 -0.257770
v -0.066460 -0.549908 -0.290542
v -0.054367 -0.563864 -0.319275
v -0.037463 -0.583372 -0.341642
v -0.017118 -0.606853 -0.355831
v 0.005022 -0.632403 -0.360692
v 0.005022 -0.632403 -0.120692
v -0.027416 -0.622878 -0.125553
v -0.057227 -0.614125 -0.139741
v -0.081994 -0.606853 -0.162109
v -0.099712 -0.601650 -0.190842
v -0.108945 -0.598939 -0.223614
v -0.108945 -0.598939 -0.257770
v -0.099712 -0.601650 -0.290542
v -0.081994 -0.606853 -0.319275
v -0.057227 -0.614125 -0.341642
v -0.027416 -0.622878 -0.355831
v 0.005022 -0.632403 -0.360692
v 0.005022 -0.632403 -0.120692
v -0.027416 -0.641928 -0.125553
v -0.057227 -0.650681 -0.139741
v -0.081994 -0.657953 -0.162109
v -0.099712 -0.663156 -0.190842
v -0.108945 -0.665867 -0.223614
v -0.108945 -0.665867 -0.257770
v -0.099712 -0.663156 -0.290542
v -0.081994 -0.657953 -0.319275
v -0.057227 -0.650681 -0.341642
v -0.027416 -0.641928 -0.355831
v 0.005022 -0.632403 -0.360692
v 0.005022 -0.632403 -0.120692
v -0.017118 -0.657953 -0.125553
v -0.037463 -0.681434 -0.139741
v -0.054367 -0.700942 -0.162109
v -0.066460 -0.714897 -0.190842
v -0.072761 -0.722170 -0.223614
v -0.072761 -0.722170 -0.257770
v -0.066460 -0.714897 -0.290542
v -0.054367 -0.700942 -0.319275
v -0.037463 -0.681434 -0.341642
v -0.017118 -0.657953 -0.355831
v 0.005022 -0.632403 -0.360692
v 0.005022 -0.632403 -0.120692
v 0.000211 -0.665867 -0.125553
v -0.004211 -0.696620 -0.139741
v -0.007885 -0.722170 -0.162109
v -0.010513 -0.740448 -0.190842
v -0.011882 -0.749973 -0.223614
v -0.011882 -0.749973 -0.257770
v -0.010513 -0.740448 -0.290542
v -0.007885 -0.722170 -0.319275
v -0.004211 -0.696620 -0.341642
v 0.000211 -0.665867 -0.355831
v 0.005022 -0.632403 -0.360692
v 0.005022 -0.632403 -0.120692
v 0.019066 -0.663156 -0.125553
v 0.031973 -0.691417 -0.139741
v 0.042696 -0.714897 -0.162109
v 0.050367 -0.731695 -0.190842
v 0.054364 -0.740448 -0.223614
v 0.054364 -0.740448 -0.257770
v 0.050367 -0.731695 -0.290542
v 0.042696 -0.714897 -0.319275
v 0.031973 -0.691417 -0.341642
v 0.019066 -0.663156 -0.355831
v 0.005022 -0.632403 -0.360692
v 0.005022 -0.632403 -0.120692
v 0.033463 -0.650681 -0.125553
v 0.059600 -0.667478 -0.139741
v 0.081315 -0.681434 -0.162109
v 0.096850 -0.691417 -0.190842
v 0.104945 -0.696620 -0.223614
v 0.104945 -0.696620 -0.257770
v 0.096850 -0.691417 -0.290542
v 0.081315 -0.681434 -0.319275
v 0.059600 -0.667478 -0.341642
v 0.033463 -0.650681 -0.355831
v 0.005022 -0.632403 -0.360692
v 0.005022 -0.632403 -0.120692
v 0.038830 -0.632403 -0.125553
v 0.069899 -0.632403 -0.139741
v 0.095712 -0.632403 -0.162109
v 0.114178 -0.632403 -0.190842
v 0.123801 -0.632403 -0.223614
v 0.123801 -0.632403 -0.257770
v 0.114178 -0.632403 -0.290542
v 0.095712 -0.632403 -0.319275
v 0.069899 -0.632403 -0.341642
v 0.038830 -0.632403 -0.355831
v 0.005022 -0.632403 -0.360692
v 0.173289 -0.441918 -0.061932
v 0.172371 -0.465427 -0.054340
v 0.169291 -0.479956 -0.034578
v 0.165224 -0.479956 -0.010193
v 0.161724 -0.465427 0.009499
v 0.160128 -0.441918 0.016978
v 0.161045 -0.418409 0.009386
v 0.164125 -0.403880 -0.010376
v 0.168192 -0.403880 -0.034761
v 0.171692 -0.418409 -0.054453
v -0.171811 -0.447039 -0.119489
v -0.172728 -0.470548 -0.111897
v -0.175808 -0.485077 -0.092134
v -0.179875 -0.485077 -0.067750
v -0.183375 -0.470548 -0.048057
v -0.184972 -0.447039 -0.040579
v -0.184054 -0.423530 -0.048170
v -0.180974 -0.409001 -0.067933
v -0.176907 -0.409001 -0.092317
v -0.173407 -0.423530 -0.112010
v 0.166708 -0.446584 -0.062204
v 0.143722 -0.440785 -0.055193
v 0.129516 -0.435418 -0.035686
v 0.129516 -0.432534 -0.011134
v 0.143722 -0.433234 0.009086
v 0.166708 -0.437251 0.017250
v 0.189694 -0.443051 0.010239
v 0.203900 -0.448418 -0.009268
v 0.203900 -0.451302 -0.033820
v 0.189694 -0.450602 -0.054040
v 0.213452 -0.230661 -0.087568
v 0.190466 -0.224861 -0.080557
v 0.176259 -0.219494 -0.061050
v 0.176259 -0.216610 -0.036498
v 0.190466 -0.217310 -0.016278
v 0.213452 -0.221327 -0.008114
v 0.236438 -0.227127 -0.015125
v 0.250644 -0.232494 -0.034632
v 0.250644 -0.235378 -0.059185
v 0.236438 -0.234678 -0.079404
v 0.213452 -0.265615 -0.053331
v 0.190056 -0.258368 -0.049979
v 0.175596 -0.238754 -0.045810
v 0.175596 -0.214267 -0.042417
v 0.190056 -0.194259 -0.041096
v 0.213452 -0.186372 -0.042351
v 0.236848 -0.193620 -0.045703
v 0.251307 -0.213234 -0.049872
v 0.251307 -0.237721 -0.053265
v 0.236848 -0.257729 -0.054587
v 0.193406 -0.237937 -0.253081
v 0.170009 -0.230689 -0.249729
v 0.155550 -0.211076 -0.245560
v 0.155550 -0.186588 -0.242167
v 0.170009 -0.166580 -0.240845
v 0.193406 -0.158694 -0.242100
v 0.216802 -0.165942 -0.245453
v 0.231261 -0.185555 -0.249622
v 0.231261 -0.210043 -0.253015
v 0.216802 -0.230051 -0.254336
v -0.178391 -0.466132 -0.115183
v -0.200257 -0.470079 -0.104345
v -0.213771 -0.465225 -0.084221
v -0.213771 -0.453425 -0.062498
v -0.200257 -0.439186 -0.047473
v -0.178391 -0.427946 -0.044885
v -0.156525 -0.423999 -0.055722
v -0.143011 -0.428852 -0.075846
v -0.143011 -0.440653 -0.097569
v -0.156525 -0.454892 -0.112595
v -0.264324 -0.275056 -0.218975
v -0.286190 -0.279003 -0.208137
v -0.299704 -0.274150 -0.188013
v -0.299704 -0.262350 -0.166290
v -0.286190 -0.248110 -0.151265
v -0.264324 -0.236870 -0.148676
v -0.242459 -0.232924 -0.159514
v -0.228945 -0.237777 -0.179638
v -0.228945 -0.249577 -0.201361
v -0.242459 -0.263817 -0.216386
v -0.264324 -0.293798 -0.170844
v -0.284343 -0.290574 -0.184987
v -0.296715 -0.274130 -0.198686
v -0.296715 -0.250747 -0.206709
v -0.284343 -0.229356 -0.205991
v -0.264324 -0.218128 -0.196807
v -0.244306 -0.221353 -0.182664
v -0.231934 -0.237797 -0.168965
v -0.231934 -0.261180 -0.160943
v -0.244306 -0.282571 -0.161660
v -0.132948 -0.363017 -0.372586
v -0.152966 -0.359793 -0.386728
v -0.165339 -0.343349 -0.400427
v -0.165339 -0.319965 -0.408450
v -0.152966 -0.298575 -0.407732
v -0.132948 -0.287347 -0.398548
v -0.112929 -0.290571 -0.384406
v -0.100557 -0.307016 -0.370707
v -0.100557 -0.330399 -0.362684
v -0.112929 -0.351790 -0.363402
v 0.166708 -0.437874 -0.062272
v 0.143296 -0.440789 -0.054890
v 0.128826 -0.444135 -0.035127
v 0.128826 -0.446634 -0.010532
v 0.143296 -0.447332 0.009500
v 0.166708 -0.445961 0.017318
v 0.190121 -0.443047 0.009936
v 0.204590 -0.439701 -0.009827
v 0.204590 -0.437202 -0.034422
v 0.190121 -0.436504 -0.054454
v 0.125559 0.007187 -0.017049
v 0.102147 0.004272 -0.009667
v 0.087677 0.000926 0.010096
v 0.087677 -0.001573 0.034691
v 0.102147 -0.002271 0.054723
v 0.125559 -0.000901 0.062541
v 0.148972 0.002014 0.055159
v 0.163442 0.005360 0.035396
v 0.163442 0.007859 0.010801
v 0.148972 0.008557 -0.009231
v -0.178391 -0.441467 -0.119644
v -0.201728 -0.439699 -0.111680
v -0.216151 -0.440734 -0.091629
v -0.216151 -0.444177 -0.067149
v -0.201728 -0.448713 -0.047590
v -0.178391 -0.452610 -0.040424
v -0.155054 -0.454379 -0.048387
v -0.140631 -0.453344 -0.068438
v -0.140631 -0.449900 -0.092918
v -0.155054 -0.445364 -0.112477
v -0.125446 -0.013741 -0.059482
v -0.148782 -0.011972 -0.051519
v -0.163205 -0.013007 -0.031467
v -0.163205 -0.016450 -0.006987
v -0.148782 -0.020987 0.012572
v -0.125446 -0.024883 0.019738
v -0.102109 -0.026652 0.011775
v -0.087686 -0.025617 -0.008276
v -0.087686 -0.022174 -0.032757
v -0.102109 -0.017637 -0.052315
v 0.132255 0.003143 -0.016690
v 0.133013 -0.020277 -0.008812
v 0.130924 -0.034752 0.011119
v 0.126785 -0.034752 0.035492
v 0.122179 -0.020277 0.054996
v 0.118864 0.003143 0.062182
v 0.118106 0.026564 0.054304
v 0.120195 0.041038 0.034373
v 0.124333 0.041038 0.010000
v 0.128940 0.026564 -0.009504
v -0.118750 -0.019312 -0.059307
v -0.117992 -0.042733 -0.051430
v -0.120081 -0.057207 -0.031499
v -0.124219 -0.057207 -0.007126
v -0.128826 -0.042733 0.012378
v -0.132141 -0.019312 0.019564
v -0.132899 0.004108 0.011687
v -0.130810 0.018583 -0.008245
v -0.126672 0.018583 -0.032617
v -0.122065 0.004108 -0.052122
v 0.125559 -0.022136 -0.008254
v 0.102154 -0.015577 -0.003745
v 0.087689 -0.001868 0.010883
v 0.087689 0.013756 0.030042
v 0.102154 0.025325 0.046414
v 0.125559 0.028422 0.053746
v 0.148965 0.021863 0.049237
v 0.163430 0.008154 0.034610
v 0.163430 -0.007469 0.015451
v 0.148965 -0.019039 -0.000922
v 0.141111 0.104154 -0.111236
v 0.117706 0.110712 -0.106728
v 0.103241 0.124422 -0.092100
v 0.103241 0.140045 -0.072941
v 0.117706 0.151614 -0.056569
v 0.141111 0.154711 -0.049237
v 0.164516 0.148152 -0.053746
v 0.178981 0.134443 -0.068373
v 0.178981 0.118820 -0.087532
v 0.164516 0.107250 -0.103904
v 0.141111 0.154154 -0.111683
v 0.117796 0.151817 -0.103803
v 0.103387 0.140930 -0.086921
v 0.103387 0.125651 -0.067486
v 0.117796 0.111817 -0.052922
v 0.141111 0.104711 -0.048791
v 0.164426 0.107048 -0.056671
v 0.178835 0.117935 -0.073553
v 0.178835 0.133213 -0.092987
v 0.164426 0.147048 -0.107552
v 0.180121 0.389881 0.073634
v 0.156806 0.387544 0.081515
v 0.142397 0.376657 0.098396
v 0.142397 0.361379 0.117831
v 0.156806 0.347544 0.132395
v 0.180121 0.340438 0.136527
v 0.203436 0.342775 0.128646
v 0.217845 0.353662 0.111765
v 0.217845 0.368941 0.092330
v 0.203436 0.382775 0.077765
v -0.125446 -0.059305 -0.020606
v -0.147365 -0.051511 -0.028970
v -0.160911 -0.031418 -0.033858
v -0.160911 -0.006701 -0.033404
v -0.147365 0.013199 -0.027781
v -0.125446 0.020681 -0.019137
v -0.103526 0.012887 -0.010773
v -0.089980 -0.007206 -0.005885
v -0.089980 -0.031923 -0.006339
v -0.103526 -0.051824 -0.011962
v -0.062398 -0.056321 -0.183061
v -0.084317 -0.048526 -0.191424
v -0.097864 -0.028433 -0.196313
v -0.097864 -0.003716 -0.195858
v -0.084317 0.016184 -0.190235
v -0.062398 0.023666 -0.181591
v -0.040479 0.015872 -0.173228
v -0.026932 -0.004222 -0.168340
v -0.026932 -0.028939 -0.168794
v -0.040479 -0.048839 -0.174417
v -0.062398 -0.011434 -0.222026
v -0.085907 -0.012722 -0.214487
v -0.100436 -0.015387 -0.194664
v -0.100436 -0.018412 -0.170129
v -0.085907 -0.020640 -0.150252
v -0.062398 -0.021221 -0.142627
v -0.038889 -0.019933 -0.150165
v -0.024360 -0.017267 -0.169988
v -0.024360 -0.014243 -0.194523
v -0.038889 -0.012015 -0.214400
v -0.066761 0.274213 -0.186816
v -0.090269 0.272924 -0.179278
v -0.104799 0.270259 -0.159455
v -0.104799 0.267235 -0.134919
v -0.090269 0.265007 -0.115042
v -0.066761 0.264426 -0.107417
v -0.043252 0.265714 -0.114955
v -0.028723 0.268379 -0.134778
v -0.028723 0.271404 -0.159314
v -0.043252 0.273632 -0.179190
v -0.050824 0.022672 0.046711
v -0.058438 0.018299 0.043736
v -0.063144 0.015740 0.036170
v -0.063144 0.015971 0.026902
v -0.058438 0.018906 0.019473
v -0.050824 0.023421 0.016721
v -0.043211 0.027794 0.019696
v -0.038505 0.030353 0.027262
v -0.038505 0.030121 0.036530
v -0.043211 0.027187 0.043959
v -0.037729 0.000249 0.046151
v -0.045343 -0.004123 0.043176
v -0.050048 -0.006683 0.035609
v -0.050048 -0.006451 0.026342
v -0.045343 -0.003517 0.018913
v -0.037729 0.000999 0.016160
v -0.030115 0.005371 0.019135
v -0.025409 0.007931 0.026701
v -0.025409 0.007699 0.035969
v -0.030115 0.004765 0.043398
v -0.037729 0.000813 0.046154
v -0.043242 -0.006103 0.043376
v -0.046650 -0.010449 0.035931
v -0.046650 -0.010566 0.026661
v -0.043242 -0.006409 0.019108
v -0.037729 0.000435 0.016157
v -0.032215 0.007351 0.018934
v -0.028808 0.011697 0.026380
v -0.028808 0.011814 0.035650
v -0.032215 0.007657 0.043203
v -0.023154 -0.010865 0.046301
v -0.028668 -0.017781 0.043524
v -0.032075 -0.022127 0.036078
v -0.032075 -0.022244 0.026808
v -0.028668 -0.018087 0.019255
v -0.023154 -0.011243 0.016304
v -0.017641 -0.004327 0.019082
v -0.014233 0.000019 0.026527
v -0.014233 0.000136 0.035797
v -0.017641 -0.004021 0.043350
v -0.023154 -0.010073 0.046270
v -0.030038 -0.015758 0.043772
v -0.034293 -0.019646 0.036511
v -0.034293 -0.020252 0.027260
v -0.030038 -0.017345 0.019554
v -0.023154 -0.012035 0.016335
v -0.016271 -0.006350 0.018833
v -0.012016 -0.002463 0.026094
v -0.012016 -0.001856 0.035345
v -0.016271 -0.004763 0.043052
v -0.014905 -0.020359 0.046945
v -0.021789 -0.026043 0.044446
v -0.026043 -0.029931 0.037185
v -0.026043 -0.030538 0.027934
v -0.021789 -0.027631 0.020228
v -0.014905 -0.022321 0.017009
v -0.008021 -0.016636 0.019507
v -0.003767 -0.012748 0.026768
v -0.003767 -0.012142 0.036019
v -0.008021 -0.015049 0.043726
v -0.014905 -0.024974 0.046530
v -0.023262 -0.027006 0.043070
v -0.028427 -0.026874 0.035372
v -0.028427 -0.024628 0.026378
v -0.023262 -0.021126 0.019522
v -0.014905 -0.017706 0.017423
v -0.006548 -0.015674 0.020884
v -0.001383 -0.015806 0.028581
v -0.001383 -0.018052 0.037575
v -0.006548 -0.021554 0.044431
v -0.008201 -0.044319 0.041700
v -0.016558 -0.046351 0.038239
v -0.021723 -0.046219 0.030542
v -0.021723 -0.043973 0.021548
v -0.016558 -0.040471 0.014692
v -0.008201 -0.037051 0.012593
v 0.000156 -0.035019 0.016053
v 0.005321 -0.035151 0.023751
v 0.005321 -0.037397 0.032745
v 0.000156 -0.040899 0.039601
v -0.050824 0.013194 0.043027
v -0.056792 0.010182 0.036604
v -0.060480 0.012083 0.028314
v -0.060480 0.018172 0.021323
v -0.056792 0.026123 0.018302
v -0.050824 0.032899 0.020405
v -0.044857 0.035911 0.026828
v -0.041169 0.034010 0.035118
v -0.041169 0.027921 0.042109
v -0.044857 0.019970 0.045130
v -0.002038 -0.020630 0.013564
v -0.008005 -0.023643 0.007141
v -0.011693 -0.021741 -0.001149
v -0.011693 -0.015652 -0.008140
v -0.008005 -0.007702 -0.011160
v -0.002038 -0.000926 -0.009058
v 0.003930 0.002086 -0.002635
v 0.007618 0.000185 0.005655
v 0.007618 -0.005904 0.012646
v 0.003930 -0.013855 0.015667
v 0.000085 -0.010778 0.017102
v -0.000888 -0.019576 0.014347
v -0.002299 -0.025014 0.006973
v -0.003611 -0.025014 -0.002204
v -0.004322 -0.019576 -0.009679
v -0.004160 -0.010778 -0.012596
v -0.003187 -0.001980 -0.009841
v -0.001776 0.003457 -0.002467
v -0.000464 0.003457 0.006711
v 0.000246 -0.001980 0.014185
v 0.013400 -0.011654 0.015199
v 0.012428 -0.020452 0.012444
v 0.011016 -0.025890 0.005070
v 0.009704 -0.025890 -0.004107
v 0.008994 -0.020452 -0.011582
v 0.009156 -0.011654 -0.014499
v 0.010128 -0.002856 -0.011744
v 0.011540 0.002582 -0.004370
v 0.012851 0.002582 0.004808
v 0.013562 -0.002856 0.012282
v 0.011278 -0.000186 0.010019
v 0.006188 -0.007017 0.013677
v 0.003043 -0.015619 0.012244
v 0.003043 -0.022707 0.006268
v 0.006188 -0.025573 -0.001968
v 0.011278 -0.023122 -0.009319
v 0.016367 -0.016291 -0.012976
v 0.019512 -0.007689 -0.011544
v 0.019512 -0.000601 -0.005568
v 0.016367 0.002265 0.002668
v 0.028778 -0.008160 0.019477
v 0.023689 -0.014991 0.023135
v 0.020544 -0.023594 0.021702
v 0.020544 -0.030681 0.015726
v 0.023689 -0.033547 0.007490
v 0.028778 -0.031096 0.000139
v 0.033868 -0.024265 -0.003519
v 0.037013 -0.015663 -0.002086
v 0.037013 -0.008575 0.003890
v 0.033868 -0.005710 0.012126
v 0.028778 -0.005595 0.015105
v 0.023393 -0.010740 0.020625
v 0.020065 -0.019281 0.022013
v 0.020065 -0.027954 0.018739
v 0.023393 -0.033447 0.012054
v 0.028778 -0.033662 0.004511
v 0.034164 -0.028516 -0.001009
v 0.037492 -0.019976 -0.002397
v 0.037492 -0.011303 0.000877
v 0.034164 -0.005810 0.007562
v 0.046510 -0.010425 0.027902
v 0.041125 -0.015570 0.033421
v 0.037797 -0.024111 0.034809
v 0.037797 -0.032784 0.031536
v 0.041125 -0.038277 0.024850
v 0.046510 -0.038492 0.017307
v 0.051895 -0.033346 0.011788
v 0.055223 -0.024806 0.010400
v 0.055223 -0.016133 0.013673
v 0.051895 -0.010640 0.020359
v -0.050824 0.011335 0.041089
v -0.056413 0.009311 0.033975
v -0.059867 0.012533 0.025998
v -0.059867 0.019771 0.020205
v -0.056413 0.028260 0.018809
v -0.050824 0.034757 0.022343
v -0.045236 0.036782 0.029457
v -0.041782 0.033560 0.037434
v -0.041782 0.026322 0.043227
v -0.045236 0.017833 0.044623
v -0.000650 -0.014360 0.008984
v -0.006238 -0.016385 0.001870
v -0.009693 -0.013163 -0.006107
v -0.009693 -0.005925 -0.011900
v -0.006238 0.002564 -0.013296
v -0.000650 0.009062 -0.009762
v 0.004939 0.011086 -0.002648
v 0.008393 0.007864 0.005329
v 0.008393 0.000627 0.011122
v 0.004939 -0.007862 0.012518
v 0.002157 -0.002649 0.014346
v -0.000420 -0.011217 0.011921
v -0.003085 -0.016513 0.004794
v -0.004820 -0.016513 -0.004313
v -0.004962 -0.011217 -0.011921
v -0.003457 -0.002649 -0.015124
v -0.000879 0.005919 -0.012699
v 0.001786 0.011215 -0.005572
v 0.003521 0.011215 0.003535
v 0.003663 0.005919 0.011143
v 0.020347 -0.007140 0.010881
v 0.017769 -0.015709 0.008455
v 0.015104 -0.021004 0.001328
v 0.013369 -0.021004 -0.007779
v 0.013227 -0.015709 -0.015386
v 0.014733 -0.007140 -0.018589
v 0.017310 0.001428 -0.016164
v 0.019976 0.006724 -0.009037
v 0.021710 0.006724 0.000070
v 0.021852 0.001428 0.007678
v 0.017540 0.003906 0.006294
v 0.013458 -0.003491 0.010111
v 0.010935 -0.012282 0.008593
v 0.010935 -0.019108 0.002321
v 0.013458 -0.021364 -0.006310
v 0.017540 -0.018186 -0.014003
v 0.021622 -0.010789 -0.017819
v 0.024145 -0.001999 -0.016302
v 0.024145 0.004828 -0.010030
v 0.021622 0.007083 -0.001399
v 0.041482 -0.004556 0.015504
v 0.037400 -0.011953 0.019320
v 0.034877 -0.020743 0.017803
v 0.034877 -0.027570 0.011531
v 0.037400 -0.029825 0.002900
v 0.041482 -0.026647 -0.004793
v 0.045565 -0.019251 -0.008610
v 0.048088 -0.010460 -0.007092
v 0.048088 -0.003633 -0.000820
v 0.045565 -0.001378 0.007811
v 0.041482 -0.003456 0.014158
v 0.036006 -0.009830 0.018071
v 0.032621 -0.018409 0.017128
v 0.032621 -0.025915 0.011688
v 0.036006 -0.029482 0.003829
v 0.041482 -0.027747 -0.003447
v 0.046959 -0.021373 -0.007361
v 0.050344 -0.012794 -0.006417
v 0.050344 -0.005288 -0.000977
v 0.046959 -0.001721 0.006882
v 0.063541 -0.013716 0.028315
v 0.058064 -0.020091 0.032229
v 0.054679 -0.028669 0.031285
v 0.054679 -0.036176 0.025845
v 0.058064 -0.039743 0.017986
v 0.063541 -0.038008 0.010710
v 0.069018 -0.031633 0.006797
v 0.072402 -0.023055 0.007740
v 0.072402 -0.015548 0.013180
v 0.069018 -0.011981 0.021039
v -0.050824 0.009704 0.038570
v -0.055981 0.008984 0.030899
v -0.059168 0.013636 0.023541
v -0.059168 0.021882 0.019305
v -0.055981 0.030573 0.019810
v -0.050824 0.036389 0.024862
v -0.045668 0.037109 0.032533
v -0.042481 0.032457 0.039891
v -0.042481 0.024211 0.044127
v -0.045668 0.015520 0.043622
v 0.001928 -0.007674 0.004738
v -0.003228 -0.008394 -0.002932
v -0.006415 -0.003742 -0.010291
v -0.006415 0.004504 -0.014527
v -0.003228 0.013195 -0.014022
v 0.001928 0.019011 -0.008969
v 0.007084 0.019731 -0.001299
v 0.010271 0.015079 0.006060
v 0.010271 0.006833 0.010296
v 0.007084 -0.001858 0.009791
v 0.002412 0.005668 0.012877
v -0.000046 -0.002825 0.010090
v -0.001750 -0.008074 0.002641
v -0.002049 -0.008074 -0.006625
v -0.000829 -0.002825 -0.014168
v 0.001444 0.005668 -0.017108
v 0.003902 0.014162 -0.014321
v 0.005606 0.019411 -0.006872
v 0.005905 0.019411 0.002394
v 0.004685 0.014162 0.009937
v 0.015581 0.001997 0.012451
v 0.013123 -0.006496 0.009665
v 0.011419 -0.011745 0.002216
v 0.011120 -0.011745 -0.007050
v 0.012340 -0.006496 -0.014593
v 0.014613 0.001997 -0.017533
v 0.017071 0.010490 -0.014746
v 0.018775 0.015739 -0.007297
v 0.019074 0.015739 0.001968
v 0.017854 0.010490 0.009512
v 0.011067 0.001997 0.011908
v 0.010059 -0.006625 0.008653
v 0.010975 -0.011953 0.001122
v 0.013466 -0.011953 -0.007808
v 0.016580 -0.006625 -0.014726
v 0.019127 0.001997 -0.016989
v 0.020135 0.010618 -0.013734
v 0.019218 0.015947 -0.006203
v 0.016728 0.015947 0.002726
v 0.013614 0.010618 0.009644
v 0.036875 -0.003738 0.019106
v 0.035867 -0.012359 0.015851
v 0.036783 -0.017688 0.008320
v 0.039274 -0.017688 -0.000609
v 0.042388 -0.012359 -0.007527
v 0.044935 -0.003738 -0.009791
v 0.045943 0.004883 -0.006535
v 0.045026 0.010212 0.000995
v 0.042536 0.010212 0.009925
v 0.039422 0.004883 0.016843
v 0.040905 0.008074 0.013904
v 0.035309 0.001618 0.017503
v 0.031850 -0.006883 0.016196
v 0.031850 -0.014183 0.010481
v 0.035309 -0.017493 0.002543
v 0.040905 -0.015550 -0.004588
v 0.046501 -0.009094 -0.008187
v 0.049959 -0.000593 -0.006880
v 0.049959 0.006707 -0.001166
v 0.046501 0.010017 0.006773
v 0.060308 -0.001750 0.026453
v 0.054712 -0.008205 0.030052
v 0.051253 -0.016706 0.028745
v 0.051253 -0.024006 0.023031
v 0.054712 -0.027317 0.015092
v 0.060308 -0.025373 0.007961
v 0.065904 -0.018918 0.004362
v 0.069362 -0.010416 0.005669
v 0.069362 -0.003116 0.011384
v 0.065904 0.000194 0.019322
v -0.050824 0.008990 0.036951
v -0.055298 0.009023 0.028831
v -0.058063 0.014412 0.021814
v -0.058063 0.023100 0.018578
v -0.055298 0.031767 0.020361
v -0.050824 0.037103 0.026481
v -0.046351 0.037070 0.034600
v -0.043586 0.031681 0.041618
v -0.043586 0.022993 0.044854
v -0.046351 0.014326 0.043071
v -0.003528 -0.000730 0.010855
v -0.008001 -0.000697 0.002735
v -0.010766 0.004693 -0.004283
v -0.010766 0.013380 -0.007518
v -0.008001 0.022048 -0.005735
v -0.003528 0.027384 0.000385
v 0.000945 0.027351 0.008504
v 0.003710 0.021962 0.015522
v 0.003710 0.013274 0.018758
v 0.000945 0.004607 0.016975
v -0.001141 0.013327 0.020429
v 0.000658 0.004812 0.017237
v 0.000859 -0.000451 0.009608
v -0.000616 -0.000451 0.000456
v -0.003203 0.004812 -0.006724
v -0.005914 0.013327 -0.009189
v -0.007714 0.021843 -0.005997
v -0.007915 0.027106 0.001632
v -0.006440 0.027106 0.010784
v -0.003853 0.021843 0.017964
v 0.012309 0.016983 0.018261
v 0.014109 0.008467 0.015069
v 0.014310 0.003204 0.007440
v 0.012835 0.003204 -0.001712
v 0.010248 0.008467 -0.008892
v 0.007536 0.016983 -0.011357
v 0.005737 0.025498 -0.008165
v 0.005536 0.030761 -0.000536
v 0.007011 0.030761 0.008617
v 0.009598 0.025498 0.015796
v 0.007357 0.016983 0.018231
v 0.008389 0.008183 0.015503
v 0.010007 0.002745 0.008172
v 0.011593 0.002745 -0.000962
v 0.012541 0.008183 -0.008410
v 0.012489 0.016983 -0.011327
v 0.011457 0.025782 -0.008598
v 0.009839 0.031221 -0.001267
v 0.008253 0.031221 0.007867
v 0.007304 0.025782 0.015314
v 0.026728 0.018212 0.021595
v 0.027760 0.009413 0.018867
v 0.029378 0.003974 0.011535
v 0.030964 0.003974 0.002401
v 0.031912 0.009413 -0.005046
v 0.031860 0.018212 -0.007963
v 0.030828 0.027012 -0.005234
v 0.029210 0.032450 0.002097
v 0.027624 0.032450 0.011231
v 0.026676 0.027012 0.018678
v 0.029294 0.031100 0.014491
v 0.024893 0.024730 0.019589
v 0.022174 0.015870 0.019809
v 0.022174 0.007905 0.015066
v 0.024893 0.003877 0.007172
v 0.029294 0.005324 -0.000858
v 0.033694 0.011694 -0.005957
v 0.036414 0.020554 -0.006177
v 0.036414 0.028520 -0.001434
v 0.033694 0.032548 0.006460
v 0.044453 0.026633 0.021992
v 0.040052 0.020263 0.027091
v 0.037332 0.011403 0.027311
v 0.037332 0.003438 0.022568
v 0.040052 -0.000591 0.014673
v 0.044453 0.000857 0.006643
v 0.048853 0.007227 0.001545
v 0.051573 0.016087 0.001325
v 0.051573 0.024052 0.006068
v 0.048853 0.028081 0.013962
f 1 2 13
f 2 14 13
f 2 3 14
f 3 15 14
f 3 4 15
f 4 16 15
f 4 5 16
f 5 17 16
f 5 6 17
f 6 18 17
f 6 7 18
f 7 19 18
f 7 8 19
f 8 20 19
f 8 9 20
f 9 21 20
f 9 10 21
f 10 22 21
f 10 11 22
f 11 23 22
f 11 12 23
f 12 24 23
f 13 14 25
f 14 26 25
f 14 15 26
f 15 27 26
f 15 16 27
f 16 28 27
f 16 17 28
f 17 29 28
f 17 18 29
f 18 30 29
f 18 19 30
f 19 31 30
f 19 20 31
f 20 32 31
f 20 21 32
f 21 33 32
f 21 22 33
f 22 34 33
f 22 23 34
f 23 35 34
f 23 24 35
f 24 36 35
f 25 26 37
f 26 38 37
f 26 27 38
f 27 39 38
f 27 28 39
f 28 40 39
f 28 29 40
f 29 41 40
f 29 30 41
f 30 42 41
f 30 31 42
f 31 43 42
f 31 32 43
f 32 44 43
f 32 33 44
f 33 45 44
f 33 34 45
f 34 46 45
f 34 35 46
f 35 47 46
f 35 36 47
f 36 48 47
f 37 38 49
f 38 50 49
f 38 39 50
f 39 51 50
f 39 40 51
f 40 52 51
f 40 41 52
f 41 53 52
f 41 42 53
f 42 54 53
f 42 43 54
f 43 55 54
f 43 44 55
f 44 56 55
f 44 45 56
f 45 57 56
f 45 46 57
f 46 58 57
f 46 47 58
f 47 59 58
f 47 48 59
f 48 60 59
f 49 50 61
f 50 62 61
f 50 51 62
f 51 63 62
f 51 52 63
f 52 64 63
f 52 53 64
f 53 65 64
f 53 54 65
f 54 66 65
f 54 55 66
f 55 67 66
f 55 56 67
f 56 68 67
f 56 57 68
f 57 69 68
f 57 58 69
f 58 70 69
f 58 59 70
f 59 71 70
f 59 60 71
f 60 72 71
f 61 62 73
f 62 74 73
f 62 63 74
f 63 75 74
f 63 64 75
f 64 76 75
f 64 65 76
f 65 77 76
f 65 66 77
f 66 78 77
f 66 67 78
f 67 79 78
f 67 68 79
f 68 80 79
f 68 69 80
f 69 81 80
f 69 70 81
f 70 82 81
f 70 71 82
f 71 83 82
f 71 72 83
f 72 84 83
f 73 74 85
f 74 86 85
f 74 75 86
f 75 87 86
f 75 76 87
f 76 88 87
f 76 77 88
f 77 89 88
f 77 78 89
f 78 90 89
f 78 79 90
f 79 91 90
f 79 80 91
f 80 92 91
f 80 81 92
f 81 93 92
f 81 82 93
f 82 94 93
f 82 83 94
f 83 95 94
f 83 84 95
f 84 96 95
f 85 86 97
f 86 98 97
f 86 87 98
f 87 99 98
f 87 88 99
f 88 100 99
f 88 89 100
f 89 101 100
f 89 90 101
f 90 102 101
f 90 91 102
f 91 103 102
f 91 92 103
f 92 104 103
f 92 93 104
f 93 105 104
f 93 94 105
f 94 106 105
f 94 95 106
f 95 107 106
f 95 96 107
f 96 108 107
f 97 98 109
f 98 110 109
f 98 99 110
f 99 111 110
f 99 100 111
f 100 112 111
f 100 101 112
f 101 113 112
f 101 102 113
f 102 114 113
f 102 103 114
f 103 115 114
f 103 104 115
f 104 116 115
f 104 105 116
f 105 117 116
f 105 106 117
f 106 118 117
f 106 107 118
f 107 119 118
f 107 108 119
f 108 120 119
f 109 110 121
f 110 122 121
f 110 111 122
f 111 123 122
f 111 112 123
f 112 124 123
f 112 113 124
f 113 125 124
f 113 114 125
f 114 126 125
f 114 115 126
f 115 127 126
f 115 116 127
f 116 128 127
f 116 117 128
f 117 129 128
f 117 118 129
f 118 130 129
f 118 119 130
f 119 131 130
f 119 120 131
f 120 132 131
f 121 122 133
f 122 134 133
f 122 123 134
f 123 135 134
f 123 124 135
f 124 136 135
f 124 125 136
f 125 137 136
f 125 126 137
f 126 138 137
f 126 127 138
f 127 139 138
f 127 128 139
f 128 140 139
f 128 129 140
f 129 141 140
f 129 130 141
f 130 142 141
f 130 131 142
f 131 143 142
f 131 132 143
f 132 144 143
f 145 146 155
f 146 156 155
f 146 147 156
f 147 157 156
f 147 148 157
f 148 158 157
f 148 149 158
f 149 159 158
f 149 150 159
f 150 160 159
f 150 151 160
f 151 161 160
f 151 152 161
f 152 162 161
f 152 153 162
f 153 163 162
f 153 154 163
f 154 164 163
f 154 145 164
f 145 155 164
f 165 166 175
f 166 176 175
f 166 167 176
f 167 177 176
f 167 168 177
f 168 178 177
f 168 169 178
f 169 179 178
f 169 170 179
f 170 180 179
f 170 171 180
f 171 181 180
f 171 172 181
f 172 182 181
f 172 173 182
f 173 183 182
f 173 174 183
f 174 184 183
f 174 165 184
f 165 175 184
f 185 186 195
f 186 196 195
f 186 187 196
f 187 197 196
f 187 188 197
f 188 198 197
f 188 189 198
f 189 199 198
f 189 190 199
f 190 200 199
f 190 191 200
f 191 201 200
f 191 192 201
f 192 202 201
f 192 193 202
f 193 203 202
f 193 194 203
f 194 204 203
f 194 185 204
f 185 195 204
f 205 206 215
f 206 216 215
f 206 207 216
f 207 217 216
f 207 208 217
f 208 218 217
f 208 209 218
f 209 219 218
f 209 210 219
f 210 220 219
f 210 211 220
f 211 221 220
f 211 212 221
f 212 222 221
f 212 213 222
f 213 223 222
f 213 214 223
f 214 224 223
f 214 205 224
f 205 215 224
f 225 226 235
f 226 236 235
f 226 227 236
f 227 237 236
f 227 228 237
f 228 238 237
f 228 229 238
f 229 239 238
f 229 230 239
f 230 240 239
f 230 231 240
f 231 241 240
f 231 232 241
f 232 242 241
f 232 233 242
f 233 243 242
f 233 234 243
f 234 244 243
f 234 225 244
f 225 235 244
f 245 246 255
f 246 256 255
f 246 247 256
f 247 257 256
f 247 248 257
f 248 258 257
f 248 249 258
f 249 259 258
f 249 250 259
f 250 260 259
f 250 251 260
f 251 261 260
f 251 252 261
f 252 262 261
f 252 253 262
f 253 263 262
f 253 254 263
f 254 264 263
f 254 245 264
f 245 255 264
f 265 266 275
f 266 276 275
f 266 267 276
f 267 277 276
f 267 268 277
f 268 278 277
f 268 269 278
f 269 279 278
f 269 270 279
f 270 280 279
f 270 271 280
f 271 281 280
f 271 272 281
f 272 282 281
f 272 273 282
f 273 283 282
f 273 274 283
f 274 284 283
f 274 265 284
f 265 275 284
f 285 286 295
f 286 296 295
f 286 287 296
f 287 297 296
f 287 288 297
f 288 298 297
f 288 289 298
f 289 299 298
f 289 290 299
f 290 300 299
f 290 291 300
f 291 301 300
f 291 292 301
f 292 302 301
f 292 293 302
f 293 303 302
f 293 294 303
f 294 304 303
f 294 285 304
f 285 295 304
f 305 306 315
f 306 316 315
f 306 307 316
f 307 317 316
f 307 308 317
f 308 318 317
f 308 309 318
f 309 319 318
f 309 310 319
f 310 320 319
f 310 311 320
f 311 321 320
f 311 312 321
f 312 322 321
f 312 313 322
f 313 323 322
f 313 314 323
f 314 324 323
f 314 305 324
f 305 315 324
f 325 326 335
f 326 336 335
f 326 327 336
f 327 337 336
f 327 328 337
f 328 338 337
f 328 329 338
f 329 339 338
f 329 330 339
f 330 340 339
f 330 331 340
f 331 341 340
f 331 332 341
f 332 342 341
f 332 333 342
f 333 343 342
f 333 334 343
f 334 344 343
f 334 325 344
f 325 335 344
f 345 346 355
f 346 356 355
f 346 347 356
f 347 357 356
f 347 348 357
f 348 358 357
f 348 349 358
f 349 359 358
f 349 350 359
f 350 360 359
f 350 351 360
f 351 361 360
f 351 352 361
f 352 362 361
f 352 353 362
f 353 363 362
f 353 354 363
f 354 364 363
f 354 345 364
f 345 355 364
f 365 366 375
f 366 376 375
f 366 367 376
f 367 377 376
f 367 368 377
f 368 378 377
f 368 369 378
f 369 379 378
f 369 370 379
f 370 380 379
f 370 371 380
f 371 381 380
f 371 372 381
f 372 382 381
f 372 373 382
f 373 383 382
f 373 374 383
f 374 384 383
f 374 365 384
f 365 375 384
f 385 386 395
f 386 396 395
f 386 387 396
f 387 397 396
f 387 388 397
f 388 398 397
f 388 389 398
f 389 399 398
f 389 390 399
f 390 400 399
f 390 391 400
f 391 401 400
f 391 392 401
f 392 402 401
f 392 393 402
f 393 403 402
f 393 394 403
f 394 404 403
f 394 385 404
f 385 395 404
f 405 406 415
f 406 416 415
f 406 407 416
f 407 417 416
f 407 408 417
f 408 418 417
f 408 409 418
f 409 419 418
f 409 410 419
f 410 420 419
f 410 411 420
f 411 421 420
f 411 412 421
f 412 422 421
f 412 413 422
f 413 423 422
f 413 414 423
f 414 424 423
f 414 405 424
f 405 415 424
f 425 426 435
f 426 436 435
f 426 427 436
f 427 437 436
f 427 428 437
f 428 438 437
f 428 429 438
f 429 439 438
f 429 430 439
f 430 440 439
f 430 431 440
f 431 441 440
f 431 432 441
f 432 442 441
f 432 433 442
f 433 443 442
f 433 434 443
f 434 444 443
f 434 425 444
f 425 435 444
f 445 446 455
f 446 456 455
f 446 447 456
f 447 457 456
f 447 448 457
f 448 458 457
f 448 449 458
f 449 459 458
f 449 450 459
f 450 460 459
f 450 451 460
f 451 461 460
f 451 452 461
f 452 462 461
f 452 453 462
f 453 463 462
f 453 454 463
f 454 464 463
f 454 445 464
f 445 455 464
f 465 466 475
f 466 476 475
f 466 467 476
f 467 477 476
f 467 468 477
f 468 478 477
f 468 469 478
f 469 479 478
f 469 470 479
f 470 480 479
f 470 471 480
f 471 481 480
f 471 472 481
f 472 482 481
f 472 473 482
f 473 483 482
f 473 474 483
f 474 484 483
f 474 465 484
f 465 475 484
f 485 486 495
f 486 496 495
f 486 487 496
f 487 497 496
f 487 488 497
f 488 498 497
f 488 489 498
f 489 499 498
f 489 490 499
f 490 500 499
f 490 491 500
f 491 501 500
f 491 492 501
f 492 502 501
f 492 493 502
f 493 503 502
f 493 494 503
f 494 504 503
f 494 485 504
f 485 495 504
f 505 506 515
f 506 516 515
f 506 507 516
f 507 517 516
f 507 508 517
f 508 518 517
f 508 509 518
f 509 519 518
f 509 510 519
f 510 520 519
f 510 511 520
f 511 521 520
f 511 512 521
f 512 522 521
f 512 513 522
f 513 523 522
f 513 514 523
f 514 524 523
f 514 505 524
f 505 515 524
f 525 526 535
f 526 536 535
f 526 527 536
f 527 537 536
f 527 528 537
f 528 538 537
f 528 529 538
f 529 539 538
f 529 530 539
f 530 540 539
f 530 531 540
f 531 541 540
f 531 532 541
f 532 542 541
f 532 533 542
f 533 543 542
f 533 534 543
f 534 544 543
f 534 525 544
f 525 535 544
f 545 546 555
f 546 556 555
f 546 547 556
f 547 557 556
f 547 548 557
f 548 558 557
f 548 549 558
f 549 559 558
f 549 550 559
f 550 560 559
f 550 551 560
f 551 561 560
f 551 552 561
f 552 562 561
f 552 553 562
f 553 563 562
f 553 554 563
f 554 564 563
f 554 545 564
f 545 555 564
f 565 566 575
f 566 576 575
f 566 567 576
f 567 577 576
f 567 568 577
f 568 578 577
f 568 569 578
f 569 579 578
f 569 570 579
f 570 580 579
f 570 571 580
f 571 581 580
f 571 572 581
f 572 582 581
f 572 573 582
f 573 583 582
f 573 574 583
f 574 584 583
f 574 565 584
f 565 575 584
f 585 586 595
f 586 596 595
f 586 587 596
f 587 597 596
f 587 588 597
f 588 598 597
f 588 589 598
f 589 599 598
f 589 590 599
f 590 600 599
f 590 591 600
f 591 601 600
f 591 592 601
f 592 602 601
f 592 593 602
f 593 603 602
f 593 594 603
f 594 604 603
f 594 585 604
f 585 595 604
f 605 606 615
f 606 616 615
f 606 607 616
f 607 617 616
f 607 608 617
f 608 618 617
f 608 609 618
f 609 619 618
f 609 610 619
f 610 620 619
f 610 611 620
f 611 621 620
f 611 612 621
f 612 622 621
f 612 613 622
f 613 623 622
f 613 614 623
f 614 624 623
f 614 605 624
f 605 615 624
f 625 626 635
f 626 636 635
f 626 627 636
f 627 637 636
f 627 628 637
f 628 638 637
f 628 629 638
f 629 639 638
f 629 630 639
f 630 640 639
f 630 631 640
f 631 641 640
f 631 632 641
f 632 642 641
f 632 633 642
f 633 643 642
f 633 634 643
f 634 644 643
f 634 625 644
f 625 635 644
f 645 646 655
f 646 656 655
f 646 647 656
f 647 657 656
f 647 648 657
f 648 658 657
f 648 649 658
f 649 659 658
f 649 650 659
f 650 660 659
f 650 651 660
f 651 661 660
f 651 652 661
f 652 662 661
f 652 653 662
f 653 663 662
f 653 654 663
f 654 664 663
f 654 645 664
f 645 655 664
f 665 666 675
f 666 676 675
f 666 667 676
f 667 677 676
f 667 668 677
f 668 678 677
f 668 669 678
f 669 679 678
f 669 670 679
f 670 680 679
f 670 671 680
f 671 681 680
f 671 672 681
f 672 682 681
f 672 673 682
f 673 683 682
f 673 674 683
f 674 684 683
f 674 665 684
f 665 675 684
f 685 686 695
f 686 696 695
f 686 687 696
f 687 697 696
f 687 688 697
f 688 698 697
f 688 689 698
f 689 699 698
f 689 690 699
f 690 700 699
f 690 691 700
f 691 701 700
f 691 692 701
f 692 702 701
f 692 693 702
f 693 703 702
f 693 694 703
f 694 704 703
f 694 685 704
f 685 695 704
f 705 706 715
f 706 716 715
f 706 707 716
f 707 717 716
f 707 708 717
f 708 718 717
f 708 709 718
f 709 719 718
f 709 710 719
f 710 720 719
f 710 711 720
f 711 721 720
f 711 712 721
f 712 722 721
f 712 713 722
f 713 723 722
f 713 714 723
f 714 724 723
f 714 705 724
f 705 715 724
f 725 726 735
f 726 736 735
f 726 727 736
f 727 737 736
f 727 728 737
f 728 738 737
f 728 729 738
f 729 739 738
f 729 730 739
f 730 740 739
f 730 731 740
f 731 741 740
f 731 732 741
f 732 742 741
f 732 733 742
f 733 743 742
f 733 734 743
f 734 744 743
f 734 725 744
f 725 735 744
f 745 746 755
f 746 756 755
f 746 747 756
f 747 757 756
f 747 748 757
f 748 758 757
f 748 749 758
f 749 759 758
f 749 750 759
f 750 760 759
f 750 751 760
f 751 761 760
f 751 752 761
f 752 762 761
f 752 753 762
f 753 763 762
f 753 754 763
f 754 764 763
f 754 745 764
f 745 755 764
f 765 766 775
f 766 776 775
f 766 767 776
f 767 777 776
f 767 768 777
f 768 778 777
f 768 769 778
f 769 779 778
f 769 770 779
f 770 780 779
f 770 771 780
f 771 781 780
f 771 772 781
f 772 782 781
f 772 773 782
f 773 783 782
f 773 774 783
f 774 784 783
f 774 765 784
f 765 775 784
