# Full-Body 3D Mesh - Frame 231
v -0.000320 -0.631368 -0.109539
v 0.033488 -0.631368 -0.114400
v 0.064557 -0.631368 -0.128589
v 0.090370 -0.631368 -0.150956
v 0.108836 -0.631368 -0.179689
v 0.118459 -0.631368 -0.212461
v 0.118459 -0.631368 -0.246617
v 0.108836 -0.631368 -0.279389
v 0.090370 -0.631368 -0.308122
v 0.064557 -0.631368 -0.330489
v 0.033488 -0.631368 -0.344678
v -0.000320 -0.631368 -0.349539
v -0.000320 -0.631368 -0.109539
v 0.028121 -0.613090 -0.114400
v 0.054258 -0.596293 -0.128589
v 0.075974 -0.582337 -0.150956
v 0.091508 -0.572354 -0.179689
v 0.099603 -0.567152 -0.212461
v 0.099603 -0.567152 -0.246617
v 0.091508 -0.572354 -0.279389
v 0.075974 -0.582337 -0.308122
v 0.054258 -0.596293 -0.330489
v 0.028121 -0.613090 -0.344678
v -0.000320 -0.631368 -0.349539
v -0.000320 -0.631368 -0.109539
v 0.013725 -0.600615 -0.114400
v 0.026631 -0.572354 -0.128589
v 0.037354 -0.548874 -0.150956
v 0.045025 -0.532077 -0.179689
v 0.049023 -0.523323 -0.212461
v 0.049023 -0.523323 -0.246617
v 0.045025 -0.532077 -0.279389
v 0.037354 -0.548874 -0.308122
v 0.026631 -0.572354 -0.330489
v 0.013725 -0.600615 -0.344678
v -0.000320 -0.631368 -0.349539
v -0.000320 -0.631368 -0.109539
v -0.005131 -0.597904 -0.114400
v -0.009553 -0.567152 -0.128589
v -0.013226 -0.541601 -0.150956
v -0.015854 -0.523323 -0.179689
v -0.017224 -0.513799 -0.212461
v -0.017224 -0.513799 -0.246617
v -0.015854 -0.523323 -0.279389
v -0.013226 -0.541601 -0.308122
v -0.009553 -0.567152 -0.330489
v -0.005131 -0.597904 -0.344678
v -0.000320 -0.631368 -0.349539
v -0.000320 -0.631368 -0.109539
v -0.022459 -0.605818 -0.114400
v -0.042805 -0.582337 -0.128589
v -0.059709 -0.562829 -0.150956
v -0.071801 -0.548874 -0.179689
v -0.078103 -0.541601 -0.212461
v -0.078103 -0.541601 -0.246617
v -0.071801 -0.548874 -0.279389
v -0.059709 -0.562829 -0.308122
v -0.042805 -0.582337 -0.330489
v -0.022459 -0.605818 -0.344678
v -0.000320 -0.631368 -0.349539
v -0.000320 -0.631368 -0.109539
v -0.032758 -0.621843 -0.114400
v -0.062569 -0.613090 -0.128589
v -0.087336 -0.605818 -0.150956
v -0.105054 -0.600615 -0.179689
v -0.114287 -0.597904 -0.212461
v -0.114287 -0.597904 -0.246617
v -0.105054 -0.600615 -0.279389
v -0.087336 -0.605818 -0.308122
v -0.062569 -0.613090 -0.330489
v -0.032758 -0.621843 -0.344678
v -0.000320 -0.631368 -0.349539
v -0.000320 -0.631368 -0.109539
v -0.032758 -0.640893 -0.114400
v -0.062569 -0.649646 -0.128589
v -0.087336 -0.656918 -0.150956
v -0.105054 -0.662121 -0.179689
v -0.114287 -0.664832 -0.212461
v -0.114287 -0.664832 -0.246617
v -0.105054 -0.662121 -0.279389
v -0.087336 -0.656918 -0.308122
v -0.062569 -0.649646 -0.330489
v -0.032758 -0.640893 -0.344678
v -0.000320 -0.631368 -0.349539
v -0.000320 -0.631368 -0.109539
v -0.022459 -0.656918 -0.114400
v -0.042805 -0.680399 -0.128589
v -0.059709 -0.699907 -0.150956
v -0.071801 -0.713863 -0.179689
v -0.078103 -0.721135 -0.212461
v -0.078103 -0.721135 -0.246617
v -0.071801 -0.713863 -0.279389
v -0.059709 -0.699907 -0.308122
v -0.042805 -0.680399 -0.330489
v -0.022459 -0.656918 -0.344678
v -0.000320 -0.631368 -0.349539
v -0.000320 -0.631368 -0.109539
v -0.005131 -0.664832 -0.114400
v -0.009553 -0.695585 -0.128589
v -0.013226 -0.721135 -0.150956
v -0.015854 -0.739413 -0.179689
v -0.017224 -0.748938 -0.212461
v -0.017224 -0.748938 -0.246617
v -0.015854 -0.739413 -0.279389
v -0.013226 -0.721135 -0.308122
v -0.009553 -0.695585 -0.330489
v -0.005131 -0.664832 -0.344678
v -0.000320 -0.631368 -0.349539
v -0.000320 -0.631368 -0.109539
v 0.013725 -0.662121 -0.114400
v 0.026631 -0.690382 -0.128589
v 0.037354 -0.713863 -0.150956
v 0.045025 -0.730660 -0.179689
v 0.049023 -0.739413 -0.212461
v 0.049023 -0.739413 -0.246617
v 0.045025 -0.730660 -0.279389
v 0.037354 -0.713863 -0.308122
v 0.026631 -0.690382 -0.330489
v 0.013725 -0.662121 -0.344678
v -0.000320 -0.631368 -0.349539
v -0.000320 -0.631368 -0.109539
v 0.028121 -0.649646 -0.114400
v 0.054258 -0.666443 -0.128589
v 0.075974 -0.680399 -0.150956
v 0.091508 -0.690382 -0.179689
v 0.099603 -0.695585 -0.212461
v 0.099603 -0.695585 -0.246617
v 0.091508 -0.690382 -0.279389
v 0.075974 -0.680399 -0.308122
v 0.054258 -0.666443 -0.330489
v 0.028121 -0.649646 -0.344678
v -0.000320 -0.631368 -0.349539
v -0.000320 -0.631368 -0.109539
v 0.033488 -0.631368 -0.114400
v 0.064557 -0.631368 -0.128589
v 0.090370 -0.631368 -0.150956
v 0.108836 -0.631368 -0.179689
v 0.118459 -0.631368 -0.212461
v 0.118459 -0.631368 -0.246617
v 0.108836 -0.631368 -0.279389
v 0.090370 -0.631368 -0.308122
v 0.064557 -0.631368 -0.330489
v 0.033488 -0.631368 -0.344678
v -0.000320 -0.631368 -0.349539
v 0.160336 -0.440873 -0.073332
v 0.159444 -0.464384 -0.065743
v 0.156774 -0.478914 -0.045922
v 0.153346 -0.478914 -0.021439
v 0.150469 -0.464384 -0.001647
v 0.149243 -0.440873 0.005895
v 0.150135 -0.417362 -0.001694
v 0.152805 -0.402832 -0.021515
v 0.156233 -0.402832 -0.045998
v 0.159109 -0.417362 -0.065790
v -0.175357 -0.443306 -0.120335
v -0.176249 -0.466816 -0.112746
v -0.178919 -0.481347 -0.092924
v -0.182347 -0.481347 -0.068442
v -0.185223 -0.466816 -0.048650
v -0.186450 -0.443306 -0.041108
v -0.185558 -0.419795 -0.048696
v -0.182888 -0.405264 -0.068518
v -0.179460 -0.405264 -0.093000
v -0.176583 -0.419795 -0.112793
v 0.154789 -0.444120 -0.073586
v 0.132026 -0.437634 -0.066450
v 0.117958 -0.432385 -0.046811
v 0.117958 -0.430378 -0.022172
v 0.132026 -0.432380 -0.001942
v 0.154789 -0.437626 0.006150
v 0.177552 -0.444112 -0.000987
v 0.191620 -0.449361 -0.020625
v 0.191620 -0.451368 -0.045265
v 0.177552 -0.449366 -0.065494
v 0.212624 -0.221172 -0.091746
v 0.189861 -0.214686 -0.084610
v 0.175793 -0.209437 -0.064971
v 0.175793 -0.207430 -0.040331
v 0.189861 -0.209432 -0.020102
v 0.212624 -0.214678 -0.012010
v 0.235387 -0.221164 -0.019147
v 0.249455 -0.226413 -0.038785
v 0.249455 -0.228420 -0.063425
v 0.235387 -0.226418 -0.083654
v 0.212624 -0.240128 -0.085150
v 0.189238 -0.233872 -0.080141
v 0.174784 -0.221525 -0.064336
v 0.174784 -0.207803 -0.043773
v 0.189238 -0.197947 -0.026306
v 0.212624 -0.195722 -0.018606
v 0.236010 -0.201978 -0.023615
v 0.250464 -0.214325 -0.039420
v 0.250464 -0.228048 -0.059983
v 0.236010 -0.237903 -0.077451
v 0.232454 -0.080941 -0.191378
v 0.209068 -0.074685 -0.186368
v 0.194614 -0.062338 -0.170564
v 0.194614 -0.048616 -0.150000
v 0.209068 -0.038760 -0.132533
v 0.232454 -0.036536 -0.124834
v 0.255840 -0.042792 -0.129843
v 0.270294 -0.055139 -0.145648
v 0.270294 -0.068861 -0.166211
v 0.255840 -0.078717 -0.183678
v -0.180903 -0.468692 -0.111633
v -0.201120 -0.473119 -0.098112
v -0.213615 -0.466159 -0.077948
v -0.213615 -0.450469 -0.058843
v -0.201120 -0.432044 -0.048095
v -0.180903 -0.417920 -0.049809
v -0.160686 -0.413492 -0.063330
v -0.148192 -0.420453 -0.083494
v -0.148192 -0.436142 -0.102599
v -0.160686 -0.454568 -0.113347
v -0.314862 -0.294319 -0.254833
v -0.335079 -0.298747 -0.241312
v -0.347573 -0.291786 -0.221148
v -0.347573 -0.276097 -0.202044
v -0.335079 -0.257671 -0.191295
v -0.314862 -0.243548 -0.193009
v -0.294645 -0.239120 -0.206530
v -0.282150 -0.246081 -0.226694
v -0.282150 -0.261770 -0.245799
v -0.294645 -0.280196 -0.256547
v -0.314862 -0.305937 -0.208731
v -0.333339 -0.304391 -0.225082
v -0.344758 -0.289302 -0.240989
v -0.344758 -0.266433 -0.250378
v -0.333339 -0.244519 -0.249660
v -0.314862 -0.231930 -0.239112
v -0.296384 -0.233476 -0.222761
v -0.284965 -0.248565 -0.206853
v -0.284965 -0.271434 -0.197465
v -0.296384 -0.293348 -0.198182
v -0.143622 -0.388582 -0.410049
v -0.162099 -0.387036 -0.426400
v -0.173518 -0.371947 -0.442308
v -0.173518 -0.349078 -0.451696
v -0.162099 -0.327164 -0.450979
v -0.143622 -0.314575 -0.440430
v -0.125145 -0.316121 -0.424079
v -0.113725 -0.331210 -0.408172
v -0.113725 -0.354080 -0.398783
v -0.125145 -0.375994 -0.399501
v 0.154789 -0.436836 -0.073514
v 0.131340 -0.439301 -0.066086
v 0.116847 -0.442366 -0.046294
v 0.116847 -0.444862 -0.021699
v 0.131340 -0.445833 -0.001695
v 0.154789 -0.444910 0.006077
v 0.178239 -0.442445 -0.001351
v 0.192732 -0.439380 -0.021143
v 0.192732 -0.436885 -0.045738
v 0.178239 -0.435913 -0.065742
v 0.122173 0.010080 -0.028175
v 0.098724 0.007615 -0.020746
v 0.084231 0.004549 -0.000954
v 0.084231 0.002054 0.023641
v 0.098724 0.001082 0.043645
v 0.122173 0.002005 0.051417
v 0.145623 0.004470 0.043988
v 0.160116 0.007536 0.024197
v 0.160116 0.010031 -0.000398
v 0.145623 0.011003 -0.020402
v -0.180903 -0.436832 -0.120194
v -0.204198 -0.434926 -0.112140
v -0.218595 -0.436220 -0.092085
v -0.218595 -0.440221 -0.067689
v -0.204198 -0.445400 -0.048272
v -0.180903 -0.449779 -0.041248
v -0.157609 -0.451686 -0.049302
v -0.143212 -0.450391 -0.069357
v -0.143212 -0.446391 -0.093753
v -0.157609 -0.441211 -0.113171
v -0.122158 -0.012828 -0.050658
v -0.145452 -0.010921 -0.042604
v -0.159849 -0.012215 -0.022549
v -0.159849 -0.016216 0.001846
v -0.145452 -0.021395 0.021264
v -0.122158 -0.025774 0.028287
v -0.098863 -0.027681 0.020233
v -0.084466 -0.026387 0.000178
v -0.084466 -0.022386 -0.024217
v -0.098863 -0.017207 -0.043635
v 0.125891 0.006043 -0.028206
v 0.127586 -0.017344 -0.020375
v 0.127213 -0.031798 -0.000323
v 0.124916 -0.031798 0.024292
v 0.121571 -0.017344 0.044066
v 0.118456 0.006043 0.051448
v 0.116761 0.029430 0.043617
v 0.117133 0.043884 0.023565
v 0.119431 0.043884 -0.001049
v 0.122776 0.029430 -0.020824
v -0.118440 -0.019301 -0.051013
v -0.116745 -0.042688 -0.043182
v -0.117118 -0.057142 -0.023130
v -0.119415 -0.057142 0.001485
v -0.122760 -0.042688 0.021259
v -0.125875 -0.019301 0.028641
v -0.127570 0.004086 0.020810
v -0.127198 0.018540 0.000758
v -0.124900 0.018540 -0.023856
v -0.121555 0.004086 -0.043631
v 0.122173 -0.013175 -0.023460
v 0.099160 -0.005285 -0.019072
v 0.084936 0.006933 -0.002960
v 0.084936 0.018810 0.018721
v 0.099160 0.025811 0.037690
v 0.122173 0.025260 0.046702
v 0.145187 0.017370 0.042314
v 0.159410 0.005152 0.026203
v 0.159410 -0.006725 0.004521
v 0.145187 -0.013725 -0.014448
v 0.151425 0.109511 -0.090669
v 0.128411 0.117402 -0.086281
v 0.114188 0.129619 -0.070170
v 0.114188 0.141497 -0.048489
v 0.128411 0.148497 -0.029519
v 0.151425 0.147947 -0.020507
v 0.174438 0.140056 -0.024895
v 0.188662 0.127839 -0.041007
v 0.188662 0.115962 -0.062688
v 0.174438 0.108961 -0.081657
v 0.151425 0.149681 -0.089662
v 0.128048 0.147817 -0.081840
v 0.113600 0.138662 -0.063991
v 0.113600 0.125713 -0.042932
v 0.128048 0.113916 -0.026708
v 0.151425 0.107778 -0.021514
v 0.174802 0.109642 -0.029336
v 0.189250 0.118796 -0.047185
v 0.189250 0.131745 -0.068244
v 0.174802 0.143542 -0.084469
v 0.186006 0.424135 0.079095
v 0.162629 0.422271 0.086917
v 0.148181 0.413116 0.104766
v 0.148181 0.400168 0.125825
v 0.162629 0.388371 0.142050
v 0.186006 0.382232 0.147243
v 0.209383 0.384096 0.139421
v 0.223831 0.393251 0.121572
v 0.223831 0.406200 0.100513
v 0.209383 0.417996 0.084289
v -0.122158 -0.058727 -0.004433
v -0.144780 -0.052278 -0.012035
v -0.158761 -0.033234 -0.019313
v -0.158761 -0.008867 -0.023487
v -0.144780 0.011514 -0.022962
v -0.122158 0.020125 -0.017939
v -0.099536 0.013677 -0.010336
v -0.085554 -0.005368 -0.003058
v -0.085554 -0.029735 0.001116
v -0.099536 -0.050116 0.000591
v -0.061802 -0.094717 -0.214551
v -0.084425 -0.088268 -0.222153
v -0.098406 -0.069224 -0.229431
v -0.098406 -0.044857 -0.233605
v -0.084425 -0.024476 -0.233080
v -0.061802 -0.015865 -0.228057
v -0.039180 -0.022313 -0.220454
v -0.025199 -0.041358 -0.213176
v -0.025199 -0.065724 -0.209002
v -0.039180 -0.086106 -0.209527
v -0.061802 -0.062522 -0.260644
v -0.085262 -0.059610 -0.253413
v -0.099761 -0.055048 -0.233916
v -0.099761 -0.050579 -0.209602
v -0.085262 -0.047909 -0.189758
v -0.061802 -0.048059 -0.181963
v -0.038343 -0.050972 -0.189195
v -0.023844 -0.055534 -0.208691
v -0.023844 -0.060003 -0.233005
v -0.038343 -0.062672 -0.252850
v -0.042137 0.228932 -0.314219
v -0.065597 0.231844 -0.306987
v -0.080096 0.236406 -0.287490
v -0.080096 0.240875 -0.263176
v -0.065597 0.243545 -0.243332
v -0.042137 0.243395 -0.235537
v -0.018677 0.240482 -0.242769
v -0.004178 0.235920 -0.262265
v -0.004178 0.231451 -0.286579
v -0.018677 0.228782 -0.306424
v -0.069289 0.023915 0.052021
v -0.076240 0.018667 0.048845
v -0.080536 0.015758 0.041162
v -0.080536 0.016298 0.031907
v -0.076240 0.020081 0.024615
v -0.069289 0.025663 0.022072
v -0.062338 0.030910 0.025247
v -0.058042 0.033820 0.032930
v -0.058042 0.033279 0.042185
v -0.062338 0.029496 0.049477
v -0.049200 -0.001788 0.050520
v -0.056151 -0.007036 0.047345
v -0.060447 -0.009945 0.039662
v -0.060447 -0.009405 0.030407
v -0.056151 -0.005622 0.023115
v -0.049200 -0.000041 0.020571
v -0.042249 0.005207 0.023747
v -0.037952 0.008116 0.031430
v -0.037952 0.007576 0.040685
v -0.042249 0.003793 0.047977
v -0.049200 0.001040 0.050418
v -0.055094 -0.005835 0.048432
v -0.058736 -0.010830 0.041524
v -0.058736 -0.012038 0.032332
v -0.055094 -0.008997 0.024368
v -0.049200 -0.002869 0.020674
v -0.043306 0.004006 0.022660
v -0.039663 0.009001 0.029568
v -0.039663 0.010209 0.038759
v -0.043306 0.007168 0.046724
v -0.029754 -0.016290 0.052695
v -0.035648 -0.023164 0.050709
v -0.039290 -0.028160 0.043801
v -0.039290 -0.029367 0.034610
v -0.035648 -0.026326 0.026646
v -0.029754 -0.020198 0.022951
v -0.023860 -0.013323 0.024937
v -0.020217 -0.008328 0.031845
v -0.020217 -0.007121 0.041037
v -0.023860 -0.010162 0.049001
v -0.029754 -0.018418 0.052822
v -0.035727 -0.024869 0.049882
v -0.039419 -0.028790 0.042336
v -0.039419 -0.028683 0.033067
v -0.035727 -0.024588 0.025614
v -0.029754 -0.018070 0.022824
v -0.023781 -0.011619 0.025764
v -0.020089 -0.007698 0.033310
v -0.020089 -0.007805 0.042580
v -0.023781 -0.011900 0.050033
v -0.013375 -0.033502 0.052647
v -0.019348 -0.039954 0.049708
v -0.023040 -0.043874 0.042162
v -0.023040 -0.043767 0.032892
v -0.019348 -0.039672 0.025439
v -0.013375 -0.033155 0.022649
v -0.007402 -0.026703 0.025589
v -0.003711 -0.022782 0.033135
v -0.003711 -0.022889 0.042405
v -0.007402 -0.026984 0.049858
v -0.013375 -0.034108 0.052628
v -0.021149 -0.038113 0.049551
v -0.025954 -0.040290 0.041927
v -0.025954 -0.039808 0.032669
v -0.021149 -0.036851 0.025313
v -0.013375 -0.032548 0.022669
v -0.005601 -0.028543 0.025746
v -0.000797 -0.026366 0.033369
v -0.000797 -0.026848 0.042627
v -0.005601 -0.029805 0.049984
v -0.002495 -0.054415 0.051571
v -0.010269 -0.058420 0.048493
v -0.015074 -0.060597 0.040870
v -0.015074 -0.060115 0.031612
v -0.010269 -0.057158 0.024256
v -0.002495 -0.052855 0.021611
v 0.005279 -0.048850 0.024688
v 0.010083 -0.046673 0.032312
v 0.010083 -0.047155 0.041570
v 0.005279 -0.050112 0.048926
v -0.069289 0.015666 0.048953
v -0.074874 0.011993 0.042530
v -0.078327 0.013208 0.034013
v -0.078327 0.018846 0.026654
v -0.074874 0.026754 0.023264
v -0.069289 0.033911 0.025139
v -0.063703 0.037584 0.031562
v -0.060251 0.036370 0.040080
v -0.060251 0.030732 0.047438
v -0.063703 0.022824 0.050828
v -0.003598 -0.027030 0.016242
v -0.009184 -0.030703 0.009819
v -0.012636 -0.029488 0.001301
v -0.012636 -0.023850 -0.006058
v -0.009184 -0.015942 -0.009447
v -0.003598 -0.008785 -0.007572
v 0.001988 -0.005112 -0.001149
v 0.005440 -0.006326 0.007368
v 0.005440 -0.011964 0.014727
v 0.001988 -0.019872 0.018117
v -0.002149 -0.017907 0.019265
v -0.002841 -0.026714 0.016454
v -0.003822 -0.032157 0.009014
v -0.004717 -0.032157 -0.000214
v -0.005185 -0.026714 -0.007704
v -0.005047 -0.017907 -0.010595
v -0.004355 -0.009100 -0.007784
v -0.003374 -0.003657 -0.000344
v -0.002479 -0.003657 0.008883
v -0.002011 -0.009100 0.016373
v 0.021752 -0.019044 0.016946
v 0.021060 -0.027851 0.014134
v 0.020079 -0.033294 0.006694
v 0.019184 -0.033294 -0.002533
v 0.018716 -0.027851 -0.010023
v 0.018855 -0.019044 -0.012914
v 0.019547 -0.010237 -0.010103
v 0.020527 -0.004794 -0.002663
v 0.021423 -0.004794 0.006564
v 0.021890 -0.010237 0.014054
v 0.014281 -0.019044 0.015753
v 0.014032 -0.027728 0.012516
v 0.016179 -0.033095 0.005269
v 0.019902 -0.033095 -0.003222
v 0.023777 -0.027728 -0.009712
v 0.026326 -0.019044 -0.011722
v 0.026575 -0.010361 -0.008485
v 0.024428 -0.004994 -0.001237
v 0.020705 -0.004994 0.007253
v 0.016829 -0.010361 0.013743
v 0.035653 -0.023148 0.025123
v 0.035404 -0.031832 0.021887
v 0.037551 -0.037199 0.014639
v 0.041274 -0.037199 0.006148
v 0.045150 -0.031832 -0.000342
v 0.047699 -0.023148 -0.002352
v 0.047947 -0.014465 0.000885
v 0.045800 -0.009098 0.008133
v 0.042077 -0.009098 0.016623
v 0.038202 -0.014465 0.023113
v 0.041676 -0.008731 0.015527
v 0.037086 -0.013563 0.021971
v 0.034249 -0.022056 0.024372
v 0.034249 -0.030966 0.021813
v 0.037086 -0.036890 0.015270
v 0.041676 -0.037565 0.007244
v 0.046266 -0.032734 0.000800
v 0.049102 -0.024241 -0.001601
v 0.049102 -0.015331 0.000959
v 0.046266 -0.009407 0.007501
v 0.062173 -0.012182 0.027539
v 0.057583 -0.017014 0.033984
v 0.054746 -0.025507 0.036385
v 0.054746 -0.034417 0.033825
v 0.057583 -0.040341 0.027283
v 0.062173 -0.041016 0.019257
v 0.066763 -0.036184 0.012813
v 0.069600 -0.027691 0.010412
v 0.069600 -0.018781 0.012971
v 0.066763 -0.012857 0.019513
v -0.069289 0.013014 0.046338
v -0.074180 0.010718 0.038805
v -0.077203 0.013797 0.030600
v -0.077203 0.021075 0.024857
v -0.074180 0.029771 0.023770
v -0.069289 0.036564 0.027754
v -0.064397 0.038859 0.035287
v -0.061374 0.035780 0.043492
v -0.061374 0.028503 0.049235
v -0.064397 0.019807 0.050322
v 0.001401 -0.016188 0.009335
v -0.003490 -0.018483 0.001802
v -0.006513 -0.015404 -0.006403
v -0.006513 -0.008127 -0.012146
v -0.003490 0.000569 -0.013233
v 0.001401 0.007363 -0.009249
v 0.006293 0.009658 -0.001716
v 0.009316 0.006579 0.006489
v 0.009316 -0.000698 0.012232
v 0.006293 -0.009394 0.013319
v 0.002551 -0.004412 0.014999
v 0.001339 -0.013173 0.012219
v 0.000150 -0.018587 0.004788
v -0.000561 -0.018587 -0.004455
v -0.000522 -0.013173 -0.011980
v 0.000251 -0.004412 -0.014913
v 0.001464 0.004348 -0.012133
v 0.002653 0.009762 -0.004702
v 0.003363 0.009762 0.004541
v 0.003324 0.004348 0.012066
v 0.030226 -0.007568 0.012871
v 0.029014 -0.016328 0.010091
v 0.027825 -0.021742 0.002660
v 0.027114 -0.021742 -0.006583
v 0.027153 -0.016328 -0.014108
v 0.027926 -0.007568 -0.017041
v 0.029139 0.001192 -0.014261
v 0.030328 0.006607 -0.006830
v 0.031038 0.006607 0.002413
v 0.030999 0.001192 0.009938
v 0.024453 -0.007568 0.012185
v 0.022820 -0.015978 0.008645
v 0.023576 -0.021176 0.001006
v 0.026433 -0.021176 -0.007814
v 0.030300 -0.015978 -0.014445
v 0.033699 -0.007568 -0.016355
v 0.035333 0.000843 -0.012814
v 0.034577 0.006041 -0.005175
v 0.031720 0.006041 0.003644
v 0.027853 0.000843 0.010275
v 0.047607 -0.015223 0.019686
v 0.045973 -0.023634 0.016145
v 0.046729 -0.028832 0.008507
v 0.049586 -0.028832 -0.000313
v 0.053453 -0.023634 -0.006944
v 0.056853 -0.015223 -0.008854
v 0.058486 -0.006813 -0.005313
v 0.057730 -0.001615 0.002326
v 0.054873 -0.001615 0.011145
v 0.051006 -0.006813 0.017776
v 0.052230 -0.000664 0.009025
v 0.046939 -0.005141 0.015181
v 0.043669 -0.013470 0.017608
v 0.043669 -0.022468 0.015377
v 0.046939 -0.028699 0.009342
v 0.052230 -0.029783 0.001807
v 0.057521 -0.025305 -0.004349
v 0.060791 -0.016977 -0.006775
v 0.060791 -0.007979 -0.004545
v 0.057521 -0.001748 0.001490
v 0.077081 -0.005149 0.027121
v 0.071790 -0.009627 0.033277
v 0.068520 -0.017955 0.035704
v 0.068520 -0.026953 0.033473
v 0.071790 -0.033184 0.027438
v 0.077081 -0.034268 0.019903
v 0.082372 -0.029791 0.013747
v 0.085642 -0.021462 0.011320
v 0.085642 -0.012464 0.013551
v 0.082372 -0.006233 0.019586
v -0.069289 0.010462 0.041490
v -0.073707 0.010938 0.033354
v -0.076438 0.016704 0.026628
v -0.076438 0.025558 0.023882
v -0.073707 0.034119 0.026163
v -0.069289 0.039115 0.032602
v -0.064871 0.038640 0.040738
v -0.062140 0.032874 0.047464
v -0.062140 0.024019 0.050210
v -0.064871 0.015459 0.047929
v 0.003852 -0.002087 0.001037
v -0.000566 -0.001611 -0.007099
v -0.003297 0.004155 -0.013824
v -0.003297 0.013009 -0.016571
v -0.000566 0.021570 -0.014289
v 0.003852 0.026566 -0.007851
v 0.008270 0.026091 0.000285
v 0.011001 0.020325 0.007011
v 0.011001 0.011470 0.009758
v 0.008270 0.002910 0.007476
v 0.004084 0.012240 0.011591
v 0.002031 0.003655 0.008758
v 0.000674 -0.001651 0.001278
v 0.000531 -0.001651 -0.007991
v 0.001656 0.003655 -0.015510
v 0.003621 0.012240 -0.018405
v 0.005673 0.020825 -0.015572
v 0.007030 0.026131 -0.008092
v 0.007174 0.026131 0.001178
v 0.006048 0.020825 0.008696
v 0.025965 0.007119 0.011254
v 0.023912 -0.001466 0.008420
v 0.022555 -0.006771 0.000940
v 0.022412 -0.006771 -0.008329
v 0.023537 -0.001466 -0.015847
v 0.025502 0.007119 -0.018743
v 0.027554 0.015704 -0.015909
v 0.028912 0.021010 -0.008429
v 0.029055 0.021010 0.000840
v 0.027929 0.015704 0.008358
v 0.020412 0.007119 0.010280
v 0.020005 -0.001565 0.007062
v 0.021786 -0.006932 -0.000285
v 0.025074 -0.006932 -0.008952
v 0.028614 -0.001565 -0.015631
v 0.031054 0.007119 -0.017769
v 0.031461 0.015804 -0.014551
v 0.029681 0.021171 -0.007204
v 0.026392 0.021171 0.001463
v 0.022852 0.015804 0.008142
v 0.043498 0.002790 0.019038
v 0.043090 -0.005894 0.015820
v 0.044871 -0.011261 0.008474
v 0.048159 -0.011261 -0.000194
v 0.051699 -0.005894 -0.006872
v 0.054139 0.002790 -0.009011
v 0.054547 0.011475 -0.005792
v 0.052766 0.016842 0.001554
v 0.049478 0.016842 0.010222
v 0.045937 0.011475 0.016900
v 0.048818 0.016660 0.010726
v 0.044066 0.011183 0.016502
v 0.041129 0.002501 0.017890
v 0.041129 -0.006071 0.014360
v 0.044066 -0.011259 0.007260
v 0.048818 -0.011080 -0.000698
v 0.053571 -0.005603 -0.006474
v 0.056508 0.003080 -0.007862
v 0.056508 0.011652 -0.004332
v 0.053571 0.016839 0.002768
v 0.072345 0.010927 0.024647
v 0.067592 0.005450 0.030423
v 0.064655 -0.003232 0.031811
v 0.064655 -0.011804 0.028281
v 0.067592 -0.016992 0.021181
v 0.072345 -0.016813 0.013223
v 0.077097 -0.011336 0.007447
v 0.080034 -0.002653 0.006059
v 0.080034 0.005919 0.009589
v 0.077097 0.011106 0.016689
v -0.069289 0.009794 0.037437
v -0.073398 0.012454 0.029565
v -0.075938 0.019826 0.024550
v -0.075938 0.029093 0.024308
v -0.073398 0.036717 0.028932
v -0.069289 0.039784 0.036655
v -0.065179 0.037123 0.044528
v -0.062640 0.029751 0.049542
v -0.062640 0.020484 0.049784
v -0.065179 0.012861 0.045160
v -0.004145 0.008899 0.003130
v -0.008254 0.011560 -0.004742
v -0.010794 0.018931 -0.009757
v -0.010794 0.028199 -0.009999
v -0.008254 0.035822 -0.005375
v -0.004145 0.038889 0.002348
v -0.000035 0.036229 0.010221
v 0.002504 0.028857 0.015236
v 0.002504 0.019589 0.015477
v -0.000035 0.011966 0.010854
v -0.004328 0.023894 0.017738
v -0.004267 0.015077 0.014874
v -0.004160 0.009628 0.007375
v -0.004047 0.009628 -0.001895
v -0.003971 0.015077 -0.009395
v -0.003962 0.023894 -0.012260
v -0.004023 0.032711 -0.009395
v -0.004130 0.038160 -0.001896
v -0.004243 0.038160 0.007374
v -0.004318 0.032711 0.014873
v 0.014131 0.023948 0.017963
v 0.014192 0.015131 0.015099
v 0.014299 0.009682 0.007600
v 0.014412 0.009682 -0.001670
v 0.014488 0.015131 -0.009170
v 0.014497 0.023948 -0.012034
v 0.014436 0.032764 -0.009170
v 0.014329 0.038213 -0.001671
v 0.014216 0.038213 0.007599
v 0.014140 0.032764 0.015099
v 0.010276 0.023948 0.017411
v 0.010596 0.015143 0.014525
v 0.012336 0.009702 0.007224
v 0.014831 0.009702 -0.001704
v 0.017130 0.015143 -0.008849
v 0.018352 0.023948 -0.011482
v 0.018033 0.032752 -0.008597
v 0.016292 0.038193 -0.001295
v 0.013797 0.038193 0.007633
v 0.011499 0.032752 0.014778
v 0.030506 0.022829 0.023066
v 0.030826 0.014025 0.020180
v 0.032566 0.008584 0.012879
v 0.035061 0.008584 0.003951
v 0.037359 0.014025 -0.003194
v 0.038582 0.022829 -0.005827
v 0.038262 0.031634 -0.002942
v 0.036522 0.037075 0.004359
v 0.034027 0.037075 0.013288
v 0.031729 0.031634 0.020433
v 0.029666 0.022829 0.022804
v 0.028903 0.014196 0.019512
v 0.030295 0.008861 0.012060
v 0.033309 0.008861 0.003293
v 0.036796 0.014196 -0.003439
v 0.039422 0.022829 -0.005565
v 0.040185 0.031462 -0.002273
v 0.038793 0.036797 0.005179
v 0.035779 0.036797 0.013946
v 0.032292 0.031462 0.020678
v 0.047269 0.018965 0.028858
v 0.046506 0.010332 0.025566
v 0.047897 0.004997 0.018114
v 0.050912 0.004997 0.009347
v 0.054399 0.010332 0.002615
v 0.057025 0.018965 0.000489
v 0.057788 0.027598 0.003780
v 0.056396 0.032933 0.011233
v 0.053381 0.032933 0.020000
v 0.049895 0.027598 0.026732
f 1 2 13
f 2 14 13
f 2 3 14
f 3 15 14
f 3 4 15
f 4 16 15
f 4 5 16
f 5 17 16
f 5 6 17
f 6 18 17
f 6 7 18
f 7 19 18
f 7 8 19
f 8 20 19
f 8 9 20
f 9 21 20
f 9 10 21
f 10 22 21
f 10 11 22
f 11 23 22
f 11 12 23
f 12 24 23
f 13 14 25
f 14 26 25
f 14 15 26
f 15 27 26
f 15 16 27
f 16 28 27
f 16 17 28
f 17 29 28
f 17 18 29
f 18 30 29
f 18 19 30
f 19 31 30
f 19 20 31
f 20 32 31
f 20 21 32
f 21 33 32
f 21 22 33
f 22 34 33
f 22 23 34
f 23 35 34
f 23 24 35
f 24 36 35
f 25 26 37
f 26 38 37
f 26 27 38
f 27 39 38
f 27 28 39
f 28 40 39
f 28 29 40
f 29 41 40
f 29 30 41
f 30 42 41
f 30 31 42
f 31 43 42
f 31 32 43
f 32 44 43
f 32 33 44
f 33 45 44
f 33 34 45
f 34 46 45
f 34 35 46
f 35 47 46
f 35 36 47
f 36 48 47
f 37 38 49
f 38 50 49
f 38 39 50
f 39 51 50
f 39 40 51
f 40 52 51
f 40 41 52
f 41 53 52
f 41 42 53
f 42 54 53
f 42 43 54
f 43 55 54
f 43 44 55
f 44 56 55
f 44 45 56
f 45 57 56
f 45 46 57
f 46 58 57
f 46 47 58
f 47 59 58
f 47 48 59
f 48 60 59
f 49 50 61
f 50 62 61
f 50 51 62
f 51 63 62
f 51 52 63
f 52 64 63
f 52 53 64
f 53 65 64
f 53 54 65
f 54 66 65
f 54 55 66
f 55 67 66
f 55 56 67
f 56 68 67
f 56 57 68
f 57 69 68
f 57 58 69
f 58 70 69
f 58 59 70
f 59 71 70
f 59 60 71
f 60 72 71
f 61 62 73
f 62 74 73
f 62 63 74
f 63 75 74
f 63 64 75
f 64 76 75
f 64 65 76
f 65 77 76
f 65 66 77
f 66 78 77
f 66 67 78
f 67 79 78
f 67 68 79
f 68 80 79
f 68 69 80
f 69 81 80
f 69 70 81
f 70 82 81
f 70 71 82
f 71 83 82
f 71 72 83
f 72 84 83
f 73 74 85
f 74 86 85
f 74 75 86
f 75 87 86
f 75 76 87
f 76 88 87
f 76 77 88
f 77 89 88
f 77 78 89
f 78 90 89
f 78 79 90
f 79 91 90
f 79 80 91
f 80 92 91
f 80 81 92
f 81 93 92
f 81 82 93
f 82 94 93
f 82 83 94
f 83 95 94
f 83 84 95
f 84 96 95
f 85 86 97
f 86 98 97
f 86 87 98
f 87 99 98
f 87 88 99
f 88 100 99
f 88 89 100
f 89 101 100
f 89 90 101
f 90 102 101
f 90 91 102
f 91 103 102
f 91 92 103
f 92 104 103
f 92 93 104
f 93 105 104
f 93 94 105
f 94 106 105
f 94 95 106
f 95 107 106
f 95 96 107
f 96 108 107
f 97 98 109
f 98 110 109
f 98 99 110
f 99 111 110
f 99 100 111
f 100 112 111
f 100 101 112
f 101 113 112
f 101 102 113
f 102 114 113
f 102 103 114
f 103 115 114
f 103 104 115
f 104 116 115
f 104 105 116
f 105 117 116
f 105 106 117
f 106 118 117
f 106 107 118
f 107 119 118
f 107 108 119
f 108 120 119
f 109 110 121
f 110 122 121
f 110 111 122
f 111 123 122
f 111 112 123
f 112 124 123
f 112 113 124
f 113 125 124
f 113 114 125
f 114 126 125
f 114 115 126
f 115 127 126
f 115 116 127
f 116 128 127
f 116 117 128
f 117 129 128
f 117 118 129
f 118 130 129
f 118 119 130
f 119 131 130
f 119 120 131
f 120 132 131
f 121 122 133
f 122 134 133
f 122 123 134
f 123 135 134
f 123 124 135
f 124 136 135
f 124 125 136
f 125 137 136
f 125 126 137
f 126 138 137
f 126 127 138
f 127 139 138
f 127 128 139
f 128 140 139
f 128 129 140
f 129 141 140
f 129 130 141
f 130 142 141
f 130 131 142
f 131 143 142
f 131 132 143
f 132 144 143
f 145 146 155
f 146 156 155
f 146 147 156
f 147 157 156
f 147 148 157
f 148 158 157
f 148 149 158
f 149 159 158
f 149 150 159
f 150 160 159
f 150 151 160
f 151 161 160
f 151 152 161
f 152 162 161
f 152 153 162
f 153 163 162
f 153 154 163
f 154 164 163
f 154 145 164
f 145 155 164
f 165 166 175
f 166 176 175
f 166 167 176
f 167 177 176
f 167 168 177
f 168 178 177
f 168 169 178
f 169 179 178
f 169 170 179
f 170 180 179
f 170 171 180
f 171 181 180
f 171 172 181
f 172 182 181
f 172 173 182
f 173 183 182
f 173 174 183
f 174 184 183
f 174 165 184
f 165 175 184
f 185 186 195
f 186 196 195
f 186 187 196
f 187 197 196
f 187 188 197
f 188 198 197
f 188 189 198
f 189 199 198
f 189 190 199
f 190 200 199
f 190 191 200
f 191 201 200
f 191 192 201
f 192 202 201
f 192 193 202
f 193 203 202
f 193 194 203
f 194 204 203
f 194 185 204
f 185 195 204
f 205 206 215
f 206 216 215
f 206 207 216
f 207 217 216
f 207 208 217
f 208 218 217
f 208 209 218
f 209 219 218
f 209 210 219
f 210 220 219
f 210 211 220
f 211 221 220
f 211 212 221
f 212 222 221
f 212 213 222
f 213 223 222
f 213 214 223
f 214 224 223
f 214 205 224
f 205 215 224
f 225 226 235
f 226 236 235
f 226 227 236
f 227 237 236
f 227 228 237
f 228 238 237
f 228 229 238
f 229 239 238
f 229 230 239
f 230 240 239
f 230 231 240
f 231 241 240
f 231 232 241
f 232 242 241
f 232 233 242
f 233 243 242
f 233 234 243
f 234 244 243
f 234 225 244
f 225 235 244
f 245 246 255
f 246 256 255
f 246 247 256
f 247 257 256
f 247 248 257
f 248 258 257
f 248 249 258
f 249 259 258
f 249 250 259
f 250 260 259
f 250 251 260
f 251 261 260
f 251 252 261
f 252 262 261
f 252 253 262
f 253 263 262
f 253 254 263
f 254 264 263
f 254 245 264
f 245 255 264
f 265 266 275
f 266 276 275
f 266 267 276
f 267 277 276
f 267 268 277
f 268 278 277
f 268 269 278
f 269 279 278
f 269 270 279
f 270 280 279
f 270 271 280
f 271 281 280
f 271 272 281
f 272 282 281
f 272 273 282
f 273 283 282
f 273 274 283
f 274 284 283
f 274 265 284
f 265 275 284
f 285 286 295
f 286 296 295
f 286 287 296
f 287 297 296
f 287 288 297
f 288 298 297
f 288 289 298
f 289 299 298
f 289 290 299
f 290 300 299
f 290 291 300
f 291 301 300
f 291 292 301
f 292 302 301
f 292 293 302
f 293 303 302
f 293 294 303
f 294 304 303
f 294 285 304
f 285 295 304
f 305 306 315
f 306 316 315
f 306 307 316
f 307 317 316
f 307 308 317
f 308 318 317
f 308 309 318
f 309 319 318
f 309 310 319
f 310 320 319
f 310 311 320
f 311 321 320
f 311 312 321
f 312 322 321
f 312 313 322
f 313 323 322
f 313 314 323
f 314 324 323
f 314 305 324
f 305 315 324
f 325 326 335
f 326 336 335
f 326 327 336
f 327 337 336
f 327 328 337
f 328 338 337
f 328 329 338
f 329 339 338
f 329 330 339
f 330 340 339
f 330 331 340
f 331 341 340
f 331 332 341
f 332 342 341
f 332 333 342
f 333 343 342
f 333 334 343
f 334 344 343
f 334 325 344
f 325 335 344
f 345 346 355
f 346 356 355
f 346 347 356
f 347 357 356
f 347 348 357
f 348 358 357
f 348 349 358
f 349 359 358
f 349 350 359
f 350 360 359
f 350 351 360
f 351 361 360
f 351 352 361
f 352 362 361
f 352 353 362
f 353 363 362
f 353 354 363
f 354 364 363
f 354 345 364
f 345 355 364
f 365 366 375
f 366 376 375
f 366 367 376
f 367 377 376
f 367 368 377
f 368 378 377
f 368 369 378
f 369 379 378
f 369 370 379
f 370 380 379
f 370 371 380
f 371 381 380
f 371 372 381
f 372 382 381
f 372 373 382
f 373 383 382
f 373 374 383
f 374 384 383
f 374 365 384
f 365 375 384
f 385 386 395
f 386 396 395
f 386 387 396
f 387 397 396
f 387 388 397
f 388 398 397
f 388 389 398
f 389 399 398
f 389 390 399
f 390 400 399
f 390 391 400
f 391 401 400
f 391 392 401
f 392 402 401
f 392 393 402
f 393 403 402
f 393 394 403
f 394 404 403
f 394 385 404
f 385 395 404
f 405 406 415
f 406 416 415
f 406 407 416
f 407 417 416
f 407 408 417
f 408 418 417
f 408 409 418
f 409 419 418
f 409 410 419
f 410 420 419
f 410 411 420
f 411 421 420
f 411 412 421
f 412 422 421
f 412 413 422
f 413 423 422
f 413 414 423
f 414 424 423
f 414 405 424
f 405 415 424
f 425 426 435
f 426 436 435
f 426 427 436
f 427 437 436
f 427 428 437
f 428 438 437
f 428 429 438
f 429 439 438
f 429 430 439
f 430 440 439
f 430 431 440
f 431 441 440
f 431 432 441
f 432 442 441
f 432 433 442
f 433 443 442
f 433 434 443
f 434 444 443
f 434 425 444
f 425 435 444
f 445 446 455
f 446 456 455
f 446 447 456
f 447 457 456
f 447 448 457
f 448 458 457
f 448 449 458
f 449 459 458
f 449 450 459
f 450 460 459
f 450 451 460
f 451 461 460
f 451 452 461
f 452 462 461
f 452 453 462
f 453 463 462
f 453 454 463
f 454 464 463
f 454 445 464
f 445 455 464
f 465 466 475
f 466 476 475
f 466 467 476
f 467 477 476
f 467 468 477
f 468 478 477
f 468 469 478
f 469 479 478
f 469 470 479
f 470 480 479
f 470 471 480
f 471 481 480
f 471 472 481
f 472 482 481
f 472 473 482
f 473 483 482
f 473 474 483
f 474 484 483
f 474 465 484
f 465 475 484
f 485 486 495
f 486 496 495
f 486 487 496
f 487 497 496
f 487 488 497
f 488 498 497
f 488 489 498
f 489 499 498
f 489 490 499
f 490 500 499
f 490 491 500
f 491 501 500
f 491 492 501
f 492 502 501
f 492 493 502
f 493 503 502
f 493 494 503
f 494 504 503
f 494 485 504
f 485 495 504
f 505 506 515
f 506 516 515
f 506 507 516
f 507 517 516
f 507 508 517
f 508 518 517
f 508 509 518
f 509 519 518
f 509 510 519
f 510 520 519
f 510 511 520
f 511 521 520
f 511 512 521
f 512 522 521
f 512 513 522
f 513 523 522
f 513 514 523
f 514 524 523
f 514 505 524
f 505 515 524
f 525 526 535
f 526 536 535
f 526 527 536
f 527 537 536
f 527 528 537
f 528 538 537
f 528 529 538
f 529 539 538
f 529 530 539
f 530 540 539
f 530 531 540
f 531 541 540
f 531 532 541
f 532 542 541
f 532 533 542
f 533 543 542
f 533 534 543
f 534 544 543
f 534 525 544
f 525 535 544
f 545 546 555
f 546 556 555
f 546 547 556
f 547 557 556
f 547 548 557
f 548 558 557
f 548 549 558
f 549 559 558
f 549 550 559
f 550 560 559
f 550 551 560
f 551 561 560
f 551 552 561
f 552 562 561
f 552 553 562
f 553 563 562
f 553 554 563
f 554 564 563
f 554 545 564
f 545 555 564
f 565 566 575
f 566 576 575
f 566 567 576
f 567 577 576
f 567 568 577
f 568 578 577
f 568 569 578
f 569 579 578
f 569 570 579
f 570 580 579
f 570 571 580
f 571 581 580
f 571 572 581
f 572 582 581
f 572 573 582
f 573 583 582
f 573 574 583
f 574 584 583
f 574 565 584
f 565 575 584
f 585 586 595
f 586 596 595
f 586 587 596
f 587 597 596
f 587 588 597
f 588 598 597
f 588 589 598
f 589 599 598
f 589 590 599
f 590 600 599
f 590 591 600
f 591 601 600
f 591 592 601
f 592 602 601
f 592 593 602
f 593 603 602
f 593 594 603
f 594 604 603
f 594 585 604
f 585 595 604
f 605 606 615
f 606 616 615
f 606 607 616
f 607 617 616
f 607 608 617
f 608 618 617
f 608 609 618
f 609 619 618
f 609 610 619
f 610 620 619
f 610 611 620
f 611 621 620
f 611 612 621
f 612 622 621
f 612 613 622
f 613 623 622
f 613 614 623
f 614 624 623
f 614 605 624
f 605 615 624
f 625 626 635
f 626 636 635
f 626 627 636
f 627 637 636
f 627 628 637
f 628 638 637
f 628 629 638
f 629 639 638
f 629 630 639
f 630 640 639
f 630 631 640
f 631 641 640
f 631 632 641
f 632 642 641
f 632 633 642
f 633 643 642
f 633 634 643
f 634 644 643
f 634 625 644
f 625 635 644
f 645 646 655
f 646 656 655
f 646 647 656
f 647 657 656
f 647 648 657
f 648 658 657
f 648 649 658
f 649 659 658
f 649 650 659
f 650 660 659
f 650 651 660
f 651 661 660
f 651 652 661
f 652 662 661
f 652 653 662
f 653 663 662
f 653 654 663
f 654 664 663
f 654 645 664
f 645 655 664
f 665 666 675
f 666 676 675
f 666 667 676
f 667 677 676
f 667 668 677
f 668 678 677
f 668 669 678
f 669 679 678
f 669 670 679
f 670 680 679
f 670 671 680
f 671 681 680
f 671 672 681
f 672 682 681
f 672 673 682
f 673 683 682
f 673 674 683
f 674 684 683
f 674 665 684
f 665 675 684
f 685 686 695
f 686 696 695
f 686 687 696
f 687 697 696
f 687 688 697
f 688 698 697
f 688 689 698
f 689 699 698
f 689 690 699
f 690 700 699
f 690 691 700
f 691 701 700
f 691 692 701
f 692 702 701
f 692 693 702
f 693 703 702
f 693 694 703
f 694 704 703
f 694 685 704
f 685 695 704
f 705 706 715
f 706 716 715
f 706 707 716
f 707 717 716
f 707 708 717
f 708 718 717
f 708 709 718
f 709 719 718
f 709 710 719
f 710 720 719
f 710 711 720
f 711 721 720
f 711 712 721
f 712 722 721
f 712 713 722
f 713 723 722
f 713 714 723
f 714 724 723
f 714 705 724
f 705 715 724
f 725 726 735
f 726 736 735
f 726 727 736
f 727 737 736
f 727 728 737
f 728 738 737
f 728 729 738
f 729 739 738
f 729 730 739
f 730 740 739
f 730 731 740
f 731 741 740
f 731 732 741
f 732 742 741
f 732 733 742
f 733 743 742
f 733 734 743
f 734 744 743
f 734 725 744
f 725 735 744
f 745 746 755
f 746 756 755
f 746 747 756
f 747 757 756
f 747 748 757
f 748 758 757
f 748 749 758
f 749 759 758
f 749 750 759
f 750 760 759
f 750 751 760
f 751 761 760
f 751 752 761
f 752 762 761
f 752 753 762
f 753 763 762
f 753 754 763
f 754 764 763
f 754 745 764
f 745 755 764
f 765 766 775
f 766 776 775
f 766 767 776
f 767 777 776
f 767 768 777
f 768 778 777
f 768 769 778
f 769 779 778
f 769 770 779
f 770 780 779
f 770 771 780
f 771 781 780
f 771 772 781
f 772 782 781
f 772 773 782
f 773 783 782
f 773 774 783
f 774 784 783
f 774 765 784
f 765 775 784
