# Full-Body 3D Mesh - Frame 139
v -0.001367 -0.626722 -0.138334
v 0.032441 -0.626722 -0.143195
v 0.063510 -0.626722 -0.157383
v 0.089323 -0.626722 -0.179750
v 0.107789 -0.626722 -0.208484
v 0.117412 -0.626722 -0.241256
v 0.117412 -0.626722 -0.275411
v 0.107789 -0.626722 -0.308183
v 0.089323 -0.626722 -0.336917
v 0.063510 -0.626722 -0.359284
v 0.032441 -0.626722 -0.373473
v -0.001367 -0.626722 -0.378334
v -0.001367 -0.626722 -0.138334
v 0.027074 -0.608444 -0.143195
v 0.053211 -0.591647 -0.157383
v 0.074926 -0.577692 -0.179750
v 0.090461 -0.567708 -0.208484
v 0.098556 -0.562506 -0.241256
v 0.098556 -0.562506 -0.275411
v 0.090461 -0.567708 -0.308183
v 0.074926 -0.577692 -0.336917
v 0.053211 -0.591647 -0.359284
v 0.027074 -0.608444 -0.373473
v -0.001367 -0.626722 -0.378334
v -0.001367 -0.626722 -0.138334
v 0.012677 -0.595969 -0.143195
v 0.025584 -0.567708 -0.157383
v 0.036307 -0.544228 -0.179750
v 0.043978 -0.527431 -0.208484
v 0.047975 -0.518677 -0.241256
v 0.047975 -0.518677 -0.275411
v 0.043978 -0.527431 -0.308183
v 0.036307 -0.544228 -0.336917
v 0.025584 -0.567708 -0.359284
v 0.012677 -0.595969 -0.373473
v -0.001367 -0.626722 -0.378334
v -0.001367 -0.626722 -0.138334
v -0.006178 -0.593259 -0.143195
v -0.010600 -0.562506 -0.157383
v -0.014273 -0.536955 -0.179750
v -0.016901 -0.518677 -0.208484
v -0.018271 -0.509153 -0.241256
v -0.018271 -0.509153 -0.275411
v -0.016901 -0.518677 -0.308183
v -0.014273 -0.536955 -0.336917
v -0.010600 -0.562506 -0.359284
v -0.006178 -0.593259 -0.373473
v -0.001367 -0.626722 -0.378334
v -0.001367 -0.626722 -0.138334
v -0.023506 -0.601172 -0.143195
v -0.043852 -0.577692 -0.157383
v -0.060756 -0.558183 -0.179750
v -0.072849 -0.544228 -0.208484
v -0.079150 -0.536955 -0.241256
v -0.079150 -0.536955 -0.275411
v -0.072849 -0.544228 -0.308183
v -0.060756 -0.558183 -0.336917
v -0.043852 -0.577692 -0.359284
v -0.023506 -0.601172 -0.373473
v -0.001367 -0.626722 -0.378334
v -0.001367 -0.626722 -0.138334
v -0.033805 -0.617198 -0.143195
v -0.063616 -0.608444 -0.157383
v -0.088383 -0.601172 -0.179750
v -0.106101 -0.595969 -0.208484
v -0.115334 -0.593259 -0.241256
v -0.115334 -0.593259 -0.275411
v -0.106101 -0.595969 -0.308183
v -0.088383 -0.601172 -0.336917
v -0.063616 -0.608444 -0.359284
v -0.033805 -0.617198 -0.373473
v -0.001367 -0.626722 -0.378334
v -0.001367 -0.626722 -0.138334
v -0.033805 -0.636247 -0.143195
v -0.063616 -0.645000 -0.157383
v -0.088383 -0.652273 -0.179750
v -0.106101 -0.657475 -0.208484
v -0.115334 -0.660186 -0.241256
v -0.115334 -0.660186 -0.275411
v -0.106101 -0.657475 -0.308183
v -0.088383 -0.652273 -0.336917
v -0.063616 -0.645000 -0.359284
v -0.033805 -0.636247 -0.373473
v -0.001367 -0.626722 -0.378334
v -0.001367 -0.626722 -0.138334
v -0.023506 -0.652273 -0.143195
v -0.043852 -0.675753 -0.157383
v -0.060756 -0.695261 -0.179750
v -0.072849 -0.709217 -0.208484
v -0.079150 -0.716489 -0.241256
v -0.079150 -0.716489 -0.275411
v -0.072849 -0.709217 -0.308183
v -0.060756 -0.695261 -0.336917
v -0.043852 -0.675753 -0.359284
v -0.023506 -0.652273 -0.373473
v -0.001367 -0.626722 -0.378334
v -0.001367 -0.626722 -0.138334
v -0.006178 -0.660186 -0.143195
v -0.010600 -0.690939 -0.157383
v -0.014273 -0.716489 -0.179750
v -0.016901 -0.734767 -0.208484
v -0.018271 -0.744292 -0.241256
v -0.018271 -0.744292 -0.275411
v -0.016901 -0.734767 -0.308183
v -0.014273 -0.716489 -0.336917
v -0.010600 -0.690939 -0.359284
v -0.006178 -0.660186 -0.373473
v -0.001367 -0.626722 -0.378334
v -0.001367 -0.626722 -0.138334
v 0.012677 -0.657475 -0.143195
v 0.025584 -0.685736 -0.157383
v 0.036307 -0.709217 -0.179750
v 0.043978 -0.726014 -0.208484
v 0.047975 -0.734767 -0.241256
v 0.047975 -0.734767 -0.275411
v 0.043978 -0.726014 -0.308183
v 0.036307 -0.709217 -0.336917
v 0.025584 -0.685736 -0.359284
v 0.012677 -0.657475 -0.373473
v -0.001367 -0.626722 -0.378334
v -0.001367 -0.626722 -0.138334
v 0.027074 -0.645000 -0.143195
v 0.053211 -0.661797 -0.157383
v 0.074926 -0.675753 -0.179750
v 0.090461 -0.685736 -0.208484
v 0.098556 -0.690939 -0.241256
v 0.098556 -0.690939 -0.275411
v 0.090461 -0.685736 -0.308183
v 0.074926 -0.675753 -0.336917
v 0.053211 -0.661797 -0.359284
v 0.027074 -0.645000 -0.373473
v -0.001367 -0.626722 -0.378334
v -0.001367 -0.626722 -0.138334
v 0.032441 -0.626722 -0.143195
v 0.063510 -0.626722 -0.157383
v 0.089323 -0.626722 -0.179750
v 0.107789 -0.626722 -0.208484
v 0.117412 -0.626722 -0.241256
v 0.117412 -0.626722 -0.275411
v 0.107789 -0.626722 -0.308183
v 0.089323 -0.626722 -0.336917
v 0.063510 -0.626722 -0.359284
v 0.032441 -0.626722 -0.373473
v -0.001367 -0.626722 -0.378334
v 0.163518 -0.446766 -0.084664
v 0.162217 -0.470277 -0.077135
v 0.159075 -0.484808 -0.057383
v 0.155294 -0.484808 -0.032953
v 0.152316 -0.470277 -0.013176
v 0.151281 -0.446766 -0.005606
v 0.152582 -0.423255 -0.013135
v 0.155724 -0.408725 -0.032886
v 0.159505 -0.408725 -0.057317
v 0.162482 -0.423255 -0.077094
v -0.168664 -0.444844 -0.136082
v -0.169966 -0.468355 -0.128553
v -0.173107 -0.482886 -0.108801
v -0.176889 -0.482886 -0.084371
v -0.179866 -0.468355 -0.064593
v -0.180902 -0.444844 -0.057023
v -0.179600 -0.421333 -0.064552
v -0.176459 -0.406802 -0.084304
v -0.172677 -0.406802 -0.108734
v -0.169700 -0.421333 -0.128512
v 0.157399 -0.445565 -0.085117
v 0.134349 -0.441164 -0.077342
v 0.120103 -0.438903 -0.057265
v 0.120103 -0.439645 -0.032555
v 0.134349 -0.443108 -0.012650
v 0.157399 -0.447967 -0.005153
v 0.180450 -0.452368 -0.012928
v 0.194696 -0.454630 -0.033005
v 0.194696 -0.453887 -0.057715
v 0.180450 -0.450425 -0.077620
v 0.200798 -0.229719 -0.078634
v 0.177748 -0.225318 -0.070859
v 0.163502 -0.223056 -0.050782
v 0.163502 -0.223799 -0.026072
v 0.177748 -0.227261 -0.006167
v 0.200798 -0.232121 0.001330
v 0.223849 -0.236522 -0.006445
v 0.238095 -0.238783 -0.026522
v 0.238095 -0.238041 -0.051232
v 0.223849 -0.234579 -0.071137
v 0.200798 -0.261140 -0.064857
v 0.177443 -0.257142 -0.057807
v 0.163009 -0.243127 -0.043441
v 0.163009 -0.224450 -0.027245
v 0.177443 -0.208244 -0.015406
v 0.200798 -0.200699 -0.012446
v 0.224153 -0.204698 -0.019496
v 0.238588 -0.218712 -0.033862
v 0.238588 -0.237389 -0.050058
v 0.224153 -0.253596 -0.061897
v 0.177946 -0.131946 -0.213848
v 0.154590 -0.127947 -0.206798
v 0.140156 -0.113933 -0.192432
v 0.140156 -0.095256 -0.176236
v 0.154590 -0.079049 -0.164397
v 0.177946 -0.071505 -0.161437
v 0.201301 -0.075503 -0.168487
v 0.215735 -0.089518 -0.182853
v 0.215735 -0.108195 -0.199049
v 0.201301 -0.124401 -0.210888
v -0.174783 -0.460502 -0.133360
v -0.196963 -0.464690 -0.123277
v -0.210671 -0.461297 -0.102986
v -0.210671 -0.451620 -0.080238
v -0.196963 -0.439354 -0.063721
v -0.174783 -0.429186 -0.059744
v -0.152603 -0.424999 -0.069828
v -0.138895 -0.428391 -0.090119
v -0.138895 -0.438069 -0.112867
v -0.152603 -0.450334 -0.129384
v -0.256128 -0.247662 -0.223902
v -0.278308 -0.251849 -0.213819
v -0.292016 -0.248457 -0.193528
v -0.292016 -0.238779 -0.170779
v -0.278308 -0.226514 -0.154263
v -0.256128 -0.216346 -0.150286
v -0.233948 -0.212158 -0.160370
v -0.220241 -0.215551 -0.180661
v -0.220241 -0.225228 -0.203409
v -0.233948 -0.237494 -0.219926
v -0.256128 -0.268965 -0.171801
v -0.276444 -0.266431 -0.185658
v -0.288999 -0.250747 -0.200063
v -0.288999 -0.227904 -0.209515
v -0.276444 -0.206627 -0.210403
v -0.256128 -0.195043 -0.202387
v -0.235813 -0.197577 -0.188531
v -0.223257 -0.213261 -0.174126
v -0.223257 -0.236104 -0.164674
v -0.235813 -0.257381 -0.163786
v -0.131661 -0.350652 -0.369226
v -0.151976 -0.348118 -0.383082
v -0.164532 -0.332434 -0.397488
v -0.164532 -0.309590 -0.406939
v -0.151976 -0.288313 -0.407827
v -0.131661 -0.276730 -0.399812
v -0.111345 -0.279264 -0.385955
v -0.098790 -0.294948 -0.371550
v -0.098790 -0.317791 -0.362098
v -0.111345 -0.339068 -0.361211
v 0.157399 -0.440540 -0.084647
v 0.133956 -0.443495 -0.077379
v 0.119467 -0.447700 -0.057795
v 0.119467 -0.451548 -0.033375
v 0.133956 -0.453569 -0.013447
v 0.157399 -0.452993 -0.005623
v 0.180843 -0.450038 -0.012890
v 0.195332 -0.445833 -0.032475
v 0.195332 -0.441985 -0.056895
v 0.180843 -0.439963 -0.076823
v 0.122874 0.006712 -0.014171
v 0.099431 0.003758 -0.006903
v 0.084942 -0.000447 0.012681
v 0.084942 -0.004295 0.037102
v 0.099431 -0.006317 0.057030
v 0.122874 -0.005740 0.064854
v 0.146318 -0.002785 0.057586
v 0.160807 0.001419 0.038002
v 0.160807 0.005267 0.013582
v 0.146318 0.007289 -0.006346
v -0.174783 -0.438074 -0.135975
v -0.198130 -0.436633 -0.127977
v -0.212560 -0.438328 -0.107975
v -0.212560 -0.442512 -0.083610
v -0.198130 -0.447587 -0.064189
v -0.174783 -0.451614 -0.057129
v -0.151436 -0.453055 -0.065128
v -0.137007 -0.451360 -0.085130
v -0.137007 -0.447176 -0.109495
v -0.151436 -0.442102 -0.128916
v -0.123243 -0.010589 -0.062568
v -0.146590 -0.009148 -0.054569
v -0.161019 -0.010843 -0.034567
v -0.161019 -0.015027 -0.010203
v -0.146590 -0.020101 0.009219
v -0.123243 -0.024129 0.016278
v -0.099895 -0.025570 0.008279
v -0.085466 -0.023875 -0.011722
v -0.085466 -0.019691 -0.036087
v -0.099895 -0.014616 -0.055508
v 0.130606 0.000486 -0.013904
v 0.130766 -0.022966 -0.006086
v 0.127912 -0.037460 0.013736
v 0.123134 -0.037460 0.037991
v 0.118256 -0.022966 0.057415
v 0.115143 0.000486 0.064587
v 0.114982 0.023938 0.056770
v 0.117837 0.038433 0.036948
v 0.122615 0.038433 0.012692
v 0.127493 0.023938 -0.006731
v -0.115511 -0.017359 -0.062390
v -0.115351 -0.040811 -0.054573
v -0.118205 -0.055305 -0.034751
v -0.122983 -0.055305 -0.010495
v -0.127861 -0.040811 0.008928
v -0.130974 -0.017359 0.016101
v -0.131135 0.006093 0.008283
v -0.128280 0.020587 -0.011539
v -0.123502 0.020587 -0.035794
v -0.118624 0.006093 -0.055218
v 0.122874 -0.020907 -0.008457
v 0.099537 -0.014406 -0.003530
v 0.085114 -0.002217 0.012424
v 0.085114 0.011004 0.033313
v 0.099537 0.020208 0.051157
v 0.122874 0.021879 0.059140
v 0.146211 0.015379 0.054214
v 0.160635 0.003190 0.038259
v 0.160635 -0.010032 0.017371
v 0.146211 -0.019236 -0.000473
v 0.145406 0.134555 -0.106858
v 0.122069 0.141055 -0.101931
v 0.107646 0.153244 -0.085977
v 0.107646 0.166466 -0.065088
v 0.122069 0.175670 -0.047244
v 0.145406 0.177341 -0.039261
v 0.168743 0.170840 -0.044187
v 0.183167 0.158651 -0.060142
v 0.183167 0.145429 -0.081030
v 0.168743 0.136225 -0.098874
v 0.145406 0.177744 -0.106599
v 0.122075 0.176016 -0.098611
v 0.107655 0.166622 -0.080864
v 0.107655 0.153151 -0.060135
v 0.122075 0.140748 -0.044343
v 0.145406 0.134151 -0.039520
v 0.168738 0.135879 -0.047507
v 0.183158 0.145273 -0.065254
v 0.183158 0.158745 -0.085983
v 0.168738 0.171147 -0.101775
v 0.182806 0.429777 0.057194
v 0.159475 0.428048 0.065181
v 0.145055 0.418654 0.082929
v 0.145055 0.405183 0.103657
v 0.159475 0.392780 0.119449
v 0.182806 0.386183 0.124273
v 0.206138 0.387912 0.116285
v 0.220557 0.397306 0.098538
v 0.220557 0.410777 0.077809
v 0.206138 0.423180 0.062017
v -0.123243 -0.057014 -0.028390
v -0.145241 -0.048352 -0.035614
v -0.158837 -0.027852 -0.038075
v -0.158837 -0.003345 -0.034833
v -0.145241 0.015810 -0.027127
v -0.123243 0.022296 -0.017900
v -0.101244 0.013634 -0.010676
v -0.087648 -0.006865 -0.008215
v -0.087648 -0.031373 -0.011457
v -0.101244 -0.050528 -0.019163
v -0.058074 -0.034355 -0.199686
v -0.080072 -0.025694 -0.206910
v -0.093668 -0.005194 -0.209371
v -0.093668 0.019314 -0.206129
v -0.080072 0.038468 -0.198423
v -0.058074 0.044954 -0.189196
v -0.036075 0.036292 -0.181972
v -0.022479 0.015793 -0.179511
v -0.022479 -0.008715 -0.182753
v -0.036075 -0.027870 -0.190459
v -0.058074 0.002325 -0.234330
v -0.081585 0.003030 -0.226722
v -0.096115 0.004602 -0.206784
v -0.096115 0.006440 -0.182131
v -0.081585 0.007842 -0.162180
v -0.058074 0.008273 -0.154552
v -0.034563 0.007568 -0.162160
v -0.020032 0.005997 -0.182098
v -0.020032 0.004159 -0.206751
v -0.034563 0.002756 -0.226702
v -0.056445 0.280622 -0.255078
v -0.079956 0.281326 -0.247470
v -0.094487 0.282898 -0.227532
v -0.094487 0.284736 -0.202879
v -0.079956 0.286138 -0.182928
v -0.056445 0.286569 -0.175300
v -0.032934 0.285865 -0.182908
v -0.018404 0.284293 -0.202846
v -0.018404 0.282455 -0.227499
v -0.032934 0.281053 -0.247450
v -0.051418 0.030874 0.075038
v -0.058088 0.025469 0.071541
v -0.062211 0.022775 0.063686
v -0.062211 0.023821 0.054475
v -0.058088 0.028208 0.047425
v -0.051418 0.034260 0.045230
v -0.044748 0.039666 0.048727
v -0.040626 0.042360 0.056581
v -0.040626 0.041314 0.065792
v -0.044748 0.036927 0.072842
v -0.028843 0.004925 0.072090
v -0.035513 -0.000481 0.068593
v -0.039635 -0.003175 0.060738
v -0.039635 -0.002129 0.051527
v -0.035513 0.002259 0.044477
v -0.028843 0.008311 0.042282
v -0.022173 0.013716 0.045779
v -0.018050 0.016411 0.053633
v -0.018050 0.015364 0.062845
v -0.022173 0.010977 0.069894
v -0.028843 -0.002018 0.069450
v -0.033651 -0.006412 0.062853
v -0.036622 -0.005828 0.054091
v -0.036622 -0.000491 0.046511
v -0.033651 0.007562 0.043009
v -0.028843 0.015254 0.044921
v -0.024035 0.019647 0.051518
v -0.021063 0.019064 0.060280
v -0.021063 0.013726 0.067860
v -0.024035 0.005674 0.071363
v -0.007437 -0.013404 0.061433
v -0.012245 -0.017798 0.054836
v -0.015217 -0.017214 0.046074
v -0.015217 -0.011877 0.038494
v -0.012245 -0.003825 0.034991
v -0.007437 0.003867 0.036904
v -0.002629 0.008261 0.043501
v 0.000342 0.007678 0.052263
v 0.000342 0.002340 0.059843
v -0.002629 -0.005712 0.063346
v -0.007437 -0.017181 0.057591
v -0.014780 -0.017551 0.051944
v -0.019318 -0.013038 0.045237
v -0.019318 -0.005367 0.040031
v -0.014780 0.002533 0.038316
v -0.007437 0.007644 0.040746
v -0.000095 0.008014 0.046393
v 0.004443 0.003501 0.053100
v 0.004443 -0.004170 0.058306
v -0.000095 -0.012070 0.060021
v 0.006342 -0.028821 0.040435
v -0.001000 -0.029191 0.034788
v -0.005539 -0.024678 0.028081
v -0.005539 -0.017007 0.022876
v -0.001000 -0.009107 0.021161
v 0.006342 -0.003997 0.023591
v 0.013685 -0.003627 0.029238
v 0.018223 -0.008139 0.035945
v 0.018223 -0.015811 0.041150
v 0.013685 -0.023710 0.042865
v 0.006342 -0.029730 0.038908
v -0.001773 -0.028770 0.034531
v -0.006789 -0.023089 0.029192
v -0.006789 -0.014856 0.024930
v -0.001773 -0.007216 0.023374
v 0.006342 -0.003088 0.025118
v 0.014458 -0.004048 0.029495
v 0.019473 -0.009729 0.034834
v 0.019473 -0.017962 0.039096
v 0.014458 -0.025602 0.040652
v 0.017891 -0.042231 0.014758
v 0.009775 -0.041271 0.010381
v 0.004760 -0.035589 0.005041
v 0.004760 -0.027356 0.000780
v 0.009775 -0.019717 -0.000776
v 0.017891 -0.015588 0.000967
v 0.026006 -0.016548 0.005345
v 0.031021 -0.022230 0.010684
v 0.031021 -0.030463 0.014946
v 0.026006 -0.038102 0.016502
v -0.051418 0.021385 0.070131
v -0.058690 0.020198 0.064505
v -0.063184 0.023735 0.057209
v -0.063184 0.030646 0.051030
v -0.058690 0.038291 0.048329
v -0.051418 0.043750 0.050136
v -0.044146 0.044937 0.055762
v -0.039652 0.041400 0.063058
v -0.039652 0.034488 0.069237
v -0.044146 0.026843 0.071939
v -0.002450 -0.026219 0.016885
v -0.009721 -0.027406 0.011259
v -0.014216 -0.023868 0.003963
v -0.014216 -0.016957 -0.002215
v -0.009721 -0.009312 -0.004917
v -0.002450 -0.003853 -0.003110
v 0.004822 -0.002666 0.002517
v 0.009316 -0.006204 0.009812
v 0.009316 -0.013115 0.015991
v 0.004822 -0.020760 0.018693
v -0.000729 -0.015036 0.021789
v -0.001730 -0.023827 0.019021
v -0.003006 -0.029260 0.011618
v -0.004069 -0.029260 0.002409
v -0.004514 -0.023827 -0.005090
v -0.004170 -0.015036 -0.008013
v -0.003169 -0.006245 -0.005245
v -0.001894 -0.000812 0.002158
v -0.000830 -0.000812 0.011367
v -0.000385 -0.006245 0.018865
v 0.019820 -0.016628 0.019416
v 0.018819 -0.025419 0.016648
v 0.017544 -0.030852 0.009245
v 0.016480 -0.030852 0.000036
v 0.016035 -0.025419 -0.007462
v 0.016379 -0.016628 -0.010386
v 0.017380 -0.007837 -0.007618
v 0.018655 -0.002404 -0.000215
v 0.019719 -0.002404 0.008994
v 0.020164 -0.007837 0.016493
v 0.018099 -0.001867 0.007181
v 0.013600 -0.006034 0.014133
v 0.010819 -0.014247 0.017412
v 0.010819 -0.023370 0.015764
v 0.013600 -0.029918 0.009820
v 0.018099 -0.031389 0.001850
v 0.022599 -0.027223 -0.005103
v 0.025380 -0.019010 -0.008381
v 0.025380 -0.009887 -0.006734
v 0.022599 -0.003339 -0.000790
v 0.038517 -0.004020 0.019105
v 0.034017 -0.008187 0.026057
v 0.031236 -0.016400 0.029336
v 0.031236 -0.025523 0.027688
v 0.034017 -0.032071 0.021744
v 0.038517 -0.033543 0.013774
v 0.043016 -0.029376 0.006821
v 0.045797 -0.021163 0.003543
v 0.045797 -0.012040 0.005190
v 0.043016 -0.005492 0.011135
v 0.038517 -0.003840 0.017763
v 0.031778 -0.007196 0.023174
v 0.027613 -0.014976 0.026012
v 0.027613 -0.024211 0.025194
v 0.031778 -0.031371 0.021032
v 0.038517 -0.033723 0.015116
v 0.045256 -0.030368 0.009705
v 0.049420 -0.022587 0.006867
v 0.049420 -0.013353 0.007685
v 0.045256 -0.006192 0.011847
v 0.054796 -0.005543 0.036984
v 0.048057 -0.008899 0.042394
v 0.043892 -0.016679 0.045232
v 0.043892 -0.025914 0.044414
v 0.048057 -0.033074 0.040252
v 0.054796 -0.035426 0.034336
v 0.061535 -0.032071 0.028926
v 0.065699 -0.024290 0.026088
v 0.065699 -0.015056 0.026906
v 0.061535 -0.007895 0.031068
v -0.051418 0.019614 0.067697
v -0.058650 0.019545 0.061897
v -0.063119 0.024450 0.055423
v -0.063119 0.032456 0.050749
v -0.058650 0.040504 0.049660
v -0.051418 0.045521 0.052571
v -0.044186 0.045590 0.058371
v -0.039717 0.040685 0.064844
v -0.039717 0.032679 0.069518
v -0.044186 0.024630 0.070608
v -0.002044 -0.016081 0.006558
v -0.009275 -0.016150 0.000758
v -0.013745 -0.011245 -0.005715
v -0.013745 -0.003239 -0.010389
v -0.009275 0.004809 -0.011479
v -0.002044 0.009826 -0.008567
v 0.005188 0.009895 -0.002768
v 0.009658 0.004990 0.003706
v 0.009658 -0.003016 0.008380
v 0.005188 -0.011064 0.009470
v 0.000015 -0.003127 0.013853
v -0.001972 -0.011796 0.011237
v -0.003986 -0.017154 0.003944
v -0.005258 -0.017154 -0.005239
v -0.005303 -0.011796 -0.012804
v -0.004102 -0.003127 -0.015863
v -0.002116 0.005541 -0.013246
v -0.000101 0.010899 -0.005953
v 0.001171 0.010899 0.003230
v 0.001215 0.005541 0.010795
v 0.027296 -0.008239 0.010073
v 0.025309 -0.016907 0.007457
v 0.023295 -0.022265 0.000164
v 0.022023 -0.022265 -0.009019
v 0.021978 -0.016907 -0.016584
v 0.023178 -0.008239 -0.019643
v 0.025165 0.000430 -0.017026
v 0.027179 0.005788 -0.009733
v 0.028452 0.005788 -0.000551
v 0.028496 0.000430 0.007015
v 0.025237 0.005115 0.002047
v 0.021066 -0.000973 0.007657
v 0.018487 -0.009836 0.008515
v 0.018487 -0.018089 0.004293
v 0.021066 -0.022580 -0.003397
v 0.025237 -0.021592 -0.011617
v 0.029409 -0.015504 -0.017227
v 0.031987 -0.006641 -0.018085
v 0.031987 0.001612 -0.013862
v 0.029409 0.006103 -0.006172
v 0.046829 -0.000167 0.012371
v 0.042658 -0.006255 0.017981
v 0.040079 -0.015118 0.018839
v 0.040079 -0.023371 0.014617
v 0.042658 -0.027862 0.006927
v 0.046829 -0.026874 -0.001293
v 0.051001 -0.020786 -0.006903
v 0.053579 -0.011923 -0.007761
v 0.053579 -0.003670 -0.003538
v 0.051001 0.000821 0.004151
v 0.046829 0.000839 0.009875
v 0.041057 -0.003830 0.015427
v 0.037490 -0.012200 0.017202
v 0.037490 -0.021075 0.014522
v 0.041057 -0.027064 0.008411
v 0.046829 -0.027880 0.001203
v 0.052601 -0.023211 -0.004349
v 0.056169 -0.014840 -0.006124
v 0.056169 -0.005966 -0.003444
v 0.052601 0.000023 0.002667
v 0.069088 -0.004734 0.028330
v 0.063316 -0.009403 0.033882
v 0.059748 -0.017773 0.035657
v 0.059748 -0.026648 0.032977
v 0.063316 -0.032637 0.026866
v 0.069088 -0.033453 0.019657
v 0.074860 -0.028784 0.014105
v 0.078427 -0.020413 0.012330
v 0.078427 -0.011538 0.015010
v 0.074860 -0.005549 0.021121
v -0.051418 0.018532 0.065426
v -0.058395 0.019311 0.059372
v -0.062707 0.025153 0.053608
v -0.062707 0.033827 0.050337
v -0.058395 0.042020 0.050808
v -0.051418 0.046603 0.054841
v -0.044441 0.045824 0.060896
v -0.040129 0.039982 0.066659
v -0.040129 0.031308 0.069930
v -0.044441 0.023114 0.069459
v 0.002372 -0.006033 0.000281
v -0.004605 -0.005254 -0.005773
v -0.008917 0.000588 -0.011537
v -0.008917 0.009262 -0.014808
v -0.004605 0.017455 -0.014337
v 0.002372 0.022038 -0.010304
v 0.009349 0.021259 -0.004249
v 0.013661 0.015417 0.001514
v 0.013661 0.006742 0.004785
v 0.009349 -0.001451 0.004314
v 0.002632 0.008002 0.009987
v 0.002864 -0.000810 0.007117
v 0.002907 -0.006256 -0.000385
v 0.002746 -0.006256 -0.009654
v 0.002442 -0.000810 -0.017150
v 0.002111 0.008002 -0.020009
v 0.001880 0.016815 -0.017140
v 0.001836 0.022261 -0.009638
v 0.001997 0.022261 -0.000369
v 0.002301 0.016815 0.007127
v 0.022711 0.008643 0.009638
v 0.022942 -0.000169 0.006769
v 0.022986 -0.005615 -0.000733
v 0.022825 -0.005615 -0.010002
v 0.022521 -0.000169 -0.017498
v 0.022190 0.008643 -0.020358
v 0.021959 0.017456 -0.017488
v 0.021915 0.022902 -0.009986
v 0.022076 0.022902 -0.000717
v 0.022380 0.017456 0.006778
v 0.016018 0.008643 0.008191
v 0.016569 -0.000141 0.005281
v 0.019366 -0.005571 -0.001693
v 0.023342 -0.005571 -0.010068
v 0.026977 -0.000141 -0.016644
v 0.028883 0.008643 -0.018911
v 0.028332 0.017428 -0.016001
v 0.025535 0.022858 -0.009027
v 0.021559 0.022858 -0.000652
v 0.017924 0.017428 0.005925
v 0.039400 0.006434 0.019291
v 0.039951 -0.002351 0.016381
v 0.042749 -0.007780 0.009407
v 0.046725 -0.007780 0.001032
v 0.050360 -0.002351 -0.005544
v 0.052266 0.006434 -0.007811
v 0.051715 0.015218 -0.004901
v 0.048917 0.020648 0.002073
v 0.044942 0.020648 0.010448
v 0.041307 0.015218 0.017024
v 0.045833 0.021433 0.005633
v 0.039267 0.018611 0.011538
v 0.035209 0.011137 0.015228
v 0.035209 0.001866 0.015294
v 0.039267 -0.005659 0.011711
v 0.045833 -0.008566 0.005847
v 0.052399 -0.005743 -0.000058
v 0.056457 0.001731 -0.003747
v 0.056457 0.011001 -0.003813
v 0.052399 0.018527 -0.000230
v 0.064072 0.021578 0.025985
v 0.057506 0.018755 0.031889
v 0.053448 0.011281 0.035579
v 0.053448 0.002011 0.035645
v 0.057506 -0.005514 0.032062
v 0.064072 -0.008421 0.026198
v 0.070638 -0.005598 0.020294
v 0.074696 0.001876 0.016604
v 0.074696 0.011146 0.016538
v 0.070638 0.018672 0.020121
v -0.051418 0.017840 0.062981
v -0.058252 0.019595 0.056968
v -0.062475 0.026305 0.052164
v -0.062475 0.035407 0.050404
v -0.058252 0.043425 0.052361
v -0.051418 0.047295 0.057287
v -0.044584 0.045539 0.063300
v -0.040361 0.038829 0.068104
v -0.040361 0.029727 0.069864
v -0.044584 0.021710 0.067907
v -0.001162 0.006138 0.002452
v -0.007996 0.007894 -0.003561
v -0.012219 0.014604 -0.008365
v -0.012219 0.023706 -0.010125
v -0.007996 0.031723 -0.008168
v -0.001162 0.035593 -0.003242
v 0.005672 0.033838 0.002771
v 0.009895 0.027128 0.007575
v 0.009895 0.018026 0.009335
v 0.005672 0.010008 0.007378
v -0.001957 0.020866 0.014584
v -0.000963 0.012089 0.011768
v -0.000046 0.006665 0.004306
v 0.000446 0.006665 -0.004951
v 0.000323 0.012089 -0.012468
v -0.000367 0.020866 -0.015374
v -0.001360 0.029642 -0.012558
v -0.002278 0.035066 -0.005096
v -0.002770 0.035066 0.004162
v -0.002647 0.029642 0.011679
v 0.016415 0.022633 0.015560
v 0.017408 0.013857 0.012743
v 0.018326 0.008432 0.005282
v 0.018818 0.008432 -0.003976
v 0.018695 0.013857 -0.011493
v 0.018005 0.022633 -0.014398
v 0.017012 0.031409 -0.011582
v 0.016094 0.036833 -0.004120
v 0.015602 0.036833 0.005137
v 0.015725 0.031409 0.012654
v 0.017210 0.037629 0.000241
v 0.013248 0.034943 0.008180
v 0.010799 0.027556 0.013216
v 0.010799 0.018287 0.013426
v 0.013248 0.010679 0.008730
v 0.017210 0.007637 0.000920
v 0.021172 0.010322 -0.007019
v 0.023621 0.017710 -0.012055
v 0.023621 0.026978 -0.012265
v 0.021172 0.034587 -0.007568
v 0.035957 0.037843 0.009670
v 0.031994 0.035157 0.017609
v 0.029545 0.027769 0.022645
v 0.029545 0.018501 0.022855
v 0.031994 0.010893 0.018158
v 0.035957 0.007850 0.010349
v 0.039919 0.010536 0.002410
v 0.042368 0.017924 -0.002627
v 0.042368 0.027192 -0.002837
v 0.039919 0.034800 0.001860
v 0.035957 0.037341 0.013871
v 0.029729 0.032966 0.019164
v 0.025880 0.024725 0.020960
v 0.025880 0.015768 0.018573
v 0.029729 0.009514 0.012915
v 0.035957 0.008352 0.006147
v 0.042185 0.012727 0.000854
v 0.046034 0.020968 -0.000942
v 0.046034 0.029926 0.001445
v 0.042185 0.036180 0.007103
v 0.048161 0.034205 0.025640
v 0.041933 0.029830 0.030933
v 0.038084 0.021590 0.032729
v 0.038084 0.012632 0.030342
v 0.041933 0.006378 0.024684
v 0.048161 0.005216 0.017915
v 0.054389 0.009591 0.012623
v 0.058238 0.017832 0.010827
v 0.058238 0.026790 0.013214
v 0.054389 0.033044 0.018872
f 1 2 13
f 2 14 13
f 2 3 14
f 3 15 14
f 3 4 15
f 4 16 15
f 4 5 16
f 5 17 16
f 5 6 17
f 6 18 17
f 6 7 18
f 7 19 18
f 7 8 19
f 8 20 19
f 8 9 20
f 9 21 20
f 9 10 21
f 10 22 21
f 10 11 22
f 11 23 22
f 11 12 23
f 12 24 23
f 13 14 25
f 14 26 25
f 14 15 26
f 15 27 26
f 15 16 27
f 16 28 27
f 16 17 28
f 17 29 28
f 17 18 29
f 18 30 29
f 18 19 30
f 19 31 30
f 19 20 31
f 20 32 31
f 20 21 32
f 21 33 32
f 21 22 33
f 22 34 33
f 22 23 34
f 23 35 34
f 23 24 35
f 24 36 35
f 25 26 37
f 26 38 37
f 26 27 38
f 27 39 38
f 27 28 39
f 28 40 39
f 28 29 40
f 29 41 40
f 29 30 41
f 30 42 41
f 30 31 42
f 31 43 42
f 31 32 43
f 32 44 43
f 32 33 44
f 33 45 44
f 33 34 45
f 34 46 45
f 34 35 46
f 35 47 46
f 35 36 47
f 36 48 47
f 37 38 49
f 38 50 49
f 38 39 50
f 39 51 50
f 39 40 51
f 40 52 51
f 40 41 52
f 41 53 52
f 41 42 53
f 42 54 53
f 42 43 54
f 43 55 54
f 43 44 55
f 44 56 55
f 44 45 56
f 45 57 56
f 45 46 57
f 46 58 57
f 46 47 58
f 47 59 58
f 47 48 59
f 48 60 59
f 49 50 61
f 50 62 61
f 50 51 62
f 51 63 62
f 51 52 63
f 52 64 63
f 52 53 64
f 53 65 64
f 53 54 65
f 54 66 65
f 54 55 66
f 55 67 66
f 55 56 67
f 56 68 67
f 56 57 68
f 57 69 68
f 57 58 69
f 58 70 69
f 58 59 70
f 59 71 70
f 59 60 71
f 60 72 71
f 61 62 73
f 62 74 73
f 62 63 74
f 63 75 74
f 63 64 75
f 64 76 75
f 64 65 76
f 65 77 76
f 65 66 77
f 66 78 77
f 66 67 78
f 67 79 78
f 67 68 79
f 68 80 79
f 68 69 80
f 69 81 80
f 69 70 81
f 70 82 81
f 70 71 82
f 71 83 82
f 71 72 83
f 72 84 83
f 73 74 85
f 74 86 85
f 74 75 86
f 75 87 86
f 75 76 87
f 76 88 87
f 76 77 88
f 77 89 88
f 77 78 89
f 78 90 89
f 78 79 90
f 79 91 90
f 79 80 91
f 80 92 91
f 80 81 92
f 81 93 92
f 81 82 93
f 82 94 93
f 82 83 94
f 83 95 94
f 83 84 95
f 84 96 95
f 85 86 97
f 86 98 97
f 86 87 98
f 87 99 98
f 87 88 99
f 88 100 99
f 88 89 100
f 89 101 100
f 89 90 101
f 90 102 101
f 90 91 102
f 91 103 102
f 91 92 103
f 92 104 103
f 92 93 104
f 93 105 104
f 93 94 105
f 94 106 105
f 94 95 106
f 95 107 106
f 95 96 107
f 96 108 107
f 97 98 109
f 98 110 109
f 98 99 110
f 99 111 110
f 99 100 111
f 100 112 111
f 100 101 112
f 101 113 112
f 101 102 113
f 102 114 113
f 102 103 114
f 103 115 114
f 103 104 115
f 104 116 115
f 104 105 116
f 105 117 116
f 105 106 117
f 106 118 117
f 106 107 118
f 107 119 118
f 107 108 119
f 108 120 119
f 109 110 121
f 110 122 121
f 110 111 122
f 111 123 122
f 111 112 123
f 112 124 123
f 112 113 124
f 113 125 124
f 113 114 125
f 114 126 125
f 114 115 126
f 115 127 126
f 115 116 127
f 116 128 127
f 116 117 128
f 117 129 128
f 117 118 129
f 118 130 129
f 118 119 130
f 119 131 130
f 119 120 131
f 120 132 131
f 121 122 133
f 122 134 133
f 122 123 134
f 123 135 134
f 123 124 135
f 124 136 135
f 124 125 136
f 125 137 136
f 125 126 137
f 126 138 137
f 126 127 138
f 127 139 138
f 127 128 139
f 128 140 139
f 128 129 140
f 129 141 140
f 129 130 141
f 130 142 141
f 130 131 142
f 131 143 142
f 131 132 143
f 132 144 143
f 145 146 155
f 146 156 155
f 146 147 156
f 147 157 156
f 147 148 157
f 148 158 157
f 148 149 158
f 149 159 158
f 149 150 159
f 150 160 159
f 150 151 160
f 151 161 160
f 151 152 161
f 152 162 161
f 152 153 162
f 153 163 162
f 153 154 163
f 154 164 163
f 154 145 164
f 145 155 164
f 165 166 175
f 166 176 175
f 166 167 176
f 167 177 176
f 167 168 177
f 168 178 177
f 168 169 178
f 169 179 178
f 169 170 179
f 170 180 179
f 170 171 180
f 171 181 180
f 171 172 181
f 172 182 181
f 172 173 182
f 173 183 182
f 173 174 183
f 174 184 183
f 174 165 184
f 165 175 184
f 185 186 195
f 186 196 195
f 186 187 196
f 187 197 196
f 187 188 197
f 188 198 197
f 188 189 198
f 189 199 198
f 189 190 199
f 190 200 199
f 190 191 200
f 191 201 200
f 191 192 201
f 192 202 201
f 192 193 202
f 193 203 202
f 193 194 203
f 194 204 203
f 194 185 204
f 185 195 204
f 205 206 215
f 206 216 215
f 206 207 216
f 207 217 216
f 207 208 217
f 208 218 217
f 208 209 218
f 209 219 218
f 209 210 219
f 210 220 219
f 210 211 220
f 211 221 220
f 211 212 221
f 212 222 221
f 212 213 222
f 213 223 222
f 213 214 223
f 214 224 223
f 214 205 224
f 205 215 224
f 225 226 235
f 226 236 235
f 226 227 236
f 227 237 236
f 227 228 237
f 228 238 237
f 228 229 238
f 229 239 238
f 229 230 239
f 230 240 239
f 230 231 240
f 231 241 240
f 231 232 241
f 232 242 241
f 232 233 242
f 233 243 242
f 233 234 243
f 234 244 243
f 234 225 244
f 225 235 244
f 245 246 255
f 246 256 255
f 246 247 256
f 247 257 256
f 247 248 257
f 248 258 257
f 248 249 258
f 249 259 258
f 249 250 259
f 250 260 259
f 250 251 260
f 251 261 260
f 251 252 261
f 252 262 261
f 252 253 262
f 253 263 262
f 253 254 263
f 254 264 263
f 254 245 264
f 245 255 264
f 265 266 275
f 266 276 275
f 266 267 276
f 267 277 276
f 267 268 277
f 268 278 277
f 268 269 278
f 269 279 278
f 269 270 279
f 270 280 279
f 270 271 280
f 271 281 280
f 271 272 281
f 272 282 281
f 272 273 282
f 273 283 282
f 273 274 283
f 274 284 283
f 274 265 284
f 265 275 284
f 285 286 295
f 286 296 295
f 286 287 296
f 287 297 296
f 287 288 297
f 288 298 297
f 288 289 298
f 289 299 298
f 289 290 299
f 290 300 299
f 290 291 300
f 291 301 300
f 291 292 301
f 292 302 301
f 292 293 302
f 293 303 302
f 293 294 303
f 294 304 303
f 294 285 304
f 285 295 304
f 305 306 315
f 306 316 315
f 306 307 316
f 307 317 316
f 307 308 317
f 308 318 317
f 308 309 318
f 309 319 318
f 309 310 319
f 310 320 319
f 310 311 320
f 311 321 320
f 311 312 321
f 312 322 321
f 312 313 322
f 313 323 322
f 313 314 323
f 314 324 323
f 314 305 324
f 305 315 324
f 325 326 335
f 326 336 335
f 326 327 336
f 327 337 336
f 327 328 337
f 328 338 337
f 328 329 338
f 329 339 338
f 329 330 339
f 330 340 339
f 330 331 340
f 331 341 340
f 331 332 341
f 332 342 341
f 332 333 342
f 333 343 342
f 333 334 343
f 334 344 343
f 334 325 344
f 325 335 344
f 345 346 355
f 346 356 355
f 346 347 356
f 347 357 356
f 347 348 357
f 348 358 357
f 348 349 358
f 349 359 358
f 349 350 359
f 350 360 359
f 350 351 360
f 351 361 360
f 351 352 361
f 352 362 361
f 352 353 362
f 353 363 362
f 353 354 363
f 354 364 363
f 354 345 364
f 345 355 364
f 365 366 375
f 366 376 375
f 366 367 376
f 367 377 376
f 367 368 377
f 368 378 377
f 368 369 378
f 369 379 378
f 369 370 379
f 370 380 379
f 370 371 380
f 371 381 380
f 371 372 381
f 372 382 381
f 372 373 382
f 373 383 382
f 373 374 383
f 374 384 383
f 374 365 384
f 365 375 384
f 385 386 395
f 386 396 395
f 386 387 396
f 387 397 396
f 387 388 397
f 388 398 397
f 388 389 398
f 389 399 398
f 389 390 399
f 390 400 399
f 390 391 400
f 391 401 400
f 391 392 401
f 392 402 401
f 392 393 402
f 393 403 402
f 393 394 403
f 394 404 403
f 394 385 404
f 385 395 404
f 405 406 415
f 406 416 415
f 406 407 416
f 407 417 416
f 407 408 417
f 408 418 417
f 408 409 418
f 409 419 418
f 409 410 419
f 410 420 419
f 410 411 420
f 411 421 420
f 411 412 421
f 412 422 421
f 412 413 422
f 413 423 422
f 413 414 423
f 414 424 423
f 414 405 424
f 405 415 424
f 425 426 435
f 426 436 435
f 426 427 436
f 427 437 436
f 427 428 437
f 428 438 437
f 428 429 438
f 429 439 438
f 429 430 439
f 430 440 439
f 430 431 440
f 431 441 440
f 431 432 441
f 432 442 441
f 432 433 442
f 433 443 442
f 433 434 443
f 434 444 443
f 434 425 444
f 425 435 444
f 445 446 455
f 446 456 455
f 446 447 456
f 447 457 456
f 447 448 457
f 448 458 457
f 448 449 458
f 449 459 458
f 449 450 459
f 450 460 459
f 450 451 460
f 451 461 460
f 451 452 461
f 452 462 461
f 452 453 462
f 453 463 462
f 453 454 463
f 454 464 463
f 454 445 464
f 445 455 464
f 465 466 475
f 466 476 475
f 466 467 476
f 467 477 476
f 467 468 477
f 468 478 477
f 468 469 478
f 469 479 478
f 469 470 479
f 470 480 479
f 470 471 480
f 471 481 480
f 471 472 481
f 472 482 481
f 472 473 482
f 473 483 482
f 473 474 483
f 474 484 483
f 474 465 484
f 465 475 484
f 485 486 495
f 486 496 495
f 486 487 496
f 487 497 496
f 487 488 497
f 488 498 497
f 488 489 498
f 489 499 498
f 489 490 499
f 490 500 499
f 490 491 500
f 491 501 500
f 491 492 501
f 492 502 501
f 492 493 502
f 493 503 502
f 493 494 503
f 494 504 503
f 494 485 504
f 485 495 504
f 505 506 515
f 506 516 515
f 506 507 516
f 507 517 516
f 507 508 517
f 508 518 517
f 508 509 518
f 509 519 518
f 509 510 519
f 510 520 519
f 510 511 520
f 511 521 520
f 511 512 521
f 512 522 521
f 512 513 522
f 513 523 522
f 513 514 523
f 514 524 523
f 514 505 524
f 505 515 524
f 525 526 535
f 526 536 535
f 526 527 536
f 527 537 536
f 527 528 537
f 528 538 537
f 528 529 538
f 529 539 538
f 529 530 539
f 530 540 539
f 530 531 540
f 531 541 540
f 531 532 541
f 532 542 541
f 532 533 542
f 533 543 542
f 533 534 543
f 534 544 543
f 534 525 544
f 525 535 544
f 545 546 555
f 546 556 555
f 546 547 556
f 547 557 556
f 547 548 557
f 548 558 557
f 548 549 558
f 549 559 558
f 549 550 559
f 550 560 559
f 550 551 560
f 551 561 560
f 551 552 561
f 552 562 561
f 552 553 562
f 553 563 562
f 553 554 563
f 554 564 563
f 554 545 564
f 545 555 564
f 565 566 575
f 566 576 575
f 566 567 576
f 567 577 576
f 567 568 577
f 568 578 577
f 568 569 578
f 569 579 578
f 569 570 579
f 570 580 579
f 570 571 580
f 571 581 580
f 571 572 581
f 572 582 581
f 572 573 582
f 573 583 582
f 573 574 583
f 574 584 583
f 574 565 584
f 565 575 584
f 585 586 595
f 586 596 595
f 586 587 596
f 587 597 596
f 587 588 597
f 588 598 597
f 588 589 598
f 589 599 598
f 589 590 599
f 590 600 599
f 590 591 600
f 591 601 600
f 591 592 601
f 592 602 601
f 592 593 602
f 593 603 602
f 593 594 603
f 594 604 603
f 594 585 604
f 585 595 604
f 605 606 615
f 606 616 615
f 606 607 616
f 607 617 616
f 607 608 617
f 608 618 617
f 608 609 618
f 609 619 618
f 609 610 619
f 610 620 619
f 610 611 620
f 611 621 620
f 611 612 621
f 612 622 621
f 612 613 622
f 613 623 622
f 613 614 623
f 614 624 623
f 614 605 624
f 605 615 624
f 625 626 635
f 626 636 635
f 626 627 636
f 627 637 636
f 627 628 637
f 628 638 637
f 628 629 638
f 629 639 638
f 629 630 639
f 630 640 639
f 630 631 640
f 631 641 640
f 631 632 641
f 632 642 641
f 632 633 642
f 633 643 642
f 633 634 643
f 634 644 643
f 634 625 644
f 625 635 644
f 645 646 655
f 646 656 655
f 646 647 656
f 647 657 656
f 647 648 657
f 648 658 657
f 648 649 658
f 649 659 658
f 649 650 659
f 650 660 659
f 650 651 660
f 651 661 660
f 651 652 661
f 652 662 661
f 652 653 662
f 653 663 662
f 653 654 663
f 654 664 663
f 654 645 664
f 645 655 664
f 665 666 675
f 666 676 675
f 666 667 676
f 667 677 676
f 667 668 677
f 668 678 677
f 668 669 678
f 669 679 678
f 669 670 679
f 670 680 679
f 670 671 680
f 671 681 680
f 671 672 681
f 672 682 681
f 672 673 682
f 673 683 682
f 673 674 683
f 674 684 683
f 674 665 684
f 665 675 684
f 685 686 695
f 686 696 695
f 686 687 696
f 687 697 696
f 687 688 697
f 688 698 697
f 688 689 698
f 689 699 698
f 689 690 699
f 690 700 699
f 690 691 700
f 691 701 700
f 691 692 701
f 692 702 701
f 692 693 702
f 693 703 702
f 693 694 703
f 694 704 703
f 694 685 704
f 685 695 704
f 705 706 715
f 706 716 715
f 706 707 716
f 707 717 716
f 707 708 717
f 708 718 717
f 708 709 718
f 709 719 718
f 709 710 719
f 710 720 719
f 710 711 720
f 711 721 720
f 711 712 721
f 712 722 721
f 712 713 722
f 713 723 722
f 713 714 723
f 714 724 723
f 714 705 724
f 705 715 724
f 725 726 735
f 726 736 735
f 726 727 736
f 727 737 736
f 727 728 737
f 728 738 737
f 728 729 738
f 729 739 738
f 729 730 739
f 730 740 739
f 730 731 740
f 731 741 740
f 731 732 741
f 732 742 741
f 732 733 742
f 733 743 742
f 733 734 743
f 734 744 743
f 734 725 744
f 725 735 744
f 745 746 755
f 746 756 755
f 746 747 756
f 747 757 756
f 747 748 757
f 748 758 757
f 748 749 758
f 749 759 758
f 749 750 759
f 750 760 759
f 750 751 760
f 751 761 760
f 751 752 761
f 752 762 761
f 752 753 762
f 753 763 762
f 753 754 763
f 754 764 763
f 754 745 764
f 745 755 764
f 765 766 775
f 766 776 775
f 766 767 776
f 767 777 776
f 767 768 777
f 768 778 777
f 768 769 778
f 769 779 778
f 769 770 779
f 770 780 779
f 770 771 780
f 771 781 780
f 771 772 781
f 772 782 781
f 772 773 782
f 773 783 782
f 773 774 783
f 774 784 783
f 774 765 784
f 765 775 784
