# Full-Body 3D Mesh - Frame 161
v 0.032442 -0.620833 -0.147641
v 0.066250 -0.620833 -0.152502
v 0.097319 -0.620833 -0.166691
v 0.123132 -0.620833 -0.189058
v 0.141598 -0.620833 -0.217791
v 0.151221 -0.620833 -0.250563
v 0.151221 -0.620833 -0.284719
v 0.141598 -0.620833 -0.317491
v 0.123132 -0.620833 -0.346224
v 0.097319 -0.620833 -0.368591
v 0.066250 -0.620833 -0.382780
v 0.032442 -0.620833 -0.387641
v 0.032442 -0.620833 -0.147641
v 0.060883 -0.602555 -0.152502
v 0.087020 -0.585758 -0.166691
v 0.108735 -0.571802 -0.189058
v 0.124270 -0.561819 -0.217791
v 0.132365 -0.556616 -0.250563
v 0.132365 -0.556616 -0.284719
v 0.124270 -0.561819 -0.317491
v 0.108735 -0.571802 -0.346224
v 0.087020 -0.585758 -0.368591
v 0.060883 -0.602555 -0.382780
v 0.032442 -0.620833 -0.387641
v 0.032442 -0.620833 -0.147641
v 0.046486 -0.590080 -0.152502
v 0.059393 -0.561819 -0.166691
v 0.070116 -0.538338 -0.189058
v 0.077787 -0.521541 -0.217791
v 0.081784 -0.512788 -0.250563
v 0.081784 -0.512788 -0.284719
v 0.077787 -0.521541 -0.317491
v 0.070116 -0.538338 -0.346224
v 0.059393 -0.561819 -0.368591
v 0.046486 -0.590080 -0.382780
v 0.032442 -0.620833 -0.387641
v 0.032442 -0.620833 -0.147641
v 0.027631 -0.587369 -0.152502
v 0.023209 -0.556616 -0.166691
v 0.019536 -0.531066 -0.189058
v 0.016908 -0.512788 -0.217791
v 0.015538 -0.503263 -0.250563
v 0.015538 -0.503263 -0.284719
v 0.016908 -0.512788 -0.317491
v 0.019536 -0.531066 -0.346224
v 0.023209 -0.556616 -0.368591
v 0.027631 -0.587369 -0.382780
v 0.032442 -0.620833 -0.387641
v 0.032442 -0.620833 -0.147641
v 0.010303 -0.595282 -0.152502
v -0.010043 -0.571802 -0.166691
v -0.026947 -0.552294 -0.189058
v -0.039040 -0.538338 -0.217791
v -0.045341 -0.531066 -0.250563
v -0.045341 -0.531066 -0.284719
v -0.039040 -0.538338 -0.317491
v -0.026947 -0.552294 -0.346224
v -0.010043 -0.571802 -0.368591
v 0.010303 -0.595282 -0.382780
v 0.032442 -0.620833 -0.387641
v 0.032442 -0.620833 -0.147641
v 0.000004 -0.611308 -0.152502
v -0.029807 -0.602555 -0.166691
v -0.054574 -0.595282 -0.189058
v -0.072292 -0.590080 -0.217791
v -0.081525 -0.587369 -0.250563
v -0.081525 -0.587369 -0.284719
v -0.072292 -0.590080 -0.317491
v -0.054574 -0.595282 -0.346224
v -0.029807 -0.602555 -0.368591
v 0.000004 -0.611308 -0.382780
v 0.032442 -0.620833 -0.387641
v 0.032442 -0.620833 -0.147641
v 0.000004 -0.630358 -0.152502
v -0.029807 -0.639111 -0.166691
v -0.054574 -0.646383 -0.189058
v -0.072292 -0.651586 -0.217791
v -0.081525 -0.654297 -0.250563
v -0.081525 -0.654297 -0.284719
v -0.072292 -0.651586 -0.317491
v -0.054574 -0.646383 -0.346224
v -0.029807 -0.639111 -0.368591
v 0.000004 -0.630358 -0.382780
v 0.032442 -0.620833 -0.387641
v 0.032442 -0.620833 -0.147641
v 0.010303 -0.646383 -0.152502
v -0.010043 -0.669863 -0.166691
v -0.026947 -0.689372 -0.189058
v -0.039040 -0.703327 -0.217791
v -0.045341 -0.710600 -0.250563
v -0.045341 -0.710600 -0.284719
v -0.039040 -0.703327 -0.317491
v -0.026947 -0.689372 -0.346224
v -0.010043 -0.669863 -0.368591
v 0.010303 -0.646383 -0.382780
v 0.032442 -0.620833 -0.387641
v 0.032442 -0.620833 -0.147641
v 0.027631 -0.654297 -0.152502
v 0.023209 -0.685049 -0.166691
v 0.019536 -0.710600 -0.189058
v 0.016908 -0.728878 -0.217791
v 0.015538 -0.738402 -0.250563
v 0.015538 -0.738402 -0.284719
v 0.016908 -0.728878 -0.317491
v 0.019536 -0.710600 -0.346224
v 0.023209 -0.685049 -0.368591
v 0.027631 -0.654297 -0.382780
v 0.032442 -0.620833 -0.387641
v 0.032442 -0.620833 -0.147641
v 0.046486 -0.651586 -0.152502
v 0.059393 -0.679847 -0.166691
v 0.070116 -0.703327 -0.189058
v 0.077787 -0.720124 -0.217791
v 0.081784 -0.728878 -0.250563
v 0.081784 -0.728878 -0.284719
v 0.077787 -0.720124 -0.317491
v 0.070116 -0.703327 -0.346224
v 0.059393 -0.679847 -0.368591
v 0.046486 -0.651586 -0.382780
v 0.032442 -0.620833 -0.387641
v 0.032442 -0.620833 -0.147641
v 0.060883 -0.639111 -0.152502
v 0.087020 -0.655908 -0.166691
v 0.108735 -0.669863 -0.189058
v 0.124270 -0.679847 -0.217791
v 0.132365 -0.685049 -0.250563
v 0.132365 -0.685049 -0.284719
v 0.124270 -0.679847 -0.317491
v 0.108735 -0.669863 -0.346224
v 0.087020 -0.655908 -0.368591
v 0.060883 -0.639111 -0.382780
v 0.032442 -0.620833 -0.387641
v 0.032442 -0.620833 -0.147641
v 0.066250 -0.620833 -0.152502
v 0.097319 -0.620833 -0.166691
v 0.123132 -0.620833 -0.189058
v 0.141598 -0.620833 -0.217791
v 0.151221 -0.620833 -0.250563
v 0.151221 -0.620833 -0.284719
v 0.141598 -0.620833 -0.317491
v 0.123132 -0.620833 -0.346224
v 0.097319 -0.620833 -0.368591
v 0.066250 -0.620833 -0.382780
v 0.032442 -0.620833 -0.387641
v 0.177214 -0.445829 -0.099987
v 0.175954 -0.469332 -0.092428
v 0.173862 -0.483858 -0.072534
v 0.171738 -0.483858 -0.047904
v 0.170393 -0.469332 -0.027946
v 0.170341 -0.445829 -0.020283
v 0.171601 -0.422325 -0.027842
v 0.173693 -0.407799 -0.047736
v 0.175817 -0.407799 -0.072366
v 0.177162 -0.422325 -0.092324
v -0.150036 -0.437355 -0.128208
v -0.151297 -0.460858 -0.120649
v -0.153388 -0.475384 -0.100755
v -0.155512 -0.475384 -0.076126
v -0.156858 -0.460858 -0.056167
v -0.156910 -0.437355 -0.048504
v -0.155649 -0.413851 -0.056063
v -0.153558 -0.399325 -0.075957
v -0.151433 -0.399325 -0.100587
v -0.150088 -0.413851 -0.120545
v 0.173777 -0.466333 -0.094480
v 0.150501 -0.459567 -0.089622
v 0.136116 -0.447554 -0.073501
v 0.136116 -0.434881 -0.052275
v 0.150501 -0.426391 -0.034050
v 0.173777 -0.425325 -0.025790
v 0.197053 -0.432090 -0.030648
v 0.211439 -0.444104 -0.046769
v 0.211439 -0.456776 -0.067995
v 0.197053 -0.465267 -0.086219
v 0.208018 -0.260153 -0.217570
v 0.184743 -0.253387 -0.212712
v 0.170357 -0.241374 -0.196591
v 0.170357 -0.228701 -0.175365
v 0.184743 -0.220211 -0.157141
v 0.208018 -0.219144 -0.148880
v 0.231294 -0.225910 -0.153738
v 0.245680 -0.237923 -0.169859
v 0.245680 -0.250596 -0.191085
v 0.231294 -0.259086 -0.209309
v 0.208018 -0.277141 -0.169286
v 0.185851 -0.267250 -0.164604
v 0.172151 -0.246816 -0.167034
v 0.172151 -0.223645 -0.175648
v 0.185851 -0.206586 -0.187157
v 0.208018 -0.202156 -0.197164
v 0.230186 -0.212047 -0.201846
v 0.243886 -0.232481 -0.199416
v 0.243886 -0.255652 -0.190802
v 0.230186 -0.272711 -0.179293
v 0.109832 -0.373932 -0.429641
v 0.087665 -0.364041 -0.424958
v 0.073965 -0.343607 -0.427388
v 0.073965 -0.320435 -0.436002
v 0.087665 -0.303376 -0.447511
v 0.109832 -0.298946 -0.457518
v 0.132000 -0.308837 -0.462200
v 0.145700 -0.329271 -0.459770
v 0.145700 -0.352443 -0.451156
v 0.132000 -0.369502 -0.439647
v -0.153473 -0.452594 -0.125340
v -0.176844 -0.452056 -0.117299
v -0.191288 -0.445903 -0.098203
v -0.191288 -0.436484 -0.075346
v -0.176844 -0.427399 -0.057458
v -0.153473 -0.422115 -0.051373
v -0.130102 -0.422653 -0.059414
v -0.115658 -0.428806 -0.078510
v -0.115658 -0.438225 -0.101367
v -0.130102 -0.447311 -0.119254
v -0.180213 -0.227430 -0.218120
v -0.203584 -0.226892 -0.210079
v -0.218028 -0.220739 -0.190983
v -0.218028 -0.211321 -0.168126
v -0.203584 -0.202235 -0.150238
v -0.180213 -0.196952 -0.144153
v -0.156842 -0.197490 -0.152194
v -0.142398 -0.203643 -0.171290
v -0.142398 -0.213061 -0.194147
v -0.156842 -0.222147 -0.212034
v -0.180213 -0.248621 -0.164618
v -0.201437 -0.245841 -0.176985
v -0.214554 -0.230207 -0.190938
v -0.214554 -0.207692 -0.201147
v -0.201437 -0.186895 -0.203712
v -0.180213 -0.175761 -0.197654
v -0.158989 -0.178541 -0.185287
v -0.145871 -0.194175 -0.171334
v -0.145871 -0.216690 -0.161126
v -0.158989 -0.237487 -0.158561
v -0.077702 -0.337444 -0.360518
v -0.098926 -0.334663 -0.372885
v -0.112043 -0.319030 -0.386837
v -0.112043 -0.296515 -0.397046
v -0.098926 -0.275718 -0.399611
v -0.077702 -0.264584 -0.393553
v -0.056477 -0.267364 -0.381186
v -0.043360 -0.282998 -0.367234
v -0.043360 -0.305513 -0.357025
v -0.056477 -0.326309 -0.354460
v 0.173777 -0.438459 -0.099450
v 0.150391 -0.442245 -0.092387
v 0.135937 -0.447400 -0.073005
v 0.135937 -0.451954 -0.048707
v 0.150391 -0.454169 -0.028774
v 0.173777 -0.453198 -0.020820
v 0.197164 -0.449412 -0.027882
v 0.211618 -0.444257 -0.047264
v 0.211618 -0.439703 -0.071563
v 0.197164 -0.437488 -0.091496
v 0.127551 0.000632 -0.017148
v 0.104165 -0.003154 -0.010085
v 0.089711 -0.008308 0.009297
v 0.089711 -0.012863 0.033595
v 0.104165 -0.015078 0.053529
v 0.127551 -0.014106 0.061483
v 0.150938 -0.010321 0.054420
v 0.165391 -0.005166 0.035038
v 0.165391 -0.000612 0.010740
v 0.150938 0.001603 -0.009193
v -0.153473 -0.431011 -0.127850
v -0.176944 -0.430860 -0.120089
v -0.191450 -0.433190 -0.100206
v -0.191450 -0.437111 -0.075798
v -0.176944 -0.441125 -0.056186
v -0.153473 -0.443698 -0.048862
v -0.130002 -0.443849 -0.056624
v -0.115496 -0.441519 -0.076506
v -0.115496 -0.437598 -0.100914
v -0.130002 -0.433585 -0.120526
v -0.128065 -0.004203 -0.059295
v -0.151536 -0.004052 -0.051533
v -0.166042 -0.006382 -0.031651
v -0.166042 -0.010303 -0.007243
v -0.151536 -0.014317 0.012369
v -0.128065 -0.016890 0.019693
v -0.104594 -0.017041 0.011931
v -0.090089 -0.014711 -0.007951
v -0.090089 -0.010790 -0.032359
v -0.104594 -0.006777 -0.051971
v 0.134032 -0.006737 -0.017304
v 0.133135 -0.030246 -0.009710
v 0.130106 -0.044775 0.010061
v 0.126101 -0.044775 0.034456
v 0.122649 -0.030246 0.054157
v 0.121071 -0.006737 0.061639
v 0.121967 0.016772 0.054045
v 0.124997 0.031301 0.034274
v 0.129002 0.031301 0.009880
v 0.132453 0.016772 -0.009822
v -0.121585 -0.010547 -0.059272
v -0.122481 -0.034056 -0.051678
v -0.125511 -0.048585 -0.031908
v -0.129516 -0.048585 -0.007513
v -0.132967 -0.034056 0.012188
v -0.134546 -0.010547 0.019671
v -0.133649 0.012962 0.012076
v -0.130620 0.027492 -0.007694
v -0.126615 0.027492 -0.032089
v -0.123164 0.012962 -0.051790
v 0.127551 -0.026678 -0.012508
v 0.104058 -0.023671 -0.005424
v 0.089538 -0.014196 0.012198
v 0.089538 -0.001872 0.033629
v 0.104058 0.008594 0.050681
v 0.127551 0.013204 0.056843
v 0.151044 0.010197 0.049759
v 0.165564 0.000722 0.032137
v 0.165564 -0.011602 0.010707
v 0.151044 -0.022068 -0.006346
v 0.121695 0.102321 -0.086692
v 0.098202 0.105328 -0.079609
v 0.083682 0.114803 -0.061986
v 0.083682 0.127127 -0.040556
v 0.098202 0.137593 -0.023503
v 0.121695 0.142203 -0.017342
v 0.145188 0.139196 -0.024425
v 0.159708 0.129721 -0.042047
v 0.159708 0.117397 -0.063478
v 0.145188 0.106931 -0.080530
v 0.121695 0.145088 -0.084865
v 0.098252 0.142194 -0.077573
v 0.083763 0.131687 -0.060519
v 0.083763 0.117580 -0.040218
v 0.098252 0.105261 -0.024424
v 0.121695 0.099436 -0.019169
v 0.145139 0.102330 -0.026461
v 0.159628 0.112837 -0.043514
v 0.159628 0.126944 -0.063815
v 0.145139 0.139263 -0.079610
v 0.144882 0.395186 0.088926
v 0.121438 0.392293 0.096218
v 0.106949 0.381786 0.113272
v 0.106949 0.367678 0.133573
v 0.121438 0.355360 0.149367
v 0.144882 0.349535 0.154622
v 0.168325 0.352428 0.147330
v 0.182814 0.362935 0.130277
v 0.182814 0.377042 0.109976
v 0.168325 0.389361 0.094181
v -0.128065 -0.049593 -0.011121
v -0.151264 -0.042966 -0.016510
v -0.165601 -0.023955 -0.023156
v -0.165601 0.000177 -0.028521
v -0.151264 0.020213 -0.030555
v -0.128065 0.028500 -0.028481
v -0.104867 0.021872 -0.023092
v -0.090529 0.002862 -0.016446
v -0.090529 -0.021271 -0.011081
v -0.104867 -0.041307 -0.009047
v -0.092050 -0.097024 -0.224484
v -0.115249 -0.090396 -0.229873
v -0.129586 -0.071385 -0.236519
v -0.129586 -0.047253 -0.241884
v -0.115249 -0.027217 -0.243918
v -0.092050 -0.018930 -0.241844
v -0.068851 -0.025558 -0.236455
v -0.054514 -0.044569 -0.229809
v -0.054514 -0.068701 -0.224444
v -0.068851 -0.088737 -0.222410
v -0.092050 -0.058021 -0.273164
v -0.115553 -0.057386 -0.265525
v -0.130079 -0.056978 -0.245526
v -0.130079 -0.056951 -0.220804
v -0.115553 -0.057316 -0.200804
v -0.092050 -0.057933 -0.193164
v -0.068547 -0.058568 -0.200803
v -0.054021 -0.058976 -0.220802
v -0.054021 -0.059003 -0.245523
v -0.068547 -0.058638 -0.265524
v -0.084525 0.224568 -0.273472
v -0.108028 0.225202 -0.265833
v -0.122554 0.225611 -0.245834
v -0.122554 0.225638 -0.221112
v -0.108028 0.225273 -0.201112
v -0.084525 0.224655 -0.193472
v -0.061022 0.224021 -0.201111
v -0.046496 0.223612 -0.221110
v -0.046496 0.223585 -0.245832
v -0.061022 0.223950 -0.265832
v -0.049903 0.033875 0.081867
v -0.056800 0.029053 0.077978
v -0.061063 0.027200 0.069957
v -0.061063 0.029024 0.060868
v -0.056800 0.033828 0.054182
v -0.049903 0.039776 0.052453
v -0.043006 0.044598 0.056343
v -0.038744 0.046450 0.064364
v -0.038744 0.044627 0.073453
v -0.043006 0.039823 0.080139
v -0.026937 0.005597 0.076194
v -0.033834 0.000776 0.072304
v -0.038096 -0.001077 0.064283
v -0.038096 0.000747 0.055194
v -0.033834 0.005550 0.048508
v -0.026937 0.011499 0.046780
v -0.020039 0.016320 0.050669
v -0.015777 0.018173 0.058690
v -0.015777 0.016349 0.067780
v -0.020039 0.011546 0.074465
v -0.026937 -0.003440 0.070502
v -0.031079 -0.005829 0.062560
v -0.033640 -0.002725 0.054208
v -0.033640 0.004684 0.048636
v -0.031079 0.013569 0.047973
v -0.026937 0.020536 0.052471
v -0.022794 0.022924 0.060413
v -0.020233 0.019821 0.068765
v -0.020233 0.012412 0.074337
v -0.022794 0.003527 0.075001
v -0.002566 -0.011237 0.060134
v -0.006709 -0.013626 0.052192
v -0.009269 -0.010522 0.043840
v -0.009269 -0.003113 0.038268
v -0.006709 0.005772 0.037605
v -0.002566 0.012739 0.042103
v 0.001577 0.015128 0.050045
v 0.004137 0.012024 0.058397
v 0.004137 0.004615 0.063969
v 0.001577 -0.004270 0.064633
v -0.002566 -0.014249 0.051206
v -0.009467 -0.011416 0.045702
v -0.013732 -0.003936 0.042267
v -0.013732 0.005335 0.042213
v -0.009467 0.012854 0.045561
v -0.002566 0.015751 0.051032
v 0.004335 0.012918 0.056536
v 0.008600 0.005438 0.059971
v 0.008600 -0.003833 0.060025
v 0.004335 -0.011352 0.056677
v 0.016790 -0.014390 0.026865
v 0.009889 -0.011557 0.021361
v 0.005624 -0.004077 0.017926
v 0.005624 0.005193 0.017872
v 0.009889 0.012713 0.021220
v 0.016790 0.015609 0.026690
v 0.023691 0.012777 0.032195
v 0.027956 0.005296 0.035630
v 0.027956 -0.003974 0.035683
v 0.023691 -0.011494 0.032336
v 0.016790 -0.013236 0.021008
v 0.009671 -0.008591 0.017309
v 0.005272 -0.000432 0.017226
v 0.005272 0.008125 0.020791
v 0.009671 0.013812 0.026644
v 0.016790 0.014456 0.032547
v 0.023909 0.009811 0.036247
v 0.028309 0.001651 0.036329
v 0.028309 -0.006906 0.032764
v 0.023909 -0.012593 0.026912
v 0.030783 -0.005871 0.003331
v 0.023664 -0.001226 -0.000369
v 0.019265 0.006934 -0.000452
v 0.019265 0.015491 0.003114
v 0.023664 0.021178 0.008966
v 0.030783 0.021822 0.014870
v 0.037902 0.017176 0.018569
v 0.042302 0.009017 0.018652
v 0.042302 0.000460 0.015086
v 0.037902 -0.005227 0.009234
v -0.049903 0.025610 0.077121
v -0.057471 0.024748 0.071836
v -0.062148 0.028499 0.064765
v -0.062148 0.035430 0.058609
v -0.057471 0.042895 0.055720
v -0.049903 0.048041 0.057200
v -0.042336 0.048903 0.062485
v -0.037659 0.045152 0.069556
v -0.037659 0.038220 0.075712
v -0.042336 0.030756 0.078601
v -0.002350 -0.027208 0.017646
v -0.009917 -0.028070 0.012361
v -0.014594 -0.024319 0.005290
v -0.014594 -0.017387 -0.000866
v -0.009917 -0.009923 -0.003755
v -0.002350 -0.004776 -0.002275
v 0.005218 -0.003914 0.003010
v 0.009895 -0.007666 0.010081
v 0.009895 -0.014597 0.016237
v 0.005218 -0.022062 0.019126
v 0.000115 -0.015992 0.022482
v -0.002855 -0.024437 0.020072
v -0.005631 -0.029657 0.012931
v -0.007154 -0.029657 0.003787
v -0.006842 -0.024437 -0.003869
v -0.004815 -0.015992 -0.007111
v -0.001845 -0.007547 -0.004701
v 0.000931 -0.002328 0.002440
v 0.002454 -0.002328 0.011584
v 0.002142 -0.007547 0.019240
v 0.025743 -0.023785 0.018213
v 0.022774 -0.032230 0.015803
v 0.019998 -0.037449 0.008662
v 0.018474 -0.037449 -0.000482
v 0.018786 -0.032230 -0.008138
v 0.020814 -0.023785 -0.011380
v 0.023783 -0.015340 -0.008970
v 0.026560 -0.010121 -0.001829
v 0.028083 -0.010121 0.007315
v 0.027771 -0.015340 0.014971
v 0.018116 -0.023785 0.017500
v 0.017154 -0.032354 0.014096
v 0.018532 -0.037650 0.006613
v 0.021723 -0.037650 -0.002091
v 0.025508 -0.032354 -0.008691
v 0.028442 -0.023785 -0.010667
v 0.029404 -0.015216 -0.007263
v 0.028026 -0.009920 0.000220
v 0.024835 -0.009920 0.008924
v 0.021050 -0.015216 0.015524
v 0.040088 -0.029451 0.025555
v 0.039127 -0.038020 0.022151
v 0.040504 -0.043316 0.014668
v 0.043695 -0.043316 0.005964
v 0.047481 -0.038020 -0.000636
v 0.050415 -0.029451 -0.002612
v 0.051377 -0.020882 0.000792
v 0.049999 -0.015586 0.008275
v 0.046808 -0.015586 0.016979
v 0.043022 -0.020882 0.023580
v 0.039196 -0.029451 0.025195
v 0.039104 -0.038161 0.022023
v 0.041360 -0.043545 0.014821
v 0.045102 -0.043545 0.006339
v 0.048901 -0.038161 -0.000182
v 0.051307 -0.029451 -0.002252
v 0.051399 -0.020741 0.000920
v 0.049144 -0.015357 0.008123
v 0.045401 -0.015357 0.016604
v 0.041602 -0.020741 0.023126
v 0.057413 -0.032572 0.033233
v 0.057320 -0.041282 0.030061
v 0.059576 -0.046665 0.022859
v 0.063318 -0.046665 0.014377
v 0.067118 -0.041282 0.007856
v 0.069523 -0.032572 0.005786
v 0.069616 -0.023861 0.008958
v 0.067360 -0.018478 0.016160
v 0.063618 -0.018478 0.024642
v 0.059818 -0.023861 0.031163
v -0.049903 0.023968 0.074887
v -0.057452 0.024078 0.069507
v -0.062118 0.029056 0.063231
v -0.062118 0.037003 0.058456
v -0.057452 0.044881 0.057006
v -0.049903 0.049683 0.059434
v -0.042354 0.049573 0.064814
v -0.037688 0.044594 0.071090
v -0.037688 0.036648 0.075865
v -0.042354 0.028770 0.077315
v -0.002107 -0.016836 0.006983
v -0.009657 -0.016727 0.001604
v -0.014322 -0.011748 -0.004672
v -0.014322 -0.003802 -0.009447
v -0.009657 0.004077 -0.010897
v -0.002107 0.008878 -0.008469
v 0.005442 0.008769 -0.003089
v 0.010108 0.003790 0.003187
v 0.010108 -0.004156 0.007962
v 0.005442 -0.012035 0.009412
v 0.002337 -0.003979 0.013584
v -0.001008 -0.012399 0.011622
v -0.004774 -0.017603 0.004938
v -0.007521 -0.017603 -0.003916
v -0.008200 -0.012399 -0.011558
v -0.006552 -0.003979 -0.015069
v -0.003206 0.004441 -0.013108
v 0.000559 0.009645 -0.006423
v 0.003306 0.009645 0.002431
v 0.003986 0.004441 0.010073
v 0.032769 -0.013872 0.004142
v 0.029423 -0.022292 0.002181
v 0.025657 -0.027496 -0.004504
v 0.022910 -0.027496 -0.013358
v 0.022231 -0.022292 -0.021000
v 0.023879 -0.013872 -0.024511
v 0.027225 -0.005452 -0.022549
v 0.030991 -0.000248 -0.015865
v 0.033738 -0.000248 -0.007011
v 0.034417 -0.005452 0.000631
v 0.024124 -0.013872 0.004216
v 0.022083 -0.022177 0.000637
v 0.022426 -0.027309 -0.007076
v 0.025022 -0.027309 -0.015976
v 0.028879 -0.022177 -0.022663
v 0.032524 -0.013872 -0.024584
v 0.034564 -0.005568 -0.021005
v 0.034222 -0.000435 -0.013293
v 0.031626 -0.000435 -0.004393
v 0.027769 -0.005568 0.002295
v 0.047107 -0.022409 0.010919
v 0.045066 -0.030714 0.007339
v 0.045409 -0.035846 -0.000373
v 0.048004 -0.035846 -0.009273
v 0.051861 -0.030714 -0.015961
v 0.055506 -0.022409 -0.017882
v 0.057547 -0.014104 -0.014302
v 0.057204 -0.008972 -0.006590
v 0.054609 -0.008972 0.002310
v 0.050752 -0.014104 0.008998
v 0.051306 -0.008781 0.002787
v 0.045340 -0.014097 0.007487
v 0.041653 -0.022587 0.007998
v 0.041653 -0.031009 0.004124
v 0.045340 -0.036147 -0.002655
v 0.051306 -0.036036 -0.009750
v 0.057273 -0.030721 -0.014450
v 0.060960 -0.022231 -0.014961
v 0.060960 -0.013809 -0.011087
v 0.057273 -0.008671 -0.004308
v 0.072830 -0.017048 0.020758
v 0.066864 -0.022363 0.025459
v 0.063176 -0.030853 0.025970
v 0.063176 -0.039276 0.022096
v 0.066864 -0.044413 0.015317
v 0.072830 -0.044303 0.008222
v 0.078796 -0.038987 0.003521
v 0.082483 -0.030497 0.003011
v 0.082483 -0.022075 0.006885
v 0.078796 -0.016938 0.013664
v -0.049903 0.022755 0.072360
v -0.057237 0.023746 0.066775
v -0.061769 0.029732 0.061338
v -0.061769 0.038428 0.058125
v -0.057237 0.046512 0.058363
v -0.049903 0.050895 0.061961
v -0.042570 0.049905 0.067545
v -0.038038 0.043918 0.072983
v -0.038038 0.035223 0.076196
v -0.042570 0.027139 0.075958
v 0.001570 -0.003975 0.000022
v -0.005763 -0.002985 -0.005562
v -0.010295 0.003002 -0.010999
v -0.010295 0.011698 -0.014213
v -0.005763 0.019781 -0.013975
v 0.001570 0.024165 -0.010376
v 0.008904 0.023175 -0.004792
v 0.013436 0.017188 0.000645
v 0.013436 0.008492 0.003858
v 0.008904 0.000409 0.003620
v 0.001586 0.010095 0.009823
v 0.000377 0.001361 0.006959
v -0.000377 -0.004037 -0.000540
v -0.000387 -0.004037 -0.009810
v 0.000351 0.001361 -0.017311
v 0.001554 0.010095 -0.020177
v 0.002764 0.018829 -0.017314
v 0.003518 0.024227 -0.009815
v 0.003528 0.024227 -0.000544
v 0.002790 0.018829 0.006957
v 0.027888 0.006461 0.009795
v 0.026679 -0.002273 0.006931
v 0.025925 -0.007671 -0.000568
v 0.025915 -0.007671 -0.009838
v 0.026653 -0.002273 -0.017339
v 0.027857 0.006461 -0.020205
v 0.029066 0.015195 -0.017342
v 0.029820 0.020593 -0.009842
v 0.029830 0.020593 -0.000572
v 0.029092 0.015195 0.006929
v 0.027872 0.021296 -0.007424
v 0.022687 0.019518 0.000052
v 0.019482 0.012752 0.005520
v 0.019482 0.003584 0.006891
v 0.022687 -0.004486 0.003642
v 0.027872 -0.008374 -0.002986
v 0.033058 -0.006596 -0.010462
v 0.036263 0.000170 -0.015930
v 0.036263 0.009338 -0.017302
v 0.033058 0.017408 -0.014053
v 0.047619 0.023421 0.006777
v 0.042433 0.021642 0.014253
v 0.039228 0.014877 0.019721
v 0.039228 0.005708 0.021093
v 0.042433 -0.002361 0.017844
v 0.047619 -0.006249 0.011216
v 0.052804 -0.004471 0.003740
v 0.056009 0.002294 -0.001728
v 0.056009 0.011463 -0.003100
v 0.052804 0.019532 0.000149
v 0.047619 0.023537 0.010199
v 0.040152 0.020306 0.014643
v 0.035537 0.012598 0.016930
v 0.035537 0.003357 0.016187
v 0.040152 -0.003886 0.012697
v 0.047619 -0.006366 0.007794
v 0.055085 -0.003135 0.003350
v 0.059700 0.004574 0.001063
v 0.059700 0.013814 0.001806
v 0.055085 0.021058 0.005296
v 0.058600 0.022135 0.027632
v 0.051134 0.018904 0.032076
v 0.046519 0.011196 0.034363
v 0.046519 0.001955 0.033619
v 0.051134 -0.005289 0.030130
v 0.058600 -0.007768 0.025227
v 0.066067 -0.004537 0.020783
v 0.070682 0.003171 0.018496
v 0.070682 0.012412 0.019239
v 0.066067 0.019656 0.022729
v -0.049903 0.022044 0.069715
v -0.057162 0.024015 0.064295
v -0.061647 0.030879 0.059969
v -0.061647 0.040014 0.058391
v -0.057162 0.047931 0.060162
v -0.049903 0.051606 0.064606
v -0.042645 0.049636 0.070026
v -0.038159 0.042772 0.074351
v -0.038159 0.033637 0.075930
v -0.042645 0.025720 0.074159
v -0.002938 0.010446 0.002604
v -0.010196 0.012417 -0.002816
v -0.014682 0.019280 -0.007142
v -0.014682 0.028415 -0.008721
v -0.010196 0.036333 -0.006950
v -0.002938 0.040008 -0.002505
v 0.004321 0.038037 0.002915
v 0.008807 0.031174 0.007240
v 0.008807 0.022039 0.008819
v 0.004321 0.014121 0.007048
v -0.004753 0.025227 0.014939
v -0.003554 0.016452 0.012199
v -0.002119 0.011029 0.004818
v -0.000997 0.011029 -0.004384
v -0.000617 0.016452 -0.011893
v -0.001122 0.025227 -0.014841
v -0.002322 0.034002 -0.012101
v -0.003756 0.039425 -0.004720
v -0.004878 0.039425 0.004482
v -0.005258 0.034002 0.011991
v 0.015526 0.027226 0.017411
v 0.016725 0.018451 0.014671
v 0.018160 0.013028 0.007290
v 0.019281 0.013028 -0.001912
v 0.019662 0.018451 -0.009421
v 0.019156 0.027226 -0.012369
v 0.017957 0.036001 -0.009629
v 0.016523 0.041424 -0.002248
v 0.015401 0.041424 0.006954
v 0.015020 0.036001 0.014463
v 0.017341 0.042223 0.002236
v 0.009878 0.039448 0.006984
v 0.005265 0.032005 0.010027
v 0.005265 0.022736 0.010203
v 0.009878 0.015182 0.007445
v 0.017341 0.012229 0.002806
v 0.024804 0.015004 -0.001942
v 0.029417 0.022448 -0.004985
v 0.029417 0.031716 -0.005161
v 0.024804 0.039270 -0.002403
v 0.024980 0.042454 0.014379
v 0.017517 0.039679 0.019127
v 0.012904 0.032235 0.022170
v 0.012904 0.022967 0.022346
v 0.017517 0.015413 0.019588
v 0.024980 0.012460 0.014949
v 0.032443 0.015235 0.010201
v 0.037056 0.022678 0.007158
v 0.037056 0.031947 0.006982
v 0.032443 0.039501 0.009740
v 0.024980 0.041894 0.018735
v 0.016233 0.039436 0.016894
v 0.010827 0.032403 0.014201
v 0.010827 0.023481 0.011686
v 0.016233 0.016077 0.010307
v 0.024980 0.013020 0.010593
v 0.033727 0.015477 0.012434
v 0.039134 0.022510 0.015126
v 0.039134 0.031433 0.017642
v 0.033727 0.038837 0.019021
v 0.023411 0.038521 0.030697
v 0.014663 0.036064 0.028856
v 0.009257 0.029030 0.026163
v 0.009257 0.020108 0.023647
v 0.014663 0.012704 0.022269
v 0.023411 0.009647 0.022555
v 0.032158 0.012104 0.024396
v 0.037564 0.019137 0.027088
v 0.037564 0.028060 0.029604
v 0.032158 0.035464 0.030982
v 0.046026 0.024147 0.093745
v 0.038768 0.029863 0.092985
v 0.034282 0.035562 0.087210
v 0.034282 0.039066 0.078628
v 0.038768 0.039037 0.070515
v 0.046026 0.035486 0.065971
v 0.053285 0.029769 0.066731
v 0.057770 0.024070 0.072505
v 0.057770 0.020566 0.081088
v 0.053285 0.020595 0.089201
v 0.024203 -0.005152 0.081783
v 0.016944 0.000564 0.081023
v 0.012459 0.006263 0.075249
v 0.012459 0.009767 0.066666
v 0.016944 0.009738 0.058553
v 0.024203 0.006187 0.054009
v 0.031461 0.000470 0.054769
v 0.035947 -0.005229 0.060543
v 0.035947 -0.008733 0.069126
v 0.031461 -0.008704 0.077239
v 0.024203 -0.012353 0.075600
v 0.019202 -0.006166 0.080359
v 0.016111 0.002574 0.080357
v 0.016111 0.010529 0.075596
v 0.019202 0.014659 0.067893
v 0.024203 0.013388 0.060192
v 0.029204 0.007200 0.055433
v 0.032295 -0.001540 0.055435
v 0.032295 -0.009494 0.060196
v 0.029204 -0.013624 0.067899
v 0.000500 -0.020738 0.061592
v -0.004502 -0.014551 0.066351
v -0.007592 -0.005811 0.066349
v -0.007592 0.002144 0.061588
v -0.004502 0.006274 0.053885
v 0.000500 0.005003 0.046184
v 0.005501 -0.001185 0.041425
v 0.008592 -0.009925 0.041427
v 0.008592 -0.017879 0.046188
v 0.005501 -0.022010 0.053891
v 0.000500 -0.021685 0.048049
v -0.006741 -0.021004 0.053797
v -0.011216 -0.015306 0.059581
v -0.011216 -0.006767 0.063190
v -0.006741 0.001352 0.063246
v 0.000500 0.005949 0.059727
v 0.007741 0.005268 0.053979
v 0.012216 -0.000430 0.048195
v 0.012216 -0.008969 0.044586
v 0.007741 -0.017087 0.044530
v -0.020454 -0.009943 0.020266
v -0.027695 -0.009262 0.026015
v -0.032170 -0.003564 0.031798
v -0.032170 0.004975 0.035407
v -0.027695 0.013094 0.035463
v -0.020454 0.017691 0.031945
v -0.013213 0.017010 0.026196
v -0.008738 0.011312 0.020413
v -0.008738 0.002773 0.016804
v -0.013213 -0.005346 0.016748
v -0.020454 -0.008679 0.017895
v -0.028044 -0.008738 0.023218
v -0.032735 -0.003979 0.029643
v -0.032735 0.003780 0.034718
v -0.028044 0.011574 0.036503
v -0.020454 0.016427 0.034316
v -0.012864 0.016486 0.028993
v -0.008173 0.011727 0.022567
v -0.008173 0.003968 0.017493
v -0.012864 -0.003826 0.015708
v -0.034859 0.004660 -0.002500
v -0.042449 0.004601 0.002823
v -0.047140 0.009360 0.009249
v -0.047140 0.017119 0.014323
v -0.042449 0.024913 0.016108
v -0.034859 0.029767 0.013921
v -0.027269 0.029825 0.008599
v -0.022578 0.025066 0.002173
v -0.022578 0.017307 -0.002902
v -0.027269 0.009513 -0.004686
v 0.046026 0.017177 0.087935
v 0.038214 0.021792 0.089836
v 0.033386 0.029471 0.087926
v 0.033386 0.037283 0.082934
v 0.038214 0.042243 0.076767
v 0.046026 0.042456 0.071781
v 0.053839 0.037841 0.069879
v 0.058667 0.030161 0.071790
v 0.058667 0.022350 0.076782
v 0.053839 0.017390 0.082949
v -0.001217 -0.031452 0.011840
v -0.009029 -0.026838 0.013741
v -0.013857 -0.019158 0.011831
v -0.013857 -0.011346 0.006838
v -0.009029 -0.006387 0.000671
v -0.001217 -0.006173 -0.004315
v 0.006596 -0.010788 -0.006216
v 0.011424 -0.018468 -0.004306
v 0.011424 -0.026280 0.000686
v 0.006596 -0.031239 0.006853
v 0.004255 -0.018813 -0.010204
v 0.004324 -0.027548 -0.007100
v 0.002277 -0.032947 0.000153
v -0.001104 -0.032947 0.008785
v -0.004529 -0.027548 0.015498
v -0.006688 -0.018813 0.017729
v -0.006757 -0.010078 0.014625
v -0.004711 -0.004679 0.007372
v -0.001329 -0.004679 -0.001260
v 0.002095 -0.010078 -0.007973
v -0.019337 -0.022285 -0.019446
v -0.019267 -0.031020 -0.016342
v -0.021314 -0.036418 -0.009089
v -0.024696 -0.036418 -0.000457
v -0.028120 -0.031020 0.006256
v -0.030280 -0.022285 0.008487
v -0.030349 -0.013549 0.005383
v -0.028302 -0.008151 -0.001870
v -0.024921 -0.008151 -0.010502
v -0.021496 -0.013549 -0.017215
v -0.024808 -0.007337 -0.004231
v -0.028761 -0.009536 -0.012324
v -0.031204 -0.016604 -0.017802
v -0.031204 -0.025843 -0.018573
v -0.028761 -0.033722 -0.014343
v -0.024808 -0.037233 -0.006728
v -0.020856 -0.035034 0.001365
v -0.018413 -0.027965 0.006843
v -0.018413 -0.018726 0.007614
v -0.020856 -0.010847 0.003384
v -0.046897 -0.008258 0.006808
v -0.050849 -0.010457 -0.001284
v -0.053292 -0.017526 -0.006762
v -0.053292 -0.026764 -0.007534
v -0.050849 -0.034644 -0.003304
v -0.046897 -0.038154 0.004312
v -0.042944 -0.035955 0.012404
v -0.040501 -0.028887 0.017882
v -0.040501 -0.019648 0.018653
v -0.042944 -0.011769 0.014423
v -0.051873 -0.023206 -0.008591
v -0.052344 -0.031893 -0.005388
v -0.050734 -0.037262 0.001996
v -0.047659 -0.037262 0.010741
v -0.044292 -0.031893 0.017508
v -0.041921 -0.023206 0.019711
v -0.041450 -0.014519 0.016508
v -0.043059 -0.009150 0.009124
v -0.046135 -0.009150 0.000378
v -0.049501 -0.014519 -0.006388
v -0.070514 -0.019779 -0.002036
v -0.070985 -0.028466 0.001167
v -0.069375 -0.033835 0.008551
v -0.066300 -0.033835 0.017296
v -0.062934 -0.028466 0.024063
v -0.060562 -0.019779 0.026266
v -0.060091 -0.011092 0.023063
v -0.061701 -0.005723 0.015679
v -0.064776 -0.005723 0.006933
v -0.068142 -0.011092 0.000167
v 0.046026 0.015854 0.085340
v 0.038205 0.020008 0.088081
v 0.033371 0.027908 0.087681
v 0.033371 0.036538 0.084293
v 0.038205 0.042599 0.079211
v 0.046026 0.043779 0.074376
v 0.053848 0.039625 0.071635
v 0.058681 0.031724 0.072034
v 0.058681 0.023095 0.075423
v 0.053848 0.017033 0.080505
v -0.000260 -0.016657 0.002540
v -0.008081 -0.012503 0.005281
v -0.012915 -0.004603 0.004881
v -0.012915 0.004026 0.001493
v -0.008081 0.010088 -0.003589
v -0.000260 0.011267 -0.008424
v 0.007561 0.007113 -0.011166
v 0.012395 -0.000787 -0.010766
v 0.012395 -0.009416 -0.007377
v 0.007561 -0.015478 -0.002295
v 0.003559 -0.002695 -0.017448
v 0.004063 -0.011419 -0.014353
v 0.002916 -0.016811 -0.006899
v 0.000556 -0.016811 0.002066
v -0.002116 -0.011419 0.009118
v -0.004079 -0.002695 0.011563
v -0.004583 0.006029 0.008468
v -0.003436 0.011421 0.001015
v -0.001076 0.011421 -0.007950
v 0.001596 0.006029 -0.015002
v -0.027573 -0.007402 -0.025645
v -0.027069 -0.016126 -0.022550
v -0.028216 -0.021518 -0.015096
v -0.030576 -0.021518 -0.006131
v -0.033248 -0.016126 0.000921
v -0.035211 -0.007402 0.003366
v -0.035715 0.001322 0.000271
v -0.034568 0.006714 -0.007182
v -0.032208 0.006714 -0.016147
v -0.029536 0.001322 -0.023199
v -0.037893 -0.007402 -0.024657
v -0.037051 -0.016208 -0.021883
v -0.034048 -0.021650 -0.015006
v -0.030030 -0.021650 -0.006651
v -0.026532 -0.016208 -0.000011
v -0.024891 -0.007402 0.002379
v -0.025733 0.001404 -0.000395
v -0.028736 0.006846 -0.007273
v -0.032754 0.006846 -0.015628
v -0.036252 0.001404 -0.022268
v -0.062235 -0.006041 -0.012951
v -0.061394 -0.014847 -0.010177
v -0.058390 -0.020289 -0.003299
v -0.054372 -0.020289 0.005056
v -0.050875 -0.014847 0.011696
v -0.049233 -0.006041 0.014085
v -0.050075 0.002764 0.011311
v -0.053079 0.008207 0.004434
v -0.057096 0.008207 -0.003921
v -0.060594 0.002764 -0.010561
v -0.055734 0.008786 0.002836
v -0.061864 0.006913 -0.003862
v -0.065653 0.000091 -0.008867
v -0.065653 -0.009073 -0.010269
v -0.061864 -0.017079 -0.007532
v -0.055734 -0.020869 -0.001701
v -0.049604 -0.018995 0.004997
v -0.045816 -0.012174 0.010002
v -0.045816 -0.003010 0.011404
v -0.049604 0.004996 0.008667
v -0.078149 0.005508 0.024269
v -0.084279 0.003634 0.017571
v -0.088068 -0.003187 0.012566
v -0.088068 -0.012351 0.011164
v -0.084279 -0.020357 0.013902
v -0.078149 -0.024147 0.019733
v -0.072019 -0.022274 0.026430
v -0.068231 -0.015452 0.031436
v -0.068231 -0.006288 0.032837
v -0.072019 0.001718 0.030100
v 0.046026 0.015145 0.082981
v 0.038282 0.018825 0.086507
v 0.033496 0.026703 0.087493
v 0.033496 0.035770 0.085563
v 0.038282 0.042563 0.081454
v 0.046026 0.044488 0.076735
v 0.053770 0.040808 0.073209
v 0.058557 0.032930 0.072223
v 0.058557 0.023863 0.074153
v 0.053770 0.017069 0.078262
v -0.000365 -0.002602 -0.000389
v -0.008109 0.001077 0.003137
v -0.012896 0.008955 0.004124
v -0.012896 0.018022 0.002193
v -0.008109 0.024816 -0.001916
v -0.000365 0.026740 -0.006635
v 0.007379 0.023061 -0.010161
v 0.012165 0.015183 -0.011147
v 0.012165 0.006115 -0.009217
v 0.007379 -0.000678 -0.005108
v -0.003131 0.012069 -0.018255
v -0.003366 0.003286 -0.015296
v -0.002454 -0.002142 -0.007836
v -0.000745 -0.002142 0.001276
v 0.001109 0.003286 0.008559
v 0.002400 0.012069 0.011231
v 0.002635 0.020851 0.008272
v 0.001724 0.026279 0.000812
v 0.000014 0.026279 -0.008299
v -0.001840 0.020851 -0.015582
v -0.036063 0.015030 -0.012077
v -0.036298 0.006248 -0.009118
v -0.035386 0.000820 -0.001658
v -0.033677 0.000820 0.007453
v -0.031823 0.006248 0.014736
v -0.030532 0.015030 0.017409
v -0.030297 0.023813 0.014450
v -0.031208 0.029241 0.006990
v -0.032917 0.029241 -0.002122
v -0.034772 0.023813 -0.009405
v -0.033297 0.030001 0.003607
v -0.042077 0.027091 0.004230
v -0.047504 0.019575 0.004255
v -0.047504 0.010322 0.003674
v -0.042077 0.002868 0.002707
v -0.033297 0.000060 0.001725
v -0.024517 0.002969 0.001102
v -0.019091 0.010486 0.001076
v -0.019091 0.019738 0.001658
v -0.024517 0.027192 0.002625
v -0.031119 0.028509 0.027340
v -0.039899 0.025599 0.027963
v -0.045325 0.018083 0.027989
v -0.045325 0.008831 0.027407
v -0.039899 0.001377 0.026441
v -0.031119 -0.001432 0.025458
v -0.022339 0.001477 0.024835
v -0.016913 0.008994 0.024810
v -0.016913 0.018246 0.025391
v -0.022339 0.025700 0.026358
v -0.031119 0.028454 0.027990
v -0.039455 0.025300 0.030543
v -0.044606 0.017654 0.031513
v -0.044606 0.008436 0.030529
v -0.039455 0.001167 0.027968
v -0.031119 -0.001377 0.024808
v -0.022783 0.001776 0.022256
v -0.017632 0.009422 0.021286
v -0.017632 0.018640 0.022269
v -0.022783 0.025910 0.024830
v -0.021835 0.025596 0.054778
v -0.030171 0.022443 0.057330
v -0.035323 0.014797 0.058300
v -0.035323 0.005579 0.057317
v -0.030171 -0.001691 0.054756
v -0.021835 -0.004235 0.051596
v -0.013500 -0.001081 0.049043
v -0.008348 0.006565 0.048073
v -0.008348 0.015783 0.049056
v -0.013500 0.023052 0.051617
v 0.046026 0.014831 0.079203
v 0.038567 0.017488 0.084024
v 0.033957 0.024854 0.087254
v 0.033957 0.034115 0.087658
v 0.038567 0.041735 0.085083
v 0.046026 0.044802 0.080512
v 0.053486 0.042145 0.075691
v 0.058096 0.034779 0.072462
v 0.058096 0.025517 0.072058
v 0.053486 0.017898 0.074633
v 0.000715 0.017968 0.007364
v -0.006745 0.020625 0.012185
v -0.011355 0.027991 0.015415
v -0.011355 0.037253 0.015819
v -0.006745 0.044872 0.013244
v 0.000715 0.047939 0.008673
v 0.008174 0.045282 0.003852
v 0.012784 0.037916 0.000623
v 0.012784 0.028655 0.000218
v 0.008174 0.021035 0.002793
v -0.003241 0.032954 -0.006450
v -0.001676 0.024177 -0.003908
v 0.000802 0.018753 0.003190
v 0.003247 0.018753 0.012132
v 0.004725 0.024177 0.019503
v 0.004670 0.032954 0.022488
v 0.003105 0.041730 0.019946
v 0.000627 0.047155 0.012848
v -0.001818 0.047155 0.003906
v -0.003295 0.041730 -0.003465
v -0.023029 0.030992 -0.001040
v -0.021464 0.022215 0.001502
v -0.018986 0.016791 0.008600
v -0.016541 0.016791 0.017542
v -0.015064 0.022215 0.024913
v -0.015118 0.030992 0.027898
v -0.016683 0.039769 0.025356
v -0.019161 0.045193 0.018258
v -0.021606 0.045193 0.009316
v -0.023083 0.039769 0.001945
v -0.019074 0.045372 0.017697
v -0.027766 0.043046 0.015465
v -0.033138 0.036116 0.012455
v -0.033138 0.027229 0.009818
v -0.027766 0.019779 0.008559
v -0.019074 0.016612 0.009161
v -0.010381 0.018938 0.011393
v -0.005009 0.025868 0.014402
v -0.005009 0.034755 0.017040
v -0.010381 0.042205 0.018299
v -0.022716 0.039277 0.038233
v -0.031408 0.036951 0.036001
v -0.036780 0.030021 0.032991
v -0.036780 0.021133 0.030353
v -0.031408 0.013684 0.029095
v -0.022716 0.010517 0.029696
v -0.014024 0.012842 0.031928
v -0.008652 0.019773 0.034938
v -0.008652 0.028660 0.037576
v -0.014024 0.036110 0.038834
v -0.022716 0.039658 0.036629
v -0.029242 0.035786 0.041955
v -0.033275 0.027754 0.044228
v -0.033275 0.018631 0.042581
v -0.029242 0.011901 0.037643
v -0.022716 0.010135 0.031300
v -0.016190 0.014008 0.025974
v -0.012157 0.022039 0.023701
v -0.012157 0.031162 0.025348
v -0.016190 0.037892 0.030286
v -0.009674 0.037108 0.050757
v -0.016199 0.033235 0.056082
v -0.020233 0.025204 0.058356
v -0.020233 0.016081 0.056709
v -0.016199 0.009351 0.051770
v -0.009674 0.007585 0.045427
v -0.003148 0.011457 0.040101
v 0.000885 0.019489 0.037828
v 0.000885 0.028612 0.039475
v -0.003148 0.035342 0.044413
f 1 2 13
f 2 14 13
f 2 3 14
f 3 15 14
f 3 4 15
f 4 16 15
f 4 5 16
f 5 17 16
f 5 6 17
f 6 18 17
f 6 7 18
f 7 19 18
f 7 8 19
f 8 20 19
f 8 9 20
f 9 21 20
f 9 10 21
f 10 22 21
f 10 11 22
f 11 23 22
f 11 12 23
f 12 24 23
f 13 14 25
f 14 26 25
f 14 15 26
f 15 27 26
f 15 16 27
f 16 28 27
f 16 17 28
f 17 29 28
f 17 18 29
f 18 30 29
f 18 19 30
f 19 31 30
f 19 20 31
f 20 32 31
f 20 21 32
f 21 33 32
f 21 22 33
f 22 34 33
f 22 23 34
f 23 35 34
f 23 24 35
f 24 36 35
f 25 26 37
f 26 38 37
f 26 27 38
f 27 39 38
f 27 28 39
f 28 40 39
f 28 29 40
f 29 41 40
f 29 30 41
f 30 42 41
f 30 31 42
f 31 43 42
f 31 32 43
f 32 44 43
f 32 33 44
f 33 45 44
f 33 34 45
f 34 46 45
f 34 35 46
f 35 47 46
f 35 36 47
f 36 48 47
f 37 38 49
f 38 50 49
f 38 39 50
f 39 51 50
f 39 40 51
f 40 52 51
f 40 41 52
f 41 53 52
f 41 42 53
f 42 54 53
f 42 43 54
f 43 55 54
f 43 44 55
f 44 56 55
f 44 45 56
f 45 57 56
f 45 46 57
f 46 58 57
f 46 47 58
f 47 59 58
f 47 48 59
f 48 60 59
f 49 50 61
f 50 62 61
f 50 51 62
f 51 63 62
f 51 52 63
f 52 64 63
f 52 53 64
f 53 65 64
f 53 54 65
f 54 66 65
f 54 55 66
f 55 67 66
f 55 56 67
f 56 68 67
f 56 57 68
f 57 69 68
f 57 58 69
f 58 70 69
f 58 59 70
f 59 71 70
f 59 60 71
f 60 72 71
f 61 62 73
f 62 74 73
f 62 63 74
f 63 75 74
f 63 64 75
f 64 76 75
f 64 65 76
f 65 77 76
f 65 66 77
f 66 78 77
f 66 67 78
f 67 79 78
f 67 68 79
f 68 80 79
f 68 69 80
f 69 81 80
f 69 70 81
f 70 82 81
f 70 71 82
f 71 83 82
f 71 72 83
f 72 84 83
f 73 74 85
f 74 86 85
f 74 75 86
f 75 87 86
f 75 76 87
f 76 88 87
f 76 77 88
f 77 89 88
f 77 78 89
f 78 90 89
f 78 79 90
f 79 91 90
f 79 80 91
f 80 92 91
f 80 81 92
f 81 93 92
f 81 82 93
f 82 94 93
f 82 83 94
f 83 95 94
f 83 84 95
f 84 96 95
f 85 86 97
f 86 98 97
f 86 87 98
f 87 99 98
f 87 88 99
f 88 100 99
f 88 89 100
f 89 101 100
f 89 90 101
f 90 102 101
f 90 91 102
f 91 103 102
f 91 92 103
f 92 104 103
f 92 93 104
f 93 105 104
f 93 94 105
f 94 106 105
f 94 95 106
f 95 107 106
f 95 96 107
f 96 108 107
f 97 98 109
f 98 110 109
f 98 99 110
f 99 111 110
f 99 100 111
f 100 112 111
f 100 101 112
f 101 113 112
f 101 102 113
f 102 114 113
f 102 103 114
f 103 115 114
f 103 104 115
f 104 116 115
f 104 105 116
f 105 117 116
f 105 106 117
f 106 118 117
f 106 107 118
f 107 119 118
f 107 108 119
f 108 120 119
f 109 110 121
f 110 122 121
f 110 111 122
f 111 123 122
f 111 112 123
f 112 124 123
f 112 113 124
f 113 125 124
f 113 114 125
f 114 126 125
f 114 115 126
f 115 127 126
f 115 116 127
f 116 128 127
f 116 117 128
f 117 129 128
f 117 118 129
f 118 130 129
f 118 119 130
f 119 131 130
f 119 120 131
f 120 132 131
f 121 122 133
f 122 134 133
f 122 123 134
f 123 135 134
f 123 124 135
f 124 136 135
f 124 125 136
f 125 137 136
f 125 126 137
f 126 138 137
f 126 127 138
f 127 139 138
f 127 128 139
f 128 140 139
f 128 129 140
f 129 141 140
f 129 130 141
f 130 142 141
f 130 131 142
f 131 143 142
f 131 132 143
f 132 144 143
f 145 146 155
f 146 156 155
f 146 147 156
f 147 157 156
f 147 148 157
f 148 158 157
f 148 149 158
f 149 159 158
f 149 150 159
f 150 160 159
f 150 151 160
f 151 161 160
f 151 152 161
f 152 162 161
f 152 153 162
f 153 163 162
f 153 154 163
f 154 164 163
f 154 145 164
f 145 155 164
f 165 166 175
f 166 176 175
f 166 167 176
f 167 177 176
f 167 168 177
f 168 178 177
f 168 169 178
f 169 179 178
f 169 170 179
f 170 180 179
f 170 171 180
f 171 181 180
f 171 172 181
f 172 182 181
f 172 173 182
f 173 183 182
f 173 174 183
f 174 184 183
f 174 165 184
f 165 175 184
f 185 186 195
f 186 196 195
f 186 187 196
f 187 197 196
f 187 188 197
f 188 198 197
f 188 189 198
f 189 199 198
f 189 190 199
f 190 200 199
f 190 191 200
f 191 201 200
f 191 192 201
f 192 202 201
f 192 193 202
f 193 203 202
f 193 194 203
f 194 204 203
f 194 185 204
f 185 195 204
f 205 206 215
f 206 216 215
f 206 207 216
f 207 217 216
f 207 208 217
f 208 218 217
f 208 209 218
f 209 219 218
f 209 210 219
f 210 220 219
f 210 211 220
f 211 221 220
f 211 212 221
f 212 222 221
f 212 213 222
f 213 223 222
f 213 214 223
f 214 224 223
f 214 205 224
f 205 215 224
f 225 226 235
f 226 236 235
f 226 227 236
f 227 237 236
f 227 228 237
f 228 238 237
f 228 229 238
f 229 239 238
f 229 230 239
f 230 240 239
f 230 231 240
f 231 241 240
f 231 232 241
f 232 242 241
f 232 233 242
f 233 243 242
f 233 234 243
f 234 244 243
f 234 225 244
f 225 235 244
f 245 246 255
f 246 256 255
f 246 247 256
f 247 257 256
f 247 248 257
f 248 258 257
f 248 249 258
f 249 259 258
f 249 250 259
f 250 260 259
f 250 251 260
f 251 261 260
f 251 252 261
f 252 262 261
f 252 253 262
f 253 263 262
f 253 254 263
f 254 264 263
f 254 245 264
f 245 255 264
f 265 266 275
f 266 276 275
f 266 267 276
f 267 277 276
f 267 268 277
f 268 278 277
f 268 269 278
f 269 279 278
f 269 270 279
f 270 280 279
f 270 271 280
f 271 281 280
f 271 272 281
f 272 282 281
f 272 273 282
f 273 283 282
f 273 274 283
f 274 284 283
f 274 265 284
f 265 275 284
f 285 286 295
f 286 296 295
f 286 287 296
f 287 297 296
f 287 288 297
f 288 298 297
f 288 289 298
f 289 299 298
f 289 290 299
f 290 300 299
f 290 291 300
f 291 301 300
f 291 292 301
f 292 302 301
f 292 293 302
f 293 303 302
f 293 294 303
f 294 304 303
f 294 285 304
f 285 295 304
f 305 306 315
f 306 316 315
f 306 307 316
f 307 317 316
f 307 308 317
f 308 318 317
f 308 309 318
f 309 319 318
f 309 310 319
f 310 320 319
f 310 311 320
f 311 321 320
f 311 312 321
f 312 322 321
f 312 313 322
f 313 323 322
f 313 314 323
f 314 324 323
f 314 305 324
f 305 315 324
f 325 326 335
f 326 336 335
f 326 327 336
f 327 337 336
f 327 328 337
f 328 338 337
f 328 329 338
f 329 339 338
f 329 330 339
f 330 340 339
f 330 331 340
f 331 341 340
f 331 332 341
f 332 342 341
f 332 333 342
f 333 343 342
f 333 334 343
f 334 344 343
f 334 325 344
f 325 335 344
f 345 346 355
f 346 356 355
f 346 347 356
f 347 357 356
f 347 348 357
f 348 358 357
f 348 349 358
f 349 359 358
f 349 350 359
f 350 360 359
f 350 351 360
f 351 361 360
f 351 352 361
f 352 362 361
f 352 353 362
f 353 363 362
f 353 354 363
f 354 364 363
f 354 345 364
f 345 355 364
f 365 366 375
f 366 376 375
f 366 367 376
f 367 377 376
f 367 368 377
f 368 378 377
f 368 369 378
f 369 379 378
f 369 370 379
f 370 380 379
f 370 371 380
f 371 381 380
f 371 372 381
f 372 382 381
f 372 373 382
f 373 383 382
f 373 374 383
f 374 384 383
f 374 365 384
f 365 375 384
f 385 386 395
f 386 396 395
f 386 387 396
f 387 397 396
f 387 388 397
f 388 398 397
f 388 389 398
f 389 399 398
f 389 390 399
f 390 400 399
f 390 391 400
f 391 401 400
f 391 392 401
f 392 402 401
f 392 393 402
f 393 403 402
f 393 394 403
f 394 404 403
f 394 385 404
f 385 395 404
f 405 406 415
f 406 416 415
f 406 407 416
f 407 417 416
f 407 408 417
f 408 418 417
f 408 409 418
f 409 419 418
f 409 410 419
f 410 420 419
f 410 411 420
f 411 421 420
f 411 412 421
f 412 422 421
f 412 413 422
f 413 423 422
f 413 414 423
f 414 424 423
f 414 405 424
f 405 415 424
f 425 426 435
f 426 436 435
f 426 427 436
f 427 437 436
f 427 428 437
f 428 438 437
f 428 429 438
f 429 439 438
f 429 430 439
f 430 440 439
f 430 431 440
f 431 441 440
f 431 432 441
f 432 442 441
f 432 433 442
f 433 443 442
f 433 434 443
f 434 444 443
f 434 425 444
f 425 435 444
f 445 446 455
f 446 456 455
f 446 447 456
f 447 457 456
f 447 448 457
f 448 458 457
f 448 449 458
f 449 459 458
f 449 450 459
f 450 460 459
f 450 451 460
f 451 461 460
f 451 452 461
f 452 462 461
f 452 453 462
f 453 463 462
f 453 454 463
f 454 464 463
f 454 445 464
f 445 455 464
f 465 466 475
f 466 476 475
f 466 467 476
f 467 477 476
f 467 468 477
f 468 478 477
f 468 469 478
f 469 479 478
f 469 470 479
f 470 480 479
f 470 471 480
f 471 481 480
f 471 472 481
f 472 482 481
f 472 473 482
f 473 483 482
f 473 474 483
f 474 484 483
f 474 465 484
f 465 475 484
f 485 486 495
f 486 496 495
f 486 487 496
f 487 497 496
f 487 488 497
f 488 498 497
f 488 489 498
f 489 499 498
f 489 490 499
f 490 500 499
f 490 491 500
f 491 501 500
f 491 492 501
f 492 502 501
f 492 493 502
f 493 503 502
f 493 494 503
f 494 504 503
f 494 485 504
f 485 495 504
f 505 506 515
f 506 516 515
f 506 507 516
f 507 517 516
f 507 508 517
f 508 518 517
f 508 509 518
f 509 519 518
f 509 510 519
f 510 520 519
f 510 511 520
f 511 521 520
f 511 512 521
f 512 522 521
f 512 513 522
f 513 523 522
f 513 514 523
f 514 524 523
f 514 505 524
f 505 515 524
f 525 526 535
f 526 536 535
f 526 527 536
f 527 537 536
f 527 528 537
f 528 538 537
f 528 529 538
f 529 539 538
f 529 530 539
f 530 540 539
f 530 531 540
f 531 541 540
f 531 532 541
f 532 542 541
f 532 533 542
f 533 543 542
f 533 534 543
f 534 544 543
f 534 525 544
f 525 535 544
f 545 546 555
f 546 556 555
f 546 547 556
f 547 557 556
f 547 548 557
f 548 558 557
f 548 549 558
f 549 559 558
f 549 550 559
f 550 560 559
f 550 551 560
f 551 561 560
f 551 552 561
f 552 562 561
f 552 553 562
f 553 563 562
f 553 554 563
f 554 564 563
f 554 545 564
f 545 555 564
f 565 566 575
f 566 576 575
f 566 567 576
f 567 577 576
f 567 568 577
f 568 578 577
f 568 569 578
f 569 579 578
f 569 570 579
f 570 580 579
f 570 571 580
f 571 581 580
f 571 572 581
f 572 582 581
f 572 573 582
f 573 583 582
f 573 574 583
f 574 584 583
f 574 565 584
f 565 575 584
f 585 586 595
f 586 596 595
f 586 587 596
f 587 597 596
f 587 588 597
f 588 598 597
f 588 589 598
f 589 599 598
f 589 590 599
f 590 600 599
f 590 591 600
f 591 601 600
f 591 592 601
f 592 602 601
f 592 593 602
f 593 603 602
f 593 594 603
f 594 604 603
f 594 585 604
f 585 595 604
f 605 606 615
f 606 616 615
f 606 607 616
f 607 617 616
f 607 608 617
f 608 618 617
f 608 609 618
f 609 619 618
f 609 610 619
f 610 620 619
f 610 611 620
f 611 621 620
f 611 612 621
f 612 622 621
f 612 613 622
f 613 623 622
f 613 614 623
f 614 624 623
f 614 605 624
f 605 615 624
f 625 626 635
f 626 636 635
f 626 627 636
f 627 637 636
f 627 628 637
f 628 638 637
f 628 629 638
f 629 639 638
f 629 630 639
f 630 640 639
f 630 631 640
f 631 641 640
f 631 632 641
f 632 642 641
f 632 633 642
f 633 643 642
f 633 634 643
f 634 644 643
f 634 625 644
f 625 635 644
f 645 646 655
f 646 656 655
f 646 647 656
f 647 657 656
f 647 648 657
f 648 658 657
f 648 649 658
f 649 659 658
f 649 650 659
f 650 660 659
f 650 651 660
f 651 661 660
f 651 652 661
f 652 662 661
f 652 653 662
f 653 663 662
f 653 654 663
f 654 664 663
f 654 645 664
f 645 655 664
f 665 666 675
f 666 676 675
f 666 667 676
f 667 677 676
f 667 668 677
f 668 678 677
f 668 669 678
f 669 679 678
f 669 670 679
f 670 680 679
f 670 671 680
f 671 681 680
f 671 672 681
f 672 682 681
f 672 673 682
f 673 683 682
f 673 674 683
f 674 684 683
f 674 665 684
f 665 675 684
f 685 686 695
f 686 696 695
f 686 687 696
f 687 697 696
f 687 688 697
f 688 698 697
f 688 689 698
f 689 699 698
f 689 690 699
f 690 700 699
f 690 691 700
f 691 701 700
f 691 692 701
f 692 702 701
f 692 693 702
f 693 703 702
f 693 694 703
f 694 704 703
f 694 685 704
f 685 695 704
f 705 706 715
f 706 716 715
f 706 707 716
f 707 717 716
f 707 708 717
f 708 718 717
f 708 709 718
f 709 719 718
f 709 710 719
f 710 720 719
f 710 711 720
f 711 721 720
f 711 712 721
f 712 722 721
f 712 713 722
f 713 723 722
f 713 714 723
f 714 724 723
f 714 705 724
f 705 715 724
f 725 726 735
f 726 736 735
f 726 727 736
f 727 737 736
f 727 728 737
f 728 738 737
f 728 729 738
f 729 739 738
f 729 730 739
f 730 740 739
f 730 731 740
f 731 741 740
f 731 732 741
f 732 742 741
f 732 733 742
f 733 743 742
f 733 734 743
f 734 744 743
f 734 725 744
f 725 735 744
f 745 746 755
f 746 756 755
f 746 747 756
f 747 757 756
f 747 748 757
f 748 758 757
f 748 749 758
f 749 759 758
f 749 750 759
f 750 760 759
f 750 751 760
f 751 761 760
f 751 752 761
f 752 762 761
f 752 753 762
f 753 763 762
f 753 754 763
f 754 764 763
f 754 745 764
f 745 755 764
f 765 766 775
f 766 776 775
f 766 767 776
f 767 777 776
f 767 768 777
f 768 778 777
f 768 769 778
f 769 779 778
f 769 770 779
f 770 780 779
f 770 771 780
f 771 781 780
f 771 772 781
f 772 782 781
f 772 773 782
f 773 783 782
f 773 774 783
f 774 784 783
f 774 765 784
f 765 775 784
f 785 786 795
f 786 796 795
f 786 787 796
f 787 797 796
f 787 788 797
f 788 798 797
f 788 789 798
f 789 799 798
f 789 790 799
f 790 800 799
f 790 791 800
f 791 801 800
f 791 792 801
f 792 802 801
f 792 793 802
f 793 803 802
f 793 794 803
f 794 804 803
f 794 785 804
f 785 795 804
f 805 806 815
f 806 816 815
f 806 807 816
f 807 817 816
f 807 808 817
f 808 818 817
f 808 809 818
f 809 819 818
f 809 810 819
f 810 820 819
f 810 811 820
f 811 821 820
f 811 812 821
f 812 822 821
f 812 813 822
f 813 823 822
f 813 814 823
f 814 824 823
f 814 805 824
f 805 815 824
f 825 826 835
f 826 836 835
f 826 827 836
f 827 837 836
f 827 828 837
f 828 838 837
f 828 829 838
f 829 839 838
f 829 830 839
f 830 840 839
f 830 831 840
f 831 841 840
f 831 832 841
f 832 842 841
f 832 833 842
f 833 843 842
f 833 834 843
f 834 844 843
f 834 825 844
f 825 835 844
f 845 846 855
f 846 856 855
f 846 847 856
f 847 857 856
f 847 848 857
f 848 858 857
f 848 849 858
f 849 859 858
f 849 850 859
f 850 860 859
f 850 851 860
f 851 861 860
f 851 852 861
f 852 862 861
f 852 853 862
f 853 863 862
f 853 854 863
f 854 864 863
f 854 845 864
f 845 855 864
f 865 866 875
f 866 876 875
f 866 867 876
f 867 877 876
f 867 868 877
f 868 878 877
f 868 869 878
f 869 879 878
f 869 870 879
f 870 880 879
f 870 871 880
f 871 881 880
f 871 872 881
f 872 882 881
f 872 873 882
f 873 883 882
f 873 874 883
f 874 884 883
f 874 865 884
f 865 875 884
f 885 886 895
f 886 896 895
f 886 887 896
f 887 897 896
f 887 888 897
f 888 898 897
f 888 889 898
f 889 899 898
f 889 890 899
f 890 900 899
f 890 891 900
f 891 901 900
f 891 892 901
f 892 902 901
f 892 893 902
f 893 903 902
f 893 894 903
f 894 904 903
f 894 885 904
f 885 895 904
f 905 906 915
f 906 916 915
f 906 907 916
f 907 917 916
f 907 908 917
f 908 918 917
f 908 909 918
f 909 919 918
f 909 910 919
f 910 920 919
f 910 911 920
f 911 921 920
f 911 912 921
f 912 922 921
f 912 913 922
f 913 923 922
f 913 914 923
f 914 924 923
f 914 905 924
f 905 915 924
f 925 926 935
f 926 936 935
f 926 927 936
f 927 937 936
f 927 928 937
f 928 938 937
f 928 929 938
f 929 939 938
f 929 930 939
f 930 940 939
f 930 931 940
f 931 941 940
f 931 932 941
f 932 942 941
f 932 933 942
f 933 943 942
f 933 934 943
f 934 944 943
f 934 925 944
f 925 935 944
f 945 946 955
f 946 956 955
f 946 947 956
f 947 957 956
f 947 948 957
f 948 958 957
f 948 949 958
f 949 959 958
f 949 950 959
f 950 960 959
f 950 951 960
f 951 961 960
f 951 952 961
f 952 962 961
f 952 953 962
f 953 963 962
f 953 954 963
f 954 964 963
f 954 945 964
f 945 955 964
f 965 966 975
f 966 976 975
f 966 967 976
f 967 977 976
f 967 968 977
f 968 978 977
f 968 969 978
f 969 979 978
f 969 970 979
f 970 980 979
f 970 971 980
f 971 981 980
f 971 972 981
f 972 982 981
f 972 973 982
f 973 983 982
f 973 974 983
f 974 984 983
f 974 965 984
f 965 975 984
f 985 986 995
f 986 996 995
f 986 987 996
f 987 997 996
f 987 988 997
f 988 998 997
f 988 989 998
f 989 999 998
f 989 990 999
f 990 1000 999
f 990 991 1000
f 991 1001 1000
f 991 992 1001
f 992 1002 1001
f 992 993 1002
f 993 1003 1002
f 993 994 1003
f 994 1004 1003
f 994 985 1004
f 985 995 1004
f 1005 1006 1015
f 1006 1016 1015
f 1006 1007 1016
f 1007 1017 1016
f 1007 1008 1017
f 1008 1018 1017
f 1008 1009 1018
f 1009 1019 1018
f 1009 1010 1019
f 1010 1020 1019
f 1010 1011 1020
f 1011 1021 1020
f 1011 1012 1021
f 1012 1022 1021
f 1012 1013 1022
f 1013 1023 1022
f 1013 1014 1023
f 1014 1024 1023
f 1014 1005 1024
f 1005 1015 1024
f 1025 1026 1035
f 1026 1036 1035
f 1026 1027 1036
f 1027 1037 1036
f 1027 1028 1037
f 1028 1038 1037
f 1028 1029 1038
f 1029 1039 1038
f 1029 1030 1039
f 1030 1040 1039
f 1030 1031 1040
f 1031 1041 1040
f 1031 1032 1041
f 1032 1042 1041
f 1032 1033 1042
f 1033 1043 1042
f 1033 1034 1043
f 1034 1044 1043
f 1034 1025 1044
f 1025 1035 1044
f 1045 1046 1055
f 1046 1056 1055
f 1046 1047 1056
f 1047 1057 1056
f 1047 1048 1057
f 1048 1058 1057
f 1048 1049 1058
f 1049 1059 1058
f 1049 1050 1059
f 1050 1060 1059
f 1050 1051 1060
f 1051 1061 1060
f 1051 1052 1061
f 1052 1062 1061
f 1052 1053 1062
f 1053 1063 1062
f 1053 1054 1063
f 1054 1064 1063
f 1054 1045 1064
f 1045 1055 1064
f 1065 1066 1075
f 1066 1076 1075
f 1066 1067 1076
f 1067 1077 1076
f 1067 1068 1077
f 1068 1078 1077
f 1068 1069 1078
f 1069 1079 1078
f 1069 1070 1079
f 1070 1080 1079
f 1070 1071 1080
f 1071 1081 1080
f 1071 1072 1081
f 1072 1082 1081
f 1072 1073 1082
f 1073 1083 1082
f 1073 1074 1083
f 1074 1084 1083
f 1074 1065 1084
f 1065 1075 1084
f 1085 1086 1095
f 1086 1096 1095
f 1086 1087 1096
f 1087 1097 1096
f 1087 1088 1097
f 1088 1098 1097
f 1088 1089 1098
f 1089 1099 1098
f 1089 1090 1099
f 1090 1100 1099
f 1090 1091 1100
f 1091 1101 1100
f 1091 1092 1101
f 1092 1102 1101
f 1092 1093 1102
f 1093 1103 1102
f 1093 1094 1103
f 1094 1104 1103
f 1094 1085 1104
f 1085 1095 1104
f 1105 1106 1115
f 1106 1116 1115
f 1106 1107 1116
f 1107 1117 1116
f 1107 1108 1117
f 1108 1118 1117
f 1108 1109 1118
f 1109 1119 1118
f 1109 1110 1119
f 1110 1120 1119
f 1110 1111 1120
f 1111 1121 1120
f 1111 1112 1121
f 1112 1122 1121
f 1112 1113 1122
f 1113 1123 1122
f 1113 1114 1123
f 1114 1124 1123
f 1114 1105 1124
f 1105 1115 1124
f 1125 1126 1135
f 1126 1136 1135
f 1126 1127 1136
f 1127 1137 1136
f 1127 1128 1137
f 1128 1138 1137
f 1128 1129 1138
f 1129 1139 1138
f 1129 1130 1139
f 1130 1140 1139
f 1130 1131 1140
f 1131 1141 1140
f 1131 1132 1141
f 1132 1142 1141
f 1132 1133 1142
f 1133 1143 1142
f 1133 1134 1143
f 1134 1144 1143
f 1134 1125 1144
f 1125 1135 1144
f 1145 1146 1155
f 1146 1156 1155
f 1146 1147 1156
f 1147 1157 1156
f 1147 1148 1157
f 1148 1158 1157
f 1148 1149 1158
f 1149 1159 1158
f 1149 1150 1159
f 1150 1160 1159
f 1150 1151 1160
f 1151 1161 1160
f 1151 1152 1161
f 1152 1162 1161
f 1152 1153 1162
f 1153 1163 1162
f 1153 1154 1163
f 1154 1164 1163
f 1154 1145 1164
f 1145 1155 1164
f 1165 1166 1175
f 1166 1176 1175
f 1166 1167 1176
f 1167 1177 1176
f 1167 1168 1177
f 1168 1178 1177
f 1168 1169 1178
f 1169 1179 1178
f 1169 1170 1179
f 1170 1180 1179
f 1170 1171 1180
f 1171 1181 1180
f 1171 1172 1181
f 1172 1182 1181
f 1172 1173 1182
f 1173 1183 1182
f 1173 1174 1183
f 1174 1184 1183
f 1174 1165 1184
f 1165 1175 1184
