# Full-Body 3D Mesh - Frame 245
v 0.027936 -0.629110 -0.104738
v 0.061744 -0.629110 -0.109598
v 0.092813 -0.629110 -0.123787
v 0.118626 -0.629110 -0.146154
v 0.137092 -0.629110 -0.174888
v 0.146715 -0.629110 -0.207660
v 0.146715 -0.629110 -0.241815
v 0.137092 -0.629110 -0.274587
v 0.118626 -0.629110 -0.303321
v 0.092813 -0.629110 -0.325688
v 0.061744 -0.629110 -0.339877
v 0.027936 -0.629110 -0.344738
v 0.027936 -0.629110 -0.104738
v 0.056377 -0.610832 -0.109598
v 0.082514 -0.594034 -0.123787
v 0.104229 -0.580079 -0.146154
v 0.119764 -0.570095 -0.174888
v 0.127859 -0.564893 -0.207660
v 0.127859 -0.564893 -0.241815
v 0.119764 -0.570095 -0.274587
v 0.104229 -0.580079 -0.303321
v 0.082514 -0.594034 -0.325688
v 0.056377 -0.610832 -0.339877
v 0.027936 -0.629110 -0.344738
v 0.027936 -0.629110 -0.104738
v 0.041981 -0.598357 -0.109598
v 0.054887 -0.570095 -0.123787
v 0.065610 -0.546615 -0.146154
v 0.073281 -0.529818 -0.174888
v 0.077279 -0.521065 -0.207660
v 0.077279 -0.521065 -0.241815
v 0.073281 -0.529818 -0.274587
v 0.065610 -0.546615 -0.303321
v 0.054887 -0.570095 -0.325688
v 0.041981 -0.598357 -0.339877
v 0.027936 -0.629110 -0.344738
v 0.027936 -0.629110 -0.104738
v 0.023125 -0.595646 -0.109598
v 0.018703 -0.564893 -0.123787
v 0.015030 -0.539343 -0.146154
v 0.012402 -0.521065 -0.174888
v 0.011032 -0.511540 -0.207660
v 0.011032 -0.511540 -0.241815
v 0.012402 -0.521065 -0.274587
v 0.015030 -0.539343 -0.303321
v 0.018703 -0.564893 -0.325688
v 0.023125 -0.595646 -0.339877
v 0.027936 -0.629110 -0.344738
v 0.027936 -0.629110 -0.104738
v 0.005797 -0.603559 -0.109598
v -0.014549 -0.580079 -0.123787
v -0.031453 -0.560571 -0.146154
v -0.043546 -0.546615 -0.174888
v -0.049847 -0.539343 -0.207660
v -0.049847 -0.539343 -0.241815
v -0.043546 -0.546615 -0.274587
v -0.031453 -0.560571 -0.303321
v -0.014549 -0.580079 -0.325688
v 0.005797 -0.603559 -0.339877
v 0.027936 -0.629110 -0.344738
v 0.027936 -0.629110 -0.104738
v -0.004502 -0.619585 -0.109598
v -0.034313 -0.610832 -0.123787
v -0.059080 -0.603559 -0.146154
v -0.076798 -0.598357 -0.174888
v -0.086031 -0.595646 -0.207660
v -0.086031 -0.595646 -0.241815
v -0.076798 -0.598357 -0.274587
v -0.059080 -0.603559 -0.303321
v -0.034313 -0.610832 -0.325688
v -0.004502 -0.619585 -0.339877
v 0.027936 -0.629110 -0.344738
v 0.027936 -0.629110 -0.104738
v -0.004502 -0.638634 -0.109598
v -0.034313 -0.647388 -0.123787
v -0.059080 -0.654660 -0.146154
v -0.076798 -0.659862 -0.174888
v -0.086031 -0.662573 -0.207660
v -0.086031 -0.662573 -0.241815
v -0.076798 -0.659862 -0.274587
v -0.059080 -0.654660 -0.303321
v -0.034313 -0.647388 -0.325688
v -0.004502 -0.638634 -0.339877
v 0.027936 -0.629110 -0.344738
v 0.027936 -0.629110 -0.104738
v 0.005797 -0.654660 -0.109598
v -0.014549 -0.678140 -0.123787
v -0.031453 -0.697648 -0.146154
v -0.043546 -0.711604 -0.174888
v -0.049847 -0.718876 -0.207660
v -0.049847 -0.718876 -0.241815
v -0.043546 -0.711604 -0.274587
v -0.031453 -0.697648 -0.303321
v -0.014549 -0.678140 -0.325688
v 0.005797 -0.654660 -0.339877
v 0.027936 -0.629110 -0.344738
v 0.027936 -0.629110 -0.104738
v 0.023125 -0.662573 -0.109598
v 0.018703 -0.693326 -0.123787
v 0.015030 -0.718876 -0.146154
v 0.012402 -0.737154 -0.174888
v 0.011032 -0.746679 -0.207660
v 0.011032 -0.746679 -0.241815
v 0.012402 -0.737154 -0.274587
v 0.015030 -0.718876 -0.303321
v 0.018703 -0.693326 -0.325688
v 0.023125 -0.662573 -0.339877
v 0.027936 -0.629110 -0.344738
v 0.027936 -0.629110 -0.104738
v 0.041981 -0.659862 -0.109598
v 0.054887 -0.688124 -0.123787
v 0.065610 -0.711604 -0.146154
v 0.073281 -0.728401 -0.174888
v 0.077279 -0.737154 -0.207660
v 0.077279 -0.737154 -0.241815
v 0.073281 -0.728401 -0.274587
v 0.065610 -0.711604 -0.303321
v 0.054887 -0.688124 -0.325688
v 0.041981 -0.659862 -0.339877
v 0.027936 -0.629110 -0.344738
v 0.027936 -0.629110 -0.104738
v 0.056377 -0.647388 -0.109598
v 0.082514 -0.664185 -0.123787
v 0.104229 -0.678140 -0.146154
v 0.119764 -0.688124 -0.174888
v 0.127859 -0.693326 -0.207660
v 0.127859 -0.693326 -0.241815
v 0.119764 -0.688124 -0.274587
v 0.104229 -0.678140 -0.303321
v 0.082514 -0.664185 -0.325688
v 0.056377 -0.647388 -0.339877
v 0.027936 -0.629110 -0.344738
v 0.027936 -0.629110 -0.104738
v 0.061744 -0.629110 -0.109598
v 0.092813 -0.629110 -0.123787
v 0.118626 -0.629110 -0.146154
v 0.137092 -0.629110 -0.174888
v 0.146715 -0.629110 -0.207660
v 0.146715 -0.629110 -0.241815
v 0.137092 -0.629110 -0.274587
v 0.118626 -0.629110 -0.303321
v 0.092813 -0.629110 -0.325688
v 0.061744 -0.629110 -0.339877
v 0.027936 -0.629110 -0.344738
v 0.176382 -0.445482 -0.069801
v 0.176343 -0.468993 -0.062160
v 0.175913 -0.483524 -0.042164
v 0.175256 -0.483524 -0.017452
v 0.174624 -0.468993 0.002539
v 0.174257 -0.445482 0.010171
v 0.174297 -0.421972 0.002530
v 0.174727 -0.407441 -0.017466
v 0.175384 -0.407441 -0.042178
v 0.176016 -0.421972 -0.062169
v -0.160741 -0.447828 -0.078760
v -0.160780 -0.471339 -0.071119
v -0.161210 -0.485870 -0.051123
v -0.161867 -0.485870 -0.026410
v -0.162499 -0.471339 -0.006420
v -0.162866 -0.447828 0.001212
v -0.162826 -0.424318 -0.006429
v -0.162396 -0.409787 -0.026424
v -0.161739 -0.409787 -0.051137
v -0.161107 -0.424318 -0.071127
v 0.175320 -0.457067 -0.068101
v 0.152713 -0.448673 -0.062659
v 0.138741 -0.439060 -0.044673
v 0.138741 -0.431900 -0.021011
v 0.152713 -0.429928 -0.000712
v 0.175320 -0.433898 0.008471
v 0.197927 -0.442292 0.003029
v 0.211898 -0.451905 -0.014958
v 0.211898 -0.459065 -0.038619
v 0.197927 -0.461037 -0.058918
v 0.242214 -0.232957 -0.135914
v 0.219607 -0.224563 -0.130473
v 0.205635 -0.214950 -0.112486
v 0.205635 -0.207790 -0.088824
v 0.219607 -0.205818 -0.068525
v 0.242214 -0.209788 -0.059343
v 0.264821 -0.218182 -0.064784
v 0.278793 -0.227795 -0.082771
v 0.278793 -0.234955 -0.106433
v 0.264821 -0.236927 -0.126732
v 0.242214 -0.260524 -0.105825
v 0.220386 -0.254837 -0.095708
v 0.206896 -0.236368 -0.086325
v 0.206896 -0.212171 -0.081259
v 0.220386 -0.191489 -0.082446
v 0.242214 -0.182221 -0.089432
v 0.264042 -0.187908 -0.099549
v 0.277532 -0.206377 -0.108932
v 0.277532 -0.230574 -0.113998
v 0.264042 -0.251256 -0.112811
v 0.167520 -0.222284 -0.288479
v 0.145692 -0.216597 -0.278363
v 0.132202 -0.198128 -0.268979
v 0.132202 -0.173931 -0.263913
v 0.145692 -0.153249 -0.265100
v 0.167520 -0.143981 -0.272086
v 0.189348 -0.149668 -0.282203
v 0.202838 -0.168137 -0.291586
v 0.202838 -0.192334 -0.296652
v 0.189348 -0.213016 -0.295465
v -0.161803 -0.466720 -0.074032
v -0.184023 -0.469887 -0.063668
v -0.197755 -0.464628 -0.043796
v -0.197755 -0.452953 -0.022005
v -0.184023 -0.439320 -0.006619
v -0.161803 -0.428937 -0.003516
v -0.139584 -0.425770 -0.013880
v -0.125851 -0.431028 -0.033752
v -0.125851 -0.442704 -0.055543
v -0.139584 -0.456337 -0.070928
v -0.249139 -0.244177 -0.193270
v -0.271359 -0.247344 -0.182906
v -0.285091 -0.242085 -0.163034
v -0.285091 -0.230410 -0.141243
v -0.271359 -0.216777 -0.125858
v -0.249139 -0.206394 -0.122754
v -0.226920 -0.203227 -0.133118
v -0.213187 -0.208486 -0.152990
v -0.213187 -0.220161 -0.174781
v -0.226920 -0.233794 -0.190166
v -0.249139 -0.262313 -0.142879
v -0.270226 -0.259175 -0.155395
v -0.283258 -0.243093 -0.168911
v -0.283258 -0.220209 -0.178264
v -0.270226 -0.199264 -0.179881
v -0.249139 -0.188258 -0.173145
v -0.228053 -0.191396 -0.160628
v -0.215020 -0.207478 -0.147113
v -0.215020 -0.230362 -0.137760
v -0.228053 -0.251307 -0.136143
v -0.127261 -0.355809 -0.371649
v -0.148347 -0.352671 -0.384165
v -0.161380 -0.336589 -0.397681
v -0.161380 -0.313705 -0.407033
v -0.148347 -0.292760 -0.408650
v -0.127261 -0.281755 -0.401914
v -0.106174 -0.284892 -0.389398
v -0.093142 -0.300974 -0.375882
v -0.093142 -0.323858 -0.366530
v -0.106174 -0.344803 -0.364913
v 0.175320 -0.441972 -0.069661
v 0.151974 -0.445419 -0.062296
v 0.137546 -0.448890 -0.042524
v 0.137546 -0.451060 -0.017898
v 0.151974 -0.451099 0.002176
v 0.175320 -0.448993 0.010031
v 0.198665 -0.445546 0.002665
v 0.213094 -0.442074 -0.017106
v 0.213094 -0.439905 -0.041732
v 0.198665 -0.439865 -0.061806
v 0.121587 0.006309 -0.030163
v 0.098241 0.002861 -0.022798
v 0.083813 -0.000610 -0.003026
v 0.083813 -0.002780 0.021600
v 0.098241 -0.002819 0.041674
v 0.121587 -0.000713 0.049529
v 0.144932 0.002734 0.042163
v 0.159361 0.006206 0.022392
v 0.159361 0.008376 -0.002234
v 0.144932 0.008415 -0.022308
v -0.161803 -0.444962 -0.078671
v -0.185214 -0.443339 -0.070895
v -0.199682 -0.443432 -0.050850
v -0.199682 -0.445203 -0.026193
v -0.185214 -0.447978 -0.006340
v -0.161803 -0.450695 0.001123
v -0.138393 -0.452317 -0.006652
v -0.123924 -0.452225 -0.026697
v -0.123924 -0.450453 -0.051355
v -0.138393 -0.447679 -0.071207
v -0.121703 -0.014539 -0.047745
v -0.145113 -0.012917 -0.039970
v -0.159582 -0.013009 -0.019925
v -0.159582 -0.014781 0.004733
v -0.145113 -0.017555 0.024585
v -0.121703 -0.020272 0.032049
v -0.098292 -0.021895 0.024274
v -0.083823 -0.021803 0.004229
v -0.083823 -0.020031 -0.020429
v -0.098292 -0.017257 -0.040281
v 0.124462 0.002798 -0.030214
v 0.125848 -0.020633 -0.022455
v 0.125607 -0.035115 -0.002420
v 0.123830 -0.035115 0.022237
v 0.121197 -0.020633 0.042099
v 0.118712 0.002798 0.049579
v 0.117325 0.026229 0.041820
v 0.117566 0.040710 0.021786
v 0.119343 0.040710 -0.002871
v 0.121977 0.026229 -0.022734
v -0.118828 -0.017406 -0.047745
v -0.117441 -0.040837 -0.039985
v -0.117682 -0.055318 -0.019951
v -0.119459 -0.055318 0.004706
v -0.122093 -0.040837 0.024569
v -0.124577 -0.017406 0.032049
v -0.125964 0.006025 0.024290
v -0.125723 0.020507 0.004255
v -0.123946 0.020507 -0.020402
v -0.121313 0.006025 -0.040264
v 0.121587 -0.008954 -0.028552
v 0.098107 -0.005535 -0.021611
v 0.083596 0.001066 -0.002716
v 0.083596 0.008329 0.020914
v 0.098107 0.013479 0.040255
v 0.121587 0.014549 0.047918
v 0.145066 0.011131 0.040976
v 0.159577 0.004529 0.022082
v 0.159577 -0.002733 -0.001548
v 0.145066 -0.007883 -0.020889
v 0.131213 0.166944 -0.082613
v 0.107734 0.170363 -0.075672
v 0.093223 0.176964 -0.056778
v 0.093223 0.184227 -0.033147
v 0.107734 0.189377 -0.013807
v 0.131213 0.190447 -0.006144
v 0.154692 0.187029 -0.013085
v 0.169203 0.180427 -0.031980
v 0.169203 0.173165 -0.055610
v 0.154692 0.168015 -0.074950
v 0.131213 0.197867 -0.079485
v 0.107885 0.196782 -0.071373
v 0.093468 0.188788 -0.052951
v 0.093468 0.176939 -0.031254
v 0.107885 0.165762 -0.014570
v 0.131213 0.159524 -0.009272
v 0.154540 0.160609 -0.017384
v 0.168958 0.168603 -0.035806
v 0.168958 0.180452 -0.057503
v 0.154540 0.191630 -0.074187
v 0.172709 0.487313 0.078582
v 0.149382 0.486227 0.086694
v 0.134965 0.478234 0.105116
v 0.134965 0.466385 0.126813
v 0.149382 0.455207 0.143497
v 0.172709 0.448969 0.148795
v 0.196037 0.450055 0.140683
v 0.210454 0.458048 0.122261
v 0.210454 0.469897 0.100564
v 0.196037 0.481075 0.083880
v -0.121703 -0.056940 -0.013937
v -0.145194 -0.049241 -0.013741
v -0.159712 -0.029382 -0.011294
v -0.159712 -0.004948 -0.007531
v -0.145194 0.014727 -0.003889
v -0.121703 0.022128 -0.001759
v -0.098212 0.014429 -0.001955
v -0.083693 -0.005430 -0.004402
v -0.083693 -0.029863 -0.008165
v -0.098212 -0.049538 -0.011807
v -0.112814 -0.024449 -0.224884
v -0.136305 -0.016750 -0.224688
v -0.150824 0.003109 -0.222241
v -0.150824 0.027542 -0.218478
v -0.136305 0.047217 -0.214835
v -0.112814 0.054618 -0.212706
v -0.089323 0.046919 -0.212902
v -0.074805 0.027060 -0.215349
v -0.074805 0.002627 -0.219112
v -0.089323 -0.017048 -0.222754
v -0.112814 0.006108 -0.257775
v -0.135964 0.011826 -0.251252
v -0.150271 0.018789 -0.232332
v -0.150271 0.024336 -0.208241
v -0.135964 0.026350 -0.188181
v -0.112814 0.024061 -0.179815
v -0.089665 0.018343 -0.186337
v -0.075357 0.011380 -0.205258
v -0.075357 0.005833 -0.229348
v -0.089665 0.003819 -0.249408
v -0.063912 0.274631 -0.319611
v -0.087061 0.280349 -0.313088
v -0.101369 0.287312 -0.294168
v -0.101369 0.292859 -0.270077
v -0.087061 0.294873 -0.250018
v -0.063912 0.292584 -0.241651
v -0.040762 0.286866 -0.248174
v -0.026455 0.279903 -0.267094
v -0.026455 0.274356 -0.291185
v -0.040762 0.272342 -0.311244
v -0.045215 0.046152 0.079098
v -0.052303 0.040877 0.076290
v -0.056683 0.037556 0.068826
v -0.056683 0.037456 0.059556
v -0.052303 0.040616 0.052021
v -0.045215 0.045828 0.049100
v -0.038127 0.051103 0.051908
v -0.033746 0.054424 0.059373
v -0.033746 0.054524 0.068643
v -0.038127 0.051364 0.076177
v -0.021882 0.014616 0.079438
v -0.028970 0.009342 0.076630
v -0.033350 0.006020 0.069165
v -0.033350 0.005920 0.059895
v -0.028970 0.009080 0.052361
v -0.021882 0.014293 0.049440
v -0.014794 0.019567 0.052248
v -0.010413 0.022889 0.059713
v -0.010413 0.022989 0.068983
v -0.014794 0.019829 0.076517
v -0.017928 0.014454 0.078909
v -0.021245 0.006047 0.076845
v -0.024804 0.000851 0.070043
v -0.027248 0.000851 0.061100
v -0.027642 0.006047 0.053433
v -0.025835 0.014454 0.049969
v -0.022519 0.022862 0.052033
v -0.018959 0.028058 0.058835
v -0.016516 0.028058 0.067778
v -0.016122 0.022862 0.075445
v 0.009664 0.005421 0.071370
v 0.006348 -0.002987 0.069306
v 0.002788 -0.008183 0.062504
v 0.000345 -0.008183 0.053561
v -0.000049 -0.002987 0.045894
v 0.001757 0.005421 0.042430
v 0.005074 0.013828 0.044494
v 0.008633 0.019024 0.051296
v 0.011077 0.019024 0.060239
v 0.011470 0.013828 0.067906
v 0.005711 -0.009261 0.053824
v -0.000589 -0.005192 0.048375
v -0.004483 0.002930 0.046182
v -0.004483 0.012004 0.048083
v -0.000589 0.018563 0.053352
v 0.005711 0.020102 0.059976
v 0.012011 0.016033 0.065425
v 0.015904 0.007911 0.067618
v 0.015904 -0.001163 0.065717
v 0.012011 -0.007722 0.060448
v 0.028086 -0.004574 0.031455
v 0.021786 -0.000505 0.026006
v 0.017892 0.007617 0.023813
v 0.017892 0.016691 0.025714
v 0.021786 0.023249 0.030983
v 0.028086 0.024788 0.037607
v 0.034386 0.020720 0.043057
v 0.038280 0.012597 0.045250
v 0.038280 0.003524 0.043349
v 0.034386 -0.003035 0.038080
v 0.028086 -0.002665 0.026665
v 0.019436 0.000669 0.026714
v 0.014090 0.007609 0.029749
v 0.014090 0.015502 0.034611
v 0.019436 0.021335 0.039442
v 0.028086 0.022879 0.042398
v 0.036736 0.019545 0.042348
v 0.042082 0.012606 0.039313
v 0.042082 0.004712 0.034452
v 0.036736 -0.001120 0.029620
v 0.033007 0.010416 0.005426
v 0.024357 0.013751 0.005475
v 0.019011 0.020690 0.008511
v 0.019011 0.028583 0.013372
v 0.024357 0.034416 0.018203
v 0.033007 0.035960 0.021159
v 0.041657 0.032626 0.021109
v 0.047003 0.025687 0.018074
v 0.047003 0.017794 0.013213
v 0.041657 0.011961 0.008382
v -0.045215 0.036723 0.075894
v -0.053014 0.035259 0.071101
v -0.057834 0.037894 0.063633
v -0.057834 0.043621 0.056343
v -0.053014 0.050253 0.052016
v -0.045215 0.055257 0.052304
v -0.037416 0.056721 0.057098
v -0.032596 0.054086 0.064565
v -0.032596 0.048359 0.071855
v -0.037416 0.041727 0.076182
v -0.002010 -0.027702 0.025277
v -0.009809 -0.029166 0.020484
v -0.014629 -0.026531 0.013016
v -0.014629 -0.020804 0.005726
v -0.009809 -0.014171 0.001399
v -0.002010 -0.009168 0.001687
v 0.005789 -0.007704 0.006481
v 0.010609 -0.010339 0.013948
v 0.010609 -0.016066 0.021238
v 0.005789 -0.022698 0.025565
v 0.001826 -0.018435 0.027983
v -0.001779 -0.026736 0.025974
v -0.005473 -0.031866 0.019193
v -0.007844 -0.031866 0.010231
v -0.007987 -0.026736 0.002511
v -0.005847 -0.018435 -0.001019
v -0.002242 -0.010134 0.000990
v 0.001452 -0.005004 0.007771
v 0.003824 -0.005004 0.016733
v 0.003966 -0.010134 0.024454
v 0.024692 -0.026902 0.021933
v 0.021086 -0.035203 0.019924
v 0.017392 -0.040333 0.013143
v 0.015021 -0.040333 0.004181
v 0.014878 -0.035203 -0.003539
v 0.017018 -0.026902 -0.007069
v 0.020624 -0.018601 -0.005059
v 0.024317 -0.013471 0.001721
v 0.026689 -0.013471 0.010683
v 0.026832 -0.018601 0.018404
v 0.020855 -0.016315 0.018059
v 0.016458 -0.023751 0.021423
v 0.013741 -0.032390 0.019443
v 0.013741 -0.038933 0.012876
v 0.016458 -0.040881 0.004229
v 0.020855 -0.037489 -0.003194
v 0.025251 -0.030053 -0.006558
v 0.027969 -0.021414 -0.004579
v 0.027969 -0.014870 0.001988
v 0.025251 -0.012923 0.010635
v 0.041735 -0.024825 0.026537
v 0.037338 -0.032261 0.029901
v 0.034621 -0.040900 0.027922
v 0.034621 -0.047443 0.021355
v 0.037338 -0.049391 0.012708
v 0.041735 -0.045999 0.005285
v 0.046132 -0.038563 0.001920
v 0.048849 -0.029924 0.003900
v 0.048849 -0.023380 0.010467
v 0.046132 -0.021433 0.019114
v 0.041735 -0.029597 0.029738
v 0.037642 -0.037906 0.030124
v 0.035112 -0.045262 0.025081
v 0.035112 -0.048856 0.016536
v 0.037642 -0.047314 0.007751
v 0.041735 -0.041226 0.002084
v 0.045829 -0.032918 0.001697
v 0.048359 -0.025562 0.006740
v 0.048359 -0.021968 0.015286
v 0.045829 -0.023510 0.024070
v 0.056974 -0.036961 0.032835
v 0.052881 -0.045270 0.033221
v 0.050351 -0.052626 0.028178
v 0.050351 -0.056220 0.019632
v 0.052881 -0.054678 0.010848
v 0.056974 -0.048590 0.005180
v 0.061068 -0.040282 0.004794
v 0.063598 -0.032926 0.009837
v 0.063598 -0.029332 0.018383
v 0.061068 -0.030874 0.027167
v -0.045215 0.034196 0.073367
v -0.053014 0.033908 0.068364
v -0.057834 0.038235 0.061732
v -0.057834 0.045524 0.056004
v -0.053014 0.052991 0.053368
v -0.045215 0.057784 0.054831
v -0.037415 0.058072 0.059834
v -0.032595 0.053745 0.066466
v -0.032595 0.046456 0.072194
v -0.037415 0.038989 0.074830
v -0.002215 -0.016198 0.009238
v -0.010014 -0.016486 0.004235
v -0.014834 -0.012159 -0.002397
v -0.014834 -0.004870 -0.008125
v -0.010014 0.002598 -0.010761
v -0.002215 0.007391 -0.009298
v 0.005584 0.007679 -0.004295
v 0.010404 0.003352 0.002337
v 0.010404 -0.003937 0.008065
v 0.005584 -0.011404 0.010701
v -0.002215 -0.014406 0.011148
v -0.006745 -0.018133 0.003969
v -0.009544 -0.016615 -0.004738
v -0.009544 -0.010433 -0.011646
v -0.006745 -0.001947 -0.014117
v -0.002215 0.005600 -0.011208
v 0.002315 0.009326 -0.004028
v 0.005114 0.007808 0.004678
v 0.005114 0.001626 0.011586
v 0.002315 -0.006859 0.014057
v 0.026591 -0.027260 -0.000355
v 0.022061 -0.030987 -0.007534
v 0.019262 -0.029469 -0.016241
v 0.019262 -0.023287 -0.023149
v 0.022061 -0.014802 -0.025620
v 0.026591 -0.007255 -0.022711
v 0.031121 -0.003528 -0.015532
v 0.033920 -0.005046 -0.006825
v 0.033920 -0.011228 0.000083
v 0.031121 -0.019713 0.002554
v 0.026591 -0.009558 0.001340
v 0.022051 -0.017515 0.002761
v 0.019246 -0.025373 -0.001277
v 0.019246 -0.030132 -0.009233
v 0.022051 -0.029973 -0.018067
v 0.026591 -0.024958 -0.024406
v 0.031130 -0.017001 -0.025827
v 0.033936 -0.009142 -0.021789
v 0.033936 -0.004383 -0.013833
v 0.031130 -0.004542 -0.004999
v 0.048610 -0.020907 0.008128
v 0.044070 -0.028864 0.009550
v 0.041265 -0.036722 0.005511
v 0.041265 -0.041481 -0.002445
v 0.044070 -0.041323 -0.011279
v 0.048610 -0.036307 -0.017617
v 0.053149 -0.028350 -0.019039
v 0.055955 -0.020491 -0.015000
v 0.055955 -0.015732 -0.007045
v 0.053149 -0.015891 0.001790
v 0.048610 -0.018912 0.006702
v 0.044122 -0.026555 0.009421
v 0.041348 -0.034981 0.006729
v 0.041348 -0.040973 -0.000345
v 0.044122 -0.042241 -0.009100
v 0.048610 -0.038301 -0.016191
v 0.053098 -0.030658 -0.018910
v 0.055871 -0.022232 -0.016218
v 0.055871 -0.016241 -0.009144
v 0.053098 -0.014972 -0.000389
v 0.070587 -0.028829 0.015101
v 0.066100 -0.036472 0.017820
v 0.063326 -0.044898 0.015128
v 0.063326 -0.050890 0.008054
v 0.066100 -0.052158 -0.000700
v 0.070587 -0.048218 -0.007791
v 0.075075 -0.040576 -0.010510
v 0.077849 -0.032149 -0.007818
v 0.077849 -0.026158 -0.000744
v 0.075075 -0.024890 0.008010
v -0.045215 0.032475 0.070606
v -0.052857 0.033149 0.065402
v -0.057580 0.038727 0.059700
v -0.057580 0.047080 0.055678
v -0.052857 0.055017 0.054873
v -0.045215 0.059505 0.057592
v -0.037573 0.058831 0.062797
v -0.032850 0.053253 0.068499
v -0.032850 0.044900 0.072520
v -0.037573 0.036964 0.073325
v 0.002371 -0.003402 -0.003910
v -0.005271 -0.002728 -0.009114
v -0.009994 0.002850 -0.014816
v -0.009994 0.011203 -0.018838
v -0.005271 0.019139 -0.019643
v 0.002371 0.023628 -0.016924
v 0.010013 0.022954 -0.011719
v 0.014736 0.017376 -0.006017
v 0.014736 0.009023 -0.001996
v 0.010013 0.001087 -0.001191
v -0.001670 0.010113 0.004029
v 0.000598 0.001434 0.001689
v 0.003544 -0.003929 -0.005275
v 0.006042 -0.003929 -0.014203
v 0.007137 0.001434 -0.021685
v 0.006412 0.010113 -0.024862
v 0.004143 0.018792 -0.022522
v 0.001198 0.024155 -0.015558
v -0.001300 0.024155 -0.006630
v -0.002395 0.018792 0.000851
v 0.022866 0.014676 0.010892
v 0.025134 0.005997 0.008552
v 0.028080 0.000634 0.001588
v 0.030577 0.000634 -0.007339
v 0.031673 0.005997 -0.014821
v 0.030948 0.014676 -0.017998
v 0.028679 0.023355 -0.015658
v 0.025733 0.028718 -0.008694
v 0.023236 0.028718 0.000233
v 0.022141 0.023355 0.007715
v 0.026907 0.029563 -0.005394
v 0.018175 0.026569 -0.006258
v 0.012779 0.019033 -0.006088
v 0.012779 0.009833 -0.004950
v 0.018175 0.002482 -0.003278
v 0.026907 -0.000211 -0.001712
v 0.035638 0.002783 -0.000848
v 0.041034 0.010319 -0.001018
v 0.041034 0.019519 -0.002156
v 0.035638 0.026870 -0.003828
v 0.023254 0.032761 0.020460
v 0.014523 0.029767 0.019597
v 0.009127 0.022231 0.019766
v 0.009127 0.013031 0.020904
v 0.014523 0.005680 0.022576
v 0.023254 0.002988 0.024143
v 0.031986 0.005981 0.025006
v 0.037382 0.013517 0.024836
v 0.037382 0.022717 0.023698
v 0.031986 0.030068 0.022026
v 0.023254 0.032671 0.019841
v 0.015662 0.029110 0.015889
v 0.010970 0.021257 0.014386
v 0.010970 0.012112 0.015906
v 0.015662 0.005168 0.019869
v 0.023254 0.003077 0.024761
v 0.030846 0.006638 0.028713
v 0.035539 0.014491 0.030217
v 0.035539 0.023636 0.028696
v 0.030846 0.030580 0.024733
v 0.009585 0.036467 0.042677
v 0.001993 0.032906 0.038725
v -0.002699 0.025053 0.037222
v -0.002699 0.015908 0.038742
v 0.001993 0.008964 0.042705
v 0.009585 0.006873 0.047597
v 0.017177 0.010434 0.051549
v 0.021869 0.018287 0.053053
v 0.021869 0.027432 0.051532
v 0.017177 0.034376 0.047569
v -0.045215 0.031351 0.067370
v -0.052829 0.033178 0.062407
v -0.057535 0.039898 0.058091
v -0.057535 0.048946 0.056070
v -0.052829 0.056864 0.057115
v -0.045215 0.060629 0.060828
v -0.037600 0.058802 0.065791
v -0.032894 0.052082 0.070107
v -0.032894 0.043034 0.072129
v -0.037600 0.035116 0.071083
v -0.001990 0.015205 -0.004899
v -0.009604 0.017031 -0.009861
v -0.014310 0.023752 -0.014177
v -0.014310 0.032799 -0.016199
v -0.009604 0.040718 -0.015153
v -0.001990 0.044483 -0.011440
v 0.005625 0.042656 -0.006478
v 0.010331 0.035936 -0.002161
v 0.010331 0.026888 -0.000140
v 0.005625 0.018970 -0.001186
v -0.006869 0.029844 0.006015
v -0.005435 0.021043 0.003479
v -0.002684 0.015604 -0.003506
v 0.000332 0.015604 -0.012273
v 0.002461 0.021043 -0.019472
v 0.002890 0.029844 -0.022354
v 0.001455 0.038644 -0.019818
v -0.001295 0.044084 -0.012832
v -0.004311 0.044084 -0.004066
v -0.006440 0.038644 0.003133
v 0.014221 0.031191 0.013270
v 0.015655 0.022390 0.010734
v 0.018406 0.016951 0.003749
v 0.021421 0.016951 -0.005018
v 0.023550 0.022390 -0.012217
v 0.023980 0.031191 -0.015098
v 0.022545 0.039992 -0.012562
v 0.019795 0.045431 -0.005577
v 0.016779 0.045431 0.003189
v 0.014650 0.039992 0.010388
v 0.019100 0.046132 -0.002245
v 0.010294 0.043316 -0.001561
v 0.004851 0.035870 -0.000630
v 0.004851 0.026636 0.000193
v 0.010294 0.019142 0.000592
v 0.019100 0.016250 0.000417
v 0.027906 0.019065 -0.000267
v 0.033349 0.026512 -0.001199
v 0.033349 0.035746 -0.002021
v 0.027906 0.043240 -0.002421
v 0.020152 0.048037 0.019142
v 0.011346 0.045221 0.019826
v 0.005904 0.037775 0.020757
v 0.005904 0.028541 0.021580
v 0.011346 0.021047 0.021979
v 0.020152 0.018155 0.021804
v 0.028959 0.020970 0.021120
v 0.034401 0.028417 0.020189
v 0.034401 0.037651 0.019366
v 0.028959 0.045145 0.018966
v 0.020152 0.048087 0.020987
v 0.013407 0.045419 0.015215
v 0.009238 0.038043 0.011451
v 0.009238 0.028778 0.011133
v 0.013407 0.021162 0.014382
v 0.020152 0.018105 0.019958
v 0.026898 0.020773 0.025731
v 0.031067 0.028148 0.029495
v 0.031067 0.037413 0.029813
v 0.026898 0.045029 0.026563
v 0.010462 0.047692 0.032493
v 0.003717 0.045024 0.026721
v -0.000452 0.037648 0.022957
v -0.000452 0.028383 0.022639
v 0.003717 0.020767 0.025888
v 0.010462 0.017710 0.031464
v 0.017208 0.020378 0.037237
v 0.021376 0.027753 0.041001
v 0.021376 0.037018 0.041319
v 0.017208 0.044634 0.038069
f 1 2 13
f 2 14 13
f 2 3 14
f 3 15 14
f 3 4 15
f 4 16 15
f 4 5 16
f 5 17 16
f 5 6 17
f 6 18 17
f 6 7 18
f 7 19 18
f 7 8 19
f 8 20 19
f 8 9 20
f 9 21 20
f 9 10 21
f 10 22 21
f 10 11 22
f 11 23 22
f 11 12 23
f 12 24 23
f 13 14 25
f 14 26 25
f 14 15 26
f 15 27 26
f 15 16 27
f 16 28 27
f 16 17 28
f 17 29 28
f 17 18 29
f 18 30 29
f 18 19 30
f 19 31 30
f 19 20 31
f 20 32 31
f 20 21 32
f 21 33 32
f 21 22 33
f 22 34 33
f 22 23 34
f 23 35 34
f 23 24 35
f 24 36 35
f 25 26 37
f 26 38 37
f 26 27 38
f 27 39 38
f 27 28 39
f 28 40 39
f 28 29 40
f 29 41 40
f 29 30 41
f 30 42 41
f 30 31 42
f 31 43 42
f 31 32 43
f 32 44 43
f 32 33 44
f 33 45 44
f 33 34 45
f 34 46 45
f 34 35 46
f 35 47 46
f 35 36 47
f 36 48 47
f 37 38 49
f 38 50 49
f 38 39 50
f 39 51 50
f 39 40 51
f 40 52 51
f 40 41 52
f 41 53 52
f 41 42 53
f 42 54 53
f 42 43 54
f 43 55 54
f 43 44 55
f 44 56 55
f 44 45 56
f 45 57 56
f 45 46 57
f 46 58 57
f 46 47 58
f 47 59 58
f 47 48 59
f 48 60 59
f 49 50 61
f 50 62 61
f 50 51 62
f 51 63 62
f 51 52 63
f 52 64 63
f 52 53 64
f 53 65 64
f 53 54 65
f 54 66 65
f 54 55 66
f 55 67 66
f 55 56 67
f 56 68 67
f 56 57 68
f 57 69 68
f 57 58 69
f 58 70 69
f 58 59 70
f 59 71 70
f 59 60 71
f 60 72 71
f 61 62 73
f 62 74 73
f 62 63 74
f 63 75 74
f 63 64 75
f 64 76 75
f 64 65 76
f 65 77 76
f 65 66 77
f 66 78 77
f 66 67 78
f 67 79 78
f 67 68 79
f 68 80 79
f 68 69 80
f 69 81 80
f 69 70 81
f 70 82 81
f 70 71 82
f 71 83 82
f 71 72 83
f 72 84 83
f 73 74 85
f 74 86 85
f 74 75 86
f 75 87 86
f 75 76 87
f 76 88 87
f 76 77 88
f 77 89 88
f 77 78 89
f 78 90 89
f 78 79 90
f 79 91 90
f 79 80 91
f 80 92 91
f 80 81 92
f 81 93 92
f 81 82 93
f 82 94 93
f 82 83 94
f 83 95 94
f 83 84 95
f 84 96 95
f 85 86 97
f 86 98 97
f 86 87 98
f 87 99 98
f 87 88 99
f 88 100 99
f 88 89 100
f 89 101 100
f 89 90 101
f 90 102 101
f 90 91 102
f 91 103 102
f 91 92 103
f 92 104 103
f 92 93 104
f 93 105 104
f 93 94 105
f 94 106 105
f 94 95 106
f 95 107 106
f 95 96 107
f 96 108 107
f 97 98 109
f 98 110 109
f 98 99 110
f 99 111 110
f 99 100 111
f 100 112 111
f 100 101 112
f 101 113 112
f 101 102 113
f 102 114 113
f 102 103 114
f 103 115 114
f 103 104 115
f 104 116 115
f 104 105 116
f 105 117 116
f 105 106 117
f 106 118 117
f 106 107 118
f 107 119 118
f 107 108 119
f 108 120 119
f 109 110 121
f 110 122 121
f 110 111 122
f 111 123 122
f 111 112 123
f 112 124 123
f 112 113 124
f 113 125 124
f 113 114 125
f 114 126 125
f 114 115 126
f 115 127 126
f 115 116 127
f 116 128 127
f 116 117 128
f 117 129 128
f 117 118 129
f 118 130 129
f 118 119 130
f 119 131 130
f 119 120 131
f 120 132 131
f 121 122 133
f 122 134 133
f 122 123 134
f 123 135 134
f 123 124 135
f 124 136 135
f 124 125 136
f 125 137 136
f 125 126 137
f 126 138 137
f 126 127 138
f 127 139 138
f 127 128 139
f 128 140 139
f 128 129 140
f 129 141 140
f 129 130 141
f 130 142 141
f 130 131 142
f 131 143 142
f 131 132 143
f 132 144 143
f 145 146 155
f 146 156 155
f 146 147 156
f 147 157 156
f 147 148 157
f 148 158 157
f 148 149 158
f 149 159 158
f 149 150 159
f 150 160 159
f 150 151 160
f 151 161 160
f 151 152 161
f 152 162 161
f 152 153 162
f 153 163 162
f 153 154 163
f 154 164 163
f 154 145 164
f 145 155 164
f 165 166 175
f 166 176 175
f 166 167 176
f 167 177 176
f 167 168 177
f 168 178 177
f 168 169 178
f 169 179 178
f 169 170 179
f 170 180 179
f 170 171 180
f 171 181 180
f 171 172 181
f 172 182 181
f 172 173 182
f 173 183 182
f 173 174 183
f 174 184 183
f 174 165 184
f 165 175 184
f 185 186 195
f 186 196 195
f 186 187 196
f 187 197 196
f 187 188 197
f 188 198 197
f 188 189 198
f 189 199 198
f 189 190 199
f 190 200 199
f 190 191 200
f 191 201 200
f 191 192 201
f 192 202 201
f 192 193 202
f 193 203 202
f 193 194 203
f 194 204 203
f 194 185 204
f 185 195 204
f 205 206 215
f 206 216 215
f 206 207 216
f 207 217 216
f 207 208 217
f 208 218 217
f 208 209 218
f 209 219 218
f 209 210 219
f 210 220 219
f 210 211 220
f 211 221 220
f 211 212 221
f 212 222 221
f 212 213 222
f 213 223 222
f 213 214 223
f 214 224 223
f 214 205 224
f 205 215 224
f 225 226 235
f 226 236 235
f 226 227 236
f 227 237 236
f 227 228 237
f 228 238 237
f 228 229 238
f 229 239 238
f 229 230 239
f 230 240 239
f 230 231 240
f 231 241 240
f 231 232 241
f 232 242 241
f 232 233 242
f 233 243 242
f 233 234 243
f 234 244 243
f 234 225 244
f 225 235 244
f 245 246 255
f 246 256 255
f 246 247 256
f 247 257 256
f 247 248 257
f 248 258 257
f 248 249 258
f 249 259 258
f 249 250 259
f 250 260 259
f 250 251 260
f 251 261 260
f 251 252 261
f 252 262 261
f 252 253 262
f 253 263 262
f 253 254 263
f 254 264 263
f 254 245 264
f 245 255 264
f 265 266 275
f 266 276 275
f 266 267 276
f 267 277 276
f 267 268 277
f 268 278 277
f 268 269 278
f 269 279 278
f 269 270 279
f 270 280 279
f 270 271 280
f 271 281 280
f 271 272 281
f 272 282 281
f 272 273 282
f 273 283 282
f 273 274 283
f 274 284 283
f 274 265 284
f 265 275 284
f 285 286 295
f 286 296 295
f 286 287 296
f 287 297 296
f 287 288 297
f 288 298 297
f 288 289 298
f 289 299 298
f 289 290 299
f 290 300 299
f 290 291 300
f 291 301 300
f 291 292 301
f 292 302 301
f 292 293 302
f 293 303 302
f 293 294 303
f 294 304 303
f 294 285 304
f 285 295 304
f 305 306 315
f 306 316 315
f 306 307 316
f 307 317 316
f 307 308 317
f 308 318 317
f 308 309 318
f 309 319 318
f 309 310 319
f 310 320 319
f 310 311 320
f 311 321 320
f 311 312 321
f 312 322 321
f 312 313 322
f 313 323 322
f 313 314 323
f 314 324 323
f 314 305 324
f 305 315 324
f 325 326 335
f 326 336 335
f 326 327 336
f 327 337 336
f 327 328 337
f 328 338 337
f 328 329 338
f 329 339 338
f 329 330 339
f 330 340 339
f 330 331 340
f 331 341 340
f 331 332 341
f 332 342 341
f 332 333 342
f 333 343 342
f 333 334 343
f 334 344 343
f 334 325 344
f 325 335 344
f 345 346 355
f 346 356 355
f 346 347 356
f 347 357 356
f 347 348 357
f 348 358 357
f 348 349 358
f 349 359 358
f 349 350 359
f 350 360 359
f 350 351 360
f 351 361 360
f 351 352 361
f 352 362 361
f 352 353 362
f 353 363 362
f 353 354 363
f 354 364 363
f 354 345 364
f 345 355 364
f 365 366 375
f 366 376 375
f 366 367 376
f 367 377 376
f 367 368 377
f 368 378 377
f 368 369 378
f 369 379 378
f 369 370 379
f 370 380 379
f 370 371 380
f 371 381 380
f 371 372 381
f 372 382 381
f 372 373 382
f 373 383 382
f 373 374 383
f 374 384 383
f 374 365 384
f 365 375 384
f 385 386 395
f 386 396 395
f 386 387 396
f 387 397 396
f 387 388 397
f 388 398 397
f 388 389 398
f 389 399 398
f 389 390 399
f 390 400 399
f 390 391 400
f 391 401 400
f 391 392 401
f 392 402 401
f 392 393 402
f 393 403 402
f 393 394 403
f 394 404 403
f 394 385 404
f 385 395 404
f 405 406 415
f 406 416 415
f 406 407 416
f 407 417 416
f 407 408 417
f 408 418 417
f 408 409 418
f 409 419 418
f 409 410 419
f 410 420 419
f 410 411 420
f 411 421 420
f 411 412 421
f 412 422 421
f 412 413 422
f 413 423 422
f 413 414 423
f 414 424 423
f 414 405 424
f 405 415 424
f 425 426 435
f 426 436 435
f 426 427 436
f 427 437 436
f 427 428 437
f 428 438 437
f 428 429 438
f 429 439 438
f 429 430 439
f 430 440 439
f 430 431 440
f 431 441 440
f 431 432 441
f 432 442 441
f 432 433 442
f 433 443 442
f 433 434 443
f 434 444 443
f 434 425 444
f 425 435 444
f 445 446 455
f 446 456 455
f 446 447 456
f 447 457 456
f 447 448 457
f 448 458 457
f 448 449 458
f 449 459 458
f 449 450 459
f 450 460 459
f 450 451 460
f 451 461 460
f 451 452 461
f 452 462 461
f 452 453 462
f 453 463 462
f 453 454 463
f 454 464 463
f 454 445 464
f 445 455 464
f 465 466 475
f 466 476 475
f 466 467 476
f 467 477 476
f 467 468 477
f 468 478 477
f 468 469 478
f 469 479 478
f 469 470 479
f 470 480 479
f 470 471 480
f 471 481 480
f 471 472 481
f 472 482 481
f 472 473 482
f 473 483 482
f 473 474 483
f 474 484 483
f 474 465 484
f 465 475 484
f 485 486 495
f 486 496 495
f 486 487 496
f 487 497 496
f 487 488 497
f 488 498 497
f 488 489 498
f 489 499 498
f 489 490 499
f 490 500 499
f 490 491 500
f 491 501 500
f 491 492 501
f 492 502 501
f 492 493 502
f 493 503 502
f 493 494 503
f 494 504 503
f 494 485 504
f 485 495 504
f 505 506 515
f 506 516 515
f 506 507 516
f 507 517 516
f 507 508 517
f 508 518 517
f 508 509 518
f 509 519 518
f 509 510 519
f 510 520 519
f 510 511 520
f 511 521 520
f 511 512 521
f 512 522 521
f 512 513 522
f 513 523 522
f 513 514 523
f 514 524 523
f 514 505 524
f 505 515 524
f 525 526 535
f 526 536 535
f 526 527 536
f 527 537 536
f 527 528 537
f 528 538 537
f 528 529 538
f 529 539 538
f 529 530 539
f 530 540 539
f 530 531 540
f 531 541 540
f 531 532 541
f 532 542 541
f 532 533 542
f 533 543 542
f 533 534 543
f 534 544 543
f 534 525 544
f 525 535 544
f 545 546 555
f 546 556 555
f 546 547 556
f 547 557 556
f 547 548 557
f 548 558 557
f 548 549 558
f 549 559 558
f 549 550 559
f 550 560 559
f 550 551 560
f 551 561 560
f 551 552 561
f 552 562 561
f 552 553 562
f 553 563 562
f 553 554 563
f 554 564 563
f 554 545 564
f 545 555 564
f 565 566 575
f 566 576 575
f 566 567 576
f 567 577 576
f 567 568 577
f 568 578 577
f 568 569 578
f 569 579 578
f 569 570 579
f 570 580 579
f 570 571 580
f 571 581 580
f 571 572 581
f 572 582 581
f 572 573 582
f 573 583 582
f 573 574 583
f 574 584 583
f 574 565 584
f 565 575 584
f 585 586 595
f 586 596 595
f 586 587 596
f 587 597 596
f 587 588 597
f 588 598 597
f 588 589 598
f 589 599 598
f 589 590 599
f 590 600 599
f 590 591 600
f 591 601 600
f 591 592 601
f 592 602 601
f 592 593 602
f 593 603 602
f 593 594 603
f 594 604 603
f 594 585 604
f 585 595 604
f 605 606 615
f 606 616 615
f 606 607 616
f 607 617 616
f 607 608 617
f 608 618 617
f 608 609 618
f 609 619 618
f 609 610 619
f 610 620 619
f 610 611 620
f 611 621 620
f 611 612 621
f 612 622 621
f 612 613 622
f 613 623 622
f 613 614 623
f 614 624 623
f 614 605 624
f 605 615 624
f 625 626 635
f 626 636 635
f 626 627 636
f 627 637 636
f 627 628 637
f 628 638 637
f 628 629 638
f 629 639 638
f 629 630 639
f 630 640 639
f 630 631 640
f 631 641 640
f 631 632 641
f 632 642 641
f 632 633 642
f 633 643 642
f 633 634 643
f 634 644 643
f 634 625 644
f 625 635 644
f 645 646 655
f 646 656 655
f 646 647 656
f 647 657 656
f 647 648 657
f 648 658 657
f 648 649 658
f 649 659 658
f 649 650 659
f 650 660 659
f 650 651 660
f 651 661 660
f 651 652 661
f 652 662 661
f 652 653 662
f 653 663 662
f 653 654 663
f 654 664 663
f 654 645 664
f 645 655 664
f 665 666 675
f 666 676 675
f 666 667 676
f 667 677 676
f 667 668 677
f 668 678 677
f 668 669 678
f 669 679 678
f 669 670 679
f 670 680 679
f 670 671 680
f 671 681 680
f 671 672 681
f 672 682 681
f 672 673 682
f 673 683 682
f 673 674 683
f 674 684 683
f 674 665 684
f 665 675 684
f 685 686 695
f 686 696 695
f 686 687 696
f 687 697 696
f 687 688 697
f 688 698 697
f 688 689 698
f 689 699 698
f 689 690 699
f 690 700 699
f 690 691 700
f 691 701 700
f 691 692 701
f 692 702 701
f 692 693 702
f 693 703 702
f 693 694 703
f 694 704 703
f 694 685 704
f 685 695 704
f 705 706 715
f 706 716 715
f 706 707 716
f 707 717 716
f 707 708 717
f 708 718 717
f 708 709 718
f 709 719 718
f 709 710 719
f 710 720 719
f 710 711 720
f 711 721 720
f 711 712 721
f 712 722 721
f 712 713 722
f 713 723 722
f 713 714 723
f 714 724 723
f 714 705 724
f 705 715 724
f 725 726 735
f 726 736 735
f 726 727 736
f 727 737 736
f 727 728 737
f 728 738 737
f 728 729 738
f 729 739 738
f 729 730 739
f 730 740 739
f 730 731 740
f 731 741 740
f 731 732 741
f 732 742 741
f 732 733 742
f 733 743 742
f 733 734 743
f 734 744 743
f 734 725 744
f 725 735 744
f 745 746 755
f 746 756 755
f 746 747 756
f 747 757 756
f 747 748 757
f 748 758 757
f 748 749 758
f 749 759 758
f 749 750 759
f 750 760 759
f 750 751 760
f 751 761 760
f 751 752 761
f 752 762 761
f 752 753 762
f 753 763 762
f 753 754 763
f 754 764 763
f 754 745 764
f 745 755 764
f 765 766 775
f 766 776 775
f 766 767 776
f 767 777 776
f 767 768 777
f 768 778 777
f 768 769 778
f 769 779 778
f 769 770 779
f 770 780 779
f 770 771 780
f 771 781 780
f 771 772 781
f 772 782 781
f 772 773 782
f 773 783 782
f 773 774 783
f 774 784 783
f 774 765 784
f 765 775 784
