# Full-Body 3D Mesh - Frame 15
v 0.008520 -0.606664 -0.178656
v 0.042328 -0.606664 -0.183517
v 0.073397 -0.606664 -0.197706
v 0.099210 -0.606664 -0.220073
v 0.117675 -0.606664 -0.248806
v 0.127298 -0.606664 -0.281578
v 0.127298 -0.606664 -0.315734
v 0.117675 -0.606664 -0.348506
v 0.099210 -0.606664 -0.377239
v 0.073397 -0.606664 -0.399606
v 0.042328 -0.606664 -0.413795
v 0.008520 -0.606664 -0.418656
v 0.008520 -0.606664 -0.178656
v 0.036961 -0.588386 -0.183517
v 0.063098 -0.571589 -0.197706
v 0.084813 -0.557633 -0.220073
v 0.100347 -0.547650 -0.248806
v 0.108443 -0.542447 -0.281578
v 0.108443 -0.542447 -0.315734
v 0.100347 -0.547650 -0.348506
v 0.084813 -0.557633 -0.377239
v 0.063098 -0.571589 -0.399606
v 0.036961 -0.588386 -0.413795
v 0.008520 -0.606664 -0.418656
v 0.008520 -0.606664 -0.178656
v 0.022564 -0.575911 -0.183517
v 0.035470 -0.547650 -0.197706
v 0.046194 -0.524170 -0.220073
v 0.053865 -0.507372 -0.248806
v 0.057862 -0.498619 -0.281578
v 0.057862 -0.498619 -0.315734
v 0.053865 -0.507372 -0.348506
v 0.046194 -0.524170 -0.377239
v 0.035470 -0.547650 -0.399606
v 0.022564 -0.575911 -0.413795
v 0.008520 -0.606664 -0.418656
v 0.008520 -0.606664 -0.178656
v 0.003708 -0.573200 -0.183517
v -0.000713 -0.542447 -0.197706
v -0.004387 -0.516897 -0.220073
v -0.007015 -0.498619 -0.248806
v -0.008384 -0.489094 -0.281578
v -0.008384 -0.489094 -0.315734
v -0.007015 -0.498619 -0.348506
v -0.004387 -0.516897 -0.377239
v -0.000713 -0.542447 -0.399606
v 0.003708 -0.573200 -0.413795
v 0.008520 -0.606664 -0.418656
v 0.008520 -0.606664 -0.178656
v -0.013620 -0.581114 -0.183517
v -0.033966 -0.557633 -0.197706
v -0.050870 -0.538125 -0.220073
v -0.062962 -0.524170 -0.248806
v -0.069264 -0.516897 -0.281578
v -0.069264 -0.516897 -0.315734
v -0.062962 -0.524170 -0.348506
v -0.050870 -0.538125 -0.377239
v -0.033966 -0.557633 -0.399606
v -0.013620 -0.581114 -0.413795
v 0.008520 -0.606664 -0.418656
v 0.008520 -0.606664 -0.178656
v -0.023919 -0.597139 -0.183517
v -0.053729 -0.588386 -0.197706
v -0.078497 -0.581114 -0.220073
v -0.096215 -0.575911 -0.248806
v -0.105448 -0.573200 -0.281578
v -0.105448 -0.573200 -0.315734
v -0.096215 -0.575911 -0.348506
v -0.078497 -0.581114 -0.377239
v -0.053729 -0.588386 -0.399606
v -0.023919 -0.597139 -0.413795
v 0.008520 -0.606664 -0.418656
v 0.008520 -0.606664 -0.178656
v -0.023919 -0.616189 -0.183517
v -0.053729 -0.624942 -0.197706
v -0.078497 -0.632214 -0.220073
v -0.096215 -0.637417 -0.248806
v -0.105448 -0.640128 -0.281578
v -0.105448 -0.640128 -0.315734
v -0.096215 -0.637417 -0.348506
v -0.078497 -0.632214 -0.377239
v -0.053729 -0.624942 -0.399606
v -0.023919 -0.616189 -0.413795
v 0.008520 -0.606664 -0.418656
v 0.008520 -0.606664 -0.178656
v -0.013620 -0.632214 -0.183517
v -0.033966 -0.655695 -0.197706
v -0.050870 -0.675203 -0.220073
v -0.062962 -0.689158 -0.248806
v -0.069264 -0.696431 -0.281578
v -0.069264 -0.696431 -0.315734
v -0.062962 -0.689158 -0.348506
v -0.050870 -0.675203 -0.377239
v -0.033966 -0.655695 -0.399606
v -0.013620 -0.632214 -0.413795
v 0.008520 -0.606664 -0.418656
v 0.008520 -0.606664 -0.178656
v 0.003708 -0.640128 -0.183517
v -0.000713 -0.670881 -0.197706
v -0.004387 -0.696431 -0.220073
v -0.007015 -0.714709 -0.248806
v -0.008384 -0.724234 -0.281578
v -0.008384 -0.724234 -0.315734
v -0.007015 -0.714709 -0.348506
v -0.004387 -0.696431 -0.377239
v -0.000713 -0.670881 -0.399606
v 0.003708 -0.640128 -0.413795
v 0.008520 -0.606664 -0.418656
v 0.008520 -0.606664 -0.178656
v 0.022564 -0.637417 -0.183517
v 0.035470 -0.665678 -0.197706
v 0.046194 -0.689158 -0.220073
v 0.053865 -0.705956 -0.248806
v 0.057862 -0.714709 -0.281578
v 0.057862 -0.714709 -0.315734
v 0.053865 -0.705956 -0.348506
v 0.046194 -0.689158 -0.377239
v 0.035470 -0.665678 -0.399606
v 0.022564 -0.637417 -0.413795
v 0.008520 -0.606664 -0.418656
v 0.008520 -0.606664 -0.178656
v 0.036961 -0.624942 -0.183517
v 0.063098 -0.641739 -0.197706
v 0.084813 -0.655695 -0.220073
v 0.100347 -0.665678 -0.248806
v 0.108443 -0.670881 -0.281578
v 0.108443 -0.670881 -0.315734
v 0.100347 -0.665678 -0.348506
v 0.084813 -0.655695 -0.377239
v 0.063098 -0.641739 -0.399606
v 0.036961 -0.624942 -0.413795
v 0.008520 -0.606664 -0.418656
v 0.008520 -0.606664 -0.178656
v 0.042328 -0.606664 -0.183517
v 0.073397 -0.606664 -0.197706
v 0.099210 -0.606664 -0.220073
v 0.117675 -0.606664 -0.248806
v 0.127298 -0.606664 -0.281578
v 0.127298 -0.606664 -0.315734
v 0.117675 -0.606664 -0.348506
v 0.099210 -0.606664 -0.377239
v 0.073397 -0.606664 -0.399606
v 0.042328 -0.606664 -0.413795
v 0.008520 -0.606664 -0.418656
v 0.157170 -0.439292 -0.127456
v 0.156936 -0.462802 -0.119818
v 0.156711 -0.477333 -0.099819
v 0.156583 -0.477333 -0.075098
v 0.156599 -0.462802 -0.055098
v 0.156754 -0.439292 -0.047457
v 0.156989 -0.415781 -0.055096
v 0.157213 -0.401251 -0.075095
v 0.157342 -0.401251 -0.099816
v 0.157326 -0.415781 -0.119816
v -0.154837 -0.436705 -0.129079
v -0.155072 -0.460216 -0.121441
v -0.155296 -0.474746 -0.101442
v -0.155425 -0.474746 -0.076721
v -0.155408 -0.460216 -0.056721
v -0.155253 -0.436705 -0.049080
v -0.155019 -0.413195 -0.056719
v -0.154794 -0.398664 -0.076718
v -0.154666 -0.398664 -0.101439
v -0.154682 -0.413195 -0.121439
v 0.156962 -0.456801 -0.123421
v 0.133539 -0.451629 -0.117442
v 0.119063 -0.441744 -0.100010
v 0.119063 -0.430923 -0.077783
v 0.133539 -0.423298 -0.059251
v 0.156962 -0.421782 -0.051493
v 0.180386 -0.426954 -0.057471
v 0.194862 -0.436839 -0.074903
v 0.194862 -0.447660 -0.097130
v 0.180386 -0.455285 -0.115663
v 0.179652 -0.221776 -0.237843
v 0.156228 -0.216604 -0.231864
v 0.141752 -0.206719 -0.214432
v 0.141752 -0.195898 -0.192205
v 0.156228 -0.188273 -0.173673
v 0.179652 -0.186757 -0.165914
v 0.203075 -0.191929 -0.171893
v 0.217551 -0.201814 -0.189325
v 0.217551 -0.212635 -0.211552
v 0.203075 -0.220260 -0.230084
v 0.179652 -0.241827 -0.188124
v 0.156468 -0.233309 -0.187078
v 0.142140 -0.213697 -0.191685
v 0.142140 -0.190483 -0.200186
v 0.156468 -0.172534 -0.209333
v 0.179652 -0.166706 -0.215633
v 0.202836 -0.175224 -0.216679
v 0.217164 -0.194836 -0.212072
v 0.217164 -0.218050 -0.203571
v 0.202836 -0.235999 -0.194424
v 0.133429 -0.336037 -0.445392
v 0.110246 -0.327519 -0.444346
v 0.095917 -0.307907 -0.448954
v 0.095917 -0.284693 -0.457454
v 0.110246 -0.266744 -0.466602
v 0.133429 -0.260916 -0.472901
v 0.156613 -0.269434 -0.473947
v 0.170942 -0.289046 -0.469340
v 0.170942 -0.312260 -0.460839
v 0.156613 -0.330209 -0.451692
v -0.155045 -0.452053 -0.126018
v -0.177964 -0.453967 -0.116951
v -0.192128 -0.449288 -0.097237
v -0.192128 -0.439802 -0.074408
v -0.177964 -0.429134 -0.057183
v -0.155045 -0.421358 -0.052142
v -0.132127 -0.419444 -0.061209
v -0.117962 -0.424123 -0.080923
v -0.117962 -0.433609 -0.103752
v -0.132127 -0.444277 -0.120977
v -0.215191 -0.209426 -0.226829
v -0.238110 -0.211340 -0.217762
v -0.252274 -0.206661 -0.198048
v -0.252274 -0.197175 -0.175219
v -0.238110 -0.186507 -0.157994
v -0.215191 -0.178731 -0.152953
v -0.192273 -0.176817 -0.162020
v -0.178108 -0.181497 -0.181734
v -0.178108 -0.190982 -0.204563
v -0.192273 -0.201650 -0.221788
v -0.215191 -0.232051 -0.177316
v -0.237747 -0.226884 -0.186016
v -0.251688 -0.209187 -0.196195
v -0.251688 -0.185719 -0.203967
v -0.237747 -0.165444 -0.206362
v -0.215191 -0.156107 -0.202466
v -0.192636 -0.161273 -0.193767
v -0.178695 -0.178970 -0.183587
v -0.178695 -0.202438 -0.175815
v -0.192636 -0.222713 -0.173420
v -0.146805 -0.305145 -0.398034
v -0.169361 -0.299979 -0.406733
v -0.183302 -0.282282 -0.416913
v -0.183302 -0.258814 -0.424685
v -0.169361 -0.238539 -0.427080
v -0.146805 -0.229201 -0.423184
v -0.124249 -0.234367 -0.414484
v -0.110309 -0.252064 -0.404304
v -0.110309 -0.275532 -0.396532
v -0.124249 -0.295807 -0.394137
v 0.156962 -0.429064 -0.126127
v 0.133524 -0.432810 -0.119216
v 0.119039 -0.439031 -0.100174
v 0.119039 -0.445352 -0.076274
v 0.133524 -0.449358 -0.056646
v 0.156962 -0.449519 -0.048786
v 0.180401 -0.445773 -0.055698
v 0.194886 -0.439552 -0.074740
v 0.194886 -0.433231 -0.098640
v 0.180401 -0.429225 -0.118268
v 0.121016 0.010263 -0.009938
v 0.097578 0.006518 -0.003026
v 0.083092 0.000296 0.016016
v 0.083092 -0.006025 0.039915
v 0.097578 -0.010030 0.059544
v 0.121016 -0.010191 0.067403
v 0.144454 -0.006446 0.060492
v 0.158940 -0.000224 0.041449
v 0.158940 0.006096 0.017550
v 0.144454 0.010102 -0.002078
v -0.155045 -0.430753 -0.128635
v -0.178478 -0.429993 -0.120795
v -0.192961 -0.431797 -0.100841
v -0.192961 -0.435475 -0.076395
v -0.178478 -0.439624 -0.056794
v -0.155045 -0.442657 -0.049525
v -0.131612 -0.443418 -0.057365
v -0.117130 -0.441614 -0.077319
v -0.117130 -0.437935 -0.101765
v -0.131612 -0.433787 -0.121366
v -0.120088 -0.008484 -0.065093
v -0.143521 -0.007724 -0.057254
v -0.158004 -0.009528 -0.037300
v -0.158004 -0.013206 -0.012854
v -0.143521 -0.017355 0.006747
v -0.120088 -0.020388 0.014016
v -0.096655 -0.021148 0.006176
v -0.082173 -0.019345 -0.013778
v -0.082173 -0.015666 -0.038224
v -0.096655 -0.011518 -0.057825
v 0.129800 0.000036 -0.010291
v 0.129464 -0.023435 -0.002536
v 0.125900 -0.037941 0.017162
v 0.120471 -0.037941 0.041280
v 0.115251 -0.023435 0.060605
v 0.112232 0.000036 0.067756
v 0.112569 0.023507 0.060002
v 0.116132 0.038013 0.040303
v 0.121561 0.038013 0.016185
v 0.126782 0.023507 -0.003140
v -0.111304 -0.014436 -0.064562
v -0.111641 -0.037907 -0.056808
v -0.115204 -0.052413 -0.037109
v -0.120633 -0.052413 -0.012991
v -0.125854 -0.037907 0.006334
v -0.128872 -0.014436 0.013485
v -0.128535 0.009035 0.005730
v -0.124972 0.023541 -0.013968
v -0.119543 0.023541 -0.038086
v -0.114323 0.009035 -0.057411
v 0.121016 -0.010418 -0.009877
v 0.097747 -0.011670 -0.001624
v 0.083366 -0.008450 0.018224
v 0.083366 -0.001989 0.042087
v 0.097747 0.005245 0.060848
v 0.121016 0.010490 0.067342
v 0.144286 0.011741 0.059089
v 0.158667 0.008522 0.039241
v 0.158667 0.002061 0.015379
v 0.144286 -0.005174 -0.003383
v 0.095682 0.158688 -0.055664
v 0.072413 0.157436 -0.047411
v 0.058031 0.160656 -0.027563
v 0.058031 0.167117 -0.003701
v 0.072413 0.174351 0.015061
v 0.095682 0.179596 0.021555
v 0.118951 0.180847 0.013302
v 0.133333 0.177628 -0.006547
v 0.133333 0.171167 -0.030409
v 0.118951 0.163932 -0.049170
v 0.095682 0.187302 -0.052695
v 0.072187 0.184614 -0.045490
v 0.057666 0.176016 -0.027425
v 0.057666 0.164793 -0.005398
v 0.072187 0.155230 0.012176
v 0.095682 0.150981 0.018585
v 0.119177 0.153669 0.011381
v 0.133698 0.162267 -0.006685
v 0.133698 0.173491 -0.028711
v 0.119177 0.183054 -0.046286
v 0.109011 0.505871 0.109635
v 0.085516 0.503183 0.116839
v 0.070995 0.494585 0.134904
v 0.070995 0.483361 0.156931
v 0.085516 0.473798 0.174505
v 0.109011 0.469550 0.180914
v 0.132506 0.472238 0.173710
v 0.147027 0.480835 0.155644
v 0.147027 0.492059 0.133618
v 0.132506 0.501622 0.116043
v -0.120088 -0.054307 -0.028751
v -0.143459 -0.046486 -0.030700
v -0.157902 -0.026423 -0.030677
v -0.157902 -0.001782 -0.028691
v -0.143459 0.018026 -0.025502
v -0.120088 0.025435 -0.022326
v -0.096718 0.017613 -0.020378
v -0.082274 -0.002450 -0.020401
v -0.082274 -0.027091 -0.022386
v -0.096718 -0.046899 -0.025576
v -0.100293 -0.039851 -0.208165
v -0.123664 -0.032030 -0.210113
v -0.138108 -0.011967 -0.210090
v -0.138108 0.012674 -0.208105
v -0.123664 0.032482 -0.204915
v -0.100293 0.039890 -0.201740
v -0.076923 0.032069 -0.199792
v -0.062479 0.012006 -0.199815
v -0.062479 -0.012635 -0.201800
v -0.076923 -0.032443 -0.204990
v -0.100293 -0.002623 -0.244865
v -0.123549 0.001333 -0.237471
v -0.137922 0.004787 -0.217656
v -0.137922 0.006420 -0.192989
v -0.123549 0.005608 -0.172891
v -0.100293 0.002662 -0.165040
v -0.077038 -0.001294 -0.172434
v -0.062665 -0.004748 -0.192249
v -0.062665 -0.006381 -0.216916
v -0.077038 -0.005570 -0.237014
v -0.063432 0.244686 -0.261239
v -0.086688 0.248641 -0.253845
v -0.101060 0.252096 -0.234030
v -0.101060 0.253729 -0.209363
v -0.086688 0.252917 -0.189265
v -0.063432 0.249971 -0.181414
v -0.040176 0.246015 -0.188808
v -0.025804 0.242561 -0.208623
v -0.025804 0.240928 -0.233291
v -0.040176 0.241739 -0.253388
v -0.037136 0.038432 0.079164
v -0.045950 0.039655 0.076562
v -0.051397 0.042398 0.069580
v -0.051397 0.045614 0.060885
v -0.045950 0.048073 0.053798
v -0.037136 0.048838 0.051026
v -0.028323 0.047615 0.053628
v -0.022876 0.044872 0.060610
v -0.022876 0.041656 0.069305
v -0.028323 0.039196 0.076392
v -0.038202 0.002406 0.065841
v -0.047015 0.003629 0.063239
v -0.052462 0.006372 0.056257
v -0.052462 0.009588 0.047562
v -0.047015 0.012048 0.040475
v -0.038202 0.012812 0.037704
v -0.029388 0.011589 0.040306
v -0.023941 0.008846 0.047288
v -0.023941 0.005630 0.055983
v -0.029388 0.003171 0.063069
v -0.038202 0.000452 0.064955
v -0.046959 0.000924 0.061951
v -0.052372 0.003950 0.055060
v -0.052372 0.008373 0.046913
v -0.046959 0.012505 0.040622
v -0.038202 0.014767 0.038590
v -0.029444 0.014294 0.041593
v -0.024031 0.011269 0.048485
v -0.024031 0.006845 0.056632
v -0.029444 0.002714 0.062923
v -0.035089 -0.023074 0.052181
v -0.043847 -0.022602 0.049178
v -0.049260 -0.019576 0.042286
v -0.049260 -0.015153 0.034139
v -0.043847 -0.011021 0.027848
v -0.035089 -0.008759 0.025816
v -0.026332 -0.009232 0.028820
v -0.020919 -0.012257 0.035711
v -0.020919 -0.016681 0.043858
v -0.026332 -0.020813 0.050149
v -0.035089 -0.025427 0.050598
v -0.043530 -0.021642 0.049998
v -0.048747 -0.015669 0.045196
v -0.048747 -0.009792 0.038027
v -0.043530 -0.006253 0.031229
v -0.035089 -0.006406 0.027399
v -0.026648 -0.010192 0.028000
v -0.021432 -0.016164 0.032802
v -0.021432 -0.022042 0.039971
v -0.026648 -0.025580 0.046769
v -0.044185 -0.048742 0.031483
v -0.052626 -0.044957 0.030882
v -0.057843 -0.038985 0.026080
v -0.057843 -0.033107 0.018911
v -0.052626 -0.029569 0.012113
v -0.044185 -0.029722 0.008283
v -0.035744 -0.033507 0.008884
v -0.030528 -0.039480 0.013686
v -0.030528 -0.045357 0.020855
v -0.035744 -0.048895 0.027653
v -0.044185 -0.050283 0.030026
v -0.051012 -0.044399 0.032200
v -0.055230 -0.036542 0.029669
v -0.055230 -0.029712 0.023400
v -0.051012 -0.026519 0.015788
v -0.044185 -0.028181 0.009740
v -0.037359 -0.034065 0.007566
v -0.033140 -0.041923 0.010097
v -0.033140 -0.048752 0.016366
v -0.037359 -0.051946 0.023978
v -0.060423 -0.063714 0.015393
v -0.067249 -0.057830 0.017567
v -0.071468 -0.049973 0.015036
v -0.071468 -0.043143 0.008767
v -0.067249 -0.039950 0.001155
v -0.060423 -0.041613 -0.004893
v -0.053597 -0.047497 -0.007067
v -0.049378 -0.055354 -0.004536
v -0.049378 -0.062184 0.001732
v -0.053597 -0.065377 0.009345
v -0.037136 0.032262 0.074875
v -0.045580 0.032780 0.071084
v -0.050799 0.037444 0.065005
v -0.050799 0.044473 0.058960
v -0.045580 0.051181 0.055259
v -0.037136 0.055008 0.055314
v -0.028692 0.054490 0.059106
v -0.023474 0.049826 0.065185
v -0.023474 0.042797 0.071230
v -0.028692 0.036088 0.074931
v -0.011155 -0.024120 0.009314
v -0.019599 -0.023603 0.005523
v -0.024818 -0.018939 -0.000556
v -0.024818 -0.011910 -0.006601
v -0.019599 -0.005201 -0.010302
v -0.011155 -0.001375 -0.010247
v -0.002711 -0.001892 -0.006455
v 0.002507 -0.006556 -0.000376
v 0.002507 -0.013585 0.005669
v -0.002711 -0.020294 0.009370
v -0.011155 -0.007920 0.013736
v -0.017559 -0.014580 0.012974
v -0.021517 -0.020540 0.007078
v -0.021517 -0.023523 -0.001699
v -0.017559 -0.022391 -0.010005
v -0.011155 -0.017575 -0.014668
v -0.004751 -0.010915 -0.013906
v -0.000794 -0.004955 -0.008011
v -0.000794 -0.001972 0.000767
v -0.004751 -0.003104 0.009073
v 0.002410 -0.021491 0.018349
v -0.003994 -0.028151 0.017587
v -0.007952 -0.034111 0.011692
v -0.007952 -0.037095 0.002914
v -0.003994 -0.035963 -0.005392
v 0.002410 -0.031147 -0.010055
v 0.008814 -0.024487 -0.009293
v 0.012772 -0.018527 -0.003397
v 0.012772 -0.015543 0.005380
v 0.008814 -0.016676 0.013686
v 0.002410 -0.011319 0.004055
v -0.006401 -0.014182 0.004397
v -0.011846 -0.021681 0.004644
v -0.011846 -0.030951 0.004701
v -0.006401 -0.038452 0.004547
v 0.002410 -0.041319 0.004240
v 0.011221 -0.038456 0.003897
v 0.016666 -0.030957 0.003650
v 0.016666 -0.021687 0.003593
v 0.011221 -0.014186 0.003747
v 0.003242 -0.011180 0.026617
v -0.005569 -0.014043 0.026959
v -0.011014 -0.021541 0.027206
v -0.011014 -0.030811 0.027264
v -0.005569 -0.038313 0.027109
v 0.003242 -0.041179 0.026802
v 0.012052 -0.038317 0.026460
v 0.017498 -0.030818 0.026213
v 0.017498 -0.021548 0.026156
v 0.012052 -0.014047 0.026310
v 0.003242 -0.013490 0.018712
v -0.004614 -0.018048 0.016852
v -0.009468 -0.025712 0.018758
v -0.009468 -0.033555 0.023700
v -0.004614 -0.038581 0.029793
v 0.003242 -0.038870 0.034707
v 0.011097 -0.034311 0.036567
v 0.015952 -0.026647 0.034662
v 0.015952 -0.018804 0.029719
v 0.011097 -0.013778 0.023627
v -0.008239 -0.001480 0.037767
v -0.016094 -0.006038 0.035908
v -0.020949 -0.013703 0.037813
v -0.020949 -0.021546 0.042756
v -0.016094 -0.026571 0.048848
v -0.008239 -0.026860 0.053763
v -0.000384 -0.022302 0.055623
v 0.004471 -0.014637 0.053717
v 0.004471 -0.006795 0.048774
v -0.000384 -0.001769 0.042682
v -0.037136 0.031099 0.073332
v -0.045210 0.031548 0.068799
v -0.050201 0.036614 0.062851
v -0.050201 0.044362 0.057761
v -0.045210 0.051832 0.055471
v -0.037136 0.056171 0.056858
v -0.029062 0.055721 0.061390
v -0.024072 0.050655 0.067338
v -0.024072 0.042908 0.072429
v -0.029062 0.035438 0.074719
v -0.001985 -0.012910 0.006357
v -0.010060 -0.012461 0.001824
v -0.015050 -0.007395 -0.004123
v -0.015050 0.000352 -0.009214
v -0.010060 0.007822 -0.011504
v -0.001985 0.012161 -0.010117
v 0.006089 0.011712 -0.005584
v 0.011079 0.006646 0.000363
v 0.011079 -0.001102 0.005454
v 0.006089 -0.008571 0.007744
v -0.001985 0.002008 0.012930
v -0.009144 -0.003528 0.010919
v -0.013569 -0.007860 0.004019
v -0.013569 -0.009332 -0.005134
v -0.009144 -0.007383 -0.013044
v -0.001985 -0.002757 -0.016690
v 0.005174 0.002779 -0.014679
v 0.009598 0.007111 -0.007779
v 0.009598 0.008583 0.001374
v 0.005174 0.006634 0.009284
v 0.014597 -0.020766 0.016593
v 0.007438 -0.026302 0.014583
v 0.003014 -0.030634 0.007683
v 0.003014 -0.032106 -0.001470
v 0.007438 -0.030157 -0.009380
v 0.014597 -0.025531 -0.013026
v 0.021756 -0.019995 -0.011015
v 0.026180 -0.015663 -0.004115
v 0.026180 -0.014191 0.005038
v 0.021756 -0.016140 0.012948
v 0.014597 -0.008152 0.002120
v 0.005995 -0.010973 0.000124
v 0.000678 -0.018444 -0.001239
v 0.000678 -0.027712 -0.001446
v 0.005995 -0.035237 -0.000420
v 0.014597 -0.038145 0.001448
v 0.023199 -0.035324 0.003444
v 0.028516 -0.027852 0.004806
v 0.028516 -0.018584 0.005014
v 0.023199 -0.011059 0.003988
v 0.008930 -0.008717 0.027338
v 0.000327 -0.011538 0.025342
v -0.004989 -0.019009 0.023979
v -0.004989 -0.028278 0.023772
v 0.000327 -0.035802 0.024798
v 0.008930 -0.038710 0.026666
v 0.017532 -0.035889 0.028662
v 0.022849 -0.028418 0.030025
v 0.022849 -0.019150 0.030232
v 0.017532 -0.011625 0.029206
v 0.008930 -0.009380 0.022579
v 0.000697 -0.013048 0.020409
v -0.004391 -0.020790 0.020757
v -0.004391 -0.029648 0.023490
v 0.000697 -0.036240 0.027565
v 0.008930 -0.038047 0.031425
v 0.017163 -0.034379 0.033595
v 0.022251 -0.026637 0.033247
v 0.022251 -0.017779 0.030513
v 0.017163 -0.011187 0.026439
v 0.000149 -0.002625 0.044472
v -0.008084 -0.006292 0.042302
v -0.013172 -0.014034 0.042650
v -0.013172 -0.022892 0.045384
v -0.008084 -0.029484 0.049459
v 0.000149 -0.031291 0.053318
v 0.008382 -0.027623 0.055488
v 0.013470 -0.019881 0.055140
v 0.013470 -0.011023 0.052407
v 0.008382 -0.004431 0.048332
v -0.037136 0.030520 0.072375
v -0.044737 0.030856 0.067077
v -0.049434 0.036073 0.061023
v -0.049434 0.044178 0.056523
v -0.044737 0.052076 0.055298
v -0.037136 0.056750 0.057815
v -0.029536 0.056414 0.063113
v -0.024838 0.051197 0.069167
v -0.024838 0.043091 0.073666
v -0.029536 0.035193 0.074892
v 0.006937 -0.005860 0.006835
v -0.000664 -0.005524 0.001538
v -0.005361 -0.000307 -0.004517
v -0.005361 0.007799 -0.009016
v -0.000664 0.015697 -0.010241
v 0.006937 0.020370 -0.007725
v 0.014537 0.020034 -0.002427
v 0.019235 0.014817 0.003628
v 0.019235 0.006712 0.008127
v 0.014537 -0.001186 0.009352
v 0.006937 0.010761 0.014140
v 0.000026 0.004768 0.012634
v -0.004244 -0.000275 0.006133
v -0.004244 -0.002442 -0.002881
v 0.000026 -0.000905 -0.010964
v 0.006937 0.003749 -0.015029
v 0.013847 0.009743 -0.013524
v 0.018118 0.014786 -0.007022
v 0.018118 0.016953 0.001991
v 0.013847 0.015416 0.010075
v 0.020570 -0.005967 0.018161
v 0.013659 -0.011961 0.016656
v 0.009388 -0.017004 0.010154
v 0.009388 -0.019171 0.001141
v 0.013659 -0.017634 -0.006943
v 0.020570 -0.012979 -0.011008
v 0.027480 -0.006986 -0.009502
v 0.031751 -0.001942 -0.003001
v 0.031751 0.000224 0.006013
v 0.027480 -0.001313 0.014096
v 0.020570 0.005448 0.005108
v 0.011860 0.002739 0.003449
v 0.006478 -0.004635 0.001838
v 0.006478 -0.013857 0.000892
v 0.011860 -0.021405 0.000971
v 0.020570 -0.024395 0.002045
v 0.029279 -0.021685 0.003705
v 0.034661 -0.014311 0.005315
v 0.034661 -0.005089 0.006261
v 0.029279 0.002458 0.006182
v 0.017299 0.003332 0.025728
v 0.008590 0.000623 0.024069
v 0.003208 -0.006751 0.022459
v 0.003208 -0.015973 0.021512
v 0.008590 -0.023521 0.021591
v 0.017299 -0.026511 0.022666
v 0.026008 -0.023801 0.024325
v 0.031391 -0.016427 0.025935
v 0.031391 -0.007205 0.026882
v 0.026008 0.000342 0.026803
v 0.017299 0.002823 0.020041
v 0.009178 -0.000880 0.017536
v 0.004159 -0.008674 0.017576
v 0.004159 -0.017582 0.020145
v 0.009178 -0.024201 0.024261
v 0.017299 -0.026002 0.028353
v 0.025421 -0.022298 0.030857
v 0.030440 -0.014504 0.030818
v 0.030440 -0.005597 0.028249
v 0.025421 0.001022 0.024132
v 0.009076 0.008214 0.038735
v 0.000955 0.004511 0.036231
v -0.004064 -0.003283 0.036271
v -0.004064 -0.012191 0.038840
v 0.000955 -0.018809 0.042956
v 0.009076 -0.020611 0.047048
v 0.017197 -0.016907 0.049552
v 0.022216 -0.009113 0.049512
v 0.022216 -0.000206 0.046944
v 0.017197 0.006413 0.042827
v -0.037136 0.030134 0.071631
v -0.044115 0.030364 0.065533
v -0.048428 0.035664 0.059267
v -0.048428 0.044008 0.055228
v -0.044115 0.052210 0.054957
v -0.037136 0.057136 0.058559
v -0.030158 0.056905 0.064657
v -0.025845 0.051606 0.070923
v -0.025845 0.043262 0.074962
v -0.030158 0.035060 0.075233
v 0.008287 0.004501 0.018682
v 0.001309 0.004731 0.012583
v -0.003004 0.010031 0.006318
v -0.003004 0.018375 0.002278
v 0.001309 0.026577 0.002008
v 0.008287 0.031503 0.005610
v 0.015266 0.031272 0.011708
v 0.019579 0.025973 0.017973
v 0.019579 0.017629 0.022013
v 0.015266 0.009427 0.022283
v 0.009980 0.018002 0.027050
v 0.006223 0.009891 0.024593
v 0.003255 0.004878 0.017383
v 0.002208 0.004878 0.008171
v 0.003484 0.009891 0.000478
v 0.006594 0.018002 -0.002758
v 0.010351 0.026113 -0.000302
v 0.013320 0.031126 0.006909
v 0.014366 0.031126 0.016120
v 0.013091 0.026113 0.023813
v 0.032026 0.008549 0.024545
v 0.028269 0.000438 0.022089
v 0.025300 -0.004575 0.014878
v 0.024254 -0.004575 0.005667
v 0.025529 0.000438 -0.002027
v 0.028640 0.008549 -0.005263
v 0.032397 0.016660 -0.002807
v 0.035365 0.021673 0.004404
v 0.036412 0.021673 0.013615
v 0.035136 0.016660 0.021309
v 0.030333 0.015621 0.022869
v 0.025023 0.008064 0.023661
v 0.021741 0.000692 0.019098
v 0.021741 -0.003679 0.010923
v 0.025023 -0.003380 0.002258
v 0.030333 0.001477 -0.003587
v 0.035643 0.009034 -0.004379
v 0.038925 0.016406 0.000184
v 0.038925 0.020777 0.008359
v 0.035643 0.020477 0.017024
v 0.049739 0.002709 0.029773
v 0.044429 -0.004848 0.030565
v 0.041147 -0.012221 0.026002
v 0.041147 -0.016592 0.017826
v 0.044429 -0.016292 0.009161
v 0.049739 -0.011436 0.003317
v 0.055049 -0.003878 0.002524
v 0.058331 0.003494 0.007087
v 0.058331 0.007865 0.015263
v 0.055049 0.007565 0.023928
v 0.049739 -0.001886 0.031339
v 0.045079 -0.009741 0.029749
v 0.042199 -0.015542 0.023116
v 0.042199 -0.017073 0.013973
v 0.045079 -0.013749 0.005812
v 0.049739 -0.006841 0.001751
v 0.054399 0.001014 0.003340
v 0.057280 0.006815 0.009973
v 0.057280 0.008346 0.019116
v 0.054399 0.005023 0.027277
v 0.065036 -0.011280 0.032912
v 0.060376 -0.019135 0.031322
v 0.057496 -0.024936 0.024689
v 0.057496 -0.026467 0.015546
v 0.060376 -0.023143 0.007385
v 0.065036 -0.016234 0.003324
v 0.069696 -0.008380 0.004913
v 0.072577 -0.002579 0.011546
v 0.072577 -0.001048 0.020689
v 0.069696 -0.004371 0.028850
v 0.029008 0.024973 0.105275
v 0.020373 0.025510 0.101944
v 0.015037 0.029606 0.095565
v 0.015037 0.035697 0.088575
v 0.020373 0.041455 0.083645
v 0.029008 0.044682 0.082657
v 0.037642 0.044145 0.085989
v 0.042979 0.040049 0.092367
v 0.042979 0.033958 0.099357
v 0.037642 0.028200 0.104287
v 0.038041 -0.007997 0.076546
v 0.029407 -0.007460 0.073215
v 0.024071 -0.003364 0.066836
v 0.024071 0.002727 0.059847
v 0.029407 0.008485 0.054916
v 0.038041 0.011712 0.053928
v 0.046676 0.011174 0.057260
v 0.052012 0.007078 0.063638
v 0.052012 0.000988 0.070628
v 0.046676 -0.004770 0.075558
v 0.038041 -0.006178 0.077903
v 0.029300 -0.005615 0.074868
v 0.023898 -0.002198 0.068154
v 0.023898 0.002768 0.060326
v 0.029300 0.007386 0.054373
v 0.038041 0.009893 0.052571
v 0.046783 0.009330 0.055606
v 0.052185 0.005913 0.062321
v 0.052185 0.000947 0.070149
v 0.046783 -0.003672 0.076101
v 0.042713 -0.036141 0.058895
v 0.033972 -0.035578 0.055860
v 0.028569 -0.032161 0.049146
v 0.028569 -0.027195 0.041317
v 0.033972 -0.022577 0.035365
v 0.042713 -0.020070 0.033563
v 0.051454 -0.020633 0.036598
v 0.056857 -0.024050 0.043312
v 0.056857 -0.029016 0.051141
v 0.051454 -0.033635 0.057093
v 0.042713 -0.040311 0.054949
v 0.033900 -0.038133 0.053069
v 0.028454 -0.032125 0.048576
v 0.028454 -0.024582 0.043187
v 0.033900 -0.018385 0.038960
v 0.042713 -0.015900 0.037510
v 0.051526 -0.018078 0.039389
v 0.056973 -0.024086 0.043882
v 0.056973 -0.031629 0.049271
v 0.051526 -0.037827 0.053498
v 0.043907 -0.063502 0.022486
v 0.035094 -0.061324 0.020607
v 0.029647 -0.055316 0.016114
v 0.029647 -0.047773 0.010725
v 0.035094 -0.041576 0.006498
v 0.043907 -0.039091 0.005047
v 0.052719 -0.041269 0.006927
v 0.058166 -0.047277 0.011419
v 0.058166 -0.054820 0.016808
v 0.052719 -0.061018 0.021036
v 0.043907 -0.063681 0.022230
v 0.035536 -0.062879 0.018326
v 0.030364 -0.057653 0.012681
v 0.030364 -0.049999 0.007450
v 0.035536 -0.042841 0.004632
v 0.043907 -0.038912 0.005303
v 0.052277 -0.039714 0.009207
v 0.057450 -0.044940 0.014853
v 0.057450 -0.052594 0.020084
v 0.052277 -0.059752 0.022902
v 0.051883 -0.077276 0.002338
v 0.043513 -0.076474 -0.001566
v 0.038340 -0.071248 -0.007212
v 0.038340 -0.063594 -0.012443
v 0.043513 -0.056436 -0.015261
v 0.051883 -0.052507 -0.014589
v 0.060253 -0.053309 -0.010685
v 0.065426 -0.058535 -0.005040
v 0.065426 -0.066189 0.000191
v 0.060253 -0.073347 0.003009
v 0.029008 0.021264 0.100372
v 0.020255 0.024307 0.100107
v 0.014845 0.031368 0.097496
v 0.014845 0.039751 0.093537
v 0.020255 0.046253 0.089742
v 0.029008 0.048391 0.087560
v 0.037761 0.045348 0.087826
v 0.043170 0.038287 0.090436
v 0.043170 0.029904 0.094395
v 0.037761 0.023402 0.098190
v 0.015366 -0.026863 -0.001529
v 0.006613 -0.023820 -0.001794
v 0.001203 -0.016758 -0.004405
v 0.001203 -0.008376 -0.008364
v 0.006613 -0.001874 -0.012159
v 0.015366 0.000264 -0.014340
v 0.024118 -0.002779 -0.014075
v 0.029528 -0.009840 -0.011464
v 0.029528 -0.018223 -0.007505
v 0.024118 -0.024725 -0.003710
v 0.015366 -0.010358 0.006774
v 0.007631 -0.006769 0.003135
v 0.002851 -0.005675 -0.004732
v 0.002851 -0.007492 -0.013823
v 0.007631 -0.011528 -0.020664
v 0.015366 -0.016240 -0.022644
v 0.023100 -0.019829 -0.019005
v 0.027880 -0.020923 -0.011137
v 0.027880 -0.019106 -0.002047
v 0.023100 -0.015070 0.004795
v 0.002513 -0.033388 0.011379
v -0.005221 -0.029799 0.007740
v -0.010001 -0.028704 -0.000128
v -0.010001 -0.030522 -0.009218
v -0.005221 -0.034558 -0.016060
v 0.002513 -0.039270 -0.018039
v 0.010248 -0.042858 -0.014400
v 0.015028 -0.043953 -0.006533
v 0.015028 -0.042136 0.002558
v 0.010248 -0.038100 0.009399
v 0.002513 -0.021390 -0.001980
v -0.006252 -0.024157 -0.003184
v -0.011669 -0.031574 -0.004445
v -0.011669 -0.040807 -0.005279
v -0.006252 -0.048329 -0.005369
v 0.002513 -0.051268 -0.004681
v 0.011279 -0.048500 -0.003476
v 0.016696 -0.041084 -0.002215
v 0.016696 -0.031851 -0.001381
v 0.011279 -0.024328 -0.001291
v -0.000695 -0.024053 0.027481
v -0.009460 -0.026820 0.026276
v -0.014878 -0.034237 0.025016
v -0.014878 -0.043470 0.024181
v -0.009460 -0.050992 0.024091
v -0.000695 -0.053931 0.024780
v 0.008070 -0.051164 0.025985
v 0.013488 -0.043747 0.027245
v 0.013488 -0.034514 0.028080
v 0.008070 -0.026992 0.028170
v -0.000695 -0.025669 0.019239
v -0.009109 -0.027002 0.022896
v -0.014309 -0.032916 0.027788
v -0.014309 -0.041150 0.032047
v -0.009109 -0.048560 0.034046
v -0.000695 -0.052315 0.033022
v 0.007719 -0.050981 0.029365
v 0.012919 -0.045068 0.024473
v 0.012919 -0.036834 0.020214
v 0.007719 -0.029424 0.018215
v 0.008214 -0.012601 0.044504
v -0.000200 -0.013935 0.048161
v -0.005400 -0.019848 0.053053
v -0.005400 -0.028083 0.057312
v -0.000200 -0.035493 0.059311
v 0.008214 -0.039248 0.058287
v 0.016628 -0.037914 0.054630
v 0.021828 -0.032000 0.049738
v 0.021828 -0.023766 0.045479
v 0.016628 -0.016356 0.043480
v 0.029008 0.020613 0.098755
v 0.020512 0.024080 0.100075
v 0.015262 0.031653 0.099062
v 0.015262 0.040438 0.096102
v 0.020512 0.047080 0.092326
v 0.029008 0.049042 0.089177
v 0.037503 0.045575 0.087857
v 0.042754 0.038002 0.088871
v 0.042754 0.029217 0.091830
v 0.037503 0.022575 0.095606
v -0.000019 -0.012777 -0.000351
v -0.008515 -0.009309 0.000969
v -0.013765 -0.001736 -0.000045
v -0.013765 0.007049 -0.003004
v -0.008515 0.013691 -0.006780
v -0.000019 0.015653 -0.009929
v 0.008477 0.012185 -0.011249
v 0.013727 0.004613 -0.010236
v 0.013727 -0.004173 -0.007276
v 0.008477 -0.010815 -0.003500
v -0.000019 0.005109 0.009404
v -0.007622 0.008736 0.005534
v -0.012321 0.009576 -0.002413
v -0.012321 0.007307 -0.011402
v -0.007622 0.002797 -0.017999
v -0.000019 -0.002232 -0.019684
v 0.007584 -0.005860 -0.015814
v 0.012283 -0.006700 -0.007867
v 0.012283 -0.004431 0.001122
v 0.007584 0.000079 0.007719
v -0.020318 -0.028413 0.017864
v -0.027921 -0.024786 0.013994
v -0.032620 -0.023946 0.006047
v -0.032620 -0.026215 -0.002942
v -0.027921 -0.030725 -0.009539
v -0.020318 -0.035754 -0.011224
v -0.012715 -0.039382 -0.007354
v -0.008016 -0.040222 0.000593
v -0.008016 -0.037953 0.009582
v -0.012715 -0.033443 0.016179
v -0.020318 -0.017085 0.003146
v -0.029079 -0.019938 0.004170
v -0.034494 -0.027430 0.004870
v -0.034494 -0.036700 0.004977
v -0.029079 -0.044207 0.004451
v -0.020318 -0.047083 0.003494
v -0.011557 -0.044230 0.002470
v -0.006143 -0.036737 0.001770
v -0.006143 -0.027467 0.001663
v -0.011557 -0.019961 0.002188
v -0.016807 -0.016725 0.034189
v -0.025568 -0.019578 0.035214
v -0.030982 -0.027071 0.035913
v -0.030982 -0.036340 0.036020
v -0.025568 -0.043847 0.035495
v -0.016807 -0.046723 0.034537
v -0.008046 -0.043870 0.033513
v -0.002631 -0.036378 0.032814
v -0.002631 -0.027108 0.032706
v -0.008046 -0.019601 0.033232
v -0.016807 -0.016890 0.032137
v -0.025559 -0.019565 0.033617
v -0.030968 -0.026884 0.035381
v -0.030968 -0.036052 0.036757
v -0.025559 -0.043567 0.037218
v -0.016807 -0.046558 0.036589
v -0.008055 -0.043883 0.035110
v -0.002646 -0.036564 0.033345
v -0.002646 -0.027396 0.031969
v -0.008055 -0.019881 0.031508
v -0.013471 -0.012826 0.059219
v -0.022223 -0.015501 0.060699
v -0.027632 -0.022820 0.062463
v -0.027632 -0.031988 0.063839
v -0.022223 -0.039503 0.064300
v -0.013471 -0.042494 0.063671
v -0.004719 -0.039820 0.062191
v 0.000690 -0.032500 0.060427
v 0.000690 -0.023332 0.059051
v -0.004719 -0.015818 0.058590
v 0.029008 0.020407 0.098096
v 0.020895 0.024112 0.100626
v 0.015881 0.031909 0.100613
v 0.015881 0.040822 0.098061
v 0.020895 0.047444 0.093945
v 0.029008 0.049248 0.089837
v 0.037120 0.045543 0.087306
v 0.042134 0.037746 0.087319
v 0.042134 0.028833 0.089872
v 0.037120 0.022211 0.093988
v -0.010549 -0.005180 0.008743
v -0.018661 -0.001476 0.011274
v -0.023675 0.006322 0.011260
v -0.023675 0.015234 0.008708
v -0.018661 0.021857 0.004592
v -0.010549 0.023660 0.000484
v -0.002436 0.019956 -0.002047
v 0.002578 0.012158 -0.002033
v 0.002578 0.003246 0.000519
v -0.002436 -0.003377 0.004635
v -0.010549 0.012221 0.019314
v -0.018171 0.015994 0.015626
v -0.022883 0.017187 0.007732
v -0.022883 0.015345 -0.001354
v -0.018171 0.011171 -0.008160
v -0.010549 0.006259 -0.010087
v -0.002926 0.002486 -0.006399
v 0.001785 0.001293 0.001495
v 0.001785 0.003135 0.010581
v -0.002926 0.007309 0.017387
v -0.028741 -0.018453 0.025534
v -0.036363 -0.014679 0.021846
v -0.041074 -0.013486 0.013951
v -0.041074 -0.015328 0.004865
v -0.036363 -0.019502 -0.001941
v -0.028741 -0.024414 -0.003868
v -0.021118 -0.028187 -0.000180
v -0.016407 -0.029380 0.007715
v -0.016407 -0.027538 0.016800
v -0.021118 -0.023364 0.023607
v -0.028741 -0.006452 0.011584
v -0.037307 -0.009418 0.013525
v -0.042601 -0.016973 0.014437
v -0.042601 -0.026232 0.013973
v -0.037307 -0.033658 0.012309
v -0.028741 -0.036414 0.010082
v -0.020175 -0.033449 0.008141
v -0.014880 -0.025894 0.007229
v -0.014880 -0.016635 0.007693
v -0.020175 -0.009209 0.009356
v -0.021974 -0.007843 0.039328
v -0.030540 -0.010809 0.041268
v -0.035835 -0.018364 0.042181
v -0.035835 -0.027623 0.041717
v -0.030540 -0.035049 0.040053
v -0.021974 -0.037805 0.037826
v -0.013408 -0.034840 0.035885
v -0.008114 -0.027285 0.034973
v -0.008114 -0.018026 0.035437
v -0.013408 -0.010600 0.037100
v -0.021974 -0.008088 0.035775
v -0.030354 -0.010390 0.039003
v -0.035533 -0.017442 0.042069
v -0.035533 -0.026549 0.043801
v -0.030354 -0.034234 0.043537
v -0.021974 -0.037560 0.041379
v -0.013595 -0.035258 0.038150
v -0.008416 -0.028207 0.035084
v -0.008416 -0.019099 0.033352
v -0.013595 -0.011415 0.033616
v -0.014659 -0.003912 0.057738
v -0.023038 -0.006214 0.060967
v -0.028217 -0.013265 0.064033
v -0.028217 -0.022372 0.065765
v -0.023038 -0.030057 0.065501
v -0.014659 -0.033384 0.063342
v -0.006279 -0.031081 0.060114
v -0.001100 -0.024030 0.057048
v -0.001100 -0.014923 0.055316
v -0.006279 -0.007238 0.055580
v 0.029008 0.020200 0.097289
v 0.021685 0.024082 0.101443
v 0.017159 0.032067 0.102740
v 0.017159 0.041108 0.100687
v 0.021685 0.047749 0.096066
v 0.029008 0.049455 0.090643
v 0.036331 0.045573 0.086490
v 0.040857 0.037588 0.085192
v 0.040857 0.028547 0.087246
v 0.036331 0.021906 0.091866
v -0.018416 0.004532 0.028320
v -0.025739 0.008413 0.032473
v -0.030265 0.016399 0.033771
v -0.030265 0.025439 0.031717
v -0.025739 0.032081 0.027097
v -0.018416 0.033787 0.021674
v -0.011093 0.029905 0.017520
v -0.006567 0.021919 0.016223
v -0.006567 0.012879 0.018276
v -0.011093 0.006238 0.022897
v -0.018416 0.018027 0.039954
v -0.022808 0.025866 0.037675
v -0.025522 0.031144 0.030553
v -0.025522 0.031844 0.021309
v -0.022808 0.027699 0.013474
v -0.018416 0.020292 0.010040
v -0.014025 0.012452 0.012319
v -0.011310 0.007174 0.019441
v -0.011310 0.006474 0.028685
v -0.014025 0.010619 0.036520
v -0.042218 0.004394 0.038922
v -0.046610 0.012233 0.036642
v -0.049324 0.017511 0.029521
v -0.049324 0.018211 0.020277
v -0.046610 0.014066 0.012441
v -0.042218 0.006659 0.009007
v -0.037827 -0.001181 0.011287
v -0.035112 -0.006459 0.018408
v -0.035112 -0.007159 0.027652
v -0.037827 -0.003014 0.035488
v -0.042218 0.012661 0.037159
v -0.048961 0.016296 0.031937
v -0.053128 0.015817 0.023669
v -0.053128 0.011407 0.015515
v -0.048961 0.004751 0.010588
v -0.042218 -0.001609 0.010770
v -0.035476 -0.005243 0.015992
v -0.031308 -0.004764 0.024260
v -0.031308 -0.000354 0.032414
v -0.035476 0.006302 0.037341
v -0.057096 -0.002871 0.045558
v -0.063838 0.000764 0.040336
v -0.068006 0.000284 0.032069
v -0.068006 -0.004126 0.023914
v -0.063838 -0.010782 0.018987
v -0.057096 -0.017141 0.019170
v -0.050353 -0.020776 0.024392
v -0.046186 -0.020296 0.032659
v -0.046186 -0.015887 0.040814
v -0.050353 -0.009231 0.045741
v -0.057096 -0.006743 0.047005
v -0.062834 -0.000833 0.042753
v -0.066381 0.001573 0.034533
v -0.066381 -0.000443 0.025484
v -0.062834 -0.006112 0.019063
v -0.057096 -0.013269 0.017723
v -0.051357 -0.019179 0.021975
v -0.047811 -0.021585 0.030196
v -0.047811 -0.019569 0.039244
v -0.051357 -0.013900 0.045665
v -0.069481 -0.017107 0.049315
v -0.075220 -0.011197 0.045062
v -0.078766 -0.008791 0.036842
v -0.078766 -0.010807 0.027794
v -0.075220 -0.016476 0.021373
v -0.069481 -0.023633 0.020033
v -0.063743 -0.029543 0.024285
v -0.060196 -0.031950 0.032505
v -0.060196 -0.029933 0.041554
v -0.063743 -0.024264 0.047974
f 1 2 13
f 2 14 13
f 2 3 14
f 3 15 14
f 3 4 15
f 4 16 15
f 4 5 16
f 5 17 16
f 5 6 17
f 6 18 17
f 6 7 18
f 7 19 18
f 7 8 19
f 8 20 19
f 8 9 20
f 9 21 20
f 9 10 21
f 10 22 21
f 10 11 22
f 11 23 22
f 11 12 23
f 12 24 23
f 13 14 25
f 14 26 25
f 14 15 26
f 15 27 26
f 15 16 27
f 16 28 27
f 16 17 28
f 17 29 28
f 17 18 29
f 18 30 29
f 18 19 30
f 19 31 30
f 19 20 31
f 20 32 31
f 20 21 32
f 21 33 32
f 21 22 33
f 22 34 33
f 22 23 34
f 23 35 34
f 23 24 35
f 24 36 35
f 25 26 37
f 26 38 37
f 26 27 38
f 27 39 38
f 27 28 39
f 28 40 39
f 28 29 40
f 29 41 40
f 29 30 41
f 30 42 41
f 30 31 42
f 31 43 42
f 31 32 43
f 32 44 43
f 32 33 44
f 33 45 44
f 33 34 45
f 34 46 45
f 34 35 46
f 35 47 46
f 35 36 47
f 36 48 47
f 37 38 49
f 38 50 49
f 38 39 50
f 39 51 50
f 39 40 51
f 40 52 51
f 40 41 52
f 41 53 52
f 41 42 53
f 42 54 53
f 42 43 54
f 43 55 54
f 43 44 55
f 44 56 55
f 44 45 56
f 45 57 56
f 45 46 57
f 46 58 57
f 46 47 58
f 47 59 58
f 47 48 59
f 48 60 59
f 49 50 61
f 50 62 61
f 50 51 62
f 51 63 62
f 51 52 63
f 52 64 63
f 52 53 64
f 53 65 64
f 53 54 65
f 54 66 65
f 54 55 66
f 55 67 66
f 55 56 67
f 56 68 67
f 56 57 68
f 57 69 68
f 57 58 69
f 58 70 69
f 58 59 70
f 59 71 70
f 59 60 71
f 60 72 71
f 61 62 73
f 62 74 73
f 62 63 74
f 63 75 74
f 63 64 75
f 64 76 75
f 64 65 76
f 65 77 76
f 65 66 77
f 66 78 77
f 66 67 78
f 67 79 78
f 67 68 79
f 68 80 79
f 68 69 80
f 69 81 80
f 69 70 81
f 70 82 81
f 70 71 82
f 71 83 82
f 71 72 83
f 72 84 83
f 73 74 85
f 74 86 85
f 74 75 86
f 75 87 86
f 75 76 87
f 76 88 87
f 76 77 88
f 77 89 88
f 77 78 89
f 78 90 89
f 78 79 90
f 79 91 90
f 79 80 91
f 80 92 91
f 80 81 92
f 81 93 92
f 81 82 93
f 82 94 93
f 82 83 94
f 83 95 94
f 83 84 95
f 84 96 95
f 85 86 97
f 86 98 97
f 86 87 98
f 87 99 98
f 87 88 99
f 88 100 99
f 88 89 100
f 89 101 100
f 89 90 101
f 90 102 101
f 90 91 102
f 91 103 102
f 91 92 103
f 92 104 103
f 92 93 104
f 93 105 104
f 93 94 105
f 94 106 105
f 94 95 106
f 95 107 106
f 95 96 107
f 96 108 107
f 97 98 109
f 98 110 109
f 98 99 110
f 99 111 110
f 99 100 111
f 100 112 111
f 100 101 112
f 101 113 112
f 101 102 113
f 102 114 113
f 102 103 114
f 103 115 114
f 103 104 115
f 104 116 115
f 104 105 116
f 105 117 116
f 105 106 117
f 106 118 117
f 106 107 118
f 107 119 118
f 107 108 119
f 108 120 119
f 109 110 121
f 110 122 121
f 110 111 122
f 111 123 122
f 111 112 123
f 112 124 123
f 112 113 124
f 113 125 124
f 113 114 125
f 114 126 125
f 114 115 126
f 115 127 126
f 115 116 127
f 116 128 127
f 116 117 128
f 117 129 128
f 117 118 129
f 118 130 129
f 118 119 130
f 119 131 130
f 119 120 131
f 120 132 131
f 121 122 133
f 122 134 133
f 122 123 134
f 123 135 134
f 123 124 135
f 124 136 135
f 124 125 136
f 125 137 136
f 125 126 137
f 126 138 137
f 126 127 138
f 127 139 138
f 127 128 139
f 128 140 139
f 128 129 140
f 129 141 140
f 129 130 141
f 130 142 141
f 130 131 142
f 131 143 142
f 131 132 143
f 132 144 143
f 145 146 155
f 146 156 155
f 146 147 156
f 147 157 156
f 147 148 157
f 148 158 157
f 148 149 158
f 149 159 158
f 149 150 159
f 150 160 159
f 150 151 160
f 151 161 160
f 151 152 161
f 152 162 161
f 152 153 162
f 153 163 162
f 153 154 163
f 154 164 163
f 154 145 164
f 145 155 164
f 165 166 175
f 166 176 175
f 166 167 176
f 167 177 176
f 167 168 177
f 168 178 177
f 168 169 178
f 169 179 178
f 169 170 179
f 170 180 179
f 170 171 180
f 171 181 180
f 171 172 181
f 172 182 181
f 172 173 182
f 173 183 182
f 173 174 183
f 174 184 183
f 174 165 184
f 165 175 184
f 185 186 195
f 186 196 195
f 186 187 196
f 187 197 196
f 187 188 197
f 188 198 197
f 188 189 198
f 189 199 198
f 189 190 199
f 190 200 199
f 190 191 200
f 191 201 200
f 191 192 201
f 192 202 201
f 192 193 202
f 193 203 202
f 193 194 203
f 194 204 203
f 194 185 204
f 185 195 204
f 205 206 215
f 206 216 215
f 206 207 216
f 207 217 216
f 207 208 217
f 208 218 217
f 208 209 218
f 209 219 218
f 209 210 219
f 210 220 219
f 210 211 220
f 211 221 220
f 211 212 221
f 212 222 221
f 212 213 222
f 213 223 222
f 213 214 223
f 214 224 223
f 214 205 224
f 205 215 224
f 225 226 235
f 226 236 235
f 226 227 236
f 227 237 236
f 227 228 237
f 228 238 237
f 228 229 238
f 229 239 238
f 229 230 239
f 230 240 239
f 230 231 240
f 231 241 240
f 231 232 241
f 232 242 241
f 232 233 242
f 233 243 242
f 233 234 243
f 234 244 243
f 234 225 244
f 225 235 244
f 245 246 255
f 246 256 255
f 246 247 256
f 247 257 256
f 247 248 257
f 248 258 257
f 248 249 258
f 249 259 258
f 249 250 259
f 250 260 259
f 250 251 260
f 251 261 260
f 251 252 261
f 252 262 261
f 252 253 262
f 253 263 262
f 253 254 263
f 254 264 263
f 254 245 264
f 245 255 264
f 265 266 275
f 266 276 275
f 266 267 276
f 267 277 276
f 267 268 277
f 268 278 277
f 268 269 278
f 269 279 278
f 269 270 279
f 270 280 279
f 270 271 280
f 271 281 280
f 271 272 281
f 272 282 281
f 272 273 282
f 273 283 282
f 273 274 283
f 274 284 283
f 274 265 284
f 265 275 284
f 285 286 295
f 286 296 295
f 286 287 296
f 287 297 296
f 287 288 297
f 288 298 297
f 288 289 298
f 289 299 298
f 289 290 299
f 290 300 299
f 290 291 300
f 291 301 300
f 291 292 301
f 292 302 301
f 292 293 302
f 293 303 302
f 293 294 303
f 294 304 303
f 294 285 304
f 285 295 304
f 305 306 315
f 306 316 315
f 306 307 316
f 307 317 316
f 307 308 317
f 308 318 317
f 308 309 318
f 309 319 318
f 309 310 319
f 310 320 319
f 310 311 320
f 311 321 320
f 311 312 321
f 312 322 321
f 312 313 322
f 313 323 322
f 313 314 323
f 314 324 323
f 314 305 324
f 305 315 324
f 325 326 335
f 326 336 335
f 326 327 336
f 327 337 336
f 327 328 337
f 328 338 337
f 328 329 338
f 329 339 338
f 329 330 339
f 330 340 339
f 330 331 340
f 331 341 340
f 331 332 341
f 332 342 341
f 332 333 342
f 333 343 342
f 333 334 343
f 334 344 343
f 334 325 344
f 325 335 344
f 345 346 355
f 346 356 355
f 346 347 356
f 347 357 356
f 347 348 357
f 348 358 357
f 348 349 358
f 349 359 358
f 349 350 359
f 350 360 359
f 350 351 360
f 351 361 360
f 351 352 361
f 352 362 361
f 352 353 362
f 353 363 362
f 353 354 363
f 354 364 363
f 354 345 364
f 345 355 364
f 365 366 375
f 366 376 375
f 366 367 376
f 367 377 376
f 367 368 377
f 368 378 377
f 368 369 378
f 369 379 378
f 369 370 379
f 370 380 379
f 370 371 380
f 371 381 380
f 371 372 381
f 372 382 381
f 372 373 382
f 373 383 382
f 373 374 383
f 374 384 383
f 374 365 384
f 365 375 384
f 385 386 395
f 386 396 395
f 386 387 396
f 387 397 396
f 387 388 397
f 388 398 397
f 388 389 398
f 389 399 398
f 389 390 399
f 390 400 399
f 390 391 400
f 391 401 400
f 391 392 401
f 392 402 401
f 392 393 402
f 393 403 402
f 393 394 403
f 394 404 403
f 394 385 404
f 385 395 404
f 405 406 415
f 406 416 415
f 406 407 416
f 407 417 416
f 407 408 417
f 408 418 417
f 408 409 418
f 409 419 418
f 409 410 419
f 410 420 419
f 410 411 420
f 411 421 420
f 411 412 421
f 412 422 421
f 412 413 422
f 413 423 422
f 413 414 423
f 414 424 423
f 414 405 424
f 405 415 424
f 425 426 435
f 426 436 435
f 426 427 436
f 427 437 436
f 427 428 437
f 428 438 437
f 428 429 438
f 429 439 438
f 429 430 439
f 430 440 439
f 430 431 440
f 431 441 440
f 431 432 441
f 432 442 441
f 432 433 442
f 433 443 442
f 433 434 443
f 434 444 443
f 434 425 444
f 425 435 444
f 445 446 455
f 446 456 455
f 446 447 456
f 447 457 456
f 447 448 457
f 448 458 457
f 448 449 458
f 449 459 458
f 449 450 459
f 450 460 459
f 450 451 460
f 451 461 460
f 451 452 461
f 452 462 461
f 452 453 462
f 453 463 462
f 453 454 463
f 454 464 463
f 454 445 464
f 445 455 464
f 465 466 475
f 466 476 475
f 466 467 476
f 467 477 476
f 467 468 477
f 468 478 477
f 468 469 478
f 469 479 478
f 469 470 479
f 470 480 479
f 470 471 480
f 471 481 480
f 471 472 481
f 472 482 481
f 472 473 482
f 473 483 482
f 473 474 483
f 474 484 483
f 474 465 484
f 465 475 484
f 485 486 495
f 486 496 495
f 486 487 496
f 487 497 496
f 487 488 497
f 488 498 497
f 488 489 498
f 489 499 498
f 489 490 499
f 490 500 499
f 490 491 500
f 491 501 500
f 491 492 501
f 492 502 501
f 492 493 502
f 493 503 502
f 493 494 503
f 494 504 503
f 494 485 504
f 485 495 504
f 505 506 515
f 506 516 515
f 506 507 516
f 507 517 516
f 507 508 517
f 508 518 517
f 508 509 518
f 509 519 518
f 509 510 519
f 510 520 519
f 510 511 520
f 511 521 520
f 511 512 521
f 512 522 521
f 512 513 522
f 513 523 522
f 513 514 523
f 514 524 523
f 514 505 524
f 505 515 524
f 525 526 535
f 526 536 535
f 526 527 536
f 527 537 536
f 527 528 537
f 528 538 537
f 528 529 538
f 529 539 538
f 529 530 539
f 530 540 539
f 530 531 540
f 531 541 540
f 531 532 541
f 532 542 541
f 532 533 542
f 533 543 542
f 533 534 543
f 534 544 543
f 534 525 544
f 525 535 544
f 545 546 555
f 546 556 555
f 546 547 556
f 547 557 556
f 547 548 557
f 548 558 557
f 548 549 558
f 549 559 558
f 549 550 559
f 550 560 559
f 550 551 560
f 551 561 560
f 551 552 561
f 552 562 561
f 552 553 562
f 553 563 562
f 553 554 563
f 554 564 563
f 554 545 564
f 545 555 564
f 565 566 575
f 566 576 575
f 566 567 576
f 567 577 576
f 567 568 577
f 568 578 577
f 568 569 578
f 569 579 578
f 569 570 579
f 570 580 579
f 570 571 580
f 571 581 580
f 571 572 581
f 572 582 581
f 572 573 582
f 573 583 582
f 573 574 583
f 574 584 583
f 574 565 584
f 565 575 584
f 585 586 595
f 586 596 595
f 586 587 596
f 587 597 596
f 587 588 597
f 588 598 597
f 588 589 598
f 589 599 598
f 589 590 599
f 590 600 599
f 590 591 600
f 591 601 600
f 591 592 601
f 592 602 601
f 592 593 602
f 593 603 602
f 593 594 603
f 594 604 603
f 594 585 604
f 585 595 604
f 605 606 615
f 606 616 615
f 606 607 616
f 607 617 616
f 607 608 617
f 608 618 617
f 608 609 618
f 609 619 618
f 609 610 619
f 610 620 619
f 610 611 620
f 611 621 620
f 611 612 621
f 612 622 621
f 612 613 622
f 613 623 622
f 613 614 623
f 614 624 623
f 614 605 624
f 605 615 624
f 625 626 635
f 626 636 635
f 626 627 636
f 627 637 636
f 627 628 637
f 628 638 637
f 628 629 638
f 629 639 638
f 629 630 639
f 630 640 639
f 630 631 640
f 631 641 640
f 631 632 641
f 632 642 641
f 632 633 642
f 633 643 642
f 633 634 643
f 634 644 643
f 634 625 644
f 625 635 644
f 645 646 655
f 646 656 655
f 646 647 656
f 647 657 656
f 647 648 657
f 648 658 657
f 648 649 658
f 649 659 658
f 649 650 659
f 650 660 659
f 650 651 660
f 651 661 660
f 651 652 661
f 652 662 661
f 652 653 662
f 653 663 662
f 653 654 663
f 654 664 663
f 654 645 664
f 645 655 664
f 665 666 675
f 666 676 675
f 666 667 676
f 667 677 676
f 667 668 677
f 668 678 677
f 668 669 678
f 669 679 678
f 669 670 679
f 670 680 679
f 670 671 680
f 671 681 680
f 671 672 681
f 672 682 681
f 672 673 682
f 673 683 682
f 673 674 683
f 674 684 683
f 674 665 684
f 665 675 684
f 685 686 695
f 686 696 695
f 686 687 696
f 687 697 696
f 687 688 697
f 688 698 697
f 688 689 698
f 689 699 698
f 689 690 699
f 690 700 699
f 690 691 700
f 691 701 700
f 691 692 701
f 692 702 701
f 692 693 702
f 693 703 702
f 693 694 703
f 694 704 703
f 694 685 704
f 685 695 704
f 705 706 715
f 706 716 715
f 706 707 716
f 707 717 716
f 707 708 717
f 708 718 717
f 708 709 718
f 709 719 718
f 709 710 719
f 710 720 719
f 710 711 720
f 711 721 720
f 711 712 721
f 712 722 721
f 712 713 722
f 713 723 722
f 713 714 723
f 714 724 723
f 714 705 724
f 705 715 724
f 725 726 735
f 726 736 735
f 726 727 736
f 727 737 736
f 727 728 737
f 728 738 737
f 728 729 738
f 729 739 738
f 729 730 739
f 730 740 739
f 730 731 740
f 731 741 740
f 731 732 741
f 732 742 741
f 732 733 742
f 733 743 742
f 733 734 743
f 734 744 743
f 734 725 744
f 725 735 744
f 745 746 755
f 746 756 755
f 746 747 756
f 747 757 756
f 747 748 757
f 748 758 757
f 748 749 758
f 749 759 758
f 749 750 759
f 750 760 759
f 750 751 760
f 751 761 760
f 751 752 761
f 752 762 761
f 752 753 762
f 753 763 762
f 753 754 763
f 754 764 763
f 754 745 764
f 745 755 764
f 765 766 775
f 766 776 775
f 766 767 776
f 767 777 776
f 767 768 777
f 768 778 777
f 768 769 778
f 769 779 778
f 769 770 779
f 770 780 779
f 770 771 780
f 771 781 780
f 771 772 781
f 772 782 781
f 772 773 782
f 773 783 782
f 773 774 783
f 774 784 783
f 774 765 784
f 765 775 784
f 785 786 795
f 786 796 795
f 786 787 796
f 787 797 796
f 787 788 797
f 788 798 797
f 788 789 798
f 789 799 798
f 789 790 799
f 790 800 799
f 790 791 800
f 791 801 800
f 791 792 801
f 792 802 801
f 792 793 802
f 793 803 802
f 793 794 803
f 794 804 803
f 794 785 804
f 785 795 804
f 805 806 815
f 806 816 815
f 806 807 816
f 807 817 816
f 807 808 817
f 808 818 817
f 808 809 818
f 809 819 818
f 809 810 819
f 810 820 819
f 810 811 820
f 811 821 820
f 811 812 821
f 812 822 821
f 812 813 822
f 813 823 822
f 813 814 823
f 814 824 823
f 814 805 824
f 805 815 824
f 825 826 835
f 826 836 835
f 826 827 836
f 827 837 836
f 827 828 837
f 828 838 837
f 828 829 838
f 829 839 838
f 829 830 839
f 830 840 839
f 830 831 840
f 831 841 840
f 831 832 841
f 832 842 841
f 832 833 842
f 833 843 842
f 833 834 843
f 834 844 843
f 834 825 844
f 825 835 844
f 845 846 855
f 846 856 855
f 846 847 856
f 847 857 856
f 847 848 857
f 848 858 857
f 848 849 858
f 849 859 858
f 849 850 859
f 850 860 859
f 850 851 860
f 851 861 860
f 851 852 861
f 852 862 861
f 852 853 862
f 853 863 862
f 853 854 863
f 854 864 863
f 854 845 864
f 845 855 864
f 865 866 875
f 866 876 875
f 866 867 876
f 867 877 876
f 867 868 877
f 868 878 877
f 868 869 878
f 869 879 878
f 869 870 879
f 870 880 879
f 870 871 880
f 871 881 880
f 871 872 881
f 872 882 881
f 872 873 882
f 873 883 882
f 873 874 883
f 874 884 883
f 874 865 884
f 865 875 884
f 885 886 895
f 886 896 895
f 886 887 896
f 887 897 896
f 887 888 897
f 888 898 897
f 888 889 898
f 889 899 898
f 889 890 899
f 890 900 899
f 890 891 900
f 891 901 900
f 891 892 901
f 892 902 901
f 892 893 902
f 893 903 902
f 893 894 903
f 894 904 903
f 894 885 904
f 885 895 904
f 905 906 915
f 906 916 915
f 906 907 916
f 907 917 916
f 907 908 917
f 908 918 917
f 908 909 918
f 909 919 918
f 909 910 919
f 910 920 919
f 910 911 920
f 911 921 920
f 911 912 921
f 912 922 921
f 912 913 922
f 913 923 922
f 913 914 923
f 914 924 923
f 914 905 924
f 905 915 924
f 925 926 935
f 926 936 935
f 926 927 936
f 927 937 936
f 927 928 937
f 928 938 937
f 928 929 938
f 929 939 938
f 929 930 939
f 930 940 939
f 930 931 940
f 931 941 940
f 931 932 941
f 932 942 941
f 932 933 942
f 933 943 942
f 933 934 943
f 934 944 943
f 934 925 944
f 925 935 944
f 945 946 955
f 946 956 955
f 946 947 956
f 947 957 956
f 947 948 957
f 948 958 957
f 948 949 958
f 949 959 958
f 949 950 959
f 950 960 959
f 950 951 960
f 951 961 960
f 951 952 961
f 952 962 961
f 952 953 962
f 953 963 962
f 953 954 963
f 954 964 963
f 954 945 964
f 945 955 964
f 965 966 975
f 966 976 975
f 966 967 976
f 967 977 976
f 967 968 977
f 968 978 977
f 968 969 978
f 969 979 978
f 969 970 979
f 970 980 979
f 970 971 980
f 971 981 980
f 971 972 981
f 972 982 981
f 972 973 982
f 973 983 982
f 973 974 983
f 974 984 983
f 974 965 984
f 965 975 984
f 985 986 995
f 986 996 995
f 986 987 996
f 987 997 996
f 987 988 997
f 988 998 997
f 988 989 998
f 989 999 998
f 989 990 999
f 990 1000 999
f 990 991 1000
f 991 1001 1000
f 991 992 1001
f 992 1002 1001
f 992 993 1002
f 993 1003 1002
f 993 994 1003
f 994 1004 1003
f 994 985 1004
f 985 995 1004
f 1005 1006 1015
f 1006 1016 1015
f 1006 1007 1016
f 1007 1017 1016
f 1007 1008 1017
f 1008 1018 1017
f 1008 1009 1018
f 1009 1019 1018
f 1009 1010 1019
f 1010 1020 1019
f 1010 1011 1020
f 1011 1021 1020
f 1011 1012 1021
f 1012 1022 1021
f 1012 1013 1022
f 1013 1023 1022
f 1013 1014 1023
f 1014 1024 1023
f 1014 1005 1024
f 1005 1015 1024
f 1025 1026 1035
f 1026 1036 1035
f 1026 1027 1036
f 1027 1037 1036
f 1027 1028 1037
f 1028 1038 1037
f 1028 1029 1038
f 1029 1039 1038
f 1029 1030 1039
f 1030 1040 1039
f 1030 1031 1040
f 1031 1041 1040
f 1031 1032 1041
f 1032 1042 1041
f 1032 1033 1042
f 1033 1043 1042
f 1033 1034 1043
f 1034 1044 1043
f 1034 1025 1044
f 1025 1035 1044
f 1045 1046 1055
f 1046 1056 1055
f 1046 1047 1056
f 1047 1057 1056
f 1047 1048 1057
f 1048 1058 1057
f 1048 1049 1058
f 1049 1059 1058
f 1049 1050 1059
f 1050 1060 1059
f 1050 1051 1060
f 1051 1061 1060
f 1051 1052 1061
f 1052 1062 1061
f 1052 1053 1062
f 1053 1063 1062
f 1053 1054 1063
f 1054 1064 1063
f 1054 1045 1064
f 1045 1055 1064
f 1065 1066 1075
f 1066 1076 1075
f 1066 1067 1076
f 1067 1077 1076
f 1067 1068 1077
f 1068 1078 1077
f 1068 1069 1078
f 1069 1079 1078
f 1069 1070 1079
f 1070 1080 1079
f 1070 1071 1080
f 1071 1081 1080
f 1071 1072 1081
f 1072 1082 1081
f 1072 1073 1082
f 1073 1083 1082
f 1073 1074 1083
f 1074 1084 1083
f 1074 1065 1084
f 1065 1075 1084
f 1085 1086 1095
f 1086 1096 1095
f 1086 1087 1096
f 1087 1097 1096
f 1087 1088 1097
f 1088 1098 1097
f 1088 1089 1098
f 1089 1099 1098
f 1089 1090 1099
f 1090 1100 1099
f 1090 1091 1100
f 1091 1101 1100
f 1091 1092 1101
f 1092 1102 1101
f 1092 1093 1102
f 1093 1103 1102
f 1093 1094 1103
f 1094 1104 1103
f 1094 1085 1104
f 1085 1095 1104
f 1105 1106 1115
f 1106 1116 1115
f 1106 1107 1116
f 1107 1117 1116
f 1107 1108 1117
f 1108 1118 1117
f 1108 1109 1118
f 1109 1119 1118
f 1109 1110 1119
f 1110 1120 1119
f 1110 1111 1120
f 1111 1121 1120
f 1111 1112 1121
f 1112 1122 1121
f 1112 1113 1122
f 1113 1123 1122
f 1113 1114 1123
f 1114 1124 1123
f 1114 1105 1124
f 1105 1115 1124
f 1125 1126 1135
f 1126 1136 1135
f 1126 1127 1136
f 1127 1137 1136
f 1127 1128 1137
f 1128 1138 1137
f 1128 1129 1138
f 1129 1139 1138
f 1129 1130 1139
f 1130 1140 1139
f 1130 1131 1140
f 1131 1141 1140
f 1131 1132 1141
f 1132 1142 1141
f 1132 1133 1142
f 1133 1143 1142
f 1133 1134 1143
f 1134 1144 1143
f 1134 1125 1144
f 1125 1135 1144
f 1145 1146 1155
f 1146 1156 1155
f 1146 1147 1156
f 1147 1157 1156
f 1147 1148 1157
f 1148 1158 1157
f 1148 1149 1158
f 1149 1159 1158
f 1149 1150 1159
f 1150 1160 1159
f 1150 1151 1160
f 1151 1161 1160
f 1151 1152 1161
f 1152 1162 1161
f 1152 1153 1162
f 1153 1163 1162
f 1153 1154 1163
f 1154 1164 1163
f 1154 1145 1164
f 1145 1155 1164
f 1165 1166 1175
f 1166 1176 1175
f 1166 1167 1176
f 1167 1177 1176
f 1167 1168 1177
f 1168 1178 1177
f 1168 1169 1178
f 1169 1179 1178
f 1169 1170 1179
f 1170 1180 1179
f 1170 1171 1180
f 1171 1181 1180
f 1171 1172 1181
f 1172 1182 1181
f 1172 1173 1182
f 1173 1183 1182
f 1173 1174 1183
f 1174 1184 1183
f 1174 1165 1184
f 1165 1175 1184
