# Full-Body 3D Mesh - Frame 6
v 0.007948 -0.641740 -0.157311
v 0.041756 -0.641740 -0.162172
v 0.072825 -0.641740 -0.176360
v 0.098638 -0.641740 -0.198728
v 0.117103 -0.641740 -0.227461
v 0.126726 -0.641740 -0.260233
v 0.126726 -0.641740 -0.294389
v 0.117103 -0.641740 -0.327161
v 0.098638 -0.641740 -0.355894
v 0.072825 -0.641740 -0.378261
v 0.041756 -0.641740 -0.392450
v 0.007948 -0.641740 -0.397311
v 0.007948 -0.641740 -0.157311
v 0.036389 -0.623462 -0.162172
v 0.062526 -0.606665 -0.176360
v 0.084241 -0.592709 -0.198728
v 0.099775 -0.582726 -0.227461
v 0.107871 -0.577523 -0.260233
v 0.107871 -0.577523 -0.294389
v 0.099775 -0.582726 -0.327161
v 0.084241 -0.592709 -0.355894
v 0.062526 -0.606665 -0.378261
v 0.036389 -0.623462 -0.392450
v 0.007948 -0.641740 -0.397311
v 0.007948 -0.641740 -0.157311
v 0.021992 -0.610987 -0.162172
v 0.034898 -0.582726 -0.176360
v 0.045622 -0.559245 -0.198728
v 0.053293 -0.542448 -0.227461
v 0.057290 -0.533695 -0.260233
v 0.057290 -0.533695 -0.294389
v 0.053293 -0.542448 -0.327161
v 0.045622 -0.559245 -0.355894
v 0.034898 -0.582726 -0.378261
v 0.021992 -0.610987 -0.392450
v 0.007948 -0.641740 -0.397311
v 0.007948 -0.641740 -0.157311
v 0.003136 -0.608276 -0.162172
v -0.001285 -0.577523 -0.176360
v -0.004959 -0.551973 -0.198728
v -0.007587 -0.533695 -0.227461
v -0.008956 -0.524170 -0.260233
v -0.008956 -0.524170 -0.294389
v -0.007587 -0.533695 -0.327161
v -0.004959 -0.551973 -0.355894
v -0.001285 -0.577523 -0.378261
v 0.003136 -0.608276 -0.392450
v 0.007948 -0.641740 -0.397311
v 0.007948 -0.641740 -0.157311
v -0.014192 -0.616189 -0.162172
v -0.034538 -0.592709 -0.176360
v -0.051442 -0.573201 -0.198728
v -0.063534 -0.559245 -0.227461
v -0.069836 -0.551973 -0.260233
v -0.069836 -0.551973 -0.294389
v -0.063534 -0.559245 -0.327161
v -0.051442 -0.573201 -0.355894
v -0.034538 -0.592709 -0.378261
v -0.014192 -0.616189 -0.392450
v 0.007948 -0.641740 -0.397311
v 0.007948 -0.641740 -0.157311
v -0.024491 -0.632215 -0.162172
v -0.054301 -0.623462 -0.176360
v -0.079069 -0.616189 -0.198728
v -0.096787 -0.610987 -0.227461
v -0.106020 -0.608276 -0.260233
v -0.106020 -0.608276 -0.294389
v -0.096787 -0.610987 -0.327161
v -0.079069 -0.616189 -0.355894
v -0.054301 -0.623462 -0.378261
v -0.024491 -0.632215 -0.392450
v 0.007948 -0.641740 -0.397311
v 0.007948 -0.641740 -0.157311
v -0.024491 -0.651264 -0.162172
v -0.054301 -0.660018 -0.176360
v -0.079069 -0.667290 -0.198728
v -0.096787 -0.672493 -0.227461
v -0.106020 -0.675204 -0.260233
v -0.106020 -0.675204 -0.294389
v -0.096787 -0.672493 -0.327161
v -0.079069 -0.667290 -0.355894
v -0.054301 -0.660018 -0.378261
v -0.024491 -0.651264 -0.392450
v 0.007948 -0.641740 -0.397311
v 0.007948 -0.641740 -0.157311
v -0.014192 -0.667290 -0.162172
v -0.034538 -0.690770 -0.176360
v -0.051442 -0.710279 -0.198728
v -0.063534 -0.724234 -0.227461
v -0.069836 -0.731507 -0.260233
v -0.069836 -0.731507 -0.294389
v -0.063534 -0.724234 -0.327161
v -0.051442 -0.710279 -0.355894
v -0.034538 -0.690770 -0.378261
v -0.014192 -0.667290 -0.392450
v 0.007948 -0.641740 -0.397311
v 0.007948 -0.641740 -0.157311
v 0.003136 -0.675204 -0.162172
v -0.001285 -0.705956 -0.176360
v -0.004959 -0.731507 -0.198728
v -0.007587 -0.749785 -0.227461
v -0.008956 -0.759309 -0.260233
v -0.008956 -0.759309 -0.294389
v -0.007587 -0.749785 -0.327161
v -0.004959 -0.731507 -0.355894
v -0.001285 -0.705956 -0.378261
v 0.003136 -0.675204 -0.392450
v 0.007948 -0.641740 -0.397311
v 0.007948 -0.641740 -0.157311
v 0.021992 -0.672493 -0.162172
v 0.034898 -0.700754 -0.176360
v 0.045622 -0.724234 -0.198728
v 0.053293 -0.741031 -0.227461
v 0.057290 -0.749785 -0.260233
v 0.057290 -0.749785 -0.294389
v 0.053293 -0.741031 -0.327161
v 0.045622 -0.724234 -0.355894
v 0.034898 -0.700754 -0.378261
v 0.021992 -0.672493 -0.392450
v 0.007948 -0.641740 -0.397311
v 0.007948 -0.641740 -0.157311
v 0.036389 -0.660018 -0.162172
v 0.062526 -0.676815 -0.176360
v 0.084241 -0.690770 -0.198728
v 0.099775 -0.700754 -0.227461
v 0.107871 -0.705956 -0.260233
v 0.107871 -0.705956 -0.294389
v 0.099775 -0.700754 -0.327161
v 0.084241 -0.690770 -0.355894
v 0.062526 -0.676815 -0.378261
v 0.036389 -0.660018 -0.392450
v 0.007948 -0.641740 -0.397311
v 0.007948 -0.641740 -0.157311
v 0.041756 -0.641740 -0.162172
v 0.072825 -0.641740 -0.176360
v 0.098638 -0.641740 -0.198728
v 0.117103 -0.641740 -0.227461
v 0.126726 -0.641740 -0.260233
v 0.126726 -0.641740 -0.294389
v 0.117103 -0.641740 -0.327161
v 0.098638 -0.641740 -0.355894
v 0.072825 -0.641740 -0.378261
v 0.041756 -0.641740 -0.392450
v 0.007948 -0.641740 -0.397311
v 0.169139 -0.456172 -0.106485
v 0.167110 -0.479655 -0.099031
v 0.164079 -0.494169 -0.079249
v 0.161204 -0.494169 -0.054696
v 0.159583 -0.479655 -0.034749
v 0.159835 -0.456172 -0.027028
v 0.161864 -0.432688 -0.034482
v 0.164895 -0.418175 -0.054264
v 0.167770 -0.418175 -0.078817
v 0.169391 -0.432688 -0.098764
v -0.159450 -0.439995 -0.144959
v -0.161479 -0.463478 -0.137505
v -0.164510 -0.477991 -0.117723
v -0.167385 -0.477991 -0.093170
v -0.169006 -0.463478 -0.073223
v -0.168754 -0.439995 -0.065502
v -0.166725 -0.416511 -0.072956
v -0.163694 -0.401998 -0.092738
v -0.160819 -0.401998 -0.117291
v -0.159198 -0.416511 -0.137238
v 0.164487 -0.453176 -0.106644
v 0.141235 -0.450273 -0.098765
v 0.126865 -0.449624 -0.078660
v 0.126865 -0.451476 -0.054008
v 0.141235 -0.455121 -0.034226
v 0.164487 -0.459168 -0.026869
v 0.187739 -0.462070 -0.034748
v 0.202109 -0.462719 -0.054853
v 0.202109 -0.460868 -0.079505
v 0.187739 -0.457222 -0.099287
v 0.198614 -0.226070 -0.089585
v 0.175362 -0.223168 -0.081706
v 0.160991 -0.222519 -0.061601
v 0.160991 -0.224370 -0.036949
v 0.175362 -0.228016 -0.017167
v 0.198614 -0.232063 -0.009810
v 0.221865 -0.234965 -0.017689
v 0.236236 -0.235614 -0.037794
v 0.236236 -0.233762 -0.062446
v 0.221865 -0.230117 -0.082228
v 0.198614 -0.253664 -0.081240
v 0.175287 -0.246648 -0.077024
v 0.160870 -0.232917 -0.062369
v 0.160870 -0.217715 -0.042874
v 0.175287 -0.206849 -0.025986
v 0.198614 -0.204469 -0.018154
v 0.221941 -0.211484 -0.022371
v 0.236358 -0.225215 -0.037026
v 0.236358 -0.240418 -0.056520
v 0.221941 -0.251284 -0.073409
v 0.223393 -0.098579 -0.202177
v 0.200066 -0.091564 -0.197960
v 0.185649 -0.077832 -0.183306
v 0.185649 -0.062630 -0.163811
v 0.200066 -0.051764 -0.146922
v 0.223393 -0.049384 -0.139091
v 0.246720 -0.056400 -0.143308
v 0.261137 -0.070131 -0.157962
v 0.261137 -0.085333 -0.177457
v 0.246720 -0.096199 -0.194345
v -0.164102 -0.444430 -0.144984
v -0.187431 -0.446487 -0.137068
v -0.201849 -0.446064 -0.116991
v -0.201849 -0.443322 -0.092422
v -0.187431 -0.439310 -0.072745
v -0.164102 -0.435559 -0.065477
v -0.140773 -0.433502 -0.073393
v -0.126355 -0.433926 -0.093470
v -0.126355 -0.436667 -0.118039
v -0.140773 -0.440679 -0.137716
v -0.195392 -0.196140 -0.172686
v -0.218721 -0.198196 -0.164770
v -0.233139 -0.197773 -0.144693
v -0.233139 -0.195032 -0.120124
v -0.218721 -0.191020 -0.100447
v -0.195392 -0.187269 -0.093179
v -0.172063 -0.185212 -0.101095
v -0.157645 -0.185635 -0.121172
v -0.157645 -0.188377 -0.145741
v -0.172063 -0.192389 -0.165418
v -0.195392 -0.231621 -0.135511
v -0.218610 -0.223759 -0.138712
v -0.232960 -0.203653 -0.139706
v -0.232960 -0.178983 -0.138112
v -0.218610 -0.159172 -0.134540
v -0.195392 -0.151788 -0.130354
v -0.172174 -0.159650 -0.127153
v -0.157824 -0.179756 -0.126159
v -0.157824 -0.204425 -0.127753
v -0.172174 -0.224236 -0.131325
v -0.163737 -0.218820 -0.333667
v -0.186955 -0.210958 -0.336868
v -0.201305 -0.190852 -0.337861
v -0.201305 -0.166182 -0.336268
v -0.186955 -0.146371 -0.332696
v -0.163737 -0.138986 -0.328509
v -0.140519 -0.146848 -0.325308
v -0.126169 -0.166954 -0.324315
v -0.126169 -0.191624 -0.325909
v -0.140519 -0.211435 -0.329481
v 0.164487 -0.448802 -0.106072
v 0.141039 -0.451914 -0.098883
v 0.126548 -0.456652 -0.079423
v 0.126548 -0.461206 -0.055124
v 0.141039 -0.463838 -0.035269
v 0.164487 -0.463541 -0.027441
v 0.187934 -0.460430 -0.034630
v 0.202425 -0.455692 -0.054091
v 0.202425 -0.451137 -0.078389
v 0.187934 -0.448506 -0.098244
v 0.130175 0.007256 -0.020587
v 0.106728 0.004145 -0.013398
v 0.092236 -0.000593 0.006062
v 0.092236 -0.005148 0.030360
v 0.106728 -0.007779 0.050216
v 0.130175 -0.007482 0.058044
v 0.153623 -0.004371 0.050854
v 0.168114 0.000367 0.031394
v 0.168114 0.004922 0.007096
v 0.153623 0.007553 -0.012759
v -0.164102 -0.431715 -0.144364
v -0.187542 -0.431506 -0.136512
v -0.202029 -0.434539 -0.116711
v -0.202029 -0.439656 -0.092525
v -0.187542 -0.444902 -0.073192
v -0.164102 -0.448274 -0.066097
v -0.140662 -0.448483 -0.073949
v -0.126175 -0.445450 -0.093750
v -0.126175 -0.440333 -0.117936
v -0.140662 -0.435087 -0.137269
v -0.130296 -0.008051 -0.054734
v -0.153736 -0.007842 -0.046881
v -0.168222 -0.010876 -0.027080
v -0.168222 -0.015992 -0.002894
v -0.153736 -0.021238 0.016439
v -0.130296 -0.024610 0.023534
v -0.106856 -0.024819 0.015681
v -0.092369 -0.021786 -0.004120
v -0.092369 -0.016669 -0.028306
v -0.106856 -0.011423 -0.047638
v 0.135402 -0.000113 -0.020929
v 0.135840 -0.023580 -0.013166
v 0.134114 -0.038083 0.006780
v 0.130884 -0.038083 0.031289
v 0.127383 -0.023580 0.051001
v 0.124949 -0.000113 0.058385
v 0.124511 0.023354 0.050622
v 0.126236 0.037857 0.030677
v 0.129466 0.037857 0.006167
v 0.132967 0.023354 -0.013544
v -0.125069 -0.016331 -0.055257
v -0.124631 -0.039797 -0.047494
v -0.126357 -0.054301 -0.027548
v -0.129587 -0.054301 -0.003039
v -0.133088 -0.039797 0.016673
v -0.135522 -0.016331 0.024057
v -0.135960 0.007136 0.016294
v -0.134234 0.021639 -0.003651
v -0.131004 0.021639 -0.028161
v -0.127503 0.007136 -0.047872
v 0.130175 -0.024699 -0.012824
v 0.106667 -0.019694 -0.007039
v 0.092138 -0.007210 0.008588
v 0.092138 0.007985 0.028088
v 0.106667 0.020087 0.044013
v 0.130175 0.024473 0.050280
v 0.153683 0.019468 0.044495
v 0.168212 0.006984 0.028868
v 0.168212 -0.008211 0.009368
v 0.153683 -0.020313 -0.006557
v 0.132495 0.084950 -0.098265
v 0.108987 0.089955 -0.092480
v 0.094458 0.102439 -0.076853
v 0.094458 0.117634 -0.057353
v 0.108987 0.129736 -0.041428
v 0.132495 0.134122 -0.035161
v 0.156003 0.129117 -0.040945
v 0.170532 0.116633 -0.056572
v 0.170532 0.101438 -0.076073
v 0.156003 0.089336 -0.091998
v 0.132495 0.131405 -0.100205
v 0.109103 0.129212 -0.092514
v 0.094646 0.119503 -0.074967
v 0.094646 0.105987 -0.054267
v 0.109103 0.093827 -0.038322
v 0.132495 0.087667 -0.033220
v 0.155886 0.089860 -0.040912
v 0.170343 0.099569 -0.058458
v 0.170343 0.113085 -0.079158
v 0.155886 0.125245 -0.095104
v 0.161653 0.372502 0.057218
v 0.138261 0.370309 0.064910
v 0.123804 0.360600 0.082456
v 0.123804 0.347084 0.103156
v 0.138261 0.334924 0.119102
v 0.161653 0.328764 0.124203
v 0.185044 0.330957 0.116512
v 0.199501 0.340666 0.098965
v 0.199501 0.354182 0.078265
v 0.185044 0.366342 0.062320
v -0.130296 -0.054568 -0.003856
v -0.152825 -0.049240 -0.012528
v -0.166748 -0.031342 -0.022373
v -0.166748 -0.007710 -0.029631
v -0.152825 0.012629 -0.031530
v -0.130296 0.021906 -0.027344
v -0.107767 0.016578 -0.018672
v -0.093843 -0.001320 -0.008826
v -0.093843 -0.024952 -0.001568
v -0.107767 -0.045291 0.000330
v -0.074970 -0.108980 -0.181016
v -0.097499 -0.103652 -0.189688
v -0.111423 -0.085754 -0.199533
v -0.111423 -0.062122 -0.206792
v -0.097499 -0.041783 -0.208690
v -0.074970 -0.032506 -0.204504
v -0.052441 -0.037834 -0.195832
v -0.038518 -0.055732 -0.185986
v -0.038518 -0.079364 -0.178728
v -0.052441 -0.099703 -0.176830
v -0.074970 -0.068021 -0.232667
v -0.098480 -0.068793 -0.225063
v -0.113010 -0.070309 -0.205120
v -0.113010 -0.071991 -0.180456
v -0.098480 -0.073196 -0.160491
v -0.074970 -0.073464 -0.152853
v -0.051460 -0.072692 -0.160457
v -0.036930 -0.071176 -0.180400
v -0.036930 -0.069494 -0.205064
v -0.051460 -0.068289 -0.225028
v -0.078212 0.232980 -0.212142
v -0.101722 0.232208 -0.204537
v -0.116252 0.230692 -0.184594
v -0.116252 0.229010 -0.159930
v -0.101722 0.227805 -0.139966
v -0.078212 0.227538 -0.132327
v -0.054702 0.228309 -0.139932
v -0.040172 0.229826 -0.159875
v -0.040172 0.231508 -0.184539
v -0.054702 0.232712 -0.204503
f 1 2 13
f 2 14 13
f 2 3 14
f 3 15 14
f 3 4 15
f 4 16 15
f 4 5 16
f 5 17 16
f 5 6 17
f 6 18 17
f 6 7 18
f 7 19 18
f 7 8 19
f 8 20 19
f 8 9 20
f 9 21 20
f 9 10 21
f 10 22 21
f 10 11 22
f 11 23 22
f 11 12 23
f 12 24 23
f 13 14 25
f 14 26 25
f 14 15 26
f 15 27 26
f 15 16 27
f 16 28 27
f 16 17 28
f 17 29 28
f 17 18 29
f 18 30 29
f 18 19 30
f 19 31 30
f 19 20 31
f 20 32 31
f 20 21 32
f 21 33 32
f 21 22 33
f 22 34 33
f 22 23 34
f 23 35 34
f 23 24 35
f 24 36 35
f 25 26 37
f 26 38 37
f 26 27 38
f 27 39 38
f 27 28 39
f 28 40 39
f 28 29 40
f 29 41 40
f 29 30 41
f 30 42 41
f 30 31 42
f 31 43 42
f 31 32 43
f 32 44 43
f 32 33 44
f 33 45 44
f 33 34 45
f 34 46 45
f 34 35 46
f 35 47 46
f 35 36 47
f 36 48 47
f 37 38 49
f 38 50 49
f 38 39 50
f 39 51 50
f 39 40 51
f 40 52 51
f 40 41 52
f 41 53 52
f 41 42 53
f 42 54 53
f 42 43 54
f 43 55 54
f 43 44 55
f 44 56 55
f 44 45 56
f 45 57 56
f 45 46 57
f 46 58 57
f 46 47 58
f 47 59 58
f 47 48 59
f 48 60 59
f 49 50 61
f 50 62 61
f 50 51 62
f 51 63 62
f 51 52 63
f 52 64 63
f 52 53 64
f 53 65 64
f 53 54 65
f 54 66 65
f 54 55 66
f 55 67 66
f 55 56 67
f 56 68 67
f 56 57 68
f 57 69 68
f 57 58 69
f 58 70 69
f 58 59 70
f 59 71 70
f 59 60 71
f 60 72 71
f 61 62 73
f 62 74 73
f 62 63 74
f 63 75 74
f 63 64 75
f 64 76 75
f 64 65 76
f 65 77 76
f 65 66 77
f 66 78 77
f 66 67 78
f 67 79 78
f 67 68 79
f 68 80 79
f 68 69 80
f 69 81 80
f 69 70 81
f 70 82 81
f 70 71 82
f 71 83 82
f 71 72 83
f 72 84 83
f 73 74 85
f 74 86 85
f 74 75 86
f 75 87 86
f 75 76 87
f 76 88 87
f 76 77 88
f 77 89 88
f 77 78 89
f 78 90 89
f 78 79 90
f 79 91 90
f 79 80 91
f 80 92 91
f 80 81 92
f 81 93 92
f 81 82 93
f 82 94 93
f 82 83 94
f 83 95 94
f 83 84 95
f 84 96 95
f 85 86 97
f 86 98 97
f 86 87 98
f 87 99 98
f 87 88 99
f 88 100 99
f 88 89 100
f 89 101 100
f 89 90 101
f 90 102 101
f 90 91 102
f 91 103 102
f 91 92 103
f 92 104 103
f 92 93 104
f 93 105 104
f 93 94 105
f 94 106 105
f 94 95 106
f 95 107 106
f 95 96 107
f 96 108 107
f 97 98 109
f 98 110 109
f 98 99 110
f 99 111 110
f 99 100 111
f 100 112 111
f 100 101 112
f 101 113 112
f 101 102 113
f 102 114 113
f 102 103 114
f 103 115 114
f 103 104 115
f 104 116 115
f 104 105 116
f 105 117 116
f 105 106 117
f 106 118 117
f 106 107 118
f 107 119 118
f 107 108 119
f 108 120 119
f 109 110 121
f 110 122 121
f 110 111 122
f 111 123 122
f 111 112 123
f 112 124 123
f 112 113 124
f 113 125 124
f 113 114 125
f 114 126 125
f 114 115 126
f 115 127 126
f 115 116 127
f 116 128 127
f 116 117 128
f 117 129 128
f 117 118 129
f 118 130 129
f 118 119 130
f 119 131 130
f 119 120 131
f 120 132 131
f 121 122 133
f 122 134 133
f 122 123 134
f 123 135 134
f 123 124 135
f 124 136 135
f 124 125 136
f 125 137 136
f 125 126 137
f 126 138 137
f 126 127 138
f 127 139 138
f 127 128 139
f 128 140 139
f 128 129 140
f 129 141 140
f 129 130 141
f 130 142 141
f 130 131 142
f 131 143 142
f 131 132 143
f 132 144 143
f 145 146 155
f 146 156 155
f 146 147 156
f 147 157 156
f 147 148 157
f 148 158 157
f 148 149 158
f 149 159 158
f 149 150 159
f 150 160 159
f 150 151 160
f 151 161 160
f 151 152 161
f 152 162 161
f 152 153 162
f 153 163 162
f 153 154 163
f 154 164 163
f 154 145 164
f 145 155 164
f 165 166 175
f 166 176 175
f 166 167 176
f 167 177 176
f 167 168 177
f 168 178 177
f 168 169 178
f 169 179 178
f 169 170 179
f 170 180 179
f 170 171 180
f 171 181 180
f 171 172 181
f 172 182 181
f 172 173 182
f 173 183 182
f 173 174 183
f 174 184 183
f 174 165 184
f 165 175 184
f 185 186 195
f 186 196 195
f 186 187 196
f 187 197 196
f 187 188 197
f 188 198 197
f 188 189 198
f 189 199 198
f 189 190 199
f 190 200 199
f 190 191 200
f 191 201 200
f 191 192 201
f 192 202 201
f 192 193 202
f 193 203 202
f 193 194 203
f 194 204 203
f 194 185 204
f 185 195 204
f 205 206 215
f 206 216 215
f 206 207 216
f 207 217 216
f 207 208 217
f 208 218 217
f 208 209 218
f 209 219 218
f 209 210 219
f 210 220 219
f 210 211 220
f 211 221 220
f 211 212 221
f 212 222 221
f 212 213 222
f 213 223 222
f 213 214 223
f 214 224 223
f 214 205 224
f 205 215 224
f 225 226 235
f 226 236 235
f 226 227 236
f 227 237 236
f 227 228 237
f 228 238 237
f 228 229 238
f 229 239 238
f 229 230 239
f 230 240 239
f 230 231 240
f 231 241 240
f 231 232 241
f 232 242 241
f 232 233 242
f 233 243 242
f 233 234 243
f 234 244 243
f 234 225 244
f 225 235 244
f 245 246 255
f 246 256 255
f 246 247 256
f 247 257 256
f 247 248 257
f 248 258 257
f 248 249 258
f 249 259 258
f 249 250 259
f 250 260 259
f 250 251 260
f 251 261 260
f 251 252 261
f 252 262 261
f 252 253 262
f 253 263 262
f 253 254 263
f 254 264 263
f 254 245 264
f 245 255 264
f 265 266 275
f 266 276 275
f 266 267 276
f 267 277 276
f 267 268 277
f 268 278 277
f 268 269 278
f 269 279 278
f 269 270 279
f 270 280 279
f 270 271 280
f 271 281 280
f 271 272 281
f 272 282 281
f 272 273 282
f 273 283 282
f 273 274 283
f 274 284 283
f 274 265 284
f 265 275 284
f 285 286 295
f 286 296 295
f 286 287 296
f 287 297 296
f 287 288 297
f 288 298 297
f 288 289 298
f 289 299 298
f 289 290 299
f 290 300 299
f 290 291 300
f 291 301 300
f 291 292 301
f 292 302 301
f 292 293 302
f 293 303 302
f 293 294 303
f 294 304 303
f 294 285 304
f 285 295 304
f 305 306 315
f 306 316 315
f 306 307 316
f 307 317 316
f 307 308 317
f 308 318 317
f 308 309 318
f 309 319 318
f 309 310 319
f 310 320 319
f 310 311 320
f 311 321 320
f 311 312 321
f 312 322 321
f 312 313 322
f 313 323 322
f 313 314 323
f 314 324 323
f 314 305 324
f 305 315 324
f 325 326 335
f 326 336 335
f 326 327 336
f 327 337 336
f 327 328 337
f 328 338 337
f 328 329 338
f 329 339 338
f 329 330 339
f 330 340 339
f 330 331 340
f 331 341 340
f 331 332 341
f 332 342 341
f 332 333 342
f 333 343 342
f 333 334 343
f 334 344 343
f 334 325 344
f 325 335 344
f 345 346 355
f 346 356 355
f 346 347 356
f 347 357 356
f 347 348 357
f 348 358 357
f 348 349 358
f 349 359 358
f 349 350 359
f 350 360 359
f 350 351 360
f 351 361 360
f 351 352 361
f 352 362 361
f 352 353 362
f 353 363 362
f 353 354 363
f 354 364 363
f 354 345 364
f 345 355 364
f 365 366 375
f 366 376 375
f 366 367 376
f 367 377 376
f 367 368 377
f 368 378 377
f 368 369 378
f 369 379 378
f 369 370 379
f 370 380 379
f 370 371 380
f 371 381 380
f 371 372 381
f 372 382 381
f 372 373 382
f 373 383 382
f 373 374 383
f 374 384 383
f 374 365 384
f 365 375 384
