# Full-Body 3D Mesh - Frame 35
v 0.018776 -0.636860 -0.118468
v 0.052584 -0.636860 -0.123329
v 0.083653 -0.636860 -0.137518
v 0.109466 -0.636860 -0.159885
v 0.127931 -0.636860 -0.188619
v 0.137554 -0.636860 -0.221391
v 0.137554 -0.636860 -0.255546
v 0.127931 -0.636860 -0.288318
v 0.109466 -0.636860 -0.317052
v 0.083653 -0.636860 -0.339419
v 0.052584 -0.636860 -0.353608
v 0.018776 -0.636860 -0.358468
v 0.018776 -0.636860 -0.118468
v 0.047217 -0.618582 -0.123329
v 0.073354 -0.601785 -0.137518
v 0.095069 -0.587830 -0.159885
v 0.110603 -0.577846 -0.188619
v 0.118699 -0.572644 -0.221391
v 0.118699 -0.572644 -0.255546
v 0.110603 -0.577846 -0.288318
v 0.095069 -0.587830 -0.317052
v 0.073354 -0.601785 -0.339419
v 0.047217 -0.618582 -0.353608
v 0.018776 -0.636860 -0.358468
v 0.018776 -0.636860 -0.118468
v 0.032820 -0.606108 -0.123329
v 0.045726 -0.577846 -0.137518
v 0.056450 -0.554366 -0.159885
v 0.064121 -0.537569 -0.188619
v 0.068118 -0.528816 -0.221391
v 0.068118 -0.528816 -0.255546
v 0.064121 -0.537569 -0.288318
v 0.056450 -0.554366 -0.317052
v 0.045726 -0.577846 -0.339419
v 0.032820 -0.606108 -0.353608
v 0.018776 -0.636860 -0.358468
v 0.018776 -0.636860 -0.118468
v 0.013964 -0.603397 -0.123329
v 0.009543 -0.572644 -0.137518
v 0.005869 -0.547094 -0.159885
v 0.003241 -0.528816 -0.188619
v 0.001872 -0.519291 -0.221391
v 0.001872 -0.519291 -0.255546
v 0.003241 -0.528816 -0.288318
v 0.005869 -0.547094 -0.317052
v 0.009543 -0.572644 -0.339419
v 0.013964 -0.603397 -0.353608
v 0.018776 -0.636860 -0.358468
v 0.018776 -0.636860 -0.118468
v -0.003364 -0.611310 -0.123329
v -0.023710 -0.587830 -0.137518
v -0.040614 -0.568322 -0.159885
v -0.052706 -0.554366 -0.188619
v -0.059008 -0.547094 -0.221391
v -0.059008 -0.547094 -0.255546
v -0.052706 -0.554366 -0.288318
v -0.040614 -0.568322 -0.317052
v -0.023710 -0.587830 -0.339419
v -0.003364 -0.611310 -0.353608
v 0.018776 -0.636860 -0.358468
v 0.018776 -0.636860 -0.118468
v -0.013663 -0.627336 -0.123329
v -0.043473 -0.618582 -0.137518
v -0.068241 -0.611310 -0.159885
v -0.085959 -0.606108 -0.188619
v -0.095192 -0.603397 -0.221391
v -0.095192 -0.603397 -0.255546
v -0.085959 -0.606108 -0.288318
v -0.068241 -0.611310 -0.317052
v -0.043473 -0.618582 -0.339419
v -0.013663 -0.627336 -0.353608
v 0.018776 -0.636860 -0.358468
v 0.018776 -0.636860 -0.118468
v -0.013663 -0.646385 -0.123329
v -0.043473 -0.655138 -0.137518
v -0.068241 -0.662411 -0.159885
v -0.085959 -0.667613 -0.188619
v -0.095192 -0.670324 -0.221391
v -0.095192 -0.670324 -0.255546
v -0.085959 -0.667613 -0.288318
v -0.068241 -0.662411 -0.317052
v -0.043473 -0.655138 -0.339419
v -0.013663 -0.646385 -0.353608
v 0.018776 -0.636860 -0.358468
v 0.018776 -0.636860 -0.118468
v -0.003364 -0.662411 -0.123329
v -0.023710 -0.685891 -0.137518
v -0.040614 -0.705399 -0.159885
v -0.052706 -0.719355 -0.188619
v -0.059008 -0.726627 -0.221391
v -0.059008 -0.726627 -0.255546
v -0.052706 -0.719355 -0.288318
v -0.040614 -0.705399 -0.317052
v -0.023710 -0.685891 -0.339419
v -0.003364 -0.662411 -0.353608
v 0.018776 -0.636860 -0.358468
v 0.018776 -0.636860 -0.118468
v 0.013964 -0.670324 -0.123329
v 0.009543 -0.701077 -0.137518
v 0.005869 -0.726627 -0.159885
v 0.003241 -0.744905 -0.188619
v 0.001872 -0.754430 -0.221391
v 0.001872 -0.754430 -0.255546
v 0.003241 -0.744905 -0.288318
v 0.005869 -0.726627 -0.317052
v 0.009543 -0.701077 -0.339419
v 0.013964 -0.670324 -0.353608
v 0.018776 -0.636860 -0.358468
v 0.018776 -0.636860 -0.118468
v 0.032820 -0.667613 -0.123329
v 0.045726 -0.695875 -0.137518
v 0.056450 -0.719355 -0.159885
v 0.064121 -0.736152 -0.188619
v 0.068118 -0.744905 -0.221391
v 0.068118 -0.744905 -0.255546
v 0.064121 -0.736152 -0.288318
v 0.056450 -0.719355 -0.317052
v 0.045726 -0.695875 -0.339419
v 0.032820 -0.667613 -0.353608
v 0.018776 -0.636860 -0.358468
v 0.018776 -0.636860 -0.118468
v 0.047217 -0.655138 -0.123329
v 0.073354 -0.671936 -0.137518
v 0.095069 -0.685891 -0.159885
v 0.110603 -0.695875 -0.188619
v 0.118699 -0.701077 -0.221391
v 0.118699 -0.701077 -0.255546
v 0.110603 -0.695875 -0.288318
v 0.095069 -0.685891 -0.317052
v 0.073354 -0.671936 -0.339419
v 0.047217 -0.655138 -0.353608
v 0.018776 -0.636860 -0.358468
v 0.018776 -0.636860 -0.118468
v 0.052584 -0.636860 -0.123329
v 0.083653 -0.636860 -0.137518
v 0.109466 -0.636860 -0.159885
v 0.127931 -0.636860 -0.188619
v 0.137554 -0.636860 -0.221391
v 0.137554 -0.636860 -0.255546
v 0.127931 -0.636860 -0.288318
v 0.109466 -0.636860 -0.317052
v 0.083653 -0.636860 -0.339419
v 0.052584 -0.636860 -0.353608
v 0.018776 -0.636860 -0.358468
v 0.180277 -0.449172 -0.071830
v 0.180730 -0.472681 -0.064197
v 0.181244 -0.487211 -0.044203
v 0.181621 -0.487211 -0.019484
v 0.181719 -0.472681 0.000517
v 0.181499 -0.449172 0.008160
v 0.181046 -0.425663 0.000527
v 0.180532 -0.411134 -0.019467
v 0.180154 -0.411134 -0.044186
v 0.180057 -0.425663 -0.064187
v -0.151420 -0.453923 -0.066762
v -0.150966 -0.477432 -0.059129
v -0.150453 -0.491961 -0.039135
v -0.150075 -0.491961 -0.014416
v -0.149978 -0.477432 0.005585
v -0.150198 -0.453923 0.013228
v -0.150651 -0.430414 0.005595
v -0.151165 -0.415884 -0.014399
v -0.151542 -0.415884 -0.039118
v -0.151640 -0.430414 -0.059119
v 0.180888 -0.462723 -0.069470
v 0.157540 -0.457533 -0.063219
v 0.143110 -0.449149 -0.044981
v 0.143110 -0.440774 -0.021722
v 0.157540 -0.435607 -0.002325
v 0.180888 -0.435621 0.005800
v 0.204236 -0.440812 -0.000451
v 0.218666 -0.449196 -0.018689
v 0.218666 -0.457571 -0.041949
v 0.204236 -0.462738 -0.061345
v 0.212983 -0.207830 -0.161249
v 0.189635 -0.202639 -0.154998
v 0.175205 -0.194255 -0.136760
v 0.175205 -0.185880 -0.113500
v 0.189635 -0.180713 -0.094104
v 0.212983 -0.180728 -0.085979
v 0.236331 -0.185918 -0.092230
v 0.250761 -0.194302 -0.110468
v 0.250761 -0.202677 -0.133727
v 0.236331 -0.207844 -0.153124
v 0.212983 -0.234077 -0.119597
v 0.189787 -0.226091 -0.116548
v 0.175450 -0.205954 -0.116198
v 0.175450 -0.181357 -0.118680
v 0.189787 -0.161696 -0.123047
v 0.212983 -0.154481 -0.127631
v 0.236179 -0.162467 -0.130680
v 0.250516 -0.182604 -0.131030
v 0.250516 -0.207200 -0.128547
v 0.236179 -0.226861 -0.124181
v 0.167247 -0.261851 -0.394799
v 0.144050 -0.253866 -0.391750
v 0.129714 -0.233729 -0.391400
v 0.129714 -0.209132 -0.393882
v 0.144050 -0.189471 -0.398249
v 0.167247 -0.182256 -0.402832
v 0.190443 -0.190242 -0.405882
v 0.204779 -0.210379 -0.406232
v 0.204779 -0.234975 -0.403749
v 0.190443 -0.254636 -0.399383
v -0.150809 -0.454252 -0.066766
v -0.173858 -0.458828 -0.059088
v -0.188103 -0.461529 -0.039066
v -0.188103 -0.461326 -0.014345
v -0.173858 -0.458295 0.005631
v -0.150809 -0.453593 0.013232
v -0.127759 -0.449018 0.005554
v -0.113514 -0.446316 -0.014469
v -0.113514 -0.446520 -0.039189
v -0.127759 -0.449551 -0.059165
v -0.202742 -0.196190 -0.068891
v -0.225791 -0.200765 -0.061214
v -0.240036 -0.203467 -0.041191
v -0.240036 -0.203263 -0.016470
v -0.225791 -0.200232 0.003506
v -0.202742 -0.195531 0.011107
v -0.179692 -0.190956 0.003429
v -0.165447 -0.188254 -0.016594
v -0.165447 -0.188457 -0.041314
v -0.179692 -0.191488 -0.061290
v -0.202742 -0.225226 -0.056052
v -0.226000 -0.217283 -0.053389
v -0.240375 -0.201157 -0.041370
v -0.240375 -0.183008 -0.024584
v -0.226000 -0.169768 -0.009444
v -0.202742 -0.166495 -0.001732
v -0.179483 -0.174438 -0.004395
v -0.165109 -0.190564 -0.016415
v -0.165109 -0.208713 -0.033200
v -0.179483 -0.221952 -0.048340
v -0.173261 -0.089835 -0.202438
v -0.196520 -0.081892 -0.199776
v -0.210895 -0.065766 -0.187756
v -0.210895 -0.047617 -0.170970
v -0.196520 -0.034378 -0.155830
v -0.173261 -0.031104 -0.148118
v -0.150003 -0.039047 -0.150781
v -0.135628 -0.055173 -0.162801
v -0.135628 -0.073322 -0.179586
v -0.150003 -0.086562 -0.194727
v 0.180888 -0.444443 -0.071555
v 0.157576 -0.448381 -0.064330
v 0.143168 -0.452621 -0.044694
v 0.143168 -0.455544 -0.020146
v 0.157576 -0.456033 -0.000063
v 0.180888 -0.453901 0.007884
v 0.204200 -0.449963 0.000660
v 0.218607 -0.445723 -0.018976
v 0.218607 -0.442800 -0.043524
v 0.204200 -0.442312 -0.063607
v 0.121119 0.008243 -0.017658
v 0.097807 0.004305 -0.010433
v 0.083400 0.000065 0.009203
v 0.083400 -0.002858 0.033751
v 0.097807 -0.003347 0.053834
v 0.121119 -0.001215 0.061781
v 0.144431 0.002723 0.054557
v 0.158839 0.006963 0.034920
v 0.158839 0.009886 0.010372
v 0.144431 0.010375 -0.009711
v -0.150809 -0.453249 -0.066761
v -0.174268 -0.451819 -0.059097
v -0.188767 -0.451192 -0.039083
v -0.188767 -0.451608 -0.014366
v -0.174268 -0.452909 0.005615
v -0.150809 -0.454596 0.013227
v -0.127349 -0.456027 0.005563
v -0.112850 -0.456654 -0.014451
v -0.112850 -0.456237 -0.039168
v -0.127349 -0.454937 -0.059149
v -0.121616 -0.014090 -0.059366
v -0.145076 -0.012660 -0.051702
v -0.159574 -0.012033 -0.031688
v -0.159574 -0.012449 -0.006971
v -0.145076 -0.013750 0.013010
v -0.121616 -0.015437 0.020622
v -0.098156 -0.016868 0.012958
v -0.083657 -0.017494 -0.007055
v -0.083657 -0.017078 -0.031773
v -0.098156 -0.015778 -0.051754
v 0.127850 0.003514 -0.017368
v 0.128280 -0.019933 -0.009545
v 0.125975 -0.034424 0.010351
v 0.121815 -0.034424 0.034720
v 0.117390 -0.019933 0.054254
v 0.114389 0.003514 0.061491
v 0.113958 0.026961 0.053668
v 0.116263 0.041452 0.033772
v 0.120423 0.041452 0.009403
v 0.124849 0.026961 -0.010130
v -0.114885 -0.014764 -0.058802
v -0.114455 -0.038211 -0.050978
v -0.116760 -0.052702 -0.031083
v -0.120920 -0.052702 -0.006714
v -0.125345 -0.038211 0.012820
v -0.128346 -0.014764 0.020058
v -0.128777 0.008683 0.012235
v -0.126472 0.023174 -0.007661
v -0.122312 0.023174 -0.032030
v -0.117886 0.008683 -0.051564
v 0.121119 -0.007924 -0.016268
v 0.097611 -0.006141 -0.008828
v 0.083083 -0.000670 0.010411
v 0.083083 0.006399 0.034100
v 0.097611 0.012366 0.053191
v 0.121119 0.014952 0.060392
v 0.144627 0.013169 0.052951
v 0.159155 0.007698 0.033712
v 0.159155 0.000629 0.010023
v 0.144627 -0.005338 -0.009067
v 0.118017 0.158830 -0.066029
v 0.094509 0.160613 -0.058589
v 0.079981 0.166084 -0.039350
v 0.079981 0.173153 -0.015661
v 0.094509 0.179120 0.003430
v 0.118017 0.181706 0.010630
v 0.141525 0.179923 0.003190
v 0.156053 0.174452 -0.016049
v 0.156053 0.167383 -0.039738
v 0.141525 0.161416 -0.058829
v 0.118017 0.193565 -0.060215
v 0.094552 0.190317 -0.053144
v 0.080050 0.179412 -0.036354
v 0.080050 0.165014 -0.016258
v 0.094552 0.152622 -0.000533
v 0.118017 0.146971 0.004816
v 0.141482 0.150218 -0.002255
v 0.155984 0.161124 -0.019045
v 0.155984 0.175522 -0.039141
v 0.141482 0.187914 -0.054866
v 0.138774 0.461329 0.131634
v 0.115310 0.458082 0.138705
v 0.100807 0.447177 0.155495
v 0.100807 0.432778 0.175591
v 0.115310 0.420387 0.191317
v 0.138774 0.414736 0.196665
v 0.162239 0.417983 0.189594
v 0.176741 0.428889 0.172804
v 0.176741 0.443287 0.152708
v 0.162239 0.455678 0.136983
v -0.121616 -0.054556 -0.023444
v -0.144318 -0.046334 -0.028749
v -0.158349 -0.026053 -0.030473
v -0.158349 -0.001460 -0.027957
v -0.144318 0.018051 -0.022161
v -0.121616 0.025029 -0.015300
v -0.098914 0.016806 -0.009994
v -0.084883 -0.003474 -0.008271
v -0.084883 -0.028067 -0.010787
v -0.098914 -0.047579 -0.016583
v -0.087476 -0.041655 -0.149529
v -0.110178 -0.033432 -0.154834
v -0.124208 -0.013152 -0.156558
v -0.124208 0.011441 -0.154042
v -0.110178 0.030953 -0.148246
v -0.087476 0.037930 -0.141385
v -0.064773 0.029708 -0.136079
v -0.050743 0.009427 -0.134356
v -0.050743 -0.015166 -0.136872
v -0.064773 -0.034677 -0.142668
v -0.087476 -0.000307 -0.185427
v -0.110925 0.001104 -0.177727
v -0.125417 0.001381 -0.157701
v -0.125417 0.000420 -0.132998
v -0.110925 -0.001413 -0.113054
v -0.087476 -0.003418 -0.105487
v -0.064026 -0.004828 -0.113187
v -0.049534 -0.005106 -0.133213
v -0.049534 -0.004145 -0.157916
v -0.064026 -0.002312 -0.177860
v -0.065692 0.298378 -0.173804
v -0.089142 0.299788 -0.166104
v -0.103634 0.300066 -0.146078
v -0.103634 0.299105 -0.121375
v -0.089142 0.297272 -0.101431
v -0.065692 0.295267 -0.093864
v -0.042243 0.293856 -0.101564
v -0.027751 0.293579 -0.121590
v -0.027751 0.294540 -0.146293
v -0.042243 0.296373 -0.166236
v 0.011753 -0.040344 0.094991
v 0.003099 -0.038204 0.092447
v -0.002250 -0.031478 0.088968
v -0.002250 -0.022736 0.085883
v 0.003099 -0.015317 0.084369
v 0.011753 -0.012054 0.085006
v 0.020407 -0.014194 0.087550
v 0.025755 -0.020920 0.091029
v 0.025755 -0.029662 0.094115
v 0.020407 -0.037081 0.095628
v 0.019372 -0.053357 0.058124
v 0.010718 -0.051217 0.055580
v 0.005370 -0.044491 0.052100
v 0.005370 -0.035750 0.049015
v 0.010718 -0.028330 0.047501
v 0.019372 -0.025067 0.048138
v 0.028026 -0.027208 0.050682
v 0.033375 -0.033933 0.054161
v 0.033375 -0.042675 0.057247
v 0.028026 -0.050094 0.058760
v 0.019372 -0.054005 0.055615
v 0.011008 -0.050718 0.057892
v 0.005839 -0.043036 0.058351
v 0.005839 -0.033893 0.056815
v 0.011008 -0.026782 0.053872
v 0.019372 -0.024419 0.050647
v 0.027736 -0.027707 0.048370
v 0.032905 -0.035389 0.047911
v 0.032905 -0.044531 0.049447
v 0.027736 -0.051642 0.052389
v 0.009714 -0.058801 0.027060
v 0.001350 -0.055513 0.029337
v -0.003819 -0.047831 0.029796
v -0.003819 -0.038689 0.028260
v 0.001350 -0.031578 0.025318
v 0.009714 -0.029215 0.022092
v 0.018077 -0.032502 0.019815
v 0.023246 -0.040184 0.019356
v 0.023246 -0.049327 0.020892
v 0.018077 -0.056438 0.023835
v 0.009714 -0.058849 0.026756
v 0.001418 -0.055580 0.029294
v -0.003709 -0.047892 0.030030
v -0.003709 -0.038720 0.028683
v 0.001418 -0.031567 0.025767
v 0.009714 -0.029167 0.022396
v 0.018009 -0.032436 0.019858
v 0.023136 -0.040124 0.019122
v 0.023136 -0.049296 0.020469
v 0.018009 -0.056448 0.023385
v -0.002238 -0.063674 -0.006093
v -0.010534 -0.060406 -0.003554
v -0.015661 -0.052717 -0.002819
v -0.015661 -0.043545 -0.004166
v -0.010534 -0.036393 -0.007082
v -0.002238 -0.033993 -0.010453
v 0.006057 -0.037261 -0.012991
v 0.011184 -0.044950 -0.013727
v 0.011184 -0.054122 -0.012380
v 0.006057 -0.061274 -0.009464
v -0.002238 -0.063549 -0.011181
v -0.010008 -0.061547 -0.006537
v -0.014809 -0.054688 -0.002555
v -0.014809 -0.045594 -0.000758
v -0.010008 -0.037737 -0.001831
v -0.002238 -0.034118 -0.005365
v 0.005531 -0.036120 -0.010009
v 0.010332 -0.042979 -0.013990
v 0.010332 -0.052073 -0.015788
v 0.005531 -0.059930 -0.014715
v -0.015402 -0.058792 -0.035252
v -0.023172 -0.056789 -0.030608
v -0.027973 -0.049931 -0.026626
v -0.027973 -0.040836 -0.024829
v -0.023172 -0.032979 -0.025902
v -0.015402 -0.029361 -0.029436
v -0.007633 -0.031363 -0.034080
v -0.002831 -0.038221 -0.038062
v -0.002831 -0.047316 -0.039859
v -0.007633 -0.055173 -0.038786
v 0.011753 -0.040970 0.087387
v 0.002936 -0.038151 0.087900
v -0.002513 -0.030767 0.089215
v -0.002513 -0.021639 0.090829
v 0.002936 -0.014252 0.092126
v 0.011753 -0.011428 0.092611
v 0.020569 -0.014247 0.092098
v 0.026019 -0.021630 0.090783
v 0.026019 -0.030759 0.089169
v 0.020569 -0.038146 0.087871
v 0.011586 -0.023180 -0.013220
v 0.002769 -0.020361 -0.012707
v -0.002680 -0.012977 -0.011392
v -0.002680 -0.003848 -0.009778
v 0.002769 0.003539 -0.008480
v 0.011586 0.006362 -0.007996
v 0.020402 0.003544 -0.008509
v 0.025851 -0.003840 -0.009823
v 0.025851 -0.012969 -0.011438
v 0.020402 -0.020356 -0.012735
v 0.011586 -0.015884 0.002397
v 0.005003 -0.009371 0.002836
v 0.000934 -0.002491 -0.001860
v 0.000934 0.002129 -0.009897
v 0.005003 0.002724 -0.018206
v 0.011586 -0.000934 -0.023613
v 0.018169 -0.007447 -0.024052
v 0.022237 -0.014327 -0.019356
v 0.022237 -0.018947 -0.011318
v 0.018169 -0.019541 -0.003009
v -0.002849 -0.029930 -0.005676
v -0.009432 -0.023417 -0.005237
v -0.013501 -0.016537 -0.009933
v -0.013501 -0.011917 -0.017971
v -0.009432 -0.011323 -0.026279
v -0.002849 -0.014980 -0.031686
v 0.003733 -0.021493 -0.032125
v 0.007802 -0.028373 -0.027429
v 0.007802 -0.032993 -0.019391
v 0.003733 -0.033588 -0.011083
v -0.002849 -0.008760 -0.012563
v -0.011660 -0.011246 -0.014022
v -0.017106 -0.018013 -0.017260
v -0.017106 -0.026477 -0.021042
v -0.011660 -0.033405 -0.023921
v -0.002849 -0.036151 -0.024799
v 0.005962 -0.033665 -0.023340
v 0.011407 -0.026897 -0.020102
v 0.011407 -0.018433 -0.016320
v 0.005962 -0.011505 -0.013441
v -0.003471 -0.015776 0.003143
v -0.012282 -0.018262 0.001684
v -0.017727 -0.025029 -0.001555
v -0.017727 -0.033494 -0.005336
v -0.012282 -0.040421 -0.008216
v -0.003471 -0.043167 -0.009094
v 0.005340 -0.040681 -0.007635
v 0.010786 -0.033913 -0.004396
v 0.010786 -0.025449 -0.000615
v 0.005340 -0.018521 0.002265
v -0.003471 -0.014492 -0.003758
v -0.011927 -0.017222 -0.001118
v -0.017154 -0.024632 0.000813
v -0.017154 -0.033890 0.001296
v -0.011927 -0.041460 0.000149
v -0.003471 -0.044451 -0.002193
v 0.004986 -0.041720 -0.004833
v 0.010213 -0.034311 -0.006764
v 0.010213 -0.025053 -0.007248
v 0.004986 -0.017483 -0.006100
v 0.002258 -0.013478 0.015636
v -0.006199 -0.016209 0.018277
v -0.011426 -0.023618 0.020208
v -0.011426 -0.032876 0.020691
v -0.006199 -0.040446 0.019543
v 0.002258 -0.043437 0.017202
v 0.010714 -0.040707 0.014562
v 0.015941 -0.033297 0.012631
v 0.015941 -0.024039 0.012147
v 0.010714 -0.016469 0.013295
v 0.011753 -0.040611 0.085841
v 0.002957 -0.038028 0.087222
v -0.002479 -0.030926 0.089663
v -0.002479 -0.022019 0.092232
v 0.002957 -0.014708 0.093948
v 0.011753 -0.011787 0.094156
v 0.020548 -0.014370 0.092776
v 0.025984 -0.021472 0.090335
v 0.025984 -0.030379 0.087765
v 0.020548 -0.037690 0.086049
v 0.005199 -0.014427 -0.004931
v -0.003597 -0.011844 -0.003551
v -0.009033 -0.004742 -0.001110
v -0.009033 0.004165 0.001460
v -0.003597 0.011476 0.003176
v 0.005199 0.014398 0.003384
v 0.013995 0.011814 0.002004
v 0.019431 0.004713 -0.000437
v 0.019431 -0.004195 -0.003007
v 0.013995 -0.011505 -0.004723
v 0.005199 -0.014563 0.002878
v -0.000260 -0.010099 0.008896
v -0.003634 -0.001783 0.011220
v -0.003634 0.007208 0.008963
v -0.000260 0.013441 0.002987
v 0.005199 0.014534 -0.004425
v 0.010658 0.010070 -0.010443
v 0.014032 0.001754 -0.012767
v 0.014032 -0.007238 -0.010510
v 0.010658 -0.013470 -0.004534
v -0.012815 -0.018021 -0.010898
v -0.018274 -0.013557 -0.004881
v -0.021648 -0.005241 -0.002556
v -0.021648 0.003750 -0.004813
v -0.018274 0.009983 -0.010789
v -0.012815 0.011076 -0.018202
v -0.007356 0.006612 -0.024220
v -0.003982 -0.001704 -0.026544
v -0.003982 -0.010696 -0.024287
v -0.007356 -0.016928 -0.018311
v -0.012815 0.008031 -0.004924
v -0.021555 0.005085 -0.005868
v -0.026956 -0.001129 -0.010128
v -0.026956 -0.008239 -0.016078
v -0.021555 -0.013528 -0.021444
v -0.012815 -0.014976 -0.024177
v -0.004076 -0.012031 -0.023233
v 0.001325 -0.005817 -0.018972
v 0.001325 0.001293 -0.013023
v -0.004076 0.006582 -0.007657
v -0.009086 -0.009904 0.016509
v -0.017825 -0.012850 0.015565
v -0.023226 -0.019064 0.011304
v -0.023226 -0.026174 0.005355
v -0.017825 -0.031463 -0.000011
v -0.009086 -0.032911 -0.002744
v -0.000346 -0.029966 -0.001800
v 0.005055 -0.023752 0.002460
v 0.005055 -0.016642 0.008410
v -0.000346 -0.011353 0.013776
v -0.009086 -0.008134 -0.000104
v -0.017437 -0.009353 0.003731
v -0.022599 -0.015177 0.008769
v -0.022599 -0.023380 0.013087
v -0.017437 -0.030830 0.015035
v -0.009086 -0.034682 0.013869
v -0.000734 -0.033463 0.010034
v 0.004428 -0.027639 0.004995
v 0.004428 -0.019435 0.000678
v -0.000734 -0.011985 -0.001270
v -0.000766 0.003319 0.021657
v -0.009118 0.002100 0.025491
v -0.014279 -0.003724 0.030530
v -0.014279 -0.011927 0.034848
v -0.009118 -0.019378 0.036795
v -0.000766 -0.023229 0.035629
v 0.007586 -0.022010 0.031794
v 0.012748 -0.016186 0.026756
v 0.012748 -0.007983 0.022438
v 0.007586 -0.000532 0.020490
v 0.011753 -0.040153 0.084495
v 0.003082 -0.038075 0.087035
v -0.002276 -0.031461 0.090707
v -0.002276 -0.022837 0.094109
v 0.003082 -0.015497 0.095940
v 0.011753 -0.012245 0.095502
v 0.020423 -0.014323 0.092962
v 0.025781 -0.020937 0.089290
v 0.025781 -0.029561 0.085889
v 0.020423 -0.036901 0.084057
v -0.004933 -0.006992 0.000422
v -0.013603 -0.004915 0.002962
v -0.018962 0.001699 0.006634
v -0.018962 0.010323 0.010035
v -0.013603 0.017663 0.011867
v -0.004933 0.020915 0.011429
v 0.003738 0.018838 0.008889
v 0.009096 0.012224 0.005217
v 0.009096 0.003600 0.001815
v 0.003738 -0.003740 -0.000016
v -0.004933 -0.000896 0.018702
v -0.011540 0.005577 0.019320
v -0.015623 0.012580 0.014822
v -0.015623 0.017436 0.006925
v -0.011540 0.018291 -0.001353
v -0.004933 0.014819 -0.006852
v 0.001674 0.008346 -0.007470
v 0.005758 0.001343 -0.002971
v 0.005758 -0.003513 0.004925
v 0.001674 -0.004368 0.013204
v -0.022507 -0.017839 0.008283
v -0.029114 -0.011365 0.008901
v -0.033198 -0.004363 0.004403
v -0.033198 0.000494 -0.003494
v -0.029114 0.001349 -0.011773
v -0.022507 -0.002123 -0.017271
v -0.015900 -0.008597 -0.017889
v -0.011817 -0.015599 -0.013391
v -0.011817 -0.020455 -0.005494
v -0.015900 -0.021311 0.002785
v -0.022507 0.003274 0.002529
v -0.031322 0.000831 0.001020
v -0.036770 -0.005742 -0.002595
v -0.036770 -0.013933 -0.006935
v -0.031322 -0.020615 -0.010343
v -0.022507 -0.023235 -0.011517
v -0.013693 -0.020793 -0.010008
v -0.008245 -0.014220 -0.006393
v -0.008245 -0.006028 -0.002053
v -0.013693 0.000654 0.001355
v -0.023047 -0.008488 0.024728
v -0.031862 -0.010931 0.023220
v -0.037309 -0.017504 0.019605
v -0.037309 -0.025695 0.015265
v -0.031862 -0.032377 0.011857
v -0.023047 -0.034997 0.010683
v -0.014232 -0.032555 0.012192
v -0.008784 -0.025982 0.015806
v -0.008784 -0.017790 0.020147
v -0.014232 -0.011108 0.023554
v -0.023047 -0.006905 0.015508
v -0.031464 -0.009354 0.018523
v -0.036667 -0.016536 0.021225
v -0.036667 -0.025706 0.022583
v -0.031464 -0.033363 0.022078
v -0.023047 -0.036581 0.019903
v -0.014629 -0.034132 0.016889
v -0.009427 -0.026950 0.014187
v -0.009427 -0.017779 0.012828
v -0.014629 -0.010123 0.013333
v -0.015700 -0.003450 0.038832
v -0.024117 -0.005900 0.041847
v -0.029319 -0.013081 0.044549
v -0.029319 -0.022252 0.045907
v -0.024117 -0.029908 0.045403
v -0.015700 -0.033127 0.043228
v -0.007282 -0.030677 0.040213
v -0.002080 -0.023495 0.037511
v -0.002080 -0.014325 0.036153
v -0.007282 -0.006668 0.036657
v 0.011753 -0.040034 0.084202
v 0.003341 -0.038413 0.087747
v -0.001857 -0.032127 0.092151
v -0.001857 -0.023576 0.095734
v 0.003341 -0.016028 0.097126
v 0.011753 -0.012364 0.095795
v 0.020164 -0.013985 0.092251
v 0.025363 -0.020271 0.087846
v 0.025363 -0.028822 0.084263
v 0.020164 -0.036370 0.082872
v -0.012608 -0.010070 0.012690
v -0.021020 -0.008449 0.016235
v -0.026218 -0.002163 0.020640
v -0.026218 0.006387 0.024222
v -0.021020 0.013936 0.025614
v -0.012608 0.017599 0.024284
v -0.004197 0.015978 0.020739
v 0.001001 0.009692 0.016334
v 0.001001 0.001142 0.012752
v -0.004197 -0.006407 0.011360
v -0.012608 -0.002708 0.032019
v -0.019186 0.003825 0.031968
v -0.023251 0.010334 0.026768
v -0.023251 0.014334 0.018404
v -0.019186 0.014297 0.010073
v -0.012608 0.010237 0.004955
v -0.006031 0.003705 0.005006
v -0.001965 -0.002805 0.010207
v -0.001965 -0.006805 0.018570
v -0.006031 -0.006768 0.026901
v -0.028167 -0.018433 0.024497
v -0.034745 -0.011901 0.024446
v -0.038810 -0.005392 0.019246
v -0.038810 -0.001391 0.010883
v -0.034745 -0.001429 0.002551
v -0.028167 -0.005489 -0.002566
v -0.021590 -0.012021 -0.002515
v -0.017524 -0.018531 0.002685
v -0.017524 -0.022531 0.011048
v -0.021590 -0.022494 0.019379
v -0.028167 -0.001087 0.021298
v -0.036914 -0.003930 0.020130
v -0.042320 -0.009840 0.015462
v -0.042320 -0.016560 0.009076
v -0.036914 -0.021524 0.003412
v -0.028167 -0.022835 0.000633
v -0.019421 -0.019992 0.001800
v -0.014015 -0.014083 0.006469
v -0.014015 -0.007362 0.012855
v -0.019421 -0.002399 0.018519
v -0.025923 -0.013257 0.034105
v -0.034669 -0.016099 0.032937
v -0.040075 -0.022009 0.028268
v -0.040075 -0.028730 0.021883
v -0.034669 -0.033693 0.016218
v -0.025923 -0.035004 0.013439
v -0.017176 -0.032162 0.014607
v -0.011771 -0.026252 0.019275
v -0.011771 -0.019532 0.025661
v -0.017176 -0.014568 0.031326
v -0.025923 -0.009807 0.019319
v -0.032923 -0.010951 0.025288
v -0.037249 -0.017130 0.030678
v -0.037249 -0.025982 0.033430
v -0.032923 -0.034128 0.032493
v -0.025923 -0.038455 0.028225
v -0.018922 -0.037310 0.022256
v -0.014596 -0.031132 0.016866
v -0.014596 -0.022279 0.014114
v -0.018922 -0.014134 0.015051
v -0.012935 -0.004772 0.035516
v -0.019935 -0.005916 0.041485
v -0.024262 -0.012095 0.046875
v -0.024262 -0.020947 0.049627
v -0.019935 -0.029093 0.048690
v -0.012935 -0.033419 0.044422
v -0.005935 -0.032275 0.038453
v -0.001608 -0.026097 0.033063
v -0.001608 -0.017244 0.030311
v -0.005935 -0.009099 0.031248
v 0.024430 0.002684 0.099185
v 0.015773 0.005659 0.097719
v 0.010423 0.010660 0.092035
v 0.010423 0.015777 0.084304
v 0.015773 0.019056 0.077480
v 0.024430 0.019244 0.074169
v 0.033087 0.016269 0.075636
v 0.038437 0.011268 0.081320
v 0.038437 0.006151 0.089050
v 0.033087 0.002872 0.095874
v 0.018150 -0.024446 0.081226
v 0.009493 -0.021471 0.079759
v 0.004142 -0.016470 0.074075
v 0.004142 -0.011353 0.066345
v 0.009493 -0.008075 0.059521
v 0.018150 -0.007887 0.056210
v 0.026807 -0.010861 0.057676
v 0.032157 -0.015862 0.063360
v 0.032157 -0.020979 0.071091
v 0.026807 -0.024258 0.077915
v 0.018150 -0.029060 0.076382
v 0.009799 -0.025152 0.077351
v 0.004638 -0.017812 0.075021
v 0.004638 -0.009843 0.070284
v 0.009799 -0.004289 0.064949
v 0.018150 -0.003272 0.061053
v 0.026500 -0.007181 0.060085
v 0.031661 -0.014521 0.062414
v 0.031661 -0.022490 0.067151
v 0.026500 -0.028043 0.072487
v 0.008520 -0.043583 0.051951
v 0.000169 -0.039675 0.052919
v -0.004992 -0.032335 0.050590
v -0.004992 -0.024366 0.045853
v 0.000169 -0.018812 0.040518
v 0.008520 -0.017795 0.036622
v 0.016870 -0.021704 0.035653
v 0.022031 -0.029044 0.037983
v 0.022031 -0.037013 0.042720
v 0.016870 -0.042566 0.048055
v 0.008520 -0.045199 0.048090
v 0.001195 -0.041184 0.052110
v -0.003333 -0.033160 0.053142
v -0.003333 -0.024192 0.050791
v 0.001195 -0.017706 0.045956
v 0.008520 -0.016180 0.040483
v 0.015845 -0.020195 0.036463
v 0.020372 -0.028219 0.035431
v 0.020372 -0.037186 0.037781
v 0.015845 -0.043672 0.042617
v -0.011024 -0.052596 0.019869
v -0.018349 -0.048581 0.023889
v -0.022876 -0.040557 0.024921
v -0.022876 -0.031590 0.022570
v -0.018349 -0.025104 0.017735
v -0.011024 -0.023577 0.012262
v -0.003699 -0.027592 0.008242
v 0.000828 -0.035616 0.007210
v 0.000828 -0.044584 0.009560
v -0.003699 -0.051070 0.014396
v -0.011024 -0.053010 0.014547
v -0.018299 -0.050664 0.019793
v -0.022794 -0.043514 0.023615
v -0.022794 -0.034291 0.024554
v -0.018299 -0.026518 0.022250
v -0.011024 -0.023164 0.017584
v -0.003750 -0.025509 0.012337
v 0.000746 -0.032659 0.008515
v 0.000746 -0.041882 0.007577
v -0.003750 -0.049655 0.009881
v -0.029132 -0.050333 -0.011758
v -0.036406 -0.047987 -0.006512
v -0.040902 -0.040838 -0.002690
v -0.040902 -0.031615 -0.001751
v -0.036406 -0.023842 -0.004055
v -0.029132 -0.020487 -0.008721
v -0.021857 -0.022833 -0.013968
v -0.017361 -0.029983 -0.017790
v -0.017361 -0.039206 -0.018728
v -0.021857 -0.046979 -0.016424
v 0.024430 -0.003592 0.090298
v 0.015840 -0.000333 0.091533
v 0.010531 0.007241 0.090913
v 0.010531 0.016238 0.088676
v 0.015840 0.023220 0.085675
v 0.024430 0.025521 0.083056
v 0.033020 0.022261 0.081821
v 0.038329 0.014687 0.082441
v 0.038329 0.005690 0.084678
v 0.033020 -0.001292 0.087680
v 0.002760 -0.026224 -0.000691
v -0.005830 -0.022965 0.000544
v -0.011140 -0.015390 -0.000075
v -0.011140 -0.006394 -0.002313
v -0.005830 0.000588 -0.005314
v 0.002760 0.002889 -0.007932
v 0.011350 -0.000370 -0.009167
v 0.016659 -0.007945 -0.008548
v 0.016659 -0.016941 -0.006310
v 0.011350 -0.023923 -0.003309
v 0.002760 -0.008647 0.010381
v -0.003184 -0.002845 0.006264
v -0.006858 -0.000413 -0.001893
v -0.006858 -0.002280 -0.010974
v -0.003184 -0.007733 -0.017510
v 0.002760 -0.014688 -0.019004
v 0.008704 -0.020489 -0.014887
v 0.012377 -0.022921 -0.006730
v 0.012377 -0.021055 0.002350
v 0.008704 -0.015602 0.008886
v -0.015380 -0.024865 0.013715
v -0.021324 -0.019064 0.009598
v -0.024997 -0.016632 0.001441
v -0.024997 -0.018499 -0.007639
v -0.021324 -0.023951 -0.014175
v -0.015380 -0.030906 -0.015670
v -0.009436 -0.036708 -0.011553
v -0.005762 -0.039140 -0.003396
v -0.005762 -0.037273 0.005684
v -0.009436 -0.031821 0.012220
v -0.015380 -0.015750 0.007839
v -0.024066 -0.017181 0.004934
v -0.029435 -0.022701 -0.000228
v -0.029435 -0.030201 -0.005677
v -0.024066 -0.036817 -0.009330
v -0.015380 -0.040022 -0.009794
v -0.006693 -0.038591 -0.006889
v -0.001324 -0.033071 -0.001727
v -0.001324 -0.025570 0.003722
v -0.006693 -0.018955 0.007375
v -0.019207 -0.028704 0.025670
v -0.027894 -0.030135 0.022766
v -0.033263 -0.035655 0.017603
v -0.033263 -0.043155 0.012155
v -0.027894 -0.049771 0.008501
v -0.019207 -0.052975 0.008038
v -0.010520 -0.051544 0.010942
v -0.005152 -0.046025 0.016104
v -0.005152 -0.038524 0.021553
v -0.010520 -0.031908 0.025207
v -0.019207 -0.026600 0.021569
v -0.028023 -0.029363 0.020799
v -0.033471 -0.036509 0.018522
v -0.033471 -0.045310 0.015608
v -0.028023 -0.052403 0.013169
v -0.019207 -0.055079 0.012138
v -0.010392 -0.052317 0.012909
v -0.004943 -0.045170 0.015186
v -0.004943 -0.036370 0.018100
v -0.010392 -0.029277 0.020538
v -0.018817 -0.034485 0.045379
v -0.027632 -0.037248 0.044609
v -0.033081 -0.044394 0.042332
v -0.033081 -0.053195 0.039417
v -0.027632 -0.060288 0.036979
v -0.018817 -0.062964 0.035948
v -0.010001 -0.060201 0.036718
v -0.004553 -0.053055 0.038996
v -0.004553 -0.044254 0.041910
v -0.010001 -0.037161 0.044348
v 0.024430 -0.003858 0.088983
v 0.015940 -0.000661 0.090892
v 0.010693 0.006975 0.091191
v 0.010693 0.016136 0.089765
v 0.015940 0.023321 0.087160
v 0.024430 0.025786 0.084371
v 0.032920 0.022590 0.082462
v 0.038167 0.014953 0.082163
v 0.038167 0.005793 0.083589
v 0.032920 -0.001392 0.086194
v -0.000664 -0.017637 0.000430
v -0.009155 -0.014441 0.002338
v -0.014402 -0.006804 0.002637
v -0.014402 0.002356 0.001211
v -0.009155 0.009541 -0.001394
v -0.000664 0.012006 -0.004183
v 0.007826 0.008810 -0.006092
v 0.013073 0.001173 -0.006390
v 0.013073 -0.007987 -0.004965
v 0.007826 -0.015172 -0.002360
v -0.000664 -0.004591 0.013018
v -0.008810 -0.000902 0.010573
v -0.013844 0.002057 0.003372
v -0.013844 0.003154 -0.005833
v -0.008810 0.001971 -0.013527
v -0.000664 -0.001040 -0.016771
v 0.007481 -0.004729 -0.014326
v 0.012516 -0.007688 -0.007126
v 0.012516 -0.008785 0.002080
v 0.007481 -0.007602 0.009774
v -0.006823 -0.019354 0.011258
v -0.014968 -0.015665 0.008813
v -0.020003 -0.012706 0.001612
v -0.020003 -0.011609 -0.007593
v -0.014968 -0.012792 -0.015287
v -0.006823 -0.015803 -0.018531
v 0.001323 -0.019493 -0.016086
v 0.006357 -0.022451 -0.008885
v 0.006357 -0.023548 0.000320
v 0.001323 -0.022365 0.008014
v -0.006823 -0.003662 0.001961
v -0.015456 -0.005652 -0.000768
v -0.020792 -0.012198 -0.004593
v -0.020792 -0.020799 -0.008052
v -0.015456 -0.028170 -0.009825
v -0.006823 -0.031495 -0.009234
v 0.001811 -0.029505 -0.006505
v 0.007146 -0.022959 -0.002680
v 0.007146 -0.014358 0.000779
v 0.001811 -0.006988 0.002552
v -0.011851 -0.012716 0.024472
v -0.020484 -0.014706 0.021743
v -0.025820 -0.021252 0.017918
v -0.025820 -0.029853 0.014459
v -0.020484 -0.037224 0.012686
v -0.011851 -0.040549 0.013277
v -0.003218 -0.038559 0.016006
v 0.002118 -0.032013 0.019831
v 0.002118 -0.023412 0.023290
v -0.003218 -0.016041 0.025063
v -0.011851 -0.011725 0.017210
v -0.019729 -0.014133 0.021462
v -0.024599 -0.021315 0.024725
v -0.024599 -0.030529 0.025754
v -0.019729 -0.038254 0.024155
v -0.011851 -0.041540 0.020539
v -0.003973 -0.039132 0.016287
v 0.000896 -0.031950 0.013024
v 0.000896 -0.022736 0.011995
v -0.003973 -0.015011 0.013594
v 0.001984 -0.008670 0.044578
v -0.005894 -0.011078 0.048830
v -0.010763 -0.018260 0.052093
v -0.010763 -0.027473 0.053122
v -0.005894 -0.035199 0.051522
v 0.001984 -0.038485 0.047906
v 0.009863 -0.036077 0.043655
v 0.014732 -0.028895 0.040392
v 0.014732 -0.019681 0.039363
v 0.009863 -0.011956 0.040962
v 0.024430 -0.004014 0.087488
v 0.015959 -0.001021 0.089773
v 0.010723 0.006549 0.090876
v 0.010723 0.015806 0.090374
v 0.015959 0.023214 0.088461
v 0.024430 0.025942 0.085866
v 0.032901 0.022950 0.083581
v 0.038137 0.015379 0.082479
v 0.038137 0.006122 0.082980
v 0.032901 -0.001286 0.084893
v -0.000667 -0.008718 0.000605
v -0.009139 -0.005725 0.002890
v -0.014374 0.001845 0.003992
v -0.014374 0.011102 0.003491
v -0.009139 0.018510 0.001578
v -0.000667 0.021238 -0.001017
v 0.007804 0.018245 -0.003302
v 0.013040 0.010675 -0.004405
v 0.013040 0.001418 -0.003904
v 0.007804 -0.005990 -0.001990
v -0.000667 0.010919 0.014052
v -0.007368 0.015477 0.009549
v -0.011509 0.016513 0.001320
v -0.011509 0.013634 -0.007492
v -0.007368 0.007937 -0.013521
v -0.000667 0.001601 -0.014464
v 0.006034 -0.002956 -0.009961
v 0.010175 -0.003993 -0.001732
v 0.010175 -0.001113 0.007080
v 0.006034 0.004583 0.013109
v -0.015451 -0.005512 0.019421
v -0.022151 -0.000955 0.014918
v -0.026292 0.000082 0.006689
v -0.026292 -0.002798 -0.002123
v -0.022151 -0.008494 -0.008152
v -0.015451 -0.014831 -0.009095
v -0.008750 -0.019388 -0.004592
v -0.004609 -0.020424 0.003638
v -0.004609 -0.017545 0.012449
v -0.008750 -0.011849 0.018478
v -0.015451 0.004202 0.009453
v -0.024186 0.001114 0.009782
v -0.029584 -0.006284 0.008347
v -0.029584 -0.015167 0.005695
v -0.024186 -0.022142 0.002841
v -0.015451 -0.024545 0.000873
v -0.006716 -0.021457 0.000545
v -0.001317 -0.014058 0.001980
v -0.001317 -0.005175 0.004631
v -0.006716 0.001800 0.007486
v -0.012946 -0.001020 0.026949
v -0.021681 -0.004108 0.027278
v -0.027080 -0.011506 0.025843
v -0.027080 -0.020389 0.023191
v -0.021681 -0.027364 0.020337
v -0.012946 -0.029767 0.018369
v -0.004211 -0.026679 0.018041
v 0.001187 -0.019280 0.019476
v 0.001187 -0.010397 0.022127
v -0.004211 -0.003422 0.024982
v -0.012946 -0.001070 0.018204
v -0.021555 -0.003241 0.020870
v -0.026876 -0.010054 0.024220
v -0.026876 -0.018906 0.026973
v -0.021555 -0.026416 0.028079
v -0.012946 -0.029716 0.027115
v -0.004337 -0.027545 0.024449
v 0.000984 -0.020733 0.021099
v 0.000984 -0.011881 0.018346
v -0.004337 -0.004370 0.017240
v -0.008458 0.004967 0.037612
v -0.017068 0.002796 0.040278
v -0.022389 -0.004016 0.043627
v -0.022389 -0.012869 0.046381
v -0.017068 -0.020379 0.047487
v -0.008458 -0.023679 0.046523
v 0.000151 -0.021508 0.043857
v 0.005472 -0.014696 0.040507
v 0.005472 -0.005844 0.037753
v 0.000151 0.001667 0.036648
v 0.024430 -0.004026 0.086122
v 0.016388 -0.001297 0.089840
v 0.011418 0.006116 0.092350
v 0.011418 0.015380 0.092693
v 0.016388 0.022957 0.090738
v 0.024430 0.025954 0.087232
v 0.032472 0.023225 0.083514
v 0.037442 0.015813 0.081004
v 0.037442 0.006548 0.080661
v 0.032472 -0.001029 0.082616
v -0.005972 -0.001523 0.018527
v -0.014014 0.001206 0.022245
v -0.018984 0.008618 0.024755
v -0.018984 0.017882 0.025097
v -0.014014 0.025460 0.023143
v -0.005972 0.028456 0.019637
v 0.002070 0.025727 0.015919
v 0.007040 0.018315 0.013409
v 0.007040 0.009051 0.013066
v 0.002070 0.001473 0.015021
v -0.005972 0.013886 0.034076
v -0.012462 0.019772 0.031045
v -0.016473 0.023249 0.023445
v -0.016473 0.022990 0.014178
v -0.012462 0.019093 0.006784
v -0.005972 0.013047 0.004087
v 0.000517 0.007161 0.007118
v 0.004528 0.003684 0.014718
v 0.004528 0.003943 0.023985
v 0.000517 0.007840 0.031379
v -0.016531 0.002409 0.034397
v -0.023021 0.008295 0.031366
v -0.027032 0.011772 0.023766
v -0.027032 0.011513 0.014499
v -0.023021 0.007617 0.007105
v -0.016531 0.001570 0.004408
v -0.010041 -0.004315 0.007439
v -0.006031 -0.007793 0.015039
v -0.006031 -0.007534 0.024306
v -0.010041 -0.003637 0.031700
v -0.016531 0.015471 0.025979
v -0.025291 0.012458 0.025622
v -0.030705 0.005446 0.022889
v -0.030705 -0.002886 0.018825
v -0.025291 -0.009355 0.014981
v -0.016531 -0.011492 0.012826
v -0.007771 -0.008479 0.013183
v -0.002357 -0.001467 0.015916
v -0.002357 0.006865 0.019981
v -0.007771 0.013335 0.023824
v -0.014180 0.006443 0.044488
v -0.022940 0.003429 0.044130
v -0.028354 -0.003582 0.041398
v -0.028354 -0.011914 0.037333
v -0.022940 -0.018384 0.033490
v -0.014180 -0.020520 0.031335
v -0.005420 -0.017507 0.031692
v -0.000006 -0.010496 0.034425
v -0.000006 -0.002164 0.038489
v -0.005420 0.004306 0.042333
v -0.014180 0.007937 0.037065
v -0.022895 0.005152 0.038559
v -0.028282 -0.002289 0.039806
v -0.028282 -0.011545 0.040329
v -0.022895 -0.019080 0.039929
v -0.014180 -0.022015 0.038757
v -0.005465 -0.019230 0.037263
v -0.000079 -0.011789 0.036016
v -0.000079 -0.002533 0.035493
v -0.005465 0.005002 0.035894
v -0.011517 0.008918 0.054424
v -0.020232 0.006133 0.055919
v -0.025619 -0.001308 0.057165
v -0.025619 -0.010564 0.057688
v -0.020232 -0.018099 0.057288
v -0.011517 -0.021034 0.056117
v -0.002802 -0.018249 0.054622
v 0.002584 -0.010808 0.053376
v 0.002584 -0.001552 0.052853
v -0.002802 0.005983 0.053253
f 1 2 13
f 2 14 13
f 2 3 14
f 3 15 14
f 3 4 15
f 4 16 15
f 4 5 16
f 5 17 16
f 5 6 17
f 6 18 17
f 6 7 18
f 7 19 18
f 7 8 19
f 8 20 19
f 8 9 20
f 9 21 20
f 9 10 21
f 10 22 21
f 10 11 22
f 11 23 22
f 11 12 23
f 12 24 23
f 13 14 25
f 14 26 25
f 14 15 26
f 15 27 26
f 15 16 27
f 16 28 27
f 16 17 28
f 17 29 28
f 17 18 29
f 18 30 29
f 18 19 30
f 19 31 30
f 19 20 31
f 20 32 31
f 20 21 32
f 21 33 32
f 21 22 33
f 22 34 33
f 22 23 34
f 23 35 34
f 23 24 35
f 24 36 35
f 25 26 37
f 26 38 37
f 26 27 38
f 27 39 38
f 27 28 39
f 28 40 39
f 28 29 40
f 29 41 40
f 29 30 41
f 30 42 41
f 30 31 42
f 31 43 42
f 31 32 43
f 32 44 43
f 32 33 44
f 33 45 44
f 33 34 45
f 34 46 45
f 34 35 46
f 35 47 46
f 35 36 47
f 36 48 47
f 37 38 49
f 38 50 49
f 38 39 50
f 39 51 50
f 39 40 51
f 40 52 51
f 40 41 52
f 41 53 52
f 41 42 53
f 42 54 53
f 42 43 54
f 43 55 54
f 43 44 55
f 44 56 55
f 44 45 56
f 45 57 56
f 45 46 57
f 46 58 57
f 46 47 58
f 47 59 58
f 47 48 59
f 48 60 59
f 49 50 61
f 50 62 61
f 50 51 62
f 51 63 62
f 51 52 63
f 52 64 63
f 52 53 64
f 53 65 64
f 53 54 65
f 54 66 65
f 54 55 66
f 55 67 66
f 55 56 67
f 56 68 67
f 56 57 68
f 57 69 68
f 57 58 69
f 58 70 69
f 58 59 70
f 59 71 70
f 59 60 71
f 60 72 71
f 61 62 73
f 62 74 73
f 62 63 74
f 63 75 74
f 63 64 75
f 64 76 75
f 64 65 76
f 65 77 76
f 65 66 77
f 66 78 77
f 66 67 78
f 67 79 78
f 67 68 79
f 68 80 79
f 68 69 80
f 69 81 80
f 69 70 81
f 70 82 81
f 70 71 82
f 71 83 82
f 71 72 83
f 72 84 83
f 73 74 85
f 74 86 85
f 74 75 86
f 75 87 86
f 75 76 87
f 76 88 87
f 76 77 88
f 77 89 88
f 77 78 89
f 78 90 89
f 78 79 90
f 79 91 90
f 79 80 91
f 80 92 91
f 80 81 92
f 81 93 92
f 81 82 93
f 82 94 93
f 82 83 94
f 83 95 94
f 83 84 95
f 84 96 95
f 85 86 97
f 86 98 97
f 86 87 98
f 87 99 98
f 87 88 99
f 88 100 99
f 88 89 100
f 89 101 100
f 89 90 101
f 90 102 101
f 90 91 102
f 91 103 102
f 91 92 103
f 92 104 103
f 92 93 104
f 93 105 104
f 93 94 105
f 94 106 105
f 94 95 106
f 95 107 106
f 95 96 107
f 96 108 107
f 97 98 109
f 98 110 109
f 98 99 110
f 99 111 110
f 99 100 111
f 100 112 111
f 100 101 112
f 101 113 112
f 101 102 113
f 102 114 113
f 102 103 114
f 103 115 114
f 103 104 115
f 104 116 115
f 104 105 116
f 105 117 116
f 105 106 117
f 106 118 117
f 106 107 118
f 107 119 118
f 107 108 119
f 108 120 119
f 109 110 121
f 110 122 121
f 110 111 122
f 111 123 122
f 111 112 123
f 112 124 123
f 112 113 124
f 113 125 124
f 113 114 125
f 114 126 125
f 114 115 126
f 115 127 126
f 115 116 127
f 116 128 127
f 116 117 128
f 117 129 128
f 117 118 129
f 118 130 129
f 118 119 130
f 119 131 130
f 119 120 131
f 120 132 131
f 121 122 133
f 122 134 133
f 122 123 134
f 123 135 134
f 123 124 135
f 124 136 135
f 124 125 136
f 125 137 136
f 125 126 137
f 126 138 137
f 126 127 138
f 127 139 138
f 127 128 139
f 128 140 139
f 128 129 140
f 129 141 140
f 129 130 141
f 130 142 141
f 130 131 142
f 131 143 142
f 131 132 143
f 132 144 143
f 145 146 155
f 146 156 155
f 146 147 156
f 147 157 156
f 147 148 157
f 148 158 157
f 148 149 158
f 149 159 158
f 149 150 159
f 150 160 159
f 150 151 160
f 151 161 160
f 151 152 161
f 152 162 161
f 152 153 162
f 153 163 162
f 153 154 163
f 154 164 163
f 154 145 164
f 145 155 164
f 165 166 175
f 166 176 175
f 166 167 176
f 167 177 176
f 167 168 177
f 168 178 177
f 168 169 178
f 169 179 178
f 169 170 179
f 170 180 179
f 170 171 180
f 171 181 180
f 171 172 181
f 172 182 181
f 172 173 182
f 173 183 182
f 173 174 183
f 174 184 183
f 174 165 184
f 165 175 184
f 185 186 195
f 186 196 195
f 186 187 196
f 187 197 196
f 187 188 197
f 188 198 197
f 188 189 198
f 189 199 198
f 189 190 199
f 190 200 199
f 190 191 200
f 191 201 200
f 191 192 201
f 192 202 201
f 192 193 202
f 193 203 202
f 193 194 203
f 194 204 203
f 194 185 204
f 185 195 204
f 205 206 215
f 206 216 215
f 206 207 216
f 207 217 216
f 207 208 217
f 208 218 217
f 208 209 218
f 209 219 218
f 209 210 219
f 210 220 219
f 210 211 220
f 211 221 220
f 211 212 221
f 212 222 221
f 212 213 222
f 213 223 222
f 213 214 223
f 214 224 223
f 214 205 224
f 205 215 224
f 225 226 235
f 226 236 235
f 226 227 236
f 227 237 236
f 227 228 237
f 228 238 237
f 228 229 238
f 229 239 238
f 229 230 239
f 230 240 239
f 230 231 240
f 231 241 240
f 231 232 241
f 232 242 241
f 232 233 242
f 233 243 242
f 233 234 243
f 234 244 243
f 234 225 244
f 225 235 244
f 245 246 255
f 246 256 255
f 246 247 256
f 247 257 256
f 247 248 257
f 248 258 257
f 248 249 258
f 249 259 258
f 249 250 259
f 250 260 259
f 250 251 260
f 251 261 260
f 251 252 261
f 252 262 261
f 252 253 262
f 253 263 262
f 253 254 263
f 254 264 263
f 254 245 264
f 245 255 264
f 265 266 275
f 266 276 275
f 266 267 276
f 267 277 276
f 267 268 277
f 268 278 277
f 268 269 278
f 269 279 278
f 269 270 279
f 270 280 279
f 270 271 280
f 271 281 280
f 271 272 281
f 272 282 281
f 272 273 282
f 273 283 282
f 273 274 283
f 274 284 283
f 274 265 284
f 265 275 284
f 285 286 295
f 286 296 295
f 286 287 296
f 287 297 296
f 287 288 297
f 288 298 297
f 288 289 298
f 289 299 298
f 289 290 299
f 290 300 299
f 290 291 300
f 291 301 300
f 291 292 301
f 292 302 301
f 292 293 302
f 293 303 302
f 293 294 303
f 294 304 303
f 294 285 304
f 285 295 304
f 305 306 315
f 306 316 315
f 306 307 316
f 307 317 316
f 307 308 317
f 308 318 317
f 308 309 318
f 309 319 318
f 309 310 319
f 310 320 319
f 310 311 320
f 311 321 320
f 311 312 321
f 312 322 321
f 312 313 322
f 313 323 322
f 313 314 323
f 314 324 323
f 314 305 324
f 305 315 324
f 325 326 335
f 326 336 335
f 326 327 336
f 327 337 336
f 327 328 337
f 328 338 337
f 328 329 338
f 329 339 338
f 329 330 339
f 330 340 339
f 330 331 340
f 331 341 340
f 331 332 341
f 332 342 341
f 332 333 342
f 333 343 342
f 333 334 343
f 334 344 343
f 334 325 344
f 325 335 344
f 345 346 355
f 346 356 355
f 346 347 356
f 347 357 356
f 347 348 357
f 348 358 357
f 348 349 358
f 349 359 358
f 349 350 359
f 350 360 359
f 350 351 360
f 351 361 360
f 351 352 361
f 352 362 361
f 352 353 362
f 353 363 362
f 353 354 363
f 354 364 363
f 354 345 364
f 345 355 364
f 365 366 375
f 366 376 375
f 366 367 376
f 367 377 376
f 367 368 377
f 368 378 377
f 368 369 378
f 369 379 378
f 369 370 379
f 370 380 379
f 370 371 380
f 371 381 380
f 371 372 381
f 372 382 381
f 372 373 382
f 373 383 382
f 373 374 383
f 374 384 383
f 374 365 384
f 365 375 384
f 385 386 395
f 386 396 395
f 386 387 396
f 387 397 396
f 387 388 397
f 388 398 397
f 388 389 398
f 389 399 398
f 389 390 399
f 390 400 399
f 390 391 400
f 391 401 400
f 391 392 401
f 392 402 401
f 392 393 402
f 393 403 402
f 393 394 403
f 394 404 403
f 394 385 404
f 385 395 404
f 405 406 415
f 406 416 415
f 406 407 416
f 407 417 416
f 407 408 417
f 408 418 417
f 408 409 418
f 409 419 418
f 409 410 419
f 410 420 419
f 410 411 420
f 411 421 420
f 411 412 421
f 412 422 421
f 412 413 422
f 413 423 422
f 413 414 423
f 414 424 423
f 414 405 424
f 405 415 424
f 425 426 435
f 426 436 435
f 426 427 436
f 427 437 436
f 427 428 437
f 428 438 437
f 428 429 438
f 429 439 438
f 429 430 439
f 430 440 439
f 430 431 440
f 431 441 440
f 431 432 441
f 432 442 441
f 432 433 442
f 433 443 442
f 433 434 443
f 434 444 443
f 434 425 444
f 425 435 444
f 445 446 455
f 446 456 455
f 446 447 456
f 447 457 456
f 447 448 457
f 448 458 457
f 448 449 458
f 449 459 458
f 449 450 459
f 450 460 459
f 450 451 460
f 451 461 460
f 451 452 461
f 452 462 461
f 452 453 462
f 453 463 462
f 453 454 463
f 454 464 463
f 454 445 464
f 445 455 464
f 465 466 475
f 466 476 475
f 466 467 476
f 467 477 476
f 467 468 477
f 468 478 477
f 468 469 478
f 469 479 478
f 469 470 479
f 470 480 479
f 470 471 480
f 471 481 480
f 471 472 481
f 472 482 481
f 472 473 482
f 473 483 482
f 473 474 483
f 474 484 483
f 474 465 484
f 465 475 484
f 485 486 495
f 486 496 495
f 486 487 496
f 487 497 496
f 487 488 497
f 488 498 497
f 488 489 498
f 489 499 498
f 489 490 499
f 490 500 499
f 490 491 500
f 491 501 500
f 491 492 501
f 492 502 501
f 492 493 502
f 493 503 502
f 493 494 503
f 494 504 503
f 494 485 504
f 485 495 504
f 505 506 515
f 506 516 515
f 506 507 516
f 507 517 516
f 507 508 517
f 508 518 517
f 508 509 518
f 509 519 518
f 509 510 519
f 510 520 519
f 510 511 520
f 511 521 520
f 511 512 521
f 512 522 521
f 512 513 522
f 513 523 522
f 513 514 523
f 514 524 523
f 514 505 524
f 505 515 524
f 525 526 535
f 526 536 535
f 526 527 536
f 527 537 536
f 527 528 537
f 528 538 537
f 528 529 538
f 529 539 538
f 529 530 539
f 530 540 539
f 530 531 540
f 531 541 540
f 531 532 541
f 532 542 541
f 532 533 542
f 533 543 542
f 533 534 543
f 534 544 543
f 534 525 544
f 525 535 544
f 545 546 555
f 546 556 555
f 546 547 556
f 547 557 556
f 547 548 557
f 548 558 557
f 548 549 558
f 549 559 558
f 549 550 559
f 550 560 559
f 550 551 560
f 551 561 560
f 551 552 561
f 552 562 561
f 552 553 562
f 553 563 562
f 553 554 563
f 554 564 563
f 554 545 564
f 545 555 564
f 565 566 575
f 566 576 575
f 566 567 576
f 567 577 576
f 567 568 577
f 568 578 577
f 568 569 578
f 569 579 578
f 569 570 579
f 570 580 579
f 570 571 580
f 571 581 580
f 571 572 581
f 572 582 581
f 572 573 582
f 573 583 582
f 573 574 583
f 574 584 583
f 574 565 584
f 565 575 584
f 585 586 595
f 586 596 595
f 586 587 596
f 587 597 596
f 587 588 597
f 588 598 597
f 588 589 598
f 589 599 598
f 589 590 599
f 590 600 599
f 590 591 600
f 591 601 600
f 591 592 601
f 592 602 601
f 592 593 602
f 593 603 602
f 593 594 603
f 594 604 603
f 594 585 604
f 585 595 604
f 605 606 615
f 606 616 615
f 606 607 616
f 607 617 616
f 607 608 617
f 608 618 617
f 608 609 618
f 609 619 618
f 609 610 619
f 610 620 619
f 610 611 620
f 611 621 620
f 611 612 621
f 612 622 621
f 612 613 622
f 613 623 622
f 613 614 623
f 614 624 623
f 614 605 624
f 605 615 624
f 625 626 635
f 626 636 635
f 626 627 636
f 627 637 636
f 627 628 637
f 628 638 637
f 628 629 638
f 629 639 638
f 629 630 639
f 630 640 639
f 630 631 640
f 631 641 640
f 631 632 641
f 632 642 641
f 632 633 642
f 633 643 642
f 633 634 643
f 634 644 643
f 634 625 644
f 625 635 644
f 645 646 655
f 646 656 655
f 646 647 656
f 647 657 656
f 647 648 657
f 648 658 657
f 648 649 658
f 649 659 658
f 649 650 659
f 650 660 659
f 650 651 660
f 651 661 660
f 651 652 661
f 652 662 661
f 652 653 662
f 653 663 662
f 653 654 663
f 654 664 663
f 654 645 664
f 645 655 664
f 665 666 675
f 666 676 675
f 666 667 676
f 667 677 676
f 667 668 677
f 668 678 677
f 668 669 678
f 669 679 678
f 669 670 679
f 670 680 679
f 670 671 680
f 671 681 680
f 671 672 681
f 672 682 681
f 672 673 682
f 673 683 682
f 673 674 683
f 674 684 683
f 674 665 684
f 665 675 684
f 685 686 695
f 686 696 695
f 686 687 696
f 687 697 696
f 687 688 697
f 688 698 697
f 688 689 698
f 689 699 698
f 689 690 699
f 690 700 699
f 690 691 700
f 691 701 700
f 691 692 701
f 692 702 701
f 692 693 702
f 693 703 702
f 693 694 703
f 694 704 703
f 694 685 704
f 685 695 704
f 705 706 715
f 706 716 715
f 706 707 716
f 707 717 716
f 707 708 717
f 708 718 717
f 708 709 718
f 709 719 718
f 709 710 719
f 710 720 719
f 710 711 720
f 711 721 720
f 711 712 721
f 712 722 721
f 712 713 722
f 713 723 722
f 713 714 723
f 714 724 723
f 714 705 724
f 705 715 724
f 725 726 735
f 726 736 735
f 726 727 736
f 727 737 736
f 727 728 737
f 728 738 737
f 728 729 738
f 729 739 738
f 729 730 739
f 730 740 739
f 730 731 740
f 731 741 740
f 731 732 741
f 732 742 741
f 732 733 742
f 733 743 742
f 733 734 743
f 734 744 743
f 734 725 744
f 725 735 744
f 745 746 755
f 746 756 755
f 746 747 756
f 747 757 756
f 747 748 757
f 748 758 757
f 748 749 758
f 749 759 758
f 749 750 759
f 750 760 759
f 750 751 760
f 751 761 760
f 751 752 761
f 752 762 761
f 752 753 762
f 753 763 762
f 753 754 763
f 754 764 763
f 754 745 764
f 745 755 764
f 765 766 775
f 766 776 775
f 766 767 776
f 767 777 776
f 767 768 777
f 768 778 777
f 768 769 778
f 769 779 778
f 769 770 779
f 770 780 779
f 770 771 780
f 771 781 780
f 771 772 781
f 772 782 781
f 772 773 782
f 773 783 782
f 773 774 783
f 774 784 783
f 774 765 784
f 765 775 784
f 785 786 795
f 786 796 795
f 786 787 796
f 787 797 796
f 787 788 797
f 788 798 797
f 788 789 798
f 789 799 798
f 789 790 799
f 790 800 799
f 790 791 800
f 791 801 800
f 791 792 801
f 792 802 801
f 792 793 802
f 793 803 802
f 793 794 803
f 794 804 803
f 794 785 804
f 785 795 804
f 805 806 815
f 806 816 815
f 806 807 816
f 807 817 816
f 807 808 817
f 808 818 817
f 808 809 818
f 809 819 818
f 809 810 819
f 810 820 819
f 810 811 820
f 811 821 820
f 811 812 821
f 812 822 821
f 812 813 822
f 813 823 822
f 813 814 823
f 814 824 823
f 814 805 824
f 805 815 824
f 825 826 835
f 826 836 835
f 826 827 836
f 827 837 836
f 827 828 837
f 828 838 837
f 828 829 838
f 829 839 838
f 829 830 839
f 830 840 839
f 830 831 840
f 831 841 840
f 831 832 841
f 832 842 841
f 832 833 842
f 833 843 842
f 833 834 843
f 834 844 843
f 834 825 844
f 825 835 844
f 845 846 855
f 846 856 855
f 846 847 856
f 847 857 856
f 847 848 857
f 848 858 857
f 848 849 858
f 849 859 858
f 849 850 859
f 850 860 859
f 850 851 860
f 851 861 860
f 851 852 861
f 852 862 861
f 852 853 862
f 853 863 862
f 853 854 863
f 854 864 863
f 854 845 864
f 845 855 864
f 865 866 875
f 866 876 875
f 866 867 876
f 867 877 876
f 867 868 877
f 868 878 877
f 868 869 878
f 869 879 878
f 869 870 879
f 870 880 879
f 870 871 880
f 871 881 880
f 871 872 881
f 872 882 881
f 872 873 882
f 873 883 882
f 873 874 883
f 874 884 883
f 874 865 884
f 865 875 884
f 885 886 895
f 886 896 895
f 886 887 896
f 887 897 896
f 887 888 897
f 888 898 897
f 888 889 898
f 889 899 898
f 889 890 899
f 890 900 899
f 890 891 900
f 891 901 900
f 891 892 901
f 892 902 901
f 892 893 902
f 893 903 902
f 893 894 903
f 894 904 903
f 894 885 904
f 885 895 904
f 905 906 915
f 906 916 915
f 906 907 916
f 907 917 916
f 907 908 917
f 908 918 917
f 908 909 918
f 909 919 918
f 909 910 919
f 910 920 919
f 910 911 920
f 911 921 920
f 911 912 921
f 912 922 921
f 912 913 922
f 913 923 922
f 913 914 923
f 914 924 923
f 914 905 924
f 905 915 924
f 925 926 935
f 926 936 935
f 926 927 936
f 927 937 936
f 927 928 937
f 928 938 937
f 928 929 938
f 929 939 938
f 929 930 939
f 930 940 939
f 930 931 940
f 931 941 940
f 931 932 941
f 932 942 941
f 932 933 942
f 933 943 942
f 933 934 943
f 934 944 943
f 934 925 944
f 925 935 944
f 945 946 955
f 946 956 955
f 946 947 956
f 947 957 956
f 947 948 957
f 948 958 957
f 948 949 958
f 949 959 958
f 949 950 959
f 950 960 959
f 950 951 960
f 951 961 960
f 951 952 961
f 952 962 961
f 952 953 962
f 953 963 962
f 953 954 963
f 954 964 963
f 954 945 964
f 945 955 964
f 965 966 975
f 966 976 975
f 966 967 976
f 967 977 976
f 967 968 977
f 968 978 977
f 968 969 978
f 969 979 978
f 969 970 979
f 970 980 979
f 970 971 980
f 971 981 980
f 971 972 981
f 972 982 981
f 972 973 982
f 973 983 982
f 973 974 983
f 974 984 983
f 974 965 984
f 965 975 984
f 985 986 995
f 986 996 995
f 986 987 996
f 987 997 996
f 987 988 997
f 988 998 997
f 988 989 998
f 989 999 998
f 989 990 999
f 990 1000 999
f 990 991 1000
f 991 1001 1000
f 991 992 1001
f 992 1002 1001
f 992 993 1002
f 993 1003 1002
f 993 994 1003
f 994 1004 1003
f 994 985 1004
f 985 995 1004
f 1005 1006 1015
f 1006 1016 1015
f 1006 1007 1016
f 1007 1017 1016
f 1007 1008 1017
f 1008 1018 1017
f 1008 1009 1018
f 1009 1019 1018
f 1009 1010 1019
f 1010 1020 1019
f 1010 1011 1020
f 1011 1021 1020
f 1011 1012 1021
f 1012 1022 1021
f 1012 1013 1022
f 1013 1023 1022
f 1013 1014 1023
f 1014 1024 1023
f 1014 1005 1024
f 1005 1015 1024
f 1025 1026 1035
f 1026 1036 1035
f 1026 1027 1036
f 1027 1037 1036
f 1027 1028 1037
f 1028 1038 1037
f 1028 1029 1038
f 1029 1039 1038
f 1029 1030 1039
f 1030 1040 1039
f 1030 1031 1040
f 1031 1041 1040
f 1031 1032 1041
f 1032 1042 1041
f 1032 1033 1042
f 1033 1043 1042
f 1033 1034 1043
f 1034 1044 1043
f 1034 1025 1044
f 1025 1035 1044
f 1045 1046 1055
f 1046 1056 1055
f 1046 1047 1056
f 1047 1057 1056
f 1047 1048 1057
f 1048 1058 1057
f 1048 1049 1058
f 1049 1059 1058
f 1049 1050 1059
f 1050 1060 1059
f 1050 1051 1060
f 1051 1061 1060
f 1051 1052 1061
f 1052 1062 1061
f 1052 1053 1062
f 1053 1063 1062
f 1053 1054 1063
f 1054 1064 1063
f 1054 1045 1064
f 1045 1055 1064
f 1065 1066 1075
f 1066 1076 1075
f 1066 1067 1076
f 1067 1077 1076
f 1067 1068 1077
f 1068 1078 1077
f 1068 1069 1078
f 1069 1079 1078
f 1069 1070 1079
f 1070 1080 1079
f 1070 1071 1080
f 1071 1081 1080
f 1071 1072 1081
f 1072 1082 1081
f 1072 1073 1082
f 1073 1083 1082
f 1073 1074 1083
f 1074 1084 1083
f 1074 1065 1084
f 1065 1075 1084
f 1085 1086 1095
f 1086 1096 1095
f 1086 1087 1096
f 1087 1097 1096
f 1087 1088 1097
f 1088 1098 1097
f 1088 1089 1098
f 1089 1099 1098
f 1089 1090 1099
f 1090 1100 1099
f 1090 1091 1100
f 1091 1101 1100
f 1091 1092 1101
f 1092 1102 1101
f 1092 1093 1102
f 1093 1103 1102
f 1093 1094 1103
f 1094 1104 1103
f 1094 1085 1104
f 1085 1095 1104
f 1105 1106 1115
f 1106 1116 1115
f 1106 1107 1116
f 1107 1117 1116
f 1107 1108 1117
f 1108 1118 1117
f 1108 1109 1118
f 1109 1119 1118
f 1109 1110 1119
f 1110 1120 1119
f 1110 1111 1120
f 1111 1121 1120
f 1111 1112 1121
f 1112 1122 1121
f 1112 1113 1122
f 1113 1123 1122
f 1113 1114 1123
f 1114 1124 1123
f 1114 1105 1124
f 1105 1115 1124
f 1125 1126 1135
f 1126 1136 1135
f 1126 1127 1136
f 1127 1137 1136
f 1127 1128 1137
f 1128 1138 1137
f 1128 1129 1138
f 1129 1139 1138
f 1129 1130 1139
f 1130 1140 1139
f 1130 1131 1140
f 1131 1141 1140
f 1131 1132 1141
f 1132 1142 1141
f 1132 1133 1142
f 1133 1143 1142
f 1133 1134 1143
f 1134 1144 1143
f 1134 1125 1144
f 1125 1135 1144
f 1145 1146 1155
f 1146 1156 1155
f 1146 1147 1156
f 1147 1157 1156
f 1147 1148 1157
f 1148 1158 1157
f 1148 1149 1158
f 1149 1159 1158
f 1149 1150 1159
f 1150 1160 1159
f 1150 1151 1160
f 1151 1161 1160
f 1151 1152 1161
f 1152 1162 1161
f 1152 1153 1162
f 1153 1163 1162
f 1153 1154 1163
f 1154 1164 1163
f 1154 1145 1164
f 1145 1155 1164
f 1165 1166 1175
f 1166 1176 1175
f 1166 1167 1176
f 1167 1177 1176
f 1167 1168 1177
f 1168 1178 1177
f 1168 1169 1178
f 1169 1179 1178
f 1169 1170 1179
f 1170 1180 1179
f 1170 1171 1180
f 1171 1181 1180
f 1171 1172 1181
f 1172 1182 1181
f 1172 1173 1182
f 1173 1183 1182
f 1173 1174 1183
f 1174 1184 1183
f 1174 1165 1184
f 1165 1175 1184
