# Full-Body 3D Mesh - Frame 174
v 0.019503 -0.625300 -0.106595
v 0.053311 -0.625300 -0.111455
v 0.084380 -0.625300 -0.125644
v 0.110193 -0.625300 -0.148011
v 0.128659 -0.625300 -0.176745
v 0.138282 -0.625300 -0.209517
v 0.138282 -0.625300 -0.243672
v 0.128659 -0.625300 -0.276444
v 0.110193 -0.625300 -0.305178
v 0.084380 -0.625300 -0.327545
v 0.053311 -0.625300 -0.341734
v 0.019503 -0.625300 -0.346595
v 0.019503 -0.625300 -0.106595
v 0.047944 -0.607022 -0.111455
v 0.074081 -0.590225 -0.125644
v 0.095797 -0.576269 -0.148011
v 0.111331 -0.566286 -0.176745
v 0.119426 -0.561083 -0.209517
v 0.119426 -0.561083 -0.243672
v 0.111331 -0.566286 -0.276444
v 0.095797 -0.576269 -0.305178
v 0.074081 -0.590225 -0.327545
v 0.047944 -0.607022 -0.341734
v 0.019503 -0.625300 -0.346595
v 0.019503 -0.625300 -0.106595
v 0.033548 -0.594547 -0.111455
v 0.046454 -0.566286 -0.125644
v 0.057177 -0.542805 -0.148011
v 0.064848 -0.526008 -0.176745
v 0.068846 -0.517255 -0.209517
v 0.068846 -0.517255 -0.243672
v 0.064848 -0.526008 -0.276444
v 0.057177 -0.542805 -0.305178
v 0.046454 -0.566286 -0.327545
v 0.033548 -0.594547 -0.341734
v 0.019503 -0.625300 -0.346595
v 0.019503 -0.625300 -0.106595
v 0.014692 -0.591836 -0.111455
v 0.010270 -0.561083 -0.125644
v 0.006597 -0.535533 -0.148011
v 0.003969 -0.517255 -0.176745
v 0.002599 -0.507730 -0.209517
v 0.002599 -0.507730 -0.243672
v 0.003969 -0.517255 -0.276444
v 0.006597 -0.535533 -0.305178
v 0.010270 -0.561083 -0.327545
v 0.014692 -0.591836 -0.341734
v 0.019503 -0.625300 -0.346595
v 0.019503 -0.625300 -0.106595
v -0.002636 -0.599750 -0.111455
v -0.022982 -0.576269 -0.125644
v -0.039886 -0.556761 -0.148011
v -0.051979 -0.542805 -0.176745
v -0.058280 -0.535533 -0.209517
v -0.058280 -0.535533 -0.243672
v -0.051979 -0.542805 -0.276444
v -0.039886 -0.556761 -0.305178
v -0.022982 -0.576269 -0.327545
v -0.002636 -0.599750 -0.341734
v 0.019503 -0.625300 -0.346595
v 0.019503 -0.625300 -0.106595
v -0.012935 -0.615775 -0.111455
v -0.042746 -0.607022 -0.125644
v -0.067513 -0.599750 -0.148011
v -0.085231 -0.594547 -0.176745
v -0.094464 -0.591836 -0.209517
v -0.094464 -0.591836 -0.243672
v -0.085231 -0.594547 -0.276444
v -0.067513 -0.599750 -0.305178
v -0.042746 -0.607022 -0.327545
v -0.012935 -0.615775 -0.341734
v 0.019503 -0.625300 -0.346595
v 0.019503 -0.625300 -0.106595
v -0.012935 -0.634825 -0.111455
v -0.042746 -0.643578 -0.125644
v -0.067513 -0.650850 -0.148011
v -0.085231 -0.656053 -0.176745
v -0.094464 -0.658764 -0.209517
v -0.094464 -0.658764 -0.243672
v -0.085231 -0.656053 -0.276444
v -0.067513 -0.650850 -0.305178
v -0.042746 -0.643578 -0.327545
v -0.012935 -0.634825 -0.341734
v 0.019503 -0.625300 -0.346595
v 0.019503 -0.625300 -0.106595
v -0.002636 -0.650850 -0.111455
v -0.022982 -0.674331 -0.125644
v -0.039886 -0.693839 -0.148011
v -0.051979 -0.707794 -0.176745
v -0.058280 -0.715067 -0.209517
v -0.058280 -0.715067 -0.243672
v -0.051979 -0.707794 -0.276444
v -0.039886 -0.693839 -0.305178
v -0.022982 -0.674331 -0.327545
v -0.002636 -0.650850 -0.341734
v 0.019503 -0.625300 -0.346595
v 0.019503 -0.625300 -0.106595
v 0.014692 -0.658764 -0.111455
v 0.010270 -0.689516 -0.125644
v 0.006597 -0.715067 -0.148011
v 0.003969 -0.733345 -0.176745
v 0.002599 -0.742869 -0.209517
v 0.002599 -0.742869 -0.243672
v 0.003969 -0.733345 -0.276444
v 0.006597 -0.715067 -0.305178
v 0.010270 -0.689516 -0.327545
v 0.014692 -0.658764 -0.341734
v 0.019503 -0.625300 -0.346595
v 0.019503 -0.625300 -0.106595
v 0.033548 -0.656053 -0.111455
v 0.046454 -0.684314 -0.125644
v 0.057177 -0.707794 -0.148011
v 0.064848 -0.724591 -0.176745
v 0.068846 -0.733345 -0.209517
v 0.068846 -0.733345 -0.243672
v 0.064848 -0.724591 -0.276444
v 0.057177 -0.707794 -0.305178
v 0.046454 -0.684314 -0.327545
v 0.033548 -0.656053 -0.341734
v 0.019503 -0.625300 -0.346595
v 0.019503 -0.625300 -0.106595
v 0.047944 -0.643578 -0.111455
v 0.074081 -0.660375 -0.125644
v 0.095797 -0.674331 -0.148011
v 0.111331 -0.684314 -0.176745
v 0.119426 -0.689516 -0.209517
v 0.119426 -0.689516 -0.243672
v 0.111331 -0.684314 -0.276444
v 0.095797 -0.674331 -0.305178
v 0.074081 -0.660375 -0.327545
v 0.047944 -0.643578 -0.341734
v 0.019503 -0.625300 -0.346595
v 0.019503 -0.625300 -0.106595
v 0.053311 -0.625300 -0.111455
v 0.084380 -0.625300 -0.125644
v 0.110193 -0.625300 -0.148011
v 0.128659 -0.625300 -0.176745
v 0.138282 -0.625300 -0.209517
v 0.138282 -0.625300 -0.243672
v 0.128659 -0.625300 -0.276444
v 0.110193 -0.625300 -0.305178
v 0.084380 -0.625300 -0.327545
v 0.053311 -0.625300 -0.341734
v 0.019503 -0.625300 -0.346595
v 0.170540 -0.432009 -0.067146
v 0.171043 -0.455474 -0.059382
v 0.169436 -0.469976 -0.039425
v 0.166332 -0.469976 -0.014900
v 0.162916 -0.455474 0.004828
v 0.160495 -0.432009 0.012221
v 0.159991 -0.408544 0.004457
v 0.161599 -0.394042 -0.015499
v 0.164703 -0.394042 -0.040025
v 0.168118 -0.408544 -0.059752
v -0.170321 -0.453595 -0.110287
v -0.169818 -0.477060 -0.102523
v -0.171425 -0.491562 -0.082566
v -0.174529 -0.491562 -0.058041
v -0.177944 -0.477060 -0.038313
v -0.180366 -0.453595 -0.030920
v -0.180869 -0.430130 -0.038684
v -0.179262 -0.415627 -0.058640
v -0.176158 -0.415627 -0.083165
v -0.172743 -0.430130 -0.102893
v 0.165517 -0.434182 -0.067403
v 0.142805 -0.427696 -0.060105
v 0.128769 -0.422858 -0.040339
v 0.128769 -0.421514 -0.015654
v 0.142805 -0.424180 0.004520
v 0.165517 -0.429836 0.012479
v 0.188229 -0.436322 0.005181
v 0.202265 -0.441160 -0.014585
v 0.202265 -0.442504 -0.039270
v 0.188229 -0.439838 -0.059445
v 0.226200 -0.207832 -0.079720
v 0.203489 -0.201346 -0.072422
v 0.189452 -0.196507 -0.052656
v 0.189452 -0.195164 -0.027971
v 0.203489 -0.197829 -0.007796
v 0.226200 -0.203485 0.000162
v 0.248912 -0.209971 -0.007136
v 0.262949 -0.214809 -0.026902
v 0.262949 -0.216153 -0.051587
v 0.248912 -0.213487 -0.071761
v 0.226200 -0.226178 -0.074115
v 0.202721 -0.223316 -0.066926
v 0.188210 -0.213709 -0.049367
v 0.188210 -0.201027 -0.028147
v 0.202721 -0.190114 -0.011369
v 0.226200 -0.185139 -0.005443
v 0.249680 -0.188001 -0.012632
v 0.264190 -0.197607 -0.030190
v 0.264190 -0.210289 -0.051411
v 0.249680 -0.221202 -0.068189
v 0.216867 -0.073384 -0.165427
v 0.193388 -0.070522 -0.158238
v 0.178877 -0.060915 -0.140680
v 0.178877 -0.048233 -0.119459
v 0.193388 -0.037321 -0.102681
v 0.216867 -0.032345 -0.096755
v 0.240347 -0.035207 -0.103944
v 0.254858 -0.044814 -0.121503
v 0.254858 -0.057496 -0.142723
v 0.240347 -0.068409 -0.159501
v -0.175343 -0.480055 -0.100601
v -0.194871 -0.484821 -0.086210
v -0.206940 -0.477660 -0.065858
v -0.206940 -0.461306 -0.047319
v -0.194871 -0.442007 -0.037673
v -0.175343 -0.427134 -0.040606
v -0.155815 -0.422368 -0.054996
v -0.143747 -0.429530 -0.075348
v -0.143747 -0.445883 -0.093888
v -0.155815 -0.465182 -0.103533
v -0.322415 -0.315563 -0.245697
v -0.341943 -0.320329 -0.231307
v -0.354012 -0.313168 -0.210955
v -0.354012 -0.296814 -0.192415
v -0.341943 -0.277515 -0.182770
v -0.322415 -0.262642 -0.185703
v -0.302887 -0.257876 -0.200093
v -0.290818 -0.265038 -0.220445
v -0.290818 -0.281391 -0.238984
v -0.302887 -0.300690 -0.248630
v -0.322415 -0.327488 -0.204450
v -0.340970 -0.324218 -0.220455
v -0.352437 -0.307536 -0.234644
v -0.352437 -0.283812 -0.241597
v -0.340970 -0.262109 -0.238658
v -0.322415 -0.250717 -0.226950
v -0.303860 -0.253987 -0.210945
v -0.292392 -0.270670 -0.196756
v -0.292392 -0.294393 -0.189803
v -0.303860 -0.316096 -0.192741
v -0.158359 -0.386779 -0.406748
v -0.176914 -0.383509 -0.422753
v -0.188382 -0.366827 -0.436942
v -0.188382 -0.343103 -0.443895
v -0.176914 -0.321400 -0.440956
v -0.158359 -0.310008 -0.429248
v -0.139805 -0.313278 -0.413243
v -0.128337 -0.329961 -0.399054
v -0.128337 -0.353684 -0.392100
v -0.139805 -0.375387 -0.395039
v 0.165517 -0.428236 -0.067284
v 0.142117 -0.431236 -0.059895
v 0.127656 -0.434532 -0.040117
v 0.127656 -0.436863 -0.015506
v 0.142117 -0.437341 0.004538
v 0.165517 -0.435782 0.012360
v 0.188917 -0.432782 0.004970
v 0.203379 -0.429486 -0.014807
v 0.203379 -0.427155 -0.039418
v 0.188917 -0.426677 -0.059463
v 0.122482 0.009571 -0.025803
v 0.099083 0.006571 -0.018413
v 0.084621 0.003276 0.001364
v 0.084621 0.000944 0.025975
v 0.099083 0.000466 0.046020
v 0.122482 0.002025 0.053841
v 0.145882 0.005025 0.046452
v 0.160344 0.008321 0.026674
v 0.160344 0.010653 0.002063
v 0.145882 0.011130 -0.017981
v -0.175343 -0.448295 -0.110250
v -0.198684 -0.446501 -0.102303
v -0.213109 -0.447416 -0.082248
v -0.213109 -0.450691 -0.057744
v -0.198684 -0.455076 -0.038153
v -0.175343 -0.458895 -0.030956
v -0.152003 -0.460689 -0.038903
v -0.137578 -0.459774 -0.058958
v -0.137578 -0.456498 -0.083462
v -0.152003 -0.452114 -0.103054
v -0.122343 -0.015272 -0.052368
v -0.145683 -0.013478 -0.044421
v -0.160108 -0.014393 -0.024365
v -0.160108 -0.017669 0.000138
v -0.145683 -0.022053 0.019730
v -0.122343 -0.025872 0.026927
v -0.099003 -0.027666 0.018980
v -0.084578 -0.026751 -0.001076
v -0.084578 -0.023476 -0.025579
v -0.099003 -0.019091 -0.045171
v 0.126825 0.005798 -0.025744
v 0.128484 -0.017580 -0.017878
v 0.127851 -0.032028 0.002171
v 0.125167 -0.032028 0.026746
v 0.121457 -0.017580 0.046460
v 0.118139 0.005798 0.053783
v 0.116481 0.029176 0.045917
v 0.117114 0.043624 0.025867
v 0.119798 0.043624 0.001292
v 0.123508 0.029176 -0.018422
v -0.118000 -0.020572 -0.052484
v -0.116341 -0.043950 -0.044618
v -0.116975 -0.058398 -0.024568
v -0.119659 -0.058398 0.000007
v -0.123368 -0.043950 0.019721
v -0.126686 -0.020572 0.027043
v -0.128345 0.002806 0.019177
v -0.127711 0.017254 -0.000873
v -0.125027 0.017254 -0.025448
v -0.121318 0.002806 -0.045162
v 0.122482 -0.008315 -0.023408
v 0.099182 -0.002680 -0.017369
v 0.084781 0.006193 0.000660
v 0.084781 0.014915 0.023792
v 0.099182 0.020155 0.043190
v 0.122482 0.019911 0.051447
v 0.145783 0.014276 0.045407
v 0.160184 0.005403 0.027378
v 0.160184 -0.003319 0.004247
v 0.145783 -0.008559 -0.015152
v 0.145058 0.148373 -0.082491
v 0.121758 0.154008 -0.076452
v 0.107357 0.162881 -0.058423
v 0.107357 0.171603 -0.035291
v 0.121758 0.176843 -0.015893
v 0.145058 0.176599 -0.007636
v 0.168359 0.170964 -0.013676
v 0.182760 0.162091 -0.031705
v 0.182760 0.153369 -0.054836
v 0.168359 0.148129 -0.074235
v 0.145058 0.184545 -0.078431
v 0.121649 0.182159 -0.070851
v 0.107182 0.172259 -0.053421
v 0.107182 0.158625 -0.032798
v 0.121649 0.146467 -0.016861
v 0.145058 0.140427 -0.011696
v 0.168468 0.142813 -0.019277
v 0.182935 0.152714 -0.036707
v 0.182935 0.166347 -0.057329
v 0.168468 0.178505 -0.073266
v 0.176876 0.468260 0.109130
v 0.153467 0.465874 0.116710
v 0.138999 0.455973 0.134141
v 0.138999 0.442340 0.154763
v 0.153467 0.430181 0.170700
v 0.176876 0.424142 0.175865
v 0.200285 0.426528 0.168285
v 0.214753 0.436428 0.150855
v 0.214753 0.450061 0.130232
v 0.200285 0.462220 0.114295
v -0.122343 -0.060168 -0.007051
v -0.145302 -0.053324 -0.013149
v -0.159492 -0.033970 -0.019082
v -0.159492 -0.009498 -0.022586
v -0.145302 0.010744 -0.022321
v -0.122343 0.019024 -0.018389
v -0.099384 0.012180 -0.012292
v -0.085194 -0.007174 -0.006358
v -0.085194 -0.031646 -0.002855
v -0.099384 -0.051888 -0.003120
v -0.077496 -0.088975 -0.208257
v -0.100456 -0.082130 -0.214354
v -0.114645 -0.062776 -0.220288
v -0.114645 -0.038304 -0.223791
v -0.100456 -0.018062 -0.223527
v -0.077496 -0.009782 -0.219595
v -0.054537 -0.016626 -0.213497
v -0.040348 -0.035981 -0.207564
v -0.040348 -0.060453 -0.204060
v -0.054537 -0.080695 -0.204325
v -0.077496 -0.051662 -0.253860
v -0.100961 -0.049751 -0.246318
v -0.115464 -0.047698 -0.226403
v -0.115464 -0.046287 -0.201722
v -0.100961 -0.046057 -0.181702
v -0.077496 -0.047095 -0.173991
v -0.054031 -0.049006 -0.181533
v -0.039529 -0.051058 -0.201449
v -0.039529 -0.052469 -0.226130
v -0.054031 -0.052700 -0.246149
v -0.058116 0.255783 -0.271437
v -0.081581 0.257693 -0.263895
v -0.096083 0.259746 -0.243980
v -0.096083 0.261157 -0.219298
v -0.081581 0.261387 -0.199279
v -0.058116 0.260349 -0.191568
v -0.034651 0.258439 -0.199110
v -0.020149 0.256386 -0.219026
v -0.020149 0.254975 -0.243707
v -0.034651 0.254745 -0.263726
v -0.063734 0.024908 0.073007
v -0.062261 0.016397 0.069640
v -0.062849 0.011137 0.062029
v -0.065273 0.011137 0.053081
v -0.068607 0.016397 0.046214
v -0.071578 0.024908 0.044051
v -0.073051 0.033419 0.047418
v -0.072463 0.038679 0.055029
v -0.070039 0.038679 0.063977
v -0.066705 0.033419 0.070844
v -0.029672 0.034453 0.063780
v -0.028200 0.025942 0.060413
v -0.028787 0.020682 0.052802
v -0.031211 0.020682 0.043854
v -0.034545 0.025942 0.036987
v -0.037516 0.034453 0.034824
v -0.038989 0.042964 0.038191
v -0.038401 0.048224 0.045802
v -0.035977 0.048224 0.054750
v -0.032643 0.042964 0.061617
v -0.028836 0.034453 0.063527
v -0.029264 0.025651 0.060650
v -0.031347 0.020211 0.053438
v -0.034288 0.020211 0.044646
v -0.036964 0.025651 0.037633
v -0.038353 0.034453 0.035077
v -0.037924 0.043255 0.037954
v -0.035842 0.048695 0.045166
v -0.032901 0.048695 0.053958
v -0.030225 0.043255 0.060971
v 0.005925 0.036561 0.051899
v 0.005497 0.027759 0.049022
v 0.003414 0.022319 0.041810
v 0.000473 0.022319 0.033018
v -0.002203 0.027759 0.026005
v -0.003592 0.036561 0.023449
v -0.003163 0.045364 0.026326
v -0.001081 0.050804 0.033538
v 0.001860 0.050804 0.042330
v 0.004536 0.045364 0.049343
v 0.001167 0.021624 0.039044
v -0.003694 0.023805 0.031458
v -0.006699 0.030858 0.026246
v -0.006699 0.040090 0.025399
v -0.003694 0.047974 0.029241
v 0.001167 0.051499 0.036304
v 0.006028 0.049318 0.043891
v 0.009032 0.042264 0.049103
v 0.009032 0.033033 0.049949
v 0.006028 0.025149 0.046107
v 0.033457 0.019675 0.017794
v 0.028596 0.021856 0.010207
v 0.025591 0.028909 0.004995
v 0.025591 0.038141 0.004148
v 0.028596 0.046025 0.007990
v 0.033457 0.049550 0.015053
v 0.038318 0.047369 0.022640
v 0.041322 0.040315 0.027852
v 0.041322 0.031083 0.028699
v 0.038318 0.023200 0.024857
v 0.033457 0.020452 0.021372
v 0.028567 0.020736 0.013502
v 0.025544 0.026320 0.006747
v 0.025544 0.035072 0.003689
v 0.028567 0.043648 0.005494
v 0.033457 0.048772 0.011475
v 0.038347 0.048488 0.019345
v 0.041370 0.042904 0.026100
v 0.041370 0.034153 0.029158
v 0.038347 0.025577 0.027353
v 0.059904 0.014635 0.004729
v 0.055014 0.014919 -0.003141
v 0.051992 0.020504 -0.009896
v 0.051992 0.029255 -0.012954
v 0.055014 0.037831 -0.011149
v 0.059904 0.042956 -0.005168
v 0.064795 0.042672 0.002702
v 0.067817 0.037088 0.009457
v 0.067817 0.028336 0.012515
v 0.064795 0.019760 0.010710
v -0.067656 0.010540 0.062837
v -0.072070 0.011092 0.054703
v -0.074797 0.016922 0.048031
v -0.074797 0.025802 0.045368
v -0.072070 0.034340 0.047733
v -0.067656 0.039276 0.054221
v -0.063243 0.038724 0.062355
v -0.060515 0.032895 0.069028
v -0.060515 0.024015 0.071690
v -0.063243 0.015476 0.069325
v 0.020151 -0.004041 0.014203
v 0.015737 -0.003489 0.006069
v 0.013010 0.002340 -0.000603
v 0.013010 0.011220 -0.003266
v 0.015737 0.019759 -0.000901
v 0.020151 0.024695 0.005587
v 0.024564 0.024143 0.013721
v 0.027292 0.018314 0.020394
v 0.027292 0.009434 0.023056
v 0.024564 0.000895 0.020691
v 0.020151 -0.004244 0.006332
v 0.014533 0.000153 0.000412
v 0.011062 0.008436 -0.001887
v 0.011062 0.017441 0.000315
v 0.014533 0.023729 0.006176
v 0.020151 0.024898 0.013458
v 0.025768 0.020501 0.019379
v 0.029240 0.012218 0.021677
v 0.029240 0.003213 0.019475
v 0.025768 -0.003075 0.013614
v 0.043115 0.000265 -0.012107
v 0.037497 0.004662 -0.018028
v 0.034025 0.012945 -0.020326
v 0.034025 0.021950 -0.018124
v 0.037497 0.028238 -0.012263
v 0.043115 0.029407 -0.004982
v 0.048732 0.025010 0.000939
v 0.052204 0.016727 0.003237
v 0.052204 0.007722 0.001035
v 0.048732 0.001434 -0.004826
v 0.043115 0.003940 -0.018854
v 0.038655 0.011249 -0.022410
v 0.035899 0.019927 -0.020669
v 0.035899 0.026661 -0.014297
v 0.038655 0.028878 -0.005728
v 0.043115 0.025731 0.001765
v 0.047574 0.018423 0.005321
v 0.050330 0.009744 0.003580
v 0.050330 0.003011 -0.002791
v 0.047574 0.000794 -0.011361
v 0.059252 0.010444 -0.025727
v 0.054793 0.017752 -0.029283
v 0.052037 0.026431 -0.027542
v 0.052037 0.033164 -0.021170
v 0.054793 0.035381 -0.012601
v 0.059252 0.032235 -0.005108
v 0.063712 0.024926 -0.001552
v 0.066468 0.016248 -0.003293
v 0.066468 0.009514 -0.009664
v 0.063712 0.007297 -0.018234
v 0.059252 0.006661 -0.018507
v 0.051114 0.010163 -0.021235
v 0.046084 0.017933 -0.021741
v 0.046084 0.027005 -0.019832
v 0.051114 0.033913 -0.016236
v 0.059252 0.036018 -0.012328
v 0.067391 0.032516 -0.009600
v 0.072421 0.024745 -0.009093
v 0.072421 0.015673 -0.011003
v 0.067391 0.008766 -0.014598
v 0.069934 0.011941 -0.043593
v 0.061795 0.015443 -0.046322
v 0.056765 0.023214 -0.046828
v 0.056765 0.032285 -0.044918
v 0.061795 0.039193 -0.041323
v 0.069934 0.041298 -0.037414
v 0.078072 0.037796 -0.034686
v 0.083102 0.030025 -0.034180
v 0.083102 0.020953 -0.036089
v 0.078072 0.014046 -0.039685
v -0.067656 0.011367 0.064982
v -0.073316 0.011045 0.057646
v -0.076814 0.016018 0.050648
v -0.076814 0.024387 0.046660
v -0.073316 0.032955 0.047206
v -0.067656 0.038450 0.052077
v -0.061997 0.038772 0.059412
v -0.058499 0.033798 0.066410
v -0.058499 0.025429 0.070398
v -0.061997 0.016861 0.069852
v 0.006646 -0.015390 0.008829
v 0.000987 -0.015712 0.001494
v -0.002511 -0.010739 -0.005504
v -0.002511 -0.002370 -0.009492
v 0.000987 0.006198 -0.008946
v 0.006646 0.011693 -0.004076
v 0.012306 0.012015 0.003260
v 0.015804 0.007041 0.010258
v 0.015804 -0.001328 0.014246
v 0.012306 -0.009896 0.013700
v 0.006646 -0.010698 0.014488
v 0.001938 -0.015027 0.007777
v -0.000972 -0.014322 -0.000996
v -0.000972 -0.008853 -0.008482
v 0.001938 -0.000708 -0.011819
v 0.006646 0.007001 -0.009735
v 0.011355 0.011330 -0.003024
v 0.014265 0.010625 0.005750
v 0.014265 0.005155 0.013235
v 0.011355 -0.002989 0.016573
v 0.040237 -0.027829 0.001971
v 0.035528 -0.032158 -0.004740
v 0.032618 -0.031453 -0.013514
v 0.032618 -0.025984 -0.020999
v 0.035528 -0.017839 -0.024337
v 0.040237 -0.010130 -0.022252
v 0.044945 -0.005801 -0.015541
v 0.047855 -0.006506 -0.006767
v 0.047855 -0.011976 0.000718
v 0.044945 -0.020120 0.004056
v 0.040237 -0.030163 -0.000144
v 0.034703 -0.032602 -0.007171
v 0.031283 -0.029837 -0.015332
v 0.031283 -0.022925 -0.021510
v 0.034703 -0.014506 -0.023345
v 0.040237 -0.007796 -0.020137
v 0.045770 -0.005358 -0.013110
v 0.049190 -0.008122 -0.004949
v 0.049190 -0.015034 0.001229
v 0.045770 -0.023453 0.003064
v 0.061099 -0.041372 -0.012684
v 0.055565 -0.043810 -0.019711
v 0.052145 -0.041045 -0.027872
v 0.052145 -0.034134 -0.034050
v 0.055565 -0.025715 -0.035885
v 0.061099 -0.019005 -0.032677
v 0.066633 -0.016566 -0.025650
v 0.070053 -0.019331 -0.017489
v 0.070053 -0.026243 -0.011311
v 0.066633 -0.034662 -0.009476
v 0.061099 -0.042718 -0.014434
v 0.056080 -0.044310 -0.022064
v 0.052978 -0.040508 -0.029929
v 0.052978 -0.032764 -0.035026
v 0.056080 -0.024036 -0.035407
v 0.061099 -0.017658 -0.030927
v 0.066118 -0.016066 -0.023297
v 0.069220 -0.019868 -0.015432
v 0.069220 -0.027612 -0.010335
v 0.066118 -0.036340 -0.009954
v 0.087022 -0.052587 -0.029428
v 0.082003 -0.054179 -0.037058
v 0.078901 -0.050377 -0.044924
v 0.078901 -0.042633 -0.050020
v 0.082003 -0.033905 -0.050401
v 0.087022 -0.027527 -0.045921
v 0.092041 -0.025935 -0.038291
v 0.095144 -0.029737 -0.030426
v 0.095144 -0.037481 -0.025329
v 0.092041 -0.046209 -0.024948
v -0.067656 0.011599 0.065447
v -0.074718 0.011706 0.059442
v -0.079083 0.016857 0.053089
v -0.079083 0.025082 0.048813
v -0.074718 0.033242 0.048249
v -0.067656 0.038218 0.051611
v -0.060594 0.038110 0.057616
v -0.056229 0.032960 0.063970
v -0.056229 0.024734 0.068245
v -0.060594 0.016575 0.068809
v -0.012551 -0.022403 0.000030
v -0.019613 -0.022296 -0.005975
v -0.023978 -0.017146 -0.012328
v -0.023978 -0.008920 -0.016604
v -0.019613 -0.000761 -0.017168
v -0.012551 0.004216 -0.013806
v -0.005489 0.004108 -0.007801
v -0.001125 -0.001042 -0.001447
v -0.001125 -0.009268 0.002828
v -0.005489 -0.017427 0.003393
v -0.012551 -0.017349 0.005636
v -0.019065 -0.020733 -0.000026
v -0.023091 -0.019672 -0.008309
v -0.023091 -0.014570 -0.016049
v -0.019065 -0.007376 -0.020290
v -0.012551 -0.000838 -0.019412
v -0.006037 0.002546 -0.013750
v -0.002012 0.001484 -0.005467
v -0.002012 -0.003618 0.002274
v -0.006037 -0.010811 0.006515
v 0.009108 -0.037174 -0.007431
v 0.002594 -0.040558 -0.013093
v -0.001432 -0.039497 -0.021376
v -0.001432 -0.034395 -0.029117
v 0.002594 -0.027201 -0.033358
v 0.009108 -0.020663 -0.032479
v 0.015622 -0.017279 -0.026817
v 0.019647 -0.018341 -0.018534
v 0.019647 -0.023443 -0.010794
v 0.015622 -0.030636 -0.006553
v 0.009108 -0.035604 -0.006528
v 0.002921 -0.039951 -0.011892
v -0.000902 -0.040084 -0.020336
v -0.000902 -0.035952 -0.028635
v 0.002921 -0.029134 -0.033619
v 0.009108 -0.022233 -0.033383
v 0.015294 -0.017886 -0.028019
v 0.019117 -0.017753 -0.019574
v 0.019117 -0.021885 -0.011276
v 0.015294 -0.028704 -0.006292
v 0.027048 -0.051419 -0.014402
v 0.020862 -0.055766 -0.019766
v 0.017039 -0.055899 -0.028210
v 0.017039 -0.051767 -0.036509
v 0.020862 -0.044949 -0.041493
v 0.027048 -0.038048 -0.041257
v 0.033235 -0.033701 -0.035893
v 0.037058 -0.033568 -0.027448
v 0.037058 -0.037700 -0.019149
v 0.033235 -0.044518 -0.014166
v 0.027048 -0.052792 -0.015178
v 0.021634 -0.057122 -0.021332
v 0.018288 -0.056720 -0.029968
v 0.018288 -0.051740 -0.037787
v 0.021634 -0.044083 -0.041803
v 0.027048 -0.036675 -0.040481
v 0.032463 -0.032345 -0.034327
v 0.035809 -0.032747 -0.025690
v 0.035809 -0.037727 -0.017871
v 0.032463 -0.045383 -0.013856
v 0.050351 -0.068084 -0.024918
v 0.044937 -0.072415 -0.031072
v 0.041591 -0.072013 -0.039709
v 0.041591 -0.067033 -0.047528
v 0.044937 -0.059376 -0.051543
v 0.050351 -0.051968 -0.050221
v 0.055766 -0.047638 -0.044067
v 0.059112 -0.048040 -0.035431
v 0.059112 -0.053020 -0.027611
v 0.055766 -0.060676 -0.023596
v -0.067656 0.011588 0.065426
v -0.075853 0.012638 0.061224
v -0.080919 0.018376 0.055993
v -0.080919 0.026608 0.051731
v -0.075853 0.034192 0.050065
v -0.067656 0.038229 0.051633
v -0.059460 0.037178 0.055835
v -0.054394 0.031441 0.061066
v -0.054394 0.023208 0.065328
v -0.059460 0.015625 0.066993
v -0.037110 -0.023849 -0.003023
v -0.045306 -0.022798 -0.007225
v -0.050372 -0.017061 -0.012456
v -0.050372 -0.008828 -0.016718
v -0.045306 -0.001245 -0.018383
v -0.037110 0.002792 -0.016816
v -0.028913 0.001742 -0.012614
v -0.023848 -0.003996 -0.007383
v -0.023848 -0.012228 -0.003121
v -0.028913 -0.019812 -0.001455
v -0.037110 -0.019445 0.002143
v -0.045112 -0.020719 -0.002361
v -0.050057 -0.018101 -0.009753
v -0.050057 -0.012590 -0.017208
v -0.045112 -0.006292 -0.021879
v -0.037110 -0.001612 -0.021981
v -0.029108 -0.000338 -0.017477
v -0.024163 -0.002956 -0.010086
v -0.024163 -0.008466 -0.002631
v -0.029108 -0.014765 0.002040
v -0.027554 -0.036053 -0.010134
v -0.035556 -0.037327 -0.014638
v -0.040501 -0.034709 -0.022029
v -0.040501 -0.029198 -0.029484
v -0.035556 -0.022900 -0.034155
v -0.027554 -0.018220 -0.034258
v -0.019552 -0.016945 -0.029754
v -0.014607 -0.019564 -0.022362
v -0.014607 -0.025074 -0.014907
v -0.019552 -0.031372 -0.010236
v -0.027554 -0.037363 -0.011223
v -0.035712 -0.037857 -0.015599
v -0.040754 -0.034255 -0.022495
v -0.040754 -0.027934 -0.029276
v -0.035712 -0.021309 -0.033353
v -0.027554 -0.016909 -0.033169
v -0.019396 -0.016416 -0.028793
v -0.014354 -0.020017 -0.021897
v -0.014354 -0.026338 -0.015115
v -0.019396 -0.032964 -0.011038
v -0.020246 -0.050403 -0.023376
v -0.028404 -0.050896 -0.027752
v -0.033446 -0.047295 -0.034648
v -0.033446 -0.040974 -0.041430
v -0.028404 -0.034348 -0.045507
v -0.020246 -0.029948 -0.045322
v -0.012089 -0.029455 -0.040946
v -0.007047 -0.033057 -0.034050
v -0.007047 -0.039377 -0.027269
v -0.012089 -0.046003 -0.023192
v -0.020246 -0.051512 -0.024526
v -0.028054 -0.052028 -0.029497
v -0.032880 -0.048018 -0.036321
v -0.032880 -0.041012 -0.042392
v -0.028054 -0.033686 -0.045391
v -0.020246 -0.028839 -0.044172
v -0.012438 -0.028323 -0.039201
v -0.007613 -0.032333 -0.032377
v -0.007613 -0.039339 -0.026306
v -0.012438 -0.046665 -0.023307
v -0.012461 -0.061232 -0.035744
v -0.020270 -0.061749 -0.040715
v -0.025095 -0.057738 -0.047539
v -0.025095 -0.050732 -0.053610
v -0.020270 -0.043407 -0.056609
v -0.012461 -0.038560 -0.055390
v -0.004653 -0.038043 -0.050419
v 0.000172 -0.042054 -0.043595
v 0.000172 -0.049060 -0.037524
v -0.004653 -0.056385 -0.034525
f 1 2 13
f 2 14 13
f 2 3 14
f 3 15 14
f 3 4 15
f 4 16 15
f 4 5 16
f 5 17 16
f 5 6 17
f 6 18 17
f 6 7 18
f 7 19 18
f 7 8 19
f 8 20 19
f 8 9 20
f 9 21 20
f 9 10 21
f 10 22 21
f 10 11 22
f 11 23 22
f 11 12 23
f 12 24 23
f 13 14 25
f 14 26 25
f 14 15 26
f 15 27 26
f 15 16 27
f 16 28 27
f 16 17 28
f 17 29 28
f 17 18 29
f 18 30 29
f 18 19 30
f 19 31 30
f 19 20 31
f 20 32 31
f 20 21 32
f 21 33 32
f 21 22 33
f 22 34 33
f 22 23 34
f 23 35 34
f 23 24 35
f 24 36 35
f 25 26 37
f 26 38 37
f 26 27 38
f 27 39 38
f 27 28 39
f 28 40 39
f 28 29 40
f 29 41 40
f 29 30 41
f 30 42 41
f 30 31 42
f 31 43 42
f 31 32 43
f 32 44 43
f 32 33 44
f 33 45 44
f 33 34 45
f 34 46 45
f 34 35 46
f 35 47 46
f 35 36 47
f 36 48 47
f 37 38 49
f 38 50 49
f 38 39 50
f 39 51 50
f 39 40 51
f 40 52 51
f 40 41 52
f 41 53 52
f 41 42 53
f 42 54 53
f 42 43 54
f 43 55 54
f 43 44 55
f 44 56 55
f 44 45 56
f 45 57 56
f 45 46 57
f 46 58 57
f 46 47 58
f 47 59 58
f 47 48 59
f 48 60 59
f 49 50 61
f 50 62 61
f 50 51 62
f 51 63 62
f 51 52 63
f 52 64 63
f 52 53 64
f 53 65 64
f 53 54 65
f 54 66 65
f 54 55 66
f 55 67 66
f 55 56 67
f 56 68 67
f 56 57 68
f 57 69 68
f 57 58 69
f 58 70 69
f 58 59 70
f 59 71 70
f 59 60 71
f 60 72 71
f 61 62 73
f 62 74 73
f 62 63 74
f 63 75 74
f 63 64 75
f 64 76 75
f 64 65 76
f 65 77 76
f 65 66 77
f 66 78 77
f 66 67 78
f 67 79 78
f 67 68 79
f 68 80 79
f 68 69 80
f 69 81 80
f 69 70 81
f 70 82 81
f 70 71 82
f 71 83 82
f 71 72 83
f 72 84 83
f 73 74 85
f 74 86 85
f 74 75 86
f 75 87 86
f 75 76 87
f 76 88 87
f 76 77 88
f 77 89 88
f 77 78 89
f 78 90 89
f 78 79 90
f 79 91 90
f 79 80 91
f 80 92 91
f 80 81 92
f 81 93 92
f 81 82 93
f 82 94 93
f 82 83 94
f 83 95 94
f 83 84 95
f 84 96 95
f 85 86 97
f 86 98 97
f 86 87 98
f 87 99 98
f 87 88 99
f 88 100 99
f 88 89 100
f 89 101 100
f 89 90 101
f 90 102 101
f 90 91 102
f 91 103 102
f 91 92 103
f 92 104 103
f 92 93 104
f 93 105 104
f 93 94 105
f 94 106 105
f 94 95 106
f 95 107 106
f 95 96 107
f 96 108 107
f 97 98 109
f 98 110 109
f 98 99 110
f 99 111 110
f 99 100 111
f 100 112 111
f 100 101 112
f 101 113 112
f 101 102 113
f 102 114 113
f 102 103 114
f 103 115 114
f 103 104 115
f 104 116 115
f 104 105 116
f 105 117 116
f 105 106 117
f 106 118 117
f 106 107 118
f 107 119 118
f 107 108 119
f 108 120 119
f 109 110 121
f 110 122 121
f 110 111 122
f 111 123 122
f 111 112 123
f 112 124 123
f 112 113 124
f 113 125 124
f 113 114 125
f 114 126 125
f 114 115 126
f 115 127 126
f 115 116 127
f 116 128 127
f 116 117 128
f 117 129 128
f 117 118 129
f 118 130 129
f 118 119 130
f 119 131 130
f 119 120 131
f 120 132 131
f 121 122 133
f 122 134 133
f 122 123 134
f 123 135 134
f 123 124 135
f 124 136 135
f 124 125 136
f 125 137 136
f 125 126 137
f 126 138 137
f 126 127 138
f 127 139 138
f 127 128 139
f 128 140 139
f 128 129 140
f 129 141 140
f 129 130 141
f 130 142 141
f 130 131 142
f 131 143 142
f 131 132 143
f 132 144 143
f 145 146 155
f 146 156 155
f 146 147 156
f 147 157 156
f 147 148 157
f 148 158 157
f 148 149 158
f 149 159 158
f 149 150 159
f 150 160 159
f 150 151 160
f 151 161 160
f 151 152 161
f 152 162 161
f 152 153 162
f 153 163 162
f 153 154 163
f 154 164 163
f 154 145 164
f 145 155 164
f 165 166 175
f 166 176 175
f 166 167 176
f 167 177 176
f 167 168 177
f 168 178 177
f 168 169 178
f 169 179 178
f 169 170 179
f 170 180 179
f 170 171 180
f 171 181 180
f 171 172 181
f 172 182 181
f 172 173 182
f 173 183 182
f 173 174 183
f 174 184 183
f 174 165 184
f 165 175 184
f 185 186 195
f 186 196 195
f 186 187 196
f 187 197 196
f 187 188 197
f 188 198 197
f 188 189 198
f 189 199 198
f 189 190 199
f 190 200 199
f 190 191 200
f 191 201 200
f 191 192 201
f 192 202 201
f 192 193 202
f 193 203 202
f 193 194 203
f 194 204 203
f 194 185 204
f 185 195 204
f 205 206 215
f 206 216 215
f 206 207 216
f 207 217 216
f 207 208 217
f 208 218 217
f 208 209 218
f 209 219 218
f 209 210 219
f 210 220 219
f 210 211 220
f 211 221 220
f 211 212 221
f 212 222 221
f 212 213 222
f 213 223 222
f 213 214 223
f 214 224 223
f 214 205 224
f 205 215 224
f 225 226 235
f 226 236 235
f 226 227 236
f 227 237 236
f 227 228 237
f 228 238 237
f 228 229 238
f 229 239 238
f 229 230 239
f 230 240 239
f 230 231 240
f 231 241 240
f 231 232 241
f 232 242 241
f 232 233 242
f 233 243 242
f 233 234 243
f 234 244 243
f 234 225 244
f 225 235 244
f 245 246 255
f 246 256 255
f 246 247 256
f 247 257 256
f 247 248 257
f 248 258 257
f 248 249 258
f 249 259 258
f 249 250 259
f 250 260 259
f 250 251 260
f 251 261 260
f 251 252 261
f 252 262 261
f 252 253 262
f 253 263 262
f 253 254 263
f 254 264 263
f 254 245 264
f 245 255 264
f 265 266 275
f 266 276 275
f 266 267 276
f 267 277 276
f 267 268 277
f 268 278 277
f 268 269 278
f 269 279 278
f 269 270 279
f 270 280 279
f 270 271 280
f 271 281 280
f 271 272 281
f 272 282 281
f 272 273 282
f 273 283 282
f 273 274 283
f 274 284 283
f 274 265 284
f 265 275 284
f 285 286 295
f 286 296 295
f 286 287 296
f 287 297 296
f 287 288 297
f 288 298 297
f 288 289 298
f 289 299 298
f 289 290 299
f 290 300 299
f 290 291 300
f 291 301 300
f 291 292 301
f 292 302 301
f 292 293 302
f 293 303 302
f 293 294 303
f 294 304 303
f 294 285 304
f 285 295 304
f 305 306 315
f 306 316 315
f 306 307 316
f 307 317 316
f 307 308 317
f 308 318 317
f 308 309 318
f 309 319 318
f 309 310 319
f 310 320 319
f 310 311 320
f 311 321 320
f 311 312 321
f 312 322 321
f 312 313 322
f 313 323 322
f 313 314 323
f 314 324 323
f 314 305 324
f 305 315 324
f 325 326 335
f 326 336 335
f 326 327 336
f 327 337 336
f 327 328 337
f 328 338 337
f 328 329 338
f 329 339 338
f 329 330 339
f 330 340 339
f 330 331 340
f 331 341 340
f 331 332 341
f 332 342 341
f 332 333 342
f 333 343 342
f 333 334 343
f 334 344 343
f 334 325 344
f 325 335 344
f 345 346 355
f 346 356 355
f 346 347 356
f 347 357 356
f 347 348 357
f 348 358 357
f 348 349 358
f 349 359 358
f 349 350 359
f 350 360 359
f 350 351 360
f 351 361 360
f 351 352 361
f 352 362 361
f 352 353 362
f 353 363 362
f 353 354 363
f 354 364 363
f 354 345 364
f 345 355 364
f 365 366 375
f 366 376 375
f 366 367 376
f 367 377 376
f 367 368 377
f 368 378 377
f 368 369 378
f 369 379 378
f 369 370 379
f 370 380 379
f 370 371 380
f 371 381 380
f 371 372 381
f 372 382 381
f 372 373 382
f 373 383 382
f 373 374 383
f 374 384 383
f 374 365 384
f 365 375 384
f 385 386 395
f 386 396 395
f 386 387 396
f 387 397 396
f 387 388 397
f 388 398 397
f 388 389 398
f 389 399 398
f 389 390 399
f 390 400 399
f 390 391 400
f 391 401 400
f 391 392 401
f 392 402 401
f 392 393 402
f 393 403 402
f 393 394 403
f 394 404 403
f 394 385 404
f 385 395 404
f 405 406 415
f 406 416 415
f 406 407 416
f 407 417 416
f 407 408 417
f 408 418 417
f 408 409 418
f 409 419 418
f 409 410 419
f 410 420 419
f 410 411 420
f 411 421 420
f 411 412 421
f 412 422 421
f 412 413 422
f 413 423 422
f 413 414 423
f 414 424 423
f 414 405 424
f 405 415 424
f 425 426 435
f 426 436 435
f 426 427 436
f 427 437 436
f 427 428 437
f 428 438 437
f 428 429 438
f 429 439 438
f 429 430 439
f 430 440 439
f 430 431 440
f 431 441 440
f 431 432 441
f 432 442 441
f 432 433 442
f 433 443 442
f 433 434 443
f 434 444 443
f 434 425 444
f 425 435 444
f 445 446 455
f 446 456 455
f 446 447 456
f 447 457 456
f 447 448 457
f 448 458 457
f 448 449 458
f 449 459 458
f 449 450 459
f 450 460 459
f 450 451 460
f 451 461 460
f 451 452 461
f 452 462 461
f 452 453 462
f 453 463 462
f 453 454 463
f 454 464 463
f 454 445 464
f 445 455 464
f 465 466 475
f 466 476 475
f 466 467 476
f 467 477 476
f 467 468 477
f 468 478 477
f 468 469 478
f 469 479 478
f 469 470 479
f 470 480 479
f 470 471 480
f 471 481 480
f 471 472 481
f 472 482 481
f 472 473 482
f 473 483 482
f 473 474 483
f 474 484 483
f 474 465 484
f 465 475 484
f 485 486 495
f 486 496 495
f 486 487 496
f 487 497 496
f 487 488 497
f 488 498 497
f 488 489 498
f 489 499 498
f 489 490 499
f 490 500 499
f 490 491 500
f 491 501 500
f 491 492 501
f 492 502 501
f 492 493 502
f 493 503 502
f 493 494 503
f 494 504 503
f 494 485 504
f 485 495 504
f 505 506 515
f 506 516 515
f 506 507 516
f 507 517 516
f 507 508 517
f 508 518 517
f 508 509 518
f 509 519 518
f 509 510 519
f 510 520 519
f 510 511 520
f 511 521 520
f 511 512 521
f 512 522 521
f 512 513 522
f 513 523 522
f 513 514 523
f 514 524 523
f 514 505 524
f 505 515 524
f 525 526 535
f 526 536 535
f 526 527 536
f 527 537 536
f 527 528 537
f 528 538 537
f 528 529 538
f 529 539 538
f 529 530 539
f 530 540 539
f 530 531 540
f 531 541 540
f 531 532 541
f 532 542 541
f 532 533 542
f 533 543 542
f 533 534 543
f 534 544 543
f 534 525 544
f 525 535 544
f 545 546 555
f 546 556 555
f 546 547 556
f 547 557 556
f 547 548 557
f 548 558 557
f 548 549 558
f 549 559 558
f 549 550 559
f 550 560 559
f 550 551 560
f 551 561 560
f 551 552 561
f 552 562 561
f 552 553 562
f 553 563 562
f 553 554 563
f 554 564 563
f 554 545 564
f 545 555 564
f 565 566 575
f 566 576 575
f 566 567 576
f 567 577 576
f 567 568 577
f 568 578 577
f 568 569 578
f 569 579 578
f 569 570 579
f 570 580 579
f 570 571 580
f 571 581 580
f 571 572 581
f 572 582 581
f 572 573 582
f 573 583 582
f 573 574 583
f 574 584 583
f 574 565 584
f 565 575 584
f 585 586 595
f 586 596 595
f 586 587 596
f 587 597 596
f 587 588 597
f 588 598 597
f 588 589 598
f 589 599 598
f 589 590 599
f 590 600 599
f 590 591 600
f 591 601 600
f 591 592 601
f 592 602 601
f 592 593 602
f 593 603 602
f 593 594 603
f 594 604 603
f 594 585 604
f 585 595 604
f 605 606 615
f 606 616 615
f 606 607 616
f 607 617 616
f 607 608 617
f 608 618 617
f 608 609 618
f 609 619 618
f 609 610 619
f 610 620 619
f 610 611 620
f 611 621 620
f 611 612 621
f 612 622 621
f 612 613 622
f 613 623 622
f 613 614 623
f 614 624 623
f 614 605 624
f 605 615 624
f 625 626 635
f 626 636 635
f 626 627 636
f 627 637 636
f 627 628 637
f 628 638 637
f 628 629 638
f 629 639 638
f 629 630 639
f 630 640 639
f 630 631 640
f 631 641 640
f 631 632 641
f 632 642 641
f 632 633 642
f 633 643 642
f 633 634 643
f 634 644 643
f 634 625 644
f 625 635 644
f 645 646 655
f 646 656 655
f 646 647 656
f 647 657 656
f 647 648 657
f 648 658 657
f 648 649 658
f 649 659 658
f 649 650 659
f 650 660 659
f 650 651 660
f 651 661 660
f 651 652 661
f 652 662 661
f 652 653 662
f 653 663 662
f 653 654 663
f 654 664 663
f 654 645 664
f 645 655 664
f 665 666 675
f 666 676 675
f 666 667 676
f 667 677 676
f 667 668 677
f 668 678 677
f 668 669 678
f 669 679 678
f 669 670 679
f 670 680 679
f 670 671 680
f 671 681 680
f 671 672 681
f 672 682 681
f 672 673 682
f 673 683 682
f 673 674 683
f 674 684 683
f 674 665 684
f 665 675 684
f 685 686 695
f 686 696 695
f 686 687 696
f 687 697 696
f 687 688 697
f 688 698 697
f 688 689 698
f 689 699 698
f 689 690 699
f 690 700 699
f 690 691 700
f 691 701 700
f 691 692 701
f 692 702 701
f 692 693 702
f 693 703 702
f 693 694 703
f 694 704 703
f 694 685 704
f 685 695 704
f 705 706 715
f 706 716 715
f 706 707 716
f 707 717 716
f 707 708 717
f 708 718 717
f 708 709 718
f 709 719 718
f 709 710 719
f 710 720 719
f 710 711 720
f 711 721 720
f 711 712 721
f 712 722 721
f 712 713 722
f 713 723 722
f 713 714 723
f 714 724 723
f 714 705 724
f 705 715 724
f 725 726 735
f 726 736 735
f 726 727 736
f 727 737 736
f 727 728 737
f 728 738 737
f 728 729 738
f 729 739 738
f 729 730 739
f 730 740 739
f 730 731 740
f 731 741 740
f 731 732 741
f 732 742 741
f 732 733 742
f 733 743 742
f 733 734 743
f 734 744 743
f 734 725 744
f 725 735 744
f 745 746 755
f 746 756 755
f 746 747 756
f 747 757 756
f 747 748 757
f 748 758 757
f 748 749 758
f 749 759 758
f 749 750 759
f 750 760 759
f 750 751 760
f 751 761 760
f 751 752 761
f 752 762 761
f 752 753 762
f 753 763 762
f 753 754 763
f 754 764 763
f 754 745 764
f 745 755 764
f 765 766 775
f 766 776 775
f 766 767 776
f 767 777 776
f 767 768 777
f 768 778 777
f 768 769 778
f 769 779 778
f 769 770 779
f 770 780 779
f 770 771 780
f 771 781 780
f 771 772 781
f 772 782 781
f 772 773 782
f 773 783 782
f 773 774 783
f 774 784 783
f 774 765 784
f 765 775 784
