# Full-Body 3D Mesh - Frame 105
v 0.005480 -0.645085 -0.134788
v 0.039288 -0.645085 -0.139649
v 0.070357 -0.645085 -0.153838
v 0.096170 -0.645085 -0.176205
v 0.114636 -0.645085 -0.204938
v 0.124258 -0.645085 -0.237711
v 0.124258 -0.645085 -0.271866
v 0.114636 -0.645085 -0.304638
v 0.096170 -0.645085 -0.333372
v 0.070357 -0.645085 -0.355739
v 0.039288 -0.645085 -0.369927
v 0.005480 -0.645085 -0.374788
v 0.005480 -0.645085 -0.134788
v 0.033921 -0.626807 -0.139649
v 0.060058 -0.610010 -0.153838
v 0.081773 -0.596054 -0.176205
v 0.097308 -0.586071 -0.204938
v 0.105403 -0.580868 -0.237711
v 0.105403 -0.580868 -0.271866
v 0.097308 -0.586071 -0.304638
v 0.081773 -0.596054 -0.333372
v 0.060058 -0.610010 -0.355739
v 0.033921 -0.626807 -0.369927
v 0.005480 -0.645085 -0.374788
v 0.005480 -0.645085 -0.134788
v 0.019524 -0.614332 -0.139649
v 0.032431 -0.586071 -0.153838
v 0.043154 -0.562590 -0.176205
v 0.050825 -0.545793 -0.204938
v 0.054822 -0.537040 -0.237711
v 0.054822 -0.537040 -0.271866
v 0.050825 -0.545793 -0.304638
v 0.043154 -0.562590 -0.333372
v 0.032431 -0.586071 -0.355739
v 0.019524 -0.614332 -0.369927
v 0.005480 -0.645085 -0.374788
v 0.005480 -0.645085 -0.134788
v 0.000668 -0.611621 -0.139649
v -0.003753 -0.580868 -0.153838
v -0.007427 -0.555318 -0.176205
v -0.010055 -0.537040 -0.204938
v -0.011424 -0.527515 -0.237711
v -0.011424 -0.527515 -0.271866
v -0.010055 -0.537040 -0.304638
v -0.007427 -0.555318 -0.333372
v -0.003753 -0.580868 -0.355739
v 0.000668 -0.611621 -0.369927
v 0.005480 -0.645085 -0.374788
v 0.005480 -0.645085 -0.134788
v -0.016660 -0.619534 -0.139649
v -0.037006 -0.596054 -0.153838
v -0.053910 -0.576546 -0.176205
v -0.066002 -0.562590 -0.204938
v -0.072304 -0.555318 -0.237711
v -0.072304 -0.555318 -0.271866
v -0.066002 -0.562590 -0.304638
v -0.053910 -0.576546 -0.333372
v -0.037006 -0.596054 -0.355739
v -0.016660 -0.619534 -0.369927
v 0.005480 -0.645085 -0.374788
v 0.005480 -0.645085 -0.134788
v -0.026959 -0.635560 -0.139649
v -0.056769 -0.626807 -0.153838
v -0.081537 -0.619534 -0.176205
v -0.099254 -0.614332 -0.204938
v -0.108487 -0.611621 -0.237711
v -0.108487 -0.611621 -0.271866
v -0.099254 -0.614332 -0.304638
v -0.081537 -0.619534 -0.333372
v -0.056769 -0.626807 -0.355739
v -0.026959 -0.635560 -0.369927
v 0.005480 -0.645085 -0.374788
v 0.005480 -0.645085 -0.134788
v -0.026959 -0.654609 -0.139649
v -0.056769 -0.663363 -0.153838
v -0.081537 -0.670635 -0.176205
v -0.099254 -0.675837 -0.204938
v -0.108487 -0.678548 -0.237711
v -0.108487 -0.678548 -0.271866
v -0.099254 -0.675837 -0.304638
v -0.081537 -0.670635 -0.333372
v -0.056769 -0.663363 -0.355739
v -0.026959 -0.654609 -0.369927
v 0.005480 -0.645085 -0.374788
v 0.005480 -0.645085 -0.134788
v -0.016660 -0.670635 -0.139649
v -0.037006 -0.694115 -0.153838
v -0.053910 -0.713624 -0.176205
v -0.066002 -0.727579 -0.204938
v -0.072304 -0.734852 -0.237711
v -0.072304 -0.734852 -0.271866
v -0.066002 -0.727579 -0.304638
v -0.053910 -0.713624 -0.333372
v -0.037006 -0.694115 -0.355739
v -0.016660 -0.670635 -0.369927
v 0.005480 -0.645085 -0.374788
v 0.005480 -0.645085 -0.134788
v 0.000668 -0.678548 -0.139649
v -0.003753 -0.709301 -0.153838
v -0.007427 -0.734852 -0.176205
v -0.010055 -0.753129 -0.204938
v -0.011424 -0.762654 -0.237711
v -0.011424 -0.762654 -0.271866
v -0.010055 -0.753129 -0.304638
v -0.007427 -0.734852 -0.333372
v -0.003753 -0.709301 -0.355739
v 0.000668 -0.678548 -0.369927
v 0.005480 -0.645085 -0.374788
v 0.005480 -0.645085 -0.134788
v 0.019524 -0.675837 -0.139649
v 0.032431 -0.704099 -0.153838
v 0.043154 -0.727579 -0.176205
v 0.050825 -0.744376 -0.204938
v 0.054822 -0.753129 -0.237711
v 0.054822 -0.753129 -0.271866
v 0.050825 -0.744376 -0.304638
v 0.043154 -0.727579 -0.333372
v 0.032431 -0.704099 -0.355739
v 0.019524 -0.675837 -0.369927
v 0.005480 -0.645085 -0.374788
v 0.005480 -0.645085 -0.134788
v 0.033921 -0.663363 -0.139649
v 0.060058 -0.680160 -0.153838
v 0.081773 -0.694115 -0.176205
v 0.097308 -0.704099 -0.204938
v 0.105403 -0.709301 -0.237711
v 0.105403 -0.709301 -0.271866
v 0.097308 -0.704099 -0.304638
v 0.081773 -0.694115 -0.333372
v 0.060058 -0.680160 -0.355739
v 0.033921 -0.663363 -0.369927
v 0.005480 -0.645085 -0.374788
v 0.005480 -0.645085 -0.134788
v 0.039288 -0.645085 -0.139649
v 0.070357 -0.645085 -0.153838
v 0.096170 -0.645085 -0.176205
v 0.114636 -0.645085 -0.204938
v 0.124258 -0.645085 -0.237711
v 0.124258 -0.645085 -0.271866
v 0.114636 -0.645085 -0.304638
v 0.096170 -0.645085 -0.333372
v 0.070357 -0.645085 -0.355739
v 0.039288 -0.645085 -0.369927
v 0.005480 -0.645085 -0.374788
v 0.177670 -0.460615 -0.109603
v 0.178228 -0.484125 -0.101978
v 0.179086 -0.498654 -0.081996
v 0.179915 -0.498654 -0.057288
v 0.180399 -0.484125 -0.037293
v 0.180353 -0.460615 -0.029648
v 0.179794 -0.437106 -0.037273
v 0.178937 -0.422576 -0.057255
v 0.178108 -0.422576 -0.081963
v 0.177624 -0.437106 -0.101958
v -0.155883 -0.464907 -0.098411
v -0.155324 -0.488417 -0.090786
v -0.154467 -0.502946 -0.070803
v -0.153638 -0.502946 -0.046096
v -0.153154 -0.488417 -0.026101
v -0.153200 -0.464907 -0.018456
v -0.153758 -0.441398 -0.026081
v -0.154616 -0.426868 -0.046063
v -0.155445 -0.426868 -0.070771
v -0.155929 -0.441398 -0.090766
v 0.179011 -0.463365 -0.109531
v 0.155907 -0.458493 -0.102209
v 0.141628 -0.454431 -0.082441
v 0.141628 -0.452732 -0.057779
v 0.155907 -0.454044 -0.037641
v 0.179011 -0.457866 -0.029720
v 0.202115 -0.462738 -0.037042
v 0.216395 -0.466799 -0.056809
v 0.216395 -0.468498 -0.081472
v 0.202115 -0.467187 -0.101610
v 0.225252 -0.218756 -0.126385
v 0.202148 -0.213884 -0.119063
v 0.187868 -0.209823 -0.099296
v 0.187868 -0.208123 -0.074633
v 0.202148 -0.209435 -0.054495
v 0.225252 -0.213257 -0.046574
v 0.248356 -0.218129 -0.053896
v 0.262635 -0.222190 -0.073664
v 0.262635 -0.223890 -0.098326
v 0.248356 -0.222578 -0.118464
v 0.225252 -0.238801 -0.119349
v 0.201743 -0.234163 -0.113269
v 0.187214 -0.222591 -0.096956
v 0.187214 -0.208503 -0.076641
v 0.201743 -0.197281 -0.060085
v 0.225252 -0.193212 -0.053610
v 0.248761 -0.197849 -0.059691
v 0.263290 -0.209422 -0.076004
v 0.263290 -0.223510 -0.096318
v 0.248761 -0.234732 -0.112875
v 0.228061 -0.081806 -0.228222
v 0.204552 -0.077168 -0.222141
v 0.190023 -0.065596 -0.205828
v 0.190023 -0.051508 -0.185514
v 0.204552 -0.040286 -0.168957
v 0.228061 -0.036217 -0.162483
v 0.251570 -0.040854 -0.168563
v 0.266099 -0.052427 -0.184876
v 0.266099 -0.066515 -0.205191
v 0.251570 -0.077736 -0.221747
v -0.154541 -0.472713 -0.097664
v -0.175299 -0.482051 -0.088017
v -0.188128 -0.484840 -0.067070
v -0.188128 -0.480016 -0.042824
v -0.175299 -0.469421 -0.024540
v -0.154541 -0.457102 -0.019202
v -0.133783 -0.447764 -0.028849
v -0.120954 -0.444974 -0.049796
v -0.120954 -0.449798 -0.074042
v -0.133783 -0.460394 -0.092326
v -0.285218 -0.231750 -0.145606
v -0.305976 -0.241088 -0.135960
v -0.318805 -0.243878 -0.115012
v -0.318805 -0.239054 -0.090766
v -0.305976 -0.228458 -0.072482
v -0.285218 -0.216139 -0.067144
v -0.264460 -0.206801 -0.076791
v -0.251631 -0.204012 -0.097738
v -0.251631 -0.208836 -0.121984
v -0.264460 -0.219431 -0.140268
v -0.285218 -0.263900 -0.108265
v -0.308142 -0.256022 -0.113121
v -0.322310 -0.235892 -0.115400
v -0.322310 -0.211198 -0.114232
v -0.308142 -0.191373 -0.110063
v -0.285218 -0.183989 -0.104485
v -0.262294 -0.191867 -0.099630
v -0.248126 -0.211997 -0.097351
v -0.248126 -0.236691 -0.098519
v -0.262294 -0.256516 -0.102688
v -0.236929 -0.253885 -0.319989
v -0.259853 -0.246008 -0.324845
v -0.274021 -0.225877 -0.327124
v -0.274021 -0.201184 -0.325956
v -0.259853 -0.181359 -0.321787
v -0.236929 -0.173974 -0.316210
v -0.214005 -0.181852 -0.311354
v -0.199837 -0.201982 -0.309075
v -0.199837 -0.226676 -0.310243
v -0.214005 -0.246501 -0.314412
v 0.179011 -0.455230 -0.109261
v 0.155635 -0.458755 -0.102031
v 0.141188 -0.462990 -0.082422
v 0.141188 -0.466318 -0.057926
v 0.155635 -0.467468 -0.037898
v 0.179011 -0.466000 -0.029990
v 0.202387 -0.462476 -0.037220
v 0.216835 -0.458240 -0.056829
v 0.216835 -0.454912 -0.081325
v 0.202387 -0.453763 -0.101352
v 0.128338 0.010717 -0.045958
v 0.104962 0.007192 -0.038727
v 0.090514 0.002957 -0.019119
v 0.090514 -0.000371 0.005377
v 0.104962 -0.001520 0.025405
v 0.128338 -0.000053 0.033314
v 0.151714 0.003472 0.026083
v 0.166161 0.007707 0.006475
v 0.166161 0.011035 -0.018022
v 0.151714 0.012185 -0.038049
v -0.154541 -0.459010 -0.097996
v -0.178012 -0.458767 -0.090236
v -0.192517 -0.460869 -0.070329
v -0.192517 -0.464514 -0.045877
v -0.178012 -0.468309 -0.026222
v -0.154541 -0.470804 -0.018870
v -0.131070 -0.471048 -0.026630
v -0.116565 -0.468946 -0.046538
v -0.116565 -0.465301 -0.070989
v -0.131070 -0.461506 -0.090645
v -0.127943 -0.013065 -0.031526
v -0.151414 -0.012822 -0.023767
v -0.165920 -0.014924 -0.003859
v -0.165920 -0.018569 0.020592
v -0.151414 -0.022364 0.040248
v -0.127943 -0.024859 0.047599
v -0.104473 -0.025103 0.039839
v -0.089967 -0.023000 0.019932
v -0.089967 -0.019356 -0.004519
v -0.104473 -0.015561 -0.024175
v 0.126100 0.005332 -0.046260
v 0.128739 -0.018075 -0.038756
v 0.131225 -0.032541 -0.018864
v 0.132608 -0.032541 0.005819
v 0.132360 -0.018075 0.025864
v 0.130575 0.005332 0.033615
v 0.127936 0.028739 0.026112
v 0.125450 0.043205 0.006220
v 0.124067 0.043205 -0.018463
v 0.124316 0.028739 -0.038508
v -0.130181 -0.018962 -0.031901
v -0.127542 -0.042369 -0.024397
v -0.125056 -0.056835 -0.004505
v -0.123673 -0.056835 0.020177
v -0.123921 -0.042369 0.040223
v -0.125706 -0.018962 0.047974
v -0.128345 0.004444 0.040470
v -0.130831 0.018911 0.020578
v -0.132214 0.018911 -0.004104
v -0.131965 0.004444 -0.024150
v 0.128338 -0.010072 -0.043237
v 0.104959 -0.009430 -0.035227
v 0.090510 -0.003149 -0.016177
v 0.090510 0.006372 0.006638
v 0.104959 0.015495 0.024502
v 0.128338 0.020737 0.030593
v 0.151717 0.020094 0.022583
v 0.166166 0.013813 0.003532
v 0.166166 0.004293 -0.019282
v 0.151717 -0.004831 -0.037147
v 0.112702 0.125316 -0.099734
v 0.089323 0.125958 -0.091725
v 0.074874 0.132239 -0.072674
v 0.074874 0.141760 -0.049859
v 0.089323 0.150883 -0.031995
v 0.112702 0.156125 -0.025905
v 0.136081 0.155482 -0.033914
v 0.150530 0.149201 -0.052965
v 0.150530 0.139681 -0.075779
v 0.136081 0.130557 -0.093644
v 0.112702 0.159672 -0.098045
v 0.089314 0.158176 -0.090175
v 0.074860 0.150013 -0.071856
v 0.074860 0.138301 -0.050085
v 0.089314 0.127512 -0.033179
v 0.112702 0.121769 -0.027594
v 0.136089 0.123264 -0.035464
v 0.150543 0.131427 -0.053783
v 0.150543 0.143140 -0.075554
v 0.136089 0.153928 -0.092460
v 0.149971 0.477905 0.073166
v 0.126584 0.476410 0.081036
v 0.112130 0.468247 0.099355
v 0.112130 0.456534 0.121126
v 0.126584 0.445745 0.138032
v 0.149971 0.440002 0.143617
v 0.173358 0.441497 0.135747
v 0.187813 0.449660 0.117428
v 0.187813 0.461373 0.095657
v 0.173358 0.472161 0.078751
v -0.127943 -0.057720 0.017927
v -0.151454 -0.050375 0.015814
v -0.165984 -0.031032 0.010730
v -0.165984 -0.007078 0.004617
v -0.151454 0.012336 -0.000189
v -0.127943 0.019796 -0.001854
v -0.104433 0.012451 0.000259
v -0.089903 -0.006893 0.005343
v -0.089903 -0.030847 0.011455
v -0.104433 -0.050261 0.016262
v -0.126194 -0.101682 -0.154343
v -0.149705 -0.094337 -0.156456
v -0.164235 -0.074993 -0.161540
v -0.164235 -0.051040 -0.167653
v -0.149705 -0.031625 -0.172459
v -0.126194 -0.024166 -0.174124
v -0.102684 -0.031511 -0.172011
v -0.088154 -0.050855 -0.166927
v -0.088154 -0.074808 -0.160815
v -0.102684 -0.094223 -0.156008
v -0.126194 -0.068043 -0.203905
v -0.149478 -0.063831 -0.196746
v -0.163869 -0.059272 -0.177168
v -0.163869 -0.056108 -0.152650
v -0.149478 -0.055548 -0.132556
v -0.126194 -0.057805 -0.124562
v -0.102910 -0.062017 -0.131722
v -0.088520 -0.066576 -0.151299
v -0.088520 -0.069740 -0.175817
v -0.102910 -0.070300 -0.195911
v -0.082399 0.242025 -0.243915
v -0.105683 0.246238 -0.236756
v -0.120073 0.250796 -0.217179
v -0.120073 0.253960 -0.192661
v -0.105683 0.254521 -0.172567
v -0.082399 0.252263 -0.164573
v -0.059115 0.248051 -0.171732
v -0.044725 0.243492 -0.191310
v -0.044725 0.240328 -0.215828
v -0.059115 0.239768 -0.235921
f 1 2 13
f 2 14 13
f 2 3 14
f 3 15 14
f 3 4 15
f 4 16 15
f 4 5 16
f 5 17 16
f 5 6 17
f 6 18 17
f 6 7 18
f 7 19 18
f 7 8 19
f 8 20 19
f 8 9 20
f 9 21 20
f 9 10 21
f 10 22 21
f 10 11 22
f 11 23 22
f 11 12 23
f 12 24 23
f 13 14 25
f 14 26 25
f 14 15 26
f 15 27 26
f 15 16 27
f 16 28 27
f 16 17 28
f 17 29 28
f 17 18 29
f 18 30 29
f 18 19 30
f 19 31 30
f 19 20 31
f 20 32 31
f 20 21 32
f 21 33 32
f 21 22 33
f 22 34 33
f 22 23 34
f 23 35 34
f 23 24 35
f 24 36 35
f 25 26 37
f 26 38 37
f 26 27 38
f 27 39 38
f 27 28 39
f 28 40 39
f 28 29 40
f 29 41 40
f 29 30 41
f 30 42 41
f 30 31 42
f 31 43 42
f 31 32 43
f 32 44 43
f 32 33 44
f 33 45 44
f 33 34 45
f 34 46 45
f 34 35 46
f 35 47 46
f 35 36 47
f 36 48 47
f 37 38 49
f 38 50 49
f 38 39 50
f 39 51 50
f 39 40 51
f 40 52 51
f 40 41 52
f 41 53 52
f 41 42 53
f 42 54 53
f 42 43 54
f 43 55 54
f 43 44 55
f 44 56 55
f 44 45 56
f 45 57 56
f 45 46 57
f 46 58 57
f 46 47 58
f 47 59 58
f 47 48 59
f 48 60 59
f 49 50 61
f 50 62 61
f 50 51 62
f 51 63 62
f 51 52 63
f 52 64 63
f 52 53 64
f 53 65 64
f 53 54 65
f 54 66 65
f 54 55 66
f 55 67 66
f 55 56 67
f 56 68 67
f 56 57 68
f 57 69 68
f 57 58 69
f 58 70 69
f 58 59 70
f 59 71 70
f 59 60 71
f 60 72 71
f 61 62 73
f 62 74 73
f 62 63 74
f 63 75 74
f 63 64 75
f 64 76 75
f 64 65 76
f 65 77 76
f 65 66 77
f 66 78 77
f 66 67 78
f 67 79 78
f 67 68 79
f 68 80 79
f 68 69 80
f 69 81 80
f 69 70 81
f 70 82 81
f 70 71 82
f 71 83 82
f 71 72 83
f 72 84 83
f 73 74 85
f 74 86 85
f 74 75 86
f 75 87 86
f 75 76 87
f 76 88 87
f 76 77 88
f 77 89 88
f 77 78 89
f 78 90 89
f 78 79 90
f 79 91 90
f 79 80 91
f 80 92 91
f 80 81 92
f 81 93 92
f 81 82 93
f 82 94 93
f 82 83 94
f 83 95 94
f 83 84 95
f 84 96 95
f 85 86 97
f 86 98 97
f 86 87 98
f 87 99 98
f 87 88 99
f 88 100 99
f 88 89 100
f 89 101 100
f 89 90 101
f 90 102 101
f 90 91 102
f 91 103 102
f 91 92 103
f 92 104 103
f 92 93 104
f 93 105 104
f 93 94 105
f 94 106 105
f 94 95 106
f 95 107 106
f 95 96 107
f 96 108 107
f 97 98 109
f 98 110 109
f 98 99 110
f 99 111 110
f 99 100 111
f 100 112 111
f 100 101 112
f 101 113 112
f 101 102 113
f 102 114 113
f 102 103 114
f 103 115 114
f 103 104 115
f 104 116 115
f 104 105 116
f 105 117 116
f 105 106 117
f 106 118 117
f 106 107 118
f 107 119 118
f 107 108 119
f 108 120 119
f 109 110 121
f 110 122 121
f 110 111 122
f 111 123 122
f 111 112 123
f 112 124 123
f 112 113 124
f 113 125 124
f 113 114 125
f 114 126 125
f 114 115 126
f 115 127 126
f 115 116 127
f 116 128 127
f 116 117 128
f 117 129 128
f 117 118 129
f 118 130 129
f 118 119 130
f 119 131 130
f 119 120 131
f 120 132 131
f 121 122 133
f 122 134 133
f 122 123 134
f 123 135 134
f 123 124 135
f 124 136 135
f 124 125 136
f 125 137 136
f 125 126 137
f 126 138 137
f 126 127 138
f 127 139 138
f 127 128 139
f 128 140 139
f 128 129 140
f 129 141 140
f 129 130 141
f 130 142 141
f 130 131 142
f 131 143 142
f 131 132 143
f 132 144 143
f 145 146 155
f 146 156 155
f 146 147 156
f 147 157 156
f 147 148 157
f 148 158 157
f 148 149 158
f 149 159 158
f 149 150 159
f 150 160 159
f 150 151 160
f 151 161 160
f 151 152 161
f 152 162 161
f 152 153 162
f 153 163 162
f 153 154 163
f 154 164 163
f 154 145 164
f 145 155 164
f 165 166 175
f 166 176 175
f 166 167 176
f 167 177 176
f 167 168 177
f 168 178 177
f 168 169 178
f 169 179 178
f 169 170 179
f 170 180 179
f 170 171 180
f 171 181 180
f 171 172 181
f 172 182 181
f 172 173 182
f 173 183 182
f 173 174 183
f 174 184 183
f 174 165 184
f 165 175 184
f 185 186 195
f 186 196 195
f 186 187 196
f 187 197 196
f 187 188 197
f 188 198 197
f 188 189 198
f 189 199 198
f 189 190 199
f 190 200 199
f 190 191 200
f 191 201 200
f 191 192 201
f 192 202 201
f 192 193 202
f 193 203 202
f 193 194 203
f 194 204 203
f 194 185 204
f 185 195 204
f 205 206 215
f 206 216 215
f 206 207 216
f 207 217 216
f 207 208 217
f 208 218 217
f 208 209 218
f 209 219 218
f 209 210 219
f 210 220 219
f 210 211 220
f 211 221 220
f 211 212 221
f 212 222 221
f 212 213 222
f 213 223 222
f 213 214 223
f 214 224 223
f 214 205 224
f 205 215 224
f 225 226 235
f 226 236 235
f 226 227 236
f 227 237 236
f 227 228 237
f 228 238 237
f 228 229 238
f 229 239 238
f 229 230 239
f 230 240 239
f 230 231 240
f 231 241 240
f 231 232 241
f 232 242 241
f 232 233 242
f 233 243 242
f 233 234 243
f 234 244 243
f 234 225 244
f 225 235 244
f 245 246 255
f 246 256 255
f 246 247 256
f 247 257 256
f 247 248 257
f 248 258 257
f 248 249 258
f 249 259 258
f 249 250 259
f 250 260 259
f 250 251 260
f 251 261 260
f 251 252 261
f 252 262 261
f 252 253 262
f 253 263 262
f 253 254 263
f 254 264 263
f 254 245 264
f 245 255 264
f 265 266 275
f 266 276 275
f 266 267 276
f 267 277 276
f 267 268 277
f 268 278 277
f 268 269 278
f 269 279 278
f 269 270 279
f 270 280 279
f 270 271 280
f 271 281 280
f 271 272 281
f 272 282 281
f 272 273 282
f 273 283 282
f 273 274 283
f 274 284 283
f 274 265 284
f 265 275 284
f 285 286 295
f 286 296 295
f 286 287 296
f 287 297 296
f 287 288 297
f 288 298 297
f 288 289 298
f 289 299 298
f 289 290 299
f 290 300 299
f 290 291 300
f 291 301 300
f 291 292 301
f 292 302 301
f 292 293 302
f 293 303 302
f 293 294 303
f 294 304 303
f 294 285 304
f 285 295 304
f 305 306 315
f 306 316 315
f 306 307 316
f 307 317 316
f 307 308 317
f 308 318 317
f 308 309 318
f 309 319 318
f 309 310 319
f 310 320 319
f 310 311 320
f 311 321 320
f 311 312 321
f 312 322 321
f 312 313 322
f 313 323 322
f 313 314 323
f 314 324 323
f 314 305 324
f 305 315 324
f 325 326 335
f 326 336 335
f 326 327 336
f 327 337 336
f 327 328 337
f 328 338 337
f 328 329 338
f 329 339 338
f 329 330 339
f 330 340 339
f 330 331 340
f 331 341 340
f 331 332 341
f 332 342 341
f 332 333 342
f 333 343 342
f 333 334 343
f 334 344 343
f 334 325 344
f 325 335 344
f 345 346 355
f 346 356 355
f 346 347 356
f 347 357 356
f 347 348 357
f 348 358 357
f 348 349 358
f 349 359 358
f 349 350 359
f 350 360 359
f 350 351 360
f 351 361 360
f 351 352 361
f 352 362 361
f 352 353 362
f 353 363 362
f 353 354 363
f 354 364 363
f 354 345 364
f 345 355 364
f 365 366 375
f 366 376 375
f 366 367 376
f 367 377 376
f 367 368 377
f 368 378 377
f 368 369 378
f 369 379 378
f 369 370 379
f 370 380 379
f 370 371 380
f 371 381 380
f 371 372 381
f 372 382 381
f 372 373 382
f 373 383 382
f 373 374 383
f 374 384 383
f 374 365 384
f 365 375 384
