# Full-Body 3D Mesh - Frame 94
v -0.002772 -0.644034 -0.144791
v 0.031036 -0.644034 -0.149652
v 0.062104 -0.644034 -0.163841
v 0.087918 -0.644034 -0.186208
v 0.106383 -0.644034 -0.214941
v 0.116006 -0.644034 -0.247713
v 0.116006 -0.644034 -0.281869
v 0.106383 -0.644034 -0.314641
v 0.087918 -0.644034 -0.343374
v 0.062104 -0.644034 -0.365742
v 0.031036 -0.644034 -0.379930
v -0.002772 -0.644034 -0.384791
v -0.002772 -0.644034 -0.144791
v 0.025669 -0.625756 -0.149652
v 0.051806 -0.608959 -0.163841
v 0.073521 -0.595004 -0.186208
v 0.089055 -0.585020 -0.214941
v 0.097150 -0.579818 -0.247713
v 0.097150 -0.579818 -0.281869
v 0.089055 -0.585020 -0.314641
v 0.073521 -0.595004 -0.343374
v 0.051806 -0.608959 -0.365742
v 0.025669 -0.625756 -0.379930
v -0.002772 -0.644034 -0.384791
v -0.002772 -0.644034 -0.144791
v 0.011272 -0.613282 -0.149652
v 0.024178 -0.585020 -0.163841
v 0.034902 -0.561540 -0.186208
v 0.042573 -0.544743 -0.214941
v 0.046570 -0.535990 -0.247713
v 0.046570 -0.535990 -0.281869
v 0.042573 -0.544743 -0.314641
v 0.034902 -0.561540 -0.343374
v 0.024178 -0.585020 -0.365742
v 0.011272 -0.613282 -0.379930
v -0.002772 -0.644034 -0.384791
v -0.002772 -0.644034 -0.144791
v -0.007584 -0.610571 -0.149652
v -0.012005 -0.579818 -0.163841
v -0.015679 -0.554267 -0.186208
v -0.018307 -0.535990 -0.214941
v -0.019676 -0.526465 -0.247713
v -0.019676 -0.526465 -0.281869
v -0.018307 -0.535990 -0.314641
v -0.015679 -0.554267 -0.343374
v -0.012005 -0.579818 -0.365742
v -0.007584 -0.610571 -0.379930
v -0.002772 -0.644034 -0.384791
v -0.002772 -0.644034 -0.144791
v -0.024912 -0.618484 -0.149652
v -0.045258 -0.595004 -0.163841
v -0.062162 -0.575495 -0.186208
v -0.074254 -0.561540 -0.214941
v -0.080556 -0.554267 -0.247713
v -0.080556 -0.554267 -0.281869
v -0.074254 -0.561540 -0.314641
v -0.062162 -0.575495 -0.343374
v -0.045258 -0.595004 -0.365742
v -0.024912 -0.618484 -0.379930
v -0.002772 -0.644034 -0.384791
v -0.002772 -0.644034 -0.144791
v -0.035211 -0.634510 -0.149652
v -0.065021 -0.625756 -0.163841
v -0.089789 -0.618484 -0.186208
v -0.107507 -0.613282 -0.214941
v -0.116740 -0.610571 -0.247713
v -0.116740 -0.610571 -0.281869
v -0.107507 -0.613282 -0.314641
v -0.089789 -0.618484 -0.343374
v -0.065021 -0.625756 -0.365742
v -0.035211 -0.634510 -0.379930
v -0.002772 -0.644034 -0.384791
v -0.002772 -0.644034 -0.144791
v -0.035211 -0.653559 -0.149652
v -0.065021 -0.662312 -0.163841
v -0.089789 -0.669585 -0.186208
v -0.107507 -0.674787 -0.214941
v -0.116740 -0.677498 -0.247713
v -0.116740 -0.677498 -0.281869
v -0.107507 -0.674787 -0.314641
v -0.089789 -0.669585 -0.343374
v -0.065021 -0.662312 -0.365742
v -0.035211 -0.653559 -0.379930
v -0.002772 -0.644034 -0.384791
v -0.002772 -0.644034 -0.144791
v -0.024912 -0.669585 -0.149652
v -0.045258 -0.693065 -0.163841
v -0.062162 -0.712573 -0.186208
v -0.074254 -0.726529 -0.214941
v -0.080556 -0.733801 -0.247713
v -0.080556 -0.733801 -0.281869
v -0.074254 -0.726529 -0.314641
v -0.062162 -0.712573 -0.343374
v -0.045258 -0.693065 -0.365742
v -0.024912 -0.669585 -0.379930
v -0.002772 -0.644034 -0.384791
v -0.002772 -0.644034 -0.144791
v -0.007584 -0.677498 -0.149652
v -0.012005 -0.708251 -0.163841
v -0.015679 -0.733801 -0.186208
v -0.018307 -0.752079 -0.214941
v -0.019676 -0.761604 -0.247713
v -0.019676 -0.761604 -0.281869
v -0.018307 -0.752079 -0.314641
v -0.015679 -0.733801 -0.343374
v -0.012005 -0.708251 -0.365742
v -0.007584 -0.677498 -0.379930
v -0.002772 -0.644034 -0.384791
v -0.002772 -0.644034 -0.144791
v 0.011272 -0.674787 -0.149652
v 0.024178 -0.703048 -0.163841
v 0.034902 -0.726529 -0.186208
v 0.042573 -0.743326 -0.214941
v 0.046570 -0.752079 -0.247713
v 0.046570 -0.752079 -0.281869
v 0.042573 -0.743326 -0.314641
v 0.034902 -0.726529 -0.343374
v 0.024178 -0.703048 -0.365742
v 0.011272 -0.674787 -0.379930
v -0.002772 -0.644034 -0.384791
v -0.002772 -0.644034 -0.144791
v 0.025669 -0.662312 -0.149652
v 0.051806 -0.679109 -0.163841
v 0.073521 -0.693065 -0.186208
v 0.089055 -0.703048 -0.214941
v 0.097150 -0.708251 -0.247713
v 0.097150 -0.708251 -0.281869
v 0.089055 -0.703048 -0.314641
v 0.073521 -0.693065 -0.343374
v 0.051806 -0.679109 -0.365742
v 0.025669 -0.662312 -0.379930
v -0.002772 -0.644034 -0.384791
v -0.002772 -0.644034 -0.144791
v 0.031036 -0.644034 -0.149652
v 0.062104 -0.644034 -0.163841
v 0.087918 -0.644034 -0.186208
v 0.106383 -0.644034 -0.214941
v 0.116006 -0.644034 -0.247713
v 0.116006 -0.644034 -0.281869
v 0.106383 -0.644034 -0.314641
v 0.087918 -0.644034 -0.343374
v 0.062104 -0.644034 -0.365742
v 0.031036 -0.644034 -0.379930
v -0.002772 -0.644034 -0.384791
v 0.169010 -0.448860 -0.108775
v 0.167814 -0.472368 -0.101218
v 0.165513 -0.486896 -0.081350
v 0.162985 -0.486896 -0.056758
v 0.161198 -0.472368 -0.036836
v 0.160832 -0.448860 -0.029194
v 0.162028 -0.425352 -0.036751
v 0.164330 -0.410824 -0.056620
v 0.166857 -0.410824 -0.081211
v 0.168645 -0.425352 -0.101133
v -0.156510 -0.443048 -0.142229
v -0.157706 -0.466555 -0.134672
v -0.160008 -0.481084 -0.114803
v -0.162535 -0.481084 -0.090211
v -0.164323 -0.466555 -0.070290
v -0.164689 -0.443048 -0.062648
v -0.163492 -0.419540 -0.070204
v -0.161191 -0.405012 -0.090073
v -0.158664 -0.405012 -0.114665
v -0.156876 -0.419540 -0.134587
v 0.164921 -0.448901 -0.108985
v 0.141538 -0.446443 -0.101348
v 0.127086 -0.444908 -0.081349
v 0.127086 -0.444882 -0.056628
v 0.141538 -0.446376 -0.036626
v 0.164921 -0.448819 -0.028985
v 0.188304 -0.451277 -0.036621
v 0.202756 -0.452812 -0.056620
v 0.202756 -0.452838 -0.081341
v 0.188304 -0.451344 -0.101343
v 0.189728 -0.212183 -0.109227
v 0.166345 -0.209724 -0.101590
v 0.151893 -0.208189 -0.081591
v 0.151893 -0.208164 -0.056870
v 0.166345 -0.209658 -0.036869
v 0.189728 -0.212101 -0.029227
v 0.213112 -0.214559 -0.036863
v 0.227563 -0.216094 -0.056862
v 0.227563 -0.216119 -0.081583
v 0.213112 -0.214625 -0.101585
v 0.189728 -0.236536 -0.100927
v 0.166217 -0.231771 -0.094955
v 0.151687 -0.219508 -0.079155
v 0.151687 -0.204431 -0.059564
v 0.166217 -0.192299 -0.043663
v 0.189728 -0.187747 -0.037526
v 0.213239 -0.192513 -0.043499
v 0.227770 -0.204776 -0.059298
v 0.227770 -0.219853 -0.078890
v 0.213239 -0.231984 -0.094791
v 0.190869 -0.078516 -0.222530
v 0.167358 -0.073750 -0.216558
v 0.152827 -0.061487 -0.200759
v 0.152827 -0.046410 -0.181167
v 0.167358 -0.034279 -0.165266
v 0.190869 -0.029726 -0.159130
v 0.214380 -0.034492 -0.165102
v 0.228911 -0.046755 -0.180901
v 0.228911 -0.061832 -0.200493
v 0.214380 -0.073963 -0.216394
v -0.160599 -0.442451 -0.142434
v -0.183798 -0.446386 -0.134852
v -0.198136 -0.449046 -0.114890
v -0.198136 -0.449415 -0.090171
v -0.183798 -0.447352 -0.070138
v -0.160599 -0.443644 -0.062443
v -0.137401 -0.439709 -0.070024
v -0.123063 -0.437049 -0.089987
v -0.123063 -0.436681 -0.114705
v -0.137401 -0.438744 -0.134738
v -0.202648 -0.187231 -0.138628
v -0.225847 -0.191166 -0.131046
v -0.240184 -0.193826 -0.111084
v -0.240184 -0.194194 -0.086365
v -0.225847 -0.192131 -0.066332
v -0.202648 -0.188424 -0.058636
v -0.179449 -0.184488 -0.066218
v -0.165112 -0.181828 -0.086180
v -0.165112 -0.181460 -0.110899
v -0.179449 -0.183523 -0.130932
v -0.202648 -0.216090 -0.126937
v -0.226159 -0.210620 -0.121604
v -0.240690 -0.196444 -0.107496
v -0.240690 -0.178976 -0.090002
v -0.226159 -0.164889 -0.075805
v -0.202648 -0.159564 -0.070327
v -0.179137 -0.165034 -0.075660
v -0.164606 -0.179210 -0.089768
v -0.164606 -0.196678 -0.107262
v -0.179137 -0.210765 -0.121459
v -0.201893 -0.093341 -0.249503
v -0.225405 -0.087871 -0.244169
v -0.239935 -0.073694 -0.230061
v -0.239935 -0.056227 -0.212567
v -0.225405 -0.042140 -0.198370
v -0.201893 -0.036815 -0.192892
v -0.178382 -0.042285 -0.198225
v -0.163851 -0.056461 -0.212333
v -0.163851 -0.073929 -0.229827
v -0.178382 -0.088015 -0.244025
v 0.164921 -0.441806 -0.108358
v 0.141480 -0.444936 -0.101158
v 0.126992 -0.449565 -0.081668
v 0.126992 -0.453925 -0.057334
v 0.141480 -0.456350 -0.037450
v 0.164921 -0.455914 -0.029611
v 0.188363 -0.452784 -0.036812
v 0.202850 -0.448155 -0.056301
v 0.202850 -0.443795 -0.080635
v 0.188363 -0.441370 -0.100519
v 0.129562 0.008610 -0.027663
v 0.106120 0.005480 -0.020463
v 0.091633 0.000851 -0.000974
v 0.091633 -0.003508 0.023360
v 0.106120 -0.005933 0.043244
v 0.129562 -0.005497 0.051083
v 0.153004 -0.002367 0.043883
v 0.167491 0.002262 0.024394
v 0.167491 0.006621 0.000060
v 0.153004 0.009046 -0.019824
v -0.160599 -0.434492 -0.141513
v -0.184049 -0.434461 -0.133686
v -0.198542 -0.437710 -0.113923
v -0.198542 -0.442998 -0.089774
v -0.184049 -0.448305 -0.070462
v -0.160599 -0.451603 -0.063364
v -0.137150 -0.451634 -0.071191
v -0.122657 -0.448385 -0.090953
v -0.122657 -0.443097 -0.115103
v -0.137150 -0.437791 -0.134415
v -0.129088 -0.010896 -0.048762
v -0.152537 -0.010866 -0.040935
v -0.167030 -0.014115 -0.021173
v -0.167030 -0.019402 0.002977
v -0.152537 -0.024709 0.022288
v -0.129088 -0.028008 0.029386
v -0.105638 -0.028038 0.021559
v -0.091146 -0.024789 0.001797
v -0.091146 -0.019501 -0.022352
v -0.105638 -0.014195 -0.041664
v 0.132860 0.001557 -0.028154
v 0.134121 -0.021878 -0.020384
v 0.133640 -0.036362 -0.000355
v 0.131602 -0.036362 0.024282
v 0.128784 -0.021878 0.044117
v 0.126264 0.001557 0.051574
v 0.125003 0.024991 0.043804
v 0.125484 0.039475 0.023776
v 0.127522 0.039475 -0.000861
v 0.130340 0.024991 -0.020697
v -0.125790 -0.019452 -0.049552
v -0.124529 -0.042887 -0.041782
v -0.125010 -0.057370 -0.021753
v -0.127048 -0.057370 0.002884
v -0.129865 -0.042887 0.022719
v -0.132386 -0.019452 0.030176
v -0.133646 0.003983 0.022406
v -0.133166 0.018466 0.002378
v -0.131128 0.018466 -0.022259
v -0.128310 0.003983 -0.042095
v 0.129562 -0.020987 -0.021332
v 0.106078 -0.015748 -0.015659
v 0.091564 -0.003899 0.000469
v 0.091564 0.010034 0.020890
v 0.106078 0.020728 0.037805
v 0.129562 0.024100 0.044752
v 0.153046 0.018861 0.039079
v 0.167560 0.007012 0.022952
v 0.167560 -0.006921 0.002530
v 0.153046 -0.017615 -0.014384
v 0.137126 0.108833 -0.109904
v 0.113642 0.114072 -0.104231
v 0.099128 0.125921 -0.088103
v 0.099128 0.139854 -0.067682
v 0.113642 0.150548 -0.050767
v 0.137126 0.153920 -0.043820
v 0.160610 0.148681 -0.049493
v 0.175124 0.136832 -0.065621
v 0.175124 0.122899 -0.086042
v 0.160610 0.112205 -0.102957
v 0.137126 0.150531 -0.111978
v 0.113711 0.148742 -0.104251
v 0.099240 0.140321 -0.086063
v 0.099240 0.128483 -0.064361
v 0.113711 0.117750 -0.047433
v 0.137126 0.112222 -0.041746
v 0.160541 0.114011 -0.049472
v 0.175012 0.122433 -0.067661
v 0.175012 0.134271 -0.089363
v 0.160541 0.145003 -0.106291
v 0.164769 0.417351 0.033562
v 0.141354 0.415562 0.041288
v 0.126883 0.407141 0.059476
v 0.126883 0.395303 0.081179
v 0.141354 0.384570 0.098106
v 0.164769 0.379043 0.103793
v 0.188184 0.380831 0.096067
v 0.202655 0.389253 0.077879
v 0.202655 0.401091 0.056176
v 0.188184 0.411823 0.039248
v -0.129088 -0.059240 -0.005575
v -0.151674 -0.052313 -0.012858
v -0.165633 -0.032834 -0.018930
v -0.165633 -0.008243 -0.021471
v -0.151674 0.012066 -0.019512
v -0.129088 0.020336 -0.013800
v -0.106502 0.013409 -0.006518
v -0.092543 -0.006070 -0.000446
v -0.092543 -0.030660 0.002096
v -0.106502 -0.050970 0.000137
v -0.082116 -0.075939 -0.167136
v -0.104701 -0.069012 -0.174418
v -0.118660 -0.049533 -0.180490
v -0.118660 -0.024942 -0.183032
v -0.104701 -0.004633 -0.181072
v -0.082116 0.003637 -0.175361
v -0.059530 -0.003290 -0.168078
v -0.045571 -0.022769 -0.162006
v -0.045571 -0.047359 -0.159465
v -0.059530 -0.067668 -0.161424
v -0.082116 -0.032709 -0.211100
v -0.105627 -0.033345 -0.203487
v -0.120158 -0.035053 -0.183560
v -0.120158 -0.037181 -0.158930
v -0.105627 -0.038915 -0.139006
v -0.082116 -0.039593 -0.131397
v -0.058604 -0.038957 -0.139009
v -0.044073 -0.037248 -0.158936
v -0.044073 -0.035121 -0.183566
v -0.058604 -0.033387 -0.203491
v -0.081833 0.284209 -0.183725
v -0.105345 0.283572 -0.176112
v -0.119876 0.281864 -0.156185
v -0.119876 0.279736 -0.131556
v -0.105345 0.278002 -0.111631
v -0.081833 0.277324 -0.104022
v -0.058322 0.277961 -0.111635
v -0.043791 0.279669 -0.131561
v -0.043791 0.281797 -0.156191
v -0.058322 0.283531 -0.176116
f 1 2 13
f 2 14 13
f 2 3 14
f 3 15 14
f 3 4 15
f 4 16 15
f 4 5 16
f 5 17 16
f 5 6 17
f 6 18 17
f 6 7 18
f 7 19 18
f 7 8 19
f 8 20 19
f 8 9 20
f 9 21 20
f 9 10 21
f 10 22 21
f 10 11 22
f 11 23 22
f 11 12 23
f 12 24 23
f 13 14 25
f 14 26 25
f 14 15 26
f 15 27 26
f 15 16 27
f 16 28 27
f 16 17 28
f 17 29 28
f 17 18 29
f 18 30 29
f 18 19 30
f 19 31 30
f 19 20 31
f 20 32 31
f 20 21 32
f 21 33 32
f 21 22 33
f 22 34 33
f 22 23 34
f 23 35 34
f 23 24 35
f 24 36 35
f 25 26 37
f 26 38 37
f 26 27 38
f 27 39 38
f 27 28 39
f 28 40 39
f 28 29 40
f 29 41 40
f 29 30 41
f 30 42 41
f 30 31 42
f 31 43 42
f 31 32 43
f 32 44 43
f 32 33 44
f 33 45 44
f 33 34 45
f 34 46 45
f 34 35 46
f 35 47 46
f 35 36 47
f 36 48 47
f 37 38 49
f 38 50 49
f 38 39 50
f 39 51 50
f 39 40 51
f 40 52 51
f 40 41 52
f 41 53 52
f 41 42 53
f 42 54 53
f 42 43 54
f 43 55 54
f 43 44 55
f 44 56 55
f 44 45 56
f 45 57 56
f 45 46 57
f 46 58 57
f 46 47 58
f 47 59 58
f 47 48 59
f 48 60 59
f 49 50 61
f 50 62 61
f 50 51 62
f 51 63 62
f 51 52 63
f 52 64 63
f 52 53 64
f 53 65 64
f 53 54 65
f 54 66 65
f 54 55 66
f 55 67 66
f 55 56 67
f 56 68 67
f 56 57 68
f 57 69 68
f 57 58 69
f 58 70 69
f 58 59 70
f 59 71 70
f 59 60 71
f 60 72 71
f 61 62 73
f 62 74 73
f 62 63 74
f 63 75 74
f 63 64 75
f 64 76 75
f 64 65 76
f 65 77 76
f 65 66 77
f 66 78 77
f 66 67 78
f 67 79 78
f 67 68 79
f 68 80 79
f 68 69 80
f 69 81 80
f 69 70 81
f 70 82 81
f 70 71 82
f 71 83 82
f 71 72 83
f 72 84 83
f 73 74 85
f 74 86 85
f 74 75 86
f 75 87 86
f 75 76 87
f 76 88 87
f 76 77 88
f 77 89 88
f 77 78 89
f 78 90 89
f 78 79 90
f 79 91 90
f 79 80 91
f 80 92 91
f 80 81 92
f 81 93 92
f 81 82 93
f 82 94 93
f 82 83 94
f 83 95 94
f 83 84 95
f 84 96 95
f 85 86 97
f 86 98 97
f 86 87 98
f 87 99 98
f 87 88 99
f 88 100 99
f 88 89 100
f 89 101 100
f 89 90 101
f 90 102 101
f 90 91 102
f 91 103 102
f 91 92 103
f 92 104 103
f 92 93 104
f 93 105 104
f 93 94 105
f 94 106 105
f 94 95 106
f 95 107 106
f 95 96 107
f 96 108 107
f 97 98 109
f 98 110 109
f 98 99 110
f 99 111 110
f 99 100 111
f 100 112 111
f 100 101 112
f 101 113 112
f 101 102 113
f 102 114 113
f 102 103 114
f 103 115 114
f 103 104 115
f 104 116 115
f 104 105 116
f 105 117 116
f 105 106 117
f 106 118 117
f 106 107 118
f 107 119 118
f 107 108 119
f 108 120 119
f 109 110 121
f 110 122 121
f 110 111 122
f 111 123 122
f 111 112 123
f 112 124 123
f 112 113 124
f 113 125 124
f 113 114 125
f 114 126 125
f 114 115 126
f 115 127 126
f 115 116 127
f 116 128 127
f 116 117 128
f 117 129 128
f 117 118 129
f 118 130 129
f 118 119 130
f 119 131 130
f 119 120 131
f 120 132 131
f 121 122 133
f 122 134 133
f 122 123 134
f 123 135 134
f 123 124 135
f 124 136 135
f 124 125 136
f 125 137 136
f 125 126 137
f 126 138 137
f 126 127 138
f 127 139 138
f 127 128 139
f 128 140 139
f 128 129 140
f 129 141 140
f 129 130 141
f 130 142 141
f 130 131 142
f 131 143 142
f 131 132 143
f 132 144 143
f 145 146 155
f 146 156 155
f 146 147 156
f 147 157 156
f 147 148 157
f 148 158 157
f 148 149 158
f 149 159 158
f 149 150 159
f 150 160 159
f 150 151 160
f 151 161 160
f 151 152 161
f 152 162 161
f 152 153 162
f 153 163 162
f 153 154 163
f 154 164 163
f 154 145 164
f 145 155 164
f 165 166 175
f 166 176 175
f 166 167 176
f 167 177 176
f 167 168 177
f 168 178 177
f 168 169 178
f 169 179 178
f 169 170 179
f 170 180 179
f 170 171 180
f 171 181 180
f 171 172 181
f 172 182 181
f 172 173 182
f 173 183 182
f 173 174 183
f 174 184 183
f 174 165 184
f 165 175 184
f 185 186 195
f 186 196 195
f 186 187 196
f 187 197 196
f 187 188 197
f 188 198 197
f 188 189 198
f 189 199 198
f 189 190 199
f 190 200 199
f 190 191 200
f 191 201 200
f 191 192 201
f 192 202 201
f 192 193 202
f 193 203 202
f 193 194 203
f 194 204 203
f 194 185 204
f 185 195 204
f 205 206 215
f 206 216 215
f 206 207 216
f 207 217 216
f 207 208 217
f 208 218 217
f 208 209 218
f 209 219 218
f 209 210 219
f 210 220 219
f 210 211 220
f 211 221 220
f 211 212 221
f 212 222 221
f 212 213 222
f 213 223 222
f 213 214 223
f 214 224 223
f 214 205 224
f 205 215 224
f 225 226 235
f 226 236 235
f 226 227 236
f 227 237 236
f 227 228 237
f 228 238 237
f 228 229 238
f 229 239 238
f 229 230 239
f 230 240 239
f 230 231 240
f 231 241 240
f 231 232 241
f 232 242 241
f 232 233 242
f 233 243 242
f 233 234 243
f 234 244 243
f 234 225 244
f 225 235 244
f 245 246 255
f 246 256 255
f 246 247 256
f 247 257 256
f 247 248 257
f 248 258 257
f 248 249 258
f 249 259 258
f 249 250 259
f 250 260 259
f 250 251 260
f 251 261 260
f 251 252 261
f 252 262 261
f 252 253 262
f 253 263 262
f 253 254 263
f 254 264 263
f 254 245 264
f 245 255 264
f 265 266 275
f 266 276 275
f 266 267 276
f 267 277 276
f 267 268 277
f 268 278 277
f 268 269 278
f 269 279 278
f 269 270 279
f 270 280 279
f 270 271 280
f 271 281 280
f 271 272 281
f 272 282 281
f 272 273 282
f 273 283 282
f 273 274 283
f 274 284 283
f 274 265 284
f 265 275 284
f 285 286 295
f 286 296 295
f 286 287 296
f 287 297 296
f 287 288 297
f 288 298 297
f 288 289 298
f 289 299 298
f 289 290 299
f 290 300 299
f 290 291 300
f 291 301 300
f 291 292 301
f 292 302 301
f 292 293 302
f 293 303 302
f 293 294 303
f 294 304 303
f 294 285 304
f 285 295 304
f 305 306 315
f 306 316 315
f 306 307 316
f 307 317 316
f 307 308 317
f 308 318 317
f 308 309 318
f 309 319 318
f 309 310 319
f 310 320 319
f 310 311 320
f 311 321 320
f 311 312 321
f 312 322 321
f 312 313 322
f 313 323 322
f 313 314 323
f 314 324 323
f 314 305 324
f 305 315 324
f 325 326 335
f 326 336 335
f 326 327 336
f 327 337 336
f 327 328 337
f 328 338 337
f 328 329 338
f 329 339 338
f 329 330 339
f 330 340 339
f 330 331 340
f 331 341 340
f 331 332 341
f 332 342 341
f 332 333 342
f 333 343 342
f 333 334 343
f 334 344 343
f 334 325 344
f 325 335 344
f 345 346 355
f 346 356 355
f 346 347 356
f 347 357 356
f 347 348 357
f 348 358 357
f 348 349 358
f 349 359 358
f 349 350 359
f 350 360 359
f 350 351 360
f 351 361 360
f 351 352 361
f 352 362 361
f 352 353 362
f 353 363 362
f 353 354 363
f 354 364 363
f 354 345 364
f 345 355 364
f 365 366 375
f 366 376 375
f 366 367 376
f 367 377 376
f 367 368 377
f 368 378 377
f 368 369 378
f 369 379 378
f 369 370 379
f 370 380 379
f 370 371 380
f 371 381 380
f 371 372 381
f 372 382 381
f 372 373 382
f 373 383 382
f 373 374 383
f 374 384 383
f 374 365 384
f 365 375 384
