# Full-Body 3D Mesh - Frame 286
v 0.030106 -0.614460 -0.107822
v 0.063914 -0.614460 -0.112683
v 0.094983 -0.614460 -0.126872
v 0.120796 -0.614460 -0.149239
v 0.139262 -0.614460 -0.177973
v 0.148885 -0.614460 -0.210745
v 0.148885 -0.614460 -0.244900
v 0.139262 -0.614460 -0.277672
v 0.120796 -0.614460 -0.306406
v 0.094983 -0.614460 -0.328773
v 0.063914 -0.614460 -0.342962
v 0.030106 -0.614460 -0.347822
v 0.030106 -0.614460 -0.107822
v 0.058547 -0.596182 -0.112683
v 0.084684 -0.579385 -0.126872
v 0.106399 -0.565429 -0.149239
v 0.121934 -0.555446 -0.177973
v 0.130029 -0.550243 -0.210745
v 0.130029 -0.550243 -0.244900
v 0.121934 -0.555446 -0.277672
v 0.106399 -0.565429 -0.306406
v 0.084684 -0.579385 -0.328773
v 0.058547 -0.596182 -0.342962
v 0.030106 -0.614460 -0.347822
v 0.030106 -0.614460 -0.107822
v 0.044150 -0.583707 -0.112683
v 0.057057 -0.555446 -0.126872
v 0.067780 -0.531965 -0.149239
v 0.075451 -0.515168 -0.177973
v 0.079449 -0.506415 -0.210745
v 0.079449 -0.506415 -0.244900
v 0.075451 -0.515168 -0.277672
v 0.067780 -0.531965 -0.306406
v 0.057057 -0.555446 -0.328773
v 0.044150 -0.583707 -0.342962
v 0.030106 -0.614460 -0.347822
v 0.030106 -0.614460 -0.107822
v 0.025295 -0.580996 -0.112683
v 0.020873 -0.550243 -0.126872
v 0.017200 -0.524693 -0.149239
v 0.014572 -0.506415 -0.177973
v 0.013202 -0.496890 -0.210745
v 0.013202 -0.496890 -0.244900
v 0.014572 -0.506415 -0.277672
v 0.017200 -0.524693 -0.306406
v 0.020873 -0.550243 -0.328773
v 0.025295 -0.580996 -0.342962
v 0.030106 -0.614460 -0.347822
v 0.030106 -0.614460 -0.107822
v 0.007967 -0.588909 -0.112683
v -0.012379 -0.565429 -0.126872
v -0.029283 -0.545921 -0.149239
v -0.041376 -0.531965 -0.177973
v -0.047677 -0.524693 -0.210745
v -0.047677 -0.524693 -0.244900
v -0.041376 -0.531965 -0.277672
v -0.029283 -0.545921 -0.306406
v -0.012379 -0.565429 -0.328773
v 0.007967 -0.588909 -0.342962
v 0.030106 -0.614460 -0.347822
v 0.030106 -0.614460 -0.107822
v -0.002332 -0.604935 -0.112683
v -0.032143 -0.596182 -0.126872
v -0.056910 -0.588909 -0.149239
v -0.074628 -0.583707 -0.177973
v -0.083861 -0.580996 -0.210745
v -0.083861 -0.580996 -0.244900
v -0.074628 -0.583707 -0.277672
v -0.056910 -0.588909 -0.306406
v -0.032143 -0.596182 -0.328773
v -0.002332 -0.604935 -0.342962
v 0.030106 -0.614460 -0.347822
v 0.030106 -0.614460 -0.107822
v -0.002332 -0.623985 -0.112683
v -0.032143 -0.632738 -0.126872
v -0.056910 -0.640010 -0.149239
v -0.074628 -0.645213 -0.177973
v -0.083861 -0.647924 -0.210745
v -0.083861 -0.647924 -0.244900
v -0.074628 -0.645213 -0.277672
v -0.056910 -0.640010 -0.306406
v -0.032143 -0.632738 -0.328773
v -0.002332 -0.623985 -0.342962
v 0.030106 -0.614460 -0.347822
v 0.030106 -0.614460 -0.107822
v 0.007967 -0.640010 -0.112683
v -0.012379 -0.663490 -0.126872
v -0.029283 -0.682999 -0.149239
v -0.041376 -0.696954 -0.177973
v -0.047677 -0.704227 -0.210745
v -0.047677 -0.704227 -0.244900
v -0.041376 -0.696954 -0.277672
v -0.029283 -0.682999 -0.306406
v -0.012379 -0.663490 -0.328773
v 0.007967 -0.640010 -0.342962
v 0.030106 -0.614460 -0.347822
v 0.030106 -0.614460 -0.107822
v 0.025295 -0.647924 -0.112683
v 0.020873 -0.678676 -0.126872
v 0.017200 -0.704227 -0.149239
v 0.014572 -0.722505 -0.177973
v 0.013202 -0.732029 -0.210745
v 0.013202 -0.732029 -0.244900
v 0.014572 -0.722505 -0.277672
v 0.017200 -0.704227 -0.306406
v 0.020873 -0.678676 -0.328773
v 0.025295 -0.647924 -0.342962
v 0.030106 -0.614460 -0.347822
v 0.030106 -0.614460 -0.107822
v 0.044150 -0.645213 -0.112683
v 0.057057 -0.673474 -0.126872
v 0.067780 -0.696954 -0.149239
v 0.075451 -0.713751 -0.177973
v 0.079449 -0.722505 -0.210745
v 0.079449 -0.722505 -0.244900
v 0.075451 -0.713751 -0.277672
v 0.067780 -0.696954 -0.306406
v 0.057057 -0.673474 -0.328773
v 0.044150 -0.645213 -0.342962
v 0.030106 -0.614460 -0.347822
v 0.030106 -0.614460 -0.107822
v 0.058547 -0.632738 -0.112683
v 0.084684 -0.649535 -0.126872
v 0.106399 -0.663490 -0.149239
v 0.121934 -0.673474 -0.177973
v 0.130029 -0.678676 -0.210745
v 0.130029 -0.678676 -0.244900
v 0.121934 -0.673474 -0.277672
v 0.106399 -0.663490 -0.306406
v 0.084684 -0.649535 -0.328773
v 0.058547 -0.632738 -0.342962
v 0.030106 -0.614460 -0.347822
v 0.030106 -0.614460 -0.107822
v 0.063914 -0.614460 -0.112683
v 0.094983 -0.614460 -0.126872
v 0.120796 -0.614460 -0.149239
v 0.139262 -0.614460 -0.177973
v 0.148885 -0.614460 -0.210745
v 0.148885 -0.614460 -0.244900
v 0.139262 -0.614460 -0.277672
v 0.120796 -0.614460 -0.306406
v 0.094983 -0.614460 -0.328773
v 0.063914 -0.614460 -0.342962
v 0.030106 -0.614460 -0.347822
v 0.174486 -0.421683 -0.104392
v 0.176199 -0.445129 -0.096746
v 0.177194 -0.459620 -0.076742
v 0.177090 -0.459620 -0.052020
v 0.175929 -0.445129 -0.032025
v 0.174152 -0.421683 -0.024393
v 0.172439 -0.398236 -0.032040
v 0.171444 -0.383745 -0.052044
v 0.171547 -0.383745 -0.076765
v 0.172709 -0.398236 -0.096761
v -0.150694 -0.445881 -0.105749
v -0.148981 -0.469328 -0.098103
v -0.147986 -0.483819 -0.078099
v -0.148090 -0.483819 -0.053377
v -0.149251 -0.469328 -0.033382
v -0.151028 -0.445881 -0.025750
v -0.152741 -0.422435 -0.033397
v -0.153736 -0.407944 -0.053401
v -0.153633 -0.407944 -0.078122
v -0.152471 -0.422435 -0.098117
v 0.174319 -0.425927 -0.104167
v 0.151589 -0.419138 -0.097209
v 0.137541 -0.413322 -0.077716
v 0.137541 -0.410699 -0.053134
v 0.151589 -0.412272 -0.032853
v 0.174319 -0.417439 -0.024619
v 0.197049 -0.424227 -0.031577
v 0.211097 -0.430043 -0.051070
v 0.211097 -0.432666 -0.075652
v 0.197049 -0.431094 -0.095933
v 0.240927 -0.175498 -0.130886
v 0.218197 -0.168710 -0.123928
v 0.204150 -0.162894 -0.104435
v 0.204150 -0.160271 -0.079853
v 0.218197 -0.161844 -0.059572
v 0.240927 -0.167011 -0.051338
v 0.263657 -0.173799 -0.058296
v 0.277705 -0.179615 -0.077789
v 0.277705 -0.182238 -0.102371
v 0.263657 -0.180665 -0.122652
v 0.240927 -0.178258 -0.130494
v 0.217635 -0.173768 -0.123534
v 0.203240 -0.168318 -0.104189
v 0.203240 -0.163989 -0.079850
v 0.217635 -0.162436 -0.059812
v 0.240927 -0.164251 -0.051730
v 0.264220 -0.168742 -0.058691
v 0.278615 -0.174192 -0.078035
v 0.278615 -0.178520 -0.102375
v 0.264220 -0.180073 -0.122412
v 0.266544 0.005196 -0.163118
v 0.243252 0.009686 -0.156157
v 0.228856 0.015136 -0.136813
v 0.228856 0.019464 -0.112473
v 0.243252 0.021018 -0.092436
v 0.266544 0.019202 -0.084354
v 0.289836 0.014712 -0.091314
v 0.304232 0.009262 -0.110659
v 0.304232 0.004934 -0.134998
v 0.289836 0.003381 -0.155036
v -0.150861 -0.471777 -0.096236
v -0.170031 -0.477206 -0.081601
v -0.181879 -0.470670 -0.060911
v -0.181879 -0.454665 -0.042070
v -0.170031 -0.435305 -0.032274
v -0.150861 -0.419985 -0.035264
v -0.131691 -0.414556 -0.049899
v -0.119843 -0.421093 -0.070588
v -0.119843 -0.437097 -0.089429
v -0.131691 -0.456457 -0.099226
v -0.321140 -0.289010 -0.251486
v -0.340310 -0.294438 -0.236851
v -0.352158 -0.287902 -0.216162
v -0.352158 -0.271897 -0.197320
v -0.340310 -0.252538 -0.187524
v -0.321140 -0.237217 -0.190514
v -0.301969 -0.231789 -0.205149
v -0.290122 -0.238325 -0.225838
v -0.290122 -0.254329 -0.244680
v -0.301969 -0.273689 -0.254476
v -0.321140 -0.293722 -0.195249
v -0.340535 -0.296432 -0.210337
v -0.352522 -0.286415 -0.229497
v -0.352522 -0.267498 -0.245412
v -0.340535 -0.246906 -0.252002
v -0.321140 -0.232505 -0.246751
v -0.301744 -0.229795 -0.231663
v -0.289757 -0.239812 -0.212503
v -0.289757 -0.258729 -0.196588
v -0.301744 -0.279321 -0.189998
v -0.173227 -0.432692 -0.360438
v -0.192622 -0.435402 -0.375526
v -0.204609 -0.425385 -0.394686
v -0.204609 -0.406467 -0.410601
v -0.192622 -0.385875 -0.417191
v -0.173227 -0.371474 -0.411939
v -0.153832 -0.368765 -0.396852
v -0.141845 -0.378782 -0.377692
v -0.141845 -0.397699 -0.361777
v -0.153832 -0.418291 -0.355187
v 0.174319 -0.416395 -0.104042
v 0.150986 -0.420269 -0.096852
v 0.136565 -0.424684 -0.077263
v 0.136565 -0.427952 -0.052759
v 0.150986 -0.428826 -0.032698
v 0.174319 -0.426971 -0.024744
v 0.197652 -0.423096 -0.031934
v 0.212073 -0.418682 -0.051522
v 0.212073 -0.415413 -0.076027
v 0.197652 -0.414540 -0.096087
v 0.119588 0.021582 -0.045625
v 0.096255 0.017707 -0.038435
v 0.081834 0.013292 -0.018847
v 0.081834 0.010024 0.005658
v 0.096255 0.009150 0.025718
v 0.119588 0.011005 0.033673
v 0.142921 0.014880 0.026483
v 0.157342 0.019295 0.006894
v 0.157342 0.022563 -0.017610
v 0.142921 0.023437 -0.037671
v -0.150861 -0.438991 -0.105152
v -0.174306 -0.438572 -0.097323
v -0.188796 -0.440945 -0.077435
v -0.188796 -0.445203 -0.053083
v -0.174306 -0.449721 -0.033569
v -0.150861 -0.452771 -0.026348
v -0.127416 -0.453190 -0.034176
v -0.112926 -0.450817 -0.054065
v -0.112926 -0.446559 -0.078416
v -0.127416 -0.442042 -0.097930
v -0.118828 -0.018918 -0.031695
v -0.142274 -0.018499 -0.023867
v -0.156764 -0.020872 -0.003978
v -0.156764 -0.025130 0.020373
v -0.142274 -0.029647 0.039887
v -0.118828 -0.032698 0.047109
v -0.095383 -0.033117 0.039280
v -0.080893 -0.030744 0.019392
v -0.080893 -0.026485 -0.004960
v -0.095383 -0.021968 -0.024474
v 0.117296 0.016294 -0.045910
v 0.121809 -0.006861 -0.038518
v 0.125474 -0.021171 -0.018695
v 0.126890 -0.021171 0.005986
v 0.125517 -0.006861 0.026097
v 0.121880 0.016294 0.033958
v 0.117367 0.039448 0.026565
v 0.113702 0.053758 0.006743
v 0.112286 0.053758 -0.017938
v 0.113658 0.039448 -0.038050
v -0.121120 -0.025808 -0.032228
v -0.116607 -0.048962 -0.024835
v -0.112943 -0.063272 -0.005012
v -0.111526 -0.063272 0.019669
v -0.112899 -0.048962 0.039780
v -0.116537 -0.025808 0.047641
v -0.121050 -0.002653 0.040248
v -0.124714 0.011657 0.020426
v -0.126131 0.011657 -0.004255
v -0.124758 -0.002653 -0.024367
v 0.119588 0.008964 -0.045299
v 0.096225 0.007766 -0.037305
v 0.081787 0.009825 -0.017344
v 0.081787 0.014354 0.006959
v 0.096225 0.019625 0.026321
v 0.119588 0.023623 0.033347
v 0.142950 0.024821 0.025352
v 0.157389 0.022762 0.005392
v 0.157389 0.018233 -0.018911
v 0.142950 0.012962 -0.038273
v 0.103199 0.151382 -0.071844
v 0.079836 0.150183 -0.063849
v 0.065397 0.152242 -0.043889
v 0.065397 0.156772 -0.019586
v 0.079836 0.162042 -0.000224
v 0.103199 0.166040 0.006802
v 0.126561 0.167239 -0.001192
v 0.141000 0.165180 -0.021153
v 0.141000 0.160650 -0.045456
v 0.126561 0.155380 -0.064818
v 0.103199 0.180615 -0.065990
v 0.079862 0.178824 -0.058033
v 0.065439 0.169350 -0.040331
v 0.065439 0.155813 -0.019645
v 0.079862 0.143382 -0.003878
v 0.103199 0.136807 0.000949
v 0.126536 0.138599 -0.007009
v 0.140959 0.148072 -0.024711
v 0.140959 0.161610 -0.045396
v 0.126536 0.174040 -0.061164
v 0.147701 0.484601 0.132951
v 0.124364 0.482810 0.140908
v 0.109941 0.473336 0.158611
v 0.109941 0.459799 0.179296
v 0.124364 0.447368 0.195063
v 0.147701 0.440793 0.199890
v 0.171038 0.442585 0.191933
v 0.185461 0.452058 0.174230
v 0.185461 0.465596 0.153545
v 0.171038 0.478026 0.137778
v -0.118828 -0.065666 0.011066
v -0.142222 -0.057856 0.012769
v -0.156680 -0.037805 0.012538
v -0.156680 -0.013171 0.010462
v -0.142222 0.006636 0.007334
v -0.118828 0.014051 0.004348
v -0.095435 0.006241 0.002645
v -0.080977 -0.013810 0.002875
v -0.080977 -0.038444 0.004951
v -0.095435 -0.058252 0.008079
v -0.141078 -0.084242 -0.209372
v -0.164472 -0.076432 -0.207669
v -0.178930 -0.056381 -0.207899
v -0.178930 -0.031747 -0.209975
v -0.164472 -0.011939 -0.213104
v -0.141078 -0.004525 -0.216090
v -0.117685 -0.012335 -0.217793
v -0.103227 -0.032386 -0.217562
v -0.103227 -0.057020 -0.215487
v -0.117685 -0.076827 -0.212358
v -0.141078 -0.046656 -0.252666
v -0.164031 -0.041135 -0.245329
v -0.178216 -0.036854 -0.225540
v -0.178216 -0.035450 -0.200859
v -0.164031 -0.037457 -0.180712
v -0.141078 -0.042111 -0.172796
v -0.118126 -0.047632 -0.180133
v -0.103940 -0.051912 -0.199922
v -0.103940 -0.053317 -0.224603
v -0.118126 -0.051309 -0.244750
v -0.080648 0.225112 -0.268133
v -0.103600 0.230633 -0.260796
v -0.117786 0.234914 -0.241007
v -0.117786 0.236318 -0.216325
v -0.103600 0.234311 -0.196179
v -0.080648 0.229657 -0.188262
v -0.057695 0.224136 -0.195600
v -0.043510 0.219855 -0.215388
v -0.043510 0.218451 -0.240070
v -0.057695 0.220458 -0.260217
v -0.018291 0.101498 -0.002714
v -0.024297 0.094727 -0.000707
v -0.028009 0.086826 -0.003828
v -0.028009 0.080813 -0.010884
v -0.024297 0.078984 -0.019180
v -0.018291 0.082038 -0.025547
v -0.012284 0.088809 -0.027553
v -0.008572 0.096710 -0.024432
v -0.008572 0.102723 -0.017376
v -0.012284 0.104552 -0.009081
v 0.011435 0.080445 0.015228
v 0.005429 0.073674 0.017235
v 0.001716 0.065773 0.014114
v 0.001716 0.059760 0.007058
v 0.005429 0.057931 -0.001238
v 0.011435 0.060986 -0.007605
v 0.017441 0.067756 -0.009611
v 0.021153 0.075657 -0.006490
v 0.021153 0.081670 0.000566
v 0.017441 0.083499 0.008861
v 0.011435 0.079790 0.015755
v 0.005063 0.073205 0.017161
v 0.001125 0.065668 0.013468
v 0.001125 0.060060 0.006087
v 0.005063 0.058521 -0.002164
v 0.011435 0.061640 -0.008132
v 0.017806 0.068226 -0.009538
v 0.021744 0.075762 -0.005845
v 0.021744 0.081371 0.001537
v 0.017806 0.082909 0.009787
v 0.036268 0.059117 0.031463
v 0.029897 0.052532 0.032869
v 0.025959 0.044995 0.029176
v 0.025959 0.039387 0.021795
v 0.029897 0.037848 0.013544
v 0.036268 0.040967 0.007576
v 0.042640 0.047553 0.006170
v 0.046578 0.055089 0.009863
v 0.046578 0.060698 0.017245
v 0.042640 0.062237 0.025495
v 0.036268 0.057580 0.032488
v 0.029251 0.051526 0.032694
v 0.024914 0.044905 0.027867
v 0.024914 0.040246 0.019852
v 0.029251 0.039329 0.011710
v 0.036268 0.042505 0.006551
v 0.043286 0.048559 0.006346
v 0.047623 0.055180 0.011172
v 0.047623 0.059839 0.019187
v 0.043286 0.060756 0.027329
v 0.057290 0.033686 0.046376
v 0.050273 0.027632 0.046582
v 0.045936 0.021011 0.041755
v 0.045936 0.016352 0.033740
v 0.050273 0.015436 0.025598
v 0.057290 0.018611 0.020439
v 0.064308 0.024665 0.020234
v 0.068645 0.031286 0.025060
v 0.068645 0.035945 0.033075
v 0.064308 0.036862 0.041217
v 0.057290 0.031608 0.047379
v 0.048601 0.029177 0.045253
v 0.043230 0.025588 0.038603
v 0.043230 0.022214 0.029969
v 0.048601 0.020343 0.022648
v 0.057290 0.020689 0.019437
v 0.065980 0.023121 0.021562
v 0.071351 0.026709 0.028212
v 0.071351 0.030083 0.036847
v 0.065980 0.031955 0.044168
v 0.062141 0.005280 0.057667
v 0.053452 0.002849 0.055542
v 0.048081 -0.000740 0.048892
v 0.048081 -0.004114 0.040257
v 0.053452 -0.005985 0.032936
v 0.062141 -0.005639 0.029725
v 0.070831 -0.003207 0.031851
v 0.076202 0.000381 0.038501
v 0.076202 0.003755 0.047135
v 0.070831 0.005627 0.054456
v -0.018291 0.097970 -0.000472
v -0.026749 0.094519 -0.002052
v -0.031976 0.090017 -0.008244
v -0.031976 0.086184 -0.016686
v -0.026749 0.084484 -0.024151
v -0.018291 0.085566 -0.027788
v -0.009832 0.089017 -0.026209
v -0.004605 0.093519 -0.020016
v -0.004605 0.097352 -0.011575
v -0.009832 0.099052 -0.004110
v 0.010761 0.008085 0.040342
v 0.002303 0.004634 0.038762
v -0.002925 0.000133 0.032569
v -0.002925 -0.003700 0.024128
v 0.002303 -0.005400 0.016663
v 0.010761 -0.004318 0.013026
v 0.019219 -0.000867 0.014605
v 0.024446 0.003634 0.020798
v 0.024446 0.007467 0.029239
v 0.019219 0.009167 0.036704
v 0.010761 -0.000867 0.041429
v 0.003888 -0.005770 0.037601
v -0.000360 -0.007750 0.029602
v -0.000360 -0.006051 0.020489
v 0.003888 -0.001320 0.013742
v 0.010761 0.004634 0.011938
v 0.017634 0.009538 0.015767
v 0.021881 0.011518 0.023765
v 0.021881 0.009818 0.032879
v 0.017634 0.005088 0.039626
v 0.029761 -0.024111 0.037094
v 0.022888 -0.029015 0.033265
v 0.018640 -0.030995 0.025266
v 0.018640 -0.029295 0.016153
v 0.022888 -0.024565 0.009406
v 0.029761 -0.018611 0.007602
v 0.036634 -0.013707 0.011431
v 0.040881 -0.011727 0.019430
v 0.040881 -0.013427 0.028543
v 0.036634 -0.018157 0.035290
v 0.034693 -0.021361 0.036514
v 0.033581 -0.030176 0.033868
v 0.031009 -0.035624 0.026822
v 0.027960 -0.035624 0.018067
v 0.025599 -0.030176 0.010947
v 0.024828 -0.021361 0.008182
v 0.025941 -0.012546 0.010828
v 0.028513 -0.007098 0.017875
v 0.031561 -0.007098 0.026629
v 0.033922 -0.012546 0.033749
v 0.051933 -0.021735 0.030511
v 0.050820 -0.030550 0.027865
v 0.048248 -0.035998 0.020819
v 0.045200 -0.035998 0.012064
v 0.042839 -0.030550 0.004944
v 0.042067 -0.021735 0.002180
v 0.043180 -0.012920 0.004825
v 0.045752 -0.007473 0.011872
v 0.048801 -0.007473 0.020627
v 0.051161 -0.012920 0.027746
v 0.047000 -0.030763 0.004366
v 0.038889 -0.026278 0.004573
v 0.033877 -0.020058 0.009277
v 0.033877 -0.014479 0.016681
v 0.038889 -0.011671 0.023956
v 0.047000 -0.012708 0.028325
v 0.055111 -0.017193 0.028117
v 0.060124 -0.023413 0.023413
v 0.060124 -0.028992 0.016010
v 0.055111 -0.031800 0.008734
v 0.056951 -0.012118 -0.009685
v 0.048840 -0.007633 -0.009477
v 0.043827 -0.001413 -0.004774
v 0.043827 0.004166 0.002630
v 0.048840 0.006974 0.009906
v 0.056951 0.005937 0.014274
v 0.065062 0.001452 0.014067
v 0.070074 -0.004768 0.009363
v 0.070074 -0.010347 0.001959
v 0.065062 -0.013155 -0.005316
v -0.018291 0.095201 0.000472
v -0.027004 0.093236 -0.002009
v -0.032389 0.090710 -0.009120
v -0.032389 0.088589 -0.018144
v -0.027004 0.087681 -0.025635
v -0.018291 0.088335 -0.028732
v -0.009577 0.090300 -0.026251
v -0.004192 0.092826 -0.019140
v -0.004192 0.094947 -0.010116
v -0.009577 0.095855 -0.002625
v -0.003077 -0.000743 0.023030
v -0.011791 -0.002708 0.020549
v -0.017176 -0.005234 0.013439
v -0.017176 -0.007356 0.004414
v -0.011791 -0.008263 -0.003077
v -0.003077 -0.007610 -0.006174
v 0.005636 -0.005645 -0.003693
v 0.011022 -0.003119 0.003418
v 0.011022 -0.000997 0.012442
v 0.005636 -0.000090 0.019934
v -0.003077 -0.008394 0.022823
v -0.009645 -0.013233 0.018420
v -0.013704 -0.014614 0.010201
v -0.013704 -0.012008 0.001304
v -0.009645 -0.006410 -0.004871
v -0.003077 0.000040 -0.005967
v 0.003490 0.004880 -0.001564
v 0.007549 0.006261 0.006656
v 0.007549 0.003655 0.015552
v 0.003490 -0.001943 0.021728
v 0.023624 -0.037001 0.014443
v 0.017057 -0.041841 0.010040
v 0.012998 -0.043222 0.001820
v 0.012998 -0.040616 -0.007076
v 0.017057 -0.035018 -0.013252
v 0.023624 -0.028568 -0.014347
v 0.030192 -0.023728 -0.009944
v 0.034251 -0.022347 -0.001725
v 0.034251 -0.024953 0.007172
v 0.030192 -0.030551 0.013347
v 0.023624 -0.043987 -0.009927
v 0.017918 -0.037378 -0.013042
v 0.014391 -0.029014 -0.011156
v 0.014391 -0.022091 -0.004991
v 0.017918 -0.019252 0.003099
v 0.023624 -0.021582 0.010023
v 0.029331 -0.028191 0.013137
v 0.032858 -0.036555 0.011252
v 0.032858 -0.043478 0.005087
v 0.029331 -0.046317 -0.003003
v 0.044346 -0.032287 -0.023067
v 0.038639 -0.025678 -0.026181
v 0.035112 -0.017314 -0.024296
v 0.035112 -0.010391 -0.018131
v 0.038639 -0.007552 -0.010041
v 0.044346 -0.009882 -0.003117
v 0.050052 -0.016491 -0.000002
v 0.053579 -0.024854 -0.001888
v 0.053579 -0.031778 -0.008053
v 0.050052 -0.034617 -0.016143
v 0.044346 -0.022120 -0.028056
v 0.036593 -0.017734 -0.025488
v 0.031801 -0.014627 -0.018185
v 0.031801 -0.013987 -0.008937
v 0.036593 -0.016058 -0.001275
v 0.044346 -0.020049 0.001872
v 0.052099 -0.024435 -0.000696
v 0.056890 -0.027541 -0.007999
v 0.056890 -0.028181 -0.017247
v 0.052099 -0.026110 -0.024908
v 0.054374 -0.003644 -0.029335
v 0.046621 0.000742 -0.026766
v 0.041830 0.003848 -0.019464
v 0.041830 0.004488 -0.010215
v 0.046621 0.002417 -0.002554
v 0.054374 -0.001573 0.000594
v 0.062127 -0.005959 -0.001974
v 0.066919 -0.009066 -0.009277
v 0.066919 -0.009706 -0.018526
v 0.062127 -0.007635 -0.026187
v -0.018291 0.091360 0.000864
v -0.027064 0.090570 -0.002023
v -0.032487 0.090237 -0.009535
v -0.032487 0.090489 -0.018802
v -0.027064 0.091230 -0.026285
v -0.018291 0.092176 -0.029125
v -0.009517 0.092966 -0.026237
v -0.004094 0.093299 -0.018725
v -0.004094 0.093047 -0.009458
v -0.009517 0.092306 -0.001976
v -0.008955 -0.002893 -0.001700
v -0.017728 -0.003684 -0.004587
v -0.023151 -0.004016 -0.012099
v -0.023151 -0.003764 -0.021366
v -0.017728 -0.003023 -0.028849
v -0.008955 -0.002077 -0.031689
v -0.000181 -0.001287 -0.028802
v 0.005242 -0.000954 -0.021290
v 0.005242 -0.001206 -0.012023
v -0.000181 -0.001947 -0.004540
v -0.008955 -0.007787 -0.002663
v -0.015145 -0.012647 -0.007561
v -0.018971 -0.013625 -0.015949
v -0.018971 -0.010349 -0.024621
v -0.015145 -0.004068 -0.030265
v -0.008955 0.002817 -0.030726
v -0.002764 0.007677 -0.025827
v 0.001062 0.008655 -0.017440
v 0.001062 0.005379 -0.008768
v -0.002764 -0.000902 -0.003124
v 0.015137 -0.030011 -0.011060
v 0.008946 -0.034871 -0.015958
v 0.005120 -0.035849 -0.024346
v 0.005120 -0.032573 -0.033018
v 0.008946 -0.026292 -0.038662
v 0.015137 -0.019407 -0.039123
v 0.021328 -0.014547 -0.034225
v 0.025154 -0.013569 -0.025837
v 0.025154 -0.016845 -0.017165
v 0.021328 -0.023126 -0.011521
v 0.015137 -0.030493 -0.038932
v 0.010246 -0.022620 -0.039117
v 0.007223 -0.015545 -0.033945
v 0.007223 -0.011970 -0.025391
v 0.010246 -0.013261 -0.016723
v 0.015137 -0.018925 -0.011251
v 0.020028 -0.026798 -0.011066
v 0.023051 -0.033873 -0.016238
v 0.023051 -0.037448 -0.024792
v 0.020028 -0.036157 -0.033460
v 0.038616 -0.016048 -0.044968
v 0.033725 -0.008175 -0.045153
v 0.030702 -0.001100 -0.039981
v 0.030702 0.002474 -0.031428
v 0.033725 0.001183 -0.022759
v 0.038616 -0.004481 -0.017288
v 0.043507 -0.012354 -0.017102
v 0.046530 -0.019429 -0.022274
v 0.046530 -0.023003 -0.030828
v 0.043507 -0.021712 -0.039496
v 0.038616 -0.009361 -0.046101
v 0.030420 -0.006290 -0.043045
v 0.025355 -0.004736 -0.035438
v 0.025355 -0.005295 -0.026184
v 0.030420 -0.007751 -0.018819
v 0.038616 -0.011168 -0.016155
v 0.046812 -0.014239 -0.019210
v 0.051877 -0.015793 -0.026818
v 0.051877 -0.015234 -0.036071
v 0.046812 -0.012778 -0.043437
v 0.046937 0.011586 -0.044837
v 0.038741 0.014657 -0.041782
v 0.033676 0.016211 -0.034174
v 0.033676 0.015652 -0.024921
v 0.038741 0.013196 -0.017555
v 0.046937 0.009779 -0.014891
v 0.055133 0.006708 -0.017947
v 0.060199 0.005154 -0.025554
v 0.060199 0.005713 -0.034808
v 0.055133 0.008169 -0.042173
v -0.018291 0.087503 0.000251
v -0.027101 0.087985 -0.002594
v -0.032545 0.089913 -0.009846
v -0.032545 0.092549 -0.018733
v -0.027101 0.094887 -0.025863
v -0.018291 0.096033 -0.028511
v -0.009481 0.095551 -0.025666
v -0.004036 0.093623 -0.018415
v -0.004036 0.090987 -0.009527
v -0.009481 0.088649 -0.002397
v -0.014871 0.004090 -0.024490
v -0.023681 0.004573 -0.027335
v -0.029126 0.006501 -0.034586
v -0.029126 0.009137 -0.043474
v -0.023681 0.011475 -0.050603
v -0.014871 0.012621 -0.053251
v -0.006061 0.012138 -0.050406
v -0.000617 0.010211 -0.043155
v -0.000617 0.007575 -0.034267
v -0.006061 0.005237 -0.027138
v -0.014871 0.005937 -0.024067
v -0.020013 -0.000670 -0.028049
v -0.023190 -0.003829 -0.036165
v -0.023190 -0.002334 -0.045314
v -0.020013 0.003244 -0.052002
v -0.014871 0.010774 -0.053674
v -0.009730 0.017381 -0.049692
v -0.006553 0.020541 -0.041577
v -0.006553 0.019046 -0.032427
v -0.009730 0.013468 -0.025739
v 0.005796 -0.008703 -0.026459
v 0.000654 -0.015310 -0.030441
v -0.002523 -0.018470 -0.038557
v -0.002523 -0.016975 -0.047706
v 0.000654 -0.011397 -0.054394
v 0.005796 -0.003866 -0.056066
v 0.010937 0.002741 -0.052084
v 0.014114 0.005900 -0.043969
v 0.014114 0.004405 -0.034819
v 0.010937 -0.001173 -0.028131
v 0.007352 -0.006285 -0.026344
v 0.008687 -0.014948 -0.029363
v 0.008918 -0.020301 -0.036928
v 0.007956 -0.020301 -0.046148
v 0.006169 -0.014948 -0.053503
v 0.004240 -0.006285 -0.056182
v 0.002904 0.002378 -0.053162
v 0.002674 0.007732 -0.045597
v 0.003635 0.007732 -0.036377
v 0.005422 0.002378 -0.029023
v 0.030690 -0.001839 -0.028778
v 0.032025 -0.010502 -0.031797
v 0.032256 -0.015856 -0.039362
v 0.031294 -0.015856 -0.048582
v 0.029508 -0.010502 -0.055937
v 0.027578 -0.001839 -0.058616
v 0.026243 0.006823 -0.055596
v 0.026012 0.012177 -0.048031
v 0.026974 0.012177 -0.038811
v 0.028760 0.006823 -0.031457
v 0.029134 -0.001782 -0.058697
v 0.021975 0.003354 -0.055812
v 0.017551 0.006506 -0.048300
v 0.017551 0.006471 -0.039030
v 0.021975 0.003262 -0.031542
v 0.029134 -0.001896 -0.028697
v 0.036293 -0.007032 -0.031581
v 0.040717 -0.010185 -0.039093
v 0.040717 -0.010149 -0.048363
v 0.036293 -0.006940 -0.055851
v 0.038860 0.011744 -0.058645
v 0.031701 0.016880 -0.055761
v 0.027277 0.020033 -0.048249
v 0.027277 0.019998 -0.038979
v 0.031701 0.016788 -0.031491
v 0.038860 0.011631 -0.028646
v 0.046018 0.006495 -0.031530
v 0.050442 0.003342 -0.039042
v 0.050442 0.003377 -0.048312
v 0.046018 0.006587 -0.055800
f 1 2 13
f 2 14 13
f 2 3 14
f 3 15 14
f 3 4 15
f 4 16 15
f 4 5 16
f 5 17 16
f 5 6 17
f 6 18 17
f 6 7 18
f 7 19 18
f 7 8 19
f 8 20 19
f 8 9 20
f 9 21 20
f 9 10 21
f 10 22 21
f 10 11 22
f 11 23 22
f 11 12 23
f 12 24 23
f 13 14 25
f 14 26 25
f 14 15 26
f 15 27 26
f 15 16 27
f 16 28 27
f 16 17 28
f 17 29 28
f 17 18 29
f 18 30 29
f 18 19 30
f 19 31 30
f 19 20 31
f 20 32 31
f 20 21 32
f 21 33 32
f 21 22 33
f 22 34 33
f 22 23 34
f 23 35 34
f 23 24 35
f 24 36 35
f 25 26 37
f 26 38 37
f 26 27 38
f 27 39 38
f 27 28 39
f 28 40 39
f 28 29 40
f 29 41 40
f 29 30 41
f 30 42 41
f 30 31 42
f 31 43 42
f 31 32 43
f 32 44 43
f 32 33 44
f 33 45 44
f 33 34 45
f 34 46 45
f 34 35 46
f 35 47 46
f 35 36 47
f 36 48 47
f 37 38 49
f 38 50 49
f 38 39 50
f 39 51 50
f 39 40 51
f 40 52 51
f 40 41 52
f 41 53 52
f 41 42 53
f 42 54 53
f 42 43 54
f 43 55 54
f 43 44 55
f 44 56 55
f 44 45 56
f 45 57 56
f 45 46 57
f 46 58 57
f 46 47 58
f 47 59 58
f 47 48 59
f 48 60 59
f 49 50 61
f 50 62 61
f 50 51 62
f 51 63 62
f 51 52 63
f 52 64 63
f 52 53 64
f 53 65 64
f 53 54 65
f 54 66 65
f 54 55 66
f 55 67 66
f 55 56 67
f 56 68 67
f 56 57 68
f 57 69 68
f 57 58 69
f 58 70 69
f 58 59 70
f 59 71 70
f 59 60 71
f 60 72 71
f 61 62 73
f 62 74 73
f 62 63 74
f 63 75 74
f 63 64 75
f 64 76 75
f 64 65 76
f 65 77 76
f 65 66 77
f 66 78 77
f 66 67 78
f 67 79 78
f 67 68 79
f 68 80 79
f 68 69 80
f 69 81 80
f 69 70 81
f 70 82 81
f 70 71 82
f 71 83 82
f 71 72 83
f 72 84 83
f 73 74 85
f 74 86 85
f 74 75 86
f 75 87 86
f 75 76 87
f 76 88 87
f 76 77 88
f 77 89 88
f 77 78 89
f 78 90 89
f 78 79 90
f 79 91 90
f 79 80 91
f 80 92 91
f 80 81 92
f 81 93 92
f 81 82 93
f 82 94 93
f 82 83 94
f 83 95 94
f 83 84 95
f 84 96 95
f 85 86 97
f 86 98 97
f 86 87 98
f 87 99 98
f 87 88 99
f 88 100 99
f 88 89 100
f 89 101 100
f 89 90 101
f 90 102 101
f 90 91 102
f 91 103 102
f 91 92 103
f 92 104 103
f 92 93 104
f 93 105 104
f 93 94 105
f 94 106 105
f 94 95 106
f 95 107 106
f 95 96 107
f 96 108 107
f 97 98 109
f 98 110 109
f 98 99 110
f 99 111 110
f 99 100 111
f 100 112 111
f 100 101 112
f 101 113 112
f 101 102 113
f 102 114 113
f 102 103 114
f 103 115 114
f 103 104 115
f 104 116 115
f 104 105 116
f 105 117 116
f 105 106 117
f 106 118 117
f 106 107 118
f 107 119 118
f 107 108 119
f 108 120 119
f 109 110 121
f 110 122 121
f 110 111 122
f 111 123 122
f 111 112 123
f 112 124 123
f 112 113 124
f 113 125 124
f 113 114 125
f 114 126 125
f 114 115 126
f 115 127 126
f 115 116 127
f 116 128 127
f 116 117 128
f 117 129 128
f 117 118 129
f 118 130 129
f 118 119 130
f 119 131 130
f 119 120 131
f 120 132 131
f 121 122 133
f 122 134 133
f 122 123 134
f 123 135 134
f 123 124 135
f 124 136 135
f 124 125 136
f 125 137 136
f 125 126 137
f 126 138 137
f 126 127 138
f 127 139 138
f 127 128 139
f 128 140 139
f 128 129 140
f 129 141 140
f 129 130 141
f 130 142 141
f 130 131 142
f 131 143 142
f 131 132 143
f 132 144 143
f 145 146 155
f 146 156 155
f 146 147 156
f 147 157 156
f 147 148 157
f 148 158 157
f 148 149 158
f 149 159 158
f 149 150 159
f 150 160 159
f 150 151 160
f 151 161 160
f 151 152 161
f 152 162 161
f 152 153 162
f 153 163 162
f 153 154 163
f 154 164 163
f 154 145 164
f 145 155 164
f 165 166 175
f 166 176 175
f 166 167 176
f 167 177 176
f 167 168 177
f 168 178 177
f 168 169 178
f 169 179 178
f 169 170 179
f 170 180 179
f 170 171 180
f 171 181 180
f 171 172 181
f 172 182 181
f 172 173 182
f 173 183 182
f 173 174 183
f 174 184 183
f 174 165 184
f 165 175 184
f 185 186 195
f 186 196 195
f 186 187 196
f 187 197 196
f 187 188 197
f 188 198 197
f 188 189 198
f 189 199 198
f 189 190 199
f 190 200 199
f 190 191 200
f 191 201 200
f 191 192 201
f 192 202 201
f 192 193 202
f 193 203 202
f 193 194 203
f 194 204 203
f 194 185 204
f 185 195 204
f 205 206 215
f 206 216 215
f 206 207 216
f 207 217 216
f 207 208 217
f 208 218 217
f 208 209 218
f 209 219 218
f 209 210 219
f 210 220 219
f 210 211 220
f 211 221 220
f 211 212 221
f 212 222 221
f 212 213 222
f 213 223 222
f 213 214 223
f 214 224 223
f 214 205 224
f 205 215 224
f 225 226 235
f 226 236 235
f 226 227 236
f 227 237 236
f 227 228 237
f 228 238 237
f 228 229 238
f 229 239 238
f 229 230 239
f 230 240 239
f 230 231 240
f 231 241 240
f 231 232 241
f 232 242 241
f 232 233 242
f 233 243 242
f 233 234 243
f 234 244 243
f 234 225 244
f 225 235 244
f 245 246 255
f 246 256 255
f 246 247 256
f 247 257 256
f 247 248 257
f 248 258 257
f 248 249 258
f 249 259 258
f 249 250 259
f 250 260 259
f 250 251 260
f 251 261 260
f 251 252 261
f 252 262 261
f 252 253 262
f 253 263 262
f 253 254 263
f 254 264 263
f 254 245 264
f 245 255 264
f 265 266 275
f 266 276 275
f 266 267 276
f 267 277 276
f 267 268 277
f 268 278 277
f 268 269 278
f 269 279 278
f 269 270 279
f 270 280 279
f 270 271 280
f 271 281 280
f 271 272 281
f 272 282 281
f 272 273 282
f 273 283 282
f 273 274 283
f 274 284 283
f 274 265 284
f 265 275 284
f 285 286 295
f 286 296 295
f 286 287 296
f 287 297 296
f 287 288 297
f 288 298 297
f 288 289 298
f 289 299 298
f 289 290 299
f 290 300 299
f 290 291 300
f 291 301 300
f 291 292 301
f 292 302 301
f 292 293 302
f 293 303 302
f 293 294 303
f 294 304 303
f 294 285 304
f 285 295 304
f 305 306 315
f 306 316 315
f 306 307 316
f 307 317 316
f 307 308 317
f 308 318 317
f 308 309 318
f 309 319 318
f 309 310 319
f 310 320 319
f 310 311 320
f 311 321 320
f 311 312 321
f 312 322 321
f 312 313 322
f 313 323 322
f 313 314 323
f 314 324 323
f 314 305 324
f 305 315 324
f 325 326 335
f 326 336 335
f 326 327 336
f 327 337 336
f 327 328 337
f 328 338 337
f 328 329 338
f 329 339 338
f 329 330 339
f 330 340 339
f 330 331 340
f 331 341 340
f 331 332 341
f 332 342 341
f 332 333 342
f 333 343 342
f 333 334 343
f 334 344 343
f 334 325 344
f 325 335 344
f 345 346 355
f 346 356 355
f 346 347 356
f 347 357 356
f 347 348 357
f 348 358 357
f 348 349 358
f 349 359 358
f 349 350 359
f 350 360 359
f 350 351 360
f 351 361 360
f 351 352 361
f 352 362 361
f 352 353 362
f 353 363 362
f 353 354 363
f 354 364 363
f 354 345 364
f 345 355 364
f 365 366 375
f 366 376 375
f 366 367 376
f 367 377 376
f 367 368 377
f 368 378 377
f 368 369 378
f 369 379 378
f 369 370 379
f 370 380 379
f 370 371 380
f 371 381 380
f 371 372 381
f 372 382 381
f 372 373 382
f 373 383 382
f 373 374 383
f 374 384 383
f 374 365 384
f 365 375 384
f 385 386 395
f 386 396 395
f 386 387 396
f 387 397 396
f 387 388 397
f 388 398 397
f 388 389 398
f 389 399 398
f 389 390 399
f 390 400 399
f 390 391 400
f 391 401 400
f 391 392 401
f 392 402 401
f 392 393 402
f 393 403 402
f 393 394 403
f 394 404 403
f 394 385 404
f 385 395 404
f 405 406 415
f 406 416 415
f 406 407 416
f 407 417 416
f 407 408 417
f 408 418 417
f 408 409 418
f 409 419 418
f 409 410 419
f 410 420 419
f 410 411 420
f 411 421 420
f 411 412 421
f 412 422 421
f 412 413 422
f 413 423 422
f 413 414 423
f 414 424 423
f 414 405 424
f 405 415 424
f 425 426 435
f 426 436 435
f 426 427 436
f 427 437 436
f 427 428 437
f 428 438 437
f 428 429 438
f 429 439 438
f 429 430 439
f 430 440 439
f 430 431 440
f 431 441 440
f 431 432 441
f 432 442 441
f 432 433 442
f 433 443 442
f 433 434 443
f 434 444 443
f 434 425 444
f 425 435 444
f 445 446 455
f 446 456 455
f 446 447 456
f 447 457 456
f 447 448 457
f 448 458 457
f 448 449 458
f 449 459 458
f 449 450 459
f 450 460 459
f 450 451 460
f 451 461 460
f 451 452 461
f 452 462 461
f 452 453 462
f 453 463 462
f 453 454 463
f 454 464 463
f 454 445 464
f 445 455 464
f 465 466 475
f 466 476 475
f 466 467 476
f 467 477 476
f 467 468 477
f 468 478 477
f 468 469 478
f 469 479 478
f 469 470 479
f 470 480 479
f 470 471 480
f 471 481 480
f 471 472 481
f 472 482 481
f 472 473 482
f 473 483 482
f 473 474 483
f 474 484 483
f 474 465 484
f 465 475 484
f 485 486 495
f 486 496 495
f 486 487 496
f 487 497 496
f 487 488 497
f 488 498 497
f 488 489 498
f 489 499 498
f 489 490 499
f 490 500 499
f 490 491 500
f 491 501 500
f 491 492 501
f 492 502 501
f 492 493 502
f 493 503 502
f 493 494 503
f 494 504 503
f 494 485 504
f 485 495 504
f 505 506 515
f 506 516 515
f 506 507 516
f 507 517 516
f 507 508 517
f 508 518 517
f 508 509 518
f 509 519 518
f 509 510 519
f 510 520 519
f 510 511 520
f 511 521 520
f 511 512 521
f 512 522 521
f 512 513 522
f 513 523 522
f 513 514 523
f 514 524 523
f 514 505 524
f 505 515 524
f 525 526 535
f 526 536 535
f 526 527 536
f 527 537 536
f 527 528 537
f 528 538 537
f 528 529 538
f 529 539 538
f 529 530 539
f 530 540 539
f 530 531 540
f 531 541 540
f 531 532 541
f 532 542 541
f 532 533 542
f 533 543 542
f 533 534 543
f 534 544 543
f 534 525 544
f 525 535 544
f 545 546 555
f 546 556 555
f 546 547 556
f 547 557 556
f 547 548 557
f 548 558 557
f 548 549 558
f 549 559 558
f 549 550 559
f 550 560 559
f 550 551 560
f 551 561 560
f 551 552 561
f 552 562 561
f 552 553 562
f 553 563 562
f 553 554 563
f 554 564 563
f 554 545 564
f 545 555 564
f 565 566 575
f 566 576 575
f 566 567 576
f 567 577 576
f 567 568 577
f 568 578 577
f 568 569 578
f 569 579 578
f 569 570 579
f 570 580 579
f 570 571 580
f 571 581 580
f 571 572 581
f 572 582 581
f 572 573 582
f 573 583 582
f 573 574 583
f 574 584 583
f 574 565 584
f 565 575 584
f 585 586 595
f 586 596 595
f 586 587 596
f 587 597 596
f 587 588 597
f 588 598 597
f 588 589 598
f 589 599 598
f 589 590 599
f 590 600 599
f 590 591 600
f 591 601 600
f 591 592 601
f 592 602 601
f 592 593 602
f 593 603 602
f 593 594 603
f 594 604 603
f 594 585 604
f 585 595 604
f 605 606 615
f 606 616 615
f 606 607 616
f 607 617 616
f 607 608 617
f 608 618 617
f 608 609 618
f 609 619 618
f 609 610 619
f 610 620 619
f 610 611 620
f 611 621 620
f 611 612 621
f 612 622 621
f 612 613 622
f 613 623 622
f 613 614 623
f 614 624 623
f 614 605 624
f 605 615 624
f 625 626 635
f 626 636 635
f 626 627 636
f 627 637 636
f 627 628 637
f 628 638 637
f 628 629 638
f 629 639 638
f 629 630 639
f 630 640 639
f 630 631 640
f 631 641 640
f 631 632 641
f 632 642 641
f 632 633 642
f 633 643 642
f 633 634 643
f 634 644 643
f 634 625 644
f 625 635 644
f 645 646 655
f 646 656 655
f 646 647 656
f 647 657 656
f 647 648 657
f 648 658 657
f 648 649 658
f 649 659 658
f 649 650 659
f 650 660 659
f 650 651 660
f 651 661 660
f 651 652 661
f 652 662 661
f 652 653 662
f 653 663 662
f 653 654 663
f 654 664 663
f 654 645 664
f 645 655 664
f 665 666 675
f 666 676 675
f 666 667 676
f 667 677 676
f 667 668 677
f 668 678 677
f 668 669 678
f 669 679 678
f 669 670 679
f 670 680 679
f 670 671 680
f 671 681 680
f 671 672 681
f 672 682 681
f 672 673 682
f 673 683 682
f 673 674 683
f 674 684 683
f 674 665 684
f 665 675 684
f 685 686 695
f 686 696 695
f 686 687 696
f 687 697 696
f 687 688 697
f 688 698 697
f 688 689 698
f 689 699 698
f 689 690 699
f 690 700 699
f 690 691 700
f 691 701 700
f 691 692 701
f 692 702 701
f 692 693 702
f 693 703 702
f 693 694 703
f 694 704 703
f 694 685 704
f 685 695 704
f 705 706 715
f 706 716 715
f 706 707 716
f 707 717 716
f 707 708 717
f 708 718 717
f 708 709 718
f 709 719 718
f 709 710 719
f 710 720 719
f 710 711 720
f 711 721 720
f 711 712 721
f 712 722 721
f 712 713 722
f 713 723 722
f 713 714 723
f 714 724 723
f 714 705 724
f 705 715 724
f 725 726 735
f 726 736 735
f 726 727 736
f 727 737 736
f 727 728 737
f 728 738 737
f 728 729 738
f 729 739 738
f 729 730 739
f 730 740 739
f 730 731 740
f 731 741 740
f 731 732 741
f 732 742 741
f 732 733 742
f 733 743 742
f 733 734 743
f 734 744 743
f 734 725 744
f 725 735 744
f 745 746 755
f 746 756 755
f 746 747 756
f 747 757 756
f 747 748 757
f 748 758 757
f 748 749 758
f 749 759 758
f 749 750 759
f 750 760 759
f 750 751 760
f 751 761 760
f 751 752 761
f 752 762 761
f 752 753 762
f 753 763 762
f 753 754 763
f 754 764 763
f 754 745 764
f 745 755 764
f 765 766 775
f 766 776 775
f 766 767 776
f 767 777 776
f 767 768 777
f 768 778 777
f 768 769 778
f 769 779 778
f 769 770 779
f 770 780 779
f 770 771 780
f 771 781 780
f 771 772 781
f 772 782 781
f 772 773 782
f 773 783 782
f 773 774 783
f 774 784 783
f 774 765 784
f 765 775 784
