# Full-Body 3D Mesh - Frame 188
v 0.019337 -0.608447 -0.108207
v 0.053145 -0.608447 -0.113068
v 0.084214 -0.608447 -0.127257
v 0.110027 -0.608447 -0.149624
v 0.128493 -0.608447 -0.178358
v 0.138115 -0.608447 -0.211130
v 0.138115 -0.608447 -0.245285
v 0.128493 -0.608447 -0.278057
v 0.110027 -0.608447 -0.306791
v 0.084214 -0.608447 -0.329158
v 0.053145 -0.608447 -0.343347
v 0.019337 -0.608447 -0.348207
v 0.019337 -0.608447 -0.108207
v 0.047778 -0.590169 -0.113068
v 0.073915 -0.573372 -0.127257
v 0.095630 -0.559417 -0.149624
v 0.111165 -0.549433 -0.178358
v 0.119260 -0.544231 -0.211130
v 0.119260 -0.544231 -0.245285
v 0.111165 -0.549433 -0.278057
v 0.095630 -0.559417 -0.306791
v 0.073915 -0.573372 -0.329158
v 0.047778 -0.590169 -0.343347
v 0.019337 -0.608447 -0.348207
v 0.019337 -0.608447 -0.108207
v 0.033381 -0.577694 -0.113068
v 0.046288 -0.549433 -0.127257
v 0.057011 -0.525953 -0.149624
v 0.064682 -0.509156 -0.178358
v 0.068679 -0.500402 -0.211130
v 0.068679 -0.500402 -0.245285
v 0.064682 -0.509156 -0.278057
v 0.057011 -0.525953 -0.306791
v 0.046288 -0.549433 -0.329158
v 0.033381 -0.577694 -0.343347
v 0.019337 -0.608447 -0.348207
v 0.019337 -0.608447 -0.108207
v 0.014526 -0.574983 -0.113068
v 0.010104 -0.544231 -0.127257
v 0.006430 -0.518680 -0.149624
v 0.003802 -0.500402 -0.178358
v 0.002433 -0.490878 -0.211130
v 0.002433 -0.490878 -0.245285
v 0.003802 -0.500402 -0.278057
v 0.006430 -0.518680 -0.306791
v 0.010104 -0.544231 -0.329158
v 0.014526 -0.574983 -0.343347
v 0.019337 -0.608447 -0.348207
v 0.019337 -0.608447 -0.108207
v -0.002803 -0.582897 -0.113068
v -0.023148 -0.559417 -0.127257
v -0.040052 -0.539908 -0.149624
v -0.052145 -0.525953 -0.178358
v -0.058447 -0.518680 -0.211130
v -0.058447 -0.518680 -0.245285
v -0.052145 -0.525953 -0.278057
v -0.040052 -0.539908 -0.306791
v -0.023148 -0.559417 -0.329158
v -0.002803 -0.582897 -0.343347
v 0.019337 -0.608447 -0.348207
v 0.019337 -0.608447 -0.108207
v -0.013102 -0.598922 -0.113068
v -0.042912 -0.590169 -0.127257
v -0.067679 -0.582897 -0.149624
v -0.085397 -0.577694 -0.178358
v -0.094630 -0.574983 -0.211130
v -0.094630 -0.574983 -0.245285
v -0.085397 -0.577694 -0.278057
v -0.067679 -0.582897 -0.306791
v -0.042912 -0.590169 -0.329158
v -0.013102 -0.598922 -0.343347
v 0.019337 -0.608447 -0.348207
v 0.019337 -0.608447 -0.108207
v -0.013102 -0.617972 -0.113068
v -0.042912 -0.626725 -0.127257
v -0.067679 -0.633998 -0.149624
v -0.085397 -0.639200 -0.178358
v -0.094630 -0.641911 -0.211130
v -0.094630 -0.641911 -0.245285
v -0.085397 -0.639200 -0.278057
v -0.067679 -0.633998 -0.306791
v -0.042912 -0.626725 -0.329158
v -0.013102 -0.617972 -0.343347
v 0.019337 -0.608447 -0.348207
v 0.019337 -0.608447 -0.108207
v -0.002803 -0.633998 -0.113068
v -0.023148 -0.657478 -0.127257
v -0.040052 -0.676986 -0.149624
v -0.052145 -0.690942 -0.178358
v -0.058447 -0.698214 -0.211130
v -0.058447 -0.698214 -0.245285
v -0.052145 -0.690942 -0.278057
v -0.040052 -0.676986 -0.306791
v -0.023148 -0.657478 -0.329158
v -0.002803 -0.633998 -0.343347
v 0.019337 -0.608447 -0.348207
v 0.019337 -0.608447 -0.108207
v 0.014526 -0.641911 -0.113068
v 0.010104 -0.672664 -0.127257
v 0.006430 -0.698214 -0.149624
v 0.003802 -0.716492 -0.178358
v 0.002433 -0.726017 -0.211130
v 0.002433 -0.726017 -0.245285
v 0.003802 -0.716492 -0.278057
v 0.006430 -0.698214 -0.306791
v 0.010104 -0.672664 -0.329158
v 0.014526 -0.641911 -0.343347
v 0.019337 -0.608447 -0.348207
v 0.019337 -0.608447 -0.108207
v 0.033381 -0.639200 -0.113068
v 0.046288 -0.667461 -0.127257
v 0.057011 -0.690942 -0.149624
v 0.064682 -0.707739 -0.178358
v 0.068679 -0.716492 -0.211130
v 0.068679 -0.716492 -0.245285
v 0.064682 -0.707739 -0.278057
v 0.057011 -0.690942 -0.306791
v 0.046288 -0.667461 -0.329158
v 0.033381 -0.639200 -0.343347
v 0.019337 -0.608447 -0.348207
v 0.019337 -0.608447 -0.108207
v 0.047778 -0.626725 -0.113068
v 0.073915 -0.643522 -0.127257
v 0.095630 -0.657478 -0.149624
v 0.111165 -0.667461 -0.178358
v 0.119260 -0.672664 -0.211130
v 0.119260 -0.672664 -0.245285
v 0.111165 -0.667461 -0.278057
v 0.095630 -0.657478 -0.306791
v 0.073915 -0.643522 -0.329158
v 0.047778 -0.626725 -0.343347
v 0.019337 -0.608447 -0.348207
v 0.019337 -0.608447 -0.108207
v 0.053145 -0.608447 -0.113068
v 0.084214 -0.608447 -0.127257
v 0.110027 -0.608447 -0.149624
v 0.128493 -0.608447 -0.178358
v 0.138115 -0.608447 -0.211130
v 0.138115 -0.608447 -0.245285
v 0.128493 -0.608447 -0.278057
v 0.110027 -0.608447 -0.306791
v 0.084214 -0.608447 -0.329158
v 0.053145 -0.608447 -0.343347
v 0.019337 -0.608447 -0.348207
v 0.167755 -0.428762 -0.098197
v 0.168645 -0.452256 -0.090557
v 0.169189 -0.466776 -0.070557
v 0.169181 -0.466776 -0.045836
v 0.168623 -0.452256 -0.025836
v 0.167728 -0.428762 -0.018197
v 0.166838 -0.405267 -0.025837
v 0.166293 -0.390747 -0.045837
v 0.166302 -0.390747 -0.070558
v 0.166860 -0.405267 -0.090558
v -0.160893 -0.441244 -0.098309
v -0.160003 -0.464739 -0.090669
v -0.159459 -0.479259 -0.070669
v -0.159467 -0.479259 -0.045947
v -0.160025 -0.464739 -0.025948
v -0.160920 -0.441244 -0.018309
v -0.161810 -0.417750 -0.025948
v -0.162355 -0.403229 -0.045948
v -0.162346 -0.403229 -0.070670
v -0.161788 -0.417750 -0.090670
v 0.167741 -0.432037 -0.098063
v 0.145363 -0.424224 -0.091039
v 0.131532 -0.418145 -0.071471
v 0.131532 -0.416121 -0.046833
v 0.145363 -0.418925 -0.026535
v 0.167741 -0.425487 -0.018331
v 0.190120 -0.433299 -0.025354
v 0.203950 -0.439378 -0.044922
v 0.203950 -0.441402 -0.069561
v 0.190120 -0.438598 -0.089859
v 0.242904 -0.199563 -0.117161
v 0.220525 -0.191751 -0.110137
v 0.206695 -0.185672 -0.090570
v 0.206695 -0.183648 -0.065931
v 0.220525 -0.186452 -0.045633
v 0.242904 -0.193013 -0.037429
v 0.265282 -0.200826 -0.044453
v 0.279112 -0.206905 -0.064021
v 0.279112 -0.208929 -0.088659
v 0.265282 -0.206125 -0.108957
v 0.242904 -0.208755 -0.115303
v 0.219895 -0.201778 -0.109551
v 0.205675 -0.192705 -0.091479
v 0.205675 -0.185000 -0.067989
v 0.219895 -0.181607 -0.048054
v 0.242904 -0.183822 -0.039287
v 0.265912 -0.190798 -0.045039
v 0.280132 -0.199872 -0.063111
v 0.280132 -0.207577 -0.086601
v 0.265912 -0.210970 -0.106536
v 0.277968 -0.050261 -0.167290
v 0.254960 -0.043284 -0.161539
v 0.240740 -0.034210 -0.143467
v 0.240740 -0.026505 -0.119977
v 0.254960 -0.023112 -0.100041
v 0.277968 -0.025327 -0.091275
v 0.300977 -0.032304 -0.097026
v 0.315197 -0.041378 -0.115098
v 0.315197 -0.049083 -0.138588
v 0.300977 -0.052476 -0.158524
v -0.160907 -0.465312 -0.090258
v -0.179060 -0.472650 -0.075166
v -0.190279 -0.467992 -0.053635
v -0.190279 -0.453118 -0.033889
v -0.179060 -0.433708 -0.023471
v -0.160907 -0.417177 -0.026359
v -0.142754 -0.409839 -0.041451
v -0.131535 -0.414496 -0.062982
v -0.131535 -0.429371 -0.082728
v -0.142754 -0.448781 -0.093147
v -0.354175 -0.277770 -0.231532
v -0.372328 -0.285109 -0.216440
v -0.383547 -0.280451 -0.194909
v -0.383547 -0.265577 -0.175163
v -0.372328 -0.246167 -0.164745
v -0.354175 -0.229636 -0.167634
v -0.336023 -0.222297 -0.182726
v -0.324804 -0.226955 -0.204257
v -0.324804 -0.241829 -0.224003
v -0.336023 -0.261239 -0.234421
v -0.354175 -0.291748 -0.187231
v -0.374608 -0.288074 -0.200652
v -0.387236 -0.271271 -0.213666
v -0.387236 -0.247758 -0.221300
v -0.374608 -0.226516 -0.220639
v -0.354175 -0.215658 -0.211935
v -0.333742 -0.219332 -0.198514
v -0.321114 -0.236135 -0.185501
v -0.321114 -0.259648 -0.177866
v -0.333742 -0.280890 -0.178527
v -0.221581 -0.363681 -0.408782
v -0.242014 -0.360007 -0.422203
v -0.254642 -0.343204 -0.435217
v -0.254642 -0.319691 -0.442851
v -0.242014 -0.298449 -0.442190
v -0.221581 -0.287591 -0.433486
v -0.201148 -0.291265 -0.420065
v -0.188520 -0.308068 -0.407052
v -0.188520 -0.331581 -0.399417
v -0.201148 -0.352823 -0.400078
v 0.167741 -0.423651 -0.097869
v 0.144324 -0.426709 -0.090561
v 0.129851 -0.430551 -0.070890
v 0.129851 -0.433709 -0.046371
v 0.144324 -0.434978 -0.026370
v 0.167741 -0.433872 -0.018525
v 0.191159 -0.430814 -0.025833
v 0.205632 -0.426972 -0.045504
v 0.205632 -0.423814 -0.070022
v 0.191159 -0.422545 -0.090024
v 0.127878 0.017445 -0.041050
v 0.104461 0.014387 -0.033742
v 0.089988 0.010545 -0.014071
v 0.089988 0.007387 0.010447
v 0.104461 0.006119 0.030449
v 0.127878 0.007224 0.038294
v 0.151296 0.010282 0.030985
v 0.165768 0.014124 0.011315
v 0.165768 0.017282 -0.013204
v 0.151296 0.018551 -0.033206
v -0.160907 -0.435318 -0.097867
v -0.184338 -0.434529 -0.090024
v -0.198819 -0.436305 -0.070067
v -0.198819 -0.439967 -0.045619
v -0.184338 -0.444117 -0.026017
v -0.160907 -0.447170 -0.018750
v -0.137476 -0.447960 -0.026593
v -0.122995 -0.446184 -0.046550
v -0.122995 -0.442521 -0.070999
v -0.137476 -0.438371 -0.090600
v -0.126327 -0.022799 -0.036071
v -0.149758 -0.022010 -0.028228
v -0.164239 -0.023785 -0.008271
v -0.164239 -0.027448 0.016178
v -0.149758 -0.031598 0.035779
v -0.126327 -0.034651 0.043047
v -0.102896 -0.035440 0.035204
v -0.088415 -0.033664 0.015247
v -0.088415 -0.030002 -0.009202
v -0.102896 -0.025852 -0.028803
v 0.127113 0.012335 -0.041371
v 0.131006 -0.010876 -0.033805
v 0.133705 -0.025221 -0.013853
v 0.134179 -0.025221 0.010864
v 0.132245 -0.010876 0.030905
v 0.128644 0.012335 0.038614
v 0.124750 0.035545 0.031048
v 0.122051 0.049890 0.011096
v 0.121578 0.049890 -0.013621
v 0.123511 0.035545 -0.033661
v -0.127092 -0.028725 -0.036505
v -0.123198 -0.051936 -0.028939
v -0.120500 -0.066281 -0.008987
v -0.120026 -0.066281 0.015730
v -0.121960 -0.051936 0.035771
v -0.125561 -0.028725 0.043481
v -0.129455 -0.005514 0.035914
v -0.132154 0.008831 0.015962
v -0.132627 0.008831 -0.008754
v -0.130694 -0.005514 -0.028795
v 0.127878 -0.013902 -0.031571
v 0.105132 -0.004399 -0.029709
v 0.091075 0.011496 -0.017025
v 0.091075 0.027711 0.001636
v 0.105132 0.038053 0.019145
v 0.127878 0.038571 0.028815
v 0.150624 0.029068 0.026952
v 0.164681 0.013173 0.014268
v 0.164681 -0.003042 -0.004392
v 0.150624 -0.013384 -0.021901
v 0.149986 0.049875 -0.086991
v 0.127240 0.059378 -0.085128
v 0.113183 0.075273 -0.072444
v 0.113183 0.091488 -0.053784
v 0.127240 0.101830 -0.036275
v 0.149986 0.102348 -0.026604
v 0.172732 0.092845 -0.028467
v 0.186789 0.076950 -0.041151
v 0.186789 0.060735 -0.059811
v 0.172732 0.050393 -0.077321
v 0.149986 0.097669 -0.090491
v 0.126695 0.096256 -0.082326
v 0.112300 0.087149 -0.064410
v 0.112300 0.073825 -0.043586
v 0.126695 0.061375 -0.027809
v 0.149986 0.054554 -0.023104
v 0.173277 0.055967 -0.031269
v 0.187672 0.065074 -0.049185
v 0.187672 0.078398 -0.070009
v 0.173277 0.090848 -0.085786
v 0.202648 0.419514 0.115432
v 0.179357 0.418101 0.123597
v 0.164962 0.408993 0.141513
v 0.164962 0.395670 0.162337
v 0.179357 0.383220 0.178115
v 0.202648 0.376398 0.182819
v 0.225939 0.377812 0.174654
v 0.240334 0.386919 0.156738
v 0.240334 0.400243 0.135915
v 0.225939 0.412693 0.120137
v -0.126327 -0.063406 0.023418
v -0.149666 -0.058199 0.017147
v -0.164090 -0.041733 0.005660
v -0.164090 -0.020299 -0.006658
v -0.149666 -0.002083 -0.015100
v -0.126327 0.005957 -0.016442
v -0.102988 0.000749 -0.010172
v -0.088563 -0.015717 0.001316
v -0.088563 -0.037151 0.013633
v -0.102988 -0.055367 0.022075
v -0.093975 -0.195785 -0.206947
v -0.117314 -0.190577 -0.213217
v -0.131738 -0.174112 -0.224704
v -0.131738 -0.152677 -0.237022
v -0.117314 -0.134461 -0.245464
v -0.093975 -0.126422 -0.246806
v -0.070636 -0.131630 -0.240536
v -0.056211 -0.148095 -0.229048
v -0.056211 -0.169530 -0.216731
v -0.070636 -0.187745 -0.208289
v -0.093975 -0.167309 -0.266392
v -0.117118 -0.162033 -0.259488
v -0.131422 -0.156402 -0.240127
v -0.131422 -0.152567 -0.215705
v -0.117118 -0.151992 -0.195550
v -0.093975 -0.154898 -0.187360
v -0.070831 -0.160174 -0.194265
v -0.056527 -0.165805 -0.213626
v -0.056527 -0.169640 -0.238048
v -0.070831 -0.170215 -0.258203
v -0.039989 0.130761 -0.313201
v -0.063133 0.136037 -0.306296
v -0.077437 0.141668 -0.286935
v -0.077437 0.145503 -0.262513
v -0.063133 0.146077 -0.242358
v -0.039989 0.143172 -0.234169
v -0.016845 0.137896 -0.241074
v -0.002542 0.132265 -0.260434
v -0.002542 0.128429 -0.284856
v -0.016845 0.127855 -0.305011
v -0.022033 0.019996 -0.015444
v -0.030647 0.019384 -0.018816
v -0.035971 0.015055 -0.025051
v -0.035971 0.008664 -0.031766
v -0.030647 0.002651 -0.036397
v -0.022033 -0.000686 -0.037175
v -0.013419 -0.000074 -0.033803
v -0.008096 0.004255 -0.027569
v -0.008096 0.010646 -0.020854
v -0.013419 0.016659 -0.016223
v -0.027413 0.002152 0.001539
v -0.036027 0.001540 -0.001833
v -0.041350 -0.002789 -0.008067
v -0.041350 -0.009180 -0.014782
v -0.036027 -0.015193 -0.019414
v -0.027413 -0.018531 -0.020192
v -0.018799 -0.017918 -0.016820
v -0.013476 -0.013590 -0.010586
v -0.013476 -0.007198 -0.003870
v -0.018799 -0.001186 0.000761
v -0.027413 0.006249 -0.005259
v -0.036202 0.003300 -0.005357
v -0.041633 -0.004037 -0.006971
v -0.041633 -0.012960 -0.009485
v -0.036202 -0.020061 -0.011938
v -0.027413 -0.022627 -0.013393
v -0.018625 -0.019679 -0.013295
v -0.013193 -0.012342 -0.011681
v -0.013193 -0.003418 -0.009168
v -0.018625 0.003683 -0.006715
v -0.025538 -0.000087 0.017236
v -0.034327 -0.003036 0.017138
v -0.039758 -0.010373 0.015524
v -0.039758 -0.019297 0.013011
v -0.034327 -0.026398 0.010558
v -0.025538 -0.028964 0.009102
v -0.016749 -0.026015 0.009200
v -0.011318 -0.018678 0.010814
v -0.011318 -0.009755 0.013328
v -0.016749 -0.002654 0.015781
v -0.025538 -0.000694 0.018972
v -0.034110 -0.002537 0.015961
v -0.039407 -0.008959 0.011883
v -0.039407 -0.017508 0.008296
v -0.034110 -0.024918 0.006571
v -0.025538 -0.028358 0.007366
v -0.016966 -0.026515 0.010378
v -0.011669 -0.020092 0.014456
v -0.011669 -0.011543 0.018042
v -0.016966 -0.004134 0.019767
v -0.032395 -0.011711 0.045233
v -0.040967 -0.013554 0.042221
v -0.046265 -0.019977 0.038144
v -0.046265 -0.028525 0.034557
v -0.040967 -0.035935 0.032832
v -0.032395 -0.039375 0.033627
v -0.023824 -0.037532 0.036639
v -0.018526 -0.031109 0.040716
v -0.018526 -0.022561 0.044303
v -0.023824 -0.015151 0.046028
v -0.032395 -0.012104 0.046093
v -0.040661 -0.013308 0.042071
v -0.045770 -0.019185 0.037041
v -0.045770 -0.027491 0.032923
v -0.040661 -0.035053 0.031291
v -0.032395 -0.038982 0.032767
v -0.024130 -0.037778 0.036789
v -0.019021 -0.031901 0.041819
v -0.019021 -0.023595 0.045937
v -0.024130 -0.016033 0.047569
v -0.043293 -0.025144 0.072396
v -0.051559 -0.026348 0.068375
v -0.056667 -0.032225 0.063344
v -0.056667 -0.040531 0.059227
v -0.051559 -0.048093 0.057594
v -0.043293 -0.052022 0.059071
v -0.035028 -0.050819 0.063092
v -0.029919 -0.044941 0.068122
v -0.029919 -0.036636 0.072240
v -0.035028 -0.029074 0.073873
v -0.022033 0.023227 -0.019921
v -0.030495 0.019580 -0.018902
v -0.035725 0.012143 -0.020712
v -0.035725 0.003755 -0.024660
v -0.030495 -0.002379 -0.029239
v -0.022033 -0.003916 -0.032699
v -0.013571 -0.000270 -0.033718
v -0.008341 0.007167 -0.031908
v -0.008341 0.015555 -0.027960
v -0.013571 0.021689 -0.023381
v -0.010246 0.006064 0.016536
v -0.018708 0.002418 0.017556
v -0.023938 -0.005019 0.015746
v -0.023938 -0.013407 0.011797
v -0.018708 -0.019541 0.007219
v -0.010246 -0.021079 0.003759
v -0.001784 -0.017432 0.002739
v 0.003446 -0.009995 0.004550
v 0.003446 -0.001608 0.008498
v -0.001784 0.004527 0.013077
v -0.010246 0.003407 0.020438
v -0.018510 -0.000786 0.020708
v -0.023617 -0.007546 0.016945
v -0.023617 -0.014291 0.010585
v -0.018510 -0.018445 0.004059
v -0.010246 -0.018421 -0.000142
v -0.001982 -0.014229 -0.000413
v 0.003126 -0.007469 0.003350
v 0.003126 -0.000724 0.009710
v -0.001982 0.003430 0.016237
v -0.004409 -0.007361 0.031858
v -0.012673 -0.011554 0.032129
v -0.017780 -0.018313 0.028366
v -0.017780 -0.025059 0.022006
v -0.012673 -0.029213 0.015479
v -0.004409 -0.029189 0.011278
v 0.003855 -0.024997 0.011008
v 0.008962 -0.018237 0.014771
v 0.008962 -0.011492 0.021130
v 0.003855 -0.007338 0.027657
v -0.004409 -0.014032 0.035956
v -0.012739 -0.017612 0.034025
v -0.017888 -0.021446 0.027336
v -0.017888 -0.024069 0.018444
v -0.012739 -0.024478 0.010746
v -0.004409 -0.022519 0.007181
v 0.003921 -0.018938 0.009112
v 0.009070 -0.015104 0.015800
v 0.009070 -0.012481 0.024692
v 0.003921 -0.012072 0.032391
v 0.000888 -0.028684 0.040277
v -0.007443 -0.032265 0.038347
v -0.012591 -0.036099 0.031658
v -0.012591 -0.038721 0.022766
v -0.007443 -0.039131 0.015067
v 0.000888 -0.037171 0.011503
v 0.009218 -0.033590 0.013433
v 0.014366 -0.029757 0.020122
v 0.014366 -0.027134 0.029014
v 0.009218 -0.026724 0.036712
v 0.000888 -0.034909 0.040758
v -0.007755 -0.036257 0.037689
v -0.013097 -0.036333 0.030112
v -0.013097 -0.035108 0.020923
v -0.007755 -0.033051 0.013631
v 0.000888 -0.030946 0.011021
v 0.009531 -0.029598 0.014091
v 0.014873 -0.029522 0.021668
v 0.014873 -0.030747 0.030857
v 0.009531 -0.032805 0.038149
v 0.003001 -0.045306 0.039373
v -0.005642 -0.046654 0.036303
v -0.010984 -0.046730 0.028727
v -0.010984 -0.045505 0.019537
v -0.005642 -0.043448 0.012245
v 0.003001 -0.041343 0.009636
v 0.011644 -0.039995 0.012705
v 0.016986 -0.039919 0.020282
v 0.016986 -0.041144 0.029471
v 0.011644 -0.043202 0.036763
v -0.022033 0.023918 -0.021667
v -0.029532 0.019759 -0.018144
v -0.034166 0.011740 -0.017740
v -0.034166 0.002925 -0.020609
v -0.029532 -0.003320 -0.025656
v -0.022033 -0.004608 -0.030953
v -0.014535 -0.000449 -0.034476
v -0.009901 0.007570 -0.034880
v -0.009901 0.016385 -0.032011
v -0.014535 0.022630 -0.026964
v -0.001195 0.013490 0.010370
v -0.008693 0.009330 0.013893
v -0.013328 0.001311 0.014297
v -0.013328 -0.007504 0.011427
v -0.008693 -0.013748 0.006380
v -0.001195 -0.015037 0.001084
v 0.006303 -0.010877 -0.002440
v 0.010938 -0.002858 -0.002844
v 0.010938 0.005957 0.000026
v 0.006303 0.012201 0.005073
v -0.001195 -0.008961 0.018295
v -0.005791 -0.013701 0.011788
v -0.008632 -0.013504 0.002966
v -0.008632 -0.008444 -0.004802
v -0.005791 -0.000454 -0.008548
v -0.001195 0.007414 -0.006842
v 0.003401 0.012155 -0.000335
v 0.006242 0.011957 0.008487
v 0.006242 0.006897 0.016255
v 0.003401 -0.001093 0.020001
v 0.012672 -0.016059 0.013671
v 0.008076 -0.020799 0.007164
v 0.005235 -0.020602 -0.001658
v 0.005235 -0.015542 -0.009426
v 0.008076 -0.007552 -0.013172
v 0.012672 0.000316 -0.011466
v 0.017268 0.005056 -0.004959
v 0.020109 0.004859 0.003864
v 0.020109 -0.000201 0.011631
v 0.017268 -0.008191 0.015378
v 0.012672 -0.015642 0.013933
v 0.004849 -0.017637 0.009376
v 0.000014 -0.015901 0.001659
v 0.000014 -0.011099 -0.006271
v 0.004849 -0.005064 -0.011384
v 0.012672 -0.000101 -0.011728
v 0.020495 0.001894 -0.007170
v 0.025329 0.000158 0.000547
v 0.025329 -0.004644 0.008477
v 0.020495 -0.010679 0.013590
v 0.019399 -0.026710 0.007230
v 0.011576 -0.028704 0.002673
v 0.006741 -0.026969 -0.005044
v 0.006741 -0.022167 -0.012974
v 0.011576 -0.016132 -0.018087
v 0.019399 -0.011169 -0.018430
v 0.027222 -0.009174 -0.013873
v 0.032056 -0.010909 -0.006156
v 0.032056 -0.015712 0.001774
v 0.027222 -0.021747 0.006887
v 0.019399 -0.009341 0.005927
v 0.013513 -0.016219 0.007926
v 0.009876 -0.024136 0.004759
v 0.009876 -0.030068 -0.002365
v 0.013513 -0.031749 -0.010725
v 0.019399 -0.028538 -0.017127
v 0.025284 -0.021660 -0.019126
v 0.028922 -0.013743 -0.015959
v 0.028922 -0.007811 -0.008835
v 0.025284 -0.006129 -0.000475
v 0.032412 -0.018306 0.013392
v 0.026526 -0.025184 0.015392
v 0.022889 -0.033101 0.012224
v 0.022889 -0.039033 0.005100
v 0.026526 -0.040715 -0.003260
v 0.032412 -0.037503 -0.009662
v 0.038297 -0.030625 -0.011661
v 0.041935 -0.022708 -0.008494
v 0.041935 -0.016776 -0.001370
v 0.038297 -0.015095 0.006990
v -0.022033 0.024500 -0.024161
v -0.027286 0.020651 -0.017563
v -0.030532 0.012601 -0.014306
v -0.030532 0.003426 -0.015634
v -0.027286 -0.003369 -0.021040
v -0.022033 -0.005190 -0.028459
v -0.016781 -0.001341 -0.035057
v -0.013534 0.006709 -0.038314
v -0.013534 0.015884 -0.036986
v -0.016781 0.022680 -0.031580
v 0.007024 0.021413 -0.002830
v 0.001771 0.017563 0.003768
v -0.001475 0.009513 0.007025
v -0.001475 0.000338 0.005697
v 0.001771 -0.006457 0.000291
v 0.007024 -0.008278 -0.007128
v 0.012276 -0.004428 -0.013726
v 0.015523 0.003621 -0.016983
v 0.015523 0.012796 -0.015655
v 0.012276 0.019592 -0.010249
v 0.004405 0.006567 0.009791
v 0.003973 -0.002198 0.006805
v 0.004706 -0.007616 -0.000682
v 0.006325 -0.007616 -0.009810
v 0.008211 -0.002198 -0.017093
v 0.009643 0.006567 -0.019749
v 0.010075 0.015333 -0.016763
v 0.009341 0.020751 -0.009276
v 0.007722 0.020751 -0.000147
v 0.005837 0.015333 0.007135
v 0.019352 0.004928 0.012441
v 0.018920 -0.003838 0.009455
v 0.019654 -0.009255 0.001968
v 0.021272 -0.009255 -0.007160
v 0.023158 -0.003838 -0.014442
v 0.024590 0.004928 -0.017098
v 0.025022 0.013694 -0.014112
v 0.024288 0.019112 -0.006625
v 0.022670 0.019112 0.002503
v 0.020784 0.013694 0.009786
v 0.016076 0.004928 0.011465
v 0.017234 -0.003888 0.008844
v 0.020201 -0.009338 0.001956
v 0.023845 -0.009338 -0.006568
v 0.026773 -0.003888 -0.013473
v 0.027866 0.004928 -0.016121
v 0.026708 0.013745 -0.013501
v 0.023741 0.019194 -0.006613
v 0.020097 0.019194 0.001912
v 0.017169 0.013745 0.008817
v 0.034246 0.005006 0.019231
v 0.035404 -0.003810 0.016610
v 0.038372 -0.009259 0.009722
v 0.042015 -0.009259 0.001198
v 0.044943 -0.003810 -0.005707
v 0.046037 0.005006 -0.008355
v 0.044879 0.013823 -0.005734
v 0.041911 0.019272 0.001154
v 0.038268 0.019272 0.009678
v 0.035340 0.013823 0.016583
v 0.040141 0.019249 0.010146
v 0.033584 0.014679 0.014843
v 0.029531 0.006415 0.015947
v 0.029531 -0.002388 0.013038
v 0.033584 -0.008365 0.007225
v 0.040141 -0.009236 0.000730
v 0.046699 -0.004666 -0.003967
v 0.050751 0.003598 -0.005071
v 0.050751 0.012401 -0.002162
v 0.046699 0.018378 0.003651
v 0.056878 0.013404 0.027826
v 0.050320 0.008835 0.032523
v 0.046268 0.000570 0.033627
v 0.046268 -0.008232 0.030718
v 0.050320 -0.014210 0.024905
v 0.056878 -0.015080 0.018410
v 0.063435 -0.010510 0.013713
v 0.067488 -0.002246 0.012609
v 0.067488 0.006556 0.015518
v 0.063435 0.012534 0.021331
v -0.025950 0.009655 -0.011830
v -0.026122 0.000890 -0.014845
v -0.024732 -0.004527 -0.022238
v -0.022311 -0.004527 -0.031187
v -0.019784 0.000890 -0.038273
v -0.018116 0.009655 -0.040789
v -0.017944 0.018420 -0.037775
v -0.019335 0.023837 -0.030382
v -0.021755 0.023837 -0.021433
v -0.024282 0.018420 -0.014347
v 0.003648 0.006322 -0.003823
v 0.003476 -0.002443 -0.006838
v 0.004866 -0.007861 -0.014231
v 0.007287 -0.007861 -0.023180
v 0.009814 -0.002443 -0.030266
v 0.011482 0.006322 -0.032782
v 0.011654 0.015087 -0.029768
v 0.010264 0.020504 -0.022375
v 0.007843 0.020504 -0.013426
v 0.005316 0.015087 -0.006340
v 0.007565 0.020804 -0.022210
v 0.002487 0.019916 -0.014505
v -0.000651 0.013835 -0.008251
v -0.000651 0.004884 -0.005836
v 0.002487 -0.003517 -0.008183
v 0.007565 -0.008160 -0.014396
v 0.012643 -0.007272 -0.022101
v 0.015781 -0.001191 -0.028355
v 0.015781 0.007759 -0.030770
v 0.012643 0.016160 -0.028423
v 0.023634 0.023753 -0.011281
v 0.018556 0.022864 -0.003576
v 0.015417 0.016784 0.002679
v 0.015417 0.007833 0.005094
v 0.018556 -0.000568 0.002747
v 0.023634 -0.005212 -0.003466
v 0.028711 -0.004323 -0.011171
v 0.031850 0.001757 -0.017426
v 0.031850 0.010708 -0.019840
v 0.028711 0.019109 -0.017493
v 0.023634 0.023662 -0.003143
v 0.018440 0.018904 0.002885
v 0.015231 0.010466 0.004994
v 0.015231 0.001572 0.002380
v 0.018440 -0.004382 -0.003960
v 0.023634 -0.005121 -0.011604
v 0.028827 -0.000363 -0.017632
v 0.032036 0.008075 -0.019741
v 0.032036 0.016969 -0.017127
v 0.028827 0.022923 -0.010787
v 0.039361 0.020429 0.007855
v 0.034168 0.015671 0.013883
v 0.030958 0.007233 0.015993
v 0.030958 -0.001661 0.013378
v 0.034168 -0.007615 0.007038
v 0.039361 -0.008354 -0.000606
v 0.044554 -0.003596 -0.006633
v 0.047764 0.004842 -0.008743
v 0.047764 0.013736 -0.006128
v 0.044554 0.019690 0.000212
v 0.039361 0.017486 0.013317
v 0.032555 0.011678 0.015743
v 0.028348 0.003716 0.013541
v 0.028348 -0.003359 0.007551
v 0.032555 -0.006846 0.000061
v 0.039361 -0.005411 -0.006067
v 0.046168 0.000397 -0.008493
v 0.050374 0.008359 -0.006291
v 0.050374 0.015434 -0.000301
v 0.046168 0.018921 0.007188
v 0.055946 0.004472 0.028690
v 0.049140 -0.001336 0.031116
v 0.044933 -0.009298 0.028914
v 0.044933 -0.016374 0.022924
v 0.049140 -0.019860 0.015434
v 0.055946 -0.018425 0.009306
v 0.062752 -0.012618 0.006879
v 0.066959 -0.004655 0.009082
v 0.066959 0.002420 0.015072
v 0.062752 0.005906 0.022561
f 1 2 13
f 2 14 13
f 2 3 14
f 3 15 14
f 3 4 15
f 4 16 15
f 4 5 16
f 5 17 16
f 5 6 17
f 6 18 17
f 6 7 18
f 7 19 18
f 7 8 19
f 8 20 19
f 8 9 20
f 9 21 20
f 9 10 21
f 10 22 21
f 10 11 22
f 11 23 22
f 11 12 23
f 12 24 23
f 13 14 25
f 14 26 25
f 14 15 26
f 15 27 26
f 15 16 27
f 16 28 27
f 16 17 28
f 17 29 28
f 17 18 29
f 18 30 29
f 18 19 30
f 19 31 30
f 19 20 31
f 20 32 31
f 20 21 32
f 21 33 32
f 21 22 33
f 22 34 33
f 22 23 34
f 23 35 34
f 23 24 35
f 24 36 35
f 25 26 37
f 26 38 37
f 26 27 38
f 27 39 38
f 27 28 39
f 28 40 39
f 28 29 40
f 29 41 40
f 29 30 41
f 30 42 41
f 30 31 42
f 31 43 42
f 31 32 43
f 32 44 43
f 32 33 44
f 33 45 44
f 33 34 45
f 34 46 45
f 34 35 46
f 35 47 46
f 35 36 47
f 36 48 47
f 37 38 49
f 38 50 49
f 38 39 50
f 39 51 50
f 39 40 51
f 40 52 51
f 40 41 52
f 41 53 52
f 41 42 53
f 42 54 53
f 42 43 54
f 43 55 54
f 43 44 55
f 44 56 55
f 44 45 56
f 45 57 56
f 45 46 57
f 46 58 57
f 46 47 58
f 47 59 58
f 47 48 59
f 48 60 59
f 49 50 61
f 50 62 61
f 50 51 62
f 51 63 62
f 51 52 63
f 52 64 63
f 52 53 64
f 53 65 64
f 53 54 65
f 54 66 65
f 54 55 66
f 55 67 66
f 55 56 67
f 56 68 67
f 56 57 68
f 57 69 68
f 57 58 69
f 58 70 69
f 58 59 70
f 59 71 70
f 59 60 71
f 60 72 71
f 61 62 73
f 62 74 73
f 62 63 74
f 63 75 74
f 63 64 75
f 64 76 75
f 64 65 76
f 65 77 76
f 65 66 77
f 66 78 77
f 66 67 78
f 67 79 78
f 67 68 79
f 68 80 79
f 68 69 80
f 69 81 80
f 69 70 81
f 70 82 81
f 70 71 82
f 71 83 82
f 71 72 83
f 72 84 83
f 73 74 85
f 74 86 85
f 74 75 86
f 75 87 86
f 75 76 87
f 76 88 87
f 76 77 88
f 77 89 88
f 77 78 89
f 78 90 89
f 78 79 90
f 79 91 90
f 79 80 91
f 80 92 91
f 80 81 92
f 81 93 92
f 81 82 93
f 82 94 93
f 82 83 94
f 83 95 94
f 83 84 95
f 84 96 95
f 85 86 97
f 86 98 97
f 86 87 98
f 87 99 98
f 87 88 99
f 88 100 99
f 88 89 100
f 89 101 100
f 89 90 101
f 90 102 101
f 90 91 102
f 91 103 102
f 91 92 103
f 92 104 103
f 92 93 104
f 93 105 104
f 93 94 105
f 94 106 105
f 94 95 106
f 95 107 106
f 95 96 107
f 96 108 107
f 97 98 109
f 98 110 109
f 98 99 110
f 99 111 110
f 99 100 111
f 100 112 111
f 100 101 112
f 101 113 112
f 101 102 113
f 102 114 113
f 102 103 114
f 103 115 114
f 103 104 115
f 104 116 115
f 104 105 116
f 105 117 116
f 105 106 117
f 106 118 117
f 106 107 118
f 107 119 118
f 107 108 119
f 108 120 119
f 109 110 121
f 110 122 121
f 110 111 122
f 111 123 122
f 111 112 123
f 112 124 123
f 112 113 124
f 113 125 124
f 113 114 125
f 114 126 125
f 114 115 126
f 115 127 126
f 115 116 127
f 116 128 127
f 116 117 128
f 117 129 128
f 117 118 129
f 118 130 129
f 118 119 130
f 119 131 130
f 119 120 131
f 120 132 131
f 121 122 133
f 122 134 133
f 122 123 134
f 123 135 134
f 123 124 135
f 124 136 135
f 124 125 136
f 125 137 136
f 125 126 137
f 126 138 137
f 126 127 138
f 127 139 138
f 127 128 139
f 128 140 139
f 128 129 140
f 129 141 140
f 129 130 141
f 130 142 141
f 130 131 142
f 131 143 142
f 131 132 143
f 132 144 143
f 145 146 155
f 146 156 155
f 146 147 156
f 147 157 156
f 147 148 157
f 148 158 157
f 148 149 158
f 149 159 158
f 149 150 159
f 150 160 159
f 150 151 160
f 151 161 160
f 151 152 161
f 152 162 161
f 152 153 162
f 153 163 162
f 153 154 163
f 154 164 163
f 154 145 164
f 145 155 164
f 165 166 175
f 166 176 175
f 166 167 176
f 167 177 176
f 167 168 177
f 168 178 177
f 168 169 178
f 169 179 178
f 169 170 179
f 170 180 179
f 170 171 180
f 171 181 180
f 171 172 181
f 172 182 181
f 172 173 182
f 173 183 182
f 173 174 183
f 174 184 183
f 174 165 184
f 165 175 184
f 185 186 195
f 186 196 195
f 186 187 196
f 187 197 196
f 187 188 197
f 188 198 197
f 188 189 198
f 189 199 198
f 189 190 199
f 190 200 199
f 190 191 200
f 191 201 200
f 191 192 201
f 192 202 201
f 192 193 202
f 193 203 202
f 193 194 203
f 194 204 203
f 194 185 204
f 185 195 204
f 205 206 215
f 206 216 215
f 206 207 216
f 207 217 216
f 207 208 217
f 208 218 217
f 208 209 218
f 209 219 218
f 209 210 219
f 210 220 219
f 210 211 220
f 211 221 220
f 211 212 221
f 212 222 221
f 212 213 222
f 213 223 222
f 213 214 223
f 214 224 223
f 214 205 224
f 205 215 224
f 225 226 235
f 226 236 235
f 226 227 236
f 227 237 236
f 227 228 237
f 228 238 237
f 228 229 238
f 229 239 238
f 229 230 239
f 230 240 239
f 230 231 240
f 231 241 240
f 231 232 241
f 232 242 241
f 232 233 242
f 233 243 242
f 233 234 243
f 234 244 243
f 234 225 244
f 225 235 244
f 245 246 255
f 246 256 255
f 246 247 256
f 247 257 256
f 247 248 257
f 248 258 257
f 248 249 258
f 249 259 258
f 249 250 259
f 250 260 259
f 250 251 260
f 251 261 260
f 251 252 261
f 252 262 261
f 252 253 262
f 253 263 262
f 253 254 263
f 254 264 263
f 254 245 264
f 245 255 264
f 265 266 275
f 266 276 275
f 266 267 276
f 267 277 276
f 267 268 277
f 268 278 277
f 268 269 278
f 269 279 278
f 269 270 279
f 270 280 279
f 270 271 280
f 271 281 280
f 271 272 281
f 272 282 281
f 272 273 282
f 273 283 282
f 273 274 283
f 274 284 283
f 274 265 284
f 265 275 284
f 285 286 295
f 286 296 295
f 286 287 296
f 287 297 296
f 287 288 297
f 288 298 297
f 288 289 298
f 289 299 298
f 289 290 299
f 290 300 299
f 290 291 300
f 291 301 300
f 291 292 301
f 292 302 301
f 292 293 302
f 293 303 302
f 293 294 303
f 294 304 303
f 294 285 304
f 285 295 304
f 305 306 315
f 306 316 315
f 306 307 316
f 307 317 316
f 307 308 317
f 308 318 317
f 308 309 318
f 309 319 318
f 309 310 319
f 310 320 319
f 310 311 320
f 311 321 320
f 311 312 321
f 312 322 321
f 312 313 322
f 313 323 322
f 313 314 323
f 314 324 323
f 314 305 324
f 305 315 324
f 325 326 335
f 326 336 335
f 326 327 336
f 327 337 336
f 327 328 337
f 328 338 337
f 328 329 338
f 329 339 338
f 329 330 339
f 330 340 339
f 330 331 340
f 331 341 340
f 331 332 341
f 332 342 341
f 332 333 342
f 333 343 342
f 333 334 343
f 334 344 343
f 334 325 344
f 325 335 344
f 345 346 355
f 346 356 355
f 346 347 356
f 347 357 356
f 347 348 357
f 348 358 357
f 348 349 358
f 349 359 358
f 349 350 359
f 350 360 359
f 350 351 360
f 351 361 360
f 351 352 361
f 352 362 361
f 352 353 362
f 353 363 362
f 353 354 363
f 354 364 363
f 354 345 364
f 345 355 364
f 365 366 375
f 366 376 375
f 366 367 376
f 367 377 376
f 367 368 377
f 368 378 377
f 368 369 378
f 369 379 378
f 369 370 379
f 370 380 379
f 370 371 380
f 371 381 380
f 371 372 381
f 372 382 381
f 372 373 382
f 373 383 382
f 373 374 383
f 374 384 383
f 374 365 384
f 365 375 384
f 385 386 395
f 386 396 395
f 386 387 396
f 387 397 396
f 387 388 397
f 388 398 397
f 388 389 398
f 389 399 398
f 389 390 399
f 390 400 399
f 390 391 400
f 391 401 400
f 391 392 401
f 392 402 401
f 392 393 402
f 393 403 402
f 393 394 403
f 394 404 403
f 394 385 404
f 385 395 404
f 405 406 415
f 406 416 415
f 406 407 416
f 407 417 416
f 407 408 417
f 408 418 417
f 408 409 418
f 409 419 418
f 409 410 419
f 410 420 419
f 410 411 420
f 411 421 420
f 411 412 421
f 412 422 421
f 412 413 422
f 413 423 422
f 413 414 423
f 414 424 423
f 414 405 424
f 405 415 424
f 425 426 435
f 426 436 435
f 426 427 436
f 427 437 436
f 427 428 437
f 428 438 437
f 428 429 438
f 429 439 438
f 429 430 439
f 430 440 439
f 430 431 440
f 431 441 440
f 431 432 441
f 432 442 441
f 432 433 442
f 433 443 442
f 433 434 443
f 434 444 443
f 434 425 444
f 425 435 444
f 445 446 455
f 446 456 455
f 446 447 456
f 447 457 456
f 447 448 457
f 448 458 457
f 448 449 458
f 449 459 458
f 449 450 459
f 450 460 459
f 450 451 460
f 451 461 460
f 451 452 461
f 452 462 461
f 452 453 462
f 453 463 462
f 453 454 463
f 454 464 463
f 454 445 464
f 445 455 464
f 465 466 475
f 466 476 475
f 466 467 476
f 467 477 476
f 467 468 477
f 468 478 477
f 468 469 478
f 469 479 478
f 469 470 479
f 470 480 479
f 470 471 480
f 471 481 480
f 471 472 481
f 472 482 481
f 472 473 482
f 473 483 482
f 473 474 483
f 474 484 483
f 474 465 484
f 465 475 484
f 485 486 495
f 486 496 495
f 486 487 496
f 487 497 496
f 487 488 497
f 488 498 497
f 488 489 498
f 489 499 498
f 489 490 499
f 490 500 499
f 490 491 500
f 491 501 500
f 491 492 501
f 492 502 501
f 492 493 502
f 493 503 502
f 493 494 503
f 494 504 503
f 494 485 504
f 485 495 504
f 505 506 515
f 506 516 515
f 506 507 516
f 507 517 516
f 507 508 517
f 508 518 517
f 508 509 518
f 509 519 518
f 509 510 519
f 510 520 519
f 510 511 520
f 511 521 520
f 511 512 521
f 512 522 521
f 512 513 522
f 513 523 522
f 513 514 523
f 514 524 523
f 514 505 524
f 505 515 524
f 525 526 535
f 526 536 535
f 526 527 536
f 527 537 536
f 527 528 537
f 528 538 537
f 528 529 538
f 529 539 538
f 529 530 539
f 530 540 539
f 530 531 540
f 531 541 540
f 531 532 541
f 532 542 541
f 532 533 542
f 533 543 542
f 533 534 543
f 534 544 543
f 534 525 544
f 525 535 544
f 545 546 555
f 546 556 555
f 546 547 556
f 547 557 556
f 547 548 557
f 548 558 557
f 548 549 558
f 549 559 558
f 549 550 559
f 550 560 559
f 550 551 560
f 551 561 560
f 551 552 561
f 552 562 561
f 552 553 562
f 553 563 562
f 553 554 563
f 554 564 563
f 554 545 564
f 545 555 564
f 565 566 575
f 566 576 575
f 566 567 576
f 567 577 576
f 567 568 577
f 568 578 577
f 568 569 578
f 569 579 578
f 569 570 579
f 570 580 579
f 570 571 580
f 571 581 580
f 571 572 581
f 572 582 581
f 572 573 582
f 573 583 582
f 573 574 583
f 574 584 583
f 574 565 584
f 565 575 584
f 585 586 595
f 586 596 595
f 586 587 596
f 587 597 596
f 587 588 597
f 588 598 597
f 588 589 598
f 589 599 598
f 589 590 599
f 590 600 599
f 590 591 600
f 591 601 600
f 591 592 601
f 592 602 601
f 592 593 602
f 593 603 602
f 593 594 603
f 594 604 603
f 594 585 604
f 585 595 604
f 605 606 615
f 606 616 615
f 606 607 616
f 607 617 616
f 607 608 617
f 608 618 617
f 608 609 618
f 609 619 618
f 609 610 619
f 610 620 619
f 610 611 620
f 611 621 620
f 611 612 621
f 612 622 621
f 612 613 622
f 613 623 622
f 613 614 623
f 614 624 623
f 614 605 624
f 605 615 624
f 625 626 635
f 626 636 635
f 626 627 636
f 627 637 636
f 627 628 637
f 628 638 637
f 628 629 638
f 629 639 638
f 629 630 639
f 630 640 639
f 630 631 640
f 631 641 640
f 631 632 641
f 632 642 641
f 632 633 642
f 633 643 642
f 633 634 643
f 634 644 643
f 634 625 644
f 625 635 644
f 645 646 655
f 646 656 655
f 646 647 656
f 647 657 656
f 647 648 657
f 648 658 657
f 648 649 658
f 649 659 658
f 649 650 659
f 650 660 659
f 650 651 660
f 651 661 660
f 651 652 661
f 652 662 661
f 652 653 662
f 653 663 662
f 653 654 663
f 654 664 663
f 654 645 664
f 645 655 664
f 665 666 675
f 666 676 675
f 666 667 676
f 667 677 676
f 667 668 677
f 668 678 677
f 668 669 678
f 669 679 678
f 669 670 679
f 670 680 679
f 670 671 680
f 671 681 680
f 671 672 681
f 672 682 681
f 672 673 682
f 673 683 682
f 673 674 683
f 674 684 683
f 674 665 684
f 665 675 684
f 685 686 695
f 686 696 695
f 686 687 696
f 687 697 696
f 687 688 697
f 688 698 697
f 688 689 698
f 689 699 698
f 689 690 699
f 690 700 699
f 690 691 700
f 691 701 700
f 691 692 701
f 692 702 701
f 692 693 702
f 693 703 702
f 693 694 703
f 694 704 703
f 694 685 704
f 685 695 704
f 705 706 715
f 706 716 715
f 706 707 716
f 707 717 716
f 707 708 717
f 708 718 717
f 708 709 718
f 709 719 718
f 709 710 719
f 710 720 719
f 710 711 720
f 711 721 720
f 711 712 721
f 712 722 721
f 712 713 722
f 713 723 722
f 713 714 723
f 714 724 723
f 714 705 724
f 705 715 724
f 725 726 735
f 726 736 735
f 726 727 736
f 727 737 736
f 727 728 737
f 728 738 737
f 728 729 738
f 729 739 738
f 729 730 739
f 730 740 739
f 730 731 740
f 731 741 740
f 731 732 741
f 732 742 741
f 732 733 742
f 733 743 742
f 733 734 743
f 734 744 743
f 734 725 744
f 725 735 744
f 745 746 755
f 746 756 755
f 746 747 756
f 747 757 756
f 747 748 757
f 748 758 757
f 748 749 758
f 749 759 758
f 749 750 759
f 750 760 759
f 750 751 760
f 751 761 760
f 751 752 761
f 752 762 761
f 752 753 762
f 753 763 762
f 753 754 763
f 754 764 763
f 754 745 764
f 745 755 764
f 765 766 775
f 766 776 775
f 766 767 776
f 767 777 776
f 767 768 777
f 768 778 777
f 768 769 778
f 769 779 778
f 769 770 779
f 770 780 779
f 770 771 780
f 771 781 780
f 771 772 781
f 772 782 781
f 772 773 782
f 773 783 782
f 773 774 783
f 774 784 783
f 774 765 784
f 765 775 784
