# Full-Body 3D Mesh - Frame 277
v 0.029286 -0.614073 -0.097646
v 0.063094 -0.614073 -0.102507
v 0.094163 -0.614073 -0.116696
v 0.119976 -0.614073 -0.139063
v 0.138442 -0.614073 -0.167797
v 0.148065 -0.614073 -0.200569
v 0.148065 -0.614073 -0.234724
v 0.138442 -0.614073 -0.267496
v 0.119976 -0.614073 -0.296230
v 0.094163 -0.614073 -0.318597
v 0.063094 -0.614073 -0.332786
v 0.029286 -0.614073 -0.337646
v 0.029286 -0.614073 -0.097646
v 0.057727 -0.595795 -0.102507
v 0.083864 -0.578998 -0.116696
v 0.105580 -0.565042 -0.139063
v 0.121114 -0.555059 -0.167797
v 0.129209 -0.549857 -0.200569
v 0.129209 -0.549857 -0.234724
v 0.121114 -0.555059 -0.267496
v 0.105580 -0.565042 -0.296230
v 0.083864 -0.578998 -0.318597
v 0.057727 -0.595795 -0.332786
v 0.029286 -0.614073 -0.337646
v 0.029286 -0.614073 -0.097646
v 0.043331 -0.583320 -0.102507
v 0.056237 -0.555059 -0.116696
v 0.066960 -0.531579 -0.139063
v 0.074631 -0.514782 -0.167797
v 0.078629 -0.506028 -0.200569
v 0.078629 -0.506028 -0.234724
v 0.074631 -0.514782 -0.267496
v 0.066960 -0.531579 -0.296230
v 0.056237 -0.555059 -0.318597
v 0.043331 -0.583320 -0.332786
v 0.029286 -0.614073 -0.337646
v 0.029286 -0.614073 -0.097646
v 0.024475 -0.580609 -0.102507
v 0.020053 -0.549857 -0.116696
v 0.016380 -0.524306 -0.139063
v 0.013752 -0.506028 -0.167797
v 0.012382 -0.496504 -0.200569
v 0.012382 -0.496504 -0.234724
v 0.013752 -0.506028 -0.267496
v 0.016380 -0.524306 -0.296230
v 0.020053 -0.549857 -0.318597
v 0.024475 -0.580609 -0.332786
v 0.029286 -0.614073 -0.337646
v 0.029286 -0.614073 -0.097646
v 0.007147 -0.588523 -0.102507
v -0.013199 -0.565042 -0.116696
v -0.030103 -0.545534 -0.139063
v -0.042195 -0.531579 -0.167797
v -0.048497 -0.524306 -0.200569
v -0.048497 -0.524306 -0.234724
v -0.042195 -0.531579 -0.267496
v -0.030103 -0.545534 -0.296230
v -0.013199 -0.565042 -0.318597
v 0.007147 -0.588523 -0.332786
v 0.029286 -0.614073 -0.337646
v 0.029286 -0.614073 -0.097646
v -0.003152 -0.604548 -0.102507
v -0.032963 -0.595795 -0.116696
v -0.057730 -0.588523 -0.139063
v -0.075448 -0.583320 -0.167797
v -0.084681 -0.580609 -0.200569
v -0.084681 -0.580609 -0.234724
v -0.075448 -0.583320 -0.267496
v -0.057730 -0.588523 -0.296230
v -0.032963 -0.595795 -0.318597
v -0.003152 -0.604548 -0.332786
v 0.029286 -0.614073 -0.337646
v 0.029286 -0.614073 -0.097646
v -0.003152 -0.623598 -0.102507
v -0.032963 -0.632351 -0.116696
v -0.057730 -0.639623 -0.139063
v -0.075448 -0.644826 -0.167797
v -0.084681 -0.647537 -0.200569
v -0.084681 -0.647537 -0.234724
v -0.075448 -0.644826 -0.267496
v -0.057730 -0.639623 -0.296230
v -0.032963 -0.632351 -0.318597
v -0.003152 -0.623598 -0.332786
v 0.029286 -0.614073 -0.337646
v 0.029286 -0.614073 -0.097646
v 0.007147 -0.639623 -0.102507
v -0.013199 -0.663104 -0.116696
v -0.030103 -0.682612 -0.139063
v -0.042195 -0.696568 -0.167797
v -0.048497 -0.703840 -0.200569
v -0.048497 -0.703840 -0.234724
v -0.042195 -0.696568 -0.267496
v -0.030103 -0.682612 -0.296230
v -0.013199 -0.663104 -0.318597
v 0.007147 -0.639623 -0.332786
v 0.029286 -0.614073 -0.337646
v 0.029286 -0.614073 -0.097646
v 0.024475 -0.647537 -0.102507
v 0.020053 -0.678290 -0.116696
v 0.016380 -0.703840 -0.139063
v 0.013752 -0.722118 -0.167797
v 0.012382 -0.731643 -0.200569
v 0.012382 -0.731643 -0.234724
v 0.013752 -0.722118 -0.267496
v 0.016380 -0.703840 -0.296230
v 0.020053 -0.678290 -0.318597
v 0.024475 -0.647537 -0.332786
v 0.029286 -0.614073 -0.337646
v 0.029286 -0.614073 -0.097646
v 0.043331 -0.644826 -0.102507
v 0.056237 -0.673087 -0.116696
v 0.066960 -0.696568 -0.139063
v 0.074631 -0.713365 -0.167797
v 0.078629 -0.722118 -0.200569
v 0.078629 -0.722118 -0.234724
v 0.074631 -0.713365 -0.267496
v 0.066960 -0.696568 -0.296230
v 0.056237 -0.673087 -0.318597
v 0.043331 -0.644826 -0.332786
v 0.029286 -0.614073 -0.337646
v 0.029286 -0.614073 -0.097646
v 0.057727 -0.632351 -0.102507
v 0.083864 -0.649148 -0.116696
v 0.105580 -0.663104 -0.139063
v 0.121114 -0.673087 -0.167797
v 0.129209 -0.678290 -0.200569
v 0.129209 -0.678290 -0.234724
v 0.121114 -0.673087 -0.267496
v 0.105580 -0.663104 -0.296230
v 0.083864 -0.649148 -0.318597
v 0.057727 -0.632351 -0.332786
v 0.029286 -0.614073 -0.337646
v 0.029286 -0.614073 -0.097646
v 0.063094 -0.614073 -0.102507
v 0.094163 -0.614073 -0.116696
v 0.119976 -0.614073 -0.139063
v 0.138442 -0.614073 -0.167797
v 0.148065 -0.614073 -0.200569
v 0.148065 -0.614073 -0.234724
v 0.138442 -0.614073 -0.267496
v 0.119976 -0.614073 -0.296230
v 0.094163 -0.614073 -0.318597
v 0.063094 -0.614073 -0.332786
v 0.029286 -0.614073 -0.337646
v 0.181628 -0.424791 -0.077728
v 0.182394 -0.448278 -0.070052
v 0.182262 -0.462794 -0.050042
v 0.181281 -0.462794 -0.025340
v 0.179827 -0.448278 -0.005382
v 0.178455 -0.424791 0.002209
v 0.177688 -0.401304 -0.005467
v 0.177821 -0.386788 -0.025477
v 0.178801 -0.386788 -0.050179
v 0.180256 -0.401304 -0.070137
v -0.147750 -0.439810 -0.090804
v -0.146984 -0.463297 -0.083128
v -0.147117 -0.477813 -0.063117
v -0.148097 -0.477813 -0.038415
v -0.149551 -0.463297 -0.018457
v -0.150924 -0.439810 -0.010866
v -0.151690 -0.416323 -0.018542
v -0.151558 -0.401807 -0.038553
v -0.150577 -0.401807 -0.063255
v -0.149123 -0.416323 -0.083213
v 0.180041 -0.431403 -0.077209
v 0.157505 -0.423532 -0.070783
v 0.143577 -0.416141 -0.051742
v 0.143577 -0.412054 -0.027361
v 0.157505 -0.412833 -0.006952
v 0.180041 -0.418179 0.001690
v 0.202578 -0.426050 -0.004736
v 0.216506 -0.433441 -0.023776
v 0.216506 -0.437528 -0.048158
v 0.202578 -0.436749 -0.068567
v 0.255903 -0.179786 -0.119384
v 0.233367 -0.171914 -0.112957
v 0.219438 -0.164524 -0.093917
v 0.219438 -0.160437 -0.069536
v 0.233367 -0.161216 -0.049126
v 0.255903 -0.166562 -0.040484
v 0.278439 -0.174433 -0.046911
v 0.292367 -0.181824 -0.065951
v 0.292367 -0.185911 -0.090332
v 0.278439 -0.185132 -0.110742
v 0.255903 -0.184063 -0.118423
v 0.232413 -0.181011 -0.111347
v 0.217896 -0.174966 -0.092273
v 0.217896 -0.168236 -0.068485
v 0.232413 -0.163393 -0.049070
v 0.255903 -0.162285 -0.041445
v 0.279393 -0.165336 -0.048520
v 0.293910 -0.171382 -0.067595
v 0.293910 -0.178111 -0.091383
v 0.279393 -0.182955 -0.110798
v 0.263955 -0.003886 -0.169397
v 0.240465 -0.000835 -0.162321
v 0.225948 0.005211 -0.143247
v 0.225948 0.011940 -0.119459
v 0.240465 0.016784 -0.100044
v 0.263955 0.017892 -0.092419
v 0.287445 0.014840 -0.099495
v 0.301962 0.008795 -0.118569
v 0.301962 0.002065 -0.142357
v 0.287445 -0.002779 -0.161772
v -0.149337 -0.464723 -0.082130
v -0.168546 -0.470571 -0.067710
v -0.180418 -0.464670 -0.046844
v -0.180418 -0.449273 -0.027503
v -0.168546 -0.430262 -0.017074
v -0.149337 -0.414898 -0.019540
v -0.130128 -0.409049 -0.033960
v -0.118256 -0.414950 -0.054826
v -0.118256 -0.430347 -0.074167
v -0.130128 -0.449359 -0.084596
v -0.326245 -0.268605 -0.238252
v -0.345455 -0.274454 -0.223832
v -0.357327 -0.268553 -0.202966
v -0.357327 -0.253156 -0.183625
v -0.345455 -0.234144 -0.173196
v -0.326245 -0.218780 -0.175662
v -0.307036 -0.212932 -0.190082
v -0.295164 -0.218833 -0.210948
v -0.295164 -0.234230 -0.230289
v -0.307036 -0.253241 -0.240718
v -0.326245 -0.278159 -0.186658
v -0.345208 -0.278630 -0.202511
v -0.356928 -0.265757 -0.220063
v -0.356928 -0.244455 -0.232609
v -0.345208 -0.222863 -0.235356
v -0.326245 -0.209226 -0.227256
v -0.307283 -0.208755 -0.211403
v -0.295563 -0.221629 -0.193851
v -0.295563 -0.242930 -0.181305
v -0.307283 -0.264523 -0.178558
v -0.165631 -0.389360 -0.375465
v -0.184594 -0.389832 -0.391319
v -0.196313 -0.376958 -0.408871
v -0.196313 -0.355657 -0.421417
v -0.184594 -0.334064 -0.424164
v -0.165631 -0.320427 -0.416064
v -0.146668 -0.319956 -0.400211
v -0.134948 -0.332830 -0.382659
v -0.134948 -0.354131 -0.370113
v -0.146668 -0.375724 -0.367366
v 0.180041 -0.421781 -0.077646
v 0.156738 -0.425472 -0.070263
v 0.142336 -0.428902 -0.050466
v 0.142336 -0.430763 -0.025814
v 0.156738 -0.430342 -0.005726
v 0.180041 -0.427801 0.002127
v 0.203344 -0.424110 -0.005255
v 0.217746 -0.420680 -0.025053
v 0.217746 -0.418819 -0.049705
v 0.203344 -0.419240 -0.069793
v 0.120599 0.020258 -0.044287
v 0.097296 0.016567 -0.036904
v 0.082894 0.013136 -0.017106
v 0.082894 0.011276 0.007545
v 0.097296 0.011696 0.027634
v 0.120599 0.014237 0.035487
v 0.143901 0.017928 0.028104
v 0.158303 0.021359 0.008306
v 0.158303 0.023219 -0.016345
v 0.143901 0.022799 -0.036434
v -0.149337 -0.434355 -0.090461
v -0.172790 -0.433750 -0.082667
v -0.187284 -0.435459 -0.062713
v -0.187284 -0.438830 -0.038223
v -0.172790 -0.442576 -0.018550
v -0.149337 -0.445266 -0.011209
v -0.125885 -0.445871 -0.019003
v -0.111390 -0.444162 -0.038957
v -0.111390 -0.440790 -0.063447
v -0.125885 -0.437044 -0.083120
v -0.119946 -0.023731 -0.033932
v -0.143398 -0.023125 -0.026138
v -0.157893 -0.024835 -0.006184
v -0.157893 -0.028206 0.018306
v -0.143398 -0.031952 0.037979
v -0.119946 -0.034641 0.045320
v -0.096493 -0.035247 0.037526
v -0.081999 -0.033538 0.017572
v -0.081999 -0.030166 -0.006918
v -0.096493 -0.026420 -0.026591
v 0.118921 0.017248 -0.044365
v 0.123690 -0.005838 -0.036919
v 0.127278 -0.020106 -0.017052
v 0.128315 -0.020106 0.007648
v 0.126404 -0.005838 0.027746
v 0.122276 0.017248 0.035565
v 0.117507 0.040333 0.028119
v 0.113919 0.054601 0.008252
v 0.112882 0.054601 -0.016448
v 0.114793 0.040333 -0.036546
v -0.121623 -0.029186 -0.034271
v -0.116854 -0.052272 -0.026825
v -0.113266 -0.066540 -0.006958
v -0.112230 -0.066540 0.017742
v -0.114141 -0.052272 0.037840
v -0.118269 -0.029186 0.045659
v -0.123038 -0.006100 0.038213
v -0.126626 0.008168 0.018346
v -0.127662 0.008168 -0.006354
v -0.125751 -0.006100 -0.026452
v 0.120599 -0.003806 -0.038411
v 0.097143 -0.001164 -0.031062
v 0.082647 0.008510 -0.013529
v 0.082647 0.021522 0.007491
v 0.097143 0.032901 0.023969
v 0.120599 0.038301 0.029611
v 0.144054 0.035659 0.022262
v 0.158550 0.025985 0.004728
v 0.158550 0.012973 -0.016291
v 0.144054 0.001594 -0.032769
v 0.110722 0.117625 -0.113580
v 0.087266 0.120267 -0.106230
v 0.072770 0.129941 -0.088697
v 0.072770 0.142953 -0.067677
v 0.087266 0.154332 -0.051199
v 0.110722 0.159732 -0.045558
v 0.134177 0.157091 -0.052907
v 0.148673 0.147416 -0.070440
v 0.148673 0.134405 -0.091460
v 0.134177 0.123025 -0.107938
v 0.110722 0.154819 -0.116168
v 0.087491 0.155052 -0.107716
v 0.073134 0.149031 -0.088513
v 0.073134 0.139056 -0.065893
v 0.087491 0.128937 -0.048497
v 0.110722 0.122539 -0.042969
v 0.133952 0.122306 -0.051421
v 0.148309 0.128327 -0.070624
v 0.148309 0.138302 -0.093244
v 0.133952 0.148421 -0.110640
v 0.167158 0.485887 0.029829
v 0.143927 0.486120 0.038281
v 0.129570 0.480099 0.057484
v 0.129570 0.470124 0.080104
v 0.143927 0.460006 0.097500
v 0.167158 0.453608 0.103028
v 0.190388 0.453375 0.094576
v 0.204745 0.459396 0.075373
v 0.204745 0.469371 0.052753
v 0.190388 0.479490 0.035357
v -0.119946 -0.069186 0.005924
v -0.143154 -0.061525 0.009642
v -0.157498 -0.041512 0.011852
v -0.157498 -0.016791 0.011710
v -0.143154 0.003196 0.009270
v -0.119946 0.010813 0.005464
v -0.096737 0.003152 0.001746
v -0.082394 -0.016861 -0.000464
v -0.082394 -0.041582 -0.000322
v -0.096737 -0.061568 0.002118
v -0.150052 -0.070252 -0.179801
v -0.173261 -0.062591 -0.176083
v -0.187604 -0.042578 -0.173873
v -0.187604 -0.017857 -0.174015
v -0.173261 0.002129 -0.176455
v -0.150052 0.009747 -0.180261
v -0.126844 0.002086 -0.183979
v -0.112500 -0.017927 -0.186189
v -0.112500 -0.042648 -0.186047
v -0.126844 -0.062634 -0.183607
v -0.150052 -0.036831 -0.219487
v -0.173014 -0.030589 -0.212782
v -0.187205 -0.024219 -0.193568
v -0.187205 -0.020154 -0.169183
v -0.173014 -0.019946 -0.148942
v -0.150052 -0.023674 -0.140576
v -0.127090 -0.029915 -0.147280
v -0.112899 -0.036285 -0.166494
v -0.112899 -0.040351 -0.190879
v -0.127090 -0.040559 -0.211120
v -0.084296 0.257870 -0.268620
v -0.107258 0.264111 -0.261916
v -0.121449 0.270481 -0.242702
v -0.121449 0.274546 -0.218317
v -0.107258 0.274755 -0.198076
v -0.084296 0.271026 -0.189710
v -0.061334 0.264785 -0.196414
v -0.047143 0.258415 -0.215628
v -0.047143 0.254349 -0.240013
v -0.061334 0.254141 -0.260254
v -0.030481 0.065418 0.051736
v -0.035195 0.064353 0.043825
v -0.038108 0.068722 0.036184
v -0.038108 0.076854 0.031734
v -0.035195 0.085644 0.032172
v -0.030481 0.091734 0.037333
v -0.025767 0.092798 0.045244
v -0.022853 0.088430 0.052885
v -0.022853 0.080297 0.057335
v -0.025767 0.071508 0.056897
v 0.004199 0.054884 0.032489
v -0.000515 0.053820 0.024578
v -0.003429 0.058188 0.016938
v -0.003429 0.066320 0.012487
v -0.000515 0.075110 0.012926
v 0.004199 0.081200 0.018086
v 0.008912 0.082264 0.025998
v 0.011826 0.077896 0.033638
v 0.011826 0.069764 0.038088
v 0.008912 0.060974 0.037650
v 0.004603 0.068042 0.040282
v 0.000965 0.059977 0.037514
v -0.001438 0.054992 0.030077
v -0.001687 0.054992 0.020809
v 0.000311 0.059977 0.013253
v 0.003794 0.068042 0.010293
v 0.007432 0.076107 0.013061
v 0.009835 0.081092 0.020499
v 0.010084 0.081092 0.029766
v 0.008086 0.076107 0.037323
v 0.037514 0.053502 0.039395
v 0.033876 0.045437 0.036628
v 0.031474 0.040453 0.029190
v 0.031224 0.040453 0.019922
v 0.033222 0.045437 0.012366
v 0.036706 0.053502 0.009406
v 0.040343 0.061568 0.012174
v 0.042746 0.066552 0.019612
v 0.042996 0.066552 0.028879
v 0.040997 0.061568 0.036436
v 0.037778 0.053502 0.039386
v 0.034191 0.045394 0.036678
v 0.031720 0.040383 0.029281
v 0.031306 0.040383 0.020020
v 0.033110 0.045394 0.012432
v 0.036442 0.053502 0.009416
v 0.040028 0.061611 0.012123
v 0.042500 0.066622 0.019520
v 0.042913 0.066622 0.028782
v 0.041110 0.061611 0.036370
v 0.071377 0.039141 0.037887
v 0.067790 0.031032 0.035180
v 0.065318 0.026021 0.027783
v 0.064905 0.026021 0.018521
v 0.066709 0.031032 0.010933
v 0.070040 0.039141 0.007917
v 0.073627 0.047249 0.010625
v 0.076099 0.052260 0.018022
v 0.076512 0.052260 0.027283
v 0.074708 0.047249 0.034871
v 0.070709 0.046832 0.035780
v 0.066446 0.038737 0.037278
v 0.063812 0.030796 0.033285
v 0.063812 0.026043 0.025326
v 0.066446 0.026292 0.016441
v 0.070709 0.031449 0.010024
v 0.074971 0.039544 0.008526
v 0.077605 0.047485 0.012519
v 0.077605 0.052239 0.020478
v 0.074971 0.051989 0.029363
v 0.093167 0.036184 0.042140
v 0.088905 0.028088 0.043638
v 0.086271 0.020148 0.039645
v 0.086271 0.015394 0.031686
v 0.088905 0.015643 0.022801
v 0.093167 0.020801 0.016384
v 0.097430 0.028896 0.014886
v 0.100064 0.036837 0.018879
v 0.100064 0.041590 0.026838
v 0.097430 0.041341 0.035723
v -0.030481 0.072071 0.058051
v -0.037947 0.069088 0.053436
v -0.042561 0.069729 0.045421
v -0.042561 0.073749 0.037067
v -0.037947 0.079613 0.031566
v -0.030481 0.085081 0.031018
v -0.023015 0.088064 0.035633
v -0.018400 0.087423 0.043648
v -0.018400 0.083403 0.052002
v -0.023015 0.077539 0.057503
v 0.024644 -0.007013 0.019990
v 0.017178 -0.009996 0.015375
v 0.012564 -0.009355 0.007360
v 0.012564 -0.005335 -0.000994
v 0.017178 0.000529 -0.006495
v 0.024644 0.005997 -0.007042
v 0.032110 0.008980 -0.002427
v 0.036725 0.008340 0.005587
v 0.036725 0.004319 0.013941
v 0.032110 -0.001545 0.019442
v 0.024644 -0.002939 0.021275
v 0.016098 -0.004615 0.018097
v 0.010817 -0.004722 0.010479
v 0.010817 -0.003220 0.001331
v 0.016098 -0.000681 -0.005853
v 0.024644 0.001923 -0.008328
v 0.033190 0.003600 -0.005150
v 0.038471 0.003707 0.002469
v 0.038471 0.002204 0.011616
v 0.033190 -0.000334 0.018800
v 0.031522 -0.029677 0.016884
v 0.022976 -0.031353 0.013705
v 0.017695 -0.031460 0.006087
v 0.017695 -0.029958 -0.003061
v 0.022976 -0.027419 -0.010244
v 0.031522 -0.024815 -0.012720
v 0.040068 -0.023138 -0.009541
v 0.045350 -0.023031 -0.001923
v 0.045350 -0.024533 0.007225
v 0.040068 -0.027072 0.014408
v 0.031522 -0.032082 0.016281
v 0.022788 -0.032295 0.013182
v 0.017389 -0.030580 0.005843
v 0.017389 -0.027591 -0.002933
v 0.022788 -0.024471 -0.009793
v 0.031522 -0.022410 -0.012117
v 0.040257 -0.022196 -0.009018
v 0.045655 -0.023911 -0.001679
v 0.045655 -0.026900 0.007096
v 0.040257 -0.030021 0.013957
v 0.034876 -0.055164 0.008419
v 0.026142 -0.055378 0.005320
v 0.020743 -0.053663 -0.002019
v 0.020743 -0.050674 -0.010794
v 0.026142 -0.047553 -0.017654
v 0.034876 -0.045492 -0.019979
v 0.043611 -0.045279 -0.016880
v 0.049009 -0.046994 -0.009541
v 0.049009 -0.049983 -0.000765
v 0.043611 -0.053104 0.006095
v 0.034876 -0.062391 0.003136
v 0.026065 -0.060278 0.001176
v 0.020620 -0.054364 -0.003441
v 0.020620 -0.046909 -0.008951
v 0.026065 -0.040760 -0.013250
v 0.034876 -0.038266 -0.014696
v 0.043687 -0.040379 -0.012735
v 0.049133 -0.046293 -0.008118
v 0.049133 -0.053748 -0.002608
v 0.043687 -0.059897 0.001691
v 0.035918 -0.079431 -0.019918
v 0.027107 -0.077317 -0.021878
v 0.021661 -0.071403 -0.026495
v 0.021661 -0.063948 -0.032005
v 0.027107 -0.057799 -0.036304
v 0.035918 -0.055305 -0.037750
v 0.044728 -0.057419 -0.035789
v 0.050174 -0.063333 -0.031172
v 0.050174 -0.070788 -0.025662
v 0.044728 -0.076937 -0.021363
v -0.030481 0.072116 0.058072
v -0.038806 0.070729 0.054236
v -0.043951 0.072339 0.046694
v -0.043951 0.076331 0.038328
v -0.038806 0.081181 0.032332
v -0.030481 0.085036 0.030997
v -0.022156 0.086423 0.034833
v -0.017011 0.084813 0.042375
v -0.017011 0.080820 0.050741
v -0.022156 0.075971 0.056737
v 0.001780 -0.011348 0.018245
v -0.006545 -0.012736 0.014409
v -0.011690 -0.011125 0.006867
v -0.011690 -0.007133 -0.001500
v -0.006545 -0.002283 -0.007495
v 0.001780 0.001571 -0.008830
v 0.010105 0.002959 -0.004994
v 0.015250 0.001349 0.002548
v 0.015250 -0.002644 0.010914
v 0.010105 -0.007494 0.016910
v 0.001780 -0.018762 0.010411
v -0.006684 -0.017051 0.007037
v -0.011915 -0.010695 0.002774
v -0.011915 -0.002121 -0.000751
v -0.006684 0.005396 -0.002191
v 0.001780 0.008985 -0.000996
v 0.010244 0.007274 0.002378
v 0.015475 0.000918 0.006641
v 0.015475 -0.007656 0.010166
v 0.010244 -0.015173 0.011606
v 0.012903 -0.033255 -0.024846
v 0.004439 -0.031545 -0.028219
v -0.000792 -0.025188 -0.032483
v -0.000792 -0.016614 -0.036007
v 0.004439 -0.009097 -0.037447
v 0.012903 -0.005508 -0.036252
v 0.021366 -0.007219 -0.032879
v 0.026597 -0.013575 -0.028616
v 0.026597 -0.022150 -0.025091
v 0.021366 -0.029667 -0.023651
v 0.012903 -0.023209 -0.045053
v 0.004103 -0.023009 -0.042143
v -0.001336 -0.021424 -0.034804
v -0.001336 -0.019059 -0.025840
v 0.004103 -0.016817 -0.018675
v 0.012903 -0.015555 -0.016045
v 0.021702 -0.015755 -0.018956
v 0.027141 -0.017340 -0.026294
v 0.027141 -0.019705 -0.035258
v 0.021702 -0.021947 -0.042423
v 0.011320 0.001302 -0.051520
v 0.002521 0.001501 -0.048610
v -0.002918 0.003087 -0.041271
v -0.002918 0.005452 -0.032307
v 0.002521 0.007693 -0.025142
v 0.011320 0.008955 -0.022512
v 0.020120 0.008755 -0.025422
v 0.025558 0.007170 -0.032761
v 0.025558 0.004805 -0.041725
v 0.020120 0.002564 -0.048890
v 0.011320 0.016865 -0.046357
v 0.002698 0.013476 -0.046015
v -0.002631 0.006899 -0.042235
v -0.002631 -0.000355 -0.036462
v 0.002698 -0.005514 -0.030900
v 0.011320 -0.006608 -0.027675
v 0.019942 -0.003219 -0.028017
v 0.025271 0.003358 -0.031797
v 0.025271 0.010611 -0.037570
v 0.019942 0.015770 -0.043132
v 0.005795 0.032967 -0.026126
v -0.002827 0.029579 -0.025784
v -0.008156 0.023001 -0.022004
v -0.008156 0.015748 -0.016231
v -0.002827 0.010589 -0.010669
v 0.005795 0.009495 -0.007444
v 0.014418 0.012884 -0.007786
v 0.019746 0.019461 -0.011566
v 0.019746 0.026714 -0.017339
v 0.014418 0.031873 -0.022901
v -0.030481 0.070874 0.057406
v -0.039230 0.071410 0.054389
v -0.044637 0.074684 0.047608
v -0.044637 0.079444 0.039652
v -0.039230 0.083873 0.033562
v -0.030481 0.086278 0.031663
v -0.021731 0.085741 0.034680
v -0.016324 0.082467 0.041461
v -0.016324 0.077707 0.049417
v -0.021731 0.073279 0.055507
v -0.018668 -0.010584 0.008664
v -0.027418 -0.010048 0.005647
v -0.032825 -0.006774 -0.001134
v -0.032825 -0.002014 -0.009089
v -0.027418 0.002414 -0.015180
v -0.018668 0.004820 -0.017079
v -0.009919 0.004283 -0.014062
v -0.004512 0.001009 -0.007280
v -0.004512 -0.003751 0.000675
v -0.009919 -0.008179 0.006765
v -0.018668 -0.017746 -0.002188
v -0.027177 -0.015218 -0.004862
v -0.032436 -0.007979 -0.007286
v -0.032436 0.001208 -0.008534
v -0.027177 0.008831 -0.008129
v -0.018668 0.011981 -0.006227
v -0.010159 0.009453 -0.003553
v -0.004901 0.002214 -0.001129
v -0.004901 -0.006972 0.000119
v -0.010159 -0.014596 -0.000285
v -0.009907 -0.022092 -0.034176
v -0.018416 -0.019564 -0.036850
v -0.023674 -0.012325 -0.039274
v -0.023674 -0.003139 -0.040522
v -0.018416 0.004485 -0.040118
v -0.009907 0.007635 -0.038215
v -0.001398 0.005107 -0.035541
v 0.003861 -0.002133 -0.033117
v 0.003861 -0.011319 -0.031869
v -0.001398 -0.018943 -0.032273
v -0.009907 -0.008731 -0.051120
v -0.018551 -0.006719 -0.048443
v -0.023894 -0.004901 -0.041088
v -0.023894 -0.003973 -0.031865
v -0.018551 -0.004288 -0.024295
v -0.009907 -0.005726 -0.021271
v -0.001262 -0.007738 -0.023948
v 0.004081 -0.009556 -0.031302
v 0.004081 -0.010485 -0.040526
v -0.001262 -0.010170 -0.048096
v -0.005290 0.014169 -0.053425
v -0.013935 0.016181 -0.050749
v -0.019277 0.017999 -0.043394
v -0.019277 0.018928 -0.034170
v -0.013935 0.018613 -0.026600
v -0.005290 0.017174 -0.023576
v 0.003355 0.015162 -0.026253
v 0.008697 0.013344 -0.033608
v 0.008697 0.012416 -0.042832
v 0.003355 0.012731 -0.050401
v -0.005290 0.026352 -0.049033
v -0.014057 0.023655 -0.047688
v -0.019475 0.017909 -0.042833
v -0.019475 0.011309 -0.036324
v -0.014057 0.006375 -0.030646
v -0.005290 0.004992 -0.027968
v 0.003477 0.007688 -0.029314
v 0.008895 0.013434 -0.034169
v 0.008895 0.020035 -0.040678
v 0.003477 0.024969 -0.046356
v -0.008136 0.045085 -0.030038
v -0.016903 0.042388 -0.028692
v -0.022322 0.036642 -0.023838
v -0.022322 0.030042 -0.017328
v -0.016903 0.025108 -0.011650
v -0.008136 0.023725 -0.008973
v 0.000631 0.026421 -0.010318
v 0.006049 0.032167 -0.015173
v 0.006049 0.038768 -0.021683
v 0.000631 0.043702 -0.027360
v -0.030481 0.069298 0.056321
v -0.039263 0.071681 0.054551
v -0.044691 0.076697 0.048954
v -0.044691 0.082430 0.041670
v -0.039263 0.086692 0.035479
v -0.030481 0.087853 0.032748
v -0.021698 0.085471 0.034518
v -0.016270 0.080455 0.040115
v -0.016270 0.074721 0.047399
v -0.021698 0.070460 0.053590
v -0.037896 0.003428 0.004474
v -0.046678 0.005810 0.002703
v -0.052106 0.010826 -0.002893
v -0.052106 0.016560 -0.010178
v -0.046678 0.020821 -0.016368
v -0.037896 0.021983 -0.019100
v -0.029113 0.019601 -0.017329
v -0.023685 0.014585 -0.011733
v -0.023685 0.008851 -0.004448
v -0.029113 0.004589 0.001742
v -0.037896 -0.001331 -0.002025
v -0.046254 0.000360 -0.005660
v -0.051420 0.006767 -0.009927
v -0.051420 0.015442 -0.013196
v -0.046254 0.023072 -0.014218
v -0.037896 0.026742 -0.012602
v -0.029537 0.025051 -0.008966
v -0.024372 0.018644 -0.004699
v -0.024372 0.009969 -0.001430
v -0.029537 0.002339 -0.000409
v -0.029802 -0.009832 -0.024585
v -0.038161 -0.008140 -0.028221
v -0.043326 -0.001733 -0.032488
v -0.043326 0.006942 -0.035756
v -0.038161 0.014572 -0.036778
v -0.029802 0.018242 -0.035162
v -0.021444 0.016550 -0.031526
v -0.016278 0.010143 -0.027259
v -0.016278 0.001468 -0.023991
v -0.021444 -0.006161 -0.022969
v -0.029802 -0.003727 -0.042605
v -0.037771 0.000990 -0.042169
v -0.042695 0.006936 -0.037037
v -0.042695 0.011839 -0.029169
v -0.037771 0.013825 -0.021570
v -0.029802 0.012138 -0.017143
v -0.021834 0.007420 -0.017578
v -0.016909 0.001474 -0.022711
v -0.016909 -0.003428 -0.030579
v -0.021834 -0.005415 -0.038178
v -0.021440 0.011259 -0.051942
v -0.029408 0.015977 -0.051507
v -0.034333 0.021923 -0.046375
v -0.034333 0.026825 -0.038506
v -0.029408 0.028812 -0.030908
v -0.021440 0.027124 -0.026481
v -0.013472 0.022406 -0.026916
v -0.008547 0.016461 -0.032048
v -0.008547 0.011558 -0.039917
v -0.013472 0.009571 -0.047515
v -0.021440 0.028400 -0.051053
v -0.030256 0.026735 -0.048719
v -0.035704 0.022188 -0.042753
v -0.035704 0.016498 -0.035435
v -0.030256 0.011836 -0.029559
v -0.021440 0.009984 -0.027370
v -0.012624 0.011649 -0.029704
v -0.007175 0.016195 -0.035670
v -0.007175 0.021886 -0.042988
v -0.012624 0.026548 -0.048864
v -0.021178 0.043823 -0.039060
v -0.029994 0.042158 -0.036725
v -0.035442 0.037611 -0.030760
v -0.035442 0.031921 -0.023442
v -0.029994 0.027259 -0.017566
v -0.021178 0.025407 -0.015377
v -0.012362 0.027072 -0.017711
v -0.006913 0.031618 -0.023677
v -0.006913 0.037309 -0.030995
v -0.012362 0.041971 -0.036871
f 1 2 13
f 2 14 13
f 2 3 14
f 3 15 14
f 3 4 15
f 4 16 15
f 4 5 16
f 5 17 16
f 5 6 17
f 6 18 17
f 6 7 18
f 7 19 18
f 7 8 19
f 8 20 19
f 8 9 20
f 9 21 20
f 9 10 21
f 10 22 21
f 10 11 22
f 11 23 22
f 11 12 23
f 12 24 23
f 13 14 25
f 14 26 25
f 14 15 26
f 15 27 26
f 15 16 27
f 16 28 27
f 16 17 28
f 17 29 28
f 17 18 29
f 18 30 29
f 18 19 30
f 19 31 30
f 19 20 31
f 20 32 31
f 20 21 32
f 21 33 32
f 21 22 33
f 22 34 33
f 22 23 34
f 23 35 34
f 23 24 35
f 24 36 35
f 25 26 37
f 26 38 37
f 26 27 38
f 27 39 38
f 27 28 39
f 28 40 39
f 28 29 40
f 29 41 40
f 29 30 41
f 30 42 41
f 30 31 42
f 31 43 42
f 31 32 43
f 32 44 43
f 32 33 44
f 33 45 44
f 33 34 45
f 34 46 45
f 34 35 46
f 35 47 46
f 35 36 47
f 36 48 47
f 37 38 49
f 38 50 49
f 38 39 50
f 39 51 50
f 39 40 51
f 40 52 51
f 40 41 52
f 41 53 52
f 41 42 53
f 42 54 53
f 42 43 54
f 43 55 54
f 43 44 55
f 44 56 55
f 44 45 56
f 45 57 56
f 45 46 57
f 46 58 57
f 46 47 58
f 47 59 58
f 47 48 59
f 48 60 59
f 49 50 61
f 50 62 61
f 50 51 62
f 51 63 62
f 51 52 63
f 52 64 63
f 52 53 64
f 53 65 64
f 53 54 65
f 54 66 65
f 54 55 66
f 55 67 66
f 55 56 67
f 56 68 67
f 56 57 68
f 57 69 68
f 57 58 69
f 58 70 69
f 58 59 70
f 59 71 70
f 59 60 71
f 60 72 71
f 61 62 73
f 62 74 73
f 62 63 74
f 63 75 74
f 63 64 75
f 64 76 75
f 64 65 76
f 65 77 76
f 65 66 77
f 66 78 77
f 66 67 78
f 67 79 78
f 67 68 79
f 68 80 79
f 68 69 80
f 69 81 80
f 69 70 81
f 70 82 81
f 70 71 82
f 71 83 82
f 71 72 83
f 72 84 83
f 73 74 85
f 74 86 85
f 74 75 86
f 75 87 86
f 75 76 87
f 76 88 87
f 76 77 88
f 77 89 88
f 77 78 89
f 78 90 89
f 78 79 90
f 79 91 90
f 79 80 91
f 80 92 91
f 80 81 92
f 81 93 92
f 81 82 93
f 82 94 93
f 82 83 94
f 83 95 94
f 83 84 95
f 84 96 95
f 85 86 97
f 86 98 97
f 86 87 98
f 87 99 98
f 87 88 99
f 88 100 99
f 88 89 100
f 89 101 100
f 89 90 101
f 90 102 101
f 90 91 102
f 91 103 102
f 91 92 103
f 92 104 103
f 92 93 104
f 93 105 104
f 93 94 105
f 94 106 105
f 94 95 106
f 95 107 106
f 95 96 107
f 96 108 107
f 97 98 109
f 98 110 109
f 98 99 110
f 99 111 110
f 99 100 111
f 100 112 111
f 100 101 112
f 101 113 112
f 101 102 113
f 102 114 113
f 102 103 114
f 103 115 114
f 103 104 115
f 104 116 115
f 104 105 116
f 105 117 116
f 105 106 117
f 106 118 117
f 106 107 118
f 107 119 118
f 107 108 119
f 108 120 119
f 109 110 121
f 110 122 121
f 110 111 122
f 111 123 122
f 111 112 123
f 112 124 123
f 112 113 124
f 113 125 124
f 113 114 125
f 114 126 125
f 114 115 126
f 115 127 126
f 115 116 127
f 116 128 127
f 116 117 128
f 117 129 128
f 117 118 129
f 118 130 129
f 118 119 130
f 119 131 130
f 119 120 131
f 120 132 131
f 121 122 133
f 122 134 133
f 122 123 134
f 123 135 134
f 123 124 135
f 124 136 135
f 124 125 136
f 125 137 136
f 125 126 137
f 126 138 137
f 126 127 138
f 127 139 138
f 127 128 139
f 128 140 139
f 128 129 140
f 129 141 140
f 129 130 141
f 130 142 141
f 130 131 142
f 131 143 142
f 131 132 143
f 132 144 143
f 145 146 155
f 146 156 155
f 146 147 156
f 147 157 156
f 147 148 157
f 148 158 157
f 148 149 158
f 149 159 158
f 149 150 159
f 150 160 159
f 150 151 160
f 151 161 160
f 151 152 161
f 152 162 161
f 152 153 162
f 153 163 162
f 153 154 163
f 154 164 163
f 154 145 164
f 145 155 164
f 165 166 175
f 166 176 175
f 166 167 176
f 167 177 176
f 167 168 177
f 168 178 177
f 168 169 178
f 169 179 178
f 169 170 179
f 170 180 179
f 170 171 180
f 171 181 180
f 171 172 181
f 172 182 181
f 172 173 182
f 173 183 182
f 173 174 183
f 174 184 183
f 174 165 184
f 165 175 184
f 185 186 195
f 186 196 195
f 186 187 196
f 187 197 196
f 187 188 197
f 188 198 197
f 188 189 198
f 189 199 198
f 189 190 199
f 190 200 199
f 190 191 200
f 191 201 200
f 191 192 201
f 192 202 201
f 192 193 202
f 193 203 202
f 193 194 203
f 194 204 203
f 194 185 204
f 185 195 204
f 205 206 215
f 206 216 215
f 206 207 216
f 207 217 216
f 207 208 217
f 208 218 217
f 208 209 218
f 209 219 218
f 209 210 219
f 210 220 219
f 210 211 220
f 211 221 220
f 211 212 221
f 212 222 221
f 212 213 222
f 213 223 222
f 213 214 223
f 214 224 223
f 214 205 224
f 205 215 224
f 225 226 235
f 226 236 235
f 226 227 236
f 227 237 236
f 227 228 237
f 228 238 237
f 228 229 238
f 229 239 238
f 229 230 239
f 230 240 239
f 230 231 240
f 231 241 240
f 231 232 241
f 232 242 241
f 232 233 242
f 233 243 242
f 233 234 243
f 234 244 243
f 234 225 244
f 225 235 244
f 245 246 255
f 246 256 255
f 246 247 256
f 247 257 256
f 247 248 257
f 248 258 257
f 248 249 258
f 249 259 258
f 249 250 259
f 250 260 259
f 250 251 260
f 251 261 260
f 251 252 261
f 252 262 261
f 252 253 262
f 253 263 262
f 253 254 263
f 254 264 263
f 254 245 264
f 245 255 264
f 265 266 275
f 266 276 275
f 266 267 276
f 267 277 276
f 267 268 277
f 268 278 277
f 268 269 278
f 269 279 278
f 269 270 279
f 270 280 279
f 270 271 280
f 271 281 280
f 271 272 281
f 272 282 281
f 272 273 282
f 273 283 282
f 273 274 283
f 274 284 283
f 274 265 284
f 265 275 284
f 285 286 295
f 286 296 295
f 286 287 296
f 287 297 296
f 287 288 297
f 288 298 297
f 288 289 298
f 289 299 298
f 289 290 299
f 290 300 299
f 290 291 300
f 291 301 300
f 291 292 301
f 292 302 301
f 292 293 302
f 293 303 302
f 293 294 303
f 294 304 303
f 294 285 304
f 285 295 304
f 305 306 315
f 306 316 315
f 306 307 316
f 307 317 316
f 307 308 317
f 308 318 317
f 308 309 318
f 309 319 318
f 309 310 319
f 310 320 319
f 310 311 320
f 311 321 320
f 311 312 321
f 312 322 321
f 312 313 322
f 313 323 322
f 313 314 323
f 314 324 323
f 314 305 324
f 305 315 324
f 325 326 335
f 326 336 335
f 326 327 336
f 327 337 336
f 327 328 337
f 328 338 337
f 328 329 338
f 329 339 338
f 329 330 339
f 330 340 339
f 330 331 340
f 331 341 340
f 331 332 341
f 332 342 341
f 332 333 342
f 333 343 342
f 333 334 343
f 334 344 343
f 334 325 344
f 325 335 344
f 345 346 355
f 346 356 355
f 346 347 356
f 347 357 356
f 347 348 357
f 348 358 357
f 348 349 358
f 349 359 358
f 349 350 359
f 350 360 359
f 350 351 360
f 351 361 360
f 351 352 361
f 352 362 361
f 352 353 362
f 353 363 362
f 353 354 363
f 354 364 363
f 354 345 364
f 345 355 364
f 365 366 375
f 366 376 375
f 366 367 376
f 367 377 376
f 367 368 377
f 368 378 377
f 368 369 378
f 369 379 378
f 369 370 379
f 370 380 379
f 370 371 380
f 371 381 380
f 371 372 381
f 372 382 381
f 372 373 382
f 373 383 382
f 373 374 383
f 374 384 383
f 374 365 384
f 365 375 384
f 385 386 395
f 386 396 395
f 386 387 396
f 387 397 396
f 387 388 397
f 388 398 397
f 388 389 398
f 389 399 398
f 389 390 399
f 390 400 399
f 390 391 400
f 391 401 400
f 391 392 401
f 392 402 401
f 392 393 402
f 393 403 402
f 393 394 403
f 394 404 403
f 394 385 404
f 385 395 404
f 405 406 415
f 406 416 415
f 406 407 416
f 407 417 416
f 407 408 417
f 408 418 417
f 408 409 418
f 409 419 418
f 409 410 419
f 410 420 419
f 410 411 420
f 411 421 420
f 411 412 421
f 412 422 421
f 412 413 422
f 413 423 422
f 413 414 423
f 414 424 423
f 414 405 424
f 405 415 424
f 425 426 435
f 426 436 435
f 426 427 436
f 427 437 436
f 427 428 437
f 428 438 437
f 428 429 438
f 429 439 438
f 429 430 439
f 430 440 439
f 430 431 440
f 431 441 440
f 431 432 441
f 432 442 441
f 432 433 442
f 433 443 442
f 433 434 443
f 434 444 443
f 434 425 444
f 425 435 444
f 445 446 455
f 446 456 455
f 446 447 456
f 447 457 456
f 447 448 457
f 448 458 457
f 448 449 458
f 449 459 458
f 449 450 459
f 450 460 459
f 450 451 460
f 451 461 460
f 451 452 461
f 452 462 461
f 452 453 462
f 453 463 462
f 453 454 463
f 454 464 463
f 454 445 464
f 445 455 464
f 465 466 475
f 466 476 475
f 466 467 476
f 467 477 476
f 467 468 477
f 468 478 477
f 468 469 478
f 469 479 478
f 469 470 479
f 470 480 479
f 470 471 480
f 471 481 480
f 471 472 481
f 472 482 481
f 472 473 482
f 473 483 482
f 473 474 483
f 474 484 483
f 474 465 484
f 465 475 484
f 485 486 495
f 486 496 495
f 486 487 496
f 487 497 496
f 487 488 497
f 488 498 497
f 488 489 498
f 489 499 498
f 489 490 499
f 490 500 499
f 490 491 500
f 491 501 500
f 491 492 501
f 492 502 501
f 492 493 502
f 493 503 502
f 493 494 503
f 494 504 503
f 494 485 504
f 485 495 504
f 505 506 515
f 506 516 515
f 506 507 516
f 507 517 516
f 507 508 517
f 508 518 517
f 508 509 518
f 509 519 518
f 509 510 519
f 510 520 519
f 510 511 520
f 511 521 520
f 511 512 521
f 512 522 521
f 512 513 522
f 513 523 522
f 513 514 523
f 514 524 523
f 514 505 524
f 505 515 524
f 525 526 535
f 526 536 535
f 526 527 536
f 527 537 536
f 527 528 537
f 528 538 537
f 528 529 538
f 529 539 538
f 529 530 539
f 530 540 539
f 530 531 540
f 531 541 540
f 531 532 541
f 532 542 541
f 532 533 542
f 533 543 542
f 533 534 543
f 534 544 543
f 534 525 544
f 525 535 544
f 545 546 555
f 546 556 555
f 546 547 556
f 547 557 556
f 547 548 557
f 548 558 557
f 548 549 558
f 549 559 558
f 549 550 559
f 550 560 559
f 550 551 560
f 551 561 560
f 551 552 561
f 552 562 561
f 552 553 562
f 553 563 562
f 553 554 563
f 554 564 563
f 554 545 564
f 545 555 564
f 565 566 575
f 566 576 575
f 566 567 576
f 567 577 576
f 567 568 577
f 568 578 577
f 568 569 578
f 569 579 578
f 569 570 579
f 570 580 579
f 570 571 580
f 571 581 580
f 571 572 581
f 572 582 581
f 572 573 582
f 573 583 582
f 573 574 583
f 574 584 583
f 574 565 584
f 565 575 584
f 585 586 595
f 586 596 595
f 586 587 596
f 587 597 596
f 587 588 597
f 588 598 597
f 588 589 598
f 589 599 598
f 589 590 599
f 590 600 599
f 590 591 600
f 591 601 600
f 591 592 601
f 592 602 601
f 592 593 602
f 593 603 602
f 593 594 603
f 594 604 603
f 594 585 604
f 585 595 604
f 605 606 615
f 606 616 615
f 606 607 616
f 607 617 616
f 607 608 617
f 608 618 617
f 608 609 618
f 609 619 618
f 609 610 619
f 610 620 619
f 610 611 620
f 611 621 620
f 611 612 621
f 612 622 621
f 612 613 622
f 613 623 622
f 613 614 623
f 614 624 623
f 614 605 624
f 605 615 624
f 625 626 635
f 626 636 635
f 626 627 636
f 627 637 636
f 627 628 637
f 628 638 637
f 628 629 638
f 629 639 638
f 629 630 639
f 630 640 639
f 630 631 640
f 631 641 640
f 631 632 641
f 632 642 641
f 632 633 642
f 633 643 642
f 633 634 643
f 634 644 643
f 634 625 644
f 625 635 644
f 645 646 655
f 646 656 655
f 646 647 656
f 647 657 656
f 647 648 657
f 648 658 657
f 648 649 658
f 649 659 658
f 649 650 659
f 650 660 659
f 650 651 660
f 651 661 660
f 651 652 661
f 652 662 661
f 652 653 662
f 653 663 662
f 653 654 663
f 654 664 663
f 654 645 664
f 645 655 664
f 665 666 675
f 666 676 675
f 666 667 676
f 667 677 676
f 667 668 677
f 668 678 677
f 668 669 678
f 669 679 678
f 669 670 679
f 670 680 679
f 670 671 680
f 671 681 680
f 671 672 681
f 672 682 681
f 672 673 682
f 673 683 682
f 673 674 683
f 674 684 683
f 674 665 684
f 665 675 684
f 685 686 695
f 686 696 695
f 686 687 696
f 687 697 696
f 687 688 697
f 688 698 697
f 688 689 698
f 689 699 698
f 689 690 699
f 690 700 699
f 690 691 700
f 691 701 700
f 691 692 701
f 692 702 701
f 692 693 702
f 693 703 702
f 693 694 703
f 694 704 703
f 694 685 704
f 685 695 704
f 705 706 715
f 706 716 715
f 706 707 716
f 707 717 716
f 707 708 717
f 708 718 717
f 708 709 718
f 709 719 718
f 709 710 719
f 710 720 719
f 710 711 720
f 711 721 720
f 711 712 721
f 712 722 721
f 712 713 722
f 713 723 722
f 713 714 723
f 714 724 723
f 714 705 724
f 705 715 724
f 725 726 735
f 726 736 735
f 726 727 736
f 727 737 736
f 727 728 737
f 728 738 737
f 728 729 738
f 729 739 738
f 729 730 739
f 730 740 739
f 730 731 740
f 731 741 740
f 731 732 741
f 732 742 741
f 732 733 742
f 733 743 742
f 733 734 743
f 734 744 743
f 734 725 744
f 725 735 744
f 745 746 755
f 746 756 755
f 746 747 756
f 747 757 756
f 747 748 757
f 748 758 757
f 748 749 758
f 749 759 758
f 749 750 759
f 750 760 759
f 750 751 760
f 751 761 760
f 751 752 761
f 752 762 761
f 752 753 762
f 753 763 762
f 753 754 763
f 754 764 763
f 754 745 764
f 745 755 764
f 765 766 775
f 766 776 775
f 766 767 776
f 767 777 776
f 767 768 777
f 768 778 777
f 768 769 778
f 769 779 778
f 769 770 779
f 770 780 779
f 770 771 780
f 771 781 780
f 771 772 781
f 772 782 781
f 772 773 782
f 773 783 782
f 773 774 783
f 774 784 783
f 774 765 784
f 765 775 784
