# Full-Body 3D Mesh - Frame 167
v 0.037285 -0.624027 -0.120442
v 0.071093 -0.624027 -0.125303
v 0.102162 -0.624027 -0.139491
v 0.127975 -0.624027 -0.161859
v 0.146441 -0.624027 -0.190592
v 0.156063 -0.624027 -0.223364
v 0.156063 -0.624027 -0.257520
v 0.146441 -0.624027 -0.290292
v 0.127975 -0.624027 -0.319025
v 0.102162 -0.624027 -0.341392
v 0.071093 -0.624027 -0.355581
v 0.037285 -0.624027 -0.360442
v 0.037285 -0.624027 -0.120442
v 0.065726 -0.605749 -0.125303
v 0.091863 -0.588952 -0.139491
v 0.113578 -0.574996 -0.161859
v 0.129112 -0.565013 -0.190592
v 0.137208 -0.559810 -0.223364
v 0.137208 -0.559810 -0.257520
v 0.129112 -0.565013 -0.290292
v 0.113578 -0.574996 -0.319025
v 0.091863 -0.588952 -0.341392
v 0.065726 -0.605749 -0.355581
v 0.037285 -0.624027 -0.360442
v 0.037285 -0.624027 -0.120442
v 0.051329 -0.593274 -0.125303
v 0.064236 -0.565013 -0.139491
v 0.074959 -0.541532 -0.161859
v 0.082630 -0.524735 -0.190592
v 0.086627 -0.515982 -0.223364
v 0.086627 -0.515982 -0.257520
v 0.082630 -0.524735 -0.290292
v 0.074959 -0.541532 -0.319025
v 0.064236 -0.565013 -0.341392
v 0.051329 -0.593274 -0.355581
v 0.037285 -0.624027 -0.360442
v 0.037285 -0.624027 -0.120442
v 0.032473 -0.590563 -0.125303
v 0.028052 -0.559810 -0.139491
v 0.024378 -0.534260 -0.161859
v 0.021750 -0.515982 -0.190592
v 0.020381 -0.506457 -0.223364
v 0.020381 -0.506457 -0.257520
v 0.021750 -0.515982 -0.290292
v 0.024378 -0.534260 -0.319025
v 0.028052 -0.559810 -0.341392
v 0.032473 -0.590563 -0.355581
v 0.037285 -0.624027 -0.360442
v 0.037285 -0.624027 -0.120442
v 0.015145 -0.598476 -0.125303
v -0.005201 -0.574996 -0.139491
v -0.022105 -0.555488 -0.161859
v -0.034197 -0.541532 -0.190592
v -0.040499 -0.534260 -0.223364
v -0.040499 -0.534260 -0.257520
v -0.034197 -0.541532 -0.290292
v -0.022105 -0.555488 -0.319025
v -0.005201 -0.574996 -0.341392
v 0.015145 -0.598476 -0.355581
v 0.037285 -0.624027 -0.360442
v 0.037285 -0.624027 -0.120442
v 0.004846 -0.614502 -0.125303
v -0.024964 -0.605749 -0.139491
v -0.049732 -0.598476 -0.161859
v -0.067450 -0.593274 -0.190592
v -0.076682 -0.590563 -0.223364
v -0.076682 -0.590563 -0.257520
v -0.067450 -0.593274 -0.290292
v -0.049732 -0.598476 -0.319025
v -0.024964 -0.605749 -0.341392
v 0.004846 -0.614502 -0.355581
v 0.037285 -0.624027 -0.360442
v 0.037285 -0.624027 -0.120442
v 0.004846 -0.633551 -0.125303
v -0.024964 -0.642305 -0.139491
v -0.049732 -0.649577 -0.161859
v -0.067450 -0.654779 -0.190592
v -0.076682 -0.657490 -0.223364
v -0.076682 -0.657490 -0.257520
v -0.067450 -0.654779 -0.290292
v -0.049732 -0.649577 -0.319025
v -0.024964 -0.642305 -0.341392
v 0.004846 -0.633551 -0.355581
v 0.037285 -0.624027 -0.360442
v 0.037285 -0.624027 -0.120442
v 0.015145 -0.649577 -0.125303
v -0.005201 -0.673057 -0.139491
v -0.022105 -0.692566 -0.161859
v -0.034197 -0.706521 -0.190592
v -0.040499 -0.713794 -0.223364
v -0.040499 -0.713794 -0.257520
v -0.034197 -0.706521 -0.290292
v -0.022105 -0.692566 -0.319025
v -0.005201 -0.673057 -0.341392
v 0.015145 -0.649577 -0.355581
v 0.037285 -0.624027 -0.360442
v 0.037285 -0.624027 -0.120442
v 0.032473 -0.657490 -0.125303
v 0.028052 -0.688243 -0.139491
v 0.024378 -0.713794 -0.161859
v 0.021750 -0.732072 -0.190592
v 0.020381 -0.741596 -0.223364
v 0.020381 -0.741596 -0.257520
v 0.021750 -0.732072 -0.290292
v 0.024378 -0.713794 -0.319025
v 0.028052 -0.688243 -0.341392
v 0.032473 -0.657490 -0.355581
v 0.037285 -0.624027 -0.360442
v 0.037285 -0.624027 -0.120442
v 0.051329 -0.654779 -0.125303
v 0.064236 -0.683041 -0.139491
v 0.074959 -0.706521 -0.161859
v 0.082630 -0.723318 -0.190592
v 0.086627 -0.732072 -0.223364
v 0.086627 -0.732072 -0.257520
v 0.082630 -0.723318 -0.290292
v 0.074959 -0.706521 -0.319025
v 0.064236 -0.683041 -0.341392
v 0.051329 -0.654779 -0.355581
v 0.037285 -0.624027 -0.360442
v 0.037285 -0.624027 -0.120442
v 0.065726 -0.642305 -0.125303
v 0.091863 -0.659102 -0.139491
v 0.113578 -0.673057 -0.161859
v 0.129112 -0.683041 -0.190592
v 0.137208 -0.688243 -0.223364
v 0.137208 -0.688243 -0.257520
v 0.129112 -0.683041 -0.290292
v 0.113578 -0.673057 -0.319025
v 0.091863 -0.659102 -0.341392
v 0.065726 -0.642305 -0.355581
v 0.037285 -0.624027 -0.360442
v 0.037285 -0.624027 -0.120442
v 0.071093 -0.624027 -0.125303
v 0.102162 -0.624027 -0.139491
v 0.127975 -0.624027 -0.161859
v 0.146441 -0.624027 -0.190592
v 0.156063 -0.624027 -0.223364
v 0.156063 -0.624027 -0.257520
v 0.146441 -0.624027 -0.290292
v 0.127975 -0.624027 -0.319025
v 0.102162 -0.624027 -0.341392
v 0.071093 -0.624027 -0.355581
v 0.037285 -0.624027 -0.360442
v 0.186709 -0.443649 -0.062287
v 0.185502 -0.467159 -0.054739
v 0.182832 -0.481689 -0.034918
v 0.179717 -0.481689 -0.010393
v 0.177348 -0.467159 0.009466
v 0.176629 -0.443649 0.017076
v 0.177835 -0.420139 0.009528
v 0.180506 -0.405609 -0.010293
v 0.183621 -0.405609 -0.034818
v 0.185990 -0.420139 -0.054677
v -0.152935 -0.440070 -0.105425
v -0.154142 -0.463581 -0.097877
v -0.156812 -0.478111 -0.078056
v -0.159927 -0.478111 -0.053532
v -0.162296 -0.463581 -0.033672
v -0.163015 -0.440070 -0.026062
v -0.161809 -0.416560 -0.033610
v -0.159138 -0.402030 -0.053431
v -0.156023 -0.402030 -0.077956
v -0.153654 -0.416560 -0.097816
v 0.181669 -0.452612 -0.061588
v 0.158771 -0.445701 -0.055339
v 0.144619 -0.438006 -0.036586
v 0.144619 -0.432466 -0.012493
v 0.158771 -0.431198 0.007737
v 0.181669 -0.434686 0.016377
v 0.204567 -0.441597 0.010128
v 0.218719 -0.449292 -0.008625
v 0.218719 -0.454832 -0.032717
v 0.204567 -0.456100 -0.052948
v 0.234216 -0.232819 -0.112123
v 0.211318 -0.225907 -0.105874
v 0.197166 -0.218212 -0.087121
v 0.197166 -0.212673 -0.063028
v 0.211318 -0.211405 -0.042798
v 0.234216 -0.214893 -0.034158
v 0.257114 -0.221804 -0.040407
v 0.271266 -0.229499 -0.059160
v 0.271266 -0.235038 -0.083253
v 0.257114 -0.236306 -0.103483
v 0.234216 -0.262681 -0.082765
v 0.214124 -0.258204 -0.069075
v 0.201706 -0.240607 -0.056938
v 0.201706 -0.216612 -0.050990
v 0.214124 -0.195384 -0.053502
v 0.234216 -0.185031 -0.063516
v 0.254308 -0.189508 -0.077206
v 0.266725 -0.207104 -0.089343
v 0.266725 -0.231099 -0.095291
v 0.254308 -0.252328 -0.092779
v 0.128767 -0.220932 -0.251180
v 0.108675 -0.216455 -0.237490
v 0.096257 -0.198858 -0.225352
v 0.096257 -0.174863 -0.219404
v 0.108675 -0.153635 -0.221917
v 0.128767 -0.143282 -0.231931
v 0.148859 -0.147759 -0.245621
v 0.161276 -0.165355 -0.257758
v 0.161276 -0.189351 -0.263706
v 0.148859 -0.210579 -0.261193
v -0.157975 -0.462627 -0.098777
v -0.180167 -0.464733 -0.088088
v -0.193882 -0.457419 -0.068865
v -0.193882 -0.443479 -0.048449
v -0.180167 -0.428236 -0.034639
v -0.157975 -0.417514 -0.032710
v -0.135784 -0.415407 -0.043399
v -0.122069 -0.422722 -0.062623
v -0.122069 -0.436662 -0.083039
v -0.135784 -0.451905 -0.096848
v -0.245435 -0.256265 -0.239689
v -0.267627 -0.258372 -0.229001
v -0.281342 -0.251058 -0.209777
v -0.281342 -0.237117 -0.189361
v -0.267627 -0.221875 -0.175552
v -0.245435 -0.211152 -0.173623
v -0.223244 -0.209046 -0.184312
v -0.209529 -0.216360 -0.203535
v -0.209529 -0.230301 -0.223951
v -0.223244 -0.245543 -0.237761
v -0.245435 -0.270718 -0.191479
v -0.264698 -0.268765 -0.206851
v -0.276603 -0.253421 -0.222148
v -0.276603 -0.230548 -0.231527
v -0.264698 -0.208883 -0.231407
v -0.245435 -0.196700 -0.221833
v -0.226172 -0.198653 -0.206462
v -0.214267 -0.213996 -0.191165
v -0.214267 -0.236869 -0.181785
v -0.226172 -0.258535 -0.181905
v -0.088707 -0.355688 -0.398683
v -0.107970 -0.353735 -0.414054
v -0.119875 -0.338392 -0.429351
v -0.119875 -0.315519 -0.438731
v -0.107970 -0.293853 -0.438611
v -0.088707 -0.281670 -0.429036
v -0.069444 -0.283624 -0.413665
v -0.057539 -0.298967 -0.398368
v -0.057539 -0.321840 -0.388989
v -0.069444 -0.343505 -0.389109
v 0.181669 -0.439595 -0.062399
v 0.158350 -0.443359 -0.055104
v 0.143938 -0.447233 -0.035395
v 0.143938 -0.449739 -0.010801
v 0.158350 -0.449918 0.009284
v 0.181669 -0.447703 0.017189
v 0.204987 -0.443940 0.009893
v 0.219399 -0.440065 -0.009816
v 0.219399 -0.437559 -0.034410
v 0.204987 -0.437380 -0.054495
v 0.124473 0.001973 -0.017412
v 0.101155 -0.001791 -0.010117
v 0.086743 -0.005665 0.009592
v 0.086743 -0.008171 0.034186
v 0.101155 -0.008351 0.054271
v 0.124473 -0.006136 0.062176
v 0.147792 -0.002372 0.054880
v 0.162204 0.001503 0.035171
v 0.162204 0.004008 0.010577
v 0.147792 0.004188 -0.009508
v -0.157975 -0.435816 -0.105517
v -0.181415 -0.434809 -0.097726
v -0.195902 -0.435812 -0.077719
v -0.195902 -0.438441 -0.053138
v -0.181415 -0.441693 -0.033372
v -0.157975 -0.444325 -0.025971
v -0.134535 -0.445332 -0.033761
v -0.120048 -0.444329 -0.053768
v -0.120048 -0.441700 -0.078349
v -0.134535 -0.438448 -0.098115
v -0.124453 -0.008846 -0.059842
v -0.147893 -0.007839 -0.052051
v -0.162380 -0.008842 -0.032044
v -0.162380 -0.011471 -0.007463
v -0.147893 -0.014723 0.012303
v -0.124453 -0.017355 0.019704
v -0.101013 -0.018362 0.011914
v -0.086526 -0.017360 -0.008093
v -0.086526 -0.014730 -0.032674
v -0.101013 -0.011478 -0.052440
v 0.131198 -0.002081 -0.017049
v 0.130924 -0.025570 -0.009346
v 0.128186 -0.040087 0.010476
v 0.124030 -0.040087 0.034845
v 0.120044 -0.025570 0.054454
v 0.117749 -0.002081 0.061812
v 0.118023 0.021408 0.054109
v 0.120761 0.035925 0.034288
v 0.124916 0.035925 0.009918
v 0.128903 0.021408 -0.009691
v -0.117729 -0.013101 -0.059499
v -0.118003 -0.036590 -0.051797
v -0.120740 -0.051107 -0.031975
v -0.124896 -0.051107 -0.007605
v -0.128883 -0.036590 0.012004
v -0.131177 -0.013101 0.019362
v -0.130904 0.010388 0.011659
v -0.128166 0.024905 -0.008163
v -0.124010 0.024905 -0.032532
v -0.120023 0.010388 -0.052141
v 0.124473 -0.024317 -0.010868
v 0.101090 -0.018032 -0.005881
v 0.086639 -0.005654 0.009901
v 0.086639 0.008088 0.030451
v 0.101090 0.017947 0.047918
v 0.124473 0.020155 0.055631
v 0.147857 0.013870 0.050645
v 0.162308 0.001492 0.034862
v 0.162308 -0.012251 0.014313
v 0.147857 -0.022109 -0.003155
v 0.145742 0.144259 -0.123605
v 0.122358 0.150544 -0.118619
v 0.107907 0.162922 -0.102836
v 0.107907 0.176665 -0.082287
v 0.122358 0.186523 -0.064819
v 0.145742 0.188731 -0.057106
v 0.169125 0.182446 -0.062093
v 0.183576 0.170068 -0.077875
v 0.183576 0.156326 -0.098425
v 0.169125 0.146467 -0.115892
v 0.145742 0.184600 -0.126024
v 0.122399 0.183653 -0.117937
v 0.107973 0.176152 -0.099316
v 0.107973 0.164963 -0.077271
v 0.122399 0.154359 -0.060225
v 0.145742 0.148391 -0.054687
v 0.169084 0.149337 -0.062774
v 0.183510 0.156838 -0.081396
v 0.183510 0.168027 -0.103440
v 0.169084 0.178631 -0.120486
v 0.178220 0.424684 -0.004161
v 0.154878 0.423737 0.003925
v 0.140452 0.416237 0.022547
v 0.140452 0.405047 0.044591
v 0.154878 0.394443 0.061638
v 0.178220 0.388475 0.067175
v 0.201563 0.389422 0.059089
v 0.215989 0.396922 0.040467
v 0.215989 0.408111 0.018423
v 0.201563 0.418715 0.001376
v -0.124453 -0.052919 -0.023876
v -0.146948 -0.044664 -0.029957
v -0.160850 -0.024352 -0.032261
v -0.160850 0.000257 -0.029908
v -0.146948 0.019764 -0.023797
v -0.124453 0.026718 -0.016262
v -0.101958 0.018462 -0.010180
v -0.088056 -0.001849 -0.007876
v -0.088056 -0.026459 -0.010229
v -0.101958 -0.045965 -0.016341
v -0.067602 -0.035122 -0.210012
v -0.090097 -0.026866 -0.216093
v -0.103999 -0.006555 -0.218397
v -0.103999 0.018054 -0.216044
v -0.090097 0.037561 -0.209933
v -0.067602 0.044515 -0.202397
v -0.045107 0.036259 -0.196316
v -0.031205 0.015948 -0.194012
v -0.031205 -0.008661 -0.196365
v -0.045107 -0.028168 -0.202476
v -0.067602 0.001326 -0.246062
v -0.091107 0.002512 -0.238496
v -0.105634 0.004533 -0.218595
v -0.105634 0.006616 -0.193962
v -0.091107 0.007966 -0.174005
v -0.067602 0.008067 -0.166347
v -0.044097 0.006881 -0.173913
v -0.029570 0.004860 -0.193814
v -0.029570 0.002777 -0.218447
v -0.044097 0.001427 -0.238404
v -0.061363 0.269774 -0.268763
v -0.084868 0.270960 -0.261197
v -0.099395 0.272981 -0.241297
v -0.099395 0.275064 -0.216663
v -0.084868 0.276414 -0.196706
v -0.061363 0.276515 -0.189048
v -0.037857 0.275329 -0.196614
v -0.023330 0.273308 -0.216515
v -0.023330 0.271225 -0.241148
v -0.037857 0.269875 -0.261105
v -0.063276 0.052689 0.041330
v -0.064086 0.043881 0.038553
v -0.065413 0.038438 0.031167
v -0.066749 0.038438 0.021994
v -0.067584 0.043881 0.014536
v -0.067599 0.052689 0.011643
v -0.066788 0.061497 0.014420
v -0.065462 0.066940 0.021806
v -0.064126 0.066940 0.030980
v -0.063291 0.061497 0.038438
v -0.023768 0.050867 0.035577
v -0.024578 0.042060 0.032800
v -0.025905 0.036616 0.025414
v -0.027241 0.036616 0.016241
v -0.028076 0.042060 0.008783
v -0.028091 0.050867 0.005890
v -0.027280 0.059675 0.008667
v -0.025954 0.065118 0.016053
v -0.024618 0.065118 0.025227
v -0.023783 0.059675 0.032684
v -0.022154 0.050867 0.035251
v -0.024949 0.042315 0.033018
v -0.028118 0.037029 0.026092
v -0.030452 0.037029 0.017120
v -0.031057 0.042315 0.009528
v -0.029705 0.050867 0.006217
v -0.026910 0.059420 0.008450
v -0.023740 0.064705 0.015375
v -0.021407 0.064705 0.024347
v -0.020801 0.059420 0.031939
v 0.007866 0.043095 0.027444
v 0.005071 0.034543 0.025211
v 0.001902 0.029257 0.018286
v -0.000431 0.029257 0.009314
v -0.001037 0.034543 0.001722
v 0.000316 0.043095 -0.001590
v 0.003111 0.051648 0.000643
v 0.006280 0.056933 0.007568
v 0.008613 0.056933 0.016540
v 0.009219 0.051648 0.024132
v 0.004091 0.032827 0.023862
v -0.000155 0.029156 0.016484
v -0.002780 0.030808 0.007748
v -0.002780 0.037154 0.000990
v -0.000155 0.045769 -0.001209
v 0.004091 0.053363 0.001992
v 0.008337 0.057035 0.009370
v 0.010962 0.055382 0.018106
v 0.010962 0.049036 0.024864
v 0.008337 0.040421 0.027063
v 0.035206 0.020362 0.012157
v 0.030959 0.016690 0.004779
v 0.028335 0.018343 -0.003957
v 0.028335 0.024689 -0.010715
v 0.030959 0.033304 -0.012914
v 0.035206 0.040898 -0.009713
v 0.039452 0.044569 -0.002336
v 0.042076 0.042917 0.006401
v 0.042076 0.036571 0.013159
v 0.039452 0.027956 0.015357
v 0.036934 0.030630 0.016122
v 0.033388 0.022429 0.013649
v 0.030536 0.017360 0.006430
v 0.029468 0.017360 -0.002779
v 0.030592 0.022429 -0.010460
v 0.033477 0.030630 -0.013678
v 0.037023 0.038831 -0.011206
v 0.039875 0.043899 -0.003986
v 0.040943 0.043899 0.005223
v 0.039819 0.038831 0.012903
v 0.062891 0.020314 0.013111
v 0.059345 0.012114 0.010639
v 0.056494 0.007045 0.003419
v 0.055426 0.007045 -0.005790
v 0.056549 0.012114 -0.013470
v 0.059435 0.020314 -0.016689
v 0.062981 0.028515 -0.014216
v 0.065832 0.033584 -0.006997
v 0.066900 0.033584 0.002212
v 0.065777 0.028515 0.009893
v -0.065437 0.047536 0.040574
v -0.069753 0.041300 0.035242
v -0.072421 0.039414 0.026566
v -0.072421 0.042599 0.017860
v -0.069753 0.049638 0.012449
v -0.065437 0.057842 0.012400
v -0.061121 0.064078 0.017732
v -0.058454 0.065964 0.026407
v -0.058454 0.062779 0.035114
v -0.061121 0.055740 0.040525
v 0.018641 0.003209 0.024358
v 0.014325 -0.003027 0.019027
v 0.011658 -0.004913 0.010351
v 0.011658 -0.001728 0.001644
v 0.014325 0.005311 -0.003767
v 0.018641 0.013515 -0.003816
v 0.022957 0.019751 0.001516
v 0.025625 0.021637 0.010192
v 0.025625 0.018452 0.018898
v 0.022957 0.011413 0.024309
v 0.018641 -0.002713 0.020387
v 0.014773 -0.005942 0.012605
v 0.012383 -0.003706 0.003932
v 0.012383 0.003139 -0.002320
v 0.014773 0.011979 -0.003763
v 0.018641 0.019437 0.000155
v 0.022509 0.022666 0.007937
v 0.024899 0.020430 0.016611
v 0.024899 0.013585 0.022863
v 0.022509 0.004745 0.024306
v 0.047896 -0.012344 0.009843
v 0.044028 -0.015573 0.002061
v 0.041638 -0.013337 -0.006613
v 0.041638 -0.006493 -0.012865
v 0.044028 0.002348 -0.014307
v 0.047896 0.009806 -0.010389
v 0.051763 0.013034 -0.002607
v 0.054154 0.010799 0.006067
v 0.054154 0.003954 0.012319
v 0.051763 -0.004886 0.013761
v 0.047896 -0.012445 0.009732
v 0.043831 -0.015529 0.001992
v 0.041319 -0.013166 -0.006613
v 0.041319 -0.006259 -0.012797
v 0.043831 0.002554 -0.014197
v 0.047896 0.009907 -0.010278
v 0.051961 0.012991 -0.002538
v 0.054473 0.010628 0.006067
v 0.054473 0.003721 0.012251
v 0.051961 -0.005092 0.013650
v 0.065910 -0.018688 0.002759
v 0.061846 -0.021772 -0.004981
v 0.059333 -0.019409 -0.013586
v 0.059333 -0.012502 -0.019770
v 0.061846 -0.003689 -0.021170
v 0.065910 0.003664 -0.017251
v 0.069975 0.006748 -0.009511
v 0.072487 0.004386 -0.000906
v 0.072487 -0.002521 0.005277
v 0.069975 -0.011335 0.006677
v 0.065910 -0.022357 -0.005100
v 0.058134 -0.020117 -0.009623
v 0.053329 -0.013062 -0.013238
v 0.053329 -0.003886 -0.014565
v 0.058134 0.003904 -0.013096
v 0.065910 0.007334 -0.009393
v 0.073686 0.005093 -0.004870
v 0.078492 -0.001962 -0.001254
v 0.078492 -0.011137 0.000072
v 0.073686 -0.018927 -0.001397
v 0.080006 -0.026131 -0.031202
v 0.072230 -0.023891 -0.035725
v 0.067424 -0.016836 -0.039340
v 0.067424 -0.007660 -0.040667
v 0.072230 0.000130 -0.039198
v 0.080006 0.003560 -0.035495
v 0.087782 0.001319 -0.030972
v 0.092587 -0.005736 -0.027357
v 0.092587 -0.014911 -0.026030
v 0.087782 -0.022701 -0.027499
v -0.065437 0.047351 0.040505
v -0.071191 0.042127 0.035450
v -0.074746 0.040937 0.026972
v -0.074746 0.044236 0.018308
v -0.071191 0.050764 0.012769
v -0.065437 0.058027 0.012469
v -0.059684 0.063251 0.017523
v -0.056129 0.064441 0.026002
v -0.056129 0.061142 0.034666
v -0.059684 0.054614 0.040205
v 0.004003 -0.008531 0.019226
v -0.001750 -0.013755 0.014171
v -0.005305 -0.014945 0.005693
v -0.005305 -0.011646 -0.002971
v -0.001750 -0.005119 -0.008510
v 0.004003 0.002144 -0.008810
v 0.009757 0.007369 -0.003755
v 0.013312 0.008559 0.004723
v 0.013312 0.005260 0.013387
v 0.009757 -0.001268 0.018926
v 0.004003 -0.011812 0.017485
v -0.000663 -0.016288 0.010842
v -0.003548 -0.015763 0.002047
v -0.003548 -0.010436 -0.005540
v -0.000663 -0.002343 -0.009022
v 0.004003 0.005426 -0.007069
v 0.008670 0.009902 -0.000426
v 0.011555 0.009376 0.008369
v 0.011555 0.004049 0.015956
v 0.008670 -0.004044 0.019438
v 0.037166 -0.028745 0.005597
v 0.032499 -0.033222 -0.001046
v 0.029615 -0.032696 -0.009841
v 0.029615 -0.027369 -0.017428
v 0.032499 -0.019276 -0.020910
v 0.037166 -0.011508 -0.018957
v 0.041833 -0.007031 -0.012314
v 0.044717 -0.007557 -0.003519
v 0.044717 -0.012884 0.004068
v 0.041833 -0.020977 0.007550
v 0.037166 -0.032572 0.001693
v 0.031322 -0.033880 -0.005384
v 0.027710 -0.029935 -0.012955
v 0.027710 -0.022243 -0.018130
v 0.031322 -0.013743 -0.018931
v 0.037166 -0.007681 -0.015053
v 0.043010 -0.006373 -0.007977
v 0.046622 -0.010318 -0.000405
v 0.046622 -0.018010 0.004770
v 0.043010 -0.026510 0.005571
v 0.056873 -0.042310 -0.012782
v 0.051029 -0.043619 -0.019859
v 0.047417 -0.039673 -0.027430
v 0.047417 -0.031982 -0.032605
v 0.051029 -0.023481 -0.033406
v 0.056873 -0.017419 -0.029528
v 0.062718 -0.016111 -0.022452
v 0.066329 -0.020056 -0.014880
v 0.066329 -0.027748 -0.009705
v 0.062718 -0.036249 -0.008904
v 0.056873 -0.042454 -0.013000
v 0.050448 -0.043332 -0.019625
v 0.046477 -0.039066 -0.026834
v 0.046477 -0.031286 -0.031874
v 0.050448 -0.022962 -0.032820
v 0.056873 -0.017275 -0.029310
v 0.063299 -0.016397 -0.022685
v 0.067270 -0.020663 -0.015476
v 0.067270 -0.028444 -0.010436
v 0.063299 -0.036768 -0.009490
v 0.077033 -0.054119 -0.031007
v 0.070608 -0.054997 -0.037632
v 0.066637 -0.050731 -0.044841
v 0.066637 -0.042950 -0.049881
v 0.070608 -0.034626 -0.050827
v 0.077033 -0.028940 -0.047317
v 0.083459 -0.028062 -0.040692
v 0.087430 -0.032328 -0.033483
v 0.087430 -0.040108 -0.028443
v 0.083459 -0.048432 -0.027497
v -0.065437 0.045577 0.039694
v -0.072442 0.042221 0.034633
v -0.076771 0.042863 0.026460
v -0.076771 0.047258 0.018298
v -0.072442 0.053728 0.013264
v -0.065437 0.059801 0.013280
v -0.058433 0.063157 0.018341
v -0.054104 0.062515 0.026513
v -0.054104 0.058120 0.034676
v -0.058433 0.051650 0.039710
v -0.013066 -0.014744 0.007212
v -0.020070 -0.018100 0.002151
v -0.024399 -0.017458 -0.006021
v -0.024399 -0.013063 -0.014183
v -0.020070 -0.006593 -0.019218
v -0.013066 -0.000520 -0.019202
v -0.006061 0.002836 -0.014141
v -0.001732 0.002194 -0.005968
v -0.001732 -0.002201 0.002194
v -0.006061 -0.008671 0.007229
v -0.013066 -0.016051 0.006420
v -0.018356 -0.020280 0.000091
v -0.021626 -0.019679 -0.008563
v -0.021626 -0.014476 -0.016236
v -0.018356 -0.006658 -0.019997
v -0.013066 0.000787 -0.018409
v -0.007775 0.005016 -0.012080
v -0.004505 0.004415 -0.003426
v -0.004505 -0.000788 0.004247
v -0.007775 -0.008605 0.008008
v 0.013060 -0.032270 -0.004579
v 0.007769 -0.036499 -0.010908
v 0.004499 -0.035898 -0.019562
v 0.004499 -0.030695 -0.027235
v 0.007769 -0.022877 -0.030995
v 0.013060 -0.015432 -0.029408
v 0.018350 -0.011203 -0.023078
v 0.021620 -0.011804 -0.014424
v 0.021620 -0.017007 -0.006752
v 0.018350 -0.024824 -0.002991
v 0.013060 -0.035593 -0.007659
v 0.007411 -0.037563 -0.014741
v 0.003920 -0.034295 -0.022683
v 0.003920 -0.027038 -0.028452
v 0.007411 -0.018564 -0.029844
v 0.013060 -0.012109 -0.026327
v 0.018708 -0.010139 -0.019245
v 0.022199 -0.013406 -0.011303
v 0.022199 -0.020663 -0.005534
v 0.018708 -0.029138 -0.004143
v 0.031983 -0.045418 -0.020019
v 0.026334 -0.047388 -0.027101
v 0.022843 -0.044121 -0.035044
v 0.022843 -0.036864 -0.040812
v 0.026334 -0.028389 -0.042204
v 0.031983 -0.021934 -0.038687
v 0.037631 -0.019964 -0.031605
v 0.041122 -0.023232 -0.023663
v 0.041122 -0.030489 -0.017895
v 0.037631 -0.038963 -0.016503
v 0.031983 -0.045879 -0.020631
v 0.025930 -0.047277 -0.027512
v 0.022189 -0.043479 -0.035097
v 0.022189 -0.035938 -0.040488
v 0.025930 -0.027532 -0.041626
v 0.031983 -0.021473 -0.038076
v 0.038035 -0.020076 -0.031194
v 0.041776 -0.023873 -0.023610
v 0.041776 -0.031415 -0.018219
v 0.038035 -0.039821 -0.017081
v 0.052639 -0.057219 -0.036495
v 0.046587 -0.058617 -0.043377
v 0.042846 -0.054819 -0.050962
v 0.042846 -0.047278 -0.056353
v 0.046587 -0.038872 -0.057491
v 0.052639 -0.032813 -0.053941
v 0.058692 -0.031416 -0.047059
v 0.062432 -0.035213 -0.039474
v 0.062432 -0.042755 -0.034083
v 0.058692 -0.051161 -0.032946
v -0.065437 0.043763 0.038542
v -0.073486 0.042574 0.034097
v -0.078460 0.045249 0.026746
v -0.078460 0.050765 0.019295
v -0.073486 0.057017 0.014592
v -0.065437 0.061615 0.014432
v -0.057389 0.062804 0.018876
v -0.052415 0.060129 0.026228
v -0.052415 0.054612 0.033679
v -0.057389 0.048361 0.038382
v -0.034274 -0.012224 -0.002912
v -0.042322 -0.013413 -0.007357
v -0.047296 -0.010738 -0.014708
v -0.047296 -0.005222 -0.022159
v -0.042322 0.001029 -0.026862
v -0.034274 0.005628 -0.027022
v -0.026226 0.006816 -0.022578
v -0.021252 0.004142 -0.015226
v -0.021252 -0.001375 -0.007775
v -0.026226 -0.007626 -0.003072
v -0.034274 -0.011777 -0.002593
v -0.042150 -0.013426 -0.007196
v -0.047018 -0.011207 -0.014767
v -0.047018 -0.005968 -0.022415
v -0.042150 0.000292 -0.027218
v -0.034274 0.005180 -0.027341
v -0.026398 0.006830 -0.022738
v -0.021530 0.004611 -0.015167
v -0.021530 -0.000629 -0.007519
v -0.026398 -0.006888 -0.002717
v -0.025403 -0.026322 -0.012559
v -0.033279 -0.027972 -0.017162
v -0.038147 -0.025753 -0.024733
v -0.038147 -0.020513 -0.032381
v -0.033279 -0.014253 -0.037184
v -0.025403 -0.009365 -0.037307
v -0.017527 -0.007716 -0.032704
v -0.012659 -0.009934 -0.025133
v -0.012659 -0.015174 -0.017485
v -0.017527 -0.021434 -0.012682
v -0.025403 -0.029151 -0.015077
v -0.033019 -0.029910 -0.020308
v -0.037726 -0.026060 -0.027305
v -0.037726 -0.019072 -0.033397
v -0.033019 -0.011614 -0.036255
v -0.025403 -0.006536 -0.034789
v -0.017787 -0.005777 -0.029558
v -0.013080 -0.009627 -0.022561
v -0.013080 -0.016615 -0.016469
v -0.017787 -0.024073 -0.013611
v -0.014628 -0.041290 -0.029004
v -0.022244 -0.042049 -0.034235
v -0.026951 -0.038199 -0.041232
v -0.026951 -0.031211 -0.047324
v -0.022244 -0.023753 -0.050182
v -0.014628 -0.018675 -0.048716
v -0.007012 -0.017916 -0.043485
v -0.002305 -0.021766 -0.036488
v -0.002305 -0.028754 -0.030396
v -0.007012 -0.036212 -0.027538
v -0.014628 -0.043949 -0.033388
v -0.021828 -0.043138 -0.039171
v -0.026278 -0.037302 -0.044836
v -0.026278 -0.028671 -0.048218
v -0.021828 -0.020540 -0.048025
v -0.014628 -0.016016 -0.044332
v -0.007428 -0.016827 -0.038549
v -0.002979 -0.022663 -0.032884
v -0.002979 -0.031294 -0.029502
v -0.007428 -0.039425 -0.029694
v -0.001850 -0.050544 -0.050220
v -0.009049 -0.049734 -0.056004
v -0.013499 -0.043898 -0.061668
v -0.013499 -0.035266 -0.065050
v -0.009049 -0.027136 -0.064858
v -0.001850 -0.022612 -0.061165
v 0.005350 -0.023423 -0.055382
v 0.009800 -0.029258 -0.049717
v 0.009800 -0.037890 -0.046335
v 0.005350 -0.046020 -0.046527
v 0.053667 -0.027056 0.056928
v 0.050710 -0.035591 0.059013
v 0.047192 -0.040866 0.065776
v 0.044456 -0.040866 0.074633
v 0.043547 -0.035591 0.082202
v 0.044813 -0.027056 0.085592
v 0.047770 -0.018521 0.083507
v 0.051289 -0.013245 0.076744
v 0.054025 -0.013245 0.067887
v 0.054933 -0.018521 0.060318
v 0.022919 -0.018723 0.047430
v 0.019962 -0.027258 0.049515
v 0.016444 -0.032534 0.056278
v 0.013708 -0.032534 0.065135
v 0.012799 -0.027258 0.072704
v 0.014065 -0.018723 0.076094
v 0.017022 -0.010188 0.074009
v 0.020541 -0.004913 0.067246
v 0.023277 -0.004913 0.058388
v 0.024186 -0.010188 0.050819
v 0.018492 -0.028955 0.050793
v 0.014408 -0.032715 0.058218
v 0.011884 -0.031130 0.066996
v 0.011884 -0.024807 0.073775
v 0.014408 -0.016159 0.075966
v 0.018492 -0.008491 0.072731
v 0.022576 -0.004732 0.065306
v 0.025100 -0.006316 0.056527
v 0.025100 -0.012640 0.049748
v 0.022576 -0.021287 0.047558
v -0.005989 -0.019598 0.042065
v -0.010073 -0.023358 0.049490
v -0.012597 -0.021773 0.058268
v -0.012597 -0.015450 0.065047
v -0.010073 -0.006803 0.067238
v -0.005989 0.000865 0.064003
v -0.001905 0.004625 0.056578
v 0.000619 0.003041 0.047799
v 0.000619 -0.003283 0.041020
v -0.001905 -0.011930 0.038830
v -0.005989 -0.021430 0.044120
v -0.014462 -0.020576 0.047784
v -0.019698 -0.015440 0.053454
v -0.019698 -0.007984 0.058963
v -0.014462 -0.001056 0.062207
v -0.005989 0.002698 0.061948
v 0.002483 0.001843 0.058284
v 0.007720 -0.003293 0.052614
v 0.007720 -0.010749 0.047105
v 0.002483 -0.017677 0.043860
v -0.013229 -0.006488 0.023898
v -0.021701 -0.005634 0.027562
v -0.026938 -0.000498 0.033232
v -0.026938 0.006958 0.038741
v -0.021701 0.013886 0.041985
v -0.013229 0.017640 0.041726
v -0.004756 0.016786 0.038061
v 0.000480 0.011650 0.032392
v 0.000480 0.004194 0.026883
v -0.004756 -0.002734 0.023638
v -0.013229 -0.005449 0.022640
v -0.022027 -0.003726 0.024998
v -0.027465 0.001550 0.030340
v -0.027465 0.008364 0.036626
v -0.022027 0.014113 0.041455
v -0.013229 0.016601 0.042983
v -0.004430 0.014878 0.040626
v 0.001008 0.009602 0.035284
v 0.001008 0.002788 0.028998
v -0.004430 -0.002961 0.024168
v -0.015008 0.013359 0.002254
v -0.023806 0.015082 0.004611
v -0.029244 0.020358 0.009953
v -0.029244 0.027172 0.016239
v -0.023806 0.032921 0.021069
v -0.015008 0.035409 0.022596
v -0.006209 0.033686 0.020239
v -0.000771 0.028410 0.014897
v -0.000771 0.021596 0.008611
v -0.006209 0.015847 0.003782
v 0.049240 -0.041261 0.066441
v 0.042604 -0.040413 0.072858
v 0.038502 -0.034463 0.078664
v 0.038502 -0.025684 0.081643
v 0.042604 -0.017429 0.080655
v 0.049240 -0.012851 0.076079
v 0.055877 -0.013699 0.069662
v 0.059979 -0.019649 0.063856
v 0.059979 -0.028428 0.060877
v 0.055877 -0.036683 0.061864
v -0.011710 -0.018869 0.000444
v -0.018347 -0.018021 0.006861
v -0.022448 -0.012072 0.012668
v -0.022448 -0.003293 0.015646
v -0.018347 0.004962 0.014659
v -0.011710 0.009540 0.010083
v -0.005073 0.008692 0.003666
v -0.000971 0.002742 -0.002141
v -0.000971 -0.006037 -0.005119
v -0.005073 -0.014292 -0.004132
v -0.011710 -0.006993 -0.009555
v -0.019487 -0.010652 -0.006080
v -0.024293 -0.012024 0.001728
v -0.024293 -0.010585 0.010886
v -0.019487 -0.006884 0.017897
v -0.011710 -0.002336 0.020082
v -0.003933 0.001323 0.016607
v 0.000873 0.002695 0.008799
v 0.000873 0.001256 -0.000359
v -0.003933 -0.002445 -0.007369
v -0.019666 0.007720 -0.011867
v -0.027443 0.004061 -0.008392
v -0.032249 0.002690 -0.000584
v -0.032249 0.004129 0.008574
v -0.027443 0.007829 0.015584
v -0.019666 0.012378 0.017770
v -0.011889 0.016036 0.014295
v -0.007082 0.017408 0.006487
v -0.007082 0.015969 -0.002671
v -0.011889 0.012269 -0.009682
v -0.019666 0.020038 -0.008238
v -0.028175 0.016408 -0.007639
v -0.033434 0.010349 -0.002994
v -0.033434 0.004175 0.003922
v -0.028175 0.000245 0.010467
v -0.019666 0.000060 0.014141
v -0.011157 0.003690 0.013542
v -0.005898 0.009749 0.008897
v -0.005898 0.015923 0.001981
v -0.011157 0.019853 -0.004564
v -0.027232 0.040841 0.010332
v -0.035741 0.037211 0.010932
v -0.041000 0.031152 0.015577
v -0.041000 0.024978 0.022492
v -0.035741 0.021048 0.029038
v -0.027232 0.020863 0.032712
v -0.018723 0.024493 0.032113
v -0.013464 0.030552 0.027468
v -0.013464 0.036726 0.020552
v -0.018723 0.040656 0.014007
v -0.027232 0.040724 0.010229
v -0.035853 0.040228 0.013601
v -0.041182 0.036151 0.019998
v -0.041182 0.030050 0.026978
v -0.035853 0.024255 0.031874
v -0.027232 0.020980 0.032816
v -0.018610 0.021476 0.029444
v -0.013282 0.025553 0.023047
v -0.013282 0.031654 0.016067
v -0.018610 0.037449 0.011171
v -0.021823 0.059746 0.026858
v -0.030445 0.059250 0.030229
v -0.035773 0.055173 0.036626
v -0.035773 0.049072 0.043606
v -0.030445 0.043277 0.048502
v -0.021823 0.040002 0.049444
v -0.013202 0.040498 0.046073
v -0.007874 0.044575 0.039675
v -0.007874 0.050676 0.032696
v -0.013202 0.056471 0.027800
v 0.049240 -0.041123 0.066053
v 0.041861 -0.040112 0.071573
v 0.037301 -0.034113 0.076973
v 0.037301 -0.025419 0.080191
v 0.041861 -0.017350 0.079998
v 0.049240 -0.012989 0.076467
v 0.056619 -0.014000 0.070947
v 0.061180 -0.019999 0.065547
v 0.061180 -0.028693 0.062329
v 0.056619 -0.036761 0.062522
v -0.002224 -0.013805 -0.007751
v -0.009603 -0.012794 -0.002231
v -0.014164 -0.006795 0.003169
v -0.014164 0.001899 0.006387
v -0.009603 0.009968 0.006194
v -0.002224 0.014329 0.002663
v 0.005155 0.013318 -0.002857
v 0.009715 0.007319 -0.008257
v 0.009715 -0.001375 -0.011475
v 0.005155 -0.009444 -0.011282
v -0.002224 0.001174 -0.017516
v -0.010376 -0.002352 -0.014861
v -0.015415 -0.004880 -0.007501
v -0.015415 -0.005444 0.001752
v -0.010376 -0.003828 0.009365
v -0.002224 -0.000650 0.012428
v 0.005928 0.002876 0.009773
v 0.010966 0.005404 0.002413
v 0.010966 0.005968 -0.006840
v 0.005928 0.004352 -0.014453
v -0.009189 0.018050 -0.016488
v -0.017341 0.014524 -0.013833
v -0.022379 0.011996 -0.006473
v -0.022379 0.011432 0.002780
v -0.017341 0.013048 0.010393
v -0.009189 0.016225 0.013456
v -0.001037 0.019752 0.010801
v 0.004002 0.022279 0.003441
v 0.004002 0.022843 -0.005812
v -0.001037 0.021228 -0.013424
v -0.009189 0.026550 -0.013195
v -0.017959 0.024051 -0.011530
v -0.023380 0.018912 -0.006039
v -0.023380 0.013095 0.001179
v -0.017959 0.008822 0.007368
v -0.009189 0.007726 0.010164
v -0.000418 0.010224 0.008498
v 0.005002 0.015364 0.003008
v 0.005002 0.021181 -0.004211
v -0.000418 0.025454 -0.010400
v -0.012110 0.048701 0.004656
v -0.020881 0.046203 0.006321
v -0.026301 0.041063 0.011812
v -0.026301 0.035246 0.019030
v -0.020881 0.030973 0.025219
v -0.012110 0.029877 0.028015
v -0.003339 0.032376 0.026349
v 0.002081 0.037515 0.020859
v 0.002081 0.043332 0.013641
v -0.003339 0.047605 0.007452
v -0.012110 0.050951 0.006901
v -0.020913 0.048417 0.008323
v -0.026354 0.042396 0.012806
v -0.026354 0.035189 0.018637
v -0.020913 0.029548 0.023589
v -0.012110 0.027628 0.025770
v -0.003307 0.030162 0.024348
v 0.002134 0.036182 0.019865
v 0.002134 0.043389 0.014034
v -0.003307 0.049030 0.009082
v -0.013874 0.070974 0.031649
v -0.022678 0.068440 0.033072
v -0.028118 0.062419 0.037554
v -0.028118 0.055212 0.043385
v -0.022678 0.049571 0.048337
v -0.013874 0.047651 0.050518
v -0.005071 0.050185 0.049096
v 0.000370 0.056205 0.044613
v 0.000370 0.063412 0.038782
v -0.005071 0.069053 0.033830
v 0.049240 -0.040950 0.065606
v 0.041431 -0.039839 0.070477
v 0.036605 -0.033845 0.075647
v 0.036605 -0.025259 0.079141
v 0.041431 -0.017358 0.079625
v 0.049240 -0.013162 0.076914
v 0.057049 -0.014273 0.072043
v 0.061876 -0.020266 0.066873
v 0.061876 -0.028853 0.063379
v 0.057049 -0.036753 0.062895
v 0.006074 -0.009908 -0.010678
v -0.001735 -0.008797 -0.005807
v -0.006561 -0.002803 -0.000637
v -0.006561 0.005783 0.002857
v -0.001735 0.013684 0.003341
v 0.006074 0.017880 0.000630
v 0.013884 0.016769 -0.004241
v 0.018710 0.010776 -0.009411
v 0.018710 0.002189 -0.012905
v 0.013884 -0.005711 -0.013389
v 0.006074 0.007168 -0.019683
v -0.002424 0.004266 -0.017381
v -0.007677 0.001258 -0.010360
v -0.007677 -0.000709 -0.001300
v -0.002424 -0.000882 0.006337
v 0.006074 0.000804 0.009634
v 0.014573 0.003706 0.007333
v 0.019825 0.006714 0.000311
v 0.019825 0.008681 -0.008748
v 0.014573 0.008854 -0.016385
v 0.001521 0.023277 -0.016186
v -0.006977 0.020375 -0.013884
v -0.012229 0.017366 -0.006863
v -0.012229 0.015400 0.002197
v -0.006977 0.015226 0.009834
v 0.001521 0.016913 0.013131
v 0.010020 0.019814 0.010830
v 0.015272 0.022823 0.003808
v 0.015272 0.024790 -0.005251
v 0.010020 0.024963 -0.012888
v 0.001521 0.029592 -0.013138
v -0.007250 0.027085 -0.011487
v -0.012671 0.021908 -0.006033
v -0.012671 0.016038 0.001143
v -0.007250 0.011718 0.007298
v 0.001521 0.010597 0.010083
v 0.010293 0.013104 0.008433
v 0.015713 0.018282 0.002978
v 0.015713 0.024151 -0.004197
v 0.010293 0.028472 -0.010353
v -0.001293 0.050921 0.004310
v -0.010064 0.048414 0.005960
v -0.015485 0.043236 0.011415
v -0.015485 0.037367 0.018590
v -0.010064 0.033046 0.024746
v -0.001293 0.031926 0.027530
v 0.007478 0.034433 0.025880
v 0.012899 0.039610 0.020426
v 0.012899 0.045480 0.013250
v 0.007478 0.049800 0.007094
v -0.001293 0.053612 0.007177
v -0.010084 0.050895 0.008304
v -0.015518 0.044560 0.012340
v -0.015518 0.037027 0.017744
v -0.010084 0.031173 0.022450
v -0.001293 0.029235 0.024663
v 0.007499 0.031952 0.023536
v 0.012932 0.038287 0.019500
v 0.012932 0.045820 0.014096
v 0.007499 0.051673 0.009390
v -0.003581 0.071168 0.031653
v -0.012372 0.068451 0.032780
v -0.017806 0.062116 0.036816
v -0.017806 0.054583 0.042220
v -0.012372 0.048729 0.046926
v -0.003581 0.046791 0.049139
v 0.005211 0.049508 0.048012
v 0.010644 0.055843 0.043976
v 0.010644 0.063376 0.038572
v 0.005211 0.069229 0.033866
v 0.049240 -0.040185 0.064006
v 0.040951 -0.039130 0.068021
v 0.035828 -0.033464 0.073273
v 0.035828 -0.025349 0.077756
v 0.040951 -0.017887 0.079758
v 0.049240 -0.013927 0.078514
v 0.057529 -0.014981 0.074499
v 0.062652 -0.020648 0.069247
v 0.062652 -0.028762 0.064764
v 0.057529 -0.036225 0.062762
v 0.022301 -0.004237 -0.001057
v 0.014012 -0.003183 0.002958
v 0.008889 0.002484 0.008210
v 0.008889 0.010598 0.012694
v 0.014012 0.018061 0.014696
v 0.022301 0.022021 0.013452
v 0.030590 0.020967 0.009437
v 0.035713 0.015300 0.004185
v 0.035713 0.007185 -0.000299
v 0.030590 -0.000277 -0.002301
v 0.022301 0.009902 -0.008768
v 0.014059 0.006586 -0.006121
v 0.008965 0.004151 0.001232
v 0.008965 0.003527 0.010481
v 0.014059 0.004952 0.018095
v 0.022301 0.007882 0.021164
v 0.030544 0.011198 0.018516
v 0.035638 0.013633 0.011163
v 0.035638 0.014257 0.001914
v 0.030544 0.012832 -0.005699
v 0.016883 0.024137 -0.007808
v 0.008640 0.020821 -0.005161
v 0.003546 0.018386 0.002192
v 0.003546 0.017762 0.011442
v 0.008640 0.019187 0.019055
v 0.016883 0.022117 0.022124
v 0.025125 0.025433 0.019476
v 0.030219 0.027868 0.012123
v 0.030219 0.028492 0.002874
v 0.025125 0.027067 -0.004739
v 0.016883 0.029970 -0.006190
v 0.008456 0.026356 -0.004824
v 0.003248 0.021509 0.001119
v 0.003248 0.017280 0.009369
v 0.008456 0.015284 0.016774
v 0.016883 0.016284 0.020506
v 0.025310 0.019898 0.019139
v 0.030518 0.024745 0.013196
v 0.030518 0.028974 0.004947
v 0.025310 0.030970 -0.002458
v 0.010220 0.049245 0.003691
v 0.001792 0.045631 0.005058
v -0.003416 0.040784 0.011001
v -0.003416 0.036554 0.019250
v 0.001792 0.034559 0.026655
v 0.010220 0.035559 0.030387
v 0.018647 0.039172 0.029021
v 0.023855 0.044020 0.023078
v 0.023855 0.048249 0.014828
v 0.018647 0.050245 0.007423
v 0.010220 0.054285 0.007885
v 0.001417 0.051709 0.009235
v -0.004023 0.045578 0.013566
v -0.004023 0.038233 0.019224
v 0.001417 0.032481 0.024047
v 0.010220 0.030519 0.026193
v 0.019022 0.033095 0.024843
v 0.024462 0.039226 0.020512
v 0.024462 0.046570 0.014855
v 0.019022 0.052322 0.010032
v 0.009280 0.064330 0.020926
v 0.000477 0.061754 0.022276
v -0.004963 0.055623 0.026607
v -0.004963 0.048279 0.032264
v 0.000477 0.042527 0.037087
v 0.009280 0.040564 0.039233
v 0.018082 0.043140 0.037883
v 0.023522 0.049271 0.033552
v 0.023522 0.056615 0.027895
v 0.018082 0.062367 0.023072
f 1 2 13
f 2 14 13
f 2 3 14
f 3 15 14
f 3 4 15
f 4 16 15
f 4 5 16
f 5 17 16
f 5 6 17
f 6 18 17
f 6 7 18
f 7 19 18
f 7 8 19
f 8 20 19
f 8 9 20
f 9 21 20
f 9 10 21
f 10 22 21
f 10 11 22
f 11 23 22
f 11 12 23
f 12 24 23
f 13 14 25
f 14 26 25
f 14 15 26
f 15 27 26
f 15 16 27
f 16 28 27
f 16 17 28
f 17 29 28
f 17 18 29
f 18 30 29
f 18 19 30
f 19 31 30
f 19 20 31
f 20 32 31
f 20 21 32
f 21 33 32
f 21 22 33
f 22 34 33
f 22 23 34
f 23 35 34
f 23 24 35
f 24 36 35
f 25 26 37
f 26 38 37
f 26 27 38
f 27 39 38
f 27 28 39
f 28 40 39
f 28 29 40
f 29 41 40
f 29 30 41
f 30 42 41
f 30 31 42
f 31 43 42
f 31 32 43
f 32 44 43
f 32 33 44
f 33 45 44
f 33 34 45
f 34 46 45
f 34 35 46
f 35 47 46
f 35 36 47
f 36 48 47
f 37 38 49
f 38 50 49
f 38 39 50
f 39 51 50
f 39 40 51
f 40 52 51
f 40 41 52
f 41 53 52
f 41 42 53
f 42 54 53
f 42 43 54
f 43 55 54
f 43 44 55
f 44 56 55
f 44 45 56
f 45 57 56
f 45 46 57
f 46 58 57
f 46 47 58
f 47 59 58
f 47 48 59
f 48 60 59
f 49 50 61
f 50 62 61
f 50 51 62
f 51 63 62
f 51 52 63
f 52 64 63
f 52 53 64
f 53 65 64
f 53 54 65
f 54 66 65
f 54 55 66
f 55 67 66
f 55 56 67
f 56 68 67
f 56 57 68
f 57 69 68
f 57 58 69
f 58 70 69
f 58 59 70
f 59 71 70
f 59 60 71
f 60 72 71
f 61 62 73
f 62 74 73
f 62 63 74
f 63 75 74
f 63 64 75
f 64 76 75
f 64 65 76
f 65 77 76
f 65 66 77
f 66 78 77
f 66 67 78
f 67 79 78
f 67 68 79
f 68 80 79
f 68 69 80
f 69 81 80
f 69 70 81
f 70 82 81
f 70 71 82
f 71 83 82
f 71 72 83
f 72 84 83
f 73 74 85
f 74 86 85
f 74 75 86
f 75 87 86
f 75 76 87
f 76 88 87
f 76 77 88
f 77 89 88
f 77 78 89
f 78 90 89
f 78 79 90
f 79 91 90
f 79 80 91
f 80 92 91
f 80 81 92
f 81 93 92
f 81 82 93
f 82 94 93
f 82 83 94
f 83 95 94
f 83 84 95
f 84 96 95
f 85 86 97
f 86 98 97
f 86 87 98
f 87 99 98
f 87 88 99
f 88 100 99
f 88 89 100
f 89 101 100
f 89 90 101
f 90 102 101
f 90 91 102
f 91 103 102
f 91 92 103
f 92 104 103
f 92 93 104
f 93 105 104
f 93 94 105
f 94 106 105
f 94 95 106
f 95 107 106
f 95 96 107
f 96 108 107
f 97 98 109
f 98 110 109
f 98 99 110
f 99 111 110
f 99 100 111
f 100 112 111
f 100 101 112
f 101 113 112
f 101 102 113
f 102 114 113
f 102 103 114
f 103 115 114
f 103 104 115
f 104 116 115
f 104 105 116
f 105 117 116
f 105 106 117
f 106 118 117
f 106 107 118
f 107 119 118
f 107 108 119
f 108 120 119
f 109 110 121
f 110 122 121
f 110 111 122
f 111 123 122
f 111 112 123
f 112 124 123
f 112 113 124
f 113 125 124
f 113 114 125
f 114 126 125
f 114 115 126
f 115 127 126
f 115 116 127
f 116 128 127
f 116 117 128
f 117 129 128
f 117 118 129
f 118 130 129
f 118 119 130
f 119 131 130
f 119 120 131
f 120 132 131
f 121 122 133
f 122 134 133
f 122 123 134
f 123 135 134
f 123 124 135
f 124 136 135
f 124 125 136
f 125 137 136
f 125 126 137
f 126 138 137
f 126 127 138
f 127 139 138
f 127 128 139
f 128 140 139
f 128 129 140
f 129 141 140
f 129 130 141
f 130 142 141
f 130 131 142
f 131 143 142
f 131 132 143
f 132 144 143
f 145 146 155
f 146 156 155
f 146 147 156
f 147 157 156
f 147 148 157
f 148 158 157
f 148 149 158
f 149 159 158
f 149 150 159
f 150 160 159
f 150 151 160
f 151 161 160
f 151 152 161
f 152 162 161
f 152 153 162
f 153 163 162
f 153 154 163
f 154 164 163
f 154 145 164
f 145 155 164
f 165 166 175
f 166 176 175
f 166 167 176
f 167 177 176
f 167 168 177
f 168 178 177
f 168 169 178
f 169 179 178
f 169 170 179
f 170 180 179
f 170 171 180
f 171 181 180
f 171 172 181
f 172 182 181
f 172 173 182
f 173 183 182
f 173 174 183
f 174 184 183
f 174 165 184
f 165 175 184
f 185 186 195
f 186 196 195
f 186 187 196
f 187 197 196
f 187 188 197
f 188 198 197
f 188 189 198
f 189 199 198
f 189 190 199
f 190 200 199
f 190 191 200
f 191 201 200
f 191 192 201
f 192 202 201
f 192 193 202
f 193 203 202
f 193 194 203
f 194 204 203
f 194 185 204
f 185 195 204
f 205 206 215
f 206 216 215
f 206 207 216
f 207 217 216
f 207 208 217
f 208 218 217
f 208 209 218
f 209 219 218
f 209 210 219
f 210 220 219
f 210 211 220
f 211 221 220
f 211 212 221
f 212 222 221
f 212 213 222
f 213 223 222
f 213 214 223
f 214 224 223
f 214 205 224
f 205 215 224
f 225 226 235
f 226 236 235
f 226 227 236
f 227 237 236
f 227 228 237
f 228 238 237
f 228 229 238
f 229 239 238
f 229 230 239
f 230 240 239
f 230 231 240
f 231 241 240
f 231 232 241
f 232 242 241
f 232 233 242
f 233 243 242
f 233 234 243
f 234 244 243
f 234 225 244
f 225 235 244
f 245 246 255
f 246 256 255
f 246 247 256
f 247 257 256
f 247 248 257
f 248 258 257
f 248 249 258
f 249 259 258
f 249 250 259
f 250 260 259
f 250 251 260
f 251 261 260
f 251 252 261
f 252 262 261
f 252 253 262
f 253 263 262
f 253 254 263
f 254 264 263
f 254 245 264
f 245 255 264
f 265 266 275
f 266 276 275
f 266 267 276
f 267 277 276
f 267 268 277
f 268 278 277
f 268 269 278
f 269 279 278
f 269 270 279
f 270 280 279
f 270 271 280
f 271 281 280
f 271 272 281
f 272 282 281
f 272 273 282
f 273 283 282
f 273 274 283
f 274 284 283
f 274 265 284
f 265 275 284
f 285 286 295
f 286 296 295
f 286 287 296
f 287 297 296
f 287 288 297
f 288 298 297
f 288 289 298
f 289 299 298
f 289 290 299
f 290 300 299
f 290 291 300
f 291 301 300
f 291 292 301
f 292 302 301
f 292 293 302
f 293 303 302
f 293 294 303
f 294 304 303
f 294 285 304
f 285 295 304
f 305 306 315
f 306 316 315
f 306 307 316
f 307 317 316
f 307 308 317
f 308 318 317
f 308 309 318
f 309 319 318
f 309 310 319
f 310 320 319
f 310 311 320
f 311 321 320
f 311 312 321
f 312 322 321
f 312 313 322
f 313 323 322
f 313 314 323
f 314 324 323
f 314 305 324
f 305 315 324
f 325 326 335
f 326 336 335
f 326 327 336
f 327 337 336
f 327 328 337
f 328 338 337
f 328 329 338
f 329 339 338
f 329 330 339
f 330 340 339
f 330 331 340
f 331 341 340
f 331 332 341
f 332 342 341
f 332 333 342
f 333 343 342
f 333 334 343
f 334 344 343
f 334 325 344
f 325 335 344
f 345 346 355
f 346 356 355
f 346 347 356
f 347 357 356
f 347 348 357
f 348 358 357
f 348 349 358
f 349 359 358
f 349 350 359
f 350 360 359
f 350 351 360
f 351 361 360
f 351 352 361
f 352 362 361
f 352 353 362
f 353 363 362
f 353 354 363
f 354 364 363
f 354 345 364
f 345 355 364
f 365 366 375
f 366 376 375
f 366 367 376
f 367 377 376
f 367 368 377
f 368 378 377
f 368 369 378
f 369 379 378
f 369 370 379
f 370 380 379
f 370 371 380
f 371 381 380
f 371 372 381
f 372 382 381
f 372 373 382
f 373 383 382
f 373 374 383
f 374 384 383
f 374 365 384
f 365 375 384
f 385 386 395
f 386 396 395
f 386 387 396
f 387 397 396
f 387 388 397
f 388 398 397
f 388 389 398
f 389 399 398
f 389 390 399
f 390 400 399
f 390 391 400
f 391 401 400
f 391 392 401
f 392 402 401
f 392 393 402
f 393 403 402
f 393 394 403
f 394 404 403
f 394 385 404
f 385 395 404
f 405 406 415
f 406 416 415
f 406 407 416
f 407 417 416
f 407 408 417
f 408 418 417
f 408 409 418
f 409 419 418
f 409 410 419
f 410 420 419
f 410 411 420
f 411 421 420
f 411 412 421
f 412 422 421
f 412 413 422
f 413 423 422
f 413 414 423
f 414 424 423
f 414 405 424
f 405 415 424
f 425 426 435
f 426 436 435
f 426 427 436
f 427 437 436
f 427 428 437
f 428 438 437
f 428 429 438
f 429 439 438
f 429 430 439
f 430 440 439
f 430 431 440
f 431 441 440
f 431 432 441
f 432 442 441
f 432 433 442
f 433 443 442
f 433 434 443
f 434 444 443
f 434 425 444
f 425 435 444
f 445 446 455
f 446 456 455
f 446 447 456
f 447 457 456
f 447 448 457
f 448 458 457
f 448 449 458
f 449 459 458
f 449 450 459
f 450 460 459
f 450 451 460
f 451 461 460
f 451 452 461
f 452 462 461
f 452 453 462
f 453 463 462
f 453 454 463
f 454 464 463
f 454 445 464
f 445 455 464
f 465 466 475
f 466 476 475
f 466 467 476
f 467 477 476
f 467 468 477
f 468 478 477
f 468 469 478
f 469 479 478
f 469 470 479
f 470 480 479
f 470 471 480
f 471 481 480
f 471 472 481
f 472 482 481
f 472 473 482
f 473 483 482
f 473 474 483
f 474 484 483
f 474 465 484
f 465 475 484
f 485 486 495
f 486 496 495
f 486 487 496
f 487 497 496
f 487 488 497
f 488 498 497
f 488 489 498
f 489 499 498
f 489 490 499
f 490 500 499
f 490 491 500
f 491 501 500
f 491 492 501
f 492 502 501
f 492 493 502
f 493 503 502
f 493 494 503
f 494 504 503
f 494 485 504
f 485 495 504
f 505 506 515
f 506 516 515
f 506 507 516
f 507 517 516
f 507 508 517
f 508 518 517
f 508 509 518
f 509 519 518
f 509 510 519
f 510 520 519
f 510 511 520
f 511 521 520
f 511 512 521
f 512 522 521
f 512 513 522
f 513 523 522
f 513 514 523
f 514 524 523
f 514 505 524
f 505 515 524
f 525 526 535
f 526 536 535
f 526 527 536
f 527 537 536
f 527 528 537
f 528 538 537
f 528 529 538
f 529 539 538
f 529 530 539
f 530 540 539
f 530 531 540
f 531 541 540
f 531 532 541
f 532 542 541
f 532 533 542
f 533 543 542
f 533 534 543
f 534 544 543
f 534 525 544
f 525 535 544
f 545 546 555
f 546 556 555
f 546 547 556
f 547 557 556
f 547 548 557
f 548 558 557
f 548 549 558
f 549 559 558
f 549 550 559
f 550 560 559
f 550 551 560
f 551 561 560
f 551 552 561
f 552 562 561
f 552 553 562
f 553 563 562
f 553 554 563
f 554 564 563
f 554 545 564
f 545 555 564
f 565 566 575
f 566 576 575
f 566 567 576
f 567 577 576
f 567 568 577
f 568 578 577
f 568 569 578
f 569 579 578
f 569 570 579
f 570 580 579
f 570 571 580
f 571 581 580
f 571 572 581
f 572 582 581
f 572 573 582
f 573 583 582
f 573 574 583
f 574 584 583
f 574 565 584
f 565 575 584
f 585 586 595
f 586 596 595
f 586 587 596
f 587 597 596
f 587 588 597
f 588 598 597
f 588 589 598
f 589 599 598
f 589 590 599
f 590 600 599
f 590 591 600
f 591 601 600
f 591 592 601
f 592 602 601
f 592 593 602
f 593 603 602
f 593 594 603
f 594 604 603
f 594 585 604
f 585 595 604
f 605 606 615
f 606 616 615
f 606 607 616
f 607 617 616
f 607 608 617
f 608 618 617
f 608 609 618
f 609 619 618
f 609 610 619
f 610 620 619
f 610 611 620
f 611 621 620
f 611 612 621
f 612 622 621
f 612 613 622
f 613 623 622
f 613 614 623
f 614 624 623
f 614 605 624
f 605 615 624
f 625 626 635
f 626 636 635
f 626 627 636
f 627 637 636
f 627 628 637
f 628 638 637
f 628 629 638
f 629 639 638
f 629 630 639
f 630 640 639
f 630 631 640
f 631 641 640
f 631 632 641
f 632 642 641
f 632 633 642
f 633 643 642
f 633 634 643
f 634 644 643
f 634 625 644
f 625 635 644
f 645 646 655
f 646 656 655
f 646 647 656
f 647 657 656
f 647 648 657
f 648 658 657
f 648 649 658
f 649 659 658
f 649 650 659
f 650 660 659
f 650 651 660
f 651 661 660
f 651 652 661
f 652 662 661
f 652 653 662
f 653 663 662
f 653 654 663
f 654 664 663
f 654 645 664
f 645 655 664
f 665 666 675
f 666 676 675
f 666 667 676
f 667 677 676
f 667 668 677
f 668 678 677
f 668 669 678
f 669 679 678
f 669 670 679
f 670 680 679
f 670 671 680
f 671 681 680
f 671 672 681
f 672 682 681
f 672 673 682
f 673 683 682
f 673 674 683
f 674 684 683
f 674 665 684
f 665 675 684
f 685 686 695
f 686 696 695
f 686 687 696
f 687 697 696
f 687 688 697
f 688 698 697
f 688 689 698
f 689 699 698
f 689 690 699
f 690 700 699
f 690 691 700
f 691 701 700
f 691 692 701
f 692 702 701
f 692 693 702
f 693 703 702
f 693 694 703
f 694 704 703
f 694 685 704
f 685 695 704
f 705 706 715
f 706 716 715
f 706 707 716
f 707 717 716
f 707 708 717
f 708 718 717
f 708 709 718
f 709 719 718
f 709 710 719
f 710 720 719
f 710 711 720
f 711 721 720
f 711 712 721
f 712 722 721
f 712 713 722
f 713 723 722
f 713 714 723
f 714 724 723
f 714 705 724
f 705 715 724
f 725 726 735
f 726 736 735
f 726 727 736
f 727 737 736
f 727 728 737
f 728 738 737
f 728 729 738
f 729 739 738
f 729 730 739
f 730 740 739
f 730 731 740
f 731 741 740
f 731 732 741
f 732 742 741
f 732 733 742
f 733 743 742
f 733 734 743
f 734 744 743
f 734 725 744
f 725 735 744
f 745 746 755
f 746 756 755
f 746 747 756
f 747 757 756
f 747 748 757
f 748 758 757
f 748 749 758
f 749 759 758
f 749 750 759
f 750 760 759
f 750 751 760
f 751 761 760
f 751 752 761
f 752 762 761
f 752 753 762
f 753 763 762
f 753 754 763
f 754 764 763
f 754 745 764
f 745 755 764
f 765 766 775
f 766 776 775
f 766 767 776
f 767 777 776
f 767 768 777
f 768 778 777
f 768 769 778
f 769 779 778
f 769 770 779
f 770 780 779
f 770 771 780
f 771 781 780
f 771 772 781
f 772 782 781
f 772 773 782
f 773 783 782
f 773 774 783
f 774 784 783
f 774 765 784
f 765 775 784
f 785 786 795
f 786 796 795
f 786 787 796
f 787 797 796
f 787 788 797
f 788 798 797
f 788 789 798
f 789 799 798
f 789 790 799
f 790 800 799
f 790 791 800
f 791 801 800
f 791 792 801
f 792 802 801
f 792 793 802
f 793 803 802
f 793 794 803
f 794 804 803
f 794 785 804
f 785 795 804
f 805 806 815
f 806 816 815
f 806 807 816
f 807 817 816
f 807 808 817
f 808 818 817
f 808 809 818
f 809 819 818
f 809 810 819
f 810 820 819
f 810 811 820
f 811 821 820
f 811 812 821
f 812 822 821
f 812 813 822
f 813 823 822
f 813 814 823
f 814 824 823
f 814 805 824
f 805 815 824
f 825 826 835
f 826 836 835
f 826 827 836
f 827 837 836
f 827 828 837
f 828 838 837
f 828 829 838
f 829 839 838
f 829 830 839
f 830 840 839
f 830 831 840
f 831 841 840
f 831 832 841
f 832 842 841
f 832 833 842
f 833 843 842
f 833 834 843
f 834 844 843
f 834 825 844
f 825 835 844
f 845 846 855
f 846 856 855
f 846 847 856
f 847 857 856
f 847 848 857
f 848 858 857
f 848 849 858
f 849 859 858
f 849 850 859
f 850 860 859
f 850 851 860
f 851 861 860
f 851 852 861
f 852 862 861
f 852 853 862
f 853 863 862
f 853 854 863
f 854 864 863
f 854 845 864
f 845 855 864
f 865 866 875
f 866 876 875
f 866 867 876
f 867 877 876
f 867 868 877
f 868 878 877
f 868 869 878
f 869 879 878
f 869 870 879
f 870 880 879
f 870 871 880
f 871 881 880
f 871 872 881
f 872 882 881
f 872 873 882
f 873 883 882
f 873 874 883
f 874 884 883
f 874 865 884
f 865 875 884
f 885 886 895
f 886 896 895
f 886 887 896
f 887 897 896
f 887 888 897
f 888 898 897
f 888 889 898
f 889 899 898
f 889 890 899
f 890 900 899
f 890 891 900
f 891 901 900
f 891 892 901
f 892 902 901
f 892 893 902
f 893 903 902
f 893 894 903
f 894 904 903
f 894 885 904
f 885 895 904
f 905 906 915
f 906 916 915
f 906 907 916
f 907 917 916
f 907 908 917
f 908 918 917
f 908 909 918
f 909 919 918
f 909 910 919
f 910 920 919
f 910 911 920
f 911 921 920
f 911 912 921
f 912 922 921
f 912 913 922
f 913 923 922
f 913 914 923
f 914 924 923
f 914 905 924
f 905 915 924
f 925 926 935
f 926 936 935
f 926 927 936
f 927 937 936
f 927 928 937
f 928 938 937
f 928 929 938
f 929 939 938
f 929 930 939
f 930 940 939
f 930 931 940
f 931 941 940
f 931 932 941
f 932 942 941
f 932 933 942
f 933 943 942
f 933 934 943
f 934 944 943
f 934 925 944
f 925 935 944
f 945 946 955
f 946 956 955
f 946 947 956
f 947 957 956
f 947 948 957
f 948 958 957
f 948 949 958
f 949 959 958
f 949 950 959
f 950 960 959
f 950 951 960
f 951 961 960
f 951 952 961
f 952 962 961
f 952 953 962
f 953 963 962
f 953 954 963
f 954 964 963
f 954 945 964
f 945 955 964
f 965 966 975
f 966 976 975
f 966 967 976
f 967 977 976
f 967 968 977
f 968 978 977
f 968 969 978
f 969 979 978
f 969 970 979
f 970 980 979
f 970 971 980
f 971 981 980
f 971 972 981
f 972 982 981
f 972 973 982
f 973 983 982
f 973 974 983
f 974 984 983
f 974 965 984
f 965 975 984
f 985 986 995
f 986 996 995
f 986 987 996
f 987 997 996
f 987 988 997
f 988 998 997
f 988 989 998
f 989 999 998
f 989 990 999
f 990 1000 999
f 990 991 1000
f 991 1001 1000
f 991 992 1001
f 992 1002 1001
f 992 993 1002
f 993 1003 1002
f 993 994 1003
f 994 1004 1003
f 994 985 1004
f 985 995 1004
f 1005 1006 1015
f 1006 1016 1015
f 1006 1007 1016
f 1007 1017 1016
f 1007 1008 1017
f 1008 1018 1017
f 1008 1009 1018
f 1009 1019 1018
f 1009 1010 1019
f 1010 1020 1019
f 1010 1011 1020
f 1011 1021 1020
f 1011 1012 1021
f 1012 1022 1021
f 1012 1013 1022
f 1013 1023 1022
f 1013 1014 1023
f 1014 1024 1023
f 1014 1005 1024
f 1005 1015 1024
f 1025 1026 1035
f 1026 1036 1035
f 1026 1027 1036
f 1027 1037 1036
f 1027 1028 1037
f 1028 1038 1037
f 1028 1029 1038
f 1029 1039 1038
f 1029 1030 1039
f 1030 1040 1039
f 1030 1031 1040
f 1031 1041 1040
f 1031 1032 1041
f 1032 1042 1041
f 1032 1033 1042
f 1033 1043 1042
f 1033 1034 1043
f 1034 1044 1043
f 1034 1025 1044
f 1025 1035 1044
f 1045 1046 1055
f 1046 1056 1055
f 1046 1047 1056
f 1047 1057 1056
f 1047 1048 1057
f 1048 1058 1057
f 1048 1049 1058
f 1049 1059 1058
f 1049 1050 1059
f 1050 1060 1059
f 1050 1051 1060
f 1051 1061 1060
f 1051 1052 1061
f 1052 1062 1061
f 1052 1053 1062
f 1053 1063 1062
f 1053 1054 1063
f 1054 1064 1063
f 1054 1045 1064
f 1045 1055 1064
f 1065 1066 1075
f 1066 1076 1075
f 1066 1067 1076
f 1067 1077 1076
f 1067 1068 1077
f 1068 1078 1077
f 1068 1069 1078
f 1069 1079 1078
f 1069 1070 1079
f 1070 1080 1079
f 1070 1071 1080
f 1071 1081 1080
f 1071 1072 1081
f 1072 1082 1081
f 1072 1073 1082
f 1073 1083 1082
f 1073 1074 1083
f 1074 1084 1083
f 1074 1065 1084
f 1065 1075 1084
f 1085 1086 1095
f 1086 1096 1095
f 1086 1087 1096
f 1087 1097 1096
f 1087 1088 1097
f 1088 1098 1097
f 1088 1089 1098
f 1089 1099 1098
f 1089 1090 1099
f 1090 1100 1099
f 1090 1091 1100
f 1091 1101 1100
f 1091 1092 1101
f 1092 1102 1101
f 1092 1093 1102
f 1093 1103 1102
f 1093 1094 1103
f 1094 1104 1103
f 1094 1085 1104
f 1085 1095 1104
f 1105 1106 1115
f 1106 1116 1115
f 1106 1107 1116
f 1107 1117 1116
f 1107 1108 1117
f 1108 1118 1117
f 1108 1109 1118
f 1109 1119 1118
f 1109 1110 1119
f 1110 1120 1119
f 1110 1111 1120
f 1111 1121 1120
f 1111 1112 1121
f 1112 1122 1121
f 1112 1113 1122
f 1113 1123 1122
f 1113 1114 1123
f 1114 1124 1123
f 1114 1105 1124
f 1105 1115 1124
f 1125 1126 1135
f 1126 1136 1135
f 1126 1127 1136
f 1127 1137 1136
f 1127 1128 1137
f 1128 1138 1137
f 1128 1129 1138
f 1129 1139 1138
f 1129 1130 1139
f 1130 1140 1139
f 1130 1131 1140
f 1131 1141 1140
f 1131 1132 1141
f 1132 1142 1141
f 1132 1133 1142
f 1133 1143 1142
f 1133 1134 1143
f 1134 1144 1143
f 1134 1125 1144
f 1125 1135 1144
f 1145 1146 1155
f 1146 1156 1155
f 1146 1147 1156
f 1147 1157 1156
f 1147 1148 1157
f 1148 1158 1157
f 1148 1149 1158
f 1149 1159 1158
f 1149 1150 1159
f 1150 1160 1159
f 1150 1151 1160
f 1151 1161 1160
f 1151 1152 1161
f 1152 1162 1161
f 1152 1153 1162
f 1153 1163 1162
f 1153 1154 1163
f 1154 1164 1163
f 1154 1145 1164
f 1145 1155 1164
f 1165 1166 1175
f 1166 1176 1175
f 1166 1167 1176
f 1167 1177 1176
f 1167 1168 1177
f 1168 1178 1177
f 1168 1169 1178
f 1169 1179 1178
f 1169 1170 1179
f 1170 1180 1179
f 1170 1171 1180
f 1171 1181 1180
f 1171 1172 1181
f 1172 1182 1181
f 1172 1173 1182
f 1173 1183 1182
f 1173 1174 1183
f 1174 1184 1183
f 1174 1165 1184
f 1165 1175 1184
