# Full-Body 3D Mesh - Frame 21
v -0.000932 -0.619153 -0.092716
v 0.032876 -0.619153 -0.097577
v 0.063945 -0.619153 -0.111766
v 0.089758 -0.619153 -0.134133
v 0.108224 -0.619153 -0.162866
v 0.117847 -0.619153 -0.195638
v 0.117847 -0.619153 -0.229794
v 0.108224 -0.619153 -0.262566
v 0.089758 -0.619153 -0.291299
v 0.063945 -0.619153 -0.313667
v 0.032876 -0.619153 -0.327855
v -0.000932 -0.619153 -0.332716
v -0.000932 -0.619153 -0.092716
v 0.027509 -0.600875 -0.097577
v 0.053646 -0.584078 -0.111766
v 0.075362 -0.570122 -0.134133
v 0.090896 -0.560139 -0.162866
v 0.098991 -0.554936 -0.195638
v 0.098991 -0.554936 -0.229794
v 0.090896 -0.560139 -0.262566
v 0.075362 -0.570122 -0.291299
v 0.053646 -0.584078 -0.313667
v 0.027509 -0.600875 -0.327855
v -0.000932 -0.619153 -0.332716
v -0.000932 -0.619153 -0.092716
v 0.013113 -0.588400 -0.097577
v 0.026019 -0.560139 -0.111766
v 0.036742 -0.536658 -0.134133
v 0.044413 -0.519861 -0.162866
v 0.048411 -0.511108 -0.195638
v 0.048411 -0.511108 -0.229794
v 0.044413 -0.519861 -0.262566
v 0.036742 -0.536658 -0.291299
v 0.026019 -0.560139 -0.313667
v 0.013113 -0.588400 -0.327855
v -0.000932 -0.619153 -0.332716
v -0.000932 -0.619153 -0.092716
v -0.005743 -0.585689 -0.097577
v -0.010165 -0.554936 -0.111766
v -0.013838 -0.529386 -0.134133
v -0.016466 -0.511108 -0.162866
v -0.017836 -0.501583 -0.195638
v -0.017836 -0.501583 -0.229794
v -0.016466 -0.511108 -0.262566
v -0.013838 -0.529386 -0.291299
v -0.010165 -0.554936 -0.313667
v -0.005743 -0.585689 -0.327855
v -0.000932 -0.619153 -0.332716
v -0.000932 -0.619153 -0.092716
v -0.023071 -0.593603 -0.097577
v -0.043417 -0.570122 -0.111766
v -0.060321 -0.550614 -0.134133
v -0.072414 -0.536658 -0.162866
v -0.078715 -0.529386 -0.195638
v -0.078715 -0.529386 -0.229794
v -0.072414 -0.536658 -0.262566
v -0.060321 -0.550614 -0.291299
v -0.043417 -0.570122 -0.313667
v -0.023071 -0.593603 -0.327855
v -0.000932 -0.619153 -0.332716
v -0.000932 -0.619153 -0.092716
v -0.033370 -0.609628 -0.097577
v -0.063181 -0.600875 -0.111766
v -0.087948 -0.593603 -0.134133
v -0.105666 -0.588400 -0.162866
v -0.114899 -0.585689 -0.195638
v -0.114899 -0.585689 -0.229794
v -0.105666 -0.588400 -0.262566
v -0.087948 -0.593603 -0.291299
v -0.063181 -0.600875 -0.313667
v -0.033370 -0.609628 -0.327855
v -0.000932 -0.619153 -0.332716
v -0.000932 -0.619153 -0.092716
v -0.033370 -0.628678 -0.097577
v -0.063181 -0.637431 -0.111766
v -0.087948 -0.644703 -0.134133
v -0.105666 -0.649906 -0.162866
v -0.114899 -0.652617 -0.195638
v -0.114899 -0.652617 -0.229794
v -0.105666 -0.649906 -0.262566
v -0.087948 -0.644703 -0.291299
v -0.063181 -0.637431 -0.313667
v -0.033370 -0.628678 -0.327855
v -0.000932 -0.619153 -0.332716
v -0.000932 -0.619153 -0.092716
v -0.023071 -0.644703 -0.097577
v -0.043417 -0.668184 -0.111766
v -0.060321 -0.687692 -0.134133
v -0.072414 -0.701647 -0.162866
v -0.078715 -0.708920 -0.195638
v -0.078715 -0.708920 -0.229794
v -0.072414 -0.701647 -0.262566
v -0.060321 -0.687692 -0.291299
v -0.043417 -0.668184 -0.313667
v -0.023071 -0.644703 -0.327855
v -0.000932 -0.619153 -0.332716
v -0.000932 -0.619153 -0.092716
v -0.005743 -0.652617 -0.097577
v -0.010165 -0.683369 -0.111766
v -0.013838 -0.708920 -0.134133
v -0.016466 -0.727198 -0.162866
v -0.017836 -0.736722 -0.195638
v -0.017836 -0.736722 -0.229794
v -0.016466 -0.727198 -0.262566
v -0.013838 -0.708920 -0.291299
v -0.010165 -0.683369 -0.313667
v -0.005743 -0.652617 -0.327855
v -0.000932 -0.619153 -0.332716
v -0.000932 -0.619153 -0.092716
v 0.013113 -0.649906 -0.097577
v 0.026019 -0.678167 -0.111766
v 0.036742 -0.701647 -0.134133
v 0.044413 -0.718444 -0.162866
v 0.048411 -0.727198 -0.195638
v 0.048411 -0.727198 -0.229794
v 0.044413 -0.718444 -0.262566
v 0.036742 -0.701647 -0.291299
v 0.026019 -0.678167 -0.313667
v 0.013113 -0.649906 -0.327855
v -0.000932 -0.619153 -0.332716
v -0.000932 -0.619153 -0.092716
v 0.027509 -0.637431 -0.097577
v 0.053646 -0.654228 -0.111766
v 0.075362 -0.668184 -0.134133
v 0.090896 -0.678167 -0.162866
v 0.098991 -0.683369 -0.195638
v 0.098991 -0.683369 -0.229794
v 0.090896 -0.678167 -0.262566
v 0.075362 -0.668184 -0.291299
v 0.053646 -0.654228 -0.313667
v 0.027509 -0.637431 -0.327855
v -0.000932 -0.619153 -0.332716
v -0.000932 -0.619153 -0.092716
v 0.032876 -0.619153 -0.097577
v 0.063945 -0.619153 -0.111766
v 0.089758 -0.619153 -0.134133
v 0.108224 -0.619153 -0.162866
v 0.117847 -0.619153 -0.195638
v 0.117847 -0.619153 -0.229794
v 0.108224 -0.619153 -0.262566
v 0.089758 -0.619153 -0.291299
v 0.063945 -0.619153 -0.313667
v 0.032876 -0.619153 -0.327855
v -0.000932 -0.619153 -0.332716
v 0.178978 -0.443275 -0.016983
v 0.177667 -0.466782 -0.009443
v 0.175151 -0.481310 0.010400
v 0.172391 -0.481310 0.034967
v 0.170440 -0.466782 0.054874
v 0.170045 -0.443275 0.062517
v 0.171356 -0.419769 0.054976
v 0.173872 -0.405241 0.035133
v 0.176632 -0.405241 0.010567
v 0.178582 -0.419769 -0.009340
v -0.143271 -0.436924 -0.053192
v -0.144582 -0.460431 -0.045652
v -0.147098 -0.474959 -0.025809
v -0.149858 -0.474959 -0.001242
v -0.151809 -0.460431 0.018664
v -0.152204 -0.436924 0.026307
v -0.150894 -0.413417 0.018767
v -0.148378 -0.398889 -0.001076
v -0.145617 -0.398889 -0.025643
v -0.143667 -0.413417 -0.045549
v 0.174511 -0.447713 -0.016986
v 0.151095 -0.444772 -0.009628
v 0.136622 -0.441258 0.010104
v 0.136622 -0.438516 0.034673
v 0.151095 -0.437591 0.054694
v 0.174511 -0.438837 0.062520
v 0.197928 -0.441779 0.055161
v 0.212401 -0.445293 0.035429
v 0.212401 -0.448035 0.010861
v 0.197928 -0.448960 -0.009160
v 0.196975 -0.199621 -0.044683
v 0.173558 -0.196679 -0.037325
v 0.159086 -0.193166 -0.017593
v 0.159086 -0.190423 0.006976
v 0.173558 -0.189498 0.026997
v 0.196975 -0.190745 0.034823
v 0.220392 -0.193687 0.027464
v 0.234864 -0.197200 0.007732
v 0.234864 -0.199943 -0.016836
v 0.220392 -0.200868 -0.036857
v 0.196975 -0.232849 -0.018393
v 0.174377 -0.227840 -0.009711
v 0.160410 -0.210356 0.000797
v 0.160410 -0.187077 0.009117
v 0.174377 -0.166894 0.012072
v 0.196975 -0.157517 0.008533
v 0.219573 -0.162526 -0.000149
v 0.233540 -0.180009 -0.010657
v 0.233540 -0.203288 -0.018978
v 0.219573 -0.223471 -0.021933
v 0.135709 -0.161040 -0.219298
v 0.113111 -0.156030 -0.210616
v 0.099144 -0.138547 -0.200107
v 0.099144 -0.115268 -0.191787
v 0.113111 -0.095085 -0.188832
v 0.135709 -0.085707 -0.192371
v 0.158307 -0.090717 -0.201053
v 0.172273 -0.108200 -0.211561
v 0.172273 -0.131479 -0.219882
v 0.158307 -0.151662 -0.222837
v -0.147738 -0.441320 -0.053200
v -0.169992 -0.448021 -0.044774
v -0.183745 -0.450483 -0.024379
v -0.183745 -0.447766 0.000192
v -0.169992 -0.440908 0.019556
v -0.147738 -0.432528 0.026315
v -0.125484 -0.425827 0.017888
v -0.111730 -0.423365 -0.002506
v -0.111730 -0.426082 -0.027077
v -0.125484 -0.432940 -0.046441
v -0.235005 -0.186878 -0.081334
v -0.257259 -0.193579 -0.072907
v -0.271012 -0.196041 -0.052513
v -0.271012 -0.193324 -0.027941
v -0.257259 -0.186466 -0.008578
v -0.235005 -0.178086 -0.001818
v -0.212751 -0.171386 -0.010245
v -0.198997 -0.168923 -0.030639
v -0.198997 -0.171640 -0.055211
v -0.212751 -0.178498 -0.074574
v -0.235005 -0.220917 -0.052655
v -0.255464 -0.210368 -0.061671
v -0.268108 -0.189167 -0.063011
v -0.268108 -0.165413 -0.056164
v -0.255464 -0.148179 -0.043744
v -0.235005 -0.144047 -0.030497
v -0.214546 -0.154596 -0.021481
v -0.201901 -0.175797 -0.020141
v -0.201901 -0.199551 -0.026988
v -0.214546 -0.216786 -0.039407
v -0.125689 -0.167445 -0.238157
v -0.146148 -0.156896 -0.247173
v -0.158792 -0.135695 -0.248513
v -0.158792 -0.111941 -0.241666
v -0.146148 -0.094707 -0.229246
v -0.125689 -0.090575 -0.215999
v -0.105229 -0.101124 -0.206983
v -0.092585 -0.122325 -0.205643
v -0.092585 -0.146079 -0.212490
v -0.105229 -0.163314 -0.224909
v 0.174511 -0.442823 -0.017231
v 0.151171 -0.445740 -0.009624
v 0.136746 -0.447716 0.010355
v 0.136746 -0.447996 0.035075
v 0.151171 -0.446472 0.055093
v 0.174511 -0.443728 0.062764
v 0.197852 -0.440811 0.055157
v 0.212277 -0.438835 0.035178
v 0.212277 -0.438555 0.010459
v 0.197852 -0.440078 -0.009560
v 0.120198 0.004954 -0.012162
v 0.096858 0.002037 -0.004555
v 0.082433 0.000061 0.015424
v 0.082433 -0.000219 0.040144
v 0.096858 0.001304 0.060162
v 0.120198 0.004048 0.067833
v 0.143539 0.006965 0.060226
v 0.157964 0.008941 0.040247
v 0.157964 0.009221 0.015528
v 0.143539 0.007698 -0.004491
v -0.147738 -0.438027 -0.053427
v -0.171201 -0.436316 -0.045832
v -0.185703 -0.434838 -0.025866
v -0.185703 -0.434156 -0.001154
v -0.171201 -0.434532 0.018864
v -0.147738 -0.435821 0.026542
v -0.124274 -0.437532 0.018947
v -0.109773 -0.439010 -0.001020
v -0.109773 -0.439692 -0.025732
v -0.124274 -0.439316 -0.045750
v -0.120681 -0.015099 -0.065094
v -0.144145 -0.013388 -0.057499
v -0.158646 -0.011910 -0.037533
v -0.158646 -0.011228 -0.012821
v -0.144145 -0.011604 0.007197
v -0.120681 -0.012893 0.014875
v -0.097218 -0.014603 0.007280
v -0.082717 -0.016082 -0.012687
v -0.082717 -0.016764 -0.037399
v -0.097218 -0.016388 -0.057417
v 0.128785 0.004501 -0.011232
v 0.128863 -0.018945 -0.003393
v 0.125631 -0.033435 0.016374
v 0.120324 -0.033435 0.040519
v 0.114969 -0.018945 0.059819
v 0.111611 0.004501 0.066903
v 0.111534 0.027947 0.059064
v 0.114766 0.042437 0.039297
v 0.120073 0.042437 0.015152
v 0.125428 0.027947 -0.004148
v -0.112094 -0.013996 -0.064177
v -0.112017 -0.037441 -0.056338
v -0.115249 -0.051932 -0.036571
v -0.120556 -0.051932 -0.012426
v -0.125911 -0.037441 0.006874
v -0.129268 -0.013996 0.013958
v -0.129346 0.009450 0.006119
v -0.126114 0.023940 -0.013648
v -0.120807 0.023940 -0.037793
v -0.115452 0.009450 -0.057093
v 0.120198 -0.027516 0.003859
v 0.096805 -0.022812 0.010321
v 0.082347 -0.007674 0.023473
v 0.082347 0.012114 0.038292
v 0.096805 0.028994 0.049116
v 0.120198 0.036519 0.051812
v 0.143592 0.031814 0.045350
v 0.158050 0.016676 0.032198
v 0.158050 -0.003111 0.017380
v 0.143592 -0.019992 0.006555
v 0.091955 0.140844 -0.220964
v 0.068561 0.145549 -0.214502
v 0.054103 0.160686 -0.201350
v 0.054103 0.180474 -0.186532
v 0.068561 0.197355 -0.175707
v 0.091955 0.204879 -0.173011
v 0.115348 0.200175 -0.179473
v 0.129806 0.185037 -0.192625
v 0.129806 0.165249 -0.207443
v 0.115348 0.148369 -0.218268
v 0.091955 0.185708 -0.234869
v 0.068499 0.184781 -0.227116
v 0.054002 0.179301 -0.207856
v 0.054002 0.171362 -0.184444
v 0.068499 0.163996 -0.165823
v 0.091955 0.160016 -0.159106
v 0.115411 0.160943 -0.166859
v 0.129908 0.166423 -0.186119
v 0.129908 0.174362 -0.209531
v 0.115411 0.181728 -0.228152
v 0.111862 0.460077 -0.141826
v 0.088406 0.459150 -0.134074
v 0.073909 0.453671 -0.114814
v 0.073909 0.445731 -0.091402
v 0.088406 0.438365 -0.072781
v 0.111862 0.434385 -0.066064
v 0.135318 0.435312 -0.073816
v 0.149815 0.440792 -0.093077
v 0.149815 0.448731 -0.116489
v 0.135318 0.456098 -0.135109
v -0.120681 -0.033361 -0.060109
v -0.143276 -0.023974 -0.056572
v -0.157240 -0.010776 -0.041018
v -0.157240 0.001192 -0.019386
v -0.143276 0.007359 0.000059
v -0.120681 0.005369 0.009890
v -0.098086 -0.004017 0.006353
v -0.084122 -0.017215 -0.009202
v -0.084122 -0.029184 -0.030833
v -0.098086 -0.035351 -0.050278
v -0.052260 0.174719 -0.175238
v -0.074855 0.184106 -0.171701
v -0.088819 0.197304 -0.156146
v -0.088819 0.209272 -0.134515
v -0.074855 0.215439 -0.115070
v -0.052260 0.213449 -0.105239
v -0.029665 0.204063 -0.108776
v -0.015701 0.190864 -0.124331
v -0.015701 0.178896 -0.145962
v -0.029665 0.172729 -0.165407
v -0.052260 0.205041 -0.178708
v -0.075714 0.201365 -0.171812
v -0.090209 0.194908 -0.152856
v -0.090209 0.188136 -0.129080
v -0.075714 0.183636 -0.109567
v -0.052260 0.183127 -0.101769
v -0.028807 0.186803 -0.108665
v -0.014311 0.193260 -0.127621
v -0.014311 0.200032 -0.151397
v -0.028807 0.204532 -0.170910
v -0.070506 0.455029 -0.107506
v -0.093960 0.451353 -0.100610
v -0.108455 0.444895 -0.081653
v -0.108455 0.438123 -0.057878
v -0.093960 0.433623 -0.038364
v -0.070506 0.433114 -0.030566
v -0.047052 0.436790 -0.037462
v -0.032557 0.443247 -0.056418
v -0.032557 0.450019 -0.080194
v -0.047052 0.454519 -0.099708
v -0.025072 -0.030691 0.069181
v -0.033873 -0.027778 0.069196
v -0.039312 -0.020338 0.068199
v -0.039312 -0.011211 0.066570
v -0.033873 -0.003885 0.064933
v -0.025072 -0.001157 0.063911
v -0.016271 -0.004070 0.063896
v -0.010831 -0.011510 0.064893
v -0.010831 -0.020637 0.066522
v -0.016271 -0.027963 0.068159
v -0.026468 -0.034792 0.046195
v -0.035269 -0.031879 0.046210
v -0.040708 -0.024439 0.045213
v -0.040708 -0.015312 0.043585
v -0.035269 -0.007986 0.041947
v -0.026468 -0.005258 0.040926
v -0.017667 -0.008171 0.040911
v -0.012228 -0.015612 0.041908
v -0.012228 -0.024738 0.043536
v -0.017667 -0.032064 0.045174
v -0.026468 -0.034827 0.041130
v -0.035166 -0.032234 0.043020
v -0.040541 -0.024978 0.045117
v -0.040541 -0.015830 0.046619
v -0.035166 -0.008285 0.046953
v -0.026468 -0.005224 0.045991
v -0.017771 -0.007816 0.044101
v -0.012395 -0.015072 0.042004
v -0.012395 -0.024220 0.040502
v -0.017771 -0.031766 0.040168
v -0.029618 -0.031755 0.022427
v -0.038315 -0.029163 0.024317
v -0.043690 -0.021907 0.026414
v -0.043690 -0.012759 0.027917
v -0.038315 -0.005213 0.028251
v -0.029618 -0.002152 0.027289
v -0.020920 -0.004745 0.025398
v -0.015545 -0.012001 0.023301
v -0.015545 -0.021149 0.021799
v -0.020920 -0.028694 0.021465
v -0.029618 -0.031936 0.025578
v -0.037413 -0.028877 0.029556
v -0.042230 -0.021263 0.031739
v -0.042230 -0.012003 0.031293
v -0.037413 -0.004634 0.028390
v -0.029618 -0.001971 0.024137
v -0.021823 -0.005030 0.020160
v -0.017005 -0.012644 0.017977
v -0.017005 -0.021904 0.018422
v -0.021823 -0.029273 0.021326
v -0.042184 -0.033079 0.001829
v -0.049979 -0.030019 0.005807
v -0.054797 -0.022406 0.007989
v -0.054797 -0.013146 0.007544
v -0.049979 -0.005777 0.004640
v -0.042184 -0.003113 0.000388
v -0.034389 -0.006173 -0.003590
v -0.029571 -0.013786 -0.005772
v -0.029571 -0.023046 -0.005327
v -0.034389 -0.030415 -0.002424
v -0.042184 -0.033091 0.000740
v -0.051000 -0.030224 0.000680
v -0.056448 -0.022725 0.000784
v -0.056448 -0.013457 0.001012
v -0.051000 -0.005961 0.001277
v -0.042184 -0.003101 0.001477
v -0.033368 -0.005968 0.001537
v -0.027920 -0.013467 0.001433
v -0.027920 -0.022735 0.001205
v -0.033368 -0.030231 0.000940
v -0.041827 -0.032497 -0.023410
v -0.050643 -0.029630 -0.023470
v -0.056091 -0.022131 -0.023366
v -0.056091 -0.012863 -0.023138
v -0.050643 -0.005367 -0.022873
v -0.041827 -0.002506 -0.022673
v -0.033011 -0.005374 -0.022613
v -0.027563 -0.012873 -0.022717
v -0.027563 -0.022141 -0.022945
v -0.033011 -0.029637 -0.023210
v -0.025072 -0.030738 0.064192
v -0.033624 -0.027573 0.062526
v -0.038910 -0.019958 0.062395
v -0.038910 -0.010802 0.063850
v -0.033624 -0.003603 0.066335
v -0.025072 -0.001110 0.068900
v -0.016519 -0.004275 0.070566
v -0.011233 -0.011890 0.070697
v -0.011233 -0.021046 0.069242
v -0.016519 -0.028245 0.066757
v -0.006985 -0.019406 -0.007126
v -0.015537 -0.016241 -0.008792
v -0.020823 -0.008626 -0.008922
v -0.020823 0.000530 -0.007467
v -0.015537 0.007729 -0.004983
v -0.006985 0.010222 -0.002418
v 0.001568 0.007057 -0.000752
v 0.006854 -0.000558 -0.000621
v 0.006854 -0.009714 -0.002076
v 0.001568 -0.016913 -0.004560
v -0.006985 -0.011642 0.008468
v -0.014029 -0.014975 0.003448
v -0.018383 -0.014342 -0.004712
v -0.018383 -0.009985 -0.012895
v -0.014029 -0.003568 -0.017975
v -0.006985 0.002458 -0.018012
v 0.000060 0.005791 -0.012991
v 0.004414 0.005158 -0.004831
v 0.004414 0.000801 0.003352
v 0.000060 -0.005616 0.008432
v 0.005587 -0.026387 0.000617
v -0.001457 -0.029720 -0.004403
v -0.005811 -0.029087 -0.012563
v -0.005811 -0.024730 -0.020746
v -0.001457 -0.018313 -0.025826
v 0.005587 -0.012287 -0.025863
v 0.012632 -0.008954 -0.020843
v 0.016986 -0.009587 -0.012683
v 0.016986 -0.013944 -0.004500
v 0.012632 -0.020361 0.000580
v 0.005587 -0.007294 -0.003680
v -0.002937 -0.010938 -0.003579
v -0.008205 -0.017789 -0.006933
v -0.008205 -0.025232 -0.012460
v -0.002937 -0.030423 -0.018049
v 0.005587 -0.031380 -0.021566
v 0.014111 -0.027736 -0.021667
v 0.019379 -0.020885 -0.018313
v 0.019379 -0.013442 -0.012786
v 0.014111 -0.008251 -0.007197
v 0.011732 -0.021154 0.014983
v 0.003208 -0.024797 0.015084
v -0.002060 -0.031648 0.011731
v -0.002060 -0.039091 0.006204
v 0.003208 -0.044282 0.000614
v 0.011732 -0.045239 -0.002903
v 0.020256 -0.041596 -0.003004
v 0.025524 -0.034744 0.000350
v 0.025524 -0.027301 0.005877
v 0.020256 -0.022110 0.011466
v 0.011732 -0.018219 0.006866
v 0.003154 -0.020967 0.004673
v -0.002147 -0.028386 0.003002
v -0.002147 -0.037643 0.002491
v 0.003154 -0.045201 0.003336
v 0.011732 -0.048173 0.005214
v 0.020310 -0.045425 0.007407
v 0.025611 -0.038006 0.009078
v 0.025611 -0.028750 0.009589
v 0.020310 -0.021192 0.008744
v 0.007383 -0.019227 0.025139
v -0.001195 -0.021975 0.022946
v -0.006496 -0.029395 0.021275
v -0.006496 -0.038651 0.020764
v -0.001195 -0.046209 0.021609
v 0.007383 -0.049182 0.023486
v 0.015961 -0.046434 0.025680
v 0.021262 -0.039014 0.027351
v 0.021262 -0.029758 0.027861
v 0.015961 -0.022200 0.027017
v -0.025072 -0.030564 0.063282
v -0.033393 -0.027135 0.061063
v -0.038537 -0.019423 0.060938
v -0.038537 -0.010374 0.062955
v -0.033393 -0.003446 0.066344
v -0.025072 -0.001283 0.069810
v -0.016750 -0.004713 0.072029
v -0.011606 -0.012425 0.072154
v -0.011606 -0.021474 0.070137
v -0.016750 -0.028402 0.066748
v 0.000010 -0.014968 -0.006670
v -0.008312 -0.011538 -0.008890
v -0.013455 -0.003826 -0.009014
v -0.013455 0.005222 -0.006997
v -0.008312 0.012151 -0.003608
v 0.000010 0.014313 -0.000142
v 0.008332 0.010883 0.002077
v 0.013475 0.003171 0.002202
v 0.013475 -0.005877 0.000184
v 0.008332 -0.012806 -0.003204
v 0.000010 -0.001720 0.011529
v -0.005410 -0.008379 0.008031
v -0.008759 -0.011962 0.000164
v -0.008759 -0.011101 -0.009066
v -0.005410 -0.006125 -0.016135
v 0.000010 0.001066 -0.018341
v 0.005429 0.007724 -0.014843
v 0.008779 0.011307 -0.006976
v 0.008779 0.010446 0.002254
v 0.005429 0.005470 0.009322
v 0.016562 -0.014564 0.010331
v 0.011143 -0.021223 0.006833
v 0.007793 -0.024806 -0.001034
v 0.007793 -0.023945 -0.010264
v 0.011143 -0.018969 -0.017333
v 0.016562 -0.011778 -0.019539
v 0.021982 -0.005120 -0.016041
v 0.025332 -0.001537 -0.008174
v 0.025332 -0.002398 0.001056
v 0.021982 -0.007374 0.008125
v 0.016562 -0.004228 0.007439
v 0.007829 -0.006910 0.005861
v 0.002432 -0.011983 0.000287
v 0.002432 -0.017510 -0.007156
v 0.007829 -0.021380 -0.013624
v 0.016562 -0.022114 -0.016647
v 0.025295 -0.019433 -0.015070
v 0.030693 -0.014360 -0.009495
v 0.030693 -0.008833 -0.002052
v 0.025295 -0.004963 0.004416
v 0.019752 -0.022673 0.021135
v 0.011019 -0.025354 0.019558
v 0.005621 -0.030427 0.013984
v 0.005621 -0.035954 0.006541
v 0.011019 -0.039824 0.000073
v 0.019752 -0.040559 -0.002950
v 0.028485 -0.037877 -0.001373
v 0.033882 -0.032804 0.004202
v 0.033882 -0.027277 0.011645
v 0.028485 -0.023407 0.018113
v 0.019752 -0.017433 0.004210
v 0.011006 -0.020504 0.004090
v 0.005600 -0.027819 0.005881
v 0.005600 -0.036585 0.008898
v 0.011006 -0.043452 0.011990
v 0.019752 -0.045799 0.013976
v 0.028498 -0.042727 0.014096
v 0.033903 -0.035412 0.012305
v 0.033903 -0.026646 0.009287
v 0.028498 -0.019779 0.006195
v 0.016455 -0.009002 0.028698
v 0.007709 -0.012073 0.028578
v 0.002303 -0.019388 0.030369
v 0.002303 -0.028154 0.033387
v 0.007709 -0.035021 0.036479
v 0.016455 -0.037367 0.038464
v 0.025201 -0.034296 0.038584
v 0.030607 -0.026981 0.036793
v 0.030607 -0.018215 0.033775
v 0.025201 -0.011348 0.030683
v -0.025072 -0.030261 0.062137
v -0.033157 -0.026490 0.059619
v -0.038154 -0.018683 0.059747
v -0.038154 -0.009822 0.062472
v -0.033157 -0.003291 0.066753
v -0.025072 -0.001587 0.070955
v -0.016986 -0.005358 0.073473
v -0.011989 -0.013165 0.073345
v -0.011989 -0.022026 0.070620
v -0.016986 -0.028556 0.066339
v 0.004328 -0.010385 -0.002497
v -0.003758 -0.006614 -0.005015
v -0.008755 0.001193 -0.004887
v -0.008755 0.010054 -0.002162
v -0.003758 0.016584 0.002119
v 0.004328 0.018289 0.006321
v 0.012413 0.014518 0.008839
v 0.017411 0.006711 0.008711
v 0.017411 -0.002150 0.005987
v 0.012413 -0.008681 0.001705
v 0.004328 0.002316 0.016823
v -0.003007 -0.002234 0.013442
v -0.007541 -0.004422 0.005657
v -0.007541 -0.003411 -0.003558
v -0.003007 0.000412 -0.010684
v 0.004328 0.005587 -0.012998
v 0.011663 0.010138 -0.009617
v 0.016196 0.012326 -0.001832
v 0.016196 0.011315 0.007383
v 0.011663 0.007492 0.014509
v 0.017185 -0.016847 0.014721
v 0.009850 -0.021398 0.011340
v 0.005317 -0.023585 0.003555
v 0.005317 -0.022574 -0.005661
v 0.009850 -0.018751 -0.012786
v 0.017185 -0.013576 -0.015100
v 0.024520 -0.009025 -0.011719
v 0.029054 -0.006838 -0.003934
v 0.029054 -0.007849 0.005281
v 0.024520 -0.011672 0.012407
v 0.017185 -0.004058 0.009840
v 0.008369 -0.006103 0.007830
v 0.002921 -0.011628 0.002757
v 0.002921 -0.018521 -0.003441
v 0.008369 -0.024150 -0.008398
v 0.017185 -0.026365 -0.010219
v 0.026001 -0.024320 -0.008210
v 0.031449 -0.018795 -0.003137
v 0.031449 -0.011902 0.003062
v 0.026001 -0.006272 0.008018
v 0.016895 -0.017584 0.024882
v 0.008079 -0.019630 0.022873
v 0.002631 -0.025154 0.017800
v 0.002631 -0.032048 0.011601
v 0.008079 -0.037677 0.006644
v 0.016895 -0.039892 0.004823
v 0.025711 -0.037846 0.006832
v 0.031159 -0.032321 0.011905
v 0.031159 -0.025428 0.018104
v 0.025711 -0.019799 0.023061
v 0.016895 -0.014437 0.010326
v 0.008078 -0.017156 0.011229
v 0.002629 -0.024299 0.013516
v 0.002629 -0.033137 0.016313
v 0.008078 -0.040295 0.018553
v 0.016895 -0.043038 0.019379
v 0.025712 -0.040319 0.018476
v 0.031161 -0.033177 0.016189
v 0.031161 -0.024338 0.013392
v 0.025712 -0.017180 0.011152
v 0.016990 -0.008150 0.030188
v 0.008173 -0.010869 0.031091
v 0.002724 -0.018012 0.033378
v 0.002724 -0.026850 0.036176
v 0.008173 -0.034008 0.038415
v 0.016990 -0.036751 0.039242
v 0.025807 -0.034032 0.038339
v 0.031256 -0.026889 0.036052
v 0.031256 -0.018051 0.033254
v 0.025807 -0.010893 0.031014
v -0.025072 -0.030399 0.062611
v -0.032654 -0.026454 0.059021
v -0.037340 -0.018487 0.058305
v -0.037340 -0.009541 0.060737
v -0.032654 -0.003033 0.065388
v -0.025072 -0.001449 0.070481
v -0.017489 -0.005394 0.074071
v -0.012803 -0.013361 0.074787
v -0.012803 -0.022307 0.072355
v -0.017489 -0.028815 0.067704
v 0.007760 -0.015884 0.009222
v 0.000178 -0.011939 0.005632
v -0.004508 -0.003972 0.004916
v -0.004508 0.004973 0.007348
v 0.000178 0.011481 0.011999
v 0.007760 0.013065 0.017093
v 0.015343 0.009120 0.020683
v 0.020029 0.001154 0.021399
v 0.020029 -0.007792 0.018967
v 0.015343 -0.014300 0.014316
v 0.012792 -0.001409 0.027289
v 0.013083 -0.010125 0.024144
v 0.011341 -0.015512 0.016803
v 0.008232 -0.015512 0.008069
v 0.004942 -0.010125 0.001279
v 0.002729 -0.001409 -0.000973
v 0.002438 0.007307 0.002171
v 0.004179 0.012693 0.009512
v 0.007289 0.012693 0.018246
v 0.010579 0.007307 0.025036
v 0.029867 0.001355 0.021209
v 0.030158 -0.007361 0.018064
v 0.028416 -0.012748 0.010723
v 0.025307 -0.012748 0.001990
v 0.022017 -0.007361 -0.004800
v 0.019804 0.001355 -0.007053
v 0.019513 0.010071 -0.003908
v 0.021255 0.015458 0.003433
v 0.024364 0.015458 0.012166
v 0.027654 0.010071 0.018956
v 0.023317 0.001355 0.022001
v 0.025679 -0.007213 0.019362
v 0.027718 -0.012507 0.012030
v 0.028657 -0.012507 0.002808
v 0.028135 -0.007213 -0.004784
v 0.026354 0.001355 -0.007845
v 0.023992 0.009922 -0.005206
v 0.021953 0.015217 0.002126
v 0.021014 0.015217 0.011348
v 0.021536 0.009922 0.018940
v 0.044240 0.006466 0.024129
v 0.046601 -0.002101 0.021490
v 0.048640 -0.007396 0.014159
v 0.049579 -0.007396 0.004936
v 0.049057 -0.002101 -0.002656
v 0.047276 0.006466 -0.005717
v 0.044914 0.015034 -0.003077
v 0.042875 0.020329 0.004254
v 0.041936 0.020329 0.013477
v 0.042458 0.015034 0.021069
v 0.049727 0.006466 0.023672
v 0.049069 -0.002350 0.020882
v 0.047146 -0.007799 0.013632
v 0.044693 -0.007799 0.004692
v 0.042647 -0.002350 -0.002524
v 0.041788 0.006466 -0.005259
v 0.042446 0.015282 -0.002469
v 0.044369 0.020731 0.004781
v 0.046822 0.020731 0.013721
v 0.048868 0.015282 0.020937
v 0.069923 0.006713 0.018130
v 0.069265 -0.002103 0.015340
v 0.067342 -0.007552 0.008090
v 0.064889 -0.007552 -0.000850
v 0.062843 -0.002103 -0.008065
v 0.061984 0.006713 -0.010801
v 0.062642 0.015529 -0.008010
v 0.064565 0.020978 -0.000761
v 0.067018 0.020978 0.008179
v 0.069064 0.015529 0.015395
f 1 2 13
f 2 14 13
f 2 3 14
f 3 15 14
f 3 4 15
f 4 16 15
f 4 5 16
f 5 17 16
f 5 6 17
f 6 18 17
f 6 7 18
f 7 19 18
f 7 8 19
f 8 20 19
f 8 9 20
f 9 21 20
f 9 10 21
f 10 22 21
f 10 11 22
f 11 23 22
f 11 12 23
f 12 24 23
f 13 14 25
f 14 26 25
f 14 15 26
f 15 27 26
f 15 16 27
f 16 28 27
f 16 17 28
f 17 29 28
f 17 18 29
f 18 30 29
f 18 19 30
f 19 31 30
f 19 20 31
f 20 32 31
f 20 21 32
f 21 33 32
f 21 22 33
f 22 34 33
f 22 23 34
f 23 35 34
f 23 24 35
f 24 36 35
f 25 26 37
f 26 38 37
f 26 27 38
f 27 39 38
f 27 28 39
f 28 40 39
f 28 29 40
f 29 41 40
f 29 30 41
f 30 42 41
f 30 31 42
f 31 43 42
f 31 32 43
f 32 44 43
f 32 33 44
f 33 45 44
f 33 34 45
f 34 46 45
f 34 35 46
f 35 47 46
f 35 36 47
f 36 48 47
f 37 38 49
f 38 50 49
f 38 39 50
f 39 51 50
f 39 40 51
f 40 52 51
f 40 41 52
f 41 53 52
f 41 42 53
f 42 54 53
f 42 43 54
f 43 55 54
f 43 44 55
f 44 56 55
f 44 45 56
f 45 57 56
f 45 46 57
f 46 58 57
f 46 47 58
f 47 59 58
f 47 48 59
f 48 60 59
f 49 50 61
f 50 62 61
f 50 51 62
f 51 63 62
f 51 52 63
f 52 64 63
f 52 53 64
f 53 65 64
f 53 54 65
f 54 66 65
f 54 55 66
f 55 67 66
f 55 56 67
f 56 68 67
f 56 57 68
f 57 69 68
f 57 58 69
f 58 70 69
f 58 59 70
f 59 71 70
f 59 60 71
f 60 72 71
f 61 62 73
f 62 74 73
f 62 63 74
f 63 75 74
f 63 64 75
f 64 76 75
f 64 65 76
f 65 77 76
f 65 66 77
f 66 78 77
f 66 67 78
f 67 79 78
f 67 68 79
f 68 80 79
f 68 69 80
f 69 81 80
f 69 70 81
f 70 82 81
f 70 71 82
f 71 83 82
f 71 72 83
f 72 84 83
f 73 74 85
f 74 86 85
f 74 75 86
f 75 87 86
f 75 76 87
f 76 88 87
f 76 77 88
f 77 89 88
f 77 78 89
f 78 90 89
f 78 79 90
f 79 91 90
f 79 80 91
f 80 92 91
f 80 81 92
f 81 93 92
f 81 82 93
f 82 94 93
f 82 83 94
f 83 95 94
f 83 84 95
f 84 96 95
f 85 86 97
f 86 98 97
f 86 87 98
f 87 99 98
f 87 88 99
f 88 100 99
f 88 89 100
f 89 101 100
f 89 90 101
f 90 102 101
f 90 91 102
f 91 103 102
f 91 92 103
f 92 104 103
f 92 93 104
f 93 105 104
f 93 94 105
f 94 106 105
f 94 95 106
f 95 107 106
f 95 96 107
f 96 108 107
f 97 98 109
f 98 110 109
f 98 99 110
f 99 111 110
f 99 100 111
f 100 112 111
f 100 101 112
f 101 113 112
f 101 102 113
f 102 114 113
f 102 103 114
f 103 115 114
f 103 104 115
f 104 116 115
f 104 105 116
f 105 117 116
f 105 106 117
f 106 118 117
f 106 107 118
f 107 119 118
f 107 108 119
f 108 120 119
f 109 110 121
f 110 122 121
f 110 111 122
f 111 123 122
f 111 112 123
f 112 124 123
f 112 113 124
f 113 125 124
f 113 114 125
f 114 126 125
f 114 115 126
f 115 127 126
f 115 116 127
f 116 128 127
f 116 117 128
f 117 129 128
f 117 118 129
f 118 130 129
f 118 119 130
f 119 131 130
f 119 120 131
f 120 132 131
f 121 122 133
f 122 134 133
f 122 123 134
f 123 135 134
f 123 124 135
f 124 136 135
f 124 125 136
f 125 137 136
f 125 126 137
f 126 138 137
f 126 127 138
f 127 139 138
f 127 128 139
f 128 140 139
f 128 129 140
f 129 141 140
f 129 130 141
f 130 142 141
f 130 131 142
f 131 143 142
f 131 132 143
f 132 144 143
f 145 146 155
f 146 156 155
f 146 147 156
f 147 157 156
f 147 148 157
f 148 158 157
f 148 149 158
f 149 159 158
f 149 150 159
f 150 160 159
f 150 151 160
f 151 161 160
f 151 152 161
f 152 162 161
f 152 153 162
f 153 163 162
f 153 154 163
f 154 164 163
f 154 145 164
f 145 155 164
f 165 166 175
f 166 176 175
f 166 167 176
f 167 177 176
f 167 168 177
f 168 178 177
f 168 169 178
f 169 179 178
f 169 170 179
f 170 180 179
f 170 171 180
f 171 181 180
f 171 172 181
f 172 182 181
f 172 173 182
f 173 183 182
f 173 174 183
f 174 184 183
f 174 165 184
f 165 175 184
f 185 186 195
f 186 196 195
f 186 187 196
f 187 197 196
f 187 188 197
f 188 198 197
f 188 189 198
f 189 199 198
f 189 190 199
f 190 200 199
f 190 191 200
f 191 201 200
f 191 192 201
f 192 202 201
f 192 193 202
f 193 203 202
f 193 194 203
f 194 204 203
f 194 185 204
f 185 195 204
f 205 206 215
f 206 216 215
f 206 207 216
f 207 217 216
f 207 208 217
f 208 218 217
f 208 209 218
f 209 219 218
f 209 210 219
f 210 220 219
f 210 211 220
f 211 221 220
f 211 212 221
f 212 222 221
f 212 213 222
f 213 223 222
f 213 214 223
f 214 224 223
f 214 205 224
f 205 215 224
f 225 226 235
f 226 236 235
f 226 227 236
f 227 237 236
f 227 228 237
f 228 238 237
f 228 229 238
f 229 239 238
f 229 230 239
f 230 240 239
f 230 231 240
f 231 241 240
f 231 232 241
f 232 242 241
f 232 233 242
f 233 243 242
f 233 234 243
f 234 244 243
f 234 225 244
f 225 235 244
f 245 246 255
f 246 256 255
f 246 247 256
f 247 257 256
f 247 248 257
f 248 258 257
f 248 249 258
f 249 259 258
f 249 250 259
f 250 260 259
f 250 251 260
f 251 261 260
f 251 252 261
f 252 262 261
f 252 253 262
f 253 263 262
f 253 254 263
f 254 264 263
f 254 245 264
f 245 255 264
f 265 266 275
f 266 276 275
f 266 267 276
f 267 277 276
f 267 268 277
f 268 278 277
f 268 269 278
f 269 279 278
f 269 270 279
f 270 280 279
f 270 271 280
f 271 281 280
f 271 272 281
f 272 282 281
f 272 273 282
f 273 283 282
f 273 274 283
f 274 284 283
f 274 265 284
f 265 275 284
f 285 286 295
f 286 296 295
f 286 287 296
f 287 297 296
f 287 288 297
f 288 298 297
f 288 289 298
f 289 299 298
f 289 290 299
f 290 300 299
f 290 291 300
f 291 301 300
f 291 292 301
f 292 302 301
f 292 293 302
f 293 303 302
f 293 294 303
f 294 304 303
f 294 285 304
f 285 295 304
f 305 306 315
f 306 316 315
f 306 307 316
f 307 317 316
f 307 308 317
f 308 318 317
f 308 309 318
f 309 319 318
f 309 310 319
f 310 320 319
f 310 311 320
f 311 321 320
f 311 312 321
f 312 322 321
f 312 313 322
f 313 323 322
f 313 314 323
f 314 324 323
f 314 305 324
f 305 315 324
f 325 326 335
f 326 336 335
f 326 327 336
f 327 337 336
f 327 328 337
f 328 338 337
f 328 329 338
f 329 339 338
f 329 330 339
f 330 340 339
f 330 331 340
f 331 341 340
f 331 332 341
f 332 342 341
f 332 333 342
f 333 343 342
f 333 334 343
f 334 344 343
f 334 325 344
f 325 335 344
f 345 346 355
f 346 356 355
f 346 347 356
f 347 357 356
f 347 348 357
f 348 358 357
f 348 349 358
f 349 359 358
f 349 350 359
f 350 360 359
f 350 351 360
f 351 361 360
f 351 352 361
f 352 362 361
f 352 353 362
f 353 363 362
f 353 354 363
f 354 364 363
f 354 345 364
f 345 355 364
f 365 366 375
f 366 376 375
f 366 367 376
f 367 377 376
f 367 368 377
f 368 378 377
f 368 369 378
f 369 379 378
f 369 370 379
f 370 380 379
f 370 371 380
f 371 381 380
f 371 372 381
f 372 382 381
f 372 373 382
f 373 383 382
f 373 374 383
f 374 384 383
f 374 365 384
f 365 375 384
f 385 386 395
f 386 396 395
f 386 387 396
f 387 397 396
f 387 388 397
f 388 398 397
f 388 389 398
f 389 399 398
f 389 390 399
f 390 400 399
f 390 391 400
f 391 401 400
f 391 392 401
f 392 402 401
f 392 393 402
f 393 403 402
f 393 394 403
f 394 404 403
f 394 385 404
f 385 395 404
f 405 406 415
f 406 416 415
f 406 407 416
f 407 417 416
f 407 408 417
f 408 418 417
f 408 409 418
f 409 419 418
f 409 410 419
f 410 420 419
f 410 411 420
f 411 421 420
f 411 412 421
f 412 422 421
f 412 413 422
f 413 423 422
f 413 414 423
f 414 424 423
f 414 405 424
f 405 415 424
f 425 426 435
f 426 436 435
f 426 427 436
f 427 437 436
f 427 428 437
f 428 438 437
f 428 429 438
f 429 439 438
f 429 430 439
f 430 440 439
f 430 431 440
f 431 441 440
f 431 432 441
f 432 442 441
f 432 433 442
f 433 443 442
f 433 434 443
f 434 444 443
f 434 425 444
f 425 435 444
f 445 446 455
f 446 456 455
f 446 447 456
f 447 457 456
f 447 448 457
f 448 458 457
f 448 449 458
f 449 459 458
f 449 450 459
f 450 460 459
f 450 451 460
f 451 461 460
f 451 452 461
f 452 462 461
f 452 453 462
f 453 463 462
f 453 454 463
f 454 464 463
f 454 445 464
f 445 455 464
f 465 466 475
f 466 476 475
f 466 467 476
f 467 477 476
f 467 468 477
f 468 478 477
f 468 469 478
f 469 479 478
f 469 470 479
f 470 480 479
f 470 471 480
f 471 481 480
f 471 472 481
f 472 482 481
f 472 473 482
f 473 483 482
f 473 474 483
f 474 484 483
f 474 465 484
f 465 475 484
f 485 486 495
f 486 496 495
f 486 487 496
f 487 497 496
f 487 488 497
f 488 498 497
f 488 489 498
f 489 499 498
f 489 490 499
f 490 500 499
f 490 491 500
f 491 501 500
f 491 492 501
f 492 502 501
f 492 493 502
f 493 503 502
f 493 494 503
f 494 504 503
f 494 485 504
f 485 495 504
f 505 506 515
f 506 516 515
f 506 507 516
f 507 517 516
f 507 508 517
f 508 518 517
f 508 509 518
f 509 519 518
f 509 510 519
f 510 520 519
f 510 511 520
f 511 521 520
f 511 512 521
f 512 522 521
f 512 513 522
f 513 523 522
f 513 514 523
f 514 524 523
f 514 505 524
f 505 515 524
f 525 526 535
f 526 536 535
f 526 527 536
f 527 537 536
f 527 528 537
f 528 538 537
f 528 529 538
f 529 539 538
f 529 530 539
f 530 540 539
f 530 531 540
f 531 541 540
f 531 532 541
f 532 542 541
f 532 533 542
f 533 543 542
f 533 534 543
f 534 544 543
f 534 525 544
f 525 535 544
f 545 546 555
f 546 556 555
f 546 547 556
f 547 557 556
f 547 548 557
f 548 558 557
f 548 549 558
f 549 559 558
f 549 550 559
f 550 560 559
f 550 551 560
f 551 561 560
f 551 552 561
f 552 562 561
f 552 553 562
f 553 563 562
f 553 554 563
f 554 564 563
f 554 545 564
f 545 555 564
f 565 566 575
f 566 576 575
f 566 567 576
f 567 577 576
f 567 568 577
f 568 578 577
f 568 569 578
f 569 579 578
f 569 570 579
f 570 580 579
f 570 571 580
f 571 581 580
f 571 572 581
f 572 582 581
f 572 573 582
f 573 583 582
f 573 574 583
f 574 584 583
f 574 565 584
f 565 575 584
f 585 586 595
f 586 596 595
f 586 587 596
f 587 597 596
f 587 588 597
f 588 598 597
f 588 589 598
f 589 599 598
f 589 590 599
f 590 600 599
f 590 591 600
f 591 601 600
f 591 592 601
f 592 602 601
f 592 593 602
f 593 603 602
f 593 594 603
f 594 604 603
f 594 585 604
f 585 595 604
f 605 606 615
f 606 616 615
f 606 607 616
f 607 617 616
f 607 608 617
f 608 618 617
f 608 609 618
f 609 619 618
f 609 610 619
f 610 620 619
f 610 611 620
f 611 621 620
f 611 612 621
f 612 622 621
f 612 613 622
f 613 623 622
f 613 614 623
f 614 624 623
f 614 605 624
f 605 615 624
f 625 626 635
f 626 636 635
f 626 627 636
f 627 637 636
f 627 628 637
f 628 638 637
f 628 629 638
f 629 639 638
f 629 630 639
f 630 640 639
f 630 631 640
f 631 641 640
f 631 632 641
f 632 642 641
f 632 633 642
f 633 643 642
f 633 634 643
f 634 644 643
f 634 625 644
f 625 635 644
f 645 646 655
f 646 656 655
f 646 647 656
f 647 657 656
f 647 648 657
f 648 658 657
f 648 649 658
f 649 659 658
f 649 650 659
f 650 660 659
f 650 651 660
f 651 661 660
f 651 652 661
f 652 662 661
f 652 653 662
f 653 663 662
f 653 654 663
f 654 664 663
f 654 645 664
f 645 655 664
f 665 666 675
f 666 676 675
f 666 667 676
f 667 677 676
f 667 668 677
f 668 678 677
f 668 669 678
f 669 679 678
f 669 670 679
f 670 680 679
f 670 671 680
f 671 681 680
f 671 672 681
f 672 682 681
f 672 673 682
f 673 683 682
f 673 674 683
f 674 684 683
f 674 665 684
f 665 675 684
f 685 686 695
f 686 696 695
f 686 687 696
f 687 697 696
f 687 688 697
f 688 698 697
f 688 689 698
f 689 699 698
f 689 690 699
f 690 700 699
f 690 691 700
f 691 701 700
f 691 692 701
f 692 702 701
f 692 693 702
f 693 703 702
f 693 694 703
f 694 704 703
f 694 685 704
f 685 695 704
f 705 706 715
f 706 716 715
f 706 707 716
f 707 717 716
f 707 708 717
f 708 718 717
f 708 709 718
f 709 719 718
f 709 710 719
f 710 720 719
f 710 711 720
f 711 721 720
f 711 712 721
f 712 722 721
f 712 713 722
f 713 723 722
f 713 714 723
f 714 724 723
f 714 705 724
f 705 715 724
f 725 726 735
f 726 736 735
f 726 727 736
f 727 737 736
f 727 728 737
f 728 738 737
f 728 729 738
f 729 739 738
f 729 730 739
f 730 740 739
f 730 731 740
f 731 741 740
f 731 732 741
f 732 742 741
f 732 733 742
f 733 743 742
f 733 734 743
f 734 744 743
f 734 725 744
f 725 735 744
f 745 746 755
f 746 756 755
f 746 747 756
f 747 757 756
f 747 748 757
f 748 758 757
f 748 749 758
f 749 759 758
f 749 750 759
f 750 760 759
f 750 751 760
f 751 761 760
f 751 752 761
f 752 762 761
f 752 753 762
f 753 763 762
f 753 754 763
f 754 764 763
f 754 745 764
f 745 755 764
f 765 766 775
f 766 776 775
f 766 767 776
f 767 777 776
f 767 768 777
f 768 778 777
f 768 769 778
f 769 779 778
f 769 770 779
f 770 780 779
f 770 771 780
f 771 781 780
f 771 772 781
f 772 782 781
f 772 773 782
f 773 783 782
f 773 774 783
f 774 784 783
f 774 765 784
f 765 775 784
