# Full-Body 3D Mesh - Frame 314
v 0.027986 -0.615417 -0.094587
v 0.061794 -0.615417 -0.099448
v 0.092863 -0.615417 -0.113637
v 0.118676 -0.615417 -0.136004
v 0.137142 -0.615417 -0.164738
v 0.146765 -0.615417 -0.197510
v 0.146765 -0.615417 -0.231665
v 0.137142 -0.615417 -0.264437
v 0.118676 -0.615417 -0.293171
v 0.092863 -0.615417 -0.315538
v 0.061794 -0.615417 -0.329727
v 0.027986 -0.615417 -0.334587
v 0.027986 -0.615417 -0.094587
v 0.056427 -0.597139 -0.099448
v 0.082564 -0.580341 -0.113637
v 0.104280 -0.566386 -0.136004
v 0.119814 -0.556403 -0.164738
v 0.127909 -0.551200 -0.197510
v 0.127909 -0.551200 -0.231665
v 0.119814 -0.556403 -0.264437
v 0.104280 -0.566386 -0.293171
v 0.082564 -0.580341 -0.315538
v 0.056427 -0.597139 -0.329727
v 0.027986 -0.615417 -0.334587
v 0.027986 -0.615417 -0.094587
v 0.042031 -0.584664 -0.099448
v 0.054937 -0.556403 -0.113637
v 0.065660 -0.532922 -0.136004
v 0.073331 -0.516125 -0.164738
v 0.077329 -0.507372 -0.197510
v 0.077329 -0.507372 -0.231665
v 0.073331 -0.516125 -0.264437
v 0.065660 -0.532922 -0.293171
v 0.054937 -0.556403 -0.315538
v 0.042031 -0.584664 -0.329727
v 0.027986 -0.615417 -0.334587
v 0.027986 -0.615417 -0.094587
v 0.023175 -0.581953 -0.099448
v 0.018754 -0.551200 -0.113637
v 0.015080 -0.525650 -0.136004
v 0.012452 -0.507372 -0.164738
v 0.011083 -0.497847 -0.197510
v 0.011083 -0.497847 -0.231665
v 0.012452 -0.507372 -0.264437
v 0.015080 -0.525650 -0.293171
v 0.018754 -0.551200 -0.315538
v 0.023175 -0.581953 -0.329727
v 0.027986 -0.615417 -0.334587
v 0.027986 -0.615417 -0.094587
v 0.005847 -0.589866 -0.099448
v -0.014499 -0.566386 -0.113637
v -0.031403 -0.546878 -0.136004
v -0.043495 -0.532922 -0.164738
v -0.049797 -0.525650 -0.197510
v -0.049797 -0.525650 -0.231665
v -0.043495 -0.532922 -0.264437
v -0.031403 -0.546878 -0.293171
v -0.014499 -0.566386 -0.315538
v 0.005847 -0.589866 -0.329727
v 0.027986 -0.615417 -0.334587
v 0.027986 -0.615417 -0.094587
v -0.004452 -0.605892 -0.099448
v -0.034262 -0.597139 -0.113637
v -0.059030 -0.589866 -0.136004
v -0.076748 -0.584664 -0.164738
v -0.085981 -0.581953 -0.197510
v -0.085981 -0.581953 -0.231665
v -0.076748 -0.584664 -0.264437
v -0.059030 -0.589866 -0.293171
v -0.034262 -0.597139 -0.315538
v -0.004452 -0.605892 -0.329727
v 0.027986 -0.615417 -0.334587
v 0.027986 -0.615417 -0.094587
v -0.004452 -0.624941 -0.099448
v -0.034262 -0.633695 -0.113637
v -0.059030 -0.640967 -0.136004
v -0.076748 -0.646169 -0.164738
v -0.085981 -0.648880 -0.197510
v -0.085981 -0.648880 -0.231665
v -0.076748 -0.646169 -0.264437
v -0.059030 -0.640967 -0.293171
v -0.034262 -0.633695 -0.315538
v -0.004452 -0.624941 -0.329727
v 0.027986 -0.615417 -0.334587
v 0.027986 -0.615417 -0.094587
v 0.005847 -0.640967 -0.099448
v -0.014499 -0.664447 -0.113637
v -0.031403 -0.683955 -0.136004
v -0.043495 -0.697911 -0.164738
v -0.049797 -0.705183 -0.197510
v -0.049797 -0.705183 -0.231665
v -0.043495 -0.697911 -0.264437
v -0.031403 -0.683955 -0.293171
v -0.014499 -0.664447 -0.315538
v 0.005847 -0.640967 -0.329727
v 0.027986 -0.615417 -0.334587
v 0.027986 -0.615417 -0.094587
v 0.023175 -0.648880 -0.099448
v 0.018754 -0.679633 -0.113637
v 0.015080 -0.705183 -0.136004
v 0.012452 -0.723461 -0.164738
v 0.011083 -0.732986 -0.197510
v 0.011083 -0.732986 -0.231665
v 0.012452 -0.723461 -0.264437
v 0.015080 -0.705183 -0.293171
v 0.018754 -0.679633 -0.315538
v 0.023175 -0.648880 -0.329727
v 0.027986 -0.615417 -0.334587
v 0.027986 -0.615417 -0.094587
v 0.042031 -0.646169 -0.099448
v 0.054937 -0.674431 -0.113637
v 0.065660 -0.697911 -0.136004
v 0.073331 -0.714708 -0.164738
v 0.077329 -0.723461 -0.197510
v 0.077329 -0.723461 -0.231665
v 0.073331 -0.714708 -0.264437
v 0.065660 -0.697911 -0.293171
v 0.054937 -0.674431 -0.315538
v 0.042031 -0.646169 -0.329727
v 0.027986 -0.615417 -0.334587
v 0.027986 -0.615417 -0.094587
v 0.056427 -0.633695 -0.099448
v 0.082564 -0.650492 -0.113637
v 0.104280 -0.664447 -0.136004
v 0.119814 -0.674431 -0.164738
v 0.127909 -0.679633 -0.197510
v 0.127909 -0.679633 -0.231665
v 0.119814 -0.674431 -0.264437
v 0.104280 -0.664447 -0.293171
v 0.082564 -0.650492 -0.315538
v 0.056427 -0.633695 -0.329727
v 0.027986 -0.615417 -0.334587
v 0.027986 -0.615417 -0.094587
v 0.061794 -0.615417 -0.099448
v 0.092863 -0.615417 -0.113637
v 0.118676 -0.615417 -0.136004
v 0.137142 -0.615417 -0.164738
v 0.146765 -0.615417 -0.197510
v 0.146765 -0.615417 -0.231665
v 0.137142 -0.615417 -0.264437
v 0.118676 -0.615417 -0.293171
v 0.092863 -0.615417 -0.315538
v 0.061794 -0.615417 -0.329727
v 0.027986 -0.615417 -0.334587
v 0.168941 -0.425133 -0.083454
v 0.169842 -0.448619 -0.075792
v 0.170046 -0.463135 -0.055782
v 0.169476 -0.463135 -0.031067
v 0.168350 -0.448619 -0.011088
v 0.167098 -0.425133 -0.003476
v 0.166197 -0.401646 -0.011138
v 0.165993 -0.387130 -0.031148
v 0.166563 -0.387130 -0.055862
v 0.167689 -0.401646 -0.075842
v -0.155166 -0.439995 -0.090925
v -0.154266 -0.463482 -0.083262
v -0.154061 -0.477997 -0.063252
v -0.154631 -0.477997 -0.038538
v -0.155757 -0.463482 -0.018558
v -0.157010 -0.439995 -0.010946
v -0.157910 -0.416508 -0.018608
v -0.158114 -0.401993 -0.038618
v -0.157545 -0.401993 -0.063333
v -0.156419 -0.416508 -0.083312
v 0.168019 -0.429641 -0.083210
v 0.145387 -0.422453 -0.076337
v 0.131399 -0.416288 -0.056908
v 0.131399 -0.413502 -0.032344
v 0.145387 -0.415158 -0.012028
v 0.168019 -0.420624 -0.003720
v 0.190652 -0.427812 -0.010593
v 0.204640 -0.433977 -0.030022
v 0.204640 -0.436764 -0.054585
v 0.190652 -0.435108 -0.074902
v 0.238440 -0.180949 -0.111422
v 0.215807 -0.173761 -0.104549
v 0.201820 -0.167596 -0.085120
v 0.201820 -0.164809 -0.060556
v 0.215807 -0.166465 -0.040240
v 0.238440 -0.171932 -0.031932
v 0.261073 -0.179120 -0.038805
v 0.275060 -0.185285 -0.058234
v 0.275060 -0.188071 -0.082797
v 0.261073 -0.186415 -0.103114
v 0.238440 -0.183260 -0.111091
v 0.215128 -0.178945 -0.104085
v 0.200721 -0.173673 -0.084700
v 0.200721 -0.169458 -0.060341
v 0.215128 -0.167910 -0.040311
v 0.238440 -0.169621 -0.032262
v 0.261752 -0.173936 -0.039269
v 0.276159 -0.179208 -0.058654
v 0.276159 -0.183422 -0.083013
v 0.261752 -0.184970 -0.103042
v 0.261040 -0.013469 -0.140469
v 0.237728 -0.009154 -0.133463
v 0.223321 -0.003882 -0.114078
v 0.223321 0.000332 -0.089718
v 0.237728 0.001880 -0.069689
v 0.261040 0.000170 -0.061640
v 0.284352 -0.004145 -0.068647
v 0.298759 -0.009417 -0.088032
v 0.298759 -0.013632 -0.112391
v 0.284352 -0.015179 -0.132420
v -0.156088 -0.464161 -0.082810
v -0.175573 -0.470030 -0.068773
v -0.187616 -0.464427 -0.047923
v -0.187616 -0.449491 -0.028224
v -0.175573 -0.430928 -0.017199
v -0.156088 -0.415829 -0.019061
v -0.136602 -0.409960 -0.033097
v -0.124560 -0.415563 -0.053947
v -0.124560 -0.430499 -0.073646
v -0.136602 -0.449062 -0.084671
v -0.326043 -0.263587 -0.234878
v -0.345528 -0.269456 -0.220842
v -0.357571 -0.263853 -0.199992
v -0.357571 -0.248917 -0.180292
v -0.345528 -0.230355 -0.169268
v -0.326043 -0.215255 -0.171129
v -0.306558 -0.209386 -0.185165
v -0.294515 -0.214989 -0.206015
v -0.294515 -0.229925 -0.225715
v -0.306558 -0.248488 -0.236740
v -0.326043 -0.273081 -0.181392
v -0.346333 -0.273070 -0.195515
v -0.358874 -0.260206 -0.212498
v -0.358874 -0.239403 -0.225854
v -0.346333 -0.218608 -0.230482
v -0.326043 -0.205762 -0.224615
v -0.305753 -0.205773 -0.210492
v -0.293212 -0.218636 -0.193509
v -0.293212 -0.239439 -0.180153
v -0.305753 -0.260235 -0.175525
v -0.184195 -0.403996 -0.385294
v -0.204485 -0.403985 -0.399417
v -0.217025 -0.391122 -0.416400
v -0.217025 -0.370319 -0.429756
v -0.204485 -0.349523 -0.434384
v -0.184195 -0.336677 -0.428517
v -0.163904 -0.336688 -0.414394
v -0.151364 -0.349552 -0.397411
v -0.151364 -0.370355 -0.384055
v -0.163904 -0.391151 -0.379427
v 0.168019 -0.421628 -0.083311
v 0.144643 -0.424800 -0.075921
v 0.130195 -0.428098 -0.056134
v 0.130195 -0.430264 -0.031508
v 0.144643 -0.430470 -0.011449
v 0.168019 -0.428637 -0.003619
v 0.191396 -0.425465 -0.011009
v 0.205844 -0.422167 -0.030796
v 0.205844 -0.420001 -0.055422
v 0.191396 -0.419796 -0.075481
v 0.120477 0.019139 -0.044549
v 0.097100 0.015967 -0.037159
v 0.082653 0.012669 -0.017372
v 0.082653 0.010503 0.007254
v 0.097100 0.010297 0.027313
v 0.120477 0.012130 0.035143
v 0.143854 0.015302 0.027753
v 0.158302 0.018600 0.007966
v 0.158302 0.020766 -0.016660
v 0.143854 0.020972 -0.036719
v -0.156088 -0.434563 -0.090565
v -0.179510 -0.433577 -0.082719
v -0.193986 -0.435043 -0.062733
v -0.193986 -0.438400 -0.038240
v -0.179510 -0.442367 -0.018597
v -0.156088 -0.445427 -0.011306
v -0.132665 -0.446413 -0.019152
v -0.118189 -0.444947 -0.039138
v -0.118189 -0.441590 -0.063630
v -0.132665 -0.437623 -0.083273
v -0.119670 -0.020719 -0.033836
v -0.143092 -0.019733 -0.025990
v -0.157568 -0.021199 -0.006004
v -0.157568 -0.024556 0.018488
v -0.143092 -0.028522 0.038131
v -0.119670 -0.031583 0.045423
v -0.096247 -0.032569 0.037577
v -0.081771 -0.031103 0.017591
v -0.081771 -0.027746 -0.006902
v -0.096247 -0.023779 -0.026545
v 0.118731 0.015635 -0.044665
v 0.123087 -0.007529 -0.037209
v 0.126447 -0.021846 -0.017336
v 0.127526 -0.021846 0.007362
v 0.125913 -0.007529 0.027451
v 0.122224 0.015635 0.035259
v 0.117867 0.038799 0.027803
v 0.114508 0.053115 0.007931
v 0.113428 0.053115 -0.016767
v 0.115041 0.038799 -0.036857
v -0.121416 -0.026151 -0.034169
v -0.117060 -0.049315 -0.026713
v -0.113700 -0.063631 -0.006840
v -0.112621 -0.063631 0.017858
v -0.114234 -0.049315 0.037947
v -0.117923 -0.026151 0.045755
v -0.122280 -0.002987 0.038299
v -0.125639 0.011329 0.018427
v -0.126719 0.011329 -0.006271
v -0.125106 -0.002987 -0.026361
v 0.120477 0.006049 -0.043537
v 0.097172 0.010899 -0.036866
v 0.082769 0.017557 -0.017909
v 0.082769 0.023481 0.006092
v 0.097172 0.026408 0.025970
v 0.120477 0.025220 0.034132
v 0.143782 0.020370 0.027460
v 0.158185 0.013712 0.008503
v 0.158185 0.007788 -0.015498
v 0.143782 0.004861 -0.035376
v 0.136540 0.122927 -0.072385
v 0.113235 0.127776 -0.065713
v 0.098832 0.134434 -0.046757
v 0.098832 0.140358 -0.022756
v 0.113235 0.143285 -0.002878
v 0.136540 0.142097 0.005284
v 0.159845 0.137247 -0.001388
v 0.174248 0.130589 -0.020344
v 0.174248 0.124665 -0.044345
v 0.159845 0.121738 -0.064223
v 0.136540 0.153664 -0.067500
v 0.113150 0.151655 -0.059751
v 0.098695 0.142333 -0.041995
v 0.098695 0.129260 -0.021013
v 0.113150 0.117429 -0.004820
v 0.136540 0.111359 0.000399
v 0.159929 0.113369 -0.007350
v 0.174385 0.122690 -0.025106
v 0.174385 0.135763 -0.046088
v 0.159929 0.147594 -0.062281
v 0.174994 0.472806 0.131343
v 0.151604 0.470796 0.139092
v 0.137149 0.461475 0.156848
v 0.137149 0.448402 0.177830
v 0.151604 0.436571 0.194023
v 0.174994 0.430501 0.199242
v 0.198383 0.432511 0.191493
v 0.212839 0.441832 0.173737
v 0.212839 0.454905 0.152755
v 0.198383 0.466736 0.136562
v -0.119670 -0.065195 0.014487
v -0.143181 -0.057700 0.012998
v -0.157711 -0.038154 0.008757
v -0.157711 -0.014024 0.003384
v -0.143181 0.005474 -0.001069
v -0.119670 0.012893 -0.002901
v -0.096159 0.005398 -0.001412
v -0.081629 -0.014147 0.002829
v -0.081629 -0.038278 0.008202
v -0.096159 -0.057776 0.012655
v -0.121451 -0.117045 -0.218376
v -0.144962 -0.109550 -0.219865
v -0.159492 -0.090005 -0.224106
v -0.159492 -0.065874 -0.229479
v -0.144962 -0.046376 -0.233931
v -0.121451 -0.038957 -0.235763
v -0.097940 -0.046452 -0.234274
v -0.083410 -0.065998 -0.230033
v -0.083410 -0.090128 -0.224660
v -0.097940 -0.109627 -0.220207
v -0.121451 -0.083723 -0.266658
v -0.144597 -0.078543 -0.259688
v -0.158902 -0.073156 -0.240259
v -0.158902 -0.069620 -0.215792
v -0.144597 -0.069286 -0.195632
v -0.121451 -0.072280 -0.187481
v -0.098305 -0.077460 -0.194451
v -0.084000 -0.082846 -0.213880
v -0.084000 -0.086382 -0.238347
v -0.098305 -0.086717 -0.258507
v -0.067864 0.213553 -0.309619
v -0.091010 0.218733 -0.302649
v -0.105315 0.224119 -0.283220
v -0.105315 0.227655 -0.258753
v -0.091010 0.227990 -0.238593
v -0.067864 0.224996 -0.230442
v -0.044718 0.219816 -0.237412
v -0.030413 0.214430 -0.256842
v -0.030413 0.210894 -0.281309
v -0.044718 0.210559 -0.301468
v -0.031188 0.074208 -0.011612
v -0.034392 0.065892 -0.014165
v -0.036954 0.060752 -0.021442
v -0.037896 0.060752 -0.030665
v -0.036857 0.065892 -0.038310
v -0.034234 0.074208 -0.041457
v -0.031030 0.082524 -0.038905
v -0.028467 0.087664 -0.031627
v -0.027526 0.087664 -0.022405
v -0.028565 0.082524 -0.014759
v 0.006115 0.061003 -0.015419
v 0.002910 0.052687 -0.017972
v 0.000348 0.047548 -0.025249
v -0.000593 0.047548 -0.034472
v 0.000446 0.052687 -0.042117
v 0.003068 0.061003 -0.045264
v 0.006273 0.069320 -0.042712
v 0.008835 0.074459 -0.035434
v 0.009776 0.074459 -0.026212
v 0.008737 0.069320 -0.018567
v 0.004592 0.065409 -0.016003
v -0.001477 0.058454 -0.016863
v -0.005228 0.052473 -0.022872
v -0.005228 0.049750 -0.031733
v -0.001477 0.051326 -0.040064
v 0.004592 0.056598 -0.044680
v 0.010660 0.063553 -0.043820
v 0.014411 0.069534 -0.037812
v 0.014411 0.072257 -0.028950
v 0.010660 0.070681 -0.020620
v 0.032361 0.040220 -0.008264
v 0.026292 0.033265 -0.009124
v 0.022542 0.027284 -0.015133
v 0.022542 0.024561 -0.023994
v 0.026292 0.026137 -0.032324
v 0.032361 0.031409 -0.036941
v 0.038430 0.038364 -0.036081
v 0.042181 0.044345 -0.030073
v 0.042181 0.047068 -0.021211
v 0.038430 0.045492 -0.012881
v 0.032361 0.041333 -0.008655
v 0.024367 0.036822 -0.009951
v 0.019426 0.031926 -0.016079
v 0.019426 0.028515 -0.024700
v 0.024367 0.027893 -0.032519
v 0.032361 0.030296 -0.036551
v 0.040356 0.034807 -0.035255
v 0.045297 0.039703 -0.029126
v 0.045297 0.043114 -0.020506
v 0.040356 0.043736 -0.012686
v 0.048602 0.008862 0.004192
v 0.040607 0.004351 0.002896
v 0.035666 -0.000545 -0.003232
v 0.035666 -0.003956 -0.011853
v 0.040607 -0.004578 -0.019672
v 0.048602 -0.002175 -0.023704
v 0.056596 0.002336 -0.022408
v 0.061537 0.007232 -0.016279
v 0.061537 0.010643 -0.007659
v 0.056596 0.011265 0.000161
v 0.048602 0.009928 0.003722
v 0.039877 0.007529 0.001705
v 0.034485 0.003531 -0.004689
v 0.034485 -0.000538 -0.013018
v 0.039877 -0.003125 -0.020102
v 0.048602 -0.003241 -0.023233
v 0.057326 -0.000842 -0.021217
v 0.062719 0.003155 -0.014823
v 0.062719 0.007225 -0.006493
v 0.057326 0.009812 0.000590
v 0.054094 -0.023966 0.020281
v 0.045369 -0.026365 0.018265
v 0.039977 -0.030362 0.011871
v 0.039977 -0.034432 0.003542
v 0.045369 -0.037019 -0.003542
v 0.054094 -0.037135 -0.006673
v 0.062819 -0.034736 -0.004657
v 0.068211 -0.030738 0.001737
v 0.068211 -0.026669 0.010066
v 0.062819 -0.024082 0.017150
v -0.032711 0.080429 -0.012886
v -0.039573 0.074204 -0.013196
v -0.043814 0.067980 -0.018602
v -0.043814 0.064135 -0.027037
v -0.039573 0.064138 -0.035281
v -0.032711 0.067987 -0.040184
v -0.025849 0.074213 -0.039873
v -0.021608 0.080437 -0.034467
v -0.021608 0.084281 -0.026032
v -0.025849 0.084279 -0.017788
v 0.026954 0.013133 0.017788
v 0.020092 0.006907 0.017477
v 0.015851 0.000683 0.012071
v 0.015851 -0.003161 0.003636
v 0.020092 -0.003159 -0.004608
v 0.026954 0.000691 -0.009511
v 0.033816 0.006916 -0.009200
v 0.038057 0.013140 -0.003794
v 0.038057 0.016985 0.004641
v 0.033816 0.016982 0.012885
v 0.026954 -0.006592 0.010670
v 0.018562 -0.005190 0.006988
v 0.013375 0.000834 0.002219
v 0.013375 0.009180 -0.001818
v 0.018562 0.016659 -0.003579
v 0.026954 0.020415 -0.002393
v 0.035346 0.019013 0.001289
v 0.040532 0.012989 0.006059
v 0.040532 0.004644 0.010095
v 0.035346 -0.002836 0.011857
v 0.035630 -0.018317 -0.013572
v 0.027238 -0.016915 -0.017253
v 0.022051 -0.010891 -0.022023
v 0.022051 -0.002546 -0.026060
v 0.027238 0.004934 -0.027821
v 0.035630 0.008690 -0.026634
v 0.044022 0.007288 -0.022953
v 0.049208 0.001264 -0.018183
v 0.049208 -0.007081 -0.014147
v 0.044022 -0.014561 -0.012385
v 0.035630 -0.011947 -0.033298
v 0.027676 -0.013931 -0.028969
v 0.022760 -0.012432 -0.021254
v 0.022760 -0.008024 -0.013099
v 0.027676 -0.002389 -0.007619
v 0.035630 0.002320 -0.006908
v 0.043584 0.004304 -0.011237
v 0.048499 0.002805 -0.018953
v 0.048499 -0.001603 -0.027108
v 0.043584 -0.007238 -0.032587
v 0.028490 0.001186 -0.040398
v 0.020536 -0.000798 -0.036069
v 0.015620 0.000700 -0.028353
v 0.015620 0.005109 -0.020198
v 0.020536 0.010744 -0.014718
v 0.028490 0.015452 -0.014007
v 0.036444 0.017436 -0.018336
v 0.041360 0.015938 -0.026052
v 0.041360 0.011529 -0.034207
v 0.036444 0.005894 -0.039687
v 0.028490 0.015893 -0.040150
v 0.021190 0.010178 -0.040174
v 0.016679 0.003754 -0.035243
v 0.016679 -0.000927 -0.027241
v 0.021190 -0.002076 -0.019224
v 0.028490 0.000746 -0.014255
v 0.035790 0.006460 -0.014231
v 0.040302 0.012884 -0.019162
v 0.040302 0.017565 -0.027164
v 0.035790 0.018714 -0.035181
v 0.014162 0.034152 -0.029470
v 0.006862 0.028438 -0.029493
v 0.002351 0.022013 -0.024562
v 0.002351 0.017333 -0.016560
v 0.006862 0.016184 -0.008544
v 0.014162 0.019005 -0.003574
v 0.021462 0.024719 -0.003551
v 0.025974 0.031144 -0.008482
v 0.025974 0.035825 -0.016484
v 0.021462 0.036974 -0.024500
v -0.032711 0.080445 -0.012893
v -0.040831 0.076131 -0.014070
v -0.045850 0.071082 -0.020009
v -0.045850 0.067228 -0.028440
v -0.040831 0.066039 -0.036143
v -0.032711 0.067971 -0.040177
v -0.024590 0.072286 -0.038999
v -0.019572 0.077334 -0.033061
v -0.019572 0.081189 -0.024629
v -0.024590 0.082377 -0.016926
v 0.002606 0.004493 0.021832
v -0.005515 0.000179 0.020654
v -0.010534 -0.004870 0.014716
v -0.010534 -0.008724 0.006285
v -0.005515 -0.009913 -0.001419
v 0.002606 -0.007981 -0.005452
v 0.010726 -0.003666 -0.004275
v 0.015745 0.001382 0.001664
v 0.015745 0.005237 0.010095
v 0.010726 0.006425 0.017798
v 0.002606 -0.015608 0.013915
v -0.005768 -0.014013 0.010272
v -0.010944 -0.007732 0.005833
v -0.010944 0.000837 0.002295
v -0.005768 0.008420 0.001008
v 0.002606 0.012121 0.002464
v 0.010980 0.010526 0.006108
v 0.016155 0.004244 0.010547
v 0.016155 -0.004324 0.014085
v 0.010980 -0.011907 0.015372
v 0.014811 -0.029748 -0.020326
v 0.006437 -0.028154 -0.023969
v 0.001261 -0.021872 -0.028408
v 0.001261 -0.013304 -0.031946
v 0.006437 -0.005721 -0.033233
v 0.014811 -0.002020 -0.031777
v 0.023185 -0.003615 -0.028133
v 0.028360 -0.009896 -0.023694
v 0.028360 -0.018464 -0.020156
v 0.023185 -0.026047 -0.018869
v 0.014811 -0.022894 -0.039312
v 0.006242 -0.023390 -0.035810
v 0.000946 -0.021020 -0.028579
v 0.000946 -0.016687 -0.020383
v 0.006242 -0.012048 -0.014352
v 0.014811 -0.008874 -0.012790
v 0.023380 -0.008378 -0.016293
v 0.028675 -0.010748 -0.023523
v 0.028675 -0.015081 -0.031719
v 0.023380 -0.019720 -0.037750
v 0.008363 0.000636 -0.051750
v -0.000206 0.000139 -0.048247
v -0.005502 0.002510 -0.041017
v -0.005502 0.006842 -0.032821
v -0.000206 0.011481 -0.026790
v 0.008363 0.014656 -0.025227
v 0.016932 0.015152 -0.028730
v 0.022228 0.012781 -0.035960
v 0.022228 0.008449 -0.044156
v 0.016932 0.003810 -0.050187
v 0.008363 0.017643 -0.049672
v 0.000218 0.013216 -0.049786
v -0.004815 0.006662 -0.045586
v -0.004815 0.000483 -0.038674
v 0.000218 -0.002960 -0.031692
v 0.008363 -0.002351 -0.027306
v 0.016507 0.002075 -0.027191
v 0.021541 0.008630 -0.031392
v 0.021541 0.014808 -0.038303
v 0.016507 0.018251 -0.045285
v -0.001639 0.035628 -0.033593
v -0.009783 0.031201 -0.033708
v -0.014817 0.024647 -0.029507
v -0.014817 0.018468 -0.022596
v -0.009783 0.015026 -0.015614
v -0.001639 0.015634 -0.011228
v 0.006506 0.020060 -0.011113
v 0.011539 0.026615 -0.015313
v 0.011539 0.032793 -0.022225
v 0.006506 0.036236 -0.029207
v -0.032711 0.078775 -0.012247
v -0.041397 0.076459 -0.014514
v -0.046765 0.073284 -0.021373
v -0.046765 0.070462 -0.030204
v -0.041397 0.069071 -0.037633
v -0.032711 0.069642 -0.040823
v -0.024025 0.071957 -0.038555
v -0.018657 0.075132 -0.031696
v -0.018657 0.077955 -0.022866
v -0.024025 0.079346 -0.015437
v -0.018016 -0.001468 0.013399
v -0.026702 -0.003783 0.011131
v -0.032070 -0.006958 0.004272
v -0.032070 -0.009781 -0.004558
v -0.026702 -0.011172 -0.011987
v -0.018016 -0.010601 -0.015177
v -0.009331 -0.008286 -0.012910
v -0.003963 -0.005111 -0.006051
v -0.003963 -0.002288 0.002780
v -0.009331 -0.000897 0.010209
v -0.018016 -0.020535 0.002949
v -0.026393 -0.018470 -0.000443
v -0.031570 -0.011654 -0.004005
v -0.031570 -0.002692 -0.006377
v -0.026393 0.004993 -0.006653
v -0.018016 0.008466 -0.004727
v -0.009639 0.006401 -0.001336
v -0.004462 -0.000415 0.002227
v -0.004462 -0.009377 0.004599
v -0.009639 -0.017062 0.004875
v -0.007067 -0.029068 -0.029288
v -0.015444 -0.027003 -0.032680
v -0.020621 -0.020187 -0.036242
v -0.020621 -0.011225 -0.038614
v -0.015444 -0.003540 -0.038890
v -0.007067 -0.000067 -0.036964
v 0.001309 -0.002132 -0.033573
v 0.006487 -0.008948 -0.030010
v 0.006487 -0.017910 -0.027638
v 0.001309 -0.025595 -0.027362
v -0.007067 -0.020839 -0.046752
v -0.015847 -0.020376 -0.043812
v -0.021273 -0.017694 -0.036790
v -0.021273 -0.013818 -0.028368
v -0.015847 -0.010229 -0.021764
v -0.007067 -0.008296 -0.019500
v 0.001712 -0.008759 -0.022440
v 0.007138 -0.011441 -0.029463
v 0.007138 -0.015317 -0.037884
v 0.001712 -0.018906 -0.044488
v -0.009521 0.003360 -0.057889
v -0.018301 0.003823 -0.054949
v -0.023727 0.006505 -0.047927
v -0.023727 0.010381 -0.039505
v -0.018301 0.013970 -0.032901
v -0.009521 0.015902 -0.030637
v -0.000742 0.015439 -0.033577
v 0.004684 0.012758 -0.040599
v 0.004684 0.008882 -0.049021
v -0.000742 0.005293 -0.055625
v -0.009521 0.016831 -0.057422
v -0.018103 0.013684 -0.055879
v -0.023407 0.008988 -0.049899
v -0.023407 0.004538 -0.041766
v -0.018103 0.002034 -0.034587
v -0.009521 0.002431 -0.031104
v -0.000939 0.005579 -0.032647
v 0.004365 0.010274 -0.038627
v 0.004365 0.014724 -0.046760
v -0.000939 0.017229 -0.053939
v -0.015033 0.037369 -0.046185
v -0.023615 0.034222 -0.044641
v -0.028919 0.029526 -0.038661
v -0.028919 0.025076 -0.030528
v -0.023615 0.022572 -0.023349
v -0.015033 0.022969 -0.019867
v -0.006451 0.026117 -0.021410
v -0.001147 0.030812 -0.027390
v -0.001147 0.035262 -0.035523
v -0.006451 0.037767 -0.042702
v -0.032711 0.076663 -0.011737
v -0.041481 0.077088 -0.014711
v -0.046901 0.076413 -0.022202
v -0.046901 0.074896 -0.031347
v -0.041481 0.073116 -0.038655
v -0.032711 0.071753 -0.041332
v -0.023941 0.071328 -0.038358
v -0.018521 0.072003 -0.030868
v -0.018521 0.073521 -0.021722
v -0.023941 0.075300 -0.014415
v -0.040593 0.001398 0.000749
v -0.049363 0.001823 -0.002225
v -0.054783 0.001148 -0.009716
v -0.054783 -0.000369 -0.018861
v -0.049363 -0.002149 -0.026169
v -0.040593 -0.003512 -0.028847
v -0.031823 -0.003937 -0.025872
v -0.026403 -0.003262 -0.018382
v -0.026403 -0.001745 -0.009236
v -0.031823 0.000035 -0.001929
v -0.040593 -0.014531 -0.007458
v -0.048533 -0.013642 -0.012159
v -0.053441 -0.007945 -0.017582
v -0.053441 0.000382 -0.021656
v -0.048533 0.008160 -0.022823
v -0.040593 0.012417 -0.020640
v -0.032653 0.011528 -0.015938
v -0.027745 0.005831 -0.010515
v -0.027745 -0.002496 -0.006442
v -0.032653 -0.010274 -0.005274
v -0.029632 -0.024510 -0.027859
v -0.037573 -0.023621 -0.032560
v -0.042480 -0.017924 -0.037983
v -0.042480 -0.009597 -0.042056
v -0.037573 -0.001819 -0.043224
v -0.029632 0.002439 -0.041040
v -0.021692 0.001549 -0.036339
v -0.016784 -0.004147 -0.030916
v -0.016784 -0.012475 -0.026843
v -0.021692 -0.020253 -0.025675
v -0.029632 -0.021246 -0.045439
v -0.038355 -0.018354 -0.044215
v -0.043746 -0.012667 -0.039261
v -0.043746 -0.006357 -0.032469
v -0.038355 -0.001834 -0.026434
v -0.029632 -0.000826 -0.023461
v -0.020910 -0.003717 -0.024684
v -0.015519 -0.009404 -0.029638
v -0.015519 -0.015714 -0.036430
v -0.020910 -0.020237 -0.042465
v -0.026160 -0.003985 -0.061475
v -0.034883 -0.001094 -0.060251
v -0.040274 0.004593 -0.055298
v -0.040274 0.010903 -0.048506
v -0.034883 0.015426 -0.042471
v -0.026160 0.016434 -0.039497
v -0.017438 0.013543 -0.040721
v -0.012047 0.007856 -0.045675
v -0.012047 0.001546 -0.052466
v -0.017438 -0.002977 -0.058502
v -0.026160 0.013864 -0.063395
v -0.034648 0.010352 -0.062145
v -0.039894 0.005263 -0.056441
v -0.039894 0.000541 -0.048463
v -0.034648 -0.002009 -0.041258
v -0.026160 -0.001415 -0.037578
v -0.017673 0.002097 -0.038828
v -0.012427 0.007186 -0.044531
v -0.012427 0.011908 -0.052509
v -0.017673 0.014458 -0.059714
v -0.031346 0.029739 -0.054000
v -0.039834 0.026227 -0.052749
v -0.045079 0.021138 -0.047046
v -0.045079 0.016417 -0.039068
v -0.039834 0.013866 -0.031863
v -0.031346 0.014460 -0.028182
v -0.022858 0.017972 -0.029432
v -0.017612 0.023061 -0.035136
v -0.017612 0.027783 -0.043114
v -0.022858 0.030334 -0.050319
f 1 2 13
f 2 14 13
f 2 3 14
f 3 15 14
f 3 4 15
f 4 16 15
f 4 5 16
f 5 17 16
f 5 6 17
f 6 18 17
f 6 7 18
f 7 19 18
f 7 8 19
f 8 20 19
f 8 9 20
f 9 21 20
f 9 10 21
f 10 22 21
f 10 11 22
f 11 23 22
f 11 12 23
f 12 24 23
f 13 14 25
f 14 26 25
f 14 15 26
f 15 27 26
f 15 16 27
f 16 28 27
f 16 17 28
f 17 29 28
f 17 18 29
f 18 30 29
f 18 19 30
f 19 31 30
f 19 20 31
f 20 32 31
f 20 21 32
f 21 33 32
f 21 22 33
f 22 34 33
f 22 23 34
f 23 35 34
f 23 24 35
f 24 36 35
f 25 26 37
f 26 38 37
f 26 27 38
f 27 39 38
f 27 28 39
f 28 40 39
f 28 29 40
f 29 41 40
f 29 30 41
f 30 42 41
f 30 31 42
f 31 43 42
f 31 32 43
f 32 44 43
f 32 33 44
f 33 45 44
f 33 34 45
f 34 46 45
f 34 35 46
f 35 47 46
f 35 36 47
f 36 48 47
f 37 38 49
f 38 50 49
f 38 39 50
f 39 51 50
f 39 40 51
f 40 52 51
f 40 41 52
f 41 53 52
f 41 42 53
f 42 54 53
f 42 43 54
f 43 55 54
f 43 44 55
f 44 56 55
f 44 45 56
f 45 57 56
f 45 46 57
f 46 58 57
f 46 47 58
f 47 59 58
f 47 48 59
f 48 60 59
f 49 50 61
f 50 62 61
f 50 51 62
f 51 63 62
f 51 52 63
f 52 64 63
f 52 53 64
f 53 65 64
f 53 54 65
f 54 66 65
f 54 55 66
f 55 67 66
f 55 56 67
f 56 68 67
f 56 57 68
f 57 69 68
f 57 58 69
f 58 70 69
f 58 59 70
f 59 71 70
f 59 60 71
f 60 72 71
f 61 62 73
f 62 74 73
f 62 63 74
f 63 75 74
f 63 64 75
f 64 76 75
f 64 65 76
f 65 77 76
f 65 66 77
f 66 78 77
f 66 67 78
f 67 79 78
f 67 68 79
f 68 80 79
f 68 69 80
f 69 81 80
f 69 70 81
f 70 82 81
f 70 71 82
f 71 83 82
f 71 72 83
f 72 84 83
f 73 74 85
f 74 86 85
f 74 75 86
f 75 87 86
f 75 76 87
f 76 88 87
f 76 77 88
f 77 89 88
f 77 78 89
f 78 90 89
f 78 79 90
f 79 91 90
f 79 80 91
f 80 92 91
f 80 81 92
f 81 93 92
f 81 82 93
f 82 94 93
f 82 83 94
f 83 95 94
f 83 84 95
f 84 96 95
f 85 86 97
f 86 98 97
f 86 87 98
f 87 99 98
f 87 88 99
f 88 100 99
f 88 89 100
f 89 101 100
f 89 90 101
f 90 102 101
f 90 91 102
f 91 103 102
f 91 92 103
f 92 104 103
f 92 93 104
f 93 105 104
f 93 94 105
f 94 106 105
f 94 95 106
f 95 107 106
f 95 96 107
f 96 108 107
f 97 98 109
f 98 110 109
f 98 99 110
f 99 111 110
f 99 100 111
f 100 112 111
f 100 101 112
f 101 113 112
f 101 102 113
f 102 114 113
f 102 103 114
f 103 115 114
f 103 104 115
f 104 116 115
f 104 105 116
f 105 117 116
f 105 106 117
f 106 118 117
f 106 107 118
f 107 119 118
f 107 108 119
f 108 120 119
f 109 110 121
f 110 122 121
f 110 111 122
f 111 123 122
f 111 112 123
f 112 124 123
f 112 113 124
f 113 125 124
f 113 114 125
f 114 126 125
f 114 115 126
f 115 127 126
f 115 116 127
f 116 128 127
f 116 117 128
f 117 129 128
f 117 118 129
f 118 130 129
f 118 119 130
f 119 131 130
f 119 120 131
f 120 132 131
f 121 122 133
f 122 134 133
f 122 123 134
f 123 135 134
f 123 124 135
f 124 136 135
f 124 125 136
f 125 137 136
f 125 126 137
f 126 138 137
f 126 127 138
f 127 139 138
f 127 128 139
f 128 140 139
f 128 129 140
f 129 141 140
f 129 130 141
f 130 142 141
f 130 131 142
f 131 143 142
f 131 132 143
f 132 144 143
f 145 146 155
f 146 156 155
f 146 147 156
f 147 157 156
f 147 148 157
f 148 158 157
f 148 149 158
f 149 159 158
f 149 150 159
f 150 160 159
f 150 151 160
f 151 161 160
f 151 152 161
f 152 162 161
f 152 153 162
f 153 163 162
f 153 154 163
f 154 164 163
f 154 145 164
f 145 155 164
f 165 166 175
f 166 176 175
f 166 167 176
f 167 177 176
f 167 168 177
f 168 178 177
f 168 169 178
f 169 179 178
f 169 170 179
f 170 180 179
f 170 171 180
f 171 181 180
f 171 172 181
f 172 182 181
f 172 173 182
f 173 183 182
f 173 174 183
f 174 184 183
f 174 165 184
f 165 175 184
f 185 186 195
f 186 196 195
f 186 187 196
f 187 197 196
f 187 188 197
f 188 198 197
f 188 189 198
f 189 199 198
f 189 190 199
f 190 200 199
f 190 191 200
f 191 201 200
f 191 192 201
f 192 202 201
f 192 193 202
f 193 203 202
f 193 194 203
f 194 204 203
f 194 185 204
f 185 195 204
f 205 206 215
f 206 216 215
f 206 207 216
f 207 217 216
f 207 208 217
f 208 218 217
f 208 209 218
f 209 219 218
f 209 210 219
f 210 220 219
f 210 211 220
f 211 221 220
f 211 212 221
f 212 222 221
f 212 213 222
f 213 223 222
f 213 214 223
f 214 224 223
f 214 205 224
f 205 215 224
f 225 226 235
f 226 236 235
f 226 227 236
f 227 237 236
f 227 228 237
f 228 238 237
f 228 229 238
f 229 239 238
f 229 230 239
f 230 240 239
f 230 231 240
f 231 241 240
f 231 232 241
f 232 242 241
f 232 233 242
f 233 243 242
f 233 234 243
f 234 244 243
f 234 225 244
f 225 235 244
f 245 246 255
f 246 256 255
f 246 247 256
f 247 257 256
f 247 248 257
f 248 258 257
f 248 249 258
f 249 259 258
f 249 250 259
f 250 260 259
f 250 251 260
f 251 261 260
f 251 252 261
f 252 262 261
f 252 253 262
f 253 263 262
f 253 254 263
f 254 264 263
f 254 245 264
f 245 255 264
f 265 266 275
f 266 276 275
f 266 267 276
f 267 277 276
f 267 268 277
f 268 278 277
f 268 269 278
f 269 279 278
f 269 270 279
f 270 280 279
f 270 271 280
f 271 281 280
f 271 272 281
f 272 282 281
f 272 273 282
f 273 283 282
f 273 274 283
f 274 284 283
f 274 265 284
f 265 275 284
f 285 286 295
f 286 296 295
f 286 287 296
f 287 297 296
f 287 288 297
f 288 298 297
f 288 289 298
f 289 299 298
f 289 290 299
f 290 300 299
f 290 291 300
f 291 301 300
f 291 292 301
f 292 302 301
f 292 293 302
f 293 303 302
f 293 294 303
f 294 304 303
f 294 285 304
f 285 295 304
f 305 306 315
f 306 316 315
f 306 307 316
f 307 317 316
f 307 308 317
f 308 318 317
f 308 309 318
f 309 319 318
f 309 310 319
f 310 320 319
f 310 311 320
f 311 321 320
f 311 312 321
f 312 322 321
f 312 313 322
f 313 323 322
f 313 314 323
f 314 324 323
f 314 305 324
f 305 315 324
f 325 326 335
f 326 336 335
f 326 327 336
f 327 337 336
f 327 328 337
f 328 338 337
f 328 329 338
f 329 339 338
f 329 330 339
f 330 340 339
f 330 331 340
f 331 341 340
f 331 332 341
f 332 342 341
f 332 333 342
f 333 343 342
f 333 334 343
f 334 344 343
f 334 325 344
f 325 335 344
f 345 346 355
f 346 356 355
f 346 347 356
f 347 357 356
f 347 348 357
f 348 358 357
f 348 349 358
f 349 359 358
f 349 350 359
f 350 360 359
f 350 351 360
f 351 361 360
f 351 352 361
f 352 362 361
f 352 353 362
f 353 363 362
f 353 354 363
f 354 364 363
f 354 345 364
f 345 355 364
f 365 366 375
f 366 376 375
f 366 367 376
f 367 377 376
f 367 368 377
f 368 378 377
f 368 369 378
f 369 379 378
f 369 370 379
f 370 380 379
f 370 371 380
f 371 381 380
f 371 372 381
f 372 382 381
f 372 373 382
f 373 383 382
f 373 374 383
f 374 384 383
f 374 365 384
f 365 375 384
f 385 386 395
f 386 396 395
f 386 387 396
f 387 397 396
f 387 388 397
f 388 398 397
f 388 389 398
f 389 399 398
f 389 390 399
f 390 400 399
f 390 391 400
f 391 401 400
f 391 392 401
f 392 402 401
f 392 393 402
f 393 403 402
f 393 394 403
f 394 404 403
f 394 385 404
f 385 395 404
f 405 406 415
f 406 416 415
f 406 407 416
f 407 417 416
f 407 408 417
f 408 418 417
f 408 409 418
f 409 419 418
f 409 410 419
f 410 420 419
f 410 411 420
f 411 421 420
f 411 412 421
f 412 422 421
f 412 413 422
f 413 423 422
f 413 414 423
f 414 424 423
f 414 405 424
f 405 415 424
f 425 426 435
f 426 436 435
f 426 427 436
f 427 437 436
f 427 428 437
f 428 438 437
f 428 429 438
f 429 439 438
f 429 430 439
f 430 440 439
f 430 431 440
f 431 441 440
f 431 432 441
f 432 442 441
f 432 433 442
f 433 443 442
f 433 434 443
f 434 444 443
f 434 425 444
f 425 435 444
f 445 446 455
f 446 456 455
f 446 447 456
f 447 457 456
f 447 448 457
f 448 458 457
f 448 449 458
f 449 459 458
f 449 450 459
f 450 460 459
f 450 451 460
f 451 461 460
f 451 452 461
f 452 462 461
f 452 453 462
f 453 463 462
f 453 454 463
f 454 464 463
f 454 445 464
f 445 455 464
f 465 466 475
f 466 476 475
f 466 467 476
f 467 477 476
f 467 468 477
f 468 478 477
f 468 469 478
f 469 479 478
f 469 470 479
f 470 480 479
f 470 471 480
f 471 481 480
f 471 472 481
f 472 482 481
f 472 473 482
f 473 483 482
f 473 474 483
f 474 484 483
f 474 465 484
f 465 475 484
f 485 486 495
f 486 496 495
f 486 487 496
f 487 497 496
f 487 488 497
f 488 498 497
f 488 489 498
f 489 499 498
f 489 490 499
f 490 500 499
f 490 491 500
f 491 501 500
f 491 492 501
f 492 502 501
f 492 493 502
f 493 503 502
f 493 494 503
f 494 504 503
f 494 485 504
f 485 495 504
f 505 506 515
f 506 516 515
f 506 507 516
f 507 517 516
f 507 508 517
f 508 518 517
f 508 509 518
f 509 519 518
f 509 510 519
f 510 520 519
f 510 511 520
f 511 521 520
f 511 512 521
f 512 522 521
f 512 513 522
f 513 523 522
f 513 514 523
f 514 524 523
f 514 505 524
f 505 515 524
f 525 526 535
f 526 536 535
f 526 527 536
f 527 537 536
f 527 528 537
f 528 538 537
f 528 529 538
f 529 539 538
f 529 530 539
f 530 540 539
f 530 531 540
f 531 541 540
f 531 532 541
f 532 542 541
f 532 533 542
f 533 543 542
f 533 534 543
f 534 544 543
f 534 525 544
f 525 535 544
f 545 546 555
f 546 556 555
f 546 547 556
f 547 557 556
f 547 548 557
f 548 558 557
f 548 549 558
f 549 559 558
f 549 550 559
f 550 560 559
f 550 551 560
f 551 561 560
f 551 552 561
f 552 562 561
f 552 553 562
f 553 563 562
f 553 554 563
f 554 564 563
f 554 545 564
f 545 555 564
f 565 566 575
f 566 576 575
f 566 567 576
f 567 577 576
f 567 568 577
f 568 578 577
f 568 569 578
f 569 579 578
f 569 570 579
f 570 580 579
f 570 571 580
f 571 581 580
f 571 572 581
f 572 582 581
f 572 573 582
f 573 583 582
f 573 574 583
f 574 584 583
f 574 565 584
f 565 575 584
f 585 586 595
f 586 596 595
f 586 587 596
f 587 597 596
f 587 588 597
f 588 598 597
f 588 589 598
f 589 599 598
f 589 590 599
f 590 600 599
f 590 591 600
f 591 601 600
f 591 592 601
f 592 602 601
f 592 593 602
f 593 603 602
f 593 594 603
f 594 604 603
f 594 585 604
f 585 595 604
f 605 606 615
f 606 616 615
f 606 607 616
f 607 617 616
f 607 608 617
f 608 618 617
f 608 609 618
f 609 619 618
f 609 610 619
f 610 620 619
f 610 611 620
f 611 621 620
f 611 612 621
f 612 622 621
f 612 613 622
f 613 623 622
f 613 614 623
f 614 624 623
f 614 605 624
f 605 615 624
f 625 626 635
f 626 636 635
f 626 627 636
f 627 637 636
f 627 628 637
f 628 638 637
f 628 629 638
f 629 639 638
f 629 630 639
f 630 640 639
f 630 631 640
f 631 641 640
f 631 632 641
f 632 642 641
f 632 633 642
f 633 643 642
f 633 634 643
f 634 644 643
f 634 625 644
f 625 635 644
f 645 646 655
f 646 656 655
f 646 647 656
f 647 657 656
f 647 648 657
f 648 658 657
f 648 649 658
f 649 659 658
f 649 650 659
f 650 660 659
f 650 651 660
f 651 661 660
f 651 652 661
f 652 662 661
f 652 653 662
f 653 663 662
f 653 654 663
f 654 664 663
f 654 645 664
f 645 655 664
f 665 666 675
f 666 676 675
f 666 667 676
f 667 677 676
f 667 668 677
f 668 678 677
f 668 669 678
f 669 679 678
f 669 670 679
f 670 680 679
f 670 671 680
f 671 681 680
f 671 672 681
f 672 682 681
f 672 673 682
f 673 683 682
f 673 674 683
f 674 684 683
f 674 665 684
f 665 675 684
f 685 686 695
f 686 696 695
f 686 687 696
f 687 697 696
f 687 688 697
f 688 698 697
f 688 689 698
f 689 699 698
f 689 690 699
f 690 700 699
f 690 691 700
f 691 701 700
f 691 692 701
f 692 702 701
f 692 693 702
f 693 703 702
f 693 694 703
f 694 704 703
f 694 685 704
f 685 695 704
f 705 706 715
f 706 716 715
f 706 707 716
f 707 717 716
f 707 708 717
f 708 718 717
f 708 709 718
f 709 719 718
f 709 710 719
f 710 720 719
f 710 711 720
f 711 721 720
f 711 712 721
f 712 722 721
f 712 713 722
f 713 723 722
f 713 714 723
f 714 724 723
f 714 705 724
f 705 715 724
f 725 726 735
f 726 736 735
f 726 727 736
f 727 737 736
f 727 728 737
f 728 738 737
f 728 729 738
f 729 739 738
f 729 730 739
f 730 740 739
f 730 731 740
f 731 741 740
f 731 732 741
f 732 742 741
f 732 733 742
f 733 743 742
f 733 734 743
f 734 744 743
f 734 725 744
f 725 735 744
f 745 746 755
f 746 756 755
f 746 747 756
f 747 757 756
f 747 748 757
f 748 758 757
f 748 749 758
f 749 759 758
f 749 750 759
f 750 760 759
f 750 751 760
f 751 761 760
f 751 752 761
f 752 762 761
f 752 753 762
f 753 763 762
f 753 754 763
f 754 764 763
f 754 745 764
f 745 755 764
f 765 766 775
f 766 776 775
f 766 767 776
f 767 777 776
f 767 768 777
f 768 778 777
f 768 769 778
f 769 779 778
f 769 770 779
f 770 780 779
f 770 771 780
f 771 781 780
f 771 772 781
f 772 782 781
f 772 773 782
f 773 783 782
f 773 774 783
f 774 784 783
f 774 765 784
f 765 775 784
