# Full-Body 3D Mesh - Frame 228
v 0.005799 -0.638978 -0.082792
v 0.039606 -0.638978 -0.087652
v 0.070675 -0.638978 -0.101841
v 0.096488 -0.638978 -0.124208
v 0.114954 -0.638978 -0.152942
v 0.124577 -0.638978 -0.185714
v 0.124577 -0.638978 -0.219869
v 0.114954 -0.638978 -0.252641
v 0.096488 -0.638978 -0.281375
v 0.070675 -0.638978 -0.303742
v 0.039606 -0.638978 -0.317931
v 0.005799 -0.638978 -0.322792
v 0.005799 -0.638978 -0.082792
v 0.034240 -0.620700 -0.087652
v 0.060376 -0.603903 -0.101841
v 0.082092 -0.589948 -0.124208
v 0.097626 -0.579964 -0.152942
v 0.105721 -0.574762 -0.185714
v 0.105721 -0.574762 -0.219869
v 0.097626 -0.579964 -0.252641
v 0.082092 -0.589948 -0.281375
v 0.060376 -0.603903 -0.303742
v 0.034240 -0.620700 -0.317931
v 0.005799 -0.638978 -0.322792
v 0.005799 -0.638978 -0.082792
v 0.019843 -0.608225 -0.087652
v 0.032749 -0.579964 -0.101841
v 0.043473 -0.556484 -0.124208
v 0.051144 -0.539687 -0.152942
v 0.055141 -0.530933 -0.185714
v 0.055141 -0.530933 -0.219869
v 0.051144 -0.539687 -0.252641
v 0.043473 -0.556484 -0.281375
v 0.032749 -0.579964 -0.303742
v 0.019843 -0.608225 -0.317931
v 0.005799 -0.638978 -0.322792
v 0.005799 -0.638978 -0.082792
v 0.000987 -0.605514 -0.087652
v -0.003434 -0.574762 -0.101841
v -0.007108 -0.549211 -0.124208
v -0.009736 -0.530933 -0.152942
v -0.011105 -0.521409 -0.185714
v -0.011105 -0.521409 -0.219869
v -0.009736 -0.530933 -0.252641
v -0.007108 -0.549211 -0.281375
v -0.003434 -0.574762 -0.303742
v 0.000987 -0.605514 -0.317931
v 0.005799 -0.638978 -0.322792
v 0.005799 -0.638978 -0.082792
v -0.016341 -0.613428 -0.087652
v -0.036687 -0.589948 -0.101841
v -0.053591 -0.570439 -0.124208
v -0.065683 -0.556484 -0.152942
v -0.071985 -0.549211 -0.185714
v -0.071985 -0.549211 -0.219869
v -0.065683 -0.556484 -0.252641
v -0.053591 -0.570439 -0.281375
v -0.036687 -0.589948 -0.303742
v -0.016341 -0.613428 -0.317931
v 0.005799 -0.638978 -0.322792
v 0.005799 -0.638978 -0.082792
v -0.026640 -0.629453 -0.087652
v -0.056450 -0.620700 -0.101841
v -0.081218 -0.613428 -0.124208
v -0.098936 -0.608225 -0.152942
v -0.108169 -0.605514 -0.185714
v -0.108169 -0.605514 -0.219869
v -0.098936 -0.608225 -0.252641
v -0.081218 -0.613428 -0.281375
v -0.056450 -0.620700 -0.303742
v -0.026640 -0.629453 -0.317931
v 0.005799 -0.638978 -0.322792
v 0.005799 -0.638978 -0.082792
v -0.026640 -0.648503 -0.087652
v -0.056450 -0.657256 -0.101841
v -0.081218 -0.664528 -0.124208
v -0.098936 -0.669731 -0.152942
v -0.108169 -0.672442 -0.185714
v -0.108169 -0.672442 -0.219869
v -0.098936 -0.669731 -0.252641
v -0.081218 -0.664528 -0.281375
v -0.056450 -0.657256 -0.303742
v -0.026640 -0.648503 -0.317931
v 0.005799 -0.638978 -0.322792
v 0.005799 -0.638978 -0.082792
v -0.016341 -0.664528 -0.087652
v -0.036687 -0.688009 -0.101841
v -0.053591 -0.707517 -0.124208
v -0.065683 -0.721473 -0.152942
v -0.071985 -0.728745 -0.185714
v -0.071985 -0.728745 -0.219869
v -0.065683 -0.721473 -0.252641
v -0.053591 -0.707517 -0.281375
v -0.036687 -0.688009 -0.303742
v -0.016341 -0.664528 -0.317931
v 0.005799 -0.638978 -0.322792
v 0.005799 -0.638978 -0.082792
v 0.000987 -0.672442 -0.087652
v -0.003434 -0.703195 -0.101841
v -0.007108 -0.728745 -0.124208
v -0.009736 -0.747023 -0.152942
v -0.011105 -0.756548 -0.185714
v -0.011105 -0.756548 -0.219869
v -0.009736 -0.747023 -0.252641
v -0.007108 -0.728745 -0.281375
v -0.003434 -0.703195 -0.303742
v 0.000987 -0.672442 -0.317931
v 0.005799 -0.638978 -0.322792
v 0.005799 -0.638978 -0.082792
v 0.019843 -0.669731 -0.087652
v 0.032749 -0.697992 -0.101841
v 0.043473 -0.721473 -0.124208
v 0.051144 -0.738270 -0.152942
v 0.055141 -0.747023 -0.185714
v 0.055141 -0.747023 -0.219869
v 0.051144 -0.738270 -0.252641
v 0.043473 -0.721473 -0.281375
v 0.032749 -0.697992 -0.303742
v 0.019843 -0.669731 -0.317931
v 0.005799 -0.638978 -0.322792
v 0.005799 -0.638978 -0.082792
v 0.034240 -0.657256 -0.087652
v 0.060376 -0.674053 -0.101841
v 0.082092 -0.688009 -0.124208
v 0.097626 -0.697992 -0.152942
v 0.105721 -0.703195 -0.185714
v 0.105721 -0.703195 -0.219869
v 0.097626 -0.697992 -0.252641
v 0.082092 -0.688009 -0.281375
v 0.060376 -0.674053 -0.303742
v 0.034240 -0.657256 -0.317931
v 0.005799 -0.638978 -0.322792
v 0.005799 -0.638978 -0.082792
v 0.039606 -0.638978 -0.087652
v 0.070675 -0.638978 -0.101841
v 0.096488 -0.638978 -0.124208
v 0.114954 -0.638978 -0.152942
v 0.124577 -0.638978 -0.185714
v 0.124577 -0.638978 -0.219869
v 0.114954 -0.638978 -0.252641
v 0.096488 -0.638978 -0.281375
v 0.070675 -0.638978 -0.303742
v 0.039606 -0.638978 -0.317931
v 0.005799 -0.638978 -0.322792
v 0.164622 -0.442989 -0.069579
v 0.163890 -0.466500 -0.061975
v 0.161968 -0.481031 -0.042067
v 0.159591 -0.481031 -0.017460
v 0.157667 -0.466500 0.002447
v 0.156930 -0.442989 0.010051
v 0.157663 -0.419477 0.002446
v 0.159584 -0.404946 -0.017461
v 0.161961 -0.404946 -0.042068
v 0.163885 -0.419477 -0.061975
v -0.165064 -0.443019 -0.101424
v -0.165796 -0.466531 -0.093820
v -0.167718 -0.481061 -0.073913
v -0.170095 -0.481061 -0.049306
v -0.172019 -0.466531 -0.029398
v -0.172755 -0.443019 -0.021795
v -0.172023 -0.419508 -0.029399
v -0.170102 -0.404977 -0.049306
v -0.167725 -0.404977 -0.073913
v -0.165800 -0.419508 -0.093820
v 0.160776 -0.446453 -0.069614
v 0.137943 -0.440206 -0.062489
v 0.123831 -0.435021 -0.042864
v 0.123831 -0.432880 -0.018236
v 0.137943 -0.434600 0.001989
v 0.160776 -0.439524 0.010086
v 0.183609 -0.445772 0.002961
v 0.197721 -0.450956 -0.016664
v 0.197721 -0.453097 -0.041293
v 0.183609 -0.451377 -0.061518
v 0.217305 -0.217114 -0.089553
v 0.194472 -0.210866 -0.082428
v 0.180360 -0.205682 -0.062803
v 0.180360 -0.203541 -0.038174
v 0.194472 -0.205261 -0.017949
v 0.217305 -0.210185 -0.009853
v 0.240138 -0.216432 -0.016978
v 0.254250 -0.221617 -0.036603
v 0.254250 -0.223758 -0.061231
v 0.240138 -0.222038 -0.081456
v 0.217305 -0.231398 -0.085549
v 0.194482 -0.222948 -0.081209
v 0.180376 -0.210946 -0.064834
v 0.180376 -0.199976 -0.042680
v 0.194482 -0.194230 -0.023208
v 0.217305 -0.195900 -0.013856
v 0.240128 -0.204351 -0.018197
v 0.254234 -0.216353 -0.034571
v 0.254234 -0.227322 -0.056726
v 0.240128 -0.233069 -0.076198
v 0.262197 -0.068798 -0.166058
v 0.239374 -0.060348 -0.161718
v 0.225268 -0.048346 -0.145343
v 0.225268 -0.037376 -0.123189
v 0.239374 -0.031630 -0.103717
v 0.262197 -0.033301 -0.094365
v 0.285020 -0.041751 -0.098706
v 0.299126 -0.053753 -0.115080
v 0.299126 -0.064722 -0.137235
v 0.285020 -0.070469 -0.156706
v -0.168910 -0.475993 -0.084253
v -0.187918 -0.477529 -0.068521
v -0.199665 -0.465883 -0.050150
v -0.199665 -0.445504 -0.036155
v -0.187918 -0.424176 -0.031884
v -0.168910 -0.410045 -0.038966
v -0.149902 -0.408509 -0.054698
v -0.138154 -0.420155 -0.073069
v -0.138154 -0.440534 -0.087064
v -0.149902 -0.461862 -0.091335
v -0.318493 -0.359676 -0.253636
v -0.337501 -0.361212 -0.237905
v -0.349249 -0.349566 -0.219533
v -0.349249 -0.329188 -0.205539
v -0.337501 -0.307859 -0.201267
v -0.318493 -0.293729 -0.208349
v -0.299485 -0.292193 -0.224081
v -0.287737 -0.303839 -0.242453
v -0.287737 -0.324218 -0.256447
v -0.299485 -0.345546 -0.260719
v -0.318493 -0.356506 -0.204314
v -0.338843 -0.358667 -0.218182
v -0.351421 -0.348620 -0.236944
v -0.351421 -0.330200 -0.253433
v -0.338843 -0.310445 -0.261350
v -0.318493 -0.296899 -0.257672
v -0.298143 -0.294738 -0.243803
v -0.285566 -0.304785 -0.225042
v -0.285566 -0.323205 -0.208553
v -0.298143 -0.342960 -0.200636
v -0.169463 -0.528293 -0.396218
v -0.189813 -0.530455 -0.410087
v -0.202391 -0.520407 -0.428848
v -0.202391 -0.501988 -0.445337
v -0.189813 -0.482232 -0.453254
v -0.169463 -0.468687 -0.449576
v -0.149113 -0.466525 -0.435708
v -0.136536 -0.476573 -0.416946
v -0.136536 -0.494992 -0.400457
v -0.149113 -0.514748 -0.392540
v 0.160776 -0.439853 -0.069641
v 0.137347 -0.442413 -0.062179
v 0.122867 -0.445192 -0.042336
v 0.122867 -0.447130 -0.017691
v 0.137347 -0.447486 0.002343
v 0.160776 -0.446124 0.010113
v 0.184205 -0.443564 0.002651
v 0.198685 -0.440785 -0.017192
v 0.198685 -0.438847 -0.041837
v 0.184205 -0.438491 -0.061871
v 0.122885 0.010120 -0.034263
v 0.099456 0.007561 -0.026801
v 0.084976 0.004781 -0.006958
v 0.084976 0.002844 0.017687
v 0.099456 0.002488 0.037721
v 0.122885 0.003850 0.045491
v 0.146314 0.006410 0.038029
v 0.160794 0.009189 0.018186
v 0.160794 0.011127 -0.006459
v 0.146314 0.011482 -0.026493
v -0.168910 -0.437597 -0.101240
v -0.192279 -0.436072 -0.093321
v -0.206721 -0.437201 -0.073289
v -0.206721 -0.440552 -0.048796
v -0.192279 -0.444845 -0.029197
v -0.168910 -0.448441 -0.021979
v -0.145541 -0.449966 -0.029898
v -0.131098 -0.448838 -0.049930
v -0.131098 -0.445487 -0.074423
v -0.145541 -0.441193 -0.094022
v -0.121545 -0.013260 -0.043187
v -0.144914 -0.011735 -0.035268
v -0.159357 -0.012863 -0.015236
v -0.159357 -0.016214 0.009257
v -0.144914 -0.020507 0.028856
v -0.121545 -0.024103 0.036074
v -0.098176 -0.025628 0.028155
v -0.083733 -0.024500 0.008123
v -0.083733 -0.021149 -0.016370
v -0.098176 -0.016856 -0.035969
v 0.124385 0.006985 -0.034358
v 0.126550 -0.016398 -0.026632
v 0.127316 -0.030849 -0.006589
v 0.126389 -0.030849 0.018115
v 0.124124 -0.016398 0.038044
v 0.121386 0.006985 0.045586
v 0.119220 0.030368 0.037860
v 0.118455 0.044820 0.017817
v 0.119381 0.044820 -0.006887
v 0.121647 0.030368 -0.026816
v -0.120046 -0.018681 -0.043528
v -0.117880 -0.042064 -0.035802
v -0.117115 -0.056516 -0.015760
v -0.118041 -0.056516 0.008944
v -0.120307 -0.042064 0.028873
v -0.123045 -0.018681 0.036415
v -0.125210 0.004702 0.028689
v -0.125976 0.019153 0.008647
v -0.125049 0.019153 -0.016057
v -0.122784 0.004702 -0.035986
v 0.122885 -0.007181 -0.031793
v 0.099395 -0.003537 -0.025005
v 0.084878 0.004126 -0.006520
v 0.084878 0.012881 0.016599
v 0.099395 0.019384 0.035522
v 0.122885 0.021151 0.043022
v 0.146375 0.017507 0.036233
v 0.160893 0.009844 0.017749
v 0.160893 0.001089 -0.005371
v 0.146375 -0.005414 -0.024294
v 0.129472 0.137024 -0.086404
v 0.105982 0.140668 -0.079615
v 0.091464 0.148331 -0.061131
v 0.091464 0.157086 -0.038012
v 0.105982 0.163589 -0.019088
v 0.129472 0.165357 -0.011589
v 0.152962 0.161713 -0.018377
v 0.167480 0.154050 -0.036862
v 0.167480 0.145295 -0.059981
v 0.152962 0.138791 -0.078904
v 0.129472 0.168590 -0.085013
v 0.106122 0.167742 -0.076939
v 0.091691 0.160571 -0.058192
v 0.091691 0.149818 -0.035932
v 0.106122 0.139588 -0.018662
v 0.129472 0.133791 -0.012979
v 0.152822 0.134639 -0.021053
v 0.167254 0.141809 -0.039801
v 0.167254 0.152563 -0.062060
v 0.152822 0.162793 -0.079330
v 0.168592 0.467863 0.059565
v 0.145242 0.467015 0.067639
v 0.130810 0.459844 0.086387
v 0.130810 0.449091 0.108646
v 0.145242 0.438861 0.125916
v 0.168592 0.433064 0.131599
v 0.191942 0.433912 0.123525
v 0.206373 0.441082 0.104778
v 0.206373 0.451836 0.082518
v 0.191942 0.462066 0.065248
v -0.121545 -0.058305 0.001920
v -0.144928 -0.051074 -0.001560
v -0.159379 -0.031470 -0.005803
v -0.159379 -0.006982 -0.009188
v -0.144928 0.013038 -0.010422
v -0.121545 0.020942 -0.009033
v -0.098163 0.013711 -0.005553
v -0.083711 -0.005893 -0.001310
v -0.083711 -0.030381 0.002075
v -0.098163 -0.050401 0.003309
v -0.097003 -0.090273 -0.229368
v -0.120386 -0.083042 -0.232849
v -0.134837 -0.063439 -0.237092
v -0.134837 -0.038950 -0.240477
v -0.120386 -0.018931 -0.241711
v -0.097003 -0.011027 -0.240322
v -0.073621 -0.018257 -0.236841
v -0.059169 -0.037861 -0.232598
v -0.059169 -0.062350 -0.229213
v -0.073621 -0.082369 -0.227980
v -0.097003 -0.063033 -0.272880
v -0.120322 -0.057809 -0.266547
v -0.134733 -0.049851 -0.248105
v -0.134733 -0.042198 -0.224598
v -0.120322 -0.037773 -0.205005
v -0.097003 -0.038266 -0.196810
v -0.073685 -0.043490 -0.203144
v -0.059273 -0.051449 -0.221586
v -0.059273 -0.059102 -0.245093
v -0.073685 -0.063527 -0.264685
v -0.057473 0.228497 -0.367797
v -0.080791 0.233721 -0.361464
v -0.095203 0.241680 -0.343021
v -0.095203 0.249333 -0.319515
v -0.080791 0.253758 -0.299922
v -0.057473 0.253264 -0.291727
v -0.034154 0.248040 -0.298060
v -0.019743 0.240082 -0.316503
v -0.019743 0.232428 -0.340009
v -0.034154 0.228003 -0.359602
f 1 2 13
f 2 14 13
f 2 3 14
f 3 15 14
f 3 4 15
f 4 16 15
f 4 5 16
f 5 17 16
f 5 6 17
f 6 18 17
f 6 7 18
f 7 19 18
f 7 8 19
f 8 20 19
f 8 9 20
f 9 21 20
f 9 10 21
f 10 22 21
f 10 11 22
f 11 23 22
f 11 12 23
f 12 24 23
f 13 14 25
f 14 26 25
f 14 15 26
f 15 27 26
f 15 16 27
f 16 28 27
f 16 17 28
f 17 29 28
f 17 18 29
f 18 30 29
f 18 19 30
f 19 31 30
f 19 20 31
f 20 32 31
f 20 21 32
f 21 33 32
f 21 22 33
f 22 34 33
f 22 23 34
f 23 35 34
f 23 24 35
f 24 36 35
f 25 26 37
f 26 38 37
f 26 27 38
f 27 39 38
f 27 28 39
f 28 40 39
f 28 29 40
f 29 41 40
f 29 30 41
f 30 42 41
f 30 31 42
f 31 43 42
f 31 32 43
f 32 44 43
f 32 33 44
f 33 45 44
f 33 34 45
f 34 46 45
f 34 35 46
f 35 47 46
f 35 36 47
f 36 48 47
f 37 38 49
f 38 50 49
f 38 39 50
f 39 51 50
f 39 40 51
f 40 52 51
f 40 41 52
f 41 53 52
f 41 42 53
f 42 54 53
f 42 43 54
f 43 55 54
f 43 44 55
f 44 56 55
f 44 45 56
f 45 57 56
f 45 46 57
f 46 58 57
f 46 47 58
f 47 59 58
f 47 48 59
f 48 60 59
f 49 50 61
f 50 62 61
f 50 51 62
f 51 63 62
f 51 52 63
f 52 64 63
f 52 53 64
f 53 65 64
f 53 54 65
f 54 66 65
f 54 55 66
f 55 67 66
f 55 56 67
f 56 68 67
f 56 57 68
f 57 69 68
f 57 58 69
f 58 70 69
f 58 59 70
f 59 71 70
f 59 60 71
f 60 72 71
f 61 62 73
f 62 74 73
f 62 63 74
f 63 75 74
f 63 64 75
f 64 76 75
f 64 65 76
f 65 77 76
f 65 66 77
f 66 78 77
f 66 67 78
f 67 79 78
f 67 68 79
f 68 80 79
f 68 69 80
f 69 81 80
f 69 70 81
f 70 82 81
f 70 71 82
f 71 83 82
f 71 72 83
f 72 84 83
f 73 74 85
f 74 86 85
f 74 75 86
f 75 87 86
f 75 76 87
f 76 88 87
f 76 77 88
f 77 89 88
f 77 78 89
f 78 90 89
f 78 79 90
f 79 91 90
f 79 80 91
f 80 92 91
f 80 81 92
f 81 93 92
f 81 82 93
f 82 94 93
f 82 83 94
f 83 95 94
f 83 84 95
f 84 96 95
f 85 86 97
f 86 98 97
f 86 87 98
f 87 99 98
f 87 88 99
f 88 100 99
f 88 89 100
f 89 101 100
f 89 90 101
f 90 102 101
f 90 91 102
f 91 103 102
f 91 92 103
f 92 104 103
f 92 93 104
f 93 105 104
f 93 94 105
f 94 106 105
f 94 95 106
f 95 107 106
f 95 96 107
f 96 108 107
f 97 98 109
f 98 110 109
f 98 99 110
f 99 111 110
f 99 100 111
f 100 112 111
f 100 101 112
f 101 113 112
f 101 102 113
f 102 114 113
f 102 103 114
f 103 115 114
f 103 104 115
f 104 116 115
f 104 105 116
f 105 117 116
f 105 106 117
f 106 118 117
f 106 107 118
f 107 119 118
f 107 108 119
f 108 120 119
f 109 110 121
f 110 122 121
f 110 111 122
f 111 123 122
f 111 112 123
f 112 124 123
f 112 113 124
f 113 125 124
f 113 114 125
f 114 126 125
f 114 115 126
f 115 127 126
f 115 116 127
f 116 128 127
f 116 117 128
f 117 129 128
f 117 118 129
f 118 130 129
f 118 119 130
f 119 131 130
f 119 120 131
f 120 132 131
f 121 122 133
f 122 134 133
f 122 123 134
f 123 135 134
f 123 124 135
f 124 136 135
f 124 125 136
f 125 137 136
f 125 126 137
f 126 138 137
f 126 127 138
f 127 139 138
f 127 128 139
f 128 140 139
f 128 129 140
f 129 141 140
f 129 130 141
f 130 142 141
f 130 131 142
f 131 143 142
f 131 132 143
f 132 144 143
f 145 146 155
f 146 156 155
f 146 147 156
f 147 157 156
f 147 148 157
f 148 158 157
f 148 149 158
f 149 159 158
f 149 150 159
f 150 160 159
f 150 151 160
f 151 161 160
f 151 152 161
f 152 162 161
f 152 153 162
f 153 163 162
f 153 154 163
f 154 164 163
f 154 145 164
f 145 155 164
f 165 166 175
f 166 176 175
f 166 167 176
f 167 177 176
f 167 168 177
f 168 178 177
f 168 169 178
f 169 179 178
f 169 170 179
f 170 180 179
f 170 171 180
f 171 181 180
f 171 172 181
f 172 182 181
f 172 173 182
f 173 183 182
f 173 174 183
f 174 184 183
f 174 165 184
f 165 175 184
f 185 186 195
f 186 196 195
f 186 187 196
f 187 197 196
f 187 188 197
f 188 198 197
f 188 189 198
f 189 199 198
f 189 190 199
f 190 200 199
f 190 191 200
f 191 201 200
f 191 192 201
f 192 202 201
f 192 193 202
f 193 203 202
f 193 194 203
f 194 204 203
f 194 185 204
f 185 195 204
f 205 206 215
f 206 216 215
f 206 207 216
f 207 217 216
f 207 208 217
f 208 218 217
f 208 209 218
f 209 219 218
f 209 210 219
f 210 220 219
f 210 211 220
f 211 221 220
f 211 212 221
f 212 222 221
f 212 213 222
f 213 223 222
f 213 214 223
f 214 224 223
f 214 205 224
f 205 215 224
f 225 226 235
f 226 236 235
f 226 227 236
f 227 237 236
f 227 228 237
f 228 238 237
f 228 229 238
f 229 239 238
f 229 230 239
f 230 240 239
f 230 231 240
f 231 241 240
f 231 232 241
f 232 242 241
f 232 233 242
f 233 243 242
f 233 234 243
f 234 244 243
f 234 225 244
f 225 235 244
f 245 246 255
f 246 256 255
f 246 247 256
f 247 257 256
f 247 248 257
f 248 258 257
f 248 249 258
f 249 259 258
f 249 250 259
f 250 260 259
f 250 251 260
f 251 261 260
f 251 252 261
f 252 262 261
f 252 253 262
f 253 263 262
f 253 254 263
f 254 264 263
f 254 245 264
f 245 255 264
f 265 266 275
f 266 276 275
f 266 267 276
f 267 277 276
f 267 268 277
f 268 278 277
f 268 269 278
f 269 279 278
f 269 270 279
f 270 280 279
f 270 271 280
f 271 281 280
f 271 272 281
f 272 282 281
f 272 273 282
f 273 283 282
f 273 274 283
f 274 284 283
f 274 265 284
f 265 275 284
f 285 286 295
f 286 296 295
f 286 287 296
f 287 297 296
f 287 288 297
f 288 298 297
f 288 289 298
f 289 299 298
f 289 290 299
f 290 300 299
f 290 291 300
f 291 301 300
f 291 292 301
f 292 302 301
f 292 293 302
f 293 303 302
f 293 294 303
f 294 304 303
f 294 285 304
f 285 295 304
f 305 306 315
f 306 316 315
f 306 307 316
f 307 317 316
f 307 308 317
f 308 318 317
f 308 309 318
f 309 319 318
f 309 310 319
f 310 320 319
f 310 311 320
f 311 321 320
f 311 312 321
f 312 322 321
f 312 313 322
f 313 323 322
f 313 314 323
f 314 324 323
f 314 305 324
f 305 315 324
f 325 326 335
f 326 336 335
f 326 327 336
f 327 337 336
f 327 328 337
f 328 338 337
f 328 329 338
f 329 339 338
f 329 330 339
f 330 340 339
f 330 331 340
f 331 341 340
f 331 332 341
f 332 342 341
f 332 333 342
f 333 343 342
f 333 334 343
f 334 344 343
f 334 325 344
f 325 335 344
f 345 346 355
f 346 356 355
f 346 347 356
f 347 357 356
f 347 348 357
f 348 358 357
f 348 349 358
f 349 359 358
f 349 350 359
f 350 360 359
f 350 351 360
f 351 361 360
f 351 352 361
f 352 362 361
f 352 353 362
f 353 363 362
f 353 354 363
f 354 364 363
f 354 345 364
f 345 355 364
f 365 366 375
f 366 376 375
f 366 367 376
f 367 377 376
f 367 368 377
f 368 378 377
f 368 369 378
f 369 379 378
f 369 370 379
f 370 380 379
f 370 371 380
f 371 381 380
f 371 372 381
f 372 382 381
f 372 373 382
f 373 383 382
f 373 374 383
f 374 384 383
f 374 365 384
f 365 375 384
