# Full-Body 3D Mesh - Frame 217
v 0.022888 -0.638526 -0.067772
v 0.056696 -0.638526 -0.072632
v 0.087765 -0.638526 -0.086821
v 0.113578 -0.638526 -0.109188
v 0.132043 -0.638526 -0.137922
v 0.141666 -0.638526 -0.170694
v 0.141666 -0.638526 -0.204849
v 0.132043 -0.638526 -0.237621
v 0.113578 -0.638526 -0.266355
v 0.087765 -0.638526 -0.288722
v 0.056696 -0.638526 -0.302911
v 0.022888 -0.638526 -0.307772
v 0.022888 -0.638526 -0.067772
v 0.051329 -0.620248 -0.072632
v 0.077466 -0.603451 -0.086821
v 0.099181 -0.589495 -0.109188
v 0.114715 -0.579512 -0.137922
v 0.122811 -0.574309 -0.170694
v 0.122811 -0.574309 -0.204849
v 0.114715 -0.579512 -0.237621
v 0.099181 -0.589495 -0.266355
v 0.077466 -0.603451 -0.288722
v 0.051329 -0.620248 -0.302911
v 0.022888 -0.638526 -0.307772
v 0.022888 -0.638526 -0.067772
v 0.036932 -0.607773 -0.072632
v 0.049838 -0.579512 -0.086821
v 0.060562 -0.556031 -0.109188
v 0.068233 -0.539234 -0.137922
v 0.072230 -0.530481 -0.170694
v 0.072230 -0.530481 -0.204849
v 0.068233 -0.539234 -0.237621
v 0.060562 -0.556031 -0.266355
v 0.049838 -0.579512 -0.288722
v 0.036932 -0.607773 -0.302911
v 0.022888 -0.638526 -0.307772
v 0.022888 -0.638526 -0.067772
v 0.018076 -0.605062 -0.072632
v 0.013655 -0.574309 -0.086821
v 0.009981 -0.548759 -0.109188
v 0.007353 -0.530481 -0.137922
v 0.005984 -0.520956 -0.170694
v 0.005984 -0.520956 -0.204849
v 0.007353 -0.530481 -0.237621
v 0.009981 -0.548759 -0.266355
v 0.013655 -0.574309 -0.288722
v 0.018076 -0.605062 -0.302911
v 0.022888 -0.638526 -0.307772
v 0.022888 -0.638526 -0.067772
v 0.000748 -0.612975 -0.072632
v -0.019598 -0.589495 -0.086821
v -0.036502 -0.569987 -0.109188
v -0.048594 -0.556031 -0.137922
v -0.054896 -0.548759 -0.170694
v -0.054896 -0.548759 -0.204849
v -0.048594 -0.556031 -0.237621
v -0.036502 -0.569987 -0.266355
v -0.019598 -0.589495 -0.288722
v 0.000748 -0.612975 -0.302911
v 0.022888 -0.638526 -0.307772
v 0.022888 -0.638526 -0.067772
v -0.009551 -0.629001 -0.072632
v -0.039361 -0.620248 -0.086821
v -0.064129 -0.612975 -0.109188
v -0.081847 -0.607773 -0.137922
v -0.091080 -0.605062 -0.170694
v -0.091080 -0.605062 -0.204849
v -0.081847 -0.607773 -0.237621
v -0.064129 -0.612975 -0.266355
v -0.039361 -0.620248 -0.288722
v -0.009551 -0.629001 -0.302911
v 0.022888 -0.638526 -0.307772
v 0.022888 -0.638526 -0.067772
v -0.009551 -0.648050 -0.072632
v -0.039361 -0.656804 -0.086821
v -0.064129 -0.664076 -0.109188
v -0.081847 -0.669278 -0.137922
v -0.091080 -0.671989 -0.170694
v -0.091080 -0.671989 -0.204849
v -0.081847 -0.669278 -0.237621
v -0.064129 -0.664076 -0.266355
v -0.039361 -0.656804 -0.288722
v -0.009551 -0.648050 -0.302911
v 0.022888 -0.638526 -0.307772
v 0.022888 -0.638526 -0.067772
v 0.000748 -0.664076 -0.072632
v -0.019598 -0.687556 -0.086821
v -0.036502 -0.707065 -0.109188
v -0.048594 -0.721020 -0.137922
v -0.054896 -0.728293 -0.170694
v -0.054896 -0.728293 -0.204849
v -0.048594 -0.721020 -0.237621
v -0.036502 -0.707065 -0.266355
v -0.019598 -0.687556 -0.288722
v 0.000748 -0.664076 -0.302911
v 0.022888 -0.638526 -0.307772
v 0.022888 -0.638526 -0.067772
v 0.018076 -0.671989 -0.072632
v 0.013655 -0.702742 -0.086821
v 0.009981 -0.728293 -0.109188
v 0.007353 -0.746570 -0.137922
v 0.005984 -0.756095 -0.170694
v 0.005984 -0.756095 -0.204849
v 0.007353 -0.746570 -0.237621
v 0.009981 -0.728293 -0.266355
v 0.013655 -0.702742 -0.288722
v 0.018076 -0.671989 -0.302911
v 0.022888 -0.638526 -0.307772
v 0.022888 -0.638526 -0.067772
v 0.036932 -0.669278 -0.072632
v 0.049838 -0.697540 -0.086821
v 0.060562 -0.721020 -0.109188
v 0.068233 -0.737817 -0.137922
v 0.072230 -0.746570 -0.170694
v 0.072230 -0.746570 -0.204849
v 0.068233 -0.737817 -0.237621
v 0.060562 -0.721020 -0.266355
v 0.049838 -0.697540 -0.288722
v 0.036932 -0.669278 -0.302911
v 0.022888 -0.638526 -0.307772
v 0.022888 -0.638526 -0.067772
v 0.051329 -0.656804 -0.072632
v 0.077466 -0.673601 -0.086821
v 0.099181 -0.687556 -0.109188
v 0.114715 -0.697540 -0.137922
v 0.122811 -0.702742 -0.170694
v 0.122811 -0.702742 -0.204849
v 0.114715 -0.697540 -0.237621
v 0.099181 -0.687556 -0.266355
v 0.077466 -0.673601 -0.288722
v 0.051329 -0.656804 -0.302911
v 0.022888 -0.638526 -0.307772
v 0.022888 -0.638526 -0.067772
v 0.056696 -0.638526 -0.072632
v 0.087765 -0.638526 -0.086821
v 0.113578 -0.638526 -0.109188
v 0.132043 -0.638526 -0.137922
v 0.141666 -0.638526 -0.170694
v 0.141666 -0.638526 -0.204849
v 0.132043 -0.638526 -0.237621
v 0.113578 -0.638526 -0.266355
v 0.087765 -0.638526 -0.288722
v 0.056696 -0.638526 -0.302911
v 0.022888 -0.638526 -0.307772
v 0.173980 -0.437296 -0.064021
v 0.173746 -0.460799 -0.056361
v 0.171933 -0.475325 -0.036440
v 0.169235 -0.475325 -0.011867
v 0.166681 -0.460799 0.007973
v 0.165248 -0.437296 0.015501
v 0.165483 -0.413792 0.007842
v 0.167295 -0.399266 -0.012080
v 0.169994 -0.399266 -0.036653
v 0.172547 -0.413792 -0.056493
v -0.154451 -0.445771 -0.100085
v -0.154686 -0.469275 -0.092426
v -0.156498 -0.483801 -0.072504
v -0.159197 -0.483801 -0.047931
v -0.161750 -0.469275 -0.028091
v -0.163183 -0.445771 -0.020563
v -0.162949 -0.422267 -0.028223
v -0.161136 -0.407741 -0.048144
v -0.158438 -0.407741 -0.072717
v -0.155884 -0.422267 -0.092557
v 0.169614 -0.442790 -0.063881
v 0.146534 -0.437301 -0.056930
v 0.132270 -0.431809 -0.037500
v 0.132270 -0.428414 -0.013013
v 0.146534 -0.428411 0.007178
v 0.169614 -0.431801 0.015361
v 0.192694 -0.437291 0.008410
v 0.206959 -0.442782 -0.011020
v 0.206959 -0.446177 -0.035507
v 0.192694 -0.446180 -0.055698
v 0.214718 -0.212750 -0.095781
v 0.191638 -0.207261 -0.088829
v 0.177374 -0.201770 -0.069399
v 0.177374 -0.198374 -0.044912
v 0.191638 -0.198371 -0.024721
v 0.214718 -0.201761 -0.016539
v 0.237798 -0.207251 -0.023490
v 0.252063 -0.212742 -0.042920
v 0.252063 -0.216137 -0.067407
v 0.237798 -0.216141 -0.087598
v 0.214718 -0.220230 -0.093997
v 0.191235 -0.216653 -0.087148
v 0.176722 -0.209486 -0.068462
v 0.176722 -0.201467 -0.045077
v 0.191235 -0.195660 -0.025926
v 0.214718 -0.194281 -0.018322
v 0.238201 -0.197859 -0.025172
v 0.252714 -0.205026 -0.043857
v 0.252714 -0.213044 -0.067242
v 0.238201 -0.218852 -0.086394
v 0.223681 -0.048958 -0.152726
v 0.200198 -0.045381 -0.145876
v 0.185685 -0.038214 -0.127191
v 0.185685 -0.030195 -0.103806
v 0.200198 -0.024388 -0.084654
v 0.223681 -0.023009 -0.077051
v 0.247164 -0.026587 -0.083900
v 0.261677 -0.033754 -0.102586
v 0.261677 -0.041772 -0.125971
v 0.247164 -0.047580 -0.145122
v -0.158817 -0.483734 -0.072927
v -0.176597 -0.481331 -0.055919
v -0.187585 -0.465345 -0.040594
v -0.187585 -0.441883 -0.032805
v -0.176597 -0.419906 -0.035528
v -0.158817 -0.407808 -0.047721
v -0.141038 -0.410212 -0.064729
v -0.130049 -0.426197 -0.080054
v -0.130049 -0.449660 -0.087843
v -0.141038 -0.471637 -0.085120
v -0.331523 -0.420847 -0.262359
v -0.349303 -0.418444 -0.245351
v -0.360291 -0.402458 -0.230026
v -0.360291 -0.378996 -0.222238
v -0.349303 -0.357019 -0.224960
v -0.331523 -0.344922 -0.237154
v -0.313744 -0.347325 -0.254161
v -0.302755 -0.363311 -0.269486
v -0.302755 -0.386773 -0.277275
v -0.313744 -0.408750 -0.274553
v -0.331523 -0.412120 -0.222457
v -0.350660 -0.415859 -0.237654
v -0.362487 -0.407003 -0.257474
v -0.362487 -0.388934 -0.274346
v -0.350660 -0.368555 -0.281826
v -0.331523 -0.353649 -0.277056
v -0.312386 -0.349910 -0.261859
v -0.300559 -0.358766 -0.242039
v -0.300559 -0.376835 -0.225167
v -0.312386 -0.397214 -0.217687
v -0.165810 -0.570571 -0.392142
v -0.184947 -0.574310 -0.407340
v -0.196774 -0.565453 -0.427160
v -0.196774 -0.547385 -0.444032
v -0.184947 -0.527005 -0.451512
v -0.165810 -0.512099 -0.446742
v -0.146673 -0.508361 -0.431545
v -0.134846 -0.517217 -0.411725
v -0.134846 -0.535285 -0.394852
v -0.146673 -0.555665 -0.387373
v 0.169614 -0.434092 -0.064131
v 0.146234 -0.437178 -0.056715
v 0.131785 -0.440310 -0.036903
v 0.131785 -0.442290 -0.012261
v 0.146234 -0.442362 0.007798
v 0.169614 -0.440499 0.015612
v 0.192994 -0.437413 0.008196
v 0.207444 -0.434281 -0.011617
v 0.207444 -0.432301 -0.036259
v 0.192994 -0.432229 -0.056318
v 0.122320 0.009856 -0.028458
v 0.098940 0.006769 -0.021042
v 0.084491 0.003638 -0.001229
v 0.084491 0.001658 0.023413
v 0.098940 0.001585 0.043472
v 0.122320 0.003448 0.051285
v 0.145700 0.006534 0.043870
v 0.160150 0.009666 0.024057
v 0.160150 0.011646 -0.000585
v 0.145700 0.011719 -0.020644
v -0.158817 -0.440942 -0.100031
v -0.182236 -0.439797 -0.092197
v -0.196710 -0.440935 -0.072188
v -0.196710 -0.443920 -0.047647
v -0.182236 -0.447612 -0.027949
v -0.158817 -0.450601 -0.020617
v -0.135398 -0.451745 -0.028452
v -0.120924 -0.450607 -0.048461
v -0.120924 -0.447622 -0.073001
v -0.135398 -0.443930 -0.092699
v -0.120563 -0.013728 -0.048069
v -0.143982 -0.012584 -0.040235
v -0.158456 -0.013721 -0.020226
v -0.158456 -0.016706 0.004315
v -0.143982 -0.020398 0.024013
v -0.120563 -0.023387 0.031345
v -0.097144 -0.024531 0.023511
v -0.082670 -0.023394 0.003502
v -0.082670 -0.020409 -0.021039
v -0.097144 -0.016717 -0.040737
v 0.125566 0.006652 -0.028454
v 0.127358 -0.016735 -0.020644
v 0.127225 -0.031189 -0.000588
v 0.125219 -0.031189 0.024052
v 0.122105 -0.016735 0.043864
v 0.119074 0.006652 0.051282
v 0.117283 0.030038 0.043472
v 0.117415 0.044492 0.023416
v 0.119422 0.044492 -0.001224
v 0.122535 0.030038 -0.021036
v -0.117317 -0.018558 -0.048230
v -0.115525 -0.041944 -0.040420
v -0.115658 -0.056398 -0.020364
v -0.117664 -0.056398 0.004276
v -0.120778 -0.041944 0.024088
v -0.123809 -0.018558 0.031506
v -0.125600 0.004829 0.023696
v -0.125468 0.019283 0.003640
v -0.123461 0.019283 -0.021000
v -0.120348 0.004829 -0.040812
v 0.122320 -0.005015 -0.026847
v 0.099031 -0.005868 -0.018600
v 0.084637 -0.001939 0.001111
v 0.084637 0.005271 0.024758
v 0.099031 0.013009 0.043307
v 0.122320 0.018318 0.049675
v 0.145610 0.019172 0.041428
v 0.160004 0.015243 0.021717
v 0.160004 0.008033 -0.001930
v 0.145610 0.000295 -0.020479
v 0.097668 0.165451 -0.078825
v 0.074379 0.164597 -0.070579
v 0.059985 0.168526 -0.050867
v 0.059985 0.175736 -0.027221
v 0.074379 0.183474 -0.008671
v 0.097668 0.188784 -0.002304
v 0.120958 0.189637 -0.010550
v 0.135352 0.185709 -0.030262
v 0.135352 0.178498 -0.053908
v 0.120958 0.170760 -0.072458
v 0.097668 0.191777 -0.077781
v 0.074303 0.191415 -0.069713
v 0.059863 0.185592 -0.050511
v 0.059863 0.176532 -0.027510
v 0.074303 0.167695 -0.009495
v 0.097668 0.162458 -0.003348
v 0.121033 0.162820 -0.011416
v 0.135473 0.168643 -0.030618
v 0.135473 0.177703 -0.053619
v 0.121033 0.186539 -0.071634
v 0.136782 0.516312 0.050051
v 0.113417 0.515950 0.058119
v 0.098977 0.510127 0.077321
v 0.098977 0.501067 0.100322
v 0.113417 0.492231 0.118337
v 0.136782 0.486993 0.124485
v 0.160147 0.487355 0.116417
v 0.174588 0.493178 0.097215
v 0.174588 0.502238 0.074213
v 0.160147 0.511075 0.056198
v -0.120563 -0.058366 -0.004450
v -0.144061 -0.050840 -0.005978
v -0.158584 -0.030983 -0.008416
v -0.158584 -0.006380 -0.010834
v -0.144061 0.013571 -0.012307
v -0.120563 0.021251 -0.012274
v -0.097065 0.013725 -0.010746
v -0.082542 -0.006132 -0.008308
v -0.082542 -0.030735 -0.005890
v -0.097065 -0.050686 -0.004417
v -0.112680 -0.081464 -0.239512
v -0.136178 -0.073938 -0.241040
v -0.150701 -0.054081 -0.243478
v -0.150701 -0.029478 -0.245896
v -0.136178 -0.009527 -0.247369
v -0.112680 -0.001848 -0.247336
v -0.089182 -0.009374 -0.245808
v -0.074659 -0.029230 -0.243370
v -0.074659 -0.053833 -0.240952
v -0.089182 -0.073785 -0.239479
v -0.112680 -0.051797 -0.282117
v -0.135828 -0.045877 -0.275771
v -0.150135 -0.038346 -0.257070
v -0.150135 -0.032078 -0.233156
v -0.135828 -0.029469 -0.213164
v -0.112680 -0.031515 -0.204731
v -0.089532 -0.037434 -0.211077
v -0.075226 -0.044966 -0.229778
v -0.075226 -0.051233 -0.253692
v -0.089532 -0.053843 -0.273684
v -0.057729 0.247073 -0.360446
v -0.080878 0.252992 -0.354100
v -0.095184 0.260524 -0.335399
v -0.095184 0.266791 -0.311485
v -0.080878 0.269400 -0.291494
v -0.057729 0.267354 -0.283060
v -0.034581 0.261435 -0.289406
v -0.020275 0.253903 -0.308108
v -0.020275 0.247636 -0.332021
v -0.034581 0.245027 -0.352013
v -0.047547 0.088438 0.005658
v -0.050220 0.080042 0.002777
v -0.051836 0.074853 -0.004733
v -0.051780 0.074853 -0.014003
v -0.050071 0.080042 -0.021493
v -0.047363 0.088438 -0.024341
v -0.044690 0.096835 -0.021460
v -0.043073 0.102024 -0.013950
v -0.043130 0.102024 -0.004680
v -0.044839 0.096835 0.002810
v -0.010779 0.076657 0.005884
v -0.013452 0.068260 0.003002
v -0.015069 0.063071 -0.004508
v -0.015012 0.063071 -0.013778
v -0.013304 0.068260 -0.021268
v -0.010596 0.076657 -0.024116
v -0.007923 0.085053 -0.021235
v -0.006306 0.090242 -0.013725
v -0.006363 0.090242 -0.004454
v -0.008071 0.085053 0.003035
v -0.010688 0.068666 0.003578
v -0.016321 0.064452 -0.002459
v -0.019803 0.064901 -0.011039
v -0.019803 0.069839 -0.018885
v -0.016321 0.077382 -0.022999
v -0.010688 0.084647 -0.021811
v -0.005054 0.088861 -0.015773
v -0.001572 0.088413 -0.007193
v -0.001572 0.083474 0.000652
v -0.005054 0.075931 0.004767
v 0.015082 0.050549 -0.007826
v 0.009448 0.046336 -0.013863
v 0.005966 0.046784 -0.022443
v 0.005966 0.051722 -0.030289
v 0.009448 0.059265 -0.034403
v 0.015082 0.066531 -0.033215
v 0.020716 0.070744 -0.027177
v 0.024198 0.070296 -0.018597
v 0.024198 0.065357 -0.010752
v 0.020716 0.057815 -0.006637
v 0.015082 0.049993 -0.008193
v 0.006704 0.049367 -0.012113
v 0.001527 0.052244 -0.019245
v 0.001527 0.057526 -0.026863
v 0.006704 0.063195 -0.032059
v 0.015082 0.067086 -0.032847
v 0.023459 0.067713 -0.028927
v 0.028637 0.064835 -0.021796
v 0.028637 0.059553 -0.014177
v 0.023459 0.053884 -0.008981
v 0.025964 0.022734 -0.027092
v 0.017587 0.022107 -0.031013
v 0.012409 0.024985 -0.038144
v 0.012409 0.030267 -0.045763
v 0.017587 0.035936 -0.050958
v 0.025964 0.039827 -0.051747
v 0.034342 0.040453 -0.047826
v 0.039519 0.037576 -0.040695
v 0.039519 0.032294 -0.033076
v 0.034342 0.026625 -0.027881
v 0.025964 0.024262 -0.026163
v 0.017363 0.027315 -0.027788
v 0.012047 0.031882 -0.033856
v 0.012047 0.036220 -0.042049
v 0.017363 0.038671 -0.049238
v 0.025964 0.038299 -0.052676
v 0.034566 0.035246 -0.051051
v 0.039881 0.030679 -0.044983
v 0.039881 0.026341 -0.036790
v 0.034566 0.023890 -0.029601
v 0.019670 -0.000435 -0.039238
v 0.011068 0.002617 -0.040863
v 0.005752 0.007185 -0.046931
v 0.005752 0.011522 -0.055125
v 0.011068 0.013973 -0.062313
v 0.019670 0.013602 -0.065752
v 0.028271 0.010549 -0.064126
v 0.033587 0.005981 -0.058058
v 0.033587 0.001644 -0.049865
v 0.028271 -0.000807 -0.042676
v -0.047455 0.092253 0.005165
v -0.054157 0.085985 0.003852
v -0.058300 0.080654 -0.002502
v -0.058300 0.078296 -0.011467
v -0.054157 0.079812 -0.019621
v -0.047455 0.084624 -0.023848
v -0.040752 0.090892 -0.022534
v -0.036610 0.096223 -0.016181
v -0.036610 0.098581 -0.007216
v -0.040752 0.097064 0.000938
v 0.020886 0.014915 0.025502
v 0.014184 0.008647 0.024188
v 0.010042 0.003316 0.017835
v 0.010042 0.000958 0.008869
v 0.014184 0.002475 0.000715
v 0.020886 0.007286 -0.003512
v 0.027589 0.013554 -0.002198
v 0.031731 0.018885 0.004155
v 0.031731 0.021243 0.013121
v 0.027589 0.019727 0.021275
v 0.020886 0.008238 0.025719
v 0.013467 0.004109 0.021998
v 0.008882 0.002650 0.014074
v 0.008882 0.004420 0.004974
v 0.013467 0.008741 -0.001826
v 0.020886 0.013964 -0.003729
v 0.028306 0.018093 -0.000008
v 0.032891 0.019551 0.007916
v 0.032891 0.017781 0.017016
v 0.028306 0.013460 0.023816
v 0.037708 -0.017482 0.020718
v 0.030289 -0.021611 0.016997
v 0.025703 -0.023069 0.009073
v 0.025703 -0.021300 -0.000027
v 0.030289 -0.016978 -0.006828
v 0.037708 -0.011756 -0.008730
v 0.045127 -0.007627 -0.005009
v 0.049713 -0.006169 0.002915
v 0.049713 -0.007938 0.012015
v 0.045127 -0.012259 0.018815
v 0.037708 -0.020595 0.019752
v 0.029500 -0.022406 0.015842
v 0.024427 -0.021243 0.008170
v 0.024427 -0.017550 -0.000333
v 0.029500 -0.012737 -0.006419
v 0.037708 -0.008643 -0.007764
v 0.045916 -0.006832 -0.003854
v 0.050989 -0.007995 0.003817
v 0.050989 -0.011688 0.012320
v 0.045916 -0.016501 0.018407
v 0.045679 -0.039236 0.011655
v 0.037471 -0.041048 0.007745
v 0.032398 -0.039885 0.000073
v 0.032398 -0.036191 -0.008430
v 0.037471 -0.031379 -0.014516
v 0.045679 -0.027285 -0.015861
v 0.053887 -0.025473 -0.011951
v 0.058960 -0.026636 -0.004279
v 0.058960 -0.030330 0.004224
v 0.053887 -0.035142 0.010310
v 0.045679 -0.045045 0.007177
v 0.037000 -0.043756 0.004184
v 0.031637 -0.038458 -0.001211
v 0.031637 -0.031175 -0.006946
v 0.037000 -0.024688 -0.010832
v 0.045679 -0.021476 -0.011383
v 0.054358 -0.022765 -0.008390
v 0.059721 -0.028063 -0.002995
v 0.059721 -0.035346 0.002740
v 0.054358 -0.041833 0.006626
v 0.050070 -0.060216 -0.012088
v 0.041391 -0.058927 -0.015081
v 0.036028 -0.053629 -0.020476
v 0.036028 -0.046346 -0.026211
v 0.041391 -0.039859 -0.030097
v 0.050070 -0.036647 -0.030648
v 0.058749 -0.037936 -0.027655
v 0.064113 -0.043234 -0.022260
v 0.064113 -0.050517 -0.016525
v 0.058749 -0.057004 -0.012639
v -0.047455 0.091219 0.005398
v -0.055259 0.086658 0.003344
v -0.060083 0.082776 -0.003556
v -0.060083 0.081057 -0.012666
v -0.055259 0.082158 -0.020506
v -0.047455 0.085657 -0.024081
v -0.039650 0.090219 -0.022027
v -0.034827 0.094101 -0.015127
v -0.034827 0.095820 -0.006017
v -0.039650 0.094719 0.001823
v 0.001897 -0.001054 0.022808
v -0.005908 -0.005615 0.020754
v -0.010731 -0.009497 0.013854
v -0.010731 -0.011216 0.004744
v -0.005908 -0.010115 -0.003096
v 0.001897 -0.006616 -0.006672
v 0.009701 -0.002054 -0.004617
v 0.014525 0.001828 0.002283
v 0.014525 0.003547 0.011393
v 0.009701 0.002446 0.019233
v 0.001897 -0.006874 0.022757
v -0.005340 -0.011226 0.018931
v -0.009812 -0.012754 0.010956
v -0.009812 -0.010876 0.001878
v -0.005340 -0.006308 -0.004836
v 0.001897 -0.000795 -0.006620
v 0.009133 0.003557 -0.002795
v 0.013606 0.005085 0.005181
v 0.013606 0.003206 0.014259
v 0.009133 -0.001362 0.020972
v 0.023812 -0.037709 0.016376
v 0.016575 -0.042060 0.012550
v 0.012103 -0.043589 0.004575
v 0.012103 -0.041710 -0.004503
v 0.016575 -0.037142 -0.011217
v 0.023812 -0.031630 -0.013001
v 0.031048 -0.027278 -0.009175
v 0.035521 -0.025750 -0.001200
v 0.035521 -0.027628 0.007878
v 0.031048 -0.032196 0.014592
v 0.023812 -0.043073 0.014112
v 0.015848 -0.044602 0.009620
v 0.010926 -0.042337 0.002097
v 0.010926 -0.037143 -0.005582
v 0.015848 -0.031004 -0.010484
v 0.023812 -0.026265 -0.010737
v 0.031775 -0.024736 -0.006245
v 0.036697 -0.027002 0.001278
v 0.036697 -0.032196 0.008957
v 0.031775 -0.038335 0.013859
v 0.033488 -0.059945 0.002700
v 0.025524 -0.061474 -0.001792
v 0.020602 -0.059208 -0.009315
v 0.020602 -0.054014 -0.016994
v 0.025524 -0.047875 -0.021896
v 0.033488 -0.043137 -0.022149
v 0.041452 -0.041608 -0.017656
v 0.046374 -0.043873 -0.010134
v 0.046374 -0.049067 -0.002455
v 0.041452 -0.055206 0.002447
v 0.033488 -0.059988 0.002671
v 0.025517 -0.061489 -0.001819
v 0.020591 -0.059190 -0.009328
v 0.020591 -0.053969 -0.016989
v 0.025517 -0.047821 -0.021875
v 0.033488 -0.043093 -0.022119
v 0.041459 -0.041592 -0.017630
v 0.046385 -0.043891 -0.010121
v 0.046385 -0.049112 -0.002460
v 0.041459 -0.055261 0.002426
v 0.044598 -0.079406 -0.010563
v 0.036628 -0.080907 -0.015053
v 0.031702 -0.078608 -0.022562
v 0.031702 -0.073387 -0.030223
v 0.036628 -0.067238 -0.035108
v 0.044598 -0.062511 -0.035353
v 0.052569 -0.061010 -0.030864
v 0.057495 -0.063309 -0.023354
v 0.057495 -0.068530 -0.015694
v 0.052569 -0.074678 -0.010808
v -0.047455 0.088884 0.005652
v -0.055810 0.085984 0.002872
v -0.060973 0.084021 -0.004573
v -0.060973 0.083746 -0.013839
v -0.055810 0.085262 -0.021388
v -0.047455 0.087992 -0.024335
v -0.039100 0.090893 -0.021555
v -0.033936 0.092856 -0.014110
v -0.033936 0.093131 -0.004844
v -0.039100 0.091614 0.002705
v -0.014695 -0.008255 0.008542
v -0.023050 -0.011155 0.005762
v -0.028213 -0.013118 -0.001683
v -0.028213 -0.013394 -0.010949
v -0.023050 -0.011877 -0.018498
v -0.014695 -0.009147 -0.021445
v -0.006340 -0.006246 -0.018665
v -0.001177 -0.004283 -0.011220
v -0.001177 -0.004008 -0.001954
v -0.006340 -0.005525 0.005594
v -0.014695 -0.011784 0.008228
v -0.021709 -0.016423 0.004327
v -0.026044 -0.018113 -0.003692
v -0.026044 -0.016207 -0.012765
v -0.021709 -0.011435 -0.019426
v -0.014695 -0.005618 -0.021131
v -0.007681 -0.000978 -0.017230
v -0.003346 0.000712 -0.009211
v -0.003346 -0.001194 -0.000139
v -0.007681 -0.005967 0.006523
v 0.004407 -0.036327 0.003074
v -0.002607 -0.040966 -0.000828
v -0.006942 -0.042656 -0.008846
v -0.006942 -0.040751 -0.017919
v -0.002607 -0.035978 -0.024580
v 0.004407 -0.030161 -0.026286
v 0.011421 -0.025521 -0.022384
v 0.015755 -0.023832 -0.014366
v 0.015755 -0.025737 -0.005293
v 0.011421 -0.030510 0.001368
v 0.004407 -0.038713 0.002361
v -0.002767 -0.042441 -0.002175
v -0.007201 -0.042656 -0.010314
v -0.007201 -0.039276 -0.018946
v -0.002767 -0.033592 -0.024775
v 0.004407 -0.027775 -0.025573
v 0.011581 -0.024047 -0.021037
v 0.016014 -0.023832 -0.012898
v 0.016014 -0.027212 -0.004266
v 0.011581 -0.032896 0.001563
v 0.018103 -0.056563 -0.004628
v 0.010929 -0.060292 -0.009165
v 0.006495 -0.060507 -0.017303
v 0.006495 -0.057127 -0.025936
v 0.010929 -0.051442 -0.031764
v 0.018103 -0.045625 -0.032563
v 0.025277 -0.041897 -0.028027
v 0.029710 -0.041682 -0.019888
v 0.029710 -0.045062 -0.011256
v 0.025277 -0.050746 -0.005427
v 0.018103 -0.059289 -0.006032
v 0.010901 -0.061984 -0.011210
v 0.006451 -0.060520 -0.019210
v 0.006451 -0.055456 -0.026974
v 0.010901 -0.048725 -0.031539
v 0.018103 -0.042900 -0.031159
v 0.025304 -0.040204 -0.025981
v 0.029755 -0.041668 -0.017982
v 0.029755 -0.046733 -0.010217
v 0.025304 -0.053463 -0.005652
v 0.031256 -0.074886 -0.016205
v 0.024054 -0.077581 -0.021383
v 0.019603 -0.076117 -0.029382
v 0.019603 -0.071053 -0.037147
v 0.024054 -0.064322 -0.041712
v 0.031256 -0.058497 -0.041332
v 0.038457 -0.055801 -0.036154
v 0.042908 -0.057265 -0.028155
v 0.042908 -0.062330 -0.020390
v 0.038457 -0.069060 -0.015825
v -0.047455 0.086667 0.005554
v -0.056165 0.085649 0.002548
v -0.061549 0.085697 -0.005000
v -0.061549 0.086792 -0.014205
v -0.056165 0.088516 -0.021553
v -0.047455 0.090210 -0.024236
v -0.038744 0.091228 -0.021231
v -0.033361 0.091180 -0.013683
v -0.033361 0.090085 -0.004478
v -0.038744 0.088361 0.002870
v -0.033338 -0.002766 -0.005084
v -0.042048 -0.003783 -0.008090
v -0.047431 -0.003735 -0.015637
v -0.047431 -0.002640 -0.024843
v -0.042048 -0.000916 -0.032191
v -0.033338 0.000778 -0.034874
v -0.024627 0.001795 -0.031868
v -0.019244 0.001747 -0.024321
v -0.019244 0.000652 -0.015115
v -0.024627 -0.001071 -0.007767
v -0.033338 -0.000959 -0.004979
v -0.041188 -0.004979 -0.007834
v -0.046040 -0.007478 -0.015329
v -0.046040 -0.007499 -0.024599
v -0.041188 -0.005036 -0.032105
v -0.033338 -0.001029 -0.034979
v -0.025488 0.002992 -0.032124
v -0.020636 0.005490 -0.024629
v -0.020636 0.005512 -0.015359
v -0.025488 0.003048 -0.007853
v -0.022274 -0.022597 -0.004928
v -0.030124 -0.026618 -0.007784
v -0.034976 -0.029116 -0.015278
v -0.034976 -0.029137 -0.024548
v -0.030124 -0.026674 -0.032054
v -0.022274 -0.022667 -0.034928
v -0.014424 -0.018647 -0.032073
v -0.009572 -0.016148 -0.024579
v -0.009572 -0.016127 -0.015308
v -0.014424 -0.018590 -0.007802
v -0.022274 -0.024618 -0.005060
v -0.030256 -0.027950 -0.008396
v -0.035189 -0.029251 -0.016136
v -0.035189 -0.028024 -0.025325
v -0.030256 -0.024737 -0.032452
v -0.022274 -0.020646 -0.034796
v -0.014292 -0.017314 -0.031461
v -0.009359 -0.016013 -0.023721
v -0.009359 -0.017240 -0.014532
v -0.014292 -0.020527 -0.007404
v -0.012109 -0.046095 -0.007929
v -0.020091 -0.049427 -0.011264
v -0.025024 -0.050728 -0.019004
v -0.025024 -0.049501 -0.028193
v -0.020091 -0.046214 -0.035321
v -0.012109 -0.042124 -0.037665
v -0.004127 -0.038791 -0.034329
v 0.000807 -0.037490 -0.026589
v 0.000807 -0.038717 -0.017400
v -0.004127 -0.042004 -0.010272
v -0.012109 -0.051748 -0.009888
v -0.019416 -0.054535 -0.014866
v -0.023932 -0.053340 -0.022873
v -0.023932 -0.048619 -0.030851
v -0.019416 -0.042175 -0.035753
v -0.012109 -0.036470 -0.035706
v -0.004802 -0.033683 -0.030727
v -0.000286 -0.034878 -0.022720
v -0.000286 -0.039600 -0.014742
v -0.004802 -0.046043 -0.009840
v -0.000658 -0.066343 -0.018524
v -0.007965 -0.069130 -0.023502
v -0.012481 -0.067935 -0.031510
v -0.012481 -0.063213 -0.039488
v -0.007965 -0.056770 -0.044390
v -0.000658 -0.051065 -0.044342
v 0.006649 -0.048277 -0.039364
v 0.011165 -0.049473 -0.031357
v 0.011165 -0.054194 -0.023379
v 0.006649 -0.060638 -0.018477
f 1 2 13
f 2 14 13
f 2 3 14
f 3 15 14
f 3 4 15
f 4 16 15
f 4 5 16
f 5 17 16
f 5 6 17
f 6 18 17
f 6 7 18
f 7 19 18
f 7 8 19
f 8 20 19
f 8 9 20
f 9 21 20
f 9 10 21
f 10 22 21
f 10 11 22
f 11 23 22
f 11 12 23
f 12 24 23
f 13 14 25
f 14 26 25
f 14 15 26
f 15 27 26
f 15 16 27
f 16 28 27
f 16 17 28
f 17 29 28
f 17 18 29
f 18 30 29
f 18 19 30
f 19 31 30
f 19 20 31
f 20 32 31
f 20 21 32
f 21 33 32
f 21 22 33
f 22 34 33
f 22 23 34
f 23 35 34
f 23 24 35
f 24 36 35
f 25 26 37
f 26 38 37
f 26 27 38
f 27 39 38
f 27 28 39
f 28 40 39
f 28 29 40
f 29 41 40
f 29 30 41
f 30 42 41
f 30 31 42
f 31 43 42
f 31 32 43
f 32 44 43
f 32 33 44
f 33 45 44
f 33 34 45
f 34 46 45
f 34 35 46
f 35 47 46
f 35 36 47
f 36 48 47
f 37 38 49
f 38 50 49
f 38 39 50
f 39 51 50
f 39 40 51
f 40 52 51
f 40 41 52
f 41 53 52
f 41 42 53
f 42 54 53
f 42 43 54
f 43 55 54
f 43 44 55
f 44 56 55
f 44 45 56
f 45 57 56
f 45 46 57
f 46 58 57
f 46 47 58
f 47 59 58
f 47 48 59
f 48 60 59
f 49 50 61
f 50 62 61
f 50 51 62
f 51 63 62
f 51 52 63
f 52 64 63
f 52 53 64
f 53 65 64
f 53 54 65
f 54 66 65
f 54 55 66
f 55 67 66
f 55 56 67
f 56 68 67
f 56 57 68
f 57 69 68
f 57 58 69
f 58 70 69
f 58 59 70
f 59 71 70
f 59 60 71
f 60 72 71
f 61 62 73
f 62 74 73
f 62 63 74
f 63 75 74
f 63 64 75
f 64 76 75
f 64 65 76
f 65 77 76
f 65 66 77
f 66 78 77
f 66 67 78
f 67 79 78
f 67 68 79
f 68 80 79
f 68 69 80
f 69 81 80
f 69 70 81
f 70 82 81
f 70 71 82
f 71 83 82
f 71 72 83
f 72 84 83
f 73 74 85
f 74 86 85
f 74 75 86
f 75 87 86
f 75 76 87
f 76 88 87
f 76 77 88
f 77 89 88
f 77 78 89
f 78 90 89
f 78 79 90
f 79 91 90
f 79 80 91
f 80 92 91
f 80 81 92
f 81 93 92
f 81 82 93
f 82 94 93
f 82 83 94
f 83 95 94
f 83 84 95
f 84 96 95
f 85 86 97
f 86 98 97
f 86 87 98
f 87 99 98
f 87 88 99
f 88 100 99
f 88 89 100
f 89 101 100
f 89 90 101
f 90 102 101
f 90 91 102
f 91 103 102
f 91 92 103
f 92 104 103
f 92 93 104
f 93 105 104
f 93 94 105
f 94 106 105
f 94 95 106
f 95 107 106
f 95 96 107
f 96 108 107
f 97 98 109
f 98 110 109
f 98 99 110
f 99 111 110
f 99 100 111
f 100 112 111
f 100 101 112
f 101 113 112
f 101 102 113
f 102 114 113
f 102 103 114
f 103 115 114
f 103 104 115
f 104 116 115
f 104 105 116
f 105 117 116
f 105 106 117
f 106 118 117
f 106 107 118
f 107 119 118
f 107 108 119
f 108 120 119
f 109 110 121
f 110 122 121
f 110 111 122
f 111 123 122
f 111 112 123
f 112 124 123
f 112 113 124
f 113 125 124
f 113 114 125
f 114 126 125
f 114 115 126
f 115 127 126
f 115 116 127
f 116 128 127
f 116 117 128
f 117 129 128
f 117 118 129
f 118 130 129
f 118 119 130
f 119 131 130
f 119 120 131
f 120 132 131
f 121 122 133
f 122 134 133
f 122 123 134
f 123 135 134
f 123 124 135
f 124 136 135
f 124 125 136
f 125 137 136
f 125 126 137
f 126 138 137
f 126 127 138
f 127 139 138
f 127 128 139
f 128 140 139
f 128 129 140
f 129 141 140
f 129 130 141
f 130 142 141
f 130 131 142
f 131 143 142
f 131 132 143
f 132 144 143
f 145 146 155
f 146 156 155
f 146 147 156
f 147 157 156
f 147 148 157
f 148 158 157
f 148 149 158
f 149 159 158
f 149 150 159
f 150 160 159
f 150 151 160
f 151 161 160
f 151 152 161
f 152 162 161
f 152 153 162
f 153 163 162
f 153 154 163
f 154 164 163
f 154 145 164
f 145 155 164
f 165 166 175
f 166 176 175
f 166 167 176
f 167 177 176
f 167 168 177
f 168 178 177
f 168 169 178
f 169 179 178
f 169 170 179
f 170 180 179
f 170 171 180
f 171 181 180
f 171 172 181
f 172 182 181
f 172 173 182
f 173 183 182
f 173 174 183
f 174 184 183
f 174 165 184
f 165 175 184
f 185 186 195
f 186 196 195
f 186 187 196
f 187 197 196
f 187 188 197
f 188 198 197
f 188 189 198
f 189 199 198
f 189 190 199
f 190 200 199
f 190 191 200
f 191 201 200
f 191 192 201
f 192 202 201
f 192 193 202
f 193 203 202
f 193 194 203
f 194 204 203
f 194 185 204
f 185 195 204
f 205 206 215
f 206 216 215
f 206 207 216
f 207 217 216
f 207 208 217
f 208 218 217
f 208 209 218
f 209 219 218
f 209 210 219
f 210 220 219
f 210 211 220
f 211 221 220
f 211 212 221
f 212 222 221
f 212 213 222
f 213 223 222
f 213 214 223
f 214 224 223
f 214 205 224
f 205 215 224
f 225 226 235
f 226 236 235
f 226 227 236
f 227 237 236
f 227 228 237
f 228 238 237
f 228 229 238
f 229 239 238
f 229 230 239
f 230 240 239
f 230 231 240
f 231 241 240
f 231 232 241
f 232 242 241
f 232 233 242
f 233 243 242
f 233 234 243
f 234 244 243
f 234 225 244
f 225 235 244
f 245 246 255
f 246 256 255
f 246 247 256
f 247 257 256
f 247 248 257
f 248 258 257
f 248 249 258
f 249 259 258
f 249 250 259
f 250 260 259
f 250 251 260
f 251 261 260
f 251 252 261
f 252 262 261
f 252 253 262
f 253 263 262
f 253 254 263
f 254 264 263
f 254 245 264
f 245 255 264
f 265 266 275
f 266 276 275
f 266 267 276
f 267 277 276
f 267 268 277
f 268 278 277
f 268 269 278
f 269 279 278
f 269 270 279
f 270 280 279
f 270 271 280
f 271 281 280
f 271 272 281
f 272 282 281
f 272 273 282
f 273 283 282
f 273 274 283
f 274 284 283
f 274 265 284
f 265 275 284
f 285 286 295
f 286 296 295
f 286 287 296
f 287 297 296
f 287 288 297
f 288 298 297
f 288 289 298
f 289 299 298
f 289 290 299
f 290 300 299
f 290 291 300
f 291 301 300
f 291 292 301
f 292 302 301
f 292 293 302
f 293 303 302
f 293 294 303
f 294 304 303
f 294 285 304
f 285 295 304
f 305 306 315
f 306 316 315
f 306 307 316
f 307 317 316
f 307 308 317
f 308 318 317
f 308 309 318
f 309 319 318
f 309 310 319
f 310 320 319
f 310 311 320
f 311 321 320
f 311 312 321
f 312 322 321
f 312 313 322
f 313 323 322
f 313 314 323
f 314 324 323
f 314 305 324
f 305 315 324
f 325 326 335
f 326 336 335
f 326 327 336
f 327 337 336
f 327 328 337
f 328 338 337
f 328 329 338
f 329 339 338
f 329 330 339
f 330 340 339
f 330 331 340
f 331 341 340
f 331 332 341
f 332 342 341
f 332 333 342
f 333 343 342
f 333 334 343
f 334 344 343
f 334 325 344
f 325 335 344
f 345 346 355
f 346 356 355
f 346 347 356
f 347 357 356
f 347 348 357
f 348 358 357
f 348 349 358
f 349 359 358
f 349 350 359
f 350 360 359
f 350 351 360
f 351 361 360
f 351 352 361
f 352 362 361
f 352 353 362
f 353 363 362
f 353 354 363
f 354 364 363
f 354 345 364
f 345 355 364
f 365 366 375
f 366 376 375
f 366 367 376
f 367 377 376
f 367 368 377
f 368 378 377
f 368 369 378
f 369 379 378
f 369 370 379
f 370 380 379
f 370 371 380
f 371 381 380
f 371 372 381
f 372 382 381
f 372 373 382
f 373 383 382
f 373 374 383
f 374 384 383
f 374 365 384
f 365 375 384
f 385 386 395
f 386 396 395
f 386 387 396
f 387 397 396
f 387 388 397
f 388 398 397
f 388 389 398
f 389 399 398
f 389 390 399
f 390 400 399
f 390 391 400
f 391 401 400
f 391 392 401
f 392 402 401
f 392 393 402
f 393 403 402
f 393 394 403
f 394 404 403
f 394 385 404
f 385 395 404
f 405 406 415
f 406 416 415
f 406 407 416
f 407 417 416
f 407 408 417
f 408 418 417
f 408 409 418
f 409 419 418
f 409 410 419
f 410 420 419
f 410 411 420
f 411 421 420
f 411 412 421
f 412 422 421
f 412 413 422
f 413 423 422
f 413 414 423
f 414 424 423
f 414 405 424
f 405 415 424
f 425 426 435
f 426 436 435
f 426 427 436
f 427 437 436
f 427 428 437
f 428 438 437
f 428 429 438
f 429 439 438
f 429 430 439
f 430 440 439
f 430 431 440
f 431 441 440
f 431 432 441
f 432 442 441
f 432 433 442
f 433 443 442
f 433 434 443
f 434 444 443
f 434 425 444
f 425 435 444
f 445 446 455
f 446 456 455
f 446 447 456
f 447 457 456
f 447 448 457
f 448 458 457
f 448 449 458
f 449 459 458
f 449 450 459
f 450 460 459
f 450 451 460
f 451 461 460
f 451 452 461
f 452 462 461
f 452 453 462
f 453 463 462
f 453 454 463
f 454 464 463
f 454 445 464
f 445 455 464
f 465 466 475
f 466 476 475
f 466 467 476
f 467 477 476
f 467 468 477
f 468 478 477
f 468 469 478
f 469 479 478
f 469 470 479
f 470 480 479
f 470 471 480
f 471 481 480
f 471 472 481
f 472 482 481
f 472 473 482
f 473 483 482
f 473 474 483
f 474 484 483
f 474 465 484
f 465 475 484
f 485 486 495
f 486 496 495
f 486 487 496
f 487 497 496
f 487 488 497
f 488 498 497
f 488 489 498
f 489 499 498
f 489 490 499
f 490 500 499
f 490 491 500
f 491 501 500
f 491 492 501
f 492 502 501
f 492 493 502
f 493 503 502
f 493 494 503
f 494 504 503
f 494 485 504
f 485 495 504
f 505 506 515
f 506 516 515
f 506 507 516
f 507 517 516
f 507 508 517
f 508 518 517
f 508 509 518
f 509 519 518
f 509 510 519
f 510 520 519
f 510 511 520
f 511 521 520
f 511 512 521
f 512 522 521
f 512 513 522
f 513 523 522
f 513 514 523
f 514 524 523
f 514 505 524
f 505 515 524
f 525 526 535
f 526 536 535
f 526 527 536
f 527 537 536
f 527 528 537
f 528 538 537
f 528 529 538
f 529 539 538
f 529 530 539
f 530 540 539
f 530 531 540
f 531 541 540
f 531 532 541
f 532 542 541
f 532 533 542
f 533 543 542
f 533 534 543
f 534 544 543
f 534 525 544
f 525 535 544
f 545 546 555
f 546 556 555
f 546 547 556
f 547 557 556
f 547 548 557
f 548 558 557
f 548 549 558
f 549 559 558
f 549 550 559
f 550 560 559
f 550 551 560
f 551 561 560
f 551 552 561
f 552 562 561
f 552 553 562
f 553 563 562
f 553 554 563
f 554 564 563
f 554 545 564
f 545 555 564
f 565 566 575
f 566 576 575
f 566 567 576
f 567 577 576
f 567 568 577
f 568 578 577
f 568 569 578
f 569 579 578
f 569 570 579
f 570 580 579
f 570 571 580
f 571 581 580
f 571 572 581
f 572 582 581
f 572 573 582
f 573 583 582
f 573 574 583
f 574 584 583
f 574 565 584
f 565 575 584
f 585 586 595
f 586 596 595
f 586 587 596
f 587 597 596
f 587 588 597
f 588 598 597
f 588 589 598
f 589 599 598
f 589 590 599
f 590 600 599
f 590 591 600
f 591 601 600
f 591 592 601
f 592 602 601
f 592 593 602
f 593 603 602
f 593 594 603
f 594 604 603
f 594 585 604
f 585 595 604
f 605 606 615
f 606 616 615
f 606 607 616
f 607 617 616
f 607 608 617
f 608 618 617
f 608 609 618
f 609 619 618
f 609 610 619
f 610 620 619
f 610 611 620
f 611 621 620
f 611 612 621
f 612 622 621
f 612 613 622
f 613 623 622
f 613 614 623
f 614 624 623
f 614 605 624
f 605 615 624
f 625 626 635
f 626 636 635
f 626 627 636
f 627 637 636
f 627 628 637
f 628 638 637
f 628 629 638
f 629 639 638
f 629 630 639
f 630 640 639
f 630 631 640
f 631 641 640
f 631 632 641
f 632 642 641
f 632 633 642
f 633 643 642
f 633 634 643
f 634 644 643
f 634 625 644
f 625 635 644
f 645 646 655
f 646 656 655
f 646 647 656
f 647 657 656
f 647 648 657
f 648 658 657
f 648 649 658
f 649 659 658
f 649 650 659
f 650 660 659
f 650 651 660
f 651 661 660
f 651 652 661
f 652 662 661
f 652 653 662
f 653 663 662
f 653 654 663
f 654 664 663
f 654 645 664
f 645 655 664
f 665 666 675
f 666 676 675
f 666 667 676
f 667 677 676
f 667 668 677
f 668 678 677
f 668 669 678
f 669 679 678
f 669 670 679
f 670 680 679
f 670 671 680
f 671 681 680
f 671 672 681
f 672 682 681
f 672 673 682
f 673 683 682
f 673 674 683
f 674 684 683
f 674 665 684
f 665 675 684
f 685 686 695
f 686 696 695
f 686 687 696
f 687 697 696
f 687 688 697
f 688 698 697
f 688 689 698
f 689 699 698
f 689 690 699
f 690 700 699
f 690 691 700
f 691 701 700
f 691 692 701
f 692 702 701
f 692 693 702
f 693 703 702
f 693 694 703
f 694 704 703
f 694 685 704
f 685 695 704
f 705 706 715
f 706 716 715
f 706 707 716
f 707 717 716
f 707 708 717
f 708 718 717
f 708 709 718
f 709 719 718
f 709 710 719
f 710 720 719
f 710 711 720
f 711 721 720
f 711 712 721
f 712 722 721
f 712 713 722
f 713 723 722
f 713 714 723
f 714 724 723
f 714 705 724
f 705 715 724
f 725 726 735
f 726 736 735
f 726 727 736
f 727 737 736
f 727 728 737
f 728 738 737
f 728 729 738
f 729 739 738
f 729 730 739
f 730 740 739
f 730 731 740
f 731 741 740
f 731 732 741
f 732 742 741
f 732 733 742
f 733 743 742
f 733 734 743
f 734 744 743
f 734 725 744
f 725 735 744
f 745 746 755
f 746 756 755
f 746 747 756
f 747 757 756
f 747 748 757
f 748 758 757
f 748 749 758
f 749 759 758
f 749 750 759
f 750 760 759
f 750 751 760
f 751 761 760
f 751 752 761
f 752 762 761
f 752 753 762
f 753 763 762
f 753 754 763
f 754 764 763
f 754 745 764
f 745 755 764
f 765 766 775
f 766 776 775
f 766 767 776
f 767 777 776
f 767 768 777
f 768 778 777
f 768 769 778
f 769 779 778
f 769 770 779
f 770 780 779
f 770 771 780
f 771 781 780
f 771 772 781
f 772 782 781
f 772 773 782
f 773 783 782
f 773 774 783
f 774 784 783
f 774 765 784
f 765 775 784
