# Full-Body 3D Mesh - Frame 0
v 0.007700 -0.599686 -0.234916
v 0.041508 -0.599686 -0.239776
v 0.072577 -0.599686 -0.253965
v 0.098390 -0.599686 -0.276332
v 0.116856 -0.599686 -0.305066
v 0.126479 -0.599686 -0.337838
v 0.126479 -0.599686 -0.371993
v 0.116856 -0.599686 -0.404765
v 0.098390 -0.599686 -0.433499
v 0.072577 -0.599686 -0.455866
v 0.041508 -0.599686 -0.470055
v 0.007700 -0.599686 -0.474916
v 0.007700 -0.599686 -0.234916
v 0.036141 -0.581408 -0.239776
v 0.062278 -0.564611 -0.253965
v 0.083994 -0.550655 -0.276332
v 0.099528 -0.540672 -0.305066
v 0.107623 -0.535469 -0.337838
v 0.107623 -0.535469 -0.371993
v 0.099528 -0.540672 -0.404765
v 0.083994 -0.550655 -0.433499
v 0.062278 -0.564611 -0.455866
v 0.036141 -0.581408 -0.470055
v 0.007700 -0.599686 -0.474916
v 0.007700 -0.599686 -0.234916
v 0.021745 -0.568933 -0.239776
v 0.034651 -0.540672 -0.253965
v 0.045374 -0.517191 -0.276332
v 0.053045 -0.500394 -0.305066
v 0.057043 -0.491641 -0.337838
v 0.057043 -0.491641 -0.371993
v 0.053045 -0.500394 -0.404765
v 0.045374 -0.517191 -0.433499
v 0.034651 -0.540672 -0.455866
v 0.021745 -0.568933 -0.470055
v 0.007700 -0.599686 -0.474916
v 0.007700 -0.599686 -0.234916
v 0.002889 -0.566222 -0.239776
v -0.001533 -0.535469 -0.253965
v -0.005206 -0.509919 -0.276332
v -0.007834 -0.491641 -0.305066
v -0.009204 -0.482116 -0.337838
v -0.009204 -0.482116 -0.371993
v -0.007834 -0.491641 -0.404765
v -0.005206 -0.509919 -0.433499
v -0.001533 -0.535469 -0.455866
v 0.002889 -0.566222 -0.470055
v 0.007700 -0.599686 -0.474916
v 0.007700 -0.599686 -0.234916
v -0.014439 -0.574136 -0.239776
v -0.034785 -0.550655 -0.253965
v -0.051689 -0.531147 -0.276332
v -0.063781 -0.517191 -0.305066
v -0.070083 -0.509919 -0.337838
v -0.070083 -0.509919 -0.371993
v -0.063781 -0.517191 -0.404765
v -0.051689 -0.531147 -0.433499
v -0.034785 -0.550655 -0.455866
v -0.014439 -0.574136 -0.470055
v 0.007700 -0.599686 -0.474916
v 0.007700 -0.599686 -0.234916
v -0.024738 -0.590161 -0.239776
v -0.054549 -0.581408 -0.253965
v -0.079316 -0.574136 -0.276332
v -0.097034 -0.568933 -0.305066
v -0.106267 -0.566222 -0.337838
v -0.106267 -0.566222 -0.371993
v -0.097034 -0.568933 -0.404765
v -0.079316 -0.574136 -0.433499
v -0.054549 -0.581408 -0.455866
v -0.024738 -0.590161 -0.470055
v 0.007700 -0.599686 -0.474916
v 0.007700 -0.599686 -0.234916
v -0.024738 -0.609211 -0.239776
v -0.054549 -0.617964 -0.253965
v -0.079316 -0.625236 -0.276332
v -0.097034 -0.630439 -0.305066
v -0.106267 -0.633150 -0.337838
v -0.106267 -0.633150 -0.371993
v -0.097034 -0.630439 -0.404765
v -0.079316 -0.625236 -0.433499
v -0.054549 -0.617964 -0.455866
v -0.024738 -0.609211 -0.470055
v 0.007700 -0.599686 -0.474916
v 0.007700 -0.599686 -0.234916
v -0.014439 -0.625236 -0.239776
v -0.034785 -0.648717 -0.253965
v -0.051689 -0.668225 -0.276332
v -0.063781 -0.682180 -0.305066
v -0.070083 -0.689453 -0.337838
v -0.070083 -0.689453 -0.371993
v -0.063781 -0.682180 -0.404765
v -0.051689 -0.668225 -0.433499
v -0.034785 -0.648717 -0.455866
v -0.014439 -0.625236 -0.470055
v 0.007700 -0.599686 -0.474916
v 0.007700 -0.599686 -0.234916
v 0.002889 -0.633150 -0.239776
v -0.001533 -0.663902 -0.253965
v -0.005206 -0.689453 -0.276332
v -0.007834 -0.707731 -0.305066
v -0.009204 -0.717255 -0.337838
v -0.009204 -0.717255 -0.371993
v -0.007834 -0.707731 -0.404765
v -0.005206 -0.689453 -0.433499
v -0.001533 -0.663902 -0.455866
v 0.002889 -0.633150 -0.470055
v 0.007700 -0.599686 -0.474916
v 0.007700 -0.599686 -0.234916
v 0.021745 -0.630439 -0.239776
v 0.034651 -0.658700 -0.253965
v 0.045374 -0.682180 -0.276332
v 0.053045 -0.698978 -0.305066
v 0.057043 -0.707731 -0.337838
v 0.057043 -0.707731 -0.371993
v 0.053045 -0.698978 -0.404765
v 0.045374 -0.682180 -0.433499
v 0.034651 -0.658700 -0.455866
v 0.021745 -0.630439 -0.470055
v 0.007700 -0.599686 -0.474916
v 0.007700 -0.599686 -0.234916
v 0.036141 -0.617964 -0.239776
v 0.062278 -0.634761 -0.253965
v 0.083994 -0.648717 -0.276332
v 0.099528 -0.658700 -0.305066
v 0.107623 -0.663902 -0.337838
v 0.107623 -0.663902 -0.371993
v 0.099528 -0.658700 -0.404765
v 0.083994 -0.648717 -0.433499
v 0.062278 -0.634761 -0.455866
v 0.036141 -0.617964 -0.470055
v 0.007700 -0.599686 -0.474916
v 0.007700 -0.599686 -0.234916
v 0.041508 -0.599686 -0.239776
v 0.072577 -0.599686 -0.253965
v 0.098390 -0.599686 -0.276332
v 0.116856 -0.599686 -0.305066
v 0.126479 -0.599686 -0.337838
v 0.126479 -0.599686 -0.371993
v 0.116856 -0.599686 -0.404765
v 0.098390 -0.599686 -0.433499
v 0.072577 -0.599686 -0.455866
v 0.041508 -0.599686 -0.470055
v 0.007700 -0.599686 -0.474916
v 0.192551 -0.417002 -0.180114
v 0.190276 -0.440471 -0.172685
v 0.187134 -0.454976 -0.152914
v 0.184324 -0.454976 -0.128353
v 0.182920 -0.440471 -0.108383
v 0.183459 -0.417002 -0.100632
v 0.185734 -0.393534 -0.108061
v 0.188876 -0.379029 -0.127832
v 0.191686 -0.379029 -0.152393
v 0.193089 -0.393534 -0.172363
v -0.167723 -0.395127 -0.221327
v -0.169998 -0.418595 -0.213898
v -0.173140 -0.433100 -0.194127
v -0.175950 -0.433100 -0.169565
v -0.177353 -0.418595 -0.149596
v -0.176815 -0.395127 -0.141845
v -0.174540 -0.371658 -0.149274
v -0.171398 -0.357153 -0.169045
v -0.168588 -0.357153 -0.193606
v -0.167184 -0.371658 -0.213576
v 0.188005 -0.416875 -0.180373
v 0.164496 -0.416576 -0.172733
v 0.149966 -0.416440 -0.152732
v 0.149966 -0.416518 -0.128011
v 0.164496 -0.416782 -0.108012
v 0.188005 -0.417130 -0.100373
v 0.211514 -0.417429 -0.108014
v 0.226044 -0.417565 -0.128014
v 0.226044 -0.417487 -0.152736
v 0.211514 -0.417223 -0.172735
v 0.191302 -0.177301 -0.179610
v 0.167793 -0.177002 -0.171969
v 0.153263 -0.176865 -0.151969
v 0.153263 -0.176944 -0.127248
v 0.167793 -0.177208 -0.107248
v 0.191302 -0.177556 -0.099610
v 0.214811 -0.177855 -0.107251
v 0.229341 -0.177991 -0.127251
v 0.229341 -0.177912 -0.151972
v 0.214811 -0.177649 -0.171972
v 0.191302 -0.195188 -0.175451
v 0.167803 -0.192473 -0.168271
v 0.153279 -0.184011 -0.150143
v 0.153279 -0.173035 -0.127992
v 0.167803 -0.163737 -0.110278
v 0.191302 -0.159669 -0.103769
v 0.214801 -0.162384 -0.110949
v 0.229325 -0.170845 -0.129077
v 0.229325 -0.181821 -0.151228
v 0.214801 -0.191119 -0.168942
v 0.183672 0.017533 -0.280854
v 0.160172 0.020248 -0.273674
v 0.145649 0.028710 -0.255546
v 0.145649 0.039686 -0.233394
v 0.160172 0.048984 -0.215681
v 0.183672 0.053052 -0.209171
v 0.207171 0.050337 -0.216352
v 0.221694 0.041876 -0.234480
v 0.221694 0.030900 -0.256631
v 0.207171 0.021602 -0.274344
v -0.172269 -0.389712 -0.221217
v -0.195544 -0.394039 -0.214098
v -0.209929 -0.398781 -0.194561
v -0.209929 -0.402128 -0.170067
v -0.195544 -0.402800 -0.149973
v -0.172269 -0.400542 -0.141954
v -0.148994 -0.396214 -0.149073
v -0.134609 -0.391472 -0.168611
v -0.134609 -0.388125 -0.193105
v -0.148994 -0.387453 -0.213199
v -0.209580 -0.130817 -0.185845
v -0.232856 -0.135144 -0.178726
v -0.247241 -0.139886 -0.159188
v -0.247241 -0.143233 -0.134694
v -0.232856 -0.143905 -0.114600
v -0.209580 -0.141647 -0.106581
v -0.186305 -0.137320 -0.113700
v -0.171920 -0.132577 -0.133238
v -0.171920 -0.129230 -0.157732
v -0.186305 -0.128558 -0.177826
v -0.209580 -0.150795 -0.183467
v -0.232439 -0.153138 -0.174349
v -0.246566 -0.149024 -0.154484
v -0.246566 -0.140023 -0.131459
v -0.232439 -0.129575 -0.114070
v -0.209580 -0.121668 -0.108958
v -0.186722 -0.119325 -0.118076
v -0.172595 -0.123439 -0.137942
v -0.172595 -0.132440 -0.160967
v -0.186722 -0.142889 -0.178356
v -0.263895 0.059355 -0.265617
v -0.286753 0.057012 -0.256499
v -0.300881 0.061126 -0.236634
v -0.300881 0.070127 -0.213609
v -0.286753 0.080576 -0.196220
v -0.263895 0.088482 -0.191108
v -0.241036 0.090825 -0.200226
v -0.226909 0.086711 -0.220092
v -0.226909 0.077710 -0.243117
v -0.241036 0.067261 -0.260506
v 0.188005 -0.404026 -0.178210
v 0.164703 -0.409470 -0.172001
v 0.150302 -0.417792 -0.153711
v 0.150302 -0.425812 -0.130327
v 0.164703 -0.430467 -0.110780
v 0.188005 -0.429979 -0.102537
v 0.211306 -0.424535 -0.108746
v 0.225707 -0.416213 -0.127035
v 0.225707 -0.408193 -0.150419
v 0.211306 -0.403538 -0.169966
v 0.128329 0.015450 -0.034342
v 0.105028 0.010006 -0.028133
v 0.090627 0.001684 -0.009844
v 0.090627 -0.006336 0.013541
v 0.105028 -0.010991 0.033088
v 0.128329 -0.010504 0.041331
v 0.151631 -0.005059 0.035122
v 0.166032 0.003262 0.016833
v 0.166032 0.011282 -0.006552
v 0.151631 0.015938 -0.026099
v -0.172269 -0.377913 -0.217692
v -0.195654 -0.379001 -0.209748
v -0.210106 -0.386249 -0.191047
v -0.210106 -0.396887 -0.168732
v -0.195654 -0.406854 -0.151326
v -0.172269 -0.412340 -0.145479
v -0.148884 -0.411252 -0.153423
v -0.134431 -0.404005 -0.172125
v -0.134431 -0.393366 -0.194440
v -0.148884 -0.383400 -0.211845
v -0.128353 0.002542 -0.036310
v -0.151738 0.001454 -0.028366
v -0.166191 -0.005794 -0.009665
v -0.166191 -0.016432 0.012650
v -0.151738 -0.026399 0.030056
v -0.128353 -0.031886 0.035903
v -0.104968 -0.030797 0.027959
v -0.090516 -0.023550 0.009257
v -0.090516 -0.012911 -0.013058
v -0.104968 -0.002945 -0.030463
v 0.128906 0.002473 -0.036501
v 0.130362 -0.020986 -0.028840
v 0.131042 -0.035485 -0.008828
v 0.130686 -0.035485 0.015890
v 0.129430 -0.020986 0.035874
v 0.127753 0.002473 0.043490
v 0.126297 0.025932 0.035829
v 0.125617 0.040431 0.015817
v 0.125973 0.040431 -0.008901
v 0.127229 0.025932 -0.028885
v -0.127777 -0.014672 -0.040200
v -0.126320 -0.038131 -0.032538
v -0.125640 -0.052629 -0.012527
v -0.125996 -0.052629 0.012192
v -0.127253 -0.038131 0.032176
v -0.128929 -0.014672 0.039792
v -0.130386 0.008787 0.032131
v -0.131066 0.023286 0.012119
v -0.130710 0.023286 -0.012600
v -0.129454 0.008787 -0.032584
v 0.128329 -0.014799 -0.032584
v 0.104950 -0.013744 -0.024620
v 0.090501 -0.006494 -0.005917
v 0.090501 0.004181 0.016381
v 0.104950 0.014203 0.033757
v 0.128329 0.019745 0.039573
v 0.151709 0.018690 0.031609
v 0.166158 0.011440 0.012906
v 0.166158 0.000765 -0.009392
v 0.151709 -0.009257 -0.026768
v 0.109834 0.142030 -0.107664
v 0.086455 0.143085 -0.099700
v 0.072005 0.150335 -0.080996
v 0.072005 0.161010 -0.058699
v 0.086455 0.171032 -0.041323
v 0.109834 0.176574 -0.035506
v 0.133214 0.175518 -0.043471
v 0.147663 0.168269 -0.062174
v 0.147663 0.157594 -0.084472
v 0.133214 0.147571 -0.101847
v 0.109834 0.180105 -0.105750
v 0.086339 0.175390 -0.099677
v 0.071818 0.164531 -0.082873
v 0.071818 0.151674 -0.061758
v 0.086339 0.141731 -0.044397
v 0.109834 0.138499 -0.037420
v 0.133329 0.143213 -0.043494
v 0.147850 0.154073 -0.060297
v 0.147850 0.166930 -0.081412
v 0.133329 0.176873 -0.098774
v 0.099782 0.412492 0.035748
v 0.076287 0.407777 0.041822
v 0.061766 0.396918 0.058625
v 0.061766 0.384061 0.079740
v 0.076287 0.374118 0.097102
v 0.099782 0.370886 0.104078
v 0.123278 0.375600 0.098005
v 0.137798 0.386460 0.081201
v 0.137798 0.399317 0.060086
v 0.123278 0.409260 0.042725
v -0.128353 -0.050676 -0.017631
v -0.150006 -0.039808 -0.022548
v -0.163389 -0.019340 -0.018931
v -0.163389 0.002912 -0.008160
v -0.150006 0.018447 0.005649
v -0.128353 0.021332 0.017224
v -0.106700 0.010465 0.022141
v -0.093318 -0.010004 0.018524
v -0.093318 -0.032256 0.007753
v -0.106700 -0.047791 -0.006057
v -0.059458 0.020272 -0.164206
v -0.081111 0.031139 -0.169123
v -0.094494 0.051608 -0.165506
v -0.094494 0.073860 -0.154735
v -0.081111 0.089395 -0.140925
v -0.059458 0.092280 -0.129351
v -0.037805 0.081412 -0.124434
v -0.024422 0.060944 -0.128051
v -0.024422 0.038692 -0.138822
v -0.037805 0.023157 -0.152631
v -0.059458 0.060015 -0.186603
v -0.082584 0.055082 -0.179393
v -0.096877 0.050605 -0.159726
v -0.096877 0.048294 -0.135113
v -0.082584 0.049032 -0.114956
v -0.059458 0.052536 -0.106954
v -0.036332 0.057469 -0.114163
v -0.022039 0.061947 -0.133831
v -0.022039 0.064258 -0.158444
v -0.036332 0.063520 -0.178601
v -0.106712 0.316782 -0.162494
v -0.129839 0.311849 -0.155284
v -0.144132 0.307372 -0.135616
v -0.144132 0.305061 -0.111003
v -0.129839 0.305798 -0.090846
v -0.106712 0.309303 -0.082844
v -0.083586 0.314236 -0.090054
v -0.069293 0.318713 -0.109721
v -0.069293 0.321025 -0.134334
v -0.083586 0.320287 -0.154492
f 1 2 13
f 2 14 13
f 2 3 14
f 3 15 14
f 3 4 15
f 4 16 15
f 4 5 16
f 5 17 16
f 5 6 17
f 6 18 17
f 6 7 18
f 7 19 18
f 7 8 19
f 8 20 19
f 8 9 20
f 9 21 20
f 9 10 21
f 10 22 21
f 10 11 22
f 11 23 22
f 11 12 23
f 12 24 23
f 13 14 25
f 14 26 25
f 14 15 26
f 15 27 26
f 15 16 27
f 16 28 27
f 16 17 28
f 17 29 28
f 17 18 29
f 18 30 29
f 18 19 30
f 19 31 30
f 19 20 31
f 20 32 31
f 20 21 32
f 21 33 32
f 21 22 33
f 22 34 33
f 22 23 34
f 23 35 34
f 23 24 35
f 24 36 35
f 25 26 37
f 26 38 37
f 26 27 38
f 27 39 38
f 27 28 39
f 28 40 39
f 28 29 40
f 29 41 40
f 29 30 41
f 30 42 41
f 30 31 42
f 31 43 42
f 31 32 43
f 32 44 43
f 32 33 44
f 33 45 44
f 33 34 45
f 34 46 45
f 34 35 46
f 35 47 46
f 35 36 47
f 36 48 47
f 37 38 49
f 38 50 49
f 38 39 50
f 39 51 50
f 39 40 51
f 40 52 51
f 40 41 52
f 41 53 52
f 41 42 53
f 42 54 53
f 42 43 54
f 43 55 54
f 43 44 55
f 44 56 55
f 44 45 56
f 45 57 56
f 45 46 57
f 46 58 57
f 46 47 58
f 47 59 58
f 47 48 59
f 48 60 59
f 49 50 61
f 50 62 61
f 50 51 62
f 51 63 62
f 51 52 63
f 52 64 63
f 52 53 64
f 53 65 64
f 53 54 65
f 54 66 65
f 54 55 66
f 55 67 66
f 55 56 67
f 56 68 67
f 56 57 68
f 57 69 68
f 57 58 69
f 58 70 69
f 58 59 70
f 59 71 70
f 59 60 71
f 60 72 71
f 61 62 73
f 62 74 73
f 62 63 74
f 63 75 74
f 63 64 75
f 64 76 75
f 64 65 76
f 65 77 76
f 65 66 77
f 66 78 77
f 66 67 78
f 67 79 78
f 67 68 79
f 68 80 79
f 68 69 80
f 69 81 80
f 69 70 81
f 70 82 81
f 70 71 82
f 71 83 82
f 71 72 83
f 72 84 83
f 73 74 85
f 74 86 85
f 74 75 86
f 75 87 86
f 75 76 87
f 76 88 87
f 76 77 88
f 77 89 88
f 77 78 89
f 78 90 89
f 78 79 90
f 79 91 90
f 79 80 91
f 80 92 91
f 80 81 92
f 81 93 92
f 81 82 93
f 82 94 93
f 82 83 94
f 83 95 94
f 83 84 95
f 84 96 95
f 85 86 97
f 86 98 97
f 86 87 98
f 87 99 98
f 87 88 99
f 88 100 99
f 88 89 100
f 89 101 100
f 89 90 101
f 90 102 101
f 90 91 102
f 91 103 102
f 91 92 103
f 92 104 103
f 92 93 104
f 93 105 104
f 93 94 105
f 94 106 105
f 94 95 106
f 95 107 106
f 95 96 107
f 96 108 107
f 97 98 109
f 98 110 109
f 98 99 110
f 99 111 110
f 99 100 111
f 100 112 111
f 100 101 112
f 101 113 112
f 101 102 113
f 102 114 113
f 102 103 114
f 103 115 114
f 103 104 115
f 104 116 115
f 104 105 116
f 105 117 116
f 105 106 117
f 106 118 117
f 106 107 118
f 107 119 118
f 107 108 119
f 108 120 119
f 109 110 121
f 110 122 121
f 110 111 122
f 111 123 122
f 111 112 123
f 112 124 123
f 112 113 124
f 113 125 124
f 113 114 125
f 114 126 125
f 114 115 126
f 115 127 126
f 115 116 127
f 116 128 127
f 116 117 128
f 117 129 128
f 117 118 129
f 118 130 129
f 118 119 130
f 119 131 130
f 119 120 131
f 120 132 131
f 121 122 133
f 122 134 133
f 122 123 134
f 123 135 134
f 123 124 135
f 124 136 135
f 124 125 136
f 125 137 136
f 125 126 137
f 126 138 137
f 126 127 138
f 127 139 138
f 127 128 139
f 128 140 139
f 128 129 140
f 129 141 140
f 129 130 141
f 130 142 141
f 130 131 142
f 131 143 142
f 131 132 143
f 132 144 143
f 145 146 155
f 146 156 155
f 146 147 156
f 147 157 156
f 147 148 157
f 148 158 157
f 148 149 158
f 149 159 158
f 149 150 159
f 150 160 159
f 150 151 160
f 151 161 160
f 151 152 161
f 152 162 161
f 152 153 162
f 153 163 162
f 153 154 163
f 154 164 163
f 154 145 164
f 145 155 164
f 165 166 175
f 166 176 175
f 166 167 176
f 167 177 176
f 167 168 177
f 168 178 177
f 168 169 178
f 169 179 178
f 169 170 179
f 170 180 179
f 170 171 180
f 171 181 180
f 171 172 181
f 172 182 181
f 172 173 182
f 173 183 182
f 173 174 183
f 174 184 183
f 174 165 184
f 165 175 184
f 185 186 195
f 186 196 195
f 186 187 196
f 187 197 196
f 187 188 197
f 188 198 197
f 188 189 198
f 189 199 198
f 189 190 199
f 190 200 199
f 190 191 200
f 191 201 200
f 191 192 201
f 192 202 201
f 192 193 202
f 193 203 202
f 193 194 203
f 194 204 203
f 194 185 204
f 185 195 204
f 205 206 215
f 206 216 215
f 206 207 216
f 207 217 216
f 207 208 217
f 208 218 217
f 208 209 218
f 209 219 218
f 209 210 219
f 210 220 219
f 210 211 220
f 211 221 220
f 211 212 221
f 212 222 221
f 212 213 222
f 213 223 222
f 213 214 223
f 214 224 223
f 214 205 224
f 205 215 224
f 225 226 235
f 226 236 235
f 226 227 236
f 227 237 236
f 227 228 237
f 228 238 237
f 228 229 238
f 229 239 238
f 229 230 239
f 230 240 239
f 230 231 240
f 231 241 240
f 231 232 241
f 232 242 241
f 232 233 242
f 233 243 242
f 233 234 243
f 234 244 243
f 234 225 244
f 225 235 244
f 245 246 255
f 246 256 255
f 246 247 256
f 247 257 256
f 247 248 257
f 248 258 257
f 248 249 258
f 249 259 258
f 249 250 259
f 250 260 259
f 250 251 260
f 251 261 260
f 251 252 261
f 252 262 261
f 252 253 262
f 253 263 262
f 253 254 263
f 254 264 263
f 254 245 264
f 245 255 264
f 265 266 275
f 266 276 275
f 266 267 276
f 267 277 276
f 267 268 277
f 268 278 277
f 268 269 278
f 269 279 278
f 269 270 279
f 270 280 279
f 270 271 280
f 271 281 280
f 271 272 281
f 272 282 281
f 272 273 282
f 273 283 282
f 273 274 283
f 274 284 283
f 274 265 284
f 265 275 284
f 285 286 295
f 286 296 295
f 286 287 296
f 287 297 296
f 287 288 297
f 288 298 297
f 288 289 298
f 289 299 298
f 289 290 299
f 290 300 299
f 290 291 300
f 291 301 300
f 291 292 301
f 292 302 301
f 292 293 302
f 293 303 302
f 293 294 303
f 294 304 303
f 294 285 304
f 285 295 304
f 305 306 315
f 306 316 315
f 306 307 316
f 307 317 316
f 307 308 317
f 308 318 317
f 308 309 318
f 309 319 318
f 309 310 319
f 310 320 319
f 310 311 320
f 311 321 320
f 311 312 321
f 312 322 321
f 312 313 322
f 313 323 322
f 313 314 323
f 314 324 323
f 314 305 324
f 305 315 324
f 325 326 335
f 326 336 335
f 326 327 336
f 327 337 336
f 327 328 337
f 328 338 337
f 328 329 338
f 329 339 338
f 329 330 339
f 330 340 339
f 330 331 340
f 331 341 340
f 331 332 341
f 332 342 341
f 332 333 342
f 333 343 342
f 333 334 343
f 334 344 343
f 334 325 344
f 325 335 344
f 345 346 355
f 346 356 355
f 346 347 356
f 347 357 356
f 347 348 357
f 348 358 357
f 348 349 358
f 349 359 358
f 349 350 359
f 350 360 359
f 350 351 360
f 351 361 360
f 351 352 361
f 352 362 361
f 352 353 362
f 353 363 362
f 353 354 363
f 354 364 363
f 354 345 364
f 345 355 364
f 365 366 375
f 366 376 375
f 366 367 376
f 367 377 376
f 367 368 377
f 368 378 377
f 368 369 378
f 369 379 378
f 369 370 379
f 370 380 379
f 370 371 380
f 371 381 380
f 371 372 381
f 372 382 381
f 372 373 382
f 373 383 382
f 373 374 383
f 374 384 383
f 374 365 384
f 365 375 384
