# Full-Body 3D Mesh - Frame 160
v 0.033436 -0.620861 -0.147862
v 0.067244 -0.620861 -0.152723
v 0.098313 -0.620861 -0.166911
v 0.124126 -0.620861 -0.189279
v 0.142592 -0.620861 -0.218012
v 0.152214 -0.620861 -0.250784
v 0.152214 -0.620861 -0.284940
v 0.142592 -0.620861 -0.317712
v 0.124126 -0.620861 -0.346445
v 0.098313 -0.620861 -0.368812
v 0.067244 -0.620861 -0.383001
v 0.033436 -0.620861 -0.387862
v 0.033436 -0.620861 -0.147862
v 0.061877 -0.602584 -0.152723
v 0.088014 -0.585786 -0.166911
v 0.109729 -0.571831 -0.189279
v 0.125264 -0.561847 -0.218012
v 0.133359 -0.556645 -0.250784
v 0.133359 -0.556645 -0.284940
v 0.125264 -0.561847 -0.317712
v 0.109729 -0.571831 -0.346445
v 0.088014 -0.585786 -0.368812
v 0.061877 -0.602584 -0.383001
v 0.033436 -0.620861 -0.387862
v 0.033436 -0.620861 -0.147862
v 0.047480 -0.590109 -0.152723
v 0.060387 -0.561847 -0.166911
v 0.071110 -0.538367 -0.189279
v 0.078781 -0.521570 -0.218012
v 0.082778 -0.512817 -0.250784
v 0.082778 -0.512817 -0.284940
v 0.078781 -0.521570 -0.317712
v 0.071110 -0.538367 -0.346445
v 0.060387 -0.561847 -0.368812
v 0.047480 -0.590109 -0.383001
v 0.033436 -0.620861 -0.387862
v 0.033436 -0.620861 -0.147862
v 0.028624 -0.587398 -0.152723
v 0.024203 -0.556645 -0.166911
v 0.020529 -0.531095 -0.189279
v 0.017901 -0.512817 -0.218012
v 0.016532 -0.503292 -0.250784
v 0.016532 -0.503292 -0.284940
v 0.017901 -0.512817 -0.317712
v 0.020529 -0.531095 -0.346445
v 0.024203 -0.556645 -0.368812
v 0.028624 -0.587398 -0.383001
v 0.033436 -0.620861 -0.387862
v 0.033436 -0.620861 -0.147862
v 0.011296 -0.595311 -0.152723
v -0.009049 -0.571831 -0.166911
v -0.025953 -0.552323 -0.189279
v -0.038046 -0.538367 -0.218012
v -0.044348 -0.531095 -0.250784
v -0.044348 -0.531095 -0.284940
v -0.038046 -0.538367 -0.317712
v -0.025953 -0.552323 -0.346445
v -0.009049 -0.571831 -0.368812
v 0.011296 -0.595311 -0.383001
v 0.033436 -0.620861 -0.387862
v 0.033436 -0.620861 -0.147862
v 0.000997 -0.611337 -0.152723
v -0.028813 -0.602584 -0.166911
v -0.053581 -0.595311 -0.189279
v -0.071298 -0.590109 -0.218012
v -0.080531 -0.587398 -0.250784
v -0.080531 -0.587398 -0.284940
v -0.071298 -0.590109 -0.317712
v -0.053581 -0.595311 -0.346445
v -0.028813 -0.602584 -0.368812
v 0.000997 -0.611337 -0.383001
v 0.033436 -0.620861 -0.387862
v 0.033436 -0.620861 -0.147862
v 0.000997 -0.630386 -0.152723
v -0.028813 -0.639139 -0.166911
v -0.053581 -0.646412 -0.189279
v -0.071298 -0.651614 -0.218012
v -0.080531 -0.654325 -0.250784
v -0.080531 -0.654325 -0.284940
v -0.071298 -0.651614 -0.317712
v -0.053581 -0.646412 -0.346445
v -0.028813 -0.639139 -0.368812
v 0.000997 -0.630386 -0.383001
v 0.033436 -0.620861 -0.387862
v 0.033436 -0.620861 -0.147862
v 0.011296 -0.646412 -0.152723
v -0.009049 -0.669892 -0.166911
v -0.025953 -0.689400 -0.189279
v -0.038046 -0.703356 -0.218012
v -0.044348 -0.710628 -0.250784
v -0.044348 -0.710628 -0.284940
v -0.038046 -0.703356 -0.317712
v -0.025953 -0.689400 -0.346445
v -0.009049 -0.669892 -0.368812
v 0.011296 -0.646412 -0.383001
v 0.033436 -0.620861 -0.387862
v 0.033436 -0.620861 -0.147862
v 0.028624 -0.654325 -0.152723
v 0.024203 -0.685078 -0.166911
v 0.020529 -0.710628 -0.189279
v 0.017901 -0.728906 -0.218012
v 0.016532 -0.738431 -0.250784
v 0.016532 -0.738431 -0.284940
v 0.017901 -0.728906 -0.317712
v 0.020529 -0.710628 -0.346445
v 0.024203 -0.685078 -0.368812
v 0.028624 -0.654325 -0.383001
v 0.033436 -0.620861 -0.387862
v 0.033436 -0.620861 -0.147862
v 0.047480 -0.651614 -0.152723
v 0.060387 -0.679876 -0.166911
v 0.071110 -0.703356 -0.189279
v 0.078781 -0.720153 -0.218012
v 0.082778 -0.728906 -0.250784
v 0.082778 -0.728906 -0.284940
v 0.078781 -0.720153 -0.317712
v 0.071110 -0.703356 -0.346445
v 0.060387 -0.679876 -0.368812
v 0.047480 -0.651614 -0.383001
v 0.033436 -0.620861 -0.387862
v 0.033436 -0.620861 -0.147862
v 0.061877 -0.639139 -0.152723
v 0.088014 -0.655937 -0.166911
v 0.109729 -0.669892 -0.189279
v 0.125264 -0.679876 -0.218012
v 0.133359 -0.685078 -0.250784
v 0.133359 -0.685078 -0.284940
v 0.125264 -0.679876 -0.317712
v 0.109729 -0.669892 -0.346445
v 0.088014 -0.655937 -0.368812
v 0.061877 -0.639139 -0.383001
v 0.033436 -0.620861 -0.387862
v 0.033436 -0.620861 -0.147862
v 0.067244 -0.620861 -0.152723
v 0.098313 -0.620861 -0.166911
v 0.124126 -0.620861 -0.189279
v 0.142592 -0.620861 -0.218012
v 0.152214 -0.620861 -0.250784
v 0.152214 -0.620861 -0.284940
v 0.142592 -0.620861 -0.317712
v 0.124126 -0.620861 -0.346445
v 0.098313 -0.620861 -0.368812
v 0.067244 -0.620861 -0.383001
v 0.033436 -0.620861 -0.387862
v 0.177143 -0.444818 -0.104078
v 0.175902 -0.468322 -0.096516
v 0.173853 -0.482848 -0.076618
v 0.171777 -0.482848 -0.051984
v 0.170468 -0.468322 -0.032024
v 0.170426 -0.444818 -0.024361
v 0.171666 -0.421315 -0.031923
v 0.173716 -0.406788 -0.051821
v 0.175791 -0.406788 -0.076455
v 0.177100 -0.421315 -0.096415
v -0.150719 -0.436401 -0.131705
v -0.151959 -0.459905 -0.124143
v -0.154009 -0.474431 -0.104245
v -0.156085 -0.474431 -0.079611
v -0.157394 -0.459905 -0.059650
v -0.157436 -0.436401 -0.051987
v -0.156195 -0.412897 -0.059549
v -0.154146 -0.398371 -0.079447
v -0.152070 -0.398371 -0.104081
v -0.150761 -0.412897 -0.124042
v 0.173784 -0.466028 -0.098134
v 0.150510 -0.459151 -0.093424
v 0.136126 -0.446800 -0.077559
v 0.136126 -0.433692 -0.056599
v 0.150510 -0.424834 -0.038550
v 0.173784 -0.423609 -0.030305
v 0.197058 -0.430485 -0.035015
v 0.211442 -0.442836 -0.050880
v 0.211442 -0.455944 -0.071840
v 0.197058 -0.464803 -0.089889
v 0.208421 -0.260951 -0.226386
v 0.185147 -0.254074 -0.221676
v 0.170763 -0.241723 -0.205812
v 0.170763 -0.228615 -0.184852
v 0.185147 -0.219757 -0.166802
v 0.208421 -0.218532 -0.158558
v 0.231695 -0.225408 -0.163268
v 0.246079 -0.237759 -0.179133
v 0.246079 -0.250868 -0.200093
v 0.231695 -0.259726 -0.218142
v 0.208421 -0.277078 -0.178121
v 0.186355 -0.267035 -0.173286
v 0.172718 -0.246567 -0.175780
v 0.172718 -0.223492 -0.184649
v 0.186355 -0.206623 -0.196507
v 0.208421 -0.202405 -0.206824
v 0.230488 -0.212447 -0.211658
v 0.244125 -0.232915 -0.209165
v 0.244125 -0.255991 -0.200295
v 0.230488 -0.272859 -0.188437
v 0.109246 -0.373824 -0.429812
v 0.087179 -0.363781 -0.424977
v 0.073542 -0.343313 -0.427471
v 0.073542 -0.320238 -0.436340
v 0.087179 -0.303369 -0.448198
v 0.109246 -0.299150 -0.458515
v 0.131312 -0.309193 -0.463349
v 0.144949 -0.329661 -0.460856
v 0.144949 -0.352736 -0.451986
v 0.131312 -0.369605 -0.440128
v -0.154077 -0.451222 -0.128999
v -0.177457 -0.450702 -0.120982
v -0.191906 -0.444720 -0.101835
v -0.191906 -0.435560 -0.078874
v -0.177457 -0.426722 -0.060867
v -0.154077 -0.421581 -0.054693
v -0.130698 -0.422100 -0.062710
v -0.116249 -0.428082 -0.081857
v -0.116249 -0.437242 -0.104818
v -0.130698 -0.446080 -0.122825
v -0.179771 -0.226953 -0.218460
v -0.203151 -0.226433 -0.210443
v -0.217600 -0.220451 -0.191297
v -0.217600 -0.211291 -0.168335
v -0.203151 -0.202453 -0.150328
v -0.179771 -0.197312 -0.144154
v -0.156392 -0.197831 -0.152172
v -0.141942 -0.203813 -0.171318
v -0.141942 -0.212973 -0.194280
v -0.156392 -0.221811 -0.212287
v -0.179771 -0.248352 -0.164334
v -0.201007 -0.245717 -0.176713
v -0.214131 -0.230253 -0.190847
v -0.214131 -0.207868 -0.201337
v -0.201007 -0.187111 -0.204177
v -0.179771 -0.175912 -0.198281
v -0.158535 -0.178547 -0.185901
v -0.145411 -0.194011 -0.171767
v -0.145411 -0.216396 -0.161277
v -0.158535 -0.237153 -0.158438
v -0.077453 -0.339717 -0.359305
v -0.098688 -0.337082 -0.371684
v -0.111813 -0.321618 -0.385818
v -0.111813 -0.299233 -0.396308
v -0.098688 -0.278476 -0.399147
v -0.077453 -0.267277 -0.393251
v -0.056217 -0.269912 -0.380872
v -0.043093 -0.285376 -0.366738
v -0.043093 -0.307761 -0.356248
v -0.056217 -0.328518 -0.353409
v 0.173784 -0.437070 -0.103462
v 0.150397 -0.440920 -0.096435
v 0.135943 -0.446259 -0.077103
v 0.135943 -0.451048 -0.052850
v 0.150397 -0.453457 -0.032940
v 0.173784 -0.452567 -0.024977
v 0.197171 -0.448716 -0.032004
v 0.211625 -0.443377 -0.051336
v 0.211625 -0.438588 -0.075589
v 0.197171 -0.436179 -0.095499
v 0.127676 0.000755 -0.017013
v 0.104289 -0.003096 -0.009986
v 0.089835 -0.008435 0.009346
v 0.089835 -0.013224 0.033599
v 0.104289 -0.015633 0.053509
v 0.127676 -0.014742 0.061472
v 0.151063 -0.010892 0.054445
v 0.165517 -0.005553 0.035113
v 0.165517 -0.000764 0.010860
v 0.151063 0.001645 -0.009050
v -0.154077 -0.429737 -0.131287
v -0.177547 -0.429622 -0.123520
v -0.192051 -0.432096 -0.103655
v -0.192051 -0.436215 -0.079279
v -0.177547 -0.440405 -0.059703
v -0.154077 -0.443066 -0.052405
v -0.130608 -0.443180 -0.060172
v -0.116103 -0.440706 -0.080037
v -0.116103 -0.436587 -0.104413
v -0.130608 -0.432397 -0.123989
v -0.128178 -0.003851 -0.059324
v -0.151647 -0.003736 -0.051557
v -0.166152 -0.006210 -0.031692
v -0.166152 -0.010329 -0.007316
v -0.151647 -0.014519 0.012260
v -0.128178 -0.017180 0.019558
v -0.104709 -0.017294 0.011791
v -0.090204 -0.014820 -0.008075
v -0.090204 -0.010701 -0.032450
v -0.104709 -0.006511 -0.052026
v 0.134172 -0.006994 -0.017239
v 0.133247 -0.030503 -0.009650
v 0.130193 -0.045033 0.010117
v 0.126178 -0.045033 0.034510
v 0.122735 -0.030503 0.054212
v 0.121179 -0.006994 0.061699
v 0.122105 0.016515 0.054109
v 0.125159 0.031045 0.034342
v 0.129174 0.031045 0.009949
v 0.132616 0.016515 -0.009753
v -0.121682 -0.010515 -0.059352
v -0.122607 -0.034024 -0.051762
v -0.125661 -0.048554 -0.031996
v -0.129676 -0.048554 -0.007603
v -0.133119 -0.034024 0.012100
v -0.134674 -0.010515 0.019586
v -0.133749 0.012994 0.011996
v -0.130695 0.027524 -0.007770
v -0.126680 0.027524 -0.032164
v -0.123237 0.012994 -0.051866
v 0.127676 -0.027990 -0.011817
v 0.104169 -0.024356 -0.005083
v 0.089640 -0.014091 0.012084
v 0.089640 -0.001115 0.033126
v 0.104169 0.009616 0.050006
v 0.127676 0.014002 0.056276
v 0.151183 0.010368 0.049542
v 0.165711 0.000103 0.032375
v 0.165711 -0.012873 0.011333
v 0.151183 -0.023603 -0.005547
v 0.125013 0.092504 -0.086122
v 0.101506 0.096137 -0.079388
v 0.086978 0.106403 -0.062221
v 0.086978 0.119379 -0.041179
v 0.101506 0.130109 -0.024299
v 0.125013 0.134495 -0.018029
v 0.148520 0.130862 -0.024763
v 0.163049 0.120597 -0.041930
v 0.163049 0.107620 -0.062972
v 0.148520 0.096890 -0.079852
v 0.125013 0.136615 -0.084721
v 0.101570 0.133658 -0.077453
v 0.087081 0.123002 -0.060493
v 0.087081 0.108716 -0.040317
v 0.101570 0.096257 -0.024633
v 0.125013 0.090385 -0.019431
v 0.148457 0.093341 -0.026698
v 0.162945 0.103997 -0.043659
v 0.162945 0.118283 -0.063834
v 0.148457 0.130742 -0.079519
v 0.148029 0.383066 0.089785
v 0.124586 0.380110 0.097052
v 0.110097 0.369454 0.114013
v 0.110097 0.355168 0.134189
v 0.124586 0.342709 0.149873
v 0.148029 0.336836 0.155075
v 0.171473 0.339792 0.147808
v 0.185962 0.350449 0.130847
v 0.185962 0.364735 0.110672
v 0.171473 0.377193 0.094987
v -0.128178 -0.049069 -0.009226
v -0.151323 -0.042807 -0.015244
v -0.165628 -0.024210 -0.023034
v -0.165628 -0.000382 -0.029620
v -0.151323 0.019575 -0.032487
v -0.128178 0.028039 -0.030540
v -0.105032 0.021777 -0.024522
v -0.090728 0.003180 -0.016733
v -0.090728 -0.020648 -0.010146
v -0.105032 -0.040605 -0.007279
v -0.088670 -0.108032 -0.222544
v -0.111816 -0.101769 -0.228561
v -0.126121 -0.083172 -0.236351
v -0.126121 -0.059344 -0.242937
v -0.111816 -0.039387 -0.245804
v -0.088670 -0.030923 -0.243857
v -0.065525 -0.037185 -0.237839
v -0.051220 -0.055782 -0.230050
v -0.051220 -0.079610 -0.223463
v -0.065525 -0.099568 -0.220596
v -0.088670 -0.068934 -0.273197
v -0.112179 -0.068656 -0.265553
v -0.126708 -0.068692 -0.245551
v -0.126708 -0.069027 -0.220832
v -0.112179 -0.069535 -0.200837
v -0.088670 -0.070020 -0.193204
v -0.065162 -0.070298 -0.200848
v -0.050633 -0.070263 -0.220849
v -0.050633 -0.069927 -0.245568
v -0.065162 -0.069420 -0.265563
v -0.084017 0.217437 -0.269310
v -0.107525 0.217715 -0.261666
v -0.122054 0.217680 -0.241665
v -0.122054 0.217345 -0.216945
v -0.107525 0.216837 -0.196950
v -0.084017 0.216351 -0.189317
v -0.060509 0.216073 -0.196961
v -0.045980 0.216109 -0.216962
v -0.045980 0.216444 -0.241681
v -0.060509 0.216952 -0.261676
v -0.054420 0.033754 0.083770
v -0.061359 0.028769 0.080172
v -0.065647 0.026490 0.072275
v -0.065647 0.027787 0.063096
v -0.061359 0.032165 0.056140
v -0.054420 0.037952 0.054065
v -0.047481 0.042937 0.057662
v -0.043193 0.045216 0.065559
v -0.043193 0.043919 0.074738
v -0.047481 0.039541 0.081694
v -0.030141 0.003087 0.079436
v -0.037080 -0.001898 0.075838
v -0.041368 -0.004178 0.067942
v -0.041368 -0.002881 0.058762
v -0.037080 0.001497 0.051807
v -0.030141 0.007284 0.049731
v -0.023202 0.012269 0.053329
v -0.018913 0.014549 0.061225
v -0.018913 0.013251 0.070405
v -0.023202 0.008873 0.077360
v -0.030141 -0.005877 0.074713
v -0.034575 -0.008911 0.067159
v -0.037316 -0.006560 0.058620
v -0.037316 0.000277 0.052359
v -0.034575 0.008989 0.050768
v -0.030141 0.016248 0.054454
v -0.025706 0.019282 0.062008
v -0.022966 0.016931 0.070547
v -0.022966 0.010094 0.076808
v -0.025706 0.001382 0.078399
v -0.004712 -0.015871 0.063800
v -0.009146 -0.018904 0.056245
v -0.011887 -0.016553 0.047707
v -0.011887 -0.009716 0.041446
v -0.009146 -0.001004 0.039855
v -0.004712 0.006255 0.043540
v -0.000277 0.009289 0.051095
v 0.002463 0.006938 0.059633
v 0.002463 0.000101 0.065894
v -0.000277 -0.008611 0.067486
v -0.004712 -0.019679 0.051711
v -0.011270 -0.016070 0.046243
v -0.015323 -0.008158 0.043611
v -0.015323 0.001033 0.044822
v -0.011270 0.007993 0.049412
v -0.004712 0.010064 0.055629
v 0.001846 0.006454 0.061097
v 0.005899 -0.001457 0.063729
v 0.005899 -0.010649 0.062518
v 0.001846 -0.017609 0.057928
v 0.015427 -0.016753 0.029493
v 0.008869 -0.013143 0.024024
v 0.004816 -0.005232 0.021393
v 0.004816 0.003960 0.022603
v 0.008869 0.010920 0.027194
v 0.015427 0.012990 0.033410
v 0.021985 0.009381 0.038879
v 0.026038 0.001469 0.041511
v 0.026038 -0.007722 0.040300
v 0.021985 -0.014682 0.035710
v 0.015427 -0.015605 0.025398
v 0.007927 -0.011113 0.022312
v 0.003293 -0.003094 0.022717
v 0.003293 0.005387 0.026459
v 0.007927 0.011093 0.032108
v 0.015427 0.011843 0.037506
v 0.022926 0.007350 0.040591
v 0.027561 -0.000668 0.040186
v 0.027561 -0.009150 0.036444
v 0.022926 -0.014855 0.030796
v 0.027504 -0.007720 0.007523
v 0.020005 -0.003228 0.004437
v 0.015370 0.004791 0.004843
v 0.015370 0.013273 0.008585
v 0.020005 0.018978 0.014233
v 0.027504 0.019728 0.019631
v 0.035004 0.015236 0.022717
v 0.039639 0.007217 0.022312
v 0.039639 -0.001265 0.018570
v 0.035004 -0.006970 0.012921
v -0.054420 0.024691 0.078938
v -0.061883 0.023687 0.073531
v -0.066496 0.027330 0.066361
v -0.066496 0.034228 0.060168
v -0.061883 0.041747 0.057317
v -0.054420 0.047015 0.058897
v -0.046957 0.048019 0.064303
v -0.042344 0.044376 0.071473
v -0.042344 0.037478 0.077666
v -0.046957 0.029959 0.080517
v -0.003057 -0.029859 0.018174
v -0.010520 -0.030863 0.012767
v -0.015133 -0.027220 0.005598
v -0.015133 -0.020322 -0.000595
v -0.010520 -0.012803 -0.003446
v -0.003057 -0.007535 -0.001867
v 0.004406 -0.006531 0.003540
v 0.009018 -0.010173 0.010709
v 0.009018 -0.017072 0.016902
v 0.004406 -0.024591 0.019754
v 0.000085 -0.018697 0.022821
v -0.003472 -0.026979 0.020653
v -0.006871 -0.032097 0.013711
v -0.008814 -0.032097 0.004647
v -0.008557 -0.026979 -0.003078
v -0.006200 -0.018697 -0.006513
v -0.002642 -0.010415 -0.004346
v 0.000757 -0.005297 0.002596
v 0.002699 -0.005297 0.011661
v 0.002442 -0.010415 0.019386
v 0.025278 -0.028106 0.017423
v 0.021721 -0.036388 0.015256
v 0.018322 -0.041506 0.008314
v 0.016379 -0.041506 -0.000751
v 0.016636 -0.036388 -0.008476
v 0.018993 -0.028106 -0.011911
v 0.022551 -0.019824 -0.009744
v 0.025950 -0.014706 -0.002802
v 0.027892 -0.014706 0.006263
v 0.027635 -0.019824 0.013988
v 0.022136 -0.016102 0.011751
v 0.017690 -0.022961 0.016126
v 0.014943 -0.031784 0.015394
v 0.014943 -0.039203 0.009835
v 0.017690 -0.042383 0.001572
v 0.022136 -0.040110 -0.006239
v 0.026581 -0.033251 -0.010614
v 0.029329 -0.024427 -0.009882
v 0.029329 -0.017009 -0.004323
v 0.026581 -0.013829 0.003940
v 0.042912 -0.023376 0.021458
v 0.038466 -0.030235 0.025833
v 0.035719 -0.039059 0.025102
v 0.035719 -0.046477 0.019542
v 0.038466 -0.049657 0.011279
v 0.042912 -0.047384 0.003468
v 0.047357 -0.040525 -0.000907
v 0.050105 -0.031702 -0.000175
v 0.050105 -0.024283 0.005384
v 0.047357 -0.021103 0.013647
v 0.042912 -0.022102 0.019441
v 0.038255 -0.028121 0.024736
v 0.035377 -0.036912 0.025343
v 0.035377 -0.045118 0.021030
v 0.038255 -0.049605 0.013445
v 0.042912 -0.048658 0.005485
v 0.047568 -0.042640 0.000191
v 0.050446 -0.033848 -0.000416
v 0.050446 -0.025642 0.003896
v 0.047568 -0.021155 0.011481
v 0.061150 -0.027379 0.029482
v 0.056493 -0.033398 0.034777
v 0.053615 -0.042189 0.035384
v 0.053615 -0.050395 0.031072
v 0.056493 -0.054882 0.023487
v 0.061150 -0.053935 0.015527
v 0.065806 -0.047917 0.010232
v 0.068684 -0.039125 0.009625
v 0.068684 -0.030919 0.013938
v 0.065806 -0.026432 0.021522
v -0.054420 0.022712 0.076150
v -0.061839 0.022925 0.070595
v -0.066425 0.028076 0.064400
v -0.066425 0.036198 0.059930
v -0.061839 0.044188 0.058893
v -0.054420 0.048994 0.061685
v -0.047001 0.048781 0.067239
v -0.042415 0.043630 0.073434
v -0.042415 0.035508 0.077904
v -0.047001 0.027518 0.078941
v -0.002128 -0.016559 0.004796
v -0.009548 -0.016346 -0.000758
v -0.014133 -0.011194 -0.006954
v -0.014133 -0.003073 -0.011424
v -0.009548 0.004917 -0.012461
v -0.002128 0.009724 -0.009669
v 0.005291 0.009511 -0.004114
v 0.009876 0.004360 0.002081
v 0.009876 -0.003762 0.006551
v 0.005291 -0.011752 0.007588
v -0.002128 -0.011493 0.010204
v -0.006287 -0.016502 0.003605
v -0.008857 -0.016514 -0.005302
v -0.008857 -0.011523 -0.013115
v -0.006287 -0.003436 -0.016848
v -0.002128 0.004658 -0.015077
v 0.002030 0.009667 -0.008477
v 0.004600 0.009679 0.000430
v 0.004600 0.004688 0.008242
v 0.002030 -0.003399 0.011976
v 0.028747 -0.025410 0.001313
v 0.024588 -0.030419 -0.005286
v 0.022018 -0.030431 -0.014193
v 0.022018 -0.025440 -0.022006
v 0.024588 -0.017353 -0.025739
v 0.028747 -0.009259 -0.023968
v 0.032905 -0.004250 -0.017368
v 0.035475 -0.004238 -0.008461
v 0.035475 -0.009229 -0.000649
v 0.032905 -0.017316 0.003085
v 0.028747 -0.008348 0.000683
v 0.023892 -0.015957 0.002798
v 0.020891 -0.024092 -0.000481
v 0.020891 -0.029646 -0.007904
v 0.023892 -0.030498 -0.016634
v 0.028747 -0.026321 -0.023337
v 0.033601 -0.018712 -0.025453
v 0.036602 -0.010577 -0.022173
v 0.036602 -0.005023 -0.014751
v 0.033601 -0.004171 -0.006020
v 0.050160 -0.019657 0.009145
v 0.045305 -0.027266 0.011261
v 0.042305 -0.035401 0.007981
v 0.042305 -0.040955 0.000559
v 0.045305 -0.041807 -0.008171
v 0.050160 -0.037630 -0.014875
v 0.055015 -0.030021 -0.016990
v 0.058015 -0.021886 -0.013711
v 0.058015 -0.016332 -0.006288
v 0.055015 -0.015480 0.002442
v 0.050160 -0.015928 0.005092
v 0.044664 -0.022013 0.009417
v 0.041268 -0.030631 0.009051
v 0.041268 -0.038490 0.004133
v 0.044664 -0.042588 -0.003457
v 0.050160 -0.041359 -0.010821
v 0.055656 -0.035274 -0.015146
v 0.059052 -0.026656 -0.014780
v 0.059052 -0.018797 -0.009863
v 0.055656 -0.014699 -0.002272
v 0.073270 -0.025700 0.020709
v 0.067774 -0.031785 0.025034
v 0.064378 -0.040403 0.024668
v 0.064378 -0.048262 0.019750
v 0.067774 -0.052360 0.012160
v 0.073270 -0.051131 0.004796
v 0.078766 -0.045046 0.000471
v 0.082163 -0.036428 0.000837
v 0.082163 -0.028569 0.005754
v 0.078766 -0.024471 0.013345
v -0.054420 0.021627 0.073673
v -0.061546 0.022698 0.067841
v -0.065950 0.028793 0.062419
v -0.065950 0.037585 0.059480
v -0.061546 0.045716 0.060145
v -0.054420 0.050079 0.064161
v -0.047294 0.049009 0.069993
v -0.042890 0.042913 0.075415
v -0.042890 0.034121 0.078355
v -0.047294 0.025991 0.077689
v 0.003379 -0.003526 -0.001556
v -0.003747 -0.002455 -0.007388
v -0.008150 0.003640 -0.012810
v -0.008150 0.012432 -0.015749
v -0.003747 0.020563 -0.015084
v 0.003379 0.024926 -0.011068
v 0.010505 0.023856 -0.005236
v 0.014909 0.017760 0.000186
v 0.014909 0.008968 0.003126
v 0.010505 0.000838 0.002460
v -0.001703 0.010700 0.007801
v -0.001214 0.001898 0.004932
v 0.001029 -0.003542 -0.002232
v 0.004170 -0.003542 -0.010954
v 0.007009 0.001898 -0.017903
v 0.008461 0.010700 -0.020425
v 0.007973 0.019502 -0.017556
v 0.005730 0.024942 -0.010392
v 0.002589 0.024942 -0.001670
v -0.000250 0.019502 0.005279
v 0.023535 0.009139 0.016889
v 0.024024 0.000337 0.014020
v 0.026267 -0.005103 0.006857
v 0.029408 -0.005103 -0.001866
v 0.032247 0.000337 -0.008815
v 0.033699 0.009139 -0.011336
v 0.033211 0.017941 -0.008468
v 0.030968 0.023381 -0.001304
v 0.027827 0.023381 0.007418
v 0.024988 0.017941 0.014367
v 0.028617 0.024126 0.002166
v 0.019812 0.021246 0.001842
v 0.014369 0.013741 0.001874
v 0.014369 0.004478 0.002251
v 0.019812 -0.003004 0.002829
v 0.028617 -0.005849 0.003386
v 0.037423 -0.002969 0.003711
v 0.042865 0.004536 0.003679
v 0.042865 0.013799 0.003302
v 0.037423 0.021282 0.002724
v 0.027287 0.025206 0.028684
v 0.018481 0.022325 0.028359
v 0.013039 0.014820 0.028391
v 0.013039 0.005557 0.028768
v 0.018481 -0.001925 0.029346
v 0.027287 -0.004770 0.029903
v 0.036093 -0.001889 0.030228
v 0.041535 0.005616 0.030196
v 0.041535 0.014878 0.029819
v 0.036093 0.022361 0.029241
v 0.027287 0.025206 0.029901
v 0.019350 0.022499 0.025948
v 0.014445 0.015101 0.023272
v 0.014445 0.005838 0.022897
v 0.019350 -0.001752 0.024965
v 0.027287 -0.004770 0.028686
v 0.035223 -0.002063 0.032639
v 0.040128 0.005335 0.035315
v 0.040128 0.014598 0.035690
v 0.035223 0.022188 0.033622
v 0.015759 0.024241 0.053705
v 0.007822 0.021534 0.049751
v 0.002917 0.014136 0.047076
v 0.002917 0.004873 0.046701
v 0.007822 -0.002716 0.048769
v 0.015759 -0.005734 0.052490
v 0.023695 -0.003027 0.056443
v 0.028600 0.004370 0.059118
v 0.028600 0.013633 0.059494
v 0.023695 0.021223 0.057426
v -0.054420 0.020960 0.070705
v -0.061369 0.023158 0.064976
v -0.065664 0.030204 0.060752
v -0.065664 0.039409 0.059647
v -0.061369 0.047255 0.062083
v -0.054420 0.050746 0.067129
v -0.047471 0.048549 0.072858
v -0.043176 0.041502 0.077082
v -0.043176 0.032297 0.078187
v -0.047471 0.024451 0.075751
v -0.000536 0.012736 0.002196
v -0.007485 0.014933 -0.003534
v -0.011780 0.021980 -0.007758
v -0.011780 0.031184 -0.008863
v -0.007485 0.039031 -0.006427
v -0.000536 0.042522 -0.001380
v 0.006413 0.040324 0.004349
v 0.010708 0.033277 0.008573
v 0.010708 0.024073 0.009678
v 0.006413 0.016227 0.007242
v -0.006009 0.027629 0.014374
v -0.005113 0.018813 0.011648
v -0.002470 0.013365 0.004628
v 0.000913 0.013365 -0.004003
v 0.003742 0.018813 -0.010950
v 0.004937 0.027629 -0.013558
v 0.004041 0.036444 -0.010832
v 0.001397 0.041892 -0.003813
v -0.001985 0.041892 0.004818
v -0.004814 0.036444 0.011765
v 0.014977 0.027217 0.022597
v 0.015873 0.018402 0.019871
v 0.018516 0.012954 0.012852
v 0.021899 0.012954 0.004220
v 0.024727 0.018402 -0.002726
v 0.025922 0.027217 -0.005335
v 0.025027 0.036033 -0.002609
v 0.022383 0.041481 0.004410
v 0.019001 0.041481 0.013042
v 0.016172 0.036033 0.019988
v 0.020450 0.042063 0.010776
v 0.011682 0.039096 0.011282
v 0.006263 0.031591 0.010776
v 0.006263 0.022416 0.009450
v 0.011682 0.015075 0.007812
v 0.020450 0.012372 0.006487
v 0.029218 0.015339 0.005980
v 0.034637 0.022844 0.006486
v 0.034637 0.032019 0.007812
v 0.029218 0.039360 0.009450
v 0.022695 0.039022 0.031829
v 0.013927 0.036055 0.032336
v 0.008508 0.028550 0.031829
v 0.008508 0.019375 0.030504
v 0.013927 0.012033 0.028866
v 0.022695 0.009330 0.027540
v 0.031463 0.012298 0.027034
v 0.036882 0.019803 0.027540
v 0.036882 0.028978 0.028865
v 0.031463 0.036319 0.030504
v 0.022695 0.039167 0.030198
v 0.016346 0.036514 0.023986
v 0.012422 0.029147 0.019951
v 0.012422 0.019882 0.019634
v 0.016346 0.012257 0.023156
v 0.022695 0.009185 0.029172
v 0.029044 0.011839 0.035383
v 0.032968 0.019205 0.039418
v 0.032968 0.028470 0.039736
v 0.029044 0.036095 0.036214
v 0.009410 0.038696 0.043979
v 0.003061 0.036042 0.037767
v -0.000864 0.028676 0.033732
v -0.000864 0.019411 0.033415
v 0.003061 0.011786 0.036937
v 0.009410 0.008713 0.042953
v 0.015759 0.011367 0.049164
v 0.019683 0.018733 0.053199
v 0.019683 0.027998 0.053516
v 0.015759 0.035623 0.049995
v 0.047123 0.025325 0.092497
v 0.040098 0.031296 0.091527
v 0.035757 0.036855 0.085511
v 0.035757 0.039879 0.076747
v 0.040098 0.039212 0.068583
v 0.047123 0.035110 0.064138
v 0.054148 0.029138 0.065108
v 0.058489 0.023579 0.071124
v 0.058489 0.020556 0.079887
v 0.054148 0.021223 0.088051
v 0.023937 -0.003573 0.082527
v 0.016912 0.002398 0.081557
v 0.012570 0.007957 0.075541
v 0.012570 0.010981 0.066777
v 0.016912 0.010314 0.058613
v 0.023937 0.006211 0.054167
v 0.030961 0.000240 0.055138
v 0.035303 -0.005319 0.061154
v 0.035303 -0.008342 0.069917
v 0.030961 -0.007675 0.078081
v 0.023937 -0.011832 0.075561
v 0.019198 -0.005745 0.080702
v 0.016269 0.003041 0.081124
v 0.016269 0.011169 0.076665
v 0.019198 0.015535 0.069030
v 0.023937 0.014471 0.061133
v 0.028676 0.008383 0.055993
v 0.031605 -0.000402 0.055571
v 0.031605 -0.008530 0.060029
v 0.028676 -0.012896 0.067665
v -0.000554 -0.019340 0.061874
v -0.005293 -0.013253 0.067015
v -0.008222 -0.004467 0.067436
v -0.008222 0.003661 0.062978
v -0.005293 0.008027 0.055343
v -0.000554 0.006963 0.047446
v 0.004186 0.000876 0.042305
v 0.007115 -0.007910 0.041884
v 0.007115 -0.016038 0.046342
v 0.004186 -0.020404 0.053978
v -0.000554 -0.019803 0.048365
v -0.008102 -0.019115 0.053702
v -0.012767 -0.013489 0.059406
v -0.012767 -0.005075 0.063296
v -0.008102 0.002914 0.063888
v -0.000554 0.007427 0.060955
v 0.006995 0.006739 0.055618
v 0.011660 0.001113 0.049914
v 0.011660 -0.007302 0.046024
v 0.006995 -0.015291 0.045432
v -0.020157 -0.006172 0.018884
v -0.027705 -0.005484 0.024222
v -0.032371 0.000142 0.029925
v -0.032371 0.008556 0.033816
v -0.027705 0.016546 0.034408
v -0.020157 0.021058 0.031475
v -0.012608 0.020370 0.026137
v -0.007943 0.014744 0.020434
v -0.007943 0.006330 0.016543
v -0.012608 -0.001660 0.015951
v -0.020157 -0.004929 0.016699
v -0.028389 -0.004351 0.020922
v -0.033477 0.000731 0.026772
v -0.033477 0.008378 0.032014
v -0.028389 0.015667 0.034645
v -0.020157 0.019815 0.033660
v -0.011925 0.019238 0.029436
v -0.006837 0.014155 0.023587
v -0.006837 0.006508 0.018345
v -0.011925 -0.000781 0.015714
v -0.029956 0.009517 -0.004376
v -0.038188 0.010095 -0.000152
v -0.043276 0.015178 0.005697
v -0.043276 0.022824 0.010939
v -0.038188 0.030114 0.013570
v -0.029956 0.034262 0.012585
v -0.021724 0.033684 0.008362
v -0.016637 0.028601 0.002512
v -0.016637 0.020954 -0.002730
v -0.021724 0.013665 -0.005361
v 0.047123 0.017678 0.086550
v 0.039431 0.022438 0.088579
v 0.034677 0.030169 0.086689
v 0.034677 0.037918 0.081601
v 0.039431 0.042726 0.075259
v 0.047123 0.042756 0.070085
v 0.054815 0.037997 0.068056
v 0.059569 0.030266 0.069946
v 0.059569 0.022516 0.075033
v 0.054815 0.017708 0.081376
v -0.001729 -0.030187 0.013643
v -0.009421 -0.025427 0.015673
v -0.014175 -0.017696 0.013783
v -0.014175 -0.009946 0.008695
v -0.009421 -0.005138 0.002353
v -0.001729 -0.005108 -0.002821
v 0.005964 -0.009868 -0.004851
v 0.010718 -0.017599 -0.002961
v 0.010718 -0.025348 0.002127
v 0.005964 -0.030156 0.008469
v -0.001729 -0.031544 0.011057
v -0.005585 -0.025906 0.017325
v -0.007968 -0.017113 0.019041
v -0.007968 -0.008524 0.015552
v -0.005585 -0.003420 0.008189
v -0.001729 -0.003751 -0.000235
v 0.002127 -0.009389 -0.006503
v 0.004510 -0.018182 -0.008219
v 0.004510 -0.026771 -0.004730
v 0.002127 -0.031875 0.002633
v -0.023684 -0.035563 0.001165
v -0.027540 -0.029925 0.007433
v -0.029923 -0.021132 0.009150
v -0.029923 -0.012543 0.005660
v -0.027540 -0.007439 -0.001703
v -0.023684 -0.007770 -0.010127
v -0.019828 -0.013408 -0.016394
v -0.017445 -0.022201 -0.018111
v -0.017445 -0.030790 -0.014622
v -0.019828 -0.035894 -0.007259
v -0.029486 -0.021666 -0.018313
v -0.027780 -0.030459 -0.015922
v -0.024510 -0.035894 -0.009161
v -0.020924 -0.035894 -0.000612
v -0.018393 -0.030459 0.006459
v -0.017883 -0.021666 0.009352
v -0.019588 -0.012874 0.006961
v -0.022859 -0.007439 0.000199
v -0.026444 -0.007439 -0.008350
v -0.028975 -0.012874 -0.015421
v -0.051075 -0.023392 -0.009259
v -0.049369 -0.032185 -0.006868
v -0.046099 -0.037620 -0.000106
v -0.042514 -0.037620 0.008443
v -0.039982 -0.032185 0.015514
v -0.039472 -0.023392 0.018407
v -0.041178 -0.014600 0.016016
v -0.044448 -0.009165 0.009254
v -0.048034 -0.009165 0.000705
v -0.050565 -0.014600 -0.006366
v -0.049081 -0.023392 -0.009935
v -0.049013 -0.032183 -0.006991
v -0.047516 -0.037616 0.000370
v -0.045163 -0.037616 0.009337
v -0.042852 -0.032183 0.016485
v -0.041466 -0.023392 0.019083
v -0.041535 -0.014602 0.016139
v -0.043032 -0.009169 0.008778
v -0.045385 -0.009169 -0.000189
v -0.047696 -0.014602 -0.007337
v -0.068155 -0.021865 -0.004929
v -0.068087 -0.030656 -0.001986
v -0.066590 -0.036088 0.005376
v -0.064237 -0.036088 0.014343
v -0.061926 -0.030656 0.021490
v -0.060540 -0.021865 0.024088
v -0.060609 -0.013075 0.021144
v -0.062106 -0.007642 0.013783
v -0.064459 -0.007642 0.004816
v -0.066770 -0.013075 -0.002331
v 0.047123 0.016333 0.083995
v 0.039390 0.020588 0.086831
v 0.034611 0.028521 0.086415
v 0.034611 0.037102 0.082906
v 0.039390 0.043053 0.077645
v 0.047123 0.044101 0.072640
v 0.054856 0.039847 0.069804
v 0.059635 0.031914 0.070220
v 0.059635 0.023333 0.073729
v 0.054856 0.017382 0.078990
v -0.000922 -0.016868 0.002801
v -0.008655 -0.012614 0.005637
v -0.013434 -0.004681 0.005221
v -0.013434 0.003900 0.001713
v -0.008655 0.009851 -0.003549
v -0.000922 0.010900 -0.008554
v 0.006811 0.006645 -0.011390
v 0.011590 -0.001288 -0.010974
v 0.011590 -0.009868 -0.007465
v 0.006811 -0.015820 -0.002203
v 0.003459 -0.002984 -0.017222
v 0.004133 -0.011658 -0.014021
v 0.002876 -0.017019 -0.006563
v 0.000168 -0.017019 0.002303
v -0.002956 -0.011658 0.009191
v -0.005303 -0.002984 0.011470
v -0.005976 0.005690 0.008269
v -0.004719 0.011051 0.000811
v -0.002012 0.011051 -0.008056
v 0.001112 0.005690 -0.014944
v -0.026035 -0.008598 -0.026229
v -0.025362 -0.017272 -0.023028
v -0.026619 -0.022633 -0.015570
v -0.029327 -0.022633 -0.006704
v -0.032450 -0.017272 0.000184
v -0.034797 -0.008598 0.002463
v -0.035471 0.000076 -0.000738
v -0.034214 0.005437 -0.008196
v -0.031506 0.005437 -0.017063
v -0.028382 0.000076 -0.023951
v -0.035996 -0.008598 -0.025807
v -0.035557 -0.017389 -0.022897
v -0.033154 -0.022822 -0.015780
v -0.029705 -0.022822 -0.007175
v -0.026528 -0.017389 -0.000368
v -0.024837 -0.008598 0.002040
v -0.025276 0.000193 -0.000870
v -0.027679 0.005626 -0.007986
v -0.031128 0.005626 -0.016592
v -0.034304 0.000193 -0.023398
v -0.061124 -0.006521 -0.015737
v -0.060685 -0.015312 -0.012827
v -0.058282 -0.020745 -0.005710
v -0.054833 -0.020745 0.002895
v -0.051657 -0.015312 0.009702
v -0.049965 -0.006521 0.012110
v -0.050404 0.002270 0.009200
v -0.052807 0.007703 0.002083
v -0.056256 0.007703 -0.006522
v -0.059433 0.002270 -0.013329
v -0.055545 0.008338 0.000235
v -0.061123 0.006432 -0.006920
v -0.064570 -0.000421 -0.012125
v -0.064570 -0.009605 -0.013390
v -0.061123 -0.017611 -0.010234
v -0.055545 -0.021381 -0.003861
v -0.049966 -0.019475 0.003294
v -0.046519 -0.012621 0.008498
v -0.046519 -0.003438 0.009764
v -0.049966 0.004568 0.006607
v -0.079990 0.005612 0.020019
v -0.085568 0.003706 0.012864
v -0.089015 -0.003148 0.007660
v -0.089015 -0.012331 0.006394
v -0.085568 -0.020337 0.009551
v -0.079990 -0.024107 0.015923
v -0.074411 -0.022202 0.023078
v -0.070964 -0.015348 0.028283
v -0.070964 -0.006164 0.029548
v -0.074411 0.001842 0.026392
v 0.047123 0.015577 0.081582
v 0.039397 0.019297 0.085104
v 0.034621 0.027189 0.086033
v 0.034621 0.036237 0.084016
v 0.039397 0.042986 0.079822
v 0.047123 0.044858 0.075053
v 0.054849 0.041138 0.071531
v 0.059625 0.033246 0.070601
v 0.059625 0.024198 0.072619
v 0.054849 0.017449 0.076813
v 0.000265 -0.002973 -0.001619
v -0.007461 0.000747 0.001903
v -0.012237 0.008638 0.002833
v -0.012237 0.017687 0.000815
v -0.007461 0.024436 -0.003379
v 0.000265 0.026308 -0.008148
v 0.007991 0.022587 -0.011670
v 0.012766 0.014696 -0.012599
v 0.012766 0.005647 -0.010582
v 0.007991 -0.001102 -0.006388
v -0.002493 0.011667 -0.019628
v -0.002407 0.002862 -0.016729
v -0.001300 -0.002580 -0.009306
v 0.000404 -0.002580 -0.000194
v 0.002056 0.002862 0.007127
v 0.003023 0.011667 0.009861
v 0.002937 0.020472 0.006963
v 0.001830 0.025915 -0.000461
v 0.000125 0.025915 -0.009573
v -0.001526 0.020472 -0.016894
v -0.037699 0.013490 -0.013041
v -0.037613 0.004685 -0.010143
v -0.036506 -0.000757 -0.002720
v -0.034801 -0.000757 0.006393
v -0.033150 0.004685 0.013714
v -0.032182 0.013490 0.016447
v -0.032269 0.022296 0.013549
v -0.033376 0.027738 0.006126
v -0.035080 0.027738 -0.002986
v -0.036732 0.022296 -0.010308
v -0.034941 0.028470 0.000931
v -0.043758 0.025607 0.001040
v -0.049207 0.018116 0.001402
v -0.049207 0.008858 0.001880
v -0.043758 0.001369 0.002290
v -0.034941 -0.001490 0.002475
v -0.026124 0.001373 0.002366
v -0.020675 0.008864 0.002004
v -0.020675 0.018123 0.001526
v -0.026124 0.025611 0.001117
v -0.035045 0.029705 0.024871
v -0.043862 0.026842 0.024980
v -0.049311 0.019350 0.025343
v -0.049311 0.010092 0.025820
v -0.043862 0.002603 0.026230
v -0.035045 -0.000256 0.026416
v -0.026228 0.002607 0.026307
v -0.020779 0.010099 0.025944
v -0.020779 0.019357 0.025467
v -0.026228 0.026846 0.025057
v -0.035045 0.029719 0.026066
v -0.043472 0.026782 0.028577
v -0.048680 0.019240 0.029968
v -0.048680 0.009973 0.029707
v -0.043472 0.002521 0.027894
v -0.035045 -0.000269 0.025221
v -0.026618 0.002667 0.022710
v -0.021410 0.010209 0.021319
v -0.021410 0.019476 0.021580
v -0.026618 0.026928 0.023393
v -0.026925 0.028975 0.052445
v -0.035352 0.026039 0.054956
v -0.040560 0.018497 0.056347
v -0.040560 0.009230 0.056086
v -0.035352 0.001778 0.054273
v -0.026925 -0.001013 0.051600
v -0.018498 0.001924 0.049089
v -0.013290 0.009466 0.047698
v -0.013290 0.018733 0.047959
v -0.018498 0.026185 0.049772
v 0.047123 0.015223 0.077889
v 0.039672 0.017952 0.082683
v 0.035068 0.025366 0.085809
v 0.035068 0.034633 0.086074
v 0.039672 0.042213 0.083376
v 0.047123 0.045211 0.078746
v 0.054574 0.042482 0.073952
v 0.059179 0.035069 0.070825
v 0.059179 0.025802 0.070561
v 0.054574 0.018222 0.073259
v 0.001343 0.017290 0.005561
v -0.006108 0.020019 0.010355
v -0.010713 0.027432 0.013481
v -0.010713 0.036699 0.013746
v -0.006108 0.044279 0.011048
v 0.001343 0.047277 0.006418
v 0.008793 0.044548 0.001624
v 0.013398 0.037135 -0.001503
v 0.013398 0.027868 -0.001768
v 0.008793 0.020288 0.000931
v -0.001811 0.032283 -0.008676
v 0.000330 0.023608 -0.006206
v 0.002858 0.018247 0.000922
v 0.004807 0.018247 0.009985
v 0.005433 0.023608 0.017522
v 0.004496 0.032283 0.020654
v 0.002355 0.040959 0.018184
v -0.000173 0.046320 0.011056
v -0.002122 0.046320 0.001993
v -0.002748 0.040959 -0.005544
v -0.022013 0.028534 -0.004331
v -0.019872 0.019859 -0.001861
v -0.017344 0.014497 0.005267
v -0.015395 0.014497 0.014330
v -0.014769 0.019859 0.021867
v -0.015706 0.028534 0.024998
v -0.017847 0.037209 0.022529
v -0.020375 0.042571 0.015401
v -0.022324 0.042571 0.006338
v -0.022950 0.037209 -0.001199
v -0.018859 0.043035 0.014171
v -0.027375 0.040850 0.011230
v -0.032638 0.033961 0.007946
v -0.032638 0.024999 0.005574
v -0.027375 0.017387 0.005020
v -0.018859 0.014033 0.006496
v -0.010344 0.016218 0.009438
v -0.005081 0.023107 0.012722
v -0.005081 0.032069 0.015094
v -0.010344 0.039681 0.015647
v -0.024580 0.037580 0.034784
v -0.033096 0.035395 0.031842
v -0.038359 0.028506 0.028558
v -0.038359 0.019544 0.026187
v -0.033096 0.011932 0.025633
v -0.024580 0.008578 0.027109
v -0.016065 0.010763 0.030051
v -0.010802 0.017652 0.033334
v -0.010802 0.026614 0.035706
v -0.016065 0.034226 0.036260
v -0.024580 0.037803 0.033812
v -0.031811 0.034027 0.038217
v -0.036280 0.026069 0.039845
v -0.036280 0.016970 0.038074
v -0.031811 0.010203 0.033581
v -0.024580 0.008355 0.028081
v -0.017350 0.012131 0.023676
v -0.012881 0.020089 0.022048
v -0.012881 0.029188 0.023819
v -0.017350 0.035955 0.028312
v -0.014054 0.034921 0.048620
v -0.021284 0.031145 0.053025
v -0.025753 0.023188 0.054653
v -0.025753 0.014088 0.052882
v -0.021284 0.007322 0.048389
v -0.014054 0.005474 0.042889
v -0.006823 0.009249 0.038484
v -0.002355 0.017207 0.036856
v -0.002355 0.026307 0.038627
v -0.006823 0.033073 0.043120
f 1 2 13
f 2 14 13
f 2 3 14
f 3 15 14
f 3 4 15
f 4 16 15
f 4 5 16
f 5 17 16
f 5 6 17
f 6 18 17
f 6 7 18
f 7 19 18
f 7 8 19
f 8 20 19
f 8 9 20
f 9 21 20
f 9 10 21
f 10 22 21
f 10 11 22
f 11 23 22
f 11 12 23
f 12 24 23
f 13 14 25
f 14 26 25
f 14 15 26
f 15 27 26
f 15 16 27
f 16 28 27
f 16 17 28
f 17 29 28
f 17 18 29
f 18 30 29
f 18 19 30
f 19 31 30
f 19 20 31
f 20 32 31
f 20 21 32
f 21 33 32
f 21 22 33
f 22 34 33
f 22 23 34
f 23 35 34
f 23 24 35
f 24 36 35
f 25 26 37
f 26 38 37
f 26 27 38
f 27 39 38
f 27 28 39
f 28 40 39
f 28 29 40
f 29 41 40
f 29 30 41
f 30 42 41
f 30 31 42
f 31 43 42
f 31 32 43
f 32 44 43
f 32 33 44
f 33 45 44
f 33 34 45
f 34 46 45
f 34 35 46
f 35 47 46
f 35 36 47
f 36 48 47
f 37 38 49
f 38 50 49
f 38 39 50
f 39 51 50
f 39 40 51
f 40 52 51
f 40 41 52
f 41 53 52
f 41 42 53
f 42 54 53
f 42 43 54
f 43 55 54
f 43 44 55
f 44 56 55
f 44 45 56
f 45 57 56
f 45 46 57
f 46 58 57
f 46 47 58
f 47 59 58
f 47 48 59
f 48 60 59
f 49 50 61
f 50 62 61
f 50 51 62
f 51 63 62
f 51 52 63
f 52 64 63
f 52 53 64
f 53 65 64
f 53 54 65
f 54 66 65
f 54 55 66
f 55 67 66
f 55 56 67
f 56 68 67
f 56 57 68
f 57 69 68
f 57 58 69
f 58 70 69
f 58 59 70
f 59 71 70
f 59 60 71
f 60 72 71
f 61 62 73
f 62 74 73
f 62 63 74
f 63 75 74
f 63 64 75
f 64 76 75
f 64 65 76
f 65 77 76
f 65 66 77
f 66 78 77
f 66 67 78
f 67 79 78
f 67 68 79
f 68 80 79
f 68 69 80
f 69 81 80
f 69 70 81
f 70 82 81
f 70 71 82
f 71 83 82
f 71 72 83
f 72 84 83
f 73 74 85
f 74 86 85
f 74 75 86
f 75 87 86
f 75 76 87
f 76 88 87
f 76 77 88
f 77 89 88
f 77 78 89
f 78 90 89
f 78 79 90
f 79 91 90
f 79 80 91
f 80 92 91
f 80 81 92
f 81 93 92
f 81 82 93
f 82 94 93
f 82 83 94
f 83 95 94
f 83 84 95
f 84 96 95
f 85 86 97
f 86 98 97
f 86 87 98
f 87 99 98
f 87 88 99
f 88 100 99
f 88 89 100
f 89 101 100
f 89 90 101
f 90 102 101
f 90 91 102
f 91 103 102
f 91 92 103
f 92 104 103
f 92 93 104
f 93 105 104
f 93 94 105
f 94 106 105
f 94 95 106
f 95 107 106
f 95 96 107
f 96 108 107
f 97 98 109
f 98 110 109
f 98 99 110
f 99 111 110
f 99 100 111
f 100 112 111
f 100 101 112
f 101 113 112
f 101 102 113
f 102 114 113
f 102 103 114
f 103 115 114
f 103 104 115
f 104 116 115
f 104 105 116
f 105 117 116
f 105 106 117
f 106 118 117
f 106 107 118
f 107 119 118
f 107 108 119
f 108 120 119
f 109 110 121
f 110 122 121
f 110 111 122
f 111 123 122
f 111 112 123
f 112 124 123
f 112 113 124
f 113 125 124
f 113 114 125
f 114 126 125
f 114 115 126
f 115 127 126
f 115 116 127
f 116 128 127
f 116 117 128
f 117 129 128
f 117 118 129
f 118 130 129
f 118 119 130
f 119 131 130
f 119 120 131
f 120 132 131
f 121 122 133
f 122 134 133
f 122 123 134
f 123 135 134
f 123 124 135
f 124 136 135
f 124 125 136
f 125 137 136
f 125 126 137
f 126 138 137
f 126 127 138
f 127 139 138
f 127 128 139
f 128 140 139
f 128 129 140
f 129 141 140
f 129 130 141
f 130 142 141
f 130 131 142
f 131 143 142
f 131 132 143
f 132 144 143
f 145 146 155
f 146 156 155
f 146 147 156
f 147 157 156
f 147 148 157
f 148 158 157
f 148 149 158
f 149 159 158
f 149 150 159
f 150 160 159
f 150 151 160
f 151 161 160
f 151 152 161
f 152 162 161
f 152 153 162
f 153 163 162
f 153 154 163
f 154 164 163
f 154 145 164
f 145 155 164
f 165 166 175
f 166 176 175
f 166 167 176
f 167 177 176
f 167 168 177
f 168 178 177
f 168 169 178
f 169 179 178
f 169 170 179
f 170 180 179
f 170 171 180
f 171 181 180
f 171 172 181
f 172 182 181
f 172 173 182
f 173 183 182
f 173 174 183
f 174 184 183
f 174 165 184
f 165 175 184
f 185 186 195
f 186 196 195
f 186 187 196
f 187 197 196
f 187 188 197
f 188 198 197
f 188 189 198
f 189 199 198
f 189 190 199
f 190 200 199
f 190 191 200
f 191 201 200
f 191 192 201
f 192 202 201
f 192 193 202
f 193 203 202
f 193 194 203
f 194 204 203
f 194 185 204
f 185 195 204
f 205 206 215
f 206 216 215
f 206 207 216
f 207 217 216
f 207 208 217
f 208 218 217
f 208 209 218
f 209 219 218
f 209 210 219
f 210 220 219
f 210 211 220
f 211 221 220
f 211 212 221
f 212 222 221
f 212 213 222
f 213 223 222
f 213 214 223
f 214 224 223
f 214 205 224
f 205 215 224
f 225 226 235
f 226 236 235
f 226 227 236
f 227 237 236
f 227 228 237
f 228 238 237
f 228 229 238
f 229 239 238
f 229 230 239
f 230 240 239
f 230 231 240
f 231 241 240
f 231 232 241
f 232 242 241
f 232 233 242
f 233 243 242
f 233 234 243
f 234 244 243
f 234 225 244
f 225 235 244
f 245 246 255
f 246 256 255
f 246 247 256
f 247 257 256
f 247 248 257
f 248 258 257
f 248 249 258
f 249 259 258
f 249 250 259
f 250 260 259
f 250 251 260
f 251 261 260
f 251 252 261
f 252 262 261
f 252 253 262
f 253 263 262
f 253 254 263
f 254 264 263
f 254 245 264
f 245 255 264
f 265 266 275
f 266 276 275
f 266 267 276
f 267 277 276
f 267 268 277
f 268 278 277
f 268 269 278
f 269 279 278
f 269 270 279
f 270 280 279
f 270 271 280
f 271 281 280
f 271 272 281
f 272 282 281
f 272 273 282
f 273 283 282
f 273 274 283
f 274 284 283
f 274 265 284
f 265 275 284
f 285 286 295
f 286 296 295
f 286 287 296
f 287 297 296
f 287 288 297
f 288 298 297
f 288 289 298
f 289 299 298
f 289 290 299
f 290 300 299
f 290 291 300
f 291 301 300
f 291 292 301
f 292 302 301
f 292 293 302
f 293 303 302
f 293 294 303
f 294 304 303
f 294 285 304
f 285 295 304
f 305 306 315
f 306 316 315
f 306 307 316
f 307 317 316
f 307 308 317
f 308 318 317
f 308 309 318
f 309 319 318
f 309 310 319
f 310 320 319
f 310 311 320
f 311 321 320
f 311 312 321
f 312 322 321
f 312 313 322
f 313 323 322
f 313 314 323
f 314 324 323
f 314 305 324
f 305 315 324
f 325 326 335
f 326 336 335
f 326 327 336
f 327 337 336
f 327 328 337
f 328 338 337
f 328 329 338
f 329 339 338
f 329 330 339
f 330 340 339
f 330 331 340
f 331 341 340
f 331 332 341
f 332 342 341
f 332 333 342
f 333 343 342
f 333 334 343
f 334 344 343
f 334 325 344
f 325 335 344
f 345 346 355
f 346 356 355
f 346 347 356
f 347 357 356
f 347 348 357
f 348 358 357
f 348 349 358
f 349 359 358
f 349 350 359
f 350 360 359
f 350 351 360
f 351 361 360
f 351 352 361
f 352 362 361
f 352 353 362
f 353 363 362
f 353 354 363
f 354 364 363
f 354 345 364
f 345 355 364
f 365 366 375
f 366 376 375
f 366 367 376
f 367 377 376
f 367 368 377
f 368 378 377
f 368 369 378
f 369 379 378
f 369 370 379
f 370 380 379
f 370 371 380
f 371 381 380
f 371 372 381
f 372 382 381
f 372 373 382
f 373 383 382
f 373 374 383
f 374 384 383
f 374 365 384
f 365 375 384
f 385 386 395
f 386 396 395
f 386 387 396
f 387 397 396
f 387 388 397
f 388 398 397
f 388 389 398
f 389 399 398
f 389 390 399
f 390 400 399
f 390 391 400
f 391 401 400
f 391 392 401
f 392 402 401
f 392 393 402
f 393 403 402
f 393 394 403
f 394 404 403
f 394 385 404
f 385 395 404
f 405 406 415
f 406 416 415
f 406 407 416
f 407 417 416
f 407 408 417
f 408 418 417
f 408 409 418
f 409 419 418
f 409 410 419
f 410 420 419
f 410 411 420
f 411 421 420
f 411 412 421
f 412 422 421
f 412 413 422
f 413 423 422
f 413 414 423
f 414 424 423
f 414 405 424
f 405 415 424
f 425 426 435
f 426 436 435
f 426 427 436
f 427 437 436
f 427 428 437
f 428 438 437
f 428 429 438
f 429 439 438
f 429 430 439
f 430 440 439
f 430 431 440
f 431 441 440
f 431 432 441
f 432 442 441
f 432 433 442
f 433 443 442
f 433 434 443
f 434 444 443
f 434 425 444
f 425 435 444
f 445 446 455
f 446 456 455
f 446 447 456
f 447 457 456
f 447 448 457
f 448 458 457
f 448 449 458
f 449 459 458
f 449 450 459
f 450 460 459
f 450 451 460
f 451 461 460
f 451 452 461
f 452 462 461
f 452 453 462
f 453 463 462
f 453 454 463
f 454 464 463
f 454 445 464
f 445 455 464
f 465 466 475
f 466 476 475
f 466 467 476
f 467 477 476
f 467 468 477
f 468 478 477
f 468 469 478
f 469 479 478
f 469 470 479
f 470 480 479
f 470 471 480
f 471 481 480
f 471 472 481
f 472 482 481
f 472 473 482
f 473 483 482
f 473 474 483
f 474 484 483
f 474 465 484
f 465 475 484
f 485 486 495
f 486 496 495
f 486 487 496
f 487 497 496
f 487 488 497
f 488 498 497
f 488 489 498
f 489 499 498
f 489 490 499
f 490 500 499
f 490 491 500
f 491 501 500
f 491 492 501
f 492 502 501
f 492 493 502
f 493 503 502
f 493 494 503
f 494 504 503
f 494 485 504
f 485 495 504
f 505 506 515
f 506 516 515
f 506 507 516
f 507 517 516
f 507 508 517
f 508 518 517
f 508 509 518
f 509 519 518
f 509 510 519
f 510 520 519
f 510 511 520
f 511 521 520
f 511 512 521
f 512 522 521
f 512 513 522
f 513 523 522
f 513 514 523
f 514 524 523
f 514 505 524
f 505 515 524
f 525 526 535
f 526 536 535
f 526 527 536
f 527 537 536
f 527 528 537
f 528 538 537
f 528 529 538
f 529 539 538
f 529 530 539
f 530 540 539
f 530 531 540
f 531 541 540
f 531 532 541
f 532 542 541
f 532 533 542
f 533 543 542
f 533 534 543
f 534 544 543
f 534 525 544
f 525 535 544
f 545 546 555
f 546 556 555
f 546 547 556
f 547 557 556
f 547 548 557
f 548 558 557
f 548 549 558
f 549 559 558
f 549 550 559
f 550 560 559
f 550 551 560
f 551 561 560
f 551 552 561
f 552 562 561
f 552 553 562
f 553 563 562
f 553 554 563
f 554 564 563
f 554 545 564
f 545 555 564
f 565 566 575
f 566 576 575
f 566 567 576
f 567 577 576
f 567 568 577
f 568 578 577
f 568 569 578
f 569 579 578
f 569 570 579
f 570 580 579
f 570 571 580
f 571 581 580
f 571 572 581
f 572 582 581
f 572 573 582
f 573 583 582
f 573 574 583
f 574 584 583
f 574 565 584
f 565 575 584
f 585 586 595
f 586 596 595
f 586 587 596
f 587 597 596
f 587 588 597
f 588 598 597
f 588 589 598
f 589 599 598
f 589 590 599
f 590 600 599
f 590 591 600
f 591 601 600
f 591 592 601
f 592 602 601
f 592 593 602
f 593 603 602
f 593 594 603
f 594 604 603
f 594 585 604
f 585 595 604
f 605 606 615
f 606 616 615
f 606 607 616
f 607 617 616
f 607 608 617
f 608 618 617
f 608 609 618
f 609 619 618
f 609 610 619
f 610 620 619
f 610 611 620
f 611 621 620
f 611 612 621
f 612 622 621
f 612 613 622
f 613 623 622
f 613 614 623
f 614 624 623
f 614 605 624
f 605 615 624
f 625 626 635
f 626 636 635
f 626 627 636
f 627 637 636
f 627 628 637
f 628 638 637
f 628 629 638
f 629 639 638
f 629 630 639
f 630 640 639
f 630 631 640
f 631 641 640
f 631 632 641
f 632 642 641
f 632 633 642
f 633 643 642
f 633 634 643
f 634 644 643
f 634 625 644
f 625 635 644
f 645 646 655
f 646 656 655
f 646 647 656
f 647 657 656
f 647 648 657
f 648 658 657
f 648 649 658
f 649 659 658
f 649 650 659
f 650 660 659
f 650 651 660
f 651 661 660
f 651 652 661
f 652 662 661
f 652 653 662
f 653 663 662
f 653 654 663
f 654 664 663
f 654 645 664
f 645 655 664
f 665 666 675
f 666 676 675
f 666 667 676
f 667 677 676
f 667 668 677
f 668 678 677
f 668 669 678
f 669 679 678
f 669 670 679
f 670 680 679
f 670 671 680
f 671 681 680
f 671 672 681
f 672 682 681
f 672 673 682
f 673 683 682
f 673 674 683
f 674 684 683
f 674 665 684
f 665 675 684
f 685 686 695
f 686 696 695
f 686 687 696
f 687 697 696
f 687 688 697
f 688 698 697
f 688 689 698
f 689 699 698
f 689 690 699
f 690 700 699
f 690 691 700
f 691 701 700
f 691 692 701
f 692 702 701
f 692 693 702
f 693 703 702
f 693 694 703
f 694 704 703
f 694 685 704
f 685 695 704
f 705 706 715
f 706 716 715
f 706 707 716
f 707 717 716
f 707 708 717
f 708 718 717
f 708 709 718
f 709 719 718
f 709 710 719
f 710 720 719
f 710 711 720
f 711 721 720
f 711 712 721
f 712 722 721
f 712 713 722
f 713 723 722
f 713 714 723
f 714 724 723
f 714 705 724
f 705 715 724
f 725 726 735
f 726 736 735
f 726 727 736
f 727 737 736
f 727 728 737
f 728 738 737
f 728 729 738
f 729 739 738
f 729 730 739
f 730 740 739
f 730 731 740
f 731 741 740
f 731 732 741
f 732 742 741
f 732 733 742
f 733 743 742
f 733 734 743
f 734 744 743
f 734 725 744
f 725 735 744
f 745 746 755
f 746 756 755
f 746 747 756
f 747 757 756
f 747 748 757
f 748 758 757
f 748 749 758
f 749 759 758
f 749 750 759
f 750 760 759
f 750 751 760
f 751 761 760
f 751 752 761
f 752 762 761
f 752 753 762
f 753 763 762
f 753 754 763
f 754 764 763
f 754 745 764
f 745 755 764
f 765 766 775
f 766 776 775
f 766 767 776
f 767 777 776
f 767 768 777
f 768 778 777
f 768 769 778
f 769 779 778
f 769 770 779
f 770 780 779
f 770 771 780
f 771 781 780
f 771 772 781
f 772 782 781
f 772 773 782
f 773 783 782
f 773 774 783
f 774 784 783
f 774 765 784
f 765 775 784
f 785 786 795
f 786 796 795
f 786 787 796
f 787 797 796
f 787 788 797
f 788 798 797
f 788 789 798
f 789 799 798
f 789 790 799
f 790 800 799
f 790 791 800
f 791 801 800
f 791 792 801
f 792 802 801
f 792 793 802
f 793 803 802
f 793 794 803
f 794 804 803
f 794 785 804
f 785 795 804
f 805 806 815
f 806 816 815
f 806 807 816
f 807 817 816
f 807 808 817
f 808 818 817
f 808 809 818
f 809 819 818
f 809 810 819
f 810 820 819
f 810 811 820
f 811 821 820
f 811 812 821
f 812 822 821
f 812 813 822
f 813 823 822
f 813 814 823
f 814 824 823
f 814 805 824
f 805 815 824
f 825 826 835
f 826 836 835
f 826 827 836
f 827 837 836
f 827 828 837
f 828 838 837
f 828 829 838
f 829 839 838
f 829 830 839
f 830 840 839
f 830 831 840
f 831 841 840
f 831 832 841
f 832 842 841
f 832 833 842
f 833 843 842
f 833 834 843
f 834 844 843
f 834 825 844
f 825 835 844
f 845 846 855
f 846 856 855
f 846 847 856
f 847 857 856
f 847 848 857
f 848 858 857
f 848 849 858
f 849 859 858
f 849 850 859
f 850 860 859
f 850 851 860
f 851 861 860
f 851 852 861
f 852 862 861
f 852 853 862
f 853 863 862
f 853 854 863
f 854 864 863
f 854 845 864
f 845 855 864
f 865 866 875
f 866 876 875
f 866 867 876
f 867 877 876
f 867 868 877
f 868 878 877
f 868 869 878
f 869 879 878
f 869 870 879
f 870 880 879
f 870 871 880
f 871 881 880
f 871 872 881
f 872 882 881
f 872 873 882
f 873 883 882
f 873 874 883
f 874 884 883
f 874 865 884
f 865 875 884
f 885 886 895
f 886 896 895
f 886 887 896
f 887 897 896
f 887 888 897
f 888 898 897
f 888 889 898
f 889 899 898
f 889 890 899
f 890 900 899
f 890 891 900
f 891 901 900
f 891 892 901
f 892 902 901
f 892 893 902
f 893 903 902
f 893 894 903
f 894 904 903
f 894 885 904
f 885 895 904
f 905 906 915
f 906 916 915
f 906 907 916
f 907 917 916
f 907 908 917
f 908 918 917
f 908 909 918
f 909 919 918
f 909 910 919
f 910 920 919
f 910 911 920
f 911 921 920
f 911 912 921
f 912 922 921
f 912 913 922
f 913 923 922
f 913 914 923
f 914 924 923
f 914 905 924
f 905 915 924
f 925 926 935
f 926 936 935
f 926 927 936
f 927 937 936
f 927 928 937
f 928 938 937
f 928 929 938
f 929 939 938
f 929 930 939
f 930 940 939
f 930 931 940
f 931 941 940
f 931 932 941
f 932 942 941
f 932 933 942
f 933 943 942
f 933 934 943
f 934 944 943
f 934 925 944
f 925 935 944
f 945 946 955
f 946 956 955
f 946 947 956
f 947 957 956
f 947 948 957
f 948 958 957
f 948 949 958
f 949 959 958
f 949 950 959
f 950 960 959
f 950 951 960
f 951 961 960
f 951 952 961
f 952 962 961
f 952 953 962
f 953 963 962
f 953 954 963
f 954 964 963
f 954 945 964
f 945 955 964
f 965 966 975
f 966 976 975
f 966 967 976
f 967 977 976
f 967 968 977
f 968 978 977
f 968 969 978
f 969 979 978
f 969 970 979
f 970 980 979
f 970 971 980
f 971 981 980
f 971 972 981
f 972 982 981
f 972 973 982
f 973 983 982
f 973 974 983
f 974 984 983
f 974 965 984
f 965 975 984
f 985 986 995
f 986 996 995
f 986 987 996
f 987 997 996
f 987 988 997
f 988 998 997
f 988 989 998
f 989 999 998
f 989 990 999
f 990 1000 999
f 990 991 1000
f 991 1001 1000
f 991 992 1001
f 992 1002 1001
f 992 993 1002
f 993 1003 1002
f 993 994 1003
f 994 1004 1003
f 994 985 1004
f 985 995 1004
f 1005 1006 1015
f 1006 1016 1015
f 1006 1007 1016
f 1007 1017 1016
f 1007 1008 1017
f 1008 1018 1017
f 1008 1009 1018
f 1009 1019 1018
f 1009 1010 1019
f 1010 1020 1019
f 1010 1011 1020
f 1011 1021 1020
f 1011 1012 1021
f 1012 1022 1021
f 1012 1013 1022
f 1013 1023 1022
f 1013 1014 1023
f 1014 1024 1023
f 1014 1005 1024
f 1005 1015 1024
f 1025 1026 1035
f 1026 1036 1035
f 1026 1027 1036
f 1027 1037 1036
f 1027 1028 1037
f 1028 1038 1037
f 1028 1029 1038
f 1029 1039 1038
f 1029 1030 1039
f 1030 1040 1039
f 1030 1031 1040
f 1031 1041 1040
f 1031 1032 1041
f 1032 1042 1041
f 1032 1033 1042
f 1033 1043 1042
f 1033 1034 1043
f 1034 1044 1043
f 1034 1025 1044
f 1025 1035 1044
f 1045 1046 1055
f 1046 1056 1055
f 1046 1047 1056
f 1047 1057 1056
f 1047 1048 1057
f 1048 1058 1057
f 1048 1049 1058
f 1049 1059 1058
f 1049 1050 1059
f 1050 1060 1059
f 1050 1051 1060
f 1051 1061 1060
f 1051 1052 1061
f 1052 1062 1061
f 1052 1053 1062
f 1053 1063 1062
f 1053 1054 1063
f 1054 1064 1063
f 1054 1045 1064
f 1045 1055 1064
f 1065 1066 1075
f 1066 1076 1075
f 1066 1067 1076
f 1067 1077 1076
f 1067 1068 1077
f 1068 1078 1077
f 1068 1069 1078
f 1069 1079 1078
f 1069 1070 1079
f 1070 1080 1079
f 1070 1071 1080
f 1071 1081 1080
f 1071 1072 1081
f 1072 1082 1081
f 1072 1073 1082
f 1073 1083 1082
f 1073 1074 1083
f 1074 1084 1083
f 1074 1065 1084
f 1065 1075 1084
f 1085 1086 1095
f 1086 1096 1095
f 1086 1087 1096
f 1087 1097 1096
f 1087 1088 1097
f 1088 1098 1097
f 1088 1089 1098
f 1089 1099 1098
f 1089 1090 1099
f 1090 1100 1099
f 1090 1091 1100
f 1091 1101 1100
f 1091 1092 1101
f 1092 1102 1101
f 1092 1093 1102
f 1093 1103 1102
f 1093 1094 1103
f 1094 1104 1103
f 1094 1085 1104
f 1085 1095 1104
f 1105 1106 1115
f 1106 1116 1115
f 1106 1107 1116
f 1107 1117 1116
f 1107 1108 1117
f 1108 1118 1117
f 1108 1109 1118
f 1109 1119 1118
f 1109 1110 1119
f 1110 1120 1119
f 1110 1111 1120
f 1111 1121 1120
f 1111 1112 1121
f 1112 1122 1121
f 1112 1113 1122
f 1113 1123 1122
f 1113 1114 1123
f 1114 1124 1123
f 1114 1105 1124
f 1105 1115 1124
f 1125 1126 1135
f 1126 1136 1135
f 1126 1127 1136
f 1127 1137 1136
f 1127 1128 1137
f 1128 1138 1137
f 1128 1129 1138
f 1129 1139 1138
f 1129 1130 1139
f 1130 1140 1139
f 1130 1131 1140
f 1131 1141 1140
f 1131 1132 1141
f 1132 1142 1141
f 1132 1133 1142
f 1133 1143 1142
f 1133 1134 1143
f 1134 1144 1143
f 1134 1125 1144
f 1125 1135 1144
f 1145 1146 1155
f 1146 1156 1155
f 1146 1147 1156
f 1147 1157 1156
f 1147 1148 1157
f 1148 1158 1157
f 1148 1149 1158
f 1149 1159 1158
f 1149 1150 1159
f 1150 1160 1159
f 1150 1151 1160
f 1151 1161 1160
f 1151 1152 1161
f 1152 1162 1161
f 1152 1153 1162
f 1153 1163 1162
f 1153 1154 1163
f 1154 1164 1163
f 1154 1145 1164
f 1145 1155 1164
f 1165 1166 1175
f 1166 1176 1175
f 1166 1167 1176
f 1167 1177 1176
f 1167 1168 1177
f 1168 1178 1177
f 1168 1169 1178
f 1169 1179 1178
f 1169 1170 1179
f 1170 1180 1179
f 1170 1171 1180
f 1171 1181 1180
f 1171 1172 1181
f 1172 1182 1181
f 1172 1173 1182
f 1173 1183 1182
f 1173 1174 1183
f 1174 1184 1183
f 1174 1165 1184
f 1165 1175 1184
