# Full-Body 3D Mesh - Frame 70
v 0.023079 -0.636029 -0.100917
v 0.056887 -0.636029 -0.105777
v 0.087956 -0.636029 -0.119966
v 0.113769 -0.636029 -0.142333
v 0.132235 -0.636029 -0.171067
v 0.141858 -0.636029 -0.203839
v 0.141858 -0.636029 -0.237994
v 0.132235 -0.636029 -0.270766
v 0.113769 -0.636029 -0.299500
v 0.087956 -0.636029 -0.321867
v 0.056887 -0.636029 -0.336056
v 0.023079 -0.636029 -0.340917
v 0.023079 -0.636029 -0.100917
v 0.051520 -0.617751 -0.105777
v 0.077657 -0.600954 -0.119966
v 0.099372 -0.586999 -0.142333
v 0.114907 -0.577015 -0.171067
v 0.123002 -0.571813 -0.203839
v 0.123002 -0.571813 -0.237994
v 0.114907 -0.577015 -0.270766
v 0.099372 -0.586999 -0.299500
v 0.077657 -0.600954 -0.321867
v 0.051520 -0.617751 -0.336056
v 0.023079 -0.636029 -0.340917
v 0.023079 -0.636029 -0.100917
v 0.037123 -0.605276 -0.105777
v 0.050030 -0.577015 -0.119966
v 0.060753 -0.553535 -0.142333
v 0.068424 -0.536738 -0.171067
v 0.072422 -0.527984 -0.203839
v 0.072422 -0.527984 -0.237994
v 0.068424 -0.536738 -0.270766
v 0.060753 -0.553535 -0.299500
v 0.050030 -0.577015 -0.321867
v 0.037123 -0.605276 -0.336056
v 0.023079 -0.636029 -0.340917
v 0.023079 -0.636029 -0.100917
v 0.018268 -0.602565 -0.105777
v 0.013846 -0.571813 -0.119966
v 0.010173 -0.546262 -0.142333
v 0.007545 -0.527984 -0.171067
v 0.006175 -0.518460 -0.203839
v 0.006175 -0.518460 -0.237994
v 0.007545 -0.527984 -0.270766
v 0.010173 -0.546262 -0.299500
v 0.013846 -0.571813 -0.321867
v 0.018268 -0.602565 -0.336056
v 0.023079 -0.636029 -0.340917
v 0.023079 -0.636029 -0.100917
v 0.000940 -0.610479 -0.105777
v -0.019406 -0.586999 -0.119966
v -0.036310 -0.567490 -0.142333
v -0.048403 -0.553535 -0.171067
v -0.054704 -0.546262 -0.203839
v -0.054704 -0.546262 -0.237994
v -0.048403 -0.553535 -0.270766
v -0.036310 -0.567490 -0.299500
v -0.019406 -0.586999 -0.321867
v 0.000940 -0.610479 -0.336056
v 0.023079 -0.636029 -0.340917
v 0.023079 -0.636029 -0.100917
v -0.009359 -0.626504 -0.105777
v -0.039170 -0.617751 -0.119966
v -0.063937 -0.610479 -0.142333
v -0.081655 -0.605276 -0.171067
v -0.090888 -0.602565 -0.203839
v -0.090888 -0.602565 -0.237994
v -0.081655 -0.605276 -0.270766
v -0.063937 -0.610479 -0.299500
v -0.039170 -0.617751 -0.321867
v -0.009359 -0.626504 -0.336056
v 0.023079 -0.636029 -0.340917
v 0.023079 -0.636029 -0.100917
v -0.009359 -0.645554 -0.105777
v -0.039170 -0.654307 -0.119966
v -0.063937 -0.661579 -0.142333
v -0.081655 -0.666782 -0.171067
v -0.090888 -0.669493 -0.203839
v -0.090888 -0.669493 -0.237994
v -0.081655 -0.666782 -0.270766
v -0.063937 -0.661579 -0.299500
v -0.039170 -0.654307 -0.321867
v -0.009359 -0.645554 -0.336056
v 0.023079 -0.636029 -0.340917
v 0.023079 -0.636029 -0.100917
v 0.000940 -0.661579 -0.105777
v -0.019406 -0.685060 -0.119966
v -0.036310 -0.704568 -0.142333
v -0.048403 -0.718524 -0.171067
v -0.054704 -0.725796 -0.203839
v -0.054704 -0.725796 -0.237994
v -0.048403 -0.718524 -0.270766
v -0.036310 -0.704568 -0.299500
v -0.019406 -0.685060 -0.321867
v 0.000940 -0.661579 -0.336056
v 0.023079 -0.636029 -0.340917
v 0.023079 -0.636029 -0.100917
v 0.018268 -0.669493 -0.105777
v 0.013846 -0.700246 -0.119966
v 0.010173 -0.725796 -0.142333
v 0.007545 -0.744074 -0.171067
v 0.006175 -0.753599 -0.203839
v 0.006175 -0.753599 -0.237994
v 0.007545 -0.744074 -0.270766
v 0.010173 -0.725796 -0.299500
v 0.013846 -0.700246 -0.321867
v 0.018268 -0.669493 -0.336056
v 0.023079 -0.636029 -0.340917
v 0.023079 -0.636029 -0.100917
v 0.037123 -0.666782 -0.105777
v 0.050030 -0.695043 -0.119966
v 0.060753 -0.718524 -0.142333
v 0.068424 -0.735321 -0.171067
v 0.072422 -0.744074 -0.203839
v 0.072422 -0.744074 -0.237994
v 0.068424 -0.735321 -0.270766
v 0.060753 -0.718524 -0.299500
v 0.050030 -0.695043 -0.321867
v 0.037123 -0.666782 -0.336056
v 0.023079 -0.636029 -0.340917
v 0.023079 -0.636029 -0.100917
v 0.051520 -0.654307 -0.105777
v 0.077657 -0.671104 -0.119966
v 0.099372 -0.685060 -0.142333
v 0.114907 -0.695043 -0.171067
v 0.123002 -0.700246 -0.203839
v 0.123002 -0.700246 -0.237994
v 0.114907 -0.695043 -0.270766
v 0.099372 -0.685060 -0.299500
v 0.077657 -0.671104 -0.321867
v 0.051520 -0.654307 -0.336056
v 0.023079 -0.636029 -0.340917
v 0.023079 -0.636029 -0.100917
v 0.056887 -0.636029 -0.105777
v 0.087956 -0.636029 -0.119966
v 0.113769 -0.636029 -0.142333
v 0.132235 -0.636029 -0.171067
v 0.141858 -0.636029 -0.203839
v 0.141858 -0.636029 -0.237994
v 0.132235 -0.636029 -0.270766
v 0.113769 -0.636029 -0.299500
v 0.087956 -0.636029 -0.321867
v 0.056887 -0.636029 -0.336056
v 0.023079 -0.636029 -0.340917
v 0.180406 -0.491854 -0.086630
v 0.177526 -0.515209 -0.079053
v 0.175404 -0.529643 -0.059096
v 0.174849 -0.529643 -0.034381
v 0.176073 -0.515209 -0.014348
v 0.178609 -0.491854 -0.006650
v 0.181488 -0.468499 -0.014227
v 0.183611 -0.454065 -0.034184
v 0.184166 -0.454065 -0.058899
v 0.182942 -0.468499 -0.078932
v -0.149041 -0.453641 -0.094031
v -0.151920 -0.476996 -0.086454
v -0.154043 -0.491430 -0.066497
v -0.154598 -0.491430 -0.041782
v -0.153374 -0.476996 -0.021749
v -0.150838 -0.453641 -0.014051
v -0.147959 -0.430286 -0.021628
v -0.145836 -0.415852 -0.041585
v -0.145281 -0.415852 -0.066300
v -0.146505 -0.430286 -0.086333
v 0.179507 -0.530773 -0.037404
v 0.160511 -0.526539 -0.052647
v 0.148770 -0.509057 -0.065596
v 0.148770 -0.485003 -0.071304
v 0.160511 -0.463567 -0.067591
v 0.179507 -0.452935 -0.055876
v 0.198504 -0.457169 -0.040633
v 0.210244 -0.474652 -0.027684
v 0.210244 -0.498705 -0.021976
v 0.198504 -0.520141 -0.025688
v 0.294051 -0.567040 -0.190225
v 0.275054 -0.562806 -0.205468
v 0.263314 -0.545323 -0.218417
v 0.263314 -0.521270 -0.224125
v 0.275054 -0.499834 -0.220412
v 0.294051 -0.489202 -0.208697
v 0.313047 -0.493436 -0.193454
v 0.324787 -0.510918 -0.180505
v 0.324787 -0.534972 -0.174797
v 0.313047 -0.556408 -0.178509
v 0.294051 -0.552292 -0.167589
v 0.274729 -0.537001 -0.165581
v 0.262788 -0.518318 -0.176513
v 0.262788 -0.503380 -0.196211
v 0.274729 -0.497892 -0.217150
v 0.294051 -0.503950 -0.231332
v 0.313372 -0.519241 -0.233341
v 0.325313 -0.537924 -0.222408
v 0.325313 -0.552862 -0.202711
v 0.313372 -0.558350 -0.181772
v 0.132469 -0.737966 -0.308401
v 0.113148 -0.722675 -0.306393
v 0.101207 -0.703993 -0.317325
v 0.101207 -0.689055 -0.337023
v 0.113148 -0.683567 -0.357962
v 0.132469 -0.689625 -0.372144
v 0.151790 -0.704916 -0.374152
v 0.163731 -0.723598 -0.363220
v 0.163731 -0.738537 -0.343522
v 0.151790 -0.744025 -0.322583
v -0.149939 -0.469688 -0.090681
v -0.169760 -0.478207 -0.078610
v -0.182010 -0.477343 -0.057155
v -0.182010 -0.467426 -0.034510
v -0.169760 -0.452243 -0.019325
v -0.149939 -0.437595 -0.017401
v -0.130119 -0.429075 -0.029472
v -0.117869 -0.429939 -0.050927
v -0.117869 -0.439857 -0.073572
v -0.130119 -0.455039 -0.088757
v -0.257491 -0.315277 -0.158306
v -0.277312 -0.323796 -0.146235
v -0.289561 -0.322932 -0.124779
v -0.289561 -0.313015 -0.102135
v -0.277312 -0.297832 -0.086950
v -0.257491 -0.283184 -0.085025
v -0.237670 -0.274664 -0.097096
v -0.225420 -0.275529 -0.118552
v -0.225420 -0.285446 -0.141197
v -0.237670 -0.300628 -0.156381
v -0.257491 -0.336232 -0.136860
v -0.272633 -0.322333 -0.150596
v -0.281991 -0.299610 -0.153282
v -0.281991 -0.276742 -0.143891
v -0.272633 -0.262463 -0.126011
v -0.257491 -0.262228 -0.106471
v -0.242348 -0.276127 -0.092735
v -0.232990 -0.298851 -0.090050
v -0.232990 -0.321719 -0.099440
v -0.242348 -0.335998 -0.117320
v -0.120838 -0.292532 -0.243283
v -0.135980 -0.278633 -0.257019
v -0.145339 -0.255909 -0.259705
v -0.145339 -0.233041 -0.250315
v -0.135980 -0.218762 -0.232435
v -0.120838 -0.218528 -0.212895
v -0.105696 -0.232427 -0.199159
v -0.096337 -0.255150 -0.196473
v -0.096337 -0.278018 -0.205864
v -0.105696 -0.292297 -0.223743
v 0.179507 -0.486434 -0.086271
v 0.156160 -0.490214 -0.079077
v 0.141730 -0.494620 -0.059494
v 0.141730 -0.497969 -0.035000
v 0.156160 -0.498983 -0.014953
v 0.179507 -0.497274 -0.007009
v 0.202855 -0.493495 -0.014202
v 0.217285 -0.489089 -0.033786
v 0.217285 -0.485739 -0.058279
v 0.202855 -0.484725 -0.078327
v 0.120619 0.005359 -0.019012
v 0.097272 0.001580 -0.011819
v 0.082842 -0.002826 0.007765
v 0.082842 -0.006176 0.032258
v 0.097272 -0.007190 0.052306
v 0.120619 -0.005481 0.060250
v 0.143967 -0.001701 0.053057
v 0.158397 0.002705 0.033473
v 0.158397 0.006055 0.008980
v 0.143967 0.007068 -0.011068
v -0.149939 -0.450335 -0.093904
v -0.173390 -0.449282 -0.086151
v -0.187883 -0.449894 -0.066133
v -0.187883 -0.451937 -0.041496
v -0.173390 -0.454631 -0.021651
v -0.149939 -0.456947 -0.014178
v -0.126489 -0.458000 -0.021931
v -0.111995 -0.457388 -0.041949
v -0.111995 -0.455345 -0.066585
v -0.126489 -0.452651 -0.086431
v -0.118083 -0.009857 -0.057374
v -0.141533 -0.008804 -0.049621
v -0.156027 -0.009416 -0.029603
v -0.156027 -0.011459 -0.004966
v -0.141533 -0.014153 0.014879
v -0.118083 -0.016469 0.022352
v -0.094632 -0.017522 0.014599
v -0.080139 -0.016910 -0.005418
v -0.080139 -0.014867 -0.030055
v -0.094632 -0.012173 -0.049900
v 0.126929 -0.000061 -0.018880
v 0.126980 -0.023538 -0.011136
v 0.124602 -0.038047 0.008738
v 0.120703 -0.038047 0.033150
v 0.116771 -0.023538 0.052775
v 0.114310 -0.000061 0.060118
v 0.114258 0.023416 0.052374
v 0.116636 0.037926 0.032500
v 0.120536 0.037926 0.008088
v 0.124467 0.023416 -0.011537
v -0.111773 -0.013163 -0.057010
v -0.111722 -0.036640 -0.049266
v -0.114100 -0.051149 -0.029392
v -0.117999 -0.051149 -0.004980
v -0.121931 -0.036640 0.014645
v -0.124392 -0.013163 0.021988
v -0.124444 0.010314 0.014244
v -0.122066 0.024824 -0.005630
v -0.118166 0.024824 -0.030042
v -0.114235 0.010314 -0.049667
v 0.120619 -0.022984 -0.012161
v 0.097160 -0.017329 -0.006793
v 0.082661 -0.005079 0.009045
v 0.082661 0.009089 0.029304
v 0.097160 0.019761 0.046246
v 0.120619 0.022862 0.053399
v 0.144079 0.017208 0.048031
v 0.158578 0.004957 0.032193
v 0.158578 -0.009210 0.011934
v 0.144079 -0.019883 -0.005008
v 0.132002 0.117472 -0.110383
v 0.108542 0.123127 -0.105016
v 0.094043 0.135378 -0.089177
v 0.094043 0.149545 -0.068918
v 0.108542 0.160218 -0.051976
v 0.132002 0.163319 -0.044823
v 0.155462 0.157664 -0.050191
v 0.169961 0.145413 -0.066029
v 0.169961 0.131246 -0.086288
v 0.155462 0.120573 -0.103230
v 0.132002 0.161657 -0.111484
v 0.108541 0.158907 -0.104191
v 0.094042 0.149086 -0.086743
v 0.094042 0.135945 -0.065803
v 0.108541 0.124505 -0.049370
v 0.132002 0.119134 -0.043722
v 0.155462 0.121884 -0.051015
v 0.169962 0.131705 -0.068464
v 0.169962 0.144846 -0.089403
v 0.155462 0.156286 -0.105836
v 0.153287 0.435084 0.060100
v 0.129826 0.432333 0.067393
v 0.115327 0.422512 0.084842
v 0.115327 0.409372 0.105782
v 0.129826 0.397931 0.122214
v 0.153287 0.392560 0.127863
v 0.176747 0.395311 0.120570
v 0.191247 0.405132 0.103121
v 0.191247 0.418272 0.082181
v 0.176747 0.429713 0.065749
v -0.118083 -0.052909 -0.022012
v -0.141222 -0.044849 -0.025292
v -0.155523 -0.024686 -0.025600
v -0.155523 -0.000122 -0.022818
v -0.141222 0.019461 -0.018009
v -0.118083 0.026583 -0.013009
v -0.094944 0.018523 -0.009729
v -0.080643 -0.001639 -0.009422
v -0.080643 -0.026204 -0.012204
v -0.094944 -0.045787 -0.017013
v -0.087458 -0.033767 -0.191026
v -0.110598 -0.025707 -0.194306
v -0.124899 -0.005545 -0.194614
v -0.124899 0.019020 -0.191832
v -0.110598 0.038603 -0.187023
v -0.087458 0.045725 -0.182024
v -0.064319 0.037665 -0.178744
v -0.050018 0.017503 -0.178436
v -0.050018 -0.007062 -0.181218
v -0.064319 -0.026645 -0.186027
v -0.087458 0.005652 -0.226524
v -0.110966 0.005308 -0.218881
v -0.125495 0.005220 -0.198880
v -0.125495 0.005423 -0.174159
v -0.110966 0.005837 -0.154162
v -0.087458 0.006306 -0.146526
v -0.063950 0.006650 -0.154169
v -0.049422 0.006738 -0.174170
v -0.049422 0.006535 -0.198891
v -0.063950 0.006121 -0.218888
v -0.092094 0.273839 -0.228716
v -0.115602 0.273496 -0.221074
v -0.130131 0.273408 -0.201072
v -0.130131 0.273610 -0.176352
v -0.115602 0.274025 -0.156354
v -0.092094 0.274493 -0.148719
v -0.068587 0.274837 -0.156361
v -0.054058 0.274925 -0.176362
v -0.054058 0.274723 -0.201083
v -0.068587 0.274308 -0.221080
v -0.069383 0.017664 -0.005404
v -0.077691 0.013710 -0.004270
v -0.082826 0.006297 -0.006421
v -0.082826 -0.001743 -0.011035
v -0.077691 -0.007340 -0.016350
v -0.069383 -0.008356 -0.020336
v -0.061075 -0.004402 -0.021470
v -0.055940 0.003011 -0.019319
v -0.055940 0.011051 -0.014705
v -0.061075 0.016649 -0.009390
v -0.065225 0.011839 0.004747
v -0.073533 0.007885 0.005882
v -0.078667 0.000472 0.003731
v -0.078667 -0.007569 -0.000883
v -0.073533 -0.013166 -0.006198
v -0.065225 -0.014182 -0.010184
v -0.056917 -0.010228 -0.011318
v -0.051782 -0.002815 -0.009168
v -0.051782 0.005226 -0.004554
v -0.056917 0.010823 0.000762
v -0.065225 0.013144 0.001762
v -0.071447 0.008544 0.006867
v -0.075293 0.000234 0.008311
v -0.075293 -0.008614 0.005542
v -0.071447 -0.014618 -0.000382
v -0.065225 -0.015487 -0.007198
v -0.059002 -0.010887 -0.012304
v -0.055156 -0.002577 -0.013748
v -0.055156 0.006271 -0.010979
v -0.059002 0.012276 -0.005055
v -0.049328 0.008414 0.016875
v -0.055551 0.003814 0.021981
v -0.059397 -0.004496 0.023425
v -0.059397 -0.013344 0.020656
v -0.055551 -0.019348 0.014732
v -0.049328 -0.020217 0.007915
v -0.043106 -0.015617 0.002810
v -0.039260 -0.007306 0.001366
v -0.039260 0.001541 0.004135
v -0.043106 0.007546 0.010059
v -0.049328 0.009019 0.010855
v -0.055076 0.006856 0.017800
v -0.058629 -0.000180 0.022680
v -0.058629 -0.009402 0.023632
v -0.055076 -0.017286 0.020291
v -0.049328 -0.020822 0.013935
v -0.043581 -0.018659 0.006991
v -0.040028 -0.011623 0.002111
v -0.040028 -0.002401 0.001159
v -0.043581 0.005483 0.004499
v -0.036309 0.010169 0.021990
v -0.042057 0.008005 0.028934
v -0.045609 0.000969 0.033814
v -0.045609 -0.008252 0.034766
v -0.042057 -0.016137 0.031426
v -0.036309 -0.019673 0.025070
v -0.030561 -0.017510 0.018125
v -0.027008 -0.010473 0.013245
v -0.027008 -0.001252 0.012294
v -0.030561 0.006633 0.015634
v -0.036309 0.009202 0.018028
v -0.043992 0.008124 0.023103
v -0.048740 0.002127 0.028341
v -0.048740 -0.006497 0.031741
v -0.043992 -0.014455 0.032005
v -0.036309 -0.018707 0.029032
v -0.028626 -0.017628 0.023957
v -0.023878 -0.011631 0.018719
v -0.023878 -0.003007 0.015319
v -0.028626 0.004951 0.015055
v -0.024602 0.016830 0.037373
v -0.032285 0.015751 0.042448
v -0.037033 0.009754 0.047685
v -0.037033 0.001130 0.051086
v -0.032285 -0.006828 0.051350
v -0.024602 -0.011079 0.048377
v -0.016919 -0.010001 0.043302
v -0.012171 -0.004004 0.038064
v -0.012171 0.004620 0.034664
v -0.016919 0.012578 0.034400
v -0.074999 0.004654 0.001039
v -0.074825 -0.004109 -0.001980
v -0.072573 -0.009525 -0.009159
v -0.069102 -0.009525 -0.017755
v -0.065738 -0.004109 -0.024486
v -0.063767 0.004654 -0.026779
v -0.063941 0.013417 -0.023760
v -0.066193 0.018833 -0.016581
v -0.069664 0.018833 -0.007985
v -0.073027 0.013417 -0.001254
v -0.011219 -0.002954 0.026790
v -0.011046 -0.011717 0.023771
v -0.008793 -0.017133 0.016592
v -0.005322 -0.017133 0.007996
v -0.001959 -0.011717 0.001265
v 0.000012 -0.002954 -0.001028
v -0.000161 0.005810 0.001991
v -0.002414 0.011226 0.009170
v -0.005885 0.011226 0.017766
v -0.009248 0.005810 0.024496
v -0.005865 -0.002954 0.027879
v -0.005164 -0.011746 0.025026
v -0.004631 -0.017181 0.017534
v -0.004469 -0.017181 0.008265
v -0.004741 -0.011746 0.000759
v -0.005342 -0.002954 -0.002117
v -0.006043 0.005839 0.000736
v -0.006576 0.011273 0.008228
v -0.006738 0.011273 0.017497
v -0.006466 0.005839 0.025003
v 0.015526 -0.001369 0.028252
v 0.016227 -0.010162 0.025399
v 0.016760 -0.015596 0.017907
v 0.016922 -0.015596 0.008638
v 0.016650 -0.010162 0.001132
v 0.016049 -0.001369 -0.001744
v 0.015348 0.007424 0.001109
v 0.014815 0.012858 0.008601
v 0.014653 0.012858 0.017870
v 0.014925 0.007424 0.025376
v 0.011969 -0.001369 0.027760
v 0.011748 -0.010131 0.024739
v 0.013071 -0.015546 0.017332
v 0.015431 -0.015546 0.008367
v 0.017927 -0.010131 0.001269
v 0.019606 -0.001369 -0.001252
v 0.019827 0.007393 0.001769
v 0.018504 0.012808 0.009176
v 0.016144 0.012808 0.018141
v 0.013648 0.007393 0.025239
v 0.034615 -0.003993 0.033722
v 0.034395 -0.012755 0.030701
v 0.035718 -0.018170 0.023294
v 0.038078 -0.018170 0.014329
v 0.040574 -0.012755 0.007231
v 0.042253 -0.003993 0.004710
v 0.042473 0.004769 0.007731
v 0.041151 0.010184 0.015138
v 0.038791 0.010184 0.024103
v 0.036294 0.004769 0.031201
v 0.039790 -0.003993 0.034155
v 0.038862 -0.012784 0.031362
v 0.037770 -0.018218 0.023931
v 0.036933 -0.018218 0.014698
v 0.036669 -0.012784 0.007191
v 0.037079 -0.003993 0.004277
v 0.038007 0.004798 0.007070
v 0.039098 0.010231 0.014502
v 0.039936 0.010231 0.023734
v 0.040200 0.004798 0.031241
v 0.068969 -0.006232 0.031507
v 0.068041 -0.015024 0.028715
v 0.066950 -0.020457 0.021283
v 0.066112 -0.020457 0.012051
v 0.065848 -0.015024 0.004544
v 0.066258 -0.006232 0.001630
v 0.067186 0.002559 0.004422
v 0.068277 0.007992 0.011854
v 0.069115 0.007992 0.021087
v 0.069379 0.002559 0.028593
v -0.073264 0.004654 0.001619
v -0.073101 -0.004142 -0.001303
v -0.071518 -0.009579 -0.008643
v -0.069119 -0.009579 -0.017598
v -0.066821 -0.004142 -0.024747
v -0.065501 0.004654 -0.027359
v -0.065665 0.013451 -0.024437
v -0.067248 0.018887 -0.017097
v -0.069647 0.018887 -0.008142
v -0.071945 0.013451 -0.000993
v -0.002305 -0.000344 0.020629
v -0.002142 -0.009141 0.017707
v -0.000558 -0.014577 0.010366
v 0.001841 -0.014577 0.001412
v 0.004139 -0.009141 -0.005737
v 0.005458 -0.000344 -0.008350
v 0.005295 0.008452 -0.005428
v 0.003711 0.013889 0.001913
v 0.001312 0.013889 0.010867
v -0.000986 0.008452 0.018016
v 0.000718 -0.000344 0.021115
v -0.000386 -0.009069 0.018182
v -0.000741 -0.014461 0.010649
v -0.000210 -0.014461 0.001394
v 0.001003 -0.009069 -0.006049
v 0.002435 -0.000344 -0.008836
v 0.003539 0.008381 -0.005903
v 0.003894 0.013773 0.001630
v 0.003363 0.013773 0.010885
v 0.002150 0.008381 0.018328
v 0.027351 -0.004229 0.022642
v 0.026246 -0.012953 0.019709
v 0.025892 -0.018345 0.012176
v 0.026422 -0.018345 0.002921
v 0.027635 -0.012953 -0.004522
v 0.029068 -0.004229 -0.007309
v 0.030172 0.004496 -0.004376
v 0.030527 0.009888 0.003156
v 0.029996 0.009888 0.012412
v 0.028783 0.004496 0.019855
v 0.024915 -0.004229 0.022300
v 0.023564 -0.012809 0.019060
v 0.023988 -0.018111 0.011467
v 0.026024 -0.018111 0.002423
v 0.028894 -0.012809 -0.004618
v 0.031503 -0.004229 -0.006967
v 0.032854 0.004352 -0.003727
v 0.032430 0.009654 0.003865
v 0.030395 0.009654 0.012910
v 0.027524 0.004352 0.019951
v 0.049393 -0.010163 0.027810
v 0.048042 -0.018743 0.024570
v 0.048466 -0.024046 0.016977
v 0.050502 -0.024046 0.007933
v 0.053372 -0.018743 0.000892
v 0.055981 -0.010163 -0.001458
v 0.057332 -0.001583 0.001783
v 0.056908 0.003720 0.009375
v 0.054873 0.003720 0.018420
v 0.052002 -0.001583 0.025461
v 0.048220 -0.010163 0.027496
v 0.047682 -0.018858 0.024327
v 0.049055 -0.024232 0.016899
v 0.051815 -0.024232 0.008049
v 0.054909 -0.018858 0.001157
v 0.057154 -0.010163 -0.001143
v 0.057692 -0.001468 0.002026
v 0.056319 0.003907 0.009454
v 0.053559 0.003907 0.018304
v 0.050465 -0.001468 0.025195
v 0.082961 -0.016265 0.038332
v 0.082422 -0.024960 0.035163
v 0.083795 -0.030334 0.027735
v 0.086555 -0.030334 0.018885
v 0.089649 -0.024960 0.011994
v 0.091894 -0.016265 0.009693
v 0.092433 -0.007569 0.012862
v 0.091059 -0.002195 0.020290
v 0.088299 -0.002195 0.029140
v 0.085205 -0.007569 0.036032
v -0.070167 0.004654 0.002109
v -0.070487 -0.004150 -0.000776
v -0.070386 -0.009591 -0.008281
v -0.069902 -0.009591 -0.017539
v -0.069219 -0.004150 -0.025013
v -0.068599 0.004654 -0.027850
v -0.068278 0.013458 -0.024964
v -0.068379 0.018900 -0.017459
v -0.068864 0.018900 -0.008201
v -0.069546 0.013458 -0.000727
v 0.004289 0.000663 0.006005
v 0.003968 -0.008141 0.003119
v 0.004069 -0.013582 -0.004386
v 0.004554 -0.013582 -0.013644
v 0.005236 -0.008141 -0.021118
v 0.005857 0.000663 -0.023954
v 0.006178 0.009468 -0.021069
v 0.006077 0.014909 -0.013564
v 0.005592 0.014909 -0.004306
v 0.004910 0.009468 0.003168
v 0.003896 0.000663 0.005979
v 0.002399 -0.007983 0.002987
v 0.001923 -0.013326 -0.004573
v 0.002650 -0.013326 -0.013815
v 0.004303 -0.007983 -0.021208
v 0.006250 0.000663 -0.023929
v 0.007747 0.009309 -0.020937
v 0.008223 0.014653 -0.013377
v 0.007496 0.014653 -0.004135
v 0.005843 0.009309 0.003259
v 0.022657 -0.003097 0.007455
v 0.021160 -0.011742 0.004464
v 0.020684 -0.017086 -0.003097
v 0.021412 -0.017086 -0.012339
v 0.023064 -0.011742 -0.019732
v 0.025011 -0.003097 -0.022452
v 0.026508 0.005549 -0.019461
v 0.026984 0.010893 -0.011900
v 0.026257 0.010893 -0.002658
v 0.024604 0.005549 0.004735
v 0.018715 -0.003097 0.006601
v 0.018978 -0.011880 0.003649
v 0.021096 -0.017309 -0.003561
v 0.024260 -0.017309 -0.012275
v 0.027261 -0.011880 -0.019165
v 0.028954 -0.003097 -0.021598
v 0.028691 0.005687 -0.018646
v 0.026573 0.011116 -0.011435
v 0.023409 0.011116 -0.002722
v 0.020407 0.005687 0.004168
v 0.040149 -0.005071 0.014384
v 0.040412 -0.013855 0.011431
v 0.042530 -0.019283 0.004221
v 0.045694 -0.019283 -0.004493
v 0.048695 -0.013855 -0.011382
v 0.050388 -0.005071 -0.013815
v 0.050125 0.003713 -0.010863
v 0.048007 0.009142 -0.003653
v 0.044843 0.009142 0.005061
v 0.041841 0.003713 0.011950
v 0.040431 -0.005071 0.014483
v 0.039421 -0.013647 0.011112
v 0.040644 -0.018948 0.003606
v 0.043633 -0.018948 -0.005170
v 0.047247 -0.013647 -0.011862
v 0.050105 -0.005071 -0.013914
v 0.051116 0.003506 -0.010544
v 0.049893 0.008807 -0.003037
v 0.046904 0.008807 0.005738
v 0.043290 0.003506 0.012430
v 0.067559 -0.011899 0.023724
v 0.066548 -0.020476 0.020354
v 0.067771 -0.025777 0.012847
v 0.070761 -0.025777 0.004072
v 0.074375 -0.020476 -0.002620
v 0.077233 -0.011899 -0.004673
v 0.078244 -0.003323 -0.001302
v 0.077021 0.001978 0.006204
v 0.074031 0.001978 0.014980
v 0.070417 -0.003323 0.021672
v -0.068000 0.004654 0.002066
v -0.069172 -0.004115 -0.000702
v -0.070425 -0.009535 -0.008118
v -0.071280 -0.009535 -0.017349
v -0.071410 -0.004115 -0.024869
v -0.070766 0.004654 -0.027806
v -0.069594 0.013424 -0.025038
v -0.068341 0.018843 -0.017622
v -0.067486 0.018843 -0.008391
v -0.067356 0.013424 -0.000871
v -0.000187 -0.002429 -0.004215
v -0.001359 -0.011199 -0.006983
v -0.002612 -0.016619 -0.014399
v -0.003467 -0.016619 -0.023630
v -0.003597 -0.011199 -0.031150
v -0.002953 -0.002429 -0.034087
v -0.001781 0.006340 -0.031318
v -0.000528 0.011760 -0.023902
v 0.000327 0.011760 -0.014671
v 0.000457 0.006340 -0.007151
v -0.002197 -0.002429 -0.004164
v -0.001296 -0.011211 -0.006993
v -0.000500 -0.016639 -0.014467
v -0.000113 -0.016639 -0.023729
v -0.000282 -0.011211 -0.031243
v -0.000943 -0.002429 -0.034138
v -0.001844 0.006353 -0.031308
v -0.002640 0.011780 -0.023835
v -0.003027 0.011780 -0.014572
v -0.002858 0.006353 -0.007059
v 0.012185 -0.001148 -0.003562
v 0.013086 -0.009930 -0.006392
v 0.013882 -0.015358 -0.013865
v 0.014269 -0.015358 -0.023128
v 0.014100 -0.009930 -0.030641
v 0.013438 -0.001148 -0.033536
v 0.012538 0.007634 -0.030707
v 0.011742 0.013061 -0.023233
v 0.011355 0.013061 -0.013971
v 0.011524 0.007634 -0.006457
v 0.010626 -0.001148 -0.003709
v 0.010353 -0.009937 -0.006645
v 0.011018 -0.015369 -0.014128
v 0.012369 -0.015369 -0.023300
v 0.013889 -0.009937 -0.030657
v 0.014997 -0.001148 -0.033389
v 0.015271 0.007641 -0.030453
v 0.014605 0.013073 -0.022971
v 0.013254 0.013073 -0.013799
v 0.011735 0.007641 -0.006442
v 0.029141 -0.002635 -0.000983
v 0.028868 -0.011424 -0.003919
v 0.029533 -0.016856 -0.011402
v 0.030884 -0.016856 -0.020573
v 0.032404 -0.011424 -0.027930
v 0.033512 -0.002635 -0.030663
v 0.033786 0.006154 -0.027727
v 0.033120 0.011586 -0.020244
v 0.031769 0.011586 -0.011072
v 0.030250 0.006154 -0.003715
v 0.028762 -0.002635 -0.001044
v 0.026591 -0.011029 -0.004328
v 0.026230 -0.016216 -0.012003
v 0.027815 -0.016216 -0.021137
v 0.030742 -0.011029 -0.028241
v 0.033892 -0.002635 -0.030602
v 0.036062 0.005758 -0.027318
v 0.036424 0.010945 -0.019643
v 0.034838 0.010945 -0.010509
v 0.031912 0.005758 -0.003405
v 0.051060 -0.009916 0.002826
v 0.048890 -0.018309 -0.000458
v 0.048528 -0.023496 -0.008133
v 0.050114 -0.023496 -0.017267
v 0.053040 -0.018309 -0.024371
v 0.056190 -0.009916 -0.026732
v 0.058361 -0.001522 -0.023447
v 0.058722 0.003665 -0.015773
v 0.057137 0.003665 -0.006639
v 0.054210 -0.001522 0.000466
v 0.038994 0.091203 -0.008857
v 0.031369 0.090388 -0.014067
v 0.026657 0.084651 -0.019619
v 0.026657 0.076183 -0.023392
v 0.031369 0.068219 -0.023945
v 0.038994 0.063800 -0.021066
v 0.046619 0.064615 -0.015856
v 0.051331 0.070352 -0.010305
v 0.051331 0.078821 -0.006532
v 0.046619 0.086785 -0.005979
v 0.024227 0.080853 0.014373
v 0.016602 0.080038 0.009164
v 0.011890 0.074301 0.003612
v 0.011890 0.065833 -0.000161
v 0.016602 0.057869 -0.000714
v 0.024227 0.053450 0.002165
v 0.031851 0.054265 0.007374
v 0.036564 0.060002 0.012926
v 0.036564 0.068471 0.016699
v 0.031851 0.076435 0.017252
v 0.024227 0.077825 0.018809
v 0.018742 0.080637 0.011884
v 0.015352 0.078298 0.003578
v 0.015352 0.071702 -0.002936
v 0.018742 0.063368 -0.005170
v 0.024227 0.056479 -0.002271
v 0.029711 0.053667 0.004654
v 0.033101 0.056005 0.012960
v 0.033101 0.062602 0.019474
v 0.029711 0.070936 0.021708
v 0.001168 0.064952 0.031844
v -0.004316 0.067764 0.024919
v -0.007706 0.065426 0.016614
v -0.007706 0.058829 0.010100
v -0.004316 0.050495 0.007865
v 0.001168 0.043606 0.010764
v 0.006653 0.040794 0.017689
v 0.010043 0.043133 0.025995
v 0.010043 0.049729 0.032509
v 0.006653 0.058063 0.034743
v -0.003864 0.054279 0.007174
v -0.001569 0.045577 0.009397
v 0.001772 0.040199 0.016169
v 0.004882 0.040199 0.024902
v 0.006574 0.045577 0.032261
v 0.006201 0.054279 0.035435
v 0.003906 0.062982 0.033211
v 0.000565 0.068360 0.026440
v -0.002545 0.068360 0.017706
v -0.004237 0.062982 0.010347
v -0.031990 0.049421 0.017190
v -0.029695 0.040718 0.019414
v -0.026355 0.035340 0.026185
v -0.023245 0.035340 0.034919
v -0.021553 0.040718 0.042278
v -0.021926 0.049421 0.045451
v -0.024221 0.058123 0.043228
v -0.027562 0.063501 0.036456
v -0.030672 0.063501 0.027723
v -0.032363 0.058123 0.020364
v -0.026958 0.064391 0.032258
v -0.033405 0.061908 0.026076
v -0.037389 0.054655 0.021897
v -0.037389 0.045403 0.021318
v -0.033405 0.037685 0.024559
v -0.026958 0.034450 0.030383
v -0.020512 0.036933 0.036565
v -0.016528 0.044187 0.040744
v -0.016528 0.053439 0.041323
v -0.020512 0.061157 0.038082
v -0.043702 0.063270 0.050168
v -0.050149 0.060787 0.043986
v -0.054133 0.053534 0.039808
v -0.054133 0.044281 0.039228
v -0.050149 0.036564 0.042470
v -0.043702 0.033329 0.048294
v -0.037256 0.035812 0.054476
v -0.033272 0.043065 0.058655
v -0.033272 0.052318 0.059234
v -0.037256 0.060035 0.055993
v 0.038994 0.084730 -0.001818
v 0.030893 0.086398 -0.006005
v 0.025886 0.084668 -0.013613
v 0.025886 0.080200 -0.021736
v 0.030893 0.074703 -0.027272
v 0.038994 0.070274 -0.028106
v 0.047095 0.068606 -0.023919
v 0.052102 0.070336 -0.016311
v 0.052102 0.074803 -0.008188
v 0.047095 0.080301 -0.002652
v 0.000528 0.006236 0.041347
v -0.007573 0.007904 0.037160
v -0.012580 0.006174 0.029552
v -0.012580 0.001707 0.021429
v -0.007573 -0.003791 0.015893
v 0.000528 -0.008220 0.015059
v 0.008630 -0.009888 0.019246
v 0.013637 -0.008158 0.026854
v 0.013637 -0.003691 0.034977
v 0.008630 0.001807 0.040513
v 0.002325 -0.000992 0.013311
v -0.001578 -0.009047 0.015726
v -0.004676 -0.014025 0.022906
v -0.005786 -0.014025 0.032110
v -0.004485 -0.009047 0.039822
v -0.001268 -0.000992 0.043095
v 0.002634 0.007063 0.040680
v 0.005732 0.012041 0.033500
v 0.006842 0.012041 0.024296
v 0.005541 0.007063 0.016585
v -0.021958 0.009894 0.010382
v -0.025860 0.001839 0.012796
v -0.028958 -0.003139 0.019977
v -0.030069 -0.003139 0.029181
v -0.028767 0.001839 0.036892
v -0.025551 0.009894 0.040166
v -0.021649 0.017949 0.037751
v -0.018550 0.022927 0.030570
v -0.017440 0.022927 0.021367
v -0.018742 0.017949 0.013655
v -0.023754 0.016021 0.011582
v -0.028848 0.008282 0.011257
v -0.031995 0.001158 0.016286
v -0.031995 -0.002628 0.024748
v -0.028848 -0.001631 0.033411
v -0.023754 0.003768 0.038965
v -0.018661 0.011507 0.039290
v -0.015513 0.018630 0.034261
v -0.015513 0.022417 0.025799
v -0.018661 0.021420 0.017136
v -0.044625 0.029503 0.017615
v -0.049718 0.021764 0.017290
v -0.052866 0.014640 0.022319
v -0.052866 0.010854 0.030781
v -0.049718 0.011851 0.039444
v -0.044625 0.017250 0.044998
v -0.039532 0.024989 0.045323
v -0.036384 0.032112 0.040294
v -0.036384 0.035899 0.031832
v -0.039532 0.034902 0.023169
v -0.044625 0.019979 0.016696
v -0.051231 0.014940 0.020809
v -0.055313 0.013123 0.028932
v -0.055313 0.015223 0.037961
v -0.051231 0.020437 0.044449
v -0.044625 0.026774 0.045917
v -0.038019 0.031813 0.041804
v -0.033937 0.033629 0.033681
v -0.033937 0.031530 0.024652
v -0.038019 0.026316 0.018164
v -0.063490 0.040764 0.011863
v -0.070096 0.035725 0.015976
v -0.074178 0.033908 0.024098
v -0.074178 0.036008 0.033128
v -0.070096 0.041222 0.039616
v -0.063490 0.047559 0.041084
v -0.056885 0.052598 0.036971
v -0.052802 0.054414 0.028848
v -0.052802 0.052315 0.019819
v -0.056885 0.047101 0.013331
v 0.038994 0.081505 -0.000506
v 0.030985 0.084293 -0.004251
v 0.026035 0.084486 -0.012086
v 0.026035 0.082012 -0.021021
v 0.030985 0.077815 -0.027641
v 0.038994 0.073498 -0.029418
v 0.047003 0.070711 -0.025673
v 0.051953 0.070517 -0.017837
v 0.051953 0.072991 -0.008903
v 0.047003 0.077188 -0.002283
v -0.000197 -0.000568 0.022223
v -0.008206 0.002220 0.018478
v -0.013156 0.002414 0.010643
v -0.013156 -0.000061 0.001708
v -0.008206 -0.004258 -0.004912
v -0.000197 -0.008574 -0.006689
v 0.007812 -0.011362 -0.002944
v 0.012762 -0.011556 0.004892
v 0.012762 -0.009081 0.013826
v 0.007812 -0.004884 0.020446
v -0.001264 -0.004571 -0.007195
v -0.002600 -0.013252 -0.004228
v -0.003017 -0.018617 0.003321
v -0.002358 -0.018617 0.012568
v -0.000873 -0.013252 0.019981
v 0.000870 -0.004571 0.022729
v 0.002205 0.004110 0.019762
v 0.002623 0.009475 0.012213
v 0.001964 0.009475 0.002966
v 0.000479 0.004110 -0.004447
v -0.031355 0.000792 -0.005049
v -0.032690 -0.007889 -0.002082
v -0.033108 -0.013254 0.005467
v -0.032449 -0.013254 0.014714
v -0.030964 -0.007889 0.022127
v -0.029221 0.000792 0.024875
v -0.027885 0.009472 0.021908
v -0.027468 0.014837 0.014359
v -0.028127 0.014837 0.005112
v -0.029612 0.009472 -0.002301
v -0.030288 0.002768 -0.004956
v -0.036541 -0.003771 -0.002935
v -0.040405 -0.008568 0.003993
v -0.040405 -0.009789 0.013183
v -0.036541 -0.006969 0.021124
v -0.030288 -0.001185 0.024782
v -0.024035 0.005355 0.022762
v -0.020171 0.010151 0.015833
v -0.020171 0.011372 0.006643
v -0.024035 0.008552 -0.001297
v -0.050870 0.023292 -0.002229
v -0.057123 0.016753 -0.000208
v -0.060987 0.011956 0.006721
v -0.060987 0.010735 0.015911
v -0.057123 0.013555 0.023851
v -0.050870 0.019339 0.027510
v -0.044617 0.025879 0.025489
v -0.040753 0.030675 0.018561
v -0.040753 0.031896 0.009371
v -0.044617 0.029076 0.001430
v -0.050870 0.022792 -0.002286
v -0.056624 0.015862 -0.000093
v -0.060180 0.011015 0.006964
v -0.060180 0.010103 0.016190
v -0.056624 0.013473 0.024060
v -0.050870 0.019839 0.027568
v -0.045116 0.026769 0.025375
v -0.041560 0.031616 0.018317
v -0.041560 0.032529 0.009092
v -0.045116 0.029158 0.001222
v -0.071566 0.040531 -0.000532
v -0.077320 0.033601 0.001661
v -0.080876 0.028754 0.008719
v -0.080876 0.027842 0.017944
v -0.077320 0.031212 0.025814
v -0.071566 0.037578 0.029322
v -0.065813 0.044508 0.027129
v -0.062256 0.049355 0.020072
v -0.062256 0.050268 0.010846
v -0.065813 0.046897 0.002976
v 0.038994 0.076730 0.000018
v 0.031126 0.080851 -0.002638
v 0.026263 0.083692 -0.010002
v 0.026263 0.084169 -0.019260
v 0.031126 0.082099 -0.026876
v 0.038994 0.078273 -0.029942
v 0.046862 0.074153 -0.027286
v 0.051725 0.071311 -0.019922
v 0.051725 0.070835 -0.010664
v 0.046862 0.072904 -0.003047
v -0.000976 -0.002212 -0.004047
v -0.008844 0.001908 -0.006703
v -0.013707 0.004750 -0.014067
v -0.013707 0.005226 -0.023325
v -0.008844 0.003156 -0.030942
v -0.000976 -0.000669 -0.034007
v 0.006892 -0.004790 -0.031351
v 0.011755 -0.007631 -0.023988
v 0.011755 -0.008108 -0.014729
v 0.006892 -0.006038 -0.007113
v -0.004823 -0.001441 -0.033526
v -0.006840 -0.009785 -0.030026
v -0.006617 -0.014943 -0.022326
v -0.004240 -0.014943 -0.013366
v -0.000615 -0.009785 -0.006568
v 0.002871 -0.001441 -0.004529
v 0.004888 0.006904 -0.008028
v 0.004665 0.012061 -0.015729
v 0.002288 0.012061 -0.024689
v -0.001337 0.006904 -0.031487
v -0.032320 0.008265 -0.026229
v -0.034337 -0.000079 -0.022730
v -0.034114 -0.005236 -0.015030
v -0.031736 -0.005236 -0.006069
v -0.028112 -0.000079 0.000728
v -0.024625 0.008265 0.002767
v -0.022608 0.016610 -0.000732
v -0.022831 0.021767 -0.008432
v -0.025209 0.021767 -0.017393
v -0.028833 0.016610 -0.024191
v -0.028472 0.015417 -0.024916
v -0.034104 0.008089 -0.025633
v -0.037585 0.000827 -0.021039
v -0.037585 -0.003593 -0.012890
v -0.034104 -0.003484 -0.004299
v -0.028472 0.001113 0.001454
v -0.022841 0.008442 0.002170
v -0.019360 0.015703 -0.002423
v -0.019360 0.020124 -0.010572
v -0.022841 0.020014 -0.019164
v -0.048815 0.030263 -0.016863
v -0.054447 0.022934 -0.017580
v -0.057928 0.015672 -0.012986
v -0.057928 0.011252 -0.004838
v -0.054447 0.011361 0.003754
v -0.048815 0.015958 0.009507
v -0.043184 0.023287 0.010223
v -0.039703 0.030549 0.005630
v -0.039703 0.034969 -0.002519
v -0.043184 0.034860 -0.011111
v -0.048815 0.029404 -0.017294
v -0.054878 0.022391 -0.017380
v -0.058624 0.015653 -0.012232
v -0.058624 0.011763 -0.003817
v -0.054878 0.012208 0.004651
v -0.048815 0.016817 0.009938
v -0.042753 0.023830 0.010023
v -0.039006 0.030569 0.004875
v -0.039006 0.034458 -0.003540
v -0.042753 0.034013 -0.012008
v -0.068714 0.046508 -0.009389
v -0.074776 0.039495 -0.009474
v -0.078523 0.032757 -0.004326
v -0.078523 0.028867 0.004089
v -0.074776 0.029312 0.012557
v -0.068714 0.033921 0.017843
v -0.062652 0.040934 0.017929
v -0.058905 0.047673 0.012781
v -0.058905 0.051562 0.004366
v -0.062652 0.051117 -0.004102
v 0.038994 0.072745 -0.000736
v 0.031534 0.078111 -0.001963
v 0.026924 0.083244 -0.008154
v 0.026924 0.086184 -0.016947
v 0.031534 0.085807 -0.024981
v 0.038994 0.082258 -0.029188
v 0.046454 0.076892 -0.027961
v 0.051064 0.071759 -0.021769
v 0.051064 0.068820 -0.012977
v 0.046454 0.069196 -0.004943
v -0.002536 0.010231 -0.021638
v -0.009996 0.015597 -0.022864
v -0.014606 0.020730 -0.029056
v -0.014606 0.023669 -0.037848
v -0.009996 0.023293 -0.045882
v -0.002536 0.019744 -0.050090
v 0.004923 0.014378 -0.048863
v 0.009534 0.009245 -0.042671
v 0.009534 0.006305 -0.033879
v 0.004923 0.006682 -0.025845
v -0.006535 0.014987 -0.050321
v -0.008735 0.006724 -0.046740
v -0.008568 0.001617 -0.039005
v -0.006097 0.001617 -0.030070
v -0.002266 0.006724 -0.023348
v 0.001462 0.014987 -0.021406
v 0.003662 0.023250 -0.024987
v 0.003495 0.028357 -0.032722
v 0.001024 0.028357 -0.041658
v -0.002807 0.023250 -0.048380
v -0.028174 0.023343 -0.044336
v -0.030374 0.015080 -0.040756
v -0.030207 0.009973 -0.033020
v -0.027736 0.009973 -0.024085
v -0.023905 0.015080 -0.017363
v -0.020177 0.023343 -0.015422
v -0.017977 0.031606 -0.019003
v -0.018144 0.036713 -0.026738
v -0.020615 0.036713 -0.035673
v -0.024446 0.031606 -0.042395
v -0.024176 0.035862 -0.038142
v -0.028683 0.029297 -0.042888
v -0.031468 0.020457 -0.042666
v -0.031468 0.012720 -0.037559
v -0.028683 0.009041 -0.029518
v -0.024176 0.010824 -0.021616
v -0.019669 0.017390 -0.016870
v -0.016883 0.026229 -0.017093
v -0.016883 0.033966 -0.022199
v -0.019669 0.037646 -0.030240
v -0.046301 0.043111 -0.027160
v -0.050808 0.036546 -0.031906
v -0.053593 0.027706 -0.031683
v -0.053593 0.019969 -0.026576
v -0.050808 0.016290 -0.018536
v -0.046301 0.018073 -0.010634
v -0.041794 0.024639 -0.005887
v -0.039009 0.033478 -0.006110
v -0.039009 0.041215 -0.011217
v -0.041794 0.044894 -0.019257
v -0.046301 0.035958 -0.032904
v -0.052783 0.029352 -0.032367
v -0.056789 0.023220 -0.026684
v -0.056789 0.019904 -0.018027
v -0.052783 0.020670 -0.009702
v -0.046301 0.025226 -0.004889
v -0.039819 0.031832 -0.005427
v -0.035812 0.037964 -0.011109
v -0.035812 0.041280 -0.019766
v -0.039819 0.040514 -0.028091
v -0.058328 0.048140 -0.028238
v -0.064811 0.041535 -0.027700
v -0.068817 0.035403 -0.022018
v -0.068817 0.032086 -0.013361
v -0.064811 0.032853 -0.005036
v -0.058328 0.037409 -0.000223
v -0.051846 0.044015 -0.000760
v -0.047840 0.050147 -0.006443
v -0.047840 0.053463 -0.015100
v -0.051846 0.052696 -0.023425
f 1 2 13
f 2 14 13
f 2 3 14
f 3 15 14
f 3 4 15
f 4 16 15
f 4 5 16
f 5 17 16
f 5 6 17
f 6 18 17
f 6 7 18
f 7 19 18
f 7 8 19
f 8 20 19
f 8 9 20
f 9 21 20
f 9 10 21
f 10 22 21
f 10 11 22
f 11 23 22
f 11 12 23
f 12 24 23
f 13 14 25
f 14 26 25
f 14 15 26
f 15 27 26
f 15 16 27
f 16 28 27
f 16 17 28
f 17 29 28
f 17 18 29
f 18 30 29
f 18 19 30
f 19 31 30
f 19 20 31
f 20 32 31
f 20 21 32
f 21 33 32
f 21 22 33
f 22 34 33
f 22 23 34
f 23 35 34
f 23 24 35
f 24 36 35
f 25 26 37
f 26 38 37
f 26 27 38
f 27 39 38
f 27 28 39
f 28 40 39
f 28 29 40
f 29 41 40
f 29 30 41
f 30 42 41
f 30 31 42
f 31 43 42
f 31 32 43
f 32 44 43
f 32 33 44
f 33 45 44
f 33 34 45
f 34 46 45
f 34 35 46
f 35 47 46
f 35 36 47
f 36 48 47
f 37 38 49
f 38 50 49
f 38 39 50
f 39 51 50
f 39 40 51
f 40 52 51
f 40 41 52
f 41 53 52
f 41 42 53
f 42 54 53
f 42 43 54
f 43 55 54
f 43 44 55
f 44 56 55
f 44 45 56
f 45 57 56
f 45 46 57
f 46 58 57
f 46 47 58
f 47 59 58
f 47 48 59
f 48 60 59
f 49 50 61
f 50 62 61
f 50 51 62
f 51 63 62
f 51 52 63
f 52 64 63
f 52 53 64
f 53 65 64
f 53 54 65
f 54 66 65
f 54 55 66
f 55 67 66
f 55 56 67
f 56 68 67
f 56 57 68
f 57 69 68
f 57 58 69
f 58 70 69
f 58 59 70
f 59 71 70
f 59 60 71
f 60 72 71
f 61 62 73
f 62 74 73
f 62 63 74
f 63 75 74
f 63 64 75
f 64 76 75
f 64 65 76
f 65 77 76
f 65 66 77
f 66 78 77
f 66 67 78
f 67 79 78
f 67 68 79
f 68 80 79
f 68 69 80
f 69 81 80
f 69 70 81
f 70 82 81
f 70 71 82
f 71 83 82
f 71 72 83
f 72 84 83
f 73 74 85
f 74 86 85
f 74 75 86
f 75 87 86
f 75 76 87
f 76 88 87
f 76 77 88
f 77 89 88
f 77 78 89
f 78 90 89
f 78 79 90
f 79 91 90
f 79 80 91
f 80 92 91
f 80 81 92
f 81 93 92
f 81 82 93
f 82 94 93
f 82 83 94
f 83 95 94
f 83 84 95
f 84 96 95
f 85 86 97
f 86 98 97
f 86 87 98
f 87 99 98
f 87 88 99
f 88 100 99
f 88 89 100
f 89 101 100
f 89 90 101
f 90 102 101
f 90 91 102
f 91 103 102
f 91 92 103
f 92 104 103
f 92 93 104
f 93 105 104
f 93 94 105
f 94 106 105
f 94 95 106
f 95 107 106
f 95 96 107
f 96 108 107
f 97 98 109
f 98 110 109
f 98 99 110
f 99 111 110
f 99 100 111
f 100 112 111
f 100 101 112
f 101 113 112
f 101 102 113
f 102 114 113
f 102 103 114
f 103 115 114
f 103 104 115
f 104 116 115
f 104 105 116
f 105 117 116
f 105 106 117
f 106 118 117
f 106 107 118
f 107 119 118
f 107 108 119
f 108 120 119
f 109 110 121
f 110 122 121
f 110 111 122
f 111 123 122
f 111 112 123
f 112 124 123
f 112 113 124
f 113 125 124
f 113 114 125
f 114 126 125
f 114 115 126
f 115 127 126
f 115 116 127
f 116 128 127
f 116 117 128
f 117 129 128
f 117 118 129
f 118 130 129
f 118 119 130
f 119 131 130
f 119 120 131
f 120 132 131
f 121 122 133
f 122 134 133
f 122 123 134
f 123 135 134
f 123 124 135
f 124 136 135
f 124 125 136
f 125 137 136
f 125 126 137
f 126 138 137
f 126 127 138
f 127 139 138
f 127 128 139
f 128 140 139
f 128 129 140
f 129 141 140
f 129 130 141
f 130 142 141
f 130 131 142
f 131 143 142
f 131 132 143
f 132 144 143
f 145 146 155
f 146 156 155
f 146 147 156
f 147 157 156
f 147 148 157
f 148 158 157
f 148 149 158
f 149 159 158
f 149 150 159
f 150 160 159
f 150 151 160
f 151 161 160
f 151 152 161
f 152 162 161
f 152 153 162
f 153 163 162
f 153 154 163
f 154 164 163
f 154 145 164
f 145 155 164
f 165 166 175
f 166 176 175
f 166 167 176
f 167 177 176
f 167 168 177
f 168 178 177
f 168 169 178
f 169 179 178
f 169 170 179
f 170 180 179
f 170 171 180
f 171 181 180
f 171 172 181
f 172 182 181
f 172 173 182
f 173 183 182
f 173 174 183
f 174 184 183
f 174 165 184
f 165 175 184
f 185 186 195
f 186 196 195
f 186 187 196
f 187 197 196
f 187 188 197
f 188 198 197
f 188 189 198
f 189 199 198
f 189 190 199
f 190 200 199
f 190 191 200
f 191 201 200
f 191 192 201
f 192 202 201
f 192 193 202
f 193 203 202
f 193 194 203
f 194 204 203
f 194 185 204
f 185 195 204
f 205 206 215
f 206 216 215
f 206 207 216
f 207 217 216
f 207 208 217
f 208 218 217
f 208 209 218
f 209 219 218
f 209 210 219
f 210 220 219
f 210 211 220
f 211 221 220
f 211 212 221
f 212 222 221
f 212 213 222
f 213 223 222
f 213 214 223
f 214 224 223
f 214 205 224
f 205 215 224
f 225 226 235
f 226 236 235
f 226 227 236
f 227 237 236
f 227 228 237
f 228 238 237
f 228 229 238
f 229 239 238
f 229 230 239
f 230 240 239
f 230 231 240
f 231 241 240
f 231 232 241
f 232 242 241
f 232 233 242
f 233 243 242
f 233 234 243
f 234 244 243
f 234 225 244
f 225 235 244
f 245 246 255
f 246 256 255
f 246 247 256
f 247 257 256
f 247 248 257
f 248 258 257
f 248 249 258
f 249 259 258
f 249 250 259
f 250 260 259
f 250 251 260
f 251 261 260
f 251 252 261
f 252 262 261
f 252 253 262
f 253 263 262
f 253 254 263
f 254 264 263
f 254 245 264
f 245 255 264
f 265 266 275
f 266 276 275
f 266 267 276
f 267 277 276
f 267 268 277
f 268 278 277
f 268 269 278
f 269 279 278
f 269 270 279
f 270 280 279
f 270 271 280
f 271 281 280
f 271 272 281
f 272 282 281
f 272 273 282
f 273 283 282
f 273 274 283
f 274 284 283
f 274 265 284
f 265 275 284
f 285 286 295
f 286 296 295
f 286 287 296
f 287 297 296
f 287 288 297
f 288 298 297
f 288 289 298
f 289 299 298
f 289 290 299
f 290 300 299
f 290 291 300
f 291 301 300
f 291 292 301
f 292 302 301
f 292 293 302
f 293 303 302
f 293 294 303
f 294 304 303
f 294 285 304
f 285 295 304
f 305 306 315
f 306 316 315
f 306 307 316
f 307 317 316
f 307 308 317
f 308 318 317
f 308 309 318
f 309 319 318
f 309 310 319
f 310 320 319
f 310 311 320
f 311 321 320
f 311 312 321
f 312 322 321
f 312 313 322
f 313 323 322
f 313 314 323
f 314 324 323
f 314 305 324
f 305 315 324
f 325 326 335
f 326 336 335
f 326 327 336
f 327 337 336
f 327 328 337
f 328 338 337
f 328 329 338
f 329 339 338
f 329 330 339
f 330 340 339
f 330 331 340
f 331 341 340
f 331 332 341
f 332 342 341
f 332 333 342
f 333 343 342
f 333 334 343
f 334 344 343
f 334 325 344
f 325 335 344
f 345 346 355
f 346 356 355
f 346 347 356
f 347 357 356
f 347 348 357
f 348 358 357
f 348 349 358
f 349 359 358
f 349 350 359
f 350 360 359
f 350 351 360
f 351 361 360
f 351 352 361
f 352 362 361
f 352 353 362
f 353 363 362
f 353 354 363
f 354 364 363
f 354 345 364
f 345 355 364
f 365 366 375
f 366 376 375
f 366 367 376
f 367 377 376
f 367 368 377
f 368 378 377
f 368 369 378
f 369 379 378
f 369 370 379
f 370 380 379
f 370 371 380
f 371 381 380
f 371 372 381
f 372 382 381
f 372 373 382
f 373 383 382
f 373 374 383
f 374 384 383
f 374 365 384
f 365 375 384
f 385 386 395
f 386 396 395
f 386 387 396
f 387 397 396
f 387 388 397
f 388 398 397
f 388 389 398
f 389 399 398
f 389 390 399
f 390 400 399
f 390 391 400
f 391 401 400
f 391 392 401
f 392 402 401
f 392 393 402
f 393 403 402
f 393 394 403
f 394 404 403
f 394 385 404
f 385 395 404
f 405 406 415
f 406 416 415
f 406 407 416
f 407 417 416
f 407 408 417
f 408 418 417
f 408 409 418
f 409 419 418
f 409 410 419
f 410 420 419
f 410 411 420
f 411 421 420
f 411 412 421
f 412 422 421
f 412 413 422
f 413 423 422
f 413 414 423
f 414 424 423
f 414 405 424
f 405 415 424
f 425 426 435
f 426 436 435
f 426 427 436
f 427 437 436
f 427 428 437
f 428 438 437
f 428 429 438
f 429 439 438
f 429 430 439
f 430 440 439
f 430 431 440
f 431 441 440
f 431 432 441
f 432 442 441
f 432 433 442
f 433 443 442
f 433 434 443
f 434 444 443
f 434 425 444
f 425 435 444
f 445 446 455
f 446 456 455
f 446 447 456
f 447 457 456
f 447 448 457
f 448 458 457
f 448 449 458
f 449 459 458
f 449 450 459
f 450 460 459
f 450 451 460
f 451 461 460
f 451 452 461
f 452 462 461
f 452 453 462
f 453 463 462
f 453 454 463
f 454 464 463
f 454 445 464
f 445 455 464
f 465 466 475
f 466 476 475
f 466 467 476
f 467 477 476
f 467 468 477
f 468 478 477
f 468 469 478
f 469 479 478
f 469 470 479
f 470 480 479
f 470 471 480
f 471 481 480
f 471 472 481
f 472 482 481
f 472 473 482
f 473 483 482
f 473 474 483
f 474 484 483
f 474 465 484
f 465 475 484
f 485 486 495
f 486 496 495
f 486 487 496
f 487 497 496
f 487 488 497
f 488 498 497
f 488 489 498
f 489 499 498
f 489 490 499
f 490 500 499
f 490 491 500
f 491 501 500
f 491 492 501
f 492 502 501
f 492 493 502
f 493 503 502
f 493 494 503
f 494 504 503
f 494 485 504
f 485 495 504
f 505 506 515
f 506 516 515
f 506 507 516
f 507 517 516
f 507 508 517
f 508 518 517
f 508 509 518
f 509 519 518
f 509 510 519
f 510 520 519
f 510 511 520
f 511 521 520
f 511 512 521
f 512 522 521
f 512 513 522
f 513 523 522
f 513 514 523
f 514 524 523
f 514 505 524
f 505 515 524
f 525 526 535
f 526 536 535
f 526 527 536
f 527 537 536
f 527 528 537
f 528 538 537
f 528 529 538
f 529 539 538
f 529 530 539
f 530 540 539
f 530 531 540
f 531 541 540
f 531 532 541
f 532 542 541
f 532 533 542
f 533 543 542
f 533 534 543
f 534 544 543
f 534 525 544
f 525 535 544
f 545 546 555
f 546 556 555
f 546 547 556
f 547 557 556
f 547 548 557
f 548 558 557
f 548 549 558
f 549 559 558
f 549 550 559
f 550 560 559
f 550 551 560
f 551 561 560
f 551 552 561
f 552 562 561
f 552 553 562
f 553 563 562
f 553 554 563
f 554 564 563
f 554 545 564
f 545 555 564
f 565 566 575
f 566 576 575
f 566 567 576
f 567 577 576
f 567 568 577
f 568 578 577
f 568 569 578
f 569 579 578
f 569 570 579
f 570 580 579
f 570 571 580
f 571 581 580
f 571 572 581
f 572 582 581
f 572 573 582
f 573 583 582
f 573 574 583
f 574 584 583
f 574 565 584
f 565 575 584
f 585 586 595
f 586 596 595
f 586 587 596
f 587 597 596
f 587 588 597
f 588 598 597
f 588 589 598
f 589 599 598
f 589 590 599
f 590 600 599
f 590 591 600
f 591 601 600
f 591 592 601
f 592 602 601
f 592 593 602
f 593 603 602
f 593 594 603
f 594 604 603
f 594 585 604
f 585 595 604
f 605 606 615
f 606 616 615
f 606 607 616
f 607 617 616
f 607 608 617
f 608 618 617
f 608 609 618
f 609 619 618
f 609 610 619
f 610 620 619
f 610 611 620
f 611 621 620
f 611 612 621
f 612 622 621
f 612 613 622
f 613 623 622
f 613 614 623
f 614 624 623
f 614 605 624
f 605 615 624
f 625 626 635
f 626 636 635
f 626 627 636
f 627 637 636
f 627 628 637
f 628 638 637
f 628 629 638
f 629 639 638
f 629 630 639
f 630 640 639
f 630 631 640
f 631 641 640
f 631 632 641
f 632 642 641
f 632 633 642
f 633 643 642
f 633 634 643
f 634 644 643
f 634 625 644
f 625 635 644
f 645 646 655
f 646 656 655
f 646 647 656
f 647 657 656
f 647 648 657
f 648 658 657
f 648 649 658
f 649 659 658
f 649 650 659
f 650 660 659
f 650 651 660
f 651 661 660
f 651 652 661
f 652 662 661
f 652 653 662
f 653 663 662
f 653 654 663
f 654 664 663
f 654 645 664
f 645 655 664
f 665 666 675
f 666 676 675
f 666 667 676
f 667 677 676
f 667 668 677
f 668 678 677
f 668 669 678
f 669 679 678
f 669 670 679
f 670 680 679
f 670 671 680
f 671 681 680
f 671 672 681
f 672 682 681
f 672 673 682
f 673 683 682
f 673 674 683
f 674 684 683
f 674 665 684
f 665 675 684
f 685 686 695
f 686 696 695
f 686 687 696
f 687 697 696
f 687 688 697
f 688 698 697
f 688 689 698
f 689 699 698
f 689 690 699
f 690 700 699
f 690 691 700
f 691 701 700
f 691 692 701
f 692 702 701
f 692 693 702
f 693 703 702
f 693 694 703
f 694 704 703
f 694 685 704
f 685 695 704
f 705 706 715
f 706 716 715
f 706 707 716
f 707 717 716
f 707 708 717
f 708 718 717
f 708 709 718
f 709 719 718
f 709 710 719
f 710 720 719
f 710 711 720
f 711 721 720
f 711 712 721
f 712 722 721
f 712 713 722
f 713 723 722
f 713 714 723
f 714 724 723
f 714 705 724
f 705 715 724
f 725 726 735
f 726 736 735
f 726 727 736
f 727 737 736
f 727 728 737
f 728 738 737
f 728 729 738
f 729 739 738
f 729 730 739
f 730 740 739
f 730 731 740
f 731 741 740
f 731 732 741
f 732 742 741
f 732 733 742
f 733 743 742
f 733 734 743
f 734 744 743
f 734 725 744
f 725 735 744
f 745 746 755
f 746 756 755
f 746 747 756
f 747 757 756
f 747 748 757
f 748 758 757
f 748 749 758
f 749 759 758
f 749 750 759
f 750 760 759
f 750 751 760
f 751 761 760
f 751 752 761
f 752 762 761
f 752 753 762
f 753 763 762
f 753 754 763
f 754 764 763
f 754 745 764
f 745 755 764
f 765 766 775
f 766 776 775
f 766 767 776
f 767 777 776
f 767 768 777
f 768 778 777
f 768 769 778
f 769 779 778
f 769 770 779
f 770 780 779
f 770 771 780
f 771 781 780
f 771 772 781
f 772 782 781
f 772 773 782
f 773 783 782
f 773 774 783
f 774 784 783
f 774 765 784
f 765 775 784
f 785 786 795
f 786 796 795
f 786 787 796
f 787 797 796
f 787 788 797
f 788 798 797
f 788 789 798
f 789 799 798
f 789 790 799
f 790 800 799
f 790 791 800
f 791 801 800
f 791 792 801
f 792 802 801
f 792 793 802
f 793 803 802
f 793 794 803
f 794 804 803
f 794 785 804
f 785 795 804
f 805 806 815
f 806 816 815
f 806 807 816
f 807 817 816
f 807 808 817
f 808 818 817
f 808 809 818
f 809 819 818
f 809 810 819
f 810 820 819
f 810 811 820
f 811 821 820
f 811 812 821
f 812 822 821
f 812 813 822
f 813 823 822
f 813 814 823
f 814 824 823
f 814 805 824
f 805 815 824
f 825 826 835
f 826 836 835
f 826 827 836
f 827 837 836
f 827 828 837
f 828 838 837
f 828 829 838
f 829 839 838
f 829 830 839
f 830 840 839
f 830 831 840
f 831 841 840
f 831 832 841
f 832 842 841
f 832 833 842
f 833 843 842
f 833 834 843
f 834 844 843
f 834 825 844
f 825 835 844
f 845 846 855
f 846 856 855
f 846 847 856
f 847 857 856
f 847 848 857
f 848 858 857
f 848 849 858
f 849 859 858
f 849 850 859
f 850 860 859
f 850 851 860
f 851 861 860
f 851 852 861
f 852 862 861
f 852 853 862
f 853 863 862
f 853 854 863
f 854 864 863
f 854 845 864
f 845 855 864
f 865 866 875
f 866 876 875
f 866 867 876
f 867 877 876
f 867 868 877
f 868 878 877
f 868 869 878
f 869 879 878
f 869 870 879
f 870 880 879
f 870 871 880
f 871 881 880
f 871 872 881
f 872 882 881
f 872 873 882
f 873 883 882
f 873 874 883
f 874 884 883
f 874 865 884
f 865 875 884
f 885 886 895
f 886 896 895
f 886 887 896
f 887 897 896
f 887 888 897
f 888 898 897
f 888 889 898
f 889 899 898
f 889 890 899
f 890 900 899
f 890 891 900
f 891 901 900
f 891 892 901
f 892 902 901
f 892 893 902
f 893 903 902
f 893 894 903
f 894 904 903
f 894 885 904
f 885 895 904
f 905 906 915
f 906 916 915
f 906 907 916
f 907 917 916
f 907 908 917
f 908 918 917
f 908 909 918
f 909 919 918
f 909 910 919
f 910 920 919
f 910 911 920
f 911 921 920
f 911 912 921
f 912 922 921
f 912 913 922
f 913 923 922
f 913 914 923
f 914 924 923
f 914 905 924
f 905 915 924
f 925 926 935
f 926 936 935
f 926 927 936
f 927 937 936
f 927 928 937
f 928 938 937
f 928 929 938
f 929 939 938
f 929 930 939
f 930 940 939
f 930 931 940
f 931 941 940
f 931 932 941
f 932 942 941
f 932 933 942
f 933 943 942
f 933 934 943
f 934 944 943
f 934 925 944
f 925 935 944
f 945 946 955
f 946 956 955
f 946 947 956
f 947 957 956
f 947 948 957
f 948 958 957
f 948 949 958
f 949 959 958
f 949 950 959
f 950 960 959
f 950 951 960
f 951 961 960
f 951 952 961
f 952 962 961
f 952 953 962
f 953 963 962
f 953 954 963
f 954 964 963
f 954 945 964
f 945 955 964
f 965 966 975
f 966 976 975
f 966 967 976
f 967 977 976
f 967 968 977
f 968 978 977
f 968 969 978
f 969 979 978
f 969 970 979
f 970 980 979
f 970 971 980
f 971 981 980
f 971 972 981
f 972 982 981
f 972 973 982
f 973 983 982
f 973 974 983
f 974 984 983
f 974 965 984
f 965 975 984
f 985 986 995
f 986 996 995
f 986 987 996
f 987 997 996
f 987 988 997
f 988 998 997
f 988 989 998
f 989 999 998
f 989 990 999
f 990 1000 999
f 990 991 1000
f 991 1001 1000
f 991 992 1001
f 992 1002 1001
f 992 993 1002
f 993 1003 1002
f 993 994 1003
f 994 1004 1003
f 994 985 1004
f 985 995 1004
f 1005 1006 1015
f 1006 1016 1015
f 1006 1007 1016
f 1007 1017 1016
f 1007 1008 1017
f 1008 1018 1017
f 1008 1009 1018
f 1009 1019 1018
f 1009 1010 1019
f 1010 1020 1019
f 1010 1011 1020
f 1011 1021 1020
f 1011 1012 1021
f 1012 1022 1021
f 1012 1013 1022
f 1013 1023 1022
f 1013 1014 1023
f 1014 1024 1023
f 1014 1005 1024
f 1005 1015 1024
f 1025 1026 1035
f 1026 1036 1035
f 1026 1027 1036
f 1027 1037 1036
f 1027 1028 1037
f 1028 1038 1037
f 1028 1029 1038
f 1029 1039 1038
f 1029 1030 1039
f 1030 1040 1039
f 1030 1031 1040
f 1031 1041 1040
f 1031 1032 1041
f 1032 1042 1041
f 1032 1033 1042
f 1033 1043 1042
f 1033 1034 1043
f 1034 1044 1043
f 1034 1025 1044
f 1025 1035 1044
f 1045 1046 1055
f 1046 1056 1055
f 1046 1047 1056
f 1047 1057 1056
f 1047 1048 1057
f 1048 1058 1057
f 1048 1049 1058
f 1049 1059 1058
f 1049 1050 1059
f 1050 1060 1059
f 1050 1051 1060
f 1051 1061 1060
f 1051 1052 1061
f 1052 1062 1061
f 1052 1053 1062
f 1053 1063 1062
f 1053 1054 1063
f 1054 1064 1063
f 1054 1045 1064
f 1045 1055 1064
f 1065 1066 1075
f 1066 1076 1075
f 1066 1067 1076
f 1067 1077 1076
f 1067 1068 1077
f 1068 1078 1077
f 1068 1069 1078
f 1069 1079 1078
f 1069 1070 1079
f 1070 1080 1079
f 1070 1071 1080
f 1071 1081 1080
f 1071 1072 1081
f 1072 1082 1081
f 1072 1073 1082
f 1073 1083 1082
f 1073 1074 1083
f 1074 1084 1083
f 1074 1065 1084
f 1065 1075 1084
f 1085 1086 1095
f 1086 1096 1095
f 1086 1087 1096
f 1087 1097 1096
f 1087 1088 1097
f 1088 1098 1097
f 1088 1089 1098
f 1089 1099 1098
f 1089 1090 1099
f 1090 1100 1099
f 1090 1091 1100
f 1091 1101 1100
f 1091 1092 1101
f 1092 1102 1101
f 1092 1093 1102
f 1093 1103 1102
f 1093 1094 1103
f 1094 1104 1103
f 1094 1085 1104
f 1085 1095 1104
f 1105 1106 1115
f 1106 1116 1115
f 1106 1107 1116
f 1107 1117 1116
f 1107 1108 1117
f 1108 1118 1117
f 1108 1109 1118
f 1109 1119 1118
f 1109 1110 1119
f 1110 1120 1119
f 1110 1111 1120
f 1111 1121 1120
f 1111 1112 1121
f 1112 1122 1121
f 1112 1113 1122
f 1113 1123 1122
f 1113 1114 1123
f 1114 1124 1123
f 1114 1105 1124
f 1105 1115 1124
f 1125 1126 1135
f 1126 1136 1135
f 1126 1127 1136
f 1127 1137 1136
f 1127 1128 1137
f 1128 1138 1137
f 1128 1129 1138
f 1129 1139 1138
f 1129 1130 1139
f 1130 1140 1139
f 1130 1131 1140
f 1131 1141 1140
f 1131 1132 1141
f 1132 1142 1141
f 1132 1133 1142
f 1133 1143 1142
f 1133 1134 1143
f 1134 1144 1143
f 1134 1125 1144
f 1125 1135 1144
f 1145 1146 1155
f 1146 1156 1155
f 1146 1147 1156
f 1147 1157 1156
f 1147 1148 1157
f 1148 1158 1157
f 1148 1149 1158
f 1149 1159 1158
f 1149 1150 1159
f 1150 1160 1159
f 1150 1151 1160
f 1151 1161 1160
f 1151 1152 1161
f 1152 1162 1161
f 1152 1153 1162
f 1153 1163 1162
f 1153 1154 1163
f 1154 1164 1163
f 1154 1145 1164
f 1145 1155 1164
f 1165 1166 1175
f 1166 1176 1175
f 1166 1167 1176
f 1167 1177 1176
f 1167 1168 1177
f 1168 1178 1177
f 1168 1169 1178
f 1169 1179 1178
f 1169 1170 1179
f 1170 1180 1179
f 1170 1171 1180
f 1171 1181 1180
f 1171 1172 1181
f 1172 1182 1181
f 1172 1173 1182
f 1173 1183 1182
f 1173 1174 1183
f 1174 1184 1183
f 1174 1165 1184
f 1165 1175 1184
