# Full-Body 3D Mesh - Frame 273
v 0.022906 -0.617633 -0.095134
v 0.056714 -0.617633 -0.099995
v 0.087783 -0.617633 -0.114184
v 0.113596 -0.617633 -0.136551
v 0.132062 -0.617633 -0.165284
v 0.141685 -0.617633 -0.198057
v 0.141685 -0.617633 -0.232212
v 0.132062 -0.617633 -0.264984
v 0.113596 -0.617633 -0.293718
v 0.087783 -0.617633 -0.316085
v 0.056714 -0.617633 -0.330273
v 0.022906 -0.617633 -0.335134
v 0.022906 -0.617633 -0.095134
v 0.051347 -0.599355 -0.099995
v 0.077484 -0.582558 -0.114184
v 0.099199 -0.568602 -0.136551
v 0.114734 -0.558619 -0.165284
v 0.122829 -0.553416 -0.198057
v 0.122829 -0.553416 -0.232212
v 0.114734 -0.558619 -0.264984
v 0.099199 -0.568602 -0.293718
v 0.077484 -0.582558 -0.316085
v 0.051347 -0.599355 -0.330273
v 0.022906 -0.617633 -0.335134
v 0.022906 -0.617633 -0.095134
v 0.036951 -0.586880 -0.099995
v 0.049857 -0.558619 -0.114184
v 0.060580 -0.535138 -0.136551
v 0.068251 -0.518341 -0.165284
v 0.072249 -0.509588 -0.198057
v 0.072249 -0.509588 -0.232212
v 0.068251 -0.518341 -0.264984
v 0.060580 -0.535138 -0.293718
v 0.049857 -0.558619 -0.316085
v 0.036951 -0.586880 -0.330273
v 0.022906 -0.617633 -0.335134
v 0.022906 -0.617633 -0.095134
v 0.018095 -0.584169 -0.099995
v 0.013673 -0.553416 -0.114184
v 0.010000 -0.527866 -0.136551
v 0.007372 -0.509588 -0.165284
v 0.006002 -0.500063 -0.198057
v 0.006002 -0.500063 -0.232212
v 0.007372 -0.509588 -0.264984
v 0.010000 -0.527866 -0.293718
v 0.013673 -0.553416 -0.316085
v 0.018095 -0.584169 -0.330273
v 0.022906 -0.617633 -0.335134
v 0.022906 -0.617633 -0.095134
v 0.000767 -0.592082 -0.099995
v -0.019579 -0.568602 -0.114184
v -0.036483 -0.549094 -0.136551
v -0.048576 -0.535138 -0.165284
v -0.054877 -0.527866 -0.198057
v -0.054877 -0.527866 -0.232212
v -0.048576 -0.535138 -0.264984
v -0.036483 -0.549094 -0.293718
v -0.019579 -0.568602 -0.316085
v 0.000767 -0.592082 -0.330273
v 0.022906 -0.617633 -0.335134
v 0.022906 -0.617633 -0.095134
v -0.009532 -0.608108 -0.099995
v -0.039343 -0.599355 -0.114184
v -0.064110 -0.592082 -0.136551
v -0.081828 -0.586880 -0.165284
v -0.091061 -0.584169 -0.198057
v -0.091061 -0.584169 -0.232212
v -0.081828 -0.586880 -0.264984
v -0.064110 -0.592082 -0.293718
v -0.039343 -0.599355 -0.316085
v -0.009532 -0.608108 -0.330273
v 0.022906 -0.617633 -0.335134
v 0.022906 -0.617633 -0.095134
v -0.009532 -0.627158 -0.099995
v -0.039343 -0.635911 -0.114184
v -0.064110 -0.643183 -0.136551
v -0.081828 -0.648386 -0.165284
v -0.091061 -0.651097 -0.198057
v -0.091061 -0.651097 -0.232212
v -0.081828 -0.648386 -0.264984
v -0.064110 -0.643183 -0.293718
v -0.039343 -0.635911 -0.316085
v -0.009532 -0.627158 -0.330273
v 0.022906 -0.617633 -0.335134
v 0.022906 -0.617633 -0.095134
v 0.000767 -0.643183 -0.099995
v -0.019579 -0.666663 -0.114184
v -0.036483 -0.686172 -0.136551
v -0.048576 -0.700127 -0.165284
v -0.054877 -0.707400 -0.198057
v -0.054877 -0.707400 -0.232212
v -0.048576 -0.700127 -0.264984
v -0.036483 -0.686172 -0.293718
v -0.019579 -0.666663 -0.316085
v 0.000767 -0.643183 -0.330273
v 0.022906 -0.617633 -0.335134
v 0.022906 -0.617633 -0.095134
v 0.018095 -0.651097 -0.099995
v 0.013673 -0.681849 -0.114184
v 0.010000 -0.707400 -0.136551
v 0.007372 -0.725678 -0.165284
v 0.006002 -0.735202 -0.198057
v 0.006002 -0.735202 -0.232212
v 0.007372 -0.725678 -0.264984
v 0.010000 -0.707400 -0.293718
v 0.013673 -0.681849 -0.316085
v 0.018095 -0.651097 -0.330273
v 0.022906 -0.617633 -0.335134
v 0.022906 -0.617633 -0.095134
v 0.036951 -0.648386 -0.099995
v 0.049857 -0.676647 -0.114184
v 0.060580 -0.700127 -0.136551
v 0.068251 -0.716924 -0.165284
v 0.072249 -0.725678 -0.198057
v 0.072249 -0.725678 -0.232212
v 0.068251 -0.716924 -0.264984
v 0.060580 -0.700127 -0.293718
v 0.049857 -0.676647 -0.316085
v 0.036951 -0.648386 -0.330273
v 0.022906 -0.617633 -0.335134
v 0.022906 -0.617633 -0.095134
v 0.051347 -0.635911 -0.099995
v 0.077484 -0.652708 -0.114184
v 0.099199 -0.666663 -0.136551
v 0.114734 -0.676647 -0.165284
v 0.122829 -0.681849 -0.198057
v 0.122829 -0.681849 -0.232212
v 0.114734 -0.676647 -0.264984
v 0.099199 -0.666663 -0.293718
v 0.077484 -0.652708 -0.316085
v 0.051347 -0.635911 -0.330273
v 0.022906 -0.617633 -0.335134
v 0.022906 -0.617633 -0.095134
v 0.056714 -0.617633 -0.099995
v 0.087783 -0.617633 -0.114184
v 0.113596 -0.617633 -0.136551
v 0.132062 -0.617633 -0.165284
v 0.141685 -0.617633 -0.198057
v 0.141685 -0.617633 -0.232212
v 0.132062 -0.617633 -0.264984
v 0.113596 -0.617633 -0.293718
v 0.087783 -0.617633 -0.316085
v 0.056714 -0.617633 -0.330273
v 0.022906 -0.617633 -0.335134
v 0.174045 -0.426484 -0.074193
v 0.174148 -0.449987 -0.066529
v 0.173160 -0.464512 -0.046549
v 0.171458 -0.464512 -0.021887
v 0.169691 -0.449987 -0.001961
v 0.168536 -0.426484 0.005617
v 0.168433 -0.402981 -0.002048
v 0.169421 -0.388455 -0.022027
v 0.171123 -0.388455 -0.046690
v 0.172890 -0.402981 -0.066616
v -0.160463 -0.435484 -0.097284
v -0.160360 -0.458987 -0.089620
v -0.161348 -0.473513 -0.069640
v -0.163051 -0.473513 -0.044978
v -0.164817 -0.458987 -0.025052
v -0.165972 -0.435484 -0.017474
v -0.166076 -0.411981 -0.025139
v -0.165087 -0.397456 -0.045118
v -0.163385 -0.397456 -0.069781
v -0.161619 -0.411981 -0.089707
v 0.171290 -0.431026 -0.074030
v 0.148850 -0.423189 -0.067236
v 0.134981 -0.416610 -0.047858
v 0.134981 -0.413803 -0.023297
v 0.148850 -0.415839 -0.002934
v 0.171290 -0.421942 0.005453
v 0.193731 -0.429779 -0.001340
v 0.207600 -0.436357 -0.020719
v 0.207600 -0.439164 -0.045280
v 0.193731 -0.437128 -0.065643
v 0.247557 -0.188632 -0.101734
v 0.225117 -0.180795 -0.094940
v 0.211248 -0.174216 -0.075562
v 0.211248 -0.171409 -0.051000
v 0.225117 -0.173446 -0.030638
v 0.247557 -0.179548 -0.022251
v 0.269998 -0.187385 -0.029044
v 0.283867 -0.193963 -0.048423
v 0.283867 -0.196771 -0.072984
v 0.269998 -0.194734 -0.093347
v 0.247557 -0.189258 -0.101657
v 0.224127 -0.186339 -0.094333
v 0.209646 -0.182561 -0.074657
v 0.209646 -0.179366 -0.050143
v 0.224127 -0.177976 -0.030155
v 0.247557 -0.178921 -0.022328
v 0.270988 -0.181841 -0.029651
v 0.285469 -0.185619 -0.049328
v 0.285469 -0.188814 -0.073842
v 0.270988 -0.190204 -0.093830
v 0.262823 -0.007243 -0.125374
v 0.239392 -0.004324 -0.118051
v 0.224911 -0.000545 -0.098374
v 0.224911 0.002649 -0.073860
v 0.239392 0.004039 -0.053872
v 0.262823 0.003094 -0.046045
v 0.286253 0.000175 -0.053369
v 0.300734 -0.003604 -0.073045
v 0.300734 -0.006798 -0.097559
v 0.286253 -0.008188 -0.117547
v -0.163218 -0.460862 -0.088298
v -0.183203 -0.465588 -0.074536
v -0.195554 -0.458816 -0.054220
v -0.195554 -0.443131 -0.035111
v -0.183203 -0.424526 -0.024508
v -0.163218 -0.410106 -0.026461
v -0.143233 -0.405380 -0.040223
v -0.130881 -0.412153 -0.060538
v -0.130881 -0.427837 -0.079647
v -0.143233 -0.446442 -0.090250
v -0.322920 -0.261659 -0.251802
v -0.342905 -0.266385 -0.238040
v -0.355257 -0.259613 -0.217724
v -0.355257 -0.243928 -0.198615
v -0.342905 -0.225323 -0.188012
v -0.322920 -0.210903 -0.189964
v -0.302935 -0.206177 -0.203727
v -0.290583 -0.212950 -0.224042
v -0.290583 -0.228634 -0.243151
v -0.302935 -0.247239 -0.253754
v -0.322920 -0.271387 -0.201710
v -0.342344 -0.271032 -0.216998
v -0.354349 -0.257403 -0.233770
v -0.354349 -0.235707 -0.245619
v -0.342344 -0.214230 -0.248021
v -0.322920 -0.201176 -0.240056
v -0.303496 -0.201530 -0.224768
v -0.291491 -0.215159 -0.207997
v -0.291491 -0.236855 -0.196147
v -0.303496 -0.258332 -0.193746
v -0.164135 -0.382987 -0.406048
v -0.183560 -0.382632 -0.421336
v -0.195564 -0.369004 -0.438108
v -0.195564 -0.347307 -0.449957
v -0.183560 -0.325830 -0.452358
v -0.164135 -0.312776 -0.444394
v -0.144711 -0.313131 -0.429106
v -0.132706 -0.326759 -0.412334
v -0.132706 -0.348456 -0.400485
v -0.144711 -0.369933 -0.398084
v 0.171290 -0.423651 -0.074188
v 0.147943 -0.426956 -0.066764
v 0.133513 -0.430081 -0.046936
v 0.133513 -0.431832 -0.022276
v 0.147943 -0.431540 -0.002205
v 0.171290 -0.429317 0.005611
v 0.194638 -0.426012 -0.001813
v 0.209068 -0.422887 -0.021641
v 0.209068 -0.421136 -0.046300
v 0.194638 -0.421427 -0.066372
v 0.119044 0.015440 -0.043010
v 0.095696 0.012135 -0.035586
v 0.081267 0.009010 -0.015757
v 0.081267 0.007259 0.008902
v 0.095696 0.007551 0.028973
v 0.119044 0.009774 0.036790
v 0.142391 0.013079 0.029366
v 0.156821 0.016204 0.009537
v 0.156821 0.017955 -0.015122
v 0.142391 0.017663 -0.035193
v -0.163218 -0.429620 -0.096947
v -0.186596 -0.428266 -0.089024
v -0.201044 -0.429669 -0.069013
v -0.201044 -0.433293 -0.044559
v -0.186596 -0.437754 -0.025002
v -0.163218 -0.441349 -0.017812
v -0.139840 -0.442703 -0.025735
v -0.125391 -0.441300 -0.045746
v -0.125391 -0.437675 -0.070200
v -0.139840 -0.433214 -0.089757
v -0.118767 -0.018638 -0.036035
v -0.142145 -0.017284 -0.028111
v -0.156594 -0.018687 -0.008101
v -0.156594 -0.022311 0.016353
v -0.142145 -0.026772 0.035911
v -0.118767 -0.030367 0.043101
v -0.095389 -0.031721 0.035177
v -0.080941 -0.030318 0.015167
v -0.080941 -0.026693 -0.009288
v -0.095389 -0.022232 -0.028845
v 0.117927 0.012607 -0.043094
v 0.121762 -0.010624 -0.035559
v 0.124560 -0.024981 -0.015630
v 0.125250 -0.024981 0.009082
v 0.123570 -0.010624 0.029137
v 0.120161 0.012607 0.036874
v 0.116325 0.035837 0.029339
v 0.113528 0.050195 0.009410
v 0.112838 0.050195 -0.015302
v 0.114518 0.035837 -0.035357
v -0.119884 -0.024502 -0.036452
v -0.116049 -0.047733 -0.028916
v -0.113252 -0.062090 -0.008987
v -0.112562 -0.062090 0.015725
v -0.114242 -0.047733 0.035780
v -0.117651 -0.024502 0.043517
v -0.121486 -0.001272 0.035982
v -0.124283 0.013086 0.016052
v -0.124973 0.013086 -0.008659
v -0.123293 -0.001272 -0.028714
v 0.119044 -0.004067 -0.039469
v 0.095656 0.001307 -0.033529
v 0.081202 0.010997 -0.015970
v 0.081202 0.021302 0.006501
v 0.095656 0.028286 0.025301
v 0.119044 0.029281 0.033249
v 0.142432 0.023907 0.027309
v 0.156886 0.014217 0.009750
v 0.156886 0.003912 -0.012721
v 0.142432 -0.003072 -0.031521
v 0.131394 0.104941 -0.089458
v 0.108006 0.110315 -0.083518
v 0.093552 0.120005 -0.065959
v 0.093552 0.130310 -0.043488
v 0.108006 0.137293 -0.024688
v 0.131394 0.138289 -0.016740
v 0.154782 0.132915 -0.022680
v 0.169236 0.123225 -0.040239
v 0.169236 0.112920 -0.062710
v 0.154782 0.105936 -0.081510
v 0.131394 0.141568 -0.087767
v 0.108087 0.140437 -0.079604
v 0.093682 0.132115 -0.061317
v 0.093682 0.119783 -0.039891
v 0.108087 0.108151 -0.023510
v 0.131394 0.101661 -0.018431
v 0.154701 0.102793 -0.026594
v 0.169106 0.111114 -0.044881
v 0.169106 0.123446 -0.066307
v 0.154701 0.135079 -0.082688
v 0.179623 0.456772 0.093654
v 0.156316 0.455641 0.101817
v 0.141911 0.447319 0.120104
v 0.141911 0.434987 0.141530
v 0.156316 0.423355 0.157911
v 0.179623 0.416865 0.162990
v 0.202931 0.417997 0.154827
v 0.217336 0.426318 0.136540
v 0.217336 0.438650 0.115114
v 0.202931 0.450283 0.098733
v -0.118767 -0.063059 0.014181
v -0.142164 -0.055079 0.014380
v -0.156625 -0.035419 0.010436
v -0.156625 -0.011590 0.003856
v -0.142164 0.007308 -0.002848
v -0.118767 0.014055 -0.007115
v -0.095370 0.006074 -0.007314
v -0.080910 -0.013585 -0.003371
v -0.080910 -0.037415 0.003210
v -0.095370 -0.056312 0.009914
v -0.143429 -0.129359 -0.225902
v -0.166826 -0.121379 -0.225702
v -0.181286 -0.101720 -0.229646
v -0.181286 -0.077890 -0.236226
v -0.166826 -0.058993 -0.242930
v -0.143429 -0.052246 -0.247197
v -0.120032 -0.060226 -0.247397
v -0.105572 -0.079886 -0.243453
v -0.105572 -0.103715 -0.236872
v -0.120032 -0.122612 -0.230168
v -0.143429 -0.099583 -0.275574
v -0.166636 -0.094229 -0.268948
v -0.180979 -0.087567 -0.249947
v -0.180979 -0.082140 -0.225829
v -0.166636 -0.080022 -0.205805
v -0.143429 -0.082022 -0.197525
v -0.120222 -0.087376 -0.204151
v -0.105879 -0.094039 -0.223152
v -0.105879 -0.099465 -0.247270
v -0.120222 -0.101583 -0.267293
v -0.090060 0.221034 -0.347714
v -0.113267 0.226388 -0.341088
v -0.127610 0.233051 -0.322087
v -0.127610 0.238478 -0.297969
v -0.113267 0.240596 -0.277946
v -0.090060 0.238596 -0.269665
v -0.066852 0.233242 -0.276291
v -0.052510 0.226579 -0.295292
v -0.052510 0.221152 -0.319410
v -0.066852 0.219034 -0.339434
v -0.026154 0.060720 0.052349
v -0.031165 0.060483 0.044553
v -0.034262 0.065600 0.037469
v -0.034262 0.074115 0.033804
v -0.031165 0.082776 0.034957
v -0.026154 0.088276 0.040488
v -0.021143 0.088513 0.048284
v -0.018047 0.083397 0.055367
v -0.018047 0.074881 0.059033
v -0.021143 0.066220 0.057880
v 0.005433 0.052094 0.032309
v 0.000422 0.051858 0.024513
v -0.002675 0.056974 0.017430
v -0.002675 0.065489 0.013764
v 0.000422 0.074151 0.014917
v 0.005433 0.079650 0.020448
v 0.010443 0.079887 0.028244
v 0.013540 0.074771 0.035328
v 0.013540 0.066255 0.038993
v 0.010443 0.057594 0.037840
v 0.006581 0.065872 0.041335
v 0.002727 0.057844 0.038758
v -0.000094 0.052883 0.031452
v -0.000804 0.052883 0.022209
v 0.000868 0.057844 0.014558
v 0.004284 0.065872 0.011423
v 0.008138 0.073900 0.014000
v 0.010959 0.078862 0.021305
v 0.011669 0.078862 0.030549
v 0.009997 0.073900 0.038199
v 0.039802 0.050742 0.038783
v 0.035948 0.042714 0.036206
v 0.033127 0.037753 0.028900
v 0.032417 0.037753 0.019657
v 0.034089 0.042714 0.012007
v 0.037505 0.050742 0.008871
v 0.041359 0.058770 0.011448
v 0.044180 0.063731 0.018754
v 0.044890 0.063731 0.027997
v 0.043218 0.058770 0.035647
v 0.038050 0.050742 0.038815
v 0.034934 0.042540 0.035822
v 0.033238 0.037470 0.028248
v 0.033612 0.037470 0.018985
v 0.035911 0.042540 0.011571
v 0.039258 0.050742 0.008839
v 0.042374 0.058944 0.011832
v 0.044069 0.064013 0.019406
v 0.043695 0.064013 0.028669
v 0.041396 0.058944 0.036083
v 0.071077 0.037709 0.040146
v 0.067961 0.029507 0.037153
v 0.066266 0.024438 0.029579
v 0.066640 0.024438 0.020316
v 0.068939 0.029507 0.012902
v 0.072285 0.037709 0.010170
v 0.075401 0.045912 0.013163
v 0.077096 0.050981 0.020737
v 0.076723 0.050981 0.030000
v 0.074424 0.045912 0.037414
v 0.071681 0.049610 0.034289
v 0.067565 0.042591 0.038731
v 0.065021 0.033707 0.037989
v 0.065021 0.026352 0.032345
v 0.067565 0.023335 0.023957
v 0.071681 0.025809 0.016027
v 0.075798 0.032828 0.011585
v 0.078342 0.041711 0.012327
v 0.078342 0.049066 0.017971
v 0.075798 0.052083 0.026359
v 0.095081 0.042090 0.044090
v 0.090964 0.035071 0.048532
v 0.088420 0.026187 0.047789
v 0.088420 0.018832 0.042146
v 0.090964 0.015815 0.033758
v 0.095081 0.018289 0.025828
v 0.099197 0.025308 0.021386
v 0.101741 0.034191 0.022128
v 0.101741 0.041546 0.027772
v 0.099197 0.044563 0.036160
v -0.026154 0.066934 0.059371
v -0.033716 0.064463 0.054611
v -0.038389 0.065826 0.046722
v -0.038389 0.070501 0.038716
v -0.033716 0.076703 0.033653
v -0.026154 0.082063 0.033466
v -0.018593 0.084533 0.038226
v -0.013919 0.083171 0.046115
v -0.013919 0.078496 0.054121
v -0.018593 0.072294 0.059184
v 0.024100 -0.005440 0.017105
v 0.016538 -0.007910 0.012345
v 0.011865 -0.006548 0.004455
v 0.011865 -0.001873 -0.003550
v 0.016538 0.004329 -0.008613
v 0.024100 0.009689 -0.008800
v 0.031661 0.012160 -0.004040
v 0.036335 0.010797 0.003849
v 0.036335 0.006122 0.011855
v 0.031661 -0.000080 0.016918
v 0.024100 0.000214 0.019030
v 0.015361 -0.000586 0.016039
v 0.009961 -0.000351 0.008508
v 0.009961 0.000830 -0.000687
v 0.015361 0.002505 -0.008034
v 0.024100 0.004035 -0.010725
v 0.032838 0.004835 -0.007734
v 0.038238 0.004600 -0.000203
v 0.038238 0.003420 0.008992
v 0.032838 0.001744 0.016339
v 0.028334 -0.031027 0.015019
v 0.019596 -0.031827 0.012028
v 0.014195 -0.031592 0.004497
v 0.014195 -0.030411 -0.004698
v 0.019596 -0.028736 -0.012045
v 0.028334 -0.027206 -0.014737
v 0.037072 -0.026406 -0.011746
v 0.042472 -0.026641 -0.004214
v 0.042472 -0.027822 0.004981
v 0.037072 -0.029497 0.012327
v 0.028334 -0.033122 0.014597
v 0.019523 -0.032673 0.011748
v 0.014078 -0.030866 0.004466
v 0.014078 -0.028390 -0.004468
v 0.019523 -0.026192 -0.011641
v 0.028334 -0.025111 -0.014314
v 0.037144 -0.025560 -0.011466
v 0.042590 -0.027367 -0.004184
v 0.042590 -0.029843 0.004750
v 0.037144 -0.032041 0.011923
v 0.029349 -0.059404 0.007314
v 0.020539 -0.058956 0.004466
v 0.015093 -0.057148 -0.002816
v 0.015093 -0.054673 -0.011750
v 0.020539 -0.052475 -0.018923
v 0.029349 -0.051394 -0.021597
v 0.038160 -0.051843 -0.018748
v 0.043605 -0.053650 -0.011466
v 0.043605 -0.056125 -0.002533
v 0.038160 -0.058323 0.004641
v 0.029349 -0.067267 0.002033
v 0.020552 -0.065361 -0.000186
v 0.015115 -0.059651 -0.005062
v 0.015115 -0.052316 -0.010732
v 0.020552 -0.046159 -0.015030
v 0.029349 -0.043532 -0.016315
v 0.038146 -0.045437 -0.014096
v 0.043583 -0.051148 -0.009220
v 0.043583 -0.058482 -0.003550
v 0.038146 -0.064639 0.000748
v 0.031408 -0.086023 -0.022229
v 0.022611 -0.084118 -0.024449
v 0.017174 -0.078407 -0.029325
v 0.017174 -0.071073 -0.034994
v 0.022611 -0.064916 -0.039293
v 0.031408 -0.062288 -0.040578
v 0.040205 -0.064194 -0.038359
v 0.045641 -0.069904 -0.033483
v 0.045641 -0.077238 -0.027813
v 0.040205 -0.083395 -0.023514
v -0.026154 0.067469 0.059669
v -0.034586 0.066533 0.055930
v -0.039796 0.068640 0.048558
v -0.039796 0.072985 0.040369
v -0.034586 0.077907 0.034490
v -0.026154 0.081528 0.033168
v -0.017723 0.082463 0.036907
v -0.012512 0.080356 0.044279
v -0.012512 0.076011 0.052468
v -0.017723 0.071089 0.058347
v 0.001337 -0.011943 0.017542
v -0.007094 -0.012878 0.013803
v -0.012305 -0.010771 0.006430
v -0.012305 -0.006427 -0.001759
v -0.007094 -0.001504 -0.007638
v 0.001337 0.002116 -0.008960
v 0.009769 0.003052 -0.005221
v 0.014980 0.000945 0.002151
v 0.014980 -0.003400 0.010341
v 0.009769 -0.008323 0.016219
v 0.001337 -0.019863 0.005518
v -0.007291 -0.017156 0.003474
v -0.012623 -0.009773 0.001743
v -0.012623 -0.000534 0.000985
v -0.007291 0.007033 0.001489
v 0.001337 0.010036 0.003064
v 0.009965 0.007330 0.005107
v 0.015298 -0.000053 0.006839
v 0.015298 -0.009293 0.007597
v 0.009965 -0.016859 0.007092
v 0.009762 -0.023138 -0.034395
v 0.001134 -0.020432 -0.036438
v -0.004198 -0.013048 -0.038170
v -0.004198 -0.003809 -0.038928
v 0.001134 0.003758 -0.038423
v 0.009762 0.006761 -0.036849
v 0.018390 0.004055 -0.034805
v 0.023722 -0.003329 -0.033074
v 0.023722 -0.012568 -0.032316
v 0.018390 -0.020135 -0.032820
v 0.009762 -0.010479 -0.050446
v 0.000956 -0.010478 -0.047547
v -0.004486 -0.009602 -0.040094
v -0.004486 -0.008187 -0.030932
v 0.000956 -0.006772 -0.023561
v 0.009762 -0.005898 -0.020798
v 0.018568 -0.005899 -0.023696
v 0.024010 -0.006775 -0.031150
v 0.024010 -0.008190 -0.040312
v 0.018568 -0.009605 -0.047682
v 0.008371 0.016953 -0.054684
v -0.000435 0.016954 -0.051786
v -0.005877 0.017829 -0.044332
v -0.005877 0.019245 -0.035170
v -0.000435 0.020660 -0.027800
v 0.008371 0.021534 -0.025036
v 0.017176 0.021532 -0.027935
v 0.022619 0.020657 -0.035388
v 0.022619 0.019241 -0.044550
v 0.017176 0.017826 -0.051921
v 0.008371 0.032463 -0.046948
v -0.000133 0.028838 -0.047647
v -0.005388 0.021547 -0.045373
v -0.005388 0.013377 -0.040992
v -0.000133 0.007447 -0.036180
v 0.008371 0.006023 -0.032773
v 0.016874 0.009649 -0.032073
v 0.022129 0.016939 -0.034348
v 0.022129 0.025110 -0.038728
v 0.016874 0.031039 -0.043541
v 0.000631 0.045810 -0.022051
v -0.007872 0.042185 -0.022751
v -0.013128 0.034894 -0.020476
v -0.013128 0.026724 -0.016096
v -0.007872 0.020794 -0.011283
v 0.000631 0.019370 -0.007877
v 0.009135 0.022996 -0.007177
v 0.014390 0.030286 -0.009451
v 0.014390 0.038457 -0.013832
v 0.009135 0.044386 -0.018644
v -0.026154 0.066536 0.059131
v -0.034929 0.067328 0.056247
v -0.040352 0.070859 0.049609
v -0.040352 0.075780 0.041752
v -0.034929 0.080211 0.035678
v -0.026154 0.082460 0.033706
v -0.017379 0.081668 0.036590
v -0.011956 0.078137 0.043228
v -0.011956 0.073216 0.051085
v -0.017379 0.068785 0.057159
v -0.017191 -0.011017 0.010560
v -0.025966 -0.010225 0.007676
v -0.031389 -0.006694 0.001037
v -0.031389 -0.001774 -0.006819
v -0.025966 0.002657 -0.012894
v -0.017191 0.004906 -0.014866
v -0.008416 0.004114 -0.011981
v -0.002993 0.000583 -0.005343
v -0.002993 -0.004337 0.002514
v -0.008416 -0.008768 0.008588
v -0.017191 -0.017966 -0.003788
v -0.025851 -0.014938 -0.005120
v -0.031203 -0.007371 -0.005320
v -0.031203 0.001844 -0.004309
v -0.025851 0.009188 -0.002475
v -0.017191 0.011855 -0.000518
v -0.008531 0.008827 0.000814
v -0.003179 0.001260 0.001014
v -0.003179 -0.007955 0.000003
v -0.008531 -0.015299 -0.001830
v -0.010161 -0.013957 -0.040359
v -0.018821 -0.010929 -0.041692
v -0.024174 -0.003362 -0.041891
v -0.024174 0.005853 -0.040881
v -0.018821 0.013197 -0.039047
v -0.010161 0.015864 -0.037090
v -0.001501 0.012836 -0.035757
v 0.003851 0.005269 -0.035558
v 0.003851 -0.003946 -0.036568
v -0.001501 -0.011290 -0.038402
v -0.010161 0.002546 -0.053640
v -0.018906 0.003356 -0.050672
v -0.024311 0.003249 -0.043141
v -0.024311 0.002265 -0.033923
v -0.018906 0.000780 -0.026539
v -0.010161 -0.000639 -0.023809
v -0.001416 -0.001449 -0.026777
v 0.003989 -0.001342 -0.034308
v 0.003989 -0.000358 -0.043526
v -0.001416 0.001127 -0.050910
v -0.006849 0.028248 -0.050895
v -0.015594 0.029058 -0.047928
v -0.020999 0.028951 -0.040397
v -0.020999 0.027966 -0.031179
v -0.015594 0.026481 -0.023795
v -0.006849 0.025063 -0.021065
v 0.001897 0.024252 -0.024033
v 0.007302 0.024360 -0.031564
v 0.007302 0.025344 -0.040782
v 0.001897 0.026829 -0.048166
v -0.006849 0.038882 -0.044669
v -0.015532 0.035662 -0.044255
v -0.020898 0.029001 -0.040681
v -0.020898 0.021445 -0.035311
v -0.015532 0.015878 -0.030197
v -0.006849 0.014428 -0.027292
v 0.001835 0.017648 -0.027705
v 0.007201 0.024309 -0.031280
v 0.007201 0.031866 -0.036650
v 0.001835 0.037432 -0.041764
v -0.011742 0.054991 -0.022000
v -0.020426 0.051771 -0.021586
v -0.025792 0.045110 -0.018011
v -0.025792 0.037553 -0.012641
v -0.020426 0.031987 -0.007527
v -0.011742 0.030537 -0.004622
v -0.003059 0.033757 -0.005036
v 0.002308 0.040418 -0.008611
v 0.002308 0.047975 -0.013980
v -0.003059 0.053541 -0.019095
v -0.026154 0.065013 0.058039
v -0.034878 0.067816 0.056629
v -0.040269 0.073171 0.051318
v -0.040269 0.079032 0.044136
v -0.034878 0.083162 0.037826
v -0.026154 0.083983 0.034798
v -0.017431 0.081180 0.036208
v -0.012039 0.075826 0.041519
v -0.012039 0.069964 0.048701
v -0.017431 0.065834 0.055011
v -0.037877 0.003079 0.007489
v -0.046601 0.005881 0.006078
v -0.051992 0.011236 0.000768
v -0.051992 0.017098 -0.006414
v -0.046601 0.021228 -0.012725
v -0.037877 0.022048 -0.015753
v -0.029154 0.019246 -0.014342
v -0.023762 0.013891 -0.009032
v -0.023762 0.008029 -0.001850
v -0.029154 0.003899 0.004460
v -0.037877 -0.002024 -0.000639
v -0.046461 0.000293 -0.003264
v -0.051766 0.007297 -0.006220
v -0.051766 0.016313 -0.008379
v -0.046461 0.023896 -0.008916
v -0.037877 0.027151 -0.007625
v -0.029293 0.024834 -0.005000
v -0.023988 0.017830 -0.002044
v -0.023988 0.008814 0.000115
v -0.029293 0.001231 0.000652
v -0.031668 -0.008189 -0.026386
v -0.040252 -0.005872 -0.029011
v -0.045557 0.001132 -0.031967
v -0.045557 0.010148 -0.034126
v -0.040252 0.017731 -0.034663
v -0.031668 0.020986 -0.033372
v -0.023084 0.018669 -0.030747
v -0.017779 0.011665 -0.027791
v -0.017779 0.002649 -0.025632
v -0.023084 -0.004935 -0.025095
v -0.031668 -0.002231 -0.042148
v -0.040027 0.001712 -0.041419
v -0.045193 0.007445 -0.036282
v -0.045193 0.012778 -0.028699
v -0.040027 0.015674 -0.021567
v -0.031668 0.015028 -0.017610
v -0.023310 0.011085 -0.018339
v -0.018144 0.005352 -0.023476
v -0.018144 0.000019 -0.031059
v -0.023310 -0.002878 -0.038191
v -0.024045 0.016346 -0.055214
v -0.032404 0.020289 -0.054485
v -0.037570 0.026022 -0.049347
v -0.037570 0.031355 -0.041765
v -0.032404 0.034251 -0.034632
v -0.024045 0.033605 -0.030675
v -0.015687 0.029662 -0.031405
v -0.010521 0.023929 -0.036542
v -0.010521 0.018596 -0.044125
v -0.015687 0.015699 -0.051257
v -0.024045 0.035705 -0.053427
v -0.032739 0.034683 -0.050373
v -0.038111 0.029953 -0.044482
v -0.038111 0.023322 -0.038004
v -0.032739 0.017322 -0.033413
v -0.024045 0.014246 -0.032463
v -0.015352 0.015267 -0.035516
v -0.009979 0.019997 -0.041407
v -0.009979 0.026628 -0.047886
v -0.015352 0.032628 -0.052477
v -0.020967 0.048424 -0.040407
v -0.029660 0.047403 -0.037353
v -0.035033 0.042673 -0.031462
v -0.035033 0.036041 -0.024984
v -0.029660 0.030042 -0.020393
v -0.020967 0.026965 -0.019443
v -0.012273 0.027987 -0.022496
v -0.006901 0.032716 -0.028387
v -0.006901 0.039348 -0.034866
v -0.012273 0.045348 -0.039457
f 1 2 13
f 2 14 13
f 2 3 14
f 3 15 14
f 3 4 15
f 4 16 15
f 4 5 16
f 5 17 16
f 5 6 17
f 6 18 17
f 6 7 18
f 7 19 18
f 7 8 19
f 8 20 19
f 8 9 20
f 9 21 20
f 9 10 21
f 10 22 21
f 10 11 22
f 11 23 22
f 11 12 23
f 12 24 23
f 13 14 25
f 14 26 25
f 14 15 26
f 15 27 26
f 15 16 27
f 16 28 27
f 16 17 28
f 17 29 28
f 17 18 29
f 18 30 29
f 18 19 30
f 19 31 30
f 19 20 31
f 20 32 31
f 20 21 32
f 21 33 32
f 21 22 33
f 22 34 33
f 22 23 34
f 23 35 34
f 23 24 35
f 24 36 35
f 25 26 37
f 26 38 37
f 26 27 38
f 27 39 38
f 27 28 39
f 28 40 39
f 28 29 40
f 29 41 40
f 29 30 41
f 30 42 41
f 30 31 42
f 31 43 42
f 31 32 43
f 32 44 43
f 32 33 44
f 33 45 44
f 33 34 45
f 34 46 45
f 34 35 46
f 35 47 46
f 35 36 47
f 36 48 47
f 37 38 49
f 38 50 49
f 38 39 50
f 39 51 50
f 39 40 51
f 40 52 51
f 40 41 52
f 41 53 52
f 41 42 53
f 42 54 53
f 42 43 54
f 43 55 54
f 43 44 55
f 44 56 55
f 44 45 56
f 45 57 56
f 45 46 57
f 46 58 57
f 46 47 58
f 47 59 58
f 47 48 59
f 48 60 59
f 49 50 61
f 50 62 61
f 50 51 62
f 51 63 62
f 51 52 63
f 52 64 63
f 52 53 64
f 53 65 64
f 53 54 65
f 54 66 65
f 54 55 66
f 55 67 66
f 55 56 67
f 56 68 67
f 56 57 68
f 57 69 68
f 57 58 69
f 58 70 69
f 58 59 70
f 59 71 70
f 59 60 71
f 60 72 71
f 61 62 73
f 62 74 73
f 62 63 74
f 63 75 74
f 63 64 75
f 64 76 75
f 64 65 76
f 65 77 76
f 65 66 77
f 66 78 77
f 66 67 78
f 67 79 78
f 67 68 79
f 68 80 79
f 68 69 80
f 69 81 80
f 69 70 81
f 70 82 81
f 70 71 82
f 71 83 82
f 71 72 83
f 72 84 83
f 73 74 85
f 74 86 85
f 74 75 86
f 75 87 86
f 75 76 87
f 76 88 87
f 76 77 88
f 77 89 88
f 77 78 89
f 78 90 89
f 78 79 90
f 79 91 90
f 79 80 91
f 80 92 91
f 80 81 92
f 81 93 92
f 81 82 93
f 82 94 93
f 82 83 94
f 83 95 94
f 83 84 95
f 84 96 95
f 85 86 97
f 86 98 97
f 86 87 98
f 87 99 98
f 87 88 99
f 88 100 99
f 88 89 100
f 89 101 100
f 89 90 101
f 90 102 101
f 90 91 102
f 91 103 102
f 91 92 103
f 92 104 103
f 92 93 104
f 93 105 104
f 93 94 105
f 94 106 105
f 94 95 106
f 95 107 106
f 95 96 107
f 96 108 107
f 97 98 109
f 98 110 109
f 98 99 110
f 99 111 110
f 99 100 111
f 100 112 111
f 100 101 112
f 101 113 112
f 101 102 113
f 102 114 113
f 102 103 114
f 103 115 114
f 103 104 115
f 104 116 115
f 104 105 116
f 105 117 116
f 105 106 117
f 106 118 117
f 106 107 118
f 107 119 118
f 107 108 119
f 108 120 119
f 109 110 121
f 110 122 121
f 110 111 122
f 111 123 122
f 111 112 123
f 112 124 123
f 112 113 124
f 113 125 124
f 113 114 125
f 114 126 125
f 114 115 126
f 115 127 126
f 115 116 127
f 116 128 127
f 116 117 128
f 117 129 128
f 117 118 129
f 118 130 129
f 118 119 130
f 119 131 130
f 119 120 131
f 120 132 131
f 121 122 133
f 122 134 133
f 122 123 134
f 123 135 134
f 123 124 135
f 124 136 135
f 124 125 136
f 125 137 136
f 125 126 137
f 126 138 137
f 126 127 138
f 127 139 138
f 127 128 139
f 128 140 139
f 128 129 140
f 129 141 140
f 129 130 141
f 130 142 141
f 130 131 142
f 131 143 142
f 131 132 143
f 132 144 143
f 145 146 155
f 146 156 155
f 146 147 156
f 147 157 156
f 147 148 157
f 148 158 157
f 148 149 158
f 149 159 158
f 149 150 159
f 150 160 159
f 150 151 160
f 151 161 160
f 151 152 161
f 152 162 161
f 152 153 162
f 153 163 162
f 153 154 163
f 154 164 163
f 154 145 164
f 145 155 164
f 165 166 175
f 166 176 175
f 166 167 176
f 167 177 176
f 167 168 177
f 168 178 177
f 168 169 178
f 169 179 178
f 169 170 179
f 170 180 179
f 170 171 180
f 171 181 180
f 171 172 181
f 172 182 181
f 172 173 182
f 173 183 182
f 173 174 183
f 174 184 183
f 174 165 184
f 165 175 184
f 185 186 195
f 186 196 195
f 186 187 196
f 187 197 196
f 187 188 197
f 188 198 197
f 188 189 198
f 189 199 198
f 189 190 199
f 190 200 199
f 190 191 200
f 191 201 200
f 191 192 201
f 192 202 201
f 192 193 202
f 193 203 202
f 193 194 203
f 194 204 203
f 194 185 204
f 185 195 204
f 205 206 215
f 206 216 215
f 206 207 216
f 207 217 216
f 207 208 217
f 208 218 217
f 208 209 218
f 209 219 218
f 209 210 219
f 210 220 219
f 210 211 220
f 211 221 220
f 211 212 221
f 212 222 221
f 212 213 222
f 213 223 222
f 213 214 223
f 214 224 223
f 214 205 224
f 205 215 224
f 225 226 235
f 226 236 235
f 226 227 236
f 227 237 236
f 227 228 237
f 228 238 237
f 228 229 238
f 229 239 238
f 229 230 239
f 230 240 239
f 230 231 240
f 231 241 240
f 231 232 241
f 232 242 241
f 232 233 242
f 233 243 242
f 233 234 243
f 234 244 243
f 234 225 244
f 225 235 244
f 245 246 255
f 246 256 255
f 246 247 256
f 247 257 256
f 247 248 257
f 248 258 257
f 248 249 258
f 249 259 258
f 249 250 259
f 250 260 259
f 250 251 260
f 251 261 260
f 251 252 261
f 252 262 261
f 252 253 262
f 253 263 262
f 253 254 263
f 254 264 263
f 254 245 264
f 245 255 264
f 265 266 275
f 266 276 275
f 266 267 276
f 267 277 276
f 267 268 277
f 268 278 277
f 268 269 278
f 269 279 278
f 269 270 279
f 270 280 279
f 270 271 280
f 271 281 280
f 271 272 281
f 272 282 281
f 272 273 282
f 273 283 282
f 273 274 283
f 274 284 283
f 274 265 284
f 265 275 284
f 285 286 295
f 286 296 295
f 286 287 296
f 287 297 296
f 287 288 297
f 288 298 297
f 288 289 298
f 289 299 298
f 289 290 299
f 290 300 299
f 290 291 300
f 291 301 300
f 291 292 301
f 292 302 301
f 292 293 302
f 293 303 302
f 293 294 303
f 294 304 303
f 294 285 304
f 285 295 304
f 305 306 315
f 306 316 315
f 306 307 316
f 307 317 316
f 307 308 317
f 308 318 317
f 308 309 318
f 309 319 318
f 309 310 319
f 310 320 319
f 310 311 320
f 311 321 320
f 311 312 321
f 312 322 321
f 312 313 322
f 313 323 322
f 313 314 323
f 314 324 323
f 314 305 324
f 305 315 324
f 325 326 335
f 326 336 335
f 326 327 336
f 327 337 336
f 327 328 337
f 328 338 337
f 328 329 338
f 329 339 338
f 329 330 339
f 330 340 339
f 330 331 340
f 331 341 340
f 331 332 341
f 332 342 341
f 332 333 342
f 333 343 342
f 333 334 343
f 334 344 343
f 334 325 344
f 325 335 344
f 345 346 355
f 346 356 355
f 346 347 356
f 347 357 356
f 347 348 357
f 348 358 357
f 348 349 358
f 349 359 358
f 349 350 359
f 350 360 359
f 350 351 360
f 351 361 360
f 351 352 361
f 352 362 361
f 352 353 362
f 353 363 362
f 353 354 363
f 354 364 363
f 354 345 364
f 345 355 364
f 365 366 375
f 366 376 375
f 366 367 376
f 367 377 376
f 367 368 377
f 368 378 377
f 368 369 378
f 369 379 378
f 369 370 379
f 370 380 379
f 370 371 380
f 371 381 380
f 371 372 381
f 372 382 381
f 372 373 382
f 373 383 382
f 373 374 383
f 374 384 383
f 374 365 384
f 365 375 384
f 385 386 395
f 386 396 395
f 386 387 396
f 387 397 396
f 387 388 397
f 388 398 397
f 388 389 398
f 389 399 398
f 389 390 399
f 390 400 399
f 390 391 400
f 391 401 400
f 391 392 401
f 392 402 401
f 392 393 402
f 393 403 402
f 393 394 403
f 394 404 403
f 394 385 404
f 385 395 404
f 405 406 415
f 406 416 415
f 406 407 416
f 407 417 416
f 407 408 417
f 408 418 417
f 408 409 418
f 409 419 418
f 409 410 419
f 410 420 419
f 410 411 420
f 411 421 420
f 411 412 421
f 412 422 421
f 412 413 422
f 413 423 422
f 413 414 423
f 414 424 423
f 414 405 424
f 405 415 424
f 425 426 435
f 426 436 435
f 426 427 436
f 427 437 436
f 427 428 437
f 428 438 437
f 428 429 438
f 429 439 438
f 429 430 439
f 430 440 439
f 430 431 440
f 431 441 440
f 431 432 441
f 432 442 441
f 432 433 442
f 433 443 442
f 433 434 443
f 434 444 443
f 434 425 444
f 425 435 444
f 445 446 455
f 446 456 455
f 446 447 456
f 447 457 456
f 447 448 457
f 448 458 457
f 448 449 458
f 449 459 458
f 449 450 459
f 450 460 459
f 450 451 460
f 451 461 460
f 451 452 461
f 452 462 461
f 452 453 462
f 453 463 462
f 453 454 463
f 454 464 463
f 454 445 464
f 445 455 464
f 465 466 475
f 466 476 475
f 466 467 476
f 467 477 476
f 467 468 477
f 468 478 477
f 468 469 478
f 469 479 478
f 469 470 479
f 470 480 479
f 470 471 480
f 471 481 480
f 471 472 481
f 472 482 481
f 472 473 482
f 473 483 482
f 473 474 483
f 474 484 483
f 474 465 484
f 465 475 484
f 485 486 495
f 486 496 495
f 486 487 496
f 487 497 496
f 487 488 497
f 488 498 497
f 488 489 498
f 489 499 498
f 489 490 499
f 490 500 499
f 490 491 500
f 491 501 500
f 491 492 501
f 492 502 501
f 492 493 502
f 493 503 502
f 493 494 503
f 494 504 503
f 494 485 504
f 485 495 504
f 505 506 515
f 506 516 515
f 506 507 516
f 507 517 516
f 507 508 517
f 508 518 517
f 508 509 518
f 509 519 518
f 509 510 519
f 510 520 519
f 510 511 520
f 511 521 520
f 511 512 521
f 512 522 521
f 512 513 522
f 513 523 522
f 513 514 523
f 514 524 523
f 514 505 524
f 505 515 524
f 525 526 535
f 526 536 535
f 526 527 536
f 527 537 536
f 527 528 537
f 528 538 537
f 528 529 538
f 529 539 538
f 529 530 539
f 530 540 539
f 530 531 540
f 531 541 540
f 531 532 541
f 532 542 541
f 532 533 542
f 533 543 542
f 533 534 543
f 534 544 543
f 534 525 544
f 525 535 544
f 545 546 555
f 546 556 555
f 546 547 556
f 547 557 556
f 547 548 557
f 548 558 557
f 548 549 558
f 549 559 558
f 549 550 559
f 550 560 559
f 550 551 560
f 551 561 560
f 551 552 561
f 552 562 561
f 552 553 562
f 553 563 562
f 553 554 563
f 554 564 563
f 554 545 564
f 545 555 564
f 565 566 575
f 566 576 575
f 566 567 576
f 567 577 576
f 567 568 577
f 568 578 577
f 568 569 578
f 569 579 578
f 569 570 579
f 570 580 579
f 570 571 580
f 571 581 580
f 571 572 581
f 572 582 581
f 572 573 582
f 573 583 582
f 573 574 583
f 574 584 583
f 574 565 584
f 565 575 584
f 585 586 595
f 586 596 595
f 586 587 596
f 587 597 596
f 587 588 597
f 588 598 597
f 588 589 598
f 589 599 598
f 589 590 599
f 590 600 599
f 590 591 600
f 591 601 600
f 591 592 601
f 592 602 601
f 592 593 602
f 593 603 602
f 593 594 603
f 594 604 603
f 594 585 604
f 585 595 604
f 605 606 615
f 606 616 615
f 606 607 616
f 607 617 616
f 607 608 617
f 608 618 617
f 608 609 618
f 609 619 618
f 609 610 619
f 610 620 619
f 610 611 620
f 611 621 620
f 611 612 621
f 612 622 621
f 612 613 622
f 613 623 622
f 613 614 623
f 614 624 623
f 614 605 624
f 605 615 624
f 625 626 635
f 626 636 635
f 626 627 636
f 627 637 636
f 627 628 637
f 628 638 637
f 628 629 638
f 629 639 638
f 629 630 639
f 630 640 639
f 630 631 640
f 631 641 640
f 631 632 641
f 632 642 641
f 632 633 642
f 633 643 642
f 633 634 643
f 634 644 643
f 634 625 644
f 625 635 644
f 645 646 655
f 646 656 655
f 646 647 656
f 647 657 656
f 647 648 657
f 648 658 657
f 648 649 658
f 649 659 658
f 649 650 659
f 650 660 659
f 650 651 660
f 651 661 660
f 651 652 661
f 652 662 661
f 652 653 662
f 653 663 662
f 653 654 663
f 654 664 663
f 654 645 664
f 645 655 664
f 665 666 675
f 666 676 675
f 666 667 676
f 667 677 676
f 667 668 677
f 668 678 677
f 668 669 678
f 669 679 678
f 669 670 679
f 670 680 679
f 670 671 680
f 671 681 680
f 671 672 681
f 672 682 681
f 672 673 682
f 673 683 682
f 673 674 683
f 674 684 683
f 674 665 684
f 665 675 684
f 685 686 695
f 686 696 695
f 686 687 696
f 687 697 696
f 687 688 697
f 688 698 697
f 688 689 698
f 689 699 698
f 689 690 699
f 690 700 699
f 690 691 700
f 691 701 700
f 691 692 701
f 692 702 701
f 692 693 702
f 693 703 702
f 693 694 703
f 694 704 703
f 694 685 704
f 685 695 704
f 705 706 715
f 706 716 715
f 706 707 716
f 707 717 716
f 707 708 717
f 708 718 717
f 708 709 718
f 709 719 718
f 709 710 719
f 710 720 719
f 710 711 720
f 711 721 720
f 711 712 721
f 712 722 721
f 712 713 722
f 713 723 722
f 713 714 723
f 714 724 723
f 714 705 724
f 705 715 724
f 725 726 735
f 726 736 735
f 726 727 736
f 727 737 736
f 727 728 737
f 728 738 737
f 728 729 738
f 729 739 738
f 729 730 739
f 730 740 739
f 730 731 740
f 731 741 740
f 731 732 741
f 732 742 741
f 732 733 742
f 733 743 742
f 733 734 743
f 734 744 743
f 734 725 744
f 725 735 744
f 745 746 755
f 746 756 755
f 746 747 756
f 747 757 756
f 747 748 757
f 748 758 757
f 748 749 758
f 749 759 758
f 749 750 759
f 750 760 759
f 750 751 760
f 751 761 760
f 751 752 761
f 752 762 761
f 752 753 762
f 753 763 762
f 753 754 763
f 754 764 763
f 754 745 764
f 745 755 764
f 765 766 775
f 766 776 775
f 766 767 776
f 767 777 776
f 767 768 777
f 768 778 777
f 768 769 778
f 769 779 778
f 769 770 779
f 770 780 779
f 770 771 780
f 771 781 780
f 771 772 781
f 772 782 781
f 772 773 782
f 773 783 782
f 773 774 783
f 774 784 783
f 774 765 784
f 765 775 784
