# Full-Body 3D Mesh - Frame 76
v 0.020593 -0.640150 -0.106607
v 0.054401 -0.640150 -0.111468
v 0.085470 -0.640150 -0.125657
v 0.111283 -0.640150 -0.148024
v 0.129749 -0.640150 -0.176757
v 0.139371 -0.640150 -0.209529
v 0.139371 -0.640150 -0.243685
v 0.129749 -0.640150 -0.276457
v 0.111283 -0.640150 -0.305190
v 0.085470 -0.640150 -0.327557
v 0.054401 -0.640150 -0.341746
v 0.020593 -0.640150 -0.346607
v 0.020593 -0.640150 -0.106607
v 0.049034 -0.621872 -0.111468
v 0.075171 -0.605075 -0.125657
v 0.096886 -0.591120 -0.148024
v 0.112420 -0.581136 -0.176757
v 0.120516 -0.575934 -0.209529
v 0.120516 -0.575934 -0.243685
v 0.112420 -0.581136 -0.276457
v 0.096886 -0.591120 -0.305190
v 0.075171 -0.605075 -0.327557
v 0.049034 -0.621872 -0.341746
v 0.020593 -0.640150 -0.346607
v 0.020593 -0.640150 -0.106607
v 0.034637 -0.609398 -0.111468
v 0.047544 -0.581136 -0.125657
v 0.058267 -0.557656 -0.148024
v 0.065938 -0.540859 -0.176757
v 0.069935 -0.532106 -0.209529
v 0.069935 -0.532106 -0.243685
v 0.065938 -0.540859 -0.276457
v 0.058267 -0.557656 -0.305190
v 0.047544 -0.581136 -0.327557
v 0.034637 -0.609398 -0.341746
v 0.020593 -0.640150 -0.346607
v 0.020593 -0.640150 -0.106607
v 0.015781 -0.606687 -0.111468
v 0.011360 -0.575934 -0.125657
v 0.007686 -0.550383 -0.148024
v 0.005058 -0.532106 -0.176757
v 0.003689 -0.522581 -0.209529
v 0.003689 -0.522581 -0.243685
v 0.005058 -0.532106 -0.276457
v 0.007686 -0.550383 -0.305190
v 0.011360 -0.575934 -0.327557
v 0.015781 -0.606687 -0.341746
v 0.020593 -0.640150 -0.346607
v 0.020593 -0.640150 -0.106607
v -0.001547 -0.614600 -0.111468
v -0.021893 -0.591120 -0.125657
v -0.038797 -0.571611 -0.148024
v -0.050889 -0.557656 -0.176757
v -0.057191 -0.550383 -0.209529
v -0.057191 -0.550383 -0.243685
v -0.050889 -0.557656 -0.276457
v -0.038797 -0.571611 -0.305190
v -0.021893 -0.591120 -0.327557
v -0.001547 -0.614600 -0.341746
v 0.020593 -0.640150 -0.346607
v 0.020593 -0.640150 -0.106607
v -0.011846 -0.630626 -0.111468
v -0.041656 -0.621872 -0.125657
v -0.066424 -0.614600 -0.148024
v -0.084142 -0.609398 -0.176757
v -0.093374 -0.606687 -0.209529
v -0.093374 -0.606687 -0.243685
v -0.084142 -0.609398 -0.276457
v -0.066424 -0.614600 -0.305190
v -0.041656 -0.621872 -0.327557
v -0.011846 -0.630626 -0.341746
v 0.020593 -0.640150 -0.346607
v 0.020593 -0.640150 -0.106607
v -0.011846 -0.649675 -0.111468
v -0.041656 -0.658428 -0.125657
v -0.066424 -0.665701 -0.148024
v -0.084142 -0.670903 -0.176757
v -0.093374 -0.673614 -0.209529
v -0.093374 -0.673614 -0.243685
v -0.084142 -0.670903 -0.276457
v -0.066424 -0.665701 -0.305190
v -0.041656 -0.658428 -0.327557
v -0.011846 -0.649675 -0.341746
v 0.020593 -0.640150 -0.346607
v 0.020593 -0.640150 -0.106607
v -0.001547 -0.665701 -0.111468
v -0.021893 -0.689181 -0.125657
v -0.038797 -0.708689 -0.148024
v -0.050889 -0.722645 -0.176757
v -0.057191 -0.729917 -0.209529
v -0.057191 -0.729917 -0.243685
v -0.050889 -0.722645 -0.276457
v -0.038797 -0.708689 -0.305190
v -0.021893 -0.689181 -0.327557
v -0.001547 -0.665701 -0.341746
v 0.020593 -0.640150 -0.346607
v 0.020593 -0.640150 -0.106607
v 0.015781 -0.673614 -0.111468
v 0.011360 -0.704367 -0.125657
v 0.007686 -0.729917 -0.148024
v 0.005058 -0.748195 -0.176757
v 0.003689 -0.757720 -0.209529
v 0.003689 -0.757720 -0.243685
v 0.005058 -0.748195 -0.276457
v 0.007686 -0.729917 -0.305190
v 0.011360 -0.704367 -0.327557
v 0.015781 -0.673614 -0.341746
v 0.020593 -0.640150 -0.346607
v 0.020593 -0.640150 -0.106607
v 0.034637 -0.670903 -0.111468
v 0.047544 -0.699164 -0.125657
v 0.058267 -0.722645 -0.148024
v 0.065938 -0.739442 -0.176757
v 0.069935 -0.748195 -0.209529
v 0.069935 -0.748195 -0.243685
v 0.065938 -0.739442 -0.276457
v 0.058267 -0.722645 -0.305190
v 0.047544 -0.699164 -0.327557
v 0.034637 -0.670903 -0.341746
v 0.020593 -0.640150 -0.346607
v 0.020593 -0.640150 -0.106607
v 0.049034 -0.658428 -0.111468
v 0.075171 -0.675225 -0.125657
v 0.096886 -0.689181 -0.148024
v 0.112420 -0.699164 -0.176757
v 0.120516 -0.704367 -0.209529
v 0.120516 -0.704367 -0.243685
v 0.112420 -0.699164 -0.276457
v 0.096886 -0.689181 -0.305190
v 0.075171 -0.675225 -0.327557
v 0.049034 -0.658428 -0.341746
v 0.020593 -0.640150 -0.346607
v 0.020593 -0.640150 -0.106607
v 0.054401 -0.640150 -0.111468
v 0.085470 -0.640150 -0.125657
v 0.111283 -0.640150 -0.148024
v 0.129749 -0.640150 -0.176757
v 0.139371 -0.640150 -0.209529
v 0.139371 -0.640150 -0.243685
v 0.129749 -0.640150 -0.276457
v 0.111283 -0.640150 -0.305190
v 0.085470 -0.640150 -0.327557
v 0.054401 -0.640150 -0.341746
v 0.020593 -0.640150 -0.346607
v 0.176402 -0.452332 -0.060767
v 0.177176 -0.475833 -0.053135
v 0.177806 -0.490358 -0.033141
v 0.178050 -0.490358 -0.008421
v 0.177816 -0.475833 0.011583
v 0.177192 -0.452332 0.019229
v 0.176418 -0.428831 0.011597
v 0.175788 -0.414307 -0.008398
v 0.175544 -0.414307 -0.033118
v 0.175778 -0.428831 -0.053122
v -0.150743 -0.462063 -0.057534
v -0.149969 -0.485564 -0.049902
v -0.149339 -0.500088 -0.029907
v -0.149095 -0.500088 -0.005187
v -0.149329 -0.485564 0.014817
v -0.149953 -0.462063 0.022462
v -0.150727 -0.438562 0.014830
v -0.151357 -0.424038 -0.005164
v -0.151601 -0.424038 -0.029885
v -0.151367 -0.438562 -0.049888
v 0.176797 -0.472240 -0.055463
v 0.153820 -0.464116 -0.051318
v 0.139619 -0.451490 -0.035504
v 0.139619 -0.439186 -0.014062
v 0.153820 -0.431904 0.004818
v 0.176797 -0.432425 0.013925
v 0.199774 -0.440549 0.009779
v 0.213975 -0.453175 -0.006035
v 0.213975 -0.465479 -0.027477
v 0.199774 -0.472761 -0.046357
v 0.231535 -0.253355 -0.181063
v 0.208558 -0.245230 -0.176917
v 0.194358 -0.232604 -0.161103
v 0.194358 -0.220300 -0.139661
v 0.208558 -0.213018 -0.120781
v 0.231535 -0.213539 -0.111675
v 0.254513 -0.221664 -0.115820
v 0.268713 -0.234289 -0.131634
v 0.268713 -0.246593 -0.153076
v 0.254513 -0.253875 -0.171956
v 0.231535 -0.271254 -0.133306
v 0.208555 -0.262411 -0.131106
v 0.194352 -0.242505 -0.134736
v 0.194352 -0.219139 -0.142809
v 0.208555 -0.201238 -0.152242
v 0.231535 -0.195640 -0.159431
v 0.254516 -0.204482 -0.161631
v 0.268719 -0.224388 -0.158001
v 0.268719 -0.247754 -0.149928
v 0.254516 -0.265655 -0.140496
v 0.171767 -0.361556 -0.394675
v 0.148786 -0.352714 -0.392475
v 0.134584 -0.332808 -0.396104
v 0.134584 -0.309442 -0.404177
v 0.148786 -0.291541 -0.413610
v 0.171767 -0.285942 -0.420799
v 0.194748 -0.294785 -0.422999
v 0.208951 -0.314691 -0.419370
v 0.208951 -0.338057 -0.411297
v 0.194748 -0.355958 -0.401864
v -0.150348 -0.457938 -0.057322
v -0.171851 -0.468183 -0.050704
v -0.185141 -0.476090 -0.031417
v -0.185141 -0.478639 -0.006827
v -0.171851 -0.474857 0.013672
v -0.150348 -0.466188 0.022251
v -0.128845 -0.455943 0.015633
v -0.115555 -0.448036 -0.003655
v -0.115555 -0.445487 -0.028244
v -0.128845 -0.449269 -0.048743
v -0.243264 -0.248906 -0.035652
v -0.264768 -0.259150 -0.029034
v -0.278057 -0.267057 -0.009746
v -0.278057 -0.269606 0.014843
v -0.264768 -0.265824 0.035343
v -0.243264 -0.257155 0.043922
v -0.221761 -0.246911 0.037304
v -0.208471 -0.239004 0.018016
v -0.208471 -0.236454 -0.006573
v -0.221761 -0.240237 -0.027073
v -0.243264 -0.284088 -0.021073
v -0.263597 -0.270717 -0.025424
v -0.276163 -0.250590 -0.018486
v -0.276163 -0.231396 -0.002906
v -0.263597 -0.220465 0.015362
v -0.243264 -0.221973 0.029343
v -0.222931 -0.235344 0.033694
v -0.210365 -0.255470 0.026756
v -0.210365 -0.274665 0.011176
v -0.222931 -0.285596 -0.007092
v -0.160496 -0.194250 -0.131759
v -0.180829 -0.180879 -0.136111
v -0.193395 -0.160752 -0.129172
v -0.193395 -0.141558 -0.113593
v -0.180829 -0.130627 -0.095324
v -0.160496 -0.132135 -0.081344
v -0.140163 -0.145506 -0.076992
v -0.127597 -0.165633 -0.083931
v -0.127597 -0.184827 -0.099510
v -0.140163 -0.195758 -0.117779
v 0.176797 -0.448838 -0.060616
v 0.153421 -0.452015 -0.053226
v 0.138974 -0.455313 -0.033439
v 0.138974 -0.457473 -0.008812
v 0.153421 -0.457669 0.011247
v 0.176797 -0.455827 0.019078
v 0.200173 -0.452650 0.011688
v 0.214620 -0.449352 -0.008100
v 0.214620 -0.447192 -0.032727
v 0.200173 -0.446996 -0.052786
v 0.127875 0.003421 -0.020952
v 0.104499 0.000245 -0.013562
v 0.090052 -0.003054 0.006225
v 0.090052 -0.005213 0.030852
v 0.104499 -0.005410 0.050912
v 0.127875 -0.003568 0.058742
v 0.151251 -0.000391 0.051352
v 0.165698 0.002907 0.031564
v 0.165698 0.005067 0.006937
v 0.151251 0.005263 -0.013122
v -0.150348 -0.461830 -0.057535
v -0.173829 -0.460685 -0.049889
v -0.188341 -0.460067 -0.029885
v -0.188341 -0.460211 -0.005164
v -0.173829 -0.461063 0.014831
v -0.150348 -0.462296 0.022464
v -0.126867 -0.463441 0.014818
v -0.112354 -0.464059 -0.005186
v -0.112354 -0.463915 -0.029907
v -0.126867 -0.463063 -0.049903
v -0.127725 -0.015111 -0.054930
v -0.151207 -0.013966 -0.047283
v -0.165719 -0.013348 -0.027279
v -0.165719 -0.013492 -0.002559
v -0.151207 -0.014344 0.017437
v -0.127725 -0.015577 0.025069
v -0.104244 -0.016722 0.017423
v -0.089732 -0.017340 -0.002581
v -0.089732 -0.017196 -0.027302
v -0.104244 -0.016345 -0.047297
v 0.133123 -0.000073 -0.020760
v 0.133499 -0.023544 -0.013004
v 0.131727 -0.038049 0.006936
v 0.128483 -0.038049 0.031444
v 0.125008 -0.023544 0.051158
v 0.122627 -0.000073 0.058549
v 0.122252 0.023397 0.050793
v 0.124024 0.037902 0.030853
v 0.127267 0.037902 0.006346
v 0.130742 0.023397 -0.013369
v -0.122478 -0.015344 -0.054585
v -0.122102 -0.038814 -0.046829
v -0.123874 -0.053320 -0.026889
v -0.127117 -0.053320 -0.002381
v -0.130593 -0.038814 0.017333
v -0.132973 -0.015344 0.024724
v -0.133349 0.008126 0.016968
v -0.131577 0.022632 -0.002971
v -0.128334 0.022632 -0.027479
v -0.124858 0.008126 -0.047194
v 0.127875 -0.027574 -0.010152
v 0.104645 -0.019690 -0.007096
v 0.090287 -0.004313 0.005887
v 0.090287 0.012683 0.023839
v 0.104645 0.024807 0.039903
v 0.127875 0.027427 0.047942
v 0.151106 0.019543 0.044886
v 0.165463 0.004167 0.031902
v 0.165463 -0.012829 0.013950
v 0.151106 -0.024953 -0.002113
v 0.150054 0.075666 -0.107895
v 0.126823 0.083550 -0.104839
v 0.112466 0.098927 -0.091856
v 0.112466 0.115923 -0.073904
v 0.126823 0.128046 -0.057840
v 0.150054 0.130667 -0.049801
v 0.173284 0.122783 -0.052857
v 0.187641 0.107407 -0.065841
v 0.187641 0.090410 -0.083793
v 0.173284 0.078287 -0.099856
v 0.150054 0.126981 -0.110986
v 0.126630 0.124059 -0.103644
v 0.112153 0.113156 -0.086830
v 0.112153 0.098438 -0.066968
v 0.126630 0.085526 -0.051643
v 0.150054 0.079352 -0.046710
v 0.173478 0.082275 -0.054052
v 0.187955 0.093177 -0.070866
v 0.187955 0.107895 -0.090729
v 0.173478 0.120807 -0.106053
v 0.178617 0.392677 0.085895
v 0.155193 0.389754 0.093238
v 0.140716 0.378851 0.110051
v 0.140716 0.364133 0.129914
v 0.155193 0.351221 0.145239
v 0.178617 0.345047 0.150172
v 0.202041 0.347970 0.142829
v 0.216518 0.358873 0.126016
v 0.216518 0.373591 0.106153
v 0.202041 0.386503 0.090829
v -0.127725 -0.054509 -0.006799
v -0.150508 -0.048210 -0.014040
v -0.164588 -0.029358 -0.021621
v -0.164588 -0.005152 -0.026646
v -0.150508 0.015160 -0.027197
v -0.127725 0.023821 -0.023061
v -0.104943 0.017522 -0.015820
v -0.090863 -0.001331 -0.008239
v -0.090863 -0.025536 -0.003214
v -0.104943 -0.045848 -0.002664
v -0.081430 -0.091415 -0.184562
v -0.104213 -0.085116 -0.191803
v -0.118293 -0.066264 -0.199384
v -0.118293 -0.042059 -0.204409
v -0.104213 -0.021746 -0.204959
v -0.081430 -0.013086 -0.200824
v -0.058648 -0.019385 -0.193583
v -0.044568 -0.038237 -0.186002
v -0.044568 -0.062442 -0.180977
v -0.058648 -0.082755 -0.180426
v -0.081430 -0.050552 -0.232657
v -0.104922 -0.049912 -0.224983
v -0.119441 -0.050166 -0.204976
v -0.119441 -0.051215 -0.180277
v -0.104922 -0.052660 -0.160320
v -0.081430 -0.053949 -0.152729
v -0.057939 -0.054588 -0.160402
v -0.043420 -0.054335 -0.180410
v -0.043420 -0.053286 -0.205109
v -0.057939 -0.051841 -0.225065
v -0.070309 0.219937 -0.221163
v -0.093801 0.220577 -0.213489
v -0.108319 0.220324 -0.193482
v -0.108319 0.219274 -0.168783
v -0.093801 0.217829 -0.148826
v -0.070309 0.216541 -0.141235
v -0.046817 0.215901 -0.148908
v -0.032299 0.216154 -0.168915
v -0.032299 0.217204 -0.193615
v -0.046817 0.218649 -0.213571
v 0.003346 0.075048 0.031451
v -0.003020 0.081692 0.030323
v -0.006954 0.087331 0.024105
v -0.006954 0.089811 0.015172
v -0.003020 0.088185 0.006937
v 0.003346 0.083074 0.002545
v 0.009712 0.076430 0.003673
v 0.013647 0.070791 0.009891
v 0.013647 0.068311 0.018824
v 0.009712 0.069937 0.027059
v -0.021462 0.050101 0.024525
v -0.027828 0.056745 0.023397
v -0.031762 0.062384 0.017178
v -0.031762 0.064864 0.008246
v -0.027828 0.063238 0.000011
v -0.021462 0.058127 -0.004382
v -0.015096 0.051483 -0.003253
v -0.011161 0.045844 0.002965
v -0.011161 0.043364 0.011898
v -0.015096 0.044990 0.020133
v -0.021462 0.055072 0.025041
v -0.029532 0.058433 0.021956
v -0.034519 0.060145 0.014331
v -0.034519 0.059553 0.005079
v -0.029532 0.056884 -0.002265
v -0.021462 0.053156 -0.004898
v -0.013392 0.049795 -0.001812
v -0.008405 0.048083 0.005813
v -0.008405 0.048675 0.015064
v -0.013392 0.051344 0.022409
v -0.034007 0.026624 0.026861
v -0.042077 0.029986 0.023775
v -0.047064 0.031697 0.016150
v -0.047064 0.031105 0.006899
v -0.042077 0.028436 -0.000446
v -0.034007 0.024709 -0.003078
v -0.025937 0.021348 0.000008
v -0.020949 0.019636 0.007632
v -0.020949 0.020228 0.016884
v -0.025937 0.022897 0.024229
v -0.034007 0.020799 0.026079
v -0.042213 0.024778 0.024416
v -0.047285 0.029096 0.017969
v -0.047285 0.032105 0.009200
v -0.042213 0.032654 0.001459
v -0.034007 0.030535 -0.002297
v -0.025801 0.026556 -0.000633
v -0.020729 0.022237 0.005814
v -0.020729 0.019228 0.014583
v -0.025801 0.018679 0.022324
v -0.045958 -0.007976 0.016207
v -0.054164 -0.003997 0.014543
v -0.059236 0.000322 0.008096
v -0.059236 0.003330 -0.000673
v -0.054164 0.003880 -0.008413
v -0.045958 0.001760 -0.012169
v -0.037752 -0.002219 -0.010506
v -0.032680 -0.006538 -0.004059
v -0.032680 -0.009546 0.004710
v -0.037752 -0.010096 0.012451
v -0.045958 -0.007591 0.016333
v -0.054766 -0.006346 0.013721
v -0.060209 -0.003864 0.006639
v -0.060209 -0.001094 -0.002208
v -0.054766 0.000908 -0.009440
v -0.045958 0.001375 -0.012296
v -0.037151 0.000130 -0.009684
v -0.031708 -0.002352 -0.002602
v -0.031708 -0.005122 0.006245
v -0.037151 -0.007123 0.013478
v -0.047191 -0.033031 0.008366
v -0.055999 -0.031786 0.005754
v -0.061442 -0.029304 -0.001328
v -0.061442 -0.026534 -0.010175
v -0.055999 -0.024532 -0.017407
v -0.047191 -0.024065 -0.020263
v -0.038384 -0.025310 -0.017651
v -0.032941 -0.027792 -0.010569
v -0.032941 -0.030562 -0.001722
v -0.038384 -0.032563 0.005511
v 0.003346 0.075972 0.031677
v -0.005330 0.078097 0.029196
v -0.010692 0.080591 0.022057
v -0.010692 0.082500 0.012985
v -0.005330 0.083095 0.005446
v 0.003346 0.082150 0.002319
v 0.012022 0.080024 0.004800
v 0.017384 0.077531 0.011939
v 0.017384 0.075622 0.021011
v 0.012022 0.075027 0.028550
v -0.011608 -0.004952 0.014649
v -0.020284 -0.002826 0.012168
v -0.025647 -0.000333 0.005029
v -0.025647 0.001576 -0.004043
v -0.020284 0.002171 -0.011582
v -0.011608 0.001226 -0.014708
v -0.002932 -0.000900 -0.012228
v 0.002430 -0.003393 -0.005089
v 0.002430 -0.005302 0.003983
v -0.002932 -0.005897 0.011522
v -0.011608 -0.000321 0.014891
v -0.019359 0.003566 0.011609
v -0.024149 0.005379 0.003881
v -0.024149 0.004426 -0.005340
v -0.019359 0.001070 -0.012533
v -0.011608 -0.003405 -0.014950
v -0.003858 -0.007292 -0.011669
v 0.000932 -0.009105 -0.003941
v 0.000932 -0.008152 0.005280
v -0.003858 -0.004796 0.012473
v -0.022447 -0.020198 0.016945
v -0.030197 -0.016311 0.013664
v -0.034987 -0.014498 0.005936
v -0.034987 -0.015452 -0.003285
v -0.030197 -0.018807 -0.010478
v -0.022447 -0.023283 -0.012896
v -0.014697 -0.027170 -0.009614
v -0.009907 -0.028983 -0.001886
v -0.009907 -0.028029 0.007335
v -0.014697 -0.024674 0.014528
v -0.022447 -0.012870 0.014121
v -0.027985 -0.009032 0.007754
v -0.031408 -0.010048 -0.000802
v -0.031408 -0.015531 -0.008277
v -0.027985 -0.023385 -0.011818
v -0.022447 -0.030611 -0.010071
v -0.016908 -0.034449 -0.003704
v -0.013485 -0.033432 0.004851
v -0.013485 -0.027950 0.012327
v -0.016908 -0.020096 0.015868
v -0.034415 -0.020662 0.019835
v -0.039954 -0.016824 0.013468
v -0.043377 -0.017840 0.004913
v -0.043377 -0.023323 -0.002563
v -0.039954 -0.031177 -0.006103
v -0.034415 -0.038403 -0.004356
v -0.028877 -0.042241 0.002011
v -0.025454 -0.041224 0.010566
v -0.025454 -0.035742 0.018042
v -0.028877 -0.027888 0.021582
v -0.034415 -0.024174 -0.006271
v -0.040268 -0.031357 -0.005951
v -0.043885 -0.037842 -0.000401
v -0.043885 -0.041154 0.008258
v -0.040268 -0.040026 0.016719
v -0.034415 -0.034890 0.021750
v -0.028563 -0.027708 0.021430
v -0.024946 -0.021222 0.015880
v -0.024946 -0.017911 0.007221
v -0.028563 -0.019038 -0.001240
v -0.045119 -0.015301 -0.002877
v -0.050972 -0.022483 -0.002557
v -0.054589 -0.028969 0.002992
v -0.054589 -0.032280 0.011651
v -0.050972 -0.031153 0.020112
v -0.045119 -0.026017 0.025143
v -0.039267 -0.018835 0.024823
v -0.035650 -0.012349 0.019274
v -0.035650 -0.009038 0.010615
v -0.039267 -0.010165 0.002154
v 0.003346 0.076322 0.031746
v -0.005460 0.077272 0.029009
v -0.010902 0.078906 0.021684
v -0.010902 0.080598 0.012569
v -0.005460 0.081704 0.005146
v 0.003346 0.081800 0.002250
v 0.012152 0.080849 0.004987
v 0.017595 0.079216 0.012312
v 0.017595 0.077523 0.021427
v 0.012152 0.076418 0.028850
v -0.000715 -0.004609 0.016717
v -0.009521 -0.003659 0.013980
v -0.014964 -0.002025 0.006655
v -0.014964 -0.000333 -0.002460
v -0.009521 0.000773 -0.009883
v -0.000715 0.000868 -0.012779
v 0.008091 -0.000082 -0.010042
v 0.013533 -0.001715 -0.002717
v 0.013533 -0.003408 0.006398
v 0.008091 -0.004513 0.013821
v -0.000715 -0.002150 0.016966
v -0.009020 0.000865 0.014157
v -0.014152 0.002835 0.006693
v -0.014152 0.003008 -0.002576
v -0.009020 0.001317 -0.010109
v -0.000715 -0.001591 -0.013028
v 0.007589 -0.004605 -0.010219
v 0.012722 -0.006575 -0.002755
v 0.012722 -0.006748 0.006514
v 0.007589 -0.005058 0.014047
v -0.009171 -0.025856 0.016524
v -0.017476 -0.022841 0.013715
v -0.022608 -0.020871 0.006251
v -0.022608 -0.020699 -0.003018
v -0.017476 -0.022389 -0.010551
v -0.009171 -0.025297 -0.013470
v -0.000867 -0.028312 -0.010661
v 0.004265 -0.030282 -0.003197
v 0.004265 -0.030454 0.006072
v -0.000867 -0.028764 0.013605
v -0.014027 -0.025576 -0.012665
v -0.011273 -0.034179 -0.010580
v -0.007715 -0.039496 -0.003870
v -0.004714 -0.039496 0.004901
v -0.003415 -0.034179 0.012384
v -0.004315 -0.025576 0.015719
v -0.007070 -0.016974 0.013634
v -0.010628 -0.011657 0.006924
v -0.013629 -0.011657 -0.001847
v -0.014927 -0.016974 -0.009329
v -0.032864 -0.030046 -0.006220
v -0.030109 -0.038649 -0.004135
v -0.026552 -0.043966 0.002575
v -0.023551 -0.043966 0.011346
v -0.022252 -0.038649 0.018829
v -0.023152 -0.030046 0.022164
v -0.025907 -0.021444 0.020079
v -0.029464 -0.016127 0.013370
v -0.032466 -0.016127 0.004598
v -0.033764 -0.021444 -0.002884
v -0.028008 -0.016780 0.000971
v -0.036824 -0.019249 0.002431
v -0.042272 -0.025842 0.006006
v -0.042272 -0.034041 0.010333
v -0.036824 -0.040714 0.013758
v -0.028008 -0.043312 0.014973
v -0.019193 -0.040843 0.013514
v -0.013744 -0.034250 0.009938
v -0.013744 -0.026051 0.005611
v -0.019193 -0.019378 0.002186
v -0.027837 -0.011678 0.010640
v -0.036653 -0.014147 0.012099
v -0.042101 -0.020740 0.015675
v -0.042101 -0.028939 0.020002
v -0.036653 -0.035612 0.023427
v -0.027837 -0.038210 0.024642
v -0.019021 -0.035741 0.023183
v -0.013573 -0.029147 0.019607
v -0.013573 -0.020949 0.015280
v -0.019021 -0.014276 0.011855
v 0.003346 0.075812 0.031642
v -0.005456 0.075944 0.028737
v -0.010897 0.077266 0.021348
v -0.010897 0.079274 0.012297
v -0.005456 0.081201 0.005043
v 0.003346 0.082310 0.002354
v 0.012149 0.082178 0.005259
v 0.017589 0.080856 0.012648
v 0.017589 0.078847 0.021699
v 0.012149 0.076921 0.028954
v 0.007983 -0.003801 0.013976
v -0.000820 -0.003669 0.011071
v -0.006260 -0.002346 0.003682
v -0.006260 -0.000338 -0.005368
v -0.000820 0.001588 -0.012623
v 0.007983 0.002698 -0.015311
v 0.016785 0.002566 -0.012406
v 0.022225 0.001243 -0.005017
v 0.022225 -0.000765 0.004033
v 0.016785 -0.002692 0.011288
v 0.007983 0.000181 0.014315
v 0.000534 0.004753 0.011223
v -0.004069 0.007299 0.003589
v -0.004069 0.006846 -0.005670
v 0.000534 0.003567 -0.013019
v 0.007983 -0.001285 -0.015650
v 0.015431 -0.005857 -0.012558
v 0.020034 -0.008402 -0.004924
v 0.020034 -0.007950 0.004335
v 0.015431 -0.004671 0.011684
v -0.002163 -0.015818 0.015097
v -0.009611 -0.011246 0.012005
v -0.014215 -0.008700 0.004372
v -0.014215 -0.009153 -0.004888
v -0.009611 -0.012432 -0.012236
v -0.002163 -0.017284 -0.014867
v 0.005285 -0.021856 -0.011775
v 0.009889 -0.024402 -0.004142
v 0.009889 -0.023949 0.005118
v 0.005285 -0.020670 0.012466
v -0.002163 -0.005974 0.010751
v -0.008106 -0.003376 0.004128
v -0.011779 -0.005810 -0.004029
v -0.011779 -0.012347 -0.010602
v -0.008106 -0.020489 -0.013082
v -0.002163 -0.027128 -0.010521
v 0.003780 -0.029726 -0.003897
v 0.007453 -0.027292 0.004259
v 0.007453 -0.020755 0.010833
v 0.003780 -0.012612 0.013313
v -0.013052 -0.013019 0.017757
v -0.018995 -0.010421 0.011133
v -0.022668 -0.012855 0.002977
v -0.022668 -0.019392 -0.003597
v -0.018995 -0.027535 -0.006076
v -0.013052 -0.034173 -0.003515
v -0.007109 -0.036771 0.003109
v -0.003436 -0.034337 0.011265
v -0.003436 -0.027800 0.017839
v -0.007109 -0.019658 0.020318
v -0.013052 -0.009362 0.002390
v -0.021669 -0.012670 0.001520
v -0.026994 -0.020151 0.002790
v -0.026994 -0.028948 0.005714
v -0.021669 -0.035701 0.009175
v -0.013052 -0.037830 0.011852
v -0.004436 -0.034523 0.012722
v 0.000890 -0.027041 0.011452
v 0.000890 -0.018244 0.008528
v -0.004436 -0.011491 0.005067
v -0.015675 -0.005547 0.013867
v -0.024291 -0.008855 0.012997
v -0.029617 -0.016336 0.014267
v -0.029617 -0.025134 0.017191
v -0.024291 -0.031887 0.020652
v -0.015675 -0.034016 0.023329
v -0.007058 -0.030708 0.024199
v -0.001733 -0.023226 0.022929
v -0.001733 -0.014429 0.020005
v -0.007058 -0.007676 0.016544
v 0.003346 0.075933 0.031668
v -0.005436 0.075766 0.028703
v -0.010863 0.076858 0.021268
v -0.010863 0.078791 0.012201
v -0.005436 0.080827 0.004967
v 0.003346 0.082189 0.002328
v 0.012128 0.082356 0.005293
v 0.017556 0.081264 0.012728
v 0.017556 0.079331 0.021795
v 0.012128 0.077295 0.029029
v 0.009575 0.007483 0.017072
v 0.000793 0.007316 0.014108
v -0.004635 0.008407 0.006672
v -0.004635 0.010341 -0.002395
v 0.000793 0.012377 -0.009629
v 0.009575 0.013739 -0.012268
v 0.018357 0.013906 -0.009303
v 0.023784 0.012814 -0.001867
v 0.023784 0.010881 0.007199
v 0.018357 0.008844 0.014434
v 0.009575 0.009561 0.017365
v 0.000911 0.011392 0.014622
v -0.004444 0.012925 0.007211
v -0.004444 0.013574 -0.002037
v 0.000911 0.013091 -0.009589
v 0.009575 0.011661 -0.012561
v 0.018239 0.009830 -0.009818
v 0.023593 0.008297 -0.002407
v 0.023593 0.007648 0.006841
v 0.018239 0.008131 0.014393
v 0.006887 -0.004649 0.016368
v -0.001777 -0.002818 0.013625
v -0.007131 -0.001285 0.006214
v -0.007131 -0.000636 -0.003034
v -0.001777 -0.001119 -0.010586
v 0.006887 -0.002549 -0.013558
v 0.015551 -0.004380 -0.010815
v 0.020906 -0.005913 -0.003404
v 0.020906 -0.006562 0.005844
v 0.015551 -0.006079 0.013396
v 0.006887 0.001555 0.015492
v -0.000230 0.005458 0.011013
v -0.004628 0.005901 0.002865
v -0.004628 0.002716 -0.005841
v -0.000230 -0.002882 -0.011780
v 0.006887 -0.008753 -0.012682
v 0.014004 -0.012656 -0.008203
v 0.018403 -0.013100 -0.000054
v 0.018403 -0.009914 0.008652
v 0.014004 -0.004316 0.014590
v -0.002048 -0.009920 0.019691
v -0.009165 -0.006017 0.015212
v -0.013564 -0.005574 0.007063
v -0.013564 -0.008760 -0.001643
v -0.009165 -0.014357 -0.007581
v -0.002048 -0.020229 -0.008483
v 0.005069 -0.024132 -0.004004
v 0.009468 -0.024575 0.004145
v 0.009468 -0.021389 0.012851
v 0.005069 -0.015792 0.018789
v -0.002048 -0.000270 0.008017
v -0.008210 -0.002083 0.001333
v -0.012018 -0.008858 -0.003720
v -0.012018 -0.018008 -0.005212
v -0.008210 -0.026037 -0.002572
v -0.002048 -0.029879 0.003191
v 0.004114 -0.028066 0.009875
v 0.007922 -0.021291 0.014928
v 0.007922 -0.012141 0.016420
v 0.004114 -0.004112 0.013780
v -0.005812 -0.000862 0.011647
v -0.011974 -0.002674 0.004963
v -0.015782 -0.009450 -0.000091
v -0.015782 -0.018599 -0.001582
v -0.011974 -0.026629 0.001057
v -0.005812 -0.030471 0.006820
v 0.000350 -0.028658 0.013505
v 0.004159 -0.021883 0.018558
v 0.004159 -0.012733 0.020050
v 0.000350 -0.004704 0.017410
f 1 2 13
f 2 14 13
f 2 3 14
f 3 15 14
f 3 4 15
f 4 16 15
f 4 5 16
f 5 17 16
f 5 6 17
f 6 18 17
f 6 7 18
f 7 19 18
f 7 8 19
f 8 20 19
f 8 9 20
f 9 21 20
f 9 10 21
f 10 22 21
f 10 11 22
f 11 23 22
f 11 12 23
f 12 24 23
f 13 14 25
f 14 26 25
f 14 15 26
f 15 27 26
f 15 16 27
f 16 28 27
f 16 17 28
f 17 29 28
f 17 18 29
f 18 30 29
f 18 19 30
f 19 31 30
f 19 20 31
f 20 32 31
f 20 21 32
f 21 33 32
f 21 22 33
f 22 34 33
f 22 23 34
f 23 35 34
f 23 24 35
f 24 36 35
f 25 26 37
f 26 38 37
f 26 27 38
f 27 39 38
f 27 28 39
f 28 40 39
f 28 29 40
f 29 41 40
f 29 30 41
f 30 42 41
f 30 31 42
f 31 43 42
f 31 32 43
f 32 44 43
f 32 33 44
f 33 45 44
f 33 34 45
f 34 46 45
f 34 35 46
f 35 47 46
f 35 36 47
f 36 48 47
f 37 38 49
f 38 50 49
f 38 39 50
f 39 51 50
f 39 40 51
f 40 52 51
f 40 41 52
f 41 53 52
f 41 42 53
f 42 54 53
f 42 43 54
f 43 55 54
f 43 44 55
f 44 56 55
f 44 45 56
f 45 57 56
f 45 46 57
f 46 58 57
f 46 47 58
f 47 59 58
f 47 48 59
f 48 60 59
f 49 50 61
f 50 62 61
f 50 51 62
f 51 63 62
f 51 52 63
f 52 64 63
f 52 53 64
f 53 65 64
f 53 54 65
f 54 66 65
f 54 55 66
f 55 67 66
f 55 56 67
f 56 68 67
f 56 57 68
f 57 69 68
f 57 58 69
f 58 70 69
f 58 59 70
f 59 71 70
f 59 60 71
f 60 72 71
f 61 62 73
f 62 74 73
f 62 63 74
f 63 75 74
f 63 64 75
f 64 76 75
f 64 65 76
f 65 77 76
f 65 66 77
f 66 78 77
f 66 67 78
f 67 79 78
f 67 68 79
f 68 80 79
f 68 69 80
f 69 81 80
f 69 70 81
f 70 82 81
f 70 71 82
f 71 83 82
f 71 72 83
f 72 84 83
f 73 74 85
f 74 86 85
f 74 75 86
f 75 87 86
f 75 76 87
f 76 88 87
f 76 77 88
f 77 89 88
f 77 78 89
f 78 90 89
f 78 79 90
f 79 91 90
f 79 80 91
f 80 92 91
f 80 81 92
f 81 93 92
f 81 82 93
f 82 94 93
f 82 83 94
f 83 95 94
f 83 84 95
f 84 96 95
f 85 86 97
f 86 98 97
f 86 87 98
f 87 99 98
f 87 88 99
f 88 100 99
f 88 89 100
f 89 101 100
f 89 90 101
f 90 102 101
f 90 91 102
f 91 103 102
f 91 92 103
f 92 104 103
f 92 93 104
f 93 105 104
f 93 94 105
f 94 106 105
f 94 95 106
f 95 107 106
f 95 96 107
f 96 108 107
f 97 98 109
f 98 110 109
f 98 99 110
f 99 111 110
f 99 100 111
f 100 112 111
f 100 101 112
f 101 113 112
f 101 102 113
f 102 114 113
f 102 103 114
f 103 115 114
f 103 104 115
f 104 116 115
f 104 105 116
f 105 117 116
f 105 106 117
f 106 118 117
f 106 107 118
f 107 119 118
f 107 108 119
f 108 120 119
f 109 110 121
f 110 122 121
f 110 111 122
f 111 123 122
f 111 112 123
f 112 124 123
f 112 113 124
f 113 125 124
f 113 114 125
f 114 126 125
f 114 115 126
f 115 127 126
f 115 116 127
f 116 128 127
f 116 117 128
f 117 129 128
f 117 118 129
f 118 130 129
f 118 119 130
f 119 131 130
f 119 120 131
f 120 132 131
f 121 122 133
f 122 134 133
f 122 123 134
f 123 135 134
f 123 124 135
f 124 136 135
f 124 125 136
f 125 137 136
f 125 126 137
f 126 138 137
f 126 127 138
f 127 139 138
f 127 128 139
f 128 140 139
f 128 129 140
f 129 141 140
f 129 130 141
f 130 142 141
f 130 131 142
f 131 143 142
f 131 132 143
f 132 144 143
f 145 146 155
f 146 156 155
f 146 147 156
f 147 157 156
f 147 148 157
f 148 158 157
f 148 149 158
f 149 159 158
f 149 150 159
f 150 160 159
f 150 151 160
f 151 161 160
f 151 152 161
f 152 162 161
f 152 153 162
f 153 163 162
f 153 154 163
f 154 164 163
f 154 145 164
f 145 155 164
f 165 166 175
f 166 176 175
f 166 167 176
f 167 177 176
f 167 168 177
f 168 178 177
f 168 169 178
f 169 179 178
f 169 170 179
f 170 180 179
f 170 171 180
f 171 181 180
f 171 172 181
f 172 182 181
f 172 173 182
f 173 183 182
f 173 174 183
f 174 184 183
f 174 165 184
f 165 175 184
f 185 186 195
f 186 196 195
f 186 187 196
f 187 197 196
f 187 188 197
f 188 198 197
f 188 189 198
f 189 199 198
f 189 190 199
f 190 200 199
f 190 191 200
f 191 201 200
f 191 192 201
f 192 202 201
f 192 193 202
f 193 203 202
f 193 194 203
f 194 204 203
f 194 185 204
f 185 195 204
f 205 206 215
f 206 216 215
f 206 207 216
f 207 217 216
f 207 208 217
f 208 218 217
f 208 209 218
f 209 219 218
f 209 210 219
f 210 220 219
f 210 211 220
f 211 221 220
f 211 212 221
f 212 222 221
f 212 213 222
f 213 223 222
f 213 214 223
f 214 224 223
f 214 205 224
f 205 215 224
f 225 226 235
f 226 236 235
f 226 227 236
f 227 237 236
f 227 228 237
f 228 238 237
f 228 229 238
f 229 239 238
f 229 230 239
f 230 240 239
f 230 231 240
f 231 241 240
f 231 232 241
f 232 242 241
f 232 233 242
f 233 243 242
f 233 234 243
f 234 244 243
f 234 225 244
f 225 235 244
f 245 246 255
f 246 256 255
f 246 247 256
f 247 257 256
f 247 248 257
f 248 258 257
f 248 249 258
f 249 259 258
f 249 250 259
f 250 260 259
f 250 251 260
f 251 261 260
f 251 252 261
f 252 262 261
f 252 253 262
f 253 263 262
f 253 254 263
f 254 264 263
f 254 245 264
f 245 255 264
f 265 266 275
f 266 276 275
f 266 267 276
f 267 277 276
f 267 268 277
f 268 278 277
f 268 269 278
f 269 279 278
f 269 270 279
f 270 280 279
f 270 271 280
f 271 281 280
f 271 272 281
f 272 282 281
f 272 273 282
f 273 283 282
f 273 274 283
f 274 284 283
f 274 265 284
f 265 275 284
f 285 286 295
f 286 296 295
f 286 287 296
f 287 297 296
f 287 288 297
f 288 298 297
f 288 289 298
f 289 299 298
f 289 290 299
f 290 300 299
f 290 291 300
f 291 301 300
f 291 292 301
f 292 302 301
f 292 293 302
f 293 303 302
f 293 294 303
f 294 304 303
f 294 285 304
f 285 295 304
f 305 306 315
f 306 316 315
f 306 307 316
f 307 317 316
f 307 308 317
f 308 318 317
f 308 309 318
f 309 319 318
f 309 310 319
f 310 320 319
f 310 311 320
f 311 321 320
f 311 312 321
f 312 322 321
f 312 313 322
f 313 323 322
f 313 314 323
f 314 324 323
f 314 305 324
f 305 315 324
f 325 326 335
f 326 336 335
f 326 327 336
f 327 337 336
f 327 328 337
f 328 338 337
f 328 329 338
f 329 339 338
f 329 330 339
f 330 340 339
f 330 331 340
f 331 341 340
f 331 332 341
f 332 342 341
f 332 333 342
f 333 343 342
f 333 334 343
f 334 344 343
f 334 325 344
f 325 335 344
f 345 346 355
f 346 356 355
f 346 347 356
f 347 357 356
f 347 348 357
f 348 358 357
f 348 349 358
f 349 359 358
f 349 350 359
f 350 360 359
f 350 351 360
f 351 361 360
f 351 352 361
f 352 362 361
f 352 353 362
f 353 363 362
f 353 354 363
f 354 364 363
f 354 345 364
f 345 355 364
f 365 366 375
f 366 376 375
f 366 367 376
f 367 377 376
f 367 368 377
f 368 378 377
f 368 369 378
f 369 379 378
f 369 370 379
f 370 380 379
f 370 371 380
f 371 381 380
f 371 372 381
f 372 382 381
f 372 373 382
f 373 383 382
f 373 374 383
f 374 384 383
f 374 365 384
f 365 375 384
f 385 386 395
f 386 396 395
f 386 387 396
f 387 397 396
f 387 388 397
f 388 398 397
f 388 389 398
f 389 399 398
f 389 390 399
f 390 400 399
f 390 391 400
f 391 401 400
f 391 392 401
f 392 402 401
f 392 393 402
f 393 403 402
f 393 394 403
f 394 404 403
f 394 385 404
f 385 395 404
f 405 406 415
f 406 416 415
f 406 407 416
f 407 417 416
f 407 408 417
f 408 418 417
f 408 409 418
f 409 419 418
f 409 410 419
f 410 420 419
f 410 411 420
f 411 421 420
f 411 412 421
f 412 422 421
f 412 413 422
f 413 423 422
f 413 414 423
f 414 424 423
f 414 405 424
f 405 415 424
f 425 426 435
f 426 436 435
f 426 427 436
f 427 437 436
f 427 428 437
f 428 438 437
f 428 429 438
f 429 439 438
f 429 430 439
f 430 440 439
f 430 431 440
f 431 441 440
f 431 432 441
f 432 442 441
f 432 433 442
f 433 443 442
f 433 434 443
f 434 444 443
f 434 425 444
f 425 435 444
f 445 446 455
f 446 456 455
f 446 447 456
f 447 457 456
f 447 448 457
f 448 458 457
f 448 449 458
f 449 459 458
f 449 450 459
f 450 460 459
f 450 451 460
f 451 461 460
f 451 452 461
f 452 462 461
f 452 453 462
f 453 463 462
f 453 454 463
f 454 464 463
f 454 445 464
f 445 455 464
f 465 466 475
f 466 476 475
f 466 467 476
f 467 477 476
f 467 468 477
f 468 478 477
f 468 469 478
f 469 479 478
f 469 470 479
f 470 480 479
f 470 471 480
f 471 481 480
f 471 472 481
f 472 482 481
f 472 473 482
f 473 483 482
f 473 474 483
f 474 484 483
f 474 465 484
f 465 475 484
f 485 486 495
f 486 496 495
f 486 487 496
f 487 497 496
f 487 488 497
f 488 498 497
f 488 489 498
f 489 499 498
f 489 490 499
f 490 500 499
f 490 491 500
f 491 501 500
f 491 492 501
f 492 502 501
f 492 493 502
f 493 503 502
f 493 494 503
f 494 504 503
f 494 485 504
f 485 495 504
f 505 506 515
f 506 516 515
f 506 507 516
f 507 517 516
f 507 508 517
f 508 518 517
f 508 509 518
f 509 519 518
f 509 510 519
f 510 520 519
f 510 511 520
f 511 521 520
f 511 512 521
f 512 522 521
f 512 513 522
f 513 523 522
f 513 514 523
f 514 524 523
f 514 505 524
f 505 515 524
f 525 526 535
f 526 536 535
f 526 527 536
f 527 537 536
f 527 528 537
f 528 538 537
f 528 529 538
f 529 539 538
f 529 530 539
f 530 540 539
f 530 531 540
f 531 541 540
f 531 532 541
f 532 542 541
f 532 533 542
f 533 543 542
f 533 534 543
f 534 544 543
f 534 525 544
f 525 535 544
f 545 546 555
f 546 556 555
f 546 547 556
f 547 557 556
f 547 548 557
f 548 558 557
f 548 549 558
f 549 559 558
f 549 550 559
f 550 560 559
f 550 551 560
f 551 561 560
f 551 552 561
f 552 562 561
f 552 553 562
f 553 563 562
f 553 554 563
f 554 564 563
f 554 545 564
f 545 555 564
f 565 566 575
f 566 576 575
f 566 567 576
f 567 577 576
f 567 568 577
f 568 578 577
f 568 569 578
f 569 579 578
f 569 570 579
f 570 580 579
f 570 571 580
f 571 581 580
f 571 572 581
f 572 582 581
f 572 573 582
f 573 583 582
f 573 574 583
f 574 584 583
f 574 565 584
f 565 575 584
f 585 586 595
f 586 596 595
f 586 587 596
f 587 597 596
f 587 588 597
f 588 598 597
f 588 589 598
f 589 599 598
f 589 590 599
f 590 600 599
f 590 591 600
f 591 601 600
f 591 592 601
f 592 602 601
f 592 593 602
f 593 603 602
f 593 594 603
f 594 604 603
f 594 585 604
f 585 595 604
f 605 606 615
f 606 616 615
f 606 607 616
f 607 617 616
f 607 608 617
f 608 618 617
f 608 609 618
f 609 619 618
f 609 610 619
f 610 620 619
f 610 611 620
f 611 621 620
f 611 612 621
f 612 622 621
f 612 613 622
f 613 623 622
f 613 614 623
f 614 624 623
f 614 605 624
f 605 615 624
f 625 626 635
f 626 636 635
f 626 627 636
f 627 637 636
f 627 628 637
f 628 638 637
f 628 629 638
f 629 639 638
f 629 630 639
f 630 640 639
f 630 631 640
f 631 641 640
f 631 632 641
f 632 642 641
f 632 633 642
f 633 643 642
f 633 634 643
f 634 644 643
f 634 625 644
f 625 635 644
f 645 646 655
f 646 656 655
f 646 647 656
f 647 657 656
f 647 648 657
f 648 658 657
f 648 649 658
f 649 659 658
f 649 650 659
f 650 660 659
f 650 651 660
f 651 661 660
f 651 652 661
f 652 662 661
f 652 653 662
f 653 663 662
f 653 654 663
f 654 664 663
f 654 645 664
f 645 655 664
f 665 666 675
f 666 676 675
f 666 667 676
f 667 677 676
f 667 668 677
f 668 678 677
f 668 669 678
f 669 679 678
f 669 670 679
f 670 680 679
f 670 671 680
f 671 681 680
f 671 672 681
f 672 682 681
f 672 673 682
f 673 683 682
f 673 674 683
f 674 684 683
f 674 665 684
f 665 675 684
f 685 686 695
f 686 696 695
f 686 687 696
f 687 697 696
f 687 688 697
f 688 698 697
f 688 689 698
f 689 699 698
f 689 690 699
f 690 700 699
f 690 691 700
f 691 701 700
f 691 692 701
f 692 702 701
f 692 693 702
f 693 703 702
f 693 694 703
f 694 704 703
f 694 685 704
f 685 695 704
f 705 706 715
f 706 716 715
f 706 707 716
f 707 717 716
f 707 708 717
f 708 718 717
f 708 709 718
f 709 719 718
f 709 710 719
f 710 720 719
f 710 711 720
f 711 721 720
f 711 712 721
f 712 722 721
f 712 713 722
f 713 723 722
f 713 714 723
f 714 724 723
f 714 705 724
f 705 715 724
f 725 726 735
f 726 736 735
f 726 727 736
f 727 737 736
f 727 728 737
f 728 738 737
f 728 729 738
f 729 739 738
f 729 730 739
f 730 740 739
f 730 731 740
f 731 741 740
f 731 732 741
f 732 742 741
f 732 733 742
f 733 743 742
f 733 734 743
f 734 744 743
f 734 725 744
f 725 735 744
f 745 746 755
f 746 756 755
f 746 747 756
f 747 757 756
f 747 748 757
f 748 758 757
f 748 749 758
f 749 759 758
f 749 750 759
f 750 760 759
f 750 751 760
f 751 761 760
f 751 752 761
f 752 762 761
f 752 753 762
f 753 763 762
f 753 754 763
f 754 764 763
f 754 745 764
f 745 755 764
f 765 766 775
f 766 776 775
f 766 767 776
f 767 777 776
f 767 768 777
f 768 778 777
f 768 769 778
f 769 779 778
f 769 770 779
f 770 780 779
f 770 771 780
f 771 781 780
f 771 772 781
f 772 782 781
f 772 773 782
f 773 783 782
f 773 774 783
f 774 784 783
f 774 765 784
f 765 775 784
