# Full-Body 3D Mesh - Frame 71
v 0.022201 -0.629404 -0.096708
v 0.056009 -0.629404 -0.101568
v 0.087078 -0.629404 -0.115757
v 0.112891 -0.629404 -0.138124
v 0.131357 -0.629404 -0.166858
v 0.140980 -0.629404 -0.199630
v 0.140980 -0.629404 -0.233785
v 0.131357 -0.629404 -0.266557
v 0.112891 -0.629404 -0.295291
v 0.087078 -0.629404 -0.317658
v 0.056009 -0.629404 -0.331847
v 0.022201 -0.629404 -0.336708
v 0.022201 -0.629404 -0.096708
v 0.050642 -0.611126 -0.101568
v 0.076779 -0.594329 -0.115757
v 0.098494 -0.580373 -0.138124
v 0.114029 -0.570390 -0.166858
v 0.122124 -0.565187 -0.199630
v 0.122124 -0.565187 -0.233785
v 0.114029 -0.570390 -0.266557
v 0.098494 -0.580373 -0.295291
v 0.076779 -0.594329 -0.317658
v 0.050642 -0.611126 -0.331847
v 0.022201 -0.629404 -0.336708
v 0.022201 -0.629404 -0.096708
v 0.036245 -0.598651 -0.101568
v 0.049152 -0.570390 -0.115757
v 0.059875 -0.546909 -0.138124
v 0.067546 -0.530112 -0.166858
v 0.071543 -0.521359 -0.199630
v 0.071543 -0.521359 -0.233785
v 0.067546 -0.530112 -0.266557
v 0.059875 -0.546909 -0.295291
v 0.049152 -0.570390 -0.317658
v 0.036245 -0.598651 -0.331847
v 0.022201 -0.629404 -0.336708
v 0.022201 -0.629404 -0.096708
v 0.017390 -0.595940 -0.101568
v 0.012968 -0.565187 -0.115757
v 0.009295 -0.539637 -0.138124
v 0.006667 -0.521359 -0.166858
v 0.005297 -0.511834 -0.199630
v 0.005297 -0.511834 -0.233785
v 0.006667 -0.521359 -0.266557
v 0.009295 -0.539637 -0.295291
v 0.012968 -0.565187 -0.317658
v 0.017390 -0.595940 -0.331847
v 0.022201 -0.629404 -0.336708
v 0.022201 -0.629404 -0.096708
v 0.000062 -0.603853 -0.101568
v -0.020284 -0.580373 -0.115757
v -0.037188 -0.560865 -0.138124
v -0.049281 -0.546909 -0.166858
v -0.055582 -0.539637 -0.199630
v -0.055582 -0.539637 -0.233785
v -0.049281 -0.546909 -0.266557
v -0.037188 -0.560865 -0.295291
v -0.020284 -0.580373 -0.317658
v 0.000062 -0.603853 -0.331847
v 0.022201 -0.629404 -0.336708
v 0.022201 -0.629404 -0.096708
v -0.010237 -0.619879 -0.101568
v -0.040048 -0.611126 -0.115757
v -0.064815 -0.603853 -0.138124
v -0.082533 -0.598651 -0.166858
v -0.091766 -0.595940 -0.199630
v -0.091766 -0.595940 -0.233785
v -0.082533 -0.598651 -0.266557
v -0.064815 -0.603853 -0.295291
v -0.040048 -0.611126 -0.317658
v -0.010237 -0.619879 -0.331847
v 0.022201 -0.629404 -0.336708
v 0.022201 -0.629404 -0.096708
v -0.010237 -0.638929 -0.101568
v -0.040048 -0.647682 -0.115757
v -0.064815 -0.654954 -0.138124
v -0.082533 -0.660157 -0.166858
v -0.091766 -0.662868 -0.199630
v -0.091766 -0.662868 -0.233785
v -0.082533 -0.660157 -0.266557
v -0.064815 -0.654954 -0.295291
v -0.040048 -0.647682 -0.317658
v -0.010237 -0.638929 -0.331847
v 0.022201 -0.629404 -0.336708
v 0.022201 -0.629404 -0.096708
v 0.000062 -0.654954 -0.101568
v -0.020284 -0.678434 -0.115757
v -0.037188 -0.697943 -0.138124
v -0.049281 -0.711898 -0.166858
v -0.055582 -0.719171 -0.199630
v -0.055582 -0.719171 -0.233785
v -0.049281 -0.711898 -0.266557
v -0.037188 -0.697943 -0.295291
v -0.020284 -0.678434 -0.317658
v 0.000062 -0.654954 -0.331847
v 0.022201 -0.629404 -0.336708
v 0.022201 -0.629404 -0.096708
v 0.017390 -0.662868 -0.101568
v 0.012968 -0.693620 -0.115757
v 0.009295 -0.719171 -0.138124
v 0.006667 -0.737449 -0.166858
v 0.005297 -0.746973 -0.199630
v 0.005297 -0.746973 -0.233785
v 0.006667 -0.737449 -0.266557
v 0.009295 -0.719171 -0.295291
v 0.012968 -0.693620 -0.317658
v 0.017390 -0.662868 -0.331847
v 0.022201 -0.629404 -0.336708
v 0.022201 -0.629404 -0.096708
v 0.036245 -0.660157 -0.101568
v 0.049152 -0.688418 -0.115757
v 0.059875 -0.711898 -0.138124
v 0.067546 -0.728695 -0.166858
v 0.071543 -0.737449 -0.199630
v 0.071543 -0.737449 -0.233785
v 0.067546 -0.728695 -0.266557
v 0.059875 -0.711898 -0.295291
v 0.049152 -0.688418 -0.317658
v 0.036245 -0.660157 -0.331847
v 0.022201 -0.629404 -0.336708
v 0.022201 -0.629404 -0.096708
v 0.050642 -0.647682 -0.101568
v 0.076779 -0.664479 -0.115757
v 0.098494 -0.678434 -0.138124
v 0.114029 -0.688418 -0.166858
v 0.122124 -0.693620 -0.199630
v 0.122124 -0.693620 -0.233785
v 0.114029 -0.688418 -0.266557
v 0.098494 -0.678434 -0.295291
v 0.076779 -0.664479 -0.317658
v 0.050642 -0.647682 -0.331847
v 0.022201 -0.629404 -0.336708
v 0.022201 -0.629404 -0.096708
v 0.056009 -0.629404 -0.101568
v 0.087078 -0.629404 -0.115757
v 0.112891 -0.629404 -0.138124
v 0.131357 -0.629404 -0.166858
v 0.140980 -0.629404 -0.199630
v 0.140980 -0.629404 -0.233785
v 0.131357 -0.629404 -0.266557
v 0.112891 -0.629404 -0.295291
v 0.087078 -0.629404 -0.317658
v 0.056009 -0.629404 -0.331847
v 0.022201 -0.629404 -0.336708
v 0.178633 -0.491409 -0.079733
v 0.175773 -0.514772 -0.072175
v 0.173555 -0.529211 -0.052232
v 0.172826 -0.529211 -0.027521
v 0.173864 -0.514772 -0.007482
v 0.176274 -0.491409 0.000232
v 0.179133 -0.468046 -0.007326
v 0.181351 -0.453606 -0.027270
v 0.182080 -0.453606 -0.051980
v 0.181042 -0.468046 -0.072020
v -0.149559 -0.454368 -0.089416
v -0.152419 -0.477731 -0.081858
v -0.154637 -0.492171 -0.061914
v -0.155366 -0.492171 -0.037204
v -0.154328 -0.477731 -0.017164
v -0.151918 -0.454368 -0.009451
v -0.149058 -0.431005 -0.017009
v -0.146840 -0.416566 -0.036952
v -0.146111 -0.416566 -0.061663
v -0.147150 -0.431005 -0.081702
v 0.177453 -0.530549 -0.031503
v 0.158690 -0.525995 -0.046942
v 0.147094 -0.508231 -0.059634
v 0.147094 -0.484040 -0.064731
v 0.158690 -0.462665 -0.060287
v 0.177453 -0.452268 -0.047998
v 0.196216 -0.456822 -0.032559
v 0.207812 -0.474587 -0.019867
v 0.207812 -0.498777 -0.014770
v 0.196216 -0.520153 -0.019215
v 0.293374 -0.562202 -0.181721
v 0.274611 -0.557648 -0.197160
v 0.263015 -0.539883 -0.209852
v 0.263015 -0.515693 -0.214949
v 0.274611 -0.494317 -0.210504
v 0.293374 -0.483921 -0.198216
v 0.312137 -0.488475 -0.182777
v 0.323734 -0.506240 -0.170085
v 0.323734 -0.530430 -0.164988
v 0.312137 -0.551805 -0.169433
v 0.293374 -0.547479 -0.158286
v 0.274380 -0.531840 -0.155878
v 0.262641 -0.512848 -0.166491
v 0.262641 -0.497757 -0.186072
v 0.274380 -0.492332 -0.207141
v 0.293374 -0.498644 -0.221651
v 0.312368 -0.514283 -0.224059
v 0.324107 -0.533275 -0.213445
v 0.324107 -0.548365 -0.193864
v 0.312368 -0.553791 -0.172795
v 0.130526 -0.724284 -0.294548
v 0.111532 -0.708645 -0.292140
v 0.099793 -0.689653 -0.302753
v 0.099793 -0.674562 -0.322334
v 0.111532 -0.669137 -0.343403
v 0.130526 -0.675449 -0.357913
v 0.149520 -0.691088 -0.360321
v 0.161259 -0.710080 -0.349707
v 0.161259 -0.725171 -0.330126
v 0.149520 -0.730596 -0.309057
v -0.150739 -0.472870 -0.084897
v -0.170822 -0.480174 -0.072470
v -0.183235 -0.477622 -0.051244
v -0.183235 -0.466187 -0.029326
v -0.170822 -0.450238 -0.015088
v -0.150739 -0.435867 -0.013969
v -0.130655 -0.428562 -0.026397
v -0.118243 -0.431114 -0.047623
v -0.118243 -0.442549 -0.069541
v -0.130655 -0.458498 -0.083779
v -0.257619 -0.317186 -0.166118
v -0.277703 -0.324491 -0.153691
v -0.290115 -0.321938 -0.132464
v -0.290115 -0.310504 -0.110546
v -0.277703 -0.294555 -0.096309
v -0.257619 -0.280183 -0.095190
v -0.237536 -0.272878 -0.107617
v -0.225123 -0.275431 -0.128844
v -0.225123 -0.286866 -0.150762
v -0.237536 -0.302815 -0.164999
v -0.257619 -0.334906 -0.147625
v -0.273543 -0.320649 -0.160047
v -0.283385 -0.298003 -0.161242
v -0.283385 -0.275617 -0.150754
v -0.273543 -0.262042 -0.132587
v -0.257619 -0.262463 -0.113683
v -0.241695 -0.276720 -0.101260
v -0.231854 -0.299367 -0.100065
v -0.231854 -0.321752 -0.110554
v -0.241695 -0.335327 -0.128720
v -0.121061 -0.281568 -0.261463
v -0.136986 -0.267311 -0.273885
v -0.146827 -0.244665 -0.275080
v -0.146827 -0.222279 -0.264591
v -0.136986 -0.208704 -0.246425
v -0.121061 -0.209125 -0.227520
v -0.105137 -0.223382 -0.215098
v -0.095296 -0.246029 -0.213903
v -0.095296 -0.268414 -0.224392
v -0.105137 -0.281989 -0.242558
v 0.177453 -0.486566 -0.079456
v 0.154103 -0.490216 -0.072206
v 0.139671 -0.494322 -0.052558
v 0.139671 -0.497315 -0.028019
v 0.154103 -0.498052 -0.007961
v 0.177453 -0.496252 -0.000045
v 0.200804 -0.492602 -0.007296
v 0.215235 -0.488496 -0.026943
v 0.215235 -0.485503 -0.051483
v 0.200804 -0.484766 -0.071541
v 0.119108 0.006041 -0.019369
v 0.095758 0.002391 -0.012119
v 0.081326 -0.001715 0.007529
v 0.081326 -0.004708 0.032068
v 0.095758 -0.005446 0.052127
v 0.119108 -0.003646 0.060042
v 0.142459 0.000005 0.052791
v 0.156890 0.004110 0.033144
v 0.156890 0.007104 0.008605
v 0.142459 0.007841 -0.011454
v -0.150739 -0.451470 -0.089328
v -0.174184 -0.450270 -0.081582
v -0.188674 -0.450635 -0.061555
v -0.188674 -0.452426 -0.036899
v -0.174184 -0.454959 -0.017030
v -0.150739 -0.457266 -0.009539
v -0.127293 -0.458467 -0.017285
v -0.112803 -0.458101 -0.037311
v -0.112803 -0.456310 -0.061968
v -0.127293 -0.453777 -0.081836
v -0.117576 -0.010464 -0.057289
v -0.141022 -0.009263 -0.049543
v -0.155512 -0.009629 -0.029517
v -0.155512 -0.011420 -0.004860
v -0.141022 -0.013953 0.015008
v -0.117576 -0.016260 0.022500
v -0.094130 -0.017461 0.014754
v -0.079640 -0.017095 -0.005273
v -0.079640 -0.015304 -0.029929
v -0.094130 -0.012771 -0.049798
v 0.125405 0.001198 -0.019165
v 0.125611 -0.022270 -0.011396
v 0.123332 -0.036775 0.008493
v 0.119440 -0.036775 0.032906
v 0.115422 -0.022270 0.052518
v 0.112811 0.001198 0.059838
v 0.112606 0.024666 0.052069
v 0.114884 0.039170 0.032180
v 0.118776 0.039170 0.007767
v 0.122795 0.024666 -0.011845
v -0.111279 -0.013362 -0.056896
v -0.111074 -0.036830 -0.049127
v -0.113352 -0.051334 -0.029238
v -0.117244 -0.051334 -0.004825
v -0.121263 -0.036830 0.014787
v -0.123873 -0.013362 0.022107
v -0.124078 0.010106 0.014338
v -0.121800 0.024610 -0.005551
v -0.117908 0.024610 -0.029964
v -0.113889 0.010106 -0.049576
v 0.119108 -0.008768 -0.018402
v 0.095598 -0.007078 -0.010949
v 0.081068 -0.002226 0.008454
v 0.081068 0.003933 0.032396
v 0.095598 0.009048 0.051731
v 0.119108 0.011164 0.059075
v 0.142619 0.009473 0.051622
v 0.157149 0.004621 0.032219
v 0.157149 -0.001538 0.008277
v 0.142619 -0.006652 -0.011058
v 0.117124 0.197115 -0.071369
v 0.093613 0.198806 -0.063915
v 0.079083 0.203657 -0.044512
v 0.079083 0.209817 -0.020571
v 0.093613 0.214931 -0.001235
v 0.117124 0.217047 0.006109
v 0.140634 0.215356 -0.001344
v 0.155164 0.210505 -0.020748
v 0.155164 0.204345 -0.044689
v 0.140634 0.199231 -0.064025
v 0.117124 0.230241 -0.065243
v 0.093613 0.225936 -0.058931
v 0.079082 0.214429 -0.042572
v 0.079082 0.200115 -0.022417
v 0.093613 0.188462 -0.006162
v 0.117124 0.183921 -0.000017
v 0.140635 0.188226 -0.006329
v 0.155165 0.199733 -0.022687
v 0.155165 0.214047 -0.042843
v 0.140635 0.225700 -0.059098
v 0.119237 0.510498 0.133784
v 0.095726 0.506193 0.140096
v 0.081196 0.494686 0.156454
v 0.081196 0.480372 0.176610
v 0.095726 0.468719 0.192865
v 0.119237 0.464178 0.199009
v 0.142748 0.468483 0.192697
v 0.157279 0.479990 0.176339
v 0.157279 0.494304 0.156183
v 0.142748 0.505957 0.139928
v -0.117576 -0.046454 -0.039865
v -0.140898 -0.038462 -0.038035
v -0.155312 -0.020883 -0.028322
v -0.155312 -0.000431 -0.014435
v -0.140898 0.015082 -0.001678
v -0.117576 0.019730 0.005076
v -0.094254 0.011738 0.003246
v -0.079840 -0.005841 -0.006467
v -0.079840 -0.026293 -0.020355
v -0.094254 -0.041806 -0.033111
v -0.093813 0.058158 -0.193929
v -0.117135 0.066150 -0.192100
v -0.131549 0.083729 -0.182387
v -0.131549 0.104181 -0.168499
v -0.117135 0.119694 -0.155743
v -0.093813 0.124343 -0.148989
v -0.070491 0.116351 -0.150818
v -0.056077 0.098771 -0.160532
v -0.056077 0.078319 -0.174419
v -0.070491 0.062806 -0.187176
v -0.093813 0.094571 -0.211321
v -0.117323 0.094184 -0.203688
v -0.131853 0.092676 -0.183744
v -0.131853 0.090623 -0.159108
v -0.117323 0.088810 -0.139190
v -0.093813 0.087929 -0.131597
v -0.070303 0.088317 -0.139231
v -0.055773 0.089825 -0.159174
v -0.055773 0.091878 -0.183810
v -0.070303 0.093690 -0.203729
v -0.091211 0.340877 -0.190801
v -0.114721 0.340490 -0.183168
v -0.129251 0.338982 -0.163224
v -0.129251 0.336929 -0.138588
v -0.114721 0.335116 -0.118670
v -0.091211 0.334235 -0.111077
v -0.067701 0.334623 -0.118711
v -0.053170 0.336131 -0.138655
v -0.053170 0.338184 -0.163291
v -0.067701 0.339996 -0.183209
v -0.063551 -0.006844 0.024739
v -0.071008 -0.010118 0.020310
v -0.075617 -0.009977 0.012268
v -0.075617 -0.006476 0.003684
v -0.071008 -0.000952 -0.002163
v -0.063551 0.004485 -0.003040
v -0.056094 0.007758 0.001389
v -0.051485 0.007618 0.009432
v -0.051485 0.004117 0.018016
v -0.056094 -0.001407 0.023863
v -0.057807 -0.015277 0.021300
v -0.065264 -0.018550 0.016871
v -0.069873 -0.018410 0.008829
v -0.069873 -0.014909 0.000245
v -0.065264 -0.009385 -0.005602
v -0.057807 -0.003948 -0.006479
v -0.050350 -0.000674 -0.002050
v -0.045741 -0.000815 0.005993
v -0.045741 -0.004316 0.014577
v -0.050350 -0.009840 0.020424
v -0.060987 -0.009612 0.022070
v -0.062999 -0.018012 0.018702
v -0.063029 -0.023203 0.011021
v -0.061063 -0.023203 0.001961
v -0.057854 -0.018012 -0.005017
v -0.054627 -0.009612 -0.007248
v -0.052615 -0.001213 -0.003881
v -0.052586 0.003978 0.003800
v -0.054551 0.003978 0.012860
v -0.057760 -0.001213 0.019838
v -0.044129 -0.015118 0.025726
v -0.046142 -0.023517 0.022358
v -0.046171 -0.028708 0.014678
v -0.044206 -0.028708 0.005618
v -0.040997 -0.023517 -0.001360
v -0.037769 -0.015118 -0.003592
v -0.035757 -0.006718 -0.000224
v -0.035728 -0.001527 0.007457
v -0.037693 -0.001527 0.016517
v -0.040902 -0.006718 0.023495
v -0.041768 -0.015118 0.026045
v -0.043069 -0.023813 0.023105
v -0.043560 -0.029187 0.015567
v -0.043054 -0.029187 0.006310
v -0.041744 -0.023813 -0.001130
v -0.040130 -0.015118 -0.003910
v -0.038829 -0.006423 -0.000970
v -0.038338 -0.001049 0.006568
v -0.038845 -0.001049 0.015825
v -0.040155 -0.006423 0.023264
v -0.025697 -0.017819 0.026924
v -0.026998 -0.026514 0.023984
v -0.027489 -0.031888 0.016446
v -0.026983 -0.031888 0.007189
v -0.025672 -0.026514 -0.000250
v -0.024059 -0.017819 -0.003031
v -0.022758 -0.009124 -0.000091
v -0.022267 -0.003750 0.007447
v -0.022773 -0.003750 0.016704
v -0.024084 -0.009124 0.024143
v -0.030341 -0.017819 0.025916
v -0.030473 -0.026545 0.022789
v -0.028468 -0.031938 0.015520
v -0.025091 -0.031938 0.006886
v -0.021634 -0.026545 0.000185
v -0.019415 -0.017819 -0.002023
v -0.019283 -0.009093 0.001104
v -0.021288 -0.003700 0.008373
v -0.024665 -0.003700 0.017007
v -0.028122 -0.009093 0.023708
v -0.016476 -0.019972 0.031338
v -0.016607 -0.028698 0.028211
v -0.014602 -0.034091 0.020942
v -0.011226 -0.034091 0.012308
v -0.007768 -0.028698 0.005607
v -0.005550 -0.019972 0.003399
v -0.005418 -0.011246 0.006526
v -0.007423 -0.005853 0.013795
v -0.010799 -0.005853 0.022429
v -0.014257 -0.011246 0.029130
v -0.061825 -0.001180 0.025750
v -0.062430 -0.009992 0.022936
v -0.063463 -0.015439 0.015506
v -0.064529 -0.015439 0.006297
v -0.065222 -0.009992 -0.001173
v -0.065277 -0.001180 -0.004051
v -0.064672 0.007633 -0.001237
v -0.063639 0.013079 0.006194
v -0.062573 0.013079 0.015403
v -0.061880 0.007633 0.022873
v -0.002262 -0.003064 0.018852
v -0.002867 -0.011876 0.016038
v -0.003899 -0.017323 0.008607
v -0.004966 -0.017323 -0.000602
v -0.005659 -0.011876 -0.008072
v -0.005713 -0.003064 -0.010949
v -0.005109 0.005749 -0.008135
v -0.004076 0.011195 -0.000705
v -0.003009 0.011195 0.008504
v -0.002317 0.005749 0.015974
v 0.000068 -0.003064 0.018393
v -0.000658 -0.011880 0.015621
v -0.002655 -0.017329 0.008391
v -0.005161 -0.017329 -0.000534
v -0.007219 -0.011880 -0.007746
v -0.008043 -0.003064 -0.010490
v -0.007318 0.005753 -0.007718
v -0.005321 0.011202 -0.000489
v -0.002814 0.011202 0.008436
v -0.000756 0.005753 0.015648
v 0.017485 -0.002959 0.013501
v 0.016759 -0.011776 0.010730
v 0.014762 -0.017225 0.003500
v 0.012256 -0.017225 -0.005425
v 0.010198 -0.011776 -0.012637
v 0.009374 -0.002959 -0.015381
v 0.010099 0.005858 -0.012609
v 0.012097 0.011307 -0.005380
v 0.014603 0.011307 0.003545
v 0.016661 0.005858 0.010757
v 0.011306 -0.002959 0.013909
v 0.010090 -0.011622 0.010841
v 0.010150 -0.016977 0.003274
v 0.011462 -0.016977 -0.005904
v 0.013526 -0.011622 -0.013185
v 0.015553 -0.002959 -0.015789
v 0.016768 0.005704 -0.012721
v 0.016709 0.011059 -0.005153
v 0.015396 0.011059 0.004024
v 0.013333 0.005704 0.011305
v 0.032417 -0.006990 0.016928
v 0.031202 -0.015654 0.013860
v 0.031262 -0.021008 0.006293
v 0.032574 -0.021008 -0.002885
v 0.034638 -0.015654 -0.010166
v 0.036664 -0.006990 -0.012770
v 0.037880 0.001673 -0.009702
v 0.037820 0.007027 -0.002134
v 0.036508 0.007027 0.007043
v 0.034444 0.001673 0.014324
v 0.036943 -0.006990 0.016886
v 0.034669 -0.015613 0.014352
v 0.032346 -0.020942 0.007131
v 0.030862 -0.020942 -0.002020
v 0.030783 -0.015613 -0.009605
v 0.032139 -0.006990 -0.012727
v 0.034413 0.001633 -0.010194
v 0.036735 0.006962 -0.002973
v 0.038220 0.006962 0.006178
v 0.038299 0.001633 0.013763
v 0.065284 -0.013113 0.012288
v 0.063010 -0.021736 0.009755
v 0.060688 -0.027065 0.002533
v 0.059203 -0.027065 -0.006618
v 0.059124 -0.021736 -0.014203
v 0.060480 -0.013113 -0.017325
v 0.062754 -0.004490 -0.014792
v 0.065077 0.000839 -0.007570
v 0.066561 0.000839 0.001580
v 0.066641 -0.004490 0.009166
v -0.061893 -0.001180 0.025758
v -0.062025 -0.009995 0.022890
v -0.062740 -0.015443 0.015423
v -0.063765 -0.015443 0.006210
v -0.064708 -0.009995 -0.001232
v -0.065209 -0.001180 -0.004058
v -0.065077 0.007635 -0.001191
v -0.064362 0.013083 0.006276
v -0.063337 0.013083 0.015490
v -0.062394 0.007635 0.022931
v 0.002366 0.000182 0.018612
v 0.002233 -0.008633 0.015744
v 0.001519 -0.014081 0.008277
v 0.000494 -0.014081 -0.000937
v -0.000449 -0.008633 -0.008378
v -0.000950 0.000182 -0.011205
v -0.000818 0.008996 -0.008337
v -0.000103 0.014444 -0.000870
v 0.000922 0.014444 0.008344
v 0.001865 0.008996 0.015785
v 0.003231 0.000182 0.018490
v 0.001516 -0.008546 0.015876
v -0.000507 -0.013940 0.008613
v -0.002066 -0.013940 -0.000525
v -0.002566 -0.008546 -0.008049
v -0.001815 0.000182 -0.011083
v -0.000101 0.008909 -0.008469
v 0.001922 0.014303 -0.001206
v 0.003482 0.014303 0.007932
v 0.003982 0.008909 0.015455
v 0.025767 -0.003094 0.014644
v 0.024053 -0.011822 0.012031
v 0.022030 -0.017216 0.004767
v 0.020470 -0.017216 -0.004371
v 0.019970 -0.011822 -0.011894
v 0.020721 -0.003094 -0.014928
v 0.022436 0.005634 -0.012315
v 0.024459 0.011028 -0.005052
v 0.026018 0.011028 0.004087
v 0.026518 0.005634 0.011610
v 0.023539 -0.003094 0.014855
v 0.020621 -0.011433 0.012047
v 0.018705 -0.016587 0.004583
v 0.018522 -0.016587 -0.004686
v 0.020144 -0.011433 -0.012219
v 0.022950 -0.003094 -0.015139
v 0.025868 0.005245 -0.012331
v 0.027784 0.010399 -0.004868
v 0.027966 0.010399 0.004401
v 0.026345 0.005245 0.011934
v 0.047523 -0.011328 0.014384
v 0.044604 -0.019668 0.011576
v 0.042688 -0.024821 0.004112
v 0.042506 -0.024821 -0.005157
v 0.044127 -0.019668 -0.012690
v 0.046933 -0.011328 -0.015611
v 0.049851 -0.002989 -0.012803
v 0.051768 0.002165 -0.005339
v 0.051950 0.002165 0.003930
v 0.050328 -0.002989 0.011463
v 0.044176 -0.011328 0.014073
v 0.042471 -0.019830 0.010792
v 0.042584 -0.025084 0.003156
v 0.044470 -0.025084 -0.005921
v 0.047410 -0.019830 -0.012970
v 0.050280 -0.011328 -0.015300
v 0.051984 -0.002827 -0.012020
v 0.051872 0.002428 -0.004383
v 0.049985 0.002428 0.004694
v 0.047046 -0.002827 0.011743
v 0.076462 -0.020389 0.020783
v 0.074757 -0.028891 0.017503
v 0.074870 -0.034145 0.009866
v 0.076756 -0.034145 0.000789
v 0.079696 -0.028891 -0.006260
v 0.082566 -0.020389 -0.008590
v 0.084270 -0.011888 -0.005309
v 0.084158 -0.006633 0.002327
v 0.082271 -0.006633 0.011404
v 0.079332 -0.011888 0.018453
v -0.060443 -0.001180 0.025524
v -0.060833 -0.009994 0.022679
v -0.062261 -0.015442 0.015315
v -0.064182 -0.015442 0.006245
v -0.065862 -0.009994 -0.001065
v -0.066659 -0.001180 -0.003825
v -0.066269 0.007634 -0.000979
v -0.064841 0.013082 0.006385
v -0.062920 0.013082 0.015454
v -0.061240 0.007634 0.022765
v 0.007633 0.000464 0.011107
v 0.007243 -0.008351 0.008261
v 0.005815 -0.013798 0.000897
v 0.003895 -0.013798 -0.008172
v 0.002215 -0.008351 -0.015483
v 0.001418 0.000464 -0.018242
v 0.001808 0.009278 -0.015396
v 0.003236 0.014726 -0.008032
v 0.005156 0.014726 0.001037
v 0.006836 0.009278 0.008348
v 0.007513 0.000464 0.011132
v 0.004682 -0.008046 0.008784
v 0.001792 -0.013305 0.001718
v -0.000054 -0.013305 -0.007367
v -0.000151 -0.008046 -0.015000
v 0.001538 0.000464 -0.018267
v 0.004369 0.008974 -0.015919
v 0.007259 0.014233 -0.008853
v 0.009105 0.014233 0.000232
v 0.009202 0.008974 0.007865
v 0.021652 -0.003446 0.008259
v 0.018822 -0.011956 0.005911
v 0.015931 -0.017216 -0.001155
v 0.014085 -0.017216 -0.010240
v 0.013988 -0.011956 -0.017874
v 0.015678 -0.003446 -0.021140
v 0.018508 0.005063 -0.018792
v 0.021399 0.010323 -0.011726
v 0.023245 0.010323 -0.002642
v 0.023342 0.005063 0.004992
v 0.017829 -0.003446 0.008536
v 0.017162 -0.012224 0.005629
v 0.017069 -0.017649 -0.001888
v 0.017585 -0.017649 -0.011144
v 0.018514 -0.012224 -0.018603
v 0.019501 -0.003446 -0.021418
v 0.020168 0.005331 -0.018511
v 0.020261 0.010756 -0.010994
v 0.019745 0.010756 -0.001738
v 0.018816 0.005331 0.005722
v 0.040606 -0.005599 0.009807
v 0.039939 -0.014377 0.006901
v 0.039846 -0.019802 -0.000616
v 0.040362 -0.019802 -0.009872
v 0.041291 -0.014377 -0.017332
v 0.042278 -0.005599 -0.020146
v 0.042945 0.003179 -0.017239
v 0.043038 0.008604 -0.009723
v 0.042522 0.008604 -0.000467
v 0.041593 0.003179 0.006993
v 0.038571 -0.005599 0.009553
v 0.036417 -0.013975 0.006215
v 0.036182 -0.019151 -0.001472
v 0.037957 -0.019151 -0.010571
v 0.041062 -0.013975 -0.017607
v 0.044313 -0.005599 -0.019892
v 0.046467 0.002777 -0.016553
v 0.046702 0.007953 -0.008866
v 0.044927 0.007953 0.000233
v 0.041822 0.002777 0.007269
v 0.064329 -0.014225 0.014576
v 0.062174 -0.022601 0.011237
v 0.061940 -0.027778 0.003550
v 0.063714 -0.027778 -0.005549
v 0.066819 -0.022601 -0.012585
v 0.070070 -0.014225 -0.014870
v 0.072224 -0.005849 -0.011531
v 0.072459 -0.000673 -0.003844
v 0.070685 -0.000673 0.005255
v 0.067579 -0.005849 0.012291
v -0.060337 -0.001180 0.025501
v -0.061332 -0.009988 0.022787
v -0.063174 -0.015432 0.015512
v -0.065160 -0.015432 0.006457
v -0.066532 -0.009988 -0.000920
v -0.066765 -0.001180 -0.003802
v -0.065770 0.007628 -0.001087
v -0.063928 0.013072 0.006187
v -0.061942 0.013072 0.015242
v -0.060570 0.007628 0.022620
v 0.002892 -0.004044 0.011633
v 0.001897 -0.012852 0.008918
v 0.000055 -0.018296 0.001644
v -0.001931 -0.018296 -0.007412
v -0.003302 -0.012852 -0.014789
v -0.003536 -0.004044 -0.017671
v -0.002541 0.004764 -0.014956
v -0.000699 0.010208 -0.007682
v 0.001287 0.010208 0.001373
v 0.002659 0.004764 0.008751
v 0.003049 -0.004044 0.011597
v 0.002700 -0.012855 0.008738
v 0.001197 -0.018301 0.001387
v -0.000886 -0.018301 -0.007646
v -0.002753 -0.012855 -0.014912
v -0.003692 -0.004044 -0.017636
v -0.003344 0.004768 -0.014776
v -0.001841 0.010214 -0.007426
v 0.000242 0.010214 0.001608
v 0.002110 0.004768 0.008874
v 0.013528 -0.003674 0.009181
v 0.013180 -0.012486 0.006321
v 0.011677 -0.017932 -0.001029
v 0.009594 -0.017932 -0.010063
v 0.007726 -0.012486 -0.017329
v 0.006787 -0.003674 -0.020052
v 0.007136 0.005137 -0.017193
v 0.008639 0.010583 -0.009842
v 0.010722 0.010583 -0.000809
v 0.012590 0.005137 0.006457
v 0.010963 -0.003674 0.009543
v 0.009584 -0.012405 0.006748
v 0.008424 -0.017801 -0.000701
v 0.007927 -0.017801 -0.009958
v 0.008282 -0.012405 -0.017488
v 0.009353 -0.003674 -0.020414
v 0.010732 0.005057 -0.017619
v 0.011892 0.010453 -0.010171
v 0.012389 0.010453 -0.000914
v 0.012034 0.005057 0.006616
v 0.030215 -0.006383 0.008508
v 0.028836 -0.015114 0.005713
v 0.027676 -0.020510 -0.001735
v 0.027179 -0.020510 -0.010992
v 0.027533 -0.015114 -0.018522
v 0.028605 -0.006383 -0.021449
v 0.029984 0.002348 -0.018654
v 0.031143 0.007744 -0.011205
v 0.031641 0.007744 -0.001948
v 0.031286 0.002348 0.005582
v 0.030918 -0.006383 0.008454
v 0.028141 -0.014838 0.005855
v 0.025849 -0.020063 -0.001451
v 0.024916 -0.020063 -0.010675
v 0.025700 -0.014838 -0.018292
v 0.027901 -0.006383 -0.021394
v 0.030678 0.002071 -0.018796
v 0.032971 0.007296 -0.011489
v 0.033903 0.007296 -0.002266
v 0.033119 0.002071 0.005352
v 0.052813 -0.012895 0.006241
v 0.050036 -0.021350 0.003642
v 0.047744 -0.026575 -0.003665
v 0.046811 -0.026575 -0.012888
v 0.047595 -0.021350 -0.020505
v 0.049796 -0.012895 -0.023607
v 0.052573 -0.004441 -0.021009
v 0.054866 0.000784 -0.013702
v 0.055798 0.000784 -0.004479
v 0.055014 -0.004441 0.003139
v 0.025806 0.097754 -0.007370
v 0.017945 0.097439 -0.012272
v 0.013086 0.092385 -0.018338
v 0.013086 0.084523 -0.023250
v 0.017945 0.076856 -0.025132
v 0.025806 0.072311 -0.023265
v 0.033668 0.072626 -0.018363
v 0.038527 0.077680 -0.012297
v 0.038527 0.085542 -0.007385
v 0.033668 0.093209 -0.005503
v 0.011998 0.083342 0.015698
v 0.004136 0.083027 0.010795
v -0.000723 0.077973 0.004729
v -0.000723 0.070111 -0.000183
v 0.004136 0.062444 -0.002065
v 0.011998 0.057899 -0.000198
v 0.019859 0.058214 0.004705
v 0.024718 0.063268 0.010771
v 0.024718 0.071130 0.015683
v 0.019859 0.078798 0.017565
v 0.011998 0.079290 0.019991
v 0.006098 0.082981 0.013866
v 0.002451 0.081951 0.005406
v 0.002451 0.076593 -0.002160
v 0.006098 0.068954 -0.005940
v 0.011998 0.061951 -0.004491
v 0.017898 0.058260 0.001633
v 0.021544 0.059290 0.010094
v 0.021544 0.064648 0.017660
v 0.017898 0.072288 0.021440
v -0.010081 0.063064 0.031482
v -0.015981 0.066755 0.025358
v -0.019628 0.065725 0.016897
v -0.019628 0.060367 0.009332
v -0.015981 0.052728 0.005551
v -0.010081 0.045726 0.007000
v -0.004181 0.042035 0.013125
v -0.000535 0.043065 0.021585
v -0.000535 0.048423 0.029151
v -0.004181 0.056062 0.032931
v -0.010081 0.066308 0.028357
v -0.014571 0.068644 0.020590
v -0.017346 0.065537 0.012308
v -0.017346 0.058175 0.006674
v -0.014571 0.049369 0.005841
v -0.010081 0.042482 0.010126
v -0.005591 0.040147 0.017893
v -0.002816 0.043253 0.026175
v -0.002816 0.050615 0.031808
v -0.005591 0.059422 0.032642
v -0.036862 0.056678 0.040942
v -0.041352 0.059014 0.033175
v -0.044127 0.055907 0.024893
v -0.044127 0.048545 0.019259
v -0.041352 0.039739 0.018426
v -0.036862 0.032852 0.022711
v -0.032372 0.030516 0.030478
v -0.029597 0.033623 0.038760
v -0.029597 0.040985 0.044394
v -0.032372 0.049791 0.045227
v -0.036862 0.058914 0.036806
v -0.043163 0.058259 0.030038
v -0.047057 0.052450 0.023952
v -0.047057 0.043705 0.020875
v -0.043163 0.035365 0.021981
v -0.036862 0.030616 0.026847
v -0.030562 0.031271 0.033616
v -0.026667 0.037080 0.039701
v -0.026667 0.045825 0.042778
v -0.030562 0.054165 0.041673
v -0.057687 0.051852 0.056875
v -0.063988 0.051197 0.050106
v -0.067882 0.045387 0.044021
v -0.067882 0.036643 0.040944
v -0.063988 0.028303 0.042049
v -0.057687 0.023553 0.046916
v -0.051386 0.024208 0.053685
v -0.047492 0.030017 0.059770
v -0.047492 0.038762 0.062847
v -0.051386 0.047102 0.061742
v 0.025806 0.091815 -0.001938
v 0.017300 0.092588 -0.005542
v 0.012043 0.090476 -0.012880
v 0.012043 0.086284 -0.021149
v 0.017300 0.081614 -0.027190
v 0.025806 0.078250 -0.028697
v 0.034313 0.077477 -0.025093
v 0.039570 0.079590 -0.017755
v 0.039570 0.083781 -0.009486
v 0.034313 0.088451 -0.003445
v -0.000684 0.005158 0.041989
v -0.009190 0.005932 0.038386
v -0.014447 0.003819 0.031048
v -0.014447 -0.000372 0.022779
v -0.009190 -0.005042 0.016738
v -0.000684 -0.008406 0.015231
v 0.007822 -0.009179 0.018835
v 0.013080 -0.007067 0.026173
v 0.013080 -0.002875 0.034441
v 0.007822 0.001794 0.040483
v 0.000865 -0.001624 0.013690
v -0.000120 -0.010413 0.016468
v -0.001320 -0.015846 0.023884
v -0.002277 -0.015846 0.033105
v -0.002625 -0.010413 0.040609
v -0.002232 -0.001624 0.043530
v -0.001248 0.007166 0.040752
v -0.000048 0.012598 0.033336
v 0.000909 0.012598 0.024115
v 0.001258 0.007166 0.016611
v -0.024548 0.000389 0.011053
v -0.025533 -0.008400 0.013831
v -0.026733 -0.013832 0.021247
v -0.027690 -0.013832 0.030468
v -0.028038 -0.008400 0.037972
v -0.027645 0.000389 0.040893
v -0.026660 0.009179 0.038115
v -0.025460 0.014611 0.030699
v -0.024503 0.014611 0.021478
v -0.024155 0.009179 0.013974
v -0.028358 0.000389 0.011144
v -0.030904 -0.007897 0.014430
v -0.031614 -0.013018 0.022125
v -0.030217 -0.013018 0.031290
v -0.027245 -0.007897 0.038423
v -0.023835 0.000389 0.040801
v -0.021289 0.008676 0.037515
v -0.020579 0.013797 0.029820
v -0.021976 0.013797 0.020656
v -0.024947 0.008676 0.013522
v -0.052941 0.009431 0.014893
v -0.055488 0.001145 0.018179
v -0.056198 -0.003976 0.025874
v -0.054800 -0.003976 0.035038
v -0.051829 0.001145 0.042172
v -0.048419 0.009431 0.044550
v -0.045873 0.017717 0.041264
v -0.045163 0.022838 0.033569
v -0.046560 0.022838 0.024404
v -0.049531 0.017717 0.017270
v -0.050680 0.001439 0.017027
v -0.057013 -0.002226 0.022720
v -0.060927 -0.001438 0.031087
v -0.060927 0.003501 0.038932
v -0.057013 0.010705 0.043259
v -0.050680 0.017422 0.042415
v -0.044347 0.021087 0.036723
v -0.040433 0.020300 0.028356
v -0.040433 0.015361 0.020511
v -0.044347 0.008156 0.016184
v -0.072005 0.020070 0.005298
v -0.078338 0.016406 0.010990
v -0.082252 0.017193 0.019357
v -0.082252 0.022132 0.027202
v -0.078338 0.029336 0.031529
v -0.072005 0.036054 0.030685
v -0.065672 0.039719 0.024993
v -0.061758 0.038931 0.016626
v -0.061758 0.033992 0.008781
v -0.065672 0.026788 0.004454
v 0.025806 0.088803 -0.000799
v 0.017301 0.090330 -0.004155
v 0.012044 0.089833 -0.011775
v 0.012044 0.087503 -0.020748
v 0.017301 0.084229 -0.027647
v 0.025806 0.081262 -0.029836
v 0.034312 0.079735 -0.026480
v 0.039569 0.080232 -0.018860
v 0.039569 0.082562 -0.009887
v 0.034312 0.085836 -0.002988
v 0.000600 -0.000582 0.022413
v -0.007906 0.000945 0.019057
v -0.013163 0.000449 0.011437
v -0.013163 -0.001881 0.002464
v -0.007906 -0.005155 -0.004434
v 0.000600 -0.008122 -0.006624
v 0.009105 -0.009649 -0.003267
v 0.014362 -0.009153 0.004353
v 0.014362 -0.006823 0.013325
v 0.009105 -0.003549 0.020224
v 0.000915 -0.004352 -0.007102
v 0.001575 -0.013139 -0.004223
v 0.001862 -0.018570 0.003285
v 0.001666 -0.018570 0.012554
v 0.001064 -0.013139 0.020043
v 0.000284 -0.004352 0.022892
v -0.000376 0.004435 0.020012
v -0.000663 0.009866 0.012505
v -0.000467 0.009866 0.003236
v 0.000135 0.004435 -0.004253
v -0.029555 -0.006849 -0.007744
v -0.028896 -0.015636 -0.004864
v -0.028609 -0.021067 0.002643
v -0.028804 -0.021067 0.011912
v -0.029407 -0.015636 0.019401
v -0.030187 -0.006849 0.022250
v -0.030847 0.001938 0.019370
v -0.031134 0.007369 0.011863
v -0.030938 0.007369 0.002594
v -0.030336 0.001938 -0.004895
v -0.029871 -0.006891 -0.007747
v -0.033937 -0.014707 -0.004860
v -0.036449 -0.019521 0.002653
v -0.036449 -0.019495 0.011924
v -0.033937 -0.014638 0.019410
v -0.029871 -0.006807 0.022253
v -0.025806 0.001009 0.019366
v -0.023293 0.005823 0.011852
v -0.023293 0.005797 0.002582
v -0.025806 0.000940 -0.004904
v -0.054733 0.006027 -0.007783
v -0.058798 -0.001788 -0.004897
v -0.061311 -0.006602 0.002617
v -0.061311 -0.006576 0.011887
v -0.058798 -0.001720 0.019374
v -0.054733 0.006112 0.022216
v -0.050667 0.013927 0.019330
v -0.048155 0.018741 0.011816
v -0.048155 0.018715 0.002546
v -0.050667 0.013859 -0.004941
v -0.054684 0.006070 -0.007783
v -0.057938 -0.002128 -0.004929
v -0.059968 -0.007195 0.002564
v -0.059998 -0.007195 0.011835
v -0.058017 -0.002128 0.019341
v -0.054781 0.006070 0.022216
v -0.051527 0.014268 0.019362
v -0.049498 0.019334 0.011869
v -0.049468 0.019334 0.002598
v -0.051449 0.014268 -0.004908
v -0.080052 0.016110 -0.007865
v -0.083306 0.007912 -0.005011
v -0.085335 0.002845 0.002482
v -0.085365 0.002845 0.011753
v -0.083384 0.007912 0.019259
v -0.080149 0.016110 0.022134
v -0.076895 0.024308 0.019280
v -0.074865 0.029375 0.011787
v -0.074835 0.029375 0.002516
v -0.076816 0.024308 -0.004990
v 0.025806 0.084431 -0.000330
v 0.017342 0.087012 -0.003093
v 0.012111 0.088836 -0.010526
v 0.012111 0.089208 -0.019789
v 0.017342 0.087985 -0.027344
v 0.025806 0.085634 -0.030305
v 0.034271 0.083054 -0.027542
v 0.039502 0.081229 -0.020109
v 0.039502 0.080857 -0.010846
v 0.034271 0.082080 -0.003291
v 0.000814 -0.001233 -0.003767
v -0.007650 0.001347 -0.006530
v -0.012882 0.003172 -0.013963
v -0.012882 0.003543 -0.023226
v -0.007650 0.002320 -0.030781
v 0.000814 -0.000031 -0.033743
v 0.009278 -0.002611 -0.030979
v 0.014510 -0.004435 -0.023546
v 0.014510 -0.004807 -0.014283
v 0.009278 -0.003584 -0.006728
v -0.001968 -0.000632 -0.033495
v -0.001462 -0.009449 -0.030675
v -0.000087 -0.014898 -0.023302
v 0.001632 -0.014898 -0.014192
v 0.003039 -0.009449 -0.006825
v 0.003596 -0.000632 -0.004015
v 0.003090 0.008185 -0.006835
v 0.001715 0.013634 -0.014208
v -0.000004 0.013634 -0.023317
v -0.001411 0.008185 -0.030684
v -0.031953 -0.000542 -0.027835
v -0.031447 -0.009359 -0.025015
v -0.030072 -0.014808 -0.017642
v -0.028352 -0.014808 -0.008533
v -0.026945 -0.009359 -0.001166
v -0.026389 -0.000542 0.001644
v -0.026894 0.008275 -0.001175
v -0.028270 0.013724 -0.008548
v -0.029989 0.013724 -0.017658
v -0.031396 0.008275 -0.025025
v -0.032326 -0.000542 -0.027760
v -0.034175 -0.008995 -0.024432
v -0.034113 -0.014219 -0.016773
v -0.032162 -0.014219 -0.007710
v -0.029069 -0.008995 -0.000704
v -0.026015 -0.000542 0.001569
v -0.024166 0.007911 -0.001759
v -0.024229 0.013135 -0.009417
v -0.026179 0.013135 -0.018480
v -0.029272 0.007911 -0.025487
v -0.057784 0.007184 -0.022282
v -0.059633 -0.001269 -0.018954
v -0.059570 -0.006493 -0.011295
v -0.057620 -0.006493 -0.002232
v -0.054527 -0.001269 0.004774
v -0.051473 0.007184 0.007047
v -0.049624 0.015636 0.003719
v -0.049686 0.020860 -0.003940
v -0.051636 0.020860 -0.013003
v -0.054729 0.015636 -0.020009
v -0.057016 0.007184 -0.022426
v -0.060065 -0.000886 -0.019033
v -0.061038 -0.005874 -0.011279
v -0.059563 -0.005874 -0.002127
v -0.056202 -0.000886 0.004928
v -0.052241 0.007184 0.007191
v -0.049191 0.015254 0.003798
v -0.048218 0.020241 -0.003956
v -0.049693 0.020241 -0.013108
v -0.053054 0.015254 -0.020163
v -0.081640 0.018159 -0.018456
v -0.084690 0.010089 -0.015063
v -0.085663 0.005101 -0.007309
v -0.084187 0.005101 0.001843
v -0.080827 0.010089 0.008898
v -0.076865 0.018159 0.011161
v -0.073815 0.026229 0.007768
v -0.072842 0.031216 0.000014
v -0.074318 0.031216 -0.009138
v -0.077678 0.026229 -0.016193
v 0.025806 0.080484 -0.001024
v 0.017629 0.084493 -0.002754
v 0.012574 0.088708 -0.009284
v 0.012574 0.091519 -0.018118
v 0.017629 0.091853 -0.025882
v 0.025806 0.089581 -0.029611
v 0.033984 0.085572 -0.027881
v 0.039038 0.081357 -0.021351
v 0.039038 0.078546 -0.012517
v 0.033984 0.078212 -0.004753
v -0.003642 0.010846 -0.023184
v -0.011820 0.014855 -0.024915
v -0.016874 0.019070 -0.031444
v -0.016874 0.021881 -0.040278
v -0.011820 0.022215 -0.048043
v -0.003642 0.019943 -0.051772
v 0.004536 0.015934 -0.050041
v 0.009590 0.011719 -0.043512
v 0.009590 0.008908 -0.034678
v 0.004536 0.008574 -0.026913
v -0.006812 0.015394 -0.052139
v -0.007300 0.006649 -0.049103
v -0.006391 0.001244 -0.041626
v -0.004432 0.001244 -0.032565
v -0.002171 0.006649 -0.025380
v -0.000472 0.015394 -0.022817
v 0.000017 0.024140 -0.025853
v -0.000892 0.029545 -0.033330
v -0.002852 0.029545 -0.042391
v -0.005112 0.024140 -0.049576
v -0.029716 0.018393 -0.047187
v -0.030205 0.009648 -0.044151
v -0.029296 0.004243 -0.036674
v -0.027337 0.004243 -0.027613
v -0.025076 0.009648 -0.020428
v -0.023377 0.018393 -0.017865
v -0.022888 0.027138 -0.020901
v -0.023797 0.032543 -0.028378
v -0.025756 0.032543 -0.037439
v -0.028017 0.027138 -0.044624
v -0.032430 0.018393 -0.046324
v -0.031531 0.009580 -0.043593
v -0.028728 0.004133 -0.036635
v -0.025091 0.004133 -0.028107
v -0.022011 0.009580 -0.021268
v -0.020662 0.018393 -0.018728
v -0.021562 0.027206 -0.021459
v -0.024365 0.032653 -0.028417
v -0.028001 0.032653 -0.036945
v -0.031082 0.027206 -0.043784
v -0.055225 0.019079 -0.036603
v -0.054326 0.010266 -0.033872
v -0.051523 0.004819 -0.026914
v -0.047886 0.004819 -0.018387
v -0.044805 0.010266 -0.011547
v -0.043457 0.019079 -0.009007
v -0.044356 0.027893 -0.011738
v -0.047159 0.033340 -0.018696
v -0.050796 0.033340 -0.027224
v -0.053877 0.027893 -0.034064
v -0.049341 0.023831 -0.037033
v -0.053846 0.015735 -0.036716
v -0.056631 0.008916 -0.031086
v -0.056631 0.005980 -0.022293
v -0.053846 0.008047 -0.013695
v -0.049341 0.014328 -0.008578
v -0.044836 0.022424 -0.008894
v -0.042051 0.029242 -0.014524
v -0.042051 0.032179 -0.023318
v -0.044836 0.030112 -0.031915
v -0.065403 0.032888 -0.034008
v -0.069908 0.024792 -0.033692
v -0.072693 0.017973 -0.028061
v -0.072693 0.015037 -0.019268
v -0.069908 0.017104 -0.010671
v -0.065403 0.023385 -0.005553
v -0.060898 0.031481 -0.005870
v -0.058113 0.038299 -0.011500
v -0.058113 0.041236 -0.020293
v -0.060898 0.039169 -0.028890
f 1 2 13
f 2 14 13
f 2 3 14
f 3 15 14
f 3 4 15
f 4 16 15
f 4 5 16
f 5 17 16
f 5 6 17
f 6 18 17
f 6 7 18
f 7 19 18
f 7 8 19
f 8 20 19
f 8 9 20
f 9 21 20
f 9 10 21
f 10 22 21
f 10 11 22
f 11 23 22
f 11 12 23
f 12 24 23
f 13 14 25
f 14 26 25
f 14 15 26
f 15 27 26
f 15 16 27
f 16 28 27
f 16 17 28
f 17 29 28
f 17 18 29
f 18 30 29
f 18 19 30
f 19 31 30
f 19 20 31
f 20 32 31
f 20 21 32
f 21 33 32
f 21 22 33
f 22 34 33
f 22 23 34
f 23 35 34
f 23 24 35
f 24 36 35
f 25 26 37
f 26 38 37
f 26 27 38
f 27 39 38
f 27 28 39
f 28 40 39
f 28 29 40
f 29 41 40
f 29 30 41
f 30 42 41
f 30 31 42
f 31 43 42
f 31 32 43
f 32 44 43
f 32 33 44
f 33 45 44
f 33 34 45
f 34 46 45
f 34 35 46
f 35 47 46
f 35 36 47
f 36 48 47
f 37 38 49
f 38 50 49
f 38 39 50
f 39 51 50
f 39 40 51
f 40 52 51
f 40 41 52
f 41 53 52
f 41 42 53
f 42 54 53
f 42 43 54
f 43 55 54
f 43 44 55
f 44 56 55
f 44 45 56
f 45 57 56
f 45 46 57
f 46 58 57
f 46 47 58
f 47 59 58
f 47 48 59
f 48 60 59
f 49 50 61
f 50 62 61
f 50 51 62
f 51 63 62
f 51 52 63
f 52 64 63
f 52 53 64
f 53 65 64
f 53 54 65
f 54 66 65
f 54 55 66
f 55 67 66
f 55 56 67
f 56 68 67
f 56 57 68
f 57 69 68
f 57 58 69
f 58 70 69
f 58 59 70
f 59 71 70
f 59 60 71
f 60 72 71
f 61 62 73
f 62 74 73
f 62 63 74
f 63 75 74
f 63 64 75
f 64 76 75
f 64 65 76
f 65 77 76
f 65 66 77
f 66 78 77
f 66 67 78
f 67 79 78
f 67 68 79
f 68 80 79
f 68 69 80
f 69 81 80
f 69 70 81
f 70 82 81
f 70 71 82
f 71 83 82
f 71 72 83
f 72 84 83
f 73 74 85
f 74 86 85
f 74 75 86
f 75 87 86
f 75 76 87
f 76 88 87
f 76 77 88
f 77 89 88
f 77 78 89
f 78 90 89
f 78 79 90
f 79 91 90
f 79 80 91
f 80 92 91
f 80 81 92
f 81 93 92
f 81 82 93
f 82 94 93
f 82 83 94
f 83 95 94
f 83 84 95
f 84 96 95
f 85 86 97
f 86 98 97
f 86 87 98
f 87 99 98
f 87 88 99
f 88 100 99
f 88 89 100
f 89 101 100
f 89 90 101
f 90 102 101
f 90 91 102
f 91 103 102
f 91 92 103
f 92 104 103
f 92 93 104
f 93 105 104
f 93 94 105
f 94 106 105
f 94 95 106
f 95 107 106
f 95 96 107
f 96 108 107
f 97 98 109
f 98 110 109
f 98 99 110
f 99 111 110
f 99 100 111
f 100 112 111
f 100 101 112
f 101 113 112
f 101 102 113
f 102 114 113
f 102 103 114
f 103 115 114
f 103 104 115
f 104 116 115
f 104 105 116
f 105 117 116
f 105 106 117
f 106 118 117
f 106 107 118
f 107 119 118
f 107 108 119
f 108 120 119
f 109 110 121
f 110 122 121
f 110 111 122
f 111 123 122
f 111 112 123
f 112 124 123
f 112 113 124
f 113 125 124
f 113 114 125
f 114 126 125
f 114 115 126
f 115 127 126
f 115 116 127
f 116 128 127
f 116 117 128
f 117 129 128
f 117 118 129
f 118 130 129
f 118 119 130
f 119 131 130
f 119 120 131
f 120 132 131
f 121 122 133
f 122 134 133
f 122 123 134
f 123 135 134
f 123 124 135
f 124 136 135
f 124 125 136
f 125 137 136
f 125 126 137
f 126 138 137
f 126 127 138
f 127 139 138
f 127 128 139
f 128 140 139
f 128 129 140
f 129 141 140
f 129 130 141
f 130 142 141
f 130 131 142
f 131 143 142
f 131 132 143
f 132 144 143
f 145 146 155
f 146 156 155
f 146 147 156
f 147 157 156
f 147 148 157
f 148 158 157
f 148 149 158
f 149 159 158
f 149 150 159
f 150 160 159
f 150 151 160
f 151 161 160
f 151 152 161
f 152 162 161
f 152 153 162
f 153 163 162
f 153 154 163
f 154 164 163
f 154 145 164
f 145 155 164
f 165 166 175
f 166 176 175
f 166 167 176
f 167 177 176
f 167 168 177
f 168 178 177
f 168 169 178
f 169 179 178
f 169 170 179
f 170 180 179
f 170 171 180
f 171 181 180
f 171 172 181
f 172 182 181
f 172 173 182
f 173 183 182
f 173 174 183
f 174 184 183
f 174 165 184
f 165 175 184
f 185 186 195
f 186 196 195
f 186 187 196
f 187 197 196
f 187 188 197
f 188 198 197
f 188 189 198
f 189 199 198
f 189 190 199
f 190 200 199
f 190 191 200
f 191 201 200
f 191 192 201
f 192 202 201
f 192 193 202
f 193 203 202
f 193 194 203
f 194 204 203
f 194 185 204
f 185 195 204
f 205 206 215
f 206 216 215
f 206 207 216
f 207 217 216
f 207 208 217
f 208 218 217
f 208 209 218
f 209 219 218
f 209 210 219
f 210 220 219
f 210 211 220
f 211 221 220
f 211 212 221
f 212 222 221
f 212 213 222
f 213 223 222
f 213 214 223
f 214 224 223
f 214 205 224
f 205 215 224
f 225 226 235
f 226 236 235
f 226 227 236
f 227 237 236
f 227 228 237
f 228 238 237
f 228 229 238
f 229 239 238
f 229 230 239
f 230 240 239
f 230 231 240
f 231 241 240
f 231 232 241
f 232 242 241
f 232 233 242
f 233 243 242
f 233 234 243
f 234 244 243
f 234 225 244
f 225 235 244
f 245 246 255
f 246 256 255
f 246 247 256
f 247 257 256
f 247 248 257
f 248 258 257
f 248 249 258
f 249 259 258
f 249 250 259
f 250 260 259
f 250 251 260
f 251 261 260
f 251 252 261
f 252 262 261
f 252 253 262
f 253 263 262
f 253 254 263
f 254 264 263
f 254 245 264
f 245 255 264
f 265 266 275
f 266 276 275
f 266 267 276
f 267 277 276
f 267 268 277
f 268 278 277
f 268 269 278
f 269 279 278
f 269 270 279
f 270 280 279
f 270 271 280
f 271 281 280
f 271 272 281
f 272 282 281
f 272 273 282
f 273 283 282
f 273 274 283
f 274 284 283
f 274 265 284
f 265 275 284
f 285 286 295
f 286 296 295
f 286 287 296
f 287 297 296
f 287 288 297
f 288 298 297
f 288 289 298
f 289 299 298
f 289 290 299
f 290 300 299
f 290 291 300
f 291 301 300
f 291 292 301
f 292 302 301
f 292 293 302
f 293 303 302
f 293 294 303
f 294 304 303
f 294 285 304
f 285 295 304
f 305 306 315
f 306 316 315
f 306 307 316
f 307 317 316
f 307 308 317
f 308 318 317
f 308 309 318
f 309 319 318
f 309 310 319
f 310 320 319
f 310 311 320
f 311 321 320
f 311 312 321
f 312 322 321
f 312 313 322
f 313 323 322
f 313 314 323
f 314 324 323
f 314 305 324
f 305 315 324
f 325 326 335
f 326 336 335
f 326 327 336
f 327 337 336
f 327 328 337
f 328 338 337
f 328 329 338
f 329 339 338
f 329 330 339
f 330 340 339
f 330 331 340
f 331 341 340
f 331 332 341
f 332 342 341
f 332 333 342
f 333 343 342
f 333 334 343
f 334 344 343
f 334 325 344
f 325 335 344
f 345 346 355
f 346 356 355
f 346 347 356
f 347 357 356
f 347 348 357
f 348 358 357
f 348 349 358
f 349 359 358
f 349 350 359
f 350 360 359
f 350 351 360
f 351 361 360
f 351 352 361
f 352 362 361
f 352 353 362
f 353 363 362
f 353 354 363
f 354 364 363
f 354 345 364
f 345 355 364
f 365 366 375
f 366 376 375
f 366 367 376
f 367 377 376
f 367 368 377
f 368 378 377
f 368 369 378
f 369 379 378
f 369 370 379
f 370 380 379
f 370 371 380
f 371 381 380
f 371 372 381
f 372 382 381
f 372 373 382
f 373 383 382
f 373 374 383
f 374 384 383
f 374 365 384
f 365 375 384
f 385 386 395
f 386 396 395
f 386 387 396
f 387 397 396
f 387 388 397
f 388 398 397
f 388 389 398
f 389 399 398
f 389 390 399
f 390 400 399
f 390 391 400
f 391 401 400
f 391 392 401
f 392 402 401
f 392 393 402
f 393 403 402
f 393 394 403
f 394 404 403
f 394 385 404
f 385 395 404
f 405 406 415
f 406 416 415
f 406 407 416
f 407 417 416
f 407 408 417
f 408 418 417
f 408 409 418
f 409 419 418
f 409 410 419
f 410 420 419
f 410 411 420
f 411 421 420
f 411 412 421
f 412 422 421
f 412 413 422
f 413 423 422
f 413 414 423
f 414 424 423
f 414 405 424
f 405 415 424
f 425 426 435
f 426 436 435
f 426 427 436
f 427 437 436
f 427 428 437
f 428 438 437
f 428 429 438
f 429 439 438
f 429 430 439
f 430 440 439
f 430 431 440
f 431 441 440
f 431 432 441
f 432 442 441
f 432 433 442
f 433 443 442
f 433 434 443
f 434 444 443
f 434 425 444
f 425 435 444
f 445 446 455
f 446 456 455
f 446 447 456
f 447 457 456
f 447 448 457
f 448 458 457
f 448 449 458
f 449 459 458
f 449 450 459
f 450 460 459
f 450 451 460
f 451 461 460
f 451 452 461
f 452 462 461
f 452 453 462
f 453 463 462
f 453 454 463
f 454 464 463
f 454 445 464
f 445 455 464
f 465 466 475
f 466 476 475
f 466 467 476
f 467 477 476
f 467 468 477
f 468 478 477
f 468 469 478
f 469 479 478
f 469 470 479
f 470 480 479
f 470 471 480
f 471 481 480
f 471 472 481
f 472 482 481
f 472 473 482
f 473 483 482
f 473 474 483
f 474 484 483
f 474 465 484
f 465 475 484
f 485 486 495
f 486 496 495
f 486 487 496
f 487 497 496
f 487 488 497
f 488 498 497
f 488 489 498
f 489 499 498
f 489 490 499
f 490 500 499
f 490 491 500
f 491 501 500
f 491 492 501
f 492 502 501
f 492 493 502
f 493 503 502
f 493 494 503
f 494 504 503
f 494 485 504
f 485 495 504
f 505 506 515
f 506 516 515
f 506 507 516
f 507 517 516
f 507 508 517
f 508 518 517
f 508 509 518
f 509 519 518
f 509 510 519
f 510 520 519
f 510 511 520
f 511 521 520
f 511 512 521
f 512 522 521
f 512 513 522
f 513 523 522
f 513 514 523
f 514 524 523
f 514 505 524
f 505 515 524
f 525 526 535
f 526 536 535
f 526 527 536
f 527 537 536
f 527 528 537
f 528 538 537
f 528 529 538
f 529 539 538
f 529 530 539
f 530 540 539
f 530 531 540
f 531 541 540
f 531 532 541
f 532 542 541
f 532 533 542
f 533 543 542
f 533 534 543
f 534 544 543
f 534 525 544
f 525 535 544
f 545 546 555
f 546 556 555
f 546 547 556
f 547 557 556
f 547 548 557
f 548 558 557
f 548 549 558
f 549 559 558
f 549 550 559
f 550 560 559
f 550 551 560
f 551 561 560
f 551 552 561
f 552 562 561
f 552 553 562
f 553 563 562
f 553 554 563
f 554 564 563
f 554 545 564
f 545 555 564
f 565 566 575
f 566 576 575
f 566 567 576
f 567 577 576
f 567 568 577
f 568 578 577
f 568 569 578
f 569 579 578
f 569 570 579
f 570 580 579
f 570 571 580
f 571 581 580
f 571 572 581
f 572 582 581
f 572 573 582
f 573 583 582
f 573 574 583
f 574 584 583
f 574 565 584
f 565 575 584
f 585 586 595
f 586 596 595
f 586 587 596
f 587 597 596
f 587 588 597
f 588 598 597
f 588 589 598
f 589 599 598
f 589 590 599
f 590 600 599
f 590 591 600
f 591 601 600
f 591 592 601
f 592 602 601
f 592 593 602
f 593 603 602
f 593 594 603
f 594 604 603
f 594 585 604
f 585 595 604
f 605 606 615
f 606 616 615
f 606 607 616
f 607 617 616
f 607 608 617
f 608 618 617
f 608 609 618
f 609 619 618
f 609 610 619
f 610 620 619
f 610 611 620
f 611 621 620
f 611 612 621
f 612 622 621
f 612 613 622
f 613 623 622
f 613 614 623
f 614 624 623
f 614 605 624
f 605 615 624
f 625 626 635
f 626 636 635
f 626 627 636
f 627 637 636
f 627 628 637
f 628 638 637
f 628 629 638
f 629 639 638
f 629 630 639
f 630 640 639
f 630 631 640
f 631 641 640
f 631 632 641
f 632 642 641
f 632 633 642
f 633 643 642
f 633 634 643
f 634 644 643
f 634 625 644
f 625 635 644
f 645 646 655
f 646 656 655
f 646 647 656
f 647 657 656
f 647 648 657
f 648 658 657
f 648 649 658
f 649 659 658
f 649 650 659
f 650 660 659
f 650 651 660
f 651 661 660
f 651 652 661
f 652 662 661
f 652 653 662
f 653 663 662
f 653 654 663
f 654 664 663
f 654 645 664
f 645 655 664
f 665 666 675
f 666 676 675
f 666 667 676
f 667 677 676
f 667 668 677
f 668 678 677
f 668 669 678
f 669 679 678
f 669 670 679
f 670 680 679
f 670 671 680
f 671 681 680
f 671 672 681
f 672 682 681
f 672 673 682
f 673 683 682
f 673 674 683
f 674 684 683
f 674 665 684
f 665 675 684
f 685 686 695
f 686 696 695
f 686 687 696
f 687 697 696
f 687 688 697
f 688 698 697
f 688 689 698
f 689 699 698
f 689 690 699
f 690 700 699
f 690 691 700
f 691 701 700
f 691 692 701
f 692 702 701
f 692 693 702
f 693 703 702
f 693 694 703
f 694 704 703
f 694 685 704
f 685 695 704
f 705 706 715
f 706 716 715
f 706 707 716
f 707 717 716
f 707 708 717
f 708 718 717
f 708 709 718
f 709 719 718
f 709 710 719
f 710 720 719
f 710 711 720
f 711 721 720
f 711 712 721
f 712 722 721
f 712 713 722
f 713 723 722
f 713 714 723
f 714 724 723
f 714 705 724
f 705 715 724
f 725 726 735
f 726 736 735
f 726 727 736
f 727 737 736
f 727 728 737
f 728 738 737
f 728 729 738
f 729 739 738
f 729 730 739
f 730 740 739
f 730 731 740
f 731 741 740
f 731 732 741
f 732 742 741
f 732 733 742
f 733 743 742
f 733 734 743
f 734 744 743
f 734 725 744
f 725 735 744
f 745 746 755
f 746 756 755
f 746 747 756
f 747 757 756
f 747 748 757
f 748 758 757
f 748 749 758
f 749 759 758
f 749 750 759
f 750 760 759
f 750 751 760
f 751 761 760
f 751 752 761
f 752 762 761
f 752 753 762
f 753 763 762
f 753 754 763
f 754 764 763
f 754 745 764
f 745 755 764
f 765 766 775
f 766 776 775
f 766 767 776
f 767 777 776
f 767 768 777
f 768 778 777
f 768 769 778
f 769 779 778
f 769 770 779
f 770 780 779
f 770 771 780
f 771 781 780
f 771 772 781
f 772 782 781
f 772 773 782
f 773 783 782
f 773 774 783
f 774 784 783
f 774 765 784
f 765 775 784
f 785 786 795
f 786 796 795
f 786 787 796
f 787 797 796
f 787 788 797
f 788 798 797
f 788 789 798
f 789 799 798
f 789 790 799
f 790 800 799
f 790 791 800
f 791 801 800
f 791 792 801
f 792 802 801
f 792 793 802
f 793 803 802
f 793 794 803
f 794 804 803
f 794 785 804
f 785 795 804
f 805 806 815
f 806 816 815
f 806 807 816
f 807 817 816
f 807 808 817
f 808 818 817
f 808 809 818
f 809 819 818
f 809 810 819
f 810 820 819
f 810 811 820
f 811 821 820
f 811 812 821
f 812 822 821
f 812 813 822
f 813 823 822
f 813 814 823
f 814 824 823
f 814 805 824
f 805 815 824
f 825 826 835
f 826 836 835
f 826 827 836
f 827 837 836
f 827 828 837
f 828 838 837
f 828 829 838
f 829 839 838
f 829 830 839
f 830 840 839
f 830 831 840
f 831 841 840
f 831 832 841
f 832 842 841
f 832 833 842
f 833 843 842
f 833 834 843
f 834 844 843
f 834 825 844
f 825 835 844
f 845 846 855
f 846 856 855
f 846 847 856
f 847 857 856
f 847 848 857
f 848 858 857
f 848 849 858
f 849 859 858
f 849 850 859
f 850 860 859
f 850 851 860
f 851 861 860
f 851 852 861
f 852 862 861
f 852 853 862
f 853 863 862
f 853 854 863
f 854 864 863
f 854 845 864
f 845 855 864
f 865 866 875
f 866 876 875
f 866 867 876
f 867 877 876
f 867 868 877
f 868 878 877
f 868 869 878
f 869 879 878
f 869 870 879
f 870 880 879
f 870 871 880
f 871 881 880
f 871 872 881
f 872 882 881
f 872 873 882
f 873 883 882
f 873 874 883
f 874 884 883
f 874 865 884
f 865 875 884
f 885 886 895
f 886 896 895
f 886 887 896
f 887 897 896
f 887 888 897
f 888 898 897
f 888 889 898
f 889 899 898
f 889 890 899
f 890 900 899
f 890 891 900
f 891 901 900
f 891 892 901
f 892 902 901
f 892 893 902
f 893 903 902
f 893 894 903
f 894 904 903
f 894 885 904
f 885 895 904
f 905 906 915
f 906 916 915
f 906 907 916
f 907 917 916
f 907 908 917
f 908 918 917
f 908 909 918
f 909 919 918
f 909 910 919
f 910 920 919
f 910 911 920
f 911 921 920
f 911 912 921
f 912 922 921
f 912 913 922
f 913 923 922
f 913 914 923
f 914 924 923
f 914 905 924
f 905 915 924
f 925 926 935
f 926 936 935
f 926 927 936
f 927 937 936
f 927 928 937
f 928 938 937
f 928 929 938
f 929 939 938
f 929 930 939
f 930 940 939
f 930 931 940
f 931 941 940
f 931 932 941
f 932 942 941
f 932 933 942
f 933 943 942
f 933 934 943
f 934 944 943
f 934 925 944
f 925 935 944
f 945 946 955
f 946 956 955
f 946 947 956
f 947 957 956
f 947 948 957
f 948 958 957
f 948 949 958
f 949 959 958
f 949 950 959
f 950 960 959
f 950 951 960
f 951 961 960
f 951 952 961
f 952 962 961
f 952 953 962
f 953 963 962
f 953 954 963
f 954 964 963
f 954 945 964
f 945 955 964
f 965 966 975
f 966 976 975
f 966 967 976
f 967 977 976
f 967 968 977
f 968 978 977
f 968 969 978
f 969 979 978
f 969 970 979
f 970 980 979
f 970 971 980
f 971 981 980
f 971 972 981
f 972 982 981
f 972 973 982
f 973 983 982
f 973 974 983
f 974 984 983
f 974 965 984
f 965 975 984
f 985 986 995
f 986 996 995
f 986 987 996
f 987 997 996
f 987 988 997
f 988 998 997
f 988 989 998
f 989 999 998
f 989 990 999
f 990 1000 999
f 990 991 1000
f 991 1001 1000
f 991 992 1001
f 992 1002 1001
f 992 993 1002
f 993 1003 1002
f 993 994 1003
f 994 1004 1003
f 994 985 1004
f 985 995 1004
f 1005 1006 1015
f 1006 1016 1015
f 1006 1007 1016
f 1007 1017 1016
f 1007 1008 1017
f 1008 1018 1017
f 1008 1009 1018
f 1009 1019 1018
f 1009 1010 1019
f 1010 1020 1019
f 1010 1011 1020
f 1011 1021 1020
f 1011 1012 1021
f 1012 1022 1021
f 1012 1013 1022
f 1013 1023 1022
f 1013 1014 1023
f 1014 1024 1023
f 1014 1005 1024
f 1005 1015 1024
f 1025 1026 1035
f 1026 1036 1035
f 1026 1027 1036
f 1027 1037 1036
f 1027 1028 1037
f 1028 1038 1037
f 1028 1029 1038
f 1029 1039 1038
f 1029 1030 1039
f 1030 1040 1039
f 1030 1031 1040
f 1031 1041 1040
f 1031 1032 1041
f 1032 1042 1041
f 1032 1033 1042
f 1033 1043 1042
f 1033 1034 1043
f 1034 1044 1043
f 1034 1025 1044
f 1025 1035 1044
f 1045 1046 1055
f 1046 1056 1055
f 1046 1047 1056
f 1047 1057 1056
f 1047 1048 1057
f 1048 1058 1057
f 1048 1049 1058
f 1049 1059 1058
f 1049 1050 1059
f 1050 1060 1059
f 1050 1051 1060
f 1051 1061 1060
f 1051 1052 1061
f 1052 1062 1061
f 1052 1053 1062
f 1053 1063 1062
f 1053 1054 1063
f 1054 1064 1063
f 1054 1045 1064
f 1045 1055 1064
f 1065 1066 1075
f 1066 1076 1075
f 1066 1067 1076
f 1067 1077 1076
f 1067 1068 1077
f 1068 1078 1077
f 1068 1069 1078
f 1069 1079 1078
f 1069 1070 1079
f 1070 1080 1079
f 1070 1071 1080
f 1071 1081 1080
f 1071 1072 1081
f 1072 1082 1081
f 1072 1073 1082
f 1073 1083 1082
f 1073 1074 1083
f 1074 1084 1083
f 1074 1065 1084
f 1065 1075 1084
f 1085 1086 1095
f 1086 1096 1095
f 1086 1087 1096
f 1087 1097 1096
f 1087 1088 1097
f 1088 1098 1097
f 1088 1089 1098
f 1089 1099 1098
f 1089 1090 1099
f 1090 1100 1099
f 1090 1091 1100
f 1091 1101 1100
f 1091 1092 1101
f 1092 1102 1101
f 1092 1093 1102
f 1093 1103 1102
f 1093 1094 1103
f 1094 1104 1103
f 1094 1085 1104
f 1085 1095 1104
f 1105 1106 1115
f 1106 1116 1115
f 1106 1107 1116
f 1107 1117 1116
f 1107 1108 1117
f 1108 1118 1117
f 1108 1109 1118
f 1109 1119 1118
f 1109 1110 1119
f 1110 1120 1119
f 1110 1111 1120
f 1111 1121 1120
f 1111 1112 1121
f 1112 1122 1121
f 1112 1113 1122
f 1113 1123 1122
f 1113 1114 1123
f 1114 1124 1123
f 1114 1105 1124
f 1105 1115 1124
f 1125 1126 1135
f 1126 1136 1135
f 1126 1127 1136
f 1127 1137 1136
f 1127 1128 1137
f 1128 1138 1137
f 1128 1129 1138
f 1129 1139 1138
f 1129 1130 1139
f 1130 1140 1139
f 1130 1131 1140
f 1131 1141 1140
f 1131 1132 1141
f 1132 1142 1141
f 1132 1133 1142
f 1133 1143 1142
f 1133 1134 1143
f 1134 1144 1143
f 1134 1125 1144
f 1125 1135 1144
f 1145 1146 1155
f 1146 1156 1155
f 1146 1147 1156
f 1147 1157 1156
f 1147 1148 1157
f 1148 1158 1157
f 1148 1149 1158
f 1149 1159 1158
f 1149 1150 1159
f 1150 1160 1159
f 1150 1151 1160
f 1151 1161 1160
f 1151 1152 1161
f 1152 1162 1161
f 1152 1153 1162
f 1153 1163 1162
f 1153 1154 1163
f 1154 1164 1163
f 1154 1145 1164
f 1145 1155 1164
f 1165 1166 1175
f 1166 1176 1175
f 1166 1167 1176
f 1167 1177 1176
f 1167 1168 1177
f 1168 1178 1177
f 1168 1169 1178
f 1169 1179 1178
f 1169 1170 1179
f 1170 1180 1179
f 1170 1171 1180
f 1171 1181 1180
f 1171 1172 1181
f 1172 1182 1181
f 1172 1173 1182
f 1173 1183 1182
f 1173 1174 1183
f 1174 1184 1183
f 1174 1165 1184
f 1165 1175 1184
