# Full-Body 3D Mesh - Frame 48
v 0.020940 -0.631548 -0.084978
v 0.054747 -0.631548 -0.089839
v 0.085816 -0.631548 -0.104028
v 0.111630 -0.631548 -0.126395
v 0.130095 -0.631548 -0.155128
v 0.139718 -0.631548 -0.187900
v 0.139718 -0.631548 -0.222056
v 0.130095 -0.631548 -0.254828
v 0.111630 -0.631548 -0.283561
v 0.085816 -0.631548 -0.305929
v 0.054747 -0.631548 -0.320117
v 0.020940 -0.631548 -0.324978
v 0.020940 -0.631548 -0.084978
v 0.049381 -0.613270 -0.089839
v 0.075517 -0.596473 -0.104028
v 0.097233 -0.582517 -0.126395
v 0.112767 -0.572534 -0.155128
v 0.120862 -0.567331 -0.187900
v 0.120862 -0.567331 -0.222056
v 0.112767 -0.572534 -0.254828
v 0.097233 -0.582517 -0.283561
v 0.075517 -0.596473 -0.305929
v 0.049381 -0.613270 -0.320117
v 0.020940 -0.631548 -0.324978
v 0.020940 -0.631548 -0.084978
v 0.034984 -0.600795 -0.089839
v 0.047890 -0.572534 -0.104028
v 0.058614 -0.549053 -0.126395
v 0.066285 -0.532256 -0.155128
v 0.070282 -0.523503 -0.187900
v 0.070282 -0.523503 -0.222056
v 0.066285 -0.532256 -0.254828
v 0.058614 -0.549053 -0.283561
v 0.047890 -0.572534 -0.305929
v 0.034984 -0.600795 -0.320117
v 0.020940 -0.631548 -0.324978
v 0.020940 -0.631548 -0.084978
v 0.016128 -0.598084 -0.089839
v 0.011707 -0.567331 -0.104028
v 0.008033 -0.541781 -0.126395
v 0.005405 -0.523503 -0.155128
v 0.004036 -0.513978 -0.187900
v 0.004036 -0.513978 -0.222056
v 0.005405 -0.523503 -0.254828
v 0.008033 -0.541781 -0.283561
v 0.011707 -0.567331 -0.305929
v 0.016128 -0.598084 -0.320117
v 0.020940 -0.631548 -0.324978
v 0.020940 -0.631548 -0.084978
v -0.001200 -0.605998 -0.089839
v -0.021546 -0.582517 -0.104028
v -0.038450 -0.563009 -0.126395
v -0.050542 -0.549053 -0.155128
v -0.056844 -0.541781 -0.187900
v -0.056844 -0.541781 -0.222056
v -0.050542 -0.549053 -0.254828
v -0.038450 -0.563009 -0.283561
v -0.021546 -0.582517 -0.305929
v -0.001200 -0.605998 -0.320117
v 0.020940 -0.631548 -0.324978
v 0.020940 -0.631548 -0.084978
v -0.011499 -0.622023 -0.089839
v -0.041309 -0.613270 -0.104028
v -0.066077 -0.605998 -0.126395
v -0.083795 -0.600795 -0.155128
v -0.093028 -0.598084 -0.187900
v -0.093028 -0.598084 -0.222056
v -0.083795 -0.600795 -0.254828
v -0.066077 -0.605998 -0.283561
v -0.041309 -0.613270 -0.305929
v -0.011499 -0.622023 -0.320117
v 0.020940 -0.631548 -0.324978
v 0.020940 -0.631548 -0.084978
v -0.011499 -0.641073 -0.089839
v -0.041309 -0.649826 -0.104028
v -0.066077 -0.657098 -0.126395
v -0.083795 -0.662301 -0.155128
v -0.093028 -0.665012 -0.187900
v -0.093028 -0.665012 -0.222056
v -0.083795 -0.662301 -0.254828
v -0.066077 -0.657098 -0.283561
v -0.041309 -0.649826 -0.305929
v -0.011499 -0.641073 -0.320117
v 0.020940 -0.631548 -0.324978
v 0.020940 -0.631548 -0.084978
v -0.001200 -0.657098 -0.089839
v -0.021546 -0.680579 -0.104028
v -0.038450 -0.700087 -0.126395
v -0.050542 -0.714042 -0.155128
v -0.056844 -0.721315 -0.187900
v -0.056844 -0.721315 -0.222056
v -0.050542 -0.714042 -0.254828
v -0.038450 -0.700087 -0.283561
v -0.021546 -0.680579 -0.305929
v -0.001200 -0.657098 -0.320117
v 0.020940 -0.631548 -0.324978
v 0.020940 -0.631548 -0.084978
v 0.016128 -0.665012 -0.089839
v 0.011707 -0.695764 -0.104028
v 0.008033 -0.721315 -0.126395
v 0.005405 -0.739593 -0.155128
v 0.004036 -0.749117 -0.187900
v 0.004036 -0.749117 -0.222056
v 0.005405 -0.739593 -0.254828
v 0.008033 -0.721315 -0.283561
v 0.011707 -0.695764 -0.305929
v 0.016128 -0.665012 -0.320117
v 0.020940 -0.631548 -0.324978
v 0.020940 -0.631548 -0.084978
v 0.034984 -0.662301 -0.089839
v 0.047890 -0.690562 -0.104028
v 0.058614 -0.714042 -0.126395
v 0.066285 -0.730840 -0.155128
v 0.070282 -0.739593 -0.187900
v 0.070282 -0.739593 -0.222056
v 0.066285 -0.730840 -0.254828
v 0.058614 -0.714042 -0.283561
v 0.047890 -0.690562 -0.305929
v 0.034984 -0.662301 -0.320117
v 0.020940 -0.631548 -0.324978
v 0.020940 -0.631548 -0.084978
v 0.049381 -0.649826 -0.089839
v 0.075517 -0.666623 -0.104028
v 0.097233 -0.680579 -0.126395
v 0.112767 -0.690562 -0.155128
v 0.120862 -0.695764 -0.187900
v 0.120862 -0.695764 -0.222056
v 0.112767 -0.690562 -0.254828
v 0.097233 -0.680579 -0.283561
v 0.075517 -0.666623 -0.305929
v 0.049381 -0.649826 -0.320117
v 0.020940 -0.631548 -0.324978
v 0.020940 -0.631548 -0.084978
v 0.054747 -0.631548 -0.089839
v 0.085816 -0.631548 -0.104028
v 0.111630 -0.631548 -0.126395
v 0.130095 -0.631548 -0.155128
v 0.139718 -0.631548 -0.187900
v 0.139718 -0.631548 -0.222056
v 0.130095 -0.631548 -0.254828
v 0.111630 -0.631548 -0.283561
v 0.085816 -0.631548 -0.305929
v 0.054747 -0.631548 -0.320117
v 0.020940 -0.631548 -0.324978
v 0.177736 -0.451440 -0.063213
v 0.177115 -0.474942 -0.055570
v 0.176814 -0.489467 -0.035568
v 0.176947 -0.489467 -0.010847
v 0.177463 -0.474942 0.009150
v 0.178165 -0.451440 0.016786
v 0.178786 -0.427937 0.009143
v 0.179087 -0.413412 -0.010859
v 0.178955 -0.413412 -0.035580
v 0.178438 -0.427937 -0.055577
v -0.158724 -0.441968 -0.061406
v -0.159345 -0.465470 -0.053763
v -0.159646 -0.479995 -0.033761
v -0.159514 -0.479995 -0.009040
v -0.158997 -0.465470 0.010958
v -0.158295 -0.441968 0.018593
v -0.157674 -0.418466 0.010950
v -0.157373 -0.403941 -0.009051
v -0.157505 -0.403941 -0.033772
v -0.158022 -0.418466 -0.053770
v 0.177951 -0.478839 -0.052356
v 0.155757 -0.467951 -0.052107
v 0.142041 -0.450757 -0.040822
v 0.142041 -0.433823 -0.022810
v 0.155757 -0.423618 -0.004953
v 0.177951 -0.424040 0.005929
v 0.200144 -0.434928 0.005680
v 0.213860 -0.452122 -0.005606
v 0.213860 -0.469056 -0.023617
v 0.200144 -0.479261 -0.041474
v 0.263918 -0.299751 -0.220731
v 0.241725 -0.288863 -0.220482
v 0.228008 -0.271668 -0.209197
v 0.228008 -0.254735 -0.191186
v 0.241725 -0.244530 -0.173329
v 0.263918 -0.244952 -0.162446
v 0.286111 -0.255840 -0.162695
v 0.299828 -0.273034 -0.173981
v 0.299828 -0.289968 -0.191992
v 0.286111 -0.300173 -0.209849
v 0.263918 -0.308808 -0.175130
v 0.243500 -0.297049 -0.167648
v 0.230881 -0.275856 -0.169311
v 0.230881 -0.253324 -0.179484
v 0.243500 -0.238060 -0.194280
v 0.263918 -0.235895 -0.208048
v 0.284336 -0.247654 -0.215529
v 0.296955 -0.268847 -0.213866
v 0.296955 -0.291379 -0.203694
v 0.284336 -0.306642 -0.188898
v 0.102045 -0.425469 -0.433532
v 0.081628 -0.413710 -0.426051
v 0.069009 -0.392517 -0.427714
v 0.069009 -0.369985 -0.437886
v 0.081628 -0.354721 -0.452682
v 0.102045 -0.352556 -0.466451
v 0.122463 -0.364315 -0.473932
v 0.135082 -0.385508 -0.472269
v 0.135082 -0.408040 -0.462097
v 0.122463 -0.423303 -0.447301
v -0.158510 -0.440394 -0.061375
v -0.181707 -0.444519 -0.053892
v -0.196044 -0.447670 -0.034001
v -0.196044 -0.448643 -0.009299
v -0.181707 -0.447066 0.010779
v -0.158510 -0.443542 0.018563
v -0.135312 -0.439417 0.011080
v -0.120975 -0.436266 -0.008811
v -0.120975 -0.435293 -0.033514
v -0.135312 -0.436870 -0.053591
v -0.196195 -0.212169 -0.052389
v -0.219393 -0.216294 -0.044906
v -0.233730 -0.219445 -0.025014
v -0.233730 -0.220417 -0.000312
v -0.219393 -0.218841 0.019765
v -0.196195 -0.215317 0.027550
v -0.172998 -0.211191 0.020067
v -0.158661 -0.208041 0.000175
v -0.158661 -0.207068 -0.024527
v -0.172998 -0.208645 -0.044605
v -0.196195 -0.239825 -0.042746
v -0.219706 -0.235001 -0.036819
v -0.234236 -0.222057 -0.021572
v -0.234236 -0.205938 -0.002829
v -0.219706 -0.192799 0.012251
v -0.196195 -0.187661 0.017907
v -0.172685 -0.192484 0.011980
v -0.158155 -0.205428 -0.003267
v -0.158155 -0.221548 -0.022010
v -0.172685 -0.234686 -0.037090
v -0.197787 -0.103207 -0.160242
v -0.221298 -0.098383 -0.154315
v -0.235828 -0.085440 -0.139068
v -0.235828 -0.069320 -0.120325
v -0.221298 -0.056182 -0.105245
v -0.197787 -0.051043 -0.099588
v -0.174277 -0.055867 -0.105516
v -0.159746 -0.068810 -0.120763
v -0.159746 -0.084930 -0.139506
v -0.174277 -0.098069 -0.154586
v 0.177951 -0.448298 -0.063090
v 0.154562 -0.451287 -0.055663
v 0.140107 -0.454335 -0.035841
v 0.140107 -0.456277 -0.011196
v 0.154562 -0.456371 0.008859
v 0.177951 -0.454582 0.016663
v 0.201339 -0.451592 0.009235
v 0.215795 -0.448544 -0.010586
v 0.215795 -0.446602 -0.035231
v 0.201339 -0.446508 -0.055286
v 0.132073 -0.002057 -0.027929
v 0.108684 -0.005047 -0.020502
v 0.094229 -0.008095 -0.000680
v 0.094229 -0.010037 0.023965
v 0.108684 -0.010131 0.044020
v 0.132073 -0.008341 0.051824
v 0.155462 -0.005352 0.044396
v 0.169917 -0.002304 0.024574
v 0.169917 -0.000362 -0.000071
v 0.155462 -0.000268 -0.020125
v -0.158510 -0.440744 -0.061387
v -0.181976 -0.439518 -0.053707
v -0.196478 -0.439228 -0.033689
v -0.196478 -0.439985 -0.008979
v -0.181976 -0.441499 0.010984
v -0.158510 -0.443192 0.018575
v -0.135044 -0.444418 0.010895
v -0.120541 -0.444708 -0.009124
v -0.120541 -0.443951 -0.033833
v -0.135044 -0.442437 -0.053796
v -0.131999 -0.014886 -0.048348
v -0.155465 -0.013661 -0.040668
v -0.169967 -0.013371 -0.020649
v -0.169967 -0.014127 0.004060
v -0.155465 -0.015642 0.024024
v -0.131999 -0.017335 0.031615
v -0.108533 -0.018560 0.023934
v -0.094030 -0.018850 0.003916
v -0.094030 -0.018094 -0.020794
v -0.108533 -0.016580 -0.040757
v 0.135141 -0.005199 -0.027935
v 0.135520 -0.028691 -0.020244
v 0.134583 -0.043209 -0.000257
v 0.132687 -0.043209 0.024392
v 0.130556 -0.028691 0.044287
v 0.129005 -0.005199 0.051829
v 0.128626 0.018292 0.044138
v 0.129564 0.032811 0.024151
v 0.131460 0.032811 -0.000497
v 0.133590 0.018292 -0.020392
v -0.128931 -0.016111 -0.048249
v -0.128552 -0.039602 -0.040558
v -0.129489 -0.054121 -0.020571
v -0.131385 -0.054121 0.004078
v -0.133516 -0.039602 0.023973
v -0.135067 -0.016111 0.031515
v -0.135446 0.007381 0.023824
v -0.134508 0.021899 0.003837
v -0.132612 0.021899 -0.020811
v -0.130481 0.007381 -0.040706
v 0.132073 -0.031353 -0.018319
v 0.108629 -0.025016 -0.013698
v 0.094140 -0.011109 0.000718
v 0.094140 0.005054 0.019423
v 0.108629 0.017301 0.035273
v 0.132073 0.020954 0.042213
v 0.155518 0.014617 0.037593
v 0.170007 0.000710 0.023177
v 0.170007 -0.015453 0.004471
v 0.155518 -0.027700 -0.011378
v 0.141728 0.065189 -0.101742
v 0.118284 0.071526 -0.097122
v 0.103794 0.085433 -0.082706
v 0.103794 0.101596 -0.064000
v 0.118284 0.113843 -0.048151
v 0.141728 0.117496 -0.041211
v 0.165172 0.111159 -0.045831
v 0.179662 0.097252 -0.060247
v 0.179662 0.081089 -0.078952
v 0.165172 0.068842 -0.094802
v 0.141728 0.114368 -0.104184
v 0.118314 0.111717 -0.096708
v 0.103843 0.101283 -0.079595
v 0.103843 0.087053 -0.059380
v 0.118314 0.074460 -0.043786
v 0.141728 0.068317 -0.038768
v 0.165142 0.070968 -0.046244
v 0.179613 0.081402 -0.063358
v 0.179613 0.095632 -0.083573
v 0.165142 0.108225 -0.099167
v 0.168850 0.357518 0.066989
v 0.145435 0.354867 0.074465
v 0.130965 0.344433 0.091579
v 0.130965 0.330202 0.111793
v 0.145435 0.317610 0.127387
v 0.168850 0.311466 0.132405
v 0.192264 0.314117 0.124929
v 0.206735 0.324551 0.107815
v 0.206735 0.338782 0.087600
v 0.192264 0.351374 0.072006
v -0.131999 -0.053563 0.005681
v -0.154640 -0.048635 -0.002934
v -0.168634 -0.031284 -0.013623
v -0.168634 -0.008137 -0.022305
v -0.154640 0.011964 -0.025663
v -0.131999 0.021342 -0.022415
v -0.109357 0.016414 -0.013800
v -0.095363 -0.000937 -0.003110
v -0.095363 -0.024084 0.005572
v -0.109357 -0.044185 0.008930
v -0.074875 -0.125261 -0.185470
v -0.097517 -0.120333 -0.194084
v -0.111511 -0.102982 -0.204774
v -0.111511 -0.079835 -0.213456
v -0.097517 -0.059734 -0.216814
v -0.074875 -0.050357 -0.213565
v -0.052234 -0.055284 -0.204951
v -0.038240 -0.072635 -0.194261
v -0.038240 -0.095782 -0.185579
v -0.052234 -0.115883 -0.182221
v -0.074875 -0.088895 -0.239503
v -0.098383 -0.089112 -0.231855
v -0.112911 -0.088831 -0.211855
v -0.112911 -0.088159 -0.187143
v -0.098383 -0.087354 -0.167157
v -0.074875 -0.086723 -0.159532
v -0.051368 -0.086506 -0.167180
v -0.036839 -0.086787 -0.187180
v -0.036839 -0.087458 -0.211892
v -0.051368 -0.088263 -0.231878
v -0.079943 0.191746 -0.247125
v -0.103450 0.191529 -0.239477
v -0.117979 0.191810 -0.219478
v -0.117979 0.192481 -0.194765
v -0.103450 0.193286 -0.174780
v -0.079943 0.193918 -0.167155
v -0.056435 0.194135 -0.174803
v -0.041906 0.193854 -0.194803
v -0.041906 0.193182 -0.219515
v -0.056435 0.192377 -0.239500
v 0.070813 0.030590 0.053943
v 0.065229 0.035659 0.048552
v 0.061778 0.036461 0.039985
v 0.061778 0.032692 0.031516
v 0.065229 0.025790 0.026378
v 0.070813 0.018392 0.026535
v 0.076398 0.013323 0.031927
v 0.079849 0.012521 0.040493
v 0.079849 0.016290 0.048963
v 0.076398 0.023192 0.054100
v 0.044546 0.010949 0.062685
v 0.038962 0.016017 0.057294
v 0.035511 0.016820 0.048727
v 0.035511 0.013050 0.040258
v 0.038962 0.006148 0.035120
v 0.044546 -0.001250 0.035277
v 0.050131 -0.006318 0.040669
v 0.053582 -0.007121 0.049235
v 0.053582 -0.003352 0.057705
v 0.050131 0.003550 0.062842
v 0.040075 0.004849 0.034663
v 0.042453 -0.003822 0.036922
v 0.045630 -0.009181 0.043787
v 0.048394 -0.009181 0.052636
v 0.049688 -0.003822 0.060089
v 0.049018 0.004849 0.063299
v 0.046640 0.013520 0.061041
v 0.043463 0.018879 0.054176
v 0.040699 0.018879 0.045327
v 0.039405 0.013520 0.037874
v 0.013797 -0.000219 0.042870
v 0.016175 -0.008890 0.045128
v 0.019353 -0.014249 0.051993
v 0.022116 -0.014249 0.060842
v 0.023410 -0.008890 0.068295
v 0.022740 -0.000219 0.071506
v 0.020363 0.008452 0.069247
v 0.017185 0.013812 0.062382
v 0.014422 0.013812 0.053533
v 0.013128 0.008452 0.046080
v 0.014447 -0.000219 0.042683
v 0.014363 -0.008995 0.045667
v 0.015770 -0.014419 0.053052
v 0.018132 -0.014419 0.062017
v 0.020546 -0.008995 0.069137
v 0.022090 -0.000219 0.071693
v 0.022175 0.008558 0.068708
v 0.020768 0.013982 0.061323
v 0.018406 0.013982 0.052358
v 0.015992 0.008558 0.045238
v -0.003431 0.001556 0.047393
v -0.003516 -0.007221 0.050378
v -0.002108 -0.012645 0.057763
v 0.000254 -0.012645 0.066727
v 0.002668 -0.007221 0.073847
v 0.004212 0.001556 0.076403
v 0.004297 0.010332 0.073418
v 0.002889 0.015756 0.066033
v 0.000527 0.015756 0.057068
v -0.001887 0.010332 0.049948
v 0.005332 0.001556 0.047735
v 0.002774 -0.007094 0.049877
v -0.000694 -0.012439 0.056610
v -0.003748 -0.012439 0.065363
v -0.005221 -0.007094 0.072793
v -0.004551 0.001556 0.076061
v -0.001993 0.010205 0.073919
v 0.001475 0.015551 0.067185
v 0.004529 0.015551 0.058432
v 0.006002 0.010205 0.051003
v -0.011996 0.005183 0.041690
v -0.014554 -0.003467 0.043831
v -0.018022 -0.008812 0.050565
v -0.021076 -0.008812 0.059318
v -0.022549 -0.003467 0.066747
v -0.021878 0.005183 0.070015
v -0.019321 0.013832 0.067873
v -0.015853 0.019178 0.061140
v -0.012799 0.019178 0.052387
v -0.011326 0.013832 0.044958
v 0.070813 0.016713 0.053065
v 0.066348 0.024699 0.054558
v 0.063588 0.032605 0.050581
v 0.063588 0.037412 0.042654
v 0.066348 0.037284 0.033805
v 0.070813 0.032269 0.027413
v 0.075279 0.024283 0.025921
v 0.078039 0.016377 0.029898
v 0.078039 0.011570 0.037825
v 0.075279 0.011698 0.046674
v -0.003584 -0.020657 0.030403
v -0.008050 -0.012671 0.031895
v -0.010810 -0.004765 0.027919
v -0.010810 0.000042 0.019992
v -0.008050 -0.000086 0.011143
v -0.003584 -0.005101 0.004751
v 0.000882 -0.013087 0.003259
v 0.003642 -0.020993 0.007236
v 0.003642 -0.025800 0.015162
v 0.000882 -0.025672 0.024012
v -0.003354 -0.012879 0.002579
v -0.004728 -0.021595 0.005423
v -0.005665 -0.026981 0.012909
v -0.005807 -0.026981 0.022179
v -0.005100 -0.021595 0.029691
v -0.003814 -0.012879 0.032575
v -0.002440 -0.004163 0.029731
v -0.001503 0.001224 0.022245
v -0.001361 0.001224 0.012975
v -0.002068 -0.004163 0.005464
v -0.024112 -0.009710 0.002261
v -0.025486 -0.018426 0.005105
v -0.026423 -0.023813 0.012591
v -0.026565 -0.023813 0.021860
v -0.025858 -0.018426 0.029372
v -0.024572 -0.009710 0.032257
v -0.023198 -0.000995 0.029413
v -0.022261 0.004392 0.021926
v -0.022119 0.004392 0.012657
v -0.022826 -0.000995 0.005145
v -0.024342 0.003050 0.009374
v -0.030068 -0.002911 0.005177
v -0.033607 -0.011469 0.005594
v -0.033607 -0.019356 0.010467
v -0.030068 -0.023558 0.017934
v -0.024342 -0.022471 0.025143
v -0.018616 -0.016510 0.029341
v -0.015077 -0.007952 0.028924
v -0.015077 -0.000065 0.024051
v -0.018616 0.004137 0.016584
v -0.042703 0.011293 0.022715
v -0.048429 0.005332 0.018517
v -0.051968 -0.003226 0.018934
v -0.051968 -0.011113 0.023807
v -0.048429 -0.015315 0.031274
v -0.042703 -0.014228 0.038484
v -0.036977 -0.008267 0.042681
v -0.033438 0.000291 0.042264
v -0.033438 0.008178 0.037391
v -0.036977 0.012380 0.029924
v -0.042703 0.009638 0.020516
v -0.050100 0.004292 0.018889
v -0.054671 -0.003255 0.021735
v -0.054671 -0.010118 0.027967
v -0.050100 -0.013678 0.035204
v -0.042703 -0.012573 0.040682
v -0.035306 -0.007227 0.042309
v -0.030735 0.000319 0.039463
v -0.030735 0.007183 0.033232
v -0.035306 0.010742 0.025994
v -0.056543 0.023979 0.036312
v -0.063940 0.018633 0.034685
v -0.068511 0.011087 0.037531
v -0.068511 0.004223 0.043763
v -0.063940 0.000664 0.051000
v -0.056543 0.001768 0.056478
v -0.049146 0.007114 0.058105
v -0.044575 0.014661 0.055259
v -0.044575 0.021524 0.049027
v -0.049146 0.025084 0.041790
v 0.070813 0.012258 0.048920
v 0.065993 0.018866 0.053283
v 0.063015 0.027623 0.052664
v 0.063015 0.035184 0.047299
v 0.065993 0.038660 0.039238
v 0.070813 0.036724 0.031559
v 0.075633 0.030116 0.027196
v 0.078612 0.021359 0.027815
v 0.078612 0.013798 0.033180
v 0.075633 0.010322 0.041241
v -0.002954 -0.015612 0.009643
v -0.007774 -0.009004 0.014006
v -0.010753 -0.000246 0.013387
v -0.010753 0.007314 0.008022
v -0.007774 0.010790 -0.000039
v -0.002954 0.008854 -0.007718
v 0.001866 0.002246 -0.012081
v 0.004845 -0.006511 -0.011462
v 0.004845 -0.014072 -0.006097
v 0.001866 -0.017548 0.001964
v -0.003395 -0.003379 -0.014031
v -0.003738 -0.012185 -0.011155
v -0.003782 -0.017628 -0.003651
v -0.003509 -0.017628 0.005616
v -0.003024 -0.012185 0.013105
v -0.002513 -0.003379 0.015956
v -0.002170 0.005427 0.013080
v -0.002126 0.010870 0.005575
v -0.002399 0.010870 -0.003691
v -0.002883 0.005427 -0.011180
v -0.030168 -0.002079 -0.013243
v -0.030511 -0.010885 -0.010367
v -0.030555 -0.016328 -0.002863
v -0.030282 -0.016328 0.006404
v -0.029797 -0.010885 0.013893
v -0.029286 -0.002079 0.016744
v -0.028943 0.006728 0.013868
v -0.028899 0.012170 0.006363
v -0.029172 0.012170 -0.002903
v -0.029657 0.006728 -0.010392
v -0.029727 0.007709 -0.009617
v -0.036354 0.001432 -0.011241
v -0.040449 -0.006185 -0.007903
v -0.040449 -0.012234 -0.000877
v -0.036354 -0.014404 0.007151
v -0.029727 -0.011866 0.013117
v -0.023100 -0.005590 0.014741
v -0.019005 0.002028 0.011403
v -0.019005 0.008077 0.004378
v -0.023100 0.010247 -0.003651
v -0.048271 0.023720 0.004170
v -0.054898 0.017444 0.002546
v -0.058993 0.009826 0.005884
v -0.058993 0.003778 0.012909
v -0.054898 0.001608 0.020938
v -0.048271 0.004146 0.026904
v -0.041645 0.010422 0.028528
v -0.037549 0.018040 0.025190
v -0.037549 0.024089 0.018164
v -0.041645 0.026258 0.010136
v -0.048271 0.026944 0.008072
v -0.056606 0.023027 0.007002
v -0.061756 0.015637 0.009193
v -0.061756 0.007596 0.013806
v -0.056606 0.001976 0.019081
v -0.048271 0.000922 0.023002
v -0.039937 0.004839 0.024071
v -0.034786 0.012229 0.021881
v -0.034786 0.020270 0.017268
v -0.039937 0.025891 0.011993
v -0.057162 0.039761 0.030412
v -0.065496 0.035845 0.029343
v -0.070647 0.028455 0.031533
v -0.070647 0.020414 0.036146
v -0.065496 0.014793 0.041421
v -0.057162 0.013740 0.045342
v -0.048828 0.017656 0.046412
v -0.043677 0.025047 0.044221
v -0.043677 0.033088 0.039608
v -0.048828 0.038708 0.034333
v 0.070813 0.010079 0.044397
v 0.065366 0.014753 0.050264
v 0.061999 0.023147 0.052302
v 0.061999 0.032054 0.049732
v 0.065366 0.038072 0.043536
v 0.070813 0.038903 0.036082
v 0.076261 0.034229 0.030215
v 0.079628 0.025835 0.028177
v 0.079628 0.016928 0.030747
v 0.076261 0.010910 0.036942
v 0.000771 -0.005177 -0.008485
v -0.004676 -0.000503 -0.002618
v -0.008043 0.007891 -0.000580
v -0.008043 0.016798 -0.003150
v -0.004676 0.022816 -0.009345
v 0.000771 0.023647 -0.016800
v 0.006219 0.018973 -0.022667
v 0.009586 0.010580 -0.024705
v 0.009586 0.001672 -0.022135
v 0.006219 -0.004346 -0.015940
v -0.001353 0.009235 -0.027491
v -0.002643 0.000586 -0.024413
v -0.002629 -0.004759 -0.016838
v -0.001316 -0.004759 -0.007661
v 0.000795 0.000586 -0.000387
v 0.002896 0.009235 0.002206
v 0.004186 0.017884 -0.000872
v 0.004172 0.023229 -0.008446
v 0.002858 0.023229 -0.017623
v 0.000748 0.017884 -0.024898
v -0.024467 0.013860 -0.024184
v -0.025757 0.005211 -0.021105
v -0.025743 -0.000134 -0.013531
v -0.024430 -0.000134 -0.004354
v -0.022319 0.005211 0.002920
v -0.020218 0.013860 0.005514
v -0.018928 0.022508 0.002435
v -0.018943 0.027854 -0.005139
v -0.020256 0.027854 -0.014316
v -0.022366 0.022508 -0.021591
v -0.022343 0.025294 -0.019044
v -0.028801 0.019225 -0.021765
v -0.032792 0.011107 -0.019739
v -0.032792 0.004040 -0.013739
v -0.028801 0.000724 -0.006057
v -0.022343 0.002425 0.000373
v -0.015885 0.008494 0.003095
v -0.011894 0.016612 0.001069
v -0.011894 0.023679 -0.004932
v -0.015885 0.026995 -0.012614
v -0.039699 0.037380 -0.004809
v -0.046157 0.031311 -0.007530
v -0.050149 0.023193 -0.005504
v -0.050149 0.016126 0.000496
v -0.046157 0.012810 0.008178
v -0.039699 0.014511 0.014608
v -0.033241 0.020580 0.017330
v -0.029250 0.028698 0.015303
v -0.029250 0.035765 0.009303
v -0.033241 0.039081 0.001621
v -0.039699 0.039522 -0.001479
v -0.047631 0.035292 -0.003745
v -0.052533 0.027492 -0.002710
v -0.052533 0.019101 0.001232
v -0.047631 0.013325 0.006575
v -0.039699 0.012369 0.011278
v -0.031768 0.016599 0.013545
v -0.026866 0.024399 0.012509
v -0.026866 0.032790 0.008567
v -0.031768 0.038566 0.003224
v -0.051542 0.049896 0.020603
v -0.059474 0.045666 0.018336
v -0.064376 0.037866 0.019371
v -0.064376 0.029475 0.023313
v -0.059474 0.023699 0.028656
v -0.051542 0.022743 0.033359
v -0.043611 0.026973 0.035626
v -0.038709 0.034773 0.034590
v -0.038709 0.043164 0.030648
v -0.043611 0.048940 0.025306
v 0.070813 0.009493 0.040016
v 0.065168 0.012256 0.046830
v 0.061679 0.019693 0.051127
v 0.061679 0.028963 0.051265
v 0.065168 0.036524 0.047192
v 0.070813 0.039489 0.040463
v 0.076459 0.036726 0.033648
v 0.079948 0.029289 0.029352
v 0.079948 0.020019 0.029214
v 0.076459 0.012458 0.033287
v 0.008142 0.010270 -0.012222
v 0.002497 0.013034 -0.005408
v -0.000992 0.020471 -0.001112
v -0.000992 0.029740 -0.000974
v 0.002497 0.037302 -0.005047
v 0.008142 0.040267 -0.011776
v 0.013788 0.037504 -0.018590
v 0.017277 0.030067 -0.022887
v 0.017277 0.020797 -0.023025
v 0.013788 0.013236 -0.018951
v 0.009285 0.025269 -0.026956
v 0.007068 0.016683 -0.024252
v 0.005261 0.011377 -0.016868
v 0.004555 0.011377 -0.007625
v 0.005218 0.016683 -0.000052
v 0.006999 0.025269 0.002957
v 0.009216 0.033855 0.000254
v 0.011023 0.039161 -0.007130
v 0.011730 0.039161 -0.016374
v 0.011066 0.033855 -0.023946
v -0.008541 0.029443 -0.028318
v -0.010758 0.020857 -0.025615
v -0.012565 0.015551 -0.018231
v -0.013272 0.015551 -0.008987
v -0.012608 0.020857 -0.001415
v -0.010827 0.029443 0.001595
v -0.008610 0.038029 -0.001109
v -0.006803 0.043335 -0.008493
v -0.006097 0.043335 -0.017736
v -0.006760 0.038029 -0.025309
v -0.009684 0.041942 -0.021655
v -0.014767 0.035572 -0.026074
v -0.017908 0.026861 -0.025637
v -0.017908 0.019136 -0.020512
v -0.014767 0.015348 -0.012656
v -0.009684 0.016944 -0.005069
v -0.004601 0.023314 -0.000650
v -0.001460 0.032025 -0.001086
v -0.001460 0.039750 -0.006211
v -0.004601 0.043538 -0.014068
v -0.031296 0.050372 -0.008949
v -0.036379 0.044002 -0.013368
v -0.039520 0.035291 -0.012932
v -0.039520 0.027566 -0.007806
v -0.036379 0.023779 0.000050
v -0.031296 0.025374 0.007637
v -0.026213 0.031744 0.012056
v -0.023071 0.040456 0.011620
v -0.023071 0.048180 0.006494
v -0.026213 0.051968 -0.001362
v -0.031296 0.050621 -0.008561
v -0.037655 0.044968 -0.012241
v -0.041586 0.036605 -0.011496
v -0.041586 0.028727 -0.006610
v -0.037655 0.024342 0.000550
v -0.031296 0.025126 0.007249
v -0.024936 0.030778 0.010929
v -0.021006 0.039141 0.010184
v -0.021006 0.047020 0.005298
v -0.024936 0.051405 -0.001862
v -0.045617 0.058481 0.004114
v -0.051977 0.052828 0.000434
v -0.055907 0.044466 0.001179
v -0.055907 0.036587 0.006065
v -0.051977 0.032202 0.013225
v -0.045617 0.032986 0.019924
v -0.039257 0.038639 0.023604
v -0.035327 0.047002 0.022859
v -0.035327 0.054880 0.017974
v -0.039257 0.059265 0.010813
f 1 2 13
f 2 14 13
f 2 3 14
f 3 15 14
f 3 4 15
f 4 16 15
f 4 5 16
f 5 17 16
f 5 6 17
f 6 18 17
f 6 7 18
f 7 19 18
f 7 8 19
f 8 20 19
f 8 9 20
f 9 21 20
f 9 10 21
f 10 22 21
f 10 11 22
f 11 23 22
f 11 12 23
f 12 24 23
f 13 14 25
f 14 26 25
f 14 15 26
f 15 27 26
f 15 16 27
f 16 28 27
f 16 17 28
f 17 29 28
f 17 18 29
f 18 30 29
f 18 19 30
f 19 31 30
f 19 20 31
f 20 32 31
f 20 21 32
f 21 33 32
f 21 22 33
f 22 34 33
f 22 23 34
f 23 35 34
f 23 24 35
f 24 36 35
f 25 26 37
f 26 38 37
f 26 27 38
f 27 39 38
f 27 28 39
f 28 40 39
f 28 29 40
f 29 41 40
f 29 30 41
f 30 42 41
f 30 31 42
f 31 43 42
f 31 32 43
f 32 44 43
f 32 33 44
f 33 45 44
f 33 34 45
f 34 46 45
f 34 35 46
f 35 47 46
f 35 36 47
f 36 48 47
f 37 38 49
f 38 50 49
f 38 39 50
f 39 51 50
f 39 40 51
f 40 52 51
f 40 41 52
f 41 53 52
f 41 42 53
f 42 54 53
f 42 43 54
f 43 55 54
f 43 44 55
f 44 56 55
f 44 45 56
f 45 57 56
f 45 46 57
f 46 58 57
f 46 47 58
f 47 59 58
f 47 48 59
f 48 60 59
f 49 50 61
f 50 62 61
f 50 51 62
f 51 63 62
f 51 52 63
f 52 64 63
f 52 53 64
f 53 65 64
f 53 54 65
f 54 66 65
f 54 55 66
f 55 67 66
f 55 56 67
f 56 68 67
f 56 57 68
f 57 69 68
f 57 58 69
f 58 70 69
f 58 59 70
f 59 71 70
f 59 60 71
f 60 72 71
f 61 62 73
f 62 74 73
f 62 63 74
f 63 75 74
f 63 64 75
f 64 76 75
f 64 65 76
f 65 77 76
f 65 66 77
f 66 78 77
f 66 67 78
f 67 79 78
f 67 68 79
f 68 80 79
f 68 69 80
f 69 81 80
f 69 70 81
f 70 82 81
f 70 71 82
f 71 83 82
f 71 72 83
f 72 84 83
f 73 74 85
f 74 86 85
f 74 75 86
f 75 87 86
f 75 76 87
f 76 88 87
f 76 77 88
f 77 89 88
f 77 78 89
f 78 90 89
f 78 79 90
f 79 91 90
f 79 80 91
f 80 92 91
f 80 81 92
f 81 93 92
f 81 82 93
f 82 94 93
f 82 83 94
f 83 95 94
f 83 84 95
f 84 96 95
f 85 86 97
f 86 98 97
f 86 87 98
f 87 99 98
f 87 88 99
f 88 100 99
f 88 89 100
f 89 101 100
f 89 90 101
f 90 102 101
f 90 91 102
f 91 103 102
f 91 92 103
f 92 104 103
f 92 93 104
f 93 105 104
f 93 94 105
f 94 106 105
f 94 95 106
f 95 107 106
f 95 96 107
f 96 108 107
f 97 98 109
f 98 110 109
f 98 99 110
f 99 111 110
f 99 100 111
f 100 112 111
f 100 101 112
f 101 113 112
f 101 102 113
f 102 114 113
f 102 103 114
f 103 115 114
f 103 104 115
f 104 116 115
f 104 105 116
f 105 117 116
f 105 106 117
f 106 118 117
f 106 107 118
f 107 119 118
f 107 108 119
f 108 120 119
f 109 110 121
f 110 122 121
f 110 111 122
f 111 123 122
f 111 112 123
f 112 124 123
f 112 113 124
f 113 125 124
f 113 114 125
f 114 126 125
f 114 115 126
f 115 127 126
f 115 116 127
f 116 128 127
f 116 117 128
f 117 129 128
f 117 118 129
f 118 130 129
f 118 119 130
f 119 131 130
f 119 120 131
f 120 132 131
f 121 122 133
f 122 134 133
f 122 123 134
f 123 135 134
f 123 124 135
f 124 136 135
f 124 125 136
f 125 137 136
f 125 126 137
f 126 138 137
f 126 127 138
f 127 139 138
f 127 128 139
f 128 140 139
f 128 129 140
f 129 141 140
f 129 130 141
f 130 142 141
f 130 131 142
f 131 143 142
f 131 132 143
f 132 144 143
f 145 146 155
f 146 156 155
f 146 147 156
f 147 157 156
f 147 148 157
f 148 158 157
f 148 149 158
f 149 159 158
f 149 150 159
f 150 160 159
f 150 151 160
f 151 161 160
f 151 152 161
f 152 162 161
f 152 153 162
f 153 163 162
f 153 154 163
f 154 164 163
f 154 145 164
f 145 155 164
f 165 166 175
f 166 176 175
f 166 167 176
f 167 177 176
f 167 168 177
f 168 178 177
f 168 169 178
f 169 179 178
f 169 170 179
f 170 180 179
f 170 171 180
f 171 181 180
f 171 172 181
f 172 182 181
f 172 173 182
f 173 183 182
f 173 174 183
f 174 184 183
f 174 165 184
f 165 175 184
f 185 186 195
f 186 196 195
f 186 187 196
f 187 197 196
f 187 188 197
f 188 198 197
f 188 189 198
f 189 199 198
f 189 190 199
f 190 200 199
f 190 191 200
f 191 201 200
f 191 192 201
f 192 202 201
f 192 193 202
f 193 203 202
f 193 194 203
f 194 204 203
f 194 185 204
f 185 195 204
f 205 206 215
f 206 216 215
f 206 207 216
f 207 217 216
f 207 208 217
f 208 218 217
f 208 209 218
f 209 219 218
f 209 210 219
f 210 220 219
f 210 211 220
f 211 221 220
f 211 212 221
f 212 222 221
f 212 213 222
f 213 223 222
f 213 214 223
f 214 224 223
f 214 205 224
f 205 215 224
f 225 226 235
f 226 236 235
f 226 227 236
f 227 237 236
f 227 228 237
f 228 238 237
f 228 229 238
f 229 239 238
f 229 230 239
f 230 240 239
f 230 231 240
f 231 241 240
f 231 232 241
f 232 242 241
f 232 233 242
f 233 243 242
f 233 234 243
f 234 244 243
f 234 225 244
f 225 235 244
f 245 246 255
f 246 256 255
f 246 247 256
f 247 257 256
f 247 248 257
f 248 258 257
f 248 249 258
f 249 259 258
f 249 250 259
f 250 260 259
f 250 251 260
f 251 261 260
f 251 252 261
f 252 262 261
f 252 253 262
f 253 263 262
f 253 254 263
f 254 264 263
f 254 245 264
f 245 255 264
f 265 266 275
f 266 276 275
f 266 267 276
f 267 277 276
f 267 268 277
f 268 278 277
f 268 269 278
f 269 279 278
f 269 270 279
f 270 280 279
f 270 271 280
f 271 281 280
f 271 272 281
f 272 282 281
f 272 273 282
f 273 283 282
f 273 274 283
f 274 284 283
f 274 265 284
f 265 275 284
f 285 286 295
f 286 296 295
f 286 287 296
f 287 297 296
f 287 288 297
f 288 298 297
f 288 289 298
f 289 299 298
f 289 290 299
f 290 300 299
f 290 291 300
f 291 301 300
f 291 292 301
f 292 302 301
f 292 293 302
f 293 303 302
f 293 294 303
f 294 304 303
f 294 285 304
f 285 295 304
f 305 306 315
f 306 316 315
f 306 307 316
f 307 317 316
f 307 308 317
f 308 318 317
f 308 309 318
f 309 319 318
f 309 310 319
f 310 320 319
f 310 311 320
f 311 321 320
f 311 312 321
f 312 322 321
f 312 313 322
f 313 323 322
f 313 314 323
f 314 324 323
f 314 305 324
f 305 315 324
f 325 326 335
f 326 336 335
f 326 327 336
f 327 337 336
f 327 328 337
f 328 338 337
f 328 329 338
f 329 339 338
f 329 330 339
f 330 340 339
f 330 331 340
f 331 341 340
f 331 332 341
f 332 342 341
f 332 333 342
f 333 343 342
f 333 334 343
f 334 344 343
f 334 325 344
f 325 335 344
f 345 346 355
f 346 356 355
f 346 347 356
f 347 357 356
f 347 348 357
f 348 358 357
f 348 349 358
f 349 359 358
f 349 350 359
f 350 360 359
f 350 351 360
f 351 361 360
f 351 352 361
f 352 362 361
f 352 353 362
f 353 363 362
f 353 354 363
f 354 364 363
f 354 345 364
f 345 355 364
f 365 366 375
f 366 376 375
f 366 367 376
f 367 377 376
f 367 368 377
f 368 378 377
f 368 369 378
f 369 379 378
f 369 370 379
f 370 380 379
f 370 371 380
f 371 381 380
f 371 372 381
f 372 382 381
f 372 373 382
f 373 383 382
f 373 374 383
f 374 384 383
f 374 365 384
f 365 375 384
f 385 386 395
f 386 396 395
f 386 387 396
f 387 397 396
f 387 388 397
f 388 398 397
f 388 389 398
f 389 399 398
f 389 390 399
f 390 400 399
f 390 391 400
f 391 401 400
f 391 392 401
f 392 402 401
f 392 393 402
f 393 403 402
f 393 394 403
f 394 404 403
f 394 385 404
f 385 395 404
f 405 406 415
f 406 416 415
f 406 407 416
f 407 417 416
f 407 408 417
f 408 418 417
f 408 409 418
f 409 419 418
f 409 410 419
f 410 420 419
f 410 411 420
f 411 421 420
f 411 412 421
f 412 422 421
f 412 413 422
f 413 423 422
f 413 414 423
f 414 424 423
f 414 405 424
f 405 415 424
f 425 426 435
f 426 436 435
f 426 427 436
f 427 437 436
f 427 428 437
f 428 438 437
f 428 429 438
f 429 439 438
f 429 430 439
f 430 440 439
f 430 431 440
f 431 441 440
f 431 432 441
f 432 442 441
f 432 433 442
f 433 443 442
f 433 434 443
f 434 444 443
f 434 425 444
f 425 435 444
f 445 446 455
f 446 456 455
f 446 447 456
f 447 457 456
f 447 448 457
f 448 458 457
f 448 449 458
f 449 459 458
f 449 450 459
f 450 460 459
f 450 451 460
f 451 461 460
f 451 452 461
f 452 462 461
f 452 453 462
f 453 463 462
f 453 454 463
f 454 464 463
f 454 445 464
f 445 455 464
f 465 466 475
f 466 476 475
f 466 467 476
f 467 477 476
f 467 468 477
f 468 478 477
f 468 469 478
f 469 479 478
f 469 470 479
f 470 480 479
f 470 471 480
f 471 481 480
f 471 472 481
f 472 482 481
f 472 473 482
f 473 483 482
f 473 474 483
f 474 484 483
f 474 465 484
f 465 475 484
f 485 486 495
f 486 496 495
f 486 487 496
f 487 497 496
f 487 488 497
f 488 498 497
f 488 489 498
f 489 499 498
f 489 490 499
f 490 500 499
f 490 491 500
f 491 501 500
f 491 492 501
f 492 502 501
f 492 493 502
f 493 503 502
f 493 494 503
f 494 504 503
f 494 485 504
f 485 495 504
f 505 506 515
f 506 516 515
f 506 507 516
f 507 517 516
f 507 508 517
f 508 518 517
f 508 509 518
f 509 519 518
f 509 510 519
f 510 520 519
f 510 511 520
f 511 521 520
f 511 512 521
f 512 522 521
f 512 513 522
f 513 523 522
f 513 514 523
f 514 524 523
f 514 505 524
f 505 515 524
f 525 526 535
f 526 536 535
f 526 527 536
f 527 537 536
f 527 528 537
f 528 538 537
f 528 529 538
f 529 539 538
f 529 530 539
f 530 540 539
f 530 531 540
f 531 541 540
f 531 532 541
f 532 542 541
f 532 533 542
f 533 543 542
f 533 534 543
f 534 544 543
f 534 525 544
f 525 535 544
f 545 546 555
f 546 556 555
f 546 547 556
f 547 557 556
f 547 548 557
f 548 558 557
f 548 549 558
f 549 559 558
f 549 550 559
f 550 560 559
f 550 551 560
f 551 561 560
f 551 552 561
f 552 562 561
f 552 553 562
f 553 563 562
f 553 554 563
f 554 564 563
f 554 545 564
f 545 555 564
f 565 566 575
f 566 576 575
f 566 567 576
f 567 577 576
f 567 568 577
f 568 578 577
f 568 569 578
f 569 579 578
f 569 570 579
f 570 580 579
f 570 571 580
f 571 581 580
f 571 572 581
f 572 582 581
f 572 573 582
f 573 583 582
f 573 574 583
f 574 584 583
f 574 565 584
f 565 575 584
f 585 586 595
f 586 596 595
f 586 587 596
f 587 597 596
f 587 588 597
f 588 598 597
f 588 589 598
f 589 599 598
f 589 590 599
f 590 600 599
f 590 591 600
f 591 601 600
f 591 592 601
f 592 602 601
f 592 593 602
f 593 603 602
f 593 594 603
f 594 604 603
f 594 585 604
f 585 595 604
f 605 606 615
f 606 616 615
f 606 607 616
f 607 617 616
f 607 608 617
f 608 618 617
f 608 609 618
f 609 619 618
f 609 610 619
f 610 620 619
f 610 611 620
f 611 621 620
f 611 612 621
f 612 622 621
f 612 613 622
f 613 623 622
f 613 614 623
f 614 624 623
f 614 605 624
f 605 615 624
f 625 626 635
f 626 636 635
f 626 627 636
f 627 637 636
f 627 628 637
f 628 638 637
f 628 629 638
f 629 639 638
f 629 630 639
f 630 640 639
f 630 631 640
f 631 641 640
f 631 632 641
f 632 642 641
f 632 633 642
f 633 643 642
f 633 634 643
f 634 644 643
f 634 625 644
f 625 635 644
f 645 646 655
f 646 656 655
f 646 647 656
f 647 657 656
f 647 648 657
f 648 658 657
f 648 649 658
f 649 659 658
f 649 650 659
f 650 660 659
f 650 651 660
f 651 661 660
f 651 652 661
f 652 662 661
f 652 653 662
f 653 663 662
f 653 654 663
f 654 664 663
f 654 645 664
f 645 655 664
f 665 666 675
f 666 676 675
f 666 667 676
f 667 677 676
f 667 668 677
f 668 678 677
f 668 669 678
f 669 679 678
f 669 670 679
f 670 680 679
f 670 671 680
f 671 681 680
f 671 672 681
f 672 682 681
f 672 673 682
f 673 683 682
f 673 674 683
f 674 684 683
f 674 665 684
f 665 675 684
f 685 686 695
f 686 696 695
f 686 687 696
f 687 697 696
f 687 688 697
f 688 698 697
f 688 689 698
f 689 699 698
f 689 690 699
f 690 700 699
f 690 691 700
f 691 701 700
f 691 692 701
f 692 702 701
f 692 693 702
f 693 703 702
f 693 694 703
f 694 704 703
f 694 685 704
f 685 695 704
f 705 706 715
f 706 716 715
f 706 707 716
f 707 717 716
f 707 708 717
f 708 718 717
f 708 709 718
f 709 719 718
f 709 710 719
f 710 720 719
f 710 711 720
f 711 721 720
f 711 712 721
f 712 722 721
f 712 713 722
f 713 723 722
f 713 714 723
f 714 724 723
f 714 705 724
f 705 715 724
f 725 726 735
f 726 736 735
f 726 727 736
f 727 737 736
f 727 728 737
f 728 738 737
f 728 729 738
f 729 739 738
f 729 730 739
f 730 740 739
f 730 731 740
f 731 741 740
f 731 732 741
f 732 742 741
f 732 733 742
f 733 743 742
f 733 734 743
f 734 744 743
f 734 725 744
f 725 735 744
f 745 746 755
f 746 756 755
f 746 747 756
f 747 757 756
f 747 748 757
f 748 758 757
f 748 749 758
f 749 759 758
f 749 750 759
f 750 760 759
f 750 751 760
f 751 761 760
f 751 752 761
f 752 762 761
f 752 753 762
f 753 763 762
f 753 754 763
f 754 764 763
f 754 745 764
f 745 755 764
f 765 766 775
f 766 776 775
f 766 767 776
f 767 777 776
f 767 768 777
f 768 778 777
f 768 769 778
f 769 779 778
f 769 770 779
f 770 780 779
f 770 771 780
f 771 781 780
f 771 772 781
f 772 782 781
f 772 773 782
f 773 783 782
f 773 774 783
f 774 784 783
f 774 765 784
f 765 775 784
