# Full-Body 3D Mesh - Frame 39
v 0.035826 -0.639787 -0.095202
v 0.069634 -0.639787 -0.100063
v 0.100703 -0.639787 -0.114251
v 0.126516 -0.639787 -0.136618
v 0.144981 -0.639787 -0.165352
v 0.154604 -0.639787 -0.198124
v 0.154604 -0.639787 -0.232280
v 0.144981 -0.639787 -0.265052
v 0.126516 -0.639787 -0.293785
v 0.100703 -0.639787 -0.316152
v 0.069634 -0.639787 -0.330341
v 0.035826 -0.639787 -0.335202
v 0.035826 -0.639787 -0.095202
v 0.064267 -0.621509 -0.100063
v 0.090404 -0.604712 -0.114251
v 0.112119 -0.590756 -0.136618
v 0.127653 -0.580773 -0.165352
v 0.135749 -0.575570 -0.198124
v 0.135749 -0.575570 -0.232280
v 0.127653 -0.580773 -0.265052
v 0.112119 -0.590756 -0.293785
v 0.090404 -0.604712 -0.316152
v 0.064267 -0.621509 -0.330341
v 0.035826 -0.639787 -0.335202
v 0.035826 -0.639787 -0.095202
v 0.049870 -0.609034 -0.100063
v 0.062776 -0.580773 -0.114251
v 0.073500 -0.557293 -0.136618
v 0.081171 -0.540495 -0.165352
v 0.085168 -0.531742 -0.198124
v 0.085168 -0.531742 -0.232280
v 0.081171 -0.540495 -0.265052
v 0.073500 -0.557293 -0.293785
v 0.062776 -0.580773 -0.316152
v 0.049870 -0.609034 -0.330341
v 0.035826 -0.639787 -0.335202
v 0.035826 -0.639787 -0.095202
v 0.031014 -0.606323 -0.100063
v 0.026593 -0.575570 -0.114251
v 0.022919 -0.550020 -0.136618
v 0.020291 -0.531742 -0.165352
v 0.018922 -0.522217 -0.198124
v 0.018922 -0.522217 -0.232280
v 0.020291 -0.531742 -0.265052
v 0.022919 -0.550020 -0.293785
v 0.026593 -0.575570 -0.316152
v 0.031014 -0.606323 -0.330341
v 0.035826 -0.639787 -0.335202
v 0.035826 -0.639787 -0.095202
v 0.013686 -0.614237 -0.100063
v -0.006660 -0.590756 -0.114251
v -0.023564 -0.571248 -0.136618
v -0.035656 -0.557293 -0.165352
v -0.041958 -0.550020 -0.198124
v -0.041958 -0.550020 -0.232280
v -0.035656 -0.557293 -0.265052
v -0.023564 -0.571248 -0.293785
v -0.006660 -0.590756 -0.316152
v 0.013686 -0.614237 -0.330341
v 0.035826 -0.639787 -0.335202
v 0.035826 -0.639787 -0.095202
v 0.003387 -0.630262 -0.100063
v -0.026423 -0.621509 -0.114251
v -0.051191 -0.614237 -0.136618
v -0.068909 -0.609034 -0.165352
v -0.078142 -0.606323 -0.198124
v -0.078142 -0.606323 -0.232280
v -0.068909 -0.609034 -0.265052
v -0.051191 -0.614237 -0.293785
v -0.026423 -0.621509 -0.316152
v 0.003387 -0.630262 -0.330341
v 0.035826 -0.639787 -0.335202
v 0.035826 -0.639787 -0.095202
v 0.003387 -0.649312 -0.100063
v -0.026423 -0.658065 -0.114251
v -0.051191 -0.665337 -0.136618
v -0.068909 -0.670540 -0.165352
v -0.078142 -0.673251 -0.198124
v -0.078142 -0.673251 -0.232280
v -0.068909 -0.670540 -0.265052
v -0.051191 -0.665337 -0.293785
v -0.026423 -0.658065 -0.316152
v 0.003387 -0.649312 -0.330341
v 0.035826 -0.639787 -0.335202
v 0.035826 -0.639787 -0.095202
v 0.013686 -0.665337 -0.100063
v -0.006660 -0.688818 -0.114251
v -0.023564 -0.708326 -0.136618
v -0.035656 -0.722282 -0.165352
v -0.041958 -0.729554 -0.198124
v -0.041958 -0.729554 -0.232280
v -0.035656 -0.722282 -0.265052
v -0.023564 -0.708326 -0.293785
v -0.006660 -0.688818 -0.316152
v 0.013686 -0.665337 -0.330341
v 0.035826 -0.639787 -0.335202
v 0.035826 -0.639787 -0.095202
v 0.031014 -0.673251 -0.100063
v 0.026593 -0.704004 -0.114251
v 0.022919 -0.729554 -0.136618
v 0.020291 -0.747832 -0.165352
v 0.018922 -0.757357 -0.198124
v 0.018922 -0.757357 -0.232280
v 0.020291 -0.747832 -0.265052
v 0.022919 -0.729554 -0.293785
v 0.026593 -0.704004 -0.316152
v 0.031014 -0.673251 -0.330341
v 0.035826 -0.639787 -0.335202
v 0.035826 -0.639787 -0.095202
v 0.049870 -0.670540 -0.100063
v 0.062776 -0.698801 -0.114251
v 0.073500 -0.722282 -0.136618
v 0.081171 -0.739079 -0.165352
v 0.085168 -0.747832 -0.198124
v 0.085168 -0.747832 -0.232280
v 0.081171 -0.739079 -0.265052
v 0.073500 -0.722282 -0.293785
v 0.062776 -0.698801 -0.316152
v 0.049870 -0.670540 -0.330341
v 0.035826 -0.639787 -0.335202
v 0.035826 -0.639787 -0.095202
v 0.064267 -0.658065 -0.100063
v 0.090404 -0.674862 -0.114251
v 0.112119 -0.688818 -0.136618
v 0.127653 -0.698801 -0.165352
v 0.135749 -0.704004 -0.198124
v 0.135749 -0.704004 -0.232280
v 0.127653 -0.698801 -0.265052
v 0.112119 -0.688818 -0.293785
v 0.090404 -0.674862 -0.316152
v 0.064267 -0.658065 -0.330341
v 0.035826 -0.639787 -0.335202
v 0.035826 -0.639787 -0.095202
v 0.069634 -0.639787 -0.100063
v 0.100703 -0.639787 -0.114251
v 0.126516 -0.639787 -0.136618
v 0.144981 -0.639787 -0.165352
v 0.154604 -0.639787 -0.198124
v 0.154604 -0.639787 -0.232280
v 0.144981 -0.639787 -0.265052
v 0.126516 -0.639787 -0.293785
v 0.100703 -0.639787 -0.316152
v 0.069634 -0.639787 -0.330341
v 0.035826 -0.639787 -0.335202
v 0.182468 -0.444825 -0.070761
v 0.182970 -0.468330 -0.063120
v 0.183218 -0.482857 -0.043118
v 0.183116 -0.482857 -0.018397
v 0.182704 -0.468330 0.001601
v 0.182138 -0.444825 0.009238
v 0.181635 -0.421320 0.001597
v 0.181388 -0.406793 -0.018404
v 0.181490 -0.406793 -0.043126
v 0.181902 -0.421320 -0.063124
v -0.153464 -0.452459 -0.072146
v -0.152961 -0.475965 -0.064504
v -0.152713 -0.490492 -0.044503
v -0.152815 -0.490492 -0.019782
v -0.153228 -0.475965 0.000217
v -0.153793 -0.452459 0.007854
v -0.154296 -0.428954 0.000212
v -0.154544 -0.414427 -0.019789
v -0.154442 -0.414427 -0.044510
v -0.154029 -0.428954 -0.064509
v 0.182303 -0.469700 -0.062086
v 0.159705 -0.459867 -0.060139
v 0.145738 -0.444289 -0.046971
v 0.145738 -0.428915 -0.027611
v 0.159705 -0.419619 -0.009455
v 0.182303 -0.419950 0.000563
v 0.204901 -0.429783 -0.001383
v 0.218867 -0.445361 -0.014552
v 0.218867 -0.460735 -0.033911
v 0.204901 -0.470031 -0.052068
v 0.255565 -0.269917 -0.220733
v 0.232967 -0.260084 -0.218787
v 0.219001 -0.244506 -0.205618
v 0.219001 -0.229132 -0.186259
v 0.232967 -0.219836 -0.168102
v 0.255565 -0.220167 -0.158084
v 0.278163 -0.230000 -0.160031
v 0.292129 -0.245578 -0.173199
v 0.292129 -0.260952 -0.192559
v 0.278163 -0.270248 -0.210715
v 0.255565 -0.280077 -0.170107
v 0.233577 -0.269369 -0.166502
v 0.219987 -0.249369 -0.171646
v 0.219987 -0.227716 -0.183575
v 0.233577 -0.212681 -0.197733
v 0.255565 -0.210007 -0.208710
v 0.277553 -0.220715 -0.212316
v 0.291143 -0.240715 -0.207171
v 0.291143 -0.262368 -0.195242
v 0.277553 -0.277403 -0.181085
v 0.144051 -0.422206 -0.428087
v 0.122062 -0.411498 -0.424482
v 0.108473 -0.391498 -0.429627
v 0.108473 -0.369845 -0.441556
v 0.122062 -0.354810 -0.455713
v 0.144051 -0.352136 -0.466691
v 0.166039 -0.362844 -0.470296
v 0.179628 -0.382845 -0.465152
v 0.179628 -0.404497 -0.453222
v 0.166039 -0.419532 -0.439065
v -0.153629 -0.451492 -0.072134
v -0.177017 -0.454081 -0.064555
v -0.191471 -0.456050 -0.044597
v -0.191471 -0.456648 -0.019883
v -0.177017 -0.455646 0.000147
v -0.153629 -0.453427 0.007842
v -0.130240 -0.450838 0.000263
v -0.115786 -0.448869 -0.019695
v -0.115786 -0.448271 -0.044409
v -0.130240 -0.449273 -0.064439
v -0.178290 -0.211699 -0.066332
v -0.201679 -0.214288 -0.058753
v -0.216133 -0.216258 -0.038795
v -0.216133 -0.216856 -0.014081
v -0.201679 -0.215854 0.005949
v -0.178290 -0.213634 0.013644
v -0.154902 -0.211046 0.006065
v -0.140448 -0.209076 -0.013893
v -0.140448 -0.208478 -0.038607
v -0.154902 -0.209480 -0.058637
v -0.178290 -0.236377 -0.058560
v -0.201730 -0.233323 -0.051322
v -0.216217 -0.222380 -0.034543
v -0.216217 -0.207726 -0.014633
v -0.201730 -0.194960 0.000804
v -0.178290 -0.188957 0.005872
v -0.154850 -0.192011 -0.001366
v -0.140364 -0.202954 -0.018145
v -0.140364 -0.217608 -0.038055
v -0.154850 -0.230374 -0.053492
v -0.192947 -0.085256 -0.169780
v -0.216387 -0.082202 -0.162542
v -0.230874 -0.071259 -0.145763
v -0.230874 -0.056605 -0.125853
v -0.216387 -0.043839 -0.110416
v -0.192947 -0.037836 -0.105349
v -0.169507 -0.040890 -0.112587
v -0.155021 -0.051833 -0.129365
v -0.155021 -0.066487 -0.149276
v -0.169507 -0.079253 -0.164713
v 0.182303 -0.440652 -0.070543
v 0.158961 -0.444255 -0.063240
v 0.144536 -0.448076 -0.043531
v 0.144536 -0.450656 -0.018945
v 0.158961 -0.451008 0.001128
v 0.182303 -0.448998 0.009020
v 0.205644 -0.445395 0.001717
v 0.220070 -0.441574 -0.017992
v 0.220070 -0.438994 -0.042578
v 0.205644 -0.438642 -0.062651
v 0.128219 0.004259 -0.023873
v 0.104878 0.000655 -0.016570
v 0.090452 -0.003166 0.003139
v 0.090452 -0.005745 0.027726
v 0.104878 -0.006097 0.047799
v 0.128219 -0.004087 0.055691
v 0.151561 -0.000484 0.048387
v 0.165987 0.003337 0.028678
v 0.165987 0.005916 0.004092
v 0.151561 0.006268 -0.015981
v -0.153629 -0.450698 -0.072107
v -0.177101 -0.449683 -0.064416
v -0.191608 -0.449729 -0.044398
v -0.191608 -0.450817 -0.019701
v -0.177101 -0.452533 0.000243
v -0.153629 -0.454220 0.007815
v -0.130156 -0.455235 0.000124
v -0.115649 -0.455190 -0.019894
v -0.115649 -0.454102 -0.044591
v -0.130156 -0.452386 -0.064535
v -0.128491 -0.014925 -0.052905
v -0.151964 -0.013910 -0.045214
v -0.166470 -0.013955 -0.025196
v -0.166470 -0.015043 -0.000499
v -0.151964 -0.016759 0.019445
v -0.128491 -0.018447 0.027017
v -0.105019 -0.019462 0.019326
v -0.090512 -0.019416 -0.000691
v -0.090512 -0.018328 -0.025389
v -0.105019 -0.016613 -0.045333
v 0.132687 0.000086 -0.023841
v 0.133347 -0.023376 -0.016079
v 0.132049 -0.037876 0.003901
v 0.129288 -0.037876 0.028467
v 0.126119 -0.023376 0.048237
v 0.123752 0.000086 0.055659
v 0.123091 0.023548 0.047897
v 0.124389 0.038048 0.027917
v 0.127151 0.038048 0.003350
v 0.130320 0.023548 -0.016420
v -0.124023 -0.016686 -0.052693
v -0.123363 -0.040148 -0.044932
v -0.124661 -0.054648 -0.024952
v -0.127422 -0.054648 -0.000385
v -0.130592 -0.040148 0.019385
v -0.132959 -0.016686 0.026806
v -0.133619 0.006776 0.019044
v -0.132321 0.021277 -0.000936
v -0.129560 0.021277 -0.025502
v -0.126390 0.006776 -0.045272
v 0.128219 -0.029760 -0.010723
v 0.104855 -0.022311 -0.007597
v 0.090415 -0.006307 0.004508
v 0.090415 0.012138 0.020967
v 0.104855 0.025980 0.035494
v 0.128219 0.029931 0.042540
v 0.151583 0.022483 0.039414
v 0.166023 0.006479 0.027310
v 0.166023 -0.011967 0.010850
v 0.151583 -0.025809 -0.003677
v 0.139960 0.039768 -0.088641
v 0.116596 0.047217 -0.085515
v 0.102156 0.063221 -0.073410
v 0.102156 0.081666 -0.056951
v 0.116596 0.095508 -0.042424
v 0.139960 0.099459 -0.035378
v 0.163324 0.092010 -0.038504
v 0.177764 0.076007 -0.050609
v 0.177764 0.057561 -0.067068
v 0.163324 0.043719 -0.081595
v 0.139960 0.095411 -0.092579
v 0.116550 0.092157 -0.085329
v 0.102083 0.080293 -0.069172
v 0.102083 0.064349 -0.050279
v 0.116550 0.050416 -0.035866
v 0.139960 0.043817 -0.031440
v 0.163369 0.047070 -0.038690
v 0.177837 0.058935 -0.054848
v 0.177837 0.074878 -0.073741
v 0.163369 0.088811 -0.088153
v 0.168570 0.329208 0.104716
v 0.145160 0.325954 0.111966
v 0.130693 0.314090 0.128124
v 0.130693 0.298146 0.147017
v 0.145160 0.284214 0.161429
v 0.168570 0.277614 0.165856
v 0.191979 0.280867 0.158605
v 0.206447 0.292732 0.142448
v 0.206447 0.308675 0.123555
v 0.191979 0.322608 0.109142
v -0.128491 -0.052365 0.005139
v -0.151178 -0.048341 -0.003819
v -0.165200 -0.032225 -0.016263
v -0.165200 -0.010174 -0.027438
v -0.151178 0.009390 -0.033077
v -0.128491 0.018994 -0.031026
v -0.105804 0.014969 -0.022068
v -0.091783 -0.001146 -0.009625
v -0.091783 -0.023197 0.001551
v -0.105804 -0.042761 0.007190
v -0.068755 -0.151642 -0.190752
v -0.091442 -0.147618 -0.199710
v -0.105463 -0.131502 -0.212153
v -0.105463 -0.109451 -0.223329
v -0.091442 -0.089887 -0.228968
v -0.068755 -0.080283 -0.226917
v -0.046068 -0.084308 -0.217959
v -0.032046 -0.100423 -0.205515
v -0.032046 -0.122475 -0.194340
v -0.046068 -0.142038 -0.188701
v -0.068755 -0.115723 -0.248834
v -0.092266 -0.115673 -0.241194
v -0.106797 -0.115734 -0.221194
v -0.106797 -0.115882 -0.196473
v -0.092266 -0.116061 -0.176474
v -0.068755 -0.116203 -0.168835
v -0.045244 -0.116253 -0.176475
v -0.030713 -0.116192 -0.196475
v -0.030713 -0.116044 -0.221196
v -0.045244 -0.115864 -0.241195
v -0.067626 0.161473 -0.247171
v -0.091137 0.161523 -0.239531
v -0.105668 0.161462 -0.219531
v -0.105668 0.161314 -0.194810
v -0.091137 0.161135 -0.174811
v -0.067626 0.160993 -0.167172
v -0.044114 0.160943 -0.174812
v -0.029584 0.161004 -0.194812
v -0.029584 0.161152 -0.219533
v -0.044114 0.161331 -0.239532
v 0.081852 0.052150 0.026365
v 0.073524 0.054458 0.023010
v 0.068377 0.054813 0.015308
v 0.068377 0.053081 0.006200
v 0.073524 0.049923 -0.000833
v 0.081852 0.046545 -0.003107
v 0.090181 0.044237 0.000248
v 0.095328 0.043882 0.007950
v 0.095328 0.045614 0.017057
v 0.090181 0.048772 0.024091
v 0.068877 0.015464 0.033342
v 0.060549 0.017771 0.029987
v 0.055402 0.018126 0.022285
v 0.055402 0.016394 0.013178
v 0.060549 0.013236 0.006144
v 0.068877 0.009858 0.003871
v 0.077206 0.007551 0.007226
v 0.082353 0.007195 0.014928
v 0.082353 0.008927 0.024035
v 0.077206 0.012086 0.031069
v 0.068877 0.020384 0.031465
v 0.062513 0.024140 0.025868
v 0.058580 0.023511 0.017497
v 0.058580 0.018738 0.009550
v 0.062513 0.011643 0.005062
v 0.068877 0.004938 0.005748
v 0.075242 0.001182 0.011345
v 0.079175 0.001811 0.019716
v 0.079175 0.006584 0.027664
v 0.075242 0.013678 0.032151
v 0.043059 -0.002701 0.045331
v 0.036694 0.001054 0.039734
v 0.032761 0.000426 0.031362
v 0.032761 -0.004348 0.023415
v 0.036694 -0.011442 0.018927
v 0.043059 -0.018148 0.019613
v 0.049423 -0.021904 0.025211
v 0.053356 -0.021275 0.033582
v 0.053356 -0.016502 0.041529
v 0.049423 -0.009407 0.046017
v 0.040111 -0.010425 0.017765
v 0.042166 -0.019109 0.020275
v 0.044561 -0.024477 0.027444
v 0.046383 -0.024477 0.036534
v 0.046935 -0.019109 0.044072
v 0.046006 -0.010425 0.047180
v 0.043952 -0.001740 0.044670
v 0.041556 0.003627 0.037501
v 0.039735 0.003627 0.028411
v 0.039183 -0.001740 0.020872
v 0.007576 -0.016237 0.024285
v 0.009631 -0.024921 0.026795
v 0.012026 -0.030288 0.033964
v 0.013848 -0.030288 0.043053
v 0.014400 -0.024921 0.050592
v 0.013471 -0.016237 0.053700
v 0.011417 -0.007552 0.051190
v 0.009021 -0.002185 0.044021
v 0.007200 -0.002185 0.034931
v 0.006648 -0.007552 0.027392
v 0.010524 -0.013448 0.024254
v 0.006100 -0.021474 0.025651
v 0.003366 -0.027500 0.032143
v 0.003366 -0.029223 0.041252
v 0.006100 -0.025986 0.049498
v 0.010524 -0.019025 0.053731
v 0.014947 -0.010999 0.052334
v 0.017681 -0.004973 0.045841
v 0.017681 -0.003250 0.036732
v 0.014947 -0.006487 0.028486
v -0.010075 -0.001708 0.026475
v -0.014499 -0.009734 0.027872
v -0.017233 -0.015760 0.034365
v -0.017233 -0.017484 0.043474
v -0.014499 -0.014246 0.051719
v -0.010075 -0.007285 0.055952
v -0.005652 0.000741 0.054555
v -0.002918 0.006767 0.048062
v -0.002918 0.008490 0.038953
v -0.005652 0.005253 0.030708
v 0.081852 0.047397 0.026501
v 0.075579 0.053912 0.024467
v 0.071702 0.058684 0.017528
v 0.071702 0.059890 0.008337
v 0.075579 0.057069 0.000402
v 0.081852 0.051298 -0.003244
v 0.088125 0.044783 -0.001209
v 0.092002 0.040011 0.005729
v 0.092002 0.038805 0.014921
v 0.088125 0.041627 0.022855
v 0.009027 -0.025715 0.016911
v 0.002753 -0.019200 0.014877
v -0.001124 -0.014428 0.007938
v -0.001124 -0.013222 -0.001253
v 0.002753 -0.016043 -0.009188
v 0.009027 -0.021813 -0.012834
v 0.015300 -0.028329 -0.010799
v 0.019177 -0.033101 -0.003861
v 0.019177 -0.034306 0.005331
v 0.015300 -0.031485 0.013265
v 0.009027 -0.019956 0.016547
v 0.003463 -0.014067 0.012040
v 0.000025 -0.011883 0.003712
v 0.000025 -0.014236 -0.005254
v 0.003463 -0.020229 -0.011435
v 0.009027 -0.027572 -0.012470
v 0.014590 -0.033461 -0.007963
v 0.018028 -0.035646 0.000365
v 0.018028 -0.033292 0.009332
v 0.014590 -0.027299 0.015513
v -0.016026 -0.039665 0.021720
v -0.021589 -0.033776 0.017213
v -0.025028 -0.031591 0.008885
v -0.025028 -0.033945 -0.000082
v -0.021589 -0.039937 -0.006263
v -0.016026 -0.047281 -0.007297
v -0.010463 -0.053169 -0.002790
v -0.007025 -0.055354 0.005538
v -0.007025 -0.053001 0.014504
v -0.010463 -0.047008 0.020685
v -0.016026 -0.034945 0.019551
v -0.021870 -0.031143 0.013442
v -0.025482 -0.032050 0.004952
v -0.025482 -0.037320 -0.002675
v -0.021870 -0.044941 -0.006525
v -0.016026 -0.052000 -0.005129
v -0.010182 -0.055803 0.000981
v -0.006570 -0.054896 0.009471
v -0.006570 -0.049625 0.017097
v -0.010182 -0.042005 0.020948
v -0.034575 -0.048454 0.028887
v -0.040419 -0.044651 0.022777
v -0.044031 -0.045559 0.014287
v -0.044031 -0.050829 0.006660
v -0.040419 -0.058449 0.002810
v -0.034575 -0.065509 0.004206
v -0.028731 -0.069311 0.010316
v -0.025119 -0.068404 0.018806
v -0.025119 -0.063134 0.026433
v -0.028731 -0.055513 0.030283
v -0.034575 -0.047311 0.028013
v -0.040771 -0.044362 0.021779
v -0.044600 -0.046234 0.013546
v -0.044600 -0.052211 0.006459
v -0.040771 -0.060010 0.003226
v -0.034575 -0.066652 0.005080
v -0.028380 -0.069600 0.011314
v -0.024551 -0.067729 0.019547
v -0.024551 -0.061752 0.026634
v -0.028380 -0.053953 0.029867
v -0.051687 -0.060230 0.038909
v -0.057883 -0.057282 0.032675
v -0.061712 -0.059153 0.024442
v -0.061712 -0.065130 0.017355
v -0.057883 -0.072929 0.014122
v -0.051687 -0.079571 0.015976
v -0.045492 -0.082520 0.022210
v -0.041663 -0.080648 0.030443
v -0.041663 -0.074671 0.037530
v -0.045492 -0.066872 0.040763
v 0.081852 0.045616 0.026157
v 0.077015 0.053469 0.025216
v 0.074026 0.059747 0.019085
v 0.074026 0.062053 0.010106
v 0.077015 0.059506 0.001709
v 0.081852 0.053079 -0.002900
v 0.086689 0.045227 -0.001959
v 0.089678 0.038948 0.004172
v 0.089678 0.036642 0.013151
v 0.086689 0.039189 0.021549
v -0.002728 -0.008137 0.012352
v -0.007565 -0.000285 0.011411
v -0.010554 0.005994 0.005280
v -0.010554 0.008300 -0.003699
v -0.007565 0.005753 -0.012097
v -0.002728 -0.000674 -0.016705
v 0.002109 -0.008527 -0.015764
v 0.005098 -0.014805 -0.009633
v 0.005098 -0.017111 -0.000654
v 0.002109 -0.014564 0.007743
v -0.002728 0.006782 0.007815
v -0.009284 0.008572 0.001510
v -0.013336 0.005406 -0.006204
v -0.013336 -0.001509 -0.012379
v -0.009284 -0.009530 -0.014657
v -0.002728 -0.015593 -0.012169
v 0.003828 -0.017384 -0.005863
v 0.007879 -0.014217 0.001850
v 0.007879 -0.007303 0.008025
v 0.003828 0.000718 0.010304
v -0.024944 -0.009674 0.026241
v -0.031500 -0.007884 0.019935
v -0.035552 -0.011050 0.012222
v -0.035552 -0.017965 0.006047
v -0.031500 -0.025986 0.003768
v -0.024944 -0.032049 0.006257
v -0.018388 -0.033840 0.012562
v -0.014336 -0.030673 0.020276
v -0.014336 -0.023759 0.026451
v -0.018388 -0.015738 0.028729
v -0.024944 -0.005882 0.015466
v -0.033428 -0.008618 0.018010
v -0.038672 -0.016030 0.019882
v -0.038672 -0.025288 0.020365
v -0.033428 -0.032855 0.019276
v -0.024944 -0.035841 0.017031
v -0.016460 -0.033106 0.014487
v -0.011216 -0.025693 0.012616
v -0.011216 -0.016435 0.012132
v -0.016460 -0.008868 0.013221
v -0.017563 -0.004520 0.041549
v -0.026047 -0.007256 0.044093
v -0.031291 -0.014668 0.045964
v -0.031291 -0.023926 0.046448
v -0.026047 -0.031493 0.045359
v -0.017563 -0.034479 0.043114
v -0.009078 -0.031743 0.040570
v -0.003834 -0.024331 0.038698
v -0.003834 -0.015073 0.038215
v -0.009078 -0.007506 0.039304
v -0.017563 -0.004773 0.039479
v -0.025464 -0.006842 0.043864
v -0.030348 -0.013745 0.047663
v -0.030348 -0.022847 0.049426
v -0.025464 -0.030670 0.048478
v -0.017563 -0.034226 0.045183
v -0.009661 -0.032157 0.040799
v -0.004777 -0.025253 0.036999
v -0.004777 -0.016152 0.035237
v -0.009661 -0.008329 0.036184
v -0.006963 -0.000702 0.060501
v -0.014865 -0.002771 0.064886
v -0.019749 -0.009674 0.068685
v -0.019749 -0.018776 0.070448
v -0.014865 -0.026598 0.069501
v -0.006963 -0.030155 0.066205
v 0.000938 -0.028086 0.061821
v 0.005822 -0.021182 0.058022
v 0.005822 -0.012081 0.056259
v 0.000938 -0.004258 0.057206
v 0.084116 0.049348 -0.003200
v 0.086708 0.041079 0.000094
v 0.087445 0.035968 0.007793
v 0.086046 0.035968 0.016958
v 0.083045 0.041079 0.024087
v 0.079589 0.049348 0.026457
v 0.076997 0.057617 0.023163
v 0.076259 0.062727 0.015464
v 0.077658 0.062727 0.006300
v 0.080659 0.057617 -0.000829
v -0.004080 0.016339 -0.016662
v -0.001488 0.008070 -0.013368
v -0.000750 0.002959 -0.005669
v -0.002149 0.002959 0.003496
v -0.005150 0.008070 0.010624
v -0.008607 0.016339 0.012995
v -0.011199 0.024608 0.009701
v -0.011936 0.029718 0.002002
v -0.010537 0.029718 -0.007163
v -0.007536 0.024608 -0.014291
v -0.006343 0.029876 0.004628
v -0.013911 0.029239 -0.000689
v -0.018588 0.023675 -0.006443
v -0.018588 0.015309 -0.010436
v -0.013911 0.007336 -0.011143
v -0.006343 0.002802 -0.008295
v 0.001224 0.003438 -0.002978
v 0.005902 0.009003 0.002776
v 0.005902 0.017369 0.006769
v 0.001224 0.025342 0.007476
v -0.024320 0.016923 0.031767
v -0.031888 0.016286 0.026450
v -0.036565 0.010722 0.020696
v -0.036565 0.002356 0.016703
v -0.031888 -0.005617 0.015996
v -0.024320 -0.010151 0.018844
v -0.016753 -0.009515 0.024161
v -0.012076 -0.003950 0.029915
v -0.012076 0.004416 0.033908
v -0.016753 0.012389 0.034615
v -0.024320 0.018317 0.026740
v -0.032663 0.015193 0.029305
v -0.037819 0.007559 0.030342
v -0.037819 -0.001669 0.029456
v -0.032663 -0.008966 0.026984
v -0.024320 -0.011545 0.023871
v -0.015978 -0.008421 0.021306
v -0.010822 -0.000787 0.020269
v -0.010822 0.008441 0.021155
v -0.015978 0.015738 0.023627
v -0.016611 0.016161 0.049186
v -0.024954 0.013037 0.051751
v -0.030110 0.005403 0.052789
v -0.030110 -0.003825 0.051902
v -0.024954 -0.011122 0.049431
v -0.016611 -0.013701 0.046318
v -0.008269 -0.010577 0.043753
v -0.003113 -0.002943 0.042715
v -0.003113 0.006285 0.043601
v -0.008269 0.013582 0.046073
v -0.016611 0.015209 0.042312
v -0.023346 0.014603 0.048654
v -0.027508 0.008889 0.054651
v -0.027508 0.000250 0.058013
v -0.023346 -0.008015 0.057456
v -0.016611 -0.012749 0.053192
v -0.009877 -0.012143 0.046850
v -0.005715 -0.006429 0.040853
v -0.005715 0.002211 0.037490
v -0.009877 0.010475 0.038048
v -0.004177 0.020546 0.056026
v -0.010912 0.019940 0.062368
v -0.015074 0.014226 0.068365
v -0.015074 0.005587 0.071727
v -0.010912 -0.002678 0.071170
v -0.004177 -0.007412 0.066906
v 0.002557 -0.006806 0.060564
v 0.006720 -0.001092 0.054566
v 0.006720 0.007548 0.051204
v 0.002557 0.015812 0.051762
v 0.082465 0.049348 -0.003359
v 0.083331 0.040586 -0.000456
v 0.083632 0.035171 0.007062
v 0.083254 0.035171 0.016325
v 0.082339 0.040586 0.023794
v 0.081239 0.049348 0.026616
v 0.080373 0.058109 0.023714
v 0.080072 0.063524 0.016195
v 0.080451 0.063524 0.006932
v 0.081365 0.058109 -0.000537
v -0.003965 0.039633 -0.006895
v -0.003099 0.030871 -0.003992
v -0.002798 0.025456 0.003527
v -0.003177 0.025456 0.012789
v -0.004092 0.030871 0.020258
v -0.005192 0.039633 0.023080
v -0.006058 0.048395 0.020178
v -0.006359 0.053810 0.012659
v -0.005980 0.053810 0.003396
v -0.005066 0.048395 -0.004072
v -0.004579 0.051939 0.016670
v -0.012222 0.052102 0.011426
v -0.016945 0.047502 0.004909
v -0.016945 0.039897 -0.000392
v -0.012222 0.032191 -0.002452
v -0.004579 0.027327 -0.000484
v 0.003064 0.027164 0.004760
v 0.007788 0.031764 0.011277
v 0.007788 0.039369 0.016578
v 0.003064 0.047076 0.018638
v -0.017351 0.039239 0.034891
v -0.024994 0.039402 0.029647
v -0.029718 0.034803 0.023130
v -0.029718 0.027197 0.017829
v -0.024994 0.019491 0.015769
v -0.017351 0.014628 0.017737
v -0.009708 0.014465 0.022981
v -0.004984 0.019064 0.029498
v -0.004984 0.026670 0.034799
v -0.009708 0.034376 0.036859
v -0.017351 0.041804 0.028277
v -0.025636 0.038570 0.030890
v -0.030757 0.030891 0.031756
v -0.030757 0.021700 0.030542
v -0.025636 0.014508 0.027714
v -0.017351 0.012062 0.024351
v -0.009065 0.015297 0.021738
v -0.003945 0.022976 0.020872
v -0.003945 0.032167 0.022085
v -0.009065 0.039359 0.024914
v -0.009193 0.038870 0.050508
v -0.017479 0.035636 0.053121
v -0.022599 0.027956 0.053987
v -0.022599 0.018766 0.052774
v -0.017479 0.011574 0.049945
v -0.009193 0.009128 0.046582
v -0.000908 0.012363 0.043969
v 0.004213 0.020042 0.043103
v 0.004213 0.029233 0.044316
v -0.000908 0.036424 0.047145
v -0.013014 0.023999 0.063050
v -0.009887 0.015538 0.060912
v -0.006495 0.010309 0.054049
v -0.004133 0.010309 0.045085
v -0.003704 0.015538 0.037442
v -0.005372 0.023999 0.034040
v -0.008499 0.032460 0.036179
v -0.011892 0.037689 0.043041
v -0.014253 0.037689 0.052005
v -0.014682 0.032460 0.059648
v -0.001366 0.027529 0.066119
v 0.001762 0.019068 0.063980
v 0.005154 0.013839 0.057118
v 0.007516 0.013839 0.048153
v 0.007944 0.019068 0.040510
v 0.006277 0.027529 0.037109
v 0.003149 0.035990 0.039247
v -0.000243 0.041219 0.046109
v -0.002604 0.041219 0.055074
v -0.003033 0.035990 0.062717
f 1 2 13
f 2 14 13
f 2 3 14
f 3 15 14
f 3 4 15
f 4 16 15
f 4 5 16
f 5 17 16
f 5 6 17
f 6 18 17
f 6 7 18
f 7 19 18
f 7 8 19
f 8 20 19
f 8 9 20
f 9 21 20
f 9 10 21
f 10 22 21
f 10 11 22
f 11 23 22
f 11 12 23
f 12 24 23
f 13 14 25
f 14 26 25
f 14 15 26
f 15 27 26
f 15 16 27
f 16 28 27
f 16 17 28
f 17 29 28
f 17 18 29
f 18 30 29
f 18 19 30
f 19 31 30
f 19 20 31
f 20 32 31
f 20 21 32
f 21 33 32
f 21 22 33
f 22 34 33
f 22 23 34
f 23 35 34
f 23 24 35
f 24 36 35
f 25 26 37
f 26 38 37
f 26 27 38
f 27 39 38
f 27 28 39
f 28 40 39
f 28 29 40
f 29 41 40
f 29 30 41
f 30 42 41
f 30 31 42
f 31 43 42
f 31 32 43
f 32 44 43
f 32 33 44
f 33 45 44
f 33 34 45
f 34 46 45
f 34 35 46
f 35 47 46
f 35 36 47
f 36 48 47
f 37 38 49
f 38 50 49
f 38 39 50
f 39 51 50
f 39 40 51
f 40 52 51
f 40 41 52
f 41 53 52
f 41 42 53
f 42 54 53
f 42 43 54
f 43 55 54
f 43 44 55
f 44 56 55
f 44 45 56
f 45 57 56
f 45 46 57
f 46 58 57
f 46 47 58
f 47 59 58
f 47 48 59
f 48 60 59
f 49 50 61
f 50 62 61
f 50 51 62
f 51 63 62
f 51 52 63
f 52 64 63
f 52 53 64
f 53 65 64
f 53 54 65
f 54 66 65
f 54 55 66
f 55 67 66
f 55 56 67
f 56 68 67
f 56 57 68
f 57 69 68
f 57 58 69
f 58 70 69
f 58 59 70
f 59 71 70
f 59 60 71
f 60 72 71
f 61 62 73
f 62 74 73
f 62 63 74
f 63 75 74
f 63 64 75
f 64 76 75
f 64 65 76
f 65 77 76
f 65 66 77
f 66 78 77
f 66 67 78
f 67 79 78
f 67 68 79
f 68 80 79
f 68 69 80
f 69 81 80
f 69 70 81
f 70 82 81
f 70 71 82
f 71 83 82
f 71 72 83
f 72 84 83
f 73 74 85
f 74 86 85
f 74 75 86
f 75 87 86
f 75 76 87
f 76 88 87
f 76 77 88
f 77 89 88
f 77 78 89
f 78 90 89
f 78 79 90
f 79 91 90
f 79 80 91
f 80 92 91
f 80 81 92
f 81 93 92
f 81 82 93
f 82 94 93
f 82 83 94
f 83 95 94
f 83 84 95
f 84 96 95
f 85 86 97
f 86 98 97
f 86 87 98
f 87 99 98
f 87 88 99
f 88 100 99
f 88 89 100
f 89 101 100
f 89 90 101
f 90 102 101
f 90 91 102
f 91 103 102
f 91 92 103
f 92 104 103
f 92 93 104
f 93 105 104
f 93 94 105
f 94 106 105
f 94 95 106
f 95 107 106
f 95 96 107
f 96 108 107
f 97 98 109
f 98 110 109
f 98 99 110
f 99 111 110
f 99 100 111
f 100 112 111
f 100 101 112
f 101 113 112
f 101 102 113
f 102 114 113
f 102 103 114
f 103 115 114
f 103 104 115
f 104 116 115
f 104 105 116
f 105 117 116
f 105 106 117
f 106 118 117
f 106 107 118
f 107 119 118
f 107 108 119
f 108 120 119
f 109 110 121
f 110 122 121
f 110 111 122
f 111 123 122
f 111 112 123
f 112 124 123
f 112 113 124
f 113 125 124
f 113 114 125
f 114 126 125
f 114 115 126
f 115 127 126
f 115 116 127
f 116 128 127
f 116 117 128
f 117 129 128
f 117 118 129
f 118 130 129
f 118 119 130
f 119 131 130
f 119 120 131
f 120 132 131
f 121 122 133
f 122 134 133
f 122 123 134
f 123 135 134
f 123 124 135
f 124 136 135
f 124 125 136
f 125 137 136
f 125 126 137
f 126 138 137
f 126 127 138
f 127 139 138
f 127 128 139
f 128 140 139
f 128 129 140
f 129 141 140
f 129 130 141
f 130 142 141
f 130 131 142
f 131 143 142
f 131 132 143
f 132 144 143
f 145 146 155
f 146 156 155
f 146 147 156
f 147 157 156
f 147 148 157
f 148 158 157
f 148 149 158
f 149 159 158
f 149 150 159
f 150 160 159
f 150 151 160
f 151 161 160
f 151 152 161
f 152 162 161
f 152 153 162
f 153 163 162
f 153 154 163
f 154 164 163
f 154 145 164
f 145 155 164
f 165 166 175
f 166 176 175
f 166 167 176
f 167 177 176
f 167 168 177
f 168 178 177
f 168 169 178
f 169 179 178
f 169 170 179
f 170 180 179
f 170 171 180
f 171 181 180
f 171 172 181
f 172 182 181
f 172 173 182
f 173 183 182
f 173 174 183
f 174 184 183
f 174 165 184
f 165 175 184
f 185 186 195
f 186 196 195
f 186 187 196
f 187 197 196
f 187 188 197
f 188 198 197
f 188 189 198
f 189 199 198
f 189 190 199
f 190 200 199
f 190 191 200
f 191 201 200
f 191 192 201
f 192 202 201
f 192 193 202
f 193 203 202
f 193 194 203
f 194 204 203
f 194 185 204
f 185 195 204
f 205 206 215
f 206 216 215
f 206 207 216
f 207 217 216
f 207 208 217
f 208 218 217
f 208 209 218
f 209 219 218
f 209 210 219
f 210 220 219
f 210 211 220
f 211 221 220
f 211 212 221
f 212 222 221
f 212 213 222
f 213 223 222
f 213 214 223
f 214 224 223
f 214 205 224
f 205 215 224
f 225 226 235
f 226 236 235
f 226 227 236
f 227 237 236
f 227 228 237
f 228 238 237
f 228 229 238
f 229 239 238
f 229 230 239
f 230 240 239
f 230 231 240
f 231 241 240
f 231 232 241
f 232 242 241
f 232 233 242
f 233 243 242
f 233 234 243
f 234 244 243
f 234 225 244
f 225 235 244
f 245 246 255
f 246 256 255
f 246 247 256
f 247 257 256
f 247 248 257
f 248 258 257
f 248 249 258
f 249 259 258
f 249 250 259
f 250 260 259
f 250 251 260
f 251 261 260
f 251 252 261
f 252 262 261
f 252 253 262
f 253 263 262
f 253 254 263
f 254 264 263
f 254 245 264
f 245 255 264
f 265 266 275
f 266 276 275
f 266 267 276
f 267 277 276
f 267 268 277
f 268 278 277
f 268 269 278
f 269 279 278
f 269 270 279
f 270 280 279
f 270 271 280
f 271 281 280
f 271 272 281
f 272 282 281
f 272 273 282
f 273 283 282
f 273 274 283
f 274 284 283
f 274 265 284
f 265 275 284
f 285 286 295
f 286 296 295
f 286 287 296
f 287 297 296
f 287 288 297
f 288 298 297
f 288 289 298
f 289 299 298
f 289 290 299
f 290 300 299
f 290 291 300
f 291 301 300
f 291 292 301
f 292 302 301
f 292 293 302
f 293 303 302
f 293 294 303
f 294 304 303
f 294 285 304
f 285 295 304
f 305 306 315
f 306 316 315
f 306 307 316
f 307 317 316
f 307 308 317
f 308 318 317
f 308 309 318
f 309 319 318
f 309 310 319
f 310 320 319
f 310 311 320
f 311 321 320
f 311 312 321
f 312 322 321
f 312 313 322
f 313 323 322
f 313 314 323
f 314 324 323
f 314 305 324
f 305 315 324
f 325 326 335
f 326 336 335
f 326 327 336
f 327 337 336
f 327 328 337
f 328 338 337
f 328 329 338
f 329 339 338
f 329 330 339
f 330 340 339
f 330 331 340
f 331 341 340
f 331 332 341
f 332 342 341
f 332 333 342
f 333 343 342
f 333 334 343
f 334 344 343
f 334 325 344
f 325 335 344
f 345 346 355
f 346 356 355
f 346 347 356
f 347 357 356
f 347 348 357
f 348 358 357
f 348 349 358
f 349 359 358
f 349 350 359
f 350 360 359
f 350 351 360
f 351 361 360
f 351 352 361
f 352 362 361
f 352 353 362
f 353 363 362
f 353 354 363
f 354 364 363
f 354 345 364
f 345 355 364
f 365 366 375
f 366 376 375
f 366 367 376
f 367 377 376
f 367 368 377
f 368 378 377
f 368 369 378
f 369 379 378
f 369 370 379
f 370 380 379
f 370 371 380
f 371 381 380
f 371 372 381
f 372 382 381
f 372 373 382
f 373 383 382
f 373 374 383
f 374 384 383
f 374 365 384
f 365 375 384
f 385 386 395
f 386 396 395
f 386 387 396
f 387 397 396
f 387 388 397
f 388 398 397
f 388 389 398
f 389 399 398
f 389 390 399
f 390 400 399
f 390 391 400
f 391 401 400
f 391 392 401
f 392 402 401
f 392 393 402
f 393 403 402
f 393 394 403
f 394 404 403
f 394 385 404
f 385 395 404
f 405 406 415
f 406 416 415
f 406 407 416
f 407 417 416
f 407 408 417
f 408 418 417
f 408 409 418
f 409 419 418
f 409 410 419
f 410 420 419
f 410 411 420
f 411 421 420
f 411 412 421
f 412 422 421
f 412 413 422
f 413 423 422
f 413 414 423
f 414 424 423
f 414 405 424
f 405 415 424
f 425 426 435
f 426 436 435
f 426 427 436
f 427 437 436
f 427 428 437
f 428 438 437
f 428 429 438
f 429 439 438
f 429 430 439
f 430 440 439
f 430 431 440
f 431 441 440
f 431 432 441
f 432 442 441
f 432 433 442
f 433 443 442
f 433 434 443
f 434 444 443
f 434 425 444
f 425 435 444
f 445 446 455
f 446 456 455
f 446 447 456
f 447 457 456
f 447 448 457
f 448 458 457
f 448 449 458
f 449 459 458
f 449 450 459
f 450 460 459
f 450 451 460
f 451 461 460
f 451 452 461
f 452 462 461
f 452 453 462
f 453 463 462
f 453 454 463
f 454 464 463
f 454 445 464
f 445 455 464
f 465 466 475
f 466 476 475
f 466 467 476
f 467 477 476
f 467 468 477
f 468 478 477
f 468 469 478
f 469 479 478
f 469 470 479
f 470 480 479
f 470 471 480
f 471 481 480
f 471 472 481
f 472 482 481
f 472 473 482
f 473 483 482
f 473 474 483
f 474 484 483
f 474 465 484
f 465 475 484
f 485 486 495
f 486 496 495
f 486 487 496
f 487 497 496
f 487 488 497
f 488 498 497
f 488 489 498
f 489 499 498
f 489 490 499
f 490 500 499
f 490 491 500
f 491 501 500
f 491 492 501
f 492 502 501
f 492 493 502
f 493 503 502
f 493 494 503
f 494 504 503
f 494 485 504
f 485 495 504
f 505 506 515
f 506 516 515
f 506 507 516
f 507 517 516
f 507 508 517
f 508 518 517
f 508 509 518
f 509 519 518
f 509 510 519
f 510 520 519
f 510 511 520
f 511 521 520
f 511 512 521
f 512 522 521
f 512 513 522
f 513 523 522
f 513 514 523
f 514 524 523
f 514 505 524
f 505 515 524
f 525 526 535
f 526 536 535
f 526 527 536
f 527 537 536
f 527 528 537
f 528 538 537
f 528 529 538
f 529 539 538
f 529 530 539
f 530 540 539
f 530 531 540
f 531 541 540
f 531 532 541
f 532 542 541
f 532 533 542
f 533 543 542
f 533 534 543
f 534 544 543
f 534 525 544
f 525 535 544
f 545 546 555
f 546 556 555
f 546 547 556
f 547 557 556
f 547 548 557
f 548 558 557
f 548 549 558
f 549 559 558
f 549 550 559
f 550 560 559
f 550 551 560
f 551 561 560
f 551 552 561
f 552 562 561
f 552 553 562
f 553 563 562
f 553 554 563
f 554 564 563
f 554 545 564
f 545 555 564
f 565 566 575
f 566 576 575
f 566 567 576
f 567 577 576
f 567 568 577
f 568 578 577
f 568 569 578
f 569 579 578
f 569 570 579
f 570 580 579
f 570 571 580
f 571 581 580
f 571 572 581
f 572 582 581
f 572 573 582
f 573 583 582
f 573 574 583
f 574 584 583
f 574 565 584
f 565 575 584
f 585 586 595
f 586 596 595
f 586 587 596
f 587 597 596
f 587 588 597
f 588 598 597
f 588 589 598
f 589 599 598
f 589 590 599
f 590 600 599
f 590 591 600
f 591 601 600
f 591 592 601
f 592 602 601
f 592 593 602
f 593 603 602
f 593 594 603
f 594 604 603
f 594 585 604
f 585 595 604
f 605 606 615
f 606 616 615
f 606 607 616
f 607 617 616
f 607 608 617
f 608 618 617
f 608 609 618
f 609 619 618
f 609 610 619
f 610 620 619
f 610 611 620
f 611 621 620
f 611 612 621
f 612 622 621
f 612 613 622
f 613 623 622
f 613 614 623
f 614 624 623
f 614 605 624
f 605 615 624
f 625 626 635
f 626 636 635
f 626 627 636
f 627 637 636
f 627 628 637
f 628 638 637
f 628 629 638
f 629 639 638
f 629 630 639
f 630 640 639
f 630 631 640
f 631 641 640
f 631 632 641
f 632 642 641
f 632 633 642
f 633 643 642
f 633 634 643
f 634 644 643
f 634 625 644
f 625 635 644
f 645 646 655
f 646 656 655
f 646 647 656
f 647 657 656
f 647 648 657
f 648 658 657
f 648 649 658
f 649 659 658
f 649 650 659
f 650 660 659
f 650 651 660
f 651 661 660
f 651 652 661
f 652 662 661
f 652 653 662
f 653 663 662
f 653 654 663
f 654 664 663
f 654 645 664
f 645 655 664
f 665 666 675
f 666 676 675
f 666 667 676
f 667 677 676
f 667 668 677
f 668 678 677
f 668 669 678
f 669 679 678
f 669 670 679
f 670 680 679
f 670 671 680
f 671 681 680
f 671 672 681
f 672 682 681
f 672 673 682
f 673 683 682
f 673 674 683
f 674 684 683
f 674 665 684
f 665 675 684
f 685 686 695
f 686 696 695
f 686 687 696
f 687 697 696
f 687 688 697
f 688 698 697
f 688 689 698
f 689 699 698
f 689 690 699
f 690 700 699
f 690 691 700
f 691 701 700
f 691 692 701
f 692 702 701
f 692 693 702
f 693 703 702
f 693 694 703
f 694 704 703
f 694 685 704
f 685 695 704
f 705 706 715
f 706 716 715
f 706 707 716
f 707 717 716
f 707 708 717
f 708 718 717
f 708 709 718
f 709 719 718
f 709 710 719
f 710 720 719
f 710 711 720
f 711 721 720
f 711 712 721
f 712 722 721
f 712 713 722
f 713 723 722
f 713 714 723
f 714 724 723
f 714 705 724
f 705 715 724
f 725 726 735
f 726 736 735
f 726 727 736
f 727 737 736
f 727 728 737
f 728 738 737
f 728 729 738
f 729 739 738
f 729 730 739
f 730 740 739
f 730 731 740
f 731 741 740
f 731 732 741
f 732 742 741
f 732 733 742
f 733 743 742
f 733 734 743
f 734 744 743
f 734 725 744
f 725 735 744
f 745 746 755
f 746 756 755
f 746 747 756
f 747 757 756
f 747 748 757
f 748 758 757
f 748 749 758
f 749 759 758
f 749 750 759
f 750 760 759
f 750 751 760
f 751 761 760
f 751 752 761
f 752 762 761
f 752 753 762
f 753 763 762
f 753 754 763
f 754 764 763
f 754 745 764
f 745 755 764
f 765 766 775
f 766 776 775
f 766 767 776
f 767 777 776
f 767 768 777
f 768 778 777
f 768 769 778
f 769 779 778
f 769 770 779
f 770 780 779
f 770 771 780
f 771 781 780
f 771 772 781
f 772 782 781
f 772 773 782
f 773 783 782
f 773 774 783
f 774 784 783
f 774 765 784
f 765 775 784
