# Full-Body 3D Mesh - Frame 111
v 0.024764 -0.620824 -0.084075
v 0.058572 -0.620824 -0.088936
v 0.089641 -0.620824 -0.103124
v 0.115454 -0.620824 -0.125491
v 0.133920 -0.620824 -0.154225
v 0.143543 -0.620824 -0.186997
v 0.143543 -0.620824 -0.221152
v 0.133920 -0.620824 -0.253924
v 0.115454 -0.620824 -0.282658
v 0.089641 -0.620824 -0.305025
v 0.058572 -0.620824 -0.319214
v 0.024764 -0.620824 -0.324075
v 0.024764 -0.620824 -0.084075
v 0.053205 -0.602546 -0.088936
v 0.079342 -0.585749 -0.103124
v 0.101058 -0.571793 -0.125491
v 0.116592 -0.561810 -0.154225
v 0.124687 -0.556607 -0.186997
v 0.124687 -0.556607 -0.221152
v 0.116592 -0.561810 -0.253924
v 0.101058 -0.571793 -0.282658
v 0.079342 -0.585749 -0.305025
v 0.053205 -0.602546 -0.319214
v 0.024764 -0.620824 -0.324075
v 0.024764 -0.620824 -0.084075
v 0.038809 -0.590071 -0.088936
v 0.051715 -0.561810 -0.103124
v 0.062438 -0.538329 -0.125491
v 0.070109 -0.521532 -0.154225
v 0.074107 -0.512779 -0.186997
v 0.074107 -0.512779 -0.221152
v 0.070109 -0.521532 -0.253924
v 0.062438 -0.538329 -0.282658
v 0.051715 -0.561810 -0.305025
v 0.038809 -0.590071 -0.319214
v 0.024764 -0.620824 -0.324075
v 0.024764 -0.620824 -0.084075
v 0.019953 -0.587360 -0.088936
v 0.015531 -0.556607 -0.103124
v 0.011858 -0.531057 -0.125491
v 0.009230 -0.512779 -0.154225
v 0.007860 -0.503254 -0.186997
v 0.007860 -0.503254 -0.221152
v 0.009230 -0.512779 -0.253924
v 0.011858 -0.531057 -0.282658
v 0.015531 -0.556607 -0.305025
v 0.019953 -0.587360 -0.319214
v 0.024764 -0.620824 -0.324075
v 0.024764 -0.620824 -0.084075
v 0.002625 -0.595274 -0.088936
v -0.017721 -0.571793 -0.103124
v -0.034625 -0.552285 -0.125491
v -0.046718 -0.538329 -0.154225
v -0.053019 -0.531057 -0.186997
v -0.053019 -0.531057 -0.221152
v -0.046718 -0.538329 -0.253924
v -0.034625 -0.552285 -0.282658
v -0.017721 -0.571793 -0.305025
v 0.002625 -0.595274 -0.319214
v 0.024764 -0.620824 -0.324075
v 0.024764 -0.620824 -0.084075
v -0.007674 -0.611299 -0.088936
v -0.037485 -0.602546 -0.103124
v -0.062252 -0.595274 -0.125491
v -0.079970 -0.590071 -0.154225
v -0.089203 -0.587360 -0.186997
v -0.089203 -0.587360 -0.221152
v -0.079970 -0.590071 -0.253924
v -0.062252 -0.595274 -0.282658
v -0.037485 -0.602546 -0.305025
v -0.007674 -0.611299 -0.319214
v 0.024764 -0.620824 -0.324075
v 0.024764 -0.620824 -0.084075
v -0.007674 -0.630349 -0.088936
v -0.037485 -0.639102 -0.103124
v -0.062252 -0.646374 -0.125491
v -0.079970 -0.651577 -0.154225
v -0.089203 -0.654288 -0.186997
v -0.089203 -0.654288 -0.221152
v -0.079970 -0.651577 -0.253924
v -0.062252 -0.646374 -0.282658
v -0.037485 -0.639102 -0.305025
v -0.007674 -0.630349 -0.319214
v 0.024764 -0.620824 -0.324075
v 0.024764 -0.620824 -0.084075
v 0.002625 -0.646374 -0.088936
v -0.017721 -0.669855 -0.103124
v -0.034625 -0.689363 -0.125491
v -0.046718 -0.703318 -0.154225
v -0.053019 -0.710591 -0.186997
v -0.053019 -0.710591 -0.221152
v -0.046718 -0.703318 -0.253924
v -0.034625 -0.689363 -0.282658
v -0.017721 -0.669855 -0.305025
v 0.002625 -0.646374 -0.319214
v 0.024764 -0.620824 -0.324075
v 0.024764 -0.620824 -0.084075
v 0.019953 -0.654288 -0.088936
v 0.015531 -0.685040 -0.103124
v 0.011858 -0.710591 -0.125491
v 0.009230 -0.728869 -0.154225
v 0.007860 -0.738393 -0.186997
v 0.007860 -0.738393 -0.221152
v 0.009230 -0.728869 -0.253924
v 0.011858 -0.710591 -0.282658
v 0.015531 -0.685040 -0.305025
v 0.019953 -0.654288 -0.319214
v 0.024764 -0.620824 -0.324075
v 0.024764 -0.620824 -0.084075
v 0.038809 -0.651577 -0.088936
v 0.051715 -0.679838 -0.103124
v 0.062438 -0.703318 -0.125491
v 0.070109 -0.720116 -0.154225
v 0.074107 -0.728869 -0.186997
v 0.074107 -0.728869 -0.221152
v 0.070109 -0.720116 -0.253924
v 0.062438 -0.703318 -0.282658
v 0.051715 -0.679838 -0.305025
v 0.038809 -0.651577 -0.319214
v 0.024764 -0.620824 -0.324075
v 0.024764 -0.620824 -0.084075
v 0.053205 -0.639102 -0.088936
v 0.079342 -0.655899 -0.103124
v 0.101058 -0.669855 -0.125491
v 0.116592 -0.679838 -0.154225
v 0.124687 -0.685040 -0.186997
v 0.124687 -0.685040 -0.221152
v 0.116592 -0.679838 -0.253924
v 0.101058 -0.669855 -0.282658
v 0.079342 -0.655899 -0.305025
v 0.053205 -0.639102 -0.319214
v 0.024764 -0.620824 -0.324075
v 0.024764 -0.620824 -0.084075
v 0.058572 -0.620824 -0.088936
v 0.089641 -0.620824 -0.103124
v 0.115454 -0.620824 -0.125491
v 0.133920 -0.620824 -0.154225
v 0.143543 -0.620824 -0.186997
v 0.143543 -0.620824 -0.221152
v 0.133920 -0.620824 -0.253924
v 0.115454 -0.620824 -0.282658
v 0.089641 -0.620824 -0.305025
v 0.058572 -0.620824 -0.319214
v 0.024764 -0.620824 -0.324075
v 0.177859 -0.438773 -0.076269
v 0.177913 -0.462278 -0.068610
v 0.176969 -0.476805 -0.048630
v 0.175386 -0.476805 -0.023959
v 0.173770 -0.462278 -0.004022
v 0.172738 -0.438773 0.003567
v 0.172683 -0.415268 -0.004091
v 0.173628 -0.400741 -0.024072
v 0.175210 -0.400741 -0.048743
v 0.176826 -0.415268 -0.068680
v -0.148101 -0.446339 -0.097178
v -0.148046 -0.469844 -0.089519
v -0.148991 -0.484371 -0.069539
v -0.150573 -0.484371 -0.044868
v -0.152189 -0.469844 -0.024931
v -0.153222 -0.446339 -0.017342
v -0.153276 -0.422834 -0.025000
v -0.152332 -0.408307 -0.044981
v -0.150749 -0.408307 -0.069652
v -0.149133 -0.422834 -0.089589
v 0.175298 -0.441345 -0.076268
v 0.152633 -0.434615 -0.069047
v 0.138625 -0.429473 -0.049337
v 0.138625 -0.427884 -0.024666
v 0.152633 -0.430453 -0.004459
v 0.175298 -0.436200 0.003566
v 0.197963 -0.442930 -0.003655
v 0.211971 -0.448072 -0.023365
v 0.211971 -0.449662 -0.048035
v 0.197963 -0.447093 -0.068243
v 0.240961 -0.203781 -0.091578
v 0.218296 -0.197051 -0.084357
v 0.204288 -0.191909 -0.064647
v 0.204288 -0.190319 -0.039977
v 0.218296 -0.192888 -0.019770
v 0.240961 -0.198636 -0.011744
v 0.263626 -0.205366 -0.018965
v 0.277634 -0.210508 -0.038675
v 0.277634 -0.212098 -0.063346
v 0.263626 -0.209528 -0.083553
v 0.240961 -0.214330 -0.089448
v 0.217503 -0.210333 -0.082749
v 0.203005 -0.202851 -0.064176
v 0.203005 -0.194741 -0.040822
v 0.217503 -0.189101 -0.021609
v 0.240961 -0.188086 -0.013875
v 0.264420 -0.192083 -0.020574
v 0.278918 -0.199566 -0.039147
v 0.278918 -0.207675 -0.062500
v 0.264420 -0.213315 -0.081713
v 0.251849 -0.061460 -0.142534
v 0.228390 -0.057463 -0.135835
v 0.213892 -0.049981 -0.117262
v 0.213892 -0.041871 -0.093909
v 0.228390 -0.036232 -0.074696
v 0.251849 -0.035216 -0.066961
v 0.275307 -0.039213 -0.073660
v 0.289805 -0.046696 -0.092233
v 0.289805 -0.054806 -0.115587
v 0.275307 -0.060445 -0.134800
v -0.150661 -0.479295 -0.079929
v -0.168685 -0.481557 -0.063161
v -0.179825 -0.470367 -0.044139
v -0.179825 -0.449999 -0.030129
v -0.168685 -0.428233 -0.026482
v -0.150661 -0.413383 -0.034591
v -0.132637 -0.411121 -0.051358
v -0.121498 -0.422311 -0.070380
v -0.121498 -0.442679 -0.084391
v -0.132637 -0.464445 -0.088038
v -0.326014 -0.360648 -0.252414
v -0.344038 -0.362910 -0.235647
v -0.355178 -0.351720 -0.216624
v -0.355178 -0.331352 -0.202614
v -0.344038 -0.309586 -0.198967
v -0.326014 -0.294736 -0.207076
v -0.307990 -0.292474 -0.223843
v -0.296851 -0.303664 -0.242866
v -0.296851 -0.324032 -0.256876
v -0.307990 -0.345798 -0.260523
v -0.326014 -0.356820 -0.202330
v -0.346222 -0.359493 -0.216317
v -0.358711 -0.350020 -0.235433
v -0.358711 -0.332018 -0.252376
v -0.346222 -0.312364 -0.260675
v -0.326014 -0.298564 -0.257160
v -0.305806 -0.295891 -0.243173
v -0.293317 -0.305364 -0.224057
v -0.293317 -0.323366 -0.207114
v -0.305806 -0.343020 -0.198815
v -0.181641 -0.523209 -0.379113
v -0.201850 -0.525882 -0.393100
v -0.214339 -0.516409 -0.412216
v -0.214339 -0.498407 -0.429159
v -0.201850 -0.478753 -0.437459
v -0.181641 -0.464953 -0.433943
v -0.161433 -0.462280 -0.419957
v -0.148944 -0.471753 -0.400841
v -0.148944 -0.489755 -0.383897
v -0.161433 -0.509409 -0.375598
v 0.175298 -0.435534 -0.076220
v 0.151915 -0.438592 -0.068804
v 0.137463 -0.441719 -0.048992
v 0.137463 -0.443721 -0.024352
v 0.151915 -0.443833 -0.004295
v 0.175298 -0.442012 0.003518
v 0.198682 -0.438954 -0.003898
v 0.213134 -0.435827 -0.023710
v 0.213134 -0.433825 -0.048350
v 0.198682 -0.433713 -0.068407
v 0.128242 0.012561 -0.039813
v 0.104858 0.009503 -0.032397
v 0.090407 0.006375 -0.012585
v 0.090407 0.004373 0.012055
v 0.104858 0.004261 0.032112
v 0.128242 0.006082 0.039924
v 0.151626 0.009140 0.032508
v 0.166078 0.012268 0.012696
v 0.166078 0.014270 -0.011944
v 0.151626 0.014382 -0.032001
v -0.150661 -0.440694 -0.096860
v -0.174138 -0.440501 -0.089116
v -0.188647 -0.442537 -0.069204
v -0.188647 -0.446026 -0.044730
v -0.174138 -0.449634 -0.025042
v -0.150661 -0.451984 -0.017660
v -0.127185 -0.452177 -0.025404
v -0.112676 -0.450141 -0.045316
v -0.112676 -0.446652 -0.069790
v -0.127185 -0.443044 -0.089478
v -0.127270 -0.017431 -0.036525
v -0.150746 -0.017237 -0.028780
v -0.165255 -0.019274 -0.008869
v -0.165255 -0.022763 0.015605
v -0.150746 -0.026371 0.035293
v -0.127270 -0.028720 0.042675
v -0.103793 -0.028914 0.034931
v -0.089284 -0.026877 0.015019
v -0.089284 -0.023389 -0.009455
v -0.103793 -0.019780 -0.029143
v 0.127769 0.009321 -0.039942
v 0.130817 -0.014003 -0.032338
v 0.132881 -0.028419 -0.012361
v 0.133173 -0.028419 0.012359
v 0.131581 -0.014003 0.032379
v 0.128715 0.009321 0.040053
v 0.125667 0.032646 0.032449
v 0.123604 0.047062 0.012472
v 0.123311 0.047062 -0.012248
v 0.124903 0.032646 -0.032268
v -0.127742 -0.023076 -0.036922
v -0.124695 -0.046400 -0.029318
v -0.122631 -0.060816 -0.009341
v -0.122339 -0.060816 0.015378
v -0.123930 -0.046400 0.035399
v -0.126797 -0.023076 0.043072
v -0.129844 0.000249 0.035468
v -0.131908 0.014665 0.015491
v -0.132200 0.014665 -0.009228
v -0.130609 0.000249 -0.029248
v 0.128242 -0.003767 -0.037743
v 0.104943 -0.004244 -0.029493
v 0.090543 0.000461 -0.009957
v 0.090543 0.008550 0.013403
v 0.104943 0.016934 0.031666
v 0.128242 0.022410 0.037854
v 0.151542 0.022886 0.029604
v 0.165941 0.018182 0.010068
v 0.165941 0.010093 -0.013292
v 0.151542 0.001709 -0.031554
v 0.109231 0.129121 -0.083757
v 0.085931 0.128644 -0.075507
v 0.071531 0.133349 -0.055971
v 0.071531 0.141438 -0.032611
v 0.085931 0.149821 -0.014349
v 0.109231 0.155298 -0.008161
v 0.132530 0.155774 -0.016410
v 0.146930 0.151070 -0.035946
v 0.146930 0.142981 -0.059307
v 0.132530 0.134597 -0.077569
v 0.109231 0.160355 -0.081606
v 0.085912 0.159565 -0.073436
v 0.071500 0.152146 -0.054771
v 0.071500 0.140931 -0.032739
v 0.085912 0.130205 -0.015757
v 0.109231 0.124064 -0.010311
v 0.132550 0.124854 -0.018481
v 0.146961 0.132273 -0.037147
v 0.146961 0.143488 -0.059178
v 0.132550 0.154214 -0.076160
v 0.156559 0.487969 0.085158
v 0.133240 0.487179 0.093328
v 0.118828 0.479760 0.111993
v 0.118828 0.468546 0.134025
v 0.133240 0.457819 0.151007
v 0.156559 0.451678 0.156453
v 0.179878 0.452468 0.148283
v 0.194290 0.459887 0.129617
v 0.194290 0.471102 0.107586
v 0.179878 0.481828 0.090604
v -0.127270 -0.062062 0.012024
v -0.150639 -0.055193 0.007801
v -0.165082 -0.036057 0.001773
v -0.165082 -0.011962 -0.003757
v -0.150639 0.007888 -0.006678
v -0.127270 0.015910 -0.005874
v -0.103900 0.009042 -0.001651
v -0.089457 -0.010095 0.004377
v -0.089457 -0.034189 0.009908
v -0.103900 -0.054039 0.012829
v -0.101231 -0.114847 -0.217936
v -0.124601 -0.107978 -0.222159
v -0.139044 -0.088842 -0.228187
v -0.139044 -0.064747 -0.233717
v -0.124601 -0.044897 -0.236638
v -0.101231 -0.036875 -0.235834
v -0.077862 -0.043743 -0.231611
v -0.063419 -0.062880 -0.225583
v -0.063419 -0.086974 -0.220052
v -0.077862 -0.106824 -0.217131
v -0.101231 -0.085047 -0.265816
v -0.124483 -0.079903 -0.259180
v -0.138854 -0.073215 -0.240209
v -0.138854 -0.067538 -0.216149
v -0.124483 -0.065040 -0.196189
v -0.101231 -0.066675 -0.187954
v -0.077979 -0.071818 -0.194589
v -0.063609 -0.078506 -0.213560
v -0.063609 -0.084183 -0.237621
v -0.077979 -0.086682 -0.257581
v -0.058278 0.194082 -0.331678
v -0.081530 0.199226 -0.325043
v -0.095901 0.205913 -0.306072
v -0.095901 0.211591 -0.282011
v -0.081530 0.214089 -0.262051
v -0.058278 0.212454 -0.253816
v -0.035026 0.207310 -0.260452
v -0.020656 0.200622 -0.279423
v -0.020656 0.194945 -0.303483
v -0.035026 0.192447 -0.323443
v -0.051895 0.086244 -0.017556
v -0.054446 0.078032 -0.021019
v -0.054847 0.072956 -0.028766
v -0.052943 0.072956 -0.037839
v -0.049462 0.078032 -0.044772
v -0.045734 0.086244 -0.046917
v -0.043182 0.094456 -0.043454
v -0.042782 0.099532 -0.035707
v -0.044685 0.099532 -0.026634
v -0.048166 0.094456 -0.019701
v -0.010606 0.069761 -0.008893
v -0.013158 0.061549 -0.012355
v -0.013558 0.056474 -0.020103
v -0.011654 0.056474 -0.029176
v -0.008174 0.061549 -0.036109
v -0.004445 0.069761 -0.038253
v -0.001893 0.077974 -0.034791
v -0.001493 0.083049 -0.027044
v -0.003396 0.083049 -0.017971
v -0.006877 0.077974 -0.011038
v -0.007525 0.074922 -0.009489
v -0.012960 0.067418 -0.009790
v -0.016319 0.060808 -0.015356
v -0.016319 0.057619 -0.024061
v -0.012960 0.059068 -0.032579
v -0.007525 0.064601 -0.037657
v -0.002091 0.072105 -0.037356
v 0.001268 0.078714 -0.031790
v 0.001268 0.081904 -0.023086
v -0.002091 0.080455 -0.014567
v 0.021648 0.053479 -0.001632
v 0.016213 0.045975 -0.001933
v 0.012854 0.039366 -0.007499
v 0.012854 0.036176 -0.016204
v 0.016213 0.037625 -0.024722
v 0.021648 0.043158 -0.029801
v 0.027083 0.050662 -0.029499
v 0.030441 0.057272 -0.023933
v 0.030441 0.060461 -0.015229
v 0.027083 0.059012 -0.006710
v 0.021648 0.051935 -0.001159
v 0.013356 0.048335 -0.003216
v 0.008232 0.044728 -0.010048
v 0.008232 0.042493 -0.019045
v 0.013356 0.042483 -0.026771
v 0.021648 0.044702 -0.030274
v 0.029939 0.048303 -0.028217
v 0.035064 0.051909 -0.021385
v 0.035064 0.054144 -0.012387
v 0.029939 0.054154 -0.004662
v 0.031495 0.025505 0.005407
v 0.023204 0.021904 0.003350
v 0.018080 0.018298 -0.003482
v 0.018080 0.016063 -0.012480
v 0.023204 0.016053 -0.020205
v 0.031495 0.018272 -0.023708
v 0.039787 0.021872 -0.021651
v 0.044911 0.025479 -0.014819
v 0.044911 0.027714 -0.005822
v 0.039787 0.027724 0.001904
v 0.031495 0.022068 0.005848
v 0.022746 0.020942 0.002997
v 0.017339 0.020177 -0.004494
v 0.017339 0.020066 -0.013764
v 0.022746 0.020651 -0.021272
v 0.031495 0.021709 -0.024149
v 0.040244 0.022835 -0.021298
v 0.045651 0.023600 -0.013807
v 0.045651 0.023710 -0.004537
v 0.040244 0.023125 0.002971
v 0.034865 -0.004928 0.006171
v 0.026116 -0.006054 0.003320
v 0.020709 -0.006819 -0.004171
v 0.020709 -0.006930 -0.013441
v 0.026116 -0.006345 -0.020949
v 0.034865 -0.005287 -0.023826
v 0.043614 -0.004161 -0.020975
v 0.049021 -0.003397 -0.013484
v 0.049021 -0.003286 -0.004214
v 0.043614 -0.003871 0.003294
v -0.048814 0.094901 -0.019987
v -0.055968 0.089039 -0.019352
v -0.060389 0.082110 -0.023639
v -0.060389 0.076759 -0.031210
v -0.055968 0.075032 -0.039173
v -0.048814 0.077587 -0.044486
v -0.041660 0.083449 -0.045121
v -0.037239 0.090379 -0.040834
v -0.037239 0.095729 -0.033264
v -0.041660 0.097456 -0.025301
v 0.016620 0.020723 0.032436
v 0.009466 0.014861 0.033071
v 0.005045 0.007931 0.028785
v 0.005045 0.002581 0.021214
v 0.009466 0.000853 0.013251
v 0.016620 0.003409 0.007937
v 0.023774 0.009271 0.007302
v 0.028195 0.016200 0.011589
v 0.028195 0.021550 0.019160
v 0.023774 0.023278 0.027123
v 0.016620 0.013223 0.035142
v 0.008811 0.008920 0.032602
v 0.003985 0.005819 0.025319
v 0.003985 0.005104 0.016076
v 0.008811 0.007048 0.008403
v 0.016620 0.010908 0.005231
v 0.024429 0.015211 0.007772
v 0.029255 0.018312 0.015054
v 0.029255 0.019027 0.024297
v 0.024429 0.017083 0.031970
v 0.030441 -0.013061 0.037176
v 0.022632 -0.017364 0.034635
v 0.017806 -0.020465 0.027353
v 0.017806 -0.021180 0.018110
v 0.022632 -0.019236 0.010437
v 0.030441 -0.015375 0.007265
v 0.038250 -0.011073 0.009806
v 0.043076 -0.007972 0.017088
v 0.043076 -0.007256 0.026331
v 0.038250 -0.009200 0.034004
v 0.030441 -0.016670 0.037019
v 0.022664 -0.020300 0.033514
v 0.017857 -0.021607 0.025695
v 0.017857 -0.020091 0.016549
v 0.022664 -0.016333 0.009570
v 0.030441 -0.011767 0.007422
v 0.038218 -0.008137 0.010927
v 0.043024 -0.006830 0.018746
v 0.043024 -0.008345 0.027892
v 0.038218 -0.012104 0.034872
v 0.040593 -0.035422 0.033912
v 0.032817 -0.039052 0.030407
v 0.028010 -0.040359 0.022588
v 0.028010 -0.038843 0.013442
v 0.032817 -0.035085 0.006463
v 0.040593 -0.030519 0.004316
v 0.048370 -0.026889 0.007821
v 0.053177 -0.025582 0.015639
v 0.053177 -0.027097 0.024785
v 0.048370 -0.030856 0.031765
v 0.040593 -0.043472 0.029824
v 0.032040 -0.042994 0.026280
v 0.026754 -0.038688 0.019999
v 0.026754 -0.032198 0.013380
v 0.032040 -0.026002 0.008951
v 0.040593 -0.022469 0.008403
v 0.049147 -0.022946 0.011947
v 0.054433 -0.027253 0.018228
v 0.054433 -0.033743 0.024848
v 0.049147 -0.039938 0.029277
v 0.047207 -0.062344 0.011320
v 0.038654 -0.061866 0.007776
v 0.033367 -0.057560 0.001495
v 0.033367 -0.051070 -0.005124
v 0.038654 -0.044874 -0.009554
v 0.047207 -0.041341 -0.010101
v 0.055760 -0.041818 -0.006557
v 0.061046 -0.046125 -0.000276
v 0.061046 -0.052615 0.006344
v 0.055760 -0.058810 0.010773
v -0.048814 0.092838 -0.018764
v -0.056755 0.088137 -0.019653
v -0.061663 0.082714 -0.025348
v -0.061663 0.078639 -0.033675
v -0.056755 0.077469 -0.041453
v -0.048814 0.079651 -0.045710
v -0.040873 0.084351 -0.044821
v -0.035966 0.089775 -0.039125
v -0.035966 0.093850 -0.030798
v -0.040873 0.095020 -0.023021
v -0.000465 0.002826 0.025287
v -0.008406 -0.001874 0.024398
v -0.013314 -0.007298 0.018702
v -0.013314 -0.011373 0.010375
v -0.008406 -0.012543 0.002598
v -0.000465 -0.010361 -0.001659
v 0.007475 -0.005660 -0.000770
v 0.012383 -0.000237 0.004925
v 0.012383 0.003838 0.013252
v 0.007475 0.005008 0.021030
v -0.000465 -0.004524 0.026795
v -0.007664 -0.009464 0.023677
v -0.012113 -0.012228 0.016028
v -0.012113 -0.011761 0.006769
v -0.007664 -0.008240 -0.000563
v -0.000465 -0.003011 -0.003167
v 0.006733 0.001930 -0.000049
v 0.011182 0.004694 0.007600
v 0.011182 0.004226 0.016859
v 0.006733 0.000705 0.024190
v 0.017875 -0.030422 0.025487
v 0.010677 -0.035362 0.022369
v 0.006228 -0.038126 0.014720
v 0.006228 -0.037659 0.005461
v 0.010677 -0.034138 -0.001871
v 0.017875 -0.028909 -0.004475
v 0.025073 -0.023968 -0.001357
v 0.029522 -0.021204 0.006292
v 0.029522 -0.021672 0.015551
v 0.025073 -0.025192 0.022883
v 0.017875 -0.040259 0.021125
v 0.009543 -0.040277 0.017061
v 0.004393 -0.036241 0.010493
v 0.004393 -0.029694 0.003930
v 0.009543 -0.023136 -0.000122
v 0.017875 -0.019071 -0.000114
v 0.026207 -0.019054 0.003951
v 0.031357 -0.023089 0.010519
v 0.031357 -0.029636 0.017082
v 0.026207 -0.036195 0.021133
v 0.025441 -0.055739 0.005683
v 0.017109 -0.055757 0.001619
v 0.011959 -0.051721 -0.004949
v 0.011959 -0.045174 -0.011513
v 0.017109 -0.038616 -0.015564
v 0.025441 -0.034551 -0.015556
v 0.033773 -0.034534 -0.011492
v 0.038922 -0.038569 -0.004923
v 0.038922 -0.045116 0.001640
v 0.033773 -0.051674 0.005691
v 0.025441 -0.046070 0.010035
v 0.018051 -0.050693 0.006879
v 0.013484 -0.053198 -0.000790
v 0.013484 -0.052626 -0.010042
v 0.018051 -0.049197 -0.017345
v 0.025441 -0.044221 -0.019908
v 0.032830 -0.039597 -0.016752
v 0.037397 -0.037093 -0.009083
v 0.037397 -0.037664 0.000170
v 0.032830 -0.041093 0.007472
v 0.039407 -0.067488 0.008713
v 0.032017 -0.072111 0.005557
v 0.027450 -0.074616 -0.002112
v 0.027450 -0.074044 -0.011365
v 0.032017 -0.070616 -0.018667
v 0.039407 -0.065639 -0.021230
v 0.046796 -0.061015 -0.018075
v 0.051363 -0.058511 -0.010406
v 0.051363 -0.059082 -0.001153
v 0.046796 -0.062511 0.006150
v -0.048814 0.089612 -0.017620
v -0.057044 0.085886 -0.019701
v -0.062130 0.082297 -0.026571
v -0.062130 0.080216 -0.035604
v -0.057044 0.080437 -0.043352
v -0.048814 0.082876 -0.046854
v -0.040584 0.086602 -0.044772
v -0.035498 0.090191 -0.037903
v -0.035498 0.092272 -0.028869
v -0.040584 0.092051 -0.021121
v -0.011536 -0.004899 0.004156
v -0.019766 -0.008625 0.002075
v -0.024852 -0.012214 -0.004795
v -0.024852 -0.014295 -0.013829
v -0.019766 -0.014074 -0.021576
v -0.011536 -0.011635 -0.025078
v -0.003307 -0.007909 -0.022997
v 0.001780 -0.004320 -0.016127
v 0.001780 -0.002239 -0.007093
v -0.003307 -0.002460 0.000654
v -0.011536 -0.009082 0.004517
v -0.018726 -0.014022 0.001379
v -0.023169 -0.016764 -0.006281
v -0.023169 -0.016261 -0.015538
v -0.018726 -0.012704 -0.022855
v -0.011536 -0.007452 -0.025439
v -0.004347 -0.002512 -0.022301
v 0.000097 0.000230 -0.014641
v 0.000097 -0.000274 -0.005384
v -0.004347 -0.003830 0.001934
v 0.004180 -0.031190 0.003314
v -0.003010 -0.036130 0.000177
v -0.007453 -0.038872 -0.007483
v -0.007453 -0.038369 -0.016740
v -0.003010 -0.034812 -0.024058
v 0.004180 -0.029561 -0.026641
v 0.011370 -0.024620 -0.023504
v 0.015813 -0.021878 -0.015843
v 0.015813 -0.022382 -0.006587
v 0.011370 -0.025938 0.000731
v 0.004180 -0.034288 0.002817
v -0.003266 -0.038099 -0.001180
v -0.007868 -0.038960 -0.009182
v -0.007868 -0.036541 -0.018131
v -0.003266 -0.031768 -0.024610
v 0.004180 -0.026462 -0.026144
v 0.011626 -0.022651 -0.022147
v 0.016228 -0.021791 -0.014145
v 0.016228 -0.024209 -0.005196
v 0.011626 -0.028983 0.001283
v 0.015790 -0.051963 -0.001959
v 0.008344 -0.055774 -0.005957
v 0.003742 -0.056635 -0.013958
v 0.003742 -0.054216 -0.022908
v 0.008344 -0.049442 -0.029387
v 0.015790 -0.044137 -0.030920
v 0.023236 -0.040326 -0.026923
v 0.027838 -0.039466 -0.018922
v 0.027838 -0.041884 -0.009972
v 0.023236 -0.046658 -0.003493
v 0.015790 -0.050321 -0.001613
v 0.008312 -0.054504 -0.005151
v 0.003691 -0.056222 -0.013002
v 0.003691 -0.054819 -0.022166
v 0.008312 -0.050830 -0.029142
v 0.015790 -0.045780 -0.031267
v 0.023268 -0.041596 -0.027728
v 0.027889 -0.039878 -0.019878
v 0.027889 -0.041281 -0.010714
v 0.023268 -0.045270 -0.003737
v 0.026319 -0.066983 -0.004164
v 0.018841 -0.071167 -0.007703
v 0.014220 -0.072885 -0.015554
v 0.014220 -0.071482 -0.024717
v 0.018841 -0.067493 -0.031694
v 0.026319 -0.062442 -0.033819
v 0.033797 -0.058259 -0.030280
v 0.038419 -0.056541 -0.022429
v 0.038419 -0.057944 -0.013266
v 0.033797 -0.061933 -0.006289
v -0.048814 0.085628 -0.017249
v -0.057432 0.083883 -0.020188
v -0.062758 0.083040 -0.027729
v -0.062758 0.083421 -0.036992
v -0.057432 0.084880 -0.044438
v -0.048814 0.086860 -0.047224
v -0.040197 0.088605 -0.044285
v -0.034871 0.089448 -0.036744
v -0.034871 0.089067 -0.027481
v -0.040197 0.087609 -0.020035
v -0.028971 -0.006027 -0.021015
v -0.037588 -0.007772 -0.023953
v -0.042914 -0.008615 -0.031494
v -0.042914 -0.008235 -0.040757
v -0.037588 -0.006776 -0.048204
v -0.028971 -0.004796 -0.050989
v -0.020353 -0.003051 -0.048051
v -0.015027 -0.002208 -0.040510
v -0.015027 -0.002588 -0.031247
v -0.020353 -0.004047 -0.023800
v -0.028971 0.000110 -0.022055
v -0.036459 -0.005273 -0.023005
v -0.041086 -0.010708 -0.028920
v -0.041086 -0.014121 -0.037539
v -0.036459 -0.014206 -0.045572
v -0.028971 -0.010933 -0.049949
v -0.021483 -0.005550 -0.048999
v -0.016855 -0.000115 -0.043084
v -0.016855 0.003298 -0.034465
v -0.021483 0.003383 -0.026432
v -0.019263 -0.014409 -0.016307
v -0.026751 -0.019792 -0.017257
v -0.031379 -0.025228 -0.023172
v -0.031379 -0.028640 -0.031791
v -0.026751 -0.028726 -0.039824
v -0.019263 -0.025452 -0.044201
v -0.011775 -0.020070 -0.043251
v -0.007148 -0.014634 -0.037336
v -0.007148 -0.011222 -0.028717
v -0.011775 -0.011136 -0.020684
v -0.019263 -0.018269 -0.015346
v -0.027032 -0.022730 -0.017732
v -0.031833 -0.026122 -0.024900
v -0.031833 -0.027149 -0.034113
v -0.027032 -0.025419 -0.041853
v -0.019263 -0.021593 -0.045162
v -0.011494 -0.017131 -0.042777
v -0.006693 -0.013740 -0.035608
v -0.006693 -0.012713 -0.026395
v -0.011494 -0.014443 -0.018655
v -0.007639 -0.039794 -0.012947
v -0.015408 -0.044255 -0.015332
v -0.020209 -0.047647 -0.022500
v -0.020209 -0.048674 -0.031714
v -0.015408 -0.046944 -0.039453
v -0.007639 -0.043118 -0.042762
v 0.000130 -0.038657 -0.040377
v 0.004931 -0.035265 -0.033209
v 0.004931 -0.034238 -0.023995
v 0.000130 -0.035968 -0.016256
v -0.007639 -0.040067 -0.012919
v -0.013094 -0.047230 -0.015130
v -0.016465 -0.052186 -0.022202
v -0.016465 -0.053045 -0.031432
v -0.013094 -0.049476 -0.039297
v -0.007639 -0.042844 -0.042790
v -0.002184 -0.035682 -0.040579
v 0.001187 -0.030726 -0.033507
v 0.001187 -0.029867 -0.024277
v -0.002184 -0.033436 -0.016413
v 0.011702 -0.055234 -0.011509
v 0.006247 -0.062396 -0.013720
v 0.002876 -0.067353 -0.020792
v 0.002876 -0.068211 -0.030023
v 0.006247 -0.064643 -0.037887
v 0.011702 -0.058011 -0.041380
v 0.017157 -0.050849 -0.039169
v 0.020528 -0.045892 -0.032097
v 0.020528 -0.045034 -0.022867
v 0.017157 -0.048602 -0.015003
f 1 2 13
f 2 14 13
f 2 3 14
f 3 15 14
f 3 4 15
f 4 16 15
f 4 5 16
f 5 17 16
f 5 6 17
f 6 18 17
f 6 7 18
f 7 19 18
f 7 8 19
f 8 20 19
f 8 9 20
f 9 21 20
f 9 10 21
f 10 22 21
f 10 11 22
f 11 23 22
f 11 12 23
f 12 24 23
f 13 14 25
f 14 26 25
f 14 15 26
f 15 27 26
f 15 16 27
f 16 28 27
f 16 17 28
f 17 29 28
f 17 18 29
f 18 30 29
f 18 19 30
f 19 31 30
f 19 20 31
f 20 32 31
f 20 21 32
f 21 33 32
f 21 22 33
f 22 34 33
f 22 23 34
f 23 35 34
f 23 24 35
f 24 36 35
f 25 26 37
f 26 38 37
f 26 27 38
f 27 39 38
f 27 28 39
f 28 40 39
f 28 29 40
f 29 41 40
f 29 30 41
f 30 42 41
f 30 31 42
f 31 43 42
f 31 32 43
f 32 44 43
f 32 33 44
f 33 45 44
f 33 34 45
f 34 46 45
f 34 35 46
f 35 47 46
f 35 36 47
f 36 48 47
f 37 38 49
f 38 50 49
f 38 39 50
f 39 51 50
f 39 40 51
f 40 52 51
f 40 41 52
f 41 53 52
f 41 42 53
f 42 54 53
f 42 43 54
f 43 55 54
f 43 44 55
f 44 56 55
f 44 45 56
f 45 57 56
f 45 46 57
f 46 58 57
f 46 47 58
f 47 59 58
f 47 48 59
f 48 60 59
f 49 50 61
f 50 62 61
f 50 51 62
f 51 63 62
f 51 52 63
f 52 64 63
f 52 53 64
f 53 65 64
f 53 54 65
f 54 66 65
f 54 55 66
f 55 67 66
f 55 56 67
f 56 68 67
f 56 57 68
f 57 69 68
f 57 58 69
f 58 70 69
f 58 59 70
f 59 71 70
f 59 60 71
f 60 72 71
f 61 62 73
f 62 74 73
f 62 63 74
f 63 75 74
f 63 64 75
f 64 76 75
f 64 65 76
f 65 77 76
f 65 66 77
f 66 78 77
f 66 67 78
f 67 79 78
f 67 68 79
f 68 80 79
f 68 69 80
f 69 81 80
f 69 70 81
f 70 82 81
f 70 71 82
f 71 83 82
f 71 72 83
f 72 84 83
f 73 74 85
f 74 86 85
f 74 75 86
f 75 87 86
f 75 76 87
f 76 88 87
f 76 77 88
f 77 89 88
f 77 78 89
f 78 90 89
f 78 79 90
f 79 91 90
f 79 80 91
f 80 92 91
f 80 81 92
f 81 93 92
f 81 82 93
f 82 94 93
f 82 83 94
f 83 95 94
f 83 84 95
f 84 96 95
f 85 86 97
f 86 98 97
f 86 87 98
f 87 99 98
f 87 88 99
f 88 100 99
f 88 89 100
f 89 101 100
f 89 90 101
f 90 102 101
f 90 91 102
f 91 103 102
f 91 92 103
f 92 104 103
f 92 93 104
f 93 105 104
f 93 94 105
f 94 106 105
f 94 95 106
f 95 107 106
f 95 96 107
f 96 108 107
f 97 98 109
f 98 110 109
f 98 99 110
f 99 111 110
f 99 100 111
f 100 112 111
f 100 101 112
f 101 113 112
f 101 102 113
f 102 114 113
f 102 103 114
f 103 115 114
f 103 104 115
f 104 116 115
f 104 105 116
f 105 117 116
f 105 106 117
f 106 118 117
f 106 107 118
f 107 119 118
f 107 108 119
f 108 120 119
f 109 110 121
f 110 122 121
f 110 111 122
f 111 123 122
f 111 112 123
f 112 124 123
f 112 113 124
f 113 125 124
f 113 114 125
f 114 126 125
f 114 115 126
f 115 127 126
f 115 116 127
f 116 128 127
f 116 117 128
f 117 129 128
f 117 118 129
f 118 130 129
f 118 119 130
f 119 131 130
f 119 120 131
f 120 132 131
f 121 122 133
f 122 134 133
f 122 123 134
f 123 135 134
f 123 124 135
f 124 136 135
f 124 125 136
f 125 137 136
f 125 126 137
f 126 138 137
f 126 127 138
f 127 139 138
f 127 128 139
f 128 140 139
f 128 129 140
f 129 141 140
f 129 130 141
f 130 142 141
f 130 131 142
f 131 143 142
f 131 132 143
f 132 144 143
f 145 146 155
f 146 156 155
f 146 147 156
f 147 157 156
f 147 148 157
f 148 158 157
f 148 149 158
f 149 159 158
f 149 150 159
f 150 160 159
f 150 151 160
f 151 161 160
f 151 152 161
f 152 162 161
f 152 153 162
f 153 163 162
f 153 154 163
f 154 164 163
f 154 145 164
f 145 155 164
f 165 166 175
f 166 176 175
f 166 167 176
f 167 177 176
f 167 168 177
f 168 178 177
f 168 169 178
f 169 179 178
f 169 170 179
f 170 180 179
f 170 171 180
f 171 181 180
f 171 172 181
f 172 182 181
f 172 173 182
f 173 183 182
f 173 174 183
f 174 184 183
f 174 165 184
f 165 175 184
f 185 186 195
f 186 196 195
f 186 187 196
f 187 197 196
f 187 188 197
f 188 198 197
f 188 189 198
f 189 199 198
f 189 190 199
f 190 200 199
f 190 191 200
f 191 201 200
f 191 192 201
f 192 202 201
f 192 193 202
f 193 203 202
f 193 194 203
f 194 204 203
f 194 185 204
f 185 195 204
f 205 206 215
f 206 216 215
f 206 207 216
f 207 217 216
f 207 208 217
f 208 218 217
f 208 209 218
f 209 219 218
f 209 210 219
f 210 220 219
f 210 211 220
f 211 221 220
f 211 212 221
f 212 222 221
f 212 213 222
f 213 223 222
f 213 214 223
f 214 224 223
f 214 205 224
f 205 215 224
f 225 226 235
f 226 236 235
f 226 227 236
f 227 237 236
f 227 228 237
f 228 238 237
f 228 229 238
f 229 239 238
f 229 230 239
f 230 240 239
f 230 231 240
f 231 241 240
f 231 232 241
f 232 242 241
f 232 233 242
f 233 243 242
f 233 234 243
f 234 244 243
f 234 225 244
f 225 235 244
f 245 246 255
f 246 256 255
f 246 247 256
f 247 257 256
f 247 248 257
f 248 258 257
f 248 249 258
f 249 259 258
f 249 250 259
f 250 260 259
f 250 251 260
f 251 261 260
f 251 252 261
f 252 262 261
f 252 253 262
f 253 263 262
f 253 254 263
f 254 264 263
f 254 245 264
f 245 255 264
f 265 266 275
f 266 276 275
f 266 267 276
f 267 277 276
f 267 268 277
f 268 278 277
f 268 269 278
f 269 279 278
f 269 270 279
f 270 280 279
f 270 271 280
f 271 281 280
f 271 272 281
f 272 282 281
f 272 273 282
f 273 283 282
f 273 274 283
f 274 284 283
f 274 265 284
f 265 275 284
f 285 286 295
f 286 296 295
f 286 287 296
f 287 297 296
f 287 288 297
f 288 298 297
f 288 289 298
f 289 299 298
f 289 290 299
f 290 300 299
f 290 291 300
f 291 301 300
f 291 292 301
f 292 302 301
f 292 293 302
f 293 303 302
f 293 294 303
f 294 304 303
f 294 285 304
f 285 295 304
f 305 306 315
f 306 316 315
f 306 307 316
f 307 317 316
f 307 308 317
f 308 318 317
f 308 309 318
f 309 319 318
f 309 310 319
f 310 320 319
f 310 311 320
f 311 321 320
f 311 312 321
f 312 322 321
f 312 313 322
f 313 323 322
f 313 314 323
f 314 324 323
f 314 305 324
f 305 315 324
f 325 326 335
f 326 336 335
f 326 327 336
f 327 337 336
f 327 328 337
f 328 338 337
f 328 329 338
f 329 339 338
f 329 330 339
f 330 340 339
f 330 331 340
f 331 341 340
f 331 332 341
f 332 342 341
f 332 333 342
f 333 343 342
f 333 334 343
f 334 344 343
f 334 325 344
f 325 335 344
f 345 346 355
f 346 356 355
f 346 347 356
f 347 357 356
f 347 348 357
f 348 358 357
f 348 349 358
f 349 359 358
f 349 350 359
f 350 360 359
f 350 351 360
f 351 361 360
f 351 352 361
f 352 362 361
f 352 353 362
f 353 363 362
f 353 354 363
f 354 364 363
f 354 345 364
f 345 355 364
f 365 366 375
f 366 376 375
f 366 367 376
f 367 377 376
f 367 368 377
f 368 378 377
f 368 369 378
f 369 379 378
f 369 370 379
f 370 380 379
f 370 371 380
f 371 381 380
f 371 372 381
f 372 382 381
f 372 373 382
f 373 383 382
f 373 374 383
f 374 384 383
f 374 365 384
f 365 375 384
f 385 386 395
f 386 396 395
f 386 387 396
f 387 397 396
f 387 388 397
f 388 398 397
f 388 389 398
f 389 399 398
f 389 390 399
f 390 400 399
f 390 391 400
f 391 401 400
f 391 392 401
f 392 402 401
f 392 393 402
f 393 403 402
f 393 394 403
f 394 404 403
f 394 385 404
f 385 395 404
f 405 406 415
f 406 416 415
f 406 407 416
f 407 417 416
f 407 408 417
f 408 418 417
f 408 409 418
f 409 419 418
f 409 410 419
f 410 420 419
f 410 411 420
f 411 421 420
f 411 412 421
f 412 422 421
f 412 413 422
f 413 423 422
f 413 414 423
f 414 424 423
f 414 405 424
f 405 415 424
f 425 426 435
f 426 436 435
f 426 427 436
f 427 437 436
f 427 428 437
f 428 438 437
f 428 429 438
f 429 439 438
f 429 430 439
f 430 440 439
f 430 431 440
f 431 441 440
f 431 432 441
f 432 442 441
f 432 433 442
f 433 443 442
f 433 434 443
f 434 444 443
f 434 425 444
f 425 435 444
f 445 446 455
f 446 456 455
f 446 447 456
f 447 457 456
f 447 448 457
f 448 458 457
f 448 449 458
f 449 459 458
f 449 450 459
f 450 460 459
f 450 451 460
f 451 461 460
f 451 452 461
f 452 462 461
f 452 453 462
f 453 463 462
f 453 454 463
f 454 464 463
f 454 445 464
f 445 455 464
f 465 466 475
f 466 476 475
f 466 467 476
f 467 477 476
f 467 468 477
f 468 478 477
f 468 469 478
f 469 479 478
f 469 470 479
f 470 480 479
f 470 471 480
f 471 481 480
f 471 472 481
f 472 482 481
f 472 473 482
f 473 483 482
f 473 474 483
f 474 484 483
f 474 465 484
f 465 475 484
f 485 486 495
f 486 496 495
f 486 487 496
f 487 497 496
f 487 488 497
f 488 498 497
f 488 489 498
f 489 499 498
f 489 490 499
f 490 500 499
f 490 491 500
f 491 501 500
f 491 492 501
f 492 502 501
f 492 493 502
f 493 503 502
f 493 494 503
f 494 504 503
f 494 485 504
f 485 495 504
f 505 506 515
f 506 516 515
f 506 507 516
f 507 517 516
f 507 508 517
f 508 518 517
f 508 509 518
f 509 519 518
f 509 510 519
f 510 520 519
f 510 511 520
f 511 521 520
f 511 512 521
f 512 522 521
f 512 513 522
f 513 523 522
f 513 514 523
f 514 524 523
f 514 505 524
f 505 515 524
f 525 526 535
f 526 536 535
f 526 527 536
f 527 537 536
f 527 528 537
f 528 538 537
f 528 529 538
f 529 539 538
f 529 530 539
f 530 540 539
f 530 531 540
f 531 541 540
f 531 532 541
f 532 542 541
f 532 533 542
f 533 543 542
f 533 534 543
f 534 544 543
f 534 525 544
f 525 535 544
f 545 546 555
f 546 556 555
f 546 547 556
f 547 557 556
f 547 548 557
f 548 558 557
f 548 549 558
f 549 559 558
f 549 550 559
f 550 560 559
f 550 551 560
f 551 561 560
f 551 552 561
f 552 562 561
f 552 553 562
f 553 563 562
f 553 554 563
f 554 564 563
f 554 545 564
f 545 555 564
f 565 566 575
f 566 576 575
f 566 567 576
f 567 577 576
f 567 568 577
f 568 578 577
f 568 569 578
f 569 579 578
f 569 570 579
f 570 580 579
f 570 571 580
f 571 581 580
f 571 572 581
f 572 582 581
f 572 573 582
f 573 583 582
f 573 574 583
f 574 584 583
f 574 565 584
f 565 575 584
f 585 586 595
f 586 596 595
f 586 587 596
f 587 597 596
f 587 588 597
f 588 598 597
f 588 589 598
f 589 599 598
f 589 590 599
f 590 600 599
f 590 591 600
f 591 601 600
f 591 592 601
f 592 602 601
f 592 593 602
f 593 603 602
f 593 594 603
f 594 604 603
f 594 585 604
f 585 595 604
f 605 606 615
f 606 616 615
f 606 607 616
f 607 617 616
f 607 608 617
f 608 618 617
f 608 609 618
f 609 619 618
f 609 610 619
f 610 620 619
f 610 611 620
f 611 621 620
f 611 612 621
f 612 622 621
f 612 613 622
f 613 623 622
f 613 614 623
f 614 624 623
f 614 605 624
f 605 615 624
f 625 626 635
f 626 636 635
f 626 627 636
f 627 637 636
f 627 628 637
f 628 638 637
f 628 629 638
f 629 639 638
f 629 630 639
f 630 640 639
f 630 631 640
f 631 641 640
f 631 632 641
f 632 642 641
f 632 633 642
f 633 643 642
f 633 634 643
f 634 644 643
f 634 625 644
f 625 635 644
f 645 646 655
f 646 656 655
f 646 647 656
f 647 657 656
f 647 648 657
f 648 658 657
f 648 649 658
f 649 659 658
f 649 650 659
f 650 660 659
f 650 651 660
f 651 661 660
f 651 652 661
f 652 662 661
f 652 653 662
f 653 663 662
f 653 654 663
f 654 664 663
f 654 645 664
f 645 655 664
f 665 666 675
f 666 676 675
f 666 667 676
f 667 677 676
f 667 668 677
f 668 678 677
f 668 669 678
f 669 679 678
f 669 670 679
f 670 680 679
f 670 671 680
f 671 681 680
f 671 672 681
f 672 682 681
f 672 673 682
f 673 683 682
f 673 674 683
f 674 684 683
f 674 665 684
f 665 675 684
f 685 686 695
f 686 696 695
f 686 687 696
f 687 697 696
f 687 688 697
f 688 698 697
f 688 689 698
f 689 699 698
f 689 690 699
f 690 700 699
f 690 691 700
f 691 701 700
f 691 692 701
f 692 702 701
f 692 693 702
f 693 703 702
f 693 694 703
f 694 704 703
f 694 685 704
f 685 695 704
f 705 706 715
f 706 716 715
f 706 707 716
f 707 717 716
f 707 708 717
f 708 718 717
f 708 709 718
f 709 719 718
f 709 710 719
f 710 720 719
f 710 711 720
f 711 721 720
f 711 712 721
f 712 722 721
f 712 713 722
f 713 723 722
f 713 714 723
f 714 724 723
f 714 705 724
f 705 715 724
f 725 726 735
f 726 736 735
f 726 727 736
f 727 737 736
f 727 728 737
f 728 738 737
f 728 729 738
f 729 739 738
f 729 730 739
f 730 740 739
f 730 731 740
f 731 741 740
f 731 732 741
f 732 742 741
f 732 733 742
f 733 743 742
f 733 734 743
f 734 744 743
f 734 725 744
f 725 735 744
f 745 746 755
f 746 756 755
f 746 747 756
f 747 757 756
f 747 748 757
f 748 758 757
f 748 749 758
f 749 759 758
f 749 750 759
f 750 760 759
f 750 751 760
f 751 761 760
f 751 752 761
f 752 762 761
f 752 753 762
f 753 763 762
f 753 754 763
f 754 764 763
f 754 745 764
f 745 755 764
f 765 766 775
f 766 776 775
f 766 767 776
f 767 777 776
f 767 768 777
f 768 778 777
f 768 769 778
f 769 779 778
f 769 770 779
f 770 780 779
f 770 771 780
f 771 781 780
f 771 772 781
f 772 782 781
f 772 773 782
f 773 783 782
f 773 774 783
f 774 784 783
f 774 765 784
f 765 775 784
