# Full-Body 3D Mesh - Frame 129
v 0.000468 -0.622310 -0.109212
v 0.034276 -0.622310 -0.114073
v 0.065345 -0.622310 -0.128261
v 0.091158 -0.622310 -0.150629
v 0.109623 -0.622310 -0.179362
v 0.119246 -0.622310 -0.212134
v 0.119246 -0.622310 -0.246290
v 0.109623 -0.622310 -0.279062
v 0.091158 -0.622310 -0.307795
v 0.065345 -0.622310 -0.330162
v 0.034276 -0.622310 -0.344351
v 0.000468 -0.622310 -0.349212
v 0.000468 -0.622310 -0.109212
v 0.028909 -0.604032 -0.114073
v 0.055046 -0.587235 -0.128261
v 0.076761 -0.573279 -0.150629
v 0.092295 -0.563296 -0.179362
v 0.100391 -0.558094 -0.212134
v 0.100391 -0.558094 -0.246290
v 0.092295 -0.563296 -0.279062
v 0.076761 -0.573279 -0.307795
v 0.055046 -0.587235 -0.330162
v 0.028909 -0.604032 -0.344351
v 0.000468 -0.622310 -0.349212
v 0.000468 -0.622310 -0.109212
v 0.014512 -0.591557 -0.114073
v 0.027418 -0.563296 -0.128261
v 0.038142 -0.539816 -0.150629
v 0.045813 -0.523018 -0.179362
v 0.049810 -0.514265 -0.212134
v 0.049810 -0.514265 -0.246290
v 0.045813 -0.523018 -0.279062
v 0.038142 -0.539816 -0.307795
v 0.027418 -0.563296 -0.330162
v 0.014512 -0.591557 -0.344351
v 0.000468 -0.622310 -0.349212
v 0.000468 -0.622310 -0.109212
v -0.004344 -0.588846 -0.114073
v -0.008765 -0.558094 -0.128261
v -0.012439 -0.532543 -0.150629
v -0.015067 -0.514265 -0.179362
v -0.016436 -0.504741 -0.212134
v -0.016436 -0.504741 -0.246290
v -0.015067 -0.514265 -0.279062
v -0.012439 -0.532543 -0.307795
v -0.008765 -0.558094 -0.330162
v -0.004344 -0.588846 -0.344351
v 0.000468 -0.622310 -0.349212
v 0.000468 -0.622310 -0.109212
v -0.021672 -0.596760 -0.114073
v -0.042018 -0.573279 -0.128261
v -0.058922 -0.553771 -0.150629
v -0.071014 -0.539816 -0.179362
v -0.077316 -0.532543 -0.212134
v -0.077316 -0.532543 -0.246290
v -0.071014 -0.539816 -0.279062
v -0.058922 -0.553771 -0.307795
v -0.042018 -0.573279 -0.330162
v -0.021672 -0.596760 -0.344351
v 0.000468 -0.622310 -0.349212
v 0.000468 -0.622310 -0.109212
v -0.031971 -0.612785 -0.114073
v -0.061781 -0.604032 -0.128261
v -0.086549 -0.596760 -0.150629
v -0.104267 -0.591557 -0.179362
v -0.113500 -0.588846 -0.212134
v -0.113500 -0.588846 -0.246290
v -0.104267 -0.591557 -0.279062
v -0.086549 -0.596760 -0.307795
v -0.061781 -0.604032 -0.330162
v -0.031971 -0.612785 -0.344351
v 0.000468 -0.622310 -0.349212
v 0.000468 -0.622310 -0.109212
v -0.031971 -0.631835 -0.114073
v -0.061781 -0.640588 -0.128261
v -0.086549 -0.647860 -0.150629
v -0.104267 -0.653063 -0.179362
v -0.113500 -0.655774 -0.212134
v -0.113500 -0.655774 -0.246290
v -0.104267 -0.653063 -0.279062
v -0.086549 -0.647860 -0.307795
v -0.061781 -0.640588 -0.330162
v -0.031971 -0.631835 -0.344351
v 0.000468 -0.622310 -0.349212
v 0.000468 -0.622310 -0.109212
v -0.021672 -0.647860 -0.114073
v -0.042018 -0.671341 -0.128261
v -0.058922 -0.690849 -0.150629
v -0.071014 -0.704805 -0.179362
v -0.077316 -0.712077 -0.212134
v -0.077316 -0.712077 -0.246290
v -0.071014 -0.704805 -0.279062
v -0.058922 -0.690849 -0.307795
v -0.042018 -0.671341 -0.330162
v -0.021672 -0.647860 -0.344351
v 0.000468 -0.622310 -0.349212
v 0.000468 -0.622310 -0.109212
v -0.004344 -0.655774 -0.114073
v -0.008765 -0.686527 -0.128261
v -0.012439 -0.712077 -0.150629
v -0.015067 -0.730355 -0.179362
v -0.016436 -0.739880 -0.212134
v -0.016436 -0.739880 -0.246290
v -0.015067 -0.730355 -0.279062
v -0.012439 -0.712077 -0.307795
v -0.008765 -0.686527 -0.330162
v -0.004344 -0.655774 -0.344351
v 0.000468 -0.622310 -0.349212
v 0.000468 -0.622310 -0.109212
v 0.014512 -0.653063 -0.114073
v 0.027418 -0.681324 -0.128261
v 0.038142 -0.704805 -0.150629
v 0.045813 -0.721602 -0.179362
v 0.049810 -0.730355 -0.212134
v 0.049810 -0.730355 -0.246290
v 0.045813 -0.721602 -0.279062
v 0.038142 -0.704805 -0.307795
v 0.027418 -0.681324 -0.330162
v 0.014512 -0.653063 -0.344351
v 0.000468 -0.622310 -0.349212
v 0.000468 -0.622310 -0.109212
v 0.028909 -0.640588 -0.114073
v 0.055046 -0.657385 -0.128261
v 0.076761 -0.671341 -0.150629
v 0.092295 -0.681324 -0.179362
v 0.100391 -0.686527 -0.212134
v 0.100391 -0.686527 -0.246290
v 0.092295 -0.681324 -0.279062
v 0.076761 -0.671341 -0.307795
v 0.055046 -0.657385 -0.330162
v 0.028909 -0.640588 -0.344351
v 0.000468 -0.622310 -0.349212
v 0.000468 -0.622310 -0.109212
v 0.034276 -0.622310 -0.114073
v 0.065345 -0.622310 -0.128261
v 0.091158 -0.622310 -0.150629
v 0.109623 -0.622310 -0.179362
v 0.119246 -0.622310 -0.212134
v 0.119246 -0.622310 -0.246290
v 0.109623 -0.622310 -0.279062
v 0.091158 -0.622310 -0.307795
v 0.065345 -0.622310 -0.330162
v 0.034276 -0.622310 -0.344351
v 0.000468 -0.622310 -0.349212
v 0.166663 -0.430337 -0.114275
v 0.167681 -0.453837 -0.106668
v 0.168867 -0.468361 -0.086698
v 0.169769 -0.468361 -0.061993
v 0.170042 -0.453837 -0.041990
v 0.169582 -0.430337 -0.034329
v 0.168564 -0.406838 -0.041936
v 0.167378 -0.392314 -0.061906
v 0.166476 -0.392314 -0.086611
v 0.166203 -0.406838 -0.106614
v -0.181870 -0.441310 -0.101551
v -0.180853 -0.464810 -0.093944
v -0.179666 -0.479334 -0.073974
v -0.178765 -0.479334 -0.049269
v -0.178492 -0.464810 -0.029266
v -0.178952 -0.441310 -0.021605
v -0.179969 -0.417810 -0.029212
v -0.181156 -0.403287 -0.049182
v -0.182057 -0.403287 -0.073887
v -0.182331 -0.417810 -0.093890
v 0.168123 -0.439831 -0.113159
v 0.145496 -0.431812 -0.107254
v 0.131512 -0.423230 -0.088763
v 0.131512 -0.417362 -0.064748
v 0.145496 -0.416451 -0.044382
v 0.168123 -0.420844 -0.035445
v 0.190749 -0.428863 -0.041350
v 0.204734 -0.437445 -0.059841
v 0.204734 -0.443312 -0.083856
v 0.190749 -0.444224 -0.104222
v 0.236077 -0.206026 -0.170282
v 0.213451 -0.198007 -0.164377
v 0.199466 -0.189424 -0.145886
v 0.199466 -0.183557 -0.121871
v 0.213451 -0.182646 -0.101505
v 0.236077 -0.187039 -0.092568
v 0.258704 -0.195058 -0.098473
v 0.272688 -0.203640 -0.116964
v 0.272688 -0.209507 -0.140979
v 0.258704 -0.210419 -0.161345
v 0.236077 -0.211842 -0.168379
v 0.212569 -0.209284 -0.161170
v 0.198041 -0.201854 -0.142600
v 0.198041 -0.192392 -0.119761
v 0.212569 -0.184511 -0.101377
v 0.236077 -0.181222 -0.094471
v 0.259585 -0.183781 -0.101680
v 0.274114 -0.191210 -0.120251
v 0.274114 -0.200672 -0.143089
v 0.259585 -0.208553 -0.161473
v 0.232664 -0.024377 -0.246047
v 0.209156 -0.021818 -0.238838
v 0.194627 -0.014389 -0.220268
v 0.194627 -0.004927 -0.197429
v 0.209156 0.002954 -0.179046
v 0.232664 0.006243 -0.172139
v 0.256172 0.003685 -0.179348
v 0.270701 -0.003745 -0.197919
v 0.270701 -0.013207 -0.220758
v 0.256172 -0.021088 -0.239141
v -0.180411 -0.466059 -0.093003
v -0.199390 -0.472235 -0.078415
v -0.211120 -0.466598 -0.057396
v -0.211120 -0.451303 -0.037975
v -0.199390 -0.432190 -0.027569
v -0.180411 -0.416562 -0.030154
v -0.161432 -0.410386 -0.044741
v -0.149702 -0.416022 -0.065760
v -0.149702 -0.431318 -0.085181
v -0.161432 -0.450430 -0.095587
v -0.350539 -0.283269 -0.236960
v -0.369518 -0.289445 -0.222373
v -0.381248 -0.283808 -0.201354
v -0.381248 -0.268513 -0.181933
v -0.369518 -0.249401 -0.171527
v -0.350539 -0.233772 -0.174111
v -0.331560 -0.227596 -0.188699
v -0.319830 -0.233233 -0.209718
v -0.319830 -0.248528 -0.229139
v -0.331560 -0.267640 -0.239545
v -0.350539 -0.295662 -0.190686
v -0.369901 -0.293520 -0.205906
v -0.381867 -0.278010 -0.220986
v -0.381867 -0.255055 -0.230164
v -0.369901 -0.233424 -0.229935
v -0.350539 -0.221379 -0.220386
v -0.331177 -0.223521 -0.205166
v -0.319210 -0.239031 -0.190086
v -0.319210 -0.261986 -0.180908
v -0.331177 -0.283617 -0.181137
v -0.203850 -0.374719 -0.388410
v -0.223212 -0.372578 -0.403631
v -0.235179 -0.357067 -0.418710
v -0.235179 -0.334113 -0.427888
v -0.223212 -0.312482 -0.427659
v -0.203850 -0.300437 -0.418111
v -0.184488 -0.302578 -0.402890
v -0.172522 -0.318089 -0.387811
v -0.172522 -0.341043 -0.378633
v -0.184488 -0.362674 -0.378862
v 0.168123 -0.424287 -0.113842
v 0.144716 -0.427632 -0.106625
v 0.130249 -0.432010 -0.087063
v 0.130249 -0.435750 -0.062626
v 0.144716 -0.437422 -0.042649
v 0.168123 -0.436388 -0.034762
v 0.191529 -0.433043 -0.041979
v 0.205996 -0.428664 -0.061542
v 0.205996 -0.424925 -0.085978
v 0.191529 -0.423253 -0.105955
v 0.125941 0.016346 -0.046416
v 0.102534 0.013001 -0.039199
v 0.088068 0.008622 -0.019637
v 0.088068 0.004883 0.004800
v 0.102534 0.003211 0.024777
v 0.125941 0.004245 0.032664
v 0.149348 0.007590 0.025447
v 0.163814 0.011968 0.005884
v 0.163814 0.015707 -0.018552
v 0.149348 0.017379 -0.038529
v -0.180411 -0.434718 -0.101031
v -0.203723 -0.432963 -0.092993
v -0.218131 -0.434397 -0.072955
v -0.218131 -0.438471 -0.048572
v -0.203723 -0.443630 -0.029156
v -0.180411 -0.447903 -0.022125
v -0.157099 -0.449657 -0.030164
v -0.142691 -0.448224 -0.050201
v -0.142691 -0.444149 -0.074585
v -0.157099 -0.438990 -0.094000
v -0.124939 -0.017272 -0.031276
v -0.148251 -0.015518 -0.023238
v -0.162659 -0.016951 -0.003200
v -0.162659 -0.021026 0.021183
v -0.148251 -0.026185 0.040599
v -0.124939 -0.030457 0.047630
v -0.101627 -0.032212 0.039591
v -0.087219 -0.030778 0.019554
v -0.087219 -0.026704 -0.004830
v -0.101627 -0.021545 -0.024245
v 0.123545 0.010295 -0.046804
v 0.127164 -0.013002 -0.039368
v 0.130315 -0.027401 -0.019521
v 0.131796 -0.027401 0.005156
v 0.131040 -0.013002 0.025237
v 0.128337 0.010295 0.033052
v 0.124719 0.033592 0.025616
v 0.121567 0.047991 0.005769
v 0.120087 0.047991 -0.018908
v 0.120842 0.033592 -0.038989
v -0.127335 -0.023865 -0.031751
v -0.123716 -0.047162 -0.024315
v -0.120565 -0.061560 -0.004468
v -0.119084 -0.061560 0.020209
v -0.119840 -0.047162 0.040290
v -0.122543 -0.023865 0.048105
v -0.126161 -0.000568 0.040669
v -0.129313 0.013831 0.020822
v -0.130793 0.013831 -0.003855
v -0.130038 -0.000568 -0.023936
v 0.125941 -0.010547 -0.041017
v 0.102716 -0.003444 -0.036403
v 0.088362 0.008907 -0.020511
v 0.088362 0.021788 0.000590
v 0.102716 0.030279 0.018839
v 0.125941 0.031137 0.027265
v 0.149166 0.024034 0.022651
v 0.163520 0.011683 0.006758
v 0.163520 -0.001198 -0.014342
v 0.149166 -0.009689 -0.032591
v 0.145537 0.095636 -0.105837
v 0.122312 0.102739 -0.101223
v 0.107958 0.115089 -0.085330
v 0.107958 0.127970 -0.064230
v 0.122312 0.136461 -0.045981
v 0.145537 0.137319 -0.037554
v 0.168762 0.130216 -0.042169
v 0.183116 0.117866 -0.058061
v 0.183116 0.104985 -0.079162
v 0.168762 0.096494 -0.097410
v 0.145537 0.140244 -0.103870
v 0.122196 0.137980 -0.096044
v 0.107771 0.127503 -0.078919
v 0.107771 0.112814 -0.059034
v 0.122196 0.099525 -0.043986
v 0.145537 0.092711 -0.039522
v 0.168878 0.094975 -0.047347
v 0.183303 0.105452 -0.064472
v 0.183303 0.120141 -0.084357
v 0.168878 0.133430 -0.099405
v 0.189524 0.432219 0.111808
v 0.166183 0.429955 0.119633
v 0.151758 0.419478 0.136759
v 0.151758 0.404790 0.156643
v 0.166183 0.391501 0.171692
v 0.189524 0.384687 0.176156
v 0.212864 0.386951 0.168331
v 0.227290 0.397428 0.151205
v 0.227290 0.412116 0.131321
v 0.212864 0.425405 0.116272
v -0.124939 -0.062439 0.018763
v -0.148373 -0.055577 0.014898
v -0.162855 -0.036603 0.008467
v -0.162855 -0.012763 0.001925
v -0.148373 0.006837 -0.002229
v -0.124939 0.014709 -0.002409
v -0.101505 0.007848 0.001455
v -0.087022 -0.011127 0.007887
v -0.087022 -0.034967 0.014429
v -0.101505 -0.054566 0.018583
v -0.107718 -0.118338 -0.184936
v -0.131152 -0.111477 -0.188800
v -0.145635 -0.092503 -0.195232
v -0.145635 -0.068663 -0.201774
v -0.131152 -0.049063 -0.205928
v -0.107718 -0.041191 -0.206107
v -0.084284 -0.048052 -0.202243
v -0.069802 -0.067027 -0.195812
v -0.069802 -0.090866 -0.189270
v -0.084284 -0.110466 -0.185116
v -0.107718 -0.087712 -0.234724
v -0.131092 -0.083710 -0.227741
v -0.145539 -0.078201 -0.208451
v -0.145539 -0.073289 -0.184222
v -0.131092 -0.070851 -0.164310
v -0.107718 -0.071817 -0.156319
v -0.084344 -0.075820 -0.163303
v -0.069898 -0.081329 -0.182593
v -0.069898 -0.086240 -0.206821
v -0.084344 -0.088678 -0.226734
v -0.073526 0.221281 -0.297363
v -0.096901 0.225283 -0.290380
v -0.111347 0.230792 -0.271090
v -0.111347 0.235704 -0.246861
v -0.096901 0.238142 -0.226949
v -0.073526 0.237175 -0.218958
v -0.050152 0.233173 -0.225942
v -0.035706 0.227664 -0.245232
v -0.035706 0.222752 -0.269460
v -0.050152 0.220314 -0.289373
v -0.072732 0.022327 0.065243
v -0.080291 0.018740 0.061250
v -0.084962 0.018084 0.053270
v -0.084962 0.020608 0.044350
v -0.080291 0.025350 0.037897
v -0.072732 0.030497 0.036377
v -0.065173 0.034084 0.040369
v -0.060501 0.034740 0.048349
v -0.060501 0.032216 0.057270
v -0.065173 0.027474 0.063722
v -0.053569 -0.008383 0.056551
v -0.061128 -0.011969 0.052559
v -0.065800 -0.012626 0.044578
v -0.065800 -0.010101 0.035658
v -0.061128 -0.005360 0.029206
v -0.053569 -0.000213 0.027685
v -0.046010 0.003374 0.031677
v -0.041338 0.004030 0.039658
v -0.041338 0.001506 0.048578
v -0.046010 -0.003236 0.055031
v -0.053569 -0.007270 0.056821
v -0.059657 -0.012954 0.052749
v -0.063419 -0.015331 0.044616
v -0.063419 -0.013494 0.035530
v -0.059657 -0.008144 0.028960
v -0.053569 -0.001325 0.027416
v -0.047481 0.004359 0.031487
v -0.043719 0.006736 0.039620
v -0.043719 0.004899 0.048706
v -0.047481 -0.000451 0.055277
v -0.032525 -0.026958 0.052840
v -0.038613 -0.032642 0.048768
v -0.042375 -0.035019 0.040636
v -0.042375 -0.033182 0.031549
v -0.038613 -0.027832 0.024979
v -0.032525 -0.021013 0.023435
v -0.026437 -0.015329 0.027507
v -0.022675 -0.012952 0.035639
v -0.022675 -0.014789 0.044726
v -0.026437 -0.020139 0.051296
v -0.032525 -0.034242 0.049083
v -0.039015 -0.036638 0.042912
v -0.043026 -0.034201 0.034917
v -0.043026 -0.027862 0.028152
v -0.039015 -0.020043 0.025202
v -0.032525 -0.013729 0.027192
v -0.026035 -0.011333 0.033364
v -0.022024 -0.013770 0.041358
v -0.022024 -0.020109 0.048123
v -0.026035 -0.027928 0.051073
v -0.013140 -0.049623 0.034670
v -0.019630 -0.052019 0.028498
v -0.023641 -0.049582 0.020504
v -0.023641 -0.043243 0.013739
v -0.019630 -0.035424 0.010789
v -0.013140 -0.029110 0.012779
v -0.006651 -0.026714 0.018950
v -0.002640 -0.029151 0.026945
v -0.002640 -0.035490 0.033710
v -0.006651 -0.043309 0.036660
v -0.013140 -0.049416 0.034860
v -0.020645 -0.050933 0.029633
v -0.025283 -0.048032 0.022148
v -0.025283 -0.041821 0.015266
v -0.020645 -0.034673 0.011614
v -0.013140 -0.029317 0.012588
v -0.005636 -0.027800 0.017816
v -0.000998 -0.030701 0.025300
v -0.000998 -0.036912 0.032183
v -0.005636 -0.044060 0.035834
v 0.001328 -0.066832 0.019144
v -0.006176 -0.068349 0.013917
v -0.010814 -0.065448 0.006432
v -0.010814 -0.059237 -0.000450
v -0.006176 -0.052088 -0.004102
v 0.001328 -0.046733 -0.003128
v 0.008832 -0.045216 0.002100
v 0.013470 -0.048117 0.009584
v 0.013470 -0.054328 0.016467
v 0.008832 -0.061476 0.020118
v -0.072732 0.016212 0.061808
v -0.079054 0.013655 0.055530
v -0.082962 0.015970 0.047448
v -0.082962 0.022273 0.040650
v -0.079054 0.030158 0.037733
v -0.072732 0.036611 0.039811
v -0.066409 0.039169 0.046090
v -0.062501 0.036854 0.054171
v -0.062501 0.030551 0.060969
v -0.066409 0.022666 0.063886
v -0.004547 -0.035231 0.014103
v -0.010869 -0.037789 0.007824
v -0.014777 -0.035474 -0.000257
v -0.014777 -0.029170 -0.007055
v -0.010869 -0.021286 -0.009972
v -0.004547 -0.014832 -0.007894
v 0.001776 -0.012274 -0.001615
v 0.005684 -0.014589 0.006466
v 0.005684 -0.020893 0.013264
v 0.001776 -0.028777 0.016181
v -0.002311 -0.025031 0.017937
v -0.003148 -0.033838 0.015166
v -0.004519 -0.039281 0.007788
v -0.005901 -0.039281 -0.001379
v -0.006765 -0.033838 -0.008833
v -0.006782 -0.025031 -0.011728
v -0.005945 -0.016224 -0.008957
v -0.004574 -0.010781 -0.001579
v -0.003192 -0.010781 0.007588
v -0.002328 -0.016224 0.015043
v 0.025713 -0.026366 0.013714
v 0.024876 -0.035173 0.010943
v 0.023505 -0.040616 0.003565
v 0.022123 -0.040616 -0.005602
v 0.021259 -0.035173 -0.013057
v 0.021242 -0.026366 -0.015951
v 0.022079 -0.017559 -0.013181
v 0.023450 -0.012116 -0.005802
v 0.024832 -0.012116 0.003365
v 0.025696 -0.017559 0.010819
v 0.018508 -0.026366 0.013034
v 0.017284 -0.034877 0.009568
v 0.018427 -0.040137 0.002020
v 0.021498 -0.040137 -0.006727
v 0.025326 -0.034877 -0.013332
v 0.028448 -0.026366 -0.015272
v 0.029671 -0.017855 -0.011806
v 0.028529 -0.012595 -0.004258
v 0.025457 -0.012595 0.004489
v 0.021630 -0.017855 0.011094
v 0.039476 -0.032379 0.020397
v 0.038252 -0.040890 0.016931
v 0.039394 -0.046149 0.009383
v 0.042466 -0.046149 0.000636
v 0.046294 -0.040890 -0.005969
v 0.049415 -0.032379 -0.007909
v 0.050639 -0.023868 -0.004443
v 0.049497 -0.018608 0.003105
v 0.046425 -0.018608 0.011852
v 0.042598 -0.023868 0.018457
v 0.044446 -0.021694 0.016771
v 0.040544 -0.029283 0.020393
v 0.038133 -0.038056 0.018610
v 0.038133 -0.044659 0.012104
v 0.040544 -0.046572 0.003360
v 0.044446 -0.043064 -0.004283
v 0.048347 -0.035474 -0.007905
v 0.050758 -0.026702 -0.006122
v 0.050758 -0.020098 0.000384
v 0.048347 -0.018185 0.009128
v 0.062668 -0.028004 0.023176
v 0.058767 -0.035593 0.026798
v 0.056356 -0.044366 0.025015
v 0.056356 -0.050970 0.018509
v 0.058767 -0.052883 0.009764
v 0.062668 -0.049374 0.002121
v 0.066569 -0.041784 -0.001500
v 0.068980 -0.033012 0.000282
v 0.068980 -0.026408 0.006789
v 0.066569 -0.024495 0.015533
v -0.072732 0.013543 0.058517
v -0.078339 0.012505 0.051207
v -0.081804 0.016779 0.043746
v -0.081804 0.024732 0.038983
v -0.078339 0.033327 0.038737
v -0.072732 0.039281 0.043103
v -0.067125 0.040319 0.050412
v -0.063660 0.036045 0.057873
v -0.063660 0.028092 0.062636
v -0.067125 0.019497 0.062882
v 0.000865 -0.017616 0.006488
v -0.004741 -0.018655 -0.000821
v -0.008207 -0.014381 -0.008283
v -0.008207 -0.006428 -0.013046
v -0.004741 0.002167 -0.013291
v 0.000865 0.008121 -0.008926
v 0.006472 0.009159 -0.001617
v 0.009938 0.004886 0.005845
v 0.009938 -0.003068 0.010608
v 0.006472 -0.011663 0.010854
v 0.002366 -0.004748 0.013706
v 0.000104 -0.013338 0.011054
v -0.001868 -0.018647 0.003715
v -0.002796 -0.018647 -0.005509
v -0.002325 -0.013338 -0.013095
v -0.000635 -0.004748 -0.016144
v 0.001627 0.003842 -0.013492
v 0.003599 0.009151 -0.006152
v 0.004527 0.009151 0.003072
v 0.004056 0.003842 0.010657
v 0.036429 -0.012663 0.010280
v 0.034167 -0.021253 0.007629
v 0.032195 -0.026562 0.000289
v 0.031267 -0.026562 -0.008935
v 0.031738 -0.021253 -0.016520
v 0.033428 -0.012663 -0.019569
v 0.035691 -0.004073 -0.016917
v 0.037662 0.001236 -0.009578
v 0.038590 0.001236 -0.000354
v 0.038119 -0.004073 0.007231
v 0.032652 -0.012663 0.010182
v 0.030446 -0.021065 0.006945
v 0.029953 -0.026259 -0.000719
v 0.031361 -0.026259 -0.009882
v 0.034131 -0.021065 -0.017044
v 0.037206 -0.012663 -0.019470
v 0.039411 -0.004261 -0.016233
v 0.039904 0.000933 -0.008570
v 0.038497 0.000933 0.000593
v 0.035726 -0.004261 0.007756
v 0.055210 -0.019918 0.013647
v 0.053005 -0.028320 0.010410
v 0.052512 -0.033513 0.002746
v 0.053919 -0.033513 -0.006417
v 0.056689 -0.028320 -0.013580
v 0.059764 -0.019918 -0.016006
v 0.061969 -0.011515 -0.012769
v 0.062462 -0.006322 -0.005105
v 0.061055 -0.006322 0.004058
v 0.058285 -0.011515 0.011220
v 0.057487 -0.007176 0.006736
v 0.052065 -0.013279 0.011130
v 0.048715 -0.021917 0.010823
v 0.048715 -0.029792 0.005930
v 0.052065 -0.033895 -0.001677
v 0.057487 -0.032659 -0.009095
v 0.062908 -0.026557 -0.013490
v 0.066259 -0.017918 -0.013182
v 0.066259 -0.010044 -0.008290
v 0.062908 -0.005941 -0.000682
v 0.082994 -0.017672 0.023630
v 0.077572 -0.023774 0.028024
v 0.074221 -0.032412 0.027716
v 0.074221 -0.040287 0.022824
v 0.077572 -0.044390 0.015216
v 0.082994 -0.043154 0.007799
v 0.088415 -0.037052 0.003404
v 0.091766 -0.028414 0.003712
v 0.091766 -0.020539 0.008604
v 0.088415 -0.016436 0.016212
v -0.072732 0.011709 0.053778
v -0.077863 0.013098 0.046183
v -0.081034 0.019573 0.040355
v -0.081034 0.028660 0.038521
v -0.077863 0.036888 0.041380
v -0.072732 0.041115 0.047841
v -0.067601 0.039726 0.055436
v -0.064430 0.033251 0.061264
v -0.064430 0.024164 0.063099
v -0.067601 0.015935 0.060239
v 0.004165 0.000819 -0.000163
v -0.000966 0.002208 -0.007758
v -0.004137 0.008683 -0.013585
v -0.004137 0.017770 -0.015420
v -0.000966 0.025999 -0.012560
v 0.004165 0.030226 -0.006099
v 0.009296 0.028837 0.001496
v 0.012467 0.022362 0.007324
v 0.012467 0.013275 0.009158
v 0.009296 0.005046 0.006299
v 0.005564 0.015523 0.011804
v 0.002506 0.007163 0.009213
v 0.000082 0.001997 0.001907
v -0.000783 0.001997 -0.007323
v 0.000242 0.007163 -0.014952
v 0.002766 0.015523 -0.018065
v 0.005823 0.023882 -0.015475
v 0.008248 0.029048 -0.008169
v 0.009112 0.029048 0.001061
v 0.008087 0.023882 0.008690
v 0.034727 0.005702 0.009072
v 0.031669 -0.002657 0.006481
v 0.029245 -0.007824 -0.000825
v 0.028380 -0.007824 -0.010055
v 0.029405 -0.002657 -0.017684
v 0.031928 0.005702 -0.020797
v 0.034986 0.014061 -0.018207
v 0.037410 0.019228 -0.010901
v 0.038275 0.019228 -0.001671
v 0.037250 0.014061 0.005958
v 0.030926 0.005702 0.008944
v 0.029010 -0.002780 0.005731
v 0.028743 -0.008022 -0.001911
v 0.030227 -0.008022 -0.011062
v 0.032896 -0.002780 -0.018227
v 0.035729 0.005702 -0.020669
v 0.037645 0.014184 -0.017456
v 0.037912 0.019427 -0.009815
v 0.036428 0.019427 -0.000664
v 0.033759 0.014184 0.006501
v 0.052648 -0.000539 0.012467
v 0.050732 -0.009021 0.009254
v 0.050465 -0.014264 0.001613
v 0.051949 -0.014264 -0.007538
v 0.054618 -0.009021 -0.014704
v 0.057451 -0.000539 -0.017146
v 0.059367 0.007943 -0.013933
v 0.059634 0.013185 -0.006292
v 0.058150 0.013185 0.002859
v 0.055481 0.007943 0.010024
v 0.055050 0.013481 0.002993
v 0.050118 0.008205 0.008806
v 0.047070 -0.000411 0.010361
v 0.047070 -0.009076 0.007065
v 0.050118 -0.014480 0.000177
v 0.055050 -0.014559 -0.007672
v 0.059981 -0.009283 -0.013485
v 0.063029 -0.000668 -0.015041
v 0.063029 0.007997 -0.011745
v 0.059981 0.013402 -0.004857
v 0.077113 0.008188 0.016908
v 0.072182 0.002912 0.022721
v 0.069134 -0.005703 0.024276
v 0.069134 -0.014368 0.020981
v 0.072182 -0.019773 0.014093
v 0.077113 -0.019852 0.006243
v 0.082045 -0.014576 0.000430
v 0.085093 -0.005960 -0.001125
v 0.085093 0.002705 0.002170
v 0.082045 0.008109 0.009059
v -0.072732 0.011492 0.049257
v -0.077428 0.015114 0.042132
v -0.080330 0.023051 0.038321
v -0.080330 0.032272 0.039280
v -0.077428 0.039254 0.044643
v -0.072732 0.041331 0.052362
v -0.068036 0.037710 0.059488
v -0.065134 0.029773 0.063299
v -0.065134 0.020552 0.062339
v -0.068036 0.013570 0.056976
v -0.001247 0.016148 0.004515
v -0.005943 0.019769 -0.002611
v -0.008845 0.027706 -0.006422
v -0.008845 0.036927 -0.005463
v -0.005943 0.043909 -0.000099
v -0.001247 0.045987 0.007619
v 0.003449 0.042365 0.014745
v 0.006351 0.034428 0.018556
v 0.006351 0.025207 0.017597
v 0.003449 0.018225 0.012233
v -0.001081 0.031067 0.021066
v -0.002602 0.022377 0.018218
v -0.003605 0.017006 0.010729
v -0.003707 0.017006 0.001459
v -0.002870 0.022377 -0.006051
v -0.001412 0.031067 -0.008932
v 0.000108 0.039757 -0.006084
v 0.001111 0.045128 0.001405
v 0.001214 0.045128 0.010675
v 0.000376 0.039757 0.018185
v 0.019229 0.027587 0.020842
v 0.017708 0.018897 0.017994
v 0.016705 0.013526 0.010504
v 0.016602 0.013526 0.001234
v 0.017440 0.018897 -0.006276
v 0.018897 0.027587 -0.009157
v 0.020418 0.036277 -0.006308
v 0.021421 0.041648 0.001181
v 0.021523 0.041648 0.010451
v 0.020686 0.036277 0.017961
v 0.017727 0.027587 0.020783
v 0.016827 0.018847 0.017826
v 0.016781 0.013445 0.010292
v 0.017607 0.013445 0.001059
v 0.018989 0.018847 -0.006348
v 0.020399 0.027587 -0.009098
v 0.021298 0.036327 -0.006141
v 0.021344 0.041729 0.001393
v 0.020518 0.041729 0.010626
v 0.019137 0.036327 0.018033
v 0.037032 0.025016 0.022509
v 0.036132 0.016276 0.019553
v 0.036087 0.010874 0.012019
v 0.036912 0.010874 0.002785
v 0.038294 0.016276 -0.004621
v 0.039704 0.025016 -0.007372
v 0.040604 0.033756 -0.004415
v 0.040649 0.039158 0.003119
v 0.039824 0.039158 0.012353
v 0.038442 0.033756 0.019759
v 0.036191 0.025016 0.022410
v 0.035086 0.016334 0.019353
v 0.035235 0.010968 0.011794
v 0.036580 0.010968 0.002622
v 0.038608 0.016334 -0.004661
v 0.040545 0.025016 -0.007272
v 0.041650 0.033698 -0.004215
v 0.041501 0.039063 0.003344
v 0.040156 0.039063 0.012516
v 0.038128 0.033698 0.019799
v 0.051700 0.022240 0.024685
v 0.050595 0.013559 0.021627
v 0.050744 0.008193 0.014069
v 0.052089 0.008193 0.004897
v 0.054118 0.013559 -0.002386
v 0.056054 0.022240 -0.004997
v 0.057159 0.030922 -0.001940
v 0.057011 0.036288 0.005618
v 0.055665 0.036288 0.014791
v 0.053637 0.030922 0.022074
f 1 2 13
f 2 14 13
f 2 3 14
f 3 15 14
f 3 4 15
f 4 16 15
f 4 5 16
f 5 17 16
f 5 6 17
f 6 18 17
f 6 7 18
f 7 19 18
f 7 8 19
f 8 20 19
f 8 9 20
f 9 21 20
f 9 10 21
f 10 22 21
f 10 11 22
f 11 23 22
f 11 12 23
f 12 24 23
f 13 14 25
f 14 26 25
f 14 15 26
f 15 27 26
f 15 16 27
f 16 28 27
f 16 17 28
f 17 29 28
f 17 18 29
f 18 30 29
f 18 19 30
f 19 31 30
f 19 20 31
f 20 32 31
f 20 21 32
f 21 33 32
f 21 22 33
f 22 34 33
f 22 23 34
f 23 35 34
f 23 24 35
f 24 36 35
f 25 26 37
f 26 38 37
f 26 27 38
f 27 39 38
f 27 28 39
f 28 40 39
f 28 29 40
f 29 41 40
f 29 30 41
f 30 42 41
f 30 31 42
f 31 43 42
f 31 32 43
f 32 44 43
f 32 33 44
f 33 45 44
f 33 34 45
f 34 46 45
f 34 35 46
f 35 47 46
f 35 36 47
f 36 48 47
f 37 38 49
f 38 50 49
f 38 39 50
f 39 51 50
f 39 40 51
f 40 52 51
f 40 41 52
f 41 53 52
f 41 42 53
f 42 54 53
f 42 43 54
f 43 55 54
f 43 44 55
f 44 56 55
f 44 45 56
f 45 57 56
f 45 46 57
f 46 58 57
f 46 47 58
f 47 59 58
f 47 48 59
f 48 60 59
f 49 50 61
f 50 62 61
f 50 51 62
f 51 63 62
f 51 52 63
f 52 64 63
f 52 53 64
f 53 65 64
f 53 54 65
f 54 66 65
f 54 55 66
f 55 67 66
f 55 56 67
f 56 68 67
f 56 57 68
f 57 69 68
f 57 58 69
f 58 70 69
f 58 59 70
f 59 71 70
f 59 60 71
f 60 72 71
f 61 62 73
f 62 74 73
f 62 63 74
f 63 75 74
f 63 64 75
f 64 76 75
f 64 65 76
f 65 77 76
f 65 66 77
f 66 78 77
f 66 67 78
f 67 79 78
f 67 68 79
f 68 80 79
f 68 69 80
f 69 81 80
f 69 70 81
f 70 82 81
f 70 71 82
f 71 83 82
f 71 72 83
f 72 84 83
f 73 74 85
f 74 86 85
f 74 75 86
f 75 87 86
f 75 76 87
f 76 88 87
f 76 77 88
f 77 89 88
f 77 78 89
f 78 90 89
f 78 79 90
f 79 91 90
f 79 80 91
f 80 92 91
f 80 81 92
f 81 93 92
f 81 82 93
f 82 94 93
f 82 83 94
f 83 95 94
f 83 84 95
f 84 96 95
f 85 86 97
f 86 98 97
f 86 87 98
f 87 99 98
f 87 88 99
f 88 100 99
f 88 89 100
f 89 101 100
f 89 90 101
f 90 102 101
f 90 91 102
f 91 103 102
f 91 92 103
f 92 104 103
f 92 93 104
f 93 105 104
f 93 94 105
f 94 106 105
f 94 95 106
f 95 107 106
f 95 96 107
f 96 108 107
f 97 98 109
f 98 110 109
f 98 99 110
f 99 111 110
f 99 100 111
f 100 112 111
f 100 101 112
f 101 113 112
f 101 102 113
f 102 114 113
f 102 103 114
f 103 115 114
f 103 104 115
f 104 116 115
f 104 105 116
f 105 117 116
f 105 106 117
f 106 118 117
f 106 107 118
f 107 119 118
f 107 108 119
f 108 120 119
f 109 110 121
f 110 122 121
f 110 111 122
f 111 123 122
f 111 112 123
f 112 124 123
f 112 113 124
f 113 125 124
f 113 114 125
f 114 126 125
f 114 115 126
f 115 127 126
f 115 116 127
f 116 128 127
f 116 117 128
f 117 129 128
f 117 118 129
f 118 130 129
f 118 119 130
f 119 131 130
f 119 120 131
f 120 132 131
f 121 122 133
f 122 134 133
f 122 123 134
f 123 135 134
f 123 124 135
f 124 136 135
f 124 125 136
f 125 137 136
f 125 126 137
f 126 138 137
f 126 127 138
f 127 139 138
f 127 128 139
f 128 140 139
f 128 129 140
f 129 141 140
f 129 130 141
f 130 142 141
f 130 131 142
f 131 143 142
f 131 132 143
f 132 144 143
f 145 146 155
f 146 156 155
f 146 147 156
f 147 157 156
f 147 148 157
f 148 158 157
f 148 149 158
f 149 159 158
f 149 150 159
f 150 160 159
f 150 151 160
f 151 161 160
f 151 152 161
f 152 162 161
f 152 153 162
f 153 163 162
f 153 154 163
f 154 164 163
f 154 145 164
f 145 155 164
f 165 166 175
f 166 176 175
f 166 167 176
f 167 177 176
f 167 168 177
f 168 178 177
f 168 169 178
f 169 179 178
f 169 170 179
f 170 180 179
f 170 171 180
f 171 181 180
f 171 172 181
f 172 182 181
f 172 173 182
f 173 183 182
f 173 174 183
f 174 184 183
f 174 165 184
f 165 175 184
f 185 186 195
f 186 196 195
f 186 187 196
f 187 197 196
f 187 188 197
f 188 198 197
f 188 189 198
f 189 199 198
f 189 190 199
f 190 200 199
f 190 191 200
f 191 201 200
f 191 192 201
f 192 202 201
f 192 193 202
f 193 203 202
f 193 194 203
f 194 204 203
f 194 185 204
f 185 195 204
f 205 206 215
f 206 216 215
f 206 207 216
f 207 217 216
f 207 208 217
f 208 218 217
f 208 209 218
f 209 219 218
f 209 210 219
f 210 220 219
f 210 211 220
f 211 221 220
f 211 212 221
f 212 222 221
f 212 213 222
f 213 223 222
f 213 214 223
f 214 224 223
f 214 205 224
f 205 215 224
f 225 226 235
f 226 236 235
f 226 227 236
f 227 237 236
f 227 228 237
f 228 238 237
f 228 229 238
f 229 239 238
f 229 230 239
f 230 240 239
f 230 231 240
f 231 241 240
f 231 232 241
f 232 242 241
f 232 233 242
f 233 243 242
f 233 234 243
f 234 244 243
f 234 225 244
f 225 235 244
f 245 246 255
f 246 256 255
f 246 247 256
f 247 257 256
f 247 248 257
f 248 258 257
f 248 249 258
f 249 259 258
f 249 250 259
f 250 260 259
f 250 251 260
f 251 261 260
f 251 252 261
f 252 262 261
f 252 253 262
f 253 263 262
f 253 254 263
f 254 264 263
f 254 245 264
f 245 255 264
f 265 266 275
f 266 276 275
f 266 267 276
f 267 277 276
f 267 268 277
f 268 278 277
f 268 269 278
f 269 279 278
f 269 270 279
f 270 280 279
f 270 271 280
f 271 281 280
f 271 272 281
f 272 282 281
f 272 273 282
f 273 283 282
f 273 274 283
f 274 284 283
f 274 265 284
f 265 275 284
f 285 286 295
f 286 296 295
f 286 287 296
f 287 297 296
f 287 288 297
f 288 298 297
f 288 289 298
f 289 299 298
f 289 290 299
f 290 300 299
f 290 291 300
f 291 301 300
f 291 292 301
f 292 302 301
f 292 293 302
f 293 303 302
f 293 294 303
f 294 304 303
f 294 285 304
f 285 295 304
f 305 306 315
f 306 316 315
f 306 307 316
f 307 317 316
f 307 308 317
f 308 318 317
f 308 309 318
f 309 319 318
f 309 310 319
f 310 320 319
f 310 311 320
f 311 321 320
f 311 312 321
f 312 322 321
f 312 313 322
f 313 323 322
f 313 314 323
f 314 324 323
f 314 305 324
f 305 315 324
f 325 326 335
f 326 336 335
f 326 327 336
f 327 337 336
f 327 328 337
f 328 338 337
f 328 329 338
f 329 339 338
f 329 330 339
f 330 340 339
f 330 331 340
f 331 341 340
f 331 332 341
f 332 342 341
f 332 333 342
f 333 343 342
f 333 334 343
f 334 344 343
f 334 325 344
f 325 335 344
f 345 346 355
f 346 356 355
f 346 347 356
f 347 357 356
f 347 348 357
f 348 358 357
f 348 349 358
f 349 359 358
f 349 350 359
f 350 360 359
f 350 351 360
f 351 361 360
f 351 352 361
f 352 362 361
f 352 353 362
f 353 363 362
f 353 354 363
f 354 364 363
f 354 345 364
f 345 355 364
f 365 366 375
f 366 376 375
f 366 367 376
f 367 377 376
f 367 368 377
f 368 378 377
f 368 369 378
f 369 379 378
f 369 370 379
f 370 380 379
f 370 371 380
f 371 381 380
f 371 372 381
f 372 382 381
f 372 373 382
f 373 383 382
f 373 374 383
f 374 384 383
f 374 365 384
f 365 375 384
f 385 386 395
f 386 396 395
f 386 387 396
f 387 397 396
f 387 388 397
f 388 398 397
f 388 389 398
f 389 399 398
f 389 390 399
f 390 400 399
f 390 391 400
f 391 401 400
f 391 392 401
f 392 402 401
f 392 393 402
f 393 403 402
f 393 394 403
f 394 404 403
f 394 385 404
f 385 395 404
f 405 406 415
f 406 416 415
f 406 407 416
f 407 417 416
f 407 408 417
f 408 418 417
f 408 409 418
f 409 419 418
f 409 410 419
f 410 420 419
f 410 411 420
f 411 421 420
f 411 412 421
f 412 422 421
f 412 413 422
f 413 423 422
f 413 414 423
f 414 424 423
f 414 405 424
f 405 415 424
f 425 426 435
f 426 436 435
f 426 427 436
f 427 437 436
f 427 428 437
f 428 438 437
f 428 429 438
f 429 439 438
f 429 430 439
f 430 440 439
f 430 431 440
f 431 441 440
f 431 432 441
f 432 442 441
f 432 433 442
f 433 443 442
f 433 434 443
f 434 444 443
f 434 425 444
f 425 435 444
f 445 446 455
f 446 456 455
f 446 447 456
f 447 457 456
f 447 448 457
f 448 458 457
f 448 449 458
f 449 459 458
f 449 450 459
f 450 460 459
f 450 451 460
f 451 461 460
f 451 452 461
f 452 462 461
f 452 453 462
f 453 463 462
f 453 454 463
f 454 464 463
f 454 445 464
f 445 455 464
f 465 466 475
f 466 476 475
f 466 467 476
f 467 477 476
f 467 468 477
f 468 478 477
f 468 469 478
f 469 479 478
f 469 470 479
f 470 480 479
f 470 471 480
f 471 481 480
f 471 472 481
f 472 482 481
f 472 473 482
f 473 483 482
f 473 474 483
f 474 484 483
f 474 465 484
f 465 475 484
f 485 486 495
f 486 496 495
f 486 487 496
f 487 497 496
f 487 488 497
f 488 498 497
f 488 489 498
f 489 499 498
f 489 490 499
f 490 500 499
f 490 491 500
f 491 501 500
f 491 492 501
f 492 502 501
f 492 493 502
f 493 503 502
f 493 494 503
f 494 504 503
f 494 485 504
f 485 495 504
f 505 506 515
f 506 516 515
f 506 507 516
f 507 517 516
f 507 508 517
f 508 518 517
f 508 509 518
f 509 519 518
f 509 510 519
f 510 520 519
f 510 511 520
f 511 521 520
f 511 512 521
f 512 522 521
f 512 513 522
f 513 523 522
f 513 514 523
f 514 524 523
f 514 505 524
f 505 515 524
f 525 526 535
f 526 536 535
f 526 527 536
f 527 537 536
f 527 528 537
f 528 538 537
f 528 529 538
f 529 539 538
f 529 530 539
f 530 540 539
f 530 531 540
f 531 541 540
f 531 532 541
f 532 542 541
f 532 533 542
f 533 543 542
f 533 534 543
f 534 544 543
f 534 525 544
f 525 535 544
f 545 546 555
f 546 556 555
f 546 547 556
f 547 557 556
f 547 548 557
f 548 558 557
f 548 549 558
f 549 559 558
f 549 550 559
f 550 560 559
f 550 551 560
f 551 561 560
f 551 552 561
f 552 562 561
f 552 553 562
f 553 563 562
f 553 554 563
f 554 564 563
f 554 545 564
f 545 555 564
f 565 566 575
f 566 576 575
f 566 567 576
f 567 577 576
f 567 568 577
f 568 578 577
f 568 569 578
f 569 579 578
f 569 570 579
f 570 580 579
f 570 571 580
f 571 581 580
f 571 572 581
f 572 582 581
f 572 573 582
f 573 583 582
f 573 574 583
f 574 584 583
f 574 565 584
f 565 575 584
f 585 586 595
f 586 596 595
f 586 587 596
f 587 597 596
f 587 588 597
f 588 598 597
f 588 589 598
f 589 599 598
f 589 590 599
f 590 600 599
f 590 591 600
f 591 601 600
f 591 592 601
f 592 602 601
f 592 593 602
f 593 603 602
f 593 594 603
f 594 604 603
f 594 585 604
f 585 595 604
f 605 606 615
f 606 616 615
f 606 607 616
f 607 617 616
f 607 608 617
f 608 618 617
f 608 609 618
f 609 619 618
f 609 610 619
f 610 620 619
f 610 611 620
f 611 621 620
f 611 612 621
f 612 622 621
f 612 613 622
f 613 623 622
f 613 614 623
f 614 624 623
f 614 605 624
f 605 615 624
f 625 626 635
f 626 636 635
f 626 627 636
f 627 637 636
f 627 628 637
f 628 638 637
f 628 629 638
f 629 639 638
f 629 630 639
f 630 640 639
f 630 631 640
f 631 641 640
f 631 632 641
f 632 642 641
f 632 633 642
f 633 643 642
f 633 634 643
f 634 644 643
f 634 625 644
f 625 635 644
f 645 646 655
f 646 656 655
f 646 647 656
f 647 657 656
f 647 648 657
f 648 658 657
f 648 649 658
f 649 659 658
f 649 650 659
f 650 660 659
f 650 651 660
f 651 661 660
f 651 652 661
f 652 662 661
f 652 653 662
f 653 663 662
f 653 654 663
f 654 664 663
f 654 645 664
f 645 655 664
f 665 666 675
f 666 676 675
f 666 667 676
f 667 677 676
f 667 668 677
f 668 678 677
f 668 669 678
f 669 679 678
f 669 670 679
f 670 680 679
f 670 671 680
f 671 681 680
f 671 672 681
f 672 682 681
f 672 673 682
f 673 683 682
f 673 674 683
f 674 684 683
f 674 665 684
f 665 675 684
f 685 686 695
f 686 696 695
f 686 687 696
f 687 697 696
f 687 688 697
f 688 698 697
f 688 689 698
f 689 699 698
f 689 690 699
f 690 700 699
f 690 691 700
f 691 701 700
f 691 692 701
f 692 702 701
f 692 693 702
f 693 703 702
f 693 694 703
f 694 704 703
f 694 685 704
f 685 695 704
f 705 706 715
f 706 716 715
f 706 707 716
f 707 717 716
f 707 708 717
f 708 718 717
f 708 709 718
f 709 719 718
f 709 710 719
f 710 720 719
f 710 711 720
f 711 721 720
f 711 712 721
f 712 722 721
f 712 713 722
f 713 723 722
f 713 714 723
f 714 724 723
f 714 705 724
f 705 715 724
f 725 726 735
f 726 736 735
f 726 727 736
f 727 737 736
f 727 728 737
f 728 738 737
f 728 729 738
f 729 739 738
f 729 730 739
f 730 740 739
f 730 731 740
f 731 741 740
f 731 732 741
f 732 742 741
f 732 733 742
f 733 743 742
f 733 734 743
f 734 744 743
f 734 725 744
f 725 735 744
f 745 746 755
f 746 756 755
f 746 747 756
f 747 757 756
f 747 748 757
f 748 758 757
f 748 749 758
f 749 759 758
f 749 750 759
f 750 760 759
f 750 751 760
f 751 761 760
f 751 752 761
f 752 762 761
f 752 753 762
f 753 763 762
f 753 754 763
f 754 764 763
f 754 745 764
f 745 755 764
f 765 766 775
f 766 776 775
f 766 767 776
f 767 777 776
f 767 768 777
f 768 778 777
f 768 769 778
f 769 779 778
f 769 770 779
f 770 780 779
f 770 771 780
f 771 781 780
f 771 772 781
f 772 782 781
f 772 773 782
f 773 783 782
f 773 774 783
f 774 784 783
f 774 765 784
f 765 775 784
