# Full-Body 3D Mesh - Frame 198
v 0.016250 -0.635374 -0.151164
v 0.050058 -0.635374 -0.156025
v 0.081127 -0.635374 -0.170213
v 0.106940 -0.635374 -0.192581
v 0.125406 -0.635374 -0.221314
v 0.135029 -0.635374 -0.254086
v 0.135029 -0.635374 -0.288242
v 0.125406 -0.635374 -0.321014
v 0.106940 -0.635374 -0.349747
v 0.081127 -0.635374 -0.372114
v 0.050058 -0.635374 -0.386303
v 0.016250 -0.635374 -0.391164
v 0.016250 -0.635374 -0.151164
v 0.044691 -0.617096 -0.156025
v 0.070828 -0.600299 -0.170213
v 0.092543 -0.586344 -0.192581
v 0.108078 -0.576360 -0.221314
v 0.116173 -0.571158 -0.254086
v 0.116173 -0.571158 -0.288242
v 0.108078 -0.576360 -0.321014
v 0.092543 -0.586344 -0.349747
v 0.070828 -0.600299 -0.372114
v 0.044691 -0.617096 -0.386303
v 0.016250 -0.635374 -0.391164
v 0.016250 -0.635374 -0.151164
v 0.030294 -0.604622 -0.156025
v 0.043201 -0.576360 -0.170213
v 0.053924 -0.552880 -0.192581
v 0.061595 -0.536083 -0.221314
v 0.065592 -0.527330 -0.254086
v 0.065592 -0.527330 -0.288242
v 0.061595 -0.536083 -0.321014
v 0.053924 -0.552880 -0.349747
v 0.043201 -0.576360 -0.372114
v 0.030294 -0.604622 -0.386303
v 0.016250 -0.635374 -0.391164
v 0.016250 -0.635374 -0.151164
v 0.011439 -0.601911 -0.156025
v 0.007017 -0.571158 -0.170213
v 0.003343 -0.545608 -0.192581
v 0.000716 -0.527330 -0.221314
v -0.000654 -0.517805 -0.254086
v -0.000654 -0.517805 -0.288242
v 0.000716 -0.527330 -0.321014
v 0.003343 -0.545608 -0.349747
v 0.007017 -0.571158 -0.372114
v 0.011439 -0.601911 -0.386303
v 0.016250 -0.635374 -0.391164
v 0.016250 -0.635374 -0.151164
v -0.005889 -0.609824 -0.156025
v -0.026235 -0.586344 -0.170213
v -0.043139 -0.566835 -0.192581
v -0.055232 -0.552880 -0.221314
v -0.061533 -0.545608 -0.254086
v -0.061533 -0.545608 -0.288242
v -0.055232 -0.552880 -0.321014
v -0.043139 -0.566835 -0.349747
v -0.026235 -0.586344 -0.372114
v -0.005889 -0.609824 -0.386303
v 0.016250 -0.635374 -0.391164
v 0.016250 -0.635374 -0.151164
v -0.016188 -0.625850 -0.156025
v -0.045999 -0.617096 -0.170213
v -0.070766 -0.609824 -0.192581
v -0.088484 -0.604622 -0.221314
v -0.097717 -0.601911 -0.254086
v -0.097717 -0.601911 -0.288242
v -0.088484 -0.604622 -0.321014
v -0.070766 -0.609824 -0.349747
v -0.045999 -0.617096 -0.372114
v -0.016188 -0.625850 -0.386303
v 0.016250 -0.635374 -0.391164
v 0.016250 -0.635374 -0.151164
v -0.016188 -0.644899 -0.156025
v -0.045999 -0.653652 -0.170213
v -0.070766 -0.660925 -0.192581
v -0.088484 -0.666127 -0.221314
v -0.097717 -0.668838 -0.254086
v -0.097717 -0.668838 -0.288242
v -0.088484 -0.666127 -0.321014
v -0.070766 -0.660925 -0.349747
v -0.045999 -0.653652 -0.372114
v -0.016188 -0.644899 -0.386303
v 0.016250 -0.635374 -0.391164
v 0.016250 -0.635374 -0.151164
v -0.005889 -0.660925 -0.156025
v -0.026235 -0.684405 -0.170213
v -0.043139 -0.703913 -0.192581
v -0.055232 -0.717869 -0.221314
v -0.061533 -0.725141 -0.254086
v -0.061533 -0.725141 -0.288242
v -0.055232 -0.717869 -0.321014
v -0.043139 -0.703913 -0.349747
v -0.026235 -0.684405 -0.372114
v -0.005889 -0.660925 -0.386303
v 0.016250 -0.635374 -0.391164
v 0.016250 -0.635374 -0.151164
v 0.011439 -0.668838 -0.156025
v 0.007017 -0.699591 -0.170213
v 0.003343 -0.725141 -0.192581
v 0.000716 -0.743419 -0.221314
v -0.000654 -0.752944 -0.254086
v -0.000654 -0.752944 -0.288242
v 0.000716 -0.743419 -0.321014
v 0.003343 -0.725141 -0.349747
v 0.007017 -0.699591 -0.372114
v 0.011439 -0.668838 -0.386303
v 0.016250 -0.635374 -0.391164
v 0.016250 -0.635374 -0.151164
v 0.030294 -0.666127 -0.156025
v 0.043201 -0.694388 -0.170213
v 0.053924 -0.717869 -0.192581
v 0.061595 -0.734666 -0.221314
v 0.065592 -0.743419 -0.254086
v 0.065592 -0.743419 -0.288242
v 0.061595 -0.734666 -0.321014
v 0.053924 -0.717869 -0.349747
v 0.043201 -0.694388 -0.372114
v 0.030294 -0.666127 -0.386303
v 0.016250 -0.635374 -0.391164
v 0.016250 -0.635374 -0.151164
v 0.044691 -0.653652 -0.156025
v 0.070828 -0.670449 -0.170213
v 0.092543 -0.684405 -0.192581
v 0.108078 -0.694388 -0.221314
v 0.116173 -0.699591 -0.254086
v 0.116173 -0.699591 -0.288242
v 0.108078 -0.694388 -0.321014
v 0.092543 -0.684405 -0.349747
v 0.070828 -0.670449 -0.372114
v 0.044691 -0.653652 -0.386303
v 0.016250 -0.635374 -0.391164
v 0.016250 -0.635374 -0.151164
v 0.050058 -0.635374 -0.156025
v 0.081127 -0.635374 -0.170213
v 0.106940 -0.635374 -0.192581
v 0.125406 -0.635374 -0.221314
v 0.135029 -0.635374 -0.254086
v 0.135029 -0.635374 -0.288242
v 0.125406 -0.635374 -0.321014
v 0.106940 -0.635374 -0.349747
v 0.081127 -0.635374 -0.372114
v 0.050058 -0.635374 -0.386303
v 0.016250 -0.635374 -0.391164
v 0.186850 -0.449760 -0.120133
v 0.188104 -0.473230 -0.112472
v 0.188621 -0.487736 -0.092460
v 0.188202 -0.487736 -0.067742
v 0.187008 -0.473230 -0.047759
v 0.185495 -0.449760 -0.040145
v 0.184240 -0.426289 -0.047806
v 0.183724 -0.411783 -0.067818
v 0.184143 -0.411783 -0.092536
v 0.185337 -0.426289 -0.112518
v -0.141408 -0.469118 -0.125696
v -0.140154 -0.492588 -0.118034
v -0.139638 -0.507094 -0.098023
v -0.140057 -0.507094 -0.073305
v -0.141251 -0.492588 -0.053322
v -0.142764 -0.469118 -0.045708
v -0.144018 -0.445647 -0.053369
v -0.144534 -0.431141 -0.073381
v -0.144115 -0.431141 -0.098099
v -0.142921 -0.445647 -0.118081
v 0.186172 -0.451788 -0.120088
v 0.162844 -0.448473 -0.112607
v 0.148427 -0.445650 -0.092724
v 0.148427 -0.444396 -0.068035
v 0.162844 -0.445191 -0.047969
v 0.186172 -0.447731 -0.040190
v 0.209500 -0.451046 -0.047671
v 0.223918 -0.453870 -0.067554
v 0.223918 -0.455123 -0.092243
v 0.209500 -0.454328 -0.112309
v 0.217755 -0.200758 -0.132833
v 0.194427 -0.197443 -0.125352
v 0.180009 -0.194620 -0.105469
v 0.180009 -0.193366 -0.080780
v 0.194427 -0.194161 -0.060714
v 0.217755 -0.196701 -0.052936
v 0.241083 -0.200016 -0.060417
v 0.255500 -0.202839 -0.080299
v 0.255500 -0.204093 -0.104988
v 0.241083 -0.203298 -0.125055
v 0.217755 -0.220185 -0.126643
v 0.194249 -0.215669 -0.120462
v 0.179721 -0.204683 -0.103747
v 0.179721 -0.191423 -0.082882
v 0.194249 -0.180953 -0.065839
v 0.217755 -0.177274 -0.059125
v 0.241261 -0.181790 -0.065307
v 0.255789 -0.192777 -0.082022
v 0.255789 -0.206037 -0.102886
v 0.241261 -0.216506 -0.119930
v 0.222295 -0.038525 -0.242096
v 0.198789 -0.034009 -0.235915
v 0.184261 -0.023022 -0.219200
v 0.184261 -0.009762 -0.198336
v 0.198789 0.000707 -0.181292
v 0.222295 0.004386 -0.174578
v 0.245801 -0.000130 -0.180760
v 0.260329 -0.011116 -0.197475
v 0.260329 -0.024377 -0.218339
v 0.245801 -0.034846 -0.235383
v -0.142086 -0.468637 -0.125699
v -0.164102 -0.476980 -0.118159
v -0.177708 -0.482320 -0.098222
v -0.177708 -0.482617 -0.073502
v -0.164102 -0.477758 -0.053443
v -0.142086 -0.469598 -0.045705
v -0.120070 -0.461255 -0.053244
v -0.106464 -0.455916 -0.073182
v -0.106464 -0.455619 -0.097901
v -0.120070 -0.460478 -0.117961
v -0.245735 -0.192115 -0.122376
v -0.267751 -0.200458 -0.114836
v -0.281357 -0.205798 -0.094899
v -0.281357 -0.206095 -0.070179
v -0.267751 -0.201236 -0.050119
v -0.245735 -0.193076 -0.042381
v -0.223719 -0.184734 -0.049921
v -0.210113 -0.179394 -0.069858
v -0.210113 -0.179097 -0.094578
v -0.223719 -0.183956 -0.114638
v -0.245735 -0.220826 -0.110717
v -0.269096 -0.213556 -0.107176
v -0.283535 -0.198279 -0.094164
v -0.283535 -0.180832 -0.076650
v -0.269096 -0.167878 -0.061324
v -0.245735 -0.164365 -0.054040
v -0.222374 -0.171636 -0.057581
v -0.207936 -0.186912 -0.070593
v -0.207936 -0.204360 -0.088107
v -0.222374 -0.217314 -0.103433
v -0.224188 -0.086373 -0.244658
v -0.247550 -0.079102 -0.241118
v -0.261988 -0.063826 -0.228106
v -0.261988 -0.046378 -0.210592
v -0.247550 -0.033425 -0.195266
v -0.224188 -0.029912 -0.187982
v -0.200827 -0.037183 -0.191522
v -0.186389 -0.052459 -0.204535
v -0.186389 -0.069906 -0.222048
v -0.200827 -0.082860 -0.237374
v 0.186172 -0.443272 -0.119609
v 0.162843 -0.447391 -0.112544
v 0.148424 -0.452414 -0.093102
v 0.148424 -0.456424 -0.068708
v 0.162843 -0.457888 -0.048680
v 0.186172 -0.456248 -0.040669
v 0.209502 -0.452129 -0.047733
v 0.223920 -0.447105 -0.067176
v 0.223920 -0.443095 -0.091570
v 0.209502 -0.441631 -0.111598
v 0.127743 0.017625 -0.043849
v 0.104414 0.013506 -0.036784
v 0.089995 0.008482 -0.017342
v 0.089995 0.004473 0.007052
v 0.104414 0.003008 0.027080
v 0.127743 0.004649 0.035091
v 0.151073 0.008768 0.028027
v 0.165491 0.013792 0.008584
v 0.165491 0.017801 -0.015810
v 0.151073 0.019266 -0.035838
v -0.142086 -0.460812 -0.124830
v -0.165584 -0.461633 -0.117195
v -0.180107 -0.465313 -0.097530
v -0.180107 -0.470447 -0.073348
v -0.165584 -0.475072 -0.053884
v -0.142086 -0.477424 -0.046574
v -0.118588 -0.476602 -0.054209
v -0.104065 -0.472922 -0.073873
v -0.104065 -0.467788 -0.098056
v -0.118588 -0.463163 -0.117519
v -0.127035 -0.018318 -0.030900
v -0.150534 -0.019140 -0.023264
v -0.165057 -0.022820 -0.003600
v -0.165057 -0.027953 0.020583
v -0.150534 -0.032579 0.040046
v -0.127035 -0.034930 0.047357
v -0.103537 -0.034109 0.039722
v -0.089014 -0.030428 0.020057
v -0.089014 -0.025295 -0.004125
v -0.103537 -0.020669 -0.023589
v 0.125766 0.011137 -0.044330
v 0.129583 -0.012121 -0.036870
v 0.132696 -0.026495 -0.017000
v 0.133918 -0.026495 0.007691
v 0.132781 -0.012121 0.027772
v 0.129720 0.011137 0.035572
v 0.125904 0.034395 0.028112
v 0.122790 0.048769 0.008242
v 0.121568 0.048769 -0.016449
v 0.122705 0.034395 -0.036530
v -0.129012 -0.026624 -0.031722
v -0.125196 -0.049882 -0.024263
v -0.122082 -0.064256 -0.004392
v -0.120861 -0.064256 0.020299
v -0.121997 -0.049882 0.040380
v -0.125059 -0.026624 0.048180
v -0.128875 -0.003366 0.040720
v -0.131988 0.011008 0.020850
v -0.133210 0.011008 -0.003842
v -0.132074 -0.003366 -0.023922
v 0.127743 -0.005595 -0.040711
v 0.104362 -0.004642 -0.032740
v 0.089911 0.002337 -0.013935
v 0.089911 0.012678 0.008520
v 0.104362 0.022430 0.026048
v 0.127743 0.027869 0.031954
v 0.151125 0.026916 0.023982
v 0.165575 0.019937 0.005177
v 0.165575 0.009596 -0.017278
v 0.151125 -0.000156 -0.034805
v 0.109725 0.149367 -0.112074
v 0.086343 0.150319 -0.104102
v 0.071893 0.157299 -0.085297
v 0.071893 0.167640 -0.062843
v 0.086343 0.177392 -0.045315
v 0.109725 0.182830 -0.039409
v 0.133106 0.181878 -0.047381
v 0.147556 0.174898 -0.066185
v 0.147556 0.164558 -0.088640
v 0.133106 0.154805 -0.106168
v 0.109725 0.184835 -0.111082
v 0.086288 0.182917 -0.103452
v 0.071804 0.174575 -0.085238
v 0.071804 0.162996 -0.063396
v 0.086288 0.152601 -0.046270
v 0.109725 0.147362 -0.040401
v 0.133161 0.149280 -0.048031
v 0.147645 0.157622 -0.066245
v 0.147645 0.169202 -0.088087
v 0.133161 0.179596 -0.105213
v 0.138583 0.502765 0.057477
v 0.115146 0.500847 0.065107
v 0.100662 0.492505 0.083321
v 0.100662 0.480925 0.105163
v 0.115146 0.470530 0.122289
v 0.138583 0.465291 0.128158
v 0.162019 0.467209 0.120528
v 0.176503 0.475551 0.102314
v 0.176503 0.487131 0.080472
v 0.162019 0.497526 0.063346
v -0.127035 -0.066009 0.001241
v -0.150292 -0.057884 -0.000827
v -0.164665 -0.037818 0.000564
v -0.164665 -0.013477 0.004882
v -0.150292 0.005843 0.010479
v -0.127035 0.012761 0.015216
v -0.103779 0.004635 0.017285
v -0.089406 -0.015430 0.015894
v -0.089406 -0.039772 0.011575
v -0.103779 -0.059091 0.005978
v -0.107696 -0.043274 -0.126901
v -0.130952 -0.035148 -0.128970
v -0.145325 -0.015083 -0.127579
v -0.145325 0.009259 -0.123260
v -0.130952 0.028578 -0.117663
v -0.107696 0.035496 -0.112926
v -0.084440 0.027371 -0.110858
v -0.070067 0.007305 -0.112249
v -0.070067 -0.017036 -0.116567
v -0.084440 -0.036356 -0.122164
v -0.107696 -0.005123 -0.159895
v -0.131130 -0.002986 -0.152318
v -0.145614 -0.001194 -0.132363
v -0.145614 -0.000432 -0.107654
v -0.131130 -0.000990 -0.087627
v -0.107696 -0.002655 -0.079933
v -0.084262 -0.004792 -0.087510
v -0.069778 -0.006584 -0.107464
v -0.069778 -0.007346 -0.132174
v -0.084262 -0.006788 -0.152200
v -0.082563 0.304398 -0.169446
v -0.105998 0.306534 -0.161869
v -0.120481 0.308326 -0.141915
v -0.120481 0.309089 -0.117205
v -0.105998 0.308531 -0.097179
v -0.082563 0.306865 -0.089484
v -0.059129 0.304729 -0.097061
v -0.044646 0.302937 -0.117016
v -0.044646 0.302174 -0.141725
v -0.059129 0.302732 -0.161752
f 1 2 13
f 2 14 13
f 2 3 14
f 3 15 14
f 3 4 15
f 4 16 15
f 4 5 16
f 5 17 16
f 5 6 17
f 6 18 17
f 6 7 18
f 7 19 18
f 7 8 19
f 8 20 19
f 8 9 20
f 9 21 20
f 9 10 21
f 10 22 21
f 10 11 22
f 11 23 22
f 11 12 23
f 12 24 23
f 13 14 25
f 14 26 25
f 14 15 26
f 15 27 26
f 15 16 27
f 16 28 27
f 16 17 28
f 17 29 28
f 17 18 29
f 18 30 29
f 18 19 30
f 19 31 30
f 19 20 31
f 20 32 31
f 20 21 32
f 21 33 32
f 21 22 33
f 22 34 33
f 22 23 34
f 23 35 34
f 23 24 35
f 24 36 35
f 25 26 37
f 26 38 37
f 26 27 38
f 27 39 38
f 27 28 39
f 28 40 39
f 28 29 40
f 29 41 40
f 29 30 41
f 30 42 41
f 30 31 42
f 31 43 42
f 31 32 43
f 32 44 43
f 32 33 44
f 33 45 44
f 33 34 45
f 34 46 45
f 34 35 46
f 35 47 46
f 35 36 47
f 36 48 47
f 37 38 49
f 38 50 49
f 38 39 50
f 39 51 50
f 39 40 51
f 40 52 51
f 40 41 52
f 41 53 52
f 41 42 53
f 42 54 53
f 42 43 54
f 43 55 54
f 43 44 55
f 44 56 55
f 44 45 56
f 45 57 56
f 45 46 57
f 46 58 57
f 46 47 58
f 47 59 58
f 47 48 59
f 48 60 59
f 49 50 61
f 50 62 61
f 50 51 62
f 51 63 62
f 51 52 63
f 52 64 63
f 52 53 64
f 53 65 64
f 53 54 65
f 54 66 65
f 54 55 66
f 55 67 66
f 55 56 67
f 56 68 67
f 56 57 68
f 57 69 68
f 57 58 69
f 58 70 69
f 58 59 70
f 59 71 70
f 59 60 71
f 60 72 71
f 61 62 73
f 62 74 73
f 62 63 74
f 63 75 74
f 63 64 75
f 64 76 75
f 64 65 76
f 65 77 76
f 65 66 77
f 66 78 77
f 66 67 78
f 67 79 78
f 67 68 79
f 68 80 79
f 68 69 80
f 69 81 80
f 69 70 81
f 70 82 81
f 70 71 82
f 71 83 82
f 71 72 83
f 72 84 83
f 73 74 85
f 74 86 85
f 74 75 86
f 75 87 86
f 75 76 87
f 76 88 87
f 76 77 88
f 77 89 88
f 77 78 89
f 78 90 89
f 78 79 90
f 79 91 90
f 79 80 91
f 80 92 91
f 80 81 92
f 81 93 92
f 81 82 93
f 82 94 93
f 82 83 94
f 83 95 94
f 83 84 95
f 84 96 95
f 85 86 97
f 86 98 97
f 86 87 98
f 87 99 98
f 87 88 99
f 88 100 99
f 88 89 100
f 89 101 100
f 89 90 101
f 90 102 101
f 90 91 102
f 91 103 102
f 91 92 103
f 92 104 103
f 92 93 104
f 93 105 104
f 93 94 105
f 94 106 105
f 94 95 106
f 95 107 106
f 95 96 107
f 96 108 107
f 97 98 109
f 98 110 109
f 98 99 110
f 99 111 110
f 99 100 111
f 100 112 111
f 100 101 112
f 101 113 112
f 101 102 113
f 102 114 113
f 102 103 114
f 103 115 114
f 103 104 115
f 104 116 115
f 104 105 116
f 105 117 116
f 105 106 117
f 106 118 117
f 106 107 118
f 107 119 118
f 107 108 119
f 108 120 119
f 109 110 121
f 110 122 121
f 110 111 122
f 111 123 122
f 111 112 123
f 112 124 123
f 112 113 124
f 113 125 124
f 113 114 125
f 114 126 125
f 114 115 126
f 115 127 126
f 115 116 127
f 116 128 127
f 116 117 128
f 117 129 128
f 117 118 129
f 118 130 129
f 118 119 130
f 119 131 130
f 119 120 131
f 120 132 131
f 121 122 133
f 122 134 133
f 122 123 134
f 123 135 134
f 123 124 135
f 124 136 135
f 124 125 136
f 125 137 136
f 125 126 137
f 126 138 137
f 126 127 138
f 127 139 138
f 127 128 139
f 128 140 139
f 128 129 140
f 129 141 140
f 129 130 141
f 130 142 141
f 130 131 142
f 131 143 142
f 131 132 143
f 132 144 143
f 145 146 155
f 146 156 155
f 146 147 156
f 147 157 156
f 147 148 157
f 148 158 157
f 148 149 158
f 149 159 158
f 149 150 159
f 150 160 159
f 150 151 160
f 151 161 160
f 151 152 161
f 152 162 161
f 152 153 162
f 153 163 162
f 153 154 163
f 154 164 163
f 154 145 164
f 145 155 164
f 165 166 175
f 166 176 175
f 166 167 176
f 167 177 176
f 167 168 177
f 168 178 177
f 168 169 178
f 169 179 178
f 169 170 179
f 170 180 179
f 170 171 180
f 171 181 180
f 171 172 181
f 172 182 181
f 172 173 182
f 173 183 182
f 173 174 183
f 174 184 183
f 174 165 184
f 165 175 184
f 185 186 195
f 186 196 195
f 186 187 196
f 187 197 196
f 187 188 197
f 188 198 197
f 188 189 198
f 189 199 198
f 189 190 199
f 190 200 199
f 190 191 200
f 191 201 200
f 191 192 201
f 192 202 201
f 192 193 202
f 193 203 202
f 193 194 203
f 194 204 203
f 194 185 204
f 185 195 204
f 205 206 215
f 206 216 215
f 206 207 216
f 207 217 216
f 207 208 217
f 208 218 217
f 208 209 218
f 209 219 218
f 209 210 219
f 210 220 219
f 210 211 220
f 211 221 220
f 211 212 221
f 212 222 221
f 212 213 222
f 213 223 222
f 213 214 223
f 214 224 223
f 214 205 224
f 205 215 224
f 225 226 235
f 226 236 235
f 226 227 236
f 227 237 236
f 227 228 237
f 228 238 237
f 228 229 238
f 229 239 238
f 229 230 239
f 230 240 239
f 230 231 240
f 231 241 240
f 231 232 241
f 232 242 241
f 232 233 242
f 233 243 242
f 233 234 243
f 234 244 243
f 234 225 244
f 225 235 244
f 245 246 255
f 246 256 255
f 246 247 256
f 247 257 256
f 247 248 257
f 248 258 257
f 248 249 258
f 249 259 258
f 249 250 259
f 250 260 259
f 250 251 260
f 251 261 260
f 251 252 261
f 252 262 261
f 252 253 262
f 253 263 262
f 253 254 263
f 254 264 263
f 254 245 264
f 245 255 264
f 265 266 275
f 266 276 275
f 266 267 276
f 267 277 276
f 267 268 277
f 268 278 277
f 268 269 278
f 269 279 278
f 269 270 279
f 270 280 279
f 270 271 280
f 271 281 280
f 271 272 281
f 272 282 281
f 272 273 282
f 273 283 282
f 273 274 283
f 274 284 283
f 274 265 284
f 265 275 284
f 285 286 295
f 286 296 295
f 286 287 296
f 287 297 296
f 287 288 297
f 288 298 297
f 288 289 298
f 289 299 298
f 289 290 299
f 290 300 299
f 290 291 300
f 291 301 300
f 291 292 301
f 292 302 301
f 292 293 302
f 293 303 302
f 293 294 303
f 294 304 303
f 294 285 304
f 285 295 304
f 305 306 315
f 306 316 315
f 306 307 316
f 307 317 316
f 307 308 317
f 308 318 317
f 308 309 318
f 309 319 318
f 309 310 319
f 310 320 319
f 310 311 320
f 311 321 320
f 311 312 321
f 312 322 321
f 312 313 322
f 313 323 322
f 313 314 323
f 314 324 323
f 314 305 324
f 305 315 324
f 325 326 335
f 326 336 335
f 326 327 336
f 327 337 336
f 327 328 337
f 328 338 337
f 328 329 338
f 329 339 338
f 329 330 339
f 330 340 339
f 330 331 340
f 331 341 340
f 331 332 341
f 332 342 341
f 332 333 342
f 333 343 342
f 333 334 343
f 334 344 343
f 334 325 344
f 325 335 344
f 345 346 355
f 346 356 355
f 346 347 356
f 347 357 356
f 347 348 357
f 348 358 357
f 348 349 358
f 349 359 358
f 349 350 359
f 350 360 359
f 350 351 360
f 351 361 360
f 351 352 361
f 352 362 361
f 352 353 362
f 353 363 362
f 353 354 363
f 354 364 363
f 354 345 364
f 345 355 364
f 365 366 375
f 366 376 375
f 366 367 376
f 367 377 376
f 367 368 377
f 368 378 377
f 368 369 378
f 369 379 378
f 369 370 379
f 370 380 379
f 370 371 380
f 371 381 380
f 371 372 381
f 372 382 381
f 372 373 382
f 373 383 382
f 373 374 383
f 374 384 383
f 374 365 384
f 365 375 384
