# Full-Body 3D Mesh - Frame 289
v 0.037493 -0.615214 -0.101343
v 0.071301 -0.615214 -0.106203
v 0.102370 -0.615214 -0.120392
v 0.128183 -0.615214 -0.142759
v 0.146649 -0.615214 -0.171493
v 0.156272 -0.615214 -0.204265
v 0.156272 -0.615214 -0.238420
v 0.146649 -0.615214 -0.271192
v 0.128183 -0.615214 -0.299926
v 0.102370 -0.615214 -0.322293
v 0.071301 -0.615214 -0.336482
v 0.037493 -0.615214 -0.341343
v 0.037493 -0.615214 -0.101343
v 0.065934 -0.596936 -0.106203
v 0.092071 -0.580139 -0.120392
v 0.113787 -0.566183 -0.142759
v 0.129321 -0.556200 -0.171493
v 0.137416 -0.550998 -0.204265
v 0.137416 -0.550998 -0.238420
v 0.129321 -0.556200 -0.271192
v 0.113787 -0.566183 -0.299926
v 0.092071 -0.580139 -0.322293
v 0.065934 -0.596936 -0.336482
v 0.037493 -0.615214 -0.341343
v 0.037493 -0.615214 -0.101343
v 0.051538 -0.584461 -0.106203
v 0.064444 -0.556200 -0.120392
v 0.075167 -0.532720 -0.142759
v 0.082838 -0.515922 -0.171493
v 0.086836 -0.507169 -0.204265
v 0.086836 -0.507169 -0.238420
v 0.082838 -0.515922 -0.271192
v 0.075167 -0.532720 -0.299926
v 0.064444 -0.556200 -0.322293
v 0.051538 -0.584461 -0.336482
v 0.037493 -0.615214 -0.341343
v 0.037493 -0.615214 -0.101343
v 0.032682 -0.581750 -0.106203
v 0.028260 -0.550998 -0.120392
v 0.024587 -0.525447 -0.142759
v 0.021959 -0.507169 -0.171493
v 0.020589 -0.497645 -0.204265
v 0.020589 -0.497645 -0.238420
v 0.021959 -0.507169 -0.271192
v 0.024587 -0.525447 -0.299926
v 0.028260 -0.550998 -0.322293
v 0.032682 -0.581750 -0.336482
v 0.037493 -0.615214 -0.341343
v 0.037493 -0.615214 -0.101343
v 0.015354 -0.589664 -0.106203
v -0.004992 -0.566183 -0.120392
v -0.021896 -0.546675 -0.142759
v -0.033989 -0.532720 -0.171493
v -0.040290 -0.525447 -0.204265
v -0.040290 -0.525447 -0.238420
v -0.033989 -0.532720 -0.271192
v -0.021896 -0.546675 -0.299926
v -0.004992 -0.566183 -0.322293
v 0.015354 -0.589664 -0.336482
v 0.037493 -0.615214 -0.341343
v 0.037493 -0.615214 -0.101343
v 0.005055 -0.605689 -0.106203
v -0.024756 -0.596936 -0.120392
v -0.049523 -0.589664 -0.142759
v -0.067241 -0.584461 -0.171493
v -0.076474 -0.581750 -0.204265
v -0.076474 -0.581750 -0.238420
v -0.067241 -0.584461 -0.271192
v -0.049523 -0.589664 -0.299926
v -0.024756 -0.596936 -0.322293
v 0.005055 -0.605689 -0.336482
v 0.037493 -0.615214 -0.341343
v 0.037493 -0.615214 -0.101343
v 0.005055 -0.624739 -0.106203
v -0.024756 -0.633492 -0.120392
v -0.049523 -0.640764 -0.142759
v -0.067241 -0.645967 -0.171493
v -0.076474 -0.648678 -0.204265
v -0.076474 -0.648678 -0.238420
v -0.067241 -0.645967 -0.271192
v -0.049523 -0.640764 -0.299926
v -0.024756 -0.633492 -0.322293
v 0.005055 -0.624739 -0.336482
v 0.037493 -0.615214 -0.341343
v 0.037493 -0.615214 -0.101343
v 0.015354 -0.640764 -0.106203
v -0.004992 -0.664245 -0.120392
v -0.021896 -0.683753 -0.142759
v -0.033989 -0.697709 -0.171493
v -0.040290 -0.704981 -0.204265
v -0.040290 -0.704981 -0.238420
v -0.033989 -0.697709 -0.271192
v -0.021896 -0.683753 -0.299926
v -0.004992 -0.664245 -0.322293
v 0.015354 -0.640764 -0.336482
v 0.037493 -0.615214 -0.341343
v 0.037493 -0.615214 -0.101343
v 0.032682 -0.648678 -0.106203
v 0.028260 -0.679431 -0.120392
v 0.024587 -0.704981 -0.142759
v 0.021959 -0.723259 -0.171493
v 0.020589 -0.732784 -0.204265
v 0.020589 -0.732784 -0.238420
v 0.021959 -0.723259 -0.271192
v 0.024587 -0.704981 -0.299926
v 0.028260 -0.679431 -0.322293
v 0.032682 -0.648678 -0.336482
v 0.037493 -0.615214 -0.341343
v 0.037493 -0.615214 -0.101343
v 0.051538 -0.645967 -0.106203
v 0.064444 -0.674228 -0.120392
v 0.075167 -0.697709 -0.142759
v 0.082838 -0.714506 -0.171493
v 0.086836 -0.723259 -0.204265
v 0.086836 -0.723259 -0.238420
v 0.082838 -0.714506 -0.271192
v 0.075167 -0.697709 -0.299926
v 0.064444 -0.674228 -0.322293
v 0.051538 -0.645967 -0.336482
v 0.037493 -0.615214 -0.341343
v 0.037493 -0.615214 -0.101343
v 0.065934 -0.633492 -0.106203
v 0.092071 -0.650289 -0.120392
v 0.113787 -0.664245 -0.142759
v 0.129321 -0.674228 -0.171493
v 0.137416 -0.679431 -0.204265
v 0.137416 -0.679431 -0.238420
v 0.129321 -0.674228 -0.271192
v 0.113787 -0.664245 -0.299926
v 0.092071 -0.650289 -0.322293
v 0.065934 -0.633492 -0.336482
v 0.037493 -0.615214 -0.341343
v 0.037493 -0.615214 -0.101343
v 0.071301 -0.615214 -0.106203
v 0.102370 -0.615214 -0.120392
v 0.128183 -0.615214 -0.142759
v 0.146649 -0.615214 -0.171493
v 0.156272 -0.615214 -0.204265
v 0.156272 -0.615214 -0.238420
v 0.146649 -0.615214 -0.271192
v 0.128183 -0.615214 -0.299926
v 0.102370 -0.615214 -0.322293
v 0.071301 -0.615214 -0.336482
v 0.037493 -0.615214 -0.341343
v 0.176612 -0.427342 -0.092972
v 0.178121 -0.450800 -0.085319
v 0.178920 -0.465298 -0.065311
v 0.178704 -0.465298 -0.040591
v 0.177555 -0.450800 -0.020600
v 0.175913 -0.427342 -0.012975
v 0.174404 -0.403883 -0.020628
v 0.173605 -0.389385 -0.040635
v 0.173821 -0.389385 -0.065356
v 0.174970 -0.403883 -0.085346
v -0.147297 -0.449100 -0.095804
v -0.145788 -0.472559 -0.088151
v -0.144990 -0.487057 -0.068144
v -0.145206 -0.487057 -0.043423
v -0.146354 -0.472559 -0.023432
v -0.147997 -0.449100 -0.015807
v -0.149506 -0.425641 -0.023460
v -0.150305 -0.411143 -0.043468
v -0.150089 -0.411143 -0.068188
v -0.148940 -0.425641 -0.088179
v 0.176263 -0.432162 -0.092682
v 0.153465 -0.425534 -0.085791
v 0.139375 -0.419597 -0.066365
v 0.139375 -0.416618 -0.041824
v 0.153465 -0.417735 -0.021541
v 0.176263 -0.422522 -0.013265
v 0.199060 -0.429150 -0.020156
v 0.213150 -0.435087 -0.039582
v 0.213150 -0.438066 -0.064123
v 0.199060 -0.436949 -0.084405
v 0.240670 -0.178624 -0.123458
v 0.217873 -0.171996 -0.116567
v 0.203783 -0.166059 -0.097141
v 0.203783 -0.163080 -0.072600
v 0.217873 -0.164197 -0.052317
v 0.240670 -0.168984 -0.044041
v 0.263468 -0.175612 -0.050932
v 0.277558 -0.181549 -0.070358
v 0.277558 -0.184528 -0.094899
v 0.263468 -0.183411 -0.115181
v 0.240670 -0.183850 -0.122467
v 0.217330 -0.179191 -0.115784
v 0.202905 -0.172474 -0.096864
v 0.202905 -0.166265 -0.072935
v 0.217330 -0.162936 -0.053137
v 0.240670 -0.163758 -0.045031
v 0.264011 -0.168417 -0.051715
v 0.278436 -0.175134 -0.070634
v 0.278436 -0.181342 -0.094563
v 0.264011 -0.184672 -0.114362
v 0.263437 -0.002170 -0.169607
v 0.240097 0.002489 -0.162924
v 0.225672 0.009206 -0.144004
v 0.225672 0.015415 -0.120075
v 0.240097 0.018744 -0.100277
v 0.263437 0.017922 -0.092171
v 0.286778 0.013263 -0.098855
v 0.301203 0.006547 -0.117774
v 0.301203 0.000338 -0.141703
v 0.286778 -0.002992 -0.161502
v -0.147647 -0.473648 -0.087387
v -0.166643 -0.479898 -0.072853
v -0.178383 -0.474384 -0.051808
v -0.178383 -0.459213 -0.032290
v -0.166643 -0.440179 -0.021753
v -0.147647 -0.424552 -0.024224
v -0.128651 -0.418302 -0.038758
v -0.116911 -0.423816 -0.059803
v -0.116911 -0.438987 -0.079322
v -0.128651 -0.458021 -0.089858
v -0.320700 -0.286303 -0.233008
v -0.339696 -0.292553 -0.218475
v -0.351436 -0.287039 -0.197429
v -0.351436 -0.271868 -0.177911
v -0.339696 -0.252834 -0.167375
v -0.320700 -0.237207 -0.169845
v -0.301704 -0.230957 -0.184379
v -0.289964 -0.236471 -0.205424
v -0.289964 -0.251642 -0.224943
v -0.301704 -0.270677 -0.235479
v -0.320700 -0.293671 -0.177315
v -0.340361 -0.295347 -0.192207
v -0.352512 -0.284193 -0.210621
v -0.352512 -0.264468 -0.225523
v -0.340361 -0.243707 -0.231221
v -0.320700 -0.229840 -0.225539
v -0.301039 -0.228163 -0.210647
v -0.288888 -0.239317 -0.192233
v -0.288888 -0.259042 -0.177331
v -0.301039 -0.279803 -0.171632
v -0.173557 -0.428930 -0.356346
v -0.193218 -0.430607 -0.371239
v -0.205369 -0.419452 -0.389653
v -0.205369 -0.399728 -0.404555
v -0.193218 -0.378967 -0.410253
v -0.173557 -0.365099 -0.404571
v -0.153896 -0.363422 -0.389679
v -0.141745 -0.374577 -0.371265
v -0.141745 -0.394302 -0.356363
v -0.153896 -0.415063 -0.350664
v 0.176263 -0.423065 -0.092744
v 0.152936 -0.426804 -0.085463
v 0.138519 -0.430748 -0.065771
v 0.138519 -0.433391 -0.041192
v 0.152936 -0.433724 -0.021112
v 0.176263 -0.431618 -0.013203
v 0.199590 -0.427880 -0.020484
v 0.214006 -0.423935 -0.040175
v 0.214006 -0.421292 -0.064755
v 0.199590 -0.420960 -0.084834
v 0.120011 0.020865 -0.045007
v 0.096684 0.017126 -0.037726
v 0.082267 0.013182 -0.018034
v 0.082267 0.010539 0.006545
v 0.096684 0.010207 0.026625
v 0.120011 0.012312 0.034535
v 0.143338 0.016051 0.027253
v 0.157754 0.019995 0.007562
v 0.157754 0.022638 -0.017018
v 0.143338 0.022971 -0.037097
v -0.147647 -0.443222 -0.095371
v -0.171107 -0.442804 -0.087586
v -0.185606 -0.444791 -0.067662
v -0.185606 -0.448423 -0.043209
v -0.171107 -0.452314 -0.023567
v -0.147647 -0.454978 -0.016240
v -0.124187 -0.455396 -0.024025
v -0.109688 -0.453409 -0.043949
v -0.109688 -0.449777 -0.068402
v -0.124187 -0.445886 -0.088044
v -0.119260 -0.020302 -0.032546
v -0.142720 -0.019884 -0.024761
v -0.157219 -0.021870 -0.004837
v -0.157219 -0.025503 0.019616
v -0.142720 -0.029394 0.039258
v -0.119260 -0.032057 0.046585
v -0.095800 -0.032475 0.038800
v -0.081301 -0.030488 0.018876
v -0.081301 -0.026856 -0.005577
v -0.095800 -0.022965 -0.025219
v 0.117964 0.016589 -0.045184
v 0.122481 -0.006557 -0.037766
v 0.126055 -0.020862 -0.017923
v 0.127319 -0.020862 0.006766
v 0.125792 -0.006557 0.026871
v 0.122057 0.016589 0.034711
v 0.117540 0.039734 0.027294
v 0.113966 0.054039 0.007450
v 0.112702 0.054039 -0.017239
v 0.114229 0.039734 -0.037343
v -0.121306 -0.026179 -0.032928
v -0.116789 -0.049325 -0.025510
v -0.113216 -0.063630 -0.005667
v -0.111951 -0.063630 0.019022
v -0.113478 -0.049325 0.039126
v -0.117214 -0.026179 0.046967
v -0.121731 -0.003034 0.039549
v -0.125304 0.011271 0.019706
v -0.126569 0.011271 -0.004983
v -0.125042 -0.003034 -0.025087
v 0.120011 0.008345 -0.044377
v 0.097034 0.005042 -0.035875
v 0.082833 0.006150 -0.015669
v 0.082833 0.011244 0.008521
v 0.097034 0.018381 0.027457
v 0.120011 0.024832 0.033905
v 0.142988 0.028135 0.025403
v 0.157188 0.027028 0.005197
v 0.157188 0.021933 -0.018993
v 0.142988 0.014797 -0.037929
v 0.091245 0.138105 -0.071706
v 0.068268 0.134802 -0.063204
v 0.054068 0.135910 -0.042998
v 0.054068 0.141004 -0.018807
v 0.068268 0.148140 0.000128
v 0.091245 0.154592 0.006577
v 0.114222 0.157895 -0.001926
v 0.128423 0.156787 -0.022131
v 0.128423 0.151693 -0.046322
v 0.114222 0.144557 -0.065258
v 0.091245 0.166544 -0.067092
v 0.067900 0.165096 -0.059089
v 0.053472 0.156487 -0.040955
v 0.053472 0.144005 -0.019616
v 0.067900 0.132418 -0.003223
v 0.091245 0.126153 0.001963
v 0.114591 0.127601 -0.006040
v 0.129019 0.136211 -0.024175
v 0.129019 0.148692 -0.045514
v 0.114591 0.160279 -0.061907
v 0.136436 0.492901 0.123802
v 0.113090 0.491453 0.131805
v 0.098662 0.482843 0.149939
v 0.098662 0.470362 0.171278
v 0.113090 0.458775 0.187671
v 0.136436 0.452510 0.192857
v 0.159781 0.453958 0.184854
v 0.174209 0.462568 0.166719
v 0.174209 0.475049 0.145380
v 0.159781 0.486636 0.128987
v -0.119260 -0.065828 0.012308
v -0.142469 -0.057759 0.015025
v -0.156813 -0.037627 0.014684
v -0.156813 -0.013123 0.011416
v -0.142469 0.006394 0.006468
v -0.119260 0.013469 0.001731
v -0.096051 0.005400 -0.000986
v -0.081707 -0.014732 -0.000645
v -0.081707 -0.039236 0.002623
v -0.096051 -0.058753 0.007571
v -0.157235 -0.096820 -0.220029
v -0.180443 -0.088751 -0.217312
v -0.194787 -0.068619 -0.217653
v -0.194787 -0.044115 -0.220921
v -0.180443 -0.024598 -0.225869
v -0.157235 -0.017522 -0.230606
v -0.134026 -0.025592 -0.233323
v -0.119682 -0.045724 -0.232982
v -0.119682 -0.070228 -0.229714
v -0.134026 -0.089745 -0.224766
v -0.157235 -0.063710 -0.264779
v -0.180263 -0.057784 -0.258018
v -0.194495 -0.051624 -0.238766
v -0.194495 -0.047583 -0.214377
v -0.180263 -0.047204 -0.194167
v -0.157235 -0.050632 -0.185855
v -0.134206 -0.056558 -0.192617
v -0.119974 -0.062719 -0.211869
v -0.119974 -0.066760 -0.236258
v -0.134206 -0.067139 -0.256468
v -0.095773 0.230805 -0.313581
v -0.118802 0.236731 -0.306820
v -0.133034 0.242891 -0.287568
v -0.133034 0.246932 -0.263179
v -0.118802 0.247311 -0.242969
v -0.095773 0.243882 -0.234658
v -0.072745 0.237956 -0.241419
v -0.058512 0.231796 -0.260671
v -0.058512 0.227755 -0.285060
v -0.072745 0.227376 -0.305270
v -0.013278 0.100209 -0.002270
v -0.019423 0.093565 -0.000263
v -0.023222 0.085685 -0.003333
v -0.023222 0.079580 -0.010310
v -0.019423 0.077582 -0.018527
v -0.013278 0.080453 -0.024846
v -0.007133 0.087097 -0.026854
v -0.003335 0.094976 -0.023783
v -0.003335 0.101081 -0.016807
v -0.007133 0.103080 -0.008589
v 0.014140 0.080153 0.015282
v 0.007995 0.073509 0.017289
v 0.004196 0.065629 0.014218
v 0.004196 0.059524 0.007242
v 0.007995 0.057525 -0.000975
v 0.014140 0.060396 -0.007294
v 0.020285 0.067040 -0.009302
v 0.024083 0.074920 -0.006231
v 0.024083 0.081025 0.000745
v 0.020285 0.083024 0.008962
v 0.014140 0.079205 0.016045
v 0.007925 0.072475 0.017467
v 0.004084 0.064904 0.013742
v 0.004084 0.059385 0.006293
v 0.007925 0.058025 -0.002034
v 0.014140 0.061344 -0.008058
v 0.020355 0.068074 -0.009480
v 0.024196 0.075645 -0.005755
v 0.024196 0.081164 0.001694
v 0.020355 0.082524 0.010021
v 0.040261 0.058346 0.031501
v 0.034046 0.051616 0.032923
v 0.030205 0.044046 0.029198
v 0.030205 0.038527 0.021750
v 0.034046 0.037167 0.013423
v 0.040261 0.040486 0.007398
v 0.046476 0.047216 0.005976
v 0.050318 0.054786 0.009701
v 0.050318 0.060305 0.017150
v 0.046476 0.061665 0.025477
v 0.040261 0.057504 0.032082
v 0.033315 0.051386 0.032598
v 0.029022 0.044516 0.028091
v 0.029022 0.039517 0.020283
v 0.033315 0.038300 0.012157
v 0.040261 0.041328 0.006817
v 0.047208 0.047446 0.006302
v 0.051501 0.054316 0.010809
v 0.051501 0.059315 0.018616
v 0.047208 0.060532 0.026742
v 0.061250 0.034892 0.046559
v 0.054304 0.028774 0.047075
v 0.050011 0.021904 0.042568
v 0.050011 0.016905 0.034760
v 0.054304 0.015688 0.026634
v 0.061250 0.018716 0.021294
v 0.068196 0.024834 0.020779
v 0.072489 0.031704 0.025286
v 0.072489 0.036703 0.033093
v 0.068196 0.037920 0.041219
v 0.061250 0.032855 0.047652
v 0.052517 0.030588 0.045520
v 0.047120 0.026876 0.038960
v 0.047120 0.023137 0.030478
v 0.052517 0.020798 0.023312
v 0.061250 0.020753 0.020201
v 0.069983 0.023020 0.022333
v 0.075380 0.026732 0.028893
v 0.075380 0.030471 0.037376
v 0.069983 0.032810 0.044541
v 0.065044 0.007882 0.058661
v 0.056311 0.005616 0.056529
v 0.050914 0.001904 0.049969
v 0.050914 -0.001836 0.041486
v 0.056311 -0.004174 0.034321
v 0.065044 -0.004219 0.031210
v 0.073777 -0.001953 0.033341
v 0.079174 0.001759 0.039901
v 0.079174 0.005499 0.048384
v 0.073777 0.007837 0.055550
v -0.013278 0.096505 0.000112
v -0.021844 0.093421 -0.001638
v -0.027137 0.089157 -0.007942
v -0.027137 0.085341 -0.016391
v -0.021844 0.083432 -0.023758
v -0.013278 0.084157 -0.027229
v -0.004713 0.087241 -0.025478
v 0.000581 0.091505 -0.019174
v 0.000581 0.095320 -0.010725
v -0.004713 0.097230 -0.003359
v 0.010163 0.008940 0.039658
v 0.001597 0.005856 0.037907
v -0.003696 0.001592 0.031604
v -0.003696 -0.002224 0.023155
v 0.001597 -0.004133 0.015788
v 0.010163 -0.003408 0.012317
v 0.018729 -0.000324 0.014068
v 0.024022 0.003940 0.020371
v 0.024022 0.007755 0.028820
v 0.018729 0.009665 0.036187
v 0.010163 0.000194 0.040765
v 0.003524 -0.005030 0.036949
v -0.000579 -0.007277 0.028945
v -0.000579 -0.005688 0.019812
v 0.003524 -0.000870 0.013037
v 0.010163 0.005337 0.011209
v 0.016802 0.010562 0.015026
v 0.020905 0.012808 0.023030
v 0.020905 0.011219 0.032163
v 0.016802 0.006401 0.038938
v 0.029950 -0.022114 0.036884
v 0.023311 -0.027339 0.033067
v 0.019208 -0.029585 0.025063
v 0.019208 -0.027996 0.015930
v 0.023311 -0.023178 0.009156
v 0.029950 -0.016971 0.007328
v 0.036589 -0.011747 0.011145
v 0.040692 -0.009500 0.019148
v 0.040692 -0.011089 0.028282
v 0.036589 -0.015907 0.035056
v 0.032916 -0.019543 0.036810
v 0.032689 -0.028353 0.033933
v 0.031417 -0.033798 0.026539
v 0.029583 -0.033798 0.017451
v 0.027890 -0.028353 0.010142
v 0.026984 -0.019543 0.007402
v 0.027210 -0.010733 0.010279
v 0.028483 -0.005288 0.017673
v 0.030316 -0.005288 0.026761
v 0.032009 -0.010733 0.034070
v 0.050142 -0.018851 0.033335
v 0.049915 -0.027661 0.030458
v 0.048642 -0.033106 0.023064
v 0.046809 -0.033106 0.013976
v 0.045116 -0.027661 0.006667
v 0.044210 -0.018851 0.003927
v 0.044436 -0.010041 0.006804
v 0.045709 -0.004596 0.014198
v 0.047542 -0.004596 0.023286
v 0.049235 -0.010041 0.030595
v 0.047176 -0.027857 0.006636
v 0.038934 -0.023632 0.007045
v 0.033841 -0.017580 0.011880
v 0.033841 -0.012014 0.019294
v 0.038934 -0.009059 0.026454
v 0.047176 -0.009845 0.030626
v 0.055417 -0.014070 0.030217
v 0.060510 -0.020122 0.025382
v 0.060510 -0.025688 0.017968
v 0.055417 -0.028643 0.010808
v 0.056315 -0.008635 -0.007796
v 0.048073 -0.004410 -0.007387
v 0.042980 0.001642 -0.002552
v 0.042980 0.007208 0.004861
v 0.048073 0.010163 0.012022
v 0.056315 0.009377 0.016194
v 0.064556 0.005152 0.015784
v 0.069649 -0.000900 0.010950
v 0.069649 -0.006466 0.003536
v 0.064556 -0.009421 -0.003624
v -0.013278 0.093674 0.001064
v -0.022050 0.092174 -0.001531
v -0.027472 0.089970 -0.008721
v -0.027472 0.087904 -0.017758
v -0.022050 0.086764 -0.025191
v -0.013278 0.086987 -0.028181
v -0.004506 0.088487 -0.025585
v 0.000916 0.090692 -0.018396
v 0.000916 0.092758 -0.009358
v -0.004506 0.093897 -0.001925
v -0.003517 -0.000783 0.022663
v -0.012289 -0.002283 0.020067
v -0.017711 -0.004487 0.012878
v -0.017711 -0.006553 0.003841
v -0.012289 -0.007693 -0.003592
v -0.003517 -0.007470 -0.006582
v 0.005256 -0.005970 -0.003986
v 0.010677 -0.003766 0.003203
v 0.010677 -0.001699 0.012240
v 0.005256 -0.000560 0.019673
v -0.003517 -0.007421 0.022674
v -0.009632 -0.012988 0.018484
v -0.013412 -0.015170 0.010305
v -0.013412 -0.013133 0.001261
v -0.009632 -0.007656 -0.005194
v -0.003517 -0.000831 -0.006593
v 0.002599 0.004735 -0.002403
v 0.006378 0.006917 0.005776
v 0.006378 0.004881 0.014820
v 0.002599 -0.000596 0.021274
v 0.024757 -0.033982 0.016693
v 0.018642 -0.039549 0.012504
v 0.014862 -0.041731 0.004325
v 0.014862 -0.039694 -0.004720
v 0.018642 -0.034218 -0.011174
v 0.024757 -0.027392 -0.012574
v 0.030873 -0.021826 -0.008384
v 0.034652 -0.019644 -0.000205
v 0.034652 -0.021680 0.008839
v 0.030873 -0.027157 0.015294
v 0.024757 -0.041564 -0.008270
v 0.019174 -0.034788 -0.011245
v 0.015724 -0.026445 -0.009139
v 0.015724 -0.019723 -0.002755
v 0.019174 -0.017189 0.005468
v 0.024757 -0.019811 0.012389
v 0.030340 -0.026587 0.015365
v 0.033790 -0.034930 0.013258
v 0.033790 -0.041652 0.006874
v 0.030340 -0.044186 -0.001349
v 0.045710 -0.029760 -0.020699
v 0.040128 -0.022983 -0.023675
v 0.036677 -0.014641 -0.021568
v 0.036677 -0.007918 -0.015185
v 0.040128 -0.005384 -0.006962
v 0.045710 -0.008006 -0.000041
v 0.051293 -0.014783 0.002935
v 0.054744 -0.023125 0.000828
v 0.054744 -0.029848 -0.005556
v 0.051293 -0.032382 -0.013778
v 0.045710 -0.018538 -0.025366
v 0.037671 -0.014986 -0.022419
v 0.032702 -0.012921 -0.014869
v 0.032702 -0.013135 -0.005601
v 0.037671 -0.015543 0.001845
v 0.045710 -0.019228 0.004626
v 0.053750 -0.022781 0.001679
v 0.058719 -0.024845 -0.005871
v 0.058719 -0.024632 -0.015139
v 0.053750 -0.022223 -0.022585
v 0.054208 0.000331 -0.024932
v 0.046168 0.003883 -0.021985
v 0.041200 0.005947 -0.014436
v 0.041200 0.005734 -0.005168
v 0.046168 0.003325 0.002279
v 0.054208 -0.000359 0.005060
v 0.062247 -0.003912 0.002113
v 0.067216 -0.005976 -0.005437
v 0.067216 -0.005763 -0.014705
v 0.062247 -0.003354 -0.022151
v -0.013278 0.089959 0.001437
v -0.022084 0.089593 -0.001437
v -0.027526 0.089508 -0.008942
v -0.027526 0.089738 -0.018210
v -0.022084 0.090194 -0.025701
v -0.013278 0.090703 -0.028554
v -0.004472 0.091069 -0.025679
v 0.000970 0.091153 -0.018174
v 0.000970 0.090924 -0.008907
v -0.004472 0.090467 -0.001416
v -0.008653 -0.003099 -0.000870
v -0.017459 -0.003466 -0.003745
v -0.022901 -0.003550 -0.011249
v -0.022901 -0.003320 -0.020517
v -0.017459 -0.002864 -0.028008
v -0.008653 -0.002356 -0.030861
v 0.000153 -0.001989 -0.027986
v 0.005595 -0.001905 -0.020482
v 0.005595 -0.002135 -0.011214
v 0.000153 -0.002591 -0.003723
v -0.008653 -0.007813 -0.001754
v -0.014554 -0.013004 -0.006670
v -0.018202 -0.014270 -0.015098
v -0.018202 -0.011127 -0.023820
v -0.014554 -0.004775 -0.029503
v -0.008653 0.002359 -0.029977
v -0.002752 0.007550 -0.025061
v 0.000896 0.008815 -0.016632
v 0.000896 0.005672 -0.007911
v -0.002752 -0.000680 -0.002228
v 0.017180 -0.029707 -0.009645
v 0.011278 -0.034899 -0.014561
v 0.007631 -0.036164 -0.022989
v 0.007631 -0.033021 -0.031711
v 0.011278 -0.026669 -0.037394
v 0.017180 -0.019535 -0.037868
v 0.023081 -0.014344 -0.032952
v 0.026728 -0.013079 -0.024523
v 0.026728 -0.016222 -0.015802
v 0.023081 -0.022574 -0.010119
v 0.017180 -0.029539 -0.037927
v 0.012195 -0.021729 -0.037605
v 0.009114 -0.015024 -0.031993
v 0.009114 -0.011985 -0.023235
v 0.012195 -0.013773 -0.014676
v 0.017180 -0.019704 -0.009585
v 0.022164 -0.027514 -0.009908
v 0.025245 -0.034219 -0.015520
v 0.025245 -0.037258 -0.024278
v 0.022164 -0.035470 -0.032837
v 0.039669 -0.014976 -0.042981
v 0.034684 -0.007166 -0.042658
v 0.031603 -0.000461 -0.037046
v 0.031603 0.002578 -0.028288
v 0.034684 0.000790 -0.019729
v 0.039669 -0.005141 -0.014639
v 0.044653 -0.012951 -0.014961
v 0.047734 -0.019656 -0.020573
v 0.047734 -0.022695 -0.029331
v 0.044653 -0.020907 -0.037890
v 0.039669 -0.007964 -0.043663
v 0.031500 -0.005078 -0.040363
v 0.026452 -0.004095 -0.032650
v 0.026452 -0.005389 -0.023470
v 0.031500 -0.008467 -0.016330
v 0.039669 -0.012153 -0.013957
v 0.047837 -0.015039 -0.017257
v 0.052885 -0.016022 -0.024970
v 0.052885 -0.014728 -0.034149
v 0.047837 -0.011650 -0.041289
v 0.048148 0.012704 -0.040749
v 0.039979 0.015589 -0.037449
v 0.034931 0.016573 -0.029736
v 0.034931 0.015279 -0.020556
v 0.039979 0.012201 -0.013416
v 0.048148 0.008515 -0.011042
v 0.056316 0.005629 -0.014342
v 0.061365 0.004645 -0.022055
v 0.061365 0.005940 -0.031235
v 0.056316 0.009018 -0.038375
v -0.013278 0.086085 0.000828
v -0.022095 0.086938 -0.001907
v -0.027544 0.089088 -0.009092
v -0.027544 0.091712 -0.017983
v -0.022095 0.093809 -0.025184
v -0.013278 0.094577 -0.027945
v -0.004461 0.093723 -0.025210
v 0.000988 0.091574 -0.018024
v 0.000988 0.088949 -0.009133
v -0.004461 0.086853 -0.001932
v -0.013717 0.003113 -0.023662
v -0.022533 0.003966 -0.026397
v -0.027982 0.006116 -0.033582
v -0.027982 0.008740 -0.042473
v -0.022533 0.010837 -0.049674
v -0.013717 0.011605 -0.052435
v -0.004900 0.010751 -0.049700
v 0.000549 0.008602 -0.042514
v 0.000549 0.005977 -0.033623
v -0.004900 0.003881 -0.026422
v -0.013717 0.006217 -0.023092
v -0.018284 -0.001084 -0.026522
v -0.021107 -0.005161 -0.034355
v -0.021107 -0.004455 -0.043599
v -0.018284 0.000763 -0.050722
v -0.013717 0.008500 -0.053005
v -0.009149 0.015802 -0.049574
v -0.006326 0.019879 -0.041741
v -0.006326 0.019173 -0.032498
v -0.009149 0.013955 -0.025374
v 0.008077 -0.006943 -0.024096
v 0.003509 -0.014245 -0.027526
v 0.000686 -0.018321 -0.035359
v 0.000686 -0.017616 -0.044603
v 0.003509 -0.012398 -0.051727
v 0.008077 -0.004660 -0.054009
v 0.012644 0.002641 -0.050579
v 0.015467 0.006718 -0.042746
v 0.015467 0.006013 -0.033502
v 0.012644 0.000794 -0.026379
v 0.008983 -0.005802 -0.024080
v 0.010866 -0.014374 -0.027064
v 0.011684 -0.019673 -0.034627
v 0.011124 -0.019673 -0.043881
v 0.009400 -0.014374 -0.051290
v 0.007170 -0.005802 -0.054025
v 0.005287 0.002771 -0.051041
v 0.004469 0.008069 -0.043478
v 0.005029 0.008069 -0.034224
v 0.006753 0.002771 -0.026815
v 0.032288 -0.000191 -0.025491
v 0.034171 -0.008763 -0.028475
v 0.034989 -0.014061 -0.036038
v 0.034429 -0.014061 -0.045292
v 0.032705 -0.008763 -0.052701
v 0.030475 -0.000191 -0.055436
v 0.028592 0.008382 -0.052452
v 0.027774 0.013680 -0.044889
v 0.028334 0.013680 -0.035635
v 0.030058 0.008382 -0.028226
v 0.031381 0.001686 -0.055346
v 0.023780 0.005759 -0.051945
v 0.019082 0.007560 -0.044158
v 0.019082 0.006400 -0.034961
v 0.023780 0.002723 -0.027865
v 0.031381 -0.002067 -0.025581
v 0.038983 -0.006140 -0.028983
v 0.043681 -0.007941 -0.036769
v 0.043681 -0.006781 -0.045967
v 0.038983 -0.003104 -0.053062
v 0.040016 0.016265 -0.053507
v 0.032414 0.020338 -0.050106
v 0.027716 0.022139 -0.042320
v 0.027716 0.020979 -0.033122
v 0.032414 0.017302 -0.026026
v 0.040016 0.012512 -0.023743
v 0.047617 0.008439 -0.027144
v 0.052315 0.006638 -0.034930
v 0.052315 0.007798 -0.044128
v 0.047617 0.011475 -0.051224
f 1 2 13
f 2 14 13
f 2 3 14
f 3 15 14
f 3 4 15
f 4 16 15
f 4 5 16
f 5 17 16
f 5 6 17
f 6 18 17
f 6 7 18
f 7 19 18
f 7 8 19
f 8 20 19
f 8 9 20
f 9 21 20
f 9 10 21
f 10 22 21
f 10 11 22
f 11 23 22
f 11 12 23
f 12 24 23
f 13 14 25
f 14 26 25
f 14 15 26
f 15 27 26
f 15 16 27
f 16 28 27
f 16 17 28
f 17 29 28
f 17 18 29
f 18 30 29
f 18 19 30
f 19 31 30
f 19 20 31
f 20 32 31
f 20 21 32
f 21 33 32
f 21 22 33
f 22 34 33
f 22 23 34
f 23 35 34
f 23 24 35
f 24 36 35
f 25 26 37
f 26 38 37
f 26 27 38
f 27 39 38
f 27 28 39
f 28 40 39
f 28 29 40
f 29 41 40
f 29 30 41
f 30 42 41
f 30 31 42
f 31 43 42
f 31 32 43
f 32 44 43
f 32 33 44
f 33 45 44
f 33 34 45
f 34 46 45
f 34 35 46
f 35 47 46
f 35 36 47
f 36 48 47
f 37 38 49
f 38 50 49
f 38 39 50
f 39 51 50
f 39 40 51
f 40 52 51
f 40 41 52
f 41 53 52
f 41 42 53
f 42 54 53
f 42 43 54
f 43 55 54
f 43 44 55
f 44 56 55
f 44 45 56
f 45 57 56
f 45 46 57
f 46 58 57
f 46 47 58
f 47 59 58
f 47 48 59
f 48 60 59
f 49 50 61
f 50 62 61
f 50 51 62
f 51 63 62
f 51 52 63
f 52 64 63
f 52 53 64
f 53 65 64
f 53 54 65
f 54 66 65
f 54 55 66
f 55 67 66
f 55 56 67
f 56 68 67
f 56 57 68
f 57 69 68
f 57 58 69
f 58 70 69
f 58 59 70
f 59 71 70
f 59 60 71
f 60 72 71
f 61 62 73
f 62 74 73
f 62 63 74
f 63 75 74
f 63 64 75
f 64 76 75
f 64 65 76
f 65 77 76
f 65 66 77
f 66 78 77
f 66 67 78
f 67 79 78
f 67 68 79
f 68 80 79
f 68 69 80
f 69 81 80
f 69 70 81
f 70 82 81
f 70 71 82
f 71 83 82
f 71 72 83
f 72 84 83
f 73 74 85
f 74 86 85
f 74 75 86
f 75 87 86
f 75 76 87
f 76 88 87
f 76 77 88
f 77 89 88
f 77 78 89
f 78 90 89
f 78 79 90
f 79 91 90
f 79 80 91
f 80 92 91
f 80 81 92
f 81 93 92
f 81 82 93
f 82 94 93
f 82 83 94
f 83 95 94
f 83 84 95
f 84 96 95
f 85 86 97
f 86 98 97
f 86 87 98
f 87 99 98
f 87 88 99
f 88 100 99
f 88 89 100
f 89 101 100
f 89 90 101
f 90 102 101
f 90 91 102
f 91 103 102
f 91 92 103
f 92 104 103
f 92 93 104
f 93 105 104
f 93 94 105
f 94 106 105
f 94 95 106
f 95 107 106
f 95 96 107
f 96 108 107
f 97 98 109
f 98 110 109
f 98 99 110
f 99 111 110
f 99 100 111
f 100 112 111
f 100 101 112
f 101 113 112
f 101 102 113
f 102 114 113
f 102 103 114
f 103 115 114
f 103 104 115
f 104 116 115
f 104 105 116
f 105 117 116
f 105 106 117
f 106 118 117
f 106 107 118
f 107 119 118
f 107 108 119
f 108 120 119
f 109 110 121
f 110 122 121
f 110 111 122
f 111 123 122
f 111 112 123
f 112 124 123
f 112 113 124
f 113 125 124
f 113 114 125
f 114 126 125
f 114 115 126
f 115 127 126
f 115 116 127
f 116 128 127
f 116 117 128
f 117 129 128
f 117 118 129
f 118 130 129
f 118 119 130
f 119 131 130
f 119 120 131
f 120 132 131
f 121 122 133
f 122 134 133
f 122 123 134
f 123 135 134
f 123 124 135
f 124 136 135
f 124 125 136
f 125 137 136
f 125 126 137
f 126 138 137
f 126 127 138
f 127 139 138
f 127 128 139
f 128 140 139
f 128 129 140
f 129 141 140
f 129 130 141
f 130 142 141
f 130 131 142
f 131 143 142
f 131 132 143
f 132 144 143
f 145 146 155
f 146 156 155
f 146 147 156
f 147 157 156
f 147 148 157
f 148 158 157
f 148 149 158
f 149 159 158
f 149 150 159
f 150 160 159
f 150 151 160
f 151 161 160
f 151 152 161
f 152 162 161
f 152 153 162
f 153 163 162
f 153 154 163
f 154 164 163
f 154 145 164
f 145 155 164
f 165 166 175
f 166 176 175
f 166 167 176
f 167 177 176
f 167 168 177
f 168 178 177
f 168 169 178
f 169 179 178
f 169 170 179
f 170 180 179
f 170 171 180
f 171 181 180
f 171 172 181
f 172 182 181
f 172 173 182
f 173 183 182
f 173 174 183
f 174 184 183
f 174 165 184
f 165 175 184
f 185 186 195
f 186 196 195
f 186 187 196
f 187 197 196
f 187 188 197
f 188 198 197
f 188 189 198
f 189 199 198
f 189 190 199
f 190 200 199
f 190 191 200
f 191 201 200
f 191 192 201
f 192 202 201
f 192 193 202
f 193 203 202
f 193 194 203
f 194 204 203
f 194 185 204
f 185 195 204
f 205 206 215
f 206 216 215
f 206 207 216
f 207 217 216
f 207 208 217
f 208 218 217
f 208 209 218
f 209 219 218
f 209 210 219
f 210 220 219
f 210 211 220
f 211 221 220
f 211 212 221
f 212 222 221
f 212 213 222
f 213 223 222
f 213 214 223
f 214 224 223
f 214 205 224
f 205 215 224
f 225 226 235
f 226 236 235
f 226 227 236
f 227 237 236
f 227 228 237
f 228 238 237
f 228 229 238
f 229 239 238
f 229 230 239
f 230 240 239
f 230 231 240
f 231 241 240
f 231 232 241
f 232 242 241
f 232 233 242
f 233 243 242
f 233 234 243
f 234 244 243
f 234 225 244
f 225 235 244
f 245 246 255
f 246 256 255
f 246 247 256
f 247 257 256
f 247 248 257
f 248 258 257
f 248 249 258
f 249 259 258
f 249 250 259
f 250 260 259
f 250 251 260
f 251 261 260
f 251 252 261
f 252 262 261
f 252 253 262
f 253 263 262
f 253 254 263
f 254 264 263
f 254 245 264
f 245 255 264
f 265 266 275
f 266 276 275
f 266 267 276
f 267 277 276
f 267 268 277
f 268 278 277
f 268 269 278
f 269 279 278
f 269 270 279
f 270 280 279
f 270 271 280
f 271 281 280
f 271 272 281
f 272 282 281
f 272 273 282
f 273 283 282
f 273 274 283
f 274 284 283
f 274 265 284
f 265 275 284
f 285 286 295
f 286 296 295
f 286 287 296
f 287 297 296
f 287 288 297
f 288 298 297
f 288 289 298
f 289 299 298
f 289 290 299
f 290 300 299
f 290 291 300
f 291 301 300
f 291 292 301
f 292 302 301
f 292 293 302
f 293 303 302
f 293 294 303
f 294 304 303
f 294 285 304
f 285 295 304
f 305 306 315
f 306 316 315
f 306 307 316
f 307 317 316
f 307 308 317
f 308 318 317
f 308 309 318
f 309 319 318
f 309 310 319
f 310 320 319
f 310 311 320
f 311 321 320
f 311 312 321
f 312 322 321
f 312 313 322
f 313 323 322
f 313 314 323
f 314 324 323
f 314 305 324
f 305 315 324
f 325 326 335
f 326 336 335
f 326 327 336
f 327 337 336
f 327 328 337
f 328 338 337
f 328 329 338
f 329 339 338
f 329 330 339
f 330 340 339
f 330 331 340
f 331 341 340
f 331 332 341
f 332 342 341
f 332 333 342
f 333 343 342
f 333 334 343
f 334 344 343
f 334 325 344
f 325 335 344
f 345 346 355
f 346 356 355
f 346 347 356
f 347 357 356
f 347 348 357
f 348 358 357
f 348 349 358
f 349 359 358
f 349 350 359
f 350 360 359
f 350 351 360
f 351 361 360
f 351 352 361
f 352 362 361
f 352 353 362
f 353 363 362
f 353 354 363
f 354 364 363
f 354 345 364
f 345 355 364
f 365 366 375
f 366 376 375
f 366 367 376
f 367 377 376
f 367 368 377
f 368 378 377
f 368 369 378
f 369 379 378
f 369 370 379
f 370 380 379
f 370 371 380
f 371 381 380
f 371 372 381
f 372 382 381
f 372 373 382
f 373 383 382
f 373 374 383
f 374 384 383
f 374 365 384
f 365 375 384
f 385 386 395
f 386 396 395
f 386 387 396
f 387 397 396
f 387 388 397
f 388 398 397
f 388 389 398
f 389 399 398
f 389 390 399
f 390 400 399
f 390 391 400
f 391 401 400
f 391 392 401
f 392 402 401
f 392 393 402
f 393 403 402
f 393 394 403
f 394 404 403
f 394 385 404
f 385 395 404
f 405 406 415
f 406 416 415
f 406 407 416
f 407 417 416
f 407 408 417
f 408 418 417
f 408 409 418
f 409 419 418
f 409 410 419
f 410 420 419
f 410 411 420
f 411 421 420
f 411 412 421
f 412 422 421
f 412 413 422
f 413 423 422
f 413 414 423
f 414 424 423
f 414 405 424
f 405 415 424
f 425 426 435
f 426 436 435
f 426 427 436
f 427 437 436
f 427 428 437
f 428 438 437
f 428 429 438
f 429 439 438
f 429 430 439
f 430 440 439
f 430 431 440
f 431 441 440
f 431 432 441
f 432 442 441
f 432 433 442
f 433 443 442
f 433 434 443
f 434 444 443
f 434 425 444
f 425 435 444
f 445 446 455
f 446 456 455
f 446 447 456
f 447 457 456
f 447 448 457
f 448 458 457
f 448 449 458
f 449 459 458
f 449 450 459
f 450 460 459
f 450 451 460
f 451 461 460
f 451 452 461
f 452 462 461
f 452 453 462
f 453 463 462
f 453 454 463
f 454 464 463
f 454 445 464
f 445 455 464
f 465 466 475
f 466 476 475
f 466 467 476
f 467 477 476
f 467 468 477
f 468 478 477
f 468 469 478
f 469 479 478
f 469 470 479
f 470 480 479
f 470 471 480
f 471 481 480
f 471 472 481
f 472 482 481
f 472 473 482
f 473 483 482
f 473 474 483
f 474 484 483
f 474 465 484
f 465 475 484
f 485 486 495
f 486 496 495
f 486 487 496
f 487 497 496
f 487 488 497
f 488 498 497
f 488 489 498
f 489 499 498
f 489 490 499
f 490 500 499
f 490 491 500
f 491 501 500
f 491 492 501
f 492 502 501
f 492 493 502
f 493 503 502
f 493 494 503
f 494 504 503
f 494 485 504
f 485 495 504
f 505 506 515
f 506 516 515
f 506 507 516
f 507 517 516
f 507 508 517
f 508 518 517
f 508 509 518
f 509 519 518
f 509 510 519
f 510 520 519
f 510 511 520
f 511 521 520
f 511 512 521
f 512 522 521
f 512 513 522
f 513 523 522
f 513 514 523
f 514 524 523
f 514 505 524
f 505 515 524
f 525 526 535
f 526 536 535
f 526 527 536
f 527 537 536
f 527 528 537
f 528 538 537
f 528 529 538
f 529 539 538
f 529 530 539
f 530 540 539
f 530 531 540
f 531 541 540
f 531 532 541
f 532 542 541
f 532 533 542
f 533 543 542
f 533 534 543
f 534 544 543
f 534 525 544
f 525 535 544
f 545 546 555
f 546 556 555
f 546 547 556
f 547 557 556
f 547 548 557
f 548 558 557
f 548 549 558
f 549 559 558
f 549 550 559
f 550 560 559
f 550 551 560
f 551 561 560
f 551 552 561
f 552 562 561
f 552 553 562
f 553 563 562
f 553 554 563
f 554 564 563
f 554 545 564
f 545 555 564
f 565 566 575
f 566 576 575
f 566 567 576
f 567 577 576
f 567 568 577
f 568 578 577
f 568 569 578
f 569 579 578
f 569 570 579
f 570 580 579
f 570 571 580
f 571 581 580
f 571 572 581
f 572 582 581
f 572 573 582
f 573 583 582
f 573 574 583
f 574 584 583
f 574 565 584
f 565 575 584
f 585 586 595
f 586 596 595
f 586 587 596
f 587 597 596
f 587 588 597
f 588 598 597
f 588 589 598
f 589 599 598
f 589 590 599
f 590 600 599
f 590 591 600
f 591 601 600
f 591 592 601
f 592 602 601
f 592 593 602
f 593 603 602
f 593 594 603
f 594 604 603
f 594 585 604
f 585 595 604
f 605 606 615
f 606 616 615
f 606 607 616
f 607 617 616
f 607 608 617
f 608 618 617
f 608 609 618
f 609 619 618
f 609 610 619
f 610 620 619
f 610 611 620
f 611 621 620
f 611 612 621
f 612 622 621
f 612 613 622
f 613 623 622
f 613 614 623
f 614 624 623
f 614 605 624
f 605 615 624
f 625 626 635
f 626 636 635
f 626 627 636
f 627 637 636
f 627 628 637
f 628 638 637
f 628 629 638
f 629 639 638
f 629 630 639
f 630 640 639
f 630 631 640
f 631 641 640
f 631 632 641
f 632 642 641
f 632 633 642
f 633 643 642
f 633 634 643
f 634 644 643
f 634 625 644
f 625 635 644
f 645 646 655
f 646 656 655
f 646 647 656
f 647 657 656
f 647 648 657
f 648 658 657
f 648 649 658
f 649 659 658
f 649 650 659
f 650 660 659
f 650 651 660
f 651 661 660
f 651 652 661
f 652 662 661
f 652 653 662
f 653 663 662
f 653 654 663
f 654 664 663
f 654 645 664
f 645 655 664
f 665 666 675
f 666 676 675
f 666 667 676
f 667 677 676
f 667 668 677
f 668 678 677
f 668 669 678
f 669 679 678
f 669 670 679
f 670 680 679
f 670 671 680
f 671 681 680
f 671 672 681
f 672 682 681
f 672 673 682
f 673 683 682
f 673 674 683
f 674 684 683
f 674 665 684
f 665 675 684
f 685 686 695
f 686 696 695
f 686 687 696
f 687 697 696
f 687 688 697
f 688 698 697
f 688 689 698
f 689 699 698
f 689 690 699
f 690 700 699
f 690 691 700
f 691 701 700
f 691 692 701
f 692 702 701
f 692 693 702
f 693 703 702
f 693 694 703
f 694 704 703
f 694 685 704
f 685 695 704
f 705 706 715
f 706 716 715
f 706 707 716
f 707 717 716
f 707 708 717
f 708 718 717
f 708 709 718
f 709 719 718
f 709 710 719
f 710 720 719
f 710 711 720
f 711 721 720
f 711 712 721
f 712 722 721
f 712 713 722
f 713 723 722
f 713 714 723
f 714 724 723
f 714 705 724
f 705 715 724
f 725 726 735
f 726 736 735
f 726 727 736
f 727 737 736
f 727 728 737
f 728 738 737
f 728 729 738
f 729 739 738
f 729 730 739
f 730 740 739
f 730 731 740
f 731 741 740
f 731 732 741
f 732 742 741
f 732 733 742
f 733 743 742
f 733 734 743
f 734 744 743
f 734 725 744
f 725 735 744
f 745 746 755
f 746 756 755
f 746 747 756
f 747 757 756
f 747 748 757
f 748 758 757
f 748 749 758
f 749 759 758
f 749 750 759
f 750 760 759
f 750 751 760
f 751 761 760
f 751 752 761
f 752 762 761
f 752 753 762
f 753 763 762
f 753 754 763
f 754 764 763
f 754 745 764
f 745 755 764
f 765 766 775
f 766 776 775
f 766 767 776
f 767 777 776
f 767 768 777
f 768 778 777
f 768 769 778
f 769 779 778
f 769 770 779
f 770 780 779
f 770 771 780
f 771 781 780
f 771 772 781
f 772 782 781
f 772 773 782
f 773 783 782
f 773 774 783
f 774 784 783
f 774 765 784
f 765 775 784
