# Full-Body 3D Mesh - Frame 58
v 0.033136 -0.605454 -0.124217
v 0.066944 -0.605454 -0.129078
v 0.098013 -0.605454 -0.143266
v 0.123826 -0.605454 -0.165633
v 0.142292 -0.605454 -0.194367
v 0.151915 -0.605454 -0.227139
v 0.151915 -0.605454 -0.261295
v 0.142292 -0.605454 -0.294067
v 0.123826 -0.605454 -0.322800
v 0.098013 -0.605454 -0.345167
v 0.066944 -0.605454 -0.359356
v 0.033136 -0.605454 -0.364217
v 0.033136 -0.605454 -0.124217
v 0.061577 -0.587176 -0.129078
v 0.087714 -0.570379 -0.143266
v 0.109430 -0.556423 -0.165633
v 0.124964 -0.546440 -0.194367
v 0.133059 -0.541237 -0.227139
v 0.133059 -0.541237 -0.261295
v 0.124964 -0.546440 -0.294067
v 0.109430 -0.556423 -0.322800
v 0.087714 -0.570379 -0.345167
v 0.061577 -0.587176 -0.359356
v 0.033136 -0.605454 -0.364217
v 0.033136 -0.605454 -0.124217
v 0.047181 -0.574701 -0.129078
v 0.060087 -0.546440 -0.143266
v 0.070810 -0.522959 -0.165633
v 0.078481 -0.506162 -0.194367
v 0.082479 -0.497409 -0.227139
v 0.082479 -0.497409 -0.261295
v 0.078481 -0.506162 -0.294067
v 0.070810 -0.522959 -0.322800
v 0.060087 -0.546440 -0.345167
v 0.047181 -0.574701 -0.359356
v 0.033136 -0.605454 -0.364217
v 0.033136 -0.605454 -0.124217
v 0.028325 -0.571990 -0.129078
v 0.023903 -0.541237 -0.143266
v 0.020230 -0.515687 -0.165633
v 0.017602 -0.497409 -0.194367
v 0.016232 -0.487884 -0.227139
v 0.016232 -0.487884 -0.261295
v 0.017602 -0.497409 -0.294067
v 0.020230 -0.515687 -0.322800
v 0.023903 -0.541237 -0.345167
v 0.028325 -0.571990 -0.359356
v 0.033136 -0.605454 -0.364217
v 0.033136 -0.605454 -0.124217
v 0.010997 -0.579903 -0.129078
v -0.009349 -0.556423 -0.143266
v -0.026253 -0.536915 -0.165633
v -0.038345 -0.522959 -0.194367
v -0.044647 -0.515687 -0.227139
v -0.044647 -0.515687 -0.261295
v -0.038345 -0.522959 -0.294067
v -0.026253 -0.536915 -0.322800
v -0.009349 -0.556423 -0.345167
v 0.010997 -0.579903 -0.359356
v 0.033136 -0.605454 -0.364217
v 0.033136 -0.605454 -0.124217
v 0.000698 -0.595929 -0.129078
v -0.029113 -0.587176 -0.143266
v -0.053880 -0.579903 -0.165633
v -0.071598 -0.574701 -0.194367
v -0.080831 -0.571990 -0.227139
v -0.080831 -0.571990 -0.261295
v -0.071598 -0.574701 -0.294067
v -0.053880 -0.579903 -0.322800
v -0.029113 -0.587176 -0.345167
v 0.000698 -0.595929 -0.359356
v 0.033136 -0.605454 -0.364217
v 0.033136 -0.605454 -0.124217
v 0.000698 -0.614978 -0.129078
v -0.029113 -0.623732 -0.143266
v -0.053880 -0.631004 -0.165633
v -0.071598 -0.636207 -0.194367
v -0.080831 -0.638918 -0.227139
v -0.080831 -0.638918 -0.261295
v -0.071598 -0.636207 -0.294067
v -0.053880 -0.631004 -0.322800
v -0.029113 -0.623732 -0.345167
v 0.000698 -0.614978 -0.359356
v 0.033136 -0.605454 -0.364217
v 0.033136 -0.605454 -0.124217
v 0.010997 -0.631004 -0.129078
v -0.009349 -0.654484 -0.143266
v -0.026253 -0.673993 -0.165633
v -0.038345 -0.687948 -0.194367
v -0.044647 -0.695221 -0.227139
v -0.044647 -0.695221 -0.261295
v -0.038345 -0.687948 -0.294067
v -0.026253 -0.673993 -0.322800
v -0.009349 -0.654484 -0.345167
v 0.010997 -0.631004 -0.359356
v 0.033136 -0.605454 -0.364217
v 0.033136 -0.605454 -0.124217
v 0.028325 -0.638918 -0.129078
v 0.023903 -0.669670 -0.143266
v 0.020230 -0.695221 -0.165633
v 0.017602 -0.713499 -0.194367
v 0.016232 -0.723023 -0.227139
v 0.016232 -0.723023 -0.261295
v 0.017602 -0.713499 -0.294067
v 0.020230 -0.695221 -0.322800
v 0.023903 -0.669670 -0.345167
v 0.028325 -0.638918 -0.359356
v 0.033136 -0.605454 -0.364217
v 0.033136 -0.605454 -0.124217
v 0.047181 -0.636207 -0.129078
v 0.060087 -0.664468 -0.143266
v 0.070810 -0.687948 -0.165633
v 0.078481 -0.704745 -0.194367
v 0.082479 -0.713499 -0.227139
v 0.082479 -0.713499 -0.261295
v 0.078481 -0.704745 -0.294067
v 0.070810 -0.687948 -0.322800
v 0.060087 -0.664468 -0.345167
v 0.047181 -0.636207 -0.359356
v 0.033136 -0.605454 -0.364217
v 0.033136 -0.605454 -0.124217
v 0.061577 -0.623732 -0.129078
v 0.087714 -0.640529 -0.143266
v 0.109430 -0.654484 -0.165633
v 0.124964 -0.664468 -0.194367
v 0.133059 -0.669670 -0.227139
v 0.133059 -0.669670 -0.261295
v 0.124964 -0.664468 -0.294067
v 0.109430 -0.654484 -0.322800
v 0.087714 -0.640529 -0.345167
v 0.061577 -0.623732 -0.359356
v 0.033136 -0.605454 -0.364217
v 0.033136 -0.605454 -0.124217
v 0.066944 -0.605454 -0.129078
v 0.098013 -0.605454 -0.143266
v 0.123826 -0.605454 -0.165633
v 0.142292 -0.605454 -0.194367
v 0.151915 -0.605454 -0.227139
v 0.151915 -0.605454 -0.261295
v 0.142292 -0.605454 -0.294067
v 0.123826 -0.605454 -0.322800
v 0.098013 -0.605454 -0.345167
v 0.066944 -0.605454 -0.359356
v 0.033136 -0.605454 -0.364217
v 0.190508 -0.461258 -0.095122
v 0.189722 -0.484756 -0.087481
v 0.189267 -0.499278 -0.067480
v 0.189318 -0.499278 -0.042759
v 0.189854 -0.484756 -0.022760
v 0.190671 -0.461258 -0.015122
v 0.191457 -0.437761 -0.022763
v 0.191912 -0.423238 -0.042764
v 0.191862 -0.423238 -0.067485
v 0.191326 -0.437761 -0.087484
v -0.143570 -0.449860 -0.094444
v -0.144356 -0.473358 -0.086803
v -0.144811 -0.487880 -0.066802
v -0.144761 -0.487880 -0.042081
v -0.144225 -0.473358 -0.022082
v -0.143408 -0.449860 -0.014444
v -0.142622 -0.426363 -0.022085
v -0.142167 -0.411840 -0.042086
v -0.142217 -0.411840 -0.066807
v -0.142753 -0.426363 -0.086806
v 0.190590 -0.487868 -0.084987
v 0.170515 -0.473648 -0.087426
v 0.158108 -0.454695 -0.077525
v 0.158108 -0.438250 -0.059067
v 0.170515 -0.430593 -0.039103
v 0.190590 -0.434649 -0.025257
v 0.210664 -0.448869 -0.022819
v 0.223071 -0.467821 -0.032719
v 0.223071 -0.484267 -0.051177
v 0.210664 -0.491924 -0.071141
v 0.303548 -0.349538 -0.208238
v 0.283474 -0.335318 -0.210676
v 0.271067 -0.316365 -0.200776
v 0.271067 -0.299920 -0.182318
v 0.283474 -0.292263 -0.162353
v 0.303548 -0.296319 -0.148508
v 0.323623 -0.310539 -0.146069
v 0.336030 -0.329491 -0.155970
v 0.336030 -0.345937 -0.174427
v 0.323623 -0.353594 -0.194392
v 0.303548 -0.360729 -0.165291
v 0.287641 -0.347848 -0.151429
v 0.277809 -0.325448 -0.147858
v 0.277809 -0.302086 -0.155943
v 0.287641 -0.286685 -0.172595
v 0.303548 -0.285128 -0.191454
v 0.319456 -0.298009 -0.205317
v 0.329287 -0.320409 -0.208888
v 0.329287 -0.343771 -0.200803
v 0.319456 -0.359172 -0.184151
v 0.099760 -0.421965 -0.342241
v 0.083853 -0.409084 -0.328379
v 0.074021 -0.386684 -0.324808
v 0.074021 -0.363322 -0.332893
v 0.083853 -0.347921 -0.349545
v 0.099760 -0.346364 -0.368404
v 0.115668 -0.359245 -0.382267
v 0.125499 -0.381644 -0.385838
v 0.125499 -0.405006 -0.377753
v 0.115668 -0.420407 -0.361101
v -0.143489 -0.463954 -0.091879
v -0.163348 -0.473041 -0.080295
v -0.175622 -0.473273 -0.058837
v -0.175622 -0.464563 -0.035701
v -0.163348 -0.450236 -0.019724
v -0.143489 -0.435766 -0.017009
v -0.123630 -0.426680 -0.028593
v -0.111356 -0.426447 -0.050051
v -0.111356 -0.435158 -0.073187
v -0.123630 -0.449484 -0.089164
v -0.255518 -0.298516 -0.154166
v -0.275377 -0.307602 -0.142582
v -0.287651 -0.307835 -0.121124
v -0.287651 -0.299124 -0.097988
v -0.275377 -0.284798 -0.082011
v -0.255518 -0.270328 -0.079296
v -0.235659 -0.261241 -0.090880
v -0.223385 -0.261009 -0.112338
v -0.223385 -0.269719 -0.135474
v -0.235659 -0.284046 -0.151451
v -0.255518 -0.319776 -0.135441
v -0.273208 -0.305780 -0.145556
v -0.284140 -0.283625 -0.144662
v -0.284140 -0.261775 -0.133098
v -0.273208 -0.248575 -0.115283
v -0.255518 -0.249067 -0.098021
v -0.237828 -0.263064 -0.087906
v -0.226895 -0.285218 -0.088800
v -0.226895 -0.307068 -0.100364
v -0.237828 -0.320268 -0.118179
v -0.117297 -0.245929 -0.274981
v -0.134987 -0.231933 -0.285097
v -0.145920 -0.209779 -0.284202
v -0.145920 -0.187928 -0.272638
v -0.134987 -0.174728 -0.254823
v -0.117297 -0.175221 -0.237561
v -0.099607 -0.189217 -0.227446
v -0.088674 -0.211371 -0.228341
v -0.088674 -0.233222 -0.239904
v -0.099607 -0.246422 -0.257719
v 0.190590 -0.455109 -0.094647
v 0.167353 -0.459822 -0.087648
v 0.152991 -0.465083 -0.068226
v 0.152991 -0.468883 -0.043799
v 0.167353 -0.469771 -0.023696
v 0.190590 -0.467407 -0.015598
v 0.213827 -0.462695 -0.022596
v 0.228188 -0.457434 -0.042018
v 0.228188 -0.453634 -0.066445
v 0.213827 -0.452746 -0.086548
v 0.118374 0.007994 -0.022598
v 0.095137 0.003281 -0.015600
v 0.080775 -0.001980 0.003822
v 0.080775 -0.005780 0.028250
v 0.095137 -0.006668 0.048352
v 0.118374 -0.004305 0.056451
v 0.141611 0.000408 0.049453
v 0.155972 0.005669 0.030031
v 0.155972 0.009469 0.005603
v 0.141611 0.010357 -0.014499
v -0.143489 -0.446135 -0.094270
v -0.166961 -0.445495 -0.086537
v -0.181468 -0.446523 -0.066546
v -0.181468 -0.448825 -0.041932
v -0.166961 -0.451523 -0.022097
v -0.143489 -0.453586 -0.014618
v -0.120017 -0.454225 -0.022350
v -0.105510 -0.453198 -0.042341
v -0.105510 -0.450895 -0.066955
v -0.120017 -0.448198 -0.086790
v -0.118224 -0.011025 -0.053571
v -0.141696 -0.010385 -0.045838
v -0.156203 -0.011413 -0.025847
v -0.156203 -0.013715 -0.001233
v -0.141696 -0.016413 0.018602
v -0.118224 -0.018475 0.026081
v -0.094751 -0.019115 0.018349
v -0.080245 -0.018087 -0.001642
v -0.080245 -0.015785 -0.026256
v -0.094751 -0.013087 -0.046091
v 0.123516 0.001844 -0.022742
v 0.124152 -0.021610 -0.014956
v 0.122581 -0.036106 0.005008
v 0.119403 -0.036106 0.029524
v 0.115831 -0.021610 0.049228
v 0.113231 0.001844 0.056594
v 0.112596 0.025299 0.048809
v 0.114167 0.039795 0.028845
v 0.117345 0.039795 0.004329
v 0.120916 0.025299 -0.015375
v -0.113081 -0.014750 -0.053413
v -0.112446 -0.038205 -0.045627
v -0.114017 -0.052701 -0.025663
v -0.117195 -0.052701 -0.001147
v -0.120766 -0.038205 0.018557
v -0.123366 -0.014750 0.025923
v -0.124002 0.008705 0.018138
v -0.122431 0.023201 -0.001826
v -0.119252 0.023201 -0.026342
v -0.115681 0.008705 -0.046047
v 0.118374 0.000623 -0.023055
v 0.094970 -0.001394 -0.015350
v 0.080506 -0.002174 0.004683
v 0.080506 -0.001420 0.029393
v 0.094970 0.000582 0.049341
v 0.118374 0.003066 0.056908
v 0.141777 0.005083 0.049203
v 0.156241 0.005863 0.029170
v 0.156241 0.005108 0.004460
v 0.141777 0.003107 -0.015488
v 0.096720 0.225599 -0.029926
v 0.073316 0.223582 -0.022222
v 0.058852 0.222802 -0.002189
v 0.058852 0.223557 0.022521
v 0.073316 0.225558 0.042469
v 0.096720 0.228042 0.050036
v 0.120123 0.230059 0.042332
v 0.134587 0.230839 0.022299
v 0.134587 0.230085 -0.002411
v 0.120123 0.228083 -0.022359
v 0.096720 0.248342 -0.023662
v 0.073210 0.244469 -0.017071
v 0.058680 0.233855 -0.000119
v 0.058680 0.220554 0.020719
v 0.073210 0.209647 0.037484
v 0.096720 0.205299 0.043772
v 0.120229 0.209172 0.037181
v 0.134759 0.219786 0.020229
v 0.134759 0.233087 -0.000609
v 0.120229 0.243995 -0.017374
v 0.100824 0.537146 0.160683
v 0.077314 0.533273 0.167274
v 0.062784 0.522659 0.184226
v 0.062784 0.509358 0.205064
v 0.077314 0.498451 0.221829
v 0.100824 0.494103 0.228117
v 0.124334 0.497976 0.221526
v 0.138863 0.508590 0.204574
v 0.138863 0.521891 0.183736
v 0.124334 0.532798 0.166971
v -0.118224 -0.047883 -0.036155
v -0.140725 -0.037736 -0.037522
v -0.154632 -0.018809 -0.029807
v -0.154632 0.001669 -0.015956
v -0.140725 0.015874 -0.001261
v -0.118224 0.018383 0.008666
v -0.095722 0.008236 0.010032
v -0.081816 -0.010691 0.002317
v -0.081816 -0.031169 -0.011533
v -0.095722 -0.045374 -0.026228
v -0.072367 0.036914 -0.161524
v -0.094869 0.047061 -0.162891
v -0.108775 0.065988 -0.155176
v -0.108775 0.086465 -0.141326
v -0.094869 0.100671 -0.126630
v -0.072367 0.103179 -0.116704
v -0.049866 0.093032 -0.115337
v -0.035960 0.074105 -0.123052
v -0.035960 0.053628 -0.136902
v -0.049866 0.039422 -0.151597
v -0.072367 0.076872 -0.178527
v -0.095699 0.078426 -0.170505
v -0.110119 0.076780 -0.150492
v -0.110119 0.072561 -0.126134
v -0.095699 0.067382 -0.106733
v -0.072367 0.063221 -0.099700
v -0.049036 0.061667 -0.107723
v -0.034616 0.063313 -0.127735
v -0.034616 0.067532 -0.152094
v -0.049036 0.072711 -0.171495
v -0.044515 0.297642 -0.140294
v -0.067847 0.299196 -0.132272
v -0.082267 0.297550 -0.112259
v -0.082267 0.293331 -0.087900
v -0.067847 0.288152 -0.068500
v -0.044515 0.283991 -0.061467
v -0.021184 0.282436 -0.069489
v -0.006764 0.284083 -0.089502
v -0.006764 0.288301 -0.113861
v -0.021184 0.293481 -0.133262
v -0.063794 0.019021 0.012643
v -0.071795 0.014348 0.012371
v -0.076741 0.008222 0.007476
v -0.076741 0.002984 -0.000173
v -0.071795 0.000635 -0.007654
v -0.063794 0.002071 -0.012110
v -0.055792 0.006745 -0.011838
v -0.050847 0.012870 -0.006942
v -0.050847 0.018108 0.000707
v -0.055792 0.020458 0.008188
v -0.059937 0.012144 0.017352
v -0.067939 0.007471 0.017081
v -0.072884 0.001345 0.012185
v -0.072884 -0.003893 0.004536
v -0.067939 -0.006242 -0.002945
v -0.059937 -0.004806 -0.007400
v -0.051935 -0.000132 -0.007129
v -0.046990 0.005993 -0.002233
v -0.046990 0.011231 0.005416
v -0.051935 0.013581 0.012897
v -0.059937 0.013672 0.016154
v -0.065056 0.006412 0.018806
v -0.068219 -0.001896 0.016176
v -0.068219 -0.008078 0.009267
v -0.065056 -0.009773 0.000720
v -0.059937 -0.006333 -0.006202
v -0.054818 0.000927 -0.008854
v -0.051655 0.009234 -0.006224
v -0.051655 0.015416 0.000685
v -0.054818 0.017111 0.009233
v -0.049799 0.008284 0.020975
v -0.054917 0.001024 0.023627
v -0.058081 -0.007283 0.020996
v -0.058081 -0.013465 0.014088
v -0.054917 -0.015160 0.005540
v -0.049799 -0.011720 -0.001382
v -0.044680 -0.004460 -0.004034
v -0.041516 0.003847 -0.001403
v -0.041516 0.010029 0.005505
v -0.044680 0.011724 0.014053
v -0.049799 -0.005169 -0.004801
v -0.055694 0.001870 -0.003522
v -0.059337 0.007539 0.002845
v -0.059337 0.009672 0.011867
v -0.055694 0.007455 0.020098
v -0.049799 0.001733 0.024394
v -0.043904 -0.005306 0.023115
v -0.040261 -0.010975 0.016748
v -0.040261 -0.013108 0.007727
v -0.043904 -0.010891 -0.000505
v -0.039363 0.003961 -0.006960
v -0.045258 0.011001 -0.005680
v -0.048902 0.016670 0.000686
v -0.048902 0.018803 0.009708
v -0.045258 0.016585 0.017939
v -0.039363 0.010864 0.022235
v -0.033469 0.003825 0.020956
v -0.029825 -0.001845 0.014590
v -0.029825 -0.003978 0.005568
v -0.033469 -0.001760 -0.002663
v -0.039363 0.016193 -0.004524
v -0.047646 0.016967 -0.000432
v -0.052765 0.014091 0.006742
v -0.052765 0.008664 0.014258
v -0.047646 0.002760 0.019246
v -0.039363 -0.001367 0.019799
v -0.031081 -0.002141 0.015708
v -0.025962 0.000735 0.008533
v -0.025962 0.006161 0.001017
v -0.031081 0.012066 -0.003970
v -0.032662 0.031084 0.006227
v -0.040944 0.031858 0.010319
v -0.046063 0.028982 0.017493
v -0.046063 0.023555 0.025009
v -0.040944 0.017651 0.029997
v -0.032662 0.013524 0.030550
v -0.024379 0.012750 0.026458
v -0.019260 0.015626 0.019284
v -0.019260 0.021052 0.011768
v -0.024379 0.026957 0.006780
v -0.066082 0.010546 0.015091
v -0.067959 0.002046 0.011903
v -0.068245 -0.003207 0.004270
v -0.066830 -0.003207 -0.004892
v -0.064256 0.002046 -0.012084
v -0.061505 0.010546 -0.014558
v -0.059628 0.019047 -0.011369
v -0.059342 0.024300 -0.003736
v -0.060757 0.024300 0.005426
v -0.063331 0.019047 0.012617
v -0.007808 -0.005695 0.024088
v -0.009685 -0.014195 0.020899
v -0.009971 -0.019449 0.013266
v -0.008557 -0.019449 0.004104
v -0.005982 -0.014195 -0.003087
v -0.003231 -0.005695 -0.005561
v -0.001354 0.002805 -0.002373
v -0.001069 0.008059 0.005260
v -0.002483 0.008059 0.014422
v -0.005057 0.002805 0.021614
v -0.003815 -0.005695 0.024166
v -0.003884 -0.014508 0.021290
v -0.004577 -0.019955 0.013821
v -0.005631 -0.019955 0.004610
v -0.006642 -0.014508 -0.002823
v -0.007225 -0.005695 -0.005640
v -0.007156 0.003118 -0.002764
v -0.006462 0.008565 0.004706
v -0.005409 0.008565 0.013916
v -0.004398 0.003118 0.021349
v 0.017252 -0.005073 0.021756
v 0.017184 -0.013886 0.018880
v 0.016490 -0.019332 0.011411
v 0.015437 -0.019332 0.002200
v 0.014425 -0.013886 -0.005233
v 0.013843 -0.005073 -0.008050
v 0.013911 0.003740 -0.005174
v 0.014605 0.009187 0.002295
v 0.015659 0.009187 0.011506
v 0.016670 0.003740 0.018939
v 0.012174 -0.005073 0.021469
v 0.013734 -0.013839 0.018889
v 0.015986 -0.019257 0.011711
v 0.018071 -0.019257 0.002678
v 0.019192 -0.013839 -0.004760
v 0.018921 -0.005073 -0.007763
v 0.017361 0.003694 -0.005182
v 0.015109 0.009112 0.001995
v 0.013024 0.009112 0.011028
v 0.011903 0.003694 0.018466
v 0.031546 -0.002942 0.025940
v 0.033106 -0.011709 0.023360
v 0.035358 -0.017127 0.016183
v 0.037443 -0.017127 0.007150
v 0.038564 -0.011709 -0.000289
v 0.038293 -0.002942 -0.003291
v 0.036734 0.005824 -0.000711
v 0.034481 0.011242 0.006466
v 0.032396 0.011242 0.015499
v 0.031275 0.005824 0.022938
v 0.036756 -0.002942 0.026212
v 0.036676 -0.011755 0.023335
v 0.035925 -0.017201 0.015871
v 0.034790 -0.017201 0.006670
v 0.033705 -0.011755 -0.000753
v 0.033084 -0.002942 -0.003563
v 0.033164 0.005870 -0.000686
v 0.033915 0.011317 0.006778
v 0.035049 0.011317 0.015979
v 0.036135 0.005870 0.023402
v 0.061923 -0.002158 0.023108
v 0.061843 -0.010970 0.020231
v 0.061092 -0.016417 0.012767
v 0.059957 -0.016417 0.003566
v 0.058872 -0.010970 -0.003857
v 0.058251 -0.002158 -0.006666
v 0.058331 0.006655 -0.003790
v 0.059082 0.012101 0.003674
v 0.060216 0.012101 0.012875
v 0.061302 0.006655 0.020298
v -0.065003 0.010546 0.015218
v -0.066297 0.001863 0.012239
v -0.066635 -0.003503 0.004687
v -0.065888 -0.003503 -0.004553
v -0.064340 0.001863 -0.011952
v -0.062584 0.010546 -0.014684
v -0.061290 0.019229 -0.011706
v -0.060952 0.024596 -0.004154
v -0.061699 0.024596 0.005087
v -0.063247 0.019229 0.012486
v -0.000023 -0.000943 0.020474
v -0.001317 -0.009626 0.017495
v -0.001655 -0.014992 0.009944
v -0.000907 -0.014992 0.000703
v 0.000640 -0.009626 -0.006696
v 0.002396 -0.000943 -0.009428
v 0.003690 0.007740 -0.006449
v 0.004028 0.013106 0.001102
v 0.003281 0.013106 0.010343
v 0.001734 0.007740 0.017742
v 0.002304 -0.000943 0.020481
v 0.000787 -0.009662 0.017722
v -0.000577 -0.015051 0.010303
v -0.001268 -0.015051 0.001058
v -0.001021 -0.009662 -0.006481
v 0.000069 -0.000943 -0.009435
v 0.001587 0.007776 -0.006676
v 0.002951 0.013165 0.000743
v 0.003641 0.013165 0.009988
v 0.003394 0.007776 0.017527
v 0.028410 -0.004868 0.018531
v 0.026893 -0.013587 0.015772
v 0.025529 -0.018976 0.008353
v 0.024838 -0.018976 -0.000892
v 0.025085 -0.013587 -0.008431
v 0.026175 -0.004868 -0.011385
v 0.027692 0.003851 -0.008626
v 0.029057 0.009240 -0.001207
v 0.029747 0.009240 0.008038
v 0.029500 0.003851 0.015577
v 0.025167 -0.004868 0.018422
v 0.024208 -0.013576 0.015390
v 0.024427 -0.018958 0.007845
v 0.025741 -0.018958 -0.001332
v 0.027647 -0.013576 -0.008635
v 0.029418 -0.004868 -0.011276
v 0.030377 0.003840 -0.008244
v 0.030158 0.009222 -0.000699
v 0.028844 0.009222 0.008478
v 0.026938 0.003840 0.015781
v 0.049574 -0.008772 0.021915
v 0.048615 -0.017480 0.018884
v 0.048834 -0.022862 0.011339
v 0.050148 -0.022862 0.002162
v 0.052054 -0.017480 -0.005141
v 0.053825 -0.008772 -0.007782
v 0.054784 -0.000064 -0.004751
v 0.054564 0.005318 0.002794
v 0.053251 0.005318 0.011971
v 0.051344 -0.000064 0.019275
v 0.048339 -0.008772 0.021686
v 0.048028 -0.017534 0.018675
v 0.049119 -0.022950 0.011230
v 0.051195 -0.022950 0.002195
v 0.053464 -0.017534 -0.004979
v 0.055059 -0.008772 -0.007552
v 0.055371 -0.000010 -0.004541
v 0.054280 0.005406 0.002904
v 0.052203 0.005406 0.011939
v 0.049934 -0.000010 0.019113
v 0.077487 -0.012110 0.028385
v 0.077176 -0.020872 0.025374
v 0.078267 -0.026288 0.017929
v 0.080343 -0.026288 0.008894
v 0.082612 -0.020872 0.001720
v 0.084207 -0.012110 -0.000853
v 0.084518 -0.003347 0.002158
v 0.083427 0.002068 0.009603
v 0.081351 0.002068 0.018638
v 0.079082 -0.003347 0.025812
v -0.062154 0.010546 0.015177
v -0.063402 0.001780 0.012432
v -0.064800 -0.003638 0.005041
v -0.065813 -0.003638 -0.004174
v -0.066055 0.001780 -0.011693
v -0.065433 0.010546 -0.014643
v -0.064185 0.019313 -0.011899
v -0.062787 0.024731 -0.004507
v -0.061774 0.024731 0.004708
v -0.061532 0.019313 0.012227
v 0.006032 0.003185 0.007680
v 0.004784 -0.005581 0.004936
v 0.003386 -0.010999 -0.002456
v 0.002373 -0.010999 -0.011671
v 0.002131 -0.005581 -0.019190
v 0.002753 0.003185 -0.022140
v 0.004001 0.011952 -0.019395
v 0.005399 0.017370 -0.012004
v 0.006412 0.017370 -0.002789
v 0.006654 0.011952 0.004730
v 0.004115 0.003185 0.007768
v 0.002480 -0.005468 0.004872
v 0.001576 -0.010817 -0.002646
v 0.001748 -0.010817 -0.011915
v 0.002930 -0.005468 -0.019394
v 0.004670 0.003185 -0.022227
v 0.006304 0.011839 -0.019332
v 0.007208 0.017187 -0.011814
v 0.007037 0.017187 -0.002545
v 0.005855 0.011839 0.004935
v 0.023284 -0.000554 0.008122
v 0.021649 -0.009207 0.005227
v 0.020745 -0.014556 -0.002291
v 0.020917 -0.014556 -0.011560
v 0.022099 -0.009207 -0.019039
v 0.023839 -0.000554 -0.021872
v 0.025473 0.008100 -0.018977
v 0.026377 0.013448 -0.011459
v 0.026206 0.013448 -0.002190
v 0.025024 0.008100 0.005289
v 0.022593 -0.000554 0.008094
v 0.022029 -0.009338 0.005186
v 0.022050 -0.014768 -0.002328
v 0.022649 -0.014768 -0.011579
v 0.023596 -0.009338 -0.019033
v 0.024530 -0.000554 -0.021844
v 0.025094 0.008231 -0.018936
v 0.025073 0.013660 -0.011422
v 0.024474 0.013660 -0.002171
v 0.023527 0.008231 0.005283
v 0.045899 -0.002549 0.009602
v 0.045335 -0.011334 0.006695
v 0.045356 -0.016763 -0.000819
v 0.045955 -0.016763 -0.010071
v 0.046902 -0.011334 -0.017525
v 0.047836 -0.002549 -0.020335
v 0.048400 0.006235 -0.017428
v 0.048379 0.011665 -0.009914
v 0.047780 0.011665 -0.000663
v 0.046833 0.006235 0.006792
v 0.044913 -0.002549 0.009506
v 0.043733 -0.011226 0.006461
v 0.043750 -0.016588 -0.001101
v 0.044957 -0.016588 -0.010293
v 0.046895 -0.011226 -0.017603
v 0.048822 -0.002549 -0.020239
v 0.050002 0.006127 -0.017194
v 0.049985 0.011489 -0.009632
v 0.048777 0.011489 -0.000440
v 0.046840 0.006127 0.006869
v 0.069924 -0.007105 0.012792
v 0.068743 -0.015782 0.009747
v 0.068760 -0.021144 0.002185
v 0.069968 -0.021144 -0.007006
v 0.071905 -0.015782 -0.014316
v 0.073832 -0.007105 -0.016952
v 0.075013 0.001571 -0.013908
v 0.074996 0.006933 -0.006346
v 0.073788 0.006933 0.002846
v 0.071851 0.001571 0.010156
v -0.060407 0.010546 0.014879
v -0.062009 0.001784 0.012310
v -0.064293 -0.003631 0.005141
v -0.066386 -0.003631 -0.003890
v -0.067489 0.001784 -0.011334
v -0.067181 0.010546 -0.014346
v -0.065578 0.019308 -0.011777
v -0.063294 0.024724 -0.004607
v -0.061201 0.024724 0.004424
v -0.060098 0.019308 0.011867
v 0.001627 0.003418 0.000501
v 0.000025 -0.005344 -0.002069
v -0.002260 -0.010759 -0.009238
v -0.004353 -0.010759 -0.018269
v -0.005456 -0.005344 -0.025712
v -0.005147 0.003418 -0.028724
v -0.003545 0.012180 -0.026155
v -0.001261 0.017595 -0.018986
v 0.000833 0.017595 -0.009955
v 0.001936 0.012180 -0.002512
v -0.000448 0.003418 0.000831
v -0.000638 -0.005399 -0.002028
v -0.001256 -0.010848 -0.009503
v -0.002067 -0.010848 -0.018738
v -0.002761 -0.005399 -0.026206
v -0.003072 0.003418 -0.029054
v -0.002882 0.012234 -0.026195
v -0.002264 0.017683 -0.018721
v -0.001453 0.017683 -0.009486
v -0.000760 0.012234 -0.002018
v 0.015684 0.003530 -0.000586
v 0.015494 -0.005287 -0.003445
v 0.014876 -0.010736 -0.010919
v 0.014065 -0.010736 -0.020154
v 0.013372 -0.005287 -0.027622
v 0.013060 0.003530 -0.030471
v 0.013250 0.012347 -0.027612
v 0.013868 0.017795 -0.020137
v 0.014679 0.017795 -0.010902
v 0.015373 0.012347 -0.003434
v 0.014229 0.003530 -0.000529
v 0.013398 -0.005245 -0.003402
v 0.012938 -0.010668 -0.010906
v 0.013027 -0.010668 -0.020177
v 0.013629 -0.005245 -0.027671
v 0.014515 0.003530 -0.030528
v 0.015347 0.012305 -0.027655
v 0.015806 0.017728 -0.020150
v 0.015718 0.017728 -0.010880
v 0.015115 0.012305 -0.003385
v 0.030713 0.001916 -0.000372
v 0.029882 -0.006858 -0.003245
v 0.029422 -0.012282 -0.010749
v 0.029511 -0.012282 -0.020019
v 0.030113 -0.006858 -0.027514
v 0.030999 0.001916 -0.030370
v 0.031831 0.010691 -0.027498
v 0.032290 0.016114 -0.019993
v 0.032202 0.016114 -0.010723
v 0.031599 0.010691 -0.003228
v 0.031719 0.001916 -0.000396
v 0.028948 -0.006505 -0.003106
v 0.026906 -0.011710 -0.010501
v 0.026373 -0.011710 -0.019756
v 0.027552 -0.006505 -0.027336
v 0.029994 0.001916 -0.030346
v 0.032764 0.010338 -0.027636
v 0.034806 0.015543 -0.020242
v 0.035339 0.015543 -0.010986
v 0.034160 0.010338 -0.003406
v 0.053241 -0.004766 -0.001635
v 0.050470 -0.013187 -0.004345
v 0.048428 -0.018392 -0.011740
v 0.047895 -0.018392 -0.020995
v 0.049075 -0.013187 -0.028576
v 0.051516 -0.004766 -0.031586
v 0.054287 0.003656 -0.028876
v 0.056329 0.008860 -0.021481
v 0.056862 0.008860 -0.012226
v 0.055682 0.003656 -0.004646
f 1 2 13
f 2 14 13
f 2 3 14
f 3 15 14
f 3 4 15
f 4 16 15
f 4 5 16
f 5 17 16
f 5 6 17
f 6 18 17
f 6 7 18
f 7 19 18
f 7 8 19
f 8 20 19
f 8 9 20
f 9 21 20
f 9 10 21
f 10 22 21
f 10 11 22
f 11 23 22
f 11 12 23
f 12 24 23
f 13 14 25
f 14 26 25
f 14 15 26
f 15 27 26
f 15 16 27
f 16 28 27
f 16 17 28
f 17 29 28
f 17 18 29
f 18 30 29
f 18 19 30
f 19 31 30
f 19 20 31
f 20 32 31
f 20 21 32
f 21 33 32
f 21 22 33
f 22 34 33
f 22 23 34
f 23 35 34
f 23 24 35
f 24 36 35
f 25 26 37
f 26 38 37
f 26 27 38
f 27 39 38
f 27 28 39
f 28 40 39
f 28 29 40
f 29 41 40
f 29 30 41
f 30 42 41
f 30 31 42
f 31 43 42
f 31 32 43
f 32 44 43
f 32 33 44
f 33 45 44
f 33 34 45
f 34 46 45
f 34 35 46
f 35 47 46
f 35 36 47
f 36 48 47
f 37 38 49
f 38 50 49
f 38 39 50
f 39 51 50
f 39 40 51
f 40 52 51
f 40 41 52
f 41 53 52
f 41 42 53
f 42 54 53
f 42 43 54
f 43 55 54
f 43 44 55
f 44 56 55
f 44 45 56
f 45 57 56
f 45 46 57
f 46 58 57
f 46 47 58
f 47 59 58
f 47 48 59
f 48 60 59
f 49 50 61
f 50 62 61
f 50 51 62
f 51 63 62
f 51 52 63
f 52 64 63
f 52 53 64
f 53 65 64
f 53 54 65
f 54 66 65
f 54 55 66
f 55 67 66
f 55 56 67
f 56 68 67
f 56 57 68
f 57 69 68
f 57 58 69
f 58 70 69
f 58 59 70
f 59 71 70
f 59 60 71
f 60 72 71
f 61 62 73
f 62 74 73
f 62 63 74
f 63 75 74
f 63 64 75
f 64 76 75
f 64 65 76
f 65 77 76
f 65 66 77
f 66 78 77
f 66 67 78
f 67 79 78
f 67 68 79
f 68 80 79
f 68 69 80
f 69 81 80
f 69 70 81
f 70 82 81
f 70 71 82
f 71 83 82
f 71 72 83
f 72 84 83
f 73 74 85
f 74 86 85
f 74 75 86
f 75 87 86
f 75 76 87
f 76 88 87
f 76 77 88
f 77 89 88
f 77 78 89
f 78 90 89
f 78 79 90
f 79 91 90
f 79 80 91
f 80 92 91
f 80 81 92
f 81 93 92
f 81 82 93
f 82 94 93
f 82 83 94
f 83 95 94
f 83 84 95
f 84 96 95
f 85 86 97
f 86 98 97
f 86 87 98
f 87 99 98
f 87 88 99
f 88 100 99
f 88 89 100
f 89 101 100
f 89 90 101
f 90 102 101
f 90 91 102
f 91 103 102
f 91 92 103
f 92 104 103
f 92 93 104
f 93 105 104
f 93 94 105
f 94 106 105
f 94 95 106
f 95 107 106
f 95 96 107
f 96 108 107
f 97 98 109
f 98 110 109
f 98 99 110
f 99 111 110
f 99 100 111
f 100 112 111
f 100 101 112
f 101 113 112
f 101 102 113
f 102 114 113
f 102 103 114
f 103 115 114
f 103 104 115
f 104 116 115
f 104 105 116
f 105 117 116
f 105 106 117
f 106 118 117
f 106 107 118
f 107 119 118
f 107 108 119
f 108 120 119
f 109 110 121
f 110 122 121
f 110 111 122
f 111 123 122
f 111 112 123
f 112 124 123
f 112 113 124
f 113 125 124
f 113 114 125
f 114 126 125
f 114 115 126
f 115 127 126
f 115 116 127
f 116 128 127
f 116 117 128
f 117 129 128
f 117 118 129
f 118 130 129
f 118 119 130
f 119 131 130
f 119 120 131
f 120 132 131
f 121 122 133
f 122 134 133
f 122 123 134
f 123 135 134
f 123 124 135
f 124 136 135
f 124 125 136
f 125 137 136
f 125 126 137
f 126 138 137
f 126 127 138
f 127 139 138
f 127 128 139
f 128 140 139
f 128 129 140
f 129 141 140
f 129 130 141
f 130 142 141
f 130 131 142
f 131 143 142
f 131 132 143
f 132 144 143
f 145 146 155
f 146 156 155
f 146 147 156
f 147 157 156
f 147 148 157
f 148 158 157
f 148 149 158
f 149 159 158
f 149 150 159
f 150 160 159
f 150 151 160
f 151 161 160
f 151 152 161
f 152 162 161
f 152 153 162
f 153 163 162
f 153 154 163
f 154 164 163
f 154 145 164
f 145 155 164
f 165 166 175
f 166 176 175
f 166 167 176
f 167 177 176
f 167 168 177
f 168 178 177
f 168 169 178
f 169 179 178
f 169 170 179
f 170 180 179
f 170 171 180
f 171 181 180
f 171 172 181
f 172 182 181
f 172 173 182
f 173 183 182
f 173 174 183
f 174 184 183
f 174 165 184
f 165 175 184
f 185 186 195
f 186 196 195
f 186 187 196
f 187 197 196
f 187 188 197
f 188 198 197
f 188 189 198
f 189 199 198
f 189 190 199
f 190 200 199
f 190 191 200
f 191 201 200
f 191 192 201
f 192 202 201
f 192 193 202
f 193 203 202
f 193 194 203
f 194 204 203
f 194 185 204
f 185 195 204
f 205 206 215
f 206 216 215
f 206 207 216
f 207 217 216
f 207 208 217
f 208 218 217
f 208 209 218
f 209 219 218
f 209 210 219
f 210 220 219
f 210 211 220
f 211 221 220
f 211 212 221
f 212 222 221
f 212 213 222
f 213 223 222
f 213 214 223
f 214 224 223
f 214 205 224
f 205 215 224
f 225 226 235
f 226 236 235
f 226 227 236
f 227 237 236
f 227 228 237
f 228 238 237
f 228 229 238
f 229 239 238
f 229 230 239
f 230 240 239
f 230 231 240
f 231 241 240
f 231 232 241
f 232 242 241
f 232 233 242
f 233 243 242
f 233 234 243
f 234 244 243
f 234 225 244
f 225 235 244
f 245 246 255
f 246 256 255
f 246 247 256
f 247 257 256
f 247 248 257
f 248 258 257
f 248 249 258
f 249 259 258
f 249 250 259
f 250 260 259
f 250 251 260
f 251 261 260
f 251 252 261
f 252 262 261
f 252 253 262
f 253 263 262
f 253 254 263
f 254 264 263
f 254 245 264
f 245 255 264
f 265 266 275
f 266 276 275
f 266 267 276
f 267 277 276
f 267 268 277
f 268 278 277
f 268 269 278
f 269 279 278
f 269 270 279
f 270 280 279
f 270 271 280
f 271 281 280
f 271 272 281
f 272 282 281
f 272 273 282
f 273 283 282
f 273 274 283
f 274 284 283
f 274 265 284
f 265 275 284
f 285 286 295
f 286 296 295
f 286 287 296
f 287 297 296
f 287 288 297
f 288 298 297
f 288 289 298
f 289 299 298
f 289 290 299
f 290 300 299
f 290 291 300
f 291 301 300
f 291 292 301
f 292 302 301
f 292 293 302
f 293 303 302
f 293 294 303
f 294 304 303
f 294 285 304
f 285 295 304
f 305 306 315
f 306 316 315
f 306 307 316
f 307 317 316
f 307 308 317
f 308 318 317
f 308 309 318
f 309 319 318
f 309 310 319
f 310 320 319
f 310 311 320
f 311 321 320
f 311 312 321
f 312 322 321
f 312 313 322
f 313 323 322
f 313 314 323
f 314 324 323
f 314 305 324
f 305 315 324
f 325 326 335
f 326 336 335
f 326 327 336
f 327 337 336
f 327 328 337
f 328 338 337
f 328 329 338
f 329 339 338
f 329 330 339
f 330 340 339
f 330 331 340
f 331 341 340
f 331 332 341
f 332 342 341
f 332 333 342
f 333 343 342
f 333 334 343
f 334 344 343
f 334 325 344
f 325 335 344
f 345 346 355
f 346 356 355
f 346 347 356
f 347 357 356
f 347 348 357
f 348 358 357
f 348 349 358
f 349 359 358
f 349 350 359
f 350 360 359
f 350 351 360
f 351 361 360
f 351 352 361
f 352 362 361
f 352 353 362
f 353 363 362
f 353 354 363
f 354 364 363
f 354 345 364
f 345 355 364
f 365 366 375
f 366 376 375
f 366 367 376
f 367 377 376
f 367 368 377
f 368 378 377
f 368 369 378
f 369 379 378
f 369 370 379
f 370 380 379
f 370 371 380
f 371 381 380
f 371 372 381
f 372 382 381
f 372 373 382
f 373 383 382
f 373 374 383
f 374 384 383
f 374 365 384
f 365 375 384
f 385 386 395
f 386 396 395
f 386 387 396
f 387 397 396
f 387 388 397
f 388 398 397
f 388 389 398
f 389 399 398
f 389 390 399
f 390 400 399
f 390 391 400
f 391 401 400
f 391 392 401
f 392 402 401
f 392 393 402
f 393 403 402
f 393 394 403
f 394 404 403
f 394 385 404
f 385 395 404
f 405 406 415
f 406 416 415
f 406 407 416
f 407 417 416
f 407 408 417
f 408 418 417
f 408 409 418
f 409 419 418
f 409 410 419
f 410 420 419
f 410 411 420
f 411 421 420
f 411 412 421
f 412 422 421
f 412 413 422
f 413 423 422
f 413 414 423
f 414 424 423
f 414 405 424
f 405 415 424
f 425 426 435
f 426 436 435
f 426 427 436
f 427 437 436
f 427 428 437
f 428 438 437
f 428 429 438
f 429 439 438
f 429 430 439
f 430 440 439
f 430 431 440
f 431 441 440
f 431 432 441
f 432 442 441
f 432 433 442
f 433 443 442
f 433 434 443
f 434 444 443
f 434 425 444
f 425 435 444
f 445 446 455
f 446 456 455
f 446 447 456
f 447 457 456
f 447 448 457
f 448 458 457
f 448 449 458
f 449 459 458
f 449 450 459
f 450 460 459
f 450 451 460
f 451 461 460
f 451 452 461
f 452 462 461
f 452 453 462
f 453 463 462
f 453 454 463
f 454 464 463
f 454 445 464
f 445 455 464
f 465 466 475
f 466 476 475
f 466 467 476
f 467 477 476
f 467 468 477
f 468 478 477
f 468 469 478
f 469 479 478
f 469 470 479
f 470 480 479
f 470 471 480
f 471 481 480
f 471 472 481
f 472 482 481
f 472 473 482
f 473 483 482
f 473 474 483
f 474 484 483
f 474 465 484
f 465 475 484
f 485 486 495
f 486 496 495
f 486 487 496
f 487 497 496
f 487 488 497
f 488 498 497
f 488 489 498
f 489 499 498
f 489 490 499
f 490 500 499
f 490 491 500
f 491 501 500
f 491 492 501
f 492 502 501
f 492 493 502
f 493 503 502
f 493 494 503
f 494 504 503
f 494 485 504
f 485 495 504
f 505 506 515
f 506 516 515
f 506 507 516
f 507 517 516
f 507 508 517
f 508 518 517
f 508 509 518
f 509 519 518
f 509 510 519
f 510 520 519
f 510 511 520
f 511 521 520
f 511 512 521
f 512 522 521
f 512 513 522
f 513 523 522
f 513 514 523
f 514 524 523
f 514 505 524
f 505 515 524
f 525 526 535
f 526 536 535
f 526 527 536
f 527 537 536
f 527 528 537
f 528 538 537
f 528 529 538
f 529 539 538
f 529 530 539
f 530 540 539
f 530 531 540
f 531 541 540
f 531 532 541
f 532 542 541
f 532 533 542
f 533 543 542
f 533 534 543
f 534 544 543
f 534 525 544
f 525 535 544
f 545 546 555
f 546 556 555
f 546 547 556
f 547 557 556
f 547 548 557
f 548 558 557
f 548 549 558
f 549 559 558
f 549 550 559
f 550 560 559
f 550 551 560
f 551 561 560
f 551 552 561
f 552 562 561
f 552 553 562
f 553 563 562
f 553 554 563
f 554 564 563
f 554 545 564
f 545 555 564
f 565 566 575
f 566 576 575
f 566 567 576
f 567 577 576
f 567 568 577
f 568 578 577
f 568 569 578
f 569 579 578
f 569 570 579
f 570 580 579
f 570 571 580
f 571 581 580
f 571 572 581
f 572 582 581
f 572 573 582
f 573 583 582
f 573 574 583
f 574 584 583
f 574 565 584
f 565 575 584
f 585 586 595
f 586 596 595
f 586 587 596
f 587 597 596
f 587 588 597
f 588 598 597
f 588 589 598
f 589 599 598
f 589 590 599
f 590 600 599
f 590 591 600
f 591 601 600
f 591 592 601
f 592 602 601
f 592 593 602
f 593 603 602
f 593 594 603
f 594 604 603
f 594 585 604
f 585 595 604
f 605 606 615
f 606 616 615
f 606 607 616
f 607 617 616
f 607 608 617
f 608 618 617
f 608 609 618
f 609 619 618
f 609 610 619
f 610 620 619
f 610 611 620
f 611 621 620
f 611 612 621
f 612 622 621
f 612 613 622
f 613 623 622
f 613 614 623
f 614 624 623
f 614 605 624
f 605 615 624
f 625 626 635
f 626 636 635
f 626 627 636
f 627 637 636
f 627 628 637
f 628 638 637
f 628 629 638
f 629 639 638
f 629 630 639
f 630 640 639
f 630 631 640
f 631 641 640
f 631 632 641
f 632 642 641
f 632 633 642
f 633 643 642
f 633 634 643
f 634 644 643
f 634 625 644
f 625 635 644
f 645 646 655
f 646 656 655
f 646 647 656
f 647 657 656
f 647 648 657
f 648 658 657
f 648 649 658
f 649 659 658
f 649 650 659
f 650 660 659
f 650 651 660
f 651 661 660
f 651 652 661
f 652 662 661
f 652 653 662
f 653 663 662
f 653 654 663
f 654 664 663
f 654 645 664
f 645 655 664
f 665 666 675
f 666 676 675
f 666 667 676
f 667 677 676
f 667 668 677
f 668 678 677
f 668 669 678
f 669 679 678
f 669 670 679
f 670 680 679
f 670 671 680
f 671 681 680
f 671 672 681
f 672 682 681
f 672 673 682
f 673 683 682
f 673 674 683
f 674 684 683
f 674 665 684
f 665 675 684
f 685 686 695
f 686 696 695
f 686 687 696
f 687 697 696
f 687 688 697
f 688 698 697
f 688 689 698
f 689 699 698
f 689 690 699
f 690 700 699
f 690 691 700
f 691 701 700
f 691 692 701
f 692 702 701
f 692 693 702
f 693 703 702
f 693 694 703
f 694 704 703
f 694 685 704
f 685 695 704
f 705 706 715
f 706 716 715
f 706 707 716
f 707 717 716
f 707 708 717
f 708 718 717
f 708 709 718
f 709 719 718
f 709 710 719
f 710 720 719
f 710 711 720
f 711 721 720
f 711 712 721
f 712 722 721
f 712 713 722
f 713 723 722
f 713 714 723
f 714 724 723
f 714 705 724
f 705 715 724
f 725 726 735
f 726 736 735
f 726 727 736
f 727 737 736
f 727 728 737
f 728 738 737
f 728 729 738
f 729 739 738
f 729 730 739
f 730 740 739
f 730 731 740
f 731 741 740
f 731 732 741
f 732 742 741
f 732 733 742
f 733 743 742
f 733 734 743
f 734 744 743
f 734 725 744
f 725 735 744
f 745 746 755
f 746 756 755
f 746 747 756
f 747 757 756
f 747 748 757
f 748 758 757
f 748 749 758
f 749 759 758
f 749 750 759
f 750 760 759
f 750 751 760
f 751 761 760
f 751 752 761
f 752 762 761
f 752 753 762
f 753 763 762
f 753 754 763
f 754 764 763
f 754 745 764
f 745 755 764
f 765 766 775
f 766 776 775
f 766 767 776
f 767 777 776
f 767 768 777
f 768 778 777
f 768 769 778
f 769 779 778
f 769 770 779
f 770 780 779
f 770 771 780
f 771 781 780
f 771 772 781
f 772 782 781
f 772 773 782
f 773 783 782
f 773 774 783
f 774 784 783
f 774 765 784
f 765 775 784
