# Full-Body 3D Mesh - Frame 143
v 0.010147 -0.644048 -0.135508
v 0.043955 -0.644048 -0.140369
v 0.075024 -0.644048 -0.154557
v 0.100837 -0.644048 -0.176924
v 0.119303 -0.644048 -0.205658
v 0.128926 -0.644048 -0.238430
v 0.128926 -0.644048 -0.272586
v 0.119303 -0.644048 -0.305358
v 0.100837 -0.644048 -0.334091
v 0.075024 -0.644048 -0.356458
v 0.043955 -0.644048 -0.370647
v 0.010147 -0.644048 -0.375508
v 0.010147 -0.644048 -0.135508
v 0.038588 -0.625770 -0.140369
v 0.064725 -0.608973 -0.154557
v 0.086440 -0.595017 -0.176924
v 0.101975 -0.585034 -0.205658
v 0.110070 -0.579831 -0.238430
v 0.110070 -0.579831 -0.272586
v 0.101975 -0.585034 -0.305358
v 0.086440 -0.595017 -0.334091
v 0.064725 -0.608973 -0.356458
v 0.038588 -0.625770 -0.370647
v 0.010147 -0.644048 -0.375508
v 0.010147 -0.644048 -0.135508
v 0.024191 -0.613295 -0.140369
v 0.037098 -0.585034 -0.154557
v 0.047821 -0.561553 -0.176924
v 0.055492 -0.544756 -0.205658
v 0.059490 -0.536003 -0.238430
v 0.059490 -0.536003 -0.272586
v 0.055492 -0.544756 -0.305358
v 0.047821 -0.561553 -0.334091
v 0.037098 -0.585034 -0.356458
v 0.024191 -0.613295 -0.370647
v 0.010147 -0.644048 -0.375508
v 0.010147 -0.644048 -0.135508
v 0.005336 -0.610584 -0.140369
v 0.000914 -0.579831 -0.154557
v -0.002759 -0.554281 -0.176924
v -0.005387 -0.536003 -0.205658
v -0.006757 -0.526478 -0.238430
v -0.006757 -0.526478 -0.272586
v -0.005387 -0.536003 -0.305358
v -0.002759 -0.554281 -0.334091
v 0.000914 -0.579831 -0.356458
v 0.005336 -0.610584 -0.370647
v 0.010147 -0.644048 -0.375508
v 0.010147 -0.644048 -0.135508
v -0.011992 -0.618497 -0.140369
v -0.032338 -0.595017 -0.154557
v -0.049242 -0.575509 -0.176924
v -0.061335 -0.561553 -0.205658
v -0.067636 -0.554281 -0.238430
v -0.067636 -0.554281 -0.272586
v -0.061335 -0.561553 -0.305358
v -0.049242 -0.575509 -0.334091
v -0.032338 -0.595017 -0.356458
v -0.011992 -0.618497 -0.370647
v 0.010147 -0.644048 -0.375508
v 0.010147 -0.644048 -0.135508
v -0.022291 -0.634523 -0.140369
v -0.052102 -0.625770 -0.154557
v -0.076869 -0.618497 -0.176924
v -0.094587 -0.613295 -0.205658
v -0.103820 -0.610584 -0.238430
v -0.103820 -0.610584 -0.272586
v -0.094587 -0.613295 -0.305358
v -0.076869 -0.618497 -0.334091
v -0.052102 -0.625770 -0.356458
v -0.022291 -0.634523 -0.370647
v 0.010147 -0.644048 -0.375508
v 0.010147 -0.644048 -0.135508
v -0.022291 -0.653572 -0.140369
v -0.052102 -0.662326 -0.154557
v -0.076869 -0.669598 -0.176924
v -0.094587 -0.674800 -0.205658
v -0.103820 -0.677511 -0.238430
v -0.103820 -0.677511 -0.272586
v -0.094587 -0.674800 -0.305358
v -0.076869 -0.669598 -0.334091
v -0.052102 -0.662326 -0.356458
v -0.022291 -0.653572 -0.370647
v 0.010147 -0.644048 -0.375508
v 0.010147 -0.644048 -0.135508
v -0.011992 -0.669598 -0.140369
v -0.032338 -0.693078 -0.154557
v -0.049242 -0.712587 -0.176924
v -0.061335 -0.726542 -0.205658
v -0.067636 -0.733815 -0.238430
v -0.067636 -0.733815 -0.272586
v -0.061335 -0.726542 -0.305358
v -0.049242 -0.712587 -0.334091
v -0.032338 -0.693078 -0.356458
v -0.011992 -0.669598 -0.370647
v 0.010147 -0.644048 -0.375508
v 0.010147 -0.644048 -0.135508
v 0.005336 -0.677511 -0.140369
v 0.000914 -0.708264 -0.154557
v -0.002759 -0.733815 -0.176924
v -0.005387 -0.752092 -0.205658
v -0.006757 -0.761617 -0.238430
v -0.006757 -0.761617 -0.272586
v -0.005387 -0.752092 -0.305358
v -0.002759 -0.733815 -0.334091
v 0.000914 -0.708264 -0.356458
v 0.005336 -0.677511 -0.370647
v 0.010147 -0.644048 -0.375508
v 0.010147 -0.644048 -0.135508
v 0.024191 -0.674800 -0.140369
v 0.037098 -0.703062 -0.154557
v 0.047821 -0.726542 -0.176924
v 0.055492 -0.743339 -0.205658
v 0.059490 -0.752092 -0.238430
v 0.059490 -0.752092 -0.272586
v 0.055492 -0.743339 -0.305358
v 0.047821 -0.726542 -0.334091
v 0.037098 -0.703062 -0.356458
v 0.024191 -0.674800 -0.370647
v 0.010147 -0.644048 -0.375508
v 0.010147 -0.644048 -0.135508
v 0.038588 -0.662326 -0.140369
v 0.064725 -0.679123 -0.154557
v 0.086440 -0.693078 -0.176924
v 0.101975 -0.703062 -0.205658
v 0.110070 -0.708264 -0.238430
v 0.110070 -0.708264 -0.272586
v 0.101975 -0.703062 -0.305358
v 0.086440 -0.693078 -0.334091
v 0.064725 -0.679123 -0.356458
v 0.038588 -0.662326 -0.370647
v 0.010147 -0.644048 -0.375508
v 0.010147 -0.644048 -0.135508
v 0.043955 -0.644048 -0.140369
v 0.075024 -0.644048 -0.154557
v 0.100837 -0.644048 -0.176924
v 0.119303 -0.644048 -0.205658
v 0.128926 -0.644048 -0.238430
v 0.128926 -0.644048 -0.272586
v 0.119303 -0.644048 -0.305358
v 0.100837 -0.644048 -0.334091
v 0.075024 -0.644048 -0.356458
v 0.043955 -0.644048 -0.370647
v 0.010147 -0.644048 -0.375508
v 0.169815 -0.455392 -0.088944
v 0.168655 -0.478899 -0.081378
v 0.166573 -0.493426 -0.061484
v 0.164362 -0.493426 -0.036862
v 0.162869 -0.478899 -0.016916
v 0.162662 -0.455392 -0.009264
v 0.163821 -0.431885 -0.016830
v 0.165904 -0.417358 -0.036724
v 0.168114 -0.417358 -0.061346
v 0.169608 -0.431885 -0.081292
v -0.161660 -0.448620 -0.118699
v -0.162820 -0.472126 -0.111133
v -0.164902 -0.486654 -0.091240
v -0.167112 -0.486654 -0.066618
v -0.168606 -0.472126 -0.046671
v -0.168813 -0.448620 -0.039020
v -0.167653 -0.425113 -0.046586
v -0.165571 -0.410586 -0.066479
v -0.163361 -0.410586 -0.091102
v -0.161867 -0.425113 -0.111048
v 0.166238 -0.466247 -0.087603
v 0.143075 -0.460296 -0.081344
v 0.128759 -0.452472 -0.062770
v 0.128759 -0.445763 -0.038976
v 0.143075 -0.442732 -0.019051
v 0.166238 -0.444537 -0.010605
v 0.189402 -0.450488 -0.016864
v 0.203718 -0.458312 -0.035438
v 0.203718 -0.465021 -0.059232
v 0.189402 -0.468052 -0.079157
v 0.204857 -0.252546 -0.147857
v 0.181693 -0.246595 -0.141597
v 0.167378 -0.238771 -0.123024
v 0.167378 -0.232063 -0.099230
v 0.181693 -0.229032 -0.079305
v 0.204857 -0.230836 -0.070859
v 0.228021 -0.236787 -0.077118
v 0.242337 -0.244611 -0.095692
v 0.242337 -0.251320 -0.119485
v 0.228021 -0.254351 -0.139411
v 0.204857 -0.280673 -0.118327
v 0.185191 -0.276117 -0.104056
v 0.173037 -0.258412 -0.091811
v 0.173037 -0.234321 -0.086267
v 0.185191 -0.213044 -0.089544
v 0.204857 -0.202710 -0.100388
v 0.224523 -0.207265 -0.114659
v 0.236677 -0.224970 -0.126905
v 0.236677 -0.249062 -0.132448
v 0.224523 -0.270339 -0.129172
v 0.087188 -0.240404 -0.293336
v 0.067522 -0.235849 -0.279065
v 0.055368 -0.218144 -0.266820
v 0.055368 -0.194052 -0.261276
v 0.067522 -0.172776 -0.264553
v 0.087188 -0.162442 -0.275397
v 0.106853 -0.166997 -0.289668
v 0.119007 -0.184702 -0.301914
v 0.119007 -0.208794 -0.307457
v 0.106853 -0.230070 -0.304181
v -0.165237 -0.463609 -0.115945
v -0.188361 -0.464686 -0.107270
v -0.202652 -0.459626 -0.087743
v -0.202652 -0.450362 -0.064823
v -0.188361 -0.440433 -0.047265
v -0.165237 -0.433631 -0.041774
v -0.142112 -0.432554 -0.050449
v -0.127821 -0.437614 -0.069976
v -0.127821 -0.446877 -0.092896
v -0.142112 -0.456807 -0.110455
v -0.208519 -0.245220 -0.204211
v -0.231643 -0.246297 -0.195536
v -0.245935 -0.241237 -0.176009
v -0.245935 -0.231973 -0.153089
v -0.231643 -0.222044 -0.135530
v -0.208519 -0.215242 -0.130040
v -0.185395 -0.214165 -0.138714
v -0.171103 -0.219225 -0.158241
v -0.171103 -0.228488 -0.181161
v -0.185395 -0.238418 -0.198720
v -0.208519 -0.266305 -0.149843
v -0.230607 -0.262897 -0.160410
v -0.244258 -0.247011 -0.173542
v -0.244258 -0.224716 -0.184223
v -0.230607 -0.204528 -0.188373
v -0.208519 -0.194157 -0.184407
v -0.186432 -0.197565 -0.173840
v -0.172781 -0.213451 -0.160708
v -0.172781 -0.235746 -0.150027
v -0.186432 -0.255934 -0.145877
v -0.128719 -0.360815 -0.347122
v -0.150807 -0.357407 -0.357689
v -0.164458 -0.341521 -0.370822
v -0.164458 -0.319226 -0.381502
v -0.150807 -0.299038 -0.385652
v -0.128719 -0.288667 -0.381686
v -0.106632 -0.292075 -0.371119
v -0.092981 -0.307961 -0.357987
v -0.092981 -0.330256 -0.347306
v -0.106632 -0.350444 -0.343156
v 0.166238 -0.449145 -0.088613
v 0.142824 -0.452451 -0.081402
v 0.128354 -0.456880 -0.061853
v 0.128354 -0.460741 -0.037435
v 0.142824 -0.462559 -0.017474
v 0.166238 -0.461639 -0.009595
v 0.189652 -0.458333 -0.016806
v 0.204123 -0.453904 -0.036354
v 0.204123 -0.450043 -0.060772
v 0.189652 -0.448225 -0.080733
v 0.124253 0.004794 -0.016838
v 0.100839 0.001488 -0.009626
v 0.086369 -0.002941 0.009922
v 0.086369 -0.006802 0.034340
v 0.100839 -0.008620 0.054301
v 0.124253 -0.007700 0.062181
v 0.147667 -0.004394 0.054969
v 0.162138 0.000035 0.035421
v 0.162138 0.003896 0.011003
v 0.147667 0.005714 -0.008958
v -0.165237 -0.443260 -0.118499
v -0.188645 -0.442108 -0.110634
v -0.203112 -0.443443 -0.090633
v -0.203112 -0.446755 -0.066134
v -0.188645 -0.450780 -0.046497
v -0.165237 -0.453980 -0.039220
v -0.141828 -0.455132 -0.047085
v -0.127361 -0.453797 -0.067087
v -0.127361 -0.450485 -0.091585
v -0.141828 -0.446460 -0.111223
v -0.124155 -0.009292 -0.059821
v -0.147564 -0.008139 -0.051957
v -0.162031 -0.009474 -0.031955
v -0.162031 -0.012787 -0.007457
v -0.147564 -0.016811 0.012181
v -0.124155 -0.020011 0.019457
v -0.100747 -0.021164 0.011593
v -0.086279 -0.019829 -0.008409
v -0.086279 -0.016516 -0.032907
v -0.100747 -0.012491 -0.052545
v 0.131053 -0.001453 -0.016746
v 0.130966 -0.024932 -0.009009
v 0.128315 -0.039443 0.010829
v 0.124112 -0.039443 0.035190
v 0.119963 -0.024932 0.054770
v 0.117453 -0.001453 0.062089
v 0.117540 0.022026 0.054352
v 0.120192 0.036537 0.034514
v 0.124394 0.036537 0.010153
v 0.128543 0.022026 -0.009427
v -0.117355 -0.014651 -0.059600
v -0.117443 -0.038131 -0.051863
v -0.120094 -0.052642 -0.032025
v -0.124296 -0.052642 -0.007663
v -0.128445 -0.038131 0.011917
v -0.130955 -0.014651 0.019236
v -0.130868 0.008828 0.011499
v -0.128217 0.023339 -0.008339
v -0.124014 0.023339 -0.032701
v -0.119865 0.008828 -0.052281
v 0.124253 -0.021900 -0.011707
v 0.100758 -0.017238 -0.005592
v 0.086237 -0.006547 0.011320
v 0.086237 0.006090 0.032567
v 0.100758 0.015846 0.050034
v 0.124253 0.018995 0.057050
v 0.147748 0.014333 0.050935
v 0.162269 0.003641 0.034024
v 0.162269 -0.008996 0.012776
v 0.147748 -0.018752 -0.004691
v 0.131139 0.136001 -0.105622
v 0.107644 0.140663 -0.099507
v 0.093123 0.151354 -0.082596
v 0.093123 0.163991 -0.061348
v 0.107644 0.173747 -0.043881
v 0.131139 0.176896 -0.036865
v 0.154634 0.172234 -0.042981
v 0.169155 0.161542 -0.059892
v 0.169155 0.148905 -0.081139
v 0.154634 0.139149 -0.098607
v 0.131139 0.176854 -0.105647
v 0.107691 0.174446 -0.098193
v 0.093200 0.165164 -0.080445
v 0.093200 0.152553 -0.059183
v 0.107691 0.141429 -0.042527
v 0.131139 0.136042 -0.036840
v 0.154587 0.138450 -0.044294
v 0.169078 0.147732 -0.062042
v 0.169078 0.160343 -0.083305
v 0.154587 0.171467 -0.099960
v 0.152745 0.428420 0.043564
v 0.129297 0.426013 0.051018
v 0.114806 0.416731 0.068766
v 0.114806 0.404119 0.090028
v 0.129297 0.392996 0.106684
v 0.152745 0.387609 0.112371
v 0.176192 0.390016 0.104917
v 0.190684 0.399299 0.087169
v 0.190684 0.411910 0.065906
v 0.176192 0.423034 0.049251
v -0.124155 -0.053197 -0.030870
v -0.146573 -0.043942 -0.035658
v -0.160428 -0.023499 -0.034535
v -0.160428 0.000324 -0.027929
v -0.146573 0.018426 -0.018364
v -0.124155 0.023894 -0.009494
v -0.101738 0.014639 -0.004705
v -0.087883 -0.005804 -0.005829
v -0.087883 -0.029627 -0.012434
v -0.101738 -0.047729 -0.021999
v -0.071439 -0.008641 -0.191556
v -0.093857 0.000614 -0.196344
v -0.107712 0.021058 -0.195221
v -0.107712 0.044880 -0.188616
v -0.093857 0.062983 -0.179051
v -0.071439 0.068450 -0.170180
v -0.049021 0.059195 -0.165392
v -0.035166 0.038752 -0.166515
v -0.035166 0.014929 -0.173121
v -0.049021 -0.003173 -0.182685
v -0.071439 0.030075 -0.220868
v -0.094949 0.029814 -0.213229
v -0.109480 0.029589 -0.193230
v -0.109480 0.029484 -0.168509
v -0.094949 0.029539 -0.148509
v -0.071439 0.029735 -0.140868
v -0.047929 0.029995 -0.148507
v -0.033399 0.030221 -0.168506
v -0.033399 0.030326 -0.193227
v -0.047929 0.030270 -0.213227
v -0.073993 0.293599 -0.219748
v -0.097503 0.293338 -0.212109
v -0.112033 0.293113 -0.192110
v -0.112033 0.293007 -0.167389
v -0.097503 0.293063 -0.147389
v -0.073993 0.293259 -0.139748
v -0.050483 0.293519 -0.147387
v -0.035953 0.293745 -0.167386
v -0.035953 0.293850 -0.192107
v -0.050483 0.293794 -0.212108
v -0.034073 0.058675 0.075171
v -0.041481 0.053804 0.072462
v -0.046059 0.050609 0.065061
v -0.046059 0.050309 0.055795
v -0.041481 0.053020 0.048204
v -0.034073 0.057706 0.045186
v -0.026665 0.062577 0.047895
v -0.022087 0.065773 0.055296
v -0.022087 0.066072 0.064561
v -0.026665 0.063361 0.072153
v -0.014312 0.028073 0.076160
v -0.021720 0.023202 0.073451
v -0.026299 0.020006 0.066050
v -0.026299 0.019707 0.056784
v -0.021720 0.022418 0.049193
v -0.014312 0.027104 0.046175
v -0.006904 0.031975 0.048884
v -0.002326 0.035170 0.056285
v -0.002326 0.035470 0.065550
v -0.006904 0.032759 0.073142
v -0.014312 0.019839 0.074011
v -0.019639 0.015303 0.067928
v -0.022930 0.015460 0.059263
v -0.022930 0.020249 0.051326
v -0.019639 0.027841 0.047147
v -0.014312 0.035337 0.048324
v -0.008986 0.039873 0.054407
v -0.005694 0.039717 0.063071
v -0.005694 0.034928 0.071009
v -0.008986 0.027335 0.075188
v 0.008613 0.004959 0.065033
v 0.003287 0.000423 0.058950
v -0.000005 0.000579 0.050285
v -0.000005 0.005368 0.042348
v 0.003287 0.012961 0.038169
v 0.008613 0.020457 0.039346
v 0.013939 0.024993 0.045429
v 0.017231 0.024837 0.054094
v 0.017231 0.020047 0.062031
v 0.013939 0.012455 0.066210
v 0.008613 -0.002286 0.051771
v 0.001866 0.000736 0.046178
v -0.002304 0.008330 0.042880
v -0.002304 0.017597 0.043139
v 0.001866 0.024997 0.046854
v 0.008613 0.027702 0.052607
v 0.015360 0.024680 0.058201
v 0.019530 0.017085 0.061499
v 0.019530 0.007819 0.061240
v 0.015360 0.000419 0.057525
v 0.029275 -0.001602 0.027219
v 0.022529 0.001420 0.021625
v 0.018359 0.009015 0.018328
v 0.018359 0.018282 0.018586
v 0.022529 0.025681 0.022301
v 0.029275 0.028387 0.028055
v 0.036022 0.025365 0.033648
v 0.040192 0.017770 0.036946
v 0.040192 0.008503 0.036687
v 0.036022 0.001104 0.032972
v 0.029275 -0.000824 0.022852
v 0.020797 0.002662 0.021474
v 0.015557 0.010247 0.022450
v 0.015557 0.019033 0.025408
v 0.020797 0.025665 0.029216
v 0.029275 0.027609 0.032422
v 0.037754 0.024122 0.033799
v 0.042994 0.016538 0.032823
v 0.042994 0.007751 0.029866
v 0.037754 0.001120 0.026057
v 0.036617 0.007389 -0.001549
v 0.028138 0.010875 -0.002927
v 0.022898 0.018460 -0.001951
v 0.022898 0.027246 0.001007
v 0.028138 0.033878 0.004815
v 0.036617 0.035822 0.008021
v 0.045096 0.032335 0.009398
v 0.050336 0.024750 0.008422
v 0.050336 0.015964 0.005465
v 0.045096 0.009333 0.001656
v -0.034073 0.050579 0.073103
v -0.042346 0.049407 0.069088
v -0.047459 0.051590 0.061670
v -0.047459 0.056294 0.053682
v -0.042346 0.061723 0.048175
v -0.034073 0.065803 0.047253
v -0.025800 0.066975 0.051268
v -0.020686 0.064792 0.058687
v -0.020686 0.060088 0.066675
v -0.025800 0.054659 0.072182
v -0.002859 -0.022434 0.030103
v -0.011132 -0.023607 0.026088
v -0.016245 -0.021424 0.018670
v -0.016245 -0.016719 0.010682
v -0.011132 -0.011290 0.005175
v -0.002859 -0.007210 0.004253
v 0.005414 -0.006038 0.008268
v 0.010528 -0.008221 0.015687
v 0.010528 -0.012925 0.023675
v 0.005414 -0.018354 0.029181
v -0.002859 -0.023118 0.029675
v -0.008007 -0.027497 0.023330
v -0.011188 -0.027035 0.014635
v -0.011188 -0.021908 0.006911
v -0.008007 -0.014074 0.003109
v -0.002859 -0.006526 0.004681
v 0.002289 -0.002147 0.011027
v 0.005470 -0.002609 0.019722
v 0.005470 -0.007737 0.027446
v 0.002289 -0.015570 0.031247
v 0.018478 -0.035903 0.021189
v 0.013330 -0.040282 0.014843
v 0.010149 -0.039819 0.006148
v 0.010149 -0.034692 -0.001576
v 0.013330 -0.026858 -0.005378
v 0.018478 -0.019311 -0.003806
v 0.023626 -0.014931 0.002540
v 0.026807 -0.015394 0.011235
v 0.026807 -0.020521 0.018959
v 0.023626 -0.028355 0.022761
v 0.018478 -0.029891 0.023517
v 0.013049 -0.036321 0.019627
v 0.009694 -0.039422 0.011561
v 0.009694 -0.038010 0.002399
v 0.013049 -0.032625 -0.004360
v 0.018478 -0.025322 -0.006134
v 0.023907 -0.018892 -0.002244
v 0.027262 -0.015791 0.005822
v 0.027262 -0.017203 0.014985
v 0.023907 -0.022588 0.021743
v 0.035522 -0.043054 0.021488
v 0.030093 -0.049484 0.017599
v 0.026738 -0.052586 0.009533
v 0.026738 -0.051174 0.000370
v 0.030093 -0.045788 -0.006388
v 0.035522 -0.038486 -0.008162
v 0.040951 -0.032056 -0.004272
v 0.044306 -0.028954 0.003794
v 0.044306 -0.030366 0.012956
v 0.040951 -0.035752 0.019715
v 0.035522 -0.048949 0.019237
v 0.029898 -0.053079 0.013133
v 0.026422 -0.052507 0.004558
v 0.026422 -0.047452 -0.003213
v 0.029898 -0.039845 -0.007212
v 0.035522 -0.032591 -0.005910
v 0.041146 -0.028461 0.000194
v 0.044622 -0.029033 0.008769
v 0.044622 -0.034088 0.016540
v 0.041146 -0.041695 0.020538
v 0.050478 -0.059333 0.012482
v 0.044854 -0.063463 0.006378
v 0.041378 -0.062891 -0.002197
v 0.041378 -0.057836 -0.009968
v 0.044854 -0.050228 -0.013966
v 0.050478 -0.042974 -0.012665
v 0.056102 -0.038844 -0.006561
v 0.059578 -0.039416 0.002014
v 0.059578 -0.044471 0.009785
v 0.056102 -0.052079 0.013784
v -0.034073 0.047887 0.071080
v -0.042372 0.047691 0.066953
v -0.047501 0.051506 0.060238
v -0.047501 0.057874 0.053501
v -0.042372 0.064363 0.049314
v -0.034073 0.068494 0.049277
v -0.025774 0.068690 0.053404
v -0.020645 0.064876 0.060119
v -0.020645 0.058508 0.066856
v -0.025774 0.052019 0.071043
v -0.003677 -0.013686 0.012884
v -0.011976 -0.013882 0.008757
v -0.017105 -0.010068 0.002042
v -0.017105 -0.003700 -0.004695
v -0.011976 0.002789 -0.008882
v -0.003677 0.006920 -0.008919
v 0.004622 0.007116 -0.004792
v 0.009751 0.003302 0.001923
v 0.009751 -0.003066 0.008660
v 0.004622 -0.009555 0.012847
v -0.003677 -0.013952 0.012626
v -0.010283 -0.016077 0.006479
v -0.014366 -0.013353 -0.001385
v -0.014366 -0.006821 -0.007963
v -0.010283 0.001025 -0.010743
v -0.003677 0.007186 -0.008662
v 0.002930 0.009311 -0.002515
v 0.007013 0.006587 0.005350
v 0.007013 0.000055 0.011928
v 0.002930 -0.007791 0.014707
v 0.019349 -0.032440 -0.005732
v 0.012743 -0.034564 -0.011879
v 0.008660 -0.031840 -0.019743
v 0.008660 -0.025308 -0.026321
v 0.012743 -0.017463 -0.029101
v 0.019349 -0.011301 -0.027019
v 0.025956 -0.009177 -0.020873
v 0.030039 -0.011901 -0.013008
v 0.030039 -0.018433 -0.006430
v 0.025956 -0.026278 -0.003651
v 0.019349 -0.023024 -0.001420
v 0.014203 -0.029942 -0.004827
v 0.011023 -0.033777 -0.012645
v 0.011023 -0.033064 -0.021888
v 0.014203 -0.028076 -0.029025
v 0.019349 -0.020717 -0.031331
v 0.024495 -0.013799 -0.027924
v 0.027675 -0.009964 -0.020106
v 0.027675 -0.010677 -0.010863
v 0.024495 -0.015666 -0.003726
v 0.035937 -0.034911 -0.002337
v 0.030791 -0.041829 -0.005744
v 0.027611 -0.045664 -0.013562
v 0.027611 -0.044951 -0.022805
v 0.030791 -0.039962 -0.029942
v 0.035937 -0.032604 -0.032248
v 0.041083 -0.025686 -0.028841
v 0.044263 -0.021851 -0.021023
v 0.044263 -0.022564 -0.011780
v 0.041083 -0.027552 -0.004643
v 0.035937 -0.031368 -0.002484
v 0.030764 -0.038874 -0.004175
v 0.027567 -0.044424 -0.010876
v 0.027567 -0.045901 -0.020029
v 0.030764 -0.042739 -0.028136
v 0.035937 -0.036146 -0.032101
v 0.041110 -0.028641 -0.030410
v 0.044306 -0.023091 -0.023708
v 0.044306 -0.021614 -0.014556
v 0.041110 -0.024776 -0.006449
v 0.055480 -0.045347 -0.000229
v 0.050307 -0.052852 -0.001920
v 0.047110 -0.058403 -0.008621
v 0.047110 -0.059879 -0.017774
v 0.050307 -0.056717 -0.025881
v 0.055480 -0.050125 -0.029846
v 0.060653 -0.042620 -0.028155
v 0.063850 -0.037069 -0.021453
v 0.063850 -0.035592 -0.012301
v 0.060653 -0.038754 -0.004194
v -0.034073 0.045856 0.068713
v -0.042230 0.046307 0.064331
v -0.047271 0.051298 0.058362
v -0.047271 0.058921 0.053088
v -0.042230 0.066266 0.050521
v -0.034073 0.070526 0.051644
v -0.025916 0.070075 0.056026
v -0.020875 0.065084 0.061995
v -0.020875 0.057460 0.067269
v -0.025916 0.050116 0.069836
v 0.002227 -0.004478 -0.004036
v -0.005930 -0.004027 -0.008418
v -0.010971 0.000964 -0.014387
v -0.010971 0.008588 -0.019661
v -0.005930 0.015932 -0.022228
v 0.002227 0.020193 -0.021105
v 0.010384 0.019741 -0.016723
v 0.015425 0.014750 -0.010754
v 0.015425 0.007127 -0.005480
v 0.010384 -0.000218 -0.002913
v 0.001456 0.007857 0.002410
v 0.002581 -0.000905 -0.000401
v 0.003571 -0.006320 -0.007860
v 0.004047 -0.006320 -0.017118
v 0.003829 -0.000905 -0.024639
v 0.002998 0.007857 -0.027551
v 0.001874 0.016620 -0.024740
v 0.000884 0.022035 -0.017281
v 0.000407 0.022035 -0.008023
v 0.000626 0.016620 -0.000502
v 0.026026 0.010606 0.003674
v 0.027151 0.001843 0.000864
v 0.028141 -0.003572 -0.006595
v 0.028617 -0.003572 -0.015853
v 0.028399 0.001843 -0.023375
v 0.027568 0.010606 -0.026286
v 0.026443 0.019368 -0.023475
v 0.025454 0.024783 -0.016016
v 0.024977 0.024783 -0.006758
v 0.025196 0.019368 0.000763
v 0.026797 0.024985 -0.015576
v 0.018084 0.022622 -0.013471
v 0.012698 0.015669 -0.010539
v 0.012698 0.006782 -0.007900
v 0.018084 -0.000645 -0.006562
v 0.026797 -0.003774 -0.007036
v 0.035511 -0.001410 -0.009141
v 0.040896 0.005543 -0.012073
v 0.040896 0.014430 -0.014712
v 0.035511 0.021856 -0.016050
v 0.030544 0.031895 0.007692
v 0.021830 0.029531 0.009797
v 0.016445 0.022578 0.012729
v 0.016445 0.013691 0.015368
v 0.021830 0.006265 0.016706
v 0.030544 0.003136 0.016232
v 0.039257 0.005499 0.014127
v 0.044643 0.012452 0.011195
v 0.044643 0.021339 0.008556
v 0.039257 0.028765 0.007218
v 0.030544 0.031704 0.007097
v 0.022447 0.027863 0.004725
v 0.017443 0.020069 0.005117
v 0.017443 0.011299 0.008124
v 0.022447 0.004904 0.012596
v 0.030544 0.003326 0.016826
v 0.038641 0.007167 0.019198
v 0.043645 0.014962 0.018806
v 0.043645 0.023731 0.015800
v 0.038641 0.030126 0.011328
v 0.021318 0.038646 0.027346
v 0.013221 0.034805 0.024974
v 0.008217 0.027011 0.025366
v 0.008217 0.018241 0.028373
v 0.013221 0.011846 0.032845
v 0.021318 0.010268 0.037075
v 0.029415 0.014109 0.039447
v 0.034419 0.021904 0.039055
v 0.034419 0.030673 0.036049
v 0.029415 0.037068 0.031577
v -0.034073 0.044241 0.065691
v -0.042274 0.045716 0.061629
v -0.047343 0.051956 0.057013
v -0.047343 0.060578 0.053606
v -0.042274 0.068288 0.052709
v -0.034073 0.072141 0.054666
v -0.025871 0.070666 0.058728
v -0.020803 0.064426 0.063344
v -0.020803 0.055804 0.066751
v -0.025871 0.048094 0.067648
v -0.001834 0.014210 -0.010302
v -0.010036 0.015685 -0.014364
v -0.015104 0.021926 -0.018980
v -0.015104 0.030547 -0.022387
v -0.010036 0.038257 -0.023284
v -0.001834 0.042111 -0.021327
v 0.006367 0.040636 -0.017265
v 0.011436 0.034396 -0.012649
v 0.011436 0.025774 -0.009242
v 0.006367 0.018064 -0.008345
v -0.003741 0.028161 -0.000936
v -0.004663 0.019440 -0.003943
v -0.004504 0.014050 -0.011484
v -0.003326 0.014050 -0.020679
v -0.001578 0.019440 -0.028016
v 0.000072 0.028161 -0.030693
v 0.000994 0.036882 -0.027687
v 0.000836 0.042271 -0.020146
v -0.000342 0.042271 -0.010950
v -0.002090 0.036882 -0.003613
v 0.017814 0.024930 0.001826
v 0.016892 0.016209 -0.001181
v 0.017050 0.010819 -0.008722
v 0.018228 0.010819 -0.017917
v 0.019976 0.016209 -0.025254
v 0.021627 0.024930 -0.027931
v 0.022549 0.033650 -0.024925
v 0.022391 0.039040 -0.017384
v 0.021212 0.039040 -0.008188
v 0.019464 0.033650 -0.000851
v 0.019720 0.039700 -0.015665
v 0.011139 0.037232 -0.013173
v 0.005835 0.030064 -0.010635
v 0.005835 0.020935 -0.009021
v 0.011139 0.013332 -0.008946
v 0.019720 0.010159 -0.010440
v 0.028302 0.012627 -0.012932
v 0.033605 0.019795 -0.015470
v 0.033605 0.028924 -0.017084
v 0.028302 0.036527 -0.017159
v 0.024317 0.043095 0.003527
v 0.015735 0.040626 0.006019
v 0.010432 0.033459 0.008557
v 0.010432 0.024330 0.010171
v 0.015735 0.016727 0.010246
v 0.024317 0.013553 0.008752
v 0.032898 0.016022 0.006260
v 0.038202 0.023189 0.003723
v 0.038202 0.032318 0.002108
v 0.032898 0.039921 0.002033
v 0.024317 0.043109 0.003608
v 0.016691 0.039538 -0.000270
v 0.011978 0.031684 -0.001700
v 0.011978 0.022547 -0.000135
v 0.016691 0.015616 0.003826
v 0.024317 0.013539 0.008671
v 0.031943 0.017110 0.012550
v 0.036656 0.024964 0.013980
v 0.036656 0.034101 0.012415
v 0.031943 0.041032 0.008453
v 0.015522 0.045667 0.018547
v 0.007896 0.042096 0.014669
v 0.003183 0.034242 0.013239
v 0.003183 0.025105 0.014803
v 0.007896 0.018174 0.018765
v 0.015522 0.016097 0.023610
v 0.023147 0.019668 0.027488
v 0.027860 0.027522 0.028918
v 0.027860 0.036659 0.027354
v 0.023147 0.043590 0.023392
f 1 2 13
f 2 14 13
f 2 3 14
f 3 15 14
f 3 4 15
f 4 16 15
f 4 5 16
f 5 17 16
f 5 6 17
f 6 18 17
f 6 7 18
f 7 19 18
f 7 8 19
f 8 20 19
f 8 9 20
f 9 21 20
f 9 10 21
f 10 22 21
f 10 11 22
f 11 23 22
f 11 12 23
f 12 24 23
f 13 14 25
f 14 26 25
f 14 15 26
f 15 27 26
f 15 16 27
f 16 28 27
f 16 17 28
f 17 29 28
f 17 18 29
f 18 30 29
f 18 19 30
f 19 31 30
f 19 20 31
f 20 32 31
f 20 21 32
f 21 33 32
f 21 22 33
f 22 34 33
f 22 23 34
f 23 35 34
f 23 24 35
f 24 36 35
f 25 26 37
f 26 38 37
f 26 27 38
f 27 39 38
f 27 28 39
f 28 40 39
f 28 29 40
f 29 41 40
f 29 30 41
f 30 42 41
f 30 31 42
f 31 43 42
f 31 32 43
f 32 44 43
f 32 33 44
f 33 45 44
f 33 34 45
f 34 46 45
f 34 35 46
f 35 47 46
f 35 36 47
f 36 48 47
f 37 38 49
f 38 50 49
f 38 39 50
f 39 51 50
f 39 40 51
f 40 52 51
f 40 41 52
f 41 53 52
f 41 42 53
f 42 54 53
f 42 43 54
f 43 55 54
f 43 44 55
f 44 56 55
f 44 45 56
f 45 57 56
f 45 46 57
f 46 58 57
f 46 47 58
f 47 59 58
f 47 48 59
f 48 60 59
f 49 50 61
f 50 62 61
f 50 51 62
f 51 63 62
f 51 52 63
f 52 64 63
f 52 53 64
f 53 65 64
f 53 54 65
f 54 66 65
f 54 55 66
f 55 67 66
f 55 56 67
f 56 68 67
f 56 57 68
f 57 69 68
f 57 58 69
f 58 70 69
f 58 59 70
f 59 71 70
f 59 60 71
f 60 72 71
f 61 62 73
f 62 74 73
f 62 63 74
f 63 75 74
f 63 64 75
f 64 76 75
f 64 65 76
f 65 77 76
f 65 66 77
f 66 78 77
f 66 67 78
f 67 79 78
f 67 68 79
f 68 80 79
f 68 69 80
f 69 81 80
f 69 70 81
f 70 82 81
f 70 71 82
f 71 83 82
f 71 72 83
f 72 84 83
f 73 74 85
f 74 86 85
f 74 75 86
f 75 87 86
f 75 76 87
f 76 88 87
f 76 77 88
f 77 89 88
f 77 78 89
f 78 90 89
f 78 79 90
f 79 91 90
f 79 80 91
f 80 92 91
f 80 81 92
f 81 93 92
f 81 82 93
f 82 94 93
f 82 83 94
f 83 95 94
f 83 84 95
f 84 96 95
f 85 86 97
f 86 98 97
f 86 87 98
f 87 99 98
f 87 88 99
f 88 100 99
f 88 89 100
f 89 101 100
f 89 90 101
f 90 102 101
f 90 91 102
f 91 103 102
f 91 92 103
f 92 104 103
f 92 93 104
f 93 105 104
f 93 94 105
f 94 106 105
f 94 95 106
f 95 107 106
f 95 96 107
f 96 108 107
f 97 98 109
f 98 110 109
f 98 99 110
f 99 111 110
f 99 100 111
f 100 112 111
f 100 101 112
f 101 113 112
f 101 102 113
f 102 114 113
f 102 103 114
f 103 115 114
f 103 104 115
f 104 116 115
f 104 105 116
f 105 117 116
f 105 106 117
f 106 118 117
f 106 107 118
f 107 119 118
f 107 108 119
f 108 120 119
f 109 110 121
f 110 122 121
f 110 111 122
f 111 123 122
f 111 112 123
f 112 124 123
f 112 113 124
f 113 125 124
f 113 114 125
f 114 126 125
f 114 115 126
f 115 127 126
f 115 116 127
f 116 128 127
f 116 117 128
f 117 129 128
f 117 118 129
f 118 130 129
f 118 119 130
f 119 131 130
f 119 120 131
f 120 132 131
f 121 122 133
f 122 134 133
f 122 123 134
f 123 135 134
f 123 124 135
f 124 136 135
f 124 125 136
f 125 137 136
f 125 126 137
f 126 138 137
f 126 127 138
f 127 139 138
f 127 128 139
f 128 140 139
f 128 129 140
f 129 141 140
f 129 130 141
f 130 142 141
f 130 131 142
f 131 143 142
f 131 132 143
f 132 144 143
f 145 146 155
f 146 156 155
f 146 147 156
f 147 157 156
f 147 148 157
f 148 158 157
f 148 149 158
f 149 159 158
f 149 150 159
f 150 160 159
f 150 151 160
f 151 161 160
f 151 152 161
f 152 162 161
f 152 153 162
f 153 163 162
f 153 154 163
f 154 164 163
f 154 145 164
f 145 155 164
f 165 166 175
f 166 176 175
f 166 167 176
f 167 177 176
f 167 168 177
f 168 178 177
f 168 169 178
f 169 179 178
f 169 170 179
f 170 180 179
f 170 171 180
f 171 181 180
f 171 172 181
f 172 182 181
f 172 173 182
f 173 183 182
f 173 174 183
f 174 184 183
f 174 165 184
f 165 175 184
f 185 186 195
f 186 196 195
f 186 187 196
f 187 197 196
f 187 188 197
f 188 198 197
f 188 189 198
f 189 199 198
f 189 190 199
f 190 200 199
f 190 191 200
f 191 201 200
f 191 192 201
f 192 202 201
f 192 193 202
f 193 203 202
f 193 194 203
f 194 204 203
f 194 185 204
f 185 195 204
f 205 206 215
f 206 216 215
f 206 207 216
f 207 217 216
f 207 208 217
f 208 218 217
f 208 209 218
f 209 219 218
f 209 210 219
f 210 220 219
f 210 211 220
f 211 221 220
f 211 212 221
f 212 222 221
f 212 213 222
f 213 223 222
f 213 214 223
f 214 224 223
f 214 205 224
f 205 215 224
f 225 226 235
f 226 236 235
f 226 227 236
f 227 237 236
f 227 228 237
f 228 238 237
f 228 229 238
f 229 239 238
f 229 230 239
f 230 240 239
f 230 231 240
f 231 241 240
f 231 232 241
f 232 242 241
f 232 233 242
f 233 243 242
f 233 234 243
f 234 244 243
f 234 225 244
f 225 235 244
f 245 246 255
f 246 256 255
f 246 247 256
f 247 257 256
f 247 248 257
f 248 258 257
f 248 249 258
f 249 259 258
f 249 250 259
f 250 260 259
f 250 251 260
f 251 261 260
f 251 252 261
f 252 262 261
f 252 253 262
f 253 263 262
f 253 254 263
f 254 264 263
f 254 245 264
f 245 255 264
f 265 266 275
f 266 276 275
f 266 267 276
f 267 277 276
f 267 268 277
f 268 278 277
f 268 269 278
f 269 279 278
f 269 270 279
f 270 280 279
f 270 271 280
f 271 281 280
f 271 272 281
f 272 282 281
f 272 273 282
f 273 283 282
f 273 274 283
f 274 284 283
f 274 265 284
f 265 275 284
f 285 286 295
f 286 296 295
f 286 287 296
f 287 297 296
f 287 288 297
f 288 298 297
f 288 289 298
f 289 299 298
f 289 290 299
f 290 300 299
f 290 291 300
f 291 301 300
f 291 292 301
f 292 302 301
f 292 293 302
f 293 303 302
f 293 294 303
f 294 304 303
f 294 285 304
f 285 295 304
f 305 306 315
f 306 316 315
f 306 307 316
f 307 317 316
f 307 308 317
f 308 318 317
f 308 309 318
f 309 319 318
f 309 310 319
f 310 320 319
f 310 311 320
f 311 321 320
f 311 312 321
f 312 322 321
f 312 313 322
f 313 323 322
f 313 314 323
f 314 324 323
f 314 305 324
f 305 315 324
f 325 326 335
f 326 336 335
f 326 327 336
f 327 337 336
f 327 328 337
f 328 338 337
f 328 329 338
f 329 339 338
f 329 330 339
f 330 340 339
f 330 331 340
f 331 341 340
f 331 332 341
f 332 342 341
f 332 333 342
f 333 343 342
f 333 334 343
f 334 344 343
f 334 325 344
f 325 335 344
f 345 346 355
f 346 356 355
f 346 347 356
f 347 357 356
f 347 348 357
f 348 358 357
f 348 349 358
f 349 359 358
f 349 350 359
f 350 360 359
f 350 351 360
f 351 361 360
f 351 352 361
f 352 362 361
f 352 353 362
f 353 363 362
f 353 354 363
f 354 364 363
f 354 345 364
f 345 355 364
f 365 366 375
f 366 376 375
f 366 367 376
f 367 377 376
f 367 368 377
f 368 378 377
f 368 369 378
f 369 379 378
f 369 370 379
f 370 380 379
f 370 371 380
f 371 381 380
f 371 372 381
f 372 382 381
f 372 373 382
f 373 383 382
f 373 374 383
f 374 384 383
f 374 365 384
f 365 375 384
f 385 386 395
f 386 396 395
f 386 387 396
f 387 397 396
f 387 388 397
f 388 398 397
f 388 389 398
f 389 399 398
f 389 390 399
f 390 400 399
f 390 391 400
f 391 401 400
f 391 392 401
f 392 402 401
f 392 393 402
f 393 403 402
f 393 394 403
f 394 404 403
f 394 385 404
f 385 395 404
f 405 406 415
f 406 416 415
f 406 407 416
f 407 417 416
f 407 408 417
f 408 418 417
f 408 409 418
f 409 419 418
f 409 410 419
f 410 420 419
f 410 411 420
f 411 421 420
f 411 412 421
f 412 422 421
f 412 413 422
f 413 423 422
f 413 414 423
f 414 424 423
f 414 405 424
f 405 415 424
f 425 426 435
f 426 436 435
f 426 427 436
f 427 437 436
f 427 428 437
f 428 438 437
f 428 429 438
f 429 439 438
f 429 430 439
f 430 440 439
f 430 431 440
f 431 441 440
f 431 432 441
f 432 442 441
f 432 433 442
f 433 443 442
f 433 434 443
f 434 444 443
f 434 425 444
f 425 435 444
f 445 446 455
f 446 456 455
f 446 447 456
f 447 457 456
f 447 448 457
f 448 458 457
f 448 449 458
f 449 459 458
f 449 450 459
f 450 460 459
f 450 451 460
f 451 461 460
f 451 452 461
f 452 462 461
f 452 453 462
f 453 463 462
f 453 454 463
f 454 464 463
f 454 445 464
f 445 455 464
f 465 466 475
f 466 476 475
f 466 467 476
f 467 477 476
f 467 468 477
f 468 478 477
f 468 469 478
f 469 479 478
f 469 470 479
f 470 480 479
f 470 471 480
f 471 481 480
f 471 472 481
f 472 482 481
f 472 473 482
f 473 483 482
f 473 474 483
f 474 484 483
f 474 465 484
f 465 475 484
f 485 486 495
f 486 496 495
f 486 487 496
f 487 497 496
f 487 488 497
f 488 498 497
f 488 489 498
f 489 499 498
f 489 490 499
f 490 500 499
f 490 491 500
f 491 501 500
f 491 492 501
f 492 502 501
f 492 493 502
f 493 503 502
f 493 494 503
f 494 504 503
f 494 485 504
f 485 495 504
f 505 506 515
f 506 516 515
f 506 507 516
f 507 517 516
f 507 508 517
f 508 518 517
f 508 509 518
f 509 519 518
f 509 510 519
f 510 520 519
f 510 511 520
f 511 521 520
f 511 512 521
f 512 522 521
f 512 513 522
f 513 523 522
f 513 514 523
f 514 524 523
f 514 505 524
f 505 515 524
f 525 526 535
f 526 536 535
f 526 527 536
f 527 537 536
f 527 528 537
f 528 538 537
f 528 529 538
f 529 539 538
f 529 530 539
f 530 540 539
f 530 531 540
f 531 541 540
f 531 532 541
f 532 542 541
f 532 533 542
f 533 543 542
f 533 534 543
f 534 544 543
f 534 525 544
f 525 535 544
f 545 546 555
f 546 556 555
f 546 547 556
f 547 557 556
f 547 548 557
f 548 558 557
f 548 549 558
f 549 559 558
f 549 550 559
f 550 560 559
f 550 551 560
f 551 561 560
f 551 552 561
f 552 562 561
f 552 553 562
f 553 563 562
f 553 554 563
f 554 564 563
f 554 545 564
f 545 555 564
f 565 566 575
f 566 576 575
f 566 567 576
f 567 577 576
f 567 568 577
f 568 578 577
f 568 569 578
f 569 579 578
f 569 570 579
f 570 580 579
f 570 571 580
f 571 581 580
f 571 572 581
f 572 582 581
f 572 573 582
f 573 583 582
f 573 574 583
f 574 584 583
f 574 565 584
f 565 575 584
f 585 586 595
f 586 596 595
f 586 587 596
f 587 597 596
f 587 588 597
f 588 598 597
f 588 589 598
f 589 599 598
f 589 590 599
f 590 600 599
f 590 591 600
f 591 601 600
f 591 592 601
f 592 602 601
f 592 593 602
f 593 603 602
f 593 594 603
f 594 604 603
f 594 585 604
f 585 595 604
f 605 606 615
f 606 616 615
f 606 607 616
f 607 617 616
f 607 608 617
f 608 618 617
f 608 609 618
f 609 619 618
f 609 610 619
f 610 620 619
f 610 611 620
f 611 621 620
f 611 612 621
f 612 622 621
f 612 613 622
f 613 623 622
f 613 614 623
f 614 624 623
f 614 605 624
f 605 615 624
f 625 626 635
f 626 636 635
f 626 627 636
f 627 637 636
f 627 628 637
f 628 638 637
f 628 629 638
f 629 639 638
f 629 630 639
f 630 640 639
f 630 631 640
f 631 641 640
f 631 632 641
f 632 642 641
f 632 633 642
f 633 643 642
f 633 634 643
f 634 644 643
f 634 625 644
f 625 635 644
f 645 646 655
f 646 656 655
f 646 647 656
f 647 657 656
f 647 648 657
f 648 658 657
f 648 649 658
f 649 659 658
f 649 650 659
f 650 660 659
f 650 651 660
f 651 661 660
f 651 652 661
f 652 662 661
f 652 653 662
f 653 663 662
f 653 654 663
f 654 664 663
f 654 645 664
f 645 655 664
f 665 666 675
f 666 676 675
f 666 667 676
f 667 677 676
f 667 668 677
f 668 678 677
f 668 669 678
f 669 679 678
f 669 670 679
f 670 680 679
f 670 671 680
f 671 681 680
f 671 672 681
f 672 682 681
f 672 673 682
f 673 683 682
f 673 674 683
f 674 684 683
f 674 665 684
f 665 675 684
f 685 686 695
f 686 696 695
f 686 687 696
f 687 697 696
f 687 688 697
f 688 698 697
f 688 689 698
f 689 699 698
f 689 690 699
f 690 700 699
f 690 691 700
f 691 701 700
f 691 692 701
f 692 702 701
f 692 693 702
f 693 703 702
f 693 694 703
f 694 704 703
f 694 685 704
f 685 695 704
f 705 706 715
f 706 716 715
f 706 707 716
f 707 717 716
f 707 708 717
f 708 718 717
f 708 709 718
f 709 719 718
f 709 710 719
f 710 720 719
f 710 711 720
f 711 721 720
f 711 712 721
f 712 722 721
f 712 713 722
f 713 723 722
f 713 714 723
f 714 724 723
f 714 705 724
f 705 715 724
f 725 726 735
f 726 736 735
f 726 727 736
f 727 737 736
f 727 728 737
f 728 738 737
f 728 729 738
f 729 739 738
f 729 730 739
f 730 740 739
f 730 731 740
f 731 741 740
f 731 732 741
f 732 742 741
f 732 733 742
f 733 743 742
f 733 734 743
f 734 744 743
f 734 725 744
f 725 735 744
f 745 746 755
f 746 756 755
f 746 747 756
f 747 757 756
f 747 748 757
f 748 758 757
f 748 749 758
f 749 759 758
f 749 750 759
f 750 760 759
f 750 751 760
f 751 761 760
f 751 752 761
f 752 762 761
f 752 753 762
f 753 763 762
f 753 754 763
f 754 764 763
f 754 745 764
f 745 755 764
f 765 766 775
f 766 776 775
f 766 767 776
f 767 777 776
f 767 768 777
f 768 778 777
f 768 769 778
f 769 779 778
f 769 770 779
f 770 780 779
f 770 771 780
f 771 781 780
f 771 772 781
f 772 782 781
f 772 773 782
f 773 783 782
f 773 774 783
f 774 784 783
f 774 765 784
f 765 775 784
