# Full-Body 3D Mesh - Frame 156
v 0.029744 -0.616517 -0.154630
v 0.063552 -0.616517 -0.159491
v 0.094621 -0.616517 -0.173680
v 0.120434 -0.616517 -0.196047
v 0.138900 -0.616517 -0.224780
v 0.148523 -0.616517 -0.257552
v 0.148523 -0.616517 -0.291708
v 0.138900 -0.616517 -0.324480
v 0.120434 -0.616517 -0.353213
v 0.094621 -0.616517 -0.375580
v 0.063552 -0.616517 -0.389769
v 0.029744 -0.616517 -0.394630
v 0.029744 -0.616517 -0.154630
v 0.058185 -0.598239 -0.159491
v 0.084322 -0.581442 -0.173680
v 0.106037 -0.567487 -0.196047
v 0.121572 -0.557503 -0.224780
v 0.129667 -0.552301 -0.257552
v 0.129667 -0.552301 -0.291708
v 0.121572 -0.557503 -0.324480
v 0.106037 -0.567487 -0.353213
v 0.084322 -0.581442 -0.375580
v 0.058185 -0.598239 -0.389769
v 0.029744 -0.616517 -0.394630
v 0.029744 -0.616517 -0.154630
v 0.043788 -0.585765 -0.159491
v 0.056695 -0.557503 -0.173680
v 0.067418 -0.534023 -0.196047
v 0.075089 -0.517226 -0.224780
v 0.079086 -0.508473 -0.257552
v 0.079086 -0.508473 -0.291708
v 0.075089 -0.517226 -0.324480
v 0.067418 -0.534023 -0.353213
v 0.056695 -0.557503 -0.375580
v 0.043788 -0.585765 -0.389769
v 0.029744 -0.616517 -0.394630
v 0.029744 -0.616517 -0.154630
v 0.024933 -0.583054 -0.159491
v 0.020511 -0.552301 -0.173680
v 0.016837 -0.526751 -0.196047
v 0.014210 -0.508473 -0.224780
v 0.012840 -0.498948 -0.257552
v 0.012840 -0.498948 -0.291708
v 0.014210 -0.508473 -0.324480
v 0.016837 -0.526751 -0.353213
v 0.020511 -0.552301 -0.375580
v 0.024933 -0.583054 -0.389769
v 0.029744 -0.616517 -0.394630
v 0.029744 -0.616517 -0.154630
v 0.007605 -0.590967 -0.159491
v -0.012741 -0.567487 -0.173680
v -0.029645 -0.547979 -0.196047
v -0.041738 -0.534023 -0.224780
v -0.048039 -0.526751 -0.257552
v -0.048039 -0.526751 -0.291708
v -0.041738 -0.534023 -0.324480
v -0.029645 -0.547979 -0.353213
v -0.012741 -0.567487 -0.375580
v 0.007605 -0.590967 -0.389769
v 0.029744 -0.616517 -0.394630
v 0.029744 -0.616517 -0.154630
v -0.002694 -0.606993 -0.159491
v -0.032505 -0.598239 -0.173680
v -0.057272 -0.590967 -0.196047
v -0.074990 -0.585765 -0.224780
v -0.084223 -0.583054 -0.257552
v -0.084223 -0.583054 -0.291708
v -0.074990 -0.585765 -0.324480
v -0.057272 -0.590967 -0.353213
v -0.032505 -0.598239 -0.375580
v -0.002694 -0.606993 -0.389769
v 0.029744 -0.616517 -0.394630
v 0.029744 -0.616517 -0.154630
v -0.002694 -0.626042 -0.159491
v -0.032505 -0.634795 -0.173680
v -0.057272 -0.642068 -0.196047
v -0.074990 -0.647270 -0.224780
v -0.084223 -0.649981 -0.257552
v -0.084223 -0.649981 -0.291708
v -0.074990 -0.647270 -0.324480
v -0.057272 -0.642068 -0.353213
v -0.032505 -0.634795 -0.375580
v -0.002694 -0.626042 -0.389769
v 0.029744 -0.616517 -0.394630
v 0.029744 -0.616517 -0.154630
v 0.007605 -0.642068 -0.159491
v -0.012741 -0.665548 -0.173680
v -0.029645 -0.685056 -0.196047
v -0.041738 -0.699012 -0.224780
v -0.048039 -0.706284 -0.257552
v -0.048039 -0.706284 -0.291708
v -0.041738 -0.699012 -0.324480
v -0.029645 -0.685056 -0.353213
v -0.012741 -0.665548 -0.375580
v 0.007605 -0.642068 -0.389769
v 0.029744 -0.616517 -0.394630
v 0.029744 -0.616517 -0.154630
v 0.024933 -0.649981 -0.159491
v 0.020511 -0.680734 -0.173680
v 0.016837 -0.706284 -0.196047
v 0.014210 -0.724562 -0.224780
v 0.012840 -0.734087 -0.257552
v 0.012840 -0.734087 -0.291708
v 0.014210 -0.724562 -0.324480
v 0.016837 -0.706284 -0.353213
v 0.020511 -0.680734 -0.375580
v 0.024933 -0.649981 -0.389769
v 0.029744 -0.616517 -0.394630
v 0.029744 -0.616517 -0.154630
v 0.043788 -0.647270 -0.159491
v 0.056695 -0.675532 -0.173680
v 0.067418 -0.699012 -0.196047
v 0.075089 -0.715809 -0.224780
v 0.079086 -0.724562 -0.257552
v 0.079086 -0.724562 -0.291708
v 0.075089 -0.715809 -0.324480
v 0.067418 -0.699012 -0.353213
v 0.056695 -0.675532 -0.375580
v 0.043788 -0.647270 -0.389769
v 0.029744 -0.616517 -0.394630
v 0.029744 -0.616517 -0.154630
v 0.058185 -0.634795 -0.159491
v 0.084322 -0.651593 -0.173680
v 0.106037 -0.665548 -0.196047
v 0.121572 -0.675532 -0.224780
v 0.129667 -0.680734 -0.257552
v 0.129667 -0.680734 -0.291708
v 0.121572 -0.675532 -0.324480
v 0.106037 -0.665548 -0.353213
v 0.084322 -0.651593 -0.375580
v 0.058185 -0.634795 -0.389769
v 0.029744 -0.616517 -0.394630
v 0.029744 -0.616517 -0.154630
v 0.063552 -0.616517 -0.159491
v 0.094621 -0.616517 -0.173680
v 0.120434 -0.616517 -0.196047
v 0.138900 -0.616517 -0.224780
v 0.148523 -0.616517 -0.257552
v 0.148523 -0.616517 -0.291708
v 0.138900 -0.616517 -0.324480
v 0.120434 -0.616517 -0.353213
v 0.094621 -0.616517 -0.375580
v 0.063552 -0.616517 -0.389769
v 0.029744 -0.616517 -0.394630
v 0.174700 -0.444531 -0.106827
v 0.173275 -0.468033 -0.099292
v 0.170873 -0.482558 -0.079433
v 0.168411 -0.482558 -0.054834
v 0.166830 -0.468033 -0.034892
v 0.166734 -0.444531 -0.027224
v 0.168159 -0.421029 -0.034759
v 0.170561 -0.406504 -0.054619
v 0.173023 -0.406504 -0.079217
v 0.174604 -0.421029 -0.099159
v -0.150620 -0.435241 -0.139381
v -0.152045 -0.458743 -0.131846
v -0.154447 -0.473268 -0.111987
v -0.156908 -0.473268 -0.087388
v -0.158489 -0.458743 -0.067446
v -0.158585 -0.435241 -0.059779
v -0.157160 -0.411739 -0.067314
v -0.154758 -0.397214 -0.087173
v -0.152297 -0.397214 -0.111772
v -0.150716 -0.411739 -0.131713
v 0.170717 -0.465700 -0.100965
v 0.147547 -0.458272 -0.096595
v 0.133227 -0.445594 -0.080931
v 0.133227 -0.432511 -0.059955
v 0.147547 -0.424019 -0.041680
v 0.170717 -0.423361 -0.033087
v 0.193887 -0.430790 -0.037457
v 0.208207 -0.443467 -0.053121
v 0.208207 -0.456551 -0.074096
v 0.193887 -0.465043 -0.092371
v 0.212522 -0.259744 -0.229431
v 0.189351 -0.252315 -0.225061
v 0.175031 -0.239638 -0.209397
v 0.175031 -0.226554 -0.188421
v 0.189351 -0.218062 -0.170147
v 0.212522 -0.217405 -0.161553
v 0.235692 -0.224834 -0.165923
v 0.250012 -0.237511 -0.181587
v 0.250012 -0.250594 -0.202562
v 0.235692 -0.259087 -0.220837
v 0.212522 -0.275632 -0.180434
v 0.190403 -0.265553 -0.175923
v 0.176734 -0.245169 -0.178887
v 0.176734 -0.222267 -0.188194
v 0.190403 -0.205593 -0.200288
v 0.212522 -0.201517 -0.210550
v 0.234640 -0.211596 -0.215061
v 0.248310 -0.231980 -0.212096
v 0.248310 -0.254882 -0.202790
v 0.234640 -0.271556 -0.190696
v 0.113733 -0.378803 -0.434331
v 0.091615 -0.368725 -0.429821
v 0.077945 -0.348341 -0.432785
v 0.077945 -0.325438 -0.442092
v 0.091615 -0.308765 -0.454186
v 0.113733 -0.304689 -0.464448
v 0.135852 -0.314767 -0.468958
v 0.149522 -0.335151 -0.465994
v 0.149522 -0.358054 -0.456688
v 0.135852 -0.374728 -0.444594
v -0.154603 -0.451404 -0.136169
v -0.178018 -0.450257 -0.128324
v -0.192490 -0.443375 -0.109500
v -0.192490 -0.433386 -0.086886
v -0.178018 -0.424105 -0.069122
v -0.154603 -0.419078 -0.062991
v -0.131187 -0.420225 -0.070836
v -0.116715 -0.427107 -0.089660
v -0.116715 -0.437097 -0.112273
v -0.131187 -0.446377 -0.130038
v -0.176616 -0.229107 -0.234366
v -0.200031 -0.227960 -0.226521
v -0.214503 -0.221078 -0.207697
v -0.214503 -0.211089 -0.185083
v -0.200031 -0.201808 -0.167318
v -0.176616 -0.196781 -0.161188
v -0.153200 -0.197928 -0.169032
v -0.138728 -0.204810 -0.187857
v -0.138728 -0.214800 -0.210470
v -0.153200 -0.224080 -0.228235
v -0.176616 -0.248155 -0.178798
v -0.197982 -0.246086 -0.191060
v -0.211187 -0.231357 -0.205887
v -0.211187 -0.209596 -0.217616
v -0.197982 -0.189113 -0.221768
v -0.176616 -0.177733 -0.216755
v -0.155249 -0.179803 -0.204494
v -0.142044 -0.194531 -0.189666
v -0.142044 -0.216292 -0.177937
v -0.155249 -0.236775 -0.173786
v -0.074274 -0.353895 -0.374976
v -0.095640 -0.351825 -0.387238
v -0.108845 -0.337097 -0.402065
v -0.108845 -0.315335 -0.413795
v -0.095640 -0.294853 -0.417946
v -0.074274 -0.283473 -0.412933
v -0.052908 -0.285542 -0.400672
v -0.039702 -0.300270 -0.385845
v -0.039702 -0.322032 -0.374115
v -0.052908 -0.342515 -0.369964
v 0.170717 -0.436584 -0.106228
v 0.147321 -0.440380 -0.099203
v 0.132861 -0.445761 -0.079887
v 0.132861 -0.450673 -0.055659
v 0.147321 -0.453238 -0.035772
v 0.170717 -0.452478 -0.027823
v 0.194113 -0.448682 -0.034848
v 0.208573 -0.443301 -0.054164
v 0.208573 -0.438389 -0.078393
v 0.194113 -0.435824 -0.098280
v 0.126217 0.002419 -0.017236
v 0.102821 -0.001376 -0.010210
v 0.088361 -0.006758 0.009105
v 0.088361 -0.011669 0.033334
v 0.102821 -0.014235 0.053221
v 0.126217 -0.013475 0.061170
v 0.149613 -0.009679 0.054144
v 0.164073 -0.004298 0.034828
v 0.164073 0.000614 0.010600
v 0.149613 0.003180 -0.009287
v -0.154603 -0.427847 -0.138890
v -0.178065 -0.427771 -0.131103
v -0.192566 -0.430549 -0.111275
v -0.192566 -0.435119 -0.086979
v -0.178065 -0.439736 -0.067497
v -0.154603 -0.442636 -0.060269
v -0.131140 -0.442711 -0.068057
v -0.116639 -0.439934 -0.087885
v -0.116639 -0.435363 -0.112180
v -0.131140 -0.430747 -0.131663
v -0.126793 -0.004290 -0.059217
v -0.150256 -0.004214 -0.051429
v -0.164757 -0.006992 -0.031601
v -0.164757 -0.011562 -0.007305
v -0.150256 -0.016179 0.012177
v -0.126793 -0.019079 0.019405
v -0.103331 -0.019155 0.011617
v -0.088830 -0.016377 -0.008211
v -0.088830 -0.011807 -0.032506
v -0.103331 -0.007190 -0.051989
v 0.132748 -0.005528 -0.017496
v 0.132057 -0.029032 -0.009867
v 0.129136 -0.043559 0.009921
v 0.125100 -0.043559 0.034311
v 0.121490 -0.029032 0.053985
v 0.119686 -0.005528 0.061430
v 0.120377 0.017977 0.053801
v 0.123298 0.032504 0.034013
v 0.127334 0.032504 0.009623
v 0.130944 0.017977 -0.010052
v -0.120262 -0.011684 -0.059369
v -0.120953 -0.035189 -0.051740
v -0.123874 -0.049716 -0.031952
v -0.127911 -0.049716 -0.007562
v -0.131520 -0.035189 0.012113
v -0.133324 -0.011684 0.019557
v -0.132634 0.011820 0.011928
v -0.129712 0.026347 -0.007860
v -0.125676 0.026347 -0.032250
v -0.122066 0.011820 -0.051924
v 0.126217 -0.029445 -0.010095
v 0.102710 -0.024514 -0.004242
v 0.088182 -0.012331 0.011621
v 0.088182 0.002450 0.031436
v 0.102710 0.014185 0.047635
v 0.126217 0.018390 0.054029
v 0.149724 0.013459 0.048176
v 0.164252 0.001276 0.032313
v 0.164252 -0.013506 0.012497
v 0.149724 -0.025240 -0.003701
v 0.128883 0.081487 -0.092849
v 0.105376 0.086418 -0.086996
v 0.090847 0.098601 -0.071133
v 0.090847 0.113383 -0.051318
v 0.105376 0.125118 -0.035120
v 0.128883 0.129323 -0.028726
v 0.152390 0.124392 -0.034578
v 0.166918 0.112209 -0.050442
v 0.166918 0.097427 -0.070257
v 0.152390 0.085692 -0.086455
v 0.128883 0.127428 -0.094179
v 0.105428 0.124589 -0.086900
v 0.090933 0.114422 -0.069647
v 0.090933 0.100811 -0.049010
v 0.105428 0.088955 -0.032872
v 0.128883 0.083382 -0.027396
v 0.152337 0.086221 -0.034675
v 0.166833 0.096388 -0.051928
v 0.166833 0.109999 -0.072565
v 0.152337 0.121855 -0.088703
v 0.149718 0.376560 0.070137
v 0.126264 0.373721 0.077416
v 0.111768 0.363554 0.094669
v 0.111768 0.349943 0.115306
v 0.126264 0.338087 0.131444
v 0.149718 0.332514 0.136920
v 0.173172 0.335353 0.129641
v 0.187668 0.345520 0.112388
v 0.187668 0.359131 0.091751
v 0.173172 0.370987 0.075613
v -0.126793 -0.049544 -0.006998
v -0.150056 -0.043414 -0.012690
v -0.164433 -0.025164 -0.021139
v -0.164433 -0.001765 -0.029116
v -0.150056 0.017845 -0.033576
v -0.126793 0.026176 -0.032814
v -0.103530 0.020045 -0.027122
v -0.089153 0.001795 -0.018673
v -0.089153 -0.021604 -0.010696
v -0.103530 -0.041214 -0.006236
v -0.091465 -0.127329 -0.235148
v -0.114728 -0.121199 -0.240840
v -0.129105 -0.102949 -0.249289
v -0.129105 -0.079550 -0.257266
v -0.114728 -0.059940 -0.261726
v -0.091465 -0.051609 -0.260964
v -0.068202 -0.057739 -0.255272
v -0.053825 -0.075990 -0.246823
v -0.053825 -0.099388 -0.238846
v -0.068202 -0.118998 -0.234386
v -0.091465 -0.090577 -0.288041
v -0.114967 -0.089694 -0.280423
v -0.129492 -0.088725 -0.260442
v -0.129492 -0.088040 -0.235730
v -0.114967 -0.087901 -0.215726
v -0.091465 -0.088361 -0.208071
v -0.067963 -0.089244 -0.215689
v -0.053438 -0.090213 -0.235670
v -0.053438 -0.090898 -0.260382
v -0.067963 -0.091037 -0.280386
v -0.083283 0.195574 -0.295970
v -0.106785 0.196457 -0.288352
v -0.121310 0.197426 -0.268372
v -0.121310 0.198111 -0.243660
v -0.106785 0.198250 -0.223656
v -0.083283 0.197790 -0.216001
v -0.059781 0.196907 -0.223619
v -0.045257 0.195938 -0.243600
v -0.045257 0.195253 -0.268311
v -0.059781 0.195114 -0.288315
v -0.053620 0.036018 0.083044
v -0.060410 0.031269 0.078887
v -0.064607 0.029740 0.070763
v -0.064607 0.032014 0.061776
v -0.060410 0.037224 0.055358
v -0.053620 0.043378 0.053961
v -0.046829 0.048127 0.058118
v -0.042632 0.049656 0.066241
v -0.042632 0.047382 0.075228
v -0.046829 0.042172 0.081646
v -0.028767 0.006925 0.075680
v -0.035557 0.002176 0.071524
v -0.039754 0.000647 0.063400
v -0.039754 0.002922 0.054413
v -0.035557 0.008131 0.047995
v -0.028767 0.014286 0.046598
v -0.021976 0.019035 0.050755
v -0.017779 0.020564 0.058878
v -0.017779 0.018289 0.067865
v -0.021976 0.013080 0.074283
v -0.028767 0.004311 0.074754
v -0.033155 -0.001428 0.068945
v -0.035867 -0.002571 0.060154
v -0.035867 0.001320 0.051739
v -0.033155 0.008757 0.046915
v -0.028767 0.016900 0.047524
v -0.024378 0.022639 0.053333
v -0.021666 0.023781 0.062124
v -0.021666 0.019891 0.070539
v -0.024378 0.012454 0.075363
v -0.003042 -0.009090 0.068559
v -0.007430 -0.014829 0.062750
v -0.010143 -0.015971 0.053959
v -0.010143 -0.012081 0.045544
v -0.007430 -0.004644 0.040720
v -0.003042 0.003499 0.041328
v 0.001347 0.009238 0.047138
v 0.004059 0.010381 0.055929
v 0.004059 0.006491 0.064343
v 0.001347 -0.000946 0.069168
v -0.003042 -0.017604 0.057328
v -0.010186 -0.015597 0.051771
v -0.014601 -0.008700 0.047426
v -0.014601 0.000452 0.045953
v -0.010186 0.008365 0.047914
v -0.003042 0.012014 0.052560
v 0.004102 0.010007 0.058116
v 0.008518 0.003110 0.062461
v 0.008518 -0.006043 0.063935
v 0.004102 -0.013955 0.061974
v 0.013420 -0.021222 0.034857
v 0.006276 -0.019215 0.029300
v 0.001861 -0.012318 0.024955
v 0.001861 -0.003165 0.023482
v 0.006276 0.004747 0.025442
v 0.013420 0.008396 0.030088
v 0.020564 0.006389 0.035645
v 0.024980 -0.000508 0.039990
v 0.024980 -0.009660 0.041464
v 0.020564 -0.017573 0.039503
v 0.013420 -0.021378 0.031452
v 0.006346 -0.018162 0.026397
v 0.001974 -0.010458 0.023663
v 0.001974 -0.001209 0.024293
v 0.006346 0.006052 0.028048
v 0.013420 0.008552 0.033493
v 0.020495 0.005336 0.038548
v 0.024867 -0.002368 0.041283
v 0.024867 -0.011617 0.040652
v 0.020495 -0.018878 0.036897
v 0.030489 -0.019817 0.008559
v 0.023415 -0.016601 0.003504
v 0.019043 -0.008897 0.000770
v 0.019043 0.000352 0.001400
v 0.023415 0.007613 0.005155
v 0.030489 0.010113 0.010600
v 0.037563 0.006897 0.015655
v 0.041935 -0.000807 0.018390
v 0.041935 -0.010056 0.017759
v 0.037563 -0.017317 0.014004
v -0.053620 0.029355 0.079366
v -0.061137 0.027994 0.074114
v -0.065783 0.031104 0.066720
v -0.065783 0.037496 0.060006
v -0.061137 0.044730 0.056537
v -0.053620 0.050041 0.057639
v -0.046102 0.051402 0.062890
v -0.041456 0.048292 0.070285
v -0.041456 0.041900 0.076999
v -0.046102 0.034666 0.080467
v -0.001773 -0.031922 0.021021
v -0.009291 -0.033283 0.015770
v -0.013937 -0.030173 0.008375
v -0.013937 -0.023781 0.001661
v -0.009291 -0.016547 -0.001807
v -0.001773 -0.011236 -0.000705
v 0.005744 -0.009875 0.004546
v 0.010391 -0.012985 0.011941
v 0.010391 -0.019377 0.018655
v 0.005744 -0.026611 0.022123
v 0.002158 -0.021579 0.024634
v -0.000676 -0.030127 0.022435
v -0.003929 -0.035411 0.015547
v -0.006359 -0.035411 0.006600
v -0.007037 -0.030127 -0.000987
v -0.005704 -0.021579 -0.004318
v -0.002870 -0.013031 -0.002119
v 0.000383 -0.007747 0.004769
v 0.002812 -0.007747 0.013716
v 0.003490 -0.013031 0.021303
v 0.025874 -0.027785 0.018193
v 0.023040 -0.036334 0.015994
v 0.019787 -0.041617 0.009106
v 0.017358 -0.041617 0.000160
v 0.016680 -0.036334 -0.007428
v 0.018012 -0.027785 -0.010758
v 0.020846 -0.019237 -0.008559
v 0.024099 -0.013954 -0.001671
v 0.026529 -0.013954 0.007275
v 0.027207 -0.019237 0.014863
v 0.021943 -0.016981 0.014122
v 0.017901 -0.024479 0.017779
v 0.015403 -0.033241 0.016065
v 0.015403 -0.039918 0.009634
v 0.017901 -0.041961 0.000943
v 0.021943 -0.038590 -0.006688
v 0.025986 -0.031091 -0.010344
v 0.028484 -0.022329 -0.008630
v 0.028484 -0.015652 -0.002199
v 0.025986 -0.013609 0.006491
v 0.044375 -0.025008 0.022458
v 0.040333 -0.032507 0.026115
v 0.037835 -0.041268 0.024400
v 0.037835 -0.047946 0.017970
v 0.040333 -0.049989 0.009279
v 0.044375 -0.046617 0.001648
v 0.048418 -0.039118 -0.002009
v 0.050916 -0.030357 -0.000294
v 0.050916 -0.023680 0.006136
v 0.048418 -0.021637 0.014827
v 0.044375 -0.026216 0.023581
v 0.040179 -0.034008 0.026341
v 0.037585 -0.042489 0.023643
v 0.037585 -0.048421 0.016518
v 0.040179 -0.049536 0.007688
v 0.044375 -0.045410 0.000525
v 0.048572 -0.037618 -0.002234
v 0.051166 -0.029136 0.000464
v 0.051166 -0.023205 0.007588
v 0.048572 -0.022089 0.016418
v 0.060441 -0.032898 0.029144
v 0.056244 -0.040690 0.031904
v 0.053651 -0.049171 0.029206
v 0.053651 -0.055103 0.022081
v 0.056244 -0.056218 0.013251
v 0.060441 -0.052092 0.006088
v 0.064637 -0.044300 0.003329
v 0.067231 -0.035818 0.006027
v 0.067231 -0.029887 0.013151
v 0.064637 -0.028771 0.021981
v -0.053620 0.027080 0.076613
v -0.061076 0.026946 0.071106
v -0.065685 0.031683 0.064605
v -0.065685 0.039481 0.059592
v -0.061076 0.047363 0.057983
v -0.053620 0.052316 0.060392
v -0.046163 0.052450 0.065899
v -0.041555 0.047713 0.072400
v -0.041555 0.039915 0.077412
v -0.046163 0.032033 0.079021
v -0.001325 -0.017733 0.006890
v -0.008781 -0.017867 0.001384
v -0.013390 -0.013130 -0.005118
v -0.013390 -0.005331 -0.010130
v -0.008781 0.002550 -0.011739
v -0.001325 0.007504 -0.009330
v 0.006132 0.007637 -0.003823
v 0.010740 0.002900 0.002678
v 0.010740 -0.004898 0.007690
v 0.006132 -0.012779 0.009299
v -0.000825 -0.005115 0.013772
v -0.002973 -0.013689 0.010977
v -0.004492 -0.018988 0.003523
v -0.004801 -0.018988 -0.005742
v -0.003782 -0.013689 -0.013280
v -0.001824 -0.005115 -0.016212
v 0.000324 0.003459 -0.013417
v 0.001843 0.008759 -0.005963
v 0.002151 0.008759 0.003302
v 0.001132 0.003459 0.010840
v 0.029302 -0.012336 0.012768
v 0.027154 -0.020910 0.009973
v 0.025635 -0.026209 0.002520
v 0.025327 -0.026209 -0.006746
v 0.026346 -0.020910 -0.014284
v 0.028303 -0.012336 -0.017215
v 0.030451 -0.003762 -0.014421
v 0.031970 0.001537 -0.006967
v 0.032278 0.001537 0.002298
v 0.031260 -0.003762 0.009836
v 0.028803 0.002664 -0.002126
v 0.022169 -0.000239 0.003663
v 0.018069 -0.007762 0.007203
v 0.018069 -0.017033 0.007142
v 0.022169 -0.024509 0.003504
v 0.028803 -0.027336 -0.002322
v 0.035436 -0.024433 -0.008111
v 0.039536 -0.016909 -0.011651
v 0.039536 -0.007639 -0.011590
v 0.035436 -0.000163 -0.007952
v 0.043800 0.002552 0.015005
v 0.037166 -0.000351 0.020794
v 0.033066 -0.007874 0.024334
v 0.033066 -0.017145 0.024273
v 0.037166 -0.024621 0.020635
v 0.043800 -0.027448 0.014808
v 0.050433 -0.024545 0.009020
v 0.054533 -0.017022 0.005480
v 0.054533 -0.007751 0.005540
v 0.050433 -0.000275 0.009179
v 0.043800 0.002524 0.013997
v 0.035812 -0.000109 0.017897
v 0.030875 -0.007455 0.020654
v 0.030875 -0.016709 0.021216
v 0.035812 -0.024335 0.019368
v 0.043800 -0.027420 0.015816
v 0.051787 -0.024787 0.011917
v 0.056724 -0.017441 0.009160
v 0.056724 -0.008187 0.008598
v 0.051787 -0.000561 0.010446
v 0.054782 0.003949 0.037459
v 0.046795 0.001316 0.041358
v 0.041858 -0.006031 0.044115
v 0.041858 -0.015284 0.044677
v 0.046795 -0.022910 0.042829
v 0.054782 -0.025996 0.039277
v 0.062770 -0.023363 0.035378
v 0.067707 -0.016016 0.032621
v 0.067707 -0.006763 0.032059
v 0.062770 0.000863 0.033907
v -0.053620 0.025593 0.073605
v -0.060874 0.026582 0.067918
v -0.065357 0.032581 0.062454
v -0.065357 0.041298 0.059300
v -0.060874 0.049405 0.059661
v -0.053620 0.053803 0.063399
v -0.046366 0.052814 0.069087
v -0.041883 0.046815 0.074551
v -0.041883 0.038098 0.077704
v -0.046366 0.029992 0.077343
v 0.001828 -0.001710 -0.001863
v -0.005426 -0.000721 -0.007551
v -0.009910 0.005278 -0.013015
v -0.009910 0.013996 -0.016169
v -0.005426 0.022102 -0.015807
v 0.001828 0.026501 -0.012069
v 0.009081 0.025512 -0.006382
v 0.013565 0.019513 -0.000918
v 0.013565 0.010795 0.002236
v 0.009081 0.002689 0.001875
v -0.002258 0.012395 0.007466
v -0.001089 0.003588 0.004820
v 0.001194 -0.001855 -0.002328
v 0.003719 -0.001855 -0.011248
v 0.005522 0.003588 -0.018533
v 0.005913 0.012395 -0.021399
v 0.004744 0.021203 -0.018753
v 0.002461 0.026646 -0.011604
v -0.000064 0.026646 -0.002684
v -0.001867 0.021203 0.004600
v 0.024377 0.013666 0.015007
v 0.025547 0.004858 0.012361
v 0.027830 -0.000585 0.005212
v 0.030355 -0.000585 -0.003708
v 0.032158 0.004858 -0.010992
v 0.032549 0.013666 -0.013859
v 0.031380 0.022473 -0.011212
v 0.029097 0.027917 -0.004064
v 0.026571 0.027917 0.004856
v 0.024769 0.022473 0.012140
v 0.028463 0.028117 -0.003445
v 0.019654 0.025456 -0.002321
v 0.014210 0.018292 -0.000092
v 0.014210 0.009360 0.002392
v 0.019654 0.002073 0.004182
v 0.028463 -0.000786 0.004593
v 0.037272 0.001875 0.003470
v 0.042717 0.009040 0.001240
v 0.042717 0.017971 -0.001244
v 0.037272 0.025258 -0.003033
v 0.029365 0.033876 0.017261
v 0.020556 0.031215 0.018385
v 0.015111 0.024050 0.020615
v 0.015111 0.015119 0.023098
v 0.020556 0.007832 0.024888
v 0.029365 0.004973 0.025300
v 0.038174 0.007634 0.024176
v 0.043618 0.014798 0.021947
v 0.043618 0.023730 0.019463
v 0.038174 0.031017 0.017673
v 0.029365 0.034419 0.021680
v 0.021574 0.031665 0.017477
v 0.016759 0.024236 0.014727
v 0.016759 0.014968 0.014481
v 0.021574 0.007403 0.016831
v 0.029365 0.004430 0.020881
v 0.037155 0.007184 0.025084
v 0.041970 0.014613 0.027834
v 0.041970 0.023880 0.028080
v 0.037155 0.031446 0.025730
v 0.018451 0.033871 0.042270
v 0.010660 0.031117 0.038068
v 0.005845 0.023688 0.035318
v 0.005845 0.014420 0.035071
v 0.010660 0.006855 0.037422
v 0.018451 0.003882 0.041472
v 0.026242 0.006636 0.045675
v 0.031057 0.014065 0.048424
v 0.031057 0.023332 0.048671
v 0.026242 0.030897 0.046320
v -0.053620 0.024825 0.070448
v -0.060790 0.027000 0.064990
v -0.065222 0.034025 0.060873
v -0.065222 0.043217 0.059670
v -0.060790 0.051065 0.061841
v -0.053620 0.054571 0.066556
v -0.046449 0.052396 0.072015
v -0.042018 0.045371 0.076132
v -0.042018 0.036179 0.077334
v -0.046449 0.028331 0.075163
v -0.001961 0.015458 -0.001144
v -0.009131 0.017633 -0.006602
v -0.013563 0.024658 -0.010719
v -0.013563 0.033851 -0.011922
v -0.009131 0.041699 -0.009751
v -0.001961 0.045205 -0.005035
v 0.005210 0.043030 0.000423
v 0.009641 0.036004 0.004540
v 0.009641 0.026812 0.005743
v 0.005210 0.018964 0.003572
v -0.006082 0.030331 0.011333
v -0.004405 0.021563 0.008833
v -0.001794 0.016144 0.001779
v 0.000753 0.016144 -0.007135
v 0.002263 0.021563 -0.014503
v 0.002160 0.030331 -0.017512
v 0.000483 0.039099 -0.015012
v -0.002127 0.044518 -0.007958
v -0.004674 0.044518 0.000956
v -0.006185 0.039099 0.008324
v 0.018555 0.033036 0.018373
v 0.020232 0.024268 0.015873
v 0.022843 0.018849 0.008819
v 0.025390 0.018849 -0.000095
v 0.026900 0.024268 -0.007464
v 0.026797 0.033036 -0.010473
v 0.025120 0.041804 -0.007972
v 0.022509 0.047223 -0.000918
v 0.019962 0.047223 0.007996
v 0.018452 0.041804 0.015364
v 0.022676 0.047873 0.001740
v 0.013911 0.045179 0.003103
v 0.008494 0.037848 0.004790
v 0.008494 0.028679 0.006156
v 0.013911 0.021174 0.006680
v 0.022676 0.018200 0.006161
v 0.031441 0.020893 0.004797
v 0.036859 0.028225 0.003110
v 0.036859 0.037394 0.001744
v 0.031441 0.044899 0.001221
v 0.025034 0.051074 0.023228
v 0.016269 0.048381 0.024591
v 0.010852 0.041049 0.026278
v 0.010852 0.031880 0.027644
v 0.016269 0.024375 0.028168
v 0.025034 0.021402 0.027649
v 0.033800 0.024095 0.026285
v 0.039217 0.031426 0.024598
v 0.039217 0.040596 0.023232
v 0.033800 0.048100 0.022709
v 0.025034 0.050826 0.028930
v 0.019377 0.049614 0.021687
v 0.015881 0.043293 0.015876
v 0.015881 0.034277 0.013718
v 0.019377 0.026011 0.016036
v 0.025034 0.021650 0.021946
v 0.030692 0.022862 0.029189
v 0.034188 0.029183 0.035000
v 0.034188 0.038198 0.037158
v 0.030692 0.046465 0.034840
v 0.013009 0.048483 0.038715
v 0.007351 0.047272 0.031471
v 0.003855 0.040951 0.025660
v 0.003855 0.031935 0.023502
v 0.007351 0.023668 0.025820
v 0.013009 0.019308 0.031730
v 0.018666 0.020519 0.038973
v 0.022163 0.026840 0.044784
v 0.022163 0.035856 0.046943
v 0.018666 0.044123 0.044624
v 0.049599 0.024971 0.090997
v 0.042677 0.031040 0.089902
v 0.038400 0.036509 0.083759
v 0.038400 0.039288 0.074915
v 0.042677 0.038317 0.066748
v 0.049599 0.033966 0.062377
v 0.056521 0.027897 0.063473
v 0.060799 0.022428 0.069616
v 0.060799 0.019649 0.078460
v 0.056521 0.020620 0.086627
v 0.026084 -0.003461 0.082062
v 0.019163 0.002608 0.080966
v 0.014885 0.008077 0.074823
v 0.014885 0.010856 0.065979
v 0.019163 0.009885 0.057812
v 0.026084 0.005534 0.053442
v 0.033006 -0.000535 0.054538
v 0.037284 -0.006004 0.060681
v 0.037284 -0.008783 0.069525
v 0.033006 -0.007812 0.077692
v 0.026084 -0.011710 0.075659
v 0.021245 -0.005390 0.080412
v 0.018255 0.003384 0.080329
v 0.018255 0.011262 0.075442
v 0.021245 0.015234 0.067618
v 0.026084 0.013783 0.059845
v 0.030923 0.007463 0.055092
v 0.033914 -0.001311 0.055175
v 0.033914 -0.009189 0.060062
v 0.030923 -0.013161 0.067886
v 0.001203 -0.020322 0.061778
v -0.003636 -0.014002 0.066530
v -0.006627 -0.005227 0.066447
v -0.006627 0.002650 0.061561
v -0.003636 0.006622 0.053736
v 0.001203 0.005172 0.045963
v 0.006042 -0.001148 0.041210
v 0.009032 -0.009923 0.041293
v 0.009032 -0.017800 0.046180
v 0.006042 -0.021772 0.054004
v 0.001203 -0.021294 0.047805
v -0.005889 -0.020792 0.053755
v -0.010272 -0.015242 0.059749
v -0.010272 -0.006763 0.063497
v -0.005889 0.001406 0.063568
v 0.001203 0.006144 0.059935
v 0.008294 0.005642 0.053985
v 0.012677 0.000092 0.047992
v 0.012677 -0.008387 0.044243
v 0.008294 -0.016556 0.044172
v -0.021646 -0.008789 0.019517
v -0.028737 -0.008287 0.025466
v -0.033120 -0.002736 0.031460
v -0.033120 0.005743 0.035208
v -0.028737 0.013911 0.035280
v -0.021646 0.018650 0.031646
v -0.014554 0.018148 0.025697
v -0.010171 0.012597 0.019703
v -0.010171 0.004118 0.015955
v -0.014554 -0.004050 0.015884
v -0.021646 -0.007590 0.017321
v -0.029730 -0.007137 0.021836
v -0.034726 -0.002074 0.027781
v -0.034726 0.005664 0.032887
v -0.029730 0.013122 0.035202
v -0.021646 0.017451 0.033842
v -0.013561 0.016998 0.029328
v -0.008565 0.011935 0.023382
v -0.008565 0.004197 0.018277
v -0.013561 -0.003261 0.015961
v -0.033650 0.007599 -0.005700
v -0.041734 0.008052 -0.001185
v -0.046731 0.013115 0.004761
v -0.046731 0.020853 0.009866
v -0.041734 0.028310 0.012181
v -0.033650 0.032640 0.010822
v -0.025566 0.032186 0.006307
v -0.020570 0.027124 0.000361
v -0.020570 0.019386 -0.004744
v -0.025566 0.011928 -0.007059
v 0.049599 0.017167 0.085271
v 0.042065 0.022137 0.087387
v 0.037409 0.029908 0.085417
v 0.037409 0.037510 0.080111
v 0.042065 0.042041 0.073498
v 0.049599 0.041770 0.068103
v 0.057133 0.036800 0.065987
v 0.061790 0.029029 0.067958
v 0.061790 0.021427 0.073263
v 0.057133 0.016896 0.079876
v -0.002949 -0.032303 0.014377
v -0.010483 -0.027333 0.016493
v -0.015140 -0.019563 0.014522
v -0.015140 -0.011961 0.009217
v -0.010483 -0.007430 0.002604
v -0.002949 -0.007701 -0.002791
v 0.004585 -0.012671 -0.004907
v 0.009241 -0.020442 -0.002936
v 0.009241 -0.028044 0.002369
v 0.004585 -0.032575 0.008982
v 0.002253 -0.020002 -0.008276
v 0.001659 -0.028809 -0.005441
v -0.000696 -0.034252 0.001684
v -0.003911 -0.034252 0.010379
v -0.006759 -0.028809 0.017322
v -0.008152 -0.020002 0.019862
v -0.007558 -0.011196 0.017027
v -0.005203 -0.005753 0.009902
v -0.001987 -0.005753 0.001207
v 0.000861 -0.011196 -0.005737
v -0.021463 -0.021224 -0.017046
v -0.022058 -0.030031 -0.014212
v -0.024412 -0.035473 -0.007086
v -0.027628 -0.035473 0.001609
v -0.030476 -0.030031 0.008552
v -0.031869 -0.021224 0.011091
v -0.031274 -0.012418 0.008257
v -0.028919 -0.006975 0.001131
v -0.025704 -0.006975 -0.007564
v -0.022856 -0.012418 -0.014507
v -0.031555 -0.021224 -0.017159
v -0.030816 -0.030039 -0.014383
v -0.028492 -0.035486 -0.007251
v -0.025471 -0.035486 0.001513
v -0.022906 -0.030039 0.008562
v -0.021777 -0.021224 0.011203
v -0.022516 -0.012410 0.008428
v -0.024840 -0.006962 0.001296
v -0.027861 -0.006962 -0.007469
v -0.030426 -0.012410 -0.014517
v -0.053160 -0.020689 -0.009710
v -0.052422 -0.029503 -0.006935
v -0.050098 -0.034951 0.000197
v -0.047077 -0.034951 0.008962
v -0.044512 -0.029503 0.016011
v -0.043383 -0.020689 0.018652
v -0.044121 -0.011875 0.015876
v -0.046445 -0.006427 0.008744
v -0.049467 -0.006427 -0.000020
v -0.052032 -0.011875 -0.007069
v -0.050744 -0.020689 -0.010324
v -0.051947 -0.029341 -0.007219
v -0.051746 -0.034688 0.000352
v -0.050219 -0.034688 0.009496
v -0.047947 -0.029341 0.016720
v -0.045800 -0.020689 0.019266
v -0.044596 -0.012038 0.016160
v -0.044797 -0.006691 0.008590
v -0.046325 -0.006691 -0.000554
v -0.048596 -0.012038 -0.007779
v -0.072572 -0.016344 -0.006677
v -0.073775 -0.024996 -0.003572
v -0.073575 -0.030343 0.003999
v -0.072047 -0.030343 0.013143
v -0.069776 -0.024996 0.020367
v -0.067628 -0.016344 0.022913
v -0.066425 -0.007692 0.019807
v -0.066625 -0.002345 0.012237
v -0.068153 -0.002345 0.003093
v -0.070425 -0.007692 -0.004131
v 0.049599 0.015624 0.082459
v 0.041993 0.019984 0.085473
v 0.037292 0.027967 0.085130
v 0.037292 0.036523 0.081563
v 0.041993 0.042385 0.076133
v 0.049599 0.043314 0.070915
v 0.057205 0.038954 0.067902
v 0.061906 0.030971 0.068244
v 0.061906 0.022414 0.071812
v 0.057205 0.016552 0.077241
v -0.000479 -0.017246 0.003616
v -0.008085 -0.012886 0.006629
v -0.012786 -0.004903 0.006287
v -0.012786 0.003653 0.002720
v -0.008085 0.009515 -0.002710
v -0.000479 0.010444 -0.007928
v 0.007127 0.006084 -0.010942
v 0.011828 -0.001899 -0.010599
v 0.011828 -0.010456 -0.007032
v 0.007127 -0.016318 -0.001602
v 0.003695 -0.003401 -0.016564
v 0.002964 -0.012218 -0.013793
v 0.000919 -0.017667 -0.006577
v -0.001661 -0.017667 0.002327
v -0.003789 -0.012218 0.009519
v -0.004653 -0.003401 0.012251
v -0.003923 0.005415 0.009480
v -0.001877 0.010864 0.002265
v 0.000703 0.010864 -0.006640
v 0.002831 0.005415 -0.013831
v -0.028848 -0.003668 -0.025992
v -0.029578 -0.012484 -0.023221
v -0.031624 -0.017933 -0.016005
v -0.034204 -0.017933 -0.007101
v -0.036332 -0.012484 0.000091
v -0.037196 -0.003668 0.002823
v -0.036465 0.005149 0.000052
v -0.034419 0.010597 -0.007163
v -0.031840 0.010597 -0.016068
v -0.029711 0.005149 -0.023260
v -0.037926 -0.003668 -0.025760
v -0.037447 -0.012471 -0.022894
v -0.035277 -0.017912 -0.015709
v -0.032246 -0.017912 -0.006948
v -0.029511 -0.012471 0.000042
v -0.028117 -0.003668 0.002591
v -0.028596 0.005136 -0.000274
v -0.030766 0.010576 -0.007460
v -0.033797 0.010576 -0.016221
v -0.036532 0.005136 -0.023211
v -0.062045 -0.002265 -0.017415
v -0.061566 -0.011068 -0.014549
v -0.059396 -0.016509 -0.007364
v -0.056365 -0.016509 0.001397
v -0.053630 -0.011068 0.008387
v -0.052236 -0.002265 0.010936
v -0.052715 0.006539 0.008071
v -0.054885 0.011979 0.000885
v -0.057916 0.011979 -0.007876
v -0.060651 0.006539 -0.014866
v -0.057140 0.012575 -0.001054
v -0.062800 0.010726 -0.008160
v -0.066298 0.003914 -0.013386
v -0.066298 -0.005257 -0.014736
v -0.062800 -0.013286 -0.011695
v -0.057140 -0.017105 -0.005425
v -0.051480 -0.015255 0.001681
v -0.047982 -0.008444 0.006907
v -0.047982 0.000727 0.008257
v -0.051480 0.008756 0.005217
v -0.081664 0.009584 0.019259
v -0.087324 0.007735 0.012154
v -0.090822 0.000923 0.006928
v -0.090822 -0.008248 0.005577
v -0.087324 -0.016277 0.008618
v -0.081664 -0.020096 0.014889
v -0.076004 -0.018247 0.021994
v -0.072506 -0.011435 0.027220
v -0.072506 -0.002264 0.028571
v -0.076004 0.005765 0.025530
v 0.049599 0.014755 0.079604
v 0.041989 0.018430 0.083414
v 0.037286 0.026322 0.084655
v 0.037286 0.035416 0.082852
v 0.041989 0.042238 0.078695
v 0.049599 0.044182 0.073771
v 0.057209 0.040507 0.069961
v 0.061913 0.032615 0.068720
v 0.061913 0.023521 0.070522
v 0.057209 0.016699 0.074680
v 0.000534 -0.001551 -0.002665
v -0.007076 0.002124 0.001145
v -0.011779 0.010016 0.002386
v -0.011779 0.019110 0.000584
v -0.007076 0.025932 -0.003573
v 0.000534 0.027876 -0.008497
v 0.008144 0.024201 -0.012308
v 0.012848 0.016309 -0.013548
v 0.012848 0.007215 -0.011746
v 0.008144 0.000393 -0.007589
v -0.002890 0.013163 -0.020185
v -0.003018 0.004382 -0.017212
v -0.001790 -0.001044 -0.009797
v 0.000326 -0.001044 -0.000771
v 0.002522 0.004382 0.006417
v 0.003959 0.013163 0.009023
v 0.004087 0.021943 0.006050
v 0.002858 0.027369 -0.001365
v 0.000742 0.027369 -0.010391
v -0.001454 0.021943 -0.017579
v -0.035723 0.016249 -0.012486
v -0.035852 0.007469 -0.009514
v -0.034623 0.002043 -0.002099
v -0.032507 0.002043 0.006927
v -0.030311 0.007469 0.014116
v -0.028875 0.016249 0.016721
v -0.028746 0.025029 0.013749
v -0.029975 0.030456 0.006333
v -0.032091 0.030456 -0.002692
v -0.034287 0.025029 -0.009881
v -0.032299 0.031248 0.001897
v -0.041109 0.028388 0.002287
v -0.046554 0.020892 0.002612
v -0.046554 0.011623 0.002749
v -0.041109 0.004121 0.002644
v -0.032299 0.001251 0.002338
v -0.023489 0.004110 0.001948
v -0.018044 0.011606 0.001623
v -0.018044 0.020876 0.001486
v -0.023489 0.028378 0.001591
v -0.031250 0.031638 0.028457
v -0.040060 0.028779 0.028847
v -0.045504 0.021283 0.029172
v -0.045504 0.012013 0.029308
v -0.040060 0.004511 0.029204
v -0.031250 0.001641 0.028898
v -0.022440 0.004501 0.028508
v -0.016995 0.011997 0.028182
v -0.016995 0.021266 0.028046
v -0.022440 0.028769 0.028151
v -0.031250 0.031593 0.029856
v -0.039718 0.028545 0.032078
v -0.044952 0.020948 0.033001
v -0.044952 0.011707 0.032272
v -0.039718 0.004349 0.030170
v -0.031250 0.001686 0.027498
v -0.022781 0.004735 0.025276
v -0.017548 0.012331 0.024354
v -0.017548 0.021573 0.025082
v -0.022781 0.028930 0.027184
v -0.023717 0.029551 0.055763
v -0.032186 0.026502 0.057985
v -0.037419 0.018906 0.058907
v -0.037419 0.009664 0.058179
v -0.032186 0.002306 0.056077
v -0.023717 -0.000357 0.053405
v -0.015249 0.002692 0.051183
v -0.010015 0.010288 0.050260
v -0.010015 0.019530 0.050989
v -0.015249 0.026888 0.053091
v 0.049599 0.014511 0.075560
v 0.042161 0.017012 0.080495
v 0.037563 0.024271 0.083976
v 0.037563 0.033515 0.084672
v 0.042161 0.041214 0.082319
v 0.049599 0.044426 0.077815
v 0.057038 0.041925 0.072880
v 0.061635 0.034666 0.069399
v 0.061635 0.025422 0.068702
v 0.057038 0.017723 0.071055
v 0.002681 0.020053 0.002032
v -0.004757 0.022554 0.006967
v -0.009355 0.029812 0.010448
v -0.009355 0.039057 0.011145
v -0.004757 0.046755 0.008791
v 0.002681 0.049968 0.004287
v 0.010120 0.047467 -0.000648
v 0.014717 0.040208 -0.004129
v 0.014717 0.030964 -0.004826
v 0.010120 0.023265 -0.002472
v -0.002005 0.035010 -0.011090
v 0.000172 0.026297 -0.008790
v 0.003307 0.020912 -0.001926
v 0.006203 0.020912 0.006881
v 0.007754 0.026297 0.014266
v 0.007367 0.035010 0.017409
v 0.005191 0.043723 0.015109
v 0.002056 0.049108 0.008245
v -0.000840 0.049108 -0.000562
v -0.002391 0.043723 -0.007947
v -0.022575 0.031657 -0.004325
v -0.020398 0.022945 -0.002025
v -0.017263 0.017560 0.004839
v -0.014367 0.017560 0.013645
v -0.012816 0.022945 0.021031
v -0.013203 0.031657 0.024173
v -0.015379 0.040370 0.021873
v -0.018514 0.045755 0.015009
v -0.021410 0.045755 0.006203
v -0.022961 0.040370 -0.001182
v -0.017889 0.046218 0.013528
v -0.026041 0.044244 0.009581
v -0.031080 0.037462 0.005765
v -0.031080 0.028463 0.003538
v -0.026041 0.020684 0.003750
v -0.017889 0.017097 0.006320
v -0.009736 0.019071 0.010267
v -0.004697 0.025853 0.014083
v -0.004697 0.034852 0.016311
v -0.009736 0.042631 0.016098
v -0.026190 0.041375 0.033097
v -0.034343 0.039400 0.029150
v -0.039381 0.032619 0.025334
v -0.039381 0.023620 0.023107
v -0.034343 0.015841 0.023319
v -0.026190 0.012253 0.025890
v -0.018037 0.014228 0.029837
v -0.012999 0.021010 0.033653
v -0.012999 0.030009 0.035880
v -0.018037 0.037787 0.035668
v -0.026190 0.041619 0.031902
v -0.034175 0.038191 0.035133
v -0.039109 0.030418 0.036210
v -0.039109 0.021267 0.034721
v -0.034175 0.014236 0.031236
v -0.026190 0.012009 0.027085
v -0.018206 0.015437 0.023854
v -0.013271 0.023211 0.022777
v -0.013271 0.032361 0.024266
v -0.018206 0.039392 0.027751
v -0.018891 0.039117 0.047286
v -0.026875 0.035689 0.050517
v -0.031810 0.027915 0.051594
v -0.031810 0.018765 0.050105
v -0.026875 0.011733 0.046620
v -0.018891 0.009506 0.042469
v -0.010906 0.012934 0.039238
v -0.005971 0.020708 0.038161
v -0.005971 0.029858 0.039650
v -0.010906 0.036890 0.043135
f 1 2 13
f 2 14 13
f 2 3 14
f 3 15 14
f 3 4 15
f 4 16 15
f 4 5 16
f 5 17 16
f 5 6 17
f 6 18 17
f 6 7 18
f 7 19 18
f 7 8 19
f 8 20 19
f 8 9 20
f 9 21 20
f 9 10 21
f 10 22 21
f 10 11 22
f 11 23 22
f 11 12 23
f 12 24 23
f 13 14 25
f 14 26 25
f 14 15 26
f 15 27 26
f 15 16 27
f 16 28 27
f 16 17 28
f 17 29 28
f 17 18 29
f 18 30 29
f 18 19 30
f 19 31 30
f 19 20 31
f 20 32 31
f 20 21 32
f 21 33 32
f 21 22 33
f 22 34 33
f 22 23 34
f 23 35 34
f 23 24 35
f 24 36 35
f 25 26 37
f 26 38 37
f 26 27 38
f 27 39 38
f 27 28 39
f 28 40 39
f 28 29 40
f 29 41 40
f 29 30 41
f 30 42 41
f 30 31 42
f 31 43 42
f 31 32 43
f 32 44 43
f 32 33 44
f 33 45 44
f 33 34 45
f 34 46 45
f 34 35 46
f 35 47 46
f 35 36 47
f 36 48 47
f 37 38 49
f 38 50 49
f 38 39 50
f 39 51 50
f 39 40 51
f 40 52 51
f 40 41 52
f 41 53 52
f 41 42 53
f 42 54 53
f 42 43 54
f 43 55 54
f 43 44 55
f 44 56 55
f 44 45 56
f 45 57 56
f 45 46 57
f 46 58 57
f 46 47 58
f 47 59 58
f 47 48 59
f 48 60 59
f 49 50 61
f 50 62 61
f 50 51 62
f 51 63 62
f 51 52 63
f 52 64 63
f 52 53 64
f 53 65 64
f 53 54 65
f 54 66 65
f 54 55 66
f 55 67 66
f 55 56 67
f 56 68 67
f 56 57 68
f 57 69 68
f 57 58 69
f 58 70 69
f 58 59 70
f 59 71 70
f 59 60 71
f 60 72 71
f 61 62 73
f 62 74 73
f 62 63 74
f 63 75 74
f 63 64 75
f 64 76 75
f 64 65 76
f 65 77 76
f 65 66 77
f 66 78 77
f 66 67 78
f 67 79 78
f 67 68 79
f 68 80 79
f 68 69 80
f 69 81 80
f 69 70 81
f 70 82 81
f 70 71 82
f 71 83 82
f 71 72 83
f 72 84 83
f 73 74 85
f 74 86 85
f 74 75 86
f 75 87 86
f 75 76 87
f 76 88 87
f 76 77 88
f 77 89 88
f 77 78 89
f 78 90 89
f 78 79 90
f 79 91 90
f 79 80 91
f 80 92 91
f 80 81 92
f 81 93 92
f 81 82 93
f 82 94 93
f 82 83 94
f 83 95 94
f 83 84 95
f 84 96 95
f 85 86 97
f 86 98 97
f 86 87 98
f 87 99 98
f 87 88 99
f 88 100 99
f 88 89 100
f 89 101 100
f 89 90 101
f 90 102 101
f 90 91 102
f 91 103 102
f 91 92 103
f 92 104 103
f 92 93 104
f 93 105 104
f 93 94 105
f 94 106 105
f 94 95 106
f 95 107 106
f 95 96 107
f 96 108 107
f 97 98 109
f 98 110 109
f 98 99 110
f 99 111 110
f 99 100 111
f 100 112 111
f 100 101 112
f 101 113 112
f 101 102 113
f 102 114 113
f 102 103 114
f 103 115 114
f 103 104 115
f 104 116 115
f 104 105 116
f 105 117 116
f 105 106 117
f 106 118 117
f 106 107 118
f 107 119 118
f 107 108 119
f 108 120 119
f 109 110 121
f 110 122 121
f 110 111 122
f 111 123 122
f 111 112 123
f 112 124 123
f 112 113 124
f 113 125 124
f 113 114 125
f 114 126 125
f 114 115 126
f 115 127 126
f 115 116 127
f 116 128 127
f 116 117 128
f 117 129 128
f 117 118 129
f 118 130 129
f 118 119 130
f 119 131 130
f 119 120 131
f 120 132 131
f 121 122 133
f 122 134 133
f 122 123 134
f 123 135 134
f 123 124 135
f 124 136 135
f 124 125 136
f 125 137 136
f 125 126 137
f 126 138 137
f 126 127 138
f 127 139 138
f 127 128 139
f 128 140 139
f 128 129 140
f 129 141 140
f 129 130 141
f 130 142 141
f 130 131 142
f 131 143 142
f 131 132 143
f 132 144 143
f 145 146 155
f 146 156 155
f 146 147 156
f 147 157 156
f 147 148 157
f 148 158 157
f 148 149 158
f 149 159 158
f 149 150 159
f 150 160 159
f 150 151 160
f 151 161 160
f 151 152 161
f 152 162 161
f 152 153 162
f 153 163 162
f 153 154 163
f 154 164 163
f 154 145 164
f 145 155 164
f 165 166 175
f 166 176 175
f 166 167 176
f 167 177 176
f 167 168 177
f 168 178 177
f 168 169 178
f 169 179 178
f 169 170 179
f 170 180 179
f 170 171 180
f 171 181 180
f 171 172 181
f 172 182 181
f 172 173 182
f 173 183 182
f 173 174 183
f 174 184 183
f 174 165 184
f 165 175 184
f 185 186 195
f 186 196 195
f 186 187 196
f 187 197 196
f 187 188 197
f 188 198 197
f 188 189 198
f 189 199 198
f 189 190 199
f 190 200 199
f 190 191 200
f 191 201 200
f 191 192 201
f 192 202 201
f 192 193 202
f 193 203 202
f 193 194 203
f 194 204 203
f 194 185 204
f 185 195 204
f 205 206 215
f 206 216 215
f 206 207 216
f 207 217 216
f 207 208 217
f 208 218 217
f 208 209 218
f 209 219 218
f 209 210 219
f 210 220 219
f 210 211 220
f 211 221 220
f 211 212 221
f 212 222 221
f 212 213 222
f 213 223 222
f 213 214 223
f 214 224 223
f 214 205 224
f 205 215 224
f 225 226 235
f 226 236 235
f 226 227 236
f 227 237 236
f 227 228 237
f 228 238 237
f 228 229 238
f 229 239 238
f 229 230 239
f 230 240 239
f 230 231 240
f 231 241 240
f 231 232 241
f 232 242 241
f 232 233 242
f 233 243 242
f 233 234 243
f 234 244 243
f 234 225 244
f 225 235 244
f 245 246 255
f 246 256 255
f 246 247 256
f 247 257 256
f 247 248 257
f 248 258 257
f 248 249 258
f 249 259 258
f 249 250 259
f 250 260 259
f 250 251 260
f 251 261 260
f 251 252 261
f 252 262 261
f 252 253 262
f 253 263 262
f 253 254 263
f 254 264 263
f 254 245 264
f 245 255 264
f 265 266 275
f 266 276 275
f 266 267 276
f 267 277 276
f 267 268 277
f 268 278 277
f 268 269 278
f 269 279 278
f 269 270 279
f 270 280 279
f 270 271 280
f 271 281 280
f 271 272 281
f 272 282 281
f 272 273 282
f 273 283 282
f 273 274 283
f 274 284 283
f 274 265 284
f 265 275 284
f 285 286 295
f 286 296 295
f 286 287 296
f 287 297 296
f 287 288 297
f 288 298 297
f 288 289 298
f 289 299 298
f 289 290 299
f 290 300 299
f 290 291 300
f 291 301 300
f 291 292 301
f 292 302 301
f 292 293 302
f 293 303 302
f 293 294 303
f 294 304 303
f 294 285 304
f 285 295 304
f 305 306 315
f 306 316 315
f 306 307 316
f 307 317 316
f 307 308 317
f 308 318 317
f 308 309 318
f 309 319 318
f 309 310 319
f 310 320 319
f 310 311 320
f 311 321 320
f 311 312 321
f 312 322 321
f 312 313 322
f 313 323 322
f 313 314 323
f 314 324 323
f 314 305 324
f 305 315 324
f 325 326 335
f 326 336 335
f 326 327 336
f 327 337 336
f 327 328 337
f 328 338 337
f 328 329 338
f 329 339 338
f 329 330 339
f 330 340 339
f 330 331 340
f 331 341 340
f 331 332 341
f 332 342 341
f 332 333 342
f 333 343 342
f 333 334 343
f 334 344 343
f 334 325 344
f 325 335 344
f 345 346 355
f 346 356 355
f 346 347 356
f 347 357 356
f 347 348 357
f 348 358 357
f 348 349 358
f 349 359 358
f 349 350 359
f 350 360 359
f 350 351 360
f 351 361 360
f 351 352 361
f 352 362 361
f 352 353 362
f 353 363 362
f 353 354 363
f 354 364 363
f 354 345 364
f 345 355 364
f 365 366 375
f 366 376 375
f 366 367 376
f 367 377 376
f 367 368 377
f 368 378 377
f 368 369 378
f 369 379 378
f 369 370 379
f 370 380 379
f 370 371 380
f 371 381 380
f 371 372 381
f 372 382 381
f 372 373 382
f 373 383 382
f 373 374 383
f 374 384 383
f 374 365 384
f 365 375 384
f 385 386 395
f 386 396 395
f 386 387 396
f 387 397 396
f 387 388 397
f 388 398 397
f 388 389 398
f 389 399 398
f 389 390 399
f 390 400 399
f 390 391 400
f 391 401 400
f 391 392 401
f 392 402 401
f 392 393 402
f 393 403 402
f 393 394 403
f 394 404 403
f 394 385 404
f 385 395 404
f 405 406 415
f 406 416 415
f 406 407 416
f 407 417 416
f 407 408 417
f 408 418 417
f 408 409 418
f 409 419 418
f 409 410 419
f 410 420 419
f 410 411 420
f 411 421 420
f 411 412 421
f 412 422 421
f 412 413 422
f 413 423 422
f 413 414 423
f 414 424 423
f 414 405 424
f 405 415 424
f 425 426 435
f 426 436 435
f 426 427 436
f 427 437 436
f 427 428 437
f 428 438 437
f 428 429 438
f 429 439 438
f 429 430 439
f 430 440 439
f 430 431 440
f 431 441 440
f 431 432 441
f 432 442 441
f 432 433 442
f 433 443 442
f 433 434 443
f 434 444 443
f 434 425 444
f 425 435 444
f 445 446 455
f 446 456 455
f 446 447 456
f 447 457 456
f 447 448 457
f 448 458 457
f 448 449 458
f 449 459 458
f 449 450 459
f 450 460 459
f 450 451 460
f 451 461 460
f 451 452 461
f 452 462 461
f 452 453 462
f 453 463 462
f 453 454 463
f 454 464 463
f 454 445 464
f 445 455 464
f 465 466 475
f 466 476 475
f 466 467 476
f 467 477 476
f 467 468 477
f 468 478 477
f 468 469 478
f 469 479 478
f 469 470 479
f 470 480 479
f 470 471 480
f 471 481 480
f 471 472 481
f 472 482 481
f 472 473 482
f 473 483 482
f 473 474 483
f 474 484 483
f 474 465 484
f 465 475 484
f 485 486 495
f 486 496 495
f 486 487 496
f 487 497 496
f 487 488 497
f 488 498 497
f 488 489 498
f 489 499 498
f 489 490 499
f 490 500 499
f 490 491 500
f 491 501 500
f 491 492 501
f 492 502 501
f 492 493 502
f 493 503 502
f 493 494 503
f 494 504 503
f 494 485 504
f 485 495 504
f 505 506 515
f 506 516 515
f 506 507 516
f 507 517 516
f 507 508 517
f 508 518 517
f 508 509 518
f 509 519 518
f 509 510 519
f 510 520 519
f 510 511 520
f 511 521 520
f 511 512 521
f 512 522 521
f 512 513 522
f 513 523 522
f 513 514 523
f 514 524 523
f 514 505 524
f 505 515 524
f 525 526 535
f 526 536 535
f 526 527 536
f 527 537 536
f 527 528 537
f 528 538 537
f 528 529 538
f 529 539 538
f 529 530 539
f 530 540 539
f 530 531 540
f 531 541 540
f 531 532 541
f 532 542 541
f 532 533 542
f 533 543 542
f 533 534 543
f 534 544 543
f 534 525 544
f 525 535 544
f 545 546 555
f 546 556 555
f 546 547 556
f 547 557 556
f 547 548 557
f 548 558 557
f 548 549 558
f 549 559 558
f 549 550 559
f 550 560 559
f 550 551 560
f 551 561 560
f 551 552 561
f 552 562 561
f 552 553 562
f 553 563 562
f 553 554 563
f 554 564 563
f 554 545 564
f 545 555 564
f 565 566 575
f 566 576 575
f 566 567 576
f 567 577 576
f 567 568 577
f 568 578 577
f 568 569 578
f 569 579 578
f 569 570 579
f 570 580 579
f 570 571 580
f 571 581 580
f 571 572 581
f 572 582 581
f 572 573 582
f 573 583 582
f 573 574 583
f 574 584 583
f 574 565 584
f 565 575 584
f 585 586 595
f 586 596 595
f 586 587 596
f 587 597 596
f 587 588 597
f 588 598 597
f 588 589 598
f 589 599 598
f 589 590 599
f 590 600 599
f 590 591 600
f 591 601 600
f 591 592 601
f 592 602 601
f 592 593 602
f 593 603 602
f 593 594 603
f 594 604 603
f 594 585 604
f 585 595 604
f 605 606 615
f 606 616 615
f 606 607 616
f 607 617 616
f 607 608 617
f 608 618 617
f 608 609 618
f 609 619 618
f 609 610 619
f 610 620 619
f 610 611 620
f 611 621 620
f 611 612 621
f 612 622 621
f 612 613 622
f 613 623 622
f 613 614 623
f 614 624 623
f 614 605 624
f 605 615 624
f 625 626 635
f 626 636 635
f 626 627 636
f 627 637 636
f 627 628 637
f 628 638 637
f 628 629 638
f 629 639 638
f 629 630 639
f 630 640 639
f 630 631 640
f 631 641 640
f 631 632 641
f 632 642 641
f 632 633 642
f 633 643 642
f 633 634 643
f 634 644 643
f 634 625 644
f 625 635 644
f 645 646 655
f 646 656 655
f 646 647 656
f 647 657 656
f 647 648 657
f 648 658 657
f 648 649 658
f 649 659 658
f 649 650 659
f 650 660 659
f 650 651 660
f 651 661 660
f 651 652 661
f 652 662 661
f 652 653 662
f 653 663 662
f 653 654 663
f 654 664 663
f 654 645 664
f 645 655 664
f 665 666 675
f 666 676 675
f 666 667 676
f 667 677 676
f 667 668 677
f 668 678 677
f 668 669 678
f 669 679 678
f 669 670 679
f 670 680 679
f 670 671 680
f 671 681 680
f 671 672 681
f 672 682 681
f 672 673 682
f 673 683 682
f 673 674 683
f 674 684 683
f 674 665 684
f 665 675 684
f 685 686 695
f 686 696 695
f 686 687 696
f 687 697 696
f 687 688 697
f 688 698 697
f 688 689 698
f 689 699 698
f 689 690 699
f 690 700 699
f 690 691 700
f 691 701 700
f 691 692 701
f 692 702 701
f 692 693 702
f 693 703 702
f 693 694 703
f 694 704 703
f 694 685 704
f 685 695 704
f 705 706 715
f 706 716 715
f 706 707 716
f 707 717 716
f 707 708 717
f 708 718 717
f 708 709 718
f 709 719 718
f 709 710 719
f 710 720 719
f 710 711 720
f 711 721 720
f 711 712 721
f 712 722 721
f 712 713 722
f 713 723 722
f 713 714 723
f 714 724 723
f 714 705 724
f 705 715 724
f 725 726 735
f 726 736 735
f 726 727 736
f 727 737 736
f 727 728 737
f 728 738 737
f 728 729 738
f 729 739 738
f 729 730 739
f 730 740 739
f 730 731 740
f 731 741 740
f 731 732 741
f 732 742 741
f 732 733 742
f 733 743 742
f 733 734 743
f 734 744 743
f 734 725 744
f 725 735 744
f 745 746 755
f 746 756 755
f 746 747 756
f 747 757 756
f 747 748 757
f 748 758 757
f 748 749 758
f 749 759 758
f 749 750 759
f 750 760 759
f 750 751 760
f 751 761 760
f 751 752 761
f 752 762 761
f 752 753 762
f 753 763 762
f 753 754 763
f 754 764 763
f 754 745 764
f 745 755 764
f 765 766 775
f 766 776 775
f 766 767 776
f 767 777 776
f 767 768 777
f 768 778 777
f 768 769 778
f 769 779 778
f 769 770 779
f 770 780 779
f 770 771 780
f 771 781 780
f 771 772 781
f 772 782 781
f 772 773 782
f 773 783 782
f 773 774 783
f 774 784 783
f 774 765 784
f 765 775 784
f 785 786 795
f 786 796 795
f 786 787 796
f 787 797 796
f 787 788 797
f 788 798 797
f 788 789 798
f 789 799 798
f 789 790 799
f 790 800 799
f 790 791 800
f 791 801 800
f 791 792 801
f 792 802 801
f 792 793 802
f 793 803 802
f 793 794 803
f 794 804 803
f 794 785 804
f 785 795 804
f 805 806 815
f 806 816 815
f 806 807 816
f 807 817 816
f 807 808 817
f 808 818 817
f 808 809 818
f 809 819 818
f 809 810 819
f 810 820 819
f 810 811 820
f 811 821 820
f 811 812 821
f 812 822 821
f 812 813 822
f 813 823 822
f 813 814 823
f 814 824 823
f 814 805 824
f 805 815 824
f 825 826 835
f 826 836 835
f 826 827 836
f 827 837 836
f 827 828 837
f 828 838 837
f 828 829 838
f 829 839 838
f 829 830 839
f 830 840 839
f 830 831 840
f 831 841 840
f 831 832 841
f 832 842 841
f 832 833 842
f 833 843 842
f 833 834 843
f 834 844 843
f 834 825 844
f 825 835 844
f 845 846 855
f 846 856 855
f 846 847 856
f 847 857 856
f 847 848 857
f 848 858 857
f 848 849 858
f 849 859 858
f 849 850 859
f 850 860 859
f 850 851 860
f 851 861 860
f 851 852 861
f 852 862 861
f 852 853 862
f 853 863 862
f 853 854 863
f 854 864 863
f 854 845 864
f 845 855 864
f 865 866 875
f 866 876 875
f 866 867 876
f 867 877 876
f 867 868 877
f 868 878 877
f 868 869 878
f 869 879 878
f 869 870 879
f 870 880 879
f 870 871 880
f 871 881 880
f 871 872 881
f 872 882 881
f 872 873 882
f 873 883 882
f 873 874 883
f 874 884 883
f 874 865 884
f 865 875 884
f 885 886 895
f 886 896 895
f 886 887 896
f 887 897 896
f 887 888 897
f 888 898 897
f 888 889 898
f 889 899 898
f 889 890 899
f 890 900 899
f 890 891 900
f 891 901 900
f 891 892 901
f 892 902 901
f 892 893 902
f 893 903 902
f 893 894 903
f 894 904 903
f 894 885 904
f 885 895 904
f 905 906 915
f 906 916 915
f 906 907 916
f 907 917 916
f 907 908 917
f 908 918 917
f 908 909 918
f 909 919 918
f 909 910 919
f 910 920 919
f 910 911 920
f 911 921 920
f 911 912 921
f 912 922 921
f 912 913 922
f 913 923 922
f 913 914 923
f 914 924 923
f 914 905 924
f 905 915 924
f 925 926 935
f 926 936 935
f 926 927 936
f 927 937 936
f 927 928 937
f 928 938 937
f 928 929 938
f 929 939 938
f 929 930 939
f 930 940 939
f 930 931 940
f 931 941 940
f 931 932 941
f 932 942 941
f 932 933 942
f 933 943 942
f 933 934 943
f 934 944 943
f 934 925 944
f 925 935 944
f 945 946 955
f 946 956 955
f 946 947 956
f 947 957 956
f 947 948 957
f 948 958 957
f 948 949 958
f 949 959 958
f 949 950 959
f 950 960 959
f 950 951 960
f 951 961 960
f 951 952 961
f 952 962 961
f 952 953 962
f 953 963 962
f 953 954 963
f 954 964 963
f 954 945 964
f 945 955 964
f 965 966 975
f 966 976 975
f 966 967 976
f 967 977 976
f 967 968 977
f 968 978 977
f 968 969 978
f 969 979 978
f 969 970 979
f 970 980 979
f 970 971 980
f 971 981 980
f 971 972 981
f 972 982 981
f 972 973 982
f 973 983 982
f 973 974 983
f 974 984 983
f 974 965 984
f 965 975 984
f 985 986 995
f 986 996 995
f 986 987 996
f 987 997 996
f 987 988 997
f 988 998 997
f 988 989 998
f 989 999 998
f 989 990 999
f 990 1000 999
f 990 991 1000
f 991 1001 1000
f 991 992 1001
f 992 1002 1001
f 992 993 1002
f 993 1003 1002
f 993 994 1003
f 994 1004 1003
f 994 985 1004
f 985 995 1004
f 1005 1006 1015
f 1006 1016 1015
f 1006 1007 1016
f 1007 1017 1016
f 1007 1008 1017
f 1008 1018 1017
f 1008 1009 1018
f 1009 1019 1018
f 1009 1010 1019
f 1010 1020 1019
f 1010 1011 1020
f 1011 1021 1020
f 1011 1012 1021
f 1012 1022 1021
f 1012 1013 1022
f 1013 1023 1022
f 1013 1014 1023
f 1014 1024 1023
f 1014 1005 1024
f 1005 1015 1024
f 1025 1026 1035
f 1026 1036 1035
f 1026 1027 1036
f 1027 1037 1036
f 1027 1028 1037
f 1028 1038 1037
f 1028 1029 1038
f 1029 1039 1038
f 1029 1030 1039
f 1030 1040 1039
f 1030 1031 1040
f 1031 1041 1040
f 1031 1032 1041
f 1032 1042 1041
f 1032 1033 1042
f 1033 1043 1042
f 1033 1034 1043
f 1034 1044 1043
f 1034 1025 1044
f 1025 1035 1044
f 1045 1046 1055
f 1046 1056 1055
f 1046 1047 1056
f 1047 1057 1056
f 1047 1048 1057
f 1048 1058 1057
f 1048 1049 1058
f 1049 1059 1058
f 1049 1050 1059
f 1050 1060 1059
f 1050 1051 1060
f 1051 1061 1060
f 1051 1052 1061
f 1052 1062 1061
f 1052 1053 1062
f 1053 1063 1062
f 1053 1054 1063
f 1054 1064 1063
f 1054 1045 1064
f 1045 1055 1064
f 1065 1066 1075
f 1066 1076 1075
f 1066 1067 1076
f 1067 1077 1076
f 1067 1068 1077
f 1068 1078 1077
f 1068 1069 1078
f 1069 1079 1078
f 1069 1070 1079
f 1070 1080 1079
f 1070 1071 1080
f 1071 1081 1080
f 1071 1072 1081
f 1072 1082 1081
f 1072 1073 1082
f 1073 1083 1082
f 1073 1074 1083
f 1074 1084 1083
f 1074 1065 1084
f 1065 1075 1084
f 1085 1086 1095
f 1086 1096 1095
f 1086 1087 1096
f 1087 1097 1096
f 1087 1088 1097
f 1088 1098 1097
f 1088 1089 1098
f 1089 1099 1098
f 1089 1090 1099
f 1090 1100 1099
f 1090 1091 1100
f 1091 1101 1100
f 1091 1092 1101
f 1092 1102 1101
f 1092 1093 1102
f 1093 1103 1102
f 1093 1094 1103
f 1094 1104 1103
f 1094 1085 1104
f 1085 1095 1104
f 1105 1106 1115
f 1106 1116 1115
f 1106 1107 1116
f 1107 1117 1116
f 1107 1108 1117
f 1108 1118 1117
f 1108 1109 1118
f 1109 1119 1118
f 1109 1110 1119
f 1110 1120 1119
f 1110 1111 1120
f 1111 1121 1120
f 1111 1112 1121
f 1112 1122 1121
f 1112 1113 1122
f 1113 1123 1122
f 1113 1114 1123
f 1114 1124 1123
f 1114 1105 1124
f 1105 1115 1124
f 1125 1126 1135
f 1126 1136 1135
f 1126 1127 1136
f 1127 1137 1136
f 1127 1128 1137
f 1128 1138 1137
f 1128 1129 1138
f 1129 1139 1138
f 1129 1130 1139
f 1130 1140 1139
f 1130 1131 1140
f 1131 1141 1140
f 1131 1132 1141
f 1132 1142 1141
f 1132 1133 1142
f 1133 1143 1142
f 1133 1134 1143
f 1134 1144 1143
f 1134 1125 1144
f 1125 1135 1144
f 1145 1146 1155
f 1146 1156 1155
f 1146 1147 1156
f 1147 1157 1156
f 1147 1148 1157
f 1148 1158 1157
f 1148 1149 1158
f 1149 1159 1158
f 1149 1150 1159
f 1150 1160 1159
f 1150 1151 1160
f 1151 1161 1160
f 1151 1152 1161
f 1152 1162 1161
f 1152 1153 1162
f 1153 1163 1162
f 1153 1154 1163
f 1154 1164 1163
f 1154 1145 1164
f 1145 1155 1164
f 1165 1166 1175
f 1166 1176 1175
f 1166 1167 1176
f 1167 1177 1176
f 1167 1168 1177
f 1168 1178 1177
f 1168 1169 1178
f 1169 1179 1178
f 1169 1170 1179
f 1170 1180 1179
f 1170 1171 1180
f 1171 1181 1180
f 1171 1172 1181
f 1172 1182 1181
f 1172 1173 1182
f 1173 1183 1182
f 1173 1174 1183
f 1174 1184 1183
f 1174 1165 1184
f 1165 1175 1184
