# Full-Body 3D Mesh - Frame 205
v -0.007093 -0.649647 -0.139091
v 0.026715 -0.649647 -0.143952
v 0.057784 -0.649647 -0.158140
v 0.083597 -0.649647 -0.180507
v 0.102063 -0.649647 -0.209241
v 0.111686 -0.649647 -0.242013
v 0.111686 -0.649647 -0.276168
v 0.102063 -0.649647 -0.308941
v 0.083597 -0.649647 -0.337674
v 0.057784 -0.649647 -0.360041
v 0.026715 -0.649647 -0.374230
v -0.007093 -0.649647 -0.379091
v -0.007093 -0.649647 -0.139091
v 0.021348 -0.631369 -0.143952
v 0.047485 -0.614572 -0.158140
v 0.069201 -0.600616 -0.180507
v 0.084735 -0.590633 -0.209241
v 0.092830 -0.585430 -0.242013
v 0.092830 -0.585430 -0.276168
v 0.084735 -0.590633 -0.308941
v 0.069201 -0.600616 -0.337674
v 0.047485 -0.614572 -0.360041
v 0.021348 -0.631369 -0.374230
v -0.007093 -0.649647 -0.379091
v -0.007093 -0.649647 -0.139091
v 0.006952 -0.618894 -0.143952
v 0.019858 -0.590633 -0.158140
v 0.030581 -0.567152 -0.180507
v 0.038252 -0.550355 -0.209241
v 0.042250 -0.541602 -0.242013
v 0.042250 -0.541602 -0.276168
v 0.038252 -0.550355 -0.308941
v 0.030581 -0.567152 -0.337674
v 0.019858 -0.590633 -0.360041
v 0.006952 -0.618894 -0.374230
v -0.007093 -0.649647 -0.379091
v -0.007093 -0.649647 -0.139091
v -0.011904 -0.616183 -0.143952
v -0.016326 -0.585430 -0.158140
v -0.019999 -0.559880 -0.180507
v -0.022627 -0.541602 -0.209241
v -0.023997 -0.532077 -0.242013
v -0.023997 -0.532077 -0.276168
v -0.022627 -0.541602 -0.308941
v -0.019999 -0.559880 -0.337674
v -0.016326 -0.585430 -0.360041
v -0.011904 -0.616183 -0.374230
v -0.007093 -0.649647 -0.379091
v -0.007093 -0.649647 -0.139091
v -0.029232 -0.624096 -0.143952
v -0.049578 -0.600616 -0.158140
v -0.066482 -0.581108 -0.180507
v -0.078575 -0.567152 -0.209241
v -0.084876 -0.559880 -0.242013
v -0.084876 -0.559880 -0.276168
v -0.078575 -0.567152 -0.308941
v -0.066482 -0.581108 -0.337674
v -0.049578 -0.600616 -0.360041
v -0.029232 -0.624096 -0.374230
v -0.007093 -0.649647 -0.379091
v -0.007093 -0.649647 -0.139091
v -0.039531 -0.640122 -0.143952
v -0.069342 -0.631369 -0.158140
v -0.094109 -0.624096 -0.180507
v -0.111827 -0.618894 -0.209241
v -0.121060 -0.616183 -0.242013
v -0.121060 -0.616183 -0.276168
v -0.111827 -0.618894 -0.308941
v -0.094109 -0.624096 -0.337674
v -0.069342 -0.631369 -0.360041
v -0.039531 -0.640122 -0.374230
v -0.007093 -0.649647 -0.379091
v -0.007093 -0.649647 -0.139091
v -0.039531 -0.659172 -0.143952
v -0.069342 -0.667925 -0.158140
v -0.094109 -0.675197 -0.180507
v -0.111827 -0.680400 -0.209241
v -0.121060 -0.683111 -0.242013
v -0.121060 -0.683111 -0.276168
v -0.111827 -0.680400 -0.308941
v -0.094109 -0.675197 -0.337674
v -0.069342 -0.667925 -0.360041
v -0.039531 -0.659172 -0.374230
v -0.007093 -0.649647 -0.379091
v -0.007093 -0.649647 -0.139091
v -0.029232 -0.675197 -0.143952
v -0.049578 -0.698677 -0.158140
v -0.066482 -0.718186 -0.180507
v -0.078575 -0.732141 -0.209241
v -0.084876 -0.739414 -0.242013
v -0.084876 -0.739414 -0.276168
v -0.078575 -0.732141 -0.308941
v -0.066482 -0.718186 -0.337674
v -0.049578 -0.698677 -0.360041
v -0.029232 -0.675197 -0.374230
v -0.007093 -0.649647 -0.379091
v -0.007093 -0.649647 -0.139091
v -0.011904 -0.683111 -0.143952
v -0.016326 -0.713863 -0.158140
v -0.019999 -0.739414 -0.180507
v -0.022627 -0.757692 -0.209241
v -0.023997 -0.767216 -0.242013
v -0.023997 -0.767216 -0.276168
v -0.022627 -0.757692 -0.308941
v -0.019999 -0.739414 -0.337674
v -0.016326 -0.713863 -0.360041
v -0.011904 -0.683111 -0.374230
v -0.007093 -0.649647 -0.379091
v -0.007093 -0.649647 -0.139091
v 0.006952 -0.680400 -0.143952
v 0.019858 -0.708661 -0.158140
v 0.030581 -0.732141 -0.180507
v 0.038252 -0.748938 -0.209241
v 0.042250 -0.757692 -0.242013
v 0.042250 -0.757692 -0.276168
v 0.038252 -0.748938 -0.308941
v 0.030581 -0.732141 -0.337674
v 0.019858 -0.708661 -0.360041
v 0.006952 -0.680400 -0.374230
v -0.007093 -0.649647 -0.379091
v -0.007093 -0.649647 -0.139091
v 0.021348 -0.667925 -0.143952
v 0.047485 -0.684722 -0.158140
v 0.069201 -0.698677 -0.180507
v 0.084735 -0.708661 -0.209241
v 0.092830 -0.713863 -0.242013
v 0.092830 -0.713863 -0.276168
v 0.084735 -0.708661 -0.308941
v 0.069201 -0.698677 -0.337674
v 0.047485 -0.684722 -0.360041
v 0.021348 -0.667925 -0.374230
v -0.007093 -0.649647 -0.379091
v -0.007093 -0.649647 -0.139091
v 0.026715 -0.649647 -0.143952
v 0.057784 -0.649647 -0.158140
v 0.083597 -0.649647 -0.180507
v 0.102063 -0.649647 -0.209241
v 0.111686 -0.649647 -0.242013
v 0.111686 -0.649647 -0.276168
v 0.102063 -0.649647 -0.308941
v 0.083597 -0.649647 -0.337674
v 0.057784 -0.649647 -0.360041
v 0.026715 -0.649647 -0.374230
v -0.007093 -0.649647 -0.379091
v 0.174762 -0.461522 -0.112526
v 0.174643 -0.485032 -0.104885
v 0.174785 -0.499562 -0.084885
v 0.175134 -0.499562 -0.060166
v 0.175556 -0.485032 -0.040170
v 0.175890 -0.461522 -0.032534
v 0.176009 -0.438011 -0.040176
v 0.175866 -0.423481 -0.060176
v 0.175517 -0.423481 -0.084895
v 0.175096 -0.438011 -0.104891
v -0.161912 -0.458281 -0.107776
v -0.162031 -0.481792 -0.100134
v -0.161888 -0.496322 -0.080134
v -0.161540 -0.496322 -0.055415
v -0.161118 -0.481792 -0.035419
v -0.160784 -0.458281 -0.027784
v -0.160665 -0.434771 -0.035426
v -0.160808 -0.420241 -0.055426
v -0.161156 -0.420241 -0.080145
v -0.161578 -0.434771 -0.100141
v 0.175326 -0.461818 -0.112529
v 0.152140 -0.457861 -0.104919
v 0.137811 -0.455302 -0.084937
v 0.137811 -0.455119 -0.060217
v 0.152140 -0.457382 -0.040199
v 0.175326 -0.461226 -0.032531
v 0.198511 -0.465183 -0.040142
v 0.212841 -0.467741 -0.060123
v 0.212841 -0.467924 -0.084844
v 0.198511 -0.465662 -0.104861
v 0.217749 -0.209656 -0.114395
v 0.194564 -0.205699 -0.106785
v 0.180234 -0.203140 -0.086803
v 0.180234 -0.202957 -0.062083
v 0.194564 -0.205220 -0.042065
v 0.217749 -0.209064 -0.034397
v 0.240935 -0.213021 -0.042008
v 0.255264 -0.215580 -0.061989
v 0.255264 -0.215762 -0.086710
v 0.240935 -0.213500 -0.106727
v 0.217749 -0.235017 -0.105083
v 0.194292 -0.231343 -0.098198
v 0.179795 -0.219271 -0.082221
v 0.179795 -0.203414 -0.063256
v 0.194292 -0.189828 -0.048545
v 0.217749 -0.183702 -0.043709
v 0.241206 -0.187377 -0.050594
v 0.255704 -0.199449 -0.066571
v 0.255704 -0.215306 -0.085537
v 0.241206 -0.228892 -0.100247
v 0.203012 -0.068963 -0.243922
v 0.179554 -0.065288 -0.237037
v 0.165057 -0.053217 -0.221060
v 0.165057 -0.037359 -0.202094
v 0.179554 -0.023773 -0.187384
v 0.203012 -0.017648 -0.182548
v 0.226469 -0.021323 -0.189433
v 0.240966 -0.033394 -0.205410
v 0.240966 -0.049251 -0.224375
v 0.226469 -0.062837 -0.239086
v -0.161348 -0.460167 -0.107736
v -0.183688 -0.467126 -0.099759
v -0.197496 -0.470707 -0.079568
v -0.197496 -0.469542 -0.054874
v -0.183688 -0.464075 -0.035110
v -0.161348 -0.456396 -0.027825
v -0.139008 -0.449437 -0.035801
v -0.125201 -0.445856 -0.055992
v -0.125201 -0.447021 -0.080686
v -0.139008 -0.452487 -0.100450
v -0.244096 -0.208166 -0.119626
v -0.266436 -0.215126 -0.111650
v -0.280243 -0.218707 -0.091459
v -0.280243 -0.217542 -0.066765
v -0.266436 -0.212075 -0.047001
v -0.244096 -0.204396 -0.039715
v -0.221755 -0.197436 -0.047691
v -0.207948 -0.193855 -0.067883
v -0.207948 -0.195020 -0.092577
v -0.221755 -0.200487 -0.112341
v -0.244096 -0.240468 -0.100437
v -0.267352 -0.232145 -0.099424
v -0.281725 -0.213943 -0.090866
v -0.281725 -0.192814 -0.078031
v -0.267352 -0.176829 -0.065823
v -0.244096 -0.172094 -0.058904
v -0.220840 -0.180417 -0.059918
v -0.206466 -0.198619 -0.068476
v -0.206466 -0.219748 -0.081310
v -0.220840 -0.235733 -0.093518
v -0.218807 -0.152092 -0.245927
v -0.242063 -0.143770 -0.244913
v -0.256436 -0.125567 -0.236355
v -0.256436 -0.104439 -0.223521
v -0.242063 -0.088454 -0.211313
v -0.218807 -0.083718 -0.204394
v -0.195551 -0.092041 -0.205407
v -0.181178 -0.110243 -0.213965
v -0.181178 -0.131372 -0.226800
v -0.195551 -0.147357 -0.239008
v 0.175326 -0.455529 -0.112079
v 0.151941 -0.459082 -0.104891
v 0.137488 -0.463566 -0.085342
v 0.137488 -0.467270 -0.060900
v 0.151941 -0.468778 -0.040900
v 0.175326 -0.467514 -0.032982
v 0.198711 -0.463962 -0.040170
v 0.213163 -0.459477 -0.059719
v 0.213163 -0.455774 -0.084161
v 0.198711 -0.454266 -0.104161
v 0.125946 0.013268 -0.041045
v 0.102561 0.009715 -0.033857
v 0.088109 0.005231 -0.014308
v 0.088109 0.001527 0.010134
v 0.102561 0.000019 0.030134
v 0.125946 0.001283 0.038052
v 0.149331 0.004835 0.030864
v 0.163784 0.009319 0.011315
v 0.163784 0.013023 -0.013128
v 0.149331 0.014531 -0.033127
v -0.161348 -0.451692 -0.107234
v -0.184783 -0.451077 -0.099386
v -0.199266 -0.453214 -0.079466
v -0.199266 -0.457286 -0.055082
v -0.184783 -0.461738 -0.035549
v -0.161348 -0.464870 -0.028326
v -0.137913 -0.465485 -0.036174
v -0.123430 -0.463349 -0.056095
v -0.123430 -0.459277 -0.080478
v -0.137913 -0.454824 -0.100012
v -0.125349 -0.013619 -0.034074
v -0.148784 -0.013004 -0.026226
v -0.163267 -0.015141 -0.006306
v -0.163267 -0.019213 0.018077
v -0.148784 -0.023665 0.037611
v -0.125349 -0.026797 0.044833
v -0.101915 -0.027412 0.036985
v -0.087431 -0.025276 0.017065
v -0.087431 -0.021204 -0.007319
v -0.101915 -0.016751 -0.026852
v 0.124852 0.007275 -0.041482
v 0.127615 -0.016097 -0.033915
v 0.129741 -0.030542 -0.013966
v 0.130417 -0.030542 0.010746
v 0.129386 -0.016097 0.030782
v 0.127040 0.007275 0.038488
v 0.124277 0.030647 0.030922
v 0.122151 0.045092 0.010972
v 0.121475 0.045092 -0.013740
v 0.122507 0.030647 -0.033775
v -0.126443 -0.020208 -0.034606
v -0.123680 -0.043580 -0.027039
v -0.121555 -0.058025 -0.007090
v -0.120878 -0.058025 0.017622
v -0.121910 -0.043580 0.037658
v -0.124255 -0.020208 0.045364
v -0.127018 0.003164 0.037798
v -0.129144 0.017609 0.017849
v -0.129820 0.017609 -0.006864
v -0.128789 0.003164 -0.026899
v 0.125946 -0.007308 -0.038744
v 0.102523 -0.006416 -0.030889
v 0.088046 -0.000293 -0.011808
v 0.088046 0.008720 0.011212
v 0.102523 0.017181 0.029377
v 0.125946 0.021859 0.035750
v 0.149370 0.020966 0.027896
v 0.163846 0.014844 0.008814
v 0.163846 0.005831 -0.014206
v 0.149370 -0.002631 -0.032371
v 0.110742 0.155861 -0.102631
v 0.087319 0.156754 -0.094776
v 0.072843 0.162876 -0.075695
v 0.072843 0.171889 -0.052675
v 0.087319 0.180351 -0.034510
v 0.110742 0.185028 -0.028137
v 0.134166 0.184135 -0.035992
v 0.148642 0.178013 -0.055073
v 0.148642 0.169000 -0.078093
v 0.134166 0.160539 -0.096258
v 0.110742 0.192006 -0.099075
v 0.087307 0.189484 -0.091620
v 0.072824 0.179689 -0.074143
v 0.072824 0.166364 -0.053321
v 0.087307 0.154597 -0.037106
v 0.110742 0.148883 -0.031693
v 0.134177 0.151405 -0.039148
v 0.148661 0.161200 -0.056625
v 0.148661 0.174526 -0.077447
v 0.134177 0.186293 -0.093662
v 0.137318 0.468913 0.078140
v 0.113883 0.466391 0.085596
v 0.099400 0.456596 0.103073
v 0.099400 0.443270 0.123895
v 0.113883 0.431503 0.140109
v 0.137318 0.425790 0.145522
v 0.160753 0.428312 0.138067
v 0.175237 0.438107 0.120590
v 0.175237 0.451433 0.099768
v 0.160753 0.463200 0.083553
v -0.125349 -0.058792 -0.005170
v -0.148252 -0.050022 -0.008281
v -0.162407 -0.029864 -0.006174
v -0.162407 -0.006018 0.000346
v -0.148252 0.012408 0.008789
v -0.125349 0.018375 0.015929
v -0.102446 0.009605 0.019040
v -0.088291 -0.010553 0.016933
v -0.088291 -0.034399 0.010413
v -0.102446 -0.052825 0.001970
v -0.092152 -0.021054 -0.143188
v -0.115055 -0.012284 -0.146299
v -0.129210 0.007874 -0.144192
v -0.129210 0.031720 -0.137672
v -0.115055 0.050146 -0.129229
v -0.092152 0.056113 -0.122088
v -0.069249 0.047343 -0.118978
v -0.055094 0.027185 -0.121085
v -0.055094 0.003339 -0.127605
v -0.069249 -0.015087 -0.136048
v -0.092152 0.018939 -0.172613
v -0.115650 0.019465 -0.164951
v -0.130173 0.019251 -0.144946
v -0.130173 0.018380 -0.120240
v -0.115650 0.017184 -0.100270
v -0.092152 0.016120 -0.092663
v -0.068654 0.015595 -0.100326
v -0.054132 0.015809 -0.120331
v -0.054132 0.016680 -0.145037
v -0.068654 0.017876 -0.165007
v -0.082131 0.314962 -0.162174
v -0.105629 0.315487 -0.154512
v -0.120152 0.315273 -0.134507
v -0.120152 0.314402 -0.109801
v -0.105629 0.313206 -0.089831
v -0.082131 0.312142 -0.082224
v -0.058633 0.311617 -0.089887
v -0.044111 0.311831 -0.109892
v -0.044111 0.312702 -0.134598
v -0.058633 0.313898 -0.154568
f 1 2 13
f 2 14 13
f 2 3 14
f 3 15 14
f 3 4 15
f 4 16 15
f 4 5 16
f 5 17 16
f 5 6 17
f 6 18 17
f 6 7 18
f 7 19 18
f 7 8 19
f 8 20 19
f 8 9 20
f 9 21 20
f 9 10 21
f 10 22 21
f 10 11 22
f 11 23 22
f 11 12 23
f 12 24 23
f 13 14 25
f 14 26 25
f 14 15 26
f 15 27 26
f 15 16 27
f 16 28 27
f 16 17 28
f 17 29 28
f 17 18 29
f 18 30 29
f 18 19 30
f 19 31 30
f 19 20 31
f 20 32 31
f 20 21 32
f 21 33 32
f 21 22 33
f 22 34 33
f 22 23 34
f 23 35 34
f 23 24 35
f 24 36 35
f 25 26 37
f 26 38 37
f 26 27 38
f 27 39 38
f 27 28 39
f 28 40 39
f 28 29 40
f 29 41 40
f 29 30 41
f 30 42 41
f 30 31 42
f 31 43 42
f 31 32 43
f 32 44 43
f 32 33 44
f 33 45 44
f 33 34 45
f 34 46 45
f 34 35 46
f 35 47 46
f 35 36 47
f 36 48 47
f 37 38 49
f 38 50 49
f 38 39 50
f 39 51 50
f 39 40 51
f 40 52 51
f 40 41 52
f 41 53 52
f 41 42 53
f 42 54 53
f 42 43 54
f 43 55 54
f 43 44 55
f 44 56 55
f 44 45 56
f 45 57 56
f 45 46 57
f 46 58 57
f 46 47 58
f 47 59 58
f 47 48 59
f 48 60 59
f 49 50 61
f 50 62 61
f 50 51 62
f 51 63 62
f 51 52 63
f 52 64 63
f 52 53 64
f 53 65 64
f 53 54 65
f 54 66 65
f 54 55 66
f 55 67 66
f 55 56 67
f 56 68 67
f 56 57 68
f 57 69 68
f 57 58 69
f 58 70 69
f 58 59 70
f 59 71 70
f 59 60 71
f 60 72 71
f 61 62 73
f 62 74 73
f 62 63 74
f 63 75 74
f 63 64 75
f 64 76 75
f 64 65 76
f 65 77 76
f 65 66 77
f 66 78 77
f 66 67 78
f 67 79 78
f 67 68 79
f 68 80 79
f 68 69 80
f 69 81 80
f 69 70 81
f 70 82 81
f 70 71 82
f 71 83 82
f 71 72 83
f 72 84 83
f 73 74 85
f 74 86 85
f 74 75 86
f 75 87 86
f 75 76 87
f 76 88 87
f 76 77 88
f 77 89 88
f 77 78 89
f 78 90 89
f 78 79 90
f 79 91 90
f 79 80 91
f 80 92 91
f 80 81 92
f 81 93 92
f 81 82 93
f 82 94 93
f 82 83 94
f 83 95 94
f 83 84 95
f 84 96 95
f 85 86 97
f 86 98 97
f 86 87 98
f 87 99 98
f 87 88 99
f 88 100 99
f 88 89 100
f 89 101 100
f 89 90 101
f 90 102 101
f 90 91 102
f 91 103 102
f 91 92 103
f 92 104 103
f 92 93 104
f 93 105 104
f 93 94 105
f 94 106 105
f 94 95 106
f 95 107 106
f 95 96 107
f 96 108 107
f 97 98 109
f 98 110 109
f 98 99 110
f 99 111 110
f 99 100 111
f 100 112 111
f 100 101 112
f 101 113 112
f 101 102 113
f 102 114 113
f 102 103 114
f 103 115 114
f 103 104 115
f 104 116 115
f 104 105 116
f 105 117 116
f 105 106 117
f 106 118 117
f 106 107 118
f 107 119 118
f 107 108 119
f 108 120 119
f 109 110 121
f 110 122 121
f 110 111 122
f 111 123 122
f 111 112 123
f 112 124 123
f 112 113 124
f 113 125 124
f 113 114 125
f 114 126 125
f 114 115 126
f 115 127 126
f 115 116 127
f 116 128 127
f 116 117 128
f 117 129 128
f 117 118 129
f 118 130 129
f 118 119 130
f 119 131 130
f 119 120 131
f 120 132 131
f 121 122 133
f 122 134 133
f 122 123 134
f 123 135 134
f 123 124 135
f 124 136 135
f 124 125 136
f 125 137 136
f 125 126 137
f 126 138 137
f 126 127 138
f 127 139 138
f 127 128 139
f 128 140 139
f 128 129 140
f 129 141 140
f 129 130 141
f 130 142 141
f 130 131 142
f 131 143 142
f 131 132 143
f 132 144 143
f 145 146 155
f 146 156 155
f 146 147 156
f 147 157 156
f 147 148 157
f 148 158 157
f 148 149 158
f 149 159 158
f 149 150 159
f 150 160 159
f 150 151 160
f 151 161 160
f 151 152 161
f 152 162 161
f 152 153 162
f 153 163 162
f 153 154 163
f 154 164 163
f 154 145 164
f 145 155 164
f 165 166 175
f 166 176 175
f 166 167 176
f 167 177 176
f 167 168 177
f 168 178 177
f 168 169 178
f 169 179 178
f 169 170 179
f 170 180 179
f 170 171 180
f 171 181 180
f 171 172 181
f 172 182 181
f 172 173 182
f 173 183 182
f 173 174 183
f 174 184 183
f 174 165 184
f 165 175 184
f 185 186 195
f 186 196 195
f 186 187 196
f 187 197 196
f 187 188 197
f 188 198 197
f 188 189 198
f 189 199 198
f 189 190 199
f 190 200 199
f 190 191 200
f 191 201 200
f 191 192 201
f 192 202 201
f 192 193 202
f 193 203 202
f 193 194 203
f 194 204 203
f 194 185 204
f 185 195 204
f 205 206 215
f 206 216 215
f 206 207 216
f 207 217 216
f 207 208 217
f 208 218 217
f 208 209 218
f 209 219 218
f 209 210 219
f 210 220 219
f 210 211 220
f 211 221 220
f 211 212 221
f 212 222 221
f 212 213 222
f 213 223 222
f 213 214 223
f 214 224 223
f 214 205 224
f 205 215 224
f 225 226 235
f 226 236 235
f 226 227 236
f 227 237 236
f 227 228 237
f 228 238 237
f 228 229 238
f 229 239 238
f 229 230 239
f 230 240 239
f 230 231 240
f 231 241 240
f 231 232 241
f 232 242 241
f 232 233 242
f 233 243 242
f 233 234 243
f 234 244 243
f 234 225 244
f 225 235 244
f 245 246 255
f 246 256 255
f 246 247 256
f 247 257 256
f 247 248 257
f 248 258 257
f 248 249 258
f 249 259 258
f 249 250 259
f 250 260 259
f 250 251 260
f 251 261 260
f 251 252 261
f 252 262 261
f 252 253 262
f 253 263 262
f 253 254 263
f 254 264 263
f 254 245 264
f 245 255 264
f 265 266 275
f 266 276 275
f 266 267 276
f 267 277 276
f 267 268 277
f 268 278 277
f 268 269 278
f 269 279 278
f 269 270 279
f 270 280 279
f 270 271 280
f 271 281 280
f 271 272 281
f 272 282 281
f 272 273 282
f 273 283 282
f 273 274 283
f 274 284 283
f 274 265 284
f 265 275 284
f 285 286 295
f 286 296 295
f 286 287 296
f 287 297 296
f 287 288 297
f 288 298 297
f 288 289 298
f 289 299 298
f 289 290 299
f 290 300 299
f 290 291 300
f 291 301 300
f 291 292 301
f 292 302 301
f 292 293 302
f 293 303 302
f 293 294 303
f 294 304 303
f 294 285 304
f 285 295 304
f 305 306 315
f 306 316 315
f 306 307 316
f 307 317 316
f 307 308 317
f 308 318 317
f 308 309 318
f 309 319 318
f 309 310 319
f 310 320 319
f 310 311 320
f 311 321 320
f 311 312 321
f 312 322 321
f 312 313 322
f 313 323 322
f 313 314 323
f 314 324 323
f 314 305 324
f 305 315 324
f 325 326 335
f 326 336 335
f 326 327 336
f 327 337 336
f 327 328 337
f 328 338 337
f 328 329 338
f 329 339 338
f 329 330 339
f 330 340 339
f 330 331 340
f 331 341 340
f 331 332 341
f 332 342 341
f 332 333 342
f 333 343 342
f 333 334 343
f 334 344 343
f 334 325 344
f 325 335 344
f 345 346 355
f 346 356 355
f 346 347 356
f 347 357 356
f 347 348 357
f 348 358 357
f 348 349 358
f 349 359 358
f 349 350 359
f 350 360 359
f 350 351 360
f 351 361 360
f 351 352 361
f 352 362 361
f 352 353 362
f 353 363 362
f 353 354 363
f 354 364 363
f 354 345 364
f 345 355 364
f 365 366 375
f 366 376 375
f 366 367 376
f 367 377 376
f 367 368 377
f 368 378 377
f 368 369 378
f 369 379 378
f 369 370 379
f 370 380 379
f 370 371 380
f 371 381 380
f 371 372 381
f 372 382 381
f 372 373 382
f 373 383 382
f 373 374 383
f 374 384 383
f 374 365 384
f 365 375 384
