# Full-Body 3D Mesh - Frame 106
v 0.005626 -0.636609 -0.139717
v 0.039434 -0.636609 -0.144578
v 0.070503 -0.636609 -0.158767
v 0.096316 -0.636609 -0.181134
v 0.114782 -0.636609 -0.209867
v 0.124404 -0.636609 -0.242639
v 0.124404 -0.636609 -0.276795
v 0.114782 -0.636609 -0.309567
v 0.096316 -0.636609 -0.338300
v 0.070503 -0.636609 -0.360667
v 0.039434 -0.636609 -0.374856
v 0.005626 -0.636609 -0.379717
v 0.005626 -0.636609 -0.139717
v 0.034067 -0.618331 -0.144578
v 0.060204 -0.601533 -0.158767
v 0.081919 -0.587578 -0.181134
v 0.097454 -0.577594 -0.209867
v 0.105549 -0.572392 -0.242639
v 0.105549 -0.572392 -0.276795
v 0.097454 -0.577594 -0.309567
v 0.081919 -0.587578 -0.338300
v 0.060204 -0.601533 -0.360667
v 0.034067 -0.618331 -0.374856
v 0.005626 -0.636609 -0.379717
v 0.005626 -0.636609 -0.139717
v 0.019670 -0.605856 -0.144578
v 0.032577 -0.577594 -0.158767
v 0.043300 -0.554114 -0.181134
v 0.050971 -0.537317 -0.209867
v 0.054968 -0.528564 -0.242639
v 0.054968 -0.528564 -0.276795
v 0.050971 -0.537317 -0.309567
v 0.043300 -0.554114 -0.338300
v 0.032577 -0.577594 -0.360667
v 0.019670 -0.605856 -0.374856
v 0.005626 -0.636609 -0.379717
v 0.005626 -0.636609 -0.139717
v 0.000814 -0.603145 -0.144578
v -0.003607 -0.572392 -0.158767
v -0.007281 -0.546842 -0.181134
v -0.009909 -0.528564 -0.209867
v -0.011278 -0.519039 -0.242639
v -0.011278 -0.519039 -0.276795
v -0.009909 -0.528564 -0.309567
v -0.007281 -0.546842 -0.338300
v -0.003607 -0.572392 -0.360667
v 0.000814 -0.603145 -0.374856
v 0.005626 -0.636609 -0.379717
v 0.005626 -0.636609 -0.139717
v -0.016514 -0.611058 -0.144578
v -0.036860 -0.587578 -0.158767
v -0.053763 -0.568070 -0.181134
v -0.065856 -0.554114 -0.209867
v -0.072158 -0.546842 -0.242639
v -0.072158 -0.546842 -0.276795
v -0.065856 -0.554114 -0.309567
v -0.053763 -0.568070 -0.338300
v -0.036860 -0.587578 -0.360667
v -0.016514 -0.611058 -0.374856
v 0.005626 -0.636609 -0.379717
v 0.005626 -0.636609 -0.139717
v -0.026813 -0.627084 -0.144578
v -0.056623 -0.618331 -0.158767
v -0.081391 -0.611058 -0.181134
v -0.099108 -0.605856 -0.209867
v -0.108341 -0.603145 -0.242639
v -0.108341 -0.603145 -0.276795
v -0.099108 -0.605856 -0.309567
v -0.081391 -0.611058 -0.338300
v -0.056623 -0.618331 -0.360667
v -0.026813 -0.627084 -0.374856
v 0.005626 -0.636609 -0.379717
v 0.005626 -0.636609 -0.139717
v -0.026813 -0.646133 -0.144578
v -0.056623 -0.654886 -0.158767
v -0.081391 -0.662159 -0.181134
v -0.099108 -0.667361 -0.209867
v -0.108341 -0.670072 -0.242639
v -0.108341 -0.670072 -0.276795
v -0.099108 -0.667361 -0.309567
v -0.081391 -0.662159 -0.338300
v -0.056623 -0.654886 -0.360667
v -0.026813 -0.646133 -0.374856
v 0.005626 -0.636609 -0.379717
v 0.005626 -0.636609 -0.139717
v -0.016514 -0.662159 -0.144578
v -0.036860 -0.685639 -0.158767
v -0.053763 -0.705147 -0.181134
v -0.065856 -0.719103 -0.209867
v -0.072158 -0.726375 -0.242639
v -0.072158 -0.726375 -0.276795
v -0.065856 -0.719103 -0.309567
v -0.053763 -0.705147 -0.338300
v -0.036860 -0.685639 -0.360667
v -0.016514 -0.662159 -0.374856
v 0.005626 -0.636609 -0.379717
v 0.005626 -0.636609 -0.139717
v 0.000814 -0.670072 -0.144578
v -0.003607 -0.700825 -0.158767
v -0.007281 -0.726375 -0.181134
v -0.009909 -0.744653 -0.209867
v -0.011278 -0.754178 -0.242639
v -0.011278 -0.754178 -0.276795
v -0.009909 -0.744653 -0.309567
v -0.007281 -0.726375 -0.338300
v -0.003607 -0.700825 -0.360667
v 0.000814 -0.670072 -0.374856
v 0.005626 -0.636609 -0.379717
v 0.005626 -0.636609 -0.139717
v 0.019670 -0.667361 -0.144578
v 0.032577 -0.695623 -0.158767
v 0.043300 -0.719103 -0.181134
v 0.050971 -0.735900 -0.209867
v 0.054968 -0.744653 -0.242639
v 0.054968 -0.744653 -0.276795
v 0.050971 -0.735900 -0.309567
v 0.043300 -0.719103 -0.338300
v 0.032577 -0.695623 -0.360667
v 0.019670 -0.667361 -0.374856
v 0.005626 -0.636609 -0.379717
v 0.005626 -0.636609 -0.139717
v 0.034067 -0.654886 -0.144578
v 0.060204 -0.671684 -0.158767
v 0.081919 -0.685639 -0.181134
v 0.097454 -0.695623 -0.209867
v 0.105549 -0.700825 -0.242639
v 0.105549 -0.700825 -0.276795
v 0.097454 -0.695623 -0.309567
v 0.081919 -0.685639 -0.338300
v 0.060204 -0.671684 -0.360667
v 0.034067 -0.654886 -0.374856
v 0.005626 -0.636609 -0.379717
v 0.005626 -0.636609 -0.139717
v 0.039434 -0.636609 -0.144578
v 0.070503 -0.636609 -0.158767
v 0.096316 -0.636609 -0.181134
v 0.114782 -0.636609 -0.209867
v 0.124404 -0.636609 -0.242639
v 0.124404 -0.636609 -0.276795
v 0.114782 -0.636609 -0.309567
v 0.096316 -0.636609 -0.338300
v 0.070503 -0.636609 -0.360667
v 0.039434 -0.636609 -0.374856
v 0.005626 -0.636609 -0.379717
v 0.173503 -0.457905 -0.117590
v 0.174133 -0.481415 -0.109973
v 0.175300 -0.495945 -0.090007
v 0.176558 -0.495945 -0.065317
v 0.177427 -0.481415 -0.045336
v 0.177574 -0.457905 -0.037694
v 0.176944 -0.434395 -0.045311
v 0.175777 -0.419865 -0.065278
v 0.174520 -0.419865 -0.089967
v 0.173651 -0.434395 -0.109949
v -0.158063 -0.461315 -0.100698
v -0.157433 -0.484825 -0.093080
v -0.156266 -0.499356 -0.073114
v -0.155008 -0.499356 -0.048425
v -0.154140 -0.484825 -0.028443
v -0.153992 -0.461315 -0.020801
v -0.154622 -0.437805 -0.028418
v -0.155789 -0.423275 -0.048385
v -0.157047 -0.423275 -0.073074
v -0.157915 -0.437805 -0.093056
v 0.175539 -0.460892 -0.117530
v 0.152480 -0.455744 -0.110255
v 0.138228 -0.451422 -0.090523
v 0.138228 -0.449576 -0.065870
v 0.152480 -0.450912 -0.045714
v 0.175539 -0.454919 -0.037754
v 0.198598 -0.460066 -0.045029
v 0.212849 -0.464388 -0.064761
v 0.212849 -0.466234 -0.089414
v 0.198598 -0.464898 -0.109570
v 0.224441 -0.215903 -0.135873
v 0.201382 -0.210755 -0.128597
v 0.187131 -0.206433 -0.108865
v 0.187131 -0.204588 -0.084213
v 0.201382 -0.205923 -0.064057
v 0.224441 -0.209930 -0.056096
v 0.247500 -0.215078 -0.063371
v 0.261752 -0.219400 -0.083104
v 0.261752 -0.221245 -0.107756
v 0.247500 -0.219910 -0.127912
v 0.224441 -0.233594 -0.130225
v 0.200930 -0.229716 -0.123643
v 0.186399 -0.219422 -0.106496
v 0.186399 -0.206642 -0.085333
v 0.200930 -0.196260 -0.068239
v 0.224441 -0.192239 -0.061743
v 0.247953 -0.196117 -0.068326
v 0.262484 -0.206411 -0.085473
v 0.262484 -0.219191 -0.106635
v 0.247953 -0.229573 -0.123729
v 0.223784 -0.074953 -0.226023
v 0.200273 -0.071076 -0.219440
v 0.185742 -0.060781 -0.202293
v 0.185742 -0.048002 -0.181131
v 0.200273 -0.037620 -0.164037
v 0.223784 -0.033599 -0.157541
v 0.247295 -0.037477 -0.164123
v 0.261826 -0.047771 -0.181270
v 0.261826 -0.060550 -0.202433
v 0.247295 -0.070933 -0.219526
v -0.156027 -0.470969 -0.099567
v -0.176492 -0.480358 -0.089360
v -0.189140 -0.482474 -0.068225
v -0.189140 -0.476508 -0.044234
v -0.176492 -0.464739 -0.026552
v -0.156027 -0.451662 -0.021932
v -0.135563 -0.442272 -0.032139
v -0.122915 -0.440156 -0.053274
v -0.122915 -0.446123 -0.077265
v -0.135563 -0.457892 -0.094947
v -0.294886 -0.232735 -0.158813
v -0.315350 -0.242124 -0.148606
v -0.327998 -0.244240 -0.127471
v -0.327998 -0.238274 -0.103480
v -0.315350 -0.226505 -0.085798
v -0.294886 -0.213428 -0.081178
v -0.274421 -0.204038 -0.091385
v -0.261773 -0.201922 -0.112520
v -0.261773 -0.207888 -0.136511
v -0.274421 -0.219658 -0.154193
v -0.294886 -0.263045 -0.121689
v -0.318213 -0.255289 -0.124299
v -0.332630 -0.235230 -0.125265
v -0.332630 -0.210531 -0.124218
v -0.318213 -0.190625 -0.121558
v -0.294886 -0.183117 -0.118302
v -0.271558 -0.190874 -0.115692
v -0.257141 -0.210933 -0.114726
v -0.257141 -0.235632 -0.115773
v -0.271558 -0.255537 -0.118433
v -0.268481 -0.254160 -0.331317
v -0.291808 -0.246404 -0.333926
v -0.306225 -0.226345 -0.334892
v -0.306225 -0.201646 -0.333845
v -0.291808 -0.181740 -0.331186
v -0.268481 -0.174232 -0.327929
v -0.245153 -0.181989 -0.325319
v -0.230736 -0.202048 -0.324354
v -0.230736 -0.226747 -0.325400
v -0.245153 -0.246652 -0.328060
v 0.175539 -0.451862 -0.117183
v 0.152137 -0.455259 -0.109974
v 0.137674 -0.459667 -0.090416
v 0.137674 -0.463402 -0.065978
v 0.152137 -0.465037 -0.045996
v 0.175539 -0.463948 -0.038101
v 0.198940 -0.460551 -0.045310
v 0.213403 -0.456143 -0.064869
v 0.213403 -0.452409 -0.089306
v 0.198940 -0.450773 -0.109289
v 0.130099 0.011407 -0.046381
v 0.106698 0.008010 -0.039172
v 0.092234 0.003602 -0.019614
v 0.092234 -0.000133 0.004824
v 0.106698 -0.001768 0.024806
v 0.130099 -0.000679 0.032701
v 0.153501 0.002718 0.025492
v 0.167964 0.007126 0.005933
v 0.167964 0.010860 -0.018504
v 0.153501 0.012496 -0.038487
v -0.156027 -0.455052 -0.100256
v -0.179498 -0.454875 -0.092493
v -0.194003 -0.457158 -0.072605
v -0.194003 -0.461029 -0.048189
v -0.179498 -0.465009 -0.028570
v -0.156027 -0.467579 -0.021243
v -0.132557 -0.467756 -0.029006
v -0.118052 -0.465473 -0.048893
v -0.118052 -0.461602 -0.073310
v -0.132557 -0.457621 -0.092929
v -0.129541 -0.013441 -0.030244
v -0.153011 -0.013264 -0.022481
v -0.167516 -0.015547 -0.002593
v -0.167516 -0.019418 0.021823
v -0.153011 -0.023398 0.041442
v -0.129541 -0.025967 0.048769
v -0.106070 -0.026144 0.041006
v -0.091565 -0.023862 0.021119
v -0.091565 -0.019991 -0.003298
v -0.106070 -0.016010 -0.022917
v 0.127623 0.005364 -0.046764
v 0.130347 -0.018039 -0.039278
v 0.132976 -0.032503 -0.019403
v 0.134506 -0.032503 0.005271
v 0.134353 -0.018039 0.025319
v 0.132575 0.005364 0.033083
v 0.129851 0.028767 0.025598
v 0.127222 0.043231 0.005723
v 0.125692 0.043231 -0.018951
v 0.125845 0.028767 -0.038999
v -0.132017 -0.019704 -0.030661
v -0.129293 -0.043107 -0.023176
v -0.126664 -0.057571 -0.003300
v -0.125133 -0.057571 0.021374
v -0.125287 -0.043107 0.041422
v -0.127065 -0.019704 0.049186
v -0.129788 0.003699 0.041701
v -0.132418 0.018163 0.021825
v -0.133948 0.018163 -0.002849
v -0.133795 0.003699 -0.022896
v 0.130099 -0.015635 -0.040885
v 0.106705 -0.013623 -0.033150
v 0.092247 -0.004358 -0.015366
v 0.092247 0.008620 0.005674
v 0.106705 0.020354 0.021935
v 0.130099 0.026363 0.027204
v 0.153493 0.024351 0.019470
v 0.167951 0.015086 0.001686
v 0.167951 0.002108 -0.019355
v 0.153493 -0.009626 -0.035616
v 0.117370 0.092315 -0.107470
v 0.093976 0.094328 -0.099735
v 0.079518 0.103592 -0.081951
v 0.079518 0.116570 -0.060910
v 0.093976 0.128305 -0.044650
v 0.117370 0.134313 -0.039380
v 0.140764 0.132301 -0.047115
v 0.155222 0.123037 -0.064899
v 0.155222 0.110059 -0.085939
v 0.140764 0.098324 -0.102200
v 0.117370 0.133445 -0.107990
v 0.094027 0.132028 -0.099975
v 0.079600 0.123462 -0.081819
v 0.079600 0.111021 -0.060456
v 0.094027 0.099455 -0.044047
v 0.117370 0.093183 -0.038860
v 0.140713 0.094601 -0.046875
v 0.155140 0.103166 -0.065031
v 0.155140 0.115608 -0.086393
v 0.140713 0.127173 -0.102802
v 0.159822 0.438302 0.069559
v 0.136479 0.436884 0.077574
v 0.122052 0.428319 0.095731
v 0.122052 0.415878 0.117093
v 0.136479 0.404312 0.133502
v 0.159822 0.398040 0.138690
v 0.183165 0.399458 0.130675
v 0.197592 0.408023 0.112518
v 0.197592 0.420464 0.091156
v 0.183165 0.432030 0.074747
v -0.129541 -0.057024 0.023659
v -0.153048 -0.050047 0.020520
v -0.167577 -0.031480 0.013081
v -0.167577 -0.008415 0.004183
v -0.153048 0.010338 -0.002774
v -0.129541 0.017615 -0.005134
v -0.106033 0.010638 -0.001994
v -0.091504 -0.007929 0.005445
v -0.091504 -0.030993 0.014342
v -0.106033 -0.049746 0.021299
v -0.126007 -0.128592 -0.161870
v -0.149515 -0.121615 -0.165009
v -0.164043 -0.103048 -0.172448
v -0.164043 -0.079983 -0.181346
v -0.149515 -0.061230 -0.188303
v -0.126007 -0.053953 -0.190663
v -0.102499 -0.060930 -0.187523
v -0.087971 -0.079497 -0.180084
v -0.087971 -0.102561 -0.171187
v -0.102499 -0.121314 -0.164230
v -0.126007 -0.096666 -0.215901
v -0.149349 -0.092846 -0.208711
v -0.163775 -0.088425 -0.189129
v -0.163775 -0.085091 -0.164633
v -0.149349 -0.084118 -0.144581
v -0.126007 -0.085878 -0.136632
v -0.102665 -0.089699 -0.143822
v -0.088239 -0.094120 -0.163404
v -0.088239 -0.097454 -0.187900
v -0.102665 -0.098426 -0.207952
v -0.087514 0.219503 -0.258929
v -0.110856 0.223324 -0.251740
v -0.125283 0.227745 -0.232157
v -0.125283 0.231079 -0.207661
v -0.110856 0.232051 -0.187609
v -0.087514 0.230291 -0.179660
v -0.064172 0.226471 -0.186850
v -0.049746 0.222049 -0.206433
v -0.049746 0.218716 -0.230928
v -0.064172 0.217743 -0.250980
f 1 2 13
f 2 14 13
f 2 3 14
f 3 15 14
f 3 4 15
f 4 16 15
f 4 5 16
f 5 17 16
f 5 6 17
f 6 18 17
f 6 7 18
f 7 19 18
f 7 8 19
f 8 20 19
f 8 9 20
f 9 21 20
f 9 10 21
f 10 22 21
f 10 11 22
f 11 23 22
f 11 12 23
f 12 24 23
f 13 14 25
f 14 26 25
f 14 15 26
f 15 27 26
f 15 16 27
f 16 28 27
f 16 17 28
f 17 29 28
f 17 18 29
f 18 30 29
f 18 19 30
f 19 31 30
f 19 20 31
f 20 32 31
f 20 21 32
f 21 33 32
f 21 22 33
f 22 34 33
f 22 23 34
f 23 35 34
f 23 24 35
f 24 36 35
f 25 26 37
f 26 38 37
f 26 27 38
f 27 39 38
f 27 28 39
f 28 40 39
f 28 29 40
f 29 41 40
f 29 30 41
f 30 42 41
f 30 31 42
f 31 43 42
f 31 32 43
f 32 44 43
f 32 33 44
f 33 45 44
f 33 34 45
f 34 46 45
f 34 35 46
f 35 47 46
f 35 36 47
f 36 48 47
f 37 38 49
f 38 50 49
f 38 39 50
f 39 51 50
f 39 40 51
f 40 52 51
f 40 41 52
f 41 53 52
f 41 42 53
f 42 54 53
f 42 43 54
f 43 55 54
f 43 44 55
f 44 56 55
f 44 45 56
f 45 57 56
f 45 46 57
f 46 58 57
f 46 47 58
f 47 59 58
f 47 48 59
f 48 60 59
f 49 50 61
f 50 62 61
f 50 51 62
f 51 63 62
f 51 52 63
f 52 64 63
f 52 53 64
f 53 65 64
f 53 54 65
f 54 66 65
f 54 55 66
f 55 67 66
f 55 56 67
f 56 68 67
f 56 57 68
f 57 69 68
f 57 58 69
f 58 70 69
f 58 59 70
f 59 71 70
f 59 60 71
f 60 72 71
f 61 62 73
f 62 74 73
f 62 63 74
f 63 75 74
f 63 64 75
f 64 76 75
f 64 65 76
f 65 77 76
f 65 66 77
f 66 78 77
f 66 67 78
f 67 79 78
f 67 68 79
f 68 80 79
f 68 69 80
f 69 81 80
f 69 70 81
f 70 82 81
f 70 71 82
f 71 83 82
f 71 72 83
f 72 84 83
f 73 74 85
f 74 86 85
f 74 75 86
f 75 87 86
f 75 76 87
f 76 88 87
f 76 77 88
f 77 89 88
f 77 78 89
f 78 90 89
f 78 79 90
f 79 91 90
f 79 80 91
f 80 92 91
f 80 81 92
f 81 93 92
f 81 82 93
f 82 94 93
f 82 83 94
f 83 95 94
f 83 84 95
f 84 96 95
f 85 86 97
f 86 98 97
f 86 87 98
f 87 99 98
f 87 88 99
f 88 100 99
f 88 89 100
f 89 101 100
f 89 90 101
f 90 102 101
f 90 91 102
f 91 103 102
f 91 92 103
f 92 104 103
f 92 93 104
f 93 105 104
f 93 94 105
f 94 106 105
f 94 95 106
f 95 107 106
f 95 96 107
f 96 108 107
f 97 98 109
f 98 110 109
f 98 99 110
f 99 111 110
f 99 100 111
f 100 112 111
f 100 101 112
f 101 113 112
f 101 102 113
f 102 114 113
f 102 103 114
f 103 115 114
f 103 104 115
f 104 116 115
f 104 105 116
f 105 117 116
f 105 106 117
f 106 118 117
f 106 107 118
f 107 119 118
f 107 108 119
f 108 120 119
f 109 110 121
f 110 122 121
f 110 111 122
f 111 123 122
f 111 112 123
f 112 124 123
f 112 113 124
f 113 125 124
f 113 114 125
f 114 126 125
f 114 115 126
f 115 127 126
f 115 116 127
f 116 128 127
f 116 117 128
f 117 129 128
f 117 118 129
f 118 130 129
f 118 119 130
f 119 131 130
f 119 120 131
f 120 132 131
f 121 122 133
f 122 134 133
f 122 123 134
f 123 135 134
f 123 124 135
f 124 136 135
f 124 125 136
f 125 137 136
f 125 126 137
f 126 138 137
f 126 127 138
f 127 139 138
f 127 128 139
f 128 140 139
f 128 129 140
f 129 141 140
f 129 130 141
f 130 142 141
f 130 131 142
f 131 143 142
f 131 132 143
f 132 144 143
f 145 146 155
f 146 156 155
f 146 147 156
f 147 157 156
f 147 148 157
f 148 158 157
f 148 149 158
f 149 159 158
f 149 150 159
f 150 160 159
f 150 151 160
f 151 161 160
f 151 152 161
f 152 162 161
f 152 153 162
f 153 163 162
f 153 154 163
f 154 164 163
f 154 145 164
f 145 155 164
f 165 166 175
f 166 176 175
f 166 167 176
f 167 177 176
f 167 168 177
f 168 178 177
f 168 169 178
f 169 179 178
f 169 170 179
f 170 180 179
f 170 171 180
f 171 181 180
f 171 172 181
f 172 182 181
f 172 173 182
f 173 183 182
f 173 174 183
f 174 184 183
f 174 165 184
f 165 175 184
f 185 186 195
f 186 196 195
f 186 187 196
f 187 197 196
f 187 188 197
f 188 198 197
f 188 189 198
f 189 199 198
f 189 190 199
f 190 200 199
f 190 191 200
f 191 201 200
f 191 192 201
f 192 202 201
f 192 193 202
f 193 203 202
f 193 194 203
f 194 204 203
f 194 185 204
f 185 195 204
f 205 206 215
f 206 216 215
f 206 207 216
f 207 217 216
f 207 208 217
f 208 218 217
f 208 209 218
f 209 219 218
f 209 210 219
f 210 220 219
f 210 211 220
f 211 221 220
f 211 212 221
f 212 222 221
f 212 213 222
f 213 223 222
f 213 214 223
f 214 224 223
f 214 205 224
f 205 215 224
f 225 226 235
f 226 236 235
f 226 227 236
f 227 237 236
f 227 228 237
f 228 238 237
f 228 229 238
f 229 239 238
f 229 230 239
f 230 240 239
f 230 231 240
f 231 241 240
f 231 232 241
f 232 242 241
f 232 233 242
f 233 243 242
f 233 234 243
f 234 244 243
f 234 225 244
f 225 235 244
f 245 246 255
f 246 256 255
f 246 247 256
f 247 257 256
f 247 248 257
f 248 258 257
f 248 249 258
f 249 259 258
f 249 250 259
f 250 260 259
f 250 251 260
f 251 261 260
f 251 252 261
f 252 262 261
f 252 253 262
f 253 263 262
f 253 254 263
f 254 264 263
f 254 245 264
f 245 255 264
f 265 266 275
f 266 276 275
f 266 267 276
f 267 277 276
f 267 268 277
f 268 278 277
f 268 269 278
f 269 279 278
f 269 270 279
f 270 280 279
f 270 271 280
f 271 281 280
f 271 272 281
f 272 282 281
f 272 273 282
f 273 283 282
f 273 274 283
f 274 284 283
f 274 265 284
f 265 275 284
f 285 286 295
f 286 296 295
f 286 287 296
f 287 297 296
f 287 288 297
f 288 298 297
f 288 289 298
f 289 299 298
f 289 290 299
f 290 300 299
f 290 291 300
f 291 301 300
f 291 292 301
f 292 302 301
f 292 293 302
f 293 303 302
f 293 294 303
f 294 304 303
f 294 285 304
f 285 295 304
f 305 306 315
f 306 316 315
f 306 307 316
f 307 317 316
f 307 308 317
f 308 318 317
f 308 309 318
f 309 319 318
f 309 310 319
f 310 320 319
f 310 311 320
f 311 321 320
f 311 312 321
f 312 322 321
f 312 313 322
f 313 323 322
f 313 314 323
f 314 324 323
f 314 305 324
f 305 315 324
f 325 326 335
f 326 336 335
f 326 327 336
f 327 337 336
f 327 328 337
f 328 338 337
f 328 329 338
f 329 339 338
f 329 330 339
f 330 340 339
f 330 331 340
f 331 341 340
f 331 332 341
f 332 342 341
f 332 333 342
f 333 343 342
f 333 334 343
f 334 344 343
f 334 325 344
f 325 335 344
f 345 346 355
f 346 356 355
f 346 347 356
f 347 357 356
f 347 348 357
f 348 358 357
f 348 349 358
f 349 359 358
f 349 350 359
f 350 360 359
f 350 351 360
f 351 361 360
f 351 352 361
f 352 362 361
f 352 353 362
f 353 363 362
f 353 354 363
f 354 364 363
f 354 345 364
f 345 355 364
f 365 366 375
f 366 376 375
f 366 367 376
f 367 377 376
f 367 368 377
f 368 378 377
f 368 369 378
f 369 379 378
f 369 370 379
f 370 380 379
f 370 371 380
f 371 381 380
f 371 372 381
f 372 382 381
f 372 373 382
f 373 383 382
f 373 374 383
f 374 384 383
f 374 365 384
f 365 375 384
