# Full-Body 3D Mesh - Frame 226
v 0.016283 -0.637680 -0.083932
v 0.050090 -0.637680 -0.088793
v 0.081159 -0.637680 -0.102982
v 0.106973 -0.637680 -0.125349
v 0.125438 -0.637680 -0.154083
v 0.135061 -0.637680 -0.186855
v 0.135061 -0.637680 -0.221010
v 0.125438 -0.637680 -0.253782
v 0.106973 -0.637680 -0.282516
v 0.081159 -0.637680 -0.304883
v 0.050090 -0.637680 -0.319072
v 0.016283 -0.637680 -0.323932
v 0.016283 -0.637680 -0.083932
v 0.044724 -0.619402 -0.088793
v 0.070860 -0.602605 -0.102982
v 0.092576 -0.588650 -0.125349
v 0.108110 -0.578666 -0.154083
v 0.116205 -0.573464 -0.186855
v 0.116205 -0.573464 -0.221010
v 0.108110 -0.578666 -0.253782
v 0.092576 -0.588650 -0.282516
v 0.070860 -0.602605 -0.304883
v 0.044724 -0.619402 -0.319072
v 0.016283 -0.637680 -0.323932
v 0.016283 -0.637680 -0.083932
v 0.030327 -0.606928 -0.088793
v 0.043233 -0.578666 -0.102982
v 0.053957 -0.555186 -0.125349
v 0.061628 -0.538389 -0.154083
v 0.065625 -0.529636 -0.186855
v 0.065625 -0.529636 -0.221010
v 0.061628 -0.538389 -0.253782
v 0.053957 -0.555186 -0.282516
v 0.043233 -0.578666 -0.304883
v 0.030327 -0.606928 -0.319072
v 0.016283 -0.637680 -0.323932
v 0.016283 -0.637680 -0.083932
v 0.011471 -0.604217 -0.088793
v 0.007050 -0.573464 -0.102982
v 0.003376 -0.547913 -0.125349
v 0.000748 -0.529636 -0.154083
v -0.000621 -0.520111 -0.186855
v -0.000621 -0.520111 -0.221010
v 0.000748 -0.529636 -0.253782
v 0.003376 -0.547913 -0.282516
v 0.007050 -0.573464 -0.304883
v 0.011471 -0.604217 -0.319072
v 0.016283 -0.637680 -0.323932
v 0.016283 -0.637680 -0.083932
v -0.005857 -0.612130 -0.088793
v -0.026203 -0.588650 -0.102982
v -0.043107 -0.569141 -0.125349
v -0.055199 -0.555186 -0.154083
v -0.061501 -0.547913 -0.186855
v -0.061501 -0.547913 -0.221010
v -0.055199 -0.555186 -0.253782
v -0.043107 -0.569141 -0.282516
v -0.026203 -0.588650 -0.304883
v -0.005857 -0.612130 -0.319072
v 0.016283 -0.637680 -0.323932
v 0.016283 -0.637680 -0.083932
v -0.016156 -0.628156 -0.088793
v -0.045966 -0.619402 -0.102982
v -0.070734 -0.612130 -0.125349
v -0.088452 -0.606928 -0.154083
v -0.097685 -0.604217 -0.186855
v -0.097685 -0.604217 -0.221010
v -0.088452 -0.606928 -0.253782
v -0.070734 -0.612130 -0.282516
v -0.045966 -0.619402 -0.304883
v -0.016156 -0.628156 -0.319072
v 0.016283 -0.637680 -0.323932
v 0.016283 -0.637680 -0.083932
v -0.016156 -0.647205 -0.088793
v -0.045966 -0.655958 -0.102982
v -0.070734 -0.663231 -0.125349
v -0.088452 -0.668433 -0.154083
v -0.097685 -0.671144 -0.186855
v -0.097685 -0.671144 -0.221010
v -0.088452 -0.668433 -0.253782
v -0.070734 -0.663231 -0.282516
v -0.045966 -0.655958 -0.304883
v -0.016156 -0.647205 -0.319072
v 0.016283 -0.637680 -0.323932
v 0.016283 -0.637680 -0.083932
v -0.005857 -0.663231 -0.088793
v -0.026203 -0.686711 -0.102982
v -0.043107 -0.706219 -0.125349
v -0.055199 -0.720175 -0.154083
v -0.061501 -0.727447 -0.186855
v -0.061501 -0.727447 -0.221010
v -0.055199 -0.720175 -0.253782
v -0.043107 -0.706219 -0.282516
v -0.026203 -0.686711 -0.304883
v -0.005857 -0.663231 -0.319072
v 0.016283 -0.637680 -0.323932
v 0.016283 -0.637680 -0.083932
v 0.011471 -0.671144 -0.088793
v 0.007050 -0.701897 -0.102982
v 0.003376 -0.727447 -0.125349
v 0.000748 -0.745725 -0.154083
v -0.000621 -0.755250 -0.186855
v -0.000621 -0.755250 -0.221010
v 0.000748 -0.745725 -0.253782
v 0.003376 -0.727447 -0.282516
v 0.007050 -0.701897 -0.304883
v 0.011471 -0.671144 -0.319072
v 0.016283 -0.637680 -0.323932
v 0.016283 -0.637680 -0.083932
v 0.030327 -0.668433 -0.088793
v 0.043233 -0.696694 -0.102982
v 0.053957 -0.720175 -0.125349
v 0.061628 -0.736972 -0.154083
v 0.065625 -0.745725 -0.186855
v 0.065625 -0.745725 -0.221010
v 0.061628 -0.736972 -0.253782
v 0.053957 -0.720175 -0.282516
v 0.043233 -0.696694 -0.304883
v 0.030327 -0.668433 -0.319072
v 0.016283 -0.637680 -0.323932
v 0.016283 -0.637680 -0.083932
v 0.044724 -0.655958 -0.088793
v 0.070860 -0.672755 -0.102982
v 0.092576 -0.686711 -0.125349
v 0.108110 -0.696694 -0.154083
v 0.116205 -0.701897 -0.186855
v 0.116205 -0.701897 -0.221010
v 0.108110 -0.696694 -0.253782
v 0.092576 -0.686711 -0.282516
v 0.070860 -0.672755 -0.304883
v 0.044724 -0.655958 -0.319072
v 0.016283 -0.637680 -0.323932
v 0.016283 -0.637680 -0.083932
v 0.050090 -0.637680 -0.088793
v 0.081159 -0.637680 -0.102982
v 0.106973 -0.637680 -0.125349
v 0.125438 -0.637680 -0.154083
v 0.135061 -0.637680 -0.186855
v 0.135061 -0.637680 -0.221010
v 0.125438 -0.637680 -0.253782
v 0.106973 -0.637680 -0.282516
v 0.081159 -0.637680 -0.304883
v 0.050090 -0.637680 -0.319072
v 0.016283 -0.637680 -0.323932
v 0.169740 -0.442092 -0.078496
v 0.169545 -0.465601 -0.070852
v 0.168356 -0.480131 -0.050886
v 0.166627 -0.480131 -0.026225
v 0.165020 -0.465601 -0.006289
v 0.164147 -0.442092 0.001308
v 0.164343 -0.418583 -0.006336
v 0.165532 -0.404054 -0.026302
v 0.167260 -0.404054 -0.050963
v 0.168868 -0.418583 -0.070899
v -0.158548 -0.446842 -0.101506
v -0.158743 -0.470351 -0.093861
v -0.159933 -0.484880 -0.073896
v -0.161661 -0.484880 -0.049235
v -0.163269 -0.470351 -0.029299
v -0.164141 -0.446842 -0.021702
v -0.163946 -0.423333 -0.029346
v -0.162756 -0.408804 -0.049312
v -0.161028 -0.408804 -0.073973
v -0.159420 -0.423333 -0.093909
v 0.166944 -0.444385 -0.078528
v 0.144061 -0.438556 -0.071211
v 0.129918 -0.434077 -0.051435
v 0.129918 -0.432660 -0.026754
v 0.144061 -0.434846 -0.006596
v 0.166944 -0.439800 0.001340
v 0.189827 -0.445629 -0.005977
v 0.203969 -0.450107 -0.025753
v 0.203969 -0.451524 -0.050433
v 0.189827 -0.449338 -0.070592
v 0.221983 -0.211546 -0.091896
v 0.199100 -0.205716 -0.084578
v 0.184958 -0.201238 -0.064803
v 0.184958 -0.199821 -0.040122
v 0.199100 -0.202007 -0.019963
v 0.221983 -0.206960 -0.012027
v 0.244866 -0.212789 -0.019344
v 0.259008 -0.217268 -0.039120
v 0.259008 -0.218685 -0.063801
v 0.244866 -0.216499 -0.083959
v 0.221983 -0.224677 -0.088868
v 0.198518 -0.220362 -0.082392
v 0.184016 -0.211804 -0.064292
v 0.184016 -0.202271 -0.041482
v 0.198518 -0.195405 -0.022676
v 0.221983 -0.193829 -0.015055
v 0.245447 -0.198144 -0.021531
v 0.259949 -0.206702 -0.039631
v 0.259949 -0.216234 -0.062440
v 0.245447 -0.223100 -0.081247
v 0.233591 -0.055307 -0.159652
v 0.210126 -0.050993 -0.153176
v 0.195624 -0.042434 -0.135076
v 0.195624 -0.032902 -0.112266
v 0.210126 -0.026036 -0.093460
v 0.233591 -0.024459 -0.085839
v 0.257055 -0.028774 -0.092315
v 0.271557 -0.037332 -0.110415
v 0.271557 -0.046865 -0.133224
v 0.257055 -0.053731 -0.152031
v -0.161344 -0.478870 -0.085566
v -0.179929 -0.481381 -0.069458
v -0.191415 -0.470698 -0.050350
v -0.191415 -0.450903 -0.035541
v -0.179929 -0.429557 -0.030687
v -0.161344 -0.414813 -0.037642
v -0.142760 -0.412303 -0.053749
v -0.131274 -0.422986 -0.072857
v -0.131274 -0.442780 -0.087666
v -0.142760 -0.464126 -0.092521
v -0.320247 -0.356029 -0.249761
v -0.338831 -0.358539 -0.233654
v -0.350317 -0.347857 -0.214546
v -0.350317 -0.328062 -0.199737
v -0.338831 -0.306716 -0.194882
v -0.320247 -0.291972 -0.201837
v -0.301662 -0.289462 -0.217945
v -0.290176 -0.300144 -0.237053
v -0.290176 -0.319939 -0.251862
v -0.301662 -0.341285 -0.256716
v -0.320247 -0.353596 -0.198890
v -0.341911 -0.354089 -0.210788
v -0.355300 -0.343090 -0.228421
v -0.355300 -0.324799 -0.245051
v -0.341911 -0.306203 -0.254329
v -0.320247 -0.294405 -0.252709
v -0.298583 -0.293911 -0.240810
v -0.285194 -0.304911 -0.223178
v -0.285194 -0.323202 -0.206547
v -0.298583 -0.341798 -0.197270
v -0.210066 -0.529368 -0.392207
v -0.231730 -0.529861 -0.404105
v -0.245119 -0.518862 -0.421738
v -0.245119 -0.500571 -0.438368
v -0.231730 -0.481975 -0.447646
v -0.210066 -0.470177 -0.446026
v -0.188402 -0.469683 -0.434127
v -0.175013 -0.480683 -0.416495
v -0.175013 -0.498973 -0.399864
v -0.188402 -0.517569 -0.390587
v 0.166944 -0.438485 -0.078431
v 0.143545 -0.441463 -0.071030
v 0.129084 -0.444682 -0.051240
v 0.129084 -0.446911 -0.026619
v 0.143545 -0.447300 -0.006572
v 0.166944 -0.445699 0.001243
v 0.190342 -0.442721 -0.006158
v 0.204804 -0.439503 -0.025948
v 0.204804 -0.437273 -0.050569
v 0.190342 -0.436885 -0.070615
v 0.122596 0.011088 -0.037724
v 0.099198 0.008109 -0.030323
v 0.084736 0.004891 -0.010532
v 0.084736 0.002662 0.014088
v 0.099198 0.002273 0.034135
v 0.122596 0.003873 0.041950
v 0.145995 0.006852 0.034549
v 0.160456 0.010070 0.014759
v 0.160456 0.012299 -0.009862
v 0.145995 0.012688 -0.029908
v -0.161344 -0.441078 -0.101186
v -0.184756 -0.440040 -0.093315
v -0.199226 -0.441600 -0.073331
v -0.199226 -0.445163 -0.048868
v -0.184756 -0.449367 -0.029269
v -0.161344 -0.452606 -0.022021
v -0.137933 -0.453644 -0.029892
v -0.123463 -0.452084 -0.049876
v -0.123463 -0.448521 -0.074339
v -0.137933 -0.444317 -0.093938
v -0.121409 -0.012995 -0.038846
v -0.144821 -0.011957 -0.030975
v -0.159290 -0.013517 -0.010991
v -0.159290 -0.017080 0.013472
v -0.144821 -0.021284 0.033071
v -0.121409 -0.024524 0.040319
v -0.097997 -0.025561 0.032448
v -0.083528 -0.024001 0.012465
v -0.083528 -0.020439 -0.011999
v -0.097997 -0.016235 -0.031598
v 0.122822 0.007481 -0.037886
v 0.125293 -0.015896 -0.030233
v 0.126734 -0.030344 -0.010224
v 0.126594 -0.030344 0.014497
v 0.124928 -0.015896 0.034488
v 0.122371 0.007481 0.042113
v 0.119900 0.030857 0.034459
v 0.118459 0.045305 0.014451
v 0.118599 0.045305 -0.010270
v 0.120265 0.030857 -0.030261
v -0.121183 -0.018759 -0.039263
v -0.118712 -0.042136 -0.031609
v -0.117272 -0.056583 -0.011601
v -0.117411 -0.056583 0.013120
v -0.119078 -0.042136 0.033111
v -0.121635 -0.018759 0.040736
v -0.124105 0.004617 0.033083
v -0.125546 0.019065 0.013074
v -0.125407 0.019065 -0.011647
v -0.123740 0.004617 -0.031638
v 0.122596 -0.000572 -0.037068
v 0.099130 -0.000464 -0.029291
v 0.084628 0.002678 -0.009519
v 0.084628 0.007655 0.014697
v 0.099130 0.012565 0.034105
v 0.122596 0.015533 0.041294
v 0.146062 0.015425 0.033518
v 0.160565 0.012283 0.013745
v 0.160565 0.007306 -0.010470
v 0.146062 0.002396 -0.029879
v 0.111998 0.166293 -0.071362
v 0.088532 0.166401 -0.063585
v 0.074029 0.169543 -0.043813
v 0.074029 0.174520 -0.019598
v 0.088532 0.179430 -0.000189
v 0.111998 0.182398 0.007000
v 0.135464 0.182290 -0.000777
v 0.149967 0.179148 -0.020549
v 0.149967 0.174171 -0.044764
v 0.135464 0.169261 -0.064173
v 0.111998 0.192071 -0.068039
v 0.088657 0.191220 -0.059938
v 0.074232 0.183923 -0.041235
v 0.074232 0.172967 -0.019074
v 0.088657 0.162539 -0.001919
v 0.111998 0.156619 0.003677
v 0.135339 0.157471 -0.004424
v 0.149764 0.164768 -0.023127
v 0.149764 0.175723 -0.045288
v 0.135339 0.186152 -0.062443
v 0.154004 0.503047 0.085689
v 0.130663 0.502195 0.093790
v 0.116238 0.494898 0.112493
v 0.116238 0.483943 0.134654
v 0.130663 0.473514 0.151809
v 0.154004 0.467595 0.157405
v 0.177345 0.468447 0.149304
v 0.191770 0.475744 0.130601
v 0.191770 0.486699 0.108440
v 0.177345 0.497128 0.091285
v -0.121409 -0.058746 0.001765
v -0.144878 -0.051145 0.000159
v -0.159383 -0.031174 -0.001226
v -0.159383 -0.006461 -0.001862
v -0.144878 0.013554 -0.001504
v -0.121409 0.021228 -0.000291
v -0.097940 0.013627 0.001315
v -0.083435 -0.006344 0.002700
v -0.083435 -0.031057 0.003335
v -0.097940 -0.051073 0.002978
v -0.107901 -0.064524 -0.222984
v -0.131371 -0.056923 -0.224590
v -0.145875 -0.036952 -0.225975
v -0.145875 -0.012239 -0.226610
v -0.131371 0.007777 -0.226253
v -0.107901 0.015450 -0.225040
v -0.084432 0.007849 -0.223434
v -0.069928 -0.012122 -0.222049
v -0.069928 -0.036835 -0.221414
v -0.084432 -0.056851 -0.221771
v -0.107901 -0.035753 -0.262407
v -0.131081 -0.029830 -0.256179
v -0.145406 -0.021886 -0.237664
v -0.145406 -0.014954 -0.213934
v -0.131081 -0.011683 -0.194054
v -0.107901 -0.013321 -0.185617
v -0.084722 -0.019244 -0.191845
v -0.070397 -0.027188 -0.210360
v -0.070397 -0.034119 -0.234090
v -0.084722 -0.037391 -0.253970
v -0.057224 0.250548 -0.346038
v -0.080403 0.256471 -0.339809
v -0.094729 0.264415 -0.321294
v -0.094729 0.271347 -0.297564
v -0.080403 0.274618 -0.277684
v -0.057224 0.272980 -0.269247
v -0.034045 0.267057 -0.275475
v -0.019719 0.259113 -0.293991
v -0.019719 0.252181 -0.317720
v -0.034045 0.248910 -0.337601
v -0.020763 0.086662 0.039991
v -0.026361 0.080559 0.035824
v -0.029820 0.077932 0.027634
v -0.029820 0.079783 0.018551
v -0.026361 0.085406 0.012042
v -0.020763 0.092653 0.010596
v -0.015166 0.098756 0.014763
v -0.011707 0.101383 0.022953
v -0.011707 0.099532 0.032036
v -0.015166 0.093909 0.038545
v 0.008677 0.062959 0.035161
v 0.003079 0.056856 0.030993
v -0.000380 0.054228 0.022804
v -0.000380 0.056080 0.013720
v 0.003079 0.061703 0.007212
v 0.008677 0.068950 0.005765
v 0.014274 0.075052 0.009932
v 0.017733 0.077680 0.018122
v 0.017733 0.075829 0.027206
v 0.014274 0.070206 0.033714
v 0.008677 0.060157 0.034297
v 0.001853 0.056115 0.029497
v -0.002365 0.055831 0.021246
v -0.002365 0.059414 0.012696
v 0.001853 0.065496 0.007113
v 0.008677 0.071752 0.006628
v 0.015501 0.075794 0.011428
v 0.019718 0.076077 0.019679
v 0.019718 0.072494 0.028229
v 0.015501 0.066413 0.033813
v 0.028726 0.037555 0.024825
v 0.021902 0.033513 0.020026
v 0.017684 0.033230 0.011775
v 0.017684 0.036813 0.003225
v 0.021902 0.042894 -0.002359
v 0.028726 0.049150 -0.002843
v 0.035550 0.053192 0.001957
v 0.039767 0.053476 0.010208
v 0.039767 0.049893 0.018758
v 0.035550 0.043812 0.024341
v 0.028726 0.034448 0.023062
v 0.020242 0.034217 0.019332
v 0.014999 0.037475 0.012415
v 0.014999 0.042979 0.004955
v 0.020242 0.048625 -0.000199
v 0.028726 0.052258 -0.001080
v 0.037209 0.052489 0.002651
v 0.042453 0.049230 0.009567
v 0.042453 0.043727 0.017027
v 0.037209 0.038081 0.022182
v 0.038215 0.007463 0.003155
v 0.029731 0.007232 -0.000576
v 0.024488 0.010490 -0.007492
v 0.024488 0.015994 -0.014952
v 0.029731 0.021640 -0.020107
v 0.038215 0.025273 -0.020987
v 0.046698 0.025504 -0.017256
v 0.051942 0.022245 -0.010340
v 0.051942 0.016742 -0.002880
v 0.046698 0.011096 0.002275
v 0.038215 0.007962 0.003508
v 0.029455 0.008738 0.000574
v 0.024041 0.012428 -0.005985
v 0.024041 0.017623 -0.013663
v 0.029455 0.022338 -0.019528
v 0.038215 0.024773 -0.021340
v 0.046974 0.023998 -0.018406
v 0.052388 0.020308 -0.011847
v 0.052388 0.015113 -0.004168
v 0.046974 0.010398 0.001697
v 0.041700 -0.017276 -0.013567
v 0.032940 -0.016501 -0.016501
v 0.027526 -0.012811 -0.023060
v 0.027526 -0.007616 -0.030739
v 0.032940 -0.002901 -0.036604
v 0.041700 -0.000466 -0.038415
v 0.050459 -0.001241 -0.035481
v 0.055873 -0.004931 -0.028922
v 0.055873 -0.010126 -0.021244
v 0.050459 -0.014841 -0.015379
v -0.020763 0.087773 0.040175
v -0.028911 0.084791 0.036909
v -0.033947 0.083668 0.029207
v -0.033947 0.084832 0.020010
v -0.028911 0.087840 0.012831
v -0.020763 0.091542 0.010412
v -0.012616 0.094524 0.013678
v -0.007580 0.095648 0.021380
v -0.007580 0.094483 0.030577
v -0.012616 0.091475 0.037756
v 0.018448 -0.006310 0.028260
v 0.010300 -0.009292 0.024994
v 0.005264 -0.010415 0.017292
v 0.005264 -0.009251 0.008095
v 0.010300 -0.006243 0.000916
v 0.018448 -0.002541 -0.001503
v 0.026596 0.000441 0.001763
v 0.031631 0.001565 0.009465
v 0.031631 0.000400 0.018662
v 0.026596 -0.002608 0.025841
v 0.018448 -0.008875 0.027704
v 0.009805 -0.009690 0.024451
v 0.004464 -0.008494 0.016969
v 0.004464 -0.005744 0.008115
v 0.009805 -0.002491 0.001272
v 0.018448 0.000024 -0.000946
v 0.027091 0.000839 0.002307
v 0.032432 -0.000356 0.009789
v 0.032432 -0.003106 0.018642
v 0.027091 -0.006360 0.025485
v 0.024196 -0.036086 0.019252
v 0.015553 -0.036901 0.015999
v 0.010212 -0.035706 0.008517
v 0.010212 -0.032956 -0.000336
v 0.015553 -0.029702 -0.007179
v 0.024196 -0.027188 -0.009398
v 0.032839 -0.026372 -0.006145
v 0.038180 -0.027568 0.001337
v 0.038180 -0.030318 0.010190
v 0.032839 -0.033571 0.017033
v 0.024196 -0.034160 0.019713
v 0.015399 -0.034267 0.016789
v 0.009963 -0.033370 0.009333
v 0.009963 -0.031811 0.000195
v 0.015399 -0.030185 -0.007136
v 0.024196 -0.029114 -0.009859
v 0.032992 -0.029006 -0.006935
v 0.038429 -0.029904 0.000520
v 0.038429 -0.031463 0.009659
v 0.032992 -0.033089 0.016990
v 0.025739 -0.056551 0.015892
v 0.016943 -0.056658 0.012968
v 0.011506 -0.055761 0.005513
v 0.011506 -0.054201 -0.003626
v 0.016943 -0.052576 -0.010957
v 0.025739 -0.051504 -0.013680
v 0.034536 -0.051397 -0.010756
v 0.039972 -0.052294 -0.003300
v 0.039972 -0.053854 0.005838
v 0.034536 -0.055480 0.013169
v 0.025739 -0.065322 0.010977
v 0.017024 -0.062289 0.010094
v 0.011637 -0.056100 0.005779
v 0.011637 -0.049120 -0.000322
v 0.017024 -0.044014 -0.005877
v 0.025739 -0.042733 -0.008765
v 0.034455 -0.045766 -0.007882
v 0.039842 -0.051955 -0.003566
v 0.039842 -0.058936 0.002534
v 0.034455 -0.064041 0.008089
v 0.021390 -0.084056 -0.010460
v 0.012674 -0.081023 -0.011342
v 0.007288 -0.074834 -0.015658
v 0.007288 -0.067854 -0.021758
v 0.012674 -0.062748 -0.027313
v 0.021390 -0.061467 -0.030201
v 0.030106 -0.064500 -0.029319
v 0.035492 -0.070689 -0.025003
v 0.035492 -0.077670 -0.018902
v 0.030106 -0.082775 -0.013347
v -0.020763 0.086711 0.040001
v -0.029369 0.085393 0.036815
v -0.034688 0.085704 0.029229
v -0.034688 0.087526 0.020139
v -0.029369 0.090161 0.013018
v -0.020763 0.092605 0.010586
v -0.012158 0.093922 0.013772
v -0.006839 0.093611 0.021358
v -0.006839 0.091790 0.030448
v -0.012158 0.089154 0.037569
v 0.000934 -0.008747 0.020874
v -0.007672 -0.010065 0.017689
v -0.012991 -0.009754 0.010102
v -0.012991 -0.007932 0.001012
v -0.007672 -0.005297 -0.006109
v 0.000934 -0.002853 -0.008541
v 0.009539 -0.001536 -0.005355
v 0.014858 -0.001847 0.002231
v 0.014858 -0.003668 0.011321
v 0.009539 -0.006304 0.018442
v 0.000934 -0.009396 0.020729
v -0.007722 -0.010339 0.017546
v -0.013071 -0.009548 0.010016
v -0.013071 -0.007326 0.001015
v -0.007722 -0.004521 -0.006017
v 0.000934 -0.002205 -0.008396
v 0.009589 -0.001262 -0.005212
v 0.014939 -0.002052 0.002318
v 0.014939 -0.004274 0.011318
v 0.009589 -0.007079 0.018351
v 0.008433 -0.046936 0.011461
v -0.000223 -0.047879 0.008278
v -0.005572 -0.047088 0.000748
v -0.005572 -0.044866 -0.008253
v -0.000223 -0.042061 -0.015285
v 0.008433 -0.039745 -0.017664
v 0.017088 -0.038802 -0.014481
v 0.022438 -0.039592 -0.006951
v 0.022438 -0.041814 0.002050
v 0.017088 -0.044619 0.009082
v 0.008433 -0.050260 0.010207
v -0.000384 -0.048976 0.007646
v -0.005833 -0.045539 0.000980
v -0.005833 -0.041262 -0.007245
v -0.000384 -0.037779 -0.013888
v 0.008433 -0.036420 -0.016410
v 0.017250 -0.037705 -0.013849
v 0.022699 -0.041142 -0.007183
v 0.022699 -0.045419 0.001042
v 0.017250 -0.048902 0.007685
v 0.008554 -0.072910 -0.001570
v -0.000262 -0.071626 -0.004131
v -0.005711 -0.068189 -0.010798
v -0.005711 -0.063912 -0.019023
v -0.000262 -0.060429 -0.025665
v 0.008554 -0.059070 -0.028187
v 0.017371 -0.060355 -0.025626
v 0.022820 -0.063792 -0.018960
v 0.022820 -0.068068 -0.010735
v 0.017371 -0.071551 -0.004093
v 0.008554 -0.072202 -0.001225
v -0.000216 -0.071835 -0.004206
v -0.005637 -0.069237 -0.011263
v -0.005637 -0.065398 -0.019702
v -0.000216 -0.061785 -0.026298
v 0.008554 -0.059779 -0.028532
v 0.017325 -0.060145 -0.025552
v 0.022746 -0.062744 -0.018494
v 0.022746 -0.066583 -0.010056
v 0.017325 -0.070195 -0.003460
v 0.011670 -0.099809 -0.013785
v 0.002899 -0.099443 -0.016765
v -0.002521 -0.096844 -0.023823
v -0.002521 -0.093005 -0.032261
v 0.002899 -0.089392 -0.038857
v 0.011670 -0.087386 -0.041092
v 0.020440 -0.087752 -0.038111
v 0.025861 -0.090351 -0.031054
v 0.025861 -0.094190 -0.022615
v 0.020440 -0.097803 -0.016019
v -0.020763 0.084285 0.039298
v -0.029563 0.084795 0.036426
v -0.035001 0.087163 0.029301
v -0.035001 0.090484 0.020646
v -0.029563 0.093489 0.013766
v -0.020763 0.095030 0.011289
v -0.011964 0.094520 0.014161
v -0.006526 0.092152 0.021286
v -0.006526 0.088831 0.029941
v -0.011964 0.085826 0.036821
v -0.014757 -0.005084 0.005013
v -0.023557 -0.004574 0.002140
v -0.028995 -0.002206 -0.004984
v -0.028995 0.001114 -0.013640
v -0.023557 0.004119 -0.020520
v -0.014757 0.005661 -0.022997
v -0.005958 0.005150 -0.020124
v -0.000520 0.002783 -0.013000
v -0.000520 -0.000538 -0.004344
v -0.005958 -0.003543 0.002536
v -0.014757 -0.004120 0.005345
v -0.023320 -0.005288 0.001989
v -0.028612 -0.004325 -0.005561
v -0.028612 -0.001600 -0.014422
v -0.023320 0.001846 -0.021209
v -0.014757 0.004697 -0.023330
v -0.006195 0.005864 -0.019973
v -0.000903 0.004902 -0.012423
v -0.000903 0.002177 -0.003562
v -0.006195 -0.001269 0.003225
v -0.007531 -0.032256 -0.003306
v -0.016093 -0.033423 -0.006662
v -0.021385 -0.032460 -0.014212
v -0.021385 -0.029736 -0.023074
v -0.016093 -0.026289 -0.029860
v -0.007531 -0.023438 -0.031981
v 0.001032 -0.022271 -0.028625
v 0.006323 -0.023233 -0.021074
v 0.006323 -0.025958 -0.012213
v 0.001032 -0.029404 -0.005426
v -0.007531 -0.031809 -0.003176
v -0.016176 -0.032725 -0.006397
v -0.021518 -0.031777 -0.013914
v -0.021518 -0.029329 -0.022855
v -0.016176 -0.026314 -0.029806
v -0.007531 -0.023885 -0.032111
v 0.001114 -0.022969 -0.028890
v 0.006456 -0.023916 -0.021373
v 0.006456 -0.026365 -0.012432
v 0.001114 -0.029380 -0.005481
v -0.002850 -0.054315 -0.009340
v -0.011494 -0.055231 -0.012561
v -0.016837 -0.054283 -0.020077
v -0.016837 -0.051835 -0.029019
v -0.011494 -0.048820 -0.035969
v -0.002850 -0.046391 -0.038274
v 0.005795 -0.045475 -0.035053
v 0.011137 -0.046422 -0.027536
v 0.011137 -0.048871 -0.018595
v 0.005795 -0.051886 -0.011645
v -0.002850 -0.056542 -0.010143
v -0.011515 -0.056843 -0.013425
v -0.016870 -0.054665 -0.020672
v -0.016870 -0.050840 -0.029116
v -0.011515 -0.046829 -0.035533
v -0.002850 -0.044164 -0.037471
v 0.005815 -0.043863 -0.034189
v 0.011171 -0.046041 -0.026942
v 0.011171 -0.049866 -0.018498
v 0.005815 -0.053877 -0.012081
v 0.002460 -0.082280 -0.021801
v -0.006206 -0.082581 -0.025083
v -0.011561 -0.080403 -0.032330
v -0.011561 -0.076578 -0.040774
v -0.006206 -0.072567 -0.047191
v 0.002460 -0.069902 -0.049129
v 0.011125 -0.069601 -0.045847
v 0.016480 -0.071778 -0.038600
v 0.016480 -0.075604 -0.030156
v 0.011125 -0.079615 -0.023739
v -0.020763 0.081675 0.037993
v -0.029554 0.083776 0.035930
v -0.034987 0.088124 0.029804
v -0.034987 0.093057 0.021956
v -0.029554 0.096692 0.015382
v -0.020763 0.097640 0.012594
v -0.011973 0.095539 0.014657
v -0.006540 0.091191 0.020783
v -0.006540 0.086258 0.028631
v -0.011973 0.082623 0.035205
v -0.027221 0.011112 -0.006361
v -0.036012 0.013213 -0.008424
v -0.041445 0.017561 -0.014549
v -0.041445 0.022494 -0.022398
v -0.036012 0.026129 -0.028972
v -0.027221 0.027077 -0.031760
v -0.018431 0.024976 -0.029697
v -0.012998 0.020628 -0.023571
v -0.012998 0.015694 -0.015722
v -0.018431 0.012060 -0.009149
v -0.027221 0.015757 -0.004436
v -0.036036 0.016209 -0.007271
v -0.041484 0.017764 -0.014610
v -0.041484 0.019826 -0.023648
v -0.036036 0.021609 -0.030934
v -0.027221 0.022431 -0.033684
v -0.018407 0.021979 -0.030849
v -0.012959 0.020425 -0.023511
v -0.012959 0.018362 -0.014473
v -0.018407 0.016579 -0.007187
v -0.026692 -0.008192 -0.009901
v -0.035507 -0.007739 -0.012736
v -0.040955 -0.006185 -0.020075
v -0.040955 -0.004123 -0.029113
v -0.035507 -0.002340 -0.036399
v -0.026692 -0.001517 -0.039149
v -0.017878 -0.001970 -0.036314
v -0.012430 -0.003524 -0.028976
v -0.012430 -0.005586 -0.019938
v -0.017878 -0.007369 -0.012652
v -0.026692 -0.009628 -0.010305
v -0.035489 -0.009277 -0.013209
v -0.040926 -0.007236 -0.020435
v -0.040926 -0.004286 -0.029224
v -0.035489 -0.001553 -0.036218
v -0.026692 -0.000081 -0.038745
v -0.017895 -0.000432 -0.035842
v -0.012459 -0.002473 -0.028615
v -0.012459 -0.005423 -0.019827
v -0.017895 -0.008156 -0.012833
v -0.025153 -0.031348 -0.017596
v -0.033950 -0.030996 -0.020500
v -0.039387 -0.028956 -0.027727
v -0.039387 -0.026006 -0.036515
v -0.033950 -0.023272 -0.043509
v -0.025153 -0.021800 -0.046037
v -0.016356 -0.022152 -0.043133
v -0.010919 -0.024192 -0.035906
v -0.010919 -0.027143 -0.027118
v -0.016356 -0.029876 -0.020124
v -0.025153 -0.034449 -0.019050
v -0.033963 -0.032650 -0.021306
v -0.039408 -0.028530 -0.027577
v -0.039408 -0.023663 -0.035467
v -0.033963 -0.019908 -0.041963
v -0.025153 -0.018699 -0.044583
v -0.016343 -0.020499 -0.042327
v -0.010898 -0.024618 -0.036056
v -0.010898 -0.029485 -0.028166
v -0.016343 -0.033240 -0.021670
v -0.026064 -0.054133 -0.031191
v -0.034874 -0.052334 -0.033447
v -0.040319 -0.048214 -0.039718
v -0.040319 -0.043347 -0.047609
v -0.034874 -0.039592 -0.054104
v -0.026064 -0.038384 -0.056725
v -0.017254 -0.040183 -0.054469
v -0.011809 -0.044303 -0.048198
v -0.011809 -0.049169 -0.040308
v -0.017254 -0.052924 -0.033812
f 1 2 13
f 2 14 13
f 2 3 14
f 3 15 14
f 3 4 15
f 4 16 15
f 4 5 16
f 5 17 16
f 5 6 17
f 6 18 17
f 6 7 18
f 7 19 18
f 7 8 19
f 8 20 19
f 8 9 20
f 9 21 20
f 9 10 21
f 10 22 21
f 10 11 22
f 11 23 22
f 11 12 23
f 12 24 23
f 13 14 25
f 14 26 25
f 14 15 26
f 15 27 26
f 15 16 27
f 16 28 27
f 16 17 28
f 17 29 28
f 17 18 29
f 18 30 29
f 18 19 30
f 19 31 30
f 19 20 31
f 20 32 31
f 20 21 32
f 21 33 32
f 21 22 33
f 22 34 33
f 22 23 34
f 23 35 34
f 23 24 35
f 24 36 35
f 25 26 37
f 26 38 37
f 26 27 38
f 27 39 38
f 27 28 39
f 28 40 39
f 28 29 40
f 29 41 40
f 29 30 41
f 30 42 41
f 30 31 42
f 31 43 42
f 31 32 43
f 32 44 43
f 32 33 44
f 33 45 44
f 33 34 45
f 34 46 45
f 34 35 46
f 35 47 46
f 35 36 47
f 36 48 47
f 37 38 49
f 38 50 49
f 38 39 50
f 39 51 50
f 39 40 51
f 40 52 51
f 40 41 52
f 41 53 52
f 41 42 53
f 42 54 53
f 42 43 54
f 43 55 54
f 43 44 55
f 44 56 55
f 44 45 56
f 45 57 56
f 45 46 57
f 46 58 57
f 46 47 58
f 47 59 58
f 47 48 59
f 48 60 59
f 49 50 61
f 50 62 61
f 50 51 62
f 51 63 62
f 51 52 63
f 52 64 63
f 52 53 64
f 53 65 64
f 53 54 65
f 54 66 65
f 54 55 66
f 55 67 66
f 55 56 67
f 56 68 67
f 56 57 68
f 57 69 68
f 57 58 69
f 58 70 69
f 58 59 70
f 59 71 70
f 59 60 71
f 60 72 71
f 61 62 73
f 62 74 73
f 62 63 74
f 63 75 74
f 63 64 75
f 64 76 75
f 64 65 76
f 65 77 76
f 65 66 77
f 66 78 77
f 66 67 78
f 67 79 78
f 67 68 79
f 68 80 79
f 68 69 80
f 69 81 80
f 69 70 81
f 70 82 81
f 70 71 82
f 71 83 82
f 71 72 83
f 72 84 83
f 73 74 85
f 74 86 85
f 74 75 86
f 75 87 86
f 75 76 87
f 76 88 87
f 76 77 88
f 77 89 88
f 77 78 89
f 78 90 89
f 78 79 90
f 79 91 90
f 79 80 91
f 80 92 91
f 80 81 92
f 81 93 92
f 81 82 93
f 82 94 93
f 82 83 94
f 83 95 94
f 83 84 95
f 84 96 95
f 85 86 97
f 86 98 97
f 86 87 98
f 87 99 98
f 87 88 99
f 88 100 99
f 88 89 100
f 89 101 100
f 89 90 101
f 90 102 101
f 90 91 102
f 91 103 102
f 91 92 103
f 92 104 103
f 92 93 104
f 93 105 104
f 93 94 105
f 94 106 105
f 94 95 106
f 95 107 106
f 95 96 107
f 96 108 107
f 97 98 109
f 98 110 109
f 98 99 110
f 99 111 110
f 99 100 111
f 100 112 111
f 100 101 112
f 101 113 112
f 101 102 113
f 102 114 113
f 102 103 114
f 103 115 114
f 103 104 115
f 104 116 115
f 104 105 116
f 105 117 116
f 105 106 117
f 106 118 117
f 106 107 118
f 107 119 118
f 107 108 119
f 108 120 119
f 109 110 121
f 110 122 121
f 110 111 122
f 111 123 122
f 111 112 123
f 112 124 123
f 112 113 124
f 113 125 124
f 113 114 125
f 114 126 125
f 114 115 126
f 115 127 126
f 115 116 127
f 116 128 127
f 116 117 128
f 117 129 128
f 117 118 129
f 118 130 129
f 118 119 130
f 119 131 130
f 119 120 131
f 120 132 131
f 121 122 133
f 122 134 133
f 122 123 134
f 123 135 134
f 123 124 135
f 124 136 135
f 124 125 136
f 125 137 136
f 125 126 137
f 126 138 137
f 126 127 138
f 127 139 138
f 127 128 139
f 128 140 139
f 128 129 140
f 129 141 140
f 129 130 141
f 130 142 141
f 130 131 142
f 131 143 142
f 131 132 143
f 132 144 143
f 145 146 155
f 146 156 155
f 146 147 156
f 147 157 156
f 147 148 157
f 148 158 157
f 148 149 158
f 149 159 158
f 149 150 159
f 150 160 159
f 150 151 160
f 151 161 160
f 151 152 161
f 152 162 161
f 152 153 162
f 153 163 162
f 153 154 163
f 154 164 163
f 154 145 164
f 145 155 164
f 165 166 175
f 166 176 175
f 166 167 176
f 167 177 176
f 167 168 177
f 168 178 177
f 168 169 178
f 169 179 178
f 169 170 179
f 170 180 179
f 170 171 180
f 171 181 180
f 171 172 181
f 172 182 181
f 172 173 182
f 173 183 182
f 173 174 183
f 174 184 183
f 174 165 184
f 165 175 184
f 185 186 195
f 186 196 195
f 186 187 196
f 187 197 196
f 187 188 197
f 188 198 197
f 188 189 198
f 189 199 198
f 189 190 199
f 190 200 199
f 190 191 200
f 191 201 200
f 191 192 201
f 192 202 201
f 192 193 202
f 193 203 202
f 193 194 203
f 194 204 203
f 194 185 204
f 185 195 204
f 205 206 215
f 206 216 215
f 206 207 216
f 207 217 216
f 207 208 217
f 208 218 217
f 208 209 218
f 209 219 218
f 209 210 219
f 210 220 219
f 210 211 220
f 211 221 220
f 211 212 221
f 212 222 221
f 212 213 222
f 213 223 222
f 213 214 223
f 214 224 223
f 214 205 224
f 205 215 224
f 225 226 235
f 226 236 235
f 226 227 236
f 227 237 236
f 227 228 237
f 228 238 237
f 228 229 238
f 229 239 238
f 229 230 239
f 230 240 239
f 230 231 240
f 231 241 240
f 231 232 241
f 232 242 241
f 232 233 242
f 233 243 242
f 233 234 243
f 234 244 243
f 234 225 244
f 225 235 244
f 245 246 255
f 246 256 255
f 246 247 256
f 247 257 256
f 247 248 257
f 248 258 257
f 248 249 258
f 249 259 258
f 249 250 259
f 250 260 259
f 250 251 260
f 251 261 260
f 251 252 261
f 252 262 261
f 252 253 262
f 253 263 262
f 253 254 263
f 254 264 263
f 254 245 264
f 245 255 264
f 265 266 275
f 266 276 275
f 266 267 276
f 267 277 276
f 267 268 277
f 268 278 277
f 268 269 278
f 269 279 278
f 269 270 279
f 270 280 279
f 270 271 280
f 271 281 280
f 271 272 281
f 272 282 281
f 272 273 282
f 273 283 282
f 273 274 283
f 274 284 283
f 274 265 284
f 265 275 284
f 285 286 295
f 286 296 295
f 286 287 296
f 287 297 296
f 287 288 297
f 288 298 297
f 288 289 298
f 289 299 298
f 289 290 299
f 290 300 299
f 290 291 300
f 291 301 300
f 291 292 301
f 292 302 301
f 292 293 302
f 293 303 302
f 293 294 303
f 294 304 303
f 294 285 304
f 285 295 304
f 305 306 315
f 306 316 315
f 306 307 316
f 307 317 316
f 307 308 317
f 308 318 317
f 308 309 318
f 309 319 318
f 309 310 319
f 310 320 319
f 310 311 320
f 311 321 320
f 311 312 321
f 312 322 321
f 312 313 322
f 313 323 322
f 313 314 323
f 314 324 323
f 314 305 324
f 305 315 324
f 325 326 335
f 326 336 335
f 326 327 336
f 327 337 336
f 327 328 337
f 328 338 337
f 328 329 338
f 329 339 338
f 329 330 339
f 330 340 339
f 330 331 340
f 331 341 340
f 331 332 341
f 332 342 341
f 332 333 342
f 333 343 342
f 333 334 343
f 334 344 343
f 334 325 344
f 325 335 344
f 345 346 355
f 346 356 355
f 346 347 356
f 347 357 356
f 347 348 357
f 348 358 357
f 348 349 358
f 349 359 358
f 349 350 359
f 350 360 359
f 350 351 360
f 351 361 360
f 351 352 361
f 352 362 361
f 352 353 362
f 353 363 362
f 353 354 363
f 354 364 363
f 354 345 364
f 345 355 364
f 365 366 375
f 366 376 375
f 366 367 376
f 367 377 376
f 367 368 377
f 368 378 377
f 368 369 378
f 369 379 378
f 369 370 379
f 370 380 379
f 370 371 380
f 371 381 380
f 371 372 381
f 372 382 381
f 372 373 382
f 373 383 382
f 373 374 383
f 374 384 383
f 374 365 384
f 365 375 384
f 385 386 395
f 386 396 395
f 386 387 396
f 387 397 396
f 387 388 397
f 388 398 397
f 388 389 398
f 389 399 398
f 389 390 399
f 390 400 399
f 390 391 400
f 391 401 400
f 391 392 401
f 392 402 401
f 392 393 402
f 393 403 402
f 393 394 403
f 394 404 403
f 394 385 404
f 385 395 404
f 405 406 415
f 406 416 415
f 406 407 416
f 407 417 416
f 407 408 417
f 408 418 417
f 408 409 418
f 409 419 418
f 409 410 419
f 410 420 419
f 410 411 420
f 411 421 420
f 411 412 421
f 412 422 421
f 412 413 422
f 413 423 422
f 413 414 423
f 414 424 423
f 414 405 424
f 405 415 424
f 425 426 435
f 426 436 435
f 426 427 436
f 427 437 436
f 427 428 437
f 428 438 437
f 428 429 438
f 429 439 438
f 429 430 439
f 430 440 439
f 430 431 440
f 431 441 440
f 431 432 441
f 432 442 441
f 432 433 442
f 433 443 442
f 433 434 443
f 434 444 443
f 434 425 444
f 425 435 444
f 445 446 455
f 446 456 455
f 446 447 456
f 447 457 456
f 447 448 457
f 448 458 457
f 448 449 458
f 449 459 458
f 449 450 459
f 450 460 459
f 450 451 460
f 451 461 460
f 451 452 461
f 452 462 461
f 452 453 462
f 453 463 462
f 453 454 463
f 454 464 463
f 454 445 464
f 445 455 464
f 465 466 475
f 466 476 475
f 466 467 476
f 467 477 476
f 467 468 477
f 468 478 477
f 468 469 478
f 469 479 478
f 469 470 479
f 470 480 479
f 470 471 480
f 471 481 480
f 471 472 481
f 472 482 481
f 472 473 482
f 473 483 482
f 473 474 483
f 474 484 483
f 474 465 484
f 465 475 484
f 485 486 495
f 486 496 495
f 486 487 496
f 487 497 496
f 487 488 497
f 488 498 497
f 488 489 498
f 489 499 498
f 489 490 499
f 490 500 499
f 490 491 500
f 491 501 500
f 491 492 501
f 492 502 501
f 492 493 502
f 493 503 502
f 493 494 503
f 494 504 503
f 494 485 504
f 485 495 504
f 505 506 515
f 506 516 515
f 506 507 516
f 507 517 516
f 507 508 517
f 508 518 517
f 508 509 518
f 509 519 518
f 509 510 519
f 510 520 519
f 510 511 520
f 511 521 520
f 511 512 521
f 512 522 521
f 512 513 522
f 513 523 522
f 513 514 523
f 514 524 523
f 514 505 524
f 505 515 524
f 525 526 535
f 526 536 535
f 526 527 536
f 527 537 536
f 527 528 537
f 528 538 537
f 528 529 538
f 529 539 538
f 529 530 539
f 530 540 539
f 530 531 540
f 531 541 540
f 531 532 541
f 532 542 541
f 532 533 542
f 533 543 542
f 533 534 543
f 534 544 543
f 534 525 544
f 525 535 544
f 545 546 555
f 546 556 555
f 546 547 556
f 547 557 556
f 547 548 557
f 548 558 557
f 548 549 558
f 549 559 558
f 549 550 559
f 550 560 559
f 550 551 560
f 551 561 560
f 551 552 561
f 552 562 561
f 552 553 562
f 553 563 562
f 553 554 563
f 554 564 563
f 554 545 564
f 545 555 564
f 565 566 575
f 566 576 575
f 566 567 576
f 567 577 576
f 567 568 577
f 568 578 577
f 568 569 578
f 569 579 578
f 569 570 579
f 570 580 579
f 570 571 580
f 571 581 580
f 571 572 581
f 572 582 581
f 572 573 582
f 573 583 582
f 573 574 583
f 574 584 583
f 574 565 584
f 565 575 584
f 585 586 595
f 586 596 595
f 586 587 596
f 587 597 596
f 587 588 597
f 588 598 597
f 588 589 598
f 589 599 598
f 589 590 599
f 590 600 599
f 590 591 600
f 591 601 600
f 591 592 601
f 592 602 601
f 592 593 602
f 593 603 602
f 593 594 603
f 594 604 603
f 594 585 604
f 585 595 604
f 605 606 615
f 606 616 615
f 606 607 616
f 607 617 616
f 607 608 617
f 608 618 617
f 608 609 618
f 609 619 618
f 609 610 619
f 610 620 619
f 610 611 620
f 611 621 620
f 611 612 621
f 612 622 621
f 612 613 622
f 613 623 622
f 613 614 623
f 614 624 623
f 614 605 624
f 605 615 624
f 625 626 635
f 626 636 635
f 626 627 636
f 627 637 636
f 627 628 637
f 628 638 637
f 628 629 638
f 629 639 638
f 629 630 639
f 630 640 639
f 630 631 640
f 631 641 640
f 631 632 641
f 632 642 641
f 632 633 642
f 633 643 642
f 633 634 643
f 634 644 643
f 634 625 644
f 625 635 644
f 645 646 655
f 646 656 655
f 646 647 656
f 647 657 656
f 647 648 657
f 648 658 657
f 648 649 658
f 649 659 658
f 649 650 659
f 650 660 659
f 650 651 660
f 651 661 660
f 651 652 661
f 652 662 661
f 652 653 662
f 653 663 662
f 653 654 663
f 654 664 663
f 654 645 664
f 645 655 664
f 665 666 675
f 666 676 675
f 666 667 676
f 667 677 676
f 667 668 677
f 668 678 677
f 668 669 678
f 669 679 678
f 669 670 679
f 670 680 679
f 670 671 680
f 671 681 680
f 671 672 681
f 672 682 681
f 672 673 682
f 673 683 682
f 673 674 683
f 674 684 683
f 674 665 684
f 665 675 684
f 685 686 695
f 686 696 695
f 686 687 696
f 687 697 696
f 687 688 697
f 688 698 697
f 688 689 698
f 689 699 698
f 689 690 699
f 690 700 699
f 690 691 700
f 691 701 700
f 691 692 701
f 692 702 701
f 692 693 702
f 693 703 702
f 693 694 703
f 694 704 703
f 694 685 704
f 685 695 704
f 705 706 715
f 706 716 715
f 706 707 716
f 707 717 716
f 707 708 717
f 708 718 717
f 708 709 718
f 709 719 718
f 709 710 719
f 710 720 719
f 710 711 720
f 711 721 720
f 711 712 721
f 712 722 721
f 712 713 722
f 713 723 722
f 713 714 723
f 714 724 723
f 714 705 724
f 705 715 724
f 725 726 735
f 726 736 735
f 726 727 736
f 727 737 736
f 727 728 737
f 728 738 737
f 728 729 738
f 729 739 738
f 729 730 739
f 730 740 739
f 730 731 740
f 731 741 740
f 731 732 741
f 732 742 741
f 732 733 742
f 733 743 742
f 733 734 743
f 734 744 743
f 734 725 744
f 725 735 744
f 745 746 755
f 746 756 755
f 746 747 756
f 747 757 756
f 747 748 757
f 748 758 757
f 748 749 758
f 749 759 758
f 749 750 759
f 750 760 759
f 750 751 760
f 751 761 760
f 751 752 761
f 752 762 761
f 752 753 762
f 753 763 762
f 753 754 763
f 754 764 763
f 754 745 764
f 745 755 764
f 765 766 775
f 766 776 775
f 766 767 776
f 767 777 776
f 767 768 777
f 768 778 777
f 768 769 778
f 769 779 778
f 769 770 779
f 770 780 779
f 770 771 780
f 771 781 780
f 771 772 781
f 772 782 781
f 772 773 782
f 773 783 782
f 773 774 783
f 774 784 783
f 774 765 784
f 765 775 784
