# Full-Body 3D Mesh - Frame 86
v -0.005222 -0.645512 -0.143949
v 0.028586 -0.645512 -0.148810
v 0.059655 -0.645512 -0.162999
v 0.085468 -0.645512 -0.185366
v 0.103934 -0.645512 -0.214099
v 0.113557 -0.645512 -0.246871
v 0.113557 -0.645512 -0.281027
v 0.103934 -0.645512 -0.313799
v 0.085468 -0.645512 -0.342532
v 0.059655 -0.645512 -0.364900
v 0.028586 -0.645512 -0.379088
v -0.005222 -0.645512 -0.383949
v -0.005222 -0.645512 -0.143949
v 0.023219 -0.627234 -0.148810
v 0.049356 -0.610437 -0.162999
v 0.071071 -0.596481 -0.185366
v 0.086606 -0.586498 -0.214099
v 0.094701 -0.581295 -0.246871
v 0.094701 -0.581295 -0.281027
v 0.086606 -0.586498 -0.313799
v 0.071071 -0.596481 -0.342532
v 0.049356 -0.610437 -0.364900
v 0.023219 -0.627234 -0.379088
v -0.005222 -0.645512 -0.383949
v -0.005222 -0.645512 -0.143949
v 0.008822 -0.614759 -0.148810
v 0.021729 -0.586498 -0.162999
v 0.032452 -0.563017 -0.185366
v 0.040123 -0.546220 -0.214099
v 0.044120 -0.537467 -0.246871
v 0.044120 -0.537467 -0.281027
v 0.040123 -0.546220 -0.313799
v 0.032452 -0.563017 -0.342532
v 0.021729 -0.586498 -0.364900
v 0.008822 -0.614759 -0.379088
v -0.005222 -0.645512 -0.383949
v -0.005222 -0.645512 -0.143949
v -0.010033 -0.612048 -0.148810
v -0.014455 -0.581295 -0.162999
v -0.018129 -0.555745 -0.185366
v -0.020757 -0.537467 -0.214099
v -0.022126 -0.527942 -0.246871
v -0.022126 -0.527942 -0.281027
v -0.020757 -0.537467 -0.313799
v -0.018129 -0.555745 -0.342532
v -0.014455 -0.581295 -0.364900
v -0.010033 -0.612048 -0.379088
v -0.005222 -0.645512 -0.383949
v -0.005222 -0.645512 -0.143949
v -0.027362 -0.619962 -0.148810
v -0.047707 -0.596481 -0.162999
v -0.064611 -0.576973 -0.185366
v -0.076704 -0.563017 -0.214099
v -0.083005 -0.555745 -0.246871
v -0.083005 -0.555745 -0.281027
v -0.076704 -0.563017 -0.313799
v -0.064611 -0.576973 -0.342532
v -0.047707 -0.596481 -0.364900
v -0.027362 -0.619962 -0.379088
v -0.005222 -0.645512 -0.383949
v -0.005222 -0.645512 -0.143949
v -0.037660 -0.635987 -0.148810
v -0.067471 -0.627234 -0.162999
v -0.092238 -0.619962 -0.185366
v -0.109956 -0.614759 -0.214099
v -0.119189 -0.612048 -0.246871
v -0.119189 -0.612048 -0.281027
v -0.109956 -0.614759 -0.313799
v -0.092238 -0.619962 -0.342532
v -0.067471 -0.627234 -0.364900
v -0.037660 -0.635987 -0.379088
v -0.005222 -0.645512 -0.383949
v -0.005222 -0.645512 -0.143949
v -0.037660 -0.655037 -0.148810
v -0.067471 -0.663790 -0.162999
v -0.092238 -0.671062 -0.185366
v -0.109956 -0.676265 -0.214099
v -0.119189 -0.678976 -0.246871
v -0.119189 -0.678976 -0.281027
v -0.109956 -0.676265 -0.313799
v -0.092238 -0.671062 -0.342532
v -0.067471 -0.663790 -0.364900
v -0.037660 -0.655037 -0.379088
v -0.005222 -0.645512 -0.383949
v -0.005222 -0.645512 -0.143949
v -0.027362 -0.671062 -0.148810
v -0.047707 -0.694542 -0.162999
v -0.064611 -0.714051 -0.185366
v -0.076704 -0.728006 -0.214099
v -0.083005 -0.735279 -0.246871
v -0.083005 -0.735279 -0.281027
v -0.076704 -0.728006 -0.313799
v -0.064611 -0.714051 -0.342532
v -0.047707 -0.694542 -0.364900
v -0.027362 -0.671062 -0.379088
v -0.005222 -0.645512 -0.383949
v -0.005222 -0.645512 -0.143949
v -0.010033 -0.678976 -0.148810
v -0.014455 -0.709728 -0.162999
v -0.018129 -0.735279 -0.185366
v -0.020757 -0.753557 -0.214099
v -0.022126 -0.763081 -0.246871
v -0.022126 -0.763081 -0.281027
v -0.020757 -0.753557 -0.313799
v -0.018129 -0.735279 -0.342532
v -0.014455 -0.709728 -0.364900
v -0.010033 -0.678976 -0.379088
v -0.005222 -0.645512 -0.383949
v -0.005222 -0.645512 -0.143949
v 0.008822 -0.676265 -0.148810
v 0.021729 -0.704526 -0.162999
v 0.032452 -0.728006 -0.185366
v 0.040123 -0.744803 -0.214099
v 0.044120 -0.753557 -0.246871
v 0.044120 -0.753557 -0.281027
v 0.040123 -0.744803 -0.313799
v 0.032452 -0.728006 -0.342532
v 0.021729 -0.704526 -0.364900
v 0.008822 -0.676265 -0.379088
v -0.005222 -0.645512 -0.383949
v -0.005222 -0.645512 -0.143949
v 0.023219 -0.663790 -0.148810
v 0.049356 -0.680587 -0.162999
v 0.071071 -0.694542 -0.185366
v 0.086606 -0.704526 -0.214099
v 0.094701 -0.709728 -0.246871
v 0.094701 -0.709728 -0.281027
v 0.086606 -0.704526 -0.313799
v 0.071071 -0.694542 -0.342532
v 0.049356 -0.680587 -0.364900
v 0.023219 -0.663790 -0.379088
v -0.005222 -0.645512 -0.383949
v -0.005222 -0.645512 -0.143949
v 0.028586 -0.645512 -0.148810
v 0.059655 -0.645512 -0.162999
v 0.085468 -0.645512 -0.185366
v 0.103934 -0.645512 -0.214099
v 0.113557 -0.645512 -0.246871
v 0.113557 -0.645512 -0.281027
v 0.103934 -0.645512 -0.313799
v 0.085468 -0.645512 -0.342532
v 0.059655 -0.645512 -0.364900
v 0.028586 -0.645512 -0.379088
v -0.005222 -0.645512 -0.383949
v 0.161805 -0.453284 -0.110029
v 0.159574 -0.476755 -0.102592
v 0.156496 -0.491260 -0.082811
v 0.153745 -0.491260 -0.058243
v 0.152374 -0.476755 -0.038272
v 0.152905 -0.453284 -0.030526
v 0.155136 -0.429814 -0.037963
v 0.158215 -0.415309 -0.057743
v 0.160965 -0.415309 -0.082311
v 0.162337 -0.429814 -0.102282
v -0.174699 -0.433234 -0.147700
v -0.176931 -0.456704 -0.140263
v -0.180009 -0.471209 -0.120483
v -0.182760 -0.471209 -0.095915
v -0.184131 -0.456704 -0.075943
v -0.183600 -0.433234 -0.068197
v -0.181369 -0.409763 -0.075634
v -0.178290 -0.395258 -0.095414
v -0.175540 -0.395258 -0.119982
v -0.174168 -0.409763 -0.139954
v 0.157355 -0.451980 -0.110256
v 0.134142 -0.448500 -0.102499
v 0.119795 -0.446848 -0.082434
v 0.119795 -0.447654 -0.057726
v 0.134142 -0.450610 -0.037812
v 0.157355 -0.454589 -0.030298
v 0.180569 -0.458068 -0.038055
v 0.194915 -0.459721 -0.058120
v 0.194915 -0.458915 -0.082828
v 0.180569 -0.455958 -0.102742
v 0.194361 -0.221859 -0.102749
v 0.171147 -0.218379 -0.094992
v 0.156801 -0.216727 -0.074927
v 0.156801 -0.217533 -0.050219
v 0.171147 -0.220489 -0.030305
v 0.194361 -0.224468 -0.022791
v 0.217574 -0.227947 -0.030548
v 0.231921 -0.229600 -0.050613
v 0.231921 -0.228794 -0.075321
v 0.217574 -0.225837 -0.095235
v 0.194361 -0.244310 -0.096723
v 0.170878 -0.239297 -0.090845
v 0.156364 -0.228121 -0.074244
v 0.156364 -0.215052 -0.053260
v 0.170878 -0.205081 -0.035908
v 0.194361 -0.202017 -0.028817
v 0.217844 -0.207030 -0.034694
v 0.232358 -0.218205 -0.051296
v 0.232358 -0.231275 -0.072280
v 0.217844 -0.241246 -0.089632
v 0.203934 -0.078081 -0.200254
v 0.180450 -0.073068 -0.194377
v 0.165937 -0.061892 -0.177775
v 0.165937 -0.048823 -0.156791
v 0.180450 -0.038852 -0.139439
v 0.203934 -0.035787 -0.132348
v 0.227417 -0.040801 -0.138226
v 0.241930 -0.051976 -0.154827
v 0.241930 -0.065046 -0.175811
v 0.227417 -0.075017 -0.193163
v -0.179150 -0.441794 -0.147022
v -0.202454 -0.443203 -0.138893
v -0.216856 -0.440804 -0.118944
v -0.216856 -0.435514 -0.094795
v -0.202454 -0.429352 -0.075671
v -0.179150 -0.424673 -0.068875
v -0.155846 -0.423264 -0.077005
v -0.141443 -0.425663 -0.096953
v -0.141443 -0.430954 -0.121102
v -0.155846 -0.437115 -0.140226
v -0.214356 -0.184614 -0.203367
v -0.237660 -0.186023 -0.195238
v -0.252063 -0.183624 -0.175289
v -0.252063 -0.178333 -0.151140
v -0.237660 -0.172172 -0.132016
v -0.214356 -0.167493 -0.125220
v -0.191052 -0.166084 -0.133350
v -0.176650 -0.168483 -0.153298
v -0.176650 -0.173773 -0.177447
v -0.191052 -0.179935 -0.196572
v -0.214356 -0.212448 -0.147699
v -0.237860 -0.205747 -0.151414
v -0.252386 -0.187703 -0.160049
v -0.252386 -0.165209 -0.170305
v -0.237860 -0.146858 -0.178265
v -0.214356 -0.139658 -0.180889
v -0.190852 -0.146360 -0.177173
v -0.176326 -0.164404 -0.168539
v -0.176326 -0.186897 -0.158282
v -0.190852 -0.205249 -0.150322
v -0.208235 -0.311936 -0.365889
v -0.231739 -0.305234 -0.369605
v -0.246265 -0.287191 -0.378240
v -0.246265 -0.264697 -0.388496
v -0.231739 -0.246346 -0.396456
v -0.208235 -0.239146 -0.399080
v -0.184731 -0.245848 -0.395364
v -0.170205 -0.263892 -0.386729
v -0.170205 -0.286385 -0.376473
v -0.184731 -0.304737 -0.368513
v 0.157355 -0.446626 -0.109719
v 0.133889 -0.449341 -0.102430
v 0.119387 -0.453562 -0.082860
v 0.119387 -0.457677 -0.058483
v 0.133889 -0.460114 -0.038612
v 0.157355 -0.459942 -0.030835
v 0.180821 -0.457227 -0.038124
v 0.195324 -0.453006 -0.057695
v 0.195324 -0.448891 -0.082071
v 0.180821 -0.446454 -0.101943
v 0.128564 0.008425 -0.032903
v 0.105098 0.005710 -0.025614
v 0.090596 0.001489 -0.006044
v 0.090596 -0.002626 0.018333
v 0.105098 -0.005063 0.038204
v 0.128564 -0.004891 0.045981
v 0.152030 -0.002176 0.038692
v 0.166533 0.002045 0.019121
v 0.166533 0.006160 -0.005255
v 0.152030 0.008597 -0.025127
v -0.179150 -0.423741 -0.146806
v -0.202499 -0.422881 -0.138732
v -0.216930 -0.425975 -0.118900
v -0.216930 -0.431842 -0.094884
v -0.202499 -0.438241 -0.075859
v -0.179150 -0.442727 -0.069091
v -0.155800 -0.443587 -0.077165
v -0.141369 -0.440492 -0.096998
v -0.141369 -0.434625 -0.121013
v -0.155800 -0.428227 -0.140038
v -0.128642 -0.007372 -0.045085
v -0.151991 -0.006512 -0.037011
v -0.166422 -0.009606 -0.017179
v -0.166422 -0.015473 0.006836
v -0.151991 -0.021872 0.025861
v -0.128642 -0.026358 0.032629
v -0.105292 -0.027218 0.024555
v -0.090861 -0.024123 0.004723
v -0.090861 -0.018256 -0.019292
v -0.105292 -0.011858 -0.038317
v 0.130547 0.001767 -0.033412
v 0.131863 -0.021683 -0.025698
v 0.131919 -0.036176 -0.005671
v 0.130693 -0.036176 0.019020
v 0.128654 -0.021683 0.038944
v 0.126581 0.001767 0.046490
v 0.125265 0.025217 0.038775
v 0.125210 0.039710 0.018748
v 0.126435 0.039710 -0.005943
v 0.128474 0.025217 -0.025866
v -0.126659 -0.016865 -0.046179
v -0.125343 -0.040315 -0.038465
v -0.125287 -0.054808 -0.018437
v -0.126512 -0.054808 0.006254
v -0.128551 -0.040315 0.026177
v -0.130625 -0.016865 0.033723
v -0.131940 0.006585 0.026009
v -0.131996 0.021078 0.005981
v -0.130771 0.021078 -0.018710
v -0.128732 0.006585 -0.038633
v 0.128564 -0.018330 -0.028046
v 0.105122 -0.012934 -0.022346
v 0.090634 -0.001922 -0.005613
v 0.090634 0.010498 0.015761
v 0.105122 0.019583 0.033613
v 0.128564 0.021863 0.041124
v 0.152006 0.016467 0.035424
v 0.166494 0.005456 0.018691
v 0.166494 -0.006964 -0.002684
v 0.152006 -0.016050 -0.020536
v 0.137820 0.085791 -0.088549
v 0.114378 0.091187 -0.082849
v 0.099890 0.102198 -0.066116
v 0.099890 0.114618 -0.044741
v 0.114378 0.123704 -0.026889
v 0.137820 0.125984 -0.019379
v 0.161263 0.120588 -0.025078
v 0.175751 0.109577 -0.041811
v 0.175751 0.097156 -0.063186
v 0.161263 0.088071 -0.081038
v 0.137820 0.126665 -0.088144
v 0.114422 0.124664 -0.080420
v 0.099961 0.115491 -0.062591
v 0.099961 0.102649 -0.041467
v 0.114422 0.091045 -0.025116
v 0.137820 0.085109 -0.019784
v 0.161219 0.087111 -0.027507
v 0.175680 0.096284 -0.045336
v 0.175680 0.109126 -0.066460
v 0.161219 0.120730 -0.082811
v 0.167656 0.385830 0.069402
v 0.144258 0.383828 0.077126
v 0.129797 0.374655 0.094955
v 0.129797 0.361813 0.116079
v 0.144258 0.350209 0.132430
v 0.167656 0.344274 0.137762
v 0.191055 0.346275 0.130039
v 0.205516 0.355448 0.112210
v 0.205516 0.368290 0.091085
v 0.191055 0.379895 0.074734
v -0.128642 -0.054728 0.006670
v -0.152016 -0.048313 0.001810
v -0.166463 -0.029886 -0.006120
v -0.166463 -0.006485 -0.014092
v -0.152016 0.012951 -0.019060
v -0.128642 0.020998 -0.019126
v -0.105267 0.014584 -0.014266
v -0.090820 -0.003843 -0.006336
v -0.090820 -0.027244 0.001636
v -0.105267 -0.046680 0.006604
v -0.103840 -0.128565 -0.210077
v -0.127214 -0.122150 -0.214937
v -0.141661 -0.103723 -0.222867
v -0.141661 -0.080322 -0.230839
v -0.127214 -0.060886 -0.235807
v -0.103840 -0.052838 -0.235874
v -0.080465 -0.059253 -0.231014
v -0.066018 -0.077680 -0.223083
v -0.066018 -0.101081 -0.215112
v -0.080465 -0.120517 -0.210144
v -0.103840 -0.091947 -0.262956
v -0.127331 -0.090739 -0.255351
v -0.141849 -0.089516 -0.235379
v -0.141849 -0.088747 -0.210670
v -0.127331 -0.088724 -0.190661
v -0.103840 -0.089456 -0.182995
v -0.080348 -0.090664 -0.190600
v -0.065830 -0.091886 -0.210572
v -0.065830 -0.092656 -0.235281
v -0.080348 -0.092679 -0.255290
v -0.090428 0.232468 -0.273060
v -0.113919 0.233676 -0.265455
v -0.128438 0.234898 -0.245483
v -0.128438 0.235668 -0.220774
v -0.113919 0.235691 -0.200765
v -0.090428 0.234959 -0.193099
v -0.066937 0.233751 -0.200704
v -0.052418 0.232528 -0.220676
v -0.052418 0.231759 -0.245385
v -0.066937 0.231736 -0.265394
f 1 2 13
f 2 14 13
f 2 3 14
f 3 15 14
f 3 4 15
f 4 16 15
f 4 5 16
f 5 17 16
f 5 6 17
f 6 18 17
f 6 7 18
f 7 19 18
f 7 8 19
f 8 20 19
f 8 9 20
f 9 21 20
f 9 10 21
f 10 22 21
f 10 11 22
f 11 23 22
f 11 12 23
f 12 24 23
f 13 14 25
f 14 26 25
f 14 15 26
f 15 27 26
f 15 16 27
f 16 28 27
f 16 17 28
f 17 29 28
f 17 18 29
f 18 30 29
f 18 19 30
f 19 31 30
f 19 20 31
f 20 32 31
f 20 21 32
f 21 33 32
f 21 22 33
f 22 34 33
f 22 23 34
f 23 35 34
f 23 24 35
f 24 36 35
f 25 26 37
f 26 38 37
f 26 27 38
f 27 39 38
f 27 28 39
f 28 40 39
f 28 29 40
f 29 41 40
f 29 30 41
f 30 42 41
f 30 31 42
f 31 43 42
f 31 32 43
f 32 44 43
f 32 33 44
f 33 45 44
f 33 34 45
f 34 46 45
f 34 35 46
f 35 47 46
f 35 36 47
f 36 48 47
f 37 38 49
f 38 50 49
f 38 39 50
f 39 51 50
f 39 40 51
f 40 52 51
f 40 41 52
f 41 53 52
f 41 42 53
f 42 54 53
f 42 43 54
f 43 55 54
f 43 44 55
f 44 56 55
f 44 45 56
f 45 57 56
f 45 46 57
f 46 58 57
f 46 47 58
f 47 59 58
f 47 48 59
f 48 60 59
f 49 50 61
f 50 62 61
f 50 51 62
f 51 63 62
f 51 52 63
f 52 64 63
f 52 53 64
f 53 65 64
f 53 54 65
f 54 66 65
f 54 55 66
f 55 67 66
f 55 56 67
f 56 68 67
f 56 57 68
f 57 69 68
f 57 58 69
f 58 70 69
f 58 59 70
f 59 71 70
f 59 60 71
f 60 72 71
f 61 62 73
f 62 74 73
f 62 63 74
f 63 75 74
f 63 64 75
f 64 76 75
f 64 65 76
f 65 77 76
f 65 66 77
f 66 78 77
f 66 67 78
f 67 79 78
f 67 68 79
f 68 80 79
f 68 69 80
f 69 81 80
f 69 70 81
f 70 82 81
f 70 71 82
f 71 83 82
f 71 72 83
f 72 84 83
f 73 74 85
f 74 86 85
f 74 75 86
f 75 87 86
f 75 76 87
f 76 88 87
f 76 77 88
f 77 89 88
f 77 78 89
f 78 90 89
f 78 79 90
f 79 91 90
f 79 80 91
f 80 92 91
f 80 81 92
f 81 93 92
f 81 82 93
f 82 94 93
f 82 83 94
f 83 95 94
f 83 84 95
f 84 96 95
f 85 86 97
f 86 98 97
f 86 87 98
f 87 99 98
f 87 88 99
f 88 100 99
f 88 89 100
f 89 101 100
f 89 90 101
f 90 102 101
f 90 91 102
f 91 103 102
f 91 92 103
f 92 104 103
f 92 93 104
f 93 105 104
f 93 94 105
f 94 106 105
f 94 95 106
f 95 107 106
f 95 96 107
f 96 108 107
f 97 98 109
f 98 110 109
f 98 99 110
f 99 111 110
f 99 100 111
f 100 112 111
f 100 101 112
f 101 113 112
f 101 102 113
f 102 114 113
f 102 103 114
f 103 115 114
f 103 104 115
f 104 116 115
f 104 105 116
f 105 117 116
f 105 106 117
f 106 118 117
f 106 107 118
f 107 119 118
f 107 108 119
f 108 120 119
f 109 110 121
f 110 122 121
f 110 111 122
f 111 123 122
f 111 112 123
f 112 124 123
f 112 113 124
f 113 125 124
f 113 114 125
f 114 126 125
f 114 115 126
f 115 127 126
f 115 116 127
f 116 128 127
f 116 117 128
f 117 129 128
f 117 118 129
f 118 130 129
f 118 119 130
f 119 131 130
f 119 120 131
f 120 132 131
f 121 122 133
f 122 134 133
f 122 123 134
f 123 135 134
f 123 124 135
f 124 136 135
f 124 125 136
f 125 137 136
f 125 126 137
f 126 138 137
f 126 127 138
f 127 139 138
f 127 128 139
f 128 140 139
f 128 129 140
f 129 141 140
f 129 130 141
f 130 142 141
f 130 131 142
f 131 143 142
f 131 132 143
f 132 144 143
f 145 146 155
f 146 156 155
f 146 147 156
f 147 157 156
f 147 148 157
f 148 158 157
f 148 149 158
f 149 159 158
f 149 150 159
f 150 160 159
f 150 151 160
f 151 161 160
f 151 152 161
f 152 162 161
f 152 153 162
f 153 163 162
f 153 154 163
f 154 164 163
f 154 145 164
f 145 155 164
f 165 166 175
f 166 176 175
f 166 167 176
f 167 177 176
f 167 168 177
f 168 178 177
f 168 169 178
f 169 179 178
f 169 170 179
f 170 180 179
f 170 171 180
f 171 181 180
f 171 172 181
f 172 182 181
f 172 173 182
f 173 183 182
f 173 174 183
f 174 184 183
f 174 165 184
f 165 175 184
f 185 186 195
f 186 196 195
f 186 187 196
f 187 197 196
f 187 188 197
f 188 198 197
f 188 189 198
f 189 199 198
f 189 190 199
f 190 200 199
f 190 191 200
f 191 201 200
f 191 192 201
f 192 202 201
f 192 193 202
f 193 203 202
f 193 194 203
f 194 204 203
f 194 185 204
f 185 195 204
f 205 206 215
f 206 216 215
f 206 207 216
f 207 217 216
f 207 208 217
f 208 218 217
f 208 209 218
f 209 219 218
f 209 210 219
f 210 220 219
f 210 211 220
f 211 221 220
f 211 212 221
f 212 222 221
f 212 213 222
f 213 223 222
f 213 214 223
f 214 224 223
f 214 205 224
f 205 215 224
f 225 226 235
f 226 236 235
f 226 227 236
f 227 237 236
f 227 228 237
f 228 238 237
f 228 229 238
f 229 239 238
f 229 230 239
f 230 240 239
f 230 231 240
f 231 241 240
f 231 232 241
f 232 242 241
f 232 233 242
f 233 243 242
f 233 234 243
f 234 244 243
f 234 225 244
f 225 235 244
f 245 246 255
f 246 256 255
f 246 247 256
f 247 257 256
f 247 248 257
f 248 258 257
f 248 249 258
f 249 259 258
f 249 250 259
f 250 260 259
f 250 251 260
f 251 261 260
f 251 252 261
f 252 262 261
f 252 253 262
f 253 263 262
f 253 254 263
f 254 264 263
f 254 245 264
f 245 255 264
f 265 266 275
f 266 276 275
f 266 267 276
f 267 277 276
f 267 268 277
f 268 278 277
f 268 269 278
f 269 279 278
f 269 270 279
f 270 280 279
f 270 271 280
f 271 281 280
f 271 272 281
f 272 282 281
f 272 273 282
f 273 283 282
f 273 274 283
f 274 284 283
f 274 265 284
f 265 275 284
f 285 286 295
f 286 296 295
f 286 287 296
f 287 297 296
f 287 288 297
f 288 298 297
f 288 289 298
f 289 299 298
f 289 290 299
f 290 300 299
f 290 291 300
f 291 301 300
f 291 292 301
f 292 302 301
f 292 293 302
f 293 303 302
f 293 294 303
f 294 304 303
f 294 285 304
f 285 295 304
f 305 306 315
f 306 316 315
f 306 307 316
f 307 317 316
f 307 308 317
f 308 318 317
f 308 309 318
f 309 319 318
f 309 310 319
f 310 320 319
f 310 311 320
f 311 321 320
f 311 312 321
f 312 322 321
f 312 313 322
f 313 323 322
f 313 314 323
f 314 324 323
f 314 305 324
f 305 315 324
f 325 326 335
f 326 336 335
f 326 327 336
f 327 337 336
f 327 328 337
f 328 338 337
f 328 329 338
f 329 339 338
f 329 330 339
f 330 340 339
f 330 331 340
f 331 341 340
f 331 332 341
f 332 342 341
f 332 333 342
f 333 343 342
f 333 334 343
f 334 344 343
f 334 325 344
f 325 335 344
f 345 346 355
f 346 356 355
f 346 347 356
f 347 357 356
f 347 348 357
f 348 358 357
f 348 349 358
f 349 359 358
f 349 350 359
f 350 360 359
f 350 351 360
f 351 361 360
f 351 352 361
f 352 362 361
f 352 353 362
f 353 363 362
f 353 354 363
f 354 364 363
f 354 345 364
f 345 355 364
f 365 366 375
f 366 376 375
f 366 367 376
f 367 377 376
f 367 368 377
f 368 378 377
f 368 369 378
f 369 379 378
f 369 370 379
f 370 380 379
f 370 371 380
f 371 381 380
f 371 372 381
f 372 382 381
f 372 373 382
f 373 383 382
f 373 374 383
f 374 384 383
f 374 365 384
f 365 375 384
