# Full-Body 3D Mesh - Frame 155
v 0.029954 -0.615780 -0.157963
v 0.063762 -0.615780 -0.162824
v 0.094831 -0.615780 -0.177013
v 0.120644 -0.615780 -0.199380
v 0.139110 -0.615780 -0.228113
v 0.148733 -0.615780 -0.260885
v 0.148733 -0.615780 -0.295041
v 0.139110 -0.615780 -0.327813
v 0.120644 -0.615780 -0.356546
v 0.094831 -0.615780 -0.378913
v 0.063762 -0.615780 -0.393102
v 0.029954 -0.615780 -0.397963
v 0.029954 -0.615780 -0.157963
v 0.058395 -0.597502 -0.162824
v 0.084532 -0.580704 -0.177013
v 0.106247 -0.566749 -0.199380
v 0.121782 -0.556765 -0.228113
v 0.129877 -0.551563 -0.260885
v 0.129877 -0.551563 -0.295041
v 0.121782 -0.556765 -0.327813
v 0.106247 -0.566749 -0.356546
v 0.084532 -0.580704 -0.378913
v 0.058395 -0.597502 -0.393102
v 0.029954 -0.615780 -0.397963
v 0.029954 -0.615780 -0.157963
v 0.043998 -0.585027 -0.162824
v 0.056905 -0.556765 -0.177013
v 0.067628 -0.533285 -0.199380
v 0.075299 -0.516488 -0.228113
v 0.079296 -0.507735 -0.260885
v 0.079296 -0.507735 -0.295041
v 0.075299 -0.516488 -0.327813
v 0.067628 -0.533285 -0.356546
v 0.056905 -0.556765 -0.378913
v 0.043998 -0.585027 -0.393102
v 0.029954 -0.615780 -0.397963
v 0.029954 -0.615780 -0.157963
v 0.025143 -0.582316 -0.162824
v 0.020721 -0.551563 -0.177013
v 0.017047 -0.526013 -0.199380
v 0.014419 -0.507735 -0.228113
v 0.013050 -0.498210 -0.260885
v 0.013050 -0.498210 -0.295041
v 0.014419 -0.507735 -0.327813
v 0.017047 -0.526013 -0.356546
v 0.020721 -0.551563 -0.378913
v 0.025143 -0.582316 -0.393102
v 0.029954 -0.615780 -0.397963
v 0.029954 -0.615780 -0.157963
v 0.007815 -0.590229 -0.162824
v -0.012531 -0.566749 -0.177013
v -0.029435 -0.547241 -0.199380
v -0.041528 -0.533285 -0.228113
v -0.047829 -0.526013 -0.260885
v -0.047829 -0.526013 -0.295041
v -0.041528 -0.533285 -0.327813
v -0.029435 -0.547241 -0.356546
v -0.012531 -0.566749 -0.378913
v 0.007815 -0.590229 -0.393102
v 0.029954 -0.615780 -0.397963
v 0.029954 -0.615780 -0.157963
v -0.002484 -0.606255 -0.162824
v -0.032295 -0.597502 -0.177013
v -0.057062 -0.590229 -0.199380
v -0.074780 -0.585027 -0.228113
v -0.084013 -0.582316 -0.260885
v -0.084013 -0.582316 -0.295041
v -0.074780 -0.585027 -0.327813
v -0.057062 -0.590229 -0.356546
v -0.032295 -0.597502 -0.378913
v -0.002484 -0.606255 -0.393102
v 0.029954 -0.615780 -0.397963
v 0.029954 -0.615780 -0.157963
v -0.002484 -0.625304 -0.162824
v -0.032295 -0.634058 -0.177013
v -0.057062 -0.641330 -0.199380
v -0.074780 -0.646532 -0.228113
v -0.084013 -0.649243 -0.260885
v -0.084013 -0.649243 -0.295041
v -0.074780 -0.646532 -0.327813
v -0.057062 -0.641330 -0.356546
v -0.032295 -0.634058 -0.378913
v -0.002484 -0.625304 -0.393102
v 0.029954 -0.615780 -0.397963
v 0.029954 -0.615780 -0.157963
v 0.007815 -0.641330 -0.162824
v -0.012531 -0.664810 -0.177013
v -0.029435 -0.684318 -0.199380
v -0.041528 -0.698274 -0.228113
v -0.047829 -0.705546 -0.260885
v -0.047829 -0.705546 -0.295041
v -0.041528 -0.698274 -0.327813
v -0.029435 -0.684318 -0.356546
v -0.012531 -0.664810 -0.378913
v 0.007815 -0.641330 -0.393102
v 0.029954 -0.615780 -0.397963
v 0.029954 -0.615780 -0.157963
v 0.025143 -0.649243 -0.162824
v 0.020721 -0.679996 -0.177013
v 0.017047 -0.705546 -0.199380
v 0.014419 -0.723824 -0.228113
v 0.013050 -0.733349 -0.260885
v 0.013050 -0.733349 -0.295041
v 0.014419 -0.723824 -0.327813
v 0.017047 -0.705546 -0.356546
v 0.020721 -0.679996 -0.378913
v 0.025143 -0.649243 -0.393102
v 0.029954 -0.615780 -0.397963
v 0.029954 -0.615780 -0.157963
v 0.043998 -0.646532 -0.162824
v 0.056905 -0.674794 -0.177013
v 0.067628 -0.698274 -0.199380
v 0.075299 -0.715071 -0.228113
v 0.079296 -0.723824 -0.260885
v 0.079296 -0.723824 -0.295041
v 0.075299 -0.715071 -0.327813
v 0.067628 -0.698274 -0.356546
v 0.056905 -0.674794 -0.378913
v 0.043998 -0.646532 -0.393102
v 0.029954 -0.615780 -0.397963
v 0.029954 -0.615780 -0.157963
v 0.058395 -0.634058 -0.162824
v 0.084532 -0.650855 -0.177013
v 0.106247 -0.664810 -0.199380
v 0.121782 -0.674794 -0.228113
v 0.129877 -0.679996 -0.260885
v 0.129877 -0.679996 -0.295041
v 0.121782 -0.674794 -0.327813
v 0.106247 -0.664810 -0.356546
v 0.084532 -0.650855 -0.378913
v 0.058395 -0.634058 -0.393102
v 0.029954 -0.615780 -0.397963
v 0.029954 -0.615780 -0.157963
v 0.063762 -0.615780 -0.162824
v 0.094831 -0.615780 -0.177013
v 0.120644 -0.615780 -0.199380
v 0.139110 -0.615780 -0.228113
v 0.148733 -0.615780 -0.260885
v 0.148733 -0.615780 -0.295041
v 0.139110 -0.615780 -0.327813
v 0.120644 -0.615780 -0.356546
v 0.094831 -0.615780 -0.378913
v 0.063762 -0.615780 -0.393102
v 0.029954 -0.615780 -0.397963
v 0.174058 -0.444328 -0.106885
v 0.172518 -0.467830 -0.099372
v 0.169830 -0.482355 -0.079549
v 0.167020 -0.482355 -0.054988
v 0.165162 -0.467830 -0.035070
v 0.164966 -0.444328 -0.027403
v 0.166506 -0.420827 -0.034916
v 0.169194 -0.406302 -0.054739
v 0.172004 -0.406302 -0.079301
v 0.173862 -0.420827 -0.099218
v -0.149994 -0.434943 -0.143954
v -0.151534 -0.458445 -0.136441
v -0.154222 -0.472969 -0.116618
v -0.157032 -0.472969 -0.092057
v -0.158890 -0.458445 -0.072139
v -0.159086 -0.434943 -0.064472
v -0.157546 -0.411441 -0.071985
v -0.154858 -0.396916 -0.091808
v -0.152048 -0.396916 -0.116369
v -0.150190 -0.411441 -0.136287
v 0.169512 -0.465783 -0.100904
v 0.146363 -0.458214 -0.096663
v 0.132056 -0.445341 -0.081146
v 0.132056 -0.432081 -0.060282
v 0.146363 -0.423500 -0.042039
v 0.169512 -0.422874 -0.033385
v 0.192661 -0.430443 -0.037626
v 0.206967 -0.443316 -0.053142
v 0.206967 -0.456575 -0.074007
v 0.192661 -0.465157 -0.092250
v 0.213147 -0.258532 -0.232614
v 0.189998 -0.250963 -0.228373
v 0.175691 -0.238090 -0.212857
v 0.175691 -0.224830 -0.191993
v 0.189998 -0.216249 -0.173749
v 0.213147 -0.215623 -0.165095
v 0.236296 -0.223192 -0.169337
v 0.250602 -0.236065 -0.184853
v 0.250602 -0.249325 -0.205717
v 0.236296 -0.257906 -0.223961
v 0.213147 -0.274408 -0.184488
v 0.190996 -0.264447 -0.179875
v 0.177307 -0.244032 -0.182511
v 0.177307 -0.220960 -0.191391
v 0.190996 -0.204045 -0.203121
v 0.213147 -0.199747 -0.213222
v 0.235297 -0.209708 -0.217835
v 0.248987 -0.230123 -0.215199
v 0.248987 -0.253195 -0.206319
v 0.235297 -0.270110 -0.194589
v 0.115356 -0.373102 -0.440931
v 0.093206 -0.363141 -0.436317
v 0.079516 -0.342725 -0.438954
v 0.079516 -0.319654 -0.447833
v 0.093206 -0.302738 -0.459564
v 0.115356 -0.298440 -0.469665
v 0.137507 -0.308401 -0.474278
v 0.151196 -0.328816 -0.471641
v 0.151196 -0.351888 -0.462762
v 0.137507 -0.368803 -0.451032
v -0.154540 -0.451968 -0.140409
v -0.177966 -0.450532 -0.132642
v -0.192443 -0.443141 -0.114016
v -0.192443 -0.432619 -0.091646
v -0.177966 -0.422985 -0.074076
v -0.154540 -0.417918 -0.068017
v -0.131114 -0.419354 -0.075784
v -0.116636 -0.426744 -0.094409
v -0.116636 -0.437266 -0.116780
v -0.131114 -0.446901 -0.134350
v -0.175566 -0.229824 -0.244895
v -0.198991 -0.228388 -0.237129
v -0.213469 -0.220998 -0.218503
v -0.213469 -0.210476 -0.196133
v -0.198991 -0.200841 -0.178562
v -0.175566 -0.195774 -0.172503
v -0.152140 -0.197210 -0.180270
v -0.137662 -0.204601 -0.198896
v -0.137662 -0.215123 -0.221266
v -0.152140 -0.224757 -0.238837
v -0.175566 -0.247739 -0.189226
v -0.197003 -0.245767 -0.201379
v -0.210252 -0.231202 -0.216328
v -0.210252 -0.209608 -0.228364
v -0.197003 -0.189233 -0.232888
v -0.175566 -0.177860 -0.228173
v -0.154128 -0.179832 -0.216020
v -0.140879 -0.194396 -0.201071
v -0.140879 -0.215990 -0.189035
v -0.154128 -0.236365 -0.184511
v -0.073585 -0.357968 -0.387002
v -0.095022 -0.355996 -0.399155
v -0.108271 -0.341431 -0.414104
v -0.108271 -0.319837 -0.426140
v -0.095022 -0.299462 -0.430664
v -0.073585 -0.288089 -0.425949
v -0.052147 -0.290061 -0.413796
v -0.038898 -0.304625 -0.398846
v -0.038898 -0.326219 -0.386811
v -0.052147 -0.346594 -0.382287
v 0.169512 -0.436377 -0.106346
v 0.146114 -0.440158 -0.099318
v 0.131654 -0.445533 -0.080001
v 0.131654 -0.450447 -0.055773
v 0.146114 -0.453024 -0.035888
v 0.169512 -0.452280 -0.027943
v 0.192910 -0.448498 -0.034970
v 0.207370 -0.443124 -0.054288
v 0.207370 -0.438210 -0.078516
v 0.192910 -0.435633 -0.098400
v 0.125277 0.002948 -0.017236
v 0.101879 -0.000833 -0.010208
v 0.087419 -0.006207 0.009109
v 0.087419 -0.011121 0.033337
v 0.101879 -0.013699 0.053221
v 0.125277 -0.012954 0.061167
v 0.148675 -0.009173 0.054139
v 0.163135 -0.003799 0.034822
v 0.163135 0.001115 0.010594
v 0.148675 0.003693 -0.009291
v -0.154540 -0.427125 -0.143441
v -0.178000 -0.427089 -0.135645
v -0.192498 -0.430053 -0.115842
v -0.192498 -0.434884 -0.091597
v -0.178000 -0.439738 -0.072171
v -0.154540 -0.442760 -0.064984
v -0.131080 -0.442796 -0.072781
v -0.116581 -0.439833 -0.092584
v -0.116581 -0.435001 -0.116828
v -0.131080 -0.430148 -0.136254
v -0.125876 -0.004188 -0.059159
v -0.149335 -0.004151 -0.051362
v -0.163834 -0.007115 -0.031560
v -0.163834 -0.011946 -0.007315
v -0.149335 -0.016800 0.012111
v -0.125876 -0.019822 0.019298
v -0.102416 -0.019859 0.011502
v -0.087917 -0.016895 -0.008301
v -0.087917 -0.012064 -0.032546
v -0.102416 -0.007210 -0.051972
v 0.131859 -0.005003 -0.017489
v 0.131239 -0.028505 -0.009848
v 0.128342 -0.043031 0.009945
v 0.124275 -0.043031 0.034330
v 0.120590 -0.028505 0.053991
v 0.118695 -0.005003 0.061420
v 0.119315 0.018500 0.053779
v 0.122212 0.033025 0.033986
v 0.126279 0.033025 0.009601
v 0.129964 0.018500 -0.010061
v -0.119294 -0.012005 -0.059385
v -0.119914 -0.035508 -0.051744
v -0.122810 -0.050033 -0.031950
v -0.126878 -0.050033 -0.007566
v -0.130563 -0.035508 0.012096
v -0.132457 -0.012005 0.019525
v -0.131838 0.011498 0.011883
v -0.128941 0.026023 -0.007910
v -0.124873 0.026023 -0.032295
v -0.121189 0.011498 -0.051956
v 0.125277 -0.028940 -0.010082
v 0.101804 -0.023298 -0.004761
v 0.087296 -0.010668 0.010769
v 0.087296 0.004126 0.030575
v 0.101804 0.015433 0.047093
v 0.125277 0.018934 0.054013
v 0.148750 0.013292 0.048692
v 0.163258 0.000662 0.033162
v 0.163258 -0.014132 0.013356
v 0.148750 -0.025439 -0.003162
v 0.133102 0.081217 -0.092361
v 0.109628 0.086859 -0.087040
v 0.095121 0.099489 -0.071510
v 0.095121 0.114282 -0.051704
v 0.109628 0.125589 -0.035186
v 0.133102 0.129091 -0.028266
v 0.156575 0.123449 -0.033587
v 0.171083 0.110819 -0.049117
v 0.171083 0.096025 -0.068923
v 0.156575 0.084718 -0.085441
v 0.133102 0.127086 -0.093765
v 0.109628 0.124013 -0.086645
v 0.095121 0.113737 -0.069467
v 0.095121 0.100182 -0.048793
v 0.109628 0.088526 -0.032519
v 0.133102 0.083222 -0.026862
v 0.156575 0.086295 -0.033983
v 0.171083 0.096571 -0.051160
v 0.171083 0.110126 -0.071834
v 0.156575 0.121781 -0.088108
v 0.150118 0.377422 0.070366
v 0.126644 0.374349 0.077486
v 0.112137 0.364073 0.094664
v 0.112137 0.350518 0.115338
v 0.126644 0.338862 0.131611
v 0.150118 0.333558 0.137268
v 0.173591 0.336631 0.130148
v 0.188099 0.346907 0.112970
v 0.188099 0.360462 0.092296
v 0.173591 0.372117 0.076023
v -0.125876 -0.049589 -0.006238
v -0.149152 -0.043546 -0.011969
v -0.163538 -0.025455 -0.020740
v -0.163538 -0.002227 -0.029202
v -0.149152 0.017266 -0.034123
v -0.125876 0.025579 -0.033622
v -0.102599 0.019536 -0.027892
v -0.088214 0.001445 -0.019121
v -0.088214 -0.021783 -0.010659
v -0.102599 -0.041276 -0.005738
v -0.091067 -0.133235 -0.235842
v -0.114344 -0.127192 -0.241572
v -0.128729 -0.109102 -0.250344
v -0.128729 -0.085874 -0.258806
v -0.114344 -0.066380 -0.263726
v -0.091067 -0.058068 -0.263226
v -0.067791 -0.064111 -0.257496
v -0.053405 -0.082201 -0.248724
v -0.053405 -0.105429 -0.240262
v -0.067791 -0.124922 -0.235342
v -0.091067 -0.098063 -0.289461
v -0.114570 -0.096954 -0.281875
v -0.129095 -0.095348 -0.261935
v -0.129095 -0.093858 -0.237259
v -0.114570 -0.093052 -0.217271
v -0.091067 -0.093240 -0.209607
v -0.067565 -0.094348 -0.217193
v -0.053039 -0.095955 -0.237132
v -0.053039 -0.097445 -0.261809
v -0.067565 -0.098250 -0.281797
v -0.083100 0.189836 -0.306851
v -0.106603 0.190944 -0.299264
v -0.121128 0.192551 -0.279325
v -0.121128 0.194041 -0.254649
v -0.106603 0.194847 -0.234661
v -0.083100 0.194659 -0.226996
v -0.059598 0.193551 -0.234583
v -0.045073 0.191944 -0.254522
v -0.045073 0.190454 -0.279198
v -0.059598 0.189649 -0.299186
v -0.051903 0.036860 0.075608
v -0.058570 0.031260 0.072427
v -0.062691 0.028118 0.064740
v -0.062691 0.028634 0.055484
v -0.058570 0.032612 0.048194
v -0.051903 0.038532 0.045655
v -0.045235 0.044133 0.048837
v -0.041115 0.047275 0.056524
v -0.041115 0.046758 0.065780
v -0.045235 0.042780 0.073070
v -0.025903 0.006859 0.073934
v -0.032570 0.001258 0.070752
v -0.036691 -0.001884 0.063065
v -0.036691 -0.001367 0.053809
v -0.032570 0.002611 0.046519
v -0.025903 0.008531 0.043981
v -0.019236 0.014131 0.047162
v -0.015115 0.017273 0.054849
v -0.015115 0.016757 0.064106
v -0.019236 0.012779 0.071395
v -0.021934 0.007695 0.073423
v -0.025593 -0.000593 0.071456
v -0.029370 -0.005715 0.064715
v -0.031823 -0.005715 0.055775
v -0.032014 -0.000593 0.048050
v -0.029872 0.007695 0.044492
v -0.026213 0.015983 0.046459
v -0.022436 0.021105 0.053200
v -0.019983 0.021105 0.062140
v -0.019791 0.015983 0.069864
v 0.002372 -0.001452 0.066754
v -0.001286 -0.009740 0.064787
v -0.005064 -0.014862 0.058046
v -0.007517 -0.014862 0.049106
v -0.007708 -0.009740 0.041381
v -0.005566 -0.001452 0.037823
v -0.001907 0.006836 0.039790
v 0.001870 0.011958 0.046530
v 0.004323 0.011958 0.055471
v 0.004515 0.006836 0.063195
v -0.001597 -0.016444 0.051786
v -0.008629 -0.013402 0.046567
v -0.012975 -0.005797 0.043533
v -0.012975 0.003469 0.043843
v -0.008629 0.010854 0.047379
v -0.001597 0.013540 0.052790
v 0.005435 0.010498 0.058010
v 0.009782 0.002892 0.061044
v 0.009782 -0.006373 0.060733
v 0.005435 -0.013759 0.057197
v 0.015749 -0.015676 0.028862
v 0.008717 -0.012634 0.023643
v 0.004370 -0.005028 0.020609
v 0.004370 0.004237 0.020920
v 0.008717 0.011623 0.024456
v 0.015749 0.014308 0.029867
v 0.022781 0.011266 0.035086
v 0.027127 0.003661 0.038120
v 0.027127 -0.005605 0.037810
v 0.022781 -0.012991 0.034274
v 0.015749 -0.014299 0.023069
v 0.008386 -0.009663 0.019869
v 0.003836 -0.001597 0.020296
v 0.003836 0.006817 0.024187
v 0.008386 0.012366 0.030056
v 0.015749 0.012931 0.035661
v 0.023112 0.008295 0.038860
v 0.027662 0.000229 0.038433
v 0.027662 -0.008185 0.034542
v 0.023112 -0.013734 0.028673
v 0.029386 -0.005609 0.004278
v 0.022024 -0.000973 0.001078
v 0.017473 0.007092 0.001506
v 0.017473 0.015506 0.005397
v 0.022024 0.021056 0.011266
v 0.029386 0.021620 0.016870
v 0.036749 0.016984 0.020070
v 0.041300 0.008919 0.019643
v 0.041300 0.000504 0.015752
v 0.036749 -0.005045 0.009883
v -0.051903 0.027655 0.071775
v -0.059166 0.025860 0.066301
v -0.063656 0.028586 0.058662
v -0.063656 0.034792 0.051775
v -0.059166 0.042107 0.048271
v -0.051903 0.047737 0.049488
v -0.044639 0.049532 0.054962
v -0.040150 0.046806 0.062601
v -0.040150 0.040600 0.069488
v -0.044639 0.033285 0.072992
v -0.001400 -0.026875 0.022638
v -0.008664 -0.028670 0.017165
v -0.013153 -0.025944 0.009526
v -0.013153 -0.019738 0.002639
v -0.008664 -0.012423 -0.000866
v -0.001400 -0.006792 0.000352
v 0.005864 -0.004997 0.005825
v 0.010353 -0.007723 0.013465
v 0.010353 -0.013929 0.020352
v 0.005864 -0.021244 0.023856
v 0.001131 -0.016834 0.026280
v -0.000654 -0.025551 0.023679
v -0.002724 -0.030938 0.016424
v -0.004288 -0.030938 0.007287
v -0.004749 -0.025551 -0.000243
v -0.003931 -0.016834 -0.003290
v -0.002146 -0.008116 -0.000689
v -0.000076 -0.002729 0.006566
v 0.001488 -0.002729 0.015703
v 0.001949 -0.008116 0.023233
v 0.023866 -0.020328 0.022388
v 0.022081 -0.029045 0.019787
v 0.020011 -0.034433 0.012532
v 0.018447 -0.034433 0.003395
v 0.017986 -0.029045 -0.004135
v 0.018804 -0.020328 -0.007182
v 0.020589 -0.011611 -0.004581
v 0.022659 -0.006223 0.002674
v 0.024223 -0.006223 0.011811
v 0.024685 -0.011611 0.019341
v 0.021335 -0.009146 0.017601
v 0.016773 -0.016310 0.021316
v 0.013953 -0.025009 0.019793
v 0.013953 -0.031920 0.013614
v 0.016773 -0.034403 0.005139
v 0.021335 -0.031510 -0.002395
v 0.025897 -0.024346 -0.006110
v 0.028717 -0.015647 -0.004587
v 0.028717 -0.008736 0.001592
v 0.025897 -0.006253 0.010067
v 0.041703 -0.017355 0.026783
v 0.037141 -0.024520 0.030497
v 0.034321 -0.033219 0.028974
v 0.034321 -0.040130 0.022795
v 0.037141 -0.042613 0.014320
v 0.041703 -0.039719 0.006786
v 0.046265 -0.032555 0.003072
v 0.049085 -0.023856 0.004595
v 0.049085 -0.016945 0.010774
v 0.046265 -0.014462 0.019249
v 0.036348 -0.028537 0.030796
v 0.035333 -0.037080 0.027341
v 0.036751 -0.042360 0.019854
v 0.040061 -0.042360 0.011195
v 0.043998 -0.037080 0.004670
v 0.047058 -0.028537 0.002773
v 0.048073 -0.019995 0.006228
v 0.046655 -0.014715 0.013715
v 0.043345 -0.014715 0.022375
v 0.039408 -0.019995 0.028899
v 0.053662 -0.033271 0.037414
v 0.052646 -0.041814 0.033959
v 0.054065 -0.047093 0.026472
v 0.057374 -0.047093 0.017812
v 0.061312 -0.041814 0.011288
v 0.064372 -0.033271 0.009391
v 0.065387 -0.024728 0.012846
v 0.063969 -0.019449 0.020333
v 0.060659 -0.019449 0.028992
v 0.056722 -0.024728 0.035516
v -0.051903 0.025267 0.069028
v -0.059189 0.024862 0.063311
v -0.063693 0.029359 0.056571
v -0.063693 0.037041 0.051382
v -0.059189 0.044973 0.049725
v -0.051903 0.050126 0.052235
v -0.044616 0.050531 0.057952
v -0.040113 0.046033 0.064692
v -0.040113 0.038351 0.069882
v -0.044616 0.030419 0.071538
v -0.001262 -0.016346 0.007429
v -0.008549 -0.016751 0.001712
v -0.013052 -0.012253 -0.005029
v -0.013052 -0.004571 -0.010218
v -0.008549 0.003361 -0.011874
v -0.001262 0.008513 -0.009365
v 0.006025 0.008918 -0.003648
v 0.010528 0.004421 0.003093
v 0.010528 -0.003261 0.008282
v 0.006025 -0.011193 0.009938
v 0.002330 -0.003916 0.013595
v -0.001280 -0.012203 0.011535
v -0.004882 -0.017324 0.004699
v -0.007102 -0.017324 -0.004302
v -0.007092 -0.012203 -0.012029
v -0.004854 -0.003916 -0.015532
v -0.001245 0.004370 -0.013471
v 0.002358 0.009492 -0.006635
v 0.004578 0.009492 0.002366
v 0.004568 0.004370 0.010093
v 0.028750 -0.013805 0.007079
v 0.025141 -0.022091 0.005019
v 0.021538 -0.027213 -0.001818
v 0.019318 -0.027213 -0.010818
v 0.019329 -0.022091 -0.018546
v 0.021566 -0.013805 -0.022048
v 0.025176 -0.005518 -0.019988
v 0.028779 -0.000396 -0.013152
v 0.030999 -0.000396 -0.004151
v 0.030988 -0.005518 0.003576
v 0.025158 -0.004971 0.004639
v 0.020942 -0.012916 0.006883
v 0.018336 -0.021201 0.003640
v 0.018336 -0.026660 -0.003853
v 0.020942 -0.027209 -0.012733
v 0.025158 -0.022638 -0.019608
v 0.029375 -0.014693 -0.021852
v 0.031981 -0.006408 -0.018609
v 0.031981 -0.000949 -0.011116
v 0.029375 -0.000400 -0.002237
v 0.045202 -0.013793 0.011066
v 0.040985 -0.021738 0.013310
v 0.038379 -0.030022 0.010067
v 0.038379 -0.035481 0.002574
v 0.040985 -0.036030 -0.006305
v 0.045202 -0.031459 -0.013181
v 0.049418 -0.023514 -0.015425
v 0.052024 -0.015230 -0.012182
v 0.052024 -0.009770 -0.004689
v 0.049418 -0.009222 0.004191
v 0.045202 -0.010418 0.007659
v 0.039634 -0.016722 0.011558
v 0.036193 -0.025281 0.010638
v 0.036193 -0.032826 0.005252
v 0.039634 -0.036475 -0.002545
v 0.045202 -0.034834 -0.009773
v 0.050770 -0.028530 -0.013672
v 0.054211 -0.019971 -0.012753
v 0.054211 -0.012426 -0.007366
v 0.050770 -0.008777 0.000430
v 0.068549 -0.021467 0.023135
v 0.062981 -0.027771 0.027034
v 0.059539 -0.036330 0.026114
v 0.059539 -0.043875 0.020727
v 0.062981 -0.047524 0.012931
v 0.068549 -0.045883 0.005703
v 0.074116 -0.039579 0.001804
v 0.077558 -0.031020 0.002723
v 0.077558 -0.023476 0.008110
v 0.074116 -0.019827 0.015906
v -0.051903 0.023755 0.066168
v -0.059077 0.024526 0.060347
v -0.063511 0.030328 0.054635
v -0.063511 0.038944 0.051214
v -0.059077 0.047083 0.051390
v -0.051903 0.051637 0.055096
v -0.044729 0.050866 0.060916
v -0.040295 0.045065 0.066628
v -0.040295 0.036449 0.070050
v -0.044729 0.028309 0.069874
v 0.001359 -0.003761 -0.003126
v -0.005815 -0.002990 -0.008946
v -0.010249 0.002812 -0.014658
v -0.010249 0.011428 -0.018079
v -0.005815 0.019567 -0.017903
v 0.001359 0.024121 -0.014197
v 0.008533 0.023350 -0.008377
v 0.012967 0.017549 -0.002665
v 0.012967 0.008933 0.000756
v 0.008533 0.000793 0.000580
v -0.003718 0.010180 0.005453
v -0.001316 0.001496 0.003273
v 0.002108 -0.003871 -0.003466
v 0.005246 -0.003871 -0.012190
v 0.006899 0.001496 -0.019565
v 0.006436 0.010180 -0.022776
v 0.004034 0.018865 -0.020596
v 0.000610 0.024232 -0.013857
v -0.002527 0.024232 -0.005134
v -0.004181 0.018865 0.002242
v 0.017817 0.014192 0.013199
v 0.020219 0.005507 0.011019
v 0.023643 0.000140 0.004280
v 0.026781 0.000140 -0.004444
v 0.028434 0.005507 -0.011819
v 0.027971 0.014192 -0.015030
v 0.025569 0.022876 -0.012850
v 0.022145 0.028243 -0.006111
v 0.019008 0.028243 0.002612
v 0.017354 0.022876 0.009988
v 0.022894 0.029072 -0.002808
v 0.014142 0.026096 -0.003500
v 0.008732 0.018573 -0.003205
v 0.008732 0.009377 -0.002035
v 0.014142 0.002020 -0.000438
v 0.022894 -0.000688 0.000977
v 0.031647 0.002287 0.001669
v 0.037056 0.009810 0.001374
v 0.037056 0.019007 0.000204
v 0.031647 0.026364 -0.001393
v 0.020211 0.031861 0.019128
v 0.011459 0.028885 0.018436
v 0.006049 0.021363 0.018731
v 0.006049 0.012166 0.019900
v 0.011459 0.004809 0.021497
v 0.020211 0.002101 0.022912
v 0.028964 0.005077 0.023604
v 0.034373 0.012600 0.023309
v 0.034373 0.021796 0.022140
v 0.028964 0.029153 0.020543
v 0.020211 0.031871 0.022833
v 0.012699 0.029585 0.017906
v 0.008056 0.022485 0.014168
v 0.008056 0.013282 0.013048
v 0.012699 0.005492 0.014973
v 0.020211 0.002091 0.019207
v 0.027724 0.004377 0.024134
v 0.032367 0.011477 0.027872
v 0.032367 0.020680 0.028992
v 0.027724 0.028470 0.027068
v 0.007971 0.029463 0.042614
v 0.000458 0.027177 0.037687
v -0.004185 0.020076 0.033950
v -0.004185 0.010874 0.032829
v 0.000458 0.003084 0.034754
v 0.007971 -0.000317 0.038989
v 0.015483 0.001969 0.043916
v 0.020126 0.009069 0.047653
v 0.020126 0.018272 0.048774
v 0.015483 0.026061 0.046849
v -0.051903 0.022893 0.063054
v -0.059101 0.024898 0.057567
v -0.063550 0.031792 0.053251
v -0.063550 0.040941 0.051754
v -0.059101 0.048850 0.053648
v -0.051903 0.052499 0.058210
v -0.044704 0.050494 0.063696
v -0.040255 0.043601 0.068012
v -0.040255 0.034452 0.069509
v -0.044704 0.026542 0.067615
v -0.004204 0.012002 -0.003509
v -0.011403 0.014007 -0.008996
v -0.015852 0.020900 -0.013312
v -0.015852 0.030049 -0.014809
v -0.011403 0.037959 -0.012915
v -0.004204 0.041608 -0.008353
v 0.002994 0.039603 -0.002867
v 0.007443 0.032709 0.001449
v 0.007443 0.023561 0.002946
v 0.002994 0.015651 0.001052
v -0.010087 0.026805 0.007867
v -0.007671 0.018101 0.005783
v -0.003931 0.012721 -0.000776
v -0.000295 0.012721 -0.009304
v 0.001847 0.018101 -0.016543
v 0.001678 0.026805 -0.019730
v -0.000738 0.035509 -0.017645
v -0.004478 0.040889 -0.011087
v -0.008113 0.040889 -0.002559
v -0.010256 0.035509 0.004681
v 0.011060 0.030516 0.016882
v 0.013476 0.021812 0.014798
v 0.017216 0.016432 0.008239
v 0.020851 0.016432 -0.000289
v 0.022994 0.021812 -0.007528
v 0.022825 0.030516 -0.010715
v 0.020409 0.039220 -0.008630
v 0.016669 0.044599 -0.002072
v 0.013033 0.044599 0.006456
v 0.010891 0.039220 0.013696
v 0.016942 0.045449 0.001670
v 0.008129 0.042619 0.002174
v 0.002682 0.035166 0.003026
v 0.002682 0.025937 0.003900
v 0.008129 0.018457 0.004461
v 0.016942 0.015582 0.004497
v 0.025756 0.018412 0.003993
v 0.031203 0.025865 0.003141
v 0.031203 0.035094 0.002268
v 0.025756 0.042575 0.001706
v 0.017453 0.047252 0.020719
v 0.008640 0.044422 0.021224
v 0.003192 0.036969 0.022075
v 0.003192 0.027740 0.022949
v 0.008640 0.020260 0.023511
v 0.017453 0.017385 0.023546
v 0.026267 0.020215 0.023042
v 0.031714 0.027668 0.022191
v 0.031714 0.036897 0.021317
v 0.026267 0.044378 0.020755
v 0.017453 0.045482 0.029325
v 0.011736 0.046186 0.022061
v 0.008202 0.041593 0.014825
v 0.008202 0.033458 0.010380
v 0.011736 0.024887 0.010424
v 0.017453 0.019155 0.014941
v 0.023171 0.018451 0.022204
v 0.026704 0.023044 0.029441
v 0.026704 0.031180 0.033886
v 0.023171 0.039750 0.033841
v 0.005824 0.040733 0.038018
v 0.000107 0.041437 0.030754
v -0.003427 0.036844 0.023518
v -0.003427 0.028708 0.019073
v 0.000107 0.020138 0.019118
v 0.005824 0.014406 0.023634
v 0.011541 0.013702 0.030898
v 0.015075 0.018295 0.038134
v 0.015075 0.026430 0.042579
v 0.011541 0.035001 0.042534
v 0.050224 0.026661 0.092677
v 0.043290 0.032657 0.091301
v 0.039004 0.037830 0.084912
v 0.039004 0.040202 0.075950
v 0.043290 0.038869 0.067839
v 0.050224 0.034338 0.063676
v 0.057159 0.028341 0.065052
v 0.061444 0.023168 0.071441
v 0.061444 0.020796 0.080403
v 0.057159 0.022130 0.088514
v 0.025951 -0.003222 0.084766
v 0.019016 0.002775 0.083390
v 0.014731 0.007947 0.077001
v 0.014731 0.010320 0.068040
v 0.019016 0.008986 0.059928
v 0.025951 0.004455 0.055765
v 0.032885 -0.001542 0.057141
v 0.037171 -0.006715 0.063530
v 0.037171 -0.009087 0.072492
v 0.032885 -0.007753 0.080603
v 0.025951 -0.013149 0.076225
v 0.021404 -0.007519 0.082019
v 0.018594 0.001218 0.083324
v 0.018594 0.009726 0.079641
v 0.021404 0.014754 0.072377
v 0.025951 0.014382 0.064307
v 0.030498 0.008752 0.058513
v 0.033308 0.000015 0.057208
v 0.033308 -0.008493 0.060890
v 0.030498 -0.013521 0.068154
v -0.000011 -0.019357 0.061884
v -0.004557 -0.013727 0.067678
v -0.007367 -0.004990 0.068983
v -0.007367 0.003518 0.065301
v -0.004557 0.008546 0.058037
v -0.000011 0.008174 0.049966
v 0.004536 0.002544 0.044172
v 0.007346 -0.006193 0.042867
v 0.007346 -0.014701 0.046550
v 0.004536 -0.019729 0.053814
v -0.000011 -0.019643 0.050677
v -0.007463 -0.018608 0.056092
v -0.012069 -0.012601 0.061444
v -0.012069 -0.003916 0.064688
v -0.007463 0.004129 0.064584
v -0.000011 0.008461 0.061174
v 0.007442 0.007425 0.055758
v 0.012048 0.001418 0.050406
v 0.012048 -0.007267 0.047163
v 0.007442 -0.015311 0.047266
v -0.021009 -0.008020 0.019557
v -0.028461 -0.006985 0.024973
v -0.033067 -0.000977 0.030324
v -0.033067 0.007707 0.033568
v -0.028461 0.015752 0.033465
v -0.021009 0.020084 0.030054
v -0.013556 0.019048 0.024638
v -0.008950 0.013041 0.019287
v -0.008950 0.004357 0.016043
v -0.013556 -0.003688 0.016146
v -0.021009 -0.006481 0.016533
v -0.029314 -0.005723 0.020582
v -0.034447 -0.000476 0.026244
v -0.034447 0.007258 0.031356
v -0.029314 0.014523 0.033966
v -0.021009 0.018545 0.033078
v -0.012703 0.017787 0.029029
v -0.007570 0.012539 0.023367
v -0.007570 0.004806 0.018255
v -0.012703 -0.002459 0.015644
v -0.030741 0.008581 -0.006251
v -0.039046 0.009339 -0.002202
v -0.044179 0.014587 0.003460
v -0.044179 0.022320 0.008572
v -0.039046 0.029585 0.011183
v -0.030741 0.033607 0.010294
v -0.022436 0.032849 0.006245
v -0.017303 0.027601 0.000583
v -0.017303 0.019868 -0.004529
v -0.022436 0.012603 -0.007139
v 0.050224 0.018363 0.086992
v 0.042697 0.023379 0.089023
v 0.038045 0.031115 0.086911
v 0.038045 0.038615 0.081462
v 0.042697 0.043016 0.074759
v 0.050224 0.042635 0.069361
v 0.057752 0.037619 0.067330
v 0.062404 0.029883 0.069442
v 0.062404 0.022383 0.074891
v 0.057752 0.017983 0.081594
v -0.003565 -0.033469 0.015641
v -0.011092 -0.028453 0.017671
v -0.015745 -0.020718 0.015559
v -0.015745 -0.013217 0.010110
v -0.011092 -0.008817 0.003407
v -0.003565 -0.009197 -0.001991
v 0.003962 -0.014213 -0.004022
v 0.008614 -0.021949 -0.001910
v 0.008614 -0.029449 0.003539
v 0.003962 -0.033850 0.010242
v -0.000233 -0.021333 -0.007800
v -0.001147 -0.030145 -0.005071
v -0.002984 -0.035592 0.002203
v -0.005044 -0.035592 0.011242
v -0.006539 -0.030145 0.018593
v -0.006898 -0.021333 0.021450
v -0.005984 -0.012521 0.018720
v -0.004146 -0.007075 0.011446
v -0.002087 -0.007075 0.002407
v -0.000592 -0.012521 -0.004944
v -0.026991 -0.020447 -0.013898
v -0.027905 -0.029260 -0.011168
v -0.029743 -0.034706 -0.003894
v -0.031802 -0.034706 0.005145
v -0.033297 -0.029260 0.012496
v -0.033656 -0.020447 0.015353
v -0.032742 -0.011635 0.012623
v -0.030905 -0.006189 0.005349
v -0.028845 -0.006189 -0.003690
v -0.027350 -0.011635 -0.011041
v -0.030324 -0.005447 0.000671
v -0.034239 -0.008342 -0.007218
v -0.036658 -0.015860 -0.012072
v -0.036658 -0.025131 -0.012037
v -0.034239 -0.032612 -0.007127
v -0.030324 -0.035447 0.000784
v -0.026409 -0.032553 0.008673
v -0.023989 -0.025034 0.013527
v -0.023989 -0.015764 0.013492
v -0.026409 -0.008282 0.008582
v -0.052236 -0.005406 0.011530
v -0.056151 -0.008301 0.003641
v -0.058571 -0.015819 -0.001213
v -0.058571 -0.025090 -0.001178
v -0.056151 -0.032571 0.003733
v -0.052236 -0.035406 0.011643
v -0.048321 -0.032512 0.019532
v -0.045902 -0.024993 0.024386
v -0.045902 -0.015723 0.024351
v -0.048321 -0.008241 0.019441
v -0.056925 -0.020406 -0.002662
v -0.057522 -0.029082 0.000551
v -0.056100 -0.034444 0.007978
v -0.053203 -0.034444 0.016784
v -0.049936 -0.029082 0.023605
v -0.047548 -0.020406 0.025835
v -0.046950 -0.011731 0.022623
v -0.048372 -0.006369 0.015195
v -0.051270 -0.006369 0.006389
v -0.054536 -0.011731 -0.000432
v -0.078388 -0.016313 0.004401
v -0.078985 -0.024989 0.007613
v -0.077564 -0.030351 0.015041
v -0.074666 -0.030351 0.023847
v -0.071399 -0.024989 0.030668
v -0.069011 -0.016313 0.032898
v -0.068413 -0.007638 0.029685
v -0.069835 -0.002276 0.022257
v -0.072733 -0.002276 0.013451
v -0.076000 -0.007638 0.006631
v 0.050224 0.016753 0.084181
v 0.042571 0.021131 0.087046
v 0.037841 0.029087 0.086523
v 0.037841 0.037582 0.082812
v 0.042571 0.043372 0.077331
v 0.050224 0.044245 0.072172
v 0.057878 0.039867 0.069307
v 0.062607 0.031911 0.069830
v 0.062607 0.023416 0.073541
v 0.057878 0.017626 0.079022
v 0.000241 -0.018224 0.004109
v -0.007412 -0.013846 0.006974
v -0.012142 -0.005891 0.006451
v -0.012142 0.002605 0.002740
v -0.007412 0.008395 -0.002742
v 0.000241 0.009267 -0.007900
v 0.007894 0.004890 -0.010765
v 0.012624 -0.003066 -0.010242
v 0.012624 -0.011562 -0.006531
v 0.007894 -0.017351 -0.001050
v 0.004193 -0.004478 -0.016366
v 0.003684 -0.013291 -0.013535
v 0.001860 -0.018738 -0.006259
v -0.000583 -0.018738 0.002684
v -0.002711 -0.013291 0.009878
v -0.003711 -0.004478 0.012574
v -0.003202 0.004335 0.009744
v -0.001378 0.009782 0.002467
v 0.001065 0.009782 -0.006476
v 0.003193 0.004335 -0.013669
v -0.030840 -0.005528 -0.025934
v -0.031349 -0.014341 -0.023103
v -0.033173 -0.019788 -0.015827
v -0.035616 -0.019788 -0.006884
v -0.037743 -0.014341 0.000310
v -0.038744 -0.005528 0.003006
v -0.038235 0.003285 0.000176
v -0.036411 0.008732 -0.007101
v -0.033968 0.008732 -0.016044
v -0.031840 0.003285 -0.023237
v -0.039225 -0.005528 -0.025794
v -0.039370 -0.014283 -0.022750
v -0.037766 -0.019694 -0.015396
v -0.035026 -0.019694 -0.006539
v -0.032197 -0.014283 0.000436
v -0.030359 -0.005528 0.002866
v -0.030214 0.003228 -0.000177
v -0.031818 0.008639 -0.007532
v -0.034557 0.008639 -0.016388
v -0.037386 0.003228 -0.023364
v -0.064394 -0.002405 -0.018008
v -0.064539 -0.011160 -0.014965
v -0.062936 -0.016571 -0.007610
v -0.060196 -0.016571 0.001247
v -0.057367 -0.011160 0.008222
v -0.055529 -0.002405 0.010652
v -0.055384 0.006351 0.007609
v -0.056987 0.011762 0.000254
v -0.059727 0.011762 -0.008602
v -0.062556 0.006351 -0.015578
v -0.059962 0.012015 0.000456
v -0.064894 0.011275 -0.007358
v -0.067943 0.005310 -0.013767
v -0.067943 -0.003602 -0.016322
v -0.064894 -0.012056 -0.014047
v -0.059962 -0.016824 -0.007812
v -0.055029 -0.016084 0.000002
v -0.051980 -0.010119 0.006411
v -0.051980 -0.001207 0.008966
v -0.055029 0.007247 0.006691
v -0.086997 0.006985 0.017999
v -0.091930 0.006245 0.010185
v -0.094979 0.000280 0.003777
v -0.094979 -0.008631 0.001222
v -0.091930 -0.017086 0.003496
v -0.086997 -0.021853 0.009732
v -0.082064 -0.021113 0.017546
v -0.079015 -0.015149 0.023954
v -0.079015 -0.006237 0.026509
v -0.082064 0.002217 0.024235
v 0.050224 0.015827 0.081296
v 0.042572 0.019540 0.084983
v 0.037843 0.027439 0.086071
v 0.037843 0.036506 0.084143
v 0.042572 0.043280 0.079936
v 0.050224 0.045171 0.075057
v 0.057877 0.041459 0.071370
v 0.062606 0.033560 0.070282
v 0.062606 0.024492 0.072210
v 0.057877 0.017719 0.076416
v 0.001023 -0.002051 -0.002803
v -0.006629 0.001662 0.000885
v -0.011359 0.009560 0.001973
v -0.011359 0.018628 0.000045
v -0.006629 0.025402 -0.004162
v 0.001023 0.027293 -0.009041
v 0.008675 0.023580 -0.012729
v 0.013405 0.015681 -0.013816
v 0.013405 0.006614 -0.011889
v 0.008675 -0.000160 -0.007682
v -0.002231 0.012621 -0.020565
v -0.003343 0.003985 -0.017383
v -0.002786 -0.001353 -0.009824
v -0.000775 -0.001353 -0.000774
v 0.001923 0.003985 0.006309
v 0.004277 0.012621 0.008721
v 0.005388 0.021257 0.005539
v 0.004832 0.026595 -0.002020
v 0.002821 0.026595 -0.011070
v 0.000123 0.021257 -0.018153
v -0.036240 0.019781 -0.013007
v -0.037351 0.011145 -0.009825
v -0.036795 0.005807 -0.002266
v -0.034784 0.005807 0.006784
v -0.032086 0.011145 0.013867
v -0.029732 0.019781 0.016279
v -0.028620 0.028417 0.013097
v -0.029177 0.033755 0.005538
v -0.031188 0.033755 -0.003512
v -0.033886 0.028417 -0.010595
v -0.032986 0.034768 0.001018
v -0.041772 0.031937 0.001872
v -0.047202 0.024462 0.002636
v -0.047202 0.015199 0.003018
v -0.041772 0.007687 0.002872
v -0.032986 0.004794 0.002254
v -0.024200 0.007626 0.001400
v -0.018770 0.015101 0.000636
v -0.018770 0.024363 0.000254
v -0.024200 0.031876 0.000400
v -0.030758 0.035863 0.027558
v -0.039544 0.033031 0.028412
v -0.044974 0.025556 0.029176
v -0.044974 0.016293 0.029558
v -0.039544 0.008781 0.029412
v -0.030758 0.005888 0.028794
v -0.021972 0.008720 0.027940
v -0.016542 0.016195 0.027176
v -0.016542 0.025458 0.026794
v -0.021972 0.032970 0.026940
v -0.030758 0.035746 0.030146
v -0.039011 0.032498 0.032845
v -0.044112 0.024811 0.033762
v -0.044112 0.015621 0.032545
v -0.039011 0.008438 0.029659
v -0.030758 0.006005 0.026207
v -0.022506 0.009253 0.023507
v -0.017405 0.016940 0.022591
v -0.017405 0.026130 0.023808
v -0.022506 0.033313 0.026693
v -0.021905 0.032654 0.053489
v -0.030158 0.029407 0.056189
v -0.035258 0.021720 0.057105
v -0.035258 0.012530 0.055888
v -0.030158 0.005346 0.053002
v -0.021905 0.002914 0.049550
v -0.013652 0.006161 0.046850
v -0.008552 0.013848 0.045934
v -0.008552 0.023038 0.047151
v -0.013652 0.030222 0.050037
v 0.050224 0.015576 0.076662
v 0.042652 0.017970 0.081444
v 0.037972 0.025150 0.084978
v 0.037972 0.034373 0.085914
v 0.042652 0.042116 0.083895
v 0.050224 0.045422 0.079691
v 0.057797 0.043028 0.074909
v 0.062477 0.035849 0.071375
v 0.062477 0.026626 0.070439
v 0.057797 0.018882 0.072458
v 0.004045 0.023397 -0.000381
v -0.003528 0.025791 0.004401
v -0.008208 0.032971 0.007935
v -0.008208 0.042194 0.008871
v -0.003528 0.049937 0.006852
v 0.004045 0.053244 0.002649
v 0.011617 0.050850 -0.002133
v 0.016297 0.043670 -0.005667
v 0.016297 0.034447 -0.006604
v 0.011617 0.026703 -0.004584
v -0.000445 0.038320 -0.013178
v 0.001458 0.029572 -0.010773
v 0.004349 0.024165 -0.003819
v 0.007124 0.024165 0.005026
v 0.008722 0.029572 0.012385
v 0.008534 0.038320 0.015446
v 0.006632 0.047069 0.013041
v 0.003741 0.052476 0.006087
v 0.000966 0.052476 -0.002758
v -0.000632 0.047069 -0.010117
v -0.021961 0.035496 -0.006429
v -0.020058 0.026748 -0.004024
v -0.017168 0.021341 0.002930
v -0.014393 0.021341 0.011775
v -0.012794 0.026748 0.019134
v -0.012982 0.035496 0.022195
v -0.014885 0.044245 0.019790
v -0.017776 0.049652 0.012836
v -0.020550 0.049652 0.003991
v -0.022149 0.044245 -0.003368
v -0.017472 0.050144 0.011113
v -0.025967 0.047855 0.008193
v -0.031218 0.040845 0.005155
v -0.031218 0.031792 0.003158
v -0.025967 0.024154 0.002967
v -0.017472 0.020848 0.004653
v -0.008976 0.023138 0.007573
v -0.003726 0.030148 0.010611
v -0.003726 0.039201 0.012608
v -0.008976 0.046839 0.012800
v -0.023428 0.045523 0.032067
v -0.031924 0.043234 0.029147
v -0.037174 0.036224 0.026109
v -0.037174 0.027171 0.024112
v -0.031924 0.019533 0.023920
v -0.023428 0.016227 0.025606
v -0.014933 0.018517 0.028526
v -0.009682 0.025527 0.031565
v -0.009682 0.034580 0.033561
v -0.014933 0.042218 0.033753
v -0.023428 0.045303 0.032939
v -0.030701 0.041185 0.036951
v -0.035195 0.033128 0.037863
v -0.035195 0.024211 0.035328
v -0.030701 0.017839 0.030313
v -0.023428 0.016447 0.024735
v -0.016156 0.020566 0.020723
v -0.011662 0.028623 0.019811
v -0.011662 0.037540 0.022346
v -0.016156 0.043911 0.027360
v -0.013277 0.041254 0.047184
v -0.020549 0.037135 0.051195
v -0.025043 0.029078 0.052108
v -0.025043 0.020161 0.049572
v -0.020549 0.013789 0.044558
v -0.013277 0.012397 0.038979
v -0.006005 0.016516 0.034968
v -0.001510 0.024573 0.034055
v -0.001510 0.033490 0.036591
v -0.006005 0.039861 0.041605
f 1 2 13
f 2 14 13
f 2 3 14
f 3 15 14
f 3 4 15
f 4 16 15
f 4 5 16
f 5 17 16
f 5 6 17
f 6 18 17
f 6 7 18
f 7 19 18
f 7 8 19
f 8 20 19
f 8 9 20
f 9 21 20
f 9 10 21
f 10 22 21
f 10 11 22
f 11 23 22
f 11 12 23
f 12 24 23
f 13 14 25
f 14 26 25
f 14 15 26
f 15 27 26
f 15 16 27
f 16 28 27
f 16 17 28
f 17 29 28
f 17 18 29
f 18 30 29
f 18 19 30
f 19 31 30
f 19 20 31
f 20 32 31
f 20 21 32
f 21 33 32
f 21 22 33
f 22 34 33
f 22 23 34
f 23 35 34
f 23 24 35
f 24 36 35
f 25 26 37
f 26 38 37
f 26 27 38
f 27 39 38
f 27 28 39
f 28 40 39
f 28 29 40
f 29 41 40
f 29 30 41
f 30 42 41
f 30 31 42
f 31 43 42
f 31 32 43
f 32 44 43
f 32 33 44
f 33 45 44
f 33 34 45
f 34 46 45
f 34 35 46
f 35 47 46
f 35 36 47
f 36 48 47
f 37 38 49
f 38 50 49
f 38 39 50
f 39 51 50
f 39 40 51
f 40 52 51
f 40 41 52
f 41 53 52
f 41 42 53
f 42 54 53
f 42 43 54
f 43 55 54
f 43 44 55
f 44 56 55
f 44 45 56
f 45 57 56
f 45 46 57
f 46 58 57
f 46 47 58
f 47 59 58
f 47 48 59
f 48 60 59
f 49 50 61
f 50 62 61
f 50 51 62
f 51 63 62
f 51 52 63
f 52 64 63
f 52 53 64
f 53 65 64
f 53 54 65
f 54 66 65
f 54 55 66
f 55 67 66
f 55 56 67
f 56 68 67
f 56 57 68
f 57 69 68
f 57 58 69
f 58 70 69
f 58 59 70
f 59 71 70
f 59 60 71
f 60 72 71
f 61 62 73
f 62 74 73
f 62 63 74
f 63 75 74
f 63 64 75
f 64 76 75
f 64 65 76
f 65 77 76
f 65 66 77
f 66 78 77
f 66 67 78
f 67 79 78
f 67 68 79
f 68 80 79
f 68 69 80
f 69 81 80
f 69 70 81
f 70 82 81
f 70 71 82
f 71 83 82
f 71 72 83
f 72 84 83
f 73 74 85
f 74 86 85
f 74 75 86
f 75 87 86
f 75 76 87
f 76 88 87
f 76 77 88
f 77 89 88
f 77 78 89
f 78 90 89
f 78 79 90
f 79 91 90
f 79 80 91
f 80 92 91
f 80 81 92
f 81 93 92
f 81 82 93
f 82 94 93
f 82 83 94
f 83 95 94
f 83 84 95
f 84 96 95
f 85 86 97
f 86 98 97
f 86 87 98
f 87 99 98
f 87 88 99
f 88 100 99
f 88 89 100
f 89 101 100
f 89 90 101
f 90 102 101
f 90 91 102
f 91 103 102
f 91 92 103
f 92 104 103
f 92 93 104
f 93 105 104
f 93 94 105
f 94 106 105
f 94 95 106
f 95 107 106
f 95 96 107
f 96 108 107
f 97 98 109
f 98 110 109
f 98 99 110
f 99 111 110
f 99 100 111
f 100 112 111
f 100 101 112
f 101 113 112
f 101 102 113
f 102 114 113
f 102 103 114
f 103 115 114
f 103 104 115
f 104 116 115
f 104 105 116
f 105 117 116
f 105 106 117
f 106 118 117
f 106 107 118
f 107 119 118
f 107 108 119
f 108 120 119
f 109 110 121
f 110 122 121
f 110 111 122
f 111 123 122
f 111 112 123
f 112 124 123
f 112 113 124
f 113 125 124
f 113 114 125
f 114 126 125
f 114 115 126
f 115 127 126
f 115 116 127
f 116 128 127
f 116 117 128
f 117 129 128
f 117 118 129
f 118 130 129
f 118 119 130
f 119 131 130
f 119 120 131
f 120 132 131
f 121 122 133
f 122 134 133
f 122 123 134
f 123 135 134
f 123 124 135
f 124 136 135
f 124 125 136
f 125 137 136
f 125 126 137
f 126 138 137
f 126 127 138
f 127 139 138
f 127 128 139
f 128 140 139
f 128 129 140
f 129 141 140
f 129 130 141
f 130 142 141
f 130 131 142
f 131 143 142
f 131 132 143
f 132 144 143
f 145 146 155
f 146 156 155
f 146 147 156
f 147 157 156
f 147 148 157
f 148 158 157
f 148 149 158
f 149 159 158
f 149 150 159
f 150 160 159
f 150 151 160
f 151 161 160
f 151 152 161
f 152 162 161
f 152 153 162
f 153 163 162
f 153 154 163
f 154 164 163
f 154 145 164
f 145 155 164
f 165 166 175
f 166 176 175
f 166 167 176
f 167 177 176
f 167 168 177
f 168 178 177
f 168 169 178
f 169 179 178
f 169 170 179
f 170 180 179
f 170 171 180
f 171 181 180
f 171 172 181
f 172 182 181
f 172 173 182
f 173 183 182
f 173 174 183
f 174 184 183
f 174 165 184
f 165 175 184
f 185 186 195
f 186 196 195
f 186 187 196
f 187 197 196
f 187 188 197
f 188 198 197
f 188 189 198
f 189 199 198
f 189 190 199
f 190 200 199
f 190 191 200
f 191 201 200
f 191 192 201
f 192 202 201
f 192 193 202
f 193 203 202
f 193 194 203
f 194 204 203
f 194 185 204
f 185 195 204
f 205 206 215
f 206 216 215
f 206 207 216
f 207 217 216
f 207 208 217
f 208 218 217
f 208 209 218
f 209 219 218
f 209 210 219
f 210 220 219
f 210 211 220
f 211 221 220
f 211 212 221
f 212 222 221
f 212 213 222
f 213 223 222
f 213 214 223
f 214 224 223
f 214 205 224
f 205 215 224
f 225 226 235
f 226 236 235
f 226 227 236
f 227 237 236
f 227 228 237
f 228 238 237
f 228 229 238
f 229 239 238
f 229 230 239
f 230 240 239
f 230 231 240
f 231 241 240
f 231 232 241
f 232 242 241
f 232 233 242
f 233 243 242
f 233 234 243
f 234 244 243
f 234 225 244
f 225 235 244
f 245 246 255
f 246 256 255
f 246 247 256
f 247 257 256
f 247 248 257
f 248 258 257
f 248 249 258
f 249 259 258
f 249 250 259
f 250 260 259
f 250 251 260
f 251 261 260
f 251 252 261
f 252 262 261
f 252 253 262
f 253 263 262
f 253 254 263
f 254 264 263
f 254 245 264
f 245 255 264
f 265 266 275
f 266 276 275
f 266 267 276
f 267 277 276
f 267 268 277
f 268 278 277
f 268 269 278
f 269 279 278
f 269 270 279
f 270 280 279
f 270 271 280
f 271 281 280
f 271 272 281
f 272 282 281
f 272 273 282
f 273 283 282
f 273 274 283
f 274 284 283
f 274 265 284
f 265 275 284
f 285 286 295
f 286 296 295
f 286 287 296
f 287 297 296
f 287 288 297
f 288 298 297
f 288 289 298
f 289 299 298
f 289 290 299
f 290 300 299
f 290 291 300
f 291 301 300
f 291 292 301
f 292 302 301
f 292 293 302
f 293 303 302
f 293 294 303
f 294 304 303
f 294 285 304
f 285 295 304
f 305 306 315
f 306 316 315
f 306 307 316
f 307 317 316
f 307 308 317
f 308 318 317
f 308 309 318
f 309 319 318
f 309 310 319
f 310 320 319
f 310 311 320
f 311 321 320
f 311 312 321
f 312 322 321
f 312 313 322
f 313 323 322
f 313 314 323
f 314 324 323
f 314 305 324
f 305 315 324
f 325 326 335
f 326 336 335
f 326 327 336
f 327 337 336
f 327 328 337
f 328 338 337
f 328 329 338
f 329 339 338
f 329 330 339
f 330 340 339
f 330 331 340
f 331 341 340
f 331 332 341
f 332 342 341
f 332 333 342
f 333 343 342
f 333 334 343
f 334 344 343
f 334 325 344
f 325 335 344
f 345 346 355
f 346 356 355
f 346 347 356
f 347 357 356
f 347 348 357
f 348 358 357
f 348 349 358
f 349 359 358
f 349 350 359
f 350 360 359
f 350 351 360
f 351 361 360
f 351 352 361
f 352 362 361
f 352 353 362
f 353 363 362
f 353 354 363
f 354 364 363
f 354 345 364
f 345 355 364
f 365 366 375
f 366 376 375
f 366 367 376
f 367 377 376
f 367 368 377
f 368 378 377
f 368 369 378
f 369 379 378
f 369 370 379
f 370 380 379
f 370 371 380
f 371 381 380
f 371 372 381
f 372 382 381
f 372 373 382
f 373 383 382
f 373 374 383
f 374 384 383
f 374 365 384
f 365 375 384
f 385 386 395
f 386 396 395
f 386 387 396
f 387 397 396
f 387 388 397
f 388 398 397
f 388 389 398
f 389 399 398
f 389 390 399
f 390 400 399
f 390 391 400
f 391 401 400
f 391 392 401
f 392 402 401
f 392 393 402
f 393 403 402
f 393 394 403
f 394 404 403
f 394 385 404
f 385 395 404
f 405 406 415
f 406 416 415
f 406 407 416
f 407 417 416
f 407 408 417
f 408 418 417
f 408 409 418
f 409 419 418
f 409 410 419
f 410 420 419
f 410 411 420
f 411 421 420
f 411 412 421
f 412 422 421
f 412 413 422
f 413 423 422
f 413 414 423
f 414 424 423
f 414 405 424
f 405 415 424
f 425 426 435
f 426 436 435
f 426 427 436
f 427 437 436
f 427 428 437
f 428 438 437
f 428 429 438
f 429 439 438
f 429 430 439
f 430 440 439
f 430 431 440
f 431 441 440
f 431 432 441
f 432 442 441
f 432 433 442
f 433 443 442
f 433 434 443
f 434 444 443
f 434 425 444
f 425 435 444
f 445 446 455
f 446 456 455
f 446 447 456
f 447 457 456
f 447 448 457
f 448 458 457
f 448 449 458
f 449 459 458
f 449 450 459
f 450 460 459
f 450 451 460
f 451 461 460
f 451 452 461
f 452 462 461
f 452 453 462
f 453 463 462
f 453 454 463
f 454 464 463
f 454 445 464
f 445 455 464
f 465 466 475
f 466 476 475
f 466 467 476
f 467 477 476
f 467 468 477
f 468 478 477
f 468 469 478
f 469 479 478
f 469 470 479
f 470 480 479
f 470 471 480
f 471 481 480
f 471 472 481
f 472 482 481
f 472 473 482
f 473 483 482
f 473 474 483
f 474 484 483
f 474 465 484
f 465 475 484
f 485 486 495
f 486 496 495
f 486 487 496
f 487 497 496
f 487 488 497
f 488 498 497
f 488 489 498
f 489 499 498
f 489 490 499
f 490 500 499
f 490 491 500
f 491 501 500
f 491 492 501
f 492 502 501
f 492 493 502
f 493 503 502
f 493 494 503
f 494 504 503
f 494 485 504
f 485 495 504
f 505 506 515
f 506 516 515
f 506 507 516
f 507 517 516
f 507 508 517
f 508 518 517
f 508 509 518
f 509 519 518
f 509 510 519
f 510 520 519
f 510 511 520
f 511 521 520
f 511 512 521
f 512 522 521
f 512 513 522
f 513 523 522
f 513 514 523
f 514 524 523
f 514 505 524
f 505 515 524
f 525 526 535
f 526 536 535
f 526 527 536
f 527 537 536
f 527 528 537
f 528 538 537
f 528 529 538
f 529 539 538
f 529 530 539
f 530 540 539
f 530 531 540
f 531 541 540
f 531 532 541
f 532 542 541
f 532 533 542
f 533 543 542
f 533 534 543
f 534 544 543
f 534 525 544
f 525 535 544
f 545 546 555
f 546 556 555
f 546 547 556
f 547 557 556
f 547 548 557
f 548 558 557
f 548 549 558
f 549 559 558
f 549 550 559
f 550 560 559
f 550 551 560
f 551 561 560
f 551 552 561
f 552 562 561
f 552 553 562
f 553 563 562
f 553 554 563
f 554 564 563
f 554 545 564
f 545 555 564
f 565 566 575
f 566 576 575
f 566 567 576
f 567 577 576
f 567 568 577
f 568 578 577
f 568 569 578
f 569 579 578
f 569 570 579
f 570 580 579
f 570 571 580
f 571 581 580
f 571 572 581
f 572 582 581
f 572 573 582
f 573 583 582
f 573 574 583
f 574 584 583
f 574 565 584
f 565 575 584
f 585 586 595
f 586 596 595
f 586 587 596
f 587 597 596
f 587 588 597
f 588 598 597
f 588 589 598
f 589 599 598
f 589 590 599
f 590 600 599
f 590 591 600
f 591 601 600
f 591 592 601
f 592 602 601
f 592 593 602
f 593 603 602
f 593 594 603
f 594 604 603
f 594 585 604
f 585 595 604
f 605 606 615
f 606 616 615
f 606 607 616
f 607 617 616
f 607 608 617
f 608 618 617
f 608 609 618
f 609 619 618
f 609 610 619
f 610 620 619
f 610 611 620
f 611 621 620
f 611 612 621
f 612 622 621
f 612 613 622
f 613 623 622
f 613 614 623
f 614 624 623
f 614 605 624
f 605 615 624
f 625 626 635
f 626 636 635
f 626 627 636
f 627 637 636
f 627 628 637
f 628 638 637
f 628 629 638
f 629 639 638
f 629 630 639
f 630 640 639
f 630 631 640
f 631 641 640
f 631 632 641
f 632 642 641
f 632 633 642
f 633 643 642
f 633 634 643
f 634 644 643
f 634 625 644
f 625 635 644
f 645 646 655
f 646 656 655
f 646 647 656
f 647 657 656
f 647 648 657
f 648 658 657
f 648 649 658
f 649 659 658
f 649 650 659
f 650 660 659
f 650 651 660
f 651 661 660
f 651 652 661
f 652 662 661
f 652 653 662
f 653 663 662
f 653 654 663
f 654 664 663
f 654 645 664
f 645 655 664
f 665 666 675
f 666 676 675
f 666 667 676
f 667 677 676
f 667 668 677
f 668 678 677
f 668 669 678
f 669 679 678
f 669 670 679
f 670 680 679
f 670 671 680
f 671 681 680
f 671 672 681
f 672 682 681
f 672 673 682
f 673 683 682
f 673 674 683
f 674 684 683
f 674 665 684
f 665 675 684
f 685 686 695
f 686 696 695
f 686 687 696
f 687 697 696
f 687 688 697
f 688 698 697
f 688 689 698
f 689 699 698
f 689 690 699
f 690 700 699
f 690 691 700
f 691 701 700
f 691 692 701
f 692 702 701
f 692 693 702
f 693 703 702
f 693 694 703
f 694 704 703
f 694 685 704
f 685 695 704
f 705 706 715
f 706 716 715
f 706 707 716
f 707 717 716
f 707 708 717
f 708 718 717
f 708 709 718
f 709 719 718
f 709 710 719
f 710 720 719
f 710 711 720
f 711 721 720
f 711 712 721
f 712 722 721
f 712 713 722
f 713 723 722
f 713 714 723
f 714 724 723
f 714 705 724
f 705 715 724
f 725 726 735
f 726 736 735
f 726 727 736
f 727 737 736
f 727 728 737
f 728 738 737
f 728 729 738
f 729 739 738
f 729 730 739
f 730 740 739
f 730 731 740
f 731 741 740
f 731 732 741
f 732 742 741
f 732 733 742
f 733 743 742
f 733 734 743
f 734 744 743
f 734 725 744
f 725 735 744
f 745 746 755
f 746 756 755
f 746 747 756
f 747 757 756
f 747 748 757
f 748 758 757
f 748 749 758
f 749 759 758
f 749 750 759
f 750 760 759
f 750 751 760
f 751 761 760
f 751 752 761
f 752 762 761
f 752 753 762
f 753 763 762
f 753 754 763
f 754 764 763
f 754 745 764
f 745 755 764
f 765 766 775
f 766 776 775
f 766 767 776
f 767 777 776
f 767 768 777
f 768 778 777
f 768 769 778
f 769 779 778
f 769 770 779
f 770 780 779
f 770 771 780
f 771 781 780
f 771 772 781
f 772 782 781
f 772 773 782
f 773 783 782
f 773 774 783
f 774 784 783
f 774 765 784
f 765 775 784
f 785 786 795
f 786 796 795
f 786 787 796
f 787 797 796
f 787 788 797
f 788 798 797
f 788 789 798
f 789 799 798
f 789 790 799
f 790 800 799
f 790 791 800
f 791 801 800
f 791 792 801
f 792 802 801
f 792 793 802
f 793 803 802
f 793 794 803
f 794 804 803
f 794 785 804
f 785 795 804
f 805 806 815
f 806 816 815
f 806 807 816
f 807 817 816
f 807 808 817
f 808 818 817
f 808 809 818
f 809 819 818
f 809 810 819
f 810 820 819
f 810 811 820
f 811 821 820
f 811 812 821
f 812 822 821
f 812 813 822
f 813 823 822
f 813 814 823
f 814 824 823
f 814 805 824
f 805 815 824
f 825 826 835
f 826 836 835
f 826 827 836
f 827 837 836
f 827 828 837
f 828 838 837
f 828 829 838
f 829 839 838
f 829 830 839
f 830 840 839
f 830 831 840
f 831 841 840
f 831 832 841
f 832 842 841
f 832 833 842
f 833 843 842
f 833 834 843
f 834 844 843
f 834 825 844
f 825 835 844
f 845 846 855
f 846 856 855
f 846 847 856
f 847 857 856
f 847 848 857
f 848 858 857
f 848 849 858
f 849 859 858
f 849 850 859
f 850 860 859
f 850 851 860
f 851 861 860
f 851 852 861
f 852 862 861
f 852 853 862
f 853 863 862
f 853 854 863
f 854 864 863
f 854 845 864
f 845 855 864
f 865 866 875
f 866 876 875
f 866 867 876
f 867 877 876
f 867 868 877
f 868 878 877
f 868 869 878
f 869 879 878
f 869 870 879
f 870 880 879
f 870 871 880
f 871 881 880
f 871 872 881
f 872 882 881
f 872 873 882
f 873 883 882
f 873 874 883
f 874 884 883
f 874 865 884
f 865 875 884
f 885 886 895
f 886 896 895
f 886 887 896
f 887 897 896
f 887 888 897
f 888 898 897
f 888 889 898
f 889 899 898
f 889 890 899
f 890 900 899
f 890 891 900
f 891 901 900
f 891 892 901
f 892 902 901
f 892 893 902
f 893 903 902
f 893 894 903
f 894 904 903
f 894 885 904
f 885 895 904
f 905 906 915
f 906 916 915
f 906 907 916
f 907 917 916
f 907 908 917
f 908 918 917
f 908 909 918
f 909 919 918
f 909 910 919
f 910 920 919
f 910 911 920
f 911 921 920
f 911 912 921
f 912 922 921
f 912 913 922
f 913 923 922
f 913 914 923
f 914 924 923
f 914 905 924
f 905 915 924
f 925 926 935
f 926 936 935
f 926 927 936
f 927 937 936
f 927 928 937
f 928 938 937
f 928 929 938
f 929 939 938
f 929 930 939
f 930 940 939
f 930 931 940
f 931 941 940
f 931 932 941
f 932 942 941
f 932 933 942
f 933 943 942
f 933 934 943
f 934 944 943
f 934 925 944
f 925 935 944
f 945 946 955
f 946 956 955
f 946 947 956
f 947 957 956
f 947 948 957
f 948 958 957
f 948 949 958
f 949 959 958
f 949 950 959
f 950 960 959
f 950 951 960
f 951 961 960
f 951 952 961
f 952 962 961
f 952 953 962
f 953 963 962
f 953 954 963
f 954 964 963
f 954 945 964
f 945 955 964
f 965 966 975
f 966 976 975
f 966 967 976
f 967 977 976
f 967 968 977
f 968 978 977
f 968 969 978
f 969 979 978
f 969 970 979
f 970 980 979
f 970 971 980
f 971 981 980
f 971 972 981
f 972 982 981
f 972 973 982
f 973 983 982
f 973 974 983
f 974 984 983
f 974 965 984
f 965 975 984
f 985 986 995
f 986 996 995
f 986 987 996
f 987 997 996
f 987 988 997
f 988 998 997
f 988 989 998
f 989 999 998
f 989 990 999
f 990 1000 999
f 990 991 1000
f 991 1001 1000
f 991 992 1001
f 992 1002 1001
f 992 993 1002
f 993 1003 1002
f 993 994 1003
f 994 1004 1003
f 994 985 1004
f 985 995 1004
f 1005 1006 1015
f 1006 1016 1015
f 1006 1007 1016
f 1007 1017 1016
f 1007 1008 1017
f 1008 1018 1017
f 1008 1009 1018
f 1009 1019 1018
f 1009 1010 1019
f 1010 1020 1019
f 1010 1011 1020
f 1011 1021 1020
f 1011 1012 1021
f 1012 1022 1021
f 1012 1013 1022
f 1013 1023 1022
f 1013 1014 1023
f 1014 1024 1023
f 1014 1005 1024
f 1005 1015 1024
f 1025 1026 1035
f 1026 1036 1035
f 1026 1027 1036
f 1027 1037 1036
f 1027 1028 1037
f 1028 1038 1037
f 1028 1029 1038
f 1029 1039 1038
f 1029 1030 1039
f 1030 1040 1039
f 1030 1031 1040
f 1031 1041 1040
f 1031 1032 1041
f 1032 1042 1041
f 1032 1033 1042
f 1033 1043 1042
f 1033 1034 1043
f 1034 1044 1043
f 1034 1025 1044
f 1025 1035 1044
f 1045 1046 1055
f 1046 1056 1055
f 1046 1047 1056
f 1047 1057 1056
f 1047 1048 1057
f 1048 1058 1057
f 1048 1049 1058
f 1049 1059 1058
f 1049 1050 1059
f 1050 1060 1059
f 1050 1051 1060
f 1051 1061 1060
f 1051 1052 1061
f 1052 1062 1061
f 1052 1053 1062
f 1053 1063 1062
f 1053 1054 1063
f 1054 1064 1063
f 1054 1045 1064
f 1045 1055 1064
f 1065 1066 1075
f 1066 1076 1075
f 1066 1067 1076
f 1067 1077 1076
f 1067 1068 1077
f 1068 1078 1077
f 1068 1069 1078
f 1069 1079 1078
f 1069 1070 1079
f 1070 1080 1079
f 1070 1071 1080
f 1071 1081 1080
f 1071 1072 1081
f 1072 1082 1081
f 1072 1073 1082
f 1073 1083 1082
f 1073 1074 1083
f 1074 1084 1083
f 1074 1065 1084
f 1065 1075 1084
f 1085 1086 1095
f 1086 1096 1095
f 1086 1087 1096
f 1087 1097 1096
f 1087 1088 1097
f 1088 1098 1097
f 1088 1089 1098
f 1089 1099 1098
f 1089 1090 1099
f 1090 1100 1099
f 1090 1091 1100
f 1091 1101 1100
f 1091 1092 1101
f 1092 1102 1101
f 1092 1093 1102
f 1093 1103 1102
f 1093 1094 1103
f 1094 1104 1103
f 1094 1085 1104
f 1085 1095 1104
f 1105 1106 1115
f 1106 1116 1115
f 1106 1107 1116
f 1107 1117 1116
f 1107 1108 1117
f 1108 1118 1117
f 1108 1109 1118
f 1109 1119 1118
f 1109 1110 1119
f 1110 1120 1119
f 1110 1111 1120
f 1111 1121 1120
f 1111 1112 1121
f 1112 1122 1121
f 1112 1113 1122
f 1113 1123 1122
f 1113 1114 1123
f 1114 1124 1123
f 1114 1105 1124
f 1105 1115 1124
f 1125 1126 1135
f 1126 1136 1135
f 1126 1127 1136
f 1127 1137 1136
f 1127 1128 1137
f 1128 1138 1137
f 1128 1129 1138
f 1129 1139 1138
f 1129 1130 1139
f 1130 1140 1139
f 1130 1131 1140
f 1131 1141 1140
f 1131 1132 1141
f 1132 1142 1141
f 1132 1133 1142
f 1133 1143 1142
f 1133 1134 1143
f 1134 1144 1143
f 1134 1125 1144
f 1125 1135 1144
f 1145 1146 1155
f 1146 1156 1155
f 1146 1147 1156
f 1147 1157 1156
f 1147 1148 1157
f 1148 1158 1157
f 1148 1149 1158
f 1149 1159 1158
f 1149 1150 1159
f 1150 1160 1159
f 1150 1151 1160
f 1151 1161 1160
f 1151 1152 1161
f 1152 1162 1161
f 1152 1153 1162
f 1153 1163 1162
f 1153 1154 1163
f 1154 1164 1163
f 1154 1145 1164
f 1145 1155 1164
f 1165 1166 1175
f 1166 1176 1175
f 1166 1167 1176
f 1167 1177 1176
f 1167 1168 1177
f 1168 1178 1177
f 1168 1169 1178
f 1169 1179 1178
f 1169 1170 1179
f 1170 1180 1179
f 1170 1171 1180
f 1171 1181 1180
f 1171 1172 1181
f 1172 1182 1181
f 1172 1173 1182
f 1173 1183 1182
f 1173 1174 1183
f 1174 1184 1183
f 1174 1165 1184
f 1165 1175 1184
