# Full-Body 3D Mesh - Frame 212
v 0.004858 -0.650516 -0.075629
v 0.038666 -0.650516 -0.080490
v 0.069735 -0.650516 -0.094679
v 0.095548 -0.650516 -0.117046
v 0.114014 -0.650516 -0.145780
v 0.123636 -0.650516 -0.178552
v 0.123636 -0.650516 -0.212707
v 0.114014 -0.650516 -0.245479
v 0.095548 -0.650516 -0.274213
v 0.069735 -0.650516 -0.296580
v 0.038666 -0.650516 -0.310769
v 0.004858 -0.650516 -0.315629
v 0.004858 -0.650516 -0.075629
v 0.033299 -0.632238 -0.080490
v 0.059436 -0.615440 -0.094679
v 0.081151 -0.601485 -0.117046
v 0.096685 -0.591501 -0.145780
v 0.104781 -0.586299 -0.178552
v 0.104781 -0.586299 -0.212707
v 0.096685 -0.591501 -0.245479
v 0.081151 -0.601485 -0.274213
v 0.059436 -0.615440 -0.296580
v 0.033299 -0.632238 -0.310769
v 0.004858 -0.650516 -0.315629
v 0.004858 -0.650516 -0.075629
v 0.018902 -0.619763 -0.080490
v 0.031809 -0.591501 -0.094679
v 0.042532 -0.568021 -0.117046
v 0.050203 -0.551224 -0.145780
v 0.054200 -0.542471 -0.178552
v 0.054200 -0.542471 -0.212707
v 0.050203 -0.551224 -0.245479
v 0.042532 -0.568021 -0.274213
v 0.031809 -0.591501 -0.296580
v 0.018902 -0.619763 -0.310769
v 0.004858 -0.650516 -0.315629
v 0.004858 -0.650516 -0.075629
v 0.000046 -0.617052 -0.080490
v -0.004375 -0.586299 -0.094679
v -0.008049 -0.560749 -0.117046
v -0.010677 -0.542471 -0.145780
v -0.012046 -0.532946 -0.178552
v -0.012046 -0.532946 -0.212707
v -0.010677 -0.542471 -0.245479
v -0.008049 -0.560749 -0.274213
v -0.004375 -0.586299 -0.296580
v 0.000046 -0.617052 -0.310769
v 0.004858 -0.650516 -0.315629
v 0.004858 -0.650516 -0.075629
v -0.017282 -0.624965 -0.080490
v -0.037628 -0.601485 -0.094679
v -0.054532 -0.581977 -0.117046
v -0.066624 -0.568021 -0.145780
v -0.072926 -0.560749 -0.178552
v -0.072926 -0.560749 -0.212707
v -0.066624 -0.568021 -0.245479
v -0.054532 -0.581977 -0.274213
v -0.037628 -0.601485 -0.296580
v -0.017282 -0.624965 -0.310769
v 0.004858 -0.650516 -0.315629
v 0.004858 -0.650516 -0.075629
v -0.027581 -0.640991 -0.080490
v -0.057391 -0.632238 -0.094679
v -0.082159 -0.624965 -0.117046
v -0.099877 -0.619763 -0.145780
v -0.109110 -0.617052 -0.178552
v -0.109110 -0.617052 -0.212707
v -0.099877 -0.619763 -0.245479
v -0.082159 -0.624965 -0.274213
v -0.057391 -0.632238 -0.296580
v -0.027581 -0.640991 -0.310769
v 0.004858 -0.650516 -0.315629
v 0.004858 -0.650516 -0.075629
v -0.027581 -0.660040 -0.080490
v -0.057391 -0.668793 -0.094679
v -0.082159 -0.676066 -0.117046
v -0.099877 -0.681268 -0.145780
v -0.109110 -0.683979 -0.178552
v -0.109110 -0.683979 -0.212707
v -0.099877 -0.681268 -0.245479
v -0.082159 -0.676066 -0.274213
v -0.057391 -0.668793 -0.296580
v -0.027581 -0.660040 -0.310769
v 0.004858 -0.650516 -0.315629
v 0.004858 -0.650516 -0.075629
v -0.017282 -0.676066 -0.080490
v -0.037628 -0.699546 -0.094679
v -0.054532 -0.719054 -0.117046
v -0.066624 -0.733010 -0.145780
v -0.072926 -0.740282 -0.178552
v -0.072926 -0.740282 -0.212707
v -0.066624 -0.733010 -0.245479
v -0.054532 -0.719054 -0.274213
v -0.037628 -0.699546 -0.296580
v -0.017282 -0.676066 -0.310769
v 0.004858 -0.650516 -0.315629
v 0.004858 -0.650516 -0.075629
v 0.000046 -0.683979 -0.080490
v -0.004375 -0.714732 -0.094679
v -0.008049 -0.740282 -0.117046
v -0.010677 -0.758560 -0.145780
v -0.012046 -0.768085 -0.178552
v -0.012046 -0.768085 -0.212707
v -0.010677 -0.758560 -0.245479
v -0.008049 -0.740282 -0.274213
v -0.004375 -0.714732 -0.296580
v 0.000046 -0.683979 -0.310769
v 0.004858 -0.650516 -0.315629
v 0.004858 -0.650516 -0.075629
v 0.018902 -0.681268 -0.080490
v 0.031809 -0.709530 -0.094679
v 0.042532 -0.733010 -0.117046
v 0.050203 -0.749807 -0.145780
v 0.054200 -0.758560 -0.178552
v 0.054200 -0.758560 -0.212707
v 0.050203 -0.749807 -0.245479
v 0.042532 -0.733010 -0.274213
v 0.031809 -0.709530 -0.296580
v 0.018902 -0.681268 -0.310769
v 0.004858 -0.650516 -0.315629
v 0.004858 -0.650516 -0.075629
v 0.033299 -0.668793 -0.080490
v 0.059436 -0.685591 -0.094679
v 0.081151 -0.699546 -0.117046
v 0.096685 -0.709530 -0.145780
v 0.104781 -0.714732 -0.178552
v 0.104781 -0.714732 -0.212707
v 0.096685 -0.709530 -0.245479
v 0.081151 -0.699546 -0.274213
v 0.059436 -0.685591 -0.296580
v 0.033299 -0.668793 -0.310769
v 0.004858 -0.650516 -0.315629
v 0.004858 -0.650516 -0.075629
v 0.038666 -0.650516 -0.080490
v 0.069735 -0.650516 -0.094679
v 0.095548 -0.650516 -0.117046
v 0.114014 -0.650516 -0.145780
v 0.123636 -0.650516 -0.178552
v 0.123636 -0.650516 -0.212707
v 0.114014 -0.650516 -0.245479
v 0.095548 -0.650516 -0.274213
v 0.069735 -0.650516 -0.296580
v 0.038666 -0.650516 -0.310769
v 0.004858 -0.650516 -0.315629
v 0.166203 -0.449397 -0.062245
v 0.165272 -0.472905 -0.054653
v 0.163593 -0.487434 -0.034722
v 0.161807 -0.487434 -0.010066
v 0.160597 -0.472905 0.009899
v 0.160423 -0.449397 0.017546
v 0.161354 -0.425889 0.009954
v 0.163033 -0.411360 -0.009977
v 0.164819 -0.411360 -0.034634
v 0.166030 -0.425889 -0.054598
v -0.165986 -0.444018 -0.086306
v -0.166916 -0.467527 -0.078714
v -0.168595 -0.482055 -0.058783
v -0.170381 -0.482055 -0.034126
v -0.171592 -0.467527 -0.014162
v -0.171765 -0.444018 -0.006515
v -0.170835 -0.420510 -0.014107
v -0.169156 -0.405981 -0.034038
v -0.167370 -0.405981 -0.058694
v -0.166159 -0.420510 -0.078659
v 0.163313 -0.457267 -0.061568
v 0.140362 -0.450762 -0.055081
v 0.126177 -0.443736 -0.036093
v 0.126177 -0.438873 -0.011854
v 0.140362 -0.438029 0.008375
v 0.163313 -0.441527 0.016869
v 0.186264 -0.448032 0.010382
v 0.200449 -0.455058 -0.008607
v 0.200449 -0.459922 -0.032845
v 0.186264 -0.460765 -0.053074
v 0.214288 -0.232402 -0.106690
v 0.191337 -0.225897 -0.100204
v 0.177152 -0.218871 -0.081215
v 0.177152 -0.214008 -0.056977
v 0.191337 -0.213164 -0.036747
v 0.214288 -0.216662 -0.028254
v 0.237240 -0.223167 -0.034740
v 0.251424 -0.230193 -0.053729
v 0.251424 -0.235057 -0.077967
v 0.237240 -0.235900 -0.098196
v 0.214288 -0.242324 -0.103297
v 0.190782 -0.238512 -0.096661
v 0.176253 -0.229360 -0.078875
v 0.176253 -0.218364 -0.056734
v 0.190782 -0.209723 -0.038695
v 0.214288 -0.206740 -0.031647
v 0.237795 -0.210552 -0.038283
v 0.252323 -0.219704 -0.056068
v 0.252323 -0.230701 -0.078209
v 0.237795 -0.239341 -0.096249
v 0.217161 -0.111586 -0.168228
v 0.193654 -0.107774 -0.161591
v 0.179126 -0.098622 -0.143806
v 0.179126 -0.087625 -0.121665
v 0.193654 -0.078985 -0.103625
v 0.217161 -0.076001 -0.096578
v 0.240668 -0.079814 -0.103214
v 0.255196 -0.088966 -0.120999
v 0.255196 -0.099962 -0.143140
v 0.240668 -0.108602 -0.161180
v -0.168875 -0.471823 -0.075166
v -0.189180 -0.475035 -0.061434
v -0.201728 -0.466399 -0.041963
v -0.201728 -0.449215 -0.024191
v -0.189180 -0.430046 -0.014906
v -0.168875 -0.416214 -0.017654
v -0.148571 -0.413002 -0.031387
v -0.136023 -0.421637 -0.050857
v -0.136023 -0.438821 -0.068629
v -0.148571 -0.457990 -0.077915
v -0.300910 -0.309246 -0.232364
v -0.321214 -0.312458 -0.218632
v -0.333763 -0.303823 -0.199162
v -0.333763 -0.286639 -0.181389
v -0.321214 -0.267470 -0.172104
v -0.300910 -0.253637 -0.174853
v -0.280606 -0.250425 -0.188585
v -0.268058 -0.259061 -0.208055
v -0.268058 -0.276245 -0.225828
v -0.280606 -0.295414 -0.235113
v -0.300910 -0.312195 -0.178031
v -0.322864 -0.311703 -0.189386
v -0.336432 -0.299652 -0.206173
v -0.336432 -0.280645 -0.221981
v -0.322864 -0.261943 -0.230771
v -0.300910 -0.250688 -0.229186
v -0.278957 -0.251181 -0.217831
v -0.265388 -0.263232 -0.201044
v -0.265388 -0.282238 -0.185236
v -0.278957 -0.300941 -0.176446
v -0.203298 -0.475031 -0.373816
v -0.225252 -0.474538 -0.385171
v -0.238820 -0.462487 -0.401958
v -0.238820 -0.443481 -0.417766
v -0.225252 -0.424778 -0.426556
v -0.203298 -0.413524 -0.424971
v -0.181344 -0.414016 -0.413616
v -0.167776 -0.426067 -0.396829
v -0.167776 -0.445074 -0.381021
v -0.181344 -0.463776 -0.372231
v 0.163313 -0.446267 -0.062227
v 0.139892 -0.448917 -0.054772
v 0.125417 -0.451751 -0.034933
v 0.125417 -0.453685 -0.010287
v 0.139892 -0.453982 0.009751
v 0.163313 -0.452527 0.017528
v 0.186734 -0.449877 0.010073
v 0.201209 -0.447043 -0.009766
v 0.201209 -0.445109 -0.034412
v 0.186734 -0.444812 -0.054450
v 0.123298 0.007531 -0.026605
v 0.099877 0.004881 -0.019150
v 0.085402 0.002047 0.000689
v 0.085402 0.000113 0.025334
v 0.099877 -0.000184 0.045373
v 0.123298 0.001271 0.053150
v 0.146719 0.003921 0.045695
v 0.161194 0.006755 0.025856
v 0.161194 0.008689 0.001210
v 0.146719 0.008986 -0.018828
v -0.168875 -0.440699 -0.086272
v -0.192235 -0.438675 -0.078438
v -0.206672 -0.438693 -0.058370
v -0.206672 -0.440744 -0.033734
v -0.192235 -0.444046 -0.013940
v -0.168875 -0.447338 -0.006548
v -0.145516 -0.449361 -0.014383
v -0.131079 -0.449344 -0.034450
v -0.131079 -0.447292 -0.059086
v -0.145516 -0.443990 -0.078881
v -0.120090 -0.014794 -0.050805
v -0.143450 -0.012771 -0.042971
v -0.157887 -0.012788 -0.022903
v -0.157887 -0.014840 0.001733
v -0.143450 -0.018142 0.021527
v -0.120090 -0.021433 0.028919
v -0.096730 -0.023457 0.021084
v -0.082293 -0.023439 0.001017
v -0.082293 -0.021388 -0.023619
v -0.096730 -0.018086 -0.043414
v 0.127258 0.004401 -0.026531
v 0.128647 -0.019011 -0.018716
v 0.127992 -0.033481 0.001318
v 0.125544 -0.033481 0.025917
v 0.122239 -0.019011 0.045687
v 0.119338 0.004401 0.053076
v 0.117950 0.027813 0.045261
v 0.118604 0.042283 0.025227
v 0.121052 0.042283 0.000627
v 0.124358 0.027813 -0.019143
v -0.116130 -0.018114 -0.050747
v -0.114741 -0.041526 -0.042932
v -0.115396 -0.055996 -0.022898
v -0.117844 -0.055996 0.001702
v -0.121149 -0.041526 0.021472
v -0.124050 -0.018114 0.028860
v -0.125438 0.005299 0.021045
v -0.124784 0.019768 0.001011
v -0.122336 0.019768 -0.023589
v -0.119031 0.005299 -0.043358
v 0.123298 -0.010950 -0.023665
v 0.099796 -0.007414 -0.016861
v 0.085271 0.000635 0.001452
v 0.085271 0.010123 0.024280
v 0.099796 0.017425 0.042904
v 0.123298 0.019752 0.050209
v 0.146801 0.016216 0.043406
v 0.161326 0.008167 0.025093
v 0.161326 -0.001321 0.002264
v 0.146801 -0.008623 -0.016359
v 0.128000 0.144994 -0.088477
v 0.104498 0.148530 -0.081673
v 0.089973 0.156579 -0.063360
v 0.089973 0.166067 -0.040532
v 0.104498 0.173369 -0.021908
v 0.128000 0.175696 -0.014603
v 0.151503 0.172160 -0.021406
v 0.166028 0.164111 -0.039719
v 0.166028 0.154623 -0.062547
v 0.151503 0.147321 -0.081171
v 0.128000 0.177727 -0.087565
v 0.104513 0.175365 -0.080223
v 0.089997 0.167265 -0.061925
v 0.089997 0.156522 -0.039660
v 0.104513 0.147239 -0.021933
v 0.128000 0.142963 -0.015514
v 0.151488 0.145325 -0.022856
v 0.166004 0.153425 -0.041154
v 0.166004 0.164168 -0.063419
v 0.151488 0.173451 -0.081147
v 0.144059 0.497413 0.066684
v 0.120572 0.495050 0.074026
v 0.106056 0.486950 0.092324
v 0.106056 0.476207 0.114589
v 0.120572 0.466925 0.132316
v 0.144059 0.462648 0.138735
v 0.167546 0.465011 0.131393
v 0.182062 0.473110 0.113095
v 0.182062 0.483853 0.090830
v 0.167546 0.493136 0.073102
v -0.120090 -0.057936 -0.007181
v -0.143597 -0.050373 -0.008341
v -0.158125 -0.030487 -0.010495
v -0.158125 -0.005875 -0.012820
v -0.143597 0.014062 -0.014429
v -0.120090 0.021709 -0.014706
v -0.096583 0.014145 -0.013546
v -0.082054 -0.005740 -0.011392
v -0.082054 -0.030352 -0.009067
v -0.096583 -0.050289 -0.007458
v -0.115445 -0.081102 -0.252374
v -0.138952 -0.073538 -0.253534
v -0.153480 -0.053652 -0.255688
v -0.153480 -0.029041 -0.258013
v -0.138952 -0.009104 -0.259621
v -0.115445 -0.001456 -0.259899
v -0.091937 -0.009020 -0.258739
v -0.077409 -0.028906 -0.256585
v -0.077409 -0.053517 -0.254259
v -0.091937 -0.073455 -0.252651
v -0.115445 -0.053638 -0.294179
v -0.138742 -0.048268 -0.287891
v -0.153141 -0.040228 -0.269474
v -0.153141 -0.032590 -0.245962
v -0.138742 -0.028271 -0.226337
v -0.115445 -0.028920 -0.218093
v -0.092147 -0.034290 -0.224381
v -0.077749 -0.042330 -0.242798
v -0.077749 -0.049968 -0.266310
v -0.092147 -0.054288 -0.285936
v -0.077383 0.212848 -0.380753
v -0.100680 0.218219 -0.374465
v -0.115079 0.226258 -0.356048
v -0.115079 0.233897 -0.332536
v -0.100680 0.238216 -0.312910
v -0.077383 0.237566 -0.304667
v -0.054085 0.232196 -0.310955
v -0.039687 0.224156 -0.329372
v -0.039687 0.216518 -0.352884
v -0.054085 0.212199 -0.372509
v -0.036877 0.094930 0.004734
v -0.041168 0.087098 0.002249
v -0.043821 0.081978 -0.005010
v -0.043821 0.081525 -0.014270
v -0.041168 0.085914 -0.021993
v -0.036877 0.093466 -0.025230
v -0.032585 0.101299 -0.022745
v -0.029932 0.106419 -0.015486
v -0.029932 0.106872 -0.006226
v -0.032585 0.102483 0.001497
v 0.002092 0.073242 0.005794
v -0.002200 0.065409 0.003308
v -0.004852 0.060289 -0.003950
v -0.004852 0.059837 -0.013210
v -0.002200 0.064225 -0.020933
v 0.002092 0.071778 -0.024170
v 0.006384 0.079610 -0.021685
v 0.009036 0.084730 -0.014426
v 0.009036 0.085183 -0.005167
v 0.006384 0.080795 0.002557
v 0.002092 0.069005 0.005397
v -0.004406 0.063880 0.001219
v -0.008422 0.062051 -0.006934
v -0.008422 0.064217 -0.015948
v -0.004406 0.069550 -0.022380
v 0.002092 0.076014 -0.023773
v 0.008590 0.081139 -0.019596
v 0.012606 0.082968 -0.011443
v 0.012606 0.080803 -0.002429
v 0.008590 0.075469 0.004003
v 0.024563 0.045182 -0.000328
v 0.018066 0.040057 -0.004505
v 0.014050 0.038228 -0.012658
v 0.014050 0.040394 -0.021672
v 0.018066 0.045727 -0.028104
v 0.024563 0.052191 -0.029497
v 0.031061 0.057316 -0.025320
v 0.035077 0.059145 -0.017167
v 0.035077 0.056979 -0.008153
v 0.031061 0.051646 -0.001721
v 0.024563 0.042158 -0.001408
v 0.015907 0.041897 -0.004716
v 0.010557 0.044230 -0.011918
v 0.010557 0.048265 -0.020265
v 0.015907 0.052461 -0.026567
v 0.024563 0.055215 -0.028417
v 0.033220 0.055476 -0.025109
v 0.038570 0.053143 -0.017906
v 0.038570 0.049109 -0.009560
v 0.033220 0.044913 -0.003258
v 0.030788 0.013188 -0.015412
v 0.022132 0.012927 -0.018720
v 0.016782 0.015260 -0.025923
v 0.016782 0.019294 -0.034270
v 0.022132 0.023490 -0.040571
v 0.030788 0.026245 -0.042422
v 0.039444 0.026505 -0.039114
v 0.044794 0.024173 -0.031911
v 0.044794 0.020138 -0.023565
v 0.039444 0.015942 -0.017263
v 0.030788 0.013937 -0.015075
v 0.022157 0.013380 -0.018412
v 0.016822 0.015244 -0.025762
v 0.016822 0.018816 -0.034316
v 0.022157 0.022732 -0.040809
v 0.030788 0.025496 -0.042759
v 0.039419 0.026053 -0.039422
v 0.044754 0.024189 -0.032073
v 0.044754 0.020617 -0.023518
v 0.039419 0.016701 -0.017025
v 0.036556 -0.011592 -0.025735
v 0.027924 -0.012149 -0.029072
v 0.022590 -0.010285 -0.036421
v 0.022590 -0.006713 -0.044976
v 0.027924 -0.002797 -0.051468
v 0.036556 -0.000033 -0.053418
v 0.045187 0.000524 -0.050081
v 0.050521 -0.001340 -0.042732
v 0.050521 -0.004912 -0.034177
v 0.045187 -0.008828 -0.027685
v -0.036877 0.098594 0.004093
v -0.044306 0.093215 0.002746
v -0.048897 0.088212 -0.003565
v -0.048897 0.085495 -0.012429
v -0.044306 0.086103 -0.020459
v -0.036877 0.089803 -0.024590
v -0.029447 0.095182 -0.023242
v -0.024856 0.100185 -0.016931
v -0.024856 0.102902 -0.008067
v -0.029447 0.102294 -0.000037
v 0.019586 0.014119 0.029985
v 0.012157 0.008741 0.028637
v 0.007566 0.003737 0.022326
v 0.007566 0.001021 0.013463
v 0.012157 0.001628 0.005432
v 0.019586 0.005328 0.001302
v 0.027016 0.010707 0.002649
v 0.031607 0.015710 0.008960
v 0.031607 0.018427 0.017824
v 0.027016 0.017819 0.025854
v 0.019586 0.007968 0.030540
v 0.011321 0.005254 0.027336
v 0.006213 0.004248 0.019665
v 0.006213 0.005333 0.010458
v 0.011321 0.008095 0.003232
v 0.019586 0.011479 0.000746
v 0.027851 0.014193 0.003951
v 0.032959 0.015200 0.011621
v 0.032959 0.014115 0.020828
v 0.027851 0.011353 0.028054
v 0.030410 -0.020969 0.027130
v 0.022146 -0.023683 0.023926
v 0.017038 -0.024689 0.016255
v 0.017038 -0.023604 0.007048
v 0.022146 -0.020842 -0.000178
v 0.030410 -0.017458 -0.002664
v 0.038675 -0.014744 0.000541
v 0.043783 -0.013737 0.008211
v 0.043783 -0.014822 0.017418
v 0.038675 -0.017584 0.024644
v 0.030410 -0.023349 0.026652
v 0.022064 -0.025290 0.023115
v 0.016906 -0.024911 0.015421
v 0.016906 -0.022355 0.006510
v 0.022064 -0.018599 -0.000215
v 0.030410 -0.015078 -0.002185
v 0.038757 -0.013136 0.001352
v 0.043915 -0.013515 0.009045
v 0.043915 -0.016071 0.017957
v 0.038757 -0.019827 0.024682
v 0.037233 -0.042612 0.021127
v 0.028887 -0.044554 0.017590
v 0.023729 -0.044174 0.009896
v 0.023729 -0.041618 0.000985
v 0.028887 -0.037862 -0.005740
v 0.037233 -0.034341 -0.007710
v 0.045580 -0.032399 -0.004173
v 0.050738 -0.032779 0.003520
v 0.050738 -0.035334 0.012432
v 0.045580 -0.039090 0.019157
v 0.037233 -0.049229 0.017167
v 0.028569 -0.048313 0.014000
v 0.023214 -0.043639 0.008048
v 0.023214 -0.036993 0.001585
v 0.028569 -0.030914 -0.002922
v 0.037233 -0.027723 -0.003750
v 0.045898 -0.028640 -0.000584
v 0.051253 -0.033313 0.005368
v 0.051253 -0.039959 0.011832
v 0.045898 -0.046038 0.016338
v 0.042674 -0.069380 -0.003552
v 0.034009 -0.068464 -0.006719
v 0.028654 -0.063790 -0.012670
v 0.028654 -0.057144 -0.019134
v 0.034009 -0.051065 -0.023641
v 0.042674 -0.047875 -0.024469
v 0.051338 -0.048791 -0.021302
v 0.056693 -0.053465 -0.015350
v 0.056693 -0.060110 -0.008887
v 0.051338 -0.066189 -0.004380
v -0.036877 0.097208 0.004447
v -0.045153 0.093657 0.002250
v -0.050269 0.090312 -0.004721
v -0.050269 0.088453 -0.013803
v -0.045153 0.088788 -0.021527
v -0.036877 0.091189 -0.024943
v -0.028600 0.094740 -0.022746
v -0.023484 0.098084 -0.015775
v -0.023484 0.099944 -0.006693
v -0.028600 0.099609 0.001031
v -0.000087 -0.000981 0.024553
v -0.008364 -0.004532 0.022356
v -0.013479 -0.007877 0.015386
v -0.013479 -0.009736 0.006304
v -0.008364 -0.009401 -0.001421
v -0.000087 -0.007000 -0.004837
v 0.008190 -0.003449 -0.002640
v 0.013305 -0.000105 0.004331
v 0.013305 0.001755 0.013413
v 0.008190 0.001420 0.021137
v -0.000087 -0.006747 0.024603
v -0.007981 -0.010080 0.021065
v -0.012860 -0.011088 0.013247
v -0.012860 -0.009385 0.004135
v -0.007981 -0.005621 -0.002792
v -0.000087 -0.001234 -0.004886
v 0.007807 0.002099 -0.001349
v 0.012686 0.003107 0.006470
v 0.012686 0.001403 0.015582
v 0.007807 -0.002360 0.022509
v 0.015225 -0.037005 0.018947
v 0.007331 -0.040338 0.015409
v 0.002453 -0.041346 0.007591
v 0.002453 -0.039643 -0.001522
v 0.007331 -0.035879 -0.008448
v 0.015225 -0.031492 -0.010542
v 0.023119 -0.028159 -0.007005
v 0.027998 -0.027151 0.000813
v 0.027998 -0.028855 0.009926
v 0.023119 -0.032618 0.016852
v 0.015225 -0.043843 0.015732
v 0.006747 -0.043869 0.011984
v 0.001506 -0.040221 0.005263
v 0.001506 -0.034291 -0.001863
v 0.006747 -0.028345 -0.006672
v 0.015225 -0.024654 -0.007328
v 0.023704 -0.024628 -0.003579
v 0.028944 -0.028277 0.003142
v 0.028944 -0.034207 0.010268
v 0.023704 -0.040153 0.015077
v 0.021953 -0.061979 0.000640
v 0.013474 -0.062005 -0.003108
v 0.008234 -0.058356 -0.009829
v 0.008234 -0.052427 -0.016955
v 0.013474 -0.046481 -0.021764
v 0.021953 -0.042790 -0.022420
v 0.030432 -0.042764 -0.018671
v 0.035672 -0.046413 -0.011950
v 0.035672 -0.052342 -0.004824
v 0.030432 -0.058288 -0.000015
v 0.021953 -0.055927 0.003686
v 0.014085 -0.059117 -0.000037
v 0.009222 -0.059734 -0.007906
v 0.009222 -0.057545 -0.016914
v 0.014085 -0.053384 -0.023621
v 0.021953 -0.048842 -0.025465
v 0.029821 -0.045652 -0.021742
v 0.034684 -0.045035 -0.013873
v 0.034684 -0.047224 -0.004865
v 0.029821 -0.051385 0.001842
v 0.034298 -0.079651 -0.002080
v 0.026430 -0.082840 -0.005804
v 0.021567 -0.083458 -0.013672
v 0.021567 -0.081268 -0.022680
v 0.026430 -0.077108 -0.029388
v 0.034298 -0.072565 -0.031232
v 0.042166 -0.069376 -0.027508
v 0.047029 -0.068758 -0.019640
v 0.047029 -0.070948 -0.010631
v 0.042166 -0.075108 -0.003924
v -0.036877 0.094518 0.004749
v -0.045476 0.092512 0.001926
v -0.050791 0.091150 -0.005547
v -0.050791 0.090953 -0.014815
v -0.045476 0.091995 -0.022339
v -0.036877 0.093879 -0.025245
v -0.028277 0.095885 -0.022422
v -0.022962 0.097247 -0.014949
v -0.022962 0.097444 -0.005681
v -0.028277 0.096402 0.001843
v -0.014201 -0.005692 0.006885
v -0.022801 -0.007698 0.004063
v -0.028115 -0.009060 -0.003410
v -0.028115 -0.009257 -0.012678
v -0.022801 -0.008215 -0.020202
v -0.014201 -0.006331 -0.023108
v -0.005602 -0.004325 -0.020285
v -0.000287 -0.002963 -0.012812
v -0.000287 -0.002766 -0.003544
v -0.005602 -0.003808 0.003980
v -0.014201 -0.008737 0.006639
v -0.022210 -0.011843 0.003152
v -0.027159 -0.012721 -0.004637
v -0.027159 -0.011037 -0.013753
v -0.022210 -0.007433 -0.020714
v -0.014201 -0.003286 -0.022861
v -0.006193 -0.000180 -0.019374
v -0.001243 0.000698 -0.011585
v -0.001243 -0.000986 -0.002469
v -0.006193 -0.004590 0.004492
v -0.001899 -0.035009 0.001785
v -0.009907 -0.038114 -0.001702
v -0.014857 -0.038993 -0.009491
v -0.014857 -0.037309 -0.018607
v -0.009907 -0.033705 -0.025569
v -0.001899 -0.029558 -0.027716
v 0.006110 -0.026452 -0.024228
v 0.011059 -0.025573 -0.016439
v 0.011059 -0.027258 -0.007323
v 0.006110 -0.030862 -0.000362
v -0.001899 -0.036937 0.001295
v -0.009861 -0.039647 -0.002603
v -0.014783 -0.039544 -0.010459
v -0.014783 -0.036668 -0.019272
v -0.009861 -0.032117 -0.025676
v -0.001899 -0.027630 -0.027225
v 0.006064 -0.024920 -0.023327
v 0.010985 -0.025022 -0.015472
v 0.010985 -0.027898 -0.006658
v 0.006064 -0.032449 -0.000254
v 0.008609 -0.057947 -0.005562
v 0.000646 -0.060657 -0.009459
v -0.004275 -0.060555 -0.017315
v -0.004275 -0.057679 -0.026128
v 0.000646 -0.053128 -0.032532
v 0.008609 -0.048640 -0.034081
v 0.016571 -0.045930 -0.030184
v 0.021492 -0.046032 -0.022328
v 0.021492 -0.048908 -0.013515
v 0.016571 -0.053459 -0.007110
v 0.008609 -0.056751 -0.005225
v 0.000997 -0.060421 -0.009039
v -0.003707 -0.061368 -0.016971
v -0.003707 -0.059232 -0.025992
v 0.000997 -0.054826 -0.032656
v 0.008609 -0.049836 -0.034418
v 0.016220 -0.046166 -0.030604
v 0.020924 -0.045218 -0.022672
v 0.020924 -0.047355 -0.013651
v 0.016220 -0.051760 -0.006987
v 0.021209 -0.077721 -0.010193
v 0.013598 -0.081391 -0.014006
v 0.008894 -0.082339 -0.021938
v 0.008894 -0.080202 -0.030959
v 0.013598 -0.075797 -0.037623
v 0.021209 -0.070806 -0.039385
v 0.028820 -0.067136 -0.035572
v 0.033524 -0.066189 -0.027640
v 0.033524 -0.068326 -0.018619
v 0.028820 -0.072731 -0.011955
v -0.036877 0.091407 0.004490
v -0.045677 0.091410 0.001575
v -0.051116 0.092478 -0.005856
v -0.051116 0.094203 -0.014965
v -0.045677 0.095926 -0.022272
v -0.036877 0.096989 -0.024986
v -0.028076 0.096986 -0.022071
v -0.022637 0.095919 -0.014640
v -0.022637 0.094194 -0.005531
v -0.028076 0.092471 0.001776
v -0.031085 -0.001423 -0.013089
v -0.039885 -0.001420 -0.016004
v -0.045324 -0.000352 -0.023435
v -0.045324 0.001373 -0.032544
v -0.039885 0.003096 -0.039851
v -0.031085 0.004159 -0.042565
v -0.022284 0.004156 -0.039650
v -0.016846 0.003088 -0.032219
v -0.016846 0.001364 -0.023110
v -0.022284 -0.000359 -0.015803
v -0.031085 0.002506 -0.012870
v -0.039438 -0.000523 -0.015513
v -0.044601 -0.002829 -0.022859
v -0.044601 -0.003533 -0.032103
v -0.039438 -0.002364 -0.039714
v -0.031085 0.000230 -0.042784
v -0.022731 0.003259 -0.040141
v -0.017568 0.005566 -0.032795
v -0.017568 0.006270 -0.023552
v -0.022731 0.005101 -0.015941
v -0.024875 -0.015835 -0.011475
v -0.033229 -0.018864 -0.014117
v -0.038392 -0.021171 -0.021464
v -0.038392 -0.021874 -0.030707
v -0.033229 -0.020706 -0.038318
v -0.024875 -0.018111 -0.041388
v -0.016522 -0.015082 -0.038746
v -0.011359 -0.012775 -0.031400
v -0.011359 -0.012072 -0.022156
v -0.016522 -0.013241 -0.014545
v -0.024875 -0.016626 -0.011436
v -0.033063 -0.019964 -0.014224
v -0.038123 -0.022158 -0.021675
v -0.038123 -0.022373 -0.030943
v -0.033063 -0.020524 -0.038488
v -0.024875 -0.017320 -0.041428
v -0.016688 -0.013982 -0.038639
v -0.011628 -0.011788 -0.031188
v -0.011628 -0.011573 -0.021920
v -0.016688 -0.013422 -0.014375
v -0.015836 -0.039239 -0.010913
v -0.024024 -0.042576 -0.013701
v -0.029084 -0.044771 -0.021153
v -0.029084 -0.044985 -0.030421
v -0.024024 -0.043137 -0.037965
v -0.015836 -0.039932 -0.040905
v -0.007649 -0.036595 -0.038117
v -0.002589 -0.034400 -0.030665
v -0.002589 -0.034186 -0.021397
v -0.007649 -0.036034 -0.013853
v -0.015836 -0.042282 -0.011153
v -0.023298 -0.046388 -0.014816
v -0.027909 -0.047896 -0.022716
v -0.027909 -0.046229 -0.031835
v -0.023298 -0.042025 -0.038691
v -0.015836 -0.036889 -0.040665
v -0.008375 -0.032783 -0.037002
v -0.003764 -0.031276 -0.029102
v -0.003764 -0.032942 -0.019983
v -0.008375 -0.037146 -0.013127
v -0.000225 -0.066675 -0.015611
v -0.007686 -0.070781 -0.019274
v -0.012297 -0.072288 -0.027173
v -0.012297 -0.070622 -0.036293
v -0.007686 -0.066417 -0.043149
v -0.000225 -0.061281 -0.045122
v 0.007236 -0.057175 -0.041460
v 0.011848 -0.055668 -0.033560
v 0.011848 -0.057334 -0.024441
v 0.007236 -0.061539 -0.017585
f 1 2 13
f 2 14 13
f 2 3 14
f 3 15 14
f 3 4 15
f 4 16 15
f 4 5 16
f 5 17 16
f 5 6 17
f 6 18 17
f 6 7 18
f 7 19 18
f 7 8 19
f 8 20 19
f 8 9 20
f 9 21 20
f 9 10 21
f 10 22 21
f 10 11 22
f 11 23 22
f 11 12 23
f 12 24 23
f 13 14 25
f 14 26 25
f 14 15 26
f 15 27 26
f 15 16 27
f 16 28 27
f 16 17 28
f 17 29 28
f 17 18 29
f 18 30 29
f 18 19 30
f 19 31 30
f 19 20 31
f 20 32 31
f 20 21 32
f 21 33 32
f 21 22 33
f 22 34 33
f 22 23 34
f 23 35 34
f 23 24 35
f 24 36 35
f 25 26 37
f 26 38 37
f 26 27 38
f 27 39 38
f 27 28 39
f 28 40 39
f 28 29 40
f 29 41 40
f 29 30 41
f 30 42 41
f 30 31 42
f 31 43 42
f 31 32 43
f 32 44 43
f 32 33 44
f 33 45 44
f 33 34 45
f 34 46 45
f 34 35 46
f 35 47 46
f 35 36 47
f 36 48 47
f 37 38 49
f 38 50 49
f 38 39 50
f 39 51 50
f 39 40 51
f 40 52 51
f 40 41 52
f 41 53 52
f 41 42 53
f 42 54 53
f 42 43 54
f 43 55 54
f 43 44 55
f 44 56 55
f 44 45 56
f 45 57 56
f 45 46 57
f 46 58 57
f 46 47 58
f 47 59 58
f 47 48 59
f 48 60 59
f 49 50 61
f 50 62 61
f 50 51 62
f 51 63 62
f 51 52 63
f 52 64 63
f 52 53 64
f 53 65 64
f 53 54 65
f 54 66 65
f 54 55 66
f 55 67 66
f 55 56 67
f 56 68 67
f 56 57 68
f 57 69 68
f 57 58 69
f 58 70 69
f 58 59 70
f 59 71 70
f 59 60 71
f 60 72 71
f 61 62 73
f 62 74 73
f 62 63 74
f 63 75 74
f 63 64 75
f 64 76 75
f 64 65 76
f 65 77 76
f 65 66 77
f 66 78 77
f 66 67 78
f 67 79 78
f 67 68 79
f 68 80 79
f 68 69 80
f 69 81 80
f 69 70 81
f 70 82 81
f 70 71 82
f 71 83 82
f 71 72 83
f 72 84 83
f 73 74 85
f 74 86 85
f 74 75 86
f 75 87 86
f 75 76 87
f 76 88 87
f 76 77 88
f 77 89 88
f 77 78 89
f 78 90 89
f 78 79 90
f 79 91 90
f 79 80 91
f 80 92 91
f 80 81 92
f 81 93 92
f 81 82 93
f 82 94 93
f 82 83 94
f 83 95 94
f 83 84 95
f 84 96 95
f 85 86 97
f 86 98 97
f 86 87 98
f 87 99 98
f 87 88 99
f 88 100 99
f 88 89 100
f 89 101 100
f 89 90 101
f 90 102 101
f 90 91 102
f 91 103 102
f 91 92 103
f 92 104 103
f 92 93 104
f 93 105 104
f 93 94 105
f 94 106 105
f 94 95 106
f 95 107 106
f 95 96 107
f 96 108 107
f 97 98 109
f 98 110 109
f 98 99 110
f 99 111 110
f 99 100 111
f 100 112 111
f 100 101 112
f 101 113 112
f 101 102 113
f 102 114 113
f 102 103 114
f 103 115 114
f 103 104 115
f 104 116 115
f 104 105 116
f 105 117 116
f 105 106 117
f 106 118 117
f 106 107 118
f 107 119 118
f 107 108 119
f 108 120 119
f 109 110 121
f 110 122 121
f 110 111 122
f 111 123 122
f 111 112 123
f 112 124 123
f 112 113 124
f 113 125 124
f 113 114 125
f 114 126 125
f 114 115 126
f 115 127 126
f 115 116 127
f 116 128 127
f 116 117 128
f 117 129 128
f 117 118 129
f 118 130 129
f 118 119 130
f 119 131 130
f 119 120 131
f 120 132 131
f 121 122 133
f 122 134 133
f 122 123 134
f 123 135 134
f 123 124 135
f 124 136 135
f 124 125 136
f 125 137 136
f 125 126 137
f 126 138 137
f 126 127 138
f 127 139 138
f 127 128 139
f 128 140 139
f 128 129 140
f 129 141 140
f 129 130 141
f 130 142 141
f 130 131 142
f 131 143 142
f 131 132 143
f 132 144 143
f 145 146 155
f 146 156 155
f 146 147 156
f 147 157 156
f 147 148 157
f 148 158 157
f 148 149 158
f 149 159 158
f 149 150 159
f 150 160 159
f 150 151 160
f 151 161 160
f 151 152 161
f 152 162 161
f 152 153 162
f 153 163 162
f 153 154 163
f 154 164 163
f 154 145 164
f 145 155 164
f 165 166 175
f 166 176 175
f 166 167 176
f 167 177 176
f 167 168 177
f 168 178 177
f 168 169 178
f 169 179 178
f 169 170 179
f 170 180 179
f 170 171 180
f 171 181 180
f 171 172 181
f 172 182 181
f 172 173 182
f 173 183 182
f 173 174 183
f 174 184 183
f 174 165 184
f 165 175 184
f 185 186 195
f 186 196 195
f 186 187 196
f 187 197 196
f 187 188 197
f 188 198 197
f 188 189 198
f 189 199 198
f 189 190 199
f 190 200 199
f 190 191 200
f 191 201 200
f 191 192 201
f 192 202 201
f 192 193 202
f 193 203 202
f 193 194 203
f 194 204 203
f 194 185 204
f 185 195 204
f 205 206 215
f 206 216 215
f 206 207 216
f 207 217 216
f 207 208 217
f 208 218 217
f 208 209 218
f 209 219 218
f 209 210 219
f 210 220 219
f 210 211 220
f 211 221 220
f 211 212 221
f 212 222 221
f 212 213 222
f 213 223 222
f 213 214 223
f 214 224 223
f 214 205 224
f 205 215 224
f 225 226 235
f 226 236 235
f 226 227 236
f 227 237 236
f 227 228 237
f 228 238 237
f 228 229 238
f 229 239 238
f 229 230 239
f 230 240 239
f 230 231 240
f 231 241 240
f 231 232 241
f 232 242 241
f 232 233 242
f 233 243 242
f 233 234 243
f 234 244 243
f 234 225 244
f 225 235 244
f 245 246 255
f 246 256 255
f 246 247 256
f 247 257 256
f 247 248 257
f 248 258 257
f 248 249 258
f 249 259 258
f 249 250 259
f 250 260 259
f 250 251 260
f 251 261 260
f 251 252 261
f 252 262 261
f 252 253 262
f 253 263 262
f 253 254 263
f 254 264 263
f 254 245 264
f 245 255 264
f 265 266 275
f 266 276 275
f 266 267 276
f 267 277 276
f 267 268 277
f 268 278 277
f 268 269 278
f 269 279 278
f 269 270 279
f 270 280 279
f 270 271 280
f 271 281 280
f 271 272 281
f 272 282 281
f 272 273 282
f 273 283 282
f 273 274 283
f 274 284 283
f 274 265 284
f 265 275 284
f 285 286 295
f 286 296 295
f 286 287 296
f 287 297 296
f 287 288 297
f 288 298 297
f 288 289 298
f 289 299 298
f 289 290 299
f 290 300 299
f 290 291 300
f 291 301 300
f 291 292 301
f 292 302 301
f 292 293 302
f 293 303 302
f 293 294 303
f 294 304 303
f 294 285 304
f 285 295 304
f 305 306 315
f 306 316 315
f 306 307 316
f 307 317 316
f 307 308 317
f 308 318 317
f 308 309 318
f 309 319 318
f 309 310 319
f 310 320 319
f 310 311 320
f 311 321 320
f 311 312 321
f 312 322 321
f 312 313 322
f 313 323 322
f 313 314 323
f 314 324 323
f 314 305 324
f 305 315 324
f 325 326 335
f 326 336 335
f 326 327 336
f 327 337 336
f 327 328 337
f 328 338 337
f 328 329 338
f 329 339 338
f 329 330 339
f 330 340 339
f 330 331 340
f 331 341 340
f 331 332 341
f 332 342 341
f 332 333 342
f 333 343 342
f 333 334 343
f 334 344 343
f 334 325 344
f 325 335 344
f 345 346 355
f 346 356 355
f 346 347 356
f 347 357 356
f 347 348 357
f 348 358 357
f 348 349 358
f 349 359 358
f 349 350 359
f 350 360 359
f 350 351 360
f 351 361 360
f 351 352 361
f 352 362 361
f 352 353 362
f 353 363 362
f 353 354 363
f 354 364 363
f 354 345 364
f 345 355 364
f 365 366 375
f 366 376 375
f 366 367 376
f 367 377 376
f 367 368 377
f 368 378 377
f 368 369 378
f 369 379 378
f 369 370 379
f 370 380 379
f 370 371 380
f 371 381 380
f 371 372 381
f 372 382 381
f 372 373 382
f 373 383 382
f 373 374 383
f 374 384 383
f 374 365 384
f 365 375 384
f 385 386 395
f 386 396 395
f 386 387 396
f 387 397 396
f 387 388 397
f 388 398 397
f 388 389 398
f 389 399 398
f 389 390 399
f 390 400 399
f 390 391 400
f 391 401 400
f 391 392 401
f 392 402 401
f 392 393 402
f 393 403 402
f 393 394 403
f 394 404 403
f 394 385 404
f 385 395 404
f 405 406 415
f 406 416 415
f 406 407 416
f 407 417 416
f 407 408 417
f 408 418 417
f 408 409 418
f 409 419 418
f 409 410 419
f 410 420 419
f 410 411 420
f 411 421 420
f 411 412 421
f 412 422 421
f 412 413 422
f 413 423 422
f 413 414 423
f 414 424 423
f 414 405 424
f 405 415 424
f 425 426 435
f 426 436 435
f 426 427 436
f 427 437 436
f 427 428 437
f 428 438 437
f 428 429 438
f 429 439 438
f 429 430 439
f 430 440 439
f 430 431 440
f 431 441 440
f 431 432 441
f 432 442 441
f 432 433 442
f 433 443 442
f 433 434 443
f 434 444 443
f 434 425 444
f 425 435 444
f 445 446 455
f 446 456 455
f 446 447 456
f 447 457 456
f 447 448 457
f 448 458 457
f 448 449 458
f 449 459 458
f 449 450 459
f 450 460 459
f 450 451 460
f 451 461 460
f 451 452 461
f 452 462 461
f 452 453 462
f 453 463 462
f 453 454 463
f 454 464 463
f 454 445 464
f 445 455 464
f 465 466 475
f 466 476 475
f 466 467 476
f 467 477 476
f 467 468 477
f 468 478 477
f 468 469 478
f 469 479 478
f 469 470 479
f 470 480 479
f 470 471 480
f 471 481 480
f 471 472 481
f 472 482 481
f 472 473 482
f 473 483 482
f 473 474 483
f 474 484 483
f 474 465 484
f 465 475 484
f 485 486 495
f 486 496 495
f 486 487 496
f 487 497 496
f 487 488 497
f 488 498 497
f 488 489 498
f 489 499 498
f 489 490 499
f 490 500 499
f 490 491 500
f 491 501 500
f 491 492 501
f 492 502 501
f 492 493 502
f 493 503 502
f 493 494 503
f 494 504 503
f 494 485 504
f 485 495 504
f 505 506 515
f 506 516 515
f 506 507 516
f 507 517 516
f 507 508 517
f 508 518 517
f 508 509 518
f 509 519 518
f 509 510 519
f 510 520 519
f 510 511 520
f 511 521 520
f 511 512 521
f 512 522 521
f 512 513 522
f 513 523 522
f 513 514 523
f 514 524 523
f 514 505 524
f 505 515 524
f 525 526 535
f 526 536 535
f 526 527 536
f 527 537 536
f 527 528 537
f 528 538 537
f 528 529 538
f 529 539 538
f 529 530 539
f 530 540 539
f 530 531 540
f 531 541 540
f 531 532 541
f 532 542 541
f 532 533 542
f 533 543 542
f 533 534 543
f 534 544 543
f 534 525 544
f 525 535 544
f 545 546 555
f 546 556 555
f 546 547 556
f 547 557 556
f 547 548 557
f 548 558 557
f 548 549 558
f 549 559 558
f 549 550 559
f 550 560 559
f 550 551 560
f 551 561 560
f 551 552 561
f 552 562 561
f 552 553 562
f 553 563 562
f 553 554 563
f 554 564 563
f 554 545 564
f 545 555 564
f 565 566 575
f 566 576 575
f 566 567 576
f 567 577 576
f 567 568 577
f 568 578 577
f 568 569 578
f 569 579 578
f 569 570 579
f 570 580 579
f 570 571 580
f 571 581 580
f 571 572 581
f 572 582 581
f 572 573 582
f 573 583 582
f 573 574 583
f 574 584 583
f 574 565 584
f 565 575 584
f 585 586 595
f 586 596 595
f 586 587 596
f 587 597 596
f 587 588 597
f 588 598 597
f 588 589 598
f 589 599 598
f 589 590 599
f 590 600 599
f 590 591 600
f 591 601 600
f 591 592 601
f 592 602 601
f 592 593 602
f 593 603 602
f 593 594 603
f 594 604 603
f 594 585 604
f 585 595 604
f 605 606 615
f 606 616 615
f 606 607 616
f 607 617 616
f 607 608 617
f 608 618 617
f 608 609 618
f 609 619 618
f 609 610 619
f 610 620 619
f 610 611 620
f 611 621 620
f 611 612 621
f 612 622 621
f 612 613 622
f 613 623 622
f 613 614 623
f 614 624 623
f 614 605 624
f 605 615 624
f 625 626 635
f 626 636 635
f 626 627 636
f 627 637 636
f 627 628 637
f 628 638 637
f 628 629 638
f 629 639 638
f 629 630 639
f 630 640 639
f 630 631 640
f 631 641 640
f 631 632 641
f 632 642 641
f 632 633 642
f 633 643 642
f 633 634 643
f 634 644 643
f 634 625 644
f 625 635 644
f 645 646 655
f 646 656 655
f 646 647 656
f 647 657 656
f 647 648 657
f 648 658 657
f 648 649 658
f 649 659 658
f 649 650 659
f 650 660 659
f 650 651 660
f 651 661 660
f 651 652 661
f 652 662 661
f 652 653 662
f 653 663 662
f 653 654 663
f 654 664 663
f 654 645 664
f 645 655 664
f 665 666 675
f 666 676 675
f 666 667 676
f 667 677 676
f 667 668 677
f 668 678 677
f 668 669 678
f 669 679 678
f 669 670 679
f 670 680 679
f 670 671 680
f 671 681 680
f 671 672 681
f 672 682 681
f 672 673 682
f 673 683 682
f 673 674 683
f 674 684 683
f 674 665 684
f 665 675 684
f 685 686 695
f 686 696 695
f 686 687 696
f 687 697 696
f 687 688 697
f 688 698 697
f 688 689 698
f 689 699 698
f 689 690 699
f 690 700 699
f 690 691 700
f 691 701 700
f 691 692 701
f 692 702 701
f 692 693 702
f 693 703 702
f 693 694 703
f 694 704 703
f 694 685 704
f 685 695 704
f 705 706 715
f 706 716 715
f 706 707 716
f 707 717 716
f 707 708 717
f 708 718 717
f 708 709 718
f 709 719 718
f 709 710 719
f 710 720 719
f 710 711 720
f 711 721 720
f 711 712 721
f 712 722 721
f 712 713 722
f 713 723 722
f 713 714 723
f 714 724 723
f 714 705 724
f 705 715 724
f 725 726 735
f 726 736 735
f 726 727 736
f 727 737 736
f 727 728 737
f 728 738 737
f 728 729 738
f 729 739 738
f 729 730 739
f 730 740 739
f 730 731 740
f 731 741 740
f 731 732 741
f 732 742 741
f 732 733 742
f 733 743 742
f 733 734 743
f 734 744 743
f 734 725 744
f 725 735 744
f 745 746 755
f 746 756 755
f 746 747 756
f 747 757 756
f 747 748 757
f 748 758 757
f 748 749 758
f 749 759 758
f 749 750 759
f 750 760 759
f 750 751 760
f 751 761 760
f 751 752 761
f 752 762 761
f 752 753 762
f 753 763 762
f 753 754 763
f 754 764 763
f 754 745 764
f 745 755 764
f 765 766 775
f 766 776 775
f 766 767 776
f 767 777 776
f 767 768 777
f 768 778 777
f 768 769 778
f 769 779 778
f 769 770 779
f 770 780 779
f 770 771 780
f 771 781 780
f 771 772 781
f 772 782 781
f 772 773 782
f 773 783 782
f 773 774 783
f 774 784 783
f 774 765 784
f 765 775 784
