# Full-Body 3D Mesh - Frame 268
v 0.015623 -0.631913 -0.105856
v 0.049431 -0.631913 -0.110716
v 0.080500 -0.631913 -0.124905
v 0.106313 -0.631913 -0.147272
v 0.124779 -0.631913 -0.176006
v 0.134402 -0.631913 -0.208778
v 0.134402 -0.631913 -0.242933
v 0.124779 -0.631913 -0.275705
v 0.106313 -0.631913 -0.304439
v 0.080500 -0.631913 -0.326806
v 0.049431 -0.631913 -0.340995
v 0.015623 -0.631913 -0.345856
v 0.015623 -0.631913 -0.105856
v 0.044064 -0.613635 -0.110716
v 0.070201 -0.596838 -0.124905
v 0.091916 -0.582883 -0.147272
v 0.107451 -0.572899 -0.176006
v 0.115546 -0.567697 -0.208778
v 0.115546 -0.567697 -0.242933
v 0.107451 -0.572899 -0.275705
v 0.091916 -0.582883 -0.304439
v 0.070201 -0.596838 -0.326806
v 0.044064 -0.613635 -0.340995
v 0.015623 -0.631913 -0.345856
v 0.015623 -0.631913 -0.105856
v 0.029667 -0.601161 -0.110716
v 0.042574 -0.572899 -0.124905
v 0.053297 -0.549419 -0.147272
v 0.060968 -0.532622 -0.176006
v 0.064965 -0.523869 -0.208778
v 0.064965 -0.523869 -0.242933
v 0.060968 -0.532622 -0.275705
v 0.053297 -0.549419 -0.304439
v 0.042574 -0.572899 -0.326806
v 0.029667 -0.601161 -0.340995
v 0.015623 -0.631913 -0.345856
v 0.015623 -0.631913 -0.105856
v 0.010812 -0.598450 -0.110716
v 0.006390 -0.567697 -0.124905
v 0.002717 -0.542147 -0.147272
v 0.000089 -0.523869 -0.176006
v -0.001281 -0.514344 -0.208778
v -0.001281 -0.514344 -0.242933
v 0.000089 -0.523869 -0.275705
v 0.002717 -0.542147 -0.304439
v 0.006390 -0.567697 -0.326806
v 0.010812 -0.598450 -0.340995
v 0.015623 -0.631913 -0.345856
v 0.015623 -0.631913 -0.105856
v -0.006516 -0.606363 -0.110716
v -0.026862 -0.582883 -0.124905
v -0.043766 -0.563374 -0.147272
v -0.055859 -0.549419 -0.176006
v -0.062160 -0.542147 -0.208778
v -0.062160 -0.542147 -0.242933
v -0.055859 -0.549419 -0.275705
v -0.043766 -0.563374 -0.304439
v -0.026862 -0.582883 -0.326806
v -0.006516 -0.606363 -0.340995
v 0.015623 -0.631913 -0.345856
v 0.015623 -0.631913 -0.105856
v -0.016815 -0.622389 -0.110716
v -0.046626 -0.613635 -0.124905
v -0.071393 -0.606363 -0.147272
v -0.089111 -0.601161 -0.176006
v -0.098344 -0.598450 -0.208778
v -0.098344 -0.598450 -0.242933
v -0.089111 -0.601161 -0.275705
v -0.071393 -0.606363 -0.304439
v -0.046626 -0.613635 -0.326806
v -0.016815 -0.622389 -0.340995
v 0.015623 -0.631913 -0.345856
v 0.015623 -0.631913 -0.105856
v -0.016815 -0.641438 -0.110716
v -0.046626 -0.650191 -0.124905
v -0.071393 -0.657464 -0.147272
v -0.089111 -0.662666 -0.176006
v -0.098344 -0.665377 -0.208778
v -0.098344 -0.665377 -0.242933
v -0.089111 -0.662666 -0.275705
v -0.071393 -0.657464 -0.304439
v -0.046626 -0.650191 -0.326806
v -0.016815 -0.641438 -0.340995
v 0.015623 -0.631913 -0.345856
v 0.015623 -0.631913 -0.105856
v -0.006516 -0.657464 -0.110716
v -0.026862 -0.680944 -0.124905
v -0.043766 -0.700452 -0.147272
v -0.055859 -0.714408 -0.176006
v -0.062160 -0.721680 -0.208778
v -0.062160 -0.721680 -0.242933
v -0.055859 -0.714408 -0.275705
v -0.043766 -0.700452 -0.304439
v -0.026862 -0.680944 -0.326806
v -0.006516 -0.657464 -0.340995
v 0.015623 -0.631913 -0.345856
v 0.015623 -0.631913 -0.105856
v 0.010812 -0.665377 -0.110716
v 0.006390 -0.696130 -0.124905
v 0.002717 -0.721680 -0.147272
v 0.000089 -0.739958 -0.176006
v -0.001281 -0.749483 -0.208778
v -0.001281 -0.749483 -0.242933
v 0.000089 -0.739958 -0.275705
v 0.002717 -0.721680 -0.304439
v 0.006390 -0.696130 -0.326806
v 0.010812 -0.665377 -0.340995
v 0.015623 -0.631913 -0.345856
v 0.015623 -0.631913 -0.105856
v 0.029667 -0.662666 -0.110716
v 0.042574 -0.690927 -0.124905
v 0.053297 -0.714408 -0.147272
v 0.060968 -0.731205 -0.176006
v 0.064965 -0.739958 -0.208778
v 0.064965 -0.739958 -0.242933
v 0.060968 -0.731205 -0.275705
v 0.053297 -0.714408 -0.304439
v 0.042574 -0.690927 -0.326806
v 0.029667 -0.662666 -0.340995
v 0.015623 -0.631913 -0.345856
v 0.015623 -0.631913 -0.105856
v 0.044064 -0.650191 -0.110716
v 0.070201 -0.666988 -0.124905
v 0.091916 -0.680944 -0.147272
v 0.107451 -0.690927 -0.176006
v 0.115546 -0.696130 -0.208778
v 0.115546 -0.696130 -0.242933
v 0.107451 -0.690927 -0.275705
v 0.091916 -0.680944 -0.304439
v 0.070201 -0.666988 -0.326806
v 0.044064 -0.650191 -0.340995
v 0.015623 -0.631913 -0.345856
v 0.015623 -0.631913 -0.105856
v 0.049431 -0.631913 -0.110716
v 0.080500 -0.631913 -0.124905
v 0.106313 -0.631913 -0.147272
v 0.124779 -0.631913 -0.176006
v 0.134402 -0.631913 -0.208778
v 0.134402 -0.631913 -0.242933
v 0.124779 -0.631913 -0.275705
v 0.106313 -0.631913 -0.304439
v 0.080500 -0.631913 -0.326806
v 0.049431 -0.631913 -0.340995
v 0.015623 -0.631913 -0.345856
v 0.177571 -0.437751 -0.081936
v 0.177519 -0.461260 -0.074291
v 0.176766 -0.475790 -0.054304
v 0.175600 -0.475790 -0.029610
v 0.174466 -0.461260 -0.009642
v 0.173798 -0.437751 -0.002025
v 0.173850 -0.414241 -0.009671
v 0.174603 -0.399712 -0.029657
v 0.175769 -0.399712 -0.054351
v 0.176903 -0.414241 -0.074320
v -0.164404 -0.442242 -0.098086
v -0.164457 -0.465751 -0.090441
v -0.165210 -0.480281 -0.070454
v -0.166376 -0.480281 -0.045760
v -0.167510 -0.465751 -0.025791
v -0.168178 -0.442242 -0.018175
v -0.168126 -0.418733 -0.025821
v -0.167373 -0.404203 -0.045807
v -0.166206 -0.404203 -0.070501
v -0.165073 -0.418733 -0.090470
v 0.175684 -0.444851 -0.081346
v 0.152908 -0.437755 -0.074863
v 0.138831 -0.430658 -0.055820
v 0.138831 -0.426270 -0.031491
v 0.152908 -0.426267 -0.011169
v 0.175684 -0.430651 -0.002616
v 0.198461 -0.437747 -0.009099
v 0.212538 -0.444844 -0.028141
v 0.212538 -0.449232 -0.052470
v 0.198461 -0.449235 -0.072792
v 0.238662 -0.202819 -0.124999
v 0.215885 -0.195724 -0.118516
v 0.201808 -0.188626 -0.099474
v 0.201808 -0.184238 -0.075145
v 0.215885 -0.184236 -0.054823
v 0.238662 -0.188620 -0.046269
v 0.261438 -0.195715 -0.052752
v 0.275515 -0.202813 -0.071795
v 0.275515 -0.207201 -0.096124
v 0.261438 -0.207203 -0.116446
v 0.238662 -0.205745 -0.124357
v 0.215155 -0.204285 -0.116844
v 0.200627 -0.199552 -0.097410
v 0.200627 -0.193356 -0.073478
v 0.215155 -0.188062 -0.054189
v 0.238662 -0.185694 -0.046911
v 0.262168 -0.187154 -0.054424
v 0.276696 -0.191887 -0.073858
v 0.276696 -0.198083 -0.097791
v 0.262168 -0.203376 -0.117079
v 0.234414 0.000352 -0.177718
v 0.210907 0.001813 -0.170205
v 0.196379 0.006545 -0.150771
v 0.196379 0.012741 -0.126839
v 0.210907 0.018035 -0.107550
v 0.234414 0.020404 -0.100272
v 0.257920 0.018943 -0.107785
v 0.272448 0.014211 -0.127219
v 0.272448 0.008015 -0.151151
v 0.257920 0.002721 -0.170440
v -0.166291 -0.465779 -0.090472
v -0.186959 -0.470346 -0.077701
v -0.199733 -0.464178 -0.057454
v -0.199733 -0.449631 -0.037466
v -0.186959 -0.432262 -0.025371
v -0.166291 -0.418704 -0.025789
v -0.145623 -0.414138 -0.038561
v -0.132849 -0.420306 -0.058808
v -0.132849 -0.434853 -0.078796
v -0.145623 -0.452222 -0.090891
v -0.310372 -0.250950 -0.246819
v -0.331040 -0.255517 -0.234048
v -0.343814 -0.249349 -0.213801
v -0.343814 -0.234802 -0.193812
v -0.331040 -0.217433 -0.181718
v -0.310372 -0.203875 -0.182136
v -0.289704 -0.199309 -0.194908
v -0.276930 -0.205477 -0.215155
v -0.276930 -0.220024 -0.235143
v -0.289704 -0.237393 -0.247238
v -0.310372 -0.261886 -0.194190
v -0.330065 -0.261817 -0.209135
v -0.342236 -0.248607 -0.226120
v -0.342236 -0.227301 -0.238658
v -0.330065 -0.206038 -0.241960
v -0.310372 -0.192940 -0.234765
v -0.290679 -0.193009 -0.219821
v -0.278508 -0.206219 -0.202835
v -0.278508 -0.227525 -0.190297
v -0.290679 -0.248788 -0.186995
v -0.157985 -0.380384 -0.395546
v -0.177678 -0.380314 -0.410491
v -0.189849 -0.367104 -0.427476
v -0.189849 -0.345798 -0.440014
v -0.177678 -0.324535 -0.443316
v -0.157985 -0.311437 -0.436121
v -0.138292 -0.311506 -0.421177
v -0.126121 -0.324717 -0.404192
v -0.126121 -0.346022 -0.391653
v -0.138292 -0.367285 -0.388351
v 0.175684 -0.433974 -0.081802
v 0.152373 -0.437741 -0.074486
v 0.137966 -0.441513 -0.054754
v 0.137966 -0.443848 -0.030143
v 0.152373 -0.443853 -0.010054
v 0.175684 -0.441528 -0.002160
v 0.198996 -0.437760 -0.009476
v 0.213403 -0.433989 -0.029208
v 0.213403 -0.431654 -0.053819
v 0.198996 -0.431648 -0.073908
v 0.116657 0.013660 -0.039341
v 0.093346 0.009892 -0.032025
v 0.078939 0.006121 -0.012293
v 0.078939 0.003786 0.012318
v 0.093346 0.003781 0.032407
v 0.116657 0.006106 0.040302
v 0.139969 0.009874 0.032985
v 0.154376 0.013645 0.013253
v 0.154376 0.015980 -0.011358
v 0.139969 0.015986 -0.031447
v -0.166291 -0.436822 -0.097762
v -0.189644 -0.435160 -0.089824
v -0.204078 -0.436204 -0.069781
v -0.204078 -0.439554 -0.045287
v -0.189644 -0.443931 -0.025700
v -0.166291 -0.447662 -0.018500
v -0.142938 -0.449323 -0.026437
v -0.128505 -0.448280 -0.046481
v -0.128505 -0.444930 -0.070974
v -0.142938 -0.440553 -0.090562
v -0.116552 -0.013952 -0.039926
v -0.139905 -0.012290 -0.031988
v -0.154338 -0.013334 -0.011945
v -0.154338 -0.016684 0.012548
v -0.139905 -0.021061 0.032136
v -0.116552 -0.024792 0.039336
v -0.093199 -0.026454 0.031398
v -0.078765 -0.025410 0.011355
v -0.078765 -0.022060 -0.013138
v -0.093199 -0.017683 -0.032726
v 0.116790 0.009883 -0.039520
v 0.119691 -0.013446 -0.031871
v 0.121433 -0.027863 -0.011865
v 0.121351 -0.027863 0.012857
v 0.119476 -0.013446 0.032850
v 0.116524 0.009883 0.040480
v 0.113623 0.033212 0.032831
v 0.111881 0.047629 0.012825
v 0.111963 0.047629 -0.011896
v 0.113838 0.033212 -0.031890
v -0.116419 -0.019372 -0.040295
v -0.113518 -0.042701 -0.032646
v -0.111776 -0.057118 -0.012640
v -0.111858 -0.057118 0.012081
v -0.113733 -0.042701 0.032075
v -0.116685 -0.019372 0.039705
v -0.119586 0.003957 0.032056
v -0.121328 0.018374 0.012050
v -0.121246 0.018374 -0.012671
v -0.119371 0.003957 -0.032665
v 0.116657 0.003641 -0.039030
v 0.093354 0.001747 -0.030996
v 0.078952 0.002961 -0.010940
v 0.078952 0.006819 0.013478
v 0.093354 0.011847 0.032932
v 0.116657 0.016125 0.039990
v 0.139960 0.018019 0.031957
v 0.154362 0.016805 0.011901
v 0.154362 0.012948 -0.012518
v 0.139960 0.007919 -0.031972
v 0.086754 0.223946 -0.073835
v 0.063451 0.222052 -0.065801
v 0.049049 0.223266 -0.045745
v 0.049049 0.227124 -0.021327
v 0.063451 0.232152 -0.001873
v 0.086754 0.236430 0.005185
v 0.110056 0.238324 -0.002848
v 0.124458 0.237110 -0.022904
v 0.124458 0.233252 -0.047323
v 0.110056 0.228224 -0.066777
v 0.086754 0.250049 -0.069046
v 0.063337 0.248089 -0.061366
v 0.048865 0.239292 -0.043357
v 0.048865 0.227017 -0.021898
v 0.063337 0.215954 -0.005186
v 0.086754 0.210327 0.000396
v 0.110170 0.212286 -0.007284
v 0.124642 0.221084 -0.025292
v 0.124642 0.233359 -0.046751
v 0.110170 0.244422 -0.063463
v 0.121213 0.581631 0.120627
v 0.097796 0.579672 0.128307
v 0.083324 0.570874 0.146315
v 0.083324 0.558599 0.167774
v 0.097796 0.547536 0.184486
v 0.121213 0.541909 0.190068
v 0.144629 0.543869 0.182388
v 0.159101 0.552666 0.164380
v 0.159101 0.564941 0.142921
v 0.144629 0.576005 0.126209
v -0.116552 -0.052210 -0.023135
v -0.139430 -0.049034 -0.014322
v -0.153569 -0.034529 -0.000151
v -0.153569 -0.014234 0.013965
v -0.139430 0.004098 0.022634
v -0.116552 0.013466 0.022545
v -0.093674 0.010290 0.013732
v -0.079535 -0.004215 -0.000439
v -0.079535 -0.024510 -0.014555
v -0.093674 -0.042842 -0.023224
v -0.170965 0.078891 -0.211621
v -0.193843 0.082066 -0.202808
v -0.207982 0.096572 -0.188636
v -0.207982 0.116867 -0.174520
v -0.193843 0.135199 -0.165851
v -0.170965 0.144566 -0.165940
v -0.148088 0.141391 -0.174753
v -0.133948 0.126885 -0.188925
v -0.133948 0.106590 -0.203041
v -0.148088 0.088258 -0.211710
v -0.170965 0.104059 -0.228038
v -0.194036 0.109972 -0.221410
v -0.208294 0.116555 -0.202318
v -0.208294 0.121295 -0.178055
v -0.194036 0.122381 -0.157889
v -0.170965 0.119398 -0.149523
v -0.147895 0.113486 -0.156151
v -0.133636 0.106902 -0.175243
v -0.133636 0.102162 -0.199506
v -0.147895 0.101076 -0.219672
v -0.112702 0.395167 -0.284909
v -0.135773 0.401079 -0.278280
v -0.150031 0.407663 -0.259188
v -0.150031 0.412403 -0.234925
v -0.135773 0.413489 -0.214759
v -0.112702 0.410506 -0.206393
v -0.089632 0.404593 -0.213022
v -0.075374 0.398010 -0.232114
v -0.075374 0.393270 -0.256376
v -0.089632 0.392184 -0.276542
v -0.023955 0.065844 0.062842
v -0.028869 0.064493 0.055098
v -0.031906 0.068555 0.047338
v -0.031906 0.076478 0.042526
v -0.028869 0.085237 0.042500
v -0.023955 0.091486 0.047270
v -0.019042 0.092837 0.055014
v -0.016005 0.088775 0.062774
v -0.016005 0.080851 0.067586
v -0.019042 0.072092 0.067612
v 0.010088 0.053983 0.043311
v 0.005174 0.052631 0.035567
v 0.002137 0.056693 0.027806
v 0.002137 0.064617 0.022994
v 0.005174 0.073376 0.022968
v 0.010088 0.079624 0.027739
v 0.015002 0.080976 0.035483
v 0.018039 0.076914 0.043243
v 0.018039 0.068990 0.048055
v 0.015002 0.060231 0.048081
v 0.010088 0.061336 0.049493
v 0.005319 0.055475 0.044122
v 0.002371 0.053941 0.035468
v 0.002371 0.057320 0.026835
v 0.005319 0.064321 0.021521
v 0.010088 0.072271 0.021556
v 0.014857 0.078132 0.026927
v 0.017805 0.079666 0.035581
v 0.017805 0.076287 0.044214
v 0.014857 0.069286 0.049528
v 0.039982 0.043431 0.042484
v 0.035213 0.037570 0.037114
v 0.032265 0.036036 0.028460
v 0.032265 0.039415 0.019827
v 0.035213 0.046417 0.014513
v 0.039982 0.054366 0.014548
v 0.044752 0.060227 0.019919
v 0.047699 0.061761 0.028573
v 0.047699 0.058382 0.037206
v 0.044752 0.051381 0.042520
v 0.039982 0.044312 0.042798
v 0.035528 0.037944 0.037744
v 0.032774 0.035760 0.029165
v 0.032774 0.038595 0.020339
v 0.035528 0.045365 0.014636
v 0.039982 0.053485 0.014235
v 0.044437 0.059853 0.019289
v 0.047190 0.062037 0.027867
v 0.047190 0.059203 0.036694
v 0.044437 0.052433 0.042397
v 0.072872 0.025978 0.036910
v 0.068418 0.019610 0.031856
v 0.065665 0.017426 0.023278
v 0.065665 0.020261 0.014451
v 0.068418 0.027031 0.008748
v 0.072872 0.035151 0.008347
v 0.077327 0.041520 0.013401
v 0.080080 0.043704 0.021980
v 0.080080 0.040869 0.030806
v 0.077327 0.034099 0.036509
v 0.072872 0.033560 0.037327
v 0.068677 0.025389 0.036068
v 0.066085 0.019196 0.029676
v 0.066085 0.017344 0.020592
v 0.068677 0.020543 0.012286
v 0.072872 0.027570 0.007931
v 0.077068 0.035740 0.009189
v 0.079660 0.041934 0.015581
v 0.079660 0.043785 0.024665
v 0.077068 0.040587 0.032971
v 0.092729 0.023034 0.039471
v 0.088534 0.014864 0.038213
v 0.085942 0.008670 0.031821
v 0.085942 0.006819 0.022737
v 0.088534 0.010017 0.014431
v 0.092729 0.017044 0.010076
v 0.096925 0.025215 0.011334
v 0.099517 0.031408 0.017726
v 0.099517 0.033260 0.026810
v 0.096925 0.030061 0.035116
v -0.023955 0.070833 0.067849
v -0.031793 0.068884 0.063297
v -0.036636 0.070671 0.055597
v -0.036636 0.075511 0.047691
v -0.031793 0.081556 0.042597
v -0.023955 0.086497 0.042263
v -0.016118 0.088446 0.046815
v -0.011275 0.086659 0.054515
v -0.011275 0.081819 0.062422
v -0.016118 0.075774 0.067515
v 0.025164 -0.010455 0.018087
v 0.017327 -0.012404 0.013535
v 0.012483 -0.010617 0.005835
v 0.012483 -0.005777 -0.002072
v 0.017327 0.000268 -0.007165
v 0.025164 0.005208 -0.007499
v 0.033001 0.007157 -0.002947
v 0.037845 0.005371 0.004753
v 0.037845 0.000530 0.012659
v 0.033001 -0.005514 0.017752
v 0.025164 -0.005608 0.019994
v 0.016366 -0.005602 0.017072
v 0.010929 -0.004458 0.009651
v 0.010929 -0.002613 0.000566
v 0.016366 -0.000772 -0.006713
v 0.025164 0.000362 -0.009406
v 0.033962 0.000355 -0.006484
v 0.039399 -0.000789 0.000936
v 0.039399 -0.002633 0.010022
v 0.033962 -0.004474 0.017301
v 0.027108 -0.034735 0.014080
v 0.018310 -0.034728 0.011158
v 0.012872 -0.033584 0.003737
v 0.012872 -0.031740 -0.005348
v 0.018310 -0.029899 -0.012627
v 0.027108 -0.028765 -0.015320
v 0.035906 -0.028771 -0.012398
v 0.041343 -0.029915 -0.004978
v 0.041343 -0.031760 0.004107
v 0.035906 -0.033601 0.011387
v 0.027108 -0.034983 0.014027
v 0.018291 -0.034306 0.011243
v 0.012842 -0.032652 0.003927
v 0.012842 -0.030653 -0.005125
v 0.018291 -0.029074 -0.012457
v 0.027108 -0.028516 -0.015268
v 0.035924 -0.029194 -0.012484
v 0.041373 -0.030848 -0.005168
v 0.041373 -0.032846 0.003884
v 0.035924 -0.034426 0.011216
v 0.026953 -0.056575 0.009260
v 0.018136 -0.055898 0.006476
v 0.012688 -0.054244 -0.000839
v 0.012688 -0.052245 -0.009892
v 0.018136 -0.050666 -0.017224
v 0.026953 -0.050108 -0.020034
v 0.035770 -0.050786 -0.017250
v 0.041219 -0.052440 -0.009935
v 0.041219 -0.054438 -0.000882
v 0.035770 -0.056018 0.006450
v 0.026953 -0.063649 0.005510
v 0.018141 -0.061468 0.003630
v 0.012695 -0.056183 -0.001695
v 0.012695 -0.049813 -0.008429
v 0.018141 -0.044790 -0.014002
v 0.026953 -0.043034 -0.016284
v 0.035765 -0.045215 -0.014404
v 0.041211 -0.050500 -0.009080
v 0.041211 -0.056871 -0.002345
v 0.035765 -0.061893 0.003228
v 0.025937 -0.085888 -0.015525
v 0.017125 -0.083707 -0.017406
v 0.011679 -0.078422 -0.022730
v 0.011679 -0.072051 -0.029465
v 0.017125 -0.067028 -0.035038
v 0.025937 -0.065272 -0.037320
v 0.034749 -0.067453 -0.035440
v 0.040195 -0.072738 -0.030115
v 0.040195 -0.079109 -0.023380
v 0.034749 -0.084132 -0.017808
v -0.023955 0.070829 0.067847
v -0.032482 0.070412 0.064232
v -0.037751 0.073147 0.057111
v -0.037751 0.077989 0.049206
v -0.032482 0.083090 0.043536
v -0.023955 0.086500 0.042265
v -0.015429 0.086918 0.045881
v -0.010160 0.084183 0.053001
v -0.010160 0.079341 0.060906
v -0.015429 0.074240 0.066577
v 0.001806 -0.012612 0.016731
v -0.006721 -0.013029 0.013116
v -0.011990 -0.010294 0.005996
v -0.011990 -0.005452 -0.001909
v -0.006721 -0.000351 -0.007580
v 0.001806 0.003060 -0.008850
v 0.010332 0.003477 -0.005235
v 0.015601 0.000742 0.001885
v 0.015601 -0.004100 0.009790
v 0.010332 -0.009201 0.015461
v 0.001806 -0.019730 0.005113
v -0.006693 -0.017058 0.002548
v -0.011945 -0.009694 0.000515
v -0.011945 -0.000452 -0.000209
v -0.006693 0.007139 0.000651
v 0.001806 0.010178 0.002768
v 0.010304 0.007506 0.005333
v 0.015556 0.000142 0.007366
v 0.015556 -0.009100 0.008091
v 0.010304 -0.016691 0.007230
v 0.013057 -0.022912 -0.035485
v 0.004559 -0.020240 -0.038049
v -0.000693 -0.012876 -0.040082
v -0.000693 -0.003634 -0.040807
v 0.004559 0.003956 -0.039946
v 0.013057 0.006996 -0.037829
v 0.021556 0.004323 -0.035264
v 0.026808 -0.003040 -0.033231
v 0.026808 -0.012282 -0.032507
v 0.021556 -0.019873 -0.033368
v 0.013057 -0.008916 -0.051626
v 0.004241 -0.008829 -0.048761
v -0.001208 -0.008410 -0.041273
v -0.001208 -0.007818 -0.032021
v 0.004241 -0.007280 -0.024540
v 0.013057 -0.007000 -0.021687
v 0.021873 -0.007087 -0.024553
v 0.027322 -0.007507 -0.032041
v 0.027322 -0.008099 -0.041293
v 0.021873 -0.008637 -0.048774
v 0.012750 0.019157 -0.053423
v 0.003934 0.019243 -0.050557
v -0.001515 0.019663 -0.043069
v -0.001515 0.020255 -0.033817
v 0.003934 0.020793 -0.026337
v 0.012750 0.021072 -0.023484
v 0.021566 0.020985 -0.026349
v 0.027015 0.020566 -0.033837
v 0.027015 0.019974 -0.043089
v 0.021566 0.019436 -0.050570
v 0.012750 0.033081 -0.045993
v 0.004272 0.029388 -0.046647
v -0.000967 0.022152 -0.044170
v -0.000967 0.014138 -0.039510
v 0.004272 0.008407 -0.034446
v 0.012750 0.007147 -0.030913
v 0.021228 0.010841 -0.030260
v 0.026467 0.018077 -0.032736
v 0.026467 0.026091 -0.037396
v 0.021228 0.031822 -0.042460
v 0.004691 0.047265 -0.021602
v -0.003787 0.043571 -0.022255
v -0.009026 0.036335 -0.019779
v -0.009026 0.028321 -0.015119
v -0.003787 0.022590 -0.010055
v 0.004691 0.021331 -0.006521
v 0.013169 0.025025 -0.005868
v 0.018408 0.032260 -0.008345
v 0.018408 0.040274 -0.013005
v 0.013169 0.046006 -0.018069
v -0.023955 0.069812 0.067165
v -0.032760 0.071122 0.064574
v -0.038201 0.075313 0.058347
v -0.038201 0.080784 0.050864
v -0.032760 0.085446 0.044981
v -0.023955 0.087518 0.042947
v -0.015151 0.086208 0.045538
v -0.009710 0.082017 0.051765
v -0.009710 0.076546 0.059249
v -0.015151 0.071884 0.065131
v -0.018632 -0.010362 0.008548
v -0.027436 -0.009052 0.005957
v -0.032878 -0.004861 -0.000269
v -0.032878 0.000610 -0.007753
v -0.027436 0.005272 -0.013635
v -0.018632 0.007344 -0.015670
v -0.009828 0.006034 -0.013078
v -0.004387 0.001843 -0.006852
v -0.004387 -0.003629 0.000632
v -0.009828 -0.008291 0.006514
v -0.018632 -0.016351 -0.005737
v -0.027014 -0.013119 -0.008028
v -0.032194 -0.005453 -0.008613
v -0.032194 0.003719 -0.007267
v -0.027014 0.010894 -0.004506
v -0.018632 0.013332 -0.001384
v -0.010251 0.010101 0.000907
v -0.005070 0.002435 0.001491
v -0.005070 -0.006738 0.000146
v -0.010251 -0.013913 -0.002615
v -0.007544 -0.011421 -0.039352
v -0.015926 -0.008190 -0.041643
v -0.021106 -0.000524 -0.042227
v -0.021106 0.008649 -0.040882
v -0.015926 0.015824 -0.038121
v -0.007544 0.018262 -0.034999
v 0.000838 0.015030 -0.032708
v 0.006018 0.007364 -0.032124
v 0.006018 -0.001808 -0.033469
v 0.000838 -0.008983 -0.036230
v -0.007544 0.004979 -0.052094
v -0.016275 0.005900 -0.049118
v -0.021672 0.005874 -0.041580
v -0.021672 0.004911 -0.032359
v -0.016275 0.003378 -0.024979
v -0.007544 0.001862 -0.022257
v 0.001187 0.000941 -0.025233
v 0.006583 0.000967 -0.032771
v 0.006583 0.001930 -0.041992
v 0.001187 0.003462 -0.049372
v -0.004154 0.029009 -0.049584
v -0.012885 0.029930 -0.046608
v -0.018281 0.029904 -0.039070
v -0.018281 0.028941 -0.029849
v -0.012885 0.027409 -0.022469
v -0.004154 0.025893 -0.019747
v 0.004578 0.024972 -0.022723
v 0.009974 0.024998 -0.030261
v 0.009974 0.025961 -0.039482
v 0.004578 0.027493 -0.046862
v -0.004154 0.039225 -0.043959
v -0.012959 0.036697 -0.042538
v -0.018401 0.030638 -0.038109
v -0.018401 0.023361 -0.032365
v -0.012959 0.017647 -0.027500
v -0.004154 0.015677 -0.025372
v 0.004652 0.018205 -0.026793
v 0.010094 0.024264 -0.031222
v 0.010094 0.031541 -0.036965
v 0.004652 0.037255 -0.041831
v -0.005596 0.056704 -0.021816
v -0.014401 0.054176 -0.020395
v -0.019843 0.048117 -0.015966
v -0.019843 0.040840 -0.010222
v -0.014401 0.035125 -0.005357
v -0.005596 0.033156 -0.003229
v 0.003209 0.035683 -0.004650
v 0.008651 0.041743 -0.009079
v 0.008651 0.049019 -0.014822
v 0.003209 0.054734 -0.019688
v -0.023955 0.068237 0.065838
v -0.032668 0.071198 0.064717
v -0.038053 0.077011 0.059905
v -0.038053 0.083456 0.053241
v -0.032668 0.088071 0.047271
v -0.023955 0.089093 0.044274
v -0.015242 0.086132 0.045395
v -0.009857 0.080319 0.050207
v -0.009857 0.073874 0.056871
v -0.015242 0.069259 0.062842
v -0.037292 0.006307 0.005944
v -0.046005 0.009268 0.004823
v -0.051390 0.015081 0.000011
v -0.051390 0.021526 -0.006653
v -0.046005 0.026140 -0.012624
v -0.037292 0.027162 -0.015620
v -0.028579 0.024201 -0.014499
v -0.023194 0.018388 -0.009687
v -0.023194 0.011943 -0.003023
v -0.028579 0.007329 0.002947
v -0.037292 0.001963 -0.002229
v -0.045728 0.004338 -0.005252
v -0.050941 0.011448 -0.008117
v -0.050941 0.020577 -0.009729
v -0.045728 0.028239 -0.009474
v -0.037292 0.031506 -0.007448
v -0.028856 0.029131 -0.004425
v -0.023643 0.022021 -0.001560
v -0.023643 0.012892 0.000053
v -0.028856 0.005230 -0.000202
v -0.029441 -0.002531 -0.027669
v -0.037877 -0.000156 -0.030692
v -0.043090 0.006954 -0.033557
v -0.043090 0.016083 -0.035170
v -0.037877 0.023744 -0.034914
v -0.029441 0.027012 -0.032888
v -0.021005 0.024636 -0.029865
v -0.015791 0.017526 -0.027000
v -0.015791 0.008397 -0.025387
v -0.021005 0.000736 -0.025643
v -0.029441 0.006057 -0.043945
v -0.037049 0.011298 -0.043172
v -0.041750 0.016899 -0.037474
v -0.041750 0.020720 -0.029028
v -0.037049 0.021303 -0.021059
v -0.029441 0.018424 -0.016612
v -0.021833 0.013183 -0.017385
v -0.017131 0.007582 -0.023083
v -0.017131 0.003760 -0.031529
v -0.021833 0.003178 -0.039498
v -0.018141 0.023634 -0.051897
v -0.025748 0.028874 -0.051124
v -0.030450 0.034475 -0.045426
v -0.030450 0.038297 -0.036980
v -0.025748 0.038879 -0.029012
v -0.018141 0.036000 -0.024565
v -0.010533 0.030759 -0.025338
v -0.005831 0.025159 -0.031036
v -0.005831 0.021337 -0.039482
v -0.010533 0.020755 -0.047450
v -0.018141 0.040532 -0.048728
v -0.026955 0.038625 -0.046581
v -0.032403 0.033353 -0.041245
v -0.032403 0.026731 -0.034757
v -0.026955 0.021287 -0.029597
v -0.018141 0.019102 -0.027734
v -0.009326 0.021009 -0.029881
v -0.003878 0.026280 -0.035217
v -0.003878 0.032903 -0.041705
v -0.009326 0.038346 -0.046865
v -0.017684 0.054674 -0.034292
v -0.026499 0.052766 -0.032145
v -0.031947 0.047495 -0.026809
v -0.031947 0.040872 -0.020322
v -0.026499 0.035429 -0.015161
v -0.017684 0.033243 -0.013299
v -0.008870 0.035150 -0.015445
v -0.003422 0.040422 -0.020782
v -0.003422 0.047044 -0.027269
v -0.008870 0.052488 -0.032430
f 1 2 13
f 2 14 13
f 2 3 14
f 3 15 14
f 3 4 15
f 4 16 15
f 4 5 16
f 5 17 16
f 5 6 17
f 6 18 17
f 6 7 18
f 7 19 18
f 7 8 19
f 8 20 19
f 8 9 20
f 9 21 20
f 9 10 21
f 10 22 21
f 10 11 22
f 11 23 22
f 11 12 23
f 12 24 23
f 13 14 25
f 14 26 25
f 14 15 26
f 15 27 26
f 15 16 27
f 16 28 27
f 16 17 28
f 17 29 28
f 17 18 29
f 18 30 29
f 18 19 30
f 19 31 30
f 19 20 31
f 20 32 31
f 20 21 32
f 21 33 32
f 21 22 33
f 22 34 33
f 22 23 34
f 23 35 34
f 23 24 35
f 24 36 35
f 25 26 37
f 26 38 37
f 26 27 38
f 27 39 38
f 27 28 39
f 28 40 39
f 28 29 40
f 29 41 40
f 29 30 41
f 30 42 41
f 30 31 42
f 31 43 42
f 31 32 43
f 32 44 43
f 32 33 44
f 33 45 44
f 33 34 45
f 34 46 45
f 34 35 46
f 35 47 46
f 35 36 47
f 36 48 47
f 37 38 49
f 38 50 49
f 38 39 50
f 39 51 50
f 39 40 51
f 40 52 51
f 40 41 52
f 41 53 52
f 41 42 53
f 42 54 53
f 42 43 54
f 43 55 54
f 43 44 55
f 44 56 55
f 44 45 56
f 45 57 56
f 45 46 57
f 46 58 57
f 46 47 58
f 47 59 58
f 47 48 59
f 48 60 59
f 49 50 61
f 50 62 61
f 50 51 62
f 51 63 62
f 51 52 63
f 52 64 63
f 52 53 64
f 53 65 64
f 53 54 65
f 54 66 65
f 54 55 66
f 55 67 66
f 55 56 67
f 56 68 67
f 56 57 68
f 57 69 68
f 57 58 69
f 58 70 69
f 58 59 70
f 59 71 70
f 59 60 71
f 60 72 71
f 61 62 73
f 62 74 73
f 62 63 74
f 63 75 74
f 63 64 75
f 64 76 75
f 64 65 76
f 65 77 76
f 65 66 77
f 66 78 77
f 66 67 78
f 67 79 78
f 67 68 79
f 68 80 79
f 68 69 80
f 69 81 80
f 69 70 81
f 70 82 81
f 70 71 82
f 71 83 82
f 71 72 83
f 72 84 83
f 73 74 85
f 74 86 85
f 74 75 86
f 75 87 86
f 75 76 87
f 76 88 87
f 76 77 88
f 77 89 88
f 77 78 89
f 78 90 89
f 78 79 90
f 79 91 90
f 79 80 91
f 80 92 91
f 80 81 92
f 81 93 92
f 81 82 93
f 82 94 93
f 82 83 94
f 83 95 94
f 83 84 95
f 84 96 95
f 85 86 97
f 86 98 97
f 86 87 98
f 87 99 98
f 87 88 99
f 88 100 99
f 88 89 100
f 89 101 100
f 89 90 101
f 90 102 101
f 90 91 102
f 91 103 102
f 91 92 103
f 92 104 103
f 92 93 104
f 93 105 104
f 93 94 105
f 94 106 105
f 94 95 106
f 95 107 106
f 95 96 107
f 96 108 107
f 97 98 109
f 98 110 109
f 98 99 110
f 99 111 110
f 99 100 111
f 100 112 111
f 100 101 112
f 101 113 112
f 101 102 113
f 102 114 113
f 102 103 114
f 103 115 114
f 103 104 115
f 104 116 115
f 104 105 116
f 105 117 116
f 105 106 117
f 106 118 117
f 106 107 118
f 107 119 118
f 107 108 119
f 108 120 119
f 109 110 121
f 110 122 121
f 110 111 122
f 111 123 122
f 111 112 123
f 112 124 123
f 112 113 124
f 113 125 124
f 113 114 125
f 114 126 125
f 114 115 126
f 115 127 126
f 115 116 127
f 116 128 127
f 116 117 128
f 117 129 128
f 117 118 129
f 118 130 129
f 118 119 130
f 119 131 130
f 119 120 131
f 120 132 131
f 121 122 133
f 122 134 133
f 122 123 134
f 123 135 134
f 123 124 135
f 124 136 135
f 124 125 136
f 125 137 136
f 125 126 137
f 126 138 137
f 126 127 138
f 127 139 138
f 127 128 139
f 128 140 139
f 128 129 140
f 129 141 140
f 129 130 141
f 130 142 141
f 130 131 142
f 131 143 142
f 131 132 143
f 132 144 143
f 145 146 155
f 146 156 155
f 146 147 156
f 147 157 156
f 147 148 157
f 148 158 157
f 148 149 158
f 149 159 158
f 149 150 159
f 150 160 159
f 150 151 160
f 151 161 160
f 151 152 161
f 152 162 161
f 152 153 162
f 153 163 162
f 153 154 163
f 154 164 163
f 154 145 164
f 145 155 164
f 165 166 175
f 166 176 175
f 166 167 176
f 167 177 176
f 167 168 177
f 168 178 177
f 168 169 178
f 169 179 178
f 169 170 179
f 170 180 179
f 170 171 180
f 171 181 180
f 171 172 181
f 172 182 181
f 172 173 182
f 173 183 182
f 173 174 183
f 174 184 183
f 174 165 184
f 165 175 184
f 185 186 195
f 186 196 195
f 186 187 196
f 187 197 196
f 187 188 197
f 188 198 197
f 188 189 198
f 189 199 198
f 189 190 199
f 190 200 199
f 190 191 200
f 191 201 200
f 191 192 201
f 192 202 201
f 192 193 202
f 193 203 202
f 193 194 203
f 194 204 203
f 194 185 204
f 185 195 204
f 205 206 215
f 206 216 215
f 206 207 216
f 207 217 216
f 207 208 217
f 208 218 217
f 208 209 218
f 209 219 218
f 209 210 219
f 210 220 219
f 210 211 220
f 211 221 220
f 211 212 221
f 212 222 221
f 212 213 222
f 213 223 222
f 213 214 223
f 214 224 223
f 214 205 224
f 205 215 224
f 225 226 235
f 226 236 235
f 226 227 236
f 227 237 236
f 227 228 237
f 228 238 237
f 228 229 238
f 229 239 238
f 229 230 239
f 230 240 239
f 230 231 240
f 231 241 240
f 231 232 241
f 232 242 241
f 232 233 242
f 233 243 242
f 233 234 243
f 234 244 243
f 234 225 244
f 225 235 244
f 245 246 255
f 246 256 255
f 246 247 256
f 247 257 256
f 247 248 257
f 248 258 257
f 248 249 258
f 249 259 258
f 249 250 259
f 250 260 259
f 250 251 260
f 251 261 260
f 251 252 261
f 252 262 261
f 252 253 262
f 253 263 262
f 253 254 263
f 254 264 263
f 254 245 264
f 245 255 264
f 265 266 275
f 266 276 275
f 266 267 276
f 267 277 276
f 267 268 277
f 268 278 277
f 268 269 278
f 269 279 278
f 269 270 279
f 270 280 279
f 270 271 280
f 271 281 280
f 271 272 281
f 272 282 281
f 272 273 282
f 273 283 282
f 273 274 283
f 274 284 283
f 274 265 284
f 265 275 284
f 285 286 295
f 286 296 295
f 286 287 296
f 287 297 296
f 287 288 297
f 288 298 297
f 288 289 298
f 289 299 298
f 289 290 299
f 290 300 299
f 290 291 300
f 291 301 300
f 291 292 301
f 292 302 301
f 292 293 302
f 293 303 302
f 293 294 303
f 294 304 303
f 294 285 304
f 285 295 304
f 305 306 315
f 306 316 315
f 306 307 316
f 307 317 316
f 307 308 317
f 308 318 317
f 308 309 318
f 309 319 318
f 309 310 319
f 310 320 319
f 310 311 320
f 311 321 320
f 311 312 321
f 312 322 321
f 312 313 322
f 313 323 322
f 313 314 323
f 314 324 323
f 314 305 324
f 305 315 324
f 325 326 335
f 326 336 335
f 326 327 336
f 327 337 336
f 327 328 337
f 328 338 337
f 328 329 338
f 329 339 338
f 329 330 339
f 330 340 339
f 330 331 340
f 331 341 340
f 331 332 341
f 332 342 341
f 332 333 342
f 333 343 342
f 333 334 343
f 334 344 343
f 334 325 344
f 325 335 344
f 345 346 355
f 346 356 355
f 346 347 356
f 347 357 356
f 347 348 357
f 348 358 357
f 348 349 358
f 349 359 358
f 349 350 359
f 350 360 359
f 350 351 360
f 351 361 360
f 351 352 361
f 352 362 361
f 352 353 362
f 353 363 362
f 353 354 363
f 354 364 363
f 354 345 364
f 345 355 364
f 365 366 375
f 366 376 375
f 366 367 376
f 367 377 376
f 367 368 377
f 368 378 377
f 368 369 378
f 369 379 378
f 369 370 379
f 370 380 379
f 370 371 380
f 371 381 380
f 371 372 381
f 372 382 381
f 372 373 382
f 373 383 382
f 373 374 383
f 374 384 383
f 374 365 384
f 365 375 384
f 385 386 395
f 386 396 395
f 386 387 396
f 387 397 396
f 387 388 397
f 388 398 397
f 388 389 398
f 389 399 398
f 389 390 399
f 390 400 399
f 390 391 400
f 391 401 400
f 391 392 401
f 392 402 401
f 392 393 402
f 393 403 402
f 393 394 403
f 394 404 403
f 394 385 404
f 385 395 404
f 405 406 415
f 406 416 415
f 406 407 416
f 407 417 416
f 407 408 417
f 408 418 417
f 408 409 418
f 409 419 418
f 409 410 419
f 410 420 419
f 410 411 420
f 411 421 420
f 411 412 421
f 412 422 421
f 412 413 422
f 413 423 422
f 413 414 423
f 414 424 423
f 414 405 424
f 405 415 424
f 425 426 435
f 426 436 435
f 426 427 436
f 427 437 436
f 427 428 437
f 428 438 437
f 428 429 438
f 429 439 438
f 429 430 439
f 430 440 439
f 430 431 440
f 431 441 440
f 431 432 441
f 432 442 441
f 432 433 442
f 433 443 442
f 433 434 443
f 434 444 443
f 434 425 444
f 425 435 444
f 445 446 455
f 446 456 455
f 446 447 456
f 447 457 456
f 447 448 457
f 448 458 457
f 448 449 458
f 449 459 458
f 449 450 459
f 450 460 459
f 450 451 460
f 451 461 460
f 451 452 461
f 452 462 461
f 452 453 462
f 453 463 462
f 453 454 463
f 454 464 463
f 454 445 464
f 445 455 464
f 465 466 475
f 466 476 475
f 466 467 476
f 467 477 476
f 467 468 477
f 468 478 477
f 468 469 478
f 469 479 478
f 469 470 479
f 470 480 479
f 470 471 480
f 471 481 480
f 471 472 481
f 472 482 481
f 472 473 482
f 473 483 482
f 473 474 483
f 474 484 483
f 474 465 484
f 465 475 484
f 485 486 495
f 486 496 495
f 486 487 496
f 487 497 496
f 487 488 497
f 488 498 497
f 488 489 498
f 489 499 498
f 489 490 499
f 490 500 499
f 490 491 500
f 491 501 500
f 491 492 501
f 492 502 501
f 492 493 502
f 493 503 502
f 493 494 503
f 494 504 503
f 494 485 504
f 485 495 504
f 505 506 515
f 506 516 515
f 506 507 516
f 507 517 516
f 507 508 517
f 508 518 517
f 508 509 518
f 509 519 518
f 509 510 519
f 510 520 519
f 510 511 520
f 511 521 520
f 511 512 521
f 512 522 521
f 512 513 522
f 513 523 522
f 513 514 523
f 514 524 523
f 514 505 524
f 505 515 524
f 525 526 535
f 526 536 535
f 526 527 536
f 527 537 536
f 527 528 537
f 528 538 537
f 528 529 538
f 529 539 538
f 529 530 539
f 530 540 539
f 530 531 540
f 531 541 540
f 531 532 541
f 532 542 541
f 532 533 542
f 533 543 542
f 533 534 543
f 534 544 543
f 534 525 544
f 525 535 544
f 545 546 555
f 546 556 555
f 546 547 556
f 547 557 556
f 547 548 557
f 548 558 557
f 548 549 558
f 549 559 558
f 549 550 559
f 550 560 559
f 550 551 560
f 551 561 560
f 551 552 561
f 552 562 561
f 552 553 562
f 553 563 562
f 553 554 563
f 554 564 563
f 554 545 564
f 545 555 564
f 565 566 575
f 566 576 575
f 566 567 576
f 567 577 576
f 567 568 577
f 568 578 577
f 568 569 578
f 569 579 578
f 569 570 579
f 570 580 579
f 570 571 580
f 571 581 580
f 571 572 581
f 572 582 581
f 572 573 582
f 573 583 582
f 573 574 583
f 574 584 583
f 574 565 584
f 565 575 584
f 585 586 595
f 586 596 595
f 586 587 596
f 587 597 596
f 587 588 597
f 588 598 597
f 588 589 598
f 589 599 598
f 589 590 599
f 590 600 599
f 590 591 600
f 591 601 600
f 591 592 601
f 592 602 601
f 592 593 602
f 593 603 602
f 593 594 603
f 594 604 603
f 594 585 604
f 585 595 604
f 605 606 615
f 606 616 615
f 606 607 616
f 607 617 616
f 607 608 617
f 608 618 617
f 608 609 618
f 609 619 618
f 609 610 619
f 610 620 619
f 610 611 620
f 611 621 620
f 611 612 621
f 612 622 621
f 612 613 622
f 613 623 622
f 613 614 623
f 614 624 623
f 614 605 624
f 605 615 624
f 625 626 635
f 626 636 635
f 626 627 636
f 627 637 636
f 627 628 637
f 628 638 637
f 628 629 638
f 629 639 638
f 629 630 639
f 630 640 639
f 630 631 640
f 631 641 640
f 631 632 641
f 632 642 641
f 632 633 642
f 633 643 642
f 633 634 643
f 634 644 643
f 634 625 644
f 625 635 644
f 645 646 655
f 646 656 655
f 646 647 656
f 647 657 656
f 647 648 657
f 648 658 657
f 648 649 658
f 649 659 658
f 649 650 659
f 650 660 659
f 650 651 660
f 651 661 660
f 651 652 661
f 652 662 661
f 652 653 662
f 653 663 662
f 653 654 663
f 654 664 663
f 654 645 664
f 645 655 664
f 665 666 675
f 666 676 675
f 666 667 676
f 667 677 676
f 667 668 677
f 668 678 677
f 668 669 678
f 669 679 678
f 669 670 679
f 670 680 679
f 670 671 680
f 671 681 680
f 671 672 681
f 672 682 681
f 672 673 682
f 673 683 682
f 673 674 683
f 674 684 683
f 674 665 684
f 665 675 684
f 685 686 695
f 686 696 695
f 686 687 696
f 687 697 696
f 687 688 697
f 688 698 697
f 688 689 698
f 689 699 698
f 689 690 699
f 690 700 699
f 690 691 700
f 691 701 700
f 691 692 701
f 692 702 701
f 692 693 702
f 693 703 702
f 693 694 703
f 694 704 703
f 694 685 704
f 685 695 704
f 705 706 715
f 706 716 715
f 706 707 716
f 707 717 716
f 707 708 717
f 708 718 717
f 708 709 718
f 709 719 718
f 709 710 719
f 710 720 719
f 710 711 720
f 711 721 720
f 711 712 721
f 712 722 721
f 712 713 722
f 713 723 722
f 713 714 723
f 714 724 723
f 714 705 724
f 705 715 724
f 725 726 735
f 726 736 735
f 726 727 736
f 727 737 736
f 727 728 737
f 728 738 737
f 728 729 738
f 729 739 738
f 729 730 739
f 730 740 739
f 730 731 740
f 731 741 740
f 731 732 741
f 732 742 741
f 732 733 742
f 733 743 742
f 733 734 743
f 734 744 743
f 734 725 744
f 725 735 744
f 745 746 755
f 746 756 755
f 746 747 756
f 747 757 756
f 747 748 757
f 748 758 757
f 748 749 758
f 749 759 758
f 749 750 759
f 750 760 759
f 750 751 760
f 751 761 760
f 751 752 761
f 752 762 761
f 752 753 762
f 753 763 762
f 753 754 763
f 754 764 763
f 754 745 764
f 745 755 764
f 765 766 775
f 766 776 775
f 766 767 776
f 767 777 776
f 767 768 777
f 768 778 777
f 768 769 778
f 769 779 778
f 769 770 779
f 770 780 779
f 770 771 780
f 771 781 780
f 771 772 781
f 772 782 781
f 772 773 782
f 773 783 782
f 773 774 783
f 774 784 783
f 774 765 784
f 765 775 784
