# Full-Body 3D Mesh - Frame 195
v 0.016018 -0.620255 -0.129312
v 0.049826 -0.620255 -0.134173
v 0.080895 -0.620255 -0.148362
v 0.106708 -0.620255 -0.170729
v 0.125174 -0.620255 -0.199462
v 0.134796 -0.620255 -0.232234
v 0.134796 -0.620255 -0.266390
v 0.125174 -0.620255 -0.299162
v 0.106708 -0.620255 -0.327895
v 0.080895 -0.620255 -0.350262
v 0.049826 -0.620255 -0.364451
v 0.016018 -0.620255 -0.369312
v 0.016018 -0.620255 -0.129312
v 0.044459 -0.601977 -0.134173
v 0.070596 -0.585180 -0.148362
v 0.092311 -0.571225 -0.170729
v 0.107846 -0.561241 -0.199462
v 0.115941 -0.556039 -0.232234
v 0.115941 -0.556039 -0.266390
v 0.107846 -0.561241 -0.299162
v 0.092311 -0.571225 -0.327895
v 0.070596 -0.585180 -0.350262
v 0.044459 -0.601977 -0.364451
v 0.016018 -0.620255 -0.369312
v 0.016018 -0.620255 -0.129312
v 0.030062 -0.589503 -0.134173
v 0.042969 -0.561241 -0.148362
v 0.053692 -0.537761 -0.170729
v 0.061363 -0.520964 -0.199462
v 0.065360 -0.512211 -0.232234
v 0.065360 -0.512211 -0.266390
v 0.061363 -0.520964 -0.299162
v 0.053692 -0.537761 -0.327895
v 0.042969 -0.561241 -0.350262
v 0.030062 -0.589503 -0.364451
v 0.016018 -0.620255 -0.369312
v 0.016018 -0.620255 -0.129312
v 0.011206 -0.586792 -0.134173
v 0.006785 -0.556039 -0.148362
v 0.003111 -0.530489 -0.170729
v 0.000483 -0.512211 -0.199462
v -0.000886 -0.502686 -0.232234
v -0.000886 -0.502686 -0.266390
v 0.000483 -0.512211 -0.299162
v 0.003111 -0.530489 -0.327895
v 0.006785 -0.556039 -0.350262
v 0.011206 -0.586792 -0.364451
v 0.016018 -0.620255 -0.369312
v 0.016018 -0.620255 -0.129312
v -0.006122 -0.594705 -0.134173
v -0.026468 -0.571225 -0.148362
v -0.043371 -0.551717 -0.170729
v -0.055464 -0.537761 -0.199462
v -0.061766 -0.530489 -0.232234
v -0.061766 -0.530489 -0.266390
v -0.055464 -0.537761 -0.299162
v -0.043371 -0.551717 -0.327895
v -0.026468 -0.571225 -0.350262
v -0.006122 -0.594705 -0.364451
v 0.016018 -0.620255 -0.369312
v 0.016018 -0.620255 -0.129312
v -0.016421 -0.610731 -0.134173
v -0.046231 -0.601977 -0.148362
v -0.070999 -0.594705 -0.170729
v -0.088716 -0.589503 -0.199462
v -0.097949 -0.586792 -0.232234
v -0.097949 -0.586792 -0.266390
v -0.088716 -0.589503 -0.299162
v -0.070999 -0.594705 -0.327895
v -0.046231 -0.601977 -0.350262
v -0.016421 -0.610731 -0.364451
v 0.016018 -0.620255 -0.369312
v 0.016018 -0.620255 -0.129312
v -0.016421 -0.629780 -0.134173
v -0.046231 -0.638533 -0.148362
v -0.070999 -0.645806 -0.170729
v -0.088716 -0.651008 -0.199462
v -0.097949 -0.653719 -0.232234
v -0.097949 -0.653719 -0.266390
v -0.088716 -0.651008 -0.299162
v -0.070999 -0.645806 -0.327895
v -0.046231 -0.638533 -0.350262
v -0.016421 -0.629780 -0.364451
v 0.016018 -0.620255 -0.369312
v 0.016018 -0.620255 -0.129312
v -0.006122 -0.645806 -0.134173
v -0.026468 -0.669286 -0.148362
v -0.043371 -0.688794 -0.170729
v -0.055464 -0.702750 -0.199462
v -0.061766 -0.710022 -0.232234
v -0.061766 -0.710022 -0.266390
v -0.055464 -0.702750 -0.299162
v -0.043371 -0.688794 -0.327895
v -0.026468 -0.669286 -0.350262
v -0.006122 -0.645806 -0.364451
v 0.016018 -0.620255 -0.369312
v 0.016018 -0.620255 -0.129312
v 0.011206 -0.653719 -0.134173
v 0.006785 -0.684472 -0.148362
v 0.003111 -0.710022 -0.170729
v 0.000483 -0.728300 -0.199462
v -0.000886 -0.737825 -0.232234
v -0.000886 -0.737825 -0.266390
v 0.000483 -0.728300 -0.299162
v 0.003111 -0.710022 -0.327895
v 0.006785 -0.684472 -0.350262
v 0.011206 -0.653719 -0.364451
v 0.016018 -0.620255 -0.369312
v 0.016018 -0.620255 -0.129312
v 0.030062 -0.651008 -0.134173
v 0.042969 -0.679269 -0.148362
v 0.053692 -0.702750 -0.170729
v 0.061363 -0.719547 -0.199462
v 0.065360 -0.728300 -0.232234
v 0.065360 -0.728300 -0.266390
v 0.061363 -0.719547 -0.299162
v 0.053692 -0.702750 -0.327895
v 0.042969 -0.679269 -0.350262
v 0.030062 -0.651008 -0.364451
v 0.016018 -0.620255 -0.369312
v 0.016018 -0.620255 -0.129312
v 0.044459 -0.638533 -0.134173
v 0.070596 -0.655331 -0.148362
v 0.092311 -0.669286 -0.170729
v 0.107846 -0.679269 -0.199462
v 0.115941 -0.684472 -0.232234
v 0.115941 -0.684472 -0.266390
v 0.107846 -0.679269 -0.299162
v 0.092311 -0.669286 -0.327895
v 0.070596 -0.655331 -0.350262
v 0.044459 -0.638533 -0.364451
v 0.016018 -0.620255 -0.369312
v 0.016018 -0.620255 -0.129312
v 0.049826 -0.620255 -0.134173
v 0.080895 -0.620255 -0.148362
v 0.106708 -0.620255 -0.170729
v 0.125174 -0.620255 -0.199462
v 0.134796 -0.620255 -0.232234
v 0.134796 -0.620255 -0.266390
v 0.125174 -0.620255 -0.299162
v 0.106708 -0.620255 -0.327895
v 0.080895 -0.620255 -0.350262
v 0.049826 -0.620255 -0.364451
v 0.016018 -0.620255 -0.369312
v 0.172471 -0.443475 -0.074522
v 0.172750 -0.466958 -0.066802
v 0.171196 -0.481471 -0.046849
v 0.168403 -0.481471 -0.022286
v 0.165437 -0.466958 -0.002495
v 0.163431 -0.443475 0.004966
v 0.163152 -0.419991 -0.002755
v 0.164706 -0.405478 -0.022707
v 0.167499 -0.405478 -0.047270
v 0.170465 -0.419991 -0.067062
v -0.153599 -0.459543 -0.111604
v -0.153320 -0.483027 -0.103883
v -0.154874 -0.497540 -0.083931
v -0.157667 -0.497540 -0.059368
v -0.160633 -0.483027 -0.039577
v -0.162639 -0.459543 -0.032116
v -0.162918 -0.436060 -0.039836
v -0.161364 -0.421547 -0.059789
v -0.158571 -0.421547 -0.084352
v -0.155605 -0.436060 -0.104143
v 0.167951 -0.441516 -0.074730
v 0.144812 -0.437727 -0.066896
v 0.130511 -0.436133 -0.046794
v 0.130511 -0.437343 -0.022102
v 0.144812 -0.440896 -0.002252
v 0.167951 -0.445433 0.005174
v 0.191090 -0.449223 -0.002660
v 0.205391 -0.450816 -0.022763
v 0.205391 -0.449606 -0.047454
v 0.191090 -0.446053 -0.067304
v 0.211427 -0.200465 -0.062913
v 0.188288 -0.196676 -0.055079
v 0.173988 -0.195082 -0.034977
v 0.173988 -0.196292 -0.010285
v 0.188288 -0.199845 0.009565
v 0.211427 -0.204382 0.016991
v 0.234566 -0.208171 0.009157
v 0.248867 -0.209765 -0.010945
v 0.248867 -0.208555 -0.035637
v 0.234566 -0.205002 -0.055487
v 0.211427 -0.225512 -0.055624
v 0.187916 -0.221248 -0.049284
v 0.173386 -0.209793 -0.032889
v 0.173386 -0.195523 -0.012702
v 0.187916 -0.183889 0.003567
v 0.211427 -0.179335 0.009703
v 0.234938 -0.183599 0.003362
v 0.249468 -0.195054 -0.013033
v 0.249468 -0.209324 -0.033220
v 0.234938 -0.220958 -0.049489
v 0.209727 -0.041626 -0.185608
v 0.186216 -0.037361 -0.179267
v 0.171686 -0.025906 -0.162872
v 0.171686 -0.011637 -0.142685
v 0.186216 -0.000003 -0.126417
v 0.209727 0.004552 -0.120281
v 0.233238 0.000287 -0.126622
v 0.247768 -0.011168 -0.143017
v 0.247768 -0.025437 -0.163204
v 0.233238 -0.037071 -0.179472
v -0.158119 -0.468866 -0.110758
v -0.178786 -0.477987 -0.100717
v -0.191558 -0.480064 -0.079653
v -0.191558 -0.474302 -0.055612
v -0.178786 -0.462903 -0.037778
v -0.158119 -0.450221 -0.032962
v -0.137452 -0.441100 -0.043003
v -0.124680 -0.439023 -0.064067
v -0.124680 -0.444785 -0.088108
v -0.137452 -0.456184 -0.105942
v -0.276414 -0.256793 -0.161585
v -0.297080 -0.265915 -0.151543
v -0.309853 -0.267991 -0.130479
v -0.309853 -0.262229 -0.106439
v -0.297080 -0.250830 -0.088604
v -0.276414 -0.238148 -0.083788
v -0.255747 -0.229027 -0.093830
v -0.242974 -0.226951 -0.114894
v -0.242974 -0.232712 -0.138935
v -0.255747 -0.244111 -0.156769
v -0.276414 -0.282734 -0.141568
v -0.298765 -0.272557 -0.144391
v -0.312580 -0.252798 -0.138924
v -0.312580 -0.231004 -0.127255
v -0.298765 -0.215500 -0.113841
v -0.276414 -0.212207 -0.103806
v -0.254062 -0.222384 -0.100983
v -0.240248 -0.242144 -0.106450
v -0.240248 -0.263938 -0.118119
v -0.254062 -0.279442 -0.131533
v -0.212941 -0.190905 -0.313074
v -0.235293 -0.180728 -0.315897
v -0.249107 -0.160969 -0.310430
v -0.249107 -0.139175 -0.298761
v -0.235293 -0.123671 -0.285347
v -0.212941 -0.120378 -0.275312
v -0.190589 -0.130555 -0.272489
v -0.176775 -0.150314 -0.277956
v -0.176775 -0.172108 -0.289625
v -0.190589 -0.187613 -0.303039
v 0.167951 -0.439875 -0.074616
v 0.144525 -0.442559 -0.067188
v 0.130047 -0.445592 -0.047381
v 0.130047 -0.447817 -0.022759
v 0.144525 -0.448383 -0.002729
v 0.167951 -0.447074 0.005060
v 0.191377 -0.444391 -0.002368
v 0.205855 -0.441357 -0.022176
v 0.205855 -0.439133 -0.046797
v 0.191377 -0.438566 -0.066827
v 0.128901 0.014698 -0.033542
v 0.105475 0.012015 -0.026114
v 0.090997 0.008981 -0.006307
v 0.090997 0.006756 0.018314
v 0.105475 0.006190 0.038345
v 0.128901 0.007499 0.046133
v 0.152327 0.010182 0.038705
v 0.166805 0.013216 0.018898
v 0.166805 0.015441 -0.005723
v 0.152327 0.016007 -0.025753
v -0.158119 -0.453256 -0.111363
v -0.181574 -0.452855 -0.103563
v -0.196071 -0.455009 -0.083655
v -0.196071 -0.458895 -0.059240
v -0.181574 -0.463029 -0.039647
v -0.158119 -0.465831 -0.032357
v -0.134664 -0.466232 -0.040157
v -0.120167 -0.464078 -0.060065
v -0.120167 -0.460192 -0.084480
v -0.134664 -0.456058 -0.104073
v -0.127849 -0.020931 -0.042550
v -0.151305 -0.020530 -0.034751
v -0.165801 -0.022684 -0.014842
v -0.165801 -0.026570 0.009572
v -0.151305 -0.030704 0.029166
v -0.127849 -0.033506 0.036455
v -0.104394 -0.033907 0.028656
v -0.089898 -0.031753 0.008747
v -0.089898 -0.027867 -0.015667
v -0.104394 -0.023734 -0.035261
v 0.130356 0.011099 -0.033678
v 0.133544 -0.012156 -0.025917
v 0.134959 -0.026528 -0.005853
v 0.134060 -0.026528 0.018852
v 0.131190 -0.012156 0.038761
v 0.127447 0.011099 0.046269
v 0.124259 0.034353 0.038509
v 0.122844 0.048725 0.018444
v 0.123743 0.048725 -0.006261
v 0.126612 0.034353 -0.026170
v -0.126395 -0.027219 -0.043021
v -0.123207 -0.050473 -0.035261
v -0.121792 -0.064845 -0.015196
v -0.122691 -0.064845 0.009509
v -0.125560 -0.050473 0.029418
v -0.129304 -0.027219 0.036926
v -0.132492 -0.003965 0.029166
v -0.133907 0.010407 0.009101
v -0.133008 0.010407 -0.015604
v -0.130138 -0.003965 -0.035513
v 0.128901 -0.015025 -0.023996
v 0.105395 -0.010401 -0.017895
v 0.090867 0.002435 -0.002555
v 0.090867 0.018580 0.016166
v 0.105395 0.031867 0.031117
v 0.128901 0.037222 0.036587
v 0.152408 0.032598 0.030487
v 0.166935 0.019762 0.015146
v 0.166935 0.003617 -0.003575
v 0.152408 -0.009670 -0.018526
v 0.125482 0.111079 -0.132747
v 0.101976 0.115702 -0.126647
v 0.087448 0.128538 -0.111306
v 0.087448 0.144683 -0.092585
v 0.101976 0.157971 -0.077634
v 0.125482 0.163325 -0.072164
v 0.148989 0.158702 -0.078264
v 0.163516 0.145866 -0.093605
v 0.163516 0.129721 -0.112326
v 0.148989 0.116433 -0.127277
v 0.125482 0.151936 -0.139643
v 0.102139 0.151732 -0.131507
v 0.087712 0.145979 -0.112274
v 0.087712 0.136873 -0.089290
v 0.102139 0.127893 -0.071336
v 0.125482 0.122469 -0.065268
v 0.148825 0.122672 -0.073404
v 0.163252 0.128425 -0.092637
v 0.163252 0.137531 -0.115621
v 0.148825 0.146511 -0.133575
v 0.161466 0.430042 -0.029459
v 0.138123 0.429838 -0.021322
v 0.123696 0.424085 -0.002089
v 0.123696 0.414979 0.020894
v 0.138123 0.405999 0.038848
v 0.161466 0.400574 0.044916
v 0.184809 0.400778 0.036780
v 0.199236 0.406531 0.017547
v 0.199236 0.415637 -0.005436
v 0.184809 0.424617 -0.023391
v -0.127849 -0.066775 0.002895
v -0.150985 -0.059842 -0.002380
v -0.165284 -0.040449 -0.007910
v -0.165284 -0.016002 -0.011583
v -0.150985 0.004161 -0.011995
v -0.127849 0.012337 -0.008990
v -0.104714 0.005405 -0.003715
v -0.090415 -0.013989 0.001815
v -0.090415 -0.038436 0.005488
v -0.104714 -0.058598 0.005901
v -0.092416 -0.095867 -0.190741
v -0.115552 -0.088934 -0.196016
v -0.129850 -0.069540 -0.201546
v -0.129850 -0.045093 -0.205219
v -0.115552 -0.024931 -0.205631
v -0.092416 -0.016754 -0.202626
v -0.069280 -0.023687 -0.197351
v -0.054982 -0.043081 -0.191821
v -0.054982 -0.067528 -0.188148
v -0.069280 -0.087690 -0.187735
v -0.092416 -0.053217 -0.236564
v -0.115858 -0.052013 -0.228808
v -0.130347 -0.052451 -0.208782
v -0.130347 -0.054363 -0.184135
v -0.115858 -0.057019 -0.164280
v -0.092416 -0.059404 -0.156803
v -0.068974 -0.060607 -0.164559
v -0.054485 -0.060170 -0.184585
v -0.054485 -0.058258 -0.209232
v -0.068974 -0.055602 -0.229086
v -0.065332 0.298513 -0.209280
v -0.088774 0.299717 -0.201525
v -0.103262 0.299279 -0.181499
v -0.103262 0.297367 -0.156851
v -0.088774 0.294712 -0.136997
v -0.065332 0.292327 -0.129520
v -0.041889 0.291123 -0.137276
v -0.027401 0.291561 -0.157302
v -0.027401 0.293473 -0.181949
v -0.041889 0.296128 -0.201803
f 1 2 13
f 2 14 13
f 2 3 14
f 3 15 14
f 3 4 15
f 4 16 15
f 4 5 16
f 5 17 16
f 5 6 17
f 6 18 17
f 6 7 18
f 7 19 18
f 7 8 19
f 8 20 19
f 8 9 20
f 9 21 20
f 9 10 21
f 10 22 21
f 10 11 22
f 11 23 22
f 11 12 23
f 12 24 23
f 13 14 25
f 14 26 25
f 14 15 26
f 15 27 26
f 15 16 27
f 16 28 27
f 16 17 28
f 17 29 28
f 17 18 29
f 18 30 29
f 18 19 30
f 19 31 30
f 19 20 31
f 20 32 31
f 20 21 32
f 21 33 32
f 21 22 33
f 22 34 33
f 22 23 34
f 23 35 34
f 23 24 35
f 24 36 35
f 25 26 37
f 26 38 37
f 26 27 38
f 27 39 38
f 27 28 39
f 28 40 39
f 28 29 40
f 29 41 40
f 29 30 41
f 30 42 41
f 30 31 42
f 31 43 42
f 31 32 43
f 32 44 43
f 32 33 44
f 33 45 44
f 33 34 45
f 34 46 45
f 34 35 46
f 35 47 46
f 35 36 47
f 36 48 47
f 37 38 49
f 38 50 49
f 38 39 50
f 39 51 50
f 39 40 51
f 40 52 51
f 40 41 52
f 41 53 52
f 41 42 53
f 42 54 53
f 42 43 54
f 43 55 54
f 43 44 55
f 44 56 55
f 44 45 56
f 45 57 56
f 45 46 57
f 46 58 57
f 46 47 58
f 47 59 58
f 47 48 59
f 48 60 59
f 49 50 61
f 50 62 61
f 50 51 62
f 51 63 62
f 51 52 63
f 52 64 63
f 52 53 64
f 53 65 64
f 53 54 65
f 54 66 65
f 54 55 66
f 55 67 66
f 55 56 67
f 56 68 67
f 56 57 68
f 57 69 68
f 57 58 69
f 58 70 69
f 58 59 70
f 59 71 70
f 59 60 71
f 60 72 71
f 61 62 73
f 62 74 73
f 62 63 74
f 63 75 74
f 63 64 75
f 64 76 75
f 64 65 76
f 65 77 76
f 65 66 77
f 66 78 77
f 66 67 78
f 67 79 78
f 67 68 79
f 68 80 79
f 68 69 80
f 69 81 80
f 69 70 81
f 70 82 81
f 70 71 82
f 71 83 82
f 71 72 83
f 72 84 83
f 73 74 85
f 74 86 85
f 74 75 86
f 75 87 86
f 75 76 87
f 76 88 87
f 76 77 88
f 77 89 88
f 77 78 89
f 78 90 89
f 78 79 90
f 79 91 90
f 79 80 91
f 80 92 91
f 80 81 92
f 81 93 92
f 81 82 93
f 82 94 93
f 82 83 94
f 83 95 94
f 83 84 95
f 84 96 95
f 85 86 97
f 86 98 97
f 86 87 98
f 87 99 98
f 87 88 99
f 88 100 99
f 88 89 100
f 89 101 100
f 89 90 101
f 90 102 101
f 90 91 102
f 91 103 102
f 91 92 103
f 92 104 103
f 92 93 104
f 93 105 104
f 93 94 105
f 94 106 105
f 94 95 106
f 95 107 106
f 95 96 107
f 96 108 107
f 97 98 109
f 98 110 109
f 98 99 110
f 99 111 110
f 99 100 111
f 100 112 111
f 100 101 112
f 101 113 112
f 101 102 113
f 102 114 113
f 102 103 114
f 103 115 114
f 103 104 115
f 104 116 115
f 104 105 116
f 105 117 116
f 105 106 117
f 106 118 117
f 106 107 118
f 107 119 118
f 107 108 119
f 108 120 119
f 109 110 121
f 110 122 121
f 110 111 122
f 111 123 122
f 111 112 123
f 112 124 123
f 112 113 124
f 113 125 124
f 113 114 125
f 114 126 125
f 114 115 126
f 115 127 126
f 115 116 127
f 116 128 127
f 116 117 128
f 117 129 128
f 117 118 129
f 118 130 129
f 118 119 130
f 119 131 130
f 119 120 131
f 120 132 131
f 121 122 133
f 122 134 133
f 122 123 134
f 123 135 134
f 123 124 135
f 124 136 135
f 124 125 136
f 125 137 136
f 125 126 137
f 126 138 137
f 126 127 138
f 127 139 138
f 127 128 139
f 128 140 139
f 128 129 140
f 129 141 140
f 129 130 141
f 130 142 141
f 130 131 142
f 131 143 142
f 131 132 143
f 132 144 143
f 145 146 155
f 146 156 155
f 146 147 156
f 147 157 156
f 147 148 157
f 148 158 157
f 148 149 158
f 149 159 158
f 149 150 159
f 150 160 159
f 150 151 160
f 151 161 160
f 151 152 161
f 152 162 161
f 152 153 162
f 153 163 162
f 153 154 163
f 154 164 163
f 154 145 164
f 145 155 164
f 165 166 175
f 166 176 175
f 166 167 176
f 167 177 176
f 167 168 177
f 168 178 177
f 168 169 178
f 169 179 178
f 169 170 179
f 170 180 179
f 170 171 180
f 171 181 180
f 171 172 181
f 172 182 181
f 172 173 182
f 173 183 182
f 173 174 183
f 174 184 183
f 174 165 184
f 165 175 184
f 185 186 195
f 186 196 195
f 186 187 196
f 187 197 196
f 187 188 197
f 188 198 197
f 188 189 198
f 189 199 198
f 189 190 199
f 190 200 199
f 190 191 200
f 191 201 200
f 191 192 201
f 192 202 201
f 192 193 202
f 193 203 202
f 193 194 203
f 194 204 203
f 194 185 204
f 185 195 204
f 205 206 215
f 206 216 215
f 206 207 216
f 207 217 216
f 207 208 217
f 208 218 217
f 208 209 218
f 209 219 218
f 209 210 219
f 210 220 219
f 210 211 220
f 211 221 220
f 211 212 221
f 212 222 221
f 212 213 222
f 213 223 222
f 213 214 223
f 214 224 223
f 214 205 224
f 205 215 224
f 225 226 235
f 226 236 235
f 226 227 236
f 227 237 236
f 227 228 237
f 228 238 237
f 228 229 238
f 229 239 238
f 229 230 239
f 230 240 239
f 230 231 240
f 231 241 240
f 231 232 241
f 232 242 241
f 232 233 242
f 233 243 242
f 233 234 243
f 234 244 243
f 234 225 244
f 225 235 244
f 245 246 255
f 246 256 255
f 246 247 256
f 247 257 256
f 247 248 257
f 248 258 257
f 248 249 258
f 249 259 258
f 249 250 259
f 250 260 259
f 250 251 260
f 251 261 260
f 251 252 261
f 252 262 261
f 252 253 262
f 253 263 262
f 253 254 263
f 254 264 263
f 254 245 264
f 245 255 264
f 265 266 275
f 266 276 275
f 266 267 276
f 267 277 276
f 267 268 277
f 268 278 277
f 268 269 278
f 269 279 278
f 269 270 279
f 270 280 279
f 270 271 280
f 271 281 280
f 271 272 281
f 272 282 281
f 272 273 282
f 273 283 282
f 273 274 283
f 274 284 283
f 274 265 284
f 265 275 284
f 285 286 295
f 286 296 295
f 286 287 296
f 287 297 296
f 287 288 297
f 288 298 297
f 288 289 298
f 289 299 298
f 289 290 299
f 290 300 299
f 290 291 300
f 291 301 300
f 291 292 301
f 292 302 301
f 292 293 302
f 293 303 302
f 293 294 303
f 294 304 303
f 294 285 304
f 285 295 304
f 305 306 315
f 306 316 315
f 306 307 316
f 307 317 316
f 307 308 317
f 308 318 317
f 308 309 318
f 309 319 318
f 309 310 319
f 310 320 319
f 310 311 320
f 311 321 320
f 311 312 321
f 312 322 321
f 312 313 322
f 313 323 322
f 313 314 323
f 314 324 323
f 314 305 324
f 305 315 324
f 325 326 335
f 326 336 335
f 326 327 336
f 327 337 336
f 327 328 337
f 328 338 337
f 328 329 338
f 329 339 338
f 329 330 339
f 330 340 339
f 330 331 340
f 331 341 340
f 331 332 341
f 332 342 341
f 332 333 342
f 333 343 342
f 333 334 343
f 334 344 343
f 334 325 344
f 325 335 344
f 345 346 355
f 346 356 355
f 346 347 356
f 347 357 356
f 347 348 357
f 348 358 357
f 348 349 358
f 349 359 358
f 349 350 359
f 350 360 359
f 350 351 360
f 351 361 360
f 351 352 361
f 352 362 361
f 352 353 362
f 353 363 362
f 353 354 363
f 354 364 363
f 354 345 364
f 345 355 364
f 365 366 375
f 366 376 375
f 366 367 376
f 367 377 376
f 367 368 377
f 368 378 377
f 368 369 378
f 369 379 378
f 369 370 379
f 370 380 379
f 370 371 380
f 371 381 380
f 371 372 381
f 372 382 381
f 372 373 382
f 373 383 382
f 373 374 383
f 374 384 383
f 374 365 384
f 365 375 384
