# Full-Body 3D Mesh - Frame 31
v 0.012461 -0.624201 -0.080993
v 0.046269 -0.624201 -0.085854
v 0.077338 -0.624201 -0.100042
v 0.103151 -0.624201 -0.122409
v 0.121616 -0.624201 -0.151143
v 0.131239 -0.624201 -0.183915
v 0.131239 -0.624201 -0.218071
v 0.121616 -0.624201 -0.250843
v 0.103151 -0.624201 -0.279576
v 0.077338 -0.624201 -0.301943
v 0.046269 -0.624201 -0.316132
v 0.012461 -0.624201 -0.320993
v 0.012461 -0.624201 -0.080993
v 0.040902 -0.605924 -0.085854
v 0.067039 -0.589126 -0.100042
v 0.088754 -0.575171 -0.122409
v 0.104288 -0.565187 -0.151143
v 0.112384 -0.559985 -0.183915
v 0.112384 -0.559985 -0.218071
v 0.104288 -0.565187 -0.250843
v 0.088754 -0.575171 -0.279576
v 0.067039 -0.589126 -0.301943
v 0.040902 -0.605924 -0.316132
v 0.012461 -0.624201 -0.320993
v 0.012461 -0.624201 -0.080993
v 0.026505 -0.593449 -0.085854
v 0.039411 -0.565187 -0.100042
v 0.050135 -0.541707 -0.122409
v 0.057806 -0.524910 -0.151143
v 0.061803 -0.516157 -0.183915
v 0.061803 -0.516157 -0.218071
v 0.057806 -0.524910 -0.250843
v 0.050135 -0.541707 -0.279576
v 0.039411 -0.565187 -0.301943
v 0.026505 -0.593449 -0.316132
v 0.012461 -0.624201 -0.320993
v 0.012461 -0.624201 -0.080993
v 0.007649 -0.590738 -0.085854
v 0.003228 -0.559985 -0.100042
v -0.000446 -0.534435 -0.122409
v -0.003074 -0.516157 -0.151143
v -0.004443 -0.506632 -0.183915
v -0.004443 -0.506632 -0.218071
v -0.003074 -0.516157 -0.250843
v -0.000446 -0.534435 -0.279576
v 0.003228 -0.559985 -0.301943
v 0.007649 -0.590738 -0.316132
v 0.012461 -0.624201 -0.320993
v 0.012461 -0.624201 -0.080993
v -0.009679 -0.598651 -0.085854
v -0.030025 -0.575171 -0.100042
v -0.046929 -0.555663 -0.122409
v -0.059021 -0.541707 -0.151143
v -0.065323 -0.534435 -0.183915
v -0.065323 -0.534435 -0.218071
v -0.059021 -0.541707 -0.250843
v -0.046929 -0.555663 -0.279576
v -0.030025 -0.575171 -0.301943
v -0.009679 -0.598651 -0.316132
v 0.012461 -0.624201 -0.320993
v 0.012461 -0.624201 -0.080993
v -0.019978 -0.614677 -0.085854
v -0.049788 -0.605924 -0.100042
v -0.074556 -0.598651 -0.122409
v -0.092274 -0.593449 -0.151143
v -0.101507 -0.590738 -0.183915
v -0.101507 -0.590738 -0.218071
v -0.092274 -0.593449 -0.250843
v -0.074556 -0.598651 -0.279576
v -0.049788 -0.605924 -0.301943
v -0.019978 -0.614677 -0.316132
v 0.012461 -0.624201 -0.320993
v 0.012461 -0.624201 -0.080993
v -0.019978 -0.633726 -0.085854
v -0.049788 -0.642479 -0.100042
v -0.074556 -0.649752 -0.122409
v -0.092274 -0.654954 -0.151143
v -0.101507 -0.657665 -0.183915
v -0.101507 -0.657665 -0.218071
v -0.092274 -0.654954 -0.250843
v -0.074556 -0.649752 -0.279576
v -0.049788 -0.642479 -0.301943
v -0.019978 -0.633726 -0.316132
v 0.012461 -0.624201 -0.320993
v 0.012461 -0.624201 -0.080993
v -0.009679 -0.649752 -0.085854
v -0.030025 -0.673232 -0.100042
v -0.046929 -0.692740 -0.122409
v -0.059021 -0.706696 -0.151143
v -0.065323 -0.713968 -0.183915
v -0.065323 -0.713968 -0.218071
v -0.059021 -0.706696 -0.250843
v -0.046929 -0.692740 -0.279576
v -0.030025 -0.673232 -0.301943
v -0.009679 -0.649752 -0.316132
v 0.012461 -0.624201 -0.320993
v 0.012461 -0.624201 -0.080993
v 0.007649 -0.657665 -0.085854
v 0.003228 -0.688418 -0.100042
v -0.000446 -0.713968 -0.122409
v -0.003074 -0.732246 -0.151143
v -0.004443 -0.741771 -0.183915
v -0.004443 -0.741771 -0.218071
v -0.003074 -0.732246 -0.250843
v -0.000446 -0.713968 -0.279576
v 0.003228 -0.688418 -0.301943
v 0.007649 -0.657665 -0.316132
v 0.012461 -0.624201 -0.320993
v 0.012461 -0.624201 -0.080993
v 0.026505 -0.654954 -0.085854
v 0.039411 -0.683216 -0.100042
v 0.050135 -0.706696 -0.122409
v 0.057806 -0.723493 -0.151143
v 0.061803 -0.732246 -0.183915
v 0.061803 -0.732246 -0.218071
v 0.057806 -0.723493 -0.250843
v 0.050135 -0.706696 -0.279576
v 0.039411 -0.683216 -0.301943
v 0.026505 -0.654954 -0.316132
v 0.012461 -0.624201 -0.320993
v 0.012461 -0.624201 -0.080993
v 0.040902 -0.642479 -0.085854
v 0.067039 -0.659277 -0.100042
v 0.088754 -0.673232 -0.122409
v 0.104288 -0.683216 -0.151143
v 0.112384 -0.688418 -0.183915
v 0.112384 -0.688418 -0.218071
v 0.104288 -0.683216 -0.250843
v 0.088754 -0.673232 -0.279576
v 0.067039 -0.659277 -0.301943
v 0.040902 -0.642479 -0.316132
v 0.012461 -0.624201 -0.320993
v 0.012461 -0.624201 -0.080993
v 0.046269 -0.624201 -0.085854
v 0.077338 -0.624201 -0.100042
v 0.103151 -0.624201 -0.122409
v 0.121616 -0.624201 -0.151143
v 0.131239 -0.624201 -0.183915
v 0.131239 -0.624201 -0.218071
v 0.121616 -0.624201 -0.250843
v 0.103151 -0.624201 -0.279576
v 0.077338 -0.624201 -0.301943
v 0.046269 -0.624201 -0.316132
v 0.012461 -0.624201 -0.320993
v 0.171414 -0.440876 -0.026983
v 0.170856 -0.464386 -0.019362
v 0.169004 -0.478916 0.000553
v 0.166564 -0.478916 0.025153
v 0.164468 -0.464386 0.045044
v 0.163517 -0.440876 0.052626
v 0.164075 -0.417365 0.045005
v 0.165928 -0.402835 0.025090
v 0.168368 -0.402835 0.000490
v 0.170463 -0.417365 -0.019401
v -0.150024 -0.443589 -0.058866
v -0.150582 -0.467100 -0.051245
v -0.152435 -0.481630 -0.031330
v -0.154875 -0.481630 -0.006730
v -0.156970 -0.467100 0.013161
v -0.157921 -0.443589 0.020743
v -0.157363 -0.420078 0.013122
v -0.155511 -0.405548 -0.006793
v -0.153071 -0.405548 -0.031393
v -0.150975 -0.420078 -0.051284
v 0.167466 -0.447030 -0.026702
v 0.144007 -0.444298 -0.019396
v 0.129509 -0.440258 0.000216
v 0.129509 -0.436454 0.024643
v 0.144007 -0.434339 0.044554
v 0.167466 -0.434721 0.052345
v 0.190924 -0.437453 0.045039
v 0.205422 -0.441493 0.025427
v 0.205422 -0.445297 0.001000
v 0.190924 -0.447412 -0.018911
v 0.184560 -0.195592 -0.065856
v 0.161102 -0.192860 -0.058551
v 0.146604 -0.188820 -0.038939
v 0.146604 -0.185016 -0.014512
v 0.161102 -0.182901 0.005400
v 0.184560 -0.183283 0.013191
v 0.208019 -0.186015 0.005885
v 0.222517 -0.190055 -0.013727
v 0.222517 -0.193859 -0.038154
v 0.208019 -0.195974 -0.058066
v 0.184560 -0.229080 -0.031666
v 0.163014 -0.222764 -0.021322
v 0.149698 -0.203718 -0.012891
v 0.149698 -0.179217 -0.009595
v 0.163014 -0.158620 -0.012692
v 0.184560 -0.149795 -0.021000
v 0.206107 -0.156111 -0.031344
v 0.219423 -0.175157 -0.039774
v 0.219423 -0.199658 -0.043070
v 0.206107 -0.220255 -0.039973
v 0.101413 -0.203696 -0.220354
v 0.079867 -0.197380 -0.210010
v 0.066551 -0.178334 -0.201580
v 0.066551 -0.153833 -0.198284
v 0.079867 -0.133236 -0.201381
v 0.101413 -0.124411 -0.209688
v 0.122960 -0.130727 -0.220032
v 0.136276 -0.149773 -0.228462
v 0.136276 -0.174274 -0.231758
v 0.122960 -0.194871 -0.228661
v -0.153973 -0.447919 -0.058827
v -0.176695 -0.453097 -0.050578
v -0.190738 -0.454643 -0.030292
v -0.190738 -0.451967 -0.005716
v -0.176695 -0.446091 0.013763
v -0.153973 -0.439259 0.020703
v -0.131250 -0.434082 0.012455
v -0.117207 -0.432535 -0.007831
v -0.117207 -0.435211 -0.032407
v -0.131250 -0.441087 -0.051886
v -0.220768 -0.198125 -0.086024
v -0.243490 -0.203302 -0.077776
v -0.257533 -0.204849 -0.057490
v -0.257533 -0.202173 -0.032913
v -0.243490 -0.196297 -0.013435
v -0.220768 -0.189465 -0.006494
v -0.198045 -0.184287 -0.014743
v -0.184002 -0.182741 -0.035029
v -0.184002 -0.185417 -0.059605
v -0.198045 -0.191293 -0.079084
v -0.220768 -0.231620 -0.059268
v -0.241773 -0.220961 -0.066772
v -0.254755 -0.199926 -0.066440
v -0.254755 -0.176548 -0.058400
v -0.241773 -0.159758 -0.045723
v -0.220768 -0.155969 -0.033250
v -0.199762 -0.166629 -0.025747
v -0.186780 -0.187664 -0.026079
v -0.186780 -0.211042 -0.034119
v -0.199762 -0.227831 -0.046796
v -0.125768 -0.170175 -0.237930
v -0.146773 -0.159516 -0.245433
v -0.159755 -0.138480 -0.245101
v -0.159755 -0.115103 -0.237061
v -0.146773 -0.098313 -0.224384
v -0.125768 -0.094524 -0.211912
v -0.104762 -0.105183 -0.204408
v -0.091780 -0.126219 -0.204740
v -0.091780 -0.149596 -0.212780
v -0.104762 -0.166386 -0.225457
v 0.167466 -0.439736 -0.027162
v 0.144097 -0.442544 -0.019600
v 0.129655 -0.444714 0.000347
v 0.129655 -0.445419 0.025058
v 0.144097 -0.444387 0.045095
v 0.167466 -0.442015 0.052805
v 0.190834 -0.439207 0.045243
v 0.205276 -0.437037 0.025297
v 0.205276 -0.436333 0.000585
v 0.190834 -0.437364 -0.019452
v 0.118303 0.003444 -0.014536
v 0.094935 0.000637 -0.006973
v 0.080493 -0.001534 0.012973
v 0.080493 -0.002238 0.037684
v 0.094935 -0.001207 0.057722
v 0.118303 0.001166 0.065432
v 0.141671 0.003974 0.057870
v 0.156114 0.006144 0.037923
v 0.156114 0.006848 0.013212
v 0.141671 0.005817 -0.006826
v -0.153973 -0.443903 -0.059060
v -0.177406 -0.441926 -0.051436
v -0.191888 -0.440584 -0.031446
v -0.191888 -0.440391 -0.006726
v -0.177406 -0.441419 0.013283
v -0.153973 -0.443276 0.020937
v -0.130539 -0.445252 0.013313
v -0.116057 -0.446594 -0.006677
v -0.116057 -0.446787 -0.031398
v -0.130539 -0.445760 -0.051406
v -0.118631 -0.011889 -0.062446
v -0.142065 -0.009912 -0.054822
v -0.156547 -0.008571 -0.034832
v -0.156547 -0.008377 -0.010111
v -0.142065 -0.009405 0.009897
v -0.118631 -0.011262 0.017551
v -0.095198 -0.013239 0.009927
v -0.080716 -0.014580 -0.010063
v -0.080716 -0.014774 -0.034783
v -0.095198 -0.013746 -0.054792
v 0.126229 0.002305 -0.013759
v 0.126036 -0.021168 -0.006004
v 0.122890 -0.035675 0.013765
v 0.117992 -0.035675 0.037996
v 0.113212 -0.021168 0.057434
v 0.110378 0.002305 0.064655
v 0.110570 0.025778 0.056900
v 0.113716 0.040285 0.037132
v 0.118615 0.040285 0.012900
v 0.123394 0.025778 -0.006538
v -0.110706 -0.011575 -0.061654
v -0.110898 -0.035048 -0.053899
v -0.114045 -0.049555 -0.034131
v -0.118943 -0.049555 -0.009900
v -0.123722 -0.035048 0.009539
v -0.126557 -0.011575 0.016760
v -0.126364 0.011897 0.009005
v -0.123218 0.026404 -0.010764
v -0.118320 0.026404 -0.034995
v -0.113541 0.011897 -0.054434
v 0.118303 -0.008657 -0.013020
v 0.094792 -0.006482 -0.005697
v 0.080261 -0.000951 0.013523
v 0.080261 0.005824 0.037298
v 0.094792 0.011255 0.056547
v 0.118303 0.013267 0.063917
v 0.141815 0.011092 0.056593
v 0.156345 0.005561 0.037373
v 0.156345 -0.001214 0.013598
v 0.141815 -0.006645 -0.005650
v 0.119301 0.257880 -0.088972
v 0.095790 0.260055 -0.081649
v 0.081259 0.265587 -0.062429
v 0.081259 0.272361 -0.038654
v 0.095790 0.277792 -0.019405
v 0.119301 0.279804 -0.012035
v 0.142813 0.277629 -0.019359
v 0.157343 0.272098 -0.038579
v 0.157343 0.265323 -0.062354
v 0.142813 0.259892 -0.081602
v 0.119301 0.279929 -0.088937
v 0.095862 0.279573 -0.081088
v 0.081375 0.275119 -0.061558
v 0.081375 0.268267 -0.037805
v 0.095862 0.261635 -0.018903
v 0.119301 0.257756 -0.012071
v 0.142741 0.258111 -0.019919
v 0.157228 0.262566 -0.039450
v 0.157228 0.269418 -0.063203
v 0.142741 0.276050 -0.082105
v 0.140798 0.543961 -0.012772
v 0.117358 0.543605 -0.004924
v 0.102871 0.539151 0.014607
v 0.102871 0.532299 0.038360
v 0.117358 0.525667 0.057262
v 0.140798 0.521787 0.064094
v 0.164237 0.522143 0.056246
v 0.178724 0.526598 0.036715
v 0.178724 0.533449 0.012962
v 0.164237 0.540082 -0.005940
v -0.118631 -0.038765 -0.051785
v -0.141841 -0.030817 -0.048736
v -0.156185 -0.015518 -0.035646
v -0.156185 0.001286 -0.017514
v -0.141841 0.013178 -0.001267
v -0.118631 0.015615 0.006890
v -0.095422 0.007666 0.003842
v -0.081078 -0.007632 -0.009249
v -0.081078 -0.024437 -0.027381
v -0.095422 -0.036328 -0.043628
v -0.084766 0.114655 -0.193973
v -0.107975 0.122604 -0.190924
v -0.122319 0.137902 -0.177834
v -0.122319 0.154706 -0.159702
v -0.107975 0.166598 -0.143454
v -0.084766 0.169035 -0.135297
v -0.061557 0.161086 -0.138346
v -0.047213 0.145788 -0.151437
v -0.047213 0.128984 -0.169568
v -0.061557 0.117092 -0.185816
v -0.084766 0.145290 -0.204487
v -0.108187 0.146690 -0.196698
v -0.122661 0.146240 -0.176662
v -0.122661 0.144111 -0.152032
v -0.108187 0.141116 -0.132217
v -0.084766 0.138400 -0.124784
v -0.061346 0.137000 -0.132573
v -0.046871 0.137450 -0.152608
v -0.046871 0.139579 -0.177238
v -0.061346 0.142573 -0.197054
v -0.055357 0.477422 -0.175777
v -0.078778 0.478822 -0.167988
v -0.093252 0.478372 -0.147952
v -0.093252 0.476243 -0.123323
v -0.078778 0.473248 -0.103507
v -0.055357 0.470532 -0.096074
v -0.031937 0.469132 -0.103863
v -0.017462 0.469582 -0.123899
v -0.017462 0.471711 -0.148528
v -0.031937 0.474705 -0.168344
v -0.023082 -0.002369 0.087449
v -0.031885 0.000123 0.085954
v -0.037326 0.006006 0.081292
v -0.037326 0.013032 0.075243
v -0.031885 0.018517 0.070119
v -0.023082 0.020366 0.067876
v -0.014279 0.017873 0.069372
v -0.008838 0.011991 0.074034
v -0.008838 0.004965 0.080082
v -0.014279 -0.000520 0.085206
v -0.025106 -0.025942 0.060068
v -0.033909 -0.023450 0.058572
v -0.039349 -0.017567 0.053910
v -0.039349 -0.010541 0.047862
v -0.033909 -0.005056 0.042738
v -0.025106 -0.003207 0.040495
v -0.016303 -0.005700 0.041990
v -0.010862 -0.011582 0.046652
v -0.010862 -0.018608 0.052701
v -0.016303 -0.024093 0.057825
v -0.025106 -0.026708 0.059100
v -0.033875 -0.024929 0.056676
v -0.039295 -0.019194 0.051809
v -0.039295 -0.011695 0.046359
v -0.033875 -0.005296 0.042407
v -0.025106 -0.002441 0.041462
v -0.016337 -0.004221 0.043886
v -0.010917 -0.009955 0.048753
v -0.010917 -0.017454 0.054204
v -0.016337 -0.023853 0.058156
v -0.022877 -0.039273 0.041813
v -0.031646 -0.037493 0.039389
v -0.037066 -0.031759 0.034522
v -0.037066 -0.024260 0.029072
v -0.031646 -0.017860 0.025120
v -0.022877 -0.015005 0.024175
v -0.014108 -0.016785 0.026599
v -0.008688 -0.022520 0.031466
v -0.008688 -0.030019 0.036916
v -0.014108 -0.036418 0.040869
v -0.022877 -0.039321 0.041747
v -0.031417 -0.035715 0.041856
v -0.036695 -0.028833 0.038580
v -0.036695 -0.021305 0.033171
v -0.031417 -0.016004 0.027694
v -0.022877 -0.014957 0.024242
v -0.014337 -0.018563 0.024133
v -0.009059 -0.025445 0.027408
v -0.009059 -0.032974 0.032818
v -0.014337 -0.038274 0.038294
v -0.032005 -0.060064 0.012876
v -0.040544 -0.056458 0.012985
v -0.045822 -0.049576 0.009709
v -0.045822 -0.042048 0.004300
v -0.040544 -0.036747 -0.001177
v -0.032005 -0.035700 -0.004629
v -0.023465 -0.039306 -0.004738
v -0.018187 -0.046188 -0.001462
v -0.018187 -0.053716 0.003947
v -0.023465 -0.059017 0.009423
v -0.032005 -0.060232 0.012636
v -0.039904 -0.055651 0.014234
v -0.044787 -0.048103 0.011970
v -0.044787 -0.040470 0.006708
v -0.039904 -0.035668 0.000460
v -0.032005 -0.035532 -0.004390
v -0.024105 -0.040113 -0.005987
v -0.019222 -0.047661 -0.003723
v -0.019222 -0.055294 0.001538
v -0.024105 -0.060096 0.007787
v -0.043307 -0.073175 -0.006140
v -0.051207 -0.068594 -0.004542
v -0.056089 -0.061046 -0.006807
v -0.056089 -0.053413 -0.012068
v -0.051207 -0.048611 -0.018317
v -0.043307 -0.048475 -0.023166
v -0.035407 -0.053055 -0.024764
v -0.030525 -0.060604 -0.022500
v -0.030525 -0.068237 -0.017238
v -0.035407 -0.073038 -0.010989
v -0.023082 -0.005637 0.080952
v -0.031789 -0.003145 0.078972
v -0.037171 0.003984 0.076493
v -0.037171 0.013029 0.074460
v -0.031789 0.020534 0.073650
v -0.023082 0.023633 0.074373
v -0.014375 0.021142 0.076353
v -0.008993 0.014012 0.078833
v -0.008993 0.004967 0.080866
v -0.014375 -0.002538 0.081675
v -0.009195 -0.024780 -0.004222
v -0.017902 -0.022289 -0.006202
v -0.023283 -0.015159 -0.008682
v -0.023283 -0.006114 -0.010715
v -0.017902 0.001391 -0.011524
v -0.009195 0.004489 -0.010801
v -0.000487 0.001998 -0.008821
v 0.004894 -0.005132 -0.006341
v 0.004894 -0.014176 -0.004308
v -0.000487 -0.021682 -0.003499
v -0.010293 -0.010145 0.007448
v -0.013718 -0.018174 0.004324
v -0.015415 -0.023135 -0.003321
v -0.014736 -0.023135 -0.012566
v -0.011941 -0.018174 -0.019881
v -0.008096 -0.010145 -0.022471
v -0.004671 -0.002117 -0.019347
v -0.002974 0.002845 -0.011702
v -0.003653 0.002845 -0.002457
v -0.006449 -0.002117 0.004858
v 0.007204 -0.018110 0.008733
v 0.003779 -0.026138 0.005609
v 0.002082 -0.031100 -0.002036
v 0.002761 -0.031100 -0.011281
v 0.005556 -0.026138 -0.018596
v 0.009401 -0.018110 -0.021186
v 0.012826 -0.010082 -0.018062
v 0.014523 -0.005120 -0.010417
v 0.013844 -0.005120 -0.001172
v 0.011048 -0.010082 0.006143
v 0.008302 -0.004854 0.000793
v -0.000097 -0.008641 0.001822
v -0.005288 -0.016044 -0.000223
v -0.005288 -0.024237 -0.004562
v -0.000097 -0.030089 -0.009536
v 0.008302 -0.031366 -0.013247
v 0.016701 -0.027579 -0.014275
v 0.021892 -0.020176 -0.012230
v 0.021892 -0.011983 -0.007891
v 0.016701 -0.006131 -0.002917
v 0.013877 -0.013026 0.016226
v 0.005478 -0.016813 0.017254
v 0.000287 -0.024216 0.015209
v 0.000287 -0.032409 0.010870
v 0.005478 -0.038261 0.005896
v 0.013877 -0.039538 0.002185
v 0.022276 -0.035752 0.001157
v 0.027467 -0.028348 0.003202
v 0.027467 -0.020156 0.007541
v 0.022276 -0.014303 0.012515
v 0.013877 -0.011361 0.010744
v 0.006977 -0.013648 0.004990
v 0.002712 -0.020761 0.000847
v 0.002712 -0.029983 -0.000103
v 0.006977 -0.037791 0.002502
v 0.013877 -0.041203 0.007667
v 0.020777 -0.038916 0.013421
v 0.025042 -0.031804 0.017564
v 0.025042 -0.022582 0.018514
v 0.020777 -0.014774 0.015909
v 0.004017 -0.012633 0.023075
v -0.002883 -0.014919 0.017322
v -0.007148 -0.022032 0.013179
v -0.007148 -0.031254 0.012228
v -0.002883 -0.039062 0.014833
v 0.004017 -0.042474 0.019999
v 0.010917 -0.040188 0.025752
v 0.015182 -0.033075 0.029895
v 0.015182 -0.023853 0.030846
v 0.010917 -0.016045 0.028241
v -0.023082 -0.005903 0.079378
v -0.031606 -0.003315 0.076813
v -0.036875 0.003977 0.074573
v -0.036875 0.013186 0.073513
v -0.031606 0.020796 0.074038
v -0.023082 0.023900 0.075947
v -0.014558 0.021311 0.078512
v -0.009289 0.014020 0.080752
v -0.009289 0.004810 0.081812
v -0.014558 -0.002800 0.081287
v -0.002261 -0.014917 0.001074
v -0.010785 -0.012328 -0.001491
v -0.016054 -0.005037 -0.003731
v -0.016054 0.004173 -0.004791
v -0.010785 0.011783 -0.004266
v -0.002261 0.014886 -0.002357
v 0.006264 0.012298 0.000208
v 0.011532 0.005006 0.002448
v 0.011532 -0.004204 0.003508
v 0.006264 -0.011813 0.002983
v -0.002261 -0.005666 0.013253
v -0.006755 -0.011614 0.007742
v -0.009532 -0.013131 -0.000972
v -0.009532 -0.009639 -0.009559
v -0.006755 -0.002470 -0.014741
v -0.002261 0.005636 -0.014537
v 0.002233 0.011583 -0.009025
v 0.005010 0.013100 -0.000312
v 0.005010 0.009608 0.008276
v 0.002233 0.002440 0.013457
v 0.026828 -0.021630 0.006761
v 0.022335 -0.027577 0.001250
v 0.019557 -0.029094 -0.007464
v 0.019557 -0.025602 -0.016051
v 0.022335 -0.018434 -0.021233
v 0.026828 -0.010328 -0.021029
v 0.031322 -0.004380 -0.015517
v 0.034100 -0.002863 -0.006804
v 0.034100 -0.006356 0.001784
v 0.031322 -0.013524 0.006965
v 0.026828 -0.003091 0.000541
v 0.018215 -0.004590 -0.002541
v 0.012891 -0.010439 -0.007377
v 0.012891 -0.018404 -0.012120
v 0.018215 -0.025443 -0.014959
v 0.026828 -0.028867 -0.014808
v 0.035442 -0.027368 -0.011726
v 0.040766 -0.021519 -0.006890
v 0.040766 -0.013553 -0.002147
v 0.035442 -0.006514 0.000691
v 0.022204 -0.013927 0.018738
v 0.013590 -0.015426 0.015656
v 0.008266 -0.021275 0.010820
v 0.008266 -0.029240 0.006077
v 0.013590 -0.036279 0.003239
v 0.022204 -0.039703 0.003389
v 0.030817 -0.038204 0.006471
v 0.036141 -0.032354 0.011307
v 0.036141 -0.024389 0.016050
v 0.030817 -0.017350 0.018888
v 0.022204 -0.011816 0.010886
v 0.013881 -0.014715 0.008010
v 0.008738 -0.022235 0.006299
v 0.008738 -0.031505 0.006409
v 0.013881 -0.038983 0.008296
v 0.022204 -0.041814 0.011241
v 0.030526 -0.038915 0.014117
v 0.035670 -0.031394 0.015828
v 0.035670 -0.022124 0.015718
v 0.030526 -0.014646 0.013831
v 0.014519 -0.011556 0.032857
v 0.006197 -0.014455 0.029980
v 0.001053 -0.021976 0.028270
v 0.001053 -0.031246 0.028380
v 0.006197 -0.038724 0.030267
v 0.014519 -0.041554 0.033211
v 0.022841 -0.038655 0.036088
v 0.027985 -0.031135 0.037798
v 0.027985 -0.021865 0.037689
v 0.022841 -0.014387 0.035801
v -0.023082 -0.005962 0.078757
v -0.031264 -0.003344 0.075271
v -0.036320 0.003987 0.072698
v -0.036320 0.013233 0.072022
v -0.031264 0.020861 0.073500
v -0.023082 0.023958 0.076569
v -0.014901 0.021341 0.080055
v -0.009844 0.014009 0.082628
v -0.009844 0.004763 0.083304
v -0.014901 -0.002865 0.081825
v 0.006920 -0.011411 0.004259
v -0.001261 -0.008793 0.000773
v -0.006318 -0.001461 -0.001800
v -0.006318 0.007784 -0.002476
v -0.001261 0.015413 -0.000998
v 0.006920 0.018509 0.002070
v 0.015102 0.015892 0.005557
v 0.020158 0.008560 0.008129
v 0.020158 -0.000686 0.008806
v 0.015102 -0.008314 0.007327
v 0.006920 0.001896 0.018073
v 0.001264 -0.004511 0.014480
v -0.002232 -0.007838 0.006565
v -0.002232 -0.006816 -0.002649
v 0.001264 -0.001835 -0.009642
v 0.006920 0.005203 -0.011744
v 0.012577 0.011609 -0.008151
v 0.016073 0.014937 -0.000236
v 0.016073 0.013915 0.008978
v 0.012577 0.008933 0.015972
v 0.023099 -0.011552 0.016582
v 0.017442 -0.017958 0.012989
v 0.013947 -0.021286 0.005073
v 0.013947 -0.020264 -0.004141
v 0.017442 -0.015283 -0.011134
v 0.023099 -0.008245 -0.013236
v 0.028755 -0.001838 -0.009643
v 0.032251 0.001489 -0.001728
v 0.032251 0.000467 0.007486
v 0.028755 -0.004514 0.014480
v 0.023099 0.002730 0.009767
v 0.014427 -0.000540 0.009561
v 0.009067 -0.007385 0.006341
v 0.009067 -0.015190 0.001339
v 0.014427 -0.020974 -0.003536
v 0.023099 -0.022527 -0.006421
v 0.031771 -0.019257 -0.006215
v 0.037130 -0.012412 -0.002995
v 0.037130 -0.004607 0.002007
v 0.031771 0.001177 0.006882
v 0.026086 -0.006058 0.023479
v 0.017414 -0.009329 0.023273
v 0.012055 -0.016173 0.020054
v 0.012055 -0.023978 0.015051
v 0.017414 -0.029762 0.010176
v 0.026086 -0.031316 0.007291
v 0.034759 -0.028045 0.007497
v 0.040118 -0.021200 0.010717
v 0.040118 -0.013395 0.015719
v 0.034759 -0.007612 0.020594
v 0.026086 -0.003784 0.013682
v 0.017958 -0.007018 0.010613
v 0.012935 -0.014709 0.009367
v 0.012935 -0.023920 0.010420
v 0.017958 -0.031132 0.013369
v 0.026086 -0.033590 0.017088
v 0.034214 -0.030356 0.020157
v 0.039238 -0.022665 0.021403
v 0.039238 -0.013454 0.020351
v 0.034214 -0.006242 0.017401
v 0.017311 -0.001413 0.034425
v 0.009183 -0.004647 0.031356
v 0.004160 -0.012339 0.030110
v 0.004160 -0.021549 0.031163
v 0.009183 -0.028761 0.034112
v 0.017311 -0.031219 0.037832
v 0.025439 -0.027985 0.040901
v 0.030462 -0.020294 0.042147
v 0.030462 -0.011083 0.041094
v 0.025439 -0.003871 0.038145
v -0.023082 -0.005985 0.078381
v -0.030951 -0.003313 0.074270
v -0.035814 0.004060 0.071456
v -0.035814 0.013320 0.071012
v -0.030951 0.020929 0.073109
v -0.023082 0.023981 0.076945
v -0.015214 0.021310 0.081055
v -0.010351 0.013936 0.083870
v -0.010351 0.004676 0.084313
v -0.015214 -0.002933 0.082217
v 0.007900 -0.008917 0.017163
v 0.000032 -0.006246 0.013053
v -0.004831 0.001127 0.010239
v -0.004831 0.010387 0.009795
v 0.000032 0.017996 0.011892
v 0.007900 0.021048 0.015728
v 0.015769 0.018377 0.019838
v 0.020632 0.011003 0.022653
v 0.020632 0.001743 0.023096
v 0.015769 -0.005866 0.021000
v 0.007965 0.006065 0.031446
v 0.005604 -0.002433 0.028591
v 0.004119 -0.007685 0.021097
v 0.004079 -0.007685 0.011827
v 0.005498 -0.002433 0.004321
v 0.007835 0.006065 0.001446
v 0.010196 0.014563 0.004300
v 0.011681 0.019816 0.011794
v 0.011721 0.019816 0.021064
v 0.010302 0.014563 0.028571
v 0.022156 0.002143 0.031384
v 0.019794 -0.006356 0.028529
v 0.018310 -0.011608 0.021036
v 0.018270 -0.011608 0.011765
v 0.019689 -0.006356 0.004259
v 0.022026 0.002143 0.001384
v 0.024387 0.010641 0.004239
v 0.025872 0.015893 0.011732
v 0.025912 0.015893 0.021003
v 0.024493 0.010641 0.028509
v 0.022091 0.014535 0.024835
v 0.013433 0.011230 0.024597
v 0.008082 0.004454 0.021222
v 0.008082 -0.003205 0.015999
v 0.013433 -0.008822 0.010923
v 0.022091 -0.010250 0.007933
v 0.030749 -0.006945 0.008171
v 0.036100 -0.000169 0.011546
v 0.036100 0.007490 0.016769
v 0.030749 0.013107 0.021845
v 0.025840 0.003555 0.040937
v 0.017182 0.000250 0.040699
v 0.011831 -0.006526 0.037324
v 0.011831 -0.014186 0.032101
v 0.017182 -0.019802 0.027025
v 0.025840 -0.021231 0.024035
v 0.034498 -0.017926 0.024273
v 0.039849 -0.011149 0.027648
v 0.039849 -0.003490 0.032871
v 0.034498 0.002126 0.037947
v 0.025840 0.004826 0.038674
v 0.017688 0.003603 0.034432
v 0.012650 -0.002373 0.029446
v 0.012650 -0.010817 0.025621
v 0.017688 -0.018506 0.024419
v 0.025840 -0.022502 0.026297
v 0.033991 -0.021278 0.030540
v 0.039029 -0.015303 0.035526
v 0.039029 -0.006858 0.039350
v 0.033991 0.000830 0.040553
v 0.019254 -0.001766 0.053229
v 0.011102 -0.002989 0.048986
v 0.006065 -0.008965 0.044001
v 0.006065 -0.017409 0.040176
v 0.011102 -0.025098 0.038973
v 0.019254 -0.029094 0.040852
v 0.027405 -0.027870 0.045094
v 0.032443 -0.021895 0.050080
v 0.032443 -0.013451 0.053905
v 0.027405 -0.005762 0.055108
v 0.014259 -0.040731 0.080811
v 0.006160 -0.038698 0.076783
v 0.001155 -0.031851 0.073041
v 0.001155 -0.022805 0.071012
v 0.006160 -0.015015 0.071473
v 0.014259 -0.011458 0.074247
v 0.022357 -0.013490 0.078274
v 0.027363 -0.020337 0.082017
v 0.027363 -0.029383 0.084045
v 0.022357 -0.037173 0.083585
v 0.024548 -0.045962 0.057480
v 0.016449 -0.043930 0.053453
v 0.011443 -0.037083 0.049710
v 0.011443 -0.028037 0.047681
v 0.016449 -0.020247 0.048142
v 0.024548 -0.016689 0.050916
v 0.032646 -0.018722 0.054943
v 0.037652 -0.025569 0.058686
v 0.037652 -0.034615 0.060714
v 0.032646 -0.042404 0.060254
v 0.024548 -0.046218 0.052406
v 0.015812 -0.043517 0.053932
v 0.010413 -0.036158 0.055559
v 0.010413 -0.026954 0.056667
v 0.015812 -0.019420 0.056832
v 0.024548 -0.016433 0.055990
v 0.033283 -0.019135 0.054464
v 0.038682 -0.026493 0.052836
v 0.038682 -0.035697 0.051729
v 0.033283 -0.043232 0.051564
v 0.021119 -0.043217 0.027467
v 0.012384 -0.040515 0.028993
v 0.006985 -0.033157 0.030621
v 0.006985 -0.023953 0.031729
v 0.012384 -0.016419 0.031893
v 0.021119 -0.013432 0.031052
v 0.029855 -0.016134 0.029526
v 0.035254 -0.023492 0.027898
v 0.035254 -0.032696 0.026791
v 0.029855 -0.040230 0.026626
v 0.021119 -0.043215 0.027451
v 0.012799 -0.040020 0.024901
v 0.007657 -0.032357 0.024016
v 0.007657 -0.023154 0.025133
v 0.012799 -0.015926 0.027827
v 0.021119 -0.013434 0.031068
v 0.029440 -0.016629 0.033618
v 0.034582 -0.024292 0.034504
v 0.034582 -0.033495 0.033386
v 0.029440 -0.040723 0.030692
v 0.029088 -0.040475 0.004887
v 0.020767 -0.037279 0.002337
v 0.015625 -0.029617 0.001451
v 0.015625 -0.020414 0.002569
v 0.020767 -0.013186 0.005263
v 0.029088 -0.010694 0.008503
v 0.037408 -0.013889 0.011054
v 0.042550 -0.021552 0.011939
v 0.042550 -0.030755 0.010822
v 0.037408 -0.037983 0.008128
v 0.029088 -0.038481 -0.000964
v 0.021370 -0.033842 -0.003166
v 0.016600 -0.026048 -0.001601
v 0.016600 -0.018077 0.003133
v 0.021370 -0.012974 0.009227
v 0.029088 -0.012687 0.014355
v 0.036806 -0.017327 0.016556
v 0.041576 -0.025120 0.014992
v 0.041576 -0.033091 0.010258
v 0.036806 -0.038195 0.004163
v 0.043337 -0.025305 -0.023150
v 0.035619 -0.020666 -0.025352
v 0.030849 -0.012872 -0.023787
v 0.030849 -0.004901 -0.019054
v 0.035619 0.000202 -0.012959
v 0.043337 0.000489 -0.007832
v 0.051056 -0.004151 -0.005630
v 0.055826 -0.011944 -0.007194
v 0.055826 -0.019915 -0.011928
v 0.051056 -0.025019 -0.018023
v 0.014259 -0.040283 0.072665
v 0.005489 -0.037869 0.074455
v 0.000069 -0.030956 0.077419
v 0.000069 -0.022187 0.080425
v 0.005489 -0.014910 0.082325
v 0.014259 -0.011905 0.082393
v 0.023028 -0.014319 0.080603
v 0.028448 -0.021232 0.077638
v 0.028448 -0.030001 0.074632
v 0.023028 -0.037278 0.072732
v 0.005587 -0.013193 -0.006362
v -0.003183 -0.010778 -0.004572
v -0.008603 -0.003866 -0.001607
v -0.008603 0.004904 0.001399
v -0.003183 0.012181 0.003299
v 0.005587 0.015186 0.003367
v 0.014357 0.012771 0.001577
v 0.019777 0.005859 -0.001388
v 0.019777 -0.002911 -0.004394
v 0.014357 -0.010188 -0.006294
v 0.005587 -0.009715 0.009004
v -0.000822 -0.003430 0.011321
v -0.004784 0.004545 0.008743
v -0.004784 0.011164 0.002252
v -0.000822 0.013900 -0.005670
v 0.005587 0.011707 -0.011999
v 0.011996 0.005423 -0.014316
v 0.015958 -0.002552 -0.011738
v 0.015958 -0.009172 -0.005247
v 0.011996 -0.011907 0.002675
v -0.007062 -0.019090 -0.000558
v -0.013472 -0.012805 0.001759
v -0.017433 -0.004830 -0.000820
v -0.017433 0.001789 -0.007310
v -0.013472 0.004525 -0.015232
v -0.007062 0.002332 -0.021561
v -0.000653 -0.003952 -0.023878
v 0.003308 -0.011927 -0.021300
v 0.003308 -0.018546 -0.014810
v -0.000653 -0.021282 -0.006887
v -0.007062 0.003282 -0.001624
v -0.015873 0.001258 -0.003677
v -0.021318 -0.004446 -0.008551
v -0.021318 -0.011653 -0.014382
v -0.015873 -0.017609 -0.018945
v -0.007062 -0.020039 -0.020496
v 0.001749 -0.018015 -0.018442
v 0.007194 -0.012311 -0.013569
v 0.007194 -0.005104 -0.007737
v 0.001749 0.000851 -0.003174
v -0.007775 -0.008932 0.013469
v -0.016586 -0.010955 0.011415
v -0.022031 -0.016660 0.006542
v -0.022031 -0.023866 0.000710
v -0.016586 -0.029822 -0.003852
v -0.007775 -0.032252 -0.005403
v 0.001036 -0.030229 -0.003350
v 0.006481 -0.024524 0.001524
v 0.006481 -0.017318 0.007356
v 0.001036 -0.011362 0.011918
v -0.007775 -0.007052 0.010488
v -0.016358 -0.010506 0.011076
v -0.021662 -0.017812 0.008973
v -0.021662 -0.026180 0.004984
v -0.016358 -0.032414 0.000631
v -0.007775 -0.034132 -0.002423
v 0.000808 -0.030678 -0.003010
v 0.006113 -0.023372 -0.000907
v 0.006113 -0.015004 0.003082
v 0.000808 -0.008770 0.007435
v -0.004579 -0.012906 0.022766
v -0.013162 -0.016360 0.023354
v -0.018466 -0.023666 0.021251
v -0.018466 -0.032034 0.017262
v -0.013162 -0.038268 0.012909
v -0.004579 -0.039986 0.009856
v 0.004004 -0.036532 0.009268
v 0.009309 -0.029226 0.011371
v 0.009309 -0.020857 0.015360
v 0.004004 -0.014624 0.019713
v 0.014259 -0.040079 0.072105
v 0.005538 -0.037878 0.074351
v 0.000148 -0.031175 0.077810
v 0.000148 -0.022532 0.081162
v 0.005538 -0.015249 0.083126
v 0.014259 -0.012109 0.082952
v 0.022979 -0.014311 0.080707
v 0.028369 -0.021013 0.077247
v 0.028369 -0.029657 0.073895
v 0.022979 -0.036939 0.071931
v 0.001834 -0.009889 -0.005744
v -0.006887 -0.007687 -0.003498
v -0.012277 -0.000985 -0.000039
v -0.012277 0.007659 0.003313
v -0.006887 0.014941 0.005277
v 0.001834 0.018082 0.005103
v 0.010555 0.015880 0.002857
v 0.015944 0.009177 -0.000602
v 0.015944 0.000534 -0.003954
v 0.010555 -0.006749 -0.005918
v 0.001834 -0.008617 0.007640
v -0.002391 -0.002083 0.012678
v -0.005003 0.006812 0.012752
v -0.005003 0.014670 0.007832
v -0.002391 0.018488 -0.000202
v 0.001834 0.016810 -0.008281
v 0.006059 0.010275 -0.013319
v 0.008670 0.001380 -0.013393
v 0.008670 -0.006477 -0.008473
v 0.006059 -0.010296 -0.000440
v -0.017351 -0.014176 -0.001239
v -0.021576 -0.007642 0.003800
v -0.024188 0.001253 0.003873
v -0.024188 0.009111 -0.001046
v -0.021576 0.012930 -0.009080
v -0.017351 0.011251 -0.017159
v -0.013126 0.004716 -0.022198
v -0.010515 -0.004178 -0.022271
v -0.010515 -0.012036 -0.017352
v -0.013126 -0.015855 -0.009318
v -0.017351 0.010738 -0.000472
v -0.026154 0.008123 -0.001741
v -0.031595 0.001846 -0.005858
v -0.031595 -0.005694 -0.011251
v -0.026154 -0.011618 -0.015861
v -0.017351 -0.013663 -0.017926
v -0.008548 -0.011048 -0.016658
v -0.003107 -0.004772 -0.012540
v -0.003107 0.002769 -0.007147
v -0.008548 0.008693 -0.002537
v -0.016207 -0.001229 0.016257
v -0.025010 -0.003844 0.014989
v -0.030451 -0.010120 0.010872
v -0.030451 -0.017660 0.005478
v -0.025010 -0.023584 0.000869
v -0.016207 -0.025629 -0.001196
v -0.007404 -0.023014 0.000072
v -0.001963 -0.016738 0.004189
v -0.001963 -0.009198 0.009582
v -0.007404 -0.003274 0.014192
v -0.016207 0.001505 0.008934
v -0.024437 -0.001643 0.011815
v -0.029523 -0.009293 0.013059
v -0.029523 -0.018523 0.012191
v -0.024437 -0.025807 0.009543
v -0.016207 -0.028363 0.006126
v -0.007977 -0.025215 0.003245
v -0.002890 -0.017565 0.002001
v -0.002890 -0.008335 0.002869
v -0.007977 -0.001051 0.005517
v -0.006471 -0.000866 0.034157
v -0.014701 -0.004015 0.037038
v -0.019787 -0.011665 0.038282
v -0.019787 -0.020895 0.037414
v -0.014701 -0.028179 0.034766
v -0.006471 -0.030735 0.031349
v 0.001759 -0.027587 0.028468
v 0.006845 -0.019936 0.027224
v 0.006845 -0.010707 0.028092
v 0.001759 -0.003423 0.030740
v 0.014259 -0.040247 0.072559
v 0.005618 -0.038125 0.075164
v 0.000278 -0.031408 0.078672
v 0.000278 -0.022661 0.081744
v 0.005618 -0.015226 0.083205
v 0.014259 -0.011941 0.082499
v 0.022899 -0.014063 0.079894
v 0.028239 -0.020780 0.076385
v 0.028239 -0.029527 0.073314
v 0.022899 -0.036962 0.071852
v -0.002351 -0.013151 -0.004600
v -0.010992 -0.011029 -0.001995
v -0.016332 -0.004312 0.001513
v -0.016332 0.004434 0.004585
v -0.010992 0.011870 0.006047
v -0.002351 0.015155 0.005340
v 0.006289 0.013033 0.002735
v 0.011629 0.006316 -0.000773
v 0.011629 -0.002431 -0.003845
v 0.006289 -0.009866 -0.005307
v -0.002351 -0.010699 0.009755
v -0.008439 -0.004474 0.012938
v -0.012201 0.003843 0.011320
v -0.012201 0.011075 0.005520
v -0.008439 0.014459 -0.002248
v -0.002351 0.012703 -0.009016
v 0.003736 0.006477 -0.012198
v 0.007498 -0.001840 -0.010581
v 0.007498 -0.009071 -0.004780
v 0.003736 -0.012455 0.002988
v -0.016563 -0.019186 -0.000825
v -0.022650 -0.012960 0.002358
v -0.026412 -0.004643 0.000740
v -0.026412 0.002588 -0.005060
v -0.022650 0.005972 -0.012828
v -0.016563 0.004216 -0.019596
v -0.010475 -0.002009 -0.022779
v -0.006713 -0.010326 -0.021161
v -0.006713 -0.017558 -0.015360
v -0.010475 -0.020942 -0.007593
v -0.016563 0.005273 -0.002321
v -0.024282 0.000597 -0.000206
v -0.029054 -0.007167 -0.001911
v -0.029054 -0.015052 -0.006787
v -0.024282 -0.020046 -0.012970
v -0.016563 -0.020243 -0.018099
v -0.008843 -0.015566 -0.020215
v -0.004072 -0.007803 -0.018509
v -0.004072 0.000082 -0.013634
v -0.008843 0.005077 -0.007451
v -0.007594 -0.003277 0.011505
v -0.015314 -0.007953 0.013621
v -0.020085 -0.015716 0.011915
v -0.020085 -0.023601 0.007040
v -0.015314 -0.028596 0.000857
v -0.007594 -0.028792 -0.004273
v 0.000126 -0.024116 -0.006388
v 0.004897 -0.016353 -0.004683
v 0.004897 -0.008468 0.000193
v 0.000126 -0.003473 0.006376
v -0.007594 -0.003000 0.011040
v -0.016146 -0.006551 0.011485
v -0.021431 -0.013724 0.008925
v -0.021431 -0.021779 0.004337
v -0.016146 -0.027641 -0.000526
v -0.007594 -0.029069 -0.003807
v 0.000958 -0.025518 -0.004253
v 0.006244 -0.018345 -0.001692
v 0.006244 -0.010290 0.002896
v 0.000958 -0.004428 0.007759
v -0.002048 -0.013948 0.030262
v -0.010600 -0.017499 0.030708
v -0.015885 -0.024672 0.028147
v -0.015885 -0.032727 0.023560
v -0.010600 -0.038588 0.018696
v -0.002048 -0.040017 0.015415
v 0.006504 -0.036466 0.014970
v 0.011790 -0.029293 0.017530
v 0.011790 -0.021238 0.022118
v 0.006504 -0.015376 0.026981
v 0.014259 -0.040057 0.072049
v 0.005628 -0.038048 0.074771
v 0.000293 -0.031473 0.078547
v 0.000293 -0.022843 0.081933
v 0.005628 -0.015455 0.083638
v 0.014259 -0.012131 0.083009
v 0.022890 -0.014140 0.080286
v 0.028224 -0.020715 0.076511
v 0.028224 -0.029345 0.073124
v 0.022890 -0.036733 0.071420
v -0.000362 -0.014447 0.006792
v -0.008993 -0.012438 0.009514
v -0.014328 -0.005863 0.013290
v -0.014328 0.002767 0.016676
v -0.008993 0.010155 0.018381
v -0.000362 0.013479 0.017752
v 0.008269 0.011470 0.015029
v 0.013603 0.004895 0.011254
v 0.013603 -0.003735 0.007867
v 0.008269 -0.011123 0.006163
v -0.000362 -0.013685 0.005149
v -0.004967 -0.014734 0.013127
v -0.007813 -0.010340 0.020778
v -0.007813 -0.002181 0.025180
v -0.004967 0.006626 0.024651
v -0.000362 0.012717 0.019394
v 0.004242 0.013766 0.011416
v 0.007088 0.009372 0.003766
v 0.007088 0.001213 -0.000636
v 0.004242 -0.007594 -0.000108
v -0.020395 -0.007860 -0.005647
v -0.024999 -0.008909 0.002330
v -0.027845 -0.004515 0.009981
v -0.027845 0.003644 0.014383
v -0.024999 0.012451 0.013854
v -0.020395 0.018542 0.008597
v -0.015790 0.019591 0.000620
v -0.012945 0.015197 -0.007031
v -0.012945 0.007038 -0.011433
v -0.015790 -0.001769 -0.010904
v -0.020395 -0.009647 0.002079
v -0.024439 -0.006469 0.009792
v -0.026938 0.001220 0.014328
v -0.026938 0.010483 0.013955
v -0.024439 0.017782 0.008815
v -0.020395 0.020329 0.000871
v -0.016351 0.017151 -0.006842
v -0.013852 0.009462 -0.011378
v -0.013852 0.000199 -0.011005
v -0.016351 -0.007100 -0.005865
v -0.041746 -0.010090 -0.008932
v -0.045790 -0.006913 -0.001219
v -0.048289 0.000776 0.003317
v -0.048289 0.010039 0.002944
v -0.045790 0.017338 -0.002196
v -0.041746 0.019885 -0.010139
v -0.037703 0.016708 -0.017853
v -0.035203 0.009019 -0.022389
v -0.035203 -0.000244 -0.022016
v -0.037703 -0.007543 -0.016876
v -0.041746 -0.004440 0.002203
v -0.046534 0.003137 0.004570
v -0.049493 0.011387 0.001549
v -0.049493 0.017158 -0.005706
v -0.046534 0.018246 -0.014424
v -0.041746 0.014235 -0.021275
v -0.036959 0.006658 -0.023642
v -0.034000 -0.001592 -0.020621
v -0.034000 -0.007363 -0.013365
v -0.036959 -0.008451 -0.004647
v -0.061083 -0.014226 -0.005581
v -0.065871 -0.006649 -0.003214
v -0.068830 0.001601 -0.006235
v -0.068830 0.007372 -0.013490
v -0.065871 0.008460 -0.022208
v -0.061083 0.004449 -0.029059
v -0.056296 -0.003129 -0.031426
v -0.053337 -0.011378 -0.028405
v -0.053337 -0.017149 -0.021150
v -0.056296 -0.018237 -0.012431
f 1 2 13
f 2 14 13
f 2 3 14
f 3 15 14
f 3 4 15
f 4 16 15
f 4 5 16
f 5 17 16
f 5 6 17
f 6 18 17
f 6 7 18
f 7 19 18
f 7 8 19
f 8 20 19
f 8 9 20
f 9 21 20
f 9 10 21
f 10 22 21
f 10 11 22
f 11 23 22
f 11 12 23
f 12 24 23
f 13 14 25
f 14 26 25
f 14 15 26
f 15 27 26
f 15 16 27
f 16 28 27
f 16 17 28
f 17 29 28
f 17 18 29
f 18 30 29
f 18 19 30
f 19 31 30
f 19 20 31
f 20 32 31
f 20 21 32
f 21 33 32
f 21 22 33
f 22 34 33
f 22 23 34
f 23 35 34
f 23 24 35
f 24 36 35
f 25 26 37
f 26 38 37
f 26 27 38
f 27 39 38
f 27 28 39
f 28 40 39
f 28 29 40
f 29 41 40
f 29 30 41
f 30 42 41
f 30 31 42
f 31 43 42
f 31 32 43
f 32 44 43
f 32 33 44
f 33 45 44
f 33 34 45
f 34 46 45
f 34 35 46
f 35 47 46
f 35 36 47
f 36 48 47
f 37 38 49
f 38 50 49
f 38 39 50
f 39 51 50
f 39 40 51
f 40 52 51
f 40 41 52
f 41 53 52
f 41 42 53
f 42 54 53
f 42 43 54
f 43 55 54
f 43 44 55
f 44 56 55
f 44 45 56
f 45 57 56
f 45 46 57
f 46 58 57
f 46 47 58
f 47 59 58
f 47 48 59
f 48 60 59
f 49 50 61
f 50 62 61
f 50 51 62
f 51 63 62
f 51 52 63
f 52 64 63
f 52 53 64
f 53 65 64
f 53 54 65
f 54 66 65
f 54 55 66
f 55 67 66
f 55 56 67
f 56 68 67
f 56 57 68
f 57 69 68
f 57 58 69
f 58 70 69
f 58 59 70
f 59 71 70
f 59 60 71
f 60 72 71
f 61 62 73
f 62 74 73
f 62 63 74
f 63 75 74
f 63 64 75
f 64 76 75
f 64 65 76
f 65 77 76
f 65 66 77
f 66 78 77
f 66 67 78
f 67 79 78
f 67 68 79
f 68 80 79
f 68 69 80
f 69 81 80
f 69 70 81
f 70 82 81
f 70 71 82
f 71 83 82
f 71 72 83
f 72 84 83
f 73 74 85
f 74 86 85
f 74 75 86
f 75 87 86
f 75 76 87
f 76 88 87
f 76 77 88
f 77 89 88
f 77 78 89
f 78 90 89
f 78 79 90
f 79 91 90
f 79 80 91
f 80 92 91
f 80 81 92
f 81 93 92
f 81 82 93
f 82 94 93
f 82 83 94
f 83 95 94
f 83 84 95
f 84 96 95
f 85 86 97
f 86 98 97
f 86 87 98
f 87 99 98
f 87 88 99
f 88 100 99
f 88 89 100
f 89 101 100
f 89 90 101
f 90 102 101
f 90 91 102
f 91 103 102
f 91 92 103
f 92 104 103
f 92 93 104
f 93 105 104
f 93 94 105
f 94 106 105
f 94 95 106
f 95 107 106
f 95 96 107
f 96 108 107
f 97 98 109
f 98 110 109
f 98 99 110
f 99 111 110
f 99 100 111
f 100 112 111
f 100 101 112
f 101 113 112
f 101 102 113
f 102 114 113
f 102 103 114
f 103 115 114
f 103 104 115
f 104 116 115
f 104 105 116
f 105 117 116
f 105 106 117
f 106 118 117
f 106 107 118
f 107 119 118
f 107 108 119
f 108 120 119
f 109 110 121
f 110 122 121
f 110 111 122
f 111 123 122
f 111 112 123
f 112 124 123
f 112 113 124
f 113 125 124
f 113 114 125
f 114 126 125
f 114 115 126
f 115 127 126
f 115 116 127
f 116 128 127
f 116 117 128
f 117 129 128
f 117 118 129
f 118 130 129
f 118 119 130
f 119 131 130
f 119 120 131
f 120 132 131
f 121 122 133
f 122 134 133
f 122 123 134
f 123 135 134
f 123 124 135
f 124 136 135
f 124 125 136
f 125 137 136
f 125 126 137
f 126 138 137
f 126 127 138
f 127 139 138
f 127 128 139
f 128 140 139
f 128 129 140
f 129 141 140
f 129 130 141
f 130 142 141
f 130 131 142
f 131 143 142
f 131 132 143
f 132 144 143
f 145 146 155
f 146 156 155
f 146 147 156
f 147 157 156
f 147 148 157
f 148 158 157
f 148 149 158
f 149 159 158
f 149 150 159
f 150 160 159
f 150 151 160
f 151 161 160
f 151 152 161
f 152 162 161
f 152 153 162
f 153 163 162
f 153 154 163
f 154 164 163
f 154 145 164
f 145 155 164
f 165 166 175
f 166 176 175
f 166 167 176
f 167 177 176
f 167 168 177
f 168 178 177
f 168 169 178
f 169 179 178
f 169 170 179
f 170 180 179
f 170 171 180
f 171 181 180
f 171 172 181
f 172 182 181
f 172 173 182
f 173 183 182
f 173 174 183
f 174 184 183
f 174 165 184
f 165 175 184
f 185 186 195
f 186 196 195
f 186 187 196
f 187 197 196
f 187 188 197
f 188 198 197
f 188 189 198
f 189 199 198
f 189 190 199
f 190 200 199
f 190 191 200
f 191 201 200
f 191 192 201
f 192 202 201
f 192 193 202
f 193 203 202
f 193 194 203
f 194 204 203
f 194 185 204
f 185 195 204
f 205 206 215
f 206 216 215
f 206 207 216
f 207 217 216
f 207 208 217
f 208 218 217
f 208 209 218
f 209 219 218
f 209 210 219
f 210 220 219
f 210 211 220
f 211 221 220
f 211 212 221
f 212 222 221
f 212 213 222
f 213 223 222
f 213 214 223
f 214 224 223
f 214 205 224
f 205 215 224
f 225 226 235
f 226 236 235
f 226 227 236
f 227 237 236
f 227 228 237
f 228 238 237
f 228 229 238
f 229 239 238
f 229 230 239
f 230 240 239
f 230 231 240
f 231 241 240
f 231 232 241
f 232 242 241
f 232 233 242
f 233 243 242
f 233 234 243
f 234 244 243
f 234 225 244
f 225 235 244
f 245 246 255
f 246 256 255
f 246 247 256
f 247 257 256
f 247 248 257
f 248 258 257
f 248 249 258
f 249 259 258
f 249 250 259
f 250 260 259
f 250 251 260
f 251 261 260
f 251 252 261
f 252 262 261
f 252 253 262
f 253 263 262
f 253 254 263
f 254 264 263
f 254 245 264
f 245 255 264
f 265 266 275
f 266 276 275
f 266 267 276
f 267 277 276
f 267 268 277
f 268 278 277
f 268 269 278
f 269 279 278
f 269 270 279
f 270 280 279
f 270 271 280
f 271 281 280
f 271 272 281
f 272 282 281
f 272 273 282
f 273 283 282
f 273 274 283
f 274 284 283
f 274 265 284
f 265 275 284
f 285 286 295
f 286 296 295
f 286 287 296
f 287 297 296
f 287 288 297
f 288 298 297
f 288 289 298
f 289 299 298
f 289 290 299
f 290 300 299
f 290 291 300
f 291 301 300
f 291 292 301
f 292 302 301
f 292 293 302
f 293 303 302
f 293 294 303
f 294 304 303
f 294 285 304
f 285 295 304
f 305 306 315
f 306 316 315
f 306 307 316
f 307 317 316
f 307 308 317
f 308 318 317
f 308 309 318
f 309 319 318
f 309 310 319
f 310 320 319
f 310 311 320
f 311 321 320
f 311 312 321
f 312 322 321
f 312 313 322
f 313 323 322
f 313 314 323
f 314 324 323
f 314 305 324
f 305 315 324
f 325 326 335
f 326 336 335
f 326 327 336
f 327 337 336
f 327 328 337
f 328 338 337
f 328 329 338
f 329 339 338
f 329 330 339
f 330 340 339
f 330 331 340
f 331 341 340
f 331 332 341
f 332 342 341
f 332 333 342
f 333 343 342
f 333 334 343
f 334 344 343
f 334 325 344
f 325 335 344
f 345 346 355
f 346 356 355
f 346 347 356
f 347 357 356
f 347 348 357
f 348 358 357
f 348 349 358
f 349 359 358
f 349 350 359
f 350 360 359
f 350 351 360
f 351 361 360
f 351 352 361
f 352 362 361
f 352 353 362
f 353 363 362
f 353 354 363
f 354 364 363
f 354 345 364
f 345 355 364
f 365 366 375
f 366 376 375
f 366 367 376
f 367 377 376
f 367 368 377
f 368 378 377
f 368 369 378
f 369 379 378
f 369 370 379
f 370 380 379
f 370 371 380
f 371 381 380
f 371 372 381
f 372 382 381
f 372 373 382
f 373 383 382
f 373 374 383
f 374 384 383
f 374 365 384
f 365 375 384
f 385 386 395
f 386 396 395
f 386 387 396
f 387 397 396
f 387 388 397
f 388 398 397
f 388 389 398
f 389 399 398
f 389 390 399
f 390 400 399
f 390 391 400
f 391 401 400
f 391 392 401
f 392 402 401
f 392 393 402
f 393 403 402
f 393 394 403
f 394 404 403
f 394 385 404
f 385 395 404
f 405 406 415
f 406 416 415
f 406 407 416
f 407 417 416
f 407 408 417
f 408 418 417
f 408 409 418
f 409 419 418
f 409 410 419
f 410 420 419
f 410 411 420
f 411 421 420
f 411 412 421
f 412 422 421
f 412 413 422
f 413 423 422
f 413 414 423
f 414 424 423
f 414 405 424
f 405 415 424
f 425 426 435
f 426 436 435
f 426 427 436
f 427 437 436
f 427 428 437
f 428 438 437
f 428 429 438
f 429 439 438
f 429 430 439
f 430 440 439
f 430 431 440
f 431 441 440
f 431 432 441
f 432 442 441
f 432 433 442
f 433 443 442
f 433 434 443
f 434 444 443
f 434 425 444
f 425 435 444
f 445 446 455
f 446 456 455
f 446 447 456
f 447 457 456
f 447 448 457
f 448 458 457
f 448 449 458
f 449 459 458
f 449 450 459
f 450 460 459
f 450 451 460
f 451 461 460
f 451 452 461
f 452 462 461
f 452 453 462
f 453 463 462
f 453 454 463
f 454 464 463
f 454 445 464
f 445 455 464
f 465 466 475
f 466 476 475
f 466 467 476
f 467 477 476
f 467 468 477
f 468 478 477
f 468 469 478
f 469 479 478
f 469 470 479
f 470 480 479
f 470 471 480
f 471 481 480
f 471 472 481
f 472 482 481
f 472 473 482
f 473 483 482
f 473 474 483
f 474 484 483
f 474 465 484
f 465 475 484
f 485 486 495
f 486 496 495
f 486 487 496
f 487 497 496
f 487 488 497
f 488 498 497
f 488 489 498
f 489 499 498
f 489 490 499
f 490 500 499
f 490 491 500
f 491 501 500
f 491 492 501
f 492 502 501
f 492 493 502
f 493 503 502
f 493 494 503
f 494 504 503
f 494 485 504
f 485 495 504
f 505 506 515
f 506 516 515
f 506 507 516
f 507 517 516
f 507 508 517
f 508 518 517
f 508 509 518
f 509 519 518
f 509 510 519
f 510 520 519
f 510 511 520
f 511 521 520
f 511 512 521
f 512 522 521
f 512 513 522
f 513 523 522
f 513 514 523
f 514 524 523
f 514 505 524
f 505 515 524
f 525 526 535
f 526 536 535
f 526 527 536
f 527 537 536
f 527 528 537
f 528 538 537
f 528 529 538
f 529 539 538
f 529 530 539
f 530 540 539
f 530 531 540
f 531 541 540
f 531 532 541
f 532 542 541
f 532 533 542
f 533 543 542
f 533 534 543
f 534 544 543
f 534 525 544
f 525 535 544
f 545 546 555
f 546 556 555
f 546 547 556
f 547 557 556
f 547 548 557
f 548 558 557
f 548 549 558
f 549 559 558
f 549 550 559
f 550 560 559
f 550 551 560
f 551 561 560
f 551 552 561
f 552 562 561
f 552 553 562
f 553 563 562
f 553 554 563
f 554 564 563
f 554 545 564
f 545 555 564
f 565 566 575
f 566 576 575
f 566 567 576
f 567 577 576
f 567 568 577
f 568 578 577
f 568 569 578
f 569 579 578
f 569 570 579
f 570 580 579
f 570 571 580
f 571 581 580
f 571 572 581
f 572 582 581
f 572 573 582
f 573 583 582
f 573 574 583
f 574 584 583
f 574 565 584
f 565 575 584
f 585 586 595
f 586 596 595
f 586 587 596
f 587 597 596
f 587 588 597
f 588 598 597
f 588 589 598
f 589 599 598
f 589 590 599
f 590 600 599
f 590 591 600
f 591 601 600
f 591 592 601
f 592 602 601
f 592 593 602
f 593 603 602
f 593 594 603
f 594 604 603
f 594 585 604
f 585 595 604
f 605 606 615
f 606 616 615
f 606 607 616
f 607 617 616
f 607 608 617
f 608 618 617
f 608 609 618
f 609 619 618
f 609 610 619
f 610 620 619
f 610 611 620
f 611 621 620
f 611 612 621
f 612 622 621
f 612 613 622
f 613 623 622
f 613 614 623
f 614 624 623
f 614 605 624
f 605 615 624
f 625 626 635
f 626 636 635
f 626 627 636
f 627 637 636
f 627 628 637
f 628 638 637
f 628 629 638
f 629 639 638
f 629 630 639
f 630 640 639
f 630 631 640
f 631 641 640
f 631 632 641
f 632 642 641
f 632 633 642
f 633 643 642
f 633 634 643
f 634 644 643
f 634 625 644
f 625 635 644
f 645 646 655
f 646 656 655
f 646 647 656
f 647 657 656
f 647 648 657
f 648 658 657
f 648 649 658
f 649 659 658
f 649 650 659
f 650 660 659
f 650 651 660
f 651 661 660
f 651 652 661
f 652 662 661
f 652 653 662
f 653 663 662
f 653 654 663
f 654 664 663
f 654 645 664
f 645 655 664
f 665 666 675
f 666 676 675
f 666 667 676
f 667 677 676
f 667 668 677
f 668 678 677
f 668 669 678
f 669 679 678
f 669 670 679
f 670 680 679
f 670 671 680
f 671 681 680
f 671 672 681
f 672 682 681
f 672 673 682
f 673 683 682
f 673 674 683
f 674 684 683
f 674 665 684
f 665 675 684
f 685 686 695
f 686 696 695
f 686 687 696
f 687 697 696
f 687 688 697
f 688 698 697
f 688 689 698
f 689 699 698
f 689 690 699
f 690 700 699
f 690 691 700
f 691 701 700
f 691 692 701
f 692 702 701
f 692 693 702
f 693 703 702
f 693 694 703
f 694 704 703
f 694 685 704
f 685 695 704
f 705 706 715
f 706 716 715
f 706 707 716
f 707 717 716
f 707 708 717
f 708 718 717
f 708 709 718
f 709 719 718
f 709 710 719
f 710 720 719
f 710 711 720
f 711 721 720
f 711 712 721
f 712 722 721
f 712 713 722
f 713 723 722
f 713 714 723
f 714 724 723
f 714 705 724
f 705 715 724
f 725 726 735
f 726 736 735
f 726 727 736
f 727 737 736
f 727 728 737
f 728 738 737
f 728 729 738
f 729 739 738
f 729 730 739
f 730 740 739
f 730 731 740
f 731 741 740
f 731 732 741
f 732 742 741
f 732 733 742
f 733 743 742
f 733 734 743
f 734 744 743
f 734 725 744
f 725 735 744
f 745 746 755
f 746 756 755
f 746 747 756
f 747 757 756
f 747 748 757
f 748 758 757
f 748 749 758
f 749 759 758
f 749 750 759
f 750 760 759
f 750 751 760
f 751 761 760
f 751 752 761
f 752 762 761
f 752 753 762
f 753 763 762
f 753 754 763
f 754 764 763
f 754 745 764
f 745 755 764
f 765 766 775
f 766 776 775
f 766 767 776
f 767 777 776
f 767 768 777
f 768 778 777
f 768 769 778
f 769 779 778
f 769 770 779
f 770 780 779
f 770 771 780
f 771 781 780
f 771 772 781
f 772 782 781
f 772 773 782
f 773 783 782
f 773 774 783
f 774 784 783
f 774 765 784
f 765 775 784
f 785 786 795
f 786 796 795
f 786 787 796
f 787 797 796
f 787 788 797
f 788 798 797
f 788 789 798
f 789 799 798
f 789 790 799
f 790 800 799
f 790 791 800
f 791 801 800
f 791 792 801
f 792 802 801
f 792 793 802
f 793 803 802
f 793 794 803
f 794 804 803
f 794 785 804
f 785 795 804
f 805 806 815
f 806 816 815
f 806 807 816
f 807 817 816
f 807 808 817
f 808 818 817
f 808 809 818
f 809 819 818
f 809 810 819
f 810 820 819
f 810 811 820
f 811 821 820
f 811 812 821
f 812 822 821
f 812 813 822
f 813 823 822
f 813 814 823
f 814 824 823
f 814 805 824
f 805 815 824
f 825 826 835
f 826 836 835
f 826 827 836
f 827 837 836
f 827 828 837
f 828 838 837
f 828 829 838
f 829 839 838
f 829 830 839
f 830 840 839
f 830 831 840
f 831 841 840
f 831 832 841
f 832 842 841
f 832 833 842
f 833 843 842
f 833 834 843
f 834 844 843
f 834 825 844
f 825 835 844
f 845 846 855
f 846 856 855
f 846 847 856
f 847 857 856
f 847 848 857
f 848 858 857
f 848 849 858
f 849 859 858
f 849 850 859
f 850 860 859
f 850 851 860
f 851 861 860
f 851 852 861
f 852 862 861
f 852 853 862
f 853 863 862
f 853 854 863
f 854 864 863
f 854 845 864
f 845 855 864
f 865 866 875
f 866 876 875
f 866 867 876
f 867 877 876
f 867 868 877
f 868 878 877
f 868 869 878
f 869 879 878
f 869 870 879
f 870 880 879
f 870 871 880
f 871 881 880
f 871 872 881
f 872 882 881
f 872 873 882
f 873 883 882
f 873 874 883
f 874 884 883
f 874 865 884
f 865 875 884
f 885 886 895
f 886 896 895
f 886 887 896
f 887 897 896
f 887 888 897
f 888 898 897
f 888 889 898
f 889 899 898
f 889 890 899
f 890 900 899
f 890 891 900
f 891 901 900
f 891 892 901
f 892 902 901
f 892 893 902
f 893 903 902
f 893 894 903
f 894 904 903
f 894 885 904
f 885 895 904
f 905 906 915
f 906 916 915
f 906 907 916
f 907 917 916
f 907 908 917
f 908 918 917
f 908 909 918
f 909 919 918
f 909 910 919
f 910 920 919
f 910 911 920
f 911 921 920
f 911 912 921
f 912 922 921
f 912 913 922
f 913 923 922
f 913 914 923
f 914 924 923
f 914 905 924
f 905 915 924
f 925 926 935
f 926 936 935
f 926 927 936
f 927 937 936
f 927 928 937
f 928 938 937
f 928 929 938
f 929 939 938
f 929 930 939
f 930 940 939
f 930 931 940
f 931 941 940
f 931 932 941
f 932 942 941
f 932 933 942
f 933 943 942
f 933 934 943
f 934 944 943
f 934 925 944
f 925 935 944
f 945 946 955
f 946 956 955
f 946 947 956
f 947 957 956
f 947 948 957
f 948 958 957
f 948 949 958
f 949 959 958
f 949 950 959
f 950 960 959
f 950 951 960
f 951 961 960
f 951 952 961
f 952 962 961
f 952 953 962
f 953 963 962
f 953 954 963
f 954 964 963
f 954 945 964
f 945 955 964
f 965 966 975
f 966 976 975
f 966 967 976
f 967 977 976
f 967 968 977
f 968 978 977
f 968 969 978
f 969 979 978
f 969 970 979
f 970 980 979
f 970 971 980
f 971 981 980
f 971 972 981
f 972 982 981
f 972 973 982
f 973 983 982
f 973 974 983
f 974 984 983
f 974 965 984
f 965 975 984
f 985 986 995
f 986 996 995
f 986 987 996
f 987 997 996
f 987 988 997
f 988 998 997
f 988 989 998
f 989 999 998
f 989 990 999
f 990 1000 999
f 990 991 1000
f 991 1001 1000
f 991 992 1001
f 992 1002 1001
f 992 993 1002
f 993 1003 1002
f 993 994 1003
f 994 1004 1003
f 994 985 1004
f 985 995 1004
f 1005 1006 1015
f 1006 1016 1015
f 1006 1007 1016
f 1007 1017 1016
f 1007 1008 1017
f 1008 1018 1017
f 1008 1009 1018
f 1009 1019 1018
f 1009 1010 1019
f 1010 1020 1019
f 1010 1011 1020
f 1011 1021 1020
f 1011 1012 1021
f 1012 1022 1021
f 1012 1013 1022
f 1013 1023 1022
f 1013 1014 1023
f 1014 1024 1023
f 1014 1005 1024
f 1005 1015 1024
f 1025 1026 1035
f 1026 1036 1035
f 1026 1027 1036
f 1027 1037 1036
f 1027 1028 1037
f 1028 1038 1037
f 1028 1029 1038
f 1029 1039 1038
f 1029 1030 1039
f 1030 1040 1039
f 1030 1031 1040
f 1031 1041 1040
f 1031 1032 1041
f 1032 1042 1041
f 1032 1033 1042
f 1033 1043 1042
f 1033 1034 1043
f 1034 1044 1043
f 1034 1025 1044
f 1025 1035 1044
f 1045 1046 1055
f 1046 1056 1055
f 1046 1047 1056
f 1047 1057 1056
f 1047 1048 1057
f 1048 1058 1057
f 1048 1049 1058
f 1049 1059 1058
f 1049 1050 1059
f 1050 1060 1059
f 1050 1051 1060
f 1051 1061 1060
f 1051 1052 1061
f 1052 1062 1061
f 1052 1053 1062
f 1053 1063 1062
f 1053 1054 1063
f 1054 1064 1063
f 1054 1045 1064
f 1045 1055 1064
f 1065 1066 1075
f 1066 1076 1075
f 1066 1067 1076
f 1067 1077 1076
f 1067 1068 1077
f 1068 1078 1077
f 1068 1069 1078
f 1069 1079 1078
f 1069 1070 1079
f 1070 1080 1079
f 1070 1071 1080
f 1071 1081 1080
f 1071 1072 1081
f 1072 1082 1081
f 1072 1073 1082
f 1073 1083 1082
f 1073 1074 1083
f 1074 1084 1083
f 1074 1065 1084
f 1065 1075 1084
f 1085 1086 1095
f 1086 1096 1095
f 1086 1087 1096
f 1087 1097 1096
f 1087 1088 1097
f 1088 1098 1097
f 1088 1089 1098
f 1089 1099 1098
f 1089 1090 1099
f 1090 1100 1099
f 1090 1091 1100
f 1091 1101 1100
f 1091 1092 1101
f 1092 1102 1101
f 1092 1093 1102
f 1093 1103 1102
f 1093 1094 1103
f 1094 1104 1103
f 1094 1085 1104
f 1085 1095 1104
f 1105 1106 1115
f 1106 1116 1115
f 1106 1107 1116
f 1107 1117 1116
f 1107 1108 1117
f 1108 1118 1117
f 1108 1109 1118
f 1109 1119 1118
f 1109 1110 1119
f 1110 1120 1119
f 1110 1111 1120
f 1111 1121 1120
f 1111 1112 1121
f 1112 1122 1121
f 1112 1113 1122
f 1113 1123 1122
f 1113 1114 1123
f 1114 1124 1123
f 1114 1105 1124
f 1105 1115 1124
f 1125 1126 1135
f 1126 1136 1135
f 1126 1127 1136
f 1127 1137 1136
f 1127 1128 1137
f 1128 1138 1137
f 1128 1129 1138
f 1129 1139 1138
f 1129 1130 1139
f 1130 1140 1139
f 1130 1131 1140
f 1131 1141 1140
f 1131 1132 1141
f 1132 1142 1141
f 1132 1133 1142
f 1133 1143 1142
f 1133 1134 1143
f 1134 1144 1143
f 1134 1125 1144
f 1125 1135 1144
f 1145 1146 1155
f 1146 1156 1155
f 1146 1147 1156
f 1147 1157 1156
f 1147 1148 1157
f 1148 1158 1157
f 1148 1149 1158
f 1149 1159 1158
f 1149 1150 1159
f 1150 1160 1159
f 1150 1151 1160
f 1151 1161 1160
f 1151 1152 1161
f 1152 1162 1161
f 1152 1153 1162
f 1153 1163 1162
f 1153 1154 1163
f 1154 1164 1163
f 1154 1145 1164
f 1145 1155 1164
f 1165 1166 1175
f 1166 1176 1175
f 1166 1167 1176
f 1167 1177 1176
f 1167 1168 1177
f 1168 1178 1177
f 1168 1169 1178
f 1169 1179 1178
f 1169 1170 1179
f 1170 1180 1179
f 1170 1171 1180
f 1171 1181 1180
f 1171 1172 1181
f 1172 1182 1181
f 1172 1173 1182
f 1173 1183 1182
f 1173 1174 1183
f 1174 1184 1183
f 1174 1165 1184
f 1165 1175 1184
