# Full-Body 3D Mesh - Frame 208
v -0.003288 -0.659811 -0.094799
v 0.030520 -0.659811 -0.099660
v 0.061589 -0.659811 -0.113849
v 0.087402 -0.659811 -0.136216
v 0.105868 -0.659811 -0.164949
v 0.115490 -0.659811 -0.197721
v 0.115490 -0.659811 -0.231877
v 0.105868 -0.659811 -0.264649
v 0.087402 -0.659811 -0.293383
v 0.061589 -0.659811 -0.315750
v 0.030520 -0.659811 -0.329938
v -0.003288 -0.659811 -0.334799
v -0.003288 -0.659811 -0.094799
v 0.025153 -0.641534 -0.099660
v 0.051290 -0.624736 -0.113849
v 0.073005 -0.610781 -0.136216
v 0.088540 -0.600797 -0.164949
v 0.096635 -0.595595 -0.197721
v 0.096635 -0.595595 -0.231877
v 0.088540 -0.600797 -0.264649
v 0.073005 -0.610781 -0.293383
v 0.051290 -0.624736 -0.315750
v 0.025153 -0.641534 -0.329938
v -0.003288 -0.659811 -0.334799
v -0.003288 -0.659811 -0.094799
v 0.010756 -0.629059 -0.099660
v 0.023663 -0.600797 -0.113849
v 0.034386 -0.577317 -0.136216
v 0.042057 -0.560520 -0.164949
v 0.046054 -0.551767 -0.197721
v 0.046054 -0.551767 -0.231877
v 0.042057 -0.560520 -0.264649
v 0.034386 -0.577317 -0.293383
v 0.023663 -0.600797 -0.315750
v 0.010756 -0.629059 -0.329938
v -0.003288 -0.659811 -0.334799
v -0.003288 -0.659811 -0.094799
v -0.008100 -0.626348 -0.099660
v -0.012521 -0.595595 -0.113849
v -0.016195 -0.570045 -0.136216
v -0.018823 -0.551767 -0.164949
v -0.020192 -0.542242 -0.197721
v -0.020192 -0.542242 -0.231877
v -0.018823 -0.551767 -0.264649
v -0.016195 -0.570045 -0.293383
v -0.012521 -0.595595 -0.315750
v -0.008100 -0.626348 -0.329938
v -0.003288 -0.659811 -0.334799
v -0.003288 -0.659811 -0.094799
v -0.025428 -0.634261 -0.099660
v -0.045774 -0.610781 -0.113849
v -0.062678 -0.591273 -0.136216
v -0.074770 -0.577317 -0.164949
v -0.081072 -0.570045 -0.197721
v -0.081072 -0.570045 -0.231877
v -0.074770 -0.577317 -0.264649
v -0.062678 -0.591273 -0.293383
v -0.045774 -0.610781 -0.315750
v -0.025428 -0.634261 -0.329938
v -0.003288 -0.659811 -0.334799
v -0.003288 -0.659811 -0.094799
v -0.035727 -0.650287 -0.099660
v -0.065537 -0.641534 -0.113849
v -0.090305 -0.634261 -0.136216
v -0.108022 -0.629059 -0.164949
v -0.117255 -0.626348 -0.197721
v -0.117255 -0.626348 -0.231877
v -0.108022 -0.629059 -0.264649
v -0.090305 -0.634261 -0.293383
v -0.065537 -0.641534 -0.315750
v -0.035727 -0.650287 -0.329938
v -0.003288 -0.659811 -0.334799
v -0.003288 -0.659811 -0.094799
v -0.035727 -0.669336 -0.099660
v -0.065537 -0.678089 -0.113849
v -0.090305 -0.685362 -0.136216
v -0.108022 -0.690564 -0.164949
v -0.117255 -0.693275 -0.197721
v -0.117255 -0.693275 -0.231877
v -0.108022 -0.690564 -0.264649
v -0.090305 -0.685362 -0.293383
v -0.065537 -0.678089 -0.315750
v -0.035727 -0.669336 -0.329938
v -0.003288 -0.659811 -0.334799
v -0.003288 -0.659811 -0.094799
v -0.025428 -0.685362 -0.099660
v -0.045774 -0.708842 -0.113849
v -0.062678 -0.728350 -0.136216
v -0.074770 -0.742306 -0.164949
v -0.081072 -0.749578 -0.197721
v -0.081072 -0.749578 -0.231877
v -0.074770 -0.742306 -0.264649
v -0.062678 -0.728350 -0.293383
v -0.045774 -0.708842 -0.315750
v -0.025428 -0.685362 -0.329938
v -0.003288 -0.659811 -0.334799
v -0.003288 -0.659811 -0.094799
v -0.008100 -0.693275 -0.099660
v -0.012521 -0.724028 -0.113849
v -0.016195 -0.749578 -0.136216
v -0.018823 -0.767856 -0.164949
v -0.020192 -0.777381 -0.197721
v -0.020192 -0.777381 -0.231877
v -0.018823 -0.767856 -0.264649
v -0.016195 -0.749578 -0.293383
v -0.012521 -0.724028 -0.315750
v -0.008100 -0.693275 -0.329938
v -0.003288 -0.659811 -0.334799
v -0.003288 -0.659811 -0.094799
v 0.010756 -0.690564 -0.099660
v 0.023663 -0.718826 -0.113849
v 0.034386 -0.742306 -0.136216
v 0.042057 -0.759103 -0.164949
v 0.046054 -0.767856 -0.197721
v 0.046054 -0.767856 -0.231877
v 0.042057 -0.759103 -0.264649
v 0.034386 -0.742306 -0.293383
v 0.023663 -0.718826 -0.315750
v 0.010756 -0.690564 -0.329938
v -0.003288 -0.659811 -0.334799
v -0.003288 -0.659811 -0.094799
v 0.025153 -0.678089 -0.099660
v 0.051290 -0.694887 -0.113849
v 0.073005 -0.708842 -0.136216
v 0.088540 -0.718826 -0.164949
v 0.096635 -0.724028 -0.197721
v 0.096635 -0.724028 -0.231877
v 0.088540 -0.718826 -0.264649
v 0.073005 -0.708842 -0.293383
v 0.051290 -0.694887 -0.315750
v 0.025153 -0.678089 -0.329938
v -0.003288 -0.659811 -0.334799
v -0.003288 -0.659811 -0.094799
v 0.030520 -0.659811 -0.099660
v 0.061589 -0.659811 -0.113849
v 0.087402 -0.659811 -0.136216
v 0.105868 -0.659811 -0.164949
v 0.115490 -0.659811 -0.197721
v 0.115490 -0.659811 -0.231877
v 0.105868 -0.659811 -0.264649
v 0.087402 -0.659811 -0.293383
v 0.061589 -0.659811 -0.315750
v 0.030520 -0.659811 -0.329938
v -0.003288 -0.659811 -0.334799
v 0.168336 -0.448548 -0.060385
v 0.168248 -0.472059 -0.052746
v 0.168204 -0.486590 -0.032746
v 0.168219 -0.486590 -0.008024
v 0.168288 -0.472059 0.011975
v 0.168385 -0.448548 0.019615
v 0.168472 -0.425037 0.011975
v 0.168517 -0.410506 -0.008025
v 0.168502 -0.410506 -0.032746
v 0.168433 -0.425037 -0.052746
v -0.170625 -0.447217 -0.060178
v -0.170712 -0.470729 -0.052538
v -0.170757 -0.485259 -0.032538
v -0.170742 -0.485259 -0.007817
v -0.170673 -0.470729 0.012183
v -0.170576 -0.447217 0.019822
v -0.170488 -0.423706 0.012183
v -0.170444 -0.409176 -0.007817
v -0.170459 -0.409176 -0.032539
v -0.170528 -0.423706 -0.052539
v 0.168360 -0.453454 -0.060083
v 0.145261 -0.448166 -0.053039
v 0.130985 -0.443024 -0.033523
v 0.130985 -0.439991 -0.008988
v 0.145261 -0.440227 0.011193
v 0.168360 -0.443641 0.019313
v 0.191459 -0.448930 0.012269
v 0.205735 -0.454072 -0.007248
v 0.205735 -0.457104 -0.031782
v 0.191459 -0.456868 -0.051964
v 0.208904 -0.241458 -0.086284
v 0.185805 -0.236170 -0.079240
v 0.171529 -0.231028 -0.059724
v 0.171529 -0.227995 -0.035189
v 0.185805 -0.228231 -0.015008
v 0.208904 -0.231645 -0.006888
v 0.232003 -0.236934 -0.013932
v 0.246279 -0.242076 -0.033449
v 0.246279 -0.245108 -0.057984
v 0.232003 -0.244872 -0.078165
v 0.208904 -0.269884 -0.068699
v 0.185527 -0.264903 -0.062388
v 0.171079 -0.249094 -0.050041
v 0.171079 -0.228493 -0.036374
v 0.185527 -0.210971 -0.026608
v 0.208904 -0.203220 -0.024474
v 0.232282 -0.208200 -0.030785
v 0.246730 -0.224010 -0.043132
v 0.246730 -0.244610 -0.056798
v 0.232282 -0.262133 -0.066564
v 0.189071 -0.167603 -0.222874
v 0.165693 -0.162623 -0.216563
v 0.151245 -0.146813 -0.204216
v 0.151245 -0.126212 -0.190549
v 0.165693 -0.108690 -0.180784
v 0.189071 -0.100939 -0.178649
v 0.212448 -0.105919 -0.184960
v 0.226896 -0.121729 -0.197307
v 0.226896 -0.142330 -0.210974
v 0.212448 -0.159852 -0.220739
v -0.170600 -0.465466 -0.055772
v -0.192264 -0.470111 -0.044806
v -0.205653 -0.466012 -0.024433
v -0.205653 -0.454733 -0.002434
v -0.192264 -0.440584 0.012787
v -0.170600 -0.428969 0.015417
v -0.148937 -0.424324 0.004451
v -0.135548 -0.428423 -0.015923
v -0.135548 -0.439702 -0.037922
v -0.148937 -0.453851 -0.053143
v -0.261795 -0.273046 -0.154424
v -0.283459 -0.277691 -0.143458
v -0.296847 -0.273591 -0.123084
v -0.296847 -0.262313 -0.101086
v -0.283459 -0.248164 -0.085865
v -0.261795 -0.236548 -0.083235
v -0.240131 -0.231903 -0.094201
v -0.226742 -0.236003 -0.114574
v -0.226742 -0.247282 -0.136573
v -0.240131 -0.261431 -0.151794
v -0.261795 -0.294784 -0.117803
v -0.284941 -0.287253 -0.122125
v -0.299247 -0.267325 -0.125187
v -0.299247 -0.242612 -0.125821
v -0.284941 -0.222553 -0.123785
v -0.261795 -0.214810 -0.119855
v -0.238649 -0.222341 -0.115534
v -0.224343 -0.242269 -0.112472
v -0.224343 -0.266983 -0.111837
v -0.238649 -0.287041 -0.113874
v -0.220944 -0.300662 -0.346859
v -0.244091 -0.293131 -0.351180
v -0.258396 -0.273203 -0.354243
v -0.258396 -0.248490 -0.354877
v -0.244091 -0.228431 -0.352840
v -0.220944 -0.220688 -0.348911
v -0.197798 -0.228219 -0.344590
v -0.183493 -0.248147 -0.341527
v -0.183493 -0.272860 -0.340893
v -0.197798 -0.292919 -0.342929
v 0.168360 -0.445715 -0.060285
v 0.144965 -0.448587 -0.052830
v 0.130507 -0.451444 -0.032983
v 0.130507 -0.453195 -0.008323
v 0.144965 -0.453171 0.011729
v 0.168360 -0.451380 0.019514
v 0.191755 -0.448508 0.012060
v 0.206214 -0.445651 -0.007788
v 0.206214 -0.443900 -0.032447
v 0.191755 -0.443925 -0.052499
v 0.123167 0.005563 -0.028246
v 0.099772 0.002691 -0.020791
v 0.085313 -0.000166 -0.000944
v 0.085313 -0.001917 0.023716
v 0.099772 -0.001892 0.043768
v 0.123167 -0.000102 0.051553
v 0.146562 0.002770 0.044099
v 0.161021 0.005627 0.024251
v 0.161021 0.007378 -0.000408
v 0.146562 0.007354 -0.020460
v -0.170600 -0.446087 -0.060162
v -0.193963 -0.443666 -0.052451
v -0.208403 -0.442602 -0.032413
v -0.208403 -0.443301 -0.007701
v -0.193963 -0.445495 0.012244
v -0.170600 -0.448348 0.019806
v -0.147237 -0.450769 0.012095
v -0.132798 -0.451833 -0.007943
v -0.132798 -0.451134 -0.032654
v -0.147237 -0.448940 -0.052600
v -0.122063 -0.016322 -0.048012
v -0.145426 -0.013901 -0.040301
v -0.159865 -0.012837 -0.020263
v -0.159865 -0.013535 0.004449
v -0.145426 -0.015730 0.024394
v -0.122063 -0.018582 0.031956
v -0.098700 -0.021003 0.024245
v -0.084261 -0.022067 0.004207
v -0.084261 -0.021369 -0.020504
v -0.098700 -0.019174 -0.040450
v 0.126367 0.002731 -0.028218
v 0.127672 -0.020702 -0.020449
v 0.127256 -0.035184 -0.000419
v 0.125278 -0.035184 0.024224
v 0.122494 -0.020702 0.044064
v 0.119967 0.002731 0.051525
v 0.118662 0.026163 0.043757
v 0.119077 0.040646 0.023726
v 0.121055 0.040646 -0.000916
v 0.123839 0.026163 -0.020757
v -0.118863 -0.017452 -0.047900
v -0.117558 -0.040885 -0.040131
v -0.117973 -0.055367 -0.020100
v -0.119951 -0.055367 0.004542
v -0.122735 -0.040885 0.024383
v -0.125263 -0.017452 0.031844
v -0.126568 0.005981 0.024075
v -0.126152 0.020463 0.004044
v -0.124174 0.020463 -0.020598
v -0.121390 0.005981 -0.040439
v 0.123167 -0.036785 0.005448
v 0.099698 -0.029458 0.008035
v 0.085194 -0.009837 0.012005
v 0.085194 0.014585 0.015841
v 0.099698 0.034479 0.018077
v 0.123167 0.042246 0.017860
v 0.146635 0.034920 0.015272
v 0.161140 0.015298 0.011302
v 0.161140 -0.009124 0.007467
v 0.146635 -0.029018 0.005230
v 0.114282 -0.013996 -0.139656
v 0.090813 -0.006669 -0.137068
v 0.076309 0.012953 -0.133098
v 0.076309 0.037375 -0.129262
v 0.090813 0.057269 -0.127026
v 0.114282 0.065036 -0.127243
v 0.137750 0.057709 -0.129831
v 0.152255 0.038087 -0.133801
v 0.152255 0.013665 -0.137636
v 0.137750 -0.006229 -0.139873
v 0.114282 0.043760 -0.169048
v 0.090865 0.042155 -0.161287
v 0.076393 0.034195 -0.142893
v 0.076393 0.022922 -0.120892
v 0.090865 0.012641 -0.103687
v 0.114282 0.007280 -0.097850
v 0.137698 0.008885 -0.105611
v 0.152171 0.016845 -0.124006
v 0.152171 0.028118 -0.146007
v 0.137698 0.038399 -0.163212
v 0.143152 0.328917 -0.022939
v 0.119736 0.327311 -0.015178
v 0.105264 0.319352 0.003216
v 0.105264 0.308078 0.025218
v 0.119736 0.297798 0.042423
v 0.143152 0.292436 0.048259
v 0.166569 0.294042 0.040498
v 0.181041 0.302002 0.022104
v 0.181041 0.313275 0.000103
v 0.166569 0.323556 -0.017102
v -0.122063 -0.055950 0.002832
v -0.145519 -0.049033 -0.000788
v -0.160016 -0.030054 -0.007174
v -0.160016 -0.006261 -0.013886
v -0.145519 0.013257 -0.018360
v -0.122063 0.021046 -0.018888
v -0.098606 0.014129 -0.015267
v -0.084109 -0.004850 -0.008882
v -0.084109 -0.028643 -0.002170
v -0.098606 -0.048161 0.002304
v -0.108912 -0.108077 -0.181955
v -0.132369 -0.101160 -0.185576
v -0.146866 -0.082181 -0.191961
v -0.146866 -0.058388 -0.198673
v -0.132369 -0.038870 -0.203147
v -0.108912 -0.031081 -0.203675
v -0.085456 -0.037998 -0.200055
v -0.070959 -0.056977 -0.193669
v -0.070959 -0.080770 -0.186957
v -0.085456 -0.100288 -0.182483
v -0.108912 -0.064665 -0.232512
v -0.132411 -0.064829 -0.224835
v -0.146934 -0.066807 -0.204927
v -0.146934 -0.069845 -0.180393
v -0.132411 -0.072781 -0.160604
v -0.108912 -0.074494 -0.153118
v -0.085414 -0.074329 -0.160796
v -0.070891 -0.072351 -0.180703
v -0.070891 -0.069313 -0.205237
v -0.085414 -0.066378 -0.225027
v -0.098983 0.232049 -0.195778
v -0.122482 0.231885 -0.188101
v -0.137005 0.229907 -0.168193
v -0.137005 0.226869 -0.143659
v -0.122482 0.223933 -0.123870
v -0.098983 0.222220 -0.116385
v -0.075485 0.222384 -0.124062
v -0.060962 0.224363 -0.143970
v -0.060962 0.227400 -0.168504
v -0.075485 0.230336 -0.188293
v 0.004774 -0.044909 0.038083
v -0.001090 -0.048425 0.044343
v -0.004714 -0.047137 0.052778
v -0.004714 -0.041537 0.060166
v -0.001090 -0.033764 0.063685
v 0.004774 -0.026786 0.061991
v 0.010639 -0.023270 0.055730
v 0.014263 -0.024558 0.047295
v 0.014263 -0.030158 0.039908
v 0.010639 -0.037931 0.036389
v -0.016751 -0.029630 0.026502
v -0.022615 -0.033146 0.032762
v -0.026239 -0.031859 0.041197
v -0.026239 -0.026258 0.048585
v -0.022615 -0.018485 0.052103
v -0.016751 -0.011508 0.050409
v -0.010887 -0.007991 0.044149
v -0.007263 -0.009279 0.035714
v -0.007263 -0.014879 0.028326
v -0.010887 -0.022653 0.024807
v -0.016751 -0.030896 0.027576
v -0.024496 -0.031979 0.032554
v -0.029283 -0.028704 0.039786
v -0.029283 -0.022321 0.046510
v -0.024496 -0.015270 0.050157
v -0.016751 -0.010242 0.049335
v -0.009006 -0.009159 0.044357
v -0.004219 -0.012434 0.037125
v -0.004219 -0.018816 0.030401
v -0.009006 -0.025868 0.026754
v -0.026625 -0.017729 0.015078
v -0.034370 -0.018812 0.020056
v -0.039157 -0.015537 0.027288
v -0.039157 -0.009155 0.034012
v -0.034370 -0.002103 0.037659
v -0.026625 0.002924 0.036837
v -0.018879 0.004007 0.031859
v -0.014093 0.000732 0.024627
v -0.014093 -0.005650 0.017903
v -0.018879 -0.012702 0.014256
v -0.026625 -0.021442 0.020677
v -0.035431 -0.018610 0.021286
v -0.040874 -0.011498 0.023679
v -0.040874 -0.002821 0.026942
v -0.035431 0.004106 0.029830
v -0.026625 0.006637 0.031238
v -0.017818 0.003805 0.030630
v -0.012376 -0.003307 0.028237
v -0.012376 -0.011984 0.024973
v -0.017818 -0.018911 0.022086
v -0.025444 -0.012877 -0.002096
v -0.034250 -0.010045 -0.001488
v -0.039693 -0.002932 0.000905
v -0.039693 0.005745 0.004169
v -0.034250 0.012672 0.007056
v -0.025444 0.015203 0.008465
v -0.016638 0.012371 0.007856
v -0.011195 0.005258 0.005463
v -0.011195 -0.003419 0.002200
v -0.016638 -0.010346 -0.000688
v -0.025444 -0.011306 -0.005153
v -0.034258 -0.009041 -0.003388
v -0.039706 -0.002878 0.000888
v -0.039706 0.004829 0.006041
v -0.034258 0.011135 0.010103
v -0.025444 0.013632 0.011522
v -0.016630 0.011366 0.009757
v -0.011182 0.005203 0.005481
v -0.011182 -0.002503 0.000328
v -0.016630 -0.008809 -0.003734
v -0.025990 0.001562 -0.024398
v -0.034805 0.003828 -0.022633
v -0.040252 0.009991 -0.018357
v -0.040252 0.017697 -0.013204
v -0.034805 0.024003 -0.009142
v -0.025990 0.026501 -0.007723
v -0.017176 0.024235 -0.009488
v -0.011729 0.018072 -0.013764
v -0.011729 0.010365 -0.018917
v -0.017176 0.004059 -0.022979
v 0.004774 -0.048465 0.041925
v -0.003863 -0.047012 0.044963
v -0.009201 -0.041295 0.049939
v -0.009201 -0.033497 0.054953
v -0.003863 -0.026597 0.058088
v 0.004774 -0.023230 0.058149
v 0.013412 -0.024683 0.055111
v 0.018750 -0.030400 0.050135
v 0.018750 -0.038197 0.045121
v 0.013412 -0.045098 0.041985
v -0.007712 -0.015515 -0.009325
v -0.016349 -0.014062 -0.006287
v -0.021687 -0.008345 -0.001311
v -0.021687 -0.000547 0.003703
v -0.016349 0.006353 0.006839
v -0.007712 0.009720 0.006899
v 0.000926 0.008267 0.003861
v 0.006264 0.002550 -0.001115
v 0.006264 -0.005248 -0.006129
v 0.000926 -0.012148 -0.009264
v -0.007712 -0.010028 -0.014410
v -0.013637 -0.014410 -0.008786
v -0.017299 -0.014395 -0.000269
v -0.017299 -0.009988 0.007887
v -0.013637 -0.002873 0.012567
v -0.007712 0.004233 0.011984
v -0.001786 0.008615 0.006360
v 0.001876 0.008600 -0.002156
v 0.001876 0.004193 -0.010313
v -0.001786 -0.002922 -0.014993
v -0.020425 0.000123 -0.019894
v -0.026350 -0.004259 -0.014270
v -0.030012 -0.004244 -0.005754
v -0.030012 0.000163 0.002402
v -0.026350 0.007278 0.007083
v -0.020425 0.014384 0.006500
v -0.014500 0.018766 0.000876
v -0.010838 0.018751 -0.007641
v -0.010838 0.014344 -0.015797
v -0.014500 0.007229 -0.020477
v -0.020425 0.017657 -0.017503
v -0.029168 0.014848 -0.016231
v -0.034571 0.009138 -0.011317
v -0.034571 0.002709 -0.004639
v -0.029168 -0.001985 0.001253
v -0.020425 -0.003150 0.004109
v -0.011682 -0.000341 0.002836
v -0.006279 0.005369 -0.002078
v -0.006279 0.011798 -0.008756
v -0.011682 0.016492 -0.014648
v -0.022994 0.031836 -0.003852
v -0.031737 0.029027 -0.002580
v -0.037140 0.023318 0.002334
v -0.037140 0.016888 0.009013
v -0.031737 0.012194 0.014905
v -0.022994 0.011030 0.017760
v -0.014251 0.013838 0.016487
v -0.008848 0.019548 0.011574
v -0.008848 0.025978 0.004895
v -0.014251 0.030671 -0.000997
v -0.022994 0.034544 -0.000333
v -0.031761 0.032492 0.001872
v -0.037180 0.026216 0.006018
v -0.037180 0.018113 0.010522
v -0.031761 0.011278 0.013663
v -0.022994 0.008322 0.014241
v -0.014226 0.010374 0.012036
v -0.008808 0.016650 0.007890
v -0.008808 0.024753 0.003386
v -0.014226 0.031588 0.000245
v -0.021088 0.043267 0.015362
v -0.029856 0.041216 0.017567
v -0.035274 0.034939 0.021713
v -0.035274 0.026836 0.026217
v -0.029856 0.020002 0.029358
v -0.021088 0.017046 0.029936
v -0.012321 0.019097 0.027731
v -0.006902 0.025374 0.023585
v -0.006902 0.033477 0.019081
v -0.012321 0.040311 0.015940
v 0.004774 -0.048321 0.041706
v -0.004030 -0.046197 0.043683
v -0.009472 -0.040119 0.048087
v -0.009472 -0.032410 0.053235
v -0.004030 -0.026013 0.057162
v 0.004774 -0.023374 0.058368
v 0.013579 -0.025498 0.056391
v 0.019021 -0.031576 0.051987
v 0.019021 -0.039285 0.046838
v 0.013579 -0.045681 0.042911
v 0.001548 -0.014302 -0.009232
v -0.007257 -0.012177 -0.007255
v -0.012698 -0.006099 -0.002851
v -0.012698 0.001610 0.002297
v -0.007257 0.008006 0.006224
v 0.001548 0.010646 0.007430
v 0.010352 0.008521 0.005453
v 0.015794 0.002444 0.001049
v 0.015794 -0.005266 -0.004099
v 0.010352 -0.011662 -0.008027
v 0.001548 -0.008162 -0.014498
v -0.007168 -0.008160 -0.011338
v -0.012554 -0.005740 -0.004192
v -0.012554 -0.001826 0.004212
v -0.007168 0.002088 0.010662
v 0.001548 0.004506 0.012696
v 0.010263 0.004505 0.009536
v 0.015650 0.002085 0.002390
v 0.015650 -0.001830 -0.006014
v 0.010263 -0.005744 -0.012464
v -0.001271 0.008542 -0.022279
v -0.009986 0.008543 -0.019119
v -0.015373 0.010964 -0.011973
v -0.015373 0.014878 -0.003570
v -0.009986 0.018792 0.002881
v -0.001271 0.021210 0.004915
v 0.007445 0.021209 0.001755
v 0.012831 0.018789 -0.005391
v 0.012831 0.014874 -0.013795
v 0.007445 0.010960 -0.020245
v -0.001271 0.022778 -0.021432
v -0.009135 0.024657 -0.016897
v -0.013995 0.022800 -0.009224
v -0.013995 0.017917 -0.001344
v -0.009135 0.011872 0.003733
v -0.001271 0.006974 0.004068
v 0.006593 0.005095 -0.000467
v 0.011454 0.006952 -0.008140
v 0.011454 0.011835 -0.016020
v 0.006593 0.017880 -0.021097
v 0.008428 0.039042 -0.011352
v 0.000564 0.040922 -0.006817
v -0.004296 0.039065 0.000856
v -0.004296 0.034181 0.008736
v 0.000564 0.028136 0.013813
v 0.008428 0.023239 0.014148
v 0.016293 0.021360 0.009613
v 0.021153 0.023216 0.001940
v 0.021153 0.028100 -0.005940
v 0.016293 0.034145 -0.011017
v 0.008428 0.043258 -0.007444
v -0.000322 0.041582 -0.004881
v -0.005729 0.035918 0.000081
v -0.005729 0.028429 0.005545
v -0.000322 0.021976 0.009425
v 0.008428 0.019024 0.010239
v 0.017178 0.020699 0.007676
v 0.022586 0.026364 0.002715
v 0.022586 0.033852 -0.002750
v 0.017178 0.040305 -0.006630
v 0.012078 0.060645 0.016385
v 0.003328 0.058969 0.018948
v -0.002079 0.053305 0.023910
v -0.002079 0.045816 0.029374
v 0.003328 0.039363 0.033254
v 0.012078 0.036411 0.034068
v 0.020828 0.038087 0.031505
v 0.026236 0.043751 0.026544
v 0.026236 0.051240 0.021079
v 0.020828 0.057693 0.017199
v 0.004774 -0.047913 0.041125
v -0.004042 -0.045598 0.042813
v -0.009491 -0.039559 0.047261
v -0.009491 -0.032103 0.052769
v -0.004042 -0.026076 0.057233
v 0.004774 -0.023782 0.058949
v 0.013591 -0.026096 0.057261
v 0.019040 -0.032135 0.052813
v 0.019040 -0.039592 0.047305
v 0.013591 -0.045618 0.042840
v 0.004895 -0.010681 -0.009279
v -0.003922 -0.008367 -0.007591
v -0.009371 -0.002328 -0.003143
v -0.009371 0.005129 0.002365
v -0.003922 0.011155 0.006830
v 0.004895 0.013450 0.008545
v 0.013712 0.011135 0.006857
v 0.019161 0.005096 0.002409
v 0.019161 -0.002360 -0.003099
v 0.013712 -0.008387 -0.007563
v 0.004895 -0.002890 -0.014745
v -0.003470 0.000598 -0.012793
v -0.008639 0.004387 -0.006095
v -0.008639 0.007029 0.002791
v -0.003470 0.007515 0.010471
v 0.004895 0.005659 0.014011
v 0.013259 0.002170 0.012060
v 0.018429 -0.001618 0.005362
v 0.018429 -0.004260 -0.003525
v 0.013259 -0.004746 -0.011205
v 0.008982 0.008865 -0.018240
v 0.000618 0.012354 -0.016288
v -0.004552 0.016143 -0.009590
v -0.004552 0.018785 -0.000704
v 0.000618 0.019271 0.006976
v 0.008982 0.017415 0.010516
v 0.017347 0.013926 0.008565
v 0.022516 0.010137 0.001867
v 0.022516 0.007496 -0.007020
v 0.017347 0.007010 -0.014700
v 0.008982 0.022069 -0.015915
v 0.000844 0.023089 -0.011594
v -0.004186 0.020308 -0.004320
v -0.004186 0.014789 0.003128
v 0.000844 0.008641 0.007907
v 0.008982 0.004211 0.008191
v 0.017121 0.003192 0.003870
v 0.022151 0.005972 -0.003403
v 0.022151 0.011491 -0.010852
v 0.017121 0.017640 -0.015631
v 0.018625 0.040666 -0.002137
v 0.010486 0.041685 0.002183
v 0.005456 0.038904 0.009457
v 0.005456 0.033385 0.016906
v 0.010486 0.027237 0.021685
v 0.018625 0.022807 0.021968
v 0.026763 0.021788 0.017648
v 0.031793 0.024569 0.010374
v 0.031793 0.030087 0.002925
v 0.026763 0.036236 -0.001854
v 0.018625 0.044362 0.001817
v 0.009959 0.042829 0.004732
v 0.004604 0.037059 0.009627
v 0.004604 0.029255 0.014632
v 0.009959 0.022400 0.017836
v 0.018625 0.019110 0.018014
v 0.027290 0.020644 0.015098
v 0.032646 0.026414 0.010203
v 0.032646 0.034218 0.005198
v 0.027290 0.041073 0.001995
v 0.023330 0.057900 0.022924
v 0.014664 0.056367 0.025839
v 0.009309 0.050596 0.030734
v 0.009309 0.042793 0.035739
v 0.014664 0.035937 0.038943
v 0.023330 0.032648 0.039121
v 0.031995 0.034182 0.036205
v 0.037351 0.039952 0.031310
v 0.037351 0.047755 0.026305
v 0.031995 0.054611 0.023102
v 0.004774 -0.047161 0.040188
v -0.003808 -0.043675 0.040546
v -0.009113 -0.037199 0.044530
v -0.009113 -0.030207 0.050618
v -0.003808 -0.025370 0.056483
v 0.004774 -0.024534 0.059886
v 0.013357 -0.028020 0.059527
v 0.018662 -0.034496 0.055543
v 0.018662 -0.041488 0.049456
v 0.013357 -0.046325 0.043591
v 0.017372 -0.011982 -0.000220
v 0.008790 -0.008496 0.000139
v 0.003485 -0.002020 0.004123
v 0.003485 0.004972 0.010210
v 0.008790 0.009809 0.016075
v 0.017372 0.010645 0.019478
v 0.025955 0.007159 0.019119
v 0.031259 0.000683 0.015135
v 0.031259 -0.006309 0.009048
v 0.025955 -0.011146 0.003183
v 0.017372 -0.007539 -0.003705
v 0.010699 -0.001105 -0.003798
v 0.006575 0.005497 0.001238
v 0.006575 0.009743 0.009478
v 0.010699 0.010013 0.017777
v 0.017372 0.006202 0.022963
v 0.024045 -0.000232 0.023056
v 0.028169 -0.006834 0.018020
v 0.028169 -0.011080 0.009780
v 0.024045 -0.011350 0.001481
v 0.023257 -0.001482 -0.006826
v 0.016585 0.004953 -0.006919
v 0.012460 0.011555 -0.001884
v 0.012460 0.015801 0.006357
v 0.016585 0.016071 0.014655
v 0.023257 0.012260 0.019841
v 0.029930 0.005826 0.019934
v 0.034054 -0.000776 0.014899
v 0.034054 -0.005022 0.006658
v 0.029930 -0.005292 -0.001640
v 0.023257 0.012811 -0.006528
v 0.015437 0.014931 -0.002025
v 0.010603 0.013406 0.005738
v 0.010603 0.008820 0.013794
v 0.015437 0.002923 0.019067
v 0.023257 -0.002032 0.019543
v 0.031078 -0.004152 0.015039
v 0.035912 -0.002628 0.007277
v 0.035912 0.001959 -0.000779
v 0.031078 0.007856 -0.006052
v 0.031954 0.027331 0.001738
v 0.024133 0.029451 0.006242
v 0.019299 0.027926 0.014004
v 0.019299 0.023340 0.022061
v 0.024133 0.017443 0.027334
v 0.031954 0.012488 0.027809
v 0.039774 0.010368 0.023306
v 0.044608 0.011892 0.015543
v 0.044608 0.016479 0.007487
v 0.039774 0.022376 0.002214
v 0.031954 0.027889 0.002073
v 0.023143 0.026645 0.004674
v 0.017698 0.022828 0.011134
v 0.017698 0.017896 0.018983
v 0.023143 0.013733 0.025225
v 0.031954 0.011929 0.027475
v 0.040764 0.013173 0.024874
v 0.046209 0.016990 0.018414
v 0.046209 0.021922 0.010564
v 0.040764 0.026085 0.004322
v 0.032508 0.040399 0.009932
v 0.023697 0.039155 0.012534
v 0.018252 0.035338 0.018993
v 0.018252 0.030406 0.026843
v 0.023697 0.026243 0.033085
v 0.032508 0.024439 0.035335
v 0.041319 0.025683 0.032733
v 0.046764 0.029500 0.026274
v 0.046764 0.034432 0.018424
v 0.041319 0.038595 0.012182
f 1 2 13
f 2 14 13
f 2 3 14
f 3 15 14
f 3 4 15
f 4 16 15
f 4 5 16
f 5 17 16
f 5 6 17
f 6 18 17
f 6 7 18
f 7 19 18
f 7 8 19
f 8 20 19
f 8 9 20
f 9 21 20
f 9 10 21
f 10 22 21
f 10 11 22
f 11 23 22
f 11 12 23
f 12 24 23
f 13 14 25
f 14 26 25
f 14 15 26
f 15 27 26
f 15 16 27
f 16 28 27
f 16 17 28
f 17 29 28
f 17 18 29
f 18 30 29
f 18 19 30
f 19 31 30
f 19 20 31
f 20 32 31
f 20 21 32
f 21 33 32
f 21 22 33
f 22 34 33
f 22 23 34
f 23 35 34
f 23 24 35
f 24 36 35
f 25 26 37
f 26 38 37
f 26 27 38
f 27 39 38
f 27 28 39
f 28 40 39
f 28 29 40
f 29 41 40
f 29 30 41
f 30 42 41
f 30 31 42
f 31 43 42
f 31 32 43
f 32 44 43
f 32 33 44
f 33 45 44
f 33 34 45
f 34 46 45
f 34 35 46
f 35 47 46
f 35 36 47
f 36 48 47
f 37 38 49
f 38 50 49
f 38 39 50
f 39 51 50
f 39 40 51
f 40 52 51
f 40 41 52
f 41 53 52
f 41 42 53
f 42 54 53
f 42 43 54
f 43 55 54
f 43 44 55
f 44 56 55
f 44 45 56
f 45 57 56
f 45 46 57
f 46 58 57
f 46 47 58
f 47 59 58
f 47 48 59
f 48 60 59
f 49 50 61
f 50 62 61
f 50 51 62
f 51 63 62
f 51 52 63
f 52 64 63
f 52 53 64
f 53 65 64
f 53 54 65
f 54 66 65
f 54 55 66
f 55 67 66
f 55 56 67
f 56 68 67
f 56 57 68
f 57 69 68
f 57 58 69
f 58 70 69
f 58 59 70
f 59 71 70
f 59 60 71
f 60 72 71
f 61 62 73
f 62 74 73
f 62 63 74
f 63 75 74
f 63 64 75
f 64 76 75
f 64 65 76
f 65 77 76
f 65 66 77
f 66 78 77
f 66 67 78
f 67 79 78
f 67 68 79
f 68 80 79
f 68 69 80
f 69 81 80
f 69 70 81
f 70 82 81
f 70 71 82
f 71 83 82
f 71 72 83
f 72 84 83
f 73 74 85
f 74 86 85
f 74 75 86
f 75 87 86
f 75 76 87
f 76 88 87
f 76 77 88
f 77 89 88
f 77 78 89
f 78 90 89
f 78 79 90
f 79 91 90
f 79 80 91
f 80 92 91
f 80 81 92
f 81 93 92
f 81 82 93
f 82 94 93
f 82 83 94
f 83 95 94
f 83 84 95
f 84 96 95
f 85 86 97
f 86 98 97
f 86 87 98
f 87 99 98
f 87 88 99
f 88 100 99
f 88 89 100
f 89 101 100
f 89 90 101
f 90 102 101
f 90 91 102
f 91 103 102
f 91 92 103
f 92 104 103
f 92 93 104
f 93 105 104
f 93 94 105
f 94 106 105
f 94 95 106
f 95 107 106
f 95 96 107
f 96 108 107
f 97 98 109
f 98 110 109
f 98 99 110
f 99 111 110
f 99 100 111
f 100 112 111
f 100 101 112
f 101 113 112
f 101 102 113
f 102 114 113
f 102 103 114
f 103 115 114
f 103 104 115
f 104 116 115
f 104 105 116
f 105 117 116
f 105 106 117
f 106 118 117
f 106 107 118
f 107 119 118
f 107 108 119
f 108 120 119
f 109 110 121
f 110 122 121
f 110 111 122
f 111 123 122
f 111 112 123
f 112 124 123
f 112 113 124
f 113 125 124
f 113 114 125
f 114 126 125
f 114 115 126
f 115 127 126
f 115 116 127
f 116 128 127
f 116 117 128
f 117 129 128
f 117 118 129
f 118 130 129
f 118 119 130
f 119 131 130
f 119 120 131
f 120 132 131
f 121 122 133
f 122 134 133
f 122 123 134
f 123 135 134
f 123 124 135
f 124 136 135
f 124 125 136
f 125 137 136
f 125 126 137
f 126 138 137
f 126 127 138
f 127 139 138
f 127 128 139
f 128 140 139
f 128 129 140
f 129 141 140
f 129 130 141
f 130 142 141
f 130 131 142
f 131 143 142
f 131 132 143
f 132 144 143
f 145 146 155
f 146 156 155
f 146 147 156
f 147 157 156
f 147 148 157
f 148 158 157
f 148 149 158
f 149 159 158
f 149 150 159
f 150 160 159
f 150 151 160
f 151 161 160
f 151 152 161
f 152 162 161
f 152 153 162
f 153 163 162
f 153 154 163
f 154 164 163
f 154 145 164
f 145 155 164
f 165 166 175
f 166 176 175
f 166 167 176
f 167 177 176
f 167 168 177
f 168 178 177
f 168 169 178
f 169 179 178
f 169 170 179
f 170 180 179
f 170 171 180
f 171 181 180
f 171 172 181
f 172 182 181
f 172 173 182
f 173 183 182
f 173 174 183
f 174 184 183
f 174 165 184
f 165 175 184
f 185 186 195
f 186 196 195
f 186 187 196
f 187 197 196
f 187 188 197
f 188 198 197
f 188 189 198
f 189 199 198
f 189 190 199
f 190 200 199
f 190 191 200
f 191 201 200
f 191 192 201
f 192 202 201
f 192 193 202
f 193 203 202
f 193 194 203
f 194 204 203
f 194 185 204
f 185 195 204
f 205 206 215
f 206 216 215
f 206 207 216
f 207 217 216
f 207 208 217
f 208 218 217
f 208 209 218
f 209 219 218
f 209 210 219
f 210 220 219
f 210 211 220
f 211 221 220
f 211 212 221
f 212 222 221
f 212 213 222
f 213 223 222
f 213 214 223
f 214 224 223
f 214 205 224
f 205 215 224
f 225 226 235
f 226 236 235
f 226 227 236
f 227 237 236
f 227 228 237
f 228 238 237
f 228 229 238
f 229 239 238
f 229 230 239
f 230 240 239
f 230 231 240
f 231 241 240
f 231 232 241
f 232 242 241
f 232 233 242
f 233 243 242
f 233 234 243
f 234 244 243
f 234 225 244
f 225 235 244
f 245 246 255
f 246 256 255
f 246 247 256
f 247 257 256
f 247 248 257
f 248 258 257
f 248 249 258
f 249 259 258
f 249 250 259
f 250 260 259
f 250 251 260
f 251 261 260
f 251 252 261
f 252 262 261
f 252 253 262
f 253 263 262
f 253 254 263
f 254 264 263
f 254 245 264
f 245 255 264
f 265 266 275
f 266 276 275
f 266 267 276
f 267 277 276
f 267 268 277
f 268 278 277
f 268 269 278
f 269 279 278
f 269 270 279
f 270 280 279
f 270 271 280
f 271 281 280
f 271 272 281
f 272 282 281
f 272 273 282
f 273 283 282
f 273 274 283
f 274 284 283
f 274 265 284
f 265 275 284
f 285 286 295
f 286 296 295
f 286 287 296
f 287 297 296
f 287 288 297
f 288 298 297
f 288 289 298
f 289 299 298
f 289 290 299
f 290 300 299
f 290 291 300
f 291 301 300
f 291 292 301
f 292 302 301
f 292 293 302
f 293 303 302
f 293 294 303
f 294 304 303
f 294 285 304
f 285 295 304
f 305 306 315
f 306 316 315
f 306 307 316
f 307 317 316
f 307 308 317
f 308 318 317
f 308 309 318
f 309 319 318
f 309 310 319
f 310 320 319
f 310 311 320
f 311 321 320
f 311 312 321
f 312 322 321
f 312 313 322
f 313 323 322
f 313 314 323
f 314 324 323
f 314 305 324
f 305 315 324
f 325 326 335
f 326 336 335
f 326 327 336
f 327 337 336
f 327 328 337
f 328 338 337
f 328 329 338
f 329 339 338
f 329 330 339
f 330 340 339
f 330 331 340
f 331 341 340
f 331 332 341
f 332 342 341
f 332 333 342
f 333 343 342
f 333 334 343
f 334 344 343
f 334 325 344
f 325 335 344
f 345 346 355
f 346 356 355
f 346 347 356
f 347 357 356
f 347 348 357
f 348 358 357
f 348 349 358
f 349 359 358
f 349 350 359
f 350 360 359
f 350 351 360
f 351 361 360
f 351 352 361
f 352 362 361
f 352 353 362
f 353 363 362
f 353 354 363
f 354 364 363
f 354 345 364
f 345 355 364
f 365 366 375
f 366 376 375
f 366 367 376
f 367 377 376
f 367 368 377
f 368 378 377
f 368 369 378
f 369 379 378
f 369 370 379
f 370 380 379
f 370 371 380
f 371 381 380
f 371 372 381
f 372 382 381
f 372 373 382
f 373 383 382
f 373 374 383
f 374 384 383
f 374 365 384
f 365 375 384
f 385 386 395
f 386 396 395
f 386 387 396
f 387 397 396
f 387 388 397
f 388 398 397
f 388 389 398
f 389 399 398
f 389 390 399
f 390 400 399
f 390 391 400
f 391 401 400
f 391 392 401
f 392 402 401
f 392 393 402
f 393 403 402
f 393 394 403
f 394 404 403
f 394 385 404
f 385 395 404
f 405 406 415
f 406 416 415
f 406 407 416
f 407 417 416
f 407 408 417
f 408 418 417
f 408 409 418
f 409 419 418
f 409 410 419
f 410 420 419
f 410 411 420
f 411 421 420
f 411 412 421
f 412 422 421
f 412 413 422
f 413 423 422
f 413 414 423
f 414 424 423
f 414 405 424
f 405 415 424
f 425 426 435
f 426 436 435
f 426 427 436
f 427 437 436
f 427 428 437
f 428 438 437
f 428 429 438
f 429 439 438
f 429 430 439
f 430 440 439
f 430 431 440
f 431 441 440
f 431 432 441
f 432 442 441
f 432 433 442
f 433 443 442
f 433 434 443
f 434 444 443
f 434 425 444
f 425 435 444
f 445 446 455
f 446 456 455
f 446 447 456
f 447 457 456
f 447 448 457
f 448 458 457
f 448 449 458
f 449 459 458
f 449 450 459
f 450 460 459
f 450 451 460
f 451 461 460
f 451 452 461
f 452 462 461
f 452 453 462
f 453 463 462
f 453 454 463
f 454 464 463
f 454 445 464
f 445 455 464
f 465 466 475
f 466 476 475
f 466 467 476
f 467 477 476
f 467 468 477
f 468 478 477
f 468 469 478
f 469 479 478
f 469 470 479
f 470 480 479
f 470 471 480
f 471 481 480
f 471 472 481
f 472 482 481
f 472 473 482
f 473 483 482
f 473 474 483
f 474 484 483
f 474 465 484
f 465 475 484
f 485 486 495
f 486 496 495
f 486 487 496
f 487 497 496
f 487 488 497
f 488 498 497
f 488 489 498
f 489 499 498
f 489 490 499
f 490 500 499
f 490 491 500
f 491 501 500
f 491 492 501
f 492 502 501
f 492 493 502
f 493 503 502
f 493 494 503
f 494 504 503
f 494 485 504
f 485 495 504
f 505 506 515
f 506 516 515
f 506 507 516
f 507 517 516
f 507 508 517
f 508 518 517
f 508 509 518
f 509 519 518
f 509 510 519
f 510 520 519
f 510 511 520
f 511 521 520
f 511 512 521
f 512 522 521
f 512 513 522
f 513 523 522
f 513 514 523
f 514 524 523
f 514 505 524
f 505 515 524
f 525 526 535
f 526 536 535
f 526 527 536
f 527 537 536
f 527 528 537
f 528 538 537
f 528 529 538
f 529 539 538
f 529 530 539
f 530 540 539
f 530 531 540
f 531 541 540
f 531 532 541
f 532 542 541
f 532 533 542
f 533 543 542
f 533 534 543
f 534 544 543
f 534 525 544
f 525 535 544
f 545 546 555
f 546 556 555
f 546 547 556
f 547 557 556
f 547 548 557
f 548 558 557
f 548 549 558
f 549 559 558
f 549 550 559
f 550 560 559
f 550 551 560
f 551 561 560
f 551 552 561
f 552 562 561
f 552 553 562
f 553 563 562
f 553 554 563
f 554 564 563
f 554 545 564
f 545 555 564
f 565 566 575
f 566 576 575
f 566 567 576
f 567 577 576
f 567 568 577
f 568 578 577
f 568 569 578
f 569 579 578
f 569 570 579
f 570 580 579
f 570 571 580
f 571 581 580
f 571 572 581
f 572 582 581
f 572 573 582
f 573 583 582
f 573 574 583
f 574 584 583
f 574 565 584
f 565 575 584
f 585 586 595
f 586 596 595
f 586 587 596
f 587 597 596
f 587 588 597
f 588 598 597
f 588 589 598
f 589 599 598
f 589 590 599
f 590 600 599
f 590 591 600
f 591 601 600
f 591 592 601
f 592 602 601
f 592 593 602
f 593 603 602
f 593 594 603
f 594 604 603
f 594 585 604
f 585 595 604
f 605 606 615
f 606 616 615
f 606 607 616
f 607 617 616
f 607 608 617
f 608 618 617
f 608 609 618
f 609 619 618
f 609 610 619
f 610 620 619
f 610 611 620
f 611 621 620
f 611 612 621
f 612 622 621
f 612 613 622
f 613 623 622
f 613 614 623
f 614 624 623
f 614 605 624
f 605 615 624
f 625 626 635
f 626 636 635
f 626 627 636
f 627 637 636
f 627 628 637
f 628 638 637
f 628 629 638
f 629 639 638
f 629 630 639
f 630 640 639
f 630 631 640
f 631 641 640
f 631 632 641
f 632 642 641
f 632 633 642
f 633 643 642
f 633 634 643
f 634 644 643
f 634 625 644
f 625 635 644
f 645 646 655
f 646 656 655
f 646 647 656
f 647 657 656
f 647 648 657
f 648 658 657
f 648 649 658
f 649 659 658
f 649 650 659
f 650 660 659
f 650 651 660
f 651 661 660
f 651 652 661
f 652 662 661
f 652 653 662
f 653 663 662
f 653 654 663
f 654 664 663
f 654 645 664
f 645 655 664
f 665 666 675
f 666 676 675
f 666 667 676
f 667 677 676
f 667 668 677
f 668 678 677
f 668 669 678
f 669 679 678
f 669 670 679
f 670 680 679
f 670 671 680
f 671 681 680
f 671 672 681
f 672 682 681
f 672 673 682
f 673 683 682
f 673 674 683
f 674 684 683
f 674 665 684
f 665 675 684
f 685 686 695
f 686 696 695
f 686 687 696
f 687 697 696
f 687 688 697
f 688 698 697
f 688 689 698
f 689 699 698
f 689 690 699
f 690 700 699
f 690 691 700
f 691 701 700
f 691 692 701
f 692 702 701
f 692 693 702
f 693 703 702
f 693 694 703
f 694 704 703
f 694 685 704
f 685 695 704
f 705 706 715
f 706 716 715
f 706 707 716
f 707 717 716
f 707 708 717
f 708 718 717
f 708 709 718
f 709 719 718
f 709 710 719
f 710 720 719
f 710 711 720
f 711 721 720
f 711 712 721
f 712 722 721
f 712 713 722
f 713 723 722
f 713 714 723
f 714 724 723
f 714 705 724
f 705 715 724
f 725 726 735
f 726 736 735
f 726 727 736
f 727 737 736
f 727 728 737
f 728 738 737
f 728 729 738
f 729 739 738
f 729 730 739
f 730 740 739
f 730 731 740
f 731 741 740
f 731 732 741
f 732 742 741
f 732 733 742
f 733 743 742
f 733 734 743
f 734 744 743
f 734 725 744
f 725 735 744
f 745 746 755
f 746 756 755
f 746 747 756
f 747 757 756
f 747 748 757
f 748 758 757
f 748 749 758
f 749 759 758
f 749 750 759
f 750 760 759
f 750 751 760
f 751 761 760
f 751 752 761
f 752 762 761
f 752 753 762
f 753 763 762
f 753 754 763
f 754 764 763
f 754 745 764
f 745 755 764
f 765 766 775
f 766 776 775
f 766 767 776
f 767 777 776
f 767 768 777
f 768 778 777
f 768 769 778
f 769 779 778
f 769 770 779
f 770 780 779
f 770 771 780
f 771 781 780
f 771 772 781
f 772 782 781
f 772 773 782
f 773 783 782
f 773 774 783
f 774 784 783
f 774 765 784
f 765 775 784
