# Full-Body 3D Mesh - Frame 137
v 0.000629 -0.631506 -0.129727
v 0.034437 -0.631506 -0.134588
v 0.065506 -0.631506 -0.148777
v 0.091319 -0.631506 -0.171144
v 0.109785 -0.631506 -0.199878
v 0.119408 -0.631506 -0.232650
v 0.119408 -0.631506 -0.266805
v 0.109785 -0.631506 -0.299577
v 0.091319 -0.631506 -0.328311
v 0.065506 -0.631506 -0.350678
v 0.034437 -0.631506 -0.364867
v 0.000629 -0.631506 -0.369727
v 0.000629 -0.631506 -0.129727
v 0.029070 -0.613228 -0.134588
v 0.055207 -0.596431 -0.148777
v 0.076922 -0.582475 -0.171144
v 0.092457 -0.572492 -0.199878
v 0.100552 -0.567289 -0.232650
v 0.100552 -0.567289 -0.266805
v 0.092457 -0.572492 -0.299577
v 0.076922 -0.582475 -0.328311
v 0.055207 -0.596431 -0.350678
v 0.029070 -0.613228 -0.364867
v 0.000629 -0.631506 -0.369727
v 0.000629 -0.631506 -0.129727
v 0.014673 -0.600753 -0.134588
v 0.027580 -0.572492 -0.148777
v 0.038303 -0.549011 -0.171144
v 0.045974 -0.532214 -0.199878
v 0.049972 -0.523461 -0.232650
v 0.049972 -0.523461 -0.266805
v 0.045974 -0.532214 -0.299577
v 0.038303 -0.549011 -0.328311
v 0.027580 -0.572492 -0.350678
v 0.014673 -0.600753 -0.364867
v 0.000629 -0.631506 -0.369727
v 0.000629 -0.631506 -0.129727
v -0.004182 -0.598042 -0.134588
v -0.008604 -0.567289 -0.148777
v -0.012277 -0.541739 -0.171144
v -0.014905 -0.523461 -0.199878
v -0.016275 -0.513936 -0.232650
v -0.016275 -0.513936 -0.266805
v -0.014905 -0.523461 -0.299577
v -0.012277 -0.541739 -0.328311
v -0.008604 -0.567289 -0.350678
v -0.004182 -0.598042 -0.364867
v 0.000629 -0.631506 -0.369727
v 0.000629 -0.631506 -0.129727
v -0.021510 -0.605956 -0.134588
v -0.041856 -0.582475 -0.148777
v -0.058760 -0.562967 -0.171144
v -0.070853 -0.549011 -0.199878
v -0.077154 -0.541739 -0.232650
v -0.077154 -0.541739 -0.266805
v -0.070853 -0.549011 -0.299577
v -0.058760 -0.562967 -0.328311
v -0.041856 -0.582475 -0.350678
v -0.021510 -0.605956 -0.364867
v 0.000629 -0.631506 -0.369727
v 0.000629 -0.631506 -0.129727
v -0.031809 -0.621981 -0.134588
v -0.061620 -0.613228 -0.148777
v -0.086387 -0.605956 -0.171144
v -0.104105 -0.600753 -0.199878
v -0.113338 -0.598042 -0.232650
v -0.113338 -0.598042 -0.266805
v -0.104105 -0.600753 -0.299577
v -0.086387 -0.605956 -0.328311
v -0.061620 -0.613228 -0.350678
v -0.031809 -0.621981 -0.364867
v 0.000629 -0.631506 -0.369727
v 0.000629 -0.631506 -0.129727
v -0.031809 -0.641031 -0.134588
v -0.061620 -0.649784 -0.148777
v -0.086387 -0.657056 -0.171144
v -0.104105 -0.662259 -0.199878
v -0.113338 -0.664970 -0.232650
v -0.113338 -0.664970 -0.266805
v -0.104105 -0.662259 -0.299577
v -0.086387 -0.657056 -0.328311
v -0.061620 -0.649784 -0.350678
v -0.031809 -0.641031 -0.364867
v 0.000629 -0.631506 -0.369727
v 0.000629 -0.631506 -0.129727
v -0.021510 -0.657056 -0.134588
v -0.041856 -0.680537 -0.148777
v -0.058760 -0.700045 -0.171144
v -0.070853 -0.714000 -0.199878
v -0.077154 -0.721273 -0.232650
v -0.077154 -0.721273 -0.266805
v -0.070853 -0.714000 -0.299577
v -0.058760 -0.700045 -0.328311
v -0.041856 -0.680537 -0.350678
v -0.021510 -0.657056 -0.364867
v 0.000629 -0.631506 -0.369727
v 0.000629 -0.631506 -0.129727
v -0.004182 -0.664970 -0.134588
v -0.008604 -0.695723 -0.148777
v -0.012277 -0.721273 -0.171144
v -0.014905 -0.739551 -0.199878
v -0.016275 -0.749076 -0.232650
v -0.016275 -0.749076 -0.266805
v -0.014905 -0.739551 -0.299577
v -0.012277 -0.721273 -0.328311
v -0.008604 -0.695723 -0.350678
v -0.004182 -0.664970 -0.364867
v 0.000629 -0.631506 -0.369727
v 0.000629 -0.631506 -0.129727
v 0.014673 -0.662259 -0.134588
v 0.027580 -0.690520 -0.148777
v 0.038303 -0.714000 -0.171144
v 0.045974 -0.730798 -0.199878
v 0.049972 -0.739551 -0.232650
v 0.049972 -0.739551 -0.266805
v 0.045974 -0.730798 -0.299577
v 0.038303 -0.714000 -0.328311
v 0.027580 -0.690520 -0.350678
v 0.014673 -0.662259 -0.364867
v 0.000629 -0.631506 -0.369727
v 0.000629 -0.631506 -0.129727
v 0.029070 -0.649784 -0.134588
v 0.055207 -0.666581 -0.148777
v 0.076922 -0.680537 -0.171144
v 0.092457 -0.690520 -0.199878
v 0.100552 -0.695723 -0.232650
v 0.100552 -0.695723 -0.266805
v 0.092457 -0.690520 -0.299577
v 0.076922 -0.680537 -0.328311
v 0.055207 -0.666581 -0.350678
v 0.029070 -0.649784 -0.364867
v 0.000629 -0.631506 -0.369727
v 0.000629 -0.631506 -0.129727
v 0.034437 -0.631506 -0.134588
v 0.065506 -0.631506 -0.148777
v 0.091319 -0.631506 -0.171144
v 0.109785 -0.631506 -0.199878
v 0.119408 -0.631506 -0.232650
v 0.119408 -0.631506 -0.266805
v 0.109785 -0.631506 -0.299577
v 0.091319 -0.631506 -0.328311
v 0.065506 -0.631506 -0.350678
v 0.034437 -0.631506 -0.364867
v 0.000629 -0.631506 -0.369727
v 0.167763 -0.447882 -0.068834
v 0.166384 -0.471393 -0.061320
v 0.162904 -0.485924 -0.041625
v 0.158652 -0.485924 -0.017272
v 0.155253 -0.471393 0.002437
v 0.154005 -0.447882 0.009974
v 0.155384 -0.424371 0.002460
v 0.158865 -0.409840 -0.017235
v 0.163116 -0.409840 -0.041588
v 0.166515 -0.424371 -0.061297
v -0.168072 -0.446916 -0.127465
v -0.169451 -0.470428 -0.119951
v -0.172931 -0.484958 -0.100256
v -0.177183 -0.484958 -0.075903
v -0.180582 -0.470428 -0.056194
v -0.181830 -0.446916 -0.048657
v -0.180450 -0.423405 -0.056171
v -0.176970 -0.408874 -0.075866
v -0.172719 -0.408874 -0.100219
v -0.169320 -0.423405 -0.119928
v 0.160884 -0.448738 -0.069421
v 0.137834 -0.443943 -0.061883
v 0.123588 -0.440653 -0.041948
v 0.123588 -0.440124 -0.017233
v 0.137834 -0.442558 0.002824
v 0.160884 -0.447026 0.010561
v 0.183935 -0.451821 0.003022
v 0.198181 -0.455111 -0.016912
v 0.198181 -0.455640 -0.041628
v 0.183935 -0.453205 -0.061684
v 0.204146 -0.233507 -0.074028
v 0.181096 -0.228712 -0.066489
v 0.166850 -0.225422 -0.046555
v 0.166850 -0.224893 -0.021839
v 0.181096 -0.227327 -0.001783
v 0.204146 -0.231795 0.005954
v 0.227197 -0.236589 -0.001584
v 0.241443 -0.239880 -0.021519
v 0.241443 -0.240409 -0.046234
v 0.227197 -0.237974 -0.066291
v 0.204146 -0.263962 -0.058929
v 0.180746 -0.259400 -0.052391
v 0.166283 -0.244622 -0.038842
v 0.166283 -0.225270 -0.023457
v 0.180746 -0.208738 -0.012114
v 0.204146 -0.201340 -0.009144
v 0.227547 -0.205901 -0.015683
v 0.242009 -0.220680 -0.029232
v 0.242009 -0.240031 -0.044616
v 0.227547 -0.256563 -0.055959
v 0.184608 -0.139144 -0.215931
v 0.161208 -0.134583 -0.209393
v 0.146745 -0.119804 -0.195844
v 0.146745 -0.100453 -0.180459
v 0.161208 -0.083921 -0.169116
v 0.184608 -0.076522 -0.166146
v 0.208009 -0.081084 -0.172685
v 0.222471 -0.095862 -0.186234
v 0.222471 -0.115214 -0.201618
v 0.208009 -0.131746 -0.212961
v -0.174951 -0.463438 -0.124489
v -0.197313 -0.466895 -0.114533
v -0.211134 -0.462720 -0.094465
v -0.211134 -0.452509 -0.071951
v -0.197313 -0.440161 -0.055591
v -0.174951 -0.430394 -0.051632
v -0.152588 -0.426938 -0.061588
v -0.138768 -0.431112 -0.081656
v -0.138768 -0.441323 -0.104170
v -0.152588 -0.453671 -0.120531
v -0.248010 -0.258504 -0.217438
v -0.270372 -0.261960 -0.207482
v -0.284193 -0.257786 -0.187414
v -0.284193 -0.247574 -0.164901
v -0.270372 -0.235227 -0.148540
v -0.248010 -0.225460 -0.144582
v -0.225647 -0.222003 -0.154538
v -0.211827 -0.226178 -0.174605
v -0.211827 -0.236389 -0.197119
v -0.225647 -0.248737 -0.213480
v -0.248010 -0.278913 -0.165645
v -0.268480 -0.276302 -0.179258
v -0.281131 -0.260582 -0.193540
v -0.281131 -0.237758 -0.203036
v -0.268480 -0.216546 -0.204119
v -0.248010 -0.205050 -0.196375
v -0.227539 -0.207661 -0.182762
v -0.214888 -0.223381 -0.168480
v -0.214888 -0.246206 -0.158984
v -0.227539 -0.267417 -0.157901
v -0.129921 -0.359198 -0.358618
v -0.150392 -0.356587 -0.372231
v -0.163043 -0.340867 -0.386513
v -0.163043 -0.318043 -0.396009
v -0.150392 -0.296831 -0.397092
v -0.129921 -0.285335 -0.389348
v -0.109451 -0.287946 -0.375735
v -0.096800 -0.303666 -0.361453
v -0.096800 -0.326491 -0.351957
v -0.109451 -0.347702 -0.350874
v 0.160884 -0.443009 -0.069132
v 0.137448 -0.445799 -0.061778
v 0.122963 -0.449384 -0.042068
v 0.122963 -0.452396 -0.017531
v 0.137448 -0.453683 0.002461
v 0.160884 -0.452755 0.010272
v 0.184321 -0.449965 0.002918
v 0.198806 -0.446380 -0.016792
v 0.198806 -0.443368 -0.041330
v 0.184321 -0.442081 -0.061322
v 0.124722 0.006113 -0.014009
v 0.101286 0.003323 -0.006655
v 0.086801 -0.000262 0.013055
v 0.086801 -0.003274 0.037592
v 0.101286 -0.004561 0.057584
v 0.124722 -0.003633 0.065395
v 0.148159 -0.000843 0.058041
v 0.162644 0.002742 0.038331
v 0.162644 0.005754 0.013794
v 0.148159 0.007041 -0.006199
v -0.174951 -0.440884 -0.127603
v -0.198306 -0.439365 -0.119644
v -0.212741 -0.440731 -0.099621
v -0.212741 -0.444459 -0.075182
v -0.198306 -0.449126 -0.055663
v -0.174951 -0.452949 -0.048518
v -0.151595 -0.454467 -0.056478
v -0.137160 -0.453102 -0.076501
v -0.137160 -0.449373 -0.100939
v -0.151595 -0.444706 -0.120459
v -0.124814 -0.012383 -0.062231
v -0.148169 -0.010865 -0.054272
v -0.162604 -0.012230 -0.034249
v -0.162604 -0.015959 -0.009810
v -0.148169 -0.020625 0.009709
v -0.124814 -0.024448 0.016854
v -0.101458 -0.025967 0.008894
v -0.087023 -0.024601 -0.011129
v -0.087023 -0.020873 -0.035567
v -0.101458 -0.016206 -0.055087
v 0.132336 0.001240 -0.013576
v 0.132661 -0.022201 -0.005731
v 0.129954 -0.036689 0.014117
v 0.125249 -0.036689 0.038386
v 0.120342 -0.022201 0.057807
v 0.117109 0.001240 0.064962
v 0.116783 0.024682 0.057117
v 0.119490 0.039169 0.037269
v 0.124196 0.039169 0.013000
v 0.129102 0.024682 -0.006421
v -0.117200 -0.018416 -0.061958
v -0.116874 -0.041857 -0.054113
v -0.119581 -0.056345 -0.034265
v -0.124287 -0.056345 -0.009996
v -0.129194 -0.041857 0.009425
v -0.132427 -0.018416 0.016580
v -0.132753 0.005026 0.008735
v -0.130046 0.019513 -0.011112
v -0.125340 0.019513 -0.035382
v -0.120434 0.005026 -0.054803
v 0.124722 -0.021749 -0.007041
v 0.101441 -0.014675 -0.002674
v 0.087052 -0.001522 0.012529
v 0.087052 0.012686 0.032759
v 0.101441 0.022522 0.050291
v 0.124722 0.024229 0.058427
v 0.148004 0.017156 0.054060
v 0.162393 0.004003 0.038857
v 0.162393 -0.010205 0.018627
v 0.148004 -0.020042 0.001095
v 0.147938 0.113157 -0.101787
v 0.124657 0.120231 -0.097419
v 0.110268 0.133384 -0.082217
v 0.110268 0.147592 -0.061987
v 0.124657 0.157428 -0.044455
v 0.147938 0.159136 -0.036319
v 0.171220 0.152062 -0.040686
v 0.185609 0.138909 -0.055889
v 0.185609 0.124701 -0.076119
v 0.171220 0.114865 -0.093651
v 0.147938 0.159458 -0.101558
v 0.124634 0.157533 -0.093538
v 0.110230 0.147439 -0.076165
v 0.110230 0.133032 -0.056076
v 0.124634 0.119814 -0.040943
v 0.147938 0.112835 -0.036548
v 0.171243 0.114760 -0.044568
v 0.185647 0.124854 -0.061940
v 0.185647 0.139261 -0.082030
v 0.171243 0.152479 -0.097162
v 0.187262 0.398944 0.070191
v 0.163957 0.397019 0.078211
v 0.149554 0.386925 0.095584
v 0.149554 0.372518 0.115673
v 0.163957 0.359301 0.130806
v 0.187262 0.352322 0.135201
v 0.210567 0.354247 0.127181
v 0.224970 0.364341 0.109808
v 0.224970 0.378748 0.089719
v 0.210567 0.391965 0.074587
v -0.124814 -0.058390 -0.024121
v -0.146502 -0.050430 -0.032920
v -0.159906 -0.030242 -0.037811
v -0.159906 -0.005537 -0.036926
v -0.146502 0.014249 -0.030602
v -0.124814 0.021559 -0.021257
v -0.103126 0.013599 -0.012458
v -0.089722 -0.006589 -0.007567
v -0.089722 -0.031294 -0.008452
v -0.103126 -0.051081 -0.014775
v -0.061105 -0.052940 -0.176228
v -0.082793 -0.044980 -0.185027
v -0.096197 -0.024792 -0.189917
v -0.096197 -0.000087 -0.189032
v -0.082793 0.019700 -0.182709
v -0.061105 0.027009 -0.173363
v -0.039416 0.019050 -0.164564
v -0.026012 -0.001139 -0.159674
v -0.026012 -0.025844 -0.160559
v -0.039416 -0.045630 -0.166882
v -0.061105 -0.004683 -0.213929
v -0.084616 -0.006246 -0.206451
v -0.099147 -0.010376 -0.186882
v -0.099147 -0.015494 -0.162696
v -0.084616 -0.019647 -0.143132
v -0.061105 -0.021247 -0.135662
v -0.037593 -0.019684 -0.143140
v -0.023062 -0.015555 -0.162709
v -0.023062 -0.010436 -0.186895
v -0.037593 -0.006284 -0.206459
v -0.060873 0.274483 -0.154847
v -0.084384 0.272920 -0.147370
v -0.098915 0.268791 -0.127801
v -0.098915 0.263672 -0.103615
v -0.084384 0.259520 -0.084051
v -0.060873 0.257919 -0.076581
v -0.037362 0.259482 -0.084059
v -0.022831 0.263612 -0.103628
v -0.022831 0.268730 -0.127813
v -0.037362 0.272883 -0.147377
v -0.051199 0.025227 0.048922
v -0.058691 0.020758 0.045785
v -0.063321 0.018337 0.038127
v -0.063321 0.018890 0.028873
v -0.058691 0.022206 0.021558
v -0.051199 0.027017 0.018976
v -0.043707 0.031486 0.022113
v -0.039077 0.033906 0.029771
v -0.039077 0.033353 0.039025
v -0.043707 0.030038 0.046340
v -0.037249 0.002784 0.047581
v -0.044741 -0.001685 0.044444
v -0.049371 -0.004105 0.036786
v -0.049371 -0.003552 0.027532
v -0.044741 -0.000237 0.020217
v -0.037249 0.004574 0.017634
v -0.029757 0.009043 0.020771
v -0.025127 0.011463 0.028429
v -0.025127 0.010910 0.037683
v -0.029757 0.007595 0.044999
v -0.037249 0.003422 0.047605
v -0.043508 -0.002738 0.044635
v -0.047376 -0.006447 0.037070
v -0.047376 -0.006288 0.027801
v -0.043508 -0.002322 0.020368
v -0.037249 0.003936 0.017610
v -0.030991 0.010096 0.020581
v -0.027123 0.013805 0.028146
v -0.027123 0.013646 0.037415
v -0.030991 0.009680 0.044848
v -0.022558 -0.011382 0.047351
v -0.028817 -0.017542 0.044381
v -0.032685 -0.021251 0.036816
v -0.032685 -0.021092 0.027547
v -0.028817 -0.017126 0.020114
v -0.022558 -0.010868 0.017356
v -0.016300 -0.004708 0.020327
v -0.012432 -0.000999 0.027892
v -0.012432 -0.001158 0.037161
v -0.016300 -0.005124 0.044594
v -0.022558 -0.013338 0.047190
v -0.029208 -0.018642 0.043502
v -0.033317 -0.021074 0.035556
v -0.033317 -0.019706 0.026387
v -0.029208 -0.015061 0.019497
v -0.022558 -0.008912 0.017518
v -0.015909 -0.003608 0.021206
v -0.011799 -0.001175 0.029152
v -0.011799 -0.002543 0.038321
v -0.015909 -0.007189 0.045210
v -0.014280 -0.022741 0.045787
v -0.020930 -0.028045 0.042099
v -0.025039 -0.030477 0.034153
v -0.025039 -0.029109 0.024984
v -0.020930 -0.024464 0.018094
v -0.014280 -0.018314 0.016115
v -0.007631 -0.013011 0.019803
v -0.003521 -0.010578 0.027749
v -0.003521 -0.011946 0.036918
v -0.007631 -0.016592 0.043808
v -0.014280 -0.024100 0.045519
v -0.022750 -0.025797 0.042153
v -0.027984 -0.025482 0.034509
v -0.027984 -0.023274 0.025505
v -0.022750 -0.020017 0.018581
v -0.014280 -0.016955 0.016383
v -0.005811 -0.015258 0.019748
v -0.000576 -0.015574 0.027393
v -0.000576 -0.017782 0.036397
v -0.005811 -0.021039 0.043320
v -0.007910 -0.045488 0.040274
v -0.016380 -0.047185 0.036909
v -0.021615 -0.046870 0.029264
v -0.021615 -0.044662 0.020260
v -0.016380 -0.041405 0.013337
v -0.007910 -0.038343 0.011138
v 0.000559 -0.036646 0.014503
v 0.005794 -0.036962 0.022148
v 0.005794 -0.039170 0.031152
v 0.000559 -0.042427 0.038076
v -0.051199 0.016223 0.045219
v -0.057366 0.013379 0.038908
v -0.061177 0.015403 0.030703
v -0.061177 0.021520 0.023738
v -0.057366 0.029396 0.020673
v -0.051199 0.036021 0.022679
v -0.045032 0.038864 0.028989
v -0.041221 0.036841 0.037194
v -0.041221 0.030723 0.044160
v -0.045032 0.022848 0.047225
v -0.001667 -0.020199 0.013229
v -0.007834 -0.023043 0.006918
v -0.011646 -0.021020 -0.001287
v -0.011646 -0.014902 -0.008252
v -0.007834 -0.007027 -0.011317
v -0.001667 -0.000402 -0.009311
v 0.004500 0.002442 -0.003001
v 0.008311 0.000419 0.005204
v 0.008311 -0.005699 0.012170
v 0.004500 -0.013574 0.015235
v 0.001328 -0.010300 0.016657
v -0.000069 -0.019077 0.014018
v -0.002076 -0.024501 0.006773
v -0.003927 -0.024501 -0.002311
v -0.004915 -0.019077 -0.009764
v -0.004662 -0.010300 -0.012739
v -0.003266 -0.001524 -0.010100
v -0.001259 0.003900 -0.002855
v 0.000592 0.003900 0.006229
v 0.001580 -0.001524 0.013682
v 0.014716 -0.011610 0.013929
v 0.013320 -0.020387 0.011289
v 0.011313 -0.025811 0.004044
v 0.009462 -0.025811 -0.005040
v 0.008474 -0.020387 -0.012492
v 0.008726 -0.011610 -0.015467
v 0.010123 -0.002834 -0.012828
v 0.012130 0.002590 -0.005583
v 0.013981 0.002590 0.003501
v 0.014969 -0.002834 0.010953
v 0.011721 0.000953 0.007425
v 0.006931 -0.005490 0.012060
v 0.003970 -0.014271 0.011794
v 0.003970 -0.022036 0.006730
v 0.006931 -0.025818 -0.001199
v 0.011721 -0.024174 -0.008964
v 0.016512 -0.017731 -0.013599
v 0.019472 -0.008950 -0.013333
v 0.019472 -0.001185 -0.008268
v 0.016512 0.002598 -0.000339
v 0.029638 -0.005381 0.017138
v 0.024848 -0.011825 0.021772
v 0.021887 -0.020606 0.021506
v 0.021887 -0.028370 0.016442
v 0.024848 -0.032153 0.008513
v 0.029638 -0.030509 0.000748
v 0.034429 -0.024066 -0.003886
v 0.037389 -0.015285 -0.003621
v 0.037389 -0.007520 0.001444
v 0.034429 -0.003737 0.009373
v 0.029638 -0.004627 0.015844
v 0.024878 -0.010585 0.021116
v 0.021936 -0.019355 0.021737
v 0.021936 -0.027586 0.017472
v 0.024878 -0.032134 0.009948
v 0.029638 -0.031263 0.002041
v 0.034399 -0.025305 -0.003230
v 0.037341 -0.016536 -0.003851
v 0.037341 -0.008305 0.000414
v 0.034399 -0.003756 0.007937
v 0.048439 -0.010176 0.026551
v 0.043679 -0.016134 0.031822
v 0.040737 -0.024903 0.032444
v 0.040737 -0.033134 0.028178
v 0.043679 -0.037683 0.020655
v 0.048439 -0.036812 0.012748
v 0.053199 -0.030853 0.007477
v 0.056141 -0.022084 0.006855
v 0.056141 -0.013853 0.011121
v 0.053199 -0.009305 0.018644
v -0.051199 0.014713 0.043688
v -0.057006 0.012585 0.036782
v -0.060595 0.015627 0.028794
v -0.060595 0.022678 0.022775
v -0.057006 0.031044 0.021024
v -0.051199 0.037530 0.024210
v -0.045392 0.039659 0.031116
v -0.041803 0.036616 0.039104
v -0.041803 0.029566 0.045123
v -0.045392 0.021199 0.046874
v -0.000674 -0.014001 0.010049
v -0.006481 -0.016129 0.003144
v -0.010070 -0.013087 -0.004844
v -0.010070 -0.006036 -0.010863
v -0.006481 0.002330 -0.012614
v -0.000674 0.008816 -0.009428
v 0.005133 0.010945 -0.002522
v 0.008722 0.007902 0.005466
v 0.008722 0.000851 0.011484
v 0.005133 -0.007515 0.013235
v 0.002964 -0.002592 0.014863
v 0.000319 -0.011177 0.012571
v -0.002705 -0.016483 0.005596
v -0.004953 -0.016483 -0.003397
v -0.005567 -0.011177 -0.010975
v -0.004312 -0.002592 -0.014241
v -0.001667 0.005992 -0.011950
v 0.001357 0.011298 -0.004975
v 0.003605 0.011298 0.004019
v 0.004219 0.005992 0.011596
v 0.023009 -0.007430 0.009852
v 0.020364 -0.016015 0.007560
v 0.017340 -0.021320 0.000586
v 0.015092 -0.021320 -0.008408
v 0.014478 -0.016015 -0.015986
v 0.015733 -0.007430 -0.019252
v 0.018378 0.001155 -0.016960
v 0.021402 0.006460 -0.009986
v 0.023650 0.006460 -0.000992
v 0.024264 0.001155 0.006585
v 0.019371 0.002352 0.006672
v 0.015133 -0.005378 0.009542
v 0.012513 -0.013891 0.006972
v 0.012513 -0.019936 -0.000057
v 0.015133 -0.021205 -0.008858
v 0.019371 -0.017212 -0.016072
v 0.023609 -0.009482 -0.018942
v 0.026229 -0.000969 -0.016372
v 0.026229 0.005076 -0.009343
v 0.023609 0.006345 -0.000542
v 0.041461 -0.006829 0.014569
v 0.037223 -0.014559 0.017439
v 0.034604 -0.023072 0.014869
v 0.034604 -0.029117 0.007841
v 0.037223 -0.030386 -0.000961
v 0.041461 -0.026393 -0.008175
v 0.045700 -0.018663 -0.011044
v 0.048319 -0.010150 -0.008474
v 0.048319 -0.004105 -0.001446
v 0.045700 -0.002836 0.007356
v 0.041461 -0.004567 0.012138
v 0.036707 -0.011293 0.016392
v 0.033769 -0.020050 0.015607
v 0.033769 -0.027494 0.010081
v 0.036707 -0.030781 0.001926
v 0.041461 -0.028655 -0.005744
v 0.046216 -0.021929 -0.009998
v 0.049154 -0.013172 -0.009212
v 0.049154 -0.005728 -0.003686
v 0.046216 -0.002441 0.004469
v 0.065456 -0.013725 0.024474
v 0.060702 -0.020451 0.028729
v 0.057764 -0.029208 0.027943
v 0.057764 -0.036652 0.022417
v 0.060702 -0.039939 0.014262
v 0.065456 -0.037813 0.006593
v 0.070211 -0.031087 0.002338
v 0.073149 -0.022330 0.003124
v 0.073149 -0.014886 0.008650
v 0.070211 -0.011599 0.016805
v -0.051199 0.013119 0.041427
v -0.056619 0.012135 0.033971
v -0.059969 0.016494 0.026507
v -0.059969 0.024530 0.021885
v -0.056619 0.033174 0.021871
v -0.051199 0.039125 0.026471
v -0.045779 0.040108 0.033927
v -0.042429 0.035749 0.041391
v -0.042429 0.027713 0.046013
v -0.045779 0.019069 0.046027
v 0.002767 -0.007854 0.004962
v -0.002654 -0.008837 -0.002494
v -0.006004 -0.004479 -0.009959
v -0.006004 0.003558 -0.014581
v -0.002654 0.012202 -0.014595
v 0.002767 0.018152 -0.009995
v 0.008187 0.019135 -0.002539
v 0.011537 0.014777 0.004926
v 0.011537 0.006740 0.009547
v 0.008187 -0.001904 0.009561
v 0.004914 0.005149 0.012329
v 0.002122 -0.003333 0.009838
v -0.000423 -0.008575 0.002628
v -0.001750 -0.008575 -0.006547
v -0.001351 -0.003333 -0.014183
v 0.000620 0.005149 -0.017362
v 0.003412 0.013631 -0.014871
v 0.005957 0.018873 -0.007662
v 0.007284 0.018873 0.001514
v 0.006885 0.013631 0.009149
v 0.017358 0.001582 0.010529
v 0.014566 -0.006900 0.008039
v 0.012021 -0.012142 0.000829
v 0.010694 -0.012142 -0.008346
v 0.011093 -0.006900 -0.015982
v 0.013064 0.001582 -0.019162
v 0.015856 0.010064 -0.016671
v 0.018401 0.015306 -0.009461
v 0.019728 0.015306 -0.000286
v 0.019329 0.010064 0.007350
v 0.012695 0.001582 0.010471
v 0.010740 -0.006882 0.007233
v 0.010493 -0.012113 -0.000417
v 0.012048 -0.012113 -0.009556
v 0.014811 -0.006882 -0.016694
v 0.017726 0.001582 -0.019104
v 0.019681 0.010045 -0.015865
v 0.019929 0.015276 -0.008215
v 0.018374 0.015276 0.000924
v 0.015611 0.010045 0.008062
v 0.038405 -0.006030 0.014845
v 0.036450 -0.014494 0.011607
v 0.036203 -0.019725 0.003957
v 0.037757 -0.019725 -0.005182
v 0.040520 -0.014494 -0.012320
v 0.043436 -0.006030 -0.014730
v 0.045391 0.002434 -0.011492
v 0.045638 0.007664 -0.003842
v 0.044084 0.007664 0.005297
v 0.041321 0.002434 0.012435
v 0.040921 0.006564 0.008205
v 0.035607 0.000338 0.012556
v 0.032323 -0.008322 0.012133
v 0.032323 -0.016105 0.007098
v 0.035607 -0.020041 -0.000627
v 0.040921 -0.018624 -0.008090
v 0.046234 -0.012398 -0.012441
v 0.049518 -0.003739 -0.012018
v 0.049518 0.004045 -0.006983
v 0.046234 0.007980 0.000742
v 0.061743 -0.001978 0.021409
v 0.056430 -0.008205 0.025761
v 0.053146 -0.016864 0.025338
v 0.053146 -0.024647 0.020302
v 0.056430 -0.028583 0.012578
v 0.061743 -0.027167 0.005115
v 0.067057 -0.020940 0.000763
v 0.070341 -0.012281 0.001186
v 0.070341 -0.004497 0.006222
v 0.067057 -0.000562 0.013946
v -0.051199 0.012318 0.039818
v -0.056222 0.012119 0.032029
v -0.059327 0.017269 0.024973
v -0.059327 0.025800 0.021346
v -0.056222 0.034455 0.022533
v -0.051199 0.039926 0.028080
v -0.046176 0.040125 0.035869
v -0.043071 0.034975 0.042925
v -0.043071 0.026443 0.046552
v -0.046176 0.017789 0.045365
v -0.003496 -0.000621 0.009385
v -0.008519 -0.000820 0.001596
v -0.011624 0.004330 -0.005460
v -0.011624 0.012861 -0.009087
v -0.008519 0.021515 -0.007901
v -0.003496 0.026987 -0.002353
v 0.001527 0.027186 0.005436
v 0.004631 0.022036 0.012492
v 0.004631 0.013504 0.016119
v 0.001527 0.004850 0.014932
v -0.000586 0.013183 0.018231
v 0.001358 0.004742 0.014926
v 0.001449 -0.000474 0.007263
v -0.000350 -0.000474 -0.001831
v -0.003350 0.004742 -0.008883
v -0.006406 0.013183 -0.011199
v -0.008351 0.021623 -0.007894
v -0.008441 0.026840 -0.000231
v -0.006642 0.026840 0.008863
v -0.003642 0.021623 0.015915
v 0.013255 0.017443 0.015493
v 0.015199 0.009003 0.012189
v 0.015290 0.003786 0.004526
v 0.013491 0.003786 -0.004569
v 0.010491 0.009003 -0.011621
v 0.007435 0.017443 -0.013937
v 0.005490 0.025884 -0.010632
v 0.005400 0.031100 -0.002969
v 0.007199 0.031100 0.006126
v 0.010199 0.025884 0.013178
v 0.008324 0.017443 0.015642
v 0.008568 0.008628 0.012784
v 0.009492 0.003179 0.005340
v 0.010741 0.003179 -0.003846
v 0.011839 0.008628 -0.011265
v 0.012366 0.017443 -0.014085
v 0.012121 0.026259 -0.011227
v 0.011198 0.031707 -0.003783
v 0.009949 0.031707 0.005403
v 0.008851 0.026259 0.012822
v 0.028395 0.017116 0.018371
v 0.028640 0.008300 0.015513
v 0.029563 0.002852 0.008070
v 0.030812 0.002852 -0.001116
v 0.031910 0.008300 -0.008536
v 0.032437 0.017116 -0.011355
v 0.032192 0.025931 -0.008497
v 0.031269 0.031380 -0.001054
v 0.030020 0.031380 0.008132
v 0.028922 0.025931 0.015552
v 0.025767 0.017116 0.017769
v 0.024688 0.008545 0.014405
v 0.025797 0.003248 0.006878
v 0.028670 0.003248 -0.001936
v 0.032210 0.008545 -0.008671
v 0.035065 0.017116 -0.010754
v 0.036144 0.025686 -0.007389
v 0.035035 0.030983 0.000138
v 0.032162 0.030983 0.008952
v 0.028622 0.025686 0.015687
v 0.040959 0.013259 0.022721
v 0.039880 0.004689 0.019356
v 0.040988 -0.000608 0.011829
v 0.043861 -0.000608 0.003015
v 0.047401 0.004689 -0.003719
v 0.050256 0.013259 -0.005802
v 0.051335 0.021830 -0.002437
v 0.050226 0.027127 0.005090
v 0.047353 0.027127 0.013904
v 0.043813 0.021830 0.020639
f 1 2 13
f 2 14 13
f 2 3 14
f 3 15 14
f 3 4 15
f 4 16 15
f 4 5 16
f 5 17 16
f 5 6 17
f 6 18 17
f 6 7 18
f 7 19 18
f 7 8 19
f 8 20 19
f 8 9 20
f 9 21 20
f 9 10 21
f 10 22 21
f 10 11 22
f 11 23 22
f 11 12 23
f 12 24 23
f 13 14 25
f 14 26 25
f 14 15 26
f 15 27 26
f 15 16 27
f 16 28 27
f 16 17 28
f 17 29 28
f 17 18 29
f 18 30 29
f 18 19 30
f 19 31 30
f 19 20 31
f 20 32 31
f 20 21 32
f 21 33 32
f 21 22 33
f 22 34 33
f 22 23 34
f 23 35 34
f 23 24 35
f 24 36 35
f 25 26 37
f 26 38 37
f 26 27 38
f 27 39 38
f 27 28 39
f 28 40 39
f 28 29 40
f 29 41 40
f 29 30 41
f 30 42 41
f 30 31 42
f 31 43 42
f 31 32 43
f 32 44 43
f 32 33 44
f 33 45 44
f 33 34 45
f 34 46 45
f 34 35 46
f 35 47 46
f 35 36 47
f 36 48 47
f 37 38 49
f 38 50 49
f 38 39 50
f 39 51 50
f 39 40 51
f 40 52 51
f 40 41 52
f 41 53 52
f 41 42 53
f 42 54 53
f 42 43 54
f 43 55 54
f 43 44 55
f 44 56 55
f 44 45 56
f 45 57 56
f 45 46 57
f 46 58 57
f 46 47 58
f 47 59 58
f 47 48 59
f 48 60 59
f 49 50 61
f 50 62 61
f 50 51 62
f 51 63 62
f 51 52 63
f 52 64 63
f 52 53 64
f 53 65 64
f 53 54 65
f 54 66 65
f 54 55 66
f 55 67 66
f 55 56 67
f 56 68 67
f 56 57 68
f 57 69 68
f 57 58 69
f 58 70 69
f 58 59 70
f 59 71 70
f 59 60 71
f 60 72 71
f 61 62 73
f 62 74 73
f 62 63 74
f 63 75 74
f 63 64 75
f 64 76 75
f 64 65 76
f 65 77 76
f 65 66 77
f 66 78 77
f 66 67 78
f 67 79 78
f 67 68 79
f 68 80 79
f 68 69 80
f 69 81 80
f 69 70 81
f 70 82 81
f 70 71 82
f 71 83 82
f 71 72 83
f 72 84 83
f 73 74 85
f 74 86 85
f 74 75 86
f 75 87 86
f 75 76 87
f 76 88 87
f 76 77 88
f 77 89 88
f 77 78 89
f 78 90 89
f 78 79 90
f 79 91 90
f 79 80 91
f 80 92 91
f 80 81 92
f 81 93 92
f 81 82 93
f 82 94 93
f 82 83 94
f 83 95 94
f 83 84 95
f 84 96 95
f 85 86 97
f 86 98 97
f 86 87 98
f 87 99 98
f 87 88 99
f 88 100 99
f 88 89 100
f 89 101 100
f 89 90 101
f 90 102 101
f 90 91 102
f 91 103 102
f 91 92 103
f 92 104 103
f 92 93 104
f 93 105 104
f 93 94 105
f 94 106 105
f 94 95 106
f 95 107 106
f 95 96 107
f 96 108 107
f 97 98 109
f 98 110 109
f 98 99 110
f 99 111 110
f 99 100 111
f 100 112 111
f 100 101 112
f 101 113 112
f 101 102 113
f 102 114 113
f 102 103 114
f 103 115 114
f 103 104 115
f 104 116 115
f 104 105 116
f 105 117 116
f 105 106 117
f 106 118 117
f 106 107 118
f 107 119 118
f 107 108 119
f 108 120 119
f 109 110 121
f 110 122 121
f 110 111 122
f 111 123 122
f 111 112 123
f 112 124 123
f 112 113 124
f 113 125 124
f 113 114 125
f 114 126 125
f 114 115 126
f 115 127 126
f 115 116 127
f 116 128 127
f 116 117 128
f 117 129 128
f 117 118 129
f 118 130 129
f 118 119 130
f 119 131 130
f 119 120 131
f 120 132 131
f 121 122 133
f 122 134 133
f 122 123 134
f 123 135 134
f 123 124 135
f 124 136 135
f 124 125 136
f 125 137 136
f 125 126 137
f 126 138 137
f 126 127 138
f 127 139 138
f 127 128 139
f 128 140 139
f 128 129 140
f 129 141 140
f 129 130 141
f 130 142 141
f 130 131 142
f 131 143 142
f 131 132 143
f 132 144 143
f 145 146 155
f 146 156 155
f 146 147 156
f 147 157 156
f 147 148 157
f 148 158 157
f 148 149 158
f 149 159 158
f 149 150 159
f 150 160 159
f 150 151 160
f 151 161 160
f 151 152 161
f 152 162 161
f 152 153 162
f 153 163 162
f 153 154 163
f 154 164 163
f 154 145 164
f 145 155 164
f 165 166 175
f 166 176 175
f 166 167 176
f 167 177 176
f 167 168 177
f 168 178 177
f 168 169 178
f 169 179 178
f 169 170 179
f 170 180 179
f 170 171 180
f 171 181 180
f 171 172 181
f 172 182 181
f 172 173 182
f 173 183 182
f 173 174 183
f 174 184 183
f 174 165 184
f 165 175 184
f 185 186 195
f 186 196 195
f 186 187 196
f 187 197 196
f 187 188 197
f 188 198 197
f 188 189 198
f 189 199 198
f 189 190 199
f 190 200 199
f 190 191 200
f 191 201 200
f 191 192 201
f 192 202 201
f 192 193 202
f 193 203 202
f 193 194 203
f 194 204 203
f 194 185 204
f 185 195 204
f 205 206 215
f 206 216 215
f 206 207 216
f 207 217 216
f 207 208 217
f 208 218 217
f 208 209 218
f 209 219 218
f 209 210 219
f 210 220 219
f 210 211 220
f 211 221 220
f 211 212 221
f 212 222 221
f 212 213 222
f 213 223 222
f 213 214 223
f 214 224 223
f 214 205 224
f 205 215 224
f 225 226 235
f 226 236 235
f 226 227 236
f 227 237 236
f 227 228 237
f 228 238 237
f 228 229 238
f 229 239 238
f 229 230 239
f 230 240 239
f 230 231 240
f 231 241 240
f 231 232 241
f 232 242 241
f 232 233 242
f 233 243 242
f 233 234 243
f 234 244 243
f 234 225 244
f 225 235 244
f 245 246 255
f 246 256 255
f 246 247 256
f 247 257 256
f 247 248 257
f 248 258 257
f 248 249 258
f 249 259 258
f 249 250 259
f 250 260 259
f 250 251 260
f 251 261 260
f 251 252 261
f 252 262 261
f 252 253 262
f 253 263 262
f 253 254 263
f 254 264 263
f 254 245 264
f 245 255 264
f 265 266 275
f 266 276 275
f 266 267 276
f 267 277 276
f 267 268 277
f 268 278 277
f 268 269 278
f 269 279 278
f 269 270 279
f 270 280 279
f 270 271 280
f 271 281 280
f 271 272 281
f 272 282 281
f 272 273 282
f 273 283 282
f 273 274 283
f 274 284 283
f 274 265 284
f 265 275 284
f 285 286 295
f 286 296 295
f 286 287 296
f 287 297 296
f 287 288 297
f 288 298 297
f 288 289 298
f 289 299 298
f 289 290 299
f 290 300 299
f 290 291 300
f 291 301 300
f 291 292 301
f 292 302 301
f 292 293 302
f 293 303 302
f 293 294 303
f 294 304 303
f 294 285 304
f 285 295 304
f 305 306 315
f 306 316 315
f 306 307 316
f 307 317 316
f 307 308 317
f 308 318 317
f 308 309 318
f 309 319 318
f 309 310 319
f 310 320 319
f 310 311 320
f 311 321 320
f 311 312 321
f 312 322 321
f 312 313 322
f 313 323 322
f 313 314 323
f 314 324 323
f 314 305 324
f 305 315 324
f 325 326 335
f 326 336 335
f 326 327 336
f 327 337 336
f 327 328 337
f 328 338 337
f 328 329 338
f 329 339 338
f 329 330 339
f 330 340 339
f 330 331 340
f 331 341 340
f 331 332 341
f 332 342 341
f 332 333 342
f 333 343 342
f 333 334 343
f 334 344 343
f 334 325 344
f 325 335 344
f 345 346 355
f 346 356 355
f 346 347 356
f 347 357 356
f 347 348 357
f 348 358 357
f 348 349 358
f 349 359 358
f 349 350 359
f 350 360 359
f 350 351 360
f 351 361 360
f 351 352 361
f 352 362 361
f 352 353 362
f 353 363 362
f 353 354 363
f 354 364 363
f 354 345 364
f 345 355 364
f 365 366 375
f 366 376 375
f 366 367 376
f 367 377 376
f 367 368 377
f 368 378 377
f 368 369 378
f 369 379 378
f 369 370 379
f 370 380 379
f 370 371 380
f 371 381 380
f 371 372 381
f 372 382 381
f 372 373 382
f 373 383 382
f 373 374 383
f 374 384 383
f 374 365 384
f 365 375 384
f 385 386 395
f 386 396 395
f 386 387 396
f 387 397 396
f 387 388 397
f 388 398 397
f 388 389 398
f 389 399 398
f 389 390 399
f 390 400 399
f 390 391 400
f 391 401 400
f 391 392 401
f 392 402 401
f 392 393 402
f 393 403 402
f 393 394 403
f 394 404 403
f 394 385 404
f 385 395 404
f 405 406 415
f 406 416 415
f 406 407 416
f 407 417 416
f 407 408 417
f 408 418 417
f 408 409 418
f 409 419 418
f 409 410 419
f 410 420 419
f 410 411 420
f 411 421 420
f 411 412 421
f 412 422 421
f 412 413 422
f 413 423 422
f 413 414 423
f 414 424 423
f 414 405 424
f 405 415 424
f 425 426 435
f 426 436 435
f 426 427 436
f 427 437 436
f 427 428 437
f 428 438 437
f 428 429 438
f 429 439 438
f 429 430 439
f 430 440 439
f 430 431 440
f 431 441 440
f 431 432 441
f 432 442 441
f 432 433 442
f 433 443 442
f 433 434 443
f 434 444 443
f 434 425 444
f 425 435 444
f 445 446 455
f 446 456 455
f 446 447 456
f 447 457 456
f 447 448 457
f 448 458 457
f 448 449 458
f 449 459 458
f 449 450 459
f 450 460 459
f 450 451 460
f 451 461 460
f 451 452 461
f 452 462 461
f 452 453 462
f 453 463 462
f 453 454 463
f 454 464 463
f 454 445 464
f 445 455 464
f 465 466 475
f 466 476 475
f 466 467 476
f 467 477 476
f 467 468 477
f 468 478 477
f 468 469 478
f 469 479 478
f 469 470 479
f 470 480 479
f 470 471 480
f 471 481 480
f 471 472 481
f 472 482 481
f 472 473 482
f 473 483 482
f 473 474 483
f 474 484 483
f 474 465 484
f 465 475 484
f 485 486 495
f 486 496 495
f 486 487 496
f 487 497 496
f 487 488 497
f 488 498 497
f 488 489 498
f 489 499 498
f 489 490 499
f 490 500 499
f 490 491 500
f 491 501 500
f 491 492 501
f 492 502 501
f 492 493 502
f 493 503 502
f 493 494 503
f 494 504 503
f 494 485 504
f 485 495 504
f 505 506 515
f 506 516 515
f 506 507 516
f 507 517 516
f 507 508 517
f 508 518 517
f 508 509 518
f 509 519 518
f 509 510 519
f 510 520 519
f 510 511 520
f 511 521 520
f 511 512 521
f 512 522 521
f 512 513 522
f 513 523 522
f 513 514 523
f 514 524 523
f 514 505 524
f 505 515 524
f 525 526 535
f 526 536 535
f 526 527 536
f 527 537 536
f 527 528 537
f 528 538 537
f 528 529 538
f 529 539 538
f 529 530 539
f 530 540 539
f 530 531 540
f 531 541 540
f 531 532 541
f 532 542 541
f 532 533 542
f 533 543 542
f 533 534 543
f 534 544 543
f 534 525 544
f 525 535 544
f 545 546 555
f 546 556 555
f 546 547 556
f 547 557 556
f 547 548 557
f 548 558 557
f 548 549 558
f 549 559 558
f 549 550 559
f 550 560 559
f 550 551 560
f 551 561 560
f 551 552 561
f 552 562 561
f 552 553 562
f 553 563 562
f 553 554 563
f 554 564 563
f 554 545 564
f 545 555 564
f 565 566 575
f 566 576 575
f 566 567 576
f 567 577 576
f 567 568 577
f 568 578 577
f 568 569 578
f 569 579 578
f 569 570 579
f 570 580 579
f 570 571 580
f 571 581 580
f 571 572 581
f 572 582 581
f 572 573 582
f 573 583 582
f 573 574 583
f 574 584 583
f 574 565 584
f 565 575 584
f 585 586 595
f 586 596 595
f 586 587 596
f 587 597 596
f 587 588 597
f 588 598 597
f 588 589 598
f 589 599 598
f 589 590 599
f 590 600 599
f 590 591 600
f 591 601 600
f 591 592 601
f 592 602 601
f 592 593 602
f 593 603 602
f 593 594 603
f 594 604 603
f 594 585 604
f 585 595 604
f 605 606 615
f 606 616 615
f 606 607 616
f 607 617 616
f 607 608 617
f 608 618 617
f 608 609 618
f 609 619 618
f 609 610 619
f 610 620 619
f 610 611 620
f 611 621 620
f 611 612 621
f 612 622 621
f 612 613 622
f 613 623 622
f 613 614 623
f 614 624 623
f 614 605 624
f 605 615 624
f 625 626 635
f 626 636 635
f 626 627 636
f 627 637 636
f 627 628 637
f 628 638 637
f 628 629 638
f 629 639 638
f 629 630 639
f 630 640 639
f 630 631 640
f 631 641 640
f 631 632 641
f 632 642 641
f 632 633 642
f 633 643 642
f 633 634 643
f 634 644 643
f 634 625 644
f 625 635 644
f 645 646 655
f 646 656 655
f 646 647 656
f 647 657 656
f 647 648 657
f 648 658 657
f 648 649 658
f 649 659 658
f 649 650 659
f 650 660 659
f 650 651 660
f 651 661 660
f 651 652 661
f 652 662 661
f 652 653 662
f 653 663 662
f 653 654 663
f 654 664 663
f 654 645 664
f 645 655 664
f 665 666 675
f 666 676 675
f 666 667 676
f 667 677 676
f 667 668 677
f 668 678 677
f 668 669 678
f 669 679 678
f 669 670 679
f 670 680 679
f 670 671 680
f 671 681 680
f 671 672 681
f 672 682 681
f 672 673 682
f 673 683 682
f 673 674 683
f 674 684 683
f 674 665 684
f 665 675 684
f 685 686 695
f 686 696 695
f 686 687 696
f 687 697 696
f 687 688 697
f 688 698 697
f 688 689 698
f 689 699 698
f 689 690 699
f 690 700 699
f 690 691 700
f 691 701 700
f 691 692 701
f 692 702 701
f 692 693 702
f 693 703 702
f 693 694 703
f 694 704 703
f 694 685 704
f 685 695 704
f 705 706 715
f 706 716 715
f 706 707 716
f 707 717 716
f 707 708 717
f 708 718 717
f 708 709 718
f 709 719 718
f 709 710 719
f 710 720 719
f 710 711 720
f 711 721 720
f 711 712 721
f 712 722 721
f 712 713 722
f 713 723 722
f 713 714 723
f 714 724 723
f 714 705 724
f 705 715 724
f 725 726 735
f 726 736 735
f 726 727 736
f 727 737 736
f 727 728 737
f 728 738 737
f 728 729 738
f 729 739 738
f 729 730 739
f 730 740 739
f 730 731 740
f 731 741 740
f 731 732 741
f 732 742 741
f 732 733 742
f 733 743 742
f 733 734 743
f 734 744 743
f 734 725 744
f 725 735 744
f 745 746 755
f 746 756 755
f 746 747 756
f 747 757 756
f 747 748 757
f 748 758 757
f 748 749 758
f 749 759 758
f 749 750 759
f 750 760 759
f 750 751 760
f 751 761 760
f 751 752 761
f 752 762 761
f 752 753 762
f 753 763 762
f 753 754 763
f 754 764 763
f 754 745 764
f 745 755 764
f 765 766 775
f 766 776 775
f 766 767 776
f 767 777 776
f 767 768 777
f 768 778 777
f 768 769 778
f 769 779 778
f 769 770 779
f 770 780 779
f 770 771 780
f 771 781 780
f 771 772 781
f 772 782 781
f 772 773 782
f 773 783 782
f 773 774 783
f 774 784 783
f 774 765 784
f 765 775 784
