# Full-Body 3D Mesh - Frame 16
v 0.013532 -0.608401 -0.188444
v 0.047340 -0.608401 -0.193305
v 0.078409 -0.608401 -0.207494
v 0.104222 -0.608401 -0.229861
v 0.122688 -0.608401 -0.258594
v 0.132311 -0.608401 -0.291366
v 0.132311 -0.608401 -0.325522
v 0.122688 -0.608401 -0.358294
v 0.104222 -0.608401 -0.387028
v 0.078409 -0.608401 -0.409395
v 0.047340 -0.608401 -0.423583
v 0.013532 -0.608401 -0.428444
v 0.013532 -0.608401 -0.188444
v 0.041973 -0.590123 -0.193305
v 0.068110 -0.573326 -0.207494
v 0.089825 -0.559370 -0.229861
v 0.105360 -0.549387 -0.258594
v 0.113455 -0.544185 -0.291366
v 0.113455 -0.544185 -0.325522
v 0.105360 -0.549387 -0.358294
v 0.089825 -0.559370 -0.387028
v 0.068110 -0.573326 -0.409395
v 0.041973 -0.590123 -0.423583
v 0.013532 -0.608401 -0.428444
v 0.013532 -0.608401 -0.188444
v 0.027576 -0.577648 -0.193305
v 0.040483 -0.549387 -0.207494
v 0.051206 -0.525907 -0.229861
v 0.058877 -0.509109 -0.258594
v 0.062874 -0.500356 -0.291366
v 0.062874 -0.500356 -0.325522
v 0.058877 -0.509109 -0.358294
v 0.051206 -0.525907 -0.387028
v 0.040483 -0.549387 -0.409395
v 0.027576 -0.577648 -0.423583
v 0.013532 -0.608401 -0.428444
v 0.013532 -0.608401 -0.188444
v 0.008721 -0.574937 -0.193305
v 0.004299 -0.544185 -0.207494
v 0.000626 -0.518634 -0.229861
v -0.002002 -0.500356 -0.258594
v -0.003372 -0.490831 -0.291366
v -0.003372 -0.490831 -0.325522
v -0.002002 -0.500356 -0.358294
v 0.000626 -0.518634 -0.387028
v 0.004299 -0.544185 -0.409395
v 0.008721 -0.574937 -0.423583
v 0.013532 -0.608401 -0.428444
v 0.013532 -0.608401 -0.188444
v -0.008607 -0.582851 -0.193305
v -0.028953 -0.559370 -0.207494
v -0.045857 -0.539862 -0.229861
v -0.057950 -0.525907 -0.258594
v -0.064251 -0.518634 -0.291366
v -0.064251 -0.518634 -0.325522
v -0.057950 -0.525907 -0.358294
v -0.045857 -0.539862 -0.387028
v -0.028953 -0.559370 -0.409395
v -0.008607 -0.582851 -0.423583
v 0.013532 -0.608401 -0.428444
v 0.013532 -0.608401 -0.188444
v -0.018906 -0.598876 -0.193305
v -0.048717 -0.590123 -0.207494
v -0.073484 -0.582851 -0.229861
v -0.091202 -0.577648 -0.258594
v -0.100435 -0.574937 -0.291366
v -0.100435 -0.574937 -0.325522
v -0.091202 -0.577648 -0.358294
v -0.073484 -0.582851 -0.387028
v -0.048717 -0.590123 -0.409395
v -0.018906 -0.598876 -0.423583
v 0.013532 -0.608401 -0.428444
v 0.013532 -0.608401 -0.188444
v -0.018906 -0.617926 -0.193305
v -0.048717 -0.626679 -0.207494
v -0.073484 -0.633951 -0.229861
v -0.091202 -0.639154 -0.258594
v -0.100435 -0.641865 -0.291366
v -0.100435 -0.641865 -0.325522
v -0.091202 -0.639154 -0.358294
v -0.073484 -0.633951 -0.387028
v -0.048717 -0.626679 -0.409395
v -0.018906 -0.617926 -0.423583
v 0.013532 -0.608401 -0.428444
v 0.013532 -0.608401 -0.188444
v -0.008607 -0.633951 -0.193305
v -0.028953 -0.657432 -0.207494
v -0.045857 -0.676940 -0.229861
v -0.057950 -0.690896 -0.258594
v -0.064251 -0.698168 -0.291366
v -0.064251 -0.698168 -0.325522
v -0.057950 -0.690896 -0.358294
v -0.045857 -0.676940 -0.387028
v -0.028953 -0.657432 -0.409395
v -0.008607 -0.633951 -0.423583
v 0.013532 -0.608401 -0.428444
v 0.013532 -0.608401 -0.188444
v 0.008721 -0.641865 -0.193305
v 0.004299 -0.672618 -0.207494
v 0.000626 -0.698168 -0.229861
v -0.002002 -0.716446 -0.258594
v -0.003372 -0.725971 -0.291366
v -0.003372 -0.725971 -0.325522
v -0.002002 -0.716446 -0.358294
v 0.000626 -0.698168 -0.387028
v 0.004299 -0.672618 -0.409395
v 0.008721 -0.641865 -0.423583
v 0.013532 -0.608401 -0.428444
v 0.013532 -0.608401 -0.188444
v 0.027576 -0.639154 -0.193305
v 0.040483 -0.667415 -0.207494
v 0.051206 -0.690896 -0.229861
v 0.058877 -0.707693 -0.258594
v 0.062874 -0.716446 -0.291366
v 0.062874 -0.716446 -0.325522
v 0.058877 -0.707693 -0.358294
v 0.051206 -0.690896 -0.387028
v 0.040483 -0.667415 -0.409395
v 0.027576 -0.639154 -0.423583
v 0.013532 -0.608401 -0.428444
v 0.013532 -0.608401 -0.188444
v 0.041973 -0.626679 -0.193305
v 0.068110 -0.643476 -0.207494
v 0.089825 -0.657432 -0.229861
v 0.105360 -0.667415 -0.258594
v 0.113455 -0.672618 -0.291366
v 0.113455 -0.672618 -0.325522
v 0.105360 -0.667415 -0.358294
v 0.089825 -0.657432 -0.387028
v 0.068110 -0.643476 -0.409395
v 0.041973 -0.626679 -0.423583
v 0.013532 -0.608401 -0.428444
v 0.013532 -0.608401 -0.188444
v 0.047340 -0.608401 -0.193305
v 0.078409 -0.608401 -0.207494
v 0.104222 -0.608401 -0.229861
v 0.122688 -0.608401 -0.258594
v 0.132311 -0.608401 -0.291366
v 0.132311 -0.608401 -0.325522
v 0.122688 -0.608401 -0.358294
v 0.104222 -0.608401 -0.387028
v 0.078409 -0.608401 -0.409395
v 0.047340 -0.608401 -0.423583
v 0.013532 -0.608401 -0.428444
v 0.163474 -0.433252 -0.128145
v 0.163231 -0.456762 -0.120508
v 0.162259 -0.471293 -0.100531
v 0.160927 -0.471293 -0.075846
v 0.159746 -0.456762 -0.055880
v 0.159167 -0.433252 -0.048261
v 0.159409 -0.409741 -0.055898
v 0.160382 -0.395210 -0.075875
v 0.161713 -0.395210 -0.100560
v 0.162894 -0.409741 -0.120526
v -0.150369 -0.435507 -0.145069
v -0.150612 -0.459018 -0.137431
v -0.151584 -0.473549 -0.117455
v -0.152915 -0.473549 -0.092769
v -0.154096 -0.459018 -0.072804
v -0.154676 -0.435507 -0.065185
v -0.154433 -0.411996 -0.072822
v -0.153461 -0.397466 -0.092799
v -0.152130 -0.397466 -0.117484
v -0.150948 -0.411996 -0.137450
v 0.161320 -0.448737 -0.125084
v 0.137889 -0.443998 -0.118789
v 0.123407 -0.435154 -0.100810
v 0.123407 -0.425583 -0.078017
v 0.137889 -0.418942 -0.059114
v 0.161320 -0.417766 -0.051322
v 0.184752 -0.422506 -0.057617
v 0.199234 -0.431350 -0.075596
v 0.199234 -0.440920 -0.098389
v 0.184752 -0.447561 -0.117292
v 0.182085 -0.216609 -0.222548
v 0.158653 -0.211869 -0.216252
v 0.144172 -0.203026 -0.198274
v 0.144172 -0.193455 -0.175480
v 0.158653 -0.186814 -0.156578
v 0.182085 -0.185638 -0.148786
v 0.205517 -0.190378 -0.155081
v 0.219999 -0.199222 -0.173059
v 0.219999 -0.208792 -0.195853
v 0.205517 -0.215433 -0.214756
v 0.182085 -0.239196 -0.173401
v 0.158835 -0.230852 -0.172413
v 0.144466 -0.211153 -0.176488
v 0.144466 -0.187622 -0.184069
v 0.158835 -0.169249 -0.192260
v 0.182085 -0.163051 -0.197933
v 0.205335 -0.171395 -0.198921
v 0.219704 -0.191095 -0.194846
v 0.219704 -0.214625 -0.187265
v 0.205335 -0.232998 -0.179073
v 0.140962 -0.322992 -0.433491
v 0.117713 -0.314648 -0.432503
v 0.103344 -0.294948 -0.436578
v 0.103344 -0.271418 -0.444159
v 0.117713 -0.253044 -0.452350
v 0.140962 -0.246846 -0.458023
v 0.164212 -0.255190 -0.459011
v 0.178581 -0.274890 -0.454936
v 0.178581 -0.298420 -0.447355
v 0.164212 -0.316793 -0.439164
v -0.152522 -0.448782 -0.142860
v -0.175547 -0.450738 -0.134073
v -0.189777 -0.446876 -0.114230
v -0.189777 -0.438672 -0.090910
v -0.175547 -0.429259 -0.073020
v -0.152522 -0.422233 -0.067394
v -0.129498 -0.420277 -0.076180
v -0.115268 -0.424138 -0.096023
v -0.115268 -0.432342 -0.119343
v -0.129498 -0.441755 -0.137233
v -0.205479 -0.207198 -0.227850
v -0.228504 -0.209154 -0.219063
v -0.242733 -0.205292 -0.199220
v -0.242733 -0.197088 -0.175900
v -0.228504 -0.187675 -0.158010
v -0.205479 -0.180648 -0.152384
v -0.182455 -0.178692 -0.161170
v -0.168225 -0.182554 -0.181013
v -0.168225 -0.190758 -0.204333
v -0.182455 -0.200171 -0.222223
v -0.205479 -0.231561 -0.176576
v -0.228066 -0.226583 -0.185305
v -0.242026 -0.209130 -0.195872
v -0.242026 -0.185868 -0.204241
v -0.228066 -0.165683 -0.207215
v -0.205479 -0.156285 -0.203658
v -0.182893 -0.161263 -0.194928
v -0.168933 -0.178716 -0.184361
v -0.168933 -0.201978 -0.175992
v -0.182893 -0.222163 -0.173018
v -0.139681 -0.308623 -0.390772
v -0.162267 -0.303645 -0.399501
v -0.176227 -0.286191 -0.410068
v -0.176227 -0.262930 -0.418437
v -0.162267 -0.242745 -0.421411
v -0.139681 -0.233346 -0.417854
v -0.117094 -0.238324 -0.409125
v -0.103134 -0.255777 -0.398557
v -0.103134 -0.279039 -0.390188
v -0.117094 -0.299224 -0.387215
v 0.161320 -0.422858 -0.126829
v 0.137900 -0.426834 -0.119988
v 0.123425 -0.433262 -0.101006
v 0.123425 -0.439686 -0.077134
v 0.137900 -0.443652 -0.057490
v 0.161320 -0.443645 -0.049577
v 0.184741 -0.439669 -0.056418
v 0.199216 -0.433241 -0.075400
v 0.199216 -0.426818 -0.099272
v 0.184741 -0.422852 -0.118916
v 0.121828 0.010248 -0.010286
v 0.098407 0.006271 -0.003445
v 0.083932 -0.000156 0.015536
v 0.083932 -0.006580 0.039409
v 0.098407 -0.010546 0.059053
v 0.121828 -0.010540 0.066966
v 0.145248 -0.006563 0.060125
v 0.159723 -0.000136 0.041143
v 0.159723 0.006288 0.017271
v 0.145248 0.010254 -0.002374
v -0.152522 -0.428045 -0.144424
v -0.175972 -0.427800 -0.136602
v -0.190465 -0.430498 -0.116757
v -0.190465 -0.435110 -0.092470
v -0.175972 -0.439874 -0.073017
v -0.152522 -0.442970 -0.065829
v -0.129073 -0.443215 -0.073651
v -0.114580 -0.440516 -0.093496
v -0.114580 -0.435904 -0.117784
v -0.129073 -0.431141 -0.137237
v -0.121450 -0.007034 -0.064478
v -0.144899 -0.006789 -0.056655
v -0.159392 -0.009487 -0.036810
v -0.159392 -0.014099 -0.012523
v -0.144899 -0.018863 0.006930
v -0.121450 -0.021959 0.014118
v -0.098000 -0.022204 0.006295
v -0.083507 -0.019505 -0.013550
v -0.083507 -0.014893 -0.037837
v -0.098000 -0.010130 -0.057290
v 0.130422 -0.000146 -0.010726
v 0.130101 -0.023619 -0.002975
v 0.126620 -0.038125 0.016738
v 0.121309 -0.038125 0.040882
v 0.116195 -0.023619 0.060235
v 0.113233 -0.000146 0.067405
v 0.113554 0.023326 0.059654
v 0.117035 0.037833 0.039942
v 0.122347 0.037833 0.015798
v 0.127460 0.023326 -0.003556
v -0.112855 -0.014496 -0.064246
v -0.113176 -0.037969 -0.056494
v -0.116657 -0.052476 -0.036782
v -0.121968 -0.052476 -0.012638
v -0.127082 -0.037969 0.006715
v -0.130044 -0.014496 0.013886
v -0.129723 0.008976 0.006134
v -0.126242 0.023483 -0.013578
v -0.120931 0.023483 -0.037722
v -0.115817 0.008976 -0.057076
v 0.121828 -0.012740 -0.009626
v 0.098415 -0.012379 -0.001697
v 0.083945 -0.007346 0.017705
v 0.083945 0.000437 0.041169
v 0.098415 0.007998 0.059733
v 0.121828 0.012448 0.066305
v 0.145240 0.012087 0.058376
v 0.159710 0.007054 0.038974
v 0.159710 -0.000730 0.015510
v 0.145240 -0.008290 -0.003054
v 0.106605 0.144294 -0.061716
v 0.083193 0.144654 -0.053787
v 0.068723 0.149687 -0.034385
v 0.068723 0.157471 -0.010921
v 0.083193 0.165031 0.007643
v 0.106605 0.169481 0.014216
v 0.130018 0.169120 0.006287
v 0.144488 0.164087 -0.013115
v 0.144488 0.156304 -0.036579
v 0.130018 0.148743 -0.055143
v 0.106605 0.179106 -0.057012
v 0.083172 0.176454 -0.049596
v 0.068689 0.166328 -0.032308
v 0.068689 0.152596 -0.011752
v 0.083172 0.140503 0.004222
v 0.106605 0.134669 0.009512
v 0.130039 0.137321 0.002096
v 0.144521 0.147446 -0.015192
v 0.144521 0.161178 -0.035748
v 0.130039 0.173271 -0.051722
v 0.131660 0.434216 0.113400
v 0.108226 0.431564 0.120816
v 0.093744 0.421438 0.138104
v 0.093744 0.407706 0.158660
v 0.108226 0.395613 0.174634
v 0.131660 0.389778 0.179924
v 0.155093 0.392430 0.172508
v 0.169576 0.402556 0.155220
v 0.169576 0.416288 0.134664
v 0.155093 0.428381 0.118690
v -0.121450 -0.053982 -0.018787
v -0.144810 -0.046867 -0.022637
v -0.159247 -0.027387 -0.027459
v -0.159247 -0.002983 -0.031409
v -0.144810 0.017023 -0.032981
v -0.121450 0.024990 -0.031573
v -0.098089 0.017874 -0.027723
v -0.083652 -0.001606 -0.022901
v -0.083652 -0.026009 -0.018951
v -0.098089 -0.046015 -0.017379
v -0.099436 -0.084840 -0.209389
v -0.122796 -0.077724 -0.213239
v -0.137233 -0.058245 -0.218060
v -0.137233 -0.033841 -0.222011
v -0.122796 -0.013835 -0.223582
v -0.099436 -0.005868 -0.222174
v -0.076075 -0.012984 -0.218324
v -0.061638 -0.032464 -0.213503
v -0.061638 -0.056867 -0.209552
v -0.076075 -0.076873 -0.207980
v -0.099436 -0.046038 -0.255775
v -0.122726 -0.042693 -0.248192
v -0.137121 -0.040364 -0.228229
v -0.137121 -0.039942 -0.203511
v -0.122726 -0.041587 -0.183480
v -0.099436 -0.044670 -0.175787
v -0.076145 -0.048015 -0.183370
v -0.061751 -0.050344 -0.203333
v -0.061751 -0.050766 -0.228051
v -0.076145 -0.049121 -0.248082
v -0.064487 0.207124 -0.260102
v -0.087778 0.210469 -0.252519
v -0.102172 0.212797 -0.232556
v -0.102172 0.213219 -0.207838
v -0.087778 0.211575 -0.187807
v -0.064487 0.208491 -0.180114
v -0.041197 0.205146 -0.187697
v -0.026802 0.202818 -0.207660
v -0.026802 0.202395 -0.232378
v -0.041197 0.204040 -0.252409
v -0.023274 0.020397 0.088643
v -0.032044 0.022828 0.086877
v -0.037464 0.027734 0.081177
v -0.037464 0.033243 0.073721
v -0.032044 0.037249 0.067356
v -0.023274 0.038224 0.064514
v -0.014504 0.035793 0.066280
v -0.009083 0.030887 0.071980
v -0.009083 0.025378 0.079437
v -0.014504 0.021371 0.085801
v -0.026646 -0.005882 0.069229
v -0.035416 -0.003451 0.067463
v -0.040836 0.001455 0.061763
v -0.040836 0.006964 0.054307
v -0.035416 0.010971 0.047942
v -0.026646 0.011945 0.045100
v -0.017876 0.009514 0.046866
v -0.012455 0.004608 0.052566
v -0.012455 -0.000901 0.060022
v -0.017876 -0.004907 0.066387
v -0.026646 -0.006204 0.068984
v -0.035311 -0.005725 0.065723
v -0.040666 -0.001901 0.059193
v -0.040666 0.003807 0.051888
v -0.035311 0.009219 0.046599
v -0.026646 0.012268 0.045345
v -0.017981 0.011788 0.048606
v -0.012626 0.007964 0.055136
v -0.012626 0.002256 0.062441
v -0.017981 -0.003156 0.067730
v -0.021919 -0.026004 0.053511
v -0.030583 -0.025525 0.050250
v -0.035939 -0.021701 0.043720
v -0.035939 -0.015992 0.036416
v -0.030583 -0.010581 0.031126
v -0.021919 -0.007532 0.029873
v -0.013254 -0.008012 0.033134
v -0.007899 -0.011836 0.039664
v -0.007899 -0.017544 0.046968
v -0.013254 -0.022956 0.052258
v -0.021919 -0.030084 0.048599
v -0.030399 -0.026430 0.049420
v -0.035641 -0.019086 0.047290
v -0.035641 -0.010857 0.043021
v -0.030399 -0.004886 0.038245
v -0.021919 -0.003453 0.034785
v -0.013438 -0.007106 0.033964
v -0.008197 -0.014450 0.036094
v -0.008197 -0.022680 0.040363
v -0.013438 -0.028651 0.045139
v -0.029969 -0.043120 0.023467
v -0.038450 -0.039466 0.024289
v -0.043691 -0.032123 0.022159
v -0.043691 -0.023893 0.017890
v -0.038450 -0.017922 0.013113
v -0.029969 -0.016489 0.009654
v -0.021488 -0.020143 0.008832
v -0.016247 -0.027487 0.010963
v -0.016247 -0.035716 0.015231
v -0.021488 -0.041687 0.020008
v -0.029969 -0.038535 0.028758
v -0.036546 -0.032093 0.029846
v -0.040611 -0.024777 0.025859
v -0.040611 -0.019381 0.018321
v -0.036546 -0.017967 0.010110
v -0.029969 -0.021074 0.004363
v -0.023392 -0.027516 0.003275
v -0.019327 -0.034832 0.007262
v -0.019327 -0.040228 0.014800
v -0.023392 -0.041642 0.023011
v -0.047217 -0.054246 0.017512
v -0.053794 -0.047804 0.018600
v -0.057859 -0.040488 0.014614
v -0.057859 -0.035092 0.007075
v -0.053794 -0.033678 -0.001136
v -0.047217 -0.036785 -0.006883
v -0.040640 -0.043227 -0.007971
v -0.036575 -0.050543 -0.003984
v -0.036575 -0.055939 0.003554
v -0.040640 -0.057353 0.011765
v -0.023274 0.015763 0.083018
v -0.031952 0.017683 0.080385
v -0.037316 0.024044 0.076297
v -0.037316 0.032417 0.072317
v -0.031952 0.039603 0.069965
v -0.023274 0.042858 0.070139
v -0.014595 0.040938 0.072773
v -0.009231 0.034577 0.076860
v -0.009231 0.026204 0.080840
v -0.014595 0.019018 0.083192
v -0.007449 -0.022168 0.003222
v -0.016127 -0.020248 0.000588
v -0.021491 -0.013887 -0.003500
v -0.021491 -0.005514 -0.007480
v -0.016127 0.001672 -0.009832
v -0.007449 0.004927 -0.009658
v 0.001230 0.003007 -0.007024
v 0.006594 -0.003354 -0.002936
v 0.006594 -0.011727 0.001043
v 0.001230 -0.018913 0.003396
v -0.007449 -0.003049 0.010709
v -0.016259 -0.004434 0.008178
v -0.021703 -0.007418 0.001293
v -0.021703 -0.010862 -0.007314
v -0.016259 -0.013449 -0.014357
v -0.007449 -0.014192 -0.017145
v 0.001361 -0.012807 -0.014614
v 0.006806 -0.009823 -0.007730
v 0.006806 -0.006380 0.000878
v 0.001361 -0.003792 0.007921
v -0.006817 -0.017986 0.016684
v -0.015627 -0.019371 0.014153
v -0.021072 -0.022355 0.007269
v -0.021072 -0.025798 -0.001339
v -0.015627 -0.028386 -0.008382
v -0.006817 -0.029129 -0.011170
v 0.001993 -0.027744 -0.008638
v 0.007438 -0.024759 -0.001754
v 0.007438 -0.021316 0.006853
v 0.001993 -0.018729 0.013896
v -0.006817 -0.009079 0.006677
v -0.015624 -0.011732 0.005516
v -0.021066 -0.018902 0.003300
v -0.021066 -0.027850 0.000877
v -0.015624 -0.035159 -0.000828
v -0.006817 -0.038036 -0.001163
v 0.001989 -0.035383 -0.000001
v 0.007432 -0.028212 0.002214
v 0.007432 -0.019264 0.004637
v 0.001989 -0.011956 0.006342
v -0.007893 -0.014860 0.028030
v -0.016699 -0.017513 0.026868
v -0.022142 -0.024684 0.024653
v -0.022142 -0.033632 0.022230
v -0.016699 -0.040940 0.020525
v -0.007893 -0.043817 0.020189
v 0.000914 -0.041164 0.021351
v 0.006357 -0.033994 0.023567
v 0.006357 -0.025046 0.025990
v 0.000914 -0.017737 0.027695
v -0.007893 -0.015740 0.017779
v -0.015481 -0.020232 0.014918
v -0.020171 -0.028202 0.015569
v -0.020171 -0.036606 0.019482
v -0.015481 -0.042235 0.025162
v -0.007893 -0.042937 0.030441
v -0.000304 -0.038446 0.033301
v 0.004386 -0.030475 0.032650
v 0.004386 -0.022071 0.028738
v -0.000304 -0.016443 0.023057
v -0.016038 -0.009928 0.030262
v -0.023626 -0.014420 0.027402
v -0.028316 -0.022390 0.028052
v -0.028316 -0.030794 0.031965
v -0.023626 -0.036423 0.037646
v -0.016038 -0.037125 0.042924
v -0.008449 -0.032634 0.045785
v -0.003759 -0.024664 0.045134
v -0.003759 -0.016259 0.041221
v -0.008449 -0.010631 0.035541
v -0.023274 0.015229 0.081746
v -0.031837 0.017194 0.078787
v -0.037129 0.023788 0.074985
v -0.037129 0.032491 0.071791
v -0.031837 0.039979 0.070426
v -0.023274 0.043392 0.071411
v -0.014711 0.041426 0.074370
v -0.009419 0.034833 0.078173
v -0.009419 0.026130 0.081366
v -0.014711 0.018642 0.082731
v -0.002782 -0.013549 0.003326
v -0.011345 -0.011583 0.000367
v -0.016637 -0.004989 -0.003435
v -0.016637 0.003714 -0.006629
v -0.011345 0.011202 -0.007994
v -0.002782 0.014615 -0.007009
v 0.005781 0.012649 -0.004050
v 0.011073 0.006055 -0.000248
v 0.011073 -0.002648 0.002946
v 0.005781 -0.010136 0.004311
v -0.002782 0.002622 0.013012
v -0.009816 -0.003041 0.010916
v -0.014163 -0.007339 0.003947
v -0.014163 -0.008630 -0.005233
v -0.009816 -0.006421 -0.013118
v -0.002782 -0.001557 -0.016695
v 0.004252 0.004106 -0.014599
v 0.008599 0.008404 -0.007630
v 0.008599 0.009696 0.001551
v 0.004252 0.007487 0.009435
v 0.015914 -0.021876 0.016459
v 0.008880 -0.027539 0.014362
v 0.004533 -0.031837 0.007393
v 0.004533 -0.033129 -0.001787
v 0.008880 -0.030920 -0.009672
v 0.015914 -0.026055 -0.013249
v 0.022948 -0.020392 -0.011153
v 0.027296 -0.016094 -0.004183
v 0.027296 -0.014803 0.004997
v 0.022948 -0.017011 0.012881
v 0.015914 -0.009086 0.003497
v 0.007447 -0.011617 0.000696
v 0.002214 -0.018866 -0.001757
v 0.002214 -0.028062 -0.002926
v 0.007447 -0.035694 -0.002365
v 0.015914 -0.038846 -0.000287
v 0.024381 -0.036314 0.002513
v 0.029614 -0.029066 0.004967
v 0.029614 -0.019869 0.006136
v 0.024381 -0.012238 0.005574
v 0.009168 -0.012016 0.026542
v 0.000701 -0.014547 0.023742
v -0.004532 -0.021796 0.021289
v -0.004532 -0.030992 0.020120
v 0.000701 -0.038624 0.020681
v 0.009168 -0.041776 0.022759
v 0.017635 -0.039244 0.025559
v 0.022868 -0.031996 0.028012
v 0.022868 -0.022799 0.029182
v 0.017635 -0.015168 0.028620
v 0.009168 -0.012312 0.021141
v 0.000776 -0.015730 0.019184
v -0.004411 -0.023412 0.019315
v -0.004411 -0.032425 0.021485
v 0.000776 -0.039326 0.024863
v 0.009168 -0.041479 0.028161
v 0.017561 -0.038062 0.030117
v 0.022748 -0.030379 0.029986
v 0.022748 -0.021366 0.027816
v 0.017561 -0.014465 0.024438
v 0.001225 -0.006539 0.045128
v -0.007168 -0.009956 0.043172
v -0.012354 -0.017639 0.043303
v -0.012354 -0.026652 0.045473
v -0.007168 -0.033553 0.048851
v 0.001225 -0.035706 0.052148
v 0.009618 -0.032288 0.054105
v 0.014804 -0.024606 0.053974
v 0.014804 -0.015593 0.051804
v 0.009618 -0.008692 0.048426
v -0.023274 0.015054 0.081242
v -0.031599 0.016874 0.077593
v -0.036744 0.023445 0.073556
v -0.036744 0.032256 0.070673
v -0.031599 0.039942 0.070047
v -0.023274 0.043567 0.071915
v -0.014948 0.041747 0.075565
v -0.009803 0.035176 0.079602
v -0.009803 0.026365 0.082484
v -0.014948 0.018679 0.083111
v 0.004466 -0.009681 0.005628
v -0.003859 -0.007861 0.001978
v -0.009004 -0.001291 -0.002059
v -0.009004 0.007520 -0.004941
v -0.003859 0.015207 -0.005568
v 0.004466 0.018832 -0.003700
v 0.012791 0.017012 -0.000050
v 0.017937 0.010441 0.003987
v 0.017937 0.001630 0.006869
v 0.012791 -0.006056 0.007496
v 0.004466 0.007514 0.015673
v -0.002283 0.001389 0.013976
v -0.006454 -0.003518 0.007308
v -0.006454 -0.005335 -0.001783
v -0.002283 -0.003366 -0.009825
v 0.004466 0.001637 -0.013745
v 0.011215 0.007761 -0.012047
v 0.015386 0.012669 -0.005380
v 0.015386 0.014485 0.003711
v 0.011215 0.012516 0.011753
v 0.019861 -0.010445 0.019261
v 0.013112 -0.016570 0.017563
v 0.008941 -0.021477 0.010895
v 0.008941 -0.023293 0.001805
v 0.013112 -0.021324 -0.006237
v 0.019861 -0.016322 -0.010158
v 0.026610 -0.010198 -0.008460
v 0.030781 -0.005290 -0.001792
v 0.030781 -0.003474 0.007299
v 0.026610 -0.005443 0.015340
v 0.019861 0.001454 0.006750
v 0.011058 -0.001307 0.005841
v 0.005617 -0.008681 0.004439
v 0.005617 -0.017851 0.003080
v 0.011058 -0.025315 0.002283
v 0.019861 -0.028222 0.002353
v 0.028664 -0.025460 0.003263
v 0.034104 -0.018086 0.004665
v 0.034104 -0.008916 0.006024
v 0.028664 -0.001452 0.006820
v 0.018863 -0.001145 0.024289
v 0.010061 -0.003906 0.023379
v 0.004620 -0.011280 0.021977
v 0.004620 -0.020450 0.020618
v 0.010061 -0.027914 0.019822
v 0.018863 -0.030821 0.019892
v 0.027666 -0.028059 0.020801
v 0.033107 -0.020685 0.022203
v 0.033107 -0.011515 0.023562
v 0.027666 -0.004051 0.024359
v 0.018863 -0.001213 0.019473
v 0.010839 -0.004671 0.016377
v 0.005879 -0.012449 0.015463
v 0.005879 -0.021578 0.017081
v 0.010839 -0.028569 0.020612
v 0.018863 -0.030752 0.024707
v 0.026888 -0.027295 0.027804
v 0.031848 -0.019516 0.028717
v 0.031848 -0.010387 0.027100
v 0.026888 -0.003396 0.023569
v 0.010459 0.002010 0.037658
v 0.002434 -0.001448 0.034562
v -0.002525 -0.009227 0.033648
v -0.002525 -0.018356 0.035265
v 0.002434 -0.025347 0.038796
v 0.010459 -0.027530 0.042892
v 0.018484 -0.024072 0.045988
v 0.023444 -0.016294 0.046902
v 0.023444 -0.007165 0.045285
v 0.018484 -0.000174 0.041754
v -0.023274 0.014972 0.080984
v -0.031391 0.016699 0.076852
v -0.036408 0.023244 0.072616
v -0.036408 0.032106 0.069894
v -0.031391 0.039900 0.069724
v -0.023274 0.043649 0.072173
v -0.015157 0.041921 0.076305
v -0.010140 0.035377 0.080541
v -0.010140 0.026515 0.083264
v -0.015157 0.018721 0.083433
v 0.004544 -0.004295 0.018276
v -0.003573 -0.002567 0.014144
v -0.008590 0.003977 0.009908
v -0.008590 0.012839 0.007185
v -0.003573 0.020633 0.007016
v 0.004544 0.024382 0.009465
v 0.012661 0.022655 0.013597
v 0.017678 0.016110 0.017833
v 0.017678 0.007249 0.020555
v 0.012661 -0.000545 0.020725
v 0.008729 0.010044 0.028275
v 0.006323 0.001387 0.025991
v 0.003237 -0.003963 0.019077
v 0.000651 -0.003963 0.010174
v -0.000448 0.001387 0.002684
v 0.000360 0.010044 -0.000534
v 0.002766 0.018700 0.001750
v 0.005851 0.024050 0.008664
v 0.008437 0.024050 0.017566
v 0.009536 0.018700 0.025057
v 0.030560 0.005650 0.021933
v 0.028154 -0.003007 0.019649
v 0.025069 -0.008357 0.012735
v 0.022482 -0.008357 0.003833
v 0.021383 -0.003007 -0.003658
v 0.022191 0.005650 -0.006876
v 0.024597 0.014306 -0.004592
v 0.027682 0.019656 0.002322
v 0.030268 0.019656 0.011225
v 0.031367 0.014306 0.018715
v 0.024059 0.005650 0.022349
v 0.021953 -0.002781 0.019120
v 0.021536 -0.007992 0.011464
v 0.022967 -0.007992 0.002304
v 0.025701 -0.002781 -0.004859
v 0.028692 0.005650 -0.007291
v 0.030798 0.014081 -0.004063
v 0.031215 0.019291 0.003593
v 0.029783 0.019291 0.012753
v 0.027050 0.014081 0.019917
v 0.047063 -0.001474 0.025944
v 0.044957 -0.009905 0.022715
v 0.044540 -0.015116 0.015059
v 0.045971 -0.015116 0.005900
v 0.048705 -0.009905 -0.001264
v 0.051696 -0.001474 -0.003696
v 0.053802 0.006957 -0.000467
v 0.054219 0.012167 0.007189
v 0.052787 0.012167 0.016348
v 0.050054 0.006957 0.023512
v 0.049379 -0.001159 0.026121
v 0.045265 -0.009015 0.023421
v 0.042723 -0.013992 0.016024
v 0.042723 -0.014187 0.006755
v 0.045265 -0.009526 -0.000844
v 0.049379 -0.001790 -0.003873
v 0.053493 0.006067 -0.001173
v 0.056036 0.011043 0.006224
v 0.056036 0.011238 0.015493
v 0.053493 0.006577 0.023092
v 0.067870 -0.010911 0.026326
v 0.063756 -0.018768 0.023626
v 0.061213 -0.023744 0.016229
v 0.061213 -0.023939 0.006961
v 0.063756 -0.019279 -0.000639
v 0.067870 -0.011542 -0.003667
v 0.071983 -0.003686 -0.000967
v 0.074526 0.001291 0.006430
v 0.074526 0.001486 0.015698
v 0.071983 -0.003175 0.023298
v 0.024086 0.017683 0.100679
v 0.015485 0.018266 0.097270
v 0.010169 0.022592 0.091027
v 0.010169 0.029006 0.084334
v 0.015485 0.035060 0.079748
v 0.024086 0.038441 0.079020
v 0.032688 0.037857 0.082429
v 0.038004 0.033532 0.088672
v 0.038004 0.027118 0.095365
v 0.032688 0.021064 0.099951
v 0.032996 -0.010875 0.073309
v 0.024394 -0.010292 0.069900
v 0.019078 -0.005967 0.063657
v 0.019078 0.000448 0.056964
v 0.024394 0.006502 0.052378
v 0.032996 0.009883 0.051650
v 0.041597 0.009299 0.055058
v 0.046913 0.004974 0.061302
v 0.046913 -0.001441 0.067995
v 0.041597 -0.007494 0.072581
v 0.032996 -0.009284 0.074635
v 0.024204 -0.008148 0.071922
v 0.018771 -0.004089 0.065602
v 0.018771 0.001342 0.058089
v 0.024204 0.006071 0.052253
v 0.032996 0.008292 0.050323
v 0.041787 0.007155 0.053037
v 0.047220 0.003096 0.059357
v 0.047220 -0.002335 0.066870
v 0.041787 -0.007064 0.072706
v 0.035394 -0.034834 0.056165
v 0.026603 -0.033698 0.053451
v 0.021169 -0.029639 0.047131
v 0.021169 -0.024207 0.039618
v 0.026603 -0.019478 0.033782
v 0.035394 -0.017258 0.031852
v 0.044185 -0.018394 0.034566
v 0.049619 -0.022454 0.040886
v 0.049619 -0.027885 0.048399
v 0.044185 -0.032614 0.054235
v 0.035394 -0.039137 0.051332
v 0.026649 -0.037183 0.048956
v 0.021244 -0.030976 0.044690
v 0.021244 -0.022886 0.040164
v 0.026649 -0.016003 0.037106
v 0.035394 -0.012956 0.036684
v 0.044139 -0.014909 0.039060
v 0.049544 -0.021116 0.043326
v 0.049544 -0.029207 0.047853
v 0.044139 -0.036090 0.050911
v 0.040385 -0.058169 0.017315
v 0.031640 -0.056216 0.014939
v 0.026235 -0.050008 0.010673
v 0.026235 -0.041918 0.006147
v 0.031640 -0.035035 0.003089
v 0.040385 -0.031988 0.002667
v 0.049131 -0.033941 0.005043
v 0.054536 -0.040149 0.009309
v 0.054536 -0.048239 0.013836
v 0.049131 -0.055122 0.016894
v 0.040385 -0.056389 0.019844
v 0.032759 -0.057135 0.014626
v 0.028045 -0.053275 0.007638
v 0.028045 -0.046285 0.001549
v 0.032759 -0.038834 -0.001315
v 0.040385 -0.033768 0.000139
v 0.048012 -0.033022 0.005356
v 0.052725 -0.036882 0.012344
v 0.052725 -0.043872 0.018433
v 0.048012 -0.051323 0.021298
v 0.054122 -0.071944 0.001987
v 0.046495 -0.072689 -0.003230
v 0.041782 -0.068830 -0.010218
v 0.041782 -0.061840 -0.016307
v 0.046495 -0.054389 -0.019172
v 0.054122 -0.049323 -0.017718
v 0.061749 -0.048577 -0.012500
v 0.066462 -0.052436 -0.005512
v 0.066462 -0.059427 0.000577
v 0.061749 -0.066878 0.003442
v 0.024086 0.013927 0.094871
v 0.015322 0.016949 0.094820
v 0.009906 0.024216 0.092870
v 0.009906 0.032952 0.089767
v 0.015322 0.039819 0.086695
v 0.024086 0.042196 0.084828
v 0.032850 0.039174 0.084879
v 0.038267 0.031908 0.086829
v 0.038267 0.023172 0.089932
v 0.032850 0.016304 0.093004
v 0.012687 -0.020787 -0.002845
v 0.003923 -0.017765 -0.002897
v -0.001494 -0.010498 -0.004846
v -0.001494 -0.001763 -0.007950
v 0.003923 0.005105 -0.011021
v 0.012687 0.007482 -0.012888
v 0.021451 0.004460 -0.012837
v 0.026867 -0.002806 -0.010887
v 0.026867 -0.011542 -0.007784
v 0.021451 -0.018410 -0.004712
v 0.012687 -0.002922 0.006662
v 0.005166 0.000822 0.002743
v 0.000518 0.001712 -0.005229
v 0.000518 -0.000593 -0.014208
v 0.005166 -0.005213 -0.020765
v 0.012687 -0.010383 -0.022396
v 0.020207 -0.014127 -0.018477
v 0.024855 -0.015017 -0.010505
v 0.024855 -0.012711 -0.001526
v 0.020207 -0.008092 0.005032
v -0.001506 -0.025389 0.012430
v -0.009026 -0.021644 0.008511
v -0.013674 -0.020755 0.000539
v -0.013674 -0.023060 -0.008440
v -0.009026 -0.027680 -0.014997
v -0.001506 -0.032849 -0.016627
v 0.006015 -0.036594 -0.012708
v 0.010663 -0.037484 -0.004737
v 0.010663 -0.035178 0.004242
v 0.006015 -0.030559 0.010800
v -0.001506 -0.014463 0.001095
v -0.010264 -0.017047 -0.000504
v -0.015677 -0.024241 -0.002713
v -0.015677 -0.033299 -0.004687
v -0.010264 -0.040761 -0.005672
v -0.001506 -0.043775 -0.005293
v 0.007253 -0.041192 -0.003693
v 0.012666 -0.033997 -0.001485
v 0.012666 -0.024939 0.000489
v 0.007253 -0.017478 0.001475
v -0.004763 -0.020463 0.028624
v -0.013522 -0.023046 0.027025
v -0.018935 -0.030241 0.024816
v -0.018935 -0.039299 0.022842
v -0.013522 -0.046760 0.021857
v -0.004763 -0.049775 0.022236
v 0.003995 -0.047191 0.023836
v 0.009408 -0.039996 0.026044
v 0.009408 -0.030939 0.028018
v 0.003995 -0.023477 0.029004
v -0.004763 -0.023077 0.016486
v -0.012610 -0.022979 0.021422
v -0.017460 -0.027518 0.027889
v -0.017460 -0.034960 0.033417
v -0.012610 -0.042463 0.035894
v -0.004763 -0.047160 0.034375
v 0.003083 -0.047258 0.029439
v 0.007933 -0.042719 0.022972
v 0.007933 -0.035277 0.017444
v 0.003083 -0.027774 0.014966
v 0.005141 -0.011552 0.032002
v -0.002706 -0.011454 0.036938
v -0.007555 -0.015993 0.043405
v -0.007555 -0.023435 0.048933
v -0.002706 -0.030937 0.051411
v 0.005141 -0.035635 0.049891
v 0.012987 -0.035732 0.044955
v 0.017837 -0.031193 0.038488
v 0.017837 -0.023751 0.032960
v 0.012987 -0.016249 0.030483
v 0.024086 0.013586 0.093781
v 0.015498 0.016874 0.094955
v 0.010190 0.024434 0.094178
v 0.010190 0.033381 0.091748
v 0.015498 0.040296 0.088593
v 0.024086 0.042537 0.085918
v 0.032675 0.039250 0.084744
v 0.037983 0.031689 0.085521
v 0.037983 0.022743 0.087951
v 0.032675 0.015828 0.091106
v 0.001594 -0.011804 0.000295
v -0.006995 -0.008517 0.001469
v -0.012303 -0.000956 0.000692
v -0.012303 0.007990 -0.001738
v -0.006995 0.014905 -0.004893
v 0.001594 0.017147 -0.007568
v 0.010182 0.013860 -0.008742
v 0.015490 0.006299 -0.007965
v 0.015490 -0.002648 -0.005535
v 0.010182 -0.009562 -0.002380
v 0.001594 0.004964 0.011187
v -0.005614 0.009544 0.007580
v -0.010069 0.011499 -0.000311
v -0.010069 0.010082 -0.009473
v -0.005614 0.005835 -0.016405
v 0.001594 0.000379 -0.018460
v 0.008801 -0.004201 -0.014853
v 0.013256 -0.006156 -0.006962
v 0.013256 -0.004739 0.002200
v 0.008801 -0.000492 0.009132
v -0.021272 -0.027115 0.016148
v -0.028480 -0.022535 0.012541
v -0.032935 -0.020580 0.004649
v -0.032935 -0.021996 -0.004512
v -0.028480 -0.026244 -0.011445
v -0.021272 -0.031699 -0.013500
v -0.014064 -0.036280 -0.009893
v -0.009609 -0.038235 -0.002001
v -0.009609 -0.036818 0.007160
v -0.014064 -0.032571 0.014093
v -0.021272 -0.014538 0.003297
v -0.030044 -0.017494 0.003800
v -0.035466 -0.025001 0.003356
v -0.035466 -0.034191 0.002137
v -0.030044 -0.041554 0.000607
v -0.021272 -0.044277 -0.000649
v -0.012500 -0.041320 -0.001152
v -0.007079 -0.033813 -0.000708
v -0.007079 -0.024623 0.000511
v -0.012500 -0.017261 0.002041
v -0.018700 -0.017885 0.028522
v -0.027472 -0.020842 0.029025
v -0.032893 -0.028349 0.028581
v -0.032893 -0.037539 0.027362
v -0.027472 -0.044901 0.025832
v -0.018700 -0.047624 0.024576
v -0.009928 -0.044668 0.024073
v -0.004506 -0.037161 0.024517
v -0.004506 -0.027971 0.025736
v -0.009928 -0.020608 0.027266
v -0.018700 -0.017948 0.024147
v -0.027405 -0.020553 0.025982
v -0.032786 -0.027818 0.028033
v -0.032786 -0.036969 0.029518
v -0.027405 -0.044510 0.029868
v -0.018700 -0.047561 0.028951
v -0.009994 -0.044957 0.027116
v -0.004613 -0.037691 0.025065
v -0.004613 -0.028541 0.023581
v -0.009994 -0.020999 0.023230
v -0.015288 -0.014537 0.045179
v -0.023994 -0.017141 0.047013
v -0.029375 -0.024407 0.049064
v -0.029375 -0.033557 0.050549
v -0.023994 -0.041099 0.050900
v -0.015288 -0.044150 0.049982
v -0.006582 -0.041545 0.048148
v -0.001202 -0.034280 0.046096
v -0.001202 -0.025129 0.044612
v -0.006582 -0.017588 0.044261
v 0.024086 0.013596 0.093815
v 0.015859 0.017196 0.096114
v 0.010774 0.024947 0.096020
v 0.010774 0.033888 0.093569
v 0.015859 0.040603 0.089697
v 0.024086 0.042528 0.085884
v 0.032314 0.038927 0.083585
v 0.037399 0.031176 0.083679
v 0.037399 0.022236 0.086130
v 0.032314 0.015521 0.090002
v -0.010021 -0.009816 0.008417
v -0.018249 -0.006215 0.010716
v -0.023334 0.001536 0.010622
v -0.023334 0.010476 0.008171
v -0.018249 0.017192 0.004299
v -0.010021 0.019117 0.000485
v -0.001794 0.015516 -0.001814
v 0.003291 0.007765 -0.001720
v 0.003291 -0.001176 0.000731
v -0.001794 -0.007891 0.004603
v -0.010021 0.005311 0.019436
v -0.017713 0.009491 0.016385
v -0.022467 0.011821 0.008774
v -0.022467 0.011413 -0.000487
v -0.017713 0.008421 -0.007862
v -0.010021 0.003989 -0.010534
v -0.002330 -0.000190 -0.007483
v 0.002424 -0.002521 0.000127
v 0.002424 -0.002112 0.009389
v -0.002330 0.000879 0.016764
v -0.025649 -0.022552 0.020665
v -0.033340 -0.018372 0.017613
v -0.038094 -0.016042 0.010003
v -0.038094 -0.016450 0.000742
v -0.033340 -0.019442 -0.006634
v -0.025649 -0.023874 -0.009306
v -0.017957 -0.028053 -0.006254
v -0.013203 -0.030383 0.001356
v -0.013203 -0.029975 0.010618
v -0.017957 -0.026984 0.017993
v -0.025649 -0.008274 0.007039
v -0.034190 -0.011325 0.008956
v -0.039469 -0.018917 0.009621
v -0.039469 -0.028149 0.008781
v -0.034190 -0.035496 0.006756
v -0.025649 -0.038151 0.004320
v -0.017107 -0.035100 0.002404
v -0.011828 -0.027508 0.001738
v -0.011828 -0.018276 0.002579
v -0.017107 -0.010929 0.004603
v -0.020410 -0.010130 0.027433
v -0.028951 -0.013181 0.029349
v -0.034230 -0.020773 0.030015
v -0.034230 -0.030005 0.029175
v -0.028951 -0.037352 0.027150
v -0.020410 -0.040007 0.024714
v -0.011868 -0.036956 0.022797
v -0.006589 -0.029364 0.022132
v -0.006589 -0.020132 0.022972
v -0.011868 -0.012785 0.024997
v -0.020410 -0.011669 0.019332
v -0.028481 -0.012634 0.023788
v -0.033470 -0.018348 0.029117
v -0.033470 -0.026630 0.033284
v -0.028481 -0.034315 0.034696
v -0.020410 -0.038468 0.032815
v -0.012338 -0.037503 0.028359
v -0.007349 -0.031789 0.023029
v -0.007349 -0.023508 0.018863
v -0.012338 -0.015822 0.017450
v -0.011865 -0.002931 0.036700
v -0.019937 -0.003896 0.041156
v -0.024926 -0.009610 0.046485
v -0.024926 -0.017892 0.050652
v -0.019937 -0.025577 0.052064
v -0.011865 -0.029730 0.050183
v -0.003794 -0.028765 0.045727
v 0.001195 -0.023051 0.040397
v 0.001195 -0.014769 0.036231
v -0.003794 -0.007084 0.034818
v 0.024086 0.013488 0.093401
v 0.016450 0.017315 0.097004
v 0.011731 0.025247 0.097875
v 0.011731 0.034254 0.095680
v 0.016450 0.040896 0.091258
v 0.024086 0.042635 0.086298
v 0.031723 0.038809 0.082695
v 0.036442 0.030877 0.081824
v 0.036442 0.021870 0.084019
v 0.031723 0.015228 0.088441
v -0.016517 -0.003168 0.025047
v -0.024153 0.000658 0.028650
v -0.028873 0.008590 0.029521
v -0.028873 0.017597 0.027326
v -0.024153 0.024239 0.022904
v -0.016517 0.025979 0.017944
v -0.008881 0.022152 0.014341
v -0.004161 0.014220 0.013470
v -0.004161 0.005213 0.015665
v -0.008881 -0.001428 0.020087
v -0.016517 0.004264 0.034687
v -0.020779 0.012415 0.035842
v -0.023414 0.020180 0.031517
v -0.023414 0.024594 0.023364
v -0.020779 0.023970 0.014498
v -0.016517 0.018546 0.008304
v -0.012254 0.010395 0.007149
v -0.009620 0.002630 0.011474
v -0.009620 -0.001784 0.019627
v -0.012254 -0.001159 0.028493
v -0.037173 -0.005768 0.029256
v -0.041436 0.002383 0.030411
v -0.044070 0.010148 0.026086
v -0.044070 0.014561 0.017933
v -0.041436 0.013937 0.009067
v -0.037173 0.008514 0.002873
v -0.032911 0.000362 0.001718
v -0.030276 -0.007403 0.006043
v -0.030276 -0.011816 0.014196
v -0.032911 -0.011192 0.023062
v -0.037173 0.006371 0.030207
v -0.041897 0.012436 0.025025
v -0.044817 0.014274 0.016421
v -0.044817 0.011185 0.007680
v -0.041897 0.004347 0.002142
v -0.037173 -0.003626 0.001922
v -0.032449 -0.009690 0.007104
v -0.029529 -0.011529 0.015708
v -0.029529 -0.008439 0.024449
v -0.032449 -0.001602 0.029987
v -0.056389 -0.005126 0.034271
v -0.061113 0.000939 0.029089
v -0.064033 0.002777 0.020484
v -0.064033 -0.000312 0.011744
v -0.061113 -0.007150 0.006206
v -0.056389 -0.015123 0.005986
v -0.051665 -0.021187 0.011168
v -0.048746 -0.023026 0.019772
v -0.048746 -0.019936 0.028513
v -0.051665 -0.013099 0.034051
v -0.056389 -0.010518 0.035123
v -0.060386 -0.002586 0.032465
v -0.062856 0.002466 0.025095
v -0.062856 0.002709 0.015828
v -0.060386 -0.001950 0.008203
v -0.056389 -0.009731 0.005133
v -0.052393 -0.017663 0.007791
v -0.049923 -0.022715 0.015161
v -0.049923 -0.022958 0.024429
v -0.052393 -0.018299 0.032053
v -0.072407 -0.018660 0.034910
v -0.076404 -0.010729 0.032252
v -0.078874 -0.005677 0.024882
v -0.078874 -0.005434 0.015614
v -0.076404 -0.010093 0.007990
v -0.072407 -0.017874 0.004920
v -0.068411 -0.025805 0.007578
v -0.065941 -0.030857 0.014948
v -0.065941 -0.031100 0.024215
v -0.068411 -0.026442 0.031840
f 1 2 13
f 2 14 13
f 2 3 14
f 3 15 14
f 3 4 15
f 4 16 15
f 4 5 16
f 5 17 16
f 5 6 17
f 6 18 17
f 6 7 18
f 7 19 18
f 7 8 19
f 8 20 19
f 8 9 20
f 9 21 20
f 9 10 21
f 10 22 21
f 10 11 22
f 11 23 22
f 11 12 23
f 12 24 23
f 13 14 25
f 14 26 25
f 14 15 26
f 15 27 26
f 15 16 27
f 16 28 27
f 16 17 28
f 17 29 28
f 17 18 29
f 18 30 29
f 18 19 30
f 19 31 30
f 19 20 31
f 20 32 31
f 20 21 32
f 21 33 32
f 21 22 33
f 22 34 33
f 22 23 34
f 23 35 34
f 23 24 35
f 24 36 35
f 25 26 37
f 26 38 37
f 26 27 38
f 27 39 38
f 27 28 39
f 28 40 39
f 28 29 40
f 29 41 40
f 29 30 41
f 30 42 41
f 30 31 42
f 31 43 42
f 31 32 43
f 32 44 43
f 32 33 44
f 33 45 44
f 33 34 45
f 34 46 45
f 34 35 46
f 35 47 46
f 35 36 47
f 36 48 47
f 37 38 49
f 38 50 49
f 38 39 50
f 39 51 50
f 39 40 51
f 40 52 51
f 40 41 52
f 41 53 52
f 41 42 53
f 42 54 53
f 42 43 54
f 43 55 54
f 43 44 55
f 44 56 55
f 44 45 56
f 45 57 56
f 45 46 57
f 46 58 57
f 46 47 58
f 47 59 58
f 47 48 59
f 48 60 59
f 49 50 61
f 50 62 61
f 50 51 62
f 51 63 62
f 51 52 63
f 52 64 63
f 52 53 64
f 53 65 64
f 53 54 65
f 54 66 65
f 54 55 66
f 55 67 66
f 55 56 67
f 56 68 67
f 56 57 68
f 57 69 68
f 57 58 69
f 58 70 69
f 58 59 70
f 59 71 70
f 59 60 71
f 60 72 71
f 61 62 73
f 62 74 73
f 62 63 74
f 63 75 74
f 63 64 75
f 64 76 75
f 64 65 76
f 65 77 76
f 65 66 77
f 66 78 77
f 66 67 78
f 67 79 78
f 67 68 79
f 68 80 79
f 68 69 80
f 69 81 80
f 69 70 81
f 70 82 81
f 70 71 82
f 71 83 82
f 71 72 83
f 72 84 83
f 73 74 85
f 74 86 85
f 74 75 86
f 75 87 86
f 75 76 87
f 76 88 87
f 76 77 88
f 77 89 88
f 77 78 89
f 78 90 89
f 78 79 90
f 79 91 90
f 79 80 91
f 80 92 91
f 80 81 92
f 81 93 92
f 81 82 93
f 82 94 93
f 82 83 94
f 83 95 94
f 83 84 95
f 84 96 95
f 85 86 97
f 86 98 97
f 86 87 98
f 87 99 98
f 87 88 99
f 88 100 99
f 88 89 100
f 89 101 100
f 89 90 101
f 90 102 101
f 90 91 102
f 91 103 102
f 91 92 103
f 92 104 103
f 92 93 104
f 93 105 104
f 93 94 105
f 94 106 105
f 94 95 106
f 95 107 106
f 95 96 107
f 96 108 107
f 97 98 109
f 98 110 109
f 98 99 110
f 99 111 110
f 99 100 111
f 100 112 111
f 100 101 112
f 101 113 112
f 101 102 113
f 102 114 113
f 102 103 114
f 103 115 114
f 103 104 115
f 104 116 115
f 104 105 116
f 105 117 116
f 105 106 117
f 106 118 117
f 106 107 118
f 107 119 118
f 107 108 119
f 108 120 119
f 109 110 121
f 110 122 121
f 110 111 122
f 111 123 122
f 111 112 123
f 112 124 123
f 112 113 124
f 113 125 124
f 113 114 125
f 114 126 125
f 114 115 126
f 115 127 126
f 115 116 127
f 116 128 127
f 116 117 128
f 117 129 128
f 117 118 129
f 118 130 129
f 118 119 130
f 119 131 130
f 119 120 131
f 120 132 131
f 121 122 133
f 122 134 133
f 122 123 134
f 123 135 134
f 123 124 135
f 124 136 135
f 124 125 136
f 125 137 136
f 125 126 137
f 126 138 137
f 126 127 138
f 127 139 138
f 127 128 139
f 128 140 139
f 128 129 140
f 129 141 140
f 129 130 141
f 130 142 141
f 130 131 142
f 131 143 142
f 131 132 143
f 132 144 143
f 145 146 155
f 146 156 155
f 146 147 156
f 147 157 156
f 147 148 157
f 148 158 157
f 148 149 158
f 149 159 158
f 149 150 159
f 150 160 159
f 150 151 160
f 151 161 160
f 151 152 161
f 152 162 161
f 152 153 162
f 153 163 162
f 153 154 163
f 154 164 163
f 154 145 164
f 145 155 164
f 165 166 175
f 166 176 175
f 166 167 176
f 167 177 176
f 167 168 177
f 168 178 177
f 168 169 178
f 169 179 178
f 169 170 179
f 170 180 179
f 170 171 180
f 171 181 180
f 171 172 181
f 172 182 181
f 172 173 182
f 173 183 182
f 173 174 183
f 174 184 183
f 174 165 184
f 165 175 184
f 185 186 195
f 186 196 195
f 186 187 196
f 187 197 196
f 187 188 197
f 188 198 197
f 188 189 198
f 189 199 198
f 189 190 199
f 190 200 199
f 190 191 200
f 191 201 200
f 191 192 201
f 192 202 201
f 192 193 202
f 193 203 202
f 193 194 203
f 194 204 203
f 194 185 204
f 185 195 204
f 205 206 215
f 206 216 215
f 206 207 216
f 207 217 216
f 207 208 217
f 208 218 217
f 208 209 218
f 209 219 218
f 209 210 219
f 210 220 219
f 210 211 220
f 211 221 220
f 211 212 221
f 212 222 221
f 212 213 222
f 213 223 222
f 213 214 223
f 214 224 223
f 214 205 224
f 205 215 224
f 225 226 235
f 226 236 235
f 226 227 236
f 227 237 236
f 227 228 237
f 228 238 237
f 228 229 238
f 229 239 238
f 229 230 239
f 230 240 239
f 230 231 240
f 231 241 240
f 231 232 241
f 232 242 241
f 232 233 242
f 233 243 242
f 233 234 243
f 234 244 243
f 234 225 244
f 225 235 244
f 245 246 255
f 246 256 255
f 246 247 256
f 247 257 256
f 247 248 257
f 248 258 257
f 248 249 258
f 249 259 258
f 249 250 259
f 250 260 259
f 250 251 260
f 251 261 260
f 251 252 261
f 252 262 261
f 252 253 262
f 253 263 262
f 253 254 263
f 254 264 263
f 254 245 264
f 245 255 264
f 265 266 275
f 266 276 275
f 266 267 276
f 267 277 276
f 267 268 277
f 268 278 277
f 268 269 278
f 269 279 278
f 269 270 279
f 270 280 279
f 270 271 280
f 271 281 280
f 271 272 281
f 272 282 281
f 272 273 282
f 273 283 282
f 273 274 283
f 274 284 283
f 274 265 284
f 265 275 284
f 285 286 295
f 286 296 295
f 286 287 296
f 287 297 296
f 287 288 297
f 288 298 297
f 288 289 298
f 289 299 298
f 289 290 299
f 290 300 299
f 290 291 300
f 291 301 300
f 291 292 301
f 292 302 301
f 292 293 302
f 293 303 302
f 293 294 303
f 294 304 303
f 294 285 304
f 285 295 304
f 305 306 315
f 306 316 315
f 306 307 316
f 307 317 316
f 307 308 317
f 308 318 317
f 308 309 318
f 309 319 318
f 309 310 319
f 310 320 319
f 310 311 320
f 311 321 320
f 311 312 321
f 312 322 321
f 312 313 322
f 313 323 322
f 313 314 323
f 314 324 323
f 314 305 324
f 305 315 324
f 325 326 335
f 326 336 335
f 326 327 336
f 327 337 336
f 327 328 337
f 328 338 337
f 328 329 338
f 329 339 338
f 329 330 339
f 330 340 339
f 330 331 340
f 331 341 340
f 331 332 341
f 332 342 341
f 332 333 342
f 333 343 342
f 333 334 343
f 334 344 343
f 334 325 344
f 325 335 344
f 345 346 355
f 346 356 355
f 346 347 356
f 347 357 356
f 347 348 357
f 348 358 357
f 348 349 358
f 349 359 358
f 349 350 359
f 350 360 359
f 350 351 360
f 351 361 360
f 351 352 361
f 352 362 361
f 352 353 362
f 353 363 362
f 353 354 363
f 354 364 363
f 354 345 364
f 345 355 364
f 365 366 375
f 366 376 375
f 366 367 376
f 367 377 376
f 367 368 377
f 368 378 377
f 368 369 378
f 369 379 378
f 369 370 379
f 370 380 379
f 370 371 380
f 371 381 380
f 371 372 381
f 372 382 381
f 372 373 382
f 373 383 382
f 373 374 383
f 374 384 383
f 374 365 384
f 365 375 384
f 385 386 395
f 386 396 395
f 386 387 396
f 387 397 396
f 387 388 397
f 388 398 397
f 388 389 398
f 389 399 398
f 389 390 399
f 390 400 399
f 390 391 400
f 391 401 400
f 391 392 401
f 392 402 401
f 392 393 402
f 393 403 402
f 393 394 403
f 394 404 403
f 394 385 404
f 385 395 404
f 405 406 415
f 406 416 415
f 406 407 416
f 407 417 416
f 407 408 417
f 408 418 417
f 408 409 418
f 409 419 418
f 409 410 419
f 410 420 419
f 410 411 420
f 411 421 420
f 411 412 421
f 412 422 421
f 412 413 422
f 413 423 422
f 413 414 423
f 414 424 423
f 414 405 424
f 405 415 424
f 425 426 435
f 426 436 435
f 426 427 436
f 427 437 436
f 427 428 437
f 428 438 437
f 428 429 438
f 429 439 438
f 429 430 439
f 430 440 439
f 430 431 440
f 431 441 440
f 431 432 441
f 432 442 441
f 432 433 442
f 433 443 442
f 433 434 443
f 434 444 443
f 434 425 444
f 425 435 444
f 445 446 455
f 446 456 455
f 446 447 456
f 447 457 456
f 447 448 457
f 448 458 457
f 448 449 458
f 449 459 458
f 449 450 459
f 450 460 459
f 450 451 460
f 451 461 460
f 451 452 461
f 452 462 461
f 452 453 462
f 453 463 462
f 453 454 463
f 454 464 463
f 454 445 464
f 445 455 464
f 465 466 475
f 466 476 475
f 466 467 476
f 467 477 476
f 467 468 477
f 468 478 477
f 468 469 478
f 469 479 478
f 469 470 479
f 470 480 479
f 470 471 480
f 471 481 480
f 471 472 481
f 472 482 481
f 472 473 482
f 473 483 482
f 473 474 483
f 474 484 483
f 474 465 484
f 465 475 484
f 485 486 495
f 486 496 495
f 486 487 496
f 487 497 496
f 487 488 497
f 488 498 497
f 488 489 498
f 489 499 498
f 489 490 499
f 490 500 499
f 490 491 500
f 491 501 500
f 491 492 501
f 492 502 501
f 492 493 502
f 493 503 502
f 493 494 503
f 494 504 503
f 494 485 504
f 485 495 504
f 505 506 515
f 506 516 515
f 506 507 516
f 507 517 516
f 507 508 517
f 508 518 517
f 508 509 518
f 509 519 518
f 509 510 519
f 510 520 519
f 510 511 520
f 511 521 520
f 511 512 521
f 512 522 521
f 512 513 522
f 513 523 522
f 513 514 523
f 514 524 523
f 514 505 524
f 505 515 524
f 525 526 535
f 526 536 535
f 526 527 536
f 527 537 536
f 527 528 537
f 528 538 537
f 528 529 538
f 529 539 538
f 529 530 539
f 530 540 539
f 530 531 540
f 531 541 540
f 531 532 541
f 532 542 541
f 532 533 542
f 533 543 542
f 533 534 543
f 534 544 543
f 534 525 544
f 525 535 544
f 545 546 555
f 546 556 555
f 546 547 556
f 547 557 556
f 547 548 557
f 548 558 557
f 548 549 558
f 549 559 558
f 549 550 559
f 550 560 559
f 550 551 560
f 551 561 560
f 551 552 561
f 552 562 561
f 552 553 562
f 553 563 562
f 553 554 563
f 554 564 563
f 554 545 564
f 545 555 564
f 565 566 575
f 566 576 575
f 566 567 576
f 567 577 576
f 567 568 577
f 568 578 577
f 568 569 578
f 569 579 578
f 569 570 579
f 570 580 579
f 570 571 580
f 571 581 580
f 571 572 581
f 572 582 581
f 572 573 582
f 573 583 582
f 573 574 583
f 574 584 583
f 574 565 584
f 565 575 584
f 585 586 595
f 586 596 595
f 586 587 596
f 587 597 596
f 587 588 597
f 588 598 597
f 588 589 598
f 589 599 598
f 589 590 599
f 590 600 599
f 590 591 600
f 591 601 600
f 591 592 601
f 592 602 601
f 592 593 602
f 593 603 602
f 593 594 603
f 594 604 603
f 594 585 604
f 585 595 604
f 605 606 615
f 606 616 615
f 606 607 616
f 607 617 616
f 607 608 617
f 608 618 617
f 608 609 618
f 609 619 618
f 609 610 619
f 610 620 619
f 610 611 620
f 611 621 620
f 611 612 621
f 612 622 621
f 612 613 622
f 613 623 622
f 613 614 623
f 614 624 623
f 614 605 624
f 605 615 624
f 625 626 635
f 626 636 635
f 626 627 636
f 627 637 636
f 627 628 637
f 628 638 637
f 628 629 638
f 629 639 638
f 629 630 639
f 630 640 639
f 630 631 640
f 631 641 640
f 631 632 641
f 632 642 641
f 632 633 642
f 633 643 642
f 633 634 643
f 634 644 643
f 634 625 644
f 625 635 644
f 645 646 655
f 646 656 655
f 646 647 656
f 647 657 656
f 647 648 657
f 648 658 657
f 648 649 658
f 649 659 658
f 649 650 659
f 650 660 659
f 650 651 660
f 651 661 660
f 651 652 661
f 652 662 661
f 652 653 662
f 653 663 662
f 653 654 663
f 654 664 663
f 654 645 664
f 645 655 664
f 665 666 675
f 666 676 675
f 666 667 676
f 667 677 676
f 667 668 677
f 668 678 677
f 668 669 678
f 669 679 678
f 669 670 679
f 670 680 679
f 670 671 680
f 671 681 680
f 671 672 681
f 672 682 681
f 672 673 682
f 673 683 682
f 673 674 683
f 674 684 683
f 674 665 684
f 665 675 684
f 685 686 695
f 686 696 695
f 686 687 696
f 687 697 696
f 687 688 697
f 688 698 697
f 688 689 698
f 689 699 698
f 689 690 699
f 690 700 699
f 690 691 700
f 691 701 700
f 691 692 701
f 692 702 701
f 692 693 702
f 693 703 702
f 693 694 703
f 694 704 703
f 694 685 704
f 685 695 704
f 705 706 715
f 706 716 715
f 706 707 716
f 707 717 716
f 707 708 717
f 708 718 717
f 708 709 718
f 709 719 718
f 709 710 719
f 710 720 719
f 710 711 720
f 711 721 720
f 711 712 721
f 712 722 721
f 712 713 722
f 713 723 722
f 713 714 723
f 714 724 723
f 714 705 724
f 705 715 724
f 725 726 735
f 726 736 735
f 726 727 736
f 727 737 736
f 727 728 737
f 728 738 737
f 728 729 738
f 729 739 738
f 729 730 739
f 730 740 739
f 730 731 740
f 731 741 740
f 731 732 741
f 732 742 741
f 732 733 742
f 733 743 742
f 733 734 743
f 734 744 743
f 734 725 744
f 725 735 744
f 745 746 755
f 746 756 755
f 746 747 756
f 747 757 756
f 747 748 757
f 748 758 757
f 748 749 758
f 749 759 758
f 749 750 759
f 750 760 759
f 750 751 760
f 751 761 760
f 751 752 761
f 752 762 761
f 752 753 762
f 753 763 762
f 753 754 763
f 754 764 763
f 754 745 764
f 745 755 764
f 765 766 775
f 766 776 775
f 766 767 776
f 767 777 776
f 767 768 777
f 768 778 777
f 768 769 778
f 769 779 778
f 769 770 779
f 770 780 779
f 770 771 780
f 771 781 780
f 771 772 781
f 772 782 781
f 772 773 782
f 773 783 782
f 773 774 783
f 774 784 783
f 774 765 784
f 765 775 784
f 785 786 795
f 786 796 795
f 786 787 796
f 787 797 796
f 787 788 797
f 788 798 797
f 788 789 798
f 789 799 798
f 789 790 799
f 790 800 799
f 790 791 800
f 791 801 800
f 791 792 801
f 792 802 801
f 792 793 802
f 793 803 802
f 793 794 803
f 794 804 803
f 794 785 804
f 785 795 804
f 805 806 815
f 806 816 815
f 806 807 816
f 807 817 816
f 807 808 817
f 808 818 817
f 808 809 818
f 809 819 818
f 809 810 819
f 810 820 819
f 810 811 820
f 811 821 820
f 811 812 821
f 812 822 821
f 812 813 822
f 813 823 822
f 813 814 823
f 814 824 823
f 814 805 824
f 805 815 824
f 825 826 835
f 826 836 835
f 826 827 836
f 827 837 836
f 827 828 837
f 828 838 837
f 828 829 838
f 829 839 838
f 829 830 839
f 830 840 839
f 830 831 840
f 831 841 840
f 831 832 841
f 832 842 841
f 832 833 842
f 833 843 842
f 833 834 843
f 834 844 843
f 834 825 844
f 825 835 844
f 845 846 855
f 846 856 855
f 846 847 856
f 847 857 856
f 847 848 857
f 848 858 857
f 848 849 858
f 849 859 858
f 849 850 859
f 850 860 859
f 850 851 860
f 851 861 860
f 851 852 861
f 852 862 861
f 852 853 862
f 853 863 862
f 853 854 863
f 854 864 863
f 854 845 864
f 845 855 864
f 865 866 875
f 866 876 875
f 866 867 876
f 867 877 876
f 867 868 877
f 868 878 877
f 868 869 878
f 869 879 878
f 869 870 879
f 870 880 879
f 870 871 880
f 871 881 880
f 871 872 881
f 872 882 881
f 872 873 882
f 873 883 882
f 873 874 883
f 874 884 883
f 874 865 884
f 865 875 884
f 885 886 895
f 886 896 895
f 886 887 896
f 887 897 896
f 887 888 897
f 888 898 897
f 888 889 898
f 889 899 898
f 889 890 899
f 890 900 899
f 890 891 900
f 891 901 900
f 891 892 901
f 892 902 901
f 892 893 902
f 893 903 902
f 893 894 903
f 894 904 903
f 894 885 904
f 885 895 904
f 905 906 915
f 906 916 915
f 906 907 916
f 907 917 916
f 907 908 917
f 908 918 917
f 908 909 918
f 909 919 918
f 909 910 919
f 910 920 919
f 910 911 920
f 911 921 920
f 911 912 921
f 912 922 921
f 912 913 922
f 913 923 922
f 913 914 923
f 914 924 923
f 914 905 924
f 905 915 924
f 925 926 935
f 926 936 935
f 926 927 936
f 927 937 936
f 927 928 937
f 928 938 937
f 928 929 938
f 929 939 938
f 929 930 939
f 930 940 939
f 930 931 940
f 931 941 940
f 931 932 941
f 932 942 941
f 932 933 942
f 933 943 942
f 933 934 943
f 934 944 943
f 934 925 944
f 925 935 944
f 945 946 955
f 946 956 955
f 946 947 956
f 947 957 956
f 947 948 957
f 948 958 957
f 948 949 958
f 949 959 958
f 949 950 959
f 950 960 959
f 950 951 960
f 951 961 960
f 951 952 961
f 952 962 961
f 952 953 962
f 953 963 962
f 953 954 963
f 954 964 963
f 954 945 964
f 945 955 964
f 965 966 975
f 966 976 975
f 966 967 976
f 967 977 976
f 967 968 977
f 968 978 977
f 968 969 978
f 969 979 978
f 969 970 979
f 970 980 979
f 970 971 980
f 971 981 980
f 971 972 981
f 972 982 981
f 972 973 982
f 973 983 982
f 973 974 983
f 974 984 983
f 974 965 984
f 965 975 984
f 985 986 995
f 986 996 995
f 986 987 996
f 987 997 996
f 987 988 997
f 988 998 997
f 988 989 998
f 989 999 998
f 989 990 999
f 990 1000 999
f 990 991 1000
f 991 1001 1000
f 991 992 1001
f 992 1002 1001
f 992 993 1002
f 993 1003 1002
f 993 994 1003
f 994 1004 1003
f 994 985 1004
f 985 995 1004
f 1005 1006 1015
f 1006 1016 1015
f 1006 1007 1016
f 1007 1017 1016
f 1007 1008 1017
f 1008 1018 1017
f 1008 1009 1018
f 1009 1019 1018
f 1009 1010 1019
f 1010 1020 1019
f 1010 1011 1020
f 1011 1021 1020
f 1011 1012 1021
f 1012 1022 1021
f 1012 1013 1022
f 1013 1023 1022
f 1013 1014 1023
f 1014 1024 1023
f 1014 1005 1024
f 1005 1015 1024
f 1025 1026 1035
f 1026 1036 1035
f 1026 1027 1036
f 1027 1037 1036
f 1027 1028 1037
f 1028 1038 1037
f 1028 1029 1038
f 1029 1039 1038
f 1029 1030 1039
f 1030 1040 1039
f 1030 1031 1040
f 1031 1041 1040
f 1031 1032 1041
f 1032 1042 1041
f 1032 1033 1042
f 1033 1043 1042
f 1033 1034 1043
f 1034 1044 1043
f 1034 1025 1044
f 1025 1035 1044
f 1045 1046 1055
f 1046 1056 1055
f 1046 1047 1056
f 1047 1057 1056
f 1047 1048 1057
f 1048 1058 1057
f 1048 1049 1058
f 1049 1059 1058
f 1049 1050 1059
f 1050 1060 1059
f 1050 1051 1060
f 1051 1061 1060
f 1051 1052 1061
f 1052 1062 1061
f 1052 1053 1062
f 1053 1063 1062
f 1053 1054 1063
f 1054 1064 1063
f 1054 1045 1064
f 1045 1055 1064
f 1065 1066 1075
f 1066 1076 1075
f 1066 1067 1076
f 1067 1077 1076
f 1067 1068 1077
f 1068 1078 1077
f 1068 1069 1078
f 1069 1079 1078
f 1069 1070 1079
f 1070 1080 1079
f 1070 1071 1080
f 1071 1081 1080
f 1071 1072 1081
f 1072 1082 1081
f 1072 1073 1082
f 1073 1083 1082
f 1073 1074 1083
f 1074 1084 1083
f 1074 1065 1084
f 1065 1075 1084
f 1085 1086 1095
f 1086 1096 1095
f 1086 1087 1096
f 1087 1097 1096
f 1087 1088 1097
f 1088 1098 1097
f 1088 1089 1098
f 1089 1099 1098
f 1089 1090 1099
f 1090 1100 1099
f 1090 1091 1100
f 1091 1101 1100
f 1091 1092 1101
f 1092 1102 1101
f 1092 1093 1102
f 1093 1103 1102
f 1093 1094 1103
f 1094 1104 1103
f 1094 1085 1104
f 1085 1095 1104
f 1105 1106 1115
f 1106 1116 1115
f 1106 1107 1116
f 1107 1117 1116
f 1107 1108 1117
f 1108 1118 1117
f 1108 1109 1118
f 1109 1119 1118
f 1109 1110 1119
f 1110 1120 1119
f 1110 1111 1120
f 1111 1121 1120
f 1111 1112 1121
f 1112 1122 1121
f 1112 1113 1122
f 1113 1123 1122
f 1113 1114 1123
f 1114 1124 1123
f 1114 1105 1124
f 1105 1115 1124
f 1125 1126 1135
f 1126 1136 1135
f 1126 1127 1136
f 1127 1137 1136
f 1127 1128 1137
f 1128 1138 1137
f 1128 1129 1138
f 1129 1139 1138
f 1129 1130 1139
f 1130 1140 1139
f 1130 1131 1140
f 1131 1141 1140
f 1131 1132 1141
f 1132 1142 1141
f 1132 1133 1142
f 1133 1143 1142
f 1133 1134 1143
f 1134 1144 1143
f 1134 1125 1144
f 1125 1135 1144
f 1145 1146 1155
f 1146 1156 1155
f 1146 1147 1156
f 1147 1157 1156
f 1147 1148 1157
f 1148 1158 1157
f 1148 1149 1158
f 1149 1159 1158
f 1149 1150 1159
f 1150 1160 1159
f 1150 1151 1160
f 1151 1161 1160
f 1151 1152 1161
f 1152 1162 1161
f 1152 1153 1162
f 1153 1163 1162
f 1153 1154 1163
f 1154 1164 1163
f 1154 1145 1164
f 1145 1155 1164
f 1165 1166 1175
f 1166 1176 1175
f 1166 1167 1176
f 1167 1177 1176
f 1167 1168 1177
f 1168 1178 1177
f 1168 1169 1178
f 1169 1179 1178
f 1169 1170 1179
f 1170 1180 1179
f 1170 1171 1180
f 1171 1181 1180
f 1171 1172 1181
f 1172 1182 1181
f 1172 1173 1182
f 1173 1183 1182
f 1173 1174 1183
f 1174 1184 1183
f 1174 1165 1184
f 1165 1175 1184
