# Full-Body 3D Mesh - Frame 51
v 0.025026 -0.629040 -0.099183
v 0.058834 -0.629040 -0.104044
v 0.089903 -0.629040 -0.118233
v 0.115716 -0.629040 -0.140600
v 0.134182 -0.629040 -0.169334
v 0.143804 -0.629040 -0.202106
v 0.143804 -0.629040 -0.236261
v 0.134182 -0.629040 -0.269033
v 0.115716 -0.629040 -0.297767
v 0.089903 -0.629040 -0.320134
v 0.058834 -0.629040 -0.334323
v 0.025026 -0.629040 -0.339183
v 0.025026 -0.629040 -0.099183
v 0.053467 -0.610762 -0.104044
v 0.079604 -0.593965 -0.118233
v 0.101319 -0.580009 -0.140600
v 0.116854 -0.570026 -0.169334
v 0.124949 -0.564824 -0.202106
v 0.124949 -0.564824 -0.236261
v 0.116854 -0.570026 -0.269033
v 0.101319 -0.580009 -0.297767
v 0.079604 -0.593965 -0.320134
v 0.053467 -0.610762 -0.334323
v 0.025026 -0.629040 -0.339183
v 0.025026 -0.629040 -0.099183
v 0.039070 -0.598287 -0.104044
v 0.051977 -0.570026 -0.118233
v 0.062700 -0.546546 -0.140600
v 0.070371 -0.529748 -0.169334
v 0.074368 -0.520995 -0.202106
v 0.074368 -0.520995 -0.236261
v 0.070371 -0.529748 -0.269033
v 0.062700 -0.546546 -0.297767
v 0.051977 -0.570026 -0.320134
v 0.039070 -0.598287 -0.334323
v 0.025026 -0.629040 -0.339183
v 0.025026 -0.629040 -0.099183
v 0.020214 -0.595576 -0.104044
v 0.015793 -0.564824 -0.118233
v 0.012119 -0.539273 -0.140600
v 0.009491 -0.520995 -0.169334
v 0.008122 -0.511470 -0.202106
v 0.008122 -0.511470 -0.236261
v 0.009491 -0.520995 -0.269033
v 0.012119 -0.539273 -0.297767
v 0.015793 -0.564824 -0.320134
v 0.020214 -0.595576 -0.334323
v 0.025026 -0.629040 -0.339183
v 0.025026 -0.629040 -0.099183
v 0.002886 -0.603490 -0.104044
v -0.017460 -0.580009 -0.118233
v -0.034363 -0.560501 -0.140600
v -0.046456 -0.546546 -0.169334
v -0.052758 -0.539273 -0.202106
v -0.052758 -0.539273 -0.236261
v -0.046456 -0.546546 -0.269033
v -0.034363 -0.560501 -0.297767
v -0.017460 -0.580009 -0.320134
v 0.002886 -0.603490 -0.334323
v 0.025026 -0.629040 -0.339183
v 0.025026 -0.629040 -0.099183
v -0.007413 -0.619515 -0.104044
v -0.037223 -0.610762 -0.118233
v -0.061991 -0.603490 -0.140600
v -0.079708 -0.598287 -0.169334
v -0.088941 -0.595576 -0.202106
v -0.088941 -0.595576 -0.236261
v -0.079708 -0.598287 -0.269033
v -0.061991 -0.603490 -0.297767
v -0.037223 -0.610762 -0.320134
v -0.007413 -0.619515 -0.334323
v 0.025026 -0.629040 -0.339183
v 0.025026 -0.629040 -0.099183
v -0.007413 -0.638565 -0.104044
v -0.037223 -0.647318 -0.118233
v -0.061991 -0.654590 -0.140600
v -0.079708 -0.659793 -0.169334
v -0.088941 -0.662504 -0.202106
v -0.088941 -0.662504 -0.236261
v -0.079708 -0.659793 -0.269033
v -0.061991 -0.654590 -0.297767
v -0.037223 -0.647318 -0.320134
v -0.007413 -0.638565 -0.334323
v 0.025026 -0.629040 -0.339183
v 0.025026 -0.629040 -0.099183
v 0.002886 -0.654590 -0.104044
v -0.017460 -0.678071 -0.118233
v -0.034363 -0.697579 -0.140600
v -0.046456 -0.711535 -0.169334
v -0.052758 -0.718807 -0.202106
v -0.052758 -0.718807 -0.236261
v -0.046456 -0.711535 -0.269033
v -0.034363 -0.697579 -0.297767
v -0.017460 -0.678071 -0.320134
v 0.002886 -0.654590 -0.334323
v 0.025026 -0.629040 -0.339183
v 0.025026 -0.629040 -0.099183
v 0.020214 -0.662504 -0.104044
v 0.015793 -0.693257 -0.118233
v 0.012119 -0.718807 -0.140600
v 0.009491 -0.737085 -0.169334
v 0.008122 -0.746610 -0.202106
v 0.008122 -0.746610 -0.236261
v 0.009491 -0.737085 -0.269033
v 0.012119 -0.718807 -0.297767
v 0.015793 -0.693257 -0.320134
v 0.020214 -0.662504 -0.334323
v 0.025026 -0.629040 -0.339183
v 0.025026 -0.629040 -0.099183
v 0.039070 -0.659793 -0.104044
v 0.051977 -0.688054 -0.118233
v 0.062700 -0.711535 -0.140600
v 0.070371 -0.728332 -0.169334
v 0.074368 -0.737085 -0.202106
v 0.074368 -0.737085 -0.236261
v 0.070371 -0.728332 -0.269033
v 0.062700 -0.711535 -0.297767
v 0.051977 -0.688054 -0.320134
v 0.039070 -0.659793 -0.334323
v 0.025026 -0.629040 -0.339183
v 0.025026 -0.629040 -0.099183
v 0.053467 -0.647318 -0.104044
v 0.079604 -0.664115 -0.118233
v 0.101319 -0.678071 -0.140600
v 0.116854 -0.688054 -0.169334
v 0.124949 -0.693257 -0.202106
v 0.124949 -0.693257 -0.236261
v 0.116854 -0.688054 -0.269033
v 0.101319 -0.678071 -0.297767
v 0.079604 -0.664115 -0.320134
v 0.053467 -0.647318 -0.334323
v 0.025026 -0.629040 -0.339183
v 0.025026 -0.629040 -0.099183
v 0.058834 -0.629040 -0.104044
v 0.089903 -0.629040 -0.118233
v 0.115716 -0.629040 -0.140600
v 0.134182 -0.629040 -0.169334
v 0.143804 -0.629040 -0.202106
v 0.143804 -0.629040 -0.236261
v 0.134182 -0.629040 -0.269033
v 0.115716 -0.629040 -0.297767
v 0.089903 -0.629040 -0.320134
v 0.058834 -0.629040 -0.334323
v 0.025026 -0.629040 -0.339183
v 0.186752 -0.465101 -0.063650
v 0.185591 -0.488581 -0.056003
v 0.184972 -0.503093 -0.035999
v 0.185132 -0.503093 -0.011278
v 0.186008 -0.488581 0.008717
v 0.187267 -0.465101 0.016348
v 0.188427 -0.441621 0.008701
v 0.189046 -0.427109 -0.011303
v 0.188887 -0.427109 -0.036024
v 0.188010 -0.441621 -0.056019
v -0.155148 -0.447488 -0.061449
v -0.156308 -0.470969 -0.053803
v -0.156927 -0.485480 -0.033798
v -0.156768 -0.485480 -0.009077
v -0.155891 -0.470969 0.010917
v -0.154633 -0.447488 0.018549
v -0.153472 -0.424008 0.010902
v -0.152853 -0.409497 -0.009102
v -0.153013 -0.409497 -0.033823
v -0.153889 -0.424008 -0.053818
v 0.187009 -0.488728 -0.055928
v 0.165487 -0.476579 -0.055354
v 0.152185 -0.460045 -0.042671
v 0.152185 -0.445443 -0.022723
v 0.165487 -0.438349 -0.003130
v 0.187009 -0.441474 0.008625
v 0.208531 -0.453624 0.008051
v 0.221833 -0.470157 -0.004631
v 0.221833 -0.484760 -0.024579
v 0.208531 -0.491853 -0.044173
v 0.289177 -0.301267 -0.193154
v 0.267655 -0.289117 -0.192581
v 0.254354 -0.272583 -0.179898
v 0.254354 -0.257981 -0.159950
v 0.267655 -0.250888 -0.140357
v 0.289177 -0.254012 -0.128602
v 0.310699 -0.266162 -0.129175
v 0.324001 -0.282696 -0.141858
v 0.324001 -0.297298 -0.161806
v 0.310699 -0.304392 -0.181399
v 0.289177 -0.316914 -0.153295
v 0.270613 -0.306679 -0.140578
v 0.259140 -0.285351 -0.135614
v 0.259140 -0.261078 -0.140300
v 0.270613 -0.243131 -0.152847
v 0.289177 -0.238365 -0.168461
v 0.307742 -0.248601 -0.181178
v 0.319215 -0.269928 -0.186142
v 0.319215 -0.294201 -0.181456
v 0.307742 -0.312148 -0.168910
v 0.113465 -0.359774 -0.375290
v 0.094900 -0.349538 -0.362572
v 0.083427 -0.328210 -0.357608
v 0.083427 -0.303937 -0.362294
v 0.094900 -0.285990 -0.374841
v 0.113465 -0.281224 -0.390455
v 0.132029 -0.291460 -0.403173
v 0.143502 -0.312788 -0.408136
v 0.143502 -0.337061 -0.403450
v 0.132029 -0.355008 -0.390904
v -0.154890 -0.451281 -0.061270
v -0.176610 -0.459516 -0.052812
v -0.190034 -0.463158 -0.032375
v -0.190034 -0.460814 -0.007765
v -0.176610 -0.453381 0.011618
v -0.154890 -0.443696 0.018370
v -0.133170 -0.435460 0.009911
v -0.119746 -0.431819 -0.010526
v -0.119746 -0.434162 -0.035136
v -0.133170 -0.441596 -0.054519
v -0.247496 -0.228813 -0.082456
v -0.269216 -0.237049 -0.073998
v -0.282640 -0.240691 -0.053561
v -0.282640 -0.238347 -0.028951
v -0.269216 -0.230914 -0.009568
v -0.247496 -0.221229 -0.002816
v -0.225775 -0.212993 -0.011275
v -0.212351 -0.209352 -0.031712
v -0.212351 -0.211695 -0.056322
v -0.225775 -0.219129 -0.075705
v -0.247496 -0.262368 -0.056961
v -0.267643 -0.250896 -0.065540
v -0.280095 -0.229540 -0.065371
v -0.280095 -0.206458 -0.056518
v -0.267643 -0.190467 -0.042363
v -0.247496 -0.187674 -0.028312
v -0.227348 -0.199147 -0.019732
v -0.214897 -0.220503 -0.019901
v -0.214897 -0.243584 -0.028754
v -0.227348 -0.259576 -0.042910
v -0.144301 -0.200932 -0.217139
v -0.164448 -0.189459 -0.225719
v -0.176900 -0.168104 -0.225550
v -0.176900 -0.145022 -0.216697
v -0.164448 -0.129030 -0.202541
v -0.144301 -0.126238 -0.188490
v -0.124154 -0.137710 -0.179911
v -0.111702 -0.159066 -0.180080
v -0.111702 -0.182148 -0.188933
v -0.124154 -0.198139 -0.203088
v 0.187009 -0.461990 -0.063530
v 0.163671 -0.465428 -0.056136
v 0.149248 -0.468741 -0.036333
v 0.149248 -0.470663 -0.011687
v 0.163671 -0.470461 0.008390
v 0.187009 -0.468212 0.016228
v 0.210347 -0.464774 0.008833
v 0.224770 -0.461462 -0.010969
v 0.224770 -0.459539 -0.035616
v 0.210347 -0.459741 -0.055692
v 0.130438 -0.000478 -0.027532
v 0.107100 -0.003916 -0.020138
v 0.092676 -0.007228 -0.000336
v 0.092676 -0.009151 0.024311
v 0.107100 -0.008949 0.044387
v 0.130438 -0.006699 0.052225
v 0.153775 -0.003262 0.044831
v 0.168199 0.000051 0.025029
v 0.168199 0.001973 0.000382
v 0.153775 0.001771 -0.019694
v -0.154890 -0.446299 -0.061433
v -0.178355 -0.445051 -0.053753
v -0.192857 -0.444733 -0.033734
v -0.192857 -0.445468 -0.009024
v -0.178355 -0.446975 0.010940
v -0.154890 -0.448678 0.018532
v -0.131425 -0.449926 0.010852
v -0.116923 -0.450244 -0.009166
v -0.116923 -0.449509 -0.033877
v -0.131425 -0.448002 -0.053841
v -0.127623 -0.013116 -0.048547
v -0.151088 -0.011867 -0.040868
v -0.165590 -0.011550 -0.020849
v -0.165590 -0.012285 0.003861
v -0.151088 -0.013791 0.023825
v -0.127623 -0.015494 0.031417
v -0.104158 -0.016743 0.023737
v -0.089656 -0.017060 0.003719
v -0.089656 -0.016325 -0.020991
v -0.104158 -0.014819 -0.040955
v 0.133668 -0.003589 -0.027523
v 0.134020 -0.027080 -0.019830
v 0.133004 -0.041598 0.000153
v 0.131007 -0.041598 0.024794
v 0.128793 -0.027080 0.044680
v 0.127207 -0.003589 0.052216
v 0.126855 0.019903 0.044523
v 0.127871 0.034421 0.024540
v 0.129868 0.034421 -0.000101
v 0.132082 0.019903 -0.019987
v -0.124392 -0.014305 -0.048434
v -0.124040 -0.037796 -0.040742
v -0.125057 -0.052315 -0.020758
v -0.127053 -0.052315 0.003882
v -0.129268 -0.037796 0.023768
v -0.130854 -0.014305 0.031304
v -0.131206 0.009186 0.023611
v -0.130189 0.023705 0.003628
v -0.128193 0.023705 -0.021013
v -0.125978 0.009186 -0.040899
v 0.130438 -0.021531 -0.023403
v 0.107103 -0.020678 -0.015284
v 0.092682 -0.013297 0.003389
v 0.092682 -0.002208 0.025484
v 0.107103 0.008354 0.042561
v 0.130438 0.014354 0.048097
v 0.153772 0.013500 0.039977
v 0.168194 0.006120 0.021304
v 0.168194 -0.004969 -0.000791
v 0.153772 -0.015531 -0.017867
v 0.109254 0.131901 -0.100409
v 0.085920 0.132754 -0.092290
v 0.071498 0.140135 -0.073617
v 0.071498 0.151224 -0.051522
v 0.085920 0.161786 -0.034445
v 0.109254 0.167786 -0.028909
v 0.132589 0.166932 -0.037028
v 0.147010 0.159552 -0.055701
v 0.147010 0.148462 -0.077796
v 0.132589 0.137901 -0.094873
v 0.109254 0.168030 -0.100286
v 0.085829 0.166342 -0.092570
v 0.071351 0.158352 -0.074194
v 0.071351 0.147112 -0.052175
v 0.085829 0.136915 -0.034925
v 0.109254 0.131656 -0.029033
v 0.132680 0.133344 -0.036748
v 0.147158 0.141334 -0.055125
v 0.147158 0.152574 -0.077143
v 0.132680 0.162771 -0.094393
v 0.137435 0.461353 0.049450
v 0.114009 0.459665 0.057166
v 0.099531 0.451675 0.075542
v 0.099531 0.440435 0.097561
v 0.114009 0.430239 0.114811
v 0.137435 0.424980 0.120703
v 0.160861 0.426668 0.112988
v 0.175339 0.434658 0.094611
v 0.175339 0.445898 0.072593
v 0.160861 0.456094 0.055343
v -0.127623 -0.054161 -0.011958
v -0.151132 -0.046519 -0.011663
v -0.165661 -0.026573 -0.010185
v -0.165661 -0.001940 -0.008088
v -0.151132 0.017969 -0.006173
v -0.127623 0.025551 -0.005172
v -0.104114 0.017909 -0.005467
v -0.089585 -0.002038 -0.006946
v -0.089585 -0.026670 -0.009043
v -0.104114 -0.046579 -0.010957
v -0.124978 -0.039271 -0.186855
v -0.148487 -0.031629 -0.186560
v -0.163016 -0.011683 -0.185081
v -0.163016 0.012950 -0.182984
v -0.148487 0.032859 -0.181069
v -0.124978 0.040441 -0.180068
v -0.101469 0.032799 -0.180363
v -0.086940 0.012852 -0.181842
v -0.086940 -0.011780 -0.183939
v -0.101469 -0.031689 -0.185854
v -0.124978 -0.004063 -0.223191
v -0.148361 -0.000735 -0.215888
v -0.162812 0.003097 -0.196200
v -0.162812 0.005970 -0.171647
v -0.148361 0.006786 -0.151606
v -0.124978 0.005233 -0.143732
v -0.101596 0.001905 -0.151035
v -0.087144 -0.001928 -0.170723
v -0.087144 -0.004800 -0.195276
v -0.101596 -0.005616 -0.215317
v -0.095981 0.269998 -0.255255
v -0.119364 0.273326 -0.247953
v -0.133815 0.277159 -0.228265
v -0.133815 0.280032 -0.203711
v -0.119364 0.280847 -0.183670
v -0.095981 0.279294 -0.175797
v -0.072599 0.275966 -0.183099
v -0.058147 0.272134 -0.202787
v -0.058147 0.269261 -0.227341
v -0.072599 0.268445 -0.247382
v 0.076842 0.037262 0.003237
v 0.072287 0.034095 -0.004191
v 0.069472 0.026413 -0.008550
v 0.069472 0.017150 -0.008177
v 0.072287 0.009845 -0.003213
v 0.076842 0.007286 0.004445
v 0.081397 0.010453 0.011873
v 0.084212 0.018135 0.016232
v 0.084212 0.027398 0.015859
v 0.081397 0.034704 0.010895
v 0.051403 0.037880 0.018574
v 0.046848 0.034714 0.011146
v 0.044033 0.027032 0.006787
v 0.044033 0.017769 0.007160
v 0.046848 0.010463 0.012124
v 0.051403 0.007905 0.019782
v 0.055958 0.011071 0.027210
v 0.058773 0.018753 0.031569
v 0.058773 0.028016 0.031196
v 0.055958 0.035322 0.026232
v 0.051403 0.036620 0.013133
v 0.046020 0.031184 0.007897
v 0.042694 0.022581 0.006969
v 0.042694 0.014097 0.010706
v 0.046020 0.008972 0.017678
v 0.051403 0.009165 0.025223
v 0.056786 0.014601 0.030459
v 0.060113 0.023204 0.031387
v 0.060113 0.031688 0.027650
v 0.056786 0.036813 0.020678
v 0.031861 0.042692 0.026919
v 0.026478 0.037256 0.021683
v 0.023151 0.028652 0.020756
v 0.023151 0.020168 0.024492
v 0.026478 0.015043 0.031464
v 0.031861 0.015236 0.039010
v 0.037243 0.020672 0.044246
v 0.040570 0.029275 0.045173
v 0.040570 0.037759 0.041437
v 0.037243 0.042884 0.034465
v 0.031861 0.041162 0.024236
v 0.025464 0.035302 0.020968
v 0.021510 0.027020 0.022283
v 0.021510 0.019481 0.027678
v 0.025464 0.015564 0.035092
v 0.031861 0.016765 0.041693
v 0.038257 0.022625 0.044961
v 0.042211 0.030907 0.043646
v 0.042211 0.038446 0.038252
v 0.038257 0.042364 0.030838
v 0.012317 0.053152 0.040992
v 0.005920 0.047291 0.037724
v 0.001967 0.039009 0.039039
v 0.001967 0.031470 0.044433
v 0.005920 0.027553 0.051847
v 0.012317 0.028754 0.058449
v 0.018714 0.034615 0.061717
v 0.022667 0.042896 0.060402
v 0.022667 0.050436 0.055007
v 0.018714 0.054353 0.047593
v 0.012317 0.055492 0.046031
v 0.005093 0.051472 0.041836
v 0.000629 0.043434 0.040653
v 0.000629 0.034448 0.042933
v 0.005093 0.027947 0.047806
v 0.012317 0.026414 0.053410
v 0.019541 0.030434 0.057605
v 0.024005 0.038472 0.058788
v 0.024005 0.047457 0.056508
v 0.019541 0.053959 0.051635
v -0.003393 0.061014 0.067792
v -0.010617 0.056994 0.063597
v -0.015082 0.048956 0.062414
v -0.015082 0.039970 0.064694
v -0.010617 0.033469 0.069567
v -0.003393 0.031936 0.075171
v 0.003831 0.035956 0.079366
v 0.008295 0.043994 0.080550
v 0.008295 0.052980 0.078269
v 0.003831 0.059481 0.073397
v 0.073042 0.022274 -0.010670
v 0.076049 0.013779 -0.008496
v 0.079359 0.008528 -0.001610
v 0.081708 0.008528 0.007358
v 0.082197 0.013779 0.014983
v 0.080641 0.022274 0.018352
v 0.077634 0.030770 0.016178
v 0.074324 0.036020 0.009292
v 0.071976 0.036020 0.000324
v 0.071486 0.030770 -0.007301
v -0.004384 0.000054 0.009605
v -0.001377 -0.008442 0.011778
v 0.001933 -0.013692 0.018665
v 0.004282 -0.013692 0.027633
v 0.004771 -0.008442 0.035257
v 0.003215 0.000054 0.038626
v 0.000208 0.008549 0.036452
v -0.003102 0.013800 0.029566
v -0.005450 0.013800 0.020598
v -0.005940 0.008549 0.012973
v -0.001725 0.000054 0.009159
v -0.003961 -0.008413 0.012202
v -0.004907 -0.013645 0.019796
v -0.004202 -0.013645 0.029040
v -0.002116 -0.008413 0.036403
v 0.000556 0.000054 0.039072
v 0.002792 0.008520 0.036028
v 0.003739 0.013753 0.028434
v 0.003034 0.013753 0.019191
v 0.000947 0.008520 0.011828
v -0.023775 0.006482 0.010840
v -0.026011 -0.001984 0.013884
v -0.026957 -0.007217 0.021478
v -0.026252 -0.007217 0.030721
v -0.024166 -0.001984 0.038084
v -0.021494 0.006482 0.040753
v -0.019258 0.014948 0.037710
v -0.018312 0.020181 0.030116
v -0.019016 0.020181 0.020872
v -0.021103 0.014948 0.013509
v -0.022634 0.010287 0.011287
v -0.026619 0.001952 0.012063
v -0.029082 -0.004652 0.018085
v -0.029082 -0.007003 0.027053
v -0.026619 -0.004204 0.035540
v -0.022634 0.002677 0.040306
v -0.018650 0.011012 0.039530
v -0.016187 0.017616 0.033508
v -0.016187 0.019967 0.024541
v -0.018650 0.017168 0.016053
v -0.044328 0.020917 0.014075
v -0.048312 0.012583 0.014851
v -0.050775 0.005979 0.020873
v -0.050775 0.003627 0.029840
v -0.048312 0.006427 0.038328
v -0.044328 0.013308 0.043094
v -0.040343 0.021643 0.042317
v -0.037880 0.028247 0.036295
v -0.037880 0.030598 0.027328
v -0.040343 0.027798 0.018840
v -0.044328 0.010248 0.015247
v -0.050399 0.005875 0.020720
v -0.054152 0.005794 0.029197
v -0.054152 0.010037 0.037439
v -0.050399 0.016983 0.042300
v -0.044328 0.023978 0.041921
v -0.038256 0.028351 0.036448
v -0.034503 0.028431 0.027971
v -0.034503 0.024188 0.019729
v -0.038256 0.017243 0.014869
v -0.063398 0.026353 0.006957
v -0.069470 0.021980 0.012430
v -0.073223 0.021900 0.020907
v -0.073223 0.026143 0.029149
v -0.069470 0.033088 0.034009
v -0.063398 0.040083 0.033631
v -0.057327 0.044456 0.028158
v -0.053574 0.044536 0.019681
v -0.053574 0.040293 0.011439
v -0.057327 0.033348 0.006578
v 0.076573 0.022274 -0.011157
v 0.079261 0.013861 -0.008339
v 0.081025 0.008661 -0.000870
v 0.081191 0.008661 0.008399
v 0.079696 0.013861 0.015927
v 0.077110 0.022274 0.018839
v 0.074422 0.030687 0.016022
v 0.072658 0.035887 0.008552
v 0.072492 0.035887 -0.000717
v 0.073988 0.030687 -0.008245
v -0.002917 -0.002648 -0.009734
v -0.000229 -0.011061 -0.006917
v 0.001535 -0.016260 0.000553
v 0.001701 -0.016260 0.009822
v 0.000206 -0.011061 0.017350
v -0.002380 -0.002648 0.020262
v -0.005068 0.005766 0.017444
v -0.006832 0.010965 0.009975
v -0.006998 0.010965 0.000706
v -0.005502 0.005766 -0.006822
v -0.002790 -0.002648 -0.009735
v -0.005675 -0.010970 -0.006843
v -0.007404 -0.016113 0.000673
v -0.007316 -0.016113 0.009943
v -0.005445 -0.010970 0.017426
v -0.002506 -0.002648 0.020263
v 0.000378 0.005674 0.017371
v 0.002107 0.010818 0.009854
v 0.002020 0.010818 0.000584
v 0.000149 0.005674 -0.006898
v -0.026891 0.005787 -0.009508
v -0.029776 -0.002535 -0.006616
v -0.031505 -0.007679 0.000901
v -0.031418 -0.007679 0.010171
v -0.029547 -0.002535 0.017654
v -0.026608 0.005787 0.020491
v -0.023723 0.014109 0.017599
v -0.021994 0.019252 0.010082
v -0.022082 0.019252 0.000812
v -0.023952 0.014109 -0.006671
v -0.026750 0.005709 -0.009508
v -0.032595 -0.000877 -0.006609
v -0.036207 -0.004918 0.000912
v -0.036207 -0.004870 0.010182
v -0.032595 -0.000751 0.017661
v -0.026750 0.005865 0.020491
v -0.020905 0.012451 0.017592
v -0.017292 0.016491 0.010071
v -0.017292 0.016443 0.000801
v -0.020905 0.012324 -0.006678
v -0.044344 0.021288 -0.009589
v -0.050189 0.014702 -0.006690
v -0.053801 0.010661 0.000831
v -0.053801 0.010709 0.010101
v -0.050189 0.014828 0.017580
v -0.044344 0.021443 0.020410
v -0.038499 0.028029 0.017511
v -0.034886 0.032070 0.009990
v -0.034886 0.032022 0.000720
v -0.038499 0.027903 -0.006759
v -0.044344 0.029587 -0.007135
v -0.048512 0.021519 -0.008998
v -0.051088 0.013392 -0.005357
v -0.051088 0.008310 0.002397
v -0.048512 0.008216 0.011302
v -0.044344 0.013144 0.017957
v -0.040176 0.021212 0.019819
v -0.037600 0.029339 0.016178
v -0.037600 0.034421 0.008424
v -0.040176 0.034515 -0.000481
v -0.068724 0.040527 0.000034
v -0.072893 0.032459 -0.001829
v -0.075469 0.024332 0.001813
v -0.075469 0.019251 0.009567
v -0.072893 0.019156 0.018471
v -0.068724 0.024084 0.025126
v -0.064556 0.032153 0.026988
v -0.061980 0.040280 0.023347
v -0.061980 0.045361 0.015593
v -0.064556 0.045455 0.006688
v 0.080460 0.022274 -0.010716
v 0.082015 0.013766 -0.007378
v 0.081594 0.008508 0.000246
v 0.079358 0.008508 0.009243
v 0.076161 0.013766 0.016176
v 0.073224 0.022274 0.018398
v 0.071669 0.030782 0.015060
v 0.072090 0.036040 0.007436
v 0.074326 0.036040 -0.001561
v 0.077523 0.030782 -0.008494
v 0.003379 0.000669 -0.029874
v 0.004933 -0.007839 -0.026536
v 0.004512 -0.013097 -0.018912
v 0.002276 -0.013097 -0.009915
v -0.000921 -0.007839 -0.002982
v -0.003858 0.000669 -0.000760
v -0.005413 0.009176 -0.004098
v -0.004992 0.014434 -0.011722
v -0.002755 0.014434 -0.020719
v 0.000442 0.009176 -0.027652
v -0.000729 0.000669 -0.030309
v -0.003714 -0.007593 -0.027345
v -0.005371 -0.012699 -0.019787
v -0.005068 -0.012699 -0.010522
v -0.002921 -0.007593 -0.003088
v 0.000250 0.000669 -0.000325
v 0.003235 0.008930 -0.003289
v 0.004892 0.014036 -0.010847
v 0.004589 0.014036 -0.020112
v 0.002442 0.008930 -0.027546
v -0.020170 0.007919 -0.029674
v -0.023154 -0.000342 -0.026710
v -0.024812 -0.005448 -0.019152
v -0.024509 -0.005448 -0.009887
v -0.022362 -0.000342 -0.002453
v -0.019191 0.007919 0.000310
v -0.016206 0.016181 -0.002654
v -0.014549 0.021287 -0.010212
v -0.014851 0.021287 -0.019477
v -0.016999 0.016181 -0.026911
v -0.019680 0.015556 -0.027592
v -0.024139 0.007551 -0.028999
v -0.026895 -0.000313 -0.024937
v -0.026895 -0.005033 -0.016958
v -0.024139 -0.004806 -0.008110
v -0.019680 0.000282 -0.001772
v -0.015221 0.008287 -0.000365
v -0.012466 0.016152 -0.004427
v -0.012466 0.020872 -0.012406
v -0.015221 0.020644 -0.021254
v -0.041402 0.026516 -0.021109
v -0.045861 0.018511 -0.022516
v -0.048617 0.010647 -0.018454
v -0.048617 0.005927 -0.010475
v -0.045861 0.006154 -0.001627
v -0.041402 0.011242 0.004712
v -0.036943 0.019247 0.006119
v -0.034188 0.027112 0.002057
v -0.034188 0.031832 -0.005922
v -0.036943 0.031604 -0.014771
v -0.045620 0.018879 -0.022594
v -0.047596 0.010553 -0.019029
v -0.047206 0.005406 -0.011328
v -0.044600 0.005406 -0.002432
v -0.040772 0.010553 0.004262
v -0.037185 0.018879 0.006196
v -0.035209 0.027206 0.002632
v -0.035598 0.032352 -0.005069
v -0.038205 0.032352 -0.013966
v -0.042033 0.027206 -0.020659
v -0.069609 0.027581 -0.015565
v -0.071585 0.019254 -0.012001
v -0.071195 0.014108 -0.004300
v -0.068589 0.014108 0.004597
v -0.064761 0.019254 0.011290
v -0.061174 0.027581 0.013225
v -0.059198 0.035907 0.009661
v -0.059587 0.041054 0.001959
v -0.062194 0.041054 -0.006937
v -0.066022 0.035907 -0.013631
v 0.076842 0.007859 0.007987
v 0.072781 0.012775 0.014717
v 0.070271 0.021320 0.017292
v 0.070271 0.030229 0.014729
v 0.072781 0.036100 0.008008
v 0.076842 0.036690 -0.000305
v 0.080902 0.031773 -0.007034
v 0.083412 0.023229 -0.009610
v 0.083412 0.014319 -0.007047
v 0.080902 0.008448 -0.000326
v 0.008686 -0.001917 -0.025999
v 0.004625 0.003000 -0.019270
v 0.002116 0.011544 -0.016695
v 0.002116 0.020454 -0.019257
v 0.004625 0.026324 -0.025979
v 0.008686 0.026914 -0.034292
v 0.012747 0.021998 -0.041021
v 0.015256 0.013453 -0.043596
v 0.015256 0.004544 -0.041033
v 0.012747 -0.001327 -0.034312
v 0.006928 0.012499 -0.045042
v 0.005502 0.003862 -0.041989
v 0.005292 -0.001475 -0.034412
v 0.006379 -0.001475 -0.025206
v 0.008347 0.003862 -0.017886
v 0.010444 0.012499 -0.015249
v 0.011870 0.021135 -0.018302
v 0.012080 0.026473 -0.025878
v 0.010993 0.026473 -0.035085
v 0.009025 0.021135 -0.042405
v -0.008078 0.015602 -0.043271
v -0.009504 0.006966 -0.040218
v -0.009714 0.001628 -0.032641
v -0.008627 0.001628 -0.023435
v -0.006660 0.006966 -0.016115
v -0.004562 0.015602 -0.013478
v -0.003136 0.024239 -0.016531
v -0.002927 0.029576 -0.024107
v -0.004013 0.029576 -0.033314
v -0.005981 0.024239 -0.040634
v -0.007396 0.015602 -0.043336
v -0.009840 0.007195 -0.040288
v -0.010940 0.001999 -0.032689
v -0.010275 0.001999 -0.023443
v -0.008099 0.007195 -0.016080
v -0.005244 0.015602 -0.013413
v -0.002800 0.024009 -0.016461
v -0.001701 0.029205 -0.024059
v -0.002366 0.029205 -0.033306
v -0.004541 0.024009 -0.040669
v -0.030437 0.022901 -0.041679
v -0.032881 0.014494 -0.038631
v -0.033980 0.009298 -0.031032
v -0.033315 0.009298 -0.021786
v -0.031140 0.014494 -0.014423
v -0.028285 0.022901 -0.011756
v -0.025841 0.031308 -0.014804
v -0.024741 0.036504 -0.022402
v -0.025406 0.036504 -0.031649
v -0.027582 0.031308 -0.039012
v -0.029724 0.022901 -0.041713
v -0.031450 0.014269 -0.038806
v -0.032378 0.008934 -0.031281
v -0.032153 0.008934 -0.022013
v -0.030863 0.014269 -0.014542
v -0.028998 0.022901 -0.011722
v -0.027272 0.031533 -0.014629
v -0.026344 0.036868 -0.022154
v -0.026568 0.036868 -0.031422
v -0.027859 0.031533 -0.038892
v -0.050828 0.027293 -0.041202
v -0.052553 0.018661 -0.038295
v -0.053481 0.013326 -0.030770
v -0.053257 0.013326 -0.021503
v -0.051966 0.018661 -0.014032
v -0.050102 0.027293 -0.011211
v -0.048376 0.035925 -0.014118
v -0.047448 0.041259 -0.021643
v -0.047672 0.041259 -0.030911
v -0.048963 0.035925 -0.038382
f 1 2 13
f 2 14 13
f 2 3 14
f 3 15 14
f 3 4 15
f 4 16 15
f 4 5 16
f 5 17 16
f 5 6 17
f 6 18 17
f 6 7 18
f 7 19 18
f 7 8 19
f 8 20 19
f 8 9 20
f 9 21 20
f 9 10 21
f 10 22 21
f 10 11 22
f 11 23 22
f 11 12 23
f 12 24 23
f 13 14 25
f 14 26 25
f 14 15 26
f 15 27 26
f 15 16 27
f 16 28 27
f 16 17 28
f 17 29 28
f 17 18 29
f 18 30 29
f 18 19 30
f 19 31 30
f 19 20 31
f 20 32 31
f 20 21 32
f 21 33 32
f 21 22 33
f 22 34 33
f 22 23 34
f 23 35 34
f 23 24 35
f 24 36 35
f 25 26 37
f 26 38 37
f 26 27 38
f 27 39 38
f 27 28 39
f 28 40 39
f 28 29 40
f 29 41 40
f 29 30 41
f 30 42 41
f 30 31 42
f 31 43 42
f 31 32 43
f 32 44 43
f 32 33 44
f 33 45 44
f 33 34 45
f 34 46 45
f 34 35 46
f 35 47 46
f 35 36 47
f 36 48 47
f 37 38 49
f 38 50 49
f 38 39 50
f 39 51 50
f 39 40 51
f 40 52 51
f 40 41 52
f 41 53 52
f 41 42 53
f 42 54 53
f 42 43 54
f 43 55 54
f 43 44 55
f 44 56 55
f 44 45 56
f 45 57 56
f 45 46 57
f 46 58 57
f 46 47 58
f 47 59 58
f 47 48 59
f 48 60 59
f 49 50 61
f 50 62 61
f 50 51 62
f 51 63 62
f 51 52 63
f 52 64 63
f 52 53 64
f 53 65 64
f 53 54 65
f 54 66 65
f 54 55 66
f 55 67 66
f 55 56 67
f 56 68 67
f 56 57 68
f 57 69 68
f 57 58 69
f 58 70 69
f 58 59 70
f 59 71 70
f 59 60 71
f 60 72 71
f 61 62 73
f 62 74 73
f 62 63 74
f 63 75 74
f 63 64 75
f 64 76 75
f 64 65 76
f 65 77 76
f 65 66 77
f 66 78 77
f 66 67 78
f 67 79 78
f 67 68 79
f 68 80 79
f 68 69 80
f 69 81 80
f 69 70 81
f 70 82 81
f 70 71 82
f 71 83 82
f 71 72 83
f 72 84 83
f 73 74 85
f 74 86 85
f 74 75 86
f 75 87 86
f 75 76 87
f 76 88 87
f 76 77 88
f 77 89 88
f 77 78 89
f 78 90 89
f 78 79 90
f 79 91 90
f 79 80 91
f 80 92 91
f 80 81 92
f 81 93 92
f 81 82 93
f 82 94 93
f 82 83 94
f 83 95 94
f 83 84 95
f 84 96 95
f 85 86 97
f 86 98 97
f 86 87 98
f 87 99 98
f 87 88 99
f 88 100 99
f 88 89 100
f 89 101 100
f 89 90 101
f 90 102 101
f 90 91 102
f 91 103 102
f 91 92 103
f 92 104 103
f 92 93 104
f 93 105 104
f 93 94 105
f 94 106 105
f 94 95 106
f 95 107 106
f 95 96 107
f 96 108 107
f 97 98 109
f 98 110 109
f 98 99 110
f 99 111 110
f 99 100 111
f 100 112 111
f 100 101 112
f 101 113 112
f 101 102 113
f 102 114 113
f 102 103 114
f 103 115 114
f 103 104 115
f 104 116 115
f 104 105 116
f 105 117 116
f 105 106 117
f 106 118 117
f 106 107 118
f 107 119 118
f 107 108 119
f 108 120 119
f 109 110 121
f 110 122 121
f 110 111 122
f 111 123 122
f 111 112 123
f 112 124 123
f 112 113 124
f 113 125 124
f 113 114 125
f 114 126 125
f 114 115 126
f 115 127 126
f 115 116 127
f 116 128 127
f 116 117 128
f 117 129 128
f 117 118 129
f 118 130 129
f 118 119 130
f 119 131 130
f 119 120 131
f 120 132 131
f 121 122 133
f 122 134 133
f 122 123 134
f 123 135 134
f 123 124 135
f 124 136 135
f 124 125 136
f 125 137 136
f 125 126 137
f 126 138 137
f 126 127 138
f 127 139 138
f 127 128 139
f 128 140 139
f 128 129 140
f 129 141 140
f 129 130 141
f 130 142 141
f 130 131 142
f 131 143 142
f 131 132 143
f 132 144 143
f 145 146 155
f 146 156 155
f 146 147 156
f 147 157 156
f 147 148 157
f 148 158 157
f 148 149 158
f 149 159 158
f 149 150 159
f 150 160 159
f 150 151 160
f 151 161 160
f 151 152 161
f 152 162 161
f 152 153 162
f 153 163 162
f 153 154 163
f 154 164 163
f 154 145 164
f 145 155 164
f 165 166 175
f 166 176 175
f 166 167 176
f 167 177 176
f 167 168 177
f 168 178 177
f 168 169 178
f 169 179 178
f 169 170 179
f 170 180 179
f 170 171 180
f 171 181 180
f 171 172 181
f 172 182 181
f 172 173 182
f 173 183 182
f 173 174 183
f 174 184 183
f 174 165 184
f 165 175 184
f 185 186 195
f 186 196 195
f 186 187 196
f 187 197 196
f 187 188 197
f 188 198 197
f 188 189 198
f 189 199 198
f 189 190 199
f 190 200 199
f 190 191 200
f 191 201 200
f 191 192 201
f 192 202 201
f 192 193 202
f 193 203 202
f 193 194 203
f 194 204 203
f 194 185 204
f 185 195 204
f 205 206 215
f 206 216 215
f 206 207 216
f 207 217 216
f 207 208 217
f 208 218 217
f 208 209 218
f 209 219 218
f 209 210 219
f 210 220 219
f 210 211 220
f 211 221 220
f 211 212 221
f 212 222 221
f 212 213 222
f 213 223 222
f 213 214 223
f 214 224 223
f 214 205 224
f 205 215 224
f 225 226 235
f 226 236 235
f 226 227 236
f 227 237 236
f 227 228 237
f 228 238 237
f 228 229 238
f 229 239 238
f 229 230 239
f 230 240 239
f 230 231 240
f 231 241 240
f 231 232 241
f 232 242 241
f 232 233 242
f 233 243 242
f 233 234 243
f 234 244 243
f 234 225 244
f 225 235 244
f 245 246 255
f 246 256 255
f 246 247 256
f 247 257 256
f 247 248 257
f 248 258 257
f 248 249 258
f 249 259 258
f 249 250 259
f 250 260 259
f 250 251 260
f 251 261 260
f 251 252 261
f 252 262 261
f 252 253 262
f 253 263 262
f 253 254 263
f 254 264 263
f 254 245 264
f 245 255 264
f 265 266 275
f 266 276 275
f 266 267 276
f 267 277 276
f 267 268 277
f 268 278 277
f 268 269 278
f 269 279 278
f 269 270 279
f 270 280 279
f 270 271 280
f 271 281 280
f 271 272 281
f 272 282 281
f 272 273 282
f 273 283 282
f 273 274 283
f 274 284 283
f 274 265 284
f 265 275 284
f 285 286 295
f 286 296 295
f 286 287 296
f 287 297 296
f 287 288 297
f 288 298 297
f 288 289 298
f 289 299 298
f 289 290 299
f 290 300 299
f 290 291 300
f 291 301 300
f 291 292 301
f 292 302 301
f 292 293 302
f 293 303 302
f 293 294 303
f 294 304 303
f 294 285 304
f 285 295 304
f 305 306 315
f 306 316 315
f 306 307 316
f 307 317 316
f 307 308 317
f 308 318 317
f 308 309 318
f 309 319 318
f 309 310 319
f 310 320 319
f 310 311 320
f 311 321 320
f 311 312 321
f 312 322 321
f 312 313 322
f 313 323 322
f 313 314 323
f 314 324 323
f 314 305 324
f 305 315 324
f 325 326 335
f 326 336 335
f 326 327 336
f 327 337 336
f 327 328 337
f 328 338 337
f 328 329 338
f 329 339 338
f 329 330 339
f 330 340 339
f 330 331 340
f 331 341 340
f 331 332 341
f 332 342 341
f 332 333 342
f 333 343 342
f 333 334 343
f 334 344 343
f 334 325 344
f 325 335 344
f 345 346 355
f 346 356 355
f 346 347 356
f 347 357 356
f 347 348 357
f 348 358 357
f 348 349 358
f 349 359 358
f 349 350 359
f 350 360 359
f 350 351 360
f 351 361 360
f 351 352 361
f 352 362 361
f 352 353 362
f 353 363 362
f 353 354 363
f 354 364 363
f 354 345 364
f 345 355 364
f 365 366 375
f 366 376 375
f 366 367 376
f 367 377 376
f 367 368 377
f 368 378 377
f 368 369 378
f 369 379 378
f 369 370 379
f 370 380 379
f 370 371 380
f 371 381 380
f 371 372 381
f 372 382 381
f 372 373 382
f 373 383 382
f 373 374 383
f 374 384 383
f 374 365 384
f 365 375 384
f 385 386 395
f 386 396 395
f 386 387 396
f 387 397 396
f 387 388 397
f 388 398 397
f 388 389 398
f 389 399 398
f 389 390 399
f 390 400 399
f 390 391 400
f 391 401 400
f 391 392 401
f 392 402 401
f 392 393 402
f 393 403 402
f 393 394 403
f 394 404 403
f 394 385 404
f 385 395 404
f 405 406 415
f 406 416 415
f 406 407 416
f 407 417 416
f 407 408 417
f 408 418 417
f 408 409 418
f 409 419 418
f 409 410 419
f 410 420 419
f 410 411 420
f 411 421 420
f 411 412 421
f 412 422 421
f 412 413 422
f 413 423 422
f 413 414 423
f 414 424 423
f 414 405 424
f 405 415 424
f 425 426 435
f 426 436 435
f 426 427 436
f 427 437 436
f 427 428 437
f 428 438 437
f 428 429 438
f 429 439 438
f 429 430 439
f 430 440 439
f 430 431 440
f 431 441 440
f 431 432 441
f 432 442 441
f 432 433 442
f 433 443 442
f 433 434 443
f 434 444 443
f 434 425 444
f 425 435 444
f 445 446 455
f 446 456 455
f 446 447 456
f 447 457 456
f 447 448 457
f 448 458 457
f 448 449 458
f 449 459 458
f 449 450 459
f 450 460 459
f 450 451 460
f 451 461 460
f 451 452 461
f 452 462 461
f 452 453 462
f 453 463 462
f 453 454 463
f 454 464 463
f 454 445 464
f 445 455 464
f 465 466 475
f 466 476 475
f 466 467 476
f 467 477 476
f 467 468 477
f 468 478 477
f 468 469 478
f 469 479 478
f 469 470 479
f 470 480 479
f 470 471 480
f 471 481 480
f 471 472 481
f 472 482 481
f 472 473 482
f 473 483 482
f 473 474 483
f 474 484 483
f 474 465 484
f 465 475 484
f 485 486 495
f 486 496 495
f 486 487 496
f 487 497 496
f 487 488 497
f 488 498 497
f 488 489 498
f 489 499 498
f 489 490 499
f 490 500 499
f 490 491 500
f 491 501 500
f 491 492 501
f 492 502 501
f 492 493 502
f 493 503 502
f 493 494 503
f 494 504 503
f 494 485 504
f 485 495 504
f 505 506 515
f 506 516 515
f 506 507 516
f 507 517 516
f 507 508 517
f 508 518 517
f 508 509 518
f 509 519 518
f 509 510 519
f 510 520 519
f 510 511 520
f 511 521 520
f 511 512 521
f 512 522 521
f 512 513 522
f 513 523 522
f 513 514 523
f 514 524 523
f 514 505 524
f 505 515 524
f 525 526 535
f 526 536 535
f 526 527 536
f 527 537 536
f 527 528 537
f 528 538 537
f 528 529 538
f 529 539 538
f 529 530 539
f 530 540 539
f 530 531 540
f 531 541 540
f 531 532 541
f 532 542 541
f 532 533 542
f 533 543 542
f 533 534 543
f 534 544 543
f 534 525 544
f 525 535 544
f 545 546 555
f 546 556 555
f 546 547 556
f 547 557 556
f 547 548 557
f 548 558 557
f 548 549 558
f 549 559 558
f 549 550 559
f 550 560 559
f 550 551 560
f 551 561 560
f 551 552 561
f 552 562 561
f 552 553 562
f 553 563 562
f 553 554 563
f 554 564 563
f 554 545 564
f 545 555 564
f 565 566 575
f 566 576 575
f 566 567 576
f 567 577 576
f 567 568 577
f 568 578 577
f 568 569 578
f 569 579 578
f 569 570 579
f 570 580 579
f 570 571 580
f 571 581 580
f 571 572 581
f 572 582 581
f 572 573 582
f 573 583 582
f 573 574 583
f 574 584 583
f 574 565 584
f 565 575 584
f 585 586 595
f 586 596 595
f 586 587 596
f 587 597 596
f 587 588 597
f 588 598 597
f 588 589 598
f 589 599 598
f 589 590 599
f 590 600 599
f 590 591 600
f 591 601 600
f 591 592 601
f 592 602 601
f 592 593 602
f 593 603 602
f 593 594 603
f 594 604 603
f 594 585 604
f 585 595 604
f 605 606 615
f 606 616 615
f 606 607 616
f 607 617 616
f 607 608 617
f 608 618 617
f 608 609 618
f 609 619 618
f 609 610 619
f 610 620 619
f 610 611 620
f 611 621 620
f 611 612 621
f 612 622 621
f 612 613 622
f 613 623 622
f 613 614 623
f 614 624 623
f 614 605 624
f 605 615 624
f 625 626 635
f 626 636 635
f 626 627 636
f 627 637 636
f 627 628 637
f 628 638 637
f 628 629 638
f 629 639 638
f 629 630 639
f 630 640 639
f 630 631 640
f 631 641 640
f 631 632 641
f 632 642 641
f 632 633 642
f 633 643 642
f 633 634 643
f 634 644 643
f 634 625 644
f 625 635 644
f 645 646 655
f 646 656 655
f 646 647 656
f 647 657 656
f 647 648 657
f 648 658 657
f 648 649 658
f 649 659 658
f 649 650 659
f 650 660 659
f 650 651 660
f 651 661 660
f 651 652 661
f 652 662 661
f 652 653 662
f 653 663 662
f 653 654 663
f 654 664 663
f 654 645 664
f 645 655 664
f 665 666 675
f 666 676 675
f 666 667 676
f 667 677 676
f 667 668 677
f 668 678 677
f 668 669 678
f 669 679 678
f 669 670 679
f 670 680 679
f 670 671 680
f 671 681 680
f 671 672 681
f 672 682 681
f 672 673 682
f 673 683 682
f 673 674 683
f 674 684 683
f 674 665 684
f 665 675 684
f 685 686 695
f 686 696 695
f 686 687 696
f 687 697 696
f 687 688 697
f 688 698 697
f 688 689 698
f 689 699 698
f 689 690 699
f 690 700 699
f 690 691 700
f 691 701 700
f 691 692 701
f 692 702 701
f 692 693 702
f 693 703 702
f 693 694 703
f 694 704 703
f 694 685 704
f 685 695 704
f 705 706 715
f 706 716 715
f 706 707 716
f 707 717 716
f 707 708 717
f 708 718 717
f 708 709 718
f 709 719 718
f 709 710 719
f 710 720 719
f 710 711 720
f 711 721 720
f 711 712 721
f 712 722 721
f 712 713 722
f 713 723 722
f 713 714 723
f 714 724 723
f 714 705 724
f 705 715 724
f 725 726 735
f 726 736 735
f 726 727 736
f 727 737 736
f 727 728 737
f 728 738 737
f 728 729 738
f 729 739 738
f 729 730 739
f 730 740 739
f 730 731 740
f 731 741 740
f 731 732 741
f 732 742 741
f 732 733 742
f 733 743 742
f 733 734 743
f 734 744 743
f 734 725 744
f 725 735 744
f 745 746 755
f 746 756 755
f 746 747 756
f 747 757 756
f 747 748 757
f 748 758 757
f 748 749 758
f 749 759 758
f 749 750 759
f 750 760 759
f 750 751 760
f 751 761 760
f 751 752 761
f 752 762 761
f 752 753 762
f 753 763 762
f 753 754 763
f 754 764 763
f 754 745 764
f 745 755 764
f 765 766 775
f 766 776 775
f 766 767 776
f 767 777 776
f 767 768 777
f 768 778 777
f 768 769 778
f 769 779 778
f 769 770 779
f 770 780 779
f 770 771 780
f 771 781 780
f 771 772 781
f 772 782 781
f 772 773 782
f 773 783 782
f 773 774 783
f 774 784 783
f 774 765 784
f 765 775 784
