# Full-Body 3D Mesh - Frame 80
v 0.007259 -0.655552 -0.114132
v 0.041067 -0.655552 -0.118993
v 0.072136 -0.655552 -0.133182
v 0.097949 -0.655552 -0.155549
v 0.116414 -0.655552 -0.184283
v 0.126037 -0.655552 -0.217055
v 0.126037 -0.655552 -0.251210
v 0.116414 -0.655552 -0.283982
v 0.097949 -0.655552 -0.312716
v 0.072136 -0.655552 -0.335083
v 0.041067 -0.655552 -0.349272
v 0.007259 -0.655552 -0.354132
v 0.007259 -0.655552 -0.114132
v 0.035700 -0.637274 -0.118993
v 0.061837 -0.620477 -0.133182
v 0.083552 -0.606521 -0.155549
v 0.099086 -0.596538 -0.184283
v 0.107182 -0.591335 -0.217055
v 0.107182 -0.591335 -0.251210
v 0.099086 -0.596538 -0.283982
v 0.083552 -0.606521 -0.312716
v 0.061837 -0.620477 -0.335083
v 0.035700 -0.637274 -0.349272
v 0.007259 -0.655552 -0.354132
v 0.007259 -0.655552 -0.114132
v 0.021303 -0.624799 -0.118993
v 0.034209 -0.596538 -0.133182
v 0.044933 -0.573057 -0.155549
v 0.052604 -0.556260 -0.184283
v 0.056601 -0.547507 -0.217055
v 0.056601 -0.547507 -0.251210
v 0.052604 -0.556260 -0.283982
v 0.044933 -0.573057 -0.312716
v 0.034209 -0.596538 -0.335083
v 0.021303 -0.624799 -0.349272
v 0.007259 -0.655552 -0.354132
v 0.007259 -0.655552 -0.114132
v 0.002447 -0.622088 -0.118993
v -0.001974 -0.591335 -0.133182
v -0.005648 -0.565785 -0.155549
v -0.008276 -0.547507 -0.184283
v -0.009645 -0.537982 -0.217055
v -0.009645 -0.537982 -0.251210
v -0.008276 -0.547507 -0.283982
v -0.005648 -0.565785 -0.312716
v -0.001974 -0.591335 -0.335083
v 0.002447 -0.622088 -0.349272
v 0.007259 -0.655552 -0.354132
v 0.007259 -0.655552 -0.114132
v -0.014881 -0.630001 -0.118993
v -0.035227 -0.606521 -0.133182
v -0.052131 -0.587013 -0.155549
v -0.064223 -0.573057 -0.184283
v -0.070525 -0.565785 -0.217055
v -0.070525 -0.565785 -0.251210
v -0.064223 -0.573057 -0.283982
v -0.052131 -0.587013 -0.312716
v -0.035227 -0.606521 -0.335083
v -0.014881 -0.630001 -0.349272
v 0.007259 -0.655552 -0.354132
v 0.007259 -0.655552 -0.114132
v -0.025180 -0.646027 -0.118993
v -0.054990 -0.637274 -0.133182
v -0.079758 -0.630001 -0.155549
v -0.097476 -0.624799 -0.184283
v -0.106709 -0.622088 -0.217055
v -0.106709 -0.622088 -0.251210
v -0.097476 -0.624799 -0.283982
v -0.079758 -0.630001 -0.312716
v -0.054990 -0.637274 -0.335083
v -0.025180 -0.646027 -0.349272
v 0.007259 -0.655552 -0.354132
v 0.007259 -0.655552 -0.114132
v -0.025180 -0.665076 -0.118993
v -0.054990 -0.673830 -0.133182
v -0.079758 -0.681102 -0.155549
v -0.097476 -0.686304 -0.184283
v -0.106709 -0.689015 -0.217055
v -0.106709 -0.689015 -0.251210
v -0.097476 -0.686304 -0.283982
v -0.079758 -0.681102 -0.312716
v -0.054990 -0.673830 -0.335083
v -0.025180 -0.665076 -0.349272
v 0.007259 -0.655552 -0.354132
v 0.007259 -0.655552 -0.114132
v -0.014881 -0.681102 -0.118993
v -0.035227 -0.704582 -0.133182
v -0.052131 -0.724091 -0.155549
v -0.064223 -0.738046 -0.184283
v -0.070525 -0.745319 -0.217055
v -0.070525 -0.745319 -0.251210
v -0.064223 -0.738046 -0.283982
v -0.052131 -0.724091 -0.312716
v -0.035227 -0.704582 -0.335083
v -0.014881 -0.681102 -0.349272
v 0.007259 -0.655552 -0.354132
v 0.007259 -0.655552 -0.114132
v 0.002447 -0.689015 -0.118993
v -0.001974 -0.719768 -0.133182
v -0.005648 -0.745319 -0.155549
v -0.008276 -0.763596 -0.184283
v -0.009645 -0.773121 -0.217055
v -0.009645 -0.773121 -0.251210
v -0.008276 -0.763596 -0.283982
v -0.005648 -0.745319 -0.312716
v -0.001974 -0.719768 -0.335083
v 0.002447 -0.689015 -0.349272
v 0.007259 -0.655552 -0.354132
v 0.007259 -0.655552 -0.114132
v 0.021303 -0.686304 -0.118993
v 0.034209 -0.714566 -0.133182
v 0.044933 -0.738046 -0.155549
v 0.052604 -0.754843 -0.184283
v 0.056601 -0.763596 -0.217055
v 0.056601 -0.763596 -0.251210
v 0.052604 -0.754843 -0.283982
v 0.044933 -0.738046 -0.312716
v 0.034209 -0.714566 -0.335083
v 0.021303 -0.686304 -0.349272
v 0.007259 -0.655552 -0.354132
v 0.007259 -0.655552 -0.114132
v 0.035700 -0.673830 -0.118993
v 0.061837 -0.690627 -0.133182
v 0.083552 -0.704582 -0.155549
v 0.099086 -0.714566 -0.184283
v 0.107182 -0.719768 -0.217055
v 0.107182 -0.719768 -0.251210
v 0.099086 -0.714566 -0.283982
v 0.083552 -0.704582 -0.312716
v 0.061837 -0.690627 -0.335083
v 0.035700 -0.673830 -0.349272
v 0.007259 -0.655552 -0.354132
v 0.007259 -0.655552 -0.114132
v 0.041067 -0.655552 -0.118993
v 0.072136 -0.655552 -0.133182
v 0.097949 -0.655552 -0.155549
v 0.116414 -0.655552 -0.184283
v 0.126037 -0.655552 -0.217055
v 0.126037 -0.655552 -0.251210
v 0.116414 -0.655552 -0.283982
v 0.097949 -0.655552 -0.312716
v 0.072136 -0.655552 -0.335083
v 0.041067 -0.655552 -0.349272
v 0.007259 -0.655552 -0.354132
v 0.169525 -0.455359 -0.082390
v 0.169077 -0.478870 -0.074764
v 0.168112 -0.493400 -0.054787
v 0.166998 -0.493400 -0.030090
v 0.166161 -0.478870 -0.010108
v 0.165920 -0.455359 -0.002472
v 0.166368 -0.431847 -0.010099
v 0.167333 -0.417317 -0.030075
v 0.168447 -0.417317 -0.054772
v 0.169284 -0.431847 -0.074754
v -0.177679 -0.453829 -0.098051
v -0.178127 -0.477340 -0.090424
v -0.179092 -0.491871 -0.070447
v -0.180206 -0.491871 -0.045751
v -0.181043 -0.477340 -0.025768
v -0.181284 -0.453829 -0.018132
v -0.180836 -0.430318 -0.025759
v -0.179871 -0.415787 -0.045736
v -0.178758 -0.415787 -0.070432
v -0.177920 -0.430318 -0.090414
v 0.167722 -0.458159 -0.082333
v 0.144612 -0.453308 -0.075015
v 0.130330 -0.449240 -0.055252
v 0.130330 -0.447509 -0.030591
v 0.144612 -0.448777 -0.010453
v 0.167722 -0.452558 -0.002529
v 0.190832 -0.457409 -0.009847
v 0.205115 -0.461477 -0.029611
v 0.205115 -0.463208 -0.054271
v 0.190832 -0.461940 -0.074409
v 0.209470 -0.235727 -0.097944
v 0.186360 -0.230876 -0.090627
v 0.172077 -0.226808 -0.070863
v 0.172077 -0.225078 -0.046202
v 0.186360 -0.226345 -0.026064
v 0.209470 -0.230126 -0.018141
v 0.232580 -0.234977 -0.025458
v 0.246863 -0.239045 -0.045222
v 0.246863 -0.240776 -0.069883
v 0.232580 -0.239509 -0.090021
v 0.209470 -0.255970 -0.090738
v 0.185963 -0.251176 -0.084771
v 0.171436 -0.239411 -0.068595
v 0.171436 -0.225169 -0.048388
v 0.185963 -0.213891 -0.031869
v 0.209470 -0.209883 -0.025347
v 0.232976 -0.214678 -0.031314
v 0.247504 -0.226443 -0.047490
v 0.247504 -0.240684 -0.067697
v 0.232976 -0.251963 -0.084216
v 0.213340 -0.101546 -0.199575
v 0.189833 -0.096751 -0.193608
v 0.175305 -0.084986 -0.177432
v 0.175305 -0.070744 -0.157225
v 0.189833 -0.059466 -0.140706
v 0.213340 -0.055459 -0.134184
v 0.236846 -0.060253 -0.140151
v 0.251374 -0.072018 -0.156328
v 0.251374 -0.086260 -0.176534
v 0.236846 -0.097538 -0.193054
v -0.179482 -0.470391 -0.094501
v -0.202524 -0.471482 -0.085612
v -0.216765 -0.465830 -0.066211
v -0.216765 -0.455594 -0.043709
v -0.202524 -0.444684 -0.026700
v -0.179482 -0.437266 -0.021681
v -0.156440 -0.436175 -0.030570
v -0.142199 -0.441827 -0.049971
v -0.142199 -0.452063 -0.072474
v -0.156440 -0.462974 -0.089483
v -0.234569 -0.223176 -0.206956
v -0.257611 -0.224267 -0.198067
v -0.271852 -0.218615 -0.178666
v -0.271852 -0.208379 -0.156163
v -0.257611 -0.197469 -0.139154
v -0.234569 -0.190052 -0.134136
v -0.211527 -0.188960 -0.143025
v -0.197286 -0.194612 -0.162426
v -0.197286 -0.204849 -0.184928
v -0.211527 -0.215759 -0.201937
v -0.234569 -0.243787 -0.155775
v -0.258002 -0.237395 -0.160378
v -0.272484 -0.219247 -0.168865
v -0.272484 -0.196272 -0.177993
v -0.258002 -0.177248 -0.184278
v -0.234569 -0.169441 -0.185317
v -0.211136 -0.175832 -0.180714
v -0.196653 -0.193981 -0.172227
v -0.196653 -0.216955 -0.163098
v -0.211136 -0.235979 -0.156814
v -0.213638 -0.338248 -0.393502
v -0.237071 -0.331857 -0.398105
v -0.251553 -0.313708 -0.406592
v -0.251553 -0.290734 -0.415720
v -0.237071 -0.271710 -0.422004
v -0.213638 -0.263902 -0.423044
v -0.190204 -0.270294 -0.418441
v -0.175722 -0.288443 -0.409954
v -0.175722 -0.311417 -0.400825
v -0.190204 -0.330441 -0.394541
v 0.167722 -0.451229 -0.082217
v 0.144298 -0.454032 -0.074828
v 0.129821 -0.457341 -0.055064
v 0.129821 -0.459894 -0.030475
v 0.144298 -0.460714 -0.010452
v 0.167722 -0.459489 -0.002645
v 0.191146 -0.456686 -0.010034
v 0.205623 -0.453376 -0.029798
v 0.205623 -0.450823 -0.054387
v 0.191146 -0.450003 -0.074410
v 0.128130 0.004288 -0.034932
v 0.104706 0.001485 -0.027543
v 0.090229 -0.001825 -0.007779
v 0.090229 -0.004377 0.016810
v 0.104706 -0.005198 0.036833
v 0.128130 -0.003972 0.044640
v 0.151554 -0.001169 0.037251
v 0.166031 0.002141 0.017487
v 0.166031 0.004693 -0.007102
v 0.151554 0.005513 -0.027125
v -0.179482 -0.448838 -0.097779
v -0.202831 -0.447060 -0.089856
v -0.217262 -0.447867 -0.069800
v -0.217262 -0.450952 -0.045272
v -0.202831 -0.455135 -0.025640
v -0.179482 -0.458819 -0.018404
v -0.156132 -0.460598 -0.026327
v -0.141701 -0.459790 -0.046383
v -0.141701 -0.456706 -0.070911
v -0.156132 -0.452523 -0.090543
v -0.127230 -0.009092 -0.042482
v -0.150580 -0.007314 -0.034559
v -0.165011 -0.008121 -0.014503
v -0.165011 -0.011206 0.010025
v -0.150580 -0.015389 0.029657
v -0.127230 -0.019073 0.036893
v -0.103881 -0.020851 0.028970
v -0.089450 -0.020044 0.008914
v -0.089450 -0.016960 -0.015614
v -0.103881 -0.012777 -0.035246
v 0.129327 0.000158 -0.035128
v 0.130406 -0.023317 -0.027453
v 0.130616 -0.037825 -0.007438
v 0.129876 -0.037825 0.017272
v 0.128469 -0.023317 0.037239
v 0.126932 0.000158 0.044836
v 0.125853 0.023633 0.037161
v 0.125643 0.038141 0.017146
v 0.126383 0.038141 -0.007565
v 0.127791 0.023633 -0.027531
v -0.126033 -0.014083 -0.042776
v -0.124954 -0.037558 -0.035101
v -0.124744 -0.052066 -0.015086
v -0.125484 -0.052066 0.009624
v -0.126891 -0.037558 0.029591
v -0.128428 -0.014083 0.037188
v -0.129507 0.009392 0.029513
v -0.129717 0.023901 0.009497
v -0.128977 0.023901 -0.015213
v -0.127570 0.009392 -0.035180
v 0.128130 -0.006727 -0.034549
v 0.104621 -0.005042 -0.027088
v 0.090092 -0.001371 -0.007427
v 0.090092 0.002884 0.016926
v 0.104621 0.006098 0.036667
v 0.128130 0.007043 0.044257
v 0.151638 0.005358 0.036796
v 0.166167 0.001687 0.017135
v 0.166167 -0.002568 -0.007218
v 0.151638 -0.005782 -0.026959
v 0.130926 0.165719 -0.064682
v 0.107418 0.167404 -0.057221
v 0.092889 0.171075 -0.037560
v 0.092889 0.175330 -0.013208
v 0.107418 0.178544 0.006534
v 0.130926 0.179489 0.014124
v 0.154435 0.177805 0.006663
v 0.168964 0.174133 -0.012998
v 0.168964 0.169878 -0.037351
v 0.154435 0.166664 -0.057092
v 0.130926 0.193871 -0.059157
v 0.107690 0.192845 -0.050782
v 0.093329 0.184087 -0.032665
v 0.093329 0.170943 -0.011727
v 0.107690 0.158434 0.004034
v 0.130926 0.151337 0.008599
v 0.154163 0.152364 0.000223
v 0.168524 0.161121 -0.017893
v 0.168524 0.174265 -0.038831
v 0.154163 0.186774 -0.054592
v 0.173404 0.427148 0.087282
v 0.150167 0.426122 0.095657
v 0.135806 0.417364 0.113774
v 0.135806 0.404221 0.134712
v 0.150167 0.391711 0.150473
v 0.173404 0.384615 0.155038
v 0.196640 0.385641 0.146663
v 0.211002 0.394399 0.128546
v 0.211002 0.407542 0.107608
v 0.196640 0.420052 0.091847
v -0.127230 -0.053624 -0.008833
v -0.150721 -0.045924 -0.008651
v -0.165239 -0.026062 -0.006232
v -0.165239 -0.001624 -0.002500
v -0.150721 0.018055 0.001119
v -0.127230 0.025459 0.003244
v -0.103739 0.017759 0.003062
v -0.089221 -0.002104 0.000643
v -0.089221 -0.026542 -0.003089
v -0.103739 -0.046221 -0.006708
v -0.119732 -0.026560 -0.186060
v -0.143223 -0.018860 -0.185878
v -0.157741 0.001002 -0.183459
v -0.157741 0.025440 -0.179727
v -0.143223 0.045119 -0.176107
v -0.119732 0.052523 -0.173983
v -0.096241 0.044823 -0.174165
v -0.081723 0.024960 -0.176584
v -0.081723 0.000522 -0.180316
v -0.096241 -0.019157 -0.183935
v -0.119732 0.009507 -0.219870
v -0.143054 0.013142 -0.212519
v -0.157467 0.016715 -0.192754
v -0.157467 0.018863 -0.168127
v -0.143054 0.018763 -0.148042
v -0.119732 0.016456 -0.140173
v -0.096411 0.012821 -0.147524
v -0.081997 0.009247 -0.167288
v -0.081997 0.007100 -0.191916
v -0.096411 0.007199 -0.212001
v -0.082245 0.301515 -0.245330
v -0.105566 0.305150 -0.237979
v -0.119980 0.308724 -0.218214
v -0.119980 0.310871 -0.193586
v -0.105566 0.310772 -0.173502
v -0.082245 0.308464 -0.165632
v -0.058923 0.304829 -0.172984
v -0.044510 0.301255 -0.192748
v -0.044510 0.299108 -0.217376
v -0.058923 0.299207 -0.237460
f 1 2 13
f 2 14 13
f 2 3 14
f 3 15 14
f 3 4 15
f 4 16 15
f 4 5 16
f 5 17 16
f 5 6 17
f 6 18 17
f 6 7 18
f 7 19 18
f 7 8 19
f 8 20 19
f 8 9 20
f 9 21 20
f 9 10 21
f 10 22 21
f 10 11 22
f 11 23 22
f 11 12 23
f 12 24 23
f 13 14 25
f 14 26 25
f 14 15 26
f 15 27 26
f 15 16 27
f 16 28 27
f 16 17 28
f 17 29 28
f 17 18 29
f 18 30 29
f 18 19 30
f 19 31 30
f 19 20 31
f 20 32 31
f 20 21 32
f 21 33 32
f 21 22 33
f 22 34 33
f 22 23 34
f 23 35 34
f 23 24 35
f 24 36 35
f 25 26 37
f 26 38 37
f 26 27 38
f 27 39 38
f 27 28 39
f 28 40 39
f 28 29 40
f 29 41 40
f 29 30 41
f 30 42 41
f 30 31 42
f 31 43 42
f 31 32 43
f 32 44 43
f 32 33 44
f 33 45 44
f 33 34 45
f 34 46 45
f 34 35 46
f 35 47 46
f 35 36 47
f 36 48 47
f 37 38 49
f 38 50 49
f 38 39 50
f 39 51 50
f 39 40 51
f 40 52 51
f 40 41 52
f 41 53 52
f 41 42 53
f 42 54 53
f 42 43 54
f 43 55 54
f 43 44 55
f 44 56 55
f 44 45 56
f 45 57 56
f 45 46 57
f 46 58 57
f 46 47 58
f 47 59 58
f 47 48 59
f 48 60 59
f 49 50 61
f 50 62 61
f 50 51 62
f 51 63 62
f 51 52 63
f 52 64 63
f 52 53 64
f 53 65 64
f 53 54 65
f 54 66 65
f 54 55 66
f 55 67 66
f 55 56 67
f 56 68 67
f 56 57 68
f 57 69 68
f 57 58 69
f 58 70 69
f 58 59 70
f 59 71 70
f 59 60 71
f 60 72 71
f 61 62 73
f 62 74 73
f 62 63 74
f 63 75 74
f 63 64 75
f 64 76 75
f 64 65 76
f 65 77 76
f 65 66 77
f 66 78 77
f 66 67 78
f 67 79 78
f 67 68 79
f 68 80 79
f 68 69 80
f 69 81 80
f 69 70 81
f 70 82 81
f 70 71 82
f 71 83 82
f 71 72 83
f 72 84 83
f 73 74 85
f 74 86 85
f 74 75 86
f 75 87 86
f 75 76 87
f 76 88 87
f 76 77 88
f 77 89 88
f 77 78 89
f 78 90 89
f 78 79 90
f 79 91 90
f 79 80 91
f 80 92 91
f 80 81 92
f 81 93 92
f 81 82 93
f 82 94 93
f 82 83 94
f 83 95 94
f 83 84 95
f 84 96 95
f 85 86 97
f 86 98 97
f 86 87 98
f 87 99 98
f 87 88 99
f 88 100 99
f 88 89 100
f 89 101 100
f 89 90 101
f 90 102 101
f 90 91 102
f 91 103 102
f 91 92 103
f 92 104 103
f 92 93 104
f 93 105 104
f 93 94 105
f 94 106 105
f 94 95 106
f 95 107 106
f 95 96 107
f 96 108 107
f 97 98 109
f 98 110 109
f 98 99 110
f 99 111 110
f 99 100 111
f 100 112 111
f 100 101 112
f 101 113 112
f 101 102 113
f 102 114 113
f 102 103 114
f 103 115 114
f 103 104 115
f 104 116 115
f 104 105 116
f 105 117 116
f 105 106 117
f 106 118 117
f 106 107 118
f 107 119 118
f 107 108 119
f 108 120 119
f 109 110 121
f 110 122 121
f 110 111 122
f 111 123 122
f 111 112 123
f 112 124 123
f 112 113 124
f 113 125 124
f 113 114 125
f 114 126 125
f 114 115 126
f 115 127 126
f 115 116 127
f 116 128 127
f 116 117 128
f 117 129 128
f 117 118 129
f 118 130 129
f 118 119 130
f 119 131 130
f 119 120 131
f 120 132 131
f 121 122 133
f 122 134 133
f 122 123 134
f 123 135 134
f 123 124 135
f 124 136 135
f 124 125 136
f 125 137 136
f 125 126 137
f 126 138 137
f 126 127 138
f 127 139 138
f 127 128 139
f 128 140 139
f 128 129 140
f 129 141 140
f 129 130 141
f 130 142 141
f 130 131 142
f 131 143 142
f 131 132 143
f 132 144 143
f 145 146 155
f 146 156 155
f 146 147 156
f 147 157 156
f 147 148 157
f 148 158 157
f 148 149 158
f 149 159 158
f 149 150 159
f 150 160 159
f 150 151 160
f 151 161 160
f 151 152 161
f 152 162 161
f 152 153 162
f 153 163 162
f 153 154 163
f 154 164 163
f 154 145 164
f 145 155 164
f 165 166 175
f 166 176 175
f 166 167 176
f 167 177 176
f 167 168 177
f 168 178 177
f 168 169 178
f 169 179 178
f 169 170 179
f 170 180 179
f 170 171 180
f 171 181 180
f 171 172 181
f 172 182 181
f 172 173 182
f 173 183 182
f 173 174 183
f 174 184 183
f 174 165 184
f 165 175 184
f 185 186 195
f 186 196 195
f 186 187 196
f 187 197 196
f 187 188 197
f 188 198 197
f 188 189 198
f 189 199 198
f 189 190 199
f 190 200 199
f 190 191 200
f 191 201 200
f 191 192 201
f 192 202 201
f 192 193 202
f 193 203 202
f 193 194 203
f 194 204 203
f 194 185 204
f 185 195 204
f 205 206 215
f 206 216 215
f 206 207 216
f 207 217 216
f 207 208 217
f 208 218 217
f 208 209 218
f 209 219 218
f 209 210 219
f 210 220 219
f 210 211 220
f 211 221 220
f 211 212 221
f 212 222 221
f 212 213 222
f 213 223 222
f 213 214 223
f 214 224 223
f 214 205 224
f 205 215 224
f 225 226 235
f 226 236 235
f 226 227 236
f 227 237 236
f 227 228 237
f 228 238 237
f 228 229 238
f 229 239 238
f 229 230 239
f 230 240 239
f 230 231 240
f 231 241 240
f 231 232 241
f 232 242 241
f 232 233 242
f 233 243 242
f 233 234 243
f 234 244 243
f 234 225 244
f 225 235 244
f 245 246 255
f 246 256 255
f 246 247 256
f 247 257 256
f 247 248 257
f 248 258 257
f 248 249 258
f 249 259 258
f 249 250 259
f 250 260 259
f 250 251 260
f 251 261 260
f 251 252 261
f 252 262 261
f 252 253 262
f 253 263 262
f 253 254 263
f 254 264 263
f 254 245 264
f 245 255 264
f 265 266 275
f 266 276 275
f 266 267 276
f 267 277 276
f 267 268 277
f 268 278 277
f 268 269 278
f 269 279 278
f 269 270 279
f 270 280 279
f 270 271 280
f 271 281 280
f 271 272 281
f 272 282 281
f 272 273 282
f 273 283 282
f 273 274 283
f 274 284 283
f 274 265 284
f 265 275 284
f 285 286 295
f 286 296 295
f 286 287 296
f 287 297 296
f 287 288 297
f 288 298 297
f 288 289 298
f 289 299 298
f 289 290 299
f 290 300 299
f 290 291 300
f 291 301 300
f 291 292 301
f 292 302 301
f 292 293 302
f 293 303 302
f 293 294 303
f 294 304 303
f 294 285 304
f 285 295 304
f 305 306 315
f 306 316 315
f 306 307 316
f 307 317 316
f 307 308 317
f 308 318 317
f 308 309 318
f 309 319 318
f 309 310 319
f 310 320 319
f 310 311 320
f 311 321 320
f 311 312 321
f 312 322 321
f 312 313 322
f 313 323 322
f 313 314 323
f 314 324 323
f 314 305 324
f 305 315 324
f 325 326 335
f 326 336 335
f 326 327 336
f 327 337 336
f 327 328 337
f 328 338 337
f 328 329 338
f 329 339 338
f 329 330 339
f 330 340 339
f 330 331 340
f 331 341 340
f 331 332 341
f 332 342 341
f 332 333 342
f 333 343 342
f 333 334 343
f 334 344 343
f 334 325 344
f 325 335 344
f 345 346 355
f 346 356 355
f 346 347 356
f 347 357 356
f 347 348 357
f 348 358 357
f 348 349 358
f 349 359 358
f 349 350 359
f 350 360 359
f 350 351 360
f 351 361 360
f 351 352 361
f 352 362 361
f 352 353 362
f 353 363 362
f 353 354 363
f 354 364 363
f 354 345 364
f 345 355 364
f 365 366 375
f 366 376 375
f 366 367 376
f 367 377 376
f 367 368 377
f 368 378 377
f 368 369 378
f 369 379 378
f 369 370 379
f 370 380 379
f 370 371 380
f 371 381 380
f 371 372 381
f 372 382 381
f 372 373 382
f 373 383 382
f 373 374 383
f 374 384 383
f 374 365 384
f 365 375 384
