# Full-Body 3D Mesh - Frame 142
v 0.008056 -0.636674 -0.135850
v 0.041864 -0.636674 -0.140711
v 0.072933 -0.636674 -0.154899
v 0.098746 -0.636674 -0.177266
v 0.117212 -0.636674 -0.206000
v 0.126835 -0.636674 -0.238772
v 0.126835 -0.636674 -0.272928
v 0.117212 -0.636674 -0.305700
v 0.098746 -0.636674 -0.334433
v 0.072933 -0.636674 -0.356800
v 0.041864 -0.636674 -0.370989
v 0.008056 -0.636674 -0.375850
v 0.008056 -0.636674 -0.135850
v 0.036497 -0.618396 -0.140711
v 0.062634 -0.601599 -0.154899
v 0.084350 -0.587643 -0.177266
v 0.099884 -0.577660 -0.206000
v 0.107979 -0.572457 -0.238772
v 0.107979 -0.572457 -0.272928
v 0.099884 -0.577660 -0.305700
v 0.084350 -0.587643 -0.334433
v 0.062634 -0.601599 -0.356800
v 0.036497 -0.618396 -0.370989
v 0.008056 -0.636674 -0.375850
v 0.008056 -0.636674 -0.135850
v 0.022101 -0.605921 -0.140711
v 0.035007 -0.577660 -0.154899
v 0.045730 -0.554179 -0.177266
v 0.053401 -0.537382 -0.206000
v 0.057399 -0.528629 -0.238772
v 0.057399 -0.528629 -0.272928
v 0.053401 -0.537382 -0.305700
v 0.045730 -0.554179 -0.334433
v 0.035007 -0.577660 -0.356800
v 0.022101 -0.605921 -0.370989
v 0.008056 -0.636674 -0.375850
v 0.008056 -0.636674 -0.135850
v 0.003245 -0.603210 -0.140711
v -0.001177 -0.572457 -0.154899
v -0.004850 -0.546907 -0.177266
v -0.007478 -0.528629 -0.206000
v -0.008848 -0.519104 -0.238772
v -0.008848 -0.519104 -0.272928
v -0.007478 -0.528629 -0.305700
v -0.004850 -0.546907 -0.334433
v -0.001177 -0.572457 -0.356800
v 0.003245 -0.603210 -0.370989
v 0.008056 -0.636674 -0.375850
v 0.008056 -0.636674 -0.135850
v -0.014083 -0.611124 -0.140711
v -0.034429 -0.587643 -0.154899
v -0.051333 -0.568135 -0.177266
v -0.063426 -0.554179 -0.206000
v -0.069727 -0.546907 -0.238772
v -0.069727 -0.546907 -0.272928
v -0.063426 -0.554179 -0.305700
v -0.051333 -0.568135 -0.334433
v -0.034429 -0.587643 -0.356800
v -0.014083 -0.611124 -0.370989
v 0.008056 -0.636674 -0.375850
v 0.008056 -0.636674 -0.135850
v -0.024382 -0.627149 -0.140711
v -0.054193 -0.618396 -0.154899
v -0.078960 -0.611124 -0.177266
v -0.096678 -0.605921 -0.206000
v -0.105911 -0.603210 -0.238772
v -0.105911 -0.603210 -0.272928
v -0.096678 -0.605921 -0.305700
v -0.078960 -0.611124 -0.334433
v -0.054193 -0.618396 -0.356800
v -0.024382 -0.627149 -0.370989
v 0.008056 -0.636674 -0.375850
v 0.008056 -0.636674 -0.135850
v -0.024382 -0.646199 -0.140711
v -0.054193 -0.654952 -0.154899
v -0.078960 -0.662224 -0.177266
v -0.096678 -0.667427 -0.206000
v -0.105911 -0.670138 -0.238772
v -0.105911 -0.670138 -0.272928
v -0.096678 -0.667427 -0.305700
v -0.078960 -0.662224 -0.334433
v -0.054193 -0.654952 -0.356800
v -0.024382 -0.646199 -0.370989
v 0.008056 -0.636674 -0.375850
v 0.008056 -0.636674 -0.135850
v -0.014083 -0.662224 -0.140711
v -0.034429 -0.685705 -0.154899
v -0.051333 -0.705213 -0.177266
v -0.063426 -0.719168 -0.206000
v -0.069727 -0.726441 -0.238772
v -0.069727 -0.726441 -0.272928
v -0.063426 -0.719168 -0.305700
v -0.051333 -0.705213 -0.334433
v -0.034429 -0.685705 -0.356800
v -0.014083 -0.662224 -0.370989
v 0.008056 -0.636674 -0.375850
v 0.008056 -0.636674 -0.135850
v 0.003245 -0.670138 -0.140711
v -0.001177 -0.700890 -0.154899
v -0.004850 -0.726441 -0.177266
v -0.007478 -0.744719 -0.206000
v -0.008848 -0.754243 -0.238772
v -0.008848 -0.754243 -0.272928
v -0.007478 -0.744719 -0.305700
v -0.004850 -0.726441 -0.334433
v -0.001177 -0.700890 -0.356800
v 0.003245 -0.670138 -0.370989
v 0.008056 -0.636674 -0.375850
v 0.008056 -0.636674 -0.135850
v 0.022101 -0.667427 -0.140711
v 0.035007 -0.695688 -0.154899
v 0.045730 -0.719168 -0.177266
v 0.053401 -0.735966 -0.206000
v 0.057399 -0.744719 -0.238772
v 0.057399 -0.744719 -0.272928
v 0.053401 -0.735966 -0.305700
v 0.045730 -0.719168 -0.334433
v 0.035007 -0.695688 -0.356800
v 0.022101 -0.667427 -0.370989
v 0.008056 -0.636674 -0.375850
v 0.008056 -0.636674 -0.135850
v 0.036497 -0.654952 -0.140711
v 0.062634 -0.671749 -0.154899
v 0.084350 -0.685705 -0.177266
v 0.099884 -0.695688 -0.206000
v 0.107979 -0.700890 -0.238772
v 0.107979 -0.700890 -0.272928
v 0.099884 -0.695688 -0.305700
v 0.084350 -0.685705 -0.334433
v 0.062634 -0.671749 -0.356800
v 0.036497 -0.654952 -0.370989
v 0.008056 -0.636674 -0.375850
v 0.008056 -0.636674 -0.135850
v 0.041864 -0.636674 -0.140711
v 0.072933 -0.636674 -0.154899
v 0.098746 -0.636674 -0.177266
v 0.117212 -0.636674 -0.206000
v 0.126835 -0.636674 -0.238772
v 0.126835 -0.636674 -0.272928
v 0.117212 -0.636674 -0.305700
v 0.098746 -0.636674 -0.334433
v 0.072933 -0.636674 -0.356800
v 0.041864 -0.636674 -0.370989
v 0.008056 -0.636674 -0.375850
v 0.169065 -0.451380 -0.080330
v 0.167892 -0.474889 -0.072775
v 0.165458 -0.489419 -0.052922
v 0.162692 -0.489419 -0.028356
v 0.160651 -0.474889 -0.008460
v 0.160114 -0.451380 -0.000832
v 0.161287 -0.427871 -0.008388
v 0.163721 -0.413341 -0.028240
v 0.166487 -0.413341 -0.052806
v 0.168528 -0.427871 -0.072703
v -0.165857 -0.446794 -0.118039
v -0.167029 -0.470303 -0.110483
v -0.169463 -0.484833 -0.090631
v -0.172229 -0.484833 -0.066065
v -0.174271 -0.470303 -0.046168
v -0.174807 -0.446794 -0.038541
v -0.173635 -0.423285 -0.046097
v -0.171201 -0.408755 -0.065949
v -0.168435 -0.408755 -0.090515
v -0.166394 -0.423285 -0.110412
v 0.164589 -0.457841 -0.080056
v 0.141455 -0.452469 -0.073194
v 0.127157 -0.446680 -0.053876
v 0.127157 -0.442687 -0.029479
v 0.141455 -0.442014 -0.009323
v 0.164589 -0.444919 -0.001107
v 0.187724 -0.450291 -0.007968
v 0.202022 -0.456080 -0.027287
v 0.202022 -0.460073 -0.051684
v 0.187724 -0.460746 -0.071840
v 0.204512 -0.240502 -0.115631
v 0.181377 -0.235129 -0.108769
v 0.167080 -0.229341 -0.089451
v 0.167080 -0.225347 -0.065054
v 0.181377 -0.224674 -0.044898
v 0.204512 -0.227579 -0.036682
v 0.227646 -0.232951 -0.043543
v 0.241944 -0.238740 -0.062862
v 0.241944 -0.242733 -0.087259
v 0.227646 -0.243406 -0.107415
v 0.204512 -0.270972 -0.091520
v 0.184802 -0.268842 -0.076750
v 0.172621 -0.253419 -0.061753
v 0.172621 -0.230594 -0.052258
v 0.184802 -0.209085 -0.051891
v 0.204512 -0.197108 -0.060793
v 0.224221 -0.199238 -0.075563
v 0.236402 -0.214661 -0.090559
v 0.236402 -0.237486 -0.100054
v 0.224221 -0.258995 -0.100421
v 0.087392 -0.201808 -0.257782
v 0.067683 -0.199679 -0.243012
v 0.055502 -0.184256 -0.228015
v 0.055502 -0.161430 -0.218520
v 0.067683 -0.139922 -0.218153
v 0.087392 -0.127945 -0.227055
v 0.107102 -0.130074 -0.241825
v 0.119283 -0.145497 -0.256821
v 0.119283 -0.168323 -0.266316
v 0.107102 -0.189831 -0.266683
v -0.170332 -0.461637 -0.115434
v -0.193243 -0.463704 -0.106381
v -0.207403 -0.459312 -0.086599
v -0.207403 -0.450139 -0.063642
v -0.193243 -0.439688 -0.046281
v -0.170332 -0.431952 -0.041146
v -0.147421 -0.429884 -0.050198
v -0.133261 -0.434276 -0.069981
v -0.133261 -0.443449 -0.092937
v -0.147421 -0.453900 -0.110299
v -0.224408 -0.243694 -0.202522
v -0.247320 -0.245761 -0.193469
v -0.261479 -0.241369 -0.173686
v -0.261479 -0.232196 -0.150730
v -0.247320 -0.221745 -0.133368
v -0.224408 -0.214009 -0.128233
v -0.201497 -0.211941 -0.137286
v -0.187337 -0.216333 -0.157068
v -0.187337 -0.225506 -0.180025
v -0.201497 -0.235957 -0.197386
v -0.224408 -0.265255 -0.148802
v -0.246013 -0.262146 -0.160409
v -0.259365 -0.246319 -0.173913
v -0.259365 -0.223820 -0.184158
v -0.246013 -0.203243 -0.187228
v -0.224408 -0.192447 -0.181953
v -0.202804 -0.195556 -0.170346
v -0.189451 -0.211383 -0.156841
v -0.189451 -0.233882 -0.146597
v -0.202804 -0.254459 -0.143526
v -0.130725 -0.355681 -0.347402
v -0.152329 -0.352572 -0.359009
v -0.165682 -0.336745 -0.372514
v -0.165682 -0.314246 -0.382758
v -0.152329 -0.293669 -0.385829
v -0.130725 -0.282873 -0.380553
v -0.109120 -0.285982 -0.368946
v -0.095768 -0.301809 -0.355441
v -0.095768 -0.324308 -0.345197
v -0.109120 -0.344885 -0.342126
v 0.164589 -0.445805 -0.080191
v 0.141169 -0.448916 -0.072914
v 0.126694 -0.452969 -0.053287
v 0.126694 -0.456414 -0.028807
v 0.141169 -0.457937 -0.008824
v 0.164589 -0.456955 -0.000972
v 0.188010 -0.453844 -0.008248
v 0.202484 -0.449791 -0.027875
v 0.202484 -0.446346 -0.052355
v 0.188010 -0.444823 -0.072338
v 0.124403 0.005135 -0.016722
v 0.100983 0.002024 -0.009445
v 0.086508 -0.002028 0.010182
v 0.086508 -0.005474 0.034662
v 0.100983 -0.006996 0.054645
v 0.124403 -0.006015 0.062497
v 0.147823 -0.002903 0.055221
v 0.162298 0.001149 0.035594
v 0.162298 0.004595 0.011114
v 0.147823 0.006117 -0.008869
v -0.170332 -0.441460 -0.117933
v -0.193713 -0.440024 -0.110031
v -0.208163 -0.441174 -0.090006
v -0.208163 -0.444470 -0.065505
v -0.193713 -0.448655 -0.045888
v -0.170332 -0.452129 -0.038647
v -0.146951 -0.453565 -0.046549
v -0.132502 -0.452415 -0.066574
v -0.132502 -0.449118 -0.091075
v -0.146951 -0.444933 -0.110692
v -0.124336 -0.011187 -0.060033
v -0.147716 -0.009750 -0.052132
v -0.162166 -0.010900 -0.032106
v -0.162166 -0.014197 -0.007606
v -0.147716 -0.018382 0.012011
v -0.124336 -0.021856 0.019252
v -0.100955 -0.023292 0.011351
v -0.086505 -0.022142 -0.008675
v -0.086505 -0.018845 -0.033175
v -0.100955 -0.014660 -0.052792
v 0.131260 -0.000440 -0.016520
v 0.131423 -0.023903 -0.008738
v 0.128904 -0.038405 0.011125
v 0.124667 -0.038405 0.035480
v 0.120328 -0.023903 0.055026
v 0.117546 -0.000440 0.062296
v 0.117383 0.023024 0.054513
v 0.119902 0.037526 0.034651
v 0.124139 0.037526 0.010296
v 0.128478 0.023024 -0.009250
v -0.117479 -0.016521 -0.059798
v -0.117316 -0.039985 -0.052016
v -0.119834 -0.054486 -0.032154
v -0.124072 -0.054486 -0.007798
v -0.128410 -0.039985 0.011747
v -0.131192 -0.016521 0.019017
v -0.131355 0.006943 0.011235
v -0.128837 0.021444 -0.008627
v -0.124599 0.021444 -0.032983
v -0.120261 0.006943 -0.052528
v 0.124403 -0.020907 -0.011479
v 0.101015 -0.014935 -0.006144
v 0.086560 -0.003426 0.010279
v 0.086560 0.009224 0.031519
v 0.101015 0.018183 0.049462
v 0.124403 0.020028 0.057255
v 0.147791 0.014056 0.051920
v 0.162246 0.002546 0.035496
v 0.162246 -0.010103 0.014256
v 0.147791 -0.019062 -0.003686
v 0.143238 0.136675 -0.105329
v 0.119850 0.142647 -0.099995
v 0.105395 0.154156 -0.083571
v 0.105395 0.166806 -0.062331
v 0.119850 0.175765 -0.044388
v 0.143238 0.177610 -0.036596
v 0.166627 0.171637 -0.041930
v 0.181081 0.160128 -0.058354
v 0.181081 0.147478 -0.079594
v 0.166627 0.138520 -0.097537
v 0.143238 0.177875 -0.105170
v 0.119934 0.176580 -0.097022
v 0.105531 0.167860 -0.078921
v 0.105531 0.155046 -0.057779
v 0.119934 0.143033 -0.041674
v 0.143238 0.136409 -0.036755
v 0.166542 0.137705 -0.044903
v 0.180945 0.146425 -0.063005
v 0.180945 0.159239 -0.084146
v 0.166542 0.171251 -0.100252
v 0.181387 0.421934 0.042752
v 0.158083 0.420638 0.050900
v 0.143680 0.411918 0.069001
v 0.143680 0.399105 0.090143
v 0.158083 0.387092 0.106248
v 0.181387 0.380468 0.111167
v 0.204691 0.381763 0.103019
v 0.219094 0.390483 0.084917
v 0.219094 0.403297 0.063776
v 0.204691 0.415310 0.047670
v -0.124336 -0.055700 -0.028452
v -0.146419 -0.046592 -0.034815
v -0.160068 -0.025997 -0.035669
v -0.160068 -0.001783 -0.030687
v -0.146419 0.016802 -0.021772
v -0.124336 0.022658 -0.012329
v -0.102252 0.013550 -0.005966
v -0.088604 -0.007045 -0.005112
v -0.088604 -0.031259 -0.010094
v -0.102252 -0.049844 -0.019009
v -0.062523 -0.021606 -0.194159
v -0.084607 -0.012498 -0.200523
v -0.098255 0.008097 -0.201376
v -0.098255 0.032311 -0.196394
v -0.084607 0.050896 -0.187479
v -0.062523 0.056752 -0.178037
v -0.040440 0.047644 -0.171673
v -0.026791 0.027049 -0.170820
v -0.026791 0.002835 -0.175802
v -0.040440 -0.015750 -0.184716
v -0.062523 0.014367 -0.225969
v -0.086035 0.014955 -0.218353
v -0.100566 0.016544 -0.198416
v -0.100566 0.018526 -0.173774
v -0.086035 0.020143 -0.153840
v -0.062523 0.020779 -0.146227
v -0.039012 0.020191 -0.153843
v -0.024481 0.018602 -0.173780
v -0.024481 0.016620 -0.198422
v -0.039012 0.015003 -0.218356
v -0.062790 0.277991 -0.247170
v -0.086301 0.278580 -0.239553
v -0.100832 0.280168 -0.219616
v -0.100832 0.282150 -0.194974
v -0.086301 0.283768 -0.175040
v -0.062790 0.284404 -0.167427
v -0.039278 0.283815 -0.175044
v -0.024748 0.282227 -0.194981
v -0.024748 0.280245 -0.219622
v -0.039278 0.278627 -0.239557
v -0.035760 0.059767 0.073505
v -0.042546 0.054193 0.070534
v -0.046740 0.050858 0.062969
v -0.046740 0.051035 0.053700
v -0.042546 0.054656 0.046268
v -0.035760 0.060339 0.043511
v -0.028975 0.065913 0.046483
v -0.024781 0.069249 0.054048
v -0.024781 0.069072 0.063316
v -0.028975 0.065450 0.070749
v -0.012234 0.031413 0.072964
v -0.019019 0.025840 0.069992
v -0.023213 0.022504 0.062427
v -0.023213 0.022681 0.053158
v -0.019019 0.026303 0.045726
v -0.012234 0.031986 0.042969
v -0.005448 0.037560 0.045941
v -0.001254 0.040895 0.053506
v -0.001254 0.040718 0.062775
v -0.005448 0.037096 0.070207
v -0.012234 0.024333 0.071033
v -0.017132 0.019353 0.064937
v -0.020159 0.019090 0.056179
v -0.020159 0.023643 0.048103
v -0.017132 0.031273 0.043795
v -0.012234 0.039066 0.044900
v -0.007336 0.044046 0.050996
v -0.004309 0.044309 0.059755
v -0.004309 0.039756 0.067830
v -0.007336 0.032126 0.072138
v 0.011123 0.010740 0.063370
v 0.006226 0.005761 0.057274
v 0.003199 0.005498 0.048515
v 0.003199 0.010050 0.040440
v 0.006226 0.017681 0.036132
v 0.011123 0.025474 0.037237
v 0.016021 0.030453 0.043333
v 0.019048 0.030717 0.052091
v 0.019048 0.026164 0.060167
v 0.016021 0.018533 0.064475
v 0.011123 0.003331 0.052884
v 0.004169 0.005220 0.047052
v -0.000129 0.012032 0.042462
v -0.000129 0.021164 0.040867
v 0.004169 0.029129 0.042876
v 0.011123 0.032883 0.047723
v 0.018077 0.030994 0.053555
v 0.022375 0.024182 0.058145
v 0.022375 0.015050 0.059740
v 0.018077 0.007085 0.057731
v 0.030200 -0.000880 0.028773
v 0.023246 0.001009 0.022941
v 0.018948 0.007821 0.018351
v 0.018948 0.016953 0.016756
v 0.023246 0.024918 0.018765
v 0.030200 0.028672 0.023612
v 0.037154 0.026783 0.029444
v 0.041452 0.019971 0.034034
v 0.041452 0.010839 0.035629
v 0.037154 0.002874 0.033620
v 0.030200 -0.000376 0.021575
v 0.021626 0.002982 0.020502
v 0.016327 0.010509 0.021603
v 0.016327 0.019329 0.024457
v 0.021626 0.026074 0.027974
v 0.030200 0.028167 0.030810
v 0.038774 0.024809 0.031883
v 0.044073 0.017283 0.030782
v 0.044073 0.008462 0.027928
v 0.038774 0.001718 0.024411
v 0.036305 0.007469 -0.002670
v 0.027731 0.010827 -0.003742
v 0.022432 0.018354 -0.002642
v 0.022432 0.027174 0.000212
v 0.027731 0.033919 0.003729
v 0.036305 0.036012 0.006566
v 0.044879 0.032654 0.007638
v 0.050179 0.025128 0.006537
v 0.050179 0.016307 0.003684
v 0.044879 0.009562 0.000167
v -0.035760 0.053139 0.071820
v -0.044027 0.051740 0.067865
v -0.049136 0.053516 0.060336
v -0.049136 0.057789 0.052109
v -0.044027 0.062927 0.046326
v -0.035760 0.066967 0.045196
v -0.027493 0.068366 0.049151
v -0.022384 0.066591 0.056680
v -0.022384 0.062318 0.064907
v -0.027493 0.057180 0.070690
v -0.003427 -0.024257 0.031622
v -0.011694 -0.025656 0.027667
v -0.016803 -0.023880 0.020138
v -0.016803 -0.019608 0.011911
v -0.011694 -0.014470 0.006129
v -0.003427 -0.010429 0.004999
v 0.004840 -0.009030 0.008954
v 0.009949 -0.010806 0.016483
v 0.009949 -0.015079 0.024710
v 0.004840 -0.020216 0.030493
v -0.003427 -0.025487 0.030907
v -0.007615 -0.030447 0.024289
v -0.010204 -0.030401 0.015388
v -0.010204 -0.025368 0.007602
v -0.007615 -0.017270 0.003907
v -0.003427 -0.009199 0.005714
v 0.000762 -0.004239 0.012332
v 0.003351 -0.004285 0.021233
v 0.003351 -0.009318 0.029019
v 0.000762 -0.017416 0.032714
v 0.020262 -0.036227 0.023963
v 0.016073 -0.041187 0.017345
v 0.013484 -0.041142 0.008444
v 0.013484 -0.036108 0.000659
v 0.016073 -0.028010 -0.003036
v 0.020262 -0.019939 -0.001230
v 0.024450 -0.014979 0.005388
v 0.027039 -0.015025 0.014290
v 0.027039 -0.020058 0.022075
v 0.024450 -0.028157 0.025770
v 0.020262 -0.028668 0.026355
v 0.015378 -0.035891 0.023207
v 0.012360 -0.040132 0.015535
v 0.012360 -0.039771 0.006272
v 0.015378 -0.034945 -0.001046
v 0.020262 -0.027499 -0.003622
v 0.025146 -0.020275 -0.000473
v 0.028164 -0.016034 0.007198
v 0.028164 -0.016396 0.016461
v 0.025146 -0.021221 0.023779
v 0.038216 -0.040604 0.025890
v 0.033332 -0.047828 0.022741
v 0.030314 -0.052069 0.015070
v 0.030314 -0.051707 0.005806
v 0.033332 -0.046881 -0.001511
v 0.038216 -0.039435 -0.004088
v 0.043100 -0.032212 -0.000939
v 0.046118 -0.027971 0.006732
v 0.046118 -0.028332 0.015996
v 0.043100 -0.033158 0.023313
v 0.038216 -0.049997 0.022102
v 0.033727 -0.053758 0.014915
v 0.030952 -0.052271 0.006195
v 0.030952 -0.046105 -0.000727
v 0.033727 -0.037614 -0.003208
v 0.038216 -0.030042 -0.000300
v 0.042705 -0.026281 0.006887
v 0.045479 -0.027768 0.015607
v 0.045479 -0.033934 0.022529
v 0.042705 -0.042425 0.025010
v 0.053250 -0.056638 0.016186
v 0.048760 -0.060399 0.009000
v 0.045986 -0.058912 0.000280
v 0.045986 -0.052746 -0.006643
v 0.048760 -0.044255 -0.009123
v 0.053250 -0.036683 -0.006215
v 0.057739 -0.032922 0.000971
v 0.060513 -0.034409 0.009691
v 0.060513 -0.040575 0.016614
v 0.057739 -0.049066 0.019094
v -0.035760 0.050218 0.069833
v -0.044041 0.049811 0.065686
v -0.049159 0.053316 0.058797
v -0.049159 0.059395 0.051797
v -0.044041 0.065725 0.047361
v -0.035760 0.069889 0.047183
v -0.027479 0.070295 0.051330
v -0.022361 0.066790 0.058219
v -0.022361 0.060711 0.065219
v -0.027479 0.054381 0.069655
v -0.004541 -0.014278 0.013822
v -0.012822 -0.014685 0.009675
v -0.017940 -0.011179 0.002785
v -0.017940 -0.005101 -0.004214
v -0.012822 0.001229 -0.008650
v -0.004541 0.005393 -0.008829
v 0.003740 0.005799 -0.004681
v 0.008858 0.002294 0.002208
v 0.008858 -0.003785 0.009207
v 0.003740 -0.010115 0.013643
v -0.004541 -0.014094 0.013979
v -0.009685 -0.017732 0.007179
v -0.012865 -0.016294 -0.001410
v -0.012865 -0.010329 -0.008506
v -0.009685 -0.002116 -0.011400
v -0.004541 0.005209 -0.008986
v 0.000604 0.008847 -0.002186
v 0.003784 0.007409 0.006403
v 0.003784 0.001444 0.013499
v 0.000604 -0.006770 0.016393
v 0.025089 -0.030391 0.000281
v 0.019944 -0.034029 -0.006519
v 0.016765 -0.032591 -0.015107
v 0.016765 -0.026626 -0.022204
v 0.019944 -0.018412 -0.025098
v 0.025089 -0.011088 -0.022684
v 0.030234 -0.007450 -0.015884
v 0.033413 -0.008888 -0.007295
v 0.033413 -0.014853 -0.000198
v 0.030234 -0.023066 0.002695
v 0.025089 -0.025462 0.003036
v 0.020054 -0.031429 -0.001962
v 0.016942 -0.033314 -0.010489
v 0.016942 -0.030395 -0.019288
v 0.020054 -0.023788 -0.024998
v 0.025089 -0.016017 -0.025438
v 0.030124 -0.010049 -0.020441
v 0.033236 -0.008165 -0.011914
v 0.033236 -0.011084 -0.003115
v 0.030124 -0.017690 0.002596
v 0.042439 -0.036918 -0.000764
v 0.037404 -0.042886 -0.005762
v 0.034292 -0.044770 -0.014289
v 0.034292 -0.041852 -0.023088
v 0.037404 -0.035245 -0.028798
v 0.042439 -0.027473 -0.029239
v 0.047474 -0.021506 -0.024241
v 0.050586 -0.019621 -0.015714
v 0.050586 -0.022540 -0.006915
v 0.047474 -0.029147 -0.001205
v 0.042439 -0.030665 -0.000080
v 0.037944 -0.038503 -0.002155
v 0.035166 -0.043931 -0.009138
v 0.035166 -0.044877 -0.018360
v 0.037944 -0.040980 -0.026299
v 0.042439 -0.033727 -0.029923
v 0.046934 -0.025889 -0.027847
v 0.049712 -0.020460 -0.020865
v 0.049712 -0.019514 -0.011643
v 0.046934 -0.023412 -0.003704
v 0.060480 -0.041300 0.001011
v 0.055985 -0.049138 -0.001064
v 0.053208 -0.054567 -0.008047
v 0.053208 -0.055513 -0.017269
v 0.055985 -0.051615 -0.025208
v 0.060480 -0.044362 -0.028832
v 0.064975 -0.036524 -0.026756
v 0.067753 -0.031096 -0.019774
v 0.067753 -0.030150 -0.010552
v 0.064975 -0.034047 -0.002612
v -0.035760 0.047864 0.067250
v -0.043872 0.048179 0.062774
v -0.048886 0.053029 0.056668
v -0.048886 0.060563 0.051265
v -0.043872 0.067901 0.048629
v -0.035760 0.072242 0.049766
v -0.027648 0.071927 0.054242
v -0.022635 0.067077 0.060348
v -0.022635 0.059544 0.065751
v -0.027648 0.052205 0.068387
v 0.001760 -0.003496 -0.004359
v -0.006352 -0.003181 -0.008835
v -0.011366 0.001669 -0.014941
v -0.011366 0.009202 -0.020344
v -0.006352 0.016541 -0.022981
v 0.001760 0.020882 -0.021844
v 0.009872 0.020567 -0.017367
v 0.014886 0.015717 -0.011262
v 0.014886 0.008183 -0.005859
v 0.009872 0.000845 -0.003222
v 0.001408 0.008693 0.001895
v 0.002568 -0.000056 -0.000944
v 0.003419 -0.005463 -0.008426
v 0.003637 -0.005463 -0.017694
v 0.003137 -0.000056 -0.025208
v 0.002112 0.008693 -0.028097
v 0.000952 0.017442 -0.025259
v 0.000101 0.022849 -0.017777
v -0.000116 0.022849 -0.008509
v 0.000383 0.017442 -0.000995
v 0.027983 0.012013 0.002518
v 0.029143 0.003264 -0.000320
v 0.029994 -0.002143 -0.007802
v 0.030211 -0.002143 -0.017070
v 0.029712 0.003264 -0.024584
v 0.028687 0.012013 -0.027473
v 0.027527 0.020762 -0.024635
v 0.026676 0.026169 -0.017153
v 0.026458 0.026169 -0.007885
v 0.026958 0.020762 -0.000371
v 0.028335 0.025412 -0.019220
v 0.019819 0.023880 -0.015891
v 0.014556 0.017815 -0.011259
v 0.014556 0.009534 -0.007092
v 0.019819 0.002200 -0.004982
v 0.028335 -0.001386 -0.005735
v 0.036851 0.000146 -0.009063
v 0.042114 0.006211 -0.013696
v 0.042114 0.014492 -0.017863
v 0.036851 0.021826 -0.019973
v 0.034561 0.035844 0.001511
v 0.026045 0.034311 0.004839
v 0.020782 0.028246 0.009471
v 0.020782 0.019965 0.013638
v 0.026045 0.012631 0.015748
v 0.034561 0.009045 0.014995
v 0.043076 0.010577 0.011667
v 0.048339 0.016642 0.007034
v 0.048339 0.024923 0.002867
v 0.043076 0.032258 0.000757
v 0.034561 0.035817 0.001457
v 0.026267 0.031907 0.000087
v 0.021142 0.024383 0.001836
v 0.021142 0.016118 0.006036
v 0.026267 0.010270 0.011083
v 0.034561 0.009072 0.015049
v 0.042854 0.012982 0.016419
v 0.047979 0.020506 0.014670
v 0.047979 0.028770 0.010470
v 0.042854 0.034619 0.005423
v 0.026174 0.046345 0.022175
v 0.017881 0.042435 0.020804
v 0.012755 0.034911 0.022553
v 0.012755 0.026647 0.026753
v 0.017881 0.020799 0.031800
v 0.026174 0.019601 0.035766
v 0.034467 0.023511 0.037136
v 0.039593 0.031035 0.035387
v 0.039593 0.039299 0.031187
v 0.034467 0.045147 0.026140
v -0.035760 0.046094 0.063999
v -0.043894 0.047514 0.059783
v -0.048920 0.053724 0.055080
v -0.048920 0.062351 0.051687
v -0.043894 0.070100 0.050899
v -0.035760 0.074012 0.053017
v -0.027627 0.072592 0.057233
v -0.022600 0.066383 0.061936
v -0.022600 0.057756 0.065330
v -0.027627 0.050006 0.066118
v -0.001308 0.015956 -0.012617
v -0.009441 0.017376 -0.016833
v -0.014468 0.023586 -0.021536
v -0.014468 0.032213 -0.024929
v -0.009441 0.039962 -0.025717
v -0.001308 0.043874 -0.023599
v 0.006826 0.042454 -0.019383
v 0.011852 0.036245 -0.014680
v 0.011852 0.027617 -0.011286
v 0.006826 0.019868 -0.010498
v -0.003846 0.029915 -0.003324
v -0.004147 0.021134 -0.006283
v -0.003362 0.015708 -0.013758
v -0.001793 0.015708 -0.022894
v -0.000039 0.021134 -0.030203
v 0.001231 0.029915 -0.032892
v 0.001531 0.038696 -0.029933
v 0.000747 0.044123 -0.022458
v -0.000822 0.044123 -0.013321
v -0.002576 0.038696 -0.006013
v 0.019074 0.027805 0.000612
v 0.018774 0.019025 -0.002346
v 0.019558 0.013598 -0.009822
v 0.021127 0.013598 -0.018958
v 0.022882 0.019025 -0.026267
v 0.024152 0.027805 -0.028955
v 0.024452 0.036586 -0.025997
v 0.023668 0.042013 -0.018522
v 0.022099 0.042013 -0.009385
v 0.020344 0.036586 -0.002077
v 0.021613 0.042466 -0.017342
v 0.013192 0.040219 -0.014184
v 0.007988 0.033229 -0.011021
v 0.007988 0.024168 -0.009061
v 0.013192 0.016496 -0.009054
v 0.021613 0.013144 -0.011001
v 0.030034 0.015392 -0.014160
v 0.035238 0.022382 -0.017323
v 0.035238 0.031443 -0.019282
v 0.030034 0.039114 -0.019290
v 0.027590 0.046539 0.001492
v 0.019169 0.044291 0.004650
v 0.013965 0.037302 0.007813
v 0.013965 0.028241 0.009773
v 0.019169 0.020569 0.009780
v 0.027590 0.017217 0.007833
v 0.036011 0.019465 0.004674
v 0.041215 0.026454 0.001511
v 0.041215 0.035515 -0.000448
v 0.036011 0.043187 -0.000456
v 0.027590 0.045341 -0.001952
v 0.019577 0.041148 -0.003990
v 0.014625 0.033414 -0.002723
v 0.014625 0.025094 0.001365
v 0.019577 0.019364 0.006712
v 0.027590 0.018415 0.011276
v 0.035603 0.022608 0.013315
v 0.040555 0.030342 0.012048
v 0.040555 0.038663 0.007960
v 0.035603 0.044392 0.002613
v 0.021279 0.051404 0.010388
v 0.013266 0.047210 0.008350
v 0.008314 0.039477 0.009617
v 0.008314 0.031156 0.013705
v 0.013266 0.025427 0.019052
v 0.021279 0.024477 0.023617
v 0.029292 0.028671 0.025655
v 0.034244 0.036404 0.024388
v 0.034244 0.044725 0.020300
v 0.029292 0.050454 0.014953
f 1 2 13
f 2 14 13
f 2 3 14
f 3 15 14
f 3 4 15
f 4 16 15
f 4 5 16
f 5 17 16
f 5 6 17
f 6 18 17
f 6 7 18
f 7 19 18
f 7 8 19
f 8 20 19
f 8 9 20
f 9 21 20
f 9 10 21
f 10 22 21
f 10 11 22
f 11 23 22
f 11 12 23
f 12 24 23
f 13 14 25
f 14 26 25
f 14 15 26
f 15 27 26
f 15 16 27
f 16 28 27
f 16 17 28
f 17 29 28
f 17 18 29
f 18 30 29
f 18 19 30
f 19 31 30
f 19 20 31
f 20 32 31
f 20 21 32
f 21 33 32
f 21 22 33
f 22 34 33
f 22 23 34
f 23 35 34
f 23 24 35
f 24 36 35
f 25 26 37
f 26 38 37
f 26 27 38
f 27 39 38
f 27 28 39
f 28 40 39
f 28 29 40
f 29 41 40
f 29 30 41
f 30 42 41
f 30 31 42
f 31 43 42
f 31 32 43
f 32 44 43
f 32 33 44
f 33 45 44
f 33 34 45
f 34 46 45
f 34 35 46
f 35 47 46
f 35 36 47
f 36 48 47
f 37 38 49
f 38 50 49
f 38 39 50
f 39 51 50
f 39 40 51
f 40 52 51
f 40 41 52
f 41 53 52
f 41 42 53
f 42 54 53
f 42 43 54
f 43 55 54
f 43 44 55
f 44 56 55
f 44 45 56
f 45 57 56
f 45 46 57
f 46 58 57
f 46 47 58
f 47 59 58
f 47 48 59
f 48 60 59
f 49 50 61
f 50 62 61
f 50 51 62
f 51 63 62
f 51 52 63
f 52 64 63
f 52 53 64
f 53 65 64
f 53 54 65
f 54 66 65
f 54 55 66
f 55 67 66
f 55 56 67
f 56 68 67
f 56 57 68
f 57 69 68
f 57 58 69
f 58 70 69
f 58 59 70
f 59 71 70
f 59 60 71
f 60 72 71
f 61 62 73
f 62 74 73
f 62 63 74
f 63 75 74
f 63 64 75
f 64 76 75
f 64 65 76
f 65 77 76
f 65 66 77
f 66 78 77
f 66 67 78
f 67 79 78
f 67 68 79
f 68 80 79
f 68 69 80
f 69 81 80
f 69 70 81
f 70 82 81
f 70 71 82
f 71 83 82
f 71 72 83
f 72 84 83
f 73 74 85
f 74 86 85
f 74 75 86
f 75 87 86
f 75 76 87
f 76 88 87
f 76 77 88
f 77 89 88
f 77 78 89
f 78 90 89
f 78 79 90
f 79 91 90
f 79 80 91
f 80 92 91
f 80 81 92
f 81 93 92
f 81 82 93
f 82 94 93
f 82 83 94
f 83 95 94
f 83 84 95
f 84 96 95
f 85 86 97
f 86 98 97
f 86 87 98
f 87 99 98
f 87 88 99
f 88 100 99
f 88 89 100
f 89 101 100
f 89 90 101
f 90 102 101
f 90 91 102
f 91 103 102
f 91 92 103
f 92 104 103
f 92 93 104
f 93 105 104
f 93 94 105
f 94 106 105
f 94 95 106
f 95 107 106
f 95 96 107
f 96 108 107
f 97 98 109
f 98 110 109
f 98 99 110
f 99 111 110
f 99 100 111
f 100 112 111
f 100 101 112
f 101 113 112
f 101 102 113
f 102 114 113
f 102 103 114
f 103 115 114
f 103 104 115
f 104 116 115
f 104 105 116
f 105 117 116
f 105 106 117
f 106 118 117
f 106 107 118
f 107 119 118
f 107 108 119
f 108 120 119
f 109 110 121
f 110 122 121
f 110 111 122
f 111 123 122
f 111 112 123
f 112 124 123
f 112 113 124
f 113 125 124
f 113 114 125
f 114 126 125
f 114 115 126
f 115 127 126
f 115 116 127
f 116 128 127
f 116 117 128
f 117 129 128
f 117 118 129
f 118 130 129
f 118 119 130
f 119 131 130
f 119 120 131
f 120 132 131
f 121 122 133
f 122 134 133
f 122 123 134
f 123 135 134
f 123 124 135
f 124 136 135
f 124 125 136
f 125 137 136
f 125 126 137
f 126 138 137
f 126 127 138
f 127 139 138
f 127 128 139
f 128 140 139
f 128 129 140
f 129 141 140
f 129 130 141
f 130 142 141
f 130 131 142
f 131 143 142
f 131 132 143
f 132 144 143
f 145 146 155
f 146 156 155
f 146 147 156
f 147 157 156
f 147 148 157
f 148 158 157
f 148 149 158
f 149 159 158
f 149 150 159
f 150 160 159
f 150 151 160
f 151 161 160
f 151 152 161
f 152 162 161
f 152 153 162
f 153 163 162
f 153 154 163
f 154 164 163
f 154 145 164
f 145 155 164
f 165 166 175
f 166 176 175
f 166 167 176
f 167 177 176
f 167 168 177
f 168 178 177
f 168 169 178
f 169 179 178
f 169 170 179
f 170 180 179
f 170 171 180
f 171 181 180
f 171 172 181
f 172 182 181
f 172 173 182
f 173 183 182
f 173 174 183
f 174 184 183
f 174 165 184
f 165 175 184
f 185 186 195
f 186 196 195
f 186 187 196
f 187 197 196
f 187 188 197
f 188 198 197
f 188 189 198
f 189 199 198
f 189 190 199
f 190 200 199
f 190 191 200
f 191 201 200
f 191 192 201
f 192 202 201
f 192 193 202
f 193 203 202
f 193 194 203
f 194 204 203
f 194 185 204
f 185 195 204
f 205 206 215
f 206 216 215
f 206 207 216
f 207 217 216
f 207 208 217
f 208 218 217
f 208 209 218
f 209 219 218
f 209 210 219
f 210 220 219
f 210 211 220
f 211 221 220
f 211 212 221
f 212 222 221
f 212 213 222
f 213 223 222
f 213 214 223
f 214 224 223
f 214 205 224
f 205 215 224
f 225 226 235
f 226 236 235
f 226 227 236
f 227 237 236
f 227 228 237
f 228 238 237
f 228 229 238
f 229 239 238
f 229 230 239
f 230 240 239
f 230 231 240
f 231 241 240
f 231 232 241
f 232 242 241
f 232 233 242
f 233 243 242
f 233 234 243
f 234 244 243
f 234 225 244
f 225 235 244
f 245 246 255
f 246 256 255
f 246 247 256
f 247 257 256
f 247 248 257
f 248 258 257
f 248 249 258
f 249 259 258
f 249 250 259
f 250 260 259
f 250 251 260
f 251 261 260
f 251 252 261
f 252 262 261
f 252 253 262
f 253 263 262
f 253 254 263
f 254 264 263
f 254 245 264
f 245 255 264
f 265 266 275
f 266 276 275
f 266 267 276
f 267 277 276
f 267 268 277
f 268 278 277
f 268 269 278
f 269 279 278
f 269 270 279
f 270 280 279
f 270 271 280
f 271 281 280
f 271 272 281
f 272 282 281
f 272 273 282
f 273 283 282
f 273 274 283
f 274 284 283
f 274 265 284
f 265 275 284
f 285 286 295
f 286 296 295
f 286 287 296
f 287 297 296
f 287 288 297
f 288 298 297
f 288 289 298
f 289 299 298
f 289 290 299
f 290 300 299
f 290 291 300
f 291 301 300
f 291 292 301
f 292 302 301
f 292 293 302
f 293 303 302
f 293 294 303
f 294 304 303
f 294 285 304
f 285 295 304
f 305 306 315
f 306 316 315
f 306 307 316
f 307 317 316
f 307 308 317
f 308 318 317
f 308 309 318
f 309 319 318
f 309 310 319
f 310 320 319
f 310 311 320
f 311 321 320
f 311 312 321
f 312 322 321
f 312 313 322
f 313 323 322
f 313 314 323
f 314 324 323
f 314 305 324
f 305 315 324
f 325 326 335
f 326 336 335
f 326 327 336
f 327 337 336
f 327 328 337
f 328 338 337
f 328 329 338
f 329 339 338
f 329 330 339
f 330 340 339
f 330 331 340
f 331 341 340
f 331 332 341
f 332 342 341
f 332 333 342
f 333 343 342
f 333 334 343
f 334 344 343
f 334 325 344
f 325 335 344
f 345 346 355
f 346 356 355
f 346 347 356
f 347 357 356
f 347 348 357
f 348 358 357
f 348 349 358
f 349 359 358
f 349 350 359
f 350 360 359
f 350 351 360
f 351 361 360
f 351 352 361
f 352 362 361
f 352 353 362
f 353 363 362
f 353 354 363
f 354 364 363
f 354 345 364
f 345 355 364
f 365 366 375
f 366 376 375
f 366 367 376
f 367 377 376
f 367 368 377
f 368 378 377
f 368 369 378
f 369 379 378
f 369 370 379
f 370 380 379
f 370 371 380
f 371 381 380
f 371 372 381
f 372 382 381
f 372 373 382
f 373 383 382
f 373 374 383
f 374 384 383
f 374 365 384
f 365 375 384
f 385 386 395
f 386 396 395
f 386 387 396
f 387 397 396
f 387 388 397
f 388 398 397
f 388 389 398
f 389 399 398
f 389 390 399
f 390 400 399
f 390 391 400
f 391 401 400
f 391 392 401
f 392 402 401
f 392 393 402
f 393 403 402
f 393 394 403
f 394 404 403
f 394 385 404
f 385 395 404
f 405 406 415
f 406 416 415
f 406 407 416
f 407 417 416
f 407 408 417
f 408 418 417
f 408 409 418
f 409 419 418
f 409 410 419
f 410 420 419
f 410 411 420
f 411 421 420
f 411 412 421
f 412 422 421
f 412 413 422
f 413 423 422
f 413 414 423
f 414 424 423
f 414 405 424
f 405 415 424
f 425 426 435
f 426 436 435
f 426 427 436
f 427 437 436
f 427 428 437
f 428 438 437
f 428 429 438
f 429 439 438
f 429 430 439
f 430 440 439
f 430 431 440
f 431 441 440
f 431 432 441
f 432 442 441
f 432 433 442
f 433 443 442
f 433 434 443
f 434 444 443
f 434 425 444
f 425 435 444
f 445 446 455
f 446 456 455
f 446 447 456
f 447 457 456
f 447 448 457
f 448 458 457
f 448 449 458
f 449 459 458
f 449 450 459
f 450 460 459
f 450 451 460
f 451 461 460
f 451 452 461
f 452 462 461
f 452 453 462
f 453 463 462
f 453 454 463
f 454 464 463
f 454 445 464
f 445 455 464
f 465 466 475
f 466 476 475
f 466 467 476
f 467 477 476
f 467 468 477
f 468 478 477
f 468 469 478
f 469 479 478
f 469 470 479
f 470 480 479
f 470 471 480
f 471 481 480
f 471 472 481
f 472 482 481
f 472 473 482
f 473 483 482
f 473 474 483
f 474 484 483
f 474 465 484
f 465 475 484
f 485 486 495
f 486 496 495
f 486 487 496
f 487 497 496
f 487 488 497
f 488 498 497
f 488 489 498
f 489 499 498
f 489 490 499
f 490 500 499
f 490 491 500
f 491 501 500
f 491 492 501
f 492 502 501
f 492 493 502
f 493 503 502
f 493 494 503
f 494 504 503
f 494 485 504
f 485 495 504
f 505 506 515
f 506 516 515
f 506 507 516
f 507 517 516
f 507 508 517
f 508 518 517
f 508 509 518
f 509 519 518
f 509 510 519
f 510 520 519
f 510 511 520
f 511 521 520
f 511 512 521
f 512 522 521
f 512 513 522
f 513 523 522
f 513 514 523
f 514 524 523
f 514 505 524
f 505 515 524
f 525 526 535
f 526 536 535
f 526 527 536
f 527 537 536
f 527 528 537
f 528 538 537
f 528 529 538
f 529 539 538
f 529 530 539
f 530 540 539
f 530 531 540
f 531 541 540
f 531 532 541
f 532 542 541
f 532 533 542
f 533 543 542
f 533 534 543
f 534 544 543
f 534 525 544
f 525 535 544
f 545 546 555
f 546 556 555
f 546 547 556
f 547 557 556
f 547 548 557
f 548 558 557
f 548 549 558
f 549 559 558
f 549 550 559
f 550 560 559
f 550 551 560
f 551 561 560
f 551 552 561
f 552 562 561
f 552 553 562
f 553 563 562
f 553 554 563
f 554 564 563
f 554 545 564
f 545 555 564
f 565 566 575
f 566 576 575
f 566 567 576
f 567 577 576
f 567 568 577
f 568 578 577
f 568 569 578
f 569 579 578
f 569 570 579
f 570 580 579
f 570 571 580
f 571 581 580
f 571 572 581
f 572 582 581
f 572 573 582
f 573 583 582
f 573 574 583
f 574 584 583
f 574 565 584
f 565 575 584
f 585 586 595
f 586 596 595
f 586 587 596
f 587 597 596
f 587 588 597
f 588 598 597
f 588 589 598
f 589 599 598
f 589 590 599
f 590 600 599
f 590 591 600
f 591 601 600
f 591 592 601
f 592 602 601
f 592 593 602
f 593 603 602
f 593 594 603
f 594 604 603
f 594 585 604
f 585 595 604
f 605 606 615
f 606 616 615
f 606 607 616
f 607 617 616
f 607 608 617
f 608 618 617
f 608 609 618
f 609 619 618
f 609 610 619
f 610 620 619
f 610 611 620
f 611 621 620
f 611 612 621
f 612 622 621
f 612 613 622
f 613 623 622
f 613 614 623
f 614 624 623
f 614 605 624
f 605 615 624
f 625 626 635
f 626 636 635
f 626 627 636
f 627 637 636
f 627 628 637
f 628 638 637
f 628 629 638
f 629 639 638
f 629 630 639
f 630 640 639
f 630 631 640
f 631 641 640
f 631 632 641
f 632 642 641
f 632 633 642
f 633 643 642
f 633 634 643
f 634 644 643
f 634 625 644
f 625 635 644
f 645 646 655
f 646 656 655
f 646 647 656
f 647 657 656
f 647 648 657
f 648 658 657
f 648 649 658
f 649 659 658
f 649 650 659
f 650 660 659
f 650 651 660
f 651 661 660
f 651 652 661
f 652 662 661
f 652 653 662
f 653 663 662
f 653 654 663
f 654 664 663
f 654 645 664
f 645 655 664
f 665 666 675
f 666 676 675
f 666 667 676
f 667 677 676
f 667 668 677
f 668 678 677
f 668 669 678
f 669 679 678
f 669 670 679
f 670 680 679
f 670 671 680
f 671 681 680
f 671 672 681
f 672 682 681
f 672 673 682
f 673 683 682
f 673 674 683
f 674 684 683
f 674 665 684
f 665 675 684
f 685 686 695
f 686 696 695
f 686 687 696
f 687 697 696
f 687 688 697
f 688 698 697
f 688 689 698
f 689 699 698
f 689 690 699
f 690 700 699
f 690 691 700
f 691 701 700
f 691 692 701
f 692 702 701
f 692 693 702
f 693 703 702
f 693 694 703
f 694 704 703
f 694 685 704
f 685 695 704
f 705 706 715
f 706 716 715
f 706 707 716
f 707 717 716
f 707 708 717
f 708 718 717
f 708 709 718
f 709 719 718
f 709 710 719
f 710 720 719
f 710 711 720
f 711 721 720
f 711 712 721
f 712 722 721
f 712 713 722
f 713 723 722
f 713 714 723
f 714 724 723
f 714 705 724
f 705 715 724
f 725 726 735
f 726 736 735
f 726 727 736
f 727 737 736
f 727 728 737
f 728 738 737
f 728 729 738
f 729 739 738
f 729 730 739
f 730 740 739
f 730 731 740
f 731 741 740
f 731 732 741
f 732 742 741
f 732 733 742
f 733 743 742
f 733 734 743
f 734 744 743
f 734 725 744
f 725 735 744
f 745 746 755
f 746 756 755
f 746 747 756
f 747 757 756
f 747 748 757
f 748 758 757
f 748 749 758
f 749 759 758
f 749 750 759
f 750 760 759
f 750 751 760
f 751 761 760
f 751 752 761
f 752 762 761
f 752 753 762
f 753 763 762
f 753 754 763
f 754 764 763
f 754 745 764
f 745 755 764
f 765 766 775
f 766 776 775
f 766 767 776
f 767 777 776
f 767 768 777
f 768 778 777
f 768 769 778
f 769 779 778
f 769 770 779
f 770 780 779
f 770 771 780
f 771 781 780
f 771 772 781
f 772 782 781
f 772 773 782
f 773 783 782
f 773 774 783
f 774 784 783
f 774 765 784
f 765 775 784
