# Full-Body 3D Mesh - Frame 260
v 0.033882 -0.597141 -0.170709
v 0.067690 -0.597141 -0.175570
v 0.098759 -0.597141 -0.189759
v 0.124572 -0.597141 -0.212126
v 0.143038 -0.597141 -0.240859
v 0.152661 -0.597141 -0.273631
v 0.152661 -0.597141 -0.307787
v 0.143038 -0.597141 -0.340559
v 0.124572 -0.597141 -0.369292
v 0.098759 -0.597141 -0.391660
v 0.067690 -0.597141 -0.405848
v 0.033882 -0.597141 -0.410709
v 0.033882 -0.597141 -0.170709
v 0.062323 -0.578863 -0.175570
v 0.088460 -0.562066 -0.189759
v 0.110175 -0.548110 -0.212126
v 0.125710 -0.538127 -0.240859
v 0.133805 -0.532924 -0.273631
v 0.133805 -0.532924 -0.307787
v 0.125710 -0.538127 -0.340559
v 0.110175 -0.548110 -0.369292
v 0.088460 -0.562066 -0.391660
v 0.062323 -0.578863 -0.405848
v 0.033882 -0.597141 -0.410709
v 0.033882 -0.597141 -0.170709
v 0.047926 -0.566388 -0.175570
v 0.060833 -0.538127 -0.189759
v 0.071556 -0.514646 -0.212126
v 0.079227 -0.497849 -0.240859
v 0.083224 -0.489096 -0.273631
v 0.083224 -0.489096 -0.307787
v 0.079227 -0.497849 -0.340559
v 0.071556 -0.514646 -0.369292
v 0.060833 -0.538127 -0.391660
v 0.047926 -0.566388 -0.405848
v 0.033882 -0.597141 -0.410709
v 0.033882 -0.597141 -0.170709
v 0.029071 -0.563677 -0.175570
v 0.024649 -0.532924 -0.189759
v 0.020976 -0.507374 -0.212126
v 0.018348 -0.489096 -0.240859
v 0.016978 -0.479571 -0.273631
v 0.016978 -0.479571 -0.307787
v 0.018348 -0.489096 -0.340559
v 0.020976 -0.507374 -0.369292
v 0.024649 -0.532924 -0.391660
v 0.029071 -0.563677 -0.405848
v 0.033882 -0.597141 -0.410709
v 0.033882 -0.597141 -0.170709
v 0.011743 -0.571591 -0.175570
v -0.008603 -0.548110 -0.189759
v -0.025507 -0.528602 -0.212126
v -0.037600 -0.514646 -0.240859
v -0.043901 -0.507374 -0.273631
v -0.043901 -0.507374 -0.307787
v -0.037600 -0.514646 -0.340559
v -0.025507 -0.528602 -0.369292
v -0.008603 -0.548110 -0.391660
v 0.011743 -0.571591 -0.405848
v 0.033882 -0.597141 -0.410709
v 0.033882 -0.597141 -0.170709
v 0.001444 -0.587616 -0.175570
v -0.028367 -0.578863 -0.189759
v -0.053134 -0.571591 -0.212126
v -0.070852 -0.566388 -0.240859
v -0.080085 -0.563677 -0.273631
v -0.080085 -0.563677 -0.307787
v -0.070852 -0.566388 -0.340559
v -0.053134 -0.571591 -0.369292
v -0.028367 -0.578863 -0.391660
v 0.001444 -0.587616 -0.405848
v 0.033882 -0.597141 -0.410709
v 0.033882 -0.597141 -0.170709
v 0.001444 -0.606666 -0.175570
v -0.028367 -0.615419 -0.189759
v -0.053134 -0.622691 -0.212126
v -0.070852 -0.627894 -0.240859
v -0.080085 -0.630605 -0.273631
v -0.080085 -0.630605 -0.307787
v -0.070852 -0.627894 -0.340559
v -0.053134 -0.622691 -0.369292
v -0.028367 -0.615419 -0.391660
v 0.001444 -0.606666 -0.405848
v 0.033882 -0.597141 -0.410709
v 0.033882 -0.597141 -0.170709
v 0.011743 -0.622691 -0.175570
v -0.008603 -0.646172 -0.189759
v -0.025507 -0.665680 -0.212126
v -0.037600 -0.679635 -0.240859
v -0.043901 -0.686908 -0.273631
v -0.043901 -0.686908 -0.307787
v -0.037600 -0.679635 -0.340559
v -0.025507 -0.665680 -0.369292
v -0.008603 -0.646172 -0.391660
v 0.011743 -0.622691 -0.405848
v 0.033882 -0.597141 -0.410709
v 0.033882 -0.597141 -0.170709
v 0.029071 -0.630605 -0.175570
v 0.024649 -0.661357 -0.189759
v 0.020976 -0.686908 -0.212126
v 0.018348 -0.705186 -0.240859
v 0.016978 -0.714710 -0.273631
v 0.016978 -0.714710 -0.307787
v 0.018348 -0.705186 -0.340559
v 0.020976 -0.686908 -0.369292
v 0.024649 -0.661357 -0.391660
v 0.029071 -0.630605 -0.405848
v 0.033882 -0.597141 -0.410709
v 0.033882 -0.597141 -0.170709
v 0.047926 -0.627894 -0.175570
v 0.060833 -0.656155 -0.189759
v 0.071556 -0.679635 -0.212126
v 0.079227 -0.696432 -0.240859
v 0.083224 -0.705186 -0.273631
v 0.083224 -0.705186 -0.307787
v 0.079227 -0.696432 -0.340559
v 0.071556 -0.679635 -0.369292
v 0.060833 -0.656155 -0.391660
v 0.047926 -0.627894 -0.405848
v 0.033882 -0.597141 -0.410709
v 0.033882 -0.597141 -0.170709
v 0.062323 -0.615419 -0.175570
v 0.088460 -0.632216 -0.189759
v 0.110175 -0.646172 -0.212126
v 0.125710 -0.656155 -0.240859
v 0.133805 -0.661357 -0.273631
v 0.133805 -0.661357 -0.307787
v 0.125710 -0.656155 -0.340559
v 0.110175 -0.646172 -0.369292
v 0.088460 -0.632216 -0.391660
v 0.062323 -0.615419 -0.405848
v 0.033882 -0.597141 -0.410709
v 0.033882 -0.597141 -0.170709
v 0.067690 -0.597141 -0.175570
v 0.098759 -0.597141 -0.189759
v 0.124572 -0.597141 -0.212126
v 0.143038 -0.597141 -0.240859
v 0.152661 -0.597141 -0.273631
v 0.152661 -0.597141 -0.307787
v 0.143038 -0.597141 -0.340559
v 0.124572 -0.597141 -0.369292
v 0.098759 -0.597141 -0.391660
v 0.067690 -0.597141 -0.405848
v 0.033882 -0.597141 -0.410709
v 0.181573 -0.428320 -0.127624
v 0.181891 -0.451829 -0.119983
v 0.182007 -0.466358 -0.099982
v 0.181875 -0.466358 -0.075261
v 0.181546 -0.451829 -0.055263
v 0.181146 -0.428320 -0.047625
v 0.180828 -0.404812 -0.055266
v 0.180713 -0.390283 -0.075267
v 0.180844 -0.390283 -0.099988
v 0.181173 -0.404812 -0.119987
v -0.142845 -0.433276 -0.129354
v -0.142527 -0.456785 -0.121712
v -0.142412 -0.471314 -0.101712
v -0.142543 -0.471314 -0.076991
v -0.142872 -0.456785 -0.056992
v -0.143272 -0.433276 -0.049355
v -0.143590 -0.409768 -0.056996
v -0.143706 -0.395239 -0.076997
v -0.143574 -0.395239 -0.101718
v -0.143245 -0.409768 -0.121716
v 0.181360 -0.443981 -0.124432
v 0.157977 -0.438729 -0.118364
v 0.143526 -0.429501 -0.100555
v 0.143526 -0.419822 -0.077808
v 0.157977 -0.413389 -0.058810
v 0.181360 -0.412660 -0.050818
v 0.204742 -0.417912 -0.056885
v 0.219193 -0.427140 -0.074694
v 0.219193 -0.436819 -0.097442
v 0.204742 -0.443252 -0.116440
v 0.208941 -0.202493 -0.227182
v 0.185558 -0.197241 -0.221115
v 0.171107 -0.188013 -0.203306
v 0.171107 -0.178334 -0.180558
v 0.185558 -0.171901 -0.161560
v 0.208941 -0.171171 -0.153569
v 0.232324 -0.176423 -0.159636
v 0.246775 -0.185651 -0.177445
v 0.246775 -0.195330 -0.200192
v 0.232324 -0.201763 -0.219190
v 0.208941 -0.223610 -0.174648
v 0.187091 -0.213173 -0.169669
v 0.173588 -0.192674 -0.172599
v 0.173588 -0.169943 -0.182319
v 0.187091 -0.153664 -0.195116
v 0.208941 -0.150053 -0.206103
v 0.230791 -0.160491 -0.211082
v 0.244294 -0.180990 -0.208152
v 0.244294 -0.203721 -0.198432
v 0.230791 -0.220000 -0.185635
v 0.109819 -0.321690 -0.404008
v 0.087969 -0.311252 -0.399028
v 0.074465 -0.290753 -0.401958
v 0.074465 -0.268023 -0.411678
v 0.087969 -0.251744 -0.424476
v 0.109819 -0.248133 -0.435462
v 0.131668 -0.258571 -0.440442
v 0.145172 -0.279070 -0.437512
v 0.145172 -0.301800 -0.427792
v 0.131668 -0.318080 -0.414994
v -0.143059 -0.450060 -0.125663
v -0.164704 -0.455186 -0.114877
v -0.178082 -0.451944 -0.094343
v -0.178082 -0.441571 -0.071903
v -0.164704 -0.428030 -0.056129
v -0.143059 -0.416493 -0.053045
v -0.121413 -0.411367 -0.063831
v -0.108035 -0.414609 -0.084365
v -0.108035 -0.424982 -0.106806
v -0.121413 -0.438523 -0.122580
v -0.249375 -0.222476 -0.230860
v -0.271020 -0.227602 -0.220074
v -0.284398 -0.224360 -0.199540
v -0.284398 -0.213987 -0.177100
v -0.271020 -0.200447 -0.161326
v -0.249375 -0.188910 -0.158242
v -0.227729 -0.183783 -0.169028
v -0.214351 -0.187026 -0.189563
v -0.214351 -0.197398 -0.212003
v -0.227729 -0.210939 -0.227777
v -0.249375 -0.244560 -0.185100
v -0.267957 -0.240541 -0.200901
v -0.279442 -0.223210 -0.214276
v -0.279442 -0.199189 -0.220118
v -0.267957 -0.177652 -0.216193
v -0.249375 -0.166825 -0.204002
v -0.230792 -0.170845 -0.188202
v -0.219307 -0.188175 -0.174826
v -0.219307 -0.212197 -0.168985
v -0.230792 -0.233734 -0.172909
v -0.091431 -0.292707 -0.383099
v -0.110014 -0.288687 -0.398900
v -0.121498 -0.271357 -0.412276
v -0.121498 -0.247336 -0.418117
v -0.110014 -0.225799 -0.414192
v -0.091431 -0.214972 -0.402002
v -0.072848 -0.218992 -0.386201
v -0.061363 -0.236322 -0.372825
v -0.061363 -0.260344 -0.366984
v -0.072848 -0.281881 -0.370908
v 0.181360 -0.419242 -0.126581
v 0.158090 -0.424251 -0.119904
v 0.143708 -0.430814 -0.100898
v 0.143708 -0.436425 -0.076821
v 0.158090 -0.438940 -0.056872
v 0.181360 -0.437399 -0.048669
v 0.204629 -0.432390 -0.055345
v 0.219011 -0.425827 -0.074352
v 0.219011 -0.420216 -0.098428
v 0.204629 -0.417701 -0.118378
v 0.117181 0.013304 -0.025781
v 0.093911 0.008295 -0.019104
v 0.079530 0.001732 -0.000098
v 0.079530 -0.003878 0.023978
v 0.093911 -0.006394 0.043928
v 0.117181 -0.004853 0.052131
v 0.140451 0.000156 0.045454
v 0.154832 0.006719 0.026448
v 0.154832 0.012330 0.002372
v 0.140451 0.014845 -0.017578
v -0.143059 -0.425853 -0.128659
v -0.166526 -0.425859 -0.120886
v -0.181030 -0.428698 -0.101069
v -0.181030 -0.433286 -0.076777
v -0.166526 -0.437871 -0.057289
v -0.143059 -0.440700 -0.050049
v -0.119591 -0.440694 -0.057822
v -0.105087 -0.437855 -0.077640
v -0.105087 -0.433267 -0.101932
v -0.119591 -0.428682 -0.121419
v -0.117041 -0.008253 -0.049785
v -0.140508 -0.008260 -0.042011
v -0.155012 -0.011099 -0.022194
v -0.155012 -0.015687 0.002098
v -0.140508 -0.020272 0.021586
v -0.117041 -0.023101 0.028826
v -0.093574 -0.023095 0.021052
v -0.079070 -0.020256 0.001235
v -0.079070 -0.015667 -0.023057
v -0.093574 -0.011083 -0.042545
v 0.121200 0.004226 -0.026623
v 0.122403 -0.019202 -0.018823
v 0.121612 -0.033681 0.001199
v 0.119128 -0.033681 0.025795
v 0.115900 -0.019202 0.045571
v 0.113162 0.004226 0.052973
v 0.111959 0.027653 0.045173
v 0.112750 0.042133 0.025151
v 0.115234 0.042133 0.000555
v 0.118462 0.027653 -0.019221
v -0.113022 -0.015677 -0.050277
v -0.111819 -0.039105 -0.042477
v -0.112610 -0.053584 -0.022456
v -0.115094 -0.053584 0.002141
v -0.118322 -0.039105 0.021916
v -0.121060 -0.015677 0.029318
v -0.122263 0.007751 0.021518
v -0.121472 0.022230 0.001497
v -0.118988 0.022230 -0.023100
v -0.115760 0.007751 -0.042875
v 0.117181 0.000751 -0.026674
v 0.093672 0.001107 -0.019037
v 0.079142 0.002655 0.000904
v 0.079142 0.004802 0.025532
v 0.093672 0.006729 0.045440
v 0.117181 0.007700 0.053024
v 0.140690 0.007344 0.045387
v 0.155220 0.005797 0.025446
v 0.155220 0.003649 0.000818
v 0.140690 0.001722 -0.019090
v 0.114395 0.212338 -0.045123
v 0.090885 0.212694 -0.037486
v 0.076356 0.214242 -0.017545
v 0.076356 0.216389 0.007083
v 0.090885 0.218316 0.026991
v 0.114395 0.219287 0.034574
v 0.137904 0.218931 0.026937
v 0.152434 0.217384 0.006996
v 0.152434 0.215236 -0.017632
v 0.137904 0.213309 -0.037540
v 0.114395 0.235407 -0.040146
v 0.091041 0.234034 -0.032155
v 0.076607 0.225701 -0.013896
v 0.076607 0.213591 0.007656
v 0.091041 0.202329 0.024269
v 0.114395 0.196218 0.029597
v 0.137748 0.197591 0.021606
v 0.152182 0.205924 0.003348
v 0.152182 0.218034 -0.018204
v 0.137748 0.229296 -0.034818
v 0.150732 0.507629 0.112817
v 0.127378 0.506256 0.120809
v 0.112944 0.497923 0.139067
v 0.112944 0.485812 0.160619
v 0.127378 0.474551 0.177232
v 0.150732 0.468439 0.182561
v 0.174085 0.469812 0.174570
v 0.188519 0.478145 0.156311
v 0.188519 0.490255 0.134759
v 0.174085 0.501517 0.118146
v -0.117041 -0.053130 -0.024525
v -0.140067 -0.044307 -0.026295
v -0.154297 -0.024549 -0.022024
v -0.154297 -0.001402 -0.013343
v -0.140067 0.016292 -0.003569
v -0.117041 0.021776 0.003566
v -0.094016 0.012953 0.005336
v -0.079785 -0.006805 0.001065
v -0.079785 -0.029953 -0.007616
v -0.094016 -0.047647 -0.017390
v -0.083791 0.003405 -0.175273
v -0.106817 0.012227 -0.177043
v -0.121047 0.031986 -0.172771
v -0.121047 0.055133 -0.164091
v -0.106817 0.072827 -0.154316
v -0.083791 0.078310 -0.147181
v -0.060766 0.069488 -0.145411
v -0.046535 0.049729 -0.149682
v -0.046535 0.026582 -0.158363
v -0.060766 0.008888 -0.168138
v -0.083791 0.035615 -0.200882
v -0.106954 0.040617 -0.193837
v -0.121269 0.045711 -0.174337
v -0.121269 0.048951 -0.149829
v -0.106954 0.049100 -0.129674
v -0.083791 0.046100 -0.121572
v -0.060629 0.041098 -0.128616
v -0.046314 0.036004 -0.148117
v -0.046314 0.032764 -0.172625
v -0.060629 0.032615 -0.192779
v -0.037519 0.298896 -0.235689
v -0.060681 0.303898 -0.228644
v -0.074997 0.308992 -0.209144
v -0.074997 0.312232 -0.184635
v -0.060681 0.312381 -0.164481
v -0.037519 0.309381 -0.156379
v -0.014356 0.304379 -0.163423
v -0.000041 0.299285 -0.182924
v -0.000041 0.296045 -0.207432
v -0.014356 0.295897 -0.227586
v -0.053370 0.023600 0.087026
v -0.059663 0.018416 0.082615
v -0.063553 0.016743 0.074368
v -0.063553 0.019221 0.065435
v -0.059663 0.024903 0.059228
v -0.053370 0.031619 0.058118
v -0.047076 0.036803 0.062529
v -0.043187 0.038476 0.070776
v -0.043187 0.035998 0.079709
v -0.047076 0.030316 0.085916
v -0.026450 -0.002838 0.079693
v -0.032744 -0.008022 0.075282
v -0.036633 -0.009695 0.067034
v -0.036633 -0.007217 0.058101
v -0.032744 -0.001535 0.051894
v -0.026450 0.005181 0.050784
v -0.020157 0.010365 0.055195
v -0.016267 0.012038 0.063442
v -0.016267 0.009560 0.072375
v -0.020157 0.003878 0.078583
v -0.021168 0.001171 0.079277
v -0.023310 -0.007562 0.077022
v -0.026651 -0.012959 0.070266
v -0.029916 -0.012959 0.061590
v -0.031857 -0.007562 0.054307
v -0.031733 0.001171 0.051199
v -0.029591 0.009905 0.053454
v -0.026249 0.015302 0.060210
v -0.022985 0.015302 0.068887
v -0.021044 0.009905 0.076170
v 0.004105 -0.002572 0.069767
v 0.001963 -0.011305 0.067513
v -0.001378 -0.016703 0.060757
v -0.004643 -0.016703 0.052080
v -0.006584 -0.011305 0.044797
v -0.006460 -0.002572 0.041689
v -0.004318 0.006161 0.043944
v -0.000976 0.011559 0.050700
v 0.002289 0.011559 0.059377
v 0.004230 0.006161 0.066660
v -0.001177 -0.016727 0.050765
v -0.008299 -0.012304 0.046809
v -0.012701 -0.004164 0.046259
v -0.012701 0.004585 0.049326
v -0.008299 0.010599 0.054839
v -0.001177 0.011583 0.060692
v 0.005945 0.007160 0.064648
v 0.010346 -0.000980 0.065198
v 0.010346 -0.009729 0.062131
v 0.005945 -0.015743 0.056618
v 0.017720 -0.008160 0.026330
v 0.010598 -0.003737 0.022373
v 0.006196 0.004404 0.021824
v 0.006196 0.013152 0.024891
v 0.010598 0.019167 0.030404
v 0.017720 0.020151 0.036256
v 0.024842 0.015727 0.040213
v 0.029243 0.007587 0.040763
v 0.029243 -0.001161 0.037696
v 0.024842 -0.007176 0.032183
v 0.017720 -0.007800 0.025404
v 0.009456 -0.003959 0.023702
v 0.004349 0.003685 0.024900
v 0.004349 0.012211 0.028540
v 0.009456 0.018363 0.033232
v 0.017720 0.019791 0.037183
v 0.025984 0.015949 0.038885
v 0.031091 0.008306 0.037687
v 0.031091 -0.000220 0.034047
v 0.025984 -0.006372 0.029355
v 0.026588 0.001563 0.003472
v 0.018324 0.005405 0.001771
v 0.013217 0.013048 0.002969
v 0.013217 0.021574 0.006609
v 0.018324 0.027726 0.011300
v 0.026588 0.029154 0.015252
v 0.034852 0.025313 0.016953
v 0.039959 0.017669 0.015755
v 0.039959 0.009143 0.012115
v 0.034852 0.002991 0.007424
v -0.053370 0.015514 0.081443
v -0.060780 0.014999 0.075897
v -0.065360 0.019301 0.069081
v -0.065360 0.026776 0.063598
v -0.060780 0.034570 0.061543
v -0.053370 0.039705 0.063701
v -0.045959 0.040220 0.069247
v -0.041379 0.035918 0.076063
v -0.041379 0.028442 0.081545
v -0.045959 0.020649 0.083600
v -0.001650 -0.031939 0.016738
v -0.009061 -0.032454 0.011192
v -0.013641 -0.028152 0.004376
v -0.013641 -0.020677 -0.001106
v -0.009061 -0.012883 -0.003161
v -0.001650 -0.007748 -0.001004
v 0.005761 -0.007233 0.004542
v 0.010341 -0.011535 0.011358
v 0.010341 -0.019011 0.016841
v 0.005761 -0.026805 0.018896
v 0.000142 -0.019844 0.022760
v -0.001113 -0.028612 0.020026
v -0.002574 -0.034032 0.012647
v -0.003681 -0.034032 0.003443
v -0.004013 -0.028612 -0.004071
v -0.003442 -0.019844 -0.007025
v -0.002187 -0.011075 -0.004291
v -0.000727 -0.005656 0.003088
v 0.000381 -0.005656 0.012292
v 0.000712 -0.011075 0.019806
v 0.025493 -0.022521 0.019710
v 0.024237 -0.031290 0.016975
v 0.022777 -0.036709 0.009597
v 0.021670 -0.036709 0.000393
v 0.021338 -0.031290 -0.007121
v 0.021909 -0.022521 -0.010075
v 0.023164 -0.013753 -0.007341
v 0.024624 -0.008333 0.000037
v 0.025732 -0.008333 0.009242
v 0.026063 -0.013753 0.016756
v 0.023701 -0.007858 0.007976
v 0.018319 -0.012129 0.014200
v 0.014992 -0.020370 0.016840
v 0.014992 -0.029432 0.014887
v 0.018319 -0.035855 0.009088
v 0.023701 -0.037185 0.001658
v 0.029083 -0.032913 -0.004566
v 0.032409 -0.024673 -0.007205
v 0.032409 -0.015610 -0.005253
v 0.029083 -0.009187 0.000546
v 0.045107 -0.011332 0.024104
v 0.039725 -0.015604 0.030327
v 0.036399 -0.023844 0.032967
v 0.036399 -0.032907 0.031014
v 0.039725 -0.039330 0.025216
v 0.045107 -0.040659 0.017785
v 0.050489 -0.036388 0.011562
v 0.053815 -0.028147 0.008922
v 0.053815 -0.019085 0.010875
v 0.050489 -0.012662 0.016674
v 0.045107 -0.011028 0.021921
v 0.039057 -0.014304 0.028134
v 0.035317 -0.022046 0.031601
v 0.035317 -0.031297 0.030997
v 0.039057 -0.038523 0.026554
v 0.045107 -0.040964 0.019968
v 0.051158 -0.037688 0.013756
v 0.054897 -0.029946 0.010289
v 0.054897 -0.020695 0.010892
v 0.051158 -0.013469 0.015335
v 0.061075 -0.012008 0.036954
v 0.055024 -0.015284 0.043167
v 0.051285 -0.023026 0.046634
v 0.051285 -0.032277 0.046031
v 0.055024 -0.039503 0.041588
v 0.061075 -0.041944 0.035002
v 0.067125 -0.038668 0.028789
v 0.070865 -0.030926 0.025322
v 0.070865 -0.021676 0.025925
v 0.067125 -0.014449 0.030368
v -0.053370 0.013804 0.078437
v -0.060812 0.014592 0.072967
v -0.065412 0.020353 0.067345
v -0.065412 0.028885 0.063720
v -0.060812 0.036930 0.063476
v -0.053370 0.041415 0.066706
v -0.045927 0.040627 0.072177
v -0.041327 0.034866 0.077798
v -0.041327 0.026334 0.081423
v -0.045927 0.018289 0.081667
v -0.001808 -0.017944 0.003713
v -0.009251 -0.017155 -0.001758
v -0.013850 -0.011395 -0.007379
v -0.013850 -0.002863 -0.011004
v -0.009251 0.005183 -0.011248
v -0.001808 0.009668 -0.008018
v 0.005635 0.008879 -0.002548
v 0.010235 0.003119 0.003074
v 0.010235 -0.005414 0.006699
v 0.005635 -0.013459 0.006943
v 0.000998 -0.004138 0.012583
v -0.001153 -0.012800 0.010076
v -0.003554 -0.018154 0.002898
v -0.005289 -0.018154 -0.006208
v -0.005693 -0.012800 -0.013766
v -0.004614 -0.004138 -0.016888
v -0.002463 0.004524 -0.014381
v -0.000061 0.009877 -0.007204
v 0.001673 0.009877 0.001903
v 0.002077 0.004524 0.009461
v 0.031275 -0.009989 0.006817
v 0.029124 -0.018651 0.004310
v 0.026722 -0.024004 -0.002867
v 0.024988 -0.024004 -0.011974
v 0.024583 -0.018651 -0.019532
v 0.025663 -0.009989 -0.022653
v 0.027814 -0.001327 -0.020147
v 0.030215 0.004027 -0.012969
v 0.031949 0.004027 -0.003863
v 0.032354 -0.001327 0.003695
v 0.028469 0.003147 -0.000675
v 0.023575 -0.002903 0.004364
v 0.020550 -0.011660 0.004711
v 0.020550 -0.019778 0.000235
v 0.023575 -0.024157 -0.007356
v 0.028469 -0.023124 -0.015161
v 0.033363 -0.017074 -0.020200
v 0.036387 -0.008318 -0.020548
v 0.036387 -0.000200 -0.016071
v 0.033363 0.004179 -0.008481
v 0.052636 -0.004641 0.013447
v 0.047742 -0.010691 0.018486
v 0.044717 -0.019447 0.018834
v 0.044717 -0.027565 0.014357
v 0.047742 -0.031944 0.006766
v 0.052636 -0.030912 -0.001039
v 0.057530 -0.024862 -0.006078
v 0.060554 -0.016105 -0.006425
v 0.060554 -0.007987 -0.001949
v 0.057530 -0.003608 0.005642
v 0.052636 -0.003868 0.011823
v 0.047097 -0.009094 0.017110
v 0.043673 -0.017636 0.018232
v 0.043673 -0.026232 0.014759
v 0.047097 -0.031598 0.008018
v 0.052636 -0.031684 0.000585
v 0.058174 -0.026458 -0.004702
v 0.061598 -0.017916 -0.005823
v 0.061598 -0.009321 -0.002350
v 0.058174 -0.003955 0.004390
v 0.076029 -0.010945 0.029337
v 0.070490 -0.016171 0.034624
v 0.067067 -0.024713 0.035746
v 0.067067 -0.033308 0.032273
v 0.070490 -0.038674 0.025532
v 0.076029 -0.038760 0.018099
v 0.081568 -0.033534 0.012812
v 0.084992 -0.024992 0.011691
v 0.084992 -0.016397 0.015164
v 0.081568 -0.011031 0.021904
v -0.053370 0.012911 0.075565
v -0.060652 0.014726 0.070122
v -0.065152 0.021463 0.065615
v -0.065152 0.030547 0.063766
v -0.060652 0.038509 0.065279
v -0.053370 0.042308 0.069579
v -0.046088 0.040493 0.075021
v -0.041587 0.033756 0.079528
v -0.041587 0.024672 0.081378
v -0.046088 0.016710 0.079864
v 0.001937 -0.003255 -0.003824
v -0.005345 -0.001439 -0.009267
v -0.009845 0.005297 -0.013774
v -0.009845 0.014381 -0.015623
v -0.005345 0.022343 -0.014109
v 0.001937 0.026142 -0.009810
v 0.009219 0.024327 -0.004367
v 0.013720 0.017591 0.000139
v 0.013720 0.008507 0.001989
v 0.009219 0.000544 0.000475
v -0.003926 0.011444 0.006990
v -0.002078 0.002662 0.004662
v 0.001303 -0.002765 -0.002050
v 0.004927 -0.002765 -0.010583
v 0.007409 0.002662 -0.017678
v 0.007801 0.011444 -0.020624
v 0.005953 0.020225 -0.018296
v 0.002571 0.025652 -0.011584
v -0.001052 0.025652 -0.003051
v -0.003534 0.020225 0.004044
v 0.020081 0.013793 0.017185
v 0.021929 0.005011 0.014857
v 0.025310 -0.000416 0.008145
v 0.028934 -0.000416 -0.000388
v 0.031416 0.005011 -0.007482
v 0.031808 0.013793 -0.010428
v 0.029960 0.022574 -0.008101
v 0.026579 0.028001 -0.001388
v 0.022955 0.028001 0.007145
v 0.020473 0.022574 0.014239
v 0.025945 0.028763 0.004323
v 0.017170 0.025958 0.003283
v 0.011747 0.018506 0.002279
v 0.011747 0.009254 0.001695
v 0.017170 0.001736 0.001755
v 0.025945 -0.001178 0.002434
v 0.034719 0.001627 0.003474
v 0.040142 0.009079 0.004477
v 0.040142 0.018331 0.005061
v 0.034719 0.025850 0.005002
v 0.023572 0.027241 0.028446
v 0.014797 0.024436 0.027406
v 0.009374 0.016985 0.026403
v 0.009374 0.007733 0.025819
v 0.014797 0.000214 0.025878
v 0.023572 -0.002699 0.026558
v 0.032346 0.000105 0.027598
v 0.037769 0.007557 0.028601
v 0.037769 0.016809 0.029185
v 0.032346 0.024328 0.029126
v 0.023572 0.027251 0.028269
v 0.015938 0.024616 0.023717
v 0.011219 0.017265 0.020611
v 0.011219 0.008007 0.020137
v 0.015938 0.000377 0.022476
v 0.023572 -0.002709 0.026735
v 0.031206 -0.000074 0.031287
v 0.035924 0.007277 0.034393
v 0.035924 0.016535 0.034867
v 0.031206 0.024165 0.032528
v 0.009971 0.026047 0.051777
v 0.002337 0.023412 0.047225
v -0.002381 0.016061 0.044119
v -0.002381 0.006803 0.043645
v 0.002337 -0.000827 0.045984
v 0.009971 -0.003913 0.050243
v 0.017605 -0.001278 0.054794
v 0.022323 0.006073 0.057900
v 0.022323 0.015331 0.058375
v 0.017605 0.022961 0.056036
v -0.053370 0.012610 0.072629
v -0.060602 0.015455 0.067575
v -0.065072 0.022943 0.064430
v -0.065072 0.032214 0.064395
v -0.060602 0.039725 0.067483
v -0.053370 0.042609 0.072515
v -0.046137 0.039764 0.077568
v -0.041667 0.032276 0.080713
v -0.041667 0.023005 0.080749
v -0.046137 0.015493 0.077661
v -0.002880 0.012334 0.000216
v -0.010112 0.015179 -0.004837
v -0.014582 0.022667 -0.007982
v -0.014582 0.031938 -0.008018
v -0.010112 0.039449 -0.004930
v -0.002880 0.042333 0.000102
v 0.004352 0.039488 0.005156
v 0.008822 0.032000 0.008301
v 0.008822 0.022729 0.008336
v 0.004352 0.015218 0.005248
v -0.008056 0.027334 0.014238
v -0.006433 0.018543 0.011783
v -0.003453 0.013110 0.004887
v -0.000254 0.013110 -0.003814
v 0.001942 0.018543 -0.010997
v 0.002296 0.027334 -0.013920
v 0.000673 0.036124 -0.011464
v -0.002307 0.041557 -0.004569
v -0.005506 0.041557 0.004132
v -0.007702 0.036124 0.011316
v 0.012949 0.029055 0.021960
v 0.014572 0.020264 0.019504
v 0.017552 0.014831 0.012609
v 0.020751 0.014831 0.003908
v 0.022947 0.020264 -0.003276
v 0.023300 0.029055 -0.006198
v 0.021677 0.037846 -0.003742
v 0.018697 0.043279 0.003153
v 0.015499 0.043279 0.011854
v 0.013303 0.037846 0.019038
v 0.018125 0.044030 0.008748
v 0.009322 0.041141 0.009074
v 0.003881 0.033636 0.008944
v 0.003881 0.024381 0.008408
v 0.009322 0.016911 0.007671
v 0.018125 0.014080 0.007014
v 0.026928 0.016968 0.006689
v 0.032368 0.024473 0.006819
v 0.032368 0.033728 0.007354
v 0.026928 0.041198 0.008091
v 0.019528 0.042578 0.033817
v 0.010725 0.039690 0.034142
v 0.005284 0.032185 0.034012
v 0.005284 0.022930 0.033477
v 0.010725 0.015460 0.032740
v 0.019528 0.012629 0.032083
v 0.028331 0.015517 0.031757
v 0.033772 0.023022 0.031887
v 0.033772 0.032277 0.032423
v 0.028331 0.039747 0.033160
v 0.019528 0.042600 0.033258
v 0.012971 0.039857 0.027307
v 0.008918 0.032434 0.023511
v 0.008918 0.023165 0.023321
v 0.012971 0.015592 0.026808
v 0.019528 0.012607 0.032642
v 0.026086 0.015350 0.038593
v 0.030138 0.022773 0.042389
v 0.030138 0.032042 0.042579
v 0.026086 0.039615 0.039092
v 0.007256 0.042320 0.046909
v 0.000698 0.039577 0.040958
v -0.003354 0.032153 0.037162
v -0.003354 0.022885 0.036972
v 0.000698 0.015311 0.040460
v 0.007256 0.012326 0.046293
v 0.013813 0.015069 0.052245
v 0.017866 0.022493 0.056040
v 0.017866 0.031761 0.056231
v 0.013813 0.039335 0.052743
v 0.038392 0.017107 0.097945
v 0.031939 0.023704 0.098837
v 0.027951 0.030917 0.094595
v 0.027951 0.035994 0.086838
v 0.031939 0.036993 0.078529
v 0.038392 0.033534 0.072842
v 0.044845 0.026938 0.071949
v 0.048833 0.019724 0.076191
v 0.048833 0.014648 0.083949
v 0.044845 0.013649 0.092258
v 0.011071 -0.007445 0.081878
v 0.004618 -0.000849 0.082771
v 0.000630 0.006365 0.078528
v 0.000630 0.011441 0.070771
v 0.004618 0.012440 0.062462
v 0.011071 0.008982 0.056775
v 0.017524 0.002386 0.055882
v 0.021512 -0.004828 0.060125
v 0.021512 -0.009904 0.067882
v 0.017524 -0.010904 0.076191
v 0.011071 -0.013124 0.074984
v 0.005460 -0.007906 0.080202
v 0.001992 0.000626 0.081266
v 0.001992 0.009212 0.077770
v 0.005460 0.014572 0.071048
v 0.011071 0.014660 0.063669
v 0.016682 0.009442 0.058451
v 0.020150 0.000911 0.057387
v 0.020150 -0.007675 0.060883
v 0.016682 -0.013036 0.067605
v -0.009829 -0.019628 0.059014
v -0.015440 -0.014409 0.064232
v -0.018908 -0.005878 0.065296
v -0.018908 0.002708 0.061800
v -0.015440 0.008069 0.055078
v -0.009829 0.008157 0.047699
v -0.004218 0.002939 0.042481
v -0.000751 -0.005593 0.041417
v -0.000751 -0.014179 0.044913
v -0.004218 -0.019539 0.051635
v -0.009829 -0.020289 0.049725
v -0.017538 -0.018546 0.054571
v -0.022302 -0.011909 0.058953
v -0.022302 -0.002914 0.061197
v -0.017538 0.005003 0.060447
v -0.009829 0.008818 0.056988
v -0.002121 0.007075 0.052142
v 0.002643 0.000438 0.047760
v 0.002643 -0.008556 0.045516
v -0.002121 -0.016473 0.046266
v -0.027354 -0.012647 0.019098
v -0.035062 -0.010903 0.023944
v -0.039826 -0.004267 0.028326
v -0.039826 0.004728 0.030571
v -0.035062 0.012645 0.029820
v -0.027354 0.016461 0.026361
v -0.019645 0.014717 0.021516
v -0.014881 0.008081 0.017134
v -0.014881 -0.000914 0.014889
v -0.019645 -0.008831 0.015640
v -0.027354 -0.012342 0.018045
v -0.035213 -0.010869 0.022736
v -0.040070 -0.004516 0.027425
v -0.040070 0.004291 0.030320
v -0.035213 0.012187 0.030317
v -0.027354 0.016157 0.027415
v -0.019495 0.014683 0.022724
v -0.014638 0.008330 0.018035
v -0.014638 -0.000477 0.015139
v -0.019495 -0.008373 0.015143
v -0.042656 -0.002943 -0.010542
v -0.050515 -0.001470 -0.005850
v -0.055372 0.004883 -0.001161
v -0.055372 0.013690 0.001734
v -0.050515 0.021586 0.001731
v -0.042656 0.025556 -0.001171
v -0.034797 0.024083 -0.005862
v -0.029939 0.017729 -0.010551
v -0.029939 0.008923 -0.013447
v -0.034797 0.001026 -0.013443
v 0.038392 0.011885 0.092063
v 0.030416 0.016122 0.094154
v 0.025486 0.023872 0.092900
v 0.025486 0.032176 0.088777
v 0.030416 0.037861 0.083363
v 0.038392 0.038756 0.078723
v 0.046368 0.034520 0.076632
v 0.051298 0.026770 0.077887
v 0.051298 0.018466 0.082009
v 0.046368 0.012781 0.087424
v -0.005125 -0.029192 0.009317
v -0.013101 -0.024955 0.011409
v -0.018031 -0.017205 0.010154
v -0.018031 -0.008901 0.006032
v -0.013101 -0.003216 0.000617
v -0.005125 -0.002321 -0.004022
v 0.002851 -0.006557 -0.006114
v 0.007781 -0.014308 -0.004859
v 0.007781 -0.022611 -0.000737
v 0.002851 -0.028297 0.004678
v -0.000446 -0.015756 -0.011604
v -0.002155 -0.024531 -0.009150
v -0.004998 -0.029954 -0.002190
v -0.007890 -0.029954 0.006618
v -0.009725 -0.024531 0.013910
v -0.009804 -0.015756 0.016899
v -0.008095 -0.006981 0.014445
v -0.005252 -0.001558 0.007484
v -0.002360 -0.001558 -0.001324
v -0.000524 -0.006981 -0.008615
v -0.021597 -0.013580 -0.018548
v -0.023306 -0.022355 -0.016094
v -0.026149 -0.027778 -0.009134
v -0.029041 -0.027778 -0.000326
v -0.030877 -0.022355 0.006965
v -0.030955 -0.013580 0.009955
v -0.029247 -0.004805 0.007500
v -0.026403 0.000618 0.000540
v -0.023512 0.000618 -0.008268
v -0.021676 -0.004805 -0.015559
v -0.026276 0.001070 -0.007519
v -0.031645 -0.003230 -0.013734
v -0.034963 -0.011483 -0.016345
v -0.034963 -0.020537 -0.014354
v -0.031645 -0.026934 -0.008521
v -0.026276 -0.028230 -0.001075
v -0.020908 -0.023930 0.005140
v -0.017590 -0.015676 0.007751
v -0.017590 -0.006622 0.005760
v -0.020908 -0.000226 -0.000073
v -0.045742 0.004280 0.007075
v -0.051111 -0.000020 0.000860
v -0.054429 -0.008274 -0.001751
v -0.054429 -0.017328 0.000240
v -0.051111 -0.023725 0.006073
v -0.045742 -0.025020 0.013519
v -0.040374 -0.020720 0.019734
v -0.037056 -0.012467 0.022345
v -0.037056 -0.003413 0.020354
v -0.040374 0.002984 0.014521
v -0.045742 0.001151 0.000692
v -0.053845 -0.003275 -0.000143
v -0.058853 -0.010411 0.003009
v -0.058853 -0.017532 0.008945
v -0.053845 -0.021917 0.015398
v -0.045742 -0.021892 0.019902
v -0.037640 -0.017466 0.020737
v -0.032632 -0.010330 0.017585
v -0.032632 -0.003209 0.011649
v -0.037640 0.001176 0.005196
v -0.054117 0.013652 0.015688
v -0.062220 0.009226 0.014852
v -0.067228 0.002090 0.018005
v -0.067228 -0.005031 0.023941
v -0.062220 -0.009416 0.030393
v -0.054117 -0.009391 0.034897
v -0.046014 -0.004965 0.035733
v -0.041006 0.002171 0.032580
v -0.041006 0.009292 0.026644
v -0.046014 0.013677 0.020192
v 0.038392 0.011008 0.089882
v 0.030248 0.014753 0.092248
v 0.025215 0.022534 0.091996
v 0.025215 0.031380 0.089222
v 0.030248 0.037911 0.084985
v 0.038392 0.039634 0.080904
v 0.046536 0.035889 0.078538
v 0.051569 0.028108 0.078790
v 0.051569 0.019262 0.081564
v 0.046536 0.012731 0.085801
v 0.000587 -0.016263 0.002928
v -0.007557 -0.012518 0.005295
v -0.012590 -0.004737 0.005043
v -0.012590 0.004109 0.002269
v -0.007557 0.010640 -0.001968
v 0.000587 0.012363 -0.006049
v 0.008730 0.008618 -0.008415
v 0.013764 0.000837 -0.008163
v 0.013764 -0.008009 -0.005389
v 0.008730 -0.014540 -0.001152
v 0.004369 -0.001950 -0.016075
v 0.003275 -0.010758 -0.013400
v 0.001153 -0.016202 -0.006203
v -0.001185 -0.016202 0.002768
v -0.002846 -0.010758 0.010086
v -0.003196 -0.001950 0.012955
v -0.002101 0.006858 0.010280
v 0.000020 0.012302 0.003082
v 0.002358 0.012302 -0.005889
v 0.004019 0.006858 -0.013206
v -0.022010 -0.000759 -0.022950
v -0.023105 -0.009567 -0.020275
v -0.025226 -0.015011 -0.013078
v -0.027564 -0.015011 -0.004107
v -0.029226 -0.009567 0.003211
v -0.029576 -0.000759 0.006080
v -0.028481 0.008050 0.003405
v -0.026359 0.013493 -0.003793
v -0.024021 0.013493 -0.012763
v -0.022360 0.008050 -0.020081
v -0.025793 0.012334 -0.015755
v -0.031672 0.006627 -0.020092
v -0.035305 -0.001901 -0.019977
v -0.035305 -0.009993 -0.015453
v -0.031672 -0.014557 -0.008249
v -0.025793 -0.013852 -0.001116
v -0.019914 -0.008145 0.003222
v -0.016280 0.000383 0.003107
v -0.016280 0.008475 -0.001417
v -0.019914 0.013040 -0.008622
v -0.048234 0.022132 0.001771
v -0.054113 0.016425 -0.002566
v -0.057746 0.007897 -0.002451
v -0.057746 -0.000195 0.002073
v -0.054113 -0.004759 0.009278
v -0.048234 -0.004054 0.016411
v -0.042355 0.001653 0.020748
v -0.038722 0.010181 0.020633
v -0.038722 0.018273 0.016109
v -0.042355 0.022838 0.008905
v -0.048234 0.023308 0.004465
v -0.055038 0.018854 0.000015
v -0.059244 0.010650 -0.000968
v -0.059244 0.001832 0.001891
v -0.055038 -0.004234 0.007500
v -0.048234 -0.005229 0.013718
v -0.041430 -0.000775 0.018167
v -0.037224 0.007428 0.019150
v -0.037224 0.016247 0.016291
v -0.041430 0.022312 0.010682
v -0.069092 0.031115 0.028543
v -0.075896 0.026661 0.024093
v -0.080101 0.018458 0.023110
v -0.080101 0.009639 0.025969
v -0.075896 0.003574 0.031579
v -0.069092 0.002578 0.037796
v -0.062287 0.007032 0.042246
v -0.058082 0.015235 0.043229
v -0.058082 0.024054 0.040369
v -0.062287 0.030119 0.034760
v 0.038392 0.010553 0.088023
v 0.030237 0.013961 0.090821
v 0.025197 0.021708 0.091545
v 0.025197 0.030835 0.089920
v 0.030237 0.037856 0.086566
v 0.038392 0.040089 0.082763
v 0.046547 0.036681 0.079966
v 0.051587 0.028934 0.079241
v 0.051587 0.019807 0.080866
v 0.046547 0.012786 0.084221
v 0.001421 -0.005216 -0.000531
v -0.006734 -0.001808 0.002267
v -0.011774 0.005939 0.002992
v -0.011774 0.015066 0.001367
v -0.006734 0.022087 -0.001988
v 0.001421 0.024319 -0.005790
v 0.009576 0.020911 -0.008588
v 0.014615 0.013164 -0.009312
v 0.014615 0.004037 -0.007687
v 0.009576 -0.002983 -0.004333
v -0.001325 0.009552 -0.017907
v -0.002935 0.001006 -0.014693
v -0.002881 -0.004275 -0.007074
v -0.001183 -0.004275 0.002040
v 0.001508 0.001006 0.009167
v 0.004167 0.009552 0.011586
v 0.005776 0.018097 0.008373
v 0.005722 0.023378 0.000754
v 0.004025 0.023378 -0.008360
v 0.001333 0.018097 -0.015488
v -0.026877 0.016154 -0.013149
v -0.028487 0.007608 -0.009935
v -0.028432 0.002327 -0.002316
v -0.026735 0.002327 0.006798
v -0.024044 0.007608 0.013925
v -0.021385 0.016154 0.016344
v -0.019776 0.024699 0.013131
v -0.019830 0.029980 0.005512
v -0.021527 0.029980 -0.003602
v -0.024219 0.024699 -0.010730
v -0.024131 0.031030 0.003518
v -0.032907 0.028298 0.002306
v -0.038330 0.020927 0.000824
v -0.038330 0.011733 -0.000363
v -0.032907 0.004227 -0.000801
v -0.024131 0.001277 -0.000323
v -0.015356 0.004009 0.000889
v -0.009932 0.011380 0.002372
v -0.009932 0.020574 0.003559
v -0.015356 0.028080 0.003997
v -0.026273 0.028206 0.025394
v -0.035049 0.025474 0.024182
v -0.040472 0.018103 0.022699
v -0.040472 0.008909 0.021512
v -0.035049 0.001403 0.021074
v -0.026273 -0.001547 0.021552
v -0.017498 0.001185 0.022764
v -0.012074 0.008556 0.024247
v -0.012074 0.017750 0.025434
v -0.017498 0.025256 0.025872
v -0.026273 0.028328 0.023693
v -0.034556 0.025419 0.026672
v -0.039675 0.017892 0.028430
v -0.039675 0.008623 0.028294
v -0.034556 0.001151 0.026316
v -0.026273 -0.001669 0.023253
v -0.017990 0.001240 0.020274
v -0.012871 0.008766 0.018516
v -0.012871 0.018036 0.018652
v -0.017990 0.025508 0.020630
v -0.017277 0.027966 0.048350
v -0.025560 0.025057 0.051330
v -0.030679 0.017531 0.053087
v -0.030679 0.008261 0.052951
v -0.025560 0.000789 0.050974
v -0.017277 -0.002031 0.047910
v -0.008994 0.000878 0.044931
v -0.003875 0.008404 0.043174
v -0.003875 0.017674 0.043310
v -0.008994 0.025146 0.045287
v 0.038392 0.010354 0.084393
v 0.030282 0.012982 0.088036
v 0.025270 0.020323 0.090669
v 0.025270 0.029573 0.091287
v 0.030282 0.037199 0.089654
v 0.038392 0.040288 0.086393
v 0.046502 0.037660 0.082750
v 0.051514 0.030319 0.080117
v 0.051514 0.021069 0.079499
v 0.046502 0.013443 0.081133
v 0.005161 0.015547 0.006660
v -0.002949 0.018175 0.010303
v -0.007961 0.025516 0.012936
v -0.007961 0.034766 0.013554
v -0.002949 0.042392 0.011921
v 0.005161 0.045481 0.008660
v 0.013270 0.042853 0.005018
v 0.018282 0.035512 0.002385
v 0.018282 0.026262 0.001767
v 0.013270 0.018636 0.003400
v 0.002271 0.030514 -0.007059
v 0.002882 0.021697 -0.004259
v 0.004364 0.016248 0.003093
v 0.006149 0.016248 0.012190
v 0.007557 0.021697 0.019557
v 0.008050 0.030514 0.022379
v 0.007439 0.039330 0.019580
v 0.005958 0.044779 0.012228
v 0.004172 0.044779 0.003131
v 0.002764 0.039330 -0.004236
v -0.017888 0.030373 -0.003102
v -0.017277 0.021557 -0.000302
v -0.015796 0.016108 0.007050
v -0.014010 0.016108 0.016147
v -0.012602 0.021557 0.023514
v -0.012110 0.030373 0.026336
v -0.012721 0.039190 0.023537
v -0.014202 0.044639 0.016185
v -0.015987 0.044639 0.007088
v -0.017395 0.039190 -0.000279
v -0.014999 0.045143 0.014235
v -0.022926 0.042996 0.009936
v -0.027826 0.036027 0.006279
v -0.027826 0.026899 0.004661
v -0.022926 0.019098 0.005700
v -0.014999 0.015603 0.009000
v -0.007071 0.017751 0.013299
v -0.002172 0.024720 0.016956
v -0.002172 0.033848 0.018574
v -0.007071 0.041649 0.017534
v -0.024479 0.041744 0.033414
v -0.032407 0.039597 0.029114
v -0.037306 0.032628 0.025458
v -0.037306 0.023500 0.023840
v -0.032407 0.015699 0.024879
v -0.024479 0.012205 0.028179
v -0.016551 0.014352 0.032478
v -0.011652 0.021321 0.036135
v -0.011652 0.030449 0.037752
v -0.016551 0.038250 0.036713
v -0.024479 0.041111 0.035811
v -0.030996 0.036426 0.040450
v -0.035023 0.028131 0.041402
v -0.035023 0.019393 0.038303
v -0.030996 0.013552 0.032336
v -0.024479 0.012838 0.025782
v -0.017962 0.017523 0.021142
v -0.013935 0.025818 0.020190
v -0.013935 0.034555 0.023289
v -0.017962 0.040397 0.029256
v -0.011337 0.036290 0.049402
v -0.017853 0.031605 0.054041
v -0.021881 0.023310 0.054993
v -0.021881 0.014573 0.051894
v -0.017853 0.008731 0.045928
v -0.011337 0.008017 0.039373
v -0.004820 0.012702 0.034733
v -0.000793 0.020997 0.033781
v -0.000793 0.029734 0.036880
v -0.004820 0.035576 0.042847
f 1 2 13
f 2 14 13
f 2 3 14
f 3 15 14
f 3 4 15
f 4 16 15
f 4 5 16
f 5 17 16
f 5 6 17
f 6 18 17
f 6 7 18
f 7 19 18
f 7 8 19
f 8 20 19
f 8 9 20
f 9 21 20
f 9 10 21
f 10 22 21
f 10 11 22
f 11 23 22
f 11 12 23
f 12 24 23
f 13 14 25
f 14 26 25
f 14 15 26
f 15 27 26
f 15 16 27
f 16 28 27
f 16 17 28
f 17 29 28
f 17 18 29
f 18 30 29
f 18 19 30
f 19 31 30
f 19 20 31
f 20 32 31
f 20 21 32
f 21 33 32
f 21 22 33
f 22 34 33
f 22 23 34
f 23 35 34
f 23 24 35
f 24 36 35
f 25 26 37
f 26 38 37
f 26 27 38
f 27 39 38
f 27 28 39
f 28 40 39
f 28 29 40
f 29 41 40
f 29 30 41
f 30 42 41
f 30 31 42
f 31 43 42
f 31 32 43
f 32 44 43
f 32 33 44
f 33 45 44
f 33 34 45
f 34 46 45
f 34 35 46
f 35 47 46
f 35 36 47
f 36 48 47
f 37 38 49
f 38 50 49
f 38 39 50
f 39 51 50
f 39 40 51
f 40 52 51
f 40 41 52
f 41 53 52
f 41 42 53
f 42 54 53
f 42 43 54
f 43 55 54
f 43 44 55
f 44 56 55
f 44 45 56
f 45 57 56
f 45 46 57
f 46 58 57
f 46 47 58
f 47 59 58
f 47 48 59
f 48 60 59
f 49 50 61
f 50 62 61
f 50 51 62
f 51 63 62
f 51 52 63
f 52 64 63
f 52 53 64
f 53 65 64
f 53 54 65
f 54 66 65
f 54 55 66
f 55 67 66
f 55 56 67
f 56 68 67
f 56 57 68
f 57 69 68
f 57 58 69
f 58 70 69
f 58 59 70
f 59 71 70
f 59 60 71
f 60 72 71
f 61 62 73
f 62 74 73
f 62 63 74
f 63 75 74
f 63 64 75
f 64 76 75
f 64 65 76
f 65 77 76
f 65 66 77
f 66 78 77
f 66 67 78
f 67 79 78
f 67 68 79
f 68 80 79
f 68 69 80
f 69 81 80
f 69 70 81
f 70 82 81
f 70 71 82
f 71 83 82
f 71 72 83
f 72 84 83
f 73 74 85
f 74 86 85
f 74 75 86
f 75 87 86
f 75 76 87
f 76 88 87
f 76 77 88
f 77 89 88
f 77 78 89
f 78 90 89
f 78 79 90
f 79 91 90
f 79 80 91
f 80 92 91
f 80 81 92
f 81 93 92
f 81 82 93
f 82 94 93
f 82 83 94
f 83 95 94
f 83 84 95
f 84 96 95
f 85 86 97
f 86 98 97
f 86 87 98
f 87 99 98
f 87 88 99
f 88 100 99
f 88 89 100
f 89 101 100
f 89 90 101
f 90 102 101
f 90 91 102
f 91 103 102
f 91 92 103
f 92 104 103
f 92 93 104
f 93 105 104
f 93 94 105
f 94 106 105
f 94 95 106
f 95 107 106
f 95 96 107
f 96 108 107
f 97 98 109
f 98 110 109
f 98 99 110
f 99 111 110
f 99 100 111
f 100 112 111
f 100 101 112
f 101 113 112
f 101 102 113
f 102 114 113
f 102 103 114
f 103 115 114
f 103 104 115
f 104 116 115
f 104 105 116
f 105 117 116
f 105 106 117
f 106 118 117
f 106 107 118
f 107 119 118
f 107 108 119
f 108 120 119
f 109 110 121
f 110 122 121
f 110 111 122
f 111 123 122
f 111 112 123
f 112 124 123
f 112 113 124
f 113 125 124
f 113 114 125
f 114 126 125
f 114 115 126
f 115 127 126
f 115 116 127
f 116 128 127
f 116 117 128
f 117 129 128
f 117 118 129
f 118 130 129
f 118 119 130
f 119 131 130
f 119 120 131
f 120 132 131
f 121 122 133
f 122 134 133
f 122 123 134
f 123 135 134
f 123 124 135
f 124 136 135
f 124 125 136
f 125 137 136
f 125 126 137
f 126 138 137
f 126 127 138
f 127 139 138
f 127 128 139
f 128 140 139
f 128 129 140
f 129 141 140
f 129 130 141
f 130 142 141
f 130 131 142
f 131 143 142
f 131 132 143
f 132 144 143
f 145 146 155
f 146 156 155
f 146 147 156
f 147 157 156
f 147 148 157
f 148 158 157
f 148 149 158
f 149 159 158
f 149 150 159
f 150 160 159
f 150 151 160
f 151 161 160
f 151 152 161
f 152 162 161
f 152 153 162
f 153 163 162
f 153 154 163
f 154 164 163
f 154 145 164
f 145 155 164
f 165 166 175
f 166 176 175
f 166 167 176
f 167 177 176
f 167 168 177
f 168 178 177
f 168 169 178
f 169 179 178
f 169 170 179
f 170 180 179
f 170 171 180
f 171 181 180
f 171 172 181
f 172 182 181
f 172 173 182
f 173 183 182
f 173 174 183
f 174 184 183
f 174 165 184
f 165 175 184
f 185 186 195
f 186 196 195
f 186 187 196
f 187 197 196
f 187 188 197
f 188 198 197
f 188 189 198
f 189 199 198
f 189 190 199
f 190 200 199
f 190 191 200
f 191 201 200
f 191 192 201
f 192 202 201
f 192 193 202
f 193 203 202
f 193 194 203
f 194 204 203
f 194 185 204
f 185 195 204
f 205 206 215
f 206 216 215
f 206 207 216
f 207 217 216
f 207 208 217
f 208 218 217
f 208 209 218
f 209 219 218
f 209 210 219
f 210 220 219
f 210 211 220
f 211 221 220
f 211 212 221
f 212 222 221
f 212 213 222
f 213 223 222
f 213 214 223
f 214 224 223
f 214 205 224
f 205 215 224
f 225 226 235
f 226 236 235
f 226 227 236
f 227 237 236
f 227 228 237
f 228 238 237
f 228 229 238
f 229 239 238
f 229 230 239
f 230 240 239
f 230 231 240
f 231 241 240
f 231 232 241
f 232 242 241
f 232 233 242
f 233 243 242
f 233 234 243
f 234 244 243
f 234 225 244
f 225 235 244
f 245 246 255
f 246 256 255
f 246 247 256
f 247 257 256
f 247 248 257
f 248 258 257
f 248 249 258
f 249 259 258
f 249 250 259
f 250 260 259
f 250 251 260
f 251 261 260
f 251 252 261
f 252 262 261
f 252 253 262
f 253 263 262
f 253 254 263
f 254 264 263
f 254 245 264
f 245 255 264
f 265 266 275
f 266 276 275
f 266 267 276
f 267 277 276
f 267 268 277
f 268 278 277
f 268 269 278
f 269 279 278
f 269 270 279
f 270 280 279
f 270 271 280
f 271 281 280
f 271 272 281
f 272 282 281
f 272 273 282
f 273 283 282
f 273 274 283
f 274 284 283
f 274 265 284
f 265 275 284
f 285 286 295
f 286 296 295
f 286 287 296
f 287 297 296
f 287 288 297
f 288 298 297
f 288 289 298
f 289 299 298
f 289 290 299
f 290 300 299
f 290 291 300
f 291 301 300
f 291 292 301
f 292 302 301
f 292 293 302
f 293 303 302
f 293 294 303
f 294 304 303
f 294 285 304
f 285 295 304
f 305 306 315
f 306 316 315
f 306 307 316
f 307 317 316
f 307 308 317
f 308 318 317
f 308 309 318
f 309 319 318
f 309 310 319
f 310 320 319
f 310 311 320
f 311 321 320
f 311 312 321
f 312 322 321
f 312 313 322
f 313 323 322
f 313 314 323
f 314 324 323
f 314 305 324
f 305 315 324
f 325 326 335
f 326 336 335
f 326 327 336
f 327 337 336
f 327 328 337
f 328 338 337
f 328 329 338
f 329 339 338
f 329 330 339
f 330 340 339
f 330 331 340
f 331 341 340
f 331 332 341
f 332 342 341
f 332 333 342
f 333 343 342
f 333 334 343
f 334 344 343
f 334 325 344
f 325 335 344
f 345 346 355
f 346 356 355
f 346 347 356
f 347 357 356
f 347 348 357
f 348 358 357
f 348 349 358
f 349 359 358
f 349 350 359
f 350 360 359
f 350 351 360
f 351 361 360
f 351 352 361
f 352 362 361
f 352 353 362
f 353 363 362
f 353 354 363
f 354 364 363
f 354 345 364
f 345 355 364
f 365 366 375
f 366 376 375
f 366 367 376
f 367 377 376
f 367 368 377
f 368 378 377
f 368 369 378
f 369 379 378
f 369 370 379
f 370 380 379
f 370 371 380
f 371 381 380
f 371 372 381
f 372 382 381
f 372 373 382
f 373 383 382
f 373 374 383
f 374 384 383
f 374 365 384
f 365 375 384
f 385 386 395
f 386 396 395
f 386 387 396
f 387 397 396
f 387 388 397
f 388 398 397
f 388 389 398
f 389 399 398
f 389 390 399
f 390 400 399
f 390 391 400
f 391 401 400
f 391 392 401
f 392 402 401
f 392 393 402
f 393 403 402
f 393 394 403
f 394 404 403
f 394 385 404
f 385 395 404
f 405 406 415
f 406 416 415
f 406 407 416
f 407 417 416
f 407 408 417
f 408 418 417
f 408 409 418
f 409 419 418
f 409 410 419
f 410 420 419
f 410 411 420
f 411 421 420
f 411 412 421
f 412 422 421
f 412 413 422
f 413 423 422
f 413 414 423
f 414 424 423
f 414 405 424
f 405 415 424
f 425 426 435
f 426 436 435
f 426 427 436
f 427 437 436
f 427 428 437
f 428 438 437
f 428 429 438
f 429 439 438
f 429 430 439
f 430 440 439
f 430 431 440
f 431 441 440
f 431 432 441
f 432 442 441
f 432 433 442
f 433 443 442
f 433 434 443
f 434 444 443
f 434 425 444
f 425 435 444
f 445 446 455
f 446 456 455
f 446 447 456
f 447 457 456
f 447 448 457
f 448 458 457
f 448 449 458
f 449 459 458
f 449 450 459
f 450 460 459
f 450 451 460
f 451 461 460
f 451 452 461
f 452 462 461
f 452 453 462
f 453 463 462
f 453 454 463
f 454 464 463
f 454 445 464
f 445 455 464
f 465 466 475
f 466 476 475
f 466 467 476
f 467 477 476
f 467 468 477
f 468 478 477
f 468 469 478
f 469 479 478
f 469 470 479
f 470 480 479
f 470 471 480
f 471 481 480
f 471 472 481
f 472 482 481
f 472 473 482
f 473 483 482
f 473 474 483
f 474 484 483
f 474 465 484
f 465 475 484
f 485 486 495
f 486 496 495
f 486 487 496
f 487 497 496
f 487 488 497
f 488 498 497
f 488 489 498
f 489 499 498
f 489 490 499
f 490 500 499
f 490 491 500
f 491 501 500
f 491 492 501
f 492 502 501
f 492 493 502
f 493 503 502
f 493 494 503
f 494 504 503
f 494 485 504
f 485 495 504
f 505 506 515
f 506 516 515
f 506 507 516
f 507 517 516
f 507 508 517
f 508 518 517
f 508 509 518
f 509 519 518
f 509 510 519
f 510 520 519
f 510 511 520
f 511 521 520
f 511 512 521
f 512 522 521
f 512 513 522
f 513 523 522
f 513 514 523
f 514 524 523
f 514 505 524
f 505 515 524
f 525 526 535
f 526 536 535
f 526 527 536
f 527 537 536
f 527 528 537
f 528 538 537
f 528 529 538
f 529 539 538
f 529 530 539
f 530 540 539
f 530 531 540
f 531 541 540
f 531 532 541
f 532 542 541
f 532 533 542
f 533 543 542
f 533 534 543
f 534 544 543
f 534 525 544
f 525 535 544
f 545 546 555
f 546 556 555
f 546 547 556
f 547 557 556
f 547 548 557
f 548 558 557
f 548 549 558
f 549 559 558
f 549 550 559
f 550 560 559
f 550 551 560
f 551 561 560
f 551 552 561
f 552 562 561
f 552 553 562
f 553 563 562
f 553 554 563
f 554 564 563
f 554 545 564
f 545 555 564
f 565 566 575
f 566 576 575
f 566 567 576
f 567 577 576
f 567 568 577
f 568 578 577
f 568 569 578
f 569 579 578
f 569 570 579
f 570 580 579
f 570 571 580
f 571 581 580
f 571 572 581
f 572 582 581
f 572 573 582
f 573 583 582
f 573 574 583
f 574 584 583
f 574 565 584
f 565 575 584
f 585 586 595
f 586 596 595
f 586 587 596
f 587 597 596
f 587 588 597
f 588 598 597
f 588 589 598
f 589 599 598
f 589 590 599
f 590 600 599
f 590 591 600
f 591 601 600
f 591 592 601
f 592 602 601
f 592 593 602
f 593 603 602
f 593 594 603
f 594 604 603
f 594 585 604
f 585 595 604
f 605 606 615
f 606 616 615
f 606 607 616
f 607 617 616
f 607 608 617
f 608 618 617
f 608 609 618
f 609 619 618
f 609 610 619
f 610 620 619
f 610 611 620
f 611 621 620
f 611 612 621
f 612 622 621
f 612 613 622
f 613 623 622
f 613 614 623
f 614 624 623
f 614 605 624
f 605 615 624
f 625 626 635
f 626 636 635
f 626 627 636
f 627 637 636
f 627 628 637
f 628 638 637
f 628 629 638
f 629 639 638
f 629 630 639
f 630 640 639
f 630 631 640
f 631 641 640
f 631 632 641
f 632 642 641
f 632 633 642
f 633 643 642
f 633 634 643
f 634 644 643
f 634 625 644
f 625 635 644
f 645 646 655
f 646 656 655
f 646 647 656
f 647 657 656
f 647 648 657
f 648 658 657
f 648 649 658
f 649 659 658
f 649 650 659
f 650 660 659
f 650 651 660
f 651 661 660
f 651 652 661
f 652 662 661
f 652 653 662
f 653 663 662
f 653 654 663
f 654 664 663
f 654 645 664
f 645 655 664
f 665 666 675
f 666 676 675
f 666 667 676
f 667 677 676
f 667 668 677
f 668 678 677
f 668 669 678
f 669 679 678
f 669 670 679
f 670 680 679
f 670 671 680
f 671 681 680
f 671 672 681
f 672 682 681
f 672 673 682
f 673 683 682
f 673 674 683
f 674 684 683
f 674 665 684
f 665 675 684
f 685 686 695
f 686 696 695
f 686 687 696
f 687 697 696
f 687 688 697
f 688 698 697
f 688 689 698
f 689 699 698
f 689 690 699
f 690 700 699
f 690 691 700
f 691 701 700
f 691 692 701
f 692 702 701
f 692 693 702
f 693 703 702
f 693 694 703
f 694 704 703
f 694 685 704
f 685 695 704
f 705 706 715
f 706 716 715
f 706 707 716
f 707 717 716
f 707 708 717
f 708 718 717
f 708 709 718
f 709 719 718
f 709 710 719
f 710 720 719
f 710 711 720
f 711 721 720
f 711 712 721
f 712 722 721
f 712 713 722
f 713 723 722
f 713 714 723
f 714 724 723
f 714 705 724
f 705 715 724
f 725 726 735
f 726 736 735
f 726 727 736
f 727 737 736
f 727 728 737
f 728 738 737
f 728 729 738
f 729 739 738
f 729 730 739
f 730 740 739
f 730 731 740
f 731 741 740
f 731 732 741
f 732 742 741
f 732 733 742
f 733 743 742
f 733 734 743
f 734 744 743
f 734 725 744
f 725 735 744
f 745 746 755
f 746 756 755
f 746 747 756
f 747 757 756
f 747 748 757
f 748 758 757
f 748 749 758
f 749 759 758
f 749 750 759
f 750 760 759
f 750 751 760
f 751 761 760
f 751 752 761
f 752 762 761
f 752 753 762
f 753 763 762
f 753 754 763
f 754 764 763
f 754 745 764
f 745 755 764
f 765 766 775
f 766 776 775
f 766 767 776
f 767 777 776
f 767 768 777
f 768 778 777
f 768 769 778
f 769 779 778
f 769 770 779
f 770 780 779
f 770 771 780
f 771 781 780
f 771 772 781
f 772 782 781
f 772 773 782
f 773 783 782
f 773 774 783
f 774 784 783
f 774 765 784
f 765 775 784
f 785 786 795
f 786 796 795
f 786 787 796
f 787 797 796
f 787 788 797
f 788 798 797
f 788 789 798
f 789 799 798
f 789 790 799
f 790 800 799
f 790 791 800
f 791 801 800
f 791 792 801
f 792 802 801
f 792 793 802
f 793 803 802
f 793 794 803
f 794 804 803
f 794 785 804
f 785 795 804
f 805 806 815
f 806 816 815
f 806 807 816
f 807 817 816
f 807 808 817
f 808 818 817
f 808 809 818
f 809 819 818
f 809 810 819
f 810 820 819
f 810 811 820
f 811 821 820
f 811 812 821
f 812 822 821
f 812 813 822
f 813 823 822
f 813 814 823
f 814 824 823
f 814 805 824
f 805 815 824
f 825 826 835
f 826 836 835
f 826 827 836
f 827 837 836
f 827 828 837
f 828 838 837
f 828 829 838
f 829 839 838
f 829 830 839
f 830 840 839
f 830 831 840
f 831 841 840
f 831 832 841
f 832 842 841
f 832 833 842
f 833 843 842
f 833 834 843
f 834 844 843
f 834 825 844
f 825 835 844
f 845 846 855
f 846 856 855
f 846 847 856
f 847 857 856
f 847 848 857
f 848 858 857
f 848 849 858
f 849 859 858
f 849 850 859
f 850 860 859
f 850 851 860
f 851 861 860
f 851 852 861
f 852 862 861
f 852 853 862
f 853 863 862
f 853 854 863
f 854 864 863
f 854 845 864
f 845 855 864
f 865 866 875
f 866 876 875
f 866 867 876
f 867 877 876
f 867 868 877
f 868 878 877
f 868 869 878
f 869 879 878
f 869 870 879
f 870 880 879
f 870 871 880
f 871 881 880
f 871 872 881
f 872 882 881
f 872 873 882
f 873 883 882
f 873 874 883
f 874 884 883
f 874 865 884
f 865 875 884
f 885 886 895
f 886 896 895
f 886 887 896
f 887 897 896
f 887 888 897
f 888 898 897
f 888 889 898
f 889 899 898
f 889 890 899
f 890 900 899
f 890 891 900
f 891 901 900
f 891 892 901
f 892 902 901
f 892 893 902
f 893 903 902
f 893 894 903
f 894 904 903
f 894 885 904
f 885 895 904
f 905 906 915
f 906 916 915
f 906 907 916
f 907 917 916
f 907 908 917
f 908 918 917
f 908 909 918
f 909 919 918
f 909 910 919
f 910 920 919
f 910 911 920
f 911 921 920
f 911 912 921
f 912 922 921
f 912 913 922
f 913 923 922
f 913 914 923
f 914 924 923
f 914 905 924
f 905 915 924
f 925 926 935
f 926 936 935
f 926 927 936
f 927 937 936
f 927 928 937
f 928 938 937
f 928 929 938
f 929 939 938
f 929 930 939
f 930 940 939
f 930 931 940
f 931 941 940
f 931 932 941
f 932 942 941
f 932 933 942
f 933 943 942
f 933 934 943
f 934 944 943
f 934 925 944
f 925 935 944
f 945 946 955
f 946 956 955
f 946 947 956
f 947 957 956
f 947 948 957
f 948 958 957
f 948 949 958
f 949 959 958
f 949 950 959
f 950 960 959
f 950 951 960
f 951 961 960
f 951 952 961
f 952 962 961
f 952 953 962
f 953 963 962
f 953 954 963
f 954 964 963
f 954 945 964
f 945 955 964
f 965 966 975
f 966 976 975
f 966 967 976
f 967 977 976
f 967 968 977
f 968 978 977
f 968 969 978
f 969 979 978
f 969 970 979
f 970 980 979
f 970 971 980
f 971 981 980
f 971 972 981
f 972 982 981
f 972 973 982
f 973 983 982
f 973 974 983
f 974 984 983
f 974 965 984
f 965 975 984
f 985 986 995
f 986 996 995
f 986 987 996
f 987 997 996
f 987 988 997
f 988 998 997
f 988 989 998
f 989 999 998
f 989 990 999
f 990 1000 999
f 990 991 1000
f 991 1001 1000
f 991 992 1001
f 992 1002 1001
f 992 993 1002
f 993 1003 1002
f 993 994 1003
f 994 1004 1003
f 994 985 1004
f 985 995 1004
f 1005 1006 1015
f 1006 1016 1015
f 1006 1007 1016
f 1007 1017 1016
f 1007 1008 1017
f 1008 1018 1017
f 1008 1009 1018
f 1009 1019 1018
f 1009 1010 1019
f 1010 1020 1019
f 1010 1011 1020
f 1011 1021 1020
f 1011 1012 1021
f 1012 1022 1021
f 1012 1013 1022
f 1013 1023 1022
f 1013 1014 1023
f 1014 1024 1023
f 1014 1005 1024
f 1005 1015 1024
f 1025 1026 1035
f 1026 1036 1035
f 1026 1027 1036
f 1027 1037 1036
f 1027 1028 1037
f 1028 1038 1037
f 1028 1029 1038
f 1029 1039 1038
f 1029 1030 1039
f 1030 1040 1039
f 1030 1031 1040
f 1031 1041 1040
f 1031 1032 1041
f 1032 1042 1041
f 1032 1033 1042
f 1033 1043 1042
f 1033 1034 1043
f 1034 1044 1043
f 1034 1025 1044
f 1025 1035 1044
f 1045 1046 1055
f 1046 1056 1055
f 1046 1047 1056
f 1047 1057 1056
f 1047 1048 1057
f 1048 1058 1057
f 1048 1049 1058
f 1049 1059 1058
f 1049 1050 1059
f 1050 1060 1059
f 1050 1051 1060
f 1051 1061 1060
f 1051 1052 1061
f 1052 1062 1061
f 1052 1053 1062
f 1053 1063 1062
f 1053 1054 1063
f 1054 1064 1063
f 1054 1045 1064
f 1045 1055 1064
f 1065 1066 1075
f 1066 1076 1075
f 1066 1067 1076
f 1067 1077 1076
f 1067 1068 1077
f 1068 1078 1077
f 1068 1069 1078
f 1069 1079 1078
f 1069 1070 1079
f 1070 1080 1079
f 1070 1071 1080
f 1071 1081 1080
f 1071 1072 1081
f 1072 1082 1081
f 1072 1073 1082
f 1073 1083 1082
f 1073 1074 1083
f 1074 1084 1083
f 1074 1065 1084
f 1065 1075 1084
f 1085 1086 1095
f 1086 1096 1095
f 1086 1087 1096
f 1087 1097 1096
f 1087 1088 1097
f 1088 1098 1097
f 1088 1089 1098
f 1089 1099 1098
f 1089 1090 1099
f 1090 1100 1099
f 1090 1091 1100
f 1091 1101 1100
f 1091 1092 1101
f 1092 1102 1101
f 1092 1093 1102
f 1093 1103 1102
f 1093 1094 1103
f 1094 1104 1103
f 1094 1085 1104
f 1085 1095 1104
f 1105 1106 1115
f 1106 1116 1115
f 1106 1107 1116
f 1107 1117 1116
f 1107 1108 1117
f 1108 1118 1117
f 1108 1109 1118
f 1109 1119 1118
f 1109 1110 1119
f 1110 1120 1119
f 1110 1111 1120
f 1111 1121 1120
f 1111 1112 1121
f 1112 1122 1121
f 1112 1113 1122
f 1113 1123 1122
f 1113 1114 1123
f 1114 1124 1123
f 1114 1105 1124
f 1105 1115 1124
f 1125 1126 1135
f 1126 1136 1135
f 1126 1127 1136
f 1127 1137 1136
f 1127 1128 1137
f 1128 1138 1137
f 1128 1129 1138
f 1129 1139 1138
f 1129 1130 1139
f 1130 1140 1139
f 1130 1131 1140
f 1131 1141 1140
f 1131 1132 1141
f 1132 1142 1141
f 1132 1133 1142
f 1133 1143 1142
f 1133 1134 1143
f 1134 1144 1143
f 1134 1125 1144
f 1125 1135 1144
f 1145 1146 1155
f 1146 1156 1155
f 1146 1147 1156
f 1147 1157 1156
f 1147 1148 1157
f 1148 1158 1157
f 1148 1149 1158
f 1149 1159 1158
f 1149 1150 1159
f 1150 1160 1159
f 1150 1151 1160
f 1151 1161 1160
f 1151 1152 1161
f 1152 1162 1161
f 1152 1153 1162
f 1153 1163 1162
f 1153 1154 1163
f 1154 1164 1163
f 1154 1145 1164
f 1145 1155 1164
f 1165 1166 1175
f 1166 1176 1175
f 1166 1167 1176
f 1167 1177 1176
f 1167 1168 1177
f 1168 1178 1177
f 1168 1169 1178
f 1169 1179 1178
f 1169 1170 1179
f 1170 1180 1179
f 1170 1171 1180
f 1171 1181 1180
f 1171 1172 1181
f 1172 1182 1181
f 1172 1173 1182
f 1173 1183 1182
f 1173 1174 1183
f 1174 1184 1183
f 1174 1165 1184
f 1165 1175 1184
