# Full-Body 3D Mesh - Frame 14
v 0.015456 -0.611034 -0.164570
v 0.049264 -0.611034 -0.169431
v 0.080333 -0.611034 -0.183619
v 0.106146 -0.611034 -0.205986
v 0.124612 -0.611034 -0.234720
v 0.134235 -0.611034 -0.267492
v 0.134235 -0.611034 -0.301648
v 0.124612 -0.611034 -0.334420
v 0.106146 -0.611034 -0.363153
v 0.080333 -0.611034 -0.385520
v 0.049264 -0.611034 -0.399709
v 0.015456 -0.611034 -0.404570
v 0.015456 -0.611034 -0.164570
v 0.043897 -0.592756 -0.169431
v 0.070034 -0.575959 -0.183619
v 0.091749 -0.562004 -0.205986
v 0.107284 -0.552020 -0.234720
v 0.115379 -0.546818 -0.267492
v 0.115379 -0.546818 -0.301648
v 0.107284 -0.552020 -0.334420
v 0.091749 -0.562004 -0.363153
v 0.070034 -0.575959 -0.385520
v 0.043897 -0.592756 -0.399709
v 0.015456 -0.611034 -0.404570
v 0.015456 -0.611034 -0.164570
v 0.029501 -0.580281 -0.169431
v 0.042407 -0.552020 -0.183619
v 0.053130 -0.528540 -0.205986
v 0.060801 -0.511743 -0.234720
v 0.064799 -0.502989 -0.267492
v 0.064799 -0.502989 -0.301648
v 0.060801 -0.511743 -0.334420
v 0.053130 -0.528540 -0.363153
v 0.042407 -0.552020 -0.385520
v 0.029501 -0.580281 -0.399709
v 0.015456 -0.611034 -0.404570
v 0.015456 -0.611034 -0.164570
v 0.010645 -0.577570 -0.169431
v 0.006223 -0.546818 -0.183619
v 0.002550 -0.521267 -0.205986
v -0.000078 -0.502989 -0.234720
v -0.001448 -0.493465 -0.267492
v -0.001448 -0.493465 -0.301648
v -0.000078 -0.502989 -0.334420
v 0.002550 -0.521267 -0.363153
v 0.006223 -0.546818 -0.385520
v 0.010645 -0.577570 -0.399709
v 0.015456 -0.611034 -0.404570
v 0.015456 -0.611034 -0.164570
v -0.006683 -0.585484 -0.169431
v -0.027029 -0.562004 -0.183619
v -0.043933 -0.542495 -0.205986
v -0.056026 -0.528540 -0.234720
v -0.062327 -0.521267 -0.267492
v -0.062327 -0.521267 -0.301648
v -0.056026 -0.528540 -0.334420
v -0.043933 -0.542495 -0.363153
v -0.027029 -0.562004 -0.385520
v -0.006683 -0.585484 -0.399709
v 0.015456 -0.611034 -0.404570
v 0.015456 -0.611034 -0.164570
v -0.016982 -0.601509 -0.169431
v -0.046793 -0.592756 -0.183619
v -0.071560 -0.585484 -0.205986
v -0.089278 -0.580281 -0.234720
v -0.098511 -0.577570 -0.267492
v -0.098511 -0.577570 -0.301648
v -0.089278 -0.580281 -0.334420
v -0.071560 -0.585484 -0.363153
v -0.046793 -0.592756 -0.385520
v -0.016982 -0.601509 -0.399709
v 0.015456 -0.611034 -0.404570
v 0.015456 -0.611034 -0.164570
v -0.016982 -0.620559 -0.169431
v -0.046793 -0.629312 -0.183619
v -0.071560 -0.636585 -0.205986
v -0.089278 -0.641787 -0.234720
v -0.098511 -0.644498 -0.267492
v -0.098511 -0.644498 -0.301648
v -0.089278 -0.641787 -0.334420
v -0.071560 -0.636585 -0.363153
v -0.046793 -0.629312 -0.385520
v -0.016982 -0.620559 -0.399709
v 0.015456 -0.611034 -0.404570
v 0.015456 -0.611034 -0.164570
v -0.006683 -0.636585 -0.169431
v -0.027029 -0.660065 -0.183619
v -0.043933 -0.679573 -0.205986
v -0.056026 -0.693529 -0.234720
v -0.062327 -0.700801 -0.267492
v -0.062327 -0.700801 -0.301648
v -0.056026 -0.693529 -0.334420
v -0.043933 -0.679573 -0.363153
v -0.027029 -0.660065 -0.385520
v -0.006683 -0.636585 -0.399709
v 0.015456 -0.611034 -0.404570
v 0.015456 -0.611034 -0.164570
v 0.010645 -0.644498 -0.169431
v 0.006223 -0.675251 -0.183619
v 0.002550 -0.700801 -0.205986
v -0.000078 -0.719079 -0.234720
v -0.001448 -0.728604 -0.267492
v -0.001448 -0.728604 -0.301648
v -0.000078 -0.719079 -0.334420
v 0.002550 -0.700801 -0.363153
v 0.006223 -0.675251 -0.385520
v 0.010645 -0.644498 -0.399709
v 0.015456 -0.611034 -0.404570
v 0.015456 -0.611034 -0.164570
v 0.029501 -0.641787 -0.169431
v 0.042407 -0.670048 -0.183619
v 0.053130 -0.693529 -0.205986
v 0.060801 -0.710326 -0.234720
v 0.064799 -0.719079 -0.267492
v 0.064799 -0.719079 -0.301648
v 0.060801 -0.710326 -0.334420
v 0.053130 -0.693529 -0.363153
v 0.042407 -0.670048 -0.385520
v 0.029501 -0.641787 -0.399709
v 0.015456 -0.611034 -0.404570
v 0.015456 -0.611034 -0.164570
v 0.043897 -0.629312 -0.169431
v 0.070034 -0.646109 -0.183619
v 0.091749 -0.660065 -0.205986
v 0.107284 -0.670048 -0.234720
v 0.115379 -0.675251 -0.267492
v 0.115379 -0.675251 -0.301648
v 0.107284 -0.670048 -0.334420
v 0.091749 -0.660065 -0.363153
v 0.070034 -0.646109 -0.385520
v 0.043897 -0.629312 -0.399709
v 0.015456 -0.611034 -0.404570
v 0.015456 -0.611034 -0.164570
v 0.049264 -0.611034 -0.169431
v 0.080333 -0.611034 -0.183619
v 0.106146 -0.611034 -0.205986
v 0.124612 -0.611034 -0.234720
v 0.134235 -0.611034 -0.267492
v 0.134235 -0.611034 -0.301648
v 0.124612 -0.611034 -0.334420
v 0.106146 -0.611034 -0.363153
v 0.080333 -0.611034 -0.385520
v 0.049264 -0.611034 -0.399709
v 0.015456 -0.611034 -0.404570
v 0.162077 -0.438997 -0.118993
v 0.162210 -0.462508 -0.111355
v 0.162378 -0.477039 -0.091355
v 0.162516 -0.477039 -0.066634
v 0.162571 -0.462508 -0.046634
v 0.162523 -0.438997 -0.038995
v 0.162389 -0.415485 -0.046633
v 0.162221 -0.400955 -0.066633
v 0.162084 -0.400955 -0.091354
v 0.162028 -0.415485 -0.111354
v -0.149338 -0.440203 -0.117256
v -0.149205 -0.463714 -0.109617
v -0.149037 -0.478245 -0.089618
v -0.148899 -0.478245 -0.064897
v -0.148843 -0.463714 -0.044897
v -0.148892 -0.440203 -0.037257
v -0.149026 -0.416692 -0.044896
v -0.149193 -0.402161 -0.064895
v -0.149331 -0.402161 -0.089616
v -0.149387 -0.416692 -0.109616
v 0.162300 -0.456762 -0.114833
v 0.138842 -0.451945 -0.108694
v 0.124345 -0.442183 -0.091210
v 0.124345 -0.431204 -0.069061
v 0.138842 -0.423201 -0.050706
v 0.162300 -0.421231 -0.043155
v 0.185758 -0.426048 -0.049294
v 0.200255 -0.435810 -0.066778
v 0.200255 -0.446789 -0.088927
v 0.185758 -0.454792 -0.107282
v 0.180049 -0.221953 -0.231227
v 0.156592 -0.217137 -0.225088
v 0.142094 -0.207374 -0.207605
v 0.142094 -0.196395 -0.185456
v 0.156592 -0.188392 -0.167100
v 0.180049 -0.186423 -0.159550
v 0.203507 -0.191239 -0.165689
v 0.218005 -0.201001 -0.183172
v 0.218005 -0.211981 -0.205322
v 0.203507 -0.219984 -0.223677
v 0.180049 -0.241496 -0.180963
v 0.156778 -0.233162 -0.180593
v 0.142395 -0.213761 -0.185874
v 0.142395 -0.190704 -0.194790
v 0.156778 -0.172796 -0.203934
v 0.180049 -0.166880 -0.209814
v 0.203321 -0.175213 -0.210185
v 0.217703 -0.194614 -0.204903
v 0.217703 -0.217672 -0.195987
v 0.203321 -0.235579 -0.186843
v 0.139260 -0.343664 -0.445188
v 0.115989 -0.335330 -0.444818
v 0.101606 -0.315929 -0.450100
v 0.101606 -0.292872 -0.459015
v 0.115989 -0.274964 -0.468160
v 0.139260 -0.269048 -0.474040
v 0.162532 -0.277381 -0.474410
v 0.176914 -0.296782 -0.469129
v 0.176914 -0.319840 -0.460213
v 0.162532 -0.337747 -0.451069
v -0.149115 -0.455374 -0.114267
v -0.172102 -0.457045 -0.105326
v -0.186309 -0.452283 -0.085663
v -0.186309 -0.442906 -0.062789
v -0.172102 -0.432497 -0.045441
v -0.149115 -0.425031 -0.040245
v -0.126128 -0.423361 -0.049186
v -0.111921 -0.428123 -0.068849
v -0.111921 -0.437500 -0.091723
v -0.126128 -0.447909 -0.109072
v -0.205558 -0.212211 -0.213945
v -0.228546 -0.213882 -0.205004
v -0.242752 -0.209119 -0.185341
v -0.242752 -0.199743 -0.162467
v -0.228546 -0.189334 -0.145119
v -0.205558 -0.181868 -0.139923
v -0.182571 -0.180197 -0.148864
v -0.168364 -0.184960 -0.168527
v -0.168364 -0.194336 -0.191401
v -0.182571 -0.204745 -0.208749
v -0.205558 -0.234411 -0.162674
v -0.228324 -0.229368 -0.170886
v -0.242394 -0.211977 -0.181408
v -0.242394 -0.188880 -0.190221
v -0.228324 -0.168899 -0.193959
v -0.205558 -0.159668 -0.191193
v -0.182793 -0.164711 -0.182981
v -0.168723 -0.182102 -0.172459
v -0.168723 -0.205199 -0.163646
v -0.182793 -0.225180 -0.159909
v -0.143619 -0.319979 -0.386931
v -0.166385 -0.314936 -0.395143
v -0.180455 -0.297545 -0.405665
v -0.180455 -0.274448 -0.414478
v -0.166385 -0.254467 -0.418216
v -0.143619 -0.245236 -0.415451
v -0.120854 -0.250279 -0.407239
v -0.106784 -0.267670 -0.396717
v -0.106784 -0.290767 -0.387904
v -0.120854 -0.310748 -0.384166
v 0.162300 -0.429345 -0.117812
v 0.138871 -0.433096 -0.110873
v 0.124391 -0.439102 -0.091757
v 0.124391 -0.445067 -0.067766
v 0.138871 -0.448713 -0.048064
v 0.162300 -0.448648 -0.040176
v 0.185729 -0.444897 -0.047115
v 0.200209 -0.438892 -0.066231
v 0.200209 -0.432926 -0.090222
v 0.185729 -0.429280 -0.109924
v 0.124340 0.009577 -0.008678
v 0.100911 0.005825 -0.001739
v 0.086431 -0.000180 0.017377
v 0.086431 -0.006145 0.041368
v 0.100911 -0.009792 0.061070
v 0.124340 -0.009727 0.068958
v 0.147769 -0.005975 0.062019
v 0.162249 0.000030 0.042903
v 0.162249 0.005995 0.018912
v 0.147769 0.009642 -0.000790
v -0.149115 -0.435514 -0.116981
v -0.172582 -0.434977 -0.109225
v -0.187086 -0.436437 -0.089258
v -0.187086 -0.439335 -0.064707
v -0.172582 -0.442565 -0.044950
v -0.149115 -0.444892 -0.037532
v -0.125648 -0.445429 -0.045288
v -0.111144 -0.443969 -0.065254
v -0.111144 -0.441071 -0.089805
v -0.125648 -0.437841 -0.109563
v -0.122828 -0.010685 -0.066831
v -0.146296 -0.010148 -0.059075
v -0.160799 -0.011608 -0.039108
v -0.160799 -0.014506 -0.014558
v -0.146296 -0.017736 0.005200
v -0.122828 -0.020063 0.012618
v -0.099361 -0.020600 0.004862
v -0.084858 -0.019140 -0.015105
v -0.084858 -0.016242 -0.039656
v -0.099361 -0.013012 -0.059413
v 0.133366 -0.000075 -0.008828
v 0.133021 -0.023544 -0.001067
v 0.129360 -0.038048 0.018615
v 0.123782 -0.038048 0.042699
v 0.118417 -0.023544 0.061986
v 0.115315 -0.000075 0.069109
v 0.115660 0.023394 0.061347
v 0.119321 0.037898 0.041665
v 0.124899 0.037898 0.017582
v 0.130264 0.023394 -0.001705
v -0.113803 -0.015374 -0.066075
v -0.114148 -0.038843 -0.058313
v -0.117809 -0.053347 -0.038632
v -0.123387 -0.053347 -0.014548
v -0.128751 -0.038843 0.004739
v -0.131854 -0.015374 0.011862
v -0.131509 0.008095 0.004100
v -0.127848 0.022599 -0.015581
v -0.122270 0.022599 -0.039665
v -0.116905 0.008095 -0.058952
v 0.124340 -0.019131 -0.005029
v 0.100885 -0.014072 0.000918
v 0.086388 -0.003667 0.018028
v 0.086388 0.008110 0.039764
v 0.100885 0.016761 0.057824
v 0.124340 0.018981 0.065310
v 0.147796 0.013922 0.059362
v 0.162293 0.003517 0.042253
v 0.162293 -0.008260 0.020517
v 0.147796 -0.016911 0.002457
v 0.133983 0.104046 -0.071769
v 0.110527 0.109104 -0.065821
v 0.096031 0.119509 -0.048712
v 0.096031 0.131286 -0.026976
v 0.110527 0.139937 -0.008916
v 0.133983 0.142157 -0.001430
v 0.157439 0.137098 -0.007378
v 0.171936 0.126693 -0.024487
v 0.171936 0.114916 -0.046223
v 0.157439 0.106265 -0.064283
v 0.133983 0.143367 -0.071086
v 0.110508 0.140624 -0.063837
v 0.096000 0.131188 -0.046184
v 0.096000 0.118663 -0.024871
v 0.110508 0.107833 -0.008037
v 0.133983 0.102836 -0.002113
v 0.157458 0.105579 -0.009362
v 0.171967 0.115015 -0.027014
v 0.171967 0.127539 -0.048328
v 0.157458 0.138369 -0.065162
v 0.152228 0.425759 0.094858
v 0.128753 0.423016 0.102107
v 0.114245 0.413580 0.119760
v 0.114245 0.401055 0.141073
v 0.128753 0.390225 0.157907
v 0.152228 0.385228 0.163831
v 0.175703 0.387971 0.156582
v 0.190211 0.397407 0.138930
v 0.190211 0.409931 0.117616
v 0.175703 0.420761 0.100782
v -0.122828 -0.053450 -0.014850
v -0.145958 -0.047471 -0.021208
v -0.160253 -0.029233 -0.029819
v -0.160253 -0.005700 -0.037394
v -0.145958 0.014137 -0.041040
v -0.122828 0.022702 -0.039363
v -0.099699 0.016723 -0.033005
v -0.085404 -0.001516 -0.024394
v -0.085404 -0.025048 -0.016819
v -0.099699 -0.044885 -0.013174
v -0.084844 -0.117239 -0.213016
v -0.107973 -0.111261 -0.219374
v -0.122268 -0.093022 -0.227985
v -0.122268 -0.069490 -0.235560
v -0.107973 -0.049652 -0.239206
v -0.084844 -0.041087 -0.237529
v -0.061714 -0.047066 -0.231171
v -0.047419 -0.065305 -0.222560
v -0.047419 -0.088837 -0.214985
v -0.061714 -0.108674 -0.211340
v -0.084844 -0.082739 -0.265112
v -0.108256 -0.079908 -0.257696
v -0.122726 -0.076793 -0.237896
v -0.122726 -0.074583 -0.213273
v -0.108256 -0.074123 -0.193234
v -0.084844 -0.075588 -0.185433
v -0.061432 -0.078419 -0.192849
v -0.046962 -0.081534 -0.212649
v -0.046962 -0.083743 -0.237272
v -0.061432 -0.084204 -0.257311
v -0.059205 0.194507 -0.289994
v -0.082617 0.197338 -0.282578
v -0.097087 0.200453 -0.262777
v -0.097087 0.202663 -0.238155
v -0.082617 0.203123 -0.218116
v -0.059205 0.201658 -0.210314
v -0.035792 0.198827 -0.217730
v -0.021323 0.195712 -0.237531
v -0.021323 0.193502 -0.262154
v -0.035792 0.193042 -0.282193
v -0.022981 0.044393 0.081197
v -0.031711 0.046579 0.078971
v -0.037106 0.049998 0.072252
v -0.037106 0.053343 0.063606
v -0.031711 0.055336 0.056336
v -0.022981 0.055217 0.053218
v -0.014251 0.053031 0.055444
v -0.008856 0.049612 0.062163
v -0.008856 0.046267 0.070809
v -0.014251 0.044273 0.078079
v -0.028096 0.010700 0.068162
v -0.036826 0.012887 0.065937
v -0.042221 0.016305 0.059218
v -0.042221 0.019650 0.050571
v -0.036826 0.021644 0.043301
v -0.028096 0.021525 0.040183
v -0.019367 0.019338 0.042409
v -0.013971 0.015920 0.049128
v -0.013971 0.012575 0.057774
v -0.019367 0.010581 0.065045
v -0.028096 0.008625 0.067170
v -0.036908 0.010310 0.064835
v -0.042354 0.014212 0.058428
v -0.042354 0.018840 0.050395
v -0.036908 0.022426 0.043805
v -0.028096 0.023600 0.041175
v -0.019284 0.021915 0.043511
v -0.013838 0.018013 0.049918
v -0.013838 0.013385 0.057951
v -0.019284 0.009799 0.064541
v -0.029054 -0.016156 0.052894
v -0.037866 -0.014470 0.050559
v -0.043312 -0.010568 0.044151
v -0.043312 -0.005940 0.036119
v -0.037866 -0.002354 0.029529
v -0.029054 -0.001180 0.026899
v -0.020242 -0.002865 0.029234
v -0.014796 -0.006767 0.035642
v -0.014796 -0.011395 0.043675
v -0.020242 -0.014981 0.050265
v -0.029054 -0.018462 0.051258
v -0.037637 -0.015064 0.050405
v -0.042941 -0.009223 0.045538
v -0.042941 -0.003170 0.038517
v -0.037637 0.000783 0.032022
v -0.029054 0.001126 0.028536
v -0.020471 -0.002272 0.029389
v -0.015166 -0.008113 0.034255
v -0.015166 -0.014166 0.041277
v -0.020471 -0.018119 0.047771
v -0.035681 -0.039823 0.032843
v -0.044264 -0.036425 0.031990
v -0.049568 -0.030584 0.027123
v -0.049568 -0.024531 0.020102
v -0.044264 -0.020578 0.013607
v -0.035681 -0.020235 0.010121
v -0.027098 -0.023633 0.010974
v -0.021793 -0.029474 0.015840
v -0.021793 -0.035527 0.022862
v -0.027098 -0.039480 0.029356
v -0.035681 -0.041428 0.031233
v -0.042615 -0.035711 0.033509
v -0.046900 -0.027824 0.031191
v -0.046900 -0.020779 0.025164
v -0.042615 -0.017268 0.017732
v -0.035681 -0.018631 0.011731
v -0.028747 -0.024348 0.009455
v -0.024461 -0.032235 0.011773
v -0.024461 -0.039279 0.017799
v -0.028747 -0.042791 0.025232
v -0.055074 -0.057479 0.012469
v -0.062008 -0.051762 0.014745
v -0.066293 -0.043875 0.012427
v -0.066293 -0.036831 0.006401
v -0.062008 -0.033319 -0.001032
v -0.055074 -0.034682 -0.007033
v -0.048140 -0.040399 -0.009308
v -0.043854 -0.048286 -0.006991
v -0.043854 -0.055331 -0.000964
v -0.048140 -0.058842 0.006469
v -0.022981 0.038889 0.077496
v -0.031731 0.040231 0.074743
v -0.037139 0.045230 0.069112
v -0.037139 0.051976 0.062753
v -0.031731 0.057893 0.058096
v -0.022981 0.060720 0.056919
v -0.014231 0.059378 0.059672
v -0.008823 0.054379 0.065303
v -0.008823 0.047633 0.071662
v -0.014231 0.041717 0.076319
v -0.011559 -0.024428 0.010320
v -0.020309 -0.023086 0.007567
v -0.025717 -0.018087 0.001936
v -0.025717 -0.011341 -0.004422
v -0.020309 -0.005424 -0.009080
v -0.011559 -0.002597 -0.010257
v -0.002809 -0.003939 -0.007504
v 0.002598 -0.008938 -0.001873
v 0.002598 -0.015684 0.004486
v -0.002809 -0.021600 0.009143
v -0.011559 -0.014821 0.014975
v -0.020265 -0.015964 0.011999
v -0.025645 -0.016170 0.004452
v -0.025645 -0.015361 -0.004783
v -0.020265 -0.013846 -0.012179
v -0.011559 -0.012203 -0.014911
v -0.002854 -0.011060 -0.011935
v 0.002526 -0.010854 -0.004388
v 0.002526 -0.011663 0.004847
v -0.002854 -0.013178 0.012243
v -0.009067 -0.030281 0.013620
v -0.017772 -0.031424 0.010644
v -0.023152 -0.031631 0.003098
v -0.023152 -0.030822 -0.006137
v -0.017772 -0.029306 -0.013533
v -0.009067 -0.027663 -0.016265
v -0.000362 -0.026521 -0.013289
v 0.005019 -0.026314 -0.005743
v 0.005019 -0.027123 0.003492
v -0.000362 -0.028638 0.010888
v -0.009067 -0.017714 0.008590
v -0.017572 -0.021400 0.008440
v -0.022828 -0.027977 0.004562
v -0.022828 -0.034935 -0.001564
v -0.017572 -0.039616 -0.007598
v -0.009067 -0.040230 -0.011235
v -0.000562 -0.036545 -0.011085
v 0.004695 -0.029967 -0.007207
v 0.004695 -0.023009 -0.001081
v -0.000562 -0.018329 0.004953
v -0.003508 -0.031163 0.023864
v -0.012013 -0.034848 0.023715
v -0.017270 -0.041426 0.019836
v -0.017270 -0.048384 0.013710
v -0.012013 -0.053064 0.007676
v -0.003508 -0.053679 0.004039
v 0.004997 -0.049993 0.004189
v 0.010254 -0.043416 0.008067
v 0.010254 -0.036458 0.014193
v 0.004997 -0.031778 0.020227
v -0.003508 -0.040212 0.028788
v -0.011205 -0.044887 0.026588
v -0.015962 -0.048620 0.019561
v -0.015962 -0.049986 0.010392
v -0.011205 -0.048462 0.002582
v -0.003508 -0.044630 -0.000885
v 0.004189 -0.039955 0.001315
v 0.008946 -0.036221 0.008342
v 0.008946 -0.034856 0.017511
v 0.004189 -0.036380 0.025321
v 0.002105 -0.050148 0.030268
v -0.005592 -0.054824 0.028067
v -0.010349 -0.058557 0.021041
v -0.010349 -0.059922 0.011871
v -0.005592 -0.058398 0.004062
v 0.002105 -0.054567 0.000595
v 0.009802 -0.049891 0.002795
v 0.014559 -0.046158 0.009822
v 0.014559 -0.044792 0.018991
v 0.009802 -0.046317 0.026801
v -0.022981 0.037825 0.076234
v -0.031543 0.038847 0.072831
v -0.036835 0.044056 0.067280
v -0.036835 0.051460 0.061701
v -0.031543 0.058232 0.058226
v -0.022981 0.061785 0.058181
v -0.014419 0.060762 0.061584
v -0.009127 0.055554 0.067135
v -0.009127 0.048150 0.072714
v -0.014419 0.041378 0.076189
v -0.001970 -0.013665 0.007896
v -0.010532 -0.012642 0.004493
v -0.015824 -0.007434 -0.001058
v -0.015824 -0.000030 -0.006637
v -0.010532 0.006742 -0.010112
v -0.001970 0.010296 -0.010157
v 0.006592 0.009273 -0.006754
v 0.011884 0.004065 -0.001203
v 0.011884 -0.003339 0.004376
v 0.006592 -0.010111 0.007851
v -0.001970 -0.000154 0.013791
v -0.009101 -0.005604 0.011470
v -0.013508 -0.009557 0.004337
v -0.013508 -0.010503 -0.004886
v -0.009101 -0.008081 -0.012673
v -0.001970 -0.003215 -0.016052
v 0.005161 0.002235 -0.013732
v 0.009568 0.006188 -0.006598
v 0.009568 0.007134 0.002624
v 0.005161 0.004712 0.010412
v 0.011944 -0.019191 0.015744
v 0.004813 -0.024641 0.013423
v 0.000406 -0.028594 0.006289
v 0.000406 -0.029540 -0.002933
v 0.004813 -0.027118 -0.010721
v 0.011944 -0.022252 -0.014100
v 0.019075 -0.016802 -0.011779
v 0.023482 -0.012849 -0.004645
v 0.023482 -0.011903 0.004577
v 0.019075 -0.014325 0.012365
v 0.011944 -0.005722 0.000876
v 0.003359 -0.008579 -0.001141
v -0.001947 -0.016074 -0.002408
v -0.001947 -0.025345 -0.002442
v 0.003359 -0.032849 -0.001229
v 0.011944 -0.035721 0.000768
v 0.020529 -0.032864 0.002785
v 0.025835 -0.025368 0.004052
v 0.025835 -0.016098 0.004086
v 0.020529 -0.008594 0.002873
v 0.006562 -0.005805 0.023900
v -0.002023 -0.008663 0.021883
v -0.007329 -0.016158 0.020616
v -0.007329 -0.025428 0.020582
v -0.002023 -0.032933 0.021795
v 0.006562 -0.035805 0.023792
v 0.015147 -0.032947 0.025809
v 0.020453 -0.025452 0.027076
v 0.020453 -0.016182 0.027110
v 0.015147 -0.008677 0.025897
v 0.006562 -0.006923 0.018165
v -0.001939 -0.010460 0.017084
v -0.007192 -0.017949 0.018586
v -0.007192 -0.026529 0.022097
v -0.001939 -0.032922 0.026277
v 0.006562 -0.034687 0.029527
v 0.015063 -0.031150 0.030608
v 0.020316 -0.023661 0.029106
v 0.020316 -0.015081 0.025594
v 0.015063 -0.008688 0.021415
v -0.001588 0.004292 0.045567
v -0.010089 0.000754 0.044486
v -0.015343 -0.006735 0.045988
v -0.015343 -0.015315 0.049500
v -0.010089 -0.021708 0.053679
v -0.001588 -0.023473 0.056929
v 0.006912 -0.019936 0.058010
v 0.012166 -0.012447 0.056508
v 0.012166 -0.003867 0.052996
v 0.006912 0.002527 0.048817
v -0.022981 0.037166 0.075285
v -0.031209 0.037873 0.071072
v -0.036294 0.043138 0.065383
v -0.036294 0.050949 0.060391
v -0.031209 0.058324 0.058002
v -0.022981 0.062444 0.059130
v -0.014753 0.061737 0.063343
v -0.009668 0.056472 0.069032
v -0.009668 0.048660 0.074024
v -0.014753 0.041286 0.076413
v 0.007933 -0.006059 0.007652
v -0.000295 -0.005351 0.003440
v -0.005380 -0.000086 -0.002249
v -0.005380 0.007725 -0.007242
v -0.000295 0.015099 -0.009630
v 0.007933 0.019220 -0.008503
v 0.016160 0.018512 -0.004290
v 0.021245 0.013247 0.001399
v 0.021245 0.005436 0.006391
v 0.016160 -0.001938 0.008780
v 0.007933 0.010908 0.013937
v 0.001005 0.004861 0.012767
v -0.003277 -0.000530 0.006559
v -0.003277 -0.003205 -0.002318
v 0.001005 -0.002142 -0.010471
v 0.007933 0.002252 -0.014787
v 0.014861 0.008300 -0.013618
v 0.019143 0.013691 -0.007409
v 0.019143 0.016366 0.001467
v 0.014861 0.015303 0.009620
v 0.021933 -0.006123 0.019069
v 0.015005 -0.012171 0.017900
v 0.010723 -0.017562 0.011691
v 0.010723 -0.020237 0.002815
v 0.015005 -0.019174 -0.005339
v 0.021933 -0.014779 -0.009655
v 0.028862 -0.008731 -0.008485
v 0.033143 -0.003341 -0.002277
v 0.033143 -0.000666 0.006599
v 0.028862 -0.001729 0.014753
v 0.021933 0.004523 0.003828
v 0.013300 0.001558 0.002209
v 0.007964 -0.005994 0.001545
v 0.007964 -0.015248 0.002089
v 0.013300 -0.022670 0.003632
v 0.021933 -0.025425 0.005586
v 0.030567 -0.022461 0.007205
v 0.035902 -0.014909 0.007869
v 0.035902 -0.005654 0.007326
v 0.030567 0.001768 0.005782
v 0.018020 0.005630 0.022677
v 0.009387 0.002665 0.021059
v 0.004051 -0.004887 0.020395
v 0.004051 -0.014141 0.020938
v 0.009387 -0.021564 0.022482
v 0.018020 -0.024318 0.024436
v 0.026653 -0.021354 0.026054
v 0.031989 -0.013802 0.026719
v 0.031989 -0.004547 0.026175
v 0.026653 0.002875 0.024631
v 0.018020 0.004660 0.018182
v 0.009556 0.001100 0.016903
v 0.004325 -0.006448 0.018166
v 0.004325 -0.015103 0.021488
v 0.009556 -0.021558 0.025600
v 0.018020 -0.023348 0.028932
v 0.026484 -0.019789 0.030210
v 0.031715 -0.012240 0.028947
v 0.031715 -0.003585 0.025625
v 0.026484 0.002870 0.021513
v 0.011071 0.013196 0.040421
v 0.002607 0.009636 0.039143
v -0.002624 0.002087 0.040405
v -0.002624 -0.006567 0.043727
v 0.002607 -0.013023 0.047839
v 0.011071 -0.014812 0.051171
v 0.019535 -0.011253 0.052450
v 0.024766 -0.003704 0.051187
v 0.024766 0.004951 0.047865
v 0.019535 0.011406 0.043753
v -0.022981 0.036746 0.074587
v -0.030748 0.037187 0.069546
v -0.035549 0.042448 0.063611
v -0.035549 0.050519 0.059050
v -0.030748 0.058317 0.057605
v -0.022981 0.062864 0.059828
v -0.015214 0.062422 0.064869
v -0.010413 0.057161 0.070804
v -0.010413 0.049090 0.075365
v -0.015214 0.041292 0.076810
v 0.010926 0.005687 0.019628
v 0.003158 0.006128 0.014586
v -0.001642 0.011389 0.008652
v -0.001642 0.019460 0.004091
v 0.003158 0.027258 0.002645
v 0.010926 0.031805 0.004868
v 0.018693 0.031363 0.009909
v 0.023494 0.026102 0.015844
v 0.023494 0.018032 0.020405
v 0.018693 0.010234 0.021850
v 0.010926 0.016742 0.027114
v 0.006715 0.009448 0.023240
v 0.004113 0.005705 0.015168
v 0.004113 0.006943 0.005980
v 0.006715 0.012690 -0.000813
v 0.010926 0.020749 -0.002618
v 0.015136 0.028044 0.001256
v 0.017739 0.031787 0.009328
v 0.017739 0.030548 0.018516
v 0.015136 0.024802 0.025309
v 0.031181 0.005832 0.025643
v 0.026970 -0.001463 0.021769
v 0.024368 -0.005206 0.013697
v 0.024368 -0.003968 0.004510
v 0.026970 0.001779 -0.002284
v 0.031181 0.009838 -0.004088
v 0.035391 0.017133 -0.000214
v 0.037994 0.020876 0.007858
v 0.037994 0.019638 0.017045
v 0.035391 0.013891 0.023839
v 0.031181 0.016178 0.023243
v 0.026289 0.008488 0.024942
v 0.023266 0.000549 0.021231
v 0.023266 -0.004607 0.013526
v 0.026289 -0.005010 0.004772
v 0.031181 -0.000508 -0.001689
v 0.036073 0.007182 -0.003387
v 0.039096 0.015121 0.000324
v 0.039096 0.020277 0.008029
v 0.036073 0.020680 0.016783
v 0.052493 0.004366 0.031148
v 0.047601 -0.003323 0.032847
v 0.044578 -0.011262 0.029135
v 0.044578 -0.016418 0.021431
v 0.047601 -0.016822 0.012676
v 0.052493 -0.012319 0.006216
v 0.057384 -0.004629 0.004517
v 0.060408 0.003310 0.008228
v 0.060408 0.008466 0.015933
v 0.057384 0.008869 0.024687
v 0.052493 0.001871 0.032495
v 0.047407 -0.005879 0.032665
v 0.044265 -0.012901 0.027493
v 0.044265 -0.016515 0.018956
v 0.047407 -0.015339 0.010314
v 0.052493 -0.009823 0.004868
v 0.057578 -0.002074 0.004699
v 0.060721 0.004949 0.009871
v 0.060721 0.008563 0.018408
v 0.057578 0.007387 0.027050
v 0.065678 -0.006702 0.036124
v 0.060592 -0.014451 0.036293
v 0.057449 -0.021474 0.031122
v 0.057449 -0.025088 0.022585
v 0.060592 -0.023912 0.013943
v 0.065678 -0.018396 0.008497
v 0.070763 -0.010647 0.008328
v 0.073906 -0.003624 0.013499
v 0.073906 -0.000010 0.022037
v 0.070763 -0.001186 0.030678
v 0.030824 0.038085 0.101286
v 0.022240 0.038133 0.097785
v 0.016935 0.041518 0.090978
v 0.016935 0.046948 0.083464
v 0.022240 0.052349 0.078114
v 0.030824 0.055658 0.076971
v 0.039408 0.055611 0.080472
v 0.044713 0.052226 0.087279
v 0.044713 0.046795 0.094792
v 0.039408 0.041394 0.100142
v 0.041616 0.000770 0.074316
v 0.033032 0.000817 0.070816
v 0.027727 0.004202 0.064009
v 0.027727 0.009632 0.056495
v 0.033032 0.015033 0.051145
v 0.041616 0.018342 0.050002
v 0.050200 0.018295 0.053502
v 0.055506 0.014910 0.060309
v 0.055506 0.009479 0.067823
v 0.050200 0.004078 0.073173
v 0.041616 0.001155 0.074586
v 0.032824 0.002210 0.071841
v 0.027391 0.006072 0.065399
v 0.027391 0.011264 0.057719
v 0.032824 0.015804 0.051735
v 0.041616 0.017957 0.049733
v 0.050408 0.016902 0.052477
v 0.055842 0.013040 0.058919
v 0.055842 0.007848 0.066599
v 0.050408 0.003308 0.072583
v 0.044352 -0.028929 0.054246
v 0.035561 -0.027874 0.051502
v 0.030127 -0.024012 0.045059
v 0.030127 -0.018820 0.037379
v 0.035561 -0.014280 0.031395
v 0.044352 -0.012127 0.029393
v 0.053144 -0.013183 0.032138
v 0.058578 -0.017044 0.038580
v 0.058578 -0.022236 0.046260
v 0.053144 -0.026776 0.052244
v 0.044352 -0.032079 0.051389
v 0.035550 -0.030188 0.049181
v 0.030109 -0.024607 0.044162
v 0.030109 -0.017468 0.038248
v 0.035550 -0.011498 0.033698
v 0.044352 -0.008977 0.032251
v 0.053155 -0.010868 0.034458
v 0.058596 -0.016449 0.039478
v 0.058596 -0.023588 0.045392
v 0.053155 -0.029559 0.049941
v 0.046849 -0.060489 0.017095
v 0.038046 -0.058597 0.014887
v 0.032606 -0.053016 0.009868
v 0.032606 -0.045877 0.003954
v 0.038046 -0.039907 -0.000596
v 0.046849 -0.037386 -0.002043
v 0.055652 -0.039277 0.000164
v 0.061093 -0.044858 0.005184
v 0.061093 -0.051997 0.011098
v 0.055652 -0.057968 0.015647
v 0.046849 -0.060651 0.016895
v 0.038174 -0.059397 0.013877
v 0.032812 -0.054148 0.008432
v 0.032812 -0.046908 0.002641
v 0.038174 -0.040444 -0.001284
v 0.046849 -0.037223 -0.001844
v 0.055524 -0.038477 0.001175
v 0.060886 -0.043727 0.006619
v 0.060886 -0.050966 0.012410
v 0.055524 -0.057431 0.016335
v 0.052071 -0.078628 -0.005579
v 0.043396 -0.077374 -0.008598
v 0.038035 -0.072125 -0.014042
v 0.038035 -0.064885 -0.019833
v 0.043396 -0.058421 -0.023758
v 0.052071 -0.055200 -0.024318
v 0.060746 -0.056454 -0.021300
v 0.066108 -0.061703 -0.015855
v 0.066108 -0.068943 -0.010064
v 0.060746 -0.075407 -0.006139
v 0.030824 0.034331 0.097358
v 0.022062 0.037264 0.096606
v 0.016647 0.043867 0.092998
v 0.016647 0.051618 0.087912
v 0.022062 0.057556 0.083290
v 0.030824 0.059413 0.080899
v 0.039586 0.056480 0.081651
v 0.045001 0.049877 0.085259
v 0.045001 0.042126 0.090345
v 0.039586 0.036188 0.094966
v 0.017764 -0.029689 -0.000204
v 0.009002 -0.026756 -0.000956
v 0.003587 -0.020153 -0.004564
v 0.003587 -0.012402 -0.009650
v 0.009002 -0.006464 -0.014271
v 0.017764 -0.004607 -0.016663
v 0.026526 -0.007540 -0.015911
v 0.031942 -0.014143 -0.012303
v 0.031942 -0.021894 -0.007217
v 0.026526 -0.027832 -0.002595
v 0.017764 -0.012797 0.005922
v 0.010802 -0.008452 0.001611
v 0.006498 -0.007428 -0.006536
v 0.006498 -0.010117 -0.015408
v 0.010802 -0.015492 -0.021616
v 0.017764 -0.021499 -0.022788
v 0.024727 -0.025844 -0.018478
v 0.029030 -0.026868 -0.010331
v 0.029030 -0.024179 -0.001459
v 0.024727 -0.018804 0.004749
v 0.000794 -0.033703 0.012258
v -0.006169 -0.029358 0.007948
v -0.010472 -0.028334 -0.000199
v -0.010472 -0.031023 -0.009071
v -0.006169 -0.036398 -0.015279
v 0.000794 -0.042405 -0.016452
v 0.007757 -0.046751 -0.012141
v 0.012060 -0.047774 -0.003994
v 0.012060 -0.045085 0.004878
v 0.007757 -0.039711 0.011086
v 0.000794 -0.023065 -0.001525
v -0.008021 -0.025935 -0.001460
v -0.013469 -0.033433 -0.001638
v -0.013469 -0.042697 -0.001991
v -0.008021 -0.050187 -0.002385
v 0.000794 -0.053043 -0.002668
v 0.009609 -0.050174 -0.002733
v 0.015057 -0.042675 -0.002555
v 0.015057 -0.033412 -0.002202
v 0.009609 -0.025921 -0.001808
v 0.001391 -0.024216 0.028653
v -0.007424 -0.027085 0.028718
v -0.012872 -0.034584 0.028540
v -0.012872 -0.043848 0.028186
v -0.007424 -0.051338 0.027793
v 0.001391 -0.054194 0.027510
v 0.010206 -0.051325 0.027444
v 0.015654 -0.043826 0.027623
v 0.015654 -0.034562 0.027976
v 0.010206 -0.027072 0.028369
v 0.001391 -0.025780 0.021391
v -0.007315 -0.027724 0.023912
v -0.012696 -0.034054 0.028026
v -0.012696 -0.042351 0.032161
v -0.007315 -0.049447 0.034737
v 0.001391 -0.052630 0.034771
v 0.010098 -0.050686 0.032250
v 0.015479 -0.044357 0.028136
v 0.015479 -0.036059 0.024001
v 0.010098 -0.028963 0.021425
v 0.005932 -0.013090 0.046856
v -0.002774 -0.015034 0.049378
v -0.008155 -0.021364 0.053491
v -0.008155 -0.029661 0.057626
v -0.002774 -0.036757 0.060202
v 0.005932 -0.039941 0.060236
v 0.014639 -0.037996 0.057715
v 0.020020 -0.031667 0.053601
v 0.020020 -0.023369 0.049466
v 0.014639 -0.016274 0.046890
v 0.030824 0.033407 0.095739
v 0.022338 0.037033 0.096623
v 0.017093 0.044416 0.094645
v 0.017093 0.052738 0.090560
v 0.022338 0.058819 0.085928
v 0.030824 0.060337 0.082518
v 0.039310 0.056711 0.081633
v 0.044555 0.049327 0.083611
v 0.044555 0.041005 0.087697
v 0.039310 0.034924 0.092329
v 0.001128 -0.013019 0.001170
v -0.007358 -0.009393 0.002055
v -0.012603 -0.002009 0.000077
v -0.012603 0.006312 -0.004008
v -0.007358 0.012393 -0.008640
v 0.001128 0.013911 -0.012050
v 0.009614 0.010285 -0.012935
v 0.014859 0.002901 -0.010957
v 0.014859 -0.005421 -0.006872
v 0.009614 -0.011502 -0.002239
v 0.001128 0.005208 0.008784
v -0.006341 0.008741 0.004580
v -0.010958 0.009104 -0.003451
v -0.010958 0.006161 -0.012242
v -0.006341 0.001035 -0.018434
v 0.001128 -0.004317 -0.019664
v 0.008598 -0.007849 -0.015460
v 0.013214 -0.008213 -0.007429
v 0.013214 -0.005269 0.001362
v 0.008598 -0.000143 0.007555
v -0.021253 -0.028635 0.020116
v -0.028722 -0.025102 0.015912
v -0.033339 -0.024739 0.007881
v -0.033339 -0.027682 -0.000910
v -0.028722 -0.032809 -0.007103
v -0.021253 -0.038160 -0.008332
v -0.013783 -0.041692 -0.004128
v -0.009167 -0.042056 0.003903
v -0.009167 -0.039112 0.012694
v -0.013783 -0.033986 0.018886
v -0.021253 -0.018531 0.003893
v -0.030059 -0.021313 0.004697
v -0.035502 -0.028711 0.005958
v -0.035502 -0.037899 0.007193
v -0.030059 -0.045368 0.007931
v -0.021253 -0.048263 0.007890
v -0.012446 -0.045481 0.007086
v -0.007003 -0.038083 0.005826
v -0.007003 -0.028895 0.004591
v -0.012446 -0.021427 0.003853
v -0.019705 -0.014269 0.035597
v -0.028512 -0.017051 0.036401
v -0.033954 -0.024450 0.037661
v -0.033954 -0.033637 0.038896
v -0.028512 -0.041106 0.039634
v -0.019705 -0.044002 0.039594
v -0.010899 -0.041219 0.038790
v -0.005456 -0.033821 0.037529
v -0.005456 -0.024633 0.036294
v -0.010899 -0.017165 0.035556
v -0.019705 -0.014380 0.034898
v -0.028444 -0.016987 0.036566
v -0.033844 -0.024235 0.038627
v -0.033844 -0.033354 0.040294
v -0.028444 -0.040862 0.040930
v -0.019705 -0.043891 0.040292
v -0.010967 -0.041284 0.038624
v -0.005566 -0.034036 0.036563
v -0.005566 -0.024917 0.034896
v -0.010967 -0.017409 0.034260
v -0.015919 -0.009305 0.062662
v -0.024658 -0.011913 0.064330
v -0.030059 -0.019160 0.066391
v -0.030059 -0.028280 0.068058
v -0.024658 -0.035788 0.068693
v -0.015919 -0.038816 0.068055
v -0.007181 -0.036209 0.066387
v -0.001780 -0.028962 0.064326
v -0.001780 -0.019842 0.062659
v -0.007181 -0.012334 0.062024
v 0.030824 0.033098 0.095069
v 0.022846 0.037215 0.097381
v 0.017915 0.045021 0.096540
v 0.017915 0.053533 0.092868
v 0.022846 0.059501 0.087768
v 0.030824 0.060645 0.083187
v 0.038802 0.056528 0.080876
v 0.043733 0.048723 0.081717
v 0.043733 0.040211 0.085389
v 0.038802 0.034243 0.090489
v -0.012637 -0.003496 0.010231
v -0.020615 0.000621 0.012543
v -0.025546 0.008426 0.011702
v -0.025546 0.016938 0.008030
v -0.020615 0.022906 0.002930
v -0.012637 0.024050 -0.001651
v -0.004659 0.019933 -0.003962
v 0.000272 0.012128 -0.003121
v 0.000272 0.003616 0.000550
v -0.004659 -0.002352 0.005651
v -0.012637 0.014641 0.018641
v -0.020175 0.018183 0.014570
v -0.024834 0.018705 0.006572
v -0.024834 0.016008 -0.002297
v -0.020175 0.011121 -0.008651
v -0.012637 0.005913 -0.010061
v -0.005099 0.002371 -0.005989
v -0.000440 0.001849 0.002008
v -0.000440 0.004546 0.010878
v -0.005099 0.009433 0.017231
v -0.031971 -0.015849 0.027914
v -0.039509 -0.012307 0.023842
v -0.044168 -0.011785 0.015844
v -0.044168 -0.014483 0.006975
v -0.039509 -0.019369 0.000622
v -0.031971 -0.024578 -0.000788
v -0.024433 -0.028119 0.003283
v -0.019774 -0.028641 0.011281
v -0.019774 -0.025944 0.020150
v -0.024433 -0.021058 0.026503
v -0.031971 -0.005214 0.013653
v -0.040654 -0.008087 0.015164
v -0.046021 -0.015593 0.016062
v -0.046021 -0.024863 0.016007
v -0.040654 -0.032358 0.015017
v -0.031971 -0.035213 0.013472
v -0.023287 -0.032339 0.011962
v -0.017921 -0.024834 0.011063
v -0.017921 -0.015563 0.011119
v -0.023287 -0.008069 0.012108
v -0.027534 -0.005366 0.038872
v -0.036217 -0.008240 0.040382
v -0.041584 -0.015745 0.041281
v -0.041584 -0.025016 0.041225
v -0.036217 -0.032510 0.040236
v -0.027534 -0.035365 0.038691
v -0.018850 -0.032491 0.037180
v -0.013484 -0.024986 0.036281
v -0.013484 -0.015715 0.036337
v -0.018850 -0.008221 0.037327
v -0.027534 -0.005634 0.035954
v -0.035921 -0.007935 0.039164
v -0.041104 -0.014984 0.042228
v -0.041104 -0.024088 0.043975
v -0.035921 -0.031771 0.043739
v -0.027534 -0.035097 0.041608
v -0.019147 -0.032796 0.038398
v -0.013963 -0.025747 0.035334
v -0.013963 -0.016642 0.033587
v -0.019147 -0.008960 0.033824
v -0.019770 -0.001121 0.059474
v -0.028157 -0.003421 0.062684
v -0.033340 -0.010470 0.065748
v -0.033340 -0.019575 0.067495
v -0.028157 -0.027257 0.067259
v -0.019770 -0.030583 0.065128
v -0.011383 -0.028282 0.061918
v -0.006199 -0.021233 0.058854
v -0.006199 -0.012129 0.057107
v -0.011383 -0.004446 0.057344
v 0.030824 0.032821 0.094379
v 0.023907 0.037418 0.098497
v 0.019631 0.045626 0.099036
v 0.019631 0.054310 0.095791
v 0.023907 0.060153 0.090001
v 0.030824 0.060923 0.083878
v 0.037742 0.056326 0.079760
v 0.042017 0.048118 0.079220
v 0.042017 0.039434 0.082465
v 0.037742 0.033591 0.088255
v -0.023057 0.008954 0.030512
v -0.029974 0.013552 0.034630
v -0.034249 0.021760 0.035170
v -0.034249 0.030444 0.031925
v -0.029974 0.036287 0.026134
v -0.023057 0.037056 0.020011
v -0.016139 0.032459 0.015893
v -0.011864 0.024251 0.015353
v -0.011864 0.015567 0.018598
v -0.016139 0.009724 0.024389
v -0.023057 0.022273 0.040244
v -0.028595 0.029265 0.037717
v -0.032018 0.033866 0.030433
v -0.032018 0.034318 0.021173
v -0.028595 0.030450 0.013476
v -0.023057 0.023738 0.010279
v -0.017518 0.016746 0.012806
v -0.014095 0.012145 0.020090
v -0.014095 0.011693 0.029350
v -0.017518 0.015561 0.037048
v -0.044825 0.004720 0.039386
v -0.050363 0.011712 0.036859
v -0.053786 0.016313 0.029575
v -0.053786 0.016765 0.020316
v -0.050363 0.012896 0.012618
v -0.044825 0.006184 0.009422
v -0.039286 -0.000808 0.011948
v -0.035864 -0.005408 0.019232
v -0.035864 -0.005861 0.028492
v -0.039286 -0.001992 0.036190
v -0.044825 0.014964 0.036003
v -0.051676 0.017439 0.030268
v -0.055910 0.015335 0.022294
v -0.055910 0.009457 0.015125
v -0.051676 0.002048 0.011501
v -0.044825 -0.004060 0.012805
v -0.037974 -0.006534 0.018540
v -0.033740 -0.004431 0.026514
v -0.033740 0.001448 0.033682
v -0.037974 0.008856 0.037307
v -0.060790 -0.000275 0.048499
v -0.067641 0.002200 0.042765
v -0.071875 0.000097 0.034790
v -0.071875 -0.005782 0.027622
v -0.067641 -0.013190 0.023998
v -0.060790 -0.019298 0.025302
v -0.053939 -0.021773 0.031036
v -0.049705 -0.019669 0.039010
v -0.049705 -0.013791 0.046179
v -0.053939 -0.006383 0.049803
v -0.060790 -0.004250 0.050841
v -0.066327 0.001069 0.045646
v -0.069750 0.002242 0.037111
v -0.069750 -0.001180 0.028495
v -0.066327 -0.007889 0.023090
v -0.060790 -0.015323 0.022959
v -0.055252 -0.020642 0.028154
v -0.051830 -0.021815 0.036690
v -0.051830 -0.018393 0.045306
v -0.055252 -0.011684 0.050711
v -0.073074 -0.013465 0.054501
v -0.078612 -0.008145 0.049306
v -0.082034 -0.006973 0.040770
v -0.082034 -0.010394 0.032154
v -0.078612 -0.017104 0.026749
v -0.073074 -0.024537 0.026619
v -0.067537 -0.029857 0.031814
v -0.064115 -0.031029 0.040349
v -0.064115 -0.027608 0.048965
v -0.067537 -0.020898 0.054370
f 1 2 13
f 2 14 13
f 2 3 14
f 3 15 14
f 3 4 15
f 4 16 15
f 4 5 16
f 5 17 16
f 5 6 17
f 6 18 17
f 6 7 18
f 7 19 18
f 7 8 19
f 8 20 19
f 8 9 20
f 9 21 20
f 9 10 21
f 10 22 21
f 10 11 22
f 11 23 22
f 11 12 23
f 12 24 23
f 13 14 25
f 14 26 25
f 14 15 26
f 15 27 26
f 15 16 27
f 16 28 27
f 16 17 28
f 17 29 28
f 17 18 29
f 18 30 29
f 18 19 30
f 19 31 30
f 19 20 31
f 20 32 31
f 20 21 32
f 21 33 32
f 21 22 33
f 22 34 33
f 22 23 34
f 23 35 34
f 23 24 35
f 24 36 35
f 25 26 37
f 26 38 37
f 26 27 38
f 27 39 38
f 27 28 39
f 28 40 39
f 28 29 40
f 29 41 40
f 29 30 41
f 30 42 41
f 30 31 42
f 31 43 42
f 31 32 43
f 32 44 43
f 32 33 44
f 33 45 44
f 33 34 45
f 34 46 45
f 34 35 46
f 35 47 46
f 35 36 47
f 36 48 47
f 37 38 49
f 38 50 49
f 38 39 50
f 39 51 50
f 39 40 51
f 40 52 51
f 40 41 52
f 41 53 52
f 41 42 53
f 42 54 53
f 42 43 54
f 43 55 54
f 43 44 55
f 44 56 55
f 44 45 56
f 45 57 56
f 45 46 57
f 46 58 57
f 46 47 58
f 47 59 58
f 47 48 59
f 48 60 59
f 49 50 61
f 50 62 61
f 50 51 62
f 51 63 62
f 51 52 63
f 52 64 63
f 52 53 64
f 53 65 64
f 53 54 65
f 54 66 65
f 54 55 66
f 55 67 66
f 55 56 67
f 56 68 67
f 56 57 68
f 57 69 68
f 57 58 69
f 58 70 69
f 58 59 70
f 59 71 70
f 59 60 71
f 60 72 71
f 61 62 73
f 62 74 73
f 62 63 74
f 63 75 74
f 63 64 75
f 64 76 75
f 64 65 76
f 65 77 76
f 65 66 77
f 66 78 77
f 66 67 78
f 67 79 78
f 67 68 79
f 68 80 79
f 68 69 80
f 69 81 80
f 69 70 81
f 70 82 81
f 70 71 82
f 71 83 82
f 71 72 83
f 72 84 83
f 73 74 85
f 74 86 85
f 74 75 86
f 75 87 86
f 75 76 87
f 76 88 87
f 76 77 88
f 77 89 88
f 77 78 89
f 78 90 89
f 78 79 90
f 79 91 90
f 79 80 91
f 80 92 91
f 80 81 92
f 81 93 92
f 81 82 93
f 82 94 93
f 82 83 94
f 83 95 94
f 83 84 95
f 84 96 95
f 85 86 97
f 86 98 97
f 86 87 98
f 87 99 98
f 87 88 99
f 88 100 99
f 88 89 100
f 89 101 100
f 89 90 101
f 90 102 101
f 90 91 102
f 91 103 102
f 91 92 103
f 92 104 103
f 92 93 104
f 93 105 104
f 93 94 105
f 94 106 105
f 94 95 106
f 95 107 106
f 95 96 107
f 96 108 107
f 97 98 109
f 98 110 109
f 98 99 110
f 99 111 110
f 99 100 111
f 100 112 111
f 100 101 112
f 101 113 112
f 101 102 113
f 102 114 113
f 102 103 114
f 103 115 114
f 103 104 115
f 104 116 115
f 104 105 116
f 105 117 116
f 105 106 117
f 106 118 117
f 106 107 118
f 107 119 118
f 107 108 119
f 108 120 119
f 109 110 121
f 110 122 121
f 110 111 122
f 111 123 122
f 111 112 123
f 112 124 123
f 112 113 124
f 113 125 124
f 113 114 125
f 114 126 125
f 114 115 126
f 115 127 126
f 115 116 127
f 116 128 127
f 116 117 128
f 117 129 128
f 117 118 129
f 118 130 129
f 118 119 130
f 119 131 130
f 119 120 131
f 120 132 131
f 121 122 133
f 122 134 133
f 122 123 134
f 123 135 134
f 123 124 135
f 124 136 135
f 124 125 136
f 125 137 136
f 125 126 137
f 126 138 137
f 126 127 138
f 127 139 138
f 127 128 139
f 128 140 139
f 128 129 140
f 129 141 140
f 129 130 141
f 130 142 141
f 130 131 142
f 131 143 142
f 131 132 143
f 132 144 143
f 145 146 155
f 146 156 155
f 146 147 156
f 147 157 156
f 147 148 157
f 148 158 157
f 148 149 158
f 149 159 158
f 149 150 159
f 150 160 159
f 150 151 160
f 151 161 160
f 151 152 161
f 152 162 161
f 152 153 162
f 153 163 162
f 153 154 163
f 154 164 163
f 154 145 164
f 145 155 164
f 165 166 175
f 166 176 175
f 166 167 176
f 167 177 176
f 167 168 177
f 168 178 177
f 168 169 178
f 169 179 178
f 169 170 179
f 170 180 179
f 170 171 180
f 171 181 180
f 171 172 181
f 172 182 181
f 172 173 182
f 173 183 182
f 173 174 183
f 174 184 183
f 174 165 184
f 165 175 184
f 185 186 195
f 186 196 195
f 186 187 196
f 187 197 196
f 187 188 197
f 188 198 197
f 188 189 198
f 189 199 198
f 189 190 199
f 190 200 199
f 190 191 200
f 191 201 200
f 191 192 201
f 192 202 201
f 192 193 202
f 193 203 202
f 193 194 203
f 194 204 203
f 194 185 204
f 185 195 204
f 205 206 215
f 206 216 215
f 206 207 216
f 207 217 216
f 207 208 217
f 208 218 217
f 208 209 218
f 209 219 218
f 209 210 219
f 210 220 219
f 210 211 220
f 211 221 220
f 211 212 221
f 212 222 221
f 212 213 222
f 213 223 222
f 213 214 223
f 214 224 223
f 214 205 224
f 205 215 224
f 225 226 235
f 226 236 235
f 226 227 236
f 227 237 236
f 227 228 237
f 228 238 237
f 228 229 238
f 229 239 238
f 229 230 239
f 230 240 239
f 230 231 240
f 231 241 240
f 231 232 241
f 232 242 241
f 232 233 242
f 233 243 242
f 233 234 243
f 234 244 243
f 234 225 244
f 225 235 244
f 245 246 255
f 246 256 255
f 246 247 256
f 247 257 256
f 247 248 257
f 248 258 257
f 248 249 258
f 249 259 258
f 249 250 259
f 250 260 259
f 250 251 260
f 251 261 260
f 251 252 261
f 252 262 261
f 252 253 262
f 253 263 262
f 253 254 263
f 254 264 263
f 254 245 264
f 245 255 264
f 265 266 275
f 266 276 275
f 266 267 276
f 267 277 276
f 267 268 277
f 268 278 277
f 268 269 278
f 269 279 278
f 269 270 279
f 270 280 279
f 270 271 280
f 271 281 280
f 271 272 281
f 272 282 281
f 272 273 282
f 273 283 282
f 273 274 283
f 274 284 283
f 274 265 284
f 265 275 284
f 285 286 295
f 286 296 295
f 286 287 296
f 287 297 296
f 287 288 297
f 288 298 297
f 288 289 298
f 289 299 298
f 289 290 299
f 290 300 299
f 290 291 300
f 291 301 300
f 291 292 301
f 292 302 301
f 292 293 302
f 293 303 302
f 293 294 303
f 294 304 303
f 294 285 304
f 285 295 304
f 305 306 315
f 306 316 315
f 306 307 316
f 307 317 316
f 307 308 317
f 308 318 317
f 308 309 318
f 309 319 318
f 309 310 319
f 310 320 319
f 310 311 320
f 311 321 320
f 311 312 321
f 312 322 321
f 312 313 322
f 313 323 322
f 313 314 323
f 314 324 323
f 314 305 324
f 305 315 324
f 325 326 335
f 326 336 335
f 326 327 336
f 327 337 336
f 327 328 337
f 328 338 337
f 328 329 338
f 329 339 338
f 329 330 339
f 330 340 339
f 330 331 340
f 331 341 340
f 331 332 341
f 332 342 341
f 332 333 342
f 333 343 342
f 333 334 343
f 334 344 343
f 334 325 344
f 325 335 344
f 345 346 355
f 346 356 355
f 346 347 356
f 347 357 356
f 347 348 357
f 348 358 357
f 348 349 358
f 349 359 358
f 349 350 359
f 350 360 359
f 350 351 360
f 351 361 360
f 351 352 361
f 352 362 361
f 352 353 362
f 353 363 362
f 353 354 363
f 354 364 363
f 354 345 364
f 345 355 364
f 365 366 375
f 366 376 375
f 366 367 376
f 367 377 376
f 367 368 377
f 368 378 377
f 368 369 378
f 369 379 378
f 369 370 379
f 370 380 379
f 370 371 380
f 371 381 380
f 371 372 381
f 372 382 381
f 372 373 382
f 373 383 382
f 373 374 383
f 374 384 383
f 374 365 384
f 365 375 384
f 385 386 395
f 386 396 395
f 386 387 396
f 387 397 396
f 387 388 397
f 388 398 397
f 388 389 398
f 389 399 398
f 389 390 399
f 390 400 399
f 390 391 400
f 391 401 400
f 391 392 401
f 392 402 401
f 392 393 402
f 393 403 402
f 393 394 403
f 394 404 403
f 394 385 404
f 385 395 404
f 405 406 415
f 406 416 415
f 406 407 416
f 407 417 416
f 407 408 417
f 408 418 417
f 408 409 418
f 409 419 418
f 409 410 419
f 410 420 419
f 410 411 420
f 411 421 420
f 411 412 421
f 412 422 421
f 412 413 422
f 413 423 422
f 413 414 423
f 414 424 423
f 414 405 424
f 405 415 424
f 425 426 435
f 426 436 435
f 426 427 436
f 427 437 436
f 427 428 437
f 428 438 437
f 428 429 438
f 429 439 438
f 429 430 439
f 430 440 439
f 430 431 440
f 431 441 440
f 431 432 441
f 432 442 441
f 432 433 442
f 433 443 442
f 433 434 443
f 434 444 443
f 434 425 444
f 425 435 444
f 445 446 455
f 446 456 455
f 446 447 456
f 447 457 456
f 447 448 457
f 448 458 457
f 448 449 458
f 449 459 458
f 449 450 459
f 450 460 459
f 450 451 460
f 451 461 460
f 451 452 461
f 452 462 461
f 452 453 462
f 453 463 462
f 453 454 463
f 454 464 463
f 454 445 464
f 445 455 464
f 465 466 475
f 466 476 475
f 466 467 476
f 467 477 476
f 467 468 477
f 468 478 477
f 468 469 478
f 469 479 478
f 469 470 479
f 470 480 479
f 470 471 480
f 471 481 480
f 471 472 481
f 472 482 481
f 472 473 482
f 473 483 482
f 473 474 483
f 474 484 483
f 474 465 484
f 465 475 484
f 485 486 495
f 486 496 495
f 486 487 496
f 487 497 496
f 487 488 497
f 488 498 497
f 488 489 498
f 489 499 498
f 489 490 499
f 490 500 499
f 490 491 500
f 491 501 500
f 491 492 501
f 492 502 501
f 492 493 502
f 493 503 502
f 493 494 503
f 494 504 503
f 494 485 504
f 485 495 504
f 505 506 515
f 506 516 515
f 506 507 516
f 507 517 516
f 507 508 517
f 508 518 517
f 508 509 518
f 509 519 518
f 509 510 519
f 510 520 519
f 510 511 520
f 511 521 520
f 511 512 521
f 512 522 521
f 512 513 522
f 513 523 522
f 513 514 523
f 514 524 523
f 514 505 524
f 505 515 524
f 525 526 535
f 526 536 535
f 526 527 536
f 527 537 536
f 527 528 537
f 528 538 537
f 528 529 538
f 529 539 538
f 529 530 539
f 530 540 539
f 530 531 540
f 531 541 540
f 531 532 541
f 532 542 541
f 532 533 542
f 533 543 542
f 533 534 543
f 534 544 543
f 534 525 544
f 525 535 544
f 545 546 555
f 546 556 555
f 546 547 556
f 547 557 556
f 547 548 557
f 548 558 557
f 548 549 558
f 549 559 558
f 549 550 559
f 550 560 559
f 550 551 560
f 551 561 560
f 551 552 561
f 552 562 561
f 552 553 562
f 553 563 562
f 553 554 563
f 554 564 563
f 554 545 564
f 545 555 564
f 565 566 575
f 566 576 575
f 566 567 576
f 567 577 576
f 567 568 577
f 568 578 577
f 568 569 578
f 569 579 578
f 569 570 579
f 570 580 579
f 570 571 580
f 571 581 580
f 571 572 581
f 572 582 581
f 572 573 582
f 573 583 582
f 573 574 583
f 574 584 583
f 574 565 584
f 565 575 584
f 585 586 595
f 586 596 595
f 586 587 596
f 587 597 596
f 587 588 597
f 588 598 597
f 588 589 598
f 589 599 598
f 589 590 599
f 590 600 599
f 590 591 600
f 591 601 600
f 591 592 601
f 592 602 601
f 592 593 602
f 593 603 602
f 593 594 603
f 594 604 603
f 594 585 604
f 585 595 604
f 605 606 615
f 606 616 615
f 606 607 616
f 607 617 616
f 607 608 617
f 608 618 617
f 608 609 618
f 609 619 618
f 609 610 619
f 610 620 619
f 610 611 620
f 611 621 620
f 611 612 621
f 612 622 621
f 612 613 622
f 613 623 622
f 613 614 623
f 614 624 623
f 614 605 624
f 605 615 624
f 625 626 635
f 626 636 635
f 626 627 636
f 627 637 636
f 627 628 637
f 628 638 637
f 628 629 638
f 629 639 638
f 629 630 639
f 630 640 639
f 630 631 640
f 631 641 640
f 631 632 641
f 632 642 641
f 632 633 642
f 633 643 642
f 633 634 643
f 634 644 643
f 634 625 644
f 625 635 644
f 645 646 655
f 646 656 655
f 646 647 656
f 647 657 656
f 647 648 657
f 648 658 657
f 648 649 658
f 649 659 658
f 649 650 659
f 650 660 659
f 650 651 660
f 651 661 660
f 651 652 661
f 652 662 661
f 652 653 662
f 653 663 662
f 653 654 663
f 654 664 663
f 654 645 664
f 645 655 664
f 665 666 675
f 666 676 675
f 666 667 676
f 667 677 676
f 667 668 677
f 668 678 677
f 668 669 678
f 669 679 678
f 669 670 679
f 670 680 679
f 670 671 680
f 671 681 680
f 671 672 681
f 672 682 681
f 672 673 682
f 673 683 682
f 673 674 683
f 674 684 683
f 674 665 684
f 665 675 684
f 685 686 695
f 686 696 695
f 686 687 696
f 687 697 696
f 687 688 697
f 688 698 697
f 688 689 698
f 689 699 698
f 689 690 699
f 690 700 699
f 690 691 700
f 691 701 700
f 691 692 701
f 692 702 701
f 692 693 702
f 693 703 702
f 693 694 703
f 694 704 703
f 694 685 704
f 685 695 704
f 705 706 715
f 706 716 715
f 706 707 716
f 707 717 716
f 707 708 717
f 708 718 717
f 708 709 718
f 709 719 718
f 709 710 719
f 710 720 719
f 710 711 720
f 711 721 720
f 711 712 721
f 712 722 721
f 712 713 722
f 713 723 722
f 713 714 723
f 714 724 723
f 714 705 724
f 705 715 724
f 725 726 735
f 726 736 735
f 726 727 736
f 727 737 736
f 727 728 737
f 728 738 737
f 728 729 738
f 729 739 738
f 729 730 739
f 730 740 739
f 730 731 740
f 731 741 740
f 731 732 741
f 732 742 741
f 732 733 742
f 733 743 742
f 733 734 743
f 734 744 743
f 734 725 744
f 725 735 744
f 745 746 755
f 746 756 755
f 746 747 756
f 747 757 756
f 747 748 757
f 748 758 757
f 748 749 758
f 749 759 758
f 749 750 759
f 750 760 759
f 750 751 760
f 751 761 760
f 751 752 761
f 752 762 761
f 752 753 762
f 753 763 762
f 753 754 763
f 754 764 763
f 754 745 764
f 745 755 764
f 765 766 775
f 766 776 775
f 766 767 776
f 767 777 776
f 767 768 777
f 768 778 777
f 768 769 778
f 769 779 778
f 769 770 779
f 770 780 779
f 770 771 780
f 771 781 780
f 771 772 781
f 772 782 781
f 772 773 782
f 773 783 782
f 773 774 783
f 774 784 783
f 774 765 784
f 765 775 784
f 785 786 795
f 786 796 795
f 786 787 796
f 787 797 796
f 787 788 797
f 788 798 797
f 788 789 798
f 789 799 798
f 789 790 799
f 790 800 799
f 790 791 800
f 791 801 800
f 791 792 801
f 792 802 801
f 792 793 802
f 793 803 802
f 793 794 803
f 794 804 803
f 794 785 804
f 785 795 804
f 805 806 815
f 806 816 815
f 806 807 816
f 807 817 816
f 807 808 817
f 808 818 817
f 808 809 818
f 809 819 818
f 809 810 819
f 810 820 819
f 810 811 820
f 811 821 820
f 811 812 821
f 812 822 821
f 812 813 822
f 813 823 822
f 813 814 823
f 814 824 823
f 814 805 824
f 805 815 824
f 825 826 835
f 826 836 835
f 826 827 836
f 827 837 836
f 827 828 837
f 828 838 837
f 828 829 838
f 829 839 838
f 829 830 839
f 830 840 839
f 830 831 840
f 831 841 840
f 831 832 841
f 832 842 841
f 832 833 842
f 833 843 842
f 833 834 843
f 834 844 843
f 834 825 844
f 825 835 844
f 845 846 855
f 846 856 855
f 846 847 856
f 847 857 856
f 847 848 857
f 848 858 857
f 848 849 858
f 849 859 858
f 849 850 859
f 850 860 859
f 850 851 860
f 851 861 860
f 851 852 861
f 852 862 861
f 852 853 862
f 853 863 862
f 853 854 863
f 854 864 863
f 854 845 864
f 845 855 864
f 865 866 875
f 866 876 875
f 866 867 876
f 867 877 876
f 867 868 877
f 868 878 877
f 868 869 878
f 869 879 878
f 869 870 879
f 870 880 879
f 870 871 880
f 871 881 880
f 871 872 881
f 872 882 881
f 872 873 882
f 873 883 882
f 873 874 883
f 874 884 883
f 874 865 884
f 865 875 884
f 885 886 895
f 886 896 895
f 886 887 896
f 887 897 896
f 887 888 897
f 888 898 897
f 888 889 898
f 889 899 898
f 889 890 899
f 890 900 899
f 890 891 900
f 891 901 900
f 891 892 901
f 892 902 901
f 892 893 902
f 893 903 902
f 893 894 903
f 894 904 903
f 894 885 904
f 885 895 904
f 905 906 915
f 906 916 915
f 906 907 916
f 907 917 916
f 907 908 917
f 908 918 917
f 908 909 918
f 909 919 918
f 909 910 919
f 910 920 919
f 910 911 920
f 911 921 920
f 911 912 921
f 912 922 921
f 912 913 922
f 913 923 922
f 913 914 923
f 914 924 923
f 914 905 924
f 905 915 924
f 925 926 935
f 926 936 935
f 926 927 936
f 927 937 936
f 927 928 937
f 928 938 937
f 928 929 938
f 929 939 938
f 929 930 939
f 930 940 939
f 930 931 940
f 931 941 940
f 931 932 941
f 932 942 941
f 932 933 942
f 933 943 942
f 933 934 943
f 934 944 943
f 934 925 944
f 925 935 944
f 945 946 955
f 946 956 955
f 946 947 956
f 947 957 956
f 947 948 957
f 948 958 957
f 948 949 958
f 949 959 958
f 949 950 959
f 950 960 959
f 950 951 960
f 951 961 960
f 951 952 961
f 952 962 961
f 952 953 962
f 953 963 962
f 953 954 963
f 954 964 963
f 954 945 964
f 945 955 964
f 965 966 975
f 966 976 975
f 966 967 976
f 967 977 976
f 967 968 977
f 968 978 977
f 968 969 978
f 969 979 978
f 969 970 979
f 970 980 979
f 970 971 980
f 971 981 980
f 971 972 981
f 972 982 981
f 972 973 982
f 973 983 982
f 973 974 983
f 974 984 983
f 974 965 984
f 965 975 984
f 985 986 995
f 986 996 995
f 986 987 996
f 987 997 996
f 987 988 997
f 988 998 997
f 988 989 998
f 989 999 998
f 989 990 999
f 990 1000 999
f 990 991 1000
f 991 1001 1000
f 991 992 1001
f 992 1002 1001
f 992 993 1002
f 993 1003 1002
f 993 994 1003
f 994 1004 1003
f 994 985 1004
f 985 995 1004
f 1005 1006 1015
f 1006 1016 1015
f 1006 1007 1016
f 1007 1017 1016
f 1007 1008 1017
f 1008 1018 1017
f 1008 1009 1018
f 1009 1019 1018
f 1009 1010 1019
f 1010 1020 1019
f 1010 1011 1020
f 1011 1021 1020
f 1011 1012 1021
f 1012 1022 1021
f 1012 1013 1022
f 1013 1023 1022
f 1013 1014 1023
f 1014 1024 1023
f 1014 1005 1024
f 1005 1015 1024
f 1025 1026 1035
f 1026 1036 1035
f 1026 1027 1036
f 1027 1037 1036
f 1027 1028 1037
f 1028 1038 1037
f 1028 1029 1038
f 1029 1039 1038
f 1029 1030 1039
f 1030 1040 1039
f 1030 1031 1040
f 1031 1041 1040
f 1031 1032 1041
f 1032 1042 1041
f 1032 1033 1042
f 1033 1043 1042
f 1033 1034 1043
f 1034 1044 1043
f 1034 1025 1044
f 1025 1035 1044
f 1045 1046 1055
f 1046 1056 1055
f 1046 1047 1056
f 1047 1057 1056
f 1047 1048 1057
f 1048 1058 1057
f 1048 1049 1058
f 1049 1059 1058
f 1049 1050 1059
f 1050 1060 1059
f 1050 1051 1060
f 1051 1061 1060
f 1051 1052 1061
f 1052 1062 1061
f 1052 1053 1062
f 1053 1063 1062
f 1053 1054 1063
f 1054 1064 1063
f 1054 1045 1064
f 1045 1055 1064
f 1065 1066 1075
f 1066 1076 1075
f 1066 1067 1076
f 1067 1077 1076
f 1067 1068 1077
f 1068 1078 1077
f 1068 1069 1078
f 1069 1079 1078
f 1069 1070 1079
f 1070 1080 1079
f 1070 1071 1080
f 1071 1081 1080
f 1071 1072 1081
f 1072 1082 1081
f 1072 1073 1082
f 1073 1083 1082
f 1073 1074 1083
f 1074 1084 1083
f 1074 1065 1084
f 1065 1075 1084
f 1085 1086 1095
f 1086 1096 1095
f 1086 1087 1096
f 1087 1097 1096
f 1087 1088 1097
f 1088 1098 1097
f 1088 1089 1098
f 1089 1099 1098
f 1089 1090 1099
f 1090 1100 1099
f 1090 1091 1100
f 1091 1101 1100
f 1091 1092 1101
f 1092 1102 1101
f 1092 1093 1102
f 1093 1103 1102
f 1093 1094 1103
f 1094 1104 1103
f 1094 1085 1104
f 1085 1095 1104
f 1105 1106 1115
f 1106 1116 1115
f 1106 1107 1116
f 1107 1117 1116
f 1107 1108 1117
f 1108 1118 1117
f 1108 1109 1118
f 1109 1119 1118
f 1109 1110 1119
f 1110 1120 1119
f 1110 1111 1120
f 1111 1121 1120
f 1111 1112 1121
f 1112 1122 1121
f 1112 1113 1122
f 1113 1123 1122
f 1113 1114 1123
f 1114 1124 1123
f 1114 1105 1124
f 1105 1115 1124
f 1125 1126 1135
f 1126 1136 1135
f 1126 1127 1136
f 1127 1137 1136
f 1127 1128 1137
f 1128 1138 1137
f 1128 1129 1138
f 1129 1139 1138
f 1129 1130 1139
f 1130 1140 1139
f 1130 1131 1140
f 1131 1141 1140
f 1131 1132 1141
f 1132 1142 1141
f 1132 1133 1142
f 1133 1143 1142
f 1133 1134 1143
f 1134 1144 1143
f 1134 1125 1144
f 1125 1135 1144
f 1145 1146 1155
f 1146 1156 1155
f 1146 1147 1156
f 1147 1157 1156
f 1147 1148 1157
f 1148 1158 1157
f 1148 1149 1158
f 1149 1159 1158
f 1149 1150 1159
f 1150 1160 1159
f 1150 1151 1160
f 1151 1161 1160
f 1151 1152 1161
f 1152 1162 1161
f 1152 1153 1162
f 1153 1163 1162
f 1153 1154 1163
f 1154 1164 1163
f 1154 1145 1164
f 1145 1155 1164
f 1165 1166 1175
f 1166 1176 1175
f 1166 1167 1176
f 1167 1177 1176
f 1167 1168 1177
f 1168 1178 1177
f 1168 1169 1178
f 1169 1179 1178
f 1169 1170 1179
f 1170 1180 1179
f 1170 1171 1180
f 1171 1181 1180
f 1171 1172 1181
f 1172 1182 1181
f 1172 1173 1182
f 1173 1183 1182
f 1173 1174 1183
f 1174 1184 1183
f 1174 1165 1184
f 1165 1175 1184
