# Full-Body 3D Mesh - Frame 10
v 0.015048 -0.648495 -0.090168
v 0.048856 -0.648495 -0.095029
v 0.079925 -0.648495 -0.109218
v 0.105738 -0.648495 -0.131585
v 0.124204 -0.648495 -0.160318
v 0.133827 -0.648495 -0.193090
v 0.133827 -0.648495 -0.227246
v 0.124204 -0.648495 -0.260018
v 0.105738 -0.648495 -0.288751
v 0.079925 -0.648495 -0.311119
v 0.048856 -0.648495 -0.325307
v 0.015048 -0.648495 -0.330168
v 0.015048 -0.648495 -0.090168
v 0.043489 -0.630217 -0.095029
v 0.069626 -0.613420 -0.109218
v 0.091341 -0.599465 -0.131585
v 0.106876 -0.589481 -0.160318
v 0.114971 -0.584279 -0.193090
v 0.114971 -0.584279 -0.227246
v 0.106876 -0.589481 -0.260018
v 0.091341 -0.599465 -0.288751
v 0.069626 -0.613420 -0.311119
v 0.043489 -0.630217 -0.325307
v 0.015048 -0.648495 -0.330168
v 0.015048 -0.648495 -0.090168
v 0.029093 -0.617742 -0.095029
v 0.041999 -0.589481 -0.109218
v 0.052722 -0.566001 -0.131585
v 0.060393 -0.549204 -0.160318
v 0.064391 -0.540450 -0.193090
v 0.064391 -0.540450 -0.227246
v 0.060393 -0.549204 -0.260018
v 0.052722 -0.566001 -0.288751
v 0.041999 -0.589481 -0.311119
v 0.029093 -0.617742 -0.325307
v 0.015048 -0.648495 -0.330168
v 0.015048 -0.648495 -0.090168
v 0.010237 -0.615031 -0.095029
v 0.005815 -0.584279 -0.109218
v 0.002142 -0.558728 -0.131585
v -0.000486 -0.540450 -0.160318
v -0.001856 -0.530926 -0.193090
v -0.001856 -0.530926 -0.227246
v -0.000486 -0.540450 -0.260018
v 0.002142 -0.558728 -0.288751
v 0.005815 -0.584279 -0.311119
v 0.010237 -0.615031 -0.325307
v 0.015048 -0.648495 -0.330168
v 0.015048 -0.648495 -0.090168
v -0.007091 -0.622945 -0.095029
v -0.027437 -0.599465 -0.109218
v -0.044341 -0.579956 -0.131585
v -0.056434 -0.566001 -0.160318
v -0.062735 -0.558728 -0.193090
v -0.062735 -0.558728 -0.227246
v -0.056434 -0.566001 -0.260018
v -0.044341 -0.579956 -0.288751
v -0.027437 -0.599465 -0.311119
v -0.007091 -0.622945 -0.325307
v 0.015048 -0.648495 -0.330168
v 0.015048 -0.648495 -0.090168
v -0.017390 -0.638970 -0.095029
v -0.047201 -0.630217 -0.109218
v -0.071968 -0.622945 -0.131585
v -0.089686 -0.617742 -0.160318
v -0.098919 -0.615031 -0.193090
v -0.098919 -0.615031 -0.227246
v -0.089686 -0.617742 -0.260018
v -0.071968 -0.622945 -0.288751
v -0.047201 -0.630217 -0.311119
v -0.017390 -0.638970 -0.325307
v 0.015048 -0.648495 -0.330168
v 0.015048 -0.648495 -0.090168
v -0.017390 -0.658020 -0.095029
v -0.047201 -0.666773 -0.109218
v -0.071968 -0.674046 -0.131585
v -0.089686 -0.679248 -0.160318
v -0.098919 -0.681959 -0.193090
v -0.098919 -0.681959 -0.227246
v -0.089686 -0.679248 -0.260018
v -0.071968 -0.674046 -0.288751
v -0.047201 -0.666773 -0.311119
v -0.017390 -0.658020 -0.325307
v 0.015048 -0.648495 -0.330168
v 0.015048 -0.648495 -0.090168
v -0.007091 -0.674046 -0.095029
v -0.027437 -0.697526 -0.109218
v -0.044341 -0.717034 -0.131585
v -0.056434 -0.730990 -0.160318
v -0.062735 -0.738262 -0.193090
v -0.062735 -0.738262 -0.227246
v -0.056434 -0.730990 -0.260018
v -0.044341 -0.717034 -0.288751
v -0.027437 -0.697526 -0.311119
v -0.007091 -0.674046 -0.325307
v 0.015048 -0.648495 -0.330168
v 0.015048 -0.648495 -0.090168
v 0.010237 -0.681959 -0.095029
v 0.005815 -0.712712 -0.109218
v 0.002142 -0.738262 -0.131585
v -0.000486 -0.756540 -0.160318
v -0.001856 -0.766065 -0.193090
v -0.001856 -0.766065 -0.227246
v -0.000486 -0.756540 -0.260018
v 0.002142 -0.738262 -0.288751
v 0.005815 -0.712712 -0.311119
v 0.010237 -0.681959 -0.325307
v 0.015048 -0.648495 -0.330168
v 0.015048 -0.648495 -0.090168
v 0.029093 -0.679248 -0.095029
v 0.041999 -0.707509 -0.109218
v 0.052722 -0.730990 -0.131585
v 0.060393 -0.747787 -0.160318
v 0.064391 -0.756540 -0.193090
v 0.064391 -0.756540 -0.227246
v 0.060393 -0.747787 -0.260018
v 0.052722 -0.730990 -0.288751
v 0.041999 -0.707509 -0.311119
v 0.029093 -0.679248 -0.325307
v 0.015048 -0.648495 -0.330168
v 0.015048 -0.648495 -0.090168
v 0.043489 -0.666773 -0.095029
v 0.069626 -0.683570 -0.109218
v 0.091341 -0.697526 -0.131585
v 0.106876 -0.707509 -0.160318
v 0.114971 -0.712712 -0.193090
v 0.114971 -0.712712 -0.227246
v 0.106876 -0.707509 -0.260018
v 0.091341 -0.697526 -0.288751
v 0.069626 -0.683570 -0.311119
v 0.043489 -0.666773 -0.325307
v 0.015048 -0.648495 -0.330168
v 0.015048 -0.648495 -0.090168
v 0.048856 -0.648495 -0.095029
v 0.079925 -0.648495 -0.109218
v 0.105738 -0.648495 -0.131585
v 0.124204 -0.648495 -0.160318
v 0.133827 -0.648495 -0.193090
v 0.133827 -0.648495 -0.227246
v 0.124204 -0.648495 -0.260018
v 0.105738 -0.648495 -0.288751
v 0.079925 -0.648495 -0.311119
v 0.048856 -0.648495 -0.325307
v 0.015048 -0.648495 -0.330168
v 0.174058 -0.461891 -0.018153
v 0.172555 -0.485402 -0.010662
v 0.168913 -0.499933 0.009004
v 0.164523 -0.499933 0.033333
v 0.161062 -0.485402 0.053031
v 0.159852 -0.461891 0.060575
v 0.161355 -0.438380 0.053084
v 0.164997 -0.423850 0.033418
v 0.169387 -0.423850 0.009090
v 0.172848 -0.438380 -0.010609
v -0.143094 -0.459852 -0.075378
v -0.144597 -0.483362 -0.067887
v -0.148239 -0.497893 -0.048221
v -0.152629 -0.497893 -0.023892
v -0.156089 -0.483362 -0.004194
v -0.157300 -0.459852 0.003350
v -0.155797 -0.436341 -0.004141
v -0.152155 -0.421810 -0.023807
v -0.147765 -0.421810 -0.048135
v -0.144304 -0.436341 -0.067834
v 0.166955 -0.472239 -0.017427
v 0.143538 -0.468226 -0.010593
v 0.129066 -0.461794 0.008389
v 0.129066 -0.455398 0.032269
v 0.143538 -0.451483 0.051925
v 0.166955 -0.451544 0.059850
v 0.190372 -0.455556 0.053016
v 0.204844 -0.461989 0.034034
v 0.204844 -0.468384 0.010154
v 0.190372 -0.472299 -0.009503
v 0.188515 -0.240933 -0.079372
v 0.165098 -0.236920 -0.072539
v 0.150626 -0.230487 -0.053556
v 0.150626 -0.224092 -0.029677
v 0.165098 -0.220177 -0.010020
v 0.188515 -0.220237 -0.002096
v 0.211931 -0.224250 -0.008930
v 0.226404 -0.230683 -0.027912
v 0.226404 -0.237078 -0.051792
v 0.211931 -0.240993 -0.071448
v 0.188515 -0.270326 -0.045277
v 0.165025 -0.262850 -0.043413
v 0.150507 -0.243050 -0.040526
v 0.150507 -0.218488 -0.037719
v 0.165025 -0.198548 -0.036063
v 0.188515 -0.190844 -0.036191
v 0.212005 -0.198320 -0.038055
v 0.226522 -0.218120 -0.040942
v 0.226522 -0.242681 -0.043750
v 0.212005 -0.262622 -0.045406
v 0.179297 -0.245795 -0.259864
v 0.155807 -0.238319 -0.258000
v 0.141289 -0.218519 -0.255113
v 0.141289 -0.193958 -0.252306
v 0.155807 -0.174017 -0.250650
v 0.179297 -0.166313 -0.250778
v 0.202787 -0.173789 -0.252642
v 0.217304 -0.193589 -0.255529
v 0.217304 -0.218150 -0.258337
v 0.202787 -0.238091 -0.259993
v -0.150197 -0.467927 -0.075190
v -0.173352 -0.470381 -0.066885
v -0.187662 -0.468812 -0.046787
v -0.187662 -0.463821 -0.022575
v -0.173352 -0.457314 -0.003496
v -0.150197 -0.451776 0.003162
v -0.127042 -0.449322 -0.005143
v -0.112732 -0.450891 -0.025241
v -0.112732 -0.455882 -0.049453
v -0.127042 -0.462389 -0.068532
v -0.195311 -0.217152 -0.126886
v -0.218466 -0.219606 -0.118580
v -0.232776 -0.218037 -0.098483
v -0.232776 -0.213046 -0.074271
v -0.218466 -0.206538 -0.055192
v -0.195311 -0.201000 -0.048534
v -0.172156 -0.198547 -0.056839
v -0.157846 -0.200115 -0.076937
v -0.157846 -0.205107 -0.101149
v -0.172156 -0.211614 -0.120228
v -0.195311 -0.248559 -0.094125
v -0.218569 -0.240465 -0.096301
v -0.232943 -0.220383 -0.095195
v -0.232943 -0.195982 -0.091230
v -0.218569 -0.176582 -0.085921
v -0.195311 -0.169594 -0.081295
v -0.172054 -0.177687 -0.079119
v -0.157680 -0.197770 -0.080225
v -0.157680 -0.222171 -0.084190
v -0.172054 -0.241571 -0.089499
v -0.157886 -0.208043 -0.343475
v -0.181144 -0.199950 -0.345651
v -0.195518 -0.179867 -0.344545
v -0.195518 -0.155466 -0.340580
v -0.181144 -0.136066 -0.335271
v -0.157886 -0.129078 -0.330645
v -0.134629 -0.137171 -0.328469
v -0.120255 -0.157254 -0.329575
v -0.120255 -0.181655 -0.333540
v -0.134629 -0.201055 -0.338849
v 0.166955 -0.461610 -0.018788
v 0.143524 -0.463606 -0.011162
v 0.129043 -0.464946 0.008829
v 0.129043 -0.465120 0.033549
v 0.143524 -0.464060 0.053557
v 0.166955 -0.462172 0.061210
v 0.190386 -0.460177 0.053585
v 0.204867 -0.458836 0.033594
v 0.204867 -0.458663 0.008873
v 0.190386 -0.459722 -0.011135
v 0.128676 0.000299 -0.015545
v 0.105245 -0.001696 -0.007919
v 0.090764 -0.003036 0.012072
v 0.090764 -0.003210 0.036793
v 0.105245 -0.002150 0.056801
v 0.128676 -0.000262 0.064453
v 0.152107 0.001733 0.056828
v 0.166589 0.003073 0.036837
v 0.166589 0.003247 0.012116
v 0.152107 0.002187 -0.007892
v -0.150197 -0.458454 -0.075990
v -0.173669 -0.457362 -0.068307
v -0.188175 -0.457221 -0.048290
v -0.188175 -0.458085 -0.023584
v -0.173669 -0.459623 -0.003626
v -0.150197 -0.461249 0.003962
v -0.126725 -0.462341 -0.003721
v -0.112218 -0.462482 -0.023738
v -0.112218 -0.461618 -0.048444
v -0.126725 -0.460080 -0.068402
v -0.124442 -0.014141 -0.060454
v -0.147914 -0.013049 -0.052772
v -0.162420 -0.012908 -0.032755
v -0.162420 -0.013772 -0.008048
v -0.147914 -0.015310 0.011910
v -0.124442 -0.016936 0.019497
v -0.100970 -0.018028 0.011815
v -0.086463 -0.018169 -0.008202
v -0.086463 -0.017305 -0.032908
v -0.100970 -0.015766 -0.052867
v 0.135668 0.000018 -0.014930
v 0.135731 -0.023450 -0.007160
v 0.133099 -0.037954 0.012686
v 0.128778 -0.037954 0.037026
v 0.124419 -0.023450 0.056565
v 0.121685 0.000018 0.063839
v 0.121622 0.023487 0.056069
v 0.124253 0.037991 0.036223
v 0.128574 0.037991 0.011882
v 0.132934 0.023487 -0.007656
v -0.117450 -0.015538 -0.059863
v -0.117387 -0.039007 -0.052093
v -0.120019 -0.053511 -0.032247
v -0.124340 -0.053511 -0.007906
v -0.128700 -0.039007 0.011632
v -0.131433 -0.015538 0.018906
v -0.131496 0.007930 0.011136
v -0.128865 0.022434 -0.008710
v -0.124544 0.022434 -0.033050
v -0.120184 0.007930 -0.052589
v 0.128676 -0.031439 -0.000253
v 0.105186 -0.024821 0.003689
v 0.090668 -0.008715 0.015562
v 0.090668 0.010727 0.030832
v 0.105186 0.026078 0.043666
v 0.128676 0.031476 0.049162
v 0.152167 0.024857 0.045220
v 0.166685 0.008752 0.033347
v 0.166685 -0.010690 0.018077
v 0.152167 -0.026041 0.005243
v 0.134663 0.056455 -0.112159
v 0.111173 0.063073 -0.108218
v 0.096655 0.079179 -0.096345
v 0.096655 0.098621 -0.081075
v 0.111173 0.113972 -0.068241
v 0.134663 0.119369 -0.062745
v 0.158154 0.112751 -0.066687
v 0.172672 0.096645 -0.078560
v 0.172672 0.077203 -0.093830
v 0.158154 0.061852 -0.106664
v 0.134663 0.103344 -0.124356
v 0.111309 0.102902 -0.116260
v 0.096876 0.096735 -0.097161
v 0.096876 0.087198 -0.074353
v 0.111309 0.077933 -0.056549
v 0.134663 0.072480 -0.050549
v 0.158017 0.072922 -0.058645
v 0.172451 0.079089 -0.077744
v 0.172451 0.088626 -0.100552
v 0.158017 0.097891 -0.118356
v 0.165910 0.351212 -0.020706
v 0.142556 0.350771 -0.012610
v 0.128122 0.344604 0.006489
v 0.128122 0.335066 0.029297
v 0.142556 0.325802 0.047101
v 0.165910 0.320349 0.053101
v 0.189264 0.320790 0.045005
v 0.203697 0.326957 0.025906
v 0.203697 0.336495 0.003098
v 0.189264 0.345759 -0.014706
v -0.124442 -0.054287 -0.010551
v -0.147763 -0.047626 -0.015335
v -0.162177 -0.028710 -0.022084
v -0.162177 -0.004762 -0.028220
v -0.147763 0.015070 -0.031398
v -0.124442 0.023210 -0.030406
v -0.101120 0.016550 -0.025622
v -0.086707 -0.002367 -0.018873
v -0.086707 -0.026315 -0.012737
v -0.101120 -0.046146 -0.009558
v -0.101898 -0.098053 -0.181373
v -0.125219 -0.091393 -0.186157
v -0.139633 -0.072476 -0.192906
v -0.139633 -0.048528 -0.199042
v -0.125219 -0.028697 -0.202220
v -0.101898 -0.020556 -0.201228
v -0.078576 -0.027217 -0.196444
v -0.064162 -0.046133 -0.189695
v -0.064162 -0.070081 -0.183559
v -0.078576 -0.089913 -0.180380
v -0.101898 -0.072721 -0.228983
v -0.125394 -0.070951 -0.221504
v -0.139915 -0.064733 -0.202489
v -0.139915 -0.056441 -0.179199
v -0.125394 -0.049243 -0.160532
v -0.101898 -0.045888 -0.153617
v -0.078401 -0.047658 -0.161096
v -0.063880 -0.053877 -0.180112
v -0.063880 -0.062169 -0.203401
v -0.078401 -0.069367 -0.222069
v -0.113213 0.225075 -0.335009
v -0.136710 0.226845 -0.327530
v -0.151231 0.233063 -0.308515
v -0.151231 0.241355 -0.285225
v -0.136710 0.248553 -0.266558
v -0.113213 0.251908 -0.259644
v -0.089717 0.250138 -0.267123
v -0.075195 0.243919 -0.286138
v -0.075195 0.235628 -0.309428
v -0.089717 0.228430 -0.328095
f 1 2 13
f 2 14 13
f 2 3 14
f 3 15 14
f 3 4 15
f 4 16 15
f 4 5 16
f 5 17 16
f 5 6 17
f 6 18 17
f 6 7 18
f 7 19 18
f 7 8 19
f 8 20 19
f 8 9 20
f 9 21 20
f 9 10 21
f 10 22 21
f 10 11 22
f 11 23 22
f 11 12 23
f 12 24 23
f 13 14 25
f 14 26 25
f 14 15 26
f 15 27 26
f 15 16 27
f 16 28 27
f 16 17 28
f 17 29 28
f 17 18 29
f 18 30 29
f 18 19 30
f 19 31 30
f 19 20 31
f 20 32 31
f 20 21 32
f 21 33 32
f 21 22 33
f 22 34 33
f 22 23 34
f 23 35 34
f 23 24 35
f 24 36 35
f 25 26 37
f 26 38 37
f 26 27 38
f 27 39 38
f 27 28 39
f 28 40 39
f 28 29 40
f 29 41 40
f 29 30 41
f 30 42 41
f 30 31 42
f 31 43 42
f 31 32 43
f 32 44 43
f 32 33 44
f 33 45 44
f 33 34 45
f 34 46 45
f 34 35 46
f 35 47 46
f 35 36 47
f 36 48 47
f 37 38 49
f 38 50 49
f 38 39 50
f 39 51 50
f 39 40 51
f 40 52 51
f 40 41 52
f 41 53 52
f 41 42 53
f 42 54 53
f 42 43 54
f 43 55 54
f 43 44 55
f 44 56 55
f 44 45 56
f 45 57 56
f 45 46 57
f 46 58 57
f 46 47 58
f 47 59 58
f 47 48 59
f 48 60 59
f 49 50 61
f 50 62 61
f 50 51 62
f 51 63 62
f 51 52 63
f 52 64 63
f 52 53 64
f 53 65 64
f 53 54 65
f 54 66 65
f 54 55 66
f 55 67 66
f 55 56 67
f 56 68 67
f 56 57 68
f 57 69 68
f 57 58 69
f 58 70 69
f 58 59 70
f 59 71 70
f 59 60 71
f 60 72 71
f 61 62 73
f 62 74 73
f 62 63 74
f 63 75 74
f 63 64 75
f 64 76 75
f 64 65 76
f 65 77 76
f 65 66 77
f 66 78 77
f 66 67 78
f 67 79 78
f 67 68 79
f 68 80 79
f 68 69 80
f 69 81 80
f 69 70 81
f 70 82 81
f 70 71 82
f 71 83 82
f 71 72 83
f 72 84 83
f 73 74 85
f 74 86 85
f 74 75 86
f 75 87 86
f 75 76 87
f 76 88 87
f 76 77 88
f 77 89 88
f 77 78 89
f 78 90 89
f 78 79 90
f 79 91 90
f 79 80 91
f 80 92 91
f 80 81 92
f 81 93 92
f 81 82 93
f 82 94 93
f 82 83 94
f 83 95 94
f 83 84 95
f 84 96 95
f 85 86 97
f 86 98 97
f 86 87 98
f 87 99 98
f 87 88 99
f 88 100 99
f 88 89 100
f 89 101 100
f 89 90 101
f 90 102 101
f 90 91 102
f 91 103 102
f 91 92 103
f 92 104 103
f 92 93 104
f 93 105 104
f 93 94 105
f 94 106 105
f 94 95 106
f 95 107 106
f 95 96 107
f 96 108 107
f 97 98 109
f 98 110 109
f 98 99 110
f 99 111 110
f 99 100 111
f 100 112 111
f 100 101 112
f 101 113 112
f 101 102 113
f 102 114 113
f 102 103 114
f 103 115 114
f 103 104 115
f 104 116 115
f 104 105 116
f 105 117 116
f 105 106 117
f 106 118 117
f 106 107 118
f 107 119 118
f 107 108 119
f 108 120 119
f 109 110 121
f 110 122 121
f 110 111 122
f 111 123 122
f 111 112 123
f 112 124 123
f 112 113 124
f 113 125 124
f 113 114 125
f 114 126 125
f 114 115 126
f 115 127 126
f 115 116 127
f 116 128 127
f 116 117 128
f 117 129 128
f 117 118 129
f 118 130 129
f 118 119 130
f 119 131 130
f 119 120 131
f 120 132 131
f 121 122 133
f 122 134 133
f 122 123 134
f 123 135 134
f 123 124 135
f 124 136 135
f 124 125 136
f 125 137 136
f 125 126 137
f 126 138 137
f 126 127 138
f 127 139 138
f 127 128 139
f 128 140 139
f 128 129 140
f 129 141 140
f 129 130 141
f 130 142 141
f 130 131 142
f 131 143 142
f 131 132 143
f 132 144 143
f 145 146 155
f 146 156 155
f 146 147 156
f 147 157 156
f 147 148 157
f 148 158 157
f 148 149 158
f 149 159 158
f 149 150 159
f 150 160 159
f 150 151 160
f 151 161 160
f 151 152 161
f 152 162 161
f 152 153 162
f 153 163 162
f 153 154 163
f 154 164 163
f 154 145 164
f 145 155 164
f 165 166 175
f 166 176 175
f 166 167 176
f 167 177 176
f 167 168 177
f 168 178 177
f 168 169 178
f 169 179 178
f 169 170 179
f 170 180 179
f 170 171 180
f 171 181 180
f 171 172 181
f 172 182 181
f 172 173 182
f 173 183 182
f 173 174 183
f 174 184 183
f 174 165 184
f 165 175 184
f 185 186 195
f 186 196 195
f 186 187 196
f 187 197 196
f 187 188 197
f 188 198 197
f 188 189 198
f 189 199 198
f 189 190 199
f 190 200 199
f 190 191 200
f 191 201 200
f 191 192 201
f 192 202 201
f 192 193 202
f 193 203 202
f 193 194 203
f 194 204 203
f 194 185 204
f 185 195 204
f 205 206 215
f 206 216 215
f 206 207 216
f 207 217 216
f 207 208 217
f 208 218 217
f 208 209 218
f 209 219 218
f 209 210 219
f 210 220 219
f 210 211 220
f 211 221 220
f 211 212 221
f 212 222 221
f 212 213 222
f 213 223 222
f 213 214 223
f 214 224 223
f 214 205 224
f 205 215 224
f 225 226 235
f 226 236 235
f 226 227 236
f 227 237 236
f 227 228 237
f 228 238 237
f 228 229 238
f 229 239 238
f 229 230 239
f 230 240 239
f 230 231 240
f 231 241 240
f 231 232 241
f 232 242 241
f 232 233 242
f 233 243 242
f 233 234 243
f 234 244 243
f 234 225 244
f 225 235 244
f 245 246 255
f 246 256 255
f 246 247 256
f 247 257 256
f 247 248 257
f 248 258 257
f 248 249 258
f 249 259 258
f 249 250 259
f 250 260 259
f 250 251 260
f 251 261 260
f 251 252 261
f 252 262 261
f 252 253 262
f 253 263 262
f 253 254 263
f 254 264 263
f 254 245 264
f 245 255 264
f 265 266 275
f 266 276 275
f 266 267 276
f 267 277 276
f 267 268 277
f 268 278 277
f 268 269 278
f 269 279 278
f 269 270 279
f 270 280 279
f 270 271 280
f 271 281 280
f 271 272 281
f 272 282 281
f 272 273 282
f 273 283 282
f 273 274 283
f 274 284 283
f 274 265 284
f 265 275 284
f 285 286 295
f 286 296 295
f 286 287 296
f 287 297 296
f 287 288 297
f 288 298 297
f 288 289 298
f 289 299 298
f 289 290 299
f 290 300 299
f 290 291 300
f 291 301 300
f 291 292 301
f 292 302 301
f 292 293 302
f 293 303 302
f 293 294 303
f 294 304 303
f 294 285 304
f 285 295 304
f 305 306 315
f 306 316 315
f 306 307 316
f 307 317 316
f 307 308 317
f 308 318 317
f 308 309 318
f 309 319 318
f 309 310 319
f 310 320 319
f 310 311 320
f 311 321 320
f 311 312 321
f 312 322 321
f 312 313 322
f 313 323 322
f 313 314 323
f 314 324 323
f 314 305 324
f 305 315 324
f 325 326 335
f 326 336 335
f 326 327 336
f 327 337 336
f 327 328 337
f 328 338 337
f 328 329 338
f 329 339 338
f 329 330 339
f 330 340 339
f 330 331 340
f 331 341 340
f 331 332 341
f 332 342 341
f 332 333 342
f 333 343 342
f 333 334 343
f 334 344 343
f 334 325 344
f 325 335 344
f 345 346 355
f 346 356 355
f 346 347 356
f 347 357 356
f 347 348 357
f 348 358 357
f 348 349 358
f 349 359 358
f 349 350 359
f 350 360 359
f 350 351 360
f 351 361 360
f 351 352 361
f 352 362 361
f 352 353 362
f 353 363 362
f 353 354 363
f 354 364 363
f 354 345 364
f 345 355 364
f 365 366 375
f 366 376 375
f 366 367 376
f 367 377 376
f 367 368 377
f 368 378 377
f 368 369 378
f 369 379 378
f 369 370 379
f 370 380 379
f 370 371 380
f 371 381 380
f 371 372 381
f 372 382 381
f 372 373 382
f 373 383 382
f 373 374 383
f 374 384 383
f 374 365 384
f 365 375 384
