# Full-Body 3D Mesh - Frame 117
v 0.029761 -0.624302 -0.090934
v 0.063569 -0.624302 -0.095795
v 0.094638 -0.624302 -0.109984
v 0.120451 -0.624302 -0.132351
v 0.138916 -0.624302 -0.161084
v 0.148539 -0.624302 -0.193856
v 0.148539 -0.624302 -0.228012
v 0.138916 -0.624302 -0.260784
v 0.120451 -0.624302 -0.289518
v 0.094638 -0.624302 -0.311885
v 0.063569 -0.624302 -0.326073
v 0.029761 -0.624302 -0.330934
v 0.029761 -0.624302 -0.090934
v 0.058202 -0.606024 -0.095795
v 0.084339 -0.589227 -0.109984
v 0.106054 -0.575271 -0.132351
v 0.121588 -0.565288 -0.161084
v 0.129684 -0.560085 -0.193856
v 0.129684 -0.560085 -0.228012
v 0.121588 -0.565288 -0.260784
v 0.106054 -0.575271 -0.289518
v 0.084339 -0.589227 -0.311885
v 0.058202 -0.606024 -0.326073
v 0.029761 -0.624302 -0.330934
v 0.029761 -0.624302 -0.090934
v 0.043805 -0.593549 -0.095795
v 0.056711 -0.565288 -0.109984
v 0.067435 -0.541807 -0.132351
v 0.075106 -0.525010 -0.161084
v 0.079103 -0.516257 -0.193856
v 0.079103 -0.516257 -0.228012
v 0.075106 -0.525010 -0.260784
v 0.067435 -0.541807 -0.289518
v 0.056711 -0.565288 -0.311885
v 0.043805 -0.593549 -0.326073
v 0.029761 -0.624302 -0.330934
v 0.029761 -0.624302 -0.090934
v 0.024949 -0.590838 -0.095795
v 0.020528 -0.560085 -0.109984
v 0.016854 -0.534535 -0.132351
v 0.014226 -0.516257 -0.161084
v 0.012857 -0.506732 -0.193856
v 0.012857 -0.506732 -0.228012
v 0.014226 -0.516257 -0.260784
v 0.016854 -0.534535 -0.289518
v 0.020528 -0.560085 -0.311885
v 0.024949 -0.590838 -0.326073
v 0.029761 -0.624302 -0.330934
v 0.029761 -0.624302 -0.090934
v 0.007621 -0.598752 -0.095795
v -0.012725 -0.575271 -0.109984
v -0.029629 -0.555763 -0.132351
v -0.041721 -0.541807 -0.161084
v -0.048023 -0.534535 -0.193856
v -0.048023 -0.534535 -0.228012
v -0.041721 -0.541807 -0.260784
v -0.029629 -0.555763 -0.289518
v -0.012725 -0.575271 -0.311885
v 0.007621 -0.598752 -0.326073
v 0.029761 -0.624302 -0.330934
v 0.029761 -0.624302 -0.090934
v -0.002678 -0.614777 -0.095795
v -0.032488 -0.606024 -0.109984
v -0.057256 -0.598752 -0.132351
v -0.074974 -0.593549 -0.161084
v -0.084207 -0.590838 -0.193856
v -0.084207 -0.590838 -0.228012
v -0.074974 -0.593549 -0.260784
v -0.057256 -0.598752 -0.289518
v -0.032488 -0.606024 -0.311885
v -0.002678 -0.614777 -0.326073
v 0.029761 -0.624302 -0.330934
v 0.029761 -0.624302 -0.090934
v -0.002678 -0.633827 -0.095795
v -0.032488 -0.642580 -0.109984
v -0.057256 -0.649852 -0.132351
v -0.074974 -0.655055 -0.161084
v -0.084207 -0.657766 -0.193856
v -0.084207 -0.657766 -0.228012
v -0.074974 -0.655055 -0.260784
v -0.057256 -0.649852 -0.289518
v -0.032488 -0.642580 -0.311885
v -0.002678 -0.633827 -0.326073
v 0.029761 -0.624302 -0.330934
v 0.029761 -0.624302 -0.090934
v 0.007621 -0.649852 -0.095795
v -0.012725 -0.673333 -0.109984
v -0.029629 -0.692841 -0.132351
v -0.041721 -0.706796 -0.161084
v -0.048023 -0.714069 -0.193856
v -0.048023 -0.714069 -0.228012
v -0.041721 -0.706796 -0.260784
v -0.029629 -0.692841 -0.289518
v -0.012725 -0.673333 -0.311885
v 0.007621 -0.649852 -0.326073
v 0.029761 -0.624302 -0.330934
v 0.029761 -0.624302 -0.090934
v 0.024949 -0.657766 -0.095795
v 0.020528 -0.688519 -0.109984
v 0.016854 -0.714069 -0.132351
v 0.014226 -0.732347 -0.161084
v 0.012857 -0.741872 -0.193856
v 0.012857 -0.741872 -0.228012
v 0.014226 -0.732347 -0.260784
v 0.016854 -0.714069 -0.289518
v 0.020528 -0.688519 -0.311885
v 0.024949 -0.657766 -0.326073
v 0.029761 -0.624302 -0.330934
v 0.029761 -0.624302 -0.090934
v 0.043805 -0.655055 -0.095795
v 0.056711 -0.683316 -0.109984
v 0.067435 -0.706796 -0.132351
v 0.075106 -0.723594 -0.161084
v 0.079103 -0.732347 -0.193856
v 0.079103 -0.732347 -0.228012
v 0.075106 -0.723594 -0.260784
v 0.067435 -0.706796 -0.289518
v 0.056711 -0.683316 -0.311885
v 0.043805 -0.655055 -0.326073
v 0.029761 -0.624302 -0.330934
v 0.029761 -0.624302 -0.090934
v 0.058202 -0.642580 -0.095795
v 0.084339 -0.659377 -0.109984
v 0.106054 -0.673333 -0.132351
v 0.121588 -0.683316 -0.161084
v 0.129684 -0.688519 -0.193856
v 0.129684 -0.688519 -0.228012
v 0.121588 -0.683316 -0.260784
v 0.106054 -0.673333 -0.289518
v 0.084339 -0.659377 -0.311885
v 0.058202 -0.642580 -0.326073
v 0.029761 -0.624302 -0.330934
v 0.029761 -0.624302 -0.090934
v 0.063569 -0.624302 -0.095795
v 0.094638 -0.624302 -0.109984
v 0.120451 -0.624302 -0.132351
v 0.138916 -0.624302 -0.161084
v 0.148539 -0.624302 -0.193856
v 0.148539 -0.624302 -0.228012
v 0.138916 -0.624302 -0.260784
v 0.120451 -0.624302 -0.289518
v 0.094638 -0.624302 -0.311885
v 0.063569 -0.624302 -0.326073
v 0.029761 -0.624302 -0.330934
v 0.188121 -0.437905 -0.084717
v 0.189277 -0.461361 -0.076996
v 0.189089 -0.475858 -0.056972
v 0.187628 -0.475858 -0.032294
v 0.185453 -0.461361 -0.012388
v 0.183395 -0.437905 -0.004857
v 0.182239 -0.414448 -0.012578
v 0.182427 -0.399952 -0.032602
v 0.183888 -0.399952 -0.057280
v 0.186063 -0.414448 -0.077186
v -0.141107 -0.460541 -0.104203
v -0.139952 -0.483997 -0.096482
v -0.140140 -0.498494 -0.076458
v -0.141601 -0.498494 -0.051780
v -0.143775 -0.483997 -0.031874
v -0.145834 -0.460541 -0.024343
v -0.146990 -0.437085 -0.032064
v -0.146801 -0.422588 -0.052088
v -0.145341 -0.422588 -0.076766
v -0.143166 -0.437085 -0.096672
v 0.185758 -0.439299 -0.084763
v 0.162719 -0.434347 -0.077292
v 0.148480 -0.430754 -0.057405
v 0.148480 -0.429892 -0.032698
v 0.162719 -0.432091 -0.012610
v 0.185758 -0.436510 -0.004811
v 0.208797 -0.441462 -0.012283
v 0.223036 -0.445055 -0.032170
v 0.223036 -0.445917 -0.056876
v 0.208797 -0.443719 -0.076965
v 0.231952 -0.212444 -0.092676
v 0.208913 -0.207492 -0.085205
v 0.194674 -0.203899 -0.065318
v 0.194674 -0.203037 -0.040611
v 0.208913 -0.205236 -0.020523
v 0.231952 -0.209655 -0.012725
v 0.254991 -0.214608 -0.020196
v 0.269230 -0.218201 -0.040083
v 0.269230 -0.219062 -0.064789
v 0.254991 -0.216864 -0.084878
v 0.231952 -0.221230 -0.091383
v 0.208469 -0.218170 -0.084289
v 0.193956 -0.212392 -0.065129
v 0.193956 -0.206100 -0.041221
v 0.208469 -0.201699 -0.021698
v 0.231952 -0.200870 -0.014017
v 0.255435 -0.203929 -0.021112
v 0.269949 -0.209708 -0.040272
v 0.269949 -0.216000 -0.064179
v 0.255435 -0.220400 -0.083702
v 0.240249 -0.057806 -0.134389
v 0.216766 -0.054747 -0.127295
v 0.202252 -0.048968 -0.108135
v 0.202252 -0.042677 -0.084227
v 0.216766 -0.038276 -0.064704
v 0.240249 -0.037447 -0.057023
v 0.263732 -0.040506 -0.064117
v 0.278245 -0.046285 -0.083278
v 0.278245 -0.052576 -0.107185
v 0.263732 -0.056977 -0.126708
v -0.143471 -0.499015 -0.075215
v -0.158461 -0.496622 -0.055704
v -0.167726 -0.480448 -0.039465
v -0.167726 -0.456669 -0.032702
v -0.158461 -0.434370 -0.037998
v -0.143471 -0.422067 -0.053330
v -0.128480 -0.424460 -0.072842
v -0.119215 -0.440635 -0.089081
v -0.119215 -0.464413 -0.095843
v -0.128480 -0.486713 -0.090547
v -0.369297 -0.447888 -0.254985
v -0.384287 -0.445495 -0.235473
v -0.393552 -0.429320 -0.219235
v -0.393552 -0.405541 -0.212472
v -0.384287 -0.383242 -0.217768
v -0.369297 -0.370939 -0.233100
v -0.354306 -0.373332 -0.252612
v -0.345041 -0.389507 -0.268850
v -0.345041 -0.413285 -0.275613
v -0.354306 -0.435585 -0.270317
v -0.369297 -0.440193 -0.218496
v -0.387277 -0.443989 -0.235032
v -0.398390 -0.434579 -0.255009
v -0.398390 -0.415556 -0.270797
v -0.387277 -0.394187 -0.276366
v -0.369297 -0.378634 -0.269589
v -0.351316 -0.374837 -0.253053
v -0.340203 -0.384248 -0.233076
v -0.340203 -0.403271 -0.217287
v -0.351316 -0.424640 -0.211718
v -0.185025 -0.579882 -0.386801
v -0.203006 -0.583679 -0.403337
v -0.214118 -0.574268 -0.423314
v -0.214118 -0.555245 -0.439103
v -0.203006 -0.533876 -0.444672
v -0.185025 -0.518323 -0.437894
v -0.167044 -0.514527 -0.421358
v -0.155932 -0.523937 -0.401381
v -0.155932 -0.542960 -0.385592
v -0.167044 -0.564329 -0.380023
v 0.185758 -0.433927 -0.084589
v 0.162455 -0.437797 -0.077298
v 0.148054 -0.441708 -0.057589
v 0.148054 -0.444166 -0.032991
v 0.162455 -0.444233 -0.012898
v 0.185758 -0.441882 -0.004985
v 0.209061 -0.438013 -0.012276
v 0.223463 -0.434102 -0.031985
v 0.223463 -0.431643 -0.056584
v 0.209061 -0.431577 -0.076677
v 0.125339 0.014291 -0.039797
v 0.102036 0.010421 -0.032506
v 0.087635 0.006510 -0.012797
v 0.087635 0.004052 0.011802
v 0.102036 0.003985 0.031895
v 0.125339 0.006336 0.039807
v 0.148642 0.010206 0.032516
v 0.163044 0.014117 0.012808
v 0.163044 0.016575 -0.011791
v 0.148642 0.016641 -0.031884
v -0.143471 -0.454415 -0.103801
v -0.166960 -0.454582 -0.096096
v -0.181477 -0.457025 -0.076236
v -0.181477 -0.460811 -0.051806
v -0.166960 -0.464494 -0.032138
v -0.143471 -0.466667 -0.024745
v -0.119981 -0.466500 -0.032449
v -0.105464 -0.464057 -0.052310
v -0.105464 -0.460271 -0.076739
v -0.119981 -0.456588 -0.096407
v -0.124326 -0.016634 -0.035955
v -0.147816 -0.016801 -0.028251
v -0.162333 -0.019244 -0.008391
v -0.162333 -0.023030 0.016039
v -0.147816 -0.026713 0.035707
v -0.124326 -0.028886 0.043101
v -0.100837 -0.028719 0.035396
v -0.086320 -0.026276 0.015536
v -0.086320 -0.022490 -0.008894
v -0.100837 -0.018807 -0.028562
v 0.124768 0.010313 -0.039991
v 0.127964 -0.012994 -0.032396
v 0.130157 -0.027399 -0.012426
v 0.130511 -0.027399 0.012293
v 0.128889 -0.012994 0.032319
v 0.125911 0.010313 0.040001
v 0.122715 0.033621 0.032407
v 0.120521 0.048026 0.012436
v 0.120168 0.048026 -0.012283
v 0.121790 0.033621 -0.032308
v -0.124898 -0.022760 -0.036423
v -0.121702 -0.046068 -0.028829
v -0.119508 -0.060473 -0.008858
v -0.119155 -0.060473 0.015861
v -0.120777 -0.046068 0.035886
v -0.123755 -0.022760 0.043569
v -0.126951 0.000548 0.035974
v -0.129145 0.014953 0.016004
v -0.129498 0.014953 -0.008715
v -0.127876 0.000548 -0.028740
v 0.125339 0.001754 -0.039068
v 0.102164 -0.000481 -0.030758
v 0.087841 0.001407 -0.010698
v 0.087841 0.006697 0.013451
v 0.102164 0.013368 0.032464
v 0.125339 0.018872 0.039079
v 0.148514 0.021108 0.030769
v 0.162837 0.019220 0.010708
v 0.162837 0.013930 -0.013441
v 0.148514 0.007259 -0.032454
v 0.095107 0.174514 -0.076911
v 0.071931 0.172278 -0.068601
v 0.057608 0.174166 -0.048540
v 0.057608 0.179456 -0.024391
v 0.071931 0.186127 -0.005378
v 0.095107 0.191632 0.001237
v 0.118282 0.193867 -0.007074
v 0.132605 0.191979 -0.027134
v 0.132605 0.186689 -0.051283
v 0.118282 0.180018 -0.070296
v 0.095107 0.198339 -0.074809
v 0.071774 0.198099 -0.066643
v 0.057354 0.192119 -0.047475
v 0.057354 0.182684 -0.024624
v 0.071774 0.173397 -0.006821
v 0.095107 0.167806 -0.000865
v 0.118439 0.168046 -0.009031
v 0.132859 0.174026 -0.028200
v 0.132859 0.183461 -0.051050
v 0.118439 0.192748 -0.068853
v 0.139087 0.526010 0.060492
v 0.115754 0.525770 0.068657
v 0.101334 0.519790 0.087826
v 0.101334 0.510355 0.110676
v 0.115754 0.501069 0.128479
v 0.139087 0.495477 0.134436
v 0.162419 0.495717 0.126270
v 0.176840 0.501697 0.107101
v 0.176840 0.511132 0.084251
v 0.162419 0.520419 0.066448
v -0.124326 -0.062395 -0.001818
v -0.147837 -0.054848 -0.000621
v -0.162368 -0.035045 0.002178
v -0.162368 -0.010549 0.005510
v -0.147837 0.009282 0.008102
v -0.124326 0.016875 0.008964
v -0.100816 0.009328 0.007767
v -0.086285 -0.010475 0.004968
v -0.086285 -0.034971 0.001636
v -0.100816 -0.054803 -0.000956
v -0.125722 -0.036246 -0.194060
v -0.149233 -0.028699 -0.192863
v -0.163763 -0.008896 -0.190064
v -0.163763 0.015600 -0.186732
v -0.149233 0.035432 -0.184139
v -0.125722 0.043024 -0.183277
v -0.102211 0.035477 -0.184475
v -0.087680 0.015674 -0.187274
v -0.087680 -0.008822 -0.190606
v -0.102211 -0.028654 -0.193198
v -0.125722 -0.006084 -0.227531
v -0.148925 -0.000589 -0.221007
v -0.163266 0.006424 -0.202131
v -0.163266 0.012279 -0.178113
v -0.148925 0.014738 -0.158127
v -0.125722 0.012861 -0.149806
v -0.102518 0.007367 -0.156330
v -0.088178 0.000353 -0.175206
v -0.088178 -0.005501 -0.199224
v -0.102518 -0.007960 -0.219211
v -0.078432 0.274972 -0.296037
v -0.101636 0.280466 -0.289513
v -0.115976 0.287480 -0.270638
v -0.115976 0.293334 -0.246619
v -0.101636 0.295793 -0.226633
v -0.078432 0.293917 -0.218313
v -0.055229 0.288422 -0.224837
v -0.040888 0.281409 -0.243713
v -0.040888 0.275554 -0.267731
v -0.055229 0.273096 -0.287717
v -0.043911 0.091039 -0.001936
v -0.046432 0.082636 -0.004932
v -0.047700 0.077443 -0.012506
v -0.047230 0.077443 -0.021765
v -0.045203 0.082636 -0.029172
v -0.042391 0.091039 -0.031898
v -0.039870 0.099442 -0.028901
v -0.038602 0.104635 -0.021327
v -0.039072 0.104635 -0.012069
v -0.041100 0.099442 -0.004662
v -0.004335 0.078450 0.000071
v -0.006856 0.070047 -0.002925
v -0.008124 0.064854 -0.010499
v -0.007654 0.064854 -0.019758
v -0.005627 0.070047 -0.027165
v -0.002815 0.078450 -0.029891
v -0.000294 0.086853 -0.026894
v 0.000973 0.092046 -0.019320
v 0.000504 0.092046 -0.010062
v -0.001524 0.086853 -0.002655
v -0.003575 0.072018 -0.001359
v -0.009347 0.067225 -0.006805
v -0.012914 0.066719 -0.015347
v -0.012914 0.070695 -0.023722
v -0.009347 0.077632 -0.028731
v -0.003575 0.084882 -0.028461
v 0.002196 0.089675 -0.023015
v 0.005763 0.090180 -0.014473
v 0.005763 0.086205 -0.006098
v 0.002196 0.079267 -0.001089
v 0.021103 0.052713 -0.010522
v 0.015332 0.047920 -0.015969
v 0.011765 0.047415 -0.024511
v 0.011765 0.051390 -0.032885
v 0.015332 0.058328 -0.037894
v 0.021103 0.065578 -0.037624
v 0.026875 0.070370 -0.032178
v 0.030442 0.070876 -0.023636
v 0.030442 0.066900 -0.015261
v 0.026875 0.059963 -0.010252
v 0.021103 0.052483 -0.010634
v 0.012738 0.051260 -0.014438
v 0.007568 0.053048 -0.021922
v 0.007568 0.057166 -0.030228
v 0.012738 0.062039 -0.036183
v 0.021103 0.065807 -0.037513
v 0.029468 0.067031 -0.033709
v 0.034638 0.065242 -0.026224
v 0.034638 0.061125 -0.017919
v 0.029468 0.056251 -0.011963
v 0.031697 0.023980 -0.024764
v 0.023332 0.022756 -0.028567
v 0.018162 0.024545 -0.036052
v 0.018162 0.028662 -0.044358
v 0.023332 0.033536 -0.050313
v 0.031697 0.037304 -0.051642
v 0.040062 0.038527 -0.047838
v 0.045232 0.036739 -0.040354
v 0.045232 0.032621 -0.032048
v 0.040062 0.027748 -0.026093
v 0.031697 0.024975 -0.024315
v 0.022990 0.027340 -0.026444
v 0.017608 0.030966 -0.033064
v 0.017608 0.034468 -0.041648
v 0.022990 0.036509 -0.048915
v 0.031697 0.036309 -0.052091
v 0.040404 0.033944 -0.049962
v 0.045785 0.030318 -0.043341
v 0.045785 0.026815 -0.034758
v 0.040404 0.024775 -0.027490
v 0.026741 -0.003865 -0.036082
v 0.018034 -0.001500 -0.038211
v 0.012653 0.002126 -0.044832
v 0.012653 0.005628 -0.053416
v 0.018034 0.007669 -0.060683
v 0.026741 0.007469 -0.063859
v 0.035449 0.005104 -0.061730
v 0.040830 0.001478 -0.055109
v 0.040830 -0.002025 -0.046526
v 0.035449 -0.004066 -0.039258
v -0.043151 0.095881 -0.002720
v -0.050167 0.089903 -0.003708
v -0.054503 0.084358 -0.009741
v -0.054503 0.081366 -0.018515
v -0.050167 0.082068 -0.026678
v -0.043151 0.086196 -0.031114
v -0.036135 0.092175 -0.030126
v -0.031799 0.097719 -0.024093
v -0.031799 0.100712 -0.015319
v -0.036135 0.100010 -0.007155
v 0.023086 0.013505 0.025379
v 0.016070 0.007526 0.024391
v 0.011734 0.001982 0.018358
v 0.011734 -0.001011 0.009584
v 0.016070 -0.000309 0.001420
v 0.023086 0.003820 -0.003015
v 0.030102 0.009798 -0.002027
v 0.034439 0.015343 0.004006
v 0.034439 0.018335 0.012780
v 0.030102 0.017633 0.020944
v 0.023086 0.004913 0.025706
v 0.015082 0.002050 0.022008
v 0.010135 0.001712 0.014175
v 0.010135 0.004029 0.005199
v 0.015082 0.008116 -0.001492
v 0.023086 0.012411 -0.003342
v 0.031091 0.015275 0.000356
v 0.036038 0.015612 0.008189
v 0.036038 0.013295 0.017165
v 0.031091 0.009209 0.023856
v 0.035706 -0.021546 0.018876
v 0.027702 -0.024409 0.015178
v 0.022755 -0.024747 0.007345
v 0.022755 -0.022430 -0.001631
v 0.027702 -0.018343 -0.008322
v 0.035706 -0.014048 -0.010172
v 0.043711 -0.011184 -0.006474
v 0.048658 -0.010847 0.001359
v 0.048658 -0.013164 0.010335
v 0.043711 -0.017250 0.017026
v 0.035706 -0.022562 0.018575
v 0.027378 -0.024396 0.014939
v 0.022231 -0.023710 0.007260
v 0.022231 -0.020765 -0.001531
v 0.027378 -0.016686 -0.008074
v 0.035706 -0.013032 -0.009871
v 0.044035 -0.011197 -0.006235
v 0.049182 -0.011884 0.001445
v 0.049182 -0.014829 0.010235
v 0.044035 -0.018907 0.016778
v 0.042766 -0.041823 0.012122
v 0.034438 -0.043658 0.008486
v 0.029291 -0.042971 0.000806
v 0.029291 -0.040026 -0.007984
v 0.034438 -0.035947 -0.014527
v 0.042766 -0.032293 -0.016324
v 0.051094 -0.030458 -0.012688
v 0.056242 -0.031145 -0.005008
v 0.056242 -0.034090 0.003782
v 0.051094 -0.038169 0.010325
v 0.042766 -0.047706 0.008464
v 0.034100 -0.046814 0.005296
v 0.028744 -0.042196 -0.000698
v 0.028744 -0.035615 -0.007228
v 0.034100 -0.029586 -0.011799
v 0.042766 -0.026410 -0.012666
v 0.051433 -0.027302 -0.009498
v 0.056789 -0.031920 -0.003504
v 0.056789 -0.038501 0.003026
v 0.051433 -0.044530 0.007597
v 0.047968 -0.067291 -0.011273
v 0.039301 -0.066399 -0.014442
v 0.033945 -0.061781 -0.020436
v 0.033945 -0.055200 -0.026966
v 0.039301 -0.049171 -0.031537
v 0.047968 -0.045995 -0.032404
v 0.056634 -0.046887 -0.029235
v 0.061990 -0.051505 -0.023241
v 0.061990 -0.058086 -0.016712
v 0.056634 -0.064115 -0.012140
v -0.043151 0.094872 -0.002415
v -0.051178 0.090613 -0.004252
v -0.056139 0.086518 -0.010927
v -0.056139 0.084149 -0.019890
v -0.051178 0.084412 -0.027717
v -0.043151 0.087206 -0.031419
v -0.035124 0.091464 -0.029581
v -0.030163 0.095560 -0.022906
v -0.030163 0.097929 -0.013943
v -0.035124 0.097666 -0.006116
v 0.001602 -0.000347 0.022752
v -0.006425 -0.004605 0.020914
v -0.011386 -0.008701 0.014239
v -0.011386 -0.011070 0.005277
v -0.006425 -0.010807 -0.002550
v 0.001602 -0.008013 -0.006252
v 0.009629 -0.003755 -0.004414
v 0.014589 0.000341 0.002261
v 0.014589 0.002710 0.011223
v 0.009629 0.002447 0.019050
v 0.001602 -0.006791 0.023021
v -0.006114 -0.010495 0.019457
v -0.010882 -0.011786 0.011613
v -0.010882 -0.010172 0.002484
v -0.006114 -0.006269 -0.004443
v 0.001602 -0.001569 -0.006521
v 0.009317 0.002135 -0.002957
v 0.014085 0.003426 0.004888
v 0.014085 0.001812 0.014017
v 0.009317 -0.002091 0.020943
v 0.020541 -0.040512 0.017059
v 0.012826 -0.044216 0.013495
v 0.008057 -0.045507 0.005651
v 0.008057 -0.043893 -0.003478
v 0.012826 -0.039990 -0.010404
v 0.020541 -0.035289 -0.012483
v 0.028256 -0.031586 -0.008919
v 0.033025 -0.030295 -0.001074
v 0.033025 -0.031909 0.008055
v 0.028256 -0.035812 0.014981
v 0.020541 -0.044505 0.015757
v 0.012180 -0.045757 0.011952
v 0.007013 -0.044008 0.004456
v 0.007013 -0.039927 -0.003868
v 0.012180 -0.035072 -0.009840
v 0.020541 -0.031297 -0.011180
v 0.028902 -0.030045 -0.007375
v 0.034069 -0.031793 0.000121
v 0.034069 -0.035875 0.008444
v 0.028902 -0.040730 0.014417
v 0.028331 -0.065396 0.005513
v 0.019971 -0.066648 0.001709
v 0.014804 -0.064900 -0.005787
v 0.014804 -0.060818 -0.014111
v 0.019971 -0.055963 -0.020083
v 0.028331 -0.052188 -0.021423
v 0.036692 -0.050936 -0.017619
v 0.041859 -0.052685 -0.010123
v 0.041859 -0.056766 -0.001799
v 0.036692 -0.061621 0.004173
v 0.028331 -0.065830 0.005292
v 0.020393 -0.067873 0.000962
v 0.015486 -0.066447 -0.006773
v 0.015486 -0.062098 -0.014960
v 0.020393 -0.056486 -0.020471
v 0.028331 -0.051755 -0.021202
v 0.036270 -0.049712 -0.016872
v 0.041177 -0.051137 -0.009137
v 0.041177 -0.055486 -0.000950
v 0.036270 -0.061099 0.004561
v 0.040458 -0.087997 -0.006485
v 0.032520 -0.090040 -0.010814
v 0.027613 -0.088615 -0.018550
v 0.027613 -0.084265 -0.026737
v 0.032520 -0.078653 -0.032248
v 0.040458 -0.073922 -0.032978
v 0.048397 -0.071879 -0.028649
v 0.053304 -0.073304 -0.020914
v 0.053304 -0.077654 -0.012727
v 0.048397 -0.083266 -0.007215
v -0.043151 0.092512 -0.001989
v -0.051660 0.089931 -0.004613
v -0.056918 0.087774 -0.011937
v -0.056918 0.086863 -0.021163
v -0.051660 0.087548 -0.028766
v -0.043151 0.089566 -0.031844
v -0.034642 0.092146 -0.029220
v -0.029384 0.094304 -0.021897
v -0.029384 0.095214 -0.012671
v -0.034642 0.094530 -0.005067
v -0.015930 -0.007252 0.007856
v -0.024439 -0.009832 0.005232
v -0.029698 -0.011990 -0.002092
v -0.029698 -0.012900 -0.011318
v -0.024439 -0.012216 -0.018922
v -0.015930 -0.010198 -0.021999
v -0.007422 -0.007617 -0.019375
v -0.002163 -0.005460 -0.012052
v -0.002163 -0.004549 -0.002826
v -0.007422 -0.005234 0.004778
v -0.015930 -0.010195 0.007856
v -0.023368 -0.014627 0.004541
v -0.027964 -0.016804 -0.003210
v -0.027964 -0.015896 -0.012436
v -0.023368 -0.012248 -0.019613
v -0.015930 -0.007255 -0.022000
v -0.008493 -0.002823 -0.018685
v -0.003897 -0.000645 -0.010934
v -0.003897 -0.001554 -0.001708
v -0.008493 -0.005201 0.005469
v 0.001318 -0.037154 0.005201
v -0.006119 -0.041586 0.001886
v -0.010716 -0.043763 -0.005864
v -0.010716 -0.042855 -0.015090
v -0.006119 -0.039208 -0.022267
v 0.001318 -0.034214 -0.024654
v 0.008755 -0.029782 -0.021339
v 0.013352 -0.027605 -0.013589
v 0.013352 -0.028513 -0.004363
v 0.008755 -0.032161 0.002814
v 0.001318 -0.040999 0.004300
v -0.006426 -0.043926 0.000128
v -0.011212 -0.043704 -0.007809
v -0.011212 -0.040419 -0.016478
v -0.006426 -0.035326 -0.022568
v 0.001318 -0.030369 -0.023753
v 0.009062 -0.027442 -0.019581
v 0.013848 -0.027664 -0.011644
v 0.013848 -0.030949 -0.002975
v 0.009062 -0.036042 0.003115
v 0.013179 -0.061377 -0.003421
v 0.005435 -0.064303 -0.007594
v 0.000649 -0.064082 -0.015530
v 0.000649 -0.060797 -0.024199
v 0.005435 -0.055703 -0.030289
v 0.013179 -0.050746 -0.031475
v 0.020923 -0.047820 -0.027302
v 0.025709 -0.048041 -0.019366
v 0.025709 -0.051326 -0.010697
v 0.020923 -0.056420 -0.004606
v 0.013179 -0.062822 -0.004058
v 0.006082 -0.066200 -0.008972
v 0.001695 -0.065705 -0.017124
v 0.001695 -0.061527 -0.025400
v 0.006082 -0.055262 -0.030638
v 0.013179 -0.049301 -0.030838
v 0.020277 -0.045923 -0.025924
v 0.024664 -0.046418 -0.017772
v 0.024664 -0.050596 -0.009496
v 0.020277 -0.056861 -0.004258
v 0.027365 -0.080007 -0.012734
v 0.020268 -0.083385 -0.017648
v 0.015881 -0.082890 -0.025800
v 0.015881 -0.078712 -0.034076
v 0.020268 -0.072447 -0.039314
v 0.027365 -0.066486 -0.039514
v 0.034463 -0.063108 -0.034600
v 0.038850 -0.063603 -0.026448
v 0.038850 -0.067781 -0.018172
v 0.034463 -0.074047 -0.012934
v -0.043151 0.090378 -0.001931
v -0.051926 0.089648 -0.004831
v -0.057349 0.089449 -0.012347
v -0.057349 0.089857 -0.021609
v -0.051926 0.090717 -0.029078
v -0.043151 0.091700 -0.031902
v -0.034376 0.092430 -0.029002
v -0.028953 0.092629 -0.021486
v -0.028953 0.092220 -0.012225
v -0.034376 0.091361 -0.004756
v -0.034279 -0.000337 -0.005933
v -0.043054 -0.001067 -0.008833
v -0.048478 -0.001266 -0.016349
v -0.048478 -0.000857 -0.025610
v -0.043054 0.000002 -0.033080
v -0.034279 0.000985 -0.035904
v -0.025504 0.001715 -0.033004
v -0.020081 0.001914 -0.025488
v -0.020081 0.001506 -0.016227
v -0.025504 0.000646 -0.008757
v -0.034279 0.000239 -0.005919
v -0.042383 -0.003218 -0.008803
v -0.047391 -0.005322 -0.016315
v -0.047391 -0.005270 -0.025585
v -0.042383 -0.003081 -0.033073
v -0.034279 0.000409 -0.035918
v -0.026176 0.003866 -0.033034
v -0.021167 0.005971 -0.025522
v -0.021167 0.005918 -0.016252
v -0.026176 0.003729 -0.008764
v -0.024309 -0.023021 -0.006050
v -0.032412 -0.026478 -0.008934
v -0.037421 -0.028582 -0.016446
v -0.037421 -0.028530 -0.025717
v -0.032412 -0.026341 -0.033205
v -0.024309 -0.022851 -0.036050
v -0.016205 -0.019394 -0.033165
v -0.011197 -0.017289 -0.025653
v -0.011197 -0.017342 -0.016383
v -0.016205 -0.019531 -0.008895
v -0.024309 -0.024028 -0.006090
v -0.032234 -0.027673 -0.009228
v -0.037132 -0.029509 -0.016882
v -0.037132 -0.028834 -0.026128
v -0.032234 -0.025906 -0.033434
v -0.024309 -0.021843 -0.036010
v -0.016384 -0.018198 -0.032872
v -0.011486 -0.016363 -0.025218
v -0.011486 -0.017038 -0.015972
v -0.016384 -0.019966 -0.008665
v -0.013586 -0.045963 -0.007691
v -0.021511 -0.049608 -0.010830
v -0.026408 -0.051444 -0.018484
v -0.026408 -0.050769 -0.027730
v -0.021511 -0.047841 -0.035036
v -0.013586 -0.043778 -0.037612
v -0.005661 -0.040133 -0.034473
v -0.000763 -0.038298 -0.026819
v -0.000763 -0.038973 -0.017573
v -0.005661 -0.041901 -0.010267
v -0.013586 -0.052693 -0.009852
v -0.020847 -0.055466 -0.014904
v -0.025335 -0.054192 -0.022916
v -0.025335 -0.049358 -0.030826
v -0.020847 -0.042810 -0.035614
v -0.013586 -0.037049 -0.035451
v -0.006324 -0.034276 -0.030398
v -0.001836 -0.035549 -0.022387
v -0.001836 -0.040384 -0.014477
v -0.006324 -0.046932 -0.009689
v -0.001386 -0.067808 -0.019090
v -0.008648 -0.070581 -0.024142
v -0.013135 -0.069307 -0.032153
v -0.013135 -0.064473 -0.040063
v -0.008648 -0.057925 -0.044851
v -0.001386 -0.052164 -0.044688
v 0.005875 -0.049391 -0.039636
v 0.010363 -0.050664 -0.031625
v 0.010363 -0.055499 -0.023714
v 0.005875 -0.062047 -0.018926
f 1 2 13
f 2 14 13
f 2 3 14
f 3 15 14
f 3 4 15
f 4 16 15
f 4 5 16
f 5 17 16
f 5 6 17
f 6 18 17
f 6 7 18
f 7 19 18
f 7 8 19
f 8 20 19
f 8 9 20
f 9 21 20
f 9 10 21
f 10 22 21
f 10 11 22
f 11 23 22
f 11 12 23
f 12 24 23
f 13 14 25
f 14 26 25
f 14 15 26
f 15 27 26
f 15 16 27
f 16 28 27
f 16 17 28
f 17 29 28
f 17 18 29
f 18 30 29
f 18 19 30
f 19 31 30
f 19 20 31
f 20 32 31
f 20 21 32
f 21 33 32
f 21 22 33
f 22 34 33
f 22 23 34
f 23 35 34
f 23 24 35
f 24 36 35
f 25 26 37
f 26 38 37
f 26 27 38
f 27 39 38
f 27 28 39
f 28 40 39
f 28 29 40
f 29 41 40
f 29 30 41
f 30 42 41
f 30 31 42
f 31 43 42
f 31 32 43
f 32 44 43
f 32 33 44
f 33 45 44
f 33 34 45
f 34 46 45
f 34 35 46
f 35 47 46
f 35 36 47
f 36 48 47
f 37 38 49
f 38 50 49
f 38 39 50
f 39 51 50
f 39 40 51
f 40 52 51
f 40 41 52
f 41 53 52
f 41 42 53
f 42 54 53
f 42 43 54
f 43 55 54
f 43 44 55
f 44 56 55
f 44 45 56
f 45 57 56
f 45 46 57
f 46 58 57
f 46 47 58
f 47 59 58
f 47 48 59
f 48 60 59
f 49 50 61
f 50 62 61
f 50 51 62
f 51 63 62
f 51 52 63
f 52 64 63
f 52 53 64
f 53 65 64
f 53 54 65
f 54 66 65
f 54 55 66
f 55 67 66
f 55 56 67
f 56 68 67
f 56 57 68
f 57 69 68
f 57 58 69
f 58 70 69
f 58 59 70
f 59 71 70
f 59 60 71
f 60 72 71
f 61 62 73
f 62 74 73
f 62 63 74
f 63 75 74
f 63 64 75
f 64 76 75
f 64 65 76
f 65 77 76
f 65 66 77
f 66 78 77
f 66 67 78
f 67 79 78
f 67 68 79
f 68 80 79
f 68 69 80
f 69 81 80
f 69 70 81
f 70 82 81
f 70 71 82
f 71 83 82
f 71 72 83
f 72 84 83
f 73 74 85
f 74 86 85
f 74 75 86
f 75 87 86
f 75 76 87
f 76 88 87
f 76 77 88
f 77 89 88
f 77 78 89
f 78 90 89
f 78 79 90
f 79 91 90
f 79 80 91
f 80 92 91
f 80 81 92
f 81 93 92
f 81 82 93
f 82 94 93
f 82 83 94
f 83 95 94
f 83 84 95
f 84 96 95
f 85 86 97
f 86 98 97
f 86 87 98
f 87 99 98
f 87 88 99
f 88 100 99
f 88 89 100
f 89 101 100
f 89 90 101
f 90 102 101
f 90 91 102
f 91 103 102
f 91 92 103
f 92 104 103
f 92 93 104
f 93 105 104
f 93 94 105
f 94 106 105
f 94 95 106
f 95 107 106
f 95 96 107
f 96 108 107
f 97 98 109
f 98 110 109
f 98 99 110
f 99 111 110
f 99 100 111
f 100 112 111
f 100 101 112
f 101 113 112
f 101 102 113
f 102 114 113
f 102 103 114
f 103 115 114
f 103 104 115
f 104 116 115
f 104 105 116
f 105 117 116
f 105 106 117
f 106 118 117
f 106 107 118
f 107 119 118
f 107 108 119
f 108 120 119
f 109 110 121
f 110 122 121
f 110 111 122
f 111 123 122
f 111 112 123
f 112 124 123
f 112 113 124
f 113 125 124
f 113 114 125
f 114 126 125
f 114 115 126
f 115 127 126
f 115 116 127
f 116 128 127
f 116 117 128
f 117 129 128
f 117 118 129
f 118 130 129
f 118 119 130
f 119 131 130
f 119 120 131
f 120 132 131
f 121 122 133
f 122 134 133
f 122 123 134
f 123 135 134
f 123 124 135
f 124 136 135
f 124 125 136
f 125 137 136
f 125 126 137
f 126 138 137
f 126 127 138
f 127 139 138
f 127 128 139
f 128 140 139
f 128 129 140
f 129 141 140
f 129 130 141
f 130 142 141
f 130 131 142
f 131 143 142
f 131 132 143
f 132 144 143
f 145 146 155
f 146 156 155
f 146 147 156
f 147 157 156
f 147 148 157
f 148 158 157
f 148 149 158
f 149 159 158
f 149 150 159
f 150 160 159
f 150 151 160
f 151 161 160
f 151 152 161
f 152 162 161
f 152 153 162
f 153 163 162
f 153 154 163
f 154 164 163
f 154 145 164
f 145 155 164
f 165 166 175
f 166 176 175
f 166 167 176
f 167 177 176
f 167 168 177
f 168 178 177
f 168 169 178
f 169 179 178
f 169 170 179
f 170 180 179
f 170 171 180
f 171 181 180
f 171 172 181
f 172 182 181
f 172 173 182
f 173 183 182
f 173 174 183
f 174 184 183
f 174 165 184
f 165 175 184
f 185 186 195
f 186 196 195
f 186 187 196
f 187 197 196
f 187 188 197
f 188 198 197
f 188 189 198
f 189 199 198
f 189 190 199
f 190 200 199
f 190 191 200
f 191 201 200
f 191 192 201
f 192 202 201
f 192 193 202
f 193 203 202
f 193 194 203
f 194 204 203
f 194 185 204
f 185 195 204
f 205 206 215
f 206 216 215
f 206 207 216
f 207 217 216
f 207 208 217
f 208 218 217
f 208 209 218
f 209 219 218
f 209 210 219
f 210 220 219
f 210 211 220
f 211 221 220
f 211 212 221
f 212 222 221
f 212 213 222
f 213 223 222
f 213 214 223
f 214 224 223
f 214 205 224
f 205 215 224
f 225 226 235
f 226 236 235
f 226 227 236
f 227 237 236
f 227 228 237
f 228 238 237
f 228 229 238
f 229 239 238
f 229 230 239
f 230 240 239
f 230 231 240
f 231 241 240
f 231 232 241
f 232 242 241
f 232 233 242
f 233 243 242
f 233 234 243
f 234 244 243
f 234 225 244
f 225 235 244
f 245 246 255
f 246 256 255
f 246 247 256
f 247 257 256
f 247 248 257
f 248 258 257
f 248 249 258
f 249 259 258
f 249 250 259
f 250 260 259
f 250 251 260
f 251 261 260
f 251 252 261
f 252 262 261
f 252 253 262
f 253 263 262
f 253 254 263
f 254 264 263
f 254 245 264
f 245 255 264
f 265 266 275
f 266 276 275
f 266 267 276
f 267 277 276
f 267 268 277
f 268 278 277
f 268 269 278
f 269 279 278
f 269 270 279
f 270 280 279
f 270 271 280
f 271 281 280
f 271 272 281
f 272 282 281
f 272 273 282
f 273 283 282
f 273 274 283
f 274 284 283
f 274 265 284
f 265 275 284
f 285 286 295
f 286 296 295
f 286 287 296
f 287 297 296
f 287 288 297
f 288 298 297
f 288 289 298
f 289 299 298
f 289 290 299
f 290 300 299
f 290 291 300
f 291 301 300
f 291 292 301
f 292 302 301
f 292 293 302
f 293 303 302
f 293 294 303
f 294 304 303
f 294 285 304
f 285 295 304
f 305 306 315
f 306 316 315
f 306 307 316
f 307 317 316
f 307 308 317
f 308 318 317
f 308 309 318
f 309 319 318
f 309 310 319
f 310 320 319
f 310 311 320
f 311 321 320
f 311 312 321
f 312 322 321
f 312 313 322
f 313 323 322
f 313 314 323
f 314 324 323
f 314 305 324
f 305 315 324
f 325 326 335
f 326 336 335
f 326 327 336
f 327 337 336
f 327 328 337
f 328 338 337
f 328 329 338
f 329 339 338
f 329 330 339
f 330 340 339
f 330 331 340
f 331 341 340
f 331 332 341
f 332 342 341
f 332 333 342
f 333 343 342
f 333 334 343
f 334 344 343
f 334 325 344
f 325 335 344
f 345 346 355
f 346 356 355
f 346 347 356
f 347 357 356
f 347 348 357
f 348 358 357
f 348 349 358
f 349 359 358
f 349 350 359
f 350 360 359
f 350 351 360
f 351 361 360
f 351 352 361
f 352 362 361
f 352 353 362
f 353 363 362
f 353 354 363
f 354 364 363
f 354 345 364
f 345 355 364
f 365 366 375
f 366 376 375
f 366 367 376
f 367 377 376
f 367 368 377
f 368 378 377
f 368 369 378
f 369 379 378
f 369 370 379
f 370 380 379
f 370 371 380
f 371 381 380
f 371 372 381
f 372 382 381
f 372 373 382
f 373 383 382
f 373 374 383
f 374 384 383
f 374 365 384
f 365 375 384
f 385 386 395
f 386 396 395
f 386 387 396
f 387 397 396
f 387 388 397
f 388 398 397
f 388 389 398
f 389 399 398
f 389 390 399
f 390 400 399
f 390 391 400
f 391 401 400
f 391 392 401
f 392 402 401
f 392 393 402
f 393 403 402
f 393 394 403
f 394 404 403
f 394 385 404
f 385 395 404
f 405 406 415
f 406 416 415
f 406 407 416
f 407 417 416
f 407 408 417
f 408 418 417
f 408 409 418
f 409 419 418
f 409 410 419
f 410 420 419
f 410 411 420
f 411 421 420
f 411 412 421
f 412 422 421
f 412 413 422
f 413 423 422
f 413 414 423
f 414 424 423
f 414 405 424
f 405 415 424
f 425 426 435
f 426 436 435
f 426 427 436
f 427 437 436
f 427 428 437
f 428 438 437
f 428 429 438
f 429 439 438
f 429 430 439
f 430 440 439
f 430 431 440
f 431 441 440
f 431 432 441
f 432 442 441
f 432 433 442
f 433 443 442
f 433 434 443
f 434 444 443
f 434 425 444
f 425 435 444
f 445 446 455
f 446 456 455
f 446 447 456
f 447 457 456
f 447 448 457
f 448 458 457
f 448 449 458
f 449 459 458
f 449 450 459
f 450 460 459
f 450 451 460
f 451 461 460
f 451 452 461
f 452 462 461
f 452 453 462
f 453 463 462
f 453 454 463
f 454 464 463
f 454 445 464
f 445 455 464
f 465 466 475
f 466 476 475
f 466 467 476
f 467 477 476
f 467 468 477
f 468 478 477
f 468 469 478
f 469 479 478
f 469 470 479
f 470 480 479
f 470 471 480
f 471 481 480
f 471 472 481
f 472 482 481
f 472 473 482
f 473 483 482
f 473 474 483
f 474 484 483
f 474 465 484
f 465 475 484
f 485 486 495
f 486 496 495
f 486 487 496
f 487 497 496
f 487 488 497
f 488 498 497
f 488 489 498
f 489 499 498
f 489 490 499
f 490 500 499
f 490 491 500
f 491 501 500
f 491 492 501
f 492 502 501
f 492 493 502
f 493 503 502
f 493 494 503
f 494 504 503
f 494 485 504
f 485 495 504
f 505 506 515
f 506 516 515
f 506 507 516
f 507 517 516
f 507 508 517
f 508 518 517
f 508 509 518
f 509 519 518
f 509 510 519
f 510 520 519
f 510 511 520
f 511 521 520
f 511 512 521
f 512 522 521
f 512 513 522
f 513 523 522
f 513 514 523
f 514 524 523
f 514 505 524
f 505 515 524
f 525 526 535
f 526 536 535
f 526 527 536
f 527 537 536
f 527 528 537
f 528 538 537
f 528 529 538
f 529 539 538
f 529 530 539
f 530 540 539
f 530 531 540
f 531 541 540
f 531 532 541
f 532 542 541
f 532 533 542
f 533 543 542
f 533 534 543
f 534 544 543
f 534 525 544
f 525 535 544
f 545 546 555
f 546 556 555
f 546 547 556
f 547 557 556
f 547 548 557
f 548 558 557
f 548 549 558
f 549 559 558
f 549 550 559
f 550 560 559
f 550 551 560
f 551 561 560
f 551 552 561
f 552 562 561
f 552 553 562
f 553 563 562
f 553 554 563
f 554 564 563
f 554 545 564
f 545 555 564
f 565 566 575
f 566 576 575
f 566 567 576
f 567 577 576
f 567 568 577
f 568 578 577
f 568 569 578
f 569 579 578
f 569 570 579
f 570 580 579
f 570 571 580
f 571 581 580
f 571 572 581
f 572 582 581
f 572 573 582
f 573 583 582
f 573 574 583
f 574 584 583
f 574 565 584
f 565 575 584
f 585 586 595
f 586 596 595
f 586 587 596
f 587 597 596
f 587 588 597
f 588 598 597
f 588 589 598
f 589 599 598
f 589 590 599
f 590 600 599
f 590 591 600
f 591 601 600
f 591 592 601
f 592 602 601
f 592 593 602
f 593 603 602
f 593 594 603
f 594 604 603
f 594 585 604
f 585 595 604
f 605 606 615
f 606 616 615
f 606 607 616
f 607 617 616
f 607 608 617
f 608 618 617
f 608 609 618
f 609 619 618
f 609 610 619
f 610 620 619
f 610 611 620
f 611 621 620
f 611 612 621
f 612 622 621
f 612 613 622
f 613 623 622
f 613 614 623
f 614 624 623
f 614 605 624
f 605 615 624
f 625 626 635
f 626 636 635
f 626 627 636
f 627 637 636
f 627 628 637
f 628 638 637
f 628 629 638
f 629 639 638
f 629 630 639
f 630 640 639
f 630 631 640
f 631 641 640
f 631 632 641
f 632 642 641
f 632 633 642
f 633 643 642
f 633 634 643
f 634 644 643
f 634 625 644
f 625 635 644
f 645 646 655
f 646 656 655
f 646 647 656
f 647 657 656
f 647 648 657
f 648 658 657
f 648 649 658
f 649 659 658
f 649 650 659
f 650 660 659
f 650 651 660
f 651 661 660
f 651 652 661
f 652 662 661
f 652 653 662
f 653 663 662
f 653 654 663
f 654 664 663
f 654 645 664
f 645 655 664
f 665 666 675
f 666 676 675
f 666 667 676
f 667 677 676
f 667 668 677
f 668 678 677
f 668 669 678
f 669 679 678
f 669 670 679
f 670 680 679
f 670 671 680
f 671 681 680
f 671 672 681
f 672 682 681
f 672 673 682
f 673 683 682
f 673 674 683
f 674 684 683
f 674 665 684
f 665 675 684
f 685 686 695
f 686 696 695
f 686 687 696
f 687 697 696
f 687 688 697
f 688 698 697
f 688 689 698
f 689 699 698
f 689 690 699
f 690 700 699
f 690 691 700
f 691 701 700
f 691 692 701
f 692 702 701
f 692 693 702
f 693 703 702
f 693 694 703
f 694 704 703
f 694 685 704
f 685 695 704
f 705 706 715
f 706 716 715
f 706 707 716
f 707 717 716
f 707 708 717
f 708 718 717
f 708 709 718
f 709 719 718
f 709 710 719
f 710 720 719
f 710 711 720
f 711 721 720
f 711 712 721
f 712 722 721
f 712 713 722
f 713 723 722
f 713 714 723
f 714 724 723
f 714 705 724
f 705 715 724
f 725 726 735
f 726 736 735
f 726 727 736
f 727 737 736
f 727 728 737
f 728 738 737
f 728 729 738
f 729 739 738
f 729 730 739
f 730 740 739
f 730 731 740
f 731 741 740
f 731 732 741
f 732 742 741
f 732 733 742
f 733 743 742
f 733 734 743
f 734 744 743
f 734 725 744
f 725 735 744
f 745 746 755
f 746 756 755
f 746 747 756
f 747 757 756
f 747 748 757
f 748 758 757
f 748 749 758
f 749 759 758
f 749 750 759
f 750 760 759
f 750 751 760
f 751 761 760
f 751 752 761
f 752 762 761
f 752 753 762
f 753 763 762
f 753 754 763
f 754 764 763
f 754 745 764
f 745 755 764
f 765 766 775
f 766 776 775
f 766 767 776
f 767 777 776
f 767 768 777
f 768 778 777
f 768 769 778
f 769 779 778
f 769 770 779
f 770 780 779
f 770 771 780
f 771 781 780
f 771 772 781
f 772 782 781
f 772 773 782
f 773 783 782
f 773 774 783
f 774 784 783
f 774 765 784
f 765 775 784
