# Full-Body 3D Mesh - Frame 311
v 0.029783 -0.614980 -0.104052
v 0.063591 -0.614980 -0.108913
v 0.094660 -0.614980 -0.123101
v 0.120473 -0.614980 -0.145468
v 0.138939 -0.614980 -0.174202
v 0.148562 -0.614980 -0.206974
v 0.148562 -0.614980 -0.241129
v 0.138939 -0.614980 -0.273901
v 0.120473 -0.614980 -0.302635
v 0.094660 -0.614980 -0.325002
v 0.063591 -0.614980 -0.339191
v 0.029783 -0.614980 -0.344052
v 0.029783 -0.614980 -0.104052
v 0.058224 -0.596702 -0.108913
v 0.084361 -0.579905 -0.123101
v 0.106077 -0.565950 -0.145468
v 0.121611 -0.555966 -0.174202
v 0.129706 -0.550764 -0.206974
v 0.129706 -0.550764 -0.241129
v 0.121611 -0.555966 -0.273901
v 0.106077 -0.565950 -0.302635
v 0.084361 -0.579905 -0.325002
v 0.058224 -0.596702 -0.339191
v 0.029783 -0.614980 -0.344052
v 0.029783 -0.614980 -0.104052
v 0.043828 -0.584228 -0.108913
v 0.056734 -0.555966 -0.123101
v 0.067457 -0.532486 -0.145468
v 0.075128 -0.515689 -0.174202
v 0.079126 -0.506936 -0.206974
v 0.079126 -0.506936 -0.241129
v 0.075128 -0.515689 -0.273901
v 0.067457 -0.532486 -0.302635
v 0.056734 -0.555966 -0.325002
v 0.043828 -0.584228 -0.339191
v 0.029783 -0.614980 -0.344052
v 0.029783 -0.614980 -0.104052
v 0.024972 -0.581517 -0.108913
v 0.020550 -0.550764 -0.123101
v 0.016877 -0.525214 -0.145468
v 0.014249 -0.506936 -0.174202
v 0.012879 -0.497411 -0.206974
v 0.012879 -0.497411 -0.241129
v 0.014249 -0.506936 -0.273901
v 0.016877 -0.525214 -0.302635
v 0.020550 -0.550764 -0.325002
v 0.024972 -0.581517 -0.339191
v 0.029783 -0.614980 -0.344052
v 0.029783 -0.614980 -0.104052
v 0.007644 -0.589430 -0.108913
v -0.012702 -0.565950 -0.123101
v -0.029606 -0.546441 -0.145468
v -0.041698 -0.532486 -0.174202
v -0.048000 -0.525214 -0.206974
v -0.048000 -0.525214 -0.241129
v -0.041698 -0.532486 -0.273901
v -0.029606 -0.546441 -0.302635
v -0.012702 -0.565950 -0.325002
v 0.007644 -0.589430 -0.339191
v 0.029783 -0.614980 -0.344052
v 0.029783 -0.614980 -0.104052
v -0.002655 -0.605456 -0.108913
v -0.032466 -0.596702 -0.123101
v -0.057233 -0.589430 -0.145468
v -0.074951 -0.584228 -0.174202
v -0.084184 -0.581517 -0.206974
v -0.084184 -0.581517 -0.241129
v -0.074951 -0.584228 -0.273901
v -0.057233 -0.589430 -0.302635
v -0.032466 -0.596702 -0.325002
v -0.002655 -0.605456 -0.339191
v 0.029783 -0.614980 -0.344052
v 0.029783 -0.614980 -0.104052
v -0.002655 -0.624505 -0.108913
v -0.032466 -0.633258 -0.123101
v -0.057233 -0.640531 -0.145468
v -0.074951 -0.645733 -0.174202
v -0.084184 -0.648444 -0.206974
v -0.084184 -0.648444 -0.241129
v -0.074951 -0.645733 -0.273901
v -0.057233 -0.640531 -0.302635
v -0.032466 -0.633258 -0.325002
v -0.002655 -0.624505 -0.339191
v 0.029783 -0.614980 -0.344052
v 0.029783 -0.614980 -0.104052
v 0.007644 -0.640531 -0.108913
v -0.012702 -0.664011 -0.123101
v -0.029606 -0.683519 -0.145468
v -0.041698 -0.697475 -0.174202
v -0.048000 -0.704747 -0.206974
v -0.048000 -0.704747 -0.241129
v -0.041698 -0.697475 -0.273901
v -0.029606 -0.683519 -0.302635
v -0.012702 -0.664011 -0.325002
v 0.007644 -0.640531 -0.339191
v 0.029783 -0.614980 -0.344052
v 0.029783 -0.614980 -0.104052
v 0.024972 -0.648444 -0.108913
v 0.020550 -0.679197 -0.123101
v 0.016877 -0.704747 -0.145468
v 0.014249 -0.723025 -0.174202
v 0.012879 -0.732550 -0.206974
v 0.012879 -0.732550 -0.241129
v 0.014249 -0.723025 -0.273901
v 0.016877 -0.704747 -0.302635
v 0.020550 -0.679197 -0.325002
v 0.024972 -0.648444 -0.339191
v 0.029783 -0.614980 -0.344052
v 0.029783 -0.614980 -0.104052
v 0.043828 -0.645733 -0.108913
v 0.056734 -0.673994 -0.123101
v 0.067457 -0.697475 -0.145468
v 0.075128 -0.714272 -0.174202
v 0.079126 -0.723025 -0.206974
v 0.079126 -0.723025 -0.241129
v 0.075128 -0.714272 -0.273901
v 0.067457 -0.697475 -0.302635
v 0.056734 -0.673994 -0.325002
v 0.043828 -0.645733 -0.339191
v 0.029783 -0.614980 -0.344052
v 0.029783 -0.614980 -0.104052
v 0.058224 -0.633258 -0.108913
v 0.084361 -0.650056 -0.123101
v 0.106077 -0.664011 -0.145468
v 0.121611 -0.673994 -0.174202
v 0.129706 -0.679197 -0.206974
v 0.129706 -0.679197 -0.241129
v 0.121611 -0.673994 -0.273901
v 0.106077 -0.664011 -0.302635
v 0.084361 -0.650056 -0.325002
v 0.058224 -0.633258 -0.339191
v 0.029783 -0.614980 -0.344052
v 0.029783 -0.614980 -0.104052
v 0.063591 -0.614980 -0.108913
v 0.094660 -0.614980 -0.123101
v 0.120473 -0.614980 -0.145468
v 0.138939 -0.614980 -0.174202
v 0.148562 -0.614980 -0.206974
v 0.148562 -0.614980 -0.241129
v 0.138939 -0.614980 -0.273901
v 0.120473 -0.614980 -0.302635
v 0.094660 -0.614980 -0.325002
v 0.063591 -0.614980 -0.339191
v 0.029783 -0.614980 -0.344052
v 0.169660 -0.424637 -0.094559
v 0.171132 -0.448105 -0.086928
v 0.172127 -0.462609 -0.066933
v 0.172265 -0.462609 -0.042212
v 0.171492 -0.448105 -0.022207
v 0.170104 -0.424637 -0.014560
v 0.168632 -0.401170 -0.022191
v 0.167637 -0.386666 -0.042186
v 0.167500 -0.386666 -0.066907
v 0.168272 -0.401170 -0.086912
v -0.153478 -0.444328 -0.092763
v -0.152006 -0.467796 -0.085132
v -0.151011 -0.482300 -0.065137
v -0.150873 -0.482300 -0.040416
v -0.151646 -0.467796 -0.020412
v -0.153034 -0.444328 -0.012765
v -0.154506 -0.420860 -0.020396
v -0.155501 -0.406356 -0.040391
v -0.155638 -0.406356 -0.065112
v -0.154866 -0.420860 -0.085116
v 0.169882 -0.429992 -0.094200
v 0.147203 -0.422826 -0.087459
v 0.133186 -0.416352 -0.068152
v 0.133186 -0.413043 -0.043653
v 0.147203 -0.414162 -0.023320
v 0.169882 -0.419283 -0.014919
v 0.192562 -0.426449 -0.021660
v 0.206578 -0.432923 -0.040967
v 0.206578 -0.436232 -0.065466
v 0.192562 -0.435113 -0.085799
v 0.239823 -0.176423 -0.128450
v 0.217143 -0.169257 -0.121709
v 0.203126 -0.162783 -0.102402
v 0.203126 -0.159474 -0.077903
v 0.217143 -0.160594 -0.057570
v 0.239823 -0.165714 -0.049170
v 0.262502 -0.172880 -0.055911
v 0.276519 -0.179354 -0.075218
v 0.276519 -0.182664 -0.099717
v 0.262502 -0.181544 -0.120049
v 0.239823 -0.182127 -0.127251
v 0.216511 -0.177076 -0.120755
v 0.202104 -0.169729 -0.102057
v 0.202104 -0.162895 -0.078299
v 0.216511 -0.159182 -0.058556
v 0.239823 -0.160010 -0.050369
v 0.263134 -0.165062 -0.056865
v 0.277541 -0.172408 -0.075563
v 0.277541 -0.179243 -0.099320
v 0.263134 -0.182955 -0.119063
v 0.263791 -0.006592 -0.177749
v 0.240480 -0.001540 -0.171253
v 0.226072 0.005806 -0.152555
v 0.226072 0.012641 -0.128798
v 0.240480 0.016353 -0.109055
v 0.263791 0.015526 -0.100867
v 0.287103 0.010474 -0.107363
v 0.301510 0.003128 -0.126061
v 0.301510 -0.003707 -0.149819
v 0.287103 -0.007420 -0.169562
v -0.153256 -0.468349 -0.084748
v -0.172309 -0.474777 -0.070367
v -0.184084 -0.469574 -0.049262
v -0.184084 -0.454728 -0.029495
v -0.172309 -0.435910 -0.018615
v -0.153256 -0.420307 -0.020780
v -0.134203 -0.413879 -0.035161
v -0.122428 -0.419082 -0.056266
v -0.122428 -0.433927 -0.076033
v -0.134203 -0.452746 -0.086913
v -0.327928 -0.275180 -0.229822
v -0.346981 -0.281608 -0.215440
v -0.358756 -0.276406 -0.194335
v -0.358756 -0.261560 -0.174568
v -0.346981 -0.242742 -0.163689
v -0.327928 -0.227139 -0.165853
v -0.308876 -0.220711 -0.180234
v -0.297100 -0.225913 -0.201339
v -0.297100 -0.240759 -0.221107
v -0.308876 -0.259577 -0.231986
v -0.327928 -0.284669 -0.175995
v -0.347902 -0.285043 -0.190557
v -0.360246 -0.272474 -0.207901
v -0.360246 -0.251764 -0.221400
v -0.347902 -0.230823 -0.225900
v -0.327928 -0.217650 -0.219680
v -0.307955 -0.217276 -0.205117
v -0.295611 -0.229845 -0.187774
v -0.295611 -0.250555 -0.174274
v -0.307955 -0.271496 -0.169775
v -0.186481 -0.409044 -0.366803
v -0.206454 -0.409418 -0.381366
v -0.218798 -0.396849 -0.398710
v -0.218798 -0.376139 -0.412209
v -0.206454 -0.355198 -0.416708
v -0.186481 -0.342025 -0.410489
v -0.166508 -0.341651 -0.395926
v -0.154163 -0.354220 -0.378582
v -0.154163 -0.374930 -0.365083
v -0.166508 -0.395871 -0.360584
v 0.169882 -0.420220 -0.094315
v 0.146515 -0.423649 -0.087009
v 0.132073 -0.427455 -0.067309
v 0.132073 -0.430185 -0.042739
v 0.146515 -0.430796 -0.022684
v 0.169882 -0.429055 -0.014804
v 0.193249 -0.425626 -0.022110
v 0.207691 -0.421820 -0.041810
v 0.207691 -0.419090 -0.066380
v 0.193249 -0.418479 -0.086435
v 0.120563 0.020187 -0.045383
v 0.097196 0.016758 -0.038077
v 0.082755 0.012952 -0.018377
v 0.082755 0.010222 0.006193
v 0.097196 0.009611 0.026248
v 0.120563 0.011352 0.034128
v 0.143931 0.014781 0.026822
v 0.158372 0.018587 0.007122
v 0.158372 0.021317 -0.017448
v 0.143931 0.021928 -0.037503
v -0.153256 -0.438655 -0.092360
v -0.176694 -0.437897 -0.084534
v -0.191179 -0.439595 -0.064573
v -0.191179 -0.443101 -0.040101
v -0.176694 -0.447076 -0.020467
v -0.153256 -0.450001 -0.013168
v -0.129818 -0.450758 -0.020994
v -0.115333 -0.449060 -0.040955
v -0.115333 -0.445554 -0.065427
v -0.129818 -0.441580 -0.085061
v -0.119718 -0.020352 -0.032431
v -0.143156 -0.019594 -0.024605
v -0.157641 -0.021293 -0.004644
v -0.157641 -0.024799 0.019828
v -0.143156 -0.028773 0.039462
v -0.119718 -0.031698 0.046761
v -0.096281 -0.032456 0.038935
v -0.081795 -0.030757 0.018974
v -0.081795 -0.027251 -0.005498
v -0.096281 -0.023277 -0.025132
v 0.118437 0.015769 -0.045571
v 0.122861 -0.007395 -0.038156
v 0.126407 -0.021712 -0.018317
v 0.127722 -0.021712 0.006370
v 0.126302 -0.007395 0.026473
v 0.122690 0.015769 0.034316
v 0.118266 0.038934 0.026901
v 0.114720 0.053251 0.007062
v 0.113405 0.053251 -0.017625
v 0.114825 0.038934 -0.037729
v -0.121845 -0.026025 -0.032778
v -0.117421 -0.049190 -0.025364
v -0.113874 -0.063506 -0.005524
v -0.112560 -0.063506 0.019162
v -0.113980 -0.049190 0.039266
v -0.117592 -0.026025 0.047108
v -0.122016 -0.002861 0.039694
v -0.125562 0.011456 0.019854
v -0.126876 0.011456 -0.004832
v -0.125457 -0.002861 -0.024936
v 0.120563 0.005612 -0.044316
v 0.097065 0.006791 -0.036728
v 0.082543 0.011399 -0.017260
v 0.082543 0.017677 0.006651
v 0.097065 0.023226 0.025872
v 0.120563 0.025927 0.033061
v 0.144062 0.024748 0.025473
v 0.158584 0.020140 0.006005
v 0.158584 0.013862 -0.017906
v 0.144062 0.008313 -0.037127
v 0.116255 0.130046 -0.076985
v 0.092757 0.131224 -0.069396
v 0.078235 0.135833 -0.049928
v 0.078235 0.142110 -0.026017
v 0.092757 0.147659 -0.006796
v 0.116255 0.150360 0.000393
v 0.139754 0.149181 -0.007196
v 0.154276 0.144573 -0.026664
v 0.154276 0.138296 -0.050575
v 0.139754 0.132747 -0.069796
v 0.116255 0.160082 -0.073006
v 0.092871 0.158399 -0.065167
v 0.078418 0.149766 -0.047063
v 0.078418 0.137480 -0.025611
v 0.092871 0.126234 -0.009004
v 0.116255 0.120324 -0.003585
v 0.139640 0.122006 -0.011425
v 0.154093 0.130640 -0.029529
v 0.154093 0.142926 -0.050981
v 0.139640 0.154172 -0.067588
v 0.156237 0.493147 0.117746
v 0.132852 0.491464 0.125585
v 0.118400 0.482831 0.143689
v 0.118400 0.470545 0.165141
v 0.132852 0.459298 0.181748
v 0.156237 0.453388 0.187166
v 0.179622 0.455071 0.179327
v 0.194075 0.463704 0.161223
v 0.194075 0.475990 0.139771
v 0.179622 0.487236 0.123164
v -0.119718 -0.065376 0.014341
v -0.143160 -0.057536 0.014751
v -0.157648 -0.037660 0.012264
v -0.157648 -0.013340 0.007829
v -0.143160 0.006135 0.003140
v -0.119718 0.013326 -0.000011
v -0.096277 0.005486 -0.000421
v -0.081789 -0.014390 0.002066
v -0.081789 -0.038711 0.006501
v -0.096277 -0.058186 0.011190
v -0.137677 -0.107099 -0.214446
v -0.161118 -0.099258 -0.214036
v -0.175606 -0.079382 -0.216524
v -0.175606 -0.055062 -0.220959
v -0.161118 -0.035587 -0.225647
v -0.137677 -0.028397 -0.228799
v -0.114235 -0.036237 -0.229209
v -0.099747 -0.056113 -0.226721
v -0.099747 -0.080433 -0.222286
v -0.114235 -0.099908 -0.217598
v -0.137677 -0.073318 -0.261233
v -0.160771 -0.067890 -0.254282
v -0.175045 -0.062407 -0.234856
v -0.175045 -0.058965 -0.210375
v -0.160771 -0.058877 -0.190191
v -0.137677 -0.062177 -0.182012
v -0.114582 -0.067605 -0.188963
v -0.100309 -0.073088 -0.208389
v -0.100309 -0.076530 -0.232870
v -0.114582 -0.076618 -0.253054
v -0.080706 0.222310 -0.302808
v -0.103801 0.227738 -0.295857
v -0.118074 0.233221 -0.276431
v -0.118074 0.236664 -0.251951
v -0.103801 0.236752 -0.231767
v -0.080706 0.233451 -0.223588
v -0.057611 0.228023 -0.230539
v -0.043338 0.222541 -0.249965
v -0.043338 0.219098 -0.274445
v -0.057611 0.219010 -0.294630
v -0.037181 0.075678 -0.015250
v -0.039804 0.067212 -0.017970
v -0.041753 0.061980 -0.025371
v -0.042282 0.061980 -0.034626
v -0.041190 0.067212 -0.042201
v -0.038895 0.075678 -0.045201
v -0.036272 0.084144 -0.042482
v -0.034324 0.089376 -0.035081
v -0.033794 0.089376 -0.025826
v -0.034886 0.084144 -0.018251
v 0.003333 0.063870 -0.017568
v 0.000710 0.055405 -0.020287
v -0.001238 0.050173 -0.027688
v -0.001767 0.050173 -0.036944
v -0.000676 0.055405 -0.044518
v 0.001620 0.063870 -0.047519
v 0.004243 0.072336 -0.044800
v 0.006191 0.077568 -0.037399
v 0.006720 0.077568 -0.028143
v 0.005629 0.072336 -0.020569
v 0.002476 0.069561 -0.018665
v -0.003369 0.062367 -0.018811
v -0.006981 0.055747 -0.024203
v -0.006981 0.052230 -0.032781
v -0.003369 0.053160 -0.041268
v 0.002476 0.058180 -0.046422
v 0.008322 0.065374 -0.046276
v 0.011934 0.071994 -0.040884
v 0.011934 0.075511 -0.032306
v 0.008322 0.074581 -0.023819
v 0.032194 0.045211 -0.008681
v 0.026348 0.038017 -0.008828
v 0.022736 0.031398 -0.014220
v 0.022736 0.027881 -0.022797
v 0.026348 0.028810 -0.031284
v 0.032194 0.033831 -0.036439
v 0.038039 0.041025 -0.036292
v 0.041651 0.047644 -0.030900
v 0.041651 0.051161 -0.022323
v 0.038039 0.050232 -0.013836
v 0.032194 0.047495 -0.009855
v 0.025120 0.041514 -0.009484
v 0.020748 0.034773 -0.014108
v 0.020748 0.029845 -0.021960
v 0.025120 0.028613 -0.030041
v 0.032194 0.031547 -0.035265
v 0.039267 0.037528 -0.035636
v 0.043639 0.044269 -0.031013
v 0.043639 0.049197 -0.023160
v 0.039267 0.050429 -0.015079
v 0.055800 0.020618 0.007012
v 0.048726 0.014638 0.007384
v 0.044354 0.007896 0.002760
v 0.044354 0.002968 -0.005092
v 0.048726 0.001736 -0.013174
v 0.055800 0.004671 -0.018398
v 0.062874 0.010651 -0.018769
v 0.067246 0.017393 -0.014145
v 0.067246 0.022321 -0.006293
v 0.062874 0.023553 0.001789
v 0.055800 0.022318 0.005771
v 0.048165 0.017101 0.006425
v 0.043446 0.010181 0.002451
v 0.043446 0.004202 -0.004634
v 0.048165 0.001448 -0.012123
v 0.055800 0.002970 -0.017156
v 0.063435 0.008187 -0.017811
v 0.068154 0.015107 -0.013836
v 0.068154 0.021086 -0.006752
v 0.063435 0.023841 0.000738
v 0.075193 -0.003345 0.027428
v 0.067558 -0.008562 0.028083
v 0.062840 -0.015482 0.024109
v 0.062840 -0.021461 0.017024
v 0.067558 -0.024215 0.009535
v 0.075193 -0.022693 0.004502
v 0.082828 -0.017476 0.003847
v 0.087547 -0.010556 0.007821
v 0.087547 -0.004577 0.014906
v 0.082828 -0.001823 0.022395
v -0.038038 0.082435 -0.016834
v -0.044682 0.075970 -0.016781
v -0.048789 0.069394 -0.021863
v -0.048789 0.065218 -0.030140
v -0.044682 0.065037 -0.038449
v -0.038038 0.068921 -0.043618
v -0.031394 0.075386 -0.043671
v -0.027288 0.081962 -0.038589
v -0.027288 0.086139 -0.030312
v -0.031394 0.086319 -0.022003
v 0.028341 0.014499 0.017445
v 0.021697 0.008034 0.017498
v 0.017590 0.001458 0.012416
v 0.017590 -0.002718 0.004139
v 0.021697 -0.002899 -0.004170
v 0.028341 0.000985 -0.009339
v 0.034985 0.007450 -0.009392
v 0.039091 0.014026 -0.004310
v 0.039091 0.018203 0.003967
v 0.034985 0.018383 0.012276
v 0.028341 -0.004978 0.012003
v 0.020023 -0.004099 0.008005
v 0.014883 0.001303 0.002497
v 0.014883 0.009165 -0.002417
v 0.020023 0.016483 -0.004859
v 0.028341 0.020462 -0.003897
v 0.036658 0.019583 0.000102
v 0.041799 0.014181 0.005609
v 0.041799 0.006319 0.010523
v 0.036658 -0.000999 0.012965
v 0.037554 -0.018864 -0.010215
v 0.029236 -0.017985 -0.014214
v 0.024096 -0.012583 -0.019722
v 0.024096 -0.004722 -0.024635
v 0.029236 0.002596 -0.027077
v 0.037554 0.006576 -0.026115
v 0.045872 0.005697 -0.022117
v 0.051012 0.000295 -0.016609
v 0.051012 -0.007567 -0.011696
v 0.045872 -0.014885 -0.009254
v 0.037554 -0.017320 -0.028170
v 0.029177 -0.017020 -0.024211
v 0.024000 -0.012565 -0.017942
v 0.024000 -0.005658 -0.011759
v 0.029177 0.001063 -0.008023
v 0.037554 0.005032 -0.008161
v 0.045931 0.004731 -0.012120
v 0.051108 0.000277 -0.018389
v 0.051108 -0.006630 -0.024572
v 0.045931 -0.013352 -0.028308
v 0.032592 -0.007239 -0.039432
v 0.024215 -0.006938 -0.035473
v 0.019038 -0.002484 -0.029204
v 0.019038 0.004424 -0.023021
v 0.024215 0.011145 -0.019285
v 0.032592 0.015114 -0.019423
v 0.040969 0.014813 -0.023382
v 0.046147 0.010359 -0.029651
v 0.046147 0.003451 -0.035834
v 0.040969 -0.003270 -0.039570
v 0.032592 0.007435 -0.044014
v 0.024939 0.002509 -0.042249
v 0.020210 -0.001870 -0.035587
v 0.020210 -0.004032 -0.026571
v 0.024939 -0.003149 -0.018647
v 0.032592 0.000440 -0.014841
v 0.040245 0.005366 -0.016606
v 0.044975 0.009745 -0.023268
v 0.044975 0.011907 -0.032284
v 0.040245 0.011024 -0.040208
v 0.020554 0.027899 -0.039108
v 0.012901 0.022974 -0.037343
v 0.008171 0.018594 -0.030680
v 0.008171 0.016433 -0.021665
v 0.012901 0.017316 -0.013741
v 0.020554 0.020905 -0.009935
v 0.028207 0.025830 -0.011700
v 0.032936 0.030210 -0.018362
v 0.032936 0.032371 -0.027377
v 0.028207 0.031489 -0.035301
v -0.038038 0.082316 -0.016775
v -0.046019 0.077688 -0.017685
v -0.050951 0.072292 -0.023386
v -0.050951 0.068189 -0.031699
v -0.046019 0.066947 -0.039450
v -0.038038 0.069040 -0.043677
v -0.030057 0.073668 -0.042767
v -0.025125 0.079064 -0.037066
v -0.025125 0.083167 -0.028753
v -0.030057 0.084409 -0.021002
v 0.002602 0.004707 0.021527
v -0.005379 0.000078 0.020616
v -0.010311 -0.005318 0.014916
v -0.010311 -0.009420 0.006603
v -0.005379 -0.010663 -0.001148
v 0.002602 -0.008570 -0.005375
v 0.010583 -0.003942 -0.004465
v 0.015515 0.001455 0.001236
v 0.015515 0.005557 0.009549
v 0.010583 0.006799 0.017299
v 0.002602 -0.015262 0.014952
v -0.005581 -0.014222 0.010721
v -0.010638 -0.008487 0.005479
v -0.010638 -0.000248 0.001229
v -0.005581 0.007348 -0.000406
v 0.002602 0.011399 0.001199
v 0.010784 0.010359 0.005431
v 0.015841 0.004624 0.010673
v 0.015841 -0.003615 0.014923
v 0.010784 -0.011211 0.016557
v 0.017492 -0.032272 -0.018023
v 0.009310 -0.031232 -0.022254
v 0.004252 -0.025497 -0.027496
v 0.004252 -0.017258 -0.031746
v 0.009310 -0.009662 -0.033381
v 0.017492 -0.005610 -0.031776
v 0.025674 -0.006651 -0.027544
v 0.030731 -0.012386 -0.022302
v 0.030731 -0.020625 -0.018052
v 0.025674 -0.028221 -0.016418
v 0.017492 -0.027191 -0.037427
v 0.008863 -0.027126 -0.034039
v 0.003530 -0.023935 -0.027161
v 0.003530 -0.018836 -0.019418
v 0.008863 -0.013777 -0.013769
v 0.017492 -0.010691 -0.012372
v 0.026121 -0.010756 -0.015759
v 0.031454 -0.013948 -0.022638
v 0.031454 -0.019047 -0.030380
v 0.026121 -0.024105 -0.036029
v 0.011710 -0.004150 -0.052600
v 0.003080 -0.004085 -0.049213
v -0.002253 -0.000894 -0.042334
v -0.002253 0.004205 -0.034592
v 0.003080 0.009263 -0.028943
v 0.011710 0.012349 -0.027545
v 0.020339 0.012284 -0.030932
v 0.025672 0.009093 -0.037811
v 0.025672 0.003994 -0.045553
v 0.020339 -0.001064 -0.051202
v 0.011710 0.014146 -0.051212
v 0.003513 0.009815 -0.051260
v -0.001553 0.003301 -0.047035
v -0.001553 -0.002908 -0.040151
v 0.003513 -0.006440 -0.033237
v 0.011710 -0.005947 -0.028934
v 0.019906 -0.001616 -0.028885
v 0.024972 0.004898 -0.033110
v 0.024972 0.011107 -0.039994
v 0.019906 0.014639 -0.046908
v 0.002196 0.031971 -0.035135
v -0.006001 0.027640 -0.035183
v -0.011066 0.021126 -0.030959
v -0.011066 0.014917 -0.024074
v -0.006001 0.011385 -0.017160
v 0.002196 0.011878 -0.012857
v 0.010392 0.016209 -0.012809
v 0.015458 0.022723 -0.017034
v 0.015458 0.028932 -0.023918
v 0.010392 0.032465 -0.030832
v -0.038038 0.080676 -0.016083
v -0.046647 0.077926 -0.018150
v -0.051968 0.074319 -0.024829
v -0.051968 0.071230 -0.033570
v -0.046647 0.069840 -0.041034
v -0.038038 0.070681 -0.044369
v -0.029429 0.073430 -0.042302
v -0.024109 0.077038 -0.035622
v -0.024109 0.080126 -0.026882
v -0.029429 0.081516 -0.019418
v -0.018656 -0.001976 0.013122
v -0.027265 -0.004725 0.011055
v -0.032586 -0.008333 0.004375
v -0.032586 -0.011422 -0.004365
v -0.027265 -0.012811 -0.011829
v -0.018656 -0.011971 -0.015164
v -0.010047 -0.009222 -0.013097
v -0.004727 -0.005614 -0.006418
v -0.004727 -0.002525 0.002323
v -0.010047 -0.001136 0.009787
v -0.018656 -0.021108 0.003999
v -0.026854 -0.019495 -0.000018
v -0.031920 -0.013099 -0.004418
v -0.031920 -0.004363 -0.007521
v -0.026854 0.003375 -0.008141
v -0.018656 0.007161 -0.006042
v -0.010459 0.005548 -0.002024
v -0.005392 -0.000848 0.002376
v -0.005392 -0.009584 0.005479
v -0.010459 -0.017323 0.006099
v -0.005612 -0.032136 -0.027047
v -0.013810 -0.030523 -0.031064
v -0.018876 -0.024126 -0.035465
v -0.018876 -0.015391 -0.038567
v -0.013810 -0.007652 -0.039187
v -0.005612 -0.003866 -0.037088
v 0.002585 -0.005479 -0.033071
v 0.007652 -0.011875 -0.028670
v 0.007652 -0.020611 -0.025567
v 0.002585 -0.028350 -0.024947
v -0.005612 -0.024509 -0.045582
v -0.014429 -0.023253 -0.043007
v -0.019878 -0.019991 -0.036254
v -0.019878 -0.015968 -0.027902
v -0.014429 -0.012722 -0.021140
v -0.005612 -0.011492 -0.018553
v 0.003204 -0.012749 -0.021128
v 0.008654 -0.016011 -0.027881
v 0.008654 -0.020034 -0.036233
v 0.003204 -0.023280 -0.042994
v -0.005567 0.000069 -0.057419
v -0.014383 0.001325 -0.054844
v -0.019832 0.004588 -0.048091
v -0.019832 0.008610 -0.039739
v -0.014383 0.011856 -0.032977
v -0.005567 0.013086 -0.030390
v 0.003250 0.011830 -0.032965
v 0.008699 0.008567 -0.039718
v 0.008699 0.004545 -0.048070
v 0.003250 0.001299 -0.054831
v -0.005567 0.012197 -0.057812
v -0.013974 0.008662 -0.056150
v -0.019170 0.004332 -0.049811
v -0.019170 0.000859 -0.041216
v -0.013974 -0.000430 -0.033647
v -0.005567 0.000958 -0.029997
v 0.002841 0.004493 -0.031658
v 0.008037 0.008824 -0.037998
v 0.008037 0.012297 -0.046593
v 0.002841 0.013585 -0.054161
v -0.012549 0.032700 -0.049528
v -0.020956 0.029166 -0.047866
v -0.026153 0.024835 -0.041527
v -0.026153 0.021362 -0.032931
v -0.020956 0.020074 -0.025363
v -0.012549 0.021462 -0.021712
v -0.004141 0.024996 -0.023374
v 0.001055 0.029327 -0.029713
v 0.001055 0.032800 -0.038309
v -0.004141 0.034088 -0.045877
v -0.038038 0.078931 -0.015583
v -0.046842 0.078783 -0.018485
v -0.052282 0.077448 -0.025871
v -0.052282 0.075437 -0.034921
v -0.046842 0.073519 -0.042177
v -0.038038 0.072425 -0.044869
v -0.029235 0.072574 -0.041967
v -0.023794 0.073908 -0.034581
v -0.023794 0.075919 -0.025531
v -0.029235 0.077838 -0.018275
v -0.042435 0.000861 0.001762
v -0.051238 0.000712 -0.001139
v -0.056679 -0.000623 -0.008525
v -0.056679 -0.002633 -0.017575
v -0.051238 -0.004552 -0.024832
v -0.042435 -0.005646 -0.027524
v -0.033631 -0.005497 -0.024622
v -0.028190 -0.004162 -0.017236
v -0.028190 -0.002152 -0.008186
v -0.033631 -0.000233 -0.000929
v -0.042435 -0.015198 -0.005069
v -0.050070 -0.015048 -0.010324
v -0.054789 -0.010064 -0.016556
v -0.054789 -0.002150 -0.021384
v -0.050070 0.005671 -0.022964
v -0.042435 0.010413 -0.020692
v -0.034799 0.010263 -0.015437
v -0.030080 0.005280 -0.009205
v -0.030080 -0.002635 -0.004377
v -0.034799 -0.010456 -0.002797
v -0.028930 -0.027379 -0.025037
v -0.036565 -0.027229 -0.030292
v -0.041284 -0.022246 -0.036524
v -0.041284 -0.014332 -0.041352
v -0.036565 -0.006510 -0.042932
v -0.028930 -0.001768 -0.040661
v -0.021294 -0.001918 -0.035405
v -0.016575 -0.006902 -0.029173
v -0.016575 -0.014816 -0.024345
v -0.021294 -0.022638 -0.022765
v -0.028930 -0.025255 -0.043381
v -0.037508 -0.021784 -0.042820
v -0.042809 -0.015560 -0.038450
v -0.042809 -0.008959 -0.031941
v -0.037508 -0.004503 -0.025779
v -0.028930 -0.003893 -0.022317
v -0.020351 -0.007363 -0.022878
v -0.015050 -0.013588 -0.027247
v -0.015050 -0.020189 -0.033756
v -0.020351 -0.024645 -0.039919
v -0.023644 -0.009626 -0.059230
v -0.032222 -0.006156 -0.058669
v -0.037523 0.000069 -0.054300
v -0.037523 0.006670 -0.047791
v -0.032222 0.011126 -0.041628
v -0.023644 0.011736 -0.038166
v -0.015065 0.008265 -0.038727
v -0.009764 0.002041 -0.043097
v -0.009764 -0.004560 -0.049606
v -0.015065 -0.009016 -0.055768
v -0.023644 0.007344 -0.062316
v -0.031856 0.003231 -0.061060
v -0.036932 -0.001714 -0.055083
v -0.036932 -0.005601 -0.046666
v -0.031856 -0.006946 -0.039026
v -0.023644 -0.005235 -0.035080
v -0.015431 -0.001121 -0.036336
v -0.010356 0.003823 -0.042314
v -0.010356 0.007710 -0.050730
v -0.015431 0.009055 -0.058370
v -0.030684 0.023708 -0.054758
v -0.038897 0.019595 -0.053502
v -0.043972 0.014650 -0.047525
v -0.043972 0.010763 -0.039109
v -0.038897 0.009418 -0.031468
v -0.030684 0.011129 -0.027523
v -0.022472 0.015243 -0.028778
v -0.017396 0.020187 -0.034756
v -0.017396 0.024074 -0.043172
v -0.022472 0.025419 -0.050812
f 1 2 13
f 2 14 13
f 2 3 14
f 3 15 14
f 3 4 15
f 4 16 15
f 4 5 16
f 5 17 16
f 5 6 17
f 6 18 17
f 6 7 18
f 7 19 18
f 7 8 19
f 8 20 19
f 8 9 20
f 9 21 20
f 9 10 21
f 10 22 21
f 10 11 22
f 11 23 22
f 11 12 23
f 12 24 23
f 13 14 25
f 14 26 25
f 14 15 26
f 15 27 26
f 15 16 27
f 16 28 27
f 16 17 28
f 17 29 28
f 17 18 29
f 18 30 29
f 18 19 30
f 19 31 30
f 19 20 31
f 20 32 31
f 20 21 32
f 21 33 32
f 21 22 33
f 22 34 33
f 22 23 34
f 23 35 34
f 23 24 35
f 24 36 35
f 25 26 37
f 26 38 37
f 26 27 38
f 27 39 38
f 27 28 39
f 28 40 39
f 28 29 40
f 29 41 40
f 29 30 41
f 30 42 41
f 30 31 42
f 31 43 42
f 31 32 43
f 32 44 43
f 32 33 44
f 33 45 44
f 33 34 45
f 34 46 45
f 34 35 46
f 35 47 46
f 35 36 47
f 36 48 47
f 37 38 49
f 38 50 49
f 38 39 50
f 39 51 50
f 39 40 51
f 40 52 51
f 40 41 52
f 41 53 52
f 41 42 53
f 42 54 53
f 42 43 54
f 43 55 54
f 43 44 55
f 44 56 55
f 44 45 56
f 45 57 56
f 45 46 57
f 46 58 57
f 46 47 58
f 47 59 58
f 47 48 59
f 48 60 59
f 49 50 61
f 50 62 61
f 50 51 62
f 51 63 62
f 51 52 63
f 52 64 63
f 52 53 64
f 53 65 64
f 53 54 65
f 54 66 65
f 54 55 66
f 55 67 66
f 55 56 67
f 56 68 67
f 56 57 68
f 57 69 68
f 57 58 69
f 58 70 69
f 58 59 70
f 59 71 70
f 59 60 71
f 60 72 71
f 61 62 73
f 62 74 73
f 62 63 74
f 63 75 74
f 63 64 75
f 64 76 75
f 64 65 76
f 65 77 76
f 65 66 77
f 66 78 77
f 66 67 78
f 67 79 78
f 67 68 79
f 68 80 79
f 68 69 80
f 69 81 80
f 69 70 81
f 70 82 81
f 70 71 82
f 71 83 82
f 71 72 83
f 72 84 83
f 73 74 85
f 74 86 85
f 74 75 86
f 75 87 86
f 75 76 87
f 76 88 87
f 76 77 88
f 77 89 88
f 77 78 89
f 78 90 89
f 78 79 90
f 79 91 90
f 79 80 91
f 80 92 91
f 80 81 92
f 81 93 92
f 81 82 93
f 82 94 93
f 82 83 94
f 83 95 94
f 83 84 95
f 84 96 95
f 85 86 97
f 86 98 97
f 86 87 98
f 87 99 98
f 87 88 99
f 88 100 99
f 88 89 100
f 89 101 100
f 89 90 101
f 90 102 101
f 90 91 102
f 91 103 102
f 91 92 103
f 92 104 103
f 92 93 104
f 93 105 104
f 93 94 105
f 94 106 105
f 94 95 106
f 95 107 106
f 95 96 107
f 96 108 107
f 97 98 109
f 98 110 109
f 98 99 110
f 99 111 110
f 99 100 111
f 100 112 111
f 100 101 112
f 101 113 112
f 101 102 113
f 102 114 113
f 102 103 114
f 103 115 114
f 103 104 115
f 104 116 115
f 104 105 116
f 105 117 116
f 105 106 117
f 106 118 117
f 106 107 118
f 107 119 118
f 107 108 119
f 108 120 119
f 109 110 121
f 110 122 121
f 110 111 122
f 111 123 122
f 111 112 123
f 112 124 123
f 112 113 124
f 113 125 124
f 113 114 125
f 114 126 125
f 114 115 126
f 115 127 126
f 115 116 127
f 116 128 127
f 116 117 128
f 117 129 128
f 117 118 129
f 118 130 129
f 118 119 130
f 119 131 130
f 119 120 131
f 120 132 131
f 121 122 133
f 122 134 133
f 122 123 134
f 123 135 134
f 123 124 135
f 124 136 135
f 124 125 136
f 125 137 136
f 125 126 137
f 126 138 137
f 126 127 138
f 127 139 138
f 127 128 139
f 128 140 139
f 128 129 140
f 129 141 140
f 129 130 141
f 130 142 141
f 130 131 142
f 131 143 142
f 131 132 143
f 132 144 143
f 145 146 155
f 146 156 155
f 146 147 156
f 147 157 156
f 147 148 157
f 148 158 157
f 148 149 158
f 149 159 158
f 149 150 159
f 150 160 159
f 150 151 160
f 151 161 160
f 151 152 161
f 152 162 161
f 152 153 162
f 153 163 162
f 153 154 163
f 154 164 163
f 154 145 164
f 145 155 164
f 165 166 175
f 166 176 175
f 166 167 176
f 167 177 176
f 167 168 177
f 168 178 177
f 168 169 178
f 169 179 178
f 169 170 179
f 170 180 179
f 170 171 180
f 171 181 180
f 171 172 181
f 172 182 181
f 172 173 182
f 173 183 182
f 173 174 183
f 174 184 183
f 174 165 184
f 165 175 184
f 185 186 195
f 186 196 195
f 186 187 196
f 187 197 196
f 187 188 197
f 188 198 197
f 188 189 198
f 189 199 198
f 189 190 199
f 190 200 199
f 190 191 200
f 191 201 200
f 191 192 201
f 192 202 201
f 192 193 202
f 193 203 202
f 193 194 203
f 194 204 203
f 194 185 204
f 185 195 204
f 205 206 215
f 206 216 215
f 206 207 216
f 207 217 216
f 207 208 217
f 208 218 217
f 208 209 218
f 209 219 218
f 209 210 219
f 210 220 219
f 210 211 220
f 211 221 220
f 211 212 221
f 212 222 221
f 212 213 222
f 213 223 222
f 213 214 223
f 214 224 223
f 214 205 224
f 205 215 224
f 225 226 235
f 226 236 235
f 226 227 236
f 227 237 236
f 227 228 237
f 228 238 237
f 228 229 238
f 229 239 238
f 229 230 239
f 230 240 239
f 230 231 240
f 231 241 240
f 231 232 241
f 232 242 241
f 232 233 242
f 233 243 242
f 233 234 243
f 234 244 243
f 234 225 244
f 225 235 244
f 245 246 255
f 246 256 255
f 246 247 256
f 247 257 256
f 247 248 257
f 248 258 257
f 248 249 258
f 249 259 258
f 249 250 259
f 250 260 259
f 250 251 260
f 251 261 260
f 251 252 261
f 252 262 261
f 252 253 262
f 253 263 262
f 253 254 263
f 254 264 263
f 254 245 264
f 245 255 264
f 265 266 275
f 266 276 275
f 266 267 276
f 267 277 276
f 267 268 277
f 268 278 277
f 268 269 278
f 269 279 278
f 269 270 279
f 270 280 279
f 270 271 280
f 271 281 280
f 271 272 281
f 272 282 281
f 272 273 282
f 273 283 282
f 273 274 283
f 274 284 283
f 274 265 284
f 265 275 284
f 285 286 295
f 286 296 295
f 286 287 296
f 287 297 296
f 287 288 297
f 288 298 297
f 288 289 298
f 289 299 298
f 289 290 299
f 290 300 299
f 290 291 300
f 291 301 300
f 291 292 301
f 292 302 301
f 292 293 302
f 293 303 302
f 293 294 303
f 294 304 303
f 294 285 304
f 285 295 304
f 305 306 315
f 306 316 315
f 306 307 316
f 307 317 316
f 307 308 317
f 308 318 317
f 308 309 318
f 309 319 318
f 309 310 319
f 310 320 319
f 310 311 320
f 311 321 320
f 311 312 321
f 312 322 321
f 312 313 322
f 313 323 322
f 313 314 323
f 314 324 323
f 314 305 324
f 305 315 324
f 325 326 335
f 326 336 335
f 326 327 336
f 327 337 336
f 327 328 337
f 328 338 337
f 328 329 338
f 329 339 338
f 329 330 339
f 330 340 339
f 330 331 340
f 331 341 340
f 331 332 341
f 332 342 341
f 332 333 342
f 333 343 342
f 333 334 343
f 334 344 343
f 334 325 344
f 325 335 344
f 345 346 355
f 346 356 355
f 346 347 356
f 347 357 356
f 347 348 357
f 348 358 357
f 348 349 358
f 349 359 358
f 349 350 359
f 350 360 359
f 350 351 360
f 351 361 360
f 351 352 361
f 352 362 361
f 352 353 362
f 353 363 362
f 353 354 363
f 354 364 363
f 354 345 364
f 345 355 364
f 365 366 375
f 366 376 375
f 366 367 376
f 367 377 376
f 367 368 377
f 368 378 377
f 368 369 378
f 369 379 378
f 369 370 379
f 370 380 379
f 370 371 380
f 371 381 380
f 371 372 381
f 372 382 381
f 372 373 382
f 373 383 382
f 373 374 383
f 374 384 383
f 374 365 384
f 365 375 384
f 385 386 395
f 386 396 395
f 386 387 396
f 387 397 396
f 387 388 397
f 388 398 397
f 388 389 398
f 389 399 398
f 389 390 399
f 390 400 399
f 390 391 400
f 391 401 400
f 391 392 401
f 392 402 401
f 392 393 402
f 393 403 402
f 393 394 403
f 394 404 403
f 394 385 404
f 385 395 404
f 405 406 415
f 406 416 415
f 406 407 416
f 407 417 416
f 407 408 417
f 408 418 417
f 408 409 418
f 409 419 418
f 409 410 419
f 410 420 419
f 410 411 420
f 411 421 420
f 411 412 421
f 412 422 421
f 412 413 422
f 413 423 422
f 413 414 423
f 414 424 423
f 414 405 424
f 405 415 424
f 425 426 435
f 426 436 435
f 426 427 436
f 427 437 436
f 427 428 437
f 428 438 437
f 428 429 438
f 429 439 438
f 429 430 439
f 430 440 439
f 430 431 440
f 431 441 440
f 431 432 441
f 432 442 441
f 432 433 442
f 433 443 442
f 433 434 443
f 434 444 443
f 434 425 444
f 425 435 444
f 445 446 455
f 446 456 455
f 446 447 456
f 447 457 456
f 447 448 457
f 448 458 457
f 448 449 458
f 449 459 458
f 449 450 459
f 450 460 459
f 450 451 460
f 451 461 460
f 451 452 461
f 452 462 461
f 452 453 462
f 453 463 462
f 453 454 463
f 454 464 463
f 454 445 464
f 445 455 464
f 465 466 475
f 466 476 475
f 466 467 476
f 467 477 476
f 467 468 477
f 468 478 477
f 468 469 478
f 469 479 478
f 469 470 479
f 470 480 479
f 470 471 480
f 471 481 480
f 471 472 481
f 472 482 481
f 472 473 482
f 473 483 482
f 473 474 483
f 474 484 483
f 474 465 484
f 465 475 484
f 485 486 495
f 486 496 495
f 486 487 496
f 487 497 496
f 487 488 497
f 488 498 497
f 488 489 498
f 489 499 498
f 489 490 499
f 490 500 499
f 490 491 500
f 491 501 500
f 491 492 501
f 492 502 501
f 492 493 502
f 493 503 502
f 493 494 503
f 494 504 503
f 494 485 504
f 485 495 504
f 505 506 515
f 506 516 515
f 506 507 516
f 507 517 516
f 507 508 517
f 508 518 517
f 508 509 518
f 509 519 518
f 509 510 519
f 510 520 519
f 510 511 520
f 511 521 520
f 511 512 521
f 512 522 521
f 512 513 522
f 513 523 522
f 513 514 523
f 514 524 523
f 514 505 524
f 505 515 524
f 525 526 535
f 526 536 535
f 526 527 536
f 527 537 536
f 527 528 537
f 528 538 537
f 528 529 538
f 529 539 538
f 529 530 539
f 530 540 539
f 530 531 540
f 531 541 540
f 531 532 541
f 532 542 541
f 532 533 542
f 533 543 542
f 533 534 543
f 534 544 543
f 534 525 544
f 525 535 544
f 545 546 555
f 546 556 555
f 546 547 556
f 547 557 556
f 547 548 557
f 548 558 557
f 548 549 558
f 549 559 558
f 549 550 559
f 550 560 559
f 550 551 560
f 551 561 560
f 551 552 561
f 552 562 561
f 552 553 562
f 553 563 562
f 553 554 563
f 554 564 563
f 554 545 564
f 545 555 564
f 565 566 575
f 566 576 575
f 566 567 576
f 567 577 576
f 567 568 577
f 568 578 577
f 568 569 578
f 569 579 578
f 569 570 579
f 570 580 579
f 570 571 580
f 571 581 580
f 571 572 581
f 572 582 581
f 572 573 582
f 573 583 582
f 573 574 583
f 574 584 583
f 574 565 584
f 565 575 584
f 585 586 595
f 586 596 595
f 586 587 596
f 587 597 596
f 587 588 597
f 588 598 597
f 588 589 598
f 589 599 598
f 589 590 599
f 590 600 599
f 590 591 600
f 591 601 600
f 591 592 601
f 592 602 601
f 592 593 602
f 593 603 602
f 593 594 603
f 594 604 603
f 594 585 604
f 585 595 604
f 605 606 615
f 606 616 615
f 606 607 616
f 607 617 616
f 607 608 617
f 608 618 617
f 608 609 618
f 609 619 618
f 609 610 619
f 610 620 619
f 610 611 620
f 611 621 620
f 611 612 621
f 612 622 621
f 612 613 622
f 613 623 622
f 613 614 623
f 614 624 623
f 614 605 624
f 605 615 624
f 625 626 635
f 626 636 635
f 626 627 636
f 627 637 636
f 627 628 637
f 628 638 637
f 628 629 638
f 629 639 638
f 629 630 639
f 630 640 639
f 630 631 640
f 631 641 640
f 631 632 641
f 632 642 641
f 632 633 642
f 633 643 642
f 633 634 643
f 634 644 643
f 634 625 644
f 625 635 644
f 645 646 655
f 646 656 655
f 646 647 656
f 647 657 656
f 647 648 657
f 648 658 657
f 648 649 658
f 649 659 658
f 649 650 659
f 650 660 659
f 650 651 660
f 651 661 660
f 651 652 661
f 652 662 661
f 652 653 662
f 653 663 662
f 653 654 663
f 654 664 663
f 654 645 664
f 645 655 664
f 665 666 675
f 666 676 675
f 666 667 676
f 667 677 676
f 667 668 677
f 668 678 677
f 668 669 678
f 669 679 678
f 669 670 679
f 670 680 679
f 670 671 680
f 671 681 680
f 671 672 681
f 672 682 681
f 672 673 682
f 673 683 682
f 673 674 683
f 674 684 683
f 674 665 684
f 665 675 684
f 685 686 695
f 686 696 695
f 686 687 696
f 687 697 696
f 687 688 697
f 688 698 697
f 688 689 698
f 689 699 698
f 689 690 699
f 690 700 699
f 690 691 700
f 691 701 700
f 691 692 701
f 692 702 701
f 692 693 702
f 693 703 702
f 693 694 703
f 694 704 703
f 694 685 704
f 685 695 704
f 705 706 715
f 706 716 715
f 706 707 716
f 707 717 716
f 707 708 717
f 708 718 717
f 708 709 718
f 709 719 718
f 709 710 719
f 710 720 719
f 710 711 720
f 711 721 720
f 711 712 721
f 712 722 721
f 712 713 722
f 713 723 722
f 713 714 723
f 714 724 723
f 714 705 724
f 705 715 724
f 725 726 735
f 726 736 735
f 726 727 736
f 727 737 736
f 727 728 737
f 728 738 737
f 728 729 738
f 729 739 738
f 729 730 739
f 730 740 739
f 730 731 740
f 731 741 740
f 731 732 741
f 732 742 741
f 732 733 742
f 733 743 742
f 733 734 743
f 734 744 743
f 734 725 744
f 725 735 744
f 745 746 755
f 746 756 755
f 746 747 756
f 747 757 756
f 747 748 757
f 748 758 757
f 748 749 758
f 749 759 758
f 749 750 759
f 750 760 759
f 750 751 760
f 751 761 760
f 751 752 761
f 752 762 761
f 752 753 762
f 753 763 762
f 753 754 763
f 754 764 763
f 754 745 764
f 745 755 764
f 765 766 775
f 766 776 775
f 766 767 776
f 767 777 776
f 767 768 777
f 768 778 777
f 768 769 778
f 769 779 778
f 769 770 779
f 770 780 779
f 770 771 780
f 771 781 780
f 771 772 781
f 772 782 781
f 772 773 782
f 773 783 782
f 773 774 783
f 774 784 783
f 774 765 784
f 765 775 784
