# Full-Body 3D Mesh - Frame 46
v 0.029710 -0.633063 -0.087772
v 0.063518 -0.633063 -0.092633
v 0.094587 -0.633063 -0.106821
v 0.120400 -0.633063 -0.129189
v 0.138866 -0.633063 -0.157922
v 0.148489 -0.633063 -0.190694
v 0.148489 -0.633063 -0.224850
v 0.138866 -0.633063 -0.257622
v 0.120400 -0.633063 -0.286355
v 0.094587 -0.633063 -0.308722
v 0.063518 -0.633063 -0.322911
v 0.029710 -0.633063 -0.327772
v 0.029710 -0.633063 -0.087772
v 0.058151 -0.614785 -0.092633
v 0.084288 -0.597988 -0.106821
v 0.106003 -0.584032 -0.129189
v 0.121538 -0.574049 -0.157922
v 0.129633 -0.568846 -0.190694
v 0.129633 -0.568846 -0.224850
v 0.121538 -0.574049 -0.257622
v 0.106003 -0.584032 -0.286355
v 0.084288 -0.597988 -0.308722
v 0.058151 -0.614785 -0.322911
v 0.029710 -0.633063 -0.327772
v 0.029710 -0.633063 -0.087772
v 0.043754 -0.602310 -0.092633
v 0.056661 -0.574049 -0.106821
v 0.067384 -0.550568 -0.129189
v 0.075055 -0.533771 -0.157922
v 0.079052 -0.525018 -0.190694
v 0.079052 -0.525018 -0.224850
v 0.075055 -0.533771 -0.257622
v 0.067384 -0.550568 -0.286355
v 0.056661 -0.574049 -0.308722
v 0.043754 -0.602310 -0.322911
v 0.029710 -0.633063 -0.327772
v 0.029710 -0.633063 -0.087772
v 0.024899 -0.599599 -0.092633
v 0.020477 -0.568846 -0.106821
v 0.016803 -0.543296 -0.129189
v 0.014175 -0.525018 -0.157922
v 0.012806 -0.515493 -0.190694
v 0.012806 -0.515493 -0.224850
v 0.014175 -0.525018 -0.257622
v 0.016803 -0.543296 -0.286355
v 0.020477 -0.568846 -0.308722
v 0.024899 -0.599599 -0.322911
v 0.029710 -0.633063 -0.327772
v 0.029710 -0.633063 -0.087772
v 0.007570 -0.607513 -0.092633
v -0.012775 -0.584032 -0.106821
v -0.029679 -0.564524 -0.129189
v -0.041772 -0.550568 -0.157922
v -0.048073 -0.543296 -0.190694
v -0.048073 -0.543296 -0.224850
v -0.041772 -0.550568 -0.257622
v -0.029679 -0.564524 -0.286355
v -0.012775 -0.584032 -0.308722
v 0.007570 -0.607513 -0.322911
v 0.029710 -0.633063 -0.327772
v 0.029710 -0.633063 -0.087772
v -0.002729 -0.623538 -0.092633
v -0.032539 -0.614785 -0.106821
v -0.057306 -0.607513 -0.129189
v -0.075024 -0.602310 -0.157922
v -0.084257 -0.599599 -0.190694
v -0.084257 -0.599599 -0.224850
v -0.075024 -0.602310 -0.257622
v -0.057306 -0.607513 -0.286355
v -0.032539 -0.614785 -0.308722
v -0.002729 -0.623538 -0.322911
v 0.029710 -0.633063 -0.327772
v 0.029710 -0.633063 -0.087772
v -0.002729 -0.642588 -0.092633
v -0.032539 -0.651341 -0.106821
v -0.057306 -0.658613 -0.129189
v -0.075024 -0.663816 -0.157922
v -0.084257 -0.666527 -0.190694
v -0.084257 -0.666527 -0.224850
v -0.075024 -0.663816 -0.257622
v -0.057306 -0.658613 -0.286355
v -0.032539 -0.651341 -0.308722
v -0.002729 -0.642588 -0.322911
v 0.029710 -0.633063 -0.327772
v 0.029710 -0.633063 -0.087772
v 0.007570 -0.658613 -0.092633
v -0.012775 -0.682094 -0.106821
v -0.029679 -0.701602 -0.129189
v -0.041772 -0.715557 -0.157922
v -0.048073 -0.722830 -0.190694
v -0.048073 -0.722830 -0.224850
v -0.041772 -0.715557 -0.257622
v -0.029679 -0.701602 -0.286355
v -0.012775 -0.682094 -0.308722
v 0.007570 -0.658613 -0.322911
v 0.029710 -0.633063 -0.327772
v 0.029710 -0.633063 -0.087772
v 0.024899 -0.666527 -0.092633
v 0.020477 -0.697279 -0.106821
v 0.016803 -0.722830 -0.129189
v 0.014175 -0.741108 -0.157922
v 0.012806 -0.750632 -0.190694
v 0.012806 -0.750632 -0.224850
v 0.014175 -0.741108 -0.257622
v 0.016803 -0.722830 -0.286355
v 0.020477 -0.697279 -0.308722
v 0.024899 -0.666527 -0.322911
v 0.029710 -0.633063 -0.327772
v 0.029710 -0.633063 -0.087772
v 0.043754 -0.663816 -0.092633
v 0.056661 -0.692077 -0.106821
v 0.067384 -0.715557 -0.129189
v 0.075055 -0.732355 -0.157922
v 0.079052 -0.741108 -0.190694
v 0.079052 -0.741108 -0.224850
v 0.075055 -0.732355 -0.257622
v 0.067384 -0.715557 -0.286355
v 0.056661 -0.692077 -0.308722
v 0.043754 -0.663816 -0.322911
v 0.029710 -0.633063 -0.327772
v 0.029710 -0.633063 -0.087772
v 0.058151 -0.651341 -0.092633
v 0.084288 -0.668138 -0.106821
v 0.106003 -0.682094 -0.129189
v 0.121538 -0.692077 -0.157922
v 0.129633 -0.697279 -0.190694
v 0.129633 -0.697279 -0.224850
v 0.121538 -0.692077 -0.257622
v 0.106003 -0.682094 -0.286355
v 0.084288 -0.668138 -0.308722
v 0.058151 -0.651341 -0.322911
v 0.029710 -0.633063 -0.327772
v 0.029710 -0.633063 -0.087772
v 0.063518 -0.633063 -0.092633
v 0.094587 -0.633063 -0.106821
v 0.120400 -0.633063 -0.129189
v 0.138866 -0.633063 -0.157922
v 0.148489 -0.633063 -0.190694
v 0.148489 -0.633063 -0.224850
v 0.138866 -0.633063 -0.257622
v 0.120400 -0.633063 -0.286355
v 0.094587 -0.633063 -0.308722
v 0.063518 -0.633063 -0.322911
v 0.029710 -0.633063 -0.327772
v 0.177003 -0.451318 -0.066671
v 0.176392 -0.474821 -0.059028
v 0.176102 -0.489346 -0.039026
v 0.176244 -0.489346 -0.014305
v 0.176763 -0.474821 0.005692
v 0.177462 -0.451318 0.013328
v 0.178074 -0.427816 0.005685
v 0.178364 -0.413291 -0.014317
v 0.178222 -0.413291 -0.039038
v 0.177702 -0.427816 -0.059035
v -0.158697 -0.441960 -0.064743
v -0.159309 -0.465462 -0.057100
v -0.159599 -0.479987 -0.037098
v -0.159457 -0.479987 -0.012377
v -0.158937 -0.465462 0.007620
v -0.158238 -0.441960 0.015256
v -0.157627 -0.418457 0.007613
v -0.157337 -0.403932 -0.012389
v -0.157479 -0.403932 -0.037110
v -0.157998 -0.418457 -0.057108
v 0.177233 -0.479545 -0.055013
v 0.155056 -0.468620 -0.055112
v 0.141351 -0.451087 -0.044347
v 0.141351 -0.433642 -0.026831
v 0.155056 -0.422949 -0.009254
v 0.177233 -0.423092 0.001670
v 0.199409 -0.434016 0.001769
v 0.213115 -0.451550 -0.008996
v 0.213115 -0.468995 -0.026512
v 0.199409 -0.479688 -0.044089
v 0.262645 -0.307710 -0.226149
v 0.240469 -0.296785 -0.226248
v 0.226763 -0.279252 -0.215483
v 0.226763 -0.261807 -0.197967
v 0.240469 -0.251114 -0.180390
v 0.262645 -0.251257 -0.169466
v 0.284821 -0.262182 -0.169367
v 0.298527 -0.279715 -0.180132
v 0.298527 -0.297160 -0.197648
v 0.284821 -0.307853 -0.215225
v 0.262645 -0.316225 -0.181993
v 0.242528 -0.304396 -0.173836
v 0.230095 -0.283052 -0.174835
v 0.230095 -0.260345 -0.184608
v 0.242528 -0.244948 -0.199424
v 0.262645 -0.242743 -0.213622
v 0.282762 -0.254571 -0.221780
v 0.295195 -0.275915 -0.220781
v 0.295195 -0.298622 -0.211007
v 0.282762 -0.314019 -0.196191
v 0.088083 -0.430313 -0.447048
v 0.067966 -0.418485 -0.438890
v 0.055533 -0.397141 -0.439889
v 0.055533 -0.374434 -0.449663
v 0.067966 -0.359037 -0.464479
v 0.088083 -0.356831 -0.478677
v 0.108200 -0.368660 -0.486834
v 0.120633 -0.390004 -0.485835
v 0.120633 -0.412711 -0.476061
v 0.108200 -0.428108 -0.461246
v -0.158468 -0.445257 -0.064608
v -0.181931 -0.446121 -0.056871
v -0.196433 -0.445396 -0.036862
v -0.196433 -0.443359 -0.012225
v -0.181931 -0.440787 0.007630
v -0.158468 -0.438663 0.015120
v -0.135004 -0.437798 0.007383
v -0.120503 -0.438523 -0.012625
v -0.120503 -0.440561 -0.037262
v -0.135004 -0.443133 -0.057118
v -0.173135 -0.216530 -0.083524
v -0.196598 -0.217395 -0.075787
v -0.211099 -0.216670 -0.055779
v -0.211099 -0.214633 -0.031142
v -0.196598 -0.212061 -0.011286
v -0.173135 -0.209937 -0.003796
v -0.149671 -0.209072 -0.011533
v -0.135170 -0.209797 -0.031542
v -0.135170 -0.211834 -0.056179
v -0.149671 -0.214406 -0.076034
v -0.173135 -0.247971 -0.063493
v -0.196635 -0.241685 -0.059095
v -0.211160 -0.224532 -0.048801
v -0.211160 -0.203063 -0.036544
v -0.196635 -0.185479 -0.027005
v -0.173135 -0.178496 -0.023828
v -0.149634 -0.184782 -0.028226
v -0.135109 -0.201935 -0.038519
v -0.135109 -0.223404 -0.050776
v -0.149634 -0.240988 -0.060315
v -0.179246 -0.146647 -0.240967
v -0.202747 -0.140361 -0.236569
v -0.217271 -0.123208 -0.226276
v -0.217271 -0.101739 -0.214019
v -0.202747 -0.084155 -0.204480
v -0.179246 -0.077172 -0.201303
v -0.155745 -0.083458 -0.205701
v -0.141220 -0.100612 -0.215994
v -0.141220 -0.122080 -0.228251
v -0.155745 -0.139664 -0.237790
v 0.177233 -0.447940 -0.066528
v 0.153840 -0.450936 -0.059116
v 0.139382 -0.454078 -0.039310
v 0.139382 -0.456166 -0.014677
v 0.153840 -0.456402 0.005374
v 0.177233 -0.454697 0.013186
v 0.200625 -0.451701 0.005773
v 0.215083 -0.448559 -0.014033
v 0.215083 -0.446471 -0.038666
v 0.200625 -0.446234 -0.058717
v 0.132130 -0.002304 -0.028755
v 0.108737 -0.005300 -0.021342
v 0.094280 -0.008442 -0.001536
v 0.094280 -0.010530 0.023097
v 0.108737 -0.010767 0.043148
v 0.132130 -0.009061 0.050960
v 0.155523 -0.006065 0.043547
v 0.169980 -0.002923 0.023741
v 0.169980 -0.000835 -0.000892
v 0.155523 -0.000599 -0.020943
v -0.158468 -0.440350 -0.064711
v -0.181936 -0.439229 -0.057021
v -0.196440 -0.439152 -0.037001
v -0.196440 -0.440146 -0.012300
v -0.181936 -0.441834 0.007648
v -0.158468 -0.443569 0.015224
v -0.135000 -0.444690 0.007533
v -0.120496 -0.444768 -0.012486
v -0.120496 -0.443773 -0.037188
v -0.135000 -0.442086 -0.057136
v -0.132517 -0.014567 -0.047564
v -0.155985 -0.013446 -0.039874
v -0.170489 -0.013369 -0.019854
v -0.170489 -0.014363 0.004847
v -0.155985 -0.016051 0.024795
v -0.132517 -0.017786 0.032371
v -0.109049 -0.018907 0.024680
v -0.094545 -0.018985 0.004661
v -0.094545 -0.017990 -0.020040
v -0.109049 -0.016302 -0.039989
v 0.134949 -0.005683 -0.028798
v 0.135338 -0.029176 -0.021112
v 0.134501 -0.043695 -0.001122
v 0.132759 -0.043695 0.023538
v 0.130776 -0.029176 0.043448
v 0.129311 -0.005683 0.051003
v 0.128922 0.017810 0.043317
v 0.129759 0.032330 0.023326
v 0.131501 0.032330 -0.001333
v 0.133484 0.017810 -0.021243
v -0.129698 -0.016177 -0.047497
v -0.129309 -0.039670 -0.039811
v -0.130146 -0.054189 -0.019821
v -0.131888 -0.054189 0.004839
v -0.133871 -0.039670 0.024749
v -0.135336 -0.016177 0.032304
v -0.135724 0.007316 0.024618
v -0.134888 0.021836 0.004627
v -0.133145 0.021836 -0.020032
v -0.131163 0.007316 -0.039942
v 0.132130 -0.029279 -0.021196
v 0.108753 -0.022747 -0.016508
v 0.094305 -0.009697 -0.001273
v 0.094305 0.004886 0.018689
v 0.108753 0.015433 0.035753
v 0.132130 0.017914 0.043401
v 0.155507 0.011382 0.038712
v 0.169955 -0.001669 0.023478
v 0.169955 -0.016252 0.003516
v 0.155507 -0.026798 -0.013548
v 0.145693 0.072782 -0.095759
v 0.122316 0.079314 -0.091071
v 0.107868 0.092364 -0.075836
v 0.107868 0.106948 -0.055874
v 0.122316 0.117494 -0.038810
v 0.145693 0.119975 -0.031162
v 0.169070 0.113443 -0.035851
v 0.183518 0.100393 -0.051085
v 0.183518 0.085809 -0.071047
v 0.169070 0.075263 -0.088111
v 0.145693 0.122414 -0.093827
v 0.122282 0.119086 -0.086618
v 0.107812 0.107085 -0.070563
v 0.107812 0.090994 -0.051796
v 0.122282 0.076959 -0.037484
v 0.145693 0.070342 -0.033094
v 0.169104 0.073671 -0.040303
v 0.183573 0.085672 -0.056358
v 0.183573 0.101763 -0.075126
v 0.169104 0.115798 -0.089437
v 0.173336 0.349236 0.100648
v 0.149924 0.345908 0.107857
v 0.135455 0.333907 0.123912
v 0.135455 0.317816 0.142679
v 0.149924 0.303781 0.156991
v 0.173336 0.297164 0.161381
v 0.196747 0.300493 0.154171
v 0.211216 0.312494 0.138117
v 0.211216 0.328585 0.119349
v 0.196747 0.342620 0.105037
v -0.132517 -0.054033 0.005321
v -0.154739 -0.049283 -0.004413
v -0.168473 -0.031887 -0.015363
v -0.168473 -0.008491 -0.023347
v -0.154739 0.011970 -0.025314
v -0.132517 0.021680 -0.020515
v -0.110295 0.016930 -0.010780
v -0.096560 -0.000466 0.000170
v -0.096560 -0.023863 0.008153
v -0.110295 -0.044324 0.010121
v -0.069470 -0.112960 -0.167367
v -0.091693 -0.108210 -0.177101
v -0.105427 -0.090814 -0.188051
v -0.105427 -0.067418 -0.196035
v -0.091693 -0.046957 -0.198002
v -0.069470 -0.037247 -0.193202
v -0.047248 -0.041997 -0.183468
v -0.033514 -0.059393 -0.172518
v -0.033514 -0.082790 -0.164534
v -0.047248 -0.103251 -0.162567
v -0.069470 -0.074535 -0.220280
v -0.092972 -0.075322 -0.212652
v -0.107497 -0.076026 -0.192660
v -0.107497 -0.076377 -0.167941
v -0.092972 -0.076242 -0.147937
v -0.069470 -0.075672 -0.140289
v -0.045969 -0.074885 -0.147917
v -0.031444 -0.074182 -0.167909
v -0.031444 -0.073830 -0.192628
v -0.045969 -0.073965 -0.212632
v -0.077073 0.188800 -0.216538
v -0.100575 0.188013 -0.208909
v -0.115099 0.187309 -0.188917
v -0.115099 0.186958 -0.164198
v -0.100575 0.187093 -0.144194
v -0.077073 0.187663 -0.136546
v -0.053571 0.188450 -0.144175
v -0.039047 0.189153 -0.164167
v -0.039047 0.189505 -0.188886
v -0.053571 0.189370 -0.208890
v 0.079409 0.034963 0.007177
v 0.071762 0.036754 0.002253
v 0.067035 0.034423 -0.005374
v 0.067035 0.028861 -0.012790
v 0.071762 0.022191 -0.017163
v 0.079409 0.016962 -0.016822
v 0.087057 0.015171 -0.011897
v 0.091783 0.017502 -0.004270
v 0.091783 0.023064 0.003146
v 0.087057 0.029734 0.007518
v 0.061626 0.010167 0.025776
v 0.053979 0.011958 0.020851
v 0.049252 0.009627 0.013224
v 0.049252 0.004065 0.005808
v 0.053979 -0.002605 0.001435
v 0.061626 -0.007834 0.001776
v 0.069274 -0.009625 0.006701
v 0.074000 -0.007294 0.014328
v 0.074000 -0.001731 0.021744
v 0.069274 0.004938 0.026117
v 0.061626 0.013822 0.021829
v 0.055906 0.015007 0.014631
v 0.052370 0.010905 0.007106
v 0.052370 0.003084 0.002129
v 0.055906 -0.005470 0.001601
v 0.061626 -0.011488 0.005723
v 0.067346 -0.012673 0.012921
v 0.070882 -0.008572 0.020446
v 0.070882 -0.000750 0.025423
v 0.067346 0.007803 0.025951
v 0.034002 0.001178 0.041700
v 0.028282 0.002363 0.034501
v 0.024746 -0.001739 0.026976
v 0.024746 -0.009560 0.022000
v 0.028282 -0.018114 0.021471
v 0.034002 -0.024133 0.025594
v 0.039723 -0.025318 0.032792
v 0.043258 -0.021216 0.040317
v 0.043258 -0.013395 0.045294
v 0.039723 -0.004841 0.045822
v 0.034002 0.002984 0.029665
v 0.027676 -0.001408 0.024504
v 0.023766 -0.009646 0.022836
v 0.023766 -0.018584 0.025297
v 0.027676 -0.024808 0.030948
v 0.034002 -0.025939 0.037629
v 0.040329 -0.021547 0.042789
v 0.044239 -0.013309 0.044457
v 0.044239 -0.004371 0.041996
v 0.040329 0.001853 0.036346
v 0.014452 0.008331 0.049083
v 0.008125 0.003939 0.043922
v 0.004216 -0.004300 0.042254
v 0.004216 -0.013237 0.044715
v 0.008125 -0.019461 0.050366
v 0.014452 -0.020592 0.057047
v 0.020778 -0.016200 0.062207
v 0.024688 -0.007962 0.063875
v 0.024688 0.000976 0.061414
v 0.020778 0.007199 0.055764
v 0.014452 0.002410 0.040734
v 0.007889 -0.004061 0.039736
v 0.003833 -0.011323 0.043830
v 0.003833 -0.016602 0.051451
v 0.007889 -0.017881 0.059688
v 0.014452 -0.014672 0.065396
v 0.021015 -0.008200 0.066393
v 0.025070 -0.000938 0.062300
v 0.025070 0.004340 0.054679
v 0.021015 0.005619 0.046441
v 0.003247 0.012677 0.047845
v -0.003316 0.006205 0.046847
v -0.007372 -0.001057 0.050941
v -0.007372 -0.006335 0.058562
v -0.003316 -0.007614 0.066799
v 0.003247 -0.004405 0.072507
v 0.009810 0.002067 0.073504
v 0.013865 0.009328 0.069411
v 0.013865 0.014607 0.061790
v 0.009810 0.015886 0.053552
v 0.079409 0.031621 0.009070
v 0.075146 0.037688 0.003505
v 0.072512 0.039276 -0.005240
v 0.072512 0.035779 -0.013825
v 0.075146 0.028533 -0.018972
v 0.079409 0.020304 -0.018714
v 0.083672 0.014237 -0.013150
v 0.086307 0.012649 -0.004405
v 0.086307 0.016146 0.004181
v 0.083672 0.023392 0.009328
v 0.004769 -0.006564 0.024622
v 0.000506 -0.000497 0.019058
v -0.002129 0.001092 0.010312
v -0.002129 -0.002405 0.001727
v 0.000506 -0.009652 -0.003420
v 0.004769 -0.017880 -0.003162
v 0.009032 -0.023947 0.002402
v 0.011667 -0.025535 0.011147
v 0.011667 -0.022038 0.019733
v 0.009032 -0.014792 0.024880
v 0.004769 0.001803 0.016050
v -0.002014 0.001122 0.009767
v -0.006206 -0.004655 0.003852
v -0.006206 -0.013323 0.000564
v -0.002014 -0.021570 0.001159
v 0.004769 -0.026247 0.005410
v 0.011551 -0.025566 0.011693
v 0.015743 -0.019788 0.017608
v 0.015743 -0.011120 0.020896
v 0.011551 -0.002873 0.020301
v -0.006210 -0.002885 0.028410
v -0.012993 -0.003566 0.022127
v -0.017185 -0.009344 0.016212
v -0.017185 -0.018011 0.012924
v -0.012993 -0.026259 0.013520
v -0.006210 -0.030935 0.017771
v 0.000572 -0.030254 0.024053
v 0.004764 -0.024476 0.029968
v 0.004764 -0.015808 0.033256
v 0.000572 -0.007561 0.032661
v -0.006210 -0.002151 0.020412
v -0.014984 -0.005125 0.020069
v -0.020407 -0.012600 0.020881
v -0.020407 -0.021721 0.022536
v -0.014984 -0.029005 0.024403
v -0.006210 -0.031669 0.025768
v 0.002564 -0.028695 0.026111
v 0.007986 -0.021220 0.025300
v 0.007986 -0.012098 0.023645
v 0.002564 -0.004815 0.021778
v -0.008331 0.001677 0.041508
v -0.017105 -0.001297 0.041166
v -0.022528 -0.008772 0.041977
v -0.022528 -0.017893 0.043632
v -0.017105 -0.025177 0.045499
v -0.008331 -0.027841 0.046864
v 0.000443 -0.024867 0.047207
v 0.005865 -0.017392 0.046396
v 0.005865 -0.008270 0.044741
v 0.000443 -0.000987 0.042874
v -0.008331 0.001315 0.039976
v -0.016698 -0.000654 0.043449
v -0.021869 -0.007370 0.047203
v -0.021869 -0.016268 0.049805
v -0.016698 -0.023949 0.050261
v -0.008331 -0.027479 0.048397
v 0.000035 -0.025510 0.044924
v 0.005206 -0.018794 0.041169
v 0.005206 -0.009896 0.038567
v 0.000035 -0.002215 0.038111
v -0.003734 0.005198 0.053254
v -0.012101 0.003229 0.056727
v -0.017272 -0.003487 0.060482
v -0.017272 -0.012385 0.063084
v -0.012101 -0.020066 0.063539
v -0.003734 -0.023596 0.061675
v 0.004633 -0.021627 0.058202
v 0.009804 -0.014911 0.054447
v 0.009804 -0.006013 0.051845
v 0.004633 0.001668 0.051390
v 0.078229 0.025962 -0.019776
v 0.081258 0.017606 -0.017141
v 0.083581 0.012442 -0.009801
v 0.084311 0.012442 -0.000559
v 0.083168 0.017606 0.007054
v 0.080589 0.025962 0.010131
v 0.077560 0.034319 0.007497
v 0.075237 0.039483 0.000157
v 0.074508 0.039483 -0.009085
v 0.075651 0.034319 -0.016699
v -0.002540 -0.001307 -0.013401
v 0.000489 -0.009663 -0.010767
v 0.002812 -0.014828 -0.003427
v 0.003542 -0.014828 0.005815
v 0.002399 -0.009663 0.013428
v -0.000180 -0.001307 0.016506
v -0.003209 0.007049 0.013871
v -0.005532 0.012214 0.006531
v -0.006261 0.012214 -0.002711
v -0.005118 0.007049 -0.010324
v -0.001360 0.012860 0.006480
v -0.007553 0.012216 -0.000388
v -0.011380 0.006407 -0.006516
v -0.011380 -0.002349 -0.009561
v -0.007553 -0.010707 -0.008362
v -0.001360 -0.015474 -0.003376
v 0.004833 -0.014830 0.003493
v 0.008661 -0.009021 0.009620
v 0.008661 -0.000265 0.012666
v 0.004833 0.008093 0.011466
v -0.017722 0.007556 0.021730
v -0.023914 0.006912 0.014862
v -0.027742 0.001102 0.008734
v -0.027742 -0.007654 0.005689
v -0.023914 -0.016011 0.006888
v -0.017722 -0.020779 0.011874
v -0.011529 -0.020135 0.018742
v -0.007701 -0.014326 0.024870
v -0.007701 -0.005570 0.027915
v -0.011529 0.002788 0.026716
v -0.017722 0.007394 0.011431
v -0.026490 0.005050 0.013321
v -0.031909 -0.001748 0.016540
v -0.031909 -0.010404 0.019859
v -0.026490 -0.017611 0.022010
v -0.017722 -0.020617 0.022172
v -0.008953 -0.018274 0.020283
v -0.003534 -0.011475 0.017064
v -0.003534 -0.002819 0.013745
v -0.008953 0.004388 0.011593
v -0.015121 0.016221 0.034450
v -0.023889 0.013877 0.036340
v -0.029308 0.007079 0.039559
v -0.029308 -0.001577 0.042878
v -0.023889 -0.008785 0.045029
v -0.015121 -0.011791 0.045191
v -0.006353 -0.009447 0.043302
v -0.000934 -0.002649 0.040083
v -0.000934 0.006007 0.036764
v -0.006353 0.013215 0.034612
v -0.015121 0.017156 0.041145
v -0.022533 0.013881 0.045649
v -0.027113 0.006150 0.047926
v -0.027113 -0.003084 0.047108
v -0.022533 -0.010294 0.043506
v -0.015121 -0.012726 0.038496
v -0.007709 -0.009451 0.033993
v -0.003129 -0.001720 0.031715
v -0.003129 0.007514 0.032534
v -0.007709 0.014725 0.036136
v -0.007324 0.016088 0.053199
v -0.014736 0.012813 0.057703
v -0.019317 0.005082 0.059980
v -0.019317 -0.004153 0.059162
v -0.014736 -0.011363 0.055560
v -0.007324 -0.013795 0.050550
v 0.000087 -0.010520 0.046047
v 0.004668 -0.002788 0.043769
v 0.004668 0.006446 0.044587
v 0.000087 0.013656 0.048189
v 0.079789 0.025962 -0.019817
v 0.081509 0.017330 -0.016908
v 0.082427 0.011995 -0.009383
v 0.082192 0.011995 -0.000115
v 0.080894 0.017330 0.007355
v 0.079030 0.025962 0.010173
v 0.077310 0.034595 0.007264
v 0.076392 0.039930 -0.000262
v 0.076627 0.039930 -0.009529
v 0.077924 0.034595 -0.016999
v -0.002873 0.008790 -0.021910
v -0.001153 0.000157 -0.019001
v -0.000235 -0.005178 -0.011475
v -0.000470 -0.005178 -0.002208
v -0.001767 0.000157 0.005262
v -0.003632 0.008790 0.008080
v -0.005352 0.017422 0.005171
v -0.006270 0.022758 -0.002354
v -0.006035 0.022758 -0.011622
v -0.004737 0.017422 -0.019092
v -0.003252 0.023715 -0.008407
v -0.010762 0.020405 -0.012720
v -0.015403 0.012658 -0.014815
v -0.015403 0.003434 -0.013892
v -0.010762 -0.003745 -0.010305
v -0.003252 -0.006136 -0.005422
v 0.004257 -0.002825 -0.001110
v 0.008898 0.004921 0.000985
v 0.008898 0.014146 0.000062
v 0.004257 0.021325 -0.003525
v -0.015962 0.025771 0.012148
v -0.023471 0.022461 0.007835
v -0.028112 0.014714 0.005740
v -0.028112 0.005489 0.006663
v -0.023471 -0.001689 0.010250
v -0.015962 -0.004080 0.015132
v -0.008453 -0.000770 0.019445
v -0.003812 0.006977 0.021540
v -0.003812 0.016201 0.020617
v -0.008453 0.023380 0.017030
v -0.015962 0.025603 0.010955
v -0.024495 0.023182 0.013652
v -0.029768 0.016048 0.016344
v -0.029768 0.006928 0.018003
v -0.024495 -0.000697 0.017996
v -0.015962 -0.003913 0.016325
v -0.007429 -0.001491 0.013628
v -0.002156 0.005642 0.010936
v -0.002156 0.014763 0.009277
v -0.007429 0.022387 0.009284
v -0.009666 0.029935 0.034766
v -0.018199 0.027513 0.037463
v -0.023473 0.020380 0.040155
v -0.023473 0.011259 0.041814
v -0.018199 0.003635 0.041807
v -0.009666 0.000419 0.040136
v -0.001133 0.002840 0.037439
v 0.004140 0.009974 0.034747
v 0.004140 0.019095 0.033088
v -0.001133 0.026719 0.033095
v -0.009666 0.030135 0.038573
v -0.017253 0.026942 0.042839
v -0.021941 0.019255 0.045047
v -0.021941 0.010011 0.044353
v -0.017253 0.002740 0.041023
v -0.009666 0.000219 0.036329
v -0.002080 0.003412 0.032063
v 0.002609 0.011098 0.029856
v 0.002609 0.020343 0.030549
v -0.002080 0.027614 0.033879
v -0.000606 0.028990 0.053831
v -0.008192 0.025797 0.058096
v -0.012881 0.018111 0.060304
v -0.012881 0.008866 0.059610
v -0.008192 0.001595 0.056280
v -0.000606 -0.000926 0.051586
v 0.006981 0.002267 0.047321
v 0.011669 0.009954 0.045113
v 0.011669 0.019198 0.045807
v 0.006981 0.026470 0.049136
v 0.079993 0.025962 -0.019811
v 0.079511 0.017153 -0.016963
v 0.078991 0.011709 -0.009477
v 0.078630 0.011709 -0.000214
v 0.078567 0.017153 0.007289
v 0.078826 0.025962 0.010166
v 0.079307 0.034771 0.007318
v 0.079828 0.040216 -0.000167
v 0.080189 0.040216 -0.009431
v 0.080252 0.034771 -0.016934
v 0.002958 0.029205 -0.022811
v 0.002476 0.020396 -0.019963
v 0.001955 0.014952 -0.012477
v 0.001594 0.014952 -0.003214
v 0.001531 0.020396 0.004290
v 0.001790 0.029205 0.007167
v 0.002272 0.038014 0.004318
v 0.002793 0.043459 -0.003167
v 0.003153 0.043459 -0.012430
v 0.003216 0.038014 -0.019934
v 0.002374 0.044140 -0.009226
v -0.005193 0.040864 -0.013463
v -0.009870 0.033135 -0.015546
v -0.009870 0.023905 -0.014678
v -0.005193 0.016700 -0.011191
v 0.002374 0.014271 -0.006418
v 0.009941 0.017547 -0.002181
v 0.014617 0.025276 -0.000098
v 0.014617 0.034506 -0.000966
v 0.009941 0.041711 -0.004453
v -0.006261 0.045491 0.005149
v -0.013828 0.042215 0.000912
v -0.018504 0.034487 -0.001170
v -0.018504 0.025257 -0.000302
v -0.013828 0.018052 0.003184
v -0.006261 0.015623 0.007957
v 0.001306 0.018899 0.012195
v 0.005983 0.026628 0.014277
v 0.005983 0.035857 0.013409
v 0.001306 0.043063 0.009922
v -0.006261 0.045303 0.003806
v -0.014618 0.043001 0.007090
v -0.019784 0.035946 0.010170
v -0.019784 0.026832 0.011868
v -0.014618 0.019141 0.011536
v -0.006261 0.015811 0.009301
v 0.002097 0.018113 0.006016
v 0.007263 0.025168 0.002936
v 0.007263 0.034282 0.001238
v 0.002097 0.041973 0.001570
v 0.001265 0.049407 0.025830
v -0.007093 0.047105 0.029114
v -0.012258 0.040050 0.032194
v -0.012258 0.030936 0.033892
v -0.007093 0.023245 0.033560
v 0.001265 0.019915 0.031325
v 0.009623 0.022217 0.028040
v 0.014788 0.029272 0.024960
v 0.014788 0.038385 0.023262
v 0.009623 0.046076 0.023594
v 0.001265 0.049513 0.030678
v -0.005119 0.045825 0.036298
v -0.009064 0.037872 0.038969
v -0.009064 0.028693 0.037671
v -0.005119 0.021794 0.032899
v 0.001265 0.019809 0.026477
v 0.007649 0.023497 0.020857
v 0.011594 0.031449 0.018186
v 0.011594 0.040628 0.019484
v 0.007649 0.047528 0.024255
v 0.010591 0.048142 0.040371
v 0.004207 0.044454 0.045991
v 0.000261 0.036502 0.048662
v 0.000261 0.027322 0.047364
v 0.004207 0.020423 0.042593
v 0.010591 0.018438 0.036170
v 0.016974 0.022126 0.030550
v 0.020920 0.030078 0.027879
v 0.020920 0.039257 0.029177
v 0.016974 0.046157 0.033949
f 1 2 13
f 2 14 13
f 2 3 14
f 3 15 14
f 3 4 15
f 4 16 15
f 4 5 16
f 5 17 16
f 5 6 17
f 6 18 17
f 6 7 18
f 7 19 18
f 7 8 19
f 8 20 19
f 8 9 20
f 9 21 20
f 9 10 21
f 10 22 21
f 10 11 22
f 11 23 22
f 11 12 23
f 12 24 23
f 13 14 25
f 14 26 25
f 14 15 26
f 15 27 26
f 15 16 27
f 16 28 27
f 16 17 28
f 17 29 28
f 17 18 29
f 18 30 29
f 18 19 30
f 19 31 30
f 19 20 31
f 20 32 31
f 20 21 32
f 21 33 32
f 21 22 33
f 22 34 33
f 22 23 34
f 23 35 34
f 23 24 35
f 24 36 35
f 25 26 37
f 26 38 37
f 26 27 38
f 27 39 38
f 27 28 39
f 28 40 39
f 28 29 40
f 29 41 40
f 29 30 41
f 30 42 41
f 30 31 42
f 31 43 42
f 31 32 43
f 32 44 43
f 32 33 44
f 33 45 44
f 33 34 45
f 34 46 45
f 34 35 46
f 35 47 46
f 35 36 47
f 36 48 47
f 37 38 49
f 38 50 49
f 38 39 50
f 39 51 50
f 39 40 51
f 40 52 51
f 40 41 52
f 41 53 52
f 41 42 53
f 42 54 53
f 42 43 54
f 43 55 54
f 43 44 55
f 44 56 55
f 44 45 56
f 45 57 56
f 45 46 57
f 46 58 57
f 46 47 58
f 47 59 58
f 47 48 59
f 48 60 59
f 49 50 61
f 50 62 61
f 50 51 62
f 51 63 62
f 51 52 63
f 52 64 63
f 52 53 64
f 53 65 64
f 53 54 65
f 54 66 65
f 54 55 66
f 55 67 66
f 55 56 67
f 56 68 67
f 56 57 68
f 57 69 68
f 57 58 69
f 58 70 69
f 58 59 70
f 59 71 70
f 59 60 71
f 60 72 71
f 61 62 73
f 62 74 73
f 62 63 74
f 63 75 74
f 63 64 75
f 64 76 75
f 64 65 76
f 65 77 76
f 65 66 77
f 66 78 77
f 66 67 78
f 67 79 78
f 67 68 79
f 68 80 79
f 68 69 80
f 69 81 80
f 69 70 81
f 70 82 81
f 70 71 82
f 71 83 82
f 71 72 83
f 72 84 83
f 73 74 85
f 74 86 85
f 74 75 86
f 75 87 86
f 75 76 87
f 76 88 87
f 76 77 88
f 77 89 88
f 77 78 89
f 78 90 89
f 78 79 90
f 79 91 90
f 79 80 91
f 80 92 91
f 80 81 92
f 81 93 92
f 81 82 93
f 82 94 93
f 82 83 94
f 83 95 94
f 83 84 95
f 84 96 95
f 85 86 97
f 86 98 97
f 86 87 98
f 87 99 98
f 87 88 99
f 88 100 99
f 88 89 100
f 89 101 100
f 89 90 101
f 90 102 101
f 90 91 102
f 91 103 102
f 91 92 103
f 92 104 103
f 92 93 104
f 93 105 104
f 93 94 105
f 94 106 105
f 94 95 106
f 95 107 106
f 95 96 107
f 96 108 107
f 97 98 109
f 98 110 109
f 98 99 110
f 99 111 110
f 99 100 111
f 100 112 111
f 100 101 112
f 101 113 112
f 101 102 113
f 102 114 113
f 102 103 114
f 103 115 114
f 103 104 115
f 104 116 115
f 104 105 116
f 105 117 116
f 105 106 117
f 106 118 117
f 106 107 118
f 107 119 118
f 107 108 119
f 108 120 119
f 109 110 121
f 110 122 121
f 110 111 122
f 111 123 122
f 111 112 123
f 112 124 123
f 112 113 124
f 113 125 124
f 113 114 125
f 114 126 125
f 114 115 126
f 115 127 126
f 115 116 127
f 116 128 127
f 116 117 128
f 117 129 128
f 117 118 129
f 118 130 129
f 118 119 130
f 119 131 130
f 119 120 131
f 120 132 131
f 121 122 133
f 122 134 133
f 122 123 134
f 123 135 134
f 123 124 135
f 124 136 135
f 124 125 136
f 125 137 136
f 125 126 137
f 126 138 137
f 126 127 138
f 127 139 138
f 127 128 139
f 128 140 139
f 128 129 140
f 129 141 140
f 129 130 141
f 130 142 141
f 130 131 142
f 131 143 142
f 131 132 143
f 132 144 143
f 145 146 155
f 146 156 155
f 146 147 156
f 147 157 156
f 147 148 157
f 148 158 157
f 148 149 158
f 149 159 158
f 149 150 159
f 150 160 159
f 150 151 160
f 151 161 160
f 151 152 161
f 152 162 161
f 152 153 162
f 153 163 162
f 153 154 163
f 154 164 163
f 154 145 164
f 145 155 164
f 165 166 175
f 166 176 175
f 166 167 176
f 167 177 176
f 167 168 177
f 168 178 177
f 168 169 178
f 169 179 178
f 169 170 179
f 170 180 179
f 170 171 180
f 171 181 180
f 171 172 181
f 172 182 181
f 172 173 182
f 173 183 182
f 173 174 183
f 174 184 183
f 174 165 184
f 165 175 184
f 185 186 195
f 186 196 195
f 186 187 196
f 187 197 196
f 187 188 197
f 188 198 197
f 188 189 198
f 189 199 198
f 189 190 199
f 190 200 199
f 190 191 200
f 191 201 200
f 191 192 201
f 192 202 201
f 192 193 202
f 193 203 202
f 193 194 203
f 194 204 203
f 194 185 204
f 185 195 204
f 205 206 215
f 206 216 215
f 206 207 216
f 207 217 216
f 207 208 217
f 208 218 217
f 208 209 218
f 209 219 218
f 209 210 219
f 210 220 219
f 210 211 220
f 211 221 220
f 211 212 221
f 212 222 221
f 212 213 222
f 213 223 222
f 213 214 223
f 214 224 223
f 214 205 224
f 205 215 224
f 225 226 235
f 226 236 235
f 226 227 236
f 227 237 236
f 227 228 237
f 228 238 237
f 228 229 238
f 229 239 238
f 229 230 239
f 230 240 239
f 230 231 240
f 231 241 240
f 231 232 241
f 232 242 241
f 232 233 242
f 233 243 242
f 233 234 243
f 234 244 243
f 234 225 244
f 225 235 244
f 245 246 255
f 246 256 255
f 246 247 256
f 247 257 256
f 247 248 257
f 248 258 257
f 248 249 258
f 249 259 258
f 249 250 259
f 250 260 259
f 250 251 260
f 251 261 260
f 251 252 261
f 252 262 261
f 252 253 262
f 253 263 262
f 253 254 263
f 254 264 263
f 254 245 264
f 245 255 264
f 265 266 275
f 266 276 275
f 266 267 276
f 267 277 276
f 267 268 277
f 268 278 277
f 268 269 278
f 269 279 278
f 269 270 279
f 270 280 279
f 270 271 280
f 271 281 280
f 271 272 281
f 272 282 281
f 272 273 282
f 273 283 282
f 273 274 283
f 274 284 283
f 274 265 284
f 265 275 284
f 285 286 295
f 286 296 295
f 286 287 296
f 287 297 296
f 287 288 297
f 288 298 297
f 288 289 298
f 289 299 298
f 289 290 299
f 290 300 299
f 290 291 300
f 291 301 300
f 291 292 301
f 292 302 301
f 292 293 302
f 293 303 302
f 293 294 303
f 294 304 303
f 294 285 304
f 285 295 304
f 305 306 315
f 306 316 315
f 306 307 316
f 307 317 316
f 307 308 317
f 308 318 317
f 308 309 318
f 309 319 318
f 309 310 319
f 310 320 319
f 310 311 320
f 311 321 320
f 311 312 321
f 312 322 321
f 312 313 322
f 313 323 322
f 313 314 323
f 314 324 323
f 314 305 324
f 305 315 324
f 325 326 335
f 326 336 335
f 326 327 336
f 327 337 336
f 327 328 337
f 328 338 337
f 328 329 338
f 329 339 338
f 329 330 339
f 330 340 339
f 330 331 340
f 331 341 340
f 331 332 341
f 332 342 341
f 332 333 342
f 333 343 342
f 333 334 343
f 334 344 343
f 334 325 344
f 325 335 344
f 345 346 355
f 346 356 355
f 346 347 356
f 347 357 356
f 347 348 357
f 348 358 357
f 348 349 358
f 349 359 358
f 349 350 359
f 350 360 359
f 350 351 360
f 351 361 360
f 351 352 361
f 352 362 361
f 352 353 362
f 353 363 362
f 353 354 363
f 354 364 363
f 354 345 364
f 345 355 364
f 365 366 375
f 366 376 375
f 366 367 376
f 367 377 376
f 367 368 377
f 368 378 377
f 368 369 378
f 369 379 378
f 369 370 379
f 370 380 379
f 370 371 380
f 371 381 380
f 371 372 381
f 372 382 381
f 372 373 382
f 373 383 382
f 373 374 383
f 374 384 383
f 374 365 384
f 365 375 384
f 385 386 395
f 386 396 395
f 386 387 396
f 387 397 396
f 387 388 397
f 388 398 397
f 388 389 398
f 389 399 398
f 389 390 399
f 390 400 399
f 390 391 400
f 391 401 400
f 391 392 401
f 392 402 401
f 392 393 402
f 393 403 402
f 393 394 403
f 394 404 403
f 394 385 404
f 385 395 404
f 405 406 415
f 406 416 415
f 406 407 416
f 407 417 416
f 407 408 417
f 408 418 417
f 408 409 418
f 409 419 418
f 409 410 419
f 410 420 419
f 410 411 420
f 411 421 420
f 411 412 421
f 412 422 421
f 412 413 422
f 413 423 422
f 413 414 423
f 414 424 423
f 414 405 424
f 405 415 424
f 425 426 435
f 426 436 435
f 426 427 436
f 427 437 436
f 427 428 437
f 428 438 437
f 428 429 438
f 429 439 438
f 429 430 439
f 430 440 439
f 430 431 440
f 431 441 440
f 431 432 441
f 432 442 441
f 432 433 442
f 433 443 442
f 433 434 443
f 434 444 443
f 434 425 444
f 425 435 444
f 445 446 455
f 446 456 455
f 446 447 456
f 447 457 456
f 447 448 457
f 448 458 457
f 448 449 458
f 449 459 458
f 449 450 459
f 450 460 459
f 450 451 460
f 451 461 460
f 451 452 461
f 452 462 461
f 452 453 462
f 453 463 462
f 453 454 463
f 454 464 463
f 454 445 464
f 445 455 464
f 465 466 475
f 466 476 475
f 466 467 476
f 467 477 476
f 467 468 477
f 468 478 477
f 468 469 478
f 469 479 478
f 469 470 479
f 470 480 479
f 470 471 480
f 471 481 480
f 471 472 481
f 472 482 481
f 472 473 482
f 473 483 482
f 473 474 483
f 474 484 483
f 474 465 484
f 465 475 484
f 485 486 495
f 486 496 495
f 486 487 496
f 487 497 496
f 487 488 497
f 488 498 497
f 488 489 498
f 489 499 498
f 489 490 499
f 490 500 499
f 490 491 500
f 491 501 500
f 491 492 501
f 492 502 501
f 492 493 502
f 493 503 502
f 493 494 503
f 494 504 503
f 494 485 504
f 485 495 504
f 505 506 515
f 506 516 515
f 506 507 516
f 507 517 516
f 507 508 517
f 508 518 517
f 508 509 518
f 509 519 518
f 509 510 519
f 510 520 519
f 510 511 520
f 511 521 520
f 511 512 521
f 512 522 521
f 512 513 522
f 513 523 522
f 513 514 523
f 514 524 523
f 514 505 524
f 505 515 524
f 525 526 535
f 526 536 535
f 526 527 536
f 527 537 536
f 527 528 537
f 528 538 537
f 528 529 538
f 529 539 538
f 529 530 539
f 530 540 539
f 530 531 540
f 531 541 540
f 531 532 541
f 532 542 541
f 532 533 542
f 533 543 542
f 533 534 543
f 534 544 543
f 534 525 544
f 525 535 544
f 545 546 555
f 546 556 555
f 546 547 556
f 547 557 556
f 547 548 557
f 548 558 557
f 548 549 558
f 549 559 558
f 549 550 559
f 550 560 559
f 550 551 560
f 551 561 560
f 551 552 561
f 552 562 561
f 552 553 562
f 553 563 562
f 553 554 563
f 554 564 563
f 554 545 564
f 545 555 564
f 565 566 575
f 566 576 575
f 566 567 576
f 567 577 576
f 567 568 577
f 568 578 577
f 568 569 578
f 569 579 578
f 569 570 579
f 570 580 579
f 570 571 580
f 571 581 580
f 571 572 581
f 572 582 581
f 572 573 582
f 573 583 582
f 573 574 583
f 574 584 583
f 574 565 584
f 565 575 584
f 585 586 595
f 586 596 595
f 586 587 596
f 587 597 596
f 587 588 597
f 588 598 597
f 588 589 598
f 589 599 598
f 589 590 599
f 590 600 599
f 590 591 600
f 591 601 600
f 591 592 601
f 592 602 601
f 592 593 602
f 593 603 602
f 593 594 603
f 594 604 603
f 594 585 604
f 585 595 604
f 605 606 615
f 606 616 615
f 606 607 616
f 607 617 616
f 607 608 617
f 608 618 617
f 608 609 618
f 609 619 618
f 609 610 619
f 610 620 619
f 610 611 620
f 611 621 620
f 611 612 621
f 612 622 621
f 612 613 622
f 613 623 622
f 613 614 623
f 614 624 623
f 614 605 624
f 605 615 624
f 625 626 635
f 626 636 635
f 626 627 636
f 627 637 636
f 627 628 637
f 628 638 637
f 628 629 638
f 629 639 638
f 629 630 639
f 630 640 639
f 630 631 640
f 631 641 640
f 631 632 641
f 632 642 641
f 632 633 642
f 633 643 642
f 633 634 643
f 634 644 643
f 634 625 644
f 625 635 644
f 645 646 655
f 646 656 655
f 646 647 656
f 647 657 656
f 647 648 657
f 648 658 657
f 648 649 658
f 649 659 658
f 649 650 659
f 650 660 659
f 650 651 660
f 651 661 660
f 651 652 661
f 652 662 661
f 652 653 662
f 653 663 662
f 653 654 663
f 654 664 663
f 654 645 664
f 645 655 664
f 665 666 675
f 666 676 675
f 666 667 676
f 667 677 676
f 667 668 677
f 668 678 677
f 668 669 678
f 669 679 678
f 669 670 679
f 670 680 679
f 670 671 680
f 671 681 680
f 671 672 681
f 672 682 681
f 672 673 682
f 673 683 682
f 673 674 683
f 674 684 683
f 674 665 684
f 665 675 684
f 685 686 695
f 686 696 695
f 686 687 696
f 687 697 696
f 687 688 697
f 688 698 697
f 688 689 698
f 689 699 698
f 689 690 699
f 690 700 699
f 690 691 700
f 691 701 700
f 691 692 701
f 692 702 701
f 692 693 702
f 693 703 702
f 693 694 703
f 694 704 703
f 694 685 704
f 685 695 704
f 705 706 715
f 706 716 715
f 706 707 716
f 707 717 716
f 707 708 717
f 708 718 717
f 708 709 718
f 709 719 718
f 709 710 719
f 710 720 719
f 710 711 720
f 711 721 720
f 711 712 721
f 712 722 721
f 712 713 722
f 713 723 722
f 713 714 723
f 714 724 723
f 714 705 724
f 705 715 724
f 725 726 735
f 726 736 735
f 726 727 736
f 727 737 736
f 727 728 737
f 728 738 737
f 728 729 738
f 729 739 738
f 729 730 739
f 730 740 739
f 730 731 740
f 731 741 740
f 731 732 741
f 732 742 741
f 732 733 742
f 733 743 742
f 733 734 743
f 734 744 743
f 734 725 744
f 725 735 744
f 745 746 755
f 746 756 755
f 746 747 756
f 747 757 756
f 747 748 757
f 748 758 757
f 748 749 758
f 749 759 758
f 749 750 759
f 750 760 759
f 750 751 760
f 751 761 760
f 751 752 761
f 752 762 761
f 752 753 762
f 753 763 762
f 753 754 763
f 754 764 763
f 754 745 764
f 745 755 764
f 765 766 775
f 766 776 775
f 766 767 776
f 767 777 776
f 767 768 777
f 768 778 777
f 768 769 778
f 769 779 778
f 769 770 779
f 770 780 779
f 770 771 780
f 771 781 780
f 771 772 781
f 772 782 781
f 772 773 782
f 773 783 782
f 773 774 783
f 774 784 783
f 774 765 784
f 765 775 784
