# Full-Body 3D Mesh - Frame 3
v 0.003871 -0.634198 -0.144077
v 0.037679 -0.634198 -0.148938
v 0.068748 -0.634198 -0.163126
v 0.094561 -0.634198 -0.185493
v 0.113027 -0.634198 -0.214227
v 0.122650 -0.634198 -0.246999
v 0.122650 -0.634198 -0.281155
v 0.113027 -0.634198 -0.313927
v 0.094561 -0.634198 -0.342660
v 0.068748 -0.634198 -0.365027
v 0.037679 -0.634198 -0.379216
v 0.003871 -0.634198 -0.384077
v 0.003871 -0.634198 -0.144077
v 0.032312 -0.615920 -0.148938
v 0.058449 -0.599123 -0.163126
v 0.080164 -0.585168 -0.185493
v 0.095699 -0.575184 -0.214227
v 0.103794 -0.569982 -0.246999
v 0.103794 -0.569982 -0.281155
v 0.095699 -0.575184 -0.313927
v 0.080164 -0.585168 -0.342660
v 0.058449 -0.599123 -0.365027
v 0.032312 -0.615920 -0.379216
v 0.003871 -0.634198 -0.384077
v 0.003871 -0.634198 -0.144077
v 0.017915 -0.603446 -0.148938
v 0.030822 -0.575184 -0.163126
v 0.041545 -0.551704 -0.185493
v 0.049216 -0.534907 -0.214227
v 0.053214 -0.526154 -0.246999
v 0.053214 -0.526154 -0.281155
v 0.049216 -0.534907 -0.313927
v 0.041545 -0.551704 -0.342660
v 0.030822 -0.575184 -0.365027
v 0.017915 -0.603446 -0.379216
v 0.003871 -0.634198 -0.384077
v 0.003871 -0.634198 -0.144077
v -0.000940 -0.600735 -0.148938
v -0.005362 -0.569982 -0.163126
v -0.009035 -0.544432 -0.185493
v -0.011663 -0.526154 -0.214227
v -0.013033 -0.516629 -0.246999
v -0.013033 -0.516629 -0.281155
v -0.011663 -0.526154 -0.313927
v -0.009035 -0.544432 -0.342660
v -0.005362 -0.569982 -0.365027
v -0.000940 -0.600735 -0.379216
v 0.003871 -0.634198 -0.384077
v 0.003871 -0.634198 -0.144077
v -0.018268 -0.608648 -0.148938
v -0.038614 -0.585168 -0.163126
v -0.055518 -0.565660 -0.185493
v -0.067611 -0.551704 -0.214227
v -0.073912 -0.544432 -0.246999
v -0.073912 -0.544432 -0.281155
v -0.067611 -0.551704 -0.313927
v -0.055518 -0.565660 -0.342660
v -0.038614 -0.585168 -0.365027
v -0.018268 -0.608648 -0.379216
v 0.003871 -0.634198 -0.384077
v 0.003871 -0.634198 -0.144077
v -0.028567 -0.624674 -0.148938
v -0.058378 -0.615920 -0.163126
v -0.083145 -0.608648 -0.185493
v -0.100863 -0.603446 -0.214227
v -0.110096 -0.600735 -0.246999
v -0.110096 -0.600735 -0.281155
v -0.100863 -0.603446 -0.313927
v -0.083145 -0.608648 -0.342660
v -0.058378 -0.615920 -0.365027
v -0.028567 -0.624674 -0.379216
v 0.003871 -0.634198 -0.384077
v 0.003871 -0.634198 -0.144077
v -0.028567 -0.643723 -0.148938
v -0.058378 -0.652476 -0.163126
v -0.083145 -0.659749 -0.185493
v -0.100863 -0.664951 -0.214227
v -0.110096 -0.667662 -0.246999
v -0.110096 -0.667662 -0.281155
v -0.100863 -0.664951 -0.313927
v -0.083145 -0.659749 -0.342660
v -0.058378 -0.652476 -0.365027
v -0.028567 -0.643723 -0.379216
v 0.003871 -0.634198 -0.384077
v 0.003871 -0.634198 -0.144077
v -0.018268 -0.659749 -0.148938
v -0.038614 -0.683229 -0.163126
v -0.055518 -0.702737 -0.185493
v -0.067611 -0.716693 -0.214227
v -0.073912 -0.723965 -0.246999
v -0.073912 -0.723965 -0.281155
v -0.067611 -0.716693 -0.313927
v -0.055518 -0.702737 -0.342660
v -0.038614 -0.683229 -0.365027
v -0.018268 -0.659749 -0.379216
v 0.003871 -0.634198 -0.384077
v 0.003871 -0.634198 -0.144077
v -0.000940 -0.667662 -0.148938
v -0.005362 -0.698415 -0.163126
v -0.009035 -0.723965 -0.185493
v -0.011663 -0.742243 -0.214227
v -0.013033 -0.751768 -0.246999
v -0.013033 -0.751768 -0.281155
v -0.011663 -0.742243 -0.313927
v -0.009035 -0.723965 -0.342660
v -0.005362 -0.698415 -0.365027
v -0.000940 -0.667662 -0.379216
v 0.003871 -0.634198 -0.384077
v 0.003871 -0.634198 -0.144077
v 0.017915 -0.664951 -0.148938
v 0.030822 -0.693213 -0.163126
v 0.041545 -0.716693 -0.185493
v 0.049216 -0.733490 -0.214227
v 0.053214 -0.742243 -0.246999
v 0.053214 -0.742243 -0.281155
v 0.049216 -0.733490 -0.313927
v 0.041545 -0.716693 -0.342660
v 0.030822 -0.693213 -0.365027
v 0.017915 -0.664951 -0.379216
v 0.003871 -0.634198 -0.384077
v 0.003871 -0.634198 -0.144077
v 0.032312 -0.652476 -0.148938
v 0.058449 -0.669274 -0.163126
v 0.080164 -0.683229 -0.185493
v 0.095699 -0.693213 -0.214227
v 0.103794 -0.698415 -0.246999
v 0.103794 -0.698415 -0.281155
v 0.095699 -0.693213 -0.313927
v 0.080164 -0.683229 -0.342660
v 0.058449 -0.669274 -0.365027
v 0.032312 -0.652476 -0.379216
v 0.003871 -0.634198 -0.384077
v 0.003871 -0.634198 -0.144077
v 0.037679 -0.634198 -0.148938
v 0.068748 -0.634198 -0.163126
v 0.094561 -0.634198 -0.185493
v 0.113027 -0.634198 -0.214227
v 0.122650 -0.634198 -0.246999
v 0.122650 -0.634198 -0.281155
v 0.113027 -0.634198 -0.313927
v 0.094561 -0.634198 -0.342660
v 0.068748 -0.634198 -0.365027
v 0.037679 -0.634198 -0.379216
v 0.003871 -0.634198 -0.384077
v 0.171108 -0.451704 -0.099200
v 0.168689 -0.475163 -0.091785
v 0.165485 -0.489661 -0.072019
v 0.162718 -0.489661 -0.047453
v 0.161446 -0.475163 -0.027470
v 0.162155 -0.451704 -0.019702
v 0.164573 -0.428246 -0.027118
v 0.167778 -0.413747 -0.046883
v 0.170545 -0.413747 -0.071449
v 0.171817 -0.428246 -0.091432
v -0.168514 -0.428781 -0.137448
v -0.170933 -0.452240 -0.130033
v -0.174137 -0.466738 -0.110267
v -0.176904 -0.466738 -0.085701
v -0.178176 -0.452240 -0.065718
v -0.177467 -0.428781 -0.057951
v -0.175049 -0.405323 -0.065366
v -0.171844 -0.390824 -0.085131
v -0.169078 -0.390824 -0.109697
v -0.167806 -0.405323 -0.129681
v 0.166631 -0.450641 -0.099437
v 0.143362 -0.447479 -0.091711
v 0.128981 -0.445931 -0.071663
v 0.128981 -0.446587 -0.046950
v 0.143362 -0.449199 -0.027012
v 0.166631 -0.452767 -0.019465
v 0.189901 -0.455929 -0.027191
v 0.204282 -0.457478 -0.047239
v 0.204282 -0.456821 -0.071952
v 0.189901 -0.454210 -0.091890
v 0.199333 -0.224688 -0.093432
v 0.176064 -0.221526 -0.085706
v 0.161683 -0.219977 -0.065657
v 0.161683 -0.220634 -0.040945
v 0.176064 -0.223245 -0.021007
v 0.199333 -0.226813 -0.013460
v 0.222602 -0.229976 -0.021186
v 0.236983 -0.231524 -0.041234
v 0.236983 -0.230867 -0.065947
v 0.222602 -0.228256 -0.085885
v 0.199333 -0.245988 -0.087948
v 0.175989 -0.239709 -0.082775
v 0.161561 -0.228098 -0.066399
v 0.161561 -0.215590 -0.045075
v 0.175989 -0.206964 -0.026949
v 0.199333 -0.205513 -0.018943
v 0.222677 -0.211792 -0.024117
v 0.237105 -0.223403 -0.040493
v 0.237105 -0.235911 -0.061816
v 0.222677 -0.244538 -0.079943
v 0.222892 -0.076502 -0.187363
v 0.199548 -0.070223 -0.182189
v 0.185120 -0.058611 -0.165813
v 0.185120 -0.046104 -0.144489
v 0.199548 -0.037477 -0.126363
v 0.222892 -0.036026 -0.118357
v 0.246236 -0.042306 -0.123531
v 0.260664 -0.053917 -0.139907
v 0.260664 -0.066424 -0.161230
v 0.246236 -0.075051 -0.179357
v -0.172991 -0.443279 -0.134980
v -0.196241 -0.443767 -0.126593
v -0.210610 -0.438532 -0.107170
v -0.210610 -0.429572 -0.084129
v -0.196241 -0.420310 -0.066272
v -0.172991 -0.414284 -0.060419
v -0.149740 -0.413795 -0.068806
v -0.135371 -0.419031 -0.088229
v -0.135371 -0.427991 -0.111269
v -0.149740 -0.437253 -0.129126
v -0.212923 -0.195700 -0.231258
v -0.236173 -0.196189 -0.222871
v -0.250542 -0.190953 -0.203448
v -0.250542 -0.181993 -0.180408
v -0.236173 -0.172731 -0.162551
v -0.212923 -0.166705 -0.156697
v -0.189672 -0.166216 -0.165084
v -0.175303 -0.171452 -0.184507
v -0.175303 -0.180412 -0.207548
v -0.189672 -0.189674 -0.225405
v -0.212923 -0.216040 -0.174321
v -0.236060 -0.211439 -0.181713
v -0.250360 -0.195288 -0.193788
v -0.250360 -0.173758 -0.205937
v -0.236060 -0.155071 -0.213517
v -0.212923 -0.146365 -0.213634
v -0.189785 -0.150967 -0.206243
v -0.175485 -0.167117 -0.194167
v -0.175485 -0.188647 -0.182019
v -0.189785 -0.207334 -0.174438
v -0.165725 -0.344540 -0.402066
v -0.188863 -0.339939 -0.409457
v -0.203163 -0.323789 -0.421533
v -0.203163 -0.302258 -0.433682
v -0.188863 -0.283571 -0.441262
v -0.165725 -0.274866 -0.441379
v -0.142588 -0.279467 -0.433988
v -0.128288 -0.295617 -0.421912
v -0.128288 -0.317148 -0.409764
v -0.142588 -0.335835 -0.402183
v 0.166631 -0.445376 -0.098947
v 0.143196 -0.448449 -0.091703
v 0.128712 -0.452766 -0.072139
v 0.128712 -0.456677 -0.047729
v 0.143196 -0.458688 -0.027797
v 0.166631 -0.458032 -0.019955
v 0.190067 -0.454959 -0.027199
v 0.204551 -0.450643 -0.046763
v 0.204551 -0.446732 -0.071173
v 0.190067 -0.444720 -0.091105
v 0.129611 0.008253 -0.026267
v 0.106176 0.005179 -0.019023
v 0.091692 0.000863 0.000541
v 0.091692 -0.003048 0.024951
v 0.106176 -0.005060 0.044883
v 0.129611 -0.004403 0.052725
v 0.153047 -0.001330 0.045481
v 0.167531 0.002986 0.025917
v 0.167531 0.006897 0.001507
v 0.153047 0.008909 -0.018425
v -0.172991 -0.420516 -0.136836
v -0.196378 -0.419732 -0.128863
v -0.210832 -0.422405 -0.108986
v -0.210832 -0.427513 -0.084798
v -0.196378 -0.433106 -0.065538
v -0.172991 -0.437047 -0.058563
v -0.149604 -0.437830 -0.066536
v -0.135149 -0.435157 -0.086413
v -0.135149 -0.430049 -0.110600
v -0.149604 -0.424456 -0.129860
v -0.129482 -0.008131 -0.049742
v -0.152869 -0.007347 -0.041768
v -0.167323 -0.010020 -0.021892
v -0.167323 -0.015128 0.002296
v -0.152869 -0.020721 0.021556
v -0.129482 -0.024662 0.028532
v -0.106095 -0.025445 0.020558
v -0.091641 -0.022772 0.000682
v -0.091641 -0.017664 -0.023506
v -0.106095 -0.012071 -0.042766
v 0.133275 0.001925 -0.026603
v 0.134220 -0.021529 -0.018844
v 0.133404 -0.036024 0.001165
v 0.131140 -0.036024 0.025783
v 0.128291 -0.021529 0.045605
v 0.125947 0.001925 0.053061
v 0.125002 0.025378 0.045302
v 0.125818 0.039873 0.025293
v 0.128083 0.039873 0.000676
v 0.130931 0.025378 -0.019147
v -0.125818 -0.016396 -0.050437
v -0.124873 -0.039850 -0.042678
v -0.125689 -0.054345 -0.022669
v -0.127954 -0.054345 0.001948
v -0.130802 -0.039850 0.021771
v -0.133146 -0.016396 0.029227
v -0.134091 0.007057 0.021468
v -0.133275 0.021552 0.001459
v -0.131011 0.021552 -0.023159
v -0.128162 0.007057 -0.042981
v 0.129611 -0.016392 -0.022331
v 0.106285 -0.010275 -0.016888
v 0.091869 0.000502 0.000058
v 0.091869 0.011822 0.022035
v 0.106285 0.019362 0.040649
v 0.129611 0.020241 0.048789
v 0.152937 0.014124 0.043347
v 0.167354 0.003347 0.026400
v 0.167354 -0.007973 0.004423
v 0.152937 -0.015513 -0.014190
v 0.146272 0.100884 -0.082739
v 0.122946 0.107001 -0.077297
v 0.108530 0.117778 -0.060351
v 0.108530 0.129098 -0.038373
v 0.122946 0.136638 -0.019760
v 0.146272 0.137517 -0.011619
v 0.169598 0.131400 -0.017062
v 0.184015 0.120623 -0.034008
v 0.184015 0.109303 -0.055985
v 0.169598 0.101763 -0.074599
v 0.146272 0.142919 -0.079389
v 0.122912 0.140532 -0.071659
v 0.108474 0.129997 -0.054579
v 0.108474 0.115338 -0.034673
v 0.122912 0.102155 -0.019543
v 0.146272 0.095483 -0.014970
v 0.169633 0.097870 -0.022699
v 0.184070 0.108404 -0.039779
v 0.184070 0.123063 -0.059686
v 0.169633 0.136246 -0.074815
v 0.179705 0.379252 0.094640
v 0.156345 0.376865 0.102370
v 0.141907 0.366330 0.119450
v 0.141907 0.351671 0.139356
v 0.156345 0.338488 0.154486
v 0.179705 0.331815 0.159059
v 0.203065 0.334202 0.151330
v 0.217503 0.344737 0.134250
v 0.217503 0.359396 0.114343
v 0.203065 0.372579 0.099214
v -0.129482 -0.055777 -0.003592
v -0.151811 -0.049546 -0.012180
v -0.165611 -0.030654 -0.020166
v -0.165611 -0.006316 -0.024500
v -0.151811 0.014172 -0.023527
v -0.129482 0.022984 -0.017618
v -0.107153 0.016754 -0.009031
v -0.093353 -0.002139 -0.001045
v -0.093353 -0.026477 0.003290
v -0.107153 -0.046965 0.002317
v -0.066871 -0.089070 -0.190548
v -0.089200 -0.082840 -0.199136
v -0.103000 -0.063948 -0.207122
v -0.103000 -0.039609 -0.211456
v -0.089200 -0.019121 -0.210483
v -0.066871 -0.010310 -0.204574
v -0.044542 -0.016540 -0.195987
v -0.030742 -0.035432 -0.188001
v -0.030742 -0.059771 -0.183667
v -0.044542 -0.080259 -0.184640
v -0.066871 -0.047456 -0.237499
v -0.090375 -0.048461 -0.229904
v -0.104901 -0.049936 -0.209955
v -0.104901 -0.051317 -0.185272
v -0.090375 -0.052076 -0.165284
v -0.066871 -0.051924 -0.157624
v -0.043367 -0.050919 -0.165219
v -0.028840 -0.049444 -0.185168
v -0.028840 -0.048064 -0.209850
v -0.043367 -0.047304 -0.229839
v -0.073909 0.237569 -0.221555
v -0.097413 0.236564 -0.213960
v -0.111940 0.235089 -0.194011
v -0.111940 0.233709 -0.169328
v -0.097413 0.232949 -0.149340
v -0.073909 0.233101 -0.141680
v -0.050405 0.234106 -0.149275
v -0.035878 0.235581 -0.169224
v -0.035878 0.236962 -0.193907
v -0.050405 0.237721 -0.213895
f 1 2 13
f 2 14 13
f 2 3 14
f 3 15 14
f 3 4 15
f 4 16 15
f 4 5 16
f 5 17 16
f 5 6 17
f 6 18 17
f 6 7 18
f 7 19 18
f 7 8 19
f 8 20 19
f 8 9 20
f 9 21 20
f 9 10 21
f 10 22 21
f 10 11 22
f 11 23 22
f 11 12 23
f 12 24 23
f 13 14 25
f 14 26 25
f 14 15 26
f 15 27 26
f 15 16 27
f 16 28 27
f 16 17 28
f 17 29 28
f 17 18 29
f 18 30 29
f 18 19 30
f 19 31 30
f 19 20 31
f 20 32 31
f 20 21 32
f 21 33 32
f 21 22 33
f 22 34 33
f 22 23 34
f 23 35 34
f 23 24 35
f 24 36 35
f 25 26 37
f 26 38 37
f 26 27 38
f 27 39 38
f 27 28 39
f 28 40 39
f 28 29 40
f 29 41 40
f 29 30 41
f 30 42 41
f 30 31 42
f 31 43 42
f 31 32 43
f 32 44 43
f 32 33 44
f 33 45 44
f 33 34 45
f 34 46 45
f 34 35 46
f 35 47 46
f 35 36 47
f 36 48 47
f 37 38 49
f 38 50 49
f 38 39 50
f 39 51 50
f 39 40 51
f 40 52 51
f 40 41 52
f 41 53 52
f 41 42 53
f 42 54 53
f 42 43 54
f 43 55 54
f 43 44 55
f 44 56 55
f 44 45 56
f 45 57 56
f 45 46 57
f 46 58 57
f 46 47 58
f 47 59 58
f 47 48 59
f 48 60 59
f 49 50 61
f 50 62 61
f 50 51 62
f 51 63 62
f 51 52 63
f 52 64 63
f 52 53 64
f 53 65 64
f 53 54 65
f 54 66 65
f 54 55 66
f 55 67 66
f 55 56 67
f 56 68 67
f 56 57 68
f 57 69 68
f 57 58 69
f 58 70 69
f 58 59 70
f 59 71 70
f 59 60 71
f 60 72 71
f 61 62 73
f 62 74 73
f 62 63 74
f 63 75 74
f 63 64 75
f 64 76 75
f 64 65 76
f 65 77 76
f 65 66 77
f 66 78 77
f 66 67 78
f 67 79 78
f 67 68 79
f 68 80 79
f 68 69 80
f 69 81 80
f 69 70 81
f 70 82 81
f 70 71 82
f 71 83 82
f 71 72 83
f 72 84 83
f 73 74 85
f 74 86 85
f 74 75 86
f 75 87 86
f 75 76 87
f 76 88 87
f 76 77 88
f 77 89 88
f 77 78 89
f 78 90 89
f 78 79 90
f 79 91 90
f 79 80 91
f 80 92 91
f 80 81 92
f 81 93 92
f 81 82 93
f 82 94 93
f 82 83 94
f 83 95 94
f 83 84 95
f 84 96 95
f 85 86 97
f 86 98 97
f 86 87 98
f 87 99 98
f 87 88 99
f 88 100 99
f 88 89 100
f 89 101 100
f 89 90 101
f 90 102 101
f 90 91 102
f 91 103 102
f 91 92 103
f 92 104 103
f 92 93 104
f 93 105 104
f 93 94 105
f 94 106 105
f 94 95 106
f 95 107 106
f 95 96 107
f 96 108 107
f 97 98 109
f 98 110 109
f 98 99 110
f 99 111 110
f 99 100 111
f 100 112 111
f 100 101 112
f 101 113 112
f 101 102 113
f 102 114 113
f 102 103 114
f 103 115 114
f 103 104 115
f 104 116 115
f 104 105 116
f 105 117 116
f 105 106 117
f 106 118 117
f 106 107 118
f 107 119 118
f 107 108 119
f 108 120 119
f 109 110 121
f 110 122 121
f 110 111 122
f 111 123 122
f 111 112 123
f 112 124 123
f 112 113 124
f 113 125 124
f 113 114 125
f 114 126 125
f 114 115 126
f 115 127 126
f 115 116 127
f 116 128 127
f 116 117 128
f 117 129 128
f 117 118 129
f 118 130 129
f 118 119 130
f 119 131 130
f 119 120 131
f 120 132 131
f 121 122 133
f 122 134 133
f 122 123 134
f 123 135 134
f 123 124 135
f 124 136 135
f 124 125 136
f 125 137 136
f 125 126 137
f 126 138 137
f 126 127 138
f 127 139 138
f 127 128 139
f 128 140 139
f 128 129 140
f 129 141 140
f 129 130 141
f 130 142 141
f 130 131 142
f 131 143 142
f 131 132 143
f 132 144 143
f 145 146 155
f 146 156 155
f 146 147 156
f 147 157 156
f 147 148 157
f 148 158 157
f 148 149 158
f 149 159 158
f 149 150 159
f 150 160 159
f 150 151 160
f 151 161 160
f 151 152 161
f 152 162 161
f 152 153 162
f 153 163 162
f 153 154 163
f 154 164 163
f 154 145 164
f 145 155 164
f 165 166 175
f 166 176 175
f 166 167 176
f 167 177 176
f 167 168 177
f 168 178 177
f 168 169 178
f 169 179 178
f 169 170 179
f 170 180 179
f 170 171 180
f 171 181 180
f 171 172 181
f 172 182 181
f 172 173 182
f 173 183 182
f 173 174 183
f 174 184 183
f 174 165 184
f 165 175 184
f 185 186 195
f 186 196 195
f 186 187 196
f 187 197 196
f 187 188 197
f 188 198 197
f 188 189 198
f 189 199 198
f 189 190 199
f 190 200 199
f 190 191 200
f 191 201 200
f 191 192 201
f 192 202 201
f 192 193 202
f 193 203 202
f 193 194 203
f 194 204 203
f 194 185 204
f 185 195 204
f 205 206 215
f 206 216 215
f 206 207 216
f 207 217 216
f 207 208 217
f 208 218 217
f 208 209 218
f 209 219 218
f 209 210 219
f 210 220 219
f 210 211 220
f 211 221 220
f 211 212 221
f 212 222 221
f 212 213 222
f 213 223 222
f 213 214 223
f 214 224 223
f 214 205 224
f 205 215 224
f 225 226 235
f 226 236 235
f 226 227 236
f 227 237 236
f 227 228 237
f 228 238 237
f 228 229 238
f 229 239 238
f 229 230 239
f 230 240 239
f 230 231 240
f 231 241 240
f 231 232 241
f 232 242 241
f 232 233 242
f 233 243 242
f 233 234 243
f 234 244 243
f 234 225 244
f 225 235 244
f 245 246 255
f 246 256 255
f 246 247 256
f 247 257 256
f 247 248 257
f 248 258 257
f 248 249 258
f 249 259 258
f 249 250 259
f 250 260 259
f 250 251 260
f 251 261 260
f 251 252 261
f 252 262 261
f 252 253 262
f 253 263 262
f 253 254 263
f 254 264 263
f 254 245 264
f 245 255 264
f 265 266 275
f 266 276 275
f 266 267 276
f 267 277 276
f 267 268 277
f 268 278 277
f 268 269 278
f 269 279 278
f 269 270 279
f 270 280 279
f 270 271 280
f 271 281 280
f 271 272 281
f 272 282 281
f 272 273 282
f 273 283 282
f 273 274 283
f 274 284 283
f 274 265 284
f 265 275 284
f 285 286 295
f 286 296 295
f 286 287 296
f 287 297 296
f 287 288 297
f 288 298 297
f 288 289 298
f 289 299 298
f 289 290 299
f 290 300 299
f 290 291 300
f 291 301 300
f 291 292 301
f 292 302 301
f 292 293 302
f 293 303 302
f 293 294 303
f 294 304 303
f 294 285 304
f 285 295 304
f 305 306 315
f 306 316 315
f 306 307 316
f 307 317 316
f 307 308 317
f 308 318 317
f 308 309 318
f 309 319 318
f 309 310 319
f 310 320 319
f 310 311 320
f 311 321 320
f 311 312 321
f 312 322 321
f 312 313 322
f 313 323 322
f 313 314 323
f 314 324 323
f 314 305 324
f 305 315 324
f 325 326 335
f 326 336 335
f 326 327 336
f 327 337 336
f 327 328 337
f 328 338 337
f 328 329 338
f 329 339 338
f 329 330 339
f 330 340 339
f 330 331 340
f 331 341 340
f 331 332 341
f 332 342 341
f 332 333 342
f 333 343 342
f 333 334 343
f 334 344 343
f 334 325 344
f 325 335 344
f 345 346 355
f 346 356 355
f 346 347 356
f 347 357 356
f 347 348 357
f 348 358 357
f 348 349 358
f 349 359 358
f 349 350 359
f 350 360 359
f 350 351 360
f 351 361 360
f 351 352 361
f 352 362 361
f 352 353 362
f 353 363 362
f 353 354 363
f 354 364 363
f 354 345 364
f 345 355 364
f 365 366 375
f 366 376 375
f 366 367 376
f 367 377 376
f 367 368 377
f 368 378 377
f 368 369 378
f 369 379 378
f 369 370 379
f 370 380 379
f 370 371 380
f 371 381 380
f 371 372 381
f 372 382 381
f 372 373 382
f 373 383 382
f 373 374 383
f 374 384 383
f 374 365 384
f 365 375 384
