# Full-Body 3D Mesh - Frame 281
v 0.029620 -0.609925 -0.142469
v 0.063428 -0.609925 -0.147330
v 0.094497 -0.609925 -0.161519
v 0.120310 -0.609925 -0.183886
v 0.138776 -0.609925 -0.212620
v 0.148399 -0.609925 -0.245392
v 0.148399 -0.609925 -0.279547
v 0.138776 -0.609925 -0.312319
v 0.120310 -0.609925 -0.341053
v 0.094497 -0.609925 -0.363420
v 0.063428 -0.609925 -0.377609
v 0.029620 -0.609925 -0.382470
v 0.029620 -0.609925 -0.142469
v 0.058061 -0.591647 -0.147330
v 0.084198 -0.574850 -0.161519
v 0.105914 -0.560894 -0.183886
v 0.121448 -0.550911 -0.212620
v 0.129543 -0.545708 -0.245392
v 0.129543 -0.545708 -0.279547
v 0.121448 -0.550911 -0.312319
v 0.105914 -0.560894 -0.341053
v 0.084198 -0.574850 -0.363420
v 0.058061 -0.591647 -0.377609
v 0.029620 -0.609925 -0.382470
v 0.029620 -0.609925 -0.142469
v 0.043665 -0.579172 -0.147330
v 0.056571 -0.550911 -0.161519
v 0.067294 -0.527431 -0.183886
v 0.074965 -0.510633 -0.212620
v 0.078963 -0.501880 -0.245392
v 0.078963 -0.501880 -0.279547
v 0.074965 -0.510633 -0.312319
v 0.067294 -0.527431 -0.341053
v 0.056571 -0.550911 -0.363420
v 0.043665 -0.579172 -0.377609
v 0.029620 -0.609925 -0.382470
v 0.029620 -0.609925 -0.142469
v 0.024809 -0.576461 -0.147330
v 0.020387 -0.545708 -0.161519
v 0.016714 -0.520158 -0.183886
v 0.014086 -0.501880 -0.212620
v 0.012716 -0.492355 -0.245392
v 0.012716 -0.492355 -0.279547
v 0.014086 -0.501880 -0.312319
v 0.016714 -0.520158 -0.341053
v 0.020387 -0.545708 -0.363420
v 0.024809 -0.576461 -0.377609
v 0.029620 -0.609925 -0.382470
v 0.029620 -0.609925 -0.142469
v 0.007481 -0.584375 -0.147330
v -0.012865 -0.560894 -0.161519
v -0.029769 -0.541386 -0.183886
v -0.041862 -0.527431 -0.212620
v -0.048163 -0.520158 -0.245392
v -0.048163 -0.520158 -0.279547
v -0.041862 -0.527431 -0.312319
v -0.029769 -0.541386 -0.341053
v -0.012865 -0.560894 -0.363420
v 0.007481 -0.584375 -0.377609
v 0.029620 -0.609925 -0.382470
v 0.029620 -0.609925 -0.142469
v -0.002818 -0.600400 -0.147330
v -0.032629 -0.591647 -0.161519
v -0.057396 -0.584375 -0.183886
v -0.075114 -0.579172 -0.212620
v -0.084347 -0.576461 -0.245392
v -0.084347 -0.576461 -0.279547
v -0.075114 -0.579172 -0.312319
v -0.057396 -0.584375 -0.341053
v -0.032629 -0.591647 -0.363420
v -0.002818 -0.600400 -0.377609
v 0.029620 -0.609925 -0.382470
v 0.029620 -0.609925 -0.142469
v -0.002818 -0.619450 -0.147330
v -0.032629 -0.628203 -0.161519
v -0.057396 -0.635475 -0.183886
v -0.075114 -0.640678 -0.212620
v -0.084347 -0.643389 -0.245392
v -0.084347 -0.643389 -0.279547
v -0.075114 -0.640678 -0.312319
v -0.057396 -0.635475 -0.341053
v -0.032629 -0.628203 -0.363420
v -0.002818 -0.619450 -0.377609
v 0.029620 -0.609925 -0.382470
v 0.029620 -0.609925 -0.142469
v 0.007481 -0.635475 -0.147330
v -0.012865 -0.658956 -0.161519
v -0.029769 -0.678464 -0.183886
v -0.041862 -0.692420 -0.212620
v -0.048163 -0.699692 -0.245392
v -0.048163 -0.699692 -0.279547
v -0.041862 -0.692420 -0.312319
v -0.029769 -0.678464 -0.341053
v -0.012865 -0.658956 -0.363420
v 0.007481 -0.635475 -0.377609
v 0.029620 -0.609925 -0.382470
v 0.029620 -0.609925 -0.142469
v 0.024809 -0.643389 -0.147330
v 0.020387 -0.674142 -0.161519
v 0.016714 -0.699692 -0.183886
v 0.014086 -0.717970 -0.212620
v 0.012716 -0.727495 -0.245392
v 0.012716 -0.727495 -0.279547
v 0.014086 -0.717970 -0.312319
v 0.016714 -0.699692 -0.341053
v 0.020387 -0.674142 -0.363420
v 0.024809 -0.643389 -0.377609
v 0.029620 -0.609925 -0.382470
v 0.029620 -0.609925 -0.142469
v 0.043665 -0.640678 -0.147330
v 0.056571 -0.668939 -0.161519
v 0.067294 -0.692420 -0.183886
v 0.074965 -0.709217 -0.212620
v 0.078963 -0.717970 -0.245392
v 0.078963 -0.717970 -0.279547
v 0.074965 -0.709217 -0.312319
v 0.067294 -0.692420 -0.341053
v 0.056571 -0.668939 -0.363420
v 0.043665 -0.640678 -0.377609
v 0.029620 -0.609925 -0.382470
v 0.029620 -0.609925 -0.142469
v 0.058061 -0.628203 -0.147330
v 0.084198 -0.645000 -0.161519
v 0.105914 -0.658956 -0.183886
v 0.121448 -0.668939 -0.212620
v 0.129543 -0.674142 -0.245392
v 0.129543 -0.674142 -0.279547
v 0.121448 -0.668939 -0.312319
v 0.105914 -0.658956 -0.341053
v 0.084198 -0.645000 -0.363420
v 0.058061 -0.628203 -0.377609
v 0.029620 -0.609925 -0.382470
v 0.029620 -0.609925 -0.142469
v 0.063428 -0.609925 -0.147330
v 0.094497 -0.609925 -0.161519
v 0.120310 -0.609925 -0.183886
v 0.138776 -0.609925 -0.212620
v 0.148399 -0.609925 -0.245392
v 0.148399 -0.609925 -0.279547
v 0.138776 -0.609925 -0.312319
v 0.120310 -0.609925 -0.341053
v 0.094497 -0.609925 -0.363420
v 0.063428 -0.609925 -0.377609
v 0.029620 -0.609925 -0.382470
v 0.177653 -0.420836 -0.120029
v 0.179063 -0.444298 -0.112370
v 0.179728 -0.458799 -0.092359
v 0.179396 -0.458799 -0.067640
v 0.178193 -0.444298 -0.047654
v 0.176579 -0.420836 -0.040036
v 0.175169 -0.397373 -0.047695
v 0.174503 -0.382872 -0.067705
v 0.174836 -0.382872 -0.092425
v 0.176039 -0.397373 -0.112410
v -0.149899 -0.441947 -0.124428
v -0.148489 -0.465410 -0.116769
v -0.147823 -0.479911 -0.096759
v -0.148155 -0.479911 -0.072039
v -0.149358 -0.465410 -0.052054
v -0.150973 -0.441947 -0.044436
v -0.152382 -0.418485 -0.052094
v -0.153048 -0.403984 -0.072105
v -0.152716 -0.403984 -0.096824
v -0.151513 -0.418485 -0.116810
v 0.177116 -0.423303 -0.119956
v 0.154514 -0.416366 -0.112731
v 0.140546 -0.411138 -0.093016
v 0.140546 -0.409613 -0.068341
v 0.154514 -0.412375 -0.048132
v 0.177116 -0.418369 -0.040108
v 0.199718 -0.425305 -0.047334
v 0.213686 -0.430534 -0.067049
v 0.213686 -0.432059 -0.091723
v 0.199718 -0.429296 -0.111932
v 0.249483 -0.171267 -0.135529
v 0.226882 -0.164331 -0.128303
v 0.212913 -0.159102 -0.108588
v 0.212913 -0.157577 -0.083914
v 0.226882 -0.160339 -0.063705
v 0.249483 -0.166333 -0.055681
v 0.272085 -0.173269 -0.062906
v 0.286053 -0.178498 -0.082621
v 0.286053 -0.180023 -0.107296
v 0.272085 -0.177260 -0.127504
v 0.249483 -0.173866 -0.135283
v 0.226035 -0.171187 -0.127923
v 0.211544 -0.167596 -0.108220
v 0.211544 -0.164465 -0.083697
v 0.226035 -0.162989 -0.063723
v 0.249483 -0.163733 -0.055927
v 0.272931 -0.166413 -0.063286
v 0.287423 -0.170004 -0.082990
v 0.287423 -0.173135 -0.107512
v 0.272931 -0.174610 -0.127486
v 0.263746 0.018375 -0.159831
v 0.240298 0.021054 -0.152471
v 0.225806 0.024645 -0.132768
v 0.225806 0.027777 -0.108245
v 0.240298 0.029252 -0.088271
v 0.263746 0.028508 -0.080475
v 0.287194 0.025829 -0.087834
v 0.301685 0.022238 -0.107538
v 0.301685 0.019106 -0.132060
v 0.287194 0.017631 -0.152034
v -0.150436 -0.467564 -0.115153
v -0.169768 -0.472949 -0.100716
v -0.181716 -0.466491 -0.080060
v -0.181716 -0.450659 -0.061073
v -0.169768 -0.431500 -0.051009
v -0.150436 -0.416331 -0.053711
v -0.131103 -0.410946 -0.068147
v -0.119155 -0.417404 -0.088804
v -0.119155 -0.433236 -0.107790
v -0.131103 -0.452395 -0.117855
v -0.321366 -0.277890 -0.273314
v -0.340699 -0.283275 -0.258877
v -0.352647 -0.276818 -0.238221
v -0.352647 -0.260985 -0.219234
v -0.340699 -0.241826 -0.209170
v -0.321366 -0.226657 -0.211872
v -0.302034 -0.221273 -0.226308
v -0.290085 -0.227730 -0.246965
v -0.290085 -0.243562 -0.265951
v -0.302034 -0.262721 -0.276016
v -0.321366 -0.283900 -0.218102
v -0.340382 -0.286325 -0.233712
v -0.352135 -0.275744 -0.252713
v -0.352135 -0.256198 -0.267849
v -0.340382 -0.235153 -0.273338
v -0.321366 -0.220647 -0.267083
v -0.302350 -0.218222 -0.251474
v -0.290597 -0.228803 -0.232472
v -0.290597 -0.248349 -0.217336
v -0.302350 -0.269394 -0.211847
v -0.164595 -0.415908 -0.388574
v -0.183611 -0.418334 -0.404183
v -0.195364 -0.407752 -0.423185
v -0.195364 -0.388206 -0.438321
v -0.183611 -0.367161 -0.443810
v -0.164595 -0.352656 -0.437555
v -0.145579 -0.350230 -0.421945
v -0.133827 -0.360811 -0.402944
v -0.133827 -0.380357 -0.387808
v -0.145579 -0.401402 -0.382319
v 0.177116 -0.414179 -0.119474
v 0.153805 -0.418470 -0.112451
v 0.139398 -0.423664 -0.093045
v 0.139398 -0.427778 -0.068668
v 0.153805 -0.429240 -0.048632
v 0.177116 -0.427492 -0.040590
v 0.200427 -0.423201 -0.047613
v 0.214834 -0.418007 -0.067019
v 0.214834 -0.413893 -0.091396
v 0.200427 -0.412431 -0.111432
v 0.118819 0.023431 -0.045623
v 0.095508 0.019140 -0.038600
v 0.081101 0.013946 -0.019194
v 0.081101 0.009832 0.005183
v 0.095508 0.008370 0.025219
v 0.118819 0.010118 0.033261
v 0.142130 0.014409 0.026238
v 0.156537 0.019603 0.006832
v 0.156537 0.023717 -0.017545
v 0.142130 0.025179 -0.037581
v -0.150436 -0.433309 -0.123488
v -0.173881 -0.433231 -0.115647
v -0.188370 -0.436482 -0.095883
v -0.188370 -0.441821 -0.071745
v -0.173881 -0.447209 -0.052453
v -0.150436 -0.450586 -0.045376
v -0.126991 -0.450664 -0.053217
v -0.112501 -0.447413 -0.072981
v -0.112501 -0.442074 -0.097119
v -0.126991 -0.436686 -0.116411
v -0.118308 -0.017699 -0.031559
v -0.141752 -0.017621 -0.023718
v -0.156242 -0.020873 -0.003954
v -0.156242 -0.026212 0.020184
v -0.141752 -0.031599 0.039476
v -0.118308 -0.034977 0.046553
v -0.094863 -0.035055 0.038712
v -0.080373 -0.031803 0.018947
v -0.080373 -0.026464 -0.005191
v -0.094863 -0.021077 -0.024482
v 0.116515 0.016775 -0.046114
v 0.121147 -0.006359 -0.038730
v 0.124890 -0.020656 -0.018912
v 0.126313 -0.020656 0.005768
v 0.124874 -0.006359 0.025884
v 0.121122 0.016775 0.033753
v 0.116490 0.039908 0.026368
v 0.112748 0.054205 0.006551
v 0.111324 0.054205 -0.018130
v 0.112763 0.039908 -0.038246
v -0.120611 -0.026338 -0.032437
v -0.115979 -0.049471 -0.025052
v -0.112237 -0.063768 -0.005235
v -0.110813 -0.063768 0.019446
v -0.112252 -0.049471 0.039562
v -0.116004 -0.026338 0.047430
v -0.120636 -0.003204 0.040046
v -0.124379 0.011093 0.020228
v -0.125802 0.011093 -0.004452
v -0.124363 -0.003204 -0.024568
v 0.118819 0.008488 -0.045313
v 0.095494 0.007177 -0.037227
v 0.081079 0.009531 -0.017282
v 0.081079 0.014653 0.006903
v 0.095494 0.020585 0.026091
v 0.118819 0.025061 0.032951
v 0.142143 0.026373 0.024865
v 0.156559 0.024018 0.004920
v 0.156559 0.018896 -0.019265
v 0.142143 0.012964 -0.038452
v 0.095551 0.187973 -0.083322
v 0.072227 0.186662 -0.075235
v 0.057811 0.189017 -0.055290
v 0.057811 0.194138 -0.031105
v 0.072227 0.200070 -0.011918
v 0.095551 0.204547 -0.005057
v 0.118876 0.205858 -0.013144
v 0.133291 0.203503 -0.033088
v 0.133291 0.198381 -0.057273
v 0.118876 0.192450 -0.076461
v 0.095551 0.215526 -0.079244
v 0.072204 0.214275 -0.071214
v 0.057774 0.206143 -0.052862
v 0.057774 0.194236 -0.031197
v 0.072204 0.183102 -0.014495
v 0.095551 0.176994 -0.009135
v 0.118899 0.178244 -0.017165
v 0.133328 0.186376 -0.035517
v 0.133328 0.198284 -0.057182
v 0.118899 0.209418 -0.073884
v 0.139361 0.538969 0.098523
v 0.116013 0.537718 0.106553
v 0.101584 0.529586 0.124905
v 0.101584 0.517679 0.146570
v 0.116013 0.506545 0.163272
v 0.139361 0.500436 0.168632
v 0.162708 0.501687 0.160603
v 0.177138 0.509819 0.142250
v 0.177138 0.521726 0.120586
v 0.162708 0.532860 0.103883
v -0.118308 -0.065364 -0.001276
v -0.141512 -0.058741 0.004095
v -0.155853 -0.039742 0.010765
v -0.155853 -0.015622 0.016187
v -0.141512 0.004404 0.018290
v -0.118308 0.012688 0.016270
v -0.095103 0.006066 0.010899
v -0.080762 -0.012934 0.004228
v -0.080762 -0.037053 -0.001194
v -0.095103 -0.057080 -0.003296
v -0.151883 -0.020252 -0.201957
v -0.175087 -0.013629 -0.196586
v -0.189428 0.005371 -0.189916
v -0.189428 0.029490 -0.184494
v -0.175087 0.049517 -0.182391
v -0.151883 0.057801 -0.184411
v -0.128679 0.051178 -0.189782
v -0.114338 0.032178 -0.196453
v -0.114338 0.008059 -0.201875
v -0.128679 -0.011967 -0.203977
v -0.151883 0.010299 -0.232276
v -0.174936 0.016432 -0.225789
v -0.189184 0.023460 -0.206848
v -0.189184 0.028699 -0.182688
v -0.174936 0.030147 -0.162537
v -0.151883 0.027251 -0.154093
v -0.128830 0.021117 -0.160579
v -0.114582 0.014089 -0.179520
v -0.114582 0.008850 -0.203680
v -0.128830 0.007403 -0.223831
v -0.091308 0.305716 -0.296330
v -0.114361 0.311850 -0.289843
v -0.128609 0.318878 -0.270902
v -0.128609 0.324117 -0.246742
v -0.114361 0.325564 -0.226591
v -0.091308 0.322668 -0.218146
v -0.068255 0.316535 -0.224633
v -0.054007 0.309507 -0.243574
v -0.054007 0.304268 -0.267734
v -0.068255 0.302820 -0.287885
v -0.027998 0.098886 -0.001771
v -0.032131 0.090841 0.000264
v -0.034686 0.082633 -0.003207
v -0.034686 0.077397 -0.010857
v -0.032131 0.077132 -0.019764
v -0.027998 0.081941 -0.026527
v -0.023865 0.089986 -0.028562
v -0.021310 0.098194 -0.025092
v -0.021310 0.103430 -0.017442
v -0.023865 0.103695 -0.008534
v 0.008221 0.083024 0.009086
v 0.004088 0.074979 0.011121
v 0.001534 0.066771 0.007651
v 0.001534 0.061534 0.000001
v 0.004088 0.061270 -0.008907
v 0.008221 0.066079 -0.015670
v 0.012355 0.074123 -0.017705
v 0.014909 0.082331 -0.014234
v 0.014909 0.087568 -0.006584
v 0.012355 0.087832 0.002324
v 0.008221 0.082633 0.009345
v 0.002353 0.075546 0.010477
v -0.001274 0.068079 0.006350
v -0.001274 0.063084 -0.001460
v 0.002353 0.062469 -0.009969
v 0.008221 0.066469 -0.015928
v 0.014090 0.073556 -0.017060
v 0.017716 0.081023 -0.012933
v 0.017716 0.086018 -0.005124
v 0.014090 0.086633 0.003386
v 0.036262 0.061567 0.022819
v 0.030394 0.054480 0.023951
v 0.026767 0.047013 0.019824
v 0.026767 0.042018 0.012014
v 0.030394 0.041403 0.003505
v 0.036262 0.045403 -0.002454
v 0.042130 0.052490 -0.003586
v 0.045757 0.059957 0.000541
v 0.045757 0.064952 0.008350
v 0.042130 0.065567 0.016860
v 0.036262 0.062579 0.022111
v 0.029596 0.056253 0.023331
v 0.025476 0.048870 0.019529
v 0.025476 0.043250 0.012156
v 0.029596 0.041539 0.004030
v 0.036262 0.044391 -0.001747
v 0.042928 0.050717 -0.002967
v 0.047048 0.058100 0.000836
v 0.047048 0.063720 0.008208
v 0.042928 0.065431 0.016335
v 0.059866 0.040891 0.038644
v 0.053200 0.034566 0.039864
v 0.049080 0.027183 0.036061
v 0.049080 0.021563 0.028689
v 0.053200 0.019852 0.020562
v 0.059866 0.022704 0.014786
v 0.066533 0.029030 0.013566
v 0.070653 0.036413 0.017368
v 0.070653 0.042033 0.024741
v 0.066533 0.043744 0.032867
v 0.059866 0.040138 0.039182
v 0.051347 0.036658 0.038064
v 0.046082 0.031322 0.032610
v 0.046082 0.026167 0.024904
v 0.051347 0.023163 0.017891
v 0.059866 0.023457 0.014247
v 0.068386 0.026937 0.015366
v 0.073651 0.032274 0.020819
v 0.073651 0.037428 0.028525
v 0.068386 0.040432 0.035539
v 0.067102 0.017568 0.054280
v 0.058583 0.014088 0.053161
v 0.053318 0.008752 0.047708
v 0.053318 0.003598 0.040002
v 0.058583 0.000594 0.032988
v 0.067102 0.000888 0.029345
v 0.075622 0.004368 0.030464
v 0.080887 0.009704 0.035917
v 0.080887 0.014859 0.043623
v 0.075622 0.017862 0.050637
v -0.027998 0.096047 -0.000247
v -0.035853 0.091260 -0.001398
v -0.040708 0.086150 -0.007420
v -0.040708 0.082668 -0.016012
v -0.035853 0.082145 -0.023892
v -0.027998 0.084780 -0.028051
v -0.020143 0.089567 -0.026900
v -0.015288 0.094677 -0.020878
v -0.015288 0.098159 -0.012287
v -0.020143 0.098682 -0.004406
v 0.019944 0.008887 0.035073
v 0.012089 0.004100 0.033922
v 0.007235 -0.001010 0.027900
v 0.007235 -0.004492 0.019309
v 0.012089 -0.005015 0.011428
v 0.019944 -0.002380 0.007269
v 0.027799 0.002407 0.008420
v 0.032654 0.007518 0.014442
v 0.032654 0.010999 0.023034
v 0.027799 0.011522 0.030914
v 0.019944 0.001282 0.036041
v 0.011964 -0.002057 0.032708
v 0.007031 -0.003367 0.024969
v 0.007031 -0.002149 0.015779
v 0.011964 0.001134 0.008648
v 0.019944 0.005226 0.006301
v 0.027925 0.008564 0.009634
v 0.032857 0.009874 0.017373
v 0.032857 0.008656 0.026563
v 0.027925 0.005373 0.033694
v 0.033580 -0.027503 0.032224
v 0.025600 -0.030841 0.028891
v 0.020667 -0.032152 0.021151
v 0.020667 -0.030933 0.011961
v 0.025600 -0.027651 0.004831
v 0.033580 -0.023559 0.002484
v 0.041561 -0.020220 0.005817
v 0.046493 -0.018910 0.013556
v 0.046493 -0.020129 0.022746
v 0.041561 -0.023411 0.029876
v 0.033580 -0.039964 0.021438
v 0.026780 -0.038736 0.015258
v 0.022578 -0.032463 0.009878
v 0.022578 -0.023543 0.007354
v 0.026780 -0.015382 0.008649
v 0.033580 -0.011098 0.013269
v 0.040380 -0.012326 0.019449
v 0.044583 -0.018598 0.024829
v 0.044583 -0.027518 0.027353
v 0.040380 -0.035679 0.026058
v 0.045063 -0.043753 0.008051
v 0.038263 -0.042524 0.001870
v 0.034061 -0.036252 -0.003509
v 0.034061 -0.027332 -0.006034
v 0.038263 -0.019171 -0.004739
v 0.045063 -0.014886 -0.000119
v 0.051863 -0.016115 0.006061
v 0.056066 -0.022387 0.011441
v 0.056066 -0.031307 0.013966
v 0.051863 -0.039468 0.012670
v 0.045063 -0.041884 -0.004227
v 0.036421 -0.038532 -0.004123
v 0.031079 -0.031661 -0.000930
v 0.031079 -0.023895 0.004134
v 0.036421 -0.018202 0.009133
v 0.045063 -0.016755 0.012159
v 0.053706 -0.020107 0.012055
v 0.059047 -0.026978 0.008862
v 0.059047 -0.034744 0.003798
v 0.053706 -0.040437 -0.001202
v 0.051217 -0.025229 -0.029768
v 0.042574 -0.021877 -0.029664
v 0.037233 -0.015006 -0.026471
v 0.037233 -0.007241 -0.021407
v 0.042574 -0.001547 -0.016407
v 0.051217 -0.000100 -0.013382
v 0.059859 -0.003452 -0.013486
v 0.065200 -0.010323 -0.016679
v 0.065200 -0.018089 -0.021743
v 0.059859 -0.023782 -0.026743
v -0.027998 0.093870 0.000447
v -0.036485 0.090886 -0.001790
v -0.041730 0.087721 -0.008748
v -0.041730 0.085585 -0.017769
v -0.036485 0.085293 -0.025407
v -0.027998 0.086957 -0.028745
v -0.019511 0.089941 -0.026508
v -0.014266 0.093106 -0.019550
v -0.014266 0.095242 -0.010529
v -0.019511 0.095534 -0.002891
v -0.000494 -0.001228 0.022968
v -0.008981 -0.004212 0.020730
v -0.014226 -0.007377 0.013773
v -0.014226 -0.009513 0.004752
v -0.008981 -0.009805 -0.002887
v -0.000494 -0.008141 -0.006225
v 0.007994 -0.005156 -0.003988
v 0.013239 -0.001991 0.002970
v 0.013239 0.000145 0.011991
v 0.007994 0.000437 0.019630
v -0.000494 -0.009289 0.022647
v -0.008603 -0.011704 0.018858
v -0.013614 -0.011437 0.011064
v -0.013614 -0.008590 0.002241
v -0.008603 -0.004252 -0.004240
v -0.000494 -0.000079 -0.005904
v 0.007616 0.002335 -0.002115
v 0.012627 0.002068 0.005679
v 0.012627 -0.000778 0.014502
v 0.007616 -0.005116 0.020983
v 0.016184 -0.046478 0.010650
v 0.008074 -0.048893 0.006861
v 0.003063 -0.048626 -0.000933
v 0.003063 -0.045779 -0.009756
v 0.008074 -0.041441 -0.016237
v 0.016184 -0.037268 -0.017901
v 0.024293 -0.034854 -0.014112
v 0.029304 -0.035121 -0.006318
v 0.029304 -0.037967 0.002505
v 0.024293 -0.042305 0.008986
v 0.016184 -0.056077 -0.008447
v 0.008699 -0.051867 -0.011939
v 0.004073 -0.043839 -0.012256
v 0.004073 -0.035060 -0.009276
v 0.008699 -0.028884 -0.004138
v 0.016184 -0.027669 0.001195
v 0.023668 -0.031880 0.004688
v 0.028294 -0.039907 0.005004
v 0.028294 -0.048686 0.002025
v 0.023668 -0.054862 -0.003113
v 0.030827 -0.048518 -0.030718
v 0.023343 -0.044308 -0.034210
v 0.018717 -0.036280 -0.034527
v 0.018717 -0.027501 -0.031548
v 0.023343 -0.021325 -0.026410
v 0.030827 -0.020110 -0.021076
v 0.038312 -0.024320 -0.017584
v 0.042938 -0.032348 -0.017267
v 0.042938 -0.041127 -0.020247
v 0.038312 -0.047303 -0.025385
v 0.030827 -0.042664 -0.038358
v 0.022524 -0.038606 -0.037629
v 0.017393 -0.032908 -0.032419
v 0.017393 -0.027747 -0.024718
v 0.022524 -0.025095 -0.017467
v 0.030827 -0.025964 -0.013436
v 0.039130 -0.030022 -0.014165
v 0.044262 -0.035720 -0.019375
v 0.044262 -0.040881 -0.027077
v 0.039130 -0.043533 -0.034327
v 0.038834 -0.024043 -0.050836
v 0.030531 -0.019984 -0.050108
v 0.025400 -0.014287 -0.044898
v 0.025400 -0.009126 -0.037196
v 0.030531 -0.006474 -0.029946
v 0.038834 -0.007343 -0.025915
v 0.047137 -0.011401 -0.026643
v 0.052269 -0.017099 -0.031854
v 0.052269 -0.022260 -0.039555
v 0.047137 -0.024912 -0.046806
v -0.027998 0.090603 0.000850
v -0.036716 0.089253 -0.001998
v -0.042105 0.088347 -0.009487
v -0.042105 0.088230 -0.018757
v -0.036716 0.088947 -0.026267
v -0.027998 0.090224 -0.029148
v -0.019280 0.091574 -0.026300
v -0.013891 0.092480 -0.018811
v -0.013891 0.092597 -0.009541
v -0.019280 0.091880 -0.002031
v -0.013856 -0.003269 0.002034
v -0.022575 -0.004618 -0.000814
v -0.027963 -0.005524 -0.008303
v -0.027963 -0.005641 -0.017573
v -0.022575 -0.004924 -0.025083
v -0.013856 -0.003647 -0.027964
v -0.005138 -0.002298 -0.025116
v 0.000250 -0.001392 -0.017627
v 0.000250 -0.001275 -0.008357
v -0.005138 -0.001992 -0.000847
v -0.013856 -0.008670 0.001101
v -0.022205 -0.010333 -0.002571
v -0.027364 -0.009371 -0.010213
v -0.027364 -0.006150 -0.018906
v -0.022205 -0.001901 -0.025329
v -0.013856 0.001754 -0.027030
v -0.005508 0.003417 -0.023359
v -0.000348 0.002455 -0.015717
v -0.000348 -0.000766 -0.007024
v -0.005508 -0.005016 -0.000600
v -0.002326 -0.040501 -0.010694
v -0.010675 -0.042164 -0.014366
v -0.015834 -0.041202 -0.022007
v -0.015834 -0.037981 -0.030700
v -0.010675 -0.033731 -0.037124
v -0.002326 -0.030077 -0.038825
v 0.006022 -0.028414 -0.035154
v 0.011181 -0.029376 -0.027512
v 0.011181 -0.032597 -0.018819
v 0.006022 -0.036847 -0.012395
v -0.002326 -0.048484 -0.031893
v -0.008590 -0.043014 -0.035989
v -0.012461 -0.034592 -0.035796
v -0.012461 -0.026437 -0.031388
v -0.008590 -0.021663 -0.024448
v -0.002326 -0.022094 -0.017627
v 0.003937 -0.027564 -0.013530
v 0.007808 -0.035986 -0.013723
v 0.007808 -0.044141 -0.018131
v 0.003937 -0.048915 -0.025072
v 0.017117 -0.039152 -0.049158
v 0.010854 -0.033681 -0.053254
v 0.006983 -0.025259 -0.053061
v 0.006983 -0.017104 -0.048653
v 0.010854 -0.012330 -0.041713
v 0.017117 -0.012761 -0.034892
v 0.023381 -0.018232 -0.030795
v 0.027252 -0.026653 -0.030988
v 0.027252 -0.034808 -0.035396
v 0.023381 -0.039582 -0.042337
v 0.017117 -0.031876 -0.055807
v 0.009192 -0.027197 -0.054699
v 0.004293 -0.022043 -0.048750
v 0.004293 -0.018384 -0.040232
v 0.009192 -0.017618 -0.032399
v 0.017117 -0.020036 -0.028242
v 0.025043 -0.024715 -0.029350
v 0.029942 -0.029869 -0.035299
v 0.029942 -0.033528 -0.043817
v 0.025043 -0.034295 -0.051650
v 0.027298 -0.012681 -0.064052
v 0.019373 -0.008002 -0.062945
v 0.014474 -0.002848 -0.056996
v 0.014474 0.000811 -0.048478
v 0.019373 0.001578 -0.040644
v 0.027298 -0.000841 -0.036488
v 0.035224 -0.005520 -0.037596
v 0.040122 -0.010674 -0.043544
v 0.040122 -0.014333 -0.052062
v 0.035224 -0.015099 -0.059896
v -0.027998 0.087184 0.000499
v -0.036815 0.087732 -0.002314
v -0.042263 0.089305 -0.009647
v -0.042263 0.091301 -0.018700
v -0.036815 0.092958 -0.026015
v -0.027998 0.093643 -0.028797
v -0.019182 0.093095 -0.025985
v -0.013733 0.091522 -0.018651
v -0.013733 0.089526 -0.009598
v -0.019182 0.087869 -0.002283
v -0.027323 0.004398 -0.017752
v -0.036140 0.004946 -0.020565
v -0.041589 0.006518 -0.027898
v -0.041589 0.008514 -0.036951
v -0.036140 0.010171 -0.044266
v -0.027323 0.010856 -0.047049
v -0.018507 0.010308 -0.044236
v -0.013058 0.008736 -0.036902
v -0.013058 0.006740 -0.027849
v -0.018507 0.005083 -0.020535
v -0.027323 0.002564 -0.018281
v -0.034966 -0.000607 -0.022461
v -0.039690 -0.000632 -0.030438
v -0.039690 0.002497 -0.039164
v -0.034966 0.007586 -0.045307
v -0.027323 0.012691 -0.046520
v -0.019680 0.015861 -0.042339
v -0.014957 0.015887 -0.034363
v -0.014957 0.012757 -0.025636
v -0.019680 0.007668 -0.019494
v -0.015073 -0.017487 -0.025471
v -0.022716 -0.020657 -0.029652
v -0.027439 -0.020683 -0.037628
v -0.027439 -0.017553 -0.046355
v -0.022716 -0.012465 -0.052497
v -0.015073 -0.007360 -0.053710
v -0.007430 -0.004189 -0.049530
v -0.002706 -0.004164 -0.041553
v -0.002706 -0.007293 -0.032827
v -0.007430 -0.012382 -0.026684
v -0.015073 -0.027394 -0.040531
v -0.019916 -0.024073 -0.047704
v -0.022910 -0.016303 -0.051778
v -0.022910 -0.007050 -0.051197
v -0.019916 0.000150 -0.046183
v -0.015073 0.002547 -0.038651
v -0.010229 -0.000774 -0.031478
v -0.007236 -0.008544 -0.027403
v -0.007236 -0.017797 -0.027984
v -0.010229 -0.024996 -0.032999
v 0.006219 -0.026517 -0.054502
v 0.001375 -0.023196 -0.061675
v -0.001618 -0.015425 -0.065749
v -0.001618 -0.006173 -0.065168
v 0.001375 0.001027 -0.060154
v 0.006219 0.003424 -0.052622
v 0.011062 0.000104 -0.045449
v 0.014056 -0.007667 -0.041374
v 0.014056 -0.016919 -0.041955
v 0.011062 -0.024119 -0.046970
v 0.006219 -0.015671 -0.067983
v -0.001441 -0.010685 -0.066430
v -0.006175 -0.006029 -0.059961
v -0.006175 -0.003479 -0.051048
v -0.001441 -0.004011 -0.043095
v 0.006219 -0.007421 -0.039140
v 0.013879 -0.012407 -0.040694
v 0.018613 -0.017064 -0.047162
v 0.018613 -0.019613 -0.056076
v 0.013879 -0.019081 -0.064028
v 0.015917 0.000686 -0.072662
v 0.008257 0.005672 -0.071108
v 0.003523 0.010329 -0.064639
v 0.003523 0.012878 -0.055726
v 0.008257 0.012346 -0.047773
v 0.015917 0.008936 -0.043818
v 0.023576 0.003950 -0.045372
v 0.028310 -0.000707 -0.051841
v 0.028310 -0.003256 -0.060754
v 0.023576 -0.002724 -0.068707
f 1 2 13
f 2 14 13
f 2 3 14
f 3 15 14
f 3 4 15
f 4 16 15
f 4 5 16
f 5 17 16
f 5 6 17
f 6 18 17
f 6 7 18
f 7 19 18
f 7 8 19
f 8 20 19
f 8 9 20
f 9 21 20
f 9 10 21
f 10 22 21
f 10 11 22
f 11 23 22
f 11 12 23
f 12 24 23
f 13 14 25
f 14 26 25
f 14 15 26
f 15 27 26
f 15 16 27
f 16 28 27
f 16 17 28
f 17 29 28
f 17 18 29
f 18 30 29
f 18 19 30
f 19 31 30
f 19 20 31
f 20 32 31
f 20 21 32
f 21 33 32
f 21 22 33
f 22 34 33
f 22 23 34
f 23 35 34
f 23 24 35
f 24 36 35
f 25 26 37
f 26 38 37
f 26 27 38
f 27 39 38
f 27 28 39
f 28 40 39
f 28 29 40
f 29 41 40
f 29 30 41
f 30 42 41
f 30 31 42
f 31 43 42
f 31 32 43
f 32 44 43
f 32 33 44
f 33 45 44
f 33 34 45
f 34 46 45
f 34 35 46
f 35 47 46
f 35 36 47
f 36 48 47
f 37 38 49
f 38 50 49
f 38 39 50
f 39 51 50
f 39 40 51
f 40 52 51
f 40 41 52
f 41 53 52
f 41 42 53
f 42 54 53
f 42 43 54
f 43 55 54
f 43 44 55
f 44 56 55
f 44 45 56
f 45 57 56
f 45 46 57
f 46 58 57
f 46 47 58
f 47 59 58
f 47 48 59
f 48 60 59
f 49 50 61
f 50 62 61
f 50 51 62
f 51 63 62
f 51 52 63
f 52 64 63
f 52 53 64
f 53 65 64
f 53 54 65
f 54 66 65
f 54 55 66
f 55 67 66
f 55 56 67
f 56 68 67
f 56 57 68
f 57 69 68
f 57 58 69
f 58 70 69
f 58 59 70
f 59 71 70
f 59 60 71
f 60 72 71
f 61 62 73
f 62 74 73
f 62 63 74
f 63 75 74
f 63 64 75
f 64 76 75
f 64 65 76
f 65 77 76
f 65 66 77
f 66 78 77
f 66 67 78
f 67 79 78
f 67 68 79
f 68 80 79
f 68 69 80
f 69 81 80
f 69 70 81
f 70 82 81
f 70 71 82
f 71 83 82
f 71 72 83
f 72 84 83
f 73 74 85
f 74 86 85
f 74 75 86
f 75 87 86
f 75 76 87
f 76 88 87
f 76 77 88
f 77 89 88
f 77 78 89
f 78 90 89
f 78 79 90
f 79 91 90
f 79 80 91
f 80 92 91
f 80 81 92
f 81 93 92
f 81 82 93
f 82 94 93
f 82 83 94
f 83 95 94
f 83 84 95
f 84 96 95
f 85 86 97
f 86 98 97
f 86 87 98
f 87 99 98
f 87 88 99
f 88 100 99
f 88 89 100
f 89 101 100
f 89 90 101
f 90 102 101
f 90 91 102
f 91 103 102
f 91 92 103
f 92 104 103
f 92 93 104
f 93 105 104
f 93 94 105
f 94 106 105
f 94 95 106
f 95 107 106
f 95 96 107
f 96 108 107
f 97 98 109
f 98 110 109
f 98 99 110
f 99 111 110
f 99 100 111
f 100 112 111
f 100 101 112
f 101 113 112
f 101 102 113
f 102 114 113
f 102 103 114
f 103 115 114
f 103 104 115
f 104 116 115
f 104 105 116
f 105 117 116
f 105 106 117
f 106 118 117
f 106 107 118
f 107 119 118
f 107 108 119
f 108 120 119
f 109 110 121
f 110 122 121
f 110 111 122
f 111 123 122
f 111 112 123
f 112 124 123
f 112 113 124
f 113 125 124
f 113 114 125
f 114 126 125
f 114 115 126
f 115 127 126
f 115 116 127
f 116 128 127
f 116 117 128
f 117 129 128
f 117 118 129
f 118 130 129
f 118 119 130
f 119 131 130
f 119 120 131
f 120 132 131
f 121 122 133
f 122 134 133
f 122 123 134
f 123 135 134
f 123 124 135
f 124 136 135
f 124 125 136
f 125 137 136
f 125 126 137
f 126 138 137
f 126 127 138
f 127 139 138
f 127 128 139
f 128 140 139
f 128 129 140
f 129 141 140
f 129 130 141
f 130 142 141
f 130 131 142
f 131 143 142
f 131 132 143
f 132 144 143
f 145 146 155
f 146 156 155
f 146 147 156
f 147 157 156
f 147 148 157
f 148 158 157
f 148 149 158
f 149 159 158
f 149 150 159
f 150 160 159
f 150 151 160
f 151 161 160
f 151 152 161
f 152 162 161
f 152 153 162
f 153 163 162
f 153 154 163
f 154 164 163
f 154 145 164
f 145 155 164
f 165 166 175
f 166 176 175
f 166 167 176
f 167 177 176
f 167 168 177
f 168 178 177
f 168 169 178
f 169 179 178
f 169 170 179
f 170 180 179
f 170 171 180
f 171 181 180
f 171 172 181
f 172 182 181
f 172 173 182
f 173 183 182
f 173 174 183
f 174 184 183
f 174 165 184
f 165 175 184
f 185 186 195
f 186 196 195
f 186 187 196
f 187 197 196
f 187 188 197
f 188 198 197
f 188 189 198
f 189 199 198
f 189 190 199
f 190 200 199
f 190 191 200
f 191 201 200
f 191 192 201
f 192 202 201
f 192 193 202
f 193 203 202
f 193 194 203
f 194 204 203
f 194 185 204
f 185 195 204
f 205 206 215
f 206 216 215
f 206 207 216
f 207 217 216
f 207 208 217
f 208 218 217
f 208 209 218
f 209 219 218
f 209 210 219
f 210 220 219
f 210 211 220
f 211 221 220
f 211 212 221
f 212 222 221
f 212 213 222
f 213 223 222
f 213 214 223
f 214 224 223
f 214 205 224
f 205 215 224
f 225 226 235
f 226 236 235
f 226 227 236
f 227 237 236
f 227 228 237
f 228 238 237
f 228 229 238
f 229 239 238
f 229 230 239
f 230 240 239
f 230 231 240
f 231 241 240
f 231 232 241
f 232 242 241
f 232 233 242
f 233 243 242
f 233 234 243
f 234 244 243
f 234 225 244
f 225 235 244
f 245 246 255
f 246 256 255
f 246 247 256
f 247 257 256
f 247 248 257
f 248 258 257
f 248 249 258
f 249 259 258
f 249 250 259
f 250 260 259
f 250 251 260
f 251 261 260
f 251 252 261
f 252 262 261
f 252 253 262
f 253 263 262
f 253 254 263
f 254 264 263
f 254 245 264
f 245 255 264
f 265 266 275
f 266 276 275
f 266 267 276
f 267 277 276
f 267 268 277
f 268 278 277
f 268 269 278
f 269 279 278
f 269 270 279
f 270 280 279
f 270 271 280
f 271 281 280
f 271 272 281
f 272 282 281
f 272 273 282
f 273 283 282
f 273 274 283
f 274 284 283
f 274 265 284
f 265 275 284
f 285 286 295
f 286 296 295
f 286 287 296
f 287 297 296
f 287 288 297
f 288 298 297
f 288 289 298
f 289 299 298
f 289 290 299
f 290 300 299
f 290 291 300
f 291 301 300
f 291 292 301
f 292 302 301
f 292 293 302
f 293 303 302
f 293 294 303
f 294 304 303
f 294 285 304
f 285 295 304
f 305 306 315
f 306 316 315
f 306 307 316
f 307 317 316
f 307 308 317
f 308 318 317
f 308 309 318
f 309 319 318
f 309 310 319
f 310 320 319
f 310 311 320
f 311 321 320
f 311 312 321
f 312 322 321
f 312 313 322
f 313 323 322
f 313 314 323
f 314 324 323
f 314 305 324
f 305 315 324
f 325 326 335
f 326 336 335
f 326 327 336
f 327 337 336
f 327 328 337
f 328 338 337
f 328 329 338
f 329 339 338
f 329 330 339
f 330 340 339
f 330 331 340
f 331 341 340
f 331 332 341
f 332 342 341
f 332 333 342
f 333 343 342
f 333 334 343
f 334 344 343
f 334 325 344
f 325 335 344
f 345 346 355
f 346 356 355
f 346 347 356
f 347 357 356
f 347 348 357
f 348 358 357
f 348 349 358
f 349 359 358
f 349 350 359
f 350 360 359
f 350 351 360
f 351 361 360
f 351 352 361
f 352 362 361
f 352 353 362
f 353 363 362
f 353 354 363
f 354 364 363
f 354 345 364
f 345 355 364
f 365 366 375
f 366 376 375
f 366 367 376
f 367 377 376
f 367 368 377
f 368 378 377
f 368 369 378
f 369 379 378
f 369 370 379
f 370 380 379
f 370 371 380
f 371 381 380
f 371 372 381
f 372 382 381
f 372 373 382
f 373 383 382
f 373 374 383
f 374 384 383
f 374 365 384
f 365 375 384
f 385 386 395
f 386 396 395
f 386 387 396
f 387 397 396
f 387 388 397
f 388 398 397
f 388 389 398
f 389 399 398
f 389 390 399
f 390 400 399
f 390 391 400
f 391 401 400
f 391 392 401
f 392 402 401
f 392 393 402
f 393 403 402
f 393 394 403
f 394 404 403
f 394 385 404
f 385 395 404
f 405 406 415
f 406 416 415
f 406 407 416
f 407 417 416
f 407 408 417
f 408 418 417
f 408 409 418
f 409 419 418
f 409 410 419
f 410 420 419
f 410 411 420
f 411 421 420
f 411 412 421
f 412 422 421
f 412 413 422
f 413 423 422
f 413 414 423
f 414 424 423
f 414 405 424
f 405 415 424
f 425 426 435
f 426 436 435
f 426 427 436
f 427 437 436
f 427 428 437
f 428 438 437
f 428 429 438
f 429 439 438
f 429 430 439
f 430 440 439
f 430 431 440
f 431 441 440
f 431 432 441
f 432 442 441
f 432 433 442
f 433 443 442
f 433 434 443
f 434 444 443
f 434 425 444
f 425 435 444
f 445 446 455
f 446 456 455
f 446 447 456
f 447 457 456
f 447 448 457
f 448 458 457
f 448 449 458
f 449 459 458
f 449 450 459
f 450 460 459
f 450 451 460
f 451 461 460
f 451 452 461
f 452 462 461
f 452 453 462
f 453 463 462
f 453 454 463
f 454 464 463
f 454 445 464
f 445 455 464
f 465 466 475
f 466 476 475
f 466 467 476
f 467 477 476
f 467 468 477
f 468 478 477
f 468 469 478
f 469 479 478
f 469 470 479
f 470 480 479
f 470 471 480
f 471 481 480
f 471 472 481
f 472 482 481
f 472 473 482
f 473 483 482
f 473 474 483
f 474 484 483
f 474 465 484
f 465 475 484
f 485 486 495
f 486 496 495
f 486 487 496
f 487 497 496
f 487 488 497
f 488 498 497
f 488 489 498
f 489 499 498
f 489 490 499
f 490 500 499
f 490 491 500
f 491 501 500
f 491 492 501
f 492 502 501
f 492 493 502
f 493 503 502
f 493 494 503
f 494 504 503
f 494 485 504
f 485 495 504
f 505 506 515
f 506 516 515
f 506 507 516
f 507 517 516
f 507 508 517
f 508 518 517
f 508 509 518
f 509 519 518
f 509 510 519
f 510 520 519
f 510 511 520
f 511 521 520
f 511 512 521
f 512 522 521
f 512 513 522
f 513 523 522
f 513 514 523
f 514 524 523
f 514 505 524
f 505 515 524
f 525 526 535
f 526 536 535
f 526 527 536
f 527 537 536
f 527 528 537
f 528 538 537
f 528 529 538
f 529 539 538
f 529 530 539
f 530 540 539
f 530 531 540
f 531 541 540
f 531 532 541
f 532 542 541
f 532 533 542
f 533 543 542
f 533 534 543
f 534 544 543
f 534 525 544
f 525 535 544
f 545 546 555
f 546 556 555
f 546 547 556
f 547 557 556
f 547 548 557
f 548 558 557
f 548 549 558
f 549 559 558
f 549 550 559
f 550 560 559
f 550 551 560
f 551 561 560
f 551 552 561
f 552 562 561
f 552 553 562
f 553 563 562
f 553 554 563
f 554 564 563
f 554 545 564
f 545 555 564
f 565 566 575
f 566 576 575
f 566 567 576
f 567 577 576
f 567 568 577
f 568 578 577
f 568 569 578
f 569 579 578
f 569 570 579
f 570 580 579
f 570 571 580
f 571 581 580
f 571 572 581
f 572 582 581
f 572 573 582
f 573 583 582
f 573 574 583
f 574 584 583
f 574 565 584
f 565 575 584
f 585 586 595
f 586 596 595
f 586 587 596
f 587 597 596
f 587 588 597
f 588 598 597
f 588 589 598
f 589 599 598
f 589 590 599
f 590 600 599
f 590 591 600
f 591 601 600
f 591 592 601
f 592 602 601
f 592 593 602
f 593 603 602
f 593 594 603
f 594 604 603
f 594 585 604
f 585 595 604
f 605 606 615
f 606 616 615
f 606 607 616
f 607 617 616
f 607 608 617
f 608 618 617
f 608 609 618
f 609 619 618
f 609 610 619
f 610 620 619
f 610 611 620
f 611 621 620
f 611 612 621
f 612 622 621
f 612 613 622
f 613 623 622
f 613 614 623
f 614 624 623
f 614 605 624
f 605 615 624
f 625 626 635
f 626 636 635
f 626 627 636
f 627 637 636
f 627 628 637
f 628 638 637
f 628 629 638
f 629 639 638
f 629 630 639
f 630 640 639
f 630 631 640
f 631 641 640
f 631 632 641
f 632 642 641
f 632 633 642
f 633 643 642
f 633 634 643
f 634 644 643
f 634 625 644
f 625 635 644
f 645 646 655
f 646 656 655
f 646 647 656
f 647 657 656
f 647 648 657
f 648 658 657
f 648 649 658
f 649 659 658
f 649 650 659
f 650 660 659
f 650 651 660
f 651 661 660
f 651 652 661
f 652 662 661
f 652 653 662
f 653 663 662
f 653 654 663
f 654 664 663
f 654 645 664
f 645 655 664
f 665 666 675
f 666 676 675
f 666 667 676
f 667 677 676
f 667 668 677
f 668 678 677
f 668 669 678
f 669 679 678
f 669 670 679
f 670 680 679
f 670 671 680
f 671 681 680
f 671 672 681
f 672 682 681
f 672 673 682
f 673 683 682
f 673 674 683
f 674 684 683
f 674 665 684
f 665 675 684
f 685 686 695
f 686 696 695
f 686 687 696
f 687 697 696
f 687 688 697
f 688 698 697
f 688 689 698
f 689 699 698
f 689 690 699
f 690 700 699
f 690 691 700
f 691 701 700
f 691 692 701
f 692 702 701
f 692 693 702
f 693 703 702
f 693 694 703
f 694 704 703
f 694 685 704
f 685 695 704
f 705 706 715
f 706 716 715
f 706 707 716
f 707 717 716
f 707 708 717
f 708 718 717
f 708 709 718
f 709 719 718
f 709 710 719
f 710 720 719
f 710 711 720
f 711 721 720
f 711 712 721
f 712 722 721
f 712 713 722
f 713 723 722
f 713 714 723
f 714 724 723
f 714 705 724
f 705 715 724
f 725 726 735
f 726 736 735
f 726 727 736
f 727 737 736
f 727 728 737
f 728 738 737
f 728 729 738
f 729 739 738
f 729 730 739
f 730 740 739
f 730 731 740
f 731 741 740
f 731 732 741
f 732 742 741
f 732 733 742
f 733 743 742
f 733 734 743
f 734 744 743
f 734 725 744
f 725 735 744
f 745 746 755
f 746 756 755
f 746 747 756
f 747 757 756
f 747 748 757
f 748 758 757
f 748 749 758
f 749 759 758
f 749 750 759
f 750 760 759
f 750 751 760
f 751 761 760
f 751 752 761
f 752 762 761
f 752 753 762
f 753 763 762
f 753 754 763
f 754 764 763
f 754 745 764
f 745 755 764
f 765 766 775
f 766 776 775
f 766 767 776
f 767 777 776
f 767 768 777
f 768 778 777
f 768 769 778
f 769 779 778
f 769 770 779
f 770 780 779
f 770 771 780
f 771 781 780
f 771 772 781
f 772 782 781
f 772 773 782
f 773 783 782
f 773 774 783
f 774 784 783
f 774 765 784
f 765 775 784
